<?xml version="1.0" encoding="utf-8" ?>
<svg baseProfile="full" height="47.317540645599365" version="1.1" width="78.20779085159302" xmlns="http://www.w3.org/2000/svg" xmlns:ev="http://www.w3.org/2001/xml-events" xmlns:xlink="http://www.w3.org/1999/xlink"><defs><clipPath /></defs><polygon points="71.89695239067078,46.48711979389191 71.89695239067078,46.39929533004761 58.01936388015747,44.14045214653015 52.90285348892212,36.97558343410492 52.998679876327515,36.89584136009216 52.929288148880005,36.805084347724915 52.75129675865173,36.585357785224915 52.51001715660095,36.31545007228851 52.250683307647705,36.074140667915344 51.79928541183472,35.80556511878967 51.5474796295166,35.67747473716736 51.22080445289612,35.544633865356445 32.007426023483276,29.21416163444519 31.936755776405334,29.196083545684814 31.753775477409363,29.155850410461426 31.501972675323486,29.1144460439682 31.224888563156128,29.092833399772644 30.966025590896606,29.11200523376465 30.470606684684753,29.195597767829895 30.20622730255127,29.24477756023407 29.932573437690735,29.311710596084595 29.651060700416565,29.406040906906128 29.52621579170227,29.463112354278564 29.212522506713867,29.641729593276978 28.801265358924866,29.95300590991974 28.383690118789673,30.40802776813507 28.051090240478516,31.01794123649597 28.0184805393219,31.109213829040527 27.943143248558044,31.34632110595703 27.858787775039673,31.674185395240784 27.799126505851746,32.03772008419037 27.7978777885437,32.381850481033325 27.81597375869751,32.475847005844116 27.864259481430054,32.71038234233856 27.933716773986816,33.01432132720947 28.015336394309998,33.31648409366608 28.143581748008728,33.673661947250366 28.286588191986084,34.0079128742218 28.54805290699005,34.47416126728058 28.946882486343384,34.99808311462402 29.560893774032593,35.562559962272644 29.767420887947083,35.70740520954132 30.166250467300415,35.89961230754852 30.802065134048462,36.098867654800415 41.04005694389343,38.405969738960266 40.03631770610809,38.92543017864227 40.05141258239746,38.884568214416504 36.74215376377106,37.956565618515015 33.888015151023865,37.28196918964386 33.85191857814789,37.34349012374878 36.72431409358978,38.118794560432434 40.03631770610809,38.92543017864227 42.21604764461517,38.85003328323364 42.592838406562805,38.994041085243225 43.211594223976135,39.211538434028625 43.33869516849518,39.24855887889862 43.67265999317169,39.340126514434814 44.14249062538147,39.45697546005249 44.67715322971344,39.569857716560364 45.26440501213074,39.66015875339508 45.43752372264862,39.686229825019836 45.720332860946655,39.71893489360809 46.10812067985535,39.74941968917847 46.65474891662598,39.772793650627136 46.82046175003052,39.7736132144928 47.07849621772766,39.75503146648407 47.41399586200714,39.700695872306824 47.81211018562317,39.59431052207947 48.09722602367401,39.50788080692291 48.35592806339264,39.42828178405762 48.60524237155914,39.34970200061798 49.79386031627655,38.96339535713196 49.90209639072418,38.9213502407074 50.1642644405365,38.81814777851105 50.48656463623047,38.688188791275024 50.775206089019775,38.56588900089264 50.93638896942139,38.485634326934814 51.238852739334106,38.28386962413788 51.461029052734375,38.13447952270508 51.6801118850708,37.980398535728455 51.858288049697876,37.842369079589844 52.77408957481384,37.10411489009857 52.90285348892212,36.97558343410492 58.01936388015747,44.14045214653015 57.19560980796814,43.541574478149414 56.60526156425476,43.00355911254883 56.24988675117493,42.61544942855835 56.13107085227966,42.466288805007935 56.01104497909546,42.07243323326111 55.82039952278137,41.63644015789032 55.615031719207764,41.2327766418457 55.45083284378052,40.93596041202545 55.38367033004761,40.82046449184418 54.57560420036316,39.552077651023865 54.530149698257446,39.48094844818115 54.173362255096436,38.95525634288788 53.287070989608765,37.66428530216217 47.21788167953491,40.62982201576233 38.47648501396179,41.576558351516724 36.33220195770264,41.07967913150787 37.19601333141327,39.879196882247925 39.89040553569794,40.42884707450867 39.89558815956116,40.38318395614624 33.460187911987305,38.641685247421265 26.61973237991333,34.08812880516052 26.44517421722412,32.840630412101746 26.435863971710205,32.71864652633667 26.423609256744385,32.38817751407623 26.431939005851746,31.902462244033813 26.484370231628418,31.31471276283264 26.60442888736725,30.678164958953857 26.63153111934662,30.5926114320755 26.735979318618774,30.35239577293396 26.952457427978516,29.982221126556396 27.315637469291687,29.506757855415344 27.860236167907715,28.95069420337677 27.951443195343018,28.880080580711365 28.22524905204773,28.700396418571472 28.68194878101349,28.459841012954712 29.32182252407074,28.206637501716614 30.145171284675598,27.988997101783752 30.92925250530243,27.84629762172699 31.500181555747986,27.773892879486084 37.99674212932587,30.447936058044434 37.95938789844513,30.558857321739197 45.785266160964966,33.193519711494446 45.82277536392212,33.08267295360565 37.99674212932587,30.447936058044434 31.500181555747986,27.773892879486084 31.93145990371704,27.753841876983643 32.296574115753174,27.768203616142273 32.66902565956116,27.79902219772339 34.2862993478775,28.160294890403748 36.20363473892212,28.920048475265503 38.02304267883301,29.661273956298828 38.823503255844116,30.0026535987854 40.48152565956116,30.62320053577423 40.54954648017883,30.64219355583191 40.71596562862396,30.68898916244507 40.924352407455444,30.748319625854492 41.118234395980835,30.804914236068726 41.2411630153656,30.843517184257507 42.09876358509064,31.145864725112915 53.55610251426697,36.46100163459778 53.69797945022583,36.50811314582825 61.00732684135437,35.79326272010803 61.9056761264801,35.899534821510315 61.87312602996826,35.899534821510315 65.11567831039429,36.29160821437836 76.79070830345154,38.08876574039459 76.85264945030212,38.14555108547211 76.50959491729736,41.874176263809204 76.55531167984009,41.14510715007782 76.50831341743469,40.54055213928223 76.416015625,40.082040429115295 76.32582783699036,39.791128039360046 76.28523707389832,39.68937397003174 76.11610889434814,39.33964967727661 75.87225437164307,39.008963108062744 75.61821937561035,38.73100280761719 75.4184901714325,38.539502024650574 75.33756494522095,38.4681761264801 75.0221848487854,38.249555230140686 74.6986985206604,38.06484043598175 74.41204190254211,37.92247176170349 74.20708537101746,37.83086538314819 74.12879467010498,37.79845833778381 73.7828016281128,37.664246559143066 73.42190742492676,37.574538588523865 73.09882640838623,37.52090632915497 72.86631464958191,37.494900822639465 72.77708053588867,37.48810589313507 71.6131329536438,37.39822506904602 59.53714847564697,36.67948842048645 57.539963722229004,36.58953309059143 56.75082206726074,36.611706018447876 56.226080656051636,36.64328753948212 55.91456890106201,36.676040291786194 55.604904890060425,36.71679496765137 55.17643094062805,36.816176772117615 55.105018615722656,36.837226152420044 55.079782009124756,36.84325814247131 55.02517819404602,36.851054430007935 54.66068387031555,36.94467842578888 54.52259182929993,36.98147237300873 54.47190999984741,36.99871897697449 54.17472720146179,37.110698223114014 54.09736633300781,37.14085817337036 54.1606068611145,37.31131851673126 54.24691438674927,37.423574924468994 54.262131452560425,37.44482398033142 54.397350549697876,37.6554399728775 54.51819896697998,37.89279758930206 54.53057289123535,37.91610598564148 54.901278018951416,38.5115921497345 56.414997577667236,40.6349778175354 56.96306824684143,41.22031331062317 57.52963423728943,41.74506366252899 57.97327756881714,42.123082280159 58.15258026123047,42.26823151111603 58.83951783180237,42.72058606147766 59.60583686828613,43.11351776123047 60.318249464035034,43.42342913150787 60.843425989151,43.62668991088867 62.16723322868347,44.11622881889343 62.920182943344116,44.37386393547058 62.9740834236145,44.39135789871216 62.99605369567871,44.39806640148163 63.20210099220276,44.468528032302856 63.26543092727661,44.49134171009064 63.33445906639099,44.512009620666504 64.2371118068695,44.77645754814148 64.30214047431946,44.79084610939026 64.55078125,44.843944907188416 64.74361419677734,44.87866759300232 64.78782892227173,44.887834787368774 64.86175656318665,44.91411745548248 64.8829698562622,44.92115080356598 65.44638276100159,45.065975189208984 66.1093533039093,45.22755444049835 66.78940057754517,45.354247093200684 67.48023629188538,45.466846227645874 68.0162250995636,45.54749131202698 68.23168396949768,45.578327775001526 68.55558156967163,45.61896026134491 68.99147033691406,45.65570652484894 69.43367123603821,45.685628056526184 71.27015590667725,45.79475820064545 71.91128730773926,45.81518769264221 72.60974645614624,45.81518769264221 73.02303314208984,45.8012193441391 73.43458533287048,45.7466721534729 73.79265427589417,45.67665159702301 74.14121627807617,45.59052586555481 74.7856855392456,45.188769698143005 75.29136538505554,44.72684860229492 75.6557285785675,44.29060518741608 75.8762001991272,43.96589398384094 75.95025897026062,43.838584423065186 76.18723511695862,43.326908349990845 76.34829878807068,42.80130863189697 76.44681334495544,42.33511686325073 76.49613618850708,42.00162887573242 76.50959491729736,41.874176263809204 78.20779085159302,41.129156947135925 78.03799510002136,42.494553327560425 77.71158218383789,43.477681279182434 77.53471732139587,43.85505020618439 77.44637727737427,44.016656279563904 77.23572254180908,44.306519627571106 76.984304189682,44.630324840545654 76.77364945411682,44.89376246929169 76.68530941009521,45.00252902507782 76.61195397377014,45.07803916931152 75.48058032989502,46.10510766506195 75.39226412773132,46.1734414100647 75.22767186164856,46.29042446613312 75.04189014434814,46.41938507556915 74.89004731178284,46.52365446090698 74.82717633247375,46.56655490398407 72.11955785751343,47.26089835166931 71.95618748664856,47.26089835166931 71.24553322792053,47.21599519252777 65.06608724594116,46.81729972362518 65.04274010658264,46.80606424808502" stroke="white" stroke-width="0.1" /><polygon points="65.04274010658264,46.80606424808502 65.01756310462952,46.79533541202545 70.99273800849915,46.48711979389191 71.89695239067078,46.48711979389191" stroke="white" stroke-width="0.1" /><polygon points="65.01756310462952,46.79533541202545 63.38820457458496,46.36232256889343 70.99273800849915,46.48711979389191" stroke="white" stroke-width="0.1" /><polygon points="63.38820457458496,46.36232256889343 63.26116323471069,46.33515477180481 63.06096911430359,46.27036452293396 62.8459095954895,46.19302451610565 62.67417669296265,46.12824618816376 62.60398030281067,46.10106647014618 70.99273800849915,46.39929533004761 70.99273800849915,46.48711979389191" stroke="white" stroke-width="0.1" /><polygon points="65.01756310462952,46.79533541202545 63.395845890045166,46.364572644233704 63.38820457458496,46.36232256889343" stroke="white" stroke-width="0.1" /><polygon points="65.01756310462952,46.79533541202545 63.41603398323059,46.37054800987244 63.395845890045166,46.364572644233704" stroke="white" stroke-width="0.1" /><polygon points="65.01756310462952,46.79533541202545 63.4446382522583,46.37906551361084 63.41603398323059,46.37054800987244" stroke="white" stroke-width="0.1" /><polygon points="65.01756310462952,46.79533541202545 63.477569818496704,46.38899564743042 63.4446382522583,46.37906551361084" stroke="white" stroke-width="0.1" /><polygon points="65.01756310462952,46.79533541202545 63.589996099472046,46.420127153396606 63.5107159614563,46.39914333820343 63.477569818496704,46.38899564743042" stroke="white" stroke-width="0.1" /><polygon points="65.01756310462952,46.79533541202545 63.78433704376221,46.47286236286163 63.589996099472046,46.420127153396606" stroke="white" stroke-width="0.1" /><polygon points="65.01756310462952,46.79533541202545 64.02845978736877,46.54206335544586 63.78433704376221,46.47286236286163" stroke="white" stroke-width="0.1" /><polygon points="65.01756310462952,46.79533541202545 64.25708532333374,46.61240875720978 64.02845978736877,46.54206335544586" stroke="white" stroke-width="0.1" /><polygon points="65.01756310462952,46.79533541202545 64.69082236289978,46.73808217048645 64.62350487709045,46.72301709651947 64.54790234565735,46.70480489730835 64.47738409042358,46.68719470500946 64.42527770996094,46.67389392852783 64.40494656562805,46.668633818626404 64.25708532333374,46.61240875720978" stroke="white" stroke-width="0.1" /><polygon points="65.01756310462952,46.79533541202545 64.92714881896973,46.78937792778015 64.83905911445618,46.77518010139465 64.76351022720337,46.758246421813965 64.71068263053894,46.74403667449951 64.69082236289978,46.73808217048645" stroke="white" stroke-width="0.1" /><polygon points="65.04274010658264,46.80606424808502 65.02476930618286,46.7982679605484 65.01756310462952,46.79533541202545" stroke="white" stroke-width="0.1" /><polygon points="71.24553322792053,47.21599519252777 65.08945226669312,46.830517053604126 65.06608724594116,46.81729972362518" stroke="white" stroke-width="0.1" /><polygon points="71.24553322792053,47.21599519252777 65.12943506240845,46.845898032188416 65.10744094848633,46.844276785850525 65.08945226669312,46.830517053604126" stroke="white" stroke-width="0.1" /><polygon points="71.24553322792053,47.21599519252777 65.1833713054657,46.85124158859253 65.12943506240845,46.845898032188416" stroke="white" stroke-width="0.1" /><polygon points="71.24553322792053,47.21599519252777 65.25124311447144,46.861085295677185 65.1833713054657,46.85124158859253" stroke="white" stroke-width="0.1" /><polygon points="71.24553322792053,47.21599519252777 65.31500816345215,46.87622785568237 65.25124311447144,46.861085295677185" stroke="white" stroke-width="0.1" /><polygon points="71.24553322792053,47.21599519252777 65.64253568649292,46.96282148361206 65.57822823524475,46.95601761341095 65.50300717353821,46.939799189567566 65.43136239051819,46.920445561409 65.3777539730072,46.90421521663666 65.35665392875671,46.89741134643555 65.31500816345215,46.87622785568237" stroke="white" stroke-width="0.1" /><polygon points="71.24553322792053,47.21599519252777 66.11625552177429,47.060781717300415 66.03405475616455,47.0505952835083 65.91246128082275,47.026294469833374 65.78459739685059,46.9973087310791 65.68358540534973,46.97301685810089 65.64253568649292,46.96282148361206" stroke="white" stroke-width="0.1" /><polygon points="71.24553322792053,47.21599519252777 66.13938808441162,47.06394672393799 66.11625552177429,47.060781717300415" stroke="white" stroke-width="0.1" /><polygon points="71.24553322792053,47.21599519252777 66.19545817375183,47.07238972187042 66.13938808441162,47.06394672393799" stroke="white" stroke-width="0.1" /><polygon points="71.24553322792053,47.21599519252777 66.26447439193726,47.084566950798035 66.19545817375183,47.07238972187042" stroke="white" stroke-width="0.1" /><polygon points="71.24553322792053,47.21599519252777 66.42115116119385,47.10762798786163 66.32639169692993,47.09889888763428 66.26447439193726,47.084566950798035" stroke="white" stroke-width="0.1" /><polygon points="66.42115116119385,47.10762798786163 66.36929512023926,47.11131751537323 66.32639169692993,47.09889888763428" stroke="white" stroke-width="0.1" /><polygon points="66.36929512023926,47.11131751537323 66.36119484901428,47.11384177207947 66.32639169692993,47.09889888763428" stroke="white" stroke-width="0.1" /><polygon points="66.42115116119385,47.10762798786163 66.39073491096497,47.10741937160492 66.36929512023926,47.11131751537323" stroke="white" stroke-width="0.1" /><polygon points="71.24553322792053,47.21599519252777 66.58276915550232,47.12214171886444 66.42115116119385,47.10762798786163" stroke="white" stroke-width="0.1" /><polygon points="66.58276915550232,47.12214171886444 66.53710603713989,47.12725877761841 66.45631790161133,47.11747169494629 66.42115116119385,47.10762798786163" stroke="white" stroke-width="0.1" /><polygon points="66.53710603713989,47.12725877761841 66.4918601512909,47.142428159713745 66.45631790161133,47.11747169494629" stroke="white" stroke-width="0.1" /><polygon points="66.53710603713989,47.12725877761841 66.5043830871582,47.13709354400635 66.4918601512909,47.142428159713745" stroke="white" stroke-width="0.1" /><polygon points="71.24553322792053,47.21599519252777 70.50636410713196,47.224077582359314 66.63411259651184,47.13098406791687 66.58276915550232,47.12214171886444" stroke="white" stroke-width="0.1" /><polygon points="70.50636410713196,47.224077582359314 67.49655604362488,47.26493954658508 67.39315986633301,47.25813269615173 67.23529696464539,47.24191427230835 67.06746816635132,47.22256064414978 66.93413257598877,47.20633327960968 66.87981486320496,47.19952940940857 66.85159206390381,47.1957266330719 66.80201888084412,47.18667268753052 66.74697995185852,47.17586636543274 66.70230627059937,47.166815400123596 66.68389439582825,47.163012623786926 66.63411259651184,47.13098406791687" stroke="white" stroke-width="0.1" /><polygon points="70.50636410713196,47.224077582359314 68.01929473876953,47.2976416349411 67.95396208763123,47.294241189956665 67.82293319702148,47.28613197803497 67.6723301410675,47.27644920349121 67.54818558692932,47.268348932266235 67.49655604362488,47.26493954658508" stroke="white" stroke-width="0.1" /><polygon points="70.50636410713196,47.224077582359314 68.03518533706665,47.29955792427063 68.01929473876953,47.2976416349411" stroke="white" stroke-width="0.1" /><polygon points="70.50636410713196,47.224077582359314 68.04816722869873,47.304123640060425 68.03518533706665,47.29955792427063" stroke="white" stroke-width="0.1" /><polygon points="70.50636410713196,47.224077582359314 68.3952808380127,47.30145335197449 68.05784702301025,47.30954468250275 68.04816722869873,47.304123640060425" stroke="white" stroke-width="0.1" /><polygon points="68.3952808380127,47.30145335197449 68.3542251586914,47.30631411075592 68.06392669677734,47.31411039829254 68.05784702301025,47.30954468250275" stroke="white" stroke-width="0.1" /><polygon points="68.3542251586914,47.30631411075592 68.30928921699524,47.316014766693115 68.16215515136719,47.316014766693115 68.06602478027344,47.316014766693115 68.06392669677734,47.31411039829254" stroke="white" stroke-width="0.1" /><polygon points="68.3542251586914,47.30631411075592 68.32221150398254,47.31278419494629 68.30928921699524,47.316014766693115" stroke="white" stroke-width="0.1" /><polygon points="70.50636410713196,47.224077582359314 69.08767819404602,47.28291928768158 68.4353768825531,47.30307459831238 68.3952808380127,47.30145335197449" stroke="white" stroke-width="0.1" /><polygon points="69.08767819404602,47.28291928768158 68.89362335205078,47.30844795703888 68.75464916229248,47.315606474876404 68.61512064933777,47.317540645599365 68.50753426551819,47.31682538986206 68.46442222595215,47.316014766693115 68.4353768825531,47.30307459831238" stroke="white" stroke-width="0.1" /><polygon points="69.08767819404602,47.28291928768158 68.99943947792053,47.29352593421936 68.89362335205078,47.30844795703888" stroke="white" stroke-width="0.1" /><polygon points="69.08767819404602,47.28291928768158 69.01186108589172,47.29117155075073 68.99943947792053,47.29352593421936" stroke="white" stroke-width="0.1" /><polygon points="69.08767819404602,47.28291928768158 69.0438985824585,47.28645384311676 69.01186108589172,47.29117155075073" stroke="white" stroke-width="0.1" /><polygon points="70.50636410713196,47.224077582359314 69.13536190986633,47.28410243988037 69.08767819404602,47.28291928768158" stroke="white" stroke-width="0.1" /><polygon points="70.50636410713196,47.224077582359314 69.56707835197449,47.29352593421936 69.39974427223206,47.29352593421936 69.17912364006042,47.29352593421936 69.13536190986633,47.28410243988037" stroke="white" stroke-width="0.1" /><polygon points="74.82717633247375,46.56655490398407 74.54937696456909,46.758511662483215 74.00628328323364,46.99941277503967 73.53877425193787,47.15210199356079 73.03696274757385,47.23263382911682 72.58022427558899,47.26298451423645 72.24795818328857,47.265079617500305 72.11955785751343,47.26089835166931" stroke="white" stroke-width="0.1" /><polygon points="76.61195397377014,45.07803916931152 76.13810300827026,45.570096373558044 76.06971859931946,45.639848709106445 75.90665221214294,45.774298906326294 75.71202516555786,45.927366614341736 75.54896473884583,46.053001284599304 75.48058032989502,46.10510766506195" stroke="white" stroke-width="0.1" /><polygon points="76.61195397377014,45.07803916931152 76.19089484214783,45.515188574790955 76.13810300827026,45.570096373558044" stroke="white" stroke-width="0.1" /><polygon points="76.61195397377014,45.07803916931152 76.31839513778687,45.38267254829407 76.19089484214783,45.515188574790955" stroke="white" stroke-width="0.1" /><polygon points="76.61195397377014,45.07803916931152 76.4741837978363,45.2208548784256 76.31839513778687,45.38267254829407" stroke="white" stroke-width="0.1" /><polygon points="76.50959491729736,41.874176263809204 76.85264945030212,38.14555108547211 77.91474461555481,39.60500359535217 78.20779085159302,41.129156947135925" stroke="white" stroke-width="0.1" /><polygon points="73.79265427589417,45.67665159702301 74.04546737670898,45.61624526977539 74.14121627807617,45.59052586555481" stroke="white" stroke-width="0.1" /><polygon points="69.43367123603821,45.685628056526184 69.77649331092834,45.705753564834595 71.27015590667725,45.79475820064545" stroke="white" stroke-width="0.1" /><polygon points="69.77649331092834,45.705753564834595 69.91425156593323,45.71311175823212 71.27015590667725,45.79475820064545" stroke="white" stroke-width="0.1" /><polygon points="65.44638276100159,45.065975189208984 65.60571193695068,45.104607939720154 66.1093533039093,45.22755444049835" stroke="white" stroke-width="0.1" /><polygon points="65.44638276100159,45.065975189208984 65.55898189544678,45.09352445602417 65.60571193695068,45.104607939720154" stroke="white" stroke-width="0.1" /><polygon points="64.8829698562622,44.92115080356598 65.3093695640564,45.03045976161957 65.44638276100159,45.065975189208984" stroke="white" stroke-width="0.1" /><polygon points="64.8829698562622,44.92115080356598 64.90006446838379,44.92132067680359 65.3093695640564,45.03045976161957" stroke="white" stroke-width="0.1" /><polygon points="64.90006446838379,44.92132067680359 64.91148471832275,44.91855800151825 65.18943309783936,44.99554634094238 65.3093695640564,45.03045976161957" stroke="white" stroke-width="0.1" /><polygon points="64.91148471832275,44.91855800151825 64.9156391620636,44.91676688194275 65.12802839279175,44.969749450683594 65.18943309783936,44.99554634094238" stroke="white" stroke-width="0.1" /><polygon points="64.78782892227173,44.887834787368774 64.83803391456604,44.896334409713745 64.86175656318665,44.91411745548248" stroke="white" stroke-width="0.1" /><polygon points="64.78782892227173,44.887834787368774 64.82343077659607,44.89404857158661 64.83803391456604,44.896334409713745" stroke="white" stroke-width="0.1" /><polygon points="64.55078125,44.843944907188416 64.61207270622253,44.85200643539429 64.70315456390381,44.8675274848938 64.74361419677734,44.87866759300232" stroke="white" stroke-width="0.1" /><polygon points="64.61207270622253,44.85200643539429 64.67877626419067,44.85539793968201 64.70315456390381,44.8675274848938" stroke="white" stroke-width="0.1" /><polygon points="64.61207270622253,44.85200643539429 64.65964317321777,44.85497772693634 64.67877626419067,44.85539793968201" stroke="white" stroke-width="0.1" /><polygon points="64.30214047431946,44.79084610939026 64.49047923088074,44.828230142593384 64.55078125,44.843944907188416" stroke="white" stroke-width="0.1" /><polygon points="64.30214047431946,44.79084610939026 64.42407965660095,44.80174779891968 64.49047923088074,44.828230142593384" stroke="white" stroke-width="0.1" /><polygon points="64.42407965660095,44.80174779891968 64.44588303565979,44.802337884902954 64.49047923088074,44.828230142593384" stroke="white" stroke-width="0.1" /><polygon points="64.30214047431946,44.79084610939026 64.37031626701355,44.798603653907776 64.42407965660095,44.80174779891968" stroke="white" stroke-width="0.1" /><polygon points="63.33445906639099,44.512009620666504 63.412755727767944,44.53277289867401 64.2371118068695,44.77645754814148" stroke="white" stroke-width="0.1" /><polygon points="63.412755727767944,44.53277289867401 63.910943269729614,44.65528130531311 64.2371118068695,44.77645754814148" stroke="white" stroke-width="0.1" /><polygon points="63.910943269729614,44.65528130531311 64.01714086532593,44.679754972457886 64.19270634651184,44.75339651107788 64.2371118068695,44.77645754814148" stroke="white" stroke-width="0.1" /><polygon points="63.412755727767944,44.53277289867401 63.79240155220032,44.61853802204132 63.910943269729614,44.65528130531311" stroke="white" stroke-width="0.1" /><polygon points="63.412755727767944,44.53277289867401 63.580238819122314,44.549164175987244 63.79240155220032,44.61853802204132" stroke="white" stroke-width="0.1" /><polygon points="63.33445906639099,44.512009620666504 63.38998079299927,44.527000188827515 63.412755727767944,44.53277289867401" stroke="white" stroke-width="0.1" /><polygon points="62.99605369567871,44.39806640148163 63.163697719573975,44.44708526134491 63.20210099220276,44.468528032302856" stroke="white" stroke-width="0.1" /><polygon points="62.16723322868347,44.11622881889343 62.85235285758972,44.34950649738312 62.920182943344116,44.37386393547058" stroke="white" stroke-width="0.1" /><polygon points="62.16723322868347,44.11622881889343 62.788623571395874,44.322243332862854 62.85235285758972,44.34950649738312" stroke="white" stroke-width="0.1" /><polygon points="62.16723322868347,44.11622881889343 62.74699568748474,44.29599046707153 62.788623571395874,44.322243332862854" stroke="white" stroke-width="0.1" /><polygon points="60.843425989151,43.62668991088867 61.04811429977417,43.699684739112854 61.95073127746582,44.0345823764801 62.16723322868347,44.11622881889343" stroke="white" stroke-width="0.1" /><polygon points="54.901278018951416,38.5115921497345 54.941266775131226,38.547736406326294 55.31033277511597,39.05525803565979 56.02685809135437,40.07519781589508 56.414997577667236,40.6349778175354" stroke="white" stroke-width="0.1" /><polygon points="54.941266775131226,38.547736406326294 54.96712923049927,38.562098145484924 55.31033277511597,39.05525803565979" stroke="white" stroke-width="0.1" /><polygon points="54.941266775131226,38.547736406326294 54.959481954574585,38.55828642845154 54.96712923049927,38.562098145484924" stroke="white" stroke-width="0.1" /><polygon points="54.901278018951416,38.5115921497345 54.91949915885925,38.53173553943634 54.941266775131226,38.547736406326294" stroke="white" stroke-width="0.1" /><polygon points="54.53057289123535,37.91610598564148 54.767221212387085,38.26230466365814 54.901278018951416,38.5115921497345" stroke="white" stroke-width="0.1" /><polygon points="54.767221212387085,38.26230466365814 54.804593324661255,38.302576541900635 54.901278018951416,38.5115921497345" stroke="white" stroke-width="0.1" /><polygon points="54.804593324661255,38.302576541900635 54.81084585189819,38.307932019233704 54.89363670349121,38.48860561847687 54.901278018951416,38.5115921497345" stroke="white" stroke-width="0.1" /><polygon points="54.767221212387085,38.26230466365814 54.78862524032593,38.28707039356232 54.804593324661255,38.302576541900635" stroke="white" stroke-width="0.1" /><polygon points="54.53057289123535,37.91610598564148 54.74463701248169,38.22914361953735 54.767221212387085,38.26230466365814" stroke="white" stroke-width="0.1" /><polygon points="54.53057289123535,37.91610598564148 54.550886154174805,37.93839514255524 54.74463701248169,38.22914361953735" stroke="white" stroke-width="0.1" /><polygon points="54.550886154174805,37.93839514255524 54.578256607055664,37.961673736572266 54.725080728530884,38.188472390174866 54.74463701248169,38.22914361953735" stroke="white" stroke-width="0.1" /><polygon points="54.550886154174805,37.93839514255524 54.56987023353577,37.95509934425354 54.578256607055664,37.961673736572266" stroke="white" stroke-width="0.1" /><polygon points="54.397350549697876,37.6554399728775 54.41575050354004,37.68337070941925 54.44759726524353,37.7379834651947 54.48281168937683,37.80041038990021 54.5113205909729,37.85170614719391 54.52306270599365,37.87301480770111 54.51819896697998,37.89279758930206" stroke="white" stroke-width="0.1" /><polygon points="54.262131452560425,37.44482398033142 54.268819093704224,37.45341897010803 54.397350549697876,37.6554399728775" stroke="white" stroke-width="0.1" /><polygon points="54.1606068611145,37.31131851673126 54.23043370246887,37.39651143550873 54.24691438674927,37.423574924468994" stroke="white" stroke-width="0.1" /><polygon points="54.1606068611145,37.31131851673126 54.185283184051514,37.33381927013397 54.219990968704224,37.37048804759979 54.23043370246887,37.39651143550873" stroke="white" stroke-width="0.1" /><polygon points="54.185283184051514,37.33381927013397 54.22285199165344,37.35233247280121 54.219990968704224,37.37048804759979" stroke="white" stroke-width="0.1" /><polygon points="54.185283184051514,37.33381927013397 54.21098470687866,37.34762668609619 54.22285199165344,37.35233247280121" stroke="white" stroke-width="0.1" /><polygon points="54.09736633300781,37.14085817337036 54.151809215545654,37.280577421188354 54.1606068611145,37.31131851673126" stroke="white" stroke-width="0.1" /><polygon points="54.09736633300781,37.14085817337036 54.17375564575195,37.24202215671539 54.151809215545654,37.280577421188354" stroke="white" stroke-width="0.1" /><polygon points="54.17472720146179,37.110698223114014 54.1192889213562,37.13195025920868 54.09736633300781,37.14085817337036" stroke="white" stroke-width="0.1" /><polygon points="54.47190999984741,36.99871897697449 54.248178005218506,37.08533048629761 54.17472720146179,37.110698223114014" stroke="white" stroke-width="0.1" /><polygon points="54.47190999984741,36.99871897697449 54.4286847114563,37.02341914176941 54.32420372962952,37.06408143043518 54.248178005218506,37.08533048629761" stroke="white" stroke-width="0.1" /><polygon points="54.4286847114563,37.02341914176941 54.38728928565979,37.05517053604126 54.32420372962952,37.06408143043518" stroke="white" stroke-width="0.1" /><polygon points="54.4286847114563,37.02341914176941 54.398590326309204,37.045565247535706 54.38728928565979,37.05517053604126" stroke="white" stroke-width="0.1" /><polygon points="54.66068387031555,36.94467842578888 54.61546778678894,36.96158528327942 54.52259182929993,36.98147237300873" stroke="white" stroke-width="0.1" /><polygon points="54.61546778678894,36.96158528327942 54.575055837631226,36.98168098926544 54.52259182929993,36.98147237300873" stroke="white" stroke-width="0.1" /><polygon points="54.61546778678894,36.96158528327942 54.58574295043945,36.97574436664581 54.575055837631226,36.98168098926544" stroke="white" stroke-width="0.1" /><polygon points="55.02517819404602,36.851054430007935 54.717856645584106,36.930519342422485 54.66068387031555,36.94467842578888" stroke="white" stroke-width="0.1" /><polygon points="55.02517819404602,36.851054430007935 54.851317405700684,36.90072000026703 54.717856645584106,36.930519342422485" stroke="white" stroke-width="0.1" /><polygon points="54.851317405700684,36.90072000026703 54.783475399017334,36.924582719802856 54.717856645584106,36.930519342422485" stroke="white" stroke-width="0.1" /><polygon points="54.851317405700684,36.90072000026703 54.79283332824707,36.9207501411438 54.783475399017334,36.924582719802856" stroke="white" stroke-width="0.1" /><polygon points="54.851317405700684,36.90072000026703 54.81728911399841,36.91162168979645 54.79283332824707,36.9207501411438" stroke="white" stroke-width="0.1" /><polygon points="55.02517819404602,36.851054430007935 54.965174198150635,36.869436502456665 54.8895001411438,36.89159154891968 54.851317405700684,36.90072000026703" stroke="white" stroke-width="0.1" /><polygon points="54.965174198150635,36.869436502456665 54.92634177207947,36.88776195049286 54.8895001411438,36.89159154891968" stroke="white" stroke-width="0.1" /><polygon points="54.965174198150635,36.869436502456665 54.93781566619873,36.882033944129944 54.92634177207947,36.88776195049286" stroke="white" stroke-width="0.1" /><polygon points="55.02517819404602,36.851054430007935 54.997819662094116,36.856818199157715 54.965174198150635,36.869436502456665" stroke="white" stroke-width="0.1" /><polygon points="55.079782009124756,36.84325814247131 55.03665208816528,36.859020590782166 55.02517819404602,36.851054430007935" stroke="white" stroke-width="0.1" /><polygon points="55.079782009124756,36.84325814247131 55.042487382888794,36.85649633407593 55.03665208816528,36.859020590782166" stroke="white" stroke-width="0.1" /><polygon points="55.079782009124756,36.84325814247131 55.05790114402771,36.85046434402466 55.042487382888794,36.85649633407593" stroke="white" stroke-width="0.1" /><polygon points="55.17643094062805,36.816176772117615 55.130499601364136,36.834701895713806 55.105018615722656,36.837226152420044" stroke="white" stroke-width="0.1" /><polygon points="55.17643094062805,36.816176772117615 55.13350963592529,36.831727623939514 55.130499601364136,36.834701895713806" stroke="white" stroke-width="0.1" /><polygon points="55.17643094062805,36.816176772117615 55.14673590660095,36.82463765144348 55.13350963592529,36.831727623939514" stroke="white" stroke-width="0.1" /><polygon points="55.604904890060425,36.71679496765137 55.410075187683105,36.76219284534454 55.17643094062805,36.816176772117615" stroke="white" stroke-width="0.1" /><polygon points="55.410075187683105,36.76219284534454 55.33550977706909,36.78886592388153 55.22886514663696,36.80908679962158 55.17643094062805,36.816176772117615" stroke="white" stroke-width="0.1" /><polygon points="55.33550977706909,36.78886592388153 55.31033277511597,36.80611252784729 55.22886514663696,36.80908679962158" stroke="white" stroke-width="0.1" /><polygon points="55.33550977706909,36.78886592388153 55.31666278839111,36.801016330718994 55.31033277511597,36.80611252784729" stroke="white" stroke-width="0.1" /><polygon points="55.410075187683105,36.76219284534454 55.366700887680054,36.77434325218201 55.33550977706909,36.78886592388153" stroke="white" stroke-width="0.1" /><polygon points="55.604904890060425,36.71679496765137 55.556219816207886,36.72795593738556 55.410075187683105,36.76219284534454" stroke="white" stroke-width="0.1" /><polygon points="55.556219816207886,36.72795593738556 55.511289834976196,36.741265654563904 55.410075187683105,36.76219284534454" stroke="white" stroke-width="0.1" /><polygon points="55.511289834976196,36.741265654563904 55.47829866409302,36.752426624298096 55.410075187683105,36.76219284534454" stroke="white" stroke-width="0.1" /><polygon points="55.47829866409302,36.752426624298096 55.46547174453735,36.75709664821625 55.410075187683105,36.76219284534454" stroke="white" stroke-width="0.1" /><polygon points="55.91456890106201,36.676040291786194 55.64911961555481,36.7121160030365 55.604904890060425,36.71679496765137" stroke="white" stroke-width="0.1" /><polygon points="55.91456890106201,36.676040291786194 55.765169858932495,36.70172989368439 55.64911961555481,36.7121160030365" stroke="white" stroke-width="0.1" /><polygon points="55.765169858932495,36.70172989368439 55.72672486305237,36.7121160030365 55.64911961555481,36.7121160030365" stroke="white" stroke-width="0.1" /><polygon points="71.6131329536438,37.39822506904602 70.18793225288391,37.32069730758667 59.53714847564697,36.67948842048645" stroke="white" stroke-width="0.1" /><polygon points="70.18793225288391,37.32069730758667 67.8519606590271,37.247130274772644 61.40336990356445,36.83050870895386 59.53714847564697,36.67948842048645" stroke="white" stroke-width="0.1" /><polygon points="67.8519606590271,37.247130274772644 65.88351130485535,37.22265958786011 65.09928703308105,37.173640727996826 63.40040564537048,37.04289793968201 61.40336990356445,36.83050870895386" stroke="white" stroke-width="0.1" /><polygon points="70.18793225288391,37.32069730758667 69.23225522041321,37.29607164859772 67.8519606590271,37.247130274772644" stroke="white" stroke-width="0.1" /><polygon points="71.6131329536438,37.39822506904602 71.3885486125946,37.39822506904602 70.18793225288391,37.32069730758667" stroke="white" stroke-width="0.1" /><polygon points="65.11567831039429,36.29160821437836 65.32806754112244,36.29160821437836 67.46796369552612,36.37325465679169 69.40386295318604,36.46305799484253 71.64187431335449,36.569252610206604 72.80978560447693,36.6672158241272 73.80502223968506,36.814385652542114 74.62618350982666,37.009355425834656 75.24621486663818,37.20586895942688 75.63806176185608,37.357696890830994 75.7746934890747,37.418580055236816 76.08748078346252,37.569478154182434 76.37987732887268,37.75917589664459 76.62371397018433,37.94613182544708 76.79070830345154,38.08876574039459" stroke="white" stroke-width="0.1" /><polygon points="61.87312602996826,35.899534821510315 62.241679430007935,35.94031035900116 63.04974555969238,36.03754639625549 63.997793197631836,36.153605580329895 64.78628516197205,36.25083267688751 65.11567831039429,36.29160821437836" stroke="white" stroke-width="0.1" /><polygon points="53.69797945022583,36.50811314582825 54.64457869529724,36.07098460197449 55.53606152534485,35.76606810092926 56.42869472503662,35.59166193008423 57.20803737640381,35.511741042137146 57.75957107543945,35.490232706069946 57.968854904174805,35.49107015132904 58.88391733169556,35.54132878780365 59.71234440803528,35.61862111091614 60.38708686828613,35.70100963115692 60.84110140800476,35.76654493808746 61.00732684135437,35.79326272010803" stroke="white" stroke-width="0.1" /><polygon points="53.55610251426697,36.46100163459778 53.6234974861145,36.46100163459778 53.68082523345947,36.47937476634979 53.69797945022583,36.50811314582825" stroke="white" stroke-width="0.1" /><polygon points="42.09876358509064,31.145864725112915 43.09518337249756,31.472527980804443 53.48474979400635,36.389416456222534 53.55610251426697,36.46100163459778" stroke="white" stroke-width="0.1" /><polygon points="43.09518337249756,31.472527980804443 46.369469165802,32.529088854789734 53.41072678565979,36.25929355621338 53.439849615097046,36.279258131980896 53.48474979400635,36.389416456222534" stroke="white" stroke-width="0.1" /><polygon points="46.369469165802,32.529088854789734 46.81336283683777,32.67086446285248 53.36966514587402,36.21169626712799 53.41072678565979,36.25929355621338" stroke="white" stroke-width="0.1" /><polygon points="46.81336283683777,32.67086446285248 48.11182618141174,33.04608166217804 53.32723259925842,36.154863238334656 53.36966514587402,36.21169626712799" stroke="white" stroke-width="0.1" /><polygon points="48.11182618141174,33.04608166217804 48.561570048332214,33.17566215991974 53.29400897026062,36.10726296901703 53.32723259925842,36.154863238334656" stroke="white" stroke-width="0.1" /><polygon points="48.561570048332214,33.17566215991974 48.81249666213989,33.24490189552307 53.28059196472168,36.08730137348175 53.29400897026062,36.10726296901703" stroke="white" stroke-width="0.1" /><polygon points="48.81249666213989,33.24490189552307 50.119686126708984,33.587878942489624 50.24324655532837,33.6242139339447 50.56533217430115,33.73543918132782 51.01309418678284,33.924901485443115 51.51365399360657,34.195923805236816 51.994138956069946,34.55186188220978 52.07080841064453,34.6247136592865 52.260565757751465,34.80929732322693 52.50301957130432,35.05464792251587 52.737802267074585,35.30978560447693 52.90452837944031,35.5237752199173 53.28059196472168,36.08730137348175" stroke="white" stroke-width="0.1" /><polygon points="48.81249666213989,33.24490189552307 48.94607663154602,33.27823579311371 49.26553666591644,33.358603715896606 49.64891970157623,33.456623554229736 49.974289536476135,33.54284465312958 50.119686126708984,33.587878942489624" stroke="white" stroke-width="0.1" /><polygon points="46.81336283683777,32.67086446285248 47.60952591896057,32.89966285228729 48.11182618141174,33.04608166217804" stroke="white" stroke-width="0.1" /><polygon points="46.81336283683777,32.67086446285248 47.2009003162384,32.779908180236816 47.60952591896057,32.89966285228729" stroke="white" stroke-width="0.1" /><polygon points="46.81336283683777,32.67086446285248 47.03219532966614,32.73032009601593 47.2009003162384,32.779908180236816" stroke="white" stroke-width="0.1" /><polygon points="43.09518337249756,31.472527980804443 45.85774540901184,32.35986828804016 46.369469165802,32.529088854789734" stroke="white" stroke-width="0.1" /><polygon points="43.09518337249756,31.472527980804443 45.43541669845581,32.21808969974518 45.85774540901184,32.35986828804016" stroke="white" stroke-width="0.1" /><polygon points="43.09518337249756,31.472527980804443 45.25970816612244,32.158637046813965 45.43541669845581,32.21808969974518" stroke="white" stroke-width="0.1" /><polygon points="43.09518337249756,31.472527980804443 43.67517530918121,31.61950707435608 45.25970816612244,32.158637046813965" stroke="white" stroke-width="0.1" /><polygon points="42.09876358509064,31.145864725112915 42.52346456050873,31.268295645713806 43.09518337249756,31.472527980804443" stroke="white" stroke-width="0.1" /><polygon points="38.823503255844116,30.0026535987854 38.9877051115036,30.058932304382324 39.38242793083191,30.196315050125122 39.8608535528183,30.367624759674072 40.27616083621979,30.52563965320587 40.48152565956116,30.62320053577423" stroke="white" stroke-width="0.1" /><polygon points="33.460187911987305,38.641685247421265 31.495246291160583,38.416945934295654 29.920586943626404,37.66367435455322 29.324355721473694,37.31261491775513 28.12366485595703,36.4670991897583 27.949106693267822,36.3075315952301 27.53283977508545,35.84333956241608 27.036011219024658,35.096290707588196 26.61973237991333,34.08812880516052" stroke="white" stroke-width="0.1" /><polygon points="33.460187911987305,38.641685247421265 31.81956708431244,38.58265280723572 31.495246291160583,38.416945934295654" stroke="white" stroke-width="0.1" /><polygon points="33.460187911987305,38.641685247421265 33.44089984893799,38.67858350276947 32.31658637523651,38.90696167945862 31.81956708431244,38.58265280723572" stroke="white" stroke-width="0.1" /><polygon points="33.44089984893799,38.67858350276947 34.568023681640625,39.11113739013672 32.84568190574646,39.27759528160095 32.31658637523651,38.90696167945862" stroke="white" stroke-width="0.1" /><polygon points="34.568023681640625,39.11113739013672 35.28474271297455,39.34403359889984 33.266255259513855,39.582303166389465 32.84568190574646,39.27759528160095" stroke="white" stroke-width="0.1" /><polygon points="35.28474271297455,39.34403359889984 36.24041676521301,39.64637815952301 33.43769907951355,39.70881402492523 33.266255259513855,39.582303166389465" stroke="white" stroke-width="0.1" /><polygon points="36.24041676521301,39.64637815952301 37.19601333141327,39.879196882247925 36.33220195770264,41.07967913150787 34.88006293773651,40.57864844799042 33.99617075920105,40.13929069042206 33.55666995048523,39.82739746570587 33.43769907951355,39.70881402492523" stroke="white" stroke-width="0.1" /><polygon points="39.89558815956116,40.38318395614624 36.567920446395874,39.569076895713806 33.460187911987305,38.641685247421265" stroke="white" stroke-width="0.1" /><polygon points="47.21788167953491,40.62982201576233 47.06183075904846,40.72254002094269 38.47648501396179,41.576558351516724" stroke="white" stroke-width="0.1" /><polygon points="47.06183075904846,40.72254002094269 46.925562620162964,40.88698923587799 38.47648501396179,41.576558351516724" stroke="white" stroke-width="0.1" /><polygon points="46.925562620162964,40.88698923587799 46.85651361942291,41.14316403865814 38.47648501396179,41.576558351516724" stroke="white" stroke-width="0.1" /><polygon points="46.85651361942291,41.14316403865814 46.71768844127655,42.0538604259491 46.149590611457825,42.05820560455322 44.68373656272888,42.04778969287872 42.677828669548035,41.98748767375946 40.48951268196106,41.842120885849 38.47648501396179,41.576558351516724" stroke="white" stroke-width="0.1" /><polygon points="53.287070989608765,37.66428530216217 53.206777572631836,37.71419823169708 47.21788167953491,40.62982201576233" stroke="white" stroke-width="0.1" /><polygon points="53.206777572631836,37.71419823169708 53.16728949546814,37.73876428604126 47.21788167953491,40.62982201576233" stroke="white" stroke-width="0.1" /><polygon points="53.16728949546814,37.73876428604126 53.12014818191528,37.77157366275787 47.21788167953491,40.62982201576233" stroke="white" stroke-width="0.1" /><polygon points="53.12014818191528,37.77157366275787 51.94140076637268,38.75936269760132 47.34629988670349,40.5888557434082 47.21788167953491,40.62982201576233" stroke="white" stroke-width="0.1" /><polygon points="51.94140076637268,38.75936269760132 51.83488726615906,38.86040151119232 50.55651068687439,39.546436071395874 50.23807883262634,39.68937397003174 49.3355393409729,39.99972343444824 48.42472970485687,40.29780030250549 47.39964306354523,40.57964086532593 47.34629988670349,40.5888557434082" stroke="white" stroke-width="0.1" /><polygon points="51.83488726615906,38.86040151119232 51.73265337944031,38.96240293979645 51.61778926849365,39.027050137519836 51.3410210609436,39.179727435112 51.0040819644928,39.35847878456116 50.70865750312805,39.501363039016724 50.55651068687439,39.546436071395874" stroke="white" stroke-width="0.1" /><polygon points="51.83488726615906,38.86040151119232 51.77961587905884,38.915443420410156 51.73265337944031,38.96240293979645" stroke="white" stroke-width="0.1" /><polygon points="51.83488726615906,38.86040151119232 51.81581377983093,38.87944221496582 51.80044770240784,38.894763588905334 51.78908705711365,38.90606760978699 51.78203582763672,38.913050293922424 51.77961587905884,38.915443420410156" stroke="white" stroke-width="0.1" /><polygon points="51.94140076637268,38.75936269760132 51.92461013793945,38.79087567329407 51.85597538948059,38.84649872779846 51.83488726615906,38.86040151119232" stroke="white" stroke-width="0.1" /><polygon points="51.92461013793945,38.79087567329407 51.912349462509155,38.8214647769928 51.89597010612488,38.83537948131561 51.87675356864929,38.840943574905396 51.85597538948059,38.84649872779846" stroke="white" stroke-width="0.1" /><polygon points="53.12014818191528,37.77157366275787 52.08967924118042,38.638463616371155 51.94140076637268,38.75936269760132" stroke="white" stroke-width="0.1" /><polygon points="52.08967924118042,38.638463616371155 51.967036724090576,38.74441087245941 51.94140076637268,38.75936269760132" stroke="white" stroke-width="0.1" /><polygon points="52.08967924118042,38.638463616371155 52.0538866519928,38.678792119026184 51.99425220489502,38.740524649620056 51.967036724090576,38.74441087245941" stroke="white" stroke-width="0.1" /><polygon points="52.0538866519928,38.678792119026184 52.015894651412964,38.7422114610672 51.99425220489502,38.740524649620056" stroke="white" stroke-width="0.1" /><polygon points="52.0538866519928,38.678792119026184 52.024710178375244,38.743990659713745 52.015894651412964,38.7422114610672" stroke="white" stroke-width="0.1" /><polygon points="53.12014818191528,37.77157366275787 52.17974781990051,38.565945625305176 52.08967924118042,38.638463616371155" stroke="white" stroke-width="0.1" /><polygon points="52.17974781990051,38.565945625305176 52.12454795837402,38.61704170703888 52.08967924118042,38.638463616371155" stroke="white" stroke-width="0.1" /><polygon points="52.17974781990051,38.565945625305176 52.15098857879639,38.608571887016296 52.12454795837402,38.61704170703888" stroke="white" stroke-width="0.1" /><polygon points="52.17974781990051,38.565945625305176 52.16147303581238,38.607075810432434 52.15098857879639,38.608571887016296" stroke="white" stroke-width="0.1" /><polygon points="53.12014818191528,37.77157366275787 53.08064818382263,37.805965542793274 52.2233247756958,38.53869140148163 52.17974781990051,38.565945625305176" stroke="white" stroke-width="0.1" /><polygon points="53.08064818382263,37.805965542793274 52.39025354385376,38.42746615409851 52.27533578872681,38.52260708808899 52.2233247756958,38.53869140148163" stroke="white" stroke-width="0.1" /><polygon points="52.39025354385376,38.42746615409851 52.31891870498657,38.51494491100311 52.27533578872681,38.52260708808899" stroke="white" stroke-width="0.1" /><polygon points="52.39025354385376,38.42746615409851 52.33719348907471,38.513001799583435 52.31891870498657,38.51494491100311" stroke="white" stroke-width="0.1" /><polygon points="53.08064818382263,37.805965542793274 52.67609357833862,38.1842315196991 52.419811487197876,38.40424418449402 52.39025354385376,38.42746615409851" stroke="white" stroke-width="0.1" /><polygon points="52.67609357833862,38.1842315196991 52.55632996559143,38.29788863658905 52.45133638381958,38.38789165019989 52.419811487197876,38.40424418449402" stroke="white" stroke-width="0.1" /><polygon points="52.55632996559143,38.29788863658905 52.52798795700073,38.32893371582031 52.479904890060425,38.377419114112854 52.45133638381958,38.38789165019989" stroke="white" stroke-width="0.1" /><polygon points="52.52798795700073,38.32893371582031 52.50064134597778,38.37185502052307 52.479904890060425,38.377419114112854" stroke="white" stroke-width="0.1" /><polygon points="52.52798795700073,38.32893371582031 52.50864624977112,38.37021589279175 52.50064134597778,38.37185502052307" stroke="white" stroke-width="0.1" /><polygon points="52.67609357833862,38.1842315196991 52.65737771987915,38.20500671863556 52.58603096008301,38.27645480632782 52.55632996559143,38.29788863658905" stroke="white" stroke-width="0.1" /><polygon points="52.65737771987915,38.20500671863556 52.609455585479736,38.26405704021454 52.58603096008301,38.27645480632782" stroke="white" stroke-width="0.1" /><polygon points="52.65737771987915,38.20500671863556 52.64952778816223,38.229334354400635 52.618956565856934,38.26005756855011 52.609455585479736,38.26405704021454" stroke="white" stroke-width="0.1" /><polygon points="53.08064818382263,37.805965542793274 52.69842743873596,38.16806077957153 52.67609357833862,38.1842315196991" stroke="white" stroke-width="0.1" /><polygon points="53.08064818382263,37.805965542793274 52.76585817337036,38.11292350292206 52.717143297195435,38.15759718418121 52.69842743873596,38.16806077957153" stroke="white" stroke-width="0.1" /><polygon points="52.76585817337036,38.11292350292206 52.72499918937683,38.153862953186035 52.717143297195435,38.15759718418121" stroke="white" stroke-width="0.1" /><polygon points="53.08064818382263,37.805965542793274 53.06409001350403,37.83527910709381 52.76585817337036,38.11292350292206" stroke="white" stroke-width="0.1" /><polygon points="53.06409001350403,37.83527910709381 53.058141469955444,37.861159443855286 53.04396152496338,37.887412309646606 53.027039766311646,37.910521030426025 53.01285982131958,37.926968932151794 53.006911277770996,37.933239340782166 52.76585817337036,38.11292350292206" stroke="white" stroke-width="0.1" /><polygon points="53.287070989608765,37.66428530216217 53.22334170341492,37.70453631877899 53.206777572631836,37.71419823169708" stroke="white" stroke-width="0.1" /><polygon points="54.173362255096436,38.95525634288788 53.33365201950073,37.73312270641327 53.287070989608765,37.66428530216217" stroke="white" stroke-width="0.1" /><polygon points="53.33365201950073,37.73312270641327 53.28674912452698,37.66692280769348 53.287070989608765,37.66428530216217" stroke="white" stroke-width="0.1" /><polygon points="53.33365201950073,37.73312270641327 53.28634977340698,37.66942918300629 53.28674912452698,37.66692280769348" stroke="white" stroke-width="0.1" /><polygon points="53.33365201950073,37.73312270641327 53.285813331604004,37.671783566474915 53.28634977340698,37.66942918300629" stroke="white" stroke-width="0.1" /><polygon points="53.33365201950073,37.73312270641327 53.285205364227295,37.673965096473694 53.285813331604004,37.671783566474915" stroke="white" stroke-width="0.1" /><polygon points="53.33365201950073,37.73312270641327 53.28448414802551,37.73312270641327 53.28448414802551,37.675946950912476 53.285205364227295,37.673965096473694" stroke="white" stroke-width="0.1" /><polygon points="54.173362255096436,38.95525634288788 53.33705544471741,37.74314820766449 53.33365201950073,37.73312270641327" stroke="white" stroke-width="0.1" /><polygon points="54.173362255096436,38.95525634288788 53.487586975097656,37.97943890094757 53.34516167640686,37.768277525901794 53.33705544471741,37.74314820766449" stroke="white" stroke-width="0.1" /><polygon points="53.487586975097656,37.97943890094757 53.35484743118286,37.801048159599304 53.34516167640686,37.768277525901794" stroke="white" stroke-width="0.1" /><polygon points="53.487586975097656,37.97943890094757 53.45718860626221,37.93703317642212 53.35484743118286,37.801048159599304" stroke="white" stroke-width="0.1" /><polygon points="53.45718860626221,37.93703317642212 53.41678857803345,37.90503144264221 53.362953662872314,37.83402144908905 53.35484743118286,37.801048159599304" stroke="white" stroke-width="0.1" /><polygon points="53.41678857803345,37.90503144264221 53.381478786468506,37.88031339645386 53.36635708808899,37.85974979400635 53.362953662872314,37.83402144908905" stroke="white" stroke-width="0.1" /><polygon points="54.173362255096436,38.95525634288788 54.13080453872681,38.89504075050354 53.487586975097656,37.97943890094757" stroke="white" stroke-width="0.1" /><polygon points="54.13080453872681,38.89504075050354 53.811073303222656,38.44867944717407 53.487586975097656,37.97943890094757" stroke="white" stroke-width="0.1" /><polygon points="53.811073303222656,38.44867944717407 53.58280539512634,38.13415467739105 53.487586975097656,37.97943890094757" stroke="white" stroke-width="0.1" /><polygon points="53.58280539512634,38.13415467739105 53.54175567626953,38.086870312690735 53.487586975097656,37.97943890094757" stroke="white" stroke-width="0.1" /><polygon points="53.54175567626953,38.086870312690735 53.50733399391174,38.050153851509094 53.487586975097656,37.97943890094757" stroke="white" stroke-width="0.1" /><polygon points="53.50733399391174,38.050153851509094 53.49290370941162,38.03539276123047 53.487586975097656,37.97943890094757" stroke="white" stroke-width="0.1" /><polygon points="53.811073303222656,38.44867944717407 53.61722707748413,38.18065822124481 53.58280539512634,38.13415467739105" stroke="white" stroke-width="0.1" /><polygon points="53.811073303222656,38.44867944717407 53.78686785697937,38.41519355773926 53.61722707748413,38.18065822124481" stroke="white" stroke-width="0.1" /><polygon points="53.78686785697937,38.41519355773926 53.631651401519775,38.21500241756439 53.61722707748413,38.18065822124481" stroke="white" stroke-width="0.1" /><polygon points="54.13080453872681,38.89504075050354 53.86880040168762,38.53019177913666 53.811073303222656,38.44867944717407" stroke="white" stroke-width="0.1" /><polygon points="54.13080453872681,38.89504075050354 53.93768548965454,38.63127827644348 53.86880040168762,38.53019177913666" stroke="white" stroke-width="0.1" /><polygon points="54.13080453872681,38.89504075050354 53.99540662765503,38.72356116771698 53.93768548965454,38.63127827644348" stroke="white" stroke-width="0.1" /><polygon points="54.13080453872681,38.89504075050354 54.03745770454407,38.795337080955505 53.99540662765503,38.72356116771698" stroke="white" stroke-width="0.1" /><polygon points="54.03745770454407,38.795337080955505 54.019612073898315,38.778603076934814 53.99540662765503,38.72356116771698" stroke="white" stroke-width="0.1" /><polygon points="54.13080453872681,38.89504075050354 54.08002734184265,38.837942481040955 54.03745770454407,38.795337080955505" stroke="white" stroke-width="0.1" /><polygon points="54.530149698257446,39.48094844818115 54.191213846206665,39.00722861289978 54.173362255096436,38.95525634288788" stroke="white" stroke-width="0.1" /><polygon points="55.38367033004761,40.82046449184418 54.6839714050293,39.722612500190735 54.57560420036316,39.552077651023865" stroke="white" stroke-width="0.1" /><polygon points="55.38367033004761,40.82046449184418 54.813313484191895,39.928215742111206 54.6839714050293,39.722612500190735" stroke="white" stroke-width="0.1" /><polygon points="55.38367033004761,40.82046449184418 54.92168068885803,40.104612708091736 54.813313484191895,39.928215742111206" stroke="white" stroke-width="0.1" /><polygon points="55.38367033004761,40.82046449184418 55.36735653877258,40.82046449184418 55.24492263793945,40.628582239151 54.96712923049927,40.18748998641968 54.92168068885803,40.104612708091736" stroke="white" stroke-width="0.1" /><polygon points="50.93638896942139,38.485634326934814 51.051366329193115,38.407835364341736 51.238852739334106,38.28386962413788" stroke="white" stroke-width="0.1" /><polygon points="48.60524237155914,39.34970200061798 48.78002107143402,39.291125535964966 49.79386031627655,38.96339535713196" stroke="white" stroke-width="0.1" /><polygon points="47.81211018562317,39.59431052207947 47.89424240589142,39.56954479217529 48.09722602367401,39.50788080692291" stroke="white" stroke-width="0.1" /><polygon points="46.10812067985535,39.74941968917847 46.596211194992065,39.76888656616211 46.65474891662598,39.772793650627136" stroke="white" stroke-width="0.1" /><polygon points="44.67715322971344,39.569857716560364 45.20565569400787,39.64950442314148 45.26440501213074,39.66015875339508" stroke="white" stroke-width="0.1" /><polygon points="42.592838406562805,38.994041085243225 42.93295741081238,39.10427689552307 43.211594223976135,39.211538434028625" stroke="white" stroke-width="0.1" /><polygon points="40.03631770610809,38.92543017864227 41.72917902469635,38.67858350276947 42.21604764461517,38.85003328323364" stroke="white" stroke-width="0.1" /><polygon points="40.03631770610809,38.92543017864227 41.04005694389343,38.405969738960266 41.72917902469635,38.67858350276947" stroke="white" stroke-width="0.1" /><polygon points="30.802065134048462,36.098867654800415 31.719565391540527,36.26492619514465 40.13652801513672,38.08128535747528 41.04005694389343,38.405969738960266" stroke="white" stroke-width="0.1" /><polygon points="31.719565391540527,36.26492619514465 38.104453682899475,37.354105710983276 38.1853848695755,37.379854917526245 39.220649003982544,37.74120509624481 40.13652801513672,38.08128535747528" stroke="white" stroke-width="0.1" /><polygon points="31.719565391540527,36.26492619514465 31.80547058582306,36.278942227363586 37.90839612483978,37.2916042804718 38.104453682899475,37.354105710983276" stroke="white" stroke-width="0.1" /><polygon points="31.80547058582306,36.278942227363586 37.667351961135864,37.21438646316528 37.90839612483978,37.2916042804718" stroke="white" stroke-width="0.1" /><polygon points="31.80547058582306,36.278942227363586 32.048097252845764,36.31236255168915 37.45145797729492,37.14452683925629 37.667351961135864,37.21438646316528" stroke="white" stroke-width="0.1" /><polygon points="32.048097252845764,36.31236255168915 36.13913059234619,36.78771257400513 36.32618188858032,36.82844936847687 36.42273247241974,36.854180693626404 36.65598928928375,36.91665530204773 36.941468715667725,36.99384033679962 37.1945858001709,37.063682079315186 37.330836057662964,37.10411489009857 37.45145797729492,37.14452683925629" stroke="white" stroke-width="0.1" /><polygon points="32.048097252845764,36.31236255168915 32.424819469451904,36.35227084159851 35.855185985565186,36.72502040863037 36.13913059234619,36.78771257400513" stroke="white" stroke-width="0.1" /><polygon points="32.424819469451904,36.35227084159851 35.553887486457825,36.6581916809082 35.855185985565186,36.72502040863037" stroke="white" stroke-width="0.1" /><polygon points="32.424819469451904,36.35227084159851 35.31476855278015,36.60503625869751 35.553887486457825,36.6581916809082" stroke="white" stroke-width="0.1" /><polygon points="32.424819469451904,36.35227084159851 35.04388928413391,36.565423011779785 35.21738946437836,36.5833580493927 35.31476855278015,36.60503625869751" stroke="white" stroke-width="0.1" /><polygon points="32.424819469451904,36.35227084159851 34.87464785575867,36.543771624565125 35.04388928413391,36.565423011779785" stroke="white" stroke-width="0.1" /><polygon points="32.424819469451904,36.35227084159851 34.729355573654175,36.52280867099762 34.87464785575867,36.543771624565125" stroke="white" stroke-width="0.1" /><polygon points="32.424819469451904,36.35227084159851 32.912975549697876,36.38569116592407 34.62773561477661,36.506980657577515 34.729355573654175,36.52280867099762" stroke="white" stroke-width="0.1" /><polygon points="32.912975549697876,36.38569116592407 34.389618039131165,36.48286163806915 34.589484333992004,36.50071918964386 34.62773561477661,36.506980657577515" stroke="white" stroke-width="0.1" /><polygon points="32.912975549697876,36.38569116592407 33.615514636039734,36.42425537109375 34.23723578453064,36.46409809589386 34.389618039131165,36.48286163806915" stroke="white" stroke-width="0.1" /><polygon points="33.615514636039734,36.42425537109375 34.13056433200836,36.44722104072571 34.23723578453064,36.46409809589386" stroke="white" stroke-width="0.1" /><polygon points="33.615514636039734,36.42425537109375 33.86491537094116,36.4282101392746 34.067851305007935,36.435043811798096 34.13056433200836,36.44722104072571" stroke="white" stroke-width="0.1" /><polygon points="33.86491537094116,36.4282101392746 34.04734432697296,36.43035590648651 34.067851305007935,36.435043811798096" stroke="white" stroke-width="0.1" /><polygon points="33.86491537094116,36.4282101392746 33.97538959980011,36.42972707748413 34.04734432697296,36.43035590648651" stroke="white" stroke-width="0.1" /><polygon points="33.615514636039734,36.42425537109375 33.74722898006439,36.426401138305664 33.86491537094116,36.4282101392746" stroke="white" stroke-width="0.1" /><polygon points="33.615514636039734,36.42425537109375 33.653661608695984,36.42488420009613 33.74722898006439,36.426401138305664" stroke="white" stroke-width="0.1" /><polygon points="32.912975549697876,36.38569116592407 33.58482122421265,36.421701312065125 33.615514636039734,36.42425537109375" stroke="white" stroke-width="0.1" /><polygon points="32.912975549697876,36.38569116592407 33.55147838592529,36.415621638298035 33.58482122421265,36.421701312065125" stroke="white" stroke-width="0.1" /><polygon points="32.912975549697876,36.38569116592407 33.52092802524567,36.408352851867676 33.55147838592529,36.415621638298035" stroke="white" stroke-width="0.1" /><polygon points="32.912975549697876,36.38569116592407 33.49860906600952,36.40226125717163 33.52092802524567,36.408352851867676" stroke="white" stroke-width="0.1" /><polygon points="32.912975549697876,36.38569116592407 33.48995745182037,36.399707198143005 33.49860906600952,36.40226125717163" stroke="white" stroke-width="0.1" /><polygon points="28.946882486343384,34.99808311462402 29.501983523368835,35.505327582359314 29.560893774032593,35.562559962272644" stroke="white" stroke-width="0.1" /><polygon points="28.015336394309998,33.31648409366608 28.100109100341797,33.54572057723999 28.143581748008728,33.673661947250366" stroke="white" stroke-width="0.1" /><polygon points="30.966025590896606,29.11200523376465 30.72434365749359,29.154562950134277 30.470606684684753,29.195597767829895" stroke="white" stroke-width="0.1" /><polygon points="51.22080445289612,35.544633865356445 32.583263516426086,29.410159587860107 32.007426023483276,29.21416163444519" stroke="white" stroke-width="0.1" /><polygon points="51.22080445289612,35.544633865356445 50.83415508270264,35.43389439582825 33.9390903711319,29.936861991882324 33.48995745182037,29.777607321739197 32.583263516426086,29.410159587860107" stroke="white" stroke-width="0.1" /><polygon points="50.83415508270264,35.43389439582825 50.5035936832428,35.37437617778778 34.68641638755798,30.279994010925293 34.200575947761536,30.063563585281372 33.9390903711319,29.936861991882324" stroke="white" stroke-width="0.1" /><polygon points="50.5035936832428,35.37437617778778 48.47378730773926,35.0133091211319 35.55636703968048,30.721008777618408 35.311347246170044,30.60261607170105 34.89476442337036,30.39442002773285 34.68641638755798,30.279994010925293" stroke="white" stroke-width="0.1" /><polygon points="48.47378730773926,35.0133091211319 47.995948791503906,34.93151068687439 47.477325797080994,34.82135236263275 46.938273310661316,34.68245267868042 45.382291078567505,34.22504663467407 41.92727208137512,33.13855528831482 40.14662802219391,32.517775893211365 37.25524842739105,31.439822912216187 36.6100013256073,31.19480609893799 36.160752177238464,31.015121936798096 35.55636703968048,30.721008777618408" stroke="white" stroke-width="0.1" /><polygon points="50.5035936832428,35.37437617778778 50.19031763076782,35.319143533706665 48.47378730773926,35.0133091211319" stroke="white" stroke-width="0.1" /><polygon points="50.19031763076782,35.319143533706665 49.867209792137146,35.26394963264465 48.47378730773926,35.0133091211319" stroke="white" stroke-width="0.1" /><polygon points="49.867209792137146,35.26394963264465 49.60087537765503,35.221582651138306 48.47378730773926,35.0133091211319" stroke="white" stroke-width="0.1" /><polygon points="50.83415508270264,35.43389439582825 50.7404088973999,35.41688621044159 50.5035936832428,35.37437617778778" stroke="white" stroke-width="0.1" /><polygon points="52.250683307647705,36.074140667915344 51.96129083633423,35.90210676193237 51.79928541183472,35.80556511878967" stroke="white" stroke-width="0.1" /><polygon points="52.250683307647705,36.074140667915344 52.018606662750244,35.94024479389191 51.96129083633423,35.90210676193237" stroke="white" stroke-width="0.1" /><polygon points="71.89695239067078,46.39929533004761 61.16025447845459,45.57979702949524 60.19137501716614,45.19295394420624 59.07493829727173,44.71116364002228 58.01936388015747,44.14045214653015" stroke="white" stroke-width="0.1" /><polygon points="62.60398030281067,46.10106647014618 62.42431998252869,46.04082405567169 61.92381978034973,45.86475193500519 61.16025447845459,45.57979702949524 71.89695239067078,46.39929533004761 70.99273800849915,46.39929533004761" stroke="white" stroke-width="0.1" /></svg>