<?xml version="1.0" encoding="utf-8" ?>
<svg baseProfile="full" height="47.16529846191406" version="1.1" width="78.28491926193237" xmlns="http://www.w3.org/2000/svg" xmlns:ev="http://www.w3.org/2001/xml-events" xmlns:xlink="http://www.w3.org/1999/xlink"><defs><clipPath /></defs><polygon points="77.93570756912231,36.5003377199173 78.0038595199585,36.866167187690735 78.14659476280212,37.810760736465454 78.27118039131165,39.104798436164856 78.28491926193237,40.518975257873535 78.09519171714783,41.823938488960266 75.75380206108093,43.8937783241272 75.82963705062866,43.75834763050079 76.00785493850708,43.37285757064819 76.21452808380127,42.76853799819946 76.3757050037384,41.976577043533325 76.44570469856262,40.651196241378784 76.48817300796509,39.69751298427582 76.48121118545532,38.43316435813904 76.36123895645142,37.124162912368774 76.0646104812622,36.036527156829834 75.96844434738159,35.796552896499634 75.72247385978699,35.207679867744446 75.39052963256836,34.46645140647888 75.0364363193512,33.76944065093994 74.72403049468994,33.31320583820343 74.49833750724792,33.080148696899414 74.30428266525269,32.91221261024475 74.05530214309692,32.79310762882233 73.6647367477417,32.70649611949921 72.86165952682495,32.601550221443176 72.31566905975342,32.54938721656799 63.17957043647766,32.308512926101685 62.57671117782593,32.064926624298096 61.12958788871765,31.434810161590576 60.299646854400635,31.080615520477295 59.37374234199524,30.729004740715027 58.488088846206665,30.46318292617798 44.79466676712036,26.65604054927826 51.056915521621704,27.559760212898254 50.99836587905884,27.68455445766449 51.1904776096344,27.751755714416504 65.30569195747375,32.11449682712555 65.87641835212708,32.28025138378143 66.10952615737915,32.326313853263855 66.45128726959229,32.35831260681152 66.91061854362488,32.357531785964966 67.42169260978699,32.33036398887634 67.88687109947205,32.299453020095825 68.26727986335754,32.270416617393494 68.5240387916565,32.24886953830719 68.61826777458191,32.24043548107147 68.60851049423218,32.191646099090576 60.12362241744995,29.772120714187622 56.936413049697876,28.894203901290894 56.59658908843994,28.812965750694275 55.76910972595215,28.616654872894287 54.742008447647095,28.376400470733643 49.41459596157074,27.136316895484924 49.44470822811127,27.036792039871216 44.197267293930054,25.25835931301117 44.345322251319885,25.32411813735962 44.7509765625,25.497618317604065 45.356485247612,25.74315071105957 46.104079484939575,26.025038957595825 46.93598747253418,26.307570934295654 49.41459596157074,27.136316895484924 51.546746492385864,27.659597992897034 51.26541256904602,27.61445641517639 51.056915521621704,27.559760212898254 44.79466676712036,26.65604054927826 44.18649971485138,26.260840892791748 43.42339336872101,25.75191855430603 42.71029531955719,25.25177299976349 42.25214719772339,24.882903695106506 41.96382761001587,24.656392633914948 39.588212966918945,23.155736923217773 38.36897611618042,22.676247358322144 37.340402603149414,22.312499582767487 36.4872545003891,22.049395740032196 35.794246196746826,21.871836483478546 35.24613082408905,21.76472693681717 32.070013880729675,22.54762500524521 31.177425384521484,22.845691442489624 28.21541428565979,24.41154569387436 26.6628235578537,25.357195734977722 26.441466808319092,25.513601303100586 25.9344220161438,25.99904239177704 25.377246737480164,26.83788537979126 25.005468726158142,28.05447280406952 25.054660439491272,29.673168063163757 25.08763074874878,29.92452085018158 25.223594903945923,30.573400855064392 25.51809847354889,31.462007761001587 26.026687026023865,32.432547211647034 26.80492401123047,33.32723379135132 26.96368396282196,33.48795473575592 27.398008108139038,33.888909220695496 28.044915199279785,34.40833389759064 28.841441869735718,34.92443859577179 31.536763906478882,36.20288968086243 31.741711497306824,36.2662136554718 45.586419105529785,39.887651801109314 39.99297916889191,38.95485699176788 40.04390239715576,38.817405700683594 39.82002139091492,38.728660345077515 39.46121335029602,38.62888813018799 34.166574478149414,37.17592656612396 34.122052788734436,37.25963234901428 34.829193353652954,37.576234340667725 36.073338985443115,37.961408495903015 37.551018595695496,38.35780918598175 38.958725333213806,38.70807588100433 39.99297916889191,38.95485699176788 65.28636813163757,44.9236273765564 65.57754278182983,44.99020874500275 66.36923551559448,45.15150189399719 67.53870844841003,45.34987211227417 68.96320581436157,45.52765190601349 70.92902660369873,45.70813775062561 71.95641994476318,45.80068588256836 73.30268025398254,45.67943513393402 74.66830015182495,45.11893093585968 75.75380206108093,43.8937783241272 78.09519171714783,41.823938488960266 78.02672982215881,42.03718304634094 77.804434299469,42.60471165180206 77.40286588668823,43.41818988323212 76.796555519104,44.36928927898407 71.89695239067078,46.39929533004761 70.99273800849915,46.39929533004761 70.99273800849915,46.48711979389191 71.89695239067078,46.48711979389191 71.89695239067078,46.39929533004761 76.796555519104,44.36928927898407 75.96009373664856,45.34970223903656 75.74172019958496,45.5304354429245 75.14739632606506,45.96453309059143 74.26829934120178,46.48982584476471 73.19557070732117,46.94412350654602 72.02037572860718,47.16529846191406 67.58132576942444,47.14768826961517 62.76316046714783,45.302969217300415 63.00150752067566,45.387229323387146 63.59320282936096,45.59105932712555 64.37490582466125,45.84863781929016 65.1833713054657,46.09407186508179 65.85530042648315,46.26154005527496 66.44015312194824,46.35782539844513 67.14362502098083,46.449705958366394 67.86779761314392,46.5274840593338 68.51469874382019,46.58138155937195 68.98640394210815,46.60169780254364 69.05966401100159,46.60042226314545 69.09108757972717,46.5988963842392 69.11908984184265,46.59668505191803 69.14374828338623,46.59377038478851 69.12705302238464,46.47804796695709 33.79199802875519,38.60585391521454 24.47165697813034,31.81871771812439 24.083299934864044,30.749177932739258 23.92730563879013,29.60752844810486 23.93544316291809,28.534245491027832 24.013184010982513,27.59539783000946 24.24057126045227,26.74274742603302 24.69758689403534,25.928020477294922 25.464266538619995,25.102955102920532 25.6057471036911,24.999208748340607 25.993648171424866,24.726814031600952 26.5731543302536,24.344050884246826 27.289462089538574,23.909181356430054 28.087759017944336,23.480495810508728 35.028329491615295,21.01244628429413 39.14772868156433,22.422857582569122 39.903250336647034,22.713196277618408 39.90328907966614,22.713196277618408 40.177732706069946,22.81801849603653 40.17552137374878,22.825641930103302 41.11835062503815,23.218820989131927 41.48281812667847,23.36825430393219 41.853269934654236,23.513686656951904 42.258864641189575,23.664049804210663 42.6695853471756,23.80388230085373 65.09368419647217,31.12604320049286 65.80414772033691,31.318363547325134 66.66011214256287,31.423279643058777 66.87613725662231,31.41363561153412 67.41765141487122,31.387200951576233 76.44915580749512,33.27440321445465 76.81350111961365,33.842769265174866 77.26671099662781,34.64759588241577 77.68278121948242,35.57229936122894" stroke="white" stroke-width="0.1" /><polygon points="67.41765141487122,31.387200951576233 68.12483668327332,31.347721815109253 76.44915580749512,33.27440321445465" stroke="white" stroke-width="0.1" /><polygon points="68.12483668327332,31.347721815109253 68.8378393650055,31.29890263080597 76.44915580749512,33.27440321445465" stroke="white" stroke-width="0.1" /><polygon points="68.8378393650055,31.29890263080597 69.39684748649597,31.244510412216187 69.66639161109924,31.227880716323853 70.35667896270752,31.197234988212585 71.29018306732178,31.181463599205017 72.28940725326538,31.209424138069153 73.1768548488617,31.30999505519867 73.41577410697937,31.337517499923706 74.0185022354126,31.462502479553223 74.81406331062317,31.74864947795868 75.63146948814392,32.259610295295715 76.29972100257874,33.05904269218445 76.44915580749512,33.27440321445465" stroke="white" stroke-width="0.1" /><polygon points="42.6695853471756,23.80388230085373 51.657164096832275,26.708868145942688 64.55439925193787,30.909916758537292 65.09368419647217,31.12604320049286" stroke="white" stroke-width="0.1" /><polygon points="51.657164096832275,26.708868145942688 64.21199440956116,30.733606219291687 64.55439925193787,30.909916758537292" stroke="white" stroke-width="0.1" /><polygon points="51.657164096832275,26.708868145942688 63.62327337265015,30.47459125518799 64.09215331077576,30.660706758499146 64.21199440956116,30.733606219291687" stroke="white" stroke-width="0.1" /><polygon points="51.657164096832275,26.708868145942688 55.87756633758545,27.883318066596985 63.14065456390381,30.234891176223755 63.62327337265015,30.47459125518799" stroke="white" stroke-width="0.1" /><polygon points="55.87756633758545,27.883318066596985 56.50034546852112,28.03286910057068 62.71202564239502,29.996153712272644 63.14065456390381,30.234891176223755" stroke="white" stroke-width="0.1" /><polygon points="56.50034546852112,28.03286910057068 57.15154409408569,28.150537610054016 62.40518093109131,29.8129141330719 62.71202564239502,29.996153712272644" stroke="white" stroke-width="0.1" /><polygon points="57.15154409408569,28.150537610054016 57.34619498252869,28.182479739189148 57.850998640060425,28.270787000656128 58.54724645614624,28.4042090177536 59.31622385978699,28.571447730064392 60.039228200912476,28.761252760887146 60.17633676528931,28.80518138408661 60.540491342544556,28.932178020477295 61.06095910072327,29.135066270828247 61.66698336601257,29.406633973121643 62.287837266922,29.73971962928772 62.40518093109131,29.8129141330719" stroke="white" stroke-width="0.1" /><polygon points="51.657164096832275,26.708868145942688 55.350011587142944,27.735212445259094 55.87756633758545,27.883318066596985" stroke="white" stroke-width="0.1" /><polygon points="51.657164096832275,26.708868145942688 52.17090845108032,26.84957981109619 54.984498023986816,27.621901035308838 55.350011587142944,27.735212445259094" stroke="white" stroke-width="0.1" /><polygon points="52.17090845108032,26.84957981109619 52.83454656600952,26.98415219783783 54.84781861305237,27.576720714569092 54.984498023986816,27.621901035308838" stroke="white" stroke-width="0.1" /><polygon points="42.6695853471756,23.80388230085373 51.29188895225525,26.58272087574005 51.657164096832275,26.708868145942688" stroke="white" stroke-width="0.1" /><polygon points="42.6695853471756,23.80388230085373 43.055352568626404,23.917700350284576 51.0737419128418,26.49185061454773 51.29188895225525,26.58272087574005" stroke="white" stroke-width="0.1" /><polygon points="43.055352568626404,23.917700350284576 43.63619089126587,24.076133966445923 44.27889585494995,24.257361888885498 44.873762130737305,24.42808896303177 45.31112611293793,24.55495297908783 45.481282472610474,24.60464835166931 48.19031059741974,25.479209423065186 51.00134015083313,26.45695209503174 51.0737419128418,26.49185061454773" stroke="white" stroke-width="0.1" /><polygon points="41.11835062503815,23.218820989131927 41.17758572101593,23.243215680122375 41.48281812667847,23.36825430393219" stroke="white" stroke-width="0.1" /><polygon points="40.17552137374878,22.825641930103302 40.84470570087433,23.104698956012726 41.11835062503815,23.218820989131927" stroke="white" stroke-width="0.1" /><polygon points="40.84470570087433,23.104698956012726 41.037750244140625,23.184944689273834 41.11835062503815,23.218820989131927" stroke="white" stroke-width="0.1" /><polygon points="40.84470570087433,23.104698956012726 40.97222685813904,23.157180845737457 41.037750244140625,23.184944689273834" stroke="white" stroke-width="0.1" /><polygon points="40.84470570087433,23.104698956012726 40.92341065406799,23.136335611343384 40.97222685813904,23.157180845737457" stroke="white" stroke-width="0.1" /><polygon points="40.84470570087433,23.104698956012726 40.89292585849762,23.123233020305634 40.92341065406799,23.136335611343384" stroke="white" stroke-width="0.1" /><polygon points="40.84470570087433,23.104698956012726 40.88240563869476,23.11868667602539 40.89292585849762,23.123233020305634" stroke="white" stroke-width="0.1" /><polygon points="28.087759017944336,23.480495810508728 31.672823429107666,21.37644588947296 35.028329491615295,21.01244628429413" stroke="white" stroke-width="0.1" /><polygon points="31.672823429107666,21.37644588947296 31.896543502807617,21.237680315971375 32.04347491264343,21.169498562812805 32.46261179447174,21.024128794670105 33.121466636657715,20.890328288078308 33.987537026405334,20.856842398643494 35.028329491615295,21.01244628429413" stroke="white" stroke-width="0.1" /><polygon points="28.087759017944336,23.480495810508728 31.194216012954712,21.652500331401825 31.672823429107666,21.37644588947296" stroke="white" stroke-width="0.1" /><polygon points="28.087759017944336,23.480495810508728 30.63570261001587,21.96926325559616 31.194216012954712,21.652500331401825" stroke="white" stroke-width="0.1" /><polygon points="28.087759017944336,23.480495810508728 30.17227351665497,22.230157256126404 30.63570261001587,21.96926325559616" stroke="white" stroke-width="0.1" /><polygon points="28.087759017944336,23.480495810508728 28.23563516139984,23.38740825653076 28.607037663459778,23.155561089515686 29.093623161315918,22.85607010126114 29.587021470069885,22.560037672519684 29.978904128074646,22.338581085205078 30.17227351665497,22.230157256126404" stroke="white" stroke-width="0.1" /><polygon points="33.79199802875519,38.60585391521454 33.730170130729675,38.706713914871216 28.165003657341003,36.02158725261688 27.190786600112915,35.20644009113312 26.342982053756714,34.46233570575714 25.83606243133545,33.96119773387909 25.46749711036682,33.48805904388428 24.97286945581436,32.7527791261673 24.47165697813034,31.81871771812439" stroke="white" stroke-width="0.1" /><polygon points="33.730170130729675,38.706713914871216 34.200718998909,38.95461857318878 31.356394290924072,38.273024559020996 30.73152005672455,37.882429361343384 30.11242151260376,37.491145730018616 29.63482141494751,37.177300453186035 29.051169753074646,36.73584461212158 28.165003657341003,36.02158725261688" stroke="white" stroke-width="0.1" /><polygon points="34.200718998909,38.95461857318878 34.73910391330719,39.18744623661041 31.851336359977722,38.5848730802536 31.356394290924072,38.273024559020996" stroke="white" stroke-width="0.1" /><polygon points="34.73910391330719,39.18744623661041 35.33317148685455,39.40236270427704 32.08061158657074,38.739874958992004 31.851336359977722,38.5848730802536" stroke="white" stroke-width="0.1" /><polygon points="35.33317148685455,39.40236270427704 35.970738530159,39.59651291370392 33.58452618122101,39.82087969779968 33.436229825019836,39.71656262874603 33.079490065574646,39.4646942615509 32.64651894569397,39.15687799453735 32.26948082447052,38.88474106788635 32.08061158657074,38.739874958992004" stroke="white" stroke-width="0.1" /><polygon points="69.12705302238464,46.47804796695709 39.88838493824005,40.2436763048172 33.79199802875519,38.60585391521454" stroke="white" stroke-width="0.1" /><polygon points="69.12705302238464,46.47804796695709 39.864712953567505,40.33965468406677 39.88838493824005,40.2436763048172" stroke="white" stroke-width="0.1" /><polygon points="69.12705302238464,46.47804796695709 39.71239626407623,40.32255709171295 39.864712953567505,40.33965468406677" stroke="white" stroke-width="0.1" /><polygon points="69.12705302238464,46.47804796695709 39.278775453567505,40.265458822250366 39.71239626407623,40.32255709171295" stroke="white" stroke-width="0.1" /><polygon points="69.12705302238464,46.47804796695709 48.42177629470825,42.218393087387085 38.59880268573761,40.15965461730957 39.278775453567505,40.265458822250366" stroke="white" stroke-width="0.1" /><polygon points="48.42177629470825,42.218393087387085 47.41016328334808,42.08643138408661 37.70744204521179,39.99642729759216 38.59880268573761,40.15965461730957" stroke="white" stroke-width="0.1" /><polygon points="47.41016328334808,42.08643138408661 39.23642933368683,41.59063994884491 36.639657616615295,39.767056703567505 37.70744204521179,39.99642729759216" stroke="white" stroke-width="0.1" /><polygon points="35.970738530159,39.59651291370392 36.639657616615295,39.767056703567505 39.23642933368683,41.59063994884491 38.35969567298889,41.45452380180359 37.55388855934143,41.32532775402069 36.8441641330719,41.18707478046417 36.255741119384766,41.02378189563751 35.67270040512085,40.83239436149597 35.023048520088196,40.617260336875916 34.39779281616211,40.37752449512482 33.88793766498566,40.11235237121582 33.58452618122101,39.82087969779968" stroke="white" stroke-width="0.1" /><polygon points="39.88838493824005,40.2436763048172 34.12260711193085,38.72344791889191 33.79199802875519,38.60585391521454" stroke="white" stroke-width="0.1" /><polygon points="39.88838493824005,40.2436763048172 39.34209942817688,40.15775918960571 38.76060247421265,40.06096124649048 38.12527358531952,39.94060456752777 37.4174565076828,39.78399932384491 36.618539690971375,39.578452706336975 35.86995601654053,39.353713393211365 35.18729507923126,39.12073373794556 34.5962792634964,38.90286386013031 34.12260711193085,38.72344791889191" stroke="white" stroke-width="0.1" /><polygon points="47.41016328334808,42.08643138408661 46.44012153148651,42.10707247257233 45.93665897846222,42.09780991077423 44.678476452827454,42.0649915933609 43.043917417526245,42.00106859207153 41.41126275062561,41.89847707748413 40.158864855766296,41.74968600273132 39.23642933368683,41.59063994884491" stroke="white" stroke-width="0.1" /><polygon points="69.12705302238464,46.47804796695709 62.80264854431152,45.19273638725281 49.33592081069946,42.41792857646942 48.42177629470825,42.218393087387085" stroke="white" stroke-width="0.1" /><polygon points="62.80264854431152,45.19273638725281 50.5997359752655,42.73219406604767 49.33592081069946,42.41792857646942" stroke="white" stroke-width="0.1" /><polygon points="50.5997359752655,42.73219406604767 50.3156840801239,42.679592967033386 50.01356601715088,42.60000288486481 49.33592081069946,42.41792857646942" stroke="white" stroke-width="0.1" /><polygon points="62.80264854431152,45.19273638725281 51.20595097541809,42.87877380847931 50.5997359752655,42.73219406604767" stroke="white" stroke-width="0.1" /><polygon points="62.80264854431152,45.19273638725281 51.96909308433533,43.10247302055359 51.20595097541809,42.87877380847931" stroke="white" stroke-width="0.1" /><polygon points="62.80264854431152,45.19273638725281 52.72393226623535,43.3864563703537 51.96909308433533,43.10247302055359" stroke="white" stroke-width="0.1" /><polygon points="62.80264854431152,45.19273638725281 57.88997411727905,45.306333899497986 57.659727334976196,45.256465673446655 57.27739930152893,45.15124559402466 56.33856654167175,44.87910568714142 55.15545606613159,44.50531005859375 54.04025912284851,44.0951406955719 53.305214643478394,43.71386468410492 52.72393226623535,43.3864563703537" stroke="white" stroke-width="0.1" /><polygon points="62.80264854431152,45.19273638725281 58.47099423408508,45.440247654914856 57.88997411727905,45.306333899497986" stroke="white" stroke-width="0.1" /><polygon points="62.80264854431152,45.19273638725281 59.238189458847046,45.634666085243225 58.47099423408508,45.440247654914856" stroke="white" stroke-width="0.1" /><polygon points="62.80264854431152,45.19273638725281 60.02699136734009,45.8660751581192 59.238189458847046,45.634666085243225" stroke="white" stroke-width="0.1" /><polygon points="62.80264854431152,45.19273638725281 62.22425699234009,46.00646197795868 62.14600205421448,46.05610966682434 61.92746162414551,46.159568428993225 61.592888832092285,46.24865651130676 61.166584491729736,46.255165338516235 60.67281365394592,46.11090123653412 60.02699136734009,45.8660751581192" stroke="white" stroke-width="0.1" /><polygon points="62.80264854431152,45.19273638725281 62.76316046714783,45.302969217300415 62.38614320755005,46.001046895980835 62.22425699234009,46.00646197795868" stroke="white" stroke-width="0.1" /><polygon points="62.76316046714783,45.302969217300415 62.57568001747131,46.02077305316925 62.38614320755005,46.001046895980835" stroke="white" stroke-width="0.1" /><polygon points="62.76316046714783,45.302969217300415 62.756335735321045,46.051859855651855 62.57568001747131,46.02077305316925" stroke="white" stroke-width="0.1" /><polygon points="62.76316046714783,45.302969217300415 62.891560792922974,46.080589294433594 62.756335735321045,46.051859855651855" stroke="white" stroke-width="0.1" /><polygon points="62.76316046714783,45.302969217300415 62.94475197792053,46.09321653842926 62.891560792922974,46.080589294433594" stroke="white" stroke-width="0.1" /><polygon points="62.76316046714783,45.302969217300415 67.58132576942444,47.14768826961517 67.21570491790771,47.111114859580994 66.2989854812622,46.99578285217285 65.10142087936401,46.793293952941895 63.893258571624756,46.495237946510315 62.94475197792053,46.09321653842926" stroke="white" stroke-width="0.1" /><polygon points="69.12705302238464,46.47804796695709 69.11855340003967,46.47871255874634 69.0959095954895,46.48032486438751 69.0634548664093,46.48225009441376 69.02551054954529,46.48385941982269 68.98640394210815,46.48452699184418 68.5223639011383,46.464553475379944 67.87930727005005,46.410855650901794 67.15738773345947,46.33335471153259 66.45671725273132,46.24193012714386 65.87748527526855,46.14650309085846 65.57369232177734,46.077749133110046 65.21325707435608,45.980799198150635 64.81725573539734,45.86402773857117 64.40671682357788,45.73577046394348 64.00272846221924,45.60440182685852 63.62588405609131,45.47836482524872 63.29699158668518,45.365920662879944 63.036519289016724,45.275333523750305 62.8649115562439,45.214852690696716 62.80264854431152,45.19273638725281" stroke="white" stroke-width="0.1" /><polygon points="68.98640394210815,46.60169780254364 69.02478337287903,46.60133719444275 69.05966401100159,46.60042226314545" stroke="white" stroke-width="0.1" /><polygon points="68.96320581436157,45.52765190601349 70.52000761032104,45.62719464302063 70.92902660369873,45.70813775062561" stroke="white" stroke-width="0.1" /><polygon points="39.99297916889191,38.95485699176788 64.17635679244995,44.65141296386719 65.28636813163757,44.9236273765564" stroke="white" stroke-width="0.1" /><polygon points="39.99297916889191,38.95485699176788 62.99704909324646,44.35867369174957 64.17635679244995,44.65141296386719" stroke="white" stroke-width="0.1" /><polygon points="39.99297916889191,38.95485699176788 61.9299590587616,44.09194886684418 62.99704909324646,44.35867369174957" stroke="white" stroke-width="0.1" /><polygon points="39.99297916889191,38.95485699176788 61.156558990478516,43.89778971672058 61.9299590587616,44.09194886684418" stroke="white" stroke-width="0.1" /><polygon points="39.99297916889191,38.95485699176788 54.17070388793945,42.229121923446655 60.8584463596344,43.82272660732269 61.156558990478516,43.89778971672058" stroke="white" stroke-width="0.1" /><polygon points="39.99297916889191,38.95485699176788 50.79931616783142,41.39687120914459 54.17070388793945,42.229121923446655" stroke="white" stroke-width="0.1" /><polygon points="39.99297916889191,38.95485699176788 47.73862063884735,40.56446850299835 50.79931616783142,41.39687120914459" stroke="white" stroke-width="0.1" /><polygon points="39.99297916889191,38.95485699176788 46.88937067985535,40.31384885311127 47.73862063884735,40.56446850299835" stroke="white" stroke-width="0.1" /><polygon points="39.99297916889191,38.95485699176788 45.586419105529785,39.887651801109314 46.88937067985535,40.31384885311127" stroke="white" stroke-width="0.1" /><polygon points="39.46121335029602,38.62888813018799 38.92626762390137,38.49543035030365 38.17395865917206,38.30558657646179 37.163081765174866,38.03668916225433 36.24121844768524,37.780046463012695 35.421791672706604,37.5456839799881 34.76368188858032,37.35357224941254 34.32565629482269,37.22366988658905 34.166574478149414,37.17592656612396" stroke="white" stroke-width="0.1" /><polygon points="31.741711497306824,36.2662136554718 44.19882893562317,39.418742060661316 45.586419105529785,39.887651801109314" stroke="white" stroke-width="0.1" /><polygon points="31.741711497306824,36.2662136554718 32.19168484210968,36.34178936481476 43.095630407333374,39.03997242450714 44.19882893562317,39.418742060661316" stroke="white" stroke-width="0.1" /><polygon points="32.19168484210968,36.34178936481476 32.97537565231323,36.40510141849518 42.64589548110962,38.88418674468994 43.095630407333374,39.03997242450714" stroke="white" stroke-width="0.1" /><polygon points="32.97537565231323,36.40510141849518 34.1814786195755,36.43164932727814 34.46730077266693,36.4628404378891 35.187914967536926,36.553359031677246 36.13807260990143,36.698660254478455 37.11250126361847,36.89418435096741 37.905946373939514,37.13537156581879 42.64589548110962,38.88418674468994" stroke="white" stroke-width="0.1" /><polygon points="28.841441869735718,34.92443859577179 31.48815631866455,36.17634177207947 31.536763906478882,36.20288968086243" stroke="white" stroke-width="0.1" /><polygon points="28.841441869735718,34.92443859577179 29.724624752998352,35.31542718410492 29.89855408668518,35.3955864906311 30.316948890686035,35.59034764766693 30.82473576068878,35.831114649772644 31.26682937145233,36.04930639266968 31.48815631866455,36.17634177207947" stroke="white" stroke-width="0.1" /><polygon points="41.96382761001587,24.656392633914948 41.65574610233307,24.49563294649124 39.588212966918945,23.155736923217773" stroke="white" stroke-width="0.1" /><polygon points="41.65574610233307,24.49563294649124 41.376060247421265,24.39175397157669 39.588212966918945,23.155736923217773" stroke="white" stroke-width="0.1" /><polygon points="41.376060247421265,24.39175397157669 41.17293357849121,24.335911870002747 39.588212966918945,23.155736923217773" stroke="white" stroke-width="0.1" /><polygon points="41.17293357849121,24.335911870002747 34.760937094688416,22.63486534357071 39.588212966918945,23.155736923217773" stroke="white" stroke-width="0.1" /><polygon points="34.760937094688416,22.63486534357071 34.518224000930786,22.5877583026886 39.588212966918945,23.155736923217773" stroke="white" stroke-width="0.1" /><polygon points="34.518224000930786,22.5877583026886 33.88947248458862,22.5019708275795 35.1801872253418,21.918949484825134 39.588212966918945,23.155736923217773" stroke="white" stroke-width="0.1" /><polygon points="33.88947248458862,22.5019708275795 33.023715019226074,22.460822761058807 35.24613082408905,21.76472693681717 35.1801872253418,21.918949484825134" stroke="white" stroke-width="0.1" /><polygon points="35.24613082408905,21.76472693681717 33.023715019226074,22.460822761058807 32.070013880729675,22.54762500524521" stroke="white" stroke-width="0.1" /><polygon points="35.1801872253418,21.918949484825134 36.282116174697876,22.187989950180054 37.45574653148651,22.51226156949997 38.51921558380127,22.825700044631958 39.29064869880676,23.062217235565186 39.588212966918945,23.155736923217773" stroke="white" stroke-width="0.1" /><polygon points="41.17293357849121,24.335911870002747 41.09452664852142,24.31926429271698 38.95123600959778,23.801176249980927 34.760937094688416,22.63486534357071" stroke="white" stroke-width="0.1" /><polygon points="51.26541256904602,27.61445641517639 51.24814510345459,27.612152695655823 51.21817588806152,27.605366706848145 51.17599964141846,27.594265341758728 51.12207531929016,27.579009532928467 51.056915521621704,27.559760212898254" stroke="white" stroke-width="0.1" /><polygon points="49.41459596157074,27.136316895484924 52.04614996910095,27.767232060432434 51.546746492385864,27.659597992897034" stroke="white" stroke-width="0.1" /><polygon points="54.742008447647095,28.376400470733643 53.8032591342926,28.163287043571472 49.41459596157074,27.136316895484924" stroke="white" stroke-width="0.1" /><polygon points="53.8032591342926,28.163287043571472 52.60242223739624,27.89568603038788 49.41459596157074,27.136316895484924" stroke="white" stroke-width="0.1" /><polygon points="49.41459596157074,27.136316895484924 52.60242223739624,27.89568603038788 52.04614996910095,27.767232060432434" stroke="white" stroke-width="0.1" /><polygon points="46.93598747253418,26.307570934295654 47.36741483211517,26.446738839149475 47.85158038139343,26.606640219688416 48.36789667606354,26.779842376708984 48.89577329158783,26.958879828453064 49.41459596157074,27.136316895484924" stroke="white" stroke-width="0.1" /><polygon points="49.44470822811127,27.036792039871216 48.09429049491882,26.58396065235138 46.692341566085815,26.109430193901062 45.440858602523804,25.683459639549255 44.54182684421539,25.376349687576294 44.197267293930054,25.25835931301117" stroke="white" stroke-width="0.1" /><polygon points="53.8032591342926,28.163287043571472 53.05439829826355,28.003329038619995 52.60242223739624,27.89568603038788" stroke="white" stroke-width="0.1" /><polygon points="53.8032591342926,28.163287043571472 53.24087738990784,28.04846167564392 53.05439829826355,28.003329038619995" stroke="white" stroke-width="0.1" /><polygon points="60.12362241744995,29.772120714187622 59.51097011566162,29.60514724254608 58.68540406227112,29.377958178520203 57.847434282302856,29.146483540534973 57.19759464263916,28.966587781906128 56.936413049697876,28.894203901290894" stroke="white" stroke-width="0.1" /><polygon points="68.60851049423218,32.191646099090576 60.63014268875122,29.958799481391907 60.12362241744995,29.772120714187622" stroke="white" stroke-width="0.1" /><polygon points="68.60851049423218,32.191646099090576 61.357128620147705,30.28160333633423 60.63014268875122,29.958799481391907" stroke="white" stroke-width="0.1" /><polygon points="68.60851049423218,32.191646099090576 68.41350197792053,32.21179246902466 67.92436242103577,32.254406809806824 67.28487014770508,32.292819023132324 66.63880348205566,32.30031728744507 66.12997651100159,32.25019574165344 65.77422618865967,32.16136395931244 65.44565558433533,32.05706477165222 65.07542729377747,31.91717565059662 64.59461450576782,31.72154724597931 63.93442749977112,31.45003914833069 63.10194730758667,31.088876724243164 62.2119665145874,30.678850412368774 61.357128620147705,30.28160333633423" stroke="white" stroke-width="0.1" /><polygon points="65.30569195747375,32.11449682712555 65.743088722229,32.23887383937836 65.87641835212708,32.28025138378143" stroke="white" stroke-width="0.1" /><polygon points="65.30569195747375,32.11449682712555 65.70062637329102,32.22092092037201 65.743088722229,32.23887383937836" stroke="white" stroke-width="0.1" /><polygon points="51.1904776096344,27.751755714416504 64.91424441337585,31.979265809059143 65.30569195747375,32.11449682712555" stroke="white" stroke-width="0.1" /><polygon points="51.1904776096344,27.751755714416504 64.5747184753418,31.84536099433899 64.91424441337585,31.979265809059143" stroke="white" stroke-width="0.1" /><polygon points="51.1904776096344,27.751755714416504 64.33549523353577,31.742912530899048 64.5747184753418,31.84536099433899" stroke="white" stroke-width="0.1" /><polygon points="51.1904776096344,27.751755714416504 64.24500346183777,31.70206844806671 64.33549523353577,31.742912530899048" stroke="white" stroke-width="0.1" /><polygon points="51.1904776096344,27.751755714416504 51.743632555007935,27.872759103775024 53.12396287918091,28.17642092704773 54.912734031677246,28.573772311210632 56.691187620162964,28.975802659988403 58.040595054626465,29.293519258499146 58.561158180236816,29.429760575294495 59.178733825683594,29.60692048072815 59.844374656677246,29.815497994422913 60.5091392993927,30.0459623336792 61.12412214279175,30.288836359977722 61.72313094139099,30.553436279296875 62.53142952919006,30.9186190366745 63.352298736572266,31.292834877967834 63.989049196243286,31.584498286247253 64.24500346183777,31.70206844806671" stroke="white" stroke-width="0.1" /><polygon points="50.99836587905884,27.68455445766449 51.06545090675354,27.70799696445465 51.11897587776184,27.726712822914124 51.15818977355957,27.740445733070374 51.18227005004883,27.748876810073853 51.1904776096344,27.751755714416504" stroke="white" stroke-width="0.1" /><polygon points="58.488088846206665,30.46318292617798 58.23723077774048,30.39868175983429 44.79466676712036,26.65604054927826" stroke="white" stroke-width="0.1" /><polygon points="58.23723077774048,30.39868175983429 57.625484466552734,30.24486005306244 44.79466676712036,26.65604054927826" stroke="white" stroke-width="0.1" /><polygon points="57.625484466552734,30.24486005306244 56.86413645744324,30.06126582622528 44.79466676712036,26.65604054927826" stroke="white" stroke-width="0.1" /><polygon points="56.86413645744324,30.06126582622528 56.16442561149597,29.90744411945343 44.79466676712036,26.65604054927826" stroke="white" stroke-width="0.1" /><polygon points="56.16442561149597,29.90744411945343 55.73762655258179,29.842939972877502 51.19451284408569,28.827422857284546 48.697495460510254,28.135940432548523 45.04293501377106,26.814988255500793 44.79466676712036,26.65604054927826" stroke="white" stroke-width="0.1" /><polygon points="62.57671117782593,32.064926624298096 62.13100552558899,31.886976957321167 61.72744035720825,31.7083477973938 61.12958788871765,31.434810161590576" stroke="white" stroke-width="0.1" /><polygon points="62.13100552558899,31.886976957321167 61.95698380470276,31.818023324012756 61.72744035720825,31.7083477973938" stroke="white" stroke-width="0.1" /><polygon points="72.31566905975342,32.54938721656799 71.41885161399841,32.5567901134491 63.82508873939514,32.574400305747986 63.17957043647766,32.308512926101685" stroke="white" stroke-width="0.1" /><polygon points="71.41885161399841,32.5567901134491 70.18194794654846,32.700949907302856 64.39869403839111,32.81920850276947 63.82508873939514,32.574400305747986" stroke="white" stroke-width="0.1" /><polygon points="70.18194794654846,32.700949907302856 68.61567497253418,33.05904269218445 67.1524703502655,33.38339030742645 66.1283552646637,33.43369662761688 65.41417241096497,33.29785466194153 64.88068699836731,33.06373059749603 64.39869403839111,32.81920850276947" stroke="white" stroke-width="0.1" /><polygon points="73.6647367477417,32.70649611949921 73.04603457450867,32.636094093322754 72.86165952682495,32.601550221443176" stroke="white" stroke-width="0.1" /><polygon points="76.3757050037384,41.976577043533325 76.4174222946167,41.02820158004761 76.44570469856262,40.651196241378784" stroke="white" stroke-width="0.1" /></svg>