<?xml version="1.0" encoding="utf-8" ?>
<svg baseProfile="full" height="90.74655771255493" version="1.1" width="98.11006784439087" xmlns="http://www.w3.org/2000/svg" xmlns:ev="http://www.w3.org/2001/xml-events" xmlns:xlink="http://www.w3.org/1999/xlink"><defs><clipPath /></defs><polygon points="44.750019907951355,38.71176540851593 44.72087323665619,38.3046418428421 44.644156098365784,36.54315769672394 44.6294367313385,35.262757539749146 44.64135468006134,34.30605232715607 44.677332043647766,33.296385407447815 44.74363029003143,32.24441111087799 44.8472797870636,31.165632605552673 44.996291399002075,30.07427155971527 45.20113468170166,28.9812833070755 45.485299825668335,27.85903513431549 46.06817662715912,26.281732320785522 46.84503674507141,24.96359348297119 47.49671816825867,24.017062783241272 48.26795160770416,22.93838858604431 49.186572432518005,21.699078381061554 49.965447187423706,20.68176418542862 50.52640438079834,19.966718554496765 51.11449360847473,19.232457876205444 51.73027515411377,18.48028302192688 52.37205624580383,17.714358866214752 53.036218881607056,16.941075026988983 53.72370481491089,16.16172194480896 54.43200469017029,15.381447970867157 55.15856146812439,14.605559408664703 55.90318441390991,13.836857676506042 56.663525104522705,13.080529868602753 57.43967294692993,12.339400500059128 58.22862386703491,11.619441211223602 59.03160572052002,10.922887176275253 59.84674692153931,10.255047678947449 60.67454814910889,9.619571268558502 61.51531934738159,9.020659327507019 62.36966252326965,8.463092148303986 63.239431381225586,7.9515136778354645 64.1500174999237,7.479584217071533 65.53516387939453,6.895219534635544 67.41845607757568,6.391971558332443 69.25231218338013,6.263379752635956 70.92815637588501,6.370899826288223 72.52222299575806,6.663493812084198 74.04438853263855,7.121171057224274 75.49018263816833,7.720524817705154 76.86053514480591,8.438825607299805 78.16001772880554,9.255506098270416 79.3951690196991,10.152564942836761 80.57279586791992,11.11401841044426 81.7007064819336,12.126486003398895 82.78382420539856,13.175739347934723 83.8288962841034,14.250622689723969 84.83967185020447,15.33803939819336 85.81994771957397,16.42582267522812 86.77776455879211,17.507219314575195 87.70599365234375,18.559175729751587 88.6412501335144,19.611094892024994 89.65516686439514,20.75870931148529 90.45891165733337,21.686668694019318 91.0102128982544,22.3368838429451 91.56563878059387,23.00620973110199 92.12303757667542,23.69517683982849 92.67902970314026,24.403101205825806 93.22969317436218,25.128504633903503 93.77131462097168,25.8704274892807 94.30005550384521,26.627951860427856 94.81277465820312,27.401259541511536 95.30522227287292,28.189191222190857 95.77369093894958,28.991881012916565 96.2216317653656,29.82347011566162 96.82345986366272,31.08505606651306 97.47607707977295,32.80467391014099 97.92819619178772,34.61356163024902 98.11006784439087,36.49960160255432 97.94121980667114,38.438817858695984 97.34696745872498,40.36116003990173 96.31975293159485,42.125970125198364 95.24998068809509,43.34665238857269 94.37129497528076,44.12493705749512 93.17302703857422,44.97480392456055 91.64739847183228,45.71971595287323 90.03322720527649,46.132877469062805 88.42594027519226,46.19202017784119 86.90706491470337,45.93409299850464 85.52553653717041,45.430803298950195 84.28986668586731,44.754987955093384 83.1853985786438,43.96215081214905 82.19298124313354,43.09186935424805 81.29583597183228,42.17323064804077 80.4826557636261,41.2314236164093 79.74578142166138,40.289393067359924 79.08158898353577,39.37085270881653 78.48878502845764,38.500210642814636 77.96913385391235,37.704601883888245 77.52602696418762,37.012532353401184 77.13280916213989,36.40061616897583 76.69156789779663,35.71898937225342 76.19091272354126,34.96818542480469 75.63437819480896,34.174054861068726 75.02643465995789,33.362603187561035 74.37416315078735,32.56198167800903 73.68648052215576,31.800395250320435 72.9756236076355,31.106436252593994 72.25744724273682,30.506932735443115 71.55086994171143,30.024057626724243 70.87660431861877,29.671812057495117 70.24944424629211,29.451265931129456 69.66651678085327,29.351523518562317 69.09410953521729,29.362770915031433 68.4731662273407,29.499995708465576 67.74749159812927,29.81456220149994 66.96193218231201,30.331560969352722 66.36244654655457,30.89900016784668 65.94096422195435,31.484991312026978 65.64416885375977,32.12389051914215 65.45087695121765,32.85299241542816 65.36310315132141,33.69354605674744 65.38974046707153,34.643933176994324 65.53540825843811,35.688236355781555 65.7970666885376,36.80250942707062 66.16546511650085,37.962183356285095 66.6269302368164,39.143019914627075 67.16503500938416,40.32251238822937 67.76199340820312,41.47991240024567 68.39888095855713,42.59551465511322 69.05604600906372,43.65023672580719 69.71743106842041,44.63174045085907 70.39961218833923,45.58328688144684 71.11889719963074,46.602848172187805 71.83938026428223,47.67076075077057 72.54266738891602,48.781490325927734 73.2160747051239,49.93912875652313 73.84458780288696,51.145803928375244 74.41272139549255,52.405232191085815 74.9033510684967,53.720539808273315 75.29745697975159,55.093538761138916 75.5744457244873,56.52392506599426 75.71266889572144,58.00741910934448 75.69141387939453,59.53538417816162 75.49283504486084,61.09442114830017 75.10413527488708,62.669533491134644 74.51781630516052,64.24612402915955 73.73049259185791,65.8132016658783 72.74719476699829,67.35395789146423 71.63235545158386,68.77579092979431 70.42079567909241,70.06592750549316 69.13666725158691,71.23093605041504 67.80118346214294,72.27954864501953 66.43321514129639,73.22114706039429 65.05134105682373,74.0640640258789 63.67221474647522,74.81682896614075 62.3130202293396,75.48679113388062 60.99048852920532,76.08087658882141 59.72127914428711,76.6055703163147 58.523476123809814,77.06639766693115 57.41480588912964,77.46877670288086 56.417328119277954,77.81639099121094 55.20692467689514,78.23240160942078 54.112136363983154,78.65305542945862 53.05337309837341,79.19259667396545 52.19433903694153,79.71511483192444 51.606643199920654,80.11031150817871 50.99693536758423,80.55034279823303 50.383979082107544,81.02255463600159 49.77451264858246,81.52197003364563 49.17404055595398,82.04434514045715 48.58890175819397,82.58445858955383 48.02524149417877,83.13695192337036 47.488364577293396,83.6969256401062 46.98402285575867,84.25878286361694 46.51786684989929,84.81647372245789 46.078646183013916,85.385262966156 45.55526077747345,86.09833121299744 44.82894837856293,86.93047165870667 43.97357702255249,87.72867321968079 43.00782382488251,88.46009969711304 41.93431735038757,89.11144733428955 40.75634777545929,89.66981172561646 39.478760957717896,90.12288451194763 38.10678422451019,90.45957326889038 36.645904183387756,90.67022800445557 35.10088622570038,90.74655771255493 33.47551226615906,90.68130850791931 31.786862015724182,90.46969413757324 30.457964539527893,90.20832180976868 29.534748196601868,89.98108506202698 28.606590628623962,89.71660137176514 27.658972144126892,89.41044807434082 26.691818237304688,89.06172513961792 25.70515275001526,88.66956830024719 24.69843626022339,88.23285102844238 23.67490977048874,87.75221109390259 22.65644669532776,87.24108934402466 21.665358543395996,86.72966957092285 20.68435698747635,86.2114667892456 19.71142739057541,85.68460941314697 18.749040365219116,85.14950275421143 17.796654999256134,84.60493683815002 16.855794191360474,84.05079245567322 15.928079187870026,83.48703384399414 15.013965964317322,82.91289210319519 14.114253222942352,82.327800989151 13.230733573436737,81.73177242279053 12.364035099744797,81.12404346466064 11.51515245437622,80.50405979156494 10.685362666845322,79.87144589424133 9.875600039958954,79.22552824020386 9.08711776137352,78.56577634811401 8.321046084165573,77.89157629013062 7.578540593385696,77.20224857330322 6.860989332199097,76.4972448348999 6.169436126947403,75.77561140060425 5.50554059445858,75.03691911697388 4.870690405368805,74.28042888641357 4.266409203410149,73.50542545318604 3.6944177001714706,72.71133065223694 3.1564105302095413,71.89745306968689 2.6544280350208282,71.06361389160156 2.1903621032834053,70.20934820175171 1.7663504928350449,69.33455467224121 1.3844573870301247,68.439120054245 1.046968251466751,67.52371191978455 0.7558980491012335,66.58849716186523 0.5138145759701729,65.63617587089539 0.32382640056312084,64.68126177787781 0.17958137905225158,63.73406648635864 0.07770064403302968,62.78786063194275 0.0166115234605968,61.825764179229736 0.004619772880687378,60.412269830703735 0.13284303713589907,58.56349468231201 0.42874193750321865,56.732767820358276 0.8927956223487854,54.951244592666626 1.527817826718092,53.23446989059448 2.337801642715931,51.5996515750885 3.327096626162529,50.06660223007202 4.499179497361183,48.658740520477295 5.8548495173454285,47.402918338775635 7.389830052852631,46.32889926433563 9.093039482831955,45.46664357185364 10.921474546194077,44.85132098197937 12.399052083492279,44.55181658267975 13.445651531219482,44.43289935588837 14.491870999336243,44.38527822494507 15.573856234550476,44.40699517726898 16.75209403038025,44.514667987823486 17.983031272888184,44.76884305477142 19.177119433879852,45.15348672866821 20.322135090827942,45.64586877822876 21.4216411113739,46.228960156440735 22.481435537338257,46.88937962055206 23.506976664066315,47.6159542798996 24.503077566623688,48.39937388896942 25.47408938407898,49.23165142536163 26.422888040542603,50.104910135269165 27.351954579353333,51.01194381713867 28.26295793056488,51.94551944732666 29.157131910324097,52.898454666137695 30.035895109176636,53.86430621147156 30.897459387779236,54.83330488204956 31.745603680610657,55.8022141456604 32.58276581764221,56.76663517951965 33.3911269903183,57.698798179626465 34.18779373168945,58.611589670181274 34.966519474983215,59.49106216430664 35.725292563438416,60.3284478187561 36.46116256713867,61.11445426940918 37.17152774333954,61.840587854385376 37.85260021686554,62.49823570251465 38.49853277206421,63.07786703109741 39.101362228393555,63.57035040855408 39.65067267417908,63.96772265434265 40.09677767753601,64.2424464225769 40.62161147594452,64.48346972465515 41.001686453819275,64.55766558647156 41.288357973098755,64.50319290161133 41.55760705471039,64.3462061882019 41.75630807876587,64.16301727294922 42.055562138557434,63.79563808441162 42.38051772117615,63.28529119491577 42.71095395088196,62.63805031776428 43.03239583969116,61.866265535354614 43.335336446762085,60.984838008880615 43.61429214477539,60.00814437866211 43.86611878871918,58.95119905471802 44.08949017524719,57.827866077423096 44.284600019454956,56.64953589439392 44.451773166656494,55.43026328086853 44.59228217601776,54.181015491485596 44.7076290845871,52.91280150413513 44.79936063289642,51.63813829421997 44.86947059631348,50.36574602127075 44.91981863975525,49.10857677459717 44.952502846717834,47.87544906139374 44.969555735588074,46.67816460132599 44.97314393520355,45.52547633647919 44.96542811393738,44.428661465644836 44.94861960411072,43.39879751205444 44.92483139038086,42.44360327720642 44.89645063877106,41.57809615135193 44.849833846092224,40.459877252578735 44.76911127567291,38.99225294589996 44.74928081035614,38.7014776468277" stroke="white" stroke-width="0.1" /><polygon points="50.77371001243591,38.28057944774628 50.75056552886963,37.95718848705292 50.68175792694092,36.377400159835815 50.669002532958984,35.26563048362732 50.67915320396423,34.45087373256683 50.70967078208923,33.59382748603821 50.76456665992737,32.72336721420288 50.84713697433472,31.863486766815186 50.95968246459961,31.039485335350037 51.102036237716675,30.279919505119324 51.26104950904846,29.651936888694763 51.545506715774536,28.882187604904175 51.93976163864136,28.213247656822205 52.44061350822449,27.485772967338562 53.150659799575806,26.49265229701996 54.00971174240112,25.333741307258606 54.73904609680176,24.38109666109085 55.25901913642883,23.718269169330597 55.808424949645996,23.032337427139282 56.38083815574646,22.333142161369324 56.97627067565918,21.622489392757416 57.59209990501404,20.905521512031555 58.22446942329407,20.188622176647186 58.87160897254944,19.475720822811127 59.531962871551514,18.77054274082184 60.2017343044281,18.07909905910492 60.87921857833862,17.40519106388092 61.560243368148804,16.754908859729767 62.24374771118164,16.131165623664856 62.924450635910034,15.540669858455658 63.60021233558655,14.987047016620636 64.26641941070557,14.475591480731964 64.9187684059143,14.010922610759735 65.55253863334656,13.597306609153748 66.16187691688538,13.238917291164398 66.71728491783142,12.951041758060455 67.49773025512695,12.621796131134033 68.41827034950256,12.375806272029877 69.27019953727722,12.316068261861801 70.18712759017944,12.374909222126007 71.10326886177063,12.54306435585022 72.01346158981323,12.816736102104187 72.92689681053162,13.195398449897766 73.8473892211914,13.677893579006195 74.77500438690186,14.260858297348022 75.70800185203552,14.938502013683319 76.64426565170288,15.702877938747406 77.58070230484009,16.5434792637825 78.51711511611938,17.45060235261917 79.45148944854736,18.411624431610107 80.38473129272461,19.415664672851562 81.31750822067261,20.450720191001892 82.24886059761047,21.50225341320038 83.18537473678589,22.563572227954865 84.12237763404846,23.61745834350586 85.11051535606384,24.7359037399292 85.87309718132019,25.616338849067688 86.3831639289856,26.217934489250183 86.89416646957397,26.833710074424744 87.40079402923584,27.4599552154541 87.89893984794617,28.094178438186646 88.3851706981659,28.734716773033142 88.85572552680969,29.379329085350037 89.30696249008179,30.025771260261536 89.73456621170044,30.670708417892456 90.13545513153076,31.312108039855957 90.50577282905579,31.946668028831482 90.8345878124237,32.55710005760193 91.26552939414978,33.460503816604614 91.70352220535278,34.61460471153259 91.96019172668457,35.64139902591705 92.04562902450562,36.527639627456665 91.98083281517029,37.27194666862488 91.78082942962646,37.91900873184204 91.39370322227478,38.58412802219391 90.95988273620605,39.079099893569946 90.6113862991333,39.38780128955841 90.08089900016785,39.76404368877411 89.55218195915222,40.02218544483185 89.16352987289429,40.12165665626526 88.8245940208435,40.13413488864899 88.45881819725037,40.07202088832855 88.02232146263123,39.913010597229004 87.51152157783508,39.63363766670227 86.94613575935364,39.227792620658875 86.3503098487854,38.70527446269989 85.74588298797607,38.08635771274567 85.14916896820068,37.39527761936188 84.57280397415161,36.65842413902283 84.02546048164368,35.9015017747879 83.51342678070068,35.14946103096008 83.0399215221405,34.424567222595215 82.6065719127655,33.747678995132446 82.20956921577454,33.12988877296448 81.7388653755188,32.402706146240234 81.17643594741821,31.55934512615204 80.52497506141663,30.629733204841614 79.78612780570984,29.643553495407104 78.95914316177368,28.628429770469666 78.04116010665894,27.61184871196747 77.0262062549591,26.62099301815033 75.90458393096924,25.684714317321777 74.6636152267456,24.836629629135132 73.28871488571167,24.118414521217346 71.77131772041321,23.58478158712387 70.12050747871399,23.302312195301056 68.37617754936218,23.33659827709198 66.60353541374207,23.72833788394928 64.86502289772034,24.481944739818573 63.197118043899536,25.579658150672913 61.794573068618774,26.907232403755188 60.70469617843628,28.42250168323517 59.943073987960815,30.061960220336914 59.493136405944824,31.759077310562134 59.31512713432312,33.463454246520996 59.36241149902344,35.14746427536011 59.592610597610474,36.797890067100525 59.97104048728943,38.40942978858948 60.469186305999756,39.97751176357269 61.06300354003906,41.4971262216568 61.73114776611328,42.96165108680725 62.453675270080566,44.362565875053406 63.21176290512085,45.69045603275299 63.98731470108032,46.935153007507324 64.7586464881897,48.079848289489746 65.47937989234924,49.08512234687805 66.14812016487122,50.03301501274109 66.78363084793091,50.975024700164795 67.37987995147705,51.91667675971985 67.92505979537964,52.853864431381226 68.4097409248352,53.78449559211731 68.82490515708923,54.70483899116516 69.1632091999054,55.611759424209595 69.41916346549988,56.50343894958496 69.5889413356781,57.380205392837524 69.66966390609741,58.24630856513977 69.65762376785278,59.110403060913086 69.5461094379425,59.985893964767456 69.32357549667358,60.887765884399414 68.972909450531,61.83062195777893 68.47309470176697,62.82545328140259 67.81411170959473,63.85800838470459 67.04580187797546,64.83789086341858 66.18397235870361,65.75561761856079 65.23817181587219,66.61369800567627 64.2207145690918,67.41259694099426 63.14637064933777,68.15208196640015 62.03032732009888,68.83283853530884 60.8894407749176,69.45557594299316 59.73975658416748,70.02225518226624 58.599114418029785,70.53464651107788 57.48348832130432,70.9958553314209 56.408798694610596,71.4093267917633 55.39100170135498,71.77872657775879 54.44161295890808,72.10956811904907 53.14198136329651,72.55624532699585 51.65137052536011,73.12898635864258 50.108903646469116,73.91502261161804 48.938578367233276,74.62691068649292 48.15373420715332,75.15466213226318 47.38613963127136,75.70863962173462 46.62653207778931,76.2938380241394 45.87758779525757,76.90756916999817 45.14324069023132,77.54640579223633 44.426584243774414,78.20789813995361 43.73091757297516,78.8897454738617 43.060362339019775,79.58917617797852 42.41860508918762,80.30412197113037 41.809433698654175,81.03296160697937 41.25353991985321,81.7527711391449 40.83761274814606,82.3194682598114 40.48267602920532,82.72610902786255 40.08004367351532,83.10182094573975 39.60948884487152,83.45820903778076 39.06705975532532,83.78733396530151 38.44778835773468,84.08086895942688 37.745508551597595,84.32990908622742 36.95341348648071,84.5242977142334 36.06469929218292,84.65245962142944 35.072922706604004,84.70144867897034 33.97297263145447,84.6572995185852 32.74622857570648,84.50356125831604 31.762978434562683,84.31016802787781 31.084632873535156,84.14320349693298 30.362841486930847,83.93752574920654 29.61200475692749,83.69494676589966 28.832000494003296,83.4136962890625 28.022584319114685,83.09199213981628 27.184167504310608,82.7282965183258 26.313292980194092,82.31932520866394 25.396069884300232,81.85904622077942 24.459828436374664,81.37589693069458 23.532187938690186,80.88589310646057 22.61732667684555,80.39045929908752 21.714995801448822,79.88874912261963 20.827913284301758,79.38153147697449 19.956840574741364,78.86849045753479 19.102145731449127,78.34910154342651 18.2663232088089,77.82413959503174 17.449508607387543,77.29295492172241 16.653335094451904,76.75585150718689 15.878772735595703,76.21272206306458 15.12715071439743,75.66378116607666 14.399413764476776,75.10897517204285 13.696815073490143,74.5485246181488 13.020361959934235,73.9825189113617 12.371112406253815,73.41113090515137 11.750121414661407,72.83459901809692 11.158188432455063,72.25302457809448 10.596530139446259,71.66692614555359 10.065674036741257,71.07629179954529 9.566443413496017,70.4814076423645 9.099490195512772,69.88251805305481 8.665379136800766,69.27982568740845 8.264625817537308,68.6735987663269 7.897304743528366,68.06344985961914 7.563796639442444,67.44948625564575 7.26419985294342,66.83136224746704 6.998636573553085,66.20873808860779 6.767033040523529,65.58051705360413 6.56956285238266,64.94606733322144 6.405916810035706,64.30226564407349 6.273503601551056,63.63673806190491 6.1698295176029205,62.95596361160278 6.096306070685387,62.27298378944397 6.054113805294037,61.60857081413269 6.045513227581978,60.59589385986328 6.138473749160767,59.25566554069519 6.344901770353317,57.978469133377075 6.661122292280197,56.76443576812744 7.081030309200287,55.62923550605774 7.597437500953674,54.58695888519287 8.202701061964035,53.64901423454285 8.890163153409958,52.82328128814697 9.655693918466568,52.114129066467285 10.500411689281464,51.52307748794556 11.432094871997833,51.05140805244446 12.490551173686981,50.695210695266724 13.34153562784195,50.52271485328674 13.924363255500793,50.456494092941284 14.568735659122467,50.42716860771179 15.238124132156372,50.440603494644165 15.863807499408722,50.49777626991272 16.442127525806427,50.617194175720215 17.053744196891785,50.81420540809631 17.710046470165253,51.09642744064331 18.406379222869873,51.4657199382782 19.13592219352722,51.9203245639801 19.892360270023346,52.45625972747803 20.6697478890419,53.06766629219055 21.462801098823547,53.74740958213806 22.267648577690125,54.48817014694214 23.080778121948242,55.282050371170044 23.899607360363007,56.12111687660217 24.72182959318161,56.99738264083862 25.54498314857483,57.90214538574219 26.370057463645935,58.83007049560547 27.19208002090454,59.76916551589966 28.007617592811584,60.70864200592041 28.833794593811035,61.661362648010254 29.652157425880432,62.59903311729431 30.468115210533142,63.52051496505737 31.2826931476593,64.4195020198822 32.09773898124695,65.29003977775574 32.91499614715576,66.12552404403687 33.737191557884216,66.91939234733582 34.56921875476837,67.66600012779236 35.41797995567322,68.35939884185791 36.29293441772461,68.99237632751465 37.24278807640076,69.57727670669556 38.75660002231598,70.27249932289124 40.986305475234985,70.70778608322144 43.43448877334595,70.2425479888916 45.16761600971222,69.23205852508545 46.166518330574036,68.31105351448059 46.96043133735657,67.33652353286743 47.628676891326904,66.28694534301758 48.19592535495758,65.17592668533325 48.68119955062866,64.01084661483765 49.09855127334595,62.7964973449707 49.457910656929016,61.538201570510864 49.76704120635986,60.24065017700195 50.03172159194946,58.909690380096436 50.25627017021179,57.553595304489136 50.44487118721008,56.17806315422058 50.60079097747803,54.7917902469635 50.72704553604126,53.4034788608551 50.82659125328064,52.020323276519775 50.90190768241882,50.65330266952515 50.955748558044434,49.30914342403412 50.99044442176819,47.998782992362976 51.00853443145752,46.730050444602966 51.01231932640076,45.513951778411865 51.004207134246826,44.35889720916748 50.98646879196167,43.27348470687866 50.96150040626526,42.269736528396606 50.9314239025116,41.35230481624603 50.88207721710205,40.169236063957214 50.796955823898315,38.62138092517853 50.77444911003113,38.29087018966675" stroke="white" stroke-width="0.1" /></svg>