<?xml version="1.0" encoding="utf-8" ?>
<svg baseProfile="full" height="47.44925498962402" version="1.1" width="80.58865666389465" xmlns="http://www.w3.org/2000/svg" xmlns:ev="http://www.w3.org/2001/xml-events" xmlns:xlink="http://www.w3.org/1999/xlink"><defs><clipPath /></defs><polygon points="80.56557178497314,31.95447027683258 80.58151006698608,32.710832357406616 77.742999792099,34.32200253009796 78.38813066482544,33.94020199775696 78.73528003692627,33.40316414833069 78.8732647895813,32.84880220890045 78.89091372489929,32.41505026817322 78.8642168045044,30.751657485961914 78.84658575057983,30.074653029441833 78.81752252578735,29.607442021369934 78.77084612846375,29.320308566093445 78.67450714111328,29.05675768852234 78.48679423332214,28.809428215026855 78.16601991653442,28.57094705104828 77.67049670219421,28.33394706249237 76.93474292755127,28.159412741661072 76.0432779788971,28.08845043182373 75.17948150634766,28.083831071853638 74.52672719955444,28.108355402946472 74.26838874816895,28.124797344207764 73.92030358314514,24.560460448265076 73.98620843887329,23.93314242362976 73.97642731666565,23.24298322200775 73.9260196685791,22.60616272687912 73.81054162979126,21.54388725757599 73.73169660568237,21.06756418943405 73.63762259483337,20.617228746414185 73.55877757072449,20.281824469566345 73.52571487426758,20.150265097618103 73.13874959945679,18.902400135993958 72.62260317802429,18.12073588371277 72.03776836395264,17.58490949869156 71.55880928039551,17.27675348520279 71.36034965515137,17.17807799577713 71.16860151290894,17.107442021369934 70.6461489200592,16.983333230018616 69.87229585647583,16.937433183193207 68.92622709274292,17.101438343524933 58.39164853096008,20.125362277030945 57.4517548084259,19.727128744125366 57.111918926239014,19.5367693901062 54.82107996940613,18.115226924419403 53.26223969459534,17.020045220851898 51.314449310302734,15.521162748336792 55.14105558395386,15.960635244846344 55.10179400444031,16.028888523578644 55.074578523635864,16.09070897102356 55.05872368812561,16.135545074939728 55.05359172821045,16.152840852737427 57.43715763092041,18.00563335418701 58.29922556877136,18.45642626285553 59.060776233673096,18.728137016296387 59.60404872894287,18.861384689807892 59.81130599975586,18.896782398223877 61.21828556060791,18.994009494781494 62.29766607284546,18.898004293441772 63.05809020996094,18.70734691619873 63.50802183151245,18.52065622806549 63.65610957145691,18.43651682138443 65.50564765930176,17.383867502212524 65.8102810382843,17.17967391014099 65.93757271766663,17.06141084432602 65.96042513847351,17.006804049015045 65.9518301486969,16.993552446365356 55.461448431015015,15.745329856872559 42.26672947406769,8.531501144170761 45.76504826545715,8.250653743743896 45.39695084095001,8.723916858434677 48.70167076587677,11.24064177274704 49.08452033996582,10.860689729452133 45.791539549827576,8.226144313812256 41.00348651409149,7.523415982723236 42.74776875972748,6.216949969530106 42.362937331199646,6.681255251169205 42.90671646595001,7.1190692484378815 43.18348467350006,6.845083087682724 43.08239817619324,6.462348252534866 42.74776875972748,6.216949969530106 38.88695538043976,6.14459402859211 38.593730330467224,6.227679923176765 38.40461075305939,6.353900581598282 38.337573409080505,6.419123709201813 38.220420479774475,7.017400860786438 38.59696984291077,7.615326344966888 39.20401334762573,8.136717230081558 41.82712435722351,10.019862651824951 39.71375524997711,10.593678802251816 39.908039569854736,10.398481041193008 39.17020261287689,9.847725927829742 38.99524509906769,10.023407638072968 39.71375524997711,10.593678802251816 42.500367760658264,10.5459563434124 42.810508608818054,10.76657846570015 44.522103667259216,12.09714412689209 45.20011246204376,12.634634971618652 46.63935899734497,13.75759094953537 47.13301658630371,14.13305401802063 47.58880138397217,14.441302418708801 54.542213678359985,24.692918360233307 54.568397998809814,24.936753511428833 54.62926626205444,25.537309050559998 54.69822883605957,26.29815638065338 54.748713970184326,27.022865414619446 54.754143953323364,27.515000104904175 54.754143953323364,27.760398387908936 55.38437366485596,27.770155668258667 55.36144971847534,27.553591132164 55.281877517700195,26.99737846851349 55.12958765029907,26.241710782051086 54.88841533660889,25.426822900772095 54.542213678359985,24.692918360233307 53.97960543632507,21.035651862621307 54.172009229660034,21.352939307689667 54.37442064285278,21.688298881053925 54.595595598220825,22.078198194503784 54.84427213668823,22.55912274122238 55.129218101501465,23.16754460334778 55.41534423828125,24.08079504966736 55.65486550331116,25.270351767539978 55.838024616241455,26.460912823677063 55.955058336257935,27.377143502235413 55.996233224868774,27.743741869926453 59.94806885719299,27.670517563819885 73.40579628944397,27.25187838077545 74.25622940063477,28.561604022979736 74.28746819496155,29.228585958480835 74.3387520313263,29.937750101089478 74.38666820526123,30.501115322113037 74.50928688049316,31.90445899963379 74.6593177318573,32.74397552013397 74.81704354286194,33.29140841960907 74.94163513183594,33.58893692493439 75.20465850830078,34.08694565296173 75.63033103942871,34.36559438705444 76.22486352920532,34.504470229148865 76.94386839866638,34.493350982666016 77.742999792099,34.32200253009796 80.42963147163391,33.49375128746033 80.01846075057983,34.40202474594116 79.23345565795898,35.327306389808655 79.10061478614807,35.41141152381897 78.73459458351135,35.611966252326965 78.18424105644226,35.851338505744934 77.49832272529602,36.05189621448517 76.7256498336792,36.13600134849548 75.98533630371094,36.10159158706665 75.35226941108704,35.97002923488617 74.80881214141846,35.69881021976471 74.33733940124512,35.24543642997742 73.92030358314514,34.56740081310272 73.8696038722992,34.42631959915161 73.75029921531677,34.02770459651947 73.6116111278534,33.40849578380585 73.50268959999084,32.60564208030701 73.47273230552673,31.656089425086975 73.39603900909424,28.270748257637024 73.39603900909424,28.16474437713623 56.794631481170654,28.59184741973877 46.35374844074249,26.889297366142273 45.78871726989746,26.521068811416626 45.43795585632324,26.295122504234314 45.317476987838745,26.218292117118835 44.995710253715515,26.017138361930847 44.20348107814789,25.52676796913147 43.200427293777466,24.916808307170868 42.24613606929779,24.35690313577652 41.60025119781494,24.01668131351471 41.0661906003952,23.821640014648438 40.3509795665741,23.647449910640717 39.56789970397949,23.591001331806183 38.83019983768463,23.749177157878876 38.25112283229828,24.218854308128357 37.89525926113129,24.893634021282196 37.760019302368164,25.56694746017456 37.85344660282135,26.187029480934143 38.18363547325134,26.702123880386353 38.75865340232849,27.060452103614807 38.84155750274658,27.110594511032104 39.114657044410706,27.256104350090027 39.61458206176758,27.489617466926575 40.37792682647705,27.803784608840942 45.98402976989746,29.916685819625854 46.709075570106506,30.182668566703796 48.01754355430603,30.636781454086304 55.88071942329407,35.56865155696869 56.09152317047119,35.979482531547546 56.39259219169617,36.61833107471466 56.787389516830444,37.52194046974182 58.828139305114746,42.27173328399658 58.982884883880615,42.50987768173218 60.345327854156494,44.36938762664795 60.47667860984802,44.46050226688385 60.81389784812927,44.67330873012543 61.271727085113525,44.917017221450806 61.76488399505615,45.100826025009155 62.208110094070435,45.13394236564636 62.14514374732971,45.0425922870636 61.94472312927246,44.829317927360535 61.58950924873352,44.58525478839874 61.06215715408325,44.401562213897705 60.345327854156494,44.36938762664795 59.628647565841675,42.95973777770996 59.99191999435425,43.16837191581726 60.24821996688843,43.33343803882599 60.51734685897827,43.49903762340546 60.91921925544739,43.70928406715393 62.93834447860718,44.70925331115723 63.58444690704346,44.98395919799805 64.25774693489075,45.19203305244446 65.50700068473816,45.56652009487152 66.0561203956604,45.68418264389038 66.54055118560791,45.64807415008545 66.94958209991455,45.377662777900696 67.23557710647583,44.98990178108215 67.37247705459595,44.638895988464355 67.38400459289551,44.29956674575806 67.29389429092407,43.94682049751282 67.12583899497986,43.55558454990387 66.84977412223816,42.97289252281189 66.47940874099731,42.19236373901367 66.10418558120728,41.402021050453186 65.69667458534241,40.54409861564636 65.48764109611511,40.17612934112549 64.97141718864441,39.28656876087189 64.31431770324707,38.196930289268494 63.682615756988525,37.22873032093048 63.2426917552948,36.70348823070526 62.797462940216064,36.31618022918701 62.531477212905884,36.142101883888245 62.106603384017944,35.99901497364044 58.315205574035645,35.16980707645416 56.15248680114746,32.312265038490295 56.82324171066284,32.938894629478455 57.335782051086426,33.18913280963898 65.32664895057678,35.05645990371704 66.326904296875,38.523051142692566 65.94910621643066,37.57363259792328 65.42807817459106,36.93463206291199 64.89434242248535,36.54891848564148 64.47837352752686,36.359381675720215 64.31072950363159,36.3088995218277 64.34126496315002,36.40753626823425 64.43259119987488,36.66833937168121 64.58418369293213,37.03863322734833 64.7956371307373,37.46574819087982 66.73368811607361,41.06214940547943 67.08520650863647,41.70410633087158 67.23180413246155,41.96838736534119 67.22745895385742,41.827332973480225 67.21106767654419,41.527608036994934 67.17759966850281,41.14144444465637 67.12204813957214,40.74107110500336 67.03938841819763,40.398719906806946 66.326904296875,38.523051142692566 65.32664895057678,35.05645990371704 65.92255234718323,35.337063670158386 66.40502214431763,35.66887378692627 66.75366163253784,36.00884974002838 66.98379516601562,36.30994260311127 67.11066961288452,36.52510643005371 67.14954972267151,36.6072803735733 68.42494606971741,39.16723132133484 68.50634813308716,39.28368389606476 66.82413816452026,47.386372089385986 65.87940454483032,47.44925498962402 65.75602293014526,47.43037819862366 65.42726159095764,47.35989272594452 64.95523452758789,47.217026352882385 64.40204381942749,46.981000900268555 63.82976770401001,46.63103222846985 63.36342692375183,46.29104435443878 63.05156946182251,46.07613980770111 62.841618061065674,45.952308177948 57.59080648422241,43.51174533367157 55.35052418708801,39.612460136413574 55.31972646713257,39.22584652900696 55.274808406829834,38.736119866371155 55.220985412597656,38.252466917037964 55.16352653503418,37.88405358791351 55.09081482887268,37.522149085998535 54.98414635658264,37.0365709066391 54.84210252761841,36.5143358707428 54.66322898864746,36.04247868061066 53.961730003356934,34.72725749015808 53.86252999305725,34.56156253814697 53.62831950187683,34.30957794189453 53.20271849632263,33.99107754230499 52.52940058708191,33.625832200050354 49.77661371231079,32.664668560028076 45.50676643848419,31.225743889808655 43.15219223499298,30.482232570648193 41.742295026779175,30.051109194755554 40.55669605731964,29.688572883605957 39.146798849105835,29.257449507713318 36.24568283557892,23.533834517002106 36.784765124320984,22.907066345214844 37.58140504360199,22.312423586845398 38.514283299446106,21.919816732406616 39.38059210777283,21.774834394454956 40.09949266910553,21.7853382229805 40.5901163816452,21.85920625925064 40.77162146568298,21.9043031334877 45.74183523654938,24.358287453651428 48.33795726299286,25.972893834114075 49.36613142490387,26.662662625312805 49.86928701400757,26.96910798549652 50.504422187805176,27.257534861564636 51.17847919464111,27.506786584854126 51.79833173751831,27.695727348327637 52.27088928222656,27.803203463554382 53.88064980506897,27.776482701301575 53.8616418838501,27.568626403808594 53.82317304611206,27.20031440258026 53.767842054367065,26.728060841560364 53.69820594787598,26.208388805389404 53.616881370544434,25.697800517082214 53.479957580566406,25.15721023082733 53.29136252403259,24.639201164245605 53.09826135635376,24.199801683425903 52.17788219451904,22.212861478328705 50.99964141845703,19.771942496299744 50.673168897628784,19.098955392837524 50.2824068069458,18.475568294525146 49.85705018043518,18.034592270851135 49.46684539318085,17.750824987888336 36.299923062324524,8.246517926454544 36.06645464897156,7.80421569943428 35.98158657550812,7.530644536018372 35.970038175582886,7.436966150999069 36.065635085105896,6.107491627335548 36.48515343666077,5.177365988492966 37.081363797187805,4.573432356119156 37.70700991153717,4.222568497061729 38.214874267578125,4.051589220762253 38.67751061916351,3.983621671795845 39.20242190361023,3.9739780128002167 39.69477117061615,3.9978250861167908 40.059736371040344,4.030348360538483 40.20245671272278,4.046710208058357 40.35179018974304,4.084493964910507 40.543851256370544,4.145319387316704 47.33557105064392,7.2295330464839935 48.0096161365509,7.696454226970673 54.26662564277649,12.749242782592773 56.75407648086548,14.725428819656372 58.04811120033264,15.486247837543488 59.47072505950928,15.98263829946518 60.78287363052368,16.26937985420227 61.74546480178833,16.401250660419464 62.11945414543152,16.4330393075943 63.643527030944824,16.37350022792816 63.80838751792908,16.366587579250336 64.11250233650208,16.348229348659515 64.5087718963623,16.321980953216553 64.9501085281372,16.29141867160797 65.38944840431213,16.26010239124298 65.74493050575256,16.233381628990173 65.84790349006653,16.225701570510864 65.94115495681763,16.218364238739014 66.03690385818481,16.20924025774002 66.11539125442505,16.197365522384644 68.43287348747253,15.696844458580017 74.17545914649963,18.432477116584778 74.54866170883179,19.19976770877838 74.78399872779846,19.952206313610077 74.92396235466003,20.69968581199646 75.0109851360321,21.452121436595917 75.08752346038818,22.219417989253998 75.09057521820068,23.08577001094818 74.96775984764099,24.046382308006287 74.77675676345825,24.979643523693085 74.57523345947266,25.763973593711853 74.4208574295044,26.277753710746765 74.34700727462769,26.531219482421875 74.29735660552979,26.761263608932495 74.26720857620239,26.959890127182007 74.25190210342407,27.119097113609314 74.24673438072205,27.230873703956604 80.02438545227051,28.358924388885498 80.43590188026428,29.654479026794434 80.44939041137695,29.721811413764954 80.48154711723328,29.94847297668457 80.51992654800415,30.371469259262085 80.55208325386047,31.027796864509583" stroke="white" stroke-width="0.1" /><polygon points="74.24673438072205,27.230873703956604 74.93175864219666,27.21414566040039 75.67673921585083,27.196907997131348 76.39305591583252,27.181583642959595 76.99207067489624,27.170616388320923 77.38515138626099,27.166417241096497 77.67888307571411,27.165979146957397 78.38833928108215,27.264615893363953 79.25602197647095,27.61228084564209 80.02438545227051,28.358924388885498" stroke="white" stroke-width="0.1" /><polygon points="68.43287348747253,15.696844458580017 68.55347752571106,15.667237341403961 74.17545914649963,18.432477116584778" stroke="white" stroke-width="0.1" /><polygon points="68.55347752571106,15.667237341403961 68.65696907043457,15.630501508712769 73.79304766654968,17.74931699037552 74.17545914649963,18.432477116584778" stroke="white" stroke-width="0.1" /><polygon points="68.65696907043457,15.630501508712769 68.75443458557129,15.590988099575043 68.85693073272705,15.55308997631073 68.97551417350769,15.521162748336792 69.1297709941864,15.492860972881317 69.27461624145508,15.47294408082962 69.40069198608398,15.460194647312164 69.4986879825592,15.453433990478516 69.55931782722473,15.451446175575256 69.66966390609741,15.452270209789276 69.86227035522461,15.45805037021637 70.13375759124756,15.473730862140656 70.48074007034302,15.504272282123566 70.89982032775879,15.554629266262054 71.32423520088196,15.643271803855896 71.69782519340515,15.775647759437561 72.04287648200989,15.942201018333435 72.38168120384216,16.133368015289307 72.73653745651245,16.339576244354248 73.05155396461487,16.566520929336548 73.29201698303223,16.852809488773346 73.51887226104736,17.234918475151062 73.79304766654968,17.74931699037552" stroke="white" stroke-width="0.1" /><polygon points="66.11539125442505,16.197365522384644 66.22421741485596,16.172699630260468 68.27653646469116,15.712448954582214 68.43287348747253,15.696844458580017" stroke="white" stroke-width="0.1" /><polygon points="66.22421741485596,16.172699630260468 68.15305948257446,15.705417096614838 68.27653646469116,15.712448954582214" stroke="white" stroke-width="0.1" /><polygon points="66.22421741485596,16.172699630260468 68.04469227790833,15.68676233291626 68.15305948257446,15.705417096614838" stroke="white" stroke-width="0.1" /><polygon points="66.22421741485596,16.172699630260468 66.25568270683289,16.16022139787674 66.34723544120789,16.12459570169449 66.49463772773743,16.068534553050995 66.69360995292664,15.99476933479309 66.93990230560303,15.905994176864624 67.09176301956177,15.8574178814888 67.31348633766174,15.79321026802063 67.54552721977234,15.728554129600525 67.72839426994324,15.6786248087883 67.80257225036621,15.658612549304962 67.93376803398132,15.667484700679779 68.04469227790833,15.68676233291626" stroke="white" stroke-width="0.1" /><polygon points="66.11539125442505,16.197365522384644 66.21134877204895,16.1763533949852 66.22421741485596,16.172699630260468" stroke="white" stroke-width="0.1" /><polygon points="66.11539125442505,16.197365522384644 66.17431640625,16.185487806797028 66.21134877204895,16.1763533949852" stroke="white" stroke-width="0.1" /><polygon points="65.38944840431213,16.26010239124298 65.51452875137329,16.250421106815338 65.63341617584229,16.241568326950073 65.74493050575256,16.233381628990173" stroke="white" stroke-width="0.1" /><polygon points="62.11945414543152,16.4330393075943 62.2563898563385,16.426846385002136 62.59123086929321,16.412080824375153 63.01000118255615,16.39445573091507 63.39876055717468,16.379690170288086 63.643527030944824,16.37350022792816" stroke="white" stroke-width="0.1" /><polygon points="48.0096161365509,7.696454226970673 48.29153120517731,7.891514152288437 50.1825213432312,9.370384365320206 51.786649227142334,10.680090636014938 54.26662564277649,12.749242782592773" stroke="white" stroke-width="0.1" /><polygon points="40.543851256370544,4.145319387316704 40.7711923122406,4.2156171053647995 46.52697145938873,6.668157130479813 47.33557105064392,7.2295330464839935" stroke="white" stroke-width="0.1" /><polygon points="40.7711923122406,4.2156171053647995 41.02634787559509,4.281850531697273 45.84139585494995,6.189696118235588 46.52697145938873,6.668157130479813" stroke="white" stroke-width="0.1" /><polygon points="41.02634787559509,4.281850531697273 42.89695918560028,4.7445595264434814 43.59133839607239,4.947857558727264 44.28974092006683,5.252956971526146 44.904905557632446,5.57909719645977 45.34953236579895,5.845550447702408 45.53638398647308,5.971551686525345 45.84139585494995,6.189696118235588" stroke="white" stroke-width="0.1" /><polygon points="41.02634787559509,4.281850531697273 41.301870346069336,4.330454394221306 41.75688326358795,4.411153495311737 42.18860864639282,4.518558084964752 42.55233108997345,4.6270158141851425 42.803362011909485,4.710902273654938 42.89695918560028,4.7445595264434814" stroke="white" stroke-width="0.1" /><polygon points="49.46684539318085,17.750824987888336 49.18154776096344,17.59905368089676 41.93244278430939,12.951454520225525 39.42513167858124,11.064959317445755 37.514013051986694,9.59256887435913 36.757346987724304,8.846358954906464 36.299923062324524,8.246517926454544" stroke="white" stroke-width="0.1" /><polygon points="49.18154776096344,17.59905368089676 49.0709513425827,17.554065585136414 46.36996686458588,16.300582885742188 44.256407022476196,14.738960564136505 41.93244278430939,12.951454520225525" stroke="white" stroke-width="0.1" /><polygon points="49.0709513425827,17.554065585136414 47.83707857131958,17.141003906726837 47.04810976982117,16.794800758361816 46.60598933696747,16.529783606529236 46.41262888908386,16.360269486904144 46.36996686458588,16.300582885742188" stroke="white" stroke-width="0.1" /><polygon points="52.17788219451904,22.212861478328705 51.26781463623047,20.332255959510803 50.99964141845703,19.771942496299744" stroke="white" stroke-width="0.1" /><polygon points="52.17788219451904,22.212861478328705 51.46949291229248,20.758718252182007 51.26781463623047,20.332255959510803" stroke="white" stroke-width="0.1" /><polygon points="52.17788219451904,22.212861478328705 51.59649848937988,21.03012353181839 51.46949291229248,20.758718252182007" stroke="white" stroke-width="0.1" /><polygon points="52.17788219451904,22.212861478328705 51.64065957069397,21.125303208827972 51.59649848937988,21.03012353181839" stroke="white" stroke-width="0.1" /><polygon points="53.09826135635376,24.199801683425903 52.94780135154724,23.89507293701172 52.17788219451904,22.212861478328705" stroke="white" stroke-width="0.1" /><polygon points="52.94780135154724,23.89507293701172 52.887165546417236,23.78104031085968 52.17788219451904,22.212861478328705" stroke="white" stroke-width="0.1" /><polygon points="48.33795726299286,25.972893834114075 48.3798086643219,25.99528133869171 48.50464463233948,26.06765627861023 48.711371421813965,26.197806000709534 48.998889327049255,26.39354169368744 49.36613142490387,26.662662625312805" stroke="white" stroke-width="0.1" /><polygon points="40.77162146568298,21.9043031334877 40.880388021469116,21.92317694425583 41.20362102985382,22.004428505897522 41.73673987388611,22.18499183654785 42.47514307498932,22.50182181596756 43.414247035980225,22.991862893104553 44.32094991207123,23.510904610157013 44.981274008750916,23.896893858909607 45.42100131511688,24.160002171993256 45.66592276096344,24.310407042503357 45.74183523654938,24.358287453651428" stroke="white" stroke-width="0.1" /><polygon points="39.146798849105835,29.257449507713318 38.9980286359787,29.214534163475037 38.621288537979126,29.09945845603943 38.12094330787659,28.93274426460266 37.601348757743835,28.734898567199707 37.16687858104706,28.526440262794495 36.71217858791351,28.226834535598755 36.174213886260986,27.72141396999359 35.718026757240295,26.979470252990723 35.508668422698975,25.97030997276306 35.71118414402008,24.663224816322327 35.75515151023865,24.506282806396484 35.917893052101135,24.098363518714905 36.24568283557892,23.533834517002106" stroke="white" stroke-width="0.1" /><polygon points="40.55669605731964,29.688572883605957 39.563363790512085,29.384827613830566 39.146798849105835,29.257449507713318" stroke="white" stroke-width="0.1" /><polygon points="43.15219223499298,30.482232570648193 42.73562729358673,30.354854464530945 41.742295026779175,30.051109194755554" stroke="white" stroke-width="0.1" /><polygon points="49.77661371231079,32.664668560028076 45.63169479370117,31.26932978630066 45.50676643848419,31.225743889808655" stroke="white" stroke-width="0.1" /><polygon points="49.77661371231079,32.664668560028076 45.96177935600281,31.385916471481323 45.63169479370117,31.26932978630066" stroke="white" stroke-width="0.1" /><polygon points="49.77661371231079,32.664668560028076 46.429991722106934,31.554239988327026 45.96177935600281,31.385916471481323" stroke="white" stroke-width="0.1" /><polygon points="49.77661371231079,32.664668560028076 46.969303488731384,31.75303041934967 46.429991722106934,31.554239988327026" stroke="white" stroke-width="0.1" /><polygon points="49.77661371231079,32.664668560028076 49.62486922740936,32.62397050857544 49.230822920799255,32.51442611217499 48.68626296520233,32.35486447811127 48.082953691482544,32.1641206741333 47.512683272361755,31.961026787757874 46.969303488731384,31.75303041934967" stroke="white" stroke-width="0.1" /><polygon points="54.66322898864746,36.04247868061066 54.446083307266235,35.70801913738251 53.98227572441101,34.786880016326904 53.961730003356934,34.72725749015808" stroke="white" stroke-width="0.1" /><polygon points="54.446083307266235,35.70801913738251 54.24633026123047,35.46069860458374 54.11236882209778,35.21331548690796 54.031902551651,34.99747812747955 53.99264097213745,34.84479784965515 53.98227572441101,34.786880016326904" stroke="white" stroke-width="0.1" /><polygon points="57.59080648422241,43.51174533367157 57.31089115142822,43.3943510055542 57.02923536300659,43.217071890830994 56.606900691986084,42.84238517284393 56.16421699523926,42.3468142747879 55.82152009010315,41.8069064617157 55.699145793914795,41.2992000579834 55.66408038139343,41.14699959754944 55.58044910430908,40.78208804130554 55.48064708709717,40.342044830322266 55.39702773094177,39.96442258358002 55.36196231842041,39.7867888212204 55.35052418708801,39.612460136413574" stroke="white" stroke-width="0.1" /><polygon points="62.841618061065674,45.952308177948 58.010679483413696,43.71667802333832 57.59080648422241,43.51174533367157" stroke="white" stroke-width="0.1" /><polygon points="62.841618061065674,45.952308177948 58.45438241958618,43.94387602806091 58.010679483413696,43.71667802333832" stroke="white" stroke-width="0.1" /><polygon points="62.841618061065674,45.952308177948 62.681031227111816,45.88555097579956 58.80577564239502,44.12805736064911 58.45438241958618,43.94387602806091" stroke="white" stroke-width="0.1" /><polygon points="62.681031227111816,45.88555097579956 60.68159341812134,45.08639872074127 58.948713541030884,44.20395791530609 58.80577564239502,44.12805736064911" stroke="white" stroke-width="0.1" /><polygon points="60.68159341812134,45.08639872074127 60.46112775802612,45.006173849105835 60.26813983917236,44.92274224758148 59.88860726356506,44.723790884017944 59.45431590080261,44.48634088039398 59.097081422805786,44.287386536598206 58.948713541030884,44.20395791530609" stroke="white" stroke-width="0.1" /><polygon points="62.681031227111816,45.88555097579956 61.13789677619934,45.2802836894989 60.68159341812134,45.08639872074127" stroke="white" stroke-width="0.1" /><polygon points="62.681031227111816,45.88555097579956 62.51724362373352,45.84185481071472 62.196141481399536,45.7282155752182 61.689525842666626,45.51762938499451 61.13789677619934,45.2802836894989" stroke="white" stroke-width="0.1" /><polygon points="68.50634813308716,39.28368389606476 68.70419383049011,39.565107226371765 68.28094124794006,46.20267152786255 68.25342178344727,46.265336871147156 68.18097829818726,46.40352427959442 67.94114708900452,46.72725796699524 67.5001323223114,47.10029363632202 66.82413816452026,47.386372089385986" stroke="white" stroke-width="0.1" /><polygon points="68.70419383049011,39.565107226371765 68.94894242286682,39.90961015224457 68.37175488471985,46.0280179977417 68.28094124794006,46.20267152786255" stroke="white" stroke-width="0.1" /><polygon points="68.94894242286682,39.90961015224457 69.1710352897644,40.2152955532074 68.53832602500916,45.76137363910675 68.37175488471985,46.0280179977417" stroke="white" stroke-width="0.1" /><polygon points="69.1710352897644,40.2152955532074 69.30095553398132,40.38027226924896 68.793123960495,45.42273283004761 68.53832602500916,45.76137363910675" stroke="white" stroke-width="0.1" /><polygon points="69.30095553398132,40.38027226924896 69.45391893386841,40.565136075019836 69.71971392631531,40.98263680934906 69.99064683914185,41.609108448028564 70.15901207923889,42.4208790063858 70.11712193489075,43.39427351951599 70.08197903633118,43.49862337112427 69.97296214103699,43.77283453941345 69.78464722633362,44.15865242481232 69.51165199279785,44.597822427749634 69.14856433868408,45.032092928886414 68.793123960495,45.42273283004761" stroke="white" stroke-width="0.1" /><polygon points="67.03938841819763,40.398719906806946 66.24369025230408,38.52446675300598 66.326904296875,38.523051142692566" stroke="white" stroke-width="0.1" /><polygon points="64.7956371307373,37.46574819087982 66.30963683128357,40.26888310909271 66.73368811607361,41.06214940547943" stroke="white" stroke-width="0.1" /><polygon points="64.7956371307373,37.46574819087982 65.94538688659668,39.55063819885254 66.30963683128357,40.26888310909271" stroke="white" stroke-width="0.1" /><polygon points="64.7956371307373,37.46574819087982 65.77336192131042,39.13376331329346 65.94538688659668,39.55063819885254" stroke="white" stroke-width="0.1" /><polygon points="64.7956371307373,37.46574819087982 65.06644487380981,37.89701461791992 65.88883996009827,39.218708872795105 65.77336192131042,39.13376331329346" stroke="white" stroke-width="0.1" /><polygon points="65.06644487380981,37.89701461791992 65.38904905319214,38.228222727775574 66.17043018341064,39.43919241428375 65.88883996009827,39.218708872795105" stroke="white" stroke-width="0.1" /><polygon points="65.38904905319214,38.228222727775574 65.72556495666504,38.41674029827118 66.5208637714386,39.743706583976746 66.17043018341064,39.43919241428375" stroke="white" stroke-width="0.1" /><polygon points="65.72556495666504,38.41674029827118 66.02686047554016,38.50226104259491 66.84293150901794,40.08071720600128 66.5208637714386,39.743706583976746" stroke="white" stroke-width="0.1" /><polygon points="66.02686047554016,38.50226104259491 66.24369025230408,38.52446675300598 67.03938841819763,40.398719906806946 66.84293150901794,40.08071720600128" stroke="white" stroke-width="0.1" /><polygon points="57.335782051086426,33.18913280963898 62.07734942436218,34.28885340690613 65.32664895057678,35.05645990371704" stroke="white" stroke-width="0.1" /><polygon points="62.07734942436218,34.28885340690613 62.36214637756348,34.3546986579895 65.32664895057678,35.05645990371704" stroke="white" stroke-width="0.1" /><polygon points="62.36214637756348,34.3546986579895 62.795114517211914,34.42797064781189 65.32664895057678,35.05645990371704" stroke="white" stroke-width="0.1" /><polygon points="62.795114517211914,34.42797064781189 63.36091160774231,34.519168734550476 64.00118470191956,34.65159833431244 64.67131972312927,34.82933044433594 65.32664895057678,35.05645990371704" stroke="white" stroke-width="0.1" /><polygon points="57.335782051086426,33.18913280963898 61.91087365150452,34.23553109169006 62.07734942436218,34.28885340690613" stroke="white" stroke-width="0.1" /><polygon points="57.335782051086426,33.18913280963898 57.53997564315796,33.23444426059723 61.832886934280396,34.199804067611694 61.91087365150452,34.23553109169006" stroke="white" stroke-width="0.1" /><polygon points="57.53997564315796,33.23444426059723 61.14917993545532,33.87414515018463 61.81352138519287,34.18676257133484 61.832886934280396,34.199804067611694" stroke="white" stroke-width="0.1" /><polygon points="57.53997564315796,33.23444426059723 60.450148582458496,33.45654010772705 61.14917993545532,33.87414515018463" stroke="white" stroke-width="0.1" /><polygon points="57.53997564315796,33.23444426059723 59.787994623184204,33.005157113075256 60.450148582458496,33.45654010772705" stroke="white" stroke-width="0.1" /><polygon points="57.53997564315796,33.23444426059723 59.23430323600769,32.59119391441345 59.787994623184204,33.005157113075256" stroke="white" stroke-width="0.1" /><polygon points="57.53997564315796,33.23444426059723 58.7388277053833,32.20692574977875 58.774399757385254,32.22915530204773 58.806878328323364,32.249715924263 58.835798501968384,32.26861357688904 58.8606595993042,32.2858601808548 59.23430323600769,32.59119391441345" stroke="white" stroke-width="0.1" /><polygon points="57.53997564315796,33.23444426059723 58.700644969940186,32.18302130699158 58.7388277053833,32.20692574977875" stroke="white" stroke-width="0.1" /><polygon points="57.53997564315796,33.23444426059723 58.41408967971802,31.983765959739685 58.700644969940186,32.18302130699158" stroke="white" stroke-width="0.1" /><polygon points="57.53997564315796,33.23444426059723 58.14869999885559,31.773534417152405 58.41408967971802,31.983765959739685" stroke="white" stroke-width="0.1" /><polygon points="57.53997564315796,33.23444426059723 57.904356718063354,31.55646324157715 58.14869999885559,31.773534417152405" stroke="white" stroke-width="0.1" /><polygon points="57.53997564315796,33.23444426059723 57.68095254898071,31.33668303489685 57.904356718063354,31.55646324157715" stroke="white" stroke-width="0.1" /><polygon points="57.53997564315796,33.23444426059723 57.47838020324707,31.118330359458923 57.68095254898071,31.33668303489685" stroke="white" stroke-width="0.1" /><polygon points="57.53997564315796,33.23444426059723 57.39246606826782,31.021055579185486 57.412683963775635,31.026875972747803 57.43177533149719,31.038400530815125 57.44933485984802,31.05674386024475 57.464998960494995,31.083014607429504 57.47838020324707,31.118330359458923" stroke="white" stroke-width="0.1" /><polygon points="57.53997564315796,33.23444426059723 57.24668502807617,30.84307610988617 57.39246606826782,31.021055579185486" stroke="white" stroke-width="0.1" /><polygon points="57.53997564315796,33.23444426059723 57.11487531661987,30.670633912086487 57.24668502807617,30.84307610988617" stroke="white" stroke-width="0.1" /><polygon points="57.53997564315796,33.23444426059723 56.996893882751465,30.505970120429993 57.11487531661987,30.670633912086487" stroke="white" stroke-width="0.1" /><polygon points="57.53997564315796,33.23444426059723 56.89258575439453,30.351340770721436 56.996893882751465,30.505970120429993" stroke="white" stroke-width="0.1" /><polygon points="57.53997564315796,33.23444426059723 56.801801919937134,30.20900785923004 56.89258575439453,30.351340770721436" stroke="white" stroke-width="0.1" /><polygon points="57.53997564315796,33.23444426059723 56.59230947494507,29.8417866230011 56.6225528717041,29.869946837425232 56.66157007217407,29.914548993110657 56.706422567367554,29.981788992881775 56.754136085510254,30.077877640724182 56.801801919937134,30.20900785923004" stroke="white" stroke-width="0.1" /><polygon points="57.53997564315796,33.23444426059723 56.564903259277344,29.789423942565918 56.57622218132019,29.809311032295227 56.58108592033386,29.818281531333923 56.58506751060486,29.826155304908752 56.58823847770691,29.832792282104492 56.5906286239624,29.83804941177368 56.59230947494507,29.8417866230011" stroke="white" stroke-width="0.1" /><polygon points="57.53997564315796,33.23444426059723 56.555306911468506,29.771065711975098 56.564903259277344,29.789423942565918" stroke="white" stroke-width="0.1" /><polygon points="57.53997564315796,33.23444426059723 56.54750466346741,29.75485622882843 56.555306911468506,29.771065711975098" stroke="white" stroke-width="0.1" /><polygon points="57.53997564315796,33.23444426059723 56.54153823852539,29.741400480270386 56.54750466346741,29.75485622882843" stroke="white" stroke-width="0.1" /><polygon points="57.53997564315796,33.23444426059723 56.53351545333862,29.722929000854492 56.53749704360962,29.731324315071106 56.54153823852539,29.741400480270386" stroke="white" stroke-width="0.1" /><polygon points="57.53997564315796,33.23444426059723 56.53042793273926,29.71634268760681 56.53351545333862,29.722929000854492" stroke="white" stroke-width="0.1" /><polygon points="57.53997564315796,33.23444426059723 56.528204679489136,29.71160113811493 56.53042793273926,29.71634268760681" stroke="white" stroke-width="0.1" /><polygon points="57.53997564315796,33.23444426059723 56.52688145637512,29.708728194236755 56.528204679489136,29.71160113811493" stroke="white" stroke-width="0.1" /><polygon points="57.53997564315796,33.23444426059723 56.47342801094055,29.591789841651917 56.526440382003784,29.707765579223633 56.52688145637512,29.708728194236755" stroke="white" stroke-width="0.1" /><polygon points="57.53997564315796,33.23444426059723 56.41714334487915,29.461374878883362 56.47342801094055,29.591789841651917" stroke="white" stroke-width="0.1" /><polygon points="57.53997564315796,33.23444426059723 56.363195180892944,29.331982135772705 56.41714334487915,29.461374878883362" stroke="white" stroke-width="0.1" /><polygon points="57.53997564315796,33.23444426059723 56.31727576255798,29.21905815601349 56.363195180892944,29.331982135772705" stroke="white" stroke-width="0.1" /><polygon points="57.53997564315796,33.23444426059723 56.28500580787659,29.138067364692688 56.31727576255798,29.21905815601349" stroke="white" stroke-width="0.1" /><polygon points="62.106603384017944,35.99901497364044 61.42534017562866,35.900360345840454 61.15729808807373,35.8496755361557 60.496824979782104,35.71908473968506 59.65934991836548,35.54077744483948 58.86031985282898,35.34695208072662 58.315205574035645,35.16980707645416" stroke="white" stroke-width="0.1" /><polygon points="63.2426917552948,36.70348823070526 63.00203800201416,36.5077942609787 62.797462940216064,36.31618022918701" stroke="white" stroke-width="0.1" /><polygon points="66.10418558120728,41.402021050453186 65.81346392631531,40.78991711139679 65.69667458534241,40.54409861564636" stroke="white" stroke-width="0.1" /><polygon points="64.25774693489075,45.19203305244446 64.90398645401001,45.37562429904938 65.50700068473816,45.56652009487152" stroke="white" stroke-width="0.1" /><polygon points="60.91921925544739,43.70928406715393 62.389761209487915,44.432756304740906 62.93834447860718,44.70925331115723" stroke="white" stroke-width="0.1" /><polygon points="60.91921925544739,43.70928406715393 61.573612689971924,44.00826394557953 62.009042501449585,44.219306111335754 62.389761209487915,44.432756304740906" stroke="white" stroke-width="0.1" /><polygon points="61.573612689971924,44.00826394557953 61.866503953933716,44.13374662399292 62.009042501449585,44.219306111335754" stroke="white" stroke-width="0.1" /><polygon points="58.982884883880615,42.50987768173218 59.24162268638611,42.72843301296234 60.345327854156494,44.36938762664795" stroke="white" stroke-width="0.1" /><polygon points="59.24162268638611,42.72843301296234 59.628647565841675,42.95973777770996 60.345327854156494,44.36938762664795" stroke="white" stroke-width="0.1" /><polygon points="56.787389516830444,37.52194046974182 57.158464193344116,38.368743658065796 58.828139305114746,42.27173328399658" stroke="white" stroke-width="0.1" /><polygon points="57.158464193344116,38.368743658065796 57.4052631855011,38.88426125049591 58.828139305114746,42.27173328399658" stroke="white" stroke-width="0.1" /><polygon points="57.4052631855011,38.88426125049591 57.557666301727295,39.16541635990143 58.828139305114746,42.27173328399658" stroke="white" stroke-width="0.1" /><polygon points="57.557666301727295,39.16541635990143 57.780611515045166,39.5740270614624 58.828139305114746,42.27173328399658" stroke="white" stroke-width="0.1" /><polygon points="57.780611515045166,39.5740270614624 57.9084575176239,39.78891372680664 58.828139305114746,42.27173328399658" stroke="white" stroke-width="0.1" /><polygon points="57.9084575176239,39.78891372680664 58.04550647735596,40.00582695007324 58.828139305114746,42.27173328399658" stroke="white" stroke-width="0.1" /><polygon points="58.04550647735596,40.00582695007324 58.1548273563385,40.173548460006714 58.828139305114746,42.27173328399658" stroke="white" stroke-width="0.1" /><polygon points="58.1548273563385,40.173548460006714 58.199483156204224,40.24083912372589 58.75311493873596,41.98164641857147 58.828139305114746,42.27173328399658" stroke="white" stroke-width="0.1" /><polygon points="58.199483156204224,40.24083912372589 58.255016803741455,40.31454920768738 58.38745832443237,40.516626834869385 58.54552984237671,40.818485617637634 58.67796540260315,41.19155704975128 58.73350501060486,41.607263684272766 58.75311493873596,41.98164641857147" stroke="white" stroke-width="0.1" /><polygon points="57.557666301727295,39.16541635990143 57.645583152770996,39.30915594100952 57.69892930984497,39.412400126457214 57.780611515045166,39.5740270614624" stroke="white" stroke-width="0.1" /><polygon points="48.01754355430603,30.636781454086304 48.503729701042175,30.79412281513214 55.88071942329407,35.56865155696869" stroke="white" stroke-width="0.1" /><polygon points="48.503729701042175,30.79412281513214 49.17691648006439,30.99658489227295 55.716222524642944,35.28408110141754 55.75677752494812,35.349100828170776 55.88071942329407,35.56865155696869" stroke="white" stroke-width="0.1" /><polygon points="49.17691648006439,30.99658489227295 49.977415800094604,31.233620643615723 50.76720118522644,31.473606824874878 51.45026445388794,31.684592366218567 51.93052291870117,31.834620237350464 52.11194157600403,31.891727447509766 52.307915687561035,31.957682967185974 52.80441641807556,32.15366303920746 53.46420407295227,32.47685134410858 54.15008068084717,32.92442560195923 54.72487211227417,33.493563532829285 55.131012201309204,34.08463895320892 55.414754152297974,34.57929491996765 55.59455156326294,34.957462549209595 55.68889379501343,35.199081897735596 55.716222524642944,35.28408110141754" stroke="white" stroke-width="0.1" /><polygon points="46.709075570106506,30.182668566703796 47.69686460494995,30.524489283561707 48.01754355430603,30.636781454086304" stroke="white" stroke-width="0.1" /><polygon points="46.709075570106506,30.182668566703796 47.52021133899689,30.457162857055664 47.69686460494995,30.524489283561707" stroke="white" stroke-width="0.1" /><polygon points="46.709075570106506,30.182668566703796 47.46610224246979,30.434736609458923 47.52021133899689,30.457162857055664" stroke="white" stroke-width="0.1" /><polygon points="40.37792682647705,27.803784608840942 45.36921977996826,29.67696189880371 45.98402976989746,29.916685819625854" stroke="white" stroke-width="0.1" /><polygon points="40.37792682647705,27.803784608840942 41.44130051136017,28.191235661506653 44.942936301231384,29.503673315048218 45.36921977996826,29.67696189880371" stroke="white" stroke-width="0.1" /><polygon points="41.44130051136017,28.191235661506653 42.57329702377319,28.59061360359192 43.50019991397858,28.93328368663788 44.195324182510376,29.20084297657013 44.63197588920593,29.374876618385315 44.78345513343811,29.436981678009033 44.942936301231384,29.503673315048218" stroke="white" stroke-width="0.1" /><polygon points="56.794631481170654,28.59184741973877 54.90333437919617,28.647270798683167 46.35374844074249,26.889297366142273" stroke="white" stroke-width="0.1" /><polygon points="54.90333437919617,28.647270798683167 51.30881071090698,28.937190771102905 47.117024660110474,27.39298641681671 46.35374844074249,26.889297366142273" stroke="white" stroke-width="0.1" /><polygon points="51.30881071090698,28.937190771102905 51.13627314567566,28.95345389842987 50.66133141517639,28.9495050907135 49.94805455207825,28.84623408317566 49.06044900417328,28.564539551734924 48.062559962272644,28.02531123161316 47.117024660110474,27.39298641681671" stroke="white" stroke-width="0.1" /><polygon points="54.90333437919617,28.647270798683167 53.95612716674805,28.768634796142578 51.30881071090698,28.937190771102905" stroke="white" stroke-width="0.1" /><polygon points="54.90333437919617,28.647270798683167 54.93680238723755,29.243957996368408 53.95612716674805,28.768634796142578" stroke="white" stroke-width="0.1" /><polygon points="54.93680238723755,29.243957996368408 55.47363758087158,31.137770414352417 53.95612716674805,28.768634796142578" stroke="white" stroke-width="0.1" /><polygon points="55.47363758087158,31.137770414352417 56.15248680114746,32.312265038490295 54.06361222267151,29.55850064754486 54.02036905288696,29.422268271446228 53.99060249328613,29.259556531906128 53.97171378135681,29.08596694469452 53.961098194122314,28.91712188720703 53.95612716674805,28.768634796142578" stroke="white" stroke-width="0.1" /><polygon points="56.15248680114746,32.312265038490295 57.83577561378479,34.98087227344513 57.17719793319702,34.721678495407104 56.45995736122131,34.38417613506317 55.80452084541321,33.960333466529846 55.33139109611511,33.44210684299469 55.00495433807373,32.85850286483765 54.71465587615967,32.254207134246826 54.472553730010986,31.65002465248108 54.290688037872314,31.066787242889404 54.181092977523804,30.52530288696289 54.15055751800537,30.29213547706604 54.12361025810242,30.07788062095642 54.10018563270569,29.883521795272827 54.08019423484802,29.710060358047485 54.06361222267151,29.55850064754486" stroke="white" stroke-width="0.1" /><polygon points="56.15248680114746,32.312265038490295 58.315205574035645,35.16980707645416 57.83577561378479,34.98087227344513" stroke="white" stroke-width="0.1" /><polygon points="56.794631481170654,28.59184741973877 56.155866384506226,28.63103151321411 55.268651247024536,28.647270798683167 54.90333437919617,28.647270798683167" stroke="white" stroke-width="0.1" /><polygon points="56.155866384506226,28.63103151321411 56.18930459022522,28.767478466033936 55.268651247024536,28.647270798683167" stroke="white" stroke-width="0.1" /><polygon points="56.18930459022522,28.767478466033936 56.28500580787659,29.138067364692688 55.268651247024536,28.647270798683167" stroke="white" stroke-width="0.1" /><polygon points="56.28500580787659,29.138067364692688 57.53997564315796,33.23444426059723 56.52580261230469,32.39704668521881 55.86526393890381,31.214383244514465 55.484700202941895,29.9917072057724 55.31039237976074,29.03425395488739 55.268651247024536,28.647270798683167" stroke="white" stroke-width="0.1" /><polygon points="56.18930459022522,28.767478466033936 56.22551441192627,28.89949381351471 56.28500580787659,29.138067364692688" stroke="white" stroke-width="0.1" /><polygon points="56.22551441192627,28.89949381351471 56.25864863395691,29.012206196784973 56.28500580787659,29.138067364692688" stroke="white" stroke-width="0.1" /><polygon points="56.25864863395691,29.012206196784973 56.292176246643066,29.120227694511414 56.29194378852844,29.120993614196777 56.29120469093323,29.12323772907257 56.28986954689026,29.12687659263611 56.28783106803894,29.131850600242615 56.28500580787659,29.138067364692688" stroke="white" stroke-width="0.1" /><polygon points="56.25864863395691,29.012206196784973 56.28281831741333,29.090741276741028 56.292176246643066,29.120227694511414" stroke="white" stroke-width="0.1" /><polygon points="73.39603900909424,28.16474437713623 59.38820242881775,28.545498847961426 59.13785099983215,28.54999601840973 56.794631481170654,28.59184741973877" stroke="white" stroke-width="0.1" /><polygon points="73.39603900909424,28.16474437713623 59.988147020339966,28.534778952598572 59.38820242881775,28.545498847961426" stroke="white" stroke-width="0.1" /><polygon points="73.39603900909424,28.16474437713623 65.2780294418335,28.39897871017456 60.71106195449829,28.521987795829773 59.988147020339966,28.534778952598572" stroke="white" stroke-width="0.1" /><polygon points="65.2780294418335,28.39897871017456 63.61444592475891,28.448215126991272 61.33031249046326,28.51126492023468 60.71106195449829,28.521987795829773" stroke="white" stroke-width="0.1" /><polygon points="63.61444592475891,28.448215126991272 62.22604513168335,28.48946750164032 61.61927580833435,28.506770730018616 61.33031249046326,28.51126492023468" stroke="white" stroke-width="0.1" /><polygon points="73.39603900909424,28.16474437713623 66.71026349067688,28.357726335525513 65.2780294418335,28.39897871017456" stroke="white" stroke-width="0.1" /><polygon points="73.39603900909424,28.16474437713623 72.79835939407349,28.183016180992126 71.36338353157043,28.2265841960907 69.62809562683105,28.27858328819275 68.1295394897461,28.32215428352356 67.404705286026,28.340426087379456 66.71026349067688,28.357726335525513" stroke="white" stroke-width="0.1" /><polygon points="77.742999792099,34.32200253009796 80.58151006698608,32.710832357406616 80.42963147163391,33.49375128746033" stroke="white" stroke-width="0.1" /><polygon points="74.94163513183594,33.58893692493439 74.99223351478577,33.67873728275299 75.20465850830078,34.08694565296173" stroke="white" stroke-width="0.1" /><polygon points="74.38666820526123,30.501115322113037 74.40782189369202,30.730679631233215 74.50928688049316,31.90445899963379" stroke="white" stroke-width="0.1" /><polygon points="73.40579628944397,27.25187838077545 73.40579628944397,27.183151245117188 73.78180027008057,25.13200342655182 73.92030358314514,24.560460448265076 74.26838874816895,28.124797344207764 74.25622940063477,28.561604022979736" stroke="white" stroke-width="0.1" /><polygon points="73.40579628944397,27.183151245117188 73.39637875556946,26.766741275787354 73.48149418830872,26.26570463180542 73.62275719642639,25.71060359477997 73.78180027008057,25.13200342655182" stroke="white" stroke-width="0.1" /><polygon points="59.94806885719299,27.670517563819885 60.57107448577881,27.646884322166443 73.40579628944397,27.25187838077545" stroke="white" stroke-width="0.1" /><polygon points="60.57107448577881,27.646884322166443 60.89555025100708,27.618679404258728 73.36676120758057,27.252867817878723 73.36840033531189,27.25282311439514 73.37320446968079,27.252691984176636 73.38113188743591,27.25248634815216 73.39203357696533,27.252209186553955 73.40579628944397,27.25187838077545" stroke="white" stroke-width="0.1" /><polygon points="60.89555025100708,27.618679404258728 61.0188364982605,27.595043182373047 73.36676120758057,27.252867817878723" stroke="white" stroke-width="0.1" /><polygon points="61.0188364982605,27.595043182373047 61.03829741477966,27.585136890411377 61.25171184539795,27.55782902240753 61.78464889526367,27.492716908454895 62.47603893280029,27.414998412132263 63.16485404968262,27.349889278411865 63.690030574798584,27.32258439064026 64.14111256599426,27.31359302997589 65.26209712028503,27.292156219482422 66.70472025871277,27.26656198501587 68.1206226348877,27.245119214057922 69.16152238845825,27.236133813858032 73.36676120758057,27.252867817878723" stroke="white" stroke-width="0.1" /><polygon points="55.996233224868774,27.743741869926453 56.43038749694824,27.733105421066284 58.92919898033142,27.680429816246033 59.94806885719299,27.670517563819885" stroke="white" stroke-width="0.1" /><polygon points="56.43038749694824,27.733105421066284 56.673020124435425,27.719664573669434 57.03083872795105,27.705606818199158 57.51722455024719,27.692997455596924 58.14554691314697,27.683913707733154 58.92919898033142,27.680429816246033" stroke="white" stroke-width="0.1" /><polygon points="54.542213678359985,24.692918360233307 50.01892447471619,16.3438081741333 50.34698247909546,16.592341661453247 50.7502019405365,16.924594342708588 51.18817090988159,17.305339872837067 51.62045359611511,17.699338495731354 52.006661891937256,18.071354925632477 52.40720510482788,18.552979826927185 52.864569425582886,19.213669002056122 53.318965435028076,19.929972290992737 53.71057391166687,20.578446984291077 53.97960543632507,21.035651862621307" stroke="white" stroke-width="0.1" /><polygon points="54.542213678359985,24.692918360233307 49.653419852256775,16.061826050281525 50.01892447471619,16.3438081741333" stroke="white" stroke-width="0.1" /><polygon points="54.542213678359985,24.692918360233307 47.58880138397217,14.441302418708801 48.06280732154846,14.769463241100311 48.60908389091492,15.199224650859833 49.161383509635925,15.655149519443512 49.653419852256775,16.061826050281525" stroke="white" stroke-width="0.1" /><polygon points="45.20011246204376,12.634634971618652 45.562875270843506,12.908230721950531 46.17099463939667,13.38295042514801 46.63935899734497,13.75759094953537" stroke="white" stroke-width="0.1" /><polygon points="45.562875270843506,12.908230721950531 45.79110145568848,13.07714581489563 46.17099463939667,13.38295042514801" stroke="white" stroke-width="0.1" /><polygon points="42.810508608818054,10.76657846570015 43.10590624809265,10.976594686508179 43.750229477882385,11.482295393943787 44.522103667259216,12.09714412689209" stroke="white" stroke-width="0.1" /><polygon points="39.71375524997711,10.593678802251816 41.82712435722351,10.019862651824951 42.500367760658264,10.5459563434124" stroke="white" stroke-width="0.1" /><polygon points="39.20401334762573,8.136717230081558 39.77830708026886,8.505415171384811 41.82712435722351,10.019862651824951" stroke="white" stroke-width="0.1" /><polygon points="39.77830708026886,8.505415171384811 40.05661904811859,8.64524319767952 40.362489223480225,8.86586531996727 41.033580899238586,9.3919537961483 41.82712435722351,10.019862651824951" stroke="white" stroke-width="0.1" /><polygon points="42.74776875972748,6.216949969530106 39.26628828048706,6.208759546279907 38.88695538043976,6.14459402859211" stroke="white" stroke-width="0.1" /><polygon points="42.74776875972748,6.216949969530106 39.71375524997711,6.524326652288437 39.26628828048706,6.208759546279907" stroke="white" stroke-width="0.1" /><polygon points="42.74776875972748,6.216949969530106 41.00348651409149,7.523415982723236 39.71375524997711,6.524326652288437" stroke="white" stroke-width="0.1" /><polygon points="43.18348467350006,6.845083087682724 42.90183782577515,6.649884581565857 43.08239817619324,6.462348252534866" stroke="white" stroke-width="0.1" /><polygon points="45.791539549827576,8.226144313812256 45.76504826545715,8.250653743743896 42.26672947406769,8.531501144170761 41.00348651409149,7.523415982723236" stroke="white" stroke-width="0.1" /><polygon points="55.461448431015015,15.745329856872559 55.39506673812866,15.770439803600311 42.26672947406769,8.531501144170761" stroke="white" stroke-width="0.1" /><polygon points="55.39506673812866,15.770439803600311 55.32965660095215,15.801133215427399 42.26672947406769,8.531501144170761" stroke="white" stroke-width="0.1" /><polygon points="55.32965660095215,15.801133215427399 55.2584171295166,15.843309462070465 45.22126913070679,10.812585800886154 43.6261773109436,9.602326899766922 42.26672947406769,8.531501144170761" stroke="white" stroke-width="0.1" /><polygon points="55.2584171295166,15.843309462070465 55.19302487373352,15.896502137184143 46.958571672439575,12.135785818099976 45.22126913070679,10.812585800886154" stroke="white" stroke-width="0.1" /><polygon points="55.461448431015015,15.745329856872559 55.442893505096436,15.751685202121735 55.39506673812866,15.770439803600311" stroke="white" stroke-width="0.1" /><polygon points="65.9518301486969,16.993552446365356 56.92551136016846,16.30399227142334 56.489622592926025,16.177883744239807 56.07285499572754,16.048838198184967 55.77913522720337,15.931056439876556 55.59098720550537,15.834543108940125 55.49091100692749,15.769301354885101 55.461448431015015,15.745329856872559" stroke="white" stroke-width="0.1" /><polygon points="65.9518301486969,16.993552446365356 57.26647973060608,16.41477644443512 56.92551136016846,16.30399227142334" stroke="white" stroke-width="0.1" /><polygon points="65.9518301486969,16.993552446365356 57.51140117645264,16.502946615219116 57.26647973060608,16.41477644443512" stroke="white" stroke-width="0.1" /><polygon points="65.9518301486969,16.993552446365356 57.65917897224426,16.561195254325867 57.51140117645264,16.502946615219116" stroke="white" stroke-width="0.1" /><polygon points="65.9518301486969,16.993552446365356 58.86317491531372,16.827629506587982 58.62686038017273,16.7817622423172 58.32601189613342,16.718359291553497 58.02788734436035,16.65334701538086 57.79969096183777,16.602663695812225 57.7086865901947,16.58223122358322 57.65917897224426,16.561195254325867" stroke="white" stroke-width="0.1" /><polygon points="65.9518301486969,16.993552446365356 65.9140944480896,16.993552446365356 59.05875563621521,16.868464648723602 58.86317491531372,16.827629506587982" stroke="white" stroke-width="0.1" /><polygon points="65.9140944480896,16.993552446365356 60.085976123809814,17.07988828420639 59.78868007659912,17.03575998544693 59.51962471008301,16.980497539043427 59.27693843841553,16.922074556350708 59.05875563621521,16.868464648723602" stroke="white" stroke-width="0.1" /><polygon points="65.9140944480896,16.993552446365356 65.64285159111023,17.00628250837326 60.35845875740051,17.121583223342896 60.085976123809814,17.07988828420639" stroke="white" stroke-width="0.1" /><polygon points="65.64285159111023,17.00628250837326 61.76968812942505,17.248709499835968 61.24317646026611,17.237186431884766 60.87431311607361,17.20738559961319 60.60032844543457,17.166462540626526 60.35845875740051,17.121583223342896" stroke="white" stroke-width="0.1" /><polygon points="65.64285159111023,17.00628250837326 65.2051329612732,17.04116314649582 62.18993067741394,17.258445918560028 61.76968812942505,17.248709499835968" stroke="white" stroke-width="0.1" /><polygon points="65.2051329612732,17.04116314649582 64.63060975074768,17.093239724636078 62.33887076377869,17.27713942527771 62.18993067741394,17.258445918560028" stroke="white" stroke-width="0.1" /><polygon points="64.63060975074768,17.093239724636078 63.94890546798706,17.157571017742157 63.18970322608948,17.229193449020386 62.63555884361267,17.278297245502472 62.41968274116516,17.289020121097565 62.33887076377869,17.27713942527771" stroke="white" stroke-width="0.1" /><polygon points="63.65610957145691,18.43651682138443 64.9507224559784,17.696280777454376 65.50564765930176,17.383867502212524" stroke="white" stroke-width="0.1" /><polygon points="63.65610957145691,18.43651682138443 63.67804408073425,18.419097363948822 63.7736976146698,18.35465133190155 63.987839221954346,18.22488158941269 64.3652617931366,18.01152229309082 64.9507224559784,17.696280777454376" stroke="white" stroke-width="0.1" /><polygon points="55.05359172821045,16.152840852737427 56.59230947494507,17.335158586502075 57.43715763092041,18.00563335418701" stroke="white" stroke-width="0.1" /><polygon points="51.314449310302734,15.521162748336792 49.86988604068756,14.43360298871994 46.958571672439575,12.135785818099976 55.19302487373352,15.896502137184143 55.14105558395386,15.960635244846344" stroke="white" stroke-width="0.1" /><polygon points="68.92622709274292,17.101438343524933 67.88719296455383,17.607049643993378 58.39164853096008,20.125362277030945" stroke="white" stroke-width="0.1" /><polygon points="67.88719296455383,17.607049643993378 66.76639318466187,18.314266204833984 65.6229555606842,18.959036469459534 64.61302042007446,19.48695331811905 63.892585039138794,19.843608140945435 63.61775994300842,19.974583387374878 61.59404516220093,20.50836682319641 59.81221795082092,20.472203195095062 58.39164853096008,20.125362277030945" stroke="white" stroke-width="0.1" /><polygon points="73.52571487426758,20.150265097618103 73.41158986091614,19.948092103004456 73.13874959945679,18.902400135993958" stroke="white" stroke-width="0.1" /><polygon points="73.9260196685791,22.60616272687912 73.87006282806396,22.138869762420654 73.81054162979126,21.54388725757599" stroke="white" stroke-width="0.1" /><polygon points="73.87006282806396,22.138869762420654 73.84361028671265,21.957287192344666 73.81054162979126,21.54388725757599" stroke="white" stroke-width="0.1" /><polygon points="78.89091372489929,32.41505026817322 78.87324690818787,31.458303332328796 78.8642168045044,30.751657485961914" stroke="white" stroke-width="0.1" /><polygon points="78.89091372489929,32.41505026817322 78.87658476829529,32.01440870761871 78.87324690818787,31.458303332328796" stroke="white" stroke-width="0.1" /><polygon points="78.89091372489929,32.41505026817322 78.87706160545349,32.23981559276581 78.87658476829529,32.01440870761871" stroke="white" stroke-width="0.1" /><polygon points="80.56557178497314,31.95447027683258 80.58865666389465,32.161617279052734 80.58151006698608,32.710832357406616" stroke="white" stroke-width="0.1" /></svg>