<?xml version="1.0" encoding="utf-8" ?>
<svg baseProfile="full" height="100.0" version="1.1" width="74.76171851158142" xmlns="http://www.w3.org/2000/svg" xmlns:ev="http://www.w3.org/2001/xml-events" xmlns:xlink="http://www.w3.org/1999/xlink"><defs><clipPath /></defs><polygon points="74.76171851158142,89.99999761581421 74.76171851158142,89.99999761581421 74.40283298492432,92.65026450157166 74.40283298492432,92.65026450157166 73.39110970497131,95.03686428070068 73.39110970497131,95.03686428070068 71.82421684265137,97.06249833106995 71.82421684265137,97.06249833106995 69.7985827922821,98.62963557243347 69.7985827922821,98.62963557243347 67.4121081829071,99.64123368263245 67.4121081829071,99.64123368263245 64.76171612739563,100.0 64.76171612739563,100.0 9.999999403953552,100.0 9.999999403953552,100.0 7.349608838558197,99.64098930358887 7.349608838558197,99.64098930358887 4.9626462161540985,98.62951636314392 4.9626462161540985,98.62951636314392 2.9374999925494194,97.06249833106995 2.9374999925494194,97.06249833106995 1.3703612610697746,95.03710865974426 1.3703612610697746,95.03710865974426 0.3588867140933871,92.65050888061523 0.3588867140933871,92.65050888061523 0.0,89.99999761581421 0.0,89.99999761581421 0.0,9.999999403953552 0.0,9.999999403953552 0.3586425678804517,7.349608838558197 0.3586425678804517,7.349608838558197 1.3698730617761612,4.962890595197678 1.3698730617761612,4.962890595197678 2.9374999925494194,2.9374999925494194 2.9374999925494194,2.9374999925494194 4.962890595197678,1.3703612610697746 4.962890595197678,1.3703612610697746 7.349608838558197,0.3588867140933871 7.349608838558197,0.3588867140933871 9.999999403953552,0.0 9.999999403953552,0.0 64.76171612739563,0.0 64.76171612739563,0.0 67.41186380386353,0.3587646409869194 67.41186380386353,0.3587646409869194 69.79833841323853,1.3702392578125 69.79833841323853,1.3702392578125 71.82421684265137,2.9374999925494194 71.82421684265137,2.9374999925494194 73.39135408401489,4.962890595197678 73.39135408401489,4.962890595197678 74.4030773639679,7.349608838558197 74.4030773639679,7.349608838558197 74.76171851158142,9.999999403953552 74.76171851158142,9.999999403953552" stroke="white" stroke-width="0.1" /><polygon points="43.41406226158142,81.44726157188416 43.41406226158142,81.44726157188416 43.74096691608429,81.34801983833313 43.74096691608429,81.34801983833313 43.93090605735779,81.18115067481995 43.93090605735779,81.18115067481995 44.01171803474426,80.97021579742432 44.01171803474426,80.97021579742432 44.01025176048279,80.73791265487671 44.01025176048279,80.73791265487671 43.95458996295929,80.50780892372131 43.95458996295929,80.50780892372131 43.871092796325684,80.3027331829071 43.871092796325684,80.3027331829071 42.58666932582855,77.82726883888245 42.58666932582855,77.82726883888245 41.38403236865997,74.88049268722534 41.38403236865997,74.88049268722534 40.33154249191284,71.87328934669495 40.33154249191284,71.87328934669495 39.49560523033142,69.21630501747131 39.49560523033142,69.21630501747131 38.944822549819946,67.32091903686523 38.944822549819946,67.32091903686523 38.74609172344208,66.59765243530273 38.74609172344208,66.59765243530273 47.76586890220642,70.67797780036926 47.76586890220642,70.67797780036926 54.88622784614563,69.6820080280304 54.88622784614563,69.6820080280304 59.78661775588989,65.04907011985779 59.78661775588989,65.04907011985779 62.14599609375,58.21899175643921 62.14599609375,58.21899175643921 61.644530296325684,50.6317138671875 61.644530296325684,50.6317138671875 57.960933446884155,43.72656047344208 57.960933446884155,43.72656047344208 53.80786061286926,39.00988698005676 53.80786061286926,39.00988698005676 50.67724585533142,35.34594774246216 50.67724585533142,35.34594774246216 48.18701148033142,32.21069276332855 48.18701148033142,32.21069276332855 45.955321192741394,29.078978300094604 45.955321192741394,29.078978300094604 43.60107183456421,25.426512956619263 43.60107183456421,25.426512956619263 40.74218571186066,20.728515088558197 40.74218571186066,20.728515088558197 40.73828160762787,20.726561546325684 40.73828160762787,20.726561546325684 40.193602442741394,19.96130347251892 40.193602442741394,19.96130347251892 39.62670862674713,19.38232332468033 39.62670862674713,19.38232332468033 39.04980421066284,18.970946967601776 39.04980421066284,18.970946967601776 38.47460746765137,18.708251416683197 38.47460746765137,18.708251416683197 37.913572788238525,18.57617199420929 37.913572788238525,18.57617199420929 37.37890422344208,18.555663526058197 37.37890422344208,18.555663526058197 36.84399425983429,18.5760498046875 36.84399425983429,18.5760498046875 36.28271520137787,18.708251416683197 36.28271520137787,18.708251416683197 35.70800721645355,18.970946967601776 35.70800721645355,18.970946967601776 35.130858421325684,19.382445514202118 35.130858421325684,19.382445514202118 34.564208984375,19.9615478515625 34.564208984375,19.9615478515625 34.019529819488525,20.726561546325684 34.019529819488525,20.726561546325684 34.019529819488525,20.728515088558197 34.019529819488525,20.728515088558197 31.158936023712158,25.426390767097473 31.158936023712158,25.426390767097473 28.804442286491394,29.078856110572815 28.804442286491394,29.078856110572815 26.573240756988525,32.21069276332855 26.573240756988525,32.21069276332855 24.083495140075684,35.34606993198395 24.083495140075684,35.34606993198395 20.953369140625,39.01000916957855 20.953369140625,39.01000916957855 16.800780594348907,43.72656047344208 16.800780594348907,43.72656047344208 13.117431104183197,50.63146948814392 13.117431104183197,50.63146948814392 12.615478038787842,58.21887254714966 12.615478038787842,58.21887254714966 14.97509777545929,65.04907011985779 14.97509777545929,65.04907011985779 19.874998927116394,69.6820080280304 19.874998927116394,69.6820080280304 26.99560523033142,70.67822217941284 26.99560523033142,70.67822217941284 36.015623807907104,66.59765243530273 36.015623807907104,66.59765243530273 35.8161598443985,67.32079982757568 35.8161598443985,67.32079982757568 35.264647006988525,69.21618580818176 35.264647006988525,69.21618580818176 34.428220987319946,71.87328934669495 34.428220987319946,71.87328934669495 33.37426781654358,74.88061189651489 33.37426781654358,74.88061189651489 32.17138648033142,77.82751321792603 32.17138648033142,77.82751321792603 30.88671863079071,80.3027331829071 30.88671863079071,80.3027331829071 30.803465843200684,80.50756454467773 30.803465843200684,80.50756454467773 30.748045444488525,80.73779344558716 30.748045444488525,80.73779344558716 30.748045444488525,80.97021579742432 30.748045444488525,80.97021579742432 30.829590559005737,81.18139505386353 30.829590559005737,81.18139505386353 31.020507216453552,81.34814500808716 31.020507216453552,81.34814500808716 31.34765625,81.44726157188416 31.34765625,81.44726157188416 37.37890422344208,81.44726157188416 37.37890422344208,81.44726157188416" stroke="white" stroke-width="0.1" /></svg>