<?xml version="1.0" encoding="utf-8" ?>
<svg baseProfile="full" height="61.23713254928589" version="1.1" width="100.0" xmlns="http://www.w3.org/2000/svg" xmlns:ev="http://www.w3.org/2001/xml-events" xmlns:xlink="http://www.w3.org/1999/xlink"><defs><clipPath /></defs><polygon points="51.38227939605713,48.34599196910858 51.38227939605713,48.34599196910858 60.626161098480225,48.34599196910858 60.626161098480225,48.34599196910858 60.626161098480225,52.313923835754395 60.626161098480225,52.313923835754395 60.52468419075012,52.32299566268921 60.52468419075012,52.32299566268921 60.43059229850769,52.33135223388672 60.43059229850769,52.33135223388672 60.3459894657135,52.338606119155884 60.3459894657135,52.338606119155884 60.27246713638306,52.34427452087402 60.27246713638306,52.34427452087402 60.21212935447693,52.348023653030396 60.21212935447693,52.348023653030396 60.167086124420166,52.34936475753784 60.167086124420166,52.34936475753784 27.313080430030823,52.34936475753784 27.313080430030823,52.34936475753784 21.675948798656464,52.34936475753784 21.675948798656464,52.34936475753784 21.141666173934937,52.334463596343994 21.141666173934937,52.334463596343994 20.76033651828766,52.322918176651 20.76033651828766,52.322918176651 20.506328344345093,52.36455798149109 20.506328344345093,52.36455798149109 20.353375375270844,52.50912308692932 20.353375375270844,52.50912308692932 20.27594894170761,52.80646085739136 20.27594894170761,52.80646085739136 20.24810165166855,53.30632925033569 20.24810165166855,53.30632925033569 20.19936740398407,54.447150230407715 20.19936740398407,54.447150230407715 20.061708986759186,55.55129051208496 20.061708986759186,55.55129051208496 19.782277941703796,56.58692121505737 19.782277941703796,56.58692121505737 19.308121502399445,57.52210021018982 19.308121502399445,57.52210021018982 18.586497008800507,58.32499861717224 18.586497008800507,58.32499861717224 17.564556002616882,58.96371006965637 17.564556002616882,58.96371006965637 16.96656048297882,59.18238162994385 16.96656048297882,59.18238162994385 16.350843012332916,59.31270718574524 16.350843012332916,59.31270718574524 15.722784399986267,59.376370906829834 15.722784399986267,59.376370906829834 15.0875523686409,59.394991397857666 15.0875523686409,59.394991397857666 14.450843632221222,59.390318393707275 14.450843632221222,59.390318393707275 13.817721605300903,59.38396453857422 13.817721605300903,59.38396453857422 4.460759460926056,59.38396453857422 4.460759460926056,59.38396453857422 2.4543248116970062,59.00464057922363 2.4543248116970062,59.00464057922363 1.1550632305443287,57.985919713974 1.1550632305443287,57.985919713974 0.41308016516268253,56.50675296783447 0.41308016516268253,56.50675296783447 0.07784810150042176,54.74596619606018 0.07784810150042176,54.74596619606018 -0.00021097046101203887,52.882540225982666 -0.00021097046101203887,52.882540225982666 0.028691982151940465,51.09536051750183 0.028691982151940465,51.09536051750183 0.3459915518760681,34.12995636463165 0.3459915518760681,34.12995636463165 0.416666641831398,32.86592662334442 0.416666641831398,32.86592662334442 0.5555907264351845,31.6300630569458 0.5555907264351845,31.6300630569458 0.72405063547194,30.41118085384369 0.72405063547194,30.41118085384369 0.8834388107061386,29.198047518730164 0.8834388107061386,29.198047518730164 0.9953586384654045,27.97948122024536 0.9953586384654045,27.97948122024536 1.0210970416665077,26.744303107261658 1.0210970416665077,26.744303107261658 0.9805906563997269,26.097363233566284 0.9805906563997269,26.097363233566284 0.92890290543437,25.51634907722473 0.92890290543437,25.51634907722473 0.919831171631813,24.993038177490234 0.919831171631813,24.993038177490234 1.007383968681097,24.519039690494537 1.007383968681097,24.519039690494537 1.245991513133049,24.086181819438934 1.245991513133049,24.086181819438934 1.6894513741135597,23.68607521057129 1.6894513741135597,23.68607521057129 2.2012658417224884,23.36207777261734 2.2012658417224884,23.36207777261734 2.779535762965679,23.023205995559692 2.779535762965679,23.023205995559692 3.3763714134693146,22.66223579645157 3.3763714134693146,22.66223579645157 3.9431434124708176,22.271835803985596 3.9431434124708176,22.271835803985596 4.432067275047302,21.844804286956787 4.432067275047302,21.844804286956787 4.794936627149582,21.373839676380157 4.794936627149582,21.373839676380157 2.1995780989527702,20.695622265338898 2.1995780989527702,20.695622265338898 0.6392404902726412,18.92969310283661 0.6392404902726412,18.92969310283661 0.11603375896811485,16.616033017635345 0.11603375896811485,16.616033017635345 0.6321730092167854,14.294461905956268 0.6321730092167854,14.294461905956268 2.1899789571762085,12.504930794239044 2.1899789571762085,12.504930794239044 4.791561141610146,11.7873415350914 4.791561141610146,11.7873415350914 5.620675161480904,11.773575842380524 5.620675161480904,11.773575842380524 6.46529495716095,11.755906790494919 6.46529495716095,11.755906790494919 7.312658429145813,11.767299473285675 7.312658429145813,11.767299473285675 8.149472624063492,11.840717494487762 8.149472624063492,11.840717494487762 8.962974697351456,12.009124457836151 8.962974697351456,12.009124457836151 9.740084409713745,12.30548471212387 9.740084409713745,12.30548471212387 10.412447154521942,11.098628491163254 10.412447154521942,11.098628491163254 11.077848076820374,9.887789934873581 11.077848076820374,9.887789934873581 11.740083992481232,8.674894273281097 11.740083992481232,8.674894273281097 12.40200400352478,7.46181458234787 12.40200400352478,7.46181458234787 13.067616522312164,6.2505804002285 13.067616522312164,6.2505804002285 13.740083575248718,5.043037980794907 13.740083575248718,5.043037980794907 15.395252406597137,3.0761338770389557 15.395252406597137,3.0761338770389557 17.57236272096634,1.8191587179899216 17.57236272096634,1.8191587179899216 20.09957730770111,1.1035865172743797 20.09957730770111,1.1035865172743797 22.80443012714386,0.7608518004417419 22.80443012714386,0.7608518004417419 25.514978170394897,0.6224419921636581 25.514978170394897,0.6224419921636581 28.05907130241394,0.5198311991989613 28.05907130241394,0.5198311991989613 30.291032791137695,0.3854166716337204 30.291032791137695,0.3854166716337204 32.53185749053955,0.25184599217027426 32.53185749053955,0.25184599217027426 34.77763533592224,0.13375526759773493 34.77763533592224,0.13375526759773493 37.02394366264343,0.04574103222694248 37.02394366264343,0.04574103222694248 39.2674058675766,0.0024789029339444824 39.2674058675766,0.0024789029339444824 41.503795981407166,0.01856540038716048 41.503795981407166,0.01856540038716048 44.35696005821228,0.08950422052294016 44.35696005821228,0.08950422052294016 47.210970520973206,0.17696466529741883 47.210970520973206,0.17696466529741883 50.064557790756226,0.2879746723920107 50.064557790756226,0.2879746723920107 52.915823459625244,0.4294963087886572 52.915823459625244,0.4294963087886572 55.764031410217285,0.6085179280489683 55.764031410217285,0.6085179280489683 58.60759615898132,0.8320675231516361 58.60759615898132,0.8320675231516361 60.18333435058594,0.975791085511446 60.18333435058594,0.975791085511446 61.67299747467041,1.1526107788085938 61.67299747467041,1.1526107788085938 63.07362914085388,1.4037974178791046 63.07362914085388,1.4037974178791046 64.38196301460266,1.770569570362568 64.38196301460266,1.770569570362568 65.5953586101532,2.294250950217247 65.5953586101532,2.294250950217247 66.7105495929718,3.0160337686538696 66.7105495929718,3.0160337686538696 66.18312001228333,3.28030064702034 66.18312001228333,3.28030064702034 65.67046046257019,3.571809083223343 65.67046046257019,3.571809083223343 65.17447233200073,3.8905061781406403 65.17447233200073,3.8905061781406403 64.69662189483643,4.236339777708054 64.69662189483643,4.236339777708054 64.23934698104858,4.609282687306404 64.23934698104858,4.609282687306404 63.80422115325928,5.009282752871513 63.80422115325928,5.009282752871513 63.603585958480835,5.210021138191223 63.603585958480835,5.210021138191223 63.40981125831604,5.416982993483543 63.40981125831604,5.416982993483543 63.222575187683105,5.629535764455795 63.222575187683105,5.629535764455795 63.04124593734741,5.847151950001717 63.04124593734741,5.847151950001717 62.865716218948364,6.069251149892807 62.865716218948364,6.069251149892807 62.69536018371582,6.295358389616013 62.69536018371582,6.295358389616013 62.57932186126709,6.25743642449379 62.57932186126709,6.25743642449379 62.460124492645264,6.221466138958931 62.460124492645264,6.221466138958931 62.33733892440796,6.187763437628746 62.33733892440796,6.187763437628746 62.210339307785034,6.1565399169921875 62.210339307785034,6.1565399169921875 62.078797817230225,6.128217279911041 62.078797817230225,6.128217279911041 61.94261312484741,6.102953478693962 61.94261312484741,6.102953478693962 58.54957699775696,5.632014572620392 58.54957699775696,5.632014572620392 55.12077808380127,5.316640064120293 55.12077808380127,5.316640064120293 51.67088508605957,5.119409039616585 51.67088508605957,5.119409039616585 48.21413457393646,5.002900585532188 48.21413457393646,5.002900585532188 44.76497769355774,4.929694160819054 44.76497769355774,4.929694160819054 41.338396072387695,4.862447082996368 41.338396072387695,4.862447082996368 38.32637071609497,4.839952290058136 38.32637071609497,4.839952290058136 35.29578149318695,4.901265725493431 35.29578149318695,4.901265725493431 32.257384061813354,5.034599080681801 32.257384061813354,5.034599080681801 29.221728444099426,5.228111892938614 29.221728444099426,5.228111892938614 26.199576258659363,5.470041930675507 26.199576258659363,5.470041930675507 23.20168763399124,5.748523026704788 23.20168763399124,5.748523026704788 22.46202528476715,5.814477801322937 22.46202528476715,5.814477801322937 21.697784960269928,5.8817509561777115 21.697784960269928,5.8817509561777115 20.924894511699677,5.967088416218758 20.924894511699677,5.967088416218758 20.15843838453293,6.08728900551796 20.15843838453293,6.08728900551796 19.414767622947693,6.259229779243469 19.414767622947693,6.259229779243469 18.708860874176025,6.499578058719635 18.708860874176025,6.499578058719635 18.217721581459045,6.858939677476883 18.217721581459045,6.858939677476883 17.76772141456604,7.452056556940079 17.76772141456604,7.452056556940079 17.360758781433105,8.181856572628021 17.360758781433105,8.181856572628021 16.997678577899933,8.951318264007568 16.997678577899933,8.951318264007568 16.680273413658142,9.663396328687668 16.680273413658142,9.663396328687668 16.41012579202652,10.221096873283386 16.41012579202652,10.221096873283386 15.604957938194275,11.684440821409225 15.604957938194275,11.684440821409225 14.802320301532745,13.149234652519226 14.802320301532745,13.149234652519226 14.001265168190002,14.614978432655334 14.001265168190002,14.614978432655334 13.200949132442474,16.0811185836792 13.200949132442474,16.0811185836792 12.40084394812584,17.547205090522766 12.40084394812584,17.547205090522766 11.59999966621399,19.012658298015594 11.59999966621399,19.012658298015594 19.2227840423584,17.443011701107025 19.2227840423584,17.443011701107025 27.033650875091553,16.428323090076447 27.033650875091553,16.428323090076447 34.95316505432129,15.917721390724182 34.95316505432129,15.917721390724182 42.901477217674255,15.860284864902496 42.901477217674255,15.860284864902496 50.79936385154724,16.205088794231415 50.79936385154724,16.205088794231415 58.56708884239197,16.9012650847435 58.56708884239197,16.9012650847435 58.9105486869812,16.940559446811676 58.9105486869812,16.940559446811676 59.25358533859253,16.98206663131714 59.25358533859253,16.98206663131714 59.59662199020386,17.025315761566162 59.59662199020386,17.025315761566162 59.93955731391907,17.06961989402771 59.93955731391907,17.06961989402771 60.28270125389099,17.114557325839996 60.28270125389099,17.114557325839996 60.626161098480225,17.159493267536163 60.626161098480225,17.159493267536163 60.626161098480225,22.1113920211792 60.626161098480225,22.1113920211792 51.38227939605713,22.1113920211792 51.38227939605713,22.1113920211792 50.01139044761658,22.201107442378998 50.01139044761658,22.201107442378998 48.667508363723755,22.46500551700592 48.667508363723755,22.46500551700592 47.37004041671753,22.895358502864838 47.37004041671753,22.895358502864838 46.137869358062744,23.484335839748383 46.137869358062744,23.484335839748383 44.99071538448334,24.224208295345306 44.99071538448334,24.224208295345306 43.94767880439758,25.10717213153839 43.94767880439758,25.10717213153839 43.788185715675354,25.267720222473145 43.788185715675354,25.267720222473145 43.63333284854889,25.431856513023376 43.63333284854889,25.431856513023376 43.48248839378357,25.599154829978943 43.48248839378357,25.599154829978943 43.33544373512268,25.769251585006714 43.33544373512268,25.769251585006714 43.19198131561279,25.941824913024902 43.19198131561279,25.941824913024902 43.051475286483765,26.116454601287842 43.051475286483765,26.116454601287842 27.880167961120605,26.116454601287842 27.880167961120605,26.116454601287842 26.720675826072693,26.139241456985474 26.720675826072693,26.139241456985474 25.63164532184601,26.252582669258118 25.63164532184601,26.252582669258118 24.637974798679352,26.524049043655396 24.637974798679352,26.524049043655396 23.764556646347046,27.021095156669617 23.764556646347046,27.021095156669617 23.036707937717438,27.811235189437866 23.036707937717438,27.811235189437866 22.47932404279709,28.962025046348572 22.47932404279709,28.962025046348572 22.200210392475128,29.764503240585327 22.200210392475128,29.764503240585327 21.929746866226196,30.683043599128723 21.929746866226196,30.683043599128723 21.794092655181885,31.600844860076904 21.794092655181885,31.600844860076904 21.919408440589905,32.40102827548981 21.919408440589905,32.40102827548981 22.431962192058563,32.96685218811035 22.431962192058563,32.96685218811035 23.458227515220642,33.181434869766235 23.458227515220642,33.181434869766235 23.64240437746048,33.203110098838806 23.64240437746048,33.203110098838806 23.834598064422607,33.20917785167694 23.834598064422607,33.20917785167694 24.031223356723785,33.20485055446625 24.031223356723785,33.20485055446625 24.22827035188675,33.19527804851532 24.22827035188675,33.19527804851532 24.42215085029602,33.18575918674469 24.42215085029602,33.18575918674469 24.609282612800598,33.181434869766235 24.609282612800598,33.181434869766235 40.745991468429565,33.181434869766235 40.745991468429565,33.181434869766235 40.745991468429565,37.79746890068054 40.745991468429565,37.79746890068054 40.84124267101288,39.195066690444946 40.84124267101288,39.195066690444946 41.121622920036316,40.56139290332794 41.121622920036316,40.56139290332794 41.578903794288635,41.877004504203796 41.578903794288635,41.877004504203796 42.204850912094116,43.122413754463196 42.204850912094116,43.122413754463196 42.991456389427185,44.27818953990936 42.991456389427185,44.27818953990936 43.93080174922943,45.32489478588104 43.93080174922943,45.32489478588104 44.98259425163269,46.21732532978058 44.98259425163269,46.21732532978058 46.1356520652771,46.96402847766876 46.1356520652771,46.96402847766876 47.371095418930054,47.55759537220001 47.371095418930054,47.55759537220001 48.669829964637756,47.99066483974457 48.669829964637756,47.99066483974457 50.01307725906372,48.255905508995056 50.01307725906372,48.255905508995056" stroke="white" stroke-width="0.1" /><polygon points="16.653163731098175,34.3898743391037 16.653163731098175,34.3898743391037 18.20569634437561,31.390821933746338 18.20569634437561,31.390821933746338 17.873840034008026,28.43288481235504 17.873840034008026,28.43288481235504 16.162869334220886,25.97489356994629 16.162869334220886,25.97489356994629 13.578058779239655,24.475684762001038 13.578058779239655,24.475684762001038 10.62510535120964,24.394091963768005 10.62510535120964,24.394091963768005 7.809282839298248,26.189029216766357 7.809282839298248,26.189029216766357 6.285548210144043,29.219383001327515 6.285548210144043,29.219383001327515 6.606540083885193,32.17979967594147 6.606540083885193,32.17979967594147 8.28818529844284,34.62362885475159 8.28818529844284,34.62362885475159 10.845780372619629,36.1043244600296 10.845780372619629,36.1043244600296 13.795675337314606,36.17526292800903 13.795675337314606,36.17526292800903" stroke="white" stroke-width="0.1" /><polygon points="96.76961898803711,40.938395261764526 96.76961898803711,40.938395261764526 80.1181435585022,40.938395261764526 80.1181435585022,40.938395261764526 80.1181435585022,58.09282660484314 80.1181435585022,58.09282660484314 80.08976578712463,58.5050106048584 80.08976578712463,58.5050106048584 80.00674843788147,58.90767574310303 80.00674843788147,58.90767574310303 79.87151741981506,59.295570850372314 79.87151741981506,59.295570850372314 79.68586087226868,59.66331958770752 79.68586087226868,59.66331958770752 79.45231795310974,60.00567078590393 79.45231795310974,60.00567078590393 79.17299270629883,60.31729578971863 79.17299270629883,60.31729578971863 78.85474562644958,60.588788986206055 78.85474562644958,60.588788986206055 78.50390076637268,60.81606149673462 78.50390076637268,60.81606149673462 78.12615633010864,60.9968364238739 78.12615633010864,60.9968364238739 77.72710919380188,61.12879514694214 77.72710919380188,61.12879514694214 77.31286883354187,61.209648847579956 77.31286883354187,61.209648847579956 76.88944935798645,61.23713254928589 76.88944935798645,61.23713254928589 71.25738263130188,61.23713254928589 71.25738263130188,61.23713254928589 70.8358645439148,61.209648847579956 70.8358645439148,61.209648847579956 70.42310237884521,61.12879514694214 70.42310237884521,61.12879514694214 70.0251042842865,60.9968364238739 70.0251042842865,60.9968364238739 69.64757442474365,60.81606149673462 69.64757442474365,60.81606149673462 69.29693818092346,60.588788986206055 69.29693818092346,60.588788986206055 68.97889971733093,60.31729578971863 68.97889971733093,60.31729578971863 68.6989426612854,60.00564098358154 68.6989426612854,60.00564098358154 68.46508383750916,59.66328978538513 68.46508383750916,59.66328978538513 68.27974319458008,59.295570850372314 68.27974319458008,59.295570850372314 68.14451217651367,58.90769958496094 68.14451217651367,58.90769958496094 68.06181073188782,58.50503444671631 68.06181073188782,58.50503444671631 68.03375482559204,58.09282660484314 68.03375482559204,58.09282660484314 68.03375482559204,47.22869098186493 68.03375482559204,47.22869098186493 68.03375482559204,40.938395261764526 68.03375482559204,40.938395261764526 51.38227939605713,40.938395261764526 51.38227939605713,40.938395261764526 50.959283113479614,40.91067910194397 50.959283113479614,40.91067910194397 50.545358657836914,40.82932472229004 50.545358657836914,40.82932472229004 50.14662146568298,40.6968355178833 50.14662146568298,40.6968355178833 49.76835250854492,40.51582217216492 49.76835250854492,40.51582217216492 49.41645562648773,40.28887152671814 49.41645562648773,40.28887152671814 49.09704625606537,40.01856446266174 49.09704625606537,40.01856446266174 48.81877601146698,39.70870077610016 48.81877601146698,39.70870077610016 48.585548996925354,39.36693072319031 48.585548996925354,39.36693072319031 48.39978814125061,38.999155163764954 48.39978814125061,38.999155163764954 48.26371371746063,38.61110210418701 48.26371371746063,38.61110210418701 48.18038046360016,38.208597898483276 48.18038046360016,38.208597898483276 48.15189838409424,37.79746890068054 48.15189838409424,37.79746890068054 48.15189838409424,32.658228278160095 48.15189838409424,32.658228278160095 48.180168867111206,32.2444885969162 48.180168867111206,32.2444885969162 48.26360642910004,31.84066414833069 48.26360642910004,31.84066414833069 48.39978814125061,31.452110409736633 48.39978814125061,31.452110409736633 48.58565330505371,31.084230542182922 48.58565330505371,31.084230542182922 48.81898760795593,30.742430686950684 48.81898760795593,30.742430686950684 49.09704625606537,30.432066321372986 49.09704625606537,30.432066321372986 49.416348338127136,30.162236094474792 49.416348338127136,30.162236094474792 49.76803660392761,29.936549067497253 49.76803660392761,29.936549067497253 50.14662146568298,29.757171869277954 50.14662146568298,29.757171869277954 50.54556727409363,29.6263188123703 50.54556727409363,29.6263188123703 50.95949172973633,29.54620122909546 50.95949172973633,29.54620122909546 51.38227939605713,29.518985748291016 51.38227939605713,29.518985748291016 68.03375482559204,29.518985748291016 68.03375482559204,29.518985748291016 68.03375482559204,12.531645596027374 68.03375482559204,12.531645596027374 68.0616021156311,12.119092792272568 68.0616021156311,12.119092792272568 68.14441084861755,11.715690791606903 68.14441084861755,11.715690791606903 68.27974319458008,11.327215284109116 68.27974319458008,11.327215284109116 68.46529245376587,10.959388315677643 68.46529245376587,10.959388315677643 68.69915723800659,10.618037730455399 68.69915723800659,10.618037730455399 68.97889971733093,10.30886024236679 68.97889971733093,10.30886024236679 69.29672956466675,10.037341713905334 69.29672956466675,10.037341713905334 69.64757442474365,9.810073673725128 69.64757442474365,9.810073673725128 70.0251042842865,9.629324823617935 70.0251042842865,9.629324823617935 70.42320370674133,9.4973623752594 70.42320370674133,9.4973623752594 70.83607316017151,9.416507929563522 70.83607316017151,9.416507929563522 71.25738263130188,9.389029443264008 71.25738263130188,9.389029443264008 74.32911396026611,9.389029443264008 74.32911396026611,9.389029443264008 76.88944935798645,9.389029443264008 76.88944935798645,9.389029443264008 77.31276154518127,9.416719526052475 77.31276154518127,9.416719526052475 77.72689461708069,9.498101472854614 77.72689461708069,9.498101472854614 78.12615633010864,9.630590677261353 78.12615633010864,9.630590677261353 78.50400805473328,9.811603277921677 78.50400805473328,9.811603277921677 78.8550615310669,10.038554668426514 78.8550615310669,10.038554668426514 79.17299270629883,10.30886024236679 79.17299270629883,10.30886024236679 79.45200204849243,10.618037730455399 79.45200204849243,10.618037730455399 79.68565225601196,10.959361493587494 79.68565225601196,10.959361493587494 79.87151741981506,11.327215284109116 79.87151741981506,11.327215284109116 80.00696301460266,11.715716868638992 80.00696301460266,11.715716868638992 80.08998036384583,12.119118869304657 80.08998036384583,12.119118869304657 80.1181435585022,12.531645596027374 80.1181435585022,12.531645596027374 80.1181435585022,23.33502024412155 80.1181435585022,23.33502024412155 80.1181435585022,29.518985748291016 80.1181435585022,29.518985748291016 82.34599232673645,29.518985748291016 82.34599232673645,29.518985748291016 96.76961898803711,29.518985748291016 96.76961898803711,29.518985748291016 97.19208478927612,29.54620122909546 97.19208478927612,29.54620122909546 97.6055920124054,29.626423120498657 97.6055920124054,29.626423120498657 98.00463914871216,29.75759506225586 98.00463914871216,29.75759506225586 98.3828067779541,29.93755340576172 98.3828067779541,29.93755340576172 98.73480796813965,30.164214968681335 98.73480796813965,30.164214968681335 99.05484914779663,30.43544292449951 99.05484914779663,30.43544292449951 99.33280348777771,30.74435591697693 99.33280348777771,30.74435591697693 99.56603050231934,31.08523190021515 99.56603050231934,31.08523190021515 99.75211024284363,31.4525306224823 99.75211024284363,31.4525306224823 99.88808035850525,31.840795278549194 99.88808035850525,31.840795278549194 99.97151494026184,32.24451541900635 99.97151494026184,32.24451541900635 100.0,32.658228278160095 100.0,32.658228278160095 100.0,37.79746890068054 100.0,37.79746890068054 99.97151494026184,38.208597898483276 99.97151494026184,38.208597898483276 99.88797307014465,38.61107528209686 99.88797307014465,38.61107528209686 99.75211024284363,38.999155163764954 99.75211024284363,38.999155163764954 99.56613779067993,39.36698138713837 99.56613779067993,39.36698138713837 99.3329107761383,39.70870077610016 99.3329107761383,39.70870077610016 99.05484914779663,40.01856446266174 99.05484914779663,40.01856446266174 98.73470067977905,40.28887152671814 98.73470067977905,40.28887152671814 98.38259220123291,40.51582217216492 98.38259220123291,40.51582217216492 98.00463914871216,40.6968355178833 98.00463914871216,40.6968355178833 97.6059079170227,40.82932472229004 97.6059079170227,40.82932472229004 97.19240069389343,40.91070592403412 97.19240069389343,40.91070592403412" stroke="white" stroke-width="0.1" /></svg>