<?xml version="1.0" encoding="utf-8" ?>
<svg baseProfile="full" height="86.39723062515259" version="1.1" width="99.99454021453857" xmlns="http://www.w3.org/2000/svg" xmlns:ev="http://www.w3.org/2001/xml-events" xmlns:xlink="http://www.w3.org/1999/xlink"><defs><clipPath /></defs><polygon points="88.55776190757751,7.685411721467972 88.55776190757751,7.685411721467972 88.55776190757751,24.740667641162872 88.55776190757751,24.740667641162872 87.62759566307068,24.359486997127533 87.62759566307068,24.359486997127533 86.67445182800293,24.024657905101776 86.67445182800293,24.024657905101776 85.699462890625,23.73780608177185 85.699462890625,23.73780608177185 84.70375537872314,23.500531911849976 84.70375537872314,23.500531911849976 83.6884617805481,23.31448495388031 83.6884617805481,23.31448495388031 82.65471458435059,23.181287944316864 82.65471458435059,23.181287944316864 82.31138586997986,23.149506747722626 82.31138586997986,23.149506747722626 81.96730613708496,23.123517632484436 81.96730613708496,23.123517632484436 81.62322640419006,23.103319108486176 81.62322640419006,23.103319108486176 81.27942681312561,23.088887333869934 81.27942681312561,23.088887333869934 80.93656897544861,23.08020144701004 80.93656897544861,23.08020144701004 80.59512376785278,23.077328503131866 80.59512376785278,23.077328503131866 78.40313911437988,23.202192783355713 78.40313911437988,23.202192783355713 76.27245783805847,23.569531738758087 76.27245783805847,23.569531738758087 74.21805262565613,24.16851818561554 74.21805262565613,24.16851818561554 72.25432395935059,24.98820573091507 72.25432395935059,24.98820573091507 70.39605975151062,26.01774036884308 70.39605975151062,26.01774036884308 68.65795254707336,27.246224880218506 68.65795254707336,27.246224880218506 67.38417744636536,25.944480299949646 67.38417744636536,25.944480299949646 65.93920588493347,24.831773340702057 65.93920588493347,24.831773340702057 64.34366703033447,23.92933815717697 64.34366703033447,23.92933815717697 62.617987394332886,23.258408904075623 62.617987394332886,23.258408904075623 60.782796144485474,22.840267419815063 60.782796144485474,22.840267419815063 58.85871648788452,22.696146368980408 58.85871648788452,22.696146368980408 46.90195620059967,22.696146368980408 46.90195620059967,22.696146368980408 46.90195620059967,7.685411721467972 46.90195620059967,7.685411721467972 47.177720069885254,5.648164823651314 47.177720069885254,5.648164823651314 47.95524477958679,3.8139384239912033 47.95524477958679,3.8139384239912033 49.15985465049744,2.2573355585336685 49.15985465049744,2.2573355585336685 50.71660280227661,1.0530292987823486 50.71660280227661,1.0530292987823486 52.55066156387329,0.27571660466492176 52.55066156387329,0.27571660466492176 54.587364196777344,0.0 54.587364196777344,0.0 80.8723509311676,0.0 80.8723509311676,0.0 82.90896415710449,0.27566952630877495 82.90896415710449,0.27566952630877495 84.74311828613281,1.0530292987823486 84.74311828613281,1.0530292987823486 86.29986047744751,2.2573355585336685 86.29986047744751,2.2573355585336685 87.50442862510681,3.8139384239912033 87.50442862510681,3.8139384239912033 88.28195333480835,5.648188292980194 88.28195333480835,5.648188292980194" stroke="white" stroke-width="0.1" /><polygon points="0.0,62.98391819000244 0.0,62.98391819000244 0.1563147408887744,61.82885766029358 0.1563147408887744,61.82885766029358 0.5969622172415257,60.788893699645996 0.5969622172415257,60.788893699645996 1.2797092087566853,59.90639925003052 1.2797092087566853,59.90639925003052 2.162134274840355,59.22365188598633 2.162134274840355,59.22365188598633 3.2020509243011475,58.782958984375 3.2020509243011475,58.782958984375 4.357226192951202,58.62669348716736 4.357226192951202,58.62669348716736 37.29858100414276,58.62669348716736 37.29858100414276,58.62669348716736 38.45370709896088,58.78298282623291 38.45370709896088,58.78298282623291 39.49357867240906,59.22365188598633 39.49357867240906,59.22365188598633 40.376096963882446,59.90639925003052 40.376096963882446,59.90639925003052 41.058704257011414,60.788869857788086 41.058704257011414,60.788869857788086 41.49949252605438,61.82880997657776 41.49949252605438,61.82880997657776 41.655805706977844,62.98391819000244 41.655805706977844,62.98391819000244 41.655805706977844,82.03999996185303 41.655805706977844,82.03999996185303 41.49949252605438,83.19456577301025 41.49949252605438,83.19456577301025 41.058844327926636,84.23433899879456 41.058844327926636,84.23433899879456 40.376096963882446,85.11695265769958 40.376096963882446,85.11695265769958 39.49353098869324,85.79991459846497 39.49353098869324,85.79991459846497 38.453567028045654,86.24082207679749 38.453567028045654,86.24082207679749 37.29858100414276,86.39723062515259 37.29858100414276,86.39723062515259 29.699048399925232,86.39723062515259 29.699048399925232,86.39723062515259 4.357226192951202,86.39723062515259 4.357226192951202,86.39723062515259 3.202192112803459,86.2408459186554 3.202192112803459,86.2408459186554 2.162228338420391,85.79993844032288 2.162228338420391,85.79993844032288 1.2797092087566853,85.11695265769958 1.2797092087566853,85.11695265769958 0.596868060529232,84.23431515693665 0.596868060529232,84.23431515693665 0.15626766253262758,83.19454193115234 0.15626766253262758,83.19454193115234 0.0,82.03999996185303 0.0,82.03999996185303" stroke="white" stroke-width="0.1" /><polygon points="58.85871648788452,29.31334674358368 58.85871648788452,29.31334674358368 59.95056629180908,29.410406947135925 59.95056629180908,29.410406947135925 60.979604721069336,29.690054059028625 60.979604721069336,29.690054059028625 61.930203437805176,30.135032534599304 61.930203437805176,30.135032534599304 62.78645396232605,30.727994441986084 62.78645396232605,30.727994441986084 63.532716035842896,31.451749801635742 63.532716035842896,31.451749801635742 64.15307521820068,32.28897452354431 64.15307521820068,32.28897452354431 63.81370425224304,32.8473299741745 63.81370425224304,32.8473299741745 63.48949074745178,33.41818451881409 63.48949074745178,33.41818451881409 63.18128705024719,34.001657366752625 63.18128705024719,34.001657366752625 62.890130281448364,34.597912430763245 62.890130281448364,34.597912430763245 62.617045640945435,35.20716428756714 62.617045640945435,35.20716428756714 62.36317753791809,35.82959771156311 62.36317753791809,35.82959771156311 61.594319343566895,38.21236193180084 61.594319343566895,38.21236193180084 61.12414598464966,40.60567319393158 61.12414598464966,40.60567319393158 60.948437452316284,42.98919141292572 60.948437452316284,42.98919141292572 61.06237769126892,45.34257352352142 61.06237769126892,45.34257352352142 61.461639404296875,47.645485401153564 61.461639404296875,47.645485401153564 62.141698598861694,49.8775839805603 62.141698598861694,49.8775839805603 61.20343804359436,50.723451375961304 61.20343804359436,50.723451375961304 60.33654808998108,51.66451930999756 60.33654808998108,51.66451930999756 59.54329967498779,52.69935131072998 59.54329967498779,52.69935131072998 58.82575511932373,53.82643938064575 58.82575511932373,53.82643938064575 58.18599462509155,55.044353008270264 58.18599462509155,55.044353008270264 57.62627720832825,56.35164976119995 57.62627720832825,56.35164976119995 56.93218111991882,58.49789381027222 56.93218111991882,58.49789381027222 56.437623500823975,60.703957080841064 56.437623500823975,60.703957080841064 56.10399842262268,62.926286458969116 56.10399842262268,62.926286458969116 55.89250326156616,65.12121558189392 55.89250326156616,65.12121558189392 55.76443672180176,67.24520921707153 55.76443672180176,67.24520921707153 55.68119287490845,69.25458908081055 55.68119287490845,69.25458908081055 55.66311478614807,69.7343111038208 55.66311478614807,69.7343111038208 55.64465522766113,70.20549178123474 55.64465522766113,70.20549178123474 55.62506914138794,70.66725492477417 55.62506914138794,70.66725492477417 55.603694915771484,71.11856937408447 55.603694915771484,71.11856937408447 55.57987093925476,71.55851125717163 55.57987093925476,71.55851125717163 55.55312633514404,71.9861388206482 55.55312633514404,71.9861388206482 55.531567335128784,72.27277755737305 55.531567335128784,72.27277755737305 55.50642013549805,72.56163358688354 55.50642013549805,72.56163358688354 55.478549003601074,72.85265326499939 55.478549003601074,72.85265326499939 55.44860363006592,73.14578890800476 55.44860363006592,73.14578890800476 55.417436361312866,73.44104647636414 55.417436361312866,73.44104647636414 55.38589358329773,73.73837232589722 55.38589358329773,73.73837232589722 55.25801181793213,74.98860359191895 55.25801181793213,74.98860359191895 55.152738094329834,76.32144689559937 55.152738094329834,76.32144689559937 55.1030158996582,77.72157192230225 55.1030158996582,77.72157192230225 55.141812562942505,79.17364835739136 55.141812562942505,79.17364835739136 55.30245900154114,80.66245317459106 55.30245900154114,80.66245317459106 55.61791658401489,82.1725845336914 55.61791658401489,82.1725845336914 55.84598183631897,82.94064998626709 55.84598183631897,82.94064998626709 56.11209273338318,83.68368744850159 56.11209273338318,83.68368744850159 56.41530752182007,84.4012975692749 56.41530752182007,84.4012975692749 56.754302978515625,85.09301543235779 56.754302978515625,85.09301543235779 57.128143310546875,85.75845956802368 57.128143310546875,85.75845956802368 57.53587484359741,86.39723062515259 57.53587484359741,86.39723062515259 54.587364196777344,86.39723062515259 54.587364196777344,86.39723062515259 46.14410996437073,86.39723062515259 46.14410996437073,86.39723062515259 46.44675850868225,85.72587370872498 46.44675850868225,85.72587370872498 46.70044183731079,85.0298523902893 46.70044183731079,85.0298523902893 46.9025194644928,84.31127667427063 46.9025194644928,84.31127667427063 47.050124406814575,83.57207775115967 47.050124406814575,83.57207775115967 47.140806913375854,82.81432390213013 47.140806913375854,82.81432390213013 47.17164635658264,82.03999996185303 47.17164635658264,82.03999996185303 47.17164635658264,62.98391819000244 47.17164635658264,62.98391819000244 46.818336844444275,60.3618323802948 46.818336844444275,60.3618323802948 45.821595191955566,58.003830909729004 45.821595191955566,58.003830909729004 44.27643120288849,56.0047447681427 44.27643120288849,56.0047447681427 42.27753281593323,54.45939898490906 42.27753281593323,54.45939898490906 39.919960498809814,53.46265435218811 39.919960498809814,53.46265435218811 37.29858100414276,53.10934782028198 37.29858100414276,53.10934782028198 23.450978100299835,53.10934782028198 23.450978100299835,53.10934782028198 23.450978100299835,35.55990755558014 23.450978100299835,35.55990755558014 23.675185441970825,33.90443027019501 23.675185441970825,33.90443027019501 24.30708259344101,32.413697242736816 24.30708259344101,32.413697242736816 25.28626322746277,31.14844262599945 25.28626322746277,31.14844262599945 26.551705598831177,30.169427394866943 26.551705598831177,30.169427394866943 28.04286479949951,29.537484049797058 28.04286479949951,29.537484049797058 29.699048399925232,29.31334674358368 29.699048399925232,29.31334674358368" stroke="white" stroke-width="0.1" /><polygon points="98.80748987197876,61.37481927871704 98.80748987197876,61.37481927871704 98.93065690994263,63.16031217575073 98.93065690994263,63.16031217575073 99.05344843864441,64.9459958076477 99.05344843864441,64.9459958076477 99.17623996734619,66.73189401626587 99.17623996734619,66.73189401626587 99.29903149604797,68.51785778999329 99.29903149604797,68.51785778999329 99.4227647781372,70.30396461486816 99.4227647781372,70.30396461486816 99.54725503921509,72.09009528160095 99.54725503921509,72.09009528160095 99.67974424362183,73.55743050575256 99.67974424362183,73.55743050575256 99.84058141708374,75.1007080078125 99.84058141708374,75.1007080078125 99.9666690826416,76.67840719223022 99.9666690826416,76.67840719223022 99.99454021453857,78.2489001750946 99.99454021453857,78.2489001750946 99.86138939857483,79.77073192596436 99.86138939857483,79.77073192596436 99.50355887413025,81.20230436325073 99.50355887413025,81.20230436325073 98.632150888443,82.93996453285217 98.632150888443,82.93996453285217 97.45000004768372,84.28076505661011 97.45000004768372,84.28076505661011 96.01303339004517,85.26083827018738 96.01303339004517,85.26083827018738 94.37681436538696,85.91618537902832 94.37681436538696,85.91618537902832 92.59746074676514,86.28298044204712 92.59746074676514,86.28298044204712 90.7303512096405,86.39723062515259 90.7303512096405,86.39723062515259 80.8723509311676,86.39723062515259 80.8723509311676,86.39723062515259 70.31375765800476,86.39723062515259 70.31375765800476,86.39723062515259 68.37536096572876,86.25292181968689 68.37536096572876,86.25292181968689 66.54346585273743,85.8062207698822 66.54346585273743,85.8062207698822 64.88304734230042,85.03653407096863 64.88304734230042,85.03653407096863 63.4590744972229,83.92317295074463 63.4590744972229,83.92317295074463 62.336814403533936,82.4455976486206 62.336814403533936,82.4455976486206 61.58123016357422,80.5830717086792 61.58123016357422,80.5830717086792 61.342328786849976,79.27412390708923 61.342328786849976,79.27412390708923 61.2725555896759,77.91324853897095 61.2725555896759,77.91324853897095 61.32321357727051,76.5234112739563 61.32321357727051,76.5234112739563 61.44534945487976,75.12752413749695 61.44534945487976,75.12752413749695 61.59026622772217,73.74858856201172 61.59026622772217,73.74858856201172 61.709290742874146,72.40950465202332 61.709290742874146,72.40950465202332 61.88622713088989,68.50987672805786 61.88622713088989,68.50987672805786 62.16684579849243,64.22393321990967 62.16684579849243,64.22393321990967 62.90839910507202,60.03578305244446 62.90839910507202,60.03578305244446 64.46787118911743,56.429433822631836 64.46787118911743,56.429433822631836 67.20253229141235,53.88894081115723 67.20253229141235,53.88894081115723 71.46936058998108,52.89841294288635 71.46936058998108,52.89841294288635 68.15510988235474,48.25464189052582 68.15510988235474,48.25464189052582 67.14405417442322,43.06532144546509 67.14405417442322,43.06532144546509 68.15962791442871,37.95020580291748 68.15962791442871,37.95020580291748 70.92451453208923,33.52915942668915 70.92451453208923,33.52915942668915 75.16215443611145,30.42200207710266 75.16215443611145,30.42200207710266 80.59512376785278,29.24855947494507 80.59512376785278,29.24855947494507 80.83091974258423,29.25046682357788 80.83091974258423,29.25046682357788 81.06821179389954,29.25630509853363 81.06821179389954,29.25630509853363 81.30682706832886,29.26626205444336 81.30682706832886,29.26626205444336 81.54676556587219,29.28043305873871 81.54676556587219,29.28043305873871 81.78820610046387,29.2991042137146 81.78820610046387,29.2991042137146 82.03096389770508,29.322385787963867 82.03096389770508,29.322385787963867 87.17484474182129,30.93179166316986 87.17484474182129,30.93179166316986 91.03063941001892,34.22200381755829 91.03063941001892,34.22200381755829 93.4103012084961,38.628384470939636 93.4103012084961,38.628384470939636 94.1257655620575,43.58631670475006 94.1257655620575,43.58631670475006 92.98937916755676,48.53118360042572 92.98937916755676,48.53118360042572 89.81279730796814,52.89841294288635 89.81279730796814,52.89841294288635 92.05751419067383,53.22331190109253 92.05751419067383,53.22331190109253 94.12313103675842,54.09424304962158 94.12313103675842,54.09424304962158 95.92037200927734,55.42807579040527 95.92037200927734,55.42807579040527 97.35969305038452,57.141560316085815 97.35969305038452,57.141560316085815 98.35191369056702,59.15152430534363 98.35191369056702,59.15152430534363" stroke="white" stroke-width="0.1" /></svg>