<?xml version="1.0" encoding="utf-8" ?>
<svg baseProfile="full" height="54.004961252212524" version="1.1" width="99.9988317489624" xmlns="http://www.w3.org/2000/svg" xmlns:ev="http://www.w3.org/2001/xml-events" xmlns:xlink="http://www.w3.org/1999/xlink"><defs><clipPath /></defs><polygon points="13.201211392879486,53.30645442008972 13.201211392879486,53.30645442008972 9.701891988515854,52.832865715026855 9.701891988515854,52.832865715026855 6.551235914230347,51.49768590927124 6.551235914230347,51.49768590927124 3.8775045424699783,49.42924380302429 3.8775045424699783,49.42924380302429 1.80880855768919,46.75586223602295 1.80880855768919,46.75586223602295 0.4736274480819702,43.60586404800415 0.4736274480819702,43.60586404800415 0.0,40.10758996009827 0.0,40.10758996009827 0.0,13.198867440223694 0.0,13.198867440223694 0.4735541995614767,9.70059186220169 0.4735541995614767,9.70059186220169 1.80880855768919,6.550595164299011 1.80880855768919,6.550595164299011 3.8775045424699783,3.8772113621234894 3.8775045424699783,3.8772113621234894 6.551235914230347,1.8087537959218025 6.551235914230347,1.8087537959218025 9.701965004205704,0.4735908471047878 9.701965004205704,0.4735908471047878 13.201211392879486,0.0 13.201211392879486,0.0 71.2805688381195,0.0 71.2805688381195,0.0 74.77981448173523,0.4735541995614767 74.77981448173523,0.4735541995614767 77.9303252696991,1.8087537959218025 77.9303252696991,1.8087537959218025 80.6042730808258,3.8772113621234894 80.6042730808258,3.8772113621234894 82.67289996147156,6.5506137907505035 82.67289996147156,6.5506137907505035 84.00822281837463,9.700609743595123 84.00822281837463,9.700609743595123 84.48178172111511,13.198867440223694 84.48178172111511,13.198867440223694 84.48178172111511,19.787754118442535 84.48178172111511,19.787754118442535 83.87550115585327,19.76105570793152 83.87550115585327,19.76105570793152 83.26789736747742,19.735820591449738 83.26789736747742,19.735820591449738 82.65846967697144,19.71362680196762 82.65846967697144,19.71362680196762 82.04596042633057,19.69590038061142 82.04596042633057,19.69590038061142 81.42971992492676,19.68418061733246 81.42971992492676,19.68418061733246 80.80878853797913,19.679932296276093 80.80878853797913,19.679932296276093 80.33127784729004,19.681286811828613 80.33127784729004,19.681286811828613 79.85113263130188,19.68538910150528 79.85113263130188,19.68538910150528 79.36930060386658,19.692237675189972 79.36930060386658,19.692237675189972 78.88636589050293,19.701814651489258 78.88636589050293,19.701814651489258 78.40336561203003,19.714121520519257 78.40336561203003,19.714121520519257 77.92102098464966,19.72915530204773 77.92102098464966,19.72915530204773 77.61161923408508,19.7385311126709 77.61161923408508,19.7385311126709 76.33510828018188,19.779586791992188 76.33510828018188,19.779586791992188 75.04519820213318,19.827234745025635 75.04519820213318,19.827234745025635 73.74319434165955,19.887666404247284 73.74319434165955,19.887666404247284 72.43035435676575,19.967031478881836 72.43035435676575,19.967031478881836 71.10828757286072,20.071519911289215 71.10828757286072,20.071519911289215 69.77808475494385,20.207324624061584 69.77808475494385,20.207324624061584 69.60228681564331,20.226076245307922 69.60228681564331,20.226076245307922 68.81076097488403,20.3214094042778 68.81076097488403,20.3214094042778 67.89581179618835,20.473913848400116 67.89581179618835,20.473913848400116 66.8950080871582,20.722410082817078 66.8950080871582,20.722410082817078 65.84564447402954,21.10566645860672 65.84564447402954,21.10566645860672 64.78543877601624,21.662522852420807 64.78543877601624,21.662522852420807 63.7517511844635,22.431747615337372 63.7517511844635,22.431747615337372 63.210439682006836,22.95573353767395 63.210439682006836,22.95573353767395 62.748461961746216,23.493818938732147 62.748461961746216,23.493818938732147 62.356799840927124,24.03150349855423 62.356799840927124,24.03150349855423 62.02659606933594,24.554336071014404 62.02659606933594,24.554336071014404 61.74912452697754,25.047868490219116 61.74912452697754,25.047868490219116 61.51561141014099,25.49765408039093 61.51561141014099,25.49765408039093 59.60608124732971,25.91984272003174 59.60608124732971,25.91984272003174 58.02581310272217,26.65780782699585 58.02581310272217,26.65780782699585 56.759703159332275,27.6429682970047 56.759703159332275,27.6429682970047 55.79230785369873,28.80663573741913 55.79230785369873,28.80663573741913 55.10867238044739,30.080214142799377 55.10867238044739,30.080214142799377 54.693496227264404,31.395068764686584 54.693496227264404,31.395068764686584 54.56252694129944,32.17546343803406 54.56252694129944,32.17546343803406 54.51345443725586,32.956662774086 54.51345443725586,32.956662774086 54.544949531555176,33.733174204826355 54.544949531555176,33.733174204826355 54.65540885925293,34.49952304363251 54.65540885925293,34.49952304363251 54.843807220458984,35.250234603881836 54.843807220458984,35.250234603881836 55.10838031768799,35.97986698150635 55.10838031768799,35.97986698150635 55.070728063583374,36.20807230472565 55.070728063583374,36.20807230472565 55.04194498062134,36.432838439941406 55.04194498062134,36.432838439941406 55.021655559539795,36.653462052345276 55.021655559539795,36.653462052345276 55.00905513763428,36.86918020248413 55.00905513763428,36.86918020248413 55.003780126571655,37.0792955160141 55.003780126571655,37.0792955160141 55.00524640083313,37.28311061859131 55.00524640083313,37.28311061859131 55.02868294715881,38.192570209503174 55.02868294715881,38.192570209503174 55.031031370162964,38.34492564201355 55.031031370162964,38.34492564201355 54.95924353599548,38.59342336654663 54.95924353599548,38.59342336654663 54.88973259925842,38.87109160423279 54.88973259925842,38.87109160423279 54.82681393623352,39.175862073898315 54.82681393623352,39.175862073898315 54.774510860443115,39.50560986995697 54.774510860443115,39.50560986995697 54.73737716674805,39.85830545425415 54.73737716674805,39.85830545425415 54.71928119659424,40.231817960739136 54.71928119659424,40.231817960739136 54.65130805969238,43.95169019699097 54.65130805969238,43.95169019699097 54.58098649978638,47.74657189846039 54.58098649978638,47.74657189846039 54.57732677459717,47.85311222076416 54.57732677459717,47.85311222076416 54.57139015197754,47.96609878540039 54.57139015197754,47.96609878540039 54.56399321556091,48.08498024940491 54.56399321556091,48.08498024940491 54.55527901649475,48.20910096168518 54.55527901649475,48.20910096168518 54.54597473144531,48.337945342063904 54.54597473144531,48.337945342063904 54.536449909210205,48.47085773944855 54.536449909210205,48.47085773944855 54.48811054229736,49.40837025642395 54.48811054229736,49.40837025642395 54.4802725315094,50.29070973396301 54.4802725315094,50.29070973396301 54.51067090034485,51.11982822418213 54.51067090034485,51.11982822418213 54.57688570022583,51.897549629211426 54.57688570022583,51.897549629211426 54.67694401741028,52.6258111000061 54.67694401741028,52.6258111000061 54.80835437774658,53.30645442008972 54.80835437774658,53.30645442008972" stroke="white" stroke-width="0.1" /><polygon points="99.9988317489624,51.27189755439758 99.9988317489624,51.27189755439758 99.99362826347351,51.68807506561279 99.99362826347351,51.68807506561279 99.95312094688416,52.09184288978577 99.95312094688416,52.09184288978577 99.86434578895569,52.478158473968506 99.86434578895569,52.478158473968506 99.71389174461365,52.84200310707092 99.71389174461365,52.84200310707092 99.48887228965759,53.17838191986084 99.48887228965759,53.17838191986084 99.17609691619873,53.48225235939026 99.17609691619873,53.48225235939026 98.90221953392029,53.66253852844238 98.90221953392029,53.66253852844238 98.61252307891846,53.79164218902588 98.61252307891846,53.79164218902588 98.31000566482544,53.877800703048706 98.31000566482544,53.877800703048706 97.99708127975464,53.92917990684509 97.99708127975464,53.92917990684509 97.67705798149109,53.953975439071655 97.67705798149109,53.953975439071655 97.35249280929565,53.96042466163635 97.35249280929565,53.96042466163635 96.96661829948425,53.959524631500244 96.96661829948425,53.959524631500244 96.21157050132751,53.957366943359375 96.21157050132751,53.957366943359375 95.26548385620117,53.95456552505493 95.26548385620117,53.95456552505493 94.30614113807678,53.95174026489258 94.30614113807678,53.95174026489258 93.51198077201843,53.94958257675171 93.51198077201843,53.94958257675171 93.06069016456604,53.94870042800903 93.06069016456604,53.94870042800903 92.52465963363647,53.934746980667114 92.52465963363647,53.934746980667114 92.00407862663269,53.87706756591797 92.00407862663269,53.87706756591797 91.51309132575989,53.751808404922485 91.51309132575989,53.751808404922485 91.06531739234924,53.53512167930603 91.06531739234924,53.53512167930603 90.67497849464417,53.20321321487427 90.67497849464417,53.20321321487427 90.3557538986206,52.73218750953674 90.3557538986206,52.73218750953674 90.22998809814453,52.41776704788208 90.22998809814453,52.41776704788208 90.1538074016571,52.09129452705383 90.1538074016571,52.09129452705383 90.11491537094116,51.756805181503296 90.11491537094116,51.756805181503296 90.10055661201477,51.41817331314087 90.10055661201477,51.41817331314087 90.09828567504883,51.079416275024414 90.09828567504883,51.079416275024414 90.09557962417603,50.74450373649597 90.09557962417603,50.74450373649597 90.09155035018921,50.65597891807556 90.09155035018921,50.65597891807556 90.08297920227051,50.59185028076172 90.08297920227051,50.59185028076172 90.06832838058472,50.54848790168762 90.06832838058472,50.54848790168762 90.04554748535156,50.522083044052124 90.04554748535156,50.522083044052124 90.01309871673584,50.50897002220154 90.01309871673584,50.50897002220154 89.969003200531,50.505417585372925 89.969003200531,50.505417585372925 89.94160890579224,50.506097078323364 89.94160890579224,50.506097078323364 89.91054892539978,50.507837533950806 89.91054892539978,50.507837533950806 89.87582921981812,50.51010847091675 89.87582921981812,50.51010847091675 89.8367166519165,50.51236152648926 89.8367166519165,50.51236152648926 89.79291319847107,50.51409602165222 89.79291319847107,50.51409602165222 89.74398374557495,50.514793395996094 89.74398374557495,50.514793395996094 86.24444007873535,50.514793395996094 86.24444007873535,50.514793395996094 79.7961950302124,50.514793395996094 79.7961950302124,50.514793395996094 79.35318350791931,50.514793395996094 79.35318350791931,50.514793395996094 72.82992601394653,50.514793395996094 72.82992601394653,50.514793395996094 69.81090307235718,50.514793395996094 69.81090307235718,50.514793395996094 69.7110652923584,50.5760133266449 69.7110652923584,50.5760133266449 69.66213583946228,50.73345899581909 69.66213583946228,50.73345899581909 69.64946389198303,50.94783902168274 69.64946389198303,50.94783902168274 69.6578860282898,51.179784536361694 69.6578860282898,51.179784536361694 69.67290043830872,51.38997435569763 69.67290043830872,51.38997435569763 69.67964172363281,51.53910517692566 69.67964172363281,51.53910517692566 69.65686082839966,51.873964071273804 69.65686082839966,51.873964071273804 69.59936022758484,52.19688415527344 69.59936022758484,52.19688415527344 69.50560212135315,52.50481963157654 69.50560212135315,52.50481963157654 69.37389969825745,52.79477834701538 69.37389969825745,52.79477834701538 69.20271515846252,53.063762187957764 69.20271515846252,53.063762187957764 68.99051666259766,53.30880284309387 68.99051666259766,53.30880284309387 68.93520951271057,53.36161255836487 68.93520951271057,53.36161255836487 68.87917518615723,53.41417193412781 68.87917518615723,53.41417193412781 68.82174611091614,53.46584916114807 68.82174611091614,53.46584916114807 68.76183152198792,53.51594686508179 68.76183152198792,53.51594686508179 68.6988353729248,53.5638153553009 68.6988353729248,53.5638153553009 68.63188743591309,53.60882878303528 68.63188743591309,53.60882878303528 68.36709380149841,53.74787449836731 68.36709380149841,53.74787449836731 68.07959079742432,53.85162830352783 68.07959079742432,53.85162830352783 67.77399778366089,53.92467975616455 67.77399778366089,53.92467975616455 67.45418906211853,53.97152304649353 67.45418906211853,53.97152304649353 67.12456941604614,53.99678945541382 67.12456941604614,53.99678945541382 66.78953170776367,54.004961252212524 66.78953170776367,54.004961252212524 66.752028465271,54.004961252212524 66.752028465271,54.004961252212524 66.7098343372345,54.004961252212524 66.7098343372345,54.004961252212524 66.31297469139099,54.003602266311646 66.31297469139099,54.003602266311646 65.67636728286743,54.00208234786987 65.67636728286743,54.00208234786987 64.90996479988098,54.0005624294281 64.90996479988098,54.0005624294281 64.12327289581299,53.99922728538513 64.12327289581299,53.99922728538513 63.4263813495636,53.99829149246216 63.4263813495636,53.99829149246216 62.92902231216431,53.99792790412903 62.92902231216431,53.99792790412903 62.724876403808594,53.996479511260986 62.724876403808594,53.996479511260986 62.52095103263855,53.99191975593567 62.52095103263855,53.99191975593567 62.317538261413574,53.983861207962036 62.317538261413574,53.983861207962036 62.115007638931274,53.97186875343323 62.115007638931274,53.97186875343323 61.91408038139343,53.955626487731934 61.91408038139343,53.955626487731934 61.71484589576721,53.93463969230652 61.71484589576721,53.93463969230652 61.445873975753784,53.88924479484558 61.445873975753784,53.88924479484558 61.20298504829407,53.81767749786377 61.20298504829407,53.81767749786377 60.98440885543823,53.721922636032104 60.98440885543823,53.721922636032104 60.78824996948242,53.60388159751892 60.78824996948242,53.60388159751892 60.612744092941284,53.46551537513733 60.612744092941284,53.46551537513733 60.45613884925842,53.30880284309387 60.45613884925842,53.30880284309387 60.02081632614136,52.56875157356262 60.02081632614136,52.56875157356262 59.79682207107544,51.65524482727051 59.79682207107544,51.65524482727051 59.72628593444824,50.647228956222534 59.72628593444824,50.647228956222534 59.7511887550354,49.62357580661774 59.7511887550354,49.62357580661774 59.8138153553009,48.66320788860321 59.8138153553009,48.66320788860321 59.85608100891113,47.84501791000366 59.85608100891113,47.84501791000366 59.99671816825867,40.33260941505432 59.99671816825867,40.33260941505432 60.02506613731384,40.09777307510376 60.02506613731384,40.09777307510376 60.08842587471008,39.86354172229767 60.08842587471008,39.86354172229767 60.16870737075806,39.63205814361572 60.16870737075806,39.63205814361572 60.24708151817322,39.405444264411926 60.24708151817322,39.405444264411926 60.305315256118774,39.18586075305939 60.305315256118774,39.18586075305939 60.32487750053406,38.97545337677002 60.32487750053406,38.97545337677002 60.3185772895813,38.671910762786865 60.3185772895813,38.671910762786865 60.31161546707153,38.36836516857147 60.31161546707153,38.36836516857147 60.304367542266846,38.06482255458832 60.304367542266846,38.06482255458832 60.29652953147888,37.761279940605164 60.29652953147888,37.761279940605164 60.28854250907898,37.45773732662201 60.28854250907898,37.45773732662201 60.280340909957886,37.154191732406616 60.280340909957886,37.154191732406616 60.380542278289795,36.74328327178955 60.380542278289795,36.74328327178955 60.658228397369385,36.43917441368103 60.658228397369385,36.43917441368103 61.04359030723572,36.19668185710907 61.04359030723572,36.19668185710907 61.466532945632935,35.97056269645691 61.466532945632935,35.97056269645691 61.85739040374756,35.71569323539734 61.85739040374756,35.71569323539734 62.14613318443298,35.386842489242554 62.14613318443298,35.386842489242554 62.10862994194031,35.386842489242554 62.10862994194031,35.386842489242554 61.403024196624756,35.274770855903625 61.403024196624756,35.274770855903625 60.791248083114624,34.964561462402344 60.791248083114624,34.964561462402344 60.3014349937439,34.49525833129883 60.3014349937439,34.49525833129883 59.961557388305664,33.90580415725708 59.961557388305664,33.90580415725708 59.79982614517212,33.235228061676025 59.79982614517212,33.235228061676025 59.84436273574829,32.52251744270325 59.84436273574829,32.52251744270325 60.087841749191284,31.868696212768555 60.087841749191284,31.868696212768555 60.46939492225647,31.386902928352356 60.46939492225647,31.386902928352356 60.96096634864807,31.053435802459717 60.96096634864807,31.053435802459717 61.53421401977539,30.844587087631226 61.53421401977539,30.844587087631226 62.16137409210205,30.73665499687195 62.16137409210205,30.73665499687195 62.81416416168213,30.705943703651428 62.81416416168213,30.705943703651428 63.12825679779053,30.705943703651428 63.12825679779053,30.705943703651428 63.37224841117859,30.708417296409607 63.37224841117859,30.708417296409607 63.614630699157715,30.719459056854248 63.614630699157715,30.719459056854248 63.85488510131836,30.74461817741394 63.85488510131836,30.74461817741394 64.09279704093933,30.78928291797638 64.09279704093933,30.78928291797638 64.32807445526123,30.85896074771881 64.32807445526123,30.85896074771881 64.56041932106018,30.95909357070923 64.56041932106018,30.95909357070923 64.6894097328186,30.723488330841064 64.6894097328186,30.723488330841064 64.81884121894836,30.487772822380066 64.81884121894836,30.487772822380066 64.94863629341125,30.251801013946533 64.94863629341125,30.251801013946533 65.07850885391235,30.015426874160767 65.07850885391235,30.015426874160767 65.20852446556091,29.77854013442993 65.20852446556091,29.77854013442993 65.33861756324768,29.54099476337433 65.33861756324768,29.54099476337433 65.42834639549255,29.37907576560974 65.42834639549255,29.37907576560974 65.51712155342102,29.21690344810486 65.51712155342102,29.21690344810486 65.60553312301636,29.05462086200714 65.60553312301636,29.05462086200714 65.69372415542603,28.89232039451599 65.69372415542603,28.89232039451599 65.7819926738739,28.73014509677887 65.7819926738739,28.73014509677887 65.87069630622864,28.568246960639954 65.87069630622864,28.568246960639954 66.06546640396118,28.198927640914917 66.06546640396118,28.198927640914917 66.2619948387146,27.811551094055176 66.2619948387146,27.811551094055176 66.46928787231445,27.421754598617554 66.46928787231445,27.421754598617554 66.69577360153198,27.044999599456787 66.69577360153198,27.044999599456787 66.95038676261902,26.69692039489746 66.95038676261902,26.69692039489746 67.24191308021545,26.393046975135803 67.24191308021545,26.393046975135803 67.68624186515808,26.08170509338379 67.68624186515808,26.08170509338379 68.18968653678894,25.85558295249939 68.18968653678894,25.85558295249939 68.7315046787262,25.69718360900879 68.7315046787262,25.69718360900879 69.2903220653534,25.588995218276978 69.2903220653534,25.588995218276978 69.8454737663269,25.513476133346558 69.8454737663269,25.513476133346558 70.37580013275146,25.45311748981476 70.37580013275146,25.45311748981476 71.65655493736267,25.323906540870667 71.65655493736267,25.323906540870667 72.9407548904419,25.225040316581726 72.9407548904419,25.225040316581726 74.22751784324646,25.15016198158264 74.22751784324646,25.15016198158264 75.51530599594116,25.092843174934387 75.51530599594116,25.092843174934387 76.80317163467407,25.046733021736145 76.80317163467407,25.046733021736145 78.0897855758667,25.005421042442322 78.0897855758667,25.005421042442322 78.54129076004028,24.992528557777405 78.54129076004028,24.992528557777405 78.99345755577087,24.9819815158844 78.99345755577087,24.9819815158844 79.4463574886322,24.973776936531067 79.4463574886322,24.973776936531067 79.89947199821472,24.967917799949646 79.89947199821472,24.967917799949646 80.35295605659485,24.964401125907898 80.35295605659485,24.964401125907898 80.80644011497498,24.96322989463806 80.80644011497498,24.96322989463806 81.41756057739258,24.966782331466675 81.41756057739258,24.966782331466675 82.02962875366211,24.976854026317596 82.02962875366211,24.976854026317596 82.64264464378357,24.992528557777405 82.64264464378357,24.992528557777405 83.25610756874084,25.012892484664917 83.25610756874084,25.012892484664917 83.87000560760498,25.037026405334473 83.87000560760498,25.037026405334473 84.48412418365479,25.064021348953247 84.48412418365479,25.064021348953247 85.34414172172546,25.109562277793884 85.34414172172546,25.109562277793884 86.2037181854248,25.162705779075623 86.2037181854248,25.162705779075623 87.0621919631958,25.224873423576355 87.0621919631958,25.224873423576355 87.91876435279846,25.2973735332489 87.91876435279846,25.2973735332489 88.77314329147339,25.38159191608429 88.77314329147339,25.38159191608429 89.62444067001343,25.478902459144592 89.62444067001343,25.478902459144592 90.1360809803009,25.5426287651062 90.1360809803009,25.5426287651062 90.6689703464508,25.62316656112671 90.6689703464508,25.62316656112671 91.20309948921204,25.737324357032776 91.20309948921204,25.737324357032776 91.71833395957947,25.901859998703003 91.71833395957947,25.901859998703003 92.19503402709961,26.13358199596405 92.19503402709961,26.13358199596405 92.6129937171936,26.449304819107056 92.6129937171936,26.449304819107056 92.76205897331238,26.607778668403625 92.76205897331238,26.607778668403625 92.89500117301941,26.77873969078064 92.89500117301941,26.77873969078064 93.01586151123047,26.959115266799927 93.01586151123047,26.959115266799927 93.1277871131897,27.145716547966003 93.1277871131897,27.145716547966003 93.23458671569824,27.335450053215027 93.23458671569824,27.335450053215027 93.33962202072144,27.52518355846405 93.33962202072144,27.52518355846405 93.51578950881958,27.838468551635742 93.51578950881958,27.838468551635742 93.69070529937744,28.15248668193817 93.69070529937744,28.15248668193817 93.86467337608337,28.46716344356537 93.86467337608337,28.46716344356537 94.03775930404663,28.78240942955017 94.03775930404663,28.78240942955017 94.21041011810303,29.098185896873474 94.21041011810303,29.098185896873474 94.38269138336182,29.41441833972931 94.38269138336182,29.41441833972931 94.47622895240784,29.583001136779785 94.47622895240784,29.583001136779785 94.56940293312073,29.751327633857727 94.56940293312073,29.751327633857727 94.66249942779541,29.919543862342834 94.66249942779541,29.919543862342834 94.75523233413696,30.08774220943451 94.75523233413696,30.08774220943451 94.84796524047852,30.256086587905884 94.84796524047852,30.256086587905884 94.94055509567261,30.42466938495636 94.94055509567261,30.42466938495636 95.02229690551758,30.576807260513306 95.02229690551758,30.576807260513306 95.08668184280396,30.69341778755188 95.08668184280396,30.69341778755188 95.1406717300415,30.77802062034607 95.1406717300415,30.77802062034607 95.19033432006836,30.834075808525085 95.19033432006836,30.834075808525085 95.24263143539429,30.865132808685303 95.24263143539429,30.865132808685303 95.30386924743652,30.87470829486847 95.30386924743652,30.87470829486847 95.34745216369629,30.87097406387329 95.34745216369629,30.87097406387329 95.39974927902222,30.86053729057312 95.39974927902222,30.86053729057312 95.4626739025116,30.84453046321869 95.4626739025116,30.84453046321869 95.53753137588501,30.824002623558044 95.53753137588501,30.824002623558044 95.62630653381348,30.80010712146759 95.62630653381348,30.80010712146759 95.73047161102295,30.773919820785522 95.73047161102295,30.773919820785522 95.82298398017883,30.751779675483704 95.82298398017883,30.751779675483704 95.91593742370605,30.73440194129944 95.91593742370605,30.73440194129944 96.00940346717834,30.721473693847656 96.00940346717834,30.721473693847656 96.1035966873169,30.71262836456299 96.1035966873169,30.71262836456299 96.19882106781006,30.707556009292603 96.19882106781006,30.707556009292603 96.29536271095276,30.705943703651428 96.29536271095276,30.705943703651428 97.1556007862091,30.705943703651428 97.1556007862091,30.705943703651428 97.53217101097107,30.712297558784485 97.53217101097107,30.712297558784485 97.8992223739624,30.73960244655609 97.8992223739624,30.73960244655609 98.25491905212402,30.800288915634155 98.25491905212402,30.800288915634155 98.59721064567566,30.906647443771362 98.59721064567566,30.906647443771362 98.92441630363464,31.07110857963562 98.92441630363464,31.07110857963562 99.23469424247742,31.30599856376648 99.23469424247742,31.30599856376648 99.80288743972778,32.09335207939148 99.80288743972778,32.09335207939148 99.98564720153809,32.984864711761475 99.98564720153809,32.984864711761475 99.82420206069946,33.87029767036438 99.82420206069946,33.87029767036438 99.35951232910156,34.639301896095276 99.35951232910156,34.639301896095276 98.63288402557373,35.18156409263611 98.63288402557373,35.18156409263611 97.68533706665039,35.386842489242554 97.68533706665039,35.386842489242554 97.64783382415771,35.386842489242554 97.64783382415771,35.386842489242554 97.8796660900116,35.62711775302887 97.8796660900116,35.62711775302887 98.25345277786255,35.86907684803009 98.25345277786255,35.86907684803009 98.68679642677307,36.11171543598175 98.68679642677307,36.11171543598175 99.0968406200409,36.35394871234894 99.0968406200409,36.35394871234894 99.40155744552612,36.594754457473755 99.40155744552612,36.594754457473755 99.51831698417664,36.83306872844696 99.51831698417664,36.83306872844696 99.51040744781494,37.11181879043579 99.51040744781494,37.11181879043579 99.5032250881195,37.39030957221985 99.5032250881195,37.39030957221985 99.49663281440735,37.66869306564331 99.49663281440735,37.66869306564331 99.49033856391907,37.9470556974411 99.49033856391907,37.9470556974411 99.48440194129944,38.22556734085083 99.48440194129944,38.22556734085083 99.47847127914429,38.50431740283966 99.47847127914429,38.50431740283966 99.49568510055542,38.79447281360626 99.49568510055542,38.79447281360626 99.54996109008789,39.064523577690125 99.54996109008789,39.064523577690125 99.62438344955444,39.32441174983978 99.62438344955444,39.32441174983978 99.70136284828186,39.584097266197205 99.70136284828186,39.584097266197205 99.76399540901184,39.85356092453003 99.76399540901184,39.85356092453003 99.79490637779236,40.14274775981903 99.79490637779236,40.14274775981903 99.82867240905762,41.998618841171265 99.82867240905762,41.998618841171265 99.8622179031372,43.8536673784256 99.8622179031372,43.8536673784256 99.89598989486694,45.708200335502625 99.89598989486694,45.708200335502625 99.92982745170593,47.56253361701965 99.92982745170593,47.56253361701965 99.96403455734253,49.41697716712952 99.96403455734253,49.41697716712952" stroke="white" stroke-width="0.1" /><polygon points="65.77224731445312,36.78150177001953 65.77224731445312,36.78150177001953 65.69694876670837,36.783334612846375 65.69694876670837,36.783334612846375 65.62325954437256,36.788350343704224 65.62325954437256,36.788350343704224 65.55103659629822,36.795857548713684 65.55103659629822,36.795857548713684 65.47961831092834,36.80512607097626 65.47961831092834,36.80512607097626 65.40908217430115,36.81541681289673 65.40908217430115,36.81541681289673 65.33861756324768,36.8260383605957 65.33861756324768,36.8260383605957 63.99669647216797,37.37487196922302 63.99669647216797,37.37487196922302 63.19147348403931,38.43059241771698 63.19147348403931,38.43059241771698 62.92315721511841,39.739879965782166 62.92315721511841,39.739879965782166 63.19154500961304,41.04933142662048 63.19154500961304,41.04933142662048 63.99669647216797,42.10565388202667 63.99669647216797,42.10565388202667 65.33861756324768,42.6554799079895 65.33861756324768,42.6554799079895 65.40893316268921,42.6643043756485 65.40893316268921,42.6643043756485 65.47954678535461,42.67368018627167 65.47954678535461,42.67368018627167 65.55103659629822,42.68272817134857 65.55103659629822,42.68272817134857 65.6234085559845,42.69038140773773 65.6234085559845,42.69038140773773 65.6970202922821,42.69567430019379 65.6970202922821,42.69567430019379 65.77224731445312,42.69767105579376 65.77224731445312,42.69767105579376 67.36218929290771,42.259421944618225 67.36218929290771,42.259421944618225 68.31611394882202,41.163837909698486 68.31611394882202,41.163837909698486 68.63422989845276,39.73958492279053 68.63422989845276,39.73958492279053 68.31618547439575,38.31533491611481 68.31618547439575,38.31533491611481 67.36226677894592,37.219732999801636 67.36226677894592,37.219732999801636" stroke="white" stroke-width="0.1" /><polygon points="89.31738138198853,39.18640911579132 89.31738138198853,39.18640911579132 89.16033506393433,38.8040155172348 89.16033506393433,38.8040155172348 88.95618915557861,38.45333456993103 88.95618915557861,38.45333456993103 88.70150446891785,38.15125524997711 88.70150446891785,38.15125524997711 88.3924663066864,37.914589047431946 88.3924663066864,37.914589047431946 88.025563955307,37.760236859321594 88.025563955307,37.760236859321594 87.59691119194031,37.70502507686615 87.59691119194031,37.70502507686615 85.03729701042175,37.70502507686615 85.03729701042175,37.70502507686615 84.48412418365479,37.70502507686615 84.48412418365479,37.70502507686615 75.02856850624084,37.70502507686615 75.02856850624084,37.70502507686615 72.58615493774414,37.70502507686615 72.58615493774414,37.70502507686615 71.96485996246338,37.799498438835144 71.96485996246338,37.799498438835144 71.49350047111511,38.05852234363556 71.49350047111511,38.05852234363556 71.14022374153137,38.445425033569336 71.14022374153137,38.445425033569336 70.87293863296509,38.92355561256409 70.87293863296509,38.92355561256409 70.66007852554321,39.45622146129608 70.66007852554321,39.45622146129608 70.46955823898315,40.00679850578308 70.46955823898315,40.00679850578308 70.39535641670227,40.46788215637207 70.39535641670227,40.46788215637207 70.51042914390564,40.785837173461914 70.51042914390564,40.785837173461914 70.76606750488281,40.98716080188751 70.76606750488281,40.98716080188751 71.11297249794006,41.098207235336304 71.11297249794006,41.098207235336304 71.50251269340515,41.14547073841095 71.50251269340515,41.14547073841095 71.88531160354614,41.155341267585754 71.88531160354614,41.155341267585754 74.84808564186096,41.155341267585754 74.84808564186096,41.155341267585754 84.43021178245544,41.155341267585754 84.43021178245544,41.155341267585754 88.81108164787292,41.155341267585754 88.81108164787292,41.155341267585754 89.29803967475891,41.05766415596008 89.29803967475891,41.05766415596008 89.54914212226868,40.79903960227966 89.54914212226868,40.79903960227966 89.62063193321228,40.431055426597595 89.62063193321228,40.431055426597595 89.56847786903381,40.00522196292877 89.56847786903381,40.00522196292877 89.44864273071289,39.5731657743454 89.44864273071289,39.5731657743454" stroke="white" stroke-width="0.1" /><polygon points="94.32877898216248,34.23595726490021 94.32877898216248,34.23595726490021 93.89851093292236,33.45171511173248 93.89851093292236,33.45171511173248 93.46832036972046,32.66721963882446 93.46832036972046,32.66721963882446 93.03783774375916,31.88261389732361 93.03783774375916,31.88261389732361 92.60691404342651,31.09799027442932 92.60691404342651,31.09799027442932 92.17555522918701,30.313512682914734 92.17555522918701,30.313512682914734 91.74338579177856,29.529273509979248 91.74338579177856,29.529273509979248 91.6374683380127,29.311320185661316 91.6374683380127,29.311320185661316 91.51763319969177,29.042938351631165 91.51763319969177,29.042938351631165 91.38182997703552,28.757229447364807 91.38182997703552,28.757229447364807 91.22748970985413,28.487345576286316 91.22748970985413,28.487345576286316 91.0527229309082,28.266406059265137 91.0527229309082,28.266406059265137 90.85502028465271,28.127583861351013 90.85502028465271,28.127583861351013 90.54510593414307,28.019502758979797 90.54510593414307,28.019502758979797 90.21958708763123,27.941256761550903 90.21958708763123,27.941256761550903 89.88520503044128,27.885568141937256 89.88520503044128,27.885568141937256 89.54789638519287,27.845096588134766 89.54789638519287,27.845096588134766 89.21439051628113,27.81255841255188 89.21439051628113,27.81255841255188 88.8907790184021,27.780675888061523 88.8907790184021,27.780675888061523 88.15587162971497,27.708342671394348 88.15587162971497,27.708342671394348 87.42111325263977,27.6434987783432 87.42111325263977,27.6434987783432 86.68656945228577,27.58583426475525 86.68656945228577,27.58583426475525 85.95210313796997,27.53499746322632 85.95210313796997,27.53499746322632 85.21800637245178,27.490663528442383 85.21800637245178,27.490663528442383 84.48412418365479,27.45251953601837 84.48412418365479,27.45251953601837 83.7949275970459,27.423587441444397 83.7949275970459,27.423587441444397 83.10587406158447,27.400073409080505 83.10587406158447,27.400073409080505 82.41733312606812,27.381908893585205 82.41733312606812,27.381908893585205 81.72901272773743,27.368998527526855 81.72901272773743,27.368998527526855 81.04127645492554,27.361324429512024 81.04127645492554,27.361324429512024 80.3540587425232,27.358761429786682 80.3540587425232,27.358761429786682 79.56414222717285,27.361690998077393 79.56414222717285,27.361690998077393 78.77429723739624,27.370628714561462 78.77429723739624,27.370628714561462 77.98489332199097,27.385717630386353 77.98489332199097,27.385717630386353 77.19570994377136,27.407032251358032 77.19570994377136,27.407032251358032 76.4072597026825,27.43472158908844 76.4072597026825,27.43472158908844 75.61924457550049,27.468928694725037 75.61924457550049,27.468928694725037 74.85929131507874,27.5031715631485 74.85929131507874,27.5031715631485 74.09859895706177,27.54131555557251 74.09859895706177,27.54131555557251 73.33798408508301,27.584955096244812 73.33798408508301,27.584955096244812 72.57766127586365,27.63560712337494 72.57766127586365,27.63560712337494 71.81821465492249,27.694863080978394 71.81821465492249,27.694863080978394 71.0602343082428,27.76426672935486 71.0602343082428,27.76426672935486 70.74511647224426,27.783530950546265 70.74511647224426,27.783530950546265 70.31456232070923,27.80601978302002 70.31456232070923,27.80601978302002 69.83433961868286,27.848944067955017 69.83433961868286,27.848944067955017 69.36964988708496,27.929553389549255 69.36964988708496,27.929553389549255 68.98611783981323,28.065139055252075 68.98611783981323,28.065139055252075 68.74908804893494,28.272908926010132 68.74908804893494,28.272908926010132 68.18777918815613,29.258599877357483 68.18777918815613,29.258599877357483 67.6362156867981,30.250152945518494 67.6362156867981,30.250152945518494 67.09160804748535,31.24564290046692 67.09160804748535,31.24564290046692 66.55059456825256,32.24307298660278 66.55059456825256,32.24307298660278 66.01030826568604,33.24050307273865 66.01030826568604,33.24050307273865 65.46753644943237,34.23595726490021 65.46753644943237,34.23595726490021 67.76527762413025,33.754196763038635 67.76527762413025,33.754196763038635 70.07687091827393,33.37918221950531 70.07687091827393,33.37918221950531 72.39981293678284,33.102354407310486 72.39981293678284,33.102354407310486 74.73117709159851,32.91516900062561 74.73117709159851,32.91516900062561 77.06869840621948,32.809123396873474 77.06869840621948,32.809123396873474 79.40943837165833,32.77566432952881 79.40943837165833,32.77566432952881 80.25516867637634,32.780736684799194 80.25516867637634,32.780736684799194 81.10053539276123,32.79525935649872 81.10053539276123,32.79525935649872 81.94590210914612,32.81815052032471 81.94590210914612,32.81815052032471 82.79134035110474,32.848235964775085 82.79134035110474,32.848235964775085 83.63736867904663,32.88445770740509 83.63736867904663,32.88445770740509 84.48412418365479,32.92568027973175 84.48412418365479,32.92568027973175 84.81821417808533,32.94179439544678 84.81821417808533,32.94179439544678 85.152667760849,32.95779824256897 85.152667760849,32.95779824256897 85.48763394355774,32.97431766986847 85.48763394355774,32.97431766986847 85.82260012626648,32.992005348205566 85.82260012626648,32.992005348205566 86.15771532058716,33.01152586936951 86.15771532058716,33.01152586936951 86.49290204048157,33.03350210189819 86.49290204048157,33.03350210189819 87.8122627735138,33.14095735549927 87.8122627735138,33.14095735549927 89.12642002105713,33.288463950157166 89.12642002105713,33.288463950157166 90.43545126914978,33.473873138427734 90.43545126914978,33.473873138427734 91.73884391784668,33.69501233100891 91.73884391784668,33.69501233100891 93.03674101829529,33.94977152347565 93.03674101829529,33.94977152347565" stroke="white" stroke-width="0.1" /><polygon points="94.38269138336182,36.816662549972534 94.38269138336182,36.816662549972534 94.32335495948792,36.809977889060974 94.32335495948792,36.809977889060974 94.26446557044983,36.80230379104614 94.26446557044983,36.80230379104614 94.2054271697998,36.79468631744385 94.2054271697998,36.79468631744385 94.14536356925964,36.78802251815796 94.14536356925964,36.78802251815796 94.08361315727234,36.78329586982727 94.08361315727234,36.78329586982727 94.0193772315979,36.78150177001953 94.0193772315979,36.78150177001953 92.42928624153137,37.219732999801636 92.42928624153137,37.219732999801636 91.47529602050781,38.3152961730957 91.47529602050781,38.3152961730957 91.15739464759827,39.73958492279053 91.15739464759827,39.73958492279053 91.47536754608154,41.163837909698486 91.47536754608154,41.163837909698486 92.42943525314331,42.259421944618225 92.42943525314331,42.259421944618225 94.0193772315979,42.69767105579376 94.0193772315979,42.69767105579376 94.08354163169861,42.69587695598602 94.08354163169861,42.69587695598602 94.14529204368591,42.691150307655334 94.14529204368591,42.691150307655334 94.2054271697998,42.684486508369446 94.2054271697998,42.684486508369446 94.26446557044983,42.67683029174805 94.26446557044983,42.67683029174805 94.32343244552612,42.66917705535889 94.32343244552612,42.66917705535889 94.38269138336182,42.66251027584076 94.38269138336182,42.66251027584076 95.76350450515747,42.12838113307953 95.76350450515747,42.12838113307953 96.59165740013123,41.06564819812775 96.59165740013123,41.06564819812775 96.86758518218994,39.73870575428009 96.86758518218994,39.73870575428009 96.59121632575989,38.41194808483124 96.59121632575989,38.41194808483124 95.76292037963867,37.34980225563049 95.76292037963867,37.34980225563049" stroke="white" stroke-width="0.1" /><polygon points="24.192065000534058,5.651300027966499 24.192065000534058,5.651300027966499 18.608812987804413,6.401661783456802 18.608812987804413,6.401661783456802 13.591921329498291,8.519177883863449 13.591921329498291,8.519177883863449 9.341433644294739,11.803476512432098 9.341433644294739,11.803476512432098 6.057538464665413,16.054165363311768 6.057538464665413,16.054165363311768 3.94035205245018,21.070873737335205 3.94035205245018,21.070873737335205 3.1901367008686066,26.65322721004486 3.1901367008686066,26.65322721004486 3.9402786642313004,32.23556578159332 3.9402786642313004,32.23556578159332 6.057392060756683,37.25227415561676 6.057392060756683,37.25227415561676 9.341433644294739,41.50297939777374 9.341433644294739,41.50297939777374 13.591921329498291,44.78727877140045 13.591921329498291,44.78727877140045 18.608959019184113,46.90479338169098 18.608959019184113,46.90479338169098 24.192065000534058,47.65515625476837 24.192065000534058,47.65515625476837 29.77311909198761,46.904775500297546 29.77311909198761,46.904775500297546 34.789279103279114,44.78726089000702 34.789279103279114,44.78726089000702 39.040204882621765,41.50297939777374 39.040204882621765,41.50297939777374 42.32490658760071,37.252309918403625 42.32490658760071,37.252309918403625 44.44289803504944,32.235583662986755 44.44289803504944,32.235583662986755 45.19340693950653,26.65322721004486 45.19340693950653,26.65322721004486 44.44275200366974,21.070855855941772 44.44275200366974,21.070855855941772 42.32476055622101,16.054147481918335 42.32476055622101,16.054147481918335 39.040204882621765,11.803476512432098 39.040204882621765,11.803476512432098 34.78942513465881,8.519177883863449 34.78942513465881,8.519177883863449 29.77319359779358,6.401661783456802 29.77319359779358,6.401661783456802" stroke="white" stroke-width="0.1" /></svg>