<?xml version="1.0" encoding="utf-8" ?>
<svg baseProfile="full" height="100.0" version="1.1" width="100.0" xmlns="http://www.w3.org/2000/svg" xmlns:ev="http://www.w3.org/2001/xml-events" xmlns:xlink="http://www.w3.org/1999/xlink"><defs><clipPath /></defs><polygon points="53.328996896743774,3.326822817325592 53.328996896743774,3.326822817325592 53.328996896743774,16.66124165058136 53.328996896743774,16.66124165058136 53.21018099784851,17.552761733531952 53.21018099784851,17.552761733531952 52.87461876869202,18.351644277572632 52.87461876869202,18.351644277572632 52.3546040058136,19.026964902877808 52.3546040058136,19.026964902877808 51.68077349662781,19.54752653837204 51.68077349662781,19.54752653837204 50.88568925857544,19.88254189491272 50.88568925857544,19.88254189491272 50.0,20.001085102558136 50.0,20.001085102558136 49.1124153137207,19.882406294345856 49.1124153137207,19.882406294345856 48.31570088863373,19.547390937805176 48.31570088863373,19.547390937805176 47.64160215854645,19.026964902877808 47.64160215854645,19.026964902877808 47.12077081203461,18.351779878139496 47.12077081203461,18.351779878139496 46.78575396537781,17.552897334098816 46.78575396537781,17.552897334098816 46.666666865348816,16.66124165058136 46.666666865348816,16.66124165058136 46.666666865348816,3.326822817325592 46.666666865348816,3.326822817325592 46.78521156311035,2.441813237965107 46.78521156311035,2.441813237965107 47.12077081203461,1.64659284055233 47.12077081203461,1.64659284055233 47.64160215854645,0.9737142361700535 47.64160215854645,0.9737142361700535 48.31570088863373,0.45369467698037624 48.31570088863373,0.45369467698037624 49.11268651485443,0.11881510727107525 49.11268651485443,0.11881510727107525 50.0,0.0 50.0,0.0 50.88568925857544,0.11867947177961469 50.88568925857544,0.11867947177961469 51.68050527572632,0.45369467698037624 51.68050527572632,0.45369467698037624 52.3546040058136,0.9737142361700535 52.3546040058136,0.9737142361700535 52.87489295005798,1.646864227950573 52.87489295005798,1.646864227950573 53.21018099784851,2.441813237965107 53.21018099784851,2.441813237965107" stroke="white" stroke-width="0.1" /><polygon points="50.0,79.99349236488342 50.0,79.99349236488342 50.88568925857544,80.11230826377869 50.88568925857544,80.11230826377869 51.68077349662781,80.44745922088623 51.68077349662781,80.44745922088623 52.3546040058136,80.96802234649658 52.3546040058136,80.96802234649658 52.87461876869202,81.64212107658386 52.87461876869202,81.64212107658386 53.21018099784851,82.43896961212158 53.21018099784851,82.43896961212158 53.328996896743774,83.32682251930237 53.328996896743774,83.32682251930237 53.328996896743774,96.66341543197632 53.328996896743774,96.66341543197632 53.21018099784851,97.54923582077026 53.21018099784851,97.54923582077026 52.87489295005798,98.3458161354065 52.87489295005798,98.3458161354065 52.3546040058136,99.02140498161316 52.3546040058136,99.02140498161316 51.68050527572632,99.5434582233429 51.68050527572632,99.5434582233429 50.88568925857544,99.88051056861877 50.88568925857544,99.88051056861877 50.0,100.0 50.0,100.0 49.11268651485443,99.88064765930176 49.11268651485443,99.88064765930176 48.31570088863373,99.54359531402588 48.31570088863373,99.54359531402588 47.64160215854645,99.02140498161316 47.64160215854645,99.02140498161316 47.12077081203461,98.34567904472351 47.12077081203461,98.34567904472351 46.78521156311035,97.54910469055176 46.78521156311035,97.54910469055176 46.666666865348816,96.66341543197632 46.666666865348816,96.66341543197632 46.666666865348816,83.32682251930237 46.666666865348816,83.32682251930237 46.78575396537781,82.43910074234009 46.78575396537781,82.43910074234009 47.12077081203461,81.64225220680237 47.12077081203461,81.64225220680237 47.64160215854645,80.96802234649658 47.64160215854645,80.96802234649658 48.31570088863373,80.44732213020325 48.31570088863373,80.44732213020325 49.1124153137207,80.11230826377869 49.1124153137207,80.11230826377869" stroke="white" stroke-width="0.1" /><polygon points="100.0,50.003254413604736 100.0,50.003254413604736 99.88064765930176,50.88799595832825 99.88064765930176,50.88799595832825 99.54373240470886,51.68267488479614 99.54373240470886,51.68267488479614 99.02181029319763,52.35595703125 99.02181029319763,52.35595703125 98.34662675857544,52.87584066390991 98.34662675857544,52.87584066390991 97.55100011825562,53.21112871170044 97.55100011825562,53.21112871170044 96.66666984558105,53.33008170127869 96.66666984558105,53.33008170127869 83.34201574325562,53.33008170127869 83.34201574325562,53.33008170127869 82.45388865470886,53.21126580238342 82.45388865470886,53.21126580238342 81.65690302848816,52.875977754592896 81.65690302848816,52.875977754592896 80.98280429840088,52.35595703125 80.98280429840088,52.35595703125 80.46224117279053,51.68253779411316 80.46224117279053,51.68253779411316 80.12722730636597,50.88772177696228 80.12722730636597,50.88772177696228 80.00867962837219,50.003254413604736 80.00867962837219,50.003254413604736 80.12749552726746,49.112144112586975 80.12749552726746,49.112144112586975 80.4625153541565,48.3128547668457 80.4625153541565,48.3128547668457 80.98280429840088,47.63672053813934 80.98280429840088,47.63672053813934 81.65690302848816,47.114938497543335 81.65690302848816,47.114938497543335 82.45388865470886,46.77897393703461 82.45388865470886,46.77897393703461 83.34201574325562,46.66015803813934 83.34201574325562,46.66015803813934 96.66666984558105,46.66015803813934 96.66666984558105,46.66015803813934 97.55127429962158,46.779245138168335 97.55127429962158,46.779245138168335 98.3469009399414,47.11507260799408 98.3469009399414,47.11507260799408 99.02181029319763,47.63672053813934 99.02181029319763,47.63672053813934 99.5434582233429,48.31271767616272 99.5434582233429,48.31271767616272 99.88037347793579,49.11187291145325 99.88037347793579,49.11187291145325" stroke="white" stroke-width="0.1" /><polygon points="20.000000298023224,50.003254413604736 20.000000298023224,50.003254413604736 19.88091468811035,50.88799595832825 19.88091468811035,50.88799595832825 19.544541835784912,51.68267488479614 19.544541835784912,51.68267488479614 19.022895395755768,52.35595703125 19.022895395755768,52.35595703125 18.347439169883728,52.87584066390991 18.347439169883728,52.87584066390991 17.549914121627808,53.21112871170044 17.549914121627808,53.21112871170044 16.662326455116272,53.33008170127869 16.662326455116272,53.33008170127869 3.333333507180214,53.33008170127869 3.333333507180214,53.33008170127869 2.449001744389534,53.21126580238342 2.449001744389534,53.21126580238342 1.653103344142437,52.875977754592896 1.653103344142437,52.875977754592896 0.9781901724636555,52.35595703125 0.9781901724636555,52.35595703125 0.4557291977107525,51.68253779411316 0.4557291977107525,51.68253779411316 0.11908637825399637,50.88772177696228 0.11908637825399637,50.88772177696228 0.0,50.003254413604736 0.0,50.003254413604736 0.11962890857830644,49.112144112586975 0.11962890857830644,49.112144112586975 0.456271693110466,48.3128547668457 0.456271693110466,48.3128547668457 0.9781901724636555,47.63672053813934 0.9781901724636555,47.63672053813934 1.652832143008709,47.114938497543335 1.652832143008709,47.114938497543335 2.448730543255806,46.77897393703461 2.448730543255806,46.77897393703461 3.333333507180214,46.66015803813934 3.333333507180214,46.66015803813934 16.662326455116272,46.66015803813934 16.662326455116272,46.66015803813934 17.550185322761536,46.779245138168335 17.550185322761536,46.779245138168335 18.347439169883728,47.11507260799408 18.347439169883728,47.11507260799408 19.022895395755768,47.63672053813934 19.022895395755768,47.63672053813934 19.544270634651184,48.31271767616272 19.544270634651184,48.31271767616272 19.880643486976624,49.11187291145325 19.880643486976624,49.11187291145325" stroke="white" stroke-width="0.1" /><polygon points="85.34722328186035,14.640842378139496 85.34722328186035,14.640842378139496 85.89518666267395,15.349528193473816 85.89518666267395,15.349528193473816 86.22395992279053,16.148817539215088 86.22395992279053,16.148817539215088 86.33355498313904,16.99395179748535 86.33355498313904,16.99395179748535 86.22395992279053,17.839626967906952 86.22395992279053,17.839626967906952 85.89491248130798,18.64149421453476 85.89491248130798,18.64149421453476 85.34722328186035,19.354383647441864 85.34722328186035,19.354383647441864 75.92231035232544,28.785806894302368 75.92231035232544,28.785806894302368 75.2110481262207,29.324817657470703 75.2110481262207,29.324817657470703 74.41080808639526,29.64816689491272 74.41080808639526,29.64816689491272 73.56635332107544,29.755860567092896 73.56635332107544,29.755860567092896 72.72244095802307,29.64789569377899 72.72244095802307,29.64789569377899 71.923828125,29.32468056678772 71.923828125,29.32468056678772 71.21527791023254,28.785806894302368 71.21527791023254,28.785806894302368 70.67274451255798,28.073596954345703 70.67274451255798,28.073596954345703 70.34722566604614,27.271050214767456 70.34722566604614,27.271050214767456 70.23871541023254,26.424425840377808 70.23871541023254,26.424425840377808 70.34668326377869,25.57888627052307 70.34668326377869,25.57888627052307 70.6724762916565,24.7802734375 70.6724762916565,24.7802734375 71.21527791023254,24.074436724185944 71.21527791023254,24.074436724185944 80.63802123069763,14.640842378139496 80.63802123069763,14.640842378139496 81.34793043136597,14.096544682979584 81.34793043136597,14.096544682979584 82.14735388755798,13.769802451133728 82.14735388755798,13.769802451133728 82.99180865287781,13.66102397441864 82.99180865287781,13.66102397441864 83.83626341819763,13.769666850566864 83.83626341819763,13.769666850566864 84.63650345802307,14.09640908241272 84.63650345802307,14.09640908241272" stroke="white" stroke-width="0.1" /><polygon points="28.78689169883728,71.2109386920929 28.78689169883728,71.2109386920929 29.32942807674408,71.92043662071228 29.32942807674408,71.92043662071228 29.65494990348816,72.71972894668579 29.65494990348816,72.71972894668579 29.76345419883728,73.5643208026886 29.76345419883728,73.5643208026886 29.65467870235443,74.40850138664246 29.65467870235443,74.40850138664246 29.32942807674408,75.20779371261597 29.32942807674408,75.20779371261597 28.78689169883728,75.91688632965088 28.78689169883728,75.91688632965088 19.35763955116272,85.34505367279053 19.35763955116272,85.34505367279053 18.650174140930176,85.88758707046509 18.650174140930176,85.88758707046509 17.85074919462204,86.2131118774414 17.85074919462204,86.2131118774414 17.005208134651184,86.32161617279053 17.005208134651184,86.32161617279053 16.158583760261536,86.21283769607544 16.158583760261536,86.21283769607544 15.357258915901184,85.88758707046509 15.357258915901184,85.88758707046509 14.646267890930176,85.34505367279053 14.646267890930176,85.34505367279053 14.102919399738312,84.64016318321228 14.102919399738312,84.64016318321228 13.776583969593048,83.84128212928772 13.776583969593048,83.84128212928772 13.668078184127808,82.99438953399658 13.668078184127808,82.99438953399658 13.776583969593048,82.14491009712219 13.776583969593048,82.14491009712219 14.102376997470856,81.3389778137207 14.102376997470856,81.3389778137207 14.646267890930176,80.62174916267395 14.646267890930176,80.62174916267395 24.075521528720856,71.2109386920929 24.075521528720856,71.2109386920929 24.786783754825592,70.66894769668579 24.786783754825592,70.66894769668579 25.587835907936096,70.34355998039246 25.587835907936096,70.34355998039246 26.4336496591568,70.23519277572632 26.4336496591568,70.23519277572632 27.27864682674408,70.34342885017395 27.27864682674408,70.34342885017395 28.078070282936096,70.66867351531982 28.078070282936096,70.66867351531982" stroke="white" stroke-width="0.1" /><polygon points="85.34722328186035,85.34505367279053 85.34722328186035,85.34505367279053 84.63677763938904,85.88758707046509 84.63677763938904,85.88758707046509 83.8365375995636,86.2131118774414 83.8365375995636,86.2131118774414 82.99180865287781,86.32161617279053 82.99180865287781,86.32161617279053 82.1470856666565,86.21283769607544 82.1470856666565,86.21283769607544 81.34765625,85.88758707046509 81.34765625,85.88758707046509 80.63802123069763,85.34505367279053 80.63802123069763,85.34505367279053 71.21527791023254,75.91688632965088 71.21527791023254,75.91688632965088 70.67274451255798,75.20793080329895 70.67274451255798,75.20793080329895 70.34722566604614,74.40863847732544 70.34722566604614,74.40863847732544 70.23871541023254,73.5643208026886 70.23871541023254,73.5643208026886 70.34668326377869,72.71959185600281 70.34668326377869,72.71959185600281 70.6724762916565,71.92016839981079 70.6724762916565,71.92016839981079 71.21527791023254,71.2109386920929 71.21527791023254,71.2109386920929 71.92410230636597,70.66894769668579 71.92410230636597,70.66894769668579 72.72244095802307,70.34355998039246 72.72244095802307,70.34355998039246 73.56635332107544,70.23519277572632 73.56635332107544,70.23519277572632 74.41026568412781,70.34342885017395 74.41026568412781,70.34342885017395 75.21077394485474,70.66867351531982 75.21077394485474,70.66867351531982 75.92231035232544,71.2109386920929 75.92231035232544,71.2109386920929 85.34722328186035,80.62174916267395 85.34722328186035,80.62174916267395 85.89518666267395,81.3389778137207 85.89518666267395,81.3389778137207 86.22395992279053,82.14504718780518 86.22395992279053,82.14504718780518 86.33355498313904,82.99438953399658 86.33355498313904,82.99438953399658 86.22395992279053,83.84114503860474 86.22395992279053,83.84114503860474 85.89491248130798,84.63989496231079 85.89491248130798,84.63989496231079" stroke="white" stroke-width="0.1" /><polygon points="28.78689169883728,28.785806894302368 28.78689169883728,28.785806894302368 28.078612685203552,29.324817657470703 28.078612685203552,29.324817657470703 27.278918027877808,29.64816689491272 27.278918027877808,29.64816689491272 26.4336496591568,29.755860567092896 26.4336496591568,29.755860567092896 25.58729350566864,29.64789569377899 25.58729350566864,29.64789569377899 24.786512553691864,29.32468056678772 24.786512553691864,29.32468056678772 24.075521528720856,28.785806894302368 24.075521528720856,28.785806894302368 14.646267890930176,19.354383647441864 14.646267890930176,19.354383647441864 14.102919399738312,18.641765415668488 14.102919399738312,18.641765415668488 13.776583969593048,17.83989816904068 13.776583969593048,17.83989816904068 13.668078184127808,16.99395179748535 13.668078184127808,16.99395179748535 13.776583969593048,16.148681938648224 13.776583969593048,16.148681938648224 14.102376997470856,15.349392592906952 14.102376997470856,15.349392592906952 14.646267890930176,14.640842378139496 14.646267890930176,14.640842378139496 15.357530117034912,14.096544682979584 15.357530117034912,14.096544682979584 16.158854961395264,13.769802451133728 16.158854961395264,13.769802451133728 17.005208134651184,13.66102397441864 17.005208134651184,13.66102397441864 17.85047799348831,13.769666850566864 17.85047799348831,13.769666850566864 18.64963173866272,14.09640908241272 18.64963173866272,14.09640908241272 19.35763955116272,14.640842378139496 19.35763955116272,14.640842378139496 28.78689169883728,24.074436724185944 28.78689169883728,24.074436724185944 29.32942807674408,24.780544638633728 29.32942807674408,24.780544638633728 29.65494990348816,25.579020380973816 29.65494990348816,25.579020380973816 29.76345419883728,26.424425840377808 29.76345419883728,26.424425840377808 29.65467870235443,27.27091610431671 29.65467870235443,27.27091610431671 29.32942807674408,28.073322772979736 29.32942807674408,28.073322772979736" stroke="white" stroke-width="0.1" /><polygon points="50.0,26.5625 50.0,26.5625 56.22938275337219,27.39936113357544 56.22938275337219,27.39936113357544 61.82752847671509,29.761013388633728 61.82752847671509,29.761013388633728 66.57145619392395,33.42529237270355 66.57145619392395,33.42529237270355 70.23654580116272,38.16867470741272 70.23654580116272,38.16867470741272 72.59982824325562,43.76899003982544 72.59982824325562,43.76899003982544 73.4375,50.003254413604736 73.4375,50.003254413604736 72.6000964641571,56.23142123222351 72.6000964641571,56.23142123222351 70.23681998252869,61.829835176467896 70.23681998252869,61.829835176467896 66.57145619392395,66.57471060752869 66.57145619392395,66.57471060752869 61.82752847671509,70.24129629135132 61.82752847671509,70.24129629135132 56.22938275337219,72.60579466819763 56.22938275337219,72.60579466819763 50.0,73.44401478767395 50.0,73.44401478767395 43.77143085002899,72.6060688495636 43.77143085002899,72.6060688495636 38.17301392555237,70.24142742156982 38.17301392555237,70.24142742156982 33.42936336994171,66.57471060752869 33.42936336994171,66.57471060752869 29.76345419883728,61.829835176467896 29.76345419883728,61.829835176467896 27.399903535842896,56.231147050857544 27.399903535842896,56.231147050857544 26.5625,50.003254413604736 26.5625,50.003254413604736 27.400174736976624,43.76926124095917 27.400174736976624,43.76926124095917 29.76372539997101,38.16894590854645 29.76372539997101,38.16894590854645 33.42936336994171,33.42529237270355 33.42936336994171,33.42529237270355 38.17301392555237,29.761013388633728 38.17301392555237,29.761013388633728 43.77143085002899,27.399224042892456 43.77143085002899,27.399224042892456" stroke="white" stroke-width="0.1" /></svg>