<?xml version="1.0" encoding="utf-8" ?>
<svg baseProfile="full" height="54.00242805480957" version="1.1" width="99.99824166297913" xmlns="http://www.w3.org/2000/svg" xmlns:ev="http://www.w3.org/2001/xml-events" xmlns:xlink="http://www.w3.org/1999/xlink"><defs><clipPath /></defs><polygon points="6.382317841053009,1.9266491755843163 6.382317841053009,1.9266491755843163 6.382317841053009,51.37730836868286 6.382317841053009,51.37730836868286 4.585423320531845,50.06775259971619 4.585423320531845,50.06775259971619 3.0326925218105316,48.48316013813019 3.0326925218105316,48.48316013813019 1.7611142247915268,46.65912687778473 1.7611142247915268,46.65912687778473 0.8072384633123875,44.63118016719818 0.8072384633123875,44.63118016719818 0.2079439116641879,42.43484139442444 0.2079439116641879,42.43484139442444 0.0,40.1057094335556 0.0,40.1057094335556 0.0,13.19824904203415 0.0,13.19824904203415 0.20790728740394115,10.869079828262329 0.20790728740394115,10.869079828262329 0.8072017692029476,8.672741055488586 0.8072017692029476,8.672741055488586 1.7611142247915268,6.644830107688904 1.7611142247915268,6.644830107688904 3.0327657237648964,4.820779338479042 3.0327657237648964,4.820779338479042 4.58545982837677,3.2362233847379684 4.58545982837677,3.2362233847379684" stroke="white" stroke-width="0.1" /><polygon points="36.08834147453308,10.200458765029907 36.08834147453308,10.200458765029907 36.38674318790436,10.518930107355118 36.38674318790436,10.518930107355118 36.66302561759949,10.852745920419693 36.66302561759949,10.852745920419693 36.91689372062683,11.20128482580185 36.91689372062683,11.20128482580185 37.14805543422699,11.563849449157715 37.14805543422699,11.563849449157715 37.3563289642334,11.939892172813416 37.3563289642334,11.939892172813416 37.54152953624725,12.328679114580154 37.54152953624725,12.328679114580154 37.69739866256714,12.720561027526855 37.69739866256714,12.720561027526855 37.82506287097931,13.12679797410965 37.82506287097931,13.12679797410965 37.92445957660675,13.546605408191681 37.92445957660675,13.546605408191681 37.99550533294678,13.97908329963684 37.99550533294678,13.97908329963684 38.038209080696106,14.423426985740662 38.038209080696106,14.423426985740662 38.05249035358429,14.878793060779572 38.05249035358429,14.878793060779572 38.05249035358429,38.57986032962799 38.05249035358429,38.57986032962799 38.038209080696106,39.01803195476532 38.038209080696106,39.01803195476532 37.99535930156708,39.45072889328003 37.99535930156708,39.45072889328003 37.92387247085571,39.87718224525452 37.92387247085571,39.87718224525452 37.82356381416321,40.29654860496521 37.82356381416321,40.29654860496521 37.69461512565613,40.70819020271301 37.69461512565613,40.70819020271301 37.53684461116791,41.11122190952301 37.53684461116791,41.11122190952301 37.35101819038391,41.51271879673004 37.35101819038391,41.51271879673004 37.143149971961975,41.89884960651398 37.143149971961975,41.89884960651398 36.91396415233612,42.269086837768555 36.91396415233612,42.269086837768555 36.66401207447052,42.62290000915527 36.66401207447052,42.62290000915527 36.39402985572815,42.95979142189026 36.39402985572815,42.95979142189026 36.10474765300751,43.279290199279785 36.10474765300751,43.279290199279785 35.799387097358704,43.57278347015381 35.799387097358704,43.57278347015381 35.47674119472504,43.84569525718689 35.47674119472504,43.84569525718689 35.137614607810974,44.09758746623993 35.137614607810974,44.09758746623993 34.782594442367554,44.32772397994995 34.782594442367554,44.32772397994995 34.41252112388611,44.535669684410095 34.41252112388611,44.535669684410095 34.02809202671051,44.720759987831116 34.02809202671051,44.720759987831116 33.630990982055664,44.877249002456665 33.630990982055664,44.877249002456665 33.22415053844452,45.00473141670227 33.22415053844452,45.00473141670227 32.806357741355896,45.103394985198975 32.806357741355896,45.103394985198975 32.37640559673309,45.1735258102417 32.37640559673309,45.1735258102417 31.93323314189911,45.215460658073425 31.93323314189911,45.215460658073425 31.47563338279724,45.22937536239624 31.47563338279724,45.22937536239624 16.922634840011597,45.22937536239624 16.922634840011597,45.22937536239624 16.922634840011597,8.231619745492935 16.922634840011597,8.231619745492935 31.47563338279724,8.231619745492935 31.47563338279724,8.231619745492935 31.911811232566833,8.245554566383362 31.911811232566833,8.245554566383362 32.33747482299805,8.287616074085236 32.33747482299805,8.287616074085236 32.75391459465027,8.358187973499298 32.75391459465027,8.358187973499298 33.16229283809662,8.45765545964241 33.16229283809662,8.45765545964241 33.563971519470215,8.586439490318298 33.563971519470215,8.586439490318298 33.960118889808655,8.744924515485764 33.960118889808655,8.744924515485764 34.346964955329895,8.929429948329926 34.346964955329895,8.929429948329926 34.72176194190979,9.137904644012451 34.72176194190979,9.137904644012451 35.08399724960327,9.369854629039764 35.08399724960327,9.369854629039764 35.43286621570587,9.624620527029037 35.43286621570587,9.624620527029037 35.76789200305939,9.901708364486694 35.76789200305939,9.901708364486694" stroke="white" stroke-width="0.1" /><polygon points="61.514484882354736,25.498801469802856 61.514484882354736,25.498801469802856 59.60519313812256,25.920990109443665 59.60519313812256,25.920990109443665 58.025068044662476,26.65882706642151 58.025068044662476,26.65882706642151 56.75880312919617,27.64372229576111 56.75880312919617,27.64372229576111 55.7909369468689,28.806933760643005 55.7909369468689,28.806933760643005 55.106163024902344,30.07977604866028 55.106163024902344,30.07977604866028 54.68917489051819,31.39359951019287 54.68917489051819,31.39359951019287 54.55923676490784,32.17415809631348 54.55923676490784,32.17415809631348 54.510897397994995,32.955724000930786 54.510897397994995,32.955724000930786 54.54268455505371,33.732765913009644 54.54268455505371,33.732765913009644 54.653358459472656,34.49960947036743 54.653358459472656,34.49960947036743 54.841673374176025,35.25074124336243 54.841673374176025,35.25074124336243 55.10638356208801,35.98052263259888 55.10638356208801,35.98052263259888 55.06895184516907,36.20857298374176 55.06895184516907,36.20857298374176 55.0406813621521,36.432960629463196 55.0406813621521,36.432960629463196 55.020833015441895,36.65320873260498 55.020833015441895,36.65320873260498 55.008745193481445,36.86871528625488 55.008745193481445,36.86871528625488 55.00391125679016,37.07907795906067 55.00391125679016,37.07907795906067 55.005598068237305,37.28370666503906 55.005598068237305,37.28370666503906 55.026692152023315,38.19077908992767 55.026692152023315,38.19077908992767 55.03137707710266,38.34547400474548 55.03137707710266,38.34547400474548 54.959601163864136,38.59461843967438 54.959601163864136,38.59461843967438 54.89005446434021,38.87203633785248 54.89005446434021,38.87203633785248 54.82687950134277,39.17607665061951 54.82687950134277,39.17607665061951 54.77417707443237,39.50487673282623 54.77417707443237,39.50487673282623 54.73631024360657,39.856746792793274 54.73631024360657,39.856746792793274 54.717302322387695,40.22993445396423 54.717302322387695,40.22993445396423 54.64932918548584,43.95197629928589 54.64932918548584,43.95197629928589 54.58136200904846,47.746676206588745 54.58136200904846,47.746676206588745 54.57696318626404,47.85225987434387 54.57696318626404,47.85225987434387 54.57081198692322,47.964656352996826 54.57081198692322,47.964656352996826 54.56348657608032,48.083314299583435 54.56348657608032,48.083314299583435 54.55506443977356,48.207610845565796 54.55506443977356,48.207610845565796 54.54609394073486,48.33703637123108 54.54609394073486,48.33703637123108 54.53682541847229,48.47092926502228 54.53682541847229,48.47092926502228 54.48840856552124,49.4082510471344 54.48840856552124,49.4082510471344 54.480135440826416,50.29027462005615 54.480135440826416,50.29027462005615 54.50987219810486,51.11919045448303 54.50987219810486,51.11919045448303 54.5754611492157,51.89709663391113 54.5754611492157,51.89709663391113 54.67504262924194,52.62618064880371 54.67504262924194,52.62618064880371 54.80636954307556,53.308647871017456 54.80636954307556,53.308647871017456 40.241652727127075,53.308647871017456 40.241652727127075,53.308647871017456 40.84189832210541,52.9290497303009 40.84189832210541,52.9290497303009 41.42548143863678,52.52814292907715 41.42548143863678,52.52814292907715 41.99134111404419,52.1053671836853 41.99134111404419,52.1053671836853 42.53837466239929,51.66010856628418 42.53837466239929,51.66010856628418 43.065741658210754,51.19184851646423 43.065741658210754,51.19184851646423 43.57227087020874,50.69993734359741 43.57227087020874,50.69993734359741 44.317322969436646,49.8926967382431 44.317322969436646,49.8926967382431 45.00967562198639,49.042388796806335 45.00967562198639,49.042388796806335 45.64863443374634,48.150405287742615 45.64863443374634,48.150405287742615 46.233463287353516,47.21817374229431 46.233463287353516,47.21817374229431 46.763503551483154,46.247121691703796 46.763503551483154,46.247121691703796 47.23806083202362,45.23875117301941 47.23806083202362,45.23875117301941 47.65193462371826,44.1880464553833 47.65193462371826,44.1880464553833 47.99095094203949,43.111300468444824 47.99095094203949,43.111300468444824 48.25499951839447,42.01038479804993 48.25499951839447,42.01038479804993 48.44375550746918,40.886980295181274 48.44375550746918,40.886980295181274 48.55721294879913,39.742887020111084 48.55721294879913,39.742887020111084 48.59515130519867,38.57986032962799 48.59515130519867,38.57986032962799 48.59515130519867,14.878793060779572 48.59515130519867,14.878793060779572 48.55732023715973,13.716113567352295 48.55732023715973,13.716113567352295 48.44386279582977,12.57288008928299 48.44386279582977,12.57288008928299 48.25499951839447,11.450612545013428 48.25499951839447,11.450612545013428 47.99087643623352,10.350795090198517 47.99087643623352,10.350795090198517 47.6518988609314,9.274965524673462 47.6518988609314,9.274965524673462 47.23806083202362,8.224588632583618 47.23806083202362,8.224588632583618 46.76339328289032,7.213251292705536 46.76339328289032,7.213251292705536 46.23298645019531,6.240386515855789 46.23298645019531,6.240386515855789 45.6477552652359,5.307367444038391 45.6477552652359,5.307367444038391 45.00854015350342,4.415548965334892 45.00854015350342,4.415548965334892 44.31644380092621,3.5663407295942307 44.31644380092621,3.5663407295942307 43.57227087020874,2.7610616758465767 43.57227087020874,2.7610616758465767 43.02944839000702,2.2352322936058044 43.02944839000702,2.2352322936058044 42.463260889053345,1.735844649374485 42.463260889053345,1.735844649374485 41.874733567237854,1.2627520598471165 41.874733567237854,1.2627520598471165 41.264671087265015,0.8158081211149693 41.264671087265015,0.8158081211149693 40.63402712345123,0.3949396312236786 40.63402712345123,0.3949396312236786 39.983826875686646,0.0 39.983826875686646,0.0 71.2836742401123,0.0 71.2836742401123,0.0 74.78099465370178,0.47373343259096146 74.78099465370178,0.47373343259096146 77.93055176734924,1.8091816455125809 77.93055176734924,1.8091816455125809 80.6040108203888,3.8779087364673615 80.6040108203888,3.8779087364673615 82.67268538475037,6.551313400268555 82.67268538475037,6.551313400268555 84.00816917419434,9.700942784547806 84.00816917419434,9.700942784547806 84.48192477226257,13.19824904203415 84.48192477226257,13.19824904203415 84.48192477226257,19.786827266216278 84.48192477226257,19.786827266216278 83.87552499771118,19.76012885570526 83.87552499771118,19.76012885570526 83.26765894889832,19.73491460084915 83.26765894889832,19.73491460084915 82.6578140258789,19.712702929973602 82.6578140258789,19.712702929973602 82.04512000083923,19.69495862722397 82.04512000083923,19.69495862722397 81.42919540405273,19.683238863945007 81.42919540405273,19.683238863945007 80.80909848213196,19.679009914398193 80.80909848213196,19.679009914398193 80.33168911933899,19.680364429950714 80.33168911933899,19.680364429950714 79.851633310318,19.68439370393753 79.851633310318,19.68439370393753 79.36968207359314,19.691021740436554 79.36968207359314,19.691021740436554 78.88669967651367,19.70015913248062 78.88669967651367,19.70015913248062 78.4037172794342,19.711823761463165 78.4037172794342,19.711823761463165 77.92146801948547,19.7258859872818 77.92146801948547,19.7258859872818 77.60973572731018,19.73760575056076 77.60973572731018,19.73760575056076 76.3335108757019,19.778843224048615 76.3335108757019,19.778843224048615 75.0440239906311,19.826819002628326 75.0440239906311,19.826819002628326 73.74237775802612,19.887612760066986 73.74237775802612,19.887612760066986 72.42981791496277,19.967101514339447 72.42981791496277,19.967101514339447 71.10744118690491,20.071348547935486 71.10744118690491,20.071348547935486 69.77657079696655,20.206376910209656 69.77657079696655,20.206376910209656 69.60078477859497,20.227470993995667 69.60078477859497,20.227470993995667 68.80936622619629,20.322653651237488 68.80936622619629,20.322653651237488 67.89460182189941,20.474693179130554 67.89460182189941,20.474693179130554 66.89392328262329,20.722611248493195 66.89392328262329,20.722611248493195 65.84504842758179,21.105244755744934 65.84504842758179,21.105244755744934 64.78548049926758,21.661636233329773 64.78548049926758,21.661636233329773 63.7528657913208,22.430695593357086 63.7528657913208,22.430695593357086 63.21158409118652,22.95568287372589 63.21158409118652,22.95568287372589 62.74911165237427,23.49436581134796 62.74911165237427,23.49436581134796 62.3568058013916,24.03242737054825 62.3568058013916,24.03242737054825 62.02602982521057,24.555419385433197 62.02602982521057,24.555419385433197 61.74813508987427,25.04900097846985 61.74813508987427,25.04900097846985" stroke="white" stroke-width="0.1" /><polygon points="99.99824166297913,51.26948952674866 99.99824166297913,51.26948952674866 99.99355673789978,51.685672998428345 99.99355673789978,51.685672998428345 99.95312690734863,52.08936333656311 99.95312690734863,52.08936333656311 99.86435174942017,52.47569680213928 99.86435174942017,52.47569680213928 99.7139036655426,52.839505672454834 99.7139036655426,52.839505672454834 99.48903918266296,53.17589044570923 99.48903918266296,53.17589044570923 99.17672276496887,53.47974896430969 99.17672276496887,53.47974896430969 98.90278577804565,53.66000533103943 98.90278577804565,53.66000533103943 98.61295223236084,53.78909707069397 98.61295223236084,53.78909707069397 98.31008315086365,53.87527346611023 98.31008315086365,53.87527346611023 97.99695611000061,53.92661690711975 97.99695611000061,53.92661690711975 97.67665266990662,53.95144820213318 97.67665266990662,53.95144820213318 97.35203385353088,53.9578914642334 97.35203385353088,53.9578914642334 96.96617722511292,53.956979513168335 96.96617722511292,53.956979513168335 96.2112307548523,53.95481586456299 96.2112307548523,53.95481586456299 95.26512026786804,53.95203232765198 95.26512026786804,53.95203232765198 94.3058967590332,53.9492130279541 94.3058967590332,53.9492130279541 93.51162314414978,53.94705533981323 93.51162314414978,53.94705533981323 93.0604338645935,53.94617319107056 93.0604338645935,53.94617319107056 92.52442121505737,53.93221974372864 92.52442121505737,53.93221974372864 92.0039415359497,53.87454032897949 92.0039415359497,53.87454032897949 91.51304960250854,53.749293088912964 91.51304960250854,53.749293088912964 91.06552004814148,53.53263020515442 91.06552004814148,53.53263020515442 90.67548513412476,53.20071578025818 90.67548513412476,53.20071578025818 90.35679697990417,52.729713916778564 90.35679697990417,52.729713916778564 90.23051857948303,52.41526961326599 90.23051857948303,52.41526961326599 90.15405178070068,52.08885073661804 90.15405178070068,52.08885073661804 90.11493921279907,51.75437927246094 90.11493921279907,51.75437927246094 90.10043740272522,51.41576528549194 90.10043740272522,51.41576528549194 90.09809494018555,51.077038049697876 90.09809494018555,51.077038049697876 90.095454454422,50.742125511169434 90.095454454422,50.742125511169434 90.09179472923279,50.6536066532135 90.09179472923279,50.6536066532135 90.08373618125916,50.58947801589966 90.08373618125916,50.58947801589966 90.0692343711853,50.54612159729004 90.0692343711853,50.54612159729004 90.04660248756409,50.51971673965454 90.04660248756409,50.51971673965454 90.01415371894836,50.506603717803955 90.01415371894836,50.506603717803955 89.97005820274353,50.50305128097534 89.97005820274353,50.50305128097534 89.94207978248596,50.50371289253235 89.94207978248596,50.50371289253235 89.91087675094604,50.50542950630188 89.91087675094604,50.50542950630188 89.87601399421692,50.50773620605469 89.87601399421692,50.50773620605469 89.83697295188904,50.51000714302063 89.83697295188904,50.51000714302063 89.793461561203,50.51172971725464 89.793461561203,50.51172971725464 89.74505066871643,50.51242709159851 89.74505066871643,50.51242709159851 86.2456738948822,50.51242709159851 86.2456738948822,50.51242709159851 79.79772686958313,50.51242709159851 79.79772686958313,50.51242709159851 79.35473918914795,50.51242709159851 79.35473918914795,50.51242709159851 72.831791639328,50.51242709159851 72.831791639328,50.51242709159851 69.81173157691956,50.51242709159851 69.81173157691956,50.51242709159851 69.71241235733032,50.573623180389404 69.71241235733032,50.573623180389404 69.66363191604614,50.73106288909912 69.66363191604614,50.73106288909912 69.65088248252869,50.945454835891724 69.65088248252869,50.945454835891724 69.65938210487366,51.177388429641724 69.65938210487366,51.177388429641724 69.67453956604004,51.387566328048706 69.67453956604004,51.387566328048706 69.68164443969727,51.536691188812256 69.68164443969727,51.536691188812256 69.65879201889038,51.87156796455383 69.65879201889038,51.87156796455383 69.60107684135437,52.19443440437317 69.60107684135437,52.19443440437317 69.50703263282776,52.502357959747314 69.50703263282776,52.502357959747314 69.37504410743713,52.7923047542572 69.37504410743713,52.7923047542572 69.20364499092102,53.06129455566406 69.20364499092102,53.06129455566406 68.9913809299469,53.306299448013306 68.9913809299469,53.306299448013306 68.93659234046936,53.3591091632843 68.93659234046936,53.3591091632843 68.88092756271362,53.41166853904724 68.88092756271362,53.41166853904724 68.82364749908447,53.46333980560303 68.82364749908447,53.46333980560303 68.76381039619446,53.51343750953674 68.76381039619446,53.51343750953674 68.70089173316956,53.56130599975586 68.70089173316956,53.56130599975586 68.63394379615784,53.60631346702576 68.63394379615784,53.60631346702576 68.36909055709839,53.74533534049988 68.36909055709839,53.74533534049988 68.08145046234131,53.8490891456604 68.08145046234131,53.8490891456604 67.7755057811737,53.922152519226074 67.7755057811737,53.922152519226074 67.45542287826538,53.96902561187744 67.45542287826538,53.96902561187744 67.12567210197449,53.99426221847534 67.12567210197449,53.99426221847534 66.79050326347351,54.00242805480957 66.79050326347351,54.00242805480957 66.75300002098083,54.00242805480957 66.75300002098083,54.00242805480957 66.71081185340881,54.00242805480957 66.71081185340881,54.00242805480957 66.3144052028656,54.00106906890869 66.3144052028656,54.00106906890869 65.6780481338501,53.999531269073486 65.6780481338501,53.999531269073486 64.91146087646484,53.998035192489624 64.91146087646484,53.998035192489624 64.12466168403625,53.99671196937561 64.12466168403625,53.99671196937561 63.42765688896179,53.99576425552368 63.42765688896179,53.99576425552368 62.93017268180847,53.995394706726074 62.93017268180847,53.995394706726074 62.72655129432678,53.9939284324646 62.72655129432678,53.9939284324646 62.522852420806885,53.989386558532715 62.522852420806885,53.989386558532715 62.3196005821228,53.98133397102356 62.3196005821228,53.98133397102356 62.11699843406677,53.969359397888184 62.11699843406677,53.969359397888184 61.915719509124756,53.95309329032898 61.915719509124756,53.95309329032898 61.71605587005615,53.93211245536804 61.71605587005615,53.93211245536804 61.44753694534302,53.88669967651367 61.44753694534302,53.88669967651367 61.20480298995972,53.81513833999634 61.20480298995972,53.81513833999634 60.9860897064209,53.71940732002258 60.9860897064209,53.71940732002258 60.789722204208374,53.60137224197388 60.789722204208374,53.60137224197388 60.614001750946045,53.46301198005676 60.614001750946045,53.46301198005676 60.45740246772766,53.306299448013306 60.45740246772766,53.306299448013306 60.022181272506714,52.56623029708862 60.022181272506714,52.56623029708862 59.79834198951721,51.65282487869263 59.79834198951721,51.65282487869263 59.72817540168762,50.644856691360474 59.72817540168762,50.644856691360474 59.75337028503418,49.62124824523926 59.75337028503418,49.62124824523926 59.816139936447144,48.66092801094055 59.816139936447144,48.66092801094055 59.858548641204834,47.84277379512787 59.858548641204834,47.84277379512787 59.88155007362366,46.590131521224976 59.88155007362366,46.590131521224976 59.90484356880188,45.33785283565521 59.90484356880188,45.33785283565521 59.928423166275024,44.08586919307709 59.928423166275024,44.08586919307709 59.95200872421265,42.83406734466553 59.95200872421265,42.83406734466553 59.97567176818848,41.5823370218277 59.97567176818848,41.5823370218277 59.99917984008789,40.33071994781494 59.99917984008789,40.33071994781494 60.027015209198,40.09591341018677 60.027015209198,40.09591341018677 60.09015440940857,39.86167311668396 60.09015440940857,39.86167311668396 60.170137882232666,39.63019847869873 60.170137882232666,39.63019847869873 60.24843454360962,39.40357863903046 60.24843454360962,39.40357863903046 60.30659079551697,39.184024930000305 60.30659079551697,39.184024930000305 60.32614707946777,38.973626494407654 60.32614707946777,38.973626494407654 60.31992435455322,38.67007791996002 60.31992435455322,38.67007791996002 60.31296253204346,38.36653232574463 60.31296253204346,38.36653232574463 60.3057861328125,38.063037395477295 60.3057861328125,38.063037395477295 60.298168659210205,37.759509682655334 60.298168659210205,37.759509682655334 60.29047966003418,37.455978989601135 60.29047966003418,37.455978989601135 60.28278470039368,37.152451276779175 60.28278470039368,37.152451276779175 60.382914543151855,36.74158155918121 60.382914543151855,36.74158155918121 60.66043972969055,36.43746376037598 60.66043972969055,36.43746376037598 61.04556322097778,36.19498610496521 61.04556322097778,36.19498610496521 61.46841049194336,35.96889674663544 61.46841049194336,35.96889674663544 61.85932159423828,35.71401834487915 61.85932159423828,35.71401834487915 62.14849352836609,35.3851854801178 62.14849352836609,35.3851854801178 62.11099624633789,35.3851854801178 62.11099624633789,35.3851854801178 61.4050567150116,35.273098945617676 61.4050567150116,35.273098945617676 60.793161392211914,34.96290445327759 60.793161392211914,34.96290445327759 60.30344367027283,34.493640065193176 60.30344367027283,34.493640065193176 59.963732957839966,33.90419781208038 59.963732957839966,33.90419781208038 59.80222225189209,33.23367238044739 59.80222225189209,33.23367238044739 59.84683036804199,32.520991563797 59.84683036804199,32.520991563797 60.08985638618469,31.8671852350235 60.08985638618469,31.8671852350235 60.471177101135254,31.38539493083954 60.471177101135254,31.38539493083954 60.962504148483276,31.051981449127197 60.962504148483276,31.051981449127197 61.53587102890015,30.843141674995422 61.53587102890015,30.843141674995422 62.16321587562561,30.735230445861816 62.16321587562561,30.735230445861816 62.81649470329285,30.704504251480103 62.81649470329285,30.704504251480103 63.129401206970215,30.704504251480103 63.129401206970215,30.704504251480103 63.37389349937439,30.706939101219177 63.37389349937439,30.706939101219177 63.61648440361023,30.71800172328949 63.61648440361023,30.71800172328949 63.85687589645386,30.743178725242615 63.85687589645386,30.743178725242615 64.09462690353394,30.787840485572815 64.09462690353394,30.787840485572815 64.32960033416748,30.857515335083008 64.32960033416748,30.857515335083008 64.56149816513062,30.957642197608948 64.56149816513062,30.957642197608948 64.69070315361023,30.7220458984375 64.69070315361023,30.7220458984375 64.82020020484924,30.486324429512024 64.82020020484924,30.486324429512024 64.95028138160706,30.25038242340088 64.95028138160706,30.25038242340088 65.08044004440308,30.0140380859375 65.08044004440308,30.0140380859375 65.21067023277283,29.777145385742188 65.21067023277283,29.777145385742188 65.34082889556885,29.5396089553833 65.34082889556885,29.5396089553833 65.43003916740417,29.37769889831543 65.43003916740417,29.37769889831543 65.51859378814697,29.215514659881592 65.51859378814697,29.215514659881592 65.60685634613037,29.053258895874023 65.60685634613037,29.053258895874023 65.69511294364929,28.890982270240784 65.69511294364929,28.890982270240784 65.78366756439209,28.728818893432617 65.78366756439209,28.728818893432617 65.8728837966919,28.566908836364746 65.8728837966919,28.566908836364746 66.06727838516235,28.197568655014038 66.06727838516235,28.197568655014038 66.26371741294861,27.810245752334595 66.26371741294861,27.810245752334595 66.47100448608398,27.420470118522644 66.47100448608398,27.420470118522644 66.6976273059845,27.043750882148743 66.6976273059845,27.043750882148743 66.95244908332825,26.695668697357178 66.95244908332825,26.695668697357178 67.24403500556946,26.391810178756714 67.24403500556946,26.391810178756714 67.68834590911865,26.080462336540222 67.68834590911865,26.080462336540222 68.19183230400085,25.854337215423584 68.19183230400085,25.854337215423584 68.73355507850647,25.695979595184326 68.73355507850647,25.695979595184326 69.29242014884949,25.58777630329132 69.29242014884949,25.58777630329132 69.84747648239136,25.512278079986572 69.84747648239136,25.512278079986572 70.37777304649353,25.45192539691925 70.37777304649353,25.45192539691925 71.65810465812683,25.322720408439636 71.65810465812683,25.322720408439636 72.94216752052307,25.223857164382935 72.94216752052307,25.223857164382935 74.22887086868286,25.14898180961609 74.22887086868286,25.14898180961609 75.51681995391846,25.091665983200073 75.51681995391846,25.091665983200073 76.80476903915405,25.04555881023407 76.80476903915405,25.04555881023407 78.09140086174011,25.004249811172485 78.09140086174011,25.004249811172485 78.54288816452026,24.991321563720703 78.54288816452026,24.991321563720703 78.99510264396667,24.98077303171158 78.99510264396667,24.98077303171158 79.44790720939636,24.97260719537735 79.44790720939636,24.97260719537735 79.90100383758545,24.96674656867981 79.90100383758545,24.96674656867981 80.35439252853394,24.96323138475418 80.35439252853394,24.96323138475418 80.80793023109436,24.962058663368225 80.80793023109436,24.962058663368225 81.4190149307251,24.965593218803406 81.4190149307251,24.965593218803406 82.03105330467224,24.975647032260895 82.03105330467224,24.975647032260895 82.64390230178833,24.99135732650757 82.64390230178833,24.99135732650757 83.25718641281128,25.01170039176941 83.25718641281128,25.01170039176941 83.8706910610199,25.035855174064636 83.8706910610199,25.035855174064636 84.48426723480225,25.062844157218933 84.48426723480225,25.062844157218933 85.34482717514038,25.108367204666138 85.34482717514038,25.108367204666138 86.20465397834778,25.161489844322205 86.20465397834778,25.161489844322205 87.06324100494385,25.223693251609802 87.06324100494385,25.223693251609802 87.9199206829071,25.29618740081787 87.9199206829071,25.29618740081787 88.77425193786621,25.380420684814453 88.77425193786621,25.380420684814453 89.62551355361938,25.477707386016846 89.62551355361938,25.477707386016846 90.13713002204895,25.541412830352783 90.13713002204895,25.541412830352783 90.66969752311707,25.621965527534485 90.66969752311707,25.621965527534485 91.20351076126099,25.736117362976074 91.20351076126099,25.736117362976074 91.71850085258484,25.900626182556152 91.71850085258484,25.900626182556152 92.19489097595215,26.13237500190735 92.19489097595215,26.13237500190735 92.6127552986145,26.448065042495728 92.6127552986145,26.448065042495728 92.76217818260193,26.60651206970215 92.76217818260193,26.60651206970215 92.89563298225403,26.777485013008118 92.89563298225403,26.777485013008118 93.01663041114807,26.95785164833069 93.01663041114807,26.95785164833069 93.12869906425476,27.14444398880005 93.12869906425476,27.14444398880005 93.23541522026062,27.33418643474579 93.23541522026062,27.33418643474579 93.34052205085754,27.523893117904663 93.34052205085754,27.523893117904663 93.51616501808167,27.83716320991516 93.51616501808167,27.83716320991516 93.69078278541565,28.151148557662964 93.69078278541565,28.151148557662964 93.8646674156189,28.46583127975464 93.8646674156189,28.46583127975464 94.03789043426514,28.78107726573944 94.03789043426514,28.78107726573944 94.21067833900452,29.09683883190155 94.21067833900452,29.09683883190155 94.38353776931763,29.413041472434998 94.38353776931763,29.413041472434998 94.94137763977051,30.42324185371399 94.94137763977051,30.42324185371399 95.02267837524414,30.57539165019989 95.02267837524414,30.57539165019989 95.08698582649231,30.691981315612793 95.08698582649231,30.691981315612793 95.14089822769165,30.776578187942505 95.14089822769165,30.776578187942505 95.19055485725403,30.832648277282715 95.19055485725403,30.832648277282715 95.24263739585876,30.863705277442932 95.24263739585876,30.863705277442932 95.30349969863892,30.873262882232666 95.30349969863892,30.873262882232666 95.34759521484375,30.869507789611816 95.34759521484375,30.869507789611816 95.40018439292908,30.859088897705078 95.40018439292908,30.859088897705078 95.46317458152771,30.843085050582886 95.46317458152771,30.843085050582886 95.53796052932739,30.822578072547913 95.53796052932739,30.822578072547913 95.62636613845825,30.798661708831787 95.62636613845825,30.798661708831787 95.73008418083191,30.772477388381958 95.73008418083191,30.772477388381958 95.82310318946838,30.750319361686707 95.82310318946838,30.750319361686707 95.9160566329956,30.73294162750244 95.9160566329956,30.73294162750244 96.00943922996521,30.72003424167633 96.00943922996521,30.72003424167633 96.10341787338257,30.711188912391663 96.10341787338257,30.711188912391663 96.19848728179932,30.70613443851471 96.19848728179932,30.70613443851471 96.29495143890381,30.704504251480103 96.29495143890381,30.704504251480103 97.15514779090881,30.704504251480103 97.15514779090881,30.704504251480103 97.53221273422241,30.710840225219727 97.53221273422241,30.710840225219727 97.89932370185852,30.738160014152527 97.89932370185852,30.738160014152527 98.25485348701477,30.79884648323059 98.25485348701477,30.79884648323059 98.59698414802551,30.90519905090332 98.59698414802551,30.90519905090332 98.9240288734436,31.069651246070862 98.9240288734436,31.069651246070862 99.23414587974548,31.304532289505005 99.23414587974548,31.304532289505005 99.80267882347107,32.09182918071747 99.80267882347107,32.09182918071747 99.98564720153809,32.98331797122955 99.98564720153809,32.98331797122955 99.82421398162842,33.868709206581116 99.82421398162842,33.868709206581116 99.35954213142395,34.637659788131714 99.35954213142395,34.637659788131714 98.63309264183044,35.17993092536926 98.63309264183044,35.17993092536926 97.68602848052979,35.3851854801178 97.68602848052979,35.3851854801178 97.64853119850159,35.3851854801178 97.64853119850159,35.3851854801178 97.88005948066711,35.625410079956055 97.88005948066711,35.625410079956055 98.25368523597717,35.86737811565399 98.25368523597717,35.86737811565399 98.68685603141785,36.11002266407013 98.68685603141785,36.11002266407013 99.09695982933044,36.35224401950836 99.09695982933044,36.35224401950836 99.40143823623657,36.59301996231079 99.40143823623657,36.59301996231079 99.51775670051575,36.83134317398071 99.51775670051575,36.83134317398071 99.51028227806091,37.11007833480835 99.51028227806091,37.11007833480835 99.50317740440369,37.38855719566345 99.50317740440369,37.38855719566345 99.4965136051178,37.66692578792572 99.4965136051178,37.66692578792572 99.4900643825531,37.94525861740112 99.4900643825531,37.94525861740112 99.48384165763855,38.22377622127533 99.48384165763855,38.22377622127533 99.4779109954834,38.502511382102966 99.4779109954834,38.502511382102966 99.49519634246826,38.79263699054718 99.49519634246826,38.79263699054718 99.54968690872192,39.062657952308655 99.54968690872192,39.062657952308655 99.62425231933594,39.322566986083984 99.62425231933594,39.322566986083984 99.70130920410156,39.582258462905884 99.70130920410156,39.582258462905884 99.76378679275513,39.85169231891632 99.76378679275513,39.85169231891632 99.79432821273804,40.14086723327637 99.79432821273804,40.14086723327637 99.82816576957703,41.99665188789368 99.82816576957703,41.99665188789368 99.8620092868805,43.851593136787415 99.8620092868805,43.851593136787415 99.89584684371948,45.70605754852295 99.89584684371948,45.70605754852295 99.92976188659668,47.560304403305054 99.92976188659668,47.560304403305054 99.96381998062134,49.414658546447754 99.96381998062134,49.414658546447754" stroke="white" stroke-width="0.1" /><polygon points="65.77444076538086,36.77977919578552 65.77444076538086,36.77977919578552 65.69914221763611,36.78157329559326 65.69914221763611,36.78157329559326 65.62545895576477,36.78660690784454 65.62545895576477,36.78660690784454 65.55324196815491,36.794134974479675 65.55324196815491,36.794134974479675 65.48189520835876,36.80340051651001 65.48189520835876,36.80340051651001 65.4112160205841,36.81369125843048 65.4112160205841,36.81369125843048 65.34082889556885,36.82430982589722 65.34082889556885,36.82430982589722 63.99845480918884,37.37310171127319 63.99845480918884,37.37310171127319 63.19297552108765,38.428789377212524 63.19297552108765,38.428789377212524 62.92460560798645,39.738017320632935 62.92460560798645,39.738017320632935 63.193053007125854,41.04742705821991 63.193053007125854,41.04742705821991 63.99853229522705,42.10369884967804 63.99853229522705,42.10369884967804 65.34082889556885,42.65348017215729 65.34082889556885,42.65348017215729 65.41114449501038,42.662304639816284 65.41114449501038,42.662304639816284 65.48189520835876,42.67168045043945 65.48189520835876,42.67168045043945 65.55324196815491,42.68072545528412 65.55324196815491,42.68072545528412 65.62560796737671,42.688342928886414 65.62560796737671,42.688342928886414 65.69921970367432,42.693692445755005 65.69921970367432,42.693692445755005 65.77444076538086,42.69566833972931 65.77444076538086,42.69566833972931 67.36430525779724,42.25742220878601 67.36430525779724,42.25742220878601 68.31825375556946,41.16188883781433 68.31825375556946,41.16188883781433 68.63628625869751,39.737722277641296 68.63628625869751,39.737722277641296 68.31825375556946,38.31353783607483 68.31825375556946,38.31353783607483 67.36438274383545,37.21798658370972 67.36438274383545,37.21798658370972" stroke="white" stroke-width="0.1" /><polygon points="89.31729793548584,39.18457329273224 89.31729793548584,39.18457329273224 89.16025757789612,38.802194595336914 89.16025757789612,38.802194595336914 88.95641565322876,38.45151364803314 88.95641565322876,38.45151364803314 88.70203495025635,38.14946711063385 88.70203495025635,38.14946711063385 88.39322924613953,37.91281282901764 88.39322924613953,37.91281282901764 88.02656531333923,37.75844871997833 88.02656531333923,37.75844871997833 87.5980794429779,37.70325779914856 87.5980794429779,37.70325779914856 72.58802652359009,37.70325779914856 72.58802652359009,37.70325779914856 71.96690440177917,37.797725200653076 71.96690440177917,37.797725200653076 71.49549722671509,38.05670440196991 71.49549722671509,38.05670440196991 71.14216089248657,38.44362199306488 71.14216089248657,38.44362199306488 70.87488770484924,38.92171382904053 70.87488770484924,38.92171382904053 70.66196203231812,39.454373717308044 70.66196203231812,39.454373717308044 70.47152519226074,40.004923939704895 70.47152519226074,40.004923939704895 70.39681673049927,40.465983748435974 70.39681673049927,40.465983748435974 70.51166296005249,40.78390598297119 70.51166296005249,40.78390598297119 70.76714634895325,40.985241532325745 70.76714634895325,40.985241532325745 71.114182472229,41.09629988670349 71.114182472229,41.09629988670349 71.50384783744812,41.143542528152466 71.50384783744812,41.143542528152466 71.88721299171448,41.15341305732727 71.88721299171448,41.15341305732727 88.81102204322815,41.15341305732727 88.81102204322815,41.15341305732727 89.29839730262756,41.055721044540405 89.29839730262756,41.055721044540405 89.5497739315033,40.79712629318237 89.5497739315033,40.79712629318237 89.62141275405884,40.42915999889374 89.62141275405884,40.42915999889374 89.56911563873291,40.003347396850586 89.56911563873291,40.003347396850586 89.4490659236908,39.571309089660645 89.4490659236908,39.571309089660645" stroke="white" stroke-width="0.1" /><polygon points="94.32845711708069,34.23435091972351 94.32845711708069,34.23435091972351 93.8982903957367,33.45014750957489 93.8982903957367,33.45014750957489 93.46796870231628,32.6656699180603 93.46796870231628,32.6656699180603 93.03758144378662,31.881120800971985 93.03758144378662,31.881120800971985 92.60667562484741,31.096532940864563 92.60667562484741,31.096532940864563 92.17526316642761,30.31209111213684 92.17526316642761,30.31209111213684 91.74318313598633,29.52789068222046 91.74318313598633,29.52789068222046 91.63727164268494,29.30992841720581 91.63727164268494,29.30992841720581 91.51759147644043,29.041558504104614 91.51759147644043,29.041558504104614 91.38179421424866,28.755882382392883 91.38179421424866,28.755882382392883 91.22768640518188,28.486010432243347 91.22768640518188,28.486010432243347 91.05321168899536,28.265100717544556 91.05321168899536,28.265100717544556 90.85603356361389,28.12626361846924 90.85603356361389,28.12626361846924 90.54613709449768,28.01819145679474 90.54613709449768,28.01819145679474 90.220707654953,27.939945459365845 90.220707654953,27.939945459365845 89.88611698150635,27.884259819984436 89.88611698150635,27.884259819984436 89.54867720603943,27.843773365020752 89.54867720603943,27.843773365020752 89.21475410461426,27.8112530708313 89.21475410461426,27.8112530708313 88.89071345329285,27.77937352657318 88.89071345329285,27.77937352657318 88.15591335296631,27.707043290138245 88.15591335296631,27.707043290138245 87.42141127586365,27.642202377319336 87.42141127586365,27.642202377319336 86.68705224990845,27.584540843963623 86.68705224990845,27.584540843963623 85.95269322395325,27.53370702266693 85.95269322395325,27.53370702266693 85.21847724914551,27.489376068115234 85.21847724914551,27.489376068115234 84.48426723480225,27.451235055923462 84.48426723480225,27.451235055923462 83.79561305046082,27.422302961349487 83.79561305046082,27.422302961349487 83.10703039169312,27.398771047592163 83.10703039169312,27.398771047592163 82.41859674453735,27.380624413490295 82.41859674453735,27.380624413490295 81.73038363456726,27.367734909057617 81.73038363456726,27.367734909057617 81.04268312454224,27.360042929649353 81.04268312454224,27.360042929649353 80.35556674003601,27.35747992992401 80.35556674003601,27.35747992992401 79.56568598747253,27.36040949821472 79.56568598747253,27.36040949821472 78.77587676048279,27.369344234466553 78.77587676048279,27.369344234466553 77.98651456832886,27.384433150291443 77.98651456832886,27.384433150291443 77.19743847846985,27.405747771263123 77.19743847846985,27.405747771263123 76.40888094902039,27.43343412876129 76.40888094902039,27.43343412876129 75.62097907066345,27.467641234397888 75.62097907066345,27.467641234397888 74.86054301261902,27.50186324119568 74.86054301261902,27.50186324119568 74.09966588020325,27.540025115013123 74.09966588020325,27.540025115013123 73.33893775939941,27.583661675453186 73.33893775939941,27.583661675453186 72.57872819900513,27.634310722351074 72.57872819900513,27.634310722351074 71.81968092918396,27.69356667995453 71.81968092918396,27.69356667995453 71.06217741966248,27.762967348098755 71.06217741966248,27.762967348098755 70.74663639068604,27.78221070766449 70.74663639068604,27.78221070766449 70.3159511089325,27.804678678512573 70.3159511089325,27.804678678512573 69.83575820922852,27.847638726234436 69.83575820922852,27.847638726234436 69.37101483345032,27.928262948989868 69.37101483345032,27.928262948989868 68.98735165596008,28.06382179260254 68.98735165596008,28.06382179260254 68.74996423721313,28.27158272266388 68.74996423721313,28.27158272266388 68.18904876708984,29.25722897052765 68.18904876708984,29.25722897052765 67.63772964477539,30.248716473579407 67.63772964477539,30.248716473579407 67.0930027961731,31.244176626205444 67.0930027961731,31.244176626205444 66.55187010765076,32.241544127464294 66.55187010765076,32.241544127464294 66.01138710975647,33.23894441127777 66.01138710975647,33.23894441127777 65.46856760978699,34.23435091972351 65.46856760978699,34.23435091972351 67.76627898216248,33.752596378326416 67.76627898216248,33.752596378326416 70.07775902748108,33.377617597579956 70.07775902748108,33.377617597579956 72.40066528320312,33.100804686546326 72.40066528320312,33.100804686546326 74.73214268684387,32.91362524032593 74.73214268684387,32.91362524032593 77.06984281539917,32.8076034784317 77.06984281539917,32.8076034784317 79.41098809242249,32.77412950992584 79.41098809242249,32.77412950992584 80.25675415992737,32.779183983802795 80.25675415992737,32.779183983802795 81.10200762748718,32.793739438056946 81.10200762748718,32.793739438056946 81.94718956947327,32.8166127204895 81.94718956947327,32.8166127204895 82.79236555099487,32.84671604633331 82.79236555099487,32.84671604633331 83.6379885673523,32.88291692733765 83.6379885673523,32.88291692733765 84.48426723480225,32.92413651943207 84.48426723480225,32.92413651943207 84.81841087341309,32.940250635147095 84.81841087341309,32.940250635147095 85.15299558639526,32.956236600875854 85.15299558639526,32.956236600875854 85.48787236213684,32.97277092933655 85.48787236213684,32.97277092933655 85.8230471611023,32.99044072628021 85.8230471611023,32.99044072628021 86.15850806236267,33.009979128837585 86.15850806236267,33.009979128837585 86.49412393569946,33.03195238113403 86.49412393569946,33.03195238113403 87.8129780292511,33.139386773109436 87.8129780292511,33.139386773109436 89.12700414657593,33.28688442707062 89.12700414657593,33.28688442707062 90.4358983039856,33.47230553627014 90.4358983039856,33.47230553627014 91.73923134803772,33.69343280792236 91.73923134803772,33.69343280792236 93.03684830665588,33.948180079460144 93.03684830665588,33.948180079460144" stroke="white" stroke-width="0.1" /><polygon points="94.38353776931763,36.81493699550629 94.38353776931763,36.81493699550629 94.32377219200134,36.808234453201294 94.32377219200134,36.808234453201294 94.26451325416565,36.800578236579895 94.26451325416565,36.800578236579895 94.20526027679443,36.7929607629776 94.20526027679443,36.7929607629776 94.14505362510681,36.78629696369171 94.14505362510681,36.78629696369171 94.08323168754578,36.78157329559326 94.08323168754578,36.78157329559326 94.01906728744507,36.77977919578552 94.01906728744507,36.77977919578552 92.42964386940002,37.217968702316284 92.42964386940002,37.217968702316284 91.47591590881348,38.313502073287964 91.47591590881348,38.313502073287964 91.15809798240662,39.737722277641296 91.15809798240662,39.737722277641296 91.4759874343872,41.16190969944 91.4759874343872,41.16190969944 92.42964386940002,42.257460951805115 92.42964386940002,42.257460951805115 94.01906728744507,42.69566833972931 94.01906728744507,42.69566833972931 94.08316016197205,42.693838477134705 94.08316016197205,42.693838477134705 94.14505362510681,42.68915057182312 94.14505362510681,42.68915057182312 94.20526027679443,42.68248379230499 94.20526027679443,42.68248379230499 94.26459074020386,42.67483055591583 94.26459074020386,42.67483055591583 94.32377219200134,42.66717731952667 94.32377219200134,42.66717731952667 94.38353776931763,42.660510540008545 94.38353776931763,42.660510540008545 95.76377868652344,42.12638735771179 95.76377868652344,42.12638735771179 96.59188985824585,41.063687205314636 96.59188985824585,41.063687205314636 96.86787724494934,39.73684310913086 96.86787724494934,39.73684310913086 96.59174084663391,38.41014802455902 96.59174084663391,38.41014802455902 95.76355814933777,37.3480349779129 95.76355814933777,37.3480349779129" stroke="white" stroke-width="0.1" /></svg>