<?xml version="1.0" encoding="utf-8" ?>
<svg baseProfile="full" height="54.009830951690674" version="1.1" width="99.99824166297913" xmlns="http://www.w3.org/2000/svg" xmlns:ev="http://www.w3.org/2001/xml-events" xmlns:xlink="http://www.w3.org/1999/xlink"><defs><clipPath /></defs><polygon points="6.382916122674942,1.931517943739891 6.382916122674942,1.931517943739891 6.382916122674942,51.384466886520386 6.382916122674942,51.384466886520386 4.585450515151024,50.07380247116089 4.585450515151024,50.07380247116089 3.032500669360161,48.488473892211914 3.032500669360161,48.488473892211914 1.760839857161045,46.66408896446228 1.760839857161045,46.66408896446228 0.8070943877100945,44.636133313179016 0.8070943877100945,44.636133313179016 0.20789015106856823,42.44019389152527 0.20789015106856823,42.44019389152527 0.0,40.1118129491806 0.0,40.1118129491806 0.0,13.20183128118515 0.0,13.20183128118515 0.20789015106856823,10.873284935951233 0.20789015106856823,10.873284935951233 0.8069478906691074,8.677051961421967 0.8069478906691074,8.677051961421967 1.760839857161045,6.648968905210495 1.760839857161045,6.648968905210495 3.032500669360161,4.824802279472351 3.032500669360161,4.824802279472351 4.585450515151024,3.240390866994858 4.585450515151024,3.240390866994858" stroke="white" stroke-width="0.1" /><polygon points="61.517906188964844,25.498849153518677 61.517906188964844,25.498849153518677 59.60814356803894,25.92204511165619 59.60814356803894,25.92204511165619 58.02721381187439,26.660647988319397 58.02721381187439,26.660647988319397 56.76016807556152,27.6460200548172 56.76016807556152,27.6460200548172 55.79206347465515,28.809523582458496 55.79206347465515,28.809523582458496 55.10810613632202,30.08257746696472 55.10810613632202,30.08257746696472 54.693132638931274,31.396540999412537 54.693132638931274,31.396540999412537 54.56274151802063,32.17799663543701 54.56274151802063,32.17799663543701 54.51388359069824,32.95994699001312 54.51388359069824,32.95994699001312 54.54530715942383,33.737099170684814 54.54530715942383,33.737099170684814 54.65548038482666,34.5040887594223 54.65548038482666,34.5040887594223 54.843151569366455,35.25554835796356 54.843151569366455,35.25554835796356 55.106860399246216,35.986241698265076 55.106860399246216,35.986241698265076 55.06994128227234,36.21431291103363 55.06994128227234,36.21431291103363 55.04188537597656,36.43872141838074 55.04188537597656,36.43872141838074 55.02218008041382,36.65899038314819 55.02218008041382,36.65899038314819 55.00994920730591,36.8745356798172 55.00994920730591,36.8745356798172 55.004894733428955,37.08491623401642 55.004894733428955,37.08491623401642 55.00606298446655,37.28954493999481 55.00606298446655,37.28954493999481 55.03067970275879,38.19670379161835 55.03067970275879,38.19670379161835 55.03302216529846,38.35141360759735 55.03302216529846,38.35141360759735 54.96072173118591,38.599756360054016 54.96072173118591,38.599756360054016 54.890620708465576,38.87699842453003 54.890620708465576,38.87699842453003 54.827332496643066,39.181214570999146 54.827332496643066,39.181214570999146 54.77488040924072,39.51041102409363 54.77488040924072,39.51041102409363 54.737669229507446,39.862680435180664 54.737669229507446,39.862680435180664 54.720085859298706,40.23604989051819 54.720085859298706,40.23604989051819 54.65211272239685,43.95609498023987 54.65211272239685,43.95609498023987 54.58295941352844,47.75115251541138 54.58295941352844,47.75115251541138 54.57841753959656,47.85674512386322 54.57841753959656,47.85674512386322 54.5721173286438,47.96915352344513 54.5721173286438,47.96915352344513 54.564499855041504,48.087820410728455 54.564499855041504,48.087820410728455 54.55578565597534,48.21212887763977 54.55578565597534,48.21212887763977 54.54670190811157,48.341548442840576 54.54670190811157,48.341548442840576 54.537248611450195,48.47547113895416 54.537248611450195,48.47547113895416 54.488974809646606,49.41383600234985 54.488974809646606,49.41383600234985 54.48092222213745,50.29647350311279 54.48092222213745,50.29647350311279 54.5110285282135,51.12544894218445 54.5110285282135,51.12544894218445 54.57710027694702,51.90284252166748 54.57710027694702,51.90284252166748 54.67723608016968,52.63076424598694 54.67723608016968,52.63076424598694 54.80916500091553,53.31130027770996 54.80916500091553,53.31130027770996 48.595020174980164,53.31130027770996 48.595020174980164,53.31130027770996 48.595020174980164,46.558019518852234 48.595020174980164,46.558019518852234 48.54799211025238,46.207138895988464 48.54799211025238,46.207138895988464 48.41511249542236,45.891863107681274 48.41511249542236,45.891863107681274 48.20898175239563,45.624783635139465 48.20898175239563,45.624783635139465 47.94190227985382,45.41843235492706 47.94190227985382,45.41843235492706 47.62655198574066,45.28542459011078 47.62655198574066,45.28542459011078 47.27530479431152,45.238304138183594 47.27530479431152,45.238304138183594 16.92422181367874,45.238304138183594 16.92422181367874,45.238304138183594 16.92422181367874,32.006001472473145 16.92422181367874,32.006001472473145 39.3746018409729,32.006001472473145 39.3746018409729,32.006001472473145 39.72643315792084,31.958863139152527 39.72643315792084,31.958863139152527 40.042075514793396,31.82576298713684 40.042075514793396,31.82576298713684 40.309301018714905,31.619229912757874 40.309301018714905,31.619229912757874 40.51550626754761,31.351730227470398 40.51550626754761,31.351730227470398 40.648385882377625,31.035810708999634 40.648385882377625,31.035810708999634 40.69548845291138,30.68394362926483 40.69548845291138,30.68394362926483 40.69548845291138,22.782064974308014 40.69548845291138,22.782064974308014 40.648460388183594,22.431370615959167 40.648460388183594,22.431370615959167 40.51558077335358,22.116513550281525 40.51558077335358,22.116513550281525 40.309301018714905,21.85000330209732 40.309301018714905,21.85000330209732 40.042075514793396,21.644218266010284 40.042075514793396,21.644218266010284 39.72635865211487,21.51165008544922 39.72635865211487,21.51165008544922 39.3746018409729,21.464695036411285 39.3746018409729,21.464695036411285 16.92422181367874,21.464695036411285 16.92422181367874,21.464695036411285 16.92422181367874,8.232391625642776 16.92422181367874,8.232391625642776 47.27530479431152,8.232391625642776 47.27530479431152,8.232391625642776 47.62662351131439,8.185601979494095 47.62662351131439,8.185601979494095 47.94197678565979,8.053363114595413 47.94197678565979,8.053363114595413 48.20898175239563,7.847963273525238 48.20898175239563,7.847963273525238 48.415037989616394,7.581581175327301 48.415037989616394,7.581581175327301 48.54799211025238,7.266540825366974 48.54799211025238,7.266540825366974 48.595020174980164,6.915021687746048 48.595020174980164,6.915021687746048 48.595020174980164,0.0 48.595020174980164,0.0 71.2844967842102,0.0 71.2844967842102,0.0 74.78331923484802,0.47394270077347755 74.78331923484802,0.47394270077347755 77.93331742286682,1.8099738284945488 77.93331742286682,1.8099738284945488 80.60644268989563,3.8794443011283875 80.60644268989563,3.8794443011283875 82.67443180084229,6.553685665130615 82.67443180084229,6.553685665130615 84.00930762290955,9.70403105020523 84.00930762290955,9.70403105020523 84.48280692100525,13.20183128118515 84.48280692100525,13.20183128118515 84.48280692100525,19.788682460784912 84.48280692100525,19.788682460784912 83.87613296508789,19.762970507144928 83.87613296508789,19.762970507144928 83.26850533485413,19.7384312748909 83.26850533485413,19.7384312748909 82.65897035598755,19.716601073741913 82.65897035598755,19.716601073741913 82.0465087890625,19.699057936668396 82.0465087890625,19.699057936668396 81.43045902252197,19.687409698963165 81.43045902252197,19.687409698963165 80.80964684486389,19.683198630809784 80.80964684486389,19.683198630809784 80.33328652381897,19.684553146362305 80.33328652381897,19.684553146362305 79.8539936542511,19.68858242034912 79.8539936542511,19.68858242034912 79.37272787094116,19.695211946964264 79.37272787094116,19.695211946964264 78.89021039009094,19.704368710517883 78.89021039009094,19.704368710517883 78.40747833251953,19.716015458106995 78.40747833251953,19.716015458106995 77.92525887489319,19.730079174041748 77.92525887489319,19.730079174041748 77.61115431785583,19.74180042743683 77.61115431785583,19.74180042743683 76.33480429649353,19.78287696838379 76.33480429649353,19.78287696838379 75.04497766494751,19.830527901649475 75.04497766494751,19.830527901649475 73.74328374862671,19.89094167947769 73.74328374862671,19.89094167947769 72.4308967590332,19.970273971557617 72.4308967590332,19.970273971557617 71.10919952392578,20.074768364429474 71.10919952392578,20.074768364429474 69.77959871292114,20.210614800453186 69.77959871292114,20.210614800453186 69.60379481315613,20.229367911815643 69.60379481315613,20.229367911815643 68.81288886070251,20.3255295753479 68.81288886070251,20.3255295753479 67.89833307266235,20.478279888629913 67.89833307266235,20.478279888629913 66.89770221710205,20.726604759693146 66.89770221710205,20.726604759693146 65.84821939468384,21.109512448310852 65.84821939468384,21.109512448310852 64.7875964641571,21.66602909564972 64.7875964641571,21.66602909564972 63.752979040145874,22.43514209985733 63.752979040145874,22.43514209985733 63.21172118186951,22.959336638450623 63.21172118186951,22.959336638450623 62.74942755699158,23.497705161571503 62.74942755699158,23.497705161571503 62.357670068740845,24.035559594631195 62.357670068740845,24.035559594631195 62.027519941329956,24.558179080486298 62.027519941329956,24.558179080486298 61.75048351287842,25.05083680152893 61.75048351287842,25.05083680152893" stroke="white" stroke-width="0.1" /><polygon points="99.99824166297913,51.276642084121704 99.99824166297913,51.276642084121704 99.99392032623291,51.692843437194824 99.99392032623291,51.692843437194824 99.95370507240295,52.0966112613678 99.95370507240295,52.0966112613678 99.86492395401001,52.4829626083374 99.86492395401001,52.4829626083374 99.71446394920349,52.84680724143982 99.71446394920349,52.84680724143982 99.48979616165161,53.183215856552124 99.48979616165161,53.183215856552124 99.17781352996826,53.487104177474976 99.17781352996826,53.487104177474976 98.90392422676086,53.66739630699158 98.90392422676086,53.66739630699158 98.61399531364441,53.79650592803955 98.61399531364441,53.79650592803955 98.31109642982483,53.882670402526855 98.31109642982483,53.882670402526855 97.9979395866394,53.93405556678772 97.9979395866394,53.93405556678772 97.67760634422302,53.958868980407715 97.67760634422302,53.958868980407715 97.35295176506042,53.9652943611145 97.35295176506042,53.9652943611145 96.96705937385559,53.964418172836304 96.96705937385559,53.964418172836304 96.21197581291199,53.962236642837524 96.21197581291199,53.962236642837524 95.2658474445343,53.95943522453308 95.2658474445343,53.95943522453308 94.30646300315857,53.956615924835205 94.30646300315857,53.956615924835205 93.51226091384888,53.95445227622986 93.51226091384888,53.95445227622986 93.06095242500305,53.95357608795166 93.06095242500305,53.95357608795166 92.52496361732483,53.93962264060974 92.52496361732483,53.93962264060974 92.00435876846313,53.88193726539612 92.00435876846313,53.88193726539612 91.51342511177063,53.75667214393616 91.51342511177063,53.75667214393616 91.06585383415222,53.53997349739075 91.06585383415222,53.53997349739075 90.67585468292236,53.20805311203003 90.67585468292236,53.20805311203003 90.35705924034119,52.737003564834595 90.35705924034119,52.737003564834595 90.23070335388184,52.4225652217865 90.23070335388184,52.4225652217865 90.15430212020874,52.09609866142273 90.15430212020874,52.09609866142273 90.11518359184265,51.76157355308533 90.11518359184265,51.76157355308533 90.10067582130432,51.422929763793945 90.10067582130432,51.422929763793945 90.09840488433838,51.08415484428406 90.09840488433838,51.08415484428406 90.09569883346558,50.74922442436218 90.09569883346558,50.74922442436218 90.09218215942383,50.66069960594177 90.09218215942383,50.66069960594177 90.08397459983826,50.596606731414795 90.08397459983826,50.596606731414795 90.0694727897644,50.553202629089355 90.0694727897644,50.553202629089355 90.04676342010498,50.52679181098938 90.04676342010498,50.52679181098938 90.01438617706299,50.51368474960327 90.01438617706299,50.51368474960327 89.97029066085815,50.51013231277466 89.97029066085815,50.51013231277466 89.94230628013611,50.51082372665405 89.94230628013611,50.51082372665405 89.91110324859619,50.51254630088806 89.91110324859619,50.51254630088806 89.87623453140259,50.514817237854004 89.87623453140259,50.514817237854004 89.83718752861023,50.517070293426514 89.83718752861023,50.517070293426514 89.7937536239624,50.518810749053955 89.7937536239624,50.518810749053955 89.74525928497314,50.51950812339783 89.74525928497314,50.51950812339783 86.24555468559265,50.51950812339783 86.24555468559265,50.51950812339783 79.79700565338135,50.51950812339783 79.79700565338135,50.51950812339783 79.35397624969482,50.51950812339783 79.35397624969482,50.51950812339783 72.83041477203369,50.51950812339783 72.83041477203369,50.51950812339783 69.8100745677948,50.51950812339783 69.8100745677948,50.51950812339783 69.7106659412384,50.58072805404663 69.7106659412384,50.58072805404663 69.66195702552795,50.7381796836853 69.66195702552795,50.7381796836853 69.6492075920105,50.952571630477905 69.6492075920105,50.952571630477905 69.65770721435547,51.184529066085815 69.65770721435547,51.184529066085815 69.67287063598633,51.39474272727966 69.67287063598633,51.39474272727966 69.67997550964355,51.54386758804321 69.67997550964355,51.54386758804321 69.65704560279846,51.878756284713745 69.65704560279846,51.878756284713745 69.5993959903717,52.20165252685547 69.5993959903717,52.20165252685547 69.50533986091614,52.509623765945435 69.50533986091614,52.509623765945435 69.37333941459656,52.79959440231323 69.37333941459656,52.79959440231323 69.20192837715149,53.06859612464905 69.20192837715149,53.06859612464905 68.98964643478394,53.313642740249634 68.98964643478394,53.313642740249634 68.93478035926819,53.36645841598511 68.93478035926819,53.36645841598511 68.8791811466217,53.41901779174805 68.8791811466217,53.41901779174805 68.82189512252808,53.47069501876831 68.82189512252808,53.47069501876831 68.76205205917358,53.520798683166504 68.76205205917358,53.520798683166504 68.6991274356842,53.5686731338501 68.6991274356842,53.5686731338501 68.63217353820801,53.61368656158447 68.63217353820801,53.61368656158447 68.36721897125244,53.75273823738098 68.36721897125244,53.75273823738098 68.07963252067566,53.85649800300598 68.07963252067566,53.85649800300598 67.77365803718567,53.9295494556427 67.77365803718567,53.9295494556427 67.45354533195496,53.97641062736511 67.45354533195496,53.97641062736511 67.12376475334167,54.001665115356445 67.12376475334167,54.001665115356445 66.78856015205383,54.009830951690674 66.78856015205383,54.009830951690674 66.75105094909668,54.009830951690674 66.75105094909668,54.009830951690674 66.70886278152466,54.009830951690674 66.70886278152466,54.009830951690674 66.31242036819458,54.00847792625427 66.31242036819458,54.00847792625427 65.6759262084961,54.0069580078125 65.6759262084961,54.0069580078125 64.90934491157532,54.00543808937073 64.90934491157532,54.00543808937073 64.12246823310852,54.00410294532776 64.12246823310852,54.00410294532776 63.425397872924805,54.003167152404785 63.425397872924805,54.003167152404785 62.927865982055664,54.002803564071655 62.927865982055664,54.002803564071655 62.72422671318054,54.00135517120361 62.72422671318054,54.00135517120361 62.52050995826721,53.996795415878296 62.52050995826721,53.996795415878296 62.31723427772522,53.98873686790466 62.31723427772522,53.98873686790466 62.114620208740234,53.97676229476929 62.114620208740234,53.97676229476929 61.913323402404785,53.96049618721008 61.913323402404785,53.96049618721008 61.71363592147827,53.93950939178467 61.71363592147827,53.93950939178467 61.44509315490723,53.89413237571716 61.44509315490723,53.89413237571716 61.202263832092285,53.82254719734192 61.202263832092285,53.82254719734192 60.983604192733765,53.726786375045776 60.983604192733765,53.726786375045776 60.78721284866333,53.608739376068115 60.78721284866333,53.608739376068115 60.611552000045776,53.470367193222046 60.611552000045776,53.470367193222046 60.45486927032471,53.313642740249634 60.45486927032471,53.313642740249634 60.01967787742615,52.57355570793152 60.01967787742615,52.57355570793152 59.79589223861694,51.66000723838806 59.79589223861694,51.66000723838806 59.72557067871094,50.65194368362427 59.72557067871094,50.65194368362427 59.750765562057495,49.62822496891022 59.750765562057495,49.62822496891022 59.813618659973145,48.66781532764435 59.813618659973145,48.66781532764435 59.855955839157104,47.84960448741913 59.855955839157104,47.84960448741913 59.87895727157593,46.59686088562012 59.87895727157593,46.59686088562012 59.90225076675415,45.34446597099304 59.90225076675415,45.34446597099304 59.92584228515625,44.092345237731934 59.92584228515625,44.092345237731934 59.94942784309387,42.84040629863739 59.94942784309387,42.84040629863739 59.97316241264343,41.58858060836792 59.97316241264343,41.58858060836792 59.996598958969116,40.33684432506561 59.996598958969116,40.33684432506561 60.0244402885437,40.101996064186096 60.0244402885437,40.101996064186096 60.08750796318054,39.86773490905762 60.08750796318054,39.86773490905762 60.167574882507324,39.63625729084015 60.167574882507324,39.63625729084015 60.245805978775024,39.409634470939636 60.245805978775024,39.409634470939636 60.30403971672058,39.19004201889038 60.30403971672058,39.19004201889038 60.323601961135864,38.9796257019043 60.323601961135864,38.9796257019043 60.317301750183105,38.67604732513428 60.317301750183105,38.67604732513428 60.31041741371155,38.37248980998993 60.31041741371155,38.37248980998993 60.30323505401611,38.068950176239014 60.30323505401611,38.068950176239014 60.29561758041382,37.765392661094666 60.29561758041382,37.765392661094666 60.28800010681152,37.46183514595032 60.28800010681152,37.46183514595032 60.28023362159729,37.15827763080597 60.28023362159729,37.15827763080597 60.38044095039368,36.74735128879547 60.38044095039368,36.74735128879547 60.6578528881073,36.44322454929352 60.6578528881073,36.44322454929352 61.04308366775513,36.20072305202484 61.04308366775513,36.20072305202484 61.465972661972046,35.9746128320694 61.465972661972046,35.9746128320694 61.85691952705383,35.7197105884552 61.85691952705383,35.7197105884552 62.14612126350403,35.39084494113922 62.14612126350403,35.39084494113922 62.108612060546875,35.39084494113922 62.108612060546875,35.39084494113922 61.4025354385376,35.278770327568054 61.4025354385376,35.278770327568054 60.79072952270508,34.96854603290558 60.79072952270508,34.96854603290558 60.30089259147644,34.49921905994415 60.30089259147644,34.49921905994415 59.961146116256714,33.909738063812256 59.961146116256714,33.909738063812256 59.79970097541809,33.23913216590881 59.79970097541809,33.23913216590881 59.84423756599426,32.52638578414917 59.84423756599426,32.52638578414917 60.08728742599487,31.87253475189209 60.08728742599487,31.87253475189209 60.46849489212036,31.39071762561798 60.46849489212036,31.39071762561798 60.96001863479614,31.057235598564148 60.96001863479614,31.057235598564148 61.53343319892883,30.8483749628067 61.53343319892883,30.8483749628067 62.16091513633728,30.740439891815186 62.16091513633728,30.740439891815186 62.81418204307556,30.709728598594666 62.81418204307556,30.709728598594666 63.12711238861084,30.709728598594666 63.12711238861084,30.709728598594666 63.371628522872925,30.712181329727173 63.371628522872925,30.712181329727173 63.614314794540405,30.723261833190918 63.614314794540405,30.723261833190918 63.85465860366821,30.748406052589417 63.85465860366821,30.748406052589417 64.0924334526062,30.793070793151855 64.0924334526062,30.793070793151855 64.32742476463318,30.862751603126526 64.32742476463318,30.862751603126526 64.55934643745422,30.962887406349182 64.55934643745422,30.962887406349182 64.68841433525085,30.727270245552063 64.68841433525085,30.727270245552063 64.81814384460449,30.491545796394348 64.81814384460449,30.491545796394348 64.94816541671753,30.25556206703186 64.94816541671753,30.25556206703186 65.07826447486877,30.019178986549377 65.07826447486877,30.019178986549377 65.20857810974121,29.782280325889587 65.20857810974121,29.782280325889587 65.33874869346619,29.54472303390503 65.33874869346619,29.54472303390503 65.42789936065674,29.382798075675964 65.42789936065674,29.382798075675964 65.51645994186401,29.220616817474365 65.51645994186401,29.220616817474365 65.60479998588562,29.05832529067993 65.60479998588562,29.05832529067993 65.6930685043335,28.896036744117737 65.6930685043335,28.896036744117737 65.78163504600525,28.733855485916138 65.78163504600525,28.733855485916138 65.87085127830505,28.571930527687073 65.87085127830505,28.571930527687073 66.06526374816895,28.202593326568604 66.06526374816895,28.202593326568604 66.26165509223938,27.815216779708862 66.26165509223938,27.815216779708862 66.46903157234192,27.425384521484375 66.46903157234192,27.425384521484375 66.69567227363586,27.048611640930176 66.69567227363586,27.048611640930176 66.95059537887573,26.700517535209656 66.95059537887573,26.700517535209656 67.2421395778656,26.396629214286804 67.2421395778656,26.396629214286804 67.68655776977539,26.085269451141357 67.68655776977539,26.085269451141357 68.19002032279968,25.85914134979248 68.19002032279968,25.85914134979248 68.7317967414856,25.700733065605164 68.7317967414856,25.700733065605164 69.2906379699707,25.592520833015442 69.2906379699707,25.592520833015442 69.8458194732666,25.517016649246216 69.8458194732666,25.517016649246216 70.3761637210846,25.456655025482178 70.3761637210846,25.456655025482178 71.65654301643372,25.32743811607361 71.65654301643372,25.32743811607361 72.94073104858398,25.22856593132019 72.94073104858398,25.22856593132019 74.22762513160706,25.153684616088867 74.22762513160706,25.153684616088867 75.51569938659668,25.096362829208374 75.51569938659668,25.096362829208374 76.80376768112183,25.050252676010132 76.80376768112183,25.050252676010132 78.09051871299744,25.00893771648407 78.09051871299744,25.00893771648407 78.54204177856445,24.996045231819153 78.54204177856445,24.996045231819153 78.99430394172668,24.985477328300476 78.99430394172668,24.985477328300476 79.44715023040771,24.977292120456696 79.44715023040771,24.977292120456696 79.90028858184814,24.971431493759155 79.90028858184814,24.971431493759155 80.35379648208618,24.967916309833527 80.35379648208618,24.967916309833527 80.80729842185974,24.96674358844757 80.80729842185974,24.96674358844757 81.41844272613525,24.970296025276184 81.41844272613525,24.970296025276184 82.03054070472717,24.980369210243225 82.03054070472717,24.980369210243225 82.64344334602356,24.996045231819153 82.64344334602356,24.996045231819153 83.25678706169128,25.016409158706665 83.25678706169128,25.016409158706665 83.87042284011841,25.04054605960846 83.87042284011841,25.04054605960846 84.48398113250732,25.067538022994995 84.48398113250732,25.067538022994995 85.34455299377441,25.11308491230011 85.34455299377441,25.11308491230011 86.20445728302002,25.16624629497528 86.20445728302002,25.16624629497528 87.0631992816925,25.228402018547058 87.0631992816925,25.228402018547058 87.91995644569397,25.300902128219604 87.91995644569397,25.300902128219604 88.77437114715576,25.38512349128723 88.77437114715576,25.38512349128723 89.62571024894714,25.48243999481201 89.62571024894714,25.48243999481201 90.137380361557,25.54616928100586 90.137380361557,25.54616928100586 90.66999554634094,25.626710057258606 90.66999554634094,25.626710057258606 91.20385646820068,25.74087381362915 91.20385646820068,25.74087381362915 91.71882271766663,25.905418395996094 91.71882271766663,25.905418395996094 92.19533205032349,26.137152314186096 92.19533205032349,26.137152314186096 92.6132321357727,26.452887058258057 92.6132321357727,26.452887058258057 92.7627444267273,26.611369848251343 92.7627444267273,26.611369848251343 92.89613366127014,26.782339811325073 92.89613366127014,26.782339811325073 93.01714897155762,26.962724328041077 93.01714897155762,26.962724328041077 93.12922358512878,27.14933454990387 93.12922358512878,27.14933454990387 93.23602318763733,27.33907699584961 93.23602318763733,27.33907699584961 93.34107041358948,27.52881646156311 93.34107041358948,27.52881646156311 93.51680278778076,27.842119336128235 93.51680278778076,27.842119336128235 93.69136095046997,28.15614938735962 93.69136095046997,28.15614938735962 93.86526346206665,28.47084403038025 93.86526346206665,28.47084403038025 94.03850436210632,28.786101937294006 94.03850436210632,28.786101937294006 94.21138167381287,29.101911187171936 94.21138167381287,29.101911187171936 94.3841814994812,29.41814363002777 94.3841814994812,29.41814363002777 94.94207501411438,30.428439378738403 94.94207501411438,30.428439378738403 95.02338171005249,30.580583214759827 95.02338171005249,30.580583214759827 95.08777260780334,30.697202682495117 95.08777260780334,30.697202682495117 95.14161348342896,30.781808495521545 95.14161348342896,30.781808495521545 95.19127607345581,30.837881565093994 95.19127607345581,30.837881565093994 95.24343013763428,30.868923664093018 95.24343013763428,30.868923664093018 95.30423283576965,30.878502130508423 95.30423283576965,30.878502130508423 95.34832835197449,30.874764919281006 95.34832835197449,30.874764919281006 95.40092349052429,30.864325165748596 95.40092349052429,30.864325165748596 95.4639196395874,30.848321318626404 95.4639196395874,30.848321318626404 95.53871154785156,30.82779347896576 95.53871154785156,30.82779347896576 95.62712907791138,30.803892016410828 95.62712907791138,30.803892016410828 95.73085308074951,30.77770471572876 95.73085308074951,30.77770471572876 95.82381248474121,30.755582451820374 95.82381248474121,30.755582451820374 95.91684341430664,30.738186836242676 95.91684341430664,30.738186836242676 96.0102379322052,30.725255608558655 96.0102379322052,30.725255608558655 96.10422253608704,30.716413259506226 96.10422253608704,30.716413259506226 96.19937539100647,30.7113379240036 96.19937539100647,30.7113379240036 96.29577398300171,30.709728598594666 96.29577398300171,30.709728598594666 97.1560537815094,30.709728598594666 97.1560537815094,30.709728598594666 97.53308296203613,30.71606457233429 97.53308296203613,30.71606457233429 97.90014624595642,30.74340522289276 97.90014624595642,30.74340522289276 98.25571775436401,30.80407679080963 98.25571775436401,30.80407679080963 98.59765768051147,30.910438299179077 98.59765768051147,30.910438299179077 98.92436265945435,31.07490837574005 98.92436265945435,31.07490837574005 99.23407435417175,31.309810280799866 99.23407435417175,31.309810280799866 99.8030960559845,32.09719955921173 99.8030960559845,32.09719955921173 99.98615384101868,32.98875391483307 99.98615384101868,32.98875391483307 99.82478022575378,33.87422859668732 99.82478022575378,33.87422859668732 99.36014413833618,34.64326858520508 99.36014413833618,34.64326858520508 98.63377213478088,35.18555462360382 98.63377213478088,35.18555462360382 97.68698215484619,35.39084494113922 97.68698215484619,35.39084494113922 97.64947891235352,35.39084494113922 97.64947891235352,35.39084494113922 97.88095951080322,35.63111424446106 97.88095951080322,35.63111424446106 98.25454354286194,35.87310314178467 98.25454354286194,35.87310314178467 98.68775606155396,36.115750670433044 98.68775606155396,36.115750670433044 99.09768104553223,36.35799586772919 99.09768104553223,36.35799586772919 99.40189719200134,36.59881353378296 99.40189719200134,36.59881353378296 99.51770901679993,36.83713972568512 99.51770901679993,36.83713972568512 99.51067566871643,37.115901708602905 99.51067566871643,37.115901708602905 99.50371384620667,37.39440739154816 99.50371384620667,37.39440739154816 99.49690103530884,37.672802805900574 99.49690103530884,37.672802805900574 99.49030876159668,37.95118033885956 99.49030876159668,37.95118033885956 99.48393702507019,38.22970390319824 99.48393702507019,38.22970390319824 99.4778573513031,38.50846588611603 99.4778573513031,38.50846588611603 99.49522018432617,38.79861831665039 99.49522018432617,38.79861831665039 99.54993724822998,39.06869888305664 99.54993724822998,39.06869888305664 99.62465763092041,39.328598976135254 99.62465763092041,39.328598976135254 99.70186352729797,39.58829641342163 99.70186352729797,39.58829641342163 99.76427555084229,39.85777497291565 99.76427555084229,39.85777497291565 99.7943103313446,40.146973729133606 99.7943103313446,40.146973729133606" stroke="white" stroke-width="0.1" /><polygon points="65.77240228652954,36.78556978702545 65.77240228652954,36.78556978702545 65.69702625274658,36.787402629852295 65.69702625274658,36.787402629852295 65.62348008155823,36.792418360710144 65.62348008155823,36.792418360710144 65.55117964744568,36.79992854595184 65.55117964744568,36.79992854595184 65.47983288764954,36.80919408798218 65.47983288764954,36.80919408798218 65.40914177894592,36.81948482990265 65.40914177894592,36.81948482990265 65.33874869346619,36.83010637760162 65.33874869346619,36.83010637760162 63.99625539779663,37.37898766994476 63.99625539779663,37.37898766994476 63.19077014923096,38.43473792076111 63.19077014923096,38.43473792076111 62.92229890823364,39.74408507347107 62.92229890823364,39.74408507347107 63.19077014923096,41.053617000579834 63.19077014923096,41.053617000579834 63.99632692337036,42.10997223854065 63.99632692337036,42.10997223854065 65.33874869346619,42.65982210636139 65.33874869346619,42.65982210636139 65.40907025337219,42.66861379146576 65.40907025337219,42.66861379146576 65.4797613620758,42.678043246269226 65.4797613620758,42.678043246269226 65.55117964744568,42.6870733499527 65.55117964744568,42.6870733499527 65.62348008155823,42.694708704948425 65.62348008155823,42.694708704948425 65.69717526435852,42.700037360191345 65.69717526435852,42.700037360191345 65.77240228652954,42.70201623439789 65.77240228652954,42.70201623439789 67.36241579055786,42.26374626159668 67.36241579055786,42.26374626159668 68.31645369529724,41.16811156272888 68.31645369529724,41.16811156272888 68.63451600074768,39.74379301071167 68.63451600074768,39.74379301071167 68.31653118133545,38.319456577301025 68.31653118133545,38.319456577301025 67.36249327659607,37.22383975982666 67.36249327659607,37.22383975982666" stroke="white" stroke-width="0.1" /><polygon points="89.31746482849121,39.190590381622314 89.31746482849121,39.190590381622314 89.16048407554626,38.808175921440125 89.16048407554626,38.808175921440125 88.95647525787354,38.4574830532074 88.95647525787354,38.4574830532074 88.70214223861694,38.155388832092285 88.70214223861694,38.155388832092285 88.39338421821594,37.918710708618164 88.39338421821594,37.918710708618164 88.02661299705505,37.764349579811096 88.02661299705505,37.764349579811096 87.59808540344238,37.70913481712341 87.59808540344238,37.70913481712341 85.03835797309875,37.70913481712341 85.03835797309875,37.70913481712341 84.48398113250732,37.70913481712341 84.48398113250732,37.70913481712341 75.02798438072205,37.70913481712341 75.02798438072205,37.70913481712341 72.58662581443787,37.70913481712341 72.58662581443787,37.70913481712341 71.96537852287292,37.803614139556885 71.96537852287292,37.803614139556885 71.49392366409302,38.06263208389282 71.49392366409302,38.06263208389282 71.14062905311584,38.449570536613464 71.14062905311584,38.449570536613464 70.87340354919434,38.927724957466125 70.87340354919434,38.927724957466125 70.66045999526978,39.46041762828827 70.66045999526978,39.46041762828827 70.46992778778076,40.01101851463318 70.46992778778076,40.01101851463318 70.39521336555481,40.47212302684784 70.39521336555481,40.47212302684784 70.51007151603699,40.79009294509888 70.51007151603699,40.79009294509888 70.76557278633118,40.99142551422119 70.76557278633118,40.99142551422119 71.1126446723938,41.10247790813446 71.1126446723938,41.10247790813446 71.50234580039978,41.149744391441345 71.50234580039978,41.149744391441345 71.88575267791748,41.15961492061615 71.88575267791748,41.15961492061615 74.84748959541321,41.15961492061615 74.84748959541321,41.15961492061615 84.43006873130798,41.15961492061615 84.43006873130798,41.15961492061615 88.81114721298218,41.15961492061615 88.81114721298218,41.15961492061615 89.29856419563293,41.061931848526 89.29856419563293,41.061931848526 89.54996466636658,40.8033162355423 89.54996466636658,40.8033162355423 89.6216094493866,40.435296297073364 89.6216094493866,40.435296297073364 89.56930637359619,40.0094598531723 89.56930637359619,40.0094598531723 89.44931626319885,39.577364921569824 89.44931626319885,39.577364921569824" stroke="white" stroke-width="0.1" /><polygon points="94.32909488677979,34.23990607261658 94.32909488677979,34.23990607261658 93.89888644218445,33.45562815666199 93.89888644218445,33.45562815666199 93.4686005115509,32.6710969209671 93.4686005115509,32.6710969209671 93.03810000419617,31.886452436447144 93.03810000419617,31.886452436447144 92.60715246200562,31.10179305076599 92.60715246200562,31.10179305076599 92.1757698059082,30.3172767162323 92.1757698059082,30.3172767162323 91.74358248710632,29.53300178050995 91.74358248710632,29.53300178050995 91.63765907287598,29.3150395154953 91.63765907287598,29.3150395154953 91.51796698570251,29.046642780303955 91.51796698570251,29.046642780303955 91.38215780258179,28.760921955108643 91.38215780258179,28.760921955108643 91.22803211212158,28.491023182868958 91.22803211212158,28.491023182868958 91.0535454750061,28.2700777053833 91.0535454750061,28.2700777053833 90.8563494682312,28.131243586540222 90.8563494682312,28.131243586540222 90.54641723632812,28.023162484169006 90.54641723632812,28.023162484169006 90.22088646888733,27.944928407669067 90.22088646888733,27.944928407669067 89.8863434791565,27.88921892642975 89.8863434791565,27.88921892642975 89.54886794090271,27.84874737262726 89.54886794090271,27.84874737262726 89.21498656272888,27.816206216812134 89.21498656272888,27.816206216812134 88.89084458351135,27.78432071208954 88.89084458351135,27.78432071208954 88.15597295761108,27.711984515190125 88.15597295761108,27.711984515190125 87.42139935493469,27.647119760513306 87.42139935493469,27.647119760513306 86.68697476387024,27.589470148086548 86.68697476387024,27.589470148086548 85.95261573791504,27.538615465164185 85.95261573791504,27.538615465164185 85.21833419799805,27.494296431541443 85.21833419799805,27.494296431541443 84.48398113250732,27.45615243911743 84.48398113250732,27.45615243911743 83.79526138305664,27.42721736431122 83.79526138305664,27.42721736431122 83.10661911964417,27.403703331947327 83.10661911964417,27.403703331947327 82.41811990737915,27.385535836219788 82.41811990737915,27.385535836219788 81.7298412322998,27.372625470161438 81.7298412322998,27.372625470161438 81.04214668273926,27.364951372146606 81.04214668273926,27.364951372146606 80.35489320755005,27.362388372421265 80.35489320755005,27.362388372421265 79.56486940383911,27.365317940711975 79.56486940383911,27.365317940711975 78.7751317024231,27.374273538589478 78.7751317024231,27.374273538589478 77.98562049865723,27.389344573020935 77.98562049865723,27.389344573020935 77.19647288322449,27.410662174224854 77.19647288322449,27.410662174224854 76.40783786773682,27.43835151195526 76.40783786773682,27.43835151195526 75.61986446380615,27.472558617591858 75.61986446380615,27.472558617591858 74.85935688018799,27.506786584854126 74.85935688018799,27.506786584854126 74.09840822219849,27.544933557510376 74.09840822219849,27.544933557510376 73.3376145362854,27.58859097957611 73.3376145362854,27.58859097957611 72.5773274898529,27.639245986938477 72.5773274898529,27.639245986938477 71.81820869445801,27.69850790500641 71.81820869445801,27.69850790500641 71.0606336593628,27.767914533615112 71.0606336593628,27.767914533615112 70.74506282806396,27.78717875480652 70.74506282806396,27.78717875480652 70.31441330909729,27.809667587280273 70.31441330909729,27.809667587280273 69.83410120010376,27.85259187221527 69.83410120010376,27.85259187221527 69.36931014060974,27.933207154273987 69.36931014060974,27.933207154273987 68.98568868637085,28.068798780441284 68.98568868637085,28.068798780441284 68.74820590019226,28.276577591896057 68.74820590019226,28.276577591896057 68.18716526031494,29.26231622695923 68.18716526031494,29.26231622695923 67.63579845428467,30.25391399860382 67.63579845428467,30.25391399860382 67.0910894870758,31.249451637268066 67.0910894870758,31.249451637268066 66.54990315437317,32.24690854549408 66.54990315437317,32.24690854549408 66.00937247276306,33.2444041967392 66.00937247276306,33.2444041967392 65.46649932861328,34.23990607261658 65.46649932861328,34.23990607261658 67.76442527770996,33.75812470912933 67.76442527770996,33.75812470912933 70.07604837417603,33.38308930397034 70.07604837417603,33.38308930397034 72.39924669265747,33.106252551078796 72.39924669265747,33.106252551078796 74.73094463348389,32.919055223464966 74.73094463348389,32.919055223464966 77.06886529922485,32.81300365924835 77.06886529922485,32.81300365924835 79.41023111343384,32.77954459190369 79.41023111343384,32.77954459190369 80.2560031414032,32.784637808799744 80.2560031414032,32.784637808799744 81.10140562057495,32.79916048049927 81.10140562057495,32.79916048049927 81.94666504859924,32.822030782699585 81.94666504859924,32.822030782699585 82.79200196266174,32.8521192073822 82.79200196266174,32.8521192073822 83.6376965045929,32.888343930244446 83.6376965045929,32.888343930244446 84.48398113250732,32.929566502571106 84.48398113250732,32.929566502571106 84.81808304786682,32.94568359851837 84.81808304786682,32.94568359851837 85.15270352363586,32.96166956424713 85.15270352363586,32.96166956424713 85.48768758773804,32.97820687294006 85.48768758773804,32.97820687294006 85.8228862285614,32.9958975315094 85.8228862285614,32.9958975315094 86.15838289260864,33.01541805267334 86.15838289260864,33.01541805267334 86.49402856826782,33.037394285202026 86.49402856826782,33.037394285202026 87.81307935714722,33.14485549926758 87.81307935714722,33.14485549926758 89.12715315818787,33.29235017299652 89.12715315818787,33.29235017299652 90.43617248535156,33.47778618335724 90.43617248535156,33.47778618335724 91.73962473869324,33.69893729686737 91.73962473869324,33.69893729686737 93.03736686706543,33.95370841026306 93.03736686706543,33.95370841026306" stroke="white" stroke-width="0.1" /><polygon points="94.3841814994812,36.820730566978455 94.3841814994812,36.820730566978455 94.3242609500885,36.814045906066895 94.3242609500885,36.814045906066895 94.26514506340027,36.806392669677734 94.26514506340027,36.806392669677734 94.20588612556458,36.79875433444977 94.20588612556458,36.79875433444977 94.14567351341248,36.79207265377045 94.14567351341248,36.79207265377045 94.08392310142517,36.78736388683319 94.08392310142517,36.78736388683319 94.01968121528625,36.78556978702545 94.01968121528625,36.78556978702545 92.43003129959106,37.223801016807556 92.43003129959106,37.223801016807556 91.47621393203735,38.319456577301025 91.47621393203735,38.319456577301025 91.15844368934631,39.74379301071167 91.15844368934631,39.74379301071167 91.47628545761108,41.16811156272888 91.47628545761108,41.16811156272888 92.4301028251648,42.26376414299011 92.4301028251648,42.26376414299011 94.01968121528625,42.70201623439789 94.01968121528625,42.70201623439789 94.08384561538696,42.70022213459015 94.08384561538696,42.70022213459015 94.14560198783875,42.69549548625946 94.14560198783875,42.69549548625946 94.20588612556458,42.68882870674133 94.20588612556458,42.68882870674133 94.26522254943848,42.68117547035217 94.26522254943848,42.68117547035217 94.32440996170044,42.673519253730774 94.32440996170044,42.673519253730774 94.3841814994812,42.666855454444885 94.3841814994812,42.666855454444885 95.76462507247925,42.13271737098694 95.76462507247925,42.13271737098694 96.59274220466614,41.069915890693665 96.59274220466614,41.069915890693665 96.86875343322754,39.74291384220123 96.86875343322754,39.74291384220123 96.5925931930542,38.416093587875366 96.5925931930542,38.416093587875366 95.76440453529358,37.35389709472656 95.76440453529358,37.35389709472656" stroke="white" stroke-width="0.1" /></svg>