<?xml version="1.0" encoding="utf-8" ?>
<svg baseProfile="full" height="48.960524797439575" version="1.1" width="100.0" xmlns="http://www.w3.org/2000/svg" xmlns:ev="http://www.w3.org/2001/xml-events" xmlns:xlink="http://www.w3.org/1999/xlink"><defs><clipPath /></defs><polygon points="74.44486021995544,24.1881862282753 74.44486021995544,24.1881862282753 74.44486021995544,41.71468913555145 74.44486021995544,41.71468913555145 74.45100545883179,42.06807613372803 74.45100545883179,42.06807613372803 74.46901202201843,42.418310046195984 74.46901202201843,42.418310046195984 74.49845671653748,42.76547431945801 74.49845671653748,42.76547431945801 74.53858852386475,43.10967028141022 74.53858852386475,43.10967028141022 74.58911538124084,43.45105588436127 74.58911538124084,43.45105588436127 74.64941143989563,43.78970563411713 74.64941143989563,43.78970563411713 4.366382583975792,43.78970563411713 4.366382583975792,43.78970563411713 3.209143877029419,43.63303482532501 3.209143877029419,43.63303482532501 2.167026326060295,43.19134056568146 2.167026326060295,43.19134056568146 1.282624900341034,42.50707924365997 1.282624900341034,42.50707924365997 0.5982878617942333,41.62266254425049 0.5982878617942333,41.62266254425049 0.1566095626913011,40.58060646057129 0.1566095626913011,40.58060646057129 0.0,39.423322677612305 0.0,39.423322677612305 0.0,9.552937000989914 0.0,9.552937000989914 0.15673248562961817,8.39565247297287 0.15673248562961817,8.39565247297287 0.5983493290841579,7.353580743074417 0.5983493290841579,7.353580743074417 1.282624900341034,6.469179689884186 1.282624900341034,6.469179689884186 2.1669648587703705,5.784903839230537 2.1669648587703705,5.784903839230537 3.2090824097394943,5.343210324645042 3.2090824097394943,5.343210324645042 4.366382583975792,5.186554417014122 4.366382583975792,5.186554417014122 68.80003213882446,5.186554417014122 68.80003213882446,5.186554417014122 68.56265664100647,6.013011187314987 68.56265664100647,6.013011187314987 68.36031675338745,6.8738870322704315 68.36031675338745,6.8738870322704315 68.196702003479,7.769505679607391 68.196702003479,7.769505679607391 68.07531118392944,8.700189739465714 68.07531118392944,8.700189739465714 67.99983382225037,9.666291624307632 67.99983382225037,9.666291624307632 67.97395944595337,10.668134689331055 67.97395944595337,10.668134689331055 68.16934943199158,13.272736966609955 68.16934943199158,13.272736966609955 68.74293088912964,15.781332552433014 68.74293088912964,15.781332552433014 69.67601180076599,18.160562217235565 69.67601180076599,18.160562217235565 70.94972133636475,20.377036929130554 70.94972133636475,20.377036929130554 72.54568934440613,22.397364675998688 72.54568934440613,22.397364675998688" stroke="white" stroke-width="0.1" /><polygon points="4.846291244029999,41.74222648143768 4.846291244029999,41.74222648143768 5.381394550204277,41.67020618915558 5.381394550204277,41.67020618915558 5.862286686897278,41.467005014419556 5.862286686897278,41.467005014419556 6.270036846399307,41.15192890167236 6.270036846399307,41.15192890167236 6.58503845334053,40.744224190711975 6.58503845334053,40.744224190711975 6.788299232721329,40.26322364807129 6.788299232721329,40.26322364807129 6.860334426164627,39.728182554244995 6.860334426164627,39.728182554244995 6.788299232721329,39.1924649477005 6.788299232721329,39.1924649477005 6.585100293159485,38.71124982833862 6.585100293159485,38.71124982833862 6.270036846399307,38.30370008945465 6.270036846399307,38.30370008945465 5.862225219607353,37.988898158073425 5.862225219607353,37.988898158073425 5.381333082914352,37.78602182865143 5.381333082914352,37.78602182865143 4.846291244029999,37.71413862705231 4.846291244029999,37.71413862705231 4.310573637485504,37.78602182865143 4.310573637485504,37.78602182865143 3.8293126970529556,37.98891305923462 3.8293126970529556,37.98891305923462 3.4218084067106247,38.30370008945465 3.4218084067106247,38.30370008945465 3.106929548084736,38.71123492717743 3.106929548084736,38.71123492717743 2.904037758708,39.192432165145874 2.904037758708,39.192432165145874 2.8322482481598854,39.728182554244995 2.8322482481598854,39.728182554244995 2.9041606932878494,40.26322364807129 2.9041606932878494,40.26322364807129 3.1069910153746605,40.74423909187317 3.1069910153746605,40.74423909187317 3.4218084067106247,41.15192890167236 3.4218084067106247,41.15192890167236 3.829251229763031,41.467005014419556 3.829251229763031,41.467005014419556 4.3105121701955795,41.67020618915558 4.3105121701955795,41.67020618915558" stroke="white" stroke-width="0.1" /><polygon points="4.846291244029999,11.260153353214264 4.846291244029999,11.260153353214264 5.381394550204277,11.188148707151413 5.381394550204277,11.188148707151413 5.862286686897278,10.984949767589569 5.862286686897278,10.984949767589569 6.270036846399307,10.669855773448944 6.270036846399307,10.669855773448944 6.58503845334053,10.26216745376587 6.58503845334053,10.26216745376587 6.788299232721329,9.78115200996399 6.788299232721329,9.78115200996399 6.860334426164627,9.246110171079636 6.860334426164627,9.246110171079636 6.788299232721329,8.710392564535141 6.788299232721329,8.710392564535141 6.585100293159485,8.229177445173264 6.585100293159485,8.229177445173264 6.270036846399307,7.821626961231232 6.270036846399307,7.821626961231232 5.862225219607353,7.506825029850006 5.862225219607353,7.506825029850006 5.381333082914352,7.303948700428009 5.381333082914352,7.303948700428009 4.846291244029999,7.232066988945007 4.846291244029999,7.232066988945007 4.310573637485504,7.303948700428009 4.310573637485504,7.303948700428009 3.8293126970529556,7.50684067606926 3.8293126970529556,7.50684067606926 3.4218084067106247,7.821626961231232 3.4218084067106247,7.821626961231232 3.106929548084736,8.22916254401207 3.106929548084736,8.22916254401207 2.904037758708,8.710362017154694 2.904037758708,8.710362017154694 2.8322482481598854,9.246110171079636 2.8322482481598854,9.246110171079636 2.9041606932878494,9.78115200996399 2.9041606932878494,9.78115200996399 3.1069910153746605,10.26216745376587 3.1069910153746605,10.26216745376587 3.4218084067106247,10.669855773448944 3.4218084067106247,10.669855773448944 3.829251229763031,10.984934121370316 3.829251229763031,10.984934121370316 4.3105121701955795,11.18813306093216 4.3105121701955795,11.18813306093216" stroke="white" stroke-width="0.1" /><polygon points="23.498809337615967,33.54640603065491 23.498809337615967,33.54640603065491 25.500068068504333,33.27753245830536 25.500068068504333,33.27753245830536 27.297943830490112,32.518765330314636 27.297943830490112,32.518765330314636 28.821074962615967,31.341949105262756 28.821074962615967,31.341949105262756 29.99761402606964,29.818877577781677 29.99761402606964,29.818877577781677 30.75607717037201,28.021371364593506 30.75607717037201,28.021371364593506 31.02491796016693,26.021280884742737 31.02491796016693,26.021280884742737 30.7561993598938,24.020835757255554 30.7561993598938,24.020835757255554 29.997676610946655,22.22323715686798 29.997676610946655,22.22323715686798 28.821074962615967,20.70024311542511 28.821074962615967,20.70024311542511 27.297821640968323,19.52355057001114 27.297821640968323,19.52355057001114 25.50000548362732,18.76496523618698 25.50000548362732,18.76496523618698 23.498809337615967,18.496154248714447 23.498809337615967,18.496154248714447 21.682433784008026,18.496154248714447 21.682433784008026,18.496154248714447 21.682433784008026,18.48435401916504 21.682433784008026,18.48435401916504 21.017703413963318,18.394555151462555 21.017703413963318,18.394555151462555 20.419354736804962,18.141278624534607 20.419354736804962,18.141278624534607 19.911663234233856,17.74875521659851 19.911663234233856,17.74875521659851 19.518910348415375,17.241157591342926 19.518910348415375,17.241157591342926 19.26543414592743,16.64271652698517 19.26543414592743,16.64271652698517 19.17569786310196,15.977616608142853 19.17569786310196,15.977616608142853 19.17569786310196,13.47678154706955 19.17569786310196,13.47678154706955 14.156323671340942,13.47678154706955 14.156323671340942,13.47678154706955 14.157307147979736,26.020297408103943 14.157307147979736,26.020297408103943 14.15829062461853,26.020297408103943 14.15829062461853,26.020297408103943 14.431682229042053,28.017407655715942 14.431682229042053,28.017407655715942 15.192417800426483,29.81422245502472 15.192417800426483,29.81422245502472 16.36926382780075,31.33813738822937 16.36926382780075,31.33813738822937 17.89073646068573,32.51653611660004 17.89073646068573,32.51653611660004 19.685538113117218,33.27682614326477 19.685538113117218,33.27682614326477 21.682433784008026,33.54640603065491 21.682433784008026,33.54640603065491" stroke="white" stroke-width="0.1" /><polygon points="37.19784319400787,33.61721336841583 37.19784319400787,33.61721336841583 37.19784319400787,13.47678154706955 37.19784319400787,13.47678154706955 32.180437445640564,13.47678154706955 32.180437445640564,13.47678154706955 32.180437445640564,33.61721336841583 32.180437445640564,33.61721336841583" stroke="white" stroke-width="0.1" /><polygon points="45.91880738735199,33.61721336841583 45.91880738735199,33.61721336841583 47.91969656944275,33.3484023809433 47.91969656944275,33.3484023809433 49.71751272678375,32.589831948280334 49.71751272678375,32.589831948280334 51.24070644378662,31.41324818134308 51.24070644378662,31.41324818134308 52.417367696762085,29.890406131744385 52.417367696762085,29.890406131744385 53.17601561546326,28.09309959411621 53.17601561546326,28.09309959411621 53.444916009902954,26.093068718910217 53.444916009902954,26.093068718910217 53.44393253326416,18.496154248714447 53.44393253326416,18.496154248714447 48.42554330825806,18.496154248714447 48.42554330825806,18.496154248714447 48.42554330825806,26.093068718910217 48.42554330825806,26.093068718910217 48.33599030971527,26.757830381393433 48.33599030971527,26.757830381393433 48.08306694030762,27.356180548667908 48.08306694030762,27.356180548667908 47.69105315208435,27.863839268684387 47.69105315208435,27.863839268684387 47.18354642391205,28.256499767303467 47.18354642391205,28.256499767303467 46.584951877593994,28.509914875030518 46.584951877593994,28.509914875030518 45.91880738735199,28.599807620048523 45.91880738735199,28.599807620048523 45.2534019947052,28.509947657585144 45.2534019947052,28.509947657585144 44.654807448387146,28.2565176486969 44.654807448387146,28.2565176486969 44.147300720214844,27.863839268684387 44.147300720214844,27.863839268684387 43.75479221343994,27.356180548667908 43.75479221343994,27.356180548667908 43.50180923938751,26.757830381393433 43.50180923938751,26.757830381393433 43.41207146644592,26.093068718910217 43.41207146644592,26.093068718910217 43.41207146644592,18.496154248714447 43.41207146644592,18.496154248714447 38.392698764801025,18.496154248714447 38.392698764801025,18.496154248714447 38.39171528816223,26.093068718910217 38.39171528816223,26.093068718910217 38.66068124771118,28.09309959411621 38.66068124771118,28.09309959411621 39.41938877105713,29.890406131744385 39.41938877105713,29.890406131744385 40.5964195728302,31.41324818134308 40.5964195728302,31.41324818134308 42.11973547935486,32.58981704711914 42.11973547935486,32.58981704711914 43.917855620384216,33.3484023809433 43.917855620384216,33.3484023809433" stroke="white" stroke-width="0.1" /><polygon points="62.060654163360596,23.515526950359344 62.060654163360596,23.515526950359344 62.060654163360596,18.496154248714447 62.060654163360596,18.496154248714447 60.05982756614685,18.76496523618698 60.05982756614685,18.76496523618698 58.26188921928406,19.523581862449646 58.26188921928406,19.523581862449646 56.7387580871582,20.70024311542511 56.7387580871582,20.70024311542511 55.561912059783936,22.223222255706787 55.561912059783936,22.223222255706787 54.80338931083679,24.02082085609436 54.80338931083679,24.02082085609436 54.53454852104187,26.021280884742737 54.53454852104187,26.021280884742737 54.535531997680664,33.61721336841583 54.535531997680664,33.61721336841583 59.55392122268677,33.61721336841583 59.55392122268677,33.61721336841583 59.55392122268677,26.021280884742737 59.55392122268677,26.021280884742737 59.64365601539612,25.356242060661316 59.64365601539612,25.356242060661316 59.89676117897034,24.757985770702362 59.89676117897034,24.757985770702362 60.28915047645569,24.250634014606476 60.28915047645569,24.250634014606476 60.79659461975098,23.85832667350769 60.79659461975098,23.85832667350769 61.39518618583679,23.60524982213974 61.39518618583679,23.60524982213974" stroke="white" stroke-width="0.1" /><polygon points="100.0,10.656333714723587 100.0,10.656333714723587 99.78585839271545,13.036639988422394 99.78585839271545,13.036639988422394 99.16777610778809,15.280526876449585 99.16777610778809,15.280526876449585 98.18263649940491,17.353175580501556 98.18263649940491,17.353175580501556 96.86694741249084,19.21979784965515 96.86694741249084,19.21979784965515 95.25763988494873,20.845605432987213 95.25763988494873,20.845605432987213 93.39141845703125,22.195778787136078 93.39141845703125,22.195778787136078 93.39338541030884,41.70878827571869 93.39338541030884,41.70878827571869 93.12601685523987,43.63639950752258 93.12601685523987,43.63639950752258 92.3729658126831,45.368629693984985 92.3729658126831,45.368629693984985 91.20576977729797,46.83633744716644 91.20576977729797,46.83633744716644 89.69523906707764,47.97031283378601 89.69523906707764,47.97031283378601 87.91266679763794,48.701438307762146 87.91266679763794,48.701438307762146 85.92923283576965,48.960524797439575 85.92923283576965,48.960524797439575 83.94493460655212,48.70145618915558 83.94493460655212,48.70145618915558 82.16187357902527,47.970327734947205 82.16187357902527,47.970327734947205 80.6512176990509,46.83633744716644 80.6512176990509,46.83633744716644 79.48402166366577,45.36861479282379 79.48402166366577,45.36861479282379 78.73152494430542,43.63638460636139 78.73152494430542,43.63638460636139 78.46507430076599,41.70878827571869 78.46507430076599,41.70878827571869 78.46507430076599,22.113171219825745 78.46507430076599,22.113171219825745 76.63646936416626,20.7588791847229 76.63646936416626,20.7588791847229 75.06060004234314,19.137635827064514 75.06060004234314,19.137635827064514 73.77318143844604,17.283105850219727 73.77318143844604,17.283105850219727 72.80949354171753,15.228942036628723 72.80949354171753,15.228942036628723 72.20536470413208,13.00879567861557 72.20536470413208,13.00879567861557 71.9961404800415,10.656333714723587 71.9961404800415,10.656333714723587 72.37832546234131,7.274001091718674 72.37832546234131,7.274001091718674 73.33359122276306,4.592999443411827 73.33359122276306,4.592999443411827 74.57565069198608,2.574838139116764 74.57565069198608,2.574838139116764 75.81759095191956,1.1809639632701874 75.81759095191956,1.1809639632701874 76.77298188209534,0.37290039472281933 76.77298188209534,0.37290039472281933 77.15516090393066,0.11210982920601964 77.15516090393066,0.11210982920601964 77.15516090393066,11.81676909327507 77.15516090393066,11.81676909327507 85.92923283576965,16.741733253002167 85.92923283576965,16.741733253002167 94.70329880714417,11.81676909327507 94.70329880714417,11.81676909327507 94.70329880714417,0.0 94.70329880714417,0.0 95.09568214416504,0.2674593823030591 95.09568214416504,0.2674593823030591 96.07652425765991,1.09268669039011 96.07652425765991,1.09268669039011 97.35164642333984,2.509932406246662 97.35164642333984,2.509932406246662 98.62671494483948,4.553432017564774 98.62671494483948,4.553432017564774 99.60761070251465,7.257482409477234 99.60761070251465,7.257482409477234" stroke="white" stroke-width="0.1" /><polygon points="85.92923283576965,46.02009952068329 85.92923283576965,46.02009952068329 87.1078610420227,45.86614966392517 87.1078610420227,45.86614966392517 88.16694021224976,45.43164670467377 88.16694021224976,45.43164670467377 89.06412720680237,44.75763440132141 89.06412720680237,44.75763440132141 89.75719213485718,43.885111808776855 89.75719213485718,43.885111808776855 90.20403027534485,42.85516440868378 90.20403027534485,42.85516440868378 90.36248922348022,41.70878827571869 90.36248922348022,41.70878827571869 90.20415544509888,40.563228726387024 90.20415544509888,40.563228726387024 89.7573173046112,39.533817768096924 89.7573173046112,39.533817768096924 89.06412720680237,38.661664724349976 89.06412720680237,38.661664724349976 88.16681504249573,37.9878044128418 88.16681504249573,37.9878044128418 87.10773587226868,37.5533789396286 87.10773587226868,37.5533789396286 85.92923283576965,37.39944398403168 85.92923283576965,37.39944398403168 84.74962115287781,37.5533789396286 84.74962115287781,37.5533789396286 83.68961811065674,37.9878044128418 83.68961811065674,37.9878044128418 82.79163241386414,38.661664724349976 82.79163241386414,38.661664724349976 82.09770321846008,39.53380286693573 82.09770321846008,39.53380286693573 81.65037035942078,40.563228726387024 81.65037035942078,40.563228726387024 81.4920425415039,41.70878827571869 81.4920425415039,41.70878827571869 81.65062069892883,42.85517930984497 81.65062069892883,42.85517930984497 82.09782838821411,43.88512670993805 82.09782838821411,43.88512670993805 82.79163241386414,44.75763440132141 82.79163241386414,44.75763440132141 83.68949294090271,45.43164670467377 83.68949294090271,45.43164670467377 84.74955558776855,45.86613476276398 84.74955558776855,45.86613476276398" stroke="white" stroke-width="0.1" /></svg>