<?xml version="1.0" encoding="utf-8" ?>
<svg baseProfile="full" height="100.0" version="1.1" width="100.0" xmlns="http://www.w3.org/2000/svg" xmlns:ev="http://www.w3.org/2001/xml-events" xmlns:xlink="http://www.w3.org/1999/xlink"><defs><clipPath /></defs><polygon points="100.0,94.287109375 100.0,94.287109375 99.79467391967773,95.80071568489075 99.79467391967773,95.80071568489075 99.21606183052063,97.16399908065796 99.21606183052063,97.16399908065796 98.3203113079071,98.32128882408142 98.3203113079071,98.32128882408142 97.16259837150574,99.21679496765137 97.16259837150574,99.21679496765137 95.79907059669495,99.79491829872131 95.79907059669495,99.79491829872131 94.28515434265137,100.0 94.28515434265137,100.0 5.712890625,100.0 5.712890625,100.0 4.1990965604782104,99.79491829872131 4.1990965604782104,99.79491829872131 2.8358153998851776,99.21679496765137 2.8358153998851776,99.21679496765137 1.6787109896540642,98.32128882408142 1.6787109896540642,98.32128882408142 0.7832030765712261,97.16405868530273 0.7832030765712261,97.16405868530273 0.20507811568677425,95.80078125 0.20507811568677425,95.80078125 0.0,94.287109375 0.0,94.287109375 0.0,5.712890625 0.0,5.712890625 0.20495604258030653,4.199188202619553 0.20495604258030653,4.199188202619553 0.7830810733139515,2.8358763083815575 0.7830810733139515,2.8358763083815575 1.6787109896540642,1.6787109896540642 1.6787109896540642,1.6787109896540642 2.8359374031424522,0.7832030765712261 2.8359374031424522,0.7832030765712261 4.19921875,0.20507811568677425 4.19921875,0.20507811568677425 5.712890625,0.0 5.712890625,0.0 94.28515434265137,0.0 94.28515434265137,0.0 95.79882621765137,0.20504759158939123 95.79882621765137,0.20504759158939123 97.16247320175171,0.7831726223230362 97.16247320175171,0.7831726223230362 98.3203113079071,1.6787109896540642 98.3203113079071,1.6787109896540642 99.21630620956421,2.8359374031424522 99.21630620956421,2.8359374031424522 99.79491829872131,4.19921875 99.79491829872131,4.19921875 100.0,5.712890625 100.0,5.712890625" stroke="white" stroke-width="0.1" /></svg>