<?xml version="1.0" encoding="utf-8" ?>
<svg baseProfile="full" height="82.34270215034485" version="1.1" width="89.66009020805359" xmlns="http://www.w3.org/2000/svg" xmlns:ev="http://www.w3.org/2001/xml-events" xmlns:xlink="http://www.w3.org/1999/xlink"><defs><clipPath /></defs><polygon points="77.75499820709229,44.786301255226135 77.75499820709229,44.786301255226135 82.2813332080841,47.41618633270264 82.2813332080841,47.41618633270264 85.83571314811707,51.01882219314575 85.83571314811707,51.01882219314575 88.31763863563538,55.350929498672485 88.31763863563538,55.350929498672485 89.62593078613281,60.169005393981934 89.62593078613281,60.169005393981934 89.66009020805359,65.22988080978394 89.66009020805359,65.22988080978394 88.31902742385864,70.28995752334595 88.31902742385864,70.28995752334595 86.4331066608429,73.79220128059387 86.4331066608429,73.79220128059387 83.95912647247314,76.75474286079407 83.95912647247314,76.75474286079407 81.0017466545105,79.13448810577393 81.0017466545105,79.13448810577393 77.66563296318054,80.8878481388092 77.66563296318054,80.8878481388092 74.05564188957214,81.97171688079834 74.05564188957214,81.97171688079834 70.27645111083984,82.34270215034485 70.27645111083984,82.34270215034485 69.0289318561554,82.30258822441101 69.0289318561554,82.30258822441101 67.77823567390442,82.1812391281128 67.77823567390442,82.1812391281128 66.52804017066956,81.97707533836365 66.52804017066956,81.97707533836365 65.28171300888062,81.68841004371643 65.28171300888062,81.68841004371643 64.04293179512024,81.31414651870728 64.04293179512024,81.31414651870728 62.81537413597107,80.8523952960968 62.81537413597107,80.8523952960968 58.28983783721924,78.2227098941803 58.28983783721924,78.2227098941803 54.735660552978516,74.62027072906494 54.735660552978516,74.62027072906494 52.25412845611572,70.28866410255432 52.25412845611572,70.28866410255432 50.945740938186646,65.47078490257263 50.945740938186646,65.47078490257263 50.91167688369751,60.4106068611145 50.91167688369751,60.4106068611145 52.252936363220215,55.351126194000244 52.252936363220215,55.351126194000244 54.138362407684326,51.84818506240845 54.138362407684326,51.84818506240845 56.61214590072632,48.88494610786438 56.61214590072632,48.88494610786438 59.56962704658508,46.504804491996765 59.56962704658508,46.504804491996765 62.90574073791504,44.75085139274597 62.90574073791504,44.75085139274597 66.51612520217896,43.66688430309296 66.51612520217896,43.66688430309296 70.29551863670349,43.29599440097809 70.29551863670349,43.29599440097809 71.54243588447571,43.336111307144165 71.54243588447571,43.336111307144165 72.79253602027893,43.457457423210144 72.79253602027893,43.457457423210144 74.04253482818604,43.66162121295929 74.04253482818604,43.66162121295929 75.2885639667511,43.94998848438263 75.2885639667511,43.94998848438263 76.52724385261536,44.3243533372879 76.52724385261536,44.3243533372879" stroke="white" stroke-width="0.1" /><polygon points="84.156334400177,68.56688857078552 84.156334400177,68.56688857078552 85.1888656616211,64.67389464378357 85.1888656616211,64.67389464378357 85.16314625740051,60.78050136566162 85.16314625740051,60.78050136566162 84.15712714195251,57.07439184188843 84.15712714195251,57.07439184188843 82.24806785583496,53.742051124572754 82.24806785583496,53.742051124572754 79.51352000236511,50.97106099128723 79.51352000236511,50.97106099128723 76.03113651275635,48.94820153713226 76.03113651275635,48.94820153713226 75.08698105812073,48.593300580978394 75.08698105812073,48.593300580978394 74.13409352302551,48.30532670021057 74.13409352302551,48.30532670021057 73.17544221878052,48.08339178562164 73.17544221878052,48.08339178562164 72.213613986969,47.926098108291626 72.213613986969,47.926098108291626 71.25168442726135,47.832655906677246 71.25168442726135,47.832655906677246 70.29233574867249,47.801873087882996 70.29233574867249,47.801873087882996 67.38500595092773,48.087164759635925 67.38500595092773,48.087164759635925 64.60795402526855,48.92079532146454 64.60795402526855,48.92079532146454 62.04182505607605,50.26959776878357 62.04182505607605,50.26959776878357 59.76703763008118,52.10011005401611 59.76703763008118,52.10011005401611 57.86423087120056,54.37946319580078 57.86423087120056,54.37946319580078 56.41404390335083,57.07419514656067 56.41404390335083,57.07419514656067 55.38230538368225,60.96678972244263 55.38230538368225,60.96678972244263 55.40822148323059,64.8594856262207 55.40822148323059,64.8594856262207 56.41443729400635,68.5655951499939 56.41443729400635,68.5655951499939 58.323103189468384,71.8976378440857 58.323103189468384,71.8976378440857 61.057353019714355,74.66862797737122 61.057353019714355,74.66862797737122 64.53924179077148,76.69128775596619 64.53924179077148,76.69128775596619 65.48359394073486,77.04629302024841 65.48359394073486,77.04629302024841 66.43668413162231,77.334064245224 66.43668413162231,77.334064245224 67.39572882652283,77.55610346794128 67.39572882652283,77.55610346794128 68.35775971412659,77.71309614181519 68.35775971412659,77.71309614181519 69.31998133659363,77.80653834342957 69.31998133659363,77.80653834342957 70.27962803840637,77.83762216567993 70.27962803840637,77.83762216567993 73.18695783615112,77.55242586135864 73.18695783615112,77.55242586135864 75.9640097618103,76.71869397163391 75.9640097618103,76.71869397163391 78.52994799613953,75.37009119987488 78.52994799613953,75.37009119987488 80.8043360710144,73.53957891464233 80.8043360710144,73.53957891464233 82.7066421508789,71.2607204914093 82.7066421508789,71.2607204914093" stroke="white" stroke-width="0.1" /></svg>