<?xml version="1.0" encoding="utf-8" ?>
<svg baseProfile="full" height="77.30447053909302" version="1.1" width="99.99999403953552" xmlns="http://www.w3.org/2000/svg" xmlns:ev="http://www.w3.org/2001/xml-events" xmlns:xlink="http://www.w3.org/1999/xlink"><defs><clipPath /></defs><polygon points="76.68912410736084,36.38622164726257 76.68912410736084,36.38622164726257 75.58236718177795,36.21142506599426 75.58236718177795,36.21142506599426 74.54896569252014,36.05249226093292 74.54896569252014,36.05249226093292 73.6107587814331,35.91163456439972 73.6107587814331,35.91163456439972 72.788405418396,35.79058349132538 72.788405418396,35.79058349132538 72.10354208946228,35.69183945655823 72.10354208946228,35.69183945655823 71.57713174819946,35.61703860759735 71.57713174819946,35.61703860759735 71.52174711227417,35.60934662818909 71.52174711227417,35.60934662818909 71.41560316085815,35.596269369125366 71.41560316085815,35.596269369125366 71.38329744338989,35.59242486953735 71.38329744338989,35.59242486953735 71.22330665588379,35.57627201080322 71.22330665588379,35.57627201080322 70.78035473823547,35.53377389907837 70.78035473823547,35.53377389907837 69.89396810531616,35.453200340270996 69.89396810531616,35.453200340270996 68.6525046825409,35.34551560878754 68.6525046825409,35.34551560878754 67.14442372322083,35.221582651138306 67.14442372322083,35.221582651138306 65.45847058296204,35.09264588356018 65.45847058296204,35.09264588356018 63.683003187179565,34.96938645839691 63.683003187179565,34.96938645839691 62.463945150375366,34.89487171173096 62.463945150375366,34.89487171173096 61.36564612388611,34.83496904373169 61.36564612388611,34.83496904373169 60.37589907646179,34.789493680000305 60.37589907646179,34.789493680000305 59.48258638381958,34.757474064826965 59.48258638381958,34.757474064826965 58.67350101470947,34.738630056381226 58.67350101470947,34.738630056381226 57.93642997741699,34.73247587680817 57.93642997741699,34.73247587680817 56.092506647109985,34.78814661502838 56.092506647109985,34.78814661502838 54.41011190414429,34.98659431934357 54.41011190414429,34.98659431934357 52.878475189208984,35.37570536136627 52.878475189208984,35.37570536136627 51.487213373184204,36.002495884895325 51.487213373184204,36.002495884895325 50.22584795951843,36.9145542383194 50.22584795951843,36.9145542383194 49.083900451660156,38.159188628196716 49.083900451660156,38.159188628196716 48.91141057014465,38.390615582466125 48.91141057014465,38.390615582466125 48.676908016204834,38.711175322532654 48.676908016204834,38.711175322532654 48.39182794094086,39.105284214019775 48.39182794094086,39.105284214019775 48.066943883895874,39.556699991226196 48.066943883895874,39.556699991226196 47.71379232406616,40.04964828491211 47.71379232406616,40.04964828491211 47.343239188194275,40.56827127933502 47.343239188194275,40.56827127933502 46.67404890060425,40.49058258533478 46.67404890060425,40.49058258533478 46.520790457725525,40.474238991737366 46.520790457725525,40.474238991737366 46.367913484573364,40.460970997810364 46.367913484573364,40.460970997810364 46.215713024139404,40.45077860355377 46.215713024139404,40.45077860355377 46.06398940086365,40.44337570667267 46.06398940086365,40.44337570667267 45.91294229030609,40.439048409461975 45.91294229030609,40.439048409461975 45.76256573200226,40.43751060962677 45.76256573200226,40.43751060962677 43.830281496047974,40.677109360694885 43.830281496047974,40.677109360694885 42.065197229385376,41.35928153991699 42.065197229385376,41.35928153991699 40.53067862987518,42.42767691612244 40.53067862987518,42.42767691612244 39.289408922195435,43.82643699645996 39.289408922195435,43.82643699645996 38.40455710887909,45.49989104270935 38.40455710887909,45.49989104270935 37.93920278549194,47.39169776439667 37.93920278549194,47.39169776439667 37.93843388557434,47.397080063819885 37.93843388557434,47.397080063819885 37.92920410633087,47.47861623764038 37.92920410633087,47.47861623764038 37.885743379592896,48.00291061401367 37.885743379592896,48.00291061401367 37.87709176540375,48.52210879325867 37.87709176540375,48.52210879325867 37.90237903594971,49.03525114059448 37.90237903594971,49.03525114059448 37.96045184135437,49.540603160858154 37.96045184135437,49.540603160858154 38.050541281700134,50.03730654716492 38.050541281700134,50.03730654716492 38.171496987342834,50.52381157875061 38.171496987342834,50.52381157875061 37.980738282203674,52.59522199630737 37.980738282203674,52.59522199630737 37.79613375663757,54.602789878845215 37.79613375663757,54.602789878845215 37.63595223426819,54.95988726615906 37.63595223426819,54.95988726615906 37.49423027038574,55.324190855026245 37.49423027038574,55.324190855026245 37.371161580085754,55.69484233856201 37.371161580085754,55.69484233856201 37.26703226566315,56.070876121520996 37.26703226566315,56.070876121520996 37.1823251247406,56.45171403884888 37.1823251247406,56.45171403884888 37.116944789886475,56.83649778366089 37.116944789886475,56.83649778366089 35.56627035140991,68.23579668998718 35.56627035140991,68.23579668998718 35.494738817214966,68.23579668998718 35.494738817214966,68.23579668998718 34.99476909637451,72.44015336036682 34.99476909637451,72.44015336036682 34.9590003490448,72.85426259040833 34.9590003490448,72.85426259040833 34.94938611984253,73.26606512069702 34.94938611984253,73.26606512069702 34.963423013687134,73.67537021636963 34.963423013687134,73.67537021636963 34.999096393585205,74.08159375190735 34.999096393585205,74.08159375190735 35.05437970161438,74.4848370552063 35.05437970161438,74.4848370552063 35.12706756591797,74.8846173286438 35.12706756591797,74.8846173286438 33.493322134017944,74.8846173286438 33.493322134017944,74.8846173286438 30.56696355342865,74.48551058769226 30.56696355342865,74.48551058769226 27.984237670898438,73.36009740829468 27.984237670898438,73.36009740829468 25.846484303474426,71.61712646484375 25.846484303474426,71.61712646484375 24.254468083381653,69.36419010162354 24.254468083381653,69.36419010162354 23.309430480003357,66.70992970466614 23.309430480003357,66.70992970466614 23.112423717975616,63.762229681015015 23.112423717975616,63.762229681015015 24.604639410972595,42.10202395915985 24.604639410972595,42.10202395915985 24.605311453342438,42.07923710346222 24.605311453342438,42.07923710346222 24.606946110725403,42.05740988254547 24.606946110725403,42.05740988254547 24.60963875055313,42.036065459251404 24.60963875055313,42.036065459251404 24.61233139038086,42.014721035957336 24.61233139038086,42.014721035957336 24.61502254009247,41.99327826499939 24.61502254009247,41.99327826499939 24.616946280002594,41.97126030921936 24.616946280002594,41.97126030921936 22.728022933006287,39.63342607021332 22.728022933006287,39.63342607021332 18.42309683561325,34.119534492492676 18.42309683561325,34.119534492492676 12.933050096035004,27.03583538532257 12.933050096035004,27.03583538532257 7.488000392913818,19.987808167934418 7.488000392913818,19.987808167934418 3.3185455948114395,14.581410586833954 3.3185455948114395,14.581410586833954 1.6552826389670372,12.422312051057816 1.6552826389670372,12.422312051057816 0.6207310128957033,10.658381879329681 0.6207310128957033,10.658381879329681 0.08557165274396539,8.769556134939194 0.08557165274396539,8.769556134939194 0.0392283545807004,6.855923682451248 0.0392283545807004,6.855923682451248 0.4713171161711216,5.016614124178886 0.4713171161711216,5.016614124178886 1.3713578693568707,3.3515244722366333 1.3713578693568707,3.3515244722366333 2.7290627360343933,1.9598793238401413 2.7290627360343933,1.9598793238401413 3.04712001234293,1.7312396317720413 3.04712001234293,1.7312396317720413 3.375176712870598,1.5271174721419811 3.375176712870598,1.5271174721419811 3.7119828164577484,1.3456863351166248 3.7119828164577484,1.3456863351166248 4.056096449494362,1.1842540465295315 4.056096449494362,1.1842540465295315 4.406267032027245,1.0410897433757782 4.406267032027245,1.0410897433757782 4.761245474219322,0.9137898683547974 4.761245474219322,0.9137898683547974 5.2415043115615845,0.7100524380803108 5.2415043115615845,0.7100524380803108 5.731954798102379,0.5441972520202398 5.731954798102379,0.5441972520202398 6.230673938989639,0.41603208519518375 6.230673938989639,0.41603208519518375 6.73573911190033,0.3247876884415746 6.73573911190033,0.3247876884415746 7.245226949453354,0.27036797255277634 7.245226949453354,0.27036797255277634 7.757214456796646,0.25229216553270817 7.757214456796646,0.25229216553270817 8.91752764582634,0.34449801314622164 8.91752764582634,0.34449801314622164 10.05755364894867,0.6185195874422789 10.05755364894867,0.6185195874422789 11.154313385486603,1.070703286677599 11.154313385486603,1.070703286677599 12.184826284646988,1.6964340582489967 12.184826284646988,1.6964340582489967 13.126403093338013,2.4921542033553123 13.126403093338013,2.4921542033553123 13.956063985824585,3.453633561730385 13.956063985824585,3.453633561730385 34.43480134010315,31.196540594100952 34.43480134010315,31.196540594100952 34.735456109046936,31.142795085906982 34.735456109046936,31.142795085906982 35.03755331039429,31.09712302684784 35.03755331039429,31.09712302684784 35.3410929441452,31.060010194778442 35.3410929441452,31.060010194778442 35.645592212677,31.03116750717163 35.645592212677,31.03116750717163 35.951247811317444,31.011071801185608 35.951247811317444,31.011071801185608 36.25776767730713,30.99963068962097 36.25776767730713,30.99963068962097 36.27997636795044,30.99895715713501 36.27997636795044,30.99895715713501 36.30228340625763,30.997514724731445 36.30228340625763,30.997514724731445 36.32468581199646,30.99578320980072 36.32468581199646,30.99578320980072 36.34699285030365,30.993860960006714 36.34699285030365,30.993860960006714 36.36929988861084,30.99251389503479 36.36929988861084,30.99251389503479 36.39160394668579,30.991938710212708 36.39160394668579,30.991938710212708 34.722381830215454,29.247140884399414 34.722381830215454,29.247140884399414 33.29833447933197,27.290818095207214 33.29833447933197,27.290818095207214 32.14532732963562,25.147682428359985 32.14532732963562,25.147682428359985 31.289419531822205,22.841766476631165 31.289419531822205,22.841766476631165 30.756855010986328,20.39787918329239 30.756855010986328,20.39787918329239 30.57350218296051,17.840440571308136 30.57350218296051,17.840440571308136 31.210675835609436,13.098135590553284 31.210675835609436,13.098135590553284 33.00902545452118,8.836475014686584 33.00902545452118,8.836475014686584 35.7985645532608,5.225832015275955 35.7985645532608,5.225832015275955 39.40901458263397,2.4360038340091705 39.40901458263397,2.4360038340091705 43.67029070854187,0.637460732832551 43.67029070854187,0.637460732832551 48.41240346431732,0.0 48.41240346431732,0.0 53.15451622009277,0.6372684612870216 53.15451622009277,0.6372684612870216 57.41578936576843,2.43590772151947 57.41578936576843,2.43590772151947 61.0262393951416,5.225832015275955 61.0262393951416,5.225832015275955 63.815683126449585,8.836571127176285 63.815683126449585,8.836571127176285 65.61413407325745,13.098232448101044 65.61413407325745,13.098232448101044 66.25130772590637,17.840440571308136 66.25130772590637,17.840440571308136 66.06795191764832,20.39778232574463 66.06795191764832,20.39778232574463 65.53519368171692,22.841671109199524 65.53519368171692,22.841671109199524 64.67947959899902,25.147682428359985 64.67947959899902,25.147682428359985 63.52647542953491,27.291011810302734 63.52647542953491,27.291011810302734 62.10232973098755,29.247334599494934 62.10232973098755,29.247334599494934 60.43320298194885,30.991938710212708 60.43320298194885,30.991938710212708 60.45541167259216,30.99241852760315 60.45541167259216,30.99241852760315 60.477620363235474,30.993765592575073 60.477620363235474,30.993765592575073 60.500121116638184,30.99578320980072 60.500121116638184,30.99578320980072 60.522425174713135,30.997610092163086 60.522425174713135,30.997610092163086 60.54473519325256,30.99914789199829 60.54473519325256,30.99914789199829 60.567039251327515,30.99963068962097 60.567039251327515,30.99963068962097 60.87346076965332,31.010878086090088 60.87346076965332,31.010878086090088 61.179119348526,31.03106915950775 61.179119348526,31.03106915950775 61.48371696472168,31.060010194778442 61.48371696472168,31.060010194778442 61.787158250808716,31.09731674194336 61.787158250808716,31.09731674194336 62.08925247192383,31.142890453338623 62.08925247192383,31.142890453338623 62.390005588531494,31.196540594100952 62.390005588531494,31.196540594100952 82.86874294281006,3.453633561730385 82.86874294281006,3.453633561730385 83.69840383529663,2.4918658658862114 83.69840383529663,2.4918658658862114 84.6397876739502,1.6960494220256805 84.6397876739502,1.6960494220256805 85.67049503326416,1.0704148560762405 85.67049503326416,1.0704148560762405 86.7671549320221,0.6184234749525785 86.7671549320221,0.6184234749525785 87.9071831703186,0.3445941722020507 87.9071831703186,0.3445941722020507 89.06759023666382,0.25229216553270817 89.06759023666382,0.25229216553270817 89.57919478416443,0.2702718134969473 89.57919478416443,0.2702718134969473 90.08868336677551,0.3246915526688099 90.08868336677551,0.3246915526688099 90.5938446521759,0.41603208519518375 90.5938446521759,0.41603208519518375 91.09265804290771,0.5442934110760689 91.09265804290771,0.5442934110760689 91.58320426940918,0.7101485971361399 91.58320426940918,0.7101485971361399 92.06356406211853,0.9137898683547974 92.06356406211853,0.9137898683547974 92.41844415664673,1.0409936308860779 92.41844415664673,1.0409936308860779 92.76861548423767,1.1841578409075737 92.76861548423767,1.1841578409075737 93.11282634735107,1.3456863351166248 93.11282634735107,1.3456863351166248 93.44953298568726,1.5273097902536392 93.44953298568726,1.5273097902536392 93.77768635749817,1.731431856751442 93.77768635749817,1.731431856751442 94.09574270248413,1.9598793238401413 94.09574270248413,1.9598793238401413 95.45335173606873,3.351428359746933 95.45335173606873,3.351428359746933 96.35329842567444,5.016518011689186 96.35329842567444,5.016518011689186 96.78558111190796,6.855923682451248 96.78558111190796,6.855923682451248 96.73923850059509,8.769652247428894 96.73923850059509,8.769652247428894 96.20407819747925,10.658381879329681 96.20407819747925,10.658381879329681 95.16952633857727,12.422312051057816 95.16952633857727,12.422312051057816" stroke="white" stroke-width="0.1" /><polygon points="99.99999403953552,70.07107138633728 99.99999403953552,70.07107138633728 99.99999403953552,75.0523030757904 99.99999403953552,75.0523030757904 99.91903901100159,75.6495714187622 99.91903901100159,75.6495714187622 99.69068765640259,76.1871337890625 99.69068765640259,76.1871337890625 99.3373453617096,76.6433596611023 99.3373453617096,76.6433596611023 98.88054728507996,76.99602842330933 98.88054728507996,76.99602842330933 98.34240674972534,77.22370624542236 98.34240674972534,77.22370624542236 97.7447509765625,77.30447053909302 97.7447509765625,77.30447053909302 81.50728940963745,77.30447053909302 81.50728940963745,77.30447053909302 81.06087446212769,77.25957036018372 81.06087446212769,77.25957036018372 80.64436316490173,77.13130712509155 80.64436316490173,77.13130712509155 80.26659488677979,76.92853212356567 80.26659488677979,76.92853212356567 79.93584871292114,76.66008472442627 79.93584871292114,76.66008472442627 79.66105937957764,76.33529901504517 79.66105937957764,76.33529901504517 79.45049405097961,75.96301436424255 79.45049405097961,75.96301436424255 53.17595601081848,72.88628220558167 53.17595601081848,72.88628220558167 52.94904708862305,74.55540895462036 52.94904708862305,74.55540895462036 52.75646448135376,75.27074813842773 52.75646448135376,75.27074813842773 52.411967515945435,75.89638233184814 52.411967515945435,75.89638233184814 51.938724517822266,76.41443014144897 51.938724517822266,76.41443014144897 51.35943293571472,76.80671215057373 51.35943293571472,76.80671215057373 50.69735646247864,77.05544829368591 50.69735646247864,77.05544829368591 49.975383281707764,77.1421730518341 49.975383281707764,77.1421730518341 42.3073947429657,76.26761198043823 42.3073947429657,76.26761198043823 41.54022932052612,76.07194781303406 41.54022932052612,76.07194781303406 40.87556004524231,75.69524049758911 40.87556004524231,75.69524049758911 40.3378039598465,75.1688301563263 40.3378039598465,75.1688301563263 39.95080888271332,74.52349066734314 39.95080888271332,74.52349066734314 39.73918855190277,73.790842294693 39.73918855190277,73.790842294693 39.72678482532501,73.00165891647339 39.72678482532501,73.00165891647339 39.727553725242615,73.00242781639099 39.727553725242615,73.00242781639099 39.72890079021454,73.00050258636475 39.72890079021454,73.00050258636475 39.72966969013214,72.9945421218872 39.72966969013214,72.9945421218872 39.730629324913025,72.98367619514465 39.730629324913025,72.98367619514465 39.73226547241211,72.96685576438904 39.73226547241211,72.96685576438904 39.73543643951416,72.94339537620544 39.73543643951416,72.94339537620544 39.740630984306335,72.91243076324463 39.740630984306335,72.91243076324463 41.83511734008789,57.511842250823975 41.83511734008789,57.511842250823975 41.88559353351593,57.24599361419678 41.88559353351593,57.24599361419678 41.95837676525116,56.991779804229736 41.95837676525116,56.991779804229736 42.052122950553894,56.74939155578613 42.052122950553894,56.74939155578613 42.16548204421997,56.51844143867493 42.16548204421997,56.51844143867493 42.296916246414185,56.299418210983276 42.296916246414185,56.299418210983276 42.44507849216461,56.091928482055664 42.44507849216461,56.091928482055664 42.7266001701355,53.03211808204651 42.7266001701355,53.03211808204651 45.31874656677246,51.66143178939819 45.31874656677246,51.66143178939819 45.4456627368927,51.48913860321045 45.4456627368927,51.48913860321045 45.39104998111725,51.47990584373474 45.39104998111725,51.47990584373474 44.583889842033386,51.27376317977905 44.583889842033386,51.27376317977905 43.88287365436554,50.87571144104004 43.88287365436554,50.87571144104004 43.31425726413727,50.319403409957886 43.31425726413727,50.319403409957886 42.90399253368378,49.6374249458313 42.90399253368378,49.6374249458313 42.678430676460266,48.86305034160614 42.678430676460266,48.86305034160614 42.66352653503418,48.029351234436035 42.66352653503418,48.029351234436035 42.671987414360046,47.952431440353394 42.671987414360046,47.952431440353394 42.85755455493927,47.200074791908264 42.85755455493927,47.200074791908264 43.21012794971466,46.5374231338501 43.21012794971466,46.5374231338501 43.703269958496094,45.98553478717804 43.703269958496094,45.98553478717804 44.310539960861206,45.565176010131836 44.310539960861206,45.565176010131836 45.005786418914795,45.297786593437195 45.005786418914795,45.297786593437195 45.76256573200226,45.20413875579834 45.76256573200226,45.20413875579834 45.971688628196716,45.222023129463196 45.971688628196716,45.222023129463196 46.40223979949951,45.266443490982056 46.40223979949951,45.266443490982056 46.9386488199234,45.32451629638672 46.9386488199234,45.32451629638672 47.4648654460907,45.3823983669281 47.4648654460907,45.3823983669281 47.86551296710968,45.42710781097412 47.86551296710968,45.42710781097412 48.02473485469818,45.4448938369751 48.02473485469818,45.4448938369751 48.26808571815491,45.485180616378784 48.26808571815491,45.485180616378784 48.50422441959381,45.54411768913269 48.50422441959381,45.54411768913269 48.73257577419281,45.62103748321533 48.73257577419281,45.62103748321533 48.95256161689758,45.71468532085419 48.95256161689758,45.71468532085419 49.16370213031769,45.82458138465881 49.16370213031769,45.82458138465881 49.36542212963104,45.94947695732117 49.36542212963104,45.94947695732117 50.0823974609375,44.9385792016983 50.0823974609375,44.9385792016983 50.80629587173462,43.9206600189209 50.80629587173462,43.9206600189209 51.49240493774414,42.95908510684967 51.49240493774414,42.95908510684967 52.09602117538452,42.11702346801758 52.09602117538452,42.11702346801758 52.57262587547302,41.45802557468414 52.57262587547302,41.45802557468414 52.8775155544281,41.045165061950684 52.8775155544281,41.045165061950684 53.30585241317749,40.556830167770386 53.30585241317749,40.556830167770386 53.814953565597534,40.165698528289795 53.814953565597534,40.165698528289795 54.46895360946655,39.8682177066803 54.46895360946655,39.8682177066803 55.33120632171631,39.66025114059448 55.33120632171631,39.66025114059448 56.4658522605896,39.53814208507538 56.4658522605896,39.53814208507538 57.93642997741699,39.49833810329437 57.93642997741699,39.49833810329437 58.649468421936035,39.50468301773071 58.649468421936035,39.50468301773071 59.433841705322266,39.524105191230774 59.433841705322266,39.524105191230774 60.294169187545776,39.556121826171875 60.294169187545776,39.556121826171875 61.234498023986816,39.600446820259094 61.234498023986816,39.600446820259094 62.25943565368652,39.65698182582855 62.25943565368652,39.65698182582855 63.37302327156067,39.72524702548981 63.37302327156067,39.72524702548981 65.49404263496399,39.8939847946167 65.49404263496399,39.8939847946167 68.03571581840515,40.143778920173645 68.03571581840515,40.143778920173645 70.78592777252197,40.45020043849945 70.78592777252197,40.45020043849945 73.5321044921875,40.787968039512634 73.5321044921875,40.787968039512634 76.06223821640015,41.1324679851532 76.06223821640015,41.1324679851532 78.16364765167236,41.45898520946503 78.16364765167236,41.45898520946503 81.58122897148132,42.07971692085266 81.58122897148132,42.07971692085266 84.0639591217041,42.630645632743835 84.0639591217041,42.630645632743835 85.7833743095398,43.163302540779114 85.7833743095398,43.163302540779114 86.91022396087646,43.729037046432495 86.91022396087646,43.729037046432495 87.61594891548157,44.37957406044006 87.61594891548157,44.37957406044006 88.0715012550354,45.16645073890686 88.0715012550354,45.16645073890686 88.27264308929443,45.6372857093811 88.27264308929443,45.6372857093811 88.58397006988525,46.38810455799103 88.58397006988525,46.38810455799103 88.97673487663269,47.346892952919006 88.97673487663269,47.346892952919006 89.42189812660217,48.44124913215637 89.42189812660217,48.44124913215637 89.89081382751465,49.5995432138443 89.89081382751465,49.5995432138443 90.35443663597107,50.74918270111084 90.35443663597107,50.74918270111084 92.96889305114746,57.245707511901855 92.96889305114746,57.245707511901855 95.1772153377533,59.170204401016235 95.1772153377533,59.170204401016235 94.74647641181946,62.21309304237366 94.74647641181946,62.21309304237366 94.84252333641052,62.447309494018555 94.84252333641052,62.447309494018555 94.92021203041077,62.6900851726532 94.92021203041077,62.6900851726532 94.97780799865723,62.94054985046387 94.97780799865723,62.94054985046387 95.01357078552246,63.1980299949646 95.01357078552246,63.1980299949646 95.02636194229126,63.46186399459839 95.02636194229126,63.46186399459839 95.01414895057678,63.73146176338196 95.01414895057678,63.73146176338196 94.64417099952698,67.81428456306458 94.64417099952698,67.81428456306458 97.7447509765625,67.81428456306458 97.7447509765625,67.81428456306458 98.34221601486206,67.89495348930359 98.34221601486206,67.89495348930359 98.88035655021667,68.12272667884827 98.88035655021667,68.12272667884827 99.3373453617096,68.47597360610962 99.3373453617096,68.47597360610962 99.69078302383423,68.93287301063538 99.69078302383423,68.93287301063538 99.91903901100159,69.47178244590759 99.91903901100159,69.47178244590759" stroke="white" stroke-width="0.1" /><polygon points="50.07845759391785,53.9182186126709 50.07845759391785,53.9182186126709 49.99961256980896,53.90965938568115 49.99961256980896,53.90965938568115 49.92086887359619,53.90264391899109 49.92086887359619,53.90264391899109 49.842604994773865,53.89745235443115 49.842604994773865,53.89745235443115 49.76434111595154,53.89360189437866 49.76434111595154,53.89360189437866 49.68636333942413,53.891295194625854 49.68636333942413,53.891295194625854 49.60848391056061,53.89052629470825 49.60848391056061,53.89052629470825 48.64142835140228,54.01023030281067 48.64142835140228,54.01023030281067 47.753310203552246,54.352134466171265 47.753310203552246,54.352134466171265 46.977779269218445,54.889410734176636 46.977779269218445,54.889410734176636 46.34820520877838,55.59532642364502 46.34820520877838,55.59532642364502 45.898520946502686,56.44363760948181 45.898520946502686,56.44363760948181 45.66180408000946,57.407236099243164 45.66180408000946,57.407236099243164 45.67959010601044,58.474379777908325 45.67959010601044,58.474379777908325 45.96755504608154,59.465181827545166 45.96755504608154,59.465181827545166 46.492233872413635,60.33782362937927 46.492233872413635,60.33782362937927 47.21997678279877,61.049699783325195 47.21997678279877,61.049699783325195 48.11742305755615,61.55909299850464 48.11742305755615,61.55909299850464 49.15081858634949,61.82388663291931 49.15081858634949,61.82388663291931 49.22879636287689,61.83215379714966 49.22879636287689,61.83215379714966 49.30658042430878,61.8388831615448 49.30658042430878,61.8388831615448 49.38436448574066,61.844271421432495 49.38436448574066,61.844271421432495 49.461859464645386,61.84792518615723 49.461859464645386,61.84792518615723 49.53916072845459,61.850035190582275 49.53916072845459,61.850035190582275 49.61617588996887,61.85080409049988 49.61617588996887,61.85080409049988 50.58390498161316,61.73090934753418 50.58390498161316,61.73090934753418 51.47289037704468,61.38920187950134 51.47289037704468,61.38920187950134 52.249473333358765,60.85211634635925 52.249473333358765,60.85211634635925 52.87972688674927,60.14600992202759 52.87972688674927,60.14600992202759 53.33036780357361,59.29769277572632 53.33036780357361,59.29769277572632 53.567469120025635,58.33333134651184 53.567469120025635,58.33333134651184 53.548723459243774,57.26551413536072 53.548723459243774,57.26551413536072 53.26095223426819,56.27451539039612 53.26095223426819,56.27451539039612 52.73703932762146,55.40235638618469 52.73703932762146,55.40235638618469 52.00996994972229,54.69086170196533 52.00996994972229,54.69086170196533 51.112812757492065,54.18224334716797 51.112812757492065,54.18224334716797" stroke="white" stroke-width="0.1" /><polygon points="80.8580994606018,65.81286787986755 80.8580994606018,65.81286787986755 80.77810406684875,64.09143805503845 80.77810406684875,64.09143805503845 80.70330023765564,63.65309953689575 80.70330023765564,63.65309953689575 80.53090572357178,63.228124380111694 80.53090572357178,63.228124380111694 80.27650117874146,62.8365159034729 80.27650117874146,62.8365159034729 79.95526790618896,62.49721050262451 79.95526790618896,62.49721050262451 79.58279252052307,62.23011016845703 79.58279252052307,62.23011016845703 79.17435765266418,62.05464005470276 79.17435765266418,62.05464005470276 59.560179710388184,56.34268522262573 59.560179710388184,56.34268522262573 59.47383642196655,56.31980299949646 59.47383642196655,56.31980299949646 59.385961294174194,56.30143880844116 59.385961294174194,56.30143880844116 59.296828508377075,56.28740191459656 59.296828508377075,56.28740191459656 59.20635461807251,56.27749562263489 59.20635461807251,56.27749562263489 59.11491513252258,56.27153515815735 59.11491513252258,56.27153515815735 59.02252197265625,56.2696099281311 59.02252197265625,56.2696099281311 58.65744352340698,56.298935413360596 58.65744352340698,56.298935413360596 58.29525589942932,56.38431906700134 58.29525589942932,56.38431906700134 57.94816017150879,56.521421670913696 57.94816017150879,56.521421670913696 57.62789249420166,56.70573711395264 57.62789249420166,56.70573711395264 57.346951961517334,56.93331956863403 57.346951961517334,56.93331956863403 57.11725354194641,57.19955563545227 57.11725354194641,57.19955563545227 56.12654685974121,58.61023664474487 56.12654685974121,58.61023664474487 55.93646168708801,58.97079110145569 55.93646168708801,58.97079110145569 55.87069392204285,59.32605862617493 55.87069392204285,59.32605862617493 55.923670530319214,59.659212827682495 55.923670530319214,59.659212827682495 56.089240312576294,59.9531352519989 56.089240312576294,59.9531352519989 56.36162757873535,60.19119620323181 56.36162757873535,60.19119620323181 56.73496723175049,60.35628318786621 56.73496723175049,60.35628318786621 79.40587997436523,66.96048974990845 79.40587997436523,66.96048974990845 79.47549223899841,66.97866320610046 79.47549223899841,66.97866320610046 79.54404354095459,66.99346899986267 79.54404354095459,66.99346899986267 79.61202263832092,67.00510382652283 79.61202263832092,67.00510382652283 79.67875003814697,67.01327562332153 79.67875003814697,67.01327562332153 79.74451184272766,67.01818108558655 79.74451184272766,67.01818108558655 79.8089325428009,67.01971888542175 79.8089325428009,67.01971888542175 80.11016249656677,66.98077917098999 80.11016249656677,66.98077917098999 80.37216663360596,66.86847805976868 80.37216663360596,66.86847805976868 80.58618903160095,66.68916344642639 80.58618903160095,66.68916344642639 80.74396848678589,66.44917726516724 80.74396848678589,66.44917726516724 80.8374285697937,66.15496277809143 80.8374285697937,66.15496277809143" stroke="white" stroke-width="0.1" /><polygon points="87.24309206008911,54.488950967788696 87.24309206008911,54.488950967788696 87.44375109672546,54.558563232421875 87.44375109672546,54.558563232421875 87.72815465927124,54.65922951698303 87.72815465927124,54.65922951698303 88.04323077201843,54.771625995635986 88.04323077201843,54.771625995635986 88.33456039428711,54.875946044921875 88.33456039428711,54.875946044921875 88.54897022247314,54.95286583900452 88.54897022247314,54.95286583900452 88.63223195075989,54.98276948928833 88.63223195075989,54.98276948928833 88.39330673217773,54.39232587814331 88.39330673217773,54.39232587814331 87.7905547618866,52.903956174850464 87.7905547618866,52.903956174850464 86.99531555175781,50.942057371139526 86.99531555175781,50.942057371139526 86.178058385849,48.930737376213074 86.178058385849,48.930737376213074 85.50992608070374,47.29439616203308 85.50992608070374,47.29439616203308 85.16167998313904,46.457138657569885 85.16167998313904,46.457138657569885 84.1565489768982,45.91909646987915 84.1565489768982,45.91909646987915 81.91178441047668,45.33538222312927 81.91178441047668,45.33538222312927 78.92215847969055,44.75301504135132 78.92215847969055,44.75301504135132 75.68197250366211,44.21900808811188 75.68197250366211,44.21900808811188 72.68600463867188,43.78057420253754 72.68600463867188,43.78057420253754 70.42874097824097,43.485015630722046 70.42874097824097,43.485015630722046 68.59779357910156,43.281084299087524 68.59779357910156,43.281084299087524 66.58782362937927,43.09282600879669 66.58782362937927,43.09282600879669 64.45420384407043,42.92985796928406 64.45420384407043,42.92985796928406 62.25184202194214,42.801499366760254 62.25184202194214,42.801499366760254 60.03601551055908,42.71756112575531 60.03601551055908,42.71756112575531 57.861822843551636,42.687371373176575 57.861822843551636,42.687371373176575 57.223206758499146,42.694100737571716 57.223206758499146,42.694100737571716 56.66218400001526,42.71554350852966 56.66218400001526,42.71554350852966 56.18971586227417,42.7531361579895 56.18971586227417,42.7531361579895 55.816179513931274,42.808133363723755 55.816179513931274,42.808133363723755 55.55235147476196,42.881783843040466 55.55235147476196,42.881783843040466 55.40889501571655,42.97581613063812 55.40889501571655,42.97581613063812 54.87710237503052,43.70951950550079 54.87710237503052,43.70951950550079 53.84927988052368,45.146644115448 53.84927988052368,45.146644115448 52.589935064315796,46.914225816726685 52.589935064315796,46.914225816726685 51.363182067871094,48.638737201690674 51.363182067871094,48.638737201690674 50.433337688446045,49.947115778923035 50.433337688446045,49.947115778923035 50.06461143493652,50.46612620353699 50.06461143493652,50.46612620353699 50.15248656272888,50.45621991157532 50.15248656272888,50.45621991157532 50.378626585006714,50.43112635612488 50.378626585006714,50.43112635612488 50.6862998008728,50.39728283882141 50.6862998008728,50.39728283882141 51.01858973503113,50.36103129386902 51.01858973503113,50.36103129386902 51.318955421447754,50.329017639160156 51.318955421447754,50.329017639160156 51.53067111968994,50.30767321586609 51.53067111968994,50.30767321586609 52.288031578063965,50.23988485336304 52.288031578063965,50.23988485336304 53.17557454109192,50.1721978187561 53.17557454109192,50.1721978187561 54.18012738227844,50.11037588119507 54.18012738227844,50.11037588119507 55.28842210769653,50.05941987037659 55.28842210769653,50.05941987037659 56.48748278617859,50.0249981880188 56.48748278617859,50.0249981880188 57.76413679122925,50.01230239868164 57.76413679122925,50.01230239868164 58.24006795883179,50.014036893844604 58.24006795883179,50.014036893844604 58.72359275817871,50.01941919326782 58.72359275817871,50.01941919326782 59.214526414871216,50.02912878990173 59.214526414871216,50.02912878990173 59.71170663833618,50.042879581451416 59.71170663833618,50.042879581451416 60.214948654174805,50.061434507369995 60.214948654174805,50.061434507369995 60.723185539245605,50.08460879325867 60.723185539245605,50.08460879325867 63.38042616844177,50.23152232170105 63.38042616844177,50.23152232170105 65.58115482330322,50.379687547683716 65.58115482330322,50.379687547683716 67.31345057487488,50.51669478416443 67.31345057487488,50.51669478416443 68.56539249420166,50.62986612319946 68.56539249420166,50.62986612319946 69.32525038719177,50.70687532424927 69.32525038719177,50.70687532424927 69.58109736442566,50.73533654212952 69.58109736442566,50.73533654212952 69.83656287193298,50.766777992248535 69.83656287193298,50.766777992248535 70.59363126754761,50.86744427680969 70.59363126754761,50.86744427680969 71.83817028999329,51.04666352272034 71.83817028999329,51.04666352272034 73.55546951293945,51.31328105926514 73.55546951293945,51.31328105926514 75.73168277740479,51.67672038078308 75.73168277740479,51.67672038078308 78.35209965705872,52.14601755142212 78.35209965705872,52.14601755142212 80.20707964897156,52.52138376235962 80.20707964897156,52.52138376235962 81.95149302482605,52.93077826499939 81.95149302482605,52.93077826499939 83.5564911365509,53.35325598716736 83.5564911365509,53.35325598716736 84.99274849891663,53.767651319503784 84.99274849891663,53.767651319503784 86.23132705688477,54.15329933166504 86.23132705688477,54.15329933166504" stroke="white" stroke-width="0.1" /><polygon points="87.82382011413574,58.337944746017456 87.82382011413574,58.337944746017456 87.74459958076477,58.32939147949219 87.74459958076477,58.32939147949219 87.6655638217926,58.32246541976929 87.6655638217926,58.32246541976929 87.58691549301147,58.31717848777771 87.58691549301147,58.31717848777771 87.50836253166199,58.3133339881897 87.50836253166199,58.3133339881897 87.43019104003906,58.31102728843689 87.43019104003906,58.31102728843689 87.35231161117554,58.31025838851929 87.35231161117554,58.31025838851929 86.38554811477661,58.430057764053345 86.38554811477661,58.430057764053345 85.49781441688538,58.7720513343811 85.49781441688538,58.7720513343811 84.72257256507874,59.309619665145874 84.72257256507874,59.309619665145874 84.09318923950195,60.01582145690918 84.09318923950195,60.01582145690918 83.64331126213074,60.86452007293701 83.64331126213074,60.86452007293701 83.40640068054199,61.82850003242493 83.40640068054199,61.82850003242493 83.42515230178833,62.89430260658264 83.42515230178833,62.89430260658264 83.71350169181824,63.8838529586792 83.71350169181824,63.8838529586792 84.23827290534973,64.75563049316406 84.23827290534973,64.75563049316406 84.96592044830322,65.46692848205566 84.96592044830322,65.46692848205566 85.86356043815613,65.97594022750854 85.86356043815613,65.97594022750854 86.89772486686707,66.24053716659546 86.89772486686707,66.24053716659546 86.97676062583923,66.24889969825745 86.97676062583923,66.24889969825745 87.05559968948364,66.2557303905487 87.05559968948364,66.2557303905487 87.13434338569641,66.2613034248352 87.13434338569641,66.2613034248352 87.21280097961426,66.26514792442322 87.21280097961426,66.26514792442322 87.29116320610046,66.2674605846405 87.29116320610046,66.2674605846405 87.36923336982727,66.2682294845581 87.36923336982727,66.2682294845581 88.33494782447815,66.14804267883301 88.33494782447815,66.14804267883301 89.22191262245178,65.80585241317749 89.22191262245178,65.80585241317749 89.99695777893066,65.26848077774048 89.99695777893066,65.26848077774048 90.62615036964417,64.56236839294434 90.62615036964417,64.56236839294434 91.07602834701538,63.714540004730225 91.07602834701538,63.714540004730225 91.31283760070801,62.75151968002319 91.31283760070801,62.75151968002319 91.29514694213867,61.68398857116699 91.29514694213867,61.68398857116699 91.00747108459473,60.69290041923523 91.00747108459473,60.69290041923523 90.48327207565308,59.820741415023804 90.48327207565308,59.820741415023804 89.75562453269958,59.10924673080444 89.75562453269958,59.10924673080444 88.85818123817444,58.600908517837524 88.85818123817444,58.600908517837524" stroke="white" stroke-width="0.1" /></svg>