<?xml version="1.0" encoding="utf-8" ?>
<svg baseProfile="full" height="100.0" version="1.1" width="100.0" xmlns="http://www.w3.org/2000/svg" xmlns:ev="http://www.w3.org/2001/xml-events" xmlns:xlink="http://www.w3.org/1999/xlink"><defs><clipPath /></defs><polygon points="58.99200439453125,10.124969482421875 58.99200439453125,10.124969482421875 62.358951568603516,14.032268524169922 62.358951568603516,14.032268524169922 65.04678726196289,18.284893035888672 65.04678726196289,18.284893035888672 67.05513000488281,22.805166244506836 67.05513000488281,22.805166244506836 68.3837890625,27.515697479248047 68.3837890625,27.515697479248047 69.03228759765625,32.338905334472656 69.03228759765625,32.338905334472656 69.00081634521484,37.197256088256836 69.00081634521484,37.197256088256836 68.28861236572266,42.01312065124512 68.28861236572266,42.01312065124512 66.89567565917969,46.70901298522949 66.89567565917969,46.70901298522949 64.82152938842773,51.20730400085449 64.82152938842773,51.20730400085449 62.066650390625,55.43060302734375 62.066650390625,55.43060302734375 62.270259857177734,55.577754974365234 62.270259857177734,55.577754974365234 62.473487854003906,55.730533599853516 62.473487854003906,55.730533599853516 62.67585754394531,55.88865280151367 62.67585754394531,55.88865280151367 62.87727355957031,56.05158805847168 62.87727355957031,56.05158805847168 63.07716369628906,56.21910095214844 63.07716369628906,56.21910095214844 63.27552795410156,56.39076232910156 63.27552795410156,56.39076232910156 63.47160339355469,56.56599998474121 63.47160339355469,56.56599998474121 63.665199279785156,56.74476623535156 63.665199279785156,56.74476623535156 63.85602951049805,56.92629814147949 63.85602951049805,56.92629814147949 64.044189453125,57.110595703125 64.044189453125,57.110595703125 68.01910400390625,61.08551025390625 68.01910400390625,61.08551025390625 69.01416778564453,60.73122024536133 69.01416778564453,60.73122024536133 70.0387954711914,60.49699783325195 70.0387954711914,60.49699783325195 71.08116149902344,60.38312911987305 71.08116149902344,60.38312911987305 72.12934494018555,60.38985252380371 72.12934494018555,60.38985252380371 73.17142486572266,60.51750183105469 73.17142486572266,60.51750183105469 74.19567108154297,60.76631546020508 74.19567108154297,60.76631546020508 75.1901626586914,61.13638877868652 75.1901626586914,61.13638877868652 76.14297866821289,61.628150939941406 76.14297866821289,61.628150939941406 77.04219818115234,62.24174499511719 77.04219818115234,62.24174499511719 77.87628173828125,62.97760009765625 77.87628173828125,62.97760009765625 97.38616943359375,82.48748779296875 97.38616943359375,82.48748779296875 98.3271598815918,83.60004425048828 98.3271598815918,83.60004425048828 99.05900955200195,84.81893539428711 99.05900955200195,84.81893539428711 99.58171844482422,86.11726760864258 99.58171844482422,86.11726760864258 99.89547729492188,87.46848106384277 99.89547729492188,87.46848106384277 100.0,88.8458251953125 100.0,88.8458251953125 99.89547729492188,90.2226448059082 99.89547729492188,90.2226448059082 99.58181381225586,91.57218933105469 99.58181381225586,91.57218933105469 99.05900955200195,92.86785125732422 99.05900955200195,92.86785125732422 98.32696914672852,94.08268928527832 98.32696914672852,94.08268928527832 97.38616943359375,95.1904296875 97.38616943359375,95.1904296875 95.1904296875,97.38616943359375 95.1904296875,97.38616943359375 94.0826416015625,98.32711219787598 94.0826416015625,98.32711219787598 92.86766052246094,99.05900955200195 92.86766052246094,99.05900955200195 91.5719985961914,99.58176612854004 91.5719985961914,99.58176612854004 90.22216796875,99.89547729492188 90.22216796875,99.89547729492188 88.84525299072266,100.0 88.84525299072266,100.0 87.46795654296875,99.89547729492188 87.46795654296875,99.89547729492188 86.1166000366211,99.58181381225586 86.1166000366211,99.58181381225586 84.81836318969727,99.05905723571777 84.81836318969727,99.05905723571777 83.59966278076172,98.32706451416016 83.59966278076172,98.32706451416016 82.48748779296875,97.38616943359375 82.48748779296875,97.38616943359375 62.97760009765625,77.87628173828125 62.97760009765625,77.87628173828125 62.24174499511719,77.04224586486816 62.24174499511719,77.04224586486816 61.628150939941406,76.14288330078125 61.628150939941406,76.14288330078125 61.13624572753906,75.19006729125977 61.13624572753906,75.19006729125977 60.766029357910156,74.19571876525879 60.766029357910156,74.19571876525879 60.516929626464844,73.17161560058594 60.516929626464844,73.17161560058594 60.389041900634766,72.12972640991211 60.389041900634766,72.12972640991211 60.3816032409668,71.0817813873291 60.3816032409668,71.0817813873291 60.49470901489258,70.03970146179199 60.49470901489258,70.03970146179199 60.727787017822266,69.0152645111084 60.727787017822266,69.0152645111084 61.0809326171875,68.0206298828125 61.0809326171875,68.0206298828125 57.110595703125,64.044189453125 57.110595703125,64.044189453125 56.92625045776367,63.85774612426758 56.92625045776367,63.85774612426758 56.74457550048828,63.66777420043945 56.74457550048828,63.66777420043945 56.56576156616211,63.474464416503906 56.56576156616211,63.474464416503906 56.39028549194336,63.27848434448242 56.39028549194336,63.27848434448242 56.218528747558594,63.08002471923828 56.218528747558594,63.08002471923828 56.0511589050293,62.87965774536133 56.0511589050293,62.87965774536133 55.88798522949219,62.677669525146484 55.88798522949219,62.677669525146484 55.73015213012695,62.474632263183594 55.73015213012695,62.474632263183594 55.57727813720703,62.27073669433594 55.57727813720703,62.27073669433594 55.43060302734375,62.066650390625 55.43060302734375,62.066650390625 51.206016540527344,64.82181549072266 51.206016540527344,64.82181549072266 46.70753479003906,66.89567565917969 46.70753479003906,66.89567565917969 42.01202392578125,68.28856468200684 42.01202392578125,68.28856468200684 37.19682693481445,69.00062561035156 37.19682693481445,69.00062561035156 32.338905334472656,69.03228759765625 32.338905334472656,69.03228759765625 27.515602111816406,68.38374137878418 27.515602111816406,68.38374137878418 22.803688049316406,67.05508232116699 22.803688049316406,67.05508232116699 18.280601501464844,65.04678726196289 18.280601501464844,65.04678726196289 14.023113250732422,62.358903884887695 14.023113250732422,62.358903884887695 10.10894775390625,58.99200439453125 10.10894775390625,58.99200439453125 6.469440460205078,54.706478118896484 6.469440460205078,54.706478118896484 3.638744354248047,50.019168853759766 3.638744354248047,50.019168853759766 1.6169548034667969,45.030784606933594 1.6169548034667969,45.030784606933594 0.40378570556640625,39.841651916503906 0.40378570556640625,39.841651916503906 -0.0003814697265625,34.55238342285156 -0.0003814697265625,34.55238342285156 0.4044532775878906,29.26349639892578 0.4044532775878906,29.26349639892578 1.6178131103515625,24.07550811767578 1.6178131103515625,24.07550811767578 3.6403656005859375,19.08888816833496 3.6403656005859375,19.08888816833496 6.471538543701172,14.404153823852539 6.471538543701172,14.404153823852539 10.11199951171875,10.121917724609375 10.11199951171875,10.121917724609375 14.39666748046875,6.477880477905273 14.39666748046875,6.477880477905273 19.083404541015625,3.6437034606933594 19.083404541015625,3.6437034606933594 24.071407318115234,1.6192913055419922 24.071407318115234,1.6192913055419922 29.260635375976562,0.4046916961669922 29.260635375976562,0.4046916961669922 34.55028533935547,0.0 34.55028533935547,0.0 39.8402214050293,0.4052162170410156 39.8402214050293,0.4052162170410156 45.02973556518555,1.6202449798583984 45.02973556518555,1.6202449798583984 50.01850128173828,3.6452293395996094 50.01850128173828,3.6452293395996094 54.70600128173828,6.480073928833008 54.70600128173828,6.480073928833008" stroke="white" stroke-width="0.1" /><polygon points="54.1046142578125,54.1015625 54.1046142578125,54.1015625 57.01560974121094,50.67124366760254 57.01560974121094,50.67124366760254 59.279823303222656,46.921634674072266 59.279823303222656,46.921634674072266 60.897064208984375,42.93241500854492 60.897064208984375,42.93241500854492 61.86723709106445,38.78369331359863 61.86723709106445,38.78369331359863 62.19043731689453,34.55524444580078 62.19043731689453,34.55524444580078 61.86676025390625,30.32708168029785 61.86676025390625,30.32708168029785 60.895633697509766,26.178979873657227 60.895633697509766,26.178979873657227 59.27762985229492,22.19099998474121 59.27762985229492,22.19099998474121 57.012271881103516,18.442821502685547 57.012271881103516,18.442821502685547 54.10003662109375,15.0146484375 54.10003662109375,15.0146484375 50.672149658203125,12.102317810058594 50.672149658203125,12.102317810058594 46.924400329589844,9.837198257446289 46.924400329589844,9.837198257446289 42.93661117553711,8.219242095947266 42.93661117553711,8.219242095947266 38.788414001464844,7.248353958129883 38.788414001464844,7.248353958129883 34.55982208251953,6.924629211425781 34.55982208251953,6.924629211425781 30.330371856689453,7.24797248840332 30.330371856689453,7.24797248840332 26.17959976196289,8.218193054199219 26.17959976196289,8.218193054199219 22.187519073486328,9.835529327392578 22.187519073486328,9.835529327392578 18.433475494384766,12.099647521972656 18.433475494384766,12.099647521972656 14.99786376953125,15.010833740234375 14.99786376953125,15.010833740234375 12.093734741210938,18.44043731689453 12.093734741210938,18.44043731689453 9.835147857666016,22.1895694732666 9.835147857666016,22.1895694732666 8.222007751464844,26.178359985351562 8.222007751464844,26.178359985351562 7.254123687744141,30.32689094543457 7.254123687744141,30.32689094543457 6.931495666503906,34.55533981323242 6.931495666503906,34.55533981323242 7.254505157470703,38.783931732177734 7.254505157470703,38.783931732177734 8.222293853759766,42.93265342712402 8.222293853759766,42.93265342712402 9.83572006225586,46.921730041503906 9.83572006225586,46.921730041503906 12.09402084350586,50.67129135131836 12.09402084350586,50.67129135131836 14.99786376953125,54.1015625 14.99786376953125,54.1015625 18.433475494384766,57.01394081115723 18.433475494384766,57.01394081115723 22.187232971191406,59.27934646606445 22.187232971191406,59.27934646606445 26.17931365966797,60.89763641357422 26.17931365966797,60.89763641357422 30.330181121826172,61.86871528625488 30.330181121826172,61.86871528625488 34.55982208251953,62.192535400390625 34.55982208251953,62.192535400390625 38.78898620605469,61.869192123413086 38.78898620605469,61.869192123413086 42.937564849853516,60.89835166931152 42.937564849853516,60.89835166931152 46.926212310791016,59.28025245666504 46.926212310791016,59.28025245666504 50.675010681152344,57.01456069946289 50.675010681152344,57.01456069946289" stroke="white" stroke-width="0.1" /></svg>