<?xml version="1.0" encoding="utf-8" ?>
<svg baseProfile="full" height="71.75570726394653" version="1.1" width="100.0" xmlns="http://www.w3.org/2000/svg" xmlns:ev="http://www.w3.org/2001/xml-events" xmlns:xlink="http://www.w3.org/1999/xlink"><defs><clipPath /></defs><polygon points="22.91778028011322,16.203951835632324 22.91778028011322,16.203951835632324 44.69100534915924,16.203951835632324 44.69100534915924,16.203951835632324 37.97050416469574,9.481780976057053 37.97050416469574,9.481780976057053 37.06797659397125,8.29634964466095 37.06797659397125,8.29634964466095 36.52656674385071,6.962009519338608 36.52656674385071,6.962009519338608 36.34627163410187,5.55342361330986 36.34627163410187,5.55342361330986 36.526671051979065,4.144733771681786 36.526671051979065,4.144733771681786 37.06828951835632,2.8104979544878006 37.06828951835632,2.8104979544878006 37.97050416469574,1.6250668093562126 37.97050416469574,1.6250668093562126 38.5394424200058,1.1274526827037334 38.5394424200058,1.1274526827037334 39.15572464466095,0.7209774106740952 39.15572464466095,0.7209774106740952 39.80996608734131,0.4052239004522562 39.80996608734131,0.4052239004522562 40.492358803749084,0.17998365219682455 40.492358803749084,0.17998365219682455 41.1939412355423,0.0449437735369429 41.1939412355423,0.0449437735369429 41.90469980239868,0.0 41.90469980239868,0.0 42.61253774166107,0.04483949742279947 42.61253774166107,0.04483949742279947 43.3121383190155,0.1797750941477716 43.3121383190155,0.1797750941477716 43.993595242500305,0.4052239004522562 43.993595242500305,0.4052239004522562 44.64710354804993,0.7209774106740952 44.64710354804993,0.7209774106740952 45.26328146457672,1.127556897699833 45.26328146457672,1.127556897699833 45.83222270011902,1.6250668093562126 45.83222270011902,1.6250668093562126 60.40776968002319,16.203951835632324 60.40776968002319,16.203951835632324 62.02616095542908,17.82734990119934 62.02616095542908,17.82734990119934 62.93119192123413,19.012989103794098 62.93119192123413,19.012989103794098 63.47416639328003,20.34805864095688 63.47416639328003,20.34805864095688 63.65540027618408,21.757791936397552 63.65540027618408,21.757791936397552 63.47437500953674,23.1671079993248 63.47437500953674,23.1671079993248 62.93129324913025,24.501343071460724 62.93129324913025,24.501343071460724 62.02616095542908,25.685733556747437 62.02616095542908,25.685733556747437 60.40776968002319,27.310797572135925 60.40776968002319,27.310797572135925 45.83222270011902,41.88968241214752 45.83222270011902,41.88968241214752 45.263177156448364,42.38698482513428 45.263177156448364,42.38698482513428 44.64699923992157,42.79460608959198 44.64699923992157,42.79460608959198 43.993595242500305,43.1122362613678 43.993595242500305,43.1122362613678 43.31224262714386,43.339353799819946 43.31224262714386,43.339353799819946 42.612746357917786,43.475958704948425 42.612746357917786,43.475958704948425 41.90469980239868,43.52142512798309 41.90469980239868,43.52142512798309 41.19362831115723,43.47585439682007 41.19362831115723,43.47585439682007 40.49225449562073,43.339353799819946 40.49225449562073,43.339353799819946 39.80996608734131,43.1122362613678 39.80996608734131,43.1122362613678 39.15572464466095,42.79471039772034 39.15572464466095,42.79471039772034 38.53965103626251,42.387089133262634 38.53965103626251,42.387089133262634 37.97050416469574,41.88968241214752 37.97050416469574,41.88968241214752 37.06797659397125,40.705400705337524 37.06797659397125,40.705400705337524 36.52656674385071,39.37157988548279 36.52656674385071,39.37157988548279 36.34627163410187,37.963202595710754 36.34627163410187,37.963202595710754 36.526671051979065,36.55482530593872 36.526671051979065,36.55482530593872 37.06828951835632,35.22152900695801 37.06828951835632,35.22152900695801 37.97050416469574,34.03797447681427 37.97050416469574,34.03797447681427 37.97050416469574,34.03630554676056 37.97050416469574,34.03630554676056 44.697678089141846,27.310797572135925 44.697678089141846,27.310797572135925 22.91778028011322,27.310797572135925 22.91778028011322,27.310797572135925 21.326707303524017,27.419352531433105 21.326707303524017,27.419352531433105 19.799140095710754,27.733540534973145 19.799140095710754,27.733540534973145 18.347905576229095,28.240540623664856 18.347905576229095,28.240540623664856 16.985514760017395,28.927314281463623 16.985514760017395,28.927314281463623 15.725003182888031,29.781246185302734 15.725003182888031,29.781246185302734 14.578884840011597,30.789509415626526 14.578884840011597,30.789509415626526 13.573749363422394,31.93156123161316 13.573749363422394,31.93156123161316 12.72263377904892,33.188632130622864 12.72263377904892,33.188632130622864 12.03867495059967,34.54872667789459 12.03867495059967,34.54872667789459 11.534178256988525,35.9989196062088 11.534178256988525,35.9989196062088 11.222074925899506,37.52690553665161 11.222074925899506,37.52690553665161 11.115189641714096,39.12006318569183 11.115189641714096,39.12006318569183 11.115189641714096,48.84043037891388 11.115189641714096,48.84043037891388 11.221970617771149,50.4335880279541 11.221970617771149,50.4335880279541 11.533969640731812,51.96167826652527 11.533969640731812,51.96167826652527 12.03867495059967,53.41238975524902 12.03867495059967,53.41238975524902 12.722738087177277,54.77311611175537 12.722738087177277,54.77311611175537 13.57385367155075,56.03185296058655 13.57385367155075,56.03185296058655 14.578884840011597,57.17598795890808 14.578884840011597,57.17598795890808 15.724794566631317,58.181750774383545 15.724794566631317,58.181750774383545 16.98530614376068,59.033697843551636 16.98530614376068,59.033697843551636 18.347905576229095,59.718912839889526 18.347905576229095,59.718912839889526 19.79924440383911,60.22455096244812 19.79924440383911,60.22455096244812 21.32691591978073,60.5380117893219 21.32691591978073,60.5380117893219 22.91778028011322,60.64635515213013 22.91778028011322,60.64635515213013 77.08222270011902,60.64635515213013 77.08222270011902,60.64635515213013 78.67652773857117,60.537803173065186 78.67652773857117,60.537803173065186 80.20482659339905,60.224449634552 80.20482659339905,60.224449634552 81.65543675422668,59.718912839889526 81.65543675422668,59.718912839889526 83.01573991775513,59.03380513191223 83.01573991775513,59.03380513191223 84.27385091781616,58.18195939064026 84.27385091781616,58.18195939064026 85.41778326034546,57.17598795890808 85.41778326034546,57.17598795890808 86.42573356628418,56.031644344329834 86.42573356628418,56.031644344329834 87.27924823760986,54.773008823394775 87.27924823760986,54.773008823394775 87.96550035476685,53.41238975524902 87.96550035476685,53.41238975524902 88.47145438194275,51.96177959442139 88.47145438194275,51.96177959442139 88.7843906879425,50.433796644210815 88.7843906879425,50.433796644210815 88.89148831367493,48.84043037891388 88.89148831367493,48.84043037891388 88.89148831367493,39.12006318569183 88.89148831367493,39.12006318569183 88.78418207168579,37.5266969203949 88.78418207168579,37.5266969203949 88.47114443778992,35.998815298080444 88.47114443778992,35.998815298080444 87.96550035476685,34.54872667789459 87.96550035476685,34.54872667789459 87.27934956550598,33.18873643875122 87.27934956550598,33.18873643875122 86.4259421825409,31.93156123161316 86.4259421825409,31.93156123161316 85.41778326034546,30.789509415626526 85.41778326034546,30.789509415626526 84.27374958992004,29.781141877174377 84.27374958992004,29.781141877174377 83.01553130149841,28.927209973335266 83.01553130149841,28.927209973335266 81.65543675422668,28.240540623664856 81.65543675422668,28.240540623664856 80.20503520965576,27.7336448431015 80.20503520965576,27.7336448431015 78.67662906646729,27.41956114768982 78.67662906646729,27.41956114768982 77.08222270011902,27.310797572135925 77.08222270011902,27.310797572135925 67.71556735038757,27.310797572135925 67.71556735038757,27.310797572135925 68.16375255584717,26.456555724143982 68.16375255584717,26.456555724143982 68.53539943695068,25.568628311157227 68.53539943695068,25.568628311157227 68.82883310317993,24.650877714157104 68.82883310317993,24.650877714157104 69.04114484786987,23.707163333892822 69.04114484786987,23.707163333892822 69.17024254798889,22.74165451526642 69.17024254798889,22.74165451526642 69.21383142471313,21.75820916891098 69.21383142471313,21.75820916891098 69.16992664337158,20.773930847644806 69.16992664337158,20.773930847644806 69.04031038284302,19.807900488376617 69.04031038284302,19.807900488376617 68.82758736610413,18.86408030986786 68.82758736610413,18.86408030986786 68.5341477394104,17.946018278598785 68.5341477394104,17.946018278598785 68.1627094745636,17.05809086561203 68.1627094745636,17.05809086561203 67.71556735038757,16.203951835632324 67.71556735038757,16.203951835632324 77.08222270011902,16.203951835632324 77.08222270011902,16.203951835632324 83.16840529441833,17.030145227909088 83.16840529441833,17.030145227909088 88.63860964775085,19.343863427639008 88.63860964775085,19.343863427639008 93.2749092578888,22.927582263946533 93.2749092578888,22.927582263946533 96.85915112495422,27.56325602531433 96.85915112495422,27.56325602531433 99.17349815368652,33.03336203098297 99.17349815368652,33.03336203098297 100.0,39.12006318569183 100.0,39.12006318569183 100.0,48.84043037891388 100.0,48.84043037891388 99.17339086532593,54.92671728134155 99.17339086532593,54.92671728134155 96.8590497970581,60.39692759513855 96.8590497970581,60.39692759513855 93.2749092578888,65.0331199169159 93.2749092578888,65.0331199169159 88.63871693611145,68.6169445514679 88.63871693611145,68.6169445514679 83.16861391067505,70.93055844306946 83.16861391067505,70.93055844306946 77.08222270011902,71.75570726394653 77.08222270011902,71.75570726394653 22.91778028011322,71.75570726394653 22.91778028011322,71.75570726394653 16.832537949085236,70.93034982681274 16.832537949085236,70.93034982681274 11.362641304731369,68.6168372631073 11.362641304731369,68.6168372631073 6.72634169459343,65.0331199169159 6.72634169459343,65.0331199169159 3.1415801495313644,60.39702892303467 3.1415801495313644,60.39702892303467 0.8268194273114204,54.92681860923767 0.8268194273114204,54.92681860923767 0.0,48.84043037891388 0.0,48.84043037891388 0.0,39.12006318569183 0.0,39.12006318569183 0.826715212315321,33.03315341472626 0.826715212315321,33.03315341472626 3.1414758414030075,27.563151717185974 3.1414758414030075,27.563151717185974 6.72634169459343,22.927582263946533 6.72634169459343,22.927582263946533 11.362745612859726,19.343967735767365 11.362745612859726,19.343967735767365 16.832642257213593,17.030249536037445 16.832642257213593,17.030249536037445" stroke="white" stroke-width="0.1" /></svg>