<?xml version="1.0" encoding="utf-8" ?>
<svg baseProfile="full" height="99.99973177909851" version="1.1" width="99.99837279319763" xmlns="http://www.w3.org/2000/svg" xmlns:ev="http://www.w3.org/2001/xml-events" xmlns:xlink="http://www.w3.org/1999/xlink"><defs><clipPath /></defs><polygon points="85.35188436508179,14.645950496196747 85.35188436508179,14.645950496196747 93.48918199539185,25.30706822872162 93.48918199539185,25.30706822872162 98.37080240249634,37.31635510921478 98.37080240249634,37.31635510921478 99.99837279319763,50.0 99.99837279319763,50.0 98.37080240249634,62.68343925476074 98.37080240249634,62.68343925476074 93.48863959312439,74.69293475151062 93.48863959312439,74.69293475151062 85.35188436508179,85.35405397415161 85.35188436508179,85.35405397415161 74.69103336334229,93.49054098129272 74.69103336334229,93.49054098129272 62.681472301483154,98.37243556976318 62.681472301483154,98.37243556976318 49.997830390930176,99.99973177909851 49.997830390930176,99.99973177909851 37.31418550014496,98.3722984790802 37.31418550014496,98.3722984790802 25.304627418518066,93.490469455719 25.304627418518066,93.490469455719 14.643779397010803,85.35405397415161 14.643779397010803,85.35405397415161 6.50864765048027,74.69300031661987 6.50864765048027,74.69300031661987 1.6275689005851746,62.68351078033447 1.6275689005851746,62.68351078033447 0.00054252295740298,50.0 0.00054252295740298,50.0 1.6270263120532036,37.31628954410553 1.6270263120532036,37.31628954410553 6.508376449346542,25.306999683380127 6.508376449346542,25.306999683380127 14.643779397010803,14.645950496196747 14.643779397010803,14.645950496196747 25.304898619651794,6.509461998939514 25.304898619651794,6.509461998939514 37.31418550014496,1.6275011003017426 37.31418550014496,1.6275011003017426 49.997830390930176,0.00027126147870149 49.997830390930176,0.00027126147870149 62.681204080581665,1.6274333000183105 62.681204080581665,1.6274333000183105 74.69049096107483,6.509461998939514 74.69049096107483,6.509461998939514" stroke="white" stroke-width="0.1" /><polygon points="23.476053774356842,23.477138578891754 23.476053774356842,23.477138578891754 17.388945817947388,31.468161940574646 17.388945817947388,31.468161940574646 13.736681640148163,40.479061007499695 13.736681640148163,40.479061007499695 12.519259750843048,50.0 12.519259750843048,50.0 13.736410439014435,59.52066779136658 13.736410439014435,59.52066779136658 17.388945817947388,68.53176951408386 17.388945817947388,68.53176951408386 23.476053774356842,76.52286291122437 23.476053774356842,76.52286291122437 76.52177810668945,23.477138578891754 76.52177810668945,23.477138578891754 68.53095889091492,17.3900306224823 68.53095889091492,17.3900306224823 59.51964855194092,13.737697899341583 59.51964855194092,13.737697899341583 49.99891519546509,12.52034455537796 49.99891519546509,12.52034455537796 40.47763645648956,13.737630844116211 40.47763645648956,13.737630844116211 31.46660327911377,17.389963567256927 31.46660327911377,17.389963567256927" stroke="white" stroke-width="0.1" /></svg>