<?xml version="1.0" encoding="utf-8" ?>
<svg baseProfile="full" height="100.0" version="1.1" width="100.0" xmlns="http://www.w3.org/2000/svg" xmlns:ev="http://www.w3.org/2001/xml-events" xmlns:xlink="http://www.w3.org/1999/xlink"><defs><clipPath /></defs><polygon points="50.0,0.0 50.0,0.0 50.0,50.0 50.0,50.0 100.0,50.0 100.0,50.0 98.21425080299377,63.29305171966553 98.21425080299377,63.29305171966553 93.17409992218018,75.23722648620605 93.17409992218018,75.23722648620605 85.35645008087158,85.35645008087158 85.35645008087158,85.35645008087158 75.23682117462158,93.17409992218018 75.23682117462158,93.17409992218018 63.292914628982544,98.21411371231079 63.292914628982544,98.21411371231079 50.0,100.0 50.0,100.0 36.707085371017456,98.21417927742004 36.707085371017456,98.21417927742004 24.76264238357544,93.1741714477539 24.76264238357544,93.1741714477539 14.643554389476776,85.35645008087158 14.643554389476776,85.35645008087158 6.825629621744156,75.23722648620605 6.825629621744156,75.23722648620605 1.785753108561039,63.292986154556274 1.785753108561039,63.292986154556274 0.0,50.0 0.0,50.0 1.786024309694767,36.7070198059082 1.786024309694767,36.7070198059082 6.825629621744156,24.76270943880081 6.825629621744156,24.76270943880081 14.643554389476776,14.643554389476776 14.643554389476776,14.643554389476776 24.762369692325592,6.82576522231102 24.762369692325592,6.82576522231102 36.70681416988373,1.785820908844471 36.70681416988373,1.785820908844471" stroke="white" stroke-width="0.1" /></svg>