<?xml version="1.0" encoding="utf-8" ?>
<svg baseProfile="full" height="76.42261981964111" version="1.1" width="99.992436170578" xmlns="http://www.w3.org/2000/svg" xmlns:ev="http://www.w3.org/2001/xml-events" xmlns:xlink="http://www.w3.org/1999/xlink"><defs><clipPath /></defs><polygon points="99.6717631816864,61.62111163139343 99.6717631816864,61.62111163139343 99.5586097240448,62.608128786087036 99.5586097240448,62.608128786087036 99.43012595176697,63.63244652748108 99.43012595176697,63.63244652748108 99.24981594085693,64.65984582901001 99.24981594085693,64.65984582901001 98.98010492324829,65.65608978271484 98.98010492324829,65.65608978271484 98.58514666557312,66.5871798992157 98.58514666557312,66.5871798992157 98.02715182304382,67.4187183380127 98.02715182304382,67.4187183380127 97.20484614372253,68.19227337837219 97.20484614372253,68.19227337837219 96.28579616546631,68.73347759246826 96.28579616546631,68.73347759246826 95.2922523021698,69.09399032592773 95.2922523021698,69.09399032592773 94.24579739570618,69.32510137557983 94.24579739570618,69.32510137557983 93.16932559013367,69.47858333587646 93.16932559013367,69.47858333587646 92.08443760871887,69.60577368736267 92.08443760871887,69.60577368736267 92.71606802940369,64.95757699012756 92.71606802940369,64.95757699012756 91.82314872741699,60.55176854133606 91.82314872741699,60.55176854133606 89.63954448699951,56.6825270652771 89.63954448699951,56.6825270652771 86.39804720878601,53.643906116485596 86.39804720878601,53.643906116485596 82.33294486999512,51.730066537857056 82.33294486999512,51.730066537857056 77.67680883407593,51.23518109321594 77.67680883407593,51.23518109321594 73.15844297409058,52.30727791786194 73.15844297409058,52.30727791786194 69.38940286636353,54.6954870223999 69.38940286636353,54.6954870223999 66.5622889995575,58.08528661727905 66.5622889995575,58.08528661727905 64.86974358558655,62.16161847114563 64.86974358558655,62.16161847114563 64.50480222702026,66.61001443862915 64.50480222702026,66.61001443862915 65.66008925437927,71.11563682556152 65.66008925437927,71.11563682556152 60.828179121017456,70.90342044830322 60.828179121017456,70.90342044830322 56.00684881210327,70.77531218528748 56.00684881210327,70.77531218528748 51.1917769908905,70.74205875396729 51.1917769908905,70.74205875396729 46.377575397491455,70.81440091133118 46.377575397491455,70.81440091133118 41.55948460102081,71.00329399108887 41.55948460102081,71.00329399108887 36.732542514801025,71.31948471069336 36.732542514801025,71.31948471069336 37.429386377334595,67.02397465705872 37.429386377334595,67.02397465705872 36.799266934394836,62.86974549293518 36.799266934394836,62.86974549293518 35.01429259777069,59.112733602523804 35.01429259777069,59.112733602523804 32.24462568759918,56.00868463516235 32.24462568759918,56.00868463516235 28.66215407848358,53.8135290145874 28.66215407848358,53.8135290145874 24.437686800956726,52.78305411338806 24.437686800956726,52.78305411338806 20.168736577033997,53.10577750205994 20.168736577033997,53.10577750205994 16.326269507408142,54.64155673980713 16.326269507408142,54.64155673980713 13.11219334602356,57.17962384223938 13.11219334602356,57.17962384223938 10.727766156196594,60.50879955291748 10.727766156196594,60.50879955291748 9.375323355197906,64.41831588745117 9.375323355197906,64.41831588745117 9.256123751401901,68.69708895683289 9.256123751401901,68.69708895683289 8.339883387088776,68.25786828994751 8.339883387088776,68.25786828994751 7.422131299972534,67.81993508338928 7.422131299972534,67.81993508338928 6.502003967761993,67.38632321357727 6.502003967761993,67.38632321357727 5.577773228287697,66.9598400592804 5.577773228287697,66.9598400592804 4.649008065462112,66.54350757598877 4.649008065462112,66.54350757598877 3.7141967564821243,66.14034175872803 3.7141967564821243,66.14034175872803 3.33133228123188,66.00202918052673 3.33133228123188,66.00202918052673 2.91996318846941,65.8735990524292 2.91996318846941,65.8735990524292 2.506434917449951,65.73393940925598 2.506434917449951,65.73393940925598 2.1147167310118675,65.56167006492615 2.1147167310118675,65.56167006492615 1.77072174847126,65.33569097518921 1.77072174847126,65.33569097518921 1.4994989149272442,65.03471732139587 1.4994989149272442,65.03471732139587 0.956189725548029,63.97034525871277 0.956189725548029,63.97034525871277 0.5826106294989586,62.78012990951538 0.5826106294989586,62.78012990951538 0.3403240581974387,61.514872312545776 0.3403240581974387,61.514872312545776 0.19002866465598345,60.224729776382446 0.19002866465598345,60.224729776382446 0.09285491541959345,58.96039009094238 0.09285491541959345,58.96039009094238 0.010365199705120176,57.77217149734497 0.010365199705120176,57.77217149734497 0.06305496790446341,56.94948434829712 0.06305496790446341,56.94948434829712 0.31721831765025854,56.3146710395813 0.31721831765025854,56.3146710395813 0.7024582475423813,55.79327940940857 0.7024582475423813,55.79327940940857 1.1466502211987972,55.31032681465149 1.1466502211987972,55.31032681465149 1.5796132385730743,54.791367053985596 1.5796132385730743,54.791367053985596 1.9296547397971153,54.16162610054016 1.9296547397971153,54.16162610054016 2.11018193513155,53.5763144493103 2.11018193513155,53.5763144493103 2.2220397368073463,52.95127034187317 2.2220397368073463,52.95127034187317 2.285958454012871,52.30409502983093 2.285958454012871,52.30409502983093 2.3222366347908974,51.65194869041443 2.3222366347908974,51.65194869041443 2.3522526025772095,51.01233124732971 2.3522526025772095,51.01233124732971 2.3960888385772705,50.40251016616821 2.3960888385772705,50.40251016616821 2.49455813318491,49.332523345947266 2.49455813318491,49.332523345947266 2.6444217190146446,48.05620014667511 2.6444217190146446,48.05620014667511 2.910029888153076,46.74273431301117 2.910029888153076,46.74273431301117 3.355085849761963,45.5610454082489 3.355085849761963,45.5610454082489 4.044155403971672,44.680383801460266 4.044155403971672,44.680383801460266 5.040942132472992,44.26977038383484 5.040942132472992,44.26977038383484 6.588812172412872,44.143280386924744 6.588812172412872,44.143280386924744 8.126749098300934,44.0377414226532 8.126749098300934,44.0377414226532 9.646330028772354,43.89748573303223 9.646330028772354,43.89748573303223 11.136975884437561,43.66675317287445 11.136975884437561,43.66675317287445 12.590478360652924,43.290042877197266 12.590478360652924,43.290042877197266 13.99647444486618,42.71153509616852 13.99647444486618,42.71153509616852 22.2782701253891,41.25349521636963 22.2782701253891,41.25349521636963 22.146977484226227,41.417396068573 22.146977484226227,41.417396068573 22.023890912532806,41.5846973657608 22.023890912532806,41.5846973657608 21.910953521728516,41.75620973110199 21.910953521728516,41.75620973110199 21.80902808904648,41.93220138549805 21.80902808904648,41.93220138549805 21.72027677297592,42.11342930793762 21.72027677297592,42.11342930793762 21.64599299430847,42.30038225650787 21.64599299430847,42.30038225650787 21.734313666820526,43.24274957180023 21.734313666820526,43.24274957180023 22.591817378997803,43.848684430122375 22.591817378997803,43.848684430122375 23.911653459072113,44.19116675853729 23.911653459072113,44.19116675853729 25.384807586669922,44.34292018413544 25.384807586669922,44.34292018413544 26.70421004295349,44.377145171165466 26.70421004295349,44.377145171165466 27.561065554618835,44.36651170253754 27.561065554618835,44.36651170253754 28.665608167648315,44.36591863632202 28.665608167648315,44.36591863632202 29.880279302597046,44.33665871620178 29.880279302597046,44.33665871620178 31.046149134635925,44.17518675327301 31.046149134635925,44.17518675327301 32.00384974479675,43.77785325050354 32.00384974479675,43.77785325050354 32.59466588497162,43.0412232875824 32.59466588497162,43.0412232875824 32.65901803970337,41.86158776283264 32.65901803970337,41.86158776283264 32.58019983768463,41.47246181964874 32.58019983768463,41.47246181964874 32.48540163040161,41.08322560787201 32.48540163040161,41.08322560787201 32.375702261924744,40.69507122039795 32.375702261924744,40.69507122039795 32.25175142288208,40.30885994434357 32.25175142288208,40.30885994434357 32.11570978164673,39.92577791213989 32.11570978164673,39.92577791213989 31.968003511428833,39.54669237136841 31.968003511428833,39.54669237136841 36.75845563411713,38.700202107429504 36.75845563411713,38.700202107429504 36.68589890003204,39.7063285112381 36.68589890003204,39.7063285112381 36.81740760803223,40.78258275985718 36.81740760803223,40.78258275985718 37.095969915390015,41.88145399093628 37.095969915390015,41.88145399093628 37.46393620967865,42.95554757118225 37.46393620967865,42.95554757118225 37.864938378334045,43.95751655101776 37.864938378334045,43.95751655101776 38.24067711830139,44.839856028556824 38.24067711830139,44.839856028556824 38.41904699802399,45.10497748851776 38.41904699802399,45.10497748851776 38.6531263589859,45.25170922279358 38.6531263589859,45.25170922279358 38.931259512901306,45.31276822090149 38.931259512901306,45.31276822090149 39.241135120391846,45.3204870223999 39.241135120391846,45.3204870223999 39.57131206989288,45.30747830867767 39.57131206989288,45.30747830867767 39.90947604179382,45.306289196014404 39.90947604179382,45.306289196014404 41.180723905563354,45.34974694252014 41.180723905563354,45.34974694252014 42.452189326286316,45.387107133865356 42.452189326286316,45.387107133865356 43.72386932373047,45.41857838630676 43.72386932373047,45.41857838630676 44.99533474445343,45.444223284721375 44.99533474445343,45.444223284721375 46.26679718494415,45.4643577337265 46.26679718494415,45.4643577337265 47.538262605667114,45.47904431819916 47.538262605667114,45.47904431819916 48.571327328681946,45.4878956079483 48.571327328681946,45.4878956079483 49.6048241853714,45.49383521080017 49.6048241853714,45.49383521080017 50.638967752456665,45.49674987792969 50.638967752456665,45.49674987792969 51.67246460914612,45.49642503261566 51.67246460914612,45.49642503261566 52.70596146583557,45.49291729927063 52.70596146583557,45.49291729927063 53.73837947845459,45.485952496528625 53.73837947845459,45.485952496528625 54.33351397514343,45.47995924949646 54.33351397514343,45.47995924949646 54.92929816246033,45.47240138053894 54.92929816246033,45.47240138053894 55.525511503219604,45.46392560005188 55.525511503219604,45.46392560005188 56.12151026725769,45.45442461967468 56.12151026725769,45.45442461967468 56.717294454574585,45.444491505622864 56.717294454574585,45.444491505622864 57.31264352798462,45.43412625789642 57.31264352798462,45.43412625789642 57.33402371406555,45.36221921443939 57.33402371406555,45.36221921443939 57.340073585510254,45.247066020965576 57.340073585510254,45.247066020965576 57.33596682548523,45.11021375656128 57.33596682548523,45.11021375656128 57.32646584510803,44.97265815734863 57.32646584510803,44.97265815734863 57.316964864730835,44.855889678001404 57.316964864730835,44.855889678001404 57.31264352798462,44.781118631362915 57.31264352798462,44.781118631362915 57.31523633003235,44.42589581012726 57.31523633003235,44.42589581012726 57.329922914505005,43.89165639877319 57.329922914505005,43.89165639877319 57.381099462509155,43.2863712310791 57.381099462509155,43.2863712310791 57.49317407608032,42.717525362968445 57.49317407608032,42.717525362968445 57.69162178039551,42.29309260845184 57.69162178039551,42.29309260845184 58.00020694732666,42.12071895599365 58.00020694732666,42.12071895599365 58.385443687438965,42.07099676132202 58.385443687438965,42.07099676132202 58.62945914268494,41.95406436920166 58.62945914268494,41.95406436920166 58.749306201934814,41.782552003860474 58.749306201934814,41.782552003860474 58.759886026382446,41.56866371631622 58.759886026382446,41.56866371631622 58.678263425827026,41.32486581802368 58.678263425827026,41.32486581802368 58.52019190788269,41.06346666812897 58.52019190788269,41.06346666812897 57.64411687850952,40.05016088485718 57.64411687850952,40.05016088485718 56.60284757614136,39.20048475265503 56.60284757614136,39.20048475265503 55.44194579124451,38.4881466627121 55.44194579124451,38.4881466627121 54.206109046936035,37.88658678531647 54.206109046936035,37.88658678531647 52.94069051742554,37.369516491889954 52.94069051742554,37.369516491889954 51.69125199317932,36.91047728061676 51.69125199317932,36.91047728061676 51.38440132141113,36.80607080459595 51.38440132141113,36.80607080459595 51.07625126838684,36.710190773010254 51.07625126838684,36.710190773010254 50.767022371292114,36.621978878974915 50.767022371292114,36.621978878974915 50.45627951622009,36.54067814350128 50.45627951622009,36.54067814350128 50.1448929309845,36.46547496318817 50.1448929309845,36.46547496318817 49.83242750167847,36.39567196369171 49.83242750167847,36.39567196369171 55.935800075531006,35.32114624977112 55.935800075531006,35.32114624977112 56.58859610557556,35.62783896923065 56.58859610557556,35.62783896923065 57.235121726989746,35.94619035720825 57.235121726989746,35.94619035720825 57.875603437423706,36.27517819404602 57.875603437423706,36.27517819404602 58.508747816085815,36.61361038684845 58.508747816085815,36.61361038684845 59.1345489025116,36.96046769618988 59.1345489025116,36.96046769618988 59.75192189216614,37.3147189617157 59.75192189216614,37.3147189617157 61.197006702423096,38.19068670272827 61.197006702423096,38.19068670272827 62.6166045665741,39.10655081272125 62.6166045665741,39.10655081272125 64.01137113571167,40.05977213382721 64.01137113571167,40.05977213382721 65.381520986557,41.047486662864685 65.381520986557,41.047486662864685 66.7272686958313,42.06705689430237 66.7272686958313,42.06705689430237 68.0492639541626,43.115776777267456 68.0492639541626,43.115776777267456 68.63921880722046,43.60542595386505 68.63921880722046,43.60542595386505 69.12465691566467,44.001731276512146 69.12465691566467,44.001731276512146 69.57187056541443,44.31295692920685 69.57187056541443,44.31295692920685 70.0456440448761,44.546931982040405 70.0456440448761,44.546931982040405 70.61206102371216,44.71185505390167 70.61206102371216,44.71185505390167 71.33676409721375,44.81567144393921 71.33676409721375,44.81567144393921 75.49320459365845,45.202961564064026 75.49320459365845,45.202961564064026 79.69607710838318,45.68386375904083 79.69607710838318,45.68386375904083 83.89679193496704,46.32467031478882 83.89679193496704,46.32467031478882 88.04546594619751,47.19167649745941 88.04546594619751,47.19167649745941 92.09328889846802,48.35149943828583 92.09328889846802,48.35149943828583 95.990389585495,49.870431423187256 95.990389585495,49.870431423187256 96.38469815254211,50.04626512527466 96.38469815254211,50.04626512527466 96.96925282478333,50.326067209243774 96.96925282478333,50.326067209243774 97.5842535495758,50.675028562545776 97.5842535495758,50.675028562545776 98.06969165802002,51.058220863342285 98.06969165802002,51.058220863342285 98.26598167419434,51.44087076187134 98.26598167419434,51.44087076187134 98.01332950592041,51.78799629211426 98.01332950592041,51.78799629211426 97.89197444915771,52.007609605789185 97.89197444915771,52.007609605789185 97.81401753425598,52.43058204650879 97.81401753425598,52.43058204650879 97.76932001113892,52.96185612678528 97.76932001113892,52.96185612678528 97.7459967136383,53.50629687309265 97.7459967136383,53.50629687309265 97.73303866386414,53.96900773048401 97.73303866386414,53.96900773048401 97.71965146064758,54.254913330078125 97.71965146064758,54.254913330078125 97.65875339508057,54.83590364456177 97.65875339508057,54.83590364456177 97.59764671325684,55.41765093803406 97.59764671325684,55.41765093803406 97.53696322441101,56.000155210494995 97.53696322441101,56.000155210494995 97.47628569602966,56.582874059677124 97.47628569602966,56.582874059677124 97.41625189781189,57.16559290885925 97.41625189781189,57.16559290885925 97.35686779022217,57.74798393249512 97.35686779022217,57.74798393249512 97.51623272895813,57.883864641189575 97.51623272895813,57.883864641189575 97.94595837593079,58.01656246185303 97.94595837593079,58.01656246185303 98.52144122123718,58.14790725708008 98.52144122123718,58.14790725708008 99.1167962551117,58.279794454574585 99.1167962551117,58.279794454574585 99.60784316062927,58.41422080993652 99.60784316062927,58.41422080993652 99.86870288848877,58.5530161857605 99.86870288848877,58.5530161857605 99.9844491481781,58.91703963279724 99.9844491481781,58.91703963279724 99.992436170578,59.452033042907715 99.992436170578,59.452033042907715 99.92960095405579,60.074108839035034 99.92960095405579,60.074108839035034 99.83112812042236,60.698992013931274 99.83112812042236,60.698992013931274 99.7330904006958,61.24267578125 99.7330904006958,61.24267578125" stroke="white" stroke-width="0.1" /><polygon points="77.79773473739624,55.85806369781494 77.79773473739624,55.85806369781494 80.14934062957764,55.96425533294678 80.14934062957764,55.96425533294678 82.35583305358887,56.62902593612671 82.35583305358887,56.62902593612671 84.32803153991699,57.78642296791077 84.32803153991699,57.78642296791077 85.97630858421326,59.37013626098633 85.97630858421326,59.37013626098633 87.21257448196411,61.314207315444946 87.21257448196411,61.314207315444946 87.94699311256409,63.55249881744385 87.94699311256409,63.55249881744385 88.0644679069519,66.2556529045105 88.0644679069519,66.2556529045105 87.43305206298828,68.80738139152527 87.43305206298828,68.80738139152527 86.15251779556274,71.07547521591187 86.15251779556274,71.07547521591187 84.32198166847229,72.92744517326355 84.32198166847229,72.92744517326355 82.04185366630554,74.23108220100403 82.04185366630554,74.23108220100403 79.4112503528595,74.85402226448059 79.4112503528595,74.85402226448059 76.7875611782074,74.70739483833313 76.7875611782074,74.70739483833313 74.37052726745605,73.86868000030518 74.37052726745605,73.86868000030518 72.27503061294556,72.43936061859131 72.27503061294556,72.43936061859131 70.61530351638794,70.52077054977417 70.61530351638794,70.52077054977417 69.50665712356567,68.21462512016296 69.50665712356567,68.21462512016296 69.06332969665527,65.622079372406 69.06332969665527,65.622079372406 69.31554675102234,63.19386959075928 69.31554675102234,63.19386959075928 70.15836834907532,60.963088274002075 70.15836834907532,60.963088274002075 71.5103805065155,59.02203917503357 71.5103805065155,59.02203917503357 73.28866124153137,57.46272802352905 73.28866124153137,57.46272802352905 75.41201114654541,56.3773512840271 75.41201114654541,56.3773512840271" stroke="white" stroke-width="0.1" /><polygon points="22.50630408525467,57.39211440086365 22.50630408525467,57.39211440086365 24.944502115249634,57.513582706451416 24.944502115249634,57.513582706451416 27.21858322620392,58.234769105911255 27.21858322620392,58.234769105911255 29.231807589530945,59.479403495788574 29.231807589530945,59.479403495788574 30.886784195899963,61.171090602874756 30.886784195899963,61.171090602874756 32.086771726608276,63.233768939971924 32.086771726608276,63.233768939971924 32.735028862953186,65.59098362922668 32.735028862953186,65.59098362922668 32.70501494407654,68.30440163612366 32.70501494407654,68.30440163612366 31.93172514438629,70.82465887069702 31.93172514438629,70.82465887069702 30.522489547729492,73.02412986755371 30.522489547729492,73.02412986755371 28.5848468542099,74.77525472640991 28.5848468542099,74.77525472640991 26.226332783699036,75.95056891441345 26.226332783699036,75.95056891441345 23.55491667985916,76.42261981964111 23.55491667985916,76.42261981964111 21.04308307170868,76.14556550979614 21.04308307170868,76.14556550979614 18.748487532138824,75.23558735847473 18.748487532138824,75.23558735847473 16.772621870040894,73.78726601600647 16.772621870040894,73.78726601600647 15.215465426445007,71.89486026763916 15.215465426445007,71.89486026763916 14.179161190986633,69.65306401252747 14.179161190986633,69.65306401252747 13.76325786113739,67.15613007545471 13.76325786113739,67.15613007545471 14.017853140830994,64.72910642623901 14.017853140830994,64.72910642623901 14.862832427024841,62.4987006187439 14.862832427024841,62.4987006187439 16.216571629047394,60.5573832988739 16.216571629047394,60.5573832988739 17.99636334180832,58.99752974510193 17.99636334180832,58.99752974510193 20.12036442756653,57.911616563797 20.12036442756653,57.911616563797" stroke="white" stroke-width="0.1" /><polygon points="11.375807225704193,37.78460919857025 11.375807225704193,37.78460919857025 9.586082398891449,38.10247480869293 9.586082398891449,38.10247480869293 8.05894285440445,29.41989302635193 8.05894285440445,29.41989302635193 7.879279553890228,28.411012887954712 7.879279553890228,28.411012887954712 4.902739450335503,11.557198315858841 4.902739450335503,11.557198315858841 4.7805167734622955,10.711246728897095 4.7805167734622955,10.711246728897095 4.732793569564819,10.015860199928284 4.732793569564819,10.015860199928284 4.756763204932213,9.472497552633286 4.756763204932213,9.472497552633286 4.848970100283623,9.082560241222382 4.848970100283623,9.082560241222382 5.00703938305378,8.847562223672867 5.00703938305378,8.847562223672867 5.22751584649086,8.76895934343338 5.22751584649086,8.76895934343338 5.229243263602257,8.76895934343338 5.229243263602257,8.76895934343338 5.44777624309063,8.820083737373352 5.44777624309063,8.820083737373352 5.70150800049305,8.973672240972519 5.70150800049305,8.973672240972519 5.98871037364006,9.230642765760422 5.98871037364006,9.230642765760422 6.307440251111984,9.591427445411682 6.307440251111984,9.591427445411682 6.656833738088608,10.05699709057808 6.656833738088608,10.05699709057808 7.034515589475632,10.627785325050354 7.034515589475632,10.627785325050354 19.210170209407806,25.557127594947815 19.210170209407806,25.557127594947815 19.82344537973404,26.303422451019287 19.82344537973404,26.303422451019287 21.40241116285324,26.027017831802368 21.40241116285324,26.027017831802368 22.14006781578064,23.294059932231903 22.14006781578064,23.294059932231903 27.550700306892395,3.2857682555913925 27.550700306892395,3.2857682555913925 27.772042155265808,2.4719921872019768 27.772042155265808,2.4719921872019768 28.050822019577026,1.8038148060441017 28.050822019577026,1.8038148060441017 28.380781412124634,1.2822615914046764 28.380781412124634,1.2822615914046764 28.75392735004425,0.9083585813641548 28.75392735004425,0.9083585813641548 29.164433479309082,0.6833474151790142 29.164433479309082,0.6833474151790142 29.60473895072937,0.6080917548388243 29.60473895072937,0.6080917548388243 29.98868227005005,0.6601336877793074 29.98868227005005,0.6601336877793074 30.38364052772522,0.8166373707354069 30.38364052772522,0.8166373707354069 30.7863712310791,1.0788445360958576 30.7863712310791,1.0788445360958576 31.192341446876526,1.4475109986960888 31.192341446876526,1.4475109986960888 31.597664952278137,1.9236624240875244 31.597664952278137,1.9236624240875244 31.999099254608154,2.5083784013986588 31.999099254608154,2.5083784013986588 44.06764805316925,19.655874371528625 44.06764805316925,19.655874371528625 45.55332660675049,21.766920387744904 45.55332660675049,21.766920387744904 47.1392035484314,21.490514278411865 47.1392035484314,21.490514278411865 47.37760126590729,20.8029568195343 47.37760126590729,20.8029568195343 53.793662786483765,2.38054096698761 53.793662786483765,2.38054096698761 53.96857261657715,1.6523856669664383 53.96857261657715,1.6523856669664383 54.15557622909546,1.0569804348051548 54.15557622909546,1.0569804348051548 54.35251593589783,0.5942714866250753 54.35251593589783,0.5942714866250753 54.55528497695923,0.26393469888716936 54.55528497695923,0.26393469888716936 54.761725664138794,0.06591619458049536 54.761725664138794,0.06591619458049536 54.96838092803955,0.0 54.96838092803955,0.0 55.18108606338501,0.07001908379606903 55.18108606338501,0.07001908379606903 55.38817644119263,0.28013032861053944 55.38817644119263,0.28013032861053944 55.587273836135864,0.6305496674031019 55.587273836135864,0.6305496674031019 55.77492713928223,1.1214390397071838 55.77492713928223,1.1214390397071838 55.94832897186279,1.7530685290694237 55.94832897186279,1.7530685290694237 56.105101108551025,2.525653690099716 56.105101108551025,2.525653690099716 59.07818675041199,19.38292384147644 59.07818675041199,19.38292384147644 59.259575605392456,20.388348400592804 59.259575605392456,20.388348400592804 60.7884407043457,29.077839851379395 60.7884407043457,29.077839851379395 58.57201814651489,29.468265175819397 58.57201814651489,29.468265175819397" stroke="white" stroke-width="0.1" /></svg>