<?xml version="1.0" encoding="utf-8" ?>
<svg baseProfile="full" height="99.90407824516296" version="1.1" width="92.00047850608826" xmlns="http://www.w3.org/2000/svg" xmlns:ev="http://www.w3.org/2001/xml-events" xmlns:xlink="http://www.w3.org/1999/xlink"><defs><clipPath /></defs><polygon points="78.67550253868103,21.540385484695435 78.67550253868103,21.540385484695435 78.67550253868103,21.540385484695435 78.67550253868103,21.540385484695435 83.4178626537323,27.126508951187134 83.4178626537323,27.126508951187134 87.1228039264679,33.27539265155792 87.1228039264679,33.27539265155792 89.78908061981201,39.84884023666382 89.78908061981201,39.84884023666382 91.41536951065063,46.70836329460144 91.41536951065063,46.70836329460144 92.00047850608826,53.715819120407104 92.00047850608826,53.715819120407104 91.54319763183594,60.732829570770264 91.54319763183594,60.732829570770264 90.04216194152832,67.62086749076843 90.04216194152832,67.62086749076843 87.4962329864502,74.24200177192688 87.4962329864502,74.24200177192688 83.90409350395203,80.45742511749268 83.90409350395203,80.45742511749268 79.26459908485413,86.12920045852661 79.26459908485413,86.12920045852661 73.02284836769104,91.51637554168701 73.02284836769104,91.51637554168701 66.10426902770996,95.57546377182007 66.10426902770996,95.57546377182007 58.698153495788574,98.31826686859131 58.698153495788574,98.31826686859131 50.993937253952026,99.7570276260376 50.993937253952026,99.7570276260376 43.18106472492218,99.90407824516296 43.18106472492218,99.90407824516296 35.44893562793732,98.77133965492249 35.44893562793732,98.77133965492249 27.98682451248169,96.37104868888855 27.98682451248169,96.37104868888855 20.984286069869995,92.71520972251892 20.984286069869995,92.71520972251892 14.630550146102905,87.81585693359375 14.630550146102905,87.81585693359375 9.115223586559296,81.68565034866333 9.115223586559296,81.68565034866333 6.870067864656448,78.38084697723389 6.870067864656448,78.38084697723389 4.9326784908771515,74.90538954734802 4.9326784908771515,74.90538954734802 3.3079173415899277,71.28440737724304 3.3079173415899277,71.28440737724304 2.0009199157357216,67.54324436187744 2.0009199157357216,67.54324436187744 1.016602199524641,63.707035779953 1.016602199524641,63.707035779953 0.3599897027015686,59.80117321014404 0.3599897027015686,59.80117321014404 0.03599897027015686,55.850791931152344 0.03599897027015686,55.850791931152344 0.0497102621011436,51.8812358379364 0.0497102621011436,51.8812358379364 0.406039971858263,47.91758060455322 0.406039971858263,47.91758060455322 1.110013760626316,43.985387682914734 1.110013760626316,43.985387682914734 1.5952078625559807,42.03139245510101 1.5952078625559807,42.03139245510101 2.1655647084116936,40.1016503572464 2.1655647084116936,40.1016503572464 2.8196098282933235,38.19933235645294 2.8196098282933235,38.19933235645294 3.5558678209781647,36.327823996543884 3.5558678209781647,36.327823996543884 4.372864216566086,34.4902902841568 4.372864216566086,34.4902902841568 5.269069224596024,32.69017934799194 5.269069224596024,32.69017934799194 6.243008002638817,30.93048930168152 6.243008002638817,30.93048930168152 7.293151319026947,29.214775562286377 7.293151319026947,29.214775562286377 8.417914062738419,27.546149492263794 8.417914062738419,27.546149492263794 9.61604043841362,25.92799961566925 9.61604043841362,25.92799961566925 10.212454199790955,25.155797600746155 10.212454199790955,25.155797600746155 10.833504796028137,24.362289905548096 10.833504796028137,24.362289905548096 11.483234167098999,23.56697916984558 11.483234167098999,23.56697916984558 12.165848910808563,22.78915047645569 12.165848910808563,22.78915047645569 12.885446846485138,22.048194706439972 12.885446846485138,22.048194706439972 13.646231591701508,21.363449096679688 13.646231591701508,21.363449096679688 14.452193677425385,20.75425237417221 14.452193677425385,20.75425237417221 15.307702124118805,20.24010717868805 15.307702124118805,20.24010717868805 16.216634213924408,19.840021431446075 16.216634213924408,19.840021431446075 17.183363437652588,19.57382559776306 17.183363437652588,19.57382559776306 18.032097816467285,19.46282386779785 18.032097816467285,19.46282386779785 18.879084289073944,19.455067813396454 18.879084289073944,19.455067813396454 19.71541792154312,19.546949863433838 19.71541792154312,19.546949863433838 20.532305538654327,19.73448246717453 20.532305538654327,19.73448246717453 21.320895850658417,20.014116168022156 21.320895850658417,20.014116168022156 22.072339057922363,20.382191240787506 22.072339057922363,20.382191240787506 22.77778834104538,20.83488255739212 22.77778834104538,20.83488255739212 23.42839241027832,21.368475258350372 23.42839241027832,21.368475258350372 24.015137553215027,21.979200839996338 24.015137553215027,21.979200839996338 24.529556930065155,22.663509845733643 24.529556930065155,22.663509845733643 25.42565166950226,24.502187967300415 25.42565166950226,24.502187967300415 25.709709525108337,26.276955008506775 25.709709525108337,26.276955008506775 25.483664870262146,27.99408733844757 25.483664870262146,27.99408733844757 24.849286675453186,29.659545421600342 24.849286675453186,29.659545421600342 23.90855997800827,31.279662251472473 23.90855997800827,31.279662251472473 22.763366997241974,32.860612869262695 22.763366997241974,32.860612869262695 21.515366435050964,34.40840542316437 21.515366435050964,34.40840542316437 20.266765356063843,35.929322242736816 20.266765356063843,35.929322242736816 19.11911368370056,37.4294251203537 19.11911368370056,37.4294251203537 18.174508213996887,38.91516029834747 18.174508213996887,38.91516029834747 17.27912276983261,40.686264634132385 17.27912276983261,40.686264634132385 16.49932712316513,42.5081729888916 16.49932712316513,42.5081729888916 15.836159884929657,44.373783469200134 15.836159884929657,44.373783469200134 15.290658175945282,46.275994181632996 15.290658175945282,46.275994181632996 14.863914251327515,48.208028078079224 14.863914251327515,48.208028078079224 14.556913077831268,50.16279220581055 14.556913077831268,50.16279220581055 14.370526373386383,52.13322639465332 14.370526373386383,52.13322639465332 14.306066930294037,54.11229729652405 14.306066930294037,54.11229729652405 14.364190399646759,56.0930073261261 14.364190399646759,56.0930073261261 14.546424150466919,58.06857943534851 14.546424150466919,58.06857943534851 15.320812165737152,62.09505796432495 15.320812165737152,62.09505796432495 16.6013702750206,65.9405529499054 16.6013702750206,65.9405529499054 18.350571393966675,69.56541538238525 18.350571393966675,69.56541538238525 20.5311581492424,72.92987108230591 20.5311581492424,72.92987108230591 23.10587614774704,75.99475383758545 23.10587614774704,75.99475383758545 26.037362217903137,78.72018814086914 26.037362217903137,78.72018814086914 29.288139939308167,81.06640577316284 29.288139939308167,81.06640577316284 32.821065187454224,82.99418091773987 32.821065187454224,82.99418091773987 36.59866154193878,84.46352481842041 36.59866154193878,84.46352481842041 40.58367609977722,85.43522357940674 40.58367609977722,85.43522357940674 44.65789794921875,85.8707070350647 44.65789794921875,85.8707070350647 48.70425760746002,85.77467799186707 48.70425760746002,85.77467799186707 52.67518162727356,85.17006635665894 52.67518162727356,85.17006635665894 56.522971391677856,84.08015370368958 56.522971391677856,84.08015370368958 60.200220346450806,82.5279951095581 60.200220346450806,82.5279951095581 63.659292459487915,80.53674101829529 63.659292459487915,80.53674101829529 66.85254573822021,78.1295657157898 66.85254573822021,78.1295657157898 69.73251700401306,75.32951235771179 69.73251700401306,75.32951235771179 72.25157022476196,72.159743309021 72.25157022476196,72.159743309021 74.3621826171875,68.6434268951416 74.3621826171875,68.6434268951416 75.97454190254211,64.91755843162537 75.97454190254211,64.91755843162537 77.07679867744446,61.06058955192566 77.07679867744446,61.06058955192566 77.67725586891174,57.123976945877075 77.67725586891174,57.123976945877075 77.78454422950745,53.15917134284973 77.78454422950745,53.15917134284973 77.40718126296997,49.21785891056061 77.40718126296997,49.21785891056061 76.55369639396667,45.351436734199524 76.55369639396667,45.351436734199524 75.23227334022522,41.61142408847809 75.23227334022522,41.61142408847809 73.4518826007843,38.04943561553955 73.4518826007843,38.04943561553955 71.22060060501099,34.716662764549255 71.22060060501099,34.716662764549255 68.5472846031189,31.66511058807373 68.5472846031189,31.66511058807373 67.0693039894104,29.622945189476013 67.0693039894104,29.622945189476013 66.46819114685059,27.484366297721863 66.46819114685059,27.484366297721863 66.62262082099915,25.37124454975128 66.62262082099915,25.37124454975128 67.41142868995667,23.40550273656845 67.41142868995667,23.40550273656845 68.71334910392761,21.709291636943817 68.71334910392761,21.709291636943817 70.4071581363678,20.40458768606186 70.4071581363678,20.40458768606186 72.37147688865662,19.613321125507355 72.37147688865662,19.613321125507355 74.48520064353943,19.45752501487732 74.48520064353943,19.45752501487732 76.62695050239563,20.05912810564041 76.62695050239563,20.05912810564041" stroke="white" stroke-width="0.1" /><polygon points="46.07780873775482,54.72542643547058 46.07780873775482,54.72542643547058 46.07780873775482,54.72542643547058 46.07780873775482,54.72542643547058 43.73159408569336,54.41662073135376 43.73159408569336,54.41662073135376 41.942352056503296,53.55357527732849 41.942352056503296,53.55357527732849 40.63710272312164,52.23138928413391 40.63710272312164,52.23138928413391 39.74275290966034,50.54534077644348 39.74275290966034,50.54534077644348 39.18643593788147,48.59030544757843 39.18643593788147,48.59030544757843 38.89505863189697,46.46156132221222 38.89505863189697,46.46156132221222 38.79541754722595,44.254204630851746 38.79541754722595,44.254204630851746 38.81470263004303,42.06318557262421 38.81470263004303,42.06318557262421 38.87976109981537,39.983657002449036 38.87976109981537,39.983657002449036 38.91778290271759,38.11105489730835 38.91778290271759,38.11105489730835 38.91778290271759,12.642794847488403 38.91778290271759,12.642794847488403 38.91778290271759,7.225577533245087 38.91778290271759,7.225577533245087 39.08062279224396,5.702695623040199 39.08062279224396,5.702695623040199 39.54292833805084,4.304417222738266 39.54292833805084,4.304417222738266 40.2655303478241,3.0570171773433685 40.2655303478241,3.0570171773433685 41.20904207229614,1.986771635711193 41.20904207229614,1.986771635711193 42.33424365520477,1.1200650595128536 42.33424365520477,1.1200650595128536 43.601855635643005,0.48322747461497784 43.601855635643005,0.48322747461497784 44.972601532936096,0.10231573833152652 44.972601532936096,0.10231573833152652 46.40720784664154,0.003987746458733454 46.40720784664154,0.003987746458733454 47.86628484725952,0.21413650829344988 47.86628484725952,0.21413650829344988 49.3108332157135,0.7595290895551443 49.3108332157135,0.7595290895551443 50.739264488220215,1.7365815117955208 50.739264488220215,1.7365815117955208 51.80284380912781,2.983708307147026 51.80284380912781,2.983708307147026 52.551889419555664,4.450215771794319 52.551889419555664,4.450215771794319 53.037190437316895,6.085573881864548 53.037190437316895,6.085573881864548 53.309065103530884,7.839035242795944 53.309065103530884,7.839035242795944 53.41821312904358,9.660069644451141 53.41821312904358,9.660069644451141 53.415149450302124,11.497874557971954 53.415149450302124,11.497874557971954 53.35036516189575,13.302083313465118 53.35036516189575,13.302083313465118 53.27432155609131,15.021675825119019 53.27432155609131,15.021675825119019 53.237831592559814,16.606505215168 53.237831592559814,16.606505215168 53.237831592559814,40.186870098114014 53.237831592559814,40.186870098114014 53.25908064842224,41.940221190452576 53.25908064842224,41.940221190452576 53.28153371810913,43.826425075531006 53.28153371810913,43.826425075531006 53.24340462684631,45.770588517189026 53.24340462684631,45.770588517189026 53.08269262313843,47.69797921180725 53.08269262313843,47.69797921180725 52.73745059967041,49.533817172050476 52.73745059967041,49.533817172050476 52.14584469795227,51.203590631484985 52.14584469795227,51.203590631484985 51.24603509902954,52.63224244117737 51.24603509902954,52.63224244117737 49.97602105140686,53.745317459106445 49.97602105140686,53.745317459106445 48.273855447769165,54.467809200286865 48.273855447769165,54.467809200286865" stroke="white" stroke-width="0.1" /></svg>