<?xml version="1.0" encoding="utf-8" ?>
<svg baseProfile="full" height="99.73983764648438" version="1.1" width="99.9995470046997" xmlns="http://www.w3.org/2000/svg" xmlns:ev="http://www.w3.org/2001/xml-events" xmlns:xlink="http://www.w3.org/1999/xlink"><defs><clipPath /></defs><polygon points="99.79223608970642,92.2045111656189 99.79223608970642,92.2045111656189 98.98638129234314,95.87337970733643 98.98638129234314,95.87337970733643 96.84827327728271,98.12812805175781 96.84827327728271,98.12812805175781 93.79677772521973,99.30228590965271 93.79677772521973,99.30228590965271 90.25074243545532,99.72829818725586 90.25074243545532,99.72829818725586 86.62906885147095,99.73983764648438 86.62906885147095,99.73983764648438 83.35074782371521,99.66952204704285 83.35074782371521,99.66952204704285 53.143227100372314,99.66952204704285 53.143227100372314,99.66952204704285 21.073095500469208,99.66952204704285 21.073095500469208,99.66952204704285 10.809924453496933,99.66952204704285 10.809924453496933,99.66952204704285 9.689971804618835,99.6801495552063 9.689971804618835,99.6801495552063 8.565197139978409,99.68425035476685 8.565197139978409,99.68425035476685 7.445871829986572,99.6400535106659 7.445871829986572,99.6400535106659 6.342113018035889,99.50458407402039 6.342113018035889,99.50458407402039 5.264154076576233,99.23622012138367 5.264154076576233,99.23622012138367 4.222152009606361,98.79228472709656 4.222152009606361,98.79228472709656 1.9756786525249481,96.82306051254272 1.9756786525249481,96.82306051254272 0.6949275266379118,94.11085844039917 0.6949275266379118,94.11085844039917 0.13137272326275706,90.93239903450012 0.13137272326275706,90.93239903450012 0.03648820274975151,87.56439685821533 0.03648820274975151,87.56439685821533 0.16182385152205825,84.28357243537903 0.16182385152205825,84.28357243537903 0.25879666209220886,81.36664032936096 0.25879666209220886,81.36664032936096 0.25879666209220886,50.25029182434082 0.25879666209220886,50.25029182434082 0.25879666209220886,18.924961984157562 0.25879666209220886,18.924961984157562 0.16174791380763054,16.111306846141815 0.16174791380763054,16.111306846141815 0.019554031314328313,12.903383374214172 0.019554031314328313,12.903383374214172 0.05558660486713052,9.568794071674347 0.05558660486713052,9.568794071674347 0.49316026270389557,6.374538689851761 0.49316026270389557,6.374538689851761 1.5556655824184418,3.588373586535454 1.5556655824184418,3.588373586535454 3.4664172679185867,1.4774494804441929 3.4664172679185867,1.4774494804441929 4.571865499019623,0.8515685796737671 4.571865499019623,0.8515685796737671 5.713479220867157,0.45562791638076305 5.713479220867157,0.45562791638076305 6.88590481877327,0.23814153391867876 6.88590481877327,0.23814153391867876 8.083712309598923,0.14686406357213855 8.083712309598923,0.14686406357213855 9.301567822694778,0.13030958361923695 9.301567822694778,0.13030958361923695 10.534117370843887,0.13608087319880724 10.534117370843887,0.13608087319880724 20.55550217628479,0.13608087319880724 20.55550217628479,0.13608087319880724 52.451884746551514,0.13608087319880724 52.451884746551514,0.13608087319880724 82.89876580238342,0.13608087319880724 82.89876580238342,0.13608087319880724 86.09325289726257,0.05163783207535744 86.09325289726257,0.05163783207535744 89.6186351776123,0.011238822480663657 89.6186351776123,0.011238822480663657 93.11015009880066,0.3338234033435583 93.11015009880066,0.3338234033435583 96.2030291557312,1.338027324527502 96.2030291557312,1.338027324527502 98.53249788284302,3.343093767762184 98.53249788284302,3.343093767762184 99.7339129447937,6.667962670326233 99.7339129447937,6.667962670326233 99.93393421173096,8.927573263645172 99.93393421173096,8.927573263645172 99.9995470046997,11.22545674443245 99.9995470046997,11.22545674443245 99.97448921203613,13.54338824748993 99.97448921203613,13.54338824748993 99.90238547325134,15.862534940242767 99.90238547325134,15.862534940242767 99.82705116271973,18.164822459220886 99.82705116271973,18.164822459220886 99.79223608970642,20.43157070875168 99.79223608970642,20.43157070875168 99.79223608970642,49.55530762672424 99.79223608970642,49.55530762672424 99.79223608970642,92.2045111656189 99.79223608970642,92.2045111656189" stroke="white" stroke-width="0.1" /></svg>