<?xml version="1.0" encoding="utf-8" ?>
<svg baseProfile="full" height="99.9787449836731" version="1.1" width="76.94438695907593" xmlns="http://www.w3.org/2000/svg" xmlns:ev="http://www.w3.org/2001/xml-events" xmlns:xlink="http://www.w3.org/1999/xlink"><defs><clipPath /></defs><polygon points="64.80149626731873,33.457788825035095 64.80149626731873,33.457788825035095 69.12751793861389,38.282641768455505 69.12751793861389,38.282641768455505 72.55104780197144,43.71725916862488 72.55104780197144,43.71725916862488 75.02590417861938,49.61906671524048 75.02590417861938,49.61906671524048 76.50575637817383,55.84542751312256 76.50575637817383,55.84542751312256 76.94438695907593,62.254005670547485 76.94438695907593,62.254005670547485 76.29552483558655,68.702232837677 76.29552483558655,68.702232837677 74.83317852020264,74.1658091545105 74.83317852020264,74.1658091545105 72.59172797203064,79.32663559913635 72.59172797203064,79.32663559913635 69.63465809822083,84.10041928291321 69.63465809822083,84.10041928291321 66.02530479431152,88.40267658233643 66.02530479431152,88.40267658233643 61.82713508605957,92.14935302734375 61.82713508605957,92.14935302734375 57.10362195968628,95.25578618049622 57.10362195968628,95.25578618049622 48.71269762516022,98.66282343864441 48.71269762516022,98.66282343864441 39.92687463760376,99.9787449836731 39.92687463760376,99.9787449836731 31.13063871860504,99.2811381816864 31.13063871860504,99.2811381816864 22.708404064178467,96.64721488952637 22.708404064178467,96.64721488952637 15.04463404417038,92.15454459190369 15.04463404417038,92.15454459190369 8.523760735988617,85.88072061538696 8.523760735988617,85.88072061538696 3.3945899456739426,77.57589817047119 3.3945899456739426,77.57589817047119 0.5936382338404655,68.45349073410034 0.5936382338404655,68.45349073410034 0.08845319389365613,58.9970588684082 0.08845319389365613,58.9970588684082 1.8465368077158928,49.68998730182648 1.8465368077158928,49.68998730182648 5.835498124361038,41.015711426734924 5.835498124361038,41.015711426734924 12.022793292999268,33.457788825035095 12.022793292999268,33.457788825035095 9.849092364311218,29.806283116340637 9.849092364311218,29.806283116340637 9.093239158391953,30.23034632205963 9.093239158391953,30.23034632205963 8.37765708565712,30.410674214363098 8.37765708565712,30.410674214363098 7.719862461090088,30.377808213233948 7.719862461090088,30.377808213233948 7.137296348810196,30.162295699119568 7.137296348810196,30.162295699119568 6.647520512342453,29.794800281524658 6.647520512342453,29.794800281524658 6.267959624528885,29.30586338043213 6.267959624528885,29.30586338043213 4.528217390179634,26.393261551856995 4.528217390179634,26.393261551856995 4.28941510617733,25.83664059638977 4.28941510617733,25.83664059638977 4.208933562040329,25.257235765457153 4.208933562040329,25.257235765457153 4.278984293341637,24.684305489063263 4.278984293341637,24.684305489063263 4.49170283973217,24.146805703639984 4.49170283973217,24.146805703639984 4.839330539107323,23.67393672466278 4.839330539107323,23.67393672466278 5.314033478498459,23.294955492019653 5.314033478498459,23.294955492019653 15.998788177967072,16.936099529266357 15.998788177967072,16.936099529266357 16.557501256465912,16.697435081005096 16.557501256465912,16.697435081005096 17.138783633708954,16.617105901241302 17.138783633708954,16.617105901241302 17.713119089603424,16.68711155653 17.713119089603424,16.68711155653 18.250954151153564,16.899263858795166 18.250954151153564,16.899263858795166 18.722771108150482,17.24562495946884 18.722771108150482,17.24562495946884 19.099049270153046,17.718006670475006 19.099049270153046,17.718006670475006 20.830972492694855,20.632563531398773 20.830972492694855,20.632563531398773 21.107999980449677,21.39486074447632 21.107999980449677,21.39486074447632 21.128952503204346,22.081167995929718 21.128952503204346,22.081167995929718 20.939461886882782,22.689221799373627 20.939461886882782,22.689221799373627 20.58509886264801,23.216581344604492 20.58509886264801,23.216581344604492 20.11149525642395,23.661047220230103 20.11149525642395,23.661047220230103 19.56428289413452,24.020174145698547 19.56428289413452,24.020174145698547 21.327483654022217,26.983600854873657 21.327483654022217,26.983600854873657 21.929948031902313,26.69258415699005 21.929948031902313,26.69258415699005 22.537270188331604,26.410242915153503 22.537270188331604,26.410242915153503 23.14981371164322,26.13791823387146 23.14981371164322,26.13791823387146 23.76788705587387,25.87640881538391 23.76788705587387,25.87640881538391 24.3918240070343,25.626930594444275 24.3918240070343,25.626930594444275 25.02199113368988,25.390467047691345 25.02199113368988,25.390467047691345 22.616925835609436,19.8268324136734 22.616925835609436,19.8268324136734 22.437210381031036,14.09374624490738 22.437210381031036,14.09374624490738 24.20489937067032,8.717770874500275 24.20489937067032,8.717770874500275 27.64192819595337,4.2255949229002 27.64192819595337,4.2255949229002 32.4703574180603,1.144088339060545 32.4703574180603,1.144088339060545 38.412144780159,0.0 38.412144780159,0.0 44.345226883888245,1.1444548144936562 44.345226883888245,1.1444548144936562 49.17551875114441,4.226266965270042 49.17551875114441,4.226266965270042 52.61988043785095,8.718259632587433 52.61988043785095,8.718259632587433 54.395174980163574,14.093074202537537 54.395174980163574,14.093074202537537 54.21832799911499,19.823656976222992 54.21832799911499,19.823656976222992 51.80620551109314,25.382646918296814 51.80620551109314,25.382646918296814 52.43527293205261,25.621920824050903 52.43527293205261,25.621920824050903 53.059422969818115,25.87243914604187 53.059422969818115,25.87243914604187 53.67838144302368,26.134011149406433 53.67838144302368,26.134011149406433 54.29178476333618,26.406395435333252 54.29178476333618,26.406395435333252 54.899317026138306,26.689714193344116 54.899317026138306,26.689714193344116 55.50071597099304,26.983600854873657 55.50071597099304,26.983600854873657 57.26391673088074,24.020174145698547 57.26391673088074,24.020174145698547 56.54996633529663,23.559704422950745 56.54996633529663,23.559704422950745 56.056177616119385,23.01725596189499 56.056177616119385,23.01725596189499 55.768030881881714,22.42313027381897 55.768030881881714,22.42313027381897 55.67111372947693,21.80737853050232 55.67111372947693,21.80737853050232 55.751049518585205,21.200545132160187 55.751049518585205,21.200545132160187 55.99331855773926,20.632563531398773 55.99331855773926,20.632563531398773 57.72523880004883,17.718006670475006 57.72523880004883,17.718006670475006 58.10477137565613,17.245686054229736 58.10477137565613,17.245686054229736 58.57868194580078,16.89932495355606 58.57868194580078,16.89932495355606 59.117525815963745,16.68711155653 59.117525815963745,16.68711155653 59.69185829162598,16.616983711719513 59.69185829162598,16.616983711719513 60.272300243377686,16.6973739862442 60.272300243377686,16.6973739862442 60.82940697669983,16.936099529266357 60.82940697669983,16.936099529266357 71.51025533676147,23.294955492019653 71.51025533676147,23.294955492019653 71.98657989501953,23.67405891418457 71.98657989501953,23.67405891418457 72.33532071113586,24.14686679840088 72.33532071113586,24.14686679840088 72.5487232208252,24.684305489063263 72.5487232208252,24.684305489063263 72.6190984249115,25.257176160812378 72.6190984249115,25.257176160812378 72.5387692451477,25.836580991744995 72.5387692451477,25.836580991744995 72.29998111724854,26.393261551856995 72.29998111724854,26.393261551856995 70.56024074554443,29.30586338043213 70.56024074554443,29.30586338043213 70.17548680305481,29.788631200790405 70.17548680305481,29.788631200790405 69.67161297798157,30.142319202423096 69.67161297798157,30.142319202423096 69.07413005828857,30.34408986568451 69.07413005828857,30.34408986568451 68.40853095054626,30.370602011680603 68.40853095054626,30.370602011680603 67.70038604736328,30.199068784713745 67.70038604736328,30.199068784713745 66.97519421577454,29.806283116340637 66.97519421577454,29.806283116340637" stroke="white" stroke-width="0.1" /><polygon points="31.148231029510498,58.45143795013428 31.148231029510498,58.45143795013428 30.959656834602356,59.01257395744324 30.959656834602356,59.01257395744324 30.804619193077087,59.676891565322876 30.804619193077087,59.676891565322876 30.68348467350006,60.352933406829834 30.68348467350006,60.352933406829834 30.596527457237244,60.94908118247986 30.596527457237244,60.94908118247986 30.54414689540863,61.37399673461914 30.54414689540863,61.37399673461914 30.52661418914795,61.53605580329895 30.52661418914795,61.53605580329895 30.983787775039673,64.14945721626282 30.983787775039673,64.14945721626282 32.233065366744995,66.36457443237305 32.233065366744995,66.36457443237305 34.0911328792572,68.05960536003113 34.0911328792572,68.05960536003113 36.374667286872864,69.11236643791199 36.374667286872864,69.11236643791199 38.90043795108795,69.40112113952637 38.90043795108795,69.40112113952637 41.48503839969635,68.80388259887695 41.48503839969635,68.80388259887695 43.24820637702942,67.74573922157288 43.24820637702942,67.74573922157288 44.68667209148407,66.25859141349792 44.68667209148407,66.25859141349792 45.72395086288452,64.46307897567749 45.72395086288452,64.46307897567749 46.283623576164246,62.479597330093384 46.283623576164246,62.479597330093384 46.289244294166565,60.42904853820801 46.289244294166565,60.42904853820801 45.6643283367157,58.43188762664795 45.6643283367157,58.43188762664795 45.452359318733215,57.97545313835144 45.452359318733215,57.97545313835144 45.20908296108246,57.53355026245117 45.20908296108246,57.53355026245117 44.93715465068817,57.1080207824707 44.93715465068817,57.1080207824707 44.63914632797241,56.70033097267151 44.63914632797241,56.70033097267151 44.31770741939545,56.31231069564819 44.31770741939545,56.31231069564819 43.97540986537933,55.94542622566223 43.97540986537933,55.94542622566223 43.74966621398926,55.70077300071716 43.74966621398926,55.70077300071716 43.49074959754944,55.47640323638916 43.49074959754944,55.47640323638916 43.2106077671051,55.268341302871704 43.2106077671051,55.268341302871704 42.92096793651581,55.07280230522156 42.92096793651581,55.07280230522156 42.633768916130066,54.88600134849548 42.633768916130066,54.88600134849548 42.3607736825943,54.70414757728577 42.3607736825943,54.70414757728577 40.27308225631714,26.006215810775757 40.27308225631714,26.006215810775757 39.92818892002106,24.605444073677063 39.92818892002106,24.605444073677063 39.250800013542175,23.763854801654816 39.250800013542175,23.763854801654816 38.40774595737457,23.482368886470795 38.40774595737457,23.482368886470795 37.56560981273651,23.761656880378723 37.56560981273651,23.761656880378723 36.89124584197998,24.602633714675903 36.89124584197998,24.602633714675903 36.551207304000854,26.006215810775757 36.551207304000854,26.006215810775757 34.471336007118225,54.70414757728577 34.471336007118225,54.70414757728577 33.759862184524536,55.15850782394409 33.759862184524536,55.15850782394409 33.10327231884003,55.696314573287964 33.10327231884003,55.696314573287964 32.507771253585815,56.305837631225586 32.507771253585815,56.305837631225586 31.97934329509735,56.97503685951233 31.97934329509735,56.97503685951233 31.524157524108887,57.6923131942749 31.524157524108887,57.6923131942749 31.148231029510498,58.44557285308838 31.148231029510498,58.44557285308838" stroke="white" stroke-width="0.1" /><polygon points="27.594465017318726,16.226519644260406 27.594465017318726,16.226519644260406 27.69012749195099,17.67176389694214 27.69012749195099,17.67176389694214 27.968621253967285,19.057509303092957 27.968621253967285,19.057509303092957 28.417423367500305,20.372091233730316 28.417423367500305,20.372091233730316 29.02388870716095,21.603471040725708 29.02388870716095,21.603471040725708 29.775434732437134,22.740107774734497 29.775434732437134,22.740107774734497 30.659538507461548,23.769964277744293 30.659538507461548,23.769964277744293 31.511816382408142,23.62140119075775 31.511816382408142,23.62140119075775 31.666213274002075,23.192574083805084 31.666213274002075,23.192574083805084 32.15921223163605,22.120262682437897 32.15921223163605,22.120262682437897 33.035558462142944,20.726391673088074 33.035558462142944,20.726391673088074 34.34000015258789,19.33239847421646 34.34000015258789,19.33239847421646 36.11727952957153,18.260209262371063 36.11727952957153,18.260209262371063 38.412144780159,17.831382155418396 38.412144780159,17.831382155418396 40.70594012737274,18.260331451892853 40.70594012737274,18.260331451892853 42.483556270599365,19.33252066373825 42.483556270599365,19.33252066373825 43.78921985626221,20.726391673088074 43.78921985626221,20.726391673088074 44.667091965675354,22.120201587677002 44.667091965675354,22.120201587677002 45.16140520572662,23.19251298904419 45.16140520572662,23.19251298904419 45.31638026237488,23.62140119075775 45.31638026237488,23.62140119075775 46.16084098815918,23.769964277744293 46.16084098815918,23.769964277744293 47.105664014816284,22.659961879253387 47.105664014816284,22.659961879253387 47.86698520183563,21.468104422092438 47.86698520183563,21.468104422092438 48.448893427848816,20.211799442768097 48.448893427848816,20.211799442768097 48.85548651218414,18.908153474330902 48.85548651218414,18.908153474330902 49.090975522994995,17.574697732925415 49.090975522994995,17.574697732925415 49.1594523191452,16.22847318649292 49.1594523191452,16.22847318649292 48.9671528339386,14.680787920951843 48.9671528339386,14.680787920951843 48.32091927528381,12.470373511314392 48.32091927528381,12.470373511314392 47.081536054611206,10.018423944711685 47.081536054611206,10.018423944711685 45.10972499847412,7.745702564716339 45.10972499847412,7.745702564716339 42.26633310317993,6.073460355401039 42.26633310317993,6.073460355401039 38.412144780159,5.422522872686386 38.412144780159,5.422522872686386 34.89316701889038,5.966314673423767 34.89316701889038,5.966314673423767 32.128944993019104,7.402518391609192 32.128944993019104,7.402518391609192 30.06822168827057,9.439080208539963 30.06822168827057,9.439080208539963 28.65968942642212,11.78339496254921 28.65968942642212,11.78339496254921 27.852219343185425,14.14334923028946 27.852219343185425,14.14334923028946" stroke="white" stroke-width="0.1" /></svg>