<?xml version="1.0" encoding="utf-8" ?>
<svg baseProfile="full" height="49.00427162647247" version="1.1" width="99.99635815620422" xmlns="http://www.w3.org/2000/svg" xmlns:ev="http://www.w3.org/2001/xml-events" xmlns:xlink="http://www.w3.org/1999/xlink"><defs><clipPath /></defs><polygon points="34.53727662563324,25.540319085121155 34.53727662563324,25.540319085121155 34.41144526004791,24.99883472919464 34.41144526004791,24.99883472919464 34.452661871910095,24.539710581302643 34.452661871910095,24.539710581302643 34.6004843711853,24.128499627113342 34.6004843711853,24.128499627113342 34.79418456554413,23.73068779706955 34.79418456554413,23.73068779706955 34.97346341609955,23.311759531497955 34.97346341609955,23.311759531497955 35.077887773513794,22.83726930618286 35.077887773513794,22.83726930618286 35.08036434650421,22.423510253429413 35.08036434650421,22.423510253429413 35.03099083900452,21.997809410095215 35.03099083900452,21.997809410095215 34.94681417942047,21.567302942276 34.94681417942047,21.567302942276 34.84413921833038,21.139125525951385 34.84413921833038,21.139125525951385 34.74029898643494,20.72041481733322 34.74029898643494,20.72041481733322 34.65145826339722,20.318306982517242 34.65145826339722,20.318306982517242 34.50625538825989,19.60839331150055 34.50625538825989,19.60839331150055 34.3549370765686,18.7549889087677 34.3549370765686,18.7549889087677 34.27177965641022,17.854979634284973 34.27177965641022,17.854979634284973 34.330180287361145,17.005251348018646 34.330180287361145,17.005251348018646 34.60470736026764,16.302691400051117 34.60470736026764,16.302691400051117 35.16876697540283,15.844294428825378 35.16876697540283,15.844294428825378 36.1821174621582,15.449468791484833 36.1821174621582,15.449468791484833 37.193432450294495,15.070918202400208 37.193432450294495,15.070918202400208 38.18348050117493,14.669866859912872 38.18348050117493,14.669866859912872 39.132606983184814,14.207391440868378 39.132606983184814,14.207391440868378 40.02158343791962,13.644790649414062 40.02158343791962,13.644790649414062 40.83118736743927,12.943178415298462 40.83118736743927,12.943178415298462 41.7300671339035,12.011291831731796 41.7300671339035,12.011291831731796 42.629238963127136,11.073581129312515 42.629238963127136,11.073581129312515 43.53671371936798,10.141677409410477 43.53671371936798,10.141677409410477 44.46020722389221,9.22723188996315 44.46020722389221,9.22723188996315 45.40729224681854,8.34193229675293 45.40729224681854,8.34193229675293 46.38642072677612,7.49746561050415 46.38642072677612,7.49746561050415 47.56317734718323,6.583530455827713 47.56317734718323,6.583530455827713 48.78493845462799,5.729524791240692 48.78493845462799,5.729524791240692 50.04572868347168,4.9324821680784225 50.04572868347168,4.9324821680784225 51.33958458900452,4.189416766166687 51.33958458900452,4.189416766166687 52.66095995903015,3.4973427653312683 52.66095995903015,3.4973427653312683 54.003894329071045,2.853347919881344 54.003894329071045,2.853347919881344 55.32745122909546,2.2586334496736526 55.32745122909546,2.2586334496736526 56.69441819190979,1.6825607046484947 56.69441819190979,1.6825607046484947 58.094435930252075,1.1511260643601418 58.094435930252075,1.1511260643601418 59.51645374298096,0.6903443019837141 59.51645374298096,0.6903443019837141 60.94967722892761,0.3263392951339483 60.94967722892761,0.3263392951339483 62.383341789245605,0.08505283622071147 62.383341789245605,0.08505283622071147 63.518160581588745,0.004587610237649642 63.518160581588745,0.004587610237649642 64.6583616733551,0.019297091057524085 64.6583616733551,0.019297091057524085 65.798419713974,0.11476307408884168 65.798419713974,0.11476307408884168 66.9325053691864,0.27662196662276983 66.9325053691864,0.27662196662276983 68.05581450462341,0.4905648063868284 68.05581450462341,0.4905648063868284 69.16193962097168,0.7421733811497688 69.16193962097168,0.7421733811497688 70.26515007019043,1.0284621268510818 70.26515007019043,1.0284621268510818 71.35947942733765,1.3454440981149673 71.35947942733765,1.3454440981149673 72.44506478309631,1.691153272986412 72.44506478309631,1.691153272986412 73.52133393287659,2.063641883432865 73.52133393287659,2.063641883432865 74.58886504173279,2.4610161781311035 74.58886504173279,2.4610161781311035 75.64692497253418,2.8813105076551437 75.64692497253418,2.8813105076551437 76.12316608428955,3.083784319460392 76.12316608428955,3.083784319460392 76.51347517967224,3.2458435744047165 76.51347517967224,3.2458435744047165 76.86242461204529,3.360169753432274 76.86242461204529,3.360169753432274 77.21370458602905,3.419298678636551 77.21370458602905,3.419298678636551 77.6118814945221,3.415949270129204 77.6118814945221,3.415949270129204 78.1006395816803,3.3426929265260696 78.1006395816803,3.3426929265260696 80.8599054813385,2.7869367972016335 80.8599054813385,2.7869367972016335 83.66767168045044,2.2824453189969063 83.66767168045044,2.2824453189969063 86.50514483451843,1.881648413836956 86.50514483451843,1.881648413836956 89.35281038284302,1.6369575634598732 89.35281038284302,1.6369575634598732 92.19217896461487,1.600857451558113 92.19217896461487,1.600857451558113 95.00402212142944,1.8257232382893562 95.00402212142944,1.8257232382893562 95.29383778572083,1.8634799867868423 95.29383778572083,1.8634799867868423 95.72580456733704,1.931183598935604 95.72580456733704,1.931183598935604 96.19082808494568,2.037481591105461 96.19082808494568,2.037481591105461 96.57837152481079,2.1909479051828384 96.57837152481079,2.1909479051828384 96.77920937538147,2.4002304300665855 96.77920937538147,2.4002304300665855 96.68294191360474,2.67392136156559 96.68294191360474,2.67392136156559 96.64769768714905,2.839020825922489 96.64769768714905,2.839020825922489 96.67988419532776,3.127002716064453 96.67988419532776,3.127002716064453 96.75386548042297,3.4787192940711975 96.75386548042297,3.4787192940711975 96.84386849403381,3.8348600268363953 96.84386849403381,3.8348600268363953 96.92469835281372,4.13629487156868 96.92469835281372,4.13629487156868 96.9707190990448,4.323713481426239 96.9707190990448,4.323713481426239 97.04441428184509,4.711694270372391 97.04441428184509,4.711694270372391 97.11796045303345,5.0996750593185425 97.11796045303345,5.0996750593185425 97.1917986869812,5.487655848264694 97.1917986869812,5.487655848264694 97.26563692092896,5.8756183832883835 97.26563692092896,5.8756183832883835 97.34005928039551,6.263598799705505 97.34005928039551,6.263598799705505 97.41462469100952,6.651598215103149 97.41462469100952,6.651598215103149 97.54424691200256,6.708870083093643 97.54424691200256,6.708870083093643 97.84761071205139,6.711328029632568 97.84761071205139,6.711328029632568 98.24476838111877,6.68451189994812 98.24476838111877,6.68451189994812 98.65488409996033,6.653983145952225 98.65488409996033,6.653983145952225 98.99815320968628,6.6453717648983 98.99815320968628,6.6453717648983 99.19374585151672,6.68422132730484 99.19374585151672,6.68422132730484 99.33909177780151,6.89648911356926 99.33909177780151,6.89648911356926 99.4480311870575,7.240632921457291 99.4480311870575,7.240632921457291 99.52813386917114,7.655046880245209 99.52813386917114,7.655046880245209 99.58551526069641,8.078180998563766 99.58551526069641,8.078180998563766 99.62701797485352,8.448521047830582 99.62701797485352,8.448521047830582 99.65978860855103,8.704517036676407 99.65978860855103,8.704517036676407 99.7786283493042,9.364623576402664 99.7786283493042,9.364623576402664 99.89455938339233,10.051199048757553 99.89455938339233,10.051199048757553 99.97742772102356,10.749571770429611 99.97742772102356,10.749571770429611 99.99635815620422,11.444976925849915 99.99635815620422,11.444976925849915 99.92179274559021,12.122832983732224 99.92179274559021,12.122832983732224 99.72270727157593,12.768411636352539 99.72270727157593,12.768411636352539 99.34171438217163,13.427098095417023 99.34171438217163,13.427098095417023 98.85309934616089,13.954472541809082 98.85309934616089,13.954472541809082 98.28132390975952,14.379754662513733 98.28132390975952,14.379754662513733 97.65012264251709,14.731982350349426 97.65012264251709,14.731982350349426 96.98426723480225,15.040335059165955 96.98426723480225,15.040335059165955 96.307772397995,15.333977341651917 96.307772397995,15.333977341651917 95.81522345542908,12.209633737802505 95.81522345542908,12.209633737802505 94.38433051109314,9.53691378235817 94.38433051109314,9.53691378235817 92.22319722175598,7.460764795541763 92.22319722175598,7.460764795541763 89.53966498374939,6.125970557332039 89.53966498374939,6.125970557332039 86.54228448867798,5.677495524287224 86.54228448867798,5.677495524287224 83.43916535377502,6.260121613740921 83.43916535377502,6.260121613740921 80.72854280471802,7.828665524721146 80.72854280471802,7.828665524721146 78.75674366950989,10.101953893899918 78.75674366950989,10.101953893899918 77.58784890174866,12.839482724666595 77.58784890174866,12.839482724666595 77.28492021560669,15.800675749778748 77.28492021560669,15.800675749778748 77.91247963905334,18.74508410692215 77.91247963905334,18.74508410692215 79.53372597694397,21.432149410247803 79.53372597694397,21.432149410247803 76.37103796005249,22.23254293203354 76.37103796005249,22.23254293203354 73.23136925697327,23.08478206396103 73.23136925697327,23.08478206396103 70.11412382125854,23.99684190750122 70.11412382125854,23.99684190750122 67.0178472995758,24.97662454843521 67.0178472995758,24.97662454843521 63.941967487335205,26.032212376594543 63.941967487335205,26.032212376594543 60.88501811027527,27.17146873474121 60.88501811027527,27.17146873474121 60.50257086753845,24.261905252933502 60.50257086753845,24.261905252933502 59.28998589515686,21.700744330883026 59.28998589515686,21.700744330883026 57.40848183631897,19.62011754512787 57.40848183631897,19.62011754512787 55.017536878585815,18.15211772918701 55.017536878585815,18.15211772918701 52.278369665145874,17.42895096540451 52.278369665145874,17.42895096540451 49.3504524230957,17.582635581493378 49.3504524230957,17.582635581493378 46.65526747703552,18.618488311767578 46.65526747703552,18.618488311767578 44.4705456495285,20.355480909347534 44.4705456495285,20.355480909347534 42.886292934417725,22.618229687213898 42.886292934417725,22.618229687213898 41.99134409427643,25.231236219406128 41.99134409427643,25.231236219406128 41.87585115432739,28.0191570520401 41.87585115432739,28.0191570520401 42.628949880599976,30.806604027748108 42.628949880599976,30.806604027748108 41.951438784599304,30.700543522834778 41.951438784599304,30.700543522834778 41.27320051193237,30.595755577087402 41.27320051193237,30.595755577087402 40.59481620788574,30.494356155395508 40.59481620788574,30.494356155395508 39.91555869579315,30.398306250572205 39.91555869579315,30.398306250572205 39.2355740070343,30.309903621673584 39.2355740070343,30.309903621673584 38.554567098617554,30.231040716171265 38.554567098617554,30.231040716171265 38.27989399433136,30.21531105041504 38.27989399433136,30.21531105041504 37.98890709877014,30.211633443832397 37.98890709877014,30.211633443832397 37.694135308265686,30.20133078098297 37.694135308265686,30.20133078098297 37.40737438201904,30.165758728981018 37.40737438201904,30.165758728981018 37.14114725589752,30.086350440979004 37.14114725589752,30.086350440979004 36.90710663795471,29.94442582130432 36.90710663795471,29.94442582130432 36.35018467903137,29.363182187080383 36.35018467903137,29.363182187080383 35.878169536590576,28.666958212852478 35.878169536590576,28.666958212852478 35.4762077331543,27.89616584777832 35.4762077331543,27.89616584777832 35.12871563434601,27.091148495674133 35.12871563434601,27.091148495674133 34.820836782455444,26.29246711730957 34.820836782455444,26.29246711730957" stroke="white" stroke-width="0.1" /><polygon points="58.24255347251892,3.1213225796818733 58.24255347251892,3.1213225796818733 57.57945775985718,3.356892615556717 57.57945775985718,3.356892615556717 56.801313161849976,3.652866557240486 56.801313161849976,3.652866557240486 56.00918531417847,4.0257371962070465 56.00918531417847,4.0257371962070465 55.3034245967865,4.491998627781868 55.3034245967865,4.491998627781868 54.78568077087402,5.068180710077286 54.78568077087402,5.068180710077286 54.55615520477295,5.77077679336071 54.55615520477295,5.77077679336071 54.628098011016846,6.480454653501511 54.628098011016846,6.480454653501511 54.895347356796265,7.206371426582336 54.895347356796265,7.206371426582336 55.298614501953125,7.923603802919388 55.298614501953125,7.923603802919388 55.777621269226074,8.607212454080582 55.777621269226074,8.607212454080582 56.27293586730957,9.23236533999443 56.27293586730957,9.23236533999443 56.724417209625244,9.774085879325867 56.724417209625244,9.774085879325867 56.891608238220215,9.912187606096268 56.891608238220215,9.912187606096268 57.07132816314697,9.962286800146103 57.07132816314697,9.962286800146103 57.26284384727478,9.94797796010971 57.26284384727478,9.94797796010971 57.46425986289978,9.89263504743576 57.46425986289978,9.89263504743576 57.67485499382019,9.81985256075859 57.67485499382019,9.81985256075859 57.893019914627075,9.753113985061646 57.893019914627075,9.753113985061646 58.72315764427185,9.535311162471771 58.72315764427185,9.535311162471771 59.551841020584106,9.313122183084488 59.551841020584106,9.313122183084488 60.379213094711304,9.086963534355164 60.379213094711304,9.086963534355164 61.20527386665344,8.8570736348629 61.20527386665344,8.8570736348629 62.03017234802246,8.623851835727692 62.03017234802246,8.623851835727692 62.85404562950134,8.387608081102371 62.85404562950134,8.387608081102371 63.52384090423584,8.191268891096115 63.52384090423584,8.191268891096115 64.19304609298706,7.99361988902092 64.19304609298706,7.99361988902092 64.8615300655365,7.794567942619324 64.8615300655365,7.794567942619324 65.52913188934326,7.593933492898941 65.52913188934326,7.593933492898941 66.1961555480957,7.391641288995743 66.1961555480957,7.391641288995743 66.86201691627502,7.187547534704208 66.86201691627502,7.187547534704208 67.24533438682556,7.068324089050293 67.24533438682556,7.068324089050293 67.62865781784058,6.948318332433701 67.62865781784058,6.948318332433701 68.01168918609619,6.8275295197963715 68.01168918609619,6.8275295197963715 68.39442253112793,6.705939024686813 68.39442253112793,6.705939024686813 68.77716183662415,6.5836213529109955 68.77716183662415,6.5836213529109955 69.15960907936096,6.460520625114441 69.15960907936096,6.460520625114441 69.16019320487976,6.410038471221924 69.16019320487976,6.410038471221924 69.14198398590088,6.334688514471054 69.14198398590088,6.334688514471054 69.11286115646362,6.247305870056152 69.11286115646362,6.247305870056152 69.07994151115417,6.16065077483654 69.07994151115417,6.16065077483654 69.05110478401184,6.087667867541313 69.05110478401184,6.087667867541313 69.03377771377563,6.0410816222429276 69.03377771377563,6.0410816222429276 68.9661979675293,5.810317769646645 68.9661979675293,5.810317769646645 68.87168288230896,5.46189583837986 68.87168288230896,5.46189583837986 68.78735423088074,5.060643702745438 68.78735423088074,5.060643702745438 68.74977946281433,4.671407118439674 68.74977946281433,4.671407118439674 68.79638433456421,4.359103739261627 68.79638433456421,4.359103739261627 68.96386742591858,4.18856106698513 68.96386742591858,4.18856106698513 69.20242309570312,4.081371054053307 69.20242309570312,4.081371054053307 69.33684945106506,3.9585616439580917 69.33684945106506,3.9585616439580917 69.38010454177856,3.824756294488907 69.38010454177856,3.824756294488907 69.34500336647034,3.6845244467258453 69.34500336647034,3.6845244467258453 69.24465894699097,3.542490676045418 69.24465894699097,3.542490676045418 69.09202933311462,3.4032784402370453 69.09202933311462,3.4032784402370453 68.33004951477051,2.9183391481637955 68.33004951477051,2.9183391481637955 67.49292016029358,2.5716468691825867 67.49292016029358,2.5716468691825867 66.60496592521667,2.337205410003662 66.60496592521667,2.337205410003662 65.68992137908936,2.188945561647415 65.68992137908936,2.188945561647415 64.77239727973938,2.1009253337979317 64.77239727973938,2.1009253337979317 63.875848054885864,2.0470935851335526 63.875848054885864,2.0470935851335526 62.90793418884277,2.044472098350525 62.90793418884277,2.044472098350525 61.95240020751953,2.130890265107155 61.95240020751953,2.130890265107155 61.00895404815674,2.294096350669861 61.00895404815674,2.294096350669861 60.076576471328735,2.5217292830348015 60.076576471328735,2.5217292830348015 59.154683351516724,2.8015734627842903 59.154683351516724,2.8015734627842903" stroke="white" stroke-width="0.1" /><polygon points="45.51025927066803,11.353971064090729 45.51025927066803,11.353971064090729 45.75143754482269,11.945008486509323 45.75143754482269,11.945008486509323 46.42370343208313,12.169710546731949 46.42370343208313,12.169710546731949 47.342681884765625,12.134884297847748 47.342681884765625,12.134884297847748 48.323410749435425,11.947210878133774 48.323410749435425,11.947210878133774 49.181658029556274,11.713461577892303 49.181658029556274,11.713461577892303 49.73260760307312,11.540388315916061 49.73260760307312,11.540388315916061 50.4469633102417,11.326044797897339 50.4469633102417,11.326044797897339 51.2265682220459,11.071578413248062 51.2265682220459,11.071578413248062 51.94864273071289,10.741125047206879 51.94864273071289,10.741125047206879 52.490270137786865,10.298802703619003 52.490270137786865,10.298802703619003 52.72926688194275,9.708785265684128 52.72926688194275,9.708785265684128 52.54284739494324,8.9352086186409 52.54284739494324,8.9352086186409 52.32147574424744,8.532008528709412 52.32147574424744,8.532008528709412 52.0718514919281,8.137673884630203 52.0718514919281,8.137673884630203 51.798343658447266,7.755246013402939 51.798343658447266,7.755246013402939 51.50444507598877,7.387745380401611 51.50444507598877,7.387745380401611 51.19438171386719,7.038286328315735 51.19438171386719,7.038286328315735 50.87208151817322,6.709853559732437 50.87208151817322,6.709853559732437 50.66498517990112,6.6178277134895325 50.66498517990112,6.6178277134895325 50.40283799171448,6.644789129495621 50.40283799171448,6.644789129495621 50.115346908569336,6.752379983663559 50.115346908569336,6.752379983663559 49.83105957508087,6.902296096086502 49.83105957508087,6.902296096086502 49.57968890666962,7.056236267089844 49.57968890666962,7.056236267089844 49.39006567001343,7.175896316766739 49.39006567001343,7.175896316766739 48.64090383052826,7.6410651206970215 48.64090383052826,7.6410651206970215 47.80406355857849,8.221307396888733 47.80406355857849,8.221307396888733 46.976110339164734,8.899672329425812 46.976110339164734,8.899672329425812 46.25345170497894,9.65917706489563 46.25345170497894,9.65917706489563 45.73293924331665,10.482962429523468 45.73293924331665,10.482962429523468" stroke="white" stroke-width="0.1" /><polygon points="80.6638777256012,17.2237828373909 80.6638777256012,17.2237828373909 80.35570979118347,15.606394410133362 80.35570979118347,15.606394410133362 80.46770095825195,14.001677930355072 80.46770095825195,14.001677930355072 80.96476793289185,12.485290318727493 80.96476793289185,12.485290318727493 81.8113625049591,11.132728308439255 81.8113625049591,11.132728308439255 82.97268152236938,10.019723325967789 82.97268152236938,10.019723325967789 84.41319465637207,9.221825003623962 84.41319465637207,9.221825003623962 85.95288395881653,8.83522778749466 85.95288395881653,8.83522778749466 87.50699162483215,8.83750319480896 87.50699162483215,8.83750319480896 89.00546431541443,9.2031829059124 89.00546431541443,9.2031829059124 90.37752151489258,9.90670770406723 90.37752151489258,9.90670770406723 91.55311584472656,10.922662913799286 91.55311584472656,10.922662913799286 92.46175289154053,12.225471436977386 92.46175289154053,12.225471436977386 93.06149482727051,13.948100805282593 93.06149482727051,13.948100805282593 93.14829707145691,15.718536078929901 93.14829707145691,15.718536078929901 92.7607536315918,17.432044446468353 92.7607536315918,17.432044446468353 91.93745851516724,18.98375004529953 91.93745851516724,18.98375004529953 90.71729779243469,20.268936455249786 90.71729779243469,20.268936455249786 89.13887143135071,21.182817220687866 89.13887143135071,21.182817220687866 87.41582036018372,21.596066653728485 87.41582036018372,21.596066653728485 85.69204211235046,21.52244597673416 85.69204211235046,21.52244597673416 84.0616226196289,21.005138754844666 84.0616226196289,21.005138754844666 82.61761665344238,20.087434351444244 82.61761665344238,20.087434351444244 81.45382404327393,18.812552094459534 81.45382404327393,18.812552094459534" stroke="white" stroke-width="0.1" /><polygon points="45.24228572845459,28.937771916389465 45.24228572845459,28.937771916389465 44.93527710437775,27.320384979248047 44.93527710437775,27.320384979248047 45.048001408576965,25.715595483779907 45.048001408576965,25.715595483779907 45.54564952850342,24.19898808002472 45.54564952850342,24.19898808002472 46.39253616333008,22.846044600009918 46.39253616333008,22.846044600009918 47.553858160972595,21.732383966445923 47.553858160972595,21.732383966445923 48.99393022060394,20.93348354101181 48.99393022060394,20.93348354101181 50.59318542480469,20.540259778499603 50.59318542480469,20.540259778499603 52.20263600349426,20.565928518772125 52.20263600349426,20.565928518772125 53.74465584754944,20.98008841276169 53.74465584754944,20.98008841276169 55.141621828079224,21.752336621284485 55.141621828079224,21.752336621284485 56.31648302078247,22.852197289466858 56.31648302078247,22.852197289466858 57.191628217697144,24.249379336833954 57.191628217697144,24.249379336833954 57.69859552383423,26.008254289627075 57.69859552383423,26.008254289627075 57.6876699924469,27.785953879356384 57.6876699924469,27.785953879356384 57.20415115356445,29.47954535484314 57.20415115356445,29.47954535484314 56.29216432571411,30.985885858535767 56.29216432571411,30.985885858535767 54.996997117996216,32.20207393169403 54.996997117996216,32.20207393169403 53.36308479309082,33.024969696998596 53.36308479309082,33.024969696998596 51.686495542526245,33.333247900009155 51.686495542526245,33.333247900009155 50.027817487716675,33.190521597862244 50.027817487716675,33.190521597862244 48.47079813480377,32.638153433799744 48.47079813480377,32.638153433799744 47.098445892333984,31.71757161617279 47.098445892333984,31.71757161617279 45.994505286216736,30.47032356262207 45.994505286216736,30.47032356262207" stroke="white" stroke-width="0.1" /><polygon points="0.311083672568202,36.513298749923706 0.311083672568202,36.513298749923706 0.9039776399731636,35.33089756965637 0.9039776399731636,35.33089756965637 1.7425637692213058,34.35060679912567 1.7425637692213058,34.35060679912567 2.7814025059342384,33.59208405017853 2.7814025059342384,33.59208405017853 3.974035754799843,33.07492136955261 3.974035754799843,33.07492136955261 5.274732410907745,32.81874358654022 5.274732410907745,32.81874358654022 6.637616455554962,32.84321129322052 6.637616455554962,32.84321129322052 6.646355241537094,32.81757831573486 6.646355241537094,32.81757831573486 6.6537827253341675,32.791948318481445 6.6537827253341675,32.791948318481445 6.660772860050201,32.76631534099579 6.660772860050201,32.76631534099579 6.667618453502655,32.74068236351013 6.667618453502655,32.74068236351013 6.674754619598389,32.715049386024475 6.674754619598389,32.715049386024475 6.683056056499481,32.68941640853882 6.683056056499481,32.68941640853882 7.318039238452911,31.44035041332245 7.318039238452911,31.44035041332245 8.231338113546371,30.405879020690918 8.231338113546371,30.405879020690918 9.374890476465225,29.604214429855347 9.374890476465225,29.604214429855347 10.699909180402756,29.053407907485962 10.699909180402756,29.053407907485962 12.158332020044327,28.771597146987915 12.158332020044327,28.771597146987915 13.701662421226501,28.77698838710785 13.701662421226501,28.77698838710785 14.491023123264313,27.839693427085876 14.491023123264313,27.839693427085876 15.500152111053467,27.121150493621826 15.500152111053467,27.121150493621826 16.680987179279327,26.640179753303528 16.680987179279327,26.640179753303528 17.984451353549957,26.415497064590454 17.984451353549957,26.415497064590454 19.36233639717102,26.46596133708954 19.36233639717102,26.46596133708954 20.76570838689804,26.810285449028015 20.76570838689804,26.810285449028015 21.84503525495529,27.29628086090088 21.84503525495529,27.29628086090088 22.790373861789703,27.92929708957672 22.790373861789703,27.92929708957672 23.588180541992188,28.684651851654053 23.588180541992188,28.684651851654053 24.224621057510376,29.537656903266907 24.224621057510376,29.537656903266907 24.68658685684204,30.463698506355286 24.68658685684204,30.463698506355286 24.960094690322876,31.43809139728546 24.960094690322876,31.43809139728546 24.980629980564117,31.33421540260315 24.980629980564117,31.33421540260315 25.003349781036377,31.230083107948303 25.003349781036377,31.230083107948303 25.028982758522034,31.12584352493286 25.028982758522034,31.12584352493286 25.05708932876587,31.021565198898315 25.05708932876587,31.021565198898315 25.08869469165802,30.917435884475708 25.08869469165802,30.917435884475708 25.12320876121521,30.81359565258026 25.12320876121521,30.81359565258026 25.687122344970703,29.73295748233795 25.687122344970703,29.73295748233795 26.501241326332092,28.87096107006073 26.501241326332092,28.87096107006073 27.508914470672607,28.25327217578888 27.508914470672607,28.25327217578888 28.652319312095642,27.905449271202087 28.652319312095642,27.905449271202087 29.874810576438904,27.853238582611084 29.874810576438904,27.853238582611084 31.118851900100708,28.122195601463318 31.118851900100708,28.122195601463318 32.25454092025757,28.697940707206726 32.25454092025757,28.697940707206726 33.170461654663086,29.509365558624268 33.170461654663086,29.509365558624268 33.838650584220886,30.500471591949463 33.838650584220886,30.500471591949463 34.230855107307434,31.615224480628967 34.230855107307434,31.615224480628967 34.319403767585754,32.797771692276 34.319403767585754,32.797771692276 34.07589495182037,33.99200737476349 34.07589495182037,33.99200737476349 33.56397747993469,34.99767780303955 33.56397747993469,34.99767780303955 32.83505439758301,35.81794798374176 32.83505439758301,35.81794798374176 31.934428215026855,36.4329069852829 31.934428215026855,36.4329069852829 30.90665638446808,36.8225634098053 30.90665638446808,36.8225634098053 29.796892404556274,36.9671106338501 29.796892404556274,36.9671106338501 28.649988770484924,36.846521496772766 28.649988770484924,36.846521496772766 28.85271906852722,37.46297061443329 28.85271906852722,37.46297061443329 28.983065485954285,38.10112178325653 28.983065485954285,38.10112178325653 29.038116335868835,38.754674792289734 29.038116335868835,38.754674792289734 29.014232754707336,39.41732943058014 29.014232754707336,39.41732943058014 28.90835404396057,40.08282423019409 28.90835404396057,40.08282423019409 28.717565536499023,40.74496924877167 28.717565536499023,40.74496924877167 28.034231066703796,42.07563102245331 28.034231066703796,42.07563102245331 27.05918252468109,43.142759799957275 27.05918252468109,43.142759799957275 25.860285758972168,43.91435384750366 25.860285758972168,43.91435384750366 24.505266547203064,44.35829520225525 24.505266547203064,44.35829520225525 23.06213527917862,44.44272816181183 23.06213527917862,44.44272816181183 21.598760783672333,44.13543343544006 21.598760783672333,44.13543343544006 20.940765738487244,43.85274946689606 20.940765738487244,43.85274946689606 20.337823033332825,43.49669814109802 20.337823033332825,43.49669814109802 19.793280959129333,43.074601888656616 19.793280959129333,43.074601888656616 19.310343265533447,42.59381294250488 19.310343265533447,42.59381294250488 18.892216682434082,42.061832547187805 18.892216682434082,42.061832547187805 18.542683124542236,41.48597717285156 18.542683124542236,41.48597717285156 18.556664884090424,41.950783133506775 18.556664884090424,41.950783133506775 18.53947937488556,42.419084906578064 18.53947937488556,42.419084906578064 18.490545451641083,42.8893506526947 18.490545451641083,42.8893506526947 18.408988416194916,43.359944224357605 18.408988416194916,43.359944224357605 18.29480677843094,43.82944703102112 18.29480677843094,43.82944703102112 18.14654767513275,44.29621696472168 18.14654767513275,44.29621696472168 17.275629937648773,45.99021077156067 17.275629937648773,45.99021077156067 16.03304296731949,47.349125146865845 16.03304296731949,47.349125146865845 14.50573205947876,48.3318567276001 14.50573205947876,48.3318567276001 12.779916822910309,48.89722466468811 12.779916822910309,48.89722466468811 10.942397266626358,49.00427162647247 10.942397266626358,49.00427162647247 9.07968208193779,48.611775040626526 9.07968208193779,48.611775040626526 8.05496945977211,48.154616355895996 8.05496945977211,48.154616355895996 7.138612866401672,47.55902886390686 7.138612866401672,47.55902886390686 6.33905827999115,46.842268109321594 6.33905827999115,46.842268109321594 5.663295462727547,46.021559834480286 5.663295462727547,46.021559834480286 5.119336023926735,45.114341378211975 5.119336023926735,45.114341378211975 4.715189337730408,44.13776099681854 4.715189337730408,44.13776099681854 4.628388956189156,44.11420524120331 4.628388956189156,44.11420524120331 4.541151598095894,44.089919328689575 4.541151598095894,44.089919328689575 4.454059898853302,44.06465291976929 4.454059898853302,44.06465291976929 4.36667688190937,44.037964940071106 4.36667688190937,44.037964940071106 4.279293864965439,44.0096378326416 4.279293864965439,44.0096378326416 4.192056134343147,43.979308009147644 4.192056134343147,43.979308009147644 2.7189236134290695,43.23888123035431 2.7189236134290695,43.23888123035431 1.5267275273799896,42.202118039131165 1.5267275273799896,42.202118039131165 0.6528970319777727,40.94012677669525 0.6528970319777727,40.94012677669525 0.1341329887509346,39.523863792419434 0.1341329887509346,39.523863792419434 0.008010113378986716,38.02458941936493 0.008010113378986716,38.02458941936493" stroke="white" stroke-width="0.1" /><polygon points="24.953104555606842,33.10885727405548 24.953104555606842,33.10885727405548 24.940870702266693,33.171772956848145 24.940870702266693,33.171772956848145 24.927471578121185,33.23468863964081 24.927471578121185,33.23468863964081 24.913199245929718,33.29760432243347 24.913199245929718,33.29760432243347 24.897761642932892,33.36048424243927 24.897761642932892,33.36048424243927 24.881450831890106,33.4234356880188 24.881450831890106,33.4234356880188 24.86455589532852,33.48635137081146 24.86455589532852,33.48635137081146 24.897179007530212,33.49599838256836 24.897179007530212,33.49599838256836 24.929511547088623,33.50612223148346 24.929511547088623,33.50612223148346 24.961988627910614,33.516353368759155 24.961988627910614,33.516353368759155 24.994319677352905,33.52636396884918 24.994319677352905,33.52636396884918 25.027233362197876,33.53593945503235 25.027233362197876,33.53593945503235 25.060293078422546,33.54460597038269 25.060293078422546,33.54460597038269 25.039759278297424,33.473169803619385 25.039759278297424,33.473169803619385 25.02009868621826,33.40108096599579 25.02009868621826,33.40108096599579 25.00145733356476,33.328479528427124 25.00145733356476,33.328479528427124 24.983833730220795,33.25543999671936 24.983833730220795,33.25543999671936 24.96781349182129,33.18222165107727 24.96781349182129,33.18222165107727" stroke="white" stroke-width="0.1" /><polygon points="23.10407906770706,48.79586100578308 23.10407906770706,48.79586100578308 24.914947152137756,48.284271359443665 24.914947152137756,48.284271359443665 26.598235964775085,47.49006628990173 26.598235964775085,47.49006628990173 28.123506903648376,46.43360674381256 28.123506903648376,46.43360674381256 29.459449648857117,45.1351672410965 29.459449648857117,45.1351672410965 30.576059222221375,43.615102767944336 30.576059222221375,43.615102767944336 31.441587209701538,41.893765330314636 31.441587209701538,41.893765330314636 31.508871912956238,41.72329604625702 31.508871912956238,41.72329604625702 31.57309889793396,41.55198931694031 31.57309889793396,41.55198931694031 31.634414196014404,41.3799524307251 31.634414196014404,41.3799524307251 31.692376732826233,41.20708107948303 31.692376732826233,41.20708107948303 31.747427582740784,41.03351533412933 31.747427582740784,41.03351533412933 31.799274682998657,40.859150886535645 31.799274682998657,40.859150886535645 32.94064402580261,40.25489687919617 32.94064402580261,40.25489687919617 33.99331867694855,39.514943957328796 33.99331867694855,39.514943957328796 34.94535684585571,38.64777684211731 34.94535684585571,38.64777684211731 35.7839435338974,37.661731243133545 35.7839435338974,37.661731243133545 36.49728000164032,36.56529188156128 36.49728000164032,36.56529188156128 37.072551250457764,35.366833209991455 37.072551250457764,35.366833209991455 37.07954287528992,35.34702658653259 37.07954287528992,35.34702658653259 37.08595037460327,35.32721996307373 37.08595037460327,35.32721996307373 37.092503905296326,35.30741333961487 37.092503905296326,35.30741333961487 37.09905743598938,35.28757095336914 37.09905743598938,35.28757095336914 37.10590302944183,35.267800092697144 37.10590302944183,35.267800092697144 37.11332976818085,35.24799346923828 37.11332976818085,35.24799346923828 40.325531363487244,33.45838785171509 40.325531363487244,33.45838785171509 40.44990539550781,33.477866649627686 40.44990539550781,33.477866649627686 40.57384431362152,33.49687457084656 40.57384431362152,33.49687457084656 40.69792926311493,33.515769243240356 40.69792926311493,33.515769243240356 40.8223032951355,33.534812927246094 40.8223032951355,33.534812927246094 40.947699546813965,33.55443775653839 40.947699546813965,33.55443775653839 41.07469618320465,33.57490003108978 41.07469618320465,33.57490003108978 44.156405329704285,34.05492305755615 44.156405329704285,34.05492305755615 45.090967416763306,34.675997495651245 45.090967416763306,34.675997495651245 46.084949374198914,35.194215178489685 46.084949374198914,35.194215178489685 47.12932109832764,35.605388879776 47.12932109832764,35.605388879776 48.21461737155914,35.90525984764099 48.21461737155914,35.90525984764099 49.33268427848816,36.089709401130676 49.33268427848816,36.089709401130676 50.473618507385254,36.15444600582123 50.473618507385254,36.15444600582123 50.494587421417236,36.15444600582123 50.494587421417236,36.15444600582123 51.02645754814148,36.14053726196289 51.02645754814148,36.14053726196289 51.56095027923584,36.09844744205475 51.56095027923584,36.09844744205475 52.097487449645996,36.02744936943054 52.097487449645996,36.02744936943054 52.634161710739136,35.92692315578461 52.634161710739136,35.92692315578461 53.17084193229675,35.79624891281128 53.17084193229675,35.79624891281128 53.70562672615051,35.634809732437134 53.70562672615051,35.634809732437134 55.03355264663696,35.08484065532684 55.03355264663696,35.08484065532684 56.24104142189026,34.382280707359314 56.24104142189026,34.382280707359314 57.32269883155823,33.54314863681793 57.32269883155823,33.54314863681793 58.272117376327515,32.58339166641235 58.272117376327515,32.58339166641235 59.083616733551025,31.5191388130188 59.083616733551025,31.5191388130188 59.75136756896973,30.366194248199463 59.75136756896973,30.366194248199463 61.41980290412903,29.716062545776367 61.41980290412903,29.716062545776367 63.33756446838379,28.991803526878357 63.33756446838379,28.991803526878357 65.2658224105835,28.30187678337097 65.2658224105835,28.30187678337097 67.20528602600098,27.644211053848267 67.20528602600098,27.644211053848267 69.15625929832458,27.016618847846985 69.15625929832458,27.016618847846985 71.1200475692749,26.416990160942078 71.1200475692749,26.416990160942078 73.09650778770447,25.843247771263123 73.09650778770447,25.843247771263123 73.09650778770447,48.79586100578308 73.09650778770447,48.79586100578308" stroke="white" stroke-width="0.1" /></svg>