<?xml version="1.0" encoding="utf-8" ?>
<svg baseProfile="full" height="56.50390982627869" version="1.1" width="100.0" xmlns="http://www.w3.org/2000/svg" xmlns:ev="http://www.w3.org/2001/xml-events" xmlns:xlink="http://www.w3.org/1999/xlink"><defs><clipPath /></defs><polygon points="27.473756670951843,0.0 27.473756670951843,0.0 27.473756670951843,3.458252176642418 27.473756670951843,3.458252176642418 25.6927490234375,5.83980567753315 25.6927490234375,5.83980567753315 24.22424405813217,8.433227986097336 24.22424405813217,8.433227986097336 23.071061074733734,11.23550459742546 23.071061074733734,11.23550459742546 22.23590910434723,14.243774116039276 22.23590910434723,14.243774116039276 21.721553802490234,17.455139756202698 21.721553802490234,17.455139756202698 21.530762314796448,20.866699516773224 21.530762314796448,20.866699516773224 21.489258110523224,25.8056640625 21.489258110523224,25.8056640625 26.430663466453552,25.820311903953552 26.430663466453552,25.820311903953552 27.473756670951843,25.823974609375 27.473756670951843,25.823974609375 27.473756670951843,38.287353515625 27.473756670951843,38.287353515625 26.941242814064026,38.98250758647919 26.941242814064026,38.98250758647919 26.434478163719177,39.68242704868317 26.434478163719177,39.68242704868317 25.95359981060028,40.386962890625 25.95359981060028,40.386962890625 25.4986971616745,41.09596312046051 25.4986971616745,41.09596312046051 25.06992518901825,41.809311509132385 25.06992518901825,41.809311509132385 24.6673583984375,42.52685606479645 24.6673583984375,42.52685606479645 23.67481291294098,44.5517361164093 23.67481291294098,44.5517361164093 22.83092588186264,46.68239653110504 22.83092588186264,46.68239653110504 22.136612236499786,48.91510009765625 22.136612236499786,48.91510009765625 21.592675149440765,51.24603509902954 21.592675149440765,51.24603509902954 21.20002806186676,53.671497106552124 21.20002806186676,53.671497106552124 20.95947265625,56.187742948532104 20.95947265625,56.187742948532104 20.936278998851776,56.50390982627869 20.936278998851776,56.50390982627869 13.19580078125,56.50390982627869 13.19580078125,56.50390982627869 13.19580078125,19.394531846046448 13.19580078125,19.394531846046448 0.0,19.394531846046448 0.0,19.394531846046448 0.0,10.397949069738388 0.0,10.397949069738388 1.1608886532485485,10.397949069738388 1.1608886532485485,10.397949069738388 3.5206984728574753,10.329017788171768 3.5206984728574753,10.329017788171768 5.6701090186834335,10.122375935316086 5.6701090186834335,10.122375935316086 7.608795166015625,9.777984768152237 7.608795166015625,9.777984768152237 9.336395561695099,9.295692294836044 9.336395561695099,9.295692294836044 10.852565616369247,8.675537258386612 10.852565616369247,8.675537258386612 12.156982719898224,7.917480915784836 12.156982719898224,7.917480915784836 13.270683586597443,7.009201496839523 13.270683586597443,7.009201496839523 14.210319519042969,5.936126783490181 14.210319519042969,5.936126783490181 14.976273477077484,4.698486253619194 14.976273477077484,4.698486253619194 15.568923950195312,3.2964326441287994 15.568923950195312,3.2964326441287994 15.988712012767792,1.730194129049778 15.988712012767792,1.730194129049778 16.235962510108948,0.0 16.235962510108948,0.0" stroke="white" stroke-width="0.1" /><polygon points="32.05932676792145,5.675048753619194 32.05932676792145,5.675048753619194 34.00753140449524,3.940735012292862 34.00753140449524,3.940735012292862 36.159515380859375,2.5218963623046875 36.159515380859375,2.5218963623046875 38.5153204202652,1.4184570871293545 38.5153204202652,1.4184570871293545 41.07498228549957,0.6303405854851007 41.07498228549957,0.6303405854851007 43.838539719581604,0.1575469970703125 43.838539719581604,0.1575469970703125 46.806031465530396,0.0 46.806031465530396,0.0 49.24991726875305,0.09349823230877519 49.24991726875305,0.09349823230877519 51.56165957450867,0.3733444260433316 51.56165957450867,0.3733444260433316 53.741759061813354,0.838470458984375 53.741759061813354,0.838470458984375 55.79059720039368,1.4877701178193092 55.79059720039368,1.4877701178193092 57.708704471588135,2.3202896118164062 57.708704471588135,2.3202896118164062 59.49646234512329,3.334961086511612 59.49646234512329,3.334961086511612 58.141785860061646,5.230140686035156 58.141785860061646,5.230140686035156 57.01645016670227,7.284431904554367 57.01645016670227,7.284431904554367 56.12289309501648,9.496765583753586 56.12289309501648,9.496765583753586 55.463600158691406,11.865921318531036 55.463600158691406,11.865921318531036 55.04108667373657,14.39083069562912 55.04108667373657,14.39083069562912 54.85779047012329,17.070312798023224 54.85779047012329,17.070312798023224 54.74304556846619,22.080078721046448 54.74304556846619,22.080078721046448 59.75708365440369,22.0947265625 59.75708365440369,22.0947265625 66.84631705284119,22.116699814796448 66.84631705284119,22.116699814796448 66.68834686279297,22.76092618703842 66.68834686279297,22.76092618703842 66.5079116821289,23.394623398780823 66.5079116821289,23.394623398780823 66.30477905273438,24.01779145002365 66.30477905273438,24.01779145002365 66.07874035835266,24.63020384311676 66.07874035835266,24.63020384311676 65.82964062690735,25.23193359375 65.82964062690735,25.23193359375 65.55725336074829,25.822755694389343 65.55725336074829,25.822755694389343 64.91543054580688,27.014467120170593 64.91543054580688,27.014467120170593 64.14238214492798,28.223800659179688 64.14238214492798,28.223800659179688 63.23844790458679,29.450836777687073 63.23844790458679,29.450836777687073 62.20383048057556,30.69538176059723 62.20383048057556,30.69538176059723 61.03882193565369,31.957587599754333 61.03882193565369,31.957587599754333 59.74365472793579,33.23730528354645 59.74365472793579,33.23730528354645 58.89831781387329,33.23730528354645 58.89831781387329,33.23730528354645 53.94226312637329,33.23730528354645 53.94226312637329,33.23730528354645 53.9825439453125,37.81006038188934 53.9825439453125,37.81006038188934 53.67584228515625,38.028642535209656 53.67584228515625,38.028642535209656 53.36427688598633,38.25004696846008 53.36427688598633,38.25004696846008 53.0469536781311,38.474732637405396 53.0469536781311,38.474732637405396 52.72294878959656,38.70304226875305 52.72294878959656,38.70304226875305 52.39139795303345,38.93543183803558 52.39139795303345,38.93543183803558 52.05139517784119,39.17236328125 52.05139517784119,39.17236328125 50.36354064941406,40.37162959575653 50.36354064941406,40.37162959575653 48.84811341762543,41.50833189487457 48.84811341762543,41.50833189487457 47.50526547431946,42.58255064487457 47.50526547431946,42.58255064487457 46.33518159389496,43.59416961669922 46.33518159389496,43.59416961669922 45.33809721469879,44.543227553367615 45.33809721469879,44.543227553367615 44.514161348342896,45.429688692092896 44.514161348342896,45.429688692092896 54.929810762405396,45.429688692092896 54.929810762405396,45.429688692092896 55.5367112159729,47.344017028808594 55.5367112159729,47.344017028808594 56.29190802574158,49.15397763252258 56.29190802574158,49.15397763252258 57.195740938186646,50.85815787315369 57.195740938186646,50.85815787315369 58.24848413467407,52.454835176467896 58.24848413467407,52.454835176467896 59.45047736167908,53.942567110061646 59.45047736167908,53.942567110061646 60.802000761032104,55.31982779502869 60.802000761032104,55.31982779502869 61.030733585357666,55.5270791053772 61.030733585357666,55.5270791053772 61.26405596733093,55.72933554649353 61.26405596733093,55.72933554649353 61.501312255859375,55.92743158340454 61.501312255859375,55.92743158340454 61.741697788238525,56.121981143951416 61.741697788238525,56.121981143951416 61.98452115058899,56.31393790245056 61.98452115058899,56.31393790245056 62.22900748252869,56.50390982627869 62.22900748252869,56.50390982627869 27.473756670951843,56.50390982627869 27.473756670951843,56.50390982627869 25.861206650733948,56.50390982627869 25.861206650733948,56.50390982627869 26.0672390460968,54.33441400527954 26.0672390460968,54.33441400527954 26.399117708206177,52.25688815116882 26.399117708206177,52.25688815116882 26.857072114944458,50.271302461624146 26.857072114944458,50.271302461624146 27.441197633743286,48.377418518066406 27.441197633743286,48.377418518066406 28.15166413784027,46.57520353794098 28.15166413784027,46.57520353794098 28.9886474609375,44.86450254917145 28.9886474609375,44.86450254917145 29.972878098487854,43.212890625 29.972878098487854,43.212890625 31.124457716941833,41.58577024936676 31.124457716941833,41.58577024936676 32.44331479072571,39.9832159280777 32.44331479072571,39.9832159280777 33.929443359375,38.40522766113281 33.929443359375,38.40522766113281 35.58286726474762,36.851999163627625 35.58286726474762,36.851999163627625 37.403565645217896,35.32348573207855 37.403565645217896,35.32348573207855 38.04956376552582,34.82852876186371 38.04956376552582,34.82852876186371 38.798561692237854,34.275054931640625 38.798561692237854,34.275054931640625 39.65049684047699,33.663177490234375 39.65049684047699,33.663177490234375 40.60531556606293,32.99297392368317 40.60531556606293,32.99297392368317 41.662999987602234,32.264670729637146 41.662999987602234,32.264670729637146 42.823487520217896,31.478270888328552 42.823487520217896,31.478270888328552 43.97941529750824,30.69305419921875 43.97941529750824,30.69305419921875 45.024070143699646,29.97058928012848 45.024070143699646,29.97058928012848 45.9573358297348,29.310914874076843 45.9573358297348,29.310914874076843 46.779099106788635,28.713837265968323 46.779099106788635,28.713837265968323 47.48928248882294,28.17939817905426 47.48928248882294,28.17939817905426 48.087769746780396,27.707520127296448 48.087769746780396,27.707520127296448 48.96951615810394,26.94225311279297 48.96951615810394,26.94225311279297 49.773311614990234,26.173478364944458 49.773311614990234,26.173478364944458 50.499117374420166,25.40130615234375 50.499117374420166,25.40130615234375 51.146888732910156,24.625587463378906 51.146888732910156,24.625587463378906 51.71661376953125,23.846550285816193 51.71661376953125,23.846550285816193 52.208250761032104,23.063965141773224 52.208250761032104,23.063965141773224 52.623409032821655,22.27611541748047 52.623409032821655,22.27611541748047 52.963560819625854,21.481017768383026 52.963560819625854,21.481017768383026 53.22853326797485,20.6787109375 53.22853326797485,20.6787109375 53.41804623603821,19.869041442871094 53.41804623603821,19.869041442871094 53.531914949417114,19.052009284496307 53.531914949417114,19.052009284496307 53.56994867324829,18.22753995656967 53.56994867324829,18.22753995656967 53.52012515068054,17.06714630126953 53.52012515068054,17.06714630126953 53.370726108551025,15.997962653636932 53.370726108551025,15.997962653636932 53.12187075614929,15.019837021827698 53.12187075614929,15.019837021827698 52.77366638183594,14.132653176784515 52.77366638183594,14.132653176784515 52.32627987861633,13.336257636547089 52.32627987861633,13.336257636547089 51.77978873252869,12.630616128444672 51.77978873252869,12.630616128444672 51.14368796348572,12.02518492937088 51.14368796348572,12.02518492937088 50.42511224746704,11.529617756605148 50.42511224746704,11.529617756605148 49.62425231933594,11.144103854894638 49.62425231933594,11.144103854894638 48.7413614988327,10.868606716394424 48.7413614988327,10.868606716394424 47.77664244174957,10.703277587890625 47.77664244174957,10.703277587890625 46.73034846782684,10.648193210363388 46.73034846782684,10.648193210363388 45.56148648262024,10.72002425789833 45.56148648262024,10.72002425789833 44.49213147163391,10.935516655445099 44.49213147163391,10.935516655445099 43.522414565086365,11.294708400964737 43.522414565086365,11.294708400964737 42.65241622924805,11.797600239515305 42.65241622924805,11.797600239515305 41.882285475730896,12.444305419921875 41.882285475730896,12.444305419921875 41.212159395217896,13.234864175319672 41.212159395217896,13.234864175319672 40.641576051712036,14.166183769702911 40.641576051712036,14.166183769702911 40.17486572265625,15.23895263671875 40.17486572265625,15.23895263671875 39.81201350688934,16.453246772289276 39.81201350688934,16.453246772289276 39.552879333496094,17.809104919433594 39.552879333496094,17.809104919433594 39.39746916294098,19.30667906999588 39.39746916294098,19.30667906999588 39.34570252895355,20.946045219898224 39.34570252895355,20.946045219898224 26.444092392921448,20.908203721046448 26.444092392921448,20.908203721046448 26.62118971347809,17.829589545726776 26.62118971347809,17.829589545726776 27.101823687553406,14.966927468776703 27.101823687553406,14.966927468776703 27.88597047328949,12.320251762866974 27.88597047328949,12.320251762866974 28.973600268363953,9.889373928308487 28.973600268363953,9.889373928308487 30.36472499370575,7.674331963062286 30.36472499370575,7.674331963062286" stroke="white" stroke-width="0.1" /><polygon points="97.9382336139679,31.09130859375 97.9382336139679,31.09130859375 98.56843948364258,32.232171297073364 98.56843948364258,32.232171297073364 99.08391833305359,33.447763323783875 99.08391833305359,33.447763323783875 99.48478937149048,34.7381591796875 99.48478937149048,34.7381591796875 99.77104067802429,36.10340058803558 99.77104067802429,36.10340058803558 99.94276165962219,37.54360377788544 99.94276165962219,37.54360377788544 100.0,39.05883729457855 100.0,39.05883729457855 99.84127283096313,41.6513055562973 99.84127283096313,41.6513055562973 99.36504364013672,44.05723512172699 99.36504364013672,44.05723512172699 98.57139587402344,46.276551485061646 98.57139587402344,46.276551485061646 97.46026992797852,48.30879271030426 97.46026992797852,48.30879271030426 96.03180289268494,50.15392303466797 96.03180289268494,50.15392303466797 94.2858874797821,51.811522245407104 94.2858874797821,51.811522245407104 92.26825833320618,53.24546694755554 92.26825833320618,53.24546694755554 90.02283215522766,54.41856384277344 90.02283215522766,54.41856384277344 87.54982352256775,55.33096194267273 87.54982352256775,55.33096194267273 84.84935760498047,55.98258972167969 84.84935760498047,55.98258972167969 81.92175030708313,56.37359619140625 81.92175030708313,56.37359619140625 78.7670910358429,56.50390982627869 78.7670910358429,56.50390982627869 75.73333978652954,56.370967626571655 75.73333978652954,56.370967626571655 72.93807864189148,55.97202181816101 72.93807864189148,55.97202181816101 70.38124203681946,55.307161808013916 70.38124203681946,55.307161808013916 68.06266903877258,54.376220703125 68.06266903877258,54.376220703125 65.98232388496399,53.17928194999695 65.98232388496399,53.17928194999695 64.1400158405304,51.716309785842896 64.1400158405304,51.716309785842896 62.56019473075867,50.00995993614197 62.56019473075867,50.00995993614197 61.26262545585632,48.08177947998047 61.26262545585632,48.08177947998047 60.247498750686646,45.931702852249146 60.247498750686646,45.931702852249146 59.51492190361023,43.55964660644531 59.51492190361023,43.55964660644531 59.06515121459961,40.96553921699524 59.06515121459961,40.96553921699524 58.89831781387329,38.14941346645355 58.89831781387329,38.14941346645355 71.76575064659119,38.14941346645355 71.76575064659119,38.14941346645355 71.84257507324219,39.3972784280777 71.84257507324219,39.3972784280777 72.02281951904297,40.54199159145355 72.02281951904297,40.54199159145355 72.30636477470398,41.58371090888977 72.30636477470398,41.58371090888977 72.69293069839478,42.5222784280777 72.69293069839478,42.5222784280777 73.18233847618103,43.35792660713196 73.18233847618103,43.35792660713196 73.7744152545929,44.09057796001434 73.7744152545929,44.09057796001434 74.46533441543579,44.714584946632385 74.46533441543579,44.714584946632385 75.253164768219,45.225295424461365 75.253164768219,45.225295424461365 76.13784670829773,45.62271237373352 76.13784670829773,45.62271237373352 77.11925506591797,45.9066778421402 77.11925506591797,45.9066778421402 78.19733023643494,46.07715606689453 78.19733023643494,46.07715606689453 79.3719470500946,46.13403379917145 79.3719470500946,46.13403379917145 80.4237961769104,46.08043730258942 80.4237961769104,46.08043730258942 81.40543103218079,45.919570326805115 81.40543103218079,45.919570326805115 82.31720328330994,45.65155208110809 82.31720328330994,45.65155208110809 83.15935134887695,45.27622163295746 83.15935134887695,45.27622163295746 83.93228650093079,44.793739914894104 83.93228650093079,44.793739914894104 84.6362292766571,44.20410096645355 84.6362292766571,44.20410096645355 85.2481484413147,43.52714717388153 85.2481484413147,43.52714717388153 85.74897646903992,42.78278350830078 85.74897646903992,42.78278350830078 86.13868951797485,41.97113215923309 86.13868951797485,41.97113215923309 86.41712069511414,41.09207093715668 86.41712069511414,41.09207093715668 86.58426403999329,40.14576077461243 86.58426403999329,40.14576077461243 86.64001822471619,39.13207948207855 86.64001822471619,39.13207948207855 86.57341003417969,37.9721075296402 86.57341003417969,37.9721075296402 86.37344241142273,36.91284358501434 86.37344241142273,36.91284358501434 86.03996634483337,35.95428466796875 86.03996634483337,35.95428466796875 85.57273745536804,35.096436738967896 85.57273745536804,35.096436738967896 84.97166037559509,34.33925807476044 84.97166037559509,34.33925807476044 84.2364490032196,33.68286192417145 84.2364490032196,33.68286192417145 83.36685299873352,33.127862215042114 83.36685299873352,33.127862215042114 82.35946893692017,32.67372250556946 82.35946893692017,32.67372250556946 81.21429681777954,32.32055604457855 81.21429681777954,32.32055604457855 79.93114590644836,32.06821382045746 79.93114590644836,32.06821382045746 78.50998044013977,31.916886568069458 78.50998044013977,31.916886568069458 76.95068717002869,31.866455078125 76.95068717002869,31.866455078125 75.81726312637329,31.866455078125 75.81726312637329,31.866455078125 75.81726312637329,22.783203423023224 75.81726312637329,22.783203423023224 76.7230212688446,22.783203423023224 76.7230212688446,22.783203423023224 78.13865542411804,22.736358642578125 78.13865542411804,22.736358642578125 79.43086624145508,22.595825791358948 79.43086624145508,22.595825791358948 80.59982657432556,22.36175537109375 80.59982657432556,22.36175537109375 81.64554834365845,22.034302353858948 81.64554834365845,22.034302353858948 82.56824612617493,21.6136172413826 82.56824612617493,21.6136172413826 83.367919921875,21.099853515625 83.367919921875,21.099853515625 84.04392600059509,20.491638779640198 84.04392600059509,20.491638779640198 84.59722399711609,19.790001213550568 84.59722399711609,19.790001213550568 85.02777218818665,18.994903564453125 85.02777218818665,18.994903564453125 85.33539175987244,18.10626983642578 85.33539175987244,18.10626983642578 85.52005887031555,17.12421476840973 85.52005887031555,17.12421476840973 85.5816662311554,16.04858487844467 85.5816662311554,16.04858487844467 85.5358898639679,15.123330056667328 85.5358898639679,15.123330056667328 85.39857864379883,14.265213906764984 85.39857864379883,14.265213906764984 85.1697564125061,13.474427163600922 85.1697564125061,13.474427163600922 84.84941720962524,12.750931084156036 84.84941720962524,12.750931084156036 84.43760275840759,12.094879150390625 84.43760275840759,12.094879150390625 83.9343249797821,11.506348103284836 83.9343249797821,11.506348103284836 83.35256576538086,10.997314751148224 83.35256576538086,10.997314751148224 82.70463943481445,10.5809785425663 82.70463943481445,10.5809785425663 81.99058771133423,10.257263481616974 81.99058771133423,10.257263481616974 81.2103271484375,10.026092827320099 81.2103271484375,10.026092827320099 80.36392331123352,9.887466579675674 80.36392331123352,9.887466579675674 79.4512927532196,9.841308742761612 79.4512927532196,9.841308742761612 78.36027145385742,9.891815483570099 78.36027145385742,9.891815483570099 77.35835909843445,10.043106228113174 77.35835909843445,10.043106228113174 76.44569277763367,10.295257717370987 76.44569277763367,10.295257717370987 75.62238574028015,10.648231953382492 75.62238574028015,10.648231953382492 74.88857507705688,11.101990193128586 74.88857507705688,11.101990193128586 74.2443859577179,11.656494438648224 74.2443859577179,11.656494438648224 73.68850708007812,12.315674126148224 73.68850708007812,12.315674126148224 73.21726083755493,13.082198798656464 73.21726083755493,13.082198798656464 72.83088564872742,13.955993950366974 72.83088564872742,13.955993950366974 72.52960205078125,14.936982095241547 72.52960205078125,14.936982095241547 72.31365442276001,16.025161743164062 72.31365442276001,16.025161743164062 72.1832275390625,17.22045987844467 72.1832275390625,17.22045987844467 59.769898653030396,17.182616889476776 59.769898653030396,17.182616889476776 59.97200012207031,14.548225700855255 59.97200012207031,14.548225700855255 60.45307517051697,12.1210478246212 60.45307517051697,12.1210478246212 61.21299862861633,9.901123493909836 61.21299862861633,9.901123493909836 62.25156784057617,7.888221740722656 62.25156784057617,7.888221740722656 63.568687438964844,6.0824204236269 63.568687438964844,6.0824204236269 65.1641845703125,4.483642801642418 65.1641845703125,4.483642801642418 67.01515316963196,3.1134797260165215 67.01515316963196,3.1134797260165215 69.09815073013306,1.9925309345126152 69.09815073013306,1.9925309345126152 71.41327261924744,1.120758056640625 71.41327261924744,1.120758056640625 73.96051287651062,0.49804686568677425 73.96051287651062,0.49804686568677425 76.73994302749634,0.12451171642169356 76.73994302749634,0.12451171642169356 79.7515869140625,0.0 79.7515869140625,0.0 82.48390555381775,0.11039733653888106 82.48390555381775,0.11039733653888106 85.02615094184875,0.44151307083666325 85.02615094184875,0.44151307083666325 87.37877011299133,0.9934998117387295 87.37877011299133,0.9934998117387295 89.5421028137207,1.7662812024354935 89.5421028137207,1.7662812024354935 91.5165901184082,2.7599716559052467 91.5165901184082,2.7599716559052467 93.3026134967804,3.974609449505806 93.3026134967804,3.974609449505806 94.85198855400085,5.372657999396324 94.85198855400085,5.372657999396324 96.11984491348267,6.917762756347656 96.11984491348267,6.917762756347656 97.10617065429688,8.610077202320099 97.10617065429688,8.610077202320099 97.81078696250916,10.449524223804474 97.81078696250916,10.449524223804474 98.23366403579712,12.436294555664062 98.23366403579712,12.436294555664062 98.3746349811554,14.570312201976776 98.3746349811554,14.570312201976776 98.32984805107117,15.735702216625214 98.32984805107117,15.735702216625214 98.19555282592773,16.85997098684311 98.19555282592773,16.85997098684311 97.97195792198181,17.9432675242424 97.97195792198181,17.9432675242424 97.65909314155579,18.98552030324936 97.65909314155579,18.98552030324936 97.25719690322876,19.986800849437714 97.25719690322876,19.986800849437714 96.7663586139679,20.947265625 96.7663586139679,20.947265625 96.18229269981384,21.872062981128693 96.18229269981384,21.872062981128693 95.50489783287048,22.766418755054474 95.50489783287048,22.766418755054474 94.73434686660767,23.630371689796448 94.73434686660767,23.630371689796448 93.87069940567017,24.463768303394318 93.87069940567017,24.463768303394318 92.91410446166992,25.266608595848083 92.91410446166992,25.266608595848083 91.86462759971619,26.038819551467896 91.86462759971619,26.038819551467896 93.14700961112976,26.662826538085938 93.14700961112976,26.662826538085938 94.32142376899719,27.373963594436646 94.32142376899719,27.373963594436646 95.38780450820923,28.17230224609375 95.38780450820923,28.17230224609375 96.34607434272766,29.057884216308594 96.34607434272766,29.057884216308594 97.19623923301697,30.030900239944458 97.19623923301697,30.030900239944458" stroke="white" stroke-width="0.1" /></svg>