<?xml version="1.0" encoding="utf-8" ?>
<svg baseProfile="full" height="83.27497839927673" version="1.1" width="100.0" xmlns="http://www.w3.org/2000/svg" xmlns:ev="http://www.w3.org/2001/xml-events" xmlns:xlink="http://www.w3.org/1999/xlink"><defs><clipPath /></defs><polygon points="26.771530508995056,0.0 26.771530508995056,0.0 26.396843791007996,3.089904598891735 26.396843791007996,3.089904598891735 25.591641664505005,5.982795357704163 25.591641664505005,5.982795357704163 24.293304979801178,8.530214428901672 24.293304979801178,8.530214428901672 22.43902236223221,10.58320477604866 22.43902236223221,10.58320477604866 19.966979324817657,11.993408203125 19.966979324817657,11.993408203125 16.813962161540985,12.61206716299057 16.813962161540985,12.61206716299057 17.014366388320923,9.050167351961136 17.014366388320923,9.050167351961136 18.05267632007599,6.326472759246826 18.05267632007599,6.326472759246826 19.738459587097168,4.250550642609596 19.738459587097168,4.250550642609596 21.880485117435455,2.63126939535141 21.880485117435455,2.63126939535141 24.288518726825714,1.2779967859387398 24.288518726825714,1.2779967859387398" stroke="white" stroke-width="0.1" /><polygon points="12.38873153924942,18.80483776330948 12.38873153924942,18.80483776330948 11.762595176696777,18.53184998035431 11.762595176696777,18.53184998035431 11.127285659313202,17.8207665681839 11.127285659313202,17.8207665681839 10.533852130174637,16.871990263462067 10.533852130174637,16.871990263462067 10.032942146062851,15.885725617408752 10.032942146062851,15.885725617408752 9.67620387673378,15.06277471780777 9.67620387673378,15.06277471780777 9.514086693525314,14.602942764759064 9.514086693525314,14.602942764759064 9.282775223255157,12.324722111225128 9.282775223255157,12.324722111225128 9.535422921180725,10.156375169754028 9.535422921180725,10.156375169754028 10.122276842594147,8.112657070159912 10.122276842594147,8.112657070159912 10.893182456493378,6.208125129342079 10.893182456493378,6.208125129342079 11.698585748672485,4.457833617925644 11.698585748672485,4.457833617925644 12.38873153924942,2.876240387558937 12.38873153924942,2.876240387558937 13.287457823753357,4.27158810198307 13.287457823753357,4.27158810198307 14.23104852437973,6.035538390278816 14.23104852437973,6.035538390278816 15.059982240200043,8.081549406051636 15.059982240200043,8.081549406051636 15.615130960941315,10.322480648756027 15.615130960941315,10.322480648756027 15.736967325210571,12.672089040279388 15.736967325210571,12.672089040279388 15.266567468643188,15.043231844902039 15.266567468643188,15.043231844902039 14.948314428329468,15.719619393348694 14.948314428329468,15.719619393348694 14.449599385261536,16.526418924331665 14.449599385261536,16.526418924331665 13.857561349868774,17.351163923740387 13.857561349868774,17.351163923740387 13.258743286132812,18.08079183101654 13.258743286132812,18.08079183101654 12.740086019039154,18.603038787841797 12.740086019039154,18.603038787841797" stroke="white" stroke-width="0.1" /><polygon points="24.780653417110443,11.504961550235748 24.780653417110443,11.504961550235748 24.168874323368073,14.321380853652954 24.168874323368073,14.321380853652954 23.202550411224365,17.015960812568665 23.202550411224365,17.015960812568665 21.777990460395813,19.39946860074997 21.777990460395813,19.39946860074997 19.791501760482788,21.28206640481949 19.791501760482788,21.28206640481949 17.139792442321777,22.475016117095947 17.139792442321777,22.475016117095947 13.719172775745392,22.788183391094208 13.719172775745392,22.788183391094208 14.14630115032196,19.49259042739868 14.14630115032196,19.49259042739868 15.35969078540802,16.98216199874878 15.35969078540802,16.98216199874878 17.19443053007126,15.092884004116058 17.19443053007126,15.092884004116058 19.4858118891716,13.659749925136566 19.4858118891716,13.659749925136566 22.06932306289673,12.518645823001862 22.06932306289673,12.518645823001862" stroke="white" stroke-width="0.1" /><polygon points="9.293941408395767,30.531540513038635 9.293941408395767,30.531540513038635 7.056599855422974,29.18943464756012 7.056599855422974,29.18943464756012 5.627452954649925,26.984694600105286 5.627452954649925,26.984694600105286 4.905800521373749,24.192604422569275 4.905800521373749,24.192604422569275 4.790344089269638,21.088142693042755 4.790344089269638,21.088142693042755 5.180782452225685,17.94659197330475 5.180782452225685,17.94659197330475 5.975816398859024,15.043231844902039 5.975816398859024,15.043231844902039 7.845452427864075,16.804490983486176 7.845452427864075,16.804490983486176 9.454464167356491,19.19737011194229 9.454464167356491,19.19737011194229 10.603245347738266,21.994146704673767 10.603245347738266,21.994146704673767 11.092190444469452,24.967199563980103 11.092190444469452,24.967199563980103 10.722490400075912,27.88890302181244 10.722490400075912,27.88890302181244" stroke="white" stroke-width="0.1" /><polygon points="18.80483776330948,22.56644368171692 18.80483776330948,22.56644368171692 18.832555413246155,25.947582721710205 18.832555413246155,25.947582721710205 18.365345895290375,29.067397117614746 18.365345895290375,29.067397117614746 17.36791431903839,31.804552674293518 17.36791431903839,31.804552674293518 15.804965794086456,34.03750658035278 15.804965794086456,34.03750658035278 13.641005754470825,35.6450229883194 13.641005754470825,35.6450229883194 10.841336846351624,36.50576174259186 10.841336846351624,36.50576174259186 10.523083806037903,33.07178020477295 10.523083806037903,33.07178020477295 11.161185055971146,30.18876016139984 11.161185055971146,30.18876016139984 12.531906366348267,27.77673900127411 12.531906366348267,27.77673900127411 14.411711692810059,25.75555145740509 14.411711692810059,25.75555145740509 16.57726764678955,24.045442044734955 16.57726764678955,24.045442044734955" stroke="white" stroke-width="0.1" /><polygon points="9.734231233596802,41.814762353897095 9.734231233596802,41.814762353897095 6.993388384580612,40.86897671222687 6.993388384580612,40.86897671222687 4.871103912591934,39.304134249687195 4.871103912591934,39.304134249687195 3.305363282561302,37.18254566192627 3.305363282561302,37.18254566192627 2.234151214361191,34.56603288650513 2.234151214361191,34.56603288650513 1.5952525660395622,31.51700794696808 1.5952525660395622,31.51700794696808 1.3272501528263092,28.097185492515564 1.3272501528263092,28.097185492515564 3.740667924284935,29.421043395996094 3.740667924284935,29.421043395996094 6.046406179666519,31.031352281570435 6.046406179666519,31.031352281570435 8.021727949380875,33.0021858215332 8.021727949380875,33.0021858215332 9.443097561597824,35.4069322347641 9.443097561597824,35.4069322347641 10.0885771214962,38.319963216781616 10.0885771214962,38.319963216781616" stroke="white" stroke-width="0.1" /><polygon points="18.141213059425354,32.96589553356171 18.141213059425354,32.96589553356171 19.02458369731903,36.004653573036194 19.02458369731903,36.004653573036194 19.254499673843384,39.22915756702423 19.254499673843384,39.22915756702423 18.823981285095215,42.3517644405365 18.823981285095215,42.3517644405365 17.725250124931335,45.08472979068756 17.725250124931335,45.08472979068756 15.951728820800781,47.14021384716034 15.951728820800781,47.14021384716034 13.495837152004242,48.23086857795715 13.495837152004242,48.23086857795715 12.500199675559998,45.172569155693054 12.500199675559998,45.172569155693054 12.552644312381744,42.23132133483887 12.552644312381744,42.23132133483887 13.398127257823944,39.473727345466614 13.398127257823944,39.473727345466614 14.78121131658554,36.96589171886444 14.78121131658554,36.96589171886444 16.447453200817108,34.77451205253601 16.447453200817108,34.77451205253601" stroke="white" stroke-width="0.1" /><polygon points="12.61206716299057,50.22174119949341 12.61206716299057,50.22174119949341 9.207399189472198,50.23510456085205 9.207399189472198,50.23510456085205 6.4609721302986145,49.35741424560547 6.4609721302986145,49.35741424560547 4.2696937918663025,47.77741730213165 4.2696937918663025,47.77741730213165 2.530868351459503,45.683348178863525 2.530868351459503,45.683348178863525 1.1420014314353466,43.2639479637146 1.1420014314353466,43.2639479637146 0.0,40.70765674114227 0.0,40.70765674114227 3.178142011165619,41.217041015625 3.178142011165619,41.217041015625 6.083894520998001,41.9991135597229 6.083894520998001,41.9991135597229 8.598411828279495,43.17232072353363 8.598411828279495,43.17232072353363 10.603445023298264,44.85481381416321 10.603445023298264,44.85481381416321 11.980745941400528,47.16533720493317 11.980745941400528,47.16533720493317" stroke="white" stroke-width="0.1" /><polygon points="20.355422794818878,43.80723237991333 20.355422794818878,43.80723237991333 21.51118367910385,46.449968218803406 21.51118367910385,46.449968218803406 22.085873782634735,49.60647523403168 22.085873782634735,49.60647523403168 22.02485501766205,52.884018421173096 22.02485501766205,52.884018421173096 21.27269357442856,55.88947534561157 21.27269357442856,55.88947534561157 19.775548577308655,58.230507373809814 19.775548577308655,58.230507373809814 17.47758835554123,59.514087438583374 17.47758835554123,59.514087438583374 16.123218834400177,56.83067440986633 16.123218834400177,56.83067440986633 15.821516513824463,53.95224094390869 15.821516513824463,53.95224094390869 16.3333922624588,51.04508996009827 16.3333922624588,51.04508996009827 17.418962717056274,48.27453792095184 17.418962717056274,48.27453792095184 18.839535117149353,45.806682109832764 18.839535117149353,45.806682109832764" stroke="white" stroke-width="0.1" /><polygon points="25.444278120994568,66.59381985664368 25.444278120994568,66.59381985664368 23.521600663661957,64.6476149559021 23.521600663661957,64.6476149559021 22.594361007213593,61.96280121803284 22.594361007213593,61.96280121803284 22.48149663209915,58.86980891227722 22.48149663209915,58.86980891227722 23.00194799900055,55.69864511489868 23.00194799900055,55.69864511489868 23.975449800491333,52.77982950210571 23.975449800491333,52.77982950210571 25.220942497253418,50.443482398986816 25.220942497253418,50.443482398986816 26.663053035736084,52.686309814453125 26.663053035736084,52.686309814453125 27.758193016052246,55.543702840805054 27.758193016052246,55.543702840805054 28.345245122909546,58.68974328041077 28.345245122909546,58.68974328041077 28.262493014335632,61.79749369621277 28.262493014335632,61.79749369621277 27.349409461021423,64.54113125801086 27.349409461021423,64.54113125801086" stroke="white" stroke-width="0.1" /><polygon points="15.486712753772736,58.6287260055542 15.486712753772736,58.6287260055542 12.104776501655579,59.00241136550903 12.104776501655579,59.00241136550903 9.269016236066818,58.38983654975891 9.269016236066818,58.38983654975891 6.898669898509979,57.03147649765015 6.898669898509979,57.03147649765015 4.912380874156952,55.16772270202637 4.912380874156952,55.16772270202637 3.2301872968673706,53.038859367370605 3.2301872968673706,53.038859367370605 1.7707303166389465,50.88536739349365 1.7707303166389465,50.88536739349365 5.173803120851517,50.76153874397278 5.173803120851517,50.76153874397278 8.27537328004837,51.172810792922974 8.27537328004837,51.172810792922974 10.96656396985054,52.142226696014404 10.96656396985054,52.142226696014404 13.138101994991302,53.69251370429993 13.138101994991302,53.69251370429993 14.68110978603363,55.84710240364075 14.68110978603363,55.84710240364075" stroke="white" stroke-width="0.1" /><polygon points="35.842135548591614,71.90282344818115 35.842135548591614,71.90282344818115 33.47278535366058,70.81406116485596 33.47278535366058,70.81406116485596 31.753703951835632,68.92009973526001 31.753703951835632,68.92009973526001 30.642807483673096,66.39940142631531 30.642807483673096,66.39940142631531 30.09723126888275,63.42993378639221 30.09723126888275,63.42993378639221 30.074897408485413,60.190075635910034 30.074897408485413,60.190075635910034 30.533134937286377,56.857991218566895 30.533134937286377,56.857991218566895 32.50028192996979,58.440083265304565 32.50028192996979,58.440083265304565 34.36572849750519,60.52029728889465 34.36572849750519,60.52029728889465 35.88082194328308,63.002705574035645 35.88082194328308,63.002705574035645 36.79749369621277,65.79120755195618 36.79749369621277,65.79120755195618 36.86748445034027,68.78978610038757 36.86748445034027,68.78978610038757" stroke="white" stroke-width="0.1" /><polygon points="22.56644368171692,65.93019366264343 22.56644368171692,65.93019366264343 19.479629397392273,66.92972183227539 19.479629397392273,66.92972183227539 16.441072523593903,66.81645512580872 16.441072523593903,66.81645512580872 13.59952837228775,65.85980653762817 13.59952837228775,65.85980653762817 11.103357374668121,64.32856321334839 11.103357374668121,64.32856321334839 9.101713448762894,62.49212622642517 9.101713448762894,62.49212622642517 7.743356376886368,60.619598627090454 7.743356376886368,60.619598627090454 10.968957096338272,60.03613471984863 10.968957096338272,60.03613471984863 14.138723909854889,60.026466846466064 14.138723909854889,60.026466846466064 17.068006098270416,60.600852966308594 17.068006098270416,60.600852966308594 19.571755826473236,61.7692768573761 19.571755826473236,61.7692768573761 21.466517448425293,63.5424017906189 21.466517448425293,63.5424017906189" stroke="white" stroke-width="0.1" /><polygon points="50.00159740447998,75.2225399017334 50.00159740447998,75.2225399017334 46.615275740623474,74.88484382629395 46.615275740623474,74.88484382629395 43.96994709968567,73.80545735359192 43.96994709968567,73.80545735359192 41.92882180213928,72.12216854095459 41.92882180213928,72.12216854095459 40.35370945930481,69.97236609458923 40.35370945930481,69.97236609458923 39.10781741142273,67.49404072761536 39.10781741142273,67.49404072761536 38.053154945373535,64.82468247413635 38.053154945373535,64.82468247413635 41.139569878578186,65.46318531036377 41.139569878578186,65.46318531036377 43.964165449142456,66.36290550231934 43.964165449142456,66.36290550231934 46.395131945610046,67.65645742416382 46.395131945610046,67.65645742416382 48.29986095428467,69.4758415222168 48.29986095428467,69.4758415222168 49.54615235328674,71.95376753807068 49.54615235328674,71.95376753807068" stroke="white" stroke-width="0.1" /><polygon points="31.19676113128662,71.90282344818115 31.19676113128662,71.90282344818115 28.702980279922485,73.37782979011536 28.702980279922485,73.37782979011536 25.84109902381897,73.83795976638794 25.84109902381897,73.83795976638794 22.849999368190765,73.49149584770203 22.849999368190765,73.49149584770203 19.96777653694153,72.54600524902344 19.96777653694153,72.54600524902344 17.43391752243042,71.20968103408813 17.43391752243042,71.20968103408813 15.486712753772736,69.69020366668701 15.486712753772736,69.69020366668701 18.14081370830536,68.42228174209595 18.14081370830536,68.42228174209595 21.200309693813324,67.70471334457397 21.200309693813324,67.70471334457397 24.35033470392227,67.61577725410461 24.35033470392227,67.61577725410461 27.2760272026062,68.23354363441467 27.2760272026062,68.23354363441467 29.6633243560791,69.63656544685364 29.6633243560791,69.63656544685364" stroke="white" stroke-width="0.1" /><polygon points="40.93099236488342,75.2225399017334 40.93099236488342,75.2225399017334 40.80636203289032,75.54647922515869 40.80636203289032,75.54647922515869 40.43985307216644,76.04997754096985 40.43985307216644,76.04997754096985 39.939939975738525,76.63394212722778 39.939939975738525,76.63394212722778 39.41410481929779,77.19886302947998 39.41410481929779,77.19886302947998 38.970425724983215,77.64583230018616 38.970425724983215,77.64583230018616 38.71678113937378,77.8754472732544 38.71678113937378,77.8754472732544 36.76977455615997,78.83539199829102 36.76977455615997,78.83539199829102 34.478992223739624,79.27468419075012 34.478992223739624,79.27468419075012 32.011935114860535,79.2848527431488 32.011935114860535,79.2848527431488 29.534906148910522,78.95732522010803 29.534906148910522,78.95732522010803 27.215808629989624,78.38353514671326 27.215808629989624,78.38353514671326 25.220942497253418,77.65530347824097 25.220942497253418,77.65530347824097 26.460853219032288,76.65926814079285 26.460853219032288,76.65926814079285 27.889999747276306,75.55714845657349 27.889999747276306,75.55714845657349 29.50339913368225,74.48413968086243 29.50339913368225,74.48413968086243 31.295666098594666,73.57494235038757 31.295666098594666,73.57494235038757 33.26261341571808,72.9646623134613 33.26261341571808,72.9646623134613 35.398656129837036,72.78818488121033 35.398656129837036,72.78818488121033 36.188504099845886,72.90663123130798 36.188504099845886,72.90663123130798 37.295809388160706,73.19238185882568 37.295809388160706,73.19238185882568 38.52255940437317,73.6063539981842 38.52255940437317,73.6063539981842 39.669546484947205,74.10885691642761 39.669546484947205,74.10885691642761 40.53875803947449,74.66071248054504 40.53875803947449,74.66071248054504" stroke="white" stroke-width="0.1" /><polygon points="83.18604230880737,12.61206716299057 83.18604230880737,12.61206716299057 80.03342747688293,11.993607878684998 80.03342747688293,11.993607878684998 77.56158113479614,10.583304613828659 77.56158113479614,10.583304613828659 75.70829391479492,8.530214428901672 75.70829391479492,8.530214428901672 74.4105577468872,5.982596054673195 74.4105577468872,5.982596054673195 73.60615134239197,3.0897052958607674 73.60615134239197,3.0897052958607674 73.23166728019714,0.0 73.23166728019714,0.0 75.71467757225037,1.278196182101965 75.71467757225037,1.278196182101965 78.12231183052063,2.6313692331314087 78.12231183052063,2.6313692331314087 80.2643358707428,4.250550642609596 80.2643358707428,4.250550642609596 81.94952011108398,6.326472759246826 81.94952011108398,6.326472759246826 82.98683762550354,9.050067514181137 82.98683762550354,9.050067514181137" stroke="white" stroke-width="0.1" /><polygon points="87.61127591133118,18.80483776330948 87.61127591133118,18.80483776330948 87.26111650466919,18.603138625621796 87.26111650466919,18.603138625621796 86.74325942993164,18.080991506576538 86.74325942993164,18.080991506576538 86.14523410797119,17.351163923740387 86.14523410797119,17.351163923740387 85.55339574813843,16.526319086551666 85.55339574813843,16.526319086551666 85.0548803806305,15.719519555568695 85.0548803806305,15.719519555568695 84.73662734031677,15.043231844902039 84.73662734031677,15.043231844902039 84.26622748374939,12.672089040279388 84.26622748374939,12.672089040279388 84.387868642807,10.322580486536026 84.387868642807,10.322580486536026 84.94281768798828,8.081549406051636 84.94281768798828,8.081549406051636 85.7709527015686,6.035538390278816 85.7709527015686,6.035538390278816 86.7139458656311,4.271488264203072 86.7139458656311,4.271488264203072 87.61127591133118,2.876240387558937 87.61127591133118,2.876240387558937 88.30241560935974,4.457933455705643 88.30241560935974,4.457933455705643 89.10821676254272,6.208224594593048 89.10821676254272,6.208224594593048 89.87932205200195,8.112657070159912 89.87932205200195,8.112657070159912 90.46598076820374,10.15627533197403 90.46598076820374,10.15627533197403 90.71922302246094,12.32462227344513 90.71922302246094,12.32462227344513 90.48910737037659,14.602942764759064 90.48910737037659,14.602942764759064 90.32699465751648,15.06277471780777 90.32699465751648,15.06277471780777 89.9698555469513,15.88592380285263 89.9698555469513,15.88592380285263 89.46894407272339,16.871990263462067 89.46894407272339,16.871990263462067 88.87471556663513,17.8206667304039 88.87471556663513,17.8206667304039 88.23860883712769,18.53175014257431 88.23860883712769,18.53175014257431" stroke="white" stroke-width="0.1" /><polygon points="86.28402352333069,22.788183391094208 86.28402352333069,22.788183391094208 82.86340236663818,22.475115954875946 82.86340236663818,22.475115954875946 80.21149635314941,21.282264590263367 80.21149635314941,21.282264590263367 78.22520732879639,19.39946860074997 78.22520732879639,19.39946860074997 76.80044770240784,17.015862464904785 76.80044770240784,17.015862464904785 75.83411931991577,14.321181178092957 75.83411931991577,14.321181178092957 75.2225399017334,11.504961550235748 75.2225399017334,11.504961550235748 77.93347239494324,12.51884400844574 77.93347239494324,12.51884400844574 80.51658868789673,13.659849762916565 80.51658868789673,13.659849762916565 82.80757069587708,15.092884004116058 82.80757069587708,15.092884004116058 84.64171290397644,16.98206216096878 84.64171290397644,16.98206216096878 85.85549592971802,19.492392241954803 85.85549592971802,19.492392241954803" stroke="white" stroke-width="0.1" /><polygon points="90.70925712585449,30.531540513038635 90.70925712585449,30.531540513038635 89.28070664405823,27.889004349708557 89.28070664405823,27.889004349708557 88.91060948371887,24.9672994017601 88.91060948371887,24.9672994017601 89.39995169639587,21.994146704673767 89.39995169639587,21.994146704673767 90.54853320121765,19.197170436382294 90.54853320121765,19.197170436382294 92.15754270553589,16.804391145706177 92.15754270553589,16.804391145706177 94.02738213539124,15.043231844902039 94.02738213539124,15.043231844902039 94.82221603393555,17.946791648864746 94.82221603393555,17.946791648864746 95.2124536037445,21.088242530822754 95.2124536037445,21.088242530822754 95.09739279747009,24.192604422569275 95.09739279747009,24.192604422569275 94.37554478645325,26.984596252441406 94.37554478645325,26.984596252441406 92.94639825820923,29.189333319664 92.94639825820923,29.189333319664" stroke="white" stroke-width="0.1" /><polygon points="89.16186094284058,36.50576174259186 89.16186094284058,36.50576174259186 86.36178970336914,35.645121335983276 86.36178970336914,35.645121335983276 84.19723510742188,34.03760492801666 84.19723510742188,34.03760492801666 82.63368606567383,31.804552674293518 82.63368606567383,31.804552674293518 81.63526058197021,29.067298769950867 81.63526058197021,29.067298769950867 81.16744756698608,25.947383046150208 81.16744756698608,25.947383046150208 81.19516968727112,22.56644368171692 81.19516968727112,22.56644368171692 83.42293500900269,24.045641720294952 83.42293500900269,24.045641720294952 85.58889031410217,25.75565278530121 85.58889031410217,25.75565278530121 87.46969699859619,27.77673900127411 87.46969699859619,27.77673900127411 88.84101510047913,30.188658833503723 88.84101510047913,30.188658833503723 89.4797146320343,33.07168185710907 89.4797146320343,33.07168185710907" stroke="white" stroke-width="0.1" /><polygon points="90.26577472686768,41.814762353897095 90.26577472686768,41.814762353897095 89.91182446479797,38.320061564445496 89.91182446479797,38.320061564445496 90.55730700492859,35.40712893009186 90.55730700492859,35.40712893009186 91.97947382926941,33.0021858215332 91.97947382926941,33.0021858215332 93.954598903656,31.031352281570435 93.954598903656,31.031352281570435 96.26033306121826,29.421043395996094 96.26033306121826,29.421043395996094 98.67275357246399,28.097185492515564 98.67275357246399,28.097185492515564 98.40595126152039,31.51700794696808 98.40595126152039,31.51700794696808 97.76784777641296,34.566134214401245 97.76784777641296,34.566134214401245 96.69703245162964,37.18254566192627 96.69703245162964,37.18254566192627 95.13089656829834,39.30403292179108 95.13089656829834,39.30403292179108 93.00781488418579,40.86877703666687 93.00781488418579,40.86877703666687" stroke="white" stroke-width="0.1" /><polygon points="81.85878992080688,32.96589553356171 81.85878992080688,32.96589553356171 83.55275392532349,34.77471172809601 83.55275392532349,34.77471172809601 85.21938920021057,36.96599006652832 85.21938920021057,36.96599006652832 86.6034746170044,39.473727345466614 86.6034746170044,39.473727345466614 87.44955658912659,42.23122298717499 87.44955658912659,42.23122298717499 87.50279545783997,45.172467827796936 87.50279545783997,45.172467827796936 86.5073561668396,48.23086857795715 86.5073561668396,48.23086857795715 84.05027389526367,47.14041352272034 84.05027389526367,47.14041352272034 82.27615356445312,45.08463144302368 82.27615356445312,45.08463144302368 81.17762207984924,42.3517644405365 81.17762207984924,42.3517644405365 80.74690103530884,39.22905623912811 80.74690103530884,39.22905623912811 80.97642064094543,36.004552245140076 80.97642064094543,36.004552245140076" stroke="white" stroke-width="0.1" /><polygon points="100.0,40.70765674114227 100.0,40.70765674114227 98.85820150375366,43.26404929161072 98.85820150375366,43.26404929161072 97.4699318408966,45.683348178863525 97.4699318408966,45.683348178863525 95.73190808296204,47.77741730213165 95.73190808296204,47.77741730213165 93.54122877120972,49.35731589794159 93.54122877120972,49.35731589794159 90.79539775848389,50.23500323295593 90.79539775848389,50.23500323295593 87.39112615585327,50.22174119949341 87.39112615585327,50.22174119949341 88.02205324172974,47.165438532829285 88.02205324172974,47.165438532829285 89.39875364303589,44.854915142059326 89.39875364303589,44.854915142059326 91.40318632125854,43.17232072353363 91.40318632125854,43.17232072353363 93.91691088676453,41.99901223182678 93.91691088676453,41.99901223182678 96.82186245918274,41.21693968772888 96.82186245918274,41.21693968772888" stroke="white" stroke-width="0.1" /><polygon points="82.52241611480713,59.514087438583374 82.52241611480713,59.514087438583374 80.22565245628357,58.23071002960205 80.22565245628357,58.23071002960205 78.72910499572754,55.88967800140381 78.72910499572754,55.88967800140381 77.97794342041016,52.884018421173096 77.97794342041016,52.884018421173096 77.91692614555359,49.60647523403168 77.91692614555359,49.60647523403168 78.49200963973999,46.44986689090729 78.49200963973999,46.44986689090729 79.6477735042572,43.80723237991333 79.6477735042572,43.80723237991333 81.16246461868286,45.80688178539276 81.16246461868286,45.80688178539276 82.58243799209595,48.27463626861572 82.58243799209595,48.27463626861572 83.66820812225342,51.04508996009827 83.66820812225342,51.04508996009827 84.1796875,53.95224094390869 84.1796875,53.95224094390869 83.87758731842041,56.830376386642456 83.87758731842041,56.830376386642456" stroke="white" stroke-width="0.1" /><polygon points="74.55891966819763,66.59381985664368 74.55891966819763,66.59381985664368 72.65378832817078,64.54113125801086 72.65378832817078,64.54113125801086 71.74030542373657,61.797696352005005 71.74030542373657,61.797696352005005 71.65755033493042,58.68974328041077 71.65755033493042,58.68974328041077 72.24400639533997,55.543702840805054 72.24400639533997,55.543702840805054 73.33815097808838,52.68620848655701 73.33815097808838,52.68620848655701 74.77906346321106,50.443482398986816 74.77906346321106,50.443482398986816 76.02575421333313,52.77993083000183 76.02575421333313,52.77993083000183 77.00005173683167,55.69864511489868 77.00005173683167,55.69864511489868 77.52130031585693,58.86980891227722 77.52130031585693,58.86980891227722 77.40843892097473,61.96269989013672 77.40843892097473,61.96269989013672 76.48139595985413,64.6476149559021 76.48139595985413,64.6476149559021" stroke="white" stroke-width="0.1" /><polygon points="84.51648354530334,58.6287260055542 84.51648354530334,58.6287260055542 85.32088994979858,55.847203731536865 85.32088994979858,55.847203731536865 86.8636965751648,53.692615032196045 86.8636965751648,53.692615032196045 89.0354335308075,52.142226696014404 89.0354335308075,52.142226696014404 91.72682762145996,51.172810792922974 91.72682762145996,51.172810792922974 94.82879638671875,50.76153874397278 94.82879638671875,50.76153874397278 98.23246598243713,50.88536739349365 98.23246598243713,50.88536739349365 96.77181243896484,53.038960695266724 96.77181243896484,53.038960695266724 95.08922100067139,55.16772270202637 95.08922100067139,55.16772270202637 93.10333132743835,57.03147649765015 93.10333132743835,57.03147649765015 90.73318243026733,58.389633893966675 90.73318243026733,58.389633893966675 87.89781928062439,59.002214670181274 87.89781928062439,59.002214670181274" stroke="white" stroke-width="0.1" /><polygon points="69.47005987167358,56.857991218566895 69.47005987167358,56.857991218566895 69.92809772491455,60.19027829170227 69.92809772491455,60.19027829170227 69.90516781806946,63.43003511428833 69.90516781806946,63.43003511428833 69.35918927192688,66.39940142631531 69.35918927192688,66.39940142631531 68.24769973754883,68.92009973526001 68.24769973754883,68.92009973526001 66.52921438217163,70.8138644695282 66.52921438217163,70.8138644695282 64.16106224060059,71.90282344818115 64.16106224060059,71.90282344818115 63.13551068305969,68.79008412361145 63.13551068305969,68.79008412361145 63.20490837097168,65.79120755195618 63.20490837097168,65.79120755195618 64.12118077278137,63.002705574035645 64.12118077278137,63.002705574035645 65.63606858253479,60.520195960998535 65.63606858253479,60.520195960998535 67.50171780586243,58.43988656997681 67.50171780586243,58.43988656997681" stroke="white" stroke-width="0.1" /><polygon points="77.43356227874756,65.93019366264343 77.43356227874756,65.93019366264343 78.53508591651917,63.542598485946655 78.53508591651917,63.542598485946655 80.43004274368286,61.769479513168335 80.43004274368286,61.769479513168335 82.93439149856567,60.600852966308594 82.93439149856567,60.600852966308594 85.8632743358612,60.026365518569946 85.8632743358612,60.026365518569946 89.03224468231201,60.036033391952515 89.03224468231201,60.036033391952515 92.25664734840393,60.619598627090454 92.25664734840393,60.619598627090454 90.89829325675964,62.49222755432129 90.89829325675964,62.49222755432129 88.89724612236023,64.32865858078003 88.89724612236023,64.32865858078003 86.40167117118835,65.85980653762817 86.40167117118835,65.85980653762817 83.55993032455444,66.81625843048096 83.55993032455444,66.81625843048096 80.52117228507996,66.92951917648315 80.52117228507996,66.92951917648315" stroke="white" stroke-width="0.1" /><polygon points="61.94685101509094,64.82468247413635 61.94685101509094,64.82468247413635 60.89358329772949,67.49414205551147 60.89358329772949,67.49414205551147 59.648287296295166,69.97246742248535 59.648287296295166,69.97246742248535 58.073973655700684,72.12216854095459 58.073973655700684,72.12216854095459 56.03305101394653,73.80526065826416 56.03305101394653,73.80526065826416 53.387922048568726,74.8847484588623 53.387922048568726,74.8847484588623 50.00159740447998,75.2225399017334 50.00159740447998,75.2225399017334 50.45723915100098,71.9538688659668 50.45723915100098,71.9538688659668 51.70333385467529,69.47594285011292 51.70333385467529,69.47594285011292 53.60766649246216,67.65645742416382 53.60766649246216,67.65645742416382 56.037837266922,66.36290550231934 56.037837266922,66.36290550231934 58.8618278503418,65.46318531036377 58.8618278503418,65.46318531036377" stroke="white" stroke-width="0.1" /><polygon points="68.80643367767334,71.90282344818115 68.80643367767334,71.90282344818115 70.33867835998535,69.63666677474976 70.33867835998535,69.63666677474976 72.72477746009827,68.23363900184631 72.72477746009827,68.23363900184631 75.65046548843384,67.61577725410461 75.65046548843384,67.61577725410461 78.80069613456726,67.70461201667786 78.80069613456726,67.70461201667786 81.86078667640686,68.42218041419983 81.86078667640686,68.42218041419983 84.51648354530334,69.69020366668701 84.51648354530334,69.69020366668701 82.56807923316956,71.20978236198425 82.56807923316956,71.20978236198425 80.0336241722107,72.54610657691956 80.0336241722107,72.54610657691956 77.15200185775757,73.49149584770203 77.15200185775757,73.49149584770203 74.16110038757324,73.83795976638794 74.16110038757324,73.83795976638794 71.29981517791748,73.37753176689148 71.29981517791748,73.37753176689148" stroke="white" stroke-width="0.1" /><polygon points="59.07220244407654,75.2225399017334 59.07220244407654,75.2225399017334 59.463441371917725,74.66081380844116 59.463441371917725,74.66081380844116 60.332053899765015,74.10885691642761 60.332053899765015,74.10885691642761 61.479443311691284,73.6063539981842 61.479443311691284,73.6063539981842 62.70638704299927,73.19238185882568 62.70638704299927,73.19238185882568 63.81449103355408,72.90643453598022 63.81449103355408,72.90643453598022 64.60453867912292,72.78818488121033 64.60453867912292,72.78818488121033 66.74058437347412,72.96485900878906 66.74058437347412,72.96485900878906 68.70713233947754,73.57494235038757 68.70713233947754,73.57494235038757 70.49939632415771,74.48413968086243 70.49939632415771,74.48413968086243 72.11199998855591,75.55704712867737 72.11199998855591,75.55704712867737 73.54034781455994,76.65916681289673 73.54034781455994,76.65916681289673 74.77906346321106,77.65530347824097 74.77906346321106,77.65530347824097 72.7855920791626,78.38373184204102 72.7855920791626,78.38373184204102 70.46709656715393,78.95732522010803 70.46709656715393,78.95732522010803 67.99086332321167,79.2848527431488 67.99086332321167,79.2848527431488 65.52380323410034,79.274582862854 65.52380323410034,79.274582862854 63.23322057723999,78.8352906703949 63.23322057723999,78.8352906703949 61.28641366958618,77.8754472732544 61.28641366958618,77.8754472732544 61.032772064208984,77.6459276676178 61.032772064208984,77.6459276676178 60.58889031410217,77.19895839691162 60.58889031410217,77.19895839691162 60.063254833221436,76.63394212722778 60.063254833221436,76.63394212722778 59.56294536590576,76.04978084564209 59.56294536590576,76.04978084564209 59.19683575630188,75.54637789726257 59.19683575630188,75.54637789726257" stroke="white" stroke-width="0.1" /><polygon points="50.00159740447998,77.47504115104675 50.00159740447998,77.47504115104675 52.66447067260742,76.83115601539612 52.66447067260742,76.83115601539612 55.35686016082764,76.97592377662659 55.35686016082764,76.97592377662659 57.95472860336304,77.74144411087036 57.95472860336304,77.74144411087036 60.333847999572754,78.95932197570801 60.333847999572754,78.95932197570801 62.37058639526367,80.46175241470337 62.37058639526367,80.46175241470337 63.94091248512268,82.0805311203003 63.94091248512268,82.0805311203003 61.597687005996704,82.84146785736084 61.597687005996704,82.84146785736084 59.0614378452301,83.24726223945618 59.0614378452301,83.24726223945618 56.483107805252075,83.27497839927673 56.483107805252075,83.27497839927673 54.0130615234375,82.9012930393219 54.0130615234375,82.9012930393219 51.802438497543335,82.10366368293762 51.802438497543335,82.10366368293762 50.00159740447998,80.85857033729553 50.00159740447998,80.85857033729553 48.19976091384888,82.10366368293762 48.19976091384888,82.10366368293762 45.98854184150696,82.90148973464966 45.98854184150696,82.90148973464966 43.5188889503479,83.27497839927673 43.5188889503479,83.27497839927673 40.94076156616211,83.24716091156006 40.94076156616211,83.24716091156006 38.40530812740326,82.84146785736084 38.40530812740326,82.84146785736084 36.06227934360504,82.0805311203003 36.06227934360504,82.0805311203003 37.63240873813629,80.46194911003113 37.63240873813629,80.46194911003113 39.66914713382721,78.95942330360413 39.66914713382721,78.95942330360413 42.048466205596924,77.74144411087036 42.048466205596924,77.74144411087036 44.646334648132324,76.97582244873047 44.646334648132324,76.97582244873047 47.33852446079254,76.8310546875 47.33852446079254,76.8310546875" stroke="white" stroke-width="0.1" /></svg>