<?xml version="1.0" encoding="utf-8" ?>
<svg baseProfile="full" height="89.08735513687134" version="1.1" width="69.36612129211426" xmlns="http://www.w3.org/2000/svg" xmlns:ev="http://www.w3.org/2001/xml-events" xmlns:xlink="http://www.w3.org/1999/xlink"><defs><clipPath /></defs><polygon points="66.48615002632141,72.38636016845703 66.48615002632141,72.38636016845703 67.36649870872498,73.37735295295715 67.36649870872498,73.37735295295715 68.0866003036499,74.43270087242126 68.0866003036499,74.43270087242126 68.64656805992126,75.55220127105713 68.64656805992126,75.55220127105713 69.04640793800354,76.73561573028564 69.04640793800354,76.73561573028564 69.28622126579285,77.98267602920532 69.28622126579285,77.98267602920532 69.36612129211426,79.29332256317139 69.36612129211426,79.29332256317139 69.28610801696777,80.60568571090698 69.28610801696777,80.60568571090698 69.04618740081787,81.8544089794159 69.04618740081787,81.8544089794159 68.64656805992126,83.03932547569275 68.64656805992126,83.03932547569275 68.0866003036499,84.15993452072144 68.0866003036499,84.15993452072144 67.36660599708557,85.2160632610321 67.36660599708557,85.2160632610321 66.48615002632141,86.20738387107849 66.48615002632141,86.20738387107849 65.49293994903564,87.08651065826416 65.49293994903564,87.08651065826416 64.43625688552856,87.80628442764282 64.43625688552856,87.80628442764282 63.31609487533569,88.36647272109985 63.31609487533569,88.36647272109985 62.13201284408569,88.76680731773376 62.13201284408569,88.76680731773376 60.88411808013916,89.00723457336426 60.88411808013916,89.00723457336426 59.57208871841431,89.08735513687134 59.57208871841431,89.08735513687134 40.19886255264282,89.08735513687134 40.19886255264282,89.08735513687134 36.26154065132141,88.84881734848022 36.26154065132141,88.84881734848022 32.5198620557785,88.13309669494629 32.5198620557785,88.13309669494629 28.973498940467834,86.94024682044983 28.973498940467834,86.94024682044983 25.622224807739258,85.26999354362488 25.622224807739258,85.26999354362488 22.466041147708893,83.12233686447144 22.466041147708893,83.12233686447144 19.504615664482117,80.49715757369995 19.504615664482117,80.49715757369995 16.87943786382675,77.53573060035706 16.87943786382675,77.53573060035706 14.731666445732117,74.37943816184998 14.731666445732117,74.37943816184998 13.0615234375,71.02805376052856 13.0615234375,71.02805376052856 11.868563294410706,67.48135685920715 11.868563294410706,67.48135685920715 11.153009533882141,63.739120960235596 11.153009533882141,63.739120960235596 10.91441735625267,59.80113744735718 10.91441735625267,59.80113744735718 10.91441735625267,20.717328786849976 10.91441735625267,20.717328786849976 10.99376305937767,19.37086582183838 10.99376305937767,19.37086582183838 11.232244223356247,18.097810447216034 11.232244223356247,18.097810447216034 11.629749089479446,16.898304224014282 11.629749089479446,16.898304224014282 12.186168134212494,15.772289037704468 12.186168134212494,15.772289037704468 12.901832163333893,14.719903469085693 12.901832163333893,14.719903469085693 13.776633143424988,13.74112218618393 13.776633143424988,13.74112218618393 14.7651806473732,12.878972291946411 14.7651806473732,12.878972291946411 15.82430750131607,12.172989547252655 15.82430750131607,12.172989547252655 16.953790187835693,11.623534560203552 16.953790187835693,11.623534560203552 18.1534081697464,11.230718344449997 18.1534081697464,11.230718344449997 19.423383474349976,10.994872450828552 19.423383474349976,10.994872450828552 20.763494074344635,10.916192829608917 20.763494074344635,10.916192829608917 22.066649794578552,10.99623218178749 22.066649794578552,10.99623218178749 23.306995630264282,11.236405372619629 23.306995630264282,11.236405372619629 24.48441833257675,11.636851727962494 24.48441833257675,11.636851727962494 25.597921013832092,12.19748705625534 25.597921013832092,12.19748705625534 26.647061109542847,12.918423116207123 26.647061109542847,12.918423116207123 27.63139009475708,13.799715042114258 27.63139009475708,13.799715042114258 28.50763499736786,14.790509641170502 28.50763499736786,14.790509641170502 29.224631190299988,15.84530919790268 29.224631190299988,15.84530919790268 29.78227138519287,16.964443027973175 29.78227138519287,16.964443027973175 30.180442333221436,18.14786046743393 30.180442333221436,18.14786046743393 30.41936457157135,19.39586251974106 30.41936457157135,19.39586251974106 30.498933792114258,20.70845067501068 30.498933792114258,20.70845067501068 30.498933792114258,30.500710010528564 30.498933792114258,30.500710010528564 59.533023834228516,30.500710010528564 59.533023834228516,30.500710010528564 60.85104942321777,30.58088719844818 60.85104942321777,30.58088719844818 62.10460066795349,30.821311473846436 62.10460066795349,30.821311473846436 63.29411864280701,31.222033500671387 63.29411864280701,31.222033500671387 64.41916227340698,31.782779097557068 64.41916227340698,31.782779097557068 65.4802918434143,32.50357806682587 65.4802918434143,32.50357806682587 66.47726893424988,33.384230732917786 66.47726893424988,33.384230732917786 67.36128330230713,34.37524735927582 67.36128330230713,34.37524735927582 68.08393597602844,35.43071150779724 68.08393597602844,35.43071150779724 68.64545941352844,36.55051290988922 68.64545941352844,36.55051290988922 69.0460741519928,37.73448467254639 69.0460741519928,37.73448467254639 69.28622126579285,38.98265361785889 69.28622126579285,38.98265361785889 69.36612129211426,40.294742584228516 69.36612129211426,40.294742584228516 69.28610801696777,41.60536229610443 69.28610801696777,41.60536229610443 69.04618740081787,42.85255968570709 69.04618740081787,42.85255968570709 68.64656805992126,44.03630793094635 68.64656805992126,44.03630793094635 68.0866003036499,45.15635967254639 68.0866003036499,45.15635967254639 67.36660599708557,46.2127685546875 67.36660599708557,46.2127685546875 66.48615002632141,47.205254435539246 66.48615002632141,47.205254435539246 65.49271941184998,48.084381222724915 65.49271941184998,48.084381222724915 64.43536877632141,48.80412518978119 64.43536877632141,48.80412518978119 63.31431865692139,49.36434626579285 63.31431865692139,49.36434626579285 62.12946176528931,49.76468086242676 62.12946176528931,49.76468086242676 60.88089942932129,50.00507831573486 60.88089942932129,50.00507831573486 59.56853628158569,50.08522272109985 59.56853628158569,50.08522272109985 30.498933792114258,50.08522272109985 30.498933792114258,50.08522272109985 30.498933792114258,59.79403257369995 30.498933792114258,59.79403257369995 30.577170848846436,61.10817193984985 30.577170848846436,61.10817193984985 30.812209844589233,62.3553991317749 30.812209844589233,62.3553991317749 31.204500794410706,63.535600900650024 31.204500794410706,63.535600900650024 31.75392746925354,64.6485447883606 31.75392746925354,64.6485447883606 32.46093690395355,65.69424271583557 32.46093690395355,65.69424271583557 33.32563936710358,66.67258143424988 33.32563936710358,66.67258143424988 33.804598450660706,67.12502241134644 33.804598450660706,67.12502241134644 34.30075943470001,67.53789782524109 34.30075943470001,67.53789782524109 34.81400907039642,67.91126132011414 34.81400907039642,67.91126132011414 35.344016551971436,68.24507117271423 35.344016551971436,68.24507117271423 35.890889167785645,68.5394823551178 35.890889167785645,68.5394823551178 36.45418882369995,68.79438757896423 36.45418882369995,68.79438757896423 37.03502118587494,69.01022791862488 37.03502118587494,69.01022791862488 37.63250112533569,69.18712258338928 37.63250112533569,69.18712258338928 38.246625661849976,69.32505965232849 38.246625661849976,69.32505965232849 38.87717425823212,69.42371726036072 38.87717425823212,69.42371726036072 39.52448070049286,69.48302984237671 39.52448070049286,69.48302984237671 40.18820822238922,69.50283646583557 40.18820822238922,69.50283646583557 59.56853628158569,69.50283646583557 59.56853628158569,69.50283646583557 60.88067889213562,69.58296298980713 60.88067889213562,69.58296298980713 62.12934851646423,69.82343792915344 62.12934851646423,69.82343792915344 63.31431865692139,70.22416591644287 63.31431865692139,70.22416591644287 64.43536877632141,70.78490853309631 64.43536877632141,70.78490853309631 65.49271941184998,71.50567770004272 65.49271941184998,71.50567770004272" stroke="white" stroke-width="0.1" /></svg>