<?xml version="1.0" encoding="utf-8" ?>
<svg baseProfile="full" height="79.54395413398743" version="1.1" width="99.99161958694458" xmlns="http://www.w3.org/2000/svg" xmlns:ev="http://www.w3.org/2001/xml-events" xmlns:xlink="http://www.w3.org/1999/xlink"><defs><clipPath /></defs><polygon points="6.888935714960098,28.8848876953125 6.888935714960098,28.8848876953125 6.888935714960098,28.8848876953125 6.888935714960098,28.8848876953125 6.510800123214722,28.700748085975647 6.510800123214722,28.700748085975647 5.995116010308266,28.429019451141357 5.995116010308266,28.429019451141357 5.407945811748505,28.083917498588562 5.407945811748505,28.083917498588562 4.814859852194786,27.67973244190216 4.814859852194786,27.67973244190216 4.281920567154884,27.23068594932556 4.281920567154884,27.23068594932556 3.8748618215322495,26.751074194908142 3.8748618215322495,26.751074194908142 3.6596648395061493,26.25519335269928 3.6596648395061493,26.25519335269928 3.7021454423666,25.757256150245667 3.7021454423666,25.757256150245667 4.1908785700798035,24.98767524957657 4.1908785700798035,24.98767524957657 4.969334974884987,24.298617243766785 4.969334974884987,24.298617243766785 5.9598661959171295,23.684002459049225 5.9598661959171295,23.684002459049225 7.084658741950989,23.137834668159485 7.084658741950989,23.137834668159485 8.2661472260952,22.65419512987137 8.2661472260952,22.65419512987137 9.426519274711609,22.22708910703659 9.426519274711609,22.22708910703659 10.48804298043251,21.850596368312836 10.48804298043251,21.850596368312836 11.373317241668701,21.5187206864357 11.373317241668701,21.5187206864357 25.013145804405212,16.007572412490845 25.013145804405212,16.007572412490845 56.76929950714111,3.1769298017024994 56.76929950714111,3.1769298017024994 57.597386837005615,2.837659791111946 57.597386837005615,2.837659791111946 58.42505693435669,2.4921447038650513 58.42505693435669,2.4921447038650513 59.2529833316803,2.144164778292179 59.2529833316803,2.144164778292179 60.08197069168091,1.7976637929677963 60.08197069168091,1.7976637929677963 60.913097858428955,1.4565037563443184 60.913097858428955,1.4565037563443184 61.747342348098755,1.124628633260727 61.747342348098755,1.124628633260727 62.58537173271179,0.8058591745793819 62.58537173271179,0.8058591745793819 63.42816352844238,0.504180695861578 63.42816352844238,0.504180695861578 63.95091414451599,0.3338882466778159 63.95091414451599,0.3338882466778159 64.55764174461365,0.16905993688851595 64.55764174461365,0.16905993688851595 65.20323157310486,0.045808462891727686 65.20323157310486,0.045808462891727686 65.84274172782898,0.0002465029410814168 65.84274172782898,0.0002465029410814168 66.43139123916626,0.06852782098576427 66.43139123916626,0.06852782098576427 66.92390441894531,0.2868472598493099 66.92390441894531,0.2868472598493099 67.27582812309265,0.6913174875080585 67.27582812309265,0.6913174875080585 67.44189262390137,1.3179690577089787 67.44189262390137,1.3179690577089787 67.45602488517761,1.7622085288167 67.45602488517761,1.7622085288167 67.43268966674805,2.2058315575122833 67.43268966674805,2.2058315575122833 67.37656593322754,2.647605910897255 67.37656593322754,2.647605910897255 67.29234457015991,3.086463361978531 67.29234457015991,3.086463361978531 67.1848714351654,3.521253541111946 67.1848714351654,3.521253541111946 67.05882549285889,3.9507027715444565 67.05882549285889,3.9507027715444565 66.91897511482239,4.373783990740776 66.91897511482239,4.373783990740776 66.77008867263794,4.789387807250023 66.77008867263794,4.789387807250023 66.60887598991394,5.22717721760273 66.60887598991394,5.22717721760273 66.44741892814636,5.664966255426407 66.44741892814636,5.664966255426407 66.2859559059143,6.102755665779114 66.2859559059143,6.102755665779114 66.12441539764404,6.540545076131821 66.12441539764404,6.540545076131821 65.96287488937378,6.978333741426468 65.96287488937378,6.978333741426468 65.80116748809814,7.416123151779175 65.80116748809814,7.416123151779175 65.63937664031982,7.853912562131882 65.63937664031982,7.853912562131882 65.47775268554688,8.291701972484589 65.47775268554688,8.291701972484589 54.41470146179199,38.27500641345978 54.41470146179199,38.27500641345978 54.24790382385254,38.73440325260162 54.24790382385254,38.73440325260162 54.082417488098145,39.1972541809082 54.082417488098145,39.1972541809082 53.914546966552734,39.66100811958313 53.914546966552734,39.66100811958313 53.74060273170471,40.12295603752136 53.74060273170471,40.12295603752136 53.55687141418457,40.580546855926514 53.55687141418457,40.580546855926514 53.35983633995056,41.03107154369354 53.35983633995056,41.03107154369354 53.145623207092285,41.47214889526367 53.145623207092285,41.47214889526367 52.910709381103516,41.90090000629425 52.910709381103516,41.90090000629425 51.8832802772522,43.32124888896942 51.8832802772522,43.32124888896942 50.642549991607666,44.47685480117798 50.642549991607666,44.47685480117798 49.230581521987915,45.35933434963226 49.230581521987915,45.35933434963226 47.68927991390228,45.95998227596283 47.68927991390228,45.95998227596283 46.060964465141296,46.27024531364441 46.060964465141296,46.27024531364441 44.38762068748474,46.28158509731293 44.38762068748474,46.28158509731293 42.711564898490906,45.98528742790222 42.711564898490906,45.98528742790222 41.07462167739868,45.37297487258911 41.07462167739868,45.37297487258911 31.8218857049942,40.91028571128845 31.8218857049942,40.91028571128845" stroke="white" stroke-width="0.1" /><polygon points="81.92837834358215,20.534023642539978 81.92837834358215,20.534023642539978 81.92837834358215,20.534023642539978 81.92837834358215,20.534023642539978 79.84830141067505,21.273121237754822 79.84830141067505,21.273121237754822 77.94866561889648,22.334975004196167 77.94866561889648,22.334975004196167 76.25938057899475,23.68161976337433 76.25938057899475,23.68161976337433 74.81002807617188,25.274932384490967 74.81002807617188,25.274932384490967 73.63067865371704,27.07687020301819 73.63067865371704,27.07687020301819 72.75106906890869,29.04922068119049 72.75106906890869,29.04922068119049 72.20104336738586,31.154191493988037 72.20104336738586,31.154191493988037 72.01040983200073,33.35349261760712 72.01040983200073,33.35349261760712 71.99792265892029,34.172868728637695 71.99792265892029,34.172868728637695 71.99217081069946,34.99257266521454 71.99217081069946,34.99257266521454 71.99134826660156,35.8125239610672 71.99134826660156,35.8125239610672 71.99414372444153,36.63263916969299 71.99414372444153,36.63263916969299 71.99898958206177,37.45275437831879 71.99898958206177,37.45275437831879 72.00433015823364,38.27270567417145 72.00433015823364,38.27270567417145 72.00860381126404,39.09240961074829 72.00860381126404,39.09240961074829 72.01040983200073,39.91178572177887 72.01040983200073,39.91178572177887 72.01040983200073,51.78796648979187 72.01040983200073,51.78796648979187 72.00301885604858,52.734375 72.00301885604858,52.734375 71.98625206947327,53.68850827217102 71.98625206947327,53.68850827217102 71.96817994117737,54.64756488800049 71.96817994117737,54.64756488800049 71.95683717727661,55.608928203582764 71.95683717727661,55.608928203582764 71.96053862571716,56.56962990760803 71.96053862571716,56.56962990760803 71.98707461357117,57.52713084220886 71.98707461357117,57.52713084220886 72.04492092132568,58.4785521030426 72.04492092132568,58.4785521030426 72.14187979698181,59.4210147857666 72.14187979698181,59.4210147857666 72.1966028213501,59.72898006439209 72.1966028213501,59.72898006439209 72.26439118385315,59.989529848098755 72.26439118385315,59.989529848098755 72.32725024223328,60.209494829177856 72.32725024223328,60.209494829177856 72.36768007278442,60.395193099975586 72.36768007278442,60.395193099975586 72.36775755882263,60.553282499313354 72.36775755882263,60.553282499313354 72.30975031852722,60.69042086601257 72.30975031852722,60.69042086601257 72.17597961425781,60.81293225288391 72.17597961425781,60.81293225288391 71.94862365722656,60.92764139175415 71.94862365722656,60.92764139175415 71.78207039833069,60.99510192871094 71.78207039833069,60.99510192871094 71.61551713943481,61.06255650520325 71.61551713943481,61.06255650520325 71.44912481307983,61.129772663116455 71.44912481307983,61.129772663116455 71.28273844718933,61.19714975357056 71.28273844718933,61.19714975357056 71.11634612083435,61.26444339752197 71.11634612083435,61.26444339752197 70.94995379447937,61.331820487976074 70.94995379447937,61.331820487976074 70.78348398208618,61.39912009239197 70.78348398208618,61.39912009239197 70.61684727668762,61.46665811538696 70.61684727668762,61.46665811538696 65.45671820640564,63.55043053627014 65.45671820640564,63.55043053627014 49.491217732429504,70.00157833099365 49.491217732429504,70.00157833099365 33.711084723472595,76.37778520584106 33.711084723472595,76.37778520584106 32.71956741809845,76.79766416549683 32.71956741809845,76.79766416549683 31.70257806777954,77.25344896316528 31.70257806777954,77.25344896316528 30.665048956871033,77.72254347801208 30.665048956871033,77.72254347801208 29.612070322036743,78.18251848220825 29.612070322036743,78.18251848220825 28.548574447631836,78.61085534095764 28.548574447631836,78.61085534095764 27.47941017150879,78.98488640785217 27.47941017150879,78.98488640785217 26.409751176834106,79.2823314666748 26.409751176834106,79.2823314666748 25.344446301460266,79.48043942451477 25.344446301460266,79.48043942451477 23.962058126926422,79.54395413398743 23.962058126926422,79.54395413398743 22.60744273662567,79.37600016593933 22.60744273662567,79.37600016593933 21.307221055030823,78.99203300476074 21.307221055030823,78.99203300476074 20.088182389736176,78.40749025344849 20.088182389736176,78.40749025344849 18.977029621601105,77.63774394989014 18.977029621601105,77.63774394989014 18.00054907798767,76.69824361801147 18.00054907798767,76.69824361801147 17.18544512987137,75.60425996780396 17.18544512987137,75.60425996780396 16.55842512845993,74.37158226966858 16.55842512845993,74.37158226966858 16.41693115234375,74.02105331420898 16.41693115234375,74.02105331420898 16.27543866634369,73.67053031921387 16.27543866634369,73.67053031921387 16.133946180343628,73.32000136375427 16.133946180343628,73.32000136375427 15.992453694343567,72.96947240829468 15.992453694343567,72.96947240829468 15.850961208343506,72.61894345283508 15.850961208343506,72.61894345283508 15.709468722343445,72.26842045783997 15.709468722343445,72.26842045783997 15.567976236343384,71.91789150238037 15.567976236343384,71.91789150238037 15.426482260227203,71.56736254692078 15.426482260227203,71.56736254692078 9.619531035423279,57.195258140563965 9.619531035423279,57.195258140563965 3.0934475362300873,41.040438413619995 3.0934475362300873,41.040438413619995 2.576284483075142,39.82468843460083 2.576284483075142,39.82468843460083 2.010149322450161,38.55207562446594 2.010149322450161,38.55207562446594 1.4394128695130348,37.23616003990173 1.4394128695130348,37.23616003990173 0.9089385159313679,35.890498757362366 0.9089385159313679,35.890498757362366 0.4631790332496166,34.52865481376648 0.4631790332496166,34.52865481376648 0.1467514201067388,33.16434323787689 0.1467514201067388,33.16434323787689 0.00419054995290935,31.81104063987732 0.00419054995290935,31.81104063987732 0.080195622285828,30.482226610183716 0.080195622285828,30.482226610183716 0.9308773092925549,31.361007690429688 0.9308773092925549,31.361007690429688 1.8780237063765526,32.14004039764404 1.8780237063765526,32.14004039764404 2.9015861451625824,32.8355073928833 2.9015861451625824,32.8355073928833 3.9815153926610947,33.46351385116577 3.9815153926610947,33.46351385116577 5.097680911421776,34.04024839401245 5.097680911421776,34.04024839401245 6.229951232671738,34.58181619644165 6.229951232671738,34.58181619644165 7.358277589082718,35.10431945323944 7.358277589082718,35.10431945323944 8.462610095739365,35.62394678592682 8.462610095739365,35.62394678592682 20.64182758331299,41.4966344833374 20.64182758331299,41.4966344833374 33.4100216627121,47.6532906293869 33.4100216627121,47.6532906293869 34.29250419139862,48.08812439441681 34.29250419139862,48.08812439441681 35.1784348487854,48.53659272193909 35.1784348487854,48.53659272193909 36.06896698474884,48.98950159549713 36.06896698474884,48.98950159549713 36.96492314338684,49.43723380565643 36.96492314338684,49.43723380565643 37.867289781570435,49.87042248249054 37.867289781570435,49.87042248249054 38.77696692943573,50.27953386306763 38.77696692943573,50.27953386306763 39.695027470588684,50.65520405769348 39.695027470588684,50.65520405769348 40.622371435165405,50.987982749938965 40.622371435165405,50.987982749938965 43.55098903179169,51.63924694061279 43.55098903179169,51.63924694061279 46.40664458274841,51.67572498321533 46.40664458274841,51.67572498321533 49.13395345211029,51.144760847091675 49.13395345211029,51.144760847091675 51.67786478996277,50.09350776672363 51.67786478996277,50.09350776672363 53.98299694061279,48.569461703300476 53.98299694061279,48.569461703300476 55.9941291809082,46.61986827850342 55.9941291809082,46.61986827850342 57.65613317489624,44.29214298725128 57.65613317489624,44.29214298725128 58.9135468006134,41.63336157798767 58.9135468006134,41.63336157798767 63.36900591850281,29.558661580085754 63.36900591850281,29.558661580085754 69.5098876953125,12.919384241104126 69.5098876953125,12.919384241104126 70.04315257072449,11.537652462720871 70.04315257072449,11.537652462720871 70.62087655067444,10.100457817316055 70.62087655067444,10.100457817316055 71.20352387428284,8.621686697006226 71.20352387428284,8.621686697006226 71.75191044807434,7.1152254939079285 71.75191044807434,7.1152254939079285 72.22651243209839,5.595041811466217 72.22651243209839,5.595041811466217 72.5878894329071,4.075022414326668 72.5878894329071,4.075022414326668 72.79675602912903,2.5691358372569084 72.79675602912903,2.5691358372569084 72.81368374824524,1.0911863297224045 72.81368374824524,1.0911863297224045 73.84069561958313,2.0394831895828247 73.84069561958313,2.0394831895828247 74.71767067909241,3.1717944890260696 74.71767067909241,3.1717944890260696 75.46901106834412,4.443215578794479 75.46901106834412,4.443215578794479 76.11961364746094,5.808841809630394 76.11961364746094,5.808841809630394 76.69380307197571,7.2237275540828705 76.69380307197571,7.2237275540828705 77.21614241600037,8.642968535423279 77.21614241600037,8.642968535423279 77.71128416061401,10.02165973186493 77.71128416061401,10.02165973186493 78.20388078689575,11.314813792705536 78.20388078689575,11.314813792705536" stroke="white" stroke-width="0.1" /><polygon points="97.83734679222107,33.68610739707947 97.83734679222107,33.68610739707947 97.83734679222107,33.68610739707947 97.83734679222107,33.68610739707947 98.8110363483429,33.99752080440521 98.8110363483429,33.99752080440521 99.45029616355896,34.833824634552 99.45029616355896,34.833824634552 99.81799721717834,36.04809641838074 99.81799721717834,36.04809641838074 99.97748732566833,37.49334514141083 99.97748732566833,37.49334514141083 99.99161958694458,39.02256786823273 99.99161958694458,39.02256786823273 99.92374777793884,40.4889315366745 99.92374777793884,40.4889315366745 99.83657002449036,41.74543917179108 99.83657002449036,41.74543917179108 99.7935950756073,42.645010352134705 99.7935950756073,42.645010352134705 99.7935950756073,55.849021673202515 99.7935950756073,55.849021673202515 99.70518350601196,57.70288705825806 99.70518350601196,57.70288705825806 99.43057894706726,59.49792265892029 99.43057894706726,59.49792265892029 98.95540475845337,61.20906472206116 98.95540475845337,61.20906472206116 98.26527833938599,62.81092166900635 98.26527833938599,62.81092166900635 97.3459005355835,64.27851915359497 97.3459005355835,64.27851915359497 96.18298411369324,65.58654308319092 96.18298411369324,65.58654308319092 94.76205706596375,66.70977473258972 94.76205706596375,66.70977473258972 93.06899309158325,67.6233172416687 93.06899309158325,67.6233172416687 90.63477516174316,68.3620035648346 90.63477516174316,68.3620035648346 88.17443251609802,68.51927042007446 88.17443251609802,68.51927042007446 85.77333092689514,68.13892126083374 85.77333092689514,68.13892126083374 83.51733684539795,67.26523041725159 83.51733684539795,67.26523041725159 81.49182200431824,65.9422516822815 81.49182200431824,65.9422516822815 79.78240251541138,64.21401500701904 79.78240251541138,64.21401500701904 78.47478985786438,62.12465763092041 78.47478985786438,62.12465763092041 77.65434384346008,59.71813201904297 77.65434384346008,59.71813201904297 77.53676176071167,59.06588435173035 77.53676176071167,59.06588435173035 77.45746970176697,58.406901359558105 77.45746970176697,58.406901359558105 77.4094820022583,57.74298906326294 77.4094820022583,57.74298906326294 77.38581895828247,57.075947523117065 77.38581895828247,57.075947523117065 77.3794949054718,56.407517194747925 77.3794949054718,56.407517194747925 77.38368511199951,55.73957562446594 77.38368511199951,55.73957562446594 77.39124298095703,55.073851346969604 77.39124298095703,55.073851346969604 77.39534974098206,54.4120728969574 77.39534974098206,54.4120728969574 77.39534974098206,46.10393941402435 77.39534974098206,46.10393941402435 77.38959789276123,44.51218843460083 77.38959789276123,44.51218843460083 77.37579345703125,42.918628454208374 77.37579345703125,42.918628454208374 77.35862135887146,41.32391810417175 77.35862135887146,41.32391810417175 77.34309434890747,39.72863256931305 77.34309434890747,39.72863256931305 77.33413577079773,38.13351392745972 77.33413577079773,38.13351392745972 77.33651995658875,36.53913140296936 77.33651995658875,36.53913140296936 77.35533714294434,34.94590222835541 77.35533714294434,34.94590222835541 77.39534974098206,33.354806900024414 77.39534974098206,33.354806900024414 77.57283449172974,31.718027591705322 77.57283449172974,31.718027591705322 78.07808518409729,30.194145441055298 78.07808518409729,30.194145441055298 78.87173891067505,28.820139169692993 78.87173891067505,28.820139169692993 79.91461157798767,27.632898092269897 79.91461157798767,27.632898092269897 81.16742372512817,26.66948139667511 81.16742372512817,26.66948139667511 82.59081244468689,25.966784358024597 82.59081244468689,25.966784358024597 84.14550423622131,25.561943650245667 84.14550423622131,25.561943650245667 85.79222559928894,25.491690635681152 85.79222559928894,25.491690635681152 87.28406429290771,25.73852241039276 87.28406429290771,25.73852241039276 88.66990208625793,26.257985830307007 88.66990208625793,26.257985830307007 89.92115259170532,27.01910436153412 89.92115259170532,27.01910436153412 91.00921750068665,27.990901470184326 91.00921750068665,27.990901470184326 91.90533757209778,29.142236709594727 91.90533757209778,29.142236709594727 92.58099794387817,30.442127585411072 92.58099794387817,30.442127585411072 93.00736784934998,31.859520077705383 93.00736784934998,31.859520077705383 93.15576553344727,33.363351225852966 93.15576553344727,33.363351225852966 93.15576553344727,46.990033984184265 93.15576553344727,46.990033984184265 93.15576553344727,54.112327098846436 93.15576553344727,54.112327098846436 93.15831065177917,54.33878302574158 93.15831065177917,54.33878302574158 93.16266775131226,54.5698344707489 93.16266775131226,54.5698344707489 93.1640625,54.80327606201172 93.1640625,54.80327606201172 93.15757155418396,55.03687858581543 93.15757155418396,55.03687858581543 93.13859343528748,55.26842474937439 93.13859343528748,55.26842474937439 93.1018590927124,55.495619773864746 93.1018590927124,55.495619773864746 93.04319620132446,55.716073513031006 93.04319620132446,55.716073513031006 92.95724630355835,55.92790246009827 92.95724630355835,55.92790246009827 92.54148006439209,56.49592876434326 92.54148006439209,56.49592876434326 92.00007319450378,56.845057010650635 92.00007319450378,56.845057010650635 91.38875007629395,56.98819160461426 91.38875007629395,56.98819160461426 90.76337218284607,56.938236951828 90.76337218284607,56.938236951828 90.1797354221344,56.7080020904541 90.1797354221344,56.7080020904541 89.69387412071228,56.31064176559448 89.69387412071228,56.31064176559448 89.36126232147217,55.75880408287048 89.36126232147217,55.75880408287048 89.23801183700562,55.065470933914185 89.23801183700562,55.065470933914185 89.1742467880249,54.47246432304382 89.1742467880249,54.47246432304382 89.14433717727661,53.8602352142334 89.14433717727661,53.8602352142334 89.14039731025696,53.235024213790894 89.14039731025696,53.235024213790894 89.1546905040741,52.60315537452698 89.1546905040741,52.60315537452698 89.17942643165588,51.97095274925232 89.17942643165588,51.97095274925232 89.20678496360779,51.34475827217102 89.20678496360779,51.34475827217102 89.22889232635498,50.73080062866211 89.22889232635498,50.73080062866211 89.23801183700562,50.13540983200073 89.23801183700562,50.13540983200073 89.23801183700562,41.302719712257385 89.23801183700562,41.302719712257385 89.29215669631958,39.73495960235596 89.29215669631958,39.73495960235596 89.3883764743805,37.88996636867523 89.3883764743805,37.88996636867523 89.42699432373047,35.917532444000244 89.42699432373047,35.917532444000244 89.30851221084595,33.96769464015961 89.30851221084595,33.96769464015961 88.93349766731262,32.190245389938354 88.93349766731262,32.190245389938354 88.20253610610962,30.73505461215973 88.20253610610962,30.73505461215973 87.01595067977905,29.751920700073242 87.01595067977905,29.751920700073242 85.27424335479736,29.391038417816162 85.27424335479736,29.391038417816162 83.53450894355774,29.768353700637817 83.53450894355774,29.768353700637817 82.34891295433044,30.785998702049255 82.34891295433044,30.785998702049255 81.61827325820923,32.28391408920288 81.61827325820923,32.28391408920288 81.24309778213501,34.10187363624573 81.24309778213501,34.10187363624573 81.12412095069885,36.07965111732483 81.12412095069885,36.07965111732483 81.16224408149719,38.05709779262543 81.16224408149719,38.05709779262543 81.25788569450378,39.87415134906769 81.25788569450378,39.87415134906769 81.31179213523865,41.37042462825775 81.31179213523865,41.37042462825775 81.31179213523865,56.66806697845459 81.31179213523865,56.66806697845459 81.35961294174194,57.70255923271179 81.35961294174194,57.70255923271179 81.50652647018433,58.706897497177124 81.50652647018433,58.706897497177124 81.75812363624573,59.67154502868652 81.75812363624573,59.67154502868652 82.12015628814697,60.58664321899414 82.12015628814697,60.58664321899414 82.59787559509277,61.4423394203186 82.59787559509277,61.4423394203186 83.19696187973022,62.229013442993164 83.19696187973022,62.229013442993164 83.92291069030762,62.9366397857666 83.92291069030762,62.9366397857666 84.78123545646667,63.55568766593933 84.78123545646667,63.55568766593933 86.22146844863892,64.23341035842896 86.22146844863892,64.23341035842896 87.73113489151001,64.5673394203186 87.73113489151001,64.5673394203186 89.25674557685852,64.57432508468628 89.25674557685852,64.57432508468628 90.74479937553406,64.2715334892273 90.74479937553406,64.2715334892273 92.14197993278503,63.67582082748413 92.14197993278503,63.67582082748413 93.39495301246643,62.80434727668762 93.39495301246643,62.80434727668762 94.44998502731323,61.67396903038025 94.44998502731323,61.67396903038025 95.25399804115295,60.301852226257324 95.25399804115295,60.301852226257324 95.50657868385315,59.62972044944763 95.50657868385315,59.62972044944763 95.68324089050293,58.94419550895691 95.68324089050293,58.94419550895691 95.7969605922699,58.24798941612244 95.7969605922699,58.24798941612244 95.86105346679688,57.543814182281494 95.86105346679688,57.543814182281494 95.8881676197052,56.83421492576599 95.8881676197052,56.83421492576599 95.89145183563232,56.12189769744873 95.89145183563232,56.12189769744873 95.88397741317749,55.40975332260132 95.88397741317749,55.40975332260132 95.87846994400024,54.699987173080444 95.87846994400024,54.699987173080444 95.87846994400024,46.31165862083435 95.87846994400024,46.31165862083435 95.87846994400024,38.046908378601074 95.87846994400024,38.046908378601074 95.86548805236816,37.41150498390198 95.86548805236816,37.41150498390198 95.85135579109192,36.7071658372879 95.85135579109192,36.7071658372879 95.87362408638,35.98129451274872 95.87362408638,35.98129451274872 95.96951007843018,35.281309485435486 95.96951007843018,35.281309485435486 96.1764931678772,34.654369950294495 96.1764931678772,34.654369950294495 96.53186798095703,34.14805233478546 96.53186798095703,34.14805233478546 97.07302451133728,33.80952179431915 97.07302451133728,33.80952179431915" stroke="white" stroke-width="0.1" /><polygon points="6.888935714960098,28.8848876953125 6.888935714960098,28.8848876953125 6.510800123214722,28.700748085975647 5.995116010308266,28.429019451141357 5.407945811748505,28.083917498588562 4.814859852194786,27.67973244190216 4.281920567154884,27.23068594932556 3.8748618215322495,26.751074194908142 3.6596648395061493,26.25519335269928 3.7021454423666,25.757256150245667 4.1908785700798035,24.98767524957657 4.969334974884987,24.298617243766785 5.9598661959171295,23.684002459049225 7.084658741950989,23.137834668159485 8.2661472260952,22.65419512987137 9.426519274711609,22.22708910703659 10.48804298043251,21.850596368312836 11.373317241668701,21.5187206864357 25.013145804405212,16.007572412490845 56.76929950714111,3.1769298017024994 57.597386837005615,2.837659791111946 58.42505693435669,2.4921447038650513 59.2529833316803,2.144164778292179 60.08197069168091,1.7976637929677963 60.913097858428955,1.4565037563443184 61.747342348098755,1.124628633260727 62.58537173271179,0.8058591745793819 63.42816352844238,0.504180695861578 63.95091414451599,0.3338882466778159 64.55764174461365,0.16905993688851595 65.20323157310486,0.045808462891727686 65.84274172782898,0.0002465029410814168 66.43139123916626,0.06852782098576427 66.92390441894531,0.2868472598493099 67.27582812309265,0.6913174875080585 67.44189262390137,1.3179690577089787 67.45602488517761,1.7622085288167 67.43268966674805,2.2058315575122833 67.37656593322754,2.647605910897255 67.29234457015991,3.086463361978531 67.1848714351654,3.521253541111946 67.05882549285889,3.9507027715444565 66.91897511482239,4.373783990740776 66.77008867263794,4.789387807250023 66.60887598991394,5.22717721760273 66.44741892814636,5.664966255426407 66.2859559059143,6.102755665779114 66.12441539764404,6.540545076131821 65.96287488937378,6.978333741426468 65.80116748809814,7.416123151779175 65.63937664031982,7.853912562131882 65.47775268554688,8.291701972484589 54.41470146179199,38.27500641345978 54.24790382385254,38.73440325260162 54.082417488098145,39.1972541809082 53.914546966552734,39.66100811958313 53.74060273170471,40.12295603752136 53.55687141418457,40.580546855926514 53.35983633995056,41.03107154369354 53.145623207092285,41.47214889526367 52.910709381103516,41.90090000629425 51.8832802772522,43.32124888896942 50.642549991607666,44.47685480117798 49.230581521987915,45.35933434963226 47.68927991390228,45.95998227596283 46.060964465141296,46.27024531364441 44.38762068748474,46.28158509731293 42.711564898490906,45.98528742790222 41.07462167739868,45.37297487258911 31.8218857049942,40.91028571128845" stroke="white" stroke-width="0.1" /><polygon points="81.92837834358215,20.534023642539978 81.92837834358215,20.534023642539978 79.84830141067505,21.273121237754822 77.94866561889648,22.334975004196167 76.25938057899475,23.68161976337433 74.81002807617188,25.274932384490967 73.63067865371704,27.07687020301819 72.75106906890869,29.04922068119049 72.20104336738586,31.154191493988037 72.01040983200073,33.35349261760712 71.99792265892029,34.172868728637695 71.99217081069946,34.99257266521454 71.99134826660156,35.8125239610672 71.99414372444153,36.63263916969299 71.99898958206177,37.45275437831879 72.00433015823364,38.27270567417145 72.00860381126404,39.09240961074829 72.01040983200073,39.91178572177887 72.01040983200073,51.78796648979187 72.00301885604858,52.734375 71.98625206947327,53.68850827217102 71.96817994117737,54.64756488800049 71.95683717727661,55.608928203582764 71.96053862571716,56.56962990760803 71.98707461357117,57.52713084220886 72.04492092132568,58.4785521030426 72.14187979698181,59.4210147857666 72.1966028213501,59.72898006439209 72.26439118385315,59.989529848098755 72.32725024223328,60.209494829177856 72.36768007278442,60.395193099975586 72.36775755882263,60.553282499313354 72.30975031852722,60.69042086601257 72.17597961425781,60.81293225288391 71.94862365722656,60.92764139175415 71.78207039833069,60.99510192871094 71.61551713943481,61.06255650520325 71.44912481307983,61.129772663116455 71.28273844718933,61.19714975357056 71.11634612083435,61.26444339752197 70.94995379447937,61.331820487976074 70.78348398208618,61.39912009239197 70.61684727668762,61.46665811538696 65.45671820640564,63.55043053627014 49.491217732429504,70.00157833099365 33.711084723472595,76.37778520584106 32.71956741809845,76.79766416549683 31.70257806777954,77.25344896316528 30.665048956871033,77.72254347801208 29.612070322036743,78.18251848220825 28.548574447631836,78.61085534095764 27.47941017150879,78.98488640785217 26.409751176834106,79.2823314666748 25.344446301460266,79.48043942451477 23.962058126926422,79.54395413398743 22.60744273662567,79.37600016593933 21.307221055030823,78.99203300476074 20.088182389736176,78.40749025344849 18.977029621601105,77.63774394989014 18.00054907798767,76.69824361801147 17.18544512987137,75.60425996780396 16.55842512845993,74.37158226966858 16.41693115234375,74.02105331420898 16.27543866634369,73.67053031921387 16.133946180343628,73.32000136375427 15.992453694343567,72.96947240829468 15.850961208343506,72.61894345283508 15.709468722343445,72.26842045783997 15.567976236343384,71.91789150238037 15.426482260227203,71.56736254692078 9.619531035423279,57.195258140563965 3.0934475362300873,41.040438413619995 2.576284483075142,39.82468843460083 2.010149322450161,38.55207562446594 1.4394128695130348,37.23616003990173 0.9089385159313679,35.890498757362366 0.4631790332496166,34.52865481376648 0.1467514201067388,33.16434323787689 0.00419054995290935,31.81104063987732 0.080195622285828,30.482226610183716 0.9308773092925549,31.361007690429688 1.8780237063765526,32.14004039764404 2.9015861451625824,32.8355073928833 3.9815153926610947,33.46351385116577 5.097680911421776,34.04024839401245 6.229951232671738,34.58181619644165 7.358277589082718,35.10431945323944 8.462610095739365,35.62394678592682 20.64182758331299,41.4966344833374 33.4100216627121,47.6532906293869 34.29250419139862,48.08812439441681 35.1784348487854,48.53659272193909 36.06896698474884,48.98950159549713 36.96492314338684,49.43723380565643 37.867289781570435,49.87042248249054 38.77696692943573,50.27953386306763 39.695027470588684,50.65520405769348 40.622371435165405,50.987982749938965 43.55098903179169,51.63924694061279 46.40664458274841,51.67572498321533 49.13395345211029,51.144760847091675 51.67786478996277,50.09350776672363 53.98299694061279,48.569461703300476 55.9941291809082,46.61986827850342 57.65613317489624,44.29214298725128 58.9135468006134,41.63336157798767 63.36900591850281,29.558661580085754 69.5098876953125,12.919384241104126 70.04315257072449,11.537652462720871 70.62087655067444,10.100457817316055 71.20352387428284,8.621686697006226 71.75191044807434,7.1152254939079285 72.22651243209839,5.595041811466217 72.5878894329071,4.075022414326668 72.79675602912903,2.5691358372569084 72.81368374824524,1.0911863297224045 73.84069561958313,2.0394831895828247 74.71767067909241,3.1717944890260696 75.46901106834412,4.443215578794479 76.11961364746094,5.808841809630394 76.69380307197571,7.2237275540828705 77.21614241600037,8.642968535423279 77.71128416061401,10.02165973186493 78.20388078689575,11.314813792705536" stroke="white" stroke-width="0.1" /><polygon points="97.83734679222107,33.68610739707947 97.83734679222107,33.68610739707947 98.8110363483429,33.99752080440521 99.45029616355896,34.833824634552 99.81799721717834,36.04809641838074 99.97748732566833,37.49334514141083 99.99161958694458,39.02256786823273 99.92374777793884,40.4889315366745 99.83657002449036,41.74543917179108 99.7935950756073,42.645010352134705 99.7935950756073,55.849021673202515 99.70518350601196,57.70288705825806 99.43057894706726,59.49792265892029 98.95540475845337,61.20906472206116 98.26527833938599,62.81092166900635 97.3459005355835,64.27851915359497 96.18298411369324,65.58654308319092 94.76205706596375,66.70977473258972 93.06899309158325,67.6233172416687 90.63477516174316,68.3620035648346 88.17443251609802,68.51927042007446 85.77333092689514,68.13892126083374 83.51733684539795,67.26523041725159 81.49182200431824,65.9422516822815 79.78240251541138,64.21401500701904 78.47478985786438,62.12465763092041 77.65434384346008,59.71813201904297 77.53676176071167,59.06588435173035 77.45746970176697,58.406901359558105 77.4094820022583,57.74298906326294 77.38581895828247,57.075947523117065 77.3794949054718,56.407517194747925 77.38368511199951,55.73957562446594 77.39124298095703,55.073851346969604 77.39534974098206,54.4120728969574 77.39534974098206,46.10393941402435 77.38959789276123,44.51218843460083 77.37579345703125,42.918628454208374 77.35862135887146,41.32391810417175 77.34309434890747,39.72863256931305 77.33413577079773,38.13351392745972 77.33651995658875,36.53913140296936 77.35533714294434,34.94590222835541 77.39534974098206,33.354806900024414 77.57283449172974,31.718027591705322 78.07808518409729,30.194145441055298 78.87173891067505,28.820139169692993 79.91461157798767,27.632898092269897 81.16742372512817,26.66948139667511 82.59081244468689,25.966784358024597 84.14550423622131,25.561943650245667 85.79222559928894,25.491690635681152 87.28406429290771,25.73852241039276 88.66990208625793,26.257985830307007 89.92115259170532,27.01910436153412 91.00921750068665,27.990901470184326 91.90533757209778,29.142236709594727 92.58099794387817,30.442127585411072 93.00736784934998,31.859520077705383 93.15576553344727,33.363351225852966 93.15576553344727,46.990033984184265 93.15576553344727,54.112327098846436 93.15831065177917,54.33878302574158 93.16266775131226,54.5698344707489 93.1640625,54.80327606201172 93.15757155418396,55.03687858581543 93.13859343528748,55.26842474937439 93.1018590927124,55.495619773864746 93.04319620132446,55.716073513031006 92.95724630355835,55.92790246009827 92.54148006439209,56.49592876434326 92.00007319450378,56.845057010650635 91.38875007629395,56.98819160461426 90.76337218284607,56.938236951828 90.1797354221344,56.7080020904541 89.69387412071228,56.31064176559448 89.36126232147217,55.75880408287048 89.23801183700562,55.065470933914185 89.1742467880249,54.47246432304382 89.14433717727661,53.8602352142334 89.14039731025696,53.235024213790894 89.1546905040741,52.60315537452698 89.17942643165588,51.97095274925232 89.20678496360779,51.34475827217102 89.22889232635498,50.73080062866211 89.23801183700562,50.13540983200073 89.23801183700562,41.302719712257385 89.29215669631958,39.73495960235596 89.3883764743805,37.88996636867523 89.42699432373047,35.917532444000244 89.30851221084595,33.96769464015961 88.93349766731262,32.190245389938354 88.20253610610962,30.73505461215973 87.01595067977905,29.751920700073242 85.27424335479736,29.391038417816162 83.53450894355774,29.768353700637817 82.34891295433044,30.785998702049255 81.61827325820923,32.28391408920288 81.24309778213501,34.10187363624573 81.12412095069885,36.07965111732483 81.16224408149719,38.05709779262543 81.25788569450378,39.87415134906769 81.31179213523865,41.37042462825775 81.31179213523865,56.66806697845459 81.35961294174194,57.70255923271179 81.50652647018433,58.706897497177124 81.75812363624573,59.67154502868652 82.12015628814697,60.58664321899414 82.59787559509277,61.4423394203186 83.19696187973022,62.229013442993164 83.92291069030762,62.9366397857666 84.78123545646667,63.55568766593933 86.22146844863892,64.23341035842896 87.73113489151001,64.5673394203186 89.25674557685852,64.57432508468628 90.74479937553406,64.2715334892273 92.14197993278503,63.67582082748413 93.39495301246643,62.80434727668762 94.44998502731323,61.67396903038025 95.25399804115295,60.301852226257324 95.50657868385315,59.62972044944763 95.68324089050293,58.94419550895691 95.7969605922699,58.24798941612244 95.86105346679688,57.543814182281494 95.8881676197052,56.83421492576599 95.89145183563232,56.12189769744873 95.88397741317749,55.40975332260132 95.87846994400024,54.699987173080444 95.87846994400024,46.31165862083435 95.87846994400024,38.046908378601074 95.86548805236816,37.41150498390198 95.85135579109192,36.7071658372879 95.87362408638,35.98129451274872 95.96951007843018,35.281309485435486 96.1764931678772,34.654369950294495 96.53186798095703,34.14805233478546 97.07302451133728,33.80952179431915" stroke="white" stroke-width="0.1" /></svg>