<?xml version="1.0" encoding="utf-8" ?>
<svg baseProfile="full" height="42.71119832992554" version="1.1" width="99.99979734420776" xmlns="http://www.w3.org/2000/svg" xmlns:ev="http://www.w3.org/2001/xml-events" xmlns:xlink="http://www.w3.org/1999/xlink"><defs><clipPath /></defs><polygon points="0.003901753734680824,23.397517204284668 0.003901753734680824,23.397517204284668 0.03983040514867753,22.760027647018433 0.03983040514867753,22.760027647018433 0.19598184153437614,22.242353856563568 0.19598184153437614,22.242353856563568 0.44325548224151134,21.812185645103455 0.44325548224151134,21.812185645103455 0.7524694781750441,21.43704891204834 0.7524694781750441,21.43704891204834 1.0945232585072517,21.08467072248459 1.0945232585072517,21.08467072248459 1.4402348548173904,20.722702145576477 1.4402348548173904,20.722702145576477 1.760544441640377,20.318707823753357 1.760544441640377,20.318707823753357 2.0263107493519783,19.840417802333832 2.0263107493519783,19.840417802333832 2.180999144911766,19.40939575433731 2.180999144911766,19.40939575433731 2.2946782410144806,18.952444195747375 2.2946782410144806,18.952444195747375 2.3760054260492325,18.47720295190811 2.3760054260492325,18.47720295190811 2.433556318283081,17.991311848163605 2.433556318283081,17.991311848163605 2.475947327911854,17.502373456954956 2.475947327911854,17.502373456954956 2.511713467538357,17.017987370491028 2.511713467538357,17.017987370491028 2.549511566758156,16.545793414115906 2.549511566758156,16.545793414115906 2.597917802631855,16.093434393405914 2.597917802631855,16.093434393405914 2.689243108034134,15.317919850349426 2.689243108034134,15.317919850349426 2.8051983565092087,14.403161406517029 2.8051983565092087,14.403161406517029 2.9706571251153946,13.421261310577393 2.9706571251153946,13.421261310577393 3.210493177175522,12.444481253623962 3.210493177175522,12.444481253623962 3.549579903483391,11.544964462518692 3.549579903483391,11.544964462518692 4.012791067361832,10.79477071762085 4.012791067361832,10.79477071762085 4.6250008046627045,10.266204923391342 4.6250008046627045,10.266204923391342 5.41108213365078,10.031408816576004 5.41108213365078,10.031408816576004 6.6212765872478485,9.963209927082062 6.6212765872478485,9.963209927082062 7.826349139213562,9.91634801030159 7.826349139213562,9.91634801030159 9.02264341711998,9.863918274641037 9.02264341711998,9.863918274641037 10.206419229507446,9.779095649719238 10.206419229507446,9.779095649719238 11.374059319496155,9.635015577077866 11.374059319496155,9.635015577077866 12.521785497665405,9.404852241277695 12.521785497665405,9.404852241277695 13.645896315574646,9.061620384454727 13.645896315574646,9.061620384454727 14.74277675151825,8.578655868768692 14.74277675151825,8.578655868768692 16.017308831214905,7.910683751106262 16.017308831214905,7.910683751106262 17.29322373867035,7.2351522743701935 17.29322373867035,7.2351522743701935 18.57275515794754,6.560555100440979 18.57275515794754,6.560555100440979 19.85822021961212,5.895387381315231 19.85822021961212,5.895387381315231 21.15197628736496,5.24822473526001 21.15197628736496,5.24822473526001 22.456300258636475,4.627601802349091 22.456300258636475,4.627601802349091 23.773427307605743,4.041973128914833 23.773427307605743,4.041973128914833 25.105834007263184,3.4998733550310135 25.105834007263184,3.4998733550310135 26.664504408836365,2.9341189190745354 26.664504408836365,2.9341189190745354 28.24430763721466,2.4288417771458626 28.24430763721466,2.4288417771458626 29.842442274093628,1.9811155274510384 29.842442274093628,1.9811155274510384 31.455695629119873,1.588013768196106 31.455695629119873,1.588013768196106 33.08118283748627,1.246610376983881 33.08118283748627,1.246610376983881 34.715935587882996,0.9539788588881493 34.715935587882996,0.9539788588881493 36.356908082962036,0.7071929052472115 36.356908082962036,0.7071929052472115 38.001132011413574,0.503326253965497 38.001132011413574,0.503326253965497 39.60198760032654,0.33335608895868063 39.60198760032654,0.33335608895868063 41.23613238334656,0.18553652334958315 41.23613238334656,0.18553652334958315 42.8919792175293,0.07307659834623337 42.8919792175293,0.07307659834623337 44.55811083316803,0.009429238707525656 44.55811083316803,0.009429238707525656 46.22306227684021,0.007803507469361648 46.22306227684021,0.007803507469361648 47.875332832336426,0.08153039962053299 47.875332832336426,0.08153039962053299 49.50346052646637,0.24406283628195524 49.50346052646637,0.24406283628195524 51.09606981277466,0.5085285753011703 51.09606981277466,0.5085285753011703 52.327316999435425,0.8049805648624897 52.327316999435425,0.8049805648624897 53.537917137145996,1.1817436665296555 53.537917137145996,1.1817436665296555 54.72729802131653,1.6292260959744453 54.72729802131653,1.6292260959744453 55.8952271938324,2.137835882604122 55.8952271938324,2.137835882604122 57.04116225242615,2.6980221271514893 57.04116225242615,2.6980221271514893 58.16478729248047,3.30023355782032 58.16478729248047,3.30023355782032 59.26556587219238,3.93487811088562 59.26556587219238,3.93487811088562 60.34322381019592,4.592364281415939 60.34322381019592,4.592364281415939 61.4102303981781,5.2750494331121445 61.4102303981781,5.2750494331121445 62.46252655982971,5.980982258915901 62.46252655982971,5.980982258915901 63.50027322769165,6.708821654319763 63.50027322769165,6.708821654319763 64.5237922668457,7.457064092159271 64.5237922668457,7.457064092159271 65.5332088470459,8.224409073591232 65.5332088470459,8.224409073591232 66.52872562408447,9.009474515914917 66.52872562408447,9.009474515914917 67.51058101654053,9.810756891965866 67.51058101654053,9.810756891965866 68.4790313243866,10.627076774835587 68.4790313243866,10.627076774835587 68.92407536506653,11.015626788139343 68.92407536506653,11.015626788139343 69.30230259895325,11.348901689052582 69.30230259895325,11.348901689052582 69.64142918586731,11.63104698061943 69.64142918586731,11.63104698061943 69.96933817863464,11.866046488285065 69.96933817863464,11.866046488285065 70.31375169754028,12.057923525571823 70.31375169754028,12.057923525571823 70.702463388443,12.210782617330551 70.702463388443,12.210782617330551 71.16331458091736,12.32856661081314 71.16331458091736,12.32856661081314 71.72399163246155,12.415380775928497 71.72399163246155,12.415380775928497 74.82848763465881,12.787185609340668 74.82848763465881,12.787185609340668 77.96468138694763,13.202884793281555 77.96468138694763,13.202884793281555 81.11120462417603,13.690075278282166 81.11120462417603,13.690075278282166 84.24650430679321,14.276191592216492 84.24650430679321,14.276191592216492 87.34905123710632,14.988790452480316 87.34905123710632,14.988790452480316 90.39737582206726,15.855264663696289 90.39737582206726,15.855264663696289 93.36994290351868,16.903169453144073 93.36994290351868,16.903169453144073 96.24521136283875,18.16006302833557 96.24521136283875,18.16006302833557 96.51427268981934,18.28833371400833 96.51427268981934,18.28833371400833 96.91094756126404,18.48350167274475 96.91094756126404,18.48350167274475 97.36814498901367,18.729110062122345 97.36814498901367,18.729110062122345 97.81883955001831,19.008532166481018 97.81883955001831,19.008532166481018 98.19597005844116,19.305187463760376 98.19597005844116,19.305187463760376 98.43255281448364,19.602574408054352 98.43255281448364,19.602574408054352 98.46144914627075,19.884029030799866 98.46144914627075,19.884029030799866 98.2155978679657,20.13304978609085 98.2155978679657,20.13304978609085 98.1169581413269,20.272618532180786 98.1169581413269,20.272618532180786 98.04071187973022,20.54058015346527 98.04071187973022,20.54058015346527 97.9832410812378,20.896737277507782 97.9832410812378,20.896737277507782 97.94109463691711,21.300974488258362 97.94109463691711,21.300974488258362 97.91077375411987,21.712975203990936 97.91077375411987,21.712975203990936 97.88866639137268,22.092583775520325 97.88866639137268,22.092583775520325 97.87135124206543,22.39956259727478 97.87135124206543,22.39956259727478 97.85533547401428,22.593756020069122 97.85533547401428,22.593756020069122 97.79725670814514,23.029208183288574 97.79725670814514,23.029208183288574 97.739177942276,23.464618623256683 97.739177942276,23.464618623256683 97.68101572990417,23.899948596954346 97.68101572990417,23.899948596954346 97.62285351753235,24.335238337516785 97.62285351753235,24.335238337516785 97.56465554237366,24.770528078079224 97.56465554237366,24.770528078079224 97.50653505325317,25.205859541893005 97.50653505325317,25.205859541893005 97.44841456413269,25.64122974872589 97.44841456413269,25.64122974872589 97.39037752151489,26.076722145080566 97.39037752151489,26.076722145080566 97.47873544692993,26.182475686073303 97.47873544692993,26.182475686073303 97.73649573326111,26.29050612449646 97.73649573326111,26.29050612449646 98.11090230941772,26.400241255760193 98.11090230941772,26.400241255760193 98.5491156578064,26.511117815971375 98.5491156578064,26.511117815971375 98.9983856678009,26.622438430786133 98.9983856678009,26.622438430786133 99.40595626831055,26.733678579330444 99.40595626831055,26.733678579330444 99.71903562545776,26.844188570976257 99.71903562545776,26.844188570976257 99.88489747047424,26.95331573486328 99.88489747047424,26.95331573486328 99.97662901878357,27.209529280662537 99.97662901878357,27.209529280662537 99.99979734420776,27.5723934173584 99.99979734420776,27.5723934173584 99.97049570083618,28.00670862197876 99.97049570083618,28.00670862197876 99.9048113822937,28.477275371551514 99.9048113822937,28.477275371551514 99.81893301010132,28.948941826820374 99.81893301010132,28.948941826820374 99.72894787788391,29.386547207832336 99.72894787788391,29.386547207832336 99.65108036994934,29.754897952079773 99.65108036994934,29.754897952079773 99.60137009620667,30.018794536590576 99.60137009620667,30.018794536590576 99.49687719345093,30.75232207775116 99.49687719345093,30.75232207775116 99.38791394233704,31.51105046272278 99.38791394233704,31.51105046272278 99.25943613052368,32.280346751213074 99.25943613052368,32.280346751213074 99.09650087356567,33.045417070388794 99.09650087356567,33.045417070388794 98.88389706611633,33.79150629043579 98.88389706611633,33.79150629043579 98.60674738883972,34.503939747810364 98.60674738883972,34.503939747810364 98.24978113174438,35.167887806892395 98.24978113174438,35.167887806892395 97.79810905456543,35.76867878437042 97.79810905456543,35.76867878437042 97.17427492141724,36.35662496089935 97.17427492141724,36.35662496089935 96.49667143821716,36.80479824542999 96.49667143821716,36.80479824542999 95.77399492263794,37.13522553443909 95.77399492263794,37.13522553443909 95.0150191783905,37.370023131370544 95.0150191783905,37.370023131370544 94.2284107208252,37.53129541873932 94.2284107208252,37.53129541873932 93.42285990715027,37.64115273952484 93.42285990715027,37.64115273952484 92.60719418525696,37.72166967391968 92.60719418525696,37.72166967391968 91.79006218910217,37.794989347457886 91.79006218910217,37.794989347457886 92.5138771533966,34.314218163490295 92.5138771533966,34.314218163490295 92.34386682510376,30.903679132461548 92.34386682510376,30.903679132461548 91.375333070755,27.6900976896286 91.375333070755,27.6900976896286 89.70335125923157,24.800360202789307 89.70335125923157,24.800360202789307 87.42322325706482,22.361357510089874 87.42322325706482,22.361357510089874 84.63022112846375,20.49993723630905 84.63022112846375,20.49993723630905 81.41944408416748,19.342903792858124 81.41944408416748,19.342903792858124 77.88615822792053,19.0171480178833 77.88615822792053,19.0171480178833 74.41506385803223,19.58981156349182 74.41506385803223,19.58981156349182 71.3164210319519,20.958270132541656 71.3164210319519,20.958270132541656 68.67525577545166,22.992059588432312 68.67525577545166,22.992059588432312 66.57684445381165,25.56055188179016 66.57684445381165,25.56055188179016 65.10640978813171,28.533199429512024 65.10640978813171,28.533199429512024 64.3489420413971,31.779378652572632 64.3489420413971,31.779378652572632 64.38978910446167,35.168540477752686 64.38978910446167,35.168540477752686 65.31406044960022,38.570135831832886 65.31406044960022,38.570135831832886 61.69180870056152,38.304898142814636 61.69180870056152,38.304898142814636 58.07508826255798,38.08493912220001 58.07508826255798,38.08493912220001 54.461658000946045,37.91472315788269 54.461658000946045,37.91472315788269 50.84928274154663,37.79905438423157 50.84928274154663,37.79905438423157 47.23585247993469,37.74239718914032 47.23585247993469,37.74239718914032 43.61904859542847,37.749508023262024 43.61904859542847,37.749508023262024 39.99691903591156,37.82486021518707 39.99691903591156,37.82486021518707 36.36694550514221,37.9731684923172 36.36694550514221,37.9731684923172 37.10998594760895,34.7647488117218 37.10998594760895,34.7647488117218 37.081170082092285,31.578561663627625 37.081170082092285,31.578561663627625 36.349958181381226,28.524625301361084 36.349958181381226,28.524625301361084 34.98556315898895,25.712883472442627 34.98556315898895,25.712883472442627 33.05736482143402,23.253436386585236 33.05736482143402,23.253436386585236 30.634498596191406,21.25626653432846 30.634498596191406,21.25626653432846 27.78638005256653,19.83131468296051 27.78638005256653,19.83131468296051 24.582350254058838,19.088681042194366 24.582350254058838,19.088681042194366 21.343162655830383,19.117537140846252 21.343162655830383,19.117537140846252 18.296095728874207,19.86529231071472 18.296095728874207,19.86529231071472 15.528574585914612,21.245090663433075 15.528574585914612,21.245090663433075 13.128264248371124,23.170240223407745 13.128264248371124,23.170240223407745 11.182630062103271,25.553926825523376 11.182630062103271,25.553926825523376 9.77938026189804,28.309500217437744 9.77938026189804,28.309500217437744 9.005938470363617,31.35010302066803 9.005938470363617,31.35010302066803 8.949972689151764,34.589049220085144 8.949972689151764,34.589049220085144 8.27159583568573,34.23927128314972 8.27159583568573,34.23927128314972 7.592528313398361,33.89022648334503 7.592528313398361,33.89022648334503 6.912241131067276,33.54305326938629 6.912241131067276,33.54305326938629 6.230369210243225,33.19888412952423 6.230369210243225,33.19888412952423 5.546342954039574,32.858943939208984 5.546342954039574,32.858943939208984 4.859796911478043,32.52437114715576 4.859796911478043,32.52437114715576 4.170243442058563,32.1963369846344 4.170243442058563,32.1963369846344 3.4771129488945007,31.876027584075928 3.4771129488945007,31.876027584075928 3.1969182193279266,31.761983036994934 3.1969182193279266,31.761983036994934 2.8968896716833115,31.655985116958618 2.8968896716833115,31.655985116958618 2.5877976790070534,31.549379229545593 2.5877976790070534,31.549379229545593 2.2808190435171127,31.433504819869995 2.2808190435171127,31.433504819869995 1.986805535852909,31.299707293510437 1.986805535852909,31.299707293510437 1.7168529331684113,31.139329075813293 1.7168529331684113,31.139329075813293 1.4818129129707813,30.94371259212494 1.4818129129707813,30.94371259212494 1.2927810661494732,30.704200267791748 1.2927810661494732,30.704200267791748 0.8888276293873787,29.908487200737 0.8888276293873787,29.908487200737 0.5883113015443087,29.037421941757202 0.5883113015443087,29.037421941757202 0.3743245033547282,28.11189293861389 0.3743245033547282,28.11189293861389 0.22963446099311113,27.152791619300842 0.22963446099311113,27.152791619300842 0.13729296624660492,26.180890202522278 0.13729296624660492,26.180890202522278 0.08031110046431422,25.21715760231018 0.08031110046431422,25.21715760231018 0.04149677697569132,24.28240180015564 0.04149677697569132,24.28240180015564" stroke="white" stroke-width="0.1" /><polygon points="43.847259879112244,2.854783274233341 43.847259879112244,2.854783274233341 43.087393045425415,2.8718534857034683 43.087393045425415,2.8718534857034683 42.20185577869415,2.8968896716833115 42.20185577869415,2.8968896716833115 41.2472277879715,2.9595615342259407 41.2472277879715,2.9595615342259407 40.280163288116455,3.0893761664628983 40.280163288116455,3.0893761664628983 39.357274770736694,3.315921872854233 39.357274770736694,3.315921872854233 38.5351836681366,3.6688677966594696 38.5351836681366,3.6688677966594696 37.870463728904724,4.177680984139442 37.870463728904724,4.177680984139442 37.419769167900085,4.8719897866249084 37.419769167900085,4.8719897866249084 37.219154834747314,5.6326694786548615 37.219154834747314,5.6326694786548615 37.17981278896332,6.4670756459236145 37.17981278896332,6.4670756459236145 37.27101683616638,7.348302751779556 37.27101683616638,7.348302751779556 37.46212124824524,8.249770849943161 37.46212124824524,8.249770849943161 37.72256374359131,9.144695103168488 37.72256374359131,9.144695103168488 38.02161514759064,10.006372630596161 38.02161514759064,10.006372630596161 38.328635692596436,10.808142274618149 38.328635692596436,10.808142274618149 38.613057136535645,11.523179709911346 38.613057136535645,11.523179709911346 38.73409330844879,11.73923909664154 38.73409330844879,11.73923909664154 38.89065086841583,11.884498596191406 38.89065086841583,11.884498596191406 39.07720148563385,11.97253167629242 39.07720148563385,11.97253167629242 39.2883837223053,12.017076462507248 39.2883837223053,12.017076462507248 39.5187109708786,12.031707912683487 39.5187109708786,12.031707912683487 39.76273238658905,12.030164152383804 39.76273238658905,12.030164152383804 40.01500606536865,12.026017904281616 40.01500606536865,12.026017904281616 40.27000069618225,12.03300878405571 40.27000069618225,12.03300878405571 41.22194945812225,12.09474578499794 41.22194945812225,12.09474578499794 42.174261808395386,12.152297049760818 42.174261808395386,12.152297049760818 43.12681555747986,12.205905467271805 43.12681555747986,12.205905467271805 44.07965838909149,12.255734205245972 44.07965838909149,12.255734205245972 45.03270089626312,12.302067130804062 45.03270089626312,12.302067130804062 45.985907316207886,12.345027178525925 45.985907316207886,12.345027178525925 46.93927764892578,12.384898215532303 46.93927764892578,12.384898215532303 47.89272844791412,12.421883642673492 47.89272844791412,12.421883642673492 48.668038845062256,12.45025247335434 48.668038845062256,12.45025247335434 49.44339096546173,12.476751953363419 49.44339096546173,12.476751953363419 50.2189040184021,12.501463294029236 50.2189040184021,12.501463294029236 50.99446177482605,12.524305284023285 50.99446177482605,12.524305284023285 51.770055294036865,12.54531741142273 51.770055294036865,12.54531741142273 52.54577398300171,12.564541399478912 52.54577398300171,12.564541399478912 53.32140922546387,12.58193701505661 53.32140922546387,12.58193701505661 54.097169637680054,12.59746253490448 54.097169637680054,12.59746253490448 54.54440712928772,12.60591596364975 54.54440712928772,12.60591596364975 54.991644620895386,12.613801658153534 54.991644620895386,12.613801658153534 55.43888211250305,12.621036171913147 55.43888211250305,12.621036171913147 55.88611960411072,12.627701461315155 55.88611960411072,12.627701461315155 56.333357095718384,12.633757293224335 56.333357095718384,12.633757293224335 56.78060054779053,12.639161944389343 56.78060054779053,12.639161944389343 57.22783803939819,12.643998861312866 57.22783803939819,12.643998861312866 57.67507553100586,12.648186087608337 57.67507553100586,12.648186087608337 57.6945424079895,12.600022554397583 57.6945424079895,12.600022554397583 57.70499110221863,12.524020671844482 57.70499110221863,12.524020671844482 57.70852565765381,12.429321557283401 57.70852565765381,12.429321557283401 57.70710110664368,12.324990332126617 57.70710110664368,12.324990332126617 57.70283341407776,12.220212072134018 57.70283341407776,12.220212072134018 57.697755098342896,12.124049663543701 57.697755098342896,12.124049663543701 57.69389271736145,12.045567482709885 57.69389271736145,12.045567482709885 57.69328474998474,11.99399158358574 57.69328474998474,11.99399158358574 57.70169496536255,11.748261749744415 57.70169496536255,11.748261749744415 57.716530561447144,11.386821419000626 57.716530561447144,11.386821419000626 57.746970653533936,10.955474525690079 57.746970653533936,10.955474525690079 57.80220627784729,10.499944537878036 57.80220627784729,10.499944537878036 57.89145827293396,10.065996646881104 57.89145827293396,10.065996646881104 58.02395939826965,9.699394553899765 58.02395939826965,9.699394553899765 58.2088828086853,9.445861726999283 58.2088828086853,9.445861726999283 58.45542550086975,9.351203590631485 58.45542550086975,9.351203590631485 58.759111166000366,9.328687191009521 58.759111166000366,9.328687191009521 58.98200273513794,9.264674037694931 58.98200273513794,9.264674037694931 59.13099646568298,9.164488315582275 59.13099646568298,9.164488315582275 59.21293497085571,9.033535420894623 59.21293497085571,9.033535420894623 59.234559535980225,8.877059072256088 59.234559535980225,8.877059072256088 59.202855825424194,8.70046392083168 59.202855825424194,8.70046392083168 59.124451875686646,8.509033918380737 59.124451875686646,8.509033918380737 59.00622606277466,8.308134227991104 59.00622606277466,8.308134227991104 58.38673710823059,7.513640075922012 58.38673710823059,7.513640075922012 57.66584873199463,6.812380999326706 57.66584873199463,6.812380999326706 56.862735748291016,6.1937496066093445 56.862735748291016,6.1937496066093445 55.99659085273743,5.646975710988045 55.99659085273743,5.646975710988045 55.08662462234497,5.161329358816147 55.08662462234497,5.161329358816147 54.152119159698486,4.726121202111244 54.152119159698486,4.726121202111244 53.212159872055054,4.33066226541996 53.212159872055054,4.33066226541996 52.28610038757324,3.9641819894313812 52.28610038757324,3.9641819894313812 51.26603841781616,3.610748052597046 51.26603841781616,3.610748052597046 50.23207068443298,3.333601728081703 50.23207068443298,3.333601728081703 49.18632209300995,3.125304728746414 49.18632209300995,3.125304728746414 48.1305718421936,2.978338673710823 48.1305718421936,2.978338673710823 47.06685543060303,2.8852656483650208 47.06685543060303,2.8852656483650208 45.997124910354614,2.838647924363613 45.997124910354614,2.838647924363613 44.92320716381073,2.8309661895036697 44.92320716381073,2.8309661895036697" stroke="white" stroke-width="0.1" /><polygon points="22.076773643493652,8.522731065750122 22.076773643493652,8.522731065750122 22.03913778066635,9.263088554143906 22.03913778066635,9.263088554143906 22.482962906360626,9.817544370889664 22.482962906360626,9.817544370889664 23.27761948108673,10.213084518909454 23.27761948108673,10.213084518909454 24.29240047931671,10.476696491241455 24.29240047931671,10.476696491241455 25.39667785167694,10.635408759117126 25.39667785167694,10.635408759117126 26.4599472284317,10.716167092323303 26.4599472284317,10.716167092323303 27.351415157318115,10.74603945016861 27.351415157318115,10.74603945016861 27.940458059310913,10.751932859420776 27.940458059310913,10.751932859420776 28.75182032585144,10.772823542356491 28.75182032585144,10.772823542356491 29.64804470539093,10.794364660978317 29.64804470539093,10.794364660978317 30.563005805015564,10.771116614341736 30.563005805015564,10.771116614341736 31.43065869808197,10.657478123903275 31.43065869808197,10.657478123903275 32.184916734695435,10.407928377389908 32.184916734695435,10.407928377389908 32.75981545448303,9.977028518915176 32.75981545448303,9.977028518915176 33.089229464530945,9.319095313549042 33.089229464530945,9.319095313549042 33.107030391693115,8.388771116733551 33.107030391693115,8.388771116733551 33.01920294761658,7.885973155498505 33.01920294761658,7.885973155498505 32.905685901641846,7.382117956876755 32.905685901641846,7.382117956876755 32.76839256286621,6.879645586013794 32.76839256286621,6.879645586013794 32.609233260154724,6.381155550479889 32.609233260154724,6.381155550479889 32.430076599121094,5.889209732413292 32.430076599121094,5.889209732413292 32.23279416561127,5.40628619492054 32.23279416561127,5.40628619492054 32.0193350315094,4.935068264603615 32.0193350315094,4.935068264603615 31.79149031639099,4.477912932634354 31.79149031639099,4.477912932634354 31.619447469711304,4.292132332921028 31.619447469711304,4.292132332921028 31.36465549468994,4.192556440830231 31.36465549468994,4.192556440830231 31.051945686340332,4.161911457777023 31.051945686340332,4.161911457777023 30.706152319908142,4.183005169034004 30.706152319908142,4.183005169034004 30.352026224136353,4.238605126738548 30.352026224136353,4.238605126738548 30.014485120773315,4.311437904834747 30.014485120773315,4.311437904834747 29.718276858329773,4.384433478116989 29.718276858329773,4.384433478116989 29.488155245780945,4.440195858478546 29.488155245780945,4.440195858478546 28.555595874786377,4.659344255924225 28.555595874786377,4.659344255924225 27.503463625907898,4.944213107228279 27.503463625907898,4.944213107228279 26.392358541488647,5.303499475121498 26.392358541488647,5.303499475121498 25.28303861618042,5.745982751250267 25.28303861618042,5.745982751250267 24.236150085926056,6.280401349067688 24.236150085926056,6.280401349067688 23.31232875585556,6.915492564439774 23.31232875585556,6.915492564439774 22.572337090969086,7.659996300935745 22.572337090969086,7.659996300935745" stroke="white" stroke-width="0.1" /><polygon points="68.86595487594604,33.171409368515015 68.86595487594604,33.171409368515015 69.04852390289307,31.33852183818817 69.04852390289307,31.33852183818817 69.57241892814636,29.612848162651062 69.57241892814636,29.612848162651062 70.40186524391174,28.03259789943695 70.40186524391174,28.03259789943695 71.50110006332397,26.63581073284149 71.50110006332397,26.63581073284149 72.83440232276917,25.460651516914368 72.83440232276917,25.460651516914368 74.36596751213074,24.545201659202576 74.36596751213074,24.545201659202576 76.06009840965271,23.927587270736694 76.06009840965271,23.927587270736694 77.88095474243164,23.645928502082825 77.88095474243164,23.645928502082825 79.65413928031921,23.719249665737152 79.65413928031921,23.719249665737152 81.34953379631042,24.114789068698883 81.34953379631042,24.114789068698883 82.93035626411438,24.80344921350479 82.93035626411438,24.80344921350479 84.35941338539124,25.756126642227173 84.35941338539124,25.756126642227173 85.59984564781189,26.94360315799713 85.59984564781189,26.94360315799713 86.61462664604187,28.336811065673828 86.61462664604187,28.336811065673828 87.36677169799805,29.906538128852844 87.36677169799805,29.906538128852844 87.8193736076355,31.62371516227722 87.8193736076355,31.62371516227722 87.92448043823242,33.665308356285095 87.92448043823242,33.665308356285095 87.59616017341614,35.62853932380676 87.59616017341614,35.62853932380676 86.87799572944641,37.45862543582916 86.87799572944641,37.45862543582916 85.8135461807251,39.10077512264252 85.8135461807251,39.10077512264252 84.44634675979614,40.50028622150421 84.44634675979614,40.50028622150421 82.81992673873901,41.60245060920715 82.81992673873901,41.60245060920715 80.97789287567139,42.3524409532547 80.97789287567139,42.3524409532547 78.96369695663452,42.6955908536911 78.96369695663452,42.6955908536911 76.98168158531189,42.59776473045349 76.98168158531189,42.59776473045349 75.11103749275208,42.09959805011749 75.11103749275208,42.09959805011749 73.39906096458435,41.24515652656555 73.39906096458435,41.24515652656555 71.89273834228516,40.07849097251892 71.89273834228516,40.07849097251892 70.63918113708496,38.64370286464691 70.63918113708496,38.64370286464691 69.68544721603394,36.98488771915436 69.68544721603394,36.98488771915436 69.07868385314941,35.14610528945923 69.07868385314941,35.14610528945923" stroke="white" stroke-width="0.1" /><polygon points="13.502669334411621,33.171409368515015 13.502669334411621,33.171409368515015 13.685238361358643,31.33852183818817 13.685238361358643,31.33852183818817 14.2091304063797,29.612848162651062 14.2091304063797,29.612848162651062 15.0385782122612,28.03259789943695 15.0385782122612,28.03259789943695 16.13781601190567,26.63581073284149 16.13781601190567,26.63581073284149 17.471078038215637,25.460651516914368 17.471078038215637,25.460651516914368 19.002678990364075,24.545201659202576 19.002678990364075,24.545201659202576 20.696772634983063,23.927587270736694 20.696772634983063,23.927587270736694 22.517672181129456,23.645928502082825 22.517672181129456,23.645928502082825 24.358730018138885,23.728759586811066 24.358730018138885,23.728759586811066 26.11134946346283,24.157871305942535 26.11134946346283,24.157871305942535 27.73553729057312,24.89977329969406 27.73553729057312,24.89977329969406 29.19105291366577,25.921139121055603 29.19105291366577,25.921139121055603 30.43786585330963,27.188438177108765 30.43786585330963,27.188438177108765 31.435862183570862,28.66837978363037 31.435862183570862,28.66837978363037 32.14496374130249,30.327478051185608 32.14496374130249,30.327478051185608 32.52502083778381,32.13224411010742 32.52502083778381,32.13224411010742 32.51965641975403,34.18310284614563 32.51965641975403,34.18310284614563 32.08338916301727,36.13080978393555 32.08338916301727,36.13080978393555 31.262964010238647,37.922853231430054 31.262964010238647,37.922853231430054 30.105364322662354,39.50672149658203 30.105364322662354,39.50672149658203 28.65752875804901,40.8299446105957 28.65752875804901,40.8299446105957 26.966199278831482,41.84013307094574 26.966199278831482,41.84013307094574 25.078442692756653,42.48473346233368 25.078442692756653,42.48473346233368 23.04115742444992,42.71119832992554 23.04115742444992,42.71119832992554 21.143603324890137,42.51420199871063 21.143603324890137,42.51420199871063 19.3648099899292,41.950517892837524 19.3648099899292,41.950517892837524 17.746111750602722,41.061365604400635 17.746111750602722,41.061365604400635 16.32883995771408,39.887791872024536 16.32883995771408,39.887791872024536 15.154492855072021,38.470885157585144 15.154492855072021,38.470885157585144 14.264406263828278,36.851781606674194 14.264406263828278,36.851781606674194 13.699992001056671,35.07160544395447 13.699992001056671,35.07160544395447" stroke="white" stroke-width="0.1" /><polygon points="68.86595487594604,33.171409368515015 69.04852390289307,31.33852183818817 69.57241892814636,29.612848162651062 70.40186524391174,28.03259789943695 71.50110006332397,26.63581073284149 72.83440232276917,25.460651516914368 74.36596751213074,24.545201659202576 76.06009840965271,23.927587270736694 77.88095474243164,23.645928502082825 79.65413928031921,23.719249665737152 81.34953379631042,24.114789068698883 82.93035626411438,24.80344921350479 84.35941338539124,25.756126642227173 85.59984564781189,26.94360315799713 86.61462664604187,28.336811065673828 87.36677169799805,29.906538128852844 87.8193736076355,31.62371516227722 87.92448043823242,33.665308356285095 87.59616017341614,35.62853932380676 86.87799572944641,37.45862543582916 85.8135461807251,39.10077512264252 84.44634675979614,40.50028622150421 82.81992673873901,41.60245060920715 80.97789287567139,42.3524409532547 78.96369695663452,42.6955908536911 76.98168158531189,42.59776473045349 75.11103749275208,42.09959805011749 73.39906096458435,41.24515652656555 71.89273834228516,40.07849097251892 70.63918113708496,38.64370286464691 69.68544721603394,36.98488771915436 69.07868385314941,35.14610528945923" stroke="white" stroke-width="0.1" /><polygon points="13.502669334411621,33.171409368515015 13.685238361358643,31.33852183818817 14.2091304063797,29.612848162651062 15.0385782122612,28.03259789943695 16.13781601190567,26.63581073284149 17.471078038215637,25.460651516914368 19.002678990364075,24.545201659202576 20.696772634983063,23.927587270736694 22.517672181129456,23.645928502082825 24.358730018138885,23.728759586811066 26.11134946346283,24.157871305942535 27.73553729057312,24.89977329969406 29.19105291366577,25.921139121055603 30.43786585330963,27.188438177108765 31.435862183570862,28.66837978363037 32.14496374130249,30.327478051185608 32.52502083778381,32.13224411010742 32.51965641975403,34.18310284614563 32.08338916301727,36.13080978393555 31.262964010238647,37.922853231430054 30.105364322662354,39.50672149658203 28.65752875804901,40.8299446105957 26.966199278831482,41.84013307094574 25.078442692756653,42.48473346233368 23.04115742444992,42.71119832992554 21.143603324890137,42.51420199871063 19.3648099899292,41.950517892837524 17.746111750602722,41.061365604400635 16.32883995771408,39.887791872024536 15.154492855072021,38.470885157585144 14.264406263828278,36.851781606674194 13.699992001056671,35.07160544395447" stroke="white" stroke-width="0.1" /><polygon points="0.003901753734680824,23.397517204284668 0.03983040514867753,22.760027647018433 22.076773643493652,8.522731065750122 22.03913778066635,9.263088554143906 22.482962906360626,9.817544370889664 23.27761948108673,10.213084518909454 24.29240047931671,10.476696491241455 25.39667785167694,10.635408759117126 26.4599472284317,10.716167092323303 27.351415157318115,10.74603945016861 27.940458059310913,10.751932859420776 28.75182032585144,10.772823542356491 29.64804470539093,10.794364660978317 30.563005805015564,10.771116614341736 31.43065869808197,10.657478123903275 32.184916734695435,10.407928377389908 32.75981545448303,9.977028518915176 33.089229464530945,9.319095313549042 33.107030391693115,8.388771116733551 33.01920294761658,7.885973155498505 32.905685901641846,7.382117956876755 32.76839256286621,6.879645586013794 32.609233260154724,6.381155550479889 32.430076599121094,5.889209732413292 32.23279416561127,5.40628619492054 32.0193350315094,4.935068264603615 31.79149031639099,4.477912932634354 31.619447469711304,4.292132332921028 31.36465549468994,4.192556440830231 31.051945686340332,4.161911457777023 30.706152319908142,4.183005169034004 30.352026224136353,4.238605126738548 30.014485120773315,4.311437904834747 29.718276858329773,4.384433478116989 29.488155245780945,4.440195858478546 28.555595874786377,4.659344255924225 27.503463625907898,4.944213107228279 26.392358541488647,5.303499475121498 25.28303861618042,5.745982751250267 24.236150085926056,6.280401349067688 23.31232875585556,6.915492564439774 22.572337090969086,7.659996300935745 22.076773643493652,8.522731065750122 0.03983040514867753,22.760027647018433 0.19598184153437614,22.242353856563568 0.44325548224151134,21.812185645103455 0.7524694781750441,21.43704891204834 1.0945232585072517,21.08467072248459 1.4402348548173904,20.722702145576477 1.760544441640377,20.318707823753357 2.0263107493519783,19.840417802333832 2.180999144911766,19.40939575433731 2.2946782410144806,18.952444195747375 2.3760054260492325,18.47720295190811 2.433556318283081,17.991311848163605 2.475947327911854,17.502373456954956 2.511713467538357,17.017987370491028 2.549511566758156,16.545793414115906 2.597917802631855,16.093434393405914 2.689243108034134,15.317919850349426 2.8051983565092087,14.403161406517029 2.9706571251153946,13.421261310577393 3.210493177175522,12.444481253623962 3.549579903483391,11.544964462518692 4.012791067361832,10.79477071762085 4.6250008046627045,10.266204923391342 5.41108213365078,10.031408816576004 6.6212765872478485,9.963209927082062 7.826349139213562,9.91634801030159 9.02264341711998,9.863918274641037 10.206419229507446,9.779095649719238 11.374059319496155,9.635015577077866 12.521785497665405,9.404852241277695 13.645896315574646,9.061620384454727 14.74277675151825,8.578655868768692 16.017308831214905,7.910683751106262 17.29322373867035,7.2351522743701935 18.57275515794754,6.560555100440979 19.85822021961212,5.895387381315231 21.15197628736496,5.24822473526001 22.456300258636475,4.627601802349091 23.773427307605743,4.041973128914833 25.105834007263184,3.4998733550310135 26.664504408836365,2.9341189190745354 43.847259879112244,2.854783274233341 43.087393045425415,2.8718534857034683 42.20185577869415,2.8968896716833115 41.2472277879715,2.9595615342259407 40.280163288116455,3.0893761664628983 39.357274770736694,3.315921872854233 38.5351836681366,3.6688677966594696 37.870463728904724,4.177680984139442 37.419769167900085,4.8719897866249084 37.219154834747314,5.6326694786548615 37.17981278896332,6.4670756459236145 37.27101683616638,7.348302751779556 37.46212124824524,8.249770849943161 37.72256374359131,9.144695103168488 38.02161514759064,10.006372630596161 38.328635692596436,10.808142274618149 38.613057136535645,11.523179709911346 38.73409330844879,11.73923909664154 38.89065086841583,11.884498596191406 39.07720148563385,11.97253167629242 39.2883837223053,12.017076462507248 39.5187109708786,12.031707912683487 39.76273238658905,12.030164152383804 40.01500606536865,12.026017904281616 40.27000069618225,12.03300878405571 41.22194945812225,12.09474578499794 42.174261808395386,12.152297049760818 43.12681555747986,12.205905467271805 44.07965838909149,12.255734205245972 45.03270089626312,12.302067130804062 45.985907316207886,12.345027178525925 46.93927764892578,12.384898215532303 47.89272844791412,12.421883642673492 48.668038845062256,12.45025247335434 49.44339096546173,12.476751953363419 50.2189040184021,12.501463294029236 50.99446177482605,12.524305284023285 51.770055294036865,12.54531741142273 52.54577398300171,12.564541399478912 53.32140922546387,12.58193701505661 54.097169637680054,12.59746253490448 54.54440712928772,12.60591596364975 54.991644620895386,12.613801658153534 55.43888211250305,12.621036171913147 55.88611960411072,12.627701461315155 56.333357095718384,12.633757293224335 56.78060054779053,12.639161944389343 57.22783803939819,12.643998861312866 57.67507553100586,12.648186087608337 57.6945424079895,12.600022554397583 57.70499110221863,12.524020671844482 57.70852565765381,12.429321557283401 57.70710110664368,12.324990332126617 57.70283341407776,12.220212072134018 57.697755098342896,12.124049663543701 57.69389271736145,12.045567482709885 57.69328474998474,11.99399158358574 57.70169496536255,11.748261749744415 57.716530561447144,11.386821419000626 57.746970653533936,10.955474525690079 57.80220627784729,10.499944537878036 57.89145827293396,10.065996646881104 58.02395939826965,9.699394553899765 58.2088828086853,9.445861726999283 58.45542550086975,9.351203590631485 58.759111166000366,9.328687191009521 58.98200273513794,9.264674037694931 59.13099646568298,9.164488315582275 59.21293497085571,9.033535420894623 59.234559535980225,8.877059072256088 59.202855825424194,8.70046392083168 59.124451875686646,8.509033918380737 59.00622606277466,8.308134227991104 58.38673710823059,7.513640075922012 57.66584873199463,6.812380999326706 56.862735748291016,6.1937496066093445 55.99659085273743,5.646975710988045 55.08662462234497,5.161329358816147 54.152119159698486,4.726121202111244 53.212159872055054,4.33066226541996 52.28610038757324,3.9641819894313812 51.26603841781616,3.610748052597046 50.23207068443298,3.333601728081703 49.18632209300995,3.125304728746414 48.1305718421936,2.978338673710823 47.06685543060303,2.8852656483650208 45.997124910354614,2.838647924363613 44.92320716381073,2.8309661895036697 43.847259879112244,2.854783274233341 26.664504408836365,2.9341189190745354 28.24430763721466,2.4288417771458626 29.842442274093628,1.9811155274510384 31.455695629119873,1.588013768196106 33.08118283748627,1.246610376983881 34.715935587882996,0.9539788588881493 36.356908082962036,0.7071929052472115 38.001132011413574,0.503326253965497 39.60198760032654,0.33335608895868063 41.23613238334656,0.18553652334958315 42.8919792175293,0.07307659834623337 44.55811083316803,0.009429238707525656 46.22306227684021,0.007803507469361648 47.875332832336426,0.08153039962053299 49.50346052646637,0.24406283628195524 51.09606981277466,0.5085285753011703 52.327316999435425,0.8049805648624897 53.537917137145996,1.1817436665296555 54.72729802131653,1.6292260959744453 55.8952271938324,2.137835882604122 57.04116225242615,2.6980221271514893 58.16478729248047,3.30023355782032 59.26556587219238,3.93487811088562 60.34322381019592,4.592364281415939 61.4102303981781,5.2750494331121445 62.46252655982971,5.980982258915901 63.50027322769165,6.708821654319763 64.5237922668457,7.457064092159271 65.5332088470459,8.224409073591232 66.52872562408447,9.009474515914917 67.51058101654053,9.810756891965866 68.4790313243866,10.627076774835587 68.92407536506653,11.015626788139343 69.30230259895325,11.348901689052582 69.64142918586731,11.63104698061943 69.96933817863464,11.866046488285065 70.31375169754028,12.057923525571823 70.702463388443,12.210782617330551 71.16331458091736,12.32856661081314 71.72399163246155,12.415380775928497 74.82848763465881,12.787185609340668 77.96468138694763,13.202884793281555 81.11120462417603,13.690075278282166 84.24650430679321,14.276191592216492 87.34905123710632,14.988790452480316 90.39737582206726,15.855264663696289 93.36994290351868,16.903169453144073 96.24521136283875,18.16006302833557 96.51427268981934,18.28833371400833 96.91094756126404,18.48350167274475 97.36814498901367,18.729110062122345 97.81883955001831,19.008532166481018 98.19597005844116,19.305187463760376 98.43255281448364,19.602574408054352 98.46144914627075,19.884029030799866 98.2155978679657,20.13304978609085 98.1169581413269,20.272618532180786 98.04071187973022,20.54058015346527 97.9832410812378,20.896737277507782 97.94109463691711,21.300974488258362 97.91077375411987,21.712975203990936 97.88866639137268,22.092583775520325 97.87135124206543,22.39956259727478 97.85533547401428,22.593756020069122 97.79725670814514,23.029208183288574 97.739177942276,23.464618623256683 97.68101572990417,23.899948596954346 97.62285351753235,24.335238337516785 97.56465554237366,24.770528078079224 97.50653505325317,25.205859541893005 97.44841456413269,25.64122974872589 97.39037752151489,26.076722145080566 97.47873544692993,26.182475686073303 97.73649573326111,26.29050612449646 98.11090230941772,26.400241255760193 98.5491156578064,26.511117815971375 98.9983856678009,26.622438430786133 99.40595626831055,26.733678579330444 99.71903562545776,26.844188570976257 99.88489747047424,26.95331573486328 99.97662901878357,27.209529280662537 99.99979734420776,27.5723934173584 99.97049570083618,28.00670862197876 99.9048113822937,28.477275371551514 99.81893301010132,28.948941826820374 99.72894787788391,29.386547207832336 99.65108036994934,29.754897952079773 99.60137009620667,30.018794536590576 99.49687719345093,30.75232207775116 99.38791394233704,31.51105046272278 99.25943613052368,32.280346751213074 99.09650087356567,33.045417070388794 98.88389706611633,33.79150629043579 98.60674738883972,34.503939747810364 98.24978113174438,35.167887806892395 97.79810905456543,35.76867878437042 97.17427492141724,36.35662496089935 96.49667143821716,36.80479824542999 95.77399492263794,37.13522553443909 95.0150191783905,37.370023131370544 94.2284107208252,37.53129541873932 93.42285990715027,37.64115273952484 92.60719418525696,37.72166967391968 91.79006218910217,37.794989347457886 92.5138771533966,34.314218163490295 92.34386682510376,30.903679132461548 91.375333070755,27.6900976896286 89.70335125923157,24.800360202789307 87.42322325706482,22.361357510089874 84.63022112846375,20.49993723630905 81.41944408416748,19.342903792858124 77.88615822792053,19.0171480178833 74.41506385803223,19.58981156349182 71.3164210319519,20.958270132541656 68.67525577545166,22.992059588432312 66.57684445381165,25.56055188179016 65.10640978813171,28.533199429512024 64.3489420413971,31.779378652572632 64.38978910446167,35.168540477752686 65.31406044960022,38.570135831832886 61.69180870056152,38.304898142814636 58.07508826255798,38.08493912220001 54.461658000946045,37.91472315788269 50.84928274154663,37.79905438423157 47.23585247993469,37.74239718914032 43.61904859542847,37.749508023262024 39.99691903591156,37.82486021518707 36.36694550514221,37.9731684923172 37.10998594760895,34.7647488117218 37.081170082092285,31.578561663627625 36.349958181381226,28.524625301361084 34.98556315898895,25.712883472442627 33.05736482143402,23.253436386585236 30.634498596191406,21.25626653432846 27.78638005256653,19.83131468296051 24.582350254058838,19.088681042194366 21.343162655830383,19.117537140846252 18.296095728874207,19.86529231071472 15.528574585914612,21.245090663433075 13.128264248371124,23.170240223407745 11.182630062103271,25.553926825523376 9.77938026189804,28.309500217437744 9.005938470363617,31.35010302066803 8.949972689151764,34.589049220085144 8.27159583568573,34.23927128314972 7.592528313398361,33.89022648334503 6.912241131067276,33.54305326938629 6.230369210243225,33.19888412952423 5.546342954039574,32.858943939208984 4.859796911478043,32.52437114715576 4.170243442058563,32.1963369846344 3.4771129488945007,31.876027584075928 3.1969182193279266,31.761983036994934 2.8968896716833115,31.655985116958618 2.5877976790070534,31.549379229545593 2.2808190435171127,31.433504819869995 1.986805535852909,31.299707293510437 1.7168529331684113,31.139329075813293 1.4818129129707813,30.94371259212494 1.2927810661494732,30.704200267791748 0.8888276293873787,29.908487200737 0.5883113015443087,29.037421941757202 0.3743245033547282,28.11189293861389 0.22963446099311113,27.152791619300842 0.13729296624660492,26.180890202522278 0.08031110046431422,25.21715760231018 0.04149677697569132,24.28240180015564" stroke="white" stroke-width="0.1" /></svg>