<?xml version="1.0" encoding="utf-8" ?>
<svg baseProfile="full" height="99.99867081642151" version="1.1" width="77.94952988624573" xmlns="http://www.w3.org/2000/svg" xmlns:ev="http://www.w3.org/2001/xml-events" xmlns:xlink="http://www.w3.org/1999/xlink"><defs><clipPath /></defs><polygon points="77.94952988624573,74.1934061050415 77.94952988624573,74.1934061050415 77.94952988624573,74.1934061050415 77.94952988624573,74.1934061050415 77.92179584503174,76.20124220848083 77.92179584503174,76.20124220848083 77.57374048233032,78.14651727676392 77.57374048233032,78.14651727676392 76.92586779594421,79.99308109283447 76.92586779594421,79.99308109283447 75.99848508834839,81.70509338378906 75.99848508834839,81.70509338378906 74.81199502944946,83.2463026046753 74.81199502944946,83.2463026046753 73.38669896125793,84.58064198493958 73.38669896125793,84.58064198493958 71.74311876296997,85.67207455635071 71.74311876296997,85.67207455635071 69.90132927894592,86.4848792552948 69.90132927894592,86.4848792552948 68.76996755599976,86.80432438850403 68.76996755599976,86.80432438850403 67.60576963424683,87.0161771774292 67.60576963424683,87.0161771774292 66.41784310340881,87.1401846408844 66.41784310340881,87.1401846408844 65.21527171134949,87.19674944877625 65.21527171134949,87.19674944877625 64.00704383850098,87.20573782920837 64.00704383850098,87.20573782920837 62.80224919319153,87.18743324279785 62.80224919319153,87.18743324279785 61.60977482795715,87.16158866882324 61.60977482795715,87.16158866882324 60.43870449066162,87.14861273765564 60.43870449066162,87.14861273765564 51.11272931098938,87.14861273765564 51.11272931098938,87.14861273765564 51.05283260345459,87.02383041381836 51.05283260345459,87.02383041381836 51.01644992828369,86.69229745864868 51.01644992828369,86.69229745864868 50.99881291389465,86.2188994884491 50.99881291389465,86.2188994884491 50.995153188705444,85.66808104515076 50.995153188705444,85.66808104515076 51.00058913230896,85.10439395904541 51.00058913230896,85.10439395904541 51.010459661483765,84.59262251853943 51.010459661483765,84.59262251853943 51.01988911628723,84.19708609580994 51.01988911628723,84.19708609580994 51.023995876312256,83.98257493972778 51.023995876312256,83.98257493972778 51.023995876312256,43.21981370449066 51.023995876312256,43.21981370449066 50.92472434043884,40.399837493896484 50.92472434043884,40.399837493896484 50.601726770401,37.65639364719391 50.601726770401,37.65639364719391 50.017523765563965,35.020431876182556 50.017523765563965,35.020431876182556 49.13417398929596,32.52300322055817 49.13417398929596,32.52300322055817 47.9141891002655,30.195394158363342 47.9141891002655,30.195394158363342 46.31996750831604,28.068652749061584 46.31996750831604,28.068652749061584 44.31368410587311,26.173731684684753 44.31368410587311,26.173731684684753 41.85774028301239,24.542130529880524 41.85774028301239,24.542130529880524 40.311768651008606,23.79709631204605 40.311768651008606,23.79709631204605 38.7459397315979,23.242396116256714 38.7459397315979,23.242396116256714 37.160369753837585,22.84996807575226 37.160369753837585,22.84996807575226 35.55516600608826,22.591862082481384 35.55516600608826,22.591862082481384 33.93033146858215,22.43979424238205 33.93033146858215,22.43979424238205 32.28619396686554,22.366143763065338 32.28619396686554,22.366143763065338 30.62264919281006,22.342297434806824 30.62264919281006,22.342297434806824 28.939801454544067,22.34063297510147 28.939801454544067,22.34063297510147 28.486481308937073,22.334864735603333 28.486481308937073,22.334864735603333 28.15794348716736,22.306248545646667 28.15794348716736,22.306248545646667 27.934443950653076,22.23747968673706 27.934443950653076,22.23747968673706 27.796238660812378,22.111698985099792 27.796238660812378,22.111698985099792 27.723145484924316,21.911713480949402 27.723145484924316,21.911713480949402 27.695748209953308,21.620333194732666 27.695748209953308,21.620333194732666 27.693751454353333,21.220695972442627 27.693751454353333,21.220695972442627 27.697521448135376,20.695500075817108 27.697521448135376,20.695500075817108 27.70417630672455,20.168527960777283 27.70417630672455,20.168527960777283 27.723810076713562,19.64189112186432 27.723810076713562,19.64189112186432 27.75675356388092,19.116029143333435 27.75675356388092,19.116029143333435 27.80289351940155,18.591275811195374 27.80289351940155,18.591275811195374 27.862346172332764,18.067854642868042 27.862346172332764,18.067854642868042 27.934888005256653,17.546097934246063 27.934888005256653,17.546097934246063 28.020736575126648,17.02633649110794 28.020736575126648,17.02633649110794 28.119897842407227,16.50901585817337 28.119897842407227,16.50901585817337 28.348055481910706,15.520516037940979 28.348055481910706,15.520516037940979 28.624463081359863,14.544881880283356 28.624463081359863,14.544881880283356 28.94834280014038,13.584333658218384 28.94834280014038,13.584333658218384 29.31869924068451,12.6408651471138 29.31869924068451,12.6408651471138 29.73475158214569,11.716587096452713 29.73475158214569,11.716587096452713 30.195394158363342,10.813605040311813 30.195394158363342,10.813605040311813 30.699625611305237,9.934137016534805 30.699625611305237,9.934137016534805 31.246894598007202,9.080180525779724 31.246894598007202,9.080180525779724 34.048569202423096,5.76329231262207 34.048569202423096,5.76329231262207 37.39728927612305,3.1746912747621536 37.39728927612305,3.1746912747621536 41.15363359451294,1.3376695103943348 41.15363359451294,1.3376695103943348 45.17817795276642,0.2758527407422662 45.17817795276642,0.2758527407422662 49.33149814605713,0.012644636444747448 49.33149814605713,0.012644636444747448 53.474169969558716,0.5714488681405783 53.474169969558716,0.5714488681405783 57.466769218444824,1.9755581393837929 57.466769218444824,1.9755581393837929 61.16987466812134,4.2485978454351425 61.16987466812134,4.2485978454351425 64.49940800666809,7.494054734706879 64.49940800666809,7.494054734706879 66.93893074989319,11.285005509853363 66.93893074989319,11.285005509853363 68.4810221195221,15.452522039413452 68.4810221195221,15.452522039413452 69.11824941635132,19.827456772327423 69.11824941635132,19.827456772327423 68.84328126907349,24.240656197071075 68.84328126907349,24.240656197071075 67.6484763622284,28.523194789886475 67.6484763622284,28.523194789886475 65.52695035934448,32.50614404678345 65.52695035934448,32.50614404678345 62.47071623802185,36.019912362098694 62.47071623802185,36.019912362098694 64.79677557945251,36.25494837760925 64.79677557945251,36.25494837760925 67.02478528022766,36.88529431819916 67.02478528022766,36.88529431819916 69.11115050315857,37.87357211112976 69.11115050315857,37.87357211112976 71.01250290870667,39.18262422084808 71.01250290870667,39.18262422084808 72.68536686897278,40.774962306022644 72.68536686897278,40.774962306022644 74.08626079559326,42.61375665664673 74.08626079559326,42.61375665664673 75.17170310020447,44.661080837249756 75.17170310020447,44.661080837249756 75.89799165725708,46.88010215759277 75.89799165725708,46.88010215759277 76.08721852302551,47.82312512397766 76.08721852302551,47.82312512397766 76.22741460800171,48.783230781555176 76.22741460800171,48.783230781555176 76.32879614830017,49.75553750991821 76.32879614830017,49.75553750991821 76.40111446380615,50.735050439834595 76.40111446380615,50.735050439834595 76.45457983016968,51.716673374176025 76.45457983016968,51.716673374176025 76.498943567276,52.695417404174805 76.498943567276,52.695417404174805 76.54442191123962,53.666168451309204 76.54442191123962,53.666168451309204 76.6007661819458,54.623943567276 76.6007661819458,54.623943567276" stroke="white" stroke-width="0.1" /><polygon points="33.31262767314911,29.609745740890503 33.31262767314911,29.609745740890503 33.31262767314911,29.609745740890503 33.31262767314911,29.609745740890503 35.60996055603027,29.854652285575867 35.60996055603027,29.854652285575867 37.660497426986694,30.5514395236969 37.660497426986694,30.5514395236969 39.4460529088974,31.64331614971161 39.4460529088974,31.64331614971161 40.94821512699127,33.07371139526367 40.94821512699127,33.07371139526367 42.148569226264954,34.785839915275574 42.148569226264954,34.785839915275574 43.02870035171509,36.72313094139099 43.02870035171509,36.72313094139099 43.570202589035034,38.8285756111145 43.570202589035034,38.8285756111145 43.754881620407104,41.04582369327545 43.754881620407104,41.04582369327545 43.754881620407104,52.565306425094604 43.754881620407104,52.565306425094604 43.754881620407104,83.98257493972778 43.754881620407104,83.98257493972778 43.754881620407104,88.06169033050537 43.754881620407104,88.06169033050537 43.63131821155548,90.07018804550171 43.63131821155548,90.07018804550171 43.25685799121857,92.00159907341003 43.25685799121857,92.00159907341003 42.62562692165375,93.8154399394989 42.62562692165375,93.8154399394989 41.731515526771545,95.47100067138672 41.731515526771545,95.47100067138672 40.56887626647949,96.92768454551697 40.56887626647949,96.92768454551697 39.13160264492035,98.14522862434387 39.13160264492035,98.14522862434387 37.414148449897766,99.08248782157898 37.414148449897766,99.08248782157898 35.410308837890625,99.69919323921204 35.410308837890625,99.69919323921204 34.45918560028076,99.85613822937012 34.45918560028076,99.85613822937012 33.48599374294281,99.94964599609375 33.48599374294281,99.94964599609375 32.4974924325943,99.99268054962158 32.4974924325943,99.99268054962158 31.50089681148529,99.99867081642151 31.50089681148529,99.99867081642151 30.503079295158386,99.98047947883606 30.503079295158386,99.98047947883606 29.510807991027832,99.95130896568298 29.510807991027832,99.95130896568298 28.53129208087921,99.9241292476654 28.53129208087921,99.9241292476654 27.57152020931244,99.91215467453003 27.57152020931244,99.91215467453003 15.45218974351883,99.91215467453003 15.45218974351883,99.91215467453003 14.430303871631622,99.9241292476654 14.430303871631622,99.9241292476654 13.385790586471558,99.94809031486511 13.385790586471558,99.94809031486511 12.328077107667923,99.96616840362549 12.328077107667923,99.96616840362549 11.266371607780457,99.95995759963989 11.266371607780457,99.95995759963989 10.209878534078598,99.91170763969421 10.209878534078598,99.91170763969421 9.16791632771492,99.80323314666748 9.16791632771492,99.80323314666748 8.149690181016922,99.61655735969543 8.149690181016922,99.61655735969543 7.164406776428223,99.33360815048218 7.164406776428223,99.33360815048218 5.629081651568413,98.65267872810364 5.629081651568413,98.65267872810364 4.254365712404251,97.7531373500824 4.254365712404251,97.7531373500824 3.0537907034158707,96.66115045547485 3.0537907034158707,96.66115045547485 2.041110582649708,95.40267586708069 2.041110582649708,95.40267586708069 1.2299682013690472,94.00377869606018 1.2299682013690472,94.00377869606018 0.6335628684610128,92.49063730239868 0.6335628684610128,92.49063730239868 0.2658701268956065,90.88887572288513 0.2658701268956065,90.88887572288513 0.1402001827955246,89.22499418258667 0.1402001827955246,89.22499418258667 0.1402001827955246,73.2350766658783 0.1402001827955246,73.2350766658783 0.1402001827955246,49.14903938770294 0.1402001827955246,49.14903938770294 0.10248811449855566,47.17447757720947 0.10248811449855566,47.17447757720947 0.03360811388120055,45.102089643478394 0.03360811388120055,45.102089643478394 -0.00022183573946676916,42.979565262794495 -0.00022183573946676916,42.979565262794495 0.0672162277624011,40.8539354801178 0.0672162277624011,40.8539354801178 0.30225119553506374,38.77267241477966 0.30225119553506374,38.77267241477966 0.7713228464126587,36.78302764892578 0.7713228464126587,36.78302764892578 1.5405382961034775,34.93247330188751 1.5405382961034775,34.93247330188751 2.676226384937763,33.26826095581055 2.676226384937763,33.26826095581055 2.9198018833994865,32.99495875835419 2.9198018833994865,32.99495875835419 3.172694519162178,32.72986710071564 3.172694519162178,32.72986710071564 3.4346826374530792,32.473644614219666 3.4346826374530792,32.473644614219666 3.7053223699331284,32.22641050815582 3.7053223699331284,32.22641050815582 3.9846133440732956,31.989046931266785 3.9846133440732956,31.989046931266785 4.272112622857094,31.761997938156128 4.272112622857094,31.761997938156128 4.567819461226463,31.545817852020264 4.567819461226463,31.545817852020264 4.8715125769376755,31.340953707695007 4.8715125769376755,31.340953707695007 5.173764005303383,31.11445903778076 5.173764005303383,31.11445903778076 5.384397134184837,30.88774085044861 5.384397134184837,30.88774085044861 5.521824210882187,30.653706192970276 5.521824210882187,30.653706192970276 5.603792518377304,30.40502667427063 5.603792518377304,30.40502667427063 5.648603290319443,30.134165287017822 5.648603290319443,30.134165287017822 5.674336105585098,29.834023118019104 5.674336105585098,29.834023118019104 5.69918192923069,29.49727475643158 5.69918192923069,29.49727475643158 5.741108953952789,29.1163831949234 5.741108953952789,29.1163831949234 5.829843133687973,28.51043939590454 5.829843133687973,28.51043939590454 5.927450954914093,27.90582776069641 5.927450954914093,27.90582776069641 6.034819409251213,27.302545309066772 6.034819409251213,27.302545309066772 6.152614206075668,26.70125961303711 6.152614206075668,26.70125961303711 6.281611323356628,26.10241174697876 6.281611323356628,26.10241174697876 6.4226992428302765,25.506451725959778 6.4226992428302765,25.506451725959778 6.576431542634964,24.91370588541031 6.576431542634964,24.91370588541031 6.743806600570679,24.324731528759003 6.743806600570679,24.324731528759003 6.950002908706665,23.64325225353241 6.950002908706665,23.64325225353241 7.194909453392029,22.900879383087158 7.194909453392029,22.900879383087158 7.4868448078632355,22.133438289165497 7.4868448078632355,22.133438289165497 7.834351062774658,21.376535296440125 7.834351062774658,21.376535296440125 8.245745301246643,20.665884017944336 8.245745301246643,20.665884017944336 8.72945785522461,20.037202537059784 8.72945785522461,20.037202537059784 9.293697029352188,19.526202976703644 9.293697029352188,19.526202976703644 9.947114437818527,19.1683828830719 9.947114437818527,19.1683828830719 11.513163894414902,19.091182947158813 11.513163894414902,19.091182947158813 12.684345245361328,20.027218759059906 12.684345245361328,20.027218759059906 13.537192344665527,21.667250990867615 13.537192344665527,21.667250990867615 14.148017764091492,23.702260851860046 14.148017764091492,23.702260851860046 14.593242108821869,25.823232531547546 14.593242108821869,25.823232531547546 14.949288964271545,27.7208149433136 14.949288964271545,27.7208149433136 15.292246639728546,29.085993766784668 15.292246639728546,29.085993766784668 15.69887101650238,29.609745740890503 15.69887101650238,29.609745740890503" stroke="white" stroke-width="0.1" /><polygon points="36.940085887908936,58.343684673309326 36.940085887908936,58.343684673309326 36.940085887908936,58.343684673309326 36.940085887908936,58.343684673309326 36.940085887908936,52.1784245967865 36.940085887908936,52.1784245967865 36.95450723171234,50.73571801185608 36.95450723171234,50.73571801185608 36.97247505187988,49.28768575191498 36.97247505187988,49.28768575191498 36.956390738487244,47.84442186355591 36.956390738487244,47.84442186355591 36.86865568161011,46.41502499580383 36.86865568161011,46.41502499580383 36.67166531085968,45.00958323478699 36.67166531085968,45.00958323478699 36.32759749889374,43.63797307014465 36.32759749889374,43.63797307014465 35.79907417297363,42.30962097644806 35.79907417297363,42.30962097644806 35.0482702255249,41.034287214279175 35.0482702255249,41.034287214279175 33.891841769218445,39.65336084365845 33.891841769218445,39.65336084365845 32.6135128736496,38.589102029800415 32.6135128736496,38.589102029800415 31.228038668632507,37.80069947242737 31.228038668632507,37.80069947242737 29.74972426891327,37.247440218925476 29.74972426891327,37.247440218925476 28.19310426712036,36.88817620277405 28.19310426712036,36.88817620277405 26.57281458377838,36.68220341205597 26.57281458377838,36.68220341205597 24.90316927433014,36.58858835697174 24.90316927433014,36.58858835697174 23.198693990707397,36.566513776779175 23.198693990707397,36.566513776779175 21.710841357707977,36.54810190200806 21.710841357707977,36.54810190200806 20.206019282341003,36.51926517486572 20.206019282341003,36.51926517486572 18.697424232959747,36.519819498062134 18.697424232959747,36.519819498062134 17.198702692985535,36.58958673477173 17.198702692985535,36.58958673477173 15.72338342666626,36.76827549934387 15.72338342666626,36.76827549934387 14.28489089012146,37.096038460731506 14.28489089012146,37.096038460731506 12.896864116191864,37.61191666126251 12.896864116191864,37.61191666126251 11.57272681593895,38.35628628730774 11.57272681593895,38.35628628730774 10.254357010126114,39.409783482551575 10.254357010126114,39.409783482551575 9.205517172813416,40.58196246623993 9.205517172813416,40.58196246623993 8.39736983180046,41.8595165014267 8.39736983180046,41.8595165014267 7.801075279712677,43.229684233665466 7.801075279712677,43.229684233665466 7.387574017047882,44.6793794631958 7.387574017047882,44.6793794631958 7.128025591373444,46.19573950767517 7.128025591373444,46.19573950767517 6.993371248245239,47.76566922664642 6.993371248245239,47.76566922664642 6.954994052648544,49.37619864940643 6.954994052648544,49.37619864940643 6.947118788957596,50.58176517486572 6.947118788957596,50.58176517486572 6.928151845932007,51.791542768478394 6.928151845932007,51.791542768478394 6.905302405357361,53.00431847572327 6.905302405357361,53.00431847572327 6.885559111833572,54.21820878982544 6.885559111833572,54.21820878982544 6.876131147146225,55.431872606277466 6.876131147146225,55.431872606277466 6.883784383535385,56.64386749267578 6.883784383535385,56.64386749267578 6.9160617887973785,57.85254240036011 6.9160617887973785,57.85254240036011 6.979839503765106,59.056222438812256 6.979839503765106,59.056222438812256 7.333224266767502,61.132603883743286 7.333224266767502,61.132603883743286 8.067278563976288,63.01344037055969 8.067278563976288,63.01344037055969 9.13652628660202,64.67354893684387 9.13652628660202,64.67354893684387 10.495270788669586,66.0878598690033 10.495270788669586,66.0878598690033 12.09770068526268,67.23153591156006 12.09770068526268,67.23153591156006 13.898453116416931,68.07938814163208 13.898453116416931,68.07938814163208 15.851716697216034,68.60647201538086 15.851716697216034,68.60647201538086 17.91190505027771,68.78771185874939 17.91190505027771,68.78771185874939 26.455241441726685,68.78771185874939 26.455241441726685,68.78771185874939 28.539279103279114,68.57297420501709 28.539279103279114,68.57297420501709 30.493763089179993,67.95849204063416 30.493763089179993,67.95849204063416 32.2731077671051,66.98806881904602 32.2731077671051,66.98806881904602 33.83128046989441,65.70597290992737 33.83128046989441,65.70597290992737 35.12280881404877,64.1563355922699 35.12280881404877,64.1563355922699 36.10188066959381,62.38331198692322 36.10188066959381,62.38331198692322 36.72291040420532,60.43115854263306 36.72291040420532,60.43115854263306" stroke="white" stroke-width="0.1" /><polygon points="77.94952988624573,74.1934061050415 77.94952988624573,74.1934061050415 77.92179584503174,76.20124220848083 77.57374048233032,78.14651727676392 76.92586779594421,79.99308109283447 75.99848508834839,81.70509338378906 74.81199502944946,83.2463026046753 73.38669896125793,84.58064198493958 71.74311876296997,85.67207455635071 69.90132927894592,86.4848792552948 68.76996755599976,86.80432438850403 67.60576963424683,87.0161771774292 66.41784310340881,87.1401846408844 65.21527171134949,87.19674944877625 64.00704383850098,87.20573782920837 62.80224919319153,87.18743324279785 61.60977482795715,87.16158866882324 60.43870449066162,87.14861273765564 51.11272931098938,87.14861273765564 51.05283260345459,87.02383041381836 51.01644992828369,86.69229745864868 50.99881291389465,86.2188994884491 50.995153188705444,85.66808104515076 51.00058913230896,85.10439395904541 51.010459661483765,84.59262251853943 51.01988911628723,84.19708609580994 51.023995876312256,83.98257493972778 51.023995876312256,43.21981370449066 50.92472434043884,40.399837493896484 50.601726770401,37.65639364719391 50.017523765563965,35.020431876182556 49.13417398929596,32.52300322055817 47.9141891002655,30.195394158363342 46.31996750831604,28.068652749061584 44.31368410587311,26.173731684684753 41.85774028301239,24.542130529880524 40.311768651008606,23.79709631204605 38.7459397315979,23.242396116256714 37.160369753837585,22.84996807575226 35.55516600608826,22.591862082481384 33.93033146858215,22.43979424238205 32.28619396686554,22.366143763065338 30.62264919281006,22.342297434806824 28.939801454544067,22.34063297510147 28.486481308937073,22.334864735603333 28.15794348716736,22.306248545646667 27.934443950653076,22.23747968673706 27.796238660812378,22.111698985099792 27.723145484924316,21.911713480949402 27.695748209953308,21.620333194732666 27.693751454353333,21.220695972442627 27.697521448135376,20.695500075817108 27.70417630672455,20.168527960777283 27.723810076713562,19.64189112186432 27.75675356388092,19.116029143333435 27.80289351940155,18.591275811195374 27.862346172332764,18.067854642868042 27.934888005256653,17.546097934246063 28.020736575126648,17.02633649110794 28.119897842407227,16.50901585817337 28.348055481910706,15.520516037940979 28.624463081359863,14.544881880283356 28.94834280014038,13.584333658218384 29.31869924068451,12.6408651471138 29.73475158214569,11.716587096452713 30.195394158363342,10.813605040311813 30.699625611305237,9.934137016534805 31.246894598007202,9.080180525779724 34.048569202423096,5.76329231262207 37.39728927612305,3.1746912747621536 41.15363359451294,1.3376695103943348 45.17817795276642,0.2758527407422662 49.33149814605713,0.012644636444747448 53.474169969558716,0.5714488681405783 57.466769218444824,1.9755581393837929 61.16987466812134,4.2485978454351425 64.49940800666809,7.494054734706879 66.93893074989319,11.285005509853363 68.4810221195221,15.452522039413452 69.11824941635132,19.827456772327423 68.84328126907349,24.240656197071075 67.6484763622284,28.523194789886475 65.52695035934448,32.50614404678345 62.47071623802185,36.019912362098694 64.79677557945251,36.25494837760925 67.02478528022766,36.88529431819916 69.11115050315857,37.87357211112976 71.01250290870667,39.18262422084808 72.68536686897278,40.774962306022644 74.08626079559326,42.61375665664673 75.17170310020447,44.661080837249756 75.89799165725708,46.88010215759277 76.08721852302551,47.82312512397766 76.22741460800171,48.783230781555176 76.32879614830017,49.75553750991821 76.40111446380615,50.735050439834595 76.45457983016968,51.716673374176025 76.498943567276,52.695417404174805 76.54442191123962,53.666168451309204 76.6007661819458,54.623943567276" stroke="white" stroke-width="0.1" /><polygon points="33.31262767314911,29.609745740890503 33.31262767314911,29.609745740890503 35.60996055603027,29.854652285575867 37.660497426986694,30.5514395236969 39.4460529088974,31.64331614971161 40.94821512699127,33.07371139526367 36.940085887908936,58.343684673309326 36.940085887908936,58.343684673309326 36.940085887908936,52.1784245967865 36.95450723171234,50.73571801185608 36.97247505187988,49.28768575191498 36.956390738487244,47.84442186355591 36.86865568161011,46.41502499580383 36.67166531085968,45.00958323478699 36.32759749889374,43.63797307014465 35.79907417297363,42.30962097644806 35.0482702255249,41.034287214279175 33.891841769218445,39.65336084365845 32.6135128736496,38.589102029800415 31.228038668632507,37.80069947242737 29.74972426891327,37.247440218925476 28.19310426712036,36.88817620277405 26.57281458377838,36.68220341205597 24.90316927433014,36.58858835697174 23.198693990707397,36.566513776779175 21.710841357707977,36.54810190200806 20.206019282341003,36.51926517486572 18.697424232959747,36.519819498062134 17.198702692985535,36.58958673477173 15.72338342666626,36.76827549934387 14.28489089012146,37.096038460731506 12.896864116191864,37.61191666126251 11.57272681593895,38.35628628730774 10.254357010126114,39.409783482551575 9.205517172813416,40.58196246623993 8.39736983180046,41.8595165014267 7.801075279712677,43.229684233665466 7.387574017047882,44.6793794631958 7.128025591373444,46.19573950767517 6.993371248245239,47.76566922664642 6.954994052648544,49.37619864940643 6.947118788957596,50.58176517486572 6.928151845932007,51.791542768478394 6.905302405357361,53.00431847572327 6.885559111833572,54.21820878982544 6.876131147146225,55.431872606277466 6.883784383535385,56.64386749267578 6.9160617887973785,57.85254240036011 6.979839503765106,59.056222438812256 7.333224266767502,61.132603883743286 8.067278563976288,63.01344037055969 9.13652628660202,64.67354893684387 10.495270788669586,66.0878598690033 12.09770068526268,67.23153591156006 13.898453116416931,68.07938814163208 15.851716697216034,68.60647201538086 17.91190505027771,68.78771185874939 26.455241441726685,68.78771185874939 28.539279103279114,68.57297420501709 30.493763089179993,67.95849204063416 32.2731077671051,66.98806881904602 33.83128046989441,65.70597290992737 35.12280881404877,64.1563355922699 36.10188066959381,62.38331198692322 36.72291040420532,60.43115854263306 36.940085887908936,58.343684673309326 40.94821512699127,33.07371139526367 42.148569226264954,34.785839915275574 43.02870035171509,36.72313094139099 43.570202589035034,38.8285756111145 43.754881620407104,41.04582369327545 43.754881620407104,52.565306425094604 43.754881620407104,83.98257493972778 43.754881620407104,88.06169033050537 43.63131821155548,90.07018804550171 43.25685799121857,92.00159907341003 42.62562692165375,93.8154399394989 41.731515526771545,95.47100067138672 40.56887626647949,96.92768454551697 39.13160264492035,98.14522862434387 37.414148449897766,99.08248782157898 35.410308837890625,99.69919323921204 34.45918560028076,99.85613822937012 33.48599374294281,99.94964599609375 32.4974924325943,99.99268054962158 31.50089681148529,99.99867081642151 30.503079295158386,99.98047947883606 29.510807991027832,99.95130896568298 28.53129208087921,99.9241292476654 27.57152020931244,99.91215467453003 15.45218974351883,99.91215467453003 14.430303871631622,99.9241292476654 13.385790586471558,99.94809031486511 12.328077107667923,99.96616840362549 11.266371607780457,99.95995759963989 10.209878534078598,99.91170763969421 9.16791632771492,99.80323314666748 8.149690181016922,99.61655735969543 7.164406776428223,99.33360815048218 5.629081651568413,98.65267872810364 4.254365712404251,97.7531373500824 3.0537907034158707,96.66115045547485 2.041110582649708,95.40267586708069 1.2299682013690472,94.00377869606018 0.6335628684610128,92.49063730239868 0.2658701268956065,90.88887572288513 0.1402001827955246,89.22499418258667 0.1402001827955246,73.2350766658783 0.1402001827955246,49.14903938770294 0.10248811449855566,47.17447757720947 0.03360811388120055,45.102089643478394 -0.00022183573946676916,42.979565262794495 0.0672162277624011,40.8539354801178 0.30225119553506374,38.77267241477966 0.7713228464126587,36.78302764892578 1.5405382961034775,34.93247330188751 2.676226384937763,33.26826095581055 2.9198018833994865,32.99495875835419 3.172694519162178,32.72986710071564 3.4346826374530792,32.473644614219666 3.7053223699331284,32.22641050815582 3.9846133440732956,31.989046931266785 4.272112622857094,31.761997938156128 4.567819461226463,31.545817852020264 4.8715125769376755,31.340953707695007 5.173764005303383,31.11445903778076 5.384397134184837,30.88774085044861 5.521824210882187,30.653706192970276 5.603792518377304,30.40502667427063 5.648603290319443,30.134165287017822 5.674336105585098,29.834023118019104 5.69918192923069,29.49727475643158 5.741108953952789,29.1163831949234 5.829843133687973,28.51043939590454 5.927450954914093,27.90582776069641 6.034819409251213,27.302545309066772 6.152614206075668,26.70125961303711 6.281611323356628,26.10241174697876 6.4226992428302765,25.506451725959778 6.576431542634964,24.91370588541031 6.743806600570679,24.324731528759003 6.950002908706665,23.64325225353241 7.194909453392029,22.900879383087158 7.4868448078632355,22.133438289165497 7.834351062774658,21.376535296440125 8.245745301246643,20.665884017944336 8.72945785522461,20.037202537059784 9.293697029352188,19.526202976703644 9.947114437818527,19.1683828830719 11.513163894414902,19.091182947158813 12.684345245361328,20.027218759059906 13.537192344665527,21.667250990867615 14.148017764091492,23.702260851860046 14.593242108821869,25.823232531547546 14.949288964271545,27.7208149433136 15.292246639728546,29.085993766784668 15.69887101650238,29.609745740890503" stroke="white" stroke-width="0.1" /></svg>