<?xml version="1.0" encoding="utf-8" ?>
<svg baseProfile="full" height="48.960524797439575" version="1.1" width="100.0" xmlns="http://www.w3.org/2000/svg" xmlns:ev="http://www.w3.org/2001/xml-events" xmlns:xlink="http://www.w3.org/1999/xlink"><defs><clipPath /></defs><polygon points="94.70232129096985,11.81676909327507 94.70232129096985,11.81676909327507 94.70232129096985,0.0 94.70232129096985,0.0 94.92998123168945,0.14960269909352064 94.92998123168945,0.14960269909352064 95.53011059761047,0.6080606020987034 95.53011059761047,0.6080606020987034 96.378493309021,1.3898484408855438 96.378493309021,1.3898484408855438 97.35115766525269,2.50944085419178 97.35115766525269,2.50944085419178 98.3237624168396,3.9813127368688583 98.3237624168396,3.9813127368688583 99.17232990264893,5.8199383318424225 99.17232990264893,5.8199383318424225 99.77227449417114,8.039792627096176 99.77227449417114,8.039792627096176 100.0,10.655350983142853 100.0,10.655350983142853 99.87860918045044,12.452012300491333 99.87860918045044,12.452012300491333 99.52488541603088,14.176838099956512 99.52488541603088,14.176838099956512 98.9542543888092,15.81515371799469 98.9542543888092,15.81515371799469 98.18214774131775,17.352314293384552 98.18214774131775,17.352314293384552 97.22423553466797,18.773633241653442 97.22423553466797,18.773633241653442 96.09594941139221,20.064416527748108 96.09594941139221,20.064416527748108 94.81282830238342,21.210023760795593 94.81282830238342,21.210023760795593 93.39043498039246,22.195778787136078 93.39043498039246,22.195778787136078 93.39240193367004,41.707807779312134 93.39240193367004,41.707807779312134 93.24009418487549,43.16945970058441 93.24009418487549,43.16945970058441 92.80474781990051,44.530850648880005 92.80474781990051,44.530850648880005 92.11629629135132,45.76282799243927 92.11629629135132,45.76282799243927 91.20478630065918,46.83621525764465 91.20478630065918,46.83621525764465 90.10016322135925,47.721847891807556 90.10016322135925,47.721847891807556 88.83253335952759,48.39055836200714 88.83253335952759,48.39055836200714 87.43196129798889,48.81318211555481 87.43196129798889,48.81318211555481 85.92824935913086,48.960524797439575 85.92824935913086,48.960524797439575 84.42386388778687,48.813167214393616 84.42386388778687,48.813167214393616 83.02279710769653,48.39055836200714 83.02279710769653,48.39055836200714 81.75492286682129,47.721847891807556 81.75492286682129,47.721847891807556 80.65023422241211,46.83621525764465 80.65023422241211,46.83621525764465 79.73885536193848,45.76282799243927 79.73885536193848,45.76282799243927 79.05064225196838,44.530850648880005 79.05064225196838,44.530850648880005 78.61572504043579,43.16945970058441 78.61572504043579,43.16945970058441 78.46409678459167,41.707807779312134 78.46409678459167,41.707807779312134 78.46409678459167,22.113171219825745 78.46409678459167,22.113171219825745 77.07034349441528,21.12351357936859 77.07034349441528,21.12351357936859 75.81390142440796,19.979089498519897 75.81390142440796,19.979089498519897 74.70970749855042,18.694068491458893 74.70970749855042,18.694068491458893 73.77269268035889,17.28261560201645 73.77269268035889,17.28261560201645 73.01791906356812,15.75886756181717 73.01791906356812,15.75886756181717 72.46031761169434,14.136962592601776 72.46031761169434,14.136962592601776 72.11464643478394,12.43106871843338 72.11464643478394,12.43106871843338 71.99614644050598,10.655350983142853 71.99614644050598,10.655350983142853 72.2177803516388,8.051670342683792 72.2177803516388,8.051670342683792 72.80212044715881,5.847827345132828 72.80212044715881,5.847827345132828 73.62819314002991,4.027579352259636 73.62819314002991,4.027579352259636 74.57516193389893,2.5747153908014297 74.57516193389893,2.5747153908014297 75.52207112312317,1.4729627408087254 75.52207112312317,1.4729627408087254 76.34820938110352,0.7061106152832508 76.34820938110352,0.7061106152832508 76.93254351615906,0.2579017775133252 76.93254351615906,0.2579017775133252 77.15418338775635,0.11210982920601964 77.15418338775635,0.11210982920601964 77.15418338775635,11.81676909327507 77.15418338775635,11.81676909327507 85.92824935913086,16.741734743118286 85.92824935913086,16.741734743118286" stroke="white" stroke-width="0.1" /><polygon points="90.36248922348022,41.707807779312134 90.36248922348022,41.707807779312134 90.27238488197327,40.83940088748932 90.27238488197327,40.83940088748932 90.013986825943,40.03061652183533 90.013986825943,40.03061652183533 89.60513472557068,39.29876685142517 89.60513472557068,39.29876685142517 89.06363844871521,38.66117298603058 89.06363844871521,38.66117298603058 88.40739130973816,38.13513517379761 88.40739130973816,38.13513517379761 87.65414953231812,37.73795664310455 87.65414953231812,37.73795664310455 86.82180643081665,37.486955523490906 86.82180643081665,37.486955523490906 85.92824935913086,37.39944398403168 85.92824935913086,37.39944398403168 85.03419756889343,37.4869704246521 85.03419756889343,37.4869704246521 84.20149087905884,37.73795664310455 84.20149087905884,37.73795664310455 83.44776034355164,38.13513517379761 83.44776034355164,38.13513517379761 82.79101848602295,38.66117298603058 82.79101848602295,38.66117298603058 82.24903345108032,39.29876685142517 82.24903345108032,39.29876685142517 81.8398654460907,40.03061652183533 81.8398654460907,40.03061652183533 81.58122897148132,40.83940088748932 81.58122897148132,40.83940088748932 81.49105906486511,41.707807779312134 81.49105906486511,41.707807779312134 81.58122897148132,42.576903104782104 81.58122897148132,42.576903104782104 81.8398654460907,43.38628947734833 81.8398654460907,43.38628947734833 82.2490930557251,44.118642807006836 82.2490930557251,44.118642807006836 82.79101848602295,44.756653904914856 82.79101848602295,44.756653904914856 83.44776034355164,45.28302848339081 83.44776034355164,45.28302848339081 84.20149087905884,45.680421590805054 84.20149087905884,45.680421590805054 85.03419756889343,45.93156278133392 85.03419756889343,45.93156278133392 85.92824935913086,46.01911902427673 85.92824935913086,46.01911902427673 86.82180643081665,45.93156278133392 86.82180643081665,45.93156278133392 87.65414953231812,45.680421590805054 87.65414953231812,45.680421590805054 88.4073257446289,45.283013582229614 88.4073257446289,45.283013582229614 89.06363844871521,44.756653904914856 89.06363844871521,44.756653904914856 89.60513472557068,44.118642807006836 89.60513472557068,44.118642807006836 90.01405239105225,43.38628947734833 90.01405239105225,43.38628947734833 90.27238488197327,42.576903104782104 90.27238488197327,42.576903104782104" stroke="white" stroke-width="0.1" /><polygon points="94.70232129096985,11.81676909327507 94.70232129096985,0.0 94.92998123168945,0.14960269909352064 95.53011059761047,0.6080606020987034 96.378493309021,1.3898484408855438 97.35115766525269,2.50944085419178 98.3237624168396,3.9813127368688583 99.17232990264893,5.8199383318424225 99.77227449417114,8.039792627096176 100.0,10.655350983142853 99.87860918045044,12.452012300491333 99.52488541603088,14.176838099956512 98.9542543888092,15.81515371799469 98.18214774131775,17.352314293384552 97.22423553466797,18.773633241653442 96.09594941139221,20.064416527748108 94.81282830238342,21.210023760795593 93.39043498039246,22.195778787136078 90.36248922348022,41.707807779312134 90.27238488197327,40.83940088748932 90.013986825943,40.03061652183533 89.60513472557068,39.29876685142517 89.06363844871521,38.66117298603058 88.40739130973816,38.13513517379761 87.65414953231812,37.73795664310455 86.82180643081665,37.486955523490906 85.92824935913086,37.39944398403168 85.03419756889343,37.4869704246521 84.20149087905884,37.73795664310455 83.44776034355164,38.13513517379761 82.79101848602295,38.66117298603058 82.24903345108032,39.29876685142517 81.8398654460907,40.03061652183533 81.58122897148132,40.83940088748932 81.49105906486511,41.707807779312134 81.58122897148132,42.576903104782104 81.8398654460907,43.38628947734833 82.2490930557251,44.118642807006836 82.79101848602295,44.756653904914856 83.44776034355164,45.28302848339081 84.20149087905884,45.680421590805054 85.03419756889343,45.93156278133392 85.92824935913086,46.01911902427673 86.82180643081665,45.93156278133392 87.65414953231812,45.680421590805054 88.4073257446289,45.283013582229614 89.06363844871521,44.756653904914856 89.60513472557068,44.118642807006836 90.01405239105225,43.38628947734833 90.27238488197327,42.576903104782104 90.36248922348022,41.707807779312134 93.39043498039246,22.195778787136078 93.39240193367004,41.707807779312134 93.24009418487549,43.16945970058441 92.80474781990051,44.530850648880005 92.11629629135132,45.76282799243927 91.20478630065918,46.83621525764465 90.10016322135925,47.721847891807556 88.83253335952759,48.39055836200714 87.43196129798889,48.81318211555481 85.92824935913086,48.960524797439575 84.42386388778687,48.813167214393616 83.02279710769653,48.39055836200714 81.75492286682129,47.721847891807556 80.65023422241211,46.83621525764465 79.73885536193848,45.76282799243927 79.05064225196838,44.530850648880005 78.61572504043579,43.16945970058441 78.46409678459167,41.707807779312134 78.46409678459167,22.113171219825745 77.07034349441528,21.12351357936859 75.81390142440796,19.979089498519897 74.70970749855042,18.694068491458893 73.77269268035889,17.28261560201645 73.01791906356812,15.75886756181717 72.46031761169434,14.136962592601776 72.11464643478394,12.43106871843338 71.99614644050598,10.655350983142853 72.2177803516388,8.051670342683792 72.80212044715881,5.847827345132828 73.62819314002991,4.027579352259636 74.57516193389893,2.5747153908014297 75.52207112312317,1.4729627408087254 76.34820938110352,0.7061106152832508 76.93254351615906,0.2579017775133252 77.15418338775635,0.11210982920601964 77.15418338775635,11.81676909327507 85.92824935913086,16.741734743118286" stroke="white" stroke-width="0.1" /></svg>