<?xml version="1.0" encoding="utf-8" ?>
<svg baseProfile="full" height="67.62330532073975" version="1.1" width="100.0" xmlns="http://www.w3.org/2000/svg" xmlns:ev="http://www.w3.org/2001/xml-events" xmlns:xlink="http://www.w3.org/1999/xlink"><defs><clipPath /></defs><polygon points="22.696568071842194,67.12732911109924 22.696568071842194,67.12732911109924 22.016578912734985,67.38503575325012 22.016578912734985,67.38503575325012 21.315091848373413,67.54643321037292 21.315091848373413,67.54643321037292 20.602256059646606,67.61255860328674 20.602256059646606,67.61255860328674 19.888904690742493,67.5837516784668 19.888904690742493,67.5837516784668 19.185355305671692,67.46078729629517 19.185355305671692,67.46078729629517 18.50244253873825,67.24444627761841 18.50244253873825,67.24444627761841 17.850656807422638,66.93506240844727 17.850656807422638,66.93506240844727 17.240145802497864,66.53367280960083 17.240145802497864,66.53367280960083 16.96532964706421,66.30821228027344 16.96532964706421,66.30821228027344 16.703927516937256,66.06435179710388 16.703927516937256,66.06435179710388 16.453875601291656,65.80621600151062 16.453875601291656,65.80621600151062 16.212767362594604,65.53742289543152 16.212767362594604,65.53742289543152 15.978537499904633,65.26157259941101 15.978537499904633,65.26157259941101 15.748779475688934,64.98280167579651 15.748779475688934,64.98280167579651 15.521599352359772,64.70454931259155 15.521599352359772,64.70454931259155 15.294764935970306,64.43076133728027 15.294764935970306,64.43076133728027 14.603769779205322,63.60812187194824 14.603769779205322,63.60812187194824 13.912774622440338,62.78547644615173 13.912774622440338,62.78547644615173 13.221435248851776,61.96292042732239 13.221435248851776,61.96292042732239 12.529923021793365,61.14036440849304 12.529923021793365,61.14036440849304 11.838412284851074,60.317981243133545 11.838412284851074,60.317981243133545 11.146900802850723,59.4954252243042 11.146900802850723,59.4954252243042 10.455390065908432,58.67321491241455 10.455390065908432,58.67321491241455 9.76405069231987,57.850998640060425 9.76405069231987,57.850998640060425 9.48166772723198,57.51160979270935 9.48166772723198,57.51160979270935 9.207023680210114,57.171183824539185 9.207023680210114,57.171183824539185 8.944589644670486,56.82585835456848 8.944589644670486,56.82585835456848 8.697805553674698,56.471848487854004 8.697805553674698,56.471848487854004 8.470626920461655,56.10562562942505 8.470626920461655,56.10562562942505 8.267008513212204,55.72315454483032 8.267008513212204,55.72315454483032 8.090562373399734,55.32090663909912 8.090562373399734,55.32090663909912 7.945243269205093,54.89509701728821 7.945243269205093,54.89509701728821 7.761918008327484,54.071247577667236 7.761918008327484,54.071247577667236 7.690548151731491,53.2328724861145 7.690548151731491,53.2328724861145 7.728898525238037,52.39371657371521 7.728898525238037,52.39371657371521 7.875249534845352,51.56755447387695 7.875249534845352,51.56755447387695 8.12736451625824,50.76821446418762 8.12736451625824,50.76821446418762 8.483181148767471,50.009286403656006 8.483181148767471,50.009286403656006 8.940978348255157,49.304792284965515 8.940978348255157,49.304792284965515 9.498520940542221,48.6682265996933 9.498520940542221,48.6682265996933 8.02280381321907,48.58756959438324 8.02280381321907,48.58756959438324 6.59833550453186,48.27595055103302 6.59833550453186,48.27595055103302 5.2497077733278275,47.7497935295105 5.2497077733278275,47.7497935295105 4.001513496041298,47.02577888965607 4.001513496041298,47.02577888965607 2.878516912460327,46.12024426460266 2.878516912460327,46.12024426460266 1.9051386043429375,45.049700140953064 1.9051386043429375,45.049700140953064 1.1061429046094418,43.83048415184021 1.1061429046094418,43.83048415184021 0.5062942858785391,42.47919023036957 0.5062942858785391,42.47919023036957 0.16234436770901084,41.195398569107056 0.16234436770901084,41.195398569107056 0.009458622662350535,39.88873362541199 0.009458622662350535,39.88873362541199 0.04264978924766183,38.581034541130066 0.04264978924766183,38.581034541130066 0.2564146649092436,37.293457984924316 0.2564146649092436,37.293457984924316 0.6459379568696022,36.04767024517059 0.6459379568696022,36.04767024517059 1.2057164683938026,34.86534357070923 1.2057164683938026,34.86534357070923 1.9309349358081818,33.767712116241455 1.9309349358081818,33.767712116241455 2.816261909902096,32.77636468410492 2.816261909902096,32.77636468410492 3.8379650563001633,31.925863027572632 3.8379650563001633,31.925863027572632 4.960101842880249,31.239423155784607 4.960101842880249,31.239423155784607 6.161518767476082,30.721092224121094 6.161518767476082,30.721092224121094 7.419859617948532,30.375593900680542 7.419859617948532,30.375593900680542 8.713971078395844,30.206972360610962 8.713971078395844,30.206972360610962 10.022012889385223,30.219611525535583 10.022012889385223,30.219611525535583 11.322659254074097,30.417898297309875 11.322659254074097,30.417898297309875 12.59407103061676,30.806219577789307 12.59407103061676,30.806219577789307 13.923436403274536,31.45284354686737 13.923436403274536,31.45284354686737 15.113846957683563,32.29380249977112 15.113846957683563,32.29380249977112 16.149824857711792,33.30381214618683 16.149824857711792,33.30381214618683 17.015717923641205,34.4580203294754 17.015717923641205,34.4580203294754 17.69587993621826,35.73080897331238 17.69587993621826,35.73080897331238 18.174314498901367,37.09706366062164 18.174314498901367,37.09706366062164 18.43588799238205,38.531506061553955 18.43588799238205,38.531506061553955 18.464607000350952,40.008941292762756 18.464607000350952,40.008941292762756 18.683016300201416,39.813750982284546 18.683016300201416,39.813750982284546 18.91036629676819,39.63180184364319 18.91036629676819,39.63180184364319 19.14631575345993,39.46300745010376 19.14631575345993,39.46300745010376 19.389833509922028,39.30659592151642 19.389833509922028,39.30659592151642 19.640228152275085,39.16248083114624 19.640228152275085,39.16248083114624 19.897158443927765,39.03040587902069 19.897158443927765,39.03040587902069 20.159249007701874,38.9097660779953 20.159249007701874,38.9097660779953 20.426498353481293,38.800302147865295 20.426498353481293,38.800302147865295 21.016715466976166,39.60583209991455 21.016715466976166,39.60583209991455 21.013276278972626,39.66163992881775 21.013276278972626,39.66163992881775 21.009837090969086,39.71710205078125 21.009837090969086,39.71710205078125 21.006397902965546,39.77230489253998 21.006397902965546,39.77230489253998 21.003130078315735,39.82725143432617 21.003130078315735,39.82725143432617 20.999862253665924,39.88185226917267 20.999862253665924,39.88185226917267 20.996767282485962,39.93619680404663 20.996767282485962,39.93619680404663 20.99367082118988,39.990198612213135 20.99367082118988,39.990198612213135 20.990575850009918,40.04402458667755 20.990575850009918,40.04402458667755 20.983009040355682,40.171632170677185 20.983009040355682,40.171632170677185 20.975269377231598,40.29889106750488 20.975269377231598,40.29889106750488 20.967702567577362,40.426066517829895 20.967702567577362,40.426066517829895 20.959964394569397,40.55298566818237 20.959964394569397,40.55298566818237 20.952053368091583,40.67947268486023 20.952053368091583,40.67947268486023 20.94414234161377,40.80587327480316 20.94414234161377,40.80587327480316 20.935887098312378,40.931761264801025 20.935887098312378,40.931761264801025 20.927289128303528,41.05730056762695 20.927289128303528,41.05730056762695 19.883057475090027,56.246817111968994 19.883057475090027,56.246817111968994 19.834904372692108,56.94366097450256 19.834904372692108,56.94366097450256 19.799132645130157,58.341819047927856 19.799132645130157,58.341819047927856 19.883401691913605,59.716928005218506 19.883401691913605,59.716928005218506 20.083579421043396,61.06271743774414 20.083579421043396,61.06271743774414 20.39640247821808,62.37291097640991 20.39640247821808,62.37291097640991 20.817740261554718,63.64079713821411 20.817740261554718,63.64079713821411 21.344156563282013,64.86009955406189 21.344156563282013,64.86009955406189 21.971693634986877,66.02445244789124 21.971693634986877,66.02445244789124" stroke="white" stroke-width="0.1" /><polygon points="94.62475180625916,46.092042326927185 94.62475180625916,46.092042326927185 95.78713178634644,46.73660397529602 95.78713178634644,46.73660397529602 96.83325290679932,47.53430783748627 96.83325290679932,47.53430783748627 97.75108098983765,48.46641421318054 97.75108098983765,48.46641421318054 98.52892756462097,49.514514207839966 98.52892756462097,49.514514207839966 99.15457367897034,50.65995454788208 99.15457367897034,50.65995454788208 99.61632490158081,51.88398361206055 99.61632490158081,51.88398361206055 99.90214705467224,53.16820740699768 99.90214705467224,53.16820740699768 100.0,54.49404716491699 100.0,54.49404716491699 99.90197420120239,55.81980347633362 99.90197420120239,55.81980347633362 99.61632490158081,57.10411071777344 99.61632490158081,57.10411071777344 99.15457367897034,58.32822918891907 99.15457367897034,58.32822918891907 98.52892756462097,59.473586082458496 98.52892756462097,59.473586082458496 97.7512538433075,60.521602630615234 97.7512538433075,60.521602630615234 96.83325290679932,61.453789472579956 96.83325290679932,61.453789472579956 95.78713178634644,62.25149631500244 95.78713178634644,62.25149631500244 94.62475180625916,62.896060943603516 94.62475180625916,62.896060943603516 93.23605298995972,63.40338587760925 93.23605298995972,63.40338587760925 91.80418848991394,63.67553472518921 91.80418848991394,63.67553472518921 90.35788178443909,63.71895670890808 90.35788178443909,63.71895670890808 88.92636299133301,63.540107011795044 88.92636299133301,63.540107011795044 87.53852248191833,63.14507722854614 87.53852248191833,63.14507722854614 86.22325658798218,62.540245056152344 86.22325658798218,62.540245056152344 85.00962853431702,61.73195838928223 85.00962853431702,61.73195838928223 83.92653465270996,60.72642207145691 83.92653465270996,60.72642207145691 83.8362455368042,61.68457865715027 83.8362455368042,61.68457865715027 83.59462022781372,62.60783076286316 83.59462022781372,62.60783076286316 83.21438431739807,63.480257987976074 83.21438431739807,63.480257987976074 82.70843625068665,64.28647637367249 82.70843625068665,64.28647637367249 82.08949565887451,65.01075029373169 82.08949565887451,65.01075029373169 81.37063980102539,65.63725471496582 81.37063980102539,65.63725471496582 80.56424856185913,66.15068316459656 80.56424856185913,66.15068316459656 79.68356609344482,66.53504967689514 79.68356609344482,66.53504967689514 79.26446199417114,66.65998697280884 79.26446199417114,66.65998697280884 78.83573174476624,66.75362586975098 78.83573174476624,66.75362586975098 78.399258852005,66.82190299034119 78.399258852005,66.82190299034119 77.95814275741577,66.87039732933044 77.95814275741577,66.87039732933044 77.51461863517761,66.90479516983032 77.51461863517761,66.90479516983032 77.07109451293945,66.93093776702881 77.07109451293945,66.93093776702881 76.63032412528992,66.95441007614136 76.63032412528992,66.95441007614136 76.1945366859436,66.98080897331238 76.1945366859436,66.98080897331238 75.94379782676697,66.99817776679993 75.94379782676697,66.99817776679993 75.69340467453003,67.01537370681763 75.69340467453003,67.01537370681763 75.4426658153534,67.03265905380249 75.4426658153534,67.03265905380249 75.19226670265198,67.04985499382019 75.19226670265198,67.04985499382019 74.94170069694519,67.06705093383789 74.94170069694519,67.06705093383789 74.6911346912384,67.08425283432007 74.6911346912384,67.08425283432007 74.44073557853699,67.1013593673706 74.44073557853699,67.1013593673706 74.18999671936035,67.11838841438293 74.18999671936035,67.11838841438293 74.91332292556763,66.01611375808716 74.91332292556763,66.01611375808716 75.53931474685669,64.85270261764526 75.53931474685669,64.85270261764526 76.06435418128967,63.63452076911926 76.06435418128967,63.63452076911926 76.48466229438782,62.367838621139526 76.48466229438782,62.367838621139526 76.79662108421326,61.059194803237915 76.79662108421326,61.059194803237915 76.99628472328186,59.71494913101196 76.99628472328186,59.71494913101196 77.08038091659546,58.341389894485474 77.08038091659546,58.341389894485474 77.0447850227356,56.945037841796875 77.0447850227356,56.945037841796875 76.84254050254822,53.9994478225708 76.84254050254822,53.9994478225708 76.0170578956604,41.99628531932831 76.0170578956604,41.99628531932831 76.15687847137451,42.00591444969177 76.15687847137451,42.00591444969177 76.29669308662415,42.01546013355255 76.29669308662415,42.01546013355255 76.43668055534363,42.025092244148254 76.43668055534363,42.025092244148254 76.57649517059326,42.03480780124664 76.57649517059326,42.03480780124664 76.7163097858429,42.04452335834503 76.7163097858429,42.04452335834503 76.85647010803223,42.054155468940735 76.85647010803223,42.054155468940735 76.99663043022156,42.0637845993042 76.99663043022156,42.0637845993042 77.13696360588074,42.07333028316498 77.13696360588074,42.07333028316498 77.57721543312073,42.105832695961 77.57721543312073,42.105832695961 78.01283001899719,42.14487075805664 78.01283001899719,42.14487075805664 78.44345569610596,42.196035385131836 78.44345569610596,42.196035385131836 78.86961102485657,42.26439297199249 78.86961102485657,42.26439297199249 79.29094433784485,42.35537052154541 79.29094433784485,42.35537052154541 79.7076404094696,42.47446060180664 79.7076404094696,42.47446060180664 80.11952042579651,42.62665808200836 80.11952042579651,42.62665808200836 80.52693009376526,42.81763732433319 80.52693009376526,42.81763732433319 81.246817111969,43.258580565452576 81.246817111969,43.258580565452576 81.89929127693176,43.78998279571533 81.89929127693176,43.78998279571533 82.47609734535217,44.400668144226074 82.47609734535217,44.400668144226074 82.96863436698914,45.07996737957001 82.96863436698914,45.07996737957001 83.36830139160156,45.81679403781891 83.36830139160156,45.81679403781891 83.66702198982239,46.59988284111023 83.66702198982239,46.59988284111023 83.85584950447083,47.41848409175873 83.85584950447083,47.41848409175873 83.92653465270996,48.26167821884155 83.92653465270996,48.26167821884155 85.00962853431702,47.256138920784 85.00962853431702,47.256138920784 86.22325658798218,46.44785821437836 86.22325658798218,46.44785821437836 87.53852248191833,45.84302008152008 87.53852248191833,45.84302008152008 88.92636299133301,45.44799625873566 88.92636299133301,45.44799625873566 90.35788178443909,45.26905417442322 90.35788178443909,45.26905417442322 91.80418848991394,45.31256556510925 91.80418848991394,45.31256556510925 93.23605298995972,45.58480083942413 93.23605298995972,45.58480083942413" stroke="white" stroke-width="0.1" /><polygon points="71.42326235771179,57.33094811439514 71.42326235771179,57.33094811439514 71.4325487613678,58.65988731384277 71.4325487613678,58.65988731384277 71.27811908721924,59.961479902267456 71.27811908721924,59.961479902267456 70.96236944198608,61.21878623962402 70.96236944198608,61.21878623962402 70.48737406730652,62.41469979286194 70.48737406730652,62.41469979286194 69.85554099082947,63.532453775405884 69.85554099082947,63.532453775405884 69.06875371932983,64.55492973327637 69.06875371932983,64.55492973327637 68.12942624092102,65.46545028686523 68.12942624092102,65.46545028686523 67.03996658325195,66.24681949615479 67.03996658325195,66.24681949615479 66.64648652076721,66.47219061851501 66.64648652076721,66.47219061851501 66.24922752380371,66.67159795761108 66.24922752380371,66.67159795761108 65.84801077842712,66.84666872024536 65.84801077842712,66.84666872024536 65.44352173805237,66.99903607368469 65.44352173805237,66.99903607368469 65.0354266166687,67.13016629219055 65.0354266166687,67.13016629219055 64.62371945381165,67.24178194999695 64.62371945381165,67.24178194999695 64.2087459564209,67.33550429344177 64.2087459564209,67.33550429344177 63.790327310562134,67.41281151771545 63.790327310562134,67.41281151771545 63.54508996009827,67.46130585670471 63.54508996009827,67.46130585670471 63.29745054244995,67.50378608703613 63.29745054244995,67.50378608703613 63.04739713668823,67.53990054130554 63.04739713668823,67.53990054130554 62.79493570327759,67.56964921951294 62.79493570327759,67.56964921951294 62.540072202682495,67.59295463562012 62.540072202682495,67.59295463562012 62.283140420913696,67.60972142219543 62.283140420913696,67.60972142219543 62.02397346496582,67.61994957923889 62.02397346496582,67.61994957923889 61.76239848136902,67.62330532073975 61.76239848136902,67.62330532073975 60.51592230796814,67.62330532073975 60.51592230796814,67.62330532073975 48.59049320220947,67.62330532073975 48.59049320220947,67.62330532073975 48.28919172286987,67.62330532073975 48.28919172286987,67.62330532073975 36.363762617111206,67.62330532073975 36.363762617111206,67.62330532073975 35.11728644371033,67.62330532073975 35.11728644371033,67.62330532073975 34.85623002052307,67.6198661327362 34.85623002052307,67.6198661327362 34.597063064575195,67.60972142219543 34.597063064575195,67.60972142219543 34.3401312828064,67.5930380821228 34.3401312828064,67.5930380821228 34.085264801979065,67.56964921951294 34.085264801979065,67.56964921951294 33.83263349533081,67.53981113433838 33.83263349533081,67.53981113433838 33.58258306980133,67.50378608703613 33.58258306980133,67.50378608703613 33.33476781845093,67.46130585670471 33.33476781845093,67.46130585670471 33.08935761451721,67.41281151771545 33.08935761451721,67.41281151771545 32.671114802360535,67.33550429344177 32.671114802360535,67.33550429344177 32.25596845149994,67.24186539649963 32.25596845149994,67.24186539649963 31.844258308410645,67.13025569915771 31.844258308410645,67.13025569915771 31.436163187026978,66.99903607368469 31.436163187026978,66.99903607368469 31.03150725364685,66.84666872024536 31.03150725364685,66.84666872024536 30.630460381507874,66.67159795761108 30.630460381507874,66.67159795761108 30.233198404312134,66.47228002548218 30.233198404312134,66.47228002548218 29.839718341827393,66.24681949615479 29.839718341827393,66.24681949615479 28.750258684158325,65.46545028686523 28.750258684158325,65.46545028686523 27.81110405921936,64.55492973327637 27.81110405921936,64.55492973327637 27.024316787719727,63.532453775405884 27.024316787719727,63.532453775405884 26.39230787754059,62.41469979286194 26.39230787754059,62.41469979286194 25.91731548309326,61.21870279312134 25.91731548309326,61.21870279312134 25.601568818092346,59.961479902267456 25.601568818092346,59.961479902267456 25.447136163711548,58.65988731384277 25.447136163711548,58.65988731384277 25.456422567367554,57.33094811439514 25.456422567367554,57.33094811439514 26.548805832862854,41.45009219646454 26.548805832862854,41.45009219646454 26.579418778419495,40.98361134529114 26.579418778419495,40.98361134529114 26.60762071609497,40.51351845264435 26.60762071609497,40.51351845264435 26.635482907295227,40.04058539867401 26.635482907295227,40.04058539867401 26.664718985557556,39.56593573093414 26.664718985557556,39.56593573093414 26.697394251823425,39.090338349342346 26.697394251823425,39.090338349342346 26.73574388027191,38.61474096775055 26.73574388027191,38.61474096775055 26.781317591667175,38.14009130001068 26.781317591667175,38.14009130001068 26.836347579956055,37.66733109951019 26.836347579956055,37.66733109951019 26.69171690940857,37.54127323627472 26.69171690940857,37.54127323627472 26.548805832862854,37.41203546524048 26.548805832862854,37.41203546524048 26.408302783966064,37.279099225997925 26.408302783966064,37.279099225997925 26.27055048942566,37.14194893836975 26.27055048942566,37.14194893836975 26.136067509651184,37.00006902217865 26.136067509651184,37.00006902217865 26.00519359111786,36.85303032398224 26.00519359111786,36.85303032398224 25.87844729423523,36.700230836868286 25.87844729423523,36.700230836868286 25.756347179412842,36.54123842716217 25.756347179412842,36.54123842716217 6.918896734714508,10.857123136520386 6.918896734714508,10.857123136520386 6.206232309341431,9.658285975456238 6.206232309341431,9.658285975456238 5.7503268122673035,8.389798551797867 5.7503268122673035,8.389798551797867 5.546020343899727,7.089667767286301 5.546020343899727,7.089667767286301 5.58832623064518,5.795641988515854 5.58832623064518,5.795641988515854 5.872257053852081,4.545298218727112 5.872257053852081,4.545298218727112 6.392825394868851,3.376384451985359 6.392825394868851,3.376384451985359 7.145215570926666,2.326907217502594 7.145215570926666,2.326907217502594 8.124097436666489,1.4342711307108402 8.124097436666489,1.4342711307108402 8.553002774715424,1.1462131515145302 8.553002774715424,1.1462131515145302 8.99704173207283,0.8978812955319881 8.99704173207283,0.8978812955319881 9.45432335138321,0.6886737421154976 9.45432335138321,0.6886737421154976 9.922783076763153,0.5185044836252928 9.922783076763153,0.5185044836252928 10.400185734033585,0.38668569177389145 10.400185734033585,0.38668569177389145 10.884295403957367,0.2932172967121005 10.884295403957367,0.2932172967121005 11.373220384120941,0.23732543922960758 11.373220384120941,0.23732543922960758 11.8648961186409,0.2187521429732442 11.8648961186409,0.2187521429732442 12.653401494026184,0.26613124646246433 12.653401494026184,0.26613124646246433 13.434511423110962,0.40672076866030693 13.434511423110962,0.40672076866030693 14.199456572532654,0.6389729678630829 14.199456572532654,0.6389729678630829 14.939293265342712,0.9611680172383785 14.939293265342712,0.9611680172383785 15.645593404769897,1.3718442991375923 15.645593404769897,1.3718442991375923 16.309073567390442,1.869281753897667 16.309073567390442,1.869281753897667 16.921648383140564,2.4518469348549843 16.921648383140564,2.4518469348549843 17.474031448364258,3.118249960243702 17.474031448364258,3.118249960243702 35.81481873989105,28.139230608940125 35.81481873989105,28.139230608940125 35.92298924922943,28.12255024909973 35.92298924922943,28.12255024909973 36.032021045684814,28.10896337032318 36.032021045684814,28.10896337032318 36.141568422317505,28.097957372665405 36.141568422317505,28.097957372665405 36.25163435935974,28.088927268981934 36.25163435935974,28.088927268981934 36.36187016963959,28.080931305885315 36.36187016963959,28.080931305885315 36.47227883338928,28.07336449623108 36.47227883338928,28.07336449623108 36.58251464366913,28.065454959869385 36.58251464366913,28.065454959869385 36.692577600479126,28.056684136390686 36.692577600479126,28.056684136390686 36.726114153862,28.052985668182373 36.726114153862,28.052985668182373 36.759474873542786,28.049632906913757 36.759474873542786,28.049632906913757 36.79266571998596,28.04645001888275 36.79266571998596,28.04645001888275 36.82602941989899,28.04352641105652 36.82602941989899,28.04352641105652 36.85922026634216,28.04068922996521 36.85922026634216,28.04068922996521 36.89258396625519,28.0378520488739 36.89258396625519,28.0378520488739 36.92594766616821,28.035014867782593 36.92594766616821,28.035014867782593 36.95948123931885,28.03191840648651 36.95948123931885,28.03191840648651 37.019672989845276,28.02727520465851 37.019672989845276,28.02727520465851 37.079522013664246,28.02099883556366 37.079522013664246,28.02099883556366 37.13919520378113,28.013688325881958 37.13919520378113,28.013688325881958 37.1990442276001,28.006121516227722 37.1990442276001,28.006121516227722 37.25889027118683,27.99898386001587 37.25889027118683,27.99898386001587 37.31890916824341,27.99288034439087 37.31890916824341,27.99288034439087 37.37893104553223,27.988409996032715 37.37893104553223,27.988409996032715 37.43963539600372,27.986517548561096 37.43963539600372,27.986517548561096 35.68841516971588,26.101240515708923 35.68841516971588,26.101240515708923 34.280627965927124,23.988357186317444 34.280627965927124,23.988357186317444 33.22710990905762,21.69833928346634 33.22710990905762,21.69833928346634 32.53903687000275,19.28183287382126 32.53903687000275,19.28183287382126 32.22724795341492,16.789141297340393 32.22724795341492,16.789141297340393 32.303088903427124,14.270998537540436 32.303088903427124,14.270998537540436 32.777053117752075,11.77753284573555 32.777053117752075,11.77753284573555 33.660316467285156,9.359565377235413 33.660316467285156,9.359565377235413 34.7829669713974,7.33550563454628 34.7829669713974,7.33550563454628 36.172181367874146,5.513947084546089 36.172181367874146,5.513947084546089 37.795454263687134,3.9156120270490646 37.795454263687134,3.9156120270490646 39.620450139045715,2.5613950565457344 39.620450139045715,2.5613950565457344 41.61467254161835,1.4719337224960327 41.61467254161835,1.4719337224960327 43.74595880508423,0.6680367514491081 43.74595880508423,0.6680367514491081 45.98128795623779,0.17042718827724457 45.98128795623779,0.17042718827724457 48.28919172286987,0.0 48.28919172286987,0.0 48.30828309059143,0.0002579624378995504 48.30828309059143,0.0002579624378995504 48.3271986246109,0.0010318497515982017 48.3271986246109,0.0010318497515982017 48.34594428539276,0.0022356744011631235 48.34594428539276,0.0022356744011631235 48.36486279964447,0.003525486681610346 48.36486279964447,0.003525486681610346 48.38360846042633,0.004815298962057568 48.38360846042633,0.004815298962057568 48.4025239944458,0.00601912361162249 48.4025239944458,0.00601912361162249 48.42161238193512,0.007050973363220692 48.42161238193512,0.007050973363220692 48.44053089618683,0.007566898420918733 48.44053089618683,0.007566898420918733 48.45910370349884,0.007050973363220692 48.45910370349884,0.007050973363220692 48.47767651081085,0.00601912361162249 48.47767651081085,0.00601912361162249 48.4962522983551,0.004815298962057568 48.4962522983551,0.004815298962057568 48.514994978904724,0.003525486681610346 48.514994978904724,0.003525486681610346 48.533740639686584,0.0021496869521797635 48.533740639686584,0.0021496869521797635 48.55265915393829,0.0011178372005815618 48.55265915393829,0.0011178372005815618 48.571404814720154,0.0002579624378995504 48.571404814720154,0.0002579624378995504 48.59049320220947,0.0 48.59049320220947,0.0 50.89839696884155,0.17042718827724457 50.89839696884155,0.17042718827724457 53.133898973464966,0.6680367514491081 53.133898973464966,0.6680367514491081 55.26501536369324,1.4719337224960327 55.26501536369324,1.4719337224960327 57.25923776626587,2.5613950565457344 57.25923776626587,2.5613950565457344 59.08406376838684,3.9156120270490646 59.08406376838684,3.9156120270490646 60.7075035572052,5.513861030340195 60.7075035572052,5.513861030340195 62.096548080444336,7.33550563454628 62.096548080444336,7.33550563454628 63.21936845779419,9.359565377235413 63.21936845779419,9.359565377235413 64.10263180732727,11.77753284573555 64.10263180732727,11.77753284573555 64.57676887512207,14.270912110805511 64.57676887512207,14.270912110805511 64.65226411819458,16.789141297340393 64.65226411819458,16.789141297340393 64.34064507484436,19.28183287382126 64.34064507484436,19.28183287382126 63.65257501602173,21.698424220085144 63.65257501602173,21.698424220085144 62.59905695915222,23.988357186317444 62.59905695915222,23.988357186317444 61.1912727355957,26.101240515708923 61.1912727355957,26.101240515708923 59.440046548843384,27.986517548561096 59.440046548843384,27.986517548561096 59.50075387954712,27.988409996032715 59.50075387954712,27.988409996032715 59.560948610305786,27.99288034439087 59.560948610305786,27.99288034439087 59.620797634124756,27.99898386001587 59.620797634124756,27.99898386001587 59.68064069747925,28.006121516227722 59.68064069747925,28.006121516227722 59.74031686782837,28.013774752616882 59.74031686782837,28.013774752616882 59.79999303817749,28.020912408828735 59.79999303817749,28.020912408828735 59.86001491546631,28.02727520465851 59.86001491546631,28.02727520465851 59.9202036857605,28.03191840648651 59.9202036857605,28.03191840648651 59.95373725891113,28.03492844104767 59.95373725891113,28.03492844104767 59.987276792526245,28.037765622138977 59.987276792526245,28.037765622138977 60.02081036567688,28.04068922996521 60.02081036567688,28.04068922996521 60.054171085357666,28.04352641105652 60.054171085357666,28.04352641105652 60.0877046585083,28.04645001888275 60.0877046585083,28.04645001888275 60.12072563171387,28.049632906913757 60.12072563171387,28.049632906913757 60.15409231185913,28.052985668182373 60.15409231185913,28.052985668182373 60.18710732460022,28.056684136390686 60.18710732460022,28.056684136390686 60.297173261642456,28.06553840637207 60.297173261642456,28.06553840637207 60.40723919868469,28.07336449623108 60.40723919868469,28.07336449623108 60.5174720287323,28.08084487915039 60.5174720287323,28.08084487915039 60.627537965774536,28.088927268981934 60.627537965774536,28.088927268981934 60.737258195877075,28.09804379940033 60.737258195877075,28.09804379940033 60.846978425979614,28.10896337032318 60.846978425979614,28.10896337032318 60.956352949142456,28.12255024909973 60.956352949142456,28.12255024909973 61.06486916542053,28.139230608940125 61.06486916542053,28.139230608940125 79.40565347671509,3.118249960243702 79.40565347671509,3.118249960243702 79.95803952217102,2.4518469348549843 79.95803952217102,2.4518469348549843 80.57061433792114,1.8691958859562874 80.57061433792114,1.8691958859562874 81.23409152030945,1.3716722838580608 81.23409152030945,1.3716722838580608 81.94039463996887,0.9609101340174675 81.94039463996887,0.9609101340174675 82.68023133277893,0.6386290304362774 82.68023133277893,0.6386290304362774 83.44517350196838,0.4064628388732672 83.44517350196838,0.4064628388732672 84.2262864112854,0.2659592777490616 84.2262864112854,0.2659592777490616 85.01479029655457,0.2187521429732442 85.01479029655457,0.2187521429732442 85.50629615783691,0.23732543922960758 85.50629615783691,0.23732543922960758 85.99539399147034,0.2932172967121005 85.99539399147034,0.2932172967121005 86.47950291633606,0.3867716761305928 86.47950291633606,0.3867716761305928 86.95690035820007,0.5185044836252928 86.95690035820007,0.5185044836252928 87.42536306381226,0.6887597031891346 87.42536306381226,0.6887597031891346 87.88264393806458,0.8977952413260937 87.88264393806458,0.8977952413260937 88.3266806602478,1.1462131515145302 88.3266806602478,1.1462131515145302 88.75558972358704,1.4342711307108402 88.75558972358704,1.4342711307108402 89.7344708442688,2.3268211632966995 89.7344708442688,2.3268211632966995 90.48686027526855,3.376384451985359 90.48686027526855,3.376384451985359 91.00742936134338,4.545212164521217 91.00742936134338,4.545212164521217 91.29136204719543,5.795641988515854 91.29136204719543,5.795641988515854 91.33366346359253,7.089753448963165 91.33366346359253,7.089753448963165 91.12918972969055,8.389884233474731 91.12918972969055,8.389884233474731 90.67327976226807,9.658199548721313 90.67327976226807,9.658199548721313 89.96078968048096,10.857123136520386 89.96078968048096,10.857123136520386 71.1233377456665,36.54123842716217 71.1233377456665,36.54123842716217 71.00123763084412,36.70014441013336 71.00123763084412,36.70014441013336 70.87449431419373,36.85303032398224 70.87449431419373,36.85303032398224 70.7436203956604,37.00006902217865 70.7436203956604,37.00006902217865 70.60913443565369,37.14186251163483 70.60913443565369,37.14186251163483 70.47138214111328,37.278926372528076 70.47138214111328,37.278926372528076 70.33070921897888,37.411776185035706 70.33070921897888,37.411776185035706 70.18796801567078,37.540844082832336 70.18796801567078,37.540844082832336 70.04333734512329,37.66664266586304 70.04333734512329,37.66664266586304 70.09802460670471,38.1396621465683 70.09802460670471,38.1396621465683 70.14342546463013,38.614484667778015 70.14342546463013,38.614484667778015 70.18160820007324,39.09025192260742 70.18160820007324,39.09025192260742 70.21445035934448,39.56584930419922 70.21445035934448,39.56584930419922 70.24385929107666,40.04058539867401 70.24385929107666,40.04058539867401 70.27171850204468,40.51351845264435 70.27171850204468,40.51351845264435 70.30026912689209,40.98361134529114 70.30026912689209,40.98361134529114 70.33088207244873,41.45009219646454 70.33088207244873,41.45009219646454" stroke="white" stroke-width="0.1" /><polygon points="22.696568071842194,67.12732911109924 22.016578912734985,67.38503575325012 21.315091848373413,67.54643321037292 20.602256059646606,67.61255860328674 19.888904690742493,67.5837516784668 19.185355305671692,67.46078729629517 18.50244253873825,67.24444627761841 17.850656807422638,66.93506240844727 17.240145802497864,66.53367280960083 16.96532964706421,66.30821228027344 16.703927516937256,66.06435179710388 16.453875601291656,65.80621600151062 16.212767362594604,65.53742289543152 15.978537499904633,65.26157259941101 15.748779475688934,64.98280167579651 15.521599352359772,64.70454931259155 15.294764935970306,64.43076133728027 14.603769779205322,63.60812187194824 13.912774622440338,62.78547644615173 13.221435248851776,61.96292042732239 12.529923021793365,61.14036440849304 11.838412284851074,60.317981243133545 11.146900802850723,59.4954252243042 10.455390065908432,58.67321491241455 9.76405069231987,57.850998640060425 9.48166772723198,57.51160979270935 9.207023680210114,57.171183824539185 8.944589644670486,56.82585835456848 8.697805553674698,56.471848487854004 8.470626920461655,56.10562562942505 8.267008513212204,55.72315454483032 8.090562373399734,55.32090663909912 7.945243269205093,54.89509701728821 7.761918008327484,54.071247577667236 7.690548151731491,53.2328724861145 7.728898525238037,52.39371657371521 7.875249534845352,51.56755447387695 8.12736451625824,50.76821446418762 8.483181148767471,50.009286403656006 8.940978348255157,49.304792284965515 9.498520940542221,48.6682265996933 8.02280381321907,48.58756959438324 6.59833550453186,48.27595055103302 5.2497077733278275,47.7497935295105 4.001513496041298,47.02577888965607 2.878516912460327,46.12024426460266 1.9051386043429375,45.049700140953064 1.1061429046094418,43.83048415184021 0.5062942858785391,42.47919023036957 0.16234436770901084,41.195398569107056 0.009458622662350535,39.88873362541199 0.04264978924766183,38.581034541130066 0.2564146649092436,37.293457984924316 0.6459379568696022,36.04767024517059 1.2057164683938026,34.86534357070923 1.9309349358081818,33.767712116241455 2.816261909902096,32.77636468410492 3.8379650563001633,31.925863027572632 4.960101842880249,31.239423155784607 6.161518767476082,30.721092224121094 7.419859617948532,30.375593900680542 8.713971078395844,30.206972360610962 10.022012889385223,30.219611525535583 11.322659254074097,30.417898297309875 12.59407103061676,30.806219577789307 13.923436403274536,31.45284354686737 15.113846957683563,32.29380249977112 16.149824857711792,33.30381214618683 17.015717923641205,34.4580203294754 17.69587993621826,35.73080897331238 18.174314498901367,37.09706366062164 18.43588799238205,38.531506061553955 18.464607000350952,40.008941292762756 18.683016300201416,39.813750982284546 18.91036629676819,39.63180184364319 19.14631575345993,39.46300745010376 19.389833509922028,39.30659592151642 19.640228152275085,39.16248083114624 19.897158443927765,39.03040587902069 20.159249007701874,38.9097660779953 20.426498353481293,38.800302147865295 21.016715466976166,39.60583209991455 21.013276278972626,39.66163992881775 21.009837090969086,39.71710205078125 21.006397902965546,39.77230489253998 21.003130078315735,39.82725143432617 20.999862253665924,39.88185226917267 20.996767282485962,39.93619680404663 20.99367082118988,39.990198612213135 20.990575850009918,40.04402458667755 20.983009040355682,40.171632170677185 20.975269377231598,40.29889106750488 20.967702567577362,40.426066517829895 20.959964394569397,40.55298566818237 20.952053368091583,40.67947268486023 20.94414234161377,40.80587327480316 20.935887098312378,40.931761264801025 20.927289128303528,41.05730056762695 19.883057475090027,56.246817111968994 19.834904372692108,56.94366097450256 19.799132645130157,58.341819047927856 19.883401691913605,59.716928005218506 20.083579421043396,61.06271743774414 20.39640247821808,62.37291097640991 20.817740261554718,63.64079713821411 21.344156563282013,64.86009955406189 21.971693634986877,66.02445244789124" stroke="white" stroke-width="0.1" /><polygon points="94.62475180625916,46.092042326927185 95.78713178634644,46.73660397529602 96.83325290679932,47.53430783748627 97.75108098983765,48.46641421318054 98.52892756462097,49.514514207839966 99.15457367897034,50.65995454788208 99.61632490158081,51.88398361206055 99.90214705467224,53.16820740699768 100.0,54.49404716491699 99.90197420120239,55.81980347633362 99.61632490158081,57.10411071777344 99.15457367897034,58.32822918891907 98.52892756462097,59.473586082458496 97.7512538433075,60.521602630615234 96.83325290679932,61.453789472579956 95.78713178634644,62.25149631500244 94.62475180625916,62.896060943603516 93.23605298995972,63.40338587760925 91.80418848991394,63.67553472518921 90.35788178443909,63.71895670890808 88.92636299133301,63.540107011795044 87.53852248191833,63.14507722854614 86.22325658798218,62.540245056152344 85.00962853431702,61.73195838928223 83.92653465270996,60.72642207145691 83.8362455368042,61.68457865715027 83.59462022781372,62.60783076286316 83.21438431739807,63.480257987976074 82.70843625068665,64.28647637367249 82.08949565887451,65.01075029373169 81.37063980102539,65.63725471496582 80.56424856185913,66.15068316459656 79.68356609344482,66.53504967689514 79.26446199417114,66.65998697280884 78.83573174476624,66.75362586975098 78.399258852005,66.82190299034119 77.95814275741577,66.87039732933044 77.51461863517761,66.90479516983032 77.07109451293945,66.93093776702881 76.63032412528992,66.95441007614136 76.1945366859436,66.98080897331238 75.94379782676697,66.99817776679993 75.69340467453003,67.01537370681763 75.4426658153534,67.03265905380249 75.19226670265198,67.04985499382019 74.94170069694519,67.06705093383789 74.6911346912384,67.08425283432007 74.44073557853699,67.1013593673706 74.18999671936035,67.11838841438293 74.91332292556763,66.01611375808716 75.53931474685669,64.85270261764526 76.06435418128967,63.63452076911926 76.48466229438782,62.367838621139526 76.79662108421326,61.059194803237915 76.99628472328186,59.71494913101196 77.08038091659546,58.341389894485474 77.0447850227356,56.945037841796875 76.84254050254822,53.9994478225708 76.0170578956604,41.99628531932831 76.15687847137451,42.00591444969177 76.29669308662415,42.01546013355255 76.43668055534363,42.025092244148254 76.57649517059326,42.03480780124664 76.7163097858429,42.04452335834503 76.85647010803223,42.054155468940735 76.99663043022156,42.0637845993042 77.13696360588074,42.07333028316498 77.57721543312073,42.105832695961 78.01283001899719,42.14487075805664 78.44345569610596,42.196035385131836 78.86961102485657,42.26439297199249 79.29094433784485,42.35537052154541 79.7076404094696,42.47446060180664 80.11952042579651,42.62665808200836 80.52693009376526,42.81763732433319 81.246817111969,43.258580565452576 81.89929127693176,43.78998279571533 82.47609734535217,44.400668144226074 82.96863436698914,45.07996737957001 83.36830139160156,45.81679403781891 83.66702198982239,46.59988284111023 83.85584950447083,47.41848409175873 83.92653465270996,48.26167821884155 85.00962853431702,47.256138920784 86.22325658798218,46.44785821437836 87.53852248191833,45.84302008152008 88.92636299133301,45.44799625873566 90.35788178443909,45.26905417442322 91.80418848991394,45.31256556510925 93.23605298995972,45.58480083942413" stroke="white" stroke-width="0.1" /><polygon points="71.42326235771179,57.33094811439514 71.4325487613678,58.65988731384277 71.27811908721924,59.961479902267456 70.96236944198608,61.21878623962402 70.48737406730652,62.41469979286194 69.85554099082947,63.532453775405884 69.06875371932983,64.55492973327637 68.12942624092102,65.46545028686523 67.03996658325195,66.24681949615479 66.64648652076721,66.47219061851501 66.24922752380371,66.67159795761108 65.84801077842712,66.84666872024536 65.44352173805237,66.99903607368469 65.0354266166687,67.13016629219055 64.62371945381165,67.24178194999695 64.2087459564209,67.33550429344177 63.790327310562134,67.41281151771545 63.54508996009827,67.46130585670471 63.29745054244995,67.50378608703613 63.04739713668823,67.53990054130554 62.79493570327759,67.56964921951294 62.540072202682495,67.59295463562012 62.283140420913696,67.60972142219543 62.02397346496582,67.61994957923889 61.76239848136902,67.62330532073975 60.51592230796814,67.62330532073975 48.59049320220947,67.62330532073975 48.28919172286987,67.62330532073975 36.363762617111206,67.62330532073975 35.11728644371033,67.62330532073975 34.85623002052307,67.6198661327362 34.597063064575195,67.60972142219543 34.3401312828064,67.5930380821228 34.085264801979065,67.56964921951294 33.83263349533081,67.53981113433838 33.58258306980133,67.50378608703613 33.33476781845093,67.46130585670471 33.08935761451721,67.41281151771545 32.671114802360535,67.33550429344177 32.25596845149994,67.24186539649963 31.844258308410645,67.13025569915771 31.436163187026978,66.99903607368469 31.03150725364685,66.84666872024536 30.630460381507874,66.67159795761108 30.233198404312134,66.47228002548218 29.839718341827393,66.24681949615479 28.750258684158325,65.46545028686523 27.81110405921936,64.55492973327637 27.024316787719727,63.532453775405884 26.39230787754059,62.41469979286194 25.91731548309326,61.21870279312134 25.601568818092346,59.961479902267456 25.447136163711548,58.65988731384277 25.456422567367554,57.33094811439514 26.548805832862854,41.45009219646454 26.579418778419495,40.98361134529114 26.60762071609497,40.51351845264435 26.635482907295227,40.04058539867401 26.664718985557556,39.56593573093414 26.697394251823425,39.090338349342346 26.73574388027191,38.61474096775055 26.781317591667175,38.14009130001068 26.836347579956055,37.66733109951019 26.69171690940857,37.54127323627472 26.548805832862854,37.41203546524048 26.408302783966064,37.279099225997925 26.27055048942566,37.14194893836975 26.136067509651184,37.00006902217865 26.00519359111786,36.85303032398224 25.87844729423523,36.700230836868286 25.756347179412842,36.54123842716217 6.918896734714508,10.857123136520386 6.206232309341431,9.658285975456238 5.7503268122673035,8.389798551797867 5.546020343899727,7.089667767286301 5.58832623064518,5.795641988515854 5.872257053852081,4.545298218727112 6.392825394868851,3.376384451985359 7.145215570926666,2.326907217502594 8.124097436666489,1.4342711307108402 8.553002774715424,1.1462131515145302 8.99704173207283,0.8978812955319881 9.45432335138321,0.6886737421154976 9.922783076763153,0.5185044836252928 10.400185734033585,0.38668569177389145 10.884295403957367,0.2932172967121005 11.373220384120941,0.23732543922960758 11.8648961186409,0.2187521429732442 12.653401494026184,0.26613124646246433 13.434511423110962,0.40672076866030693 14.199456572532654,0.6389729678630829 14.939293265342712,0.9611680172383785 15.645593404769897,1.3718442991375923 16.309073567390442,1.869281753897667 16.921648383140564,2.4518469348549843 17.474031448364258,3.118249960243702 35.81481873989105,28.139230608940125 35.92298924922943,28.12255024909973 36.032021045684814,28.10896337032318 36.141568422317505,28.097957372665405 36.25163435935974,28.088927268981934 36.36187016963959,28.080931305885315 36.47227883338928,28.07336449623108 36.58251464366913,28.065454959869385 36.692577600479126,28.056684136390686 36.726114153862,28.052985668182373 36.759474873542786,28.049632906913757 36.79266571998596,28.04645001888275 36.82602941989899,28.04352641105652 36.85922026634216,28.04068922996521 36.89258396625519,28.0378520488739 36.92594766616821,28.035014867782593 36.95948123931885,28.03191840648651 37.019672989845276,28.02727520465851 37.079522013664246,28.02099883556366 37.13919520378113,28.013688325881958 37.1990442276001,28.006121516227722 37.25889027118683,27.99898386001587 37.31890916824341,27.99288034439087 37.37893104553223,27.988409996032715 37.43963539600372,27.986517548561096 35.68841516971588,26.101240515708923 34.280627965927124,23.988357186317444 33.22710990905762,21.69833928346634 32.53903687000275,19.28183287382126 32.22724795341492,16.789141297340393 32.303088903427124,14.270998537540436 32.777053117752075,11.77753284573555 33.660316467285156,9.359565377235413 34.7829669713974,7.33550563454628 36.172181367874146,5.513947084546089 37.795454263687134,3.9156120270490646 39.620450139045715,2.5613950565457344 41.61467254161835,1.4719337224960327 43.74595880508423,0.6680367514491081 45.98128795623779,0.17042718827724457 48.28919172286987,0.0 48.30828309059143,0.0002579624378995504 48.3271986246109,0.0010318497515982017 48.34594428539276,0.0022356744011631235 48.36486279964447,0.003525486681610346 48.38360846042633,0.004815298962057568 48.4025239944458,0.00601912361162249 48.42161238193512,0.007050973363220692 48.44053089618683,0.007566898420918733 48.45910370349884,0.007050973363220692 48.47767651081085,0.00601912361162249 48.4962522983551,0.004815298962057568 48.514994978904724,0.003525486681610346 48.533740639686584,0.0021496869521797635 48.55265915393829,0.0011178372005815618 48.571404814720154,0.0002579624378995504 48.59049320220947,0.0 50.89839696884155,0.17042718827724457 53.133898973464966,0.6680367514491081 55.26501536369324,1.4719337224960327 57.25923776626587,2.5613950565457344 59.08406376838684,3.9156120270490646 60.7075035572052,5.513861030340195 62.096548080444336,7.33550563454628 63.21936845779419,9.359565377235413 64.10263180732727,11.77753284573555 64.57676887512207,14.270912110805511 64.65226411819458,16.789141297340393 64.34064507484436,19.28183287382126 63.65257501602173,21.698424220085144 62.59905695915222,23.988357186317444 61.1912727355957,26.101240515708923 59.440046548843384,27.986517548561096 59.50075387954712,27.988409996032715 59.560948610305786,27.99288034439087 59.620797634124756,27.99898386001587 59.68064069747925,28.006121516227722 59.74031686782837,28.013774752616882 59.79999303817749,28.020912408828735 59.86001491546631,28.02727520465851 59.9202036857605,28.03191840648651 59.95373725891113,28.03492844104767 59.987276792526245,28.037765622138977 60.02081036567688,28.04068922996521 60.054171085357666,28.04352641105652 60.0877046585083,28.04645001888275 60.12072563171387,28.049632906913757 60.15409231185913,28.052985668182373 60.18710732460022,28.056684136390686 60.297173261642456,28.06553840637207 60.40723919868469,28.07336449623108 60.5174720287323,28.08084487915039 60.627537965774536,28.088927268981934 60.737258195877075,28.09804379940033 60.846978425979614,28.10896337032318 60.956352949142456,28.12255024909973 61.06486916542053,28.139230608940125 79.40565347671509,3.118249960243702 79.95803952217102,2.4518469348549843 80.57061433792114,1.8691958859562874 81.23409152030945,1.3716722838580608 81.94039463996887,0.9609101340174675 82.68023133277893,0.6386290304362774 83.44517350196838,0.4064628388732672 84.2262864112854,0.2659592777490616 85.01479029655457,0.2187521429732442 85.50629615783691,0.23732543922960758 85.99539399147034,0.2932172967121005 86.47950291633606,0.3867716761305928 86.95690035820007,0.5185044836252928 87.42536306381226,0.6887597031891346 87.88264393806458,0.8977952413260937 88.3266806602478,1.1462131515145302 88.75558972358704,1.4342711307108402 89.7344708442688,2.3268211632966995 90.48686027526855,3.376384451985359 91.00742936134338,4.545212164521217 91.29136204719543,5.795641988515854 91.33366346359253,7.089753448963165 91.12918972969055,8.389884233474731 90.67327976226807,9.658199548721313 89.96078968048096,10.857123136520386 71.1233377456665,36.54123842716217 71.00123763084412,36.70014441013336 70.87449431419373,36.85303032398224 70.7436203956604,37.00006902217865 70.60913443565369,37.14186251163483 70.47138214111328,37.278926372528076 70.33070921897888,37.411776185035706 70.18796801567078,37.540844082832336 70.04333734512329,37.66664266586304 70.09802460670471,38.1396621465683 70.14342546463013,38.614484667778015 70.18160820007324,39.09025192260742 70.21445035934448,39.56584930419922 70.24385929107666,40.04058539867401 70.27171850204468,40.51351845264435 70.30026912689209,40.98361134529114 70.33088207244873,41.45009219646454" stroke="white" stroke-width="0.1" /></svg>