<?xml version="1.0" encoding="utf-8" ?>
<svg baseProfile="full" height="78.64219546318054" version="1.1" width="100.0" xmlns="http://www.w3.org/2000/svg" xmlns:ev="http://www.w3.org/2001/xml-events" xmlns:xlink="http://www.w3.org/1999/xlink"><defs><clipPath /></defs><polygon points="93.74855756759644,9.895553439855576 51.56285762786865,9.895553439855576 51.56285762786865,6.251440197229385 51.43578052520752,4.992806166410446 51.07158422470093,3.8199111819267273 50.49511194229126,2.75807473808527 49.7316837310791,1.8326165154576302 48.80649447441101,1.0687663219869137 47.744569182395935,0.491873687133193 46.571165323257446,0.12719837250187993 45.311421155929565,0.0 6.251440197229385,0.0 4.992716014385223,0.12719837250187993 3.8199111819267273,0.491873687133193 2.7581047266721725,1.0687663219869137 1.8326165154576302,1.8326165154576302 1.0687663219869137,2.7581047266721725 0.491873687133193,3.8199111819267273 0.12719837250187993,4.992806166410446 0.0,6.251440197229385 0.0,16.14699363708496 0.0,62.499040365219116 0.0,72.39075303077698 0.12713837204501033,73.64941835403442 0.491873687133193,74.8222827911377 1.0687663219869137,75.88408589363098 1.8326165154576302,76.80957913398743 2.7580447494983673,77.57342457771301 3.8199111819267273,78.15032005310059 4.992775991559029,78.51502299308777 6.251440197229385,78.64219546318054 93.74855756759644,78.64219546318054 95.0071632862091,78.51502299308777 96.18008732795715,78.15032005310059 97.24195599555969,77.57339477539062 98.16738367080688,76.80957913398743 98.93123507499695,75.88408589363098 99.50812458992004,74.8222827911377 99.87280368804932,73.64941835403442 100.0,72.39075303077698 100.0,16.14699363708496 99.87280368804932,14.88724946975708 99.50812458992004,13.713844120502472 98.93123507499695,12.651948630809784 98.16738367080688,11.726729571819305 97.24183678627014,10.963329672813416 96.18008732795715,10.386887192726135 95.00722289085388,10.022571682929993 93.74855756759644,9.895553439855576 93.74855756759644,9.895553439855576 95.00722289085388,10.022571682929993 95.00722289085388,10.022571682929993 96.18008732795715,10.386887192726135 96.18008732795715,10.386887192726135 97.24183678627014,10.963329672813416 97.24183678627014,10.963329672813416 98.16738367080688,11.726729571819305 98.16738367080688,11.726729571819305 98.93123507499695,12.651948630809784 98.93123507499695,12.651948630809784 99.50812458992004,13.713844120502472 99.50812458992004,13.713844120502472 99.87280368804932,14.88724946975708 99.87280368804932,14.88724946975708 100.0,16.14699363708496 100.0,16.14699363708496 100.0,72.39075303077698 100.0,72.39075303077698 99.87280368804932,73.64941835403442 99.87280368804932,73.64941835403442 99.50812458992004,74.8222827911377 99.50812458992004,74.8222827911377 98.93123507499695,75.88408589363098 98.93123507499695,75.88408589363098 98.16738367080688,76.80957913398743 98.16738367080688,76.80957913398743 97.24195599555969,77.57339477539062 97.24195599555969,77.57339477539062 96.18008732795715,78.15032005310059 96.18008732795715,78.15032005310059 95.0071632862091,78.51502299308777 95.0071632862091,78.51502299308777 93.74855756759644,78.64219546318054 93.74855756759644,78.64219546318054 6.251440197229385,78.64219546318054 6.251440197229385,78.64219546318054 4.992775991559029,78.51502299308777 4.992775991559029,78.51502299308777 3.8199111819267273,78.15032005310059 3.8199111819267273,78.15032005310059 2.7580447494983673,77.57342457771301 2.7580447494983673,77.57342457771301 1.8326165154576302,76.80957913398743 1.8326165154576302,76.80957913398743 1.0687663219869137,75.88408589363098 1.0687663219869137,75.88408589363098 0.491873687133193,74.8222827911377 0.491873687133193,74.8222827911377 0.12713837204501033,73.64941835403442 0.12713837204501033,73.64941835403442 0.0,72.39075303077698 0.0,72.39075303077698 0.0,62.499040365219116 0.0,62.499040365219116 0.0,16.14699363708496 0.0,16.14699363708496 0.0,6.251440197229385 0.0,6.251440197229385 0.12719837250187993,4.992806166410446 0.12719837250187993,4.992806166410446 0.491873687133193,3.8199111819267273 0.491873687133193,3.8199111819267273 1.0687663219869137,2.7581047266721725 1.0687663219869137,2.7581047266721725 1.8326165154576302,1.8326165154576302 1.8326165154576302,1.8326165154576302 2.7581047266721725,1.0687663219869137 2.7581047266721725,1.0687663219869137 3.8199111819267273,0.491873687133193 3.8199111819267273,0.491873687133193 4.992716014385223,0.12719837250187993 4.992716014385223,0.12719837250187993 6.251440197229385,0.0 6.251440197229385,0.0 45.311421155929565,0.0 45.311421155929565,0.0 46.571165323257446,0.12719837250187993 46.571165323257446,0.12719837250187993 47.744569182395935,0.491873687133193 47.744569182395935,0.491873687133193 48.80649447441101,1.0687663219869137 48.80649447441101,1.0687663219869137 49.7316837310791,1.8326165154576302 49.7316837310791,1.8326165154576302 50.49511194229126,2.75807473808527 50.49511194229126,2.75807473808527 51.07158422470093,3.8199111819267273 51.07158422470093,3.8199111819267273 51.43578052520752,4.992806166410446 51.43578052520752,4.992806166410446 51.56285762786865,6.251440197229385 51.56285762786865,6.251440197229385 51.56285762786865,9.895553439855576 51.56285762786865,9.895553439855576" stroke="white" stroke-width="0.1" /></svg>