<?xml version="1.0" encoding="utf-8" ?>
<svg baseProfile="full" height="99.81231689453125" version="1.1" width="100.0" xmlns="http://www.w3.org/2000/svg" xmlns:ev="http://www.w3.org/2001/xml-events" xmlns:xlink="http://www.w3.org/1999/xlink"><defs><clipPath /></defs><polygon points="76.71011686325073,0.0 76.71011686325073,0.0 76.71011686325073,0.0 76.71011686325073,0.0 78.5848319530487,0.07691116188652813 78.5848319530487,0.07691116188652813 80.44254779815674,0.30544286128133535 80.44254779815674,0.30544286128133535 82.27277398109436,0.6824062671512365 82.27277398109436,0.6824062671512365 84.06564593315125,1.2044606730341911 84.06564593315125,1.2044606730341911 85.81098914146423,1.8684173002839088 85.81098914146423,1.8684173002839088 87.49833106994629,2.6711633428931236 87.49833106994629,2.6711633428931236 89.11794424057007,3.609054535627365 89.11794424057007,3.609054535627365 90.65950512886047,4.679357260465622 90.65950512886047,4.679357260465622 93.55342984199524,7.280062884092331 93.55342984199524,7.280062884092331 95.76616287231445,10.119322687387466 95.76616287231445,10.119322687387466 97.38866686820984,13.168436288833618 97.38866686820984,13.168436288833618 98.51203560829163,16.3984015583992 98.51203560829163,16.3984015583992 99.22739863395691,19.78059411048889 99.22739863395691,19.78059411048889 99.62553977966309,23.286087810993195 99.62553977966309,23.286087810993195 99.79758858680725,26.88618302345276 99.79758858680725,26.88618302345276 99.83478784561157,30.551877617836 99.83478784561157,30.551877617836 99.83478784561157,62.7874493598938 99.83478784561157,62.7874493598938 99.87730383872986,65.8290445804596 99.87730383872986,65.8290445804596 99.956876039505,68.95173192024231 99.956876039505,68.95173192024231 100.0,72.11761474609375 100.0,72.11761474609375 99.93425011634827,75.2885103225708 99.93425011634827,75.2885103225708 99.68673586845398,78.42653393745422 99.68673586845398,78.42653393745422 99.18442368507385,81.49356245994568 99.18442368507385,81.49356245994568 98.35472106933594,84.45179462432861 98.35472106933594,84.45179462432861 97.12460041046143,87.26296424865723 97.12460041046143,87.26296424865723 95.59791684150696,89.73004221916199 95.59791684150696,89.73004221916199 93.78454685211182,91.96950197219849 93.78454685211182,91.96950197219849 91.71621799468994,93.96016001701355 91.71621799468994,93.96016001701355 89.42452669143677,95.68052291870117 89.42452669143677,95.68052291870117 86.94104552268982,97.10956811904907 86.94104552268982,97.10956811904907 84.29721593856812,98.22580218315125 84.29721593856812,98.22580218315125 81.52461647987366,99.00805354118347 81.52461647987366,99.00805354118347 78.65498661994934,99.43512678146362 78.65498661994934,99.43512678146362 77.72430777549744,99.49783682823181 77.72430777549744,99.49783682823181 76.7896831035614,99.53473806381226 76.7896831035614,99.53473806381226 75.85262656211853,99.55121278762817 75.85262656211853,99.55121278762817 74.9142050743103,99.55265522003174 74.9142050743103,99.55265522003174 73.97562861442566,99.54438209533691 73.97562861442566,99.54438209533691 73.03797006607056,99.53177571296692 73.03797006607056,99.53177571296692 72.10273742675781,99.5202362537384 72.10273742675781,99.5202362537384 71.17068767547607,99.515300989151 71.17068767547607,99.515300989151 39.5692378282547,99.515300989151 39.5692378282547,99.515300989151 36.721017956733704,99.5622992515564 36.721017956733704,99.5622992515564 33.75997543334961,99.66540336608887 33.75997543334961,99.66540336608887 30.72771728038788,99.76767301559448 30.72771728038788,99.76767301559448 27.66599953174591,99.81231689453125 27.66599953174591,99.81231689453125 24.616582691669464,99.74238872528076 24.616582691669464,99.74238872528076 21.62107229232788,99.5010256767273 21.62107229232788,99.5010256767273 18.721072375774384,99.0311324596405 18.721072375774384,99.0311324596405 15.958648920059204,98.27621579170227 15.958648920059204,98.27621579170227 13.294470310211182,97.1703052520752 13.294470310211182,97.1703052520752 10.806132107973099,95.74612379074097 10.806132107973099,95.74612379074097 8.519600331783295,94.03175711631775 8.519600331783295,94.03175711631775 6.460689753293991,92.05529689788818 6.460689753293991,92.05529689788818 4.65582050383091,89.84461426734924 4.65582050383091,89.84461426734924 3.130960091948509,87.4278724193573 3.130960091948509,87.4278724193573 1.912073791027069,84.83301401138306 1.912073791027069,84.83301401138306 1.0252797044813633,82.08797574043274 1.0252797044813633,82.08797574043274 0.765163591131568,80.90052008628845 0.765163591131568,80.90052008628845 0.577327236533165,79.71033453941345 0.577327236533165,79.71033453941345 0.45007835142314434,78.51756811141968 0.45007835142314434,78.51756811141968 0.3721801796928048,77.32206583023071 0.3721801796928048,77.32206583023071 0.3317885333672166,76.12360119819641 0.3317885333672166,76.12360119819641 0.3170592477545142,74.92232918739319 0.3170592477545142,74.92232918739319 0.3170592477545142,73.7180233001709 0.3170592477545142,73.7180233001709 0.319488812237978,72.51060009002686 0.319488812237978,72.51060009002686 0.319488812237978,41.873687505722046 0.319488812237978,41.873687505722046 0.28319708071649075,39.0992671251297 0.28319708071649075,39.0992671251297 0.1980101689696312,36.27716600894928 0.1980101689696312,36.27716600894928 0.0993087887763977,33.42408835887909 0.0993087887763977,33.42408835887909 0.022169851581566036,30.556735396385193 0.022169851581566036,30.556735396385193 0.002125876198988408,27.691662311553955 0.002125876198988408,27.691662311553955 0.07455751183442771,24.845418334007263 0.07455751183442771,24.845418334007263 0.274693570099771,22.03478217124939 0.274693570099771,22.03478217124939 0.6377628538757563,19.276230037212372 0.6377628538757563,19.276230037212372 1.8407050520181656,14.795567095279694 1.8407050520181656,14.795567095279694 3.7904370576143265,10.897544771432877 3.7904370576143265,10.897544771432877 6.393420696258545,7.586720585823059 6.393420696258545,7.586720585823059 9.555964916944504,4.867649078369141 9.555964916944504,4.867649078369141 13.18407654762268,2.7448857203125954 13.18407654762268,2.7448857203125954 17.18451976776123,1.2229861691594124 17.18451976776123,1.2229861691594124 21.462997794151306,0.3064298536628485 21.462997794151306,0.3064298536628485 25.92597007751465,0.0 25.92597007751465,0.0" stroke="white" stroke-width="0.1" /><polygon points="47.647565603256226,24.907979369163513 47.647565603256226,24.907979369163513 46.64475917816162,23.425181210041046 46.64475917816162,23.425181210041046 44.55563127994537,20.726609230041504 44.55563127994537,20.726609230041504 41.50256812572479,17.639002203941345 41.50256812572479,17.639002203941345 37.60857284069061,14.988641440868378 37.60857284069061,14.988641440868378 32.99618065357208,13.60226720571518 32.99618065357208,13.60226720571518 27.787935733795166,14.306387305259705 27.787935733795166,14.306387305259705 22.106683254241943,17.927286028862 22.106683254241943,17.927286028862 16.075268387794495,25.29185116291046 16.075268387794495,25.29185116291046 16.303040087223053,25.259357690811157 16.303040087223053,25.259357690811157 18.13691258430481,24.166959524154663 18.13691258430481,24.166959524154663 21.305227279663086,22.54241108894348 21.305227279663086,22.54241108894348 25.536176562309265,20.913459360599518 25.536176562309265,20.913459360599518 30.557647347450256,19.807851314544678 30.557647347450256,19.807851314544678 36.09798550605774,19.753186404705048 36.09798550605774,19.753186404705048 41.88522696495056,21.27736359834671 41.88522696495056,21.27736359834671" stroke="white" stroke-width="0.1" /><polygon points="84.07657742500305,25.29185116291046 84.07657742500305,25.29185116291046 78.0454695224762,17.92675405740738 78.0454695224762,17.92675405740738 72.36421704292297,14.305628836154938 72.36421704292297,14.305628836154938 67.15582013130188,13.601811230182648 67.15582013130188,13.601811230182648 62.54327893257141,14.988641440868378 62.54327893257141,14.988641440868378 58.6489737033844,17.63938218355179 58.6489737033844,17.63938218355179 55.59591054916382,20.7272931933403 55.59591054916382,20.7272931933403 53.506630659103394,23.425789177417755 53.506630659103394,23.425789177417755 52.50428318977356,24.907979369163513 52.50428318977356,24.907979369163513 58.266621828079224,21.27736359834671 58.266621828079224,21.27736359834671 64.05386328697205,19.753186404705048 64.05386328697205,19.753186404705048 69.59404945373535,19.807851314544678 69.59404945373535,19.807851314544678 74.61566925048828,20.913459360599518 74.61566925048828,20.913459360599518 78.8466215133667,22.54241108894348 78.8466215133667,22.54241108894348 82.01478123664856,24.166959524154663 82.01478123664856,24.166959524154663 83.84881019592285,25.25928020477295 83.84881019592285,25.25928020477295" stroke="white" stroke-width="0.1" /><polygon points="45.75735926628113,44.332414865493774 45.75735926628113,44.332414865493774 45.75735926628113,44.332414865493774 45.75735926628113,44.332414865493774 45.497697591781616,41.820311546325684 45.497697591781616,41.820311546325684 44.75455284118652,39.46780264377594 44.75455284118652,39.46780264377594 43.58198046684265,37.32886612415314 43.58198046684265,37.32886612415314 42.03343093395233,35.457488894462585 42.03343093395233,35.457488894462585 40.16326665878296,33.90795290470123 40.16326665878296,33.90795290470123 38.024938106536865,32.73416459560394 38.024938106536865,32.73416459560394 35.67265868186951,31.990259885787964 35.67265868186951,31.990259885787964 33.160024881362915,31.73021972179413 33.160024881362915,31.73021972179413 30.64693510532379,31.990107893943787 30.64693510532379,31.990107893943787 28.294196724891663,32.73378610610962 28.294196724891663,32.73378610610962 26.155564188957214,33.907270431518555 26.155564188957214,33.907270431518555 24.28494691848755,35.45657694339752 24.28494691848755,35.45657694339752 22.73624539375305,37.327805161476135 22.73624539375305,37.327805161476135 21.563217043876648,39.4667387008667 21.563217043876648,39.4667387008667 20.819920301437378,41.819629073143005 20.819920301437378,41.819629073143005 20.560260117053986,44.332414865493774 20.560260117053986,44.332414865493774 20.820072293281555,46.84489667415619 20.820072293281555,46.84489667415619 21.56367301940918,49.1969496011734 21.56367301940918,49.1969496011734 22.73685336112976,51.334744691848755 22.73685336112976,51.334744691848755 24.285857379436493,53.20460796356201 24.285857379436493,53.20460796356201 26.156628131866455,54.75262403488159 26.156628131866455,54.75262403488159 28.295260667800903,55.92489242553711 28.295260667800903,55.92489242553711 30.6475430727005,56.66766166687012 30.6475430727005,56.66766166687012 33.160024881362915,56.92731738090515 33.160024881362915,56.92731738090515 35.67189872264862,56.66766166687012 35.67189872264862,56.66766166687012 38.02387714385986,55.92451095581055 38.02387714385986,55.92451095581055 40.16205370426178,54.751938581466675 40.16205370426178,54.751938581466675 42.03251898288727,53.20369601249695 42.03251898288727,53.20369601249695 43.58106851577759,51.33376121520996 43.58106851577759,51.33376121520996 44.75424885749817,49.1958886384964 44.75424885749817,49.1958886384964 45.497697591781616,46.8441367149353 45.497697591781616,46.8441367149353" stroke="white" stroke-width="0.1" /><polygon points="66.99182391166687,31.73021972179413 66.99182391166687,31.73021972179413 66.99182391166687,31.73021972179413 66.99182391166687,31.73021972179413 64.4793450832367,31.990185379981995 64.4793450832367,31.990185379981995 62.12691068649292,32.734090089797974 62.12691068649292,32.734090089797974 59.988582134246826,33.907875418663025 59.988582134246826,33.907875418663025 58.118414878845215,35.457488894462585 58.118414878845215,35.457488894462585 56.57001733779907,37.32886612415314 56.57001733779907,37.32886612415314 55.39729595184326,39.46780264377594 55.39729595184326,39.46780264377594 54.65415120124817,41.820311546325684 54.65415120124817,41.820311546325684 54.39448952674866,44.332414865493774 54.39448952674866,44.332414865493774 54.65430021286011,46.8441367149353 54.65430021286011,46.8441367149353 55.397599935531616,49.19596314430237 55.397599935531616,49.19596314430237 56.57062530517578,51.33368372917175 56.57062530517578,51.33368372917175 58.11932682991028,53.20369601249695 58.11932682991028,53.20369601249695 59.989798069000244,54.75201606750488 59.989798069000244,54.75201606750488 62.12782263755798,55.924588441848755 62.12782263755798,55.924588441848755 64.47994709014893,56.66758418083191 64.47994709014893,56.66758418083191 66.99182391166687,56.92731738090515 66.99182391166687,56.92731738090515 69.50415372848511,56.66773319244385 69.50415372848511,56.66773319244385 71.85658812522888,55.92489242553711 71.85658812522888,55.92489242553711 73.99522066116333,54.752546548843384 73.99522066116333,54.752546548843384 75.86598992347717,53.20460796356201 75.86598992347717,53.20460796356201 77.41499543190002,51.33482217788696 77.41499543190002,51.33482217788696 78.5881757736206,49.1969496011734 78.5881757736206,49.1969496011734 79.33177351951599,46.84481918811798 79.33177351951599,46.84481918811798 79.59159016609192,44.332414865493774 79.59159016609192,44.332414865493774 79.33192849159241,41.819629073143005 79.33192849159241,41.819629073143005 78.58847975730896,39.4667387008667 78.58847975730896,39.4667387008667 77.41560339927673,37.32772767543793 77.41560339927673,37.32772767543793 75.86690187454224,35.45657694339752 75.86690187454224,35.45657694339752 73.99628162384033,33.907344937324524 73.99628162384033,33.907344937324524 71.85764908790588,32.73378610610962 71.85764908790588,32.73378610610962 69.50491666793823,31.990107893943787 69.50491666793823,31.990107893943787" stroke="white" stroke-width="0.1" /><polygon points="50.07714033126831,74.92316365242004 50.07714033126831,74.92316365242004 50.07714033126831,74.92316365242004 50.07714033126831,74.92316365242004 46.23856544494629,74.72773790359497 46.23856544494629,74.72773790359497 42.417606711387634,74.10667538642883 42.417606711387634,74.10667538642883 38.65845203399658,73.08458685874939 38.65845203399658,73.08458685874939 35.00573933124542,71.68576121330261 35.00573933124542,71.68576121330261 31.50366246700287,69.93487477302551 31.50366246700287,69.93487477302551 28.196710348129272,67.85629391670227 28.196710348129272,67.85629391670227 25.1295268535614,65.47462940216064 25.1295268535614,65.47462940216064 22.345995903015137,62.814176082611084 22.345995903015137,62.814176082611084 20.468543469905853,61.43152117729187 20.468543469905853,61.43152117729187 18.488137423992157,60.94317436218262 18.488137423992157,60.94317436218262 16.58669263124466,61.21065616607666 16.58669263124466,61.21065616607666 14.945819973945618,62.095630168914795 14.945819973945618,62.095630168914795 13.747736811637878,63.4596049785614 13.747736811637878,63.4596049785614 13.174054026603699,65.1640236377716 13.174054026603699,65.1640236377716 13.406990468502045,67.07078814506531 13.406990468502045,67.07078814506531 14.628458023071289,69.04116868972778 14.628458023071289,69.04116868972778 15.64553678035736,70.12187242507935 15.64553678035736,70.12187242507935 16.701339185237885,71.16658687591553 16.701339185237885,71.16658687591553 17.79312789440155,72.17562198638916 17.79312789440155,72.17562198638916 18.917565047740936,73.14897179603577 18.917565047740936,73.14897179603577 20.071914792060852,74.08708930015564 20.071914792060852,74.08708930015564 21.253599226474762,74.9901294708252 21.253599226474762,74.9901294708252 22.459274530410767,75.85824728012085 22.459274530410767,75.85824728012085 23.68590533733368,76.6918957233429 23.68590533733368,76.6918957233429 28.94638478755951,79.71382737159729 28.94638478755951,79.71382737159729 34.47791635990143,82.0363461971283 34.47791635990143,82.0363461971283 40.21064341068268,83.64669680595398 40.21064341068268,83.64669680595398 46.07472121715546,84.53242778778076 46.07472121715546,84.53242778778076 52.000147104263306,84.6807062625885 52.000147104263306,84.6807062625885 57.91706442832947,84.07886028289795 57.91706442832947,84.07886028289795 63.75563144683838,82.71434903144836 63.75563144683838,82.71434903144836 69.4456934928894,80.57435154914856 69.4456934928894,80.57435154914856 71.3495671749115,79.66318726539612 71.3495671749115,79.66318726539612 73.2157826423645,78.67298126220703 73.2157826423645,78.67298126220703 75.04069805145264,77.60586738586426 75.04069805145264,77.60586738586426 76.82051062583923,76.46412253379822 76.82051062583923,76.46412253379822 78.55142951011658,75.24963617324829 78.55142951011658,75.24963617324829 80.22996187210083,73.96469712257385 80.22996187210083,73.96469712257385 81.85230493545532,72.61112332344055 81.85230493545532,72.61112332344055 83.4145188331604,71.19134068489075 83.4145188331604,71.19134068489075 83.71609449386597,70.90153694152832 83.71609449386597,70.90153694152832 84.01371240615845,70.60824632644653 84.01371240615845,70.60824632644653 84.30799841880798,70.311838388443 84.30799841880798,70.311838388443 84.59924459457397,70.01269459724426 84.59924459457397,70.01269459724426 84.88805890083313,69.71112489700317 84.88805890083313,69.71112489700317 85.17504930496216,69.40757632255554 85.17504930496216,69.40757632255554 85.46082973480225,69.10228729248047 85.46082973480225,69.10228729248047 85.74569821357727,68.79578232765198 85.74569821357727,68.79578232765198 86.4961326122284,67.70687699317932 86.4961326122284,67.70687699317932 86.88319325447083,66.51023626327515 86.88319325447083,66.51023626327515 86.93466782569885,65.27130603790283 86.93466782569885,65.27130603790283 86.67789101600647,64.05568718910217 86.67789101600647,64.05568718910217 86.14050149917603,62.92889714241028 86.14050149917603,62.92889714241028 85.34982800483704,61.95653676986694 85.34982800483704,61.95653676986694 84.33365821838379,61.20389699935913 84.33365821838379,61.20389699935913 83.11932682991028,60.73688864707947 83.11932682991028,60.73688864707947 81.63835406303406,60.69034934043884 81.63835406303406,60.69034934043884 80.14644384384155,61.15204095840454 80.14644384384155,61.15204095840454 78.6630392074585,61.99859976768494 78.6630392074585,61.99859976768494 77.20741629600525,63.10693621635437 77.20741629600525,63.10693621635437 75.79887509346008,64.35376405715942 75.79887509346008,64.35376405715942 74.45668578147888,65.61577320098877 74.45668578147888,65.61577320098877 73.20029139518738,66.76982045173645 73.20029139518738,66.76982045173645 72.04897999763489,67.69275665283203 72.04897999763489,67.69275665283203 69.5849359035492,69.29817199707031 69.5849359035492,69.29817199707031 67.01672673225403,70.72926759719849 67.01672673225403,70.72926759719849 64.35604095458984,71.97305560112 64.35604095458984,71.97305560112 61.61472201347351,73.01625609397888 61.61472201347351,73.01625609397888 58.80447030067444,73.84595274925232 58.80447030067444,73.84595274925232 55.936962366104126,74.4490921497345 55.936962366104126,74.4490921497345 53.02375555038452,74.81246590614319 53.02375555038452,74.81246590614319" stroke="white" stroke-width="0.1" /><polygon points="76.71011686325073,0.0 76.71011686325073,0.0 78.5848319530487,0.07691116188652813 80.44254779815674,0.30544286128133535 82.27277398109436,0.6824062671512365 47.647565603256226,24.907979369163513 46.64475917816162,23.425181210041046 44.55563127994537,20.726609230041504 41.50256812572479,17.639002203941345 37.60857284069061,14.988641440868378 32.99618065357208,13.60226720571518 27.787935733795166,14.306387305259705 22.106683254241943,17.927286028862 16.075268387794495,25.29185116291046 16.303040087223053,25.259357690811157 18.13691258430481,24.166959524154663 21.305227279663086,22.54241108894348 25.536176562309265,20.913459360599518 30.557647347450256,19.807851314544678 36.09798550605774,19.753186404705048 41.88522696495056,21.27736359834671 47.647565603256226,24.907979369163513 82.27277398109436,0.6824062671512365 84.06564593315125,1.2044606730341911 85.81098914146423,1.8684173002839088 84.07657742500305,25.29185116291046 78.0454695224762,17.92675405740738 72.36421704292297,14.305628836154938 67.15582013130188,13.601811230182648 62.54327893257141,14.988641440868378 58.6489737033844,17.63938218355179 55.59591054916382,20.7272931933403 53.506630659103394,23.425789177417755 52.50428318977356,24.907979369163513 58.266621828079224,21.27736359834671 64.05386328697205,19.753186404705048 69.59404945373535,19.807851314544678 74.61566925048828,20.913459360599518 78.8466215133667,22.54241108894348 82.01478123664856,24.166959524154663 83.84881019592285,25.25928020477295 84.07657742500305,25.29185116291046 85.81098914146423,1.8684173002839088 87.49833106994629,2.6711633428931236 89.11794424057007,3.609054535627365 90.65950512886047,4.679357260465622 93.55342984199524,7.280062884092331 95.76616287231445,10.119322687387466 97.38866686820984,13.168436288833618 98.51203560829163,16.3984015583992 99.22739863395691,19.78059411048889 99.62553977966309,23.286087810993195 99.79758858680725,26.88618302345276 66.99182391166687,31.73021972179413 66.99182391166687,31.73021972179413 64.4793450832367,31.990185379981995 62.12691068649292,32.734090089797974 59.988582134246826,33.907875418663025 45.75735926628113,44.332414865493774 45.75735926628113,44.332414865493774 45.497697591781616,41.820311546325684 44.75455284118652,39.46780264377594 43.58198046684265,37.32886612415314 42.03343093395233,35.457488894462585 40.16326665878296,33.90795290470123 38.024938106536865,32.73416459560394 35.67265868186951,31.990259885787964 33.160024881362915,31.73021972179413 30.64693510532379,31.990107893943787 28.294196724891663,32.73378610610962 26.155564188957214,33.907270431518555 24.28494691848755,35.45657694339752 22.73624539375305,37.327805161476135 21.563217043876648,39.4667387008667 20.819920301437378,41.819629073143005 20.560260117053986,44.332414865493774 20.820072293281555,46.84489667415619 21.56367301940918,49.1969496011734 22.73685336112976,51.334744691848755 24.285857379436493,53.20460796356201 26.156628131866455,54.75262403488159 28.295260667800903,55.92489242553711 30.6475430727005,56.66766166687012 33.160024881362915,56.92731738090515 35.67189872264862,56.66766166687012 38.02387714385986,55.92451095581055 40.16205370426178,54.751938581466675 42.03251898288727,53.20369601249695 43.58106851577759,51.33376121520996 44.75424885749817,49.1958886384964 45.497697591781616,46.8441367149353 45.75735926628113,44.332414865493774 59.988582134246826,33.907875418663025 58.118414878845215,35.457488894462585 56.57001733779907,37.32886612415314 55.39729595184326,39.46780264377594 54.65415120124817,41.820311546325684 54.39448952674866,44.332414865493774 54.65430021286011,46.8441367149353 55.397599935531616,49.19596314430237 56.57062530517578,51.33368372917175 58.11932682991028,53.20369601249695 59.989798069000244,54.75201606750488 62.12782263755798,55.924588441848755 64.47994709014893,56.66758418083191 66.99182391166687,56.92731738090515 69.50415372848511,56.66773319244385 71.85658812522888,55.92489242553711 73.99522066116333,54.752546548843384 75.86598992347717,53.20460796356201 77.41499543190002,51.33482217788696 78.5881757736206,49.1969496011734 79.33177351951599,46.84481918811798 79.59159016609192,44.332414865493774 79.33192849159241,41.819629073143005 78.58847975730896,39.4667387008667 77.41560339927673,37.32772767543793 75.86690187454224,35.45657694339752 73.99628162384033,33.907344937324524 71.85764908790588,32.73378610610962 69.50491666793823,31.990107893943787 66.99182391166687,31.73021972179413 99.79758858680725,26.88618302345276 99.83478784561157,30.551877617836 99.83478784561157,62.7874493598938 99.87730383872986,65.8290445804596 99.956876039505,68.95173192024231 100.0,72.11761474609375 99.93425011634827,75.2885103225708 99.68673586845398,78.42653393745422 99.18442368507385,81.49356245994568 98.35472106933594,84.45179462432861 97.12460041046143,87.26296424865723 95.59791684150696,89.73004221916199 93.78454685211182,91.96950197219849 91.71621799468994,93.96016001701355 89.42452669143677,95.68052291870117 86.94104552268982,97.10956811904907 84.29721593856812,98.22580218315125 81.52461647987366,99.00805354118347 78.65498661994934,99.43512678146362 77.72430777549744,99.49783682823181 76.7896831035614,99.53473806381226 75.85262656211853,99.55121278762817 74.9142050743103,99.55265522003174 73.97562861442566,99.54438209533691 73.03797006607056,99.53177571296692 72.10273742675781,99.5202362537384 71.17068767547607,99.515300989151 39.5692378282547,99.515300989151 36.721017956733704,99.5622992515564 33.75997543334961,99.66540336608887 30.72771728038788,99.76767301559448 27.66599953174591,99.81231689453125 24.616582691669464,99.74238872528076 21.62107229232788,99.5010256767273 18.721072375774384,99.0311324596405 15.958648920059204,98.27621579170227 13.294470310211182,97.1703052520752 10.806132107973099,95.74612379074097 8.519600331783295,94.03175711631775 6.460689753293991,92.05529689788818 4.65582050383091,89.84461426734924 3.130960091948509,87.4278724193573 1.912073791027069,84.83301401138306 1.0252797044813633,82.08797574043274 0.765163591131568,80.90052008628845 0.577327236533165,79.71033453941345 0.45007835142314434,78.51756811141968 0.3721801796928048,77.32206583023071 0.3317885333672166,76.12360119819641 0.3170592477545142,74.92232918739319 0.3170592477545142,73.7180233001709 0.319488812237978,72.51060009002686 0.319488812237978,41.873687505722046 50.07714033126831,74.92316365242004 50.07714033126831,74.92316365242004 46.23856544494629,74.72773790359497 42.417606711387634,74.10667538642883 38.65845203399658,73.08458685874939 35.00573933124542,71.68576121330261 31.50366246700287,69.93487477302551 28.196710348129272,67.85629391670227 25.1295268535614,65.47462940216064 22.345995903015137,62.814176082611084 20.468543469905853,61.43152117729187 18.488137423992157,60.94317436218262 16.58669263124466,61.21065616607666 14.945819973945618,62.095630168914795 13.747736811637878,63.4596049785614 13.174054026603699,65.1640236377716 13.406990468502045,67.07078814506531 14.628458023071289,69.04116868972778 15.64553678035736,70.12187242507935 16.701339185237885,71.16658687591553 17.79312789440155,72.17562198638916 18.917565047740936,73.14897179603577 20.071914792060852,74.08708930015564 21.253599226474762,74.9901294708252 22.459274530410767,75.85824728012085 23.68590533733368,76.6918957233429 28.94638478755951,79.71382737159729 34.47791635990143,82.0363461971283 40.21064341068268,83.64669680595398 46.07472121715546,84.53242778778076 52.000147104263306,84.6807062625885 57.91706442832947,84.07886028289795 63.75563144683838,82.71434903144836 69.4456934928894,80.57435154914856 71.3495671749115,79.66318726539612 73.2157826423645,78.67298126220703 75.04069805145264,77.60586738586426 76.82051062583923,76.46412253379822 78.55142951011658,75.24963617324829 80.22996187210083,73.96469712257385 81.85230493545532,72.61112332344055 83.4145188331604,71.19134068489075 83.71609449386597,70.90153694152832 84.01371240615845,70.60824632644653 84.30799841880798,70.311838388443 84.59924459457397,70.01269459724426 84.88805890083313,69.71112489700317 85.17504930496216,69.40757632255554 85.46082973480225,69.10228729248047 85.74569821357727,68.79578232765198 86.4961326122284,67.70687699317932 86.88319325447083,66.51023626327515 86.93466782569885,65.27130603790283 86.67789101600647,64.05568718910217 86.14050149917603,62.92889714241028 85.34982800483704,61.95653676986694 84.33365821838379,61.20389699935913 83.11932682991028,60.73688864707947 81.63835406303406,60.69034934043884 80.14644384384155,61.15204095840454 78.6630392074585,61.99859976768494 77.20741629600525,63.10693621635437 75.79887509346008,64.35376405715942 74.45668578147888,65.61577320098877 73.20029139518738,66.76982045173645 72.04897999763489,67.69275665283203 69.5849359035492,69.29817199707031 67.01672673225403,70.72926759719849 64.35604095458984,71.97305560112 61.61472201347351,73.01625609397888 58.80447030067444,73.84595274925232 55.936962366104126,74.4490921497345 53.02375555038452,74.81246590614319 50.07714033126831,74.92316365242004 0.319488812237978,41.873687505722046 0.28319708071649075,39.0992671251297 0.1980101689696312,36.27716600894928 0.0993087887763977,33.42408835887909 0.022169851581566036,30.556735396385193 0.002125876198988408,27.691662311553955 0.07455751183442771,24.845418334007263 0.274693570099771,22.03478217124939 0.6377628538757563,19.276230037212372 1.8407050520181656,14.795567095279694 3.7904370576143265,10.897544771432877 6.393420696258545,7.586720585823059 9.555964916944504,4.867649078369141 13.18407654762268,2.7448857203125954 17.18451976776123,1.2229861691594124 21.462997794151306,0.3064298536628485 25.92597007751465,0.0" stroke="white" stroke-width="0.1" /></svg>