<?xml version="1.0" encoding="utf-8" ?>
<svg baseProfile="full" height="42.71147549152374" version="1.1" width="99.99609589576721" xmlns="http://www.w3.org/2000/svg" xmlns:ev="http://www.w3.org/2001/xml-events" xmlns:xlink="http://www.w3.org/1999/xlink"><defs><clipPath /></defs><polygon points="99.99609589576721,23.397669196128845 99.99609589576721,23.397669196128845 99.99609589576721,23.397669196128845 99.99609589576721,23.397669196128845 99.95870590209961,24.282580614089966 99.95870590209961,24.282580614089966 99.92001056671143,25.217342376708984 99.92001056671143,25.217342376708984 99.86295104026794,26.18110179901123 99.86295104026794,26.18110179901123 99.77060556411743,27.15297043323517 99.77060556411743,27.15297043323517 99.62583780288696,28.112095594406128 99.62583780288696,28.112095594406128 99.41180944442749,29.037630558013916 99.41180944442749,29.037630558013916 99.11112785339355,29.90868091583252 99.11112785339355,29.90868091583252 98.70721101760864,30.704399943351746 98.70721101760864,30.704399943351746 98.51813912391663,30.943912267684937 98.51813912391663,30.943912267684937 98.2831358909607,31.13953173160553 98.2831358909607,31.13953173160553 98.01310300827026,31.299909949302673 98.01310300827026,31.299909949302673 97.71908521652222,31.43370747566223 97.71908521652222,31.43370747566223 97.41206169128418,31.54958486557007 97.41206169128418,31.54958486557007 97.10284471511841,31.656190752983093 97.10284471511841,31.656190752983093 96.80257439613342,31.76218867301941 96.80257439613342,31.76218867301941 96.52221202850342,31.87623620033264 96.52221202850342,31.87623620033264 95.82948684692383,32.19654858112335 95.82948684692383,32.19654858112335 95.14017105102539,32.52456188201904 95.14017105102539,32.52456188201904 94.45370435714722,32.859137654304504 94.45370435714722,32.859137654304504 93.76966953277588,33.19910168647766 93.76966953277588,33.19910168647766 93.08767318725586,33.54327082633972 93.08767318725586,33.54327082633972 92.40722060203552,33.89046788215637 92.40722060203552,33.89046788215637 91.7279839515686,34.2395156621933 91.7279839515686,34.2395156621933 91.04931950569153,34.58927273750305 91.04931950569153,34.58927273750305 90.99355340003967,31.350308656692505 90.99355340003967,31.350308656692505 90.22035002708435,28.309684991836548 90.22035002708435,28.309684991836548 88.81725668907166,25.55413246154785 88.81725668907166,25.55413246154785 86.8718147277832,23.170390725135803 86.8718147277832,23.170390725135803 84.47157144546509,21.24522775411606 84.47157144546509,21.24522775411606 81.70406818389893,19.86542046070099 81.70406818389893,19.86542046070099 78.65678071975708,19.117702543735504 78.65678071975708,19.117702543735504 75.41748881340027,19.088804721832275 75.41748881340027,19.088804721832275 72.2133994102478,19.831442832946777 72.2133994102478,19.831442832946777 69.3653404712677,21.25636488199234 69.3653404712677,21.25636488199234 66.94250106811523,23.25356751680374 66.94250106811523,23.25356751680374 65.01420736312866,25.713050365447998 65.01420736312866,25.713050365447998 63.64988684654236,28.524789214134216 63.64988684654236,28.524789214134216 62.91854977607727,31.57876431941986 62.91854977607727,31.57876431941986 62.88977265357971,34.76499617099762 62.88977265357971,34.76499617099762 63.63281607627869,37.97341585159302 63.63281607627869,37.97341585159302 60.00286340713501,37.82510757446289 60.00286340713501,37.82510757446289 56.38038516044617,37.74973452091217 56.38038516044617,37.74973452091217 52.763432264328,37.74266242980957 52.763432264328,37.74266242980957 49.149736762046814,37.79929876327515 49.149736762046814,37.79929876327515 45.5370157957077,37.91501224040985 45.5370157957077,37.91501224040985 41.92339777946472,38.08516561985016 41.92339777946472,38.08516561985016 38.30653131008148,38.305169343948364 38.30653131008148,38.305169343948364 34.68421697616577,38.57038915157318 34.68421697616577,38.57038915157318 35.60885787010193,35.16876697540283 35.60885787010193,35.16876697540283 35.64990758895874,31.779566407203674 35.64990758895874,31.779566407203674 34.89247262477875,28.533345460891724 34.89247262477875,28.533345460891724 33.421990275382996,25.560718774795532 33.421990275382996,25.560718774795532 31.32348358631134,22.992229461669922 31.32348358631134,22.992229461669922 28.682303428649902,20.95842808485031 28.682303428649902,20.95842808485031 25.58363974094391,19.589918851852417 25.58363974094391,19.589918851852417 22.112683951854706,19.01727169752121 22.112683951854706,19.01727169752121 18.579785525798798,19.34303045272827 18.579785525798798,19.34303045272827 15.36935269832611,20.500048995018005 15.36935269832611,20.500048995018005 12.576572597026825,22.361503541469574 12.576572597026825,22.361503541469574 10.296633094549179,24.8005211353302 10.296633094549179,24.8005211353302 8.6248017847538,27.690255641937256 8.6248017847538,27.690255641937256 7.656428962945938,30.903857946395874 7.656428962945938,30.903857946395874 7.486619800329208,34.314462542533875 7.486619800329208,34.314462542533875 8.210644125938416,37.795233726501465 8.210644125938416,37.795233726501465 7.393058389425278,37.72193491458893 7.393058389425278,37.72193491458893 6.577099114656448,37.64140009880066 6.577099114656448,37.64140009880066 5.77138178050518,37.5315397977829 5.77138178050518,37.5315397977829 4.984848201274872,37.370264530181885 4.984848201274872,37.370264530181885 4.225870594382286,37.13546693325043 4.225870594382286,37.13546693325043 3.5033099353313446,36.805036664009094 3.5033099353313446,36.805036664009094 2.8257010504603386,36.35689914226532 2.8257010504603386,36.35689914226532 2.201903983950615,35.768911242485046 2.201903983950615,35.768911242485046 1.75011046230793,35.16811728477478 1.75011046230793,35.16811728477478 1.3930977322161198,34.50414538383484 1.3930977322161198,34.50414538383484 1.1159088462591171,33.79172384738922 1.1159088462591171,33.79172384738922 0.9035870432853699,33.045631647109985 0.9035870432853699,33.045631647109985 0.7408503443002701,32.280537486076355 0.7408503443002701,32.280537486076355 0.612579332664609,31.511276960372925 0.612579332664609,31.511276960372925 0.5036546848714352,30.752483010292053 0.5036546848714352,30.752483010292053 0.39928206242620945,30.018988251686096 0.39928206242620945,30.018988251686096 0.34953439608216286,29.75507080554962 0.34953439608216286,29.75507080554962 0.2715800888836384,29.386737942695618 0.2715800888836384,29.386737942695618 0.18159530591219664,28.949129581451416 0.18159530591219664,28.949129581451416 0.09559359168633819,28.477460145950317 0.09559359168633819,28.477460145950317 0.029913641628809273,28.006890416145325 0.029913641628809273,28.006890416145325 0.0005690094894816866,27.572572231292725 0.0005690094894816866,27.572572231292725 0.02381711092311889,27.209708094596863 0.02381711092311889,27.209708094596863 0.11575277894735336,26.95349156856537 0.11575277894735336,26.95349156856537 0.2811719663441181,26.844343543052673 0.2811719663441181,26.844343543052673 0.5940458737313747,26.73385441303253 0.5940458737313747,26.73385441303253 1.0014566592872143,26.622653007507324 1.0014566592872143,26.622653007507324 1.450811605900526,26.511287689208984 1.450811605900526,26.511287689208984 1.8891114741563797,26.400452852249146 1.8891114741563797,26.400452852249146 2.2637635469436646,26.29067599773407 2.2637635469436646,26.29067599773407 2.5216061621904373,26.18262469768524 2.5216061621904373,26.18262469768524 2.6102902367711067,26.076892018318176 2.6102902367711067,26.076892018318176 2.551763691008091,25.641396641731262 2.551763691008091,25.641396641731262 2.4933181703090668,25.206023454666138 2.4933181703090668,25.206023454666138 2.4348728358745575,24.770689010620117 2.4348728358745575,24.770689010620117 2.3765087127685547,24.33539628982544 2.3765087127685547,24.33539628982544 2.3183071985840797,23.90010505914688 2.3183071985840797,23.90010505914688 2.2601868957281113,23.46477210521698 2.2601868957281113,23.46477210521698 2.202310413122177,23.029398918151855 2.202310413122177,23.029398918151855 2.1446779370307922,22.59390354156494 2.1446779370307922,22.59390354156494 2.1285831928253174,22.39970862865448 2.1285831928253174,22.39970862865448 2.1111877635121346,22.092726826667786 2.1111877635121346,22.092726826667786 2.0890776067972183,21.713116765022278 2.0890776067972183,21.713116765022278 2.0585136488080025,21.301113069057465 2.0585136488080025,21.301113069057465 2.0160818472504616,20.89691311120987 2.0160818472504616,20.89691311120987 1.9585305824875832,20.540712773799896 1.9585305824875832,20.540712773799896 1.8819581717252731,20.27273029088974 1.8819581717252731,20.27273029088974 1.783113181591034,20.133180916309357 1.783113181591034,20.133180916309357 1.5378700569272041,19.884157180786133 1.5378700569272041,19.884157180786133 1.5670521184802055,19.602681696414948 1.5670521184802055,19.602681696414948 1.8035974353551865,19.305333495140076 1.8035974353551865,19.305333495140076 2.180769480764866,19.008655846118927 2.180769480764866,19.008655846118927 2.6314249262213707,18.729230761528015 2.6314249262213707,18.729230761528015 3.088664636015892,18.483643233776093 3.088664636015892,18.483643233776093 3.485426679253578,18.28843206167221 3.485426679253578,18.28843206167221 3.754812106490135,18.160180747509003 3.754812106490135,18.160180747509003 6.629692018032074,16.90330058336258 6.629692018032074,16.90330058336258 9.601953625679016,15.855367481708527 9.601953625679016,15.855367481708527 12.650056183338165,14.988867938518524 12.650056183338165,14.988867938518524 15.752458572387695,14.276285469532013 15.752458572387695,14.276285469532013 18.887700140476227,13.690143823623657 18.887700140476227,13.690143823623657 22.03407883644104,13.20297122001648 22.03407883644104,13.20297122001648 25.1704603433609,12.78722733259201 25.1704603433609,12.78722733259201 28.274893760681152,12.415461242198944 28.274893760681152,12.415461242198944 28.836017847061157,12.328647077083588 28.836017847061157,12.328647077083588 29.297158122062683,12.210841476917267 29.297158122062683,12.210841476917267 29.686036705970764,12.058021873235703 29.686036705970764,12.058021873235703 30.030694603919983,11.866123229265213 30.030694603919983,11.866123229265213 30.358687043190002,11.63114309310913 30.358687043190002,11.63114309310913 30.69789707660675,11.348995566368103 30.69789707660675,11.348995566368103 31.076127290725708,11.015678197145462 31.076127290725708,11.015678197145462 31.52117431163788,10.627146065235138 31.52117431163788,10.627146065235138 32.48962759971619,9.810861200094223 32.48962759971619,9.810861200094223 33.47141444683075,9.009513258934021 33.47141444683075,9.009513258934021 34.46677327156067,8.224482834339142 34.46677327156067,8.224482834339142 35.47595143318176,7.457113265991211 35.47595143318176,7.457113265991211 36.49911284446716,6.708824634552002 36.49911284446716,6.708824634552002 37.53657937049866,5.981041491031647 37.53657937049866,5.981041491031647 38.58851492404938,5.275103822350502 38.58851492404938,5.275103822350502 39.655083417892456,4.592394083738327 39.655083417892456,4.592394083738327 40.73294997215271,3.9349038153886795 40.73294997215271,3.9349038153886795 41.834065318107605,3.3002547919750214 41.834065318107605,3.3002547919750214 42.957937717437744,2.6980599388480186 42.957937717437744,2.6980599388480186 44.104087352752686,2.1378498524427414 44.104087352752686,2.1378498524427414 45.27201950550079,1.6292164102196693 45.27201950550079,1.6292164102196693 46.461328864097595,1.1817513965070248 46.461328864097595,1.1817513965070248 47.67153263092041,0.8050264790654182 47.67153263092041,0.8050264790654182 48.902300000190735,0.5085318814963102 48.902300000190735,0.5085318814963102 50.49528479576111,0.2440440934151411 50.49528479576111,0.2440440934151411 52.123624086380005,0.08157156989909708 52.123624086380005,0.08157156989909708 53.77602577209473,0.007803558401064947 53.77602577209473,0.007803558401064947 55.44103384017944,0.009429299825569615 55.44103384017944,0.009429299825569615 57.1072518825531,0.07311771623790264 57.1072518825531,0.07311771623790264 58.76323580741882,0.18553773406893015 58.76323580741882,0.18553773406893015 60.397833585739136,0.3333785803988576 60.397833585739136,0.3333785803988576 61.9992733001709,0.5033295135945082 61.9992733001709,0.5033295135945082 63.64330053329468,0.7071974687278271 63.64330053329468,0.7071974687278271 65.28400182723999,0.9539850056171417 65.28400182723999,0.9539850056171417 66.9185221195221,1.2466184794902802 66.9185221195221,1.2466184794902802 68.54385733604431,1.5880241990089417 68.54385733604431,1.5880241990089417 70.15699744224548,1.981128379702568 70.15699744224548,1.981128379702568 71.75493836402893,2.428857609629631 71.75493836402893,2.428857609629631 73.3346700668335,2.9341379180550575 73.3346700668335,2.9341379180550575 74.8933494091034,3.499896079301834 74.8933494091034,3.499896079301834 76.22613310813904,4.041979089379311 76.22613310813904,4.041979089379311 77.54363417625427,4.627611860632896 77.54363417625427,4.627611860632896 78.84796857833862,5.248259007930756 78.84796857833862,5.248259007930756 80.1417350769043,5.8954257518053055 80.1417350769043,5.8954257518053055 81.42712712287903,6.560557335615158 81.42712712287903,6.560557335615158 82.70649909973145,7.235179096460342 82.70649909973145,7.235179096460342 83.98213982582092,7.910735160112381 83.98213982582092,7.910735160112381 85.25647521018982,8.578711748123169 85.25647521018982,8.578711748123169 86.35352849960327,9.061699360609055 86.35352849960327,9.061699360609055 87.4780535697937,9.404873102903366 87.4780535697937,9.404873102903366 88.6259913444519,9.63507816195488 88.6259913444519,9.63507816195488 89.79375958442688,9.779158979654312 89.79375958442688,9.779158979654312 90.97778797149658,9.86398234963417 90.97778797149658,9.86398234963417 92.17416644096375,9.916412830352783 92.17416644096375,9.916412830352783 93.3793306350708,9.963294863700867 93.3793306350708,9.963294863700867 94.58953142166138,10.031474381685257 94.58953142166138,10.031474381685257 95.37525177001953,10.266292095184326 95.37525177001953,10.266292095184326 95.98726630210876,10.794861614704132 95.98726630210876,10.794861614704132 96.45035862922668,11.544998735189438 96.45035862922668,11.544998735189438 96.78948521614075,12.444562464952469 96.78948521614075,12.444562464952469 97.02920317649841,13.421347737312317 97.02920317649841,13.421347737312317 97.19461798667908,14.403234422206879 97.19461798667908,14.403234422206879 97.31045365333557,15.318019688129425 97.31045365333557,15.318019688129425 97.4014163017273,16.09353870153427 97.4014163017273,16.09353870153427 97.44986295700073,16.5459007024765 97.44986295700073,16.5459007024765 97.4877417087555,17.018097639083862 97.4877417087555,17.018097639083862 97.5236713886261,17.50248670578003 97.5236713886261,17.50248670578003 97.5661039352417,17.991429567337036 97.5661039352417,17.991429567337036 97.62381911277771,18.477322161197662 97.62381911277771,18.477322161197662 97.7051854133606,18.952567875385284 97.7051854133606,18.952567875385284 97.81898856163025,19.409501552581787 97.81898856163025,19.409501552581787 97.97367453575134,19.84054744243622 97.97367453575134,19.84054744243622 98.2393205165863,20.318861305713654 98.2393205165863,20.318861305713654 98.55967164039612,20.72281688451767 98.55967164039612,20.72281688451767 98.90530705451965,21.084807813167572 98.90530705451965,21.084807813167572 99.24728274345398,21.437187492847443 99.24728274345398,21.437187492847443 99.55649971961975,21.812307834625244 99.55649971961975,21.812307834625244 99.80369210243225,22.24251925945282 99.80369210243225,22.24251925945282 99.96000528335571,22.760196030139923 99.96000528335571,22.760196030139923" stroke="white" stroke-width="0.1" /><polygon points="56.15180730819702,2.8548017144203186 56.15180730819702,2.8548017144203186 56.15180730819702,2.8548017144203186 56.15180730819702,2.8548017144203186 55.07621765136719,2.830984629690647 55.07621765136719,2.830984629690647 54.00257706642151,2.8386663645505905 54.00257706642151,2.8386663645505905 52.93300151824951,2.885284461081028 52.93300151824951,2.885284461081028 51.86927914619446,2.978358045220375 51.86927914619446,2.978358045220375 50.8135199546814,3.125304728746414 50.8135199546814,3.125304728746414 49.7676819562912,3.3336233347654343 49.7676819562912,3.3336233347654343 48.733627796173096,3.6107510328292847 48.733627796173096,3.6107510328292847 47.7135568857193,3.9642076939344406 47.7135568857193,3.9642076939344406 46.78729176521301,4.330690577626228 46.78729176521301,4.330690577626228 45.84720730781555,4.726172238588333 45.84720730781555,4.726172238588333 44.91264820098877,5.161362886428833 44.91264820098877,5.161362886428833 44.00264024734497,5.6470125913619995 44.00264024734497,5.6470125913619995 43.136364221572876,6.193810328841209 43.136364221572876,6.193810328841209 42.33316779136658,6.812445819377899 42.33316779136658,6.812445819377899 41.61190688610077,7.513668388128281 41.61190688610077,7.513668388128281 40.992093086242676,8.308188617229462 40.992093086242676,8.308188617229462 40.87406396865845,8.509089797735214 40.87406396865845,8.509089797735214 40.79586565494537,8.700520545244217 40.79586565494537,8.700520545244217 40.76416492462158,8.877157419919968 40.76416492462158,8.877157419919968 40.78594744205475,9.033594280481339 40.78594744205475,9.033594280481339 40.86788594722748,9.164588153362274 40.86788594722748,9.164588153362274 41.016966104507446,9.264734387397766 41.016966104507446,9.264734387397766 41.23985469341278,9.328767657279968 41.23985469341278,9.328767657279968 41.543543338775635,9.35126394033432 41.543543338775635,9.35126394033432 41.790494322776794,9.44594293832779 41.790494322776794,9.44594293832779 41.97574853897095,9.69945713877678 41.97574853897095,9.69945713877678 42.10848808288574,10.066062211990356 42.10848808288574,10.066062211990356 42.19774305820465,10.500013083219528 42.19774305820465,10.500013083219528 42.25285351276398,10.95554605126381 42.25285351276398,10.95554605126381 42.28317439556122,11.386895179748535 42.28317439556122,11.386895179748535 42.29772388935089,11.748318374156952 42.29772388935089,11.748318374156952 42.30569005012512,11.994069069623947 42.30569005012512,11.994069069623947 42.30528473854065,12.045645713806152 42.30528473854065,12.045645713806152 42.30162799358368,12.124087661504745 42.30162799358368,12.124087661504745 42.29658842086792,12.220250815153122 42.29658842086792,12.220250815153122 42.292359471321106,12.325070053339005 42.292359471321106,12.325070053339005 42.290979623794556,12.429381906986237 42.290979623794556,12.429381906986237 42.2943115234375,12.52410113811493 42.2943115234375,12.52410113811493 42.3046350479126,12.60010451078415 42.3046350479126,12.60010451078415 42.323899269104004,12.648268043994904 42.323899269104004,12.648268043994904 42.77146756649017,12.64406144618988 42.77146756649017,12.64406144618988 43.21895241737366,12.639245390892029 43.21895241737366,12.639245390892029 43.66627335548401,12.63381838798523 43.66627335548401,12.63381838798523 44.11351680755615,12.627783417701721 44.11351680755615,12.627783417701721 44.56075727939606,12.621137499809265 44.56075727939606,12.621137499809265 45.008161664009094,12.6138836145401 45.008161664009094,12.6138836145401 45.45556604862213,12.606018781661987 45.45556604862213,12.606018781661987 45.90313136577606,12.597544491291046 45.90313136577606,12.597544491291046 46.678611636161804,12.581998109817505 46.678611636161804,12.581998109817505 47.45408892631531,12.564623355865479 47.45408892631531,12.564623355865479 48.22956621646881,12.545399367809296 48.22956621646881,12.545399367809296 49.00504648685455,12.524385750293732 49.00504648685455,12.524385750293732 49.78052377700806,12.50150352716446 49.78052377700806,12.50150352716446 50.5560040473938,12.476833164691925 50.5560040473938,12.476833164691925 51.33148431777954,12.450313568115234 51.33148431777954,12.450313568115234 52.106958627700806,12.42196410894394 52.106958627700806,12.42196410894394 53.06013226509094,12.38497868180275 53.06013226509094,12.38497868180275 54.01330590248108,12.345107644796371 54.01330590248108,12.345107644796371 54.966479539871216,12.302126735448837 54.966479539871216,12.302126735448837 55.919647216796875,12.255813926458359 55.919647216796875,12.255813926458359 56.87257647514343,12.20596432685852 56.87257647514343,12.20596432685852 57.82501697540283,12.152376025915146 57.82501697540283,12.152376025915146 58.77705216407776,12.094824761152267 58.77705216407776,12.094824761152267 59.728437662124634,12.033087015151978 59.728437662124634,12.033087015151978 59.98351573944092,12.026116997003555 59.98351573944092,12.026116997003555 60.23566722869873,12.030242383480072 60.23566722869873,12.030242383480072 60.479772090911865,12.031827121973038 60.479772090911865,12.031827121973038 60.710060596466064,12.017154693603516 60.710060596466064,12.017154693603516 60.92123985290527,11.97265014052391 60.92123985290527,11.97265014052391 61.107879877090454,11.884575337171555 61.107879877090454,11.884575337171555 61.264437437057495,11.7393359541893 61.264437437057495,11.7393359541893 61.385393142700195,11.523254960775375 61.385393142700195,11.523254960775375 61.67021989822388,10.808192938566208 61.67021989822388,10.808192938566208 61.97764873504639,10.006458312273026 61.97764873504639,10.006458312273026 62.27694749832153,9.144754707813263 62.27694749832153,9.144754707813263 62.5373899936676,8.249824494123459 62.5373899936676,8.249824494123459 62.72841691970825,7.348371297121048 62.72841691970825,7.348371297121048 62.81970143318176,6.467097252607346 62.81970143318176,6.467097252607346 62.780117988586426,5.63274659216404 62.780117988586426,5.63274659216404 62.579333782196045,4.872021824121475 62.579333782196045,4.872021824121475 62.12859749794006,4.177708178758621 62.12859749794006,4.177708178758621 61.46383285522461,3.668871521949768 61.46383285522461,3.668871521949768 60.64161658287048,3.3159635961055756 60.64161658287048,3.3159635961055756 59.7186803817749,3.08939628303051 59.7186803817749,3.08939628303051 58.751606941223145,2.959560416638851 58.751606941223145,2.959560416638851 57.7968955039978,2.8969287872314453 57.7968955039978,2.8969287872314453 56.91143274307251,2.8718721121549606 56.91143274307251,2.8718721121549606" stroke="white" stroke-width="0.1" /><polygon points="77.92373299598694,8.52278620004654 77.92373299598694,8.52278620004654 77.92373299598694,8.52278620004654 77.92373299598694,8.52278620004654 77.42812633514404,7.660066336393356 77.42812633514404,7.660066336393356 76.68800950050354,6.915538012981415 76.68800950050354,6.915538012981415 75.76409578323364,6.280442327260971 75.76409578323364,6.280442327260971 74.71712231636047,5.746020004153252 74.71712231636047,5.746020004153252 73.60771298408508,5.303534120321274 73.60771298408508,5.303534120321274 72.49652147293091,4.944245144724846 72.49652147293091,4.944245144724846 71.44426107406616,4.6594154089689255 71.44426107406616,4.6594154089689255 70.51165103912354,4.440224915742874 70.51165103912354,4.440224915742874 70.28161287307739,4.3844617903232574 70.28161287307739,4.3844617903232574 69.98531818389893,4.311506822705269 69.98531818389893,4.311506822705269 69.64773535728455,4.238632693886757 69.64773535728455,4.238632693886757 69.29364800453186,4.183032363653183 69.29364800453186,4.183032363653183 68.94785165786743,4.161938652396202 68.94785165786743,4.161938652396202 68.63522529602051,4.1925836354494095 68.63522529602051,4.1925836354494095 68.38030815124512,4.292180761694908 68.38030815124512,4.292180761694908 68.2083010673523,4.477941989898682 68.2083010673523,4.477941989898682 67.98070073127747,4.935059696435928 67.98070073127747,4.935059696435928 67.76723861694336,5.406341701745987 67.76723861694336,5.406341701745987 67.5699532032013,5.889248102903366 67.5699532032013,5.889248102903366 67.39071607589722,6.381197273731232 67.39071607589722,6.381197273731232 67.2313928604126,6.879670172929764 67.2313928604126,6.879670172929764 67.09402203559875,7.382146269083023 67.09402203559875,7.382146269083023 66.98013544082642,7.886044681072235 66.98013544082642,7.886044681072235 66.89210534095764,8.388825505971909 66.89210534095764,8.388825505971909 66.90998673439026,9.31919664144516 66.90998673439026,9.31919664144516 67.23952293395996,9.977073222398758 67.23952293395996,9.977073222398758 67.81454682350159,10.408016294240952 67.81454682350159,10.408016294240952 68.56905221939087,10.657547414302826 68.56905221939087,10.657547414302826 69.43687796592712,10.771186649799347 69.43687796592712,10.771186649799347 70.35184502601624,10.79445481300354 70.35184502601624,10.79445481300354 71.24819755554199,10.772893577814102 71.24819755554199,10.772893577814102 72.05935716629028,10.752002894878387 72.05935716629028,10.752002894878387 72.64869213104248,10.74610948562622 72.64869213104248,10.74610948562622 73.54024648666382,10.716257244348526 73.54024648666382,10.716257244348526 74.6035635471344,10.635478049516678 74.6035635471344,10.635478049516678 75.7080078125,10.476765036582947 75.7080078125,10.476765036582947 76.72287821769714,10.213130712509155 76.72287821769714,10.213130712509155 77.5175392627716,9.817587584257126 77.5175392627716,9.817587584257126 77.96128988265991,9.263128787279129 77.96128988265991,9.263128787279129" stroke="white" stroke-width="0.1" /><polygon points="31.13359808921814,33.171626925468445 31.13359808921814,33.171626925468445 31.13359808921814,33.171626925468445 31.13359808921814,33.171626925468445 30.92086911201477,35.146331787109375 30.92086911201477,35.146331787109375 30.314061045646667,36.9851291179657 30.314061045646667,36.9851291179657 29.36040163040161,38.64395320415497 29.36040163040161,38.64395320415497 28.106790781021118,40.078750252723694 28.106790781021118,40.078750252723694 26.600462198257446,41.24542474746704 26.600462198257446,41.24542474746704 24.888473749160767,42.09987223148346 24.888473749160767,42.09987223148346 23.017896711826324,42.59803891181946 23.017896711826324,42.59803891181946 21.03579193353653,42.69586801528931 21.03579193353653,42.69586801528931 19.021742045879364,42.35273599624634 19.021742045879364,42.35273599624634 17.179696261882782,41.60272181034088 17.179696261882782,41.60272181034088 15.553224086761475,40.500590205192566 15.553224086761475,40.500590205192566 14.185893535614014,39.10103142261505 14.185893535614014,39.10103142261505 13.121359050273895,37.45884895324707 13.121359050273895,37.45884895324707 12.403105944395065,35.62877178192139 12.403105944395065,35.62877178192139 12.074868381023407,33.6655467748642 12.074868381023407,33.6655467748642 12.180054187774658,31.623920798301697 12.180054187774658,31.623920798301697 12.63282299041748,29.906752705574036 12.63282299041748,29.906752705574036 13.38489055633545,28.336995840072632 13.38489055633545,28.336995840072632 14.399679005146027,26.94379687309265 14.399679005146027,26.94379687309265 15.639956295490265,25.756293535232544 15.639956295490265,25.756293535232544 17.06882119178772,24.803631007671356 17.06882119178772,24.803631007671356 18.649448454380035,24.114947021007538 18.649448454380035,24.114947021007538 20.344771444797516,23.719383776187897 20.344771444797516,23.719383776187897 22.117885947227478,23.64608198404312 22.117885947227478,23.64608198404312 23.939204216003418,23.92772138118744 23.939204216003418,23.92772138118744 25.63355267047882,24.545341730117798 25.63355267047882,24.545341730117798 27.165323495864868,25.460797548294067 27.165323495864868,25.460797548294067 28.49859595298767,26.63598358631134 28.49859595298767,26.63598358631134 29.597759246826172,28.032758831977844 29.597759246826172,28.032758831977844 30.42721152305603,29.613062739372253 30.42721152305603,29.613062739372253 30.95102608203888,31.338724493980408 30.95102608203888,31.338724493980408" stroke="white" stroke-width="0.1" /><polygon points="86.49724125862122,33.171626925468445 86.49724125862122,33.171626925468445 86.49724125862122,33.171626925468445 86.49724125862122,33.171626925468445 86.29987835884094,35.071831941604614 86.29987835884094,35.071831941604614 85.7354998588562,36.85204088687897 85.7354998588562,36.85204088687897 84.84548926353455,38.4711354970932 84.84548926353455,38.4711354970932 83.6710512638092,39.88805115222931 83.6710512638092,39.88805115222931 82.253897190094,41.06167554855347 82.253897190094,41.06167554855347 80.63506484031677,41.95081293582916 80.63506484031677,41.95081293582916 78.8561761379242,42.5144761800766 78.8561761379242,42.5144761800766 76.95869207382202,42.71147549152374 76.95869207382202,42.71147549152374 74.92156028747559,42.48496890068054 74.92156028747559,42.48496890068054 73.03382754325867,41.840383410453796 73.03382754325867,41.840383410453796 71.34265303611755,40.83024859428406 71.34265303611755,40.83024859428406 69.89468336105347,39.506977796554565 69.89468336105347,39.506977796554565 68.73699426651001,37.9230797290802 68.73699426651001,37.9230797290802 67.91648268699646,36.13106608390808 67.91648268699646,36.13106608390808 67.48013496398926,34.18334424495697 67.48013496398926,34.18334424495697 67.47477054595947,32.132452726364136 67.47477054595947,32.132452726364136 67.85454154014587,30.327656865119934 67.85454154014587,30.327656865119934 68.56352686882019,28.668588399887085 68.56352686882019,28.668588399887085 69.56140995025635,27.188655734062195 69.56140995025635,27.188655734062195 70.80819010734558,25.921308994293213 70.80819010734558,25.921308994293213 72.2636342048645,24.899956583976746 72.2636342048645,24.899956583976746 73.88783097267151,24.15800839662552 73.88783097267151,24.15800839662552 75.64054131507874,23.72891455888748 75.64054131507874,23.72891455888748 77.4815320968628,23.64608198404312 77.4815320968628,23.64608198404312 79.3028473854065,23.92772138118744 79.3028473854065,23.92772138118744 80.99719882011414,24.545341730117798 80.99719882011414,24.545341730117798 82.52888917922974,25.460797548294067 82.52888917922974,25.460797548294067 83.86223912239075,26.63598358631134 83.86223912239075,26.63598358631134 84.96148586273193,28.032758831977844 84.96148586273193,28.032758831977844 85.79086065292358,29.613062739372253 85.79086065292358,29.613062739372253 86.31458878517151,31.338724493980408 86.31458878517151,31.338724493980408" stroke="white" stroke-width="0.1" /><polygon points="55.290812253952026,29.480543732643127 55.290812253952026,29.480543732643127 48.8944947719574,29.480543732643127 48.8944947719574,29.480543732643127 48.8944947719574,16.689209640026093 48.8944947719574,16.689209640026093 45.43621838092804,16.689209640026093 45.43621838092804,16.689209640026093 45.43621838092804,32.938820123672485 45.43621838092804,32.938820123672485 55.290812253952026,32.938820123672485 55.290812253952026,32.938820123672485 55.290812253952026,32.270315289497375 55.290812253952026,32.270315289497375" stroke="white" stroke-width="0.1" /><polygon points="31.13359808921814,33.171626925468445 31.13359808921814,33.171626925468445 30.92086911201477,35.146331787109375 30.314061045646667,36.9851291179657 29.36040163040161,38.64395320415497 28.106790781021118,40.078750252723694 26.600462198257446,41.24542474746704 24.888473749160767,42.09987223148346 23.017896711826324,42.59803891181946 21.03579193353653,42.69586801528931 19.021742045879364,42.35273599624634 17.179696261882782,41.60272181034088 15.553224086761475,40.500590205192566 14.185893535614014,39.10103142261505 13.121359050273895,37.45884895324707 12.403105944395065,35.62877178192139 12.074868381023407,33.6655467748642 12.180054187774658,31.623920798301697 12.63282299041748,29.906752705574036 13.38489055633545,28.336995840072632 14.399679005146027,26.94379687309265 15.639956295490265,25.756293535232544 17.06882119178772,24.803631007671356 18.649448454380035,24.114947021007538 20.344771444797516,23.719383776187897 22.117885947227478,23.64608198404312 23.939204216003418,23.92772138118744 25.63355267047882,24.545341730117798 27.165323495864868,25.460797548294067 28.49859595298767,26.63598358631134 29.597759246826172,28.032758831977844 30.42721152305603,29.613062739372253 30.95102608203888,31.338724493980408" stroke="white" stroke-width="0.1" /><polygon points="86.49724125862122,33.171626925468445 86.49724125862122,33.171626925468445 86.29987835884094,35.071831941604614 85.7354998588562,36.85204088687897 84.84548926353455,38.4711354970932 83.6710512638092,39.88805115222931 82.253897190094,41.06167554855347 80.63506484031677,41.95081293582916 78.8561761379242,42.5144761800766 76.95869207382202,42.71147549152374 74.92156028747559,42.48496890068054 73.03382754325867,41.840383410453796 71.34265303611755,40.83024859428406 69.89468336105347,39.506977796554565 68.73699426651001,37.9230797290802 67.91648268699646,36.13106608390808 67.48013496398926,34.18334424495697 67.47477054595947,32.132452726364136 67.85454154014587,30.327656865119934 68.56352686882019,28.668588399887085 69.56140995025635,27.188655734062195 70.80819010734558,25.921308994293213 72.2636342048645,24.899956583976746 73.88783097267151,24.15800839662552 75.64054131507874,23.72891455888748 77.4815320968628,23.64608198404312 79.3028473854065,23.92772138118744 80.99719882011414,24.545341730117798 82.52888917922974,25.460797548294067 83.86223912239075,26.63598358631134 84.96148586273193,28.032758831977844 85.79086065292358,29.613062739372253 86.31458878517151,31.338724493980408" stroke="white" stroke-width="0.1" /><polygon points="99.99609589576721,23.397669196128845 99.99609589576721,23.397669196128845 99.95870590209961,24.282580614089966 77.92373299598694,8.52278620004654 77.92373299598694,8.52278620004654 77.42812633514404,7.660066336393356 76.68800950050354,6.915538012981415 75.76409578323364,6.280442327260971 74.71712231636047,5.746020004153252 73.60771298408508,5.303534120321274 72.49652147293091,4.944245144724846 71.44426107406616,4.6594154089689255 70.51165103912354,4.440224915742874 70.28161287307739,4.3844617903232574 69.98531818389893,4.311506822705269 69.64773535728455,4.238632693886757 69.29364800453186,4.183032363653183 68.94785165786743,4.161938652396202 68.63522529602051,4.1925836354494095 68.38030815124512,4.292180761694908 68.2083010673523,4.477941989898682 67.98070073127747,4.935059696435928 67.76723861694336,5.406341701745987 67.5699532032013,5.889248102903366 67.39071607589722,6.381197273731232 67.2313928604126,6.879670172929764 67.09402203559875,7.382146269083023 66.98013544082642,7.886044681072235 66.89210534095764,8.388825505971909 66.90998673439026,9.31919664144516 67.23952293395996,9.977073222398758 67.81454682350159,10.408016294240952 68.56905221939087,10.657547414302826 69.43687796592712,10.771186649799347 70.35184502601624,10.79445481300354 71.24819755554199,10.772893577814102 72.05935716629028,10.752002894878387 72.64869213104248,10.74610948562622 73.54024648666382,10.716257244348526 74.6035635471344,10.635478049516678 75.7080078125,10.476765036582947 76.72287821769714,10.213130712509155 77.5175392627716,9.817587584257126 77.96128988265991,9.263128787279129 77.92373299598694,8.52278620004654 99.95870590209961,24.282580614089966 99.92001056671143,25.217342376708984 99.86295104026794,26.18110179901123 99.77060556411743,27.15297043323517 99.62583780288696,28.112095594406128 99.41180944442749,29.037630558013916 99.11112785339355,29.90868091583252 98.70721101760864,30.704399943351746 98.51813912391663,30.943912267684937 98.2831358909607,31.13953173160553 98.01310300827026,31.299909949302673 97.71908521652222,31.43370747566223 97.41206169128418,31.54958486557007 97.10284471511841,31.656190752983093 96.80257439613342,31.76218867301941 96.52221202850342,31.87623620033264 95.82948684692383,32.19654858112335 95.14017105102539,32.52456188201904 94.45370435714722,32.859137654304504 93.76966953277588,33.19910168647766 93.08767318725586,33.54327082633972 92.40722060203552,33.89046788215637 91.7279839515686,34.2395156621933 91.04931950569153,34.58927273750305 90.99355340003967,31.350308656692505 90.22035002708435,28.309684991836548 88.81725668907166,25.55413246154785 86.8718147277832,23.170390725135803 84.47157144546509,21.24522775411606 81.70406818389893,19.86542046070099 78.65678071975708,19.117702543735504 75.41748881340027,19.088804721832275 72.2133994102478,19.831442832946777 69.3653404712677,21.25636488199234 55.290812253952026,29.480543732643127 48.8944947719574,29.480543732643127 48.8944947719574,16.689209640026093 45.43621838092804,16.689209640026093 45.43621838092804,32.938820123672485 55.290812253952026,32.938820123672485 55.290812253952026,32.270315289497375 55.290812253952026,29.480543732643127 69.3653404712677,21.25636488199234 66.94250106811523,23.25356751680374 65.01420736312866,25.713050365447998 63.64988684654236,28.524789214134216 62.91854977607727,31.57876431941986 62.88977265357971,34.76499617099762 63.63281607627869,37.97341585159302 60.00286340713501,37.82510757446289 56.38038516044617,37.74973452091217 52.763432264328,37.74266242980957 49.149736762046814,37.79929876327515 45.5370157957077,37.91501224040985 41.92339777946472,38.08516561985016 38.30653131008148,38.305169343948364 34.68421697616577,38.57038915157318 35.60885787010193,35.16876697540283 35.64990758895874,31.779566407203674 34.89247262477875,28.533345460891724 33.421990275382996,25.560718774795532 31.32348358631134,22.992229461669922 28.682303428649902,20.95842808485031 25.58363974094391,19.589918851852417 22.112683951854706,19.01727169752121 18.579785525798798,19.34303045272827 15.36935269832611,20.500048995018005 12.576572597026825,22.361503541469574 10.296633094549179,24.8005211353302 8.6248017847538,27.690255641937256 7.656428962945938,30.903857946395874 7.486619800329208,34.314462542533875 8.210644125938416,37.795233726501465 7.393058389425278,37.72193491458893 6.577099114656448,37.64140009880066 5.77138178050518,37.5315397977829 4.984848201274872,37.370264530181885 4.225870594382286,37.13546693325043 3.5033099353313446,36.805036664009094 2.8257010504603386,36.35689914226532 2.201903983950615,35.768911242485046 1.75011046230793,35.16811728477478 1.3930977322161198,34.50414538383484 1.1159088462591171,33.79172384738922 0.9035870432853699,33.045631647109985 0.7408503443002701,32.280537486076355 0.612579332664609,31.511276960372925 0.5036546848714352,30.752483010292053 0.39928206242620945,30.018988251686096 0.34953439608216286,29.75507080554962 0.2715800888836384,29.386737942695618 0.18159530591219664,28.949129581451416 0.09559359168633819,28.477460145950317 0.029913641628809273,28.006890416145325 0.0005690094894816866,27.572572231292725 0.02381711092311889,27.209708094596863 0.11575277894735336,26.95349156856537 0.2811719663441181,26.844343543052673 0.5940458737313747,26.73385441303253 1.0014566592872143,26.622653007507324 1.450811605900526,26.511287689208984 1.8891114741563797,26.400452852249146 2.2637635469436646,26.29067599773407 2.5216061621904373,26.18262469768524 2.6102902367711067,26.076892018318176 2.551763691008091,25.641396641731262 2.4933181703090668,25.206023454666138 2.4348728358745575,24.770689010620117 2.3765087127685547,24.33539628982544 2.3183071985840797,23.90010505914688 2.2601868957281113,23.46477210521698 2.202310413122177,23.029398918151855 2.1446779370307922,22.59390354156494 2.1285831928253174,22.39970862865448 2.1111877635121346,22.092726826667786 2.0890776067972183,21.713116765022278 2.0585136488080025,21.301113069057465 2.0160818472504616,20.89691311120987 1.9585305824875832,20.540712773799896 1.8819581717252731,20.27273029088974 1.783113181591034,20.133180916309357 1.5378700569272041,19.884157180786133 1.5670521184802055,19.602681696414948 1.8035974353551865,19.305333495140076 2.180769480764866,19.008655846118927 2.6314249262213707,18.729230761528015 3.088664636015892,18.483643233776093 3.485426679253578,18.28843206167221 3.754812106490135,18.160180747509003 6.629692018032074,16.90330058336258 9.601953625679016,15.855367481708527 12.650056183338165,14.988867938518524 15.752458572387695,14.276285469532013 18.887700140476227,13.690143823623657 22.03407883644104,13.20297122001648 25.1704603433609,12.78722733259201 28.274893760681152,12.415461242198944 28.836017847061157,12.328647077083588 29.297158122062683,12.210841476917267 29.686036705970764,12.058021873235703 30.030694603919983,11.866123229265213 30.358687043190002,11.63114309310913 30.69789707660675,11.348995566368103 31.076127290725708,11.015678197145462 31.52117431163788,10.627146065235138 32.48962759971619,9.810861200094223 33.47141444683075,9.009513258934021 34.46677327156067,8.224482834339142 35.47595143318176,7.457113265991211 36.49911284446716,6.708824634552002 37.53657937049866,5.981041491031647 38.58851492404938,5.275103822350502 39.655083417892456,4.592394083738327 40.73294997215271,3.9349038153886795 41.834065318107605,3.3002547919750214 42.957937717437744,2.6980599388480186 44.104087352752686,2.1378498524427414 45.27201950550079,1.6292164102196693 56.15180730819702,2.8548017144203186 56.15180730819702,2.8548017144203186 55.07621765136719,2.830984629690647 54.00257706642151,2.8386663645505905 52.93300151824951,2.885284461081028 51.86927914619446,2.978358045220375 50.8135199546814,3.125304728746414 49.7676819562912,3.3336233347654343 48.733627796173096,3.6107510328292847 47.7135568857193,3.9642076939344406 46.78729176521301,4.330690577626228 45.84720730781555,4.726172238588333 44.91264820098877,5.161362886428833 44.00264024734497,5.6470125913619995 43.136364221572876,6.193810328841209 42.33316779136658,6.812445819377899 41.61190688610077,7.513668388128281 40.992093086242676,8.308188617229462 40.87406396865845,8.509089797735214 40.79586565494537,8.700520545244217 40.76416492462158,8.877157419919968 40.78594744205475,9.033594280481339 40.86788594722748,9.164588153362274 41.016966104507446,9.264734387397766 41.23985469341278,9.328767657279968 41.543543338775635,9.35126394033432 41.790494322776794,9.44594293832779 41.97574853897095,9.69945713877678 42.10848808288574,10.066062211990356 42.19774305820465,10.500013083219528 42.25285351276398,10.95554605126381 42.28317439556122,11.386895179748535 42.29772388935089,11.748318374156952 42.30569005012512,11.994069069623947 42.30528473854065,12.045645713806152 42.30162799358368,12.124087661504745 42.29658842086792,12.220250815153122 42.292359471321106,12.325070053339005 42.290979623794556,12.429381906986237 42.2943115234375,12.52410113811493 42.3046350479126,12.60010451078415 42.323899269104004,12.648268043994904 42.77146756649017,12.64406144618988 43.21895241737366,12.639245390892029 43.66627335548401,12.63381838798523 44.11351680755615,12.627783417701721 44.56075727939606,12.621137499809265 45.008161664009094,12.6138836145401 45.45556604862213,12.606018781661987 45.90313136577606,12.597544491291046 46.678611636161804,12.581998109817505 47.45408892631531,12.564623355865479 48.22956621646881,12.545399367809296 49.00504648685455,12.524385750293732 49.78052377700806,12.50150352716446 50.5560040473938,12.476833164691925 51.33148431777954,12.450313568115234 52.106958627700806,12.42196410894394 53.06013226509094,12.38497868180275 54.01330590248108,12.345107644796371 54.966479539871216,12.302126735448837 55.919647216796875,12.255813926458359 56.87257647514343,12.20596432685852 57.82501697540283,12.152376025915146 58.77705216407776,12.094824761152267 59.728437662124634,12.033087015151978 59.98351573944092,12.026116997003555 60.23566722869873,12.030242383480072 60.479772090911865,12.031827121973038 60.710060596466064,12.017154693603516 60.92123985290527,11.97265014052391 61.107879877090454,11.884575337171555 61.264437437057495,11.7393359541893 61.385393142700195,11.523254960775375 61.67021989822388,10.808192938566208 61.97764873504639,10.006458312273026 62.27694749832153,9.144754707813263 62.5373899936676,8.249824494123459 62.72841691970825,7.348371297121048 62.81970143318176,6.467097252607346 62.780117988586426,5.63274659216404 62.579333782196045,4.872021824121475 62.12859749794006,4.177708178758621 61.46383285522461,3.668871521949768 60.64161658287048,3.3159635961055756 59.7186803817749,3.08939628303051 58.751606941223145,2.959560416638851 57.7968955039978,2.8969287872314453 56.91143274307251,2.8718721121549606 56.15180730819702,2.8548017144203186 45.27201950550079,1.6292164102196693 46.461328864097595,1.1817513965070248 47.67153263092041,0.8050264790654182 48.902300000190735,0.5085318814963102 50.49528479576111,0.2440440934151411 52.123624086380005,0.08157156989909708 53.77602577209473,0.007803558401064947 55.44103384017944,0.009429299825569615 57.1072518825531,0.07311771623790264 58.76323580741882,0.18553773406893015 60.397833585739136,0.3333785803988576 61.9992733001709,0.5033295135945082 63.64330053329468,0.7071974687278271 65.28400182723999,0.9539850056171417 66.9185221195221,1.2466184794902802 68.54385733604431,1.5880241990089417 70.15699744224548,1.981128379702568 71.75493836402893,2.428857609629631 73.3346700668335,2.9341379180550575 74.8933494091034,3.499896079301834 76.22613310813904,4.041979089379311 77.54363417625427,4.627611860632896 78.84796857833862,5.248259007930756 80.1417350769043,5.8954257518053055 81.42712712287903,6.560557335615158 82.70649909973145,7.235179096460342 83.98213982582092,7.910735160112381 85.25647521018982,8.578711748123169 86.35352849960327,9.061699360609055 87.4780535697937,9.404873102903366 88.6259913444519,9.63507816195488 89.79375958442688,9.779158979654312 90.97778797149658,9.86398234963417 92.17416644096375,9.916412830352783 93.3793306350708,9.963294863700867 94.58953142166138,10.031474381685257 95.37525177001953,10.266292095184326 95.98726630210876,10.794861614704132 96.45035862922668,11.544998735189438 96.78948521614075,12.444562464952469 97.02920317649841,13.421347737312317 97.19461798667908,14.403234422206879 97.31045365333557,15.318019688129425 97.4014163017273,16.09353870153427 97.44986295700073,16.5459007024765 97.4877417087555,17.018097639083862 97.5236713886261,17.50248670578003 97.5661039352417,17.991429567337036 97.62381911277771,18.477322161197662 97.7051854133606,18.952567875385284 97.81898856163025,19.409501552581787 97.97367453575134,19.84054744243622 98.2393205165863,20.318861305713654 98.55967164039612,20.72281688451767 98.90530705451965,21.084807813167572 99.24728274345398,21.437187492847443 99.55649971961975,21.812307834625244 99.80369210243225,22.24251925945282 99.96000528335571,22.760196030139923" stroke="white" stroke-width="0.1" /></svg>