<?xml version="1.0" encoding="utf-8" ?>
<svg baseProfile="full" height="73.44275712966919" version="1.1" width="100.00030994415283" xmlns="http://www.w3.org/2000/svg" xmlns:ev="http://www.w3.org/2001/xml-events" xmlns:xlink="http://www.w3.org/1999/xlink"><defs><clipPath /></defs><polygon points="41.684138774871826,41.211989521980286 41.684138774871826,41.211989521980286 41.684138774871826,41.211989521980286 41.684138774871826,41.211989521980286 41.6143000125885,41.135191917419434 41.6143000125885,41.135191917419434 41.544464230537415,41.0582959651947 41.544464230537415,41.0582959651947 41.47447347640991,40.98139703273773 41.47447347640991,40.98139703273773 41.40458703041077,40.90439975261688 41.40458703041077,40.90439975261688 41.33469760417938,40.827399492263794 41.33469760417938,40.827399492263794 41.26476049423218,40.75050354003906 41.26476049423218,40.75050354003906 41.194820404052734,40.67360758781433 41.194820404052734,40.67360758781433 41.12503528594971,40.59680998325348 41.12503528594971,40.59680998325348 15.52814245223999,12.418125569820404 15.52814245223999,12.418125569820404 14.640624821186066,11.50338500738144 14.640624821186066,11.50338500738144 13.478940725326538,10.360288619995117 13.478940725326538,10.360288619995117 12.16711774468422,9.049075841903687 12.16711774468422,9.049075841903687 10.828986018896103,7.6296791434288025 10.828986018896103,7.6296791434288025 9.58857461810112,6.162640079855919 9.58857461810112,6.162640079855919 8.569712936878204,4.707790911197662 8.569712936878204,4.707790911197662 7.8963808715343475,3.3256739377975464 7.8963808715343475,3.3256739377975464 7.6925575733184814,2.076324261724949 7.6925575733184814,2.076324261724949 8.144290000200272,1.2034351006150246 8.144290000200272,1.2034351006150246 9.15197804570198,0.6094885058701038 9.15197804570198,0.6094885058701038 10.559947043657303,0.24440488778054714 10.559947043657303,0.24440488778054714 12.212524563074112,0.05820615333504975 12.212524563074112,0.05820615333504975 13.954086601734161,0.0005079070888314163 13.954086601734161,0.0005079070888314163 15.629012882709503,0.021535261475946754 15.629012882709503,0.021535261475946754 17.081576585769653,0.07070066640153527 17.081576585769653,0.07070066640153527 18.156257271766663,0.09833081858232617 18.156257271766663,0.09833081858232617 87.22431063652039,0.09833081858232617 87.22431063652039,0.09833081858232617 87.82185912132263,0.10564468102529645 87.82185912132263,0.10564468102529645 88.60408663749695,0.14322979841381311 88.60408663749695,0.14322979841381311 89.4862711429596,0.23384043015539646 89.4862711429596,0.23384043015539646 90.38369059562683,0.4007386974990368 90.38369059562683,0.4007386974990368 91.21147990226746,0.6670851726084948 91.21147990226746,0.6670851726084948 91.88511967658997,1.0558372363448143 91.88511967658997,1.0558372363448143 92.31953024864197,1.5902571380138397 92.31953024864197,1.5902571380138397 92.43015050888062,2.2933021187782288 92.43015050888062,2.2933021187782288 92.32075214385986,2.8851155191659927 92.32075214385986,2.8851155191659927 92.12332367897034,3.4647390246391296 92.12332367897034,3.4647390246391296 91.85362458229065,4.029125347733498 91.85362458229065,4.029125347733498 91.52770042419434,4.574922472238541 91.52770042419434,4.574922472238541 91.16140007972717,5.098879337310791 91.16140007972717,5.098879337310791 90.77056646347046,5.5975425988435745 90.77056646347046,5.5975425988435745 90.3712511062622,6.0676611959934235 90.3712511062622,6.0676611959934235 89.9791955947876,6.506086885929108 89.9791955947876,6.506086885929108 87.19748854637146,9.568969905376434 87.19748854637146,9.568969905376434 73.61158728599548,24.525004625320435 73.61158728599548,24.525004625320435 60.564470291137695,38.88699412345886 60.564470291137695,38.88699412345886 60.235595703125,39.252686500549316 60.235595703125,39.252686500549316 59.908151626586914,39.62122201919556 59.908151626586914,39.62122201919556 59.58060026168823,39.990776777267456 59.58060026168823,39.990776777267456 59.2516303062439,40.35961925983429 59.2516303062439,40.35961925983429 58.91976356506348,40.725716948509216 58.91976356506348,40.725716948509216 58.58352780342102,41.08724594116211 58.58352780342102,41.08724594116211 58.24160575866699,41.44217073917389 58.24160575866699,41.44217073917389 57.89247155189514,41.78897142410278 57.89247155189514,41.78897142410278 56.041502952575684,43.24849247932434 56.041502952575684,43.24849247932434 54.01129722595215,44.26146149635315 54.01129722595215,44.26146149635315 51.86645984649658,44.832247495651245 51.86645984649658,44.832247495651245 49.671587347984314,44.9654221534729 49.671587347984314,44.9654221534729 47.491294145584106,44.66545283794403 47.491294145584106,44.66545283794403 45.390236377716064,43.93701255321503 45.390236377716064,43.93701255321503 43.432965874671936,42.78426468372345 43.432965874671936,42.78426468372345" stroke="white" stroke-width="0.1" /><polygon points="98.55510592460632,5.136769264936447 98.55510592460632,5.136769264936447 98.55510592460632,5.136769264936447 98.55510592460632,5.136769264936447 99.06483888626099,6.121397763490677 99.06483888626099,6.121397763490677 99.43856000900269,7.117810100317001 99.43856000900269,7.117810100317001 99.69708323478699,8.126107603311539 99.69708323478699,8.126107603311539 99.86154437065125,9.146492928266525 99.86154437065125,9.146492928266525 99.95291829109192,10.179270803928375 99.95291829109192,10.179270803928375 99.99217987060547,11.224746704101562 99.99217987060547,11.224746704101562 100.00030994415283,12.283021956682205 100.00030994415283,12.283021956682205 99.99837279319763,13.3542999625206 99.99837279319763,13.3542999625206 99.99837279319763,23.993530869483948 99.99837279319763,23.993530869483948 99.99837279319763,62.12313175201416 99.99837279319763,62.12313175201416 99.80836510658264,64.36614990234375 99.80836510658264,64.36614990234375 99.2526650428772,66.46187901496887 99.2526650428772,66.46187901496887 98.35285544395447,68.36348176002502 98.35285544395447,68.36348176002502 97.13032245635986,70.02424001693726 97.13032245635986,70.02424001693726 95.60665488243103,71.39731049537659 95.60665488243103,71.39731049537659 93.80332827568054,72.43608236312866 93.80332827568054,72.43608236312866 91.7418360710144,73.09362292289734 91.7418360710144,73.09362292289734 89.44365978240967,73.32309484481812 89.44365978240967,73.32309484481812 78.74916791915894,73.32309484481812 78.74916791915894,73.32309484481812 35.478731989860535,73.32309484481812 35.478731989860535,73.32309484481812 17.112000286579132,73.32309484481812 17.112000286579132,73.32309484481812 15.988408029079437,73.33995699882507 15.988408029079437,73.33995699882507 14.829769730567932,73.37794899940491 14.829769730567932,73.37794899940491 13.648682832717896,73.41837882995605 13.648682832717896,73.41837882995605 12.457539141178131,73.44275712966919 12.457539141178131,73.44275712966919 11.26883327960968,73.43239784240723 11.26883327960968,73.43239784240723 10.095059871673584,73.36819767951965 10.095059871673584,73.36819767951965 8.948662877082825,73.23217988014221 8.948662877082825,73.23217988014221 7.842085510492325,73.00534844398499 7.842085510492325,73.00534844398499 6.227804347872734,72.43791222572327 6.227804347872734,72.43791222572327 4.752740636467934,71.61794900894165 4.752740636467934,71.61794900894165 3.4403596073389053,70.5757200717926 3.4403596073389053,70.5757200717926 2.314024791121483,69.34099793434143 2.314024791121483,69.34099793434143 1.3972016051411629,67.94405579566956 1.3972016051411629,67.94405579566956 0.7133555132895708,66.41484498977661 0.7133555132895708,66.41484498977661 0.2858501160517335,64.78334665298462 0.2858501160517335,64.78334665298462 0.13815072597935796,63.079625368118286 0.13815072597935796,63.079625368118286 0.13815072597935796,59.342241287231445 0.13815072597935796,59.342241287231445 0.13815072597935796,40.17910957336426 0.13815072597935796,40.17910957336426 0.13815072597935796,18.63897144794464 0.13815072597935796,18.63897144794464 0.10823500342667103,17.006760835647583 0.10823500342667103,17.006760835647583 0.048505127779208124,15.286175906658173 0.048505127779208124,15.286175906658173 0.0037077217712067068,13.5133758187294 0.0037077217712067068,13.5133758187294 0.0187925630598329,11.725035309791565 0.0187925630598329,11.725035309791565 0.1386078423820436,9.957417100667953 0.1386078423820436,9.957417100667953 0.40795099921524525,8.24698880314827 0.40795099921524525,8.24698880314827 0.8717717602849007,6.630219519138336 0.8717717602849007,6.630219519138336 1.5749182552099228,5.143270269036293 1.5749182552099228,5.143270269036293 2.1560655906796455,6.573130190372467 2.1560655906796455,6.573130190372467 2.902384288609028,7.934727519750595 2.902384288609028,7.934727519750595 3.7811651825904846,9.2367984354496 3.7811651825904846,9.2367984354496 4.759495705366135,10.487570613622665 4.759495705366135,10.487570613622665 5.804666876792908,11.695678532123566 5.804666876792908,11.695678532123566 6.883867830038071,12.86955326795578 6.883867830038071,12.86955326795578 7.96428769826889,14.017727971076965 7.96428769826889,14.017727971076965 9.013116359710693,15.1486337184906 9.013116359710693,15.1486337184906 20.35447806119919,27.632585167884827 20.35447806119919,27.632585167884827 32.057470083236694,40.516358613967896 32.057470083236694,40.516358613967896 32.878199219703674,41.436076164245605 32.878199219703674,41.436076164245605 33.69862139225006,42.37600862979889 33.69862139225006,42.37600862979889 34.524476528167725,43.323662877082825 34.524476528167725,43.323662877082825 35.36160886287689,44.266846776008606 35.36160886287689,44.266846776008606 36.215758323669434,45.192962884902954 36.215758323669434,45.192962884902954 37.09265887737274,46.089622378349304 37.09265887737274,46.089622378349304 37.99825608730316,46.944329142570496 37.99825608730316,46.944329142570496 38.938188552856445,47.74489104747772 38.938188552856445,47.74489104747772 41.9817715883255,49.72532391548157 41.9817715883255,49.72532391548157 45.206475257873535,50.99102854728699 45.206475257873535,50.99102854728699 48.53179156780243,51.57075524330139 48.53179156780243,51.57075524330139 51.8771231174469,51.492637395858765 51.8771231174469,51.492637395858765 55.16191124916077,50.7851243019104 55.16191124916077,50.7851243019104 58.30565094947815,49.47665333747864 58.30565094947815,49.47665333747864 61.22769117355347,47.59567081928253 61.22769117355347,47.59567081928253 63.8475775718689,45.170414447784424 63.8475775718689,45.170414447784424 74.54613447189331,33.39265584945679 74.54613447189331,33.39265584945679 89.28925395011902,17.163196206092834 89.28925395011902,17.163196206092834 90.53982496261597,15.82709550857544 90.53982496261597,15.82709550857544 91.86769723892212,14.447417855262756 91.86769723892212,14.447417855262756 93.22106838226318,13.022026419639587 93.22106838226318,13.022026419639587 94.54812407493591,11.54889315366745 94.54812407493591,11.54889315366745 95.79686522483826,10.025882720947266 95.79686522483826,10.025882720947266 96.91557884216309,8.450964838266373 96.91557884216309,8.450964838266373 97.85221219062805,6.821903586387634 97.85221219062805,6.821903586387634" stroke="white" stroke-width="0.1" /><polygon points="41.684138774871826,41.211989521980286 41.684138774871826,41.211989521980286 41.6143000125885,41.135191917419434 41.544464230537415,41.0582959651947 41.47447347640991,40.98139703273773 41.40458703041077,40.90439975261688 41.33469760417938,40.827399492263794 41.26476049423218,40.75050354003906 41.194820404052734,40.67360758781433 41.12503528594971,40.59680998325348 15.52814245223999,12.418125569820404 14.640624821186066,11.50338500738144 13.478940725326538,10.360288619995117 12.16711774468422,9.049075841903687 10.828986018896103,7.6296791434288025 9.58857461810112,6.162640079855919 8.569712936878204,4.707790911197662 7.8963808715343475,3.3256739377975464 7.6925575733184814,2.076324261724949 8.144290000200272,1.2034351006150246 9.15197804570198,0.6094885058701038 10.559947043657303,0.24440488778054714 12.212524563074112,0.05820615333504975 13.954086601734161,0.0005079070888314163 15.629012882709503,0.021535261475946754 17.081576585769653,0.07070066640153527 18.156257271766663,0.09833081858232617 87.22431063652039,0.09833081858232617 87.82185912132263,0.10564468102529645 88.60408663749695,0.14322979841381311 89.4862711429596,0.23384043015539646 90.38369059562683,0.4007386974990368 91.21147990226746,0.6670851726084948 91.88511967658997,1.0558372363448143 92.31953024864197,1.5902571380138397 92.43015050888062,2.2933021187782288 92.32075214385986,2.8851155191659927 92.12332367897034,3.4647390246391296 91.85362458229065,4.029125347733498 91.52770042419434,4.574922472238541 91.16140007972717,5.098879337310791 90.77056646347046,5.5975425988435745 90.3712511062622,6.0676611959934235 89.9791955947876,6.506086885929108 87.19748854637146,9.568969905376434 73.61158728599548,24.525004625320435 60.564470291137695,38.88699412345886 60.235595703125,39.252686500549316 59.908151626586914,39.62122201919556 59.58060026168823,39.990776777267456 59.2516303062439,40.35961925983429 58.91976356506348,40.725716948509216 58.58352780342102,41.08724594116211 58.24160575866699,41.44217073917389 57.89247155189514,41.78897142410278 56.041502952575684,43.24849247932434 54.01129722595215,44.26146149635315 51.86645984649658,44.832247495651245 49.671587347984314,44.9654221534729 47.491294145584106,44.66545283794403 45.390236377716064,43.93701255321503 43.432965874671936,42.78426468372345" stroke="white" stroke-width="0.1" /><polygon points="98.55510592460632,5.136769264936447 98.55510592460632,5.136769264936447 99.06483888626099,6.121397763490677 99.43856000900269,7.117810100317001 99.69708323478699,8.126107603311539 99.86154437065125,9.146492928266525 99.95291829109192,10.179270803928375 99.99217987060547,11.224746704101562 100.00030994415283,12.283021956682205 99.99837279319763,13.3542999625206 99.99837279319763,23.993530869483948 99.99837279319763,62.12313175201416 99.80836510658264,64.36614990234375 99.2526650428772,66.46187901496887 98.35285544395447,68.36348176002502 97.13032245635986,70.02424001693726 95.60665488243103,71.39731049537659 93.80332827568054,72.43608236312866 91.7418360710144,73.09362292289734 89.44365978240967,73.32309484481812 78.74916791915894,73.32309484481812 35.478731989860535,73.32309484481812 17.112000286579132,73.32309484481812 15.988408029079437,73.33995699882507 14.829769730567932,73.37794899940491 13.648682832717896,73.41837882995605 12.457539141178131,73.44275712966919 11.26883327960968,73.43239784240723 10.095059871673584,73.36819767951965 8.948662877082825,73.23217988014221 7.842085510492325,73.00534844398499 6.227804347872734,72.43791222572327 4.752740636467934,71.61794900894165 3.4403596073389053,70.5757200717926 2.314024791121483,69.34099793434143 1.3972016051411629,67.94405579566956 0.7133555132895708,66.41484498977661 0.2858501160517335,64.78334665298462 0.13815072597935796,63.079625368118286 0.13815072597935796,59.342241287231445 0.13815072597935796,40.17910957336426 0.13815072597935796,18.63897144794464 0.10823500342667103,17.006760835647583 0.048505127779208124,15.286175906658173 0.0037077217712067068,13.5133758187294 0.0187925630598329,11.725035309791565 0.1386078423820436,9.957417100667953 0.40795099921524525,8.24698880314827 0.8717717602849007,6.630219519138336 1.5749182552099228,5.143270269036293 2.1560655906796455,6.573130190372467 2.902384288609028,7.934727519750595 3.7811651825904846,9.2367984354496 4.759495705366135,10.487570613622665 5.804666876792908,11.695678532123566 6.883867830038071,12.86955326795578 7.96428769826889,14.017727971076965 9.013116359710693,15.1486337184906 20.35447806119919,27.632585167884827 32.057470083236694,40.516358613967896 32.878199219703674,41.436076164245605 33.69862139225006,42.37600862979889 34.524476528167725,43.323662877082825 35.36160886287689,44.266846776008606 36.215758323669434,45.192962884902954 37.09265887737274,46.089622378349304 37.99825608730316,46.944329142570496 38.938188552856445,47.74489104747772 41.9817715883255,49.72532391548157 45.206475257873535,50.99102854728699 48.53179156780243,51.57075524330139 51.8771231174469,51.492637395858765 55.16191124916077,50.7851243019104 58.30565094947815,49.47665333747864 61.22769117355347,47.59567081928253 63.8475775718689,45.170414447784424 74.54613447189331,33.39265584945679 89.28925395011902,17.163196206092834 90.53982496261597,15.82709550857544 91.86769723892212,14.447417855262756 93.22106838226318,13.022026419639587 94.54812407493591,11.54889315366745 95.79686522483826,10.025882720947266 96.91557884216309,8.450964838266373 97.85221219062805,6.821903586387634" stroke="white" stroke-width="0.1" /></svg>