<?xml version="1.0" encoding="utf-8" ?>
<svg baseProfile="full" height="99.99769926071167" version="1.1" width="92.69325137138367" xmlns="http://www.w3.org/2000/svg" xmlns:ev="http://www.w3.org/2001/xml-events" xmlns:xlink="http://www.w3.org/1999/xlink"><defs><clipPath /></defs><polygon points="92.69325137138367,77.00424790382385 92.69325137138367,77.00424790382385 92.69325137138367,77.00424790382385 92.69325137138367,77.00424790382385 92.59583950042725,79.66815233230591 92.59583950042725,79.66815233230591 91.96586012840271,82.16921091079712 91.96586012840271,82.16921091079712 90.85897207260132,84.44831371307373 90.85897207260132,84.44831371307373 89.33151960372925,86.44589185714722 89.33151960372925,86.44589185714722 87.43939399719238,88.1028413772583 87.43939399719238,88.1028413772583 85.23849248886108,89.35980796813965 85.23849248886108,89.35980796813965 82.78504610061646,90.15746116638184 82.78504610061646,90.15746116638184 80.13505935668945,90.436452627182 80.13505935668945,90.436452627182 69.57329511642456,90.436452627182 69.57329511642456,90.436452627182 58.09520483016968,90.436452627182 58.09520483016968,90.436452627182 57.71983861923218,90.1107668876648 57.71983861923218,90.1107668876648 57.246142625808716,89.2423927783966 57.246142625808716,89.2423927783966 56.71311020851135,87.9949688911438 56.71311020851135,87.9949688911438 56.15960955619812,86.53214573860168 56.15960955619812,86.53214573860168 55.624622106552124,85.01734137535095 55.624622106552124,85.01734137535095 55.1470160484314,83.61397385597229 55.1470160484314,83.61397385597229 54.765784740448,82.48546123504639 54.765784740448,82.48546123504639 54.520028829574585,81.7956805229187 54.520028829574585,81.7956805229187 56.91298246383667,80.82023859024048 56.91298246383667,80.82023859024048 59.115153551101685,79.30589318275452 59.115153551101685,79.30589318275452 61.12135648727417,77.36777067184448 61.12135648727417,77.36777067184448 62.9267692565918,75.12040734291077 62.9267692565918,75.12040734291077 64.52621817588806,72.67857193946838 64.52621817588806,72.67857193946838 65.91463088989258,70.15716433525085 65.91463088989258,70.15716433525085 67.0871913433075,67.67047643661499 67.0871913433075,67.67047643661499 68.03871393203735,65.33387303352356 68.03871393203735,65.33387303352356 68.93216371536255,62.674570083618164 68.93216371536255,62.674570083618164 69.62941884994507,59.95846390724182 69.62941884994507,59.95846390724182 70.12967467308044,57.199567556381226 70.12967467308044,57.199567556381226 70.4328179359436,54.411810636520386 70.4328179359436,54.411810636520386 70.53838968276978,51.609450578689575 70.53838968276978,51.609450578689575 70.44593095779419,48.80628287792206 70.44593095779419,48.80628287792206 70.1549768447876,46.01668417453766 70.1549768447876,46.01668417453766 69.66530084609985,43.25445890426636 69.66530084609985,43.25445890426636 68.97804737091064,40.54444134235382 68.97804737091064,40.54444134235382 68.09656023979187,37.89733052253723 68.09656023979187,37.89733052253723 67.02773571014404,35.323765873909 67.02773571014404,35.323765873909 65.7783567905426,32.834264636039734 65.7783567905426,32.834264636039734 64.35520648956299,30.439352989196777 64.35520648956299,30.439352989196777 62.76565194129944,28.149783611297607 62.76565194129944,28.149783611297607 61.015784740448,25.976020097732544 61.015784740448,25.976020097732544 59.11273956298828,23.928643763065338 59.11273956298828,23.928643763065338 58.03885459899902,22.997935116291046 58.03885459899902,22.997935116291046 56.857097148895264,22.233690321445465 56.857097148895264,22.233690321445465 55.58897256851196,21.6410294175148 55.58897256851196,21.6410294175148 54.255640506744385,21.22495323419571 54.255640506744385,21.22495323419571 52.87860631942749,20.990636944770813 52.87860631942749,20.990636944770813 51.47915482521057,20.943140983581543 51.47915482521057,20.943140983581543 50.07854700088501,21.08752578496933 50.07854700088501,21.08752578496933 48.69818091392517,21.428965032100677 48.69818091392517,21.428965032100677 48.03151488304138,21.67162001132965 48.03151488304138,21.67162001132965 47.384169697761536,21.960273385047913 47.384169697761536,21.960273385047913 46.75879180431366,22.293204069137573 46.75879180431366,22.293204069137573 46.158367395401,22.66845405101776 46.158367395401,22.66845405101776 45.58519721031189,23.084358870983124 45.58519721031189,23.084358870983124 45.04216015338898,23.539133369922638 45.04216015338898,23.539133369922638 44.53166723251343,24.030880630016327 44.53166723251343,24.030880630016327 44.056710600852966,24.5579332113266 44.056710600852966,24.5579332113266 43.78553628921509,24.951928853988647 43.78553628921509,24.951928853988647 43.508610129356384,25.46173334121704 43.508610129356384,25.46173334121704 43.22570562362671,26.04019045829773 43.22570562362671,26.04019045829773 42.935556173324585,26.640498638153076 42.935556173324585,26.640498638153076 42.63770282268524,27.215680480003357 42.63770282268524,27.215680480003357 42.3312246799469,27.71875560283661 42.3312246799469,27.71875560283661 42.015427350997925,28.102746605873108 42.015427350997925,28.102746605873108 41.689515113830566,28.320789337158203 41.689515113830566,28.320789337158203 40.61229228973389,22.443856298923492 40.61229228973389,22.443856298923492 41.184887290000916,16.7929008603096 41.184887290000916,16.7929008603096 43.19120645523071,11.599133908748627 43.19120645523071,11.599133908748627 46.41539454460144,7.093998044729233 46.41539454460144,7.093998044729233 50.641363859176636,3.508991003036499 50.641363859176636,3.508991003036499 55.65325617790222,1.0752663016319275 55.65325617790222,1.0752663016319275 61.234867572784424,0.024437872343696654 61.234867572784424,0.024437872343696654 67.17022061347961,0.5878889467567205 67.17022061347961,0.5878889467567205 72.81991243362427,2.8343331068754196 72.81991243362427,2.8343331068754196 77.36075520515442,6.398811936378479 77.36075520515442,6.398811936378479 80.70926070213318,10.959263890981674 80.70926070213318,10.959263890981674 82.78194069862366,16.193395853042603 82.78194069862366,16.193395853042603 83.49518179893494,21.779261529445648 83.49518179893494,21.779261529445648 82.76583552360535,27.39456593990326 82.76583552360535,27.39456593990326 80.51019310951233,32.71724879741669 80.51019310951233,32.71724879741669 76.64452791213989,37.42524981498718 76.64452791213989,37.42524981498718 79.05679941177368,37.66893744468689 79.05679941177368,37.66893744468689 81.36695623397827,38.32249343395233 81.36695623397827,38.32249343395233 83.53025317192078,39.34715688228607 83.53025317192078,39.34715688228607 85.50173044204712,40.704524517059326 85.50173044204712,40.704524517059326 87.23618388175964,42.355719208717346 87.23618388175964,42.355719208717346 88.68877291679382,44.2622184753418 88.68877291679382,44.2622184753418 89.814293384552,46.38526439666748 89.814293384552,46.38526439666748 90.56801795959473,48.68622124195099 90.56801795959473,48.68622124195099 90.76409339904785,49.66362118721008 90.76409339904785,49.66362118721008 90.909343957901,50.65895915031433 90.909343957901,50.65895915031433 91.0141110420227,51.666951179504395 91.0141110420227,51.666951179504395 91.0889744758606,52.68241763114929 91.0889744758606,52.68241763114929 91.14428758621216,53.70017886161804 91.14428758621216,53.70017886161804 91.19017720222473,54.715073108673096 91.19017720222473,54.715073108673096 91.23767018318176,55.72179555892944 91.23767018318176,55.72179555892944 91.29666686058044,56.715184450149536 91.29666686058044,56.715184450149536" stroke="white" stroke-width="0.1" /><polygon points="13.02923858165741,70.00662684440613 13.02923858165741,70.00662684440613 13.02923858165741,70.00662684440613 13.02923858165741,70.00662684440613 13.519260287284851,70.67961692810059 13.519260287284851,70.67961692810059 13.76076489686966,71.42367362976074 13.76076489686966,71.42367362976074 13.774104416370392,72.18935489654541 13.774104416370392,72.18935489654541 13.579405844211578,72.92674779891968 13.579405844211578,72.92674779891968 13.197025656700134,73.58663082122803 13.197025656700134,73.58663082122803 12.647202610969543,74.1193175315857 12.647202610969543,74.1193175315857 11.950406432151794,74.47513341903687 11.950406432151794,74.47513341903687 11.126649379730225,74.60485696792603 11.126649379730225,74.60485696792603 10.371547937393188,74.48697686195374 10.371547937393188,74.48697686195374 9.656926989555359,74.16370511054993 9.656926989555359,74.16370511054993 8.984626829624176,73.68081212043762 8.984626829624176,73.68081212043762 8.355911821126938,73.0838418006897 8.355911821126938,73.0838418006897 7.772623002529144,72.41843938827515 7.772623002529144,72.41843938827515 7.236140221357346,71.73038721084595 7.236140221357346,71.73038721084595 6.7483022809028625,71.06509804725647 6.7483022809028625,71.06509804725647 6.310375779867172,70.46847343444824 6.310375779867172,70.46847343444824 5.3215909749269485,69.07844543457031 5.3215909749269485,69.07844543457031 4.410891979932785,67.63736009597778 4.410891979932785,67.63736009597778 3.5800043493509293,66.14958047866821 3.5800043493509293,66.14958047866821 2.8309980407357216,64.61925506591797 2.8309980407357216,64.61925506591797 2.16559786349535,63.05086016654968 2.16559786349535,63.05086016654968 1.585989072918892,61.4483118057251 1.585989072918892,61.4483118057251 1.0936666280031204,59.81631875038147 1.0936666280031204,59.81631875038147 0.6909305229783058,58.15868377685547 0.6909305229783058,58.15868377685547 0.16307247569784522,54.81202006340027 0.16307247569784522,54.81202006340027 0.00023000350211077603,51.442694664001465 0.00023000350211077603,51.442694664001465 0.19596298225224018,48.08361232280731 0.19596298225224018,48.08361232280731 0.743256276473403,44.76776421070099 0.743256276473403,44.76776421070099 1.6355548053979874,41.5279358625412 1.6355548053979874,41.5279358625412 2.866188623011112,38.397014141082764 2.866188623011112,38.397014141082764 4.428257420659065,35.40782928466797 4.428257420659065,35.40782928466797 6.314975768327713,32.59333670139313 6.314975768327713,32.59333670139313 6.801893562078476,31.930291652679443 6.801893562078476,31.930291652679443 7.348036766052246,31.19342029094696 7.348036766052246,31.19342029094696 7.95237123966217,30.44222891330719 7.95237123966217,30.44222891330719 8.613745868206024,29.736462235450745 8.613745868206024,29.736462235450745 9.330897033214569,29.135578870773315 9.330897033214569,29.135578870773315 10.102443397045135,28.699377179145813 10.102443397045135,28.699377179145813 10.927466303110123,28.48731279373169 10.927466303110123,28.48731279373169 11.804699152708054,28.55907380580902 11.804699152708054,28.55907380580902 12.484245002269745,28.839850425720215 12.484245002269745,28.839850425720215 13.03291767835617,29.274556040763855 13.03291767835617,29.274556040763855 13.440944254398346,29.826506972312927 13.440944254398346,29.826506972312927 13.698433339595795,30.458903312683105 13.698433339595795,30.458903312683105 13.795609772205353,31.134942173957825 13.795609772205353,31.134942173957825 13.722698390483856,31.81782066822052 13.722698390483856,31.81782066822052 13.469809293746948,32.47080147266388 13.469809293746948,32.47080147266388 13.02739828824997,33.05702209472656 13.02739828824997,33.05702209472656 11.844030022621155,34.31939780712128 11.844030022621155,34.31939780712128 10.748293250799179,35.65514087677002 10.748293250799179,35.65514087677002 9.743638336658478,37.05885410308838 9.743638336658478,37.05885410308838 8.83362963795662,38.52466642856598 8.83362963795662,38.52466642856598 8.022061735391617,40.04705846309662 8.022061735391617,40.04705846309662 7.312386482954025,41.620513796806335 7.312386482954025,41.620513796806335 6.7083969712257385,43.23916137218475 6.7083969712257385,43.23916137218475 6.213774532079697,44.89760100841522 6.213774532079697,44.89760100841522 5.569074675440788,48.26876223087311 5.569074675440788,48.26876223087311 5.37736676633358,51.665687561035156 5.37736676633358,51.665687561035156 5.62577061355114,55.04259467124939 5.62577061355114,55.04259467124939 6.301865726709366,58.35292339324951 6.301865726709366,58.35292339324951 7.392772287130356,61.55054569244385 7.392772287130356,61.55054569244385 8.88618528842926,64.58969712257385 8.88618528842926,64.58969712257385 10.769223421812057,67.42368340492249 10.769223421812057,67.42368340492249" stroke="white" stroke-width="0.1" /><polygon points="16.01744294166565,67.02393889427185 16.01744294166565,67.02393889427185 16.01744294166565,67.02393889427185 16.01744294166565,67.02393889427185 14.314498007297516,65.10341167449951 14.314498007297516,65.10341167449951 12.859150767326355,63.00784945487976 12.859150767326355,63.00784945487976 11.660487204790115,60.76531410217285 11.660487204790115,60.76531410217285 10.727593302726746,58.403754234313965 10.727593302726746,58.403754234313965 10.069552809000015,55.95133900642395 10.069552809000015,55.95133900642395 9.695567190647125,53.43590974807739 9.695567190647125,53.43590974807739 9.614606201648712,50.88551640510559 9.614606201648712,50.88551640510559 9.835869818925858,48.32833409309387 9.835869818925858,48.32833409309387 10.04735752940178,47.12691009044647 10.04735752940178,47.12691009044647 10.325776785612106,45.93997895717621 10.325776785612106,45.93997895717621 10.669862478971481,44.77086961269379 10.669862478971481,44.77086961269379 11.078348755836487,43.622806668281555 11.078348755836487,43.622806668281555 11.549855768680573,42.49924123287201 11.549855768680573,42.49924123287201 12.083463370800018,41.40338897705078 12.083463370800018,41.40338897705078 12.677447497844696,40.338703989982605 12.677447497844696,40.338703989982605 13.331001996994019,39.308518171310425 13.331001996994019,39.308518171310425 13.907390832901001,38.49821388721466 13.907390832901001,38.49821388721466 14.65214341878891,37.56854236125946 14.65214341878891,37.56854236125946 15.52247554063797,36.6468608379364 15.52247554063797,36.6468608379364 16.475264728069305,35.860881209373474 16.475264728069305,35.860881209373474 17.467615008354187,35.33819615840912 17.467615008354187,35.33819615840912 18.456630408763885,35.206347703933716 18.456630408763885,35.206347703933716 19.39895451068878,35.592982172966 19.39895451068878,35.592982172966 20.25226801633835,36.625757813453674 20.25226801633835,36.625757813453674 20.536552369594574,37.30461299419403 20.536552369594574,37.30461299419403 20.61084359884262,37.934017181396484 20.61084359884262,37.934017181396484 20.51171213388443,38.521674275398254 20.51171213388443,38.521674275398254 20.27515321969986,39.075639843940735 20.27515321969986,39.075639843940735 19.937507808208466,39.60361182689667 19.937507808208466,39.60361182689667 19.534887373447418,40.113645792007446 19.534887373447418,40.113645792007446 19.103629887104034,40.61332643032074 19.103629887104034,40.61332643032074 18.679964542388916,41.110825538635254 18.679964542388916,41.110825538635254 18.300458788871765,41.592222452163696 18.300458788871765,41.592222452163696 17.93946772813797,42.08742082118988 17.93946772813797,42.08742082118988 17.597222328186035,42.59572625160217 17.597222328186035,42.59572625160217 17.27418303489685,43.11634004116058 17.27418303489685,43.11634004116058 16.970807313919067,43.64856779575348 16.970807313919067,43.64856779575348 16.68744385242462,44.19195055961609 16.68744385242462,44.19195055961609 16.42477959394455,44.74557042121887 16.42477959394455,44.74557042121887 16.183045506477356,45.30884921550751 16.183045506477356,45.30884921550751 15.774330496788025,46.4313805103302 15.774330496788025,46.4313805103302 15.449564158916473,47.579559683799744 15.449564158916473,47.579559683799744 15.208865702152252,48.74751567840576 15.208865702152252,48.74751567840576 15.05257934331894,49.92950260639191 15.05257934331894,49.92950260639191 14.980818331241608,51.11977458000183 14.980818331241608,51.11977458000183 14.994043111801147,52.31245756149292 14.994043111801147,52.31245756149292 15.09236991405487,53.50180268287659 15.09236991405487,53.50180268287659 15.27591198682785,54.68195080757141 15.27591198682785,54.68195080757141 15.554101765155792,55.87958097457886 15.554101765155792,55.87958097457886 15.920841693878174,57.04983472824097 15.920841693878174,57.04983472824097 16.37325882911682,58.18777680397034 16.37325882911682,58.18777680397034 16.90836250782013,59.28846001625061 16.90836250782013,59.28846001625061 17.52304583787918,60.34693717956543 17.52304583787918,60.34693717956543 18.21443736553192,61.35803461074829 18.21443736553192,61.35803461074829 18.979428708553314,62.31691837310791 18.979428708553314,62.31691837310791 19.815261662006378,63.21876049041748 19.815261662006378,63.21876049041748 20.45639604330063,64.18638825416565 20.45639604330063,64.18638825416565 20.59934288263321,65.1924192905426 20.59934288263321,65.1924192905426 20.33368945121765,66.14762544631958 20.33368945121765,66.14762544631958 19.749365746974945,66.96229577064514 19.749365746974945,66.96229577064514 18.935728073120117,67.54685044288635 18.935728073120117,67.54685044288635 17.98282265663147,67.81158447265625 17.98282265663147,67.81158447265625 16.980238258838654,67.66725778579712 16.980238258838654,67.66725778579712" stroke="white" stroke-width="0.1" /><polygon points="49.842676520347595,90.436452627182 49.842676520347595,90.436452627182 49.842676520347595,90.436452627182 49.842676520347595,90.436452627182 50.1334011554718,91.13980531692505 50.1334011554718,91.13980531692505 50.44264197349548,91.85960292816162 50.44264197349548,91.85960292816162 50.7531464099884,92.59296655654907 50.7531464099884,92.59296655654907 51.04766488075256,93.33726167678833 51.04766488075256,93.33726167678833 51.30906701087952,94.08937096595764 51.30906701087952,94.08937096595764 51.51986479759216,94.84665393829346 51.51986479759216,94.84665393829346 51.6631543636322,95.606130361557 51.6631543636322,95.606130361557 51.721346378326416,96.36502265930176 51.721346378326416,96.36502265930176 51.56862139701843,97.47157096862793 51.56862139701843,97.47157096862793 51.16933584213257,98.38663935661316 51.16933584213257,98.38663935661316 50.56535005569458,99.10367727279663 50.56535005569458,99.10367727279663 49.79863166809082,99.6156632900238 49.79863166809082,99.6156632900238 48.91104698181152,99.91582036018372 48.91104698181152,99.91582036018372 47.944459319114685,99.99769926071167 47.944459319114685,99.99769926071167 46.94060981273651,99.85395073890686 46.94060981273651,99.85395073890686 45.94181776046753,99.47835206985474 45.94181776046753,99.47835206985474 44.87161338329315,98.89839887619019 44.87161338329315,98.89839887619019 43.82359981536865,98.25462102890015 43.82359981536865,98.25462102890015 42.79422163963318,97.56196141242981 42.79422163963318,97.56196141242981 41.78013503551483,96.8353807926178 41.78013503551483,96.8353807926178 40.77824056148529,96.08994126319885 40.77824056148529,96.08994126319885 39.78497087955475,95.34059166908264 39.78497087955475,95.34059166908264 38.79722058773041,94.6023941040039 38.79722058773041,94.6023941040039 37.811654806137085,93.89018416404724 37.811654806137085,93.89018416404724 36.80101931095123,93.16153526306152 36.80101931095123,93.16153526306152 35.73702275753021,92.40643382072449 35.73702275753021,92.40643382072449 34.626221656799316,91.69917106628418 34.626221656799316,91.69917106628418 33.47574472427368,91.11358523368835 33.47574472427368,91.11358523368835 32.29237496852875,90.72396159172058 32.29237496852875,90.72396159172058 31.08290135860443,90.60458540916443 31.08290135860443,90.60458540916443 29.854339361190796,90.82930088043213 29.854339361190796,90.82930088043213 28.61335575580597,91.47239327430725 28.61335575580597,91.47239327430725 20.63867300748825,97.08631634712219 20.63867300748825,97.08631634712219 20.203852653503418,97.3975121974945 20.203852653503418,97.3975121974945 19.767765700817108,97.71525859832764 19.767765700817108,97.71525859832764 19.32903379201889,98.0345070362091 19.32903379201889,98.0345070362091 18.8865065574646,98.35018515586853 18.8865065574646,98.35018515586853 18.4385746717453,98.65758419036865 18.4385746717453,98.65758419036865 17.983858287334442,98.95164370536804 17.983858287334442,98.95164370536804 17.521090805530548,99.22764897346497 17.521090805530548,99.22764897346497 17.048779129981995,99.4801938533783 17.048779129981995,99.4801938533783 16.054819524288177,99.85164999961853 16.054819524288177,99.85164999961853 15.050739049911499,99.99333024024963 15.050739049911499,99.99333024024963 14.080238342285156,99.91121888160706 14.080238342285156,99.91121888160706 13.187365233898163,99.61175322532654 13.187365233898163,99.61175322532654 12.415933609008789,99.10114407539368 12.415933609008789,99.10114407539368 11.809759587049484,98.38560819625854 11.809759587049484,98.38560819625854 11.412428319454193,97.47157096862793 11.412428319454193,97.47157096862793 11.268331110477448,96.36502265930176 11.268331110477448,96.36502265930176 11.334802210330963,95.5524206161499 11.334802210330963,95.5524206161499 11.499600112438202,94.72360610961914 11.499600112438202,94.72360610961914 11.741678416728973,93.88673901557922 11.741678416728973,93.88673901557922 12.039992958307266,93.04975271224976 12.039992958307266,93.04975271224976 12.37349808216095,92.220938205719 12.37349808216095,92.220938205719 12.72149384021759,91.40833616256714 12.72149384021759,91.40833616256714 13.06258887052536,90.61999917030334 13.06258887052536,90.61999917030334 13.376083970069885,89.86420631408691 13.376083970069885,89.86420631408691 22.054575383663177,68.01939606666565 22.054575383663177,68.01939606666565 22.37887978553772,67.2029972076416 22.37887978553772,67.2029972076416 22.70318567752838,66.38671159744263 22.70318567752838,66.38671159744263 23.027490079402924,65.57031869888306 23.027490079402924,65.57031869888306 23.351794481277466,64.75380659103394 23.351794481277466,64.75380659103394 23.676100373268127,63.93740773200989 23.676100373268127,63.93740773200989 24.00040477514267,63.12089562416077 24.00040477514267,63.12089562416077 24.324709177017212,62.30449676513672 24.324709177017212,62.30449676513672 24.649015069007874,61.48821711540222 24.649015069007874,61.48821711540222 24.631419777870178,61.325603723526 24.631419777870178,61.325603723526 24.491462111473083,61.123889684677124 24.491462111473083,61.123889684677124 24.26306903362274,60.89710593223572 24.26306903362274,60.89710593223572 23.97993505001068,60.659509897232056 23.97993505001068,60.659509897232056 23.676100373268127,60.42513847351074 23.676100373268127,60.42513847351074 23.38526099920273,60.207897424697876 23.38526099920273,60.207897424697876 23.141342401504517,60.022175312042236 23.141342401504517,60.022175312042236 22.978268563747406,59.881871938705444 22.978268563747406,59.881871938705444 22.589679062366486,59.46751832962036 22.589679062366486,59.46751832962036 22.22132831811905,59.03534293174744 22.22132831811905,59.03534293174744 21.87390774488449,58.58625769615173 21.87390774488449,58.58625769615173 21.54822200536728,58.12119245529175 21.54822200536728,58.12119245529175 21.245077252388,57.64129161834717 21.245077252388,57.64129161834717 20.965048670768738,57.14735984802246 20.965048670768738,57.14735984802246 20.709054172039032,56.64042830467224 20.709054172039032,56.64042830467224 20.477671921253204,56.1217725276947 20.477671921253204,56.1217725276947 20.095865428447723,55.06674647331238 20.095865428447723,55.06674647331238 19.816870987415314,53.98228168487549 19.816870987415314,53.98228168487549 19.641032814979553,52.87768840789795 19.641032814979553,52.87768840789795 19.56835240125656,51.76205635070801 19.56835240125656,51.76205635070801 19.598713517189026,50.644469261169434 19.598713517189026,50.644469261169434 19.732460379600525,49.53389763832092 19.732460379600525,49.53389763832092 19.96970921754837,48.43965768814087 19.96970921754837,48.43965768814087 20.310229063034058,47.37060070037842 20.310229063034058,47.37060070037842 21.31177932024002,45.32264769077301 21.31177932024002,45.32264769077301 22.66109436750412,43.541041016578674 22.66109436750412,43.541041016578674 24.301479756832123,42.055219411849976 24.301479756832123,42.055219411849976 26.175779104232788,40.89450538158417 26.175779104232788,40.89450538158417 28.227180242538452,40.08823037147522 28.227180242538452,40.08823037147522 30.399101972579956,39.66594338417053 30.399101972579956,39.66594338417053 32.63415992259979,39.656513929367065 32.63415992259979,39.656513929367065 34.875890612602234,40.08961021900177 34.875890612602234,40.08961021900177 37.14395463466644,41.03653430938721 37.14395463466644,41.03653430938721 39.120376110076904,42.39746332168579 39.120376110076904,42.39746332168579 40.768349170684814,44.103631377220154 40.768349170684814,44.103631377220154 42.05085039138794,46.08614444732666 42.05085039138794,46.08614444732666 42.931073904037476,48.27612340450287 42.931073904037476,48.27612340450287 43.3718740940094,50.60467720031738 43.3718740940094,50.60467720031738 43.33645403385162,53.00315618515015 43.33645403385162,53.00315618515015 42.78801083564758,55.40232062339783 42.78801083564758,55.40232062339783 42.554327845573425,56.02356195449829 42.554327845573425,56.02356195449829 42.28614270687103,56.63008093833923 42.28614270687103,56.63008093833923 41.984379291534424,57.22072720527649 41.984379291534424,57.22072720527649 41.65041446685791,57.79343843460083 41.65041446685791,57.79343843460083 41.28516614437103,58.34693908691406 41.28516614437103,58.34693908691406 40.889790654182434,58.879512548446655 40.889790654182434,58.879512548446655 40.46531915664673,59.38943028450012 40.46531915664673,59.38943028450012 40.01324772834778,59.875428676605225 40.01324772834778,59.875428676605225 39.87455666065216,59.99859571456909 39.87455666065216,59.99859571456909 39.645472168922424,60.185706615448 39.645472168922424,60.185706615448 39.36095833778381,60.415130853652954 39.36095833778381,60.415130853652954 39.0556275844574,60.66480278968811 39.0556275844574,60.66480278968811 38.76398503780365,60.912978649139404 38.76398503780365,60.912978649139404 38.521215319633484,61.13768815994263 38.521215319633484,61.13768815994263 38.361361622810364,61.317092180252075 38.361361622810364,61.317092180252075 38.31950128078461,61.42933368682861 38.31950128078461,61.42933368682861 39.13831412792206,63.490164279937744 39.13831412792206,63.490164279937744 43.102654814720154,73.4695553779602 43.102654814720154,73.4695553779602" stroke="white" stroke-width="0.1" /><polygon points="53.778499364852905,29.253685474395752 53.778499364852905,29.253685474395752 53.778499364852905,29.253685474395752 53.778499364852905,29.253685474395752 55.92684745788574,31.640315055847168 55.92684745788574,31.640315055847168 57.81092047691345,34.22216176986694 57.81092047691345,34.22216176986694 59.42025184631348,36.973291635513306 59.42025184631348,36.973291635513306 60.744959115982056,39.86777067184448 60.744959115982056,39.86777067184448 61.77445650100708,42.879897356033325 61.77445650100708,42.879897356033325 62.49861717224121,45.9837943315506 62.49861717224121,45.9837943315506 62.907105684280396,49.153703451156616 62.907105684280396,49.153703451156616 62.989675998687744,52.36351490020752 62.989675998687744,52.36351490020752 62.909406423568726,53.935474157333374 62.909406423568726,53.935474157333374 62.75070309638977,55.500996112823486 62.75070309638977,55.500996112823486 62.514376640319824,57.05650448799133 62.514376640319824,57.05650448799133 62.20099329948425,58.59833359718323 62.20099329948425,58.59833359718323 61.81148290634155,60.12268662452698 61.81148290634155,60.12268662452698 61.34653091430664,61.625754833221436 61.34653091430664,61.625754833221436 60.80717444419861,63.103991746902466 60.80717444419861,63.103991746902466 60.193753242492676,64.553701877594 60.193753242492676,64.553701877594 59.82735753059387,65.33318161964417 59.82735753059387,65.33318161964417 59.43957567214966,66.10231399536133 59.43957567214966,66.10231399536133 59.030741453170776,66.86040759086609 59.030741453170776,66.86040759086609 58.60132575035095,67.6069974899292 58.60132575035095,67.6069974899292 58.15155506134033,68.34163069725037 58.15155506134033,68.34163069725037 57.68200159072876,69.06384229660034 57.68200159072876,69.06384229660034 57.19255208969116,69.77294087409973 57.19255208969116,69.77294087409973 56.68390393257141,70.46847343444824 56.68390393257141,70.46847343444824 56.28852844238281,71.00633382797241 56.28852844238281,71.00633382797241 55.85542917251587,71.599280834198 55.85542917251587,71.599280834198 55.38610816001892,72.21534848213196 55.38610816001892,72.21534848213196 54.88240122795105,72.82232642173767 54.88240122795105,72.82232642173767 54.34568524360657,73.38813543319702 54.34568524360657,73.38813543319702 53.77746224403381,73.8804578781128 53.77746224403381,73.8804578781128 53.179335594177246,74.26732182502747 53.179335594177246,74.26732182502747 52.55303978919983,74.51653480529785 52.55303978919983,74.51653480529785 51.829105615615845,74.60347414016724 51.829105615615845,74.60347414016724 51.142311096191406,74.49456453323364 51.142311096191406,74.49456453323364 50.51888823509216,74.21661019325256 50.51888823509216,74.21661019325256 49.984705448150635,73.79615902900696 49.984705448150635,73.79615902900696 49.56609904766083,73.26014041900635 49.56609904766083,73.26014041900635 49.289289116859436,72.63544797897339 49.289289116859436,72.63544797897339 49.180153012275696,71.94854617118835 49.180153012275696,71.94854617118835 49.26490783691406,71.22656106948853 49.26490783691406,71.22656106948853 49.502503871917725,70.60233354568481 49.502503871917725,70.60233354568481 49.86475706100464,69.99431848526001 49.86475706100464,69.99431848526001 50.319015979766846,69.4014847278595 50.319015979766846,69.4014847278595 50.832730531692505,68.82256865501404 50.832730531692505,68.82256865501404 51.37300491333008,68.25641393661499 51.37300491333008,68.25641393661499 51.907187700271606,67.70175695419312 51.907187700271606,67.70175695419312 52.40238904953003,67.15768575668335 52.40238904953003,67.15768575668335 52.82628536224365,66.62281155586243 52.82628536224365,66.62281155586243 53.70892286300659,65.2947723865509 53.70892286300659,65.2947723865509 54.506915807724,63.916015625 54.506915807724,63.916015625 55.21854758262634,62.49183416366577 55.21854758262634,62.49183416366577 55.84174394607544,61.027175188064575 55.84174394607544,61.027175188064575 56.374889612197876,59.52731966972351 56.374889612197876,59.52731966972351 56.815922260284424,57.99745321273804 56.815922260284424,57.99745321273804 57.16300010681152,56.44251108169556 57.16300010681152,56.44251108169556 57.41439461708069,54.8677921295166 57.41439461708069,54.8677921295166 57.62116312980652,51.87729001045227 57.62116312980652,51.87729001045227 57.48293399810791,48.89644384384155 57.48293399810791,48.89644384384155 57.009583711624146,45.958033204078674 57.009583711624146,45.958033204078674 56.210899353027344,43.09506416320801 56.210899353027344,43.09506416320801 55.097222328186035,40.340542793273926 55.097222328186035,40.340542793273926 53.67810130119324,37.72747218608856 53.67810130119324,37.72747218608856 51.963770389556885,35.28863191604614 51.963770389556885,35.28863191604614 49.964118003845215,33.05702209472656 49.964118003845215,33.05702209472656 49.322983622550964,32.087212800979614 49.322983622550964,32.087212800979614 49.180036783218384,31.080716848373413 49.180036783218384,31.080716848373413 49.44603741168976,30.126547813415527 49.44603741168976,30.126547813415527 50.0313937664032,29.313716292381287 50.0313937664032,29.313716292381287 50.84664225578308,28.731060028076172 50.84664225578308,28.731060028076172 51.802653074264526,28.467532992362976 51.802653074264526,28.467532992362976 52.80972123146057,28.612032532691956 52.80972123146057,28.612032532691956" stroke="white" stroke-width="0.1" /><polygon points="48.0192095041275,51.538264751434326 48.0192095041275,51.538264751434326 48.0192095041275,51.538264751434326 48.0192095041275,51.538264751434326 47.96653985977173,50.23000240325928 47.96653985977173,50.23000240325928 47.81105816364288,48.93278479576111 47.81105816364288,48.93278479576111 47.55471646785736,47.65350520610809 47.55471646785736,47.65350520610809 47.1993625164032,46.39894962310791 47.1993625164032,46.39894962310791 46.74682915210724,45.17636597156525 46.74682915210724,45.17636597156525 46.19896113872528,43.99253726005554 46.19896113872528,43.99253726005554 45.55771350860596,42.854711413383484 45.55771350860596,42.854711413383484 44.82492208480835,41.7695552110672 44.82492208480835,41.7695552110672 44.458410143852234,41.31368696689606 44.458410143852234,41.31368696689606 44.06062066555023,40.86908996105194 44.06062066555023,40.86908996105194 43.65719258785248,40.424954891204834 43.65719258785248,40.424954891204834 43.272972106933594,39.97035324573517 43.272972106933594,39.97035324573517 42.93337166309357,39.49447572231293 42.93337166309357,39.49447572231293 42.66334772109985,38.98651301860809 42.66334772109985,38.98651301860809 42.488545179367065,38.43565285205841 42.488545179367065,38.43565285205841 42.43380427360535,37.83097565174103 42.43380427360535,37.83097565174103 42.498090863227844,37.31151223182678 42.498090863227844,37.31151223182678 42.66035854816437,36.82884871959686 42.66035854816437,36.82884871959686 42.9094523191452,36.392879486083984 42.9094523191452,36.392879486083984 43.23490858078003,36.01360321044922 43.23490858078003,36.01360321044922 43.625569343566895,35.701143741607666 43.625569343566895,35.701143741607666 44.070738554000854,35.46556234359741 44.070738554000854,35.46556234359741 44.559383392333984,35.316863656044006 44.559383392333984,35.316863656044006 45.08068561553955,35.26505529880524 45.08068561553955,35.26505529880524 46.11639082431793,35.47378480434418 46.11639082431793,35.47378480434418 47.100114822387695,36.04235351085663 47.100114822387695,36.04235351085663 48.02093505859375,36.88439428806305 48.02093505859375,36.88439428806305 48.867806792259216,37.91366219520569 48.867806792259216,37.91366219520569 49.63003993034363,39.04378414154053 49.63003993034363,39.04378414154053 50.29647350311279,40.188512206077576 50.29647350311279,40.188512206077576 50.85653066635132,41.261476278305054 50.85653066635132,41.261476278305054 51.29905939102173,42.176201939582825 51.29905939102173,42.176201939582825 51.78356170654297,43.28412711620331 51.78356170654297,43.28412711620331 52.20550298690796,44.41654980182648 52.20550298690796,44.41654980182648 52.56442427635193,45.570361614227295 52.56442427635193,45.570361614227295 52.85952091217041,46.74200117588043 52.85952091217041,46.74200117588043 53.09009552001953,47.92812764644623 53.09009552001953,47.92812764644623 53.255581855773926,49.12506639957428 53.255581855773926,49.12506639957428 53.3552885055542,50.32959580421448 53.3552885055542,50.32959580421448 53.388410806655884,51.538264751434326 53.388410806655884,51.538264751434326 53.34931015968323,52.84905433654785 53.34931015968323,52.84905433654785 53.23200821876526,54.15455102920532 53.23200821876526,54.15455102920532 53.037309646606445,55.45016527175903 53.037309646606445,55.45016527175903 52.76625156402588,56.731975078582764 52.76625156402588,56.731975078582764 52.41963863372803,57.99537897109985 52.41963863372803,57.99537897109985 51.99861526489258,59.23590660095215 51.99861526489258,59.23590660095215 51.50399208068848,60.44951677322388 51.50399208068848,60.44951677322388 50.93657374382019,61.631739139556885 50.93657374382019,61.631739139556885 50.46311020851135,62.53013014793396 50.46311020851135,62.53013014793396 49.869588017463684,63.57986927032471 49.869588017463684,63.57986927032471 49.16715621948242,64.68526124954224 49.16715621948242,64.68526124954224 48.36628437042236,65.75155854225159 48.36628437042236,65.75155854225159 47.47801125049591,66.6831910610199 47.47801125049591,66.6831910610199 46.513375639915466,67.38516092300415 46.513375639915466,67.38516092300415 45.48307657241821,67.76201725006104 45.48307657241821,67.76201725006104 44.398033618927,67.71854758262634 44.398033618927,67.71854758262634 43.105530738830566,67.15492606163025 43.105530738830566,67.15492606163025 42.489466071128845,66.37073159217834 42.489466071128845,66.37073159217834 42.412069439888,65.42990207672119 42.412069439888,65.42990207672119 42.73614585399628,64.39672112464905 42.73614585399628,64.39672112464905 43.324148654937744,63.33514451980591 43.324148654937744,63.33514451980591 44.038769602775574,62.309324741363525 44.038769602775574,62.309324741363525 44.742465019226074,61.38345003128052 44.742465019226074,61.38345003128052 45.297807455062866,60.621559619903564 45.297807455062866,60.621559619903564 45.923417806625366,59.59252715110779 45.923417806625366,59.59252715110779 46.47025167942047,58.52208733558655 46.47025167942047,58.52208733558655 46.937042474746704,57.415771484375 46.937042474746704,57.415771484375 47.32230007648468,56.278979778289795 47.32230007648468,56.278979778289795 47.62452244758606,55.11734485626221 47.62452244758606,55.11734485626221 47.84245193004608,53.93627882003784 47.84245193004608,53.93627882003784 47.97435998916626,52.741414308547974 47.97435998916626,52.741414308547974" stroke="white" stroke-width="0.1" /><polygon points="92.69325137138367,77.00424790382385 92.69325137138367,77.00424790382385 92.59583950042725,79.66815233230591 91.96586012840271,82.16921091079712 90.85897207260132,84.44831371307373 89.33151960372925,86.44589185714722 87.43939399719238,88.1028413772583 85.23849248886108,89.35980796813965 82.78504610061646,90.15746116638184 80.13505935668945,90.436452627182 69.57329511642456,90.436452627182 58.09520483016968,90.436452627182 57.71983861923218,90.1107668876648 57.246142625808716,89.2423927783966 56.71311020851135,87.9949688911438 56.15960955619812,86.53214573860168 55.624622106552124,85.01734137535095 55.1470160484314,83.61397385597229 54.765784740448,82.48546123504639 54.520028829574585,81.7956805229187 56.91298246383667,80.82023859024048 59.115153551101685,79.30589318275452 61.12135648727417,77.36777067184448 62.9267692565918,75.12040734291077 64.52621817588806,72.67857193946838 65.91463088989258,70.15716433525085 67.0871913433075,67.67047643661499 68.03871393203735,65.33387303352356 68.93216371536255,62.674570083618164 69.62941884994507,59.95846390724182 70.12967467308044,57.199567556381226 70.4328179359436,54.411810636520386 70.53838968276978,51.609450578689575 70.44593095779419,48.80628287792206 70.1549768447876,46.01668417453766 69.66530084609985,43.25445890426636 68.97804737091064,40.54444134235382 68.09656023979187,37.89733052253723 67.02773571014404,35.323765873909 65.7783567905426,32.834264636039734 64.35520648956299,30.439352989196777 62.76565194129944,28.149783611297607 61.015784740448,25.976020097732544 59.11273956298828,23.928643763065338 58.03885459899902,22.997935116291046 56.857097148895264,22.233690321445465 55.58897256851196,21.6410294175148 54.255640506744385,21.22495323419571 52.87860631942749,20.990636944770813 51.47915482521057,20.943140983581543 50.07854700088501,21.08752578496933 48.69818091392517,21.428965032100677 48.03151488304138,21.67162001132965 47.384169697761536,21.960273385047913 46.75879180431366,22.293204069137573 46.158367395401,22.66845405101776 45.58519721031189,23.084358870983124 45.04216015338898,23.539133369922638 44.53166723251343,24.030880630016327 44.056710600852966,24.5579332113266 43.78553628921509,24.951928853988647 43.508610129356384,25.46173334121704 43.22570562362671,26.04019045829773 42.935556173324585,26.640498638153076 42.63770282268524,27.215680480003357 42.3312246799469,27.71875560283661 42.015427350997925,28.102746605873108 41.689515113830566,28.320789337158203 40.61229228973389,22.443856298923492 41.184887290000916,16.7929008603096 43.19120645523071,11.599133908748627 46.41539454460144,7.093998044729233 50.641363859176636,3.508991003036499 55.65325617790222,1.0752663016319275 61.234867572784424,0.024437872343696654 67.17022061347961,0.5878889467567205 72.81991243362427,2.8343331068754196 77.36075520515442,6.398811936378479 80.70926070213318,10.959263890981674 82.78194069862366,16.193395853042603 83.49518179893494,21.779261529445648 82.76583552360535,27.39456593990326 80.51019310951233,32.71724879741669 76.64452791213989,37.42524981498718 79.05679941177368,37.66893744468689 81.36695623397827,38.32249343395233 83.53025317192078,39.34715688228607 85.50173044204712,40.704524517059326 87.23618388175964,42.355719208717346 88.68877291679382,44.2622184753418 89.814293384552,46.38526439666748 90.56801795959473,48.68622124195099 90.76409339904785,49.66362118721008 90.909343957901,50.65895915031433 91.0141110420227,51.666951179504395 91.0889744758606,52.68241763114929 91.14428758621216,53.70017886161804 91.19017720222473,54.715073108673096 91.23767018318176,55.72179555892944 91.29666686058044,56.715184450149536" stroke="white" stroke-width="0.1" /><polygon points="13.02923858165741,70.00662684440613 13.02923858165741,70.00662684440613 13.519260287284851,70.67961692810059 13.76076489686966,71.42367362976074 13.774104416370392,72.18935489654541 13.579405844211578,72.92674779891968 13.197025656700134,73.58663082122803 12.647202610969543,74.1193175315857 11.950406432151794,74.47513341903687 11.126649379730225,74.60485696792603 10.371547937393188,74.48697686195374 9.656926989555359,74.16370511054993 8.984626829624176,73.68081212043762 8.355911821126938,73.0838418006897 7.772623002529144,72.41843938827515 7.236140221357346,71.73038721084595 6.7483022809028625,71.06509804725647 6.310375779867172,70.46847343444824 5.3215909749269485,69.07844543457031 4.410891979932785,67.63736009597778 3.5800043493509293,66.14958047866821 2.8309980407357216,64.61925506591797 2.16559786349535,63.05086016654968 1.585989072918892,61.4483118057251 1.0936666280031204,59.81631875038147 0.6909305229783058,58.15868377685547 0.16307247569784522,54.81202006340027 0.00023000350211077603,51.442694664001465 0.19596298225224018,48.08361232280731 0.743256276473403,44.76776421070099 1.6355548053979874,41.5279358625412 2.866188623011112,38.397014141082764 4.428257420659065,35.40782928466797 6.314975768327713,32.59333670139313 6.801893562078476,31.930291652679443 7.348036766052246,31.19342029094696 7.95237123966217,30.44222891330719 8.613745868206024,29.736462235450745 9.330897033214569,29.135578870773315 10.102443397045135,28.699377179145813 10.927466303110123,28.48731279373169 11.804699152708054,28.55907380580902 12.484245002269745,28.839850425720215 13.03291767835617,29.274556040763855 13.440944254398346,29.826506972312927 13.698433339595795,30.458903312683105 13.795609772205353,31.134942173957825 13.722698390483856,31.81782066822052 13.469809293746948,32.47080147266388 13.02739828824997,33.05702209472656 11.844030022621155,34.31939780712128 10.748293250799179,35.65514087677002 9.743638336658478,37.05885410308838 8.83362963795662,38.52466642856598 8.022061735391617,40.04705846309662 7.312386482954025,41.620513796806335 6.7083969712257385,43.23916137218475 6.213774532079697,44.89760100841522 5.569074675440788,48.26876223087311 5.37736676633358,51.665687561035156 5.62577061355114,55.04259467124939 6.301865726709366,58.35292339324951 7.392772287130356,61.55054569244385 8.88618528842926,64.58969712257385 10.769223421812057,67.42368340492249" stroke="white" stroke-width="0.1" /><polygon points="16.01744294166565,67.02393889427185 16.01744294166565,67.02393889427185 14.314498007297516,65.10341167449951 12.859150767326355,63.00784945487976 11.660487204790115,60.76531410217285 10.727593302726746,58.403754234313965 10.069552809000015,55.95133900642395 9.695567190647125,53.43590974807739 9.614606201648712,50.88551640510559 9.835869818925858,48.32833409309387 10.04735752940178,47.12691009044647 10.325776785612106,45.93997895717621 10.669862478971481,44.77086961269379 11.078348755836487,43.622806668281555 11.549855768680573,42.49924123287201 12.083463370800018,41.40338897705078 12.677447497844696,40.338703989982605 13.331001996994019,39.308518171310425 13.907390832901001,38.49821388721466 14.65214341878891,37.56854236125946 15.52247554063797,36.6468608379364 16.475264728069305,35.860881209373474 17.467615008354187,35.33819615840912 18.456630408763885,35.206347703933716 19.39895451068878,35.592982172966 20.25226801633835,36.625757813453674 20.536552369594574,37.30461299419403 20.61084359884262,37.934017181396484 20.51171213388443,38.521674275398254 20.27515321969986,39.075639843940735 19.937507808208466,39.60361182689667 19.534887373447418,40.113645792007446 19.103629887104034,40.61332643032074 18.679964542388916,41.110825538635254 18.300458788871765,41.592222452163696 17.93946772813797,42.08742082118988 17.597222328186035,42.59572625160217 17.27418303489685,43.11634004116058 16.970807313919067,43.64856779575348 16.68744385242462,44.19195055961609 16.42477959394455,44.74557042121887 16.183045506477356,45.30884921550751 15.774330496788025,46.4313805103302 15.449564158916473,47.579559683799744 15.208865702152252,48.74751567840576 15.05257934331894,49.92950260639191 14.980818331241608,51.11977458000183 14.994043111801147,52.31245756149292 15.09236991405487,53.50180268287659 15.27591198682785,54.68195080757141 15.554101765155792,55.87958097457886 15.920841693878174,57.04983472824097 16.37325882911682,58.18777680397034 16.90836250782013,59.28846001625061 17.52304583787918,60.34693717956543 18.21443736553192,61.35803461074829 18.979428708553314,62.31691837310791 19.815261662006378,63.21876049041748 20.45639604330063,64.18638825416565 20.59934288263321,65.1924192905426 20.33368945121765,66.14762544631958 19.749365746974945,66.96229577064514 18.935728073120117,67.54685044288635 17.98282265663147,67.81158447265625 16.980238258838654,67.66725778579712" stroke="white" stroke-width="0.1" /><polygon points="49.842676520347595,90.436452627182 49.842676520347595,90.436452627182 50.1334011554718,91.13980531692505 50.44264197349548,91.85960292816162 50.7531464099884,92.59296655654907 51.04766488075256,93.33726167678833 51.30906701087952,94.08937096595764 51.51986479759216,94.84665393829346 51.6631543636322,95.606130361557 51.721346378326416,96.36502265930176 51.56862139701843,97.47157096862793 51.16933584213257,98.38663935661316 50.56535005569458,99.10367727279663 49.79863166809082,99.6156632900238 48.91104698181152,99.91582036018372 47.944459319114685,99.99769926071167 46.94060981273651,99.85395073890686 45.94181776046753,99.47835206985474 44.87161338329315,98.89839887619019 43.82359981536865,98.25462102890015 42.79422163963318,97.56196141242981 41.78013503551483,96.8353807926178 40.77824056148529,96.08994126319885 39.78497087955475,95.34059166908264 38.79722058773041,94.6023941040039 37.811654806137085,93.89018416404724 36.80101931095123,93.16153526306152 35.73702275753021,92.40643382072449 34.626221656799316,91.69917106628418 33.47574472427368,91.11358523368835 32.29237496852875,90.72396159172058 31.08290135860443,90.60458540916443 29.854339361190796,90.82930088043213 28.61335575580597,91.47239327430725 20.63867300748825,97.08631634712219 20.203852653503418,97.3975121974945 19.767765700817108,97.71525859832764 19.32903379201889,98.0345070362091 18.8865065574646,98.35018515586853 18.4385746717453,98.65758419036865 17.983858287334442,98.95164370536804 17.521090805530548,99.22764897346497 17.048779129981995,99.4801938533783 16.054819524288177,99.85164999961853 15.050739049911499,99.99333024024963 14.080238342285156,99.91121888160706 13.187365233898163,99.61175322532654 12.415933609008789,99.10114407539368 11.809759587049484,98.38560819625854 11.412428319454193,97.47157096862793 11.268331110477448,96.36502265930176 11.334802210330963,95.5524206161499 11.499600112438202,94.72360610961914 11.741678416728973,93.88673901557922 12.039992958307266,93.04975271224976 12.37349808216095,92.220938205719 12.72149384021759,91.40833616256714 13.06258887052536,90.61999917030334 13.376083970069885,89.86420631408691 22.054575383663177,68.01939606666565 22.37887978553772,67.2029972076416 22.70318567752838,66.38671159744263 23.027490079402924,65.57031869888306 23.351794481277466,64.75380659103394 23.676100373268127,63.93740773200989 24.00040477514267,63.12089562416077 24.324709177017212,62.30449676513672 24.649015069007874,61.48821711540222 24.631419777870178,61.325603723526 24.491462111473083,61.123889684677124 24.26306903362274,60.89710593223572 23.97993505001068,60.659509897232056 23.676100373268127,60.42513847351074 23.38526099920273,60.207897424697876 23.141342401504517,60.022175312042236 22.978268563747406,59.881871938705444 22.589679062366486,59.46751832962036 22.22132831811905,59.03534293174744 21.87390774488449,58.58625769615173 21.54822200536728,58.12119245529175 21.245077252388,57.64129161834717 20.965048670768738,57.14735984802246 20.709054172039032,56.64042830467224 20.477671921253204,56.1217725276947 20.095865428447723,55.06674647331238 19.816870987415314,53.98228168487549 19.641032814979553,52.87768840789795 19.56835240125656,51.76205635070801 19.598713517189026,50.644469261169434 19.732460379600525,49.53389763832092 19.96970921754837,48.43965768814087 20.310229063034058,47.37060070037842 21.31177932024002,45.32264769077301 22.66109436750412,43.541041016578674 24.301479756832123,42.055219411849976 26.175779104232788,40.89450538158417 28.227180242538452,40.08823037147522 30.399101972579956,39.66594338417053 32.63415992259979,39.656513929367065 34.875890612602234,40.08961021900177 37.14395463466644,41.03653430938721 39.120376110076904,42.39746332168579 40.768349170684814,44.103631377220154 42.05085039138794,46.08614444732666 42.931073904037476,48.27612340450287 43.3718740940094,50.60467720031738 43.33645403385162,53.00315618515015 42.78801083564758,55.40232062339783 42.554327845573425,56.02356195449829 42.28614270687103,56.63008093833923 41.984379291534424,57.22072720527649 41.65041446685791,57.79343843460083 41.28516614437103,58.34693908691406 40.889790654182434,58.879512548446655 40.46531915664673,59.38943028450012 40.01324772834778,59.875428676605225 39.87455666065216,59.99859571456909 39.645472168922424,60.185706615448 39.36095833778381,60.415130853652954 39.0556275844574,60.66480278968811 38.76398503780365,60.912978649139404 38.521215319633484,61.13768815994263 38.361361622810364,61.317092180252075 38.31950128078461,61.42933368682861 39.13831412792206,63.490164279937744 43.102654814720154,73.4695553779602" stroke="white" stroke-width="0.1" /><polygon points="53.778499364852905,29.253685474395752 53.778499364852905,29.253685474395752 55.92684745788574,31.640315055847168 57.81092047691345,34.22216176986694 59.42025184631348,36.973291635513306 60.744959115982056,39.86777067184448 61.77445650100708,42.879897356033325 62.49861717224121,45.9837943315506 62.907105684280396,49.153703451156616 62.989675998687744,52.36351490020752 62.909406423568726,53.935474157333374 62.75070309638977,55.500996112823486 62.514376640319824,57.05650448799133 62.20099329948425,58.59833359718323 61.81148290634155,60.12268662452698 61.34653091430664,61.625754833221436 60.80717444419861,63.103991746902466 60.193753242492676,64.553701877594 59.82735753059387,65.33318161964417 59.43957567214966,66.10231399536133 59.030741453170776,66.86040759086609 58.60132575035095,67.6069974899292 58.15155506134033,68.34163069725037 57.68200159072876,69.06384229660034 57.19255208969116,69.77294087409973 56.68390393257141,70.46847343444824 56.28852844238281,71.00633382797241 55.85542917251587,71.599280834198 55.38610816001892,72.21534848213196 54.88240122795105,72.82232642173767 54.34568524360657,73.38813543319702 53.77746224403381,73.8804578781128 53.179335594177246,74.26732182502747 52.55303978919983,74.51653480529785 51.829105615615845,74.60347414016724 51.142311096191406,74.49456453323364 50.51888823509216,74.21661019325256 49.984705448150635,73.79615902900696 49.56609904766083,73.26014041900635 49.289289116859436,72.63544797897339 49.180153012275696,71.94854617118835 49.26490783691406,71.22656106948853 49.502503871917725,70.60233354568481 49.86475706100464,69.99431848526001 50.319015979766846,69.4014847278595 50.832730531692505,68.82256865501404 51.37300491333008,68.25641393661499 51.907187700271606,67.70175695419312 52.40238904953003,67.15768575668335 52.82628536224365,66.62281155586243 53.70892286300659,65.2947723865509 54.506915807724,63.916015625 55.21854758262634,62.49183416366577 55.84174394607544,61.027175188064575 56.374889612197876,59.52731966972351 56.815922260284424,57.99745321273804 57.16300010681152,56.44251108169556 57.41439461708069,54.8677921295166 57.62116312980652,51.87729001045227 57.48293399810791,48.89644384384155 57.009583711624146,45.958033204078674 56.210899353027344,43.09506416320801 55.097222328186035,40.340542793273926 53.67810130119324,37.72747218608856 51.963770389556885,35.28863191604614 49.964118003845215,33.05702209472656 49.322983622550964,32.087212800979614 49.180036783218384,31.080716848373413 49.44603741168976,30.126547813415527 50.0313937664032,29.313716292381287 50.84664225578308,28.731060028076172 51.802653074264526,28.467532992362976 52.80972123146057,28.612032532691956" stroke="white" stroke-width="0.1" /><polygon points="48.0192095041275,51.538264751434326 48.0192095041275,51.538264751434326 47.96653985977173,50.23000240325928 47.81105816364288,48.93278479576111 47.55471646785736,47.65350520610809 47.1993625164032,46.39894962310791 46.74682915210724,45.17636597156525 46.19896113872528,43.99253726005554 45.55771350860596,42.854711413383484 44.82492208480835,41.7695552110672 44.458410143852234,41.31368696689606 44.06062066555023,40.86908996105194 43.65719258785248,40.424954891204834 43.272972106933594,39.97035324573517 42.93337166309357,39.49447572231293 42.66334772109985,38.98651301860809 42.488545179367065,38.43565285205841 42.43380427360535,37.83097565174103 42.498090863227844,37.31151223182678 42.66035854816437,36.82884871959686 42.9094523191452,36.392879486083984 43.23490858078003,36.01360321044922 43.625569343566895,35.701143741607666 44.070738554000854,35.46556234359741 44.559383392333984,35.316863656044006 45.08068561553955,35.26505529880524 46.11639082431793,35.47378480434418 47.100114822387695,36.04235351085663 48.02093505859375,36.88439428806305 48.867806792259216,37.91366219520569 49.63003993034363,39.04378414154053 50.29647350311279,40.188512206077576 50.85653066635132,41.261476278305054 51.29905939102173,42.176201939582825 51.78356170654297,43.28412711620331 52.20550298690796,44.41654980182648 52.56442427635193,45.570361614227295 52.85952091217041,46.74200117588043 53.09009552001953,47.92812764644623 53.255581855773926,49.12506639957428 53.3552885055542,50.32959580421448 53.388410806655884,51.538264751434326 53.34931015968323,52.84905433654785 53.23200821876526,54.15455102920532 53.037309646606445,55.45016527175903 52.76625156402588,56.731975078582764 52.41963863372803,57.99537897109985 51.99861526489258,59.23590660095215 51.50399208068848,60.44951677322388 50.93657374382019,61.631739139556885 50.46311020851135,62.53013014793396 49.869588017463684,63.57986927032471 49.16715621948242,64.68526124954224 48.36628437042236,65.75155854225159 47.47801125049591,66.6831910610199 46.513375639915466,67.38516092300415 45.48307657241821,67.76201725006104 44.398033618927,67.71854758262634 43.105530738830566,67.15492606163025 42.489466071128845,66.37073159217834 42.412069439888,65.42990207672119 42.73614585399628,64.39672112464905 43.324148654937744,63.33514451980591 44.038769602775574,62.309324741363525 44.742465019226074,61.38345003128052 45.297807455062866,60.621559619903564 45.923417806625366,59.59252715110779 46.47025167942047,58.52208733558655 46.937042474746704,57.415771484375 47.32230007648468,56.278979778289795 47.62452244758606,55.11734485626221 47.84245193004608,53.93627882003784 47.97435998916626,52.741414308547974" stroke="white" stroke-width="0.1" /></svg>