<?xml version="1.0" encoding="utf-8" ?>
<svg baseProfile="full" height="56.503331661224365" version="1.1" width="100.0" xmlns="http://www.w3.org/2000/svg" xmlns:ev="http://www.w3.org/2001/xml-events" xmlns:xlink="http://www.w3.org/1999/xlink"><defs><clipPath /></defs><polygon points="27.472561597824097,0.0 27.472561597824097,0.0 27.472561597824097,3.458285704255104 27.472561597824097,3.458285704255104 26.107853651046753,5.224764719605446 26.107853651046753,5.224764719605446 24.918581545352936,7.110747694969177 24.918581545352936,7.110747694969177 23.905903100967407,9.114961326122284 23.905903100967407,9.114961326122284 23.070907592773438,11.236130446195602 23.070907592773438,11.236130446195602 22.414757311344147,13.473205268383026 22.414757311344147,13.473205268383026 21.93857580423355,15.824836492538452 21.93857580423355,15.824836492538452 21.6434508562088,18.289899826049805 21.6434508562088,18.289899826049805 21.530617773532867,20.86727023124695 21.530617773532867,20.86727023124695 21.49043381214142,25.805795192718506 21.49043381214142,25.805795192718506 26.42955780029297,25.820788741111755 26.42955780029297,25.820788741111755 27.472561597824097,25.823786854743958 27.472561597824097,25.823786854743958 27.472561597824097,38.28585147857666 27.472561597824097,38.28585147857666 27.071237564086914,38.807278871536255 27.071237564086914,38.807278871536255 26.68423354625702,39.33110535144806 26.68423354625702,39.33110535144806 26.31162703037262,39.85762894153595 26.31162703037262,39.85762894153595 25.953486561775208,40.38662910461426 25.953486561775208,40.38662910461426 25.60989260673523,40.918177366256714 25.60989260673523,40.918177366256714 25.280994176864624,41.45219922065735 25.280994176864624,41.45219922065735 24.966788291931152,41.98862016201019 24.966788291931152,41.98862016201019 24.66742694377899,42.52744019031525 24.66742694377899,42.52744019031525 23.909351229667664,44.03586685657501 23.909351229667664,44.03586685657501 23.234571516513824,45.604121685028076 23.234571516513824,45.604121685028076 22.643496096134186,47.23085165023804 22.643496096134186,47.23085165023804 22.136537730693817,48.91456365585327 22.136537730693817,48.91456365585327 21.714073419570923,50.65352916717529 21.714073419570923,50.65352916717529 21.376551687717438,52.44647264480591 21.376551687717438,52.44647264480591 21.124310791492462,54.29174304008484 21.124310791492462,54.29174304008484 20.957836508750916,56.1878502368927 20.957836508750916,56.1878502368927 20.937444269657135,56.503331661224365 20.937444269657135,56.503331661224365 13.195586204528809,56.503331661224365 13.195586204528809,56.503331661224365 13.195586204528809,19.394829869270325 13.195586204528809,19.394829869270325 0.0,19.394829869270325 0.0,19.394829869270325 0.0,10.397648811340332 0.0,10.397648811340332 1.1599591933190823,10.397648811340332 1.1599591933190823,10.397648811340332 2.95012891292572,10.358888655900955 2.95012891292572,10.358888655900955 4.621581360697746,10.242682695388794 4.621581360697746,10.242682695388794 6.1743538826704025,10.04888117313385 6.1743538826704025,10.04888117313385 7.608483731746674,9.77770984172821 7.608483731746674,9.77770984172821 8.923859149217606,9.428942203521729 8.923859149217606,9.428942203521729 10.120479017496109,9.002654254436493 10.120479017496109,9.002654254436493 11.198306828737259,8.498920500278473 11.198306828737259,8.498920500278473 12.15737983584404,7.91759118437767 12.15737983584404,7.91759118437767 13.00845742225647,7.251694053411484 13.00845742225647,7.251694053411484 13.761995732784271,6.493207812309265 13.761995732784271,6.493207812309265 14.417995512485504,5.642205849289894 14.417995512485504,5.642205849289894 14.976458251476288,4.698764532804489 14.976458251476288,4.698764532804489 15.43753445148468,3.6628082394599915 15.43753445148468,3.6628082394599915 15.801145136356354,2.534336969256401 15.801145136356354,2.534336969256401 16.067443788051605,1.3133509084582329 16.067443788051605,1.3133509084582329 16.236430406570435,0.0 16.236430406570435,0.0" stroke="white" stroke-width="0.1" /><polygon points="32.059016823768616,5.6738439947366714 32.059016823768616,5.6738439947366714 33.50071907043457,4.3441493064165115 33.50071907043457,4.3441493064165115 35.0572407245636,3.1916871666908264 35.0572407245636,3.1916871666908264 36.7285430431366,2.21653264015913 36.7285430431366,2.21653264015913 38.5145902633667,1.418610941618681 38.5145902633667,1.418610941618681 40.41541814804077,0.7979217916727066 40.41541814804077,0.7979217916727066 42.43110120296478,0.3546902211382985 42.43110120296478,0.3546902211382985 44.5615291595459,0.08869129815138876 44.5615291595459,0.08869129815138876 46.80681228637695,0.0 46.80681228637695,0.0 48.65216314792633,0.05262999911792576 48.65216314792633,0.05262999911792576 50.4228413105011,0.21022011060267687 50.4228413105011,0.21022011060267687 52.1192193031311,0.4721705801784992 52.1192193031311,0.4721705801784992 53.74160408973694,0.8382564410567284 53.74160408973694,0.8382564410567284 55.290287733078,1.307877991348505 55.290287733078,1.307877991348505 56.765615940093994,1.880810223519802 56.765615940093994,1.880810223519802 58.167845010757446,2.5563035160303116 58.167845010757446,2.5563035160303116 59.49739217758179,3.334132954478264 59.49739217758179,3.334132954478264 58.459633588790894,4.740748554468155 58.459633588790894,4.740748554468155 57.55079388618469,6.237030029296875 57.55079388618469,6.237030029296875 56.77180290222168,7.822377234697342 56.77180290222168,7.822377234697342 56.12359642982483,9.49641615152359 56.12359642982483,9.49641615152359 55.607157945632935,11.258621513843536 55.607157945632935,11.258621513843536 55.22348880767822,13.10831904411316 55.22348880767822,13.10831904411316 54.97349500656128,15.0453582406044 54.97349500656128,15.0453582406044 54.85815405845642,17.06891357898712 54.85815405845642,17.06891357898712 54.742997884750366,22.079409658908844 54.742997884750366,22.079409658908844 59.755295515060425,22.095003724098206 59.755295515060425,22.095003724098206 66.84699654579163,22.11659550666809 66.84699654579163,22.11659550666809 66.73038005828857,22.6000115275383 66.73038005828857,22.6000115275383 66.60131812095642,23.07787984609604 66.60131812095642,23.07787984609604 66.45961999893188,23.55005145072937 66.45961999893188,23.55005145072937 66.30510687828064,24.016448855400085 66.30510687828064,24.016448855400085 66.1376953125,24.476999044418335 66.1376953125,24.476999044418335 65.95720052719116,24.931700527668 65.95720052719116,24.931700527668 65.76347351074219,25.38040578365326 65.76347351074219,25.38040578365326 65.55628776550293,25.823187828063965 65.55628776550293,25.823187828063965 65.08764028549194,26.715198159217834 65.08764028549194,26.715198159217834 64.54495787620544,27.617180347442627 64.54495787620544,27.617180347442627 63.92846703529358,28.528985381126404 63.92846703529358,28.528985381126404 63.238316774368286,29.450684785842896 63.238316774368286,29.450684785842896 62.47469782829285,30.382129549980164 62.47469782829285,30.382129549980164 61.637717485427856,31.323397159576416 61.637717485427856,31.323397159576416 60.72756052017212,32.274484634399414 60.72756052017212,32.274484634399414 59.744495153427124,33.23517143726349 59.744495153427124,33.23517143726349 58.899420499801636,33.23517143726349 58.899420499801636,33.23517143726349 53.94350290298462,33.23517143726349 53.94350290298462,33.23517143726349 53.983086347579956,37.81023323535919 53.983086347579956,37.81023323535919 53.75352501869202,37.974193692207336 53.75352501869202,37.974193692207336 53.521186113357544,38.13958168029785 53.521186113357544,38.13958168029785 53.28577756881714,38.306692242622375 53.28577756881714,38.306692242622375 53.04698944091797,38.47537934780121 53.04698944091797,38.47537934780121 52.80457139015198,38.6460155248642 52.80457139015198,38.6460155248642 52.55821347236633,38.81882429122925 52.55821347236633,38.81882429122925 52.30754613876343,38.9938086271286 52.30754613876343,38.9938086271286 52.05242037773132,39.171114563941956 52.05242037773132,39.171114563941956 50.76995491981506,40.07677137851715 50.76995491981506,40.07677137851715 49.584656953811646,40.9470409154892 49.584656953811646,40.9470409154892 48.49652051925659,41.78207218647003 48.49652051925659,41.78207218647003 47.50562310218811,42.581868171691895 47.50562310218811,42.581868171691895 46.61188721656799,43.346354365348816 46.61188721656799,43.346354365348816 45.81531584262848,44.075602293014526 45.81531584262848,44.075602293014526 45.1159805059433,44.769611954689026 45.1159805059433,44.769611954689026 44.51388418674469,45.42853832244873 44.51388418674469,45.42853832244873 54.93192672729492,45.42853832244873 54.93192672729492,45.42853832244873 55.37230968475342,46.874287724494934 55.37230968475342,46.874287724494934 55.896395444869995,48.26148450374603 55.896395444869995,48.26148450374603 56.504225730895996,49.58960711956024 56.504225730895996,49.58960711956024 57.195842266082764,50.857824087142944 57.195842266082764,50.857824087142944 57.97123312950134,52.065688371658325 57.97123312950134,52.065688371658325 58.830517530441284,53.21238040924072 58.830517530441284,53.21238040924072 59.77365970611572,54.297369718551636 59.77365970611572,54.297369718551636 60.80069541931152,55.319976806640625 60.80069541931152,55.319976806640625 60.97208261489868,55.47606945037842 60.97208261489868,55.47606945037842 61.14593744277954,55.62915802001953 61.14593744277954,55.62915802001953 61.32197380065918,55.779701471328735 61.32197380065918,55.779701471328735 61.500030755996704,55.92784881591797 61.500030755996704,55.92784881591797 61.67973875999451,56.07396960258484 61.67973875999451,56.07396960258484 61.86090707778931,56.21843934059143 61.86090707778931,56.21843934059143 62.043195962905884,56.36140704154968 62.043195962905884,56.36140704154968 62.22635507583618,56.503331661224365 62.22635507583618,56.503331661224365 27.472561597824097,56.503331661224365 27.472561597824097,56.503331661224365 25.860974192619324,56.503331661224365 25.860974192619324,56.503331661224365 26.003307104110718,54.86775040626526 26.003307104110718,54.86775040626526 26.216712594032288,53.283900022506714 26.216712594032288,53.283900022506714 26.501116156578064,51.75163149833679 26.501116156578064,51.75163149833679 26.856595277786255,50.2710223197937 26.856595277786255,50.2710223197937 27.283143997192383,48.841989040374756 27.283143997192383,48.841989040374756 27.780768275260925,47.464537620544434 27.780768275260925,47.464537620544434 28.34950089454651,46.138668060302734 28.34950089454651,46.138668060302734 28.989383578300476,44.86415088176727 28.989383578300476,44.86415088176727 29.711472988128662,43.6228483915329 29.711472988128662,43.6228483915329 30.527761578559875,42.395490407943726 30.527761578559875,42.395490407943726 31.438252329826355,41.18199944496155 31.438252329826355,41.18199944496155 32.44287073612213,39.98260796070099 32.44287073612213,39.98260796070099 33.54165554046631,38.797006011009216 33.54165554046631,38.797006011009216 34.734487533569336,37.62550354003906 34.734487533569336,37.62550354003906 36.021411418914795,36.46794259548187 36.021411418914795,36.46794259548187 37.40238845348358,35.32417714595795 37.40238845348358,35.32417714595795 37.87793219089508,34.958240389823914 37.87793219089508,34.958240389823914 38.41124176979065,34.55939292907715 38.41124176979065,34.55939292907715 39.002278447151184,34.12770628929138 39.002278447151184,34.12770628929138 39.65100646018982,33.66318345069885 39.65100646018982,33.66318345069885 40.35746455192566,33.16589593887329 40.35746455192566,33.16589593887329 41.121649742126465,32.635697722435 41.121649742126465,32.635697722435 41.943562030792236,32.07288682460785 41.943562030792236,32.07288682460785 42.823126912117004,31.477239727973938 42.823126912117004,31.477239727973938 43.70029270648956,30.882713198661804 43.70029270648956,30.882713198661804 44.51493322849274,30.32342791557312 44.51493322849274,30.32342791557312 45.26700973510742,29.79937493801117 45.26700973510742,29.79937493801117 45.95656096935272,29.310637712478638 45.95656096935272,29.310637712478638 46.583548188209534,28.857135772705078 46.583548188209534,28.857135772705078 47.14801013469696,28.43886911869049 47.14801013469696,28.43886911869049 47.64983057975769,28.055688738822937 47.64983057975769,28.055688738822937 48.089125752449036,27.707672119140625 48.089125752449036,27.707672119140625 48.756858706474304,27.13368833065033 48.756858706474304,27.13368833065033 49.38096106052399,26.557758450508118 49.38096106052399,26.557758450508118 49.96131360530853,25.980103015899658 49.96131360530853,25.980103015899658 50.49803853034973,25.400573015213013 50.49803853034973,25.400573015213013 50.99108815193176,24.81924295425415 50.99108815193176,24.81924295425415 51.44050121307373,24.23603981733322 51.44050121307373,24.23603981733322 51.84624791145325,23.651112616062164 51.84624791145325,23.651112616062164 52.2083580493927,23.064234852790833 52.2083580493927,23.064234852790833 52.5268018245697,22.47420996427536 52.5268018245697,22.47420996427536 52.802884578704834,21.87998592853546 52.802884578704834,21.87998592853546 53.03657054901123,21.281713247299194 53.03657054901123,21.281713247299194 53.227823972702026,20.679092407226562 53.227823972702026,20.679092407226562 53.37660312652588,20.072346925735474 53.37660312652588,20.072346925735474 53.48294973373413,19.46125477552414 53.48294973373413,19.46125477552414 53.54679226875305,18.846037983894348 53.54679226875305,18.846037983894348 53.56804132461548,18.22647452354431 53.56804132461548,18.22647452354431 53.54008078575134,17.34810769557953 53.54008078575134,17.34810769557953 53.456300497055054,16.520872712135315 53.456300497055054,16.520872712135315 53.31662893295288,15.744766592979431 53.31662893295288,15.744766592979431 53.121066093444824,15.019792318344116 53.121066093444824,15.019792318344116 52.86971926689148,14.345797896385193 52.86971926689148,14.345797896385193 52.56248712539673,13.72286081314087 52.56248712539673,13.72286081314087 52.19951272010803,13.150978088378906 52.19951272010803,13.150978088378906 51.78072452545166,12.630000710487366 51.78072452545166,12.630000710487366 51.31072402000427,12.165477126836777 51.31072402000427,12.165477126836777 50.794583559036255,11.76287978887558 50.794583559036255,11.76287978887558 50.23229718208313,11.422359198331833 50.23229718208313,11.422359198331833 49.623867869377136,11.143690347671509 49.623867869377136,11.143690347671509 48.969292640686035,10.926947742700577 48.969292640686035,10.926947742700577 48.26857149600983,10.772131383419037 48.26857149600983,10.772131383419037 47.52177894115448,10.679316520690918 47.52177894115448,10.679316520690918 46.728843450546265,10.648353397846222 46.728843450546265,10.648353397846222 45.843616127967834,10.688763111829758 45.843616127967834,10.688763111829758 45.01424431800842,10.809842497110367 45.01424431800842,10.809842497110367 44.240689277648926,11.011665314435959 44.240689277648926,11.011665314435959 43.52298676967621,11.294382810592651 43.52298676967621,11.294382810592651 42.861175537109375,11.657694727182388 42.861175537109375,11.657694727182388 42.25521683692932,12.101976573467255 42.25521683692932,12.101976573467255 41.70515239238739,12.627001106739044 41.70515239238739,12.627001106739044 41.21094048023224,13.232772052288055 41.21094048023224,13.232772052288055 40.77381789684296,13.91846090555191 40.77381789684296,13.91846090555191 40.3949499130249,14.683769643306732 40.3949499130249,14.683769643306732 40.07437229156494,15.528398752212524 40.07437229156494,15.528398752212524 39.81204628944397,16.45279824733734 39.81204628944397,16.45279824733734 39.60801064968109,17.45659112930298 39.60801064968109,17.45659112930298 39.46222960948944,18.54015439748764 39.46222960948944,18.54015439748764 39.37481343746185,19.70318704843521 39.37481343746185,19.70318704843521 39.345648884773254,20.945841073989868 39.345648884773254,20.945841073989868 26.443952322006226,20.907455682754517 26.443952322006226,20.907455682754517 26.548612117767334,18.578240275382996 26.548612117767334,18.578240275382996 26.823869347572327,16.370554268360138 26.823869347572327,16.370554268360138 27.269724011421204,14.284321665763855 27.269724011421204,14.284321665763855 27.886253595352173,12.319468706846237 27.886253595352173,12.319468706846237 28.673455119132996,10.476069152355194 28.673455119132996,10.476069152355194 29.631254076957703,8.753973245620728 29.631254076957703,8.753973245620728 30.759799480438232,7.153181731700897 30.759799480438232,7.153181731700897" stroke="white" stroke-width="0.1" /><polygon points="97.93738126754761,31.09038472175598 97.93738126754761,31.09038472175598 98.42068552970886,31.93928897380829 98.42068552970886,31.93928897380829 98.83959293365479,32.83017575740814 98.83959293365479,32.83017575740814 99.19409155845642,33.76304507255554 99.19409155845642,33.76304507255554 99.48419332504272,34.73775088787079 99.48419332504272,34.73775088787079 99.70982074737549,35.75458824634552 99.70982074737549,35.75458824634552 99.87105131149292,36.81333661079407 99.87105131149292,36.81333661079407 99.96775984764099,37.9142165184021 99.96775984764099,37.9142165184021 100.0,39.057159423828125 100.0,39.057159423828125 99.91067051887512,41.019612550735474 99.91067051887512,41.019612550735474 99.6427595615387,42.87695586681366 99.6427595615387,42.87695586681366 99.19623136520386,44.629114866256714 99.19623136520386,44.629114866256714 98.571115732193,46.27601504325867 98.571115732193,46.27601504325867 97.76746034622192,47.81765341758728 97.76746034622192,47.81765341758728 96.78525924682617,49.25410747528076 96.78525924682617,49.25410747528076 95.62458992004395,50.585079193115234 95.62458992004395,50.585079193115234 94.28536891937256,51.81071162223816 94.28536891937256,51.81071162223816 92.79280304908752,52.91069149971008 92.79280304908752,52.91069149971008 91.17248058319092,53.86395454406738 91.17248058319092,53.86395454406738 89.42440748214722,54.67050075531006 89.42440748214722,54.67050075531006 87.54858374595642,55.33040165901184 87.54858374595642,55.33040165901184 85.54508090019226,55.84365725517273 85.54508090019226,55.84365725517273 83.41390490531921,56.21019005775452 83.41390490531921,56.21019005775452 81.1550498008728,56.43008351325989 81.1550498008728,56.43008351325989 78.76867055892944,56.503331661224365 78.76867055892944,56.503331661224365 76.47038102149963,56.42850995063782 76.47038102149963,56.42850995063782 74.30636286735535,56.20426535606384 74.30636286735535,56.20426535606384 72.2765862941742,55.83038330078125 72.2765862941742,55.83038330078125 70.38100361824036,55.30693531036377 70.38100361824036,55.30693531036377 68.61966252326965,54.633837938308716 68.61966252326965,54.633837938308716 66.99251532554626,53.811174631118774 66.99251532554626,53.811174631118774 65.49960970878601,52.83864736557007 65.49960970878601,52.83864736557007 64.14082646369934,51.716548204422 64.14082646369934,51.716548204422 62.92906403541565,50.457173585891724 62.92906403541565,50.457173585891724 61.876314878463745,49.073052406311035 61.876314878463745,49.073052406311035 60.982537269592285,47.564324736595154 60.982537269592285,47.564324736595154 60.24777889251709,45.93069553375244 60.24777889251709,45.93069553375244 59.672075510025024,44.172313809394836 59.672075510025024,44.172313809394836 59.25542116165161,42.28925406932831 59.25542116165161,42.28925406932831 58.99789333343506,40.28121829032898 58.99789333343506,40.28121829032898 58.899420499801636,38.14850449562073 58.899420499801636,38.14850449562073 71.76693081855774,38.14850449562073 71.76693081855774,38.14850449562073 71.81483507156372,39.094194769859314 71.81483507156372,39.094194769859314 71.92073464393616,39.98193144798279 71.92073464393616,39.98193144798279 72.0846176147461,40.81164300441742 72.0846176147461,40.81164300441742 72.30649590492249,41.58324897289276 72.30649590492249,41.58324897289276 72.58629202842712,42.29690134525299 72.58629202842712,42.29690134525299 72.92404174804688,42.952677607536316 72.92404174804688,42.952677607536316 73.31962585449219,43.5505747795105 73.31962585449219,43.5505747795105 73.77316355705261,44.09044682979584 73.77316355705261,44.09044682979584 74.2827832698822,44.56936419010162 74.2827832698822,44.56936419010162 74.84683394432068,44.98448073863983 74.84683394432068,44.98448073863983 75.4652738571167,45.33579647541046 75.4652738571167,45.33579647541046 76.1380672454834,45.623236894607544 76.1380672454834,45.623236894607544 76.86532735824585,45.84687948226929 76.86532735824585,45.84687948226929 77.64701843261719,46.00671827793121 77.64701843261719,46.00671827793121 78.48325371742249,46.102455258369446 78.48325371742249,46.102455258369446 79.37383651733398,46.13446891307831 79.37383651733398,46.13446891307831 80.16805052757263,46.10425531864166 80.16805052757263,46.10425531864166 80.92316389083862,46.013763546943665 80.92316389083862,46.013763546943665 81.63925409317017,45.862847566604614 81.63925409317017,45.862847566604614 82.31632113456726,45.651575922966 82.31632113456726,45.651575922966 82.95432925224304,45.38003206253052 82.95432925224304,45.38003206253052 83.5533857345581,45.04828155040741 83.5533857345581,45.04828155040741 84.11338925361633,44.65618133544922 84.11338925361633,44.65618133544922 84.63444113731384,44.203802943229675 84.63444113731384,44.203802943229675 85.10447144508362,43.70224177837372 85.10447144508362,43.70224177837372 85.51190495491028,43.16297173500061 85.51190495491028,43.16297173500061 85.85673570632935,42.58591830730438 85.85673570632935,42.58591830730438 86.13889217376709,41.97092652320862 86.13889217376709,41.97092652320862 86.35841012001038,41.318073868751526 86.35841012001038,41.318073868751526 86.51517629623413,40.627360343933105 86.51517629623413,40.627360343933105 86.60929799079895,39.89871442317963 86.60929799079895,39.89871442317963 86.64067387580872,39.13213014602661 86.64067387580872,39.13213014602661 86.60311698913574,38.25226426124573 86.60311698913574,38.25226426124573 86.49043440818787,37.4292254447937 86.49043440818787,37.4292254447937 86.30266785621643,36.66286766529083 86.30266785621643,36.66286766529083 86.03978157043457,35.95326244831085 86.03978157043457,35.95326244831085 85.70180535316467,35.30040979385376 85.70180535316467,35.30040979385376 85.2887511253357,34.704312682151794 85.2887511253357,34.704312682151794 84.80057716369629,34.16504263877869 84.80057716369629,34.16504263877869 84.23739075660706,33.682599663734436 84.23739075660706,33.682599663734436 83.597731590271,33.25683772563934 83.597731590271,33.25683772563934 82.88066983222961,32.88790285587311 82.88066983222961,32.88790285587311 82.08622932434082,32.57564604282379 82.08622932434082,32.57564604282379 81.21431469917297,32.3201447725296 81.21431469917297,32.3201447725296 80.26494979858398,32.12131857872009 80.26494979858398,32.12131857872009 79.23814058303833,31.97939693927765 79.23814058303833,31.97939693927765 78.1338095664978,31.894230842590332 78.1338095664978,31.894230842590332 76.9519567489624,31.865891814231873 76.9519567489624,31.865891814231873 75.81658959388733,31.865891814231873 75.81658959388733,31.865891814231873 75.81658959388733,22.78294265270233 75.81658959388733,22.78294265270233 76.72524452209473,22.78294265270233 76.72524452209473,22.78294265270233 77.79748439788818,22.756703197956085 77.79748439788818,22.756703197956085 78.8006067276001,22.67775684595108 78.8006067276001,22.67775684595108 79.73459959030151,22.546257078647614 79.73459959030151,22.546257078647614 80.59939742088318,22.362127900123596 80.59939742088318,22.362127900123596 81.39503002166748,22.12536782026291 81.39503002166748,22.12536782026291 82.12143182754517,21.835827827453613 82.12143182754517,21.835827827453613 82.77859687805176,21.493656933307648 82.77859687805176,21.493656933307648 83.36651921272278,21.098782122135162 83.36651921272278,21.098782122135162 83.88543725013733,20.651651918888092 83.88543725013733,20.651651918888092 84.33522582054138,20.151741802692413 84.33522582054138,20.151741802692413 84.71581935882568,19.599202275276184 84.71581935882568,19.599202275276184 85.02721190452576,18.994107842445374 85.02721190452576,18.994107842445374 85.26944518089294,18.336306512355804 85.26944518089294,18.336306512355804 85.44244170188904,17.625802755355835 85.44244170188904,17.625802755355835 85.54624319076538,16.862592101097107 85.54624319076538,16.862592101097107 85.58087944984436,16.046902537345886 85.58087944984436,16.046902537345886 85.55512428283691,15.346968173980713 85.55512428283691,15.346968173980713 85.4779064655304,14.684820175170898 85.4779064655304,14.684820175170898 85.34922003746033,14.060457050800323 85.34922003746033,14.060457050800323 85.16905903816223,13.473880290985107 85.16905903816223,13.473880290985107 84.93747115135193,12.9251629114151 84.93747115135193,12.9251629114151 84.65453386306763,12.414157390594482 84.65453386306763,12.414157390594482 84.32023525238037,11.940937489271164 84.32023525238037,11.940937489271164 83.93450379371643,11.505427956581116 83.93450379371643,11.505427956581116 83.504319190979,11.115126311779022 83.504319190979,11.115126311779022 83.036869764328,10.776855051517487 83.036869764328,10.776855051517487 82.53220319747925,10.49053892493248 82.53220319747925,10.49053892493248 81.99026584625244,10.256327688694 81.99026584625244,10.256327688694 81.41107559204102,10.074146836996078 81.41107559204102,10.074146836996078 80.79466223716736,9.943921118974686 80.79466223716736,9.943921118974686 80.14094829559326,9.865876287221909 80.14094829559326,9.865876287221909 79.45001125335693,9.83986109495163 79.45001125335693,9.83986109495163 78.62359881401062,9.868275374174118 78.62359881401062,9.868275374174118 77.84741520881653,9.953367710113525 77.84741520881653,9.953367710113525 77.12146639823914,10.095363855361938 77.12146639823914,10.095363855361938 76.44575238227844,10.2941133081913 76.44575238227844,10.2941133081913 75.82030296325684,10.549616068601608 75.82030296325684,10.549616068601608 75.24515390396118,10.861797630786896 75.24515390396118,10.861797630786896 74.72031712532043,11.23088225722313 74.72031712532043,11.23088225722313 74.24578666687012,11.656570434570312 74.24578666687012,11.656570434570312 73.8203227519989,12.14088648557663 73.8203227519989,12.14088648557663 73.44276905059814,12.68547922372818 73.44276905059814,12.68547922372818 73.11304211616516,13.290350139141083 73.11304211616516,13.290350139141083 72.83129692077637,13.955646753311157 72.83129692077637,13.955646753311157 72.59746193885803,14.681221544742584 72.59746193885803,14.681221544742584 72.41157293319702,15.467147529125214 72.41157293319702,15.467147529125214 72.27365970611572,16.313500702381134 72.27365970611572,16.313500702381134 72.18376994132996,17.22005605697632 72.18376994132996,17.22005605697632 59.770286083221436,17.181670665740967 59.770286083221436,17.181670665740967 59.895867109298706,15.187053382396698 59.895867109298706,15.187053382396698 60.17817258834839,13.308793306350708 60.17817258834839,13.308793306350708 60.61716675758362,11.547037214040756 60.61716675758362,11.547037214040756 61.21289134025574,9.901562333106995 61.21289134025574,9.901562333106995 61.96526288986206,8.37266817688942 61.96526288986206,8.37266817688942 62.874484062194824,6.960204988718033 62.874484062194824,6.960204988718033 63.94031643867493,5.664322525262833 63.94031643867493,5.664322525262833 65.16283750534058,4.485095664858818 65.16283750534058,4.485095664858818 66.52908325195312,3.433994948863983 66.52908325195312,3.433994948863983 68.02603602409363,2.522941306233406 68.02603602409363,2.522941306233406 69.65363025665283,1.7520841211080551 69.65363025665283,1.7520841211080551 71.41201496124268,1.121348887681961 71.41201496124268,1.121348887681961 73.30110669136047,0.6307353265583515 73.30110669136047,0.6307353265583515 75.32091736793518,0.28031847905367613 75.32091736793518,0.28031847905367613 77.47151255607605,0.07009836263023317 77.47151255607605,0.07009836263023317 79.75289225578308,0.0 79.75289225578308,0.0 81.81880712509155,0.06207640981301665 81.81880712509155,0.06207640981301665 83.77830386161804,0.2484555821865797 83.77830386161804,0.2484555821865797 85.63141226768494,0.5589875858277082 85.63141226768494,0.5589875858277082 87.37809658050537,0.9935974143445492 87.37809658050537,0.9935974143445492 89.01843428611755,1.552435103803873 89.01843428611755,1.552435103803873 90.55235385894775,2.235575392842293 90.55235385894775,2.235575392842293 91.97988510131836,3.042718768119812 91.97988510131836,3.042718768119812 93.30114722251892,3.9740897715091705 93.30114722251892,3.9740897715091705 94.48974132537842,5.0089966505765915 94.48974132537842,5.0089966505765915 95.51993012428284,6.12659677863121 95.51993012428284,6.12659677863121 96.39161825180054,7.327115535736084 96.39161825180054,7.327115535736084 97.10482358932495,8.610328286886215 97.10482358932495,8.610328286886215 97.6595401763916,9.976384043693542 97.6595401763916,9.976384043693542 98.05580377578735,11.425133794546127 98.05580377578735,11.425133794546127 98.29357266426086,12.95657604932785 98.29357266426086,12.95657604932785 98.37281703948975,14.570863544940948 98.37281703948975,14.570863544940948 98.34766387939453,15.448854863643646 98.34766387939453,15.448854863643646 98.27220439910889,16.30367934703827 98.27220439910889,16.30367934703827 98.14644455909729,17.135488986968994 98.14644455909729,17.135488986968994 97.97044396400452,17.944131791591644 97.97044396400452,17.944131791591644 97.744220495224,18.72968226671219 97.744220495224,18.72968226671219 97.46772646903992,19.492067396640778 97.46772646903992,19.492067396640778 97.14103937149048,20.23143768310547 97.14103937149048,20.23143768310547 96.76423072814941,20.947639644145966 96.76423072814941,20.947639644145966 96.335768699646,21.643975377082825 96.335768699646,21.643975377082825 95.85467576980591,22.323067486286163 95.85467576980591,22.323067486286163 95.32098770141602,22.98506498336792 95.32098770141602,22.98506498336792 94.73467469215393,23.629970848560333 94.73467469215393,23.629970848560333 94.09576654434204,24.257707595825195 94.09576654434204,24.257707595825195 93.40430498123169,24.868200719356537 93.40430498123169,24.868200719356537 92.66014099121094,25.461673736572266 92.66014099121094,25.461673736572266 91.86348915100098,26.037904620170593 91.86348915100098,26.037904620170593 92.83572435379028,26.497632265090942 92.83572435379028,26.497632265090942 93.74703764915466,27.006536722183228 93.74703764915466,27.006536722183228 94.59755420684814,27.564474940299988 94.59755420684814,27.564474940299988 95.38715481758118,28.171443939208984 95.38715481758118,28.171443939208984 96.11595273017883,28.827595710754395 96.11595273017883,28.827595710754395 96.78391218185425,29.532703757286072 96.78391218185425,29.532703757286072 97.39106893539429,30.286991596221924 97.39106893539429,30.286991596221924" stroke="white" stroke-width="0.1" /><polygon points="27.472561597824097,0.0 27.472561597824097,3.458285704255104 26.107853651046753,5.224764719605446 24.918581545352936,7.110747694969177 23.905903100967407,9.114961326122284 23.070907592773438,11.236130446195602 22.414757311344147,13.473205268383026 21.93857580423355,15.824836492538452 21.6434508562088,18.289899826049805 21.530617773532867,20.86727023124695 21.49043381214142,25.805795192718506 26.42955780029297,25.820788741111755 27.472561597824097,25.823786854743958 27.472561597824097,38.28585147857666 27.071237564086914,38.807278871536255 26.68423354625702,39.33110535144806 26.31162703037262,39.85762894153595 25.953486561775208,40.38662910461426 25.60989260673523,40.918177366256714 25.280994176864624,41.45219922065735 24.966788291931152,41.98862016201019 24.66742694377899,42.52744019031525 23.909351229667664,44.03586685657501 23.234571516513824,45.604121685028076 22.643496096134186,47.23085165023804 22.136537730693817,48.91456365585327 21.714073419570923,50.65352916717529 21.376551687717438,52.44647264480591 21.124310791492462,54.29174304008484 20.957836508750916,56.1878502368927 20.937444269657135,56.503331661224365 13.195586204528809,56.503331661224365 13.195586204528809,19.394829869270325 0.0,19.394829869270325 0.0,10.397648811340332 1.1599591933190823,10.397648811340332 2.95012891292572,10.358888655900955 4.621581360697746,10.242682695388794 6.1743538826704025,10.04888117313385 7.608483731746674,9.77770984172821 8.923859149217606,9.428942203521729 10.120479017496109,9.002654254436493 11.198306828737259,8.498920500278473 12.15737983584404,7.91759118437767 13.00845742225647,7.251694053411484 13.761995732784271,6.493207812309265 14.417995512485504,5.642205849289894 14.976458251476288,4.698764532804489 15.43753445148468,3.6628082394599915 15.801145136356354,2.534336969256401 16.067443788051605,1.3133509084582329 16.236430406570435,0.0" stroke="white" stroke-width="0.1" /><polygon points="32.059016823768616,5.6738439947366714 33.50071907043457,4.3441493064165115 35.0572407245636,3.1916871666908264 36.7285430431366,2.21653264015913 38.5145902633667,1.418610941618681 40.41541814804077,0.7979217916727066 42.43110120296478,0.3546902211382985 44.5615291595459,0.08869129815138876 46.80681228637695,0.0 48.65216314792633,0.05262999911792576 50.4228413105011,0.21022011060267687 52.1192193031311,0.4721705801784992 53.74160408973694,0.8382564410567284 55.290287733078,1.307877991348505 56.765615940093994,1.880810223519802 58.167845010757446,2.5563035160303116 59.49739217758179,3.334132954478264 58.459633588790894,4.740748554468155 57.55079388618469,6.237030029296875 56.77180290222168,7.822377234697342 56.12359642982483,9.49641615152359 55.607157945632935,11.258621513843536 55.22348880767822,13.10831904411316 54.97349500656128,15.0453582406044 54.85815405845642,17.06891357898712 54.742997884750366,22.079409658908844 59.755295515060425,22.095003724098206 66.84699654579163,22.11659550666809 66.73038005828857,22.6000115275383 66.60131812095642,23.07787984609604 66.45961999893188,23.55005145072937 66.30510687828064,24.016448855400085 66.1376953125,24.476999044418335 65.95720052719116,24.931700527668 65.76347351074219,25.38040578365326 65.55628776550293,25.823187828063965 65.08764028549194,26.715198159217834 64.54495787620544,27.617180347442627 63.92846703529358,28.528985381126404 63.238316774368286,29.450684785842896 62.47469782829285,30.382129549980164 61.637717485427856,31.323397159576416 60.72756052017212,32.274484634399414 59.744495153427124,33.23517143726349 58.899420499801636,33.23517143726349 53.94350290298462,33.23517143726349 53.983086347579956,37.81023323535919 53.75352501869202,37.974193692207336 53.521186113357544,38.13958168029785 53.28577756881714,38.306692242622375 53.04698944091797,38.47537934780121 52.80457139015198,38.6460155248642 52.55821347236633,38.81882429122925 52.30754613876343,38.9938086271286 52.05242037773132,39.171114563941956 50.76995491981506,40.07677137851715 49.584656953811646,40.9470409154892 48.49652051925659,41.78207218647003 47.50562310218811,42.581868171691895 46.61188721656799,43.346354365348816 45.81531584262848,44.075602293014526 45.1159805059433,44.769611954689026 44.51388418674469,45.42853832244873 54.93192672729492,45.42853832244873 55.37230968475342,46.874287724494934 55.896395444869995,48.26148450374603 56.504225730895996,49.58960711956024 57.195842266082764,50.857824087142944 57.97123312950134,52.065688371658325 58.830517530441284,53.21238040924072 59.77365970611572,54.297369718551636 60.80069541931152,55.319976806640625 60.97208261489868,55.47606945037842 61.14593744277954,55.62915802001953 61.32197380065918,55.779701471328735 61.500030755996704,55.92784881591797 61.67973875999451,56.07396960258484 61.86090707778931,56.21843934059143 62.043195962905884,56.36140704154968 62.22635507583618,56.503331661224365 27.472561597824097,56.503331661224365 25.860974192619324,56.503331661224365 26.003307104110718,54.86775040626526 26.216712594032288,53.283900022506714 26.501116156578064,51.75163149833679 26.856595277786255,50.2710223197937 27.283143997192383,48.841989040374756 27.780768275260925,47.464537620544434 28.34950089454651,46.138668060302734 28.989383578300476,44.86415088176727 29.711472988128662,43.6228483915329 30.527761578559875,42.395490407943726 31.438252329826355,41.18199944496155 32.44287073612213,39.98260796070099 33.54165554046631,38.797006011009216 34.734487533569336,37.62550354003906 36.021411418914795,36.46794259548187 37.40238845348358,35.32417714595795 37.87793219089508,34.958240389823914 38.41124176979065,34.55939292907715 39.002278447151184,34.12770628929138 39.65100646018982,33.66318345069885 40.35746455192566,33.16589593887329 41.121649742126465,32.635697722435 41.943562030792236,32.07288682460785 42.823126912117004,31.477239727973938 43.70029270648956,30.882713198661804 44.51493322849274,30.32342791557312 45.26700973510742,29.79937493801117 45.95656096935272,29.310637712478638 46.583548188209534,28.857135772705078 47.14801013469696,28.43886911869049 47.64983057975769,28.055688738822937 48.089125752449036,27.707672119140625 48.756858706474304,27.13368833065033 49.38096106052399,26.557758450508118 49.96131360530853,25.980103015899658 50.49803853034973,25.400573015213013 50.99108815193176,24.81924295425415 51.44050121307373,24.23603981733322 51.84624791145325,23.651112616062164 52.2083580493927,23.064234852790833 52.5268018245697,22.47420996427536 52.802884578704834,21.87998592853546 53.03657054901123,21.281713247299194 53.227823972702026,20.679092407226562 53.37660312652588,20.072346925735474 53.48294973373413,19.46125477552414 53.54679226875305,18.846037983894348 53.56804132461548,18.22647452354431 53.54008078575134,17.34810769557953 53.456300497055054,16.520872712135315 53.31662893295288,15.744766592979431 53.121066093444824,15.019792318344116 52.86971926689148,14.345797896385193 52.56248712539673,13.72286081314087 52.19951272010803,13.150978088378906 51.78072452545166,12.630000710487366 51.31072402000427,12.165477126836777 50.794583559036255,11.76287978887558 50.23229718208313,11.422359198331833 49.623867869377136,11.143690347671509 48.969292640686035,10.926947742700577 48.26857149600983,10.772131383419037 47.52177894115448,10.679316520690918 46.728843450546265,10.648353397846222 45.843616127967834,10.688763111829758 45.01424431800842,10.809842497110367 44.240689277648926,11.011665314435959 43.52298676967621,11.294382810592651 42.861175537109375,11.657694727182388 42.25521683692932,12.101976573467255 41.70515239238739,12.627001106739044 41.21094048023224,13.232772052288055 40.77381789684296,13.91846090555191 40.3949499130249,14.683769643306732 40.07437229156494,15.528398752212524 39.81204628944397,16.45279824733734 39.60801064968109,17.45659112930298 39.46222960948944,18.54015439748764 39.37481343746185,19.70318704843521 39.345648884773254,20.945841073989868 26.443952322006226,20.907455682754517 26.548612117767334,18.578240275382996 26.823869347572327,16.370554268360138 27.269724011421204,14.284321665763855 27.886253595352173,12.319468706846237 28.673455119132996,10.476069152355194 29.631254076957703,8.753973245620728 30.759799480438232,7.153181731700897" stroke="white" stroke-width="0.1" /><polygon points="97.93738126754761,31.09038472175598 98.42068552970886,31.93928897380829 98.83959293365479,32.83017575740814 99.19409155845642,33.76304507255554 99.48419332504272,34.73775088787079 99.70982074737549,35.75458824634552 99.87105131149292,36.81333661079407 99.96775984764099,37.9142165184021 100.0,39.057159423828125 99.91067051887512,41.019612550735474 99.6427595615387,42.87695586681366 99.19623136520386,44.629114866256714 98.571115732193,46.27601504325867 97.76746034622192,47.81765341758728 96.78525924682617,49.25410747528076 95.62458992004395,50.585079193115234 94.28536891937256,51.81071162223816 92.79280304908752,52.91069149971008 91.17248058319092,53.86395454406738 89.42440748214722,54.67050075531006 87.54858374595642,55.33040165901184 85.54508090019226,55.84365725517273 83.41390490531921,56.21019005775452 81.1550498008728,56.43008351325989 78.76867055892944,56.503331661224365 76.47038102149963,56.42850995063782 74.30636286735535,56.20426535606384 72.2765862941742,55.83038330078125 70.38100361824036,55.30693531036377 68.61966252326965,54.633837938308716 66.99251532554626,53.811174631118774 65.49960970878601,52.83864736557007 64.14082646369934,51.716548204422 62.92906403541565,50.457173585891724 61.876314878463745,49.073052406311035 60.982537269592285,47.564324736595154 60.24777889251709,45.93069553375244 59.672075510025024,44.172313809394836 59.25542116165161,42.28925406932831 58.99789333343506,40.28121829032898 58.899420499801636,38.14850449562073 71.76693081855774,38.14850449562073 71.81483507156372,39.094194769859314 71.92073464393616,39.98193144798279 72.0846176147461,40.81164300441742 72.30649590492249,41.58324897289276 72.58629202842712,42.29690134525299 72.92404174804688,42.952677607536316 73.31962585449219,43.5505747795105 73.77316355705261,44.09044682979584 74.2827832698822,44.56936419010162 74.84683394432068,44.98448073863983 75.4652738571167,45.33579647541046 76.1380672454834,45.623236894607544 76.86532735824585,45.84687948226929 77.64701843261719,46.00671827793121 78.48325371742249,46.102455258369446 79.37383651733398,46.13446891307831 80.16805052757263,46.10425531864166 80.92316389083862,46.013763546943665 81.63925409317017,45.862847566604614 82.31632113456726,45.651575922966 82.95432925224304,45.38003206253052 83.5533857345581,45.04828155040741 84.11338925361633,44.65618133544922 84.63444113731384,44.203802943229675 85.10447144508362,43.70224177837372 85.51190495491028,43.16297173500061 85.85673570632935,42.58591830730438 86.13889217376709,41.97092652320862 86.35841012001038,41.318073868751526 86.51517629623413,40.627360343933105 86.60929799079895,39.89871442317963 86.64067387580872,39.13213014602661 86.60311698913574,38.25226426124573 86.49043440818787,37.4292254447937 86.30266785621643,36.66286766529083 86.03978157043457,35.95326244831085 85.70180535316467,35.30040979385376 85.2887511253357,34.704312682151794 84.80057716369629,34.16504263877869 84.23739075660706,33.682599663734436 83.597731590271,33.25683772563934 82.88066983222961,32.88790285587311 82.08622932434082,32.57564604282379 81.21431469917297,32.3201447725296 80.26494979858398,32.12131857872009 79.23814058303833,31.97939693927765 78.1338095664978,31.894230842590332 76.9519567489624,31.865891814231873 75.81658959388733,31.865891814231873 75.81658959388733,22.78294265270233 76.72524452209473,22.78294265270233 77.79748439788818,22.756703197956085 78.8006067276001,22.67775684595108 79.73459959030151,22.546257078647614 80.59939742088318,22.362127900123596 81.39503002166748,22.12536782026291 82.12143182754517,21.835827827453613 82.77859687805176,21.493656933307648 83.36651921272278,21.098782122135162 83.88543725013733,20.651651918888092 84.33522582054138,20.151741802692413 84.71581935882568,19.599202275276184 85.02721190452576,18.994107842445374 85.26944518089294,18.336306512355804 85.44244170188904,17.625802755355835 85.54624319076538,16.862592101097107 85.58087944984436,16.046902537345886 85.55512428283691,15.346968173980713 85.4779064655304,14.684820175170898 85.34922003746033,14.060457050800323 85.16905903816223,13.473880290985107 84.93747115135193,12.9251629114151 84.65453386306763,12.414157390594482 84.32023525238037,11.940937489271164 83.93450379371643,11.505427956581116 83.504319190979,11.115126311779022 83.036869764328,10.776855051517487 82.53220319747925,10.49053892493248 81.99026584625244,10.256327688694 81.41107559204102,10.074146836996078 80.79466223716736,9.943921118974686 80.14094829559326,9.865876287221909 79.45001125335693,9.83986109495163 78.62359881401062,9.868275374174118 77.84741520881653,9.953367710113525 77.12146639823914,10.095363855361938 76.44575238227844,10.2941133081913 75.82030296325684,10.549616068601608 75.24515390396118,10.861797630786896 74.72031712532043,11.23088225722313 74.24578666687012,11.656570434570312 73.8203227519989,12.14088648557663 73.44276905059814,12.68547922372818 73.11304211616516,13.290350139141083 72.83129692077637,13.955646753311157 72.59746193885803,14.681221544742584 72.41157293319702,15.467147529125214 72.27365970611572,16.313500702381134 72.18376994132996,17.22005605697632 59.770286083221436,17.181670665740967 59.895867109298706,15.187053382396698 60.17817258834839,13.308793306350708 60.61716675758362,11.547037214040756 61.21289134025574,9.901562333106995 61.96526288986206,8.37266817688942 62.874484062194824,6.960204988718033 63.94031643867493,5.664322525262833 65.16283750534058,4.485095664858818 66.52908325195312,3.433994948863983 68.02603602409363,2.522941306233406 69.65363025665283,1.7520841211080551 71.41201496124268,1.121348887681961 73.30110669136047,0.6307353265583515 75.32091736793518,0.28031847905367613 77.47151255607605,0.07009836263023317 79.75289225578308,0.0 81.81880712509155,0.06207640981301665 83.77830386161804,0.2484555821865797 85.63141226768494,0.5589875858277082 87.37809658050537,0.9935974143445492 89.01843428611755,1.552435103803873 90.55235385894775,2.235575392842293 91.97988510131836,3.042718768119812 93.30114722251892,3.9740897715091705 94.48974132537842,5.0089966505765915 95.51993012428284,6.12659677863121 96.39161825180054,7.327115535736084 97.10482358932495,8.610328286886215 97.6595401763916,9.976384043693542 98.05580377578735,11.425133794546127 98.29357266426086,12.95657604932785 98.37281703948975,14.570863544940948 98.34766387939453,15.448854863643646 98.27220439910889,16.30367934703827 98.14644455909729,17.135488986968994 97.97044396400452,17.944131791591644 97.744220495224,18.72968226671219 97.46772646903992,19.492067396640778 97.14103937149048,20.23143768310547 96.76423072814941,20.947639644145966 96.335768699646,21.643975377082825 95.85467576980591,22.323067486286163 95.32098770141602,22.98506498336792 94.73467469215393,23.629970848560333 94.09576654434204,24.257707595825195 93.40430498123169,24.868200719356537 92.66014099121094,25.461673736572266 91.86348915100098,26.037904620170593 92.83572435379028,26.497632265090942 93.74703764915466,27.006536722183228 94.59755420684814,27.564474940299988 95.38715481758118,28.171443939208984 96.11595273017883,28.827595710754395 96.78391218185425,29.532703757286072 97.39106893539429,30.286991596221924" stroke="white" stroke-width="0.1" /></svg>