<?xml version="1.0" encoding="utf-8" ?>
<svg baseProfile="full" height="72.03091979026794" version="1.1" width="99.99843239784241" xmlns="http://www.w3.org/2000/svg" xmlns:ev="http://www.w3.org/2001/xml-events" xmlns:xlink="http://www.w3.org/1999/xlink"><defs><clipPath /></defs><polygon points="99.77043867111206,26.307734847068787 99.77043867111206,26.307734847068787 99.90748763084412,26.59551203250885 99.90748763084412,26.59551203250885 99.98281002044678,26.895317435264587 99.98281002044678,26.895317435264587 99.99843239784241,27.198562026023865 99.99843239784241,27.198562026023865 99.95635747909546,27.49665081501007 99.95635747909546,27.49665081501007 99.85839128494263,27.780991792678833 99.85839128494263,27.780991792678833 99.70654249191284,28.04306149482727 99.70654249191284,28.04306149482727 99.50283765792847,28.27426791191101 99.50283765792847,28.27426791191101 99.2491364479065,28.465870022773743 99.2491364479065,28.465870022773743 97.23567366600037,29.688414931297302 97.23567366600037,29.688414931297302 96.94572687149048,29.831144213676453 96.94572687149048,29.831144213676453 96.63710594177246,29.91364598274231 96.63710594177246,29.91364598274231 96.31816744804382,29.9302339553833 96.31816744804382,29.9302339553833 95.99788188934326,29.875609278678894 95.99788188934326,29.875609278678894 95.68485021591187,29.744237661361694 95.68485021591187,29.744237661361694 95.38788199424744,29.530590772628784 95.38788199424744,29.530590772628784 95.11550068855286,29.229289293289185 95.11550068855286,29.229289293289185 94.87667083740234,28.83472740650177 94.87667083740234,28.83472740650177 92.35864281654358,30.370530486106873 92.35864281654358,30.370530486106873 92.9499626159668,32.351335883140564 92.9499626159668,32.351335883140564 93.37643384933472,34.34843420982361 93.37643384933472,34.34843420982361 93.64216923713684,36.35367751121521 93.64216923713684,36.35367751121521 93.75156760215759,38.35906982421875 93.75156760215759,38.35906982421875 93.7090516090393,40.356242656707764 93.7090516090393,40.356242656707764 93.51879358291626,42.337122559547424 93.51879358291626,42.337122559547424 93.18521022796631,44.29364502429962 93.18521022796631,44.29364502429962 92.71255731582642,46.21758460998535 92.71255731582642,46.21758460998535 92.42993593215942,46.028298139572144 92.42993593215942,46.028298139572144 92.15075373649597,45.85418105125427 92.15075373649597,45.85418105125427 91.87769889831543,45.694637298583984 91.87769889831543,45.694637298583984 91.6136085987091,45.549145340919495 91.6136085987091,45.549145340919495 91.361403465271,45.417025685310364 91.361403465271,45.417025685310364 91.1238431930542,45.297759771347046 91.1238431930542,45.297759771347046 90.90369939804077,45.19074857234955 90.90369939804077,45.19074857234955 90.70387482643127,45.095473527908325 90.70387482643127,45.095473527908325 90.62137603759766,45.05601525306702 90.62137603759766,45.05601525306702 88.40375542640686,44.06243562698364 88.40375542640686,44.06243562698364 86.13293170928955,43.19731295108795 86.13293170928955,43.19731295108795 83.82706046104431,42.44928956031799 83.82706046104431,42.44928956031799 81.50429725646973,41.80663228034973 81.50429725646973,41.80663228034973 79.183030128479,41.25798046588898 79.183030128479,41.25798046588898 76.88156962394714,40.79183042049408 76.88156962394714,40.79183042049408 74.61791634559631,40.396520495414734 74.61791634559631,40.396520495414734 72.41053581237793,40.06061851978302 72.41053581237793,40.06061851978302 72.42876887321472,39.98544216156006 72.42876887321472,39.98544216156006 72.44595885276794,39.91138935089111 72.44595885276794,39.91138935089111 72.46164679527283,39.838677644729614 72.46164679527283,39.838677644729614 72.4758505821228,39.76753652095795 72.4758505821228,39.76753652095795 72.48832583427429,39.69833850860596 72.48832583427429,39.69833850860596 72.49878644943237,39.6315336227417 72.49878644943237,39.6315336227417 72.50723242759705,39.567193388938904 72.50723242759705,39.567193388938904 72.51335978507996,39.505839347839355 72.51335978507996,39.505839347839355 72.51455783843994,39.50105905532837 72.51455783843994,39.50105905532837 72.53069877624512,39.0641987323761 72.53069877624512,39.0641987323761 72.5127637386322,38.623905181884766 72.5127637386322,38.623905181884766 72.4607527256012,38.18390667438507 72.4607527256012,38.18390667438507 72.3746657371521,37.74847090244293 72.3746657371521,37.74847090244293 72.25443124771118,37.32117712497711 72.25443124771118,37.32117712497711 72.10026383399963,36.90613806247711 72.10026383399963,36.90613806247711 71.91202640533447,36.50709390640259 71.91202640533447,36.50709390640259 71.68956398963928,36.128148436546326 71.68956398963928,36.128148436546326 79.71950173377991,17.841385304927826 79.71950173377991,17.841385304927826 79.94517683982849,17.09231585264206 79.94517683982849,17.09231585264206 79.93800640106201,16.468937695026398 79.93800640106201,16.468937695026398 79.74162101745605,15.993893146514893 79.74162101745605,15.993893146514893 79.39891815185547,15.689677000045776 79.39891815185547,15.689677000045776 78.953617811203,15.57900458574295 78.953617811203,15.57900458574295 78.4489095211029,15.684521198272705 78.4489095211029,15.684521198272705 77.92805433273315,16.028791666030884 77.92805433273315,16.028791666030884 77.43462920188904,16.63438379764557 77.43462920188904,16.63438379764557 66.84840321540833,33.57066810131073 66.84840321540833,33.57066810131073 66.67892336845398,33.5882306098938 66.67892336845398,33.5882306098938 66.50316119194031,33.60399603843689 66.50316119194031,33.60399603843689 66.32351875305176,33.62058699131012 66.32351875305176,33.62058699131012 66.14252924919128,33.64068865776062 66.14252924919128,33.64068865776062 65.96280932426453,33.66684317588806 65.96280932426453,33.66684317588806 65.78660011291504,33.70174169540405 65.78660011291504,33.70174169540405 65.61674475669861,33.747923374176025 65.61674475669861,33.747923374176025 65.45547842979431,33.80800485610962 65.45547842979431,33.80800485610962 65.20753502845764,33.891698718070984 65.20753502845764,33.891698718070984 64.96272683143616,33.9866042137146 64.96272683143616,33.9866042137146 64.72217440605164,34.09278988838196 64.72217440605164,34.09278988838196 64.486563205719,34.20988917350769 64.486563205719,34.20988917350769 64.25684690475464,34.33797359466553 64.25684690475464,34.33797359466553 64.03385996818542,34.47681665420532 64.03385996818542,34.47681665420532 63.818567991256714,34.62649583816528 63.818567991256714,34.62649583816528 63.611799478530884,34.786638617515564 63.611799478530884,34.786638617515564 63.45135569572449,34.908294677734375 63.45135569572449,34.908294677734375 63.29958438873291,35.036975145339966 63.29958438873291,35.036975145339966 63.15581202507019,35.17223298549652 63.15581202507019,35.17223298549652 63.019657135009766,35.31309366226196 63.019657135009766,35.31309366226196 62.89030313491821,35.459187626838684 62.89030313491821,35.459187626838684 62.76707649230957,35.60991287231445 62.76707649230957,35.60991287231445 62.649452686309814,35.76452434062958 62.649452686309814,35.76452434062958 62.5369131565094,35.922497510910034 62.5369131565094,35.922497510910034 61.9778037071228,35.50499379634857 61.9778037071228,35.50499379634857 61.4194393157959,35.09645760059357 61.4194393157959,35.09645760059357 60.86152195930481,34.69681441783905 60.86152195930481,34.69681441783905 60.30375361442566,34.30613875389099 60.30375361442566,34.30613875389099 59.74583625793457,33.92450511455536 59.74583625793457,33.92450511455536 59.187620878219604,33.551910519599915 59.187620878219604,33.551910519599915 58.62873196601868,33.188435435295105 58.62873196601868,33.188435435295105 58.06879997253418,32.83415138721466 58.06879997253418,32.83415138721466 57.057881355285645,32.215407490730286 57.057881355285645,32.215407490730286 55.96633553504944,31.581565737724304 55.96633553504944,31.581565737724304 54.798340797424316,30.950042605400085 54.798340797424316,30.950042605400085 53.55793237686157,30.33832311630249 53.55793237686157,30.33832311630249 52.24900245666504,29.763516783714294 52.24900245666504,29.763516783714294 50.8755087852478,29.243189096450806 50.8755087852478,29.243189096450806 49.441635608673096,28.79444658756256 49.441635608673096,28.79444658756256 47.951266169548035,28.434783220291138 47.951266169548035,28.434783220291138 47.34552204608917,28.319627046585083 47.34552204608917,28.319627046585083 46.727824211120605,28.218448162078857 46.727824211120605,28.218448162078857 46.0975706577301,28.130939602851868 46.0975706577301,28.130939602851868 45.45431435108185,28.056734800338745 45.45431435108185,28.056734800338745 44.79738473892212,27.99568474292755 44.79738473892212,27.99568474292755 44.12632882595062,27.94763445854187 44.12632882595062,27.94763445854187 43.440479040145874,27.912136912345886 43.440479040145874,27.912136912345886 42.73945689201355,27.88897156715393 42.73945689201355,27.88897156715393 44.10966336727142,25.30907392501831 44.10966336727142,25.30907392501831 45.74485719203949,22.903141379356384 45.74485719203949,22.903141379356384 47.624555230140686,20.691275596618652 47.624555230140686,20.691275596618652 49.727991223335266,18.69380474090576 49.727991223335266,18.69380474090576 52.034538984298706,16.930828988552094 52.034538984298706,16.930828988552094 54.523491859436035,15.422375500202179 54.523491859436035,15.422375500202179 57.174378633499146,14.188696444034576 57.174378633499146,14.188696444034576 59.96628403663635,13.250117003917694 59.96628403663635,13.250117003917694 59.81443524360657,10.305845737457275 59.81443524360657,10.305845737457275 59.3783974647522,10.323256999254227 59.3783974647522,10.323256999254227 58.98727774620056,10.26429682970047 58.98727774620056,10.26429682970047 58.644574880599976,10.138455778360367 58.644574880599976,10.138455778360367 58.35365653038025,9.95514839887619 58.35365653038025,9.95514839887619 58.1179678440094,9.723865985870361 58.1179678440094,9.723865985870361 57.94101357460022,9.453950077295303 57.94101357460022,9.453950077295303 57.82630443572998,9.155038744211197 57.82630443572998,9.155038744211197 57.77705907821655,8.836400508880615 57.77705907821655,8.836400508880615 57.65630006790161,6.483374536037445 57.65630006790161,6.483374536037445 57.671546936035156,6.166155636310577 57.671546936035156,6.166155636310577 57.74731636047363,5.867767706513405 57.74731636047363,5.867767706513405 57.87779092788696,5.5950116366147995 57.87779092788696,5.5950116366147995 58.05714130401611,5.354089662432671 58.05714130401611,5.354089662432671 58.27937722206116,5.151502788066864 58.27937722206116,5.151502788066864 58.538687229156494,4.993677884340286 58.538687229156494,4.993677884340286 58.82915258407593,4.887116327881813 58.82915258407593,4.887116327881813 59.14487838745117,4.838169738650322 59.14487838745117,4.838169738650322 67.76068210601807,4.400564357638359 67.76068210601807,4.400564357638359 68.07916760444641,4.415659233927727 68.07916760444641,4.415659233927727 68.37868094444275,4.491806775331497 68.37868094444275,4.491806775331497 68.65262985229492,4.62287925183773 68.65262985229492,4.62287925183773 68.89444589614868,4.802674055099487 68.89444589614868,4.802674055099487 69.09785866737366,5.025063827633858 69.09785866737366,5.025063827633858 69.2564308643341,5.283994972705841 69.2564308643341,5.283994972705841 69.36366558074951,5.573265999555588 69.36366558074951,5.573265999555588 69.41305994987488,5.886748805642128 69.41305994987488,5.886748805642128 69.53023076057434,8.237981051206589 69.53023076057434,8.237981051206589 69.51453685760498,8.559608459472656 69.51453685760498,8.559608459472656 69.4354772567749,8.868533372879028 69.4354772567749,8.868533372879028 69.29349303245544,9.155038744211197 69.29349303245544,9.155038744211197 69.08888816833496,9.409038722515106 69.08888816833496,9.409038722515106 68.82210969924927,9.620741754770279 68.82210969924927,9.620741754770279 68.49368214607239,9.780435264110565 68.49368214607239,9.780435264110565 68.1039035320282,9.877954423427582 68.1039035320282,9.877954423427582 67.65307188034058,9.90351140499115 67.65307188034058,9.90351140499115 67.77383089065552,12.29420006275177 67.77383089065552,12.29420006275177 68.12191605567932,12.304811179637909 68.12191605567932,12.304811179637909 68.47014427185059,12.320055812597275 68.47014427185059,12.320055812597275 68.81844997406006,12.340157479047775 68.81844997406006,12.340157479047775 69.16690468788147,12.364817410707474 69.16690468788147,12.364817410707474 69.51543688774109,12.394260615110397 69.51543688774109,12.394260615110397 69.86396312713623,12.428411096334457 69.86396312713623,12.428411096334457 70.21242380142212,12.467493116855621 70.21242380142212,12.467493116855621 70.56087851524353,12.511208653450012 70.56087851524353,12.511208653450012 70.65578103065491,9.316301345825195 70.65578103065491,9.316301345825195 71.60212993621826,6.43741711974144 71.60212993621826,6.43741711974144 73.25450778007507,3.9723746478557587 73.25450778007507,3.9723746478557587 75.46749711036682,2.019067481160164 75.46749711036682,2.019067481160164 78.09551954269409,0.6750899832695723 78.09551954269409,0.6750899832695723 80.99308609962463,0.03833530645351857 80.99308609962463,0.03833530645351857 84.01492238044739,0.2066220622509718 84.01492238044739,0.2066220622509718 87.01531887054443,1.277544628828764 87.01531887054443,1.277544628828764 89.594167470932,3.1551524996757507 89.594167470932,3.1551524996757507 91.435307264328,5.5568259209394455 91.435307264328,5.5568259209394455 92.53918528556824,8.308075368404388 92.53918528556824,8.308075368404388 92.90565252304077,11.23463585972786 92.90565252304077,11.23463585972786 92.53470301628113,14.161793887615204 92.53470301628113,14.161793887615204 91.42656922340393,16.91528558731079 91.42656922340393,16.91528558731079 89.5811676979065,19.320471584796906 89.5811676979065,19.320471584796906 86.99857592582703,21.2029367685318 86.99857592582703,21.2029367685318 87.23083138465881,21.464334428310394 87.23083138465881,21.464334428310394 87.45890259742737,21.72916829586029 87.45890259742737,21.72916829586029 87.68278360366821,21.99714183807373 87.68278360366821,21.99714183807373 87.90278434753418,22.268255054950714 87.90278434753418,22.268255054950714 88.11904191970825,22.542130947113037 88.11904191970825,22.542130947113037 88.33186626434326,22.818623483181 88.33186626434326,22.818623483181 88.54140639305115,23.097433149814606 88.54140639305115,23.097433149814606 88.74780535697937,23.378409445285797 88.74780535697937,23.378409445285797 90.78876376152039,22.13195115327835 90.78876376152039,22.13195115327835 90.61875939369202,21.83677703142166 90.61875939369202,21.83677703142166 90.48581719398499,21.523219347000122 90.48581719398499,21.523219347000122 90.40152430534363,21.198303997516632 90.40152430534363,21.198303997516632 90.37731289863586,20.868828892707825 90.37731289863586,20.868828892707825 90.42484164237976,20.54159641265869 90.42484164237976,20.54159641265869 90.55554270744324,20.223554968833923 90.55554270744324,20.223554968833923 90.78099131584167,19.921430945396423 90.78099131584167,19.921430945396423 91.11278653144836,19.642023742198944 91.11278653144836,19.642023742198944 93.12146306037903,18.415294587612152 93.12146306037903,18.415294587612152 93.40707659721375,18.279215693473816 93.40707659721375,18.279215693473816 93.70561242103577,18.20456236600876 93.70561242103577,18.20456236600876 94.00833249092102,18.18946748971939 94.00833249092102,18.18946748971939 94.3063497543335,18.232062458992004 94.3063497543335,18.232062458992004 94.59090828895569,18.330255150794983 94.59090828895569,18.330255150794983 94.85335350036621,18.482325971126556 94.85335350036621,18.482325971126556 95.08455991744995,18.686331808567047 95.08455991744995,18.686331808567047 95.27601599693298,18.94018203020096 95.27601599693298,18.94018203020096" stroke="white" stroke-width="0.1" /><polygon points="84.0620756149292,18.380023539066315 84.0620756149292,18.380023539066315 84.72349047660828,18.131554126739502 84.72349047660828,18.131554126739502 85.36024689674377,17.821434140205383 85.36024689674377,17.821434140205383 85.96755862236023,17.4511581659317 85.96755862236023,17.4511581659317 86.54034733772278,17.021997272968292 86.54034733772278,17.021997272968292 87.07382678985596,16.53544455766678 87.07382678985596,16.53544455766678 87.56299614906311,15.992847084999084 87.56299614906311,15.992847084999084 88.0031406879425,15.395697951316833 88.0031406879425,15.395697951316833 88.38911056518555,14.74526822566986 88.38911056518555,14.74526822566986 88.795405626297,13.762374222278595 88.795405626297,13.762374222278595 89.08033967018127,12.560679018497467 89.08033967018127,12.560679018497467 89.19063806533813,11.208854615688324 89.19063806533813,11.208854615688324 89.07287120819092,9.775801748037338 89.07287120819092,9.775801748037338 88.6739730834961,8.330194652080536 88.6739730834961,8.330194652080536 87.94066905975342,6.940558552742004 87.94066905975342,6.940558552742004 86.81967854499817,5.676016584038734 86.81967854499817,5.676016584038734 85.25772094726562,4.605019465088844 85.25772094726562,4.605019465088844 83.2994818687439,3.8651403039693832 83.2994818687439,3.8651403039693832 81.49682283401489,3.7052232772111893 81.49682283401489,3.7052232772111893 79.87135052680969,3.9971094578504562 79.87135052680969,3.9971094578504562 78.44449877738953,4.612566903233528 78.44449877738953,4.612566903233528 77.237868309021,5.423735827207565 77.237868309021,5.423735827207565 76.27291083335876,6.302458792924881 76.27291083335876,6.302458792924881 75.5713701248169,7.120577245950699 75.5713701248169,7.120577245950699 75.15453696250916,7.750158756971359 75.15453696250916,7.750158756971359 74.84882473945618,8.381906151771545 74.84882473945618,8.381906151771545 74.60200190544128,9.041004627943039 74.60200190544128,9.041004627943039 74.41749572753906,9.723716974258423 74.41749572753906,9.723716974258423 74.29860830307007,10.425932705402374 74.29860830307007,10.425932705402374 74.24883842468262,11.143841594457626 74.24883842468262,11.143841594457626 74.27170276641846,11.873557418584824 74.27170276641846,11.873557418584824 74.37034249305725,12.610970437526703 74.37034249305725,12.610970437526703 74.54834580421448,13.352343440055847 74.54834580421448,13.352343440055847 75.11507868766785,13.535875082015991 75.11507868766785,13.535875082015991 75.24861693382263,13.411079347133636 75.24861693382263,13.411079347133636 75.62763690948486,13.096028566360474 75.62763690948486,13.096028566360474 76.2194037437439,12.6803919672966 76.2194037437439,12.6803919672966 76.99149250984192,12.253473699092865 76.99149250984192,12.253473699092865 77.91123986244202,11.904644221067429 77.91123986244202,11.904644221067429 78.94614338874817,11.72328069806099 78.94614338874817,11.72328069806099 80.063396692276,11.798755079507828 80.063396692276,11.798755079507828 81.23079538345337,12.22066804766655 81.23079538345337,12.22066804766655 82.23692774772644,12.947767972946167 82.23692774772644,12.947767972946167 82.92860984802246,13.82843405008316 82.92860984802246,13.82843405008316 83.36150646209717,14.785471558570862 83.36150646209717,14.785471558570862 83.59099626541138,15.741688013076782 83.59099626541138,15.741688013076782 83.67274403572083,16.619811952114105 83.67274403572083,16.619811952114105 83.66236090660095,17.34265387058258 83.66236090660095,17.34265387058258 83.61542820930481,17.832942306995392 83.61542820930481,17.832942306995392 83.5874080657959,18.01355928182602 83.5874080657959,18.01355928182602" stroke="white" stroke-width="0.1" /><polygon points="89.53334093093872,56.73864483833313 89.53334093093872,56.73864483833313 89.61434364318848,56.83578848838806 89.61434364318848,56.83578848838806 89.85115885734558,56.935179233551025 89.85115885734558,56.935179233551025 90.19513130187988,57.036060094833374 90.19513130187988,57.036060094833374 90.59790968894958,57.13798999786377 90.59790968894958,57.13798999786377 91.01093411445618,57.24036693572998 91.01093411445618,57.24036693572998 91.38569235801697,57.34259486198425 91.38569235801697,57.34259486198425 91.67376756668091,57.44414925575256 91.67376756668091,57.44414925575256 91.82658195495605,57.54450559616089 91.82658195495605,57.54450559616089 91.91072583198547,57.78005123138428 91.91072583198547,57.78005123138428 91.93195104598999,58.11363458633423 91.93195104598999,58.11363458633423 91.90504550933838,58.51290225982666 91.90504550933838,58.51290225982666 91.84466600418091,58.94550085067749 91.84466600418091,58.94550085067749 91.76575541496277,59.37907099723816 91.76575541496277,59.37907099723816 91.68317914009094,59.781330823898315 91.68317914009094,59.781330823898315 91.61166548728943,60.11999845504761 91.61166548728943,60.11999845504761 91.56593084335327,60.36263704299927 91.56593084335327,60.36263704299927 91.46983623504639,61.03698015213013 91.46983623504639,61.03698015213013 91.36955142021179,61.73449158668518 91.36955142021179,61.73449158668518 91.25118255615234,62.441712617874146 91.25118255615234,62.441712617874146 91.10127687454224,63.145047426223755 91.10127687454224,63.145047426223755 90.90579152107239,63.83097767829895 90.90579152107239,63.83097767829895 90.65074324607849,64.48596119880676 90.65074324607849,64.48596119880676 90.3226912021637,65.09626507759094 90.3226912021637,65.09626507759094 89.90757465362549,65.64857363700867 89.90757465362549,65.64857363700867 89.33404088020325,66.18908047676086 89.33404088020325,66.18908047676086 88.71111273765564,66.60105586051941 88.71111273765564,66.60105586051941 88.04670572280884,66.9047474861145 88.04670572280884,66.9047474861145 87.34890222549438,67.12071299552917 87.34890222549438,67.12071299552917 86.62583827972412,67.26889610290527 86.62583827972412,67.26889610290527 85.8854353427887,67.37000346183777 85.8854353427887,67.37000346183777 85.13569235801697,67.44398474693298 85.13569235801697,67.44398474693298 84.38490033149719,67.511385679245 84.38490033149719,67.511385679245 84.69711542129517,66.46639704704285 84.69711542129517,66.46639704704285 84.91412401199341,65.42035937309265 84.91412401199341,65.42035937309265 85.03944277763367,64.37715888023376 85.03944277763367,64.37715888023376 85.07643342018127,63.34083676338196 85.07643342018127,63.34083676338196 85.02867817878723,62.31512427330017 85.02867817878723,62.31512427330017 84.89955067634583,61.304134130477905 84.89955067634583,61.304134130477905 84.69262719154358,60.31167507171631 84.69262719154358,60.31167507171631 84.41120386123657,59.341561794281006 84.41120386123657,59.341561794281006 83.63224267959595,57.47844576835632 83.63224267959595,57.47844576835632 82.5864315032959,55.756574869155884 82.5864315032959,55.756574869155884 81.29820227622986,54.20888662338257 81.29820227622986,54.20888662338257 79.79183793067932,52.868348360061646 79.79183793067932,52.868348360061646 78.0914843082428,51.76820755004883 78.0914843082428,51.76820755004883 76.22150182723999,50.94141960144043 76.22150182723999,50.94141960144043 74.20631647109985,50.4210889339447 74.20631647109985,50.4210889339447 72.06977605819702,50.240325927734375 72.06977605819702,50.240325927734375 72.01111912727356,50.24047493934631 72.01111912727356,50.24047493934631 71.95267677307129,50.24092197418213 71.95267677307129,50.24092197418213 71.8943178653717,50.24151802062988 71.8943178653717,50.24151802062988 71.83603048324585,50.24248957633972 71.83603048324585,50.24248957633972 71.77774310112,50.24375915527344 71.77774310112,50.24375915527344 71.71937823295593,50.24503469467163 71.71937823295593,50.24503469467163 71.66094183921814,50.24682283401489 71.66094183921814,50.24682283401489 71.6022789478302,50.24869441986084 71.6022789478302,50.24869441986084 68.86425614356995,50.648337602615356 68.86425614356995,50.648337602615356 66.36805534362793,51.59229636192322 66.36805534362793,51.59229636192322 64.16156888008118,53.00629734992981 64.16156888008118,53.00629734992981 62.292855978012085,54.816049337387085 62.292855978012085,54.816049337387085 60.80965995788574,56.94713592529297 60.80965995788574,56.94713592529297 59.75980758666992,59.325265884399414 59.75980758666992,59.325265884399414 59.19135808944702,61.876100301742554 59.19135808944702,61.876100301742554 59.15204882621765,64.52527046203613 59.15204882621765,64.52527046203613 59.20196771621704,64.98932838439941 59.20196771621704,64.98932838439941 59.26787853240967,65.45361280441284 59.26787853240967,65.45361280441284 59.35060381889343,65.91774821281433 59.35060381889343,65.91774821281433 59.45096015930176,66.3813591003418 59.45096015930176,66.3813591003418 59.56962704658508,66.84414744377136 59.56962704658508,66.84414744377136 59.70757603645325,67.30573773384094 59.70757603645325,67.30573773384094 59.865403175354004,67.76583790779114 59.865403175354004,67.76583790779114 60.044002532958984,68.22398900985718 60.044002532958984,68.22398900985718 57.79738426208496,68.0551826953888 57.79738426208496,68.0551826953888 55.55346608161926,67.90460348129272 55.55346608161926,67.90460348129272 53.311485052108765,67.77353286743164 53.311485052108765,67.77353286743164 51.07084512710571,67.66353249549866 51.07084512710571,67.66353249549866 48.83095920085907,67.57565140724182 48.83095920085907,67.57565140724182 46.591147780418396,67.51123666763306 46.591147780418396,67.51123666763306 44.35088634490967,67.47170686721802 44.35088634490967,67.47170686721802 42.109352350234985,67.45818257331848 42.109352350234985,67.45818257331848 41.02722108364105,67.46139526367188 41.02722108364105,67.46139526367188 39.944568276405334,67.471182346344 39.944568276405334,67.471182346344 38.861313462257385,67.48762726783752 38.861313462257385,67.48762726783752 37.77738809585571,67.51086711883545 37.77738809585571,67.51086711883545 36.69279217720032,67.54112839698792 36.69279217720032,67.54112839698792 35.60729622840881,67.57849454879761 35.60729622840881,67.57849454879761 34.52098071575165,67.62318015098572 34.52098071575165,67.62318015098572 33.43376815319061,67.67519116401672 33.43376815319061,67.67519116401672 34.116777777671814,64.72569108009338 34.116777777671814,64.72569108009338 34.090325236320496,61.79658770561218 34.090325236320496,61.79658770561218 33.41807425022125,58.98899435997009 33.41807425022125,58.98899435997009 32.16369450092316,56.40416145324707 32.16369450092316,56.40416145324707 30.39085566997528,54.14320230484009 30.39085566997528,54.14320230484009 28.163298964500427,52.307140827178955 28.163298964500427,52.307140827178955 25.5447655916214,50.99716782569885 25.5447655916214,50.99716782569885 22.59884923696518,50.31445622444153 22.59884923696518,50.31445622444153 22.42540717124939,50.29681921005249 22.42540717124939,50.29681921005249 22.25211262702942,50.281500816345215 22.25211262702942,50.281500816345215 22.079119086265564,50.26857256889343 22.079119086265564,50.26857256889343 21.906423568725586,50.25796294212341 21.906423568725586,50.25796294212341 21.734100580215454,50.24973750114441 21.734100580215454,50.24973750114441 21.562302112579346,50.243836641311646 21.562302112579346,50.243836641311646 21.390950679779053,50.24024844169617 21.390950679779053,50.24024844169617 21.22027277946472,50.23912787437439 21.22027277946472,50.23912787437439 18.474404513835907,50.540876388549805 18.474404513835907,50.540876388549805 15.914158523082733,51.401740312576294 15.914158523082733,51.401740312576294 13.607016205787659,52.754759788513184 13.607016205787659,52.754759788513184 11.620305478572845,54.533207416534424 11.620305478572845,54.533207416534424 10.02165600657463,56.67011737823486 10.02165600657463,56.67011737823486 8.878546208143234,59.09891724586487 8.878546208143234,59.09891724586487 8.258231729269028,61.752426624298096 8.258231729269028,61.752426624298096 8.228415995836258,64.56412672996521 8.228415995836258,64.56412672996521 7.604588568210602,64.24257755279541 7.604588568210602,64.24257755279541 6.980238854885101,63.921767473220825 6.980238854885101,63.921767473220825 6.354843080043793,63.60253095626831 6.354843080043793,63.60253095626831 5.7280272245407104,63.28613758087158 5.7280272245407104,63.28613758087158 5.09926825761795,62.97354698181152 5.09926825761795,62.97354698181152 4.468192905187607,62.66604661941528 4.468192905187607,62.66604661941528 3.8343526422977448,62.36444115638733 3.8343526422977448,62.36444115638733 3.197149559855461,62.07001805305481 3.197149559855461,62.07001805305481 2.939413860440254,61.9651734828949 2.939413860440254,61.9651734828949 2.6634443551301956,61.86773180961609 2.6634443551301956,61.86773180961609 2.379254996776581,61.76968812942505 2.379254996776581,61.76968812942505 2.097008563578129,61.663198471069336 2.097008563578129,61.663198471069336 1.8268678337335587,61.54019832611084 1.8268678337335587,61.54019832611084 1.5787718817591667,61.392760276794434 1.5787718817591667,61.392760276794434 1.363107841461897,61.21296286582947 1.363107841461897,61.21296286582947 1.1896648444235325,60.99274158477783 1.1896648444235325,60.99274158477783 0.818268209695816,60.2613091468811 0.818268209695816,60.2613091468811 0.5419252440333366,59.46044921875 0.5419252440333366,59.46044921875 0.3450924763455987,58.609598875045776 0.3450924763455987,58.609598875045776 0.21192773710936308,57.72789120674133 0.21192773710936308,57.72789120674133 0.1268876250833273,56.834447383880615 0.1268876250833273,56.834447383880615 0.07420459878630936,55.94840049743652 0.07420459878630936,55.94840049743652 0.03841003344859928,55.089181661605835 0.03841003344859928,55.089181661605835 0.003586929233279079,54.275619983673096 0.003586929233279079,54.275619983673096 0.03676602500490844,53.68960499763489 0.03676602500490844,53.68960499763489 0.18046738114207983,53.213661909103394 0.18046738114207983,53.213661909103394 0.4077889956533909,52.81813144683838 0.4077889956533909,52.81813144683838 0.6921278778463602,52.47333645820618 0.6921278778463602,52.47333645820618 1.0066566988825798,52.149391174316406 1.0066566988825798,52.149391174316406 1.3246230781078339,51.816630363464355 1.3246230781078339,51.816630363464355 1.6194237396121025,51.44530534744263 1.6194237396121025,51.44530534744263 1.8640074878931046,51.00553631782532 1.8640074878931046,51.00553631782532 2.00584065169096,50.60933232307434 2.00584065169096,50.60933232307434 2.1100858226418495,50.189208984375 2.1100858226418495,50.189208984375 2.184738777577877,49.75235164165497 2.184738777577877,49.75235164165497 2.237646095454693,49.30562973022461 2.237646095454693,49.30562973022461 2.2766537964344025,48.85614216327667 2.2766537964344025,48.85614216327667 2.309534139931202,48.41084182262421 2.309534139931202,48.41084182262421 2.3443572223186493,47.97682166099548 2.3443572223186493,47.97682166099548 2.3888949304819107,47.56088852882385 2.3888949304819107,47.56088852882385 2.4728888645768166,46.84798717498779 2.4728888645768166,46.84798717498779 2.5794504210352898,46.0070013999939 2.5794504210352898,46.0070013999939 2.7315961197018623,45.104289054870605 2.7315961197018623,45.104289054870605 2.952042780816555,44.20636296272278 2.952042780816555,44.20636296272278 3.2637320458889008,43.37935149669647 3.2637320458889008,43.37935149669647 3.6896049976348877,42.68976449966431 3.6896049976348877,42.68976449966431 4.252379387617111,42.203885316848755 4.252379387617111,42.203885316848755 4.975070804357529,41.98799431324005 4.975070804357529,41.98799431324005 6.087616831064224,41.92529916763306 6.087616831064224,41.92529916763306 7.195380330085754,41.88225567340851 7.195380330085754,41.88225567340851 8.295072615146637,41.83405637741089 8.295072615146637,41.83405637741089 9.38325747847557,41.75603985786438 9.38325747847557,41.75603985786438 10.456570982933044,41.62362217903137 10.456570982933044,41.62362217903137 11.511725932359695,41.41199588775635 11.511725932359695,41.41199588775635 12.545284628868103,41.09649360179901 12.545284628868103,41.09649360179901 13.553810119628906,40.65246284008026 13.553810119628906,40.65246284008026 14.725390076637268,40.038350224494934 14.725390076637268,40.038350224494934 15.898166596889496,39.417362213134766 15.898166596889496,39.417362213134766 17.074529826641083,38.79712224006653 17.074529826641083,38.79712224006653 18.256273865699768,38.18570077419281 18.256273865699768,38.18570077419281 19.445639848709106,37.590792775154114 19.445639848709106,37.590792775154114 20.644870400428772,37.02009916305542 20.644870400428772,37.02009916305542 21.855832636356354,36.48176193237305 21.855832636356354,36.48176193237305 23.080694675445557,35.9834760427475 23.080694675445557,35.9834760427475 24.513597786426544,35.46337187290192 24.513597786426544,35.46337187290192 25.966081023216248,34.99886393547058 25.966081023216248,34.99886393547058 27.435225248336792,34.58726406097412 27.435225248336792,34.58726406097412 28.918421268463135,34.22588109970093 28.918421268463135,34.22588109970093 30.41282594203949,33.91209840774536 30.41282594203949,33.91209840774536 31.91567361354828,33.643004298210144 31.91567361354828,33.643004298210144 33.42412710189819,33.416131138801575 33.42412710189819,33.416131138801575 34.935495257377625,33.228713274002075 34.935495257377625,33.228713274002075 35.67589819431305,33.14830660820007 35.67589819431305,33.14830660820007 36.42556667327881,33.07223618030548 36.42556667327881,33.07223618030548 37.18300461769104,33.00154209136963 37.18300461769104,33.00154209136963 37.947019934654236,32.93817341327667 37.947019934654236,32.93817341327667 38.715967535972595,32.88302421569824 38.715967535972595,32.88302421569824 39.48865234851837,32.83773958683014 39.48865234851837,32.83773958683014 40.26350378990173,32.80373811721802 40.26350378990173,32.80373811721802 41.039252281188965,32.782143354415894 41.039252281188965,32.782143354415894 41.13161563873291,32.78004825115204 41.13161563873291,32.78004825115204 41.223978996276855,32.777583599090576 41.223978996276855,32.777583599090576 41.3163423538208,32.77489244937897 41.3163423538208,32.77489244937897 41.408705711364746,32.772278785705566 41.408705711364746,32.772278785705566 41.50106906890869,32.769885659217834 41.50106906890869,32.769885659217834 41.593506932258606,32.76786804199219 41.593506932258606,32.76786804199219 41.68572127819061,32.7665239572525 41.68572127819061,32.7665239572525 41.77815914154053,32.76599943637848 41.77815914154053,32.76599943637848 42.441368103027344,32.77212977409363 42.441368103027344,32.77212977409363 43.10218691825867,32.79118537902832 43.10218691825867,32.79118537902832 43.759939074516296,32.824137806892395 43.759939074516296,32.824137806892395 44.41380500793457,32.872188091278076 44.41380500793457,32.872188091278076 45.06281614303589,32.936081290245056 45.06281614303589,32.936081290245056 45.70629596710205,33.016860485076904 45.70629596710205,33.016860485076904 46.343499422073364,33.115801215171814 46.343499422073364,33.115801215171814 46.973228454589844,33.2334965467453 46.973228454589844,33.2334965467453 48.105353116989136,33.50602984428406 48.105353116989136,33.50602984428406 49.218347668647766,33.85239243507385 49.218347668647766,33.85239243507385 50.31191110610962,34.263694286346436 50.31191110610962,34.263694286346436 51.38559937477112,34.731340408325195 51.38559937477112,34.731340408325195 52.43903994560242,35.246363282203674 52.43903994560242,35.246363282203674 53.47185134887695,35.79994440078735 53.47185134887695,35.79994440078735 54.48373556137085,36.38334274291992 54.48373556137085,36.38334274291992 55.47425150871277,36.98781728744507 55.47425150871277,36.98781728744507 56.41828775405884,37.591391801834106 56.41828775405884,37.591391801834106 57.349467277526855,38.215067982673645 57.349467277526855,38.215067982673645 58.268094062805176,38.85750472545624 58.268094062805176,38.85750472545624 59.174466133117676,39.51764702796936 59.174466133117676,39.51764702796936 60.0688099861145,40.194156765937805 60.0688099861145,40.194156765937805 60.95149517059326,40.885910391807556 60.95149517059326,40.885910391807556 61.822593212127686,41.591641306877136 61.822593212127686,41.591641306877136 62.68278360366821,42.31022298336029 62.68278360366821,42.31022298336029 62.71656155586243,42.33861863613129 62.71656155586243,42.33861863613129 62.75041103363037,42.366716265678406 62.75041103363037,42.366716265678406 62.78441548347473,42.394664883613586 62.78441548347473,42.394664883613586 62.81849145889282,42.422688007354736 62.81849145889282,42.422688007354736 62.852489948272705,42.45070815086365 62.852489948272705,42.45070815086365 62.886565923690796,42.47880578041077 62.886565923690796,42.47880578041077 62.92049288749695,42.506980895996094 62.92049288749695,42.506980895996094 62.954193353652954,42.535600066185 62.954193353652954,42.535600066185 63.36333155632019,42.89279878139496 63.36333155632019,42.89279878139496 63.71103525161743,43.19918155670166 63.71103525161743,43.19918155670166 64.02280330657959,43.4586375951767 64.02280330657959,43.4586375951767 64.32425379753113,43.67460012435913 64.32425379753113,43.67460012435913 64.640873670578,43.851032853126526 64.640873670578,43.851032853126526 64.9982213973999,43.99152100086212 64.9982213973999,43.99152100086212 65.42185544967651,44.099801778793335 65.42185544967651,44.099801778793335 65.93732237815857,44.179609417915344 65.93732237815857,44.179609417915344 66.17488265037537,44.207409024238586 66.17488265037537,44.207409024238586 66.41311645507812,44.235581159591675 66.41311645507812,44.235581159591675 66.6517972946167,44.26405131816864 66.6517972946167,44.26405131816864 66.89099669456482,44.29274797439575 66.89099669456482,44.29274797439575 67.13042855262756,44.32166814804077 67.13042855262756,44.32166814804077 67.37000346183777,44.35058534145355 67.37000346183777,44.35058534145355 67.60957837104797,44.37965452671051 67.60957837104797,44.37965452671051 67.84915924072266,44.40857470035553 67.84915924072266,44.40857470035553 70.48301100730896,44.74193453788757 70.48301100730896,44.74193453788757 73.13135862350464,45.12147605419159 73.13135862350464,45.12147605419159 75.77911019325256,45.566704869270325 75.77911019325256,45.566704869270325 78.41116786003113,46.09712064266205 78.41116786003113,46.09712064266205 81.01236820220947,46.732306480407715 81.01236820220947,46.732306480407715 83.56760740280151,47.491541504859924 83.56760740280151,47.491541504859924 86.06186509132385,48.39454889297485 86.06186509132385,48.39454889297485 88.47997784614563,49.46076571941376 88.47997784614563,49.46076571941376 88.72732520103455,49.57868456840515 88.72732520103455,49.57868456840515 89.09199833869934,49.758180975914 89.09199833869934,49.758180975914 89.51241970062256,49.983859062194824 89.51241970062256,49.983859062194824 89.92685675621033,50.24077296257019 89.92685675621033,50.24077296257019 90.2735948562622,50.51345229148865 90.2735948562622,50.51345229148865 90.49105048179626,50.786805152893066 90.49105048179626,50.786805152893066 90.51750302314758,51.04566216468811 90.51750302314758,51.04566216468811 90.29138088226318,51.274555921554565 90.29138088226318,51.274555921554565 90.23690223693848,51.33104920387268 90.23690223693848,51.33104920387268 90.18959999084473,51.43073797225952 90.18959999084473,51.43073797225952 90.14894962310791,51.56696438789368 90.14894962310791,51.56696438789368 90.11442065238953,51.73301100730896 90.11442065238953,51.73301100730896 90.0851309299469,51.92199349403381 90.0851309299469,51.92199349403381 90.06069302558899,52.12705135345459 90.06069302558899,52.12705135345459 90.04036784172058,52.34166979789734 90.04036784172058,52.34166979789734 90.02355337142944,52.55867838859558 90.02355337142944,52.55867838859558 90.01264572143555,52.720463275909424 90.01264572143555,52.720463275909424 90.0030791759491,52.87686586380005 90.0030791759491,52.87686586380005 89.9945616722107,53.02497744560242 89.9945616722107,53.02497744560242 89.98693823814392,53.161805868148804 89.98693823814392,53.161805868148804 89.9799108505249,53.284430503845215 89.9799108505249,53.284430503845215 89.97326493263245,53.38972210884094 89.97326493263245,53.38972210884094 89.96676206588745,53.47476005554199 89.96676206588745,53.47476005554199 89.96018767356873,53.53671312332153 89.96018767356873,53.53671312332153 89.9068295955658,53.93702983856201 89.9068295955658,53.93702983856201 89.85332250595093,54.33734655380249 89.85332250595093,54.33734655380249 89.79982137680054,54.73758578300476 89.79982137680054,54.73758578300476 89.74631428718567,55.13767600059509 89.74631428718567,55.13767600059509 89.69288468360901,55.53784370422363 89.69288468360901,55.53784370422363 89.63952660560608,55.93808889389038 89.63952660560608,55.93808889389038 89.5863950252533,56.33832812309265 89.5863950252533,56.33832812309265" stroke="white" stroke-width="0.1" /><polygon points="27.375444769859314,42.689839005470276 27.375444769859314,42.689839005470276 27.992171049118042,42.67444312572479 27.992171049118042,42.67444312572479 28.58961820602417,42.61735379695892 28.58961820602417,42.61735379695892 29.144099354743958,42.5021231174469 29.144099354743958,42.5021231174469 29.63177263736725,42.31224060058594 29.63177263736725,42.31224060058594 30.028650164604187,42.031338810920715 30.028650164604187,42.031338810920715 30.310970544815063,41.64282977581024 30.310970544815063,41.64282977581024 30.45482337474823,41.13064408302307 30.45482337474823,41.13064408302307 30.436289310455322,40.477898716926575 30.436289310455322,40.477898716926575 30.355435609817505,40.01570641994476 30.355435609817505,40.01570641994476 30.250966548919678,39.55247104167938 30.250966548919678,39.55247104167938 30.12475073337555,39.09050524234772 30.12475073337555,39.09050524234772 29.97850775718689,38.63227367401123 29.97850775718689,38.63227367401123 29.8138827085495,38.18009793758392 29.8138827085495,38.18009793758392 29.632744193077087,37.736138701438904 29.632744193077087,37.736138701438904 29.436656832695007,37.30279505252838 29.436656832695007,37.30279505252838 29.227495193481445,36.88260018825531 29.227495193481445,36.88260018825531 29.177576303482056,36.80742383003235 29.177576303482056,36.80742383003235 29.114806652069092,36.7451012134552 29.114806652069092,36.7451012134552 29.040300846099854,36.694735288619995 29.040300846099854,36.694735288619995 28.955337405204773,36.65550351142883 28.955337405204773,36.65550351142883 28.86110544204712,36.626508831977844 28.86110544204712,36.626508831977844 28.758877515792847,36.60677969455719 28.758877515792847,36.60677969455719 28.649774193763733,36.59557104110718 28.649774193763733,36.59557104110718 28.53521704673767,36.59205734729767 28.53521704673767,36.59205734729767 28.33988070487976,36.60042881965637 28.33988070487976,36.60042881965637 28.13848853111267,36.62314414978027 28.13848853111267,36.62314414978027 27.936574816703796,36.656323075294495 27.936574816703796,36.656323075294495 27.739515900611877,36.69622838497162 27.739515900611877,36.69622838497162 27.55284607410431,36.73897385597229 27.55284607410431,36.73897385597229 27.381795644760132,36.78119480609894 27.381795644760132,36.78119480609894 27.231892943382263,36.8187814950943 27.231892943382263,36.8187814950943 27.10881531238556,36.84792518615723 27.10881531238556,36.84792518615723 26.25153958797455,37.049391865730286 26.25153958797455,37.049391865730286 25.284263491630554,37.311238050460815 25.284263491630554,37.311238050460815 24.263034760951996,37.641534209251404 24.263034760951996,37.641534209251404 23.2433021068573,38.04835081100464 23.2433021068573,38.04835081100464 22.28095829486847,38.53961229324341 22.28095829486847,38.53961229324341 21.431827545166016,39.12353515625 21.431827545166016,39.12353515625 20.751580595970154,39.807963371276855 20.751580595970154,39.807963371276855 20.296041667461395,40.60105085372925 20.296041667461395,40.60105085372925 20.2614426612854,41.281670331954956 20.2614426612854,41.281670331954956 20.6694558262825,41.791388392448425 20.6694558262825,41.791388392448425 21.39991819858551,42.15501248836517 21.39991819858551,42.15501248836517 22.332818806171417,42.39735305309296 22.332818806171417,42.39735305309296 23.347994685173035,42.54329800605774 23.347994685173035,42.54329800605774 24.325208365917206,42.61750280857086 24.325208365917206,42.61750280857086 25.144672393798828,42.64492690563202 25.144672393798828,42.64492690563202 25.685998797416687,42.65038073062897 25.685998797416687,42.65038073062897 25.874537229537964,42.653071880340576 25.874537229537964,42.653071880340576 26.07189416885376,42.65800416469574 26.07189416885376,42.65800416469574 26.27679705619812,42.66442954540253 26.27679705619812,42.66442954540253 26.488128304481506,42.67145395278931 26.488128304481506,42.67145395278931 26.70483887195587,42.67832934856415 26.70483887195587,42.67832934856415 26.9256591796875,42.68415868282318 26.9256591796875,42.68415868282318 27.149617671966553,42.688268423080444 27.149617671966553,42.688268423080444" stroke="white" stroke-width="0.1" /><polygon points="53.73937487602234,41.36267304420471 53.73937487602234,41.36267304420471 54.01847958564758,41.34197533130646 54.01847958564758,41.34197533130646 54.22345995903015,41.28316342830658 54.22345995903015,41.28316342830658 54.36050891876221,41.19094908237457 54.36050891876221,41.19094908237457 54.43568825721741,41.07063710689545 54.43568825721741,41.07063710689545 54.45556640625,40.92678725719452 54.45556640625,40.92678725719452 54.42619323730469,40.76447784900665 54.42619323730469,40.76447784900665 54.35400605201721,40.58842062950134 54.35400605201721,40.58842062950134 54.24513220787048,40.40376842021942 54.24513220787048,40.40376842021942 53.676003217697144,39.67337906360626 53.676003217697144,39.67337906360626 53.01346778869629,39.02870416641235 53.01346778869629,39.02870416641235 52.27530598640442,38.46002519130707 52.27530598640442,38.46002519130707 51.47916078567505,37.95733451843262 51.47916078567505,37.95733451843262 50.64273476600647,37.510836124420166 50.64273476600647,37.510836124420166 49.78358745574951,37.110742926597595 49.78358745574951,37.110742926597595 48.91958832740784,36.747193336486816 48.91958832740784,36.747193336486816 48.068439960479736,36.410319805145264 48.068439960479736,36.410319805145264 47.28237688541412,36.13278269767761 47.28237688541412,36.13278269767761 46.487125754356384,35.90531051158905 46.487125754356384,35.90531051158905 45.68365514278412,35.72394549846649 45.68365514278412,35.72394549846649 44.873231649398804,35.58472990989685 44.873231649398804,35.58472990989685 44.05675828456879,35.48339903354645 44.05675828456879,35.48339903354645 43.2352751493454,35.416144132614136 43.2352751493454,35.416144132614136 42.4101322889328,35.37870645523071 42.4101322889328,35.37870645523071 41.582074761390686,35.367122292518616 41.582074761390686,35.367122292518616 41.45294427871704,35.36756932735443 41.45294427871704,35.36756932735443 41.32396578788757,35.36876738071442 41.32396578788757,35.36876738071442 41.195058822631836,35.37055850028992 41.195058822631836,35.37055850028992 41.06615483760834,35.37287712097168 41.06615483760834,35.37287712097168 40.93732535839081,35.375791788101196 40.93732535839081,35.375791788101196 40.80826938152313,35.37892997264862 40.80826938152313,35.37892997264862 40.679290890693665,35.38251519203186 40.679290890693665,35.38251519203186 40.55023491382599,35.38625240325928 40.55023491382599,35.38625240325928 40.52019417285919,35.38685142993927 40.52019417285919,35.38685142993927 40.490153431892395,35.387372970581055 40.490153431892395,35.387372970581055 40.4601126909256,35.38774847984314 40.4601126909256,35.38774847984314 40.4300719499588,35.388121008872986 40.4300719499588,35.388121008872986 40.400031208992004,35.38864254951477 40.400031208992004,35.38864254951477 40.36999046802521,35.389092564582825 40.36999046802521,35.389092564582825 40.33987522125244,35.38961410522461 40.33987522125244,35.38961410522461 40.30991196632385,35.39043664932251 40.30991196632385,35.39043664932251 39.61120545864105,35.40613055229187 39.61120545864105,35.40613055229187 38.79697322845459,35.42914688587189 38.79697322845459,35.42914688587189 37.91937232017517,35.48676073551178 37.91937232017517,35.48676073551178 37.03041076660156,35.60610115528107 37.03041076660156,35.60610115528107 36.18202805519104,35.81444323062897 36.18202805519104,35.81444323062897 35.42638123035431,36.13883554935455 35.42638123035431,36.13883554935455 34.81533229351044,36.60655617713928 34.81533229351044,36.60655617713928 34.40104126930237,37.24488019943237 34.40104126930237,37.24488019943237 34.2168390750885,37.9442572593689 34.2168390750885,37.9442572593689 34.18074548244476,38.71118724346161 34.18074548244476,38.71118724346161 34.264665842056274,39.52138423919678 34.264665842056274,39.52138423919678 34.44035053253174,40.35011529922485 34.44035053253174,40.35011529922485 34.679627418518066,41.17279052734375 34.679627418518066,41.17279052734375 34.95440185070038,41.96498095989227 34.95440185070038,41.96498095989227 35.23642420768738,42.70201921463013 35.23642420768738,42.70201921463013 35.49744784832001,43.35939884185791 35.49744784832001,43.35939884185791 35.56739389896393,43.498989939689636 35.56739389896393,43.498989939689636 35.65220832824707,43.60809326171875 35.65220832824707,43.60809326171875 35.750699043273926,43.69036853313446 35.750699043273926,43.69036853313446 35.86136996746063,43.74947547912598 35.86136996746063,43.74947547912598 35.982728004455566,43.789082765579224 35.982728004455566,43.789082765579224 36.113351583480835,43.81284713745117 36.113351583480835,43.81284713745117 36.251747608184814,43.82442831993103 36.251747608184814,43.82442831993103 36.39657199382782,43.827491998672485 36.39657199382782,43.827491998672485 36.42130494117737,43.827417492866516 36.42130494117737,43.827417492866516 36.446115374565125,43.82719397544861 36.446115374565125,43.82719397544861 36.47114932537079,43.82682144641876 36.47114932537079,43.82682144641876 36.49610877037048,43.82644593715668 36.49610877037048,43.82644593715668 36.521291732788086,43.82584989070892 36.521291732788086,43.82584989070892 36.54654920101166,43.82539987564087 36.54654920101166,43.82539987564087 36.57195568084717,43.824952840805054 36.57195568084717,43.824952840805054 36.597439646720886,43.824502825737 36.597439646720886,43.824502825737 36.622995138168335,43.824055790901184 36.622995138168335,43.824055790901184 36.64870262145996,43.82353127002716 36.64870262145996,43.82353127002716 36.674484610557556,43.823009729385376 36.674484610557556,43.823009729385376 36.70026361942291,43.82255971431732 36.70026361942291,43.82255971431732 36.72604560852051,43.822112679481506 36.72604560852051,43.822112679481506 36.7518275976181,43.82181465625763 36.7518275976181,43.82181465625763 36.77745759487152,43.82158815860748 36.77745759487152,43.82158815860748 36.80309057235718,43.821513652801514 36.80309057235718,43.821513652801514 36.830440163612366,43.82158815860748 36.830440163612366,43.82158815860748 36.857789754867554,43.8218891620636 36.857789754867554,43.8218891620636 36.88506484031677,43.822336196899414 36.88506484031677,43.822336196899414 36.91234290599823,43.823009729385376 36.91234290599823,43.823009729385376 36.93954348564148,43.823906779289246 36.93954348564148,43.823906779289246 36.96666955947876,43.82502734661102 36.96666955947876,43.82502734661102 36.99372112751007,43.82644593715668 36.99372112751007,43.82644593715668 37.020695209503174,43.82809102535248 37.020695209503174,43.82809102535248 37.49103248119354,43.857982754707336 37.49103248119354,43.857982754707336 37.96159327030182,43.88495683670044 37.96159327030182,43.88495683670044 38.432154059410095,43.90961825847626 38.432154059410095,43.90961825847626 38.90278935432434,43.932560086250305 38.90278935432434,43.932560086250305 39.373499155044556,43.954455852508545 39.373499155044556,43.954455852508545 39.84420895576477,43.97590160369873 39.84420895576477,43.97590160369873 40.314993262290955,43.99749934673309 40.314993262290955,43.99749934673309 40.78577756881714,44.01999115943909 40.78577756881714,44.01999115943909 41.19110107421875,44.04069185256958 41.19110107421875,44.04069185256958 41.59642159938812,44.06258463859558 41.59642159938812,44.06258463859558 42.0018196105957,44.08507943153381 42.0018196105957,44.08507943153381 42.407217621803284,44.10749673843384 42.407217621803284,44.10749673843384 42.8127646446228,44.12939250469208 42.8127646446228,44.12939250469208 43.21823716163635,44.15016770362854 43.21823716163635,44.15016770362854 43.62385869026184,44.168996810913086 43.62385869026184,44.168996810913086 44.02955770492554,44.185587763786316 44.02955770492554,44.185587763786316 44.74216103553772,44.21159327030182 44.74216103553772,44.21159327030182 45.45491337776184,44.23610270023346 45.45491337776184,44.23610270023346 46.16774022579193,44.25874650478363 46.16774022579193,44.25874650478363 46.88071608543396,44.279745221138 46.88071608543396,44.279745221138 47.5937694311142,44.2990243434906 47.5937694311142,44.2990243434906 48.306819796562195,44.31666135787964 48.306819796562195,44.31666135787964 49.019721150398254,44.332727789878845 49.019721150398254,44.332727789878845 49.73277449607849,44.34700012207031 49.73277449607849,44.34700012207031 50.143927335739136,44.35477256774902 50.143927335739136,44.35477256774902 50.55508017539978,44.36194598674774 50.55508017539978,44.36194598674774 50.96622705459595,44.368669390678406 50.96622705459595,44.368669390678406 51.37737989425659,44.374796748161316 51.37737989425659,44.374796748161316 51.788532733917236,44.38032805919647 51.788532733917236,44.38032805919647 52.19968557357788,44.385334849357605 52.19968557357788,44.385334849357605 52.610838413238525,44.389742612838745 52.610838413238525,44.389742612838745 53.02198529243469,44.3936288356781 53.02198529243469,44.3936288356781 53.040069341659546,44.349315762519836 53.040069341659546,44.349315762519836 53.049784898757935,44.27952170372009 53.049784898757935,44.27952170372009 53.05314660072327,44.19238865375519 53.05314660072327,44.19238865375519 53.05187702178955,44.09651160240173 53.05187702178955,44.09651160240173 53.047990798950195,44.000113010406494 53.047990798950195,44.000113010406494 53.043133020401,43.91178488731384 53.043133020401,43.91178488731384 53.03947329521179,43.839672207832336 53.03947329521179,43.839672207832336 53.0387282371521,43.79222095012665 53.0387282371521,43.79222095012665 53.04650068283081,43.56631934642792 53.04650068283081,43.56631934642792 53.06009650230408,43.23400557041168 53.06009650230408,43.23400557041168 53.08804512023926,42.83742606639862 53.08804512023926,42.83742606639862 53.138864040374756,42.41872727870941 53.138864040374756,42.41872727870941 53.22083830833435,42.01982915401459 53.22083830833435,42.01982915401459 53.34271788597107,41.68273210525513 53.34271788597107,41.68273210525513 53.51279973983765,41.44965708255768 53.51279973983765,41.44965708255768" stroke="white" stroke-width="0.1" /><polygon points="21.16527408361435,54.49143052101135 21.16527408361435,54.49143052101135 22.783949971199036,54.64581847190857 22.783949971199036,54.64581847190857 24.31863248348236,55.09060025215149 24.31863248348236,55.09060025215149 25.736218690872192,55.7980477809906 25.736218690872192,55.7980477809906 27.003300189971924,56.74043893814087 27.003300189971924,56.74043893814087 28.086701035499573,57.8902006149292 28.086701035499573,57.8902006149292 28.95301878452301,59.2193067073822 28.95301878452301,59.2193067073822 29.569223523139954,60.70041060447693 29.569223523139954,60.70041060447693 29.901838302612305,62.30555772781372 29.901838302612305,62.30555772781372 29.896607995033264,64.19093608856201 29.896607995033264,64.19093608856201 29.49517071247101,65.98156094551086 29.49517071247101,65.98156094551086 28.74094247817993,67.62886047363281 28.74094247817993,67.62886047363281 27.676746249198914,69.0850019454956 27.676746249198914,69.0850019454956 26.345771551132202,70.30141949653625 26.345771551132202,70.30141949653625 24.791136384010315,71.23013734817505 24.791136384010315,71.23013734817505 23.05595874786377,71.82272672653198 23.05595874786377,71.82272672653198 21.183209121227264,72.03091979026794 21.183209121227264,72.03091979026794 19.438764452934265,71.84978127479553 19.438764452934265,71.84978127479553 17.8034245967865,71.33162021636963 17.8034245967865,71.33162021636963 16.31537228822708,70.51424384117126 16.31537228822708,70.51424384117126 15.01249372959137,69.43532824516296 15.01249372959137,69.43532824516296 13.932828605175018,68.13275218009949 13.932828605175018,68.13275218009949 13.114635646343231,66.64424538612366 13.114635646343231,66.64424538612366 12.595726549625397,65.00778794288635 12.595726549625397,65.00778794288635 12.414362281560898,63.26087713241577 12.414362281560898,63.26087713241577 12.582200765609741,61.57584190368652 12.582200765609741,61.57584190368652 13.063745200634003,59.98944640159607 13.063745200634003,59.98944640159607 13.826116919517517,58.536744117736816 13.826116919517517,58.536744117736816 14.836585521697998,57.2526216506958 14.836585521697998,57.2526216506958 16.062119603157043,56.17220997810364 16.062119603157043,56.17220997810364 17.470064759254456,55.33069968223572 17.470064759254456,55.33069968223572 19.0274640917778,54.7629177570343 19.0274640917778,54.7629177570343 20.701363682746887,54.50398921966553 20.701363682746887,54.50398921966553 20.759576559066772,54.50107455253601 20.759576559066772,54.50107455253601 20.817789435386658,54.49845790863037 20.817789435386658,54.49845790863037 20.875778794288635,54.496365785598755 20.875778794288635,54.496365785598755 20.933766663074493,54.494571685791016 20.933766663074493,54.494571685791016 20.9916815161705,54.49315309524536 20.9916815161705,54.49315309524536 21.04959487915039,54.49225306510925 21.04959487915039,54.49225306510925 21.10743522644043,54.49158549308777 21.10743522644043,54.49158549308777" stroke="white" stroke-width="0.1" /><polygon points="80.73340654373169,61.8380606174469 80.73340654373169,61.8380606174469 80.73617219924927,61.85711622238159 80.73617219924927,61.85711622238159 80.73834180831909,61.876022815704346 80.73834180831909,61.876022815704346 80.74020743370056,61.89507842063904 80.74020743370056,61.89507842063904 80.74177503585815,61.91398501396179 80.74177503585815,61.91398501396179 80.74334859848022,61.93281412124634 80.74334859848022,61.93281412124634 80.74513673782349,61.95186972618103 80.74513673782349,61.95186972618103 80.74738383293152,61.97085380554199 80.74738383293152,61.97085380554199 80.75014352798462,61.989909410476685 80.75014352798462,61.989909410476685 80.81493377685547,63.84442448616028 80.81493377685547,63.84442448616028 80.49256205558777,65.6248152256012 80.49256205558777,65.6248152256012 79.82172966003418,67.28234887123108 79.82172966003418,67.28234887123108 78.84100079536438,68.76800656318665 78.84100079536438,68.76800656318665 77.5891661643982,70.03307342529297 77.5891661643982,70.03307342529297 76.10484957695007,71.02874517440796 76.10484957695007,71.02874517440796 74.42668676376343,71.70622944831848 74.42668676376343,71.70622944831848 72.59346842765808,72.01657295227051 72.59346842765808,72.01657295227051 72.53159284591675,72.01985716819763 72.53159284591675,72.01985716819763 72.46972322463989,72.02284932136536 72.46972322463989,72.02284932136536 72.40791916847229,72.02523946762085 72.40791916847229,72.02523946762085 72.34612107276917,72.02733159065247 72.34612107276917,72.02733159065247 72.28439450263977,72.02889919281006 72.28439450263977,72.02889919281006 72.22266793251038,72.0299482345581 72.22266793251038,72.0299482345581 72.16116786003113,72.0306932926178 72.16116786003113,72.0306932926178 72.09966778755188,72.03091979026794 72.09966778755188,72.03091979026794 70.63455581665039,71.90373539924622 70.63455581665039,71.90373539924622 69.2396879196167,71.53652310371399 69.2396879196167,71.53652310371399 67.93778538703918,70.95110416412354 67.93778538703918,70.95110416412354 66.75185561180115,70.16900181770325 66.75185561180115,70.16900181770325 65.70447087287903,69.21189427375793 65.70447087287903,69.21189427375793 64.81865048408508,68.1015133857727 64.81865048408508,68.1015133857727 64.11710977554321,66.85953736305237 64.11710977554321,66.85953736305237 63.62255811691284,65.50748944282532 63.62255811691284,65.50748944282532 63.55283856391907,65.23637771606445 63.55283856391907,65.23637771606445 63.49111199378967,64.96227979660034 63.49111199378967,64.96227979660034 63.43768239021301,64.68541026115417 63.43768239021301,64.68541026115417 63.3929967880249,64.4057035446167 63.3929967880249,64.4057035446167 63.35757374763489,64.12330865859985 63.35757374763489,64.12330865859985 63.33171725273132,63.838374614715576 63.33171725273132,63.838374614715576 63.315874338150024,63.5509729385376 63.315874338150024,63.5509729385376 63.310497999191284,63.26087713241577 63.310497999191284,63.26087713241577 63.47833275794983,61.57584190368652 63.47833275794983,61.57584190368652 63.95987868309021,59.98944640159607 63.95987868309021,59.98944640159607 64.72225189208984,58.536744117736816 64.72225189208984,58.536744117736816 65.73271751403809,57.2526216506958 65.73271751403809,57.2526216506958 66.9583261013031,56.17220997810364 66.9583261013031,56.17220997810364 68.36619973182678,55.33069968223572 68.36619973182678,55.33069968223572 69.92352604866028,54.7629177570343 69.92352604866028,54.7629177570343 71.59749865531921,54.50398921966553 71.59749865531921,54.50398921966553 71.65541052818298,54.50107455253601 71.65541052818298,54.50107455253601 71.71332836151123,54.49845790863037 71.71332836151123,54.49845790863037 71.771240234375,54.496365785598755 71.771240234375,54.496365785598755 71.82930111885071,54.494571685791016 71.82930111885071,54.494571685791016 71.88721895217896,54.49315309524536 71.88721895217896,54.49315309524536 71.94498181343079,54.49225306510925 71.94498181343079,54.49225306510925 72.00267314910889,54.49158549308777 72.00267314910889,54.49158549308777 72.06021547317505,54.49143052101135 72.06021547317505,54.49143052101135 73.61820936203003,54.63431477546692 73.61820936203003,54.63431477546692 75.1019299030304,55.04680871963501 75.1019299030304,55.04680871963501 76.48087739944458,55.704933404922485 76.48087739944458,55.704933404922485 77.72442102432251,56.58470392227173 77.72442102432251,56.58470392227173 78.80207300186157,57.661980390548706 78.80207300186157,57.661980390548706 79.68303561210632,58.912622928619385 79.68303561210632,58.912622928619385 80.33697605133057,60.31271815299988 80.33697605133057,60.31271815299988" stroke="white" stroke-width="0.1" /><polygon points="21.16527408361435,54.49143052101135 22.783949971199036,54.64581847190857 24.31863248348236,55.09060025215149 25.736218690872192,55.7980477809906 27.003300189971924,56.74043893814087 28.086701035499573,57.8902006149292 28.95301878452301,59.2193067073822 29.569223523139954,60.70041060447693 29.901838302612305,62.30555772781372 29.896607995033264,64.19093608856201 29.49517071247101,65.98156094551086 28.74094247817993,67.62886047363281 27.676746249198914,69.0850019454956 26.345771551132202,70.30141949653625 24.791136384010315,71.23013734817505 23.05595874786377,71.82272672653198 21.183209121227264,72.03091979026794 19.438764452934265,71.84978127479553 17.8034245967865,71.33162021636963 16.31537228822708,70.51424384117126 15.01249372959137,69.43532824516296 13.932828605175018,68.13275218009949 13.114635646343231,66.64424538612366 12.595726549625397,65.00778794288635 12.414362281560898,63.26087713241577 12.582200765609741,61.57584190368652 13.063745200634003,59.98944640159607 13.826116919517517,58.536744117736816 14.836585521697998,57.2526216506958 16.062119603157043,56.17220997810364 17.470064759254456,55.33069968223572 19.0274640917778,54.7629177570343 20.701363682746887,54.50398921966553 20.759576559066772,54.50107455253601 20.817789435386658,54.49845790863037 20.875778794288635,54.496365785598755 20.933766663074493,54.494571685791016 20.9916815161705,54.49315309524536 21.04959487915039,54.49225306510925 21.10743522644043,54.49158549308777" stroke="white" stroke-width="0.1" /><polygon points="80.73340654373169,61.8380606174469 80.73617219924927,61.85711622238159 80.73834180831909,61.876022815704346 80.74020743370056,61.89507842063904 80.74177503585815,61.91398501396179 80.74334859848022,61.93281412124634 80.74513673782349,61.95186972618103 80.74738383293152,61.97085380554199 80.75014352798462,61.989909410476685 80.81493377685547,63.84442448616028 80.49256205558777,65.6248152256012 79.82172966003418,67.28234887123108 78.84100079536438,68.76800656318665 77.5891661643982,70.03307342529297 76.10484957695007,71.02874517440796 74.42668676376343,71.70622944831848 72.59346842765808,72.01657295227051 72.53159284591675,72.01985716819763 72.46972322463989,72.02284932136536 72.40791916847229,72.02523946762085 72.34612107276917,72.02733159065247 72.28439450263977,72.02889919281006 72.22266793251038,72.0299482345581 72.16116786003113,72.0306932926178 72.09966778755188,72.03091979026794 70.63455581665039,71.90373539924622 69.2396879196167,71.53652310371399 67.93778538703918,70.95110416412354 66.75185561180115,70.16900181770325 65.70447087287903,69.21189427375793 64.81865048408508,68.1015133857727 64.11710977554321,66.85953736305237 63.62255811691284,65.50748944282532 63.55283856391907,65.23637771606445 63.49111199378967,64.96227979660034 63.43768239021301,64.68541026115417 63.3929967880249,64.4057035446167 63.35757374763489,64.12330865859985 63.33171725273132,63.838374614715576 63.315874338150024,63.5509729385376 63.310497999191284,63.26087713241577 63.47833275794983,61.57584190368652 63.95987868309021,59.98944640159607 64.72225189208984,58.536744117736816 65.73271751403809,57.2526216506958 66.9583261013031,56.17220997810364 68.36619973182678,55.33069968223572 69.92352604866028,54.7629177570343 71.59749865531921,54.50398921966553 71.65541052818298,54.50107455253601 71.71332836151123,54.49845790863037 71.771240234375,54.496365785598755 71.82930111885071,54.494571685791016 71.88721895217896,54.49315309524536 71.94498181343079,54.49225306510925 72.00267314910889,54.49158549308777 72.06021547317505,54.49143052101135 73.61820936203003,54.63431477546692 75.1019299030304,55.04680871963501 76.48087739944458,55.704933404922485 77.72442102432251,56.58470392227173 78.80207300186157,57.661980390548706 79.68303561210632,58.912622928619385 80.33697605133057,60.31271815299988" stroke="white" stroke-width="0.1" /><polygon points="99.77043867111206,26.307734847068787 99.90748763084412,26.59551203250885 99.98281002044678,26.895317435264587 99.99843239784241,27.198562026023865 99.95635747909546,27.49665081501007 99.85839128494263,27.780991792678833 99.70654249191284,28.04306149482727 99.50283765792847,28.27426791191101 99.2491364479065,28.465870022773743 97.23567366600037,29.688414931297302 96.94572687149048,29.831144213676453 96.63710594177246,29.91364598274231 96.31816744804382,29.9302339553833 95.99788188934326,29.875609278678894 95.68485021591187,29.744237661361694 95.38788199424744,29.530590772628784 95.11550068855286,29.229289293289185 94.87667083740234,28.83472740650177 92.35864281654358,30.370530486106873 84.0620756149292,18.380023539066315 84.72349047660828,18.131554126739502 85.36024689674377,17.821434140205383 85.96755862236023,17.4511581659317 86.54034733772278,17.021997272968292 87.07382678985596,16.53544455766678 87.56299614906311,15.992847084999084 88.0031406879425,15.395697951316833 88.38911056518555,14.74526822566986 88.795405626297,13.762374222278595 89.08033967018127,12.560679018497467 89.19063806533813,11.208854615688324 89.07287120819092,9.775801748037338 88.6739730834961,8.330194652080536 87.94066905975342,6.940558552742004 86.81967854499817,5.676016584038734 85.25772094726562,4.605019465088844 83.2994818687439,3.8651403039693832 81.49682283401489,3.7052232772111893 79.87135052680969,3.9971094578504562 78.44449877738953,4.612566903233528 77.237868309021,5.423735827207565 76.27291083335876,6.302458792924881 75.5713701248169,7.120577245950699 75.15453696250916,7.750158756971359 74.84882473945618,8.381906151771545 74.60200190544128,9.041004627943039 74.41749572753906,9.723716974258423 74.29860830307007,10.425932705402374 74.24883842468262,11.143841594457626 74.27170276641846,11.873557418584824 74.37034249305725,12.610970437526703 74.54834580421448,13.352343440055847 75.11507868766785,13.535875082015991 75.24861693382263,13.411079347133636 75.62763690948486,13.096028566360474 76.2194037437439,12.6803919672966 76.99149250984192,12.253473699092865 77.91123986244202,11.904644221067429 78.94614338874817,11.72328069806099 80.063396692276,11.798755079507828 81.23079538345337,12.22066804766655 82.23692774772644,12.947767972946167 82.92860984802246,13.82843405008316 83.36150646209717,14.785471558570862 83.59099626541138,15.741688013076782 83.67274403572083,16.619811952114105 83.66236090660095,17.34265387058258 83.61542820930481,17.832942306995392 83.5874080657959,18.01355928182602 84.0620756149292,18.380023539066315 92.35864281654358,30.370530486106873 92.9499626159668,32.351335883140564 93.37643384933472,34.34843420982361 93.64216923713684,36.35367751121521 93.75156760215759,38.35906982421875 93.7090516090393,40.356242656707764 93.51879358291626,42.337122559547424 93.18521022796631,44.29364502429962 92.71255731582642,46.21758460998535 92.42993593215942,46.028298139572144 92.15075373649597,45.85418105125427 91.87769889831543,45.694637298583984 91.6136085987091,45.549145340919495 91.361403465271,45.417025685310364 91.1238431930542,45.297759771347046 90.90369939804077,45.19074857234955 90.70387482643127,45.095473527908325 90.62137603759766,45.05601525306702 88.40375542640686,44.06243562698364 86.13293170928955,43.19731295108795 83.82706046104431,42.44928956031799 81.50429725646973,41.80663228034973 79.183030128479,41.25798046588898 76.88156962394714,40.79183042049408 74.61791634559631,40.396520495414734 72.41053581237793,40.06061851978302 72.42876887321472,39.98544216156006 72.44595885276794,39.91138935089111 72.46164679527283,39.838677644729614 72.4758505821228,39.76753652095795 72.48832583427429,39.69833850860596 72.49878644943237,39.6315336227417 72.50723242759705,39.567193388938904 72.51335978507996,39.505839347839355 72.51455783843994,39.50105905532837 72.53069877624512,39.0641987323761 72.5127637386322,38.623905181884766 72.4607527256012,38.18390667438507 72.3746657371521,37.74847090244293 72.25443124771118,37.32117712497711 72.10026383399963,36.90613806247711 71.91202640533447,36.50709390640259 71.68956398963928,36.128148436546326 79.71950173377991,17.841385304927826 79.94517683982849,17.09231585264206 79.93800640106201,16.468937695026398 79.74162101745605,15.993893146514893 79.39891815185547,15.689677000045776 78.953617811203,15.57900458574295 78.4489095211029,15.684521198272705 77.92805433273315,16.028791666030884 77.43462920188904,16.63438379764557 66.84840321540833,33.57066810131073 66.67892336845398,33.5882306098938 66.50316119194031,33.60399603843689 66.32351875305176,33.62058699131012 66.14252924919128,33.64068865776062 65.96280932426453,33.66684317588806 65.78660011291504,33.70174169540405 65.61674475669861,33.747923374176025 65.45547842979431,33.80800485610962 65.20753502845764,33.891698718070984 64.96272683143616,33.9866042137146 64.72217440605164,34.09278988838196 64.486563205719,34.20988917350769 64.25684690475464,34.33797359466553 64.03385996818542,34.47681665420532 63.818567991256714,34.62649583816528 63.611799478530884,34.786638617515564 63.45135569572449,34.908294677734375 63.29958438873291,35.036975145339966 63.15581202507019,35.17223298549652 63.019657135009766,35.31309366226196 62.89030313491821,35.459187626838684 62.76707649230957,35.60991287231445 62.649452686309814,35.76452434062958 62.5369131565094,35.922497510910034 61.9778037071228,35.50499379634857 61.4194393157959,35.09645760059357 60.86152195930481,34.69681441783905 60.30375361442566,34.30613875389099 59.74583625793457,33.92450511455536 59.187620878219604,33.551910519599915 58.62873196601868,33.188435435295105 58.06879997253418,32.83415138721466 57.057881355285645,32.215407490730286 55.96633553504944,31.581565737724304 54.798340797424316,30.950042605400085 53.55793237686157,30.33832311630249 52.24900245666504,29.763516783714294 50.8755087852478,29.243189096450806 49.441635608673096,28.79444658756256 47.951266169548035,28.434783220291138 47.34552204608917,28.319627046585083 46.727824211120605,28.218448162078857 46.0975706577301,28.130939602851868 45.45431435108185,28.056734800338745 44.79738473892212,27.99568474292755 44.12632882595062,27.94763445854187 43.440479040145874,27.912136912345886 42.73945689201355,27.88897156715393 44.10966336727142,25.30907392501831 45.74485719203949,22.903141379356384 47.624555230140686,20.691275596618652 49.727991223335266,18.69380474090576 52.034538984298706,16.930828988552094 54.523491859436035,15.422375500202179 57.174378633499146,14.188696444034576 59.96628403663635,13.250117003917694 59.81443524360657,10.305845737457275 59.3783974647522,10.323256999254227 58.98727774620056,10.26429682970047 58.644574880599976,10.138455778360367 58.35365653038025,9.95514839887619 58.1179678440094,9.723865985870361 57.94101357460022,9.453950077295303 57.82630443572998,9.155038744211197 57.77705907821655,8.836400508880615 57.65630006790161,6.483374536037445 57.671546936035156,6.166155636310577 57.74731636047363,5.867767706513405 57.87779092788696,5.5950116366147995 58.05714130401611,5.354089662432671 58.27937722206116,5.151502788066864 58.538687229156494,4.993677884340286 58.82915258407593,4.887116327881813 59.14487838745117,4.838169738650322 67.76068210601807,4.400564357638359 68.07916760444641,4.415659233927727 68.37868094444275,4.491806775331497 68.65262985229492,4.62287925183773 68.89444589614868,4.802674055099487 69.09785866737366,5.025063827633858 69.2564308643341,5.283994972705841 69.36366558074951,5.573265999555588 69.41305994987488,5.886748805642128 69.53023076057434,8.237981051206589 69.51453685760498,8.559608459472656 69.4354772567749,8.868533372879028 69.29349303245544,9.155038744211197 69.08888816833496,9.409038722515106 68.82210969924927,9.620741754770279 68.49368214607239,9.780435264110565 68.1039035320282,9.877954423427582 67.65307188034058,9.90351140499115 67.77383089065552,12.29420006275177 68.12191605567932,12.304811179637909 68.47014427185059,12.320055812597275 68.81844997406006,12.340157479047775 69.16690468788147,12.364817410707474 69.51543688774109,12.394260615110397 69.86396312713623,12.428411096334457 70.21242380142212,12.467493116855621 70.56087851524353,12.511208653450012 70.65578103065491,9.316301345825195 71.60212993621826,6.43741711974144 73.25450778007507,3.9723746478557587 75.46749711036682,2.019067481160164 78.09551954269409,0.6750899832695723 80.99308609962463,0.03833530645351857 84.01492238044739,0.2066220622509718 87.01531887054443,1.277544628828764 89.594167470932,3.1551524996757507 91.435307264328,5.5568259209394455 92.53918528556824,8.308075368404388 92.90565252304077,11.23463585972786 92.53470301628113,14.161793887615204 91.42656922340393,16.91528558731079 89.5811676979065,19.320471584796906 86.99857592582703,21.2029367685318 87.23083138465881,21.464334428310394 87.45890259742737,21.72916829586029 87.68278360366821,21.99714183807373 87.90278434753418,22.268255054950714 88.11904191970825,22.542130947113037 88.33186626434326,22.818623483181 88.54140639305115,23.097433149814606 88.74780535697937,23.378409445285797 90.78876376152039,22.13195115327835 90.61875939369202,21.83677703142166 90.48581719398499,21.523219347000122 90.40152430534363,21.198303997516632 90.37731289863586,20.868828892707825 90.42484164237976,20.54159641265869 90.55554270744324,20.223554968833923 90.78099131584167,19.921430945396423 91.11278653144836,19.642023742198944 93.12146306037903,18.415294587612152 93.40707659721375,18.279215693473816 93.70561242103577,18.20456236600876 94.00833249092102,18.18946748971939 94.3063497543335,18.232062458992004 94.59090828895569,18.330255150794983 94.85335350036621,18.482325971126556 95.08455991744995,18.686331808567047 95.27601599693298,18.94018203020096" stroke="white" stroke-width="0.1" /><polygon points="89.53334093093872,56.73864483833313 89.61434364318848,56.83578848838806 89.85115885734558,56.935179233551025 90.19513130187988,57.036060094833374 90.59790968894958,57.13798999786377 91.01093411445618,57.24036693572998 91.38569235801697,57.34259486198425 91.67376756668091,57.44414925575256 91.82658195495605,57.54450559616089 91.91072583198547,57.78005123138428 91.93195104598999,58.11363458633423 91.90504550933838,58.51290225982666 91.84466600418091,58.94550085067749 91.76575541496277,59.37907099723816 91.68317914009094,59.781330823898315 91.61166548728943,60.11999845504761 91.56593084335327,60.36263704299927 91.46983623504639,61.03698015213013 91.36955142021179,61.73449158668518 91.25118255615234,62.441712617874146 91.10127687454224,63.145047426223755 90.90579152107239,63.83097767829895 90.65074324607849,64.48596119880676 90.3226912021637,65.09626507759094 89.90757465362549,65.64857363700867 89.33404088020325,66.18908047676086 88.71111273765564,66.60105586051941 88.04670572280884,66.9047474861145 87.34890222549438,67.12071299552917 86.62583827972412,67.26889610290527 85.8854353427887,67.37000346183777 85.13569235801697,67.44398474693298 84.38490033149719,67.511385679245 84.69711542129517,66.46639704704285 84.91412401199341,65.42035937309265 85.03944277763367,64.37715888023376 85.07643342018127,63.34083676338196 85.02867817878723,62.31512427330017 84.89955067634583,61.304134130477905 84.69262719154358,60.31167507171631 84.41120386123657,59.341561794281006 83.63224267959595,57.47844576835632 82.5864315032959,55.756574869155884 81.29820227622986,54.20888662338257 79.79183793067932,52.868348360061646 78.0914843082428,51.76820755004883 76.22150182723999,50.94141960144043 74.20631647109985,50.4210889339447 72.06977605819702,50.240325927734375 72.01111912727356,50.24047493934631 53.73937487602234,41.36267304420471 54.01847958564758,41.34197533130646 54.22345995903015,41.28316342830658 54.36050891876221,41.19094908237457 54.43568825721741,41.07063710689545 54.45556640625,40.92678725719452 54.42619323730469,40.76447784900665 54.35400605201721,40.58842062950134 54.24513220787048,40.40376842021942 53.676003217697144,39.67337906360626 53.01346778869629,39.02870416641235 52.27530598640442,38.46002519130707 51.47916078567505,37.95733451843262 50.64273476600647,37.510836124420166 49.78358745574951,37.110742926597595 48.91958832740784,36.747193336486816 48.068439960479736,36.410319805145264 47.28237688541412,36.13278269767761 46.487125754356384,35.90531051158905 45.68365514278412,35.72394549846649 44.873231649398804,35.58472990989685 44.05675828456879,35.48339903354645 43.2352751493454,35.416144132614136 42.4101322889328,35.37870645523071 41.582074761390686,35.367122292518616 41.45294427871704,35.36756932735443 41.32396578788757,35.36876738071442 41.195058822631836,35.37055850028992 41.06615483760834,35.37287712097168 40.93732535839081,35.375791788101196 40.80826938152313,35.37892997264862 40.679290890693665,35.38251519203186 40.55023491382599,35.38625240325928 40.52019417285919,35.38685142993927 40.490153431892395,35.387372970581055 40.4601126909256,35.38774847984314 40.4300719499588,35.388121008872986 40.400031208992004,35.38864254951477 40.36999046802521,35.389092564582825 40.33987522125244,35.38961410522461 40.30991196632385,35.39043664932251 39.61120545864105,35.40613055229187 38.79697322845459,35.42914688587189 37.91937232017517,35.48676073551178 37.03041076660156,35.60610115528107 36.18202805519104,35.81444323062897 35.42638123035431,36.13883554935455 34.81533229351044,36.60655617713928 34.40104126930237,37.24488019943237 34.2168390750885,37.9442572593689 34.18074548244476,38.71118724346161 34.264665842056274,39.52138423919678 34.44035053253174,40.35011529922485 34.679627418518066,41.17279052734375 34.95440185070038,41.96498095989227 35.23642420768738,42.70201921463013 27.375444769859314,42.689839005470276 27.992171049118042,42.67444312572479 28.58961820602417,42.61735379695892 29.144099354743958,42.5021231174469 29.63177263736725,42.31224060058594 30.028650164604187,42.031338810920715 30.310970544815063,41.64282977581024 30.45482337474823,41.13064408302307 30.436289310455322,40.477898716926575 30.355435609817505,40.01570641994476 30.250966548919678,39.55247104167938 30.12475073337555,39.09050524234772 29.97850775718689,38.63227367401123 29.8138827085495,38.18009793758392 29.632744193077087,37.736138701438904 29.436656832695007,37.30279505252838 29.227495193481445,36.88260018825531 29.177576303482056,36.80742383003235 29.114806652069092,36.7451012134552 29.040300846099854,36.694735288619995 28.955337405204773,36.65550351142883 28.86110544204712,36.626508831977844 28.758877515792847,36.60677969455719 28.649774193763733,36.59557104110718 28.53521704673767,36.59205734729767 28.33988070487976,36.60042881965637 28.13848853111267,36.62314414978027 27.936574816703796,36.656323075294495 27.739515900611877,36.69622838497162 27.55284607410431,36.73897385597229 27.381795644760132,36.78119480609894 27.231892943382263,36.8187814950943 27.10881531238556,36.84792518615723 26.25153958797455,37.049391865730286 25.284263491630554,37.311238050460815 24.263034760951996,37.641534209251404 23.2433021068573,38.04835081100464 22.28095829486847,38.53961229324341 21.431827545166016,39.12353515625 20.751580595970154,39.807963371276855 20.296041667461395,40.60105085372925 20.2614426612854,41.281670331954956 20.6694558262825,41.791388392448425 21.39991819858551,42.15501248836517 22.332818806171417,42.39735305309296 23.347994685173035,42.54329800605774 24.325208365917206,42.61750280857086 25.144672393798828,42.64492690563202 25.685998797416687,42.65038073062897 25.874537229537964,42.653071880340576 26.07189416885376,42.65800416469574 26.27679705619812,42.66442954540253 26.488128304481506,42.67145395278931 26.70483887195587,42.67832934856415 26.9256591796875,42.68415868282318 27.149617671966553,42.688268423080444 27.375444769859314,42.689839005470276 35.23642420768738,42.70201921463013 35.49744784832001,43.35939884185791 35.56739389896393,43.498989939689636 35.65220832824707,43.60809326171875 35.750699043273926,43.69036853313446 35.86136996746063,43.74947547912598 35.982728004455566,43.789082765579224 36.113351583480835,43.81284713745117 36.251747608184814,43.82442831993103 36.39657199382782,43.827491998672485 36.42130494117737,43.827417492866516 36.446115374565125,43.82719397544861 36.47114932537079,43.82682144641876 36.49610877037048,43.82644593715668 36.521291732788086,43.82584989070892 36.54654920101166,43.82539987564087 36.57195568084717,43.824952840805054 36.597439646720886,43.824502825737 36.622995138168335,43.824055790901184 36.64870262145996,43.82353127002716 36.674484610557556,43.823009729385376 36.70026361942291,43.82255971431732 36.72604560852051,43.822112679481506 36.7518275976181,43.82181465625763 36.77745759487152,43.82158815860748 36.80309057235718,43.821513652801514 36.830440163612366,43.82158815860748 36.857789754867554,43.8218891620636 36.88506484031677,43.822336196899414 36.91234290599823,43.823009729385376 36.93954348564148,43.823906779289246 36.96666955947876,43.82502734661102 36.99372112751007,43.82644593715668 37.020695209503174,43.82809102535248 37.49103248119354,43.857982754707336 37.96159327030182,43.88495683670044 38.432154059410095,43.90961825847626 38.90278935432434,43.932560086250305 39.373499155044556,43.954455852508545 39.84420895576477,43.97590160369873 40.314993262290955,43.99749934673309 40.78577756881714,44.01999115943909 41.19110107421875,44.04069185256958 41.59642159938812,44.06258463859558 42.0018196105957,44.08507943153381 42.407217621803284,44.10749673843384 42.8127646446228,44.12939250469208 43.21823716163635,44.15016770362854 43.62385869026184,44.168996810913086 44.02955770492554,44.185587763786316 44.74216103553772,44.21159327030182 45.45491337776184,44.23610270023346 46.16774022579193,44.25874650478363 46.88071608543396,44.279745221138 47.5937694311142,44.2990243434906 48.306819796562195,44.31666135787964 49.019721150398254,44.332727789878845 49.73277449607849,44.34700012207031 50.143927335739136,44.35477256774902 50.55508017539978,44.36194598674774 50.96622705459595,44.368669390678406 51.37737989425659,44.374796748161316 51.788532733917236,44.38032805919647 52.19968557357788,44.385334849357605 52.610838413238525,44.389742612838745 53.02198529243469,44.3936288356781 53.040069341659546,44.349315762519836 53.049784898757935,44.27952170372009 53.05314660072327,44.19238865375519 53.05187702178955,44.09651160240173 53.047990798950195,44.000113010406494 53.043133020401,43.91178488731384 53.03947329521179,43.839672207832336 53.0387282371521,43.79222095012665 53.04650068283081,43.56631934642792 53.06009650230408,43.23400557041168 53.08804512023926,42.83742606639862 53.138864040374756,42.41872727870941 53.22083830833435,42.01982915401459 53.34271788597107,41.68273210525513 53.51279973983765,41.44965708255768 53.73937487602234,41.36267304420471 72.01111912727356,50.24047493934631 71.95267677307129,50.24092197418213 71.8943178653717,50.24151802062988 71.83603048324585,50.24248957633972 71.77774310112,50.24375915527344 71.71937823295593,50.24503469467163 71.66094183921814,50.24682283401489 71.6022789478302,50.24869441986084 68.86425614356995,50.648337602615356 66.36805534362793,51.59229636192322 64.16156888008118,53.00629734992981 62.292855978012085,54.816049337387085 60.80965995788574,56.94713592529297 59.75980758666992,59.325265884399414 59.19135808944702,61.876100301742554 59.15204882621765,64.52527046203613 59.20196771621704,64.98932838439941 59.26787853240967,65.45361280441284 59.35060381889343,65.91774821281433 59.45096015930176,66.3813591003418 59.56962704658508,66.84414744377136 59.70757603645325,67.30573773384094 59.865403175354004,67.76583790779114 60.044002532958984,68.22398900985718 57.79738426208496,68.0551826953888 55.55346608161926,67.90460348129272 53.311485052108765,67.77353286743164 51.07084512710571,67.66353249549866 48.83095920085907,67.57565140724182 46.591147780418396,67.51123666763306 44.35088634490967,67.47170686721802 42.109352350234985,67.45818257331848 41.02722108364105,67.46139526367188 39.944568276405334,67.471182346344 38.861313462257385,67.48762726783752 37.77738809585571,67.51086711883545 36.69279217720032,67.54112839698792 35.60729622840881,67.57849454879761 34.52098071575165,67.62318015098572 33.43376815319061,67.67519116401672 34.116777777671814,64.72569108009338 34.090325236320496,61.79658770561218 33.41807425022125,58.98899435997009 32.16369450092316,56.40416145324707 30.39085566997528,54.14320230484009 28.163298964500427,52.307140827178955 25.5447655916214,50.99716782569885 22.59884923696518,50.31445622444153 22.42540717124939,50.29681921005249 22.25211262702942,50.281500816345215 22.079119086265564,50.26857256889343 21.906423568725586,50.25796294212341 21.734100580215454,50.24973750114441 21.562302112579346,50.243836641311646 21.390950679779053,50.24024844169617 21.22027277946472,50.23912787437439 18.474404513835907,50.540876388549805 15.914158523082733,51.401740312576294 13.607016205787659,52.754759788513184 11.620305478572845,54.533207416534424 10.02165600657463,56.67011737823486 8.878546208143234,59.09891724586487 8.258231729269028,61.752426624298096 8.228415995836258,64.56412672996521 7.604588568210602,64.24257755279541 6.980238854885101,63.921767473220825 6.354843080043793,63.60253095626831 5.7280272245407104,63.28613758087158 5.09926825761795,62.97354698181152 4.468192905187607,62.66604661941528 3.8343526422977448,62.36444115638733 3.197149559855461,62.07001805305481 2.939413860440254,61.9651734828949 2.6634443551301956,61.86773180961609 2.379254996776581,61.76968812942505 2.097008563578129,61.663198471069336 1.8268678337335587,61.54019832611084 1.5787718817591667,61.392760276794434 1.363107841461897,61.21296286582947 1.1896648444235325,60.99274158477783 0.818268209695816,60.2613091468811 0.5419252440333366,59.46044921875 0.3450924763455987,58.609598875045776 0.21192773710936308,57.72789120674133 0.1268876250833273,56.834447383880615 0.07420459878630936,55.94840049743652 0.03841003344859928,55.089181661605835 0.003586929233279079,54.275619983673096 0.03676602500490844,53.68960499763489 0.18046738114207983,53.213661909103394 0.4077889956533909,52.81813144683838 0.6921278778463602,52.47333645820618 1.0066566988825798,52.149391174316406 1.3246230781078339,51.816630363464355 1.6194237396121025,51.44530534744263 1.8640074878931046,51.00553631782532 2.00584065169096,50.60933232307434 2.1100858226418495,50.189208984375 2.184738777577877,49.75235164165497 2.237646095454693,49.30562973022461 2.2766537964344025,48.85614216327667 2.309534139931202,48.41084182262421 2.3443572223186493,47.97682166099548 2.3888949304819107,47.56088852882385 2.4728888645768166,46.84798717498779 2.5794504210352898,46.0070013999939 2.7315961197018623,45.104289054870605 2.952042780816555,44.20636296272278 3.2637320458889008,43.37935149669647 3.6896049976348877,42.68976449966431 4.252379387617111,42.203885316848755 4.975070804357529,41.98799431324005 6.087616831064224,41.92529916763306 7.195380330085754,41.88225567340851 8.295072615146637,41.83405637741089 9.38325747847557,41.75603985786438 10.456570982933044,41.62362217903137 11.511725932359695,41.41199588775635 12.545284628868103,41.09649360179901 13.553810119628906,40.65246284008026 14.725390076637268,40.038350224494934 15.898166596889496,39.417362213134766 17.074529826641083,38.79712224006653 18.256273865699768,38.18570077419281 19.445639848709106,37.590792775154114 20.644870400428772,37.02009916305542 21.855832636356354,36.48176193237305 23.080694675445557,35.9834760427475 24.513597786426544,35.46337187290192 25.966081023216248,34.99886393547058 27.435225248336792,34.58726406097412 28.918421268463135,34.22588109970093 30.41282594203949,33.91209840774536 31.91567361354828,33.643004298210144 33.42412710189819,33.416131138801575 34.935495257377625,33.228713274002075 35.67589819431305,33.14830660820007 36.42556667327881,33.07223618030548 37.18300461769104,33.00154209136963 37.947019934654236,32.93817341327667 38.715967535972595,32.88302421569824 39.48865234851837,32.83773958683014 40.26350378990173,32.80373811721802 41.039252281188965,32.782143354415894 41.13161563873291,32.78004825115204 41.223978996276855,32.777583599090576 41.3163423538208,32.77489244937897 41.408705711364746,32.772278785705566 41.50106906890869,32.769885659217834 41.593506932258606,32.76786804199219 41.68572127819061,32.7665239572525 41.77815914154053,32.76599943637848 42.441368103027344,32.77212977409363 43.10218691825867,32.79118537902832 43.759939074516296,32.824137806892395 44.41380500793457,32.872188091278076 45.06281614303589,32.936081290245056 45.70629596710205,33.016860485076904 46.343499422073364,33.115801215171814 46.973228454589844,33.2334965467453 48.105353116989136,33.50602984428406 49.218347668647766,33.85239243507385 50.31191110610962,34.263694286346436 51.38559937477112,34.731340408325195 52.43903994560242,35.246363282203674 53.47185134887695,35.79994440078735 54.48373556137085,36.38334274291992 55.47425150871277,36.98781728744507 56.41828775405884,37.591391801834106 57.349467277526855,38.215067982673645 58.268094062805176,38.85750472545624 59.174466133117676,39.51764702796936 60.0688099861145,40.194156765937805 60.95149517059326,40.885910391807556 61.822593212127686,41.591641306877136 62.68278360366821,42.31022298336029 62.71656155586243,42.33861863613129 62.75041103363037,42.366716265678406 62.78441548347473,42.394664883613586 62.81849145889282,42.422688007354736 62.852489948272705,42.45070815086365 62.886565923690796,42.47880578041077 62.92049288749695,42.506980895996094 62.954193353652954,42.535600066185 63.36333155632019,42.89279878139496 63.71103525161743,43.19918155670166 64.02280330657959,43.4586375951767 64.32425379753113,43.67460012435913 64.640873670578,43.851032853126526 64.9982213973999,43.99152100086212 65.42185544967651,44.099801778793335 65.93732237815857,44.179609417915344 66.17488265037537,44.207409024238586 66.41311645507812,44.235581159591675 66.6517972946167,44.26405131816864 66.89099669456482,44.29274797439575 67.13042855262756,44.32166814804077 67.37000346183777,44.35058534145355 67.60957837104797,44.37965452671051 67.84915924072266,44.40857470035553 70.48301100730896,44.74193453788757 73.13135862350464,45.12147605419159 75.77911019325256,45.566704869270325 78.41116786003113,46.09712064266205 81.01236820220947,46.732306480407715 83.56760740280151,47.491541504859924 86.06186509132385,48.39454889297485 88.47997784614563,49.46076571941376 88.72732520103455,49.57868456840515 89.09199833869934,49.758180975914 89.51241970062256,49.983859062194824 89.92685675621033,50.24077296257019 90.2735948562622,50.51345229148865 90.49105048179626,50.786805152893066 90.51750302314758,51.04566216468811 90.29138088226318,51.274555921554565 90.23690223693848,51.33104920387268 90.18959999084473,51.43073797225952 90.14894962310791,51.56696438789368 90.11442065238953,51.73301100730896 90.0851309299469,51.92199349403381 90.06069302558899,52.12705135345459 90.04036784172058,52.34166979789734 90.02355337142944,52.55867838859558 90.01264572143555,52.720463275909424 90.0030791759491,52.87686586380005 89.9945616722107,53.02497744560242 89.98693823814392,53.161805868148804 89.9799108505249,53.284430503845215 89.97326493263245,53.38972210884094 89.96676206588745,53.47476005554199 89.96018767356873,53.53671312332153 89.9068295955658,53.93702983856201 89.85332250595093,54.33734655380249 89.79982137680054,54.73758578300476 89.74631428718567,55.13767600059509 89.69288468360901,55.53784370422363 89.63952660560608,55.93808889389038 89.5863950252533,56.33832812309265" stroke="white" stroke-width="0.1" /></svg>