<?xml version="1.0" encoding="utf-8" ?>
<svg baseProfile="full" height="98.75288009643555" version="1.1" width="99.99697208404541" xmlns="http://www.w3.org/2000/svg" xmlns:ev="http://www.w3.org/2001/xml-events" xmlns:xlink="http://www.w3.org/1999/xlink"><defs><clipPath /></defs><polygon points="72.89999723434448,56.698864698410034 72.89999723434448,56.698864698410034 70.9823727607727,56.8976104259491 70.9823727607727,56.8976104259491 69.18579936027527,57.466256618499756 69.18579936027527,57.466256618499756 67.55234003067017,58.36326479911804 67.55234003067017,58.36326479911804 66.12260341644287,59.54734683036804 66.12260341644287,59.54734683036804 64.938485622406,60.976964235305786 64.938485622406,60.976964235305786 64.04155492782593,62.61070370674133 64.04155492782593,62.61070370674133 63.47290873527527,64.40707445144653 63.47290873527527,64.40707445144653 63.27412128448486,66.32473468780518 63.27412128448486,66.32473468780518 63.255006074905396,67.30716228485107 63.255006074905396,67.30716228485107 63.246089220047,68.29030513763428 63.246089220047,68.29030513763428 63.2449746131897,69.27392482757568 63.2449746131897,69.27392482757568 63.249272108078,70.25778293609619 63.249272108078,70.25778293609619 63.256603479385376,71.24168276786804 63.256603479385376,71.24168276786804 63.26488256454468,72.22526669502258 63.26488256454468,72.22526669502258 63.27141523361206,73.20840954780579 63.27141523361206,73.20840954780579 63.27412128448486,74.19083714485168 63.27412128448486,74.19083714485168 63.269662857055664,74.93441700935364 63.269662857055664,74.93441700935364 63.259148597717285,75.6803810596466 63.259148597717285,75.6803810596466 63.246726989746094,76.42790675163269 63.246726989746094,76.42790675163269 63.23605179786682,77.1761417388916 63.23605179786682,77.1761417388916 63.23143243789673,77.92426347732544 63.23143243789673,77.92426347732544 63.237011432647705,78.6714255809784 63.237011432647705,78.6714255809784 63.256603479385376,79.41679358482361 63.256603479385376,79.41679358482361 63.294512033462524,80.1595389842987 63.294512033462524,80.1595389842987 63.346755504608154,80.4634153842926 63.346755504608154,80.4634153842926 63.453954458236694,80.86612224578857 63.453954458236694,80.86612224578857 63.58839273452759,81.32824897766113 63.58839273452759,81.32824897766113 63.72218728065491,81.81036114692688 63.72218728065491,81.81036114692688 63.827478885650635,82.2731614112854 63.827478885650635,82.2731614112854 63.87605667114258,82.67722725868225 63.87605667114258,82.67722725868225 63.840216398239136,82.98317193984985 63.840216398239136,82.98317193984985 63.692086935043335,83.1515371799469 63.692086935043335,83.1515371799469 63.535988330841064,83.21461081504822 63.535988330841064,83.21461081504822 63.3797287940979,83.27769041061401 63.3797287940979,83.27769041061401 63.22379112243652,83.34076404571533 63.22379112243652,83.34076404571533 63.067686557769775,83.40384364128113 63.067686557769775,83.40384364128113 62.9117488861084,83.46691727638245 62.9117488861084,83.46691727638245 62.75565028190613,83.52999687194824 62.75565028190613,83.52999687194824 62.599390745162964,83.59307050704956 62.599390745162964,83.59307050704956 62.44329214096069,83.65615010261536 62.44329214096069,83.65615010261536 49.57439303398132,88.85518908500671 49.57439303398132,88.85518908500671 33.510881662368774,95.34634947776794 33.510881662368774,95.34634947776794 32.45211839675903,95.79592943191528 32.45211839675903,95.79592943191528 31.365004181861877,96.28616571426392 31.365004181861877,96.28616571426392 30.25527000427246,96.79225087165833 30.25527000427246,96.79225087165833 29.12849187850952,97.28929996490479 29.12849187850952,97.28929996490479 27.99040377140045,97.75257706642151 27.99040377140045,97.75257706642151 26.846742630004883,98.15719723701477 26.846742630004883,98.15719723701477 25.70323944091797,98.4783947467804 25.70323944091797,98.4783947467804 24.565471708774567,98.69132041931152 24.565471708774567,98.69132041931152 23.225094377994537,98.75288009643555 23.225094377994537,98.75288009643555 21.91179394721985,98.59009385108948 21.91179394721985,98.59009385108948 20.65121829509735,98.21792840957642 20.65121829509735,98.21792840957642 19.469647109508514,97.65135049819946 19.469647109508514,97.65135049819946 18.392565846443176,96.90526127815247 18.392565846443176,96.90526127815247 17.44609773159027,95.994633436203 17.44609773159027,95.994633436203 16.656047105789185,94.93435621261597 16.656047105789185,94.93435621261597 16.048218309879303,93.73948574066162 16.048218309879303,93.73948574066162 15.910916030406952,93.39977502822876 15.910916030406952,93.39977502822876 15.77393114566803,93.05998086929321 15.77393114566803,93.05998086929321 15.63662737607956,92.72026419639587 15.63662737607956,92.72026419639587 15.499642491340637,92.38047003746033 15.499642491340637,92.38047003746033 15.36249965429306,92.04071760177612 15.36249965429306,92.04071760177612 15.225355327129364,91.70096516609192 15.225355327129364,91.70096516609192 15.088210999965668,91.36121273040771 15.088210999965668,91.36121273040771 14.95106816291809,91.02146029472351 14.95106816291809,91.02146029472351 9.322595596313477,77.09108591079712 9.322595596313477,77.09108591079712 2.997094579041004,61.43279671669006 2.997094579041004,61.43279671669006 2.4955082684755325,60.254091024398804 2.4955082684755325,60.254091024398804 1.9467735663056374,59.02059078216553 1.9467735663056374,59.02059078216553 1.3937382027506828,57.745200395584106 1.3937382027506828,57.745200395584106 0.8798868395388126,56.44114017486572 0.8798868395388126,56.44114017486572 0.44822623021900654,55.121392011642456 0.44822623021900654,55.121392011642456 0.14176308177411556,53.7990927696228 0.14176308177411556,53.7990927696228 0.0038228248740779236,52.48730778694153 0.0038228248740779236,52.48730778694153 0.07773077231831849,51.19909048080444 0.07773077231831849,51.19909048080444 0.9021866135299206,52.05066800117493 0.9021866135299206,52.05066800117493 1.8201423808932304,52.805715799331665 1.8201423808932304,52.805715799331665 2.812006138265133,53.47972512245178 2.812006138265133,53.47972512245178 3.858504444360733,54.08850908279419 3.858504444360733,54.08850908279419 4.94004525244236,54.64755892753601 4.94004525244236,54.64755892753601 6.037355214357376,55.17256259918213 6.037355214357376,55.17256259918213 7.1308426558971405,55.6790828704834 7.1308426558971405,55.6790828704834 8.201233297586441,56.18278384208679 8.201233297586441,56.18278384208679 20.0061172246933,61.87496781349182 20.0061172246933,61.87496781349182 32.381874322891235,67.84240007400513 32.381874322891235,67.84240007400513 33.23723077774048,68.26354265213013 33.23723077774048,68.26354265213013 34.096091985702515,68.69815587997437 34.096091985702515,68.69815587997437 34.95909571647644,69.13701891899109 34.95909571647644,69.13701891899109 35.82751452922821,69.57095265388489 35.82751452922821,69.57095265388489 36.70230507850647,69.99078392982483 36.70230507850647,69.99078392982483 37.58394420146942,70.38732171058655 37.58394420146942,70.38732171058655 38.47370445728302,70.75144648551941 38.47370445728302,70.75144648551941 39.37254846096039,71.07396125793457 39.37254846096039,71.07396125793457 42.211154103279114,71.7054009437561 42.211154103279114,71.7054009437561 44.97903883457184,71.74100279808044 44.97903883457184,71.74100279808044 47.622522711753845,71.2265133857727 47.622522711753845,71.2265133857727 50.088244676589966,70.20776867866516 50.088244676589966,70.20776867866516 52.32252478599548,68.73064637184143 52.32252478599548,68.73064637184143 54.27200794219971,66.84101819992065 54.27200794219971,66.84101819992065 55.88269233703613,64.58467245101929 55.88269233703613,64.58467245101929 57.10153579711914,62.007492780685425 57.10153579711914,62.007492780685425 61.420053243637085,50.30328035354614 61.420053243637085,50.30328035354614 67.37219095230103,34.17605459690094 67.37219095230103,34.17605459690094 67.88907051086426,32.83711075782776 67.88907051086426,32.83711075782776 68.44927072525024,31.444087624549866 68.44927072525024,31.444087624549866 69.01425123214722,30.01064956188202 69.01425123214722,30.01064956188202 69.54594254493713,28.55028808116913 69.54594254493713,28.55028808116913 70.00611424446106,27.076590061187744 70.00611424446106,27.076590061187744 70.35654187202454,25.603210926055908 70.35654187202454,25.603210926055908 70.55914998054504,24.143607914447784 70.55914998054504,24.143607914447784 70.5757200717926,22.71140217781067 70.5757200717926,22.71140217781067 71.330726146698,23.374582827091217 71.330726146698,23.374582827091217 71.97168469429016,24.113860726356506 71.97168469429016,24.113860726356506 72.51771092414856,24.915897846221924 72.51771092414856,24.915897846221924 72.98792004585266,25.767430663108826 72.98792004585266,25.767430663108826 73.40189814567566,26.65516436100006 73.40189814567566,26.65516436100006 73.7786054611206,27.565792202949524 73.7786054611206,27.565792202949524 74.13763403892517,28.486019372940063 74.13763403892517,28.486019372940063 74.49793815612793,29.40261960029602 74.49793815612793,29.40261960029602 78.78714799880981,40.01733064651489 78.78714799880981,40.01733064651489 85.5255126953125,56.698864698410034 85.5255126953125,56.698864698410034 72.89999723434448,56.698864698410034 72.89999723434448,56.698864698410034" stroke="white" stroke-width="0.1" /><polygon points="98.7091600894928,59.81064438819885 98.7091600894928,59.81064438819885 99.3209719657898,60.172855854034424 99.3209719657898,60.172855854034424 99.71073865890503,61.143773794174194 99.71073865890503,61.143773794174194 99.92163181304932,62.549376487731934 99.92163181304932,62.549376487731934 99.99697208404541,64.21580910682678 99.99697208404541,64.21580910682678 99.98024702072144,65.9692108631134 99.98024702072144,65.9692108631134 99.91462230682373,67.63572692871094 99.91462230682373,67.63572692871094 99.84342455863953,69.04144883155823 99.84342455863953,69.04144883155823 99.81013536453247,70.01248598098755 99.81013536453247,70.01248598098755 99.81013536453247,77.66705751419067 99.81013536453247,77.66705751419067 99.80137348175049,78.54738235473633 99.80137348175049,78.54738235473633 99.75724816322327,79.4175922870636 99.75724816322327,79.4175922870636 99.65021014213562,80.26219606399536 99.65021014213562,80.26219606399536 99.4530200958252,81.06570839881897 99.4530200958252,81.06570839881897 99.13827180862427,81.81267380714417 99.13827180862427,81.81267380714417 98.67905378341675,82.48755931854248 98.67905378341675,82.48755931854248 98.04764986038208,83.07496309280396 98.04764986038208,83.07496309280396 97.2169816493988,83.5593044757843 97.2169816493988,83.5593044757843 96.69962525367737,83.75076651573181 96.69962525367737,83.75076651573181 96.15375995635986,83.87723565101624 96.15375995635986,83.87723565101624 95.58718800544739,83.95098447799683 95.58718800544739,83.95098447799683 95.00802755355835,83.98411870002747 95.00802755355835,83.98411870002747 94.42440867424011,83.98873805999756 94.42440867424011,83.98873805999756 93.84413957595825,83.9770257472992 93.84413957595825,83.9770257472992 93.27549338340759,83.96105766296387 93.27549338340759,83.96105766296387 92.7264392375946,83.95305275917053 92.7264392375946,83.95305275917053 85.41847467422485,83.95305275917053 85.41847467422485,83.95305275917053 73.02104830741882,83.95305275917053 73.02104830741882,83.95305275917053 71.07634544372559,83.57021808624268 71.07634544372559,83.57021808624268 69.74170207977295,82.52778053283691 69.74170207977295,82.52778053283691 68.90960335731506,80.98471164703369 68.90960335731506,80.98471164703369 68.47125291824341,79.10013794898987 68.47125291824341,79.10013794898987 68.31865906715393,77.03306674957275 68.31865906715393,77.03306674957275 68.3438241481781,74.94257688522339 68.3438241481781,74.94257688522339 68.43811869621277,72.9877233505249 68.43811869621277,72.9877233505249 68.49355101585388,71.32753729820251 68.49355101585388,71.32753729820251 68.48112940788269,70.60669660568237 68.48112940788269,70.60669660568237 68.45182180404663,69.86474990844727 68.45182180404663,69.86474990844727 68.41757297515869,69.10886764526367 68.41757297515869,69.10886764526367 68.39065551757812,68.3466911315918 68.39065551757812,68.3466911315918 68.38300824165344,67.58555173873901 68.38300824165344,67.58555173873901 68.40642094612122,66.83297157287598 68.40642094612122,66.83297157287598 68.47332119941711,66.0963237285614 68.47332119941711,66.0963237285614 68.59549283981323,65.38304686546326 68.59549283981323,65.38304686546326 68.92585158348083,64.39305543899536 68.92585158348083,64.39305543899536 69.41708326339722,63.60574960708618 69.41708326339722,63.60574960708618 70.04498243331909,62.99939751625061 70.04498243331909,62.99939751625061 70.7853376865387,62.552088499069214 70.7853376865387,62.552088499069214 71.61393165588379,62.24212050437927 71.61393165588379,62.24212050437927 72.50624299049377,62.04771399497986 72.50624299049377,62.04771399497986 73.4383761882782,61.947041749954224 73.4383761882782,61.947041749954224 74.38579797744751,61.91829442977905 74.38579797744751,61.91829442977905 87.68413066864014,61.91829442977905 87.68413066864014,61.91829442977905 87.9690945148468,61.932748556137085 87.9690945148468,61.932748556137085 88.384348154068,61.967748403549194 88.384348154068,61.967748403549194 88.88338208198547,62.01103925704956 88.88338208198547,62.01103925704956 89.41921591758728,62.05018162727356 89.41921591758728,62.05018162727356 89.94501233100891,62.072837352752686 89.94501233100891,62.072837352752686 90.41410684585571,62.06666827201843 90.41410684585571,62.06666827201843 90.77966809272766,62.019282579422 90.77966809272766,62.019282579422 90.99469780921936,61.91829442977905 90.99469780921936,61.91829442977905 91.04200601577759,61.8172287940979 91.04200601577759,61.8172287940979 91.06207489967346,61.66009306907654 91.06207489967346,61.66009306907654 91.06366634368896,61.463695764541626 91.06366634368896,61.463695764541626 91.05474948883057,61.24500036239624 91.05474948883057,61.24500036239624 91.04375839233398,61.02084517478943 91.04375839233398,61.02084517478943 91.038978099823,60.80816388130188 91.038978099823,60.80816388130188 91.04869365692139,60.62383055686951 91.04869365692139,60.62383055686951 91.08135104179382,60.484737157821655 91.08135104179382,60.484737157821655 91.17708206176758,60.30573844909668 91.17708206176758,60.30573844909668 91.29495024681091,60.158997774124146 91.29495024681091,60.158997774124146 91.4322555065155,60.04188656806946 91.4322555065155,60.04188656806946 91.5861189365387,59.951770305633545 91.5861189365387,59.951770305633545 91.75353050231934,59.886181354522705 91.75353050231934,59.886181354522705 91.93192720413208,59.84249711036682 91.93192720413208,59.84249711036682 92.1182930469513,59.81816649436951 92.1182930469513,59.81816649436951 92.30974912643433,59.81064438819885 92.30974912643433,59.81064438819885 98.7091600894928,59.81064438819885 98.7091600894928,59.81064438819885" stroke="white" stroke-width="0.1" /><polygon points="71.8143105506897,67.28171706199646 71.8143105506897,67.28171706199646 72.03189730644226,67.8617537021637 72.03189730644226,67.8617537021637 72.61439561843872,68.2366669178009 72.61439561843872,68.2366669178009 73.45765233039856,68.44576597213745 73.45765233039856,68.44576597213745 74.4566798210144,68.52859258651733 74.4566798210144,68.52859258651733 75.50684213638306,68.52441430091858 75.50684213638306,68.52441430091858 76.50364637374878,68.47264766693115 76.50364637374878,68.47264766693115 77.34227776527405,68.4127151966095 77.34227776527405,68.4127151966095 77.91808843612671,68.38396191596985 77.91808843612671,68.38396191596985 78.24573516845703,68.39356422424316 78.24573516845703,68.39356422424316 78.61177325248718,68.41088533401489 78.61177325248718,68.41088533401489 78.99708151817322,68.41864585876465 78.99708151817322,68.41864585876465 79.38255071640015,68.39957237243652 79.38255071640015,68.39957237243652 79.7490656375885,68.33641529083252 79.7490656375885,68.33641529083252 80.07735013961792,68.2119369506836 80.07735013961792,68.2119369506836 80.34844994544983,68.00885200500488 80.34844994544983,68.00885200500488 80.54309487342834,67.70987510681152 80.54309487342834,67.70987510681152 80.62624335289001,67.44972467422485 80.62624335289001,67.44972467422485 80.68645000457764,67.13063716888428 80.68645000457764,67.13063716888428 80.72468042373657,66.77224636077881 80.72468042373657,66.77224636077881 80.74220418930054,66.39418601989746 80.74220418930054,66.39418601989746 80.74029088020325,66.01612567901611 80.74029088020325,66.01612567901611 80.72022199630737,65.65773487091064 80.72022199630737,65.65773487091064 80.68294525146484,65.33864736557007 80.68294525146484,65.33864736557007 80.62974810600281,65.0784969329834 80.62974810600281,65.0784969329834 80.41216135025024,64.49885964393616 80.41216135025024,64.49885964393616 79.82950210571289,64.1243040561676 79.82950210571289,64.1243040561676 78.98609042167664,63.91535997390747 78.98609042167664,63.91535997390747 77.9869019985199,63.83273005485535 77.9869019985199,63.83273005485535 76.93657875061035,63.83699178695679 76.93657875061035,63.83699178695679 75.9397804737091,63.88880014419556 75.9397804737091,63.88880014419556 75.10130405426025,63.94876837730408 75.10130405426025,63.94876837730408 74.5259702205658,63.977521657943726 74.5259702205658,63.977521657943726 74.19863939285278,63.96792531013489 74.19863939285278,63.96792531013489 73.83276224136353,63.95060420036316 73.83276224136353,63.95060420036316 73.44761490821838,63.94279599189758 73.44761490821838,63.94279599189758 73.06198477745056,63.96175026893616 73.06198477745056,63.96175026893616 72.69531488418579,64.02475237846375 72.69531488418579,64.02475237846375 72.36686944961548,64.14899230003357 72.36686944961548,64.14899230003357 72.09560871124268,64.35180306434631 72.09560871124268,64.35180306434631 71.90096378326416,64.65033888816833 71.90096378326416,64.65033888816833 71.80793881416321,64.9413526058197 71.80793881416321,64.9413526058197 71.75633311271667,65.26095271110535 71.75633311271667,65.26095271110535 71.7369019985199,65.60015082359314 71.7369019985199,65.60015082359314 71.74104452133179,65.95025658607483 71.74104452133179,65.95025658607483 71.75967693328857,66.30227565765381 71.75967693328857,66.30227565765381 71.78404927253723,66.6474461555481 71.78404927253723,66.6474461555481 71.8053936958313,66.97688698768616 71.8053936958313,66.97688698768616 71.8143105506897,67.28171706199646 71.8143105506897,67.28171706199646" stroke="white" stroke-width="0.1" /><polygon points="84.15184020996094,80.9062659740448 84.15184020996094,80.9062659740448 85.30012369155884,80.79400658607483 85.30012369155884,80.79400658607483 86.38373613357544,80.4714560508728 86.38373613357544,80.4714560508728 87.37958073616028,79.95995879173279 87.37958073616028,79.95995879173279 88.26392889022827,79.2809247970581 88.26392889022827,79.2809247970581 89.01352286338806,78.45567464828491 89.01352286338806,78.45567464828491 89.60510492324829,77.50550508499146 89.60510492324829,77.50550508499146 90.0151014328003,76.45183801651001 90.0151014328003,76.45183801651001 90.2199387550354,75.31601786613464 90.2199387550354,75.31601786613464 90.17470479011536,73.96349906921387 90.17470479011536,73.96349906921387 89.83749747276306,72.6930022239685 89.83749747276306,72.6930022239685 89.24384713172913,71.53958678245544 89.24384713172913,71.53958678245544 88.42846751213074,70.53796648979187 88.42846751213074,70.53796648979187 87.4264121055603,69.72314715385437 87.4264121055603,69.72314715385437 86.273193359375,69.13005113601685 86.273193359375,69.13005113601685 85.00337600708008,68.79348754882812 85.00337600708008,68.79348754882812 83.65232944488525,68.7484085559845 83.65232944488525,68.7484085559845 81.20842576026917,69.44571137428284 81.20842576026917,69.44571137428284 79.50089573860168,70.90503573417664 79.50089573860168,70.90503573417664 78.51954698562622,72.86288142204285 78.51954698562622,72.86288142204285 78.25433611869812,75.05574822425842 78.25433611869812,75.05574822425842 78.69507670402527,77.22006440162659 78.69507670402527,77.22006440162659 79.83173131942749,79.09225225448608 79.83173131942749,79.09225225448608 81.6539466381073,80.40881752967834 81.6539466381073,80.40881752967834 84.15184020996094,80.9062659740448 84.15184020996094,80.9062659740448" stroke="white" stroke-width="0.1" /><polygon points="3.258321061730385,44.86467242240906 3.258321061730385,44.86467242240906 3.258321061730385,44.86467242240906 3.258321061730385,44.86467242240906 2.7704330161213875,44.61973309516907 2.7704330161213875,44.61973309516907 2.46381051838398,44.23263072967529 2.46381051838398,44.23263072967529 2.308349125087261,43.740323185920715 2.308349125087261,43.740323185920715 2.2731471806764603,43.17992031574249 2.2731471806764603,43.17992031574249 2.327940985560417,42.588379979133606 2.327940985560417,42.588379979133606 2.4424664676189423,42.00273156166077 2.4424664676189423,42.00273156166077 2.585981786251068,41.46004915237427 2.585981786251068,41.46004915237427 2.72822268307209,40.99724888801575 2.72822268307209,40.99724888801575 3.792879357933998,37.783485651016235 3.792879357933998,37.783485651016235 4.915674775838852,34.58378314971924 4.915674775838852,34.58378314971924 6.0830701142549515,31.395506858825684 6.0830701142549515,31.395506858825684 7.281207293272018,28.21595072746277 7.281207293272018,28.21595072746277 8.496865630149841,25.04252791404724 8.496865630149841,25.04252791404724 9.716346114873886,21.872490644454956 9.716346114873886,21.872490644454956 10.92642992734909,18.70325058698654 10.92642992734909,18.70325058698654 12.113257497549057,15.53213745355606 12.113257497549057,15.53213745355606 15.664662420749664,5.904990062117577 15.664662420749664,5.904990062117577 16.329355537891388,4.482739791274071 16.329355537891388,4.482739791274071 17.203348875045776,3.217146173119545 17.203348875045776,3.217146173119545 18.260040879249573,2.129950560629368 18.260040879249573,2.129950560629368 19.473788142204285,1.2428958900272846 19.473788142204285,1.2428958900272846 20.817989110946655,0.5777642130851746 20.817989110946655,0.5777642130851746 22.266680002212524,0.1562579651363194 22.266680002212524,0.1562579651363194 23.793262243270874,0.00015928436596368556 23.793262243270874,0.00015928436596368556 25.372087955474854,0.13125032419338822 25.372087955474854,0.13125032419338822 25.93229115009308,0.2511914586648345 25.93229115009308,0.2511914586648345 26.478159427642822,0.40740957483649254 26.478159427642822,0.40740957483649254 27.012398838996887,0.5938917398452759 27.012398838996887,0.5938917398452759 27.536922693252563,0.8047046139836311 27.536922693252563,0.8047046139836311 28.05459499359131,1.0339148342609406 28.05459499359131,1.0339148342609406 28.5676509141922,1.2755890376865864 28.5676509141922,1.2755890376865864 29.078635573387146,1.5237938612699509 29.078635573387146,1.5237938612699509 29.58993911743164,1.772516407072544 29.58993911743164,1.772516407072544 57.44176506996155,15.204648673534393 57.44176506996155,15.204648673534393 60.86574196815491,16.856108605861664 60.86574196815491,16.856108605861664 61.25583052635193,17.048364877700806 61.25583052635193,17.048364877700806 61.64464354515076,17.251333594322205 61.64464354515076,17.251333594322205 62.0280385017395,17.467720806598663 62.0280385017395,17.467720806598663 62.401723861694336,17.70031601190567 62.401723861694336,17.70031601190567 62.761861085891724,17.9517462849617 62.761861085891724,17.9517462849617 63.10400366783142,18.224799633026123 63.10400366783142,18.224799633026123 63.42448592185974,18.522143363952637 63.42448592185974,18.522143363952637 63.71884346008301,18.846526741981506 63.71884346008301,18.846526741981506 64.00396227836609,19.33242380619049 64.00396227836609,19.33242380619049 64.0656054019928,19.793152809143066 64.0656054019928,19.793152809143066 63.94391059875488,20.225371420383453 63.94391059875488,20.225371420383453 63.679659366607666,20.625892281532288 63.679659366607666,20.625892281532288 63.313305377960205,20.991449058055878 63.313305377960205,20.991449058055878 62.885308265686035,21.318858861923218 62.885308265686035,21.318858861923218 62.43612766265869,21.604853868484497 62.43612766265869,21.604853868484497 62.00621724128723,21.846169233322144 62.00621724128723,21.846169233322144 61.19577884674072,22.25656509399414 61.19577884674072,22.25656509399414 60.36479473114014,22.637534141540527 60.36479473114014,22.637534141540527 59.51867699623108,22.995087504386902 59.51867699623108,22.995087504386902 58.662521839141846,23.335477709770203 58.662521839141846,23.335477709770203 57.801586389541626,23.664718866348267 57.801586389541626,23.664718866348267 56.94113373756409,23.988983035087585 56.94113373756409,23.988983035087585 56.08625411987305,24.314360320568085 56.08625411987305,24.314360320568085 55.24236559867859,24.647025763988495 55.24236559867859,24.647025763988495 24.564197659492493,37.040624022483826 24.564197659492493,37.040624022483826 11.218716204166412,42.43335425853729 11.218716204166412,42.43335425853729 10.371960699558258,42.7984356880188 10.371960699558258,42.7984356880188 9.414184093475342,43.23435723781586 9.414184093475342,43.23435723781586 8.379790931940079,43.69699954986572 8.379790931940079,43.69699954986572 7.303029298782349,44.14215683937073 7.303029298782349,44.14215683937073 6.218143180012703,44.52567398548126 6.218143180012703,44.52567398548126 5.159539356827736,44.8033481836319 5.159539356827736,44.8033481836319 4.161463305354118,44.93113458156586 4.161463305354118,44.93113458156586" stroke="white" stroke-width="0.1" /><polygon points="72.89999723434448,56.698864698410034 70.9823727607727,56.8976104259491 69.18579936027527,57.466256618499756 67.55234003067017,58.36326479911804 66.12260341644287,59.54734683036804 64.938485622406,60.976964235305786 64.04155492782593,62.61070370674133 63.47290873527527,64.40707445144653 63.27412128448486,66.32473468780518 63.255006074905396,67.30716228485107 63.246089220047,68.29030513763428 63.2449746131897,69.27392482757568 63.249272108078,70.25778293609619 63.256603479385376,71.24168276786804 63.26488256454468,72.22526669502258 63.27141523361206,73.20840954780579 63.27412128448486,74.19083714485168 63.269662857055664,74.93441700935364 63.259148597717285,75.6803810596466 63.246726989746094,76.42790675163269 63.23605179786682,77.1761417388916 63.23143243789673,77.92426347732544 63.237011432647705,78.6714255809784 63.256603479385376,79.41679358482361 63.294512033462524,80.1595389842987 63.346755504608154,80.4634153842926 63.453954458236694,80.86612224578857 63.58839273452759,81.32824897766113 63.72218728065491,81.81036114692688 63.827478885650635,82.2731614112854 63.87605667114258,82.67722725868225 63.840216398239136,82.98317193984985 63.692086935043335,83.1515371799469 63.535988330841064,83.21461081504822 63.3797287940979,83.27769041061401 63.22379112243652,83.34076404571533 63.067686557769775,83.40384364128113 62.9117488861084,83.46691727638245 62.75565028190613,83.52999687194824 62.599390745162964,83.59307050704956 62.44329214096069,83.65615010261536 49.57439303398132,88.85518908500671 33.510881662368774,95.34634947776794 32.45211839675903,95.79592943191528 31.365004181861877,96.28616571426392 30.25527000427246,96.79225087165833 29.12849187850952,97.28929996490479 27.99040377140045,97.75257706642151 26.846742630004883,98.15719723701477 25.70323944091797,98.4783947467804 24.565471708774567,98.69132041931152 23.225094377994537,98.75288009643555 21.91179394721985,98.59009385108948 20.65121829509735,98.21792840957642 19.469647109508514,97.65135049819946 18.392565846443176,96.90526127815247 17.44609773159027,95.994633436203 16.656047105789185,94.93435621261597 16.048218309879303,93.73948574066162 15.910916030406952,93.39977502822876 15.77393114566803,93.05998086929321 15.63662737607956,92.72026419639587 15.499642491340637,92.38047003746033 15.36249965429306,92.04071760177612 15.225355327129364,91.70096516609192 15.088210999965668,91.36121273040771 14.95106816291809,91.02146029472351 9.322595596313477,77.09108591079712 2.997094579041004,61.43279671669006 2.4955082684755325,60.254091024398804 1.9467735663056374,59.02059078216553 1.3937382027506828,57.745200395584106 0.8798868395388126,56.44114017486572 0.44822623021900654,55.121392011642456 0.14176308177411556,53.7990927696228 0.0038228248740779236,52.48730778694153 0.07773077231831849,51.19909048080444 0.9021866135299206,52.05066800117493 1.8201423808932304,52.805715799331665 2.812006138265133,53.47972512245178 3.858504444360733,54.08850908279419 4.94004525244236,54.64755892753601 6.037355214357376,55.17256259918213 7.1308426558971405,55.6790828704834 8.201233297586441,56.18278384208679 20.0061172246933,61.87496781349182 32.381874322891235,67.84240007400513 33.23723077774048,68.26354265213013 34.096091985702515,68.69815587997437 34.95909571647644,69.13701891899109 35.82751452922821,69.57095265388489 36.70230507850647,69.99078392982483 37.58394420146942,70.38732171058655 38.47370445728302,70.75144648551941 39.37254846096039,71.07396125793457 42.211154103279114,71.7054009437561 44.97903883457184,71.74100279808044 47.622522711753845,71.2265133857727 50.088244676589966,70.20776867866516 52.32252478599548,68.73064637184143 54.27200794219971,66.84101819992065 55.88269233703613,64.58467245101929 57.10153579711914,62.007492780685425 61.420053243637085,50.30328035354614 67.37219095230103,34.17605459690094 67.88907051086426,32.83711075782776 68.44927072525024,31.444087624549866 69.01425123214722,30.01064956188202 69.54594254493713,28.55028808116913 70.00611424446106,27.076590061187744 70.35654187202454,25.603210926055908 70.55914998054504,24.143607914447784 70.5757200717926,22.71140217781067 71.330726146698,23.374582827091217 71.97168469429016,24.113860726356506 72.51771092414856,24.915897846221924 72.98792004585266,25.767430663108826 73.40189814567566,26.65516436100006 73.7786054611206,27.565792202949524 74.13763403892517,28.486019372940063 74.49793815612793,29.40261960029602 78.78714799880981,40.01733064651489 85.5255126953125,56.698864698410034 72.89999723434448,56.698864698410034" stroke="white" stroke-width="0.1" /><polygon points="3.258321061730385,44.86467242240906 3.258321061730385,44.86467242240906 2.7704330161213875,44.61973309516907 2.46381051838398,44.23263072967529 2.308349125087261,43.740323185920715 2.2731471806764603,43.17992031574249 2.327940985560417,42.588379979133606 2.4424664676189423,42.00273156166077 2.585981786251068,41.46004915237427 2.72822268307209,40.99724888801575 3.792879357933998,37.783485651016235 4.915674775838852,34.58378314971924 6.0830701142549515,31.395506858825684 7.281207293272018,28.21595072746277 8.496865630149841,25.04252791404724 9.716346114873886,21.872490644454956 10.92642992734909,18.70325058698654 12.113257497549057,15.53213745355606 15.664662420749664,5.904990062117577 16.329355537891388,4.482739791274071 17.203348875045776,3.217146173119545 18.260040879249573,2.129950560629368 19.473788142204285,1.2428958900272846 20.817989110946655,0.5777642130851746 22.266680002212524,0.1562579651363194 23.793262243270874,0.00015928436596368556 25.372087955474854,0.13125032419338822 25.93229115009308,0.2511914586648345 26.478159427642822,0.40740957483649254 27.012398838996887,0.5938917398452759 27.536922693252563,0.8047046139836311 28.05459499359131,1.0339148342609406 28.5676509141922,1.2755890376865864 29.078635573387146,1.5237938612699509 29.58993911743164,1.772516407072544 57.44176506996155,15.204648673534393 60.86574196815491,16.856108605861664 61.25583052635193,17.048364877700806 61.64464354515076,17.251333594322205 62.0280385017395,17.467720806598663 62.401723861694336,17.70031601190567 62.761861085891724,17.9517462849617 63.10400366783142,18.224799633026123 63.42448592185974,18.522143363952637 63.71884346008301,18.846526741981506 64.00396227836609,19.33242380619049 64.0656054019928,19.793152809143066 63.94391059875488,20.225371420383453 63.679659366607666,20.625892281532288 63.313305377960205,20.991449058055878 62.885308265686035,21.318858861923218 62.43612766265869,21.604853868484497 62.00621724128723,21.846169233322144 61.19577884674072,22.25656509399414 60.36479473114014,22.637534141540527 59.51867699623108,22.995087504386902 58.662521839141846,23.335477709770203 57.801586389541626,23.664718866348267 56.94113373756409,23.988983035087585 56.08625411987305,24.314360320568085 55.24236559867859,24.647025763988495 24.564197659492493,37.040624022483826 11.218716204166412,42.43335425853729 10.371960699558258,42.7984356880188 9.414184093475342,43.23435723781586 8.379790931940079,43.69699954986572 7.303029298782349,44.14215683937073 6.218143180012703,44.52567398548126 5.159539356827736,44.8033481836319 4.161463305354118,44.93113458156586" stroke="white" stroke-width="0.1" /><polygon points="98.7091600894928,59.81064438819885 99.3209719657898,60.172855854034424 99.71073865890503,61.143773794174194 99.92163181304932,62.549376487731934 99.99697208404541,64.21580910682678 99.98024702072144,65.9692108631134 99.91462230682373,67.63572692871094 99.84342455863953,69.04144883155823 99.81013536453247,70.01248598098755 99.81013536453247,77.66705751419067 99.80137348175049,78.54738235473633 99.75724816322327,79.4175922870636 84.15184020996094,80.9062659740448 85.30012369155884,80.79400658607483 86.38373613357544,80.4714560508728 87.37958073616028,79.95995879173279 88.26392889022827,79.2809247970581 89.01352286338806,78.45567464828491 89.60510492324829,77.50550508499146 90.0151014328003,76.45183801651001 90.2199387550354,75.31601786613464 90.17470479011536,73.96349906921387 89.83749747276306,72.6930022239685 89.24384713172913,71.53958678245544 88.42846751213074,70.53796648979187 87.4264121055603,69.72314715385437 86.273193359375,69.13005113601685 85.00337600708008,68.79348754882812 83.65232944488525,68.7484085559845 81.20842576026917,69.44571137428284 79.50089573860168,70.90503573417664 78.51954698562622,72.86288142204285 78.25433611869812,75.05574822425842 78.69507670402527,77.22006440162659 79.83173131942749,79.09225225448608 81.6539466381073,80.40881752967834 84.15184020996094,80.9062659740448 84.15184020996094,80.9062659740448 99.75724816322327,79.4175922870636 99.65021014213562,80.26219606399536 99.4530200958252,81.06570839881897 99.13827180862427,81.81267380714417 98.67905378341675,82.48755931854248 98.04764986038208,83.07496309280396 97.2169816493988,83.5593044757843 96.69962525367737,83.75076651573181 96.15375995635986,83.87723565101624 95.58718800544739,83.95098447799683 95.00802755355835,83.98411870002747 94.42440867424011,83.98873805999756 93.84413957595825,83.9770257472992 93.27549338340759,83.96105766296387 92.7264392375946,83.95305275917053 85.41847467422485,83.95305275917053 73.02104830741882,83.95305275917053 71.8143105506897,67.28171706199646 72.03189730644226,67.8617537021637 72.61439561843872,68.2366669178009 73.45765233039856,68.44576597213745 74.4566798210144,68.52859258651733 75.50684213638306,68.52441430091858 76.50364637374878,68.47264766693115 77.34227776527405,68.4127151966095 77.91808843612671,68.38396191596985 78.24573516845703,68.39356422424316 78.61177325248718,68.41088533401489 78.99708151817322,68.41864585876465 79.38255071640015,68.39957237243652 79.7490656375885,68.33641529083252 80.07735013961792,68.2119369506836 80.34844994544983,68.00885200500488 80.54309487342834,67.70987510681152 80.62624335289001,67.44972467422485 80.68645000457764,67.13063716888428 80.72468042373657,66.77224636077881 80.74220418930054,66.39418601989746 80.74029088020325,66.01612567901611 80.72022199630737,65.65773487091064 80.68294525146484,65.33864736557007 80.62974810600281,65.0784969329834 80.41216135025024,64.49885964393616 79.82950210571289,64.1243040561676 78.98609042167664,63.91535997390747 77.9869019985199,63.83273005485535 76.93657875061035,63.83699178695679 75.9397804737091,63.88880014419556 75.10130405426025,63.94876837730408 74.5259702205658,63.977521657943726 74.19863939285278,63.96792531013489 73.83276224136353,63.95060420036316 73.44761490821838,63.94279599189758 73.06198477745056,63.96175026893616 72.69531488418579,64.02475237846375 72.36686944961548,64.14899230003357 72.09560871124268,64.35180306434631 71.90096378326416,64.65033888816833 71.80793881416321,64.9413526058197 71.75633311271667,65.26095271110535 71.7369019985199,65.60015082359314 71.74104452133179,65.95025658607483 71.75967693328857,66.30227565765381 71.78404927253723,66.6474461555481 71.8053936958313,66.97688698768616 71.8143105506897,67.28171706199646 71.8143105506897,67.28171706199646 73.02104830741882,83.95305275917053 71.07634544372559,83.57021808624268 69.74170207977295,82.52778053283691 68.90960335731506,80.98471164703369 68.47125291824341,79.10013794898987 68.31865906715393,77.03306674957275 68.3438241481781,74.94257688522339 68.43811869621277,72.9877233505249 68.49355101585388,71.32753729820251 68.48112940788269,70.60669660568237 68.45182180404663,69.86474990844727 68.41757297515869,69.10886764526367 68.39065551757812,68.3466911315918 68.38300824165344,67.58555173873901 68.40642094612122,66.83297157287598 68.47332119941711,66.0963237285614 68.59549283981323,65.38304686546326 68.92585158348083,64.39305543899536 69.41708326339722,63.60574960708618 70.04498243331909,62.99939751625061 70.7853376865387,62.552088499069214 71.61393165588379,62.24212050437927 72.50624299049377,62.04771399497986 73.4383761882782,61.947041749954224 74.38579797744751,61.91829442977905 87.68413066864014,61.91829442977905 87.9690945148468,61.932748556137085 88.384348154068,61.967748403549194 88.88338208198547,62.01103925704956 89.41921591758728,62.05018162727356 89.94501233100891,62.072837352752686 90.41410684585571,62.06666827201843 90.77966809272766,62.019282579422 90.99469780921936,61.91829442977905 91.04200601577759,61.8172287940979 91.06207489967346,61.66009306907654 91.06366634368896,61.463695764541626 91.05474948883057,61.24500036239624 91.04375839233398,61.02084517478943 91.038978099823,60.80816388130188 91.04869365692139,60.62383055686951 91.08135104179382,60.484737157821655 91.17708206176758,60.30573844909668 91.29495024681091,60.158997774124146 91.4322555065155,60.04188656806946 91.5861189365387,59.951770305633545 91.75353050231934,59.886181354522705 91.93192720413208,59.84249711036682 92.1182930469513,59.81816649436951 92.30974912643433,59.81064438819885 98.7091600894928,59.81064438819885" stroke="white" stroke-width="0.1" /></svg>