<?xml version="1.0" encoding="utf-8" ?>
<svg baseProfile="full" height="99.75519180297852" version="1.1" width="99.99935626983643" xmlns="http://www.w3.org/2000/svg" xmlns:ev="http://www.w3.org/2001/xml-events" xmlns:xlink="http://www.w3.org/1999/xlink"><defs><clipPath /></defs><polygon points="67.67582893371582,76.43715739250183 67.67582893371582,76.43715739250183 67.67582893371582,76.43715739250183 67.67582893371582,76.43715739250183 68.26713681221008,76.96225643157959 68.26713681221008,76.96225643157959 68.89545321464539,77.40240097045898 68.89545321464539,77.40240097045898 69.55755949020386,77.76232957839966 69.55755949020386,77.76232957839966 70.24990916252136,78.04632186889648 70.24990916252136,78.04632186889648 70.96913456916809,78.25918793678284 70.96913456916809,78.25918793678284 71.71217203140259,78.40569019317627 71.71217203140259,78.40569019317627 72.47515916824341,78.49008440971375 72.47515916824341,78.49008440971375 73.2545554637909,78.51727604866028 73.2545554637909,78.51727604866028 73.5116720199585,78.50601077079773 73.5116720199585,78.50601077079773 73.94337058067322,78.47874164581299 73.94337058067322,78.47874164581299 74.48769211769104,78.44502925872803 74.48769211769104,78.44502925872803 75.08270144462585,78.41445803642273 75.08270144462585,78.41445803642273 75.66644549369812,78.39676141738892 75.66644549369812,78.39676141738892 76.17714405059814,78.40158939361572 76.17714405059814,78.40158939361572 76.5526831150055,78.43859195709229 76.5526831150055,78.43859195709229 76.73128247261047,78.51727604866028 76.73128247261047,78.51727604866028 76.78341865539551,78.74913215637207 76.78341865539551,78.74913215637207 76.68124437332153,78.95299196243286 76.68124437332153,78.95299196243286 76.46450996398926,79.1303038597107 76.46450996398926,79.1303038597107 76.17392539978027,79.28187251091003 76.17392539978027,79.28187251091003 75.84955096244812,79.40914034843445 75.84955096244812,79.40914034843445 75.53145289421082,79.51316237449646 75.53145289421082,79.51316237449646 75.26033520698547,79.59530353546143 75.26033520698547,79.59530353546143 75.07594227790833,79.65644598007202 75.07594227790833,79.65644598007202 46.99052572250366,91.0044014453888 46.99052572250366,91.0044014453888 32.38466680049896,96.90621495246887 32.38466680049896,96.90621495246887 31.486845016479492,97.28577733039856 31.486845016479492,97.28577733039856 30.566495656967163,97.69607186317444 30.566495656967163,97.69607186317444 29.628127813339233,98.11714887619019 29.628127813339233,98.11714887619019 28.675922751426697,98.52937459945679 28.675922751426697,98.52937459945679 27.714061737060547,98.91279935836792 27.714061737060547,98.91279935836792 26.747211813926697,99.24779534339905 26.747211813926697,99.24779534339905 25.779399275779724,99.51440095901489 25.779399275779724,99.51440095901489 24.81464296579361,99.69300031661987 24.81464296579361,99.69300031661987 23.461152613162994,99.75519180297852 23.461152613162994,99.75519180297852 22.134853899478912,99.59067106246948 22.134853899478912,99.59067106246948 20.861811935901642,99.21481013298035 20.861811935901642,99.21481013298035 19.668255746364594,98.64232540130615 19.668255746364594,98.64232540130615 18.58041137456894,97.88851141929626 18.58041137456894,97.88851141929626 17.624343931674957,96.96848392486572 17.624343931674957,96.96848392486572 16.82627946138382,95.89704871177673 16.82627946138382,95.89704871177673 16.212284564971924,94.68965530395508 16.212284564971924,94.68965530395508 16.07374995946884,94.34685707092285 16.07374995946884,94.34685707092285 15.93521535396576,94.00405883789062 15.93521535396576,94.00405883789062 15.796680748462677,93.6610221862793 15.796680748462677,93.6610221862793 15.658146142959595,93.31798553466797 15.658146142959595,93.31798553466797 15.5194491147995,92.97494292259216 15.5194491147995,92.97494292259216 15.38107544183731,92.63174533843994 15.38107544183731,92.63174533843994 15.242379903793335,92.28854775428772 15.242379903793335,92.28854775428772 15.104006230831146,91.94534420967102 15.104006230831146,91.94534420967102 9.418442845344543,77.87367701530457 9.418442845344543,77.87367701530457 3.0287817120552063,62.056559324264526 3.0287817120552063,62.056559324264526 2.522590383887291,60.86621880531311 2.522590383887291,60.86621880531311 1.9681289792060852,59.62021350860596 1.9681289792060852,59.62021350860596 1.4093232341110706,58.33180546760559 1.4093232341110706,58.33180546760559 0.8899379521608353,57.01427459716797 0.8899379521608353,57.01427459716797 0.4534162115305662,55.68089485168457 0.4534162115305662,55.68089485168457 0.14368371339514852,54.345107078552246 0.14368371339514852,54.345107078552246 0.004022500434075482,53.02001237869263 0.004022500434075482,53.02001237869263 0.07851920672692358,51.71905755996704 0.07851920672692358,51.71905755996704 0.9113376960158348,52.57946848869324 0.9113376960158348,52.57946848869324 1.8387652933597565,53.342217206954956 1.8387652933597565,53.342217206954956 2.8408505022525787,54.023146629333496 2.8408505022525787,54.023146629333496 3.8982853293418884,54.63802218437195 3.8982853293418884,54.63802218437195 4.991118237376213,55.202704668045044 4.991118237376213,55.202704668045044 6.099719554185867,55.73294758796692 6.099719554185867,55.73294758796692 7.204458862543106,56.24452829360962 7.204458862543106,56.24452829360962 8.285707235336304,56.75329566001892 8.285707235336304,56.75329566001892 20.210328698158264,62.50321865081787 20.210328698158264,62.50321865081787 32.71161615848541,68.53117346763611 32.71161615848541,68.53117346763611 33.575648069381714,68.95667314529419 33.575648069381714,68.95667314529419 34.44305956363678,69.39569115638733 34.44305956363678,69.39569115638733 35.314977169036865,69.83897089958191 35.314977169036865,69.83897089958191 36.19220554828644,70.27726173400879 36.19220554828644,70.27726173400879 37.075868248939514,70.70131301879883 37.075868248939514,70.70131301879883 37.96628713607788,71.10187411308289 37.96628713607788,71.10187411308289 38.865235447883606,71.46969437599182 38.865235447883606,71.46969437599182 39.77319598197937,71.79551720619202 39.77319598197937,71.79551720619202 42.64059364795685,72.43332266807556 42.64059364795685,72.43332266807556 45.43655514717102,72.46912121772766 45.43655514717102,72.46912121772766 48.106849193573,71.94933295249939 48.106849193573,71.94933295249939 50.59758424758911,70.92005610466003 50.59758424758911,70.92005610466003 52.85436511039734,69.42787170410156 52.85436511039734,69.42787170410156 54.82361912727356,67.51911640167236 54.82361912727356,67.51911640167236 56.45080208778381,65.24004936218262 56.45080208778381,65.24004936218262 57.68200755119324,62.63708472251892 57.68200755119324,62.63708472251892 62.044328451156616,50.81479549407959 62.044328451156616,50.81479549407959 68.05684566497803,34.52335000038147 68.05684566497803,34.52335000038147 68.57896447181702,33.17050337791443 68.57896447181702,33.17050337791443 69.14452910423279,31.76335096359253 69.14452910423279,31.76335096359253 69.71507668495178,30.315491557121277 69.71507668495178,30.315491557121277 70.25200128555298,28.840520977973938 70.25200128555298,28.840520977973938 70.71667909622192,27.352195978164673 70.71667909622192,27.352195978164673 71.07049822807312,25.863870978355408 71.07049822807312,25.863870978355408 71.27516269683838,24.389545619487762 71.27516269683838,24.389545619487762 71.29157781600952,22.94241040945053 71.29157781600952,22.94241040945053 71.9591498374939,23.515938222408295 71.9591498374939,23.515938222408295 72.53066897392273,24.13990944623947 72.53066897392273,24.13990944623947 73.02157282829285,24.8078852891922 73.02157282829285,24.8078852891922 73.44715595245361,25.513511896133423 73.44715595245361,25.513511896133423 73.82285594940186,26.250353455543518 73.82285594940186,26.250353455543518 74.16396141052246,27.01205611228943 74.16396141052246,27.01205611228943 74.4860827922821,27.792099118232727 74.4860827922821,27.792099118232727 74.80434775352478,28.584209084510803 74.80434775352478,28.584209084510803 78.09829115867615,36.73733472824097 78.09829115867615,36.73733472824097 83.41056704521179,49.88737106323242 83.41056704521179,49.88737106323242 81.83599710464478,50.142478942871094 81.83599710464478,50.142478942871094 80.47494292259216,50.68768858909607 80.47494292259216,50.68768858909607 79.3264389038086,51.486074924468994 79.3264389038086,51.486074924468994 78.38919758796692,52.50079035758972 78.38919758796692,52.50079035758972 77.66209244728088,53.69482636451721 77.66209244728088,53.69482636451721 77.14431285858154,55.031341314315796 77.14431285858154,55.031341314315796 76.83442234992981,56.473326683044434 76.83442234992981,56.473326683044434 76.73128247261047,57.98385739326477 76.73128247261047,57.98385739326477 76.73128247261047,61.37434244155884 76.73128247261047,61.37434244155884 76.61736607551575,61.39734983444214 76.61736607551575,61.39734983444214 76.31487250328064,61.41151189804077 76.31487250328064,61.41151189804077 75.8830189704895,61.41859292984009 75.8830189704895,61.41859292984009 75.38036704063416,61.42036318778992 75.38036704063416,61.42036318778992 74.86613392829895,61.41859292984009 74.86613392829895,61.41859292984009 74.39935803413391,61.41521334648132 74.39935803413391,61.41521334648132 74.03910756111145,61.41191124916077 74.03910756111145,61.41191124916077 73.84409308433533,61.41038537025452 73.84409308433533,61.41038537025452 72.34418392181396,61.507487297058105 72.34418392181396,61.507487297058105 70.90429067611694,61.80153489112854 70.90429067611694,61.80153489112854 69.56238150596619,62.29662299156189 69.56238150596619,62.29662299156189 68.3556318283081,62.99685835838318 68.3556318283081,62.99685835838318 67.32184886932373,63.90634775161743 67.32184886932373,63.90634775161743 66.49836301803589,65.02918601036072 66.49836301803589,65.02918601036072 65.92298746109009,66.36948585510254 65.92298746109009,66.36948585510254 65.63304662704468,67.93134212493896 65.63304662704468,67.93134212493896 65.56192636489868,69.05329823493958 65.56192636489868,69.05329823493958 65.54036736488342,70.192950963974 65.54036736488342,70.192950963974 65.59040546417236,71.3330864906311 65.59040546417236,71.3330864906311 65.73392748832703,72.45649099349976 65.73392748832703,72.45649099349976 65.99233746528625,73.54578375816345 65.99233746528625,73.54578375816345 66.38766527175903,74.58391189575195 66.38766527175903,74.58391189575195 66.94164276123047,75.55341720581055 66.94164276123047,75.55341720581055" stroke="white" stroke-width="0.1" /><polygon points="99.35253858566284,67.21179485321045 99.35253858566284,67.21179485321045 99.35253858566284,67.21179485321045 99.35253858566284,67.21179485321045 99.62220788002014,67.58918762207031 99.62220788002014,67.58918762207031 99.80981349945068,68.07284951210022 99.80981349945068,68.07284951210022 99.92710947990417,68.63133907318115 99.92710947990417,68.63133907318115 99.98632073402405,69.23286318778992 99.98632073402405,69.23286318778992 99.99935626983643,69.84605193138123 99.99935626983643,69.84605193138123 99.97828006744385,70.4394519329071 99.97828006744385,70.4394519329071 99.93499517440796,70.98135948181152 99.93499517440796,70.98135948181152 99.88157749176025,71.44024968147278 99.88157749176025,71.44024968147278 99.66951012611389,72.27837443351746 99.66951012611389,72.27837443351746 99.09670948982239,72.83983826637268 99.09670948982239,72.83983826637268 98.25857877731323,73.1753945350647 98.25857877731323,73.1753945350647 97.25021719932556,73.3359694480896 97.25021719932556,73.3359694480896 96.16687893867493,73.37233424186707 96.16687893867493,73.37233424186707 95.1039731502533,73.33548665046692 95.1039731502533,73.33548665046692 94.15643215179443,73.27595353126526 94.15643215179443,73.27595353126526 93.41983199119568,73.24490547180176 93.41983199119568,73.24490547180176 89.38446044921875,73.24490547180176 89.38446044921875,73.24490547180176 89.16820883750916,73.24249148368835 89.16820883750916,73.24249148368835 89.00859951972961,73.24184775352478 89.00859951972961,73.24184775352478 88.89725804328918,73.25262427330017 88.89725804328918,73.25262427330017 88.82533311843872,73.28448295593262 88.82533311843872,73.28448295593262 88.78430128097534,73.34707379341125 88.78430128097534,73.34707379341125 88.76596093177795,73.45021367073059 88.76596093177795,73.45021367073059 88.76113295555115,73.60338568687439 88.76113295555115,73.60338568687439 88.76145482063293,73.81641864776611 88.76145482063293,73.81641864776611 88.76145482063293,81.62714838981628 88.76145482063293,81.62714838981628 88.76773118972778,81.97662234306335 88.76773118972778,81.97662234306335 88.77819180488586,82.34009742736816 88.77819180488586,82.34009742736816 88.78044486045837,82.70968198776245 88.78044486045837,82.70968198776245 88.76193761825562,83.07766318321228 88.76193761825562,83.07766318321228 88.71029019355774,83.43614935874939 88.71029019355774,83.43614935874939 88.61326575279236,83.77741575241089 88.61326575279236,83.77741575241089 88.45800161361694,84.09342765808105 88.45800161361694,84.09342765808105 88.23241591453552,84.37660932540894 88.23241591453552,84.37660932540894 87.87232041358948,84.6450686454773 87.87232041358948,84.6450686454773 87.44497299194336,84.8203718662262 87.44497299194336,84.8203718662262 86.96870803833008,84.92013216018677 86.96870803833008,84.92013216018677 86.46283745765686,84.96212363243103 86.46283745765686,84.96212363243103 85.94586849212646,84.96397733688354 85.94586849212646,84.96397733688354 85.43677926063538,84.94330048561096 85.43677926063538,84.94330048561096 84.95455980300903,84.91804003715515 84.95455980300903,84.91804003715515 84.5175564289093,84.90564823150635 84.5175564289093,84.90564823150635 83.4768533706665,84.75930690765381 83.4768533706665,84.75930690765381 82.7540934085846,84.35360193252563 82.7540934085846,84.35360193252563 82.29440450668335,83.73832106590271 82.29440450668335,83.73832106590271 82.04227089881897,82.96326398849487 82.04227089881897,82.96326398849487 81.94235563278198,82.07839131355286 81.94235563278198,82.07839131355286 81.93961977958679,81.13374710083008 81.93961977958679,81.13374710083008 81.97855353355408,80.1788866519928 81.97855353355408,80.1788866519928 82.003653049469,79.26384806632996 82.003653049469,79.26384806632996 82.003653049469,73.29124212265015 82.003653049469,73.29124212265015 81.74718022346497,73.26187491416931 81.74718022346497,73.26187491416931 81.0667335987091,73.2437789440155 81.0667335987091,73.2437789440155 80.09570240974426,73.23476672172546 80.09570240974426,73.23476672172546 78.96730899810791,73.23235273361206 78.96730899810791,73.23235273361206 77.81510949134827,73.23444485664368 77.81510949134827,73.23444485664368 76.77247524261475,73.2387900352478 76.77247524261475,73.2387900352478 75.97312331199646,73.24297428131104 75.97312331199646,73.24297428131104 75.54963231086731,73.24490547180176 75.54963231086731,73.24490547180176 74.65551495552063,73.25367331504822 74.65551495552063,73.25367331504822 73.8012969493866,73.25021028518677 73.8012969493866,73.25021028518677 73.01143407821655,73.18963408470154 73.01143407821655,73.18963408470154 72.31055498123169,73.02736639976501 72.31055498123169,73.02736639976501 71.72278761863708,72.71859645843506 71.72278761863708,72.71859645843506 71.27290964126587,72.21851944923401 71.27290964126587,72.21851944923401 70.98506093025208,71.48256301879883 70.98506093025208,71.48256301879883 70.88353633880615,70.46583890914917 70.88353633880615,70.46583890914917 70.87259292602539,69.9488639831543 70.87259292602539,69.9488639831543 70.85779309272766,69.39585208892822 70.85779309272766,69.39585208892822 70.86647748947144,68.83214116096497 70.86647748947144,68.83214116096497 70.92617154121399,68.28323006629944 70.92617154121399,68.28323006629944 71.06406688690186,67.77454614639282 71.06406688690186,67.77454614639282 71.3076651096344,67.33166575431824 71.3076651096344,67.33166575431824 71.68416976928711,66.97977781295776 71.68416976928711,66.97977781295776 72.22093343734741,66.7445421218872 72.22093343734741,66.7445421218872 72.50009775161743,66.6861355304718 72.50009775161743,66.6861355304718 72.79164791107178,66.652911901474 72.79164791107178,66.652911901474 73.0914056301117,66.63955450057983 73.0914056301117,66.63955450057983 73.39550256729126,66.64076447486877 73.39550256729126,66.64076447486877 73.70024919509888,66.65105819702148 73.70024919509888,66.65105819702148 74.00145530700684,66.66505932807922 74.00145530700684,66.66505932807922 74.29525852203369,66.67744517326355 74.29525852203369,66.67744517326355 74.577796459198,66.68275594711304 74.577796459198,66.68275594711304 81.92899823188782,66.68275594711304 81.92899823188782,66.68275594711304 81.97694420814514,66.44631624221802 81.97694420814514,66.44631624221802 82.00638890266418,65.81888198852539 82.00638890266418,65.81888198852539 82.0210337638855,64.92299437522888 82.0210337638855,64.92299437522888 82.02473521232605,63.8815701007843 82.02473521232605,63.8815701007843 82.0210337638855,62.81721591949463 82.0210337638855,62.81721591949463 82.01395273208618,61.852699518203735 82.01395273208618,61.852699518203735 82.00687170028687,61.110711097717285 82.00687170028687,61.110711097717285 82.003653049469,60.71401238441467 82.003653049469,60.71401238441467 81.97742700576782,59.91707444190979 81.97742700576782,59.91707444190979 81.93286061286926,59.02206301689148 81.93286061286926,59.02206301689148 81.92127346992493,58.0921471118927 81.92127346992493,58.0921471118927 81.99352025985718,57.189977169036865 81.99352025985718,57.189977169036865 82.20092058181763,56.378722190856934 82.20092058181763,56.378722190856934 82.59496092796326,55.721282958984375 82.59496092796326,55.721282958984375 83.22649598121643,55.280739068984985 83.22649598121643,55.280739068984985 84.14684534072876,55.11983633041382 84.14684534072876,55.11983633041382 84.57499742507935,55.10793328285217 84.57499742507935,55.10793328285217 85.04546880722046,55.08106350898743 85.04546880722046,55.08106350898743 85.54216623306274,55.05290627479553 85.54216623306274,55.05290627479553 86.04932427406311,55.03681302070618 86.04932427406311,55.03681302070618 86.55068874359131,55.0463080406189 86.55068874359131,55.0463080406189 87.03001141548157,55.094897747039795 87.03001141548157,55.094897747039795 87.47168183326721,55.195945501327515 87.47168183326721,55.195945501327515 87.85912990570068,55.36311864852905 87.85912990570068,55.36311864852905 88.21085691452026,55.62739968299866 88.21085691452026,55.62739968299866 88.45992684364319,55.9423565864563 88.45992684364319,55.9423565864563 88.62372636795044,56.29770755767822 88.62372636795044,56.29770755767822 88.71914148330688,56.68346285820007 88.71914148330688,56.68346285820007 88.76338601112366,57.08933472633362 88.76338601112366,57.08933472633362 88.77384662628174,57.505178451538086 88.77384662628174,57.505178451538086 88.767409324646,57.920944690704346 88.767409324646,57.920944690704346 88.76145482063293,58.326256275177 88.76145482063293,58.326256275177 88.76145482063293,64.73007202148438 88.76145482063293,64.73007202148438 88.76145482063293,66.6377067565918 88.76145482063293,66.6377067565918 88.80490064620972,66.66771173477173 88.80490064620972,66.66771173477173 88.92074823379517,66.68597459793091 88.92074823379517,66.68597459793091 89.08743858337402,66.69498682022095 89.08743858337402,66.69498682022095 89.28261399269104,66.69691801071167 89.28261399269104,66.69691801071167 89.4848644733429,66.69425964355469 89.4848644733429,66.69425964355469 89.67214822769165,66.68951511383057 89.67214822769165,66.68951511383057 89.82275128364563,66.68484807014465 89.82275128364563,66.68484807014465 89.91478681564331,66.68275594711304 89.91478681564331,66.68275594711304 92.09916591644287,66.68275594711304 92.09916591644287,66.68275594711304 96.60436511039734,66.68275594711304 96.60436511039734,66.68275594711304 96.9539999961853,66.67647957801819 96.9539999961853,66.67647957801819 97.31715321540833,66.66602492332458 97.31715321540833,66.66602492332458 97.68625497817993,66.66377186775208 97.68625497817993,66.66377186775208 98.05375337600708,66.68227314949036 98.05375337600708,66.68227314949036 98.41175675392151,66.73384308815002 98.41175675392151,66.73384308815002 98.75254034996033,66.83094501495361 98.75254034996033,66.83094501495361 99.06887412071228,66.98613166809082 99.06887412071228,66.98613166809082" stroke="white" stroke-width="0.1" /><polygon points="3.2913707196712494,45.320382714271545 3.2913707196712494,45.320382714271545 3.2913707196712494,45.320382714271545 3.2913707196712494,45.320382714271545 2.799338288605213,45.07291913032532 2.799338288605213,45.07291913032532 2.490088529884815,44.68185305595398 2.490088529884815,44.68185305595398 2.3332109674811363,44.18443143367767 2.3332109674811363,44.18443143367767 2.2978130728006363,43.618303537368774 2.2978130728006363,43.618303537368774 2.3531626909971237,43.02071928977966 2.3531626909971237,43.02071928977966 2.4688497185707092,42.4291729927063 2.4688497185707092,42.4291729927063 2.6136597618460655,41.88098609447479 2.6136597618460655,41.88098609447479 2.7571825310587883,41.41373038291931 2.7571825310587883,41.41373038291931 3.8311902433633804,38.16717267036438 3.8311902433633804,38.16717267036438 4.964409023523331,34.9349319934845 4.964409023523331,34.9349319934845 6.143323332071304,31.71427845954895 6.143323332071304,31.71427845954895 7.353773713111877,28.502550721168518 7.353773713111877,28.502550721168518 8.582084625959396,25.297021865844727 8.582084625959396,25.297021865844727 9.814579039812088,22.09486961364746 9.814579039812088,22.09486961364746 11.037097126245499,18.893523514270782 11.037097126245499,18.893523514270782 12.236124277114868,15.690325200557709 12.236124277114868,15.690325200557709 15.824837982654572,5.965528637170792 15.824837982654572,5.965528637170792 16.495952010154724,4.528933018445969 16.495952010154724,4.528933018445969 17.378488183021545,3.250502049922943 17.378488183021545,3.250502049922943 18.44605952501297,2.1523594856262207 18.44605952501297,2.1523594856262207 19.67211812734604,1.2563073076307774 19.67211812734604,1.2563073076307774 21.030114591121674,0.5843888502568007 21.030114591121674,0.5843888502568007 22.493499517440796,0.1584865152835846 22.493499517440796,0.1584865152835846 24.03588742017746,0.0005631500243907794 24.03588742017746,0.0005631500243907794 25.630727410316467,0.13258160324767232 25.630727410316467,0.13258160324767232 26.196613907814026,0.2541817957535386 26.196613907814026,0.2541817957535386 26.748016476631165,0.41218558326363564 26.748016476631165,0.41218558326363564 27.287515997886658,0.6006397306919098 27.287515997886658,0.6006397306919098 27.81752049922943,0.813671387732029 27.81752049922943,0.813671387732029 28.340443968772888,1.045206468552351 28.340443968772888,1.045206468552351 28.85870337486267,1.289211306720972 28.85870337486267,1.289211306720972 29.374870657920837,1.5398935414850712 29.374870657920837,1.5398935414850712 29.89135980606079,1.7911389470100403 29.89135980606079,1.7911389470100403 58.02569389343262,15.360158681869507 58.02569389343262,15.360158681869507 58.45819115638733,15.56844413280487 58.45819115638733,15.56844413280487 58.89052748680115,15.776889026165009 58.89052748680115,15.776889026165009 59.32286977767944,15.985254943370819 59.32286977767944,15.985254943370819 59.75504517555237,16.193701326847076 59.75504517555237,16.193701326847076 60.18722057342529,16.402147710323334 60.18722057342529,16.402147710323334 60.61972379684448,16.61067306995392 60.61972379684448,16.61067306995392 61.05189919471741,16.819199919700623 61.05189919471741,16.819199919700623 61.48439645767212,17.027726769447327 61.48439645767212,17.027726769447327 61.87812089920044,17.221932113170624 61.87812089920044,17.221932113170624 62.270718812942505,17.42691993713379 62.270718812942505,17.42691993713379 62.65784502029419,17.64558255672455 62.65784502029419,17.64558255672455 63.035476207733154,17.880496382713318 63.035476207733154,17.880496382713318 63.39942812919617,18.134477734565735 63.39942812919617,18.134477734565735 63.74520659446716,18.410339951515198 63.74520659446716,18.410339951515198 64.06909823417664,18.710659444332123 64.06909823417664,18.710659444332123 64.36644196510315,19.038332998752594 64.36644196510315,19.038332998752594 64.65445160865784,19.52899694442749 64.65445160865784,19.52899694442749 64.7163987159729,19.994239509105682 64.7163987159729,19.994239509105682 64.59330916404724,20.4308420419693 64.59330916404724,20.4308420419693 64.32621479034424,20.835424959659576 64.32621479034424,20.835424959659576 63.95582556724548,21.204690635204315 63.95582556724548,21.204690635204315 63.523322343826294,21.535420417785645 63.523322343826294,21.535420417785645 63.06942701339722,21.824155747890472 63.06942701339722,21.824155747890472 62.6351535320282,22.067758440971375 62.6351535320282,22.067758440971375 61.81681752204895,22.482720017433167 61.81681752204895,22.482720017433167 60.977888107299805,22.867752611637115 60.977888107299805,22.867752611637115 60.123348236083984,23.22913408279419 60.123348236083984,23.22913408279419 59.25866961479187,23.572897911071777 59.25866961479187,23.572897911071777 58.389002084732056,23.905397951602936 58.389002084732056,23.905397951602936 57.5198233127594,24.232828617095947 57.5198233127594,24.232828617095947 56.656432151794434,24.56122636795044 56.656432151794434,24.56122636795044 55.80398440361023,24.897024035453796 55.80398440361023,24.897024035453796 24.81464296579361,37.41762042045593 24.81464296579361,37.41762042045593 11.333796381950378,42.8644061088562 11.333796381950378,42.8644061088562 10.477647930383682,43.233510851860046 10.477647930383682,43.233510851860046 9.50983390212059,43.674054741859436 9.50983390212059,43.674054741859436 8.464949578046799,44.14130747318268 8.464949578046799,44.14130747318268 7.377265393733978,44.59078311920166 7.377265393733978,44.59078311920166 6.2815360724925995,44.97798979282379 6.2815360724925995,44.97798979282379 5.212194845080376,45.258358120918274 5.212194845080376,45.258358120918274 4.203995317220688,45.38731873035431 4.203995317220688,45.38731873035431" stroke="white" stroke-width="0.1" /><polygon points="67.67582893371582,76.43715739250183 67.67582893371582,76.43715739250183 68.26713681221008,76.96225643157959 68.89545321464539,77.40240097045898 69.55755949020386,77.76232957839966 70.24990916252136,78.04632186889648 70.96913456916809,78.25918793678284 71.71217203140259,78.40569019317627 72.47515916824341,78.49008440971375 73.2545554637909,78.51727604866028 73.5116720199585,78.50601077079773 73.94337058067322,78.47874164581299 74.48769211769104,78.44502925872803 75.08270144462585,78.41445803642273 75.66644549369812,78.39676141738892 76.17714405059814,78.40158939361572 76.5526831150055,78.43859195709229 76.73128247261047,78.51727604866028 76.78341865539551,78.74913215637207 76.68124437332153,78.95299196243286 76.46450996398926,79.1303038597107 76.17392539978027,79.28187251091003 75.84955096244812,79.40914034843445 75.53145289421082,79.51316237449646 75.26033520698547,79.59530353546143 75.07594227790833,79.65644598007202 46.99052572250366,91.0044014453888 32.38466680049896,96.90621495246887 31.486845016479492,97.28577733039856 30.566495656967163,97.69607186317444 29.628127813339233,98.11714887619019 28.675922751426697,98.52937459945679 27.714061737060547,98.91279935836792 26.747211813926697,99.24779534339905 25.779399275779724,99.51440095901489 24.81464296579361,99.69300031661987 23.461152613162994,99.75519180297852 22.134853899478912,99.59067106246948 20.861811935901642,99.21481013298035 19.668255746364594,98.64232540130615 18.58041137456894,97.88851141929626 17.624343931674957,96.96848392486572 16.82627946138382,95.89704871177673 16.212284564971924,94.68965530395508 16.07374995946884,94.34685707092285 15.93521535396576,94.00405883789062 15.796680748462677,93.6610221862793 15.658146142959595,93.31798553466797 15.5194491147995,92.97494292259216 15.38107544183731,92.63174533843994 15.242379903793335,92.28854775428772 15.104006230831146,91.94534420967102 9.418442845344543,77.87367701530457 3.0287817120552063,62.056559324264526 2.522590383887291,60.86621880531311 1.9681289792060852,59.62021350860596 1.4093232341110706,58.33180546760559 0.8899379521608353,57.01427459716797 0.4534162115305662,55.68089485168457 0.14368371339514852,54.345107078552246 0.004022500434075482,53.02001237869263 0.07851920672692358,51.71905755996704 0.9113376960158348,52.57946848869324 1.8387652933597565,53.342217206954956 2.8408505022525787,54.023146629333496 3.8982853293418884,54.63802218437195 4.991118237376213,55.202704668045044 6.099719554185867,55.73294758796692 7.204458862543106,56.24452829360962 8.285707235336304,56.75329566001892 20.210328698158264,62.50321865081787 32.71161615848541,68.53117346763611 33.575648069381714,68.95667314529419 34.44305956363678,69.39569115638733 35.314977169036865,69.83897089958191 36.19220554828644,70.27726173400879 37.075868248939514,70.70131301879883 37.96628713607788,71.10187411308289 38.865235447883606,71.46969437599182 39.77319598197937,71.79551720619202 42.64059364795685,72.43332266807556 45.43655514717102,72.46912121772766 48.106849193573,71.94933295249939 50.59758424758911,70.92005610466003 52.85436511039734,69.42787170410156 54.82361912727356,67.51911640167236 56.45080208778381,65.24004936218262 57.68200755119324,62.63708472251892 62.044328451156616,50.81479549407959 68.05684566497803,34.52335000038147 68.57896447181702,33.17050337791443 69.14452910423279,31.76335096359253 69.71507668495178,30.315491557121277 70.25200128555298,28.840520977973938 70.71667909622192,27.352195978164673 71.07049822807312,25.863870978355408 71.27516269683838,24.389545619487762 71.29157781600952,22.94241040945053 71.9591498374939,23.515938222408295 72.53066897392273,24.13990944623947 73.02157282829285,24.8078852891922 73.44715595245361,25.513511896133423 73.82285594940186,26.250353455543518 74.16396141052246,27.01205611228943 74.4860827922821,27.792099118232727 74.80434775352478,28.584209084510803 78.09829115867615,36.73733472824097 83.41056704521179,49.88737106323242 81.83599710464478,50.142478942871094 80.47494292259216,50.68768858909607 79.3264389038086,51.486074924468994 78.38919758796692,52.50079035758972 77.66209244728088,53.69482636451721 77.14431285858154,55.031341314315796 76.83442234992981,56.473326683044434 76.73128247261047,57.98385739326477 76.73128247261047,61.37434244155884 76.61736607551575,61.39734983444214 76.31487250328064,61.41151189804077 75.8830189704895,61.41859292984009 75.38036704063416,61.42036318778992 74.86613392829895,61.41859292984009 74.39935803413391,61.41521334648132 74.03910756111145,61.41191124916077 73.84409308433533,61.41038537025452 72.34418392181396,61.507487297058105 70.90429067611694,61.80153489112854 69.56238150596619,62.29662299156189 68.3556318283081,62.99685835838318 67.32184886932373,63.90634775161743 66.49836301803589,65.02918601036072 65.92298746109009,66.36948585510254 65.63304662704468,67.93134212493896 65.56192636489868,69.05329823493958 65.54036736488342,70.192950963974 65.59040546417236,71.3330864906311 65.73392748832703,72.45649099349976 65.99233746528625,73.54578375816345 66.38766527175903,74.58391189575195 66.94164276123047,75.55341720581055" stroke="white" stroke-width="0.1" /><polygon points="99.35253858566284,67.21179485321045 99.35253858566284,67.21179485321045 99.62220788002014,67.58918762207031 99.80981349945068,68.07284951210022 99.92710947990417,68.63133907318115 99.98632073402405,69.23286318778992 99.99935626983643,69.84605193138123 99.97828006744385,70.4394519329071 99.93499517440796,70.98135948181152 99.88157749176025,71.44024968147278 99.66951012611389,72.27837443351746 99.09670948982239,72.83983826637268 98.25857877731323,73.1753945350647 97.25021719932556,73.3359694480896 96.16687893867493,73.37233424186707 95.1039731502533,73.33548665046692 94.15643215179443,73.27595353126526 93.41983199119568,73.24490547180176 89.38446044921875,73.24490547180176 89.16820883750916,73.24249148368835 89.00859951972961,73.24184775352478 88.89725804328918,73.25262427330017 88.82533311843872,73.28448295593262 88.78430128097534,73.34707379341125 88.76596093177795,73.45021367073059 88.76113295555115,73.60338568687439 88.76145482063293,73.81641864776611 88.76145482063293,81.62714838981628 88.76773118972778,81.97662234306335 88.77819180488586,82.34009742736816 88.78044486045837,82.70968198776245 88.76193761825562,83.07766318321228 88.71029019355774,83.43614935874939 88.61326575279236,83.77741575241089 88.45800161361694,84.09342765808105 88.23241591453552,84.37660932540894 87.87232041358948,84.6450686454773 87.44497299194336,84.8203718662262 86.96870803833008,84.92013216018677 86.46283745765686,84.96212363243103 85.94586849212646,84.96397733688354 85.43677926063538,84.94330048561096 84.95455980300903,84.91804003715515 84.5175564289093,84.90564823150635 83.4768533706665,84.75930690765381 82.7540934085846,84.35360193252563 82.29440450668335,83.73832106590271 82.04227089881897,82.96326398849487 81.94235563278198,82.07839131355286 81.93961977958679,81.13374710083008 81.97855353355408,80.1788866519928 82.003653049469,79.26384806632996 82.003653049469,73.29124212265015 81.74718022346497,73.26187491416931 81.0667335987091,73.2437789440155 80.09570240974426,73.23476672172546 78.96730899810791,73.23235273361206 77.81510949134827,73.23444485664368 76.77247524261475,73.2387900352478 75.97312331199646,73.24297428131104 75.54963231086731,73.24490547180176 74.65551495552063,73.25367331504822 73.8012969493866,73.25021028518677 73.01143407821655,73.18963408470154 72.31055498123169,73.02736639976501 71.72278761863708,72.71859645843506 71.27290964126587,72.21851944923401 70.98506093025208,71.48256301879883 70.88353633880615,70.46583890914917 70.87259292602539,69.9488639831543 70.85779309272766,69.39585208892822 70.86647748947144,68.83214116096497 70.92617154121399,68.28323006629944 71.06406688690186,67.77454614639282 71.3076651096344,67.33166575431824 71.68416976928711,66.97977781295776 72.22093343734741,66.7445421218872 72.50009775161743,66.6861355304718 72.79164791107178,66.652911901474 73.0914056301117,66.63955450057983 73.39550256729126,66.64076447486877 73.70024919509888,66.65105819702148 74.00145530700684,66.66505932807922 74.29525852203369,66.67744517326355 74.577796459198,66.68275594711304 81.92899823188782,66.68275594711304 81.97694420814514,66.44631624221802 82.00638890266418,65.81888198852539 82.0210337638855,64.92299437522888 82.02473521232605,63.8815701007843 82.0210337638855,62.81721591949463 82.01395273208618,61.852699518203735 82.00687170028687,61.110711097717285 82.003653049469,60.71401238441467 81.97742700576782,59.91707444190979 81.93286061286926,59.02206301689148 81.92127346992493,58.0921471118927 81.99352025985718,57.189977169036865 82.20092058181763,56.378722190856934 82.59496092796326,55.721282958984375 83.22649598121643,55.280739068984985 84.14684534072876,55.11983633041382 84.57499742507935,55.10793328285217 85.04546880722046,55.08106350898743 85.54216623306274,55.05290627479553 86.04932427406311,55.03681302070618 86.55068874359131,55.0463080406189 87.03001141548157,55.094897747039795 87.47168183326721,55.195945501327515 87.85912990570068,55.36311864852905 88.21085691452026,55.62739968299866 88.45992684364319,55.9423565864563 88.62372636795044,56.29770755767822 88.71914148330688,56.68346285820007 88.76338601112366,57.08933472633362 88.77384662628174,57.505178451538086 88.767409324646,57.920944690704346 88.76145482063293,58.326256275177 88.76145482063293,64.73007202148438 88.76145482063293,66.6377067565918 88.80490064620972,66.66771173477173 88.92074823379517,66.68597459793091 89.08743858337402,66.69498682022095 89.28261399269104,66.69691801071167 89.4848644733429,66.69425964355469 89.67214822769165,66.68951511383057 89.82275128364563,66.68484807014465 89.91478681564331,66.68275594711304 92.09916591644287,66.68275594711304 96.60436511039734,66.68275594711304 96.9539999961853,66.67647957801819 97.31715321540833,66.66602492332458 97.68625497817993,66.66377186775208 98.05375337600708,66.68227314949036 98.41175675392151,66.73384308815002 98.75254034996033,66.83094501495361 99.06887412071228,66.98613166809082" stroke="white" stroke-width="0.1" /><polygon points="3.2913707196712494,45.320382714271545 3.2913707196712494,45.320382714271545 2.799338288605213,45.07291913032532 2.490088529884815,44.68185305595398 2.3332109674811363,44.18443143367767 2.2978130728006363,43.618303537368774 2.3531626909971237,43.02071928977966 2.4688497185707092,42.4291729927063 2.6136597618460655,41.88098609447479 2.7571825310587883,41.41373038291931 3.8311902433633804,38.16717267036438 4.964409023523331,34.9349319934845 6.143323332071304,31.71427845954895 7.353773713111877,28.502550721168518 8.582084625959396,25.297021865844727 9.814579039812088,22.09486961364746 11.037097126245499,18.893523514270782 12.236124277114868,15.690325200557709 15.824837982654572,5.965528637170792 16.495952010154724,4.528933018445969 17.378488183021545,3.250502049922943 18.44605952501297,2.1523594856262207 19.67211812734604,1.2563073076307774 21.030114591121674,0.5843888502568007 22.493499517440796,0.1584865152835846 24.03588742017746,0.0005631500243907794 25.630727410316467,0.13258160324767232 26.196613907814026,0.2541817957535386 26.748016476631165,0.41218558326363564 27.287515997886658,0.6006397306919098 27.81752049922943,0.813671387732029 28.340443968772888,1.045206468552351 28.85870337486267,1.289211306720972 29.374870657920837,1.5398935414850712 29.89135980606079,1.7911389470100403 58.02569389343262,15.360158681869507 58.45819115638733,15.56844413280487 58.89052748680115,15.776889026165009 59.32286977767944,15.985254943370819 59.75504517555237,16.193701326847076 60.18722057342529,16.402147710323334 60.61972379684448,16.61067306995392 61.05189919471741,16.819199919700623 61.48439645767212,17.027726769447327 61.87812089920044,17.221932113170624 62.270718812942505,17.42691993713379 62.65784502029419,17.64558255672455 63.035476207733154,17.880496382713318 63.39942812919617,18.134477734565735 63.74520659446716,18.410339951515198 64.06909823417664,18.710659444332123 64.36644196510315,19.038332998752594 64.65445160865784,19.52899694442749 64.7163987159729,19.994239509105682 64.59330916404724,20.4308420419693 64.32621479034424,20.835424959659576 63.95582556724548,21.204690635204315 63.523322343826294,21.535420417785645 63.06942701339722,21.824155747890472 62.6351535320282,22.067758440971375 61.81681752204895,22.482720017433167 60.977888107299805,22.867752611637115 60.123348236083984,23.22913408279419 59.25866961479187,23.572897911071777 58.389002084732056,23.905397951602936 57.5198233127594,24.232828617095947 56.656432151794434,24.56122636795044 55.80398440361023,24.897024035453796 24.81464296579361,37.41762042045593 11.333796381950378,42.8644061088562 10.477647930383682,43.233510851860046 9.50983390212059,43.674054741859436 8.464949578046799,44.14130747318268 7.377265393733978,44.59078311920166 6.2815360724925995,44.97798979282379 5.212194845080376,45.258358120918274 4.203995317220688,45.38731873035431" stroke="white" stroke-width="0.1" /></svg>