<?xml version="1.0" encoding="utf-8" ?>
<svg baseProfile="full" height="99.96077418327332" version="1.1" width="99.88550543785095" xmlns="http://www.w3.org/2000/svg" xmlns:ev="http://www.w3.org/2001/xml-events" xmlns:xlink="http://www.w3.org/1999/xlink"><defs><clipPath /></defs><polygon points="91.07109904289246,21.539244055747986 91.07109904289246,21.539244055747986 91.07109904289246,21.539244055747986 91.07109904289246,21.539244055747986 91.70151948928833,22.469379007816315 91.70151948928833,22.469379007816315 92.31098890304565,23.413443565368652 92.31098890304565,23.413443565368652 92.89922714233398,24.37094897031784 92.89922714233398,24.37094897031784 93.4658408164978,25.34140646457672 93.4658408164978,25.34140646457672 94.01054382324219,26.324328780174255 94.01054382324219,26.324328780174255 94.53307390213013,27.319228649139404 94.53307390213013,27.319228649139404 95.03303170204163,28.325611352920532 95.03303170204163,28.325611352920532 95.51013112068176,29.34299111366272 95.51013112068176,29.34299111366272 98.70911836624146,38.86893093585968 98.70911836624146,38.86893093585968 99.88550543785095,48.60748648643494 99.88550543785095,48.60748648643494 99.14889335632324,58.27553868293762 99.14889335632324,58.27553868293762 96.60889506340027,67.58922338485718 96.60889506340027,67.58922338485718 92.37511157989502,76.26543045043945 92.37511157989502,76.26543045043945 86.55715584754944,84.02066826820374 86.55715584754944,84.02066826820374 79.26463484764099,90.57145118713379 79.26463484764099,90.57145118713379 70.60715556144714,95.63428163528442 70.60715556144714,95.63428163528442 61.57200336456299,98.70829582214355 61.57200336456299,98.70829582214355 52.31100916862488,99.96077418327332 52.31100916862488,99.96077418327332 43.07396709918976,99.4773805141449 43.07396709918976,99.4773805141449 34.11072790622711,97.34364151954651 34.11072790622711,97.34364151954651 25.671055912971497,93.64522099494934 25.671055912971497,93.64522099494934 18.004712462425232,88.4676456451416 18.004712462425232,88.4676456451416 11.361556500196457,81.89682960510254 11.361556500196457,81.89682960510254 5.991378054022789,74.0178108215332 5.991378054022789,74.0178108215332 2.2563589736819267,65.23309350013733 2.2563589736819267,65.23309350013733 0.32329270616173744,56.08839988708496 0.32329270616173744,56.08839988708496 0.12485092738643289,46.83971703052521 0.12485092738643289,46.83971703052521 1.5936439856886864,37.74230778217316 1.5936439856886864,37.74230778217316 4.662282392382622,29.051926732063293 4.662282392382622,29.051926732063293 9.263376146554947,21.023954451084137 9.263376146554947,21.023954451084137 15.32953679561615,13.914631307125092 15.32953679561615,13.914631307125092 22.79343456029892,7.978728413581848 22.79343456029892,7.978728413581848 27.13838219642639,5.476089194417 27.13838219642639,5.476089194417 31.697839498519897,3.4341182559728622 31.697839498519897,3.4341182559728622 36.4284873008728,1.8597807735204697 36.4284873008728,1.8597807735204697 41.28725528717041,0.760286208242178 41.28725528717041,0.760286208242178 46.230918169021606,0.14259949093684554 46.230918169021606,0.14259949093684554 51.216310262680054,0.013563447282649577 51.216310262680054,0.013563447282649577 56.2002956867218,0.38063188549131155 56.2002956867218,0.38063188549131155 61.13962531089783,1.250280998647213 61.13962531089783,1.250280998647213 62.57795691490173,1.6028085723519325 62.57795691490173,1.6028085723519325 64.00505304336548,1.9981035962700844 64.00505304336548,1.9981035962700844 65.41968584060669,2.4355553090572357 65.41968584060669,2.4355553090572357 66.820627450943,2.915041521191597 66.820627450943,2.915041521191597 68.20675730705261,3.435828909277916 68.20675730705261,3.435828909277916 69.57681775093079,3.9976734668016434 69.57681775093079,3.9976734668016434 70.92968225479126,4.600086063146591 70.92968225479126,4.600086063146591 72.26409316062927,5.242577940225601 72.26409316062927,5.242577940225601 72.86503911018372,5.548305436968803 72.86503911018372,5.548305436968803 73.46177101135254,5.862097442150116 73.46177101135254,5.862097442150116 74.0541934967041,6.1837103217840195 74.0541934967041,6.1837103217840195 74.64221715927124,6.513387709856033 74.64221715927124,6.513387709856033 75.22575259208679,6.851007044315338 75.22575259208679,6.851007044315338 75.80470442771912,7.196202874183655 75.80470442771912,7.196202874183655 76.37901306152344,7.5494639575481415 76.37901306152344,7.5494639575481415 76.94849371910095,7.910300046205521 76.94849371910095,7.910300046205521 77.31431126594543,8.160308003425598 77.31431126594543,8.160308003425598 77.60570645332336,8.375367522239685 77.60570645332336,8.375367522239685 77.84978747367859,8.547171205282211 77.84978747367859,8.547171205282211 78.07352542877197,8.667409420013428 78.07352542877197,8.667409420013428 78.30401062965393,8.727773278951645 78.30401062965393,8.727773278951645 78.56828570365906,8.719585835933685 78.56828570365906,8.719585835933685 78.8933515548706,8.635272830724716 78.8933515548706,8.635272830724716 79.30633425712585,8.465546369552612 79.30633425712585,8.465546369552612 79.63176369667053,8.320747315883636 79.63176369667053,8.320747315883636 79.96125817298889,8.185113221406937 79.96125817298889,8.185113221406937 80.29454350471497,8.058887720108032 80.29454350471497,8.058887720108032 80.63139915466309,7.942559570074081 80.63139915466309,7.942559570074081 80.97155094146729,7.836495339870453 80.97155094146729,7.836495339870453 81.31473064422607,7.741063088178635 81.31473064422607,7.741063088178635 81.66072368621826,7.656749337911606 81.66072368621826,7.656749337911606 82.0092499256134,7.583799958229065 82.0092499256134,7.583799958229065 84.93183255195618,7.450731843709946 84.93183255195618,7.450731843709946 87.44868040084839,8.14637765288353 87.44868040084839,8.14637765288353 89.50695991516113,9.524472802877426 89.50695991516113,9.524472802877426 91.05386734008789,11.438996344804764 91.05386734008789,11.438996344804764 92.03654527664185,13.743804395198822 92.03654527664185,13.743804395198822 92.40220785140991,16.29275530576706 92.40220785140991,16.29275530576706 92.09797978401184,18.940071761608124 92.09797978401184,18.940071761608124" stroke="white" stroke-width="0.1" /><polygon points="84.26835536956787,19.12275105714798 84.26835536956787,19.12275105714798 84.26835536956787,19.12275105714798 84.26835536956787,19.12275105714798 85.14793515205383,17.82713532447815 85.14793515205383,17.82713532447815 85.48387289047241,16.692082583904266 85.48387289047241,16.692082583904266 85.35648584365845,15.765735507011414 85.35648584365845,15.765735507011414 84.84621047973633,15.095750987529755 84.84621047973633,15.095750987529755 84.03337597846985,14.730025827884674 84.03337597846985,14.730025827884674 82.99828171730042,14.716340601444244 82.99828171730042,14.716340601444244 81.82140588760376,15.102715790271759 81.82140588760376,15.102715790271759 80.58300614356995,15.936928987503052 80.58300614356995,15.936928987503052 80.34809231758118,16.162008047103882 80.34809231758118,16.162008047103882 80.02715110778809,16.49290770292282 80.02715110778809,16.49290770292282 79.64697480201721,16.887713968753815 79.64697480201721,16.887713968753815 79.2344868183136,17.304271459579468 79.2344868183136,17.304271459579468 78.81646156311035,17.700299620628357 78.81646156311035,17.700299620628357 78.41982245445251,18.033763766288757 78.41982245445251,18.033763766288757 78.07138562202454,18.262632191181183 78.07138562202454,18.262632191181183 77.79797911643982,18.34462434053421 77.79797911643982,18.34462434053421 77.21182107925415,17.845098674297333 77.21182107925415,17.845098674297333 76.61557793617249,17.35779196023941 76.61557793617249,17.35779196023941 76.00952982902527,16.882704198360443 76.00952982902527,16.882704198360443 75.39395093917847,16.41995906829834 75.39395093917847,16.41995906829834 74.76911544799805,15.96967726945877 74.76911544799805,15.96967726945877 74.13529753684998,15.532103180885315 74.13529753684998,15.532103180885315 73.49280714988708,15.107358992099762 73.49280714988708,15.107358992099762 72.8418231010437,14.695446193218231 72.8418231010437,14.695446193218231 70.12076377868652,13.158254325389862 70.12076377868652,13.158254325389862 67.29101538658142,11.842111498117447 67.29101538658142,11.842111498117447 64.36970829963684,10.747627168893814 64.36970829963684,10.747627168893814 61.37399077415466,9.874922782182693 61.37399077415466,9.874922782182693 58.320993185043335,9.224244207143784 58.320993185043335,9.224244207143784 55.22785186767578,8.795956522226334 55.22785186767578,8.795956522226334 52.11171507835388,8.590183407068253 52.11171507835388,8.590183407068253 48.989707231521606,8.60729068517685 48.989707231521606,8.60729068517685 42.64995455741882,9.365011006593704 42.64995455741882,9.365011006593704 36.57139241695404,11.064107716083527 36.57139241695404,11.064107716083527 30.859103798866272,13.639695942401886 30.859103798866272,13.639695942401886 25.61817467212677,17.02725887298584 25.61817467212677,17.02725887298584 20.95375508069992,21.16178870201111 20.95375508069992,21.16178870201111 16.970928013324738,25.9786456823349 16.970928013324738,25.9786456823349 13.77481073141098,31.412944197654724 13.77481073141098,31.412944197654724 11.470521986484528,37.39992380142212 11.470521986484528,37.39992380142212 10.420271009206772,41.94526672363281 10.420271009206772,41.94526672363281 9.884637594223022,46.58750891685486 9.884637594223022,46.58750891685486 9.863650798797607,51.26445293426514 9.863650798797607,51.26445293426514 10.357219725847244,55.91439604759216 10.357219725847244,55.91439604759216 11.365313827991486,60.47501564025879 11.365313827991486,60.47501564025879 12.887963652610779,64.88447785377502 12.887963652610779,64.88447785377502 14.925046265125275,69.08096075057983 14.925046265125275,69.08096075057983 17.476563155651093,73.00214171409607 17.476563155651093,73.00214171409607 17.86745935678482,73.53710532188416 17.86745935678482,73.53710532188416 18.42740923166275,74.29567575454712 18.42740923166275,74.29567575454712 19.104909896850586,75.17058253288269 19.104909896850586,75.17058253288269 19.848455488681793,76.05403661727905 19.848455488681793,76.05403661727905 20.606665313243866,76.83815360069275 20.606665313243866,76.83815360069275 21.327970921993256,77.41575837135315 21.327970921993256,77.41575837135315 21.960993111133575,77.67859697341919 21.960993111133575,77.67859697341919 22.45422601699829,77.51938104629517 22.45422601699829,77.51938104629517 26.593154668807983,73.37947487831116 26.593154668807983,73.37947487831116 26.790374517440796,73.18225502967834 26.790374517440796,73.18225502967834 26.98759436607361,72.98479080200195 26.98759436607361,72.98479080200195 27.18481421470642,72.78757095336914 27.18481421470642,72.78757095336914 27.382034063339233,72.59010672569275 27.382034063339233,72.59010672569275 27.579253911972046,72.39264249801636 27.579253911972046,72.39264249801636 27.77647376060486,72.19542264938354 27.77647376060486,72.19542264938354 27.97369360923767,71.9980776309967 27.97369360923767,71.9980776309967 28.170913457870483,71.80073857307434 28.170913457870483,71.80073857307434 28.068333864212036,71.6896653175354 28.068333864212036,71.6896653175354 27.805739641189575,71.38454914093018 27.805739641189575,71.38454914093018 27.43329405784607,70.9453821182251 27.43329405784607,70.9453821182251 27.00115740299225,70.43168544769287 27.00115740299225,70.43168544769287 26.559430360794067,69.90332007408142 26.559430360794067,69.90332007408142 26.158270239830017,69.42004561424255 26.158270239830017,69.42004561424255 25.847777724266052,69.04186010360718 25.847777724266052,69.04186010360718 25.678172707557678,68.82802248001099 25.678172707557678,68.82802248001099 25.018268823623657,67.89947152137756 25.018268823623657,67.89947152137756 24.397282302379608,66.94477796554565 24.397282302379608,66.94477796554565 23.815549910068512,65.96589088439941 23.815549910068512,65.96589088439941 23.27353209257126,64.96451497077942 23.27353209257126,64.96451497077942 22.771501541137695,63.94224762916565 22.771501541137695,63.94224762916565 22.309793531894684,62.90103793144226 22.309793531894684,62.90103793144226 21.888838708400726,61.842358112335205 21.888838708400726,61.842358112335205 21.508939564228058,60.76815724372864 21.508939564228058,60.76815724372864 20.365150272846222,56.15695118904114 20.365150272846222,56.15695118904114 19.94810402393341,51.49613618850708 19.94810402393341,51.49613618850708 20.237305760383606,46.86953127384186 20.237305760383606,46.86953127384186 21.212376654148102,42.36145615577698 21.212376654148102,42.36145615577698 22.85282015800476,38.05561363697052 22.85282015800476,38.05561363697052 25.13819932937622,34.03618931770325 25.13819932937622,34.03618931770325 28.048110008239746,30.387133359909058 28.048110008239746,30.387133359909058 31.562021374702454,27.192389965057373 31.562021374702454,27.192389965057373 35.58621108531952,24.63403195142746 35.58621108531952,24.63403195142746 39.98076617717743,22.8208065032959 39.98076617717743,22.8208065032959 44.618579745292664,21.754425764083862 44.618579745292664,21.754425764083862 49.372538924217224,21.436113119125366 49.372538924217224,21.436113119125366 54.115527868270874,21.867454051971436 54.115527868270874,21.867454051971436 58.720505237579346,23.050040006637573 58.720505237579346,23.050040006637573 63.06028366088867,24.985092878341675 63.06028366088867,24.985092878341675 67.00782775878906,27.674320340156555 67.00782775878906,27.674320340156555 63.75162601470947,30.48965334892273 63.75162601470947,30.48965334892273 54.248905181884766,38.70592415332794 54.248905181884766,38.70592415332794 53.74033451080322,39.149487018585205 53.74033451080322,39.149487018585205 53.35286259651184,39.477941393852234 53.35286259651184,39.477941393852234 53.03744673728943,39.705219864845276 53.03744673728943,39.705219864845276 52.745068073272705,39.845988154411316 52.745068073272705,39.845988154411316 52.426695823669434,39.91490602493286 52.426695823669434,39.91490602493286 52.03335881233215,39.92639183998108 52.03335881233215,39.92639183998108 51.515960693359375,39.894986152648926 51.515960693359375,39.894986152648926 50.825536251068115,39.834991097450256 50.825536251068115,39.834991097450256 49.49983358383179,39.80688452720642 49.49983358383179,39.80688452720642 48.192763328552246,39.95095193386078 48.192763328552246,39.95095193386078 46.920761466026306,40.25948941707611 46.920761466026306,40.25948941707611 45.70014178752899,40.724557638168335 45.70014178752899,40.724557638168335 44.54728066921234,41.33894443511963 44.54728066921234,41.33894443511963 43.47860813140869,42.09495484828949 43.47860813140869,42.09495484828949 42.51041114330292,42.98488795757294 42.51041114330292,42.98488795757294 41.65908992290497,44.00129020214081 41.65908992290497,44.00129020214081 40.42014181613922,46.25526666641235 40.42014181613922,46.25526666641235 39.814889430999756,48.653918504714966 39.814889430999756,48.653918504714966 39.80486989021301,51.08752250671387 39.80486989021301,51.08752250671387 40.35162329673767,53.44645977020264 40.35162329673767,53.44645977020264 41.4167195558548,55.62162399291992 41.4167195558548,55.62162399291992 42.9617315530777,57.50327706336975 42.9617315530777,57.50327706336975 44.94819641113281,58.98169279098511 44.94819641113281,58.98169279098511 47.33765423297882,59.94799733161926 47.33765423297882,59.94799733161926 50.10257959365845,60.27437448501587 50.10257959365845,60.27437448501587 52.72347331047058,59.85683798789978 52.72347331047058,59.85683798789978 55.100464820861816,58.79620313644409 55.100464820861816,58.79620313644409 57.133638858795166,57.19388127326965 57.133638858795166,57.19388127326965 58.72306823730469,55.15081286430359 58.72306823730469,55.15081286430359 59.768831729888916,52.76792049407959 59.768831729888916,52.76792049407959 60.17099618911743,50.14650821685791 60.17099618911743,50.14650821685791 59.8297119140625,47.38750755786896 59.8297119140625,47.38750755786896 60.072386264801025,46.83690667152405 60.072386264801025,46.83690667152405 60.46658158302307,46.25441133975983 60.46658158302307,46.25441133975983 60.97005009651184,45.655542612075806 60.97005009651184,45.655542612075806 61.54053807258606,45.056429505348206 61.54053807258606,45.056429505348206 62.13580369949341,44.4725900888443 62.13580369949341,44.4725900888443 62.71365284919739,43.91990900039673 62.71365284919739,43.91990900039673 63.2317841053009,43.414151668548584 63.2317841053009,43.414151668548584 63.648003339767456,42.97095835208893 63.648003339767456,42.97095835208893 64.6981954574585,41.75647795200348 64.6981954574585,41.75647795200348 65.74835181236267,40.54200053215027 65.74835181236267,40.54200053215027 66.79841876029968,39.32752311229706 66.79841876029968,39.32752311229706 67.84852147102356,38.11304271221161 67.84852147102356,38.11304271221161 68.89858841896057,36.8985652923584 68.89858841896057,36.8985652923584 69.94868516921997,35.68408787250519 69.94868516921997,35.68408787250519 70.99884152412415,34.46960747241974 70.99884152412415,34.46960747241974 72.04903364181519,33.25513005256653 72.04903364181519,33.25513005256653" stroke="white" stroke-width="0.1" /><polygon points="91.07109904289246,21.539244055747986 91.07109904289246,21.539244055747986 91.70151948928833,22.469379007816315 92.31098890304565,23.413443565368652 84.26835536956787,19.12275105714798 84.26835536956787,19.12275105714798 85.14793515205383,17.82713532447815 85.48387289047241,16.692082583904266 85.35648584365845,15.765735507011414 84.84621047973633,15.095750987529755 84.03337597846985,14.730025827884674 82.99828171730042,14.716340601444244 81.82140588760376,15.102715790271759 80.58300614356995,15.936928987503052 80.34809231758118,16.162008047103882 80.02715110778809,16.49290770292282 79.64697480201721,16.887713968753815 79.2344868183136,17.304271459579468 78.81646156311035,17.700299620628357 78.41982245445251,18.033763766288757 78.07138562202454,18.262632191181183 77.79797911643982,18.34462434053421 77.21182107925415,17.845098674297333 76.61557793617249,17.35779196023941 76.00952982902527,16.882704198360443 75.39395093917847,16.41995906829834 74.76911544799805,15.96967726945877 74.13529753684998,15.532103180885315 73.49280714988708,15.107358992099762 72.8418231010437,14.695446193218231 70.12076377868652,13.158254325389862 67.29101538658142,11.842111498117447 64.36970829963684,10.747627168893814 61.37399077415466,9.874922782182693 58.320993185043335,9.224244207143784 55.22785186767578,8.795956522226334 52.11171507835388,8.590183407068253 48.989707231521606,8.60729068517685 42.64995455741882,9.365011006593704 36.57139241695404,11.064107716083527 30.859103798866272,13.639695942401886 25.61817467212677,17.02725887298584 20.95375508069992,21.16178870201111 16.970928013324738,25.9786456823349 13.77481073141098,31.412944197654724 11.470521986484528,37.39992380142212 10.420271009206772,41.94526672363281 9.884637594223022,46.58750891685486 9.863650798797607,51.26445293426514 10.357219725847244,55.91439604759216 11.365313827991486,60.47501564025879 12.887963652610779,64.88447785377502 14.925046265125275,69.08096075057983 17.476563155651093,73.00214171409607 17.86745935678482,73.53710532188416 18.42740923166275,74.29567575454712 19.104909896850586,75.17058253288269 19.848455488681793,76.05403661727905 20.606665313243866,76.83815360069275 21.327970921993256,77.41575837135315 21.960993111133575,77.67859697341919 22.45422601699829,77.51938104629517 26.593154668807983,73.37947487831116 26.790374517440796,73.18225502967834 26.98759436607361,72.98479080200195 27.18481421470642,72.78757095336914 27.382034063339233,72.59010672569275 27.579253911972046,72.39264249801636 27.77647376060486,72.19542264938354 27.97369360923767,71.9980776309967 28.170913457870483,71.80073857307434 28.068333864212036,71.6896653175354 27.805739641189575,71.38454914093018 27.43329405784607,70.9453821182251 27.00115740299225,70.43168544769287 26.559430360794067,69.90332007408142 26.158270239830017,69.42004561424255 25.847777724266052,69.04186010360718 25.678172707557678,68.82802248001099 25.018268823623657,67.89947152137756 24.397282302379608,66.94477796554565 23.815549910068512,65.96589088439941 23.27353209257126,64.96451497077942 22.771501541137695,63.94224762916565 22.309793531894684,62.90103793144226 21.888838708400726,61.842358112335205 21.508939564228058,60.76815724372864 20.365150272846222,56.15695118904114 19.94810402393341,51.49613618850708 20.237305760383606,46.86953127384186 21.212376654148102,42.36145615577698 22.85282015800476,38.05561363697052 25.13819932937622,34.03618931770325 28.048110008239746,30.387133359909058 31.562021374702454,27.192389965057373 35.58621108531952,24.63403195142746 39.98076617717743,22.8208065032959 44.618579745292664,21.754425764083862 49.372538924217224,21.436113119125366 54.115527868270874,21.867454051971436 58.720505237579346,23.050040006637573 63.06028366088867,24.985092878341675 67.00782775878906,27.674320340156555 63.75162601470947,30.48965334892273 54.248905181884766,38.70592415332794 53.74033451080322,39.149487018585205 53.35286259651184,39.477941393852234 53.03744673728943,39.705219864845276 52.745068073272705,39.845988154411316 52.426695823669434,39.91490602493286 52.03335881233215,39.92639183998108 51.515960693359375,39.894986152648926 50.825536251068115,39.834991097450256 49.49983358383179,39.80688452720642 48.192763328552246,39.95095193386078 46.920761466026306,40.25948941707611 45.70014178752899,40.724557638168335 44.54728066921234,41.33894443511963 43.47860813140869,42.09495484828949 42.51041114330292,42.98488795757294 41.65908992290497,44.00129020214081 40.42014181613922,46.25526666641235 39.814889430999756,48.653918504714966 39.80486989021301,51.08752250671387 40.35162329673767,53.44645977020264 41.4167195558548,55.62162399291992 42.9617315530777,57.50327706336975 44.94819641113281,58.98169279098511 47.33765423297882,59.94799733161926 50.10257959365845,60.27437448501587 52.72347331047058,59.85683798789978 55.100464820861816,58.79620313644409 57.133638858795166,57.19388127326965 58.72306823730469,55.15081286430359 59.768831729888916,52.76792049407959 60.17099618911743,50.14650821685791 59.8297119140625,47.38750755786896 60.072386264801025,46.83690667152405 60.46658158302307,46.25441133975983 60.97005009651184,45.655542612075806 61.54053807258606,45.056429505348206 62.13580369949341,44.4725900888443 62.71365284919739,43.91990900039673 63.2317841053009,43.414151668548584 63.648003339767456,42.97095835208893 64.6981954574585,41.75647795200348 65.74835181236267,40.54200053215027 66.79841876029968,39.32752311229706 67.84852147102356,38.11304271221161 68.89858841896057,36.8985652923584 69.94868516921997,35.68408787250519 70.99884152412415,34.46960747241974 72.04903364181519,33.25513005256653 84.26835536956787,19.12275105714798 92.31098890304565,23.413443565368652 92.89922714233398,24.37094897031784 93.4658408164978,25.34140646457672 94.01054382324219,26.324328780174255 94.53307390213013,27.319228649139404 95.03303170204163,28.325611352920532 95.51013112068176,29.34299111366272 98.70911836624146,38.86893093585968 99.88550543785095,48.60748648643494 99.14889335632324,58.27553868293762 96.60889506340027,67.58922338485718 92.37511157989502,76.26543045043945 86.55715584754944,84.02066826820374 79.26463484764099,90.57145118713379 70.60715556144714,95.63428163528442 61.57200336456299,98.70829582214355 52.31100916862488,99.96077418327332 43.07396709918976,99.4773805141449 34.11072790622711,97.34364151954651 25.671055912971497,93.64522099494934 18.004712462425232,88.4676456451416 11.361556500196457,81.89682960510254 5.991378054022789,74.0178108215332 2.2563589736819267,65.23309350013733 0.32329270616173744,56.08839988708496 0.12485092738643289,46.83971703052521 1.5936439856886864,37.74230778217316 4.662282392382622,29.051926732063293 9.263376146554947,21.023954451084137 15.32953679561615,13.914631307125092 22.79343456029892,7.978728413581848 27.13838219642639,5.476089194417 31.697839498519897,3.4341182559728622 36.4284873008728,1.8597807735204697 41.28725528717041,0.760286208242178 46.230918169021606,0.14259949093684554 51.216310262680054,0.013563447282649577 56.2002956867218,0.38063188549131155 61.13962531089783,1.250280998647213 62.57795691490173,1.6028085723519325 64.00505304336548,1.9981035962700844 65.41968584060669,2.4355553090572357 66.820627450943,2.915041521191597 68.20675730705261,3.435828909277916 69.57681775093079,3.9976734668016434 70.92968225479126,4.600086063146591 72.26409316062927,5.242577940225601 72.86503911018372,5.548305436968803 73.46177101135254,5.862097442150116 74.0541934967041,6.1837103217840195 74.64221715927124,6.513387709856033 75.22575259208679,6.851007044315338 75.80470442771912,7.196202874183655 76.37901306152344,7.5494639575481415 76.94849371910095,7.910300046205521 77.31431126594543,8.160308003425598 77.60570645332336,8.375367522239685 77.84978747367859,8.547171205282211 78.07352542877197,8.667409420013428 78.30401062965393,8.727773278951645 78.56828570365906,8.719585835933685 78.8933515548706,8.635272830724716 79.30633425712585,8.465546369552612 79.63176369667053,8.320747315883636 79.96125817298889,8.185113221406937 80.29454350471497,8.058887720108032 80.63139915466309,7.942559570074081 80.97155094146729,7.836495339870453 81.31473064422607,7.741063088178635 81.66072368621826,7.656749337911606 82.0092499256134,7.583799958229065 84.93183255195618,7.450731843709946 87.44868040084839,8.14637765288353 89.50695991516113,9.524472802877426 91.05386734008789,11.438996344804764 92.03654527664185,13.743804395198822 92.40220785140991,16.29275530576706 92.09797978401184,18.940071761608124" stroke="white" stroke-width="0.1" /></svg>