<?xml version="1.0" encoding="utf-8" ?>
<svg baseProfile="full" height="42.694759368896484" version="1.1" width="87.92463541030884" xmlns="http://www.w3.org/2000/svg" xmlns:ev="http://www.w3.org/2001/xml-events" xmlns:xlink="http://www.w3.org/1999/xlink"><defs><clipPath /></defs><polygon points="87.82026171684265,31.623098254203796 87.92463541030884,33.664670586586 87.59591579437256,35.62784492969513 86.87744140625,37.45787441730499 85.81284880638123,39.10001218318939 84.44563746452332,40.49953520298004 82.81928896903992,41.60163998603821 80.97736835479736,42.35163331031799 78.96345257759094,42.694759368896484 76.98148488998413,42.596933245658875 75.11103749275208,42.09877848625183 73.39884638786316,41.244351863861084 71.89263701438904,40.077707171440125 70.63906192779541,38.6429488658905 69.6854293346405,36.984166502952576 69.07855272293091,35.14541983604431 68.8659131526947,33.1707626581192 69.04847621917725,31.337910890579224 69.5722758769989,29.612290859222412 70.40171027183533,28.032031655311584 71.50084376335144,26.635289192199707 72.83424139022827,25.460132956504822 74.36581254005432,24.544702470302582 76.06011629104614,23.927100002765656 77.8813898563385,23.645468056201935 79.6546220779419,23.71876686811447 81.34989738464355,24.114319682121277 82.93073177337646,24.802985787391663 84.35980081558228,25.75562596321106 85.60028672218323,26.94309651851654 86.61513328552246,28.336259722709656 87.36750483512878,29.905974864959717 87.82026171684265,31.623098254203796 87.82026171684265,31.623098254203796 87.92463541030884,33.664670586586 87.92463541030884,33.664670586586 87.59591579437256,35.62784492969513 87.59591579437256,35.62784492969513 86.87744140625,37.45787441730499 86.87744140625,37.45787441730499 85.81284880638123,39.10001218318939 85.81284880638123,39.10001218318939 84.44563746452332,40.49953520298004 84.44563746452332,40.49953520298004 82.81928896903992,41.60163998603821 82.81928896903992,41.60163998603821 80.97736835479736,42.35163331031799 80.97736835479736,42.35163331031799 78.96345257759094,42.694759368896484 78.96345257759094,42.694759368896484 76.98148488998413,42.596933245658875 76.98148488998413,42.596933245658875 75.11103749275208,42.09877848625183 75.11103749275208,42.09877848625183 73.39884638786316,41.244351863861084 73.39884638786316,41.244351863861084 71.89263701438904,40.077707171440125 71.89263701438904,40.077707171440125 70.63906192779541,38.6429488658905 70.63906192779541,38.6429488658905 69.6854293346405,36.984166502952576 69.6854293346405,36.984166502952576 69.07855272293091,35.14541983604431 69.07855272293091,35.14541983604431 68.8659131526947,33.1707626581192 68.8659131526947,33.1707626581192 69.04847621917725,31.337910890579224 69.04847621917725,31.337910890579224 69.5722758769989,29.612290859222412 69.5722758769989,29.612290859222412 70.40171027183533,28.032031655311584 70.40171027183533,28.032031655311584 71.50084376335144,26.635289192199707 71.50084376335144,26.635289192199707 72.83424139022827,25.460132956504822 72.83424139022827,25.460132956504822 74.36581254005432,24.544702470302582 74.36581254005432,24.544702470302582 76.06011629104614,23.927100002765656 76.06011629104614,23.927100002765656 77.8813898563385,23.645468056201935 77.8813898563385,23.645468056201935 79.6546220779419,23.71876686811447 79.6546220779419,23.71876686811447 81.34989738464355,24.114319682121277 81.34989738464355,24.114319682121277 82.93073177337646,24.802985787391663 82.93073177337646,24.802985787391663 84.35980081558228,25.75562596321106 84.35980081558228,25.75562596321106 85.60028672218323,26.94309651851654 85.60028672218323,26.94309651851654 86.61513328552246,28.336259722709656 86.61513328552246,28.336259722709656 87.36750483512878,29.905974864959717 87.36750483512878,29.905974864959717" stroke="white" stroke-width="0.1" /></svg>