<?xml version="1.0" encoding="utf-8" ?>
<svg baseProfile="full" height="100.0" version="1.1" width="100.0" xmlns="http://www.w3.org/2000/svg" xmlns:ev="http://www.w3.org/2001/xml-events" xmlns:xlink="http://www.w3.org/1999/xlink"><defs><clipPath /></defs><polygon points="66.3760244846344,84.01692509651184 66.3760244846344,84.01692509651184 76.65783166885376,84.01692509651184 76.65783166885376,84.01692509651184 65.43666124343872,53.05989384651184 65.43666124343872,53.05989384651184 66.06677770614624,52.75341272354126 66.06677770614624,52.75341272354126 66.6812002658844,52.42680311203003 66.6812002658844,52.42680311203003 67.2793447971344,52.07999348640442 67.2793447971344,52.07999348640442 67.86179542541504,51.71305537223816 67.86179542541504,51.71305537223816 68.42796802520752,51.32576823234558 68.42796802520752,51.32576823234558 68.97786259651184,50.91821551322937 68.97786259651184,50.91821551322937 69.51148509979248,50.49017071723938 69.51148509979248,50.49017071723938 70.02882957458496,50.04185438156128 70.02882957458496,50.04185438156128 70.53048014640808,49.57762360572815 70.53048014640808,49.57762360572815 71.01556658744812,49.09871518611908 71.01556658744812,49.09871518611908 71.4837908744812,48.6050546169281 71.4837908744812,48.6050546169281 71.93428874015808,48.09657633304596 71.93428874015808,48.09657633304596 72.36763834953308,47.57312536239624 72.36763834953308,47.57312536239624 72.78326153755188,47.03463613986969 72.78326153755188,47.03463613986969 73.1808602809906,46.4810311794281 73.1808602809906,46.4810311794281 73.56073260307312,45.91238796710968 73.56073260307312,45.91238796710968 73.92229437828064,45.33262848854065 73.92229437828064,45.33262848854065 74.26234483718872,44.74094808101654 74.26234483718872,44.74094808101654 74.58088994026184,44.13713812828064 74.58088994026184,44.13713812828064 74.8779296875,43.5212641954422 74.8779296875,43.5212641954422 75.15375018119812,42.89332926273346 75.15375018119812,42.89332926273346 75.4083514213562,42.25325882434845 75.4083514213562,42.25325882434845 75.6414532661438,41.60098135471344 75.6414532661438,41.60098135471344 75.85332989692688,40.9365713596344 75.85332989692688,40.9365713596344 76.0439932346344,40.2650386095047 76.0439932346344,40.2650386095047 76.20849609375,39.58950936794281 76.20849609375,39.58950936794281 76.34684443473816,38.9102041721344 76.34684443473816,38.9102041721344 76.45961046218872,38.22719156742096 76.45961046218872,38.22719156742096 76.54651403427124,37.54047155380249 76.54651403427124,37.54047155380249 76.60871148109436,36.85004711151123 76.60871148109436,36.85004711151123 76.64562463760376,36.15606427192688 76.64562463760376,36.15606427192688 76.65783166885376,35.4585200548172 76.65783166885376,35.4585200548172 76.63428783416748,34.46648120880127 76.63428783416748,34.46648120880127 76.5630841255188,33.48882794380188 76.5630841255188,33.48882794380188 76.44420862197876,32.52556324005127 76.44420862197876,32.52556324005127 76.27766728401184,31.5766841173172 76.27766728401184,31.5766841173172 76.06317400932312,30.64219057559967 76.06317400932312,30.64219057559967 75.80043077468872,29.72208559513092 75.80043077468872,29.72208559513092 75.48944354057312,28.81636917591095 75.48944354057312,28.81636917591095 75.13020634651184,27.92503833770752 75.13020634651184,27.92503833770752 74.7314453125,27.05746591091156 74.7314453125,27.05746591091156 74.298095703125,26.21612548828125 74.298095703125,26.21612548828125 73.82928729057312,25.40108859539032 73.82928729057312,25.40108859539032 73.32589030265808,24.6122807264328 73.32589030265808,24.6122807264328 72.78761863708496,23.84992390871048 72.78761863708496,23.84992390871048 72.21418023109436,23.11394065618515 72.21418023109436,23.11394065618515 71.6064453125,22.40447998046875 71.6064453125,22.40447998046875 70.96354365348816,21.72154039144516 70.96354365348816,21.72154039144516 70.29099464416504,21.0691899061203 70.29099464416504,21.0691899061203 69.58996057510376,20.45317143201828 69.58996057510376,20.45317143201828 68.8604474067688,19.87333744764328 68.8604474067688,19.87333744764328 68.10302734375,19.32954341173172 68.10302734375,19.32954341173172 67.31829047203064,18.82171630859375 67.31829047203064,18.82171630859375 66.50565266609192,18.34978312253952 66.50565266609192,18.34978312253952 65.66597819328308,17.91352778673172 65.66597819328308,17.91352778673172 64.79957103729248,17.51302033662796 64.79957103729248,17.51302033662796 63.909912109375,17.15356707572937 63.909912109375,17.15356707572937 63.00572156906128,16.84236079454422 63.00572156906128,16.84236079454422 62.08670735359192,16.57932847738266 62.08670735359192,16.57932847738266 61.15344762802124,16.36439710855484 61.15344762802124,16.36439710855484 60.2053701877594,16.19742214679718 60.2053701877594,16.19742214679718 59.24333930015564,16.0782590508461 59.24333930015564,16.0782590508461 58.26648473739624,16.00683331489563 58.26648473739624,16.00683331489563 57.275390625,15.98307341337204 57.275390625,15.98307341337204 28.09942364692688,15.98307341337204 28.09942364692688,15.98307341337204 28.09942364692688,84.01692509651184 28.09942364692688,84.01692509651184 37.79994547367096,84.01692509651184 37.79994547367096,84.01692509651184 37.79994547367096,54.8456072807312 37.79994547367096,54.8456072807312 55.7431161403656,54.8456072807312 55.7431161403656,54.8456072807312" stroke="white" stroke-width="0.1" /><polygon points="50.0,0.0 50.0,0.0 60.07777452468872,1.015654020011425 60.07777452468872,1.015654020011425 69.4638192653656,3.92870232462883 69.4638192653656,3.92870232462883 77.95701026916504,8.53816419839859 77.95701026916504,8.53816419839859 85.35679578781128,14.64320570230484 85.35679578781128,14.64320570230484 91.4617657661438,22.0428466796875 91.4617657661438,22.0428466796875 96.07136845588684,30.53610622882843 96.07136845588684,30.53610622882843 98.98419976234436,39.92215096950531 98.98419976234436,39.92215096950531 100.0,50.0 100.0,50.0 98.98419976234436,60.07588505744934 98.98419976234436,60.07588505744934 96.07136845588684,69.46091651916504 96.07136845588684,69.46091651916504 91.4617657661438,77.9541015625 91.4617657661438,77.9541015625 85.35679578781128,85.35417914390564 85.35679578781128,85.35417914390564 77.95729637145996,91.45994782447815 77.95729637145996,91.45994782447815 69.4638192653656,96.07035517692566 69.4638192653656,96.07035517692566 60.07777452468872,98.9840567111969 60.07777452468872,98.9840567111969 50.0,100.0 50.0,100.0 39.9233877658844,98.9840567111969 39.9233877658844,98.9840567111969 30.53792417049408,96.07035517692566 30.53792417049408,96.07035517692566 22.04473614692688,91.45994782447815 22.04473614692688,91.45994782447815 14.64494913816452,85.35417914390564 14.64494913816452,85.35417914390564 8.53939950466156,77.95417308807373 8.53939950466156,77.95417308807373 3.92950139939785,69.46091651916504 3.92950139939785,69.46091651916504 1.0157993994653225,60.07581353187561 1.0157993994653225,60.07581353187561 0.0,50.0 0.0,50.0 1.0157993994653225,39.92215096950531 1.0157993994653225,39.92215096950531 3.92950139939785,30.53610622882843 3.92950139939785,30.53610622882843 8.53939950466156,22.0428466796875 8.53939950466156,22.0428466796875 14.64494913816452,14.64320570230484 14.64494913816452,14.64320570230484 22.04473614692688,8.53816419839859 22.04473614692688,8.53816419839859 30.53821325302124,3.92870232462883 30.53821325302124,3.92870232462883 39.9233877658844,1.0157267563045025 39.9233877658844,1.0157267563045025" stroke="white" stroke-width="0.1" /><polygon points="50.0,0.0 60.07777452468872,1.015654020011425 69.4638192653656,3.92870232462883 77.95701026916504,8.53816419839859 85.35679578781128,14.64320570230484 91.4617657661438,22.0428466796875 96.07136845588684,30.53610622882843 98.98419976234436,39.92215096950531 100.0,50.0 98.98419976234436,60.07588505744934 96.07136845588684,69.46091651916504 91.4617657661438,77.9541015625 85.35679578781128,85.35417914390564 66.3760244846344,84.01692509651184 76.65783166885376,84.01692509651184 65.43666124343872,53.05989384651184 66.06677770614624,52.75341272354126 66.6812002658844,52.42680311203003 67.2793447971344,52.07999348640442 67.86179542541504,51.71305537223816 68.42796802520752,51.32576823234558 68.97786259651184,50.91821551322937 69.51148509979248,50.49017071723938 70.02882957458496,50.04185438156128 70.53048014640808,49.57762360572815 71.01556658744812,49.09871518611908 71.4837908744812,48.6050546169281 71.93428874015808,48.09657633304596 72.36763834953308,47.57312536239624 72.78326153755188,47.03463613986969 73.1808602809906,46.4810311794281 73.56073260307312,45.91238796710968 73.92229437828064,45.33262848854065 74.26234483718872,44.74094808101654 74.58088994026184,44.13713812828064 74.8779296875,43.5212641954422 75.15375018119812,42.89332926273346 75.4083514213562,42.25325882434845 75.6414532661438,41.60098135471344 75.85332989692688,40.9365713596344 76.0439932346344,40.2650386095047 76.20849609375,39.58950936794281 76.34684443473816,38.9102041721344 76.45961046218872,38.22719156742096 76.54651403427124,37.54047155380249 76.60871148109436,36.85004711151123 76.64562463760376,36.15606427192688 76.65783166885376,35.4585200548172 76.63428783416748,34.46648120880127 76.5630841255188,33.48882794380188 76.44420862197876,32.52556324005127 76.27766728401184,31.5766841173172 76.06317400932312,30.64219057559967 75.80043077468872,29.72208559513092 75.48944354057312,28.81636917591095 75.13020634651184,27.92503833770752 74.7314453125,27.05746591091156 74.298095703125,26.21612548828125 73.82928729057312,25.40108859539032 73.32589030265808,24.6122807264328 72.78761863708496,23.84992390871048 72.21418023109436,23.11394065618515 71.6064453125,22.40447998046875 70.96354365348816,21.72154039144516 70.29099464416504,21.0691899061203 69.58996057510376,20.45317143201828 68.8604474067688,19.87333744764328 68.10302734375,19.32954341173172 67.31829047203064,18.82171630859375 66.50565266609192,18.34978312253952 65.66597819328308,17.91352778673172 64.79957103729248,17.51302033662796 63.909912109375,17.15356707572937 63.00572156906128,16.84236079454422 62.08670735359192,16.57932847738266 61.15344762802124,16.36439710855484 60.2053701877594,16.19742214679718 59.24333930015564,16.0782590508461 58.26648473739624,16.00683331489563 57.275390625,15.98307341337204 28.09942364692688,15.98307341337204 28.09942364692688,84.01692509651184 37.79994547367096,84.01692509651184 37.79994547367096,54.8456072807312 55.7431161403656,54.8456072807312 66.3760244846344,84.01692509651184 85.35679578781128,85.35417914390564 77.95729637145996,91.45994782447815 69.4638192653656,96.07035517692566 60.07777452468872,98.9840567111969 50.0,100.0 39.9233877658844,98.9840567111969 30.53792417049408,96.07035517692566 22.04473614692688,91.45994782447815 14.64494913816452,85.35417914390564 8.53939950466156,77.95417308807373 3.92950139939785,69.46091651916504 1.0157993994653225,60.07581353187561 0.0,50.0 1.0157993994653225,39.92215096950531 3.92950139939785,30.53610622882843 8.53939950466156,22.0428466796875 14.64494913816452,14.64320570230484 22.04473614692688,8.53816419839859 30.53821325302124,3.92870232462883 39.9233877658844,1.0157267563045025" stroke="white" stroke-width="0.1" /></svg>