<?xml version="1.0" encoding="utf-8" ?>
<svg baseProfile="full" height="39.90819752216339" version="1.1" width="99.99959468841553" xmlns="http://www.w3.org/2000/svg" xmlns:ev="http://www.w3.org/2001/xml-events" xmlns:xlink="http://www.w3.org/1999/xlink"><defs><clipPath /></defs><polygon points="32.19373822212219,1.328324619680643 32.19373822212219,1.328324619680643 30.388402938842773,3.1550075858831406 30.388402938842773,3.1550075858831406 28.773126006126404,5.154311656951904 28.773126006126404,5.154311656951904 27.363404631614685,7.311536371707916 27.363404631614685,7.311536371707916 26.174870133399963,9.612084925174713 26.174870133399963,9.612084925174713 25.223281979560852,12.041257321834564 25.223281979560852,12.041257321834564 24.524138867855072,14.58442211151123 24.524138867855072,14.58442211151123 24.093204736709595,17.226912081241608 24.093204736709595,17.226912081241608 23.946109414100647,19.954098761081696 23.946109414100647,19.954098761081696 24.093204736709595,22.681419551372528 24.093204736709595,22.681419551372528 24.524205923080444,25.32428205013275 24.524205923080444,25.32428205013275 25.223350524902344,27.867954969406128 25.223350524902344,27.867954969406128 26.1750727891922,30.297735333442688 26.1750727891922,30.297735333442688 27.363812923431396,32.59885907173157 27.363812923431396,32.59885907173157 28.773871064186096,34.756624698638916 28.773871064186096,34.756624698638916 30.38955330848694,36.7562860250473 30.38955330848694,36.7562860250473 32.19536244869232,38.583120703697205 32.19536244869232,38.583120703697205 2.655566670000553,38.583120703697205 2.655566670000553,38.583120703697205 2.3927705362439156,38.57018053531647 2.3927705362439156,38.57018053531647 2.135252021253109,38.53176534175873 2.135252021253109,38.53176534175873 1.8843643367290497,38.4684681892395 1.8843643367290497,38.4684681892395 1.6415959224104881,38.38094770908356 1.6415959224104881,38.38094770908356 1.4084354974329472,38.26976418495178 1.4084354974329472,38.26976418495178 1.1863714084029198,38.13554048538208 1.1863714084029198,38.13554048538208 0.9766893461346626,37.9788875579834 0.9766893461346626,37.9788875579834 0.7810808252543211,37.800416350364685 0.7810808252543211,37.800416350364685 0.6025229580700397,37.604400515556335 0.6025229580700397,37.604400515556335 0.4460225813090801,37.39480376243591 0.4460225813090801,37.39480376243591 0.31198577489703894,37.172943353652954 0.31198577489703894,37.172943353652954 0.20115673542022705,36.94017231464386 0.20115673542022705,36.94017231464386 0.11400911025702953,36.69779300689697 0.11400911025702953,36.69779300689697 0.05101654096506536,36.44717633724213 0.05101654096506536,36.44717633724213 0.012855627574026585,36.18963956832886 0.012855627574026585,36.18963956832886 0.0,35.926470160484314 0.0,35.926470160484314 0.0,3.988221660256386 0.0,3.988221660256386 0.013126271369401366,3.725290298461914 0.013126271369401366,3.725290298461914 0.05189614021219313,3.466976433992386 0.05189614021219313,3.466976433992386 0.115430005826056,3.2149724662303925 0.115430005826056,3.2149724662303925 0.20305125508457422,2.9710032045841217 0.20305125508457422,2.9710032045841217 0.3138126339763403,2.7367092669010162 0.3138126339763403,2.7367092669010162 0.44690221548080444,2.5137994438409805 0.44690221548080444,2.5137994438409805 0.6014403887093067,2.303965203464031 0.6014403887093067,2.303965203464031 0.776750547811389,2.108864113688469 0.776750547811389,2.108864113688469 0.9703968651592731,1.9317271187901497 0.9703968651592731,1.9317271187901497 1.180281862616539,1.7759034410119057 1.180281862616539,1.7759034410119057 1.4041051268577576,1.6421033069491386 1.4041051268577576,1.6421033069491386 1.6396338120102882,1.5310375019907951 1.6396338120102882,1.5310375019907951 1.884770207107067,1.443416252732277 1.884770207107067,1.443416252732277 2.137214131653309,1.3799500651657581 2.137214131653309,1.3799500651657581 2.3948680609464645,1.3413493521511555 2.3948680609464645,1.3413493521511555 2.655566670000553,1.328324619680643 2.655566670000553,1.328324619680643" stroke="white" stroke-width="0.1" /><polygon points="99.59078431129456,32.88658857345581 99.59078431129456,32.88658857345581 99.76555109024048,33.2295298576355 99.76555109024048,33.2295298576355 99.89207983016968,33.58767628669739 99.89207983016968,33.58767628669739 99.97009634971619,33.95616114139557 99.97009634971619,33.95616114139557 99.99959468841553,34.33007299900055 99.99959468841553,34.33007299900055 99.9804437160492,34.70454514026642 99.9804437160492,34.70454514026642 99.91244673728943,35.07470190525055 99.91244673728943,35.07470190525055 99.795663356781,35.435640811920166 99.795663356781,35.435640811920166 99.62975978851318,35.78248918056488 99.62975978851318,35.78248918056488 99.4153380393982,36.104875802993774 99.4153380393982,36.104875802993774 99.16390776634216,36.393097043037415 99.16390776634216,36.393097043037415 98.87966513633728,36.64442300796509 98.87966513633728,36.64442300796509 98.56706857681274,36.85613572597504 98.56706857681274,36.85613572597504 98.23039174079895,37.02552616596222 98.23039174079895,37.02552616596222 97.87381291389465,37.14988827705383 97.87381291389465,37.14988827705383 97.50187993049622,37.226513028144836 97.50187993049622,37.226513028144836 97.1187174320221,37.25263178348541 97.1187174320221,37.25263178348541 67.60382056236267,37.25263178348541 67.60382056236267,37.25263178348541 69.12376284599304,35.484033823013306 69.12376284599304,35.484033823013306 70.47914862632751,33.581045269966125 70.47914862632751,33.581045269966125 71.65821194648743,31.554609537124634 71.65821194648743,31.554609537124634 72.64931201934814,29.415705800056458 72.64931201934814,29.415705800056458 73.44061136245728,27.175238728523254 73.44061136245728,27.175238728523254 74.02040362358093,24.84419345855713 74.02040362358093,24.84419345855713 74.37677383422852,22.433508932590485 74.37677383422852,22.433508932590485 74.49822425842285,19.954098761081696 74.49822425842285,19.954098761081696 74.47210550308228,18.83041560649872 74.47210550308228,18.83041560649872 74.39510822296143,17.719553411006927 74.39510822296143,17.719553411006927 74.2688536643982,16.622325778007507 74.2688536643982,16.622325778007507 74.09502863883972,15.539611876010895 74.09502863883972,15.539611876010895 73.87546896934509,14.472205936908722 73.87546896934509,14.472205936908722 73.61199855804443,13.420970737934113 73.61199855804443,13.420970737934113 73.3061671257019,12.386718392372131 73.3061671257019,12.386718392372131 72.95988202095032,11.370328813791275 72.95988202095032,11.370328813791275 77.34432220458984,4.058589041233063 77.34432220458984,4.058589041233063 77.55982875823975,3.749343752861023 77.55982875823975,3.749343752861023 77.81023979187012,3.473539650440216 77.81023979187012,3.473539650440216 78.09150815010071,3.233596310019493 78.09150815010071,3.233596310019493 78.39963436126709,3.0318981036543846 78.39963436126709,3.0318981036543846 78.73063683509827,2.8708476573228836 78.73063683509827,2.8708476573228836 79.08051013946533,2.7528464794158936 79.08051013946533,2.7528464794158936 79.4451355934143,2.6802798733115196 79.4451355934143,2.6802798733115196 79.82072234153748,2.655566670000553 79.82072234153748,2.655566670000553 80.19523024559021,2.6802798733115196 80.19523024559021,2.6802798733115196 80.55918216705322,2.7528464794158936 80.55918216705322,2.7528464794158936 80.90844750404358,2.8708646073937416 80.90844750404358,2.8708646073937416 81.2390387058258,3.0318981036543846 81.2390387058258,3.0318981036543846 81.54669404029846,3.23357917368412 81.54669404029846,3.23357917368412 81.8274199962616,3.473539650440216 81.8274199962616,3.473539650440216 82.07688927650452,3.749343752861023 82.07688927650452,3.749343752861023 82.29116797447205,4.058589041233063 82.29116797447205,4.058589041233063" stroke="white" stroke-width="0.1" /><polygon points="69.06313896179199,17.859308421611786 69.06313896179199,17.859308421611786 69.08945441246033,18.119025230407715 69.08945441246033,18.119025230407715 69.11239624023438,18.379351496696472 69.11239624023438,18.379351496696472 69.1319465637207,18.640287220478058 69.1319465637207,18.640287220478058 69.14798021316528,18.901832401752472 69.14798021316528,18.901832401752472 69.16050314903259,19.163985550403595 69.16050314903259,19.163985550403595 69.1694974899292,19.426746666431427 69.1694974899292,19.426746666431427 69.17498111724854,19.690118730068207 69.17498111724854,19.690118730068207 69.17680501937866,19.954098761081696 69.17680501937866,19.954098761081696 69.01888847351074,22.47437685728073 69.01888847351074,22.47437685728073 68.55791211128235,24.900707602500916 68.55791211128235,24.900707602500916 67.81296133995056,27.21380591392517 67.81296133995056,27.21380591392517 66.80331826210022,29.39445972442627 66.80331826210022,29.39445972442627 65.5480682849884,31.423380970954895 65.5480682849884,31.423380970954895 64.06642198562622,33.28129053115845 64.06642198562622,33.28129053115845 62.37746477127075,34.94895398616791 62.37746477127075,34.94895398616791 60.500478744506836,36.40713691711426 60.500478744506836,36.40713691711426 60.22414565086365,36.59293353557587 60.22414565086365,36.59293353557587 59.94443893432617,36.77308261394501 59.94443893432617,36.77308261394501 59.66154336929321,36.94801926612854 59.66154336929321,36.94801926612854 59.375542402267456,37.11811900138855 59.375542402267456,37.11811900138855 59.08656120300293,37.283873558044434 59.08656120300293,37.283873558044434 58.794671297073364,37.44570314884186 58.794671297073364,37.44570314884186 58.500003814697266,37.60402798652649 58.500003814697266,37.60402798652649 58.202701807022095,37.75927722454071 58.202701807022095,37.75927722454071 57.89511203765869,37.90931701660156 57.89511203765869,37.90931701660156 57.584887742996216,38.05541396141052 57.584887742996216,38.05541396141052 57.27195739746094,38.19712996482849 57.27195739746094,38.19712996482849 56.956177949905396,38.333991169929504 56.956177949905396,38.333991169929504 56.63749575614929,38.465508818626404 56.63749575614929,38.465508818626404 56.315767765045166,38.591256737709045 56.315767765045166,38.591256737709045 55.99099397659302,38.71072828769684 55.99099397659302,38.71072828769684 55.66297173500061,38.82345259189606 55.66297173500061,38.82345259189606 54.89833354949951,39.06960487365723 54.89833354949951,39.06960487365723 54.12117838859558,39.2861545085907 54.12117838859558,39.2861545085907 53.33190560340881,39.47208821773529 53.33190560340881,39.47208821773529 52.53100395202637,39.626455307006836 52.53100395202637,39.626455307006836 51.718997955322266,39.74824547767639 51.718997955322266,39.74824547767639 50.89651346206665,39.83644247055054 50.89651346206665,39.83644247055054 50.06387233734131,39.89011347293854 50.06387233734131,39.89011347293854 49.22162592411041,39.90819752216339 49.22162592411041,39.90819752216339 48.28350245952606,39.885884523391724 48.28350245952606,39.885884523391724 47.357288002967834,39.81979787349701 47.357288002967834,39.81979787349701 46.44365906715393,39.71123695373535 46.44365906715393,39.71123695373535 45.54336071014404,39.561501145362854 45.54336071014404,39.561501145362854 44.65692937374115,39.371880888938904 44.65692937374115,39.371880888938904 43.78518462181091,39.14366066455841 43.78518462181091,39.14366066455841 42.92859435081482,38.87815773487091 42.92859435081482,38.87815773487091 42.087969183921814,38.57662379741669 42.087969183921814,38.57662379741669 41.775038838386536,38.45527470111847 41.775038838386536,38.45527470111847 41.46413505077362,38.32902014255524 41.46413505077362,38.32902014255524 41.15539491176605,38.19775581359863 41.15539491176605,38.19775581359863 40.84916114807129,38.061317801475525 40.84916114807129,38.061317801475525 40.54563343524933,37.919601798057556 40.54563343524933,37.919601798057556 40.24501442909241,37.77250647544861 40.24501442909241,37.77250647544861 39.947712421417236,37.61986196041107 39.947712421417236,37.61986196041107 39.65378999710083,37.46156990528107 39.65378999710083,37.46156990528107 39.33984339237213,37.28443086147308 39.33984339237213,37.28443086147308 39.02995586395264,37.101492285728455 39.02995586395264,37.101492285728455 38.72385621070862,36.912888288497925 38.72385621070862,36.912888288497925 38.42147886753082,36.71878278255463 38.42147886753082,36.71878278255463 38.12248408794403,36.51935160160065 38.12248408794403,36.51935160160065 37.826669216156006,36.31476163864136 37.826669216156006,36.31476163864136 37.533897161483765,36.10518276691437 37.533897161483765,36.10518276691437 37.24397122859955,35.890746116638184 37.24397122859955,35.890746116638184 35.51265597343445,34.42581295967102 35.51265597343445,34.42581295967102 33.957260847091675,32.77799189090729 33.957260847091675,32.77799189090729 32.59483277797699,30.963420867919922 32.59483277797699,30.963420867919922 31.44209086894989,28.99823486804962 31.44209086894989,28.99823486804962 30.5160790681839,26.898571848869324 30.5160790681839,26.898571848869324 29.83371615409851,24.680571258068085 29.83371615409851,24.680571258068085 29.411914944648743,22.360368072986603 29.411914944648743,22.360368072986603 29.267525672912598,19.954098761081696 29.267525672912598,19.954098761081696 29.411914944648743,17.54782944917679 29.411914944648743,17.54782944917679 29.83371615409851,15.22764265537262 29.83371615409851,15.22764265537262 30.5160790681839,13.009658455848694 30.5160790681839,13.009658455848694 31.44209086894989,10.910097509622574 31.44209086894989,10.910097509622574 32.59476721286774,8.945029973983765 32.59476721286774,8.945029973983765 33.957260847091675,7.130660861730576 33.957260847091675,7.130660861730576 35.51265597343445,5.483110994100571 35.51265597343445,5.483110994100571 37.24397122859955,4.018533602356911 37.24397122859955,4.018533602356911 37.533965706825256,3.8037434220314026 37.533965706825256,3.8037434220314026 37.826669216156006,3.5938922315835953 37.826669216156006,3.5938922315835953 38.12248408794403,3.389081731438637 38.12248408794403,3.389081731438637 38.42147886753082,3.1895488500595093 38.42147886753082,3.1895488500595093 38.72392475605011,2.99536120146513 38.72392475605011,2.99536120146513 39.02995586395264,2.8067218139767647 39.02995586395264,2.8067218139767647 39.33991193771362,2.62374896556139 39.33991193771362,2.62374896556139 39.65378999710083,2.4466289207339287 39.65378999710083,2.4466289207339287 39.947712421417236,2.289840951561928 39.947712421417236,2.289840951561928 40.24501442909241,2.1390749141573906 40.24501442909241,2.1390749141573906 40.54556488990784,1.9938401877880096 40.54556488990784,1.9938401877880096 40.84916114807129,1.8536461517214775 40.84916114807129,1.8536461517214775 41.15539491176605,1.7180193215608597 41.15539491176605,1.7180193215608597 41.46413505077362,1.5864858403801918 41.46413505077362,1.5864858403801918 41.775038838386536,1.4585724100470543 41.775038838386536,1.4585724100470543 42.087969183921814,1.3337374664843082 42.087969183921814,1.3337374664843082 42.92791783809662,1.0318162851035595 42.92791783809662,1.0318162851035595 43.784236907958984,0.7659078110009432 43.784236907958984,0.7659078110009432 44.65598464012146,0.5373314023017883 44.65598464012146,0.5373314023017883 45.54254710674286,0.34737258683890104 45.54254710674286,0.34737258683890104 46.44305109977722,0.19735079258680344 46.44305109977722,0.19735079258680344 47.35695123672485,0.08858541841618717 47.35695123672485,0.08858541841618717 48.28343689441681,0.022378940775524825 48.28343689441681,0.022378940775524825 49.22162592411041,0.0 49.22162592411041,0.0 52.08308696746826,0.20401543006300926 52.08308696746826,0.20401543006300926 54.81801629066467,0.7972180843353271 54.81801629066467,0.7972180843353271 57.39848017692566,1.7513763159513474 57.39848017692566,1.7513763159513474 59.79679822921753,3.0382582917809486 59.79679822921753,3.0382582917809486 61.98496222496033,4.629598930478096 61.98496222496033,4.629598930478096 63.935232162475586,6.497199833393097 63.935232162475586,6.497199833393097 65.61979055404663,8.612796664237976 65.61979055404663,8.612796664237976 67.01056361198425,10.948123037815094 67.01056361198425,10.948123037815094 67.19311475753784,11.316554993391037 67.19311475753784,11.316554993391037 67.36997961997986,11.68869137763977 67.36997961997986,11.68869137763977 67.54055619239807,12.064599990844727 67.54055619239807,12.064599990844727 67.70415902137756,12.444382160902023 67.70415902137756,12.444382160902023 67.86012053489685,12.828055024147034 67.86012053489685,12.828055024147034 68.00775527954102,13.215702772140503 68.00775527954102,13.215702772140503 68.14652681350708,13.60737681388855 68.14652681350708,13.60737681388855 68.27555894851685,14.00316059589386 68.27555894851685,14.00316059589386 68.41453313827515,14.470310509204865 68.41453313827515,14.470310509204865 68.54200959205627,14.941976964473724 68.54200959205627,14.941976964473724 68.65798234939575,15.418040752410889 68.65798234939575,15.418040752410889 68.7623143196106,15.8983513712883 68.7623143196106,15.8983513712883 68.85507702827454,16.382771730422974 68.85507702827454,16.382771730422974 68.93613338470459,16.871167719364166 68.93613338470459,16.871167719364166 69.00548934936523,17.363402247428894 69.00548934936523,17.363402247428894" stroke="white" stroke-width="0.1" /><polygon points="32.19373822212219,1.328324619680643 30.388402938842773,3.1550075858831406 28.773126006126404,5.154311656951904 27.363404631614685,7.311536371707916 26.174870133399963,9.612084925174713 25.223281979560852,12.041257321834564 24.524138867855072,14.58442211151123 24.093204736709595,17.226912081241608 23.946109414100647,19.954098761081696 24.093204736709595,22.681419551372528 24.524205923080444,25.32428205013275 25.223350524902344,27.867954969406128 26.1750727891922,30.297735333442688 27.363812923431396,32.59885907173157 28.773871064186096,34.756624698638916 30.38955330848694,36.7562860250473 32.19536244869232,38.583120703697205 2.655566670000553,38.583120703697205 2.3927705362439156,38.57018053531647 2.135252021253109,38.53176534175873 1.8843643367290497,38.4684681892395 1.6415959224104881,38.38094770908356 1.4084354974329472,38.26976418495178 1.1863714084029198,38.13554048538208 0.9766893461346626,37.9788875579834 0.7810808252543211,37.800416350364685 0.6025229580700397,37.604400515556335 0.4460225813090801,37.39480376243591 0.31198577489703894,37.172943353652954 0.20115673542022705,36.94017231464386 0.11400911025702953,36.69779300689697 0.05101654096506536,36.44717633724213 0.012855627574026585,36.18963956832886 0.0,35.926470160484314 0.0,3.988221660256386 0.013126271369401366,3.725290298461914 0.05189614021219313,3.466976433992386 0.115430005826056,3.2149724662303925 0.20305125508457422,2.9710032045841217 0.3138126339763403,2.7367092669010162 0.44690221548080444,2.5137994438409805 0.6014403887093067,2.303965203464031 0.776750547811389,2.108864113688469 0.9703968651592731,1.9317271187901497 1.180281862616539,1.7759034410119057 1.4041051268577576,1.6421033069491386 1.6396338120102882,1.5310375019907951 1.884770207107067,1.443416252732277 2.137214131653309,1.3799500651657581 2.3948680609464645,1.3413493521511555 2.655566670000553,1.328324619680643" stroke="white" stroke-width="0.1" /><polygon points="99.59078431129456,32.88658857345581 99.76555109024048,33.2295298576355 99.89207983016968,33.58767628669739 99.97009634971619,33.95616114139557 99.99959468841553,34.33007299900055 99.9804437160492,34.70454514026642 99.91244673728943,35.07470190525055 99.795663356781,35.435640811920166 99.62975978851318,35.78248918056488 99.4153380393982,36.104875802993774 99.16390776634216,36.393097043037415 98.87966513633728,36.64442300796509 98.56706857681274,36.85613572597504 98.23039174079895,37.02552616596222 97.87381291389465,37.14988827705383 97.50187993049622,37.226513028144836 97.1187174320221,37.25263178348541 67.60382056236267,37.25263178348541 69.12376284599304,35.484033823013306 70.47914862632751,33.581045269966125 71.65821194648743,31.554609537124634 72.64931201934814,29.415705800056458 73.44061136245728,27.175238728523254 74.02040362358093,24.84419345855713 74.37677383422852,22.433508932590485 74.49822425842285,19.954098761081696 74.47210550308228,18.83041560649872 74.39510822296143,17.719553411006927 74.2688536643982,16.622325778007507 74.09502863883972,15.539611876010895 73.87546896934509,14.472205936908722 73.61199855804443,13.420970737934113 73.3061671257019,12.386718392372131 72.95988202095032,11.370328813791275 77.34432220458984,4.058589041233063 77.55982875823975,3.749343752861023 77.81023979187012,3.473539650440216 78.09150815010071,3.233596310019493 78.39963436126709,3.0318981036543846 78.73063683509827,2.8708476573228836 79.08051013946533,2.7528464794158936 79.4451355934143,2.6802798733115196 79.82072234153748,2.655566670000553 80.19523024559021,2.6802798733115196 80.55918216705322,2.7528464794158936 80.90844750404358,2.8708646073937416 81.2390387058258,3.0318981036543846 81.54669404029846,3.23357917368412 81.8274199962616,3.473539650440216 82.07688927650452,3.749343752861023 82.29116797447205,4.058589041233063" stroke="white" stroke-width="0.1" /><polygon points="69.06313896179199,17.859308421611786 69.08945441246033,18.119025230407715 69.11239624023438,18.379351496696472 69.1319465637207,18.640287220478058 69.14798021316528,18.901832401752472 69.16050314903259,19.163985550403595 69.1694974899292,19.426746666431427 69.17498111724854,19.690118730068207 69.17680501937866,19.954098761081696 69.01888847351074,22.47437685728073 68.55791211128235,24.900707602500916 67.81296133995056,27.21380591392517 66.80331826210022,29.39445972442627 65.5480682849884,31.423380970954895 64.06642198562622,33.28129053115845 62.37746477127075,34.94895398616791 60.500478744506836,36.40713691711426 60.22414565086365,36.59293353557587 59.94443893432617,36.77308261394501 59.66154336929321,36.94801926612854 59.375542402267456,37.11811900138855 59.08656120300293,37.283873558044434 58.794671297073364,37.44570314884186 58.500003814697266,37.60402798652649 58.202701807022095,37.75927722454071 57.89511203765869,37.90931701660156 57.584887742996216,38.05541396141052 57.27195739746094,38.19712996482849 56.956177949905396,38.333991169929504 56.63749575614929,38.465508818626404 56.315767765045166,38.591256737709045 55.99099397659302,38.71072828769684 55.66297173500061,38.82345259189606 54.89833354949951,39.06960487365723 54.12117838859558,39.2861545085907 53.33190560340881,39.47208821773529 52.53100395202637,39.626455307006836 51.718997955322266,39.74824547767639 50.89651346206665,39.83644247055054 50.06387233734131,39.89011347293854 49.22162592411041,39.90819752216339 48.28350245952606,39.885884523391724 47.357288002967834,39.81979787349701 46.44365906715393,39.71123695373535 45.54336071014404,39.561501145362854 44.65692937374115,39.371880888938904 43.78518462181091,39.14366066455841 42.92859435081482,38.87815773487091 42.087969183921814,38.57662379741669 41.775038838386536,38.45527470111847 41.46413505077362,38.32902014255524 41.15539491176605,38.19775581359863 40.84916114807129,38.061317801475525 40.54563343524933,37.919601798057556 40.24501442909241,37.77250647544861 39.947712421417236,37.61986196041107 39.65378999710083,37.46156990528107 39.33984339237213,37.28443086147308 39.02995586395264,37.101492285728455 38.72385621070862,36.912888288497925 38.42147886753082,36.71878278255463 38.12248408794403,36.51935160160065 37.826669216156006,36.31476163864136 37.533897161483765,36.10518276691437 37.24397122859955,35.890746116638184 35.51265597343445,34.42581295967102 33.957260847091675,32.77799189090729 32.59483277797699,30.963420867919922 31.44209086894989,28.99823486804962 30.5160790681839,26.898571848869324 29.83371615409851,24.680571258068085 29.411914944648743,22.360368072986603 29.267525672912598,19.954098761081696 29.411914944648743,17.54782944917679 29.83371615409851,15.22764265537262 30.5160790681839,13.009658455848694 31.44209086894989,10.910097509622574 32.59476721286774,8.945029973983765 33.957260847091675,7.130660861730576 35.51265597343445,5.483110994100571 37.24397122859955,4.018533602356911 37.533965706825256,3.8037434220314026 37.826669216156006,3.5938922315835953 38.12248408794403,3.389081731438637 38.42147886753082,3.1895488500595093 38.72392475605011,2.99536120146513 39.02995586395264,2.8067218139767647 39.33991193771362,2.62374896556139 39.65378999710083,2.4466289207339287 39.947712421417236,2.289840951561928 40.24501442909241,2.1390749141573906 40.54556488990784,1.9938401877880096 40.84916114807129,1.8536461517214775 41.15539491176605,1.7180193215608597 41.46413505077362,1.5864858403801918 41.775038838386536,1.4585724100470543 42.087969183921814,1.3337374664843082 42.92791783809662,1.0318162851035595 43.784236907958984,0.7659078110009432 44.65598464012146,0.5373314023017883 45.54254710674286,0.34737258683890104 46.44305109977722,0.19735079258680344 47.35695123672485,0.08858541841618717 48.28343689441681,0.022378940775524825 49.22162592411041,0.0 52.08308696746826,0.20401543006300926 54.81801629066467,0.7972180843353271 57.39848017692566,1.7513763159513474 59.79679822921753,3.0382582917809486 61.98496222496033,4.629598930478096 63.935232162475586,6.497199833393097 65.61979055404663,8.612796664237976 67.01056361198425,10.948123037815094 67.19311475753784,11.316554993391037 67.36997961997986,11.68869137763977 67.54055619239807,12.064599990844727 67.70415902137756,12.444382160902023 67.86012053489685,12.828055024147034 68.00775527954102,13.215702772140503 68.14652681350708,13.60737681388855 68.27555894851685,14.00316059589386 68.41453313827515,14.470310509204865 68.54200959205627,14.941976964473724 68.65798234939575,15.418040752410889 68.7623143196106,15.8983513712883 68.85507702827454,16.382771730422974 68.93613338470459,16.871167719364166 69.00548934936523,17.363402247428894" stroke="white" stroke-width="0.1" /></svg>