<?xml version="1.0" encoding="utf-8" ?>
<svg baseProfile="full" height="99.9925434589386" version="1.1" width="100.0" xmlns="http://www.w3.org/2000/svg" xmlns:ev="http://www.w3.org/2001/xml-events" xmlns:xlink="http://www.w3.org/1999/xlink"><defs><clipPath /></defs><polygon points="0.0,8.079490065574646 0.0,8.079490065574646 0.16591476742178202,6.454131007194519 0.16591476742178202,6.454131007194519 0.6426867097616196,4.938993602991104 0.6426867097616196,4.938993602991104 1.3953618705272675,3.5667013376951218 1.3953618705272675,3.5667013376951218 2.391316555440426,2.37034410238266 2.391316555440426,2.37034410238266 3.5965289920568466,1.382545381784439 3.5965289920568466,1.382545381784439 4.977909103035927,0.6363949738442898 4.977909103035927,0.6363949738442898 6.502367556095123,0.16451660776510835 6.502367556095123,0.16451660776510835 8.135416358709335,0.0 8.135416358709335,0.0 91.8683111667633,0.0 91.8683111667633,0.0 93.50322484970093,0.16451660776510835 93.50322484970093,0.16451660776510835 95.02815008163452,0.6363949738442898 95.02815008163452,0.6363949738442898 96.4090645313263,1.382545381784439 96.4090645313263,1.382545381784439 97.61334657669067,2.37034410238266 97.61334657669067,2.37034410238266 98.60789775848389,3.5668179392814636 98.60789775848389,3.5668179392814636 99.35871362686157,4.938993602991104 99.35871362686157,4.938993602991104 99.83454942703247,6.454131007194519 99.83454942703247,6.454131007194519 100.0,8.079490065574646 100.0,8.079490065574646 100.0,91.93169474601746 100.0,91.93169474601746 99.83408451080322,93.5498297214508 99.83408451080322,93.5498297214508 99.35871362686157,95.0598418712616 99.35871362686157,95.0598418712616 98.60789775848389,96.42863869667053 98.60789775848389,96.42863869667053 97.61334657669067,97.6231336593628 97.61334657669067,97.6231336593628 96.40859961509705,98.60988259315491 96.40859961509705,98.60988259315491 95.02815008163452,99.35591220855713 95.02815008163452,99.35591220855713 93.50322484970093,99.82790946960449 93.50322484970093,99.82790946960449 91.8683111667633,99.9925434589386 91.8683111667633,99.9925434589386 8.135416358709335,99.9925434589386 8.135416358709335,99.9925434589386 6.502367556095123,99.82779622077942 6.502367556095123,99.82779622077942 4.978375136852264,99.35591220855713 4.978375136852264,99.35591220855713 3.596995025873184,98.60999584197998 3.596995025873184,98.60999584197998 2.391316555440426,97.6231336593628 2.391316555440426,97.6231336593628 1.3953618705272675,96.4287519454956 1.3953618705272675,96.4287519454956 0.6426867097616196,95.0598418712616 0.6426867097616196,95.0598418712616 0.16638082452118397,93.54971647262573 0.16638082452118397,93.54971647262573 0.0,91.93169474601746 0.0,91.93169474601746" stroke="white" stroke-width="0.1" /><polygon points="8.668580651283264,49.99067783355713 8.668580651283264,49.99067783355713 9.509805589914322,58.312052488327026 9.509805589914322,58.312052488327026 11.921628564596176,66.067636013031 11.921628564596176,66.067636013031 15.737202763557434,73.08988571166992 15.737202763557434,73.08988571166992 20.78874707221985,79.21125292778015 20.78874707221985,79.21125292778015 26.90848708152771,84.26408171653748 26.90848708152771,84.26408171653748 33.930036425590515,88.08070421218872 33.930036425590515,88.08070421218872 41.68422222137451,90.49357175827026 41.68422222137451,90.49357175827026 50.00559091567993,91.33514761924744 50.00559091567993,91.33514761924744 58.32650065422058,90.49357175827026 58.32650065422058,90.49357175827026 66.08208417892456,88.08070421218872 66.08208417892456,88.08070421218872 73.10409545898438,84.26396250724792 73.10409545898438,84.26396250724792 79.22430038452148,79.21125292778015 79.22430038452148,79.21125292778015 84.27631258964539,73.08988571166992 84.27631258964539,73.08988571166992 88.09282183647156,66.067636013031 88.09282183647156,66.067636013031 90.50464034080505,58.312052488327026 90.50464034080505,58.312052488327026 91.34633541107178,49.99067783355713 91.34633541107178,49.99067783355713 90.50464034080505,41.67163670063019 90.50464034080505,41.67163670063019 88.09235095977783,33.91745388507843 88.09235095977783,33.91745388507843 84.27631258964539,26.895901560783386 84.27631258964539,26.895901560783386 79.22430038452148,20.77476531267166 79.22430038452148,20.77476531267166 73.10363054275513,15.721821784973145 73.10363054275513,15.721821784973145 66.08208417892456,11.904850602149963 66.08208417892456,11.904850602149963 58.326029777526855,9.491629898548126 58.326029777526855,9.491629898548126 50.00559091567993,8.649938553571701 50.00559091567993,8.649938553571701 41.68468713760376,9.491629898548126 41.68468713760376,9.491629898548126 33.92957150936127,11.904850602149963 33.92957150936127,11.904850602149963 26.908951997756958,15.721821784973145 26.908951997756958,15.721821784973145 20.78874707221985,20.77476531267166 20.78874707221985,20.77476531267166 15.737667679786682,26.895901560783386 15.737667679786682,26.895901560783386 11.921628564596176,33.91745388507843 11.921628564596176,33.91745388507843 9.509805589914322,41.671520471572876 9.509805589914322,41.671520471572876" stroke="white" stroke-width="0.1" /><polygon points="0.0,8.079490065574646 8.668580651283264,49.99067783355713 9.509805589914322,58.312052488327026 11.921628564596176,66.067636013031 15.737202763557434,73.08988571166992 20.78874707221985,79.21125292778015 26.90848708152771,84.26408171653748 33.930036425590515,88.08070421218872 41.68422222137451,90.49357175827026 50.00559091567993,91.33514761924744 58.32650065422058,90.49357175827026 66.08208417892456,88.08070421218872 73.10409545898438,84.26396250724792 79.22430038452148,79.21125292778015 84.27631258964539,73.08988571166992 88.09282183647156,66.067636013031 90.50464034080505,58.312052488327026 91.34633541107178,49.99067783355713 90.50464034080505,41.67163670063019 88.09235095977783,33.91745388507843 84.27631258964539,26.895901560783386 79.22430038452148,20.77476531267166 73.10363054275513,15.721821784973145 66.08208417892456,11.904850602149963 58.326029777526855,9.491629898548126 50.00559091567993,8.649938553571701 41.68468713760376,9.491629898548126 33.92957150936127,11.904850602149963 26.908951997756958,15.721821784973145 20.78874707221985,20.77476531267166 15.737667679786682,26.895901560783386 11.921628564596176,33.91745388507843 9.509805589914322,41.671520471572876 8.668580651283264,49.99067783355713 0.0,8.079490065574646 0.16591476742178202,6.454131007194519 0.6426867097616196,4.938993602991104 1.3953618705272675,3.5667013376951218 2.391316555440426,2.37034410238266 3.5965289920568466,1.382545381784439 4.977909103035927,0.6363949738442898 6.502367556095123,0.16451660776510835 8.135416358709335,0.0 91.8683111667633,0.0 93.50322484970093,0.16451660776510835 95.02815008163452,0.6363949738442898 96.4090645313263,1.382545381784439 97.61334657669067,2.37034410238266 98.60789775848389,3.5668179392814636 99.35871362686157,4.938993602991104 99.83454942703247,6.454131007194519 100.0,8.079490065574646 100.0,91.93169474601746 99.83408451080322,93.5498297214508 99.35871362686157,95.0598418712616 98.60789775848389,96.42863869667053 97.61334657669067,97.6231336593628 96.40859961509705,98.60988259315491 95.02815008163452,99.35591220855713 93.50322484970093,99.82790946960449 91.8683111667633,99.9925434589386 8.135416358709335,99.9925434589386 6.502367556095123,99.82779622077942 4.978375136852264,99.35591220855713 3.596995025873184,98.60999584197998 2.391316555440426,97.6231336593628 1.3953618705272675,96.4287519454956 0.6426867097616196,95.0598418712616 0.16638082452118397,93.54971647262573 0.0,91.93169474601746" stroke="white" stroke-width="0.1" /></svg>