<?xml version="1.0" encoding="utf-8" ?>
<svg baseProfile="full" height="29.460906982421875" version="1.1" width="100.0" xmlns="http://www.w3.org/2000/svg" xmlns:ev="http://www.w3.org/2001/xml-events" xmlns:xlink="http://www.w3.org/1999/xlink"><defs><clipPath /></defs><polygon points="100.0,0.3612518310546875 100.0,0.3612518310546875 100.0,2.3042678833007812 100.0,2.3042678833007812 99.99172687530518,2.410006523132324 99.99172687530518,2.410006523132324 99.96848106384277,2.5243282318115234 99.96848106384277,2.5243282318115234 99.93243217468262,2.641129493713379 99.93243217468262,2.641129493713379 99.88577365875244,2.754092216491699 99.88577365875244,2.754092216491699 99.83077049255371,2.857065200805664 99.83077049255371,2.857065200805664 99.76959228515625,2.9438018798828125 99.76959228515625,2.9438018798828125 98.7030029296875,4.2327880859375 98.7030029296875,4.2327880859375 98.63026142120361,4.305410385131836 98.63026142120361,4.305410385131836 98.54042530059814,4.370856285095215 98.54042530059814,4.370856285095215 98.43907356262207,4.426693916320801 98.43907356262207,4.426693916320801 98.331618309021,4.470229148864746 98.331618309021,4.470229148864746 98.22359085083008,4.498958587646484 98.22359085083008,4.498958587646484 98.12049865722656,4.510307312011719 98.12049865722656,4.510307312011719 98.12049865722656,6.535148620605469 98.12049865722656,6.535148620605469 94.68612670898438,12.64495849609375 94.68612670898438,12.64495849609375 94.69714164733887,13.06300163269043 94.69714164733887,13.06300163269043 94.70994472503662,13.486099243164062 94.70994472503662,13.486099243164062 94.72451210021973,13.907098770141602 94.72451210021973,13.907098770141602 94.74074840545654,14.318656921386719 94.74074840545654,14.318656921386719 94.75860595703125,14.713668823242188 94.75860595703125,14.713668823242188 94.77806091308594,15.0848388671875 94.77806091308594,15.0848388671875 94.81921195983887,15.800070762634277 94.81921195983887,15.800070762634277 94.8641300201416,16.348886489868164 94.8641300201416,16.348886489868164 94.93188858032227,16.762304306030273 94.93188858032227,16.762304306030273 95.0413703918457,17.07127094268799 95.0413703918457,17.07127094268799 95.21164894104004,17.306804656982422 95.21164894104004,17.306804656982422 95.46165466308594,17.499923706054688 95.46165466308594,17.499923706054688 95.49565315246582,17.520451545715332 95.49565315246582,17.520451545715332 95.52974700927734,17.54019260406494 95.52974700927734,17.54019260406494 95.56398391723633,17.559289932250977 95.56398391723633,17.559289932250977 95.59824466705322,17.577719688415527 95.59824466705322,17.577719688415527 95.63255310058594,17.595696449279785 95.63255310058594,17.595696449279785 95.66688537597656,17.61322021484375 95.66688537597656,17.61322021484375 95.9876537322998,17.474985122680664 95.9876537322998,17.474985122680664 96.29311561584473,17.339134216308594 96.29311561584473,17.339134216308594 96.5810775756836,17.206287384033203 96.5810775756836,17.206287384033203 96.84915542602539,17.077016830444336 96.84915542602539,17.077016830444336 97.09515571594238,16.952061653137207 97.09515571594238,16.952061653137207 97.31674194335938,16.83197021484375 97.31674194335938,16.83197021484375 97.46005535125732,16.74976348876953 97.46005535125732,16.74976348876953 97.58729934692383,16.670966148376465 97.58729934692383,16.670966148376465 97.69635200500488,16.598105430603027 97.69635200500488,16.598105430603027 97.78506755828857,16.533493995666504 97.78506755828857,16.533493995666504 97.85137176513672,16.47968292236328 97.85137176513672,16.47968292236328 97.89314270019531,16.439056396484375 97.89314270019531,16.439056396484375 98.00691604614258,16.34657382965088 98.00691604614258,16.34657382965088 98.1365442276001,16.289234161376953 98.1365442276001,16.289234161376953 98.27470779418945,16.2672758102417 98.27470779418945,16.2672758102417 98.41389656066895,16.2808895111084 98.41389656066895,16.2808895111084 98.54683876037598,16.330313682556152 98.54683876037598,16.330313682556152 98.66600036621094,16.415786743164062 98.66600036621094,16.415786743164062 98.72622489929199,16.48259162902832 98.72622489929199,16.48259162902832 98.77340793609619,16.556334495544434 98.77340793609619,16.556334495544434 98.80762100219727,16.63539409637451 98.80762100219727,16.63539409637451 98.82874488830566,16.718006134033203 98.82874488830566,16.718006134033203 98.83687496185303,16.802597045898438 98.83687496185303,16.802597045898438 98.83193969726562,16.887474060058594 98.83193969726562,16.887474060058594 98.83556365966797,16.965103149414062 98.83556365966797,16.965103149414062 98.82850646972656,17.04256534576416 98.82850646972656,17.04256534576416 98.8105297088623,17.11859703063965 98.8105297088623,17.11859703063965 98.78144264221191,17.19188690185547 98.78144264221191,17.19188690185547 98.74110221862793,17.261266708374023 98.74110221862793,17.261266708374023 98.68927001953125,17.325401306152344 98.68927001953125,17.325401306152344 98.57654571533203,17.433667182922363 98.57654571533203,17.433667182922363 98.45366477966309,17.535781860351562 98.45366477966309,17.535781860351562 98.32015037536621,17.633748054504395 98.32015037536621,17.633748054504395 98.1755256652832,17.729520797729492 98.1755256652832,17.729520797729492 98.01936149597168,17.82522201538086 98.01936149597168,17.82522201538086 97.85118103027344,17.92278289794922 97.85118103027344,17.92278289794922 97.67172336578369,18.02058219909668 97.67172336578369,18.02058219909668 97.48127460479736,18.11966896057129 97.48127460479736,18.11966896057129 97.28055000305176,18.219947814941406 97.28055000305176,18.219947814941406 97.07000255584717,18.3213472366333 97.07000255584717,18.3213472366333 96.8503475189209,18.423867225646973 96.8503475189209,18.423867225646973 96.62208557128906,18.52741241455078 96.62208557128906,18.52741241455078 96.62127494812012,18.527746200561523 96.62127494812012,18.527746200561523 96.62044048309326,18.528127670288086 96.62044048309326,18.528127670288086 96.6196060180664,18.52855682373047 96.6196060180664,18.52855682373047 96.61874771118164,18.52893829345703 96.61874771118164,18.52893829345703 96.6179370880127,18.529319763183594 96.6179370880127,18.529319763183594 96.61712646484375,18.529701232910156 96.61712646484375,18.529701232910156 96.63572311401367,18.61720085144043 96.63572311401367,18.61720085144043 96.65064811706543,18.711328506469727 96.65064811706543,18.711328506469727 96.66166305541992,18.81256103515625 96.66166305541992,18.81256103515625 96.66852951049805,18.921232223510742 96.66852951049805,18.921232223510742 96.67105674743652,19.037914276123047 96.67105674743652,19.037914276123047 96.66900634765625,19.162940979003906 96.66900634765625,19.162940979003906 96.66376113891602,19.30975914001465 96.66376113891602,19.30975914001465 96.65834903717041,19.45779323577881 96.65834903717041,19.45779323577881 96.65284156799316,19.606471061706543 96.65284156799316,19.606471061706543 96.64721488952637,19.755244255065918 96.64721488952637,19.755244255065918 96.64154052734375,19.90358829498291 96.64154052734375,19.90358829498291 96.63581848144531,20.051002502441406 96.63581848144531,20.051002502441406 96.76158428192139,19.99044418334961 96.76158428192139,19.99044418334961 96.8827486038208,19.93081569671631 96.8827486038208,19.93081569671631 96.9991683959961,19.872212409973145 96.9991683959961,19.872212409973145 97.1104621887207,19.814586639404297 97.1104621887207,19.814586639404297 97.21641540527344,19.758081436157227 97.21641540527344,19.758081436157227 97.31674194335938,19.702720642089844 97.31674194335938,19.702720642089844 97.46005535125732,19.620466232299805 97.46005535125732,19.620466232299805 97.58729934692383,19.541597366333008 97.58729934692383,19.541597366333008 97.69635200500488,19.46873664855957 97.69635200500488,19.46873664855957 97.78506755828857,19.404172897338867 97.78506755828857,19.404172897338867 97.85137176513672,19.350457191467285 97.85137176513672,19.350457191467285 97.89314270019531,19.30999755859375 97.89314270019531,19.30999755859375 98.00691604614258,19.217419624328613 98.00691604614258,19.217419624328613 98.1365442276001,19.160056114196777 98.1365442276001,19.160056114196777 98.27470779418945,19.138097763061523 98.27470779418945,19.138097763061523 98.41389656066895,19.151687622070312 98.41389656066895,19.151687622070312 98.54683876037598,19.201040267944336 98.54683876037598,19.201040267944336 98.66600036621094,19.286346435546875 98.66600036621094,19.286346435546875 98.75836372375488,19.40014362335205 98.75836372375488,19.40014362335205 98.81570339202881,19.52979564666748 98.81570339202881,19.52979564666748 98.83770942687988,19.667935371398926 98.83770942687988,19.667935371398926 98.8241195678711,19.807124137878418 98.8241195678711,19.807124137878418 98.77474308013916,19.94009017944336 98.77474308013916,19.94009017944336 98.68927001953125,20.05939483642578 98.68927001953125,20.05939483642578 98.57654571533203,20.1676607131958 98.57654571533203,20.1676607131958 98.45366477966309,20.26975154876709 98.45366477966309,20.26975154876709 98.32015037536621,20.367741584777832 98.32015037536621,20.367741584777832 98.1755256652832,20.46353816986084 98.1755256652832,20.46353816986084 98.01936149597168,20.559215545654297 98.01936149597168,20.559215545654297 97.85118103027344,20.656776428222656 97.85118103027344,20.656776428222656 97.67172336578369,20.754551887512207 97.67172336578369,20.754551887512207 97.48127460479736,20.853662490844727 97.48127460479736,20.853662490844727 97.28055000305176,20.953941345214844 97.28055000305176,20.953941345214844 97.07000255584717,21.05534076690674 97.07000255584717,21.05534076690674 96.8503475189209,21.15786075592041 96.8503475189209,21.15786075592041 96.62208557128906,21.26140594482422 96.62208557128906,21.26140594482422 96.6160535812378,21.264076232910156 96.6160535812378,21.264076232910156 96.60990238189697,21.266770362854004 96.60990238189697,21.266770362854004 96.60377502441406,21.269512176513672 96.60377502441406,21.269512176513672 96.59757614135742,21.27223014831543 96.59757614135742,21.27223014831543 96.59147262573242,21.274948120117188 96.59147262573242,21.274948120117188 96.58546447753906,21.277618408203125 96.58546447753906,21.277618408203125 96.57695293426514,21.47233486175537 96.57695293426514,21.47233486175537 96.56956195831299,21.63994312286377 96.56956195831299,21.63994312286377 96.5634822845459,21.776795387268066 96.5634822845459,21.776795387268066 96.55885696411133,21.879100799560547 96.55885696411133,21.879100799560547 96.5559720993042,21.943211555480957 96.5559720993042,21.943211555480957 96.55494689941406,21.965408325195312 96.55494689941406,21.965408325195312 96.54426574707031,21.992897987365723 96.54426574707031,21.992897987365723 96.51520252227783,22.06404209136963 96.51520252227783,22.06404209136963 96.47226333618164,22.16181755065918 96.47226333618164,22.16181755065918 96.4198350906372,22.269058227539062 96.4198350906372,22.269058227539062 96.36237621307373,22.368741035461426 96.36237621307373,22.368741035461426 96.3043212890625,22.443771362304688 96.3043212890625,22.443771362304688 96.25964164733887,22.587990760803223 96.25964164733887,22.587990760803223 96.23591899871826,22.86064624786377 96.23591899871826,22.86064624786377 96.22740745544434,23.192834854125977 96.22740745544434,23.192834854125977 96.22838497161865,23.51546287536621 96.22838497161865,23.51546287536621 96.2331771850586,23.75965118408203 96.2331771850586,23.75965118408203 96.23603820800781,23.856353759765625 96.23603820800781,23.856353759765625 96.23289108276367,23.931121826171875 96.23289108276367,23.931121826171875 96.21837139129639,24.128007888793945 96.21837139129639,24.128007888793945 96.18487358093262,24.405980110168457 96.18487358093262,24.405980110168457 96.1247444152832,24.72381591796875 96.1247444152832,24.72381591796875 96.03042602539062,25.040340423583984 96.03042602539062,25.040340423583984 95.89424133300781,25.31452178955078 95.89424133300781,25.31452178955078 95.69578170776367,25.57849884033203 95.69578170776367,25.57849884033203 95.44539451599121,25.86967945098877 95.44539451599121,25.86967945098877 95.18241882324219,26.154613494873047 95.18241882324219,26.154613494873047 94.94597911834717,26.399660110473633 94.94597911834717,26.399660110473633 94.775390625,26.571273803710938 94.775390625,26.571273803710938 94.70977783203125,26.63593292236328 94.70977783203125,26.63593292236328 92.95539855957031,26.65882110595703 92.95539855957031,26.65882110595703 92.94004440307617,26.62684917449951 92.94004440307617,26.62684917449951 92.89376735687256,26.54740810394287 92.89376735687256,26.54740810394287 92.81582832336426,26.44526958465576 92.81582832336426,26.44526958465576 92.7056074142456,26.344966888427734 92.7056074142456,26.344966888427734 92.56248474121094,26.27124786376953 92.56248474121094,26.27124786376953 92.3858642578125,26.248741149902344 92.3858642578125,26.248741149902344 91.76692962646484,26.32749080657959 91.76692962646484,26.32749080657959 90.51833152770996,26.506900787353516 90.51833152770996,26.506900787353516 88.97113800048828,26.735711097717285 88.97113800048828,26.735711097717285 87.45620250701904,26.962614059448242 87.45620250701904,26.962614059448242 86.30454540252686,27.13634967803955 86.30454540252686,27.13634967803955 85.84709167480469,27.205657958984375 85.84709167480469,27.205657958984375 84.45587158203125,26.741790771484375 84.45587158203125,26.741790771484375 84.53805446624756,26.4096736907959 84.53805446624756,26.4096736907959 84.6062183380127,26.072287559509277 84.6062183380127,26.072287559509277 84.66000556945801,25.730037689208984 84.66000556945801,25.730037689208984 84.69891548156738,25.3831148147583 84.69891548156738,25.3831148147583 84.72256660461426,25.03185272216797 84.72256660461426,25.03185272216797 84.73052978515625,24.676513671875 84.73052978515625,24.676513671875 84.67729091644287,23.75614643096924 84.67729091644287,23.75614643096924 84.52169895172119,22.86665439605713 84.52169895172119,22.86665439605713 84.26976203918457,22.0139741897583 84.26976203918457,22.0139741897583 83.92741680145264,21.2038516998291 83.92741680145264,21.2038516998291 83.50069522857666,20.44224739074707 83.50069522857666,20.44224739074707 82.99560546875,19.734954833984375 82.99560546875,19.734954833984375 83.18560123443604,20.182180404663086 83.18560123443604,20.182180404663086 83.3442211151123,20.64504623413086 83.3442211151123,20.64504623413086 83.47015380859375,21.122169494628906 83.47015380859375,21.122169494628906 83.56180191040039,21.612238883972168 83.56180191040039,21.612238883972168 83.61787796020508,22.113990783691406 83.61787796020508,22.113990783691406 83.63685607910156,22.626113891601562 83.63685607910156,22.626113891601562 83.63053798675537,22.921442985534668 83.63053798675537,22.921442985534668 83.61184597015381,23.213648796081543 83.61184597015381,23.213648796081543 83.5810661315918,23.502445220947266 83.5810661315918,23.502445220947266 83.5383415222168,23.787498474121094 83.5383415222168,23.787498474121094 83.48400592803955,24.068641662597656 83.48400592803955,24.068641662597656 83.41827392578125,24.34558868408203 83.41827392578125,24.34558868408203 82.88426399230957,25.74610710144043 82.88426399230957,25.74610710144043 82.07082748413086,26.979422569274902 82.07082748413086,26.979422569274902 81.01696968078613,28.006601333618164 81.01696968078613,28.006601333618164 79.76155281066895,28.78854274749756 79.76155281066895,28.78854274749756 78.34362983703613,29.28633689880371 78.34362983703613,29.28633689880371 76.80206298828125,29.460906982421875 76.80206298828125,29.460906982421875 75.388503074646,29.314446449279785 75.388503074646,29.314446449279785 74.07560348510742,28.895068168640137 74.07560348510742,28.895068168640137 72.89309501647949,28.232550621032715 72.89309501647949,28.232550621032715 71.87061309814453,27.356672286987305 71.87061309814453,27.356672286987305 71.03791236877441,26.297330856323242 71.03791236877441,26.297330856323242 70.42465209960938,25.084304809570312 70.42465209960938,25.084304809570312 70.28846740722656,24.697327613830566 70.28846740722656,24.697327613830566 70.17505168914795,24.300312995910645 70.17505168914795,24.300312995910645 70.08533477783203,23.89397621154785 70.08533477783203,23.89397621154785 70.02010345458984,23.478984832763672 70.02010345458984,23.478984832763672 69.98035907745361,23.05612564086914 69.98035907745361,23.05612564086914 69.96688842773438,22.626113891601562 69.96688842773438,22.626113891601562 69.98589038848877,22.114038467407227 69.98589038848877,22.114038467407227 70.04189491271973,21.61238193511963 70.04189491271973,21.61238193511963 70.13359069824219,21.122407913208008 70.13359069824219,21.122407913208008 70.2594518661499,20.64533233642578 70.2594518661499,20.64533233642578 70.4181432723999,20.182490348815918 70.4181432723999,20.182490348815918 70.60813903808594,19.735145568847656 70.60813903808594,19.735145568847656 70.10316848754883,20.44239044189453 70.10316848754883,20.44239044189453 69.67649459838867,21.203970909118652 69.67649459838867,21.203970909118652 69.33412551879883,22.01406955718994 69.33412551879883,22.01406955718994 69.08209323883057,22.86674976348877 69.08209323883057,22.86674976348877 68.92645359039307,23.75617027282715 68.92645359039307,23.75617027282715 68.87321472167969,24.676513671875 68.87321472167969,24.676513671875 68.89019012451172,25.196480751037598 68.89019012451172,25.196480751037598 68.94047260284424,25.707459449768066 68.94047260284424,25.707459449768066 69.02284622192383,26.20856761932373 69.02284622192383,26.20856761932373 69.1361665725708,26.698660850524902 69.1361665725708,26.698660850524902 69.27933692932129,27.176856994628906 69.27933692932129,27.176856994628906 69.45114135742188,27.642059326171875 69.45114135742188,27.642059326171875 63.56773376464844,28.34930419921875 63.56773376464844,28.34930419921875 62.438368797302246,28.362202644348145 62.438368797302246,28.362202644348145 59.432291984558105,28.39362621307373 59.432291984558105,28.39362621307373 55.12237548828125,28.432393074035645 55.12237548828125,28.432393074035645 50.081491470336914,28.467345237731934 50.081491470336914,28.467345237731934 44.88251209259033,28.487348556518555 44.88251209259033,28.487348556518555 40.09838104248047,28.481292724609375 40.09838104248047,28.481292724609375 36.246347427368164,28.462529182434082 36.246347427368164,28.462529182434082 33.377695083618164,28.450679779052734 33.377695083618164,28.450679779052734 31.366252899169922,28.444242477416992 31.366252899169922,28.444242477416992 30.08573055267334,28.441524505615234 30.08573055267334,28.441524505615234 29.40998077392578,28.44104766845703 29.40998077392578,28.44104766845703 29.21276092529297,28.441238403320312 29.21276092529297,28.441238403320312 24.213790893554688,27.63347625732422 24.213790893554688,27.63347625732422 24.384450912475586,27.169489860534668 24.384450912475586,27.169489860534668 24.526643753051758,26.692652702331543 24.526643753051758,26.692652702331543 24.639248847961426,26.20398998260498 24.639248847961426,26.20398998260498 24.721074104309082,25.704407691955566 24.721074104309082,25.704407691955566 24.77102279663086,25.194931030273438 24.77102279663086,25.194931030273438 24.78790283203125,24.676513671875 24.78790283203125,24.676513671875 24.73468780517578,23.75614643096924 24.73468780517578,23.75614643096924 24.5790958404541,22.86670207977295 24.5790958404541,22.86670207977295 24.32715892791748,22.01406955718994 24.32715892791748,22.01406955718994 23.984837532043457,21.203994750976562 23.984837532043457,21.203994750976562 23.55818748474121,20.44241428375244 23.55818748474121,20.44241428375244 23.05316925048828,19.735145568847656 23.05316925048828,19.735145568847656 23.243236541748047,20.182466506958008 23.243236541748047,20.182466506958008 23.401904106140137,20.64528465270996 23.401904106140137,20.64528465270996 23.52778911590576,21.122407913208008 23.52778911590576,21.122407913208008 23.619413375854492,21.61240577697754 23.619413375854492,21.61240577697754 23.67544174194336,22.114086151123047 23.67544174194336,22.114086151123047 23.694419860839844,22.626113891601562 23.694419860839844,22.626113891601562 23.68471622467041,22.991061210632324 23.68471622467041,22.991061210632324 23.656034469604492,23.351049423217773 23.656034469604492,23.351049423217773 23.608922958374023,23.705554008483887 23.608922958374023,23.705554008483887 23.543882369995117,24.05412197113037 23.543882369995117,24.05412197113037 23.461532592773438,24.396276473999023 23.461532592773438,24.396276473999023 23.362350463867188,24.73163604736328 23.362350463867188,24.73163604736328 22.783374786376953,26.03476047515869 22.783374786376953,26.03476047515869 21.95725440979004,27.1773099899292 21.95725440979004,27.1773099899292 20.917844772338867,28.125309944152832 20.917844772338867,28.125309944152832 19.69912052154541,28.844571113586426 19.69912052154541,28.844571113586426 18.33500862121582,29.301166534423828 18.33500862121582,29.301166534423828 16.85943603515625,29.460906982421875 16.85943603515625,29.460906982421875 15.705299377441406,29.36384677886963 15.705299377441406,29.36384677886963 14.613628387451172,29.08334732055664 14.613628387451172,29.08334732055664 13.600420951843262,28.635334968566895 13.600420951843262,28.635334968566895 12.68150806427002,28.035664558410645 12.68150806427002,28.035664558410645 11.87288761138916,27.300333976745605 11.87288761138916,27.300333976745605 11.190414428710938,26.44519805908203 11.190414428710938,26.44519805908203 10.848522186279297,25.88188648223877 10.848522186279297,25.88188648223877 10.561132431030273,25.284719467163086 10.561132431030273,25.284719467163086 10.331583023071289,24.657177925109863 10.331583023071289,24.657177925109863 10.163354873657227,24.002575874328613 10.163354873657227,24.002575874328613 10.059905052185059,23.32444190979004 10.059905052185059,23.32444190979004 10.024642944335938,22.626113891601562 10.024642944335938,22.626113891601562 10.043621063232422,22.113966941833496 10.043621063232422,22.113966941833496 10.099625587463379,21.612191200256348 10.099625587463379,21.612191200256348 10.19129753112793,21.122169494628906 10.19129753112793,21.122169494628906 10.317182540893555,20.64507007598877 10.317182540893555,20.64507007598877 10.475921630859375,20.182228088378906 10.475921630859375,20.182228088378906 10.666084289550781,19.734954833984375 10.666084289550781,19.734954833984375 10.160970687866211,20.44219970703125 10.160970687866211,20.44219970703125 9.734201431274414,21.20382785797119 9.734201431274414,21.20382785797119 9.39183235168457,22.0139741897583 9.39183235168457,22.0139741897583 9.139823913574219,22.86670207977295 9.139823913574219,22.86670207977295 8.984184265136719,23.75617027282715 8.984184265136719,23.75617027282715 8.93096923828125,24.676513671875 8.93096923828125,24.676513671875 8.955025672912598,25.29621124267578 8.955025672912598,25.29621124267578 9.025955200195312,25.902986526489258 9.025955200195312,25.902986526489258 9.141993522644043,26.495051383972168 9.141993522644043,26.495051383972168 9.301209449768066,27.07061767578125 9.301209449768066,27.07061767578125 9.501838684082031,27.627944946289062 9.501838684082031,27.627944946289062 9.741973876953125,28.165245056152344 9.741973876953125,28.165245056152344 9.519195556640625,28.203654289245605 9.519195556640625,28.203654289245605 8.942317962646484,28.299713134765625 8.942317962646484,28.299713134765625 8.148550987243652,28.424644470214844 8.148550987243652,28.424644470214844 7.2750091552734375,28.549528121948242 7.2750091552734375,28.549528121948242 6.458926200866699,28.645610809326172 6.458926200866699,28.645610809326172 5.837440490722656,28.684043884277344 5.837440490722656,28.684043884277344 0.0,28.684043884277344 0.0,28.684043884277344 0.0,28.238296508789062 0.0,28.238296508789062 3.4631729125976562,27.72960662841797 3.4631729125976562,27.72960662841797 3.4804821014404297,27.70395278930664 3.4804821014404297,27.70395278930664 3.5255908966064453,27.615642547607422 3.5255908966064453,27.615642547607422 3.588438034057617,27.44760513305664 3.588438034057617,27.44760513305664 3.6588668823242188,27.182722091674805 3.6588668823242188,27.182722091674805 3.726816177368164,26.803922653198242 3.726816177368164,26.803922653198242 3.7820816040039062,26.29413604736328 3.7820816040039062,26.29413604736328 3.791952133178711,26.169848442077637 3.791952133178711,26.169848442077637 3.8019895553588867,26.04539394378662 3.8019895553588867,26.04539394378662 3.8121461868286133,25.921034812927246 3.8121461868286133,25.921034812927246 3.8222312927246094,25.796937942504883 3.8222312927246094,25.796937942504883 3.8321495056152344,25.673389434814453 3.8321495056152344,25.673389434814453 3.8417816162109375,25.55065155029297 3.8417816162109375,25.55065155029297 3.4268856048583984,25.620532035827637 3.4268856048583984,25.620532035827637 3.019857406616211,25.681638717651367 3.019857406616211,25.681638717651367 2.6246070861816406,25.73235034942627 2.6246070861816406,25.73235034942627 2.244997024536133,25.770902633666992 2.244997024536133,25.770902633666992 1.8848896026611328,25.795650482177734 1.8848896026611328,25.795650482177734 1.5481948852539062,25.804901123046875 1.5481948852539062,25.804901123046875 1.410818099975586,25.803041458129883 1.410818099975586,25.803041458129883 1.2777328491210938,25.797748565673828 1.2777328491210938,25.797748565673828 1.1486053466796875,25.788426399230957 1.1486053466796875,25.788426399230957 1.0230064392089844,25.774359703063965 1.0230064392089844,25.774359703063965 0.9006261825561523,25.755023956298828 0.9006261825561523,25.755023956298828 0.7810592651367188,25.729751586914062 0.7810592651367188,25.729751586914062 0.6443977355957031,25.67622661590576 0.6443977355957031,25.67622661590576 0.5306005477905273,25.591611862182617 0.5306005477905273,25.591611862182617 0.44341087341308594,25.48232078552246 0.44341087341308594,25.48232078552246 0.38661956787109375,25.354480743408203 0.38661956787109375,25.354480743408203 0.3640890121459961,25.214529037475586 0.3640890121459961,25.214529037475586 0.3795623779296875,25.06866455078125 0.3795623779296875,25.06866455078125 0.4330635070800781,24.932074546813965 0.4330635070800781,24.932074546813965 0.5176544189453125,24.81825351715088 0.5176544189453125,24.81825351715088 0.6270647048950195,24.731111526489258 0.6270647048950195,24.731111526489258 0.7549047470092773,24.674344062805176 0.7549047470092773,24.674344062805176 0.8948802947998047,24.651813507080078 0.8948802947998047,24.651813507080078 1.0406494140625,24.6673583984375 1.0406494140625,24.6673583984375 1.0976552963256836,24.67949390411377 1.0976552963256836,24.67949390411377 1.1670827865600586,24.69022274017334 1.1670827865600586,24.69022274017334 1.2479305267333984,24.69916343688965 1.2479305267333984,24.69916343688965 1.339101791381836,24.705862998962402 1.339101791381836,24.705862998962402 1.439523696899414,24.71003532409668 1.439523696899414,24.71003532409668 1.5481948852539062,24.711227416992188 1.5481948852539062,24.711227416992188 1.8634557723999023,24.70238208770752 1.8634557723999023,24.70238208770752 2.2183895111083984,24.675607681274414 2.2183895111083984,24.675607681274414 2.6059389114379883,24.633049964904785 2.6059389114379883,24.633049964904785 3.0189990997314453,24.576616287231445 3.0189990997314453,24.576616287231445 3.450465202331543,24.508357048034668 3.450465202331543,24.508357048034668 3.893280029296875,24.430274963378906 3.893280029296875,24.430274963378906 3.8869380950927734,24.243783950805664 3.8869380950927734,24.243783950805664 3.8726329803466797,24.07538890838623 3.8726329803466797,24.07538890838623 3.8492202758789062,23.92745018005371 3.8492202758789062,23.92745018005371 3.815627098083496,23.80213737487793 3.815627098083496,23.80213737487793 3.770780563354492,23.70173931121826 3.770780563354492,23.70173931121826 3.7136077880859375,23.628616333007812 3.7136077880859375,23.628616333007812 3.638458251953125,23.5598087310791 3.638458251953125,23.5598087310791 3.567075729370117,23.49388599395752 3.567075729370117,23.49388599395752 3.5000085830688477,23.428678512573242 3.5000085830688477,23.428678512573242 3.43782901763916,23.361945152282715 3.43782901763916,23.361945152282715 3.381180763244629,23.291540145874023 3.381180763244629,23.291540145874023 3.3306121826171875,23.215293884277344 3.3306121826171875,23.215293884277344 3.0315399169921875,23.259258270263672 3.0315399169921875,23.259258270263672 2.7361392974853516,23.29730987548828 2.7361392974853516,23.29730987548828 2.4462461471557617,23.328614234924316 2.4462461471557617,23.328614234924316 2.1636486053466797,23.35221767425537 2.1636486053466797,23.35221767425537 1.8901348114013672,23.36726188659668 1.8901348114013672,23.36726188659668 1.6275405883789062,23.372840881347656 1.6275405883789062,23.372840881347656 1.4771461486816406,23.370838165283203 1.4771461486816406,23.370838165283203 1.330709457397461,23.364806175231934 1.330709457397461,23.364806175231934 1.188063621520996,23.354196548461914 1.188063621520996,23.354196548461914 1.0489940643310547,23.33829402923584 1.0489940643310547,23.33829402923584 0.9134054183959961,23.316574096679688 0.9134054183959961,23.316574096679688 0.7810592651367188,23.288345336914062 0.7810592651367188,23.288345336914062 0.6444454193115234,23.234987258911133 0.6444454193115234,23.234987258911133 0.5306482315063477,23.15049171447754 0.5306482315063477,23.15049171447754 0.44341087341308594,23.041248321533203 0.44341087341308594,23.041248321533203 0.38657188415527344,22.913455963134766 0.38657188415527344,22.913455963134766 0.3640413284301758,22.77350425720215 0.3640413284301758,22.77350425720215 0.3795623779296875,22.627639770507812 0.3795623779296875,22.627639770507812 0.4330635070800781,22.491025924682617 0.4330635070800781,22.491025924682617 0.5176067352294922,22.37718105316162 0.5176067352294922,22.37718105316162 0.6269931793212891,22.28999137878418 0.6269931793212891,22.28999137878418 0.7548093795776367,22.233152389526367 0.7548093795776367,22.233152389526367 0.8948087692260742,22.21062183380127 0.8948087692260742,22.21062183380127 1.0406494140625,22.22614288330078 1.0406494140625,22.22614288330078 1.1119842529296875,22.24135398864746 1.1119842529296875,22.24135398864746 1.1952877044677734,22.254443168640137 1.1952877044677734,22.254443168640137 1.289534568786621,22.265100479125977 1.289534568786621,22.265100479125977 1.3936519622802734,22.272968292236328 1.3936519622802734,22.272968292236328 1.5066862106323242,22.27776050567627 1.5066862106323242,22.27776050567627 1.6275405883789062,22.27916717529297 1.6275405883789062,22.27916717529297 1.8557548522949219,22.27497100830078 1.8557548522949219,22.27497100830078 2.1004676818847656,22.26126194000244 2.1004676818847656,22.26126194000244 2.359342575073242,22.238874435424805 2.359342575073242,22.238874435424805 2.6299476623535156,22.208666801452637 2.6299476623535156,22.208666801452637 2.90985107421875,22.171568870544434 2.90985107421875,22.171568870544434 3.19671630859375,22.12848663330078 3.19671630859375,22.12848663330078 3.207278251647949,21.76187038421631 3.207278251647949,21.76187038421631 3.2203197479248047,21.38514518737793 3.2203197479248047,21.38514518737793 3.233933448791504,21.03259563446045 3.233933448791504,21.03259563446045 3.2460689544677734,20.7383394241333 3.2460689544677734,20.7383394241333 3.2547950744628906,20.5366849899292 3.2547950744628906,20.5366849899292 3.2581329345703125,20.46184539794922 3.2581329345703125,20.46184539794922 3.280353546142578,20.452117919921875 3.280353546142578,20.452117919921875 3.3449649810791016,20.4221248626709 3.3449649810791016,20.4221248626709 3.448820114135742,20.37065029144287 3.448820114135742,20.37065029144287 3.588724136352539,20.296382904052734 3.588724136352539,20.296382904052734 3.761601448059082,20.19805908203125 3.761601448059082,20.19805908203125 3.9642333984375,20.074462890625 3.9642333984375,20.074462890625 4.175305366516113,19.917678833007812 4.175305366516113,19.917678833007812 4.3692827224731445,19.716596603393555 4.3692827224731445,19.716596603393555 4.536676406860352,19.464993476867676 4.536676406860352,19.464993476867676 4.667973518371582,19.156384468078613 4.667973518371582,19.156384468078613 4.753708839416504,18.784523010253906 4.753708839416504,18.784523010253906 4.784393310546875,18.342971801757812 4.784393310546875,18.342971801757812 4.766559600830078,17.83146858215332 4.766559600830078,17.83146858215332 4.7481536865234375,17.273783683776855 4.7481536865234375,17.273783683776855 4.781651496887207,16.699695587158203 4.781651496887207,16.699695587158203 4.919528961181641,16.138839721679688 4.919528961181641,16.138839721679688 5.214357376098633,15.621042251586914 5.214357376098633,15.621042251586914 5.7186126708984375,15.176010131835938 5.7186126708984375,15.176010131835938 6.602239608764648,14.704561233520508 6.602239608764648,14.704561233520508 7.965612411499023,14.122962951660156 7.965612411499023,14.122962951660156 9.756851196289062,13.484477996826172 9.756851196289062,13.484477996826172 11.924004554748535,12.842130661010742 11.924004554748535,12.842130661010742 14.415216445922852,12.249135971069336 14.415216445922852,12.249135971069336 17.17853546142578,11.758613586425781 17.17853546142578,11.758613586425781 20.08962631225586,11.361217498779297 20.08962631225586,11.361217498779297 22.924113273620605,11.017584800720215 22.924113273620605,11.017584800720215 25.480151176452637,10.736083984375 25.480151176452637,10.736083984375 27.55582332611084,10.524749755859375 27.55582332611084,10.524749755859375 28.949284553527832,10.391950607299805 28.949284553527832,10.391950607299805 29.4586181640625,10.345840454101562 29.4586181640625,10.345840454101562 29.46019172668457,10.390877723693848 29.46019172668457,10.390877723693848 29.471254348754883,10.50112247467041 29.471254348754883,10.50112247467041 29.5013427734375,10.639262199401855 29.5013427734375,10.639262199401855 29.559898376464844,10.767889022827148 29.559898376464844,10.767889022827148 29.656434059143066,10.849714279174805 29.656434059143066,10.849714279174805 29.8004150390625,10.847282409667969 29.8004150390625,10.847282409667969 30.34489154815674,10.54074764251709 30.34489154815674,10.54074764251709 31.513381004333496,9.822893142700195 31.513381004333496,9.822893142700195 33.12106132507324,8.825349807739258 33.12106132507324,8.825349807739258 34.983158111572266,7.679653167724609 34.983158111572266,7.679653167724609 36.914849281311035,6.517505645751953 36.914849281311035,6.517505645751953 38.73138427734375,5.470466613769531 38.73138427734375,5.470466613769531 40.334320068359375,4.549145698547363 40.334320068359375,4.549145698547363 41.87965393066406,3.689861297607422 41.87965393066406,3.689861297607422 43.56427192687988,2.9129743576049805 43.56427192687988,2.9129743576049805 45.584893226623535,2.2385597229003906 45.584893226623535,2.2385597229003906 48.13838005065918,1.6869068145751953 48.13838005065918,1.6869068145751953 51.421546936035156,1.2783050537109375 51.421546936035156,1.2783050537109375 54.94198799133301,1.0155439376831055 54.94198799133301,1.0155439376831055 58.08520317077637,0.8774757385253906 58.08520317077637,0.8774757385253906 60.865187644958496,0.8483171463012695 60.865187644958496,0.8483171463012695 63.295841217041016,0.9121417999267578 63.295841217041016,0.9121417999267578 65.39113521575928,1.0531902313232422 65.39113521575928,1.0531902313232422 67.16499328613281,1.2556076049804688 67.16499328613281,1.2556076049804688 68.72634887695312,1.4828205108642578 68.72634887695312,1.4828205108642578 70.19405364990234,1.728963851928711 70.19405364990234,1.728963851928711 71.59605026245117,2.024555206298828 71.59605026245117,2.024555206298828 72.96006679534912,2.3998260498046875 72.96006679534912,2.3998260498046875 74.31392669677734,2.8851985931396484 74.31392669677734,2.8851985931396484 75.68550109863281,3.51104736328125 75.68550109863281,3.51104736328125 77.38480567932129,4.4014692306518555 77.38480567932129,4.4014692306518555 79.49032783508301,5.538749694824219 79.49032783508301,5.538749694824219 81.68320655822754,6.740617752075195 81.68320655822754,6.740617752075195 83.64439010620117,7.82473087310791 83.64439010620117,7.82473087310791 85.05501747131348,8.60888957977295 85.05501747131348,8.60888957977295 85.59608459472656,8.910751342773438 85.59608459472656,8.910751342773438 85.69204807281494,8.913445472717285 85.69204807281494,8.913445472717285 85.98859310150146,8.92481803894043 85.98859310150146,8.92481803894043 86.49873733520508,8.949971199035645 86.49873733520508,8.949971199035645 87.23537921905518,8.993721008300781 87.23537921905518,8.993721008300781 88.2115364074707,9.061074256896973 88.2115364074707,9.061074256896973 89.44015502929688,9.156990051269531 89.44015502929688,9.156990051269531 93.89724731445312,6.535148620605469 93.89724731445312,6.535148620605469 93.89724731445312,4.511070251464844 93.89724731445312,4.511070251464844 93.64051818847656,4.511070251464844 93.64051818847656,4.511070251464844 93.54472160339355,4.498076438903809 93.54472160339355,4.498076438903809 93.45848560333252,4.461503028869629 93.45848560333252,4.461503028869629 93.38536262512207,4.404902458190918 93.38536262512207,4.404902458190918 93.32876205444336,4.331731796264648 93.32876205444336,4.331731796264648 93.292236328125,4.245519638061523 93.292236328125,4.245519638061523 93.27926635742188,4.149818420410156 93.27926635742188,4.149818420410156 93.27926635742188,0.3612518310546875 93.27926635742188,0.3612518310546875 93.29218864440918,0.2654552459716797 93.29218864440918,0.2654552459716797 93.32873821258545,0.17921924591064453 93.32873821258545,0.17921924591064453 93.38536262512207,0.10609626770019531 93.38536262512207,0.10609626770019531 93.45850944519043,0.049495697021484375 93.45850944519043,0.049495697021484375 93.54476928710938,0.012969970703125 93.54476928710938,0.012969970703125 93.64051818847656,0.0 93.64051818847656,0.0 99.63874816894531,0.0 99.63874816894531,0.0 99.73447322845459,0.012922286987304688 99.73447322845459,0.012922286987304688 99.82070922851562,0.04947185516357422 99.82070922851562,0.04947185516357422 99.8939037322998,0.10609626770019531 99.8939037322998,0.10609626770019531 99.95050430297852,0.17926692962646484 99.95050430297852,0.17926692962646484 99.98705387115479,0.2655029296875 99.98705387115479,0.2655029296875" stroke="white" stroke-width="0.1" /><polygon points="58.712196350097656,10.09521484375 58.712196350097656,10.09521484375 61.081695556640625,2.5997161865234375 61.081695556640625,2.5997161865234375 60.809326171875,2.58028507232666 60.809326171875,2.58028507232666 60.02686023712158,2.5430917739868164 60.02686023712158,2.5430917739868164 58.7862491607666,2.519869804382324 58.7862491607666,2.519869804382324 57.13930130004883,2.5421619415283203 57.13930130004883,2.5421619415283203 55.13796806335449,2.641749382019043 55.13796806335449,2.641749382019043 52.834129333496094,2.8501510620117188 52.834129333496094,2.8501510620117188 50.498127937316895,3.158140182495117 50.498127937316895,3.158140182495117 48.31717014312744,3.575015068054199 48.31717014312744,3.575015068054199 46.21851444244385,4.160261154174805 46.21851444244385,4.160261154174805 44.129323959350586,4.973316192626953 44.129323959350586,4.973316192626953 41.97685718536377,6.0736894607543945 41.97685718536377,6.0736894607543945 39.68830108642578,7.520866394042969 39.68830108642578,7.520866394042969 39.65463638305664,7.607221603393555 39.65463638305664,7.607221603393555 39.5709753036499,7.824563980102539 39.5709753036499,7.824563980102539 39.46330547332764,8.110308647155762 39.46330547332764,8.110308647155762 39.35749530792236,8.401727676391602 39.35749530792236,8.401727676391602 39.27950859069824,8.636236190795898 39.27950859069824,8.636236190795898 39.255332946777344,8.751106262207031 39.255332946777344,8.751106262207031 39.27202224731445,8.851361274719238 39.27202224731445,8.851361274719238 39.29758071899414,9.052276611328125 39.29758071899414,9.052276611328125 39.32948112487793,9.30640697479248 39.32948112487793,9.30640697479248 39.36514854431152,9.566211700439453 39.36514854431152,9.566211700439453 39.402055740356445,9.784269332885742 39.402055740356445,9.784269332885742 39.43767547607422,9.913063049316406 39.43767547607422,9.913063049316406 39.508676528930664,10.02802848815918 39.508676528930664,10.02802848815918 39.63344097137451,10.210013389587402 39.63344097137451,10.210013389587402 39.78226184844971,10.419917106628418 39.78226184844971,10.419917106628418 39.925336837768555,10.618352890014648 39.925336837768555,10.618352890014648 40.03300666809082,10.766220092773438 40.03300666809082,10.766220092773438 40.07549285888672,10.824203491210938 40.07549285888672,10.824203491210938" stroke="white" stroke-width="0.1" /><polygon points="72.8607177734375,9.571266174316406 72.8607177734375,9.571266174316406 73.37362766265869,9.508609771728516 73.37362766265869,9.508609771728516 73.82075786590576,9.373807907104492 73.82075786590576,9.373807907104492 74.20468330383301,9.178304672241211 74.20468330383301,9.178304672241211 74.52783584594727,8.933401107788086 74.52783584594727,8.933401107788086 74.79274272918701,8.650541305541992 74.79274272918701,8.650541305541992 75.00190734863281,8.341026306152344 75.00190734863281,8.341026306152344 75.12109279632568,8.004474639892578 75.12109279632568,8.004474639892578 75.1110315322876,7.638835906982422 75.1110315322876,7.638835906982422 74.96805191040039,7.253003120422363 74.96805191040039,7.253003120422363 74.68829154968262,6.85575008392334 74.68829154968262,6.85575008392334 74.26800727844238,6.45604133605957 74.26800727844238,6.45604133605957 73.70338439941406,6.0626983642578125 73.70338439941406,6.0626983642578125 72.8123664855957,5.543756484985352 72.8123664855957,5.543756484985352 71.45047187805176,4.842472076416016 71.45047187805176,4.842472076416016 69.67086791992188,4.080533981323242 69.67086791992188,4.080533981323242 67.52667427062988,3.3792734146118164 67.52667427062988,3.3792734146118164 65.07110595703125,2.8603076934814453 65.07110595703125,2.8603076934814453 62.357330322265625,2.645111083984375 62.357330322265625,2.645111083984375 62.33482360839844,2.7133941650390625 62.33482360839844,2.7133941650390625 60.124969482421875,10.026931762695312 60.124969482421875,10.026931762695312 60.99238395690918,9.996318817138672 60.99238395690918,9.996318817138672 63.18376064300537,9.918880462646484 63.18376064300537,9.918880462646484 66.08271598815918,9.816193580627441 66.08271598815918,9.816193580627441 69.0727710723877,9.709644317626953 69.0727710723877,9.709644317626953 71.53759002685547,9.620857238769531 71.53759002685547,9.620857238769531" stroke="white" stroke-width="0.1" /></svg>