<?xml version="1.0" encoding="utf-8" ?>
<svg baseProfile="full" height="41.38229489326477" version="1.1" width="99.9927282333374" xmlns="http://www.w3.org/2000/svg" xmlns:ev="http://www.w3.org/2001/xml-events" xmlns:xlink="http://www.w3.org/1999/xlink"><defs><clipPath /></defs><polygon points="99.48616027832031,23.94833415746689 99.48616027832031,23.94833415746689 99.6267318725586,24.128197133541107 99.6267318725586,24.128197133541107 99.78153705596924,24.39584583044052 99.78153705596924,24.39584583044052 99.91531372070312,24.749135971069336 99.91531372070312,24.749135971069336 99.9927282333374,25.185632705688477 99.9927282333374,25.185632705688477 99.97859001159668,25.70333480834961 99.97859001159668,25.70333480834961 99.83749389648438,26.299908757209778 99.83749389648438,26.299908757209778 99.60896968841553,26.915791630744934 99.60896968841553,26.915791630744934 99.36995506286621,27.479130029678345 99.36995506286621,27.479130029678345 99.1415023803711,27.968889474868774 99.1415023803711,27.968889474868774 98.9445447921753,28.363996744155884 98.9445447921753,28.363996744155884 98.80015850067139,28.643566370010376 98.80015850067139,28.643566370010376 98.72932434082031,28.786522150039673 98.72932434082031,28.786522150039673 98.70467185974121,28.87158989906311 98.70467185974121,28.87158989906311 98.6844539642334,28.97988259792328 98.6844539642334,28.97988259792328 98.6687183380127,29.094180464744568 98.6687183380127,29.094180464744568 98.65744113922119,29.197034239768982 98.65744113922119,29.197034239768982 98.65071773529053,29.27146852016449 98.65071773529053,29.27146852016449 98.64845275878906,29.300174117088318 98.64845275878906,29.300174117088318 94.98709440231323,30.812513828277588 94.98709440231323,30.812513828277588 94.32090520858765,28.299623727798462 94.32090520858765,28.299623727798462 93.10261011123657,26.06525719165802 93.10261011123657,26.06525719165802 91.41162037849426,24.189041554927826 91.41162037849426,24.189041554927826 89.32719826698303,22.75032550096512 89.32719826698303,22.75032550096512 86.92874908447266,21.82888388633728 86.92874908447266,21.82888388633728 84.29562449455261,21.50406241416931 84.29562449455261,21.50406241416931 81.42882585525513,21.890395879745483 81.42882585525513,21.890395879745483 78.8506805896759,22.980161011219025 78.8506805896759,22.980161011219025 76.66497826576233,24.669790267944336 76.66497826576233,24.669790267944336 74.97537136077881,26.85542404651642 74.97537136077881,26.85542404651642 73.88553619384766,29.433593153953552 73.88553619384766,29.433593153953552 73.4992504119873,32.30043947696686 73.4992504119873,32.30043947696686 73.50530624389648,32.660260796546936 73.50530624389648,32.660260796546936 73.52316379547119,33.017125725746155 73.52316379547119,33.017125725746155 73.55265617370605,33.37084352970123 73.55265617370605,33.37084352970123 73.59342575073242,33.72122645378113 73.59342575073242,33.72122645378113 73.64528179168701,34.06817317008972 73.64528179168701,34.06817317008972 73.70791435241699,34.41149592399597 73.70791435241699,34.41149592399597 73.06053042411804,34.27430987358093 73.06053042411804,34.27430987358093 72.23781943321228,34.135693311691284 72.23781943321228,34.135693311691284 71.27050757408142,34.00542140007019 71.27050757408142,34.00542140007019 70.18922567367554,33.89293551445007 70.18922567367554,33.89293551445007 69.02474164962769,33.8080108165741 69.02474164962769,33.8080108165741 67.80771017074585,33.7601363658905 67.80771017074585,33.7601363658905 64.35149312019348,33.76004099845886 64.35149312019348,33.76004099845886 57.6194167137146,33.80419611930847 57.6194167137146,33.80419611930847 49.25510883331299,33.87839198112488 49.25510883331299,33.87839198112488 40.90202450752258,33.96827578544617 40.90202450752258,33.96827578544617 34.2038094997406,34.059733152389526 34.2038094997406,34.059733152389526 30.80393075942993,34.13836359977722 30.80393075942993,34.13836359977722 29.525718092918396,34.23539996147156 29.525718092918396,34.23539996147156 28.182941675186157,34.373635053634644 28.182941675186157,34.373635053634644 26.90475285053253,34.52693819999695 26.90475285053253,34.52693819999695 25.820282101631165,34.66894030570984 25.820282101631165,34.66894030570984 25.058746337890625,34.773415327072144 25.058746337890625,34.773415327072144 24.749231338500977,34.81413722038269 24.749231338500977,34.81413722038269 24.73282814025879,34.807080030441284 24.73282814025879,34.807080030441284 24.696969985961914,34.78628993034363 24.696969985961914,34.78628993034363 24.64272975921631,34.75262522697449 24.64272975921631,34.75262522697449 24.57117885351181,34.70675349235535 24.57117885351181,34.70675349235535 24.483512341976166,34.64958071708679 24.483512341976166,34.64958071708679 24.380730092525482,34.58182215690613 24.380730092525482,34.58182215690613 24.454091489315033,34.21170115470886 24.454091489315033,34.21170115470886 24.51486438512802,33.83724093437195 24.51486438512802,33.83724093437195 24.562738835811615,33.45877230167389 24.562738835811615,33.45877230167389 24.59733337163925,33.07625353336334 24.59733337163925,33.07625353336334 24.61833953857422,32.69006311893463 24.61833953857422,32.69006311893463 24.625444412231445,32.30043947696686 24.625444412231445,32.30043947696686 24.239133298397064,29.433640837669373 24.239133298397064,29.433640837669373 23.149320483207703,26.85551941394806 23.149320483207703,26.85551941394806 21.45973891019821,24.669790267944336 21.45973891019821,24.669790267944336 19.2740336060524,22.980113327503204 19.2740336060524,22.980113327503204 16.696007549762726,21.890300512313843 16.696007549762726,21.890300512313843 13.82925808429718,21.50406241416931 13.82925808429718,21.50406241416931 10.962435603141785,21.890395879745483 10.962435603141785,21.890395879745483 8.38431492447853,22.980161011219025 8.38431492447853,22.980161011219025 6.198608875274658,24.669790267944336 6.198608875274658,24.669790267944336 4.5089807361364365,26.85542404651642 4.5089807361364365,26.85542404651642 3.419191390275955,29.433593153953552 3.419191390275955,29.433593153953552 3.032880835235119,32.30043947696686 3.032880835235119,32.30043947696686 3.0358849093317986,32.54763185977936 3.0358849093317986,32.54763185977936 3.0447302386164665,32.79329836368561 3.0447302386164665,32.79329836368561 3.0592260882258415,33.03767740726471 3.0592260882258415,33.03767740726471 3.079134225845337,33.28048288822174 3.079134225845337,33.28048288822174 3.1042397022247314,33.52185785770416 3.1042397022247314,33.52185785770416 3.134351968765259,33.761852979660034 3.134351968765259,33.761852979660034 3.12846302986145,33.75698924064636 3.12846302986145,33.75698924064636 3.1224310398101807,33.75222086906433 3.1224310398101807,33.75222086906433 3.116351366043091,33.74754786491394 3.116351366043091,33.74754786491394 3.110271692276001,33.74273180961609 3.110271692276001,33.74273180961609 3.104311227798462,33.73796343803406 3.104311227798462,33.73796343803406 3.098493814468384,33.733052015304565 3.098493814468384,33.733052015304565 2.51493938267231,33.047690987586975 2.51493938267231,33.047690987586975 1.9441165030002594,32.06121027469635 1.9441165030002594,32.06121027469635 1.4123466797173023,30.83750009536743 1.4123466797173023,30.83750009536743 0.9458797983825207,29.440268874168396 0.9458797983825207,29.440268874168396 0.5710612516850233,27.933508157730103 0.5710612516850233,27.933508157730103 0.31414092518389225,26.38097107410431 0.31414092518389225,26.38097107410431 0.1494172029197216,25.057363510131836 0.1494172029197216,25.057363510131836 0.04096039046999067,24.135492742061615 0.04096039046999067,24.135492742061615 4.768380676978268e-05,23.52595031261444 4.768380676978268e-05,23.52595031261444 0.03790862683672458,23.139283061027527 0.03790862683672458,23.139283061027527 0.16589196166023612,22.88641482591629 0.16589196166023612,22.88641482591629 0.3952033817768097,22.677846252918243 0.3952033817768097,22.677846252918243 0.6772292777895927,22.461648285388947 0.6772292777895927,22.461648285388947 0.9479540400207043,22.24535346031189 0.9479540400207043,22.24535346031189 1.196124404668808,22.029155492782593 1.196124404668808,22.029155492782593 1.4104870148003101,21.812862157821655 1.4104870148003101,21.812862157821655 1.5798121690750122,21.59666419029236 1.5798121690750122,21.59666419029236 1.6927750781178474,21.380464732646942 1.6927750781178474,21.380464732646942 1.8450772389769554,20.980636775493622 1.8450772389769554,20.980636775493622 2.1182816475629807,20.299282670021057 2.1182816475629807,20.299282670021057 2.4801062420010567,19.46476846933365 2.4801062420010567,19.46476846933365 2.8982456773519516,18.605458736419678 2.8982456773519516,18.605458736419678 3.340393677353859,17.849861085414886 3.340393677353859,17.849861085414886 3.774268552660942,17.326197028160095 3.774268552660942,17.326197028160095 4.28062304854393,16.92107617855072 4.28062304854393,16.92107617855072 4.987464100122452,16.455157101154327 4.987464100122452,16.455157101154327 5.9331052005290985,15.957719087600708 5.9331052005290985,15.957719087600708 7.155813276767731,15.457993745803833 7.155813276767731,15.457993745803833 8.69387835264206,14.985398948192596 8.69387835264206,14.985398948192596 10.585614293813705,14.569120109081268 10.585614293813705,14.569120109081268 13.13028484582901,14.124038815498352 13.13028484582901,14.124038815498352 16.292841732501984,13.593985140323639 16.292841732501984,13.593985140323639 19.61010843515396,13.052012026309967 19.61010843515396,13.052012026309967 22.618766129016876,12.570738792419434 22.618766129016876,12.570738792419434 24.855613708496094,12.223219126462936 24.855613708496094,12.223219126462936 25.857403874397278,12.082313746213913 25.857403874397278,12.082313746213913 26.08502209186554,12.07888051867485 26.08502209186554,12.07888051867485 26.299861073493958,12.091182917356491 26.299861073493958,12.091182917356491 26.48918926715851,12.112640589475632 26.48918926715851,12.112640589475632 26.640203595161438,12.136244028806686 26.640203595161438,12.136244028806686 26.740172505378723,12.155460566282272 26.740172505378723,12.155460566282272 26.77636444568634,12.163376063108444 26.77636444568634,12.163376063108444 26.887372136116028,12.167000025510788 26.887372136116028,12.167000025510788 27.19581425189972,12.156318873167038 27.19581425189972,12.156318873167038 27.664953470230103,12.099098414182663 27.664953470230103,12.099098414182663 28.25794816017151,11.963009089231491 28.25794816017151,11.963009089231491 28.938063979148865,11.715815961360931 28.938063979148865,11.715815961360931 29.66848313808441,11.325285583734512 29.66848313808441,11.325285583734512 30.99607229232788,10.500165075063705 30.99607229232788,10.500165075063705 33.21639597415924,9.138982743024826 33.21639597415924,9.138982743024826 35.9157532453537,7.493986934423447 35.9157532453537,7.493986934423447 38.680413365364075,5.8173768222332 38.680413365364075,5.8173768222332 41.0966694355011,4.36149463057518 41.0966694355011,4.36149463057518 42.75082051753998,3.37868370115757 42.75082051753998,3.37868370115757 43.78253221511841,2.8053337708115578 43.78253221511841,2.8053337708115578 44.63397562503815,2.386622130870819 44.63397562503815,2.386622130870819 45.34575045108795,2.0880738273262978 45.34575045108795,2.0880738273262978 45.958343148231506,1.8751179799437523 45.958343148231506,1.8751179799437523 46.512430906295776,1.7131838947534561 46.512430906295776,1.7131838947534561 47.04846739768982,1.5678435564041138 47.04846739768982,1.5678435564041138 47.55348563194275,1.422980148345232 47.55348563194275,1.422980148345232 48.00662696361542,1.2833619490265846 48.00662696361542,1.2833619490265846 48.43723475933075,1.1453649960458279 48.43723475933075,1.1453649960458279 48.874565958976746,1.0050316341221333 48.874565958976746,1.0050316341221333 49.34797286987305,0.8587377145886421 49.34797286987305,0.8587377145886421 49.88679885864258,0.7026685867458582 49.88679885864258,0.7026685867458582 50.490474700927734,0.538016390055418 50.490474700927734,0.538016390055418 51.19326114654541,0.3763206070289016 51.19326114654541,0.3763206070289016 52.076226472854614,0.22964521776884794 52.076226472854614,0.22964521776884794 53.22046875953674,0.11000654194504023 53.22046875953674,0.11000654194504023 54.7071099281311,0.029468591674230993 54.7071099281311,0.029468591674230993 56.617271900177,0.0 56.617271900177,0.0 58.996981382369995,0.002098087497870438 58.996981382369995,0.002098087497870438 61.76183223724365,0.016975434846244752 61.76183223724365,0.016975434846244752 64.79700207710266,0.05736362072639167 64.79700207710266,0.05736362072639167 67.98754930496216,0.13599421363323927 67.98754930496216,0.13599421363323927 71.21867537498474,0.2658372279256582 71.21867537498474,0.2658372279256582 74.37548637390137,0.45948117040097713 74.37548637390137,0.45948117040097713 77.15516686439514,0.6957067176699638 77.15516686439514,0.6957067176699638 79.38514351844788,0.9429949335753918 79.38514351844788,0.9429949335753918 81.1465859413147,1.1993431486189365 81.1465859413147,1.1993431486189365 82.52054452896118,1.462414674460888 82.52054452896118,1.462414674460888 83.58823657035828,1.7300639301538467 83.58823657035828,1.7300639301538467 84.43066477775574,2.000049501657486 84.43066477775574,2.000049501657486 85.06235480308533,2.229885570704937 85.06235480308533,2.229885570704937 85.47477126121521,2.3875758051872253 85.47477126121521,2.3875758051872253 85.71450114250183,2.48671043664217 85.71450114250183,2.48671043664217 85.82803606987,2.5407839566469193 85.82803606987,2.5407839566469193 85.86205840110779,2.563338354229927 85.86205840110779,2.563338354229927 85.86308360099792,2.5678683072328568 85.86308360099792,2.5678683072328568 86.04004383087158,2.6047756895422935 86.04004383087158,2.6047756895422935 86.50383949279785,2.700953930616379 86.50383949279785,2.700953930616379 87.15384006500244,2.8347069397568703 87.15384006500244,2.8347069397568703 87.88943290710449,2.9842434450984 87.88943290710449,2.9842434450984 88.61005306243896,3.1277716159820557 88.61005306243896,3.1277716159820557 89.21507000923157,3.243643417954445 89.21507000923157,3.243643417954445 89.72218632698059,3.343302384018898 89.72218632698059,3.343302384018898 90.20002484321594,3.4557409584522247 90.20002484321594,3.4557409584522247 90.62383770942688,3.5846777260303497 90.62383770942688,3.5846777260303497 90.96880555152893,3.7339281290769577 90.96880555152893,3.7339281290769577 91.21010899543762,3.9072588086128235 91.21010899543762,3.9072588086128235 91.32307171821594,4.108436778187752 91.32307171821594,4.108436778187752 91.33530259132385,4.360779374837875 91.33530259132385,4.360779374837875 91.30318760871887,4.6580880880355835 91.30318760871887,4.6580880880355835 91.24558568000793,4.959878697991371 91.24558568000793,4.959878697991371 91.18114113807678,5.225573107600212 91.18114113807678,5.225573107600212 91.12878441810608,5.414782464504242 91.12878441810608,5.414782464504242 91.10715985298157,5.486880242824554 91.10715985298157,5.486880242824554 91.22152924537659,5.591403320431709 91.22152924537659,5.591403320431709 91.5445864200592,5.881320685148239 91.5445864200592,5.881320685148239 92.04633831977844,6.321537494659424 92.04633831977844,6.321537494659424 92.69670248031616,6.87648206949234 92.69670248031616,6.87648206949234 93.46574544906616,7.5110577046871185 93.46574544906616,7.5110577046871185 94.32333707809448,8.189979940652847 94.32333707809448,8.189979940652847 95.21442651748657,8.917539566755295 95.21442651748657,8.917539566755295 96.07247710227966,9.685582667589188 96.07247710227966,9.685582667589188 96.85091376304626,10.440178960561752 96.85091376304626,10.440178960561752 97.50317931175232,11.127158999443054 97.50317931175232,11.127158999443054 97.98271059989929,11.69259399175644 97.98271059989929,11.69259399175644 98.24294447898865,12.082313746213913 98.24294447898865,12.082313746213913 98.34274649620056,12.340569496154785 98.34274649620056,12.340569496154785 98.38404059410095,12.553715705871582 98.38404059410095,12.553715705871582 98.3848512172699,12.730908393859863 98.3848512172699,12.730908393859863 98.36313128471375,12.881112098693848 98.36313128471375,12.881112098693848 98.33690524101257,13.013292849063873 98.33690524101257,13.013292849063873 98.32419753074646,13.13650757074356 98.32419753074646,13.13650757074356 98.34083914756775,13.334490358829498 98.34083914756775,13.334490358829498 98.38518500328064,13.666082918643951 98.38518500328064,13.666082918643951 98.44908714294434,14.102819561958313 98.44908714294434,14.102819561958313 98.52423667907715,14.616088569164276 98.52423667907715,14.616088569164276 98.60246181488037,15.177421271800995 98.60246181488037,15.177421271800995 98.675537109375,15.758353471755981 98.675537109375,15.758353471755981 98.7325668334961,16.320927441120148 98.7325668334961,16.320927441120148 98.77157211303711,16.844448447227478 98.77157211303711,16.844448447227478 98.79708290100098,17.325958609580994 98.79708290100098,17.325958609580994 98.8135814666748,17.762409150600433 98.8135814666748,17.762409150600433 98.82559776306152,18.15088838338852 98.82559776306152,18.15088838338852 98.83766174316406,18.48834753036499 98.83766174316406,18.48834753036499 98.85368347167969,18.814265727996826 98.85368347167969,18.814265727996826 98.8765001296997,19.15811449289322 98.8765001296997,19.15811449289322 98.9084243774414,19.502009451389313 98.9084243774414,19.502009451389313 98.95162582397461,19.827736914157867 98.95162582397461,19.827736914157867 99.00844097137451,20.117560029029846 99.00844097137451,20.117560029029846 99.08103942871094,20.35335600376129 99.08103942871094,20.35335600376129 99.16300773620605,20.546475052833557 99.16300773620605,20.546475052833557 99.24116134643555,20.7268163561821 99.24116134643555,20.7268163561821 99.30734634399414,20.90410441160202 99.30734634399414,20.90410441160202 99.35321807861328,21.088163554668427 99.35321807861328,21.088163554668427 99.37057495117188,21.28876894712448 99.37057495117188,21.28876894712448 99.35111999511719,21.515697240829468 99.35111999511719,21.515697240829468 99.30689334869385,21.820777654647827 99.30689334869385,21.820777654647827 99.25892353057861,22.208446264266968 99.25892353057861,22.208446264266968 99.21250343322754,22.617097198963165 99.21250343322754,22.617097198963165 99.17283058166504,22.985167801380157 99.17283058166504,22.985167801380157 99.14519786834717,23.25124442577362 99.14519786834717,23.25124442577362 99.13482666015625,23.35362136363983 99.13482666015625,23.35362136363983 99.14398193359375,23.378941416740417 99.14398193359375,23.378941416740417 99.17192459106445,23.44774901866913 99.17192459106445,23.44774901866913 99.21936988830566,23.549601435661316 99.21936988830566,23.549601435661316 99.28703308105469,23.67400825023651 99.28703308105469,23.67400825023651 99.37574863433838,23.810383677482605 99.37574863433838,23.810383677482605" stroke="white" stroke-width="0.1" /><polygon points="56.56329393386841,7.838454842567444 56.56329393386841,7.838454842567444 56.72346353530884,7.194246351718903 56.72346353530884,7.194246351718903 56.997740268707275,6.081497296690941 56.997740268707275,6.081497296690941 57.32008218765259,4.757031798362732 57.32008218765259,4.757031798362732 57.62437582015991,3.4775324165821075 57.62437582015991,3.4775324165821075 57.8446090221405,2.4999666959047318 57.8446090221405,2.4999666959047318 57.91465640068054,2.081112004816532 57.91465640068054,2.081112004816532 57.621681690216064,2.046445943415165 57.621681690216064,2.046445943415165 56.85943365097046,2.047065831720829 56.85943365097046,2.047065831720829 55.721867084503174,2.0777741447091103 55.721867084503174,2.0777741447091103 54.302722215652466,2.1331828087568283 54.302722215652466,2.1331828087568283 52.695947885513306,2.2081417962908745 52.695947885513306,2.2081417962908745 50.9953498840332,2.2974058985710144 50.9953498840332,2.2974058985710144 49.31659698486328,2.500777319073677 49.31659698486328,2.500777319073677 47.737690806388855,2.8790051117539406 47.737690806388855,2.8790051117539406 46.295446157455444,3.3683840185403824 46.295446157455444,3.3683840185403824 45.02662718296051,3.905017673969269 45.02662718296051,3.905017673969269 43.968045711517334,4.425200447440147 43.968045711517334,4.425200447440147 43.156516551971436,4.86508347094059 43.156516551971436,4.86508347094059 42.260751128196716,5.416308343410492 42.260751128196716,5.416308343410492 41.06319546699524,6.210672855377197 41.06319546699524,6.210672855377197 39.77101147174835,7.095159590244293 39.77101147174835,7.095159590244293 38.59145939350128,7.916465401649475 38.59145939350128,7.916465401649475 37.73176670074463,8.52157324552536 37.73176670074463,8.52157324552536 37.39917278289795,8.757416903972626 37.39917278289795,8.757416903972626 37.68107891082764,9.022920578718185 37.68107891082764,9.022920578718185 37.906670570373535,9.37616229057312 37.906670570373535,9.37616229057312 38.07821273803711,9.801501780748367 38.07821273803711,9.801501780748367 38.197922706604004,10.283108055591583 38.197922706604004,10.283108055591583 38.268113136291504,10.805246233940125 38.268113136291504,10.805246233940125 38.29105198383331,11.352179199457169 38.29105198383331,11.352179199457169 38.277316093444824,11.840079724788666 38.277316093444824,11.840079724788666 38.23504447937012,12.21010610461235 38.23504447937012,12.21010610461235 38.16275596618652,12.484097480773926 38.16275596618652,12.484097480773926 38.05887699127197,12.683653831481934 38.05887699127197,12.683653831481934 37.922024726867676,12.830662727355957 37.922024726867676,12.830662727355957 37.75050640106201,12.946917116641998 37.75050640106201,12.946917116641998 37.525081634521484,13.070131838321686 37.525081634521484,13.070131838321686 37.25306987762451,13.21127563714981 37.25306987762451,13.21127563714981 36.97352409362793,13.352467119693756 36.97352409362793,13.352467119693756 36.725497245788574,13.475538790225983 36.725497245788574,13.475538790225983 36.54801547527313,13.562704622745514 36.54801547527313,13.562704622745514 36.48020923137665,13.59579712152481 36.48020923137665,13.59579712152481 55.23883104324341,12.595772743225098 55.23883104324341,12.595772743225098 55.32568693161011,12.288450449705124 55.32568693161011,12.288450449705124 55.54620027542114,11.50653138756752 55.54620027542114,11.50653138756752 55.84026575088501,10.460396856069565 55.84026575088501,10.460396856069565 56.147825717926025,9.360092878341675 56.147825717926025,9.360092878341675 56.408870220184326,8.416049182415009 56.408870220184326,8.416049182415009" stroke="white" stroke-width="0.1" /><polygon points="73.64611625671387,11.757682263851166 73.64611625671387,11.757682263851166 73.66178035736084,11.359141021966934 73.66178035736084,11.359141021966934 73.69918823242188,10.335178673267365 73.69918823242188,10.335178673267365 73.74410629272461,8.943288773298264 73.74410629272461,8.943288773298264 73.78222942352295,7.4410103261470795 73.78222942352295,7.4410103261470795 73.79934787750244,6.08588419854641 73.79934787750244,6.08588419854641 73.78115653991699,5.135545879602432 73.78115653991699,5.135545879602432 73.74296188354492,4.485377296805382 73.74296188354492,4.485377296805382 73.710036277771,3.8809850811958313 73.710036277771,3.8809850811958313 73.68316650390625,3.354746475815773 73.68316650390625,3.354746475815773 73.66304397583008,2.9388483613729477 73.66304397583008,2.9388483613729477 73.65045547485352,2.665715478360653 73.65045547485352,2.665715478360653 73.64611625671387,2.5674868375062943 73.64611625671387,2.5674868375062943 73.2698380947113,2.5392580777406693 73.2698380947113,2.5392580777406693 72.284597158432,2.4674462154507637 72.284597158432,2.4674462154507637 70.90594172477722,2.3716971278190613 70.90594172477722,2.3716971278190613 69.34930086135864,2.2713227197527885 69.34930086135864,2.2713227197527885 67.83028841018677,2.1859686821699142 67.83028841018677,2.1859686821699142 66.5643036365509,2.135090157389641 66.5643036365509,2.135090157389641 65.37032723426819,2.108387276530266 65.37032723426819,2.108387276530266 64.03145790100098,2.083067037165165 64.03145790100098,2.083067037165165 62.7091646194458,2.060798741877079 62.7091646194458,2.060798741877079 61.56480312347412,2.042965032160282 61.56480312347412,2.042965032160282 60.75980067253113,2.0311394706368446 60.75980067253113,2.0311394706368446 60.455626249313354,2.026943303644657 60.455626249313354,2.026943303644657 59.88780856132507,12.325310707092285 59.88780856132507,12.325310707092285" stroke="white" stroke-width="0.1" /><polygon points="74.64594841003418,11.676619946956635 74.64594841003418,11.676619946956635 80.78190088272095,11.4332415163517 80.78190088272095,11.4332415163517 80.65890073776245,11.179516464471817 80.65890073776245,11.179516464471817 80.32935857772827,10.511275380849838 80.32935857772827,10.511275380849838 79.85268831253052,9.568232297897339 79.85268831253052,9.568232297897339 79.28813099861145,8.490054309368134 79.28813099861145,8.490054309368134 78.69516015052795,7.416357845067978 78.69516015052795,7.416357845067978 78.13296914100647,6.486905366182327 78.13296914100647,6.486905366182327 77.58668065071106,5.65553791821003 77.58668065071106,5.65553791821003 77.03366875648499,4.827127233147621 77.03366875648499,4.827127233147621 76.52125358581543,4.0678102523088455 76.52125358581543,4.0678102523088455 76.09667778015137,3.443581610918045 76.09667778015137,3.443581610918045 75.80728530883789,3.020673803985119 75.80728530883789,3.020673803985119 75.70033073425293,2.865033783018589 75.70033073425293,2.865033783018589 74.45712089538574,2.7029089629650116 74.45712089538574,2.7029089629650116 74.47915077209473,2.970605716109276 74.47915077209473,2.970605716109276 74.53417778015137,3.663928434252739 74.53417778015137,3.663928434252739 74.60570335388184,4.618605971336365 74.60570335388184,4.618605971336365 74.6772050857544,5.670081451535225 74.6772050857544,5.670081451535225 74.73225593566895,6.654036790132523 74.73225593566895,6.654036790132523 74.75428581237793,7.40605816245079 74.75428581237793,7.40605816245079 74.74627494812012,8.126036077737808 74.74627494812012,8.126036077737808 74.72620010375977,9.02983471751213 74.72620010375977,9.02983471751213 74.70011711120605,9.977217018604279 74.70011711120605,9.977217018604279 74.67401027679443,10.827705264091492 74.67401027679443,10.827705264091492 74.65395927429199,11.44096627831459 74.65395927429199,11.44096627831459" stroke="white" stroke-width="0.1" /><polygon points="87.29627132415771,11.271116882562637 87.29627132415771,11.271116882562637 87.40274906158447,11.165926605463028 87.40274906158447,11.165926605463028 87.66162395477295,10.879728198051453 87.66162395477295,10.879728198051453 87.98205852508545,10.456963628530502 87.98205852508545,10.456963628530502 88.27314376831055,9.941787272691727 88.27314376831055,9.941787272691727 88.44411373138428,9.378546476364136 88.44411373138428,9.378546476364136 88.40405941009521,8.81158635020256 88.40405941009521,8.81158635020256 88.08197975158691,8.202282339334488 88.08197975158691,8.202282339334488 87.5211238861084,7.514061778783798 87.5211238861084,7.514061778783798 86.80260181427002,6.794369965791702 86.80260181427002,6.794369965791702 86.00747585296631,6.090414151549339 86.00747585296631,6.090414151549339 85.21687388420105,5.44959157705307 85.21687388420105,5.44959157705307 84.51191782951355,4.919252172112465 84.51191782951355,4.919252172112465 83.9976966381073,4.514512047171593 83.9976966381073,4.514512047171593 83.51237177848816,4.163368418812752 83.51237177848816,4.163368418812752 82.81962275505066,3.843124210834503 82.81962275505066,3.843124210834503 81.6830039024353,3.530699759721756 81.6830039024353,3.530699759721756 79.86618280410767,3.2032549381256104 79.86618280410767,3.2032549381256104 77.1327555179596,2.8379494324326515 77.1327555179596,2.8379494324326515 82.07927942276001,11.325285583734512 82.07927942276001,11.325285583734512" stroke="white" stroke-width="0.1" /><polygon points="13.82925808429718,23.218390345573425 13.82925808429718,23.218390345573425 16.243799030780792,23.54283034801483 16.243799030780792,23.54283034801483 18.41334104537964,24.45826381444931 18.41334104537964,24.45826381444931 20.251408219337463,25.878289341926575 20.251408219337463,25.878289341926575 21.6714084148407,27.71630883216858 21.6714084148407,27.71630883216858 22.586913406848907,29.885873198509216 22.586913406848907,29.885873198509216 22.911305725574493,32.30043947696686 22.911305725574493,32.30043947696686 22.908778488636017,32.50848352909088 22.908778488636017,32.50848352909088 22.901339828968048,32.715240120887756 22.901339828968048,32.715240120887756 22.88915663957596,32.9207569360733 22.88915663957596,32.9207569360733 22.87244349718094,33.1249862909317 22.87244349718094,33.1249862909317 22.85139113664627,33.32802355289459 22.85139113664627,33.32802355289459 22.826237976551056,33.529916405677795 22.826237976551056,33.529916405677795 22.270627319812775,35.651275515556335 22.270627319812775,35.651275515556335 21.24876230955124,37.53645420074463 21.24876230955124,37.53645420074463 19.827140867710114,39.11893665790558 19.827140867710114,39.11893665790558 18.072305619716644,40.331822633743286 18.072305619716644,40.331822633743286 16.050846874713898,41.108542680740356 16.050846874713898,41.108542680740356 13.82925808429718,41.38229489326477 13.82925808429718,41.38229489326477 11.723874509334564,41.13700985908508 11.723874509334564,41.13700985908508 9.794134646654129,40.438634157180786 9.794134646654129,40.438634157180786 8.096376806497574,39.34371769428253 8.096376806497574,39.34371769428253 6.686843186616898,37.90853023529053 6.686843186616898,37.90853023529053 5.621825531125069,36.189767718315125 5.621825531125069,36.189767718315125 4.957589879631996,34.24364924430847 4.957589879631996,34.24364924430847 4.894599691033363,33.92855525016785 4.894599691033363,33.92855525016785 4.842338338494301,33.60974192619324 4.842338338494301,33.60974192619324 4.801187291741371,33.287349343299866 4.801187291741371,33.287349343299866 4.771384596824646,32.96147882938385 4.771384596824646,32.96147882938385 4.753288626670837,32.632508873939514 4.753288626670837,32.632508873939514 4.747208952903748,32.30043947696686 4.747208952903748,32.30043947696686 5.071602016687393,29.885920882225037 5.071602016687393,29.885920882225037 5.987083539366722,27.7163565158844 5.987083539366722,27.7163565158844 7.407107204198837,25.878289341926575 7.407107204198837,25.878289341926575 9.245127439498901,24.45821613073349 9.245127439498901,24.45821613073349 11.414740234613419,23.54273498058319 11.414740234613419,23.54273498058319" stroke="white" stroke-width="0.1" /><polygon points="84.29562449455261,23.218390345573425 84.29562449455261,23.218390345573425 86.58440113067627,23.50926101207733 86.58440113067627,23.50926101207733 88.65797519683838,24.33299869298935 88.65797519683838,24.33299869298935 90.44340252876282,25.616455078125 90.44340252876282,25.616455078125 91.86752438545227,27.286389470100403 91.86752438545227,27.286389470100403 92.85739660263062,29.269608855247498 92.85739660263062,29.269608855247498 93.33990812301636,31.492865085601807 93.33990812301636,31.492865085601807 93.35092306137085,31.62623643875122 93.35092306137085,31.62623643875122 93.3601975440979,31.760036945343018 93.3601975440979,31.760036945343018 93.36766004562378,31.894361972808838 93.36766004562378,31.894361972808838 93.3730959892273,32.02911615371704 93.3730959892273,32.02911615371704 93.37648153305054,32.16454088687897 93.37648153305054,32.16454088687897 93.37767362594604,32.30043947696686 93.37767362594604,32.30043947696686 93.05330514907837,34.71490740776062 93.05330514907837,34.71490740776062 92.1377956867218,36.884379386901855 92.1377956867218,36.884379386901855 90.7177746295929,38.72244656085968 90.7177746295929,38.72244656085968 88.87968063354492,40.142375230789185 88.87968063354492,40.142375230789185 86.71014308929443,41.057902574539185 86.71014308929443,41.057902574539185 84.29562449455261,41.38229489326477 84.29562449455261,41.38229489326477 82.33388662338257,41.16986393928528 82.33388662338257,41.16986393928528 80.52042722702026,40.5626118183136 80.52042722702026,40.5626118183136 78.9004385471344,39.60607349872589 78.9004385471344,39.60607349872589 77.51908898353577,38.34531605243683 77.51908898353577,38.34531605243683 76.42154693603516,36.82582378387451 76.42154693603516,36.82582378387451 75.65302848815918,35.0928008556366 75.65302848815918,35.0928008556366 75.52180290222168,34.64810252189636 75.52180290222168,34.64810252189636 75.41277408599854,34.19434428215027 75.41277408599854,34.19434428215027 75.32672882080078,33.73209834098816 75.32672882080078,33.73209834098816 75.2643346786499,33.26198160648346 75.2643346786499,33.26198160648346 75.22637844085693,32.78452455997467 75.22637844085693,32.78452455997467 75.21357536315918,32.30043947696686 75.21357536315918,32.30043947696686 75.53796768188477,29.885920882225037 75.53796768188477,29.885920882225037 76.45344734191895,27.7163565158844 76.45344734191895,27.7163565158844 77.87347435951233,25.878289341926575 77.87347435951233,25.878289341926575 79.71152067184448,24.45821613073349 79.71152067184448,24.45821613073349 81.88108205795288,23.54273498058319 81.88108205795288,23.54273498058319" stroke="white" stroke-width="0.1" /></svg>