<?xml version="1.0" encoding="utf-8" ?>
<svg baseProfile="full" height="32.25008547306061" version="1.1" width="100.0" xmlns="http://www.w3.org/2000/svg" xmlns:ev="http://www.w3.org/2001/xml-events" xmlns:xlink="http://www.w3.org/1999/xlink"><defs><clipPath /></defs><polygon points="99.82948303222656,24.173973500728607 99.82948303222656,24.173973500728607 99.92423057556152,24.298332631587982 99.92423057556152,24.298332631587982 99.98104572296143,24.43833202123642 99.98104572296143,24.43833202123642 100.0,24.58624690771103 100.0,24.58624690771103 99.98102188110352,24.734067916870117 99.98102188110352,24.734067916870117 99.92420673370361,24.874162673950195 99.92420673370361,24.874162673950195 99.82948303222656,24.99852180480957 99.82948303222656,24.99852180480957 99.71022605895996,25.103282928466797 99.71022605895996,25.103282928466797 99.58500862121582,25.19402503967285 99.58500862121582,25.19402503967285 99.45330619812012,25.273847579956055 99.45330619812012,25.273847579956055 99.31442737579346,25.345754623413086 99.31442737579346,25.345754623413086 99.167799949646,25.412702560424805 99.167799949646,25.412702560424805 99.01275634765625,25.47783851623535 99.01275634765625,25.47783851623535 98.86369705200195,25.5340576171875 98.86369705200195,25.5340576171875 98.70734214782715,25.588560104370117 98.70734214782715,25.588560104370117 98.54416847229004,25.641489028930664 98.54416847229004,25.641489028930664 98.37450385093689,25.6929874420166 98.37450385093689,25.6929874420166 98.19881319999695,25.74319839477539 98.19881319999695,25.74319839477539 98.01749587059021,25.79236328601837 98.01749587059021,25.79236328601837 97.95841574668884,26.377633213996887 97.95841574668884,26.377633213996887 97.90415167808533,26.91202461719513 97.90415167808533,26.91202461719513 97.8573739528656,27.370649576187134 97.8573739528656,27.370649576187134 97.82068133354187,27.72884964942932 97.82068133354187,27.72884964942932 97.79676795005798,27.96187996864319 97.79676795005798,27.96187996864319 97.78823256492615,28.045135736465454 97.78823256492615,28.045135736465454 97.41725325584412,28.241974115371704 97.41725325584412,28.241974115371704 96.47302031517029,28.736501932144165 96.47302031517029,28.736501932144165 95.20877599716187,29.385003447532654 95.20877599716187,29.385003447532654 93.87766122817993,30.04365861415863 93.87766122817993,30.04365861415863 92.73291826248169,30.56861162185669 92.73291826248169,30.56861162185669 92.02764630317688,30.81613779067993 92.02764630317688,30.81613779067993 91.61584973335266,30.87083101272583 91.61584973335266,30.87083101272583 91.2046730518341,30.914080142974854 91.2046730518341,30.914080142974854 90.82730412483215,30.946600437164307 90.82730412483215,30.946600437164307 90.51674008369446,30.968916416168213 90.51674008369446,30.968916416168213 90.30614495277405,30.981886386871338 90.30614495277405,30.981886386871338 90.22863507270813,30.986082553863525 90.22863507270813,30.986082553863525 89.55610394477844,30.630362033843994 89.55610394477844,30.630362033843994 89.68470692634583,30.157193541526794 89.68470692634583,30.157193541526794 89.81526494026184,29.568204283714294 89.81526494026184,29.568204283714294 89.93657231330872,28.918036818504333 89.93657231330872,28.918036818504333 90.03720879554749,28.26109528541565 90.03720879554749,28.26109528541565 90.10592103004456,27.652031183242798 90.10592103004456,27.652031183242798 90.13136029243469,27.14543640613556 90.13136029243469,27.14543640613556 90.07459282875061,26.163628697395325 90.07459282875061,26.163628697395325 89.90853428840637,25.214767456054688 89.90853428840637,25.214767456054688 89.63964581489563,24.305103719234467 89.63964581489563,24.305103719234467 89.27434086799622,23.440787196159363 89.27434086799622,23.440787196159363 88.81916999816895,22.62825518846512 88.81916999816895,22.62825518846512 88.28046321868896,21.873706579208374 88.28046321868896,21.873706579208374 88.48321437835693,22.35092669725418 88.48321437835693,22.35092669725418 88.65242004394531,22.844691574573517 88.65242004394531,22.844691574573517 88.7866735458374,23.35362136363983 88.7866735458374,23.35362136363983 88.88440132141113,23.876379430294037 88.88440132141113,23.876379430294037 88.94414901733398,24.411629140377045 88.94414901733398,24.411629140377045 88.96443843841553,24.957895278930664 88.96443843841553,24.957895278930664 88.95666599273682,25.294923782348633 88.95666599273682,25.294923782348633 88.93358707427979,25.627946853637695 88.93358707427979,25.627946853637695 88.89567852020264,25.956633687019348 88.89567852020264,25.956633687019348 88.84329795837402,26.280739903450012 88.84329795837402,26.280739903450012 88.77696990966797,26.599887013435364 88.77696990966797,26.599887013435364 88.69702816009521,26.91388428211212 88.69702816009521,26.91388428211212 88.112473487854,28.377586603164673 88.112473487854,28.377586603164673 87.24021911621094,29.664859175682068 87.24021911621094,29.664859175682068 86.12020015716553,30.735838413238525 86.12020015716553,30.735838413238525 84.79222655296326,31.550371646881104 84.79222655296326,31.550371646881104 83.29631686210632,32.06845819950104 83.29631686210632,32.06845819950104 81.67225122451782,32.25008547306061 81.67225122451782,32.25008547306061 80.097496509552,32.07956850528717 80.097496509552,32.07956850528717 78.64170670509338,31.592142581939697 78.64170670509338,31.592142581939697 77.34118103981018,30.824244022369385 77.34118103981018,30.824244022369385 76.23209953308105,29.812201857566833 76.23209953308105,29.812201857566833 75.35073757171631,28.592449426651 75.35073757171631,28.592449426651 74.73330497741699,27.201321721076965 74.73330497741699,27.201321721076965 74.62794780731201,26.843979954719543 74.62794780731201,26.843979954719543 74.54032897949219,26.479437947273254 74.54032897949219,26.479437947273254 74.47113990783691,26.10807716846466 74.47113990783691,26.10807716846466 74.42092895507812,25.730371475219727 74.42092895507812,25.730371475219727 74.3903636932373,25.346803665161133 74.3903636932373,25.346803665161133 74.38006401062012,24.957895278930664 74.38006401062012,24.957895278930664 74.40035343170166,24.411629140377045 74.40035343170166,24.411629140377045 74.46017265319824,23.876427114009857 74.46017265319824,23.876427114009857 74.55801963806152,23.35362136363983 74.55801963806152,23.35362136363983 74.69234466552734,22.844548523426056 74.69234466552734,22.844548523426056 74.86164569854736,22.3507359623909 74.86164569854736,22.3507359623909 75.06442070007324,21.873515844345093 75.06442070007324,21.873515844345093 74.52559471130371,22.628159821033478 74.52559471130371,22.628159821033478 74.07033443450928,23.440691828727722 74.07033443450928,23.440691828727722 73.7051010131836,24.305008351802826 73.7051010131836,24.305008351802826 73.4362781047821,25.214672088623047 73.4362781047821,25.214672088623047 73.27026724815369,26.163581013679504 73.27026724815369,26.163581013679504 73.21352362632751,27.14543640613556 73.21352362632751,27.14543640613556 73.26127886772156,27.82784104347229 73.26127886772156,27.82784104347229 73.38065505027771,28.65048050880432 73.38065505027771,28.65048050880432 73.5358715057373,29.495486617088318 73.5358715057373,29.495486617088318 73.6910343170166,30.24497926235199 73.6910343170166,30.24497926235199 73.81045818328857,30.781137943267822 73.81045818328857,30.781137943267822 73.85821342468262,30.986082553863525 73.85821342468262,30.986082553863525 26.203015446662903,30.986082553863525 26.203015446662903,30.986082553863525 26.224973797798157,30.781185626983643 26.224973797798157,30.781185626983643 26.299121975898743,30.24507462978363 26.299121975898743,30.24507462978363 26.400402188301086,29.49562966823578 26.400402188301086,29.49562966823578 26.503732800483704,28.650623559951782 26.503732800483704,28.650623559951782 26.58415138721466,27.82788872718811 26.58415138721466,27.82788872718811 26.616528630256653,27.14543640613556 26.616528630256653,27.14543640613556 26.55976116657257,26.163628697395325 26.55976116657257,26.163628697395325 26.393678784370422,25.214767456054688 26.393678784370422,25.214767456054688 26.12479031085968,24.305103719234467 26.12479031085968,24.305103719234467 25.759458541870117,23.440787196159363 25.759458541870117,23.440787196159363 25.304222106933594,22.62825518846512 25.304222106933594,22.62825518846512 24.765443801879883,21.873706579208374 24.765443801879883,21.873706579208374 24.968242645263672,22.35092669725418 24.968242645263672,22.35092669725418 25.13754367828369,22.844691574573517 25.13754367828369,22.844691574573517 25.27182102203369,23.35362136363983 25.27182102203369,23.35362136363983 25.369572639465332,23.876379430294037 25.369572639465332,23.876379430294037 25.429344177246094,24.411629140377045 25.429344177246094,24.411629140377045 25.449609756469727,24.957895278930664 25.449609756469727,24.957895278930664 25.434160232543945,25.434350967407227 25.434160232543945,25.434350967407227 25.388455390930176,25.902512669563293 25.388455390930176,25.902512669563293 25.313568115234375,26.36151611804962 25.313568115234375,26.36151611804962 25.21054744720459,26.810410618782043 25.21054744720459,26.810410618782043 25.080442428588867,27.248433232307434 25.080442428588867,27.248433232307434 24.924325942993164,27.674728631973267 24.924325942993164,27.674728631973267 24.261997640132904,28.944644331932068 24.261997640132904,28.944644331932068 23.372671008110046,30.05262315273285 23.372671008110046,30.05262315273285 22.28695899248123,30.967915058135986 22.28695899248123,30.967915058135986 21.03542536497116,31.65966272354126 21.03542536497116,31.65966272354126 19.648732244968414,32.09735453128815 19.648732244968414,32.09735453128815 18.157421052455902,32.25008547306061 18.157421052455902,32.25008547306061 16.601546108722687,32.08366930484772 16.601546108722687,32.08366930484772 15.16135185956955,31.6076397895813 15.16135185956955,31.6076397895813 13.871720433235168,30.8571457862854 13.871720433235168,30.8571457862854 12.767553329467773,29.867228865623474 12.767553329467773,29.867228865623474 11.883781850337982,28.67303490638733 11.883781850337982,28.67303490638733 11.255285888910294,27.309468388557434 11.255285888910294,27.309468388557434 11.139032989740372,26.936200261116028 11.139032989740372,26.936200261116028 11.042353510856628,26.554730534553528 11.042353510856628,26.554730534553528 10.965916514396667,26.165631413459778 10.965916514396667,26.165631413459778 10.910436511039734,25.769376754760742 10.910436511039734,25.769376754760742 10.876628756523132,25.366640090942383 10.876628756523132,25.366640090942383 10.865232348442078,24.957895278930664 10.865232348442078,24.957895278930664 10.88549792766571,24.411629140377045 10.88549792766571,24.411629140377045 10.945293307304382,23.876427114009857 10.945293307304382,23.876427114009857 11.043116450309753,23.35362136363983 11.043116450309753,23.35362136363983 11.177418380975723,22.844548523426056 11.177418380975723,22.844548523426056 11.346767097711563,22.3507359623909 11.346767097711563,22.3507359623909 11.549590528011322,21.873515844345093 11.549590528011322,21.873515844345093 11.010739207267761,22.628159821033478 11.010739207267761,22.628159821033478 10.555478185415268,23.440691828727722 10.555478185415268,23.440691828727722 10.190172493457794,24.305008351802826 10.190172493457794,24.305008351802826 9.921283274888992,25.214672088623047 9.921283274888992,25.214672088623047 9.755248576402664,26.163581013679504 9.755248576402664,26.163581013679504 9.698504954576492,27.14543640613556 9.698504954576492,27.14543640613556 9.715933352708817,27.688699960708618 9.715933352708817,27.688699960708618 9.767384082078934,28.22280526161194 9.767384082078934,28.22280526161194 9.851712733507156,28.746753931045532 9.851712733507156,28.746753931045532 9.967727959156036,29.25949990749359 9.967727959156036,29.25949990749359 10.114283859729767,29.760178923606873 10.114283859729767,29.760178923606873 10.29016524553299,30.247744917869568 10.29016524553299,30.247744917869568 10.671063512563705,30.986082553863525 10.671063512563705,30.986082553863525 0.0,30.986082553863525 0.0,30.986082553863525 1.2884164229035378,30.378589034080505 1.2884164229035378,30.378589034080505 1.2961889617145061,29.81792390346527 1.2961889617145061,29.81792390346527 1.326229702681303,28.37277054786682 1.326229702681303,28.37277054786682 1.3886477798223495,26.398232579231262 1.3886477798223495,26.398232579231262 1.4935999177396297,24.249456822872162 1.4935999177396297,24.249456822872162 1.6512425616383553,22.281689941883087 1.6512425616383553,22.281689941883087 1.8716847524046898,20.850031077861786 1.8716847524046898,20.850031077861786 2.1537821739912033,19.781674444675446 2.1537821739912033,19.781674444675446 2.5324154645204544,18.69577169418335 2.5324154645204544,18.69577169418335 3.0717430636286736,17.63549894094467 3.0717430636286736,17.63549894094467 3.835923969745636,16.644032299518585 3.835923969745636,16.644032299518585 4.889068379998207,15.764743089675903 4.889068379998207,15.764743089675903 6.295406818389893,15.0408074259758 6.295406818389893,15.0408074259758 8.691494166851044,14.306572079658508 8.691494166851044,14.306572079658508 12.20841333270073,13.445402681827545 12.20841333270073,13.445402681827545 16.15207940340042,12.573456764221191 16.15207940340042,12.573456764221191 19.82835680246353,11.806820333003998 19.82835680246353,11.806820333003998 22.54313975572586,11.261723190546036 22.54313975572586,11.261723190546036 23.60233962535858,11.054250597953796 23.60233962535858,11.054250597953796 23.561808466911316,11.06855571269989 23.561808466911316,11.06855571269989 23.480769991874695,11.103793978691101 23.480769991874695,11.103793978691101 23.419973254203796,11.148474365472794 23.419973254203796,11.148474365472794 23.44021499156952,11.191079765558243 23.44021499156952,11.191079765558243 23.60229194164276,11.220238357782364 23.60229194164276,11.220238357782364 23.96702617406845,11.224386841058731 23.96702617406845,11.224386841058731 24.815726280212402,10.966703295707703 24.815726280212402,10.966703295707703 26.227572560310364,10.321445763111115 26.227572560310364,10.321445763111115 27.959471940994263,9.443897008895874 27.959471940994263,9.443897008895874 29.768332839012146,8.489339053630829 29.768332839012146,8.489339053630829 31.41111135482788,7.613148540258408 31.41111135482788,7.613148540258408 32.644715905189514,6.970609724521637 32.644715905189514,6.970609724521637 33.897870779037476,6.324350833892822 33.897870779037476,6.324350833892822 35.66147983074188,5.414114892482758 35.66147983074188,5.414114892482758 37.78564929962158,4.360731691122055 37.78564929962158,4.360731691122055 40.12046456336975,3.2850567251443863 40.12046456336975,3.2850567251443863 42.51607358455658,2.3079439997673035 42.51607358455658,2.3079439997673035 44.82258856296539,1.5502959489822388 44.82258856296539,1.5502959489822388 47.29682803153992,0.9998340159654617 47.29682803153992,0.9998340159654617 50.185585021972656,0.5661975126713514 50.185585021972656,0.5661975126713514 53.32415699958801,0.25277186650782824 53.32415699958801,0.25277186650782824 56.54779672622681,0.06287110154516995 56.54779672622681,0.06287110154516995 59.69182848930359,-2.384190338489134e-05 59.69182848930359,-2.384190338489134e-05 62.59148120880127,0.06732953479513526 62.59148120880127,0.06732953479513526 65.43100476264954,0.28455310966819525 65.43100476264954,0.28455310966819525 68.34946870803833,0.6219875533133745 68.34946870803833,0.6219875533133745 71.11400961875916,1.0093708522617817 71.11400961875916,1.0093708522617817 73.49166870117188,1.3764407485723495 73.49166870117188,1.3764407485723495 75.2495288848877,1.6530545428395271 75.2495288848877,1.6530545428395271 76.15466117858887,1.7688784748315811 76.15466117858887,1.7688784748315811 76.49645805358887,1.8362557515501976 76.49645805358887,1.8362557515501976 77.0846426486969,2.012447454035282 77.0846426486969,2.012447454035282 77.87118554115295,2.2770924493670464 77.87118554115295,2.2770924493670464 78.80790829658508,2.6097824797034264 78.80790829658508,2.6097824797034264 79.84684705734253,2.9902515932917595 79.84684705734253,2.9902515932917595 80.93982934951782,3.3981386572122574 80.93982934951782,3.3981386572122574 81.9992184638977,3.157597780227661 81.9992184638977,3.157597780227661 83.27063918113708,2.8582388535141945 83.27063918113708,2.8582388535141945 84.58859324455261,2.5308657437562943 84.58859324455261,2.5308657437562943 85.78750491142273,2.206234447658062 85.78750491142273,2.206234447658062 86.70189380645752,1.9152678549289703 86.70189380645752,1.9152678549289703 87.1661901473999,1.6887696459889412 87.1661901473999,1.6887696459889412 87.41710186004639,1.4485863968729973 87.41710186004639,1.4485863968729973 87.67917156219482,1.213457528501749 87.67917156219482,1.213457528501749 87.92712688446045,1.0006207972764969 87.92712688446045,1.0006207972764969 88.13555240631104,0.8272663690149784 88.13555240631104,0.8272663690149784 88.27919960021973,0.7106079254299402 88.27919960021973,0.7106079254299402 88.33272457122803,0.6679547484964132 88.33272457122803,0.6679547484964132 95.4063355922699,0.8136765100061893 95.4063355922699,0.8136765100061893 96.0990846157074,1.7982516437768936 96.0990846157074,1.7982516437768936 95.18736600875854,2.4179505184292793 95.18736600875854,2.4179505184292793 94.67695951461792,6.574643403291702 94.67695951461792,6.574643403291702 95.07826566696167,6.9755688309669495 95.07826566696167,6.9755688309669495 93.80568265914917,9.29223895072937 93.80568265914917,9.29223895072937 93.9710021018982,9.462946653366089 93.9710021018982,9.462946653366089 94.10406351089478,9.611529856920242 94.10406351089478,9.611529856920242 94.2120909690857,9.736747294664383 94.2120909690857,9.736747294664383 94.302237033844,9.837383776903152 94.302237033844,9.837383776903152 94.38179731369019,9.912342578172684 94.38179731369019,9.912342578172684 94.45799589157104,9.960383921861649 94.45799589157104,9.960383921861649 94.58690881729126,9.998603165149689 94.58690881729126,9.998603165149689 94.74419355392456,10.031433403491974 94.74419355392456,10.031433403491974 94.91370916366577,10.081835091114044 94.91370916366577,10.081835091114044 95.07912397384644,10.17274409532547 95.07912397384644,10.17274409532547 95.22436857223511,10.327167809009552 95.22436857223511,10.327167809009552 95.3330934047699,10.56806668639183 95.3330934047699,10.56806668639183 95.38363814353943,10.829898715019226 95.38363814353943,10.829898715019226 95.38084864616394,11.04247272014618 95.38084864616394,11.04247272014618 95.3483521938324,11.22128739953041 95.3483521938324,11.22128739953041 95.30972242355347,11.381862312555313 95.30972242355347,11.381862312555313 95.28862237930298,11.539791524410248 95.28862237930298,11.539791524410248 95.30867338180542,11.710570752620697 95.30867338180542,11.710570752620697 95.36022543907166,11.908672749996185 95.36022543907166,11.908672749996185 95.41310667991638,12.160753458738327 95.41310667991638,12.160753458738327 95.46059966087341,12.500643730163574 95.46059966087341,12.500643730163574 95.49590945243835,12.961985170841217 95.49590945243835,12.961985170841217 95.51236033439636,13.578702509403229 95.51236033439636,13.578702509403229 95.50322890281677,14.384487271308899 95.50322890281677,14.384487271308899 95.4767644405365,15.291053056716919 95.4767644405365,15.291053056716919 95.45292258262634,16.15980416536331 95.45292258262634,16.15980416536331 95.44257521629333,16.948851943016052 95.44257521629333,16.948851943016052 95.45649886131287,17.616306245326996 95.45649886131287,17.616306245326996 95.50554156303406,18.12046617269516 95.50554156303406,18.12046617269516 95.60050368309021,18.419301509857178 95.60050368309021,18.419301509857178 95.82015872001648,18.621337413787842 95.82015872001648,18.621337413787842 96.18296027183533,18.86049509048462 96.18296027183533,18.86049509048462 96.60925269126892,19.133388996124268 96.60925269126892,19.133388996124268 97.01933264732361,19.436635076999664 97.01933264732361,19.436635076999664 97.33361601829529,19.76691633462906 97.33361601829529,19.76691633462906 97.4723756313324,20.120850205421448 97.4723756313324,20.120850205421448 97.48086333274841,20.439758896827698 97.48086333274841,20.439758896827698 97.46775031089783,20.678964257240295 97.46775031089783,20.678964257240295 97.44791388511658,20.856063067913055 97.44791388511658,20.856063067913055 97.43615984916687,20.988576114177704 97.43615984916687,20.988576114177704 97.44736552238464,21.094171702861786 97.44736552238464,21.094171702861786 97.49640822410583,21.190302073955536 97.49640822410583,21.190302073955536 97.61006236076355,21.32198065519333 97.61006236076355,21.32198065519333 97.7817952632904,21.50558829307556 97.7817952632904,21.50558829307556 97.97658324241638,21.71618342399597 97.97658324241638,21.71618342399597 98.15918803215027,21.928709745407104 98.15918803215027,21.928709745407104 98.29451441764832,22.118324041366577 98.29451441764832,22.118324041366577 98.34746718406677,22.259944677352905 98.34746718406677,22.259944677352905 98.33995699882507,22.40275889635086 98.33995699882507,22.40275889635086 98.31880927085876,22.667737305164337 98.31880927085876,22.667737305164337 98.28624129295349,23.034711182117462 98.28624129295349,23.034711182117462 98.24437499046326,23.483416438102722 98.24437499046326,23.483416438102722 98.19537997245789,23.993681371212006 98.19537997245789,23.993681371212006 98.14147353172302,24.5453342795372 98.14147353172302,24.5453342795372 98.22248816490173,24.520014226436615 98.22248816490173,24.520014226436615 98.30088019371033,24.49464648962021 98.30088019371033,24.49464648962021 98.37650656700134,24.469231069087982 98.37650656700134,24.469231069087982 98.44908714294434,24.443672597408295 98.44908714294434,24.443672597408295 98.51846694946289,24.418161809444427 98.51846694946289,24.418161809444427 98.58436584472656,24.39255565404892 98.58436584472656,24.39255565404892 98.70076179504395,24.344967305660248 98.70076179504395,24.344967305660248 98.80132675170898,24.29780811071396 98.80132675170898,24.29780811071396 98.88405799865723,24.254034459590912 98.88405799865723,24.254034459590912 98.94683361053467,24.216698110103607 98.94683361053467,24.216698110103607 98.98762702941895,24.188850820064545 98.98762702941895,24.188850820064545 99.00436401367188,24.173592031002045 99.00436401367188,24.173592031002045 99.12886619567871,24.078701436519623 99.12886619567871,24.078701436519623 99.2689847946167,24.02176707983017 99.2689847946167,24.02176707983017 99.41692352294922,24.002836644649506 99.41692352294922,24.002836644649506 99.56483840942383,24.02186244726181 99.56483840942383,24.02186244726181 99.70500469207764,24.078892171382904 99.70500469207764,24.078892171382904" stroke="white" stroke-width="0.1" /><polygon points="3.1601011753082275,19.992104172706604 3.1601011753082275,19.992104172706604 5.198870226740837,19.268645346164703 5.198870226740837,19.268645346164703 7.3166511952877045,18.19068044424057 7.3166511952877045,18.19068044424057 9.312862157821655,16.975006461143494 9.312862157821655,16.975006461143494 10.987016558647156,15.838271379470825 10.987016558647156,15.838271379470825 12.138532847166061,14.997343719005585 12.138532847166061,14.997343719005585 12.566971778869629,14.668874442577362 12.566971778869629,14.668874442577362 12.206768244504929,14.710406959056854 12.206768244504929,14.710406959056854 11.265156418085098,14.830903708934784 11.265156418085098,14.830903708934784 9.950894862413406,15.024356544017792 9.950894862413406,15.024356544017792 8.472554385662079,15.284639596939087 8.472554385662079,15.284639596939087 7.038773596286774,15.605694055557251 7.038773596286774,15.605694055557251 5.858241766691208,15.981513261795044 5.858241766691208,15.981513261795044 4.974708333611488,16.557081043720245 4.974708333611488,16.557081043720245 4.28362712264061,17.377766966819763 4.28362712264061,17.377766966819763 3.7708114832639694,18.287573754787445 3.7708114832639694,18.287573754787445 3.422076255083084,19.13050413131714 3.422076255083084,19.13050413131714 3.223234787583351,19.750703871250153 3.223234787583351,19.750703871250153" stroke="white" stroke-width="0.1" /><polygon points="29.77662980556488,26.19061768054962 29.77662980556488,26.19061768054962 29.77662980556488,25.25925636291504 29.77662980556488,25.25925636291504 28.619438409805298,25.28557777404785 28.619438409805298,25.28557777404785 28.66259217262268,25.54173469543457 28.66259217262268,25.54173469543457 28.697043657302856,25.762319564819336 28.697043657302856,25.762319564819336 28.723222017288208,25.942376255989075 28.723222017288208,25.942376255989075 28.741461038589478,26.077035069465637 28.741461038589478,26.077035069465637 28.752142190933228,26.16133987903595 28.752142190933228,26.16133987903595 28.75562310218811,26.19061768054962 28.75562310218811,26.19061768054962" stroke="white" stroke-width="0.1" /><polygon points="29.77662980556488,24.82171058654785 29.77662980556488,24.82171058654785 29.77662980556488,24.030159413814545 29.77662980556488,24.030159413814545 28.359657526016235,24.030159413814545 28.359657526016235,24.030159413814545 28.393632173538208,24.173496663570404 28.393632173538208,24.173496663570404 28.42591404914856,24.31464046239853 28.42591404914856,24.31464046239853 28.45655083656311,24.453113973140717 28.45655083656311,24.453113973140717 28.48549485206604,24.588631093502045 28.48549485206604,24.588631093502045 28.5128653049469,24.72100257873535 28.5128653049469,24.72100257873535 28.538566827774048,24.849748611450195 28.538566827774048,24.849748611450195" stroke="white" stroke-width="0.1" /><polygon points="29.77662980556488,23.5929936170578 29.77662980556488,23.5929936170578 29.77662980556488,22.781415283679962 29.77662980556488,22.781415283679962 28.00355553627014,22.781415283679962 28.00355553627014,22.781415283679962 28.048187494277954,22.916503250598907 28.048187494277954,22.916503250598907 28.091293573379517,23.051974177360535 28.091293573379517,23.051974177360535 28.13284993171692,23.187586665153503 28.13284993171692,23.187586665153503 28.17285656929016,23.32300841808319 28.17285656929016,23.32300841808319 28.211337327957153,23.458239436149597 28.211337327957153,23.458239436149597 28.248268365859985,23.5929936170578 28.248268365859985,23.5929936170578" stroke="white" stroke-width="0.1" /><polygon points="29.77662980556488,22.344060242176056 29.77662980556488,22.344060242176056 29.77662980556488,21.5326726436615 29.77662980556488,21.5326726436615 27.482277154922485,21.5326726436615 27.482277154922485,21.5326726436615 27.50282883644104,21.57225012779236 27.50282883644104,21.57225012779236 27.523237466812134,21.61197066307068 27.523237466812134,21.61197066307068 27.543503046035767,21.65200114250183 27.543503046035767,21.65200114250183 27.563554048538208,21.692222356796265 27.563554048538208,21.692222356796265 27.583414316177368,21.73280119895935 27.583414316177368,21.73280119895935 27.603012323379517,21.773761510849 27.603012323379517,21.773761510849 27.645975351333618,21.865934133529663 27.645975351333618,21.865934133529663 27.687937021255493,21.959346532821655 27.687937021255493,21.959346532821655 27.72889733314514,22.054046392440796 27.72889733314514,22.054046392440796 27.768880128860474,22.149795293807983 27.768880128860474,22.149795293807983 27.80800461769104,22.246450185775757 27.80800461769104,22.246450185775757 27.84619927406311,22.344060242176056 27.84619927406311,22.344060242176056" stroke="white" stroke-width="0.1" /><polygon points="29.77662980556488,21.095125377178192 29.77662980556488,21.095125377178192 29.77662980556488,20.283928513526917 29.77662980556488,20.283928513526917 26.663067936897278,20.283928513526917 26.663067936897278,20.283928513526917 26.75934135913849,20.40633261203766 26.75934135913849,20.40633261203766 26.85568630695343,20.533886551856995 26.85568630695343,20.533886551856995 26.95172131061554,20.666638016700745 26.95172131061554,20.666638016700745 27.047088742256165,20.804397761821747 27.047088742256165,20.804397761821747 27.141478657722473,20.947305858135223 27.141478657722473,20.947305858135223 27.234509587287903,21.095125377178192 27.234509587287903,21.095125377178192" stroke="white" stroke-width="0.1" /><polygon points="29.77662980556488,19.84619051218033 29.77662980556488,19.84619051218033 29.77662980556488,18.971288204193115 29.77662980556488,18.971288204193115 25.32830238342285,18.971288204193115 25.32830238342285,18.971288204193115 25.362539291381836,18.99639368057251 25.362539291381836,18.99639368057251 25.45919418334961,19.07109022140503 25.45919418334961,19.07109022140503 25.60904026031494,19.194377958774567 25.60904026031494,19.194377958774567 25.80290138721466,19.365276396274567 25.80290138721466,19.365276396274567 26.03168785572052,19.582904875278473 26.03168785572052,19.582904875278473 26.286175847053528,19.84619051218033 26.286175847053528,19.84619051218033" stroke="white" stroke-width="0.1" /><polygon points="58.1673800945282,9.158342331647873 58.1673800945282,9.158342331647873 58.34786295890808,8.111730962991714 58.34786295890808,8.111730962991714 58.574217557907104,6.6195376217365265 58.574217557907104,6.6195376217365265 58.81137251853943,4.965290799736977 58.81137251853943,4.965290799736977 59.024208784103394,3.4325428307056427 59.024208784103394,3.4325428307056427 59.17765498161316,2.304987609386444 59.17765498161316,2.304987609386444 59.236639738082886,1.8661534413695335 59.236639738082886,1.8661534413695335 58.61300826072693,1.8571412190794945 58.61300826072693,1.8571412190794945 56.96984529495239,1.8589293584227562 56.96984529495239,1.8589293584227562 54.648786783218384,1.9147194921970367 54.648786783218384,1.9147194921970367 51.9914448261261,2.0677128806710243 51.9914448261261,2.0677128806710243 49.33950901031494,2.361159026622772 49.33950901031494,2.361159026622772 47.03454375267029,2.838330902159214 47.03454375267029,2.838330902159214 45.07667124271393,3.4172121435403824 45.07667124271393,3.4172121435403824 43.18498373031616,4.033954814076424 43.18498373031616,4.033954814076424 41.27975106239319,4.758700728416443 41.27975106239319,4.758700728416443 39.28137123584747,5.66164143383503 39.28137123584747,5.66164143383503 37.110161781311035,6.813133507966995 37.110161781311035,6.813133507966995 34.686535596847534,8.283249288797379 34.686535596847534,8.283249288797379 34.686535596847534,8.769242465496063 34.686535596847534,8.769242465496063 34.76936221122742,8.774439990520477 34.76936221122742,8.774439990520477 34.976404905319214,8.810680359601974 34.976404905319214,8.810680359601974 35.24558246135712,8.9090995490551 35.24558246135712,8.9090995490551 35.51473319530487,9.100621193647385 35.51473319530487,9.100621193647385 35.72179973125458,9.416455030441284 35.72179973125458,9.416455030441284 35.80462634563446,9.887523204088211 35.80462634563446,9.887523204088211 35.79382598400116,10.423370450735092 35.79382598400116,10.423370450735092 35.76678931713104,10.901138186454773 35.76678931713104,10.901138186454773 35.73167026042938,11.303303390741348 35.73167026042938,11.303303390741348 35.69652736186981,11.612246930599213 35.69652736186981,11.612246930599213 35.669490694999695,11.810539662837982 35.669490694999695,11.810539662837982 35.658714175224304,11.88051551580429 35.658714175224304,11.88051551580429 37.04807758331299,11.811898648738861 37.04807758331299,11.811898648738861 40.55078625679016,11.63933128118515 40.55078625679016,11.63933128118515 45.16893923282623,11.412761360406876 45.16893923282623,11.412761360406876 49.904537200927734,11.182091385126114 49.904537200927734,11.182091385126114 53.75972390174866,10.997387766838074 53.75972390174866,10.997387766838074 55.73645830154419,10.908529162406921 55.73645830154419,10.908529162406921 56.385838985443115,10.863229632377625 56.385838985443115,10.863229632377625 56.92850351333618,10.75713336467743 56.92850351333618,10.75713336467743 57.37127065658569,10.56201085448265 57.37127065658569,10.56201085448265 57.720816135406494,10.249371826648712 57.720816135406494,10.249371826648712 57.983940839767456,9.790963679552078 57.983940839767456,9.790963679552078" stroke="white" stroke-width="0.1" /><polygon points="73.86965751647949,9.692973643541336 73.86965751647949,9.692973643541336 74.54724311828613,9.66762974858284 74.54724311828613,9.66762974858284 75.18312931060791,9.632820636034012 75.18312931060791,9.632820636034012 75.77877044677734,9.589166194200516 75.77877044677734,9.589166194200516 76.33552551269531,9.537237882614136 76.33552551269531,9.537237882614136 76.85478329658508,9.477752447128296 76.85478329658508,9.477752447128296 77.33798623085022,9.41125750541687 77.33798623085022,9.41125750541687 63.175129890441895,4.193313792347908 63.175129890441895,4.193313792347908 62.88273334503174,9.887523204088211 62.88273334503174,9.887523204088211 63.34888935089111,9.883231669664383 63.34888935089111,9.883231669664383 64.61856961250305,9.869498759508133 64.61856961250305,9.869498759508133 66.49864315986633,9.844965487718582 66.49864315986633,9.844965487718582 68.79593133926392,9.808225184679031 68.79593133926392,9.808225184679031 71.31730914115906,9.758014231920242 71.31730914115906,9.758014231920242" stroke="white" stroke-width="0.1" /><polygon points="81.2106728553772,7.942786812782288 81.2106728553772,7.942786812782288 81.45478963851929,7.600083202123642 81.45478963851929,7.600083202123642 81.51987791061401,7.246746867895126 81.51987791061401,7.246746867895126 81.35277032852173,6.874479353427887 81.35277032852173,6.874479353427887 80.90015649795532,6.4748890697956085 80.90015649795532,6.4748890697956085 80.10889291763306,6.039774045348167 80.10889291763306,6.039774045348167 78.92566323280334,5.560694634914398 78.92566323280334,5.560694634914398 76.2333869934082,4.597005248069763 76.2333869934082,4.597005248069763 73.91650676727295,3.83046418428421 73.91650676727295,3.83046418428421 71.71851992607117,3.2394710928201675 71.71851992607117,3.2394710928201675 69.3827748298645,2.8023773804306984 69.3827748298645,2.8023773804306984 66.65275692939758,2.4976540356874466 66.65275692939758,2.4976540356874466 63.27183246612549,2.3037001490592957 63.27183246612549,2.3037001490592957 63.25333118438721,2.6678135618567467 63.25333118438721,2.6678135618567467 79.85836267471313,8.78564566373825 79.85836267471313,8.78564566373825 80.18416166305542,8.64512175321579 80.18416166305542,8.64512175321579 80.46504259109497,8.502404391765594 80.46504259109497,8.502404391765594 80.70460557937622,8.359137922525406 80.70460557937622,8.359137922525406 80.90633153915405,8.216968923807144 80.90633153915405,8.216968923807144 81.07384443283081,8.077637106180191 81.07384443283081,8.077637106180191" stroke="white" stroke-width="0.1" /></svg>