<?xml version="1.0" encoding="utf-8" ?>
<svg baseProfile="full" height="44.59686279296875" version="1.1" width="100.0" xmlns="http://www.w3.org/2000/svg" xmlns:ev="http://www.w3.org/2001/xml-events" xmlns:xlink="http://www.w3.org/1999/xlink"><defs><clipPath /></defs><polygon points="100.0,17.21057891845703 100.0,17.21057891845703 99.42436218261719,17.21057891845703 99.42436218261719,17.21057891845703 99.42436218261719,18.938064575195312 99.42436218261719,18.938064575195312 99.87220764160156,18.938064575195312 99.87220764160156,18.938064575195312 99.87220764160156,27.31952667236328 99.87220764160156,27.31952667236328 99.36027526855469,28.21521759033203 99.36027526855469,28.21521759033203 99.36027526855469,31.0302734375 99.36027526855469,31.0302734375 95.64933776855469,31.0302734375 95.64933776855469,31.0302734375 95.64933776855469,33.269500732421875 95.64933776855469,33.269500732421875 94.561767578125,34.613037109375 94.561767578125,34.613037109375 90.74172973632812,34.613037109375 90.74172973632812,34.613037109375 90.1186466217041,31.729531288146973 90.1186466217041,31.729531288146973 88.83507251739502,29.15506362915039 88.83507251739502,29.15506362915039 86.98701858520508,26.985669136047363 86.98701858520508,26.985669136047363 84.6703052520752,25.31723976135254 84.6703052520752,25.31723976135254 81.98084831237793,24.245858192443848 81.98084831237793,24.245858192443848 79.01458740234375,23.867416381835938 79.01458740234375,23.867416381835938 76.04844570159912,24.245882034301758 76.04844570159912,24.245882034301758 73.35903644561768,25.31728744506836 73.35903644561768,25.31728744506836 71.04229927062988,26.985669136047363 71.04229927062988,26.985669136047363 69.19417381286621,29.15503978729248 69.19417381286621,29.15503978729248 67.91056394577026,31.729483604431152 67.91056394577026,31.729483604431152 67.28744506835938,34.613037109375 67.28744506835938,34.613037109375 57.51762390136719,34.613037109375 57.51762390136719,34.613037109375 56.3018798828125,36.21253967285156 56.3018798828125,36.21253967285156 33.71715545654297,36.21253967285156 33.71715545654297,36.21253967285156 28.683853149414062,34.46369171142578 28.683853149414062,34.46369171142578 28.033816814422607,31.61594867706299 28.033816814422607,31.61594867706299 26.73811912536621,29.076051712036133 26.73811912536621,29.076051712036133 24.89032745361328,26.93767547607422 24.89032745361328,26.93767547607422 22.584009170532227,25.29435157775879 22.584009170532227,25.29435157775879 19.912731647491455,24.239730834960938 19.912731647491455,24.239730834960938 16.970062255859375,23.867416381835938 16.970062255859375,23.867416381835938 14.523959159851074,24.123048782348633 14.523959159851074,24.123048782348633 12.251734733581543,24.854755401611328 12.251734733581543,24.854755401611328 10.206007957458496,26.00994110107422 10.206007957458496,26.00994110107422 8.439362049102783,27.53586769104004 8.439362049102783,27.53586769104004 7.004427909851074,29.379987716674805 7.004427909851074,29.379987716674805 5.953788757324219,31.48956298828125 5.953788757324219,31.48956298828125 3.3269882202148438,31.542015075683594 3.3269882202148438,31.542015075683594 5.4271697998046875,33.322715759277344 5.4271697998046875,33.322715759277344 5.362892150878906,33.67106914520264 5.362892150878906,33.67106914520264 5.308973789215088,34.02283191680908 5.308973789215088,34.02283191680908 5.265593528747559,34.37788486480713 5.265593528747559,34.37788486480713 5.232870578765869,34.736037254333496 5.232870578765869,34.736037254333496 5.2109599113464355,35.09721755981445 5.2109599113464355,35.09721755981445 5.200004577636719,35.46123504638672 5.200004577636719,35.46123504638672 0.06389617919921875,31.478118896484375 0.06389617919921875,31.478118896484375 0.0,29.36687469482422 0.0,29.36687469482422 3.9028167724609375,29.36687469482422 3.9028167724609375,29.36687469482422 3.9028167724609375,28.854942321777344 3.9028167724609375,28.854942321777344 3.7218332290649414,28.85911464691162 3.7218332290649414,28.85911464691162 3.265380859375,28.8668155670166 3.265380859375,28.8668155670166 2.6631832122802734,28.87098789215088 2.6631832122802734,28.87098789215088 2.044999599456787,28.864455223083496 2.044999599456787,28.864455223083496 1.5405654907226562,28.840208053588867 1.5405654907226562,28.840208053588867 1.2796401977539062,28.791046142578125 1.2796401977539062,28.791046142578125 1.127934455871582,28.69892120361328 1.127934455871582,28.69892120361328 0.8980631828308105,28.54456901550293 0.8980631828308105,28.54456901550293 0.6397724151611328,28.319168090820312 0.6397724151611328,28.319168090820312 0.40280818939208984,28.01375389099121 0.40280818939208984,28.01375389099121 0.23692846298217773,27.619457244873047 0.23692846298217773,27.619457244873047 0.1918792724609375,27.127456665039062 0.1918792724609375,27.127456665039062 0.21888017654418945,26.522350311279297 0.21888017654418945,26.522350311279297 0.23697614669799805,25.847911834716797 0.23697614669799805,25.847911834716797 0.247955322265625,25.184106826782227 0.247955322265625,25.184106826782227 0.25359392166137695,24.61090087890625 0.25359392166137695,24.61090087890625 0.25566816329956055,24.208354949951172 0.25566816329956055,24.208354949951172 0.2559661865234375,24.056434631347656 0.2559661865234375,24.056434631347656 0.7038116455078125,24.056434631347656 0.7038116455078125,24.056434631347656 0.6958127021789551,23.888492584228516 0.6958127021789551,23.888492584228516 0.6824731826782227,23.459291458129883 0.6824731826782227,23.459291458129883 0.6798028945922852,22.880840301513672 0.6798028945922852,22.880840301513672 0.7037878036499023,22.265028953552246 0.7037878036499023,22.265028953552246 0.770413875579834,21.72389030456543 0.770413875579834,21.72389030456543 0.89569091796875,21.369361877441406 0.89569091796875,21.369361877441406 1.116943359375,21.140718460083008 1.116943359375,21.140718460083008 1.428842544555664,20.904898643493652 1.428842544555664,20.904898643493652 1.7833948135375977,20.665550231933594 1.7833948135375977,20.665550231933594 2.1326303482055664,20.426177978515625 2.1326303482055664,20.426177978515625 2.428555488586426,20.19038200378418 2.428555488586426,20.19038200378418 2.6231765747070312,19.96173858642578 2.6231765747070312,19.96173858642578 2.8284549713134766,19.481325149536133 2.8284549713134766,19.481325149536133 3.2203316688537598,18.613481521606445 3.2203316688537598,18.613481521606445 3.8467884063720703,17.546582221984863 3.8467884063720703,17.546582221984863 4.755806922912598,16.46900177001953 4.755806922912598,16.46900177001953 5.995416641235352,15.569162368774414 5.995416641235352,15.569162368774414 7.613563537597656,15.035438537597656 7.613563537597656,15.035438537597656 9.623897075653076,14.750194549560547 9.623897075653076,14.750194549560547 11.838603019714355,14.480924606323242 11.838603019714355,14.480924606323242 14.003562927246094,14.243674278259277 14.003562927246094,14.243674278259277 15.86461067199707,14.054369926452637 15.86461067199707,14.054369926452637 17.16761589050293,13.929057121276855 17.16761589050293,13.929057121276855 17.658424377441406,13.883781433105469 17.658424377441406,13.883781433105469 17.633533477783203,13.8275146484375 17.633533477783203,13.8275146484375 17.60861873626709,13.689470291137695 17.60861873626709,13.689470291137695 17.658352851867676,13.515925407409668 17.658352851867676,13.515925407409668 17.85738468170166,13.35301399230957 17.85738468170166,13.35301399230957 18.280363082885742,13.246965408325195 18.280363082885742,13.246965408325195 19.00196075439453,13.244056701660156 19.00196075439453,13.244056701660156 20.26197910308838,13.297605514526367 20.26197910308838,13.297605514526367 22.0444917678833,13.33160400390625 22.0444917678833,13.33160400390625 24.04029369354248,13.347887992858887 24.04029369354248,13.347887992858887 25.94013214111328,13.348150253295898 25.94013214111328,13.348150253295898 27.434778213500977,13.334250450134277 27.434778213500977,13.334250450134277 28.21502685546875,13.307952880859375 28.21502685546875,13.307952880859375 28.534305095672607,13.262653350830078 28.534305095672607,13.262653350830078 28.850018978118896,13.180017471313477 28.850018978118896,13.180017471313477 29.158639907836914,13.044047355651855 29.158639907836914,13.044047355651855 29.456603527069092,12.83869743347168 29.456603527069092,12.83869743347168 29.740381240844727,12.548160552978516 29.740381240844727,12.548160552978516 30.00640869140625,12.156295776367188 30.00640869140625,12.156295776367188 30.586707592010498,11.207294464111328 30.586707592010498,11.207294464111328 31.662821769714355,9.511804580688477 31.662821769714355,9.511804580688477 33.005499839782715,7.453775405883789 33.005499839782715,7.453775405883789 34.385478496551514,5.417037010192871 34.385478496551514,5.417037010192871 35.573506355285645,3.785586357116699 35.573506355285645,3.785586357116699 36.34033203125,2.9432296752929688 36.34033203125,2.9432296752929688 36.816954612731934,2.5833845138549805 36.816954612731934,2.5833845138549805 37.40197420120239,2.1754980087280273 37.40197420120239,2.1754980087280273 38.26777935028076,1.7676115036010742 38.26777935028076,1.7676115036010742 39.586734771728516,1.4076709747314453 39.586734771728516,1.4076709747314453 41.53127670288086,1.1437654495239258 41.53127670288086,1.1437654495239258 44.27375793457031,1.02386474609375 44.27375793457031,1.02386474609375 47.39811420440674,0.9400844573974609 47.39811420440674,0.9400844573974609 50.28785467147827,0.84381103515625 50.28785467147827,0.84381103515625 52.81505584716797,0.8719444274902344 52.81505584716797,0.8719444274902344 54.85173463821411,1.1612892150878906 54.85173463821411,1.1612892150878906 56.269967555999756,1.848769187927246 56.269967555999756,1.848769187927246 56.941795349121094,3.0712127685546875 56.941795349121094,3.0712127685546875 57.214272022247314,5.132794380187988 57.214272022247314,5.132794380187988 57.50100612640381,7.919430732727051 57.50100612640381,7.919430732727051 57.773518562316895,10.940718650817871 57.773518562316895,10.940718650817871 58.003389835357666,13.706040382385254 58.003389835357666,13.706040382385254 58.16217660903931,15.724968910217285 58.16217660903931,15.724968910217285 58.221435546875,16.5069580078125 58.221435546875,16.5069580078125 59.372901916503906,16.5069580078125 59.372901916503906,16.5069580078125 59.372901916503906,0.7678985595703125 59.372901916503906,0.7678985595703125 59.40030813217163,0.5637407302856445 59.40030813217163,0.5637407302856445 59.47766304016113,0.3802776336669922 59.47766304016113,0.3802776336669922 59.59768295288086,0.22487640380859375 59.59768295288086,0.22487640380859375 59.75303649902344,0.10478496551513672 59.75303649902344,0.10478496551513672 59.93645191192627,0.027418136596679688 59.93645191192627,0.027418136596679688 60.14060974121094,0.0 60.14060974121094,0.0 60.34473180770874,0.027418136596679688 60.34473180770874,0.027418136596679688 60.52818298339844,0.10480880737304688 60.52818298339844,0.10480880737304688 60.683655738830566,0.22487640380859375 60.683655738830566,0.22487640380859375 60.803771018981934,0.38025379180908203 60.803771018981934,0.38025379180908203 60.88123321533203,0.5637168884277344 60.88123321533203,0.5637168884277344 60.90869903564453,0.7678985595703125 60.90869903564453,0.7678985595703125 60.90869903564453,16.5069580078125 60.90869903564453,16.5069580078125 61.67640686035156,16.5069580078125 61.67640686035156,16.5069580078125 61.67640686035156,0.7678985595703125 61.67640686035156,0.7678985595703125 61.70382499694824,0.563812255859375 61.70382499694824,0.563812255859375 61.78121566772461,0.3804206848144531 61.78121566772461,0.3804206848144531 61.901235580444336,0.22504329681396484 61.901235580444336,0.22504329681396484 62.056565284729004,0.10497570037841797 62.056565284729004,0.10497570037841797 62.239909172058105,0.02758502960205078 62.239909172058105,0.02758502960205078 62.44392395019531,0.00019073486328125 62.44392395019531,0.00019073486328125 62.64801025390625,0.027608871459960938 62.64801025390625,0.027608871459960938 62.83141374588013,0.10499954223632812 62.83141374588013,0.10499954223632812 62.98677921295166,0.22504329681396484 62.98677921295166,0.22504329681396484 63.10681104660034,0.3803730010986328 63.10681104660034,0.3803730010986328 63.184189796447754,0.5637884140014648 63.184189796447754,0.5637884140014648 63.211631774902344,0.7678985595703125 63.211631774902344,0.7678985595703125 63.211631774902344,4.030799865722656 63.211631774902344,4.030799865722656 68.52188110351562,4.030799865722656 68.52188110351562,4.030799865722656 69.99850273132324,4.954957962036133 69.99850273132324,4.954957962036133 73.61479997634888,7.265329360961914 73.61479997634888,7.265329360961914 78.2968521118164,10.268878936767578 78.2968521118164,10.268878936767578 82.97076225280762,13.272380828857422 82.97076225280762,13.272380828857422 86.5626335144043,15.582776069641113 86.5626335144043,15.582776069641113 87.99858093261719,16.5069580078125 87.99858093261719,16.5069580078125 100.0,16.5069580078125 100.0,16.5069580078125" stroke="white" stroke-width="0.1" /><polygon points="49.648094177246094,11.96441650390625 49.648094177246094,11.96441650390625 49.670279026031494,10.957574844360352 49.670279026031494,10.957574844360352 49.67648983001709,9.476232528686523 49.67648983001709,9.476232528686523 49.6720552444458,7.813668251037598 49.6720552444458,7.813668251037598 49.66228008270264,6.2630414962768555 49.66228008270264,6.2630414962768555 49.65252876281738,5.117654800415039 49.65252876281738,5.117654800415039 49.648094177246094,4.67071533203125 49.648094177246094,4.67071533203125 49.64601993560791,4.618597030639648 49.64601993560791,4.618597030639648 49.610161781311035,4.488229751586914 49.610161781311035,4.488229751586914 49.49612617492676,4.318809509277344 49.49612617492676,4.318809509277344 49.25947189331055,4.149341583251953 49.25947189331055,4.149341583251953 48.85578155517578,4.018998146057129 48.85578155517578,4.018998146057129 48.24066162109375,3.9669036865234375 48.24066162109375,3.9669036865234375 40.435028076171875,3.9669036865234375 40.435028076171875,3.9669036865234375 40.38764238357544,3.964543342590332 40.38764238357544,3.964543342590332 40.24782180786133,3.990602493286133 40.24782180786133,3.990602493286133 40.01915454864502,4.094862937927246 40.01915454864502,4.094862937927246 39.70516920089722,4.327058792114258 39.70516920089722,4.327058792114258 39.30943012237549,4.737043380737305 39.30943012237549,4.737043380737305 38.83552551269531,5.3745269775390625 38.83552551269531,5.3745269775390625 38.224172592163086,6.391048431396484 38.224172592163086,6.391048431396484 37.484872341156006,7.748818397521973 37.484872341156006,7.748818397521973 36.724257469177246,9.21320915222168 36.724257469177246,9.21320915222168 36.04893684387207,10.549616813659668 36.04893684387207,10.549616813659668 35.56556701660156,11.52353286743164 35.56556701660156,11.52353286743164 35.38074493408203,11.90032958984375 35.38074493408203,11.90032958984375 35.33957004547119,11.985945701599121 35.33957004547119,11.985945701599121 35.264599323272705,12.201261520385742 35.264599323272705,12.201261520385742 35.228729248046875,12.484169006347656 35.228729248046875,12.484169006347656 35.304808616638184,12.772369384765625 35.304808616638184,12.772369384765625 35.565733909606934,13.003730773925781 35.565733909606934,13.003730773925781 36.08436584472656,13.116073608398438 36.08436584472656,13.116073608398438 37.47982978820801,13.138270378112793 37.47982978820801,13.138270378112793 39.93270397186279,13.144469261169434 39.93270397186279,13.144469261169434 42.858290672302246,13.140034675598145 42.858290672302246,13.140034675598145 45.671892166137695,13.13023567199707 45.671892166137695,13.13023567199707 47.78883457183838,13.120460510253906 47.78883457183838,13.120460510253906 48.624420166015625,13.116073608398438 48.624420166015625,13.116073608398438 48.69581460952759,13.12408447265625 48.69581460952759,13.12408447265625 48.87561798095703,13.116073608398438 48.87561798095703,13.116073608398438 49.11229610443115,13.044071197509766 49.11229610443115,13.044071197509766 49.35429096221924,12.86008358001709 49.35429096221924,12.86008358001709 49.55008029937744,12.516212463378906 49.55008029937744,12.516212463378906" stroke="white" stroke-width="0.1" /><polygon points="63.211631774902344,16.5069580078125 63.211631774902344,16.5069580078125 78.81431579589844,16.5069580078125 78.81431579589844,16.5069580078125 67.22068786621094,9.085273742675781 67.22068786621094,9.085273742675781 63.211631774902344,9.085273742675781 63.211631774902344,9.085273742675781" stroke="white" stroke-width="0.1" /><polygon points="6.270027160644531,34.037208557128906 6.270027160644531,34.037208557128906 5.4271697998046875,33.322715759277344 5.4271697998046875,33.322715759277344 5.494594573974609,33.00895690917969 5.494594573974609,33.00895690917969 5.570352077484131,32.69832134246826 5.570352077484131,32.69832134246826 5.654287338256836,32.39097595214844 5.654287338256836,32.39097595214844 5.746269226074219,32.086968421936035 5.746269226074219,32.086968421936035 5.846142768859863,31.786489486694336 5.846142768859863,31.786489486694336 5.953788757324219,31.48956298828125 5.953788757324219,31.48956298828125 6.525993347167969,31.478118896484375 6.525993347167969,31.478118896484375" stroke="white" stroke-width="0.1" /><polygon points="25.927162170410156,35.63976287841797 25.927162170410156,35.63976287841797 25.60720443725586,38.020896911621094 25.60720443725586,38.020896911621094 24.704253673553467,40.160584449768066 24.704253673553467,40.160584449768066 23.303699493408203,41.9734001159668 23.303699493408203,41.9734001159668 21.490895748138428,43.373966217041016 21.490895748138428,43.373966217041016 19.35122013092041,44.27690505981445 19.35122013092041,44.27690505981445 16.970062255859375,44.59686279296875 16.970062255859375,44.59686279296875 14.58890438079834,44.27688121795654 14.58890438079834,44.27688121795654 12.449228763580322,43.373942375183105 12.449228763580322,43.373942375183105 10.636425018310547,41.9734001159668 10.636425018310547,41.9734001159668 9.235858917236328,40.160584449768066 9.235858917236328,40.160584449768066 8.33292007446289,38.020944595336914 8.33292007446289,38.020944595336914 8.012962341308594,35.63976287841797 8.012962341308594,35.63976287841797 8.332908153533936,33.25850963592529 8.332908153533936,33.25850963592529 9.235858917236328,31.1187744140625 9.235858917236328,31.1187744140625 10.636425018310547,29.30595874786377 10.636425018310547,29.30595874786377 12.449228763580322,27.90536880493164 12.449228763580322,27.90536880493164 14.58890438079834,27.002429962158203 14.58890438079834,27.002429962158203 16.970062255859375,26.682472229003906 16.970062255859375,26.682472229003906 19.35122013092041,27.002406120300293 19.35122013092041,27.002406120300293 21.490883827209473,27.90534496307373 21.490883827209473,27.90534496307373 23.303699493408203,29.30595874786377 23.303699493408203,29.30595874786377 24.704265594482422,31.11879825592041 24.704265594482422,31.11879825592041 25.60720443725586,33.2585334777832 25.60720443725586,33.2585334777832" stroke="white" stroke-width="0.1" /><polygon points="87.97187805175781,35.63976287841797 87.97187805175781,35.63976287841797 87.65192031860352,38.020896911621094 87.65192031860352,38.020896911621094 86.74890995025635,40.160584449768066 86.74890995025635,40.160584449768066 85.34832000732422,41.9734001159668 85.34832000732422,41.9734001159668 83.53548049926758,43.373966217041016 83.53548049926758,43.373966217041016 81.3957691192627,44.27690505981445 81.3957691192627,44.27690505981445 79.01458740234375,44.59686279296875 79.01458740234375,44.59686279296875 76.63345336914062,44.27688121795654 76.63345336914062,44.27688121795654 74.49378967285156,43.373942375183105 74.49378967285156,43.373942375183105 72.68104553222656,41.9734001159668 72.68104553222656,41.9734001159668 71.28052711486816,40.160584449768066 71.28052711486816,40.160584449768066 70.37761211395264,38.020944595336914 70.37761211395264,38.020944595336914 70.05767822265625,35.63976287841797 70.05767822265625,35.63976287841797 70.37761211395264,33.25850963592529 70.37761211395264,33.25850963592529 71.28052711486816,31.1187744140625 71.28052711486816,31.1187744140625 72.68104553222656,29.30595874786377 72.68104553222656,29.30595874786377 74.49380159378052,27.90536880493164 74.49380159378052,27.90536880493164 76.63345336914062,27.002429962158203 76.63345336914062,27.002429962158203 79.01458740234375,26.682472229003906 79.01458740234375,26.682472229003906 81.39574527740479,27.002406120300293 81.39574527740479,27.002406120300293 83.53545665740967,27.90534496307373 83.53545665740967,27.90534496307373 85.34832000732422,29.30595874786377 85.34832000732422,29.30595874786377 86.74893379211426,31.11879825592041 86.74893379211426,31.11879825592041 87.65192031860352,33.2585334777832 87.65192031860352,33.2585334777832" stroke="white" stroke-width="0.1" /></svg>