<?xml version="1.0" encoding="utf-8" ?>
<svg baseProfile="full" height="32.905933260917664" version="1.1" width="99.99757409095764" xmlns="http://www.w3.org/2000/svg" xmlns:ev="http://www.w3.org/2001/xml-events" xmlns:xlink="http://www.w3.org/1999/xlink"><defs><clipPath /></defs><polygon points="98.70968461036682,17.961131036281586 98.70968461036682,17.961131036281586 98.94846677780151,18.0921271443367 98.94846677780151,18.0921271443367 99.18426275253296,18.207460641860962 99.18426275253296,18.207460641860962 99.4076669216156,18.327990174293518 99.4076669216156,18.327990174293518 99.6087908744812,18.474364280700684 99.6087908744812,18.474364280700684 99.77794289588928,18.667513132095337 99.77794289588928,18.667513132095337 99.90566372871399,18.928080797195435 99.90566372871399,18.928080797195435 99.98205304145813,19.277000427246094 99.98205304145813,19.277000427246094 99.99757409095764,19.73498910665512 99.99757409095764,19.73498910665512 99.97842311859131,20.261108875274658 99.97842311859131,20.261108875274658 99.95813369750977,20.786374807357788 99.95813369750977,20.786374807357788 99.93777275085449,21.28949910402298 99.93777275085449,21.28949910402298 99.91869330406189,21.74898236989975 99.91869330406189,21.74898236989975 99.90167617797852,22.143608331680298 99.90167617797852,22.143608331680298 99.88829493522644,22.45187610387802 99.88829493522644,22.45187610387802 99.87932443618774,22.652427852153778 99.87932443618774,22.652427852153778 99.87611770629883,22.724120318889618 99.87611770629883,22.724120318889618 99.86963868141174,22.741064429283142 99.86963868141174,22.741064429283142 99.8514175415039,22.78677076101303 99.8514175415039,22.78677076101303 99.82357621192932,22.85355031490326 99.82357621192932,22.85355031490326 99.78798031806946,22.93364256620407 99.78798031806946,22.93364256620407 99.74669218063354,23.019501566886902 99.74669218063354,23.019501566886902 99.7016966342926,23.103225231170654 99.7016966342926,23.103225231170654 99.65506196022034,23.177480697631836 99.65506196022034,23.177480697631836 99.60871934890747,23.2342928647995 99.60871934890747,23.2342928647995 99.57069754600525,23.333963751792908 99.57069754600525,23.333963751792908 99.54606890678406,23.52105975151062 99.54606890678406,23.52105975151062 99.53225255012512,23.76447170972824 99.53225255012512,23.76447170972824 99.52670335769653,24.03329759836197 99.52670335769653,24.03329759836197 99.52691793441772,24.296429753303528 99.52691793441772,24.296429753303528 99.53011870384216,24.522681534290314 99.53011870384216,24.522681534290314 99.53396320343018,24.681301414966583 99.53396320343018,24.681301414966583 99.53581690788269,24.74103271961212 99.53581690788269,24.74103271961212 99.53410625457764,24.786880612373352 99.53410625457764,24.786880612373352 99.52677488327026,24.91225302219391 99.52677488327026,24.91225302219391 99.510258436203,25.098565220832825 99.510258436203,25.098565220832825 99.48127865791321,25.32724142074585 99.48127865791321,25.32724142074585 99.43628907203674,25.57990550994873 99.43628907203674,25.57990550994873 99.37192797660828,25.837841629981995 99.37192797660828,25.837841629981995 99.28485751152039,26.08281672000885 99.28485751152039,26.08281672000885 99.17144775390625,26.296183466911316 99.17144775390625,26.296183466911316 99.01944994926453,26.503214240074158 99.01944994926453,26.503214240074158 98.83043169975281,26.73174738883972 98.83043169975281,26.73174738883972 98.62204790115356,26.96647047996521 98.62204790115356,26.96647047996521 98.41195344924927,27.19229757785797 98.41195344924927,27.19229757785797 98.21780920028687,27.39427387714386 98.21780920028687,27.39427387714386 98.05734157562256,27.557235956192017 98.05734157562256,27.557235956192017 97.94812798500061,27.666017413139343 97.94812798500061,27.666017413139343 97.90776371955872,27.70567238330841 97.90776371955872,27.70567238330841 96.03665471076965,27.730020880699158 96.03665471076965,27.730020880699158 96.0275411605835,27.71022915840149 96.0275411605835,27.71022915840149 95.99977731704712,27.658259868621826 95.99977731704712,27.658259868621826 95.95328569412231,27.585214376449585 95.95328569412231,27.585214376449585 95.88778614997864,27.5022029876709 95.88778614997864,27.5022029876709 95.80278396606445,27.420401573181152 95.80278396606445,27.420401573181152 95.6982672214508,27.35070288181305 95.6982672214508,27.35070288181305 95.57382464408875,27.304425835609436 95.57382464408875,27.304425835609436 95.42908668518066,27.292609214782715 95.42908668518066,27.292609214782715 95.01082301139832,27.343440055847168 95.01082301139832,27.343440055847168 94.16504502296448,27.46226191520691 94.16504502296448,27.46226191520691 93.04082989692688,27.626222372055054 93.04082989692688,27.626222372055054 91.78696870803833,27.811965346336365 91.78696870803833,27.811965346336365 90.55254459381104,27.996712923049927 90.55254459381104,27.996712923049927 89.4863486289978,28.157183527946472 89.4863486289978,28.157183527946472 88.73739242553711,28.270381689071655 88.73739242553711,28.270381689071655 88.45468163490295,28.3132404088974 88.45468163490295,28.3132404088974 86.97100877761841,27.818727493286133 86.97100877761841,27.818727493286133 87.03807592391968,27.553462982177734 87.03807592391968,27.553462982177734 87.09688186645508,27.28513479232788 87.09688186645508,27.28513479232788 87.1470034122467,27.013671398162842 87.1470034122467,27.013671398162842 87.18864917755127,26.739364862442017 87.18864917755127,26.739364862442017 87.22125887870789,26.46234929561615 87.22125887870789,26.46234929561615 87.2448205947876,26.18255913257599 87.2448205947876,26.18255913257599 87.25913166999817,25.900349020957947 87.25913166999817,25.900349020957947 87.2639000415802,25.615715980529785 87.2639000415802,25.615715980529785 87.0917558670044,23.91347885131836 87.0917558670044,23.91347885131836 86.59824132919312,22.32707440853119 86.59824132919312,22.32707440853119 85.81767678260803,20.890744030475616 85.81767678260803,20.890744030475616 84.78423357009888,19.63866353034973 84.78423357009888,19.63866353034973 83.53214859962463,18.605147302150726 83.53214859962463,18.605147302150726 82.09581971168518,17.824509739875793 82.09581971168518,17.824509739875793 80.50941824913025,17.330925166606903 80.50941824913025,17.330925166606903 78.80724668502808,17.15892255306244 78.80724668502808,17.15892255306244 77.10508108139038,17.330996692180634 77.10508108139038,17.330996692180634 75.51867961883545,17.824581265449524 75.51867961883545,17.824581265449524 74.082350730896,18.605075776576996 74.082350730896,18.605075776576996 72.83026576042175,19.63866353034973 72.83026576042175,19.63866353034973 71.7968225479126,20.890744030475616 71.7968225479126,20.890744030475616 71.01618647575378,22.32707440853119 71.01618647575378,22.32707440853119 70.52274346351624,23.91347885131836 70.52274346351624,23.91347885131836 70.35059928894043,25.615715980529785 70.35059928894043,25.615715980529785 70.3608512878418,26.032626628875732 70.3608512878418,26.032626628875732 70.39117813110352,26.444196701049805 70.39117813110352,26.444196701049805 70.44115662574768,26.85006856918335 70.44115662574768,26.85006856918335 70.51014304161072,27.24989354610443 70.51014304161072,27.24989354610443 70.59770822525024,27.64316499233246 70.59770822525024,27.64316499233246 70.70329189300537,28.029319643974304 70.70329189300537,28.029319643974304 70.82645297050476,28.407925367355347 70.82645297050476,28.407925367355347 70.96656560897827,28.778845071792603 70.96656560897827,28.778845071792603 69.62171792984009,29.479673504829407 69.62171792984009,29.479673504829407 68.71798634529114,29.489997029304504 68.71798634529114,29.489997029304504 66.25568866729736,29.516908526420593 66.25568866729736,29.516908526420593 62.608158588409424,29.55400049686432 62.608158588409424,29.55400049686432 58.148735761642456,29.595008492469788 58.148735761642456,29.595008492469788 53.250837326049805,29.63387966156006 53.250837326049805,29.63387966156006 48.2875794172287,29.664134979248047 48.2875794172287,29.664134979248047 43.632590770721436,29.679584503173828 43.632590770721436,29.679584503173828 39.65892493724823,29.674032330513 39.65892493724823,29.674032330513 36.28157377243042,29.658013582229614 36.28157377243042,29.658013582229614 33.19832682609558,29.6459823846817 33.19832682609558,29.6459823846817 30.457445979118347,29.63729500770569 30.457445979118347,29.63729500770569 28.106990456581116,29.6315997838974 28.106990456581116,29.6315997838974 26.195088028907776,29.62811291217804 26.195088028907776,29.62811291217804 24.769794940948486,29.626190662384033 24.769794940948486,29.626190662384033 23.87944906949997,29.625621438026428 23.87944906949997,29.625621438026428 23.571892082691193,29.625478386878967 23.571892082691193,29.625478386878967 22.71614670753479,28.769731521606445 22.71614670753479,28.769731521606445 22.855472564697266,28.399953246116638 22.855472564697266,28.399953246116638 22.977924346923828,28.022199869155884 22.977924346923828,28.022199869155884 23.08293581008911,27.637043595314026 23.08293581008911,27.637043595314026 23.170076310634613,27.2449791431427 23.170076310634613,27.2449791431427 23.238706588745117,26.846367120742798 23.238706588745117,26.846367120742798 23.28840047121048,26.441562175750732 23.28840047121048,26.441562175750732 23.318514227867126,26.03127360343933 23.318514227867126,26.03127360343933 23.328694701194763,25.615715980529785 23.328694701194763,25.615715980529785 23.156549036502838,23.91347885131836 23.156549036502838,23.91347885131836 22.663035988807678,22.32707440853119 22.663035988807678,22.32707440853119 21.882469952106476,20.890744030475616 21.882469952106476,20.890744030475616 20.8490252494812,19.63866353034973 20.8490252494812,19.63866353034973 19.596944749355316,18.605147302150726 19.596944749355316,18.605147302150726 18.160614371299744,17.824509739875793 18.160614371299744,17.824509739875793 16.574209928512573,17.330925166606903 16.574209928512573,17.330925166606903 14.872042834758759,17.15892255306244 14.872042834758759,17.15892255306244 13.169877231121063,17.330996692180634 13.169877231121063,17.330996692180634 11.583472043275833,17.824581265449524 11.583472043275833,17.824581265449524 10.14707088470459,18.605075776576996 10.14707088470459,18.605075776576996 8.895061910152435,19.63866353034973 8.895061910152435,19.63866353034973 7.861616462469101,20.890744030475616 7.861616462469101,20.890744030475616 7.081050425767899,22.32707440853119 7.081050425767899,22.32707440853119 6.587537378072739,23.91347885131836 6.587537378072739,23.91347885131836 6.415390968322754,25.615715980529785 6.415390968322754,25.615715980529785 6.4299143850803375,26.112717390060425 6.4299143850803375,26.112717390060425 6.472773104906082,26.6021728515625 6.472773104906082,26.6021728515625 6.543254852294922,27.083298563957214 6.543254852294922,27.083298563957214 6.6405050456523895,27.55538523197174 6.6405050456523895,27.55538523197174 6.763669848442078,28.017500042915344 6.763669848442078,28.017500042915344 6.911894679069519,28.469082713127136 6.911894679069519,28.469082713127136 7.0844680070877075,28.90905737876892 7.0844680070877075,28.90905737876892 7.280392944812775,29.33686077594757 7.280392944812775,29.33686077594757 6.415533274412155,29.139509797096252 6.415533274412155,29.139509797096252 6.4049966633319855,29.14976179599762 6.4049966633319855,29.14976179599762 6.371820718050003,29.17695939540863 6.371820718050003,29.17695939540863 6.314296275377274,29.215261340141296 6.314296275377274,29.215261340141296 6.230145692825317,29.259473085403442 6.230145692825317,29.259473085403442 6.1176598072052,29.30375337600708 6.1176598072052,29.30375337600708 5.974632129073143,29.342767596244812 5.974632129073143,29.342767596244812 5.79914003610611,29.37081754207611 5.79914003610611,29.37081754207611 5.5892616510391235,29.38242256641388 5.5892616510391235,29.38242256641388 5.1886554807424545,29.376301169395447 5.1886554807424545,29.376301169395447 4.480208829045296,29.35779094696045 4.480208829045296,29.35779094696045 3.5751964896917343,29.33087944984436 3.5751964896917343,29.33087944984436 2.585037052631378,29.299840331077576 2.585037052631378,29.299840331077576 1.62107665091753,29.26851511001587 1.62107665091753,29.26851511001587 0.7946621626615524,29.241102933883667 0.7946621626615524,29.241102933883667 0.21728265564888716,29.221811890602112 0.21728265564888716,29.221811890602112 0.0,29.21440601348877 0.0,29.21440601348877 0.6287812255322933,28.704091906547546 0.6287812255322933,28.704091906547546 0.642663985490799,28.527387976646423 0.642663985490799,28.527387976646423 0.6783319171518087,28.06064486503601 0.6783319171518087,28.06064486503601 0.7268859073519707,27.39911377429962 0.7268859073519707,27.39911377429962 0.7794267497956753,26.637771725654602 0.7794267497956753,26.637771725654602 0.8270552381873131,25.871798396110535 0.8270552381873131,25.871798396110535 0.8606585673987865,25.196528434753418 0.8606585673987865,25.196528434753418 0.8714799769222736,24.70678836107254 0.8714799769222736,24.70678836107254 0.8506203070282936,24.497978389263153 0.8506203070282936,24.497978389263153 0.7918856106698513,24.444155395030975 0.7918856106698513,24.444155395030975 0.7351443637162447,24.392469227313995 0.7351443637162447,24.392469227313995 0.6806101184338331,24.341636896133423 0.6806101184338331,24.341636896133423 0.6286388728767633,24.291232228279114 0.6286388728767633,24.291232228279114 0.5793729331344366,24.239972233772278 0.5793729331344366,24.239972233772278 0.5330971442162991,24.187004566192627 0.5330971442162991,24.187004566192627 0.49016745761036873,24.131545424461365 0.49016745761036873,24.131545424461365 0.45065502636134624,24.072524905204773 0.45065502636134624,24.072524905204773 0.41541424579918385,24.01008903980255 0.41541424579918385,24.01008903980255 0.3840890945866704,23.942384123802185 0.3840890945866704,23.942384123802185 0.3568931482732296,23.86876940727234 0.3568931482732296,23.86876940727234 0.3341112285852432,23.788321018218994 0.3341112285852432,23.788321018218994 0.3159568877890706,23.700112104415894 0.3159568877890706,23.700112104415894 0.30264370143413544,23.60314577817917 0.30264370143413544,23.60314577817917 0.29452762100845575,23.496854305267334 0.29452762100845575,23.496854305267334 0.2917510690167546,23.38009774684906 0.2917510690167546,23.38009774684906 0.29039839282631874,23.10265600681305 0.29039839282631874,23.10265600681305 0.2877642400562763,22.777800261974335 0.2877642400562763,22.777800261974335 0.2859132131561637,22.428524494171143 0.2859132131561637,22.428524494171143 0.28712349012494087,22.077754139900208 0.28712349012494087,22.077754139900208 0.2934597199782729,21.748626232147217 0.2934597199782729,21.748626232147217 0.30705768149346113,21.463923156261444 0.30705768149346113,21.463923156261444 0.33005320001393557,21.246854960918427 0.33005320001393557,21.246854960918427 0.3646532539278269,21.12027257680893 0.3646532539278269,21.12027257680893 0.40950519032776356,21.05804830789566 0.40950519032776356,21.05804830789566 0.463612237945199,21.013909578323364 0.463612237945199,21.013909578323364 0.5293950904160738,20.980162918567657 0.5293950904160738,20.980162918567657 0.6091318093240261,20.949336886405945 0.6091318093240261,20.949336886405945 0.7055278867483139,20.914238691329956 0.7055278867483139,20.914238691329956 0.8207189850509167,20.867036283016205 0.8207189850509167,20.867036283016205 0.9574105963110924,20.800471305847168 0.9574105963110924,20.800471305847168 1.117880828678608,20.707064867019653 1.117880828678608,20.707064867019653 1.288033276796341,20.591874420642853 1.288033276796341,20.591874420642853 1.4493578113615513,20.45980989933014 1.4493578113615513,20.45980989933014 1.5975827351212502,20.302686095237732 1.5975827351212502,20.302686095237732 1.7284365370869637,20.112456381320953 1.7284365370869637,20.112456381320953 1.837647333741188,19.881291687488556 1.837647333741188,19.881291687488556 1.920943707227707,19.6007177233696 1.920943707227707,19.6007177233696 1.9740542396903038,19.263188540935516 1.9740542396903038,19.263188540935516 1.9927069544792175,18.860304355621338 1.9927069544792175,18.860304355621338 1.9807463511824608,18.414561450481415 1.9807463511824608,18.414561450481415 1.9604561850428581,17.95927882194519 1.9604561850428581,17.95927882194519 1.9555438309907913,17.50236004590988 1.9555438309907913,17.50236004590988 1.9897880032658577,17.05220341682434 1.9897880032658577,17.05220341682434 2.086539939045906,16.616925597190857 2.086539939045906,16.616925597190857 2.2696496918797493,16.20471477508545 2.2696496918797493,16.20471477508545 2.5626109912991524,15.823829174041748 2.5626109912991524,15.823829174041748 2.989131398499012,15.482456982135773 2.989131398499012,15.482456982135773 3.62994447350502,15.120081603527069 3.62994447350502,15.120081603527069 4.543571174144745,14.685943722724915 4.543571174144745,14.685943722724915 5.720328912138939,14.202539622783661 5.720328912138939,14.202539622783661 7.15053528547287,13.692580163478851 7.15053528547287,13.692580163478851 8.824509382247925,13.178491592407227 8.824509382247925,13.178491592407227 10.732566565275192,12.682841718196869 10.732566565275192,12.682841718196869 12.86509782075882,12.22827136516571 12.86509782075882,12.22827136516571 15.212348103523254,11.837348341941833 15.212348103523254,11.837348341941833 17.652007937431335,11.503379046916962 17.652007937431335,11.503379046916962 20.01677304506302,11.206359416246414 20.01677304506302,11.206359416246414 22.229395806789398,10.94856783747673 22.229395806789398,10.94856783747673 24.212776124477386,10.73235347867012 24.212776124477386,10.73235347867012 25.889810919761658,10.560136288404465 25.889810919761658,10.560136288404465 27.183184027671814,10.434123873710632 27.183184027671814,10.434123873710632 28.01586389541626,10.356878489255905 28.01586389541626,10.356878489255905 28.310534358024597,10.330608487129211 28.310534358024597,10.330608487129211 28.311246633529663,10.358516126871109 28.311246633529663,10.358516126871109 28.316229581832886,10.431133210659027 28.316229581832886,10.431133210659027 28.32975685596466,10.531800985336304 28.32975685596466,10.531800985336304 28.356099128723145,10.643503814935684 28.356099128723145,10.643503814935684 28.399527072906494,10.749439895153046 28.399527072906494,10.749439895153046 28.464311361312866,10.832949727773666 28.464311361312866,10.832949727773666 28.554800152778625,10.877160727977753 28.554800152778625,10.877160727977753 28.67504358291626,10.865271836519241 28.67504358291626,10.865271836519241 29.04055118560791,10.666713118553162 29.04055118560791,10.666713118553162 29.8080176115036,10.201605409383774 29.8080176115036,10.201605409383774 30.894574522972107,9.529111534357071 30.894574522972107,9.529111534357071 32.21685290336609,8.70867744088173 32.21685290336609,8.70867744088173 33.69183838367462,7.799322158098221 33.69183838367462,7.799322158098221 35.236239433288574,6.860208511352539 35.236239433288574,6.860208511352539 36.76704466342926,5.950924754142761 36.76704466342926,5.950924754142761 38.2008820772171,5.130347982048988 38.2008820772171,5.130347982048988 39.497172832489014,4.387941956520081 39.497172832489014,4.387941956520081 40.72932004928589,3.6797799170017242 40.72932004928589,3.6797799170017242 41.98595583438873,3.014974668622017 41.98595583438873,3.014974668622017 43.35564970970154,2.4024968966841698 43.35564970970154,2.4024968966841698 44.92696225643158,1.8515301868319511 44.92696225643158,1.8515301868319511 46.78845703601837,1.3712585903704166 46.78845703601837,1.3712585903704166 49.028775095939636,0.9706526063382626 49.028775095939636,0.9706526063382626 51.73633694648743,0.6589672993868589 51.73633694648743,0.6589672993868589 54.494160413742065,0.4421830177307129 54.494160413742065,0.4421830177307129 57.03926086425781,0.2974465722218156 57.03926086425781,0.2974465722218156 59.37703847885132,0.21842175628989935 59.37703847885132,0.21842175628989935 61.513346433639526,0.19862994085997343 61.513346433639526,0.19862994085997343 63.45372200012207,0.2318061189725995 63.45372200012207,0.2318061189725995 65.20387530326843,0.3114716848358512 65.20387530326843,0.3114716848358512 66.769278049469,0.4312192089855671 66.769278049469,0.4312192089855671 68.15584301948547,0.5846412386745214 68.15584301948547,0.5846412386745214 68.41235160827637,0.5018431693315506 68.41235160827637,0.5018431693315506 68.73592734336853,0.4030977375805378 68.73592734336853,0.4030977375805378 69.10734176635742,0.2980160992592573 69.10734176635742,0.2980160992592573 69.50724124908447,0.19592458847910166 69.50724124908447,0.19592458847910166 69.91638541221619,0.10650551412254572 69.91638541221619,0.10650551412254572 70.31556963920593,0.039156441926024854 70.31556963920593,0.039156441926024854 70.68535089492798,0.0033460957638453692 70.68535089492798,0.0033460957638453692 71.00657224655151,0.00868561037350446 71.00657224655151,0.00868561037350446 71.30686640739441,0.04584863199852407 71.30686640739441,0.04584863199852407 71.49560451507568,0.08699849131517112 71.49560451507568,0.08699849131517112 71.5977668762207,0.13597963843494654 71.5977668762207,0.13597963843494654 71.63834571838379,0.19706368912011385 71.63834571838379,0.19706368912011385 71.64247632026672,0.27409507893025875 71.64247632026672,0.27409507893025875 71.6352105140686,0.3710606601089239 71.6352105140686,0.3710606601089239 71.64168953895569,0.491876108571887 71.64168953895569,0.491876108571887 71.68689966201782,0.6405993830412626 71.68689966201782,0.6405993830412626 71.72157168388367,0.722756702452898 71.72157168388367,0.722756702452898 71.75054550170898,0.7999304682016373 71.75054550170898,0.7999304682016373 71.77446484565735,0.8721207268536091 71.77446484565735,0.8721207268536091 71.79368734359741,0.9390426799654961 71.79368734359741,0.9390426799654961 71.80871367454529,1.0009097866714 71.80871367454529,1.0009097866714 71.8199610710144,1.0575086809694767 71.8199610710144,1.0575086809694767 71.82814478874207,1.1086967773735523 71.82814478874207,1.1086967773735523 71.83341383934021,1.1547590605914593 71.83341383934021,1.1547590605914593 72.15912938117981,1.2175517156720161 72.15912938117981,1.2175517156720161 72.4820613861084,1.2831921689212322 72.4820613861084,1.2831921689212322 72.80243039131165,1.3518938794732094 72.80243039131165,1.3518938794732094 73.1205940246582,1.4240129850804806 73.1205940246582,1.4240129850804806 73.4366238117218,1.499976497143507 73.4366238117218,1.499976497143507 73.75108599662781,1.580069214105606 73.75108599662781,1.580069214105606 74.06412363052368,1.6647182404994965 74.06412363052368,1.6647182404994965 74.37587976455688,1.7540661618113518 74.37587976455688,1.7540661618113518 74.6663510799408,1.7673080787062645 74.6663510799408,1.7673080787062645 74.98757243156433,1.7837539315223694 74.98757243156433,1.7837539315223694 75.32239556312561,1.8036168068647385 75.32239556312561,1.8036168068647385 75.65337419509888,1.826825924217701 75.65337419509888,1.826825924217701 75.96349716186523,1.8532387912273407 75.96349716186523,1.8532387912273407 76.23531222343445,1.8831400200724602 76.23531222343445,1.8831400200724602 76.4518141746521,1.9163161516189575 76.4518141746521,1.9163161516189575 76.59569382667542,1.9528385251760483 76.59569382667542,1.9528385251760483 76.66382789611816,1.9947003573179245 76.66382789611816,1.9947003573179245 76.6685962677002,2.0413320511579514 76.6685962677002,2.0413320511579514 76.62345767021179,2.091808244585991 76.62345767021179,2.091808244585991 76.54208540916443,2.144705131649971 76.54208540916443,2.144705131649971 76.43799781799316,2.199452929198742 76.43799781799316,2.199452929198742 76.32465958595276,2.2548414766788483 76.32465958595276,2.2548414766788483 76.21558904647827,2.3097315803170204 76.21558904647827,2.3097315803170204 76.12453699111938,2.3631980642676353 76.12453699111938,2.3631980642676353 76.30935311317444,2.4388767778873444 76.30935311317444,2.4388767778873444 76.49452686309814,2.5168336927890778 76.49452686309814,2.5168336927890778 76.68012976646423,2.597353421151638 76.68012976646423,2.597353421151638 76.86615586280823,2.6803651824593544 76.86615586280823,2.6803651824593544 77.05275416374207,2.7660109102725983 77.05275416374207,2.7660109102725983 77.23999619483948,2.8546469286084175 77.23999619483948,2.8546469286084175 77.42787599563599,2.9460594058036804 77.42787599563599,2.9460594058036804 77.61660814285278,3.0405331403017044 77.61660814285278,3.0405331403017044 78.92201542854309,3.7205737084150314 78.92201542854309,3.7205737084150314 80.51902651786804,4.576035216450691 80.51902651786804,4.576035216450691 82.26411938667297,5.524902418255806 82.26411938667297,5.524902418255806 84.01377201080322,6.485161185264587 84.01377201080322,6.485161185264587 85.62445640563965,7.374866306781769 85.62445640563965,7.374866306781769 86.95264458656311,8.11179056763649 86.95264458656311,8.11179056763649 87.85473704338074,8.614061027765274 87.85473704338074,8.614061027765274 88.18742632865906,8.799804747104645 88.18742632865906,8.799804747104645 88.24537396430969,8.801300078630447 88.24537396430969,8.801300078630447 88.42321634292603,8.807351440191269 88.42321634292603,8.807351440191269 88.72692584991455,8.82030874490738 88.72692584991455,8.82030874490738 89.1624927520752,8.842307329177856 89.1624927520752,8.842307329177856 89.73581194877625,8.87569710612297 89.73581194877625,8.87569710612297 90.45308828353882,8.92275646328926 90.45308828353882,8.92275646328926 91.32000803947449,8.985762298107147 91.32000803947449,8.985762298107147 92.3428475856781,9.067065268754959 92.3428475856781,9.067065268754959 93.36981177330017,9.143099933862686 93.36981177330017,9.143099933862686 94.24784183502197,9.192366153001785 94.24784183502197,9.192366153001785 94.98056769371033,9.21998918056488 94.98056769371033,9.21998918056488 95.5718994140625,9.231095016002655 95.5718994140625,9.231095016002655 96.02519273757935,9.230881929397583 96.02519273757935,9.230881929397583 96.34456634521484,9.224260598421097 96.34456634521484,9.224260598421097 96.53337001800537,9.216571599245071 96.53337001800537,9.216571599245071 96.59551978111267,9.21286940574646 96.59551978111267,9.21286940574646 98.44228029251099,8.581098169088364 98.44228029251099,8.581098169088364 98.46762418746948,8.582807332277298 98.46762418746948,8.582807332277298 98.53113293647766,8.590638637542725 98.53113293647766,8.590638637542725 98.61400127410889,8.608009666204453 98.61400127410889,8.608009666204453 98.69744181632996,8.638764917850494 98.69744181632996,8.638764917850494 98.76258373260498,8.686678111553192 98.76258373260498,8.686678111553192 98.79077672958374,8.755309134721756 98.79077672958374,8.755309134721756 98.76322150230408,8.848430216312408 98.76322150230408,8.848430216312408 98.66098761558533,8.969815075397491 98.66098761558533,8.969815075397491 98.51589798927307,9.11305621266365 98.51589798927307,9.11305621266365 98.37507605552673,9.268685430288315 98.37507605552673,9.268685430288315 98.24279546737671,9.43499356508255 98.24279546737671,9.43499356508255 98.12333583831787,9.610841423273087 98.12333583831787,9.610841423273087 98.02088737487793,9.79452058672905 98.02088737487793,9.79452058672905 97.93986678123474,9.984750300645828 97.93986678123474,9.984750300645828 97.88455367088318,10.180176049470901 97.88455367088318,10.180176049470901 97.85906672477722,10.379304736852646 97.85906672477722,10.379304736852646 97.8533685207367,10.67710742354393 97.8533685207367,10.67710742354393 97.85422086715698,11.144421249628067 97.85422086715698,11.144421249628067 97.86134362220764,11.743230372667313 97.86134362220764,11.743230372667313 97.87444472312927,12.435800582170486 97.87444472312927,12.435800582170486 97.89316654205322,13.184115290641785 97.89316654205322,13.184115290641785 97.91730046272278,13.950371742248535 97.91730046272278,13.950371742248535 97.94663190841675,14.696621894836426 97.94663190841675,14.696621894836426 97.9806661605835,15.385206043720245 97.9806661605835,15.385206043720245 98.01397919654846,15.975257754325867 98.01397919654846,15.975257754325867 98.04673194885254,16.46086871623993 98.04673194885254,16.46086871623993 98.08745384216309,16.85592234134674 98.08745384216309,16.85592234134674 98.14462065696716,17.17429906129837 98.14462065696716,17.17429906129837 98.22699427604675,17.430169880390167 98.22699427604675,17.430169880390167 98.3428955078125,17.63720065355301 98.3428955078125,17.63720065355301 98.50094318389893,17.809630930423737 98.50094318389893,17.809630930423737" stroke="white" stroke-width="0.1" /><polygon points="14.872042834758759,18.325498700141907 14.872042834758759,18.325498700141907 16.34126454591751,18.473653495311737 16.34126454591751,18.473653495311737 17.709675431251526,18.898393213748932 17.709675431251526,18.898393213748932 18.948087096214294,19.570530951023102 18.948087096214294,19.570530951023102 20.027025043964386,20.460735261440277 20.027025043964386,20.460735261440277 20.917227864265442,21.53967320919037 20.917227864265442,21.53967320919037 21.58936709165573,22.778013348579407 21.58936709165573,22.778013348579407 22.014178335666656,24.146495759487152 22.014178335666656,24.146495759487152 22.162260115146637,25.615715980529785 22.162260115146637,25.615715980529785 22.156423330307007,25.908249616622925 22.156423330307007,25.908249616622925 22.13912308216095,26.19779407978058 22.13912308216095,26.19779407978058 22.110573947429657,26.484134793281555 22.110573947429657,26.484134793281555 22.07106202840805,26.767200231552124 22.07106202840805,26.767200231552124 22.020798921585083,27.046707272529602 22.020798921585083,27.046707272529602 21.960070729255676,27.32236683368683 21.960070729255676,27.32236683368683 21.889090538024902,27.59397029876709 21.889090538024902,27.59397029876709 21.808144450187683,27.861586213111877 21.808144450187683,27.861586213111877 21.371157467365265,28.918668627738953 21.371157467365265,28.918668627738953 20.78074961900711,29.884621500968933 20.78074961900711,29.884621500968933 20.05222737789154,30.743858218193054 20.05222737789154,30.743858218193054 19.200824201107025,31.48135244846344 19.200824201107025,31.48135244846344 18.241775035858154,32.08158314228058 18.241775035858154,32.08158314228058 17.190532386302948,32.52932131290436 17.190532386302948,32.52932131290436 16.062185168266296,32.80925154685974 16.062185168266296,32.80925154685974 14.872042834758759,32.905933260917664 14.872042834758759,32.905933260917664 13.943181931972504,32.847341895103455 13.943181931972504,32.847341895103455 13.049417734146118,32.6761931180954 13.049417734146118,32.6761931180954 12.197943031787872,32.3998898267746 12.197943031787872,32.3998898267746 11.395876854658127,32.02534019947052 11.395876854658127,32.02534019947052 10.650409758090973,31.55987858772278 10.650409758090973,31.55987858772278 9.968731552362442,31.010618805885315 9.968731552362442,31.010618805885315 9.357962012290955,30.384615063667297 9.357962012290955,30.384615063667297 8.825292438268661,29.68926727771759 8.825292438268661,29.68926727771759 8.546498417854309,29.242172837257385 8.546498417854309,29.242172837257385 8.29988420009613,28.774288296699524 8.29988420009613,28.774288296699524 8.086872845888138,28.28710973262787 8.086872845888138,28.28710973262787 7.909173518419266,27.78213620185852 7.909173518419266,27.78213620185852 7.768281549215317,27.261069416999817 7.768281549215317,27.261069416999817 7.6656922698020935,26.725196838378906 7.6656922698020935,26.725196838378906 7.60304182767868,26.176294684410095 7.60304182767868,26.176294684410095 7.58182629942894,25.615715980529785 7.58182629942894,25.615715980529785 7.72990882396698,24.146567285060883 7.72990882396698,24.146567285060883 8.154720067977905,22.778013348579407 8.154720067977905,22.778013348579407 8.826858550310135,21.539601683616638 8.826858550310135,21.539601683616638 9.71706211566925,20.460735261440277 9.71706211566925,20.460735261440277 10.796000063419342,19.570530951023102 10.796000063419342,19.570530951023102 12.03441172838211,18.898393213748932 12.03441172838211,18.898393213748932 13.402822613716125,18.473581969738007 13.402822613716125,18.473581969738007" stroke="white" stroke-width="0.1" /><polygon points="78.80724668502808,18.325498700141907 78.80724668502808,18.325498700141907 80.27647137641907,18.473653495311737 80.27647137641907,18.473653495311737 81.64488077163696,18.898393213748932 81.64488077163696,18.898393213748932 82.88329243659973,19.570530951023102 82.88329243659973,19.570530951023102 83.96223187446594,20.460735261440277 83.96223187446594,20.460735261440277 84.85236167907715,21.53967320919037 84.85236167907715,21.53967320919037 85.52457094192505,22.778013348579407 85.52457094192505,22.778013348579407 85.94938516616821,24.146495759487152 85.94938516616821,24.146495759487152 86.0974669456482,25.615715980529785 86.0974669456482,25.615715980529785 86.09369397163391,25.85236430168152 86.09369397163391,25.85236430168152 86.08237504959106,26.087158918380737 86.08237504959106,26.087158918380737 86.0637903213501,26.319962739944458 86.0637903213501,26.319962739944458 86.03795170783997,26.55055820941925 86.03795170783997,26.55055820941925 86.0049843788147,26.779088377952576 86.0049843788147,26.779088377952576 85.96497774124146,27.005058526992798 85.96497774124146,27.005058526992798 85.918128490448,27.22867727279663 85.918128490448,27.22867727279663 85.86452007293701,27.449804544448853 85.86452007293701,27.449804544448853 85.46697497367859,28.585341572761536 85.46697497367859,28.585341572761536 84.8957896232605,29.626333713531494 84.8957896232605,29.626333713531494 84.16876196861267,30.55533766746521 84.16876196861267,30.55533766746521 83.30318927764893,31.354770064353943 83.30318927764893,31.354770064353943 82.31666088104248,32.007044553756714 82.31666088104248,32.007044553756714 81.22690320014954,32.494720816612244 81.22690320014954,32.494720816612244 80.05121350288391,32.800281047821045 80.05121350288391,32.800281047821045 78.80724668502808,32.905933260917664 78.80724668502808,32.905933260917664 77.6675820350647,32.81736969947815 77.6675820350647,32.81736969947815 76.58394575119019,32.56043195724487 76.58394575119019,32.56043195724487 75.56958198547363,32.1488618850708 75.56958198547363,32.1488618850708 74.63787198066711,31.595689058303833 74.63787198066711,31.595689058303833 73.80213141441345,30.91464936733246 73.80213141441345,30.91464936733246 73.07588458061218,30.119064450263977 73.07588458061218,30.119064450263977 72.47230410575867,29.222238063812256 72.47230410575867,29.222238063812256 72.00484871864319,28.237774968147278 72.00484871864319,28.237774968147278 71.8937873840332,27.929362654685974 71.8937873840332,27.929362654685974 71.79625034332275,27.614688873291016 71.79625034332275,27.614688873291016 71.71260118484497,27.29417383670807 71.71260118484497,27.29417383670807 71.64325714111328,26.968249678611755 71.64325714111328,26.968249678611755 71.58865332603455,26.637059450149536 71.58865332603455,26.637059450149536 71.54914140701294,26.300954818725586 71.54914140701294,26.300954818725586 71.52507901191711,25.960364937782288 71.52507901191711,25.960364937782288 71.51703238487244,25.615715980529785 71.51703238487244,25.615715980529785 71.66511416435242,24.146567285060883 71.66511416435242,24.146567285060883 72.08992838859558,22.778013348579407 72.08992838859558,22.778013348579407 72.76206612586975,21.539601683616638 72.76206612586975,21.539601683616638 73.65226745605469,20.460735261440277 73.65226745605469,20.460735261440277 74.7312068939209,19.570530951023102 74.7312068939209,19.570530951023102 75.96961855888367,18.898393213748932 75.96961855888367,18.898393213748932 77.33802795410156,18.473581969738007 77.33802795410156,18.473581969738007" stroke="white" stroke-width="0.1" /><polygon points="39.63457643985748,10.840781033039093 39.63457643985748,10.840781033039093 59.51266288757324,10.063204914331436 59.51266288757324,10.063204914331436 62.03989386558533,2.068314328789711 62.03989386558533,2.068314328789711 61.875224113464355,2.0559268072247505 61.875224113464355,2.0559268072247505 61.396658420562744,2.028018794953823 61.396658420562744,2.028018794953823 60.6276273727417,1.999114267528057 60.6276273727417,1.999114267528057 59.59147810935974,1.983238197863102 59.59147810935974,1.983238197863102 58.31162929534912,1.9947003573179245 58.31162929534912,1.9947003573179245 56.81129693984985,2.0478107035160065 56.81129693984985,2.0478107035160065 55.11397123336792,2.156665548682213 55.11397123336792,2.156665548682213 53.24293375015259,2.3355748504400253 53.24293375015259,2.3355748504400253 51.35573744773865,2.5736460462212563 51.35573744773865,2.5736460462212563 49.57241117954254,2.8679601848125458 49.57241117954254,2.8679601848125458 47.86034822463989,3.2454993575811386 47.86034822463989,3.2454993575811386 46.18673026561737,3.732890263199806 46.18673026561737,3.732890263199806 44.51880753040314,4.357044026255608 44.51880753040314,4.357044026255608 42.82369017601013,5.1445867866277695 42.82369017601013,5.1445867866277695 41.06898307800293,6.122501194477081 41.06898307800293,6.122501194477081 39.22151029109955,7.3172710835933685 39.22151029109955,7.3172710835933685 39.20072317123413,7.370665669441223 39.20072317123413,7.370665669441223 39.145904779434204,7.512056082487106 39.145904779434204,7.512056082487106 39.06901478767395,7.713249325752258 39.06901478767395,7.713249325752258 38.981518149375916,7.946052402257919 38.981518149375916,7.946052402257919 38.89515995979309,8.18227231502533 38.89515995979309,8.18227231502533 38.821616768836975,8.393716812133789 38.821616768836975,8.393716812133789 38.77256512641907,8.552193641662598 38.77256512641907,8.552193641662598 38.75975012779236,8.629509806632996 38.75975012779236,8.629509806632996 38.77213895320892,8.697713166475296 38.77213895320892,8.697713166475296 38.790151476860046,8.83340835571289 38.790151476860046,8.83340835571289 38.81278932094574,9.015236794948578 38.81278932094574,9.015236794948578 38.83877396583557,9.221839904785156 38.83877396583557,9.221839904785156 38.86711001396179,9.431861340999603 38.86711001396179,9.431861340999603 38.89651298522949,9.623941034078598 38.89651298522949,9.623941034078598 38.92598748207092,9.776722639799118 38.92598748207092,9.776722639799118 38.95425200462341,9.868846833705902 38.95425200462341,9.868846833705902 39.00444209575653,9.952498972415924 39.00444209575653,9.952498972415924 39.09129798412323,10.082142800092697 39.09129798412323,10.082142800092697 39.20157849788666,10.240477323532104 39.20157849788666,10.240477323532104 39.3217533826828,10.409490764141083 39.3217533826828,10.409490764141083 39.438509941101074,10.571669787168503 39.438509941101074,10.571669787168503 39.538463950157166,10.709428787231445 39.538463950157166,10.709428787231445 39.60837721824646,10.805042088031769 39.60837721824646,10.805042088031769" stroke="white" stroke-width="0.1" /><polygon points="63.386160135269165,2.1652087569236755 63.386160135269165,2.1652087569236755 61.03421449661255,9.989733248949051 61.03421449661255,9.989733248949051 61.58211827278137,9.970511496067047 61.58211827278137,9.970511496067047 63.03517818450928,9.919394552707672 63.03517818450928,9.919394552707672 65.10719656944275,9.84620749950409 65.10719656944275,9.84620749950409 67.5119698047638,9.760775417089462 67.5119698047638,9.760775417089462 69.96344923973083,9.673207253217697 69.96344923973083,9.673207253217697 72.17557430267334,9.593256562948227 72.17557430267334,9.593256562948227 73.8621473312378,9.530749171972275 73.8621473312378,9.530749171972275 74.73697066307068,9.495507925748825 74.73697066307068,9.495507925748825 75.09720921516418,9.448093175888062 75.09720921516418,9.448093175888062 75.43182373046875,9.345787763595581 75.43182373046875,9.345787763595581 75.74251294136047,9.194430708885193 75.74251294136047,9.194430708885193 76.03098750114441,8.999858796596527 76.03098750114441,8.999858796596527 76.29895806312561,8.76762568950653 76.29895806312561,8.76762568950653 76.54813528060913,8.503497391939163 76.54813528060913,8.503497391939163 76.78022980690002,8.213383704423904 76.78022980690002,8.213383704423904 76.99694037437439,7.9026952385902405 76.99694037437439,7.9026952385902405 77.09440588951111,7.5600408017635345 77.09440588951111,7.5600408017635345 76.97060108184814,7.170327752828598 76.97060108184814,7.170327752828598 76.62986516952515,6.73455148935318 76.62986516952515,6.73455148935318 76.0762631893158,6.253497302532196 76.0762631893158,6.253497302532196 75.31428337097168,5.728017911314964 75.31428337097168,5.728017911314964 74.34818744659424,5.158967897295952 74.34818744659424,5.158967897295952 73.18203449249268,4.5472729951143265 73.18203449249268,4.5472729951143265 71.82046175003052,3.8935739547014236 71.82046175003052,3.8935739547014236 70.3417718410492,3.303023800253868 70.3417718410492,3.303023800253868 68.86236667633057,2.8649698942899704 68.86236667633057,2.8649698942899704 67.44319796562195,2.55648847669363 67.44319796562195,2.55648847669363 66.1453366279602,2.3550819605588913 66.1453366279602,2.3550819605588913 65.02966284751892,2.2380396723747253 65.02966284751892,2.2380396723747253 64.15725946426392,2.182437665760517 64.15725946426392,2.182437665760517 63.58906030654907,2.1657783538103104 63.58906030654907,2.1657783538103104" stroke="white" stroke-width="0.1" /></svg>