<?xml version="1.0" encoding="utf-8" ?>
<svg baseProfile="full" height="32.24104642868042" version="1.1" width="99.9907374382019" xmlns="http://www.w3.org/2000/svg" xmlns:ev="http://www.w3.org/2001/xml-events" xmlns:xlink="http://www.w3.org/1999/xlink"><defs><clipPath /></defs><polygon points="99.08669590950012,23.13856929540634 99.08669590950012,23.13856929540634 99.03607368469238,23.174788057804108 99.03607368469238,23.174788057804108 99.02028441429138,23.273155093193054 99.02028441429138,23.273155093193054 99.03181791305542,23.41824769973755 99.03181791305542,23.41824769973755 99.06318187713623,23.594634234905243 99.06318187713623,23.594634234905243 99.1068959236145,23.786816000938416 99.1068959236145,23.786816000938416 99.15545582771301,23.979657888412476 99.15545582771301,23.979657888412476 99.2013692855835,24.157294631004333 99.2013692855835,24.157294631004333 99.23714995384216,24.30458962917328 99.23714995384216,24.30458962917328 99.2118775844574,24.459965527057648 99.2118775844574,24.459965527057648 99.09844994544983,24.6589794754982 99.09844994544983,24.6589794754982 98.92507195472717,24.881795048713684 98.92507195472717,24.881795048713684 98.7199604511261,25.10857880115509 98.7199604511261,25.10857880115509 98.5113263130188,25.31949281692505 98.5113263130188,25.31949281692505 98.32736849784851,25.494778156280518 98.32736849784851,25.494778156280518 98.19630980491638,25.614377856254578 98.19630980491638,25.614377856254578 98.14635515213013,25.658676028251648 98.14635515213013,25.658676028251648 98.19557666778564,25.670725107192993 98.19557666778564,25.670725107192993 98.32149147987366,25.705695152282715 98.32149147987366,25.705695152282715 98.49148988723755,25.761818885803223 98.49148988723755,25.761818885803223 98.67294430732727,25.83734095096588 98.67294430732727,25.83734095096588 98.8332450389862,25.93041956424713 98.8332450389862,25.93041956424713 98.9397644996643,26.039588451385498 98.9397644996643,26.039588451385498 98.95989298820496,26.162639260292053 98.95989298820496,26.162639260292053 98.86100888252258,26.298105716705322 98.86100888252258,26.298105716705322 98.63584637641907,26.443272829055786 98.63584637641907,26.443272829055786 98.31503033638,26.591962575912476 98.31503033638,26.591962575912476 97.92280197143555,26.7371267080307 97.92280197143555,26.7371267080307 97.4834144115448,26.871713995933533 97.4834144115448,26.871713995933533 97.02110886573792,26.988667249679565 97.02110886573792,26.988667249679565 96.56012058258057,27.081012725830078 96.56012058258057,27.081012725830078 96.12470269203186,27.141472697257996 96.12470269203186,27.141472697257996 95.73909044265747,27.163219451904297 95.73909044265747,27.163219451904297 93.74557137489319,27.163219451904297 93.74557137489319,27.163219451904297 93.69120597839355,27.18283236026764 93.69120597839355,27.18283236026764 93.53634715080261,27.23550796508789 93.53634715080261,27.23550796508789 93.29332709312439,27.311983704566956 93.29332709312439,27.311983704566956 92.97449588775635,27.403005957603455 92.97449588775635,27.403005957603455 92.59218573570251,27.49931514263153 92.59218573570251,27.49931514263153 92.15874671936035,27.591732144355774 92.15874671936035,27.591732144355774 91.68652296066284,27.670779824256897 91.68652296066284,27.670779824256897 91.18785262107849,27.72742211818695 91.18785262107849,27.72742211818695 90.73119759559631,27.764669060707092 90.73119759559631,27.764669060707092 90.36975502967834,27.792656421661377 90.36975502967834,27.792656421661377 90.09294509887695,27.812713384628296 90.09294509887695,27.812713384628296 89.89018201828003,27.826157212257385 89.89018201828003,27.826157212257385 89.7508978843689,27.83423662185669 89.7508978843689,27.83423662185669 89.66450095176697,27.8385728597641 89.66450095176697,27.8385728597641 89.62042331695557,27.840042114257812 89.62042331695557,27.840042114257812 89.60807919502258,27.84026265144348 89.60807919502258,27.84026265144348 88.62425088882446,27.536121010780334 88.62425088882446,27.536121010780334 88.73136043548584,27.201491594314575 88.73136043548584,27.201491594314575 88.82532119750977,26.8612802028656 88.82532119750977,26.8612802028656 88.90584111213684,26.51578187942505 88.90584111213684,26.51578187942505 88.97254467010498,26.16521120071411 88.97254467010498,26.16521120071411 89.02507424354553,25.809937715530396 89.02507424354553,25.809937715530396 89.0629768371582,25.45011341571808 89.0629768371582,25.45011341571808 89.08604979515076,25.08617341518402 89.08604979515076,25.08617341518402 89.09383416175842,24.71833825111389 89.09383416175842,24.71833825111389 88.91627192497253,22.96188920736313 88.91627192497253,22.96188920736313 88.40694427490234,21.324892342090607 88.40694427490234,21.324892342090607 87.60148882865906,19.842757284641266 87.60148882865906,19.842757284641266 86.53508424758911,18.550820648670197 86.53508424758911,18.550820648670197 85.24314761161804,17.48434454202652 85.24314761161804,17.48434454202652 83.7610125541687,16.678886115550995 83.7610125541687,16.678886115550995 82.12401866912842,16.169559955596924 82.12401866912842,16.169559955596924 80.36749362945557,15.991997718811035 80.36749362945557,15.991997718811035 78.61111760139465,16.169559955596924 78.61111760139465,16.169559955596924 76.9741952419281,16.678811609745026 76.9741952419281,16.678811609745026 75.49206018447876,17.48441755771637 75.49206018447876,17.48441755771637 74.20012354850769,18.550820648670197 74.20012354850769,18.550820648670197 73.13379049301147,19.842684268951416 73.13379049301147,19.842684268951416 72.32833504676819,21.324965357780457 72.32833504676819,21.324965357780457 71.8190848827362,22.96196222305298 71.8190848827362,22.96196222305298 71.64144515991211,24.71833825111389 71.64144515991211,24.71833825111389 71.6518759727478,25.14611780643463 71.6518759727478,25.14611780643463 71.68288230895996,25.568610429763794 71.68288230895996,25.568610429763794 71.73393964767456,25.985297560691833 71.73393964767456,25.985297560691833 71.80439233779907,26.39574110507965 71.80439233779907,26.39574110507965 71.89387083053589,26.79942548274994 71.89387083053589,26.79942548274994 72.001713514328,27.19605565071106 72.001713514328,27.19605565071106 72.12755680084229,27.584975957870483 72.12755680084229,27.584975957870483 72.27059006690979,27.965885400772095 72.27059006690979,27.965885400772095 71.51597142219543,28.429588675498962 71.51597142219543,28.429588675498962 30.642396211624146,28.68025004863739 30.642396211624146,28.68025004863739 29.565709829330444,28.526416420936584 29.565709829330444,28.526416420936584 29.764357209205627,28.088203072547913 29.764357209205627,28.088203072547913 29.93920147418976,27.637574076652527 29.93920147418976,27.637574076652527 30.08936047554016,27.175265550613403 30.08936047554016,27.175265550613403 30.2141010761261,26.702305674552917 30.2141010761261,26.702305674552917 30.312544107437134,26.219281554222107 30.312544107437134,26.219281554222107 30.38387894630432,25.72714388370514 30.38387894630432,25.72714388370514 30.427294969558716,25.226488709449768 30.427294969558716,25.226488709449768 30.44198751449585,24.71833825111389 30.44198751449585,24.71833825111389 30.26435077190399,22.96188920736313 30.26435077190399,22.96188920736313 29.75510060787201,21.324892342090607 29.75510060787201,21.324892342090607 28.949642181396484,19.842757284641266 28.949642181396484,19.842757284641266 27.883166074752808,18.550820648670197 27.883166074752808,18.550820648670197 26.59115493297577,17.48434454202652 26.59115493297577,17.48434454202652 25.109019875526428,16.678886115550995 25.109019875526428,16.678886115550995 23.472023010253906,16.169559955596924 23.472023010253906,16.169559955596924 21.715646982192993,15.991997718811035 21.715646982192993,15.991997718811035 19.95912343263626,16.169559955596924 19.95912343263626,16.169559955596924 18.32212656736374,16.678811609745026 18.32212656736374,16.678811609745026 16.839991509914398,17.48441755771637 16.839991509914398,17.48441755771637 15.548054873943329,18.550820648670197 15.548054873943329,18.550820648670197 14.481578767299652,19.842684268951416 14.481578767299652,19.842684268951416 13.676120340824127,21.324965357780457 13.676120340824127,21.324965357780457 13.166941702365875,22.96196222305298 13.166941702365875,22.96196222305298 12.989306449890137,24.71833825111389 12.989306449890137,24.71833825111389 12.999150156974792,25.133410096168518 12.999150156974792,25.133410096168518 13.02831619977951,25.543412566184998 13.02831619977951,25.543412566184998 13.076360523700714,25.948050618171692 13.076360523700714,25.948050618171692 13.142846524715424,26.34681463241577 13.142846524715424,26.34681463241577 13.227109611034393,26.73933207988739 13.227109611034393,26.73933207988739 13.328856229782104,27.12523639202118 13.328856229782104,27.12523639202118 13.447500765323639,27.50401794910431 13.447500765323639,27.50401794910431 13.58260065317154,27.875378727912903 13.58260065317154,27.875378727912903 12.437444925308228,28.12853455543518 12.437444925308228,28.12853455543518 0.0,27.225956320762634 0.0,27.225956320762634 0.03445458714850247,27.212366461753845 0.03445458714850247,27.212366461753845 0.12540294555947185,27.17342972755432 0.12540294555947185,27.17342972755432 0.25389138609170914,27.112162113189697 0.25389138609170914,27.112162113189697 0.40126005187630653,27.03157067298889 0.40126005187630653,27.03157067298889 0.5486287176609039,26.93445086479187 0.5486287176609039,26.93445086479187 0.677117146551609,26.82381570339203 0.677117146551609,26.82381570339203 0.7679920177906752,26.702672243118286 0.7679920177906752,26.702672243118286 0.8025201037526131,26.573890447616577 0.8025201037526131,26.573890447616577 0.7704163435846567,26.448413729667664 0.7704163435846567,26.448413729667664 0.6865205243229866,26.3316810131073 0.6865205243229866,26.3316810131073 0.5697128362953663,26.21854543685913 0.5697128362953663,26.21854543685913 0.43880012817680836,26.10372006893158 0.43880012817680836,26.10372006893158 0.3126625204458833,25.98177194595337 0.3126625204458833,25.98177194595337 0.20995994564145803,25.847405195236206 0.20995994564145803,25.847405195236206 0.149572582449764,25.69555640220642 0.149572582449764,25.69555640220642 0.15045414911583066,25.52071213722229 0.15045414911583066,25.52071213722229 0.19218166125938296,25.361663103103638 0.19218166125938296,25.361663103103638 0.23971283808350563,25.254258513450623 0.23971283808350563,25.254258513450623 0.28974178712815046,25.189316272735596 0.28974178712815046,25.189316272735596 0.33852183260023594,25.1571387052536 0.33852183260023594,25.1571387052536 0.38252673111855984,25.14854371547699 0.38252673111855984,25.14854371547699 0.41845059022307396,25.154054164886475 0.41845059022307396,25.154054164886475 0.4425467923283577,25.1642644405365 0.4425467923283577,25.1642644405365 0.45136245898902416,25.169700384140015 0.45136245898902416,25.169700384140015 0.45621106401085854,24.93836283683777 0.45621106401085854,24.93836283683777 0.47171195037662983,24.31553602218628 0.47171195037662983,24.31553602218628 0.4989670589566231,23.408402502536774 0.4989670589566231,23.408402502536774 0.539078377187252,22.32363373041153 0.539078377187252,22.32363373041153 0.5932947620749474,21.168413758277893 0.5932947620749474,21.168413758277893 0.6627916824072599,20.049631595611572 0.6627916824072599,20.049631595611572 0.7488913834095001,19.074250757694244 0.7488913834095001,19.074250757694244 0.8524755947291851,18.349161744117737 0.8524755947291851,18.349161744117737 1.0140961967408657,17.732946574687958 1.0140961967408657,17.732946574687958 1.2991363182663918,17.03033745288849 1.2991363182663918,17.03033745288849 1.7463847994804382,16.26785546541214 1.7463847994804382,16.26785546541214 2.3946305736899376,15.471726655960083 2.3946305736899376,15.471726655960083 3.2826628535985947,14.668618142604828 3.2826628535985947,14.668618142604828 4.44926992058754,13.884904980659485 4.44926992058754,13.884904980659485 5.933241546154022,13.147106766700745 5.933241546154022,13.147106766700745 7.773366570472717,12.481450289487839 7.773366570472717,12.481450289487839 10.102099925279617,11.876988410949707 10.102099925279617,11.876988410949707 12.871617078781128,11.313079297542572 12.871617078781128,11.313079297542572 15.850359201431274,10.802137851715088 15.850359201431274,10.802137851715088 18.8067689538002,10.35628542304039 18.8067689538002,10.35628542304039 21.509286761283875,9.988083690404892 21.509286761283875,9.988083690404892 23.72635453939438,9.709802269935608 23.72635453939438,9.709802269935608 25.2264142036438,9.533856064081192 25.2264142036438,9.533856064081192 25.77790915966034,9.47236716747284 25.77790915966034,9.47236716747284 27.783769369125366,9.923729300498962 27.783769369125366,9.923729300498962 28.00930142402649,9.772173315286636 28.00930142402649,9.772173315286636 28.64726483821869,9.350857883691788 28.64726483821869,9.350857883691788 29.640421271324158,8.709737658500671 29.640421271324158,8.709737658500671 30.930817127227783,7.898916304111481 30.930817127227783,7.898916304111481 32.46099650859833,6.967981159687042 32.46099650859833,6.967981159687042 34.17344093322754,5.967255309224129 34.17344093322754,5.967255309224129 36.01040840148926,4.946473985910416 36.01040840148926,4.946473985910416 37.914445996284485,3.9556659758090973 37.914445996284485,3.9556659758090973 39.8460328578949,3.0287712812423706 39.8460328578949,3.0287712812423706 41.82933866977692,2.182319760322571 41.82933866977692,2.182319760322571 43.90205144882202,1.4406278729438782 43.90205144882202,1.4406278729438782 46.101707220077515,0.8274978026747704 46.101707220077515,0.8274978026747704 48.465776443481445,0.3672462422400713 48.465776443481445,0.3672462422400713 51.03223919868469,0.08389581926167011 51.03223919868469,0.08389581926167011 53.8383424282074,0.0015427427570102736 53.8383424282074,0.0015427427570102736 56.9219172000885,0.14420971274375916 56.9219172000885,0.14420971274375916 60.22045016288757,0.48089493066072464 60.22045016288757,0.48089493066072464 63.60999941825867,0.957528967410326 63.60999941825867,0.957528967410326 67.03606843948364,1.5634596347808838 67.03606843948364,1.5634596347808838 70.4439103603363,2.2881079465150833 70.4439103603363,2.2881079465150833 73.77887964248657,3.120821714401245 73.77887964248657,3.120821714401245 76.98631286621094,4.051169008016586 76.98631286621094,4.051169008016586 80.01155853271484,5.068571120500565 80.01155853271484,5.068571120500565 82.80003070831299,6.162228807806969 82.80003070831299,6.162228807806969 85.09012460708618,7.133863121271133 85.09012460708618,7.133863121271133 86.7335855960846,7.825672626495361 86.7335855960846,7.825672626495361 87.84546256065369,8.287908136844635 87.84546256065369,8.287908136844635 88.54079842567444,8.571037650108337 88.54079842567444,8.571037650108337 88.93463611602783,8.72553288936615 88.93463611602783,8.72553288936615 89.14202451705933,8.801714330911636 89.14202451705933,8.801714330911636 89.2780065536499,8.849906921386719 89.2780065536499,8.849906921386719 89.45762515068054,8.92065241932869 89.45762515068054,8.92065241932869 89.75030779838562,9.031876921653748 89.75030779838562,9.031876921653748 90.1276171207428,9.161614626646042 90.1276171207428,9.161614626646042 90.55782556533813,9.300167113542557 90.55782556533813,9.300167113542557 91.00918769836426,9.437838941812515 91.00918769836426,9.437838941812515 91.44997000694275,9.564931690692902 91.44997000694275,9.564931690692902 91.84843897819519,9.67182144522667 91.84843897819519,9.67182144522667 92.17285513877869,9.748591482639313 92.17285513877869,9.748591482639313 92.39148497581482,9.785763919353485 92.39148497581482,9.785763919353485 92.60401725769043,9.812725335359573 92.60401725769043,9.812725335359573 92.90690422058105,9.860403835773468 92.90690422058105,9.860403835773468 93.26357245445251,9.921304881572723 93.26357245445251,9.921304881572723 93.6374306678772,9.987936913967133 93.6374306678772,9.987936913967133 93.99189352989197,10.05280539393425 93.99189352989197,10.05280539393425 94.29038166999817,10.108491033315659 94.29038166999817,10.108491033315659 94.49629783630371,10.147280246019363 94.49629783630371,10.147280246019363 94.57306861877441,10.161899775266647 94.57306861877441,10.161899775266647 94.64829564094543,10.50042137503624 94.64829564094543,10.50042137503624 94.7255790233612,10.533332824707031 94.7255790233612,10.533332824707031 94.93510127067566,10.629718005657196 94.93510127067566,10.629718005657196 95.24335265159607,10.78604906797409 95.24335265159607,10.78604906797409 95.61684131622314,10.99880039691925 95.61684131622314,10.99880039691925 96.02206945419312,11.264446377754211 96.02206945419312,11.264446377754211 96.42553329467773,11.57953292131424 96.42553329467773,11.57953292131424 96.79373502731323,11.940314620733261 96.79373502731323,11.940314620733261 97.09317684173584,12.343484908342361 97.09317684173584,12.343484908342361 97.32635021209717,12.75150328874588 97.32635021209717,12.75150328874588 97.51985669136047,13.125140964984894 97.51985669136047,13.125140964984894 97.67633080482483,13.45822662115097 97.67633080482483,13.45822662115097 97.79843091964722,13.744588196277618 97.79843091964722,13.744588196277618 97.88879156112671,13.977983593940735 97.88879156112671,13.977983593940735 97.95005917549133,14.152534306049347 97.95005917549133,14.152534306049347 97.98488020896912,14.261628687381744 97.98488020896912,14.261628687381744 97.99590110778809,14.299388229846954 97.99590110778809,14.299388229846954 96.3785171508789,14.637909829616547 96.3785171508789,14.637909829616547 98.48487377166748,18.47449094057083 98.48487377166748,18.47449094057083 98.50302338600159,18.462589383125305 98.50302338600159,18.462589383125305 98.55246543884277,18.435701727867126 98.55246543884277,18.435701727867126 98.62570762634277,18.407051265239716 98.62570762634277,18.407051265239716 98.71525764465332,18.389861285686493 98.71525764465332,18.389861285686493 98.81362915039062,18.39735358953476 98.81362915039062,18.39735358953476 98.91331791877747,18.442828953266144 98.91331791877747,18.442828953266144 99.00683760643005,18.53928714990616 99.00683760643005,18.53928714990616 99.08669590950012,18.700172007083893 99.08669590950012,18.700172007083893 99.1649329662323,18.898819386959076 99.1649329662323,18.898819386959076 99.25419092178345,19.09746527671814 99.25419092178345,19.09746527671814 99.34785962104797,19.29258555173874 99.34785962104797,19.29258555173874 99.43931698799133,19.48065310716629 99.43931698799133,19.48065310716629 99.52196478843689,19.65814232826233 99.52196478843689,19.65814232826233 99.58918690681458,19.82159912586212 99.58918690681458,19.82159912586212 99.63436722755432,19.967278838157654 99.63436722755432,19.967278838157654 99.65089559555054,20.09187340736389 99.65089559555054,20.09187340736389 99.66081380844116,20.26928812265396 99.66081380844116,20.26928812265396 99.68792200088501,20.552051067352295 99.68792200088501,20.552051067352295 99.72825646400452,20.904457569122314 99.72825646400452,20.904457569122314 99.77784156799316,21.29080444574356 99.77784156799316,21.29080444574356 99.83271956443787,21.675388514995575 99.83271956443787,21.675388514995575 99.88892078399658,22.022579610347748 99.88892078399658,22.022579610347748 99.94247555732727,22.296452522277832 99.94247555732727,22.296452522277832 99.98942017555237,22.461526095867157 99.98942017555237,22.461526095867157 99.9907374382019,22.566212713718414 99.9907374382019,22.566212713718414 99.92241859436035,22.67839163541794 99.92241859436035,22.67839163541794 99.80296492576599,22.791452705860138 99.80296492576599,22.791452705860138 99.65089559555054,22.898784279823303 99.65089559555054,22.898784279823303 99.48471784591675,22.993698716163635 99.48471784591675,22.993698716163635 99.32295083999634,23.06988090276718 99.32295083999634,23.06988090276718 99.18410778045654,23.120276629924774 99.18410778045654,23.120276629924774" stroke="white" stroke-width="0.1" /><polygon points="41.53798222541809,9.597696363925934 41.53798222541809,9.597696363925934 62.338268756866455,8.992206305265427 62.338268756866455,8.992206305265427 63.729965686798096,4.45140041410923 63.729965686798096,4.45140041410923 63.50927948951721,4.385870695114136 63.50927948951721,4.385870695114136 62.87425756454468,4.210806265473366 62.87425756454468,4.210806265473366 61.86545491218567,3.958824649453163 61.86545491218567,3.958824649453163 60.523414611816406,3.6621037870645523 60.523414611816406,3.6621037870645523 58.888691663742065,3.353334963321686 58.888691663742065,3.353334963321686 57.0018470287323,3.0646951869130135 57.0018470287323,3.0646951869130135 54.90342378616333,2.8289493173360825 54.90342378616333,2.8289493173360825 52.63397693634033,2.6782749220728874 52.63397693634033,2.6782749220728874 50.351595878601074,2.765476517379284 50.351595878601074,2.765476517379284 48.21908473968506,3.156745433807373 48.21908473968506,3.156745433807373 46.28404676914215,3.7546686828136444 46.28404676914215,3.7546686828136444 44.59408223628998,4.462126269936562 44.59408223628998,4.462126269936562 43.196797370910645,5.181852355599403 43.196797370910645,5.181852355599403 42.139798402786255,5.8162871748209 42.139798402786255,5.8162871748209 41.470688581466675,6.268310546875 41.470688581466675,6.268310546875 41.23707413673401,6.440657377243042 41.23707413673401,6.440657377243042 41.39847159385681,6.651425361633301 41.39847159385681,6.651425361633301 41.519761085510254,6.942783296108246 41.519761085510254,6.942783296108246 41.60667061805725,7.2898268699646 41.60667061805725,7.2898268699646 41.66492521762848,7.667872309684753 41.66492521762848,7.667872309684753 41.70026183128357,8.05194154381752 41.70026183128357,8.05194154381752 41.71840846538544,8.417204022407532 41.71840846538544,8.417204022407532 41.725093126297,8.73890295624733 41.725093126297,8.73890295624733 41.72604978084564,8.992206305265427 41.72604978084564,8.992206305265427 41.7179673910141,9.17961299419403 41.7179673910141,9.17961299419403 41.696661710739136,9.3238964676857 41.696661710739136,9.3238964676857 41.66654348373413,9.430859982967377 41.66654348373413,9.430859982967377 41.63201451301575,9.505792707204819 41.63201451301575,9.505792707204819 41.59748554229736,9.55427959561348 41.59748554229736,9.55427959561348 41.56736731529236,9.582195430994034 41.56736731529236,9.582195430994034 41.546061635017395,9.594684094190598 41.546061635017395,9.594684094190598" stroke="white" stroke-width="0.1" /><polygon points="62.71440386772156,9.078747034072876 62.71440386772156,9.078747034072876 74.14891719818115,8.732731640338898 74.14891719818115,8.732731640338898 74.07545447349548,8.679690957069397 74.07545447349548,8.679690957069397 73.85035753250122,8.527326583862305 73.85035753250122,8.527326583862305 73.46658706665039,8.285704255104065 73.46658706665039,8.285704255104065 72.91707396507263,7.965107262134552 72.91707396507263,7.965107262134552 72.19477891921997,7.57560133934021 72.19477891921997,7.57560133934021 71.29263877868652,7.1272507309913635 71.29263877868652,7.1272507309913635 70.20360827445984,6.6302672028541565 70.20360827445984,6.6302672028541565 68.92063617706299,6.094788759946823 68.92063617706299,6.094788759946823 67.65705347061157,5.6112490594387054 67.65705347061157,5.6112490594387054 66.6191577911377,5.251496285200119 66.6191577911377,5.251496285200119 65.78930616378784,4.997090622782707 65.78930616378784,4.997090622782707 65.1498794555664,4.829813167452812 65.1498794555664,4.829813167452812 64.68323469161987,4.731518402695656 64.68323469161987,4.731518402695656 64.37174677848816,4.683914035558701 64.37174677848816,4.683914035558701 64.1977846622467,4.668707028031349 64.1977846622467,4.668707028031349 64.14371728897095,4.667678475379944 64.14371728897095,4.667678475379944" stroke="white" stroke-width="0.1" /><polygon points="21.715646982192993,17.195631563663483 21.715646982192993,17.195631563663483 23.23172241449356,17.348510026931763 23.23172241449356,17.348510026931763 24.643772840499878,17.786794900894165 24.643772840499878,17.786794900894165 25.92160403728485,18.480442464351654 25.92160403728485,18.480442464351654 27.034950256347656,19.39896196126938 27.034950256347656,19.39896196126938 27.95354425907135,20.512233674526215 27.95354425907135,20.512233674526215 28.64719033241272,21.790139377117157 28.64719033241272,21.790139377117157 29.085475206375122,23.202262818813324 29.085475206375122,23.202262818813324 29.23835515975952,24.71833825111389 29.23835515975952,24.71833825111389 29.222634434700012,25.207829475402832 29.222634434700012,25.207829475402832 29.176130890846252,25.68901777267456 29.176130890846252,25.68901777267456 29.099875688552856,26.16080343723297 29.099875688552856,26.16080343723297 28.99474799633026,26.622304320335388 28.99474799633026,26.622304320335388 28.86185050010681,27.072638273239136 28.86185050010681,27.072638273239136 28.702068328857422,27.5106281042099 28.702068328857422,27.5106281042099 28.51642370223999,27.935543656349182 28.51642370223999,27.935543656349182 28.30595076084137,28.346428275108337 28.30595076084137,28.346428275108337 27.771499752998352,29.180318117141724 27.771499752998352,29.180318117141724 27.135154604911804,29.93435263633728 27.135154604911804,29.93435263633728 26.406466960906982,30.59890568256378 26.406466960906982,30.59890568256378 25.595131516456604,31.16435706615448 25.595131516456604,31.16435706615448 24.710771441459656,31.62086308002472 24.710771441459656,31.62086308002472 23.762939870357513,31.958943605422974 23.762939870357513,31.958943605422974 22.761332988739014,32.168903946876526 22.761332988739014,32.168903946876526 21.715646982192993,32.24104642868042 21.715646982192993,32.24104642868042 20.565421879291534,32.153624296188354 20.565421879291534,32.153624296188354 19.46992725133896,31.90009891986847 19.46992725133896,31.90009891986847 18.442167341709137,31.493255496025085 18.442167341709137,31.493255496025085 17.494995892047882,30.946096777915955 17.494995892047882,30.946096777915955 16.641345620155334,30.27147650718689 16.641345620155334,30.27147650718689 15.894217789173126,29.48254942893982 15.894217789173126,29.48254942893982 15.26632159948349,28.59187126159668 15.26632159948349,28.59187126159668 14.770659804344177,27.61267125606537 14.770659804344177,27.61267125606537 14.639085531234741,27.274590730667114 14.639085531234741,27.274590730667114 14.523527026176453,26.928794384002686 14.523527026176453,26.928794384002686 14.4244983792305,26.575875282287598 14.4244983792305,26.575875282287598 14.34236466884613,26.21612250804901 14.34236466884613,26.21612250804901 14.277717471122742,25.850051641464233 14.277717471122742,25.850051641464233 14.230920374393463,25.478103756904602 14.230920374393463,25.478103756904602 14.202488958835602,25.100716948509216 14.202488958835602,25.100716948509216 14.192938804626465,24.71833825111389 14.192938804626465,24.71833825111389 14.345744252204895,23.202262818813324 14.345744252204895,23.202262818813324 14.784103631973267,21.790139377117157 14.784103631973267,21.790139377117157 15.477676689624786,20.512308180332184 15.477676689624786,20.512308180332184 16.39626920223236,19.39896196126938 16.39626920223236,19.39896196126938 17.509542405605316,18.480367958545685 17.509542405605316,18.480367958545685 18.78737360239029,17.786794900894165 18.78737360239029,17.786794900894165 20.199498534202576,17.348435521125793 20.199498534202576,17.348435521125793" stroke="white" stroke-width="0.1" /><polygon points="80.36749362945557,17.195631563663483 80.36749362945557,17.195631563663483 81.88364505767822,17.348510026931763 81.88364505767822,17.348510026931763 83.29576849937439,17.786794900894165 83.29576849937439,17.786794900894165 84.57359671592712,18.480442464351654 84.57359671592712,18.480442464351654 85.68686842918396,19.39896196126938 85.68686842918396,19.39896196126938 86.60546541213989,20.512233674526215 86.60546541213989,20.512233674526215 87.2990369796753,21.790139377117157 87.2990369796753,21.790139377117157 87.73739337921143,23.202262818813324 87.73739337921143,23.202262818813324 87.8902018070221,24.71833825111389 87.8902018070221,24.71833825111389 87.88337111473083,25.04018247127533 87.88337111473083,25.04018247127533 87.86302208900452,25.358575582504272 87.86302208900452,25.358575582504272 87.82959580421448,25.673148036003113 87.82959580421448,25.673148036003113 87.78331279754639,25.98375380039215 87.78331279754639,25.98375380039215 87.72446513175964,26.290026307106018 87.72446513175964,26.290026307106018 87.65342831611633,26.591816544532776 87.65342831611633,26.591816544532776 87.57041096687317,26.888829469680786 87.57041096687317,26.888829469680786 87.47586607933044,27.180850505828857 87.47586607933044,27.180850505828857 87.01252937316895,28.24379801750183 87.01252937316895,28.24379801750183 86.39770746231079,29.213890433311462 86.39770746231079,29.213890433311462 85.64639091491699,30.07613718509674 85.64639091491699,30.07613718509674 84.77356433868408,30.815330147743225 84.77356433868408,30.815330147743225 83.7942898273468,31.416413187980652 83.7942898273468,31.416413187980652 82.72355794906616,31.86447024345398 82.72355794906616,31.86447024345398 81.57626986503601,32.144442200660706 81.57626986503601,32.144442200660706 80.36749362945557,32.24104642868042 80.36749362945557,32.24104642868042 79.17826175689697,32.14752674102783 79.17826175689697,32.14752674102783 78.04816365242004,31.876590847969055 78.04816365242004,31.876590847969055 76.99160575866699,31.442639231681824 76.99160575866699,31.442639231681824 76.02269053459167,30.859851837158203 76.02269053459167,30.859851837158203 75.15574097633362,30.14254868030548 75.15574097633362,30.14254868030548 74.40523505210876,29.3052077293396 74.40523505210876,29.3052077293396 73.7853467464447,28.361928462982178 73.7853467464447,28.361928462982178 73.3102560043335,27.327188849449158 73.3102560043335,27.327188849449158 73.20395112037659,27.019301056861877 73.20395112037659,27.019301056861877 73.1107234954834,26.705610752105713 73.1107234954834,26.705610752105713 73.03087115287781,26.386409997940063 73.03087115287781,26.386409997940063 72.9648232460022,26.061993837356567 72.9648232460022,26.061993837356567 72.91281223297119,25.732582807540894 72.91281223297119,25.732582807540894 72.87527322769165,25.39876103401184 72.87527322769165,25.39876103401184 72.85242676734924,25.060459971427917 72.85242676734924,25.060459971427917 72.84478545188904,24.71833825111389 72.84478545188904,24.71833825111389 72.9975938796997,23.202262818813324 72.9975938796997,23.202262818813324 73.43595027923584,21.790139377117157 73.43595027923584,21.790139377117157 74.12959933280945,20.512308180332184 74.12959933280945,20.512308180332184 75.0481903553009,19.39896196126938 75.0481903553009,19.39896196126938 76.16153359413147,18.480367958545685 76.16153359413147,18.480367958545685 77.43936777114868,17.786794900894165 77.43936777114868,17.786794900894165 78.85141968727112,17.348435521125793 78.85141968727112,17.348435521125793" stroke="white" stroke-width="0.1" /></svg>