<?xml version="1.0" encoding="utf-8" ?>
<svg baseProfile="full" height="29.46102023124695" version="1.1" width="100.0" xmlns="http://www.w3.org/2000/svg" xmlns:ev="http://www.w3.org/2001/xml-events" xmlns:xlink="http://www.w3.org/1999/xlink"><defs><clipPath /></defs><polygon points="100.0,0.3612375818192959 100.0,0.3612375818192959 100.0,2.3043913766741753 100.0,2.3043913766741753 99.99529719352722,2.382552810013294 99.99529719352722,2.382552810013294 99.98182654380798,2.4665210396051407 99.98182654380798,2.4665210396051407 99.96051788330078,2.5536933913826942 99.96051788330078,2.5536933913826942 99.93233680725098,2.6412662118673325 99.93233680725098,2.6412662118673325 99.89821314811707,2.72663626819849 99.89821314811707,2.72663626819849 99.85909461975098,2.8072671964764595 99.85909461975098,2.8072671964764595 99.81592893600464,2.8806228190660477 99.81592893600464,2.8806228190660477 99.7696578502655,2.943899482488632 99.7696578502655,2.943899482488632 98.70283007621765,4.2327940464019775 98.70283007621765,4.2327940464019775 98.65007996559143,4.287860542535782 98.65007996559143,4.287860542535782 98.58697056770325,4.339256137609482 98.58697056770325,4.339256137609482 98.51582050323486,4.385979473590851 98.51582050323486,4.385979473590851 98.43894243240356,4.4267624616622925 98.43894243240356,4.4267624616622925 98.35864305496216,4.460736736655235 98.35864305496216,4.460736736655235 98.27724695205688,4.486701637506485 98.27724695205688,4.486701637506485 98.19706678390503,4.503588750958443 98.19706678390503,4.503588750958443 98.12039136886597,4.510397091507912 98.12039136886597,4.510397091507912 98.12039136886597,6.535182893276215 98.12039136886597,6.535182893276215 94.6858286857605,12.645117938518524 94.6858286857605,12.645117938518524 94.69404220581055,12.957829236984253 94.69404220581055,12.957829236984253 94.70323324203491,13.274480402469635 94.70323324203491,13.274480402469635 94.71339583396912,13.591797649860382 94.71339583396912,13.591797649860382 94.7244942188263,13.907112181186676 94.7244942188263,13.907112181186676 94.73651647567749,14.217089116573334 94.73651647567749,14.217089116573334 94.74943280220032,14.51878696680069 94.74943280220032,14.51878696680069 94.76322531700134,14.809004962444305 94.76322531700134,14.809004962444305 94.77787613868713,15.084940195083618 94.77787613868713,15.084940195083618 94.80908513069153,15.638142824172974 94.80908513069153,15.638142824172974 94.83978152275085,16.093361377716064 94.83978152275085,16.093361377716064 94.87797021865845,16.463810205459595 94.87797021865845,16.463810205459595 94.93164420127869,16.762304306030273 94.93164420127869,16.762304306030273 95.00882029533386,17.002195119857788 95.00882029533386,17.002195119857788 95.11748552322388,17.19636470079422 95.11748552322388,17.19636470079422 95.26567459106445,17.3579603433609 95.26567459106445,17.3579603433609 95.46136856079102,17.499998211860657 95.46136856079102,17.499998211860657 95.48691511154175,17.51541644334793 95.48691511154175,17.51541644334793 95.51252126693726,17.530502378940582 95.51252126693726,17.530502378940582 95.53819298744202,17.544986307621002 95.53819298744202,17.544986307621002 95.56390047073364,17.559270560741425 95.56390047073364,17.559270560741425 95.58964371681213,17.573221027851105 95.58964371681213,17.573221027851105 95.61538696289062,17.58677065372467 95.61538696289062,17.58677065372467 95.6411361694336,17.600253224372864 95.6411361694336,17.600253224372864 95.66688537597656,17.613336443901062 95.66688537597656,17.613336443901062 95.9087610244751,17.509476840496063 95.9087610244751,17.509476840496063 96.14236950874329,17.40688532590866 96.14236950874329,17.40688532590866 96.36673927307129,17.305763065814972 96.36673927307129,17.305763065814972 96.5809166431427,17.20644235610962 96.5809166431427,17.20644235610962 96.78393602371216,17.10912436246872 96.78393602371216,17.10912436246872 96.97485566139221,17.014075815677643 96.97485566139221,17.014075815677643 97.15268611907959,16.92163050174713 97.15268611907959,16.92163050174713 97.31648564338684,16.832122206687927 97.31648564338684,16.832122206687927 97.42546677589417,16.77018105983734 97.42546677589417,16.77018105983734 97.52565622329712,16.709907352924347 97.52565622329712,16.709907352924347 97.6161777973175,16.652238368988037 97.6161777973175,16.652238368988037 97.6961612701416,16.598239541053772 97.6961612701416,16.598239541053772 97.76471853256226,16.54871255159378 97.76471853256226,16.54871255159378 97.82097935676575,16.50519371032715 97.82097935676575,16.50519371032715 97.86407351493835,16.46828204393387 97.86407351493835,16.46828204393387 97.89311289787292,16.43911302089691 97.89311289787292,16.43911302089691 97.97669053077698,16.366559267044067 97.97669053077698,16.366559267044067 98.07021021842957,16.31356179714203 98.07021021842957,16.31356179714203 98.17056059837341,16.28052145242691 98.17056059837341,16.28052145242691 98.27462434768677,16.267305612564087 98.27462434768677,16.267305612564087 98.37930202484131,16.27417951822281 98.37930202484131,16.27417951822281 98.4814703464508,16.301213204860687 98.4814703464508,16.301213204860687 98.57802987098694,16.34833663702011 98.57802987098694,16.34833663702011 98.665851354599,16.415885090827942 98.665851354599,16.415885090827942 98.71227145195007,16.46527796983719 98.71227145195007,16.46527796983719 98.7513542175293,16.51887595653534 98.7513542175293,16.51887595653534 98.78307580947876,16.575811803340912 98.78307580947876,16.575811803340912 98.8074541091919,16.635417938232422 98.8074541091919,16.635417938232422 98.82450103759766,16.69715940952301 98.82450103759766,16.69715940952301 98.83422255516052,16.760168969631195 98.83422255516052,16.760168969631195 98.83662462234497,16.823846101760864 98.83662462234497,16.823846101760864 98.83171916007996,16.887523233890533 98.83171916007996,16.887523233890533 98.8354742527008,16.945727169513702 98.8354742527008,16.945727169513702 98.8332211971283,17.00393110513687 98.8332211971283,17.00393110513687 98.8248884677887,17.061801254749298 98.8248884677887,17.061801254749298 98.81039261817932,17.118602991104126 98.81039261817932,17.118602991104126 98.78966808319092,17.173869907855988 98.78966808319092,17.173869907855988 98.76263737678528,17.22720116376877 98.76263737678528,17.22720116376877 98.72921705245972,17.27786213159561 98.72921705245972,17.27786213159561 98.68934750556946,17.325520515441895 98.68934750556946,17.325520515441895 98.60572814941406,17.407353222370148 98.60572814941406,17.407353222370148 98.51643443107605,17.485447227954865 98.51643443107605,17.485447227954865 98.42128157615662,17.56073832511902 98.42128157615662,17.56073832511902 98.320072889328,17.633827030658722 98.320072889328,17.633827030658722 98.21262955665588,17.705781757831573 98.21262955665588,17.705781757831573 98.09874892234802,17.777401208877563 98.09874892234802,17.777401208877563 97.97824621200562,17.84948855638504 97.97824621200562,17.84948855638504 97.85093069076538,17.922911047935486 97.85093069076538,17.922911047935486 97.7174699306488,17.996199429035187 97.7174699306488,17.996199429035187 97.57773876190186,18.070088326931 97.57773876190186,18.070088326931 97.43198752403259,18.14471334218979 97.43198752403259,18.14471334218979 97.28047847747803,18.220070004463196 97.28047847747803,18.220070004463196 97.1234679222107,18.29596310853958 97.1234679222107,18.29596310853958 96.96120023727417,18.372522294521332 96.96120023727417,18.372522294521332 96.79396152496338,18.449749052524567 96.79396152496338,18.449749052524567 96.62197828292847,18.52750927209854 96.62197828292847,18.52750927209854 96.62137627601624,18.52777749300003 96.62137627601624,18.52777749300003 96.62075638771057,18.527977168560028 96.62075638771057,18.527977168560028 96.62012457847595,18.52831095457077 96.62012457847595,18.52831095457077 96.61949872970581,18.528644740581512 96.61949872970581,18.528644740581512 96.61886096000671,18.528911471366882 96.61886096000671,18.528911471366882 96.6182291507721,18.529178202152252 96.6182291507721,18.529178202152252 96.61760330200195,18.52937936782837 96.61760330200195,18.52937936782837 96.61697149276733,18.52971315383911 96.61697149276733,18.52971315383911 96.6313362121582,18.594790995121002 96.6313362121582,18.594790995121002 96.64363265037537,18.663474917411804 96.64363265037537,18.663474917411804 96.65378332138062,18.735961616039276 96.65378332138062,18.735961616039276 96.66167497634888,18.8125878572464 96.66167497634888,18.8125878572464 96.66721224784851,18.893419206142426 96.66721224784851,18.893419206142426 96.67031764984131,18.9785897731781 96.67031764984131,18.9785897731781 96.67089581489563,19.068431854248047 96.67089581489563,19.068431854248047 96.6688334941864,19.16307955980301 96.6688334941864,19.16307955980301 96.66494131088257,19.273079931735992 96.66494131088257,19.273079931735992 96.66096568107605,19.38374638557434 96.66096568107605,19.38374638557434 96.65689468383789,19.49501484632492 96.65689468383789,19.49501484632492 96.65274620056152,19.60655003786087 96.65274620056152,19.60655003786087 96.64853811264038,19.71808522939682 96.64853811264038,19.71808522939682 96.64427638053894,19.82962042093277 96.64427638053894,19.82962042093277 96.63997888565063,19.940555095672607 96.63997888565063,19.940555095672607 96.63565754890442,20.05102187395096 96.63565754890442,20.05102187395096 96.7303991317749,20.005567371845245 96.7303991317749,20.005567371845245 96.82260751724243,19.960711896419525 96.82260751724243,19.960711896419525 96.91217541694641,19.916124641895294 96.91217541694641,19.916124641895294 96.99900150299072,19.87227201461792 96.99900150299072,19.87227201461792 97.08294868469238,19.828952848911285 97.08294868469238,19.828952848911285 97.16392159461975,19.786234200000763 97.16392159461975,19.786234200000763 97.24180698394775,19.744117558002472 97.24180698394775,19.744117558002472 97.31648564338684,19.702734053134918 97.31648564338684,19.702734053134918 97.42546677589417,19.640858471393585 97.42546677589417,19.640858471393585 97.52565622329712,19.58058476448059 97.52565622329712,19.58058476448059 97.6161777973175,19.52284872531891 97.6161777973175,19.52284872531891 97.6961612701416,19.468849897384644 97.6961612701416,19.468849897384644 97.76471853256226,19.419457018375397 97.76471853256226,19.419457018375397 97.82097935676575,19.375871121883392 97.82097935676575,19.375871121883392 97.86407351493835,19.339026510715485 97.86407351493835,19.339026510715485 97.89311289787292,19.309991598129272 97.89311289787292,19.309991598129272 97.97669053077698,19.237369298934937 97.97669053077698,19.237369298934937 98.07021021842957,19.184304773807526 98.07021021842957,19.184304773807526 98.17056059837341,19.15133148431778 98.17056059837341,19.15133148431778 98.27462434768677,19.138115644454956 98.27462434768677,19.138115644454956 98.37930202484131,19.144991040229797 98.37930202484131,19.144991040229797 98.4814703464508,19.171957671642303 98.4814703464508,19.171957671642303 98.57802987098694,19.219081103801727 98.57802987098694,19.219081103801727 98.665851354599,19.286495447158813 98.665851354599,19.286495447158813 98.73847365379333,19.370131194591522 98.73847365379333,19.370131194591522 98.7913727760315,19.46357637643814 98.7913727760315,19.46357637643814 98.82444143295288,19.563965499401093 98.82444143295288,19.563965499401093 98.83762001991272,19.66809183359146 98.83762001991272,19.66809183359146 98.83078336715698,19.77275162935257 98.83078336715698,19.77275162935257 98.80385994911194,19.874942302703857 98.80385994911194,19.874942302703857 98.75674247741699,19.971592724323273 98.75674247741699,19.971592724323273 98.68934750556946,20.059499144554138 98.68934750556946,20.059499144554138 98.60572814941406,20.14133185148239 98.60572814941406,20.14133185148239 98.51643443107605,20.219425857067108 98.51643443107605,20.219425857067108 98.42128157615662,20.294716954231262 98.42128157615662,20.294716954231262 98.320072889328,20.367805659770966 98.320072889328,20.367805659770966 98.21262955665588,20.439758896827698 98.21262955665588,20.439758896827698 98.09874892234802,20.511379837989807 98.09874892234802,20.511379837989807 97.97824621200562,20.58333307504654 97.97824621200562,20.58333307504654 97.85093069076538,20.656822621822357 97.85093069076538,20.656822621822357 97.7174699306488,20.730111002922058 97.7174699306488,20.730111002922058 97.57773876190186,20.804066956043243 97.57773876190186,20.804066956043243 97.43198752403259,20.878690481185913 97.43198752403259,20.878690481185913 97.28047847747803,20.95404863357544 97.28047847747803,20.95404863357544 97.1234679222107,21.029941737651825 97.1234679222107,21.029941737651825 96.96120023727417,21.106500923633575 96.96120023727417,21.106500923633575 96.79396152496338,21.18372768163681 96.79396152496338,21.18372768163681 96.62197828292847,21.261487901210785 96.62197828292847,21.261487901210785 96.61745429039001,21.263490617275238 96.61745429039001,21.263490617275238 96.61288261413574,21.26549333333969 96.61288261413574,21.26549333333969 96.60825729370117,21.267496049404144 96.60825729370117,21.267496049404144 96.60361409187317,21.26956433057785 96.60361409187317,21.26956433057785 96.59896492958069,21.271567046642303 96.59896492958069,21.271567046642303 96.59433364868164,21.27363681793213 96.59433364868164,21.27363681793213 96.58973813056946,21.275638043880463 96.58973813056946,21.275638043880463 96.58519625663757,21.277640759944916 96.58519625663757,21.277640759944916 96.57878279685974,21.426087617874146 96.57878279685974,21.426087617874146 96.57295942306519,21.559782326221466 96.57295942306519,21.559782326221466 96.56780362129211,21.677325665950775 96.56780362129211,21.677325665950775 96.56339883804321,21.776913106441498 96.56339883804321,21.776913106441498 96.55983448028564,21.85707688331604 96.55983448028564,21.85707688331604 96.55718207359314,21.916280686855316 96.55718207359314,21.916280686855316 96.55553102493286,21.9529926776886 96.55553102493286,21.9529926776886 96.55495882034302,21.965540945529938 96.55495882034302,21.965540945529938 96.5488612651825,21.9814270734787 96.5488612651825,21.9814270734787 96.53180241584778,22.024212777614594 96.53180241584778,22.024212777614594 96.50565981864929,22.086821496486664 96.50565981864929,22.086821496486664 96.47231101989746,22.161978483200073 96.47231101989746,22.161978483200073 96.43362164497375,22.242410480976105 96.43362164497375,22.242410480976105 96.39146327972412,22.32103794813156 96.39146327972412,22.32103794813156 96.34772539138794,22.390589118003845 96.34772539138794,22.390589118003845 96.30425572395325,22.443853318691254 96.30425572395325,22.443853318691254 96.268630027771,22.53729999065399 96.268630027771,22.53729999065399 96.24553322792053,22.712713479995728 96.24553322792053,22.712713479995728 96.23258709907532,22.940856218338013 96.23258709907532,22.940856218338013 96.22738361358643,23.192961513996124 96.22738361358643,23.192961513996124 96.22751474380493,23.439593613147736 96.22751474380493,23.439593613147736 96.23056650161743,23.65185022354126 96.23056650161743,23.65185022354126 96.23417258262634,23.800496757030487 96.23417258262634,23.800496757030487 96.2359070777893,23.856498301029205 96.2359070777893,23.856498301029205 96.2343156337738,23.89955073595047 96.2343156337738,23.89955073595047 96.22739553451538,24.017025530338287 96.22739553451538,24.017025530338287 96.2119460105896,24.191704392433167 96.2119460105896,24.191704392433167 96.18474841117859,24.40609782934189 96.18474841117859,24.40609782934189 96.14259600639343,24.64291751384735 96.14259600639343,24.64291751384735 96.08227014541626,24.88487809896469 96.08227014541626,24.88487809896469 96.00057005882263,25.11448860168457 96.00057005882263,25.11448860168457 95.89429497718811,25.314530730247498 95.89429497718811,25.314530730247498 95.75178623199463,25.508633255958557 95.75178623199463,25.508633255958557 95.57457566261292,25.722825527191162 95.57457566261292,25.722825527191162 95.37922143936157,25.942891836166382 95.37922143936157,25.942891836166382 95.18226385116577,26.15474760532379 95.18226385116577,26.15474760532379 95.0002670288086,26.343977451324463 95.0002670288086,26.343977451324463 94.84977722167969,26.49676203727722 94.84977722167969,26.49676203727722 94.74734663963318,26.598820090293884 94.74734663963318,26.598820090293884 94.7095274925232,26.635998487472534 94.7095274925232,26.635998487472534 92.9552674293518,26.65882706642151 92.9552674293518,26.65882706642151 92.9466724395752,26.64026916027069 92.9466724395752,26.64026916027069 92.92072653770447,26.591545343399048 92.92072653770447,26.591545343399048 92.87714958190918,26.523062586784363 92.87714958190918,26.523062586784363 92.81567931175232,26.445233821868896 92.81567931175232,26.445233821868896 92.73606538772583,26.36847496032715 92.73606538772583,26.36847496032715 92.63802170753479,26.30319595336914 92.63802170753479,26.30319595336914 92.5213098526001,26.259809732437134 92.5213098526001,26.259809732437134 92.38564372062683,26.24872922897339 92.38564372062683,26.24872922897339 91.9934868812561,26.2963205575943 91.9934868812561,26.2963205575943 91.20057225227356,26.407790184020996 91.20057225227356,26.407790184020996 90.1465117931366,26.561373472213745 90.1465117931366,26.561373472213745 88.97098898887634,26.73565149307251 88.97098898887634,26.73565149307251 87.81360387802124,26.908862590789795 87.81360387802124,26.908862590789795 86.81402802467346,27.05931067466736 86.81402802467346,27.05931067466736 86.11187934875488,27.16543972492218 86.11187934875488,27.16543972492218 85.84678769111633,27.20562219619751 85.84678769111633,27.20562219619751 84.45590734481812,26.74192786216736 84.45590734481812,26.74192786216736 84.51879620552063,26.493293046951294 84.51879620552063,26.493293046951294 84.57388281822205,26.241719722747803 84.57388281822205,26.241719722747803 84.62098836898804,25.987213850021362 84.62098836898804,25.987213850021362 84.65993404388428,25.730100274086 84.65993404388428,25.730100274086 84.69054102897644,25.470319390296936 84.69054102897644,25.470319390296936 84.71261858940125,25.208067893981934 84.71261858940125,25.208067893981934 84.72599983215332,24.943414330482483 84.72599983215332,24.943414330482483 84.73050594329834,24.67655837535858 84.73050594329834,24.67655837535858 84.70043540000916,23.983585834503174 84.70043540000916,23.983585834503174 84.61189270019531,23.307232558727264 84.61189270019531,23.307232558727264 84.46744084358215,22.64990359544754 84.46744084358215,22.64990359544754 84.26961898803711,22.014066576957703 84.26961898803711,22.014066576957703 84.02096033096313,21.40212506055832 84.02096033096313,21.40212506055832 83.72400999069214,20.816682279109955 83.72400999069214,20.816682279109955 83.38131308555603,20.260141789913177 83.38131308555603,20.260141789913177 82.99540281295776,19.734972715377808 82.99540281295776,19.734972715377808 83.14087986946106,20.068910717964172 83.14087986946106,20.068910717964172 83.26888084411621,20.411792397499084 83.26888084411621,20.411792397499084 83.3788275718689,20.763151347637177 83.3788275718689,20.763151347637177 83.47010016441345,21.122252941131592 83.47010016441345,21.122252941131592 83.54213237762451,21.488630771636963 83.54213237762451,21.488630771636963 83.59432220458984,21.86174839735031 83.59432220458984,21.86174839735031 83.62606763839722,22.241075336933136 83.62606763839722,22.241075336933136 83.63677859306335,22.62607514858246 83.63677859306335,22.62607514858246 83.63324403762817,22.847943007946014 83.63324403762817,22.847943007946014 83.62268805503845,23.068076372146606 83.62268805503845,23.068076372146606 83.60522985458374,23.286274075508118 83.60522985458374,23.286274075508118 83.58099460601807,23.502536118030548 83.58099460601807,23.502536118030548 83.55008363723755,23.716728389263153 83.55008363723755,23.716728389263153 83.5125982761383,23.928719758987427 83.5125982761383,23.928719758987427 83.46865773200989,24.138373136520386 83.46865773200989,24.138373136520386 83.41838121414185,24.345624446868896 83.41838121414185,24.345624446868896 83.04557800292969,25.41024684906006 83.04557800292969,25.41024684906006 82.51009583473206,26.3862282037735 82.51009583473206,26.3862282037735 81.82839751243591,27.257150411605835 81.82839751243591,27.257150411605835 81.01690411567688,28.006726503372192 81.01690411567688,28.006726503372192 80.09206652641296,28.61826717853546 80.09206652641296,28.61826717853546 79.07031178474426,29.075485467910767 79.07031178474426,29.075485467910767 77.96809673309326,29.361900687217712 77.96809673309326,29.361900687217712 76.80183053016663,29.46102023124695 76.80183053016663,29.46102023124695 75.7334053516388,29.37798798084259 75.7334053516388,29.37798798084259 74.71742630004883,29.13709580898285 74.71742630004883,29.13709580898285 73.76640439033508,28.751161694526672 73.76640439033508,28.751161694526672 72.8928804397583,28.232598304748535 72.8928804397583,28.232598304748535 72.10938930511475,27.59409248828888 72.10938930511475,27.59409248828888 71.4284598827362,26.848122477531433 71.4284598827362,26.848122477531433 70.86260318756104,26.00736916065216 70.86260318756104,26.00736916065216 70.42437195777893,25.084319710731506 70.42437195777893,25.084319710731506 70.32016515731812,24.79516863822937 70.32016515731812,24.79516863822937 70.22865414619446,24.500077962875366 70.22865414619446,24.500077962875366 70.15020847320557,24.19971376657486 70.15020847320557,24.19971376657486 70.08519768714905,23.894010484218597 70.08519768714905,23.894010484218597 70.03398537635803,23.583567142486572 70.03398537635803,23.583567142486572 69.99695897102356,23.26858639717102 69.99695897102356,23.26858639717102 69.97446417808533,22.94926643371582 69.97446417808533,22.94926643371582 69.96688842773438,22.62607514858246 69.96688842773438,22.62607514858246 69.97760534286499,22.24114090204239 69.97760534286499,22.24114090204239 70.00934481620789,21.861882507801056 70.00934481620789,21.861882507801056 70.06153464317322,21.48883044719696 70.06153464317322,21.48883044719696 70.13355493545532,21.122387051582336 70.13355493545532,21.122387051582336 70.22483348846436,20.763351023197174 70.22483348846436,20.763351023197174 70.33476829528809,20.412059128284454 70.33476829528809,20.412059128284454 70.46273946762085,20.069244503974915 70.46273946762085,20.069244503974915 70.60819864273071,19.735239446163177 70.60819864273071,19.735239446163177 70.22233009338379,20.260341465473175 70.22233009338379,20.260341465473175 69.87967491149902,20.816883444786072 69.87967491149902,20.816883444786072 69.58276629447937,21.402326226234436 69.58276629447937,21.402326226234436 69.3341314792633,22.014133632183075 69.3341314792633,22.014133632183075 69.1363275051117,22.649970650672913 69.1363275051117,22.649970650672913 68.99189352989197,23.307299613952637 68.99189352989197,23.307299613952637 68.90336871147156,23.983652889728546 68.90336871147156,23.983652889728546 68.87329816818237,24.67655837535858 68.87329816818237,24.67655837535858 68.88288855552673,25.067365169525146 68.88288855552673,25.067365169525146 68.9113438129425,25.45316517353058 68.9113438129425,25.45316517353058 68.95817518234253,25.83375871181488 68.95817518234253,25.83375871181488 69.02289390563965,26.20861530303955 69.02289390563965,26.20861530303955 69.10501718521118,26.57732665538788 69.10501718521118,26.57732665538788 69.2040503025055,26.939433813095093 69.2040503025055,26.939433813095093 69.31952238082886,27.29446291923523 69.31952238082886,27.29446291923523 69.45092678070068,27.642151713371277 69.45092678070068,27.642151713371277 69.19813752174377,27.67252027988434 69.19813752174377,27.67252027988434 68.53167414665222,27.752685546875 68.53167414665222,27.752685546875 67.5894558429718,27.865955233573914 67.5894558429718,27.865955233573914 66.50933027267456,27.995780110359192 66.50933027267456,27.995780110359192 65.42921662330627,28.12553644180298 65.42921662330627,28.12553644180298 64.48698043823242,28.238874673843384 64.48698043823242,28.238874673843384 63.82052302360535,28.318902850151062 63.82052302360535,28.318902850151062 63.56773376464844,28.349339962005615 63.56773376464844,28.349339962005615 62.91905641555786,28.356817364692688 62.91905641555786,28.356817364692688 61.134135723114014,28.376439213752747 61.134135723114014,28.376439213752747 58.45467448234558,28.403139114379883 58.45467448234558,28.403139114379883 55.12235760688782,28.432440757751465 55.12235760688782,28.432440757751465 51.3788640499115,28.459608554840088 51.3788640499115,28.459608554840088 47.46590554714203,28.479966521263123 47.46590554714203,28.479966521263123 43.62515211105347,28.488776087760925 43.62515211105347,28.488776087760925 40.0983065366745,28.481432795524597 40.0983065366745,28.481432795524597 37.11216449737549,28.466615080833435 37.11216449737549,28.466615080833435 34.69693958759308,28.456002473831177 34.69693958759308,28.456002473831177 32.79934823513031,28.44872772693634 32.79934823513031,28.44872772693634 31.366178393363953,28.444388508796692 31.366178393363953,28.444388508796692 30.344173312187195,28.44212055206299 30.344173312187195,28.44212055206299 29.680094122886658,28.44131886959076 29.680094122886658,28.44131886959076 29.320693016052246,28.44131886959076 29.320693016052246,28.44131886959076 29.212719202041626,28.441452980041504 29.212719202041626,28.441452980041504 24.213731288909912,27.633607387542725 24.213731288909912,27.633607387542725 24.344347417354584,27.28685438632965 24.344347417354584,27.28685438632965 24.459102749824524,26.93275809288025 24.459102749824524,26.93275809288025 24.557556211948395,26.571720838546753 24.557556211948395,26.571720838546753 24.639180302619934,26.204076409339905 24.639180302619934,26.204076409339905 24.703507125377655,25.830355286598206 24.703507125377655,25.830355286598206 24.750064313411713,25.450897216796875 24.750064313411713,25.450897216796875 24.77835714817047,25.06609559059143 24.77835714817047,25.06609559059143 24.787893891334534,24.67655837535858 24.787893891334534,24.67655837535858 24.75782334804535,23.983585834503174 24.75782334804535,23.983585834503174 24.66930001974106,23.307299613952637 24.66930001974106,23.307299613952637 24.524858593940735,22.649970650672913 24.524858593940735,22.649970650672913 24.3270605802536,22.014133632183075 24.3270605802536,22.014133632183075 24.078433215618134,21.402326226234436 24.078433215618134,21.402326226234436 23.781508207321167,20.8168163895607 23.781508207321167,20.8168163895607 23.43885898590088,20.260408520698547 23.43885898590088,20.260408520698547 23.052991926670074,19.735239446163177 23.052991926670074,19.735239446163177 23.198451101779938,20.069244503974915 23.198451101779938,20.069244503974915 23.326431214809418,20.412126183509827 23.326431214809418,20.412126183509827 23.43636453151703,20.763418078422546 23.43636453151703,20.763418078422546 23.527632653713226,21.12245261669159 23.527632653713226,21.12245261669159 23.599670827388763,21.48883044719696 23.599670827388763,21.48883044719696 23.65185022354126,21.861882507801056 23.65185022354126,21.861882507801056 23.683588206768036,22.24120795726776 23.683588206768036,22.24120795726776 23.694302141666412,22.62607514858246 23.694302141666412,22.62607514858246 23.688845336437225,22.900407016277313 23.688845336437225,22.900407016277313 23.67260903120041,23.17180186510086 23.67260903120041,23.17180186510086 23.64584356546402,23.440393805503845 23.64584356546402,23.440393805503845 23.608797788619995,23.705649375915527 23.608797788619995,23.705649375915527 23.56167435646057,23.967699706554413 23.56167435646057,23.967699706554413 23.504731059074402,24.226145446300507 23.504731059074402,24.226145446300507 23.438191413879395,24.480853974819183 23.438191413879395,24.480853974819183 23.36229979991913,24.7316911816597 23.36229979991913,24.7316911816597 22.952595353126526,25.72275996208191 22.952595353126526,25.72275996208191 22.39905744791031,26.628389954566956 22.39905744791031,26.628389954566956 21.716006100177765,27.434033155441284 21.716006100177765,27.434033155441284 20.917755365371704,28.125402331352234 20.917755365371704,28.125402331352234 20.018649101257324,28.68821918964386 20.018649101257324,28.68821918964386 19.03298944234848,29.107925295829773 19.03298944234848,29.107925295829773 17.975124716758728,29.370376467704773 17.975124716758728,29.370376467704773 16.859355568885803,29.46102023124695 16.859355568885803,29.46102023124695 15.988492965698242,29.40608859062195 15.988492965698242,29.40608859062195 15.150560438632965,29.245692491531372 15.150560438632965,29.245692491531372 14.352251589298248,28.98651361465454 14.352251589298248,28.98651361465454 13.600291311740875,28.635352849960327 13.600291311740875,28.635352849960327 12.90140300989151,28.198957443237305 12.90140300989151,28.198957443237305 12.262304127216339,27.68406867980957 12.262304127216339,27.68406867980957 11.68970987200737,27.097225189208984 11.68970987200737,27.097225189208984 11.190355569124222,26.445302367210388 11.190355569124222,26.445302367210388 10.928955674171448,26.026126742362976 10.928955674171448,26.026126742362976 10.697725415229797,25.587528944015503 10.697725415229797,25.587528944015503 10.498075187206268,25.130707025527954 10.498075187206268,25.130707025527954 10.331464558839798,24.6573343873024 10.331464558839798,24.6573343873024 10.19936352968216,24.168676137924194 10.19936352968216,24.168676137924194 10.103204846382141,23.66633415222168 10.103204846382141,23.66633415222168 10.04445031285286,23.151645064353943 10.04445031285286,23.151645064353943 10.024543106555939,22.62607514858246 10.024543106555939,22.62607514858246 10.035256296396255,22.241075336933136 10.035256296396255,22.241075336933136 10.067011415958405,21.86174839735031 10.067011415958405,21.86174839735031 10.119199752807617,21.488696336746216 10.119199752807617,21.488696336746216 10.191220045089722,21.122252941131592 10.191220045089722,21.122252941131592 10.282497107982635,20.763084292411804 10.282497107982635,20.763084292411804 10.392438620328903,20.411792397499084 10.392438620328903,20.411792397499084 10.520444065332413,20.0688436627388 10.520444065332413,20.0688436627388 10.665920376777649,19.734905660152435 10.665920376777649,19.734905660152435 10.280019044876099,20.260007679462433 10.280019044876099,20.260007679462433 9.937304258346558,20.816616714000702 9.937304258346558,20.816616714000702 9.640352427959442,21.402058005332947 9.640352427959442,21.402058005332947 9.391701221466064,22.01399952173233 9.391701221466064,22.01399952173233 9.193886816501617,22.64990359544754 9.193886816501617,22.64990359544754 9.049428254365921,23.307232558727264 9.049428254365921,23.307232558727264 8.960887789726257,23.983585834503174 8.960887789726257,23.983585834503174 8.930817991495132,24.67655837535858 8.930817991495132,24.67655837535858 8.944392949342728,25.142455101013184 8.944392949342728,25.142455101013184 8.98461639881134,25.60141086578369 8.98461639881134,25.60141086578369 9.050705283880234,26.05249285697937 9.050705283880234,26.05249285697937 9.141873568296432,26.495027542114258 9.141873568296432,26.495027542114258 9.257347136735916,26.928353309631348 9.257347136735916,26.928353309631348 9.396348893642426,27.351665496826172 9.396348893642426,27.351665496826172 9.558095037937164,27.76416540145874 9.558095037937164,27.76416540145874 9.741800278425217,28.165316581726074 9.741800278425217,28.165316581726074 9.613269567489624,28.187546133995056 9.613269567489624,28.187546133995056 9.266291558742523,28.24641466140747 9.266291558742523,28.24641466140747 8.758684992790222,28.329384326934814 8.758684992790222,28.329384326934814 8.148370683193207,28.42463254928589 8.148370683193207,28.42463254928589 7.493193447589874,28.519880771636963 7.493193447589874,28.519880771636963 6.851040571928024,28.602981567382812 6.851040571928024,28.602981567382812 6.279782205820084,28.66165339946747 6.279782205820084,28.66165339946747 5.837270990014076,28.684014081954956 5.837270990014076,28.684014081954956 0.0,28.684014081954956 0.0,28.684014081954956 0.0,28.238338232040405 0.0,28.238338232040405 3.4629948437213898,27.729588747024536 3.4629948437213898,27.729588747024536 3.4729570150375366,27.71550714969635 3.4729570150375366,27.71550714969635 3.5000063478946686,27.66878306865692 3.5000063478946686,27.66878306865692 3.539871424436569,27.58181095123291 3.539871424436569,27.58181095123291 3.5882633179426193,27.447649836540222 3.5882633179426193,27.447649836540222 3.640943765640259,27.259019017219543 3.640943765640259,27.259019017219543 3.6936242133378983,27.008715271949768 3.6936242133378983,27.008715271949768 3.7420328706502914,26.689529418945312 3.7420328706502914,26.689529418945312 3.7819143384695053,26.294252276420593 3.7819143384695053,26.294252276420593 3.7892986088991165,26.201003789901733 3.7892986088991165,26.201003789901733 3.796815872192383,26.107758283615112 3.796815872192383,26.107758283615112 3.804408386349678,26.014378666877747 3.804408386349678,26.014378666877747 3.8120176643133163,25.921064615249634 3.8120176643133163,25.921064615249634 3.8196101784706116,25.827887654304504 3.8196101784706116,25.827887654304504 3.8271192461252213,25.73510706424713 3.8271192461252213,25.73510706424713 3.834511712193489,25.64266324043274 3.834511712193489,25.64266324043274 3.841720148921013,25.550684332847595 3.841720148921013,25.550684332847595 3.529934212565422,25.60388147830963 3.529934212565422,25.60388147830963 3.222053125500679,25.652340054512024 3.222053125500679,25.652340054512024 2.9196783900260925,25.69539248943329 2.9196783900260925,25.69539248943329 2.6244958862662315,25.732436776161194 2.6244958862662315,25.732436776161194 2.3381154984235764,25.76267421245575 2.3381154984235764,25.76267421245575 2.062148042023182,25.785169005393982 2.062148042023182,25.785169005393982 1.7982950434088707,25.79958438873291 1.7982950434088707,25.79958438873291 1.548141986131668,25.804990530014038 1.548141986131668,25.804990530014038 1.44471675157547,25.80392360687256 1.44471675157547,25.80392360687256 1.343727670609951,25.80091953277588 1.343727670609951,25.80091953277588 1.2450581416487694,25.795847177505493 1.2450581416487694,25.795847177505493 1.1485246010124683,25.788438320159912 1.1485246010124683,25.788438320159912 1.0540017858147621,25.77829360961914 1.0540017858147621,25.77829360961914 0.9613311849534512,25.76541006565094 0.9613311849534512,25.76541006565094 0.8703542873263359,25.7493257522583 0.8703542873263359,25.7493257522583 0.7809459697455168,25.729835033416748 0.7809459697455168,25.729835033416748 0.6764777936041355,25.692790746688843 0.6764777936041355,25.692790746688843 0.5843161605298519,25.63745677471161 0.5843161605298519,25.63745677471161 0.5060463212430477,25.566434860229492 0.5060463212430477,25.566434860229492 0.44328696094453335,25.482335686683655 0.44328696094453335,25.482335686683655 0.397648336365819,25.387820601463318 0.397648336365819,25.387820601463318 0.3707240801304579,25.285696983337402 0.3707240801304579,25.285696983337402 0.36413276102393866,25.178366899490356 0.36413276102393866,25.178366899490356 0.3794596530497074,25.068700313568115 0.3794596530497074,25.068700313568115 0.4164544865489006,24.964307248592377 0.4164544865489006,24.964307248592377 0.47182152047753334,24.87226277589798 0.47182152047753334,24.87226277589798 0.542865926399827,24.793900549411774 0.542865926399827,24.793900549411774 0.6269761361181736,24.73122477531433 0.6269761361181736,24.73122477531433 0.7214572746306658,24.6855691075325 0.7214572746306658,24.6855691075325 0.82364771515131,24.658603966236115 0.82364771515131,24.658603966236115 0.9309276938438416,24.652129411697388 0.9309276938438416,24.652129411697388 1.0405938141047955,24.66748058795929 1.0405938141047955,24.66748058795929 1.0821274481713772,24.67675805091858 1.0821274481713772,24.67675805091858 1.1308031156659126,24.685168266296387 1.1308031156659126,24.685168266296387 1.1861952021718025,24.69264417886734 1.1861952021718025,24.69264417886734 1.2478365562856197,24.69918578863144 1.2478365562856197,24.69918578863144 1.315293274819851,24.70439225435257 1.315293274819851,24.70439225435257 1.388114783912897,24.708330631256104 1.388114783912897,24.708330631256104 1.4658923260867596,24.710600078105927 1.4658923260867596,24.710600078105927 1.548141986131668,24.71126765012741 1.548141986131668,24.71126765012741 1.780581846833229,24.706394970417023 1.780581846833229,24.706394970417023 2.0363332703709602,24.691176414489746 2.0363332703709602,24.691176414489746 2.3124095052480698,24.666479229927063 2.3124095052480698,24.666479229927063 2.6058316230773926,24.633172154426575 2.6058316230773926,24.633172154426575 2.9136043041944504,24.591989815235138 2.9136043041944504,24.591989815235138 3.232765942811966,24.54393059015274 3.232765942811966,24.54393059015274 3.560304269194603,24.489665031433105 3.560304269194603,24.489665031433105 3.8932494819164276,24.430260062217712 3.8932494819164276,24.430260062217712 3.889211267232895,24.28882271051407 3.889211267232895,24.28882271051407 3.8808178156614304,24.15732890367508 3.8808178156614304,24.15732890367508 3.867601603269577,24.036449193954468 3.867601603269577,24.036449193954468 3.8491375744342804,23.927517235279083 3.8491375744342804,23.927517235279083 3.824950009584427,23.83120059967041 3.824950009584427,23.83120059967041 3.7945881485939026,23.74863475561142 3.7945881485939026,23.74863475561142 3.7576183676719666,23.68081957101822 3.7576183676719666,23.68081957101822 3.713564947247505,23.62862229347229 3.713564947247505,23.62862229347229 3.6568965762853622,23.576626181602478 3.6568965762853622,23.576626181602478 3.6022301763296127,23.526698350906372 3.6022301763296127,23.526698350906372 3.549833223223686,23.477773368358612 3.549833223223686,23.477773368358612 3.499939665198326,23.42877984046936 3.499939665198326,23.42877984046936 3.4528158605098724,23.378919064998627 3.4528158605098724,23.378919064998627 3.4087125211954117,23.327457904815674 3.4087125211954117,23.327457904815674 3.3678796142339706,23.273125290870667 3.3678796142339706,23.273125290870667 3.330567851662636,23.215322196483612 3.330567851662636,23.215322196483612 3.1059540808200836,23.248828947544098 3.1059540808200836,23.248828947544098 2.883167564868927,23.27919900417328 2.883167564868927,23.27919900417328 2.662959136068821,23.305964469909668 2.662959136068821,23.305964469909668 2.4461131542921066,23.328658938407898 2.4461131542921066,23.328658938407898 2.2333720698952675,23.347215354442596 2.2333720698952675,23.347215354442596 2.0255036652088165,23.360897600650787 2.0255036652088165,23.360897600650787 1.823275350034237,23.369641602039337 1.823275350034237,23.369641602039337 1.6274379566311836,23.372845351696014 1.6274379566311836,23.372845351696014 1.5142926946282387,23.371711373329163 1.5142926946282387,23.371711373329163 1.4033582992851734,23.36837351322174 1.4033582992851734,23.36837351322174 1.294601522386074,23.362700641155243 1.294601522386074,23.362700641155243 1.1879472993314266,23.354290425777435 1.1879472993314266,23.354290425777435 1.083320565521717,23.342876136302948 1.083320565521717,23.342876136302948 0.9806545451283455,23.328258097171783 0.9806545451283455,23.328258097171783 0.879882462322712,23.310236632823944 0.879882462322712,23.310236632823944 0.7809459697455168,23.28847646713257 0.7809459697455168,23.28847646713257 0.6765111349523067,23.25156480073929 0.6765111349523067,23.25156480073929 0.5843411665409803,23.1963649392128 0.5843411665409803,23.1963649392128 0.5060713738203049,23.12527894973755 0.5060713738203049,23.12527894973755 0.44329529628157616,23.041310906410217 0.44329529628157616,23.041310906410217 0.39764000102877617,22.946862876415253 0.39764000102877617,22.946862876415253 0.3707157215103507,22.844606637954712 0.3707157215103507,22.844606637954712 0.36414109636098146,22.73740917444229 0.36414109636098146,22.73740917444229 0.379526405595243,22.627677023410797 0.379526405595243,22.627677023410797 0.4164711572229862,22.523216903209686 0.4164711572229862,22.523216903209686 0.4718048498034477,22.431038320064545 0.4718048498034477,22.431038320064545 0.5428242031484842,22.352810204029083 0.5428242031484842,22.352810204029083 0.6269094068557024,22.290000319480896 0.6269094068557024,22.290000319480896 0.7213904988020658,22.244346141815186 0.7213904988020658,22.244346141815186 0.8235976099967957,22.21744656562805 0.8235976099967957,22.21744656562805 0.9308775886893272,22.210770845413208 0.9308775886893272,22.210770845413208 1.0405938141047955,22.2261905670166 1.0405938141047955,22.2261905670166 1.0929322801530361,22.237804532051086 1.0929322801530361,22.237804532051086 1.1521372944116592,22.2482830286026 1.1521372944116592,22.2482830286026 1.2177667580544949,22.257360816001892 1.2177667580544949,22.257360816001892 1.2894119136035442,22.265103459358215 1.2894119136035442,22.265103459358215 1.3666387647390366,22.271378338336945 1.3666387647390366,22.271378338336945 1.4489885419607162,22.275783121585846 1.4489885419607162,22.275783121585846 1.5360773541033268,22.278520464897156 1.5360773541033268,22.278520464897156 1.6274379566311836,22.279255092144012 1.6274379566311836,22.279255092144012 1.7969433218240738,22.277051210403442 1.7969433218240738,22.277051210403442 1.9760936498641968,22.269442677497864 1.9760936498641968,22.269442677497864 2.163871191442013,22.25649356842041 2.163871191442013,22.25649356842041 2.359257824718952,22.23893851041794 2.359257824718952,22.23893851041794 2.561235800385475,22.216911613941193 2.561235800385475,22.216911613941193 2.76880394667387,22.191014885902405 2.76880394667387,22.191014885902405 2.980927564203739,22.16137796640396 2.980927564203739,22.16137796640396 3.1966056674718857,22.12853878736496 3.1966056674718857,22.12853878736496 3.2042481005191803,21.855874359607697 3.2042481005191803,21.855874359607697 3.2135426998138428,21.572665870189667 3.2135426998138428,21.572665870189667 3.2236717641353607,21.29339426755905 3.2236717641353607,21.29339426755905 3.2338090240955353,21.032610535621643 3.2338090240955353,21.032610535621643 3.2431285828351974,20.80453485250473 3.2431285828351974,20.80453485250473 3.250812739133835,20.62378227710724 3.250812739133835,20.62378227710724 3.256027400493622,20.504704117774963 3.256027400493622,20.504704117774963 3.2579462975263596,20.461852848529816 3.2579462975263596,20.461852848529816 3.2705366611480713,20.456379652023315 3.2705366611480713,20.456379652023315 3.3074062317609787,20.439758896827698 3.3074062317609787,20.439758896827698 3.367237374186516,20.41139155626297 3.367237374186516,20.41139155626297 3.448694199323654,20.3706756234169 3.448694199323654,20.3706756234169 3.550434112548828,20.317211747169495 3.550434112548828,20.317211747169495 3.6711469292640686,20.2503964304924 3.6711469292640686,20.2503964304924 3.8094978779554367,20.169632136821747 3.8094978779554367,20.169632136821747 3.9641354233026505,20.074450969696045 3.9641354233026505,20.074450969696045 4.123678430914879,19.960778951644897 4.123678430914879,19.960778951644897 4.274928569793701,19.823145866394043 4.274928569793701,19.823145866394043 4.413888230919838,19.6587473154068 4.413888230919838,19.6587473154068 4.536578804254532,19.465045630931854 4.536578804254532,19.465045630931854 4.638969525694847,19.239304959774017 4.638969525694847,19.239304959774017 4.717063903808594,18.978789448738098 4.717063903808594,18.978789448738098 4.766840860247612,18.68089586496353 4.766840860247612,18.68089586496353 4.784328863024712,18.343019485473633 4.784328863024712,18.343019485473633 4.773090034723282,17.96489506959915 4.773090034723282,17.96489506959915 4.754100367426872,17.556600272655487 4.754100367426872,17.556600272655487 4.74955327808857,17.13075041770935 4.74955327808857,17.13075041770935 4.781558737158775,16.699695587158203 4.781558737158775,16.699695587158203 4.872310534119606,16.276249289512634 4.872310534119606,16.276249289512634 5.043959990143776,15.872827172279358 5.043959990143776,15.872827172279358 5.318642780184746,15.501844882965088 5.318642780184746,15.501844882965088 5.718526989221573,15.176117420196533 5.718526989221573,15.176117420196533 6.334272772073746,14.834903180599213 6.334272772073746,14.834903180599213 7.2271548211574554,14.424273371696472 7.2271548211574554,14.424273371696472 8.375278860330582,13.966651260852814 8.375278860330582,13.966651260852814 9.756768494844437,13.484467566013336 9.756768494844437,13.484467566013336 11.349731683731079,13.000147044658661 11.349731683731079,13.000147044658661 13.132241368293762,12.536118924617767 13.132241368293762,12.536118924617767 15.082436800003052,12.114808708429337 15.082436800003052,12.114808708429337 17.178408801555634,11.758643388748169 17.178408801555634,11.758643388748169 19.361035525798798,11.455943435430527 19.361035525798798,11.455943435430527 21.528953313827515,11.182279139757156 21.528953313827515,11.182279139757156 23.597033321857452,10.941186547279358 23.597033321857452,10.941186547279358 25.480082631111145,10.73620542883873 25.480082631111145,10.73620542883873 27.09292769432068,10.570671409368515 27.09292769432068,10.570671409368515 28.350424766540527,10.448122769594193 28.350424766540527,10.448122769594193 29.16736602783203,10.372097790241241 29.16736602783203,10.372097790241241 29.4586181640625,10.345999151468277 29.4586181640625,10.345999151468277 29.459285736083984,10.372164100408554 29.459285736083984,10.372164100408554 29.463958740234375,10.440313071012497 29.463958740234375,10.440313071012497 29.47663962841034,10.534627735614777 29.47663962841034,10.534627735614777 29.501336812973022,10.639287531375885 29.501336812973022,10.639287531375885 29.542052745819092,10.73867455124855 29.542052745819092,10.73867455124855 29.602792859077454,10.816969722509384 29.602792859077454,10.816969722509384 29.687562584877014,10.858353227376938 29.687562584877014,10.858353227376938 29.80036437511444,10.847272723913193 29.80036437511444,10.847272723913193 30.143004655838013,10.661114007234573 30.143004655838013,10.661114007234573 30.862626433372498,10.225052386522293 30.862626433372498,10.225052386522293 31.881284713745117,9.59455594420433 31.881284713745117,9.59455594420433 33.121004700660706,8.825357258319855 33.121004700660706,8.825357258319855 34.50382947921753,7.972723990678787 34.50382947921753,7.972723990678787 35.951799154281616,7.092390954494476 35.951799154281616,7.092390954494476 37.38694787025452,6.239825114607811 37.38694787025452,6.239825114607811 38.73131573200226,5.47049343585968 38.73131573200226,5.47049343585968 39.94658887386322,4.77445013821125 39.94658887386322,4.77445013821125 41.101813316345215,4.110579192638397 41.101813316345215,4.110579192638397 42.27999746799469,3.4871574491262436 42.27999746799469,3.4871574491262436 43.564170598983765,2.912995219230652 43.564170598983765,2.912995219230652 45.037370920181274,2.396436221897602 45.037370920181274,2.396436221897602 46.78264558315277,1.9460907205939293 46.78264558315277,1.9460907205939293 48.88300597667694,1.5705691650509834 48.88300597667694,1.5705691650509834 51.42148733139038,1.278348546475172 51.42148733139038,1.278348546475172 54.097700119018555,1.069028303027153 54.097700119018555,1.069028303027153 56.55977725982666,0.9319956414401531 56.55977725982666,0.9319956414401531 58.81362557411194,0.8606425486505032 58.81362557411194,0.8606425486505032 60.865092277526855,0.8484276942908764 60.865092277526855,0.8484276942908764 62.72006034851074,0.8884094655513763 62.72006034851074,0.8884094655513763 64.38440680503845,0.9740465320646763 64.38440680503845,0.9740465320646763 65.8639907836914,1.0986641980707645 65.8639907836914,1.0986641980707645 67.16469526290894,1.2556543573737144 67.16469526290894,1.2556543573737144 68.34568381309509,1.425460074096918 68.34568381309509,1.425460074096918 69.47005987167358,1.6016067937016487 69.47005987167358,1.6016067937016487 70.54957747459412,1.7971102148294449 70.54957747459412,1.7971102148294449 71.59597873687744,2.0245857536792755 71.59597873687744,2.0245857536792755 72.62101769447327,2.296915650367737 72.62101769447327,2.296915650367737 73.63646626472473,2.6269154623150826 73.63646626472473,2.6269154623150826 74.65404868125916,3.0274005606770515 74.65404868125916,3.0274005606770515 75.68554878234863,3.5111866891384125 75.68554878234863,3.5111866891384125 76.9094467163086,4.148758947849274 76.9094467163086,4.148758947849274 78.4067451953888,4.950730502605438 78.4067451953888,4.950730502605438 80.0428569316864,5.840408056974411 80.0428569316864,5.840408056974411 81.68324828147888,6.740698963403702 81.68324828147888,6.740698963403702 83.1933319568634,7.574775815010071 83.1933319568634,7.574775815010071 84.43856835365295,8.265745639801025 84.43856835365295,8.265745639801025 85.28437614440918,8.736716210842133 85.28437614440918,8.736716210842133 85.59622168540955,8.91079381108284 85.59622168540955,8.91079381108284 85.64988374710083,8.912196010351181 85.64988374710083,8.912196010351181 85.81452369689941,8.917802572250366 85.81452369689941,8.917802572250366 86.09562516212463,8.929683268070221 86.09562516212463,8.929683268070221 86.4986777305603,8.950041234493256 86.4986777305603,8.950041234493256 87.0291531085968,8.980812132358551 87.0291531085968,8.980812132358551 87.6925528049469,9.024198353290558 87.6925528049469,9.024198353290558 88.49434852600098,9.08220186829567 88.49434852600098,9.08220186829567 89.44000601768494,9.157092124223709 89.44000601768494,9.157092124223709 93.89720559120178,6.535182893276215 93.89720559120178,6.535182893276215 93.89720559120178,4.511064291000366 93.89720559120178,4.511064291000366 93.64023208618164,4.511064291000366 93.64023208618164,4.511064291000366 93.56765747070312,4.503722116351128 93.56765747070312,4.503722116351128 93.49995851516724,4.482563212513924 93.49995851516724,4.482563212513924 93.43860149383545,4.449189454317093 93.43860149383545,4.449189454317093 93.38509440422058,4.404935985803604 93.38509440422058,4.404935985803604 93.34089159965515,4.351404309272766 93.34089159965515,4.351404309272766 93.3074951171875,4.290063306689262 93.3074951171875,4.290063306689262 93.28636527061462,4.222381487488747 93.28636527061462,4.222381487488747 93.27899217605591,4.149826988577843 93.27899217605591,4.149826988577843 93.27899217605591,0.3612375818192959 93.27899217605591,0.3612375818192959 93.28635931015015,0.28861628379672766 93.28635931015015,0.28861628379672766 93.3074951171875,0.22093430161476135 93.3074951171875,0.22093430161476135 93.3409035205841,0.15952656976878643 93.3409035205841,0.15952656976878643 93.38509440422058,0.1061285613104701 93.38509440422058,0.1061285613104701 93.4386134147644,0.06187495309859514 93.4386134147644,0.06187495309859514 93.49995851516724,0.028501191991381347 93.49995851516724,0.028501191991381347 93.56765747070312,0.0073422270361334085 93.56765747070312,0.0073422270361334085 93.64023208618164,0.0 93.64023208618164,0.0 99.63876008987427,0.0 99.63876008987427,0.0 99.71131682395935,0.0073422270361334085 99.71131682395935,0.0073422270361334085 99.77900981903076,0.028501191991381347 99.77900981903076,0.028501191991381347 99.8403549194336,0.061941699823364615 99.8403549194336,0.061941699823364615 99.89387392997742,0.10606180876493454 99.89387392997742,0.10606180876493454 99.93807673454285,0.15952656976878643 99.93807673454285,0.15952656976878643 99.97149109840393,0.22093430161476135 99.97149109840393,0.22093430161476135 99.99262690544128,0.28861628379672766 99.99262690544128,0.28861628379672766" stroke="white" stroke-width="0.1" /><polygon points="58.7121844291687,10.095295310020447 58.7121844291687,10.095295310020447 61.08158826828003,2.5996824726462364 61.08158826828003,2.5996824726462364 60.9271764755249,2.588001638650894 60.9271764755249,2.588001638650894 60.47852039337158,2.561970055103302 60.47852039337158,2.561970055103302 59.7575306892395,2.5348039343953133 59.7575306892395,2.5348039343953133 58.78611207008362,2.519919164478779 58.78611207008362,2.519919164478779 57.5861394405365,2.530665509402752 57.5861394405365,2.530665509402752 56.17953538894653,2.5804592296481133 56.17953538894653,2.5804592296481133 54.58819270133972,2.6825161650776863 54.58819270133972,2.6825161650776863 52.83399820327759,2.850252576172352 52.83399820327759,2.850252576172352 51.06464624404907,3.0733896419405937 51.06464624404907,3.0733896419405937 49.392738938331604,3.3493906259536743 49.392738938331604,3.3493906259536743 47.78757989406586,3.7032857537269592 47.78757989406586,3.7032857537269592 46.21845185756683,4.160306230187416 46.21845185756683,4.160306230187416 44.65465843677521,4.745481908321381 44.65465843677521,4.745481908321381 43.0654913187027,5.483909696340561 43.0654913187027,5.483909696340561 41.420239210128784,6.400686502456665 41.420239210128784,6.400686502456665 39.68820869922638,7.520843297243118 39.68820869922638,7.520843297243118 39.668670296669006,7.570904493331909 39.668670296669006,7.570904493331909 39.61735665798187,7.703464478254318 39.61735665798187,7.703464478254318 39.54520225524902,7.892093062400818 39.54520225524902,7.892093062400818 39.463186264038086,8.110357820987701 39.463186264038086,8.110357820987701 39.38223719596863,8.331826329231262 39.38223719596863,8.331826329231262 39.31329548358917,8.530066162347794 39.31329548358917,8.530066162347794 39.26733136177063,8.678646385669708 39.26733136177063,8.678646385669708 39.25528526306152,8.75113382935524 39.25528526306152,8.75113382935524 39.26687240600586,8.815077692270279 39.26687240600586,8.815077692270279 39.28379416465759,8.942298591136932 39.28379416465759,8.942298591136932 39.3049955368042,9.112772345542908 39.3049955368042,9.112772345542908 39.32939171791077,9.306473284959793 39.32939171791077,9.306473284959793 39.35592472553253,9.503378719091415 39.35592472553253,9.503378719091415 39.383524656295776,9.683462977409363 39.383524656295776,9.683462977409363 39.411115646362305,9.826703369617462 39.411115646362305,9.826703369617462 39.43763971328735,9.913074970245361 39.43763971328735,9.913074970245361 39.48466181755066,9.99150276184082 39.48466181755066,9.99150276184082 39.56614434719086,10.113117098808289 39.56614434719086,10.113117098808289 39.66950178146362,10.261496901512146 39.66950178146362,10.261496901512146 39.78219032287598,10.419955104589462 39.78219032287598,10.419955104589462 39.89169001579285,10.572072863578796 39.89169001579285,10.572072863578796 39.985427260398865,10.701096057891846 39.985427260398865,10.701096057891846 40.050873160362244,10.790804773569107 40.050873160362244,10.790804773569107 40.075477957725525,10.824312269687653 40.075477957725525,10.824312269687653" stroke="white" stroke-width="0.1" /><polygon points="72.86038994789124,9.571327269077301 72.86038994789124,9.571327269077301 73.2514500617981,9.531545639038086 73.2514500617981,9.531545639038086 73.6051082611084,9.449580311775208 73.6051082611084,9.449580311775208 73.92247915267944,9.330235421657562 73.92247915267944,9.330235421657562 74.2046058177948,9.178318083286285 74.2046058177948,9.178318083286285 74.45255517959595,8.998633921146393 74.45255517959595,8.998633921146393 74.66740012168884,8.7959885597229 74.66740012168884,8.7959885597229 74.85021352767944,8.575187623500824 74.85021352767944,8.575187623500824 75.00205039978027,8.34103748202324 75.00205039978027,8.34103748202324 75.10325312614441,8.09173509478569 75.10325312614441,8.09173509478569 75.13235807418823,7.824878394603729 75.13235807418823,7.824878394603729 75.08776783943176,7.544071972370148 75.08776783943176,7.544071972370148 74.96787905693054,7.253052294254303 74.96787905693054,7.253052294254303 74.77110624313354,6.955759227275848 74.77110624313354,6.955759227275848 74.4958221912384,6.655662506818771 74.4958221912384,6.655662506818771 74.140465259552,6.3567668199539185 74.140465259552,6.3567668199539185 73.70341420173645,6.062677130103111 73.70341420173645,6.062677130103111 73.08133244514465,5.695299059152603 73.08133244514465,5.695299059152603 72.18692898750305,5.2083756774663925 72.18692898750305,5.2083756774663925 71.04259729385376,4.652969539165497 71.04259729385376,4.652969539165497 69.67079639434814,4.080476239323616 69.67079639434814,4.080476239323616 68.09394955635071,3.5422910004854202 68.09394955635071,3.5422910004854202 66.33447408676147,3.089475817978382 66.33447408676147,3.089475817978382 64.41481709480286,2.7733594179153442 64.41481709480286,2.7733594179153442 62.357401847839355,2.6452042162418365 62.357401847839355,2.6452042162418365 62.33457326889038,2.7135537937283516 62.33457326889038,2.7135537937283516 60.12469530105591,10.026945918798447 60.12469530105591,10.026945918798447 60.627079010009766,10.00925824046135 60.627079010009766,10.00925824046135 61.96086406707764,9.962201118469238 61.96086406707764,9.962201118469238 63.86599540710449,9.894786030054092 63.86599540710449,9.894786030054092 66.08244776725769,9.816224128007889 66.08244776725769,9.816224128007889 68.35016012191772,9.735526144504547 68.35016012191772,9.735526144504547 70.40907144546509,9.661770612001419 70.40907144546509,9.661770612001419 71.99918031692505,9.604033827781677 71.99918031692505,9.604033827781677" stroke="white" stroke-width="0.1" /></svg>