<?xml version="1.0" encoding="utf-8" ?>
<svg baseProfile="full" height="29.014423489570618" version="1.1" width="99.99986290931702" xmlns="http://www.w3.org/2000/svg" xmlns:ev="http://www.w3.org/2001/xml-events" xmlns:xlink="http://www.w3.org/1999/xlink"><defs><clipPath /></defs><polygon points="17.147403955459595,14.429599046707153 17.147403955459595,14.429599046707153 18.61783117055893,14.577561616897583 18.61783117055893,14.577561616897583 19.987432658672333,15.001940727233887 19.987432658672333,15.001940727233887 21.226854622364044,15.673542022705078 21.226854622364044,15.673542022705078 22.306761145591736,16.5632426738739 22.306761145591736,16.5632426738739 23.197761178016663,17.64184832572937 23.197761178016663,17.64184832572937 23.870572447776794,18.880096077919006 23.870572447776794,18.880096077919006 24.29576963186264,20.249003171920776 24.29576963186264,20.249003171920776 24.444018304347992,21.71909213066101 24.444018304347992,21.71909213066101 24.443839490413666,21.76893502473831 24.443839490413666,21.76893502473831 24.443288147449493,21.81849330663681 24.443288147449493,21.81849330663681 24.442380666732788,21.86819463968277 24.442380666732788,21.86819463968277 24.441133439540863,21.91775292158127 24.441133439540863,21.91775292158127 24.43956732749939,21.967168152332306 24.43956732749939,21.967168152332306 24.437645077705383,22.016584873199463 24.437645077705383,22.016584873199463 24.435438215732574,22.06585705280304 24.435438215732574,22.06585705280304 24.43290948867798,22.114989161491394 24.43290948867798,22.114989161491394 24.220649898052216,23.51529747247696 24.220649898052216,23.51529747247696 23.75575453042984,24.814993143081665 23.75575453042984,24.814993143081665 23.064786195755005,25.987660884857178 23.064786195755005,25.987660884857178 22.17426598072052,27.00645625591278 22.17426598072052,27.00645625591278 21.110719442367554,27.845174074172974 21.110719442367554,27.845174074172974 19.900724291801453,28.47711443901062 19.900724291801453,28.47711443901062 18.570783734321594,28.875645995140076 18.570783734321594,28.875645995140076 17.147403955459595,29.014423489570618 17.147403955459595,29.014423489570618 15.727479755878448,28.875860571861267 15.727479755878448,28.875860571861267 14.40022736787796,28.477898240089417 14.40022736787796,28.477898240089417 13.192206621170044,27.84688174724579 13.192206621170044,27.84688174724579 12.129941582679749,27.009302377700806 12.129941582679749,27.009302377700806 11.240027099847794,25.991863012313843 11.240027099847794,25.991863012313843 10.548951476812363,24.820761382579803 10.548951476812363,24.820761382579803 10.08327379822731,23.522701859474182 10.08327379822731,23.522701859474182 9.869588911533356,22.12396115064621 9.869588911533356,22.12396115064621 9.866990149021149,22.073619067668915 9.866990149021149,22.073619067668915 9.86471176147461,22.02320545911789 9.86471176147461,22.02320545911789 9.862717986106873,21.972721815109253 9.862717986106873,21.972721815109253 9.86102670431137,21.922166645526886 9.86102670431137,21.922166645526886 9.859691560268402,21.87161147594452 9.859691560268402,21.87161147594452 9.858712553977966,21.82091474533081 9.858712553977966,21.82091474533081 9.858107566833496,21.77007347345352 9.858107566833496,21.77007347345352 9.857911616563797,21.71909213066101 9.857911616563797,21.71909213066101 10.006159543991089,20.249003171920776 10.006159543991089,20.249003171920776 10.431268066167831,18.880167603492737 10.431268066167831,18.880167603492737 11.103812605142593,17.64177829027176 11.103812605142593,17.64177829027176 11.994332820177078,16.563314199447632 11.994332820177078,16.563314199447632 13.073401153087616,15.673613548278809 13.073401153087616,15.673613548278809 14.311559498310089,15.001869201660156 14.311559498310089,15.001869201660156 15.679380297660828,14.577561616897583 15.679380297660828,14.577561616897583" stroke="white" stroke-width="0.1" /><polygon points="77.93599367141724,14.429599046707153 77.93599367141724,14.429599046707153 79.40183281898499,14.576707780361176 79.40183281898499,14.576707780361176 80.76719641685486,14.998950064182281 80.76719641685486,14.998950064182281 82.00307488441467,15.667133033275604 82.00307488441467,15.667133033275604 83.08050632476807,16.55241996049881 83.08050632476807,16.55241996049881 83.97049307823181,17.625899612903595 83.97049307823181,17.625899612903595 84.64401364326477,18.858592212200165 84.64401364326477,18.858592212200165 85.07211208343506,20.221517980098724 85.07211208343506,20.221517980098724 85.22577285766602,21.68576717376709 85.22577285766602,21.68576717376709 85.22584438323975,21.689969301223755 85.22584438323975,21.689969301223755 85.22596955299377,21.6941699385643 85.22596955299377,21.6941699385643 85.2260947227478,21.698300540447235 85.2260947227478,21.698300540447235 85.2262556552887,21.70250117778778 85.2262556552887,21.70250117778778 85.22639870643616,21.706560254096985 85.22639870643616,21.706560254096985 85.22652387619019,21.71083241701126 85.22652387619019,21.71083241701126 85.22661328315735,21.714961528778076 85.22661328315735,21.714961528778076 85.22663116455078,21.71909213066101 85.22663116455078,21.71909213066101 85.07857918739319,23.189322650432587 85.07857918739319,23.189322650432587 84.6539318561554,24.55872893333435 84.6539318561554,24.55872893333435 83.98193717002869,25.797900557518005 83.98193717002869,25.797900557518005 83.09187889099121,26.877576112747192 83.09187889099121,26.877576112747192 82.01298713684082,27.768486738204956 82.01298713684082,27.768486738204956 80.77452778816223,28.441083431243896 80.77452778816223,28.441083431243896 79.40580248832703,28.866246342658997 79.40580248832703,28.866246342658997 77.93599367141724,29.014423489570618 77.93599367141724,29.014423489570618 76.51790380477905,28.876641392707825 76.51790380477905,28.876641392707825 75.19283890724182,28.480815887451172 75.19283890724182,28.480815887451172 73.98690581321716,27.85314917564392 73.98690581321716,27.85314917564392 72.92622327804565,27.019840478897095 72.92622327804565,27.019840478897095 72.03693389892578,26.007455587387085 72.03693389892578,26.007455587387085 71.34514451026917,24.84183758497238 71.34514451026917,24.84183758497238 70.87700963020325,23.5495463013649 70.87700963020325,23.5495463013649 70.65860629081726,22.156715393066406 70.65860629081726,22.156715393066406 70.65554857254028,22.102314233779907 70.65554857254028,22.102314233779907 70.65278887748718,22.047843039035797 70.65278887748718,22.047843039035797 70.65035104751587,21.993371844291687 70.65035104751587,21.993371844291687 70.64828276634216,21.938686072826385 70.64828276634216,21.938686072826385 70.64662575721741,21.883930265903473 70.64662575721741,21.883930265903473 70.6453800201416,21.82910293340683 70.6453800201416,21.82910293340683 70.64463496208191,21.774275600910187 70.64463496208191,21.774275600910187 70.64436674118042,21.71909213066101 70.64436674118042,21.71909213066101 70.79241871833801,20.249003171920776 70.79241871833801,20.249003171920776 71.2170660495758,18.880167603492737 71.2170660495758,18.880167603492737 71.88906073570251,17.64177829027176 71.88906073570251,17.64177829027176 72.77918457984924,16.563314199447632 72.77918457984924,16.563314199447632 73.85818362236023,15.673613548278809 73.85818362236023,15.673613548278809 75.09682178497314,15.001869201660156 75.09682178497314,15.001869201660156 76.46583914756775,14.577561616897583 76.46583914756775,14.577561616897583" stroke="white" stroke-width="0.1" /><polygon points="99.99986290931702,15.309828519821167 99.99986290931702,15.309828519821167 99.94649291038513,15.502794086933136 99.94649291038513,15.502794086933136 99.81154203414917,15.659300982952118 99.81154203414917,15.659300982952118 99.62098002433777,15.784193575382233 99.62098002433777,15.784193575382233 99.40076470375061,15.881957113742828 99.40076470375061,15.881957113742828 99.17689561843872,15.957434475421906 99.17689561843872,15.957434475421906 98.97537231445312,16.015039384365082 98.97537231445312,16.015039384365082 98.82217049598694,16.05968475341797 98.82217049598694,16.05968475341797 98.74324202537537,16.095784306526184 98.74324202537537,16.095784306526184 98.71629476547241,16.164426505565643 98.71629476547241,16.164426505565643 98.69042634963989,16.29914492368698 98.69042634963989,16.29914492368698 98.64864945411682,16.492964327335358 98.64864945411682,16.492964327335358 98.57398867607117,16.738761961460114 98.57398867607117,16.738761961460114 98.44954013824463,17.02977418899536 98.44954013824463,17.02977418899536 98.258376121521,17.3588827252388 98.258376121521,17.3588827252388 97.98349142074585,17.719461023807526 97.98349142074585,17.719461023807526 97.60795831680298,18.104322254657745 97.60795831680298,18.104322254657745 97.13993072509766,18.50520372390747 97.13993072509766,18.50520372390747 96.62191867828369,18.907366693019867 96.62191867828369,18.907366693019867 96.08855843544006,19.29393708705902 96.08855843544006,19.29393708705902 95.5744981765747,19.64803636074066 95.5744981765747,19.64803636074066 95.1143741607666,19.952720403671265 95.1143741607666,19.952720403671265 94.7428286075592,20.191185176372528 94.7428286075592,20.191185176372528 94.49450373649597,20.3465536236763 94.49450373649597,20.3465536236763 94.40403580665588,20.40223479270935 94.40403580665588,20.40223479270935 97.79892563819885,20.052620768547058 97.79892563819885,20.052620768547058 97.76902198791504,21.0003525018692 97.76902198791504,21.0003525018692 97.6183533668518,21.023423969745636 97.6183533668518,21.023423969745636 97.21072316169739,21.083520352840424 97.21072316169739,21.083520352840424 96.6126799583435,21.167398989200592 96.6126799583435,21.167398989200592 95.89077234268188,21.261674165725708 95.89077234268188,21.261674165725708 95.1115608215332,21.35288715362549 95.1115608215332,21.35288715362549 94.34159398078918,21.42786532640457 94.34159398078918,21.42786532640457 93.64742040634155,21.473151445388794 93.64742040634155,21.473151445388794 93.09558272361755,21.47521674633026 93.09558272361755,21.47521674633026 92.66160726547241,21.44780308008194 92.66160726547241,21.44780308008194 92.27482676506042,21.411773562431335 92.27482676506042,21.411773562431335 91.93078279495239,21.36848121881485 91.93078279495239,21.36848121881485 91.62503480911255,21.319136023521423 91.62503480911255,21.319136023521423 91.35310053825378,21.265162527561188 91.35310053825378,21.265162527561188 91.11049175262451,21.207772195339203 91.11049175262451,21.207772195339203 90.89281558990479,21.14831656217575 90.89281558990479,21.14831656217575 90.69556593894958,21.088077127933502 90.69556593894958,21.088077127933502 90.3835117816925,21.068638563156128 90.3835117816925,21.068638563156128 89.87129926681519,21.11399620771408 89.87129926681519,21.11399620771408 89.22675848007202,21.205422282218933 89.22675848007202,21.205422282218933 88.51771950721741,21.32362127304077 88.51771950721741,21.32362127304077 87.81195878982544,21.449653804302216 87.81195878982544,21.449653804302216 87.17729449272156,21.564435958862305 87.17729449272156,21.564435958862305 86.68153285980225,21.64902687072754 86.68153285980225,21.64902687072754 86.39253377914429,21.684344112873077 86.39253377914429,21.684344112873077 86.20825409889221,19.988393783569336 86.20825409889221,19.988393783569336 85.69455146789551,18.40808093547821 85.69455146789551,18.40808093547821 84.88888740539551,16.97765290737152 84.88888740539551,16.97765290737152 83.82861614227295,15.731075406074524 83.82861614227295,15.731075406074524 82.55118727684021,14.702169597148895 82.55118727684021,14.702169597148895 81.09404444694519,13.925185799598694 81.09404444694519,13.925185799598694 79.49455976486206,13.434159755706787 79.49455976486206,13.434159755706787 77.79017090797424,13.26284110546112 77.79017090797424,13.26284110546112 75.1144289970398,13.66293877363205 75.1144289970398,13.66293877363205 73.06927442550659,14.717692136764526 73.06927442550659,14.717692136764526 71.57031297683716,16.20885729789734 71.57031297683716,16.20885729789734 70.53312659263611,17.918193340301514 70.53312659263611,17.918193340301514 69.87336277961731,19.62760090827942 69.87336277961731,19.62760090827942 69.50655579566956,21.118837594985962 69.50655579566956,21.118837594985962 69.34838891029358,22.17358946800232 69.34838891029358,22.17358946800232 69.31440830230713,22.573688626289368 69.31440830230713,22.573688626289368 69.27111744880676,22.610002756118774 69.27111744880676,22.610002756118774 69.14277076721191,22.705700993537903 69.14277076721191,22.705700993537903 68.93172264099121,22.841133177280426 68.93172264099121,22.841133177280426 68.6402440071106,22.996287047863007 68.6402440071106,22.996287047863007 68.27065944671631,23.151513934135437 68.27065944671631,23.151513934135437 67.82529354095459,23.28680157661438 67.82529354095459,23.28680157661438 67.30644106864929,23.382501304149628 67.30644106864929,23.382501304149628 66.71643853187561,23.418886959552765 66.71643853187561,23.418886959552765 27.17812955379486,23.545630276203156 27.17812955379486,23.545630276203156 25.551676750183105,22.702141106128693 25.551676750183105,22.702141106128693 25.610631704330444,21.71909213066101 25.610631704330444,21.71909213066101 25.43838918209076,20.017018914222717 25.43838918209076,20.017018914222717 24.944496154785156,18.430723249912262 24.944496154785156,18.430723249912262 24.16325807571411,16.994385421276093 24.16325807571411,16.994385421276093 23.128995299339294,15.74246734380722 23.128995299339294,15.74246734380722 21.87599092721939,14.709004759788513 21.87599092721939,14.709004759788513 20.43849527835846,13.928389549255371 20.43849527835846,13.928389549255371 18.85090172290802,13.435013592243195 18.85090172290802,13.435013592243195 17.147403955459595,13.26284110546112 17.147403955459595,13.26284110546112 15.445366501808167,13.434942066669464 15.445366501808167,13.434942066669464 13.859108090400696,13.928461074829102 13.859108090400696,13.928461074829102 12.422841042280197,14.709004759788513 12.422841042280197,14.709004759788513 11.170870065689087,15.74246734380722 11.170870065689087,15.74246734380722 10.137460380792618,16.994456946849823 10.137460380792618,16.994456946849823 9.356880933046341,18.43065321445465 9.356880933046341,18.43065321445465 8.863397687673569,20.01708894968033 8.863397687673569,20.01708894968033 8.691296726465225,21.71909213066101 8.691296726465225,21.71909213066101 8.711518347263336,22.275198996067047 8.711518347263336,22.275198996067047 5.269491672515869,22.974997758865356 5.269491672515869,22.974997758865356 3.6972954869270325,23.51287603378296 3.6972954869270325,23.51287603378296 4.671658203005791,21.846547722816467 4.671658203005791,21.846547722816467 3.1330708414316177,21.120688319206238 3.1330708414316177,21.120688319206238 3.1094662845134735,21.063226461410522 3.1094662845134735,21.063226461410522 3.0445635318756104,20.907573401927948 3.0445635318756104,20.907573401927948 2.947244606912136,20.67907750606537 2.947244606912136,20.67907750606537 2.8263570740818977,20.403018593788147 2.8263570740818977,20.403018593788147 2.690766006708145,20.1047420501709 2.690766006708145,20.1047420501709 2.5493359193205833,19.809599220752716 2.5493359193205833,19.809599220752716 2.4109499529004097,19.54265385866165 2.4109499529004097,19.54265385866165 2.2844551131129265,19.32946741580963 2.2844551131129265,19.32946741580963 2.1618764847517014,19.16356086730957 2.1618764847517014,19.16356086730957 2.033850736916065,19.018517434597015 2.033850736916065,19.018517434597015 1.9070710986852646,18.89476329088211 1.9070710986852646,18.89476329088211 1.7882661893963814,18.792586028575897 1.7882661893963814,18.792586028575897 1.6841651871800423,18.71255189180374 1.6841651871800423,18.71255189180374 1.6014790162444115,18.654875457286835 1.6014790162444115,18.654875457286835 1.546936295926571,18.61991435289383 1.546936295926571,18.61991435289383 1.5272660180926323,18.6081662774086 1.5272660180926323,18.6081662774086 1.4676322229206562,18.580324947834015 1.4676322229206562,18.580324947834015 1.3096828013658524,18.503637611865997 1.3096828013658524,18.503637611865997 1.0847654193639755,18.388570845127106 1.0847654193639755,18.388570845127106 0.8242459036409855,18.245378136634827 0.8242459036409855,18.245378136634827 0.5594896152615547,18.08466911315918 0.5594896152615547,18.08466911315918 0.3219156991690397,17.91669875383377 0.3219156991690397,17.91669875383377 0.1428362913429737,17.75185912847519 0.1428362913429737,17.75185912847519 0.05361701478250325,17.600621283054352 0.05361701478250325,17.600621283054352 0.023995927767828107,17.44397133588791 0.023995927767828107,17.44397133588791 0.007191657641669735,17.26538985967636 0.007191657641669735,17.26538985967636 0.0004984317456546705,17.07805097103119 0.0004984317456546705,17.07805097103119 0.0011392725355108269,16.895127296447754 0.0011392725355108269,16.895127296447754 0.006408408080460504,16.729789972305298 0.006408408080460504,16.729789972305298 0.013564463006332517,16.595427691936493 0.013564463006332517,16.595427691936493 0.019866065122187138,16.50514006614685 0.019866065122187138,16.50514006614685 0.022571836598217487,16.47202968597412 0.022571836598217487,16.47202968597412 0.4319978877902031,16.505353152751923 0.4319978877902031,16.505353152751923 0.42712041176855564,16.343149542808533 0.42712041176855564,16.343149542808533 0.41530043818056583,15.91414213180542 0.41530043818056583,15.91414213180542 0.40068570524454117,15.304702520370483 0.40068570524454117,15.304702520370483 0.38745945785194635,14.601202309131622 0.38745945785194635,14.601202309131622 0.37980498746037483,13.890153169631958 0.37980498746037483,13.890153169631958 0.3818877041339874,13.257785141468048 0.3818877041339874,13.257785141468048 0.3978909458965063,12.790754437446594 0.3978909458965063,12.790754437446594 0.4319978877902031,12.575148046016693 0.4319978877902031,12.575148046016693 0.5083647556602955,12.486427277326584 0.5083647556602955,12.486427277326584 0.6615079008042812,12.34736442565918 0.6615079008042812,12.34736442565918 0.9111153893172741,12.16629147529602 0.9111153893172741,12.16629147529602 1.2768752872943878,11.951039731502533 1.2768752872943878,11.951039731502533 1.7784755676984787,11.709728091955185 1.7784755676984787,11.709728091955185 2.435622364282608,11.450116336345673 2.435622364282608,11.450116336345673 3.2679855823516846,11.180607229471207 3.2679855823516846,11.180607229471207 4.295270889997482,10.909032821655273 4.295270889997482,10.909032821655273 5.490154400467873,10.608122497797012 5.490154400467873,10.608122497797012 6.783940643072128,10.263421386480331 6.783940643072128,10.263421386480331 8.133800327777863,9.895578771829605 8.133800327777863,9.895578771829605 9.496922791004181,9.524817019701004 9.496922791004181,9.524817019701004 10.830458998680115,9.171784669160843 10.830458998680115,9.171784669160843 12.09159791469574,8.856775611639023 12.09159791469574,8.856775611639023 13.237492740154266,8.600368350744247 13.237492740154266,8.600368350744247 14.225313067436218,8.42306911945343 14.225313067436218,8.42306911945343 15.281027555465698,8.2881361246109 15.281027555465698,8.2881361246109 16.613228619098663,8.144374191761017 16.613228619098663,8.144374191761017 18.160200119018555,7.998049259185791 18.160200119018555,7.998049259185791 19.86020803451538,7.855426520109177 19.86020803451538,7.855426520109177 21.65157198905945,7.722985744476318 21.65157198905945,7.722985744476318 23.472538590431213,7.606709003448486 23.472538590431213,7.606709003448486 25.261446833610535,7.5132884085178375 25.261446833610535,7.5132884085178375 26.95654034614563,7.448848336935043 26.95654034614563,7.448848336935043 28.42559814453125,7.407265156507492 28.42559814453125,7.407265156507492 29.5981228351593,7.373371720314026 29.5981228351593,7.373371720314026 30.50512671470642,7.3464564979076385 30.50512671470642,7.3464564979076385 31.1776340007782,7.325949519872665 31.1776340007782,7.325949519872665 31.64667785167694,7.31106773018837 31.64667785167694,7.31106773018837 31.943297386169434,7.301312685012817 31.943297386169434,7.301312685012817 32.098522782325745,7.295829802751541 32.098522782325745,7.295829802751541 32.14336335659027,7.294192165136337 32.14336335659027,7.294192165136337 32.19368755817413,7.293195277452469 32.19368755817413,7.293195277452469 32.322052121162415,7.292910665273666 32.322052121162415,7.292910665273666 32.49465227127075,7.297112047672272 32.49465227127075,7.297112047672272 32.67757594585419,7.309430092573166 32.67757594585419,7.309430092573166 32.83700346946716,7.333782315254211 32.83700346946716,7.333782315254211 32.93905556201935,7.3739416897296906 32.93905556201935,7.3739416897296906 32.94986188411713,7.433539628982544 32.94986188411713,7.433539628982544 32.8356146812439,7.5164929032325745 32.8356146812439,7.5164929032325745 32.614025473594666,7.600443065166473 32.614025473594666,7.600443065166473 32.34458863735199,7.669725269079208 32.34458863735199,7.669725269079208 32.05311298370361,7.729607820510864 32.05311298370361,7.729607820510864 31.765392422676086,7.785859704017639 31.765392422676086,7.785859704017639 31.50729537010193,7.843606919050217 31.50729537010193,7.843606919050217 31.304627656936646,7.908331602811813 31.304627656936646,7.908331602811813 31.183207035064697,7.985588163137436 31.183207035064697,7.985588163137436 31.16886019706726,8.080717921257019 31.16886019706726,8.080717921257019 31.335869431495667,8.16132128238678 31.335869431495667,8.16132128238678 31.705278158187866,8.191583305597305 31.705278158187866,8.191583305597305 32.223913073539734,8.171076327562332 32.223913073539734,8.171076327562332 32.83856809139252,8.099444210529327 32.83856809139252,8.099444210529327 33.49603712558746,7.976260781288147 33.49603712558746,7.976260781288147 34.14310812950134,7.8011684119701385 34.14310812950134,7.8011684119701385 34.7266286611557,7.57402628660202 34.7266286611557,7.57402628660202 35.19333899021149,7.294192165136337 35.19333899021149,7.294192165136337 35.81271171569824,6.78415447473526 35.81271171569824,6.78415447473526 36.806121468544006,5.947714671492577 36.806121468544006,5.947714671492577 38.040611147880554,4.902930557727814 38.040611147880554,4.902930557727814 39.38320875167847,3.7680014967918396 39.38320875167847,3.7680014967918396 40.700939297676086,2.661340683698654 40.700939297676086,2.661340683698654 41.86082482337952,1.700720191001892 41.86082482337952,1.700720191001892 42.72991120815277,1.0045535862445831 42.72991120815277,1.0045535862445831 43.17522346973419,0.6909688003361225 43.17522346973419,0.6909688003361225 43.44795644283295,0.599257368594408 43.44795644283295,0.599257368594408 43.90208125114441,0.49195210449397564 43.90208125114441,0.49195210449397564 44.55842673778534,0.37752643693238497 44.55842673778534,0.37752643693238497 45.437732338905334,0.2645960543304682 45.437732338905334,0.2645960543304682 46.56078815460205,0.16177670331671834 46.56078815460205,0.16177670331671834 47.948384284973145,0.0776841479819268 47.948384284973145,0.0776841479819268 49.62129890918732,0.020791724091395736 49.62129890918732,0.020791724091395736 51.6002893447876,0.0 51.6002893447876,0.0 53.946512937545776,0.015166566299740225 53.946512937545776,0.015166566299740225 56.60913586616516,0.0642264902126044 56.60913586616516,0.0642264902126044 59.44103002548218,0.15223529189825058 59.44103002548218,0.15223529189825058 62.29503154754639,0.2842484973371029 62.29503154754639,0.2842484973371029 65.02400040626526,0.46539283357560635 65.02400040626526,0.46539283357560635 67.48080253601074,0.7008662447333336 67.48080253601074,0.7008662447333336 69.51828598976135,0.9959378279745579 69.51828598976135,0.9959378279745579 70.98928093910217,1.3554494827985764 70.98928093910217,1.3554494827985764 72.37885594367981,1.9131233915686607 72.37885594367981,1.9131233915686607 74.16527271270752,2.7331147342920303 74.16527271270752,2.7331147342920303 76.19132399559021,3.716805577278137 76.19132399559021,3.716805577278137 78.29977869987488,4.765505716204643 78.29977869987488,4.765505716204643 80.33338189125061,5.780526250600815 80.33338189125061,5.780526250600815 82.13489055633545,6.663177907466888 82.13489055633545,6.663177907466888 83.54710936546326,7.314770668745041 83.54710936546326,7.314770668745041 84.41275954246521,7.636686414480209 84.41275954246521,7.636686414480209 85.31931638717651,7.8155517578125 85.31931638717651,7.8155517578125 86.82239055633545,8.078296482563019 86.82239055633545,8.078296482563019 88.71703743934631,8.386897295713425 88.71703743934631,8.386897295713425 90.79824090003967,8.702903240919113 90.79824090003967,8.702903240919113 92.86100268363953,8.988147974014282 92.86100268363953,8.988147974014282 94.7003722190857,9.204325079917908 94.7003722190857,9.204325079917908 96.1113452911377,9.313268214464188 96.1113452911377,9.313268214464188 96.88893556594849,9.276526421308517 96.88893556594849,9.276526421308517 97.2643792629242,9.145225584506989 97.2643792629242,9.145225584506989 97.6041316986084,9.001392126083374 97.6041316986084,9.001392126083374 97.90605306625366,8.853856474161148 97.90605306625366,8.853856474161148 98.1680154800415,8.711162954568863 98.1680154800415,8.711162954568863 98.38784337043762,8.582068979740143 98.38784337043762,8.582068979740143 98.56341481208801,8.47519114613533 98.56341481208801,8.47519114613533 98.69254231452942,8.399215340614319 98.69254231452942,8.399215340614319 98.77315163612366,8.36275890469551 98.77315163612366,8.36275890469551 98.82948994636536,8.365678042173386 98.82948994636536,8.365678042173386 98.88490438461304,8.401992172002792 98.88490438461304,8.401992172002792 98.93569350242615,8.471844345331192 98.93569350242615,8.471844345331192 98.97817969322205,8.575589209794998 98.97817969322205,8.575589209794998 99.008709192276,8.713868260383606 99.008709192276,8.713868260383606 99.02355670928955,8.886396884918213 99.02355670928955,8.886396884918213 99.0190863609314,9.093958139419556 99.0190863609314,9.093958139419556 98.99160265922546,9.336623549461365 98.99160265922546,9.336623549461365 98.94323945045471,9.591250866651535 98.94323945045471,9.591250866651535 98.88355135917664,9.833630919456482 98.88355135917664,9.833630919456482 98.82010817527771,10.06205528974533 98.82010817527771,10.06205528974533 98.7604022026062,10.274956375360489 98.7604022026062,10.274956375360489 98.71196746826172,10.47055572271347 98.71196746826172,10.47055572271347 98.68230819702148,10.647214204072952 98.68230819702148,10.647214204072952 98.67900013923645,10.803508013486862 98.67900013923645,10.803508013486862 98.70949387550354,10.937585681676865 98.70949387550354,10.937585681676865 98.75006079673767,11.16793230175972 98.75006079673767,11.16793230175972 98.77510666847229,11.573157459497452 98.77510666847229,11.573157459497452 98.78947138786316,12.091954052448273 98.78947138786316,12.091954052448273 98.79803657531738,12.662871181964874 98.79803657531738,12.662871181964874 98.80561828613281,13.22481781244278 98.80561828613281,13.22481781244278 98.81708025932312,13.715915381908417 98.81708025932312,13.715915381908417 98.83723258972168,14.075285196304321 98.83723258972168,14.075285196304321 98.87098670005798,14.241191744804382 98.87098670005798,14.241191744804382 98.95219206809998,14.30128812789917 98.95219206809998,14.30128812789917 99.09623861312866,14.383316040039062 99.09623861312866,14.383316040039062 99.28026795387268,14.486989378929138 99.28026795387268,14.486989378929138 99.48145747184753,14.611740410327911 99.48145747184753,14.611740410327911 99.67687726020813,14.756996929645538 99.67687726020813,14.756996929645538 99.84365701675415,14.921978116035461 99.84365701675415,14.921978116035461 99.95895624160767,15.10646939277649 99.95895624160767,15.10646939277649" stroke="white" stroke-width="0.1" /><polygon points="60.392481088638306,8.726685494184494 60.392481088638306,8.726685494184494 60.406118631362915,8.467642962932587 60.406118631362915,8.467642962932587 60.423558950424194,8.151210099458694 60.423558950424194,8.151210099458694 60.4442298412323,7.789348810911179 60.4442298412323,7.789348810911179 60.46754717826843,7.394661754369736 60.46754717826843,7.394661754369736 60.49291491508484,6.97953924536705 60.49291491508484,6.97953924536705 60.51977872848511,6.556086242198944 60.51977872848511,6.556086242198944 60.54754853248596,6.136833876371384 60.54754853248596,6.136833876371384 60.57561635971069,5.7339586317539215 60.57561635971069,5.7339586317539215 60.62006950378418,5.23766316473484 60.62006950378418,5.23766316473484 60.69100499153137,4.635201394557953 60.69100499153137,4.635201394557953 60.77842712402344,3.979906067252159 60.77842712402344,3.979906067252159 60.87236404418945,3.3245395869016647 60.87236404418945,3.3245395869016647 60.96281409263611,2.7225052937865257 60.96281409263611,2.7225052937865257 61.03978157043457,2.226708084344864 61.03978157043457,2.226708084344864 61.09331250190735,1.8903380259871483 61.09331250190735,1.8903380259871483 61.11335754394531,1.766442134976387 61.11335754394531,1.766442134976387 60.982996225357056,1.7520587891340256 60.982996225357056,1.7520587891340256 60.61314344406128,1.7131811007857323 60.61314344406128,1.7131811007857323 60.035640001297,1.6562175005674362 60.035640001297,1.6562175005674362 59.282296895980835,1.5874339267611504 59.282296895980835,1.5874339267611504 58.38497877120972,1.5132387168705463 58.38497877120972,1.5132387168705463 57.37549066543579,1.4398980885744095 57.37549066543579,1.4398980885744095 56.285691261291504,1.3738914392888546 56.285691261291504,1.3738914392888546 55.14741539955139,1.321413740515709 55.14741539955139,1.321413740515709 53.520673513412476,1.2864522635936737 53.520673513412476,1.2864522635936737 51.85311436653137,1.2906533665955067 51.85311436653137,1.2906533665955067 50.22415518760681,1.3234074227511883 50.22415518760681,1.3234074227511883 48.713210225105286,1.3741763308644295 48.713210225105286,1.3741763308644295 47.39975333213806,1.4322079718112946 47.39975333213806,1.4322079718112946 46.36322855949402,1.4868218451738358 46.36322855949402,1.4868218451738358 45.68304717540741,1.5273372642695904 45.68304717540741,1.5273372642695904 45.438674092292786,1.543287094682455 45.438674092292786,1.543287094682455 38.52599561214447,8.046966791152954 38.52599561214447,8.046966791152954 39.78218734264374,8.148647099733353 39.78218734264374,8.148647099733353 42.066746950149536,8.258017152547836 42.066746950149536,8.258017152547836 45.058050751686096,8.369167149066925 45.058050751686096,8.369167149066925 48.434534668922424,8.476044982671738 48.434534668922424,8.476044982671738 51.874566078186035,8.572456240653992 51.874566078186035,8.572456240653992 55.05651831626892,8.652418851852417 55.05651831626892,8.652418851852417 57.658833265304565,8.709952235221863 57.658833265304565,8.709952235221863 59.359872341156006,8.738789707422256 59.359872341156006,8.738789707422256 59.498900175094604,8.739928901195526 59.498900175094604,8.739928901195526 59.635114669799805,8.740285038948059 59.635114669799805,8.740285038948059 59.76848006248474,8.739786595106125 59.76848006248474,8.739786595106125 59.89897847175598,8.738647401332855 59.89897847175598,8.738647401332855 60.02665162086487,8.736653625965118 60.02665162086487,8.736653625965118 60.15145182609558,8.734090626239777 60.15145182609558,8.734090626239777 60.27340888977051,8.730743825435638 60.27340888977051,8.730743825435638" stroke="white" stroke-width="0.1" /><polygon points="60.94588041305542,8.697348833084106 60.94588041305542,8.697348833084106 61.57490611076355,8.641240000724792 61.57490611076355,8.641240000724792 62.12305426597595,8.565620332956314 62.12305426597595,8.565620332956314 62.60918378829956,8.474905788898468 62.60918378829956,8.474905788898468 63.052111864089966,8.373724669218063 63.052111864089966,8.373724669218063 63.47065567970276,8.266489952802658 63.47065567970276,8.266489952802658 63.88365626335144,8.157476037740707 63.88365626335144,8.157476037740707 64.30992484092712,8.051381260156631 64.30992484092712,8.051381260156631 64.76828455924988,7.952691614627838 64.76828455924988,7.952691614627838 65.41483998298645,7.82267227768898 65.41483998298645,7.82267227768898 66.12492799758911,7.676560431718826 66.12492799758911,7.676560431718826 66.85240268707275,7.524610310792923 66.85240268707275,7.524610310792923 67.55110025405884,7.377216964960098 67.55110025405884,7.377216964960098 68.17486882209778,7.2444915771484375 68.17486882209778,7.2444915771484375 68.67757439613342,7.13704377412796 68.67757439613342,7.13704377412796 69.01305317878723,7.065056264400482 69.01305317878723,7.065056264400482 69.13511753082275,7.0387102663517 69.13511753082275,7.0387102663517 68.88963580131531,6.8592749536037445 68.88963580131531,6.8592749536037445 68.23202967643738,6.380282342433929 68.23202967643738,6.380282342433929 67.28050708770752,5.6907374411821365 67.28050708770752,5.6907374411821365 66.15326404571533,4.879789054393768 66.15326404571533,4.879789054393768 64.96853232383728,4.036371409893036 64.96853232383728,4.036371409893036 63.84451389312744,3.249632567167282 63.84451389312744,3.249632567167282 62.89941668510437,2.608293294906616 62.89941668510437,2.608293294906616 62.251490354537964,2.2015729919075966 62.251490354537964,2.2015729919075966 62.179625034332275,2.1624816581606865 62.179625034332275,2.1624816581606865 62.10699677467346,2.1247433498501778 62.10699677467346,2.1247433498501778 62.03351616859436,2.0885713398456573 62.03351616859436,2.0885713398456573 61.95908784866333,2.0536812022328377 61.95908784866333,2.0536812022328377 61.88364624977112,2.020428702235222 61.88364624977112,2.020428702235222 61.807066202163696,1.9884578883647919 61.807066202163696,1.9884578883647919 61.72929406166077,1.9578399136662483 61.72929406166077,1.9578399136662483 61.650240421295166,1.9286459311842918 61.650240421295166,1.9286459311842918 61.62992715835571,2.044851705431938 61.62992715835571,2.044851705431938 61.608052253723145,2.173447236418724 61.608052253723145,2.173447236418724 61.584800481796265,2.313648909330368 61.584800481796265,2.313648909330368 61.56034469604492,2.464175224304199 61.56034469604492,2.464175224304199 61.53481602668762,2.624243125319481 61.53481602668762,2.624243125319481 61.50839924812317,2.792855352163315 61.50839924812317,2.792855352163315 61.481285095214844,2.968944236636162 61.481285095214844,2.968944236636162 61.45356893539429,3.1515125185251236 61.45356893539429,3.1515125185251236 61.40189170837402,3.490018844604492 61.40189170837402,3.490018844604492 61.350858211517334,3.838494047522545 61.350858211517334,3.838494047522545 61.30167245864868,4.1900306940078735 61.30167245864868,4.1900306940078735 61.255478858947754,4.538434371352196 61.255478858947754,4.538434371352196 61.213523149490356,4.876941069960594 61.213523149490356,4.876941069960594 61.176979541778564,5.1990702748298645 61.176979541778564,5.1990702748298645 61.147016286849976,5.49812912940979 61.147016286849976,5.49812912940979 61.12489104270935,5.7677097618579865 61.12489104270935,5.7677097618579865 61.100077629089355,6.157483160495758 61.100077629089355,6.157483160495758 61.07487082481384,6.563135236501694 61.07487082481384,6.563135236501694 61.049842834472656,6.9732025265693665 61.049842834472656,6.9732025265693665 61.025506258010864,7.376576215028763 61.025506258010864,7.376576215028763 61.002421379089355,7.761863619089127 61.002421379089355,7.761863619089127 60.98107695579529,8.117886632680893 60.98107695579529,8.117886632680893 60.96206307411194,8.433464914560318 60.96206307411194,8.433464914560318" stroke="white" stroke-width="0.1" /><polygon points="69.43674087524414,15.38487821817398 69.43674087524414,15.38487821817398 69.54728364944458,15.219826996326447 69.54728364944458,15.219826996326447 69.66218948364258,15.054845809936523 69.66218948364258,15.054845809936523 69.77561712265015,14.89684283733368 69.77561712265015,14.89684283733368 69.88162398338318,14.75236862897873 69.88162398338318,14.75236862897873 69.97433304786682,14.628259837627411 69.97433304786682,14.628259837627411 70.04786729812622,14.531278610229492 70.04786729812622,14.531278610229492 70.09629011154175,14.468120038509369 70.09629011154175,14.468120038509369 70.11374831199646,14.445549249649048 70.11374831199646,14.445549249649048 66.87081456184387,14.445549249649048 66.87081456184387,14.445549249649048 66.87081456184387,14.694266021251678 66.87081456184387,14.694266021251678 67.56420135498047,14.694266021251678 67.56420135498047,14.694266021251678 67.44251251220703,14.864657819271088 67.44251251220703,14.864657819271088 67.29714870452881,15.075424313545227 67.29714870452881,15.075424313545227 67.1357810497284,15.319085121154785 67.1357810497284,15.319085121154785 66.96613430976868,15.58845192193985 66.96613430976868,15.58845192193985 66.79588556289673,15.875905752182007 66.79588556289673,15.875905752182007 66.63275957107544,16.174323856830597 66.63275957107544,16.174323856830597 66.48442149162292,16.476158797740936 66.48442149162292,16.476158797740936 66.35856628417969,16.774222254753113 66.35856628417969,16.774222254753113 66.24138355255127,17.117640376091003 66.24138355255127,17.117640376091003 66.13174676895142,17.485269904136658 66.13174676895142,17.485269904136658 66.03113412857056,17.861372232437134 66.03113412857056,17.861372232437134 65.94098806381226,18.230070173740387 65.94098806381226,18.230070173740387 65.86275100708008,18.575696647167206 65.86275100708008,18.575696647167206 65.79791903495789,18.882587552070618 65.79791903495789,18.882587552070618 65.74791669845581,19.13493722677231 65.74791669845581,19.13493722677231 65.7141625881195,19.316935539245605 65.7141625881195,19.316935539245605 65.03373384475708,19.316935539245605 65.03373384475708,19.316935539245605 65.03373384475708,19.565582275390625 65.03373384475708,19.565582275390625 67.98701286315918,19.565582275390625 67.98701286315918,19.565582275390625 67.99036264419556,19.54251080751419 67.99036264419556,19.54251080751419 67.9998517036438,19.477857649326324 67.9998517036438,19.477857649326324 68.01526546478271,19.377174973487854 68.01526546478271,19.377174973487854 68.03643107414246,19.24637109041214 68.03643107414246,19.24637109041214 68.0631697177887,19.0910741686821 68.0631697177887,19.0910741686821 68.0952250957489,18.916907906532288 68.0952250957489,18.916907906532288 68.13246607780457,18.729783594608307 68.13246607780457,18.729783594608307 68.17470788955688,18.535110354423523 68.17470788955688,18.535110354423523 68.22074055671692,18.33110898733139 68.22074055671692,18.33110898733139 68.2708740234375,18.11913251876831 68.2708740234375,18.11913251876831 68.32472085952759,17.90231466293335 68.32472085952759,17.90231466293335 68.38200092315674,17.684073746204376 68.38200092315674,17.684073746204376 68.44240427017212,17.46761202812195 68.44240427017212,17.46761202812195 68.50556135177612,17.256063222885132 68.50556135177612,17.256063222885132 68.5711920261383,17.052915692329407 68.5711920261383,17.052915692329407 68.63896250724792,16.86137616634369 68.63896250724792,16.86137616634369 68.71393918991089,16.676031053066254 68.71393918991089,16.676031053066254 68.8006341457367,16.486412286758423 68.8006341457367,16.486412286758423 68.89668703079224,16.294729709625244 68.89668703079224,16.294729709625244 68.99982690811157,16.103261709213257 68.99982690811157,16.103261709213257 69.1077172756195,15.914355218410492 69.1077172756195,15.914355218410492 69.2180335521698,15.730078518390656 69.2180335521698,15.730078518390656 69.32848691940308,15.552850067615509 69.32848691940308,15.552850067615509" stroke="white" stroke-width="0.1" /></svg>