<?xml version="1.0" encoding="utf-8" ?>
<svg baseProfile="full" height="35.274696350097656" version="1.1" width="100.0" xmlns="http://www.w3.org/2000/svg" xmlns:ev="http://www.w3.org/2001/xml-events" xmlns:xlink="http://www.w3.org/1999/xlink"><defs><clipPath /></defs><polygon points="99.42724704742432,22.45241552591324 99.42724704742432,22.45241552591324 99.49471950531006,22.579628229141235 99.49471950531006,22.579628229141235 99.57976937294006,22.79287874698639 99.57976937294006,22.79287874698639 99.67415928840637,23.06389957666397 99.67415928840637,23.06389957666397 99.76964592933655,23.364390432834625 99.76964592933655,23.364390432834625 99.85819458961487,23.666028678417206 99.85819458961487,23.666028678417206 99.93157982826233,23.940551280975342 99.93157982826233,23.940551280975342 99.98154640197754,24.159619212150574 99.98154640197754,24.159619212150574 100.0,24.294964969158173 100.0,24.294964969158173 99.99292492866516,24.55245554447174 99.99292492866516,24.55245554447174 99.97118711471558,25.094425678253174 99.97118711471558,25.094425678253174 99.93435144424438,25.827214121818542 99.93435144424438,25.827214121818542 99.88168478012085,26.657164096832275 99.88168478012085,26.657164096832275 99.81275200843811,27.490615844726562 99.81275200843811,27.490615844726562 99.72682595252991,28.233909606933594 99.72682595252991,28.233909606933594 99.6234655380249,28.79338562488556 99.6234655380249,28.79338562488556 99.50194358825684,29.07538414001465 99.50194358825684,29.07538414001465 99.37655329704285,29.168787598609924 99.37655329704285,29.168787598609924 99.25932884216309,29.22980487346649 99.25932884216309,29.22980487346649 99.14670586585999,29.26572859287262 99.14670586585999,29.26572859287262 99.03525114059448,29.283857345581055 99.03525114059448,29.283857345581055 98.92145991325378,29.29147779941559 98.92145991325378,29.29147779941559 98.8018274307251,29.295891523361206 98.8018274307251,29.295891523361206 98.67279529571533,29.304388165473938 98.67279529571533,29.304388165473938 98.53091835975647,29.32426631450653 98.53091835975647,29.32426631450653 98.24381470680237,29.394111037254333 98.24381470680237,29.394111037254333 97.72759079933167,29.532793164253235 97.72759079933167,29.532793164253235 97.05213904380798,29.71816062927246 97.05213904380798,29.71816062927246 96.28703594207764,29.92805540561676 96.28703594207764,29.92805540561676 95.5021619796753,30.140283703804016 95.5021619796753,30.140283703804016 94.76718306541443,30.332690477371216 94.76718306541443,30.332690477371216 94.15175914764404,30.48306405544281 94.15175914764404,30.48306405544281 93.72569918632507,30.56926429271698 93.72569918632507,30.56926429271698 93.41065883636475,30.612429976463318 93.41065883636475,30.612429976463318 93.0911660194397,30.648919939994812 93.0911660194397,30.648919939994812 92.78166890144348,30.67900836467743 92.78166890144348,30.67900836467743 92.4963116645813,30.702969431877136 92.4963116645813,30.702969431877136 92.24947094917297,30.721113085746765 92.24947094917297,30.721113085746765 92.05551743507385,30.73371648788452 92.05551743507385,30.73371648788452 91.92859530448914,30.74108362197876 91.92859530448914,30.74108362197876 91.8831467628479,30.74345290660858 91.8831467628479,30.74345290660858 91.1939799785614,30.379027128219604 91.1939799785614,30.379027128219604 91.28355383872986,30.071625113487244 91.28355383872986,30.071625113487244 91.36189818382263,29.759666323661804 91.36189818382263,29.759666323661804 91.42900109291077,29.44338321685791 91.42900109291077,29.44338321685791 91.4842963218689,29.123017191886902 91.4842963218689,29.123017191886902 91.52777194976807,28.79878282546997 91.52777194976807,28.79878282546997 91.55906438827515,28.47093939781189 91.55906438827515,28.47093939781189 91.57795310020447,28.13970148563385 91.57795310020447,28.13970148563385 91.58437252044678,27.80529260635376 91.58437252044678,27.80529260635376 91.40799641609192,26.061326265335083 91.40799641609192,26.061326265335083 90.90235233306885,24.435964226722717 90.90235233306885,24.435964226722717 90.10260105133057,22.964295744895935 90.10260105133057,22.964295744895935 89.04368281364441,21.68147563934326 89.04368281364441,21.68147563934326 87.76082396507263,20.62259316444397 87.76082396507263,20.62259316444397 86.28926873207092,19.82276886701584 86.28926873207092,19.82276886701584 84.66379642486572,19.31714415550232 84.66379642486572,19.31714415550232 82.91986584663391,19.140784442424774 82.91986584663391,19.140784442424774 81.17578625679016,19.317126274108887 81.17578625679016,19.317126274108887 79.5504629611969,19.82276886701584 79.5504629611969,19.82276886701584 78.07875871658325,20.62259316444397 78.07875871658325,20.62259316444397 76.79597735404968,21.68147563934326 76.79597735404968,21.68147563934326 75.73713064193726,22.964295744895935 75.73713064193726,22.964295744895935 74.93737936019897,24.435946345329285 74.93737936019897,24.435946345329285 74.43158626556396,26.061326265335083 74.43158626556396,26.061326265335083 74.25535917282104,27.80529260635376 74.25535917282104,27.80529260635376 74.26629662513733,28.242844343185425 74.26629662513733,28.242844343185425 74.29882884025574,28.674831986427307 74.29882884025574,28.674831986427307 74.35237169265747,29.100731015205383 74.35237169265747,29.100731015205383 74.42633509635925,29.520010948181152 74.42633509635925,29.520010948181152 74.52028393745422,29.93217706680298 74.52028393745422,29.93217706680298 74.63356852531433,30.336683988571167 74.63356852531433,30.336683988571167 74.76559281349182,30.733022093772888 74.76559281349182,30.733022093772888 74.91593360900879,31.120717525482178 74.91593360900879,31.120717525482178 74.74123239517212,31.291258335113525 74.74123239517212,31.291258335113525 74.56675171852112,31.44996464252472 74.56675171852112,31.44996464252472 74.39402341842651,31.593865156173706 74.39402341842651,31.593865156173706 74.2244303226471,31.72001838684082 74.2244303226471,31.72001838684082 74.05950427055359,31.82549476623535 74.05950427055359,31.82549476623535 73.90084862709045,31.907355785369873 73.90084862709045,31.907355785369873 73.74992966651917,31.962648034095764 73.74992966651917,31.962648034095764 73.60820174217224,31.98845088481903 73.60820174217224,31.98845088481903 72.8506863117218,32.00949430465698 72.8506863117218,32.00949430465698 71.47935032844543,32.01686143875122 71.47935032844543,32.01686143875122 69.69712376594543,32.010772824287415 69.69712376594543,32.010772824287415 67.7072286605835,31.99155032634735 67.7072286605835,31.99155032634735 65.71258902549744,31.959491968154907 65.71258902549744,31.959491968154907 63.91643285751343,31.914886832237244 63.91643285751343,31.914886832237244 62.52168416976929,31.85802698135376 62.52168416976929,31.85802698135376 61.73155903816223,31.78916871547699 61.73155903816223,31.78916871547699 61.36465072631836,31.72120451927185 61.36465072631836,31.72120451927185 61.078786849975586,31.6657692193985 61.078786849975586,31.6657692193985 60.83617806434631,31.621435284614563 60.83617806434631,31.621435284614563 60.59882044792175,31.586751341819763 60.59882044792175,31.586751341819763 60.328781604766846,31.56023621559143 60.328781604766846,31.56023621559143 59.98806357383728,31.54045045375824 59.98806357383728,31.54045045375824 59.53888297080994,31.52591586112976 59.53888297080994,31.52591586112976 58.94308090209961,31.515192985534668 58.94308090209961,31.515192985534668 57.219862937927246,31.51557743549347 57.219862937927246,31.51557743549347 53.80749702453613,31.531989574432373 53.80749702453613,31.531989574432373 49.297553300857544,31.559506058692932 49.297553300857544,31.559506058692932 44.281309843063354,31.593134999275208 44.281309843063354,31.593134999275208 39.35033679008484,31.627929210662842 39.35033679008484,31.627929210662842 35.09598672389984,31.658929586410522 35.09598672389984,31.658929586410522 32.10953772068024,31.681159138679504 32.10953772068024,31.681159138679504 30.98270893096924,31.68967366218567 30.98270893096924,31.68967366218567 30.820992588996887,31.691807508468628 30.820992588996887,31.691807508468628 30.39405345916748,31.69742524623871 30.39405345916748,31.69742524623871 29.789134860038757,31.705376505851746 29.789134860038757,31.705376505851746 29.09347414970398,31.71447515487671 29.09347414970398,31.71447515487671 28.394311666488647,31.723594665527344 28.394311666488647,31.723594665527344 27.77888774871826,31.73152506351471 27.77888774871826,31.73152506351471 27.334442734718323,31.737160682678223 27.334442734718323,31.737160682678223 27.14821994304657,31.73927664756775 27.14821994304657,31.73927664756775 27.114737033843994,31.727096438407898 27.114737033843994,31.727096438407898 27.03639566898346,31.691953539848328 27.03639566898346,31.691953539848328 26.91749930381775,31.63604438304901 26.91749930381775,31.63604438304901 26.762422919273376,31.561550498008728 26.762422919273376,31.561550498008728 26.575320959091187,31.47062659263611 26.575320959091187,31.47062659263611 26.36057734489441,31.365442276000977 26.36057734489441,31.365442276000977 26.12234354019165,31.24818503856659 26.12234354019165,31.24818503856659 25.864997506141663,31.121009588241577 25.864997506141663,31.121009588241577 26.015406847000122,30.73333203792572 26.015406847000122,30.73333203792572 26.14765465259552,30.336976051330566 26.14765465259552,30.336976051330566 26.26093626022339,29.932451248168945 26.26093626022339,29.932451248168945 26.354888081550598,29.520264267921448 26.354888081550598,29.520264267921448 26.42885148525238,29.100951552391052 26.42885148525238,29.100951552391052 26.482391357421875,28.67499589920044 26.482391357421875,28.67499589920044 26.514923572540283,28.24295461177826 26.514923572540283,28.24295461177826 26.525866985321045,27.80529260635376 26.525866985321045,27.80529260635376 26.349487900733948,26.061326265335083 26.349487900733948,26.061326265335083 25.843846797943115,24.435964226722717 25.843846797943115,24.435964226722717 25.044092535972595,22.964295744895935 25.044092535972595,22.964295744895935 23.985174298286438,21.68147563934326 23.985174298286438,21.68147563934326 22.7023184299469,20.62259316444397 22.7023184299469,20.62259316444397 21.230685710906982,19.82276886701584 21.230685710906982,19.82276886701584 19.60528790950775,19.31714415550232 19.60528790950775,19.31714415550232 17.86135733127594,19.140784442424774 17.86135733127594,19.140784442424774 16.11728072166443,19.317126274108887 16.11728072166443,19.317126274108887 14.491955935955048,19.82276886701584 14.491955935955048,19.82276886701584 13.02025020122528,20.62259316444397 13.02025020122528,20.62259316444397 11.737468093633652,21.68147563934326 11.737468093633652,21.68147563934326 10.678621381521225,22.964295744895935 10.678621381521225,22.964295744895935 9.878870099782944,24.435946345329285 9.878870099782944,24.435946345329285 9.373226761817932,26.061326265335083 9.373226761817932,26.061326265335083 9.196849167346954,27.80529260635376 9.196849167346954,27.80529260635376 9.206915646791458,28.223460912704468 9.206915646791458,28.223460912704468 9.23682227730751,28.636500239372253 9.23682227730751,28.636500239372253 9.285913407802582,29.043981432914734 9.285913407802582,29.043981432914734 9.353823214769363,29.44546341896057 9.353823214769363,29.44546341896057 9.439969807863235,29.84052300453186 9.439969807863235,29.84052300453186 9.54384133219719,30.228763818740845 9.54384133219719,30.228763818740845 9.664999693632126,30.609747767448425 9.664999693632126,30.609747767448425 9.802863001823425,30.9829980134964 9.802863001823425,30.9829980134964 9.022660553455353,31.589889526367188 9.022660553455353,31.589889526367188 8.808352798223495,31.58489167690277 8.808352798223495,31.58489167690277 8.232100307941437,31.568515300750732 8.232100307941437,31.568515300750732 7.394564151763916,31.538718938827515 7.394564151763916,31.538718938827515 6.395968794822693,31.493458151817322 6.395968794822693,31.493458151817322 5.336611717939377,31.430688500404358 5.336611717939377,31.430688500404358 4.316936060786247,31.348371505737305 4.316936060786247,31.348371505737305 3.4373845905065536,31.244465708732605 3.4373845905065536,31.244465708732605 2.7982546016573906,31.116923689842224 2.7982546016573906,31.116923689842224 2.3004887625575066,30.94625473022461 2.3004887625575066,30.94625473022461 1.7952099442481995,30.72713315486908 1.7952099442481995,30.72713315486908 1.307437475770712,30.478867888450623 1.307437475770712,30.478867888450623 0.8622638881206512,30.220666527748108 0.8622638881206512,30.220666527748108 0.48478180542588234,29.971784353256226 0.48478180542588234,29.971784353256226 0.20015668123960495,29.75151538848877 0.20015668123960495,29.75151538848877 0.03326218866277486,29.579058289527893 0.03326218866277486,29.579058289527893 0.009482641326030716,29.473653435707092 0.009482641326030716,29.473653435707092 0.07695528329350054,29.404395818710327 0.07695528329350054,29.404395818710327 0.16200728714466095,29.330137372016907 0.16200728714466095,29.330137372016907 0.2563230926170945,29.255297780036926 0.2563230926170945,29.255297780036926 0.3518789540976286,29.1842520236969 0.3518789540976286,29.1842520236969 0.44043222442269325,29.121357202529907 0.44043222442269325,29.121357202529907 0.513740349560976,29.07102406024933 0.513740349560976,29.07102406024933 0.5637795198708773,29.03759777545929 0.5637795198708773,29.03759777545929 0.582234188914299,29.02548909187317 0.582234188914299,29.02548909187317 0.5864649079740047,28.783810138702393 0.5864649079740047,28.783810138702393 0.6020748056471348,28.128376603126526 0.6020748056471348,28.128376603126526 0.6334404461085796,27.163684368133545 0.6334404461085796,27.163684368133545 0.6849384866654873,25.99414587020874 0.6849384866654873,25.99414587020874 0.7609454914927483,24.724237620830536 0.7609454914927483,24.724237620830536 0.8658381178975105,23.458413779735565 0.8658381178975105,23.458413779735565 1.0039929300546646,22.30112999677658 1.0039929300546646,22.30112999677658 1.179786492139101,21.35680466890335 1.179786492139101,21.35680466890335 1.3897905126214027,20.539510250091553 1.3897905126214027,20.539510250091553 1.6461865976452827,19.705858826637268 1.6461865976452827,19.705858826637268 1.9766930490732193,18.874505162239075 1.9766930490732193,18.874505162239075 2.409028634428978,18.0641770362854 2.409028634428978,18.0641770362854 2.9709115624427795,17.29351133108139 2.9709115624427795,17.29351133108139 3.6900606006383896,16.581201553344727 3.6900606006383896,16.581201553344727 4.594193771481514,15.945936739444733 4.594193771481514,15.945936739444733 5.711030215024948,15.406374633312225 5.711030215024948,15.406374633312225 7.416374236345291,14.859135448932648 7.416374236345291,14.859135448932648 9.867490828037262,14.222066104412079 9.867490828037262,14.222066104412079 12.76436448097229,13.545332849025726 12.76436448097229,13.545332849025726 15.807271003723145,12.879104912281036 15.807271003723145,12.879104912281036 18.696121871471405,12.273583561182022 18.696121871471405,12.273583561182022 21.13082706928253,11.77893579006195 21.13082706928253,11.77893579006195 22.811734676361084,11.445365846157074 22.811734676361084,11.445365846157074 23.43861013650894,11.323003470897675 23.43861013650894,11.323003470897675 23.4138086438179,11.331519484519958 23.4138086438179,11.331519484519958 23.356913030147552,11.35374903678894 23.356913030147552,11.35374903678894 23.294182121753693,11.384731531143188 23.294182121753693,11.384731531143188 23.25180172920227,11.41950786113739 23.25180172920227,11.41950786113739 23.256178200244904,11.453098058700562 23.256178200244904,11.453098058700562 23.33357185125351,11.480560898780823 23.33357185125351,11.480560898780823 23.510093986988068,11.496918648481369 23.510093986988068,11.496918648481369 23.812079429626465,11.497192084789276 23.812079429626465,11.497192084789276 24.400295317173004,11.34267970919609 24.400295317173004,11.34267970919609 25.34797489643097,10.942494124174118 25.34797489643097,10.942494124174118 26.550084352493286,10.363724827766418 26.550084352493286,10.363724827766418 27.901577949523926,9.673497825860977 27.901577949523926,9.673497825860977 29.297423362731934,8.938921242952347 29.297423362731934,8.938921242952347 30.63257932662964,8.227085322141647 30.63257932662964,8.227085322141647 31.80200755596161,7.605133205652237 31.80200755596161,7.605133205652237 32.70066976547241,7.140137255191803 32.70066976547241,7.140137255191803 33.60837697982788,6.673846393823624 33.60837697982788,6.673846393823624 34.831786155700684,6.038035452365875 34.831786155700684,6.038035452365875 36.30611598491669,5.284949764609337 36.30611598491669,5.284949764609337 37.96660006046295,4.466798156499863 37.96660006046295,4.466798156499863 39.74838852882385,3.6357905715703964 39.74838852882385,3.6357905715703964 41.58685505390167,2.8441905975341797 41.58685505390167,2.8441905975341797 43.41722130775452,2.1441802382469177 43.41722130775452,2.1441802382469177 45.174574851989746,1.5879778191447258 45.174574851989746,1.5879778191447258 47.0289409160614,1.1540374718606472 47.0289409160614,1.1540374718606472 49.145904183387756,0.7869133725762367 49.145904183387756,0.7869133725762367 51.454126834869385,0.48808250576257706 51.454126834869385,0.48808250576257706 53.88270616531372,0.2589855343103409 53.88270616531372,0.2589855343103409 56.36022686958313,0.1010721898637712 56.36022686958313,0.1010721898637712 58.815574645996094,0.01580136304255575 58.815574645996094,0.01580136304255575 61.17770075798035,0.004641023770091124 61.17770075798035,0.004641023770091124 63.37512135505676,0.06900445441715419 63.37512135505676,0.06900445441715419 65.53956866264343,0.22154732141643763 65.53956866264343,0.22154732141643763 67.78308749198914,0.4534526262432337 67.78308749198914,0.4534526262432337 70.00508904457092,0.7343758828938007 70.00508904457092,0.7343758828938007 72.10476398468018,1.0339726693928242 72.10476398468018,1.0339726693928242 73.98160099983215,1.3218802399933338 73.98160099983215,1.3218802399933338 75.53485631942749,1.5677724033594131 75.53485631942749,1.5677724033594131 76.66380405426025,1.7412865534424782 76.66380405426025,1.7412865534424782 77.26792097091675,1.8120598047971725 77.26792097091675,1.8120598047971725 77.57654190063477,1.8002064898610115 77.57654190063477,1.8002064898610115 77.89275050163269,1.750149205327034 77.89275050163269,1.750149205327034 78.22639346122742,1.6679966822266579 78.22639346122742,1.6679966822266579 78.58760952949524,1.5598945319652557 78.58760952949524,1.5598945319652557 78.98610234260559,1.431960891932249 78.98610234260559,1.431960891932249 79.43185567855835,1.290323119610548 79.43185567855835,1.290323119610548 79.9347996711731,1.1410991661250591 79.9347996711731,1.1410991661250591 80.50485253334045,0.9904254227876663 80.50485253334045,0.9904254227876663 81.04784488677979,0.8471098728477955 81.04784488677979,0.8471098728477955 81.48784041404724,0.7172433193773031 81.48784041404724,0.7172433193773031 81.86189532279968,0.6025671493262053 81.86189532279968,0.6025671493262053 82.2071373462677,0.504841236397624 82.2071373462677,0.504841236397624 82.56054520606995,0.42578885331749916 82.56054520606995,0.42578885331749916 82.95918107032776,0.36716971080750227 82.95918107032776,0.36716971080750227 83.44002366065979,0.3307162318378687 83.44002366065979,0.3307162318378687 84.04027819633484,0.31817909330129623 84.04027819633484,0.31817909330129623 84.72390174865723,0.3186167450621724 84.72390174865723,0.3186167450621724 85.41044592857361,0.32168037723749876 85.41044592857361,0.32168037723749876 86.07021570205688,0.3299959236755967 86.07021570205688,0.3299959236755967 86.67324185371399,0.34618936479091644 86.67324185371399,0.34618936479091644 87.19004392623901,0.3728866344317794 87.19004392623901,0.3728866344317794 87.59064674377441,0.4127137362957001 87.59064674377441,0.4127137362957001 87.84529566764832,0.46829660423099995 87.84529566764832,0.46829660423099995 87.92436718940735,0.5422612186521292 87.92436718940735,0.5422612186521292 87.90788054466248,0.6260914262384176 87.90788054466248,0.6260914262384176 87.88118362426758,0.7134046405553818 87.88118362426758,0.7134046405553818 87.82238960266113,0.810045562684536 87.82238960266113,0.810045562684536 87.7096176147461,0.921858660876751 87.7096176147461,0.921858660876751 87.52105832099915,1.0546794161200523 87.52105832099915,1.0546794161200523 87.23468780517578,1.2143434025347233 87.23468780517578,1.2143434025347233 86.82868480682373,1.4067042618989944 86.82868480682373,1.4067042618989944 86.28109693527222,1.6375793144106865 86.28109693527222,1.6375793144106865 85.67807078361511,1.9155483692884445 85.67807078361511,1.9155483692884445 85.12610793113708,2.2320497781038284 85.12610793113708,2.2320497781038284 84.63417887687683,2.5672245770692825 84.63417887687683,2.5672245770692825 84.21140313148499,2.901250682771206 84.21140313148499,2.901250682771206 83.86688828468323,3.2142598181962967 83.86688828468323,3.2142598181962967 83.60961675643921,3.4864209592342377 83.60961675643921,3.4864209592342377 83.4484875202179,3.6978747695684433 83.4484875202179,3.6978747695684433 83.39282870292664,3.8287989795207977 83.39282870292664,3.8287989795207977 83.50764513015747,3.9431650191545486 83.50764513015747,3.9431650191545486 83.82079005241394,4.108883440494537 83.82079005241394,4.108883440494537 84.2857301235199,4.311948642134666 84.2857301235199,4.311948642134666 84.85571146011353,4.538355767726898 84.85571146011353,4.538355767726898 85.48404574394226,4.774099588394165 85.48404574394226,4.774099588394165 86.12397909164429,5.005193501710892 86.12397909164429,5.005193501710892 86.7289662361145,5.217613652348518 86.7289662361145,5.217613652348518 87.2521162033081,5.3973738104105 87.2521162033081,5.3973738104105 87.8937304019928,5.645326524972916 87.8937304019928,5.645326524972916 88.818359375,6.041527539491653 88.818359375,6.041527539491653 89.92629647254944,6.540451198816299 89.92629647254944,6.540451198816299 91.11753702163696,7.096590101718903 91.11753702163696,7.096590101718903 92.2925055027008,7.664399594068527 92.2925055027008,7.664399594068527 93.35142970085144,8.198363333940506 93.35142970085144,8.198363333940506 94.19421553611755,8.652983605861664 94.19421553611755,8.652983605861664 94.721519947052,8.982687443494797 94.721519947052,8.982687443494797 95.02525925636292,9.224020689725876 95.02525925636292,9.224020689725876 95.27049660682678,9.442905336618423 95.27049660682678,9.442905336618423 95.46598196029663,9.637865424156189 95.46598196029663,9.637865424156189 95.6209123134613,9.807422012090683 95.6209123134613,9.807422012090683 95.74440717697144,9.95013564825058 95.74440717697144,9.95013564825058 95.84543704986572,10.064547508955002 95.84543704986572,10.064547508955002 95.93289494514465,10.149198025465012 95.93289494514465,10.149198025465012 96.01612091064453,10.202592611312866 96.01612091064453,10.202592611312866 96.1118221282959,10.23339331150055 96.1118221282959,10.23339331150055 96.2261974811554,10.257774591445923 96.2261974811554,10.257774591445923 96.35224342346191,10.285675525665283 96.35224342346191,10.285675525665283 96.48296236991882,10.326997935771942 96.48296236991882,10.326997935771942 96.61141037940979,10.391662269830704 96.61141037940979,10.391662269830704 96.73038125038147,10.489606857299805 96.73038125038147,10.489606857299805 96.83308601379395,10.630734264850616 96.83308601379395,10.630734264850616 96.91244959831238,10.824945569038391 96.91244959831238,10.824945569038391 96.95738554000854,11.031485348939896 96.95738554000854,11.031485348939896 96.96817994117737,11.20738834142685 96.96817994117737,11.20738834142685 96.95504903793335,11.359366029500961 96.95504903793335,11.359366029500961 96.92820906639099,11.494128406047821 96.92820906639099,11.494128406047821 96.89778685569763,11.618387699127197 96.89778685569763,11.618387699127197 96.87408208847046,11.73885390162468 96.87408208847046,11.73885390162468 96.86729907989502,11.862237751483917 96.86729907989502,11.862237751483917 96.88764810562134,11.99524998664856 96.88764810562134,11.99524998664856 96.92682027816772,12.143579870462418 96.92682027816772,12.143579870462418 96.96773886680603,12.318170070648193 96.96773886680603,12.318170070648193 97.00749516487122,12.533608078956604 97.00749516487122,12.533608078956604 97.04316258430481,12.804484367370605 97.04316258430481,12.804484367370605 97.0719039440155,13.145384192466736 97.0719039440155,13.145384192466736 97.0907986164093,13.570918142795563 97.0907986164093,13.570918142795563 97.09670543670654,14.095617830753326 97.09670543670654,14.095617830753326 97.08693027496338,14.73412811756134 97.08693027496338,14.73412811756134 97.06665277481079,15.432524681091309 97.06665277481079,15.432524681091309 97.04644680023193,16.11516624689102 97.04644680023193,16.11516624689102 97.03090786933899,16.76396131515503 97.03090786933899,16.76396131515503 97.02463746070862,17.360819876194 97.02463746070862,17.360819876194 97.03243970870972,17.887653410434723 97.03243970870972,17.887653410434723 97.05885052680969,18.326371908187866 97.05885052680969,18.326371908187866 97.10866808891296,18.65888386964798 97.10866808891296,18.65888386964798 97.18642830848694,18.867100775241852 97.18642830848694,18.867100775241852 97.33822345733643,19.018568098545074 97.33822345733643,19.018568098545074 97.58396744728088,19.191917777061462 97.58396744728088,19.191917777061462 97.88931012153625,19.385692477226257 97.88931012153625,19.385692477226257 98.21966886520386,19.598431885242462 98.21966886520386,19.598431885242462 98.54076504707336,19.828659296035767 98.54076504707336,19.828659296035767 98.81809949874878,20.07497102022171 98.81809949874878,20.07497102022171 99.01716113090515,20.335853099822998 99.01716113090515,20.335853099822998 99.10367131233215,20.609864592552185 99.10367131233215,20.609864592552185 99.12570118904114,20.895329117774963 99.12570118904114,20.895329117774963 99.15414452552795,21.184860169887543 99.15414452552795,21.184860169887543 99.18842911720276,21.468554437160492 99.18842911720276,21.468554437160492 99.228036403656,21.73651158809662 99.228036403656,21.73651158809662 99.27231669425964,21.978794038295746 99.27231669425964,21.978794038295746 99.32067394256592,22.18547910451889 99.32067394256592,22.18547910451889 99.37246441841125,22.34666496515274 99.37246441841125,22.34666496515274" stroke="white" stroke-width="0.1" /><polygon points="28.24382781982422,20.335888862609863 28.24382781982422,20.335888862609863 28.24382781982422,19.71966326236725 28.24382781982422,19.71966326236725 27.347499132156372,19.77568417787552 27.347499132156372,19.77568417787552 27.776992321014404,20.354562997817993 27.776992321014404,20.354562997817993" stroke="white" stroke-width="0.1" /><polygon points="28.24382781982422,19.458234310150146 28.24382781982422,19.458234310150146 28.24382781982422,18.76731514930725 28.24382781982422,18.76731514930725 26.749947667121887,18.86068284511566 26.749947667121887,18.86068284511566 27.19811201095581,19.532927870750427 27.19811201095581,19.532927870750427" stroke="white" stroke-width="0.1" /><polygon points="28.24382781982422,18.50588619709015 28.24382781982422,18.50588619709015 28.24382781982422,17.758944630622864 28.24382781982422,17.758944630622864 25.77892541885376,17.870986461639404 25.77892541885376,17.870986461639404 26.544538140296936,18.59925240278244 26.544538140296936,18.59925240278244" stroke="white" stroke-width="0.1" /><polygon points="58.84358286857605,9.38095822930336 58.84358286857605,9.38095822930336 58.97641181945801,8.631100505590439 58.97641181945801,8.631100505590439 59.140753746032715,7.583633065223694 59.140753746032715,7.583633065223694 59.321433305740356,6.361101567745209 59.321433305740356,6.361101567745209 59.503281116485596,5.086051300168037 59.503281116485596,5.086051300168037 59.671127796173096,3.8810264319181442 59.671127796173096,3.8810264319181442 59.809792041778564,2.868572063744068 59.809792041778564,2.868572063744068 59.90411043167114,2.171233110129833 59.90411043167114,2.171233110129833 59.93890166282654,1.9115546718239784 59.93890166282654,1.9115546718239784 59.571415185928345,1.9053271040320396 59.571415185928345,1.9053271040320396 58.56720209121704,1.8990904092788696 58.56720209121704,1.8990904092788696 57.07405209541321,1.9115181639790535 57.07405209541321,1.9115181639790535 55.2395224571228,1.961302012205124 55.2395224571228,1.961302012205124 53.211259841918945,2.0670881494879723 53.211259841918945,2.0670881494879723 51.13682150840759,2.247604914009571 51.13682150840759,2.247604914009571 49.16392266750336,2.521470934152603 49.16392266750336,2.521470934152603 47.4401980638504,2.907377853989601 47.4401980638504,2.907377853989601 45.92662155628204,3.3512748777866364 45.92662155628204,3.3512748777866364 44.462573528289795,3.806842863559723 44.462573528289795,3.806842863559723 43.01370084285736,4.304444417357445 43.01370084285736,4.304444417357445 41.54564142227173,4.874406009912491 41.54564142227173,4.874406009912491 40.02382159233093,5.547071620821953 40.02382159233093,5.547071620821953 38.413962721824646,6.352768093347549 38.413962721824646,6.352768093347549 36.68148219585419,7.3218390345573425 36.68148219585419,7.3218390345573425 34.79210436344147,8.484630286693573 34.79210436344147,8.484630286693573 34.79210436344147,8.982395380735397 34.79210436344147,8.982395380735397 34.84134078025818,8.984656631946564 34.84134078025818,8.984656631946564 34.97103452682495,9.000340104103088 34.97103452682495,9.000340104103088 35.15448570251465,9.042883664369583 35.15448570251465,9.042883664369583 35.36470830440521,9.125693142414093 35.36470830440521,9.125693142414093 35.574930906295776,9.262188524007797 35.574930906295776,9.262188524007797 35.75838506221771,9.465773403644562 35.75838506221771,9.465773403644562 35.888078808784485,9.749887883663177 35.888078808784485,9.749887883663177 35.937315225601196,10.127899050712585 35.937315225601196,10.127899050712585 35.93089580535889,10.544423758983612 35.93089580535889,10.544423758983612 35.91397404670715,10.930021107196808 35.91397404670715,10.930021107196808 35.89004874229431,11.277122050523758 35.89004874229431,11.277122050523758 35.862621665000916,11.578123271465302 35.862621665000916,11.578123271465302 35.83519458770752,11.825437843799591 35.83519458770752,11.825437843799591 35.81126928329468,12.011498212814331 35.81126928329468,12.011498212814331 35.794273018836975,12.128699570894241 35.794273018836975,12.128699570894241 35.787928104400635,12.169438600540161 35.787928104400635,12.169438600540161 36.61233186721802,12.128699570894241 36.61233186721802,12.128699570894241 38.79829943180084,12.020853161811829 38.79829943180084,12.020853161811829 41.91429615020752,11.867507547140121 41.91429615020752,11.867507547140121 45.52922546863556,11.690236628055573 45.52922546863556,11.690236628055573 49.21191930770874,11.510632187128067 49.21191930770874,11.510632187128067 52.53106355667114,11.350265890359879 52.53106355667114,11.350265890359879 55.05526661872864,11.230730265378952 55.05526661872864,11.230730265378952 56.35358691215515,11.173615604639053 56.35358691215515,11.173615604639053 56.86302185058594,11.143544316291809 56.86302185058594,11.143544316291809 57.30987787246704,11.082545667886734 57.30987787246704,11.082545667886734 57.69734978675842,10.97838208079338 57.69734978675842,10.97838208079338 58.02814960479736,10.818782448768616 58.02814960479736,10.818782448768616 58.30526351928711,10.5914905667305 58.30526351928711,10.5914905667305 58.53160619735718,10.284271091222763 58.53160619735718,10.284271091222763 58.71009826660156,9.884851425886154 58.71009826660156,9.884851425886154" stroke="white" stroke-width="0.1" /><polygon points="82.44689702987671,8.13596025109291 82.44689702987671,8.13596025109291 82.6495349407196,7.8733280301094055 82.6495349407196,7.8733280301094055 82.7566921710968,7.605789601802826 82.7566921710968,7.605789601802826 82.74531364440918,7.329753786325455 82.74531364440918,7.329753786325455 82.59249329566956,7.0416271686553955 82.59249329566956,7.0416271686553955 82.27519392967224,6.737781316041946 82.27519392967224,6.737781316041946 81.77034854888916,6.414605677127838 81.77034854888916,6.414605677127838 81.05521202087402,6.068498641252518 81.05521202087402,6.068498641252518 80.10629415512085,5.695858225226402 80.10629415512085,5.695858225226402 77.99173593521118,4.93573322892189 77.99173593521118,4.93573322892189 76.13043785095215,4.292299598455429 76.13043785095215,4.292299598455429 74.41160082817078,3.7562474608421326 74.41160082817078,3.7562474608421326 72.72412776947021,3.318231552839279 72.72412776947021,3.318231552839279 70.95744013786316,2.9689056798815727 70.95744013786316,2.9689056798815727 69.00044083595276,2.6989420875906944 69.00044083595276,2.6989420875906944 66.74233078956604,2.4989860132336617 66.74233078956604,2.4989860132336617 64.07216787338257,2.359718829393387 64.07216787338257,2.359718829393387 63.673603534698486,10.127899050712585 63.673603534698486,10.127899050712585 63.94684910774231,10.125455260276794 63.94684910774231,10.125455260276794 64.71078395843506,10.117759555578232 64.71078395843506,10.117759555578232 65.88211059570312,10.104228556156158 65.88211059570312,10.104228556156158 67.37730503082275,10.084278881549835 67.37730503082275,10.084278881549835 69.1129207611084,10.057307779788971 69.1129207611084,10.057307779788971 71.0054337978363,10.022787749767303 71.0054337978363,10.022787749767303 72.97155261039734,9.980078786611557 72.97155261039734,9.980078786611557 74.92760419845581,9.928617626428604 74.92760419845581,9.928617626428604 76.69677138328552,9.83729213476181 76.69677138328552,9.83729213476181 78.17525863647461,9.683509171009064 78.17525863647461,9.683509171009064 79.39006090164185,9.479541331529617 79.39006090164185,9.479541331529617 80.36786913871765,9.237661212682724 80.36786913871765,9.237661212682724 81.13566637039185,8.970104902982712 81.13566637039185,8.970104902982712 81.72016739845276,8.689127117395401 81.72016739845276,8.689127117395401 82.14827179908752,8.406981825828552 82.14827179908752,8.406981825828552" stroke="white" stroke-width="0.1" /><polygon points="17.86135733127594,20.335888862609863 17.86135733127594,20.335888862609863 19.366617500782013,20.487648248672485 19.366617500782013,20.487648248672485 20.76873630285263,20.92290073633194 20.76873630285263,20.92290073633194 22.037513554096222,21.611596643924713 22.037513554096222,21.611596643924713 23.142969608306885,22.523680329322815 23.142969608306885,22.523680329322815 24.055127799510956,23.629137873649597 24.055127799510956,23.629137873649597 24.743713438510895,24.89791512489319 24.743713438510895,24.89791512489319 25.17904043197632,26.29999816417694 25.17904043197632,26.29999816417694 25.330761075019836,27.80529260635376 25.330761075019836,27.80529260635376 25.32179057598114,28.172051906585693 25.32179057598114,28.172051906585693 25.295311212539673,28.53419780731201 25.295311212539673,28.53419780731201 25.251689553260803,28.89131009578705 25.251689553260803,28.89131009578705 25.1914381980896,29.243043065071106 25.1914381980896,29.243043065071106 25.11499524116516,29.588979482650757 25.11499524116516,29.588979482650757 25.02264976501465,29.928749799728394 25.02264976501465,29.928749799728394 24.91513043642044,30.261972546577454 24.91513043642044,30.261972546577454 24.792730808258057,30.58823049068451 24.792730808258057,30.58823049068451 24.306927621364594,31.578144431114197 24.306927621364594,31.578144431114197 23.685887455940247,32.47916102409363 23.685887455940247,32.47916102409363 22.942958772182465,33.278000354766846 22.942958772182465,33.278000354766846 22.091199457645416,33.96138846874237 22.091199457645416,33.96138846874237 21.14395648241043,34.51603055000305 21.14395648241043,34.51603055000305 20.114433765411377,34.92865264415741 20.114433765411377,34.92865264415741 19.015832245349884,35.185980796813965 19.015832245349884,35.185980796813965 17.86135733127594,35.274696350097656 17.86135733127594,35.274696350097656 16.656333208084106,35.17795503139496 16.656333208084106,35.17795503139496 15.512944757938385,34.897834062576294 15.512944757938385,34.897834062576294 14.44629430770874,34.44945216178894 14.44629430770874,34.44945216178894 13.47140520811081,33.84799659252167 13.47140520811081,33.84799659252167 12.603451311588287,33.10858905315399 12.603451311588287,33.10858905315399 11.85731366276741,32.24637806415558 11.85731366276741,32.24637806415558 11.248309165239334,31.27654194831848 11.248309165239334,31.27654194831848 10.791391879320145,30.214175581932068 10.791391879320145,30.214175581932068 10.7002854347229,29.92820143699646 10.7002854347229,29.92820143699646 10.620266944169998,29.637432098388672 10.620266944169998,29.637432098388672 10.551773011684418,29.342100024223328 10.551773011684418,29.342100024223328 10.495095700025558,29.042449593544006 10.495095700025558,29.042449593544006 10.45045480132103,28.738713264465332 10.45045480132103,28.738713264465332 10.418140888214111,28.431111574172974 10.418140888214111,28.431111574172974 10.398519039154053,28.119897842407227 10.398519039154053,28.119897842407227 10.391953587532043,27.80529260635376 10.391953587532043,27.80529260635376 10.54367646574974,26.29999816417694 10.54367646574974,26.29999816417694 10.978929698467255,24.89793300628662 10.978929698467255,24.89793300628662 11.667588353157043,23.629137873649597 11.667588353157043,23.629137873649597 12.579672038555145,22.523680329322815 12.579672038555145,22.523680329322815 13.685056567192078,21.61155939102173 13.685056567192078,21.61155939102173 14.953833818435669,20.922882854938507 14.953833818435669,20.922882854938507 16.355952620506287,20.487648248672485 16.355952620506287,20.487648248672485" stroke="white" stroke-width="0.1" /><polygon points="82.91986584663391,20.335888862609863 82.91986584663391,20.335888862609863 84.4251275062561,20.487648248672485 84.4251275062561,20.487648248672485 85.82724332809448,20.92290073633194 85.82724332809448,20.92290073633194 87.09601759910583,21.611596643924713 87.09601759910583,21.611596643924713 88.20147514343262,22.523680329322815 88.20147514343262,22.523680329322815 89.11363482475281,23.629137873649597 89.11363482475281,23.629137873649597 89.80229496955872,24.89791512489319 89.80229496955872,24.89791512489319 90.23740291595459,26.29999816417694 90.23740291595459,26.29999816417694 90.38926959037781,27.80529260635376 90.38926959037781,27.80529260635376 90.38474559783936,28.064605593681335 90.38474559783936,28.064605593681335 90.37140011787415,28.32162380218506 90.37140011787415,28.32162380218506 90.34929275512695,28.576231002807617 90.34929275512695,28.576231002807617 90.31866192817688,28.828325867652893 90.31866192817688,28.828325867652893 90.27985334396362,29.07775342464447 90.27985334396362,29.07775342464447 90.23287892341614,29.32441234588623 90.23287892341614,29.32441234588623 90.17795324325562,29.5681893825531 90.17795324325562,29.5681893825531 90.11529088020325,29.808902740478516 90.11529088020325,29.808902740478516 89.69535827636719,30.948641896247864 89.69535827636719,30.948641896247864 89.10393118858337,31.99257254600525 89.10393118858337,31.99257254600525 88.35837841033936,32.923367619514465 88.35837841033936,32.923367619514465 87.47576475143433,33.723703026771545 87.47576475143433,33.723703026771545 86.47337555885315,34.37629044055939 86.47337555885315,34.37629044055939 85.36843061447144,34.86388027667999 85.36843061447144,34.86388027667999 84.17813777923584,35.16911268234253 84.17813777923584,35.16911268234253 82.91986584663391,35.274696350097656 82.91986584663391,35.274696350097656 81.70010447502136,35.175567865371704 81.70010447502136,35.175567865371704 80.54366111755371,34.888625144958496 80.54366111755371,34.888625144958496 79.46621179580688,34.42961275577545 79.46621179580688,34.42961275577545 78.48344445228577,33.81422460079193 78.48344445228577,33.81422460079193 77.61096954345703,33.05816650390625 77.61096954345703,33.05816650390625 76.86454057693481,32.17720985412598 76.86454057693481,32.17720985412598 76.25969648361206,31.187021732330322 76.25969648361206,31.187021732330322 75.81226229667664,30.103302001953125 75.81226229667664,30.103302001953125 75.72954297065735,29.829546809196472 75.72954297065735,29.829546809196472 75.65703392028809,29.551520943641663 75.65703392028809,29.551520943641663 75.594961643219,29.26943004131317 75.594961643219,29.26943004131317 75.543612241745,28.9835125207901 75.543612241745,28.9835125207901 75.50320029258728,28.693926334381104 75.50320029258728,28.693926334381104 75.47409534454346,28.40089499950409 75.47409534454346,28.40089499950409 75.45636892318726,28.104615211486816 75.45636892318726,28.104615211486816 75.45046210289001,27.80529260635376 75.45046210289001,27.80529260635376 75.60218572616577,26.29999816417694 75.60218572616577,26.29999816417694 76.0374367237091,24.89793300628662 76.0374367237091,24.89793300628662 76.72609686851501,23.629137873649597 76.72609686851501,23.629137873649597 77.638179063797,22.523680329322815 77.638179063797,22.523680329322815 78.74356508255005,21.61155939102173 78.74356508255005,21.61155939102173 80.01241683959961,20.922882854938507 80.01241683959961,20.922882854938507 81.41446113586426,20.487648248672485 81.41446113586426,20.487648248672485" stroke="white" stroke-width="0.1" /></svg>