<?xml version="1.0" encoding="utf-8" ?>
<svg baseProfile="full" height="50.62231421470642" version="1.1" width="100.0" xmlns="http://www.w3.org/2000/svg" xmlns:ev="http://www.w3.org/2001/xml-events" xmlns:xlink="http://www.w3.org/1999/xlink"><defs><clipPath /></defs><polygon points="97.97428250312805,11.712013185024261 97.97428250312805,11.712013185024261 98.38114380836487,11.753374338150024 98.38114380836487,11.753374338150024 98.76080751419067,11.871855705976486 98.76080751419067,11.871855705976486 99.1048812866211,12.059176713228226 99.1048812866211,12.059176713228226 99.4049608707428,12.307056039571762 99.4049608707428,12.307056039571762 99.65279698371887,12.607131898403168 99.65279698371887,12.607131898403168 99.84015822410583,12.951143085956573 99.84015822410583,12.951143085956573 99.95872378349304,13.330687582492828 99.95872378349304,13.330687582492828 100.0,13.737565279006958 100.0,13.737565279006958 100.0,29.5969158411026 100.0,29.5969158411026 99.95864033699036,30.00381588935852 99.95864033699036,30.00381588935852 99.84015822410583,30.38341999053955 99.84015822410583,30.38341999053955 99.65279698371887,30.727413296699524 99.65279698371887,30.727413296699524 99.4049608707428,31.02748692035675 99.4049608707428,31.02748692035675 99.10479784011841,31.275326013565063 99.10479784011841,31.275326013565063 98.76080751419067,31.462624669075012 98.76080751419067,31.462624669075012 98.38114380836487,31.581127643585205 98.38114380836487,31.581127643585205 97.97428250312805,31.622469425201416 97.97428250312805,31.622469425201416 95.64898610115051,31.622469425201416 95.64898610115051,31.622469425201416 95.46253085136414,31.61385953426361 95.46253085136414,31.61385953426361 95.28077244758606,31.58850073814392 95.28077244758606,31.58850073814392 95.10436654090881,31.547242403030396 95.10436654090881,31.547242403030396 94.93430852890015,31.49082362651825 94.93430852890015,31.49082362651825 94.77108716964722,31.42004907131195 94.77108716964722,31.42004907131195 94.6155309677124,31.335720419883728 94.6155309677124,31.335720419883728 94.46853995323181,31.238558888435364 94.46853995323181,31.238558888435364 94.33053135871887,31.1294287443161 94.33053135871887,31.1294287443161 94.33910250663757,34.09525156021118 94.33910250663757,34.09525156021118 89.81605172157288,36.275699734687805 89.81605172157288,36.275699734687805 88.99211883544922,34.528061747550964 88.99211883544922,34.528061747550964 87.92562484741211,32.93521702289581 87.92562484741211,32.93521702289581 86.6407036781311,31.52126967906952 86.6407036781311,31.52126967906952 85.16116738319397,30.310359597206116 85.16116738319397,30.310359597206116 83.51132869720459,29.326564073562622 83.51132869720459,29.326564073562622 81.71499371528625,28.59402894973755 81.71499371528625,28.59402894973755 79.79630827903748,28.136807680130005 79.79630827903748,28.136807680130005 77.77924537658691,27.9790461063385 77.77924537658691,27.9790461063385 75.19391179084778,28.239697217941284 75.19391179084778,28.239697217941284 72.78383374214172,28.987085819244385 72.78383374214172,28.987085819244385 70.6006646156311,30.169570446014404 70.6006646156311,30.169570446014404 68.69606375694275,31.735345721244812 68.69606375694275,31.735345721244812 67.12186336517334,33.63273739814758 67.12186336517334,33.63273739814758 65.92971682548523,35.80995202064514 65.92971682548523,35.80995202064514 65.17103910446167,38.215336203575134 65.17103910446167,38.215336203575134 64.89790678024292,40.7971054315567 64.89790678024292,40.7971054315567 29.53067421913147,40.7971054315567 29.53067421913147,40.7971054315567 29.25737500190735,38.215336203575134 29.25737500190735,38.215336203575134 28.498780727386475,35.80995202064514 28.498780727386475,35.80995202064514 27.306553721427917,33.63273739814758 27.306553721427917,33.63273739814758 25.732186436653137,31.735345721244812 25.732186436653137,31.735345721244812 23.827670514583588,30.169549584388733 23.827670514583588,30.169549584388733 21.644499897956848,28.987085819244385 21.644499897956848,28.987085819244385 19.234254956245422,28.239676356315613 19.234254956245422,28.239676356315613 16.64884239435196,27.9790461063385 16.64884239435196,27.9790461063385 14.585883915424347,28.144162893295288 14.585883915424347,28.144162893295288 12.626494467258453,28.622248768806458 12.626494467258453,28.622248768806458 10.796461254358292,29.387515783309937 10.796461254358292,29.387515783309937 9.121574461460114,30.414092540740967 9.121574461460114,30.414092540740967 7.627540826797485,31.676188111305237 7.627540826797485,31.676188111305237 6.340066343545914,33.14793407917023 6.340066343545914,33.14793407917023 5.284857749938965,34.80352163314819 5.284857749938965,34.80352163314819 4.487786814570427,36.61713898181915 4.487786814570427,36.61713898181915 0.2521228510886431,36.50261163711548 0.2521228510886431,36.50261163711548 0.2306182635948062,36.376672983169556 0.2306182635948062,36.376672983169556 0.17788668628782034,36.0440731048584 0.17788668628782034,36.0440731048584 0.11139545822516084,35.57272255420685 0.11139545822516084,35.57272255420685 0.04869431722909212,35.0304514169693 0.04869431722909212,35.0304514169693 0.007332985114771873,34.48513448238373 0.007332985114771873,34.48513448238373 0.004943585372529924,34.004658460617065 0.004943585372529924,34.004658460617065 0.05891105975024402,33.656856417655945 0.05891105975024402,33.656856417655945 0.18686753464862704,33.5096001625061 0.18686753464862704,33.5096001625061 0.45192609541118145,33.48535597324371 0.45192609541118145,33.48535597324371 0.867187324911356,33.46187472343445 0.867187324911356,33.46187472343445 1.3754703104496002,33.43989551067352 1.3754703104496002,33.43989551067352 1.9194293767213821,33.42016339302063 1.9194293767213821,33.42016339302063 2.4421311914920807,33.40347707271576 2.4421311914920807,33.40347707271576 2.8862299397587776,33.390623331069946 2.8862299397587776,33.390623331069946 3.1947921961545944,33.382344245910645 3.1947921961545944,33.382344245910645 3.310224786400795,33.37941765785217 3.310224786400795,33.37941765785217 3.2627664506435394,33.30608904361725 3.2627664506435394,33.30608904361725 3.137364238500595,33.11001360416412 3.137364238500595,33.11001360416412 2.9602190479636192,32.826992869377136 2.9602190479636192,32.826992869377136 2.757202461361885,32.49291181564331 2.757202461361885,32.49291181564331 2.554103545844555,32.14358389377594 2.554103545844555,32.14358389377594 2.377040684223175,31.814834475517273 2.377040684223175,31.814834475517273 2.2517208009958267,31.54250681400299 2.2517208009958267,31.54250681400299 2.2041799500584602,31.362435221672058 2.2041799500584602,31.362435221672058 2.2023674100637436,30.915576219558716 2.2023674100637436,30.915576219558716 2.2021202370524406,29.934975504875183 2.2021202370524406,29.934975504875183 2.2109361365437508,28.594502806663513 2.2109361365437508,28.594502806663513 2.236642874777317,27.067965269088745 2.236642874777317,27.067965269088745 2.286737784743309,25.529232621192932 2.286737784743309,25.529232621192932 2.368801459670067,24.152176082134247 2.368801459670067,24.152176082134247 2.490578405559063,23.11060279607773 2.490578405559063,23.11060279607773 2.6596490293741226,22.578343749046326 2.6596490293741226,22.578343749046326 2.8733767569065094,22.359877824783325 2.8733767569065094,22.359877824783325 3.1131405383348465,22.1482515335083 3.1131405383348465,22.1482515335083 3.3619675785303116,21.950364112854004 3.3619675785303116,21.950364112854004 3.6031324416399,21.773074567317963 3.6031324416399,21.773074567317963 3.8199085742235184,21.623243391513824 3.8199085742235184,21.623243391513824 3.9955705404281616,21.507686376571655 3.9955705404281616,21.507686376571655 4.113227874040604,21.433347463607788 4.113227874040604,21.433347463607788 4.156237095594406,21.407043933868408 4.156237095594406,21.407043933868408 4.15533073246479,21.3363915681839 4.15533073246479,21.3363915681839 4.173457249999046,21.146805584430695 4.173457249999046,21.146805584430695 4.241925850510597,20.87181806564331 4.241925850510597,20.87181806564331 4.391881451010704,20.545005798339844 4.391881451010704,20.545005798339844 4.654797539114952,20.199860632419586 4.654797539114952,20.199860632419586 5.061819776892662,19.869980216026306 5.061819776892662,19.869980216026306 5.6443385779857635,19.588834047317505 5.6443385779857635,19.588834047317505 6.433417648077011,19.390060007572174 6.433417648077011,19.390060007572174 7.3791250586509705,19.250012934207916 7.3791250586509705,19.250012934207916 8.374351263046265,19.123683869838715 8.374351263046265,19.123683869838715 9.36504602432251,19.0125972032547 9.36504602432251,19.0125972032547 10.296911746263504,18.918298184871674 10.296911746263504,18.918298184871674 11.115981638431549,18.842290341854095 11.115981638431549,18.842290341854095 11.768040806055069,18.786118924617767 11.768040806055069,18.786118924617767 12.19903901219368,18.751266598701477 12.19903901219368,18.751266598701477 12.35467940568924,18.73932033777237 12.35467940568924,18.73932033777237 12.478763610124588,18.65532100200653 12.478763610124588,18.65532100200653 12.858925759792328,18.433311581611633 12.858925759792328,18.433311581611633 13.507606089115143,18.11824142932892 13.507606089115143,18.11824142932892 14.43675309419632,17.75515526533127 14.43675309419632,17.75515526533127 15.658807754516602,17.389020323753357 15.658807754516602,17.389020323753357 17.18588024377823,17.06480383872986 17.18588024377823,17.06480383872986 19.030003249645233,16.827532649040222 19.030003249645233,16.827532649040222 21.203696727752686,16.722172498703003 21.203696727752686,16.722172498703003 23.332981765270233,16.7035311460495 23.332981765270233,16.7035311460495 25.06200075149536,16.694776713848114 25.06200075149536,16.694776713848114 26.42948031425476,16.69364422559738 26.42948031425476,16.69364422559738 27.474471926689148,16.697825491428375 27.474471926689148,16.697825491428375 28.235864639282227,16.70505553483963 28.235864639282227,16.70505553483963 28.752553462982178,16.71304702758789 28.752553462982178,16.71304702758789 29.063257575035095,16.71949476003647 29.063257575035095,16.71949476003647 29.207032918930054,16.722172498703003 29.207032918930054,16.722172498703003 29.42240834236145,16.769713163375854 29.42240834236145,16.769713163375854 29.8688143491745,16.895033419132233 29.8688143491745,16.895033419132233 30.466163158416748,17.07223951816559 30.466163158416748,17.07223951816559 31.134536862373352,17.275360226631165 31.134536862373352,17.275360226631165 31.793680787086487,17.47847944498062 31.793680787086487,17.47847944498062 32.36367702484131,17.655666172504425 32.36367702484131,17.655666172504425 32.76435434818268,17.781005799770355 32.76435434818268,17.781005799770355 32.915711402893066,17.828546464443207 32.915711402893066,17.828546464443207 32.98557996749878,17.774291336536407 32.98557996749878,17.774291336536407 33.16989243030548,17.6262304186821 33.16989243030548,17.6262304186821 33.430421352386475,17.406487464904785 33.430421352386475,17.406487464904785 33.72909426689148,17.137227952480316 33.72909426689148,17.137227952480316 34.02777016162872,16.840489208698273 34.02777016162872,16.840489208698273 34.28829610347748,16.53839498758316 34.28829610347748,16.53839498758316 34.47261154651642,16.25310778617859 34.47261154651642,16.25310778617859 34.54248011112213,16.006670892238617 34.54248011112213,16.006670892238617 34.562090039253235,15.740664303302765 34.562090039253235,15.740664303302765 34.61366891860962,15.403759479522705 34.61366891860962,15.403759479522705 34.68658626079559,15.0287464261055 34.68658626079559,15.0287464261055 34.770214557647705,14.648379385471344 34.770214557647705,14.648379385471344 34.85384285449982,14.295469224452972 34.85384285449982,14.295469224452972 34.92676019668579,14.002788066864014 34.92676019668579,14.002788066864014 34.978339076042175,13.80314975976944 34.978339076042175,13.80314975976944 34.99794900417328,13.72932493686676 34.99794900417328,13.72932493686676 35.06287336349487,11.972375214099884 35.06287336349487,11.972375214099884 36.29910051822662,11.712342500686646 36.29910051822662,11.712342500686646 39.87792730331421,4.685036092996597 39.87792730331421,4.685036092996597 39.846041798591614,4.659741371870041 39.846041798591614,4.659741371870041 39.76908624172211,4.59250845015049 39.76908624172211,4.59250845015049 39.67548608779907,4.4962529093027115 39.67548608779907,4.4962529093027115 39.5931750535965,4.384012892842293 39.5931750535965,4.384012892842293 39.55066204071045,4.268703609704971 39.55066204071045,4.268703609704971 39.575955271720886,4.163363948464394 39.575955271720886,4.163363948464394 39.69732224941254,4.080909118056297 39.69732224941254,4.080909118056297 39.943018555641174,4.034295305609703 39.943018555641174,4.034295305609703 40.184760093688965,3.964652493596077 40.184760093688965,3.964652493596077 40.315186977386475,3.8187548518180847 40.315186977386475,3.8187548518180847 40.393707156181335,3.617963194847107 40.393707156181335,3.617963194847107 40.479809045791626,3.3836372196674347 40.479809045791626,3.3836372196674347 40.63314199447632,3.137075901031494 40.63314199447632,3.137075901031494 40.91295003890991,2.8997013345360756 40.91295003890991,2.8997013345360756 41.37888252735138,2.692791633307934 41.37888252735138,2.692791633307934 42.09034740924835,2.5377072393894196 42.09034740924835,2.5377072393894196 43.44052076339722,2.3490063846111298 43.44052076339722,2.3490063846111298 45.60803771018982,2.052803337574005 45.60803771018982,2.052803337574005 48.33071529865265,1.6879666596651077 48.33071529865265,1.6879666596651077 51.34614109992981,1.2934067286550999 51.34614109992981,1.2934067286550999 54.39212918281555,0.9079718962311745 54.39212918281555,0.9079718962311745 57.20626711845398,0.570592749863863 57.20626711845398,0.570592749863863 59.52620506286621,0.3201177576556802 59.52620506286621,0.3201177576556802 61.08986139297485,0.1954364124685526 61.08986139297485,0.1954364124685526 63.325685262680054,0.14966705348342657 63.325685262680054,0.14966705348342657 67.39837527275085,0.10997417848557234 67.39837527275085,0.10997417848557234 72.64977693557739,0.07637839880771935 72.64977693557739,0.07637839880771935 78.42207551002502,0.0489003024995327 78.42207551002502,0.0489003024995327 84.05710458755493,0.027519292780198157 84.05710458755493,0.027519292780198157 88.89695405960083,0.01223537401529029 88.89695405960083,0.01223537401529029 92.28330850601196,0.003048544385819696 92.28330850601196,0.003048544385819696 93.55834722518921,0.0 93.55834722518921,0.0 93.56419444084167,0.020330495317466557 93.56419444084167,0.020330495317466557 93.58067512512207,0.0894789001904428 93.58067512512207,0.0894789001904428 93.60629916191101,0.219659972935915 93.60629916191101,0.219659972935915 93.63958239555359,0.4230061545968056 93.63958239555359,0.4230061545968056 93.67896914482117,0.7117527071386576 93.67896914482117,0.7117527071386576 93.72296333312988,1.0981145314872265 93.72296333312988,1.0981145314872265 93.77001523971558,1.594265177845955 93.77001523971558,1.594265177845955 93.81853938102722,2.2124193608760834 93.81853938102722,2.2124193608760834 93.87547373771667,3.0666708946228027 93.87547373771667,3.0666708946228027 93.94460320472717,4.203036427497864 93.94460320472717,4.203036427497864 94.0199077129364,5.531563237309456 94.0199077129364,5.531563237309456 94.09521818161011,6.962215900421143 94.09521818161011,6.962215900421143 94.1643476486206,8.405084162950516 94.1643476486206,8.405084162950516 94.22128200531006,9.770234674215317 94.22128200531006,9.770234674215317 94.25992369651794,10.967591404914856 94.25992369651794,10.967591404914856 94.27417516708374,11.907284706830978 94.27417516708374,11.907284706830978 94.27516460418701,12.255477905273438 94.27516460418701,12.255477905273438 94.41638588905334,12.135699391365051 94.41638588905334,12.135699391365051 94.56799030303955,12.028896808624268 94.56799030303955,12.028896808624268 94.72931623458862,11.93595752120018 94.72931623458862,11.93595752120018 94.89920735359192,11.857807636260986 94.89920735359192,11.857807636260986 95.0769305229187,11.795415729284286 95.0769305229187,11.795415729284286 95.26182413101196,11.749707907438278 95.26182413101196,11.749707907438278 95.45280933380127,11.721611768007278 95.45280933380127,11.721611768007278 95.64898610115051,11.712013185024261 95.64898610115051,11.712013185024261" stroke="white" stroke-width="0.1" /><polygon points="32.20020830631256,25.961732864379883 32.20020830631256,25.961732864379883 32.221055030822754,25.499632954597473 32.221055030822754,25.499632954597473 32.25705921649933,25.010094046592712 32.25705921649933,25.010094046592712 32.26875960826874,24.520595371723175 32.26875960826874,24.520595371723175 32.21635818481445,24.05853569507599 32.21635818481445,24.05853569507599 32.06022381782532,23.65138977766037 32.06022381782532,23.65138977766037 31.760889291763306,23.326575756072998 31.760889291763306,23.326575756072998 31.278476119041443,23.11157137155533 31.278476119041443,23.11157137155533 30.573439598083496,23.033812642097473 30.573439598083496,23.033812642097473 29.84294295310974,23.043328523635864 29.84294295310974,23.043328523635864 29.292309284210205,23.07344377040863 29.292309284210205,23.07344377040863 28.894269466400146,23.126421868801117 28.894269466400146,23.126421868801117 28.62130105495453,23.20457249879837 28.62130105495453,23.20457249879837 28.445884585380554,23.310159146785736 28.445884585380554,23.310159146785736 28.340670466423035,23.445510864257812 28.340670466423035,23.445510864257812 28.278133273124695,23.612871766090393 28.278133273124695,23.612871766090393 28.23083996772766,23.814569413661957 28.23083996772766,23.814569413661957 28.2093346118927,24.1085484623909 28.2093346118927,24.1085484623909 28.241220116615295,24.519112706184387 28.241220116615295,24.519112706184387 28.324851393699646,24.99835193157196 28.324851393699646,24.99835193157196 28.458821773529053,25.498148798942566 28.458821773529053,25.498148798942566 28.6415696144104,25.97050964832306 28.6415696144104,25.97050964832306 28.87161076068878,26.36735439300537 28.87161076068878,26.36735439300537 29.14746403694153,26.640695333480835 29.14746403694153,26.640695333480835 29.467394948005676,26.742491126060486 29.467394948005676,26.742491126060486 29.846319556236267,26.75699293613434 29.846319556236267,26.75699293613434 30.278638005256653,26.785212755203247 30.278638005256653,26.785212755203247 30.73229491710663,26.804307103157043 30.73229491710663,26.804307103157043 31.1754047870636,26.791349053382874 31.1754047870636,26.791349053382874 31.575670838356018,26.72351896762848 31.575670838356018,26.72351896762848 31.90128803253174,26.577848196029663 31.90128803253174,26.577848196029663 32.120123505592346,26.33155584335327 32.120123505592346,26.33155584335327" stroke="white" stroke-width="0.1" /><polygon points="55.29894828796387,17.242896556854248 55.29894828796387,17.242896556854248 55.42212724685669,16.90271645784378 55.42212724685669,16.90271645784378 55.50328493118286,16.22929722070694 55.50328493118286,16.22929722070694 55.54942488670349,15.304268896579742 55.54942488670349,15.304268896579742 55.56730031967163,14.20920342206955 55.56730031967163,14.20920342206955 55.56384325027466,13.025689125061035 55.56384325027466,13.025689125061035 55.54596185684204,11.835314333438873 55.54596185684204,11.835314333438873 55.5203378200531,10.719650238752365 55.5203378200531,10.719650238752365 55.49405217170715,9.760285913944244 55.49405217170715,9.760285913944244 55.49949407577515,8.963833004236221 55.49949407577515,8.963833004236221 55.52569031715393,8.28104093670845 55.52569031715393,8.28104093670845 55.51350116729736,7.709521800279617 55.51350116729736,7.709521800279617 55.40457367897034,7.2470493614673615 55.40457367897034,7.2470493614673615 55.14017343521118,6.891357898712158 55.14017343521118,6.891357898712158 54.6613872051239,6.640079617500305 54.6613872051239,6.640079617500305 53.90971899032593,6.490989774465561 53.90971899032593,6.490989774465561 52.82633304595947,6.4418211579322815 52.82633304595947,6.4418211579322815 51.37959122657776,6.444622576236725 51.37959122657776,6.444622576236725 49.670591950416565,6.451956182718277 49.670591950416565,6.451956182718277 47.83957004547119,6.462378799915314 47.83957004547119,6.462378799915314 46.026840806007385,6.474284082651138 46.026840806007385,6.474284082651138 44.37279999256134,6.486190110445023 44.37279999256134,6.486190110445023 43.01767945289612,6.496612727642059 43.01767945289612,6.496612727642059 42.10163354873657,6.503945589065552 42.10163354873657,6.503945589065552 41.7650580406189,6.506747007369995 41.7650580406189,6.506747007369995 41.54070317745209,6.81329071521759 41.54070317745209,6.81329071521759 41.22711420059204,7.3485784232616425 41.22711420059204,7.3485784232616425 40.85107147693634,8.048589527606964 40.85107147693634,8.048589527606964 40.4391884803772,8.84922370314598 40.4391884803772,8.84922370314598 40.018078684806824,9.686481952667236 40.018078684806824,9.686481952667236 39.61459994316101,10.496282577514648 39.61459994316101,10.496282577514648 39.255282282829285,11.214544624090195 39.255282282829285,11.214544624090195 38.966989517211914,11.77726835012436 38.966989517211914,11.77726835012436 38.68248462677002,12.298548966646194 38.68248462677002,12.298548966646194 38.33775222301483,12.909802794456482 38.33775222301483,12.909802794456482 37.96401917934418,13.572922348976135 37.96401917934418,13.572922348976135 37.59258985519409,14.249761402606964 37.59258985519409,14.249761402606964 37.25469708442688,14.902211725711823 37.25469708442688,14.902211725711823 36.98164522647858,15.492147207260132 36.98164522647858,15.492147207260132 36.80458068847656,15.981417894363403 36.80458068847656,15.981417894363403 36.754900217056274,16.331958770751953 36.754900217056274,16.331958770751953 36.76931858062744,16.584987938404083 36.76931858062744,16.584987938404083 36.78530156612396,16.806790232658386 36.78530156612396,16.806790232658386 36.83482110500336,16.9964998960495 36.83482110500336,16.9964998960495 36.9500070810318,17.15341806411743 36.9500070810318,17.15341806411743 37.1626615524292,17.27680116891861 37.1626615524292,17.27680116891861 37.50508725643158,17.365847527980804 37.50508725643158,17.365847527980804 38.00908625125885,17.419815063476562 38.00908625125885,17.419815063476562 38.706791400909424,17.438003420829773 38.706791400909424,17.438003420829773 40.020301938056946,17.445625364780426 40.020301938056946,17.445625364780426 42.15032756328583,17.462432384490967 42.15032756328583,17.462432384490967 44.79728937149048,17.479200661182404 44.79728937149048,17.479200661182404 47.661685943603516,17.48684197664261 47.661685943603516,17.48684197664261 50.44368505477905,17.476172745227814 50.44368505477905,17.476172745227814 52.84363627433777,17.438066005706787 52.84363627433777,17.438066005706787 54.56194281578064,17.363356053829193 54.56194281578064,17.363356053829193" stroke="white" stroke-width="0.1" /><polygon points="66.94570779800415,0.9758638218045235 66.94570779800415,0.9758638218045235 66.55367612838745,1.0064315982162952 66.55367612838745,1.0064315982162952 66.18785262107849,1.093974243849516 66.18785262107849,1.093974243849516 65.85638523101807,1.2324358336627483 65.85638523101807,1.2324358336627483 65.56726694107056,1.4155751094222069 65.56726694107056,1.4155751094222069 65.32832980155945,1.6373155638575554 65.32832980155945,1.6373155638575554 65.14780521392822,1.8915187567472458 65.14780521392822,1.8915187567472458 65.03360867500305,2.1719643846154213 65.03360867500305,2.1719643846154213 64.99381065368652,2.472616732120514 64.99381065368652,2.472616732120514 65.03369212150574,2.77324840426445 65.03369212150574,2.77324840426445 65.14780521392822,3.0536940321326256 65.14780521392822,3.0536940321326256 65.32832980155945,3.3078353852033615 65.32832980155945,3.3078353852033615 65.56718945503235,3.52957583963871 65.56718945503235,3.52957583963871 65.85638523101807,3.7126943469047546 65.85638523101807,3.7126943469047546 66.18785262107849,3.851114958524704 66.18785262107849,3.851114958524704 66.55367612838745,3.938678279519081 66.55367612838745,3.938678279519081 66.94570779800415,3.9692047983407974 66.94570779800415,3.9692047983407974 85.62009930610657,3.9692047983407974 85.62009930610657,3.9692047983407974 86.01220846176147,3.9386574178934097 86.01220846176147,3.9386574178934097 86.37803196907043,3.8511354476213455 86.37803196907043,3.8511354476213455 86.70949935913086,3.7126943469047546 86.70949935913086,3.7126943469047546 86.99861764907837,3.52957583963871 86.99861764907837,3.52957583963871 87.23756074905396,3.3078767359256744 87.23756074905396,3.3078767359256744 87.4180018901825,3.0536940321326256 87.4180018901825,3.0536940321326256 87.53211498260498,2.77324840426445 87.53211498260498,2.77324840426445 87.57199048995972,2.472616732120514 87.57199048995972,2.472616732120514 87.53211498260498,2.171984873712063 87.53211498260498,2.171984873712063 87.4180018901825,1.8914982676506042 87.4180018901825,1.8914982676506042 87.23739385604858,1.6373155638575554 87.23739385604858,1.6373155638575554 86.99861764907837,1.4155751094222069 86.99861764907837,1.4155751094222069 86.70949935913086,1.2323946692049503 86.70949935913086,1.2323946692049503 86.37803196907043,1.0939949192106724 86.37803196907043,1.0939949192106724 86.01220846176147,1.0064315982162952 86.01220846176147,1.0064315982162952 85.62009930610657,0.9758638218045235 85.62009930610657,0.9758638218045235" stroke="white" stroke-width="0.1" /><polygon points="90.50024151802063,15.160658955574036 90.50024151802063,15.160658955574036 90.50024151802063,7.678047567605972 90.50024151802063,7.678047567605972 90.4603660106659,7.285876572132111 90.4603660106659,7.285876572132111 90.34616947174072,6.920051574707031 90.34616947174072,6.920051574707031 90.1656448841095,6.588543206453323 90.1656448841095,6.588543206453323 89.9267852306366,6.299363821744919 89.9267852306366,6.299363821744919 89.63758945465088,6.0605064034461975 89.63758945465088,6.0605064034461975 89.30612206459045,5.880003422498703 89.30612206459045,5.880003422498703 88.94029259681702,5.765847861766815 88.94029259681702,5.765847861766815 88.54818344116211,5.7259902358055115 88.54818344116211,5.7259902358055115 64.27814960479736,5.7259902358055115 64.27814960479736,5.7259902358055115 63.886040449142456,5.765827372670174 63.886040449142456,5.765827372670174 63.520294427871704,5.8799829334020615 63.520294427871704,5.8799829334020615 63.188743591308594,6.060526892542839 63.188743591308594,6.060526892542839 62.899547815322876,6.299363821744919 62.899547815322876,6.299363821744919 62.660688161849976,6.588522344827652 62.660688161849976,6.588522344827652 62.48016357421875,6.920051574707031 62.48016357421875,6.920051574707031 62.365883588790894,7.285897433757782 62.365883588790894,7.285897433757782 62.32609152793884,7.678047567605972 62.32609152793884,7.678047567605972 62.32609152793884,15.160658955574036 62.32609152793884,15.160658955574036 62.36596703529358,15.552766621112823 62.36596703529358,15.552766621112823 62.48016357421875,15.918593108654022 62.48016357421875,15.918593108654022 62.66060471534729,16.25010073184967 62.66060471534729,16.25010073184967 62.899547815322876,16.539280116558075 62.899547815322876,16.539280116558075 63.188743591308594,16.778159141540527 63.188743591308594,16.778159141540527 63.52021098136902,16.958682239055634 63.52021098136902,16.958682239055634 63.886040449142456,17.072878777980804 63.886040449142456,17.072878777980804 64.27814960479736,17.112715542316437 64.27814960479736,17.112715542316437 88.54818344116211,17.112715542316437 88.54818344116211,17.112715542316437 88.94029259681702,17.072878777980804 88.94029259681702,17.072878777980804 89.30603861808777,16.958682239055634 89.30603861808777,16.958682239055634 89.63758945465088,16.778159141540527 89.63758945465088,16.778159141540527 89.9267852306366,16.539280116558075 89.9267852306366,16.539280116558075 90.1656448841095,16.25010073184967 90.1656448841095,16.25010073184967 90.34616947174072,15.91857224702835 90.34616947174072,15.91857224702835 90.4603660106659,15.552766621112823 90.4603660106659,15.552766621112823" stroke="white" stroke-width="0.1" /><polygon points="26.40896439552307,40.86219370365143 26.40896439552307,40.86219370365143 26.210641860961914,42.82918572425842 26.210641860961914,42.82918572425842 25.641965866088867,44.66123580932617 25.641965866088867,44.66123580932617 24.742068350315094,46.319130063056946 24.742068350315094,46.319130063056946 23.550252616405487,47.76362478733063 23.550252616405487,47.76362478733063 22.105737030506134,48.95541965961456 22.105737030506134,48.95541965961456 20.447905361652374,49.855318665504456 20.447905361652374,49.855318665504456 18.615812063217163,50.424039363861084 18.615812063217163,50.424039363861084 16.64884239435196,50.62231421470642 16.64884239435196,50.62231421470642 14.68178927898407,50.424039363861084 14.68178927898407,50.424039363861084 12.849779427051544,49.855318665504456 12.849779427051544,49.855318665504456 11.191947758197784,48.955440521240234 11.191947758197784,48.955440521240234 9.747432172298431,47.76362478733063 9.747432172298431,47.76362478733063 8.555616438388824,46.31915092468262 8.555616438388824,46.31915092468262 7.655718922615051,44.66125667095184 7.655718922615051,44.66125667095184 7.087041437625885,42.82918572425842 7.087041437625885,42.82918572425842 6.8887218832969666,40.86219370365143 6.8887218832969666,40.86219370365143 6.90116286277771,40.36610722541809 6.90116286277771,40.36610722541809 6.937992572784424,39.876505732536316 6.937992572784424,39.876505732536316 6.998716294765472,39.393970370292664 6.998716294765472,39.393970370292664 7.082674652338028,38.919055461883545 7.082674652338028,38.919055461883545 7.189209014177322,38.45232129096985 7.189209014177322,38.45232129096985 7.31782466173172,37.99437880516052 7.31782466173172,37.99437880516052 7.467780262231827,37.54574954509735 7.467780262231827,37.54574954509735 7.638498395681381,37.10704743862152 7.638498395681381,37.10704743862152 8.28157663345337,35.836607217788696 8.28157663345337,35.836607217788696 9.096197038888931,34.68112647533417 9.096197038888931,34.68112647533417 10.065634548664093,33.657413721084595 10.065634548664093,33.657413721084595 11.173079907894135,32.782211899757385 11.173079907894135,32.782211899757385 12.401808053255081,32.072314620018005 12.401808053255081,32.072314620018005 13.73525857925415,31.544482707977295 13.73525857925415,31.544482707977295 15.156538784503937,31.21548891067505 15.156538784503937,31.21548891067505 16.64884239435196,31.102073192596436 16.64884239435196,31.102073192596436 18.580713868141174,31.29332959651947 18.580713868141174,31.29332959651947 20.383061468601227,31.842252612113953 20.383061468601227,31.842252612113953 22.01889455318451,32.71176815032959 22.01889455318451,32.71176815032959 23.45096915960312,33.86467397212982 23.45096915960312,33.86467397212982 24.64229017496109,35.263851284980774 24.64229017496109,35.263851284980774 25.555863976478577,36.87216639518738 25.555863976478577,36.87216639518738 26.154616475105286,38.65245282649994 26.154616475105286,38.65245282649994 26.40138268470764,40.56755602359772 26.40138268470764,40.56755602359772 26.40261948108673,40.604305267333984 26.40261948108673,40.604305267333984 26.40385627746582,40.641093254089355 26.40385627746582,40.641093254089355 26.405009627342224,40.677839517593384 26.405009627342224,40.677839517593384 26.40632688999176,40.714627504348755 26.40632688999176,40.714627504348755 26.40731632709503,40.751418471336365 26.40731632709503,40.751418471336365 26.408138871192932,40.78828692436218 26.408138871192932,40.78828692436218 26.408717036247253,40.82522094249725 26.408717036247253,40.82522094249725" stroke="white" stroke-width="0.1" /><polygon points="87.53969669342041,40.86219370365143 87.53969669342041,40.86219370365143 87.34137415885925,42.82918572425842 87.34137415885925,42.82918572425842 86.7726981639862,44.66123580932617 86.7726981639862,44.66123580932617 85.87279915809631,46.319130063056946 85.87279915809631,46.319130063056946 84.68098044395447,47.76362478733063 84.68098044395447,47.76362478733063 83.23646783828735,48.95541965961456 83.23646783828735,48.95541965961456 81.57855272293091,49.855318665504456 81.57855272293091,49.855318665504456 79.74629402160645,50.424039363861084 79.74629402160645,50.424039363861084 77.77924537658691,50.62231421470642 77.77924537658691,50.62231421470642 75.81227421760559,50.424039363861084 75.81227421760559,50.424039363861084 73.98034334182739,49.855318665504456 73.98034334182739,49.855318665504456 72.32259511947632,48.955440521240234 72.32259511947632,48.955440521240234 70.87815999984741,47.76362478733063 70.87815999984741,47.76362478733063 69.68634724617004,46.31915092468262 69.68634724617004,46.31915092468262 68.78661513328552,44.66125667095184 68.78661513328552,44.66125667095184 68.21785569190979,42.82918572425842 68.21785569190979,42.82918572425842 68.01961660385132,40.86219370365143 68.01961660385132,40.86219370365143 68.019700050354,40.85399806499481 68.019700050354,40.85399806499481 68.01986694335938,40.8458411693573 68.01986694335938,40.8458411693573 68.02019476890564,40.83770215511322 68.02019476890564,40.83770215511322 68.02035570144653,40.82958698272705 68.02035570144653,40.82958698272705 68.02060604095459,40.82147181034088 68.02060604095459,40.82147181034088 68.02093386650085,40.81337749958038 68.02093386650085,40.81337749958038 68.02101731300354,40.805262327194214 68.02101731300354,40.805262327194214 68.02110075950623,40.7971054315567 68.02110075950623,40.7971054315567 68.23029518127441,38.8415664434433 68.23029518127441,38.8415664434433 68.80589127540588,37.02092468738556 68.80589127540588,37.02092468738556 69.7086751461029,35.37399172782898 69.7086751461029,35.37399172782898 70.9002435207367,33.939528465270996 70.9002435207367,33.939528465270996 72.34187722206116,32.756322622299194 72.34187722206116,32.756322622299194 73.99476170539856,31.86313807964325 73.99476170539856,31.86313807964325 75.8201003074646,31.298828125 75.8201003074646,31.298828125 77.77924537658691,31.102073192596436 77.77924537658691,31.102073192596436 79.34133410453796,31.226468086242676 79.34133410453796,31.226468086242676 80.82449436187744,31.58670961856842 80.82449436187744,31.58670961856842 82.20927119255066,32.16352462768555 82.20927119255066,32.16352462768555 83.4765613079071,32.93762803077698 83.4765613079071,32.93762803077698 84.60716009140015,33.8896781206131 84.60716009140015,33.8896781206131 85.58170199394226,35.00041961669922 85.58170199394226,35.00041961669922 86.38108372688293,36.25052869319916 86.38108372688293,36.25052869319916 86.98601126670837,37.62068450450897 86.98601126670837,37.62068450450897 87.1123194694519,38.004595041275024 87.1123194694519,38.004595041275024 87.22330331802368,38.39530348777771 87.22330331802368,38.39530348777771 87.31822371482849,38.79239857196808 87.31822371482849,38.79239857196808 87.3968243598938,39.19558823108673 87.3968243598938,39.19558823108673 87.45869994163513,39.60448503494263 87.45869994163513,39.60448503494263 87.50343918800354,40.01881778240204 87.50343918800354,40.01881778240204 87.53054738044739,40.43815732002258 87.53054738044739,40.43815732002258" stroke="white" stroke-width="0.1" /></svg>