<?xml version="1.0" encoding="utf-8" ?>
<svg baseProfile="full" height="80.51126599311829" version="1.1" width="76.92599296569824" xmlns="http://www.w3.org/2000/svg" xmlns:ev="http://www.w3.org/2001/xml-events" xmlns:xlink="http://www.w3.org/1999/xlink"><defs><clipPath /></defs><polygon points="76.53307914733887,54.054057598114014 76.53307914733887,54.054057598114014 76.92599296569824,75.30801892280579 76.92599296569824,75.30801892280579 76.9059956073761,76.25961303710938 76.9059956073761,76.25961303710938 76.78178548812866,77.17358469963074 76.78178548812866,77.17358469963074 76.5101432800293,78.03365588188171 76.5101432800293,78.03365588188171 76.04780793190002,78.82330417633057 76.04780793190002,78.82330417633057 75.35152435302734,79.52625751495361 75.35152435302734,79.52625751495361 74.43180680274963,80.06046414375305 74.43180680274963,80.06046414375305 73.43254685401917,80.33826947212219 73.43254685401917,80.33826947212219 72.38430380821228,80.43886423110962 72.38430380821228,80.43886423110962 71.31768465042114,80.44118881225586 71.31768465042114,80.44118881225586 70.26325464248657,80.42435050010681 70.26325464248657,80.42435050010681 68.65370273590088,80.42435050010681 68.65370273590088,80.42435050010681 68.38549971580505,79.46236729621887 68.38549971580505,79.46236729621887 68.00810694694519,78.54002118110657 68.00810694694519,78.54002118110657 67.52586364746094,77.66788601875305 67.52586364746094,77.66788601875305 66.94302558898926,76.85596346855164 66.94302558898926,76.85596346855164 66.2639319896698,76.11490488052368 66.2639319896698,76.11490488052368 51.817238330841064,62.07095384597778 51.817238330841064,62.07095384597778 50.7707953453064,61.2096905708313 50.7707953453064,61.2096905708313 49.63004291057587,60.53682565689087 49.63004291057587,60.53682565689087 48.419928550720215,60.05471348762512 48.419928550720215,60.05471348762512 47.16534614562988,59.765464067459106 47.16534614562988,59.765464067459106 45.8912193775177,59.67135429382324 45.8912193775177,59.67135429382324 44.57310736179352,59.7712516784668 44.57310736179352,59.7712516784668 43.265500664711,60.08487939834595 43.265500664711,60.08487939834595 42.00317859649658,60.61040759086609 42.00317859649658,60.61040759086609 40.82084596157074,61.34603023529053 40.82084596157074,61.34603023529053 39.75330591201782,62.28986382484436 39.75330591201782,62.28986382484436 39.39582109451294,62.6814603805542 39.39582109451294,62.6814603805542 39.067697525024414,63.09082508087158 39.067697525024414,63.09082508087158 38.76901865005493,63.516366481781006 38.76901865005493,63.516366481781006 38.49983215332031,63.95668387413025 38.49983215332031,63.95668387413025 38.26022446155548,64.41020369529724 38.26022446155548,64.41020369529724 38.01385164260864,63.948750495910645 38.01385164260864,63.948750495910645 37.73777782917023,63.50022554397583 37.73777782917023,63.50022554397583 37.43194341659546,63.0662202835083 37.43194341659546,63.0662202835083 37.0962530374527,62.6486599445343 37.0962530374527,62.6486599445343 36.730656027793884,62.249165773391724 36.730656027793884,62.249165773391724 35.6812059879303,61.328792572021484 35.6812059879303,61.328792572021484 34.51341986656189,60.606420040130615 34.51341986656189,60.606420040130615 33.26049447059631,60.08654832839966 33.26049447059631,60.08654832839966 31.955626606941223,59.77335572242737 31.955626606941223,59.77335572242737 30.632033944129944,59.67135429382324 30.632033944129944,59.67135429382324 29.365438222885132,59.76458787918091 29.365438222885132,59.76458787918091 28.113335371017456,60.05159616470337 28.113335371017456,60.05159616470337 26.903319358825684,60.531121492385864 26.903319358825684,60.531121492385864 25.763019919395447,61.20144724845886 25.763019919395447,61.20144724845886 24.720047414302826,62.0611310005188 24.720047414302826,62.0611310005188 10.250905156135559,76.13033652305603 10.250905156135559,76.13033652305603 9.568016231060028,76.87302231788635 9.568016231060028,76.87302231788635 8.982456475496292,77.69073247909546 8.982456475496292,77.69073247909546 8.49895253777504,78.57181429862976 8.49895253777504,78.57181429862976 8.122196048498154,79.50463891029358 8.122196048498154,79.50463891029358 7.856922596693039,80.47767877578735 7.856922596693039,80.47767877578735 7.03936293721199,80.50008416175842 7.03936293721199,80.50008416175842 6.222077086567879,80.51126599311829 6.222077086567879,80.51126599311829 5.408025905489922,80.5031955242157 5.408025905489922,80.5031955242157 4.600168392062187,80.46758770942688 4.600168392062187,80.46758770942688 3.8014650344848633,80.39628863334656 3.8014650344848633,80.39628863334656 1.459918636828661,79.28963303565979 1.459918636828661,79.28963303565979 0.3227855544537306,77.04334259033203 0.3227855544537306,77.04334259033203 0.0018198690668214113,74.18698072433472 0.0018198690668214113,74.18698072433472 0.10877554304897785,71.24993205070496 0.10877554304897785,71.24993205070496 0.25539558846503496,68.7617540359497 0.25539558846503496,68.7617540359497 0.3091365331783891,65.89272022247314 0.3091365331783891,65.89272022247314 0.36266918759793043,63.023072481155396 0.36266918759793043,63.023072481155396 0.4161470104008913,60.15303134918213 0.4161470104008913,60.15303134918213 0.46967966482043266,57.282984256744385 0.46967966482043266,57.282984256744385 0.5234206095337868,54.41329479217529 0.5234206095337868,54.41329479217529 0.5959303583949804,53.875839710235596 0.5959303583949804,53.875839710235596 0.7559362798929214,53.340840339660645 0.7559362798929214,53.340840339660645 0.9424180723726749,52.81558036804199 0.9424180723726749,52.81558036804199 1.0943442583084106,52.30715870857239 1.0943442583084106,52.30715870857239 1.150683406740427,51.822853088378906 1.150683406740427,51.822853088378906 1.134523842483759,51.12670063972473 1.134523842483759,51.12670063972473 1.118101179599762,50.43080449104309 1.118101179599762,50.43080449104309 1.101481169462204,49.73522126674652 1.101481169462204,49.73522126674652 1.0847186669707298,49.039679765701294 1.0847186669707298,49.039679765701294 1.0678903199732304,48.344141244888306 1.0678903199732304,48.344141244888306 1.3435675762593746,47.42867946624756 1.3435675762593746,47.42867946624756 2.0676452666521072,46.783438324928284 2.0676452666521072,46.783438324928284 3.0098987743258476,46.25861346721649 3.0098987743258476,46.25861346721649 3.940093144774437,45.704278349876404 3.940093144774437,45.704278349876404 4.627992585301399,44.97067332267761 4.627992585301399,44.97067332267761 3.008374944329262,44.68523859977722 3.008374944329262,44.68523859977722 1.6647744923830032,43.86322796344757 1.6647744923830032,43.86322796344757 0.6920545361936092,42.63698756694794 0.6920545361936092,42.63698756694794 0.18503463361412287,41.13868772983551 0.18503463361412287,41.13868772983551 0.23855632171034813,39.50071632862091 0.23855632171034813,39.50071632862091 0.8260012604296207,38.043639063835144 0.8260012604296207,38.043639063835144 1.7800729721784592,37.04564869403839 1.7800729721784592,37.04564869403839 3.007344529032707,36.429086327552795 3.007344529032707,36.429086327552795 4.4143881648778915,36.116111278533936 4.4143881648778915,36.116111278533936 5.907776951789856,36.02901995182037 5.907776951789856,36.02901995182037 6.594119966030121,36.0273540019989 6.594119966030121,36.0273540019989 7.271582633256912,36.04353666305542 7.271582633256912,36.04353666305542 7.93900340795517,36.10909581184387 7.93900340795517,36.10909581184387 8.595240861177444,36.25556230545044 8.595240861177444,36.25556230545044 9.239146113395691,36.51455342769623 9.239146113395691,36.51455342769623 9.252476692199707,36.49012744426727 9.252476692199707,36.49012744426727 9.265687316656113,36.46570146083832 9.265687316656113,36.46570146083832 9.278963506221771,36.441320180892944 9.278963506221771,36.441320180892944 9.292492270469666,36.41689419746399 9.292492270469666,36.41689419746399 9.30650308728218,36.392468214035034 9.30650308728218,36.392468214035034 12.44422048330307,40.01712203025818 12.44422048330307,40.01712203025818 12.442663311958313,40.05536139011383 12.442663311958313,40.05536139011383 12.44015321135521,40.09394943714142 12.44015321135521,40.09394943714142 12.437456101179123,40.132978558540344 12.437456101179123,40.132978558540344 12.435285747051239,40.17191827297211 12.435285747051239,40.17191827297211 12.434397637844086,40.210771560668945 12.434397637844086,40.210771560668945 12.441742420196533,40.209633111953735 12.441742420196533,40.209633111953735 12.462824583053589,40.20630121231079 12.462824583053589,40.20630121231079 12.496229261159897,40.20112454891205 12.496229261159897,40.20112454891205 12.540552020072937,40.1940643787384 12.540552020072937,40.1940643787384 12.594370543956757,40.18551409244537 12.594370543956757,40.18551409244537 13.283015787601471,40.904560685157776 13.283015787601471,40.904560685157776 14.022725820541382,41.55322313308716 14.022725820541382,41.55322313308716 14.80695903301239,42.12944209575653 14.80695903301239,42.12944209575653 15.6291663646698,42.63128638267517 15.6291663646698,42.63128638267517 16.482838988304138,43.056610226631165 16.482838988304138,43.056610226631165 17.372502386569977,43.409618735313416 17.372502386569977,43.409618735313416 18.283653259277344,43.68523061275482 18.283653259277344,43.68523061275482 19.211512804031372,43.882960081100464 19.211512804031372,43.882960081100464 20.15128880739212,44.00193393230438 20.15128880739212,44.00193393230438 21.098200976848602,44.04170513153076 21.098200976848602,44.04170513153076 22.65985757112503,43.9334362745285 22.65985757112503,43.9334362745285 24.206209182739258,43.60629618167877 24.206209182739258,43.60629618167877 25.709882378578186,43.05945932865143 25.709882378578186,43.05945932865143 27.143412828445435,42.29187071323395 27.143412828445435,42.29187071323395 28.47941517829895,41.30252003669739 28.47941517829895,41.30252003669739 28.487834334373474,41.2926971912384 28.487834334373474,41.2926971912384 31.38839900493622,38.78224194049835 31.38839900493622,38.78224194049835 32.718053460121155,38.75040411949158 32.718053460121155,38.75040411949158 34.08825099468231,38.72426748275757 34.08825099468231,38.72426748275757 35.501161217689514,38.704752922058105 35.501161217689514,38.704752922058105 36.95891797542572,38.692474365234375 36.95891797542572,38.692474365234375 38.46369981765747,38.68822157382965 38.46369981765747,38.68822157382965 44.135746359825134,38.74610662460327 44.135746359825134,38.74610662460327 49.124929308891296,38.90020251274109 49.124929308891296,38.90020251274109 53.4256637096405,39.12108838558197 53.4256637096405,39.12108838558197 57.03234672546387,39.37920331954956 57.03234672546387,39.37920331954956 59.93937849998474,39.645254611968994 59.93937849998474,39.645254611968994 60.168737173080444,39.77865278720856 60.168737173080444,39.77865278720856 60.40053367614746,39.907315373420715 60.40053367614746,39.907315373420715 60.634809732437134,40.030452609062195 60.634809732437134,40.030452609062195 60.87164878845215,40.14727473258972 60.87164878845215,40.14727473258972 61.11111044883728,40.257081389427185 61.11111044883728,40.257081389427185 62.00032830238342,40.6093031167984 62.00032830238342,40.6093031167984 62.910449504852295,40.884166955947876 62.910449504852295,40.884166955947876 63.83705735206604,41.08119606971741 63.83705735206604,41.08119606971741 64.77578282356262,41.19972884654999 64.77578282356262,41.19972884654999 65.72226881980896,41.2393718957901 65.72226881980896,41.2393718957901 67.28513836860657,41.130661964416504 67.28513836860657,41.130661964416504 68.83459091186523,40.8018559217453 68.83459091186523,40.8018559217453 70.3424334526062,40.25138020515442 70.3424334526062,40.25138020515442 71.78041338920593,39.47760760784149 71.78041338920593,39.47760760784149 73.12031984329224,38.47913444042206 73.12031984329224,38.47913444042206 75.031578540802,36.824676394462585 75.031578540802,36.824676394462585 75.12116432189941,36.88699007034302 75.12116432189941,36.88699007034302 75.20972490310669,36.952680349349976 75.20972490310669,36.952680349349976 75.2973198890686,37.02174723148346 75.2973198890686,37.02174723148346 75.38384199142456,37.09414899349213 75.38384199142456,37.09414899349213 75.46939849853516,37.16988265514374 75.46939849853516,37.16988265514374 76.68384313583374,39.018210768699646 76.68384313583374,39.018210768699646 76.84944868087769,41.09303653240204 76.84944868087769,41.09303653240204 76.10459923744202,43.02380681037903 76.10459923744202,43.02380681037903 74.58766102790833,44.43988502025604 74.58766102790833,44.43988502025604 72.43692278862,44.97067332267761 72.43692278862,44.97067332267761 73.00527095794678,45.52110731601715 73.00527095794678,45.52110731601715 73.91895651817322,46.075618267059326 73.91895651817322,46.075618267059326 74.90532398223877,46.63105010986328 74.90532398223877,46.63105010986328 75.69172978401184,47.18385338783264 75.69172978401184,47.18385338783264 76.00544691085815,47.730910778045654 76.00544691085815,47.730910778045654 75.99084377288818,48.36983680725098 75.99084377288818,48.36983680725098 75.97582340240479,49.00850057601929 75.97582340240479,49.00850057601929 75.9607195854187,49.64720904827118 75.9607195854187,49.64720904827118 75.94567537307739,50.28587579727173 75.94567537307739,50.28587579727173 75.93107223510742,50.92476010322571 75.93107223510742,50.92476010322571 75.97994804382324,51.58376693725586 75.97994804382324,51.58376693725586 76.12196207046509,52.193403244018555 76.12196207046509,52.193403244018555 76.29978060722351,52.78650522232056 76.29978060722351,52.78650522232056 76.45593881607056,53.395748138427734 76.45593881607056,53.395748138427734" stroke="white" stroke-width="0.1" /><polygon points="14.188487827777863,55.75903058052063 14.188487827777863,55.75903058052063 14.188487827777863,47.437626123428345 14.188487827777863,47.437626123428345 5.649574846029282,47.437626123428345 5.649574846029282,47.437626123428345 5.649574846029282,55.75903058052063 5.649574846029282,55.75903058052063" stroke="white" stroke-width="0.1" /><polygon points="19.73562389612198,55.75903058052063 19.73562389612198,55.75903058052063 19.73562389612198,47.436222434043884 19.73562389612198,47.436222434043884 16.746653616428375,47.436222434043884 16.746653616428375,47.436222434043884 16.746653616428375,55.75903058052063 16.746653616428375,55.75903058052063" stroke="white" stroke-width="0.1" /><polygon points="38.46369981765747,47.10926115512848 38.46369981765747,47.10926115512848 39.69229757785797,46.70967757701874 39.69229757785797,46.70967757701874 40.306589007377625,45.75681388378143 40.306589007377625,45.75681388378143 40.306589007377625,44.619548320770264 40.306589007377625,44.619548320770264 39.69229757785797,43.66668164730072 39.69229757785797,43.66668164730072 38.46369981765747,43.26710104942322 38.46369981765747,43.26710104942322 37.23443150520325,43.66668164730072 37.23443150520325,43.66668164730072 36.619797348976135,44.61950361728668 36.619797348976135,44.61950361728668 36.619797348976135,45.756855607032776 36.619797348976135,45.756855607032776 37.23443150520325,46.70967757701874 37.23443150520325,46.70967757701874" stroke="white" stroke-width="0.1" /><polygon points="60.179340839385986,55.75903058052063 60.179340839385986,55.75903058052063 60.179340839385986,47.436222434043884 60.179340839385986,47.436222434043884 57.19037055969238,47.436222434043884 57.19037055969238,47.436222434043884 57.19037055969238,55.75903058052063 57.19037055969238,55.75903058052063" stroke="white" stroke-width="0.1" /><polygon points="71.27642035484314,55.75903058052063 71.27642035484314,55.75903058052063 71.27642035484314,47.437626123428345 71.27642035484314,47.437626123428345 62.7375066280365,47.437626123428345 62.7375066280365,47.437626123428345 62.7375066280365,55.75903058052063 62.7375066280365,55.75903058052063" stroke="white" stroke-width="0.1" /></svg>