<?xml version="1.0" encoding="utf-8" ?>
<svg baseProfile="full" height="99.97281432151794" version="1.1" width="62.68698573112488" xmlns="http://www.w3.org/2000/svg" xmlns:ev="http://www.w3.org/2001/xml-events" xmlns:xlink="http://www.w3.org/1999/xlink"><defs><clipPath /></defs><polygon points="42.74788796901703,69.1588819026947 42.74788796901703,69.1588819026947 42.77842044830322,68.74881982803345 42.77842044830322,68.74881982803345 42.870259284973145,68.34449768066406 42.870259284973145,68.34449768066406 43.023720383644104,67.95487403869629 43.023720383644104,67.95487403869629 43.239155411720276,67.58862137794495 43.239155411720276,67.58862137794495 43.51688325405121,67.254638671875 43.51688325405121,67.254638671875 44.222837686538696,66.72644019126892 44.222837686538696,66.72644019126892 45.02714276313782,66.4563536643982 45.02714276313782,66.4563536643982 45.866477489471436,66.44376516342163 45.866477489471436,66.44376516342163 46.6775119304657,66.68763160705566 46.6775119304657,66.68763160705566 47.39693105220795,67.18728542327881 47.39693105220795,67.18728542327881 61.85203790664673,81.24105930328369 61.85203790664673,81.24105930328369 62.143635749816895,81.57258033752441 62.143635749816895,81.57258033752441 62.37630844116211,81.94260597229004 62.37630844116211,81.94260597229004 62.54667043685913,82.34403133392334 62.54667043685913,82.34403133392334 62.65134811401367,82.76926279067993 62.65134811401367,82.76926279067993 62.68698573112488,83.21124911308289 62.68698573112488,83.21124911308289 62.65133619308472,83.64762663841248 62.65133619308472,83.64762663841248 62.546658515930176,84.06926393508911 62.546658515930176,84.06926393508911 62.37630844116211,84.46849584579468 62.37630844116211,84.46849584579468 62.143635749816895,84.8375141620636 62.143635749816895,84.8375141620636 61.85203790664673,85.16881465911865 61.85203790664673,85.16881465911865 47.39693105220795,99.22399520874023 47.39693105220795,99.22399520874023 46.67750298976898,99.72829222679138 46.67750298976898,99.72829222679138 45.86646556854248,99.97281432151794 45.86646556854248,99.97281432151794 45.02715468406677,99.95948076248169 45.02715468406677,99.95948076248169 44.222837686538696,99.69009757041931 44.222837686538696,99.69009757041931 43.51688325405121,99.16645884513855 43.51688325405121,99.16645884513855 43.01595687866211,98.44938516616821 43.01595687866211,98.44938516616821 42.77227222919464,97.63851165771484 42.77227222919464,97.63851165771484 42.785099148750305,96.79935574531555 42.785099148750305,96.79935574531555 43.05364787578583,95.99721431732178 43.05364787578583,95.99721431732178 43.577224016189575,95.29763460159302 43.577224016189575,95.29763460159302 55.27069568634033,83.93113017082214 55.27069568634033,83.93113017082214 55.37779927253723,83.80834460258484 55.37779927253723,83.80834460258484 55.462753772735596,83.67231488227844 55.462753772735596,83.67231488227844 55.52460551261902,83.52575898170471 55.52460551261902,83.52575898170471 55.562400817871094,83.37118029594421 55.562400817871094,83.37118029594421 55.57520389556885,83.21124911308289 55.57520389556885,83.21124911308289 55.562400817871094,83.04601311683655 55.562400817871094,83.04601311683655 55.52459955215454,82.8888475894928 55.52459955215454,82.8888475894928 55.46276569366455,82.7424705028534 55.46276569366455,82.7424705028534 55.37779927253723,82.60955214500427 55.37779927253723,82.60955214500427 55.27069568634033,82.49277472496033 55.27069568634033,82.49277472496033 43.56740117073059,71.12205624580383 43.56740117073059,71.12205624580383 43.272560834884644,70.77803611755371 43.272560834884644,70.77803611755371 43.04311275482178,70.40151953697205 43.04311275482178,70.40151953697205 42.87916123867035,70.00071406364441 42.87916123867035,70.00071406364441 42.780712246894836,69.5837676525116 42.780712246894836,69.5837676525116" stroke="white" stroke-width="0.1" /></svg>