<?xml version="1.0" encoding="utf-8" ?>
<svg baseProfile="full" height="69.14559602737427" version="1.1" width="100.0" xmlns="http://www.w3.org/2000/svg" xmlns:ev="http://www.w3.org/2001/xml-events" xmlns:xlink="http://www.w3.org/1999/xlink"><defs><clipPath /></defs><polygon points="28.8374662399292,61.21261119842529 28.8374662399292,61.21261119842529 28.828850388526917,61.209261417388916 28.828850388526917,61.209261417388916 28.819650411605835,61.20653748512268 28.819650411605835,61.20653748512268 28.810018301010132,61.20423674583435 28.810018301010132,61.20423674583435 28.800076246261597,61.20227575302124 28.800076246261597,61.20227575302124 28.7899911403656,61.20036244392395 28.7899911403656,61.20036244392395 28.808367252349854,61.203426122665405 28.808367252349854,61.203426122665405" stroke="white" stroke-width="0.1" /><polygon points="80.08943796157837,35.18385291099548 80.08943796157837,35.18385291099548 81.46665692329407,36.1659049987793 81.46665692329407,36.1659049987793 85.01744866371155,39.01227414608002 85.01744866371155,39.01227414608002 89.87075686454773,43.57287585735321 89.87075686454773,43.57287585735321 95.15531063079834,49.69777464866638 95.15531063079834,49.69777464866638 100.0,57.23693370819092 100.0,57.23693370819092 84.97021198272705,69.14559602737427 84.97021198272705,69.14559602737427 71.30802273750305,69.14559602737427 71.30802273750305,69.14559602737427 70.25231719017029,67.76527166366577 70.25231719017029,67.76527166366577 67.31334328651428,64.89530801773071 67.31334328651428,64.89530801773071 62.833356857299805,62.44238018989563 62.833356857299805,62.44238018989563 57.15465545654297,62.31287717819214 57.15465545654297,62.31287717819214 50.61947703361511,66.41346216201782 50.61947703361511,66.41346216201782 49.91499185562134,66.14689230918884 49.91499185562134,66.14689230918884 48.06293845176697,65.35435914993286 48.06293845176697,65.35435914993286 45.45541703701019,64.04634714126587 45.45541703701019,64.04634714126587 42.48454570770264,62.2333824634552 42.48454570770264,62.2333824634552 39.54239785671234,59.92618203163147 39.54239785671234,59.92618203163147 39.03355896472931,60.18452048301697 39.03355896472931,60.18452048301697 38.516125082969666,60.4225218296051 38.516125082969666,60.4225218296051 37.99030780792236,60.639846324920654 37.99030780792236,60.639846324920654 37.45633065700531,60.8359694480896 37.45633065700531,60.8359694480896 36.91440522670746,61.010462045669556 36.91440522670746,61.010462045669556 36.03243827819824,61.24845743179321 36.03243827819824,61.24845743179321 35.15474200248718,61.427879333496094 35.15474200248718,61.427879333496094 34.284475445747375,61.55216693878174 34.284475445747375,61.55216693878174 33.424773812294006,61.62424087524414 33.424773812294006,61.62424087524414 32.578831911087036,61.64754629135132 32.578831911087036,61.64754629135132 31.80106282234192,61.6287887096405 31.80106282234192,61.6287887096405 31.039687991142273,61.57384514808655 31.039687991142273,61.57384514808655 30.295681953430176,61.4848792552948 30.295681953430176,61.4848792552948 29.56995964050293,61.36370301246643 29.56995964050293,61.36370301246643 28.86350154876709,61.21261119842529 28.86350154876709,61.21261119842529 28.808367252349854,61.203426122665405 28.808367252349854,61.203426122665405 28.788459300994873,61.197298765182495 28.788459300994873,61.197298765182495 28.7899911403656,61.20036244392395 28.7899911403656,61.20036244392395 26.127588748931885,60.359299182891846 26.127588748931885,60.359299182891846 23.723632097244263,59.256261587142944 23.723632097244263,59.256261587142944 21.56463861465454,57.976675033569336 21.56463861465454,57.976675033569336 19.63704079389572,56.60539269447327 19.63704079389572,56.60539269447327 17.927317321300507,55.22765517234802 17.927317321300507,55.22765517234802 17.922721803188324,55.22765517234802 17.922721803188324,55.22765517234802 17.90434420108795,55.21233677864075 17.90434420108795,55.21233677864075 17.30801910161972,54.690396785736084 17.30801910161972,54.690396785736084 16.73756092786789,54.173433780670166 16.73756092786789,54.173433780670166 16.19313657283783,53.663599491119385 16.19313657283783,53.663599491119385 15.674880146980286,53.16280722618103 15.674880146980286,53.16280722618103 15.1829332113266,52.67317295074463 15.1829332113266,52.67317295074463 1.621820218861103,52.67317295074463 1.621820218861103,52.67317295074463 1.1091268621385098,52.2647500038147 1.1091268621385098,52.2647500038147 0.6639135535806417,51.127445697784424 0.6639135535806417,51.127445697784424 0.3128613345324993,49.39301311969757 0.3128613345324993,49.39301311969757 0.0826631614472717,47.19344973564148 0.0826631614472717,47.19344973564148 0.0,44.660550355911255 0.0,44.660550355911255 0.0,17.18915104866028 0.0,17.18915104866028 0.0826631614472717,14.657066762447357 0.0826631614472717,14.657066762447357 0.3128613345324993,12.457884848117828 0.3128613345324993,12.457884848117828 0.6639135535806417,10.723789036273956 0.6639135535806417,10.723789036273956 1.1091268621385098,9.586485475301743 1.1091268621385098,9.586485475301743 1.621820218861103,9.17806327342987 1.621820218861103,9.17806327342987 17.73894727230072,9.17806327342987 17.73894727230072,9.17806327342987 21.31350338459015,6.2049176543951035 21.31350338459015,6.2049176543951035 25.198277831077576,3.802337870001793 25.198277831077576,3.802337870001793 29.32344377040863,1.9789863377809525 29.32344377040863,1.9789863377809525 33.61912667751312,0.7433343213051558 33.61912667751312,0.7433343213051558 38.01552951335907,0.10413954732939601 38.01552951335907,0.10413954732939601 38.53306770324707,0.06743227131664753 38.53306770324707,0.06743227131664753 39.05110955238342,0.038382314960472286 39.05110955238342,0.038382314960472286 39.56984579563141,0.017276826838497072 39.56984579563141,0.017276826838497072 40.08935987949371,0.004402958802529611 40.08935987949371,0.004402958802529611 40.609827637672424,0.0 40.609827637672424,0.0 45.149508118629456,0.31371081713587046 45.149508118629456,0.31371081713587046 49.63655173778534,1.2581933289766312 49.63655173778534,1.2581933289766312 53.99627089500427,2.8358405455946922 53.99627089500427,2.8358405455946922 58.153992891311646,5.048758164048195 58.153992891311646,5.048758164048195 62.03501224517822,7.899291068315506 62.03501224517822,7.899291068315506 62.0380699634552,7.900822162628174 62.0380699634552,7.900822162628174 62.21878528594971,8.052437007427216 62.21878528594971,8.052437007427216 62.2448205947876,8.078472316265106 62.2448205947876,8.078472316265106 64.80260491371155,10.544990748167038 64.80260491371155,10.544990748167038 67.04308986663818,13.222132623195648 67.04308986663818,13.222132623195648 68.96296739578247,16.080467402935028 68.96296739578247,16.080467402935028 70.55880427360535,19.09056007862091 70.55880427360535,19.09056007862091 71.82719111442566,22.22307324409485 71.82719111442566,22.22307324409485 73.252934217453,23.396269977092743 73.252934217453,23.396269977092743 74.641352891922,24.688203632831573 74.641352891922,24.688203632831573 75.98707675933838,26.104232668876648 75.98707675933838,26.104232668876648 77.2847056388855,27.64943242073059 77.2847056388855,27.64943242073059 78.52887511253357,29.32906448841095 78.52887511253357,29.32906448841095" stroke="white" stroke-width="0.1" /><polygon points="66.84074401855469,31.81769549846649 66.84074401855469,31.81769549846649 66.00726842880249,24.7653990983963 66.00726842880249,24.7653990983963 62.334805727005005,16.329951584339142 62.334805727005005,16.329951584339142 55.713868141174316,8.656695485115051 55.713868141174316,8.656695485115051 46.03489637374878,3.8908757269382477 46.03489637374878,3.8908757269382477 33.18835496902466,4.177833721041679 33.18835496902466,4.177833721041679 21.46688848733902,9.516038000583649 21.46688848733902,9.516038000583649 14.565418660640717,17.43241399526596 14.565418660640717,17.43241399526596 11.477867513895035,26.3650119304657 11.477867513895035,26.3650119304657 11.198195815086365,34.751883149147034 11.198195815086365,34.751883149147034 12.720339000225067,41.03098213672638 12.720339000225067,41.03098213672638 15.719950199127197,46.29155993461609 15.719950199127197,46.29155993461609 20.403826236724854,51.806169748306274 20.403826236724854,51.806169748306274 26.56261920928955,56.28818869590759 26.56261920928955,56.28818869590759 33.98696482181549,58.450764417648315 33.98696482181549,58.450764417648315 42.467495799064636,57.007211446762085 42.467495799064636,57.007211446762085 48.545122146606445,52.18808054924011 48.545122146606445,52.18808054924011 50.11099576950073,46.01163864135742 50.11099576950073,46.01163864135742 48.9810973405838,39.8728609085083 48.9810973405838,39.8728609085083 46.97142243385315,35.16667187213898 46.97142243385315,35.16667187213898 45.89797258377075,33.28790068626404 45.89797258377075,33.28790068626404 45.36164999008179,32.51006007194519 45.36164999008179,32.51006007194519 43.81852149963379,30.781850218772888 43.81852149963379,30.781850218772888 41.367387771606445,29.011431336402893 41.367387771606445,29.011431336402893 38.10705840587616,28.106525540351868 38.10705840587616,28.106525540351868 34.13633108139038,28.97529900074005 34.13633108139038,28.97529900074005 30.95734715461731,30.927962064743042 30.95734715461731,30.927962064743042 29.585012793540955,32.6075941324234 29.585012793540955,32.6075941324234 29.38731014728546,33.921974897384644 29.38731014728546,33.921974897384644 29.73218858242035,34.778302907943726 29.73218858242035,34.778302907943726 29.987594485282898,35.0843071937561 29.987594485282898,35.0843071937561 30.14431893825531,35.239607095718384 30.14431893825531,35.239607095718384 30.64594566822052,35.542455315589905 30.64594566822052,35.542455315589905 31.53969943523407,35.74824333190918 31.53969943523407,35.74824333190918 32.87273049354553,35.612231492996216 32.87273049354553,35.612231492996216 34.692251682281494,34.889811277389526 34.692251682281494,34.889811277389526 36.832115054130554,34.76892113685608 36.832115054130554,34.76892113685608 38.68292570114136,36.115604639053345 38.68292570114136,36.115604639053345 39.62707221508026,38.20241689682007 39.62707221508026,38.20241689682007 39.04689848423004,40.301814675331116 39.04689848423004,40.301814675331116 36.324793100357056,41.68644845485687 36.324793100357056,41.68644845485687 32.79007971286774,41.60599708557129 32.79007971286774,41.60599708557129 30.12734055519104,40.07697403430939 30.12734055519104,40.07697403430939 28.251823782920837,37.51646280288696 28.251823782920837,37.51646280288696 27.078771591186523,34.34154689311981 27.078771591186523,34.34154689311981 26.523423194885254,30.96926510334015 26.523423194885254,30.96926510334015 26.920086145401,27.5320827960968 26.920086145401,27.5320827960968 28.584128618240356,24.185453355312347 28.584128618240356,24.185453355312347 31.402453780174255,21.38124704360962 31.402453780174255,21.38124704360962 35.261884331703186,19.571343064308167 35.261884331703186,19.571343064308167 40.04931449890137,19.20762062072754 40.04931449890137,19.20762062072754 44.610923528671265,20.616088807582855 44.610923528671265,20.616088807582855 47.92461395263672,23.338553309440613 47.92461395263672,23.338553309440613 50.074875354766846,26.650536060333252 50.074875354766846,26.650536060333252 51.14613175392151,29.827702045440674 51.14613175392151,29.827702045440674 51.222872734069824,32.14542865753174 51.222872734069824,32.14542865753174 51.09408497810364,33.579787611961365 51.09408497810364,33.579787611961365 51.354390382766724,34.618836641311646 51.354390382766724,34.618836641311646 51.79669260978699,35.30665636062622 51.79669260978699,35.30665636062622 52.21394896507263,35.68708300590515 52.21394896507263,35.68708300590515 52.39903926849365,35.80409586429596 52.39903926849365,35.80409586429596 52.9046356678009,36.239030957221985 52.9046356678009,36.239030957221985 54.21640872955322,37.37039864063263 54.21640872955322,37.37039864063263 56.02688789367676,38.937756419181824 56.02688789367676,38.937756419181824 58.028554916381836,40.68065881729126 58.028554916381836,40.68065881729126 59.91393327713013,42.33885109424591 59.91393327713013,42.33885109424591 61.47313117980957,43.39895844459534 61.47313117980957,43.39895844459534 62.69696354866028,43.71573328971863 62.69696354866028,43.71573328971863 63.57904672622681,43.58091652393341 63.57904672622681,43.58091652393341 64.11299109458923,43.28610897064209 64.11299109458923,43.28610897064209 64.2923891544342,43.12296211719513 64.2923891544342,43.12296211719513 64.4694983959198,42.85050332546234 64.4694983959198,42.85050332546234 64.92564678192139,41.85337722301483 64.92564678192139,41.85337722301483 65.54809212684631,39.86199498176575 65.54809212684631,39.86199498176575 66.22404456138611,36.60663068294525 66.22404456138611,36.60663068294525" stroke="white" stroke-width="0.1" /><polygon points="79.52126264572144,41.86103641986847 79.52126264572144,41.86103641986847 79.92748618125916,41.10028147697449 79.92748618125916,41.10028147697449 80.07106184959412,40.28003811836243 80.07106184959412,40.28003811836243 79.9602210521698,39.4625723361969 79.9602210521698,39.4625723361969 79.60319519042969,38.70995342731476 79.60319519042969,38.70995342731476 79.00822162628174,38.08444440364838 79.00822162628174,38.08444440364838 74.28978681564331,34.49316322803497 74.28978681564331,34.49316322803497 73.52900505065918,34.08636748790741 73.52900505065918,34.08636748790741 72.70869016647339,33.94269645214081 72.70869016647339,33.94269645214081 71.89098596572876,34.053775668144226 71.89098596572876,34.053775668144226 71.13791108131409,34.41108465194702 71.13791108131409,34.41108465194702 70.51166296005249,35.00620126724243 70.51166296005249,35.00620126724243 70.10558247566223,35.766956210136414 70.10558247566223,35.766956210136414 69.96239423751831,36.587199568748474 69.96239423751831,36.587199568748474 70.07371187210083,37.40471303462982 70.07371187210083,37.40471303462982 70.4311192035675,38.15733194351196 70.4311192035675,38.15733194351196 71.02623581886292,38.782793283462524 71.02623581886292,38.782793283462524 75.74467658996582,42.37407445907593 75.74467658996582,42.37407445907593 76.50485634803772,42.78087019920349 76.50485634803772,42.78087019920349 77.32500433921814,42.92454123497009 77.32500433921814,42.92454123497009 78.14273238182068,42.813509702682495 78.14273238182068,42.813509702682495 78.89561653137207,42.4562007188797 78.89561653137207,42.4562007188797" stroke="white" stroke-width="0.1" /><polygon points="95.48984169960022,58.44372510910034 95.48984169960022,58.44372510910034 96.09864354133606,57.954853773117065 96.09864354133606,57.954853773117065 96.55947089195251,57.429611682891846 96.55947089195251,57.429611682891846 96.85009121894836,56.907522678375244 96.85009121894836,56.907522678375244 96.94812893867493,56.42789006233215 96.94812893867493,56.42789006233215 96.8313992023468,56.030142307281494 96.8313992023468,56.030142307281494 96.50812149047852,55.77409863471985 96.50812149047852,55.77409863471985 96.02774381637573,55.68603873252869 96.02774381637573,55.68603873252869 95.43532729148865,55.76021671295166 95.43532729148865,55.76021671295166 94.77598667144775,55.99113702774048 94.77598667144775,55.99113702774048 94.09467577934265,56.3731849193573 94.09467577934265,56.3731849193573 93.48586797714233,56.862109899520874 93.48586797714233,56.862109899520874 93.02501678466797,57.38725662231445 93.02501678466797,57.38725662231445 92.73445010185242,57.90943503379822 92.73445010185242,57.90943503379822 92.63638854026794,58.389073610305786 92.63638854026794,58.389073610305786 92.75311231613159,58.786773681640625 92.75311231613159,58.786773681640625 93.07668209075928,59.04281735420227 93.07668209075928,59.04281735420227 93.55765581130981,59.13087725639343 93.55765581130981,59.13087725639343 94.15052533149719,59.0567409992218 94.15052533149719,59.0567409992218 94.80974674224854,58.82582664489746 94.80974674224854,58.82582664489746" stroke="white" stroke-width="0.1" /></svg>