<?xml version="1.0" encoding="utf-8" ?>
<svg baseProfile="full" height="96.66863679885864" version="1.1" width="99.99110102653503" xmlns="http://www.w3.org/2000/svg" xmlns:ev="http://www.w3.org/2001/xml-events" xmlns:xlink="http://www.w3.org/1999/xlink"><defs><clipPath /></defs><polygon points="34.45155322551727,63.2307767868042 34.45155322551727,63.2307767868042 35.15089154243469,63.97474408149719 35.15089154243469,63.97474408149719 35.78479886054993,64.76853489875793 35.78479886054993,64.76853489875793 36.35343611240387,65.61195254325867 36.35343611240387,65.61195254325867 36.85694932937622,66.50480628013611 36.85694932937622,66.50480628013611 37.2954785823822,67.44698882102966 37.2954785823822,67.44698882102966 37.66021132469177,68.42978000640869 37.66021132469177,68.42978000640869 37.94401288032532,69.44429874420166 37.94401288032532,69.44429874420166 38.1468266248703,70.49029469490051 38.1468266248703,70.49029469490051 38.26857805252075,71.56744003295898 38.26857805252075,71.56744003295898 38.30916881561279,72.67534136772156 38.30916881561279,72.67534136772156 38.30771446228027,72.83334136009216 38.30771446228027,72.83334136009216 38.30350637435913,72.99076318740845 38.30350637435913,72.99076318740845 38.29677402973175,73.14769625663757 38.29677402973175,73.14769625663757 38.28771710395813,73.3043372631073 38.28771710395813,73.3043372631073 38.27657103538513,73.46083521842957 38.27657103538513,73.46083521842957 38.26145827770233,73.61762523651123 38.26145827770233,73.61762523651123 38.24406862258911,73.77489805221558 38.24406862258911,73.77489805221558 38.22426199913025,73.93231987953186 38.22426199913025,73.93231987953186 38.20200860500336,74.08954501152039 38.20200860500336,74.08954501152039 38.17721903324127,74.24632906913757 38.17721903324127,74.24632906913757 37.39327788352966,81.69766664505005 37.39327788352966,81.69766664505005 37.21761703491211,82.91262984275818 37.21761703491211,82.91262984275818 36.95327937602997,84.09868478775024 36.95327937602997,84.09868478775024 36.600273847579956,85.25596857070923 36.600273847579956,85.25596857070923 36.158591508865356,86.38463020324707 36.158591508865356,86.38463020324707 35.628241300582886,87.48486638069153 35.628241300582886,87.48486638069153 35.02003252506256,88.54182958602905 35.02003252506256,88.54182958602905 34.34661030769348,89.54421877861023 34.34661030769348,89.54421877861023 33.608001470565796,90.49198627471924 33.608001470565796,90.49198627471924 32.804182171821594,91.38478636741638 32.804182171821594,91.38478636741638 31.935176253318787,92.22267270088196 31.935176253318787,92.22267270088196 31.009167432785034,93.00055503845215 31.009167432785034,93.00055503845215 30.03619909286499,93.71333122253418 30.03619909286499,93.71333122253418 29.01630997657776,94.36066150665283 29.01630997657776,94.36066150665283 27.949464321136475,94.94221806526184 27.949464321136475,94.94221806526184 26.835668087005615,95.45779824256897 26.835668087005615,95.45779824256897 25.68911612033844,95.89371681213379 25.68911612033844,95.89371681213379 24.52409267425537,96.23271226882935 24.52409267425537,96.23271226882935 23.340745270252228,96.47488594055176 23.340745270252228,96.47488594055176 22.13919311761856,96.62022590637207 22.13919311761856,96.62022590637207 20.919619500637054,96.66863679885864 20.919619500637054,96.66863679885864 13.466733694076538,96.66863679885864 13.466733694076538,96.66863679885864 12.332794070243835,96.62808179855347 12.332794070243835,96.62808179855347 11.233273893594742,96.50641679763794 11.233273893594742,96.50641679763794 10.167954117059708,96.30383253097534 10.167954117059708,96.30383253097534 9.136615693569183,96.02052569389343 9.136615693569183,96.02052569389343 8.139029890298843,95.65649628639221 8.139029890298843,95.65649628639221 7.1830421686172485,95.21795511245728 7.1830421686172485,95.21795511245728 6.276669353246689,94.71445679664612 6.276669353246689,94.71445679664612 5.419996380805969,94.14585828781128 5.419996380805969,94.14585828781128 4.613108187913895,93.5119092464447 4.613108187913895,93.5119092464447 3.8560651242733,92.81257390975952 3.8560651242733,92.81257390975952 3.156750649213791,92.05695986747742 3.156750649213791,92.05695986747742 2.522926591336727,91.25429391860962 2.522926591336727,91.25429391860962 1.9545197486877441,90.40437340736389 1.9545197486877441,90.40437340736389 1.4514698646962643,89.50710892677307 1.4514698646962643,89.50710892677307 1.0136919096112251,88.56220841407776 1.0136919096112251,88.56220841407776 0.6483654957264662,87.57679462432861 0.6483654957264662,87.57679462432861 0.36448955070227385,86.55427694320679 0.36448955070227385,86.55427694320679 0.16189429443329573,85.49484014511108 0.16189429443329573,85.49484014511108 0.0404462858568877,84.3984842300415 0.0404462858568877,84.3984842300415 0.0,83.26554894447327 0.0,83.26554894447327 0.0,82.48316049575806 0.0,82.48316049575806 0.002607481656013988,82.32637047767639 0.002607481656013988,82.32637047767639 0.010429926624055952,82.16909766197205 0.010429926624055952,82.16909766197205 0.023479462834075093,82.01172947883606 0.023479462834075093,82.01172947883606 0.04173183406237513,81.85445666313171 0.04173183406237513,81.85445666313171 0.0651991693302989,81.69766664505005 0.0651991693302989,81.69766664505005 7.518085092306137,81.69766664505005 7.518085092306137,81.69766664505005 7.494023442268372,81.77882432937622 7.494023442268372,81.77882432937622 7.475686818361282,81.86566233634949 7.475686818361282,81.86566233634949 7.46287927031517,81.95788264274597 7.46287927031517,81.95788264274597 7.4553482234478,82.05509781837463 7.4553482234478,82.05509781837463 7.452885806560516,82.15716481208801 7.452885806560516,82.15716481208801 7.452885806560516,82.54836201667786 7.452885806560516,82.54836201667786 7.530006766319275,83.66014361381531 7.530006766319275,83.66014361381531 7.7613696455955505,84.693044424057 7.7613696455955505,84.693044424057 8.146985620260239,85.64735651016235 8.146985620260239,85.64735651016235 8.686831593513489,86.5229845046997 8.686831593513489,86.5229845046997 9.380918741226196,87.32031583786011 9.380918741226196,87.32031583786011 10.192731022834778,88.00287246704102 10.192731022834778,88.00287246704102 11.08567789196968,88.53397369384766 11.08567789196968,88.53397369384766 12.059712409973145,88.91352415084839 12.059712409973145,88.91352415084839 13.11473548412323,89.14133310317993 13.11473548412323,89.14133310317993 14.250676333904266,89.21730518341064 14.250676333904266,89.21730518341064 21.703562140464783,89.21730518341064 21.703562140464783,89.21730518341064 22.32465147972107,89.19353485107422 22.32465147972107,89.19353485107422 22.93248623609543,89.12231922149658 22.93248623609543,89.12231922149658 23.52721095085144,89.00404572486877 23.52721095085144,89.00404572486877 24.108946323394775,88.83901238441467 24.108946323394775,88.83901238441467 24.677886068820953,88.62740397453308 24.677886068820953,88.62740397453308 25.22856295108795,88.3740782737732 25.22856295108795,88.3740782737732 25.755539536476135,88.0838394165039 25.755539536476135,88.0838394165039 26.258990168571472,87.75696754455566 26.258990168571472,87.75696754455566 26.739034056663513,87.3936653137207 26.739034056663513,87.3936653137207 27.195817232131958,86.99432015419006 27.195817232131958,86.99432015419006 27.624303102493286,86.56359314918518 27.624303102493286,86.56359314918518 28.021344542503357,86.10966801643372 28.021344542503357,86.10966801643372 28.387179970741272,85.63231825828552 28.387179970741272,85.63231825828552 28.72200608253479,85.13138890266418 28.72200608253479,85.13138890266418 29.026049375534058,84.60679054260254 29.026049375534058,84.60679054260254 29.292219877243042,84.06254053115845 29.292219877243042,84.06254053115845 29.516887664794922,83.49918127059937 29.516887664794922,83.49918127059937 29.69992160797119,82.91704654693604 29.69992160797119,82.91704654693604 29.841136932373047,82.31647610664368 29.841136932373047,82.31647610664368 29.940390586853027,81.69766664505005 29.940390586853027,81.69766664505005 30.725884437561035,74.24632906913757 30.725884437561035,74.24632906913757 30.725884437561035,73.46083521842957 30.725884437561035,73.46083521842957 30.704855918884277,72.89451360702515 30.704855918884277,72.89451360702515 30.641889572143555,72.34668135643005 30.641889572143555,72.34668135643005 30.537104606628418,71.8171775341034 30.537104606628418,71.8171775341034 30.390673875808716,71.30587100982666 30.390673875808716,71.30587100982666 30.20274043083191,70.8125114440918 30.20274043083191,70.8125114440918 29.977527260780334,70.3427255153656 29.977527260780334,70.3427255153656 29.721009731292725,69.89840865135193 29.721009731292725,69.89840865135193 29.433205723762512,69.47975754737854 29.433205723762512,69.47975754737854 29.114097356796265,69.08686757087708 29.114097356796265,69.08686757087708 28.763699531555176,68.71992349624634 28.763699531555176,68.71992349624634 28.385919332504272,68.38204264640808 28.385919332504272,68.38204264640808 27.984657883644104,68.07259321212769 27.984657883644104,68.07259321212769 27.55994200706482,67.79180765151978 27.55994200706482,67.79180765151978 27.11174488067627,67.53974556922913 27.11174488067627,67.53974556922913 26.640069484710693,67.31659173965454 26.640069484710693,67.31659173965454 26.149380207061768,67.12851524353027 26.149380207061768,67.12851524353027 25.64585506916046,66.98166728019714 25.64585506916046,66.98166728019714 25.129392743110657,66.87644720077515 25.129392743110657,66.87644720077515 24.599795043468475,66.81309342384338 24.599795043468475,66.81309342384338 24.056941270828247,66.79189205169678 24.056941270828247,66.79189205169678 16.60405546426773,66.79189205169678 16.60405546426773,66.79189205169678 16.00513458251953,66.81571006774902 16.00513458251953,66.81571006774902 15.411648154258728,66.88687801361084 15.411648154258728,66.88687801361084 14.823448657989502,67.00515151023865 14.823448657989502,67.00515151023865 14.240391552448273,67.17023253440857 14.240391552448273,67.17023253440857 13.66233080625534,67.38179326057434 13.66233080625534,67.38179326057434 13.09863030910492,67.63365864753723 13.09863030910492,67.63365864753723 12.558698654174805,67.91977882385254 12.558698654174805,67.91977882385254 12.04245388507843,68.2401955127716 12.04245388507843,68.2401955127716 11.549834161996841,68.59486103057861 11.549834161996841,68.59486103057861 11.080754548311234,68.98382902145386 11.080754548311234,68.98382902145386 10.6383316218853,69.4037914276123 10.6383316218853,69.4037914276123 10.227574408054352,69.85174417495728 10.227574408054352,69.85174417495728 9.848494827747345,70.32822370529175 9.848494827747345,70.32822370529175 9.501080960035324,70.83356380462646 9.501080960035324,70.83356380462646 9.185321629047394,71.36825323104858 9.185321629047394,71.36825323104858 8.90926793217659,71.92302942276001 8.90926793217659,71.92302942276001 8.682829141616821,72.48818874359131 8.682829141616821,72.48818874359131 8.506090193986893,73.06382060050964 8.506090193986893,73.06382060050964 8.379136770963669,73.64983558654785 8.379136770963669,73.64983558654785 8.302027732133865,74.24632906913757 8.302027732133865,74.24632906913757 0.8491415530443192,74.24632906913757 0.8491415530443192,74.24632906913757 3.9880160242319107,44.36958730220795 3.9880160242319107,44.36958730220795 41.31609499454498,44.36958730220795 41.31609499454498,44.36958730220795 40.530598163604736,51.820921897888184 40.530598163604736,51.820921897888184 10.65540760755539,51.820921897888184 10.65540760755539,51.820921897888184 9.67431515455246,61.30274534225464 9.67431515455246,61.30274534225464 11.133462190628052,60.595548152923584 11.133462190628052,60.595548152923584 12.634631991386414,60.046058893203735 12.634631991386414,60.046058893203735 14.17776346206665,59.65394377708435 14.17776346206665,59.65394377708435 15.762747824192047,59.41885709762573 15.762747824192047,59.41885709762573 17.389550805091858,59.34056043624878 17.389550805091858,59.34056043624878 24.842436611652374,59.34056043624878 24.842436611652374,59.34056043624878 25.975781679153442,59.382325410842896 25.975781679153442,59.382325410842896 27.075228095054626,59.50767993927002 27.075228095054626,59.50767993927002 28.14076840877533,59.71681475639343 28.14076840877533,59.71681475639343 29.17240858078003,60.0098192691803 29.17240858078003,60.0098192691803 30.17013967037201,60.38684844970703 30.17013967037201,60.38684844970703 31.125375628471375,60.83582043647766 31.125375628471375,60.83582043647766 32.031288743019104,61.344558000564575 32.031288743019104,61.344558000564575 32.887718081474304,61.91321015357971 32.887718081474304,61.91321015357971 33.694520592689514,62.541866302490234 33.694520592689514,62.541866302490234" stroke="white" stroke-width="0.1" /><polygon points="43.737778067588806,66.41311645507812 43.737778067588806,66.41311645507812 43.73481869697571,66.41651391983032 43.73481869697571,66.41651391983032 43.73164176940918,66.41942262649536 43.73164176940918,66.41942262649536 43.72839033603668,66.42233729362488 43.72839033603668,66.42233729362488 43.725213408470154,66.42524600028992 43.725213408470154,66.42524600028992 43.722254037857056,66.42864346504211 43.722254037857056,66.42864346504211 43.63008141517639,66.15154147148132 43.63008141517639,66.15154147148132 43.53663623332977,65.87561368942261 43.53663623332977,65.87561368942261 43.43993067741394,65.60133099555969 43.43993067741394,65.60133099555969 43.33791136741638,65.32913446426392 43.33791136741638,65.32913446426392 43.22860240936279,65.05945920944214 43.22860240936279,65.05945920944214 42.587512731552124,63.67853879928589 42.587512731552124,63.67853879928589 41.84046387672424,62.35378980636597 41.84046387672424,62.35378980636597 40.991419553756714,61.092978715896606 40.991419553756714,61.092978715896606 40.04429876804352,59.90382432937622 40.04429876804352,59.90382432937622 39.003074169158936,58.79412889480591 39.003074169158936,58.79412889480591 38.85999023914337,58.65519046783447 38.85999023914337,58.65519046783447 38.7156218290329,58.517903089523315 38.7156218290329,58.517903089523315 38.569870591163635,58.38236212730408 38.569870591163635,58.38236212730408 38.422515988349915,58.24881196022034 38.422515988349915,58.24881196022034 38.273465633392334,58.117300271987915 38.273465633392334,58.117300271987915 44.074639678001404,58.117300271987915 44.074639678001404,58.117300271987915 44.57308053970337,59.279048442840576 44.57308053970337,59.279048442840576 45.1487272977829,60.45835614204407 45.1487272977829,60.45835614204407 45.80238163471222,61.65571212768555 45.80238163471222,61.65571212768555 46.53487801551819,62.871599197387695 46.53487801551819,62.871599197387695 47.347018122673035,64.10630941390991 47.347018122673035,64.10630941390991 46.566906571388245,64.46868777275085 46.566906571388245,64.46868777275085 45.81122100353241,64.88341093063354 45.81122100353241,64.88341093063354 45.084694027900696,65.34766554832458 45.084694027900696,65.34766554832458 44.39197480678558,65.85848927497864 44.39197480678558,65.85848927497864" stroke="white" stroke-width="0.1" /><polygon points="79.53056693077087,39.27473723888397 79.53056693077087,39.27473723888397 84.04200077056885,41.12081229686737 84.04200077056885,41.12081229686737 88.43350410461426,45.135194063186646 88.43350410461426,45.135194063186646 90.32455086708069,51.36268138885498 90.32455086708069,51.36268138885498 87.33441233634949,59.847891330718994 87.33441233634949,59.847891330718994 77.08249688148499,70.63553929328918 77.08249688148499,70.63553929328918 77.18982696533203,69.70096826553345 77.18982696533203,69.70096826553345 77.15684175491333,68.76382827758789 77.15684175491333,68.76382827758789 76.98481678962708,67.84109473228455 76.98481678962708,67.84109473228455 76.67502760887146,66.94945693016052 76.67502760887146,66.94945693016052 76.22869610786438,66.10574722290039 76.22869610786438,66.10574722290039 81.12513422966003,61.324089765548706 81.12513422966003,61.324089765548706 84.15670394897461,57.31346607208252 84.15670394897461,57.31346607208252 85.73685884475708,54.07305955886841 85.73685884475708,54.07305955886841 86.27897500991821,51.601892709732056 86.27897500991821,51.601892709732056 86.19641065597534,49.89909827709198 86.19641065597534,49.89909827709198 85.31323671340942,47.70871698856354 85.31323671340942,47.70871698856354 83.80889892578125,45.94258964061737 83.80889892578125,45.94258964061737 81.9985568523407,44.604820013046265 81.9985568523407,44.604820013046265 80.19731044769287,43.69930624961853 80.19731044769287,43.69930624961853 78.72023582458496,43.23015511035919 78.72023582458496,43.23015511035919 78.50693464279175,43.191102147102356 78.50693464279175,43.191102147102356 78.29532623291016,43.159934878349304 78.29532623291016,43.159934878349304 78.0852735042572,43.13715994358063 78.0852735042572,43.13715994358063 77.87665128707886,43.123164772987366 77.87665128707886,43.123164772987366 77.66928672790527,43.11838448047638 77.66928672790527,43.11838448047638 76.09553337097168,43.36593747138977 76.09553337097168,43.36593747138977 74.67939257621765,43.99285018444061 74.67939257621765,43.99285018444061 73.46651554107666,44.82581317424774 73.46651554107666,44.82581317424774 72.50235080718994,45.69118022918701 72.50235080718994,45.69118022918701 71.83241248130798,46.415600180625916 71.83241248130798,46.415600180625916 68.76494288444519,50.004661083221436 68.76494288444519,50.004661083221436 65.70058465003967,46.415600180625916 65.70058465003967,46.415600180625916 65.02887010574341,45.69118022918701 65.02887010574341,45.69118022918701 64.06335234642029,44.82578933238983 64.06335234642029,44.82578933238983 62.85001039505005,43.99289786815643 62.85001039505005,43.99289786815643 61.43479347229004,43.36591362953186 61.43479347229004,43.36591362953186 59.863704442977905,43.11838448047638 59.863704442977905,43.11838448047638 59.65496301651001,43.123164772987366 59.65496301651001,43.123164772987366 59.4444215297699,43.13715994358063 59.4444215297699,43.13715994358063 59.232550859451294,43.159982562065125 59.232550859451294,43.159982562065125 59.01978015899658,43.191102147102356 59.01978015899658,43.191102147102356 58.80654454231262,43.23015511035919 58.80654454231262,43.23015511035919 57.33131766319275,43.69930624961853 57.33131766319275,43.69930624961853 55.53165674209595,44.604745507240295 55.53165674209595,44.604745507240295 53.72246503829956,45.94261646270752 53.72246503829956,45.94261646270752 52.2186279296875,47.70871698856354 52.2186279296875,47.70871698856354 51.33503079414368,49.89909827709198 51.33503079414368,49.89909827709198 51.23905539512634,51.390260457992554 51.23905539512634,51.390260457992554 51.61005258560181,53.498536348342896 51.61005258560181,53.498536348342896 52.74624824523926,56.224846839904785 52.74624824523926,56.224846839904785 54.94580268859863,59.5700204372406 54.94580268859863,59.5700204372406 58.50694179534912,63.535040616989136 58.50694179534912,63.535040616989136 57.94692635536194,63.402700424194336 57.94692635536194,63.402700424194336 57.38213658332825,63.2973313331604 57.38213658332825,63.2973313331604 56.81452751159668,63.220542669296265 56.81452751159668,63.220542669296265 56.246012449264526,63.17402124404907 56.246012449264526,63.17402124404907 55.67854046821594,63.15937042236328 55.67854046821594,63.15937042236328 52.663856744766235,63.15937042236328 52.663856744766235,63.15937042236328 47.84231781959534,55.02218008041382 47.84231781959534,55.02218008041382 47.51182198524475,48.593902587890625 47.51182198524475,48.593902587890625 50.125670433044434,43.84573996067047 50.125670433044434,43.84573996067047 54.13709282875061,40.748971700668335 54.13709282875061,40.748971700668335 57.99931883811951,39.27473723888397 57.99931883811951,39.27473723888397 58.382487297058105,39.20614421367645 58.382487297058105,39.20614421367645 58.76065492630005,39.153072237968445 58.76065492630005,39.153072237968445 59.13368463516235,39.11537826061249 59.13368463516235,39.11537826061249 59.5014214515686,39.09284472465515 59.5014214515686,39.09284472465515 59.863704442977905,39.085349440574646 59.863704442977905,39.085349440574646 62.307119369506836,39.417847990989685 62.307119369506836,39.417847990989685 64.45174813270569,40.27128219604492 64.45174813270569,40.27128219604492 66.26478433609009,41.429853439331055 66.26478433609009,41.429853439331055 67.71343946456909,42.677515745162964 67.71343946456909,42.677515745162964 68.76494288444519,43.79831850528717 68.76494288444519,43.79831850528717 69.81588006019592,42.677465081214905 69.81588006019592,42.677465081214905 71.26463651657104,41.429829597473145 71.26463651657104,41.429829597473145 73.0783760547638,40.27135372161865 73.0783760547638,40.27135372161865 75.22422075271606,39.417847990989685 75.22422075271606,39.417847990989685 77.66928672790527,39.085349440574646 77.66928672790527,39.085349440574646 78.03065180778503,39.09282088279724 78.03065180778503,39.09282088279724 78.39754223823547,39.11533057689667 78.39754223823547,39.11533057689667 78.76988649368286,39.153096079826355 78.76988649368286,39.153096079826355 79.14759516716003,39.20619189739227 79.14759516716003,39.20619189739227" stroke="white" stroke-width="0.1" /><polygon points="97.28647470474243,1.9466608762741089 97.28647470474243,1.9466608762741089 98.85220527648926,3.643537312746048 98.85220527648926,3.643537312746048 99.7596800327301,5.703181028366089 99.7596800327301,5.703181028366089 99.99110102653503,7.954783737659454 99.99110102653503,7.954783737659454 99.5286226272583,10.227489471435547 99.5286226272583,10.227489471435547 98.35450053215027,12.35058605670929 98.35450053215027,12.35058605670929 81.37943148612976,34.35375392436981 81.37943148612976,34.35375392436981 81.26788139343262,34.32362675666809 81.26788139343262,34.32362675666809 81.1558187007904,34.2930406332016 81.1558187007904,34.2930406332016 81.04458451271057,34.26235914230347 81.04458451271057,34.26235914230347 80.93547821044922,34.231773018836975 80.93547821044922,34.231773018836975 80.82989454269409,34.201622009277344 80.82989454269409,34.201622009277344 80.82989454269409,34.2109352350235 80.82989454269409,34.2109352350235 80.28736710548401,34.101566672325134 80.28736710548401,34.101566672325134 79.74998354911804,34.018588066101074 79.74998354911804,34.018588066101074 79.21839952468872,33.9608371257782 79.21839952468872,33.9608371257782 78.69331240653992,33.92699956893921 78.69331240653992,33.92699956893921 78.17535996437073,33.915987610816956 78.17535996437073,33.915987610816956 75.77162384986877,34.17069613933563 75.77162384986877,34.17069613933563 73.62160086631775,34.787517786026 73.62160086631775,34.787517786026 71.72231674194336,35.6741338968277 71.72231674194336,35.6741338968277 70.07080912590027,36.7380827665329 70.07080912590027,36.7380827665329 68.66403818130493,37.88692653179169 68.66403818130493,37.88692653179169 67.25929975509644,36.73803508281708 67.25929975509644,36.73803508281708 65.60993790626526,35.6741338968277 65.60993790626526,35.6741338968277 63.712745904922485,34.78756546974182 63.712745904922485,34.78756546974182 61.56451106071472,34.17071998119354 61.56451106071472,34.17071998119354 59.16203856468201,33.915987610816956 59.16203856468201,33.915987610816956 58.642578125,33.92699956893921 58.642578125,33.92699956893921 58.116573095321655,33.96078646183014 58.116573095321655,33.96078646183014 57.584524154663086,34.01863873004913 57.584524154663086,34.01863873004913 57.046955823898315,34.101590514183044 57.046955823898315,34.101590514183044 56.504398584365845,34.2109352350235 56.504398584365845,34.2109352350235 54.988032579422,34.63773727416992 54.988032579422,34.63773727416992 53.382450342178345,35.26763319969177 53.382450342178345,35.26763319969177 51.72445774078369,36.10862493515015 51.72445774078369,36.10862493515015 50.050705671310425,37.16845214366913 50.050705671310425,37.16845214366913 48.39796423912048,38.455092906951904 48.39796423912048,38.455092906951904 48.429012298583984,38.13530504703522 48.429012298583984,38.13530504703522 25.156012177467346,38.13530504703522 25.156012177467346,38.13530504703522 5.9548575431108475,11.956285685300827 5.9548575431108475,11.956285685300827 4.834513738751411,9.803257882595062 4.834513738751411,9.803257882595062 4.429638385772705,7.518691569566727 4.429638385772705,7.518691569566727 4.717674106359482,5.272691696882248 4.717674106359482,5.272691696882248 5.67602701485157,3.2354604452848434 5.67602701485157,3.2354604452848434 7.282126694917679,1.577199064195156 7.282126694917679,1.577199064195156 9.347906708717346,0.5422834306955338 9.347906708717346,0.5422834306955338 11.580008268356323,0.24102833122015 11.580008268356323,0.24102833122015 13.809053599834442,0.6426047533750534 13.809053599834442,0.6426047533750534 15.865665674209595,1.7161352559924126 15.865665674209595,1.7161352559924126 17.580491304397583,3.430718183517456 17.580491304397583,3.430718183517456 37.81862258911133,31.04722499847412 37.81862258911133,31.04722499847412 38.22956383228302,30.970916152000427 38.22956383228302,30.970916152000427 38.64273428916931,30.909791588783264 38.64273428916931,30.909791588783264 39.05816078186035,30.86416721343994 39.05816078186035,30.86416721343994 39.475804567337036,30.83430826663971 39.475804567337036,30.83430826663971 39.8956835269928,30.8205783367157 39.8956835269928,30.8205783367157 37.932953238487244,28.713005781173706 37.932953238487244,28.713005781173706 36.329084634780884,26.308229565620422 36.329084634780884,26.308229565620422 35.128480195999146,23.648986220359802 35.128480195999146,23.648986220359802 34.37553644180298,20.77779620885849 34.37553644180298,20.77779620885849 34.11468863487244,17.73727983236313 34.11468863487244,17.73727983236313 35.01869738101959,12.131169438362122 35.01869738101959,12.131169438362122 37.53614127635956,7.262139767408371 37.53614127635956,7.262139767408371 41.37516915798187,3.422471508383751 41.37516915798187,3.422471508383751 46.2438702583313,0.9043474681675434 46.2438702583313,0.9043474681675434 51.85041427612305,0.0 51.85041427612305,0.0 57.45819807052612,0.904323160648346 57.45819807052612,0.904323160648346 62.328529357910156,3.422422707080841 62.328529357910156,3.422422707080841 66.1691665649414,7.262164354324341 66.1691665649414,7.262164354324341 68.68786215782166,12.131193280220032 68.68786215782166,12.131193280220032 69.59235072135925,17.73727983236313 69.59235072135925,17.73727983236313 69.33100819587708,20.77777236700058 69.33100819587708,20.77777236700058 68.57684254646301,23.648962378501892 68.57684254646301,23.648962378501892 67.37462282180786,26.308277249336243 67.37462282180786,26.308277249336243 65.76912999153137,28.713005781173706 65.76912999153137,28.713005781173706 63.80515098571777,30.8205783367157 63.80515098571777,30.8205783367157 64.19849395751953,30.83411455154419 64.19849395751953,30.83411455154419 64.59019780158997,30.862736701965332 64.59019780158997,30.862736701965332 64.97975587844849,30.905109643936157 64.97975587844849,30.905109643936157 65.3666079044342,30.959805846214294 65.3666079044342,30.959805846214294 65.75025916099548,31.025490164756775 65.75025916099548,31.025490164756775 86.94464564323425,3.548697754740715 86.94464564323425,3.548697754740715 88.701993227005,1.8757374957203865 88.701993227005,1.8757374957203865 90.7850444316864,0.8530952967703342 90.7850444316864,0.8530952967703342 93.02359819412231,0.5068216938525438 93.02359819412231,0.5068216938525438 95.24745345115662,0.8626519702374935 95.24745345115662,0.8626519702374935" stroke="white" stroke-width="0.1" /><polygon points="76.81549191474915,81.97398781776428 76.81549191474915,81.97398781776428 77.07589864730835,82.24778175354004 77.07589864730835,82.24778175354004 77.31311917304993,82.54011273384094 77.31311917304993,82.54011273384094 77.5271475315094,82.85073041915894 77.5271475315094,82.85073041915894 77.71779894828796,83.17953944206238 77.71779894828796,83.17953944206238 77.88506746292114,83.52634906768799 77.88506746292114,83.52634906768799 78.02497148513794,83.88959765434265 78.02497148513794,83.88959765434265 78.13366055488586,84.26401019096375 78.13366055488586,84.26401019096375 78.21120619773865,84.64967608451843 78.21120619773865,84.64967608451843 78.25767993927002,85.04639863967896 78.25767993927002,85.04639863967896 78.27315926551819,85.45438051223755 78.27315926551819,85.45438051223755 78.27315926551819,85.7772707939148 78.27315926551819,85.7772707939148 78.27184796333313,85.8308732509613 78.27184796333313,85.8308732509613 78.26794385910034,85.88715195655823 78.26794385910034,85.88715195655823 78.26141715049744,85.94589829444885 78.26141715049744,85.94589829444885 78.2522976398468,86.00658178329468 78.2522976398468,86.00658178329468 78.24055552482605,86.06911301612854 78.24055552482605,86.06911301612854 77.85246968269348,89.76373672485352 77.85246968269348,89.76373672485352 77.78353095054626,90.21149277687073 77.78353095054626,90.21149277687073 77.68107652664185,90.6493067741394 77.68107652664185,90.6493067741394 77.54510045051575,91.07683897018433 77.54510045051575,91.07683897018433 77.37560272216797,91.4937436580658 77.37560272216797,91.4937436580658 77.17253565788269,91.89978241920471 77.17253565788269,91.89978241920471 76.94094181060791,92.29175448417664 76.94094181060791,92.29175448417664 76.68761610984802,92.66281723976135 76.68761610984802,92.66281723976135 76.41238570213318,93.01301836967468 76.41238570213318,93.01301836967468 76.11508369445801,93.34241151809692 76.11508369445801,93.34241151809692 75.79559087753296,93.65084767341614 75.79559087753296,93.65084767341614 75.4559874534607,93.93706321716309 75.4559874534607,93.93706321716309 75.09843111038208,94.19970512390137 75.09843111038208,94.19970512390137 74.72283244132996,94.4390594959259 74.72283244132996,94.4390594959259 74.32911396026611,94.65551376342773 74.32911396026611,94.65551376342773 73.91723394393921,94.8492705821991 73.91723394393921,94.8492705821991 73.49290251731873,95.0120747089386 73.49290251731873,95.0120747089386 73.06193113327026,95.13888359069824 73.06193113327026,95.13888359069824 72.62440323829651,95.22979259490967 72.62440323829651,95.22979259490967 72.18038439750671,95.2843189239502 72.18038439750671,95.2843189239502 71.72995209693909,95.30255794525146 71.72995209693909,95.30255794525146 68.00584197044373,95.30255794525146 68.00584197044373,95.30255794525146 67.59641766548157,95.28766870498657 67.59641766548157,95.28766870498657 67.19719171524048,95.24298906326294 67.19719171524048,95.24298906326294 66.80833697319031,95.16847133636475 66.80833697319031,95.16847133636475 66.42998456954956,95.06412744522095 66.42998456954956,95.06412744522095 66.06228351593018,94.92999315261841 66.06228351593018,94.92999315261841 65.70891737937927,94.76907849311829 65.70891737937927,94.76907849311829 65.3735101222992,94.58463788032532 65.3735101222992,94.58463788032532 65.05613327026367,94.3769633769989 65.05613327026367,94.3769633769989 64.75687026977539,94.14634108543396 64.75687026977539,94.14634108543396 64.47576880455017,93.89301538467407 64.47576880455017,93.89301538467407 64.21536207199097,93.61727833747864 64.21536207199097,93.61727833747864 63.97811770439148,93.3225691318512 63.97811770439148,93.3225691318512 63.76414895057678,93.00875067710876 63.76414895057678,93.00875067710876 63.57347369194031,92.67528653144836 63.57347369194031,92.67528653144836 63.406193256378174,92.32202768325806 63.406193256378174,92.32202768325806 63.26627731323242,91.95387363433838 63.26627731323242,91.95387363433838 63.15760016441345,91.57572984695435 63.15760016441345,91.57572984695435 63.08005452156067,91.1873459815979 63.08005452156067,91.1873459815979 63.0335807800293,90.78834056854248 63.0335807800293,90.78834056854248 63.01810145378113,90.3784692287445 63.01810145378113,90.3784692287445 63.01810145378113,90.08662700653076 63.01810145378113,90.08662700653076 63.01941275596619,90.02176523208618 63.01941275596619,90.02176523208618 63.023316860198975,89.95729684829712 63.023316860198975,89.95729684829712 63.02984356880188,89.89306688308716 63.02984356880188,89.89306688308716 63.03897500038147,89.82864022254944 63.03897500038147,89.82864022254944 63.05070519447327,89.76373672485352 63.05070519447327,89.76373672485352 63.438791036605835,86.06911301612854 63.438791036605835,86.06911301612854 63.50640654563904,85.62135696411133 63.50640654563904,85.62135696411133 63.6067271232605,85.18354296684265 63.6067271232605,85.18354296684265 63.73968720436096,84.75610613822937 63.73968720436096,84.75610613822937 63.905203342437744,84.33910608291626 63.905203342437744,84.33910608291626 64.10320401191711,83.93306732177734 64.10320401191711,83.93306732177734 64.32896256446838,83.54070782661438 64.32896256446838,83.54070782661438 64.57960605621338,83.16813707351685 64.57960605621338,83.16813707351685 64.85509276390076,82.81517028808594 64.85509276390076,82.81517028808594 65.15527963638306,82.4813187122345 65.15527963638306,82.4813187122345 65.48014879226685,82.1664810180664 65.48014879226685,82.1664810180664 65.82494378089905,81.87550902366638 65.82494378089905,81.87550902366638 66.18680953979492,81.6100537776947 66.18680953979492,81.6100537776947 66.56566262245178,81.37021660804749 66.56566262245178,81.37021660804749 66.96141362190247,81.15618228912354 66.96141362190247,81.15618228912354 67.37402677536011,80.96805810928345 67.37402677536011,80.96805810928345 67.79822111129761,80.8104932308197 67.79822111129761,80.8104932308197 68.22889447212219,80.68785667419434 68.22889447212219,80.68785667419434 68.66620182991028,80.60033917427063 68.66620182991028,80.60033917427063 69.11029815673828,80.5478036403656 69.11029815673828,80.5478036403656 69.56130862236023,80.53029179573059 69.56130862236023,80.53029179573059 73.28541874885559,80.53029179573059 73.28541874885559,80.53029179573059 73.69471192359924,80.54590821266174 73.69471192359924,80.54590821266174 74.09361600875854,80.59287071228027 74.09361600875854,80.59287071228027 74.48226809501648,80.67116737365723 74.48226809501648,80.67116737365723 74.860680103302,80.78065514564514 74.860680103302,80.78065514564514 75.22897720336914,80.92148303985596 75.22897720336914,80.92148303985596 75.58233141899109,81.08729720115662 75.58233141899109,81.08729720115662 75.91773867607117,81.2754213809967 75.91773867607117,81.2754213809967 76.23515129089355,81.48596286773682 76.23515129089355,81.48596286773682 76.53441429138184,81.71881437301636 76.53441429138184,81.71881437301636" stroke="white" stroke-width="0.1" /><polygon points="74.54904317855835,86.06911301612854 74.54904317855835,86.06911301612854 74.54904317855835,85.90766787528992 74.54904317855835,85.90766787528992 74.53022003173828,85.62077283859253 74.53022003173828,85.62077283859253 74.47380423545837,85.35609841346741 74.47380423545837,85.35609841346741 74.37973618507385,85.11344194412231 74.37973618507385,85.11344194412231 74.24802780151367,84.89271402359009 74.24802780151367,84.89271402359009 74.07867908477783,84.69372391700745 74.07867908477783,84.69372391700745 73.88084530830383,84.52456593513489 73.88084530830383,84.52456593513489 73.66373538970947,84.39324498176575 73.66373538970947,84.39324498176575 73.427414894104,84.29966568946838 73.427414894104,84.29966568946838 73.17190170288086,84.24358367919922 73.17190170288086,84.24358367919922 72.89733290672302,84.22490954399109 72.89733290672302,84.22490954399109 69.17166113853455,84.22490954399109 69.17166113853455,84.22490954399109 68.87882351875305,84.24615859985352 68.87882351875305,84.24615859985352 68.59641671180725,84.31004881858826 68.59641671180725,84.31004881858826 68.32446455955505,84.41672325134277 68.32446455955505,84.41672325134277 68.06291341781616,84.56623554229736 68.06291341781616,84.56623554229736 67.81179308891296,84.75891947746277 67.81179308891296,84.75891947746277 67.58713722229004,84.98250842094421 67.58713722229004,84.98250842094421 67.40682125091553,85.22501587867737 67.40682125091553,85.22501587867737 67.27083325386047,85.48678755760193 67.27083325386047,85.48678755760193 67.17918515205383,85.76805591583252 67.17918515205383,85.76805591583252 67.13185906410217,86.06911301612854 67.13185906410217,86.06911301612854 66.74221754074097,89.76373672485352 66.74221754074097,89.76373672485352 66.74221754074097,89.95622992515564 66.74221754074097,89.95622992515564 66.76104068756104,90.22042155265808 66.76104068756104,90.22042155265808 66.8174684047699,90.46908617019653 66.8174684047699,90.46908617019653 66.91157221794128,90.70242643356323 66.91157221794128,90.70242643356323 67.04325675964355,90.92053174972534 67.04325675964355,90.92053174972534 67.21258163452148,91.1236047744751 67.21258163452148,91.1236047744751 67.40965843200684,91.29795432090759 67.40965843200684,91.29795432090759 67.62641072273254,91.43359065055847 67.62641072273254,91.43359065055847 67.86275506019592,91.53046607971191 67.86275506019592,91.53046607971191 68.11862587928772,91.5885865688324 68.11862587928772,91.5885865688324 68.3939278125763,91.60794019699097 68.3939278125763,91.60794019699097 72.11959958076477,91.60794019699097 72.11959958076477,91.60794019699097 72.40144610404968,91.58596396446228 72.40144610404968,91.58596396446228 72.6768434047699,91.52003526687622 72.6768434047699,91.52003526687622 72.94579148292542,91.41011238098145 72.94579148292542,91.41011238098145 73.20818901062012,91.25623106956482 73.20818901062012,91.25623106956482 73.46394062042236,91.0584032535553 73.46394062042236,91.0584032535553 73.69364500045776,90.83079099655151 73.69364500045776,90.83079099655151 73.8779604434967,90.58745503425598 73.8779604434967,90.58745503425598 74.01699423789978,90.32859802246094 74.01699423789978,90.32859802246094 74.11079406738281,90.05402326583862 74.11079406738281,90.05402326583862 74.15940165519714,89.76373672485352 74.15940165519714,89.76373672485352" stroke="white" stroke-width="0.1" /><polygon points="64.92906212806702,69.45264339447021 64.92906212806702,69.45264339447021 68.8487708568573,69.45264339447021 68.8487708568573,69.45264339447021 56.70154690742493,95.33360600471497 56.70154690742493,95.33360600471497 52.783387899398804,95.33360600471497 52.783387899398804,95.33360600471497" stroke="white" stroke-width="0.1" /><polygon points="56.13493323326111,82.55456686019897 56.13493323326111,82.55456686019897 55.79459071159363,82.84748196601868 55.79459071159363,82.84748196601868 55.434876680374146,83.1152617931366 55.434876680374146,83.1152617931366 55.055803060531616,83.35844874382019 55.055803060531616,83.35844874382019 54.65734004974365,83.57709050178528 54.65734004974365,83.57709050178528 54.23949956893921,83.77162218093872 54.23949956893921,83.77162218093872 53.80938649177551,83.93442630767822 53.80938649177551,83.93442630767822 53.3741295337677,84.06128287315369 53.3741295337677,84.06128287315369 52.933818101882935,84.15214419364929 52.933818101882935,84.15214419364929 52.48848795890808,84.20667052268982 52.48848795890808,84.20667052268982 52.03825235366821,84.22490954399109 52.03825235366821,84.22490954399109 48.345184326171875,84.22490954399109 48.345184326171875,84.22490954399109 47.935763001441956,84.20923948287964 47.935763001441956,84.20923948287964 47.53653705120087,84.1623306274414 47.53653705120087,84.1623306274414 47.147685289382935,84.0841293334961 47.147685289382935,84.0841293334961 46.76932096481323,83.97459387779236 46.76932096481323,83.97459387779236 46.401628851890564,83.83371233940125 46.401628851890564,83.83371233940125 46.04825973510742,83.66790413856506 46.04825973510742,83.66790413856506 45.712852478027344,83.4797739982605 45.712852478027344,83.4797739982605 45.3954815864563,83.26928615570068 45.3954815864563,83.26928615570068 45.096203684806824,83.03638100624084 45.096203684806824,83.03638100624084 44.8151171207428,82.7812135219574 44.8151171207428,82.7812135219574 44.554707407951355,82.50663876533508 44.554707407951355,82.50663876533508 44.31746304035187,82.2121262550354 44.31746304035187,82.2121262550354 44.10347938537598,81.89777731895447 44.10347938537598,81.89777731895447 43.91280710697174,81.56377673149109 43.91280710697174,81.56377673149109 43.74553859233856,81.21022582054138 43.74553859233856,81.21022582054138 43.605631589889526,80.84328770637512 43.605631589889526,80.84328770637512 43.4969425201416,80.46528697013855 43.4969425201416,80.46528697013855 43.41939687728882,80.07642030715942 43.41939687728882,80.07642030715942 43.372923135757446,79.67687845230103 43.372923135757446,79.67687845230103 43.357449769973755,79.26666736602783 43.357449769973755,79.26666736602783 43.357449769973755,78.97793054580688 43.357449769973755,78.97793054580688 43.358758091926575,78.91272902488708 43.358758091926575,78.91272902488708 43.36266219615936,78.84753346443176 43.36266219615936,78.84753346443176 43.36918890476227,78.78233194351196 43.36918890476227,78.78233194351196 43.3783084154129,78.71717810630798 43.3783084154129,78.71717810630798 43.390047550201416,78.65193486213684 43.390047550201416,78.65193486213684 43.77813935279846,74.96041655540466 43.77813935279846,74.96041655540466 43.84646713733673,74.51261281967163 43.84646713733673,74.51261281967163 43.94885003566742,74.07464981079102 43.94885003566742,74.07464981079102 44.0850704908371,73.64673018455505 44.0850704908371,73.64673018455505 44.254884123802185,73.22885394096375 44.254884123802185,73.22885394096375 44.45807337760925,72.82126545906067 44.45807337760925,72.82126545906067 44.690367579460144,72.43011593818665 44.690367579460144,72.43011593818665 44.94575560092926,72.05789089202881 44.94575560092926,72.05789089202881 45.22426128387451,71.7049241065979 45.22426128387451,71.7049241065979 45.52585482597351,71.37145400047302 45.52585482597351,71.37145400047302 45.850539207458496,71.05778455734253 45.850539207458496,71.05778455734253 46.19536995887756,70.7668125629425 46.19536995887756,70.7668125629425 46.55562937259674,70.50135731697083 46.55562937259674,70.50135731697083 46.931469440460205,70.26152014732361 46.931469440460205,70.26152014732361 47.32302725315094,70.04748582839966 47.32302725315094,70.04748582839966 47.730448842048645,69.85936164855957 47.730448842048645,69.85936164855957 48.14869165420532,69.70179677009583 48.14869165420532,69.70179677009583 48.574620485305786,69.57916021347046 48.574620485305786,69.57916021347046 49.008432030677795,69.49164271354675 49.008432030677795,69.49164271354675 49.45037066936493,69.43915486335754 49.45037066936493,69.43915486335754 49.90065097808838,69.42159533500671 49.90065097808838,69.42159533500671 53.59216332435608,69.42159533500671 53.59216332435608,69.42159533500671 53.99044156074524,69.43721175193787 53.99044156074524,69.43721175193787 54.3823778629303,69.48397755622864 54.3823778629303,69.48397755622864 54.767996072769165,69.56179141998291 54.767996072769165,69.56179141998291 55.14726638793945,69.67036128044128 55.14726638793945,69.67036128044128 55.52020072937012,69.80968117713928 55.52020072937012,69.80968117713928 55.87935447692871,69.97694969177246 55.87935447692871,69.97694969177246 56.21912479400635,70.1658546924591 56.21912479400635,70.1658546924591 56.539541482925415,70.37639021873474 56.539541482925415,70.37639021873474 56.840580701828,70.60847282409668 56.840580701828,70.60847282409668 57.122236490249634,70.86218595504761 57.122236490249634,70.86218595504761 57.38381743431091,71.13748788833618 57.38381743431091,71.13748788833618 57.62289762496948,71.4306890964508 57.62289762496948,71.4306890964508 57.83969163894653,71.74178957939148 57.83969163894653,71.74178957939148 58.034443855285645,72.07079529762268 58.034443855285645,72.07079529762268 58.20733308792114,72.41765260696411 58.20733308792114,72.41765260696411 58.35319757461548,72.77939915657043 58.35319757461548,72.77939915657043 58.46664309501648,73.15307855606079 58.46664309501648,73.15307855606079 58.547693490982056,73.53874444961548 58.547693490982056,73.53874444961548 58.59630107879639,73.93624782562256 58.59630107879639,73.93624782562256 58.61250162124634,74.34568405151367 58.61250162124634,74.34568405151367 58.61250162124634,74.66857433319092 58.61250162124634,74.66857433319092 58.611202239990234,74.7218906879425 58.611202239990234,74.7218906879425 58.60728621482849,74.77753162384033 58.60728621482849,74.77753162384033 58.600789308547974,74.8358428478241 58.600789308547974,74.8358428478241 58.59163999557495,74.89667534828186 58.59163999557495,74.89667534828186 58.57990384101868,74.96041655540466 58.57990384101868,74.96041655540466 58.19181203842163,78.65193486213684 58.19181203842163,78.65193486213684 58.12289118766785,79.10095453262329 58.12289118766785,79.10095453262329 58.02043676376343,79.53906059265137 58.02043676376343,79.53906059265137 57.88445472717285,79.96658682823181 57.88445472717285,79.96658682823181 57.71493315696716,80.38383722305298 57.71493315696716,80.38383722305298 57.51187801361084,80.79108595848083 57.51187801361084,80.79108595848083 57.28030800819397,81.18223547935486 57.28030800819397,81.18223547935486 57.02697038650513,81.5544605255127 57.02697038650513,81.5544605255127 56.75172805786133,81.90747499465942 56.75172805786133,81.90747499465942 56.45444393157959,82.2409451007843 56.45444393157959,82.2409451007843" stroke="white" stroke-width="0.1" /><polygon points="52.42634415626526,80.53029179573059 52.42634415626526,80.53029179573059 52.71918177604675,80.5083155632019 52.71918177604675,80.5083155632019 53.001588582992554,80.44233918190002 53.001588582992554,80.44233918190002 53.27357053756714,80.33246397972107 53.27357053756714,80.33246397972107 53.5351037979126,80.17863035202026 53.5351037979126,80.17863035202026 53.78621220588684,79.98075485229492 53.78621220588684,79.98075485229492 54.011571407318115,79.75168228149414 54.011571407318115,79.75168228149414 54.19573187828064,79.50408458709717 54.19573187828064,79.50408458709717 54.338473081588745,79.23814058303833 54.338473081588745,79.23814058303833 54.43955063819885,78.95411252975464 54.43955063819885,78.95411252975464 54.49874401092529,78.65193486213684 54.49874401092529,78.65193486213684 54.8883855342865,74.96041655540466 54.8883855342865,74.96041655540466 54.8883855342865,74.79897141456604 54.8883855342865,74.79897141456604 54.86956238746643,74.5229423046112 54.86956238746643,74.5229423046112 54.81312274932861,74.26486611366272 54.81312274932861,74.26486611366272 54.71906065940857,74.02511835098267 54.71906065940857,74.02511835098267 54.587364196777344,73.80361557006836 54.587364196777344,73.80361557006836 54.41802144050598,73.60054850578308 54.41802144050598,73.60054850578308 54.219043254852295,73.42464923858643 54.219043254852295,73.42464923858643 53.99830341339111,73.28813672065735 53.99830341339111,73.28813672065735 53.75567078590393,73.19082617759705 53.75567078590393,73.19082617759705 53.4909725189209,73.13251495361328 53.4909725189209,73.13251495361328 53.20407748222351,73.11310768127441 53.20407748222351,73.11310768127441 49.51100945472717,73.11310768127441 49.51100945472717,73.11310768127441 49.21816885471344,73.13542366027832 49.21816885471344,73.13542366027832 48.935773968696594,73.20212721824646 48.935773968696594,73.20212721824646 48.66379499435425,73.31297397613525 48.66379499435425,73.31297397613525 48.40225875377655,73.46763014793396 48.40225875377655,73.46763014793396 48.15114140510559,73.66575002670288 48.15114140510559,73.66575002670288 47.926485538482666,73.89336228370667 47.926485538482666,73.89336228370667 47.746166586875916,74.1366982460022 47.746166586875916,74.1366982460022 47.61017858982086,74.39565062522888 47.61017858982086,74.39565062522888 47.51852750778198,74.6702253818512 47.51852750778198,74.6702253818512 47.47120440006256,74.96041655540466 47.47120440006256,74.96041655540466 47.081562876701355,78.65193486213684 47.081562876701355,78.65193486213684 47.081562876701355,78.84753346443176 47.081562876701355,78.84753346443176 47.10038602352142,79.1235625743866 47.10038602352142,79.1235625743866 47.15682864189148,79.38154339790344 47.15682864189148,79.38154339790344 47.25089073181152,79.62148189544678 47.25089073181152,79.62148189544678 47.382599115371704,79.84298467636108 47.382599115371704,79.84298467636108 47.55192995071411,80.04595041275024 47.55192995071411,80.04595041275024 47.74900674819946,80.22030591964722 47.74900674819946,80.22030591964722 47.96575307846069,80.3559422492981 47.96575307846069,80.3559422492981 48.20210039615631,80.45286536216736 48.20210039615631,80.45286536216736 48.45797419548035,80.51093220710754 48.45797419548035,80.51093220710754 48.73327612876892,80.53029179573059 48.73327612876892,80.53029179573059" stroke="white" stroke-width="0.1" /></svg>