<?xml version="1.0" encoding="utf-8" ?>
<svg baseProfile="full" height="100.0" version="1.1" width="77.56041884422302" xmlns="http://www.w3.org/2000/svg" xmlns:ev="http://www.w3.org/2001/xml-events" xmlns:xlink="http://www.w3.org/1999/xlink"><defs><clipPath /></defs><polygon points="74.25181865692139,16.672717034816742 74.25181865692139,16.672717034816742 74.59809184074402,17.184074223041534 74.59809184074402,17.184074223041534 74.78600144386292,17.755556106567383 74.78600144386292,17.755556106567383 74.81472492218018,18.352222442626953 74.81472492218018,18.352222442626953 74.68340396881104,18.93904209136963 74.68340396881104,18.93904209136963 74.39122200012207,19.481028616428375 74.39122200012207,19.481028616428375 59.85305309295654,36.9015634059906 59.85305309295654,36.9015634059906 59.20642614364624,36.81580126285553 59.20642614364624,36.81580126285553 58.56369733810425,36.732715368270874 58.56369733810425,36.732715368270874 57.926011085510254,36.65217161178589 57.926011085510254,36.65217161178589 57.29445219039917,36.57389581203461 57.29445219039917,36.57389581203461 56.67010545730591,36.49788796901703 56.67010545730591,36.49788796901703 56.61773681640625,36.454734206199646 56.61773681640625,36.454734206199646 56.56483173370361,36.40922009944916 56.56483173370361,36.40922009944916 56.51078224182129,36.36184632778168 56.51078224182129,36.36184632778168 56.4551055431366,36.31279468536377 56.4551055431366,36.31279468536377 56.39711618423462,36.26265227794647 56.39711618423462,36.26265227794647 55.08924722671509,35.171326994895935 55.08924722671509,35.171326994895935 53.74312996864319,34.1066837310791 53.74312996864319,34.1066837310791 52.35694646835327,33.073851466178894 52.35694646835327,33.073851466178894 50.92860460281372,32.07777440547943 50.92860460281372,32.07777440547943 49.45620000362396,31.12376034259796 49.45620000362396,31.12376034259796 47.941502928733826,30.214443802833557 47.941502928733826,30.214443802833557 46.305063366889954,29.327908158302307 46.305063366889954,29.327908158302307 44.53779757022858,28.51070761680603 44.53779757022858,28.51070761680603 42.63090491294861,27.809175848960876 42.63090491294861,27.809175848960876 40.575313568115234,27.269956469535828 40.575313568115234,27.269956469535828 39.46211636066437,27.073198556900024 39.46211636066437,27.073198556900024 38.36108148097992,26.931530237197876 38.36108148097992,26.931530237197876 37.27388679981232,26.838508248329163 37.27388679981232,26.838508248329163 36.202073097229004,26.78745985031128 36.202073097229004,26.78745985031128 35.14745831489563,26.771894097328186 35.14745831489563,26.771894097328186 33.798208832740784,26.79503560066223 33.798208832740784,26.79503560066223 32.48276710510254,26.858294010162354 32.48276710510254,26.858294010162354 31.206166744232178,26.952269673347473 31.206166744232178,26.952269673347473 29.973626136779785,27.067437767982483 29.973626136779785,27.067437767982483 28.790277242660522,27.194449305534363 28.790277242660522,27.194449305534363 27.83190906047821,27.311792969703674 27.83190906047821,27.311792969703674 26.868820190429688,27.448877692222595 26.868820190429688,27.448877692222595 25.90201199054718,27.605020999908447 25.90201199054718,27.605020999908447 24.932342767715454,27.77945101261139 24.932342767715454,27.77945101261139 23.960678279399872,27.971306443214417 23.960678279399872,27.971306443214417 21.330972015857697,16.096243262290955 21.330972015857697,16.096243262290955 21.282553672790527,15.482062101364136 21.282553672790527,15.482062101364136 21.40039950609207,14.89238291978836 21.40039950609207,14.89238291978836 21.6690331697464,14.358791708946228 21.6690331697464,14.358791708946228 22.072619199752808,13.912686705589294 22.072619199752808,13.912686705589294 22.595728933811188,13.585607707500458 22.595728933811188,13.585607707500458 23.18812906742096,13.415578007698059 23.18812906742096,13.415578007698059 23.789334297180176,13.413536548614502 23.789334297180176,13.413536548614502 24.365580081939697,13.570496439933777 24.365580081939697,13.570496439933777 24.883107841014862,13.877247273921967 24.883107841014862,13.877247273921967 25.30820369720459,14.324712753295898 25.30820369720459,14.324712753295898 33.55308175086975,25.886130332946777 33.55308175086975,25.886130332946777 36.38752996921539,1.777338981628418 36.38752996921539,1.777338981628418 36.593180894851685,1.196600031107664 36.593180894851685,1.196600031107664 36.94095313549042,0.7062980439513922 36.94095313549042,0.7062980439513922 37.40380108356476,0.32871332950890064 37.40380108356476,0.32871332950890064 37.954407930374146,0.08589926874265075 37.954407930374146,0.08589926874265075 38.56564164161682,0.0 38.56564164161682,0.0 39.17660117149353,0.08589926874265075 39.17660117149353,0.08589926874265075 39.72671031951904,0.3286679508164525 39.72671031951904,0.3286679508164525 40.18910527229309,0.7063888013362885 40.18910527229309,0.7063888013362885 40.53705930709839,1.196600031107664 40.53705930709839,1.196600031107664 40.74375331401825,1.777338981628418 40.74375331401825,1.777338981628418 43.57529878616333,25.886130332946777 43.57529878616333,25.886130332946777 51.82017683982849,14.324712753295898 51.82017683982849,14.324712753295898 52.24391222000122,13.877202570438385 52.24391222000122,13.877202570438385 52.76075601577759,13.570451736450195 52.76075601577759,13.570451736450195 53.33700180053711,13.413627445697784 53.33700180053711,13.413627445697784 53.938937187194824,13.41562420129776 53.938937187194824,13.41562420129776 54.53265309333801,13.585607707500458 54.53265309333801,13.585607707500458 55.05630373954773,13.912642002105713 55.05630373954773,13.912642002105713 55.46011924743652,14.358745515346527 55.46011924743652,14.358745515346527 55.72870373725891,14.892429113388062 55.72870373725891,14.892429113388062 55.84678053855896,15.482062101364136 55.84678053855896,15.482062101364136 55.798858404159546,16.096243262290955 55.798858404159546,16.096243262290955 52.720463275909424,29.960650205612183 52.720463275909424,29.960650205612183 71.469646692276,16.245807707309723 71.469646692276,16.245807707309723 72.04167246818542,16.008757054805756 72.04167246818542,16.008757054805756 72.6405143737793,15.93860238790512 72.6405143737793,15.93860238790512 73.23151230812073,16.029630601406097 73.23151230812073,16.029630601406097 73.78016710281372,16.276301443576813 73.78016710281372,16.276301443576813" stroke="white" stroke-width="0.1" /><polygon points="2.7531329542398453,16.549290716648102 2.7531329542398453,16.549290716648102 3.2256469130516052,16.152329742908478 3.2256469130516052,16.152329742908478 3.7748485803604126,15.90593159198761 3.7748485803604126,15.90593159198761 4.365842789411545,15.815404057502747 4.365842789411545,15.815404057502747 4.9637798219919205,15.885783731937408 4.9637798219919205,15.885783731937408 5.5338554084300995,16.122381389141083 5.5338554084300995,16.122381389141083 22.23416268825531,28.370627760887146 22.23416268825531,28.370627760887146 21.283960342407227,28.61584722995758 21.283960342407227,28.61584722995758 20.334939658641815,28.881394863128662 20.334939658641815,28.881394863128662 19.38796043395996,29.17085587978363 19.38796043395996,29.17085587978363 18.443748354911804,29.487362504005432 18.443748354911804,29.487362504005432 17.503303289413452,29.834318161010742 17.503303289413452,29.834318161010742 16.56471937894821,30.2139014005661 16.56471937894821,30.2139014005661 15.652544796466827,30.609500408172607 15.652544796466827,30.609500408172607 14.765417575836182,31.017351150512695 14.765417575836182,31.017351150512695 13.901706039905548,31.433460116386414 13.901706039905548,31.433460116386414 13.059955835342407,31.854155659675598 13.059955835342407,31.854155659675598 2.6209941133856773,19.357602298259735 2.6209941133856773,19.357602298259735 2.3262685164809227,18.815071880817413 2.3262685164809227,18.815071880817413 2.193675935268402,18.228161334991455 2.193675935268402,18.228161334991455 2.22176443785429,17.631767690181732 2.22176443785429,17.631767690181732 2.408719062805176,17.06051230430603 2.408719062805176,17.06051230430603" stroke="white" stroke-width="0.1" /><polygon points="17.46554970741272,48.95378053188324 17.46554970741272,48.95378053188324 18.36147904396057,48.96027147769928 18.36147904396057,48.96027147769928 19.235537946224213,49.07620847225189 19.235537946224213,49.07620847225189 20.080146193504333,49.29465651512146 20.080146193504333,49.29465651512146 20.88763564825058,49.60853159427643 20.88763564825058,49.60853159427643 21.65042757987976,50.010889768600464 21.65042757987976,50.010889768600464 21.037743985652924,51.404428482055664 21.037743985652924,51.404428482055664 20.517130196094513,52.9349148273468 20.517130196094513,52.9349148273468 20.114587247371674,54.599761962890625 20.114587247371674,54.599761962890625 19.856345653533936,56.39652609825134 19.856345653533936,56.39652609825134 19.76853907108307,58.322566747665405 19.76853907108307,58.322566747665405 19.79730874300003,59.34001803398132 19.79730874300003,59.34001803398132 19.882164895534515,60.34276485443115 19.882164895534515,60.34276485443115 20.021064579486847,61.329853534698486 20.021064579486847,61.329853534698486 20.211876928806305,62.3005211353302 20.211876928806305,62.3005211353302 20.45246660709381,63.25380802154541 20.45246660709381,63.25380802154541 19.96121257543564,63.42279314994812 19.96121257543564,63.42279314994812 19.456616044044495,63.55851888656616 19.456616044044495,63.55851888656616 18.939359486103058,63.65866661071777 18.939359486103058,63.65866661071777 18.410032987594604,63.72056007385254 18.410032987594604,63.72056007385254 17.86922663450241,63.74170780181885 17.86922663450241,63.74170780181885 15.557070076465607,63.35853934288025 15.557070076465607,63.35853934288025 13.529793918132782,62.29625940322876 13.529793918132782,62.29625940322876 11.918897926807404,60.685545206069946 11.918897926807404,60.685545206069946 10.855889320373535,58.65722298622131 10.855889320373535,58.65722298622131 10.472360253334045,56.34193420410156 10.472360253334045,56.34193420410156 10.827755182981491,54.10483479499817 10.827755182981491,54.10483479499817 11.818206310272217,52.126652002334595 11.818206310272217,52.126652002334595 13.330315053462982,50.5281925201416 13.330315053462982,50.5281925201416 15.250591933727264,49.43024218082428 15.250591933727264,49.43024218082428" stroke="white" stroke-width="0.1" /><polygon points="77.46961712837219,51.52105093002319 77.46961712837219,51.52105093002319 77.56041884422302,51.880210638046265 77.56041884422302,51.880210638046265 77.53241658210754,52.409130334854126 77.53241658210754,52.409130334854126 77.43703722953796,52.996087074279785 77.43703722953796,52.996087074279785 77.32540965080261,53.52922081947327 77.32540965080261,53.52922081947327 77.24890112876892,53.89664173126221 77.24890112876892,53.89664173126221 77.11893916130066,54.81698513031006 77.11893916130066,54.81698513031006 76.96229815483093,55.76963424682617 76.96229815483093,55.76963424682617 76.73119306564331,56.70822262763977 76.73119306564331,56.70822262763977 76.37797594070435,57.586270570755005 76.37797594070435,57.586270570755005 75.85490942001343,58.357417583465576 75.85490942001343,58.357417583465576 75.05872249603271,59.032994508743286 75.05872249603271,59.032994508743286 74.16632771492004,59.458088874816895 74.16632771492004,59.458088874816895 73.20564389228821,59.702807664871216 73.20564389228821,59.702807664871216 72.20453023910522,59.83721613883972 72.20453023910522,59.83721613883972 71.19084596633911,59.93146300315857 71.19084596633911,59.93146300315857 71.75361514091492,55.629873275756836 71.75361514091492,55.629873275756836 70.65394520759583,51.61920189857483 70.65394520759583,51.61920189857483 68.19490194320679,48.30270707607269 68.19490194320679,48.30270707607269 64.67942595481873,46.08330428600311 64.67942595481873,46.08330428600311 60.410648584365845,45.36425471305847 60.410648584365845,45.36425471305847 59.066569805145264,45.49739062786102 59.066569805145264,45.49739062786102 57.78493285179138,45.79080045223236 57.78493285179138,45.79080045223236 56.57249689102173,46.23205065727234 56.57249689102173,46.23205065727234 55.43579459190369,46.808433532714844 55.43579459190369,46.808433532714844 54.381632804870605,47.50751554965973 54.381632804870605,47.50751554965973 54.32654619216919,47.43146300315857 54.32654619216919,47.43146300315857 54.27255034446716,47.354140877723694 54.27255034446716,47.354140877723694 54.2194128036499,47.277089953422546 54.2194128036499,47.277089953422546 54.1668176651001,47.20189869403839 54.1668176651001,47.20189869403839 54.11445498466492,47.129976749420166 54.11445498466492,47.129976749420166 53.01215052604675,45.835453271865845 53.01215052604675,45.835453271865845 51.98838710784912,44.8322057723999 51.98838710784912,44.8322057723999 51.11228823661804,44.1022664308548 51.11228823661804,44.1022664308548 50.45236945152283,43.6273455619812 50.45236945152283,43.6273455619812 50.077688694000244,43.38943362236023 50.077688694000244,43.38943362236023 49.17885363101959,42.97758936882019 49.17885363101959,42.97758936882019 48.23146462440491,42.76708364486694 48.23146462440491,42.76708364486694 47.266560792922974,42.7584171295166 47.266560792922974,42.7584171295166 46.31499946117401,42.9521769285202 46.31499946117401,42.9521769285202 45.407816767692566,43.3487743139267 45.407816767692566,43.3487743139267 44.60509121417999,43.92697215080261 44.60509121417999,43.92697215080261 43.953290581703186,44.64692771434784 43.953290581703186,44.64692771434784 43.46825182437897,45.48182785511017 43.46825182437897,45.48182785511017 43.16563308238983,46.40462100505829 43.16563308238983,46.40462100505829 43.06126534938812,47.38844633102417 43.06126534938812,47.38844633102417 43.06126534938812,56.78917169570923 43.06126534938812,56.78917169570923 38.70794475078583,59.22865867614746 38.70794475078583,59.22865867614746 34.36043560504913,56.78917169570923 34.36043560504913,56.78917169570923 34.36043560504913,47.50461280345917 34.36043560504913,47.50461280345917 34.25579369068146,46.520739793777466 34.25579369068146,46.520739793777466 33.95244777202606,45.597946643829346 33.95244777202606,45.597946643829346 33.46659243106842,44.76314187049866 33.46659243106842,44.76314187049866 32.81406760215759,44.04313862323761 32.81406760215759,44.04313862323761 32.01097846031189,43.464940786361694 32.01097846031189,43.464940786361694 31.106427311897278,43.06789040565491 31.106427311897278,43.06789040565491 30.156180262565613,42.873311042785645 30.156180262565613,42.873311042785645 29.191502928733826,42.880797386169434 29.191502928733826,42.880797386169434 28.243708610534668,43.08976233005524 28.243708610534668,43.08976233005524 27.34401226043701,43.499791622161865 27.34401226043701,43.499791622161865 26.987800002098083,43.72835457324982 26.987800002098083,43.72835457324982 26.36948823928833,44.17409598827362 26.36948823928833,44.17409598827362 25.550517439842224,44.85353231430054 25.550517439842224,44.85353231430054 24.59205836057663,45.78299522399902 24.59205836057663,45.78299522399902 23.5555499792099,46.978959441185 23.5555499792099,46.978959441185 22.73898422718048,46.518152952194214 22.73898422718048,46.518152952194214 21.879856288433075,46.12577557563782 21.879856288433075,46.12577557563782 20.980204641819,45.80763578414917 20.980204641819,45.80763578414917 20.04198282957077,45.56926786899567 20.04198282957077,45.56926786899567 19.06718760728836,45.41652798652649 19.06718760728836,45.41652798652649 15.114006400108337,45.72463929653168 15.114006400108337,45.72463929653168 11.646770685911179,47.35695421695709 11.646770685911179,47.35695421695709 8.943597972393036,50.03766417503357 8.943597972393036,50.03766417503357 7.282334566116333,53.49056124687195 7.282334566116333,53.49056124687195 6.940915435552597,57.43970274925232 6.940915435552597,57.43970274925232 6.098712235689163,57.00716972351074 6.098712235689163,57.00716972351074 5.254512280225754,56.57657980918884 5.254512280225754,56.57657980918884 4.407045617699623,56.15212321281433 4.407045617699623,56.15212321281433 3.5547688603401184,55.73760271072388 3.5547688603401184,55.73760271072388 2.696502022445202,55.337101221084595 2.696502022445202,55.337101221084595 2.340698428452015,55.199337005615234 2.340698428452015,55.199337005615234 1.9585760310292244,55.06733059883118 1.9585760310292244,55.06733059883118 1.5847576782107353,54.9132764339447 1.5847576782107353,54.9132764339447 1.2538207694888115,54.70944046974182 1.2538207694888115,54.70944046974182 1.0004792362451553,54.4281005859375 1.0004792362451553,54.4281005859375 0.5387649405747652,53.411197662353516 0.5387649405747652,53.411197662353516 0.2622809261083603,52.26932168006897 0.2622809261083603,52.26932168006897 0.11693736305460334,51.069360971450806 0.11693736305460334,51.069360971450806 0.04850835830438882,49.87802803516388 0.04850835830438882,49.87802803516388 0.0029041486413916573,48.76210689544678 0.0029041486413916573,48.76210689544678 0.09266049019061029,48.01737368106842 0.09266049019061029,48.01737368106842 0.38715931586921215,47.471439838409424 0.38715931586921215,47.471439838409424 0.7934224791824818,47.02202379703522 0.7934224791824818,47.02202379703522 1.2185625731945038,46.56670689582825 1.2185625731945038,46.56670689582825 1.5696924179792404,46.0031658411026 1.5696924179792404,46.0031658411026 1.7462555319070816,45.456868410110474 1.7462555319070816,45.456868410110474 1.8515761941671371,44.868916273117065 1.8515761941671371,44.868916273117065 1.9130624830722809,44.26312744617462 1.9130624830722809,44.26312744617462 1.9581222906708717,43.66323947906494 1.9581222906708717,43.66323947906494 2.014027163386345,43.09321045875549 2.014027163386345,43.09321045875549 2.135048434138298,42.07621216773987 2.135048434138298,42.07621216773987 2.334708534181118,40.86835980415344 2.334708534181118,40.86835980415344 2.6919642463326454,39.699167013168335 2.6919642463326454,39.699167013168335 3.285771980881691,38.797974586486816 3.285771980881691,38.797974586486816 4.195042699575424,38.394296169281006 4.195042699575424,38.394296169281006 5.695035308599472,38.31838071346283 5.695035308599472,38.31838071346283 7.181188464164734,38.25317323207855 7.181188464164734,38.25317323207855 8.641339838504791,38.113319873809814 8.641339838504791,38.113319873809814 10.063328593969345,37.81319558620453 10.063328593969345,37.81319558620453 11.435085535049438,37.26748824119568 11.435085535049438,37.26748824119568 13.017301261425018,36.43413186073303 13.017301261425018,36.43413186073303 14.60459977388382,35.59674024581909 14.60459977388382,35.59674024581909 16.204559803009033,34.7819447517395 16.204559803009033,34.7819447517395 17.824575304985046,34.016382694244385 17.824575304985046,34.016382694244385 19.472315907478333,33.32655727863312 19.472315907478333,33.32655727863312 21.414148807525635,32.64680504798889 21.414148807525635,32.64680504798889 23.394732177257538,32.08408057689667 23.394732177257538,32.08408057689667 25.40476620197296,31.628945469856262 25.40476620197296,31.628945469856262 27.434855699539185,31.271827220916748 27.434855699539185,31.271827220916748 29.475656151771545,31.00323975086212 29.475656151771545,31.00323975086212 31.47561550140381,30.799585580825806 31.47561550140381,30.799585580825806 33.52721631526947,30.656012892723083 33.52721631526947,30.656012892723083 35.59456169605255,30.61467409133911 35.59456169605255,30.61467409133911 37.64126002788544,30.717769265174866 37.64126002788544,30.717769265174866 39.63146507740021,31.007593870162964 39.63146507740021,31.007593870162964 41.15169644355774,31.405553221702576 41.15169644355774,31.405553221702576 42.6304966211319,31.951716542243958 42.6304966211319,31.951716542243958 44.066235423088074,32.615721225738525 44.066235423088074,32.615721225738525 45.4572319984436,33.36680829524994 45.4572319984436,33.36680829524994 46.80180847644806,34.17457044124603 46.80180847644806,34.17457044124603 48.12138080596924,35.02970337867737 48.12138080596924,35.02970337867737 49.411094188690186,35.92971861362457 49.411094188690186,35.92971861362457 50.671857595443726,36.87011897563934 50.671857595443726,36.87011897563934 51.90439820289612,37.846094369888306 51.90439820289612,37.846094369888306 53.10961604118347,38.853153586387634 53.10961604118347,38.853153586387634 53.63662838935852,39.31536674499512 53.63662838935852,39.31536674499512 54.06385660171509,39.67216908931732 54.06385660171509,39.67216908931732 54.479652643203735,39.936718344688416 54.479652643203735,39.936718344688416 54.97235655784607,40.1220828294754 54.97235655784607,40.1220828294754 55.63042163848877,40.241336822509766 55.63042163848877,40.241336822509766 59.495025873184204,40.71802496910095 59.495025873184204,40.71802496910095 63.39729428291321,41.31432771682739 63.39729428291321,41.31432771682739 67.26893186569214,42.11782515048981 67.26893186569214,42.11782515048981 71.04146480560303,43.215954303741455 71.04146480560303,43.215954303741455 74.64678287506104,44.696298241615295 74.64678287506104,44.696298241615295 75.03371834754944,44.88198459148407 75.03371834754944,44.88198459148407 75.59263110160828,45.18083930015564 75.59263110160828,45.18083930015564 76.11088156700134,45.540228486061096 76.11088156700134,45.540228486061096 76.37575268745422,45.90741991996765 76.37575268745422,45.90741991996765 76.17436647415161,46.22969031333923 76.17436647415161,46.22969031333923 76.06178522109985,46.45240306854248 76.06178522109985,46.45240306854248 75.98877549171448,46.882081031799316 75.98877549171448,46.882081031799316 75.94484686851501,47.39125967025757 75.94484686851501,47.39125967025757 75.91921091079712,47.85233736038208 75.91921091079712,47.85233736038208 75.90137720108032,48.137715458869934 75.90137720108032,48.137715458869934 75.82877278327942,48.676797747612 75.82877278327942,48.676797747612 75.75666904449463,49.216970801353455 75.75666904449463,49.216970801353455 75.68438053131104,49.758049845695496 75.68438053131104,49.758049845695496 75.61087012290955,50.29962658882141 75.61087012290955,50.29962658882141 75.53545236587524,50.84148049354553 75.53545236587524,50.84148049354553 75.71097612380981,50.972938537597656 75.71097612380981,50.972938537597656 76.1602520942688,51.10825300216675 76.1602520942688,51.10825300216675 76.7152190208435,51.245927810668945 76.7152190208435,51.245927810668945 77.20774412155151,51.384055614471436 77.20774412155151,51.384055614471436" stroke="white" stroke-width="0.1" /><polygon points="21.670757234096527,38.951894640922546 21.670757234096527,38.951894640922546 22.712621092796326,38.98070752620697 22.712621092796326,38.98070752620697 23.84433150291443,38.95670473575592 23.84433150291443,38.95670473575592 24.856063723564148,38.735127449035645 24.856063723564148,38.735127449035645 25.537902116775513,38.17090392112732 25.537902116775513,38.17090392112732 25.67993402481079,37.11937665939331 25.67993402481079,37.11937665939331 25.560954213142395,36.494892835617065 25.560954213142395,36.494892835617065 25.392785668373108,35.8709990978241 25.392785668373108,35.8709990978241 25.181782245635986,35.25604605674744 25.181782245635986,35.25604605674744 24.934157729148865,34.658291935920715 24.934157729148865,34.658291935920715 24.65622127056122,34.085991978645325 24.65622127056122,34.085991978645325 24.412092566490173,33.887964487075806 24.412092566490173,33.887964487075806 24.032284319400787,33.840954303741455 24.032284319400787,33.840954303741455 23.596343398094177,33.890143036842346 23.596343398094177,33.890143036842346 23.18345606327057,33.98039937019348 23.18345606327057,33.98039937019348 22.873075306415558,34.056952595710754 22.873075306415558,34.056952595710754 21.668216586112976,34.352585673332214 21.668216586112976,34.352585673332214 20.297729969024658,34.78934168815613 20.297729969024658,34.78934168815613 18.95451545715332,35.39490103721619 18.95451545715332,35.39490103721619 17.831382155418396,36.19717359542847 17.831382155418396,36.19717359542847 17.121408879756927,37.223926186561584 17.121408879756927,37.223926186561584 17.260126769542694,38.071075081825256 17.260126769542694,38.071075081825256 18.199391663074493,38.58197629451752 18.199391663074493,38.58197629451752 19.52431946992874,38.84217143058777 19.52431946992874,38.84217143058777 20.819705724716187,38.93701136112213 20.819705724716187,38.93701136112213" stroke="white" stroke-width="0.1" /><polygon points="45.338115096092224,37.86574304103851 45.338115096092224,37.86574304103851 45.68389058113098,37.822225689888 45.68389058113098,37.822225689888 45.87833285331726,37.70283758640289 45.87833285331726,37.70283758640289 45.94290554523468,37.52455115318298 45.94290554523468,37.52455115318298 45.89889049530029,37.30406165122986 45.89889049530029,37.30406165122986 45.76793015003204,37.05838918685913 45.76793015003204,37.05838918685913 44.95867192745209,36.107054352760315 44.95867192745209,36.107054352760315 43.972259759902954,35.32833158969879 43.972259759902954,35.32833158969879 42.86922812461853,34.688058495521545 42.86922812461853,34.688058495521545 41.70997142791748,34.15219783782959 41.70997142791748,34.15219783782959 40.55498242378235,33.686673641204834 40.55498242378235,33.686673641204834 39.2839640378952,33.276915550231934 39.2839640378952,33.276915550231934 37.987762689590454,33.00950527191162 37.987762689590454,33.00950527191162 36.672455072402954,32.86089599132538 36.672455072402954,32.86089599132538 35.34416854381561,32.80744254589081 35.34416854381561,32.80744254589081 34.00903344154358,32.825592160224915 34.00903344154358,32.825592160224915 33.01762938499451,32.848551869392395 33.01762938499451,32.848551869392395 31.843218207359314,32.92260766029358 31.843218207359314,32.92260766029358 30.666086077690125,33.14177989959717 30.666086077690125,33.14177989959717 29.66628670692444,33.59995484352112 29.66628670692444,33.59995484352112 29.0240615606308,34.39092934131622 29.0240615606308,34.39092934131622 28.835928440093994,35.36409139633179 28.835928440093994,35.36409139633179 28.931674361228943,36.451420187950134 28.931674361228943,36.451420187950134 29.21428382396698,37.56811320781708 29.21428382396698,37.56811320781708 29.58664894104004,38.629260659217834 29.58664894104004,38.629260659217834 29.95193600654602,39.55014944076538 29.95193600654602,39.55014944076538 30.11583983898163,39.79083001613617 30.11583983898163,39.79083001613617 30.34336268901825,39.90744948387146 30.34336268901825,39.90744948387146 30.617350339889526,39.94329869747162 30.617350339889526,39.94329869747162 30.920469760894775,39.94143605232239 30.920469760894775,39.94143605232239 31.235569715499878,39.94511365890503 31.235569715499878,39.94511365890503 32.41615295410156,40.02084732055664 32.41615295410156,40.02084732055664 33.59813988208771,40.08823335170746 33.59813988208771,40.08823335170746 34.78085696697235,40.147948265075684 34.78085696697235,40.147948265075684 35.963571071624756,40.200722217559814 35.963571071624756,40.200722217559814 37.14551329612732,40.24714529514313 37.14551329612732,40.24714529514313 38.10878396034241,40.28054177761078 38.10878396034241,40.28054177761078 39.071691036224365,40.31108021736145 39.071691036224365,40.31108021736145 40.03446102142334,40.338534116744995 40.03446102142334,40.338534116744995 40.997275710105896,40.36281108856201 40.997275710105896,40.36281108856201 41.960591077804565,40.38363993167877 41.960591077804565,40.38363993167877 42.51473844051361,40.39371311664581 42.51473844051361,40.39371311664581 43.06897819042206,40.402787923812866 43.06897819042206,40.402787923812866 43.6235785484314,40.41068255901337 43.6235785484314,40.41068255901337 44.17849779129028,40.41694700717926 44.17849779129028,40.41694700717926 44.73405480384827,40.421393513679504 44.73405480384827,40.421393513679504 44.75474655628204,40.35096764564514 44.75474655628204,40.35096764564514 44.759055972099304,40.23602604866028 44.759055972099304,40.23602604866028 44.75415647029877,40.105658769607544 44.75415647029877,40.105658769607544 44.747304916381836,39.98931050300598 44.747304916381836,39.98931050300598 44.74566876888275,39.91607129573822 44.74566876888275,39.91607129573822 44.75823938846588,39.565667510032654 44.75823938846588,39.565667510032654 44.79445219039917,39.04001712799072 44.79445219039917,39.04001712799072 44.88370716571808,38.48459720611572 44.88370716571808,38.48459720611572 45.05514204502106,38.04470896720886 45.05514204502106,38.04470896720886" stroke="white" stroke-width="0.1" /><polygon points="60.404837131500244,48.95378053188324 60.404837131500244,48.95378053188324 62.57873177528381,49.16551113128662 62.57873177528381,49.16551113128662 64.55436944961548,49.98284876346588 64.55436944961548,49.98284876346588 66.21445417404175,51.31281018257141 66.21445417404175,51.31281018257141 67.44154691696167,53.062742948532104 67.44154691696167,53.062742948532104 68.11825633049011,55.13961911201477 68.11825633049011,55.13961911201477 68.08277368545532,57.64812231063843 68.08277368545532,57.64812231063843 67.23939180374146,59.93495583534241 67.23939180374146,59.93495583534241 65.72664380073547,61.82664632797241 65.72664380073547,61.82664632797241 63.68298530578613,63.14948797225952 63.68298530578613,63.14948797225952 61.247044801712036,63.730090856552124 61.247044801712036,63.730090856552124 60.38859486579895,63.728004693984985 60.38859486579895,63.728004693984985 59.552425146102905,63.624995946884155 59.552425146102905,63.624995946884155 58.744120597839355,63.42756152153015 58.744120597839355,63.42756152153015 57.96934962272644,63.14195394515991 57.96934962272644,63.14195394515991 57.23350644111633,62.774622440338135 57.23350644111633,62.774622440338135 57.42976665496826,61.91127896308899 57.42976665496826,61.91127896308899 57.5853168964386,61.033087968826294 57.5853168964386,61.033087968826294 57.69858360290527,60.14151573181152 57.69858360290527,60.14151573181152 57.76768922805786,59.23759937286377 57.76768922805786,59.23759937286377 57.79110789299011,58.322566747665405 57.79110789299011,58.322566747665405 57.71913528442383,56.562966108322144 57.71913528442383,56.562966108322144 57.50241279602051,54.90987300872803 57.50241279602051,54.90987300872803 57.16090798377991,53.36527228355408 57.16090798377991,53.36527228355408 56.7142128944397,51.93107724189758 56.7142128944397,51.93107724189758 56.18220567703247,50.60914754867554 56.18220567703247,50.60914754867554 56.91913366317749,50.07818341255188 56.91913366317749,50.07818341255188 57.71709680557251,49.63793456554413 57.71709680557251,49.63793456554413 58.56891870498657,49.297741055488586 58.56891870498657,49.297741055488586 59.46725606918335,49.066588282585144 59.46725606918335,49.066588282585144" stroke="white" stroke-width="0.1" /><polygon points="47.78921902179718,61.89466714859009 47.78921902179718,61.89466714859009 47.78921902179718,49.775657057762146 47.78921902179718,49.775657057762146 48.35461974143982,50.1722514629364 48.35461974143982,50.1722514629364 49.70291554927826,51.40279531478882 49.70291554927826,51.40279531478882 51.31217837333679,53.528136014938354 51.31217837333679,53.528136014938354 52.66038179397583,56.60925507545471 52.66038179397583,56.60925507545471 53.22578549385071,60.70687174797058 53.22578549385071,60.70687174797058 52.91059613227844,63.62186670303345 52.91059613227844,63.62186670303345 52.00871825218201,66.32471680641174 52.00871825218201,66.32471680641174 50.586140155792236,68.75390410423279 50.586140155792236,68.75390410423279 48.708516359329224,70.84752321243286 48.708516359329224,70.84752321243286 46.44169211387634,72.54418134689331 46.44169211387634,72.54418134689331 46.447500586509705,92.56247878074646 46.447500586509705,92.56247878074646 46.05475962162018,94.91283893585205 46.05475962162018,94.91283893585205 44.9670672416687,96.95450067520142 44.9670672416687,96.95450067520142 43.309977650642395,98.56467247009277 43.309977650642395,98.56467247009277 41.20887219905853,99.62073564529419 41.20887219905853,99.62073564529419 38.789260387420654,100.0 38.789260387420654,100.0 36.36938035488129,99.62073564529419 36.36938035488129,99.62073564529419 34.267911314964294,98.56467247009277 34.267911314964294,98.56467247009277 32.61086642742157,96.95454835891724 32.61086642742157,96.95454835891724 31.524169445037842,94.91288661956787 31.524169445037842,94.91288661956787 31.133925914764404,92.56247878074646 31.133925914764404,92.56247878074646 31.133925914764404,72.45995998382568 31.133925914764404,72.45995998382568 28.912749886512756,70.75949311256409 28.912749886512756,70.75949311256409 27.076011896133423,68.67417693138123 27.076011896133423,68.67417693138123 25.68637728691101,66.26377701759338 25.68637728691101,66.26377701759338 24.80660229921341,63.588058948516846 24.80660229921341,63.588058948516846 24.499398469924927,60.70687174797058 24.499398469924927,60.70687174797058 25.049689412117004,56.62985444068909 25.049689412117004,56.62985444068909 26.36195421218872,53.57804894447327 26.36195421218872,53.57804894447327 27.928200364112854,51.482975482940674 27.928200364112854,51.482975482940674 29.240509867668152,50.27598738670349 29.240509867668152,50.27598738670349 29.790756106376648,49.88891780376434 29.790756106376648,49.88891780376434 29.790756106376648,61.89466714859009 29.790756106376648,61.89466714859009 38.789260387420654,66.95079207420349 38.789260387420654,66.95079207420349" stroke="white" stroke-width="0.1" /><polygon points="43.33715736865997,92.56247878074646 43.33715736865997,92.56247878074646 43.10536980628967,91.16349220275879 43.10536980628967,91.16349220275879 42.45974123477936,89.94919657707214 42.45974123477936,89.94919657707214 41.47537052631378,88.99214267730713 41.47537052631378,88.99214267730713 40.226906538009644,88.36471438407898 40.226906538009644,88.36471438407898 38.789260387420654,88.13945651054382 38.789260387420654,88.13945651054382 37.351617217063904,88.36471438407898 37.351617217063904,88.36471438407898 36.10315024852753,88.99214267730713 36.10315024852753,88.99214267730713 35.11877954006195,89.9492859840393 35.11877954006195,89.9492859840393 34.473198652267456,91.16349220275879 34.473198652267456,91.16349220275879 34.241363406181335,92.56247878074646 34.241363406181335,92.56247878074646 34.473198652267456,93.95892024040222 34.473198652267456,93.95892024040222 35.11873483657837,95.1721727848053 35.11873483657837,95.1721727848053 36.10324263572693,96.1293637752533 36.10324263572693,96.1293637752533 37.351661920547485,96.75711393356323 37.351661920547485,96.75711393356323 38.789260387420654,96.98259234428406 38.789260387420654,96.98259234428406 40.226906538009644,96.75706624984741 40.226906538009644,96.75706624984741 41.4753258228302,96.12926840782166 41.4753258228302,96.12926840782166 42.45978891849518,95.17226219177246 42.45978891849518,95.17226219177246 43.10536980628967,93.95896196365356 43.10536980628967,93.95896196365356" stroke="white" stroke-width="0.1" /></svg>