<?xml version="1.0" encoding="utf-8" ?>
<svg baseProfile="full" height="57.276034355163574" version="1.1" width="99.99769330024719" xmlns="http://www.w3.org/2000/svg" xmlns:ev="http://www.w3.org/2001/xml-events" xmlns:xlink="http://www.w3.org/1999/xlink"><defs><clipPath /></defs><polygon points="59.228575229644775,37.0669811964035 59.228575229644775,37.0669811964035 59.957849979400635,38.08241784572601 59.957849979400635,38.08241784572601 60.322505235672,39.23657536506653 60.322505235672,39.23657536506653 60.322505235672,40.43692350387573 60.322505235672,40.43692350387573 59.95780825614929,41.59131646156311 59.95780825614929,41.59131646156311 59.228575229644775,42.60737895965576 59.228575229644775,42.60737895965576 52.765822410583496,49.06262457370758 52.765822410583496,49.06262457370758 51.75362825393677,49.79495108127594 51.75362825393677,49.79495108127594 50.600093603134155,50.16109347343445 50.600093603134155,50.16109347343445 49.399200081825256,50.1609742641449 49.399200081825256,50.1609742641449 48.24500381946564,49.7949093580246 48.24500381946564,49.7949093580246 47.231677174568176,49.06262457370758 47.231677174568176,49.06262457370758 40.771424770355225,42.60737895965576 40.771424770355225,42.60737895965576 40.04219174385071,41.59131646156311 40.04219174385071,41.59131646156311 39.677536487579346,40.43700098991394 39.677536487579346,40.43700098991394 39.6774560213089,39.236536622047424 39.6774560213089,39.236536622047424 40.042153000831604,38.08241784572601 40.042153000831604,38.08241784572601 40.771424770355225,37.0669811964035 40.771424770355225,37.0669811964035 47.231677174568176,30.6104838848114 47.231677174568176,30.6104838848114 48.24504256248474,29.878199100494385 48.24504256248474,29.878199100494385 49.3992418050766,29.512134194374084 49.3992418050766,29.512134194374084 50.600093603134155,29.512056708335876 50.600093603134155,29.512056708335876 51.75366997718811,29.878199100494385 51.75366997718811,29.878199100494385 52.765822410583496,30.6104838848114 52.765822410583496,30.6104838848114" stroke="white" stroke-width="0.1" /><polygon points="44.91640031337738,54.44783568382263 44.91640031337738,54.44783568382263 44.88429129123688,54.87850904464722 44.88429129123688,54.87850904464722 44.78800296783447,55.29963970184326 44.78800296783447,55.29963970184326 44.62769329547882,55.704694986343384 44.62769329547882,55.704694986343384 44.40352022647858,56.08707070350647 44.40352022647858,56.08707070350647 44.11543905735016,56.44022822380066 44.11543905735016,56.44022822380066 43.38151216506958,56.983768939971924 43.38151216506958,56.983768939971924 42.54523515701294,57.26289749145508 42.54523515701294,57.26289749145508 41.672468185424805,57.276034355163574 41.672468185424805,57.276034355163574 40.82891643047333,57.02120065689087 40.82891643047333,57.02120065689087 40.08059799671173,56.496548652648926 40.08059799671173,56.496548652648926 25.047558546066284,41.87775254249573 25.047558546066284,41.87775254249573 24.74265992641449,41.534921526908875 24.74265992641449,41.534921526908875 24.499790370464325,41.151803731918335 24.499790370464325,41.151803731918335 24.32239055633545,40.73677659034729 24.32239055633545,40.73677659034729 24.21358823776245,40.29804468154907 24.21358823776245,40.29804468154907 24.17651265859604,39.84406292438507 24.17651265859604,39.84406292438507 24.213509261608124,39.38350975513458 24.213509261608124,39.38350975513458 24.32239055633545,38.94098699092865 24.32239055633545,38.94098699092865 24.499869346618652,38.52400183677673 24.499869346618652,38.52400183677673 24.74265992641449,38.14006447792053 24.74265992641449,38.14006447792053 25.047558546066284,37.79660761356354 25.047558546066284,37.79660761356354 40.08059799671173,23.17781299352646 40.08059799671173,23.17781299352646 40.82891643047333,22.65828400850296 40.82891643047333,22.65828400850296 41.6724294424057,22.40501195192337 41.6724294424057,22.40501195192337 42.54527390003204,22.418582439422607 42.54527390003204,22.418582439422607 43.38158965110779,22.69938737154007 43.38158965110779,22.69938737154007 44.11543905735016,23.247897624969482 44.11543905735016,23.247897624969482 44.63754892349243,23.992541432380676 44.63754892349243,23.992541432380676 44.89176273345947,24.83370751142502 44.89176273345947,24.83370751142502 44.87869739532471,25.704985857009888 44.87869739532471,25.704985857009888 44.59887146949768,26.540091633796692 44.59887146949768,26.540091633796692 44.052863121032715,27.272728085517883 44.052863121032715,27.272728085517883 31.89327120780945,39.094412326812744 31.89327120780945,39.094412326812744 31.78142011165619,39.21721875667572 31.78142011165619,39.21721875667572 31.69271945953369,39.35574293136597 31.69271945953369,39.35574293136597 31.628188490867615,39.50791656970978 31.628188490867615,39.50791656970978 31.588804721832275,39.67147469520569 31.588804721832275,39.67147469520569 31.575390696525574,39.84406292438507 31.575390696525574,39.84406292438507 31.58876597881317,40.00996649265289 31.58876597881317,40.00996649265289 31.62814974784851,40.170666575431824 31.62814974784851,40.170666575431824 31.692758202552795,40.32319188117981 31.692758202552795,40.32319188117981 31.78142011165619,40.46437740325928 31.78142011165619,40.46437740325928 31.89327120780945,40.59121012687683 31.89327120780945,40.59121012687683 44.06287670135498,52.41790413856506 44.06287670135498,52.41790413856506 44.369807839393616,52.769964933395386 44.369807839393616,52.769964933395386 44.60872709751129,53.157854080200195 44.60872709751129,53.157854080200195 44.77963447570801,53.572726249694824 44.77963447570801,53.572726249694824 44.88217830657959,54.00570631027222 44.88217830657959,54.00570631027222" stroke="white" stroke-width="0.1" /><polygon points="55.08109927177429,25.227773189544678 55.08109927177429,25.227773189544678 55.11324405670166,24.80132430791855 55.11324405670166,24.80132430791855 55.20961284637451,24.380898475646973 55.20961284637451,24.380898475646973 55.37039041519165,23.975880444049835 55.37039041519165,23.975880444049835 55.59535026550293,23.595111072063446 55.59535026550293,23.595111072063446 55.88456392288208,23.247897624969482 55.88456392288208,23.247897624969482 56.617552042007446,22.69887924194336 56.617552042007446,22.69887924194336 57.453709840774536,22.41799533367157 57.453709840774536,22.41799533367157 58.32687020301819,22.4046990275383 58.32687020301819,22.4046990275383 59.17084813117981,22.65816628932953 59.17084813117981,22.65816628932953 59.91940498352051,23.17781299352646 59.91940498352051,23.17781299352646 74.95244145393372,37.79410421848297 74.95244145393372,37.79410421848297 75.25616884231567,38.13873529434204 75.25616884231567,38.13873529434204 75.49821734428406,38.52337598800659 75.49821734428406,38.52337598800659 75.67534446716309,38.940635323524475 75.67534446716309,38.940635323524475 75.78406929969788,39.38288390636444 75.78406929969788,39.38288390636444 75.82098841667175,39.84281122684479 75.82098841667175,39.84281122684479 75.78398585319519,40.296560525894165 75.78398585319519,40.296560525894165 75.67526698112488,40.73481857776642 75.67526698112488,40.73481857776642 75.49825310707092,41.149771213531494 75.49825310707092,41.149771213531494 75.25616884231567,41.533395648002625 75.25616884231567,41.533395648002625 74.95244145393372,41.87775254249573 74.95244145393372,41.87775254249573 59.91940498352051,56.496548652648926 59.91940498352051,56.496548652648926 59.17084813117981,57.02100396156311 59.17084813117981,57.02100396156311 58.32687020301819,57.275450229644775 58.32687020301819,57.275450229644775 57.453709840774536,57.26187825202942 57.453709840774536,57.26187825202942 56.617552042007446,56.98201060295105 56.617552042007446,56.98201060295105 55.88456392288208,56.43772482872009 55.88456392288208,56.43772482872009 55.36245107650757,55.69190979003906 55.36245107650757,55.69190979003906 55.10823726654053,54.84843850135803 55.10823726654053,54.84843850135803 55.121344327926636,53.97559404373169 55.121344327926636,53.97559404373169 55.40120601654053,53.141385316848755 55.40120601654053,53.141385316848755 55.947136878967285,52.414149045944214 55.947136878967285,52.414149045944214 68.10672879219055,40.59121012687683 68.10672879219055,40.59121012687683 68.21834444999695,40.462931990623474 68.21834444999695,40.462931990623474 68.30642223358154,40.32147228717804 68.30642223358154,40.32147228717804 68.37021112442017,40.16937613487244 68.37021112442017,40.16937613487244 68.40900778770447,40.00898897647858 68.40900778770447,40.00898897647858 68.4221088886261,39.84281122684479 68.4221088886261,39.84281122684479 68.40900778770447,39.67057466506958 68.40900778770447,39.67057466506958 68.37016940116882,39.50693905353546 68.37016940116882,39.50693905353546 68.30645799636841,39.35464918613434 68.30645799636841,39.35464918613434 68.21834444999695,39.216238260269165 68.21834444999695,39.216238260269165 68.10672879219055,39.094412326812744 68.10672879219055,39.094412326812744 55.93712329864502,27.270224690437317 55.93712329864502,27.270224690437317 55.629920959472656,26.911944150924683 55.629920959472656,26.911944150924683 55.390334129333496,26.520106196403503 55.390334129333496,26.520106196403503 55.21880388259888,26.103198528289795 55.21880388259888,26.103198528289795 55.11559247970581,25.669553875923157 55.11559247970581,25.669553875923157" stroke="white" stroke-width="0.1" /><polygon points="22.51952439546585,23.64337295293808 22.51952439546585,23.64337295293808 23.848266899585724,23.667386174201965 23.848266899585724,23.667386174201965 25.136569142341614,23.875096440315247 25.136569142341614,23.875096440315247 26.369690895080566,24.253831803798676 26.369690895080566,24.253831803798676 27.53296196460724,24.79068636894226 27.53296196460724,24.79068636894226 28.611835837364197,25.47306716442108 28.611835837364197,25.47306716442108 21.31057232618332,32.574090361595154 21.31057232618332,32.574090361595154 20.37554532289505,33.63426923751831 20.37554532289505,33.63426923751831 19.627341628074646,34.82804298400879 19.627341628074646,34.82804298400879 19.078636169433594,36.1260861158371 19.078636169433594,36.1260861158371 18.741904199123383,37.499138712882996 18.741904199123383,37.499138712882996 18.629856407642365,38.9179527759552 18.629856407642365,38.9179527759552 18.651209771633148,39.51933681964874 18.651209771633148,39.51933681964874 18.714332580566406,40.113565325737 18.714332580566406,40.113565325737 18.81750375032425,40.699270367622375 18.81750375032425,40.699270367622375 18.959274888038635,41.27488136291504 18.959274888038635,41.27488136291504 19.137965142726898,41.838955879211426 19.137965142726898,41.838955879211426 17.287854850292206,40.71917533874512 17.287854850292206,40.71917533874512 15.731924772262573,39.22676146030426 15.731924772262573,39.22676146030426 14.537444710731506,37.42741346359253 14.537444710731506,37.42741346359253 13.771486282348633,35.386526584625244 13.771486282348633,35.386526584625244 13.501201570034027,33.16980302333832 13.501201570034027,33.16980302333832 13.959485292434692,30.286186933517456 13.959485292434692,30.286186933517456 15.236799418926239,27.73590087890625 15.236799418926239,27.73590087890625 17.18687415122986,25.674793124198914 17.18687415122986,25.674793124198914 19.663166999816895,24.258719384670258 19.663166999816895,24.258719384670258" stroke="white" stroke-width="0.1" /><polygon points="99.88486170768738,26.952344179153442 99.88486170768738,26.952344179153442 99.99769330024719,27.415946125984192 99.99769330024719,27.415946125984192 99.95971918106079,28.098249435424805 99.95971918106079,28.098249435424805 99.83714818954468,28.855213522911072 99.83714818954468,28.855213522911072 99.69584941864014,29.54283356666565 99.69584941864014,29.54283356666565 99.6020257472992,30.017271637916565 99.6020257472992,30.017271637916565 99.43287372589111,31.203696131706238 99.43287372589111,31.203696131706238 99.22969937324524,32.432395219802856 99.22969937324524,32.432395219802856 98.93098473548889,33.64298939704895 98.93098473548889,33.64298939704895 98.47484827041626,34.77497398853302 98.47484827041626,34.77497398853302 97.79986143112183,35.767921805381775 97.79986143112183,35.767921805381775 96.77410125732422,36.63990497589111 96.77410125732422,36.63990497589111 95.62459588050842,37.188103795051575 95.62459588050842,37.188103795051575 94.38717365264893,37.50297129154205 94.38717365264893,37.50297129154205 93.0971086025238,37.67482042312622 93.0971086025238,37.67482042312622 91.79015159606934,37.79410421848297 91.79015159606934,37.79410421848297 92.51297116279602,32.25049674510956 92.51297116279602,32.25049674510956 91.09384417533875,27.081051468849182 91.09384417533875,27.081051468849182 87.92293071746826,22.805726528167725 87.92293071746826,22.805726528167725 83.3902657032013,19.944246113300323 83.3902657032013,19.944246113300323 77.88596153259277,19.01656985282898 77.88596153259277,19.01656985282898 75.9162187576294,19.230733811855316 75.9162187576294,19.230733811855316 74.05233979225159,19.71154510974884 74.05233979225159,19.71154510974884 72.30708003044128,20.434795320034027 72.30708003044128,20.434795320034027 70.69307565689087,21.37635499238968 70.69307565689087,21.37635499238968 69.22307014465332,22.51201421022415 69.22307014465332,22.51201421022415 64.53744769096375,17.955297231674194 64.53744769096375,17.955297231674194 63.44965696334839,17.05969125032425 63.44965696334839,17.05969125032425 62.26378083229065,16.359826922416687 62.26378083229065,16.359826922416687 61.005592346191406,15.85797518491745 61.005592346191406,15.85797518491745 59.70078110694885,15.556363761425018 59.70078110694885,15.556363761425018 58.37504863739014,15.4572993516922 58.37504863739014,15.4572993516922 57.00559616088867,15.56195616722107 57.00559616088867,15.56195616722107 55.64607381820679,15.888284146785736 55.64607381820679,15.888284146785736 54.33356165885925,16.43456518650055 54.33356165885925,16.43456518650055 53.104978799819946,17.198841273784637 53.104978799819946,17.198841273784637 51.99739933013916,18.179315328598022 51.99739933013916,18.179315328598022 51.623982191085815,18.586991727352142 51.623982191085815,18.586991727352142 51.281654834747314,19.012972712516785 51.281654834747314,19.012972712516785 50.96999406814575,19.456003606319427 50.96999406814575,19.456003606319427 50.6888747215271,19.914443790912628 50.6888747215271,19.914443790912628 50.43802857398987,20.386964082717896 50.43802857398987,20.386964082717896 50.183069705963135,19.90654468536377 50.183069705963135,19.90654468536377 49.89608824253082,19.439616799354553 49.89608824253082,19.439616799354553 49.577346444129944,18.98805946111679 49.577346444129944,18.98805946111679 49.227237701416016,18.553553521633148 49.227237701416016,18.553553521633148 48.84611666202545,18.138015270233154 48.84611666202545,18.138015270233154 47.75519669055939,17.1803817152977 47.75519669055939,17.1803817152977 46.541592478752136,16.429403424263 46.541592478752136,16.429403424263 45.23948431015015,15.88914543390274 45.23948431015015,15.88914543390274 43.88289451599121,15.563715994358063 43.88289451599121,15.563715994358063 42.506006360054016,15.4572993516922 42.506006360054016,15.4572993516922 41.18833243846893,15.555189549922943 41.18833243846893,15.555189549922943 39.88567590713501,15.854103863239288 39.88567590713501,15.854103863239288 38.62690031528473,16.353100538253784 38.62690031528473,16.353100538253784 37.44078874588013,17.050929367542267 37.44078874588013,17.050929367542267 36.35612726211548,17.946535348892212 36.35612726211548,17.946535348892212 31.95084035396576,22.230426967144012 31.95084035396576,22.230426967144012 30.674856901168823,21.2846040725708 30.674856901168823,21.2846040725708 29.29159700870514,20.482783019542694 29.29159700870514,20.482783019542694 27.8097003698349,19.839510321617126 27.8097003698349,19.839510321617126 26.237773895263672,19.369298219680786 26.237773895263672,19.369298219680786 24.58450198173523,19.086654484272003 24.58450198173523,19.086654484272003 19.486430287361145,19.484631717205048 19.486430287361145,19.484631717205048 15.015754103660583,21.58883661031723 15.015754103660583,21.58883661031723 11.53075098991394,25.044193863868713 11.53075098991394,25.044193863868713 9.389666467905045,29.495158791542053 9.389666467905045,29.495158791542053 8.950740844011307,34.586504101753235 8.950740844011307,34.586504101753235 7.864593714475632,34.02825593948364 7.864593714475632,34.02825593948364 6.776413321495056,33.472707867622375 6.776413321495056,33.472707867622375 5.684125795960426,32.925212383270264 5.684125795960426,32.925212383270264 4.585776478052139,32.39074349403381 4.585776478052139,32.39074349403381 3.4791748970746994,31.87449872493744 3.4791748970746994,31.87449872493744 3.020734339952469,31.69647455215454 3.020734339952469,31.69647455215454 2.5283465161919594,31.52603507041931 2.5283465161919594,31.52603507041931 2.0466748625040054,31.32767081260681 2.0466748625040054,31.32767081260681 1.620342954993248,31.065639853477478 1.620342954993248,31.065639853477478 1.294052880257368,30.704346299171448 1.294052880257368,30.704346299171448 0.6979469209909439,29.393163323402405 0.6979469209909439,29.393163323402405 0.3407213604077697,27.92104482650757 0.3407213604077697,27.92104482650757 0.1527614425867796,26.373913884162903 0.1527614425867796,26.373913884162903 0.06410036003217101,24.8371884226799 0.06410036003217101,24.8371884226799 0.005006007268093526,23.396825790405273 0.005006007268093526,23.396825790405273 0.12209964916110039,22.436416149139404 0.12209964916110039,22.436416149139404 0.5020868964493275,21.732954680919647 0.5020868964493275,21.732954680919647 1.0257622227072716,21.15394026041031 1.0257622227072716,21.15394026041031 1.5739589929580688,20.56678980588913 1.5739589929580688,20.56678980588913 2.02743299305439,19.838806986808777 2.02743299305439,19.838806986808777 2.2552061825990677,19.136518239974976 2.2552061825990677,19.136518239974976 2.391228824853897,18.379555642604828 2.391228824853897,18.379555642604828 2.4704646319150925,17.599205672740936 2.4704646319150925,17.599205672740936 2.5277599692344666,16.826637089252472 2.5277599692344666,16.826637089252472 2.5981178507208824,16.093061864376068 2.5981178507208824,16.093061864376068 2.753499522805214,14.780783653259277 2.753499522805214,14.780783653259277 3.0110351741313934,13.222937285900116 3.0110351741313934,13.222937285900116 3.4721743315458298,11.715112626552582 3.4721743315458298,11.715112626552582 4.238484799861908,10.552545636892319 4.238484799861908,10.552545636892319 5.41149377822876,10.030786693096161 5.41149377822876,10.030786693096161 7.346002757549286,9.933248162269592 7.346002757549286,9.933248162269592 9.261739253997803,9.84947606921196 9.261739253997803,9.84947606921196 11.143645644187927,9.669220447540283 11.143645644187927,9.669220447540283 12.97650933265686,9.282076358795166 12.97650933265686,9.282076358795166 14.745193719863892,8.577793091535568 14.745193719863892,8.577793091535568 16.784751415252686,7.5050219893455505 16.784751415252686,7.5050219893455505 18.830879032611847,6.425914168357849 18.830879032611847,6.425914168357849 20.89327573776245,5.37535659968853 20.89327573776245,5.37535659968853 22.98148423433304,4.388156533241272 22.98148423433304,4.388156533241272 25.105127692222595,3.499199077486992 25.105127692222595,3.499199077486992 27.61024236679077,2.6233041658997536 27.61024236679077,2.6233041658997536 30.164438486099243,1.8977852538228035 30.164438486099243,1.8977852538228035 32.755714654922485,1.3106743805110455 32.755714654922485,1.3106743805110455 35.37178337574005,0.8498088456690311 35.37178337574005,0.8498088456690311 38.00060153007507,0.5031037144362926 38.00060153007507,0.5031037144362926 40.57888984680176,0.24099231231957674 40.57888984680176,0.24099231231957674 43.22448670864105,0.05584826576523483 43.22448670864105,0.05584826576523483 45.89049816131592,0.0023856753614381887 45.89049816131592,0.0023856753614381887 48.530033230781555,0.1353186322376132 48.530033230781555,0.1353186322376132 51.09631419181824,0.5093612242490053 51.09631419181824,0.5093612242490053 53.055816888809204,1.0220859199762344 53.055816888809204,1.0220859199762344 54.96220588684082,1.7261339351534843 54.96220588684082,1.7261339351534843 56.813567876815796,2.582082897424698 56.813567876815796,2.582082897424698 58.60759615898132,3.550393506884575 58.60759615898132,3.550393506884575 60.34241318702698,4.591760039329529 60.34241318702698,4.591760039329529 62.04265356063843,5.695271864533424 62.04265356063843,5.695271864533424 63.70503902435303,6.8559616804122925 63.70503902435303,6.8559616804122925 65.33082127571106,8.068236708641052 65.33082127571106,8.068236708641052 66.92112684249878,9.326543658971786 66.92112684249878,9.326543658971786 68.4771716594696,10.62525063753128 68.4771716594696,10.62525063753128 69.15580034255981,11.220339685678482 69.15580034255981,11.220339685678482 69.7058379650116,11.680149286985397 69.7058379650116,11.680149286985397 70.24155855178833,12.021379172801971 70.24155855178833,12.021379172801971 70.8768904209137,12.26072832942009 70.8768904209137,12.26072832942009 71.72607183456421,12.414897978305817 71.72607183456421,12.414897978305817 76.70853734016418,13.02899420261383 76.70853734016418,13.02899420261383 81.73957467079163,13.797612488269806 81.73957467079163,13.797612488269806 86.73126697540283,14.83350396156311 86.73126697540283,14.83350396156311 91.59589409828186,16.249382495880127 91.59589409828186,16.249382495880127 96.24549746513367,18.158039450645447 96.24549746513367,18.158039450645447 96.74062132835388,18.39754581451416 96.74062132835388,18.39754581451416 97.46007919311523,18.782539665699005 97.46007919311523,18.782539665699005 98.12896847724915,19.24528181552887 98.12896847724915,19.24528181552887 98.47238659858704,19.717997312545776 98.47238659858704,19.717997312545776 98.2153594493866,20.13290971517563 98.2153594493866,20.13290971517563 98.06877970695496,20.41981667280197 98.06877970695496,20.41981667280197 97.97385931015015,20.973919332027435 97.97385931015015,20.973919332027435 97.9162871837616,21.630722284317017 97.9162871837616,21.630722284317017 97.88132309913635,22.22542017698288 97.88132309913635,22.22542017698288 97.85492420196533,22.593362629413605 97.85492420196533,22.593362629413605 97.76204228401184,23.289431631565094 97.76204228401184,23.289431631565094 97.66942858695984,23.985697329044342 97.66942858695984,23.985697329044342 97.57670164108276,24.682196974754333 97.57670164108276,24.682196974754333 97.4834680557251,25.379011034965515 97.4834680557251,25.379011034965515 97.38937020301819,26.076292991638184 97.38937020301819,26.076292991638184 97.61549830436707,26.246926188468933 97.61549830436707,26.246926188468933 98.19462895393372,26.422330737113953 98.19462895393372,26.422330737113953 98.91025424003601,26.60004496574402 98.91025424003601,26.60004496574402 99.54578280448914,26.77752375602722 99.54578280448914,26.77752375602722" stroke="white" stroke-width="0.1" /><polygon points="27.941030263900757,10.75040027499199 27.941030263900757,10.75040027499199 29.283499717712402,10.7878677546978 29.283499717712402,10.7878677546978 30.742478370666504,10.756579786539078 30.742478370666504,10.756579786539078 32.046738266944885,10.470455139875412 32.046738266944885,10.470455139875412 32.925331592559814,9.743254631757736 32.925331592559814,9.743254631757736 33.10723006725311,8.388816565275192 33.10723006725311,8.388816565275192 32.954466342926025,7.58378803730011 32.954466342926025,7.58378803730011 32.738739252090454,6.779620051383972 32.738739252090454,6.779620051383972 32.46806263923645,5.986754596233368 32.46806263923645,5.986754596233368 32.150182127952576,5.215633660554886 32.150182127952576,5.215633660554886 31.793153285980225,4.476622119545937 31.793153285980225,4.476622119545937 31.476053595542908,4.222254082560539 31.476053595542908,4.222254082560539 30.98585605621338,4.161634668707848 30.98585605621338,4.161634668707848 30.423930287361145,4.224639758467674 30.423930287361145,4.224639758467674 29.891613125801086,4.340912401676178 29.891613125801086,4.340912401676178 29.490387439727783,4.440328478813171 29.490387439727783,4.440328478813171 27.936962246894836,4.821762815117836 27.936962246894836,4.821762815117836 26.169919967651367,5.384703725576401 26.169919967651367,5.384703725576401 24.43823218345642,6.165093556046486 24.43823218345642,6.165093556046486 22.990792989730835,7.198716700077057 22.990792989730835,7.198716700077057 22.07649201154709,8.52147564291954 22.07649201154709,8.52147564291954 22.255808115005493,9.615210443735123 22.255808115005493,9.615210443735123 23.46714586019516,10.274360328912735 23.46714586019516,10.274360328912735 25.175365805625916,10.609567910432816 25.175365805625916,10.609567910432816 26.84502601623535,10.731354355812073 26.84502601623535,10.731354355812073" stroke="white" stroke-width="0.1" /><polygon points="58.45764875411987,9.351221472024918 58.45764875411987,9.351221472024918 58.903223276138306,9.294942766427994 58.903223276138306,9.294942766427994 59.153056144714355,9.140617400407791 59.153056144714355,9.140617400407791 59.23498868942261,8.910106122493744 59.23498868942261,8.910106122493744 59.1766357421875,8.62511619925499 59.1766357421875,8.62511619925499 59.00580883026123,8.307468891143799 59.00580883026123,8.307468891143799 57.964909076690674,7.0820920169353485 57.964909076690674,7.0820920169353485 56.69389367103577,6.0787007212638855 56.69389367103577,6.0787007212638855 55.27125000953674,5.253765359520912 55.27125000953674,5.253765359520912 53.775471448898315,4.563562199473381 53.775471448898315,4.563562199473381 52.28524208068848,3.9647579193115234 52.28524208068848,3.9647579193115234 50.646013021469116,3.435998409986496 50.646013021469116,3.435998409986496 48.97459149360657,3.0909357592463493 48.97459149360657,3.0909357592463493 47.2790390253067,2.899182215332985 47.2790390253067,2.899182215332985 45.56737542152405,2.830154076218605 45.56737542152405,2.830154076218605 43.847617506980896,2.8534241020679474 43.847617506980896,2.8534241020679474 42.5683468580246,2.8833819553256035 42.5683468580246,2.8833819553256035 41.053757071495056,2.979043684899807 41.053757071495056,2.979043684899807 39.53619301319122,3.2615311443805695 39.53619301319122,3.2615311443805695 38.247498869895935,3.8521617650985718 38.247498869895935,3.8521617650985718 37.41990327835083,4.872096702456474 37.41990327835083,4.872096702456474 37.17859983444214,6.125905737280846 37.17859983444214,6.125905737280846 37.302419543266296,7.527197152376175 37.302419543266296,7.527197152376175 37.666255235672,8.966658264398575 37.666255235672,8.966658264398575 38.14511001110077,10.334862768650055 38.14511001110077,10.334862768650055 38.6138379573822,11.522576957941055 38.6138379573822,11.522576957941055 38.82487118244171,11.833027750253677 38.82487118244171,11.833027750253677 39.11850452423096,11.983247101306915 39.11850452423096,11.983247101306915 39.47244584560394,12.029357254505157 39.47244584560394,12.029357254505157 39.864009618759155,12.027323246002197 39.864009618759155,12.027323246002197 40.27082622051239,12.033189833164215 40.27082622051239,12.033189833164215 41.7932003736496,12.129399180412292 41.7932003736496,12.129399180412292 43.31733286380768,12.215635180473328 43.31733286380768,12.215635180473328 44.84240412712097,12.292485684156418 44.84240412712097,12.292485684156418 46.367672085762024,12.360340356826782 46.367672085762024,12.360340356826782 47.89247214794159,12.41990402340889 47.89247214794159,12.41990402340889 49.13298487663269,12.464958429336548 49.13298487663269,12.464958429336548 50.3736138343811,12.505358457565308 50.3736138343811,12.505358457565308 51.61451697349548,12.541064620018005 51.61451697349548,12.541064620018005 52.855730056762695,12.571805715560913 52.855730056762695,12.571805715560913 54.09741997718811,12.597617506980896 54.09741997718811,12.597617506980896 54.81253266334534,12.610366940498352 54.81253266334534,12.610366940498352 55.52803874015808,12.62170821428299 55.52803874015808,12.62170821428299 56.243664026260376,12.631681561470032 56.243664026260376,12.631681561470032 56.959134340286255,12.640324234962463 56.959134340286255,12.640324234962463 57.674211263656616,12.647677958011627 57.674211263656616,12.647677958011627 57.70174264907837,12.556396424770355 57.70174264907837,12.556396424770355 57.70901441574097,12.408170849084854 57.70901441574097,12.408170849084854 57.70455598831177,12.24023550748825 57.70455598831177,12.24023550748825 57.696735858917236,12.089859694242477 57.696735858917236,12.089859694242477 57.69423246383667,11.994393169879913 57.69423246383667,11.994393169879913 57.709211111068726,11.542640626430511 57.709211111068726,11.542640626430511 57.75532126426697,10.865030437707901 57.75532126426697,10.865030437707901 57.87038207054138,10.148975998163223 57.87038207054138,10.148975998163223 58.09186100959778,9.581927955150604 58.09186100959778,9.581927955150604" stroke="white" stroke-width="0.1" /><polygon points="77.88096070289612,23.64337295293808 77.88096070289612,23.64337295293808 80.68369626998901,23.917685449123383 80.68369626998901,23.917685449123383 83.23007225990295,24.971958994865417 83.23007225990295,24.971958994865417 85.36916375160217,26.686984300613403 85.36916375160217,26.686984300613403 86.94961667060852,28.943288326263428 86.94961667060852,28.943288326263428 87.82038688659668,31.621697545051575 87.82038688659668,31.621697545051575 87.861567735672,34.32110846042633 87.861567735672,34.32110846042633 87.1615469455719,36.848241090774536 87.1615469455719,36.848241090774536 85.82322597503662,39.07556235790253 85.82322597503662,39.07556235790253 83.9494526386261,40.875497460365295 83.9494526386261,40.875497460365295 81.64297342300415,42.120546102523804 81.64297342300415,42.120546102523804 81.85666799545288,41.50777757167816 81.85666799545288,41.50777757167816 82.02749490737915,40.87858498096466 82.02749490737915,40.87858498096466 82.1528434753418,40.23562669754028 82.1528434753418,40.23562669754028 82.22988843917847,39.58117067813873 82.22988843917847,39.58117067813873 82.25620985031128,38.9179527759552 82.25620985031128,38.9179527759552 82.14287161827087,37.49687075614929 82.14287161827087,37.49687075614929 81.8047285079956,36.12319231033325 81.8047285079956,36.12319231033325 81.25371932983398,34.82440710067749 81.25371932983398,34.82440710067749 80.5016815662384,33.627620339393616 80.5016815662384,33.627620339393616 79.56047058105469,32.56032168865204 79.56047058105469,32.56032168865204 72.51952290534973,25.71335732936859 72.51952290534973,25.71335732936859 73.4584629535675,25.050216913223267 73.4584629535675,25.050216913223267 74.47304129600525,24.50065165758133 74.47304129600525,24.50065165758133 75.55441856384277,24.075765907764435 75.55441856384277,24.075765907764435 76.69336199760437,23.786357045173645 76.69336199760437,23.786357045173645" stroke="white" stroke-width="0.1" /></svg>