<?xml version="1.0" encoding="utf-8" ?>
<svg baseProfile="full" height="70.46290636062622" version="1.1" width="63.70016932487488" xmlns="http://www.w3.org/2000/svg" xmlns:ev="http://www.w3.org/2001/xml-events" xmlns:xlink="http://www.w3.org/1999/xlink"><defs><clipPath /></defs><polygon points="52.957916259765625,32.44085609912872 52.957916259765625,32.44085609912872 54.2152464389801,33.650681376457214 54.2152464389801,33.650681376457214 55.62883019447327,34.60035026073456 55.62883019447327,34.60035026073456 57.15842843055725,35.28469800949097 57.15842843055725,35.28469800949097 58.76381993293762,35.698431730270386 58.76381993293762,35.698431730270386 60.40486693382263,35.83642840385437 60.40486693382263,35.83642840385437 60.415709018707275,35.83642840385437 60.415709018707275,35.83642840385437 60.972219705581665,35.819658637046814 60.972219705581665,35.819658637046814 61.52873635292053,35.76982319355011 61.52873635292053,35.76982319355011 62.084025144577026,35.687804222106934 62.084025144577026,35.687804222106934 62.63655424118042,35.57423949241638 62.63655424118042,35.57423949241638 63.185280561447144,35.42993366718292 63.185280561447144,35.42993366718292 63.659435510635376,36.90516650676727 63.659435510635376,36.90516650676727 63.498109579086304,38.41562569141388 63.498109579086304,38.41562569141388 62.7794623374939,39.74943161010742 62.7794623374939,39.74943161010742 61.581408977508545,40.694695711135864 61.581408977508545,40.694695711135864 59.982115030288696,41.03953838348389 59.982115030288696,41.03953838348389 60.452717542648315,41.495656967163086 60.452717542648315,41.495656967163086 61.20976805686951,41.95491075515747 61.20976805686951,41.95491075515747 62.027156352996826,42.41454303264618 62.027156352996826,42.41454303264618 62.67881393432617,42.871806025505066 62.67881393432617,42.871806025505066 62.93867230415344,43.32402944564819 62.93867230415344,43.32402944564819 62.925928831100464,43.85484158992767 62.925928831100464,43.85484158992767 62.91360855102539,44.38438415527344 62.91360855102539,44.38438415527344 62.90145516395569,44.913291931152344 62.90145516395569,44.913291931152344 62.889134883880615,45.44215500354767 62.889134883880615,45.44215500354767 62.876343727111816,45.97165584564209 62.876343727111816,45.97165584564209 62.91648745536804,46.517372131347656 62.91648745536804,46.517372131347656 63.03428411483765,47.02171981334686 63.03428411483765,47.02171981334686 63.181936740875244,47.51230478286743 63.181936740875244,47.51230478286743 63.3114218711853,48.01665246486664 63.3114218711853,48.01665246486664 63.3749783039093,48.56237173080444 63.3749783039093,48.56237173080444 63.70016932487488,66.15809798240662 63.70016932487488,66.15809798240662 63.683485984802246,66.94673895835876 63.683485984802246,66.94673895835876 63.58042359352112,67.70395636558533 63.58042359352112,67.70395636558533 63.35545778274536,68.41638088226318 63.35545778274536,68.41638088226318 62.97276020050049,69.07079219818115 62.97276020050049,69.07079219818115 62.39668130874634,69.65394020080566 62.39668130874634,69.65394020080566 61.647552251815796,70.08965015411377 61.647552251815796,70.08965015411377 60.83401441574097,70.31957507133484 60.83401441574097,70.31957507133484 59.980207681655884,70.40595412254333 59.980207681655884,70.40595412254333 59.110063314437866,70.41086554527283 59.110063314437866,70.41086554527283 58.24774503707886,70.39646506309509 58.24774503707886,70.39646506309509 57.98724889755249,69.73837018013 57.98724889755249,69.73837018013 57.670652866363525,69.1002607345581 57.670652866363525,69.1002607345581 57.297950983047485,68.48671436309814 57.297950983047485,68.48671436309814 56.86884522438049,67.9019570350647 56.86884522438049,67.9019570350647 56.383293867111206,67.35047698020935 56.383293867111206,67.35047698020935 54.97412085533142,65.8871054649353 54.97412085533142,65.8871054649353 54.957860708236694,65.8871054649353 54.957860708236694,65.8871054649353 37.86347210407257,48.30492436885834 37.86347210407257,48.30492436885834 36.85930669307709,47.41995632648468 36.85930669307709,47.41995632648468 35.73031723499298,46.70884609222412 35.73031723499298,46.70884609222412 34.502241015434265,46.18459641933441 34.502241015434265,46.18459641933441 33.200278878211975,45.86041867733002 33.200278878211975,45.86041867733002 31.85008466243744,45.74943780899048 31.85008466243744,45.74943780899048 30.500528216362,45.86012363433838 30.500528216362,45.86012363433838 29.197168350219727,46.18472456932068 29.197168350219727,46.18472456932068 27.96536684036255,46.71235978603363 27.96536684036255,46.71235978603363 26.83040499687195,47.431811690330505 26.83040499687195,47.431811690330505 25.81772804260254,48.33202362060547 25.81772804260254,48.33202362060547 7.343974709510803,67.32879877090454 7.343974709510803,67.32879877090454 6.841108947992325,67.89501309394836 6.841108947992325,67.89501309394836 6.398878246545792,68.49704384803772 6.398878246545792,68.49704384803772 6.016859412193298,69.12935376167297 6.016859412193298,69.12935376167297 5.69429025053978,69.78604793548584 5.69429025053978,69.78604793548584 5.4307471960783005,70.461505651474 5.4307471960783005,70.461505651474 4.969716444611549,70.46290636062622 4.969716444611549,70.46290636062622 4.510463774204254,70.45828700065613 4.510463774204254,70.45828700065613 4.053667187690735,70.44431567192078 4.053667187690735,70.44431567192078 3.5996228456497192,70.41763663291931 3.5996228456497192,70.41763663291931 3.148966282606125,70.37478685379028 3.148966282606125,70.37478685379028 1.2099096551537514,69.45793628692627 1.2099096551537514,69.45793628692627 0.2679890254512429,67.59788990020752 0.2679890254512429,67.59788990020752 0.0017360640413244255,65.23290276527405 0.0017360640413244255,65.23290276527405 0.08997893310151994,62.801146507263184 0.08997893310151994,62.801146507263184 0.21137639414519072,60.74090003967285 0.21137639414519072,60.74090003967285 0.25634467601776123,58.36503505706787 0.25634467601776123,58.36503505706787 0.30055081006139517,55.988699197769165 0.30055081006139517,55.988699197769165 0.34446052741259336,53.61194610595703 0.34446052741259336,53.61194610595703 0.38866663817316294,51.23493671417236 0.38866663817316294,51.23493671417236 0.4335925914347172,48.85775446891785 0.4335925914347172,48.85775446891785 0.49448185600340366,48.41289818286896 0.49448185600340366,48.41289818286896 0.6272695958614349,47.97016084194183 0.6272695958614349,47.97016084194183 0.7817369885742664,47.53546714782715 0.7817369885742664,47.53546714782715 0.907368678599596,47.11483120918274 0.907368678599596,47.11483120918274 0.9539037011563778,46.71418070793152 0.9539037011563778,46.71418070793152 0.9395917877554893,46.137258410453796 0.9395917877554893,46.137258410453796 0.9257456287741661,45.56088447570801 0.9257456287741661,45.56088447570801 0.9123652242124081,44.98489201068878 0.9123652242124081,44.98489201068878 0.8992388844490051,44.40911114215851 0.8992388844490051,44.40911114215851 0.8861548267304897,43.833500146865845 0.8861548267304897,43.833500146865845 1.1142143979668617,43.07594299316406 1.1142143979668617,43.07594299316406 1.7136646434664726,42.5417423248291 1.7136646434664726,42.5417423248291 2.493961900472641,42.10692048072815 2.493961900472641,42.10692048072815 3.264477849006653,41.647499799728394 3.264477849006653,41.647499799728394 3.834584355354309,41.03953838348389 3.834584355354309,41.03953838348389 2.492479979991913,40.80246090888977 2.492479979991913,40.80246090888977 1.3798321597278118,40.121668577194214 1.3798321597278118,40.121668577194214 0.5745948757976294,39.106324315071106 0.5745948757976294,39.106324315071106 0.1545943901874125,37.865591049194336 0.1545943901874125,37.865591049194336 0.19782662857323885,36.50849759578705 0.19782662857323885,36.50849759578705 0.6844326853752136,35.3033721446991 0.6844326853752136,35.3033721446991 1.4747229404747486,34.47763919830322 1.4747229404747486,34.47763919830322 2.49150600284338,33.96732211112976 2.49150600284338,33.96732211112976 3.657039999961853,33.70809853076935 3.657039999961853,33.70809853076935 4.894176498055458,33.6359441280365 4.894176498055458,33.6359441280365 5.461742356419563,33.63446295261383 5.461742356419563,33.63446295261383 6.022363901138306,33.64754617214203 6.022363901138306,33.64754617214203 6.574729084968567,33.701491355895996 6.574729084968567,33.701491355895996 7.117735594511032,33.822593092918396 7.117735594511032,33.822593092918396 7.65019953250885,34.037017822265625 7.65019953250885,34.037017822265625 7.926614582538605,33.53322148323059 7.926614582538605,33.53322148323059 8.20319950580597,33.02967846393585 8.20319950580597,33.02967846393585 8.480080217123032,32.52604901790619 8.480080217123032,32.52604901790619 8.757299929857254,32.02182948589325 8.757299929857254,32.02182948589325 9.034985303878784,31.51676058769226 9.034985303878784,31.51676058769226 10.98073273897171,33.76602232456207 10.98073273897171,33.76602232456207 10.99047139286995,33.7778776884079 10.99047139286995,33.7778776884079 11.000210046768188,33.7880402803421 11.000210046768188,33.7880402803421 11.010076105594635,33.79744291305542 11.010076105594635,33.79744291305542 11.019772291183472,33.80696773529053 11.019772291183472,33.80696773529053 11.02951169013977,33.817511796951294 11.02951169013977,33.817511796951294 10.781720280647278,34.4655305147171 10.781720280647278,34.4655305147171 10.578770190477371,35.120025277137756 10.578770190477371,35.120025277137756 10.426631569862366,35.778459906578064 10.426631569862366,35.778459906578064 10.331021249294281,36.43816411495209 10.331021249294281,36.43816411495209 10.297823697328568,37.09655702114105 10.297823697328568,37.09655702114105 10.489553213119507,37.066322565078735 10.489553213119507,37.066322565078735 11.061438173055649,36.983585357666016 11.061438173055649,36.983585357666016 12.008821219205856,36.86006963253021 12.008821219205856,36.86006963253021 13.326747715473175,36.707720160484314 13.326747715473175,36.707720160484314 15.01043289899826,36.53830587863922 15.01043289899826,36.53830587863922 15.675388276576996,36.759209632873535 15.675388276576996,36.759209632873535 16.35126769542694,36.93332374095917 16.35126769542694,36.93332374095917 17.03578531742096,37.05929517745972 17.03578531742096,37.05929517745972 17.72606074810028,37.13580667972565 17.72606074810028,37.13580667972565 18.419554829597473,37.16159462928772 18.419554829597473,37.16159462928772 18.430395424365997,37.16159462928772 18.430395424365997,37.16159462928772 18.43852549791336,37.16159462928772 18.43852549791336,37.16159462928772 18.449364602565765,37.16159462928772 18.449364602565765,37.16159462928772 19.38929557800293,37.11522817611694 19.38929557800293,37.11522817611694 20.32461017370224,36.97659969329834 20.32461017370224,36.97659969329834 21.248365938663483,36.74663305282593 21.248365938663483,36.74663305282593 22.153109312057495,36.4259272813797 22.153109312057495,36.4259272813797 23.031896352767944,36.015284061431885 23.031896352767944,36.015284061431885 24.61603432893753,35.955071449279785 24.61603432893753,35.955071449279785 26.289260387420654,35.90548932552338 26.289260387420654,35.90548932552338 28.052297234535217,35.8681857585907 28.052297234535217,35.8681857585907 29.90565299987793,35.84464192390442 29.90565299987793,35.84464192390442 31.85008466243744,35.83642840385437 31.85008466243744,35.83642840385437 39.52145576477051,35.96747815608978 39.52145576477051,35.96747815608978 45.545175671577454,36.27997040748596 45.545175671577454,36.27997040748596 49.88846778869629,36.65301203727722 49.88846778869629,36.65301203727722 52.518391609191895,36.965546011924744 52.518391609191895,36.965546011924744 53.40234637260437,37.09655702114105 53.40234637260437,37.09655702114105 53.10781002044678,35.062989592552185 53.10781002044678,35.062989592552185 52.33250856399536,33.07303786277771 52.33250856399536,33.07303786277771 51.23891234397888,31.2099426984787 51.23891234397888,31.2099426984787 49.98945593833923,29.556849598884583 49.98945593833923,29.556849598884583 48.74664843082428,28.197067975997925 48.74664843082428,28.197067975997925 47.58034944534302,27.723228931427002 47.58034944534302,27.723228931427002 45.27396857738495,27.336424589157104 45.27396857738495,27.336424589157104 42.07465648651123,27.052155137062073 42.07465648651123,27.052155137062073 38.22948634624481,26.885810494422913 38.22948634624481,26.885810494422913 33.985528349876404,26.852932572364807 33.985528349876404,26.852932572364807 34.41234827041626,26.436826586723328 34.41234827041626,26.436826586723328 34.8109632730484,26.001963019371033 34.8109632730484,26.001963019371033 35.18044948577881,25.549188256263733 35.18044948577881,25.549188256263733 35.51982939243317,25.07922351360321 35.51982939243317,25.07922351360321 35.82829833030701,24.59283024072647 35.82829833030701,24.59283024072647 38.029712438583374,24.655073881149292 38.029712438583374,24.655073881149292 40.22892415523529,24.75580871105194 40.22892415523529,24.75580871105194 42.42309629917145,24.897827208042145 42.42309629917145,24.897827208042145 44.60926651954651,25.08375346660614 44.60926651954651,25.08375346660614 46.78463935852051,25.31638741493225 46.78463935852051,25.31638741493225" stroke="white" stroke-width="0.1" /><polygon points="11.75035908818245,49.97425675392151 11.75035908818245,49.97425675392151 11.75035908818245,43.08284521102905 11.75035908818245,43.08284521102905 4.680090025067329,43.08284521102905 4.680090025067329,43.08284521102905 4.680090025067329,49.97425675392151 4.680090025067329,49.97425675392151" stroke="white" stroke-width="0.1" /><polygon points="16.343730688095093,49.97425675392151 16.343730688095093,49.97425675392151 16.343730688095093,43.08013319969177 16.343730688095093,43.08013319969177 13.869543373584747,43.08013319969177 13.869543373584747,43.08013319969177 13.869543373584747,49.97425675392151 13.869543373584747,49.97425675392151" stroke="white" stroke-width="0.1" /><polygon points="31.85008466243744,42.80913770198822 31.85008466243744,42.80913770198822 32.868605852127075,42.47826933860779 32.868605852127075,42.47826933860779 33.377864956855774,41.689249873161316 33.377864956855774,41.689249873161316 33.37790668010712,40.747541189193726 33.37790668010712,40.747541189193726 32.868605852127075,39.95852172374725 32.868605852127075,39.95852172374725 31.85008466243744,39.62765336036682 31.85008466243744,39.62765336036682 30.83156645298004,39.95852172374725 30.83156645298004,39.95852172374725 30.322349071502686,40.747541189193726 30.322349071502686,40.747541189193726 30.32239079475403,41.68929159641266 30.32239079475403,41.68929159641266 30.83156645298004,42.47826933860779 30.83156645298004,42.47826933860779" stroke="white" stroke-width="0.1" /><polygon points="49.83333945274353,49.97425675392151 49.83333945274353,49.97425675392151 49.83333945274353,43.08013319969177 49.83333945274353,43.08013319969177 47.359150648117065,43.08013319969177 47.359150648117065,43.08013319969177 47.359150648117065,49.97425675392151 47.359150648117065,49.97425675392151" stroke="white" stroke-width="0.1" /><polygon points="59.02279019355774,49.97425675392151 59.02279019355774,49.97425675392151 59.02279019355774,43.08284521102905 59.02279019355774,43.08284521102905 51.95252299308777,43.08284521102905 51.95252299308777,43.08284521102905 51.95252299308777,49.97425675392151 51.95252299308777,49.97425675392151" stroke="white" stroke-width="0.1" /></svg>