<?xml version="1.0" encoding="utf-8" ?>
<svg baseProfile="full" height="49.248284101486206" version="1.1" width="49.02634918689728" xmlns="http://www.w3.org/2000/svg" xmlns:ev="http://www.w3.org/2001/xml-events" xmlns:xlink="http://www.w3.org/1999/xlink"><defs><clipPath /></defs><polygon points="39.86254632472992,30.92067837715149 39.86254632472992,30.92067837715149 42.759233713150024,31.387817859649658 42.759233713150024,31.387817859649658 45.274803042411804,32.68855810165405 45.274803042411804,32.68855810165405 47.25852310657501,34.67233180999756 47.25852310657501,34.67233180999756 48.55920970439911,37.18790411949158 48.55920970439911,37.18790411949158 49.02634918689728,40.08448123931885 49.02634918689728,40.08448123931885 48.55920970439911,42.98116862773895 48.55920970439911,42.98116862773895 47.25841283798218,45.49674093723297 47.25841283798218,45.49674093723297 45.27485966682434,47.48040437698364 45.27485966682434,47.48040437698364 42.759233713150024,48.78114461898804 42.759233713150024,48.78114461898804 39.86254632472992,49.248284101486206 39.86254632472992,49.248284101486206 36.965855956077576,48.78114461898804 36.965855956077576,48.78114461898804 34.450286626815796,47.48040437698364 34.450286626815796,47.48040437698364 32.46673345565796,45.496851205825806 32.46673345565796,45.496851205825806 31.165936589241028,42.981281876564026 31.165936589241028,42.981281876564026 30.698740482330322,40.08448123931885 30.698740482330322,40.08448123931885 31.16587996482849,37.18779385089874 31.16587996482849,37.18779385089874 32.46667683124542,34.672221541404724 32.46667683124542,34.672221541404724 34.450340270996094,32.68878161907196 34.450340270996094,32.68878161907196 36.96591258049011,31.387817859649658 36.96591258049011,31.387817859649658" stroke="white" stroke-width="0.1" /></svg>