<?xml version="1.0" encoding="utf-8" ?>
<svg baseProfile="full" height="63.197678327560425" version="1.1" width="100.0" xmlns="http://www.w3.org/2000/svg" xmlns:ev="http://www.w3.org/2001/xml-events" xmlns:xlink="http://www.w3.org/1999/xlink"><defs><clipPath /></defs><polygon points="37.78254687786102,54.3025016784668 37.78254687786102,54.3025016784668 37.59795427322388,57.023513317108154 37.59795427322388,57.023513317108154 36.54617965221405,59.4539999961853 36.54617965221405,59.4539999961853 34.78887677192688,61.41349673271179 34.78887677192688,61.41349673271179 32.48762488365173,62.72155046463013 32.48762488365173,62.72155046463013 29.804199934005737,63.197678327560425 29.804199934005737,63.197678327560425 27.29664146900177,62.78237700462341 27.29664146900177,62.78237700462341 25.098031759262085,61.630892753601074 25.098031759262085,61.630892753601074 23.35086166858673,59.88481044769287 23.35086166858673,59.88481044769287 22.197969257831573,57.68578052520752 22.197969257831573,57.68578052520752 21.781961619853973,55.17544150352478 21.781961619853973,55.17544150352478 22.167299687862396,52.749454975128174 22.167299687862396,52.749454975128174 23.2411727309227,50.603652000427246 23.2411727309227,50.603652000427246 24.880443513393402,48.86956810951233 24.880443513393402,48.86956810951233 26.962050795555115,47.67884314060211 26.962050795555115,47.67884314060211 29.36285436153412,47.16295599937439 29.36285436153412,47.16295599937439 31.808272004127502,47.41531014442444 31.808272004127502,47.41531014442444 34.01099741458893,48.37059676647186 34.01099741458893,48.37059676647186 35.832878947257996,49.913665652275085 35.832878947257996,49.913665652275085 37.136074900627136,51.92936062812805 37.136074900627136,51.92936062812805" stroke="white" stroke-width="0.1" /><polygon points="83.70680809020996,24.846991896629333 83.70680809020996,24.846991896629333 84.5373809337616,25.72370171546936 84.5373809337616,25.72370171546936 85.34257411956787,26.62549912929535 85.34257411956787,26.62549912929535 86.12502813339233,27.54925787448883 86.12502813339233,27.54925787448883 86.88743710517883,28.491994738578796 86.88743710517883,28.491994738578796 87.63258457183838,29.450634121894836 87.63258457183838,29.450634121894836 81.06117844581604,29.450634121894836 81.06117844581604,29.450634121894836 80.93636631965637,29.31557297706604 80.93636631965637,29.31557297706604 80.81284761428833,29.180052876472473 80.81284761428833,29.180052876472473 80.68951964378357,29.044723510742188 80.68951964378357,29.044723510742188 80.56539297103882,28.91036570072174 80.56539297103882,28.91036570072174 80.43939471244812,28.77764403820038 80.43939471244812,28.77764403820038 75.37200450897217,24.337677657604218 75.37200450897217,24.337677657604218 69.66553330421448,20.71932703256607 69.66553330421448,20.71932703256607 63.40894103050232,18.017403781414032 63.40894103050232,18.017403781414032 56.69127106666565,16.32675528526306 56.69127106666565,16.32675528526306 49.60132539272308,15.742118656635284 49.60132539272308,15.742118656635284 42.511385679244995,16.32675528526306 42.511385679244995,16.32675528526306 35.79375147819519,18.017421662807465 35.79375147819519,18.017421662807465 29.537120461463928,20.71932703256607 29.537120461463928,20.71932703256607 23.830687999725342,24.337677657604218 23.830687999725342,24.337677657604218 18.763259053230286,28.77764403820038 18.763259053230286,28.77764403820038 18.68237406015396,28.861141204833984 18.68237406015396,28.861141204833984 18.603011965751648,28.946977853775024 18.603011965751648,28.946977853775024 18.524298071861267,29.033958911895752 18.524298071861267,29.033958911895752 18.445508182048798,29.12096083164215 18.445508182048798,29.12096083164215 18.365804851055145,29.20679748058319 18.365804851055145,29.20679748058319 18.274174630641937,29.25604283809662 18.274174630641937,29.25604283809662 18.183040618896484,29.304581880569458 18.183040618896484,29.304581880569458 18.091945350170135,29.35287058353424 18.091945350170135,29.35287058353424 18.000277876853943,29.40140962600708 18.000277876853943,29.40140962600708 17.907391488552094,29.450634121894836 17.907391488552094,29.450634121894836 11.577381938695908,29.450634121894836 11.577381938695908,29.450634121894836 12.319865822792053,28.49201261997223 12.319865822792053,28.49201261997223 13.080142438411713,27.54925787448883 13.080142438411713,27.54925787448883 13.860763609409332,26.625478267669678 13.860763609409332,26.625478267669678 14.664281904697418,25.72370171546936 14.664281904697418,25.72370171546936 15.493404865264893,24.846991896629333 15.493404865264893,24.846991896629333 21.128667891025543,19.910244643688202 21.128667891025543,19.910244643688202 27.457305788993835,15.898612141609192 27.457305788993835,15.898612141609192 34.37903821468353,12.910827994346619 34.37903821468353,12.910827994346619 41.79381728172302,11.04574054479599 41.79381728172302,11.04574054479599 49.60132539272308,10.40208712220192 49.60132539272308,10.40208712220192 57.40864276885986,11.04574054479599 57.40864276885986,11.04574054479599 64.82281684875488,12.910845875740051 64.82281684875488,12.910845875740051 71.74378633499146,15.89859277009964 71.74378633499146,15.89859277009964 78.07181477546692,19.910244643688202 78.07181477546692,19.910244643688202" stroke="white" stroke-width="0.1" /><polygon points="14.530247449874878,19.30701583623886 14.530247449874878,19.30701583623886 12.661084532737732,21.160176396369934 12.661084532737732,21.160176396369934 10.903438925743103,23.10580611228943 10.903438925743103,23.10580611228943 9.260587394237518,25.13921558856964 9.260587394237518,25.13921558856964 7.735805958509445,27.255719900131226 7.735805958509445,27.255719900131226 6.332447379827499,29.450634121894836 6.332447379827499,29.450634121894836 0.0,29.450634121894836 0.0,29.450634121894836 6.57026469707489,19.685038924217224 6.57026469707489,19.685038924217224 15.197522938251495,11.549568921327591 15.197522938251495,11.549568921327591 25.539985299110413,5.351860821247101 25.539985299110413,5.351860821247101 37.25593388080597,1.399472076445818 37.25593388080597,1.399472076445818 50.00365972518921,0.0 50.00365972518921,0.0 62.74966597557068,1.399472076445818 62.74966597557068,1.399472076445818 74.46374893188477,5.351879820227623 74.46374893188477,5.351879820227623 84.80437994003296,11.549568921327591 84.80437994003296,11.549568921327591 93.43026876449585,19.685019552707672 93.43026876449585,19.685019552707672 100.0,29.450634121894836 100.0,29.450634121894836 93.67974400520325,29.450634121894836 93.67974400520325,29.450634121894836 92.2758936882019,27.255719900131226 92.2758936882019,27.255719900131226 90.75000286102295,25.13921558856964 90.75000286102295,25.13921558856964 89.10562992095947,23.10580611228943 89.10562992095947,23.10580611228943 87.34676241874695,21.160176396369934 87.34676241874695,21.160176396369934 85.47706604003906,19.30701583623886 85.47706604003906,19.30701583623886 79.64410781860352,14.61494266986847 79.64410781860352,14.61494266986847 73.07788133621216,10.793179273605347 73.07788133621216,10.793179273605347 65.8807635307312,7.940743118524551 65.8807635307312,7.940743118524551 58.155202865600586,6.156675145030022 58.155202865600586,6.156675145030022 50.00365972518921,5.539977177977562 50.00365972518921,5.539977177977562 41.850242018699646,6.156675145030022 41.850242018699646,6.156675145030022 34.12445783615112,7.940762490034103 34.12445783615112,7.940762490034103 26.928028464317322,10.793159902095795 26.928028464317322,10.793159902095795 20.36275416612625,14.614924788475037 20.36275416612625,14.614924788475037" stroke="white" stroke-width="0.1" /><polygon points="84.2920184135437,53.87335419654846 84.2920184135437,53.87335419654846 84.25772786140442,56.59114122390747 84.25772786140442,56.59114122390747 83.34532380104065,59.07064080238342 83.34532380104065,59.07064080238342 81.70525431632996,61.12266182899475 81.70525431632996,61.12266182899475 79.48843240737915,62.558162212371826 79.48843240737915,62.558162212371826 76.84523463249207,63.18792700767517 76.84523463249207,63.18792700767517 74.2204487323761,62.89255619049072 74.2204487323761,62.89255619049072 71.89652919769287,61.791712045669556 71.89652919769287,61.791712045669556 70.03567218780518,60.0372850894928 70.03567218780518,60.0372850894928 68.80025267601013,57.781219482421875 68.80025267601013,57.781219482421875 68.3523952960968,55.17544150352478 68.3523952960968,55.17544150352478 68.7375009059906,52.749454975128174 68.7375009059906,52.749454975128174 69.81111168861389,50.603652000427246 69.81111168861389,50.603652000427246 71.4503824710846,48.86956810951233 71.4503824710846,48.86956810951233 73.53282570838928,47.67884314060211 73.53282570838928,47.67884314060211 75.93572735786438,47.16295599937439 75.93572735786438,47.16295599937439 78.29217910766602,47.393155097961426 78.29217910766602,47.393155097961426 80.4337203502655,48.27994108200073 80.4337203502655,48.27994108200073 82.23262429237366,49.72265362739563 82.23262429237366,49.72265362739563 83.56130719184875,51.62068009376526 83.56130719184875,51.62068009376526" stroke="white" stroke-width="0.1" /><polygon points="94.44295763969421,49.947574734687805 94.44295763969421,49.947574734687805 94.53797340393066,50.33714175224304 94.53797340393066,50.33714175224304 94.50600743293762,50.91046690940857 94.50600743293762,50.91046690940857 94.40256953239441,51.54695510864258 94.40256953239441,51.54695510864258 94.2833960056305,52.12610960006714 94.2833960056305,52.12610960006714 94.2039966583252,52.527374029159546 94.2039966583252,52.527374029159546 94.06313896179199,53.52441668510437 94.06313896179199,53.52441668510437 93.89294981956482,54.556816816329956 93.89294981956482,54.556816816329956 93.64168643951416,55.57444095611572 93.64168643951416,55.57444095611572 93.25783252716064,56.52725100517273 93.25783252716064,56.52725100517273 92.6897644996643,57.36509561538696 92.6897644996643,57.36509561538696 91.82745814323425,58.096420764923096 91.82745814323425,58.096420764923096 90.86106419563293,58.55620503425598 90.86106419563293,58.55620503425598 89.82018828392029,58.82052183151245 89.82018828392029,58.82052183151245 88.73491883277893,58.96545052528381 88.73491883277893,58.96545052528381 87.63502836227417,59.06708240509033 87.63502836227417,59.06708240509033 88.24278712272644,54.403239488601685 88.24278712272644,54.403239488601685 87.04882860183716,50.054728984832764 87.04882860183716,50.054728984832764 84.38147902488708,46.4585155248642 84.38147902488708,46.4585155248642 80.5692732334137,44.05170977115631 80.5692732334137,44.05170977115631 75.940603017807,43.27131807804108 75.940603017807,43.27131807804108 71.41376733779907,44.369688630104065 71.41376733779907,44.369688630104065 67.79896020889282,47.01370298862457 67.79896020889282,47.01370298862457 65.38946628570557,50.753456354141235 65.38946628570557,50.753456354141235 64.47885036468506,55.13905882835388 64.47885036468506,55.13905882835388 65.36051630973816,59.720563888549805 65.36051630973816,59.720563888549805 60.48849821090698,59.37850475311279 60.48849821090698,59.37850475311279 55.62570095062256,59.141069650650024 55.62570095062256,59.141069650650024 50.76404809951782,59.02393460273743 50.76404809951782,59.02393460273743 45.89591920375824,59.04281139373779 45.89591920375824,59.04281139373779 41.013386845588684,59.21338200569153 41.013386845588684,59.21338200569153 41.69814884662628,54.89857196807861 41.69814884662628,54.89857196807861 40.81008732318878,50.774067640304565 40.81008732318878,50.774067640304565 38.588160276412964,47.21858203411102 38.588160276412964,47.21858203411102 35.27148365974426,44.61093544960022 35.27148365974426,44.61093544960022 31.098973751068115,43.329837918281555 31.098973751068115,43.329837918281555 26.812851428985596,43.664467334747314 26.812851428985596,43.664467334747314 23.053495585918427,45.43451368808746 23.053495585918427,45.43451368808746 20.1224222779274,48.34076464176178 20.1224222779274,48.34076464176178 18.32122802734375,52.08410024642944 18.32122802734375,52.08410024642944 17.951281368732452,56.36536478996277 17.951281368732452,56.36536478996277 17.037807404994965,55.89674115180969 17.037807404994965,55.89674115180969 16.12212210893631,55.429983139038086 16.12212210893631,55.429983139038086 15.20247608423233,54.96930480003357 15.20247608423233,54.96930480003357 14.277419447898865,54.51890826225281 14.277419447898865,54.51890826225281 13.345199823379517,54.083049297332764 13.345199823379517,54.083049297332764 12.959937751293182,53.93522381782532 12.959937751293182,53.93522381782532 12.546177208423615,53.793495893478394 12.546177208423615,53.793495893478394 12.14136928319931,53.62764596939087 12.14136928319931,53.62764596939087 11.783157289028168,53.407490253448486 11.783157289028168,53.407490253448486 11.509107053279877,53.102827072143555 11.509107053279877,53.102827072143555 11.007489264011383,52.00125575065613 11.007489264011383,52.00125575065613 10.707112401723862,50.763630867004395 10.707112401723862,50.763630867004395 10.54915115237236,49.46233928203583 10.54915115237236,49.46233928203583 10.475162416696548,48.16973805427551 10.475162416696548,48.16973805427551 10.426471382379532,46.958133578300476 10.426471382379532,46.958133578300476 10.524120181798935,46.14954590797424 10.524120181798935,46.14954590797424 10.843698680400848,45.55725157260895 10.843698680400848,45.55725157260895 11.28462478518486,45.06978690624237 11.28462478518486,45.06978690624237 11.746391654014587,44.57578957080841 11.746391654014587,44.57578957080841 12.128453701734543,43.96381378173828 12.128453701734543,43.96381378173828 12.318646162748337,43.373042345047 12.318646162748337,43.373042345047 12.432068586349487,42.73590445518494 12.432068586349487,42.73590445518494 12.498361617326736,42.07861125469208 12.498361617326736,42.07861125469208 12.547396123409271,41.427451372146606 12.547396123409271,41.427451372146606 12.608812749385834,40.80856442451477 12.608812749385834,40.80856442451477 12.73888349533081,39.706459641456604 12.73888349533081,39.706459641456604 12.954947352409363,38.39743435382843 12.954947352409363,38.39743435382843 13.34211379289627,37.12982535362244 13.34211379289627,37.12982535362244 13.985958695411682,36.15202009677887 13.985958695411682,36.15202009677887 14.971593022346497,35.71237027645111 14.971593022346497,35.71237027645111 16.60023331642151,35.63142716884613 16.60023331642151,35.63142716884613 18.21218729019165,35.56100130081177 18.21218729019165,35.56100130081177 19.794994592666626,35.408660769462585 19.794994592666626,35.408660769462585 21.33619636297226,35.08189916610718 21.33619636297226,35.08189916610718 22.823144495487213,34.48830842971802 22.823144495487213,34.48830842971802 24.5384618639946,33.588072657585144 24.5384618639946,33.588072657585144 26.260295510292053,32.68080949783325 26.260295510292053,32.68080949783325 27.99607217311859,31.79692029953003 27.99607217311859,31.79692029953003 29.753601551055908,30.966919660568237 29.753601551055908,30.966919660568237 31.540319323539734,30.221161246299744 31.540319323539734,30.221161246299744 33.64676535129547,29.48324978351593 33.64676535129547,29.48324978351593 35.79542636871338,28.871998190879822 35.79542636871338,28.871998190879822 37.97555863857269,28.377047181129456 37.97555863857269,28.377047181129456 40.17683565616608,27.988165616989136 40.17683565616608,27.988165616989136 42.38862693309784,27.695009112358093 42.38862693309784,27.695009112358093 44.55733001232147,27.476927638053894 44.55733001232147,27.476927638053894 46.782493591308594,27.322053909301758 46.782493591308594,27.322053909301758 49.02472794055939,27.27717161178589 49.02472794055939,27.27717161178589 51.244598627090454,27.389144897460938 51.244598627090454,27.389144897460938 53.402745723724365,27.704763412475586 53.402745723724365,27.704763412475586 55.05138635635376,28.1358003616333 55.05138635635376,28.1358003616333 56.65499567985535,28.727886080741882 56.65499567985535,28.727886080741882 58.2122802734375,29.44774031639099 58.2122802734375,29.44774031639099 59.72223877906799,30.262213945388794 59.72223877906799,30.262213945388794 61.18358373641968,31.137987971305847 61.18358373641968,31.137987971305847 62.613117694854736,32.06532895565033 62.613117694854736,32.06532895565033 64.0113353729248,33.04157257080078 64.0113353729248,33.04157257080078 65.37880301475525,34.06180441379547 65.37880301475525,34.06180441379547 66.7167067527771,35.121142864227295 66.7167067527771,35.121142864227295 68.02565455436707,36.21467351913452 68.02565455436707,36.21467351913452 68.59546899795532,36.71499788761139 68.59546899795532,36.71499788761139 69.05776858329773,37.10155487060547 69.05776858329773,37.10155487060547 69.50791478157043,37.388139963150024 69.50791478157043,37.388139963150024 70.04157304763794,37.58858144283295 70.04157304763794,37.58858144283295 70.75418829917908,37.716710567474365 70.75418829917908,37.716710567474365 74.9466598033905,38.23336064815521 74.9466598033905,38.23336064815521 79.17948365211487,38.88065218925476 79.17948365211487,38.88065218925476 83.37888717651367,39.75288271903992 83.37888717651367,39.75288271903992 87.47127652168274,40.944427251815796 87.47127652168274,40.944427251815796 91.38280153274536,42.549559473991394 91.38280153274536,42.549559473991394 91.79896116256714,42.749640345573425 91.79896116256714,42.749640345573425 92.40432381629944,43.072113394737244 92.40432381629944,43.072113394737244 92.96743869781494,43.46036911010742 92.96743869781494,43.46036911010742 93.25684309005737,43.85778307914734 93.25684309005737,43.85778307914734 93.04088950157166,44.207653403282166 93.04088950157166,44.207653403282166 92.91630387306213,44.45078372955322 92.91630387306213,44.45078372955322 92.83565282821655,44.917961955070496 92.83565282821655,44.917961955070496 92.78684258460999,45.47028839588165 92.78684258460999,45.47028839588165 92.75773763656616,45.96906900405884 92.75773763656616,45.96906900405884 92.73609519004822,46.275389194488525 92.73609519004822,46.275389194488525 92.65738129615784,46.86301946640015 92.65738129615784,46.86301946640015 92.57916212081909,47.44994044303894 92.57916212081909,47.44994044303894 92.50117540359497,48.03663492202759 92.50117540359497,48.03663492202759 92.42352843284607,48.62355887889862 92.42352843284607,48.62355887889862 92.34595894813538,49.211186170578 92.34595894813538,49.211186170578 92.5356924533844,49.354252219200134 92.5356924533844,49.354252219200134 93.02199482917786,49.50129687786102 93.02199482917786,49.50129687786102 93.62301230430603,49.65043663978577 93.62301230430603,49.65043663978577 94.15720701217651,49.79982674121857 94.15720701217651,49.79982674121857" stroke="white" stroke-width="0.1" /><polygon points="38.270220160484314,34.33225154876709 38.270220160484314,34.33225154876709 38.14205229282379,33.65423381328583 38.14205229282379,33.65423381328583 37.960776686668396,32.977622747421265 37.960776686668396,32.977622747421265 37.733131647109985,32.31082558631897 37.733131647109985,32.31082558631897 37.465900182724,31.662312150001526 37.465900182724,31.662312150001526 37.16563880443573,31.040453910827637 37.16563880443573,31.040453910827637 36.89897954463959,30.826294422149658 36.89897954463959,30.826294422149658 36.48647665977478,30.775967240333557 36.48647665977478,30.775967240333557 36.013394594192505,30.829763412475586 36.013394594192505,30.829763412475586 35.56523025035858,30.928096175193787 35.56523025035858,30.928096175193787 35.22713482379913,31.01119101047516 35.22713482379913,31.01119101047516 33.92070233821869,31.32985830307007 33.92070233821869,31.32985830307007 32.43474364280701,31.80255889892578 32.43474364280701,31.80255889892578 30.978122353553772,32.45924115180969 30.978122353553772,32.45924115180969 29.760193824768066,33.32987427711487 29.760193824768066,33.32987427711487 28.98978292942047,34.44441854953766 28.98978292942047,34.44441854953766 29.141876101493835,35.36343574523926 29.141876101493835,35.36343574523926 30.161380767822266,35.91751754283905 30.161380767822266,35.91751754283905 31.59826695919037,36.19934022426605 31.59826695919037,36.19934022426605 33.002808690071106,36.301618814468384 33.002808690071106,36.301618814468384 33.925044536590576,36.3170862197876 33.925044536590576,36.3170862197876 35.05462110042572,36.34708821773529 35.05462110042572,36.34708821773529 36.28150224685669,36.32068634033203 36.28150224685669,36.32068634033203 37.37800419330597,36.080774664878845 37.37800419330597,36.080774664878845 38.116756081581116,35.470324754714966 38.116756081581116,35.470324754714966" stroke="white" stroke-width="0.1" /><polygon points="60.057055950164795,34.26397740840912 60.057055950164795,34.26397740840912 59.18179750442505,33.232393860816956 59.18179750442505,33.232393860816956 58.112841844558716,32.38875865936279 58.112841844558716,32.38875865936279 56.91620707511902,31.695154309272766 56.91620707511902,31.695154309272766 55.658239126205444,31.113681197166443 55.658239126205444,31.113681197166443 54.40491437911987,30.60642182826996 54.40491437911987,30.60642182826996 53.02647352218628,30.162638425827026 53.02647352218628,30.162638425827026 51.620107889175415,29.87336814403534 51.620107889175415,29.87336814403534 50.19278526306152,29.712799191474915 50.19278526306152,29.712799191474915 48.75186085700989,29.655268788337708 48.75186085700989,29.655268788337708 47.3043829202652,29.674965143203735 47.3043829202652,29.674965143203735 46.22883200645447,29.69839572906494 46.22883200645447,29.69839572906494 44.95528042316437,29.777967929840088 44.95528042316437,29.777967929840088 43.678829073905945,30.015575885772705 43.678829073905945,30.015575885772705 42.59486198425293,30.512982606887817 42.59486198425293,30.512982606887817 41.898515820503235,31.3720703125 41.898515820503235,31.3720703125 41.69635772705078,32.427600026130676 41.69635772705078,32.427600026130676 41.80094301700592,33.60719978809357 41.80094301700592,33.60719978809357 42.10711121559143,34.818363189697266 42.10711121559143,34.818363189697266 42.50955581665039,35.96870303153992 42.50955581665039,35.96870303153992 42.903125286102295,36.96569204330444 42.903125286102295,36.96569204330444 43.080249428749084,37.22802698612213 43.080249428749084,37.22802698612213 43.326905369758606,37.35552728176117 43.326905369758606,37.35552728176117 43.62415671348572,37.39476799964905 43.62415671348572,37.39476799964905 43.9532995223999,37.392330169677734 43.9532995223999,37.392330169677734 44.29543316364288,37.394845485687256 44.29543316364288,37.394845485687256 45.57732939720154,37.47752010822296 45.57732939720154,37.47752010822296 46.85972332954407,37.55061626434326 46.85972332954407,37.55061626434326 48.14234375953674,37.61500418186188 48.14234375953674,37.61500418186188 49.42530691623688,37.67169713973999 49.42530691623688,37.67169713973999 50.70834755897522,37.72158622741699 50.70834755897522,37.72158622741699 51.752692461013794,37.76021897792816 51.752692461013794,37.76021897792816 52.796733379364014,37.794166803359985 52.796733379364014,37.794166803359985 53.84054780006409,37.823426723480225 53.84054780006409,37.823426723480225 54.88455295562744,37.84800171852112 54.88455295562744,37.84800171852112 55.928897857666016,37.86788880825043 55.928897857666016,37.86788880825043 56.53022527694702,37.87949085235596 56.53022527694702,37.87949085235596 57.131701707839966,37.8903865814209 57.131701707839966,37.8903865814209 57.73332715034485,37.89983689785004 57.73332715034485,37.89983689785004 58.33534002304077,37.907207012176514 58.33534002304077,37.907207012176514 58.93784761428833,37.911778688430786 58.93784761428833,37.911778688430786 58.96067023277283,37.83620893955231 58.96067023277283,37.83620893955231 58.966535329818726,37.71219551563263 58.966535329818726,37.71219551563263 58.962422609329224,37.5708281993866 58.962422609329224,37.5708281993866 58.955371379852295,37.44330704212189 58.955371379852295,37.44330704212189 58.95247459411621,37.36070692539215 58.95247459411621,37.36070692539215 58.966267108917236,36.98199987411499 58.966267108917236,36.98199987411499 59.00551080703735,36.41323149204254 59.00551080703735,36.41323149204254 59.10182595252991,35.8118861913681 59.10182595252991,35.8118861913681 59.28736925125122,35.335564613342285 59.28736925125122,35.335564613342285 59.593766927719116,35.14179289340973 59.593766927719116,35.14179289340973 59.96992588043213,35.09405255317688 59.96992588043213,35.09405255317688 60.18069386482239,34.963446855545044 60.18069386482239,34.963446855545044 60.24965047836304,34.76889133453369 60.24965047836304,34.76889133453369 60.2006196975708,34.52943563461304 60.2006196975708,34.52943563461304" stroke="white" stroke-width="0.1" /></svg>