<?xml version="1.0" encoding="utf-8" ?>
<svg baseProfile="full" height="66.32113456726074" version="1.1" width="99.9987244606018" xmlns="http://www.w3.org/2000/svg" xmlns:ev="http://www.w3.org/2001/xml-events" xmlns:xlink="http://www.w3.org/1999/xlink"><defs><clipPath /></defs><polygon points="78.1976044178009,20.431478321552277 78.1976044178009,20.431478321552277 41.62778556346893,50.56279897689819 41.62778556346893,50.56279897689819 41.478368639945984,50.67471265792847 41.478368639945984,50.67471265792847 41.31940305233002,50.7599413394928 41.31940305233002,50.7599413394928 41.152775287628174,50.81939697265625 41.152775287628174,50.81939697265625 40.980055928230286,50.85442066192627 40.980055928230286,50.85442066192627 40.80283045768738,50.86584687232971 40.80283045768738,50.86584687232971 40.61049520969391,50.850510597229004 40.61049520969391,50.850510597229004 40.422144532203674,50.805264711380005 40.422144532203674,50.805264711380005 40.24040699005127,50.7313072681427 40.24040699005127,50.7313072681427 40.068140625953674,50.6300687789917 40.068140625953674,50.6300687789917 39.90812599658966,50.50266981124878 39.90812599658966,50.50266981124878 39.671823382377625,50.20699501037598 39.671823382377625,50.20699501037598 39.53593373298645,49.86230731010437 39.53593373298645,49.86230731010437 39.50241208076477,49.493423104286194 39.50241208076477,49.493423104286194 39.57366347312927,49.126118421554565 39.57366347312927,49.126118421554565 39.75179195404053,48.78541827201843 39.75179195404053,48.78541827201843 55.62557578086853,27.141758799552917 55.62557578086853,27.141758799552917 42.01260507106781,27.141758799552917 42.01260507106781,27.141758799552917 41.726845502853394,27.10883915424347 41.726845502853394,27.10883915424347 41.45890176296234,27.014589309692383 41.45890176296234,27.014589309692383 41.21861457824707,26.865321397781372 41.21861457824707,26.865321397781372 41.01590812206268,26.668250560760498 41.01590812206268,26.668250560760498 40.860551595687866,26.42984390258789 40.860551595687866,26.42984390258789 40.7560795545578,26.155510544776917 40.7560795545578,26.155510544776917 40.715718269348145,25.870802998542786 40.715718269348145,25.870802998542786 40.737590193748474,25.586548447608948 40.737590193748474,25.586548447608948 40.82011580467224,25.31386911869049 40.82011580467224,25.31386911869049 40.96156656742096,25.063735246658325 40.96156656742096,25.063735246658325 58.94944667816162,0.5363413598388433 58.94944667816162,0.5363413598388433 59.11555290222168,0.35407848190516233 59.11555290222168,0.35407848190516233 59.3096137046814,0.2052617957815528 59.3096137046814,0.2052617957815528 59.525394439697266,0.09391235071234405 59.525394439697266,0.09391235071234405 59.756964445114136,0.02412634203210473 59.756964445114136,0.02412634203210473 59.998077154159546,0.0 59.998077154159546,0.0 76.18212103843689,0.0 76.18212103843689,0.0 76.46592259407043,0.03295763453934342 76.46592259407043,0.03295763453934342 76.73364281654358,0.12720819795504212 76.73364281654358,0.12720819795504212 76.97520852088928,0.2758745802566409 76.97520852088928,0.2758745802566409 77.18114256858826,0.47226748429238796 77.18114256858826,0.47226748429238796 77.34138369560242,0.7095098495483398 77.34138369560242,0.7095098495483398 77.44044661521912,0.9848583489656448 77.44044661521912,0.9848583489656448 77.47840285301208,1.2699023820459843 77.47840285301208,1.2699023820459843 77.45562791824341,1.554044522345066 77.45562791824341,1.554044522345066 77.37295031547546,1.826987974345684 77.37295031547546,1.826987974345684 77.23075151443481,2.078022062778473 77.23075151443481,2.078022062778473 65.45529365539551,18.120160698890686 65.45529365539551,18.120160698890686 77.36303210258484,18.120160698890686 77.36303210258484,18.120160698890686 77.6836633682251,18.16149801015854 77.6836633682251,18.16149801015854 77.97949314117432,18.278522789478302 77.97949314117432,18.278522789478302 78.23789119720459,18.460935354232788 78.23789119720459,18.460935354232788 78.44699025154114,18.698590993881226 78.44699025154114,18.698590993881226 78.59445214271545,18.981193006038666 78.59445214271545,18.981193006038666 78.66029143333435,19.298969209194183 78.66029143333435,19.298969209194183 78.64984273910522,19.615091383457184 78.64984273910522,19.615091383457184 78.56656908988953,19.917158782482147 78.56656908988953,19.917158782482147 78.41459512710571,20.193372666835785 78.41459512710571,20.193372666835785" stroke="white" stroke-width="0.1" /><polygon points="32.524412870407104,55.74101805686951 32.524412870407104,55.74101805686951 32.306525111198425,58.97665619850159 32.306525111198425,58.97665619850159 31.05683922767639,61.86745762825012 31.05683922767639,61.86745762825012 28.96769344806671,64.19839262962341 28.96769344806671,64.19839262962341 26.23164653778076,65.75465202331543 26.23164653778076,65.75465202331543 23.041032254695892,66.32113456726074 23.041032254695892,66.32113456726074 20.058460533618927,65.82740545272827 20.058460533618927,65.82740545272827 17.44353324174881,64.4582211971283 17.44353324174881,64.4582211971283 15.36569893360138,62.38170266151428 15.36569893360138,62.38170266151428 13.994631171226501,59.76628661155701 13.994631171226501,59.76628661155701 13.499929010868073,56.780028343200684 13.499929010868073,56.780028343200684 13.958366215229034,53.89629602432251 13.958366215229034,53.89629602432251 15.235860645771027,51.34603977203369 15.235860645771027,51.34603977203369 17.185847461223602,49.28523004055023 17.185847461223602,49.28523004055023 19.6616530418396,47.86996841430664 19.6616530418396,47.86996841430664 22.51671701669693,47.25576043128967 22.51671701669693,47.25576043128967 24.876324832439423,47.42870628833771 24.876324832439423,47.42870628833771 27.06911563873291,48.16226661205292 27.06911563873291,48.16226661205292 29.0093332529068,49.383991956710815 29.0093332529068,49.383991956710815 30.61106503009796,51.02195143699646 30.61106503009796,51.02195143699646 31.788447499275208,53.00399661064148 31.788447499275208,53.00399661064148 31.856730580329895,53.24668288230896 31.856730580329895,53.24668288230896 31.932303309440613,53.48697304725647 31.932303309440613,53.48697304725647 32.01599419116974,53.72470021247864 32.01599419116974,53.72470021247864 32.10885524749756,53.95980477333069 32.10885524749756,53.95980477333069 32.21174776554108,54.19211983680725 32.21174776554108,54.19211983680725 32.29393661022186,54.49524521827698 32.29393661022186,54.49524521827698 32.36687779426575,54.801446199417114 32.36687779426575,54.801446199417114 32.42993652820587,55.110955238342285 32.42993652820587,55.110955238342285 32.48266279697418,55.42407035827637 32.48266279697418,55.42407035827637" stroke="white" stroke-width="0.1" /><polygon points="41.06739163398743,35.68233251571655 41.06739163398743,35.68233251571655 32.9429030418396,46.757903695106506 32.9429030418396,46.757903695106506 31.556767225265503,45.52933871746063 31.556767225265503,45.52933871746063 30.01369535923004,44.48574185371399 30.01369535923004,44.48574185371399 28.327593207359314,43.65004003047943 28.327593207359314,43.65004003047943 26.512670516967773,43.04560124874115 26.512670516967773,43.04560124874115 24.58271235227585,42.695656418800354 24.58271235227585,42.695656418800354 19.4863423705101,43.093329668045044 19.4863423705101,43.093329668045044 15.016655623912811,45.19795775413513 15.016655623912811,45.19795775413513 11.531677097082138,48.65403771400452 11.531677097082138,48.65403771400452 9.389881789684296,53.1062126159668 9.389881789684296,53.1062126159668 8.949444442987442,58.19904804229736 8.949444442987442,58.19904804229736 7.863608747720718,57.639408111572266 7.863608747720718,57.639408111572266 6.775330752134323,57.08330273628235 6.775330752134323,57.08330273628235 5.682467669248581,56.5354585647583 5.682467669248581,56.5354585647583 4.583102837204933,56.00069761276245 4.583102837204933,56.00069761276245 3.47539559006691,55.48366904258728 3.47539559006691,55.48366904258728 3.017634153366089,55.306071043014526 3.017634153366089,55.306071043014526 2.525562047958374,55.13598322868347 2.525562047958374,55.13598322868347 2.0439745858311653,54.93785738945007 2.0439745858311653,54.93785738945007 1.6177427023649216,54.67600226402283 1.6177427023649216,54.67600226402283 1.2915484607219696,54.314786195755005 1.2915484607219696,54.314786195755005 0.6957180332392454,53.00354361534119 0.6957180332392454,53.00354361534119 0.3392344107851386,51.53108239173889 0.3392344107851386,51.53108239173889 0.15189824625849724,49.98331665992737 0.15189824625849724,49.98331665992737 0.06381079438142478,48.44622015953064 0.06381079438142478,48.44622015953064 0.004810236350749619,47.005629539489746 0.004810236350749619,47.005629539489746 0.12051897356286645,46.04553580284119 0.12051897356286645,46.04553580284119 0.5001894198358059,45.34249007701874 0.5001894198358059,45.34249007701874 1.0240918025374413,44.76368427276611 1.0240918025374413,44.76368427276611 1.5723459422588348,44.176533818244934 1.5723459422588348,44.176533818244934 2.0251095294952393,43.4484601020813 2.0251095294952393,43.4484601020813 2.2529568523168564,42.74593889713287 2.2529568523168564,42.74593889713287 2.3887332528829575,41.98945462703705 2.3887332528829575,41.98945462703705 2.467726357281208,41.209596395492554 2.467726357281208,41.209596395492554 2.5255244225263596,40.437403321266174 2.5255244225263596,40.437403321266174 2.597527578473091,39.70369100570679 2.597527578473091,39.70369100570679 2.753935381770134,38.391321897506714 2.753935381770134,38.391321897506714 3.011283092200756,36.833181977272034 3.011283092200756,36.833181977272034 3.4714873880147934,35.32479703426361 3.4714873880147934,35.32479703426361 4.236765950918198,34.161996841430664 4.236765950918198,34.161996841430664 5.409110710024834,33.640387654304504 5.409110710024834,33.640387654304504 7.344065606594086,33.542680740356445 7.344065606594086,33.542680740356445 9.25985500216484,33.45880210399628 9.25985500216484,33.45880210399628 11.141296476125717,33.27849209308624 11.141296476125717,33.27849209308624 12.973394989967346,32.891494035720825 12.973394989967346,32.891494035720825 14.740969240665436,32.18769729137421 14.740969240665436,32.18769729137421 16.7825385928154,31.114113330841064 16.7825385928154,31.114113330841064 18.829932808876038,30.034664273262024 18.829932808876038,30.034664273262024 20.89277356863022,28.984078764915466 20.89277356863022,28.984078764915466 22.981129586696625,27.997079491615295 22.981129586696625,27.997079491615295 25.104624032974243,27.1080881357193 25.104624032974243,27.1080881357193 26.683959364891052,26.538074016571045 26.683959364891052,26.538074016571045 28.28516662120819,26.03360116481781 28.28516662120819,26.03360116481781 29.904863238334656,25.58925449848175 29.904863238334656,25.58925449848175 31.539592146873474,25.1996248960495 31.539592146873474,25.1996248960495 33.185821771621704,24.85930174589157 33.185821771621704,24.85930174589157 33.021897077560425,25.3553569316864 33.021897077560425,25.3553569316864 32.89179503917694,25.857877731323242 32.89179503917694,25.857877731323242 32.79690444469452,26.364681124687195 32.79690444469452,26.364681124687195 32.73892104625702,26.87351405620575 32.73892104625702,26.87351405620575 32.71922767162323,27.382269501686096 32.71922767162323,27.382269501686096 32.75226056575775,28.069984912872314 32.75226056575775,28.069984912872314 32.850342988967896,28.752437233924866 32.850342988967896,28.752437233924866 33.01223814487457,29.423916339874268 33.01223814487457,29.423916339874268 33.236703276634216,30.0787091255188 33.236703276634216,30.0787091255188 33.5225373506546,30.7109534740448 33.5225373506546,30.7109534740448 34.212541580200195,31.80505633354187 34.212541580200195,31.80505633354187 35.05677580833435,32.73937106132507 35.05677580833435,32.73937106132507 36.039191484451294,33.50292146205902 36.039191484451294,33.50292146205902 37.143781781196594,34.08510982990265 37.143781781196594,34.08510982990265 38.35442066192627,34.47496294975281 38.35442066192627,34.47496294975281 38.407933712005615,34.6125066280365 38.407933712005615,34.6125066280365 38.46129775047302,34.74794626235962 38.46129775047302,34.74794626235962 38.513532280921936,34.880152344703674 38.513532280921936,34.880152344703674 38.56396675109863,35.009124875068665 38.56396675109863,35.009124875068665 38.61176669597626,35.13396680355072 38.61176669597626,35.13396680355072 38.82356882095337,35.44377684593201 38.82356882095337,35.44377684593201 39.11804556846619,35.59364378452301 39.11804556846619,35.59364378452301 39.47242498397827,35.63964366912842 39.47242498397827,35.63964366912842 39.864382147789,35.637688636779785 39.864382147789,35.637688636779785 40.271300077438354,35.64385175704956 40.271300077438354,35.64385175704956 40.43033719062805,35.65272092819214 40.43033719062805,35.65272092819214 40.589675307273865,35.6599360704422 40.589675307273865,35.6599360704422 40.74901640415192,35.66640019416809 40.74901640415192,35.66640019416809 40.9084290266037,35.673463344573975 40.9084290266037,35.673463344573975" stroke="white" stroke-width="0.1" /><polygon points="33.106452226638794,31.997692584991455 33.106452226638794,31.997692584991455 32.95395076274872,31.19250237941742 32.95395076274872,31.19250237941742 32.738280296325684,30.38821816444397 32.738280296325684,30.38821816444397 32.46729075908661,29.595279693603516 32.46729075908661,29.595279693603516 32.14883804321289,28.823989629745483 32.14883804321289,28.823989629745483 31.790852546691895,28.084564208984375 31.790852546691895,28.084564208984375 31.475067138671875,27.831050753593445 31.475067138671875,27.831050753593445 30.985212326049805,27.77099907398224 30.985212326049805,27.77099907398224 30.422979593276978,27.833980321884155 30.422979593276978,27.833980321884155 29.89039421081543,27.949953079223633 29.89039421081543,27.949953079223633 29.489153623580933,28.04848849773407 29.489153623580933,28.04848849773407 27.935785055160522,28.43022644519806 27.935785055160522,28.43022644519806 26.168963313102722,28.993549942970276 26.168963313102722,28.993549942970276 24.43750351667404,29.774311184883118 24.43750351667404,29.774311184883118 22.990411520004272,30.80851137638092 22.990411520004272,30.80851137638092 22.076579928398132,32.13237822055817 22.076579928398132,32.13237822055817 22.256700694561005,33.225053548812866 22.256700694561005,33.225053548812866 23.468053340911865,33.88375639915466 23.468053340911865,33.88375639915466 25.175613164901733,34.218668937683105 25.175613164901733,34.218668937683105 26.844650506973267,34.34057831764221 26.844650506973267,34.34057831764221 27.940258383750916,34.35951769351959 27.940258383750916,34.35951769351959 29.284080862998962,34.396496415138245 29.284080862998962,34.396496415138245 30.74270784854889,34.3656063079834 30.74270784854889,34.3656063079834 32.046058773994446,34.08007323741913 32.046058773994446,34.08007323741913 32.92403817176819,33.35297703742981 32.92403817176819,33.35297703742981" stroke="white" stroke-width="0.1" /><polygon points="99.60315823554993,53.62691879272461 99.60315823554993,53.62691879272461 99.43472743034363,54.813772439956665 99.43472743034363,54.813772439956665 99.23186898231506,56.042712926864624 99.23186898231506,56.042712926864624 98.93258213996887,57.253384590148926 98.93258213996887,57.253384590148926 98.47568273544312,58.38589668273926 98.47568273544312,58.38589668273926 97.79931902885437,59.37996506690979 97.79931902885437,59.37996506690979 96.77459001541138,60.251665115356445 96.77459001541138,60.251665115356445 95.6258475780487,60.79973578453064 95.6258475780487,60.79973578453064 94.38841342926025,61.11443042755127 94.38841342926025,61.11443042755127 93.0976927280426,61.2861692905426 93.0976927280426,61.2861692905426 91.78892970085144,61.40507459640503 91.78892970085144,61.40507459640503 92.51376986503601,55.860525369644165 92.51376986503601,55.860525369644165 91.09565615653992,50.69079399108887 91.09565615653992,50.69079399108887 87.92487978935242,46.41524851322174 87.92487978935242,46.41524851322174 83.3919107913971,43.553757667541504 83.3919107913971,43.553757667541504 77.88734436035156,42.62591004371643 77.88734436035156,42.62591004371643 72.50634431838989,43.933090567588806 72.50634431838989,43.933090567588806 68.20975542068481,47.07688093185425 68.20975542068481,47.07688093185425 65.3463065624237,51.52229070663452 65.3463065624237,51.52229070663452 64.26535844802856,56.734782457351685 64.26535844802856,56.734782457351685 65.31579494476318,62.17951774597168 65.31579494476318,62.17951774597168 59.52186584472656,61.77605986595154 59.52186584472656,61.77605986595154 53.73905897140503,61.495715379714966 53.73905897140503,61.495715379714966 47.958433628082275,61.35712265968323 47.958433628082275,61.35712265968323 42.171040177345276,61.379289627075195 42.171040177345276,61.379289627075195 36.36779189109802,61.58064603805542 36.36779189109802,61.58064603805542 36.590829491615295,60.90661287307739 36.590829491615295,60.90661287307739 36.77605986595154,60.22987365722656 36.77605986595154,60.22987365722656 36.92472577095032,59.55132842063904 36.92472577095032,59.55132842063904 37.03829348087311,58.87165665626526 37.03829348087311,58.87165665626526 37.11818754673004,58.19183588027954 37.11818754673004,58.19183588027954 37.4433696269989,58.26473832130432 37.4433696269989,58.26473832130432 37.77298331260681,58.32584500312805 37.77298331260681,58.32584500312805 38.10819685459137,58.3726704120636 38.10819685459137,58.3726704120636 38.44994902610779,58.40258002281189 38.44994902610779,58.40258002281189 38.79936635494232,58.413106203079224 38.79936635494232,58.413106203079224 38.819584250450134,58.41431021690369 38.819584250450134,58.41431021690369 38.83950114250183,58.415061235427856 38.83950114250183,58.415061235427856 38.858968019485474,58.41535925865173 38.858968019485474,58.41535925865173 38.877683877944946,58.41550827026367 38.877683877944946,58.41550827026367 38.89557123184204,58.41550827026367 38.89557123184204,58.41550827026367 39.82996046543121,58.345913887023926 39.82996046543121,58.345913887023926 40.796515345573425,58.13674330711365 40.796515345573425,58.13674330711365 41.75924062728882,57.78740048408508 41.75924062728882,57.78740048408508 42.682504653930664,57.297658920288086 42.682504653930664,57.297658920288086 43.530234694480896,56.666988134384155 43.530234694480896,56.666988134384155 69.5896863937378,35.19649803638458 69.5896863937378,35.19649803638458 69.92821097373962,35.44602990150452 69.92821097373962,35.44602990150452 70.28003334999084,35.64918637275696 70.28003334999084,35.64918637275696 70.67597508430481,35.810256004333496 70.67597508430481,35.810256004333496 71.14678025245667,35.93366742134094 71.14678025245667,35.93366742134094 71.72303199768066,36.02386116981506 71.72303199768066,36.02386116981506 76.70748829841614,36.637842655181885 76.70748829841614,36.637842655181885 81.74019455909729,37.40650117397308 81.74019455909729,37.40650117397308 86.73307299613953,38.44250738620758 86.73307299613953,38.44250738620758 91.59839749336243,39.85927104949951 91.59839749336243,39.85927104949951 96.24801874160767,41.769686341285706 96.24801874160767,41.769686341285706 96.74317240715027,42.00809597969055 96.74317240715027,42.00809597969055 97.46237993240356,42.39238798618317 97.46237993240356,42.39238798618317 98.13092350959778,42.85492300987244 98.13092350959778,42.85492300987244 98.47425818443298,43.32813024520874 98.47425818443298,43.32813024520874 98.21780920028687,43.74428987503052 98.21780920028687,43.74428987503052 98.07087182998657,44.030046463012695 98.07087182998657,44.030046463012695 97.97549247741699,44.583526253700256 97.97549247741699,44.583526253700256 97.91747331619263,45.24012207984924 97.91747331619263,45.24012207984924 97.88282513618469,45.83471417427063 97.88282513618469,45.83471417427063 97.85704612731934,46.202319860458374 97.85704612731934,46.202319860458374 97.76444435119629,46.89912796020508 97.76444435119629,46.89912796020508 97.67139554023743,47.5955605506897 97.67139554023743,47.5955605506897 97.57789969444275,48.29176664352417 97.57789969444275,48.29176664352417 97.48424887657166,48.98819923400879 97.48424887657166,48.98819923400879 97.39044904708862,49.684929847717285 97.39044904708862,49.684929847717285 97.61728048324585,49.85659718513489 97.61728048324585,49.85659718513489 98.19676876068115,50.03247261047363 98.19676876068115,50.03247261047363 98.91213774681091,50.210148096084595 98.91213774681091,50.210148096084595 99.54693913459778,50.38767457008362 99.54693913459778,50.38767457008362 99.88455772399902,50.56279897689819 99.88455772399902,50.56279897689819 99.9987244606018,51.02608799934387 99.9987244606018,51.02608799934387 99.96107220649719,51.70793533325195 99.96107220649719,51.70793533325195 99.8382568359375,52.464497089385986 99.8382568359375,52.464497089385986 99.69680905342102,53.152209520339966 99.69680905342102,53.152209520339966" stroke="white" stroke-width="0.1" /><polygon points="87.82289028167725,55.23353815078735 87.82289028167725,55.23353815078735 87.77929544448853,58.46593976020813 87.77929544448853,58.46593976020813 86.69353723526001,61.41318678855896 86.69353723526001,61.41318678855896 84.74373817443848,63.85122537612915 84.74373817443848,63.85122537612915 82.1081817150116,65.55630564689636 82.1081817150116,65.55630564689636 78.96484136581421,66.3042962551117 78.96484136581421,66.3042962551117 75.84390044212341,65.95315337181091 75.84390044212341,65.95315337181091 73.08056950569153,64.64476585388184 73.08056950569153,64.64476585388184 70.86763381958008,62.559378147125244 70.86763381958008,62.559378147125244 69.39840912818909,59.87766981124878 69.39840912818909,59.87766981124878 68.86574625968933,56.780028343200684 68.86574625968933,56.780028343200684 69.32392120361328,53.89629602432251 69.32392120361328,53.89629602432251 70.60104012489319,51.34603977203369 70.60104012489319,51.34603977203369 72.55054116249084,49.28523004055023 72.55054116249084,49.28523004055023 75.026535987854,47.86996841430664 75.026535987854,47.86996841430664 77.88253426551819,47.25576043128967 77.88253426551819,47.25576043128967 80.68435192108154,47.528743743896484 80.68435192108154,47.528743743896484 83.23062062263489,48.582786321640015 83.23062062263489,48.582786321640015 85.37012338638306,50.29778480529785 85.37012338638306,50.29778480529785 86.95141077041626,52.55469083786011 86.95141077041626,52.55469083786011" stroke="white" stroke-width="0.1" /></svg>