<?xml version="1.0" encoding="utf-8" ?>
<svg baseProfile="full" height="100.0" version="1.1" width="71.99999690055847" xmlns="http://www.w3.org/2000/svg" xmlns:ev="http://www.w3.org/2001/xml-events" xmlns:xlink="http://www.w3.org/1999/xlink"><defs><clipPath /></defs><polygon points="71.99999690055847,39.84765410423279 71.99999690055847,39.84765410423279 71.98693752288818,40.64880311489105 71.98693752288818,40.64880311489105 71.94958329200745,41.444700956344604 71.94958329200745,41.444700956344604 71.89129590988159,42.23577678203583 71.89129590988159,42.23577678203583 71.81451320648193,43.02227795124054 71.81451320648193,43.02227795124054 71.72265648841858,43.80468726158142 71.72265648841858,43.80468726158142 71.81896567344666,44.23675537109375 71.81896567344666,44.23675537109375 71.89623713493347,44.674620032310486 71.89623713493347,44.674620032310486 71.95306420326233,45.117583870887756 71.95306420326233,45.117583870887756 71.98809385299683,45.564818382263184 71.98809385299683,45.564818382263184 71.99999690055847,46.01562321186066 71.99999690055847,46.01562321186066 67.57031083106995,81.49218559265137 67.57031083106995,81.49218559265137 65.6207263469696,85.58898568153381 65.6207263469696,85.58898568153381 60.746705532073975,90.45043587684631 60.746705532073975,90.45043587684631 54.410457611083984,95.11428475379944 54.410457611083984,95.11428475379944 48.07385206222534,98.6181914806366 48.07385206222534,98.6181914806366 43.199217319488525,100.0 43.199217319488525,100.0 42.992186546325684,100.0 42.992186546325684,100.0 42.992186546325684,66.06640219688416 42.992186546325684,66.06640219688416 43.54437291622162,62.71981596946716 43.54437291622162,62.71981596946716 45.080626010894775,59.6055269241333 45.080626010894775,59.6055269241333 47.42114245891571,56.93057179450989 47.42114245891571,56.93057179450989 50.38525462150574,54.90191578865051 50.38525462150574,54.90191578865051 53.79296541213989,53.72655987739563 53.79296541213989,53.72655987739563 57.194703817367554,52.746427059173584 57.194703817367554,52.746427059173584 60.158079862594604,51.2565016746521 60.158079862594604,51.2565016746521 62.50085234642029,49.400389194488525 62.50085234642029,49.400389194488525 64.04016017913818,47.32171595096588 64.04016017913818,47.32171595096588 64.59375023841858,45.16406059265137 64.59375023841858,45.16406059265137 64.05114531517029,43.270233273506165 64.05114531517029,43.270233273506165 62.54211068153381,41.91674590110779 62.54211068153381,41.91674590110779 60.245174169540405,41.162168979644775 60.245174169540405,41.162168979644775 57.33831524848938,41.06494188308716 57.33831524848938,41.06494188308716 53.999996185302734,41.68359339237213 53.999996185302734,41.68359339237213 46.378904581069946,43.86328160762787 46.378904581069946,43.86328160762787 42.49890148639679,44.6601539850235 42.49890148639679,44.6601539850235 38.084959983825684,45.05859315395355 38.084959983825684,45.05859315395355 33.493223786354065,45.05859315395355 33.493223786354065,45.05859315395355 29.079344868659973,44.6601539850235 29.079344868659973,44.6601539850235 25.199219584465027,43.86328160762787 25.199219584465027,43.86328160762787 17.574217915534973,41.68359339237213 17.574217915534973,41.68359339237213 14.237181842327118,41.06494188308716 14.237181842327118,41.06494188308716 11.333251744508743,41.162168979644775 11.333251744508743,41.162168979644775 9.039794653654099,41.91674590110779 9.039794653654099,41.91674590110779 7.533568888902664,43.270233273506165 7.533568888902664,43.270233273506165 6.992187350988388,45.16406059265137 6.992187350988388,45.16406059265137 7.544311136007309,47.321686148643494 7.544311136007309,47.321686148643494 9.08062756061554,49.400389194488525 9.08062756061554,49.400389194488525 11.421142518520355,51.25653147697449 11.421142518520355,51.25653147697449 14.385253190994263,52.74645686149597 14.385253190994263,52.74645686149597 17.792968451976776,53.72655987739563 17.792968451976776,53.72655987739563 21.19470238685608,54.901885986328125 21.19470238685608,54.901885986328125 24.15807992219925,56.9305419921875 24.15807992219925,56.9305419921875 26.500794291496277,59.60555672645569 26.500794291496277,59.60555672645569 28.040099143981934,62.71981596946716 28.040099143981934,62.71981596946716 28.593748807907104,66.06640219688416 28.593748807907104,66.06640219688416 28.593748807907104,99.97655749320984 28.593748807907104,99.97655749320984 23.670165240764618,98.49255084991455 23.670165240764618,98.49255084991455 17.376220226287842,94.97082233428955 17.376220226287842,94.97082233428955 11.127685010433197,90.3426468372345 11.127685010433197,90.3426468372345 6.340270489454269,85.53930521011353 6.340270489454269,85.53930521011353 4.429687559604645,81.49218559265137 4.429687559604645,81.49218559265137 0.0,46.01562321186066 0.0,46.01562321186066 0.011962890130234882,45.564818382263184 0.011962890130234882,45.564818382263184 0.04699706914834678,45.11755406856537 0.04699706914834678,45.11755406856537 0.10388183873146772,44.674620032310486 0.10388183873146772,44.674620032310486 0.1810913090594113,44.23675537109375 0.1810913090594113,44.23675537109375 0.27734374161809683,43.80468726158142 0.27734374161809683,43.80468726158142 0.18103027250617743,43.02227795124054 0.18103027250617743,43.02227795124054 0.10382080217823386,42.23571717739105 0.10382080217823386,42.23571717739105 0.047058105701580644,41.44473075866699 0.047058105701580644,41.44473075866699 0.012023925228277221,40.64880311489105 0.012023925228277221,40.64880311489105 0.0,39.84765410423279 0.0,39.84765410423279 1.4838866889476776,30.328980088233948 1.4838866889476776,30.328980088233948 5.6502074003219604,21.885985136032104 5.6502074003219604,21.885985136032104 12.070800364017487,14.910949766635895 12.070800364017487,14.910949766635895 20.31707763671875,9.796050935983658 20.31707763671875,9.796050935983658 29.960936307907104,6.93359375 29.960936307907104,6.93359375 30.729490518569946,4.645019397139549 30.729490518569946,4.645019397139549 31.734800338745117,2.729553170502186 31.734800338745117,2.729553170502186 32.93914794921875,1.2650146149098873 32.93914794921875,1.2650146149098873 34.30444300174713,0.32922362443059683 34.30444300174713,0.32922362443059683 35.792967677116394,0.0 35.792967677116394,0.0 37.27081120014191,0.326507561840117 37.27081120014191,0.326507561840117 38.627928495407104,1.2545165605843067 38.627928495407104,1.2545165605843067 39.827024936676025,2.7067869901657104 39.827024936676025,2.7067869901657104 40.83062708377838,4.606017842888832 40.83062708377838,4.606017842888832 41.6015625,6.875000149011612 41.6015625,6.875000149011612 51.37048363685608,9.662536531686783 51.37048363685608,9.662536531686783 59.73522663116455,14.756499230861664 59.73522663116455,14.756499230861664 66.25536680221558,21.753966808319092 66.25536680221558,21.753966808319092 70.49053907394409,30.252012610435486 70.49053907394409,30.252012610435486" stroke="white" stroke-width="0.1" /></svg>