<?xml version="1.0" encoding="utf-8" ?>
<svg baseProfile="full" height="86.2500011920929" version="1.1" width="77.96646356582642" xmlns="http://www.w3.org/2000/svg" xmlns:ev="http://www.w3.org/2001/xml-events" xmlns:xlink="http://www.w3.org/1999/xlink"><defs><clipPath /></defs><polygon points="66.15234613418579,69.989013671875 66.15234613418579,69.989013671875 66.59607291221619,71.90353274345398 66.59607291221619,71.90353274345398 66.31103754043579,73.79242181777954 66.31103754043579,73.79242181777954 65.39886593818665,75.64117312431335 65.39886593818665,75.64117312431335 63.9617919921875,77.435302734375 63.9617919921875,77.435302734375 62.10174560546875,79.16061282157898 62.10174560546875,79.16061282157898 59.92080569267273,80.8026134967804 59.92080569267273,80.8026134967804 57.521212100982666,82.3468804359436 57.521212100982666,82.3468804359436 55.00473380088806,83.77906680107117 55.00473380088806,83.77906680107117 52.47330069541931,85.08461117744446 52.47330069541931,85.08461117744446 50.029295682907104,86.24939322471619 50.029295682907104,86.24939322471619 50.026243925094604,86.24939322471619 50.026243925094604,86.24939322471619 50.02350211143494,86.24946475028992 50.02350211143494,86.24946475028992 50.020599365234375,86.24954223632812 50.020599365234375,86.24954223632812 50.017547607421875,86.24954223632812 50.017547607421875,86.24954223632812 50.01465082168579,86.24969720840454 50.01465082168579,86.24969720840454 50.011903047561646,86.24984622001648 50.011903047561646,86.24984622001648 50.008851289749146,86.24992370605469 50.008851289749146,86.24992370605469 50.00595450401306,86.24992370605469 50.00595450401306,86.24992370605469 50.00259280204773,86.2500011920929 50.00259280204773,86.2500011920929 50.0,86.2500011920929 50.0,86.2500011920929 48.662567138671875,86.22550964355469 48.662567138671875,86.22550964355469 47.33734130859375,86.15264892578125 47.33734130859375,86.15264892578125 46.02539241313934,86.03233695030212 46.02539241313934,86.03233695030212 44.72686946392059,85.8654797077179 44.72686946392059,85.8654797077179 43.44329833984375,85.65292358398438 43.44329833984375,85.65292358398438 42.17529296875,85.39573550224304 42.17529296875,85.39573550224304 40.9231573343277,85.09475588798523 40.9231573343277,85.09475588798523 39.68841731548309,84.75082516670227 39.68841731548309,84.75082516670227 38.471221923828125,84.36485528945923 38.471221923828125,84.36485528945923 37.27295100688934,83.93799066543579 37.27295100688934,83.93799066543579 39.697265625,82.93411135673523 39.697265625,82.93411135673523 42.37304627895355,81.81633353233337 42.37304627895355,81.81633353233337 45.17883360385895,80.62629699707031 45.17883360385895,80.62629699707031 47.99301326274872,79.40582633018494 47.99301326274872,79.40582633018494 50.69412589073181,78.1970202922821 50.69412589073181,78.1970202922821 53.16070914268494,77.0416259765625 53.16070914268494,77.0416259765625 55.27099967002869,75.98106265068054 55.27099967002869,75.98106265068054 56.90353512763977,75.05767941474915 56.90353512763977,75.05767941474915 57.936859130859375,74.31297302246094 57.936859130859375,74.31297302246094 58.24951529502869,73.78906607627869 58.24951529502869,73.78906607627869 57.488250732421875,73.33855032920837 57.488250732421875,73.33855032920837 55.631256103515625,73.06221127510071 55.631256103515625,73.06221127510071 52.95501947402954,72.93014526367188 52.95501947402954,72.93014526367188 49.73693788051605,72.91237115859985 49.73693788051605,72.91237115859985 46.25396728515625,72.97927737236023 46.25396728515625,72.97927737236023 42.78320372104645,73.10096621513367 42.78320372104645,73.10096621513367 39.60128724575043,73.24745059013367 39.60128724575043,73.24745059013367 36.98562681674957,73.38913083076477 36.98562681674957,73.38913083076477 35.21270751953125,73.49586486816406 35.21270751953125,73.49586486816406 34.56054627895355,73.5382080078125 34.56054627895355,73.5382080078125 34.525299072265625,73.53706359863281 34.525299072265625,73.53706359863281 34.42733883857727,73.53286743164062 34.42733883857727,73.53286743164062 34.27871763706207,73.52455258369446 34.27871763706207,73.52455258369446 34.0911865234375,73.51097464561462 34.0911865234375,73.51097464561462 33.87649655342102,73.49098324775696 33.87649655342102,73.49098324775696 33.646851778030396,73.46367239952087 33.646851778030396,73.46367239952087 33.41354429721832,73.42765927314758 33.41354429721832,73.42765927314758 33.18893611431122,73.3820378780365 33.18893611431122,73.3820378780365 32.98446834087372,73.32558035850525 32.98446834087372,73.32558035850525 32.8125,73.2574462890625 32.8125,73.2574462890625 32.22412168979645,72.95692563056946 32.22412168979645,72.95692563056946 31.707763671875,72.50725030899048 31.707763671875,72.50725030899048 31.256103515625,71.9378650188446 31.256103515625,71.9378650188446 30.861815810203552,71.2780773639679 30.861815810203552,71.2780773639679 30.517426133155823,70.55763602256775 30.517426133155823,70.55763602256775 30.215606093406677,69.80583071708679 30.215606093406677,69.80583071708679 29.948577284812927,69.0521240234375 29.948577284812927,69.0521240234375 29.709169268608093,68.32603812217712 29.709169268608093,68.32603812217712 29.489746689796448,67.6569402217865 29.489746689796448,67.6569402217865 29.283449053764343,67.0745849609375 29.283449053764343,67.0745849609375 28.947144746780396,66.19507074356079 28.947144746780396,66.19507074356079 28.61068844795227,65.3155505657196 28.61068844795227,65.3155505657196 28.274232149124146,64.43580985069275 28.274232149124146,64.43580985069275 27.937468886375427,63.556063175201416 27.937468886375427,63.556063175201416 27.600708603858948,62.67631649971008 27.600708603858948,62.67631649971008 27.264100313186646,61.79656982421875 27.264100313186646,61.79656982421875 26.927337050437927,60.91682314872742 26.927337050437927,60.91682314872742 26.590728759765625,60.03708243370056 26.590728759765625,60.03708243370056 26.254120469093323,59.157103300094604 26.254120469093323,59.157103300094604 25.917968153953552,58.277589082717896 25.917968153953552,58.277589082717896 25.86517333984375,58.108675479888916 25.86517333984375,58.108675479888916 25.83053708076477,57.932281494140625 25.83053708076477,57.932281494140625 25.809022784233093,57.75108337402344 25.809022784233093,57.75108337402344 25.7965087890625,57.56721496582031 25.7965087890625,57.56721496582031 25.788727402687073,57.38326907157898 25.788727402687073,57.38326907157898 25.78125,57.20168948173523 25.78125,57.20168948173523 25.769194960594177,57.02468752861023 25.769194960594177,57.02468752861023 25.748595595359802,56.855010986328125 25.748595595359802,56.855010986328125 25.714874267578125,56.69464468955994 25.714874267578125,56.69464468955994 25.664064288139343,56.54663443565369 25.664064288139343,56.54663443565369 25.573119521141052,56.33682608604431 25.573119521141052,56.33682608604431 25.48263669013977,56.12708926200867 25.48263669013977,56.12708926200867 25.391846895217896,55.9173583984375 25.391846895217896,55.9173583984375 25.301209092140198,55.70770502090454 25.301209092140198,55.70770502090454 25.210723280906677,55.49812316894531 25.210723280906677,55.49812316894531 25.120240449905396,55.28861880302429 25.120240449905396,55.28861880302429 25.029754638671875,55.07896542549133 25.029754638671875,55.07896542549133 24.93942230939865,54.869383573532104 24.93942230939865,54.869383573532104 24.848632514476776,54.65965270996094 24.848632514476776,54.65965270996094 24.75830167531967,54.45007681846619 24.75830167531967,54.45007681846619 24.655304849147797,54.12430167198181 24.655304849147797,54.12430167198181 24.622802436351776,53.81324887275696 24.622802436351776,53.81324887275696 24.64645355939865,53.52165102958679 24.64645355939865,53.52165102958679 24.71252530813217,53.253936767578125 24.71252530813217,53.253936767578125 24.806824326515198,53.01475524902344 24.806824326515198,53.01475524902344 24.91546720266342,52.808839082717896 24.91546720266342,52.808839082717896 25.0244140625,52.640533447265625 25.0244140625,52.640533447265625 25.11947751045227,52.514803409576416 25.11947751045227,52.514803409576416 25.186768174171448,52.43568420410156 25.186768174171448,52.43568420410156 25.212404131889343,52.40845084190369 25.212404131889343,52.40845084190369 25.338441133499146,52.26349234580994 25.338441133499146,52.26349234580994 25.426635146141052,52.122193574905396 25.426635146141052,52.122193574905396 25.477296113967896,51.98677182197571 25.477296113967896,51.98677182197571 25.491484999656677,51.859283447265625 25.491484999656677,51.859283447265625 25.469818711280823,51.742023229599 25.469818711280823,51.742023229599 25.413209199905396,51.63711905479431 25.413209199905396,51.63711905479431 25.322112441062927,51.54663324356079 25.322112441062927,51.54663324356079 25.197753310203552,51.47285461425781 25.197753310203552,51.47285461425781 25.040283799171448,51.417696475982666 25.040283799171448,51.417696475982666 24.851074814796448,51.383668184280396 24.851074814796448,51.383668184280396 24.78179931640625,51.37413144111633 24.78179931640625,51.37413144111633 24.59259033203125,51.340484619140625 24.59259033203125,51.340484619140625 24.311065673828125,51.274871826171875 24.311065673828125,51.274871826171875 23.96484464406967,51.169586181640625 23.96484464406967,51.169586181640625 23.581543564796448,51.016998291015625 23.581543564796448,51.016998291015625 23.188935220241547,50.80932974815369 23.188935220241547,50.80932974815369 22.81448394060135,50.53871273994446 22.81448394060135,50.53871273994446 22.486114501953125,50.19752383232117 22.486114501953125,50.19752383232117 22.2309872508049,49.777984619140625 22.2309872508049,49.777984619140625 22.077636420726776,49.27246272563934 22.077636420726776,49.27246272563934 22.030793130397797,48.731690645217896 22.030793130397797,48.731690645217896 22.077636420726776,48.241424560546875 22.077636420726776,48.241424560546875 22.208252549171448,47.798386216163635 22.208252549171448,47.798386216163635 22.413329780101776,47.399598360061646 22.413329780101776,47.399598360061646 22.683410346508026,47.042009234428406 22.683410346508026,47.042009234428406 23.009033501148224,46.72271907329559 23.009033501148224,46.72271907329559 23.380279541015625,46.43844664096832 23.380279541015625,46.43844664096832 23.788300156593323,46.18629515171051 23.788300156593323,46.18629515171051 24.2228701710701,45.96305787563324 24.2228701710701,45.96305787563324 24.675293266773224,45.76599299907684 24.675293266773224,45.76599299907684 24.8707577586174,45.68824768066406 24.8707577586174,45.68824768066406 25.038757920265198,45.62416076660156 25.038757920265198,45.62416076660156 25.180968642234802,45.57228088378906 25.180968642234802,45.57228088378906 25.298920273780823,45.531463623046875 25.298920273780823,45.531463623046875 25.39413571357727,45.50049006938934 25.39413571357727,45.50049006938934 25.468596816062927,45.478057861328125 25.468596816062927,45.478057861328125 25.52337646484375,45.462724566459656 25.52337646484375,45.462724566459656 25.560760498046875,45.45333981513977 25.560760498046875,45.45333981513977 25.581666827201843,45.44861018657684 25.581666827201843,45.44861018657684 25.588378310203552,45.44738829135895 25.588378310203552,45.44738829135895 25.789794325828552,45.39787471294403 25.789794325828552,45.39787471294403 25.984802842140198,45.31913697719574 25.984802842140198,45.31913697719574 26.17034912109375,45.21423280239105 26.17034912109375,45.21423280239105 26.34384334087372,45.08621394634247 26.34384334087372,45.08621394634247 26.502379775047302,44.937896728515625 26.502379775047302,44.937896728515625 26.643067598342896,44.772568345069885 26.643067598342896,44.772568345069885 26.762542128562927,44.59312558174133 26.762542128562927,44.59312558174133 26.858672499656677,44.402772188186646 26.858672499656677,44.402772188186646 26.92764401435852,44.20425593852997 26.92764401435852,44.20425593852997 26.967772841453552,44.00085508823395 26.967772841453552,44.00085508823395 26.971131563186646,43.97110044956207 26.971131563186646,43.97110044956207 26.981353759765625,43.885499238967896 26.981353759765625,43.885499238967896 26.99737548828125,43.74954402446747 26.99737548828125,43.74954402446747 27.018585801124573,43.56857240200043 27.018585801124573,43.56857240200043 27.044677734375,43.34823787212372 27.044677734375,43.34823787212372 27.074891328811646,43.094101548194885 27.074891328811646,43.094101548194885 27.10830867290497,42.81120300292969 27.10830867290497,42.81120300292969 27.145081758499146,42.50549376010895 27.145081758499146,42.50549376010895 27.183380722999573,42.182159423828125 27.183380722999573,42.182159423828125 27.224120497703552,41.846925020217896 27.224120497703552,41.846925020217896 27.257081866264343,41.5383905172348 27.257081866264343,41.5383905172348 27.285155653953552,41.219788789749146 27.285155653953552,41.219788789749146 27.312317490577698,40.89408814907074 27.312317490577698,40.89408814907074 27.342072129249573,40.56442379951477 27.342072129249573,40.56442379951477 27.378541231155396,40.23384153842926 27.378541231155396,40.23384153842926 27.425536513328552,39.905473589897156 27.425536513328552,39.905473589897156 27.486419677734375,39.5822137594223 27.486419677734375,39.5822137594223 27.56546139717102,39.26727473735809 27.56546139717102,39.26727473735809 27.666321396827698,38.963547348976135 27.666321396827698,38.963547348976135 27.792969346046448,38.67431581020355 27.792969346046448,38.67431581020355 28.000640869140625,38.323137164115906 28.000640869140625,38.323137164115906 28.251954913139343,37.99911439418793 28.251954913139343,37.99911439418793 28.5400390625,37.69989013671875 28.5400390625,37.69989013671875 28.857728838920593,37.42309510707855 28.857728838920593,37.42309510707855 29.198303818702698,37.16667294502258 29.198303818702698,37.16667294502258 29.55474853515625,36.92832887172699 29.55474853515625,36.92832887172699 29.91943359375,36.70555055141449 29.91943359375,36.70555055141449 30.286407470703125,36.49635314941406 30.286407470703125,36.49635314941406 30.647888779640198,36.29814088344574 30.647888779640198,36.29814088344574 30.997315049171448,36.10900938510895 30.997315049171448,36.10900938510895 31.8511962890625,35.6536865234375 31.8511962890625,35.6536865234375 32.7127069234848,35.21133363246918 32.7127069234848,35.21133363246918 33.58032405376434,34.780579805374146 33.58032405376434,34.780579805374146 34.4534307718277,34.35989320278168 34.4534307718277,34.35989320278168 35.330963134765625,33.94790589809418 35.330963134765625,33.94790589809418 36.211854219436646,33.54324400424957 36.211854219436646,33.54324400424957 37.095338106155396,33.14414918422699 37.095338106155396,33.14414918422699 37.9800409078598,32.74948298931122 37.9800409078598,32.74948298931122 38.86520564556122,32.357484102249146 38.86520564556122,32.357484102249146 39.74975645542145,31.9671630859375 39.74975645542145,31.9671630859375 41.07315242290497,31.393128633499146 41.07315242290497,31.393128633499146 42.4081414937973,30.835342407226562 42.4081414937973,30.835342407226562 43.75366270542145,30.294951796531677 43.75366270542145,30.294951796531677 45.10864317417145,29.773178696632385 45.10864317417145,29.773178696632385 46.47201597690582,29.271242022514343 46.47201597690582,29.271242022514343 47.84271419048309,28.790435194969177 47.84271419048309,28.790435194969177 49.21936094760895,28.331604599952698 49.21936094760895,28.331604599952698 50.601500272750854,27.896347641944885 50.601500272750854,27.896347641944885 51.98730826377869,27.48558223247528 51.98730826377869,27.48558223247528 53.376466035842896,27.100831270217896 53.376466035842896,27.100831270217896 53.74695062637329,27.001801133155823 53.74695062637329,27.001801133155823 54.13147211074829,26.902008056640625 54.13147211074829,26.902008056640625 54.52667474746704,26.807785034179688 54.52667474746704,26.807785034179688 54.928743839263916,26.725158095359802 54.928743839263916,26.725158095359802 55.33493161201477,26.660537719726562 55.33493161201477,26.660537719726562 55.74173331260681,26.620253920555115 55.74173331260681,26.620253920555115 56.145477294921875,26.61033570766449 56.145477294921875,26.61033570766449 56.543272733688354,26.637345552444458 56.543272733688354,26.637345552444458 56.931304931640625,26.707306504249573 56.931304931640625,26.707306504249573 57.307130098342896,26.826784014701843 57.307130098342896,26.826784014701843 57.45758414268494,26.89208984375 57.45758414268494,26.89208984375 57.603150606155396,26.966172456741333 57.603150606155396,26.966172456741333 57.74444937705994,27.04765498638153 57.74444937705994,27.04765498638153 57.88208246231079,27.135619521141052 57.88208246231079,27.135619521141052 58.01650881767273,27.22885310649872 58.01650881767273,27.22885310649872 58.148348331451416,27.326202392578125 58.148348331451416,27.326202392578125 58.278197050094604,27.42660641670227 58.278197050094604,27.42660641670227 58.40652585029602,27.52884030342102 58.40652585029602,27.52884030342102 58.53363275527954,27.631837129592896 58.53363275527954,27.631837129592896 58.660888671875,27.734375 58.660888671875,27.734375 58.984375,27.994385361671448 58.984375,27.994385361671448 59.307557344436646,28.255081176757812 59.307557344436646,28.255081176757812 59.629976749420166,28.516387939453125 59.629976749420166,28.516387939453125 59.952086210250854,28.778076171875 59.952086210250854,28.778076171875 60.274046659469604,29.040223360061646 60.274046659469604,29.040223360061646 60.595703125,29.302749037742615 60.595703125,29.302749037742615 60.916900634765625,29.565277695655823 60.916900634765625,29.565277695655823 61.238253116607666,29.827958345413208 61.238253116607666,29.827958345413208 61.558836698532104,30.090713500976562 61.558836698532104,30.090713500976562 61.87988519668579,30.353394150733948 61.87988519668579,30.353394150733948 62.04361319541931,30.48858642578125 62.04361319541931,30.48858642578125 62.171632051467896,30.59227168560028 62.171632051467896,30.59227168560028 62.27264404296875,30.665284395217896 62.27264404296875,30.665284395217896 62.35565543174744,30.708464980125427 62.35565543174744,30.708464980125427 62.42889761924744,30.722808837890625 62.42889761924744,30.722808837890625 62.501680850982666,30.709075927734375 62.501680850982666,30.709075927734375 62.582552433013916,30.667954683303833 62.582552433013916,30.667954683303833 62.680208683013916,30.600586533546448 62.680208683013916,30.600586533546448 62.80350089073181,30.507585406303406 62.80350089073181,30.507585406303406 62.96142935752869,30.390015244483948 62.96142935752869,30.390015244483948 63.020020723342896,30.347594618797302 63.020020723342896,30.347594618797302 63.079530000686646,30.307313799858093 63.079530000686646,30.307313799858093 63.139647245407104,30.26878535747528 63.139647245407104,30.26878535747528 63.200682401657104,30.232086777687073 63.200682401657104,30.232086777687073 63.262635469436646,30.19706904888153 63.262635469436646,30.19706904888153 63.325655460357666,30.163726210594177 63.325655460357666,30.163726210594177 63.38943839073181,30.131682753562927 63.38943839073181,30.131682753562927 63.454437255859375,30.101242661476135 63.454437255859375,30.101242661476135 63.52035403251648,30.071869492530823 63.52035403251648,30.071869492530823 63.587647676467896,30.043944716453552 63.587647676467896,30.043944716453552 63.687288761138916,30.003738403320312 63.687288761138916,30.003738403320312 63.78692984580994,29.96368408203125 63.78692984580994,29.96368408203125 63.886719942092896,29.923400282859802 63.886719942092896,29.923400282859802 63.986510038375854,29.883041977882385 63.986510038375854,29.883041977882385 64.08630609512329,29.842758178710938 64.08630609512329,29.842758178710938 64.18625116348267,29.80247437953949 64.18625116348267,29.80247437953949 64.28589224815369,29.762116074562073 64.28589224815369,29.762116074562073 64.38568234443665,29.721757769584656 64.38568234443665,29.721757769584656 64.48516845703125,29.68132197856903 64.48516845703125,29.68132197856903 64.58496451377869,29.641112685203552 64.58496451377869,29.641112685203552 64.85092043876648,29.536285996437073 64.85092043876648,29.536285996437073 65.11566042900085,29.43985164165497 65.11566042900085,29.43985164165497 65.37979245185852,29.354935884475708 65.37979245185852,29.354935884475708 65.64437747001648,29.284745454788208 65.64437747001648,29.284745454788208 65.9100353717804,29.2327880859375 65.9100353717804,29.2327880859375 66.17798209190369,29.202118515968323 66.17798209190369,29.202118515968323 66.44851565361023,29.195937514305115 66.44851565361023,29.195937514305115 66.72286987304688,29.217529296875 66.72286987304688,29.217529296875 67.00180172920227,29.270172119140625 67.00180172920227,29.270172119140625 67.2863781452179,29.357299208641052 67.2863781452179,29.357299208641052 67.90496706962585,29.699555039405823 67.90496706962585,29.699555039405823 68.30276846885681,30.160218477249146 68.30276846885681,30.160218477249146 68.51654052734375,30.702820420265198 68.51654052734375,30.702820420265198 68.58276724815369,31.290969252586365 68.58276724815369,31.290969252586365 68.5382068157196,31.888428330421448 68.5382068157196,31.888428330421448 68.41964721679688,32.45887756347656 68.41964721679688,32.45887756347656 68.2635486125946,32.96569883823395 68.2635486125946,32.96569883823395 68.10653805732727,33.37280452251434 68.10653805732727,33.37280452251434 67.98538565635681,33.64357054233551 67.98538565635681,33.64357054233551 67.9370105266571,33.74206721782684 67.9370105266571,33.74206721782684 67.87857413291931,33.92433226108551 67.87857413291931,33.92433226108551 67.8845226764679,34.10324156284332 67.8845226764679,34.10324156284332 67.94113516807556,34.275054931640625 67.94113516807556,34.275054931640625 68.03451776504517,34.43596065044403 68.03451776504517,34.43596065044403 68.15124750137329,34.58236753940582 68.15124750137329,34.58236753940582 68.27774047851562,34.71054136753082 68.27774047851562,34.71054136753082 68.39966177940369,34.8165899515152 68.39966177940369,34.8165899515152 68.50372552871704,34.89700257778168 68.50372552871704,34.89700257778168 68.57635378837585,34.947893023490906 68.57635378837585,34.947893023490906 68.603515625,34.96582210063934 68.603515625,34.96582210063934 68.63647699356079,34.96841490268707 68.63647699356079,34.96841490268707 68.72772574424744,34.97818112373352 68.72772574424744,34.97818112373352 68.865966796875,34.99801754951477 68.865966796875,34.99801754951477 69.04022097587585,35.03051698207855 69.04022097587585,35.03051698207855 69.23919916152954,35.078659653663635 69.23919916152954,35.078659653663635 69.45160031318665,35.14541685581207 69.45160031318665,35.14541685581207 69.66598629951477,35.23315489292145 69.66598629951477,35.23315489292145 69.87137198448181,35.345155000686646 69.87137198448181,35.345155000686646 70.05645632743835,35.48385798931122 70.05645632743835,35.48385798931122 70.2099621295929,35.65246760845184 70.2099621295929,35.65246760845184 70.33249139785767,35.839080810546875 70.33249139785767,35.839080810546875 70.4345703125,36.029741168022156 70.4345703125,36.029741168022156 70.51987051963806,36.22375428676605 70.51987051963806,36.22375428676605 70.5920398235321,36.42028868198395 70.5920398235321,36.42028868198395 70.654296875,36.618730425834656 70.654296875,36.618730425834656 70.71090936660767,36.81846559047699 70.71090936660767,36.81846559047699 70.76477408409119,37.018585205078125 70.76477408409119,37.018585205078125 70.82000970840454,37.218475341796875 70.82000970840454,37.218475341796875 70.87982296943665,37.417298555374146 70.87982296943665,37.417298555374146 70.9484875202179,37.61474788188934 70.9484875202179,37.61474788188934 71.03714346885681,37.81799376010895 71.03714346885681,37.81799376010895 71.14014029502869,38.00384700298309 71.14014029502869,38.00384700298309 71.25458121299744,38.17627131938934 71.25458121299744,38.17627131938934 71.37680053710938,38.33969235420227 71.37680053710938,38.33969235420227 71.50344848632812,38.49838376045227 71.50344848632812,38.49838376045227 71.63131833076477,38.65669369697571 71.63131833076477,38.65669369697571 71.75659537315369,38.81866633892059 71.75659537315369,38.81866633892059 71.8762218952179,38.98864686489105 71.8762218952179,38.98864686489105 71.98654413223267,39.171066880226135 71.98654413223267,39.171066880226135 72.08496332168579,39.37011659145355 72.08496332168579,39.37011659145355 77.54883170127869,52.20703482627869 77.54883170127869,52.20703482627869 77.66693234443665,52.49878168106079 77.66693234443665,52.49878168106079 77.77084708213806,52.79129147529602 77.77084708213806,52.79129147529602 77.8564453125,53.08433771133423 77.8564453125,53.08433771133423 77.92007327079773,53.37821841239929 77.92007327079773,53.37821841239929 77.95807123184204,53.672945499420166 77.95807123184204,53.672945499420166 77.96646356582642,53.96866202354431 77.96646356582642,53.96866202354431 77.94159054756165,54.26521301269531 77.94159054756165,54.26521301269531 77.87979245185852,54.56299185752869 77.87979245185852,54.56299185752869 77.77679562568665,54.861605167388916 77.77679562568665,54.861605167388916 77.6293933391571,55.161744356155396 77.6293933391571,55.161744356155396 77.43133902549744,55.45700192451477 77.43133902549744,55.45700192451477 77.20062136650085,55.713045597076416 77.20062136650085,55.713045597076416 76.94229483604431,55.93498349189758 76.94229483604431,55.93498349189758 76.66061520576477,56.12778067588806 76.66061520576477,56.12778067588806 76.36078000068665,56.29669427871704 76.36078000068665,56.29669427871704 76.04751586914062,56.44676089286804 76.04751586914062,56.44676089286804 75.7250964641571,56.582874059677124 75.7250964641571,56.582874059677124 75.39901733398438,56.710284948349 75.39901733398438,56.710284948349 75.07339715957642,56.83388113975525 75.07339715957642,56.83388113975525 74.75342154502869,56.959229707717896 74.75342154502869,56.959229707717896 74.35241937637329,57.12127685546875 74.35241937637329,57.12127685546875 73.95126223564148,57.283324003219604 73.95126223564148,57.283324003219604 73.55011105537415,57.44537711143494 73.55011105537415,57.44537711143494 73.14895987510681,57.60734677314758 73.14895987510681,57.60734677314758 72.747802734375,57.76931643486023 72.747802734375,57.76931643486023 72.34665155410767,57.93129205703735 72.34665155410767,57.93129205703735 71.94564938545227,58.09318423271179 71.94564938545227,58.09318423271179 71.54449820518494,58.2550048828125 71.54449820518494,58.2550048828125 71.14303708076477,58.416748046875 71.14303708076477,58.416748046875 70.74218988418579,58.5784912109375 70.74218988418579,58.5784912109375 70.36423087120056,58.7249755859375 70.36423087120056,58.7249755859375 69.98504996299744,58.85528922080994 69.98504996299744,58.85528922080994 69.60541009902954,58.96202325820923 69.60541009902954,58.96202325820923 69.22637820243835,59.03778076171875 69.22637820243835,59.03778076171875 68.84933710098267,59.07531976699829 68.84933710098267,59.07531976699829 68.475341796875,59.06723141670227 68.475341796875,59.06723141670227 68.1048572063446,59.00611877441406 68.1048572063446,59.00611877441406 67.7398681640625,58.88466238975525 67.7398681640625,58.88466238975525 67.38052368164062,58.69545340538025 67.38052368164062,58.69545340538025 67.02880859375,58.43139886856079 67.02880859375,58.43139886856079 66.84509515762329,58.25332999229431 66.84509515762329,58.25332999229431 66.6821300983429,58.06030631065369 66.6821300983429,58.06030631065369 66.53686761856079,57.85453915596008 66.53686761856079,57.85453915596008 66.40670895576477,57.63809084892273 66.40670895576477,57.63809084892273 66.2890613079071,57.413482666015625 66.2890613079071,57.413482666015625 66.18118286132812,57.18277096748352 66.18118286132812,57.18277096748352 66.07986688613892,56.94824457168579 66.07986688613892,56.94824457168579 65.98297357559204,56.71219229698181 65.98297357559204,56.71219229698181 65.887451171875,56.47682547569275 65.887451171875,56.47682547569275 65.7910168170929,56.24451041221619 65.7910168170929,56.24451041221619 65.63965082168579,55.88928461074829 65.63965082168579,55.88928461074829 43.26660335063934,65.03540277481079 43.26660335063934,65.03540277481079 42.76764094829559,65.28823971748352 42.76764094829559,65.28823971748352 42.4417108297348,65.59341549873352 42.4417108297348,65.59341549873352 42.2607421875,65.93246459960938 42.2607421875,65.93246459960938 42.19604432582855,66.28654599189758 42.19604432582855,66.28654599189758 42.21939146518707,66.63727164268494 42.21939146518707,66.63727164268494 42.30224788188934,66.9659435749054 42.30224788188934,66.9659435749054 42.416077852249146,67.25395321846008 42.416077852249146,67.25395321846008 42.53280758857727,67.48268008232117 42.53280758857727,67.48268008232117 42.623138427734375,67.63351559638977 42.623138427734375,67.63351559638977 42.65991151332855,67.68798828125 42.65991151332855,67.68798828125 43.2565301656723,67.61268973350525 43.2565301656723,67.61268973350525 44.88556087017059,67.43057370185852 44.88556087017059,67.43057370185852 47.30590879917145,67.20718741416931 47.30590879917145,67.20718741416931 50.276339054107666,67.00782775878906 50.276339054107666,67.00782775878906 53.556060791015625,66.89826846122742 53.556060791015625,66.89826846122742 56.90399408340454,66.94397330284119 56.90399408340454,66.94397330284119 60.07828116416931,67.21031069755554 60.07828116416931,67.21031069755554 62.8387451171875,67.76298880577087 62.8387451171875,67.76298880577087 64.94354605674744,68.66722106933594 64.94354605674744,68.66722106933594" stroke="white" stroke-width="0.1" /><polygon points="63.22265863418579,38.26843202114105 63.22265863418579,38.26843202114105 63.04122805595398,38.35937678813934 63.04122805595398,38.35937678813934 62.88086175918579,38.47534358501434 62.88086175918579,38.47534358501434 62.74322867393494,38.6129766702652 62.74322867393494,38.6129766702652 62.629395723342896,38.768768310546875 62.629395723342896,38.768768310546875 62.54119873046875,38.93943727016449 62.54119873046875,38.93943727016449 62.48001456260681,39.12155330181122 62.48001456260681,39.12155330181122 62.446749210357666,39.31152522563934 62.446749210357666,39.31152522563934 62.44339346885681,39.506226778030396 62.44339346885681,39.506226778030396 62.471163272857666,39.70192074775696 62.471163272857666,39.70192074775696 62.531739473342896,39.8956298828125 62.531739473342896,39.8956298828125 63.640135526657104,42.64099299907684 63.640135526657104,42.64099299907684 63.731080293655396,42.822265625 63.731080293655396,42.822265625 63.847047090530396,42.98248291015625 63.847047090530396,42.98248291015625 63.984835147857666,43.12019348144531 63.984835147857666,43.12019348144531 64.1406238079071,43.233948945999146 64.1406238079071,43.233948945999146 64.3115222454071,43.32222044467926 64.3115222454071,43.32222044467926 64.4940197467804,43.38371455669403 64.4940197467804,43.38371455669403 64.68399167060852,43.41682493686676 64.68399167060852,43.41682493686676 64.87900018692017,43.42025816440582 64.87900018692017,43.42025816440582 65.07461667060852,43.39225888252258 65.07461667060852,43.39225888252258 65.26855826377869,43.3319091796875 65.26855826377869,43.3319091796875 68.1445300579071,42.169189453125 68.1445300579071,42.169189453125 68.32596063613892,42.07824766635895 68.32596063613892,42.07824766635895 68.4863269329071,41.96228086948395 68.4863269329071,41.96228086948395 68.62426996231079,41.824570298194885 68.62426996231079,41.824570298194885 68.73825192451477,41.66862666606903 68.73825192451477,41.66862666606903 68.82659792900085,41.49795472621918 68.82659792900085,41.49795472621918 68.88839602470398,41.315919160842896 68.88839602470398,41.315919160842896 68.92151236534119,41.12579524517059 68.92151236534119,41.12579524517059 68.92501711845398,40.93116819858551 68.92501711845398,40.93116819858551 68.89709830284119,40.73539674282074 68.89709830284119,40.73539674282074 68.8366711139679,40.54199159145355 68.8366711139679,40.54199159145355 67.72705316543579,37.79663145542145 67.72705316543579,37.79663145542145 67.63641238212585,37.61551082134247 67.63641238212585,37.61551082134247 67.52075552940369,37.455445528030396 67.52075552940369,37.455445528030396 67.38327145576477,37.31773495674133 67.38327145576477,37.31773495674133 67.22747683525085,37.2039794921875 67.22747683525085,37.2039794921875 67.05688834190369,37.11563050746918 67.05688834190369,37.11563050746918 66.8749988079071,37.054139375686646 66.8749988079071,37.054139375686646 66.68502688407898,37.0208740234375 66.68502688407898,37.0208740234375 66.4904773235321,37.017592787742615 66.4904773235321,37.017592787742615 66.29440188407898,37.04521358013153 66.29440188407898,37.04521358013153 66.10107421875,37.10571229457855 66.10107421875,37.10571229457855" stroke="white" stroke-width="0.1" /><polygon points="47.20947444438934,44.5037841796875 47.20947444438934,44.5037841796875 47.60421812534332,44.26841735839844 47.60421812534332,44.26841735839844 47.86010682582855,43.95866394042969 47.86010682582855,43.95866394042969 47.98828065395355,43.60244870185852 47.98828065395355,43.60244870185852 48.0001837015152,43.227845430374146 48.0001837015152,43.227845430374146 47.907257080078125,42.86308288574219 47.907257080078125,42.86308288574219 47.72079586982727,42.536163330078125 47.72079586982727,42.536163330078125 47.45193421840668,42.27485656738281 47.45193421840668,42.27485656738281 47.11242616176605,42.10754334926605 47.11242616176605,42.10754334926605 46.71310484409332,42.062073945999146 46.71310484409332,42.062073945999146 46.265870332717896,42.16674864292145 46.265870332717896,42.16674864292145 45.87143063545227,42.4020379781723 45.87143063545227,42.4020379781723 45.615845918655396,42.71194636821747 45.615845918655396,42.71194636821747 45.48797607421875,43.068161606788635 45.48797607421875,43.068161606788635 45.47607600688934,43.4426873922348 45.47607600688934,43.4426873922348 45.56899964809418,43.80744993686676 45.56899964809418,43.80744993686676 45.75561583042145,44.134521484375 45.75561583042145,44.134521484375 46.02417051792145,44.395676255226135 46.02417051792145,44.395676255226135 46.36367857456207,44.563063979148865 46.36367857456207,44.563063979148865 46.76223695278168,44.60838437080383 46.76223695278168,44.60838437080383" stroke="white" stroke-width="0.1" /><polygon points="62.08252310752869,43.27026307582855 62.08252310752869,43.27026307582855 60.97412109375,40.52307307720184 60.97412109375,40.52307307720184 60.886383056640625,40.34057557582855 60.886383056640625,40.34057557582855 60.780030488967896,40.17669856548309 60.780030488967896,40.17669856548309 60.657501220703125,40.03288447856903 60.657501220703125,40.03288447856903 60.52185297012329,39.91096615791321 60.52185297012329,39.91096615791321 60.376131534576416,39.81254696846008 60.376131534576416,39.81254696846008 60.223084688186646,39.73937928676605 60.223084688186646,39.73937928676605 60.06576418876648,39.692917466163635 60.06576418876648,39.692917466163635 59.906768798828125,39.6749883890152 59.906768798828125,39.6749883890152 59.748995304107666,39.687272906303406 59.748995304107666,39.687272906303406 59.595948457717896,39.73144590854645 59.595948457717896,39.73144590854645 59.45495963096619,39.80606198310852 59.45495963096619,39.80606198310852 59.33319330215454,39.90646302700043 59.33319330215454,39.90646302700043 59.23141837120056,40.02975523471832 59.23141837120056,40.02975523471832 59.150391817092896,40.17234742641449 59.150391817092896,40.17234742641449 59.091341495513916,40.331268310546875 59.091341495513916,40.331268310546875 59.05502438545227,40.50331115722656 59.05502438545227,40.50331115722656 59.0423583984375,40.6851202249527 59.0423583984375,40.6851202249527 59.054261445999146,40.87364375591278 59.054261445999146,40.87364375591278 59.091341495513916,41.065675020217896 59.091341495513916,41.065675020217896 59.1552734375,41.257935762405396 59.1552734375,41.257935762405396 60.264891386032104,44.00512874126434 60.264891386032104,44.00512874126434 60.35248041152954,44.18777525424957 60.35248041152954,44.18777525424957 60.45898795127869,44.35180723667145 60.45898795127869,44.35180723667145 60.58151125907898,44.49562132358551 60.58151125907898,44.49562132358551 60.71716547012329,44.617462158203125 60.71716547012329,44.617462158203125 60.862886905670166,44.71588134765625 60.862886905670166,44.71588134765625 61.01593375205994,44.78912353515625 61.01593375205994,44.78912353515625 61.173248291015625,44.83535885810852 61.173248291015625,44.83535885810852 61.33224368095398,44.85328793525696 61.33224368095398,44.85328793525696 61.48971915245056,44.84085142612457 61.48971915245056,44.84085142612457 61.64306998252869,44.7967529296875 61.64306998252869,44.7967529296875 61.783599853515625,44.72213685512543 61.783599853515625,44.72213685512543 61.905211210250854,44.62158381938934 61.905211210250854,44.62158381938934 62.006837129592896,44.498369097709656 62.006837129592896,44.498369097709656 62.08755373954773,44.35562193393707 62.08755373954773,44.35562193393707 62.14661002159119,44.19670104980469 62.14661002159119,44.19670104980469 62.18307614326477,44.02481019496918 62.18307614326477,44.02481019496918 62.195587158203125,43.842849135398865 62.195587158203125,43.842849135398865 62.18368411064148,43.65440309047699 62.18368411064148,43.65440309047699 62.146151065826416,43.462297320365906 62.146151065826416,43.462297320365906" stroke="white" stroke-width="0.1" /><polygon points="30.45654296875,38.77929747104645 30.45654296875,38.77929747104645 30.223390460014343,39.46220576763153 30.223390460014343,39.46220576763153 30.040588974952698,40.25741517543793 30.040588974952698,40.25741517543793 29.90158200263977,41.1215215921402 29.90158200263977,41.1215215921402 29.800722002983093,42.01110899448395 29.800722002983093,42.01110899448395 29.73175048828125,42.882996797561646 29.73175048828125,42.882996797561646 29.68902587890625,43.69361996650696 29.68902587890625,43.69361996650696 29.665985703468323,44.39949095249176 29.665985703468323,44.39949095249176 29.656982421875,44.9575811624527 29.656982421875,44.9575811624527 29.655763506889343,45.323944091796875 29.655763506889343,45.323944091796875 29.656982421875,45.4559326171875 29.656982421875,45.4559326171875 29.67376708984375,45.649415254592896 29.67376708984375,45.649415254592896 29.717102646827698,45.81649899482727 29.717102646827698,45.81649899482727 29.784393310546875,45.95573544502258 29.784393310546875,45.95573544502258 29.8736572265625,46.065980195999146 29.8736572265625,46.065980195999146 29.982301592826843,46.14608883857727 29.982301592826843,46.14608883857727 30.108338594436646,46.19476497173309 30.108338594436646,46.19476497173309 30.249175429344177,46.2106317281723 30.249175429344177,46.2106317281723 30.40313720703125,46.192702651023865 30.40313720703125,46.192702651023865 30.567169189453125,46.139296889305115 30.567169189453125,46.139296889305115 30.739745497703552,46.04980647563934 30.739745497703552,46.04980647563934 30.8624267578125,45.97640931606293 30.8624267578125,45.97640931606293 31.239929795265198,45.75912654399872 31.239929795265198,45.75912654399872 31.88629150390625,45.40252685546875 31.88629150390625,45.40252685546875 32.81585872173309,44.91104185581207 32.81585872173309,44.91104185581207 34.04296934604645,44.28909420967102 34.04296934604645,44.28909420967102 35.58197021484375,43.54126155376434 35.58197021484375,43.54126155376434 37.44674623012543,42.671966552734375 37.44674623012543,42.671966552734375 39.65164124965668,41.68563783168793 39.65164124965668,41.68563783168793 42.2109991312027,40.58670103549957 42.2109991312027,40.58670103549957 45.13916075229645,39.3798828125 45.13916075229645,39.3798828125 48.0844110250473,38.213881850242615 48.0844110250473,38.213881850242615 50.689393281936646,37.2262567281723 50.689393281936646,37.2262567281723 52.960968017578125,36.40403747558594 52.960968017578125,36.40403747558594 54.906463623046875,35.73387265205383 54.906463623046875,35.73387265205383 56.53290152549744,35.20286679267883 56.53290152549744,35.20286679267883 57.847750186920166,34.79782044887543 57.847750186920166,34.79782044887543 58.85772705078125,34.50561463832855 58.85772705078125,34.50561463832855 59.570616483688354,34.313127398490906 59.570616483688354,34.313127398490906 59.99252200126648,34.20707881450653 59.99252200126648,34.20707881450653 60.1318359375,34.174805879592896 60.1318359375,34.174805879592896 60.31784415245056,34.1195672750473 60.31784415245056,34.1195672750473 60.47272086143494,34.04388427734375 60.47272086143494,34.04388427734375 60.595858097076416,33.95012021064758 60.595858097076416,33.95012021064758 60.686033964157104,33.840712904930115 60.686033964157104,33.840712904930115 60.742950439453125,33.71818661689758 60.742950439453125,33.71818661689758 60.76568961143494,33.58512818813324 60.76568961143494,33.58512818813324 60.753172636032104,33.44383239746094 60.753172636032104,33.44383239746094 60.70495843887329,33.2968145608902 60.70495843887329,33.2968145608902 60.61996817588806,33.14651548862457 60.61996817588806,33.14651548862457 60.498046875,32.99560546875 60.498046875,32.99560546875 60.40710806846619,32.90000855922699 60.40710806846619,32.90000855922699 60.151976346969604,32.63702392578125 60.151976346969604,32.63702392578125 59.75799560546875,32.2418212890625 59.75799560546875,32.2418212890625 59.251099824905396,31.749877333641052 59.251099824905396,31.749877333641052 58.65737795829773,31.19659423828125 58.65737795829773,31.19659423828125 58.00262689590454,30.61729371547699 58.00262689590454,30.61729371547699 57.312166690826416,30.047303438186646 57.312166690826416,30.047303438186646 56.61224722862244,29.52217161655426 56.61224722862244,29.52217161655426 55.928343534469604,29.076996445655823 55.928343534469604,29.076996445655823 55.286866426467896,28.74755859375 55.286866426467896,28.74755859375 54.725950956344604,28.749236464500427 54.725950956344604,28.749236464500427 53.705137968063354,28.96621823310852 53.705137968063354,28.96621823310852 52.346956729888916,29.34768795967102 52.346956729888916,29.34768795967102 50.773316621780396,29.842910170555115 50.773316621780396,29.842910170555115 49.106597900390625,30.401229858398438 49.106597900390625,30.401229858398438 47.46902585029602,30.97183406352997 47.46902585029602,30.97183406352997 45.98236083984375,31.503984332084656 45.98236083984375,31.503984332084656 44.76959407329559,31.946945190429688 44.76959407329559,31.946945190429688 43.95187497138977,32.24975764751434 43.95187497138977,32.24975764751434 43.65234375,32.362061738967896 43.65234375,32.362061738967896 43.44818294048309,32.439881563186646 43.44818294048309,32.439881563186646 43.22494566440582,32.5265496969223 43.22494566440582,32.5265496969223 42.98751950263977,32.620009779930115 42.98751950263977,32.620009779930115 42.740631103515625,32.718124985694885 42.740631103515625,32.718124985694885 42.489320039749146,32.81921446323395 42.489320039749146,32.81921446323395 42.2384649515152,32.92121887207031 42.2384649515152,32.92121887207031 41.99279844760895,33.02192687988281 41.99279844760895,33.02192687988281 41.75705015659332,33.1198126077652 41.75705015659332,33.1198126077652 41.53610169887543,33.21243226528168 41.53610169887543,33.21243226528168 41.33544862270355,33.29834043979645 41.33544862270355,33.29834043979645 41.04187190532684,33.42575132846832 41.04187190532684,33.42575132846832 40.2435302734375,33.77571105957031 40.2435302734375,33.77571105957031 39.06311094760895,34.29977595806122 39.06311094760895,34.29977595806122 37.6242071390152,34.949493408203125 37.6242071390152,34.949493408203125 36.04980409145355,35.67672669887543 36.04980409145355,35.67672669887543 34.463196992874146,36.43295466899872 34.463196992874146,36.43295466899872 32.9873651266098,37.169572710990906 32.9873651266098,37.169572710990906 31.74545466899872,37.838515639305115 31.74545466899872,37.838515639305115 30.860596895217896,38.39111328125 30.860596895217896,38.39111328125" stroke="white" stroke-width="0.1" /><polygon points="33.405762910842896,56.20483756065369 33.405762910842896,56.20483756065369 33.58719050884247,56.113892793655396 33.58719050884247,56.113892793655396 33.747559785842896,55.997925996780396 33.747559785842896,55.997925996780396 33.88519287109375,55.86021542549133 33.88519287109375,55.86021542549133 33.998870849609375,55.70427179336548 33.998870849609375,55.70427179336548 34.0872198343277,55.533599853515625 34.0872198343277,55.533599853515625 34.14855897426605,55.351561307907104 34.14855897426605,55.351561307907104 34.18167233467102,55.16144037246704 34.18167233467102,55.16144037246704 34.18518006801605,54.966890811920166 34.18518006801605,54.966890811920166 34.15710628032684,54.77104187011719 34.15710628032684,54.77104187011719 34.09667909145355,54.57763671875 34.09667909145355,54.57763671875 32.98828303813934,51.832276582717896 32.98828303813934,51.832276582717896 32.89733827114105,51.651155948638916 32.89733827114105,51.651155948638916 32.78137147426605,51.491087675094604 32.78137147426605,51.491087675094604 32.64358639717102,51.35337710380554 32.64358639717102,51.35337710380554 32.48763978481293,51.23962759971619 32.48763978481293,51.23962759971619 32.31689631938934,51.151275634765625 32.31689631938934,51.151275634765625 32.134705781936646,51.08985900878906 32.134705781936646,51.08985900878906 31.944426894187927,51.05652213096619 31.944426894187927,51.05652213096619 31.749725341796875,51.053160429000854 31.749725341796875,51.053160429000854 31.553497910499573,51.08085870742798 31.553497910499573,51.08085870742798 31.35986328125,51.141357421875 31.35986328125,51.141357421875 28.483888506889343,52.3040771484375 28.483888506889343,52.3040771484375 28.302308917045593,52.39494442939758 28.302308917045593,52.39494442939758 28.142091631889343,52.51098871231079 28.142091631889343,52.51098871231079 28.00445556640625,52.648621797561646 28.00445556640625,52.648621797561646 27.890625596046448,52.80441641807556 27.890625596046448,52.80441641807556 27.802428603172302,52.97508239746094 27.802428603172302,52.97508239746094 27.741089463233948,53.157198429107666 27.741089463233948,53.157198429107666 27.70797908306122,53.34717035293579 27.70797908306122,53.34717035293579 27.704772353172302,53.54194641113281 27.704772353172302,53.54194641113281 27.73239314556122,53.737640380859375 27.73239314556122,53.737640380859375 27.792969346046448,53.93127799034119 27.792969346046448,53.93127799034119 28.901368379592896,56.67663812637329 28.901368379592896,56.67663812637329 28.992310166358948,56.85791373252869 28.992310166358948,56.85791373252869 29.108276963233948,57.01820254325867 29.108276963233948,57.01820254325867 29.24606502056122,57.155841588974 29.24606502056122,57.155841588974 29.402008652687073,57.269591093063354 29.402008652687073,57.269591093063354 29.572755098342896,57.35786557197571 29.572755098342896,57.35786557197571 29.75509762763977,57.41935968399048 29.75509762763977,57.41935968399048 29.945221543312073,57.45247006416321 29.945221543312073,57.45247006416321 30.140075087547302,57.45590329170227 30.140075087547302,57.45590329170227 30.33599853515625,57.427978515625 30.33599853515625,57.427978515625 30.52978515625,57.36755728721619 30.52978515625,57.36755728721619" stroke="white" stroke-width="0.1" /><polygon points="37.031251192092896,54.73999381065369 37.031251192092896,54.73999381065369 37.17208802700043,54.665374755859375 37.17208802700043,54.665374755859375 37.29400634765625,54.5648992061615 37.29400634765625,54.5648992061615 37.395936250686646,54.44175601005554 37.395936250686646,54.44175601005554 37.476807832717896,54.29901480674744 37.476807832717896,54.29901480674744 37.535858154296875,54.14016842842102 37.535858154296875,54.14016842842102 37.5723272562027,53.96820306777954 37.5723272562027,53.96820306777954 37.58499324321747,53.78631949424744 37.58499324321747,53.78631949424744 37.5732421875,53.59779596328735 37.5732421875,53.59779596328735 37.53555417060852,53.40568423271179 37.53555417060852,53.40568423271179 37.47192323207855,53.2135009765625 37.47192323207855,53.2135009765625 36.36230528354645,50.4669189453125 36.36230528354645,50.4669189453125 36.27471923828125,50.28427243232727 36.27471923828125,50.28427243232727 36.16821467876434,50.120240449905396 36.16821467876434,50.120240449905396 36.04568541049957,49.9765008687973 36.04568541049957,49.9765008687973 35.9100341796875,49.85458552837372 35.9100341796875,49.85458552837372 35.764312744140625,49.75616633892059 35.764312744140625,49.75616633892059 35.61142086982727,49.68307614326477 35.61142086982727,49.68307614326477 35.45379638671875,49.636611342430115 35.45379638671875,49.636611342430115 35.29510498046875,49.61883723735809 35.29510498046875,49.61883723735809 35.13732850551605,49.63111877441406 35.13732850551605,49.63111877441406 34.98413264751434,49.67529475688934 34.98413264751434,49.67529475688934 34.843140840530396,49.74990785121918 34.843140840530396,49.74990785121918 34.72137451171875,49.8504638671875 34.72137451171875,49.8504638671875 34.61959958076477,49.97360408306122 34.61959958076477,49.97360408306122 34.53872799873352,50.116199254989624 34.53872799873352,50.116199254989624 34.479522705078125,50.27511715888977 34.479522705078125,50.27511715888977 34.443360567092896,50.44716000556946 34.443360567092896,50.44716000556946 34.43054258823395,50.628894567489624 34.43054258823395,50.628894567489624 34.44229066371918,50.817567110061646 34.44229066371918,50.817567110061646 34.479522705078125,51.00944638252258 34.479522705078125,51.00944638252258 34.54345762729645,51.20178461074829 34.54345762729645,51.20178461074829 35.65307557582855,53.948974609375 35.65307557582855,53.948974609375 35.74066162109375,54.13162112236023 35.74066162109375,54.13162112236023 35.84732115268707,54.295653104782104 35.84732115268707,54.295653104782104 35.96969544887543,54.43939566612244 35.96969544887543,54.43939566612244 36.1053466796875,54.56131100654602 36.1053466796875,54.56131100654602 36.251068115234375,54.65965270996094 36.251068115234375,54.65965270996094 36.40426695346832,54.73281741142273 36.40426695346832,54.73281741142273 36.56158447265625,54.779052734375 36.56158447265625,54.779052734375 36.72042787075043,54.79675531387329 36.72042787075043,54.79675531387329 36.87790036201477,54.78416681289673 36.87790036201477,54.78416681289673" stroke="white" stroke-width="0.1" /></svg>