<?xml version="1.0" encoding="utf-8" ?>
<svg baseProfile="full" height="100.0" version="1.1" width="99.9987781047821" xmlns="http://www.w3.org/2000/svg" xmlns:ev="http://www.w3.org/2001/xml-events" xmlns:xlink="http://www.w3.org/1999/xlink"><defs><clipPath /></defs><polygon points="50.0,0.0 50.0,0.0 58.099365234375,0.6555557250976562 58.099365234375,0.6555557250976562 65.78659415245056,2.5531768798828125 65.78659415245056,2.5531768798828125 72.95791506767273,5.589142069220543 72.95791506767273,5.589142069220543 79.50958609580994,9.65961441397667 79.50958609580994,9.65961441397667 85.33798456192017,14.660950005054474 85.33798456192017,14.660950005054474 90.3393566608429,20.48942595720291 90.3393566608429,20.48942595720291 94.40963864326477,27.04128324985504 94.40963864326477,27.04128324985504 97.4456787109375,34.21283662319183 97.4456787109375,34.21283662319183 99.34303164482117,41.90025329589844 99.34303164482117,41.90025329589844 99.9987781047821,50.0 99.9987781047821,50.0 99.34318661689758,58.099669218063354 99.34318661689758,58.099669218063354 97.44552969932556,65.78720211982727 97.44552969932556,65.78720211982727 94.40971612930298,72.95875549316406 94.40971612930298,72.95875549316406 90.33927917480469,79.51057553291321 90.33927917480469,79.51057553291321 85.33798456192017,85.33905148506165 85.33798456192017,85.33905148506165 79.50965762138367,90.34042358398438 79.50965762138367,90.34042358398438 72.95791506767273,94.41086053848267 72.95791506767273,94.41086053848267 65.78666567802429,97.44682312011719 65.78666567802429,97.44682312011719 58.09928774833679,99.34433102607727 58.09928774833679,99.34433102607727 50.0,100.0 50.0,100.0 41.900330781936646,99.34440851211548 41.900330781936646,99.34440851211548 34.21280086040497,97.44682312011719 34.21280086040497,97.44682312011719 27.041321992874146,94.41086053848267 27.041321992874146,94.41086053848267 20.489349961280823,90.34042358398438 20.489349961280823,90.34042358398438 14.660950005054474,85.33905148506165 14.660950005054474,85.33905148506165 9.659653156995773,79.51065301895142 9.659653156995773,79.51065301895142 5.589065700769424,72.95883297920227 5.589065700769424,72.95883297920227 2.553253248333931,65.78720211982727 2.553253248333931,65.78720211982727 0.6554413121193647,58.099669218063354 0.6554413121193647,58.099669218063354 0.0,50.0 0.0,50.0 0.6555938627570868,41.90029203891754 0.6555938627570868,41.90029203891754 2.5531768798828125,34.21280086040497 2.5531768798828125,34.21280086040497 5.589142069220543,27.041244506835938 5.589142069220543,27.041244506835938 9.659576416015625,20.48942595720291 9.659576416015625,20.48942595720291 14.660950005054474,14.660950005054474 14.660950005054474,14.660950005054474 20.48942595720291,9.659653156995773 20.48942595720291,9.659653156995773 27.041321992874146,5.589103698730469 27.041321992874146,5.589103698730469 34.21280086040497,2.5532150641083717 34.21280086040497,2.5532150641083717 41.90017879009247,0.6555557250976562 41.90017879009247,0.6555557250976562" stroke="white" stroke-width="0.1" /><polygon points="50.0,90.00000357627869 50.0,90.00000357627869 56.488341093063354,89.47647213935852 56.488341093063354,89.47647213935852 62.64328360557556,87.9608154296875 62.64328360557556,87.9608154296875 68.38241815567017,85.53543090820312 68.38241815567017,85.53543090820312 73.62343072891235,82.28256106376648 73.62343072891235,82.28256106376648 78.28399538993835,78.28460931777954 78.28399538993835,78.28460931777954 82.28187561035156,73.62396121025085 82.28187561035156,73.62396121025085 85.53444147109985,68.38272213935852 85.53444147109985,68.38272213935852 87.95982599258423,62.6434326171875 87.95982599258423,62.6434326171875 89.47525024414062,56.488341093063354 89.47525024414062,56.488341093063354 89.99878168106079,50.0 89.99878168106079,50.0 89.47532773017883,43.51158142089844 89.47532773017883,43.51158142089844 87.95974850654602,37.3565673828125 87.95974850654602,37.3565673828125 85.53451895713806,31.61728084087372 85.53451895713806,31.61728084087372 82.28179812431335,26.376113295555115 82.28179812431335,26.376113295555115 78.28399538993835,21.715393662452698 78.28399538993835,21.715393662452698 73.62343072891235,17.7174374461174 73.62343072891235,17.7174374461174 68.38249564170837,14.46453183889389 68.38249564170837,14.46453183889389 62.64335513114929,12.039146572351456 62.64335513114929,12.039146572351456 56.488341093063354,10.523529350757599 56.488341093063354,10.523529350757599 50.0,10.000000149011612 50.0,10.000000149011612 43.512192368507385,10.523491352796555 43.512192368507385,10.523491352796555 37.3574823141098,12.039146572351456 37.3574823141098,12.039146572351456 31.618425250053406,14.464569091796875 31.618425250053406,14.464569091796875 26.377183198928833,17.7174374461174 26.377183198928833,17.7174374461174 21.71630859375,21.715393662452698 21.71630859375,21.715393662452698 17.718277871608734,26.37615203857422 17.718277871608734,26.37615203857422 14.464950561523438,31.617316603660583 14.464950561523438,31.617316603660583 12.039337307214737,37.356606125831604 12.039337307214737,37.356606125831604 10.52345260977745,43.51150691509247 10.52345260977745,43.51150691509247 10.000000149011612,50.0 10.000000149011612,50.0 10.523529350757599,56.48841857910156 10.523529350757599,56.48841857910156 12.039413303136826,62.6434326171875 12.039413303136826,62.6434326171875 14.465026557445526,68.38272213935852 14.465026557445526,68.38272213935852 17.718124389648438,73.62381219863892 17.718124389648438,73.62381219863892 21.71630859375,78.28460931777954 21.71630859375,78.28460931777954 26.377183198928833,82.28263854980469 26.377183198928833,82.28263854980469 31.618347764015198,85.53543090820312 31.618347764015198,85.53543090820312 37.35755980014801,87.96089291572571 37.35755980014801,87.96089291572571 43.51211488246918,89.47647213935852 43.51211488246918,89.47647213935852" stroke="white" stroke-width="0.1" /></svg>