<?xml version="1.0" encoding="utf-8" ?>
<svg baseProfile="full" height="85.12039184570312" version="1.1" width="64.00543451309204" xmlns="http://www.w3.org/2000/svg" xmlns:ev="http://www.w3.org/2001/xml-events" xmlns:xlink="http://www.w3.org/1999/xlink"><defs><clipPath /></defs><polygon points="62.66846060752869,82.91687369346619 62.66846060752869,82.91687369346619 62.028807401657104,83.67889523506165 62.028807401657104,83.67889523506165 61.34399771690369,84.25033688545227 61.34399771690369,84.25033688545227 60.63476800918579,84.65561270713806 60.63476800918579,84.65561270713806 59.922945499420166,84.91935729980469 59.922945499420166,84.91935729980469 59.229737520217896,85.06607413291931 59.229737520217896,85.06607413291931 58.576661348342896,85.12039184570312 58.576661348342896,85.12039184570312 57.98477530479431,85.10665893554688 57.98477530479431,85.10665893554688 57.475584745407104,85.04967093467712 57.475584745407104,85.04967093467712 57.07046389579773,84.97375845909119 57.07046389579773,84.97375845909119 56.79077506065369,84.90356802940369 56.79077506065369,84.90356802940369 56.069642305374146,84.67979431152344 56.069642305374146,84.67979431152344 55.420684814453125,84.39483642578125 55.420684814453125,84.39483642578125 54.84512448310852,84.0545654296875 54.84512448310852,84.0545654296875 54.34402823448181,83.66500735282898 54.34402823448181,83.66500735282898 53.91907095909119,83.23211669921875 53.91907095909119,83.23211669921875 53.57162356376648,82.7619194984436 53.57162356376648,82.7619194984436 53.30261588096619,82.26028680801392 53.30261588096619,82.26028680801392 53.113555908203125,81.73324465751648 53.113555908203125,81.73324465751648 53.005677461624146,81.18675351142883 53.005677461624146,81.18675351142883 52.98095941543579,80.62683343887329 52.98095941543579,80.62683343887329 53.043824434280396,79.86359000205994 53.043824434280396,79.86359000205994 53.199005126953125,79.10308837890625 53.199005126953125,79.10308837890625 53.43521237373352,78.34815979003906 53.43521237373352,78.34815979003906 53.741759061813354,77.60162353515625 53.741759061813354,77.60162353515625 54.107666015625,76.86614990234375 54.107666015625,76.86614990234375 54.521942138671875,76.14464163780212 54.521942138671875,76.14464163780212 54.97345328330994,75.43991208076477 54.97345328330994,75.43991208076477 55.45150637626648,74.75448846817017 55.45150637626648,74.75448846817017 55.94467520713806,74.09133911132812 55.94467520713806,74.09133911132812 56.44287467002869,73.45337271690369 56.44287467002869,73.45337271690369 56.684112548828125,73.15956354141235 56.684112548828125,73.15956354141235 56.92383050918579,72.87430167198181 56.92383050918579,72.87430167198181 57.16080069541931,72.5982666015625 57.16080069541931,72.5982666015625 57.39395022392273,72.33185172080994 57.39395022392273,72.33185172080994 57.62268304824829,72.07580804824829 57.62268304824829,72.07580804824829 57.845765352249146,71.83060050010681 57.845765352249146,71.83060050010681 58.06183218955994,71.59668207168579 58.06183218955994,71.59668207168579 58.270263671875,71.37489318847656 58.270263671875,71.37489318847656 58.46969485282898,71.16546630859375 58.46969485282898,71.16546630859375 58.659666776657104,70.96924185752869 58.659666776657104,70.96924185752869 58.29925537109375,70.97007632255554 58.29925537109375,70.97007632255554 57.95273184776306,70.94208002090454 57.95273184776306,70.94208002090454 57.62283205986023,70.8856999874115 57.62283205986023,70.8856999874115 57.31262564659119,70.80124020576477 57.31262564659119,70.80124020576477 57.02499747276306,70.68924307823181 57.02499747276306,70.68924307823181 56.762999296188354,70.55007815361023 56.762999296188354,70.55007815361023 56.529539823532104,70.3839898109436 56.529539823532104,70.3839898109436 56.32767081260681,70.19149661064148 56.32767081260681,70.19149661064148 56.160128116607666,69.97299194335938 56.160128116607666,69.97299194335938 56.0302734375,69.72900629043579 56.0302734375,69.72900629043579 56.01348876953125,69.6887195110321 56.01348876953125,69.6887195110321 55.998384952545166,69.64805722236633 55.998384952545166,69.64805722236633 55.984652042388916,69.60708498954773 55.984652042388916,69.60708498954773 55.97214102745056,69.56573724746704 55.97214102745056,69.56573724746704 55.96100091934204,69.52415704727173 55.96100091934204,69.52415704727173 55.951082706451416,69.482421875 55.951082706451416,69.482421875 55.9417724609375,69.44031119346619 55.9417724609375,69.44031119346619 55.93368411064148,69.3981945514679 55.93368411064148,69.3981945514679 55.92590570449829,69.35577392578125 55.92590570449829,69.35577392578125 55.919188261032104,69.3133533000946 55.919188261032104,69.3133533000946 55.548095703125,69.38583254814148 55.548095703125,69.38583254814148 55.182188749313354,69.41421627998352 55.182188749313354,69.41421627998352 54.82635498046875,69.39972043037415 54.82635498046875,69.39972043037415 54.48517203330994,69.34372186660767 54.48517203330994,69.34372186660767 54.163819551467896,69.24766898155212 54.163819551467896,69.24766898155212 53.866881132125854,69.11285519599915 53.866881132125854,69.11285519599915 53.599244356155396,68.94058585166931 53.599244356155396,68.94058585166931 53.36562991142273,68.73230338096619 53.36562991142273,68.73230338096619 53.170931339263916,68.48922967910767 53.170931339263916,68.48922967910767 53.020018339157104,68.212890625 53.020018339157104,68.212890625 52.938997745513916,67.98446774482727 52.938997745513916,67.98446774482727 52.89139151573181,67.75116324424744 52.89139151573181,67.75116324424744 52.87613272666931,67.51472353935242 52.87613272666931,67.51472353935242 52.891695499420166,67.27706789970398 52.891695499420166,67.27706789970398 52.93716788291931,67.04017519950867 52.93716788291931,67.04017519950867 53.01147699356079,66.80595278739929 53.01147699356079,66.80595278739929 53.11264395713806,66.57623648643494 53.11264395713806,66.57623648643494 53.24035882949829,66.3531482219696 53.24035882949829,66.3531482219696 53.392791748046875,66.13830924034119 53.392791748046875,66.13830924034119 53.569334745407104,65.93384146690369 53.569334745407104,65.93384146690369 53.29681634902954,65.91598391532898 53.29681634902954,65.91598391532898 53.033447265625,65.87425470352173 53.033447265625,65.87425470352173 52.78121829032898,65.80910086631775 52.78121829032898,65.80910086631775 52.542269229888916,65.7208263874054 52.542269229888916,65.7208263874054 52.319031953811646,65.61020016670227 52.319031953811646,65.61020016670227 52.113646268844604,65.47760367393494 52.113646268844604,65.47760367393494 51.927947998046875,65.32333493232727 51.927947998046875,65.32333493232727 51.76483392715454,65.14808535575867 51.76483392715454,65.14808535575867 51.625823974609375,64.95216488838196 51.625823974609375,64.95216488838196 51.513671875,64.73633050918579 51.513671875,64.73633050918579 51.43265128135681,64.50821161270142 51.43265128135681,64.50821161270142 51.385194063186646,64.27497863769531 51.385194063186646,64.27497863769531 51.369935274124146,64.03854489326477 51.369935274124146,64.03854489326477 51.385802030563354,63.800811767578125 51.385802030563354,63.800811767578125 51.431429386138916,63.563841581344604 51.431429386138916,63.563841581344604 51.505738496780396,63.3295476436615 51.505738496780396,63.3295476436615 51.60736441612244,63.09967041015625 51.60736441612244,63.09967041015625 51.735228300094604,62.87643313407898 51.735228300094604,62.87643313407898 51.887816190719604,62.66159415245056 51.887816190719604,62.66159415245056 52.064210176467896,62.457275390625 52.064210176467896,62.457275390625 51.791685819625854,62.44010925292969 51.791685819625854,62.44010925292969 51.528167724609375,62.39883303642273 51.528167724609375,62.39883303642273 51.275634765625,62.333983182907104 51.275634765625,62.333983182907104 51.036226749420166,62.24609613418579 51.036226749420166,62.24609613418579 50.812530517578125,62.135547399520874 50.812530517578125,62.135547399520874 50.60669183731079,62.00302243232727 50.60669183731079,62.00302243232727 50.42053461074829,61.84883117675781 50.42053461074829,61.84883117675781 50.25680661201477,61.673736572265625 50.25680661201477,61.673736572265625 50.11749267578125,61.477893590927124 50.11749267578125,61.477893590927124 50.004881620407104,61.262208223342896 50.004881620407104,61.262208223342896 49.92569088935852,61.03828549385071 49.92569088935852,61.03828549385071 49.87854063510895,60.80940365791321 49.87854063510895,60.80940365791321 49.86221492290497,60.577392578125 49.86221492290497,60.577392578125 49.87548887729645,60.34393310546875 49.87548887729645,60.34393310546875 49.9176025390625,60.11115908622742 49.9176025390625,60.11115908622742 49.98733699321747,59.88075137138367 49.98733699321747,59.88075137138367 50.08331537246704,59.654468297958374 50.08331537246704,59.654468297958374 50.204771757125854,59.434205293655396 50.204771757125854,59.434205293655396 50.35004019737244,59.22180414199829 50.35004019737244,59.22180414199829 50.518798828125,59.019166231155396 50.518798828125,59.019166231155396 49.17587339878082,57.68394470214844 49.17587339878082,57.68394470214844 47.81906306743622,56.096649169921875 47.81906306743622,56.096649169921875 46.45675718784332,54.290467500686646 46.45675718784332,54.290467500686646 45.09735107421875,52.298736572265625 45.09735107421875,52.298736572265625 43.749237060546875,50.154876708984375 43.749237060546875,50.154876708984375 42.42126643657684,47.8921502828598 42.42126643657684,47.8921502828598 41.12121760845184,45.543670654296875 41.12121760845184,45.543670654296875 39.85839784145355,43.14300715923309 39.85839784145355,43.14300715923309 38.640594482421875,40.72318971157074 38.640594482421875,40.72318971157074 37.476807832717896,38.31787109375 37.476807832717896,38.31787109375 33.050537109375,38.76586854457855 33.050537109375,38.76586854457855 33.041077852249146,38.766708970069885 33.041077852249146,38.766708970069885 33.03161561489105,38.76747190952301 33.03161561489105,38.76747190952301 33.022308349609375,38.76815736293793 33.022308349609375,38.76815736293793 33.01284909248352,38.768693804740906 33.01284909248352,38.768693804740906 33.00354182720184,38.76914978027344 33.00354182720184,38.76914978027344 32.99438655376434,38.76953125 32.99438655376434,38.76953125 32.98492431640625,38.76983821392059 32.98492431640625,38.76983821392059 32.975465059280396,38.770028948783875 32.975465059280396,38.770028948783875 32.9660028219223,38.770028948783875 32.9660028219223,38.770028948783875 32.95654356479645,38.77014219760895 32.95654356479645,38.77014219760895 32.8500360250473,38.7643426656723 32.8500360250473,38.7643426656723 32.74597227573395,38.747140765190125 32.74597227573395,38.747140765190125 32.64496028423309,38.71906399726868 32.64496028423309,38.71906399726868 32.548218965530396,38.68049681186676 32.548218965530396,38.68049681186676 32.456207275390625,38.631898164749146 32.456207275390625,38.631898164749146 32.37014710903168,38.573724031448364 32.37014710903168,38.573724031448364 32.290345430374146,38.50635588169098 32.290345430374146,38.50635588169098 32.2183221578598,38.43033015727997 32.2183221578598,38.43033015727997 32.1542352437973,38.345909118652344 32.1542352437973,38.345909118652344 32.099610567092896,38.2537841796875 32.099610567092896,38.2537841796875 32.05154538154602,38.14735412597656 32.05154538154602,38.14735412597656 32.017213106155396,38.037338852882385 32.017213106155396,38.037338852882385 31.996306777000427,37.92499601840973 31.996306777000427,37.92499601840973 31.988677382469177,37.81158626079559 31.988677382469177,37.81158626079559 31.994476914405823,37.69828975200653 31.994476914405823,37.69828975200653 32.01355040073395,37.58651912212372 32.01355040073395,37.58651912212372 32.04528987407684,37.47738003730774 32.04528987407684,37.47738003730774 32.0901483297348,37.37224638462067 32.0901483297348,37.37224638462067 32.14752376079559,37.27230131626129 32.14752376079559,37.27230131626129 32.21801817417145,37.17895448207855 32.21801817417145,37.17895448207855 35.291749238967896,33.570557832717896 35.291749238967896,33.570557832717896 35.224610567092896,33.419495820999146 35.224610567092896,33.419495820999146 35.15792787075043,33.26911926269531 35.15792787075043,33.26911926269531 35.09170711040497,33.119431138038635 35.09170711040497,33.119431138038635 35.0259393453598,32.970428466796875 35.0259393453598,32.970428466796875 34.960633516311646,32.82203674316406 34.960633516311646,32.82203674316406 34.89578366279602,32.6742947101593 34.89578366279602,32.6742947101593 34.830933809280396,32.52704739570618 34.830933809280396,32.52704739570618 34.76669490337372,32.380411028862 34.76669490337372,32.380411028862 34.7024530172348,32.23419189453125 34.7024530172348,32.23419189453125 34.638673067092896,32.08862245082855 34.638673067092896,32.08862245082855 29.434815049171448,31.8756103515625 29.434815049171448,31.8756103515625 29.318389296531677,31.86294734477997 29.318389296531677,31.86294734477997 29.205933213233948,31.836777925491333 29.205933213233948,31.836777925491333 29.098206758499146,31.797868013381958 29.098206758499146,31.797868013381958 28.99627685546875,31.74690306186676 28.99627685546875,31.74690306186676 28.901061415672302,31.68480098247528 28.901061415672302,31.68480098247528 28.813782334327698,31.61216676235199 28.813782334327698,31.61216676235199 28.7353515625,31.529808044433594 28.7353515625,31.529808044433594 28.666993975639343,31.43840730190277 28.666993975639343,31.43840730190277 28.608855605125427,31.33876919746399 28.608855605125427,31.33876919746399 28.563234210014343,31.231689453125 28.563234210014343,31.231689453125 28.531494736671448,31.119003891944885 28.531494736671448,31.119003891944885 28.51364314556122,31.004831194877625 28.51364314556122,31.004831194877625 28.509521484375,30.89035153388977 28.509521484375,30.89035153388977 28.518524765968323,30.776825547218323 28.518524765968323,30.776825547218323 28.540802001953125,30.665436387062073 28.540802001953125,30.665436387062073 28.575897216796875,30.55751919746399 28.575897216796875,30.55751919746399 28.623351454734802,30.45414090156555 28.623351454734802,30.45414090156555 28.683167695999146,30.356714129447937 28.683167695999146,30.356714129447937 28.754577040672302,30.266305804252625 28.754577040672302,30.266305804252625 28.837892413139343,30.184325575828552 28.837892413139343,30.184325575828552 32.838135957717896,26.682740449905396 32.838135957717896,26.682740449905396 32.626038789749146,25.176316499710083 32.626038789749146,25.176316499710083 32.57583677768707,23.77372831106186 32.57583677768707,23.77372831106186 32.679444551467896,22.477416694164276 32.679444551467896,22.477416694164276 32.928466796875,21.289940178394318 32.928466796875,21.289940178394318 33.3160400390625,20.21385282278061 33.3160400390625,20.21385282278061 33.83361995220184,19.251632690429688 33.83361995220184,19.251632690429688 34.47326719760895,18.405799567699432 34.47326719760895,18.405799567699432 35.22705137729645,17.678871750831604 35.22705137729645,17.678871750831604 36.08718812465668,17.073288559913635 36.08718812465668,17.073288559913635 37.04589903354645,16.59179776906967 37.04589903354645,16.59179776906967 38.08471858501434,16.244660317897797 38.08471858501434,16.244660317897797 39.14642333984375,16.058503091335297 39.14642333984375,16.058503091335297 40.22369384765625,16.037368774414062 40.22369384765625,16.037368774414062 41.308289766311646,16.185341775417328 41.308289766311646,16.185341775417328 42.39303767681122,16.506576538085938 42.39303767681122,16.506576538085938 43.4701532125473,17.00512021780014 43.4701532125473,17.00512021780014 44.53125,17.68501251935959 44.53125,17.68501251935959 45.56945860385895,18.550415337085724 45.56945860385895,18.550415337085724 46.57653868198395,19.60529386997223 46.57653868198395,19.60529386997223 47.54516780376434,20.853881537914276 47.54516780376434,20.853881537914276 52.04223990440369,20.526733994483948 52.04223990440369,20.526733994483948 52.158814668655396,20.52513211965561 52.158814668655396,20.52513211965561 52.27341055870056,20.537643134593964 52.27341055870056,20.537643134593964 52.384644746780396,20.563583076000214 52.384644746780396,20.563583076000214 52.49176025390625,20.602265000343323 52.49176025390625,20.602265000343323 52.59353518486023,20.653000473976135 52.59353518486023,20.653000473976135 52.688902616500854,20.715294778347015 52.688902616500854,20.715294778347015 52.77618765830994,20.788346230983734 52.77618765830994,20.788346230983734 52.85491943359375,20.871658623218536 52.85491943359375,20.871658623218536 52.923280000686646,20.964431762695312 52.923280000686646,20.964431762695312 52.98095941543579,21.0662841796875 52.98095941543579,21.0662841796875 53.025513887405396,21.174240112304688 53.025513887405396,21.174240112304688 53.056490421295166,21.28540128469467 53.056490421295166,21.28540128469467 53.07373404502869,21.398353576660156 53.07373404502869,21.398353576660156 53.077393770217896,21.511955559253693 53.077393770217896,21.511955559253693 53.06793451309204,21.624909341335297 53.06793451309204,21.624909341335297 53.045350313186646,21.736030280590057 53.045350313186646,21.736030280590057 53.00964713096619,21.843986213207245 53.00964713096619,21.843986213207245 52.961426973342896,21.94763273000717 52.961426973342896,21.94763273000717 52.900391817092896,22.045592963695526 52.900391817092896,22.045592963695526 52.827149629592896,22.13684171438217 52.827149629592896,22.13684171438217 49.952393770217896,25.312501192092896 49.952393770217896,25.312501192092896 50.043028593063354,25.523605942726135 50.043028593063354,25.523605942726135 50.13427734375,25.736162066459656 50.13427734375,25.736162066459656 50.225985050201416,25.950127840042114 50.225985050201416,25.950127840042114 50.31799674034119,26.165542006492615 50.31799674034119,26.165542006492615 50.41046142578125,26.3824462890625 50.41046142578125,26.3824462890625 50.5035400390625,26.60083770751953 50.5035400390625,26.60083770751953 50.59646964073181,26.82064175605774 50.59646964073181,26.82064175605774 50.690001249313354,27.041932940483093 50.690001249313354,27.041932940483093 50.783538818359375,27.26467251777649 50.783538818359375,27.26467251777649 50.877684354782104,27.489015460014343 50.877684354782104,27.489015460014343 54.829102754592896,27.7679443359375 54.829102754592896,27.7679443359375 54.945069551467896,27.782973647117615 54.945069551467896,27.782973647117615 55.0567626953125,27.811509370803833 55.0567626953125,27.811509370803833 55.162811279296875,27.852782607078552 55.162811279296875,27.852782607078552 55.26275634765625,27.906036376953125 55.26275634765625,27.906036376953125 55.355530977249146,27.97043025493622 55.355530977249146,27.97043025493622 55.44021725654602,28.045350313186646 55.44021725654602,28.045350313186646 55.51559329032898,28.12984585762024 55.51559329032898,28.12984585762024 55.58120608329773,28.22330594062805 55.58120608329773,28.22330594062805 55.635833740234375,28.324851393699646 55.635833740234375,28.324851393699646 55.67871332168579,28.433838486671448 55.67871332168579,28.433838486671448 55.70770502090454,28.547975420951843 55.70770502090454,28.547975420951843 55.72265982627869,28.662872314453125 55.72265982627869,28.662872314453125 55.723875761032104,28.777390718460083 55.723875761032104,28.777390718460083 55.71136474609375,28.89045774936676 55.71136474609375,28.89045774936676 55.68588376045227,29.0008544921875 55.68588376045227,29.0008544921875 55.64773678779602,29.10747528076172 55.64773678779602,29.10747528076172 55.596923828125,29.209062457084656 55.596923828125,29.209062457084656 55.53421378135681,29.304543137550354 55.53421378135681,29.304543137550354 55.45944571495056,29.3927401304245 55.45944571495056,29.3927401304245 55.37353754043579,29.472658038139343 55.37353754043579,29.472658038139343 52.613526582717896,31.752929091453552 52.613526582717896,31.752929091453552 53.58230471611023,34.26147401332855 53.58230471611023,34.26147401332855 54.52514886856079,36.82129085063934 54.52514886856079,36.82129085063934 55.423277616500854,39.40238952636719 55.423277616500854,39.40238952636719 56.257325410842896,41.97486937046051 56.257325410842896,41.97486937046051 57.00836181640625,44.50874328613281 57.00836181640625,44.50874328613281 57.65731930732727,46.97418212890625 57.65731930732727,46.97418212890625 58.184814453125,49.34127926826477 58.184814453125,49.34127926826477 58.572083711624146,51.57997012138367 58.572083711624146,51.57997012138367 58.79959464073181,53.66043448448181 58.79959464073181,53.66043448448181 58.848875761032104,55.552977323532104 58.848875761032104,55.552977323532104 59.114229679107666,55.57464957237244 59.114229679107666,55.57464957237244 59.37088131904602,55.61943054199219 59.37088131904602,55.61943054199219 59.61654782295227,55.686646699905396 59.61654782295227,55.686646699905396 59.84894037246704,55.77591061592102 59.84894037246704,55.77591061592102 60.06622314453125,55.88669180870056 60.06622314453125,55.88669180870056 60.266268253326416,56.01860284805298 60.266268253326416,56.01860284805298 60.446470975875854,56.170958280563354 60.446470975875854,56.170958280563354 60.60531735420227,56.34353756904602 60.60531735420227,56.34353756904602 60.740357637405396,56.535494327545166 60.740357637405396,56.535494327545166 60.84961295127869,56.74682855606079 60.84961295127869,56.74682855606079 60.930025577545166,56.97616934776306 60.930025577545166,56.97616934776306 60.977327823638916,57.21039175987244 60.977327823638916,57.21039175987244 60.992586612701416,57.447510957717896 60.992586612701416,57.447510957717896 60.976868867874146,57.68570303916931 60.976868867874146,57.68570303916931 60.931551456451416,57.92289972305298 60.931551456451416,57.92289972305298 60.857850313186646,58.1573486328125 60.857850313186646,58.1573486328125 60.75653433799744,58.38714838027954 60.75653433799744,58.38714838027954 60.62912344932556,58.610230684280396 60.62912344932556,58.610230684280396 60.47653555870056,58.82477164268494 60.47653555870056,58.82477164268494 60.30029654502869,59.028929471969604 60.30029654502869,59.028929471969604 60.57281494140625,59.04640555381775 60.57281494140625,59.04640555381775 60.83633303642273,59.087830781936646 60.83633303642273,59.087830781936646 61.08902096748352,59.15283560752869 61.08902096748352,59.15283560752869 61.328125,59.24072265625 61.328125,59.24072265625 61.55182123184204,59.351348876953125 61.55182123184204,59.351348876953125 61.75781488418579,59.48402285575867 61.75781488418579,59.48402285575867 61.94351315498352,59.638214111328125 61.94351315498352,59.638214111328125 62.107086181640625,59.813690185546875 62.107086181640625,59.813690185546875 62.245941162109375,60.00961661338806 62.245941162109375,60.00961661338806 62.358397245407104,60.22583246231079 62.358397245407104,60.22583246231079 62.43881583213806,60.453951358795166 62.43881583213806,60.453951358795166 62.48611807823181,60.687255859375 62.48611807823181,60.687255859375 62.50137686729431,60.9235405921936 62.50137686729431,60.9235405921936 62.48565912246704,61.161041259765625 62.48565912246704,61.161041259765625 62.44034171104431,61.39785647392273 62.44034171104431,61.39785647392273 62.36664056777954,61.631929874420166 62.36664056777954,61.631929874420166 62.265318632125854,61.861419677734375 62.265318632125854,61.861419677734375 62.13790774345398,62.08435297012329 62.13790774345398,62.08435297012329 61.98531985282898,62.298887968063354 61.98531985282898,62.298887968063354 61.809080839157104,62.5030517578125 61.809080839157104,62.5030517578125 62.08099722862244,62.520599365234375 62.08099722862244,62.520599365234375 62.3443603515625,62.56217956542969 62.3443603515625,62.56217956542969 62.596434354782104,62.62726187705994 62.596434354782104,62.62726187705994 62.83523440361023,62.715452909469604 62.83523440361023,62.715452909469604 63.0584716796875,62.82615661621094 63.0584716796875,62.82615661621094 63.264161348342896,62.958985567092896 63.264161348342896,62.958985567092896 63.44971060752869,63.113099336624146 63.44971060752869,63.113099336624146 63.613128662109375,63.28842043876648 63.613128662109375,63.28842043876648 63.75213861465454,63.48411440849304 63.75213861465454,63.48411440849304 63.86474967002869,63.69995474815369 63.86474967002869,63.69995474815369 63.96240592002869,63.99818658828735 63.96240592002869,63.99818658828735 64.00543451309204,64.30412530899048 64.00543451309204,64.30412530899048 63.995665311813354,64.61349725723267 63.995665311813354,64.61349725723267 63.93585205078125,64.92180228233337 63.93585205078125,64.92180228233337 63.828277587890625,65.22483825683594 63.828277587890625,65.22483825683594 63.67538571357727,65.51834344863892 63.67538571357727,65.51834344863892 63.47946524620056,65.7977283000946 63.47946524620056,65.7977283000946 63.24295401573181,66.05903506278992 63.24295401573181,66.05903506278992 62.96798586845398,66.2976086139679 62.96798586845398,66.2976086139679 62.657469511032104,66.50940179824829 62.657469511032104,66.50940179824829 62.683868408203125,66.54343008995056 62.683868408203125,66.54343008995056 62.709808349609375,66.57791137695312 62.709808349609375,66.57791137695312 62.7349853515625,66.61278009414673 62.7349853515625,66.61278009414673 62.7593994140625,66.64810180664062 62.7593994140625,66.64810180664062 62.783050537109375,66.68403744697571 62.783050537109375,66.68403744697571 62.805938720703125,66.7205810546875 62.805938720703125,66.7205810546875 62.827301025390625,66.75773859024048 62.827301025390625,66.75773859024048 62.848055362701416,66.7956531047821 62.848055362701416,66.7956531047821 62.867432832717896,66.83425903320312 62.867432832717896,66.83425903320312 62.885743379592896,66.87378287315369 62.885743379592896,66.87378287315369 62.98614740371704,67.1893298625946 62.98614740371704,67.1893298625946 63.02322745323181,67.51648187637329 63.02322745323181,67.51648187637329 62.99942135810852,67.85110831260681 62.99942135810852,67.85110831260681 62.917786836624146,68.18909049034119 62.917786836624146,68.18909049034119 62.78122067451477,68.52645874023438 62.78122067451477,68.52645874023438 62.592774629592896,68.85910034179688 62.592774629592896,68.85910034179688 62.35489249229431,69.18258666992188 62.35489249229431,69.18258666992188 62.07107901573181,69.49333548545837 62.07107901573181,69.49333548545837 61.743319034576416,69.78683471679688 61.743319034576416,69.78683471679688 61.375731229782104,70.0592041015625 61.375731229782104,70.0592041015625 61.455076932907104,70.13641595840454 61.455076932907104,70.13641595840454 61.529844999313354,70.21652460098267 61.529844999313354,70.21652460098267 61.60034537315369,70.29922604560852 61.60034537315369,70.29922604560852 61.66748404502869,70.3845202922821 61.66748404502869,70.3845202922821 61.731719970703125,70.47218680381775 61.731719970703125,70.47218680381775 61.793822050094604,70.56228518486023 61.793822050094604,70.56228518486023 61.85440421104431,70.654296875 61.85440421104431,70.654296875 61.914217472076416,70.74851989746094 61.914217472076416,70.74851989746094 61.97357177734375,70.84442377090454 61.97357177734375,70.84442377090454 62.03369498252869,70.9423840045929 62.03369498252869,70.9423840045929 62.122803926467896,71.11129760742188 62.122803926467896,71.11129760742188 62.20993399620056,71.2878406047821 62.20993399620056,71.2878406047821 62.29507327079773,71.47156000137329 62.29507327079773,71.47156000137329 62.378233671188354,71.6625988483429 62.378233671188354,71.6625988483429 62.45941519737244,71.86065912246704 62.45941519737244,71.86065912246704 62.53876090049744,72.06565737724304 62.53876090049744,72.06565737724304 62.61581778526306,72.27722406387329 62.61581778526306,72.27722406387329 62.691038846969604,72.49550223350525 62.691038846969604,72.49550223350525 62.764281034469604,72.72011041641235 62.764281034469604,72.72011041641235 62.835693359375,72.9510486125946 62.835693359375,72.9510486125946 62.971800565719604,73.42880368232727 62.971800565719604,73.42880368232727 63.098907470703125,73.92715811729431 63.098907470703125,73.92715811729431 63.21563720703125,74.44359064102173 63.21563720703125,74.44359064102173 63.3209228515625,74.97550845146179 63.3209228515625,74.97550845146179 63.413238525390625,75.52047967910767 63.413238525390625,75.52047967910767 63.4918212890625,76.07589960098267 63.4918212890625,76.07589960098267 63.554686307907104,76.63917541503906 63.554686307907104,76.63917541503906 63.601380586624146,77.20779776573181 63.601380586624146,77.20779776573181 63.63006830215454,77.77908444404602 63.63006830215454,77.77908444404602 63.640135526657104,78.350830078125 63.640135526657104,78.350830078125 63.63571286201477,78.84231805801392 63.63571286201477,78.84231805801392 63.621824979782104,79.33456301689148 63.621824979782104,79.33456301689148 63.593751192092896,79.82422113418579 63.593751192092896,79.82422113418579 63.54781985282898,80.30815124511719 63.54781985282898,80.30815124511719 63.479769229888916,80.78331351280212 63.479769229888916,80.78331351280212 63.38592767715454,81.24656677246094 63.38592767715454,81.24656677246094 63.261717557907104,81.69464468955994 63.261717557907104,81.69464468955994 63.103485107421875,82.12448358535767 63.103485107421875,82.12448358535767 62.90695071220398,82.53288269042969 62.90695071220398,82.53288269042969" stroke="white" stroke-width="0.1" /><polygon points="61.69067621231079,77.9632568359375 61.69067621231079,77.9632568359375 61.608123779296875,77.23914980888367 61.608123779296875,77.23914980888367 61.48574948310852,76.46889090538025 61.48574948310852,76.46889090538025 61.334532499313354,75.68130493164062 61.334532499313354,75.68130493164062 61.1663818359375,74.90509152412415 61.1663818359375,74.90509152412415 60.992431640625,74.16931390762329 60.992431640625,74.16931390762329 60.82443594932556,73.50265383720398 60.82443594932556,73.50265383720398 60.673826932907104,72.9339599609375 60.673826932907104,72.9339599609375 60.55206656455994,72.49206900596619 60.55206656455994,72.49206900596619 60.470277070999146,72.20565676689148 60.470277070999146,72.20565676689148 60.44067740440369,72.1038818359375 60.44067740440369,72.1038818359375 60.361939668655396,72.18124270439148 60.361939668655396,72.18124270439148 60.14343500137329,72.39982485771179 60.14343500137329,72.39982485771179 59.81201529502869,72.73880243301392 59.81201529502869,72.73880243301392 59.39437747001648,73.17764163017273 59.39437747001648,73.17764163017273 58.917236328125,73.6956775188446 58.917236328125,73.6956775188446 58.407288789749146,74.2724597454071 58.407288789749146,74.2724597454071 57.89123773574829,74.88693594932556 57.89123773574829,74.88693594932556 57.39578604698181,75.51895380020142 57.39578604698181,75.51895380020142 56.94732666015625,76.1474609375 56.94732666015625,76.1474609375 56.573486328125,76.75232291221619 56.573486328125,76.75232291221619 56.24527335166931,77.34611630439758 56.24527335166931,77.34611630439758 55.92605471611023,77.9498279094696 55.92605471611023,77.9498279094696 55.629122257232666,78.55445742607117 55.629122257232666,78.55445742607117 55.36850094795227,79.15107607841492 55.36850094795227,79.15107607841492 55.157470703125,79.73083853721619 55.157470703125,79.73083853721619 55.009764432907104,80.28488159179688 55.009764432907104,80.28488159179688 54.938966035842896,80.80413937568665 54.938966035842896,80.80413937568665 54.95864748954773,81.27983212471008 54.95864748954773,81.27983212471008 55.08209466934204,81.7029595375061 55.08209466934204,81.7029595375061 55.323487520217896,82.0648193359375 55.323487520217896,82.0648193359375 55.684053897857666,82.38189816474915 55.684053897857666,82.38189816474915 56.14075064659119,82.67044425010681 56.14075064659119,82.67044425010681 56.669920682907104,82.9205334186554 56.669920682907104,82.9205334186554 57.24838376045227,83.12233090400696 57.24838376045227,83.12233090400696 57.85278677940369,83.2659900188446 57.85278677940369,83.2659900188446 58.459627628326416,83.3416759967804 58.459627628326416,83.3416759967804 59.045106172561646,83.33954215049744 59.045106172561646,83.33954215049744 59.58618521690369,83.24989676475525 59.58618521690369,83.24989676475525 60.058897733688354,83.06244015693665 60.058897733688354,83.06244015693665 60.44067740440369,82.7679455280304 60.44067740440369,82.7679455280304 60.74676513671875,82.4108898639679 60.74676513671875,82.4108898639679 61.009520292282104,82.03949332237244 61.009520292282104,82.03949332237244 61.23000979423523,81.64893984794617 61.23000979423523,81.64893984794617 61.40945553779602,81.234210729599 61.40945553779602,81.234210729599 61.549073457717896,80.7904064655304 61.549073457717896,80.7904064655304 61.650240421295166,80.31265139579773 61.650240421295166,80.31265139579773 61.71356439590454,79.79591488838196 61.71356439590454,79.79591488838196 61.74072623252869,79.23553586006165 61.74072623252869,79.23553586006165 61.732637882232666,78.62610220909119 61.732637882232666,78.62610220909119" stroke="white" stroke-width="0.1" /><polygon points="44.093018770217896,25.5218505859375 44.093018770217896,25.5218505859375 44.042664766311646,24.89769011735916 44.042664766311646,24.89769011735916 43.89679133892059,24.305573105812073 43.89679133892059,24.305573105812073 43.6636358499527,23.753510415554047 43.6636358499527,23.753510415554047 43.35067868232727,23.2493594288826 43.35067868232727,23.2493594288826 42.96615719795227,22.801056504249573 42.96615719795227,22.801056504249573 42.5180047750473,22.416535019874573 42.5180047750473,22.416535019874573 42.01370179653168,22.103653848171234 42.01370179653168,22.103653848171234 41.46179258823395,21.87034636735916 41.46179258823395,21.87034636735916 40.86944758892059,21.724510192871094 40.86944758892059,21.724510192871094 40.24536311626434,21.674194931983948 40.24536311626434,21.674194931983948 39.62127864360809,21.724548935890198 39.62127864360809,21.724548935890198 39.02908265590668,21.87034636735916 39.02908265590668,21.87034636735916 38.47702145576477,22.10361510515213 38.47702145576477,22.10361510515213 37.97287046909332,22.41649627685547 37.97287046909332,22.41649627685547 37.52456605434418,22.801056504249573 37.52456605434418,22.801056504249573 37.14019954204559,23.249398171901703 37.14019954204559,23.249398171901703 36.82708740234375,23.75354766845703 36.82708740234375,23.75354766845703 36.59393489360809,24.30564910173416 36.59393489360809,24.30564910173416 36.4480584859848,24.897651374340057 36.4480584859848,24.897651374340057 36.39770448207855,25.5218505859375 36.39770448207855,25.5218505859375 36.4480584859848,26.14586055278778 36.4480584859848,26.14586055278778 36.59377992153168,26.73790156841278 36.59377992153168,26.73790156841278 36.82708740234375,27.28988826274872 36.82708740234375,27.28988826274872 37.139892578125,27.79407501220703 37.139892578125,27.79407501220703 37.52456605434418,28.24241816997528 37.52456605434418,28.24241816997528 37.9730224609375,28.627091646194458 37.9730224609375,28.627091646194458 38.47717344760895,28.939971327781677 38.47717344760895,28.939971327781677 39.02923762798309,29.173317551612854 39.02923762798309,29.173317551612854 39.6209716796875,29.319116473197937 39.6209716796875,29.319116473197937 40.24536311626434,29.369506239891052 40.24536311626434,29.369506239891052 40.86944758892059,29.319152235984802 40.86944758892059,29.319152235984802 41.46164059638977,29.173356294631958 41.46164059638977,29.173356294631958 42.01370179653168,28.94001007080078 42.01370179653168,28.94001007080078 42.51770079135895,28.62701416015625 42.51770079135895,28.62701416015625 42.96615719795227,28.24241816997528 42.96615719795227,28.24241816997528 43.35083067417145,27.79415249824524 43.35083067417145,27.79415249824524 43.6636358499527,27.28988826274872 43.6636358499527,27.28988826274872 43.89679133892059,26.73790156841278 43.89679133892059,26.73790156841278 44.042664766311646,26.145821809768677 44.042664766311646,26.145821809768677" stroke="white" stroke-width="0.1" /><polygon points="48.63769710063934,34.714967012405396 48.63769710063934,34.714967012405396 48.58734309673309,34.09080505371094 48.58734309673309,34.09080505371094 48.44162166118622,33.49868953227997 48.44162166118622,33.49868953227997 48.208314180374146,32.94662535190582 48.208314180374146,32.94662535190582 47.89535701274872,32.442474365234375 47.89535701274872,32.442474365234375 47.51083552837372,31.99417293071747 47.51083552837372,31.99417293071747 47.06268310546875,31.609687209129333 47.06268310546875,31.609687209129333 46.558380126953125,31.296730041503906 46.558380126953125,31.296730041503906 46.00631892681122,31.06350004673004 46.00631892681122,31.06350004673004 45.4141229391098,30.917587876319885 45.4141229391098,30.917587876319885 44.79003846645355,30.867311358451843 44.79003846645355,30.867311358451843 44.165802001953125,30.917665362358093 44.165802001953125,30.917665362358093 43.5739129781723,31.063461303710938 43.5739129781723,31.063461303710938 43.021851778030396,31.296691298484802 43.021851778030396,31.296691298484802 42.51770079135895,31.609612703323364 42.51770079135895,31.609612703323364 42.069244384765625,31.99417293071747 42.069244384765625,31.99417293071747 41.684722900390625,32.44255185127258 41.684722900390625,32.44255185127258 41.3717657327652,32.94662535190582 41.3717657327652,32.94662535190582 41.1386102437973,33.49872529506683 41.1386102437973,33.49872529506683 40.99258482456207,34.09073054790497 40.99258482456207,34.09073054790497 40.9423828125,34.714967012405396 40.9423828125,34.714967012405396 40.99273681640625,35.33897399902344 40.99273681640625,35.33897399902344 41.138458251953125,35.93097627162933 41.138458251953125,35.93097627162933 41.3717657327652,36.483001708984375 41.3717657327652,36.483001708984375 41.684722900390625,36.98715269565582 41.684722900390625,36.98715269565582 42.069244384765625,37.43553161621094 42.069244384765625,37.43553161621094 42.51770079135895,37.820205092430115 42.51770079135895,37.820205092430115 43.021851778030396,38.13312649726868 43.021851778030396,38.13312649726868 43.573760986328125,38.366469740867615 43.573760986328125,38.366469740867615 44.165802001953125,38.51219117641449 44.165802001953125,38.51219117641449 44.79003846645355,38.56262266635895 44.79003846645355,38.56262266635895 45.4141229391098,38.5122686624527 45.4141229391098,38.5122686624527 46.00631892681122,38.366469740867615 46.00631892681122,38.366469740867615 46.558380126953125,38.13308775424957 46.558380126953125,38.13308775424957 47.06253111362457,37.820130586624146 47.06253111362457,37.820130586624146 47.51083552837372,37.43553161621094 47.51083552837372,37.43553161621094 47.895509004592896,36.98719143867493 47.895509004592896,36.98719143867493 48.208314180374146,36.483001708984375 48.208314180374146,36.483001708984375 48.44162166118622,35.93105375766754 48.44162166118622,35.93105375766754 48.58718812465668,35.33893525600433 48.58718812465668,35.33893525600433" stroke="white" stroke-width="0.1" /></svg>