<?xml version="1.0" encoding="utf-8" ?>
<svg baseProfile="full" height="36.68762147426605" version="1.1" width="46.76269590854645" xmlns="http://www.w3.org/2000/svg" xmlns:ev="http://www.w3.org/2001/xml-events" xmlns:xlink="http://www.w3.org/1999/xlink"><defs><clipPath /></defs><polygon points="46.76269590854645,34.714967012405396 46.76269590854645,34.714967012405396 46.7367559671402,35.034751892089844 46.7367559671402,35.034751892089844 46.662139892578125,35.33824980258942 46.662139892578125,35.33824980258942 46.5423583984375,35.62122285366058 46.5423583984375,35.62122285366058 46.38198912143707,35.87978482246399 46.38198912143707,35.87978482246399 46.18469178676605,36.109620332717896 46.18469178676605,36.109620332717896 45.95489501953125,36.30684018135071 45.95489501953125,36.30684018135071 45.69641053676605,36.46732270717621 45.69641053676605,36.46732270717621 45.41335999965668,36.58699095249176 45.41335999965668,36.58699095249176 45.10986506938934,36.66175901889801 45.10986506938934,36.66175901889801 44.79003846645355,36.68762147426605 44.79003846645355,36.68762147426605 44.47021484375,36.661720275878906 44.47021484375,36.661720275878906 44.16687190532684,36.58706843852997 44.16687190532684,36.58706843852997 43.88382136821747,36.46732270717621 43.88382136821747,36.46732270717621 43.62533688545227,36.30687892436981 43.62533688545227,36.30687892436981 43.39538514614105,36.109620332717896 43.39538514614105,36.109620332717896 43.19824278354645,35.879746079444885 43.19824278354645,35.879746079444885 43.03772151470184,35.62126159667969 43.03772151470184,35.62126159667969 42.918092012405396,35.33824980258942 42.918092012405396,35.33824980258942 42.84317195415497,35.03479063510895 42.84317195415497,35.03479063510895 42.817384004592896,34.714967012405396 42.817384004592896,34.714967012405396 42.84301698207855,34.39476191997528 42.84301698207855,34.39476191997528 42.918092012405396,34.091225266456604 42.918092012405396,34.091225266456604 43.03772151470184,33.808135986328125 43.03772151470184,33.808135986328125 43.19824278354645,33.54969024658203 43.19824278354645,33.54969024658203 43.39538514614105,33.319854736328125 43.39538514614105,33.319854736328125 43.62518489360809,33.12271237373352 43.62518489360809,33.12271237373352 43.88382136821747,32.96241760253906 43.88382136821747,32.96241760253906 44.16687190532684,32.84282684326172 44.16687190532684,32.84282684326172 44.47021484375,32.76809751987457 44.47021484375,32.76809751987457 44.79003846645355,32.7423095703125 44.79003846645355,32.7423095703125 45.10971009731293,32.76805877685547 45.10971009731293,32.76805877685547 45.41335999965668,32.84286558628082 45.41335999965668,32.84286558628082 45.69641053676605,32.96237885951996 45.69641053676605,32.96237885951996 45.95489501953125,33.122751116752625 45.95489501953125,33.122751116752625 46.18469178676605,33.319854736328125 46.18469178676605,33.319854736328125 46.38198912143707,33.54965150356293 46.38198912143707,33.54965150356293 46.5423583984375,33.808135986328125 46.5423583984375,33.808135986328125 46.66198790073395,34.091225266456604 46.66198790073395,34.091225266456604 46.7367559671402,34.39483642578125 46.7367559671402,34.39483642578125" stroke="white" stroke-width="0.1" /></svg>