<?xml version="1.0" encoding="utf-8" ?>
<svg baseProfile="full" height="100.0" version="1.1" width="100.0" xmlns="http://www.w3.org/2000/svg" xmlns:ev="http://www.w3.org/2001/xml-events" xmlns:xlink="http://www.w3.org/1999/xlink"><defs><clipPath /></defs><polygon points="50.0,0.0 50.0,0.0 58.099669218063354,0.6555938627570868 58.099669218063354,0.6555938627570868 65.78720211982727,2.5531768798828125 65.78720211982727,2.5531768798828125 72.9587197303772,5.589103698730469 72.9587197303772,5.589103698730469 79.51057553291321,9.65961441397667 79.51057553291321,9.65961441397667 85.33905148506165,14.660950005054474 85.33905148506165,14.660950005054474 90.34042358398438,20.48942595720291 90.34042358398438,20.48942595720291 94.41086053848267,27.04128324985504 94.41086053848267,27.04128324985504 97.44682312011719,34.21283662319183 97.44682312011719,34.21283662319183 99.34440851211548,41.90025329589844 99.34440851211548,41.90025329589844 100.0,50.0 100.0,50.0 99.34440851211548,58.099669218063354 99.34440851211548,58.099669218063354 97.44682312011719,65.78720211982727 97.44682312011719,65.78720211982727 94.41089630126953,72.9587197303772 94.41089630126953,72.9587197303772 90.34038782119751,79.51057553291321 90.34038782119751,79.51057553291321 85.33905148506165,85.33905148506165 85.33905148506165,85.33905148506165 79.51065301895142,90.34046530723572 79.51065301895142,90.34046530723572 72.95875549316406,94.41089630126953 72.95875549316406,94.41089630126953 65.78720211982727,97.44682312011719 65.78720211982727,97.44682312011719 58.099669218063354,99.34436678886414 58.099669218063354,99.34436678886414 50.0,100.0 50.0,100.0 41.90029203891754,99.34440851211548 41.90029203891754,99.34440851211548 34.21280086040497,97.44682312011719 34.21280086040497,97.44682312011719 27.04128324985504,94.41089630126953 27.04128324985504,94.41089630126953 20.48940658569336,90.34038782119751 20.48940658569336,90.34038782119751 14.660950005054474,85.33905148506165 14.660950005054474,85.33905148506165 9.65961441397667,79.51061129570007 9.65961441397667,79.51061129570007 5.589103698730469,72.9587197303772 5.589103698730469,72.9587197303772 2.5532150641083717,65.78720211982727 2.5532150641083717,65.78720211982727 0.6555557250976562,58.09963345527649 0.6555557250976562,58.09963345527649 0.0,50.0 0.0,50.0 0.6555748172104359,41.90029203891754 0.6555748172104359,41.90029203891754 2.5531960651278496,34.21280086040497 2.5531960651278496,34.21280086040497 5.589122697710991,27.04128324985504 5.589122697710991,27.04128324985504 9.65961441397667,20.48942595720291 9.65961441397667,20.48942595720291 14.660950005054474,14.660950005054474 14.660950005054474,14.660950005054474 20.48942595720291,9.659653156995773 20.48942595720291,9.659653156995773 27.041244506835938,5.589142069220543 27.041244506835938,5.589142069220543 34.21280086040497,2.553253248333931 34.21280086040497,2.553253248333931 41.90025329589844,0.6555938627570868 41.90025329589844,0.6555938627570868" stroke="white" stroke-width="0.1" /><polygon points="50.0,10.000000149011612 50.0,10.000000149011612 43.512192368507385,10.523491352796555 43.512192368507385,10.523491352796555 37.357521057128906,12.039146572351456 37.357521057128906,12.039146572351456 31.6183865070343,14.464569091796875 31.6183865070343,14.464569091796875 26.377183198928833,17.717400193214417 26.377183198928833,17.717400193214417 21.71630859375,21.715393662452698 21.71630859375,21.715393662452698 17.718124389648438,26.376190781593323 17.718124389648438,26.376190781593323 14.465026557445526,31.61728084087372 14.465026557445526,31.61728084087372 12.039394676685333,37.356606125831604 12.039394676685333,37.356606125831604 10.523547977209091,43.51154267787933 10.523547977209091,43.51154267787933 10.000000149011612,50.0 10.000000149011612,50.0 10.523567348718643,56.48841857910156 10.523567348718643,56.48841857910156 12.039375305175781,62.6434326171875 12.039375305175781,62.6434326171875 14.465026557445526,68.38268637657166 14.465026557445526,68.38268637657166 17.718124389648438,73.62381219863892 17.718124389648438,73.62381219863892 21.71630859375,78.28460931777954 21.71630859375,78.28460931777954 26.377221941947937,82.28263854980469 26.377221941947937,82.28263854980469 31.6183865070343,85.53543090820312 31.6183865070343,85.53543090820312 37.357521057128906,87.96089291572571 37.357521057128906,87.96089291572571 43.51211488246918,89.47643637657166 43.51211488246918,89.47643637657166 50.0,90.00000357627869 50.0,90.00000357627869 56.48841857910156,89.47647213935852 56.48841857910156,89.47647213935852 62.6434326171875,87.96085715293884 62.6434326171875,87.96085715293884 68.38272213935852,85.53547263145447 68.38272213935852,85.53547263145447 73.62388968467712,82.28256106376648 73.62388968467712,82.28256106376648 78.28460931777954,78.28460931777954 78.28460931777954,78.28460931777954 82.28260278701782,73.62388968467712 82.28260278701782,73.62388968467712 85.53543090820312,68.38268637657166 85.53543090820312,68.38268637657166 87.96089291572571,62.6434326171875 87.96089291572571,62.6434326171875 89.47647213935852,56.4883828163147 89.47647213935852,56.4883828163147 90.00000357627869,50.0 90.00000357627869,50.0 89.47647213935852,43.51158142089844 89.47647213935852,43.51158142089844 87.96085715293884,37.3565673828125 87.96085715293884,37.3565673828125 85.53543090820312,31.617316603660583 85.53543090820312,31.617316603660583 82.28256106376648,26.376113295555115 82.28256106376648,26.376113295555115 78.28460931777954,21.715393662452698 78.28460931777954,21.715393662452698 73.62388968467712,17.717476189136505 73.62388968467712,17.717476189136505 68.38272213935852,14.464569091796875 68.38272213935852,14.464569091796875 62.6434326171875,12.0391845703125 62.6434326171875,12.0391845703125 56.4883828163147,10.523491352796555 56.4883828163147,10.523491352796555" stroke="white" stroke-width="0.1" /></svg>