<?xml version="1.0" encoding="utf-8" ?>
<svg baseProfile="full" height="100.0" version="1.1" width="99.99939203262329" xmlns="http://www.w3.org/2000/svg" xmlns:ev="http://www.w3.org/2001/xml-events" xmlns:xlink="http://www.w3.org/1999/xlink"><defs><clipPath /></defs><polygon points="49.999696016311646,0.0 49.999696016311646,0.0 58.09931755065918,0.6555898580700159 58.09931755065918,0.6555898580700159 65.78680276870728,2.553161233663559 65.78680276870728,2.553161233663559 72.95830845832825,5.589031428098679 72.95830845832825,5.589031428098679 79.51009273529053,9.65951755642891 79.51009273529053,9.65951755642891 85.3385329246521,14.660707116127014 85.3385329246521,14.660707116127014 90.33994674682617,20.489071309566498 90.33994674682617,20.489071309566498 94.41028237342834,27.040699124336243 94.41028237342834,27.040699124336243 97.44622707366943,34.21198129653931 97.44622707366943,34.21198129653931 99.34372305870056,41.8990820646286 99.34372305870056,41.8990820646286 99.99939203262329,49.99847412109375 99.99939203262329,49.99847412109375 99.34380054473877,58.09817314147949 99.34380054473877,58.09817314147949 97.44622707366943,65.78572988510132 97.44622707366943,65.78572988510132 94.41028237342834,72.95747399330139 94.41028237342834,72.95747399330139 90.33987522125244,79.50947880744934 90.33987522125244,79.50947880744934 85.3385329246521,85.33822298049927 85.3385329246521,85.33822298049927 79.51024174690247,90.33979773521423 79.51024174690247,90.33979773521423 72.95830845832825,94.41050887107849 72.95830845832825,94.41050887107849 65.78680276870728,97.4466860294342 65.78680276870728,97.4466860294342 58.09931755065918,99.34433698654175 58.09931755065918,99.34433698654175 49.999696016311646,100.0 49.999696016311646,100.0 41.8999969959259,99.34433698654175 41.8999969959259,99.34433698654175 34.212589263916016,97.446608543396 34.212589263916016,97.446608543396 27.041080594062805,94.4105863571167 27.041080594062805,94.4105863571167 20.489300787448883,90.33979773521423 20.489300787448883,90.33979773521423 14.66086059808731,85.33822298049927 14.66086059808731,85.33822298049927 9.659593552350998,79.50955629348755 9.659593552350998,79.50955629348755 5.589107796549797,72.95747399330139 5.589107796549797,72.95747399330139 2.553161233663559,65.78580737113953 2.553161233663559,65.78580737113953 0.6555135827511549,58.098095655441284 0.6555135827511549,58.098095655441284 0.0,49.99847412109375 0.0,49.99847412109375 0.6555898580700159,41.89915955066681 0.6555898580700159,41.89915955066681 2.5532376021146774,34.21198129653931 2.5532376021146774,34.21198129653931 5.589107796549797,27.040699124336243 5.589107796549797,27.040699124336243 9.65951755642891,20.48899531364441 9.65951755642891,20.48899531364441 14.66086059808731,14.660707116127014 14.66086059808731,14.660707116127014 20.48937678337097,9.65951755642891 20.48937678337097,9.65951755642891 27.041155099868774,5.589031428098679 27.041155099868774,5.589031428098679 34.212589263916016,2.5532376021146774 34.212589263916016,2.5532376021146774 41.899922490119934,0.6555135827511549 41.899922490119934,0.6555135827511549" stroke="white" stroke-width="0.1" /><polygon points="49.999696016311646,9.999939054250717 49.999696016311646,9.999939054250717 43.51184964179993,10.523465275764465 43.51184964179993,10.523465275764465 37.357255816459656,12.03911155462265 37.357255816459656,12.03911155462265 31.618231534957886,14.464405179023743 31.618231534957886,14.464405179023743 26.37702226638794,17.71717667579651 26.37702226638794,17.71717667579651 21.716175973415375,21.715107560157776 21.716175973415375,21.715107560157776 17.71809309720993,26.375800371170044 17.71809309720993,26.375800371170044 14.464938640594482,31.616780161857605 14.464938640594482,31.616780161857605 12.039340287446976,37.355804443359375 12.039340287446976,37.355804443359375 10.523465275764465,43.510401248931885 10.523465275764465,43.510401248931885 9.999939054250717,49.99847412109375 9.999939054250717,49.99847412109375 10.523465275764465,56.4871609210968 10.523465275764465,56.4871609210968 12.039340287446976,62.64244318008423 12.039340287446976,62.64244318008423 14.464938640594482,68.38192343711853 14.464938640594482,68.38192343711853 17.71809309720993,73.62313270568848 17.71809309720993,73.62313270568848 21.716175973415375,78.28397750854492 21.716175973415375,78.28397750854492 26.37709677219391,82.28206038475037 26.37709677219391,82.28206038475037 31.618154048919678,85.53491234779358 31.618154048919678,85.53491234779358 37.357330322265625,87.96035647392273 37.357330322265625,87.96035647392273 43.51177513599396,89.47592377662659 43.51177513599396,89.47592377662659 49.999696016311646,89.99944925308228 49.999696016311646,89.99944925308228 56.48799538612366,89.47592377662659 56.48799538612366,89.47592377662659 62.64305114746094,87.96035647392273 62.64305114746094,87.96035647392273 68.38230490684509,85.53491234779358 68.38230490684509,85.53491234779358 73.62343668937683,82.28198289871216 73.62343668937683,82.28198289871216 78.28413248062134,78.28397750854492 78.28413248062134,78.28397750854492 82.28221535682678,73.62321019172668 82.28221535682678,73.62321019172668 85.53491234779358,68.38192343711853 85.53491234779358,68.38192343711853 87.96035647392273,62.64244318008423 87.96035647392273,62.64244318008423 89.47592377662659,56.4871609210968 89.47592377662659,56.4871609210968 89.99944925308228,49.99847412109375 89.99944925308228,49.99847412109375 89.47592377662659,43.510401248931885 89.47592377662659,43.510401248931885 87.96027898788452,37.355729937553406 87.96027898788452,37.355729937553406 85.53491234779358,31.616705656051636 85.53491234779358,31.616705656051636 82.28206038475037,26.375722885131836 82.28206038475037,26.375722885131836 78.28413248062134,21.715107560157776 78.28413248062134,21.715107560157776 73.62351417541504,17.717254161834717 73.62351417541504,17.717254161834717 68.38230490684509,14.464481174945831 68.38230490684509,14.464481174945831 62.643128633499146,12.03911155462265 62.643128633499146,12.03911155462265 56.48799538612366,10.523312538862228 56.48799538612366,10.523312538862228" stroke="white" stroke-width="0.1" /></svg>