<?xml version="1.0" encoding="utf-8" ?>
<svg baseProfile="full" height="100.0" version="1.1" width="100.0" xmlns="http://www.w3.org/2000/svg" xmlns:ev="http://www.w3.org/2001/xml-events" xmlns:xlink="http://www.w3.org/1999/xlink"><defs><clipPath /></defs><polygon points="50.0,0.0 50.0,0.0 58.099669218063354,0.6555557250976562 58.099669218063354,0.6555557250976562 65.78720211982727,2.5531768798828125 65.78720211982727,2.5531768798828125 72.95867800712585,5.589103698730469 72.95867800712585,5.589103698730469 79.51057553291321,9.659576416015625 79.51057553291321,9.659576416015625 85.33905148506165,14.660950005054474 85.33905148506165,14.660950005054474 90.34042358398438,20.489464700222015 90.34042358398438,20.489464700222015 94.41093802452087,27.04128324985504 94.41093802452087,27.04128324985504 97.44674563407898,34.21280086040497 97.44674563407898,34.21280086040497 99.34433102607727,41.90021455287933 99.34433102607727,41.90021455287933 100.0,50.0 100.0,50.0 99.34440851211548,58.099669218063354 99.34440851211548,58.099669218063354 97.44682312011719,65.78720211982727 97.44682312011719,65.78720211982727 94.41093802452087,72.95867800712585 94.41093802452087,72.95867800712585 90.34034609794617,79.51057553291321 90.34034609794617,79.51057553291321 85.33905148506165,85.33905148506165 85.33905148506165,85.33905148506165 79.51065301895142,90.34042358398438 79.51065301895142,90.34042358398438 72.95867800712585,94.41093802452087 72.95867800712585,94.41093802452087 65.78720211982727,97.44674563407898 65.78720211982727,97.44674563407898 58.099669218063354,99.34433102607727 58.099669218063354,99.34433102607727 50.0,100.0 50.0,100.0 41.90029203891754,99.34440851211548 41.90029203891754,99.34440851211548 34.21280086040497,97.44682312011719 34.21280086040497,97.44682312011719 27.041321992874146,94.41086053848267 27.041321992874146,94.41086053848267 20.489387214183807,90.34042358398438 20.489387214183807,90.34042358398438 14.660950005054474,85.33905148506165 14.660950005054474,85.33905148506165 9.659653156995773,79.51057553291321 9.659653156995773,79.51057553291321 5.589142069220543,72.95867800712585 5.589142069220543,72.95867800712585 2.5532150641083717,65.78720211982727 2.5532150641083717,65.78720211982727 0.6555175874382257,58.099669218063354 0.6555175874382257,58.099669218063354 0.0,50.0 0.0,50.0 0.6555938627570868,41.90029203891754 0.6555938627570868,41.90029203891754 2.5531768798828125,34.21283662319183 2.5531768798828125,34.21283662319183 5.589142069220543,27.04128324985504 5.589142069220543,27.04128324985504 9.659576416015625,20.48942595720291 9.659576416015625,20.48942595720291 14.660950005054474,14.660950005054474 14.660950005054474,14.660950005054474 20.489464700222015,9.659653156995773 20.489464700222015,9.659653156995773 27.04128324985504,5.589142069220543 27.04128324985504,5.589142069220543 34.21283662319183,2.5532150641083717 34.21283662319183,2.5532150641083717 41.90029203891754,0.6555175874382257 41.90029203891754,0.6555175874382257" stroke="white" stroke-width="0.1" /><polygon points="50.0,10.000000149011612 50.0,10.000000149011612 43.512192368507385,10.523491352796555 43.512192368507385,10.523491352796555 37.3574823141098,12.039108574390411 37.3574823141098,12.039108574390411 31.618425250053406,14.464569091796875 31.618425250053406,14.464569091796875 26.37714445590973,17.7174374461174 26.37714445590973,17.7174374461174 21.71630859375,21.715393662452698 21.71630859375,21.715393662452698 17.71816313266754,26.37615203857422 17.71816313266754,26.37615203857422 14.465026557445526,31.617355346679688 14.465026557445526,31.617355346679688 12.039413303136826,37.356606125831604 12.039413303136826,37.356606125831604 10.523529350757599,43.51154267787933 10.523529350757599,43.51154267787933 10.000000149011612,50.0 10.000000149011612,50.0 10.523567348718643,56.48841857910156 10.523567348718643,56.48841857910156 12.039375305175781,62.6434326171875 12.039375305175781,62.6434326171875 14.465026557445526,68.38272213935852 14.465026557445526,68.38272213935852 17.718124389648438,73.62388968467712 17.718124389648438,73.62388968467712 21.71630859375,78.28460931777954 21.71630859375,78.28460931777954 26.377221941947937,82.28263854980469 26.377221941947937,82.28263854980469 31.618347764015198,85.53543090820312 31.618347764015198,85.53543090820312 37.357521057128906,87.96097040176392 37.357521057128906,87.96097040176392 43.51215362548828,89.47647213935852 43.51215362548828,89.47647213935852 50.0,90.00000357627869 50.0,90.00000357627869 56.48841857910156,89.47647213935852 56.48841857910156,89.47647213935852 62.6434326171875,87.9608154296875 62.6434326171875,87.9608154296875 68.38272213935852,85.53543090820312 68.38272213935852,85.53543090820312 73.62381219863892,82.28256106376648 73.62381219863892,82.28256106376648 78.28460931777954,78.28460931777954 78.28460931777954,78.28460931777954 82.28256106376648,73.62396121025085 82.28256106376648,73.62396121025085 85.53543090820312,68.38272213935852 85.53543090820312,68.38272213935852 87.96089291572571,62.64351010322571 87.96089291572571,62.64351010322571 89.47639465332031,56.488341093063354 89.47639465332031,56.488341093063354 90.00000357627869,50.0 90.00000357627869,50.0 89.47647213935852,43.51158142089844 89.47647213935852,43.51158142089844 87.96089291572571,37.3565673828125 87.96089291572571,37.3565673828125 85.53543090820312,31.617316603660583 85.53543090820312,31.617316603660583 82.28256106376648,26.376113295555115 82.28256106376648,26.376113295555115 78.28460931777954,21.715393662452698 78.28460931777954,21.715393662452698 73.62396121025085,17.7174374461174 73.62396121025085,17.7174374461174 68.38272213935852,14.464569091796875 68.38272213935852,14.464569091796875 62.6434326171875,12.0391845703125 62.6434326171875,12.0391845703125 56.488341093063354,10.52345260977745 56.488341093063354,10.52345260977745" stroke="white" stroke-width="0.1" /></svg>