<?xml version="1.0" encoding="utf-8" ?>
<svg baseProfile="full" height="72.81738519668579" version="1.1" width="73.388671875" xmlns="http://www.w3.org/2000/svg" xmlns:ev="http://www.w3.org/2001/xml-events" xmlns:xlink="http://www.w3.org/1999/xlink"><defs><clipPath /></defs><polygon points="69.1973865032196,63.30810785293579 69.1973865032196,63.30810785293579 69.1973865032196,64.12597894668579 69.1973865032196,64.12597894668579 59.28711295127869,63.30810785293579 59.28711295127869,63.30810785293579" stroke="white" stroke-width="0.1" /><polygon points="69.1973865032196,51.46728754043579 69.1973865032196,51.46728754043579 69.1973865032196,52.50244140625 69.1973865032196,52.50244140625 59.74182486534119,52.50244140625 59.74182486534119,52.50244140625" stroke="white" stroke-width="0.1" /><polygon points="53.095704317092896,66.7797863483429 53.095704317092896,66.7797863483429 53.088778257369995,66.86607599258423 53.088778257369995,66.86607599258423 53.06999087333679,67.1008288860321 53.06999087333679,67.1008288860321 53.04231643676758,67.44766235351562 53.04231643676758,67.44766235351562 53.00869345664978,67.87033081054688 53.00869345664978,67.87033081054688 52.972108125686646,68.33252310752869 52.972108125686646,68.33252310752869 52.93552279472351,68.7979519367218 52.93552279472351,68.7979519367218 52.90189981460571,69.23027038574219 52.90189981460571,69.23027038574219 52.8742253780365,69.59328055381775 52.8742253780365,69.59328055381775 52.855414152145386,69.8504626750946 52.855414152145386,69.8504626750946 52.848511934280396,69.9658215045929 52.848511934280396,69.9658215045929 52.861422300338745,70.28587460517883 52.861422300338745,70.28587460517883 52.8995156288147,70.59932947158813 52.8995156288147,70.59932947158813 52.96184420585632,70.90522646903992 52.96184420585632,70.90522646903992 53.047412633895874,71.20251059532166 53.047412633895874,71.20251059532166 53.15529108047485,71.49017453193665 53.15529108047485,71.49017453193665 53.28449606895447,71.76727652549744 53.28449606895447,71.76727652549744 53.43406796455383,72.03266024589539 53.43406796455383,72.03266024589539 53.60305905342102,72.28546142578125 53.60305905342102,72.28546142578125 53.79045605659485,72.524493932724 53.79045605659485,72.524493932724 53.99536490440369,72.7490246295929 53.99536490440369,72.7490246295929 40.71289002895355,72.7490246295929 40.71289002895355,72.7490246295929 40.03360867500305,72.72567749023438 40.03360867500305,72.72567749023438 39.415550231933594,72.66513705253601 39.415550231933594,72.66513705253601 38.85536193847656,72.57061004638672 38.85536193847656,72.57061004638672 38.349649310112,72.44529724121094 38.349649310112,72.44529724121094 37.89512813091278,72.29248285293579 37.89512813091278,72.29248285293579 37.48840391635895,72.11536765098572 37.48840391635895,72.11536765098572 37.12614178657532,71.91707491874695 37.12614178657532,71.91707491874695 36.804983019828796,71.70097231864929 36.804983019828796,71.70097231864929 36.52156889438629,71.47018313407898 36.52156889438629,71.47018313407898 36.27258241176605,71.22802734375 36.27258241176605,71.22802734375 36.054420471191406,70.97305655479431 36.054420471191406,70.97305655479431 35.863953828811646,70.70488333702087 35.863953828811646,70.70488333702087 35.700035095214844,70.42610049247742 35.700035095214844,70.42610049247742 35.561561584472656,70.13908624649048 35.561561584472656,70.13908624649048 35.447463393211365,69.84649896621704 35.447463393211365,69.84649896621704 35.35659909248352,69.55074667930603 35.35659909248352,69.55074667930603 35.28783917427063,69.25434470176697 35.28783917427063,69.25434470176697 35.24009883403778,68.95977258682251 35.24009883403778,68.95977258682251 35.21226942539215,68.66950988769531 35.21226942539215,68.66950988769531 35.203248262405396,68.38623285293579 35.203248262405396,68.38623285293579 35.203248262405396,67.2924816608429 35.203248262405396,67.2924816608429 25.151976943016052,67.2924816608429 25.151976943016052,67.2924816608429 25.151976943016052,43.9208984375 25.151976943016052,43.9208984375 35.310059785842896,43.9208984375 35.310059785842896,43.9208984375 35.310059785842896,46.84814512729645 35.310059785842896,46.84814512729645 35.37139892578125,47.00405299663544 35.37139892578125,47.00405299663544 35.53787171840668,47.11181819438934 35.53787171840668,47.11181819438934 35.78321635723114,47.17651307582855 35.78321635723114,47.17651307582855 36.08112335205078,47.20321595668793 36.08112335205078,47.20321595668793 36.4053338766098,47.19696044921875 36.4053338766098,47.19696044921875 36.72954738140106,47.16285765171051 36.72954738140106,47.16285765171051 37.0274543762207,47.10575044155121 37.0274543762207,47.10575044155121 37.27279603481293,47.03102111816406 37.27279603481293,47.03102111816406 37.43927180767059,46.943399310112 37.43927180767059,46.943399310112 37.50061094760895,46.84814512729645 37.50061094760895,46.84814512729645 37.50061094760895,41.39404296875 37.50061094760895,41.39404296875 37.53551542758942,40.52482545375824 37.53551542758942,40.52482545375824 37.630635499954224,39.72419798374176 37.630635499954224,39.72419798374176 37.779197096824646,38.988953828811646 37.779197096824646,38.988953828811646 37.97447383403778,38.3157342672348 37.97447383403778,38.3157342672348 38.20968568325043,37.701416015625 38.20968568325043,37.701416015625 38.478127121925354,37.14279234409332 38.478127121925354,37.14279234409332 38.77304196357727,36.63662075996399 38.77304196357727,36.63662075996399 39.087677001953125,36.17958128452301 39.087677001953125,36.17958128452301 39.41528499126434,35.76858639717102 39.41528499126434,35.76858639717102 39.7491455078125,35.400390625 39.7491455078125,35.400390625 40.088388323783875,35.15972197055817 40.088388323783875,35.15972197055817 40.718936920166016,34.80404019355774 40.718936920166016,34.80404019355774 41.56375825405121,34.366416931152344 41.56375825405121,34.366416931152344 42.545852065086365,33.87981355190277 42.545852065086365,33.87981355190277 43.58818233013153,33.37738215923309 43.58818233013153,33.37738215923309 44.61372494697571,32.89222717285156 44.61372494697571,32.89222717285156 45.54542601108551,32.457199692726135 45.54542601108551,32.457199692726135 46.30630612373352,32.10563659667969 46.30630612373352,32.10563659667969 46.819326281547546,31.870386004447937 46.819326281547546,31.870386004447937 47.007447481155396,31.784668564796448 47.007447481155396,31.784668564796448 47.16552793979645,19.00878995656967 47.16552793979645,19.00878995656967 47.67833650112152,19.077149033546448 47.67833650112152,19.077149033546448 48.21571409702301,19.171372056007385 48.21571409702301,19.171372056007385 48.77237379550934,19.292068481445312 48.77237379550934,19.292068481445312 49.343109130859375,19.43988800048828 49.343109130859375,19.43988800048828 49.92263913154602,19.615478813648224 49.92263913154602,19.615478813648224 50.505733489990234,19.819526374340057 50.505733489990234,19.819526374340057 51.08711123466492,20.052604377269745 51.08711123466492,20.052604377269745 51.66153311729431,20.31536102294922 51.66153311729431,20.31536102294922 52.223777770996094,20.60844451189041 52.223777770996094,20.60844451189041 52.76855826377869,20.932617783546448 52.76855826377869,20.932617783546448 53.41464877128601,21.37855589389801 53.41464877128601,21.37855589389801 54.019832611083984,21.864548325538635 54.019832611083984,21.864548325538635 54.577791690826416,22.39398956298828 54.577791690826416,22.39398956298828 55.08228540420532,22.97004759311676 55.08228540420532,22.97004759311676 55.527037382125854,23.59619140625 55.527037382125854,23.59619140625 55.905818939208984,24.2756649851799 55.905818939208984,24.2756649851799 56.21232986450195,25.011712312698364 56.21232986450195,25.011712312698364 56.44035339355469,25.80772340297699 56.44035339355469,25.80772340297699 56.58355951309204,26.666948199272156 56.58355951309204,26.666948199272156 56.635743379592896,27.592775225639343 56.635743379592896,27.592775225639343 56.59576654434204,28.468438982963562 56.59576654434204,28.468438982963562 56.4671516418457,29.408416152000427 56.4671516418457,29.408416152000427 56.242889165878296,30.41355311870575 56.242889165878296,30.41355311870575 55.91592788696289,31.484490633010864 55.91592788696289,31.484490633010864 55.47928214073181,32.62207210063934 55.47928214073181,32.62207210063934 54.92591857910156,33.82705748081207 54.92591857910156,33.82705748081207 54.24885153770447,35.10013520717621 54.24885153770447,35.10013520717621 53.441011905670166,36.44214570522308 53.441011905670166,36.44214570522308 52.495402097702026,37.853774428367615 52.495402097702026,37.853774428367615 51.405030488967896,39.33593928813934 51.405030488967896,39.33593928813934 51.19995474815369,39.60449397563934 51.19995474815369,39.60449397563934 50.81787109375,46.533203125 50.81787109375,46.533203125 50.81787109375,46.56250178813934 50.81787109375,46.56250178813934 50.81787109375,46.56272828578949 50.81787109375,46.56272828578949 50.81787109375,46.56360745429993 50.81787109375,46.56360745429993 50.81785321235657,46.565207839012146 50.81785321235657,46.565207839012146 50.817835330963135,46.567726135253906 50.817835330963135,46.567726135253906 50.81779360771179,46.57135009765625 50.81779360771179,46.57135009765625 50.817739963531494,46.57619595527649 50.817739963531494,46.57619595527649 50.817662477493286,46.58249020576477 50.817662477493286,46.58249020576477 50.817567110061646,46.5903103351593 50.817567110061646,46.5903103351593 50.81741213798523,46.599847078323364 50.81741213798523,46.599847078323364 50.81726312637329,46.61132991313934 50.81726312637329,46.61132991313934 50.81195831298828,46.747514605522156 50.81195831298828,46.747514605522156 50.79669952392578,46.95785641670227 50.79669952392578,46.95785641670227 50.768107175827026,47.23243713378906 50.768107175827026,47.23243713378906 50.722771883010864,47.561684250831604 50.722771883010864,47.561684250831604 50.657349824905396,47.93579280376434 50.657349824905396,47.93579280376434 50.56840777397156,48.3450710773468 50.56840777397156,48.3450710773468 50.45256018638611,48.77971708774567 50.45256018638611,48.77971708774567 50.306397676467896,49.230194091796875 50.306397676467896,49.230194091796875 50.12657046318054,49.68650937080383 50.12657046318054,49.68650937080383 49.909669160842896,50.139158964157104 49.909669160842896,50.139158964157104 49.78738725185394,50.361329317092896 49.78738725185394,50.361329317092896 49.65576231479645,50.57914853096008 49.65576231479645,50.57914853096008 49.5143324136734,50.791895389556885 49.5143324136734,50.791895389556885 49.36271607875824,50.99884271621704 49.36271607875824,50.99884271621704 49.200439453125,51.1993408203125 49.200439453125,51.1993408203125 49.02711808681488,51.39266848564148 49.02711808681488,51.39266848564148 48.84231686592102,51.5781044960022 48.84231686592102,51.5781044960022 48.645591735839844,51.754993200302124 48.645591735839844,51.754993200302124 48.43650758266449,51.92245841026306 48.43650758266449,51.92245841026306 48.2147216796875,52.080076932907104 48.2147216796875,52.080076932907104 47.9784220457077,52.225494384765625 47.9784220457077,52.225494384765625 47.72686064243317,52.360689640045166 47.72686064243317,52.360689640045166 47.458839416503906,52.484434843063354 47.458839416503906,52.484434843063354 47.1731573343277,52.595674991607666 47.1731573343277,52.595674991607666 46.868592500686646,52.69317626953125 46.868592500686646,52.69317626953125 46.54397964477539,52.77584195137024 46.54397964477539,52.77584195137024 46.198081970214844,52.84244418144226 46.198081970214844,52.84244418144226 45.82969844341278,52.89188623428345 45.82969844341278,52.89188623428345 45.437660813331604,52.92289853096008 45.437660813331604,52.92289853096008 45.020753145217896,52.934569120407104 45.020753145217896,52.934569120407104 42.82715022563934,52.934569120407104 42.82715022563934,52.934569120407104 42.742595076560974,52.995872497558594 42.742595076560974,52.995872497558594 42.661285400390625,53.16230654716492 42.661285400390625,53.16230654716492 42.589035630226135,53.407591581344604 42.589035630226135,53.407591581344604 42.53170192241669,53.705406188964844 42.53170192241669,53.705406188964844 42.49511659145355,54.029542207717896 42.49511659145355,54.029542207717896 42.48512387275696,54.35371398925781 42.48512387275696,54.35371398925781 42.50755310058594,54.65149283409119 42.50755310058594,54.65149283409119 42.56824553012848,54.896777868270874 42.56824553012848,54.896777868270874 42.67303645610809,55.063170194625854 42.67303645610809,55.063170194625854 42.82775819301605,55.12451529502869 42.82775819301605,55.12451529502869 45.020753145217896,55.12451529502869 45.020753145217896,55.12451529502869 45.0439453125,55.12451529502869 45.0439453125,55.12451529502869 45.60552537441254,55.108642578125 45.60552537441254,55.108642578125 46.14500105381012,55.06195425987244 46.14500105381012,55.06195425987244 46.662235260009766,54.98588681221008 46.662235260009766,54.98588681221008 47.157058119773865,54.88182306289673 47.157058119773865,54.88182306289673 47.62931764125824,54.751282930374146 47.62931764125824,54.751282930374146 48.07886183261871,54.595643281936646 48.07886183261871,54.595643281936646 48.50551784038544,54.416197538375854 48.50551784038544,54.416197538375854 48.90911281108856,54.21451926231384 48.90911281108856,54.21451926231384 49.289533495903015,53.991931676864624 49.289533495903015,53.991931676864624 49.64660704135895,53.75000238418579 49.64660704135895,53.75000238418579 50.087642669677734,53.401488065719604 50.087642669677734,53.401488065719604 50.487154722213745,53.03085446357727 50.487154722213745,53.03085446357727 50.84732174873352,52.64198184013367 50.84732174873352,52.64198184013367 51.17027163505554,52.238619327545166 51.17027163505554,52.238619327545166 51.4582097530365,51.824647188186646 51.4582097530365,51.824647188186646 51.71327590942383,51.40385031700134 51.71327590942383,51.40385031700134 51.93762183189392,50.98007321357727 51.93762183189392,50.98007321357727 52.13344693183899,50.55713653564453 52.13344693183899,50.55713653564453 52.302879095077515,50.13877749443054 52.302879095077515,50.13877749443054 52.44812369346619,49.72900450229645 52.44812369346619,49.72900450229645 52.57660150527954,50.18684267997742 52.57660150527954,50.18684267997742 52.75565981864929,50.619202852249146 52.75565981864929,50.619202852249146 52.98164486885071,51.02295279502869 52.98164486885071,51.02295279502869 53.25092673301697,51.394885778427124 53.25092673301697,51.394885778427124 53.55987548828125,51.73187255859375 53.55987548828125,51.73187255859375 53.904879093170166,52.0307183265686 53.904879093170166,52.0307183265686 54.28226590156555,52.28813290596008 54.28226590156555,52.28813290596008 54.68841791152954,52.501147985458374 54.68841791152954,52.501147985458374 55.11968731880188,52.6663601398468 55.11968731880188,52.6663601398468 55.572509765625,52.78076529502869 55.572509765625,52.78076529502869 55.145567655563354,52.980536222457886 55.145567655563354,52.980536222457886 54.747945070266724,53.227466344833374 54.747945070266724,53.227466344833374 54.38331961631775,53.51783633232117 54.38331961631775,53.51783633232117 54.05536890029907,53.84815335273743 54.05536890029907,53.84815335273743 53.76777648925781,54.214781522750854 53.76777648925781,54.214781522750854 53.52422595024109,54.61418032646179 53.52422595024109,54.61418032646179 53.32838296890259,55.04269003868103 53.32838296890259,55.04269003868103 53.183937072753906,55.496788024902344 53.183937072753906,55.496788024902344 53.09455990791321,55.97282648086548 53.09455990791321,55.97282648086548 53.06396484375,56.46728873252869 53.06396484375,56.46728873252869 53.06396484375,59.34082269668579 53.06396484375,59.34082269668579 53.10371518135071,59.90459322929382 53.10371518135071,59.90459322929382 53.21937799453735,60.443878173828125 53.21937799453735,60.443878173828125 53.40549349784851,60.953253507614136 53.40549349784851,60.953253507614136 53.656595945358276,61.42719388008118 53.656595945358276,61.42719388008118 53.96728515625,61.860352754592896 53.96728515625,61.860352754592896 54.33210730552673,62.24724054336548 54.33210730552673,62.24724054336548 54.74559664726257,62.58228421211243 54.74559664726257,62.58228421211243 55.20233511924744,62.86022067070007 55.20233511924744,62.86022067070007 55.69683313369751,63.07544708251953 55.69683313369751,63.07544708251953 56.223756074905396,63.22265863418579 56.223756074905396,63.22265863418579 55.73388934135437,63.35994601249695 55.73388934135437,63.35994601249695 55.270540714263916,63.55674862861633 55.270540714263916,63.55674862861633 54.83854413032532,63.808900117874146 54.83854413032532,63.808900117874146 54.44267392158508,64.1122817993164 54.44267392158508,64.1122817993164 54.08775210380554,64.46289420127869 54.08775210380554,64.46289420127869 53.77861261367798,64.85657095909119 53.77861261367798,64.85657095909119 53.52001190185547,65.28915762901306 53.52001190185547,65.28915762901306 53.31680178642273,65.75668454170227 53.31680178642273,65.75668454170227 53.17371487617493,66.25480651855469 53.17371487617493,66.25480651855469" stroke="white" stroke-width="0.1" /><polygon points="55.94238638877869,44.25292909145355 55.94238638877869,44.25292909145355 55.95337152481079,44.25048828125 55.95337152481079,44.25048828125 70.2685534954071,42.68554747104645 70.2685534954071,42.68554747104645 70.28188705444336,42.68482327461243 70.28188705444336,42.68482327461243 70.2951431274414,42.684099078178406 70.2951431274414,42.684099078178406 70.30830383300781,42.68341064453125 70.30830383300781,42.68341064453125 70.32138705253601,42.68276393413544 70.32138705253601,42.68276393413544 70.33439874649048,42.68219172954559 70.33439874649048,42.68219172954559 70.34732699394226,42.68173277378082 70.34732699394226,42.68173277378082 70.3601062297821,42.68127381801605 70.3601062297821,42.68127381801605 70.37284970283508,42.680931091308594 70.37284970283508,42.680931091308594 70.38543820381165,42.68070161342621 70.38543820381165,42.68070161342621 70.39794921875,42.68066585063934 70.39794921875,42.68066585063934 70.66721320152283,42.70133972167969 70.66721320152283,42.70133972167969 70.92519998550415,42.761459946632385 70.92519998550415,42.761459946632385 71.16844058036804,42.858123779296875 71.16844058036804,42.858123779296875 71.39345407485962,42.98839569091797 71.39345407485962,42.98839569091797 71.596759557724,43.14941465854645 71.596759557724,43.14941465854645 71.77490592002869,43.33828091621399 71.77490592002869,43.33828091621399 71.92438244819641,43.55201721191406 71.92438244819641,43.55201721191406 72.04170227050781,43.787881731987 72.04170227050781,43.787881731987 72.12345004081726,44.042739272117615 72.12345004081726,44.042739272117615 72.1661388874054,44.31396424770355 72.1661388874054,44.31396424770355 72.39990234375,47.175294160842896 72.39990234375,47.175294160842896 72.40096926689148,47.18994200229645 72.40096926689148,47.18994200229645 72.4019467830658,47.204628586769104 72.4019467830658,47.204628586769104 72.40284085273743,47.21931517124176 72.40284085273743,47.21931517124176 72.40363955497742,47.23404049873352 72.40363955497742,47.23404049873352 72.40433096885681,47.24884033203125 72.40433096885681,47.24884033203125 72.40493893623352,47.263795137405396 72.40493893623352,47.263795137405396 72.40539789199829,47.27871119976044 72.40539789199829,47.27871119976044 72.40573763847351,47.29374051094055 72.40573763847351,47.29374051094055 72.40592837333679,47.30888307094574 72.40592837333679,47.30888307094574 72.406005859375,47.32421934604645 72.406005859375,47.32421934604645 72.38535284996033,47.59300351142883 72.38535284996033,47.59300351142883 72.32532501220703,47.850725054740906 72.32532501220703,47.850725054740906 72.22877740859985,48.09375703334808 72.22877740859985,48.09375703334808 72.09861874580383,48.318710923194885 72.09861874580383,48.318710923194885 71.93771600723267,48.5220342874527 71.93771600723267,48.5220342874527 71.74894213676453,48.70025813579559 71.74894213676453,48.70025813579559 71.53517007827759,48.84983003139496 71.53517007827759,48.84983003139496 71.29928469657898,48.96728694438934 71.29928469657898,48.96728694438934 71.04415893554688,49.049073457717896 71.04415893554688,49.049073457717896 70.77270746231079,49.091798067092896 70.77270746231079,49.091798067092896 70.7501232624054,49.09423887729645 70.7501232624054,49.09423887729645 56.44287467002869,50.6591796875 56.44287467002869,50.6591796875 56.43059015274048,50.65986514091492 56.43059015274048,50.65986514091492 56.418269872665405,50.660401582717896 56.418269872665405,50.660401582717896 56.405872106552124,50.66078305244446 56.405872106552124,50.66078305244446 56.3934326171875,50.66108703613281 56.3934326171875,50.66108703613281 56.380921602249146,50.66131949424744 56.380921602249146,50.66131949424744 56.368350982666016,50.661468505859375 56.368350982666016,50.661468505859375 56.355684995651245,50.66154599189758 56.355684995651245,50.66154599189758 56.34292960166931,50.66162347793579 56.34292960166931,50.66162347793579 56.33007287979126,50.66158175468445 56.33007287979126,50.66158175468445 56.317138671875,50.66162347793579 56.317138671875,50.66162347793579 56.0480535030365,50.641024112701416 56.0480535030365,50.641024112701416 55.79025149345398,50.581055879592896 55.79025149345398,50.581055879592896 55.54718375205994,50.484699010849 55.54718375205994,50.484699010849 55.32230734825134,50.354766845703125 55.32230734825134,50.354766845703125 55.1190972328186,50.194090604782104 55.1190972328186,50.194090604782104 54.941028356552124,50.00568628311157 54.941028356552124,50.00568628311157 54.791587591171265,49.792176485061646 54.791587591171265,49.792176485061646 54.67420816421509,49.5566189289093 54.67420816421509,49.5566189289093 54.592365026474,49.301835894584656 54.592365026474,49.301835894584656 54.54956293106079,49.030762910842896 54.54956293106079,49.030762910842896 54.316407442092896,46.1669921875 54.316407442092896,46.1669921875 54.315185546875,46.15234434604645 54.315185546875,46.15234434604645 54.31411862373352,46.137696504592896 54.31411862373352,46.137696504592896 54.31320071220398,46.12308442592621 54.31320071220398,46.12308442592621 54.31240200996399,46.10839784145355 54.31240200996399,46.10839784145355 54.31175231933594,46.09375 54.31175231933594,46.09375 54.31123971939087,46.07914090156555 54.31123971939087,46.07914090156555 54.31079864501953,46.064493060112 54.31079864501953,46.064493060112 54.31053042411804,46.04984223842621 54.31053042411804,46.04984223842621 54.31033968925476,46.03508114814758 54.31033968925476,46.03508114814758 54.310303926467896,46.0205078125 54.310303926467896,46.0205078125 54.330772161483765,45.751115679740906 54.330772161483765,45.751115679740906 54.390621185302734,45.49308717250824 54.390621185302734,45.49308717250824 54.48700189590454,45.249900221824646 54.48700189590454,45.249900221824646 54.61698770523071,45.02494931221008 54.61698770523071,45.02494931221008 54.777759313583374,44.82177793979645 54.777759313583374,44.82177793979645 54.966431856155396,44.64382231235504 54.966431856155396,44.64382231235504 55.18007278442383,44.49443817138672 55.18007278442383,44.49443817138672 55.41588068008423,44.37721371650696 55.41588068008423,44.37721371650696 55.670928955078125,44.295501708984375 55.670928955078125,44.295501708984375" stroke="white" stroke-width="0.1" /><polygon points="70.196533203125,66.40625 70.196533203125,66.40625 70.46818137168884,66.44954681396484 70.46818137168884,66.44954681396484 70.7234799861908,66.5317177772522 70.7234799861908,66.5317177772522 70.95951437950134,66.64932370185852 70.95951437950134,66.64932370185852 71.17342352867126,66.79885983467102 71.17342352867126,66.79885983467102 71.3623046875,66.9769287109375 71.3623046875,66.9769287109375 71.52328491210938,67.18010306358337 71.52328491210938,67.18010306358337 71.65347933769226,67.40474700927734 71.65347933769226,67.40474700927734 71.74999117851257,67.64759421348572 71.74999117851257,67.64759421348572 71.80992364883423,67.9050862789154 71.80992364883423,67.9050862789154 71.8304455280304,68.17383170127869 71.8304455280304,68.17383170127869 71.83036804199219,68.18912625312805 71.83036804199219,68.18912625312805 71.83015942573547,68.20430755615234 71.83015942573547,68.20430755615234 71.82981371879578,68.21937561035156 71.82981371879578,68.21937561035156 71.82933688163757,68.23433041572571 71.82933688163757,68.23433041572571 71.82876467704773,68.24920773506165 71.82876467704773,68.24920773506165 71.82807922363281,68.26404929161072 71.82807922363281,68.26404929161072 71.82728052139282,68.27877163887024 71.82728052139282,68.27877163887024 71.82638049125671,68.29349398612976 71.82638049125671,68.29349398612976 71.82539105415344,68.30803155899048 71.82539105415344,68.30803155899048 71.8243420124054,68.32275390625 71.8243420124054,68.32275390625 71.5911865234375,71.1840808391571 71.5911865234375,71.1840808391571 71.54834866523743,71.45523428916931 71.54834866523743,71.45523428916931 71.4664876461029,71.710205078125 71.4664876461029,71.710205078125 71.34903073310852,71.94599509239197 71.34903073310852,71.94599509239197 71.19949460029602,72.15980887413025 71.19949460029602,72.15980887413025 71.02134823799133,72.34863638877869 71.02134823799133,72.34863638877869 70.81806063652039,72.50968813896179 70.81806063652039,72.50968813896179 70.59311270713806,72.63992428779602 70.59311270713806,72.63992428779602 70.34996151924133,72.73662686347961 70.34996151924133,72.73662686347961 70.09208798408508,72.79667258262634 70.09208798408508,72.79667258262634 69.8229968547821,72.81738519668579 69.8229968547821,72.81738519668579 69.80764269828796,72.81730771064758 69.80764269828796,72.81730771064758 69.79233026504517,72.81708121299744 69.79233026504517,72.81708121299744 69.77707147598267,72.81681299209595 69.77707147598267,72.81681299209595 69.76189017295837,72.81638979911804 69.76189017295837,72.81638979911804 69.74678039550781,72.81585931777954 69.74678039550781,72.81585931777954 69.7317898273468,72.81532287597656 69.7317898273468,72.81532287597656 69.71685290336609,72.81463742256165 69.71685290336609,72.81463742256165 69.70207095146179,72.8139877319336 69.70207095146179,72.8139877319336 69.68738436698914,72.8131890296936 69.68738436698914,72.8131890296936 69.6728527545929,72.81250357627869 69.6728527545929,72.81250357627869 56.67358636856079,71.7333972454071 56.67358636856079,71.7333972454071 56.40159845352173,71.69075012207031 56.40159845352173,71.69075012207031 56.14604949951172,71.60911560058594 56.14604949951172,71.60911560058594 55.90980648994446,71.49185538291931 55.90980648994446,71.49185538291931 55.69574236869812,71.34254574775696 55.69574236869812,71.34254574775696 55.50674796104431,71.16455435752869 55.50674796104431,71.16455435752869 55.34569025039673,70.96138000488281 55.34569025039673,70.96138000488281 55.2154541015625,70.73642611503601 55.2154541015625,70.73642611503601 55.118924379348755,70.49323916435242 55.118924379348755,70.49323916435242 55.058956146240234,70.23517489433289 55.058956146240234,70.23517489433289 55.0384521484375,69.9658215045929 55.0384521484375,69.9658215045929 55.038511753082275,69.95182037353516 55.038511753082275,69.95182037353516 55.038684606552124,69.93770599365234 55.038684606552124,69.93770599365234 55.03898859024048,69.92347836494446 55.03898859024048,69.92347836494446 55.039405822753906,69.90909576416016 55.039405822753906,69.90909576416016 55.03997802734375,69.89471316337585 55.03997802734375,69.89471316337585 55.04070520401001,69.88029479980469 55.04070520401001,69.88029479980469 55.04158139228821,69.86564993858337 55.04158139228821,69.86564993858337 55.04261255264282,69.85111236572266 55.04261255264282,69.85111236572266 55.043792724609375,69.83642578125 55.043792724609375,69.83642578125 55.04516959190369,69.82178092002869 55.04516959190369,69.82178092002869 55.278319120407104,66.95801019668579 55.278319120407104,66.95801019668579 55.320948362350464,66.68682098388672 55.320948362350464,66.68682098388672 55.40260672569275,66.4318859577179 55.40260672569275,66.4318859577179 55.51978945732117,66.19606018066406 55.51978945732117,66.19606018066406 55.669063329696655,65.98228812217712 55.669063329696655,65.98228812217712 55.84694147109985,65.79346060752869 55.84694147109985,65.79346060752869 56.04996085166931,65.63243865966797 56.04996085166931,65.63243865966797 56.274646520614624,65.50216674804688 56.274646520614624,65.50216674804688 56.517547369003296,65.40550589561462 56.517547369003296,65.40550589561462 56.77515268325806,65.34534692764282 56.77515268325806,65.34534692764282 57.04407095909119,65.3247058391571 57.04407095909119,65.3247058391571 57.04590082168579,65.3247058391571 57.04590082168579,65.3247058391571 57.05990195274353,65.32478332519531 57.05990195274353,65.32478332519531 57.07401633262634,65.3249740600586 57.07401633262634,65.3249740600586 57.088279724121094,65.32531976699829 57.088279724121094,65.32531976699829 57.10269808769226,65.32573699951172 57.10269808769226,65.32573699951172 57.11723566055298,65.32623171806335 57.11723566055298,65.32623171806335 57.1319043636322,65.32684564590454 57.1319043636322,65.32684564590454 57.1466863155365,65.32745361328125 57.1466863155365,65.32745361328125 57.1615993976593,65.32813906669617 57.1615993976593,65.32813906669617 57.176631689071655,65.32878875732422 57.176631689071655,65.32878875732422 57.191771268844604,65.32959342002869 57.191771268844604,65.32959342002869 57.191771268844604,65.33203125 57.191771268844604,65.33203125" stroke="white" stroke-width="0.1" /><polygon points="71.61194086074829,54.68994379043579 71.61194086074829,54.68994379043579 71.89996838569641,54.71378564834595 71.89996838569641,54.71378564834595 72.1731185913086,54.78149652481079 72.1731185913086,54.78149652481079 72.42780923843384,54.88945245742798 72.42780923843384,54.88945245742798 72.66036868095398,55.03395199775696 72.66036868095398,55.03395199775696 72.86720275878906,55.21149039268494 72.86720275878906,55.21149039268494 73.0446994304657,55.41843771934509 73.0446994304657,55.41843771934509 73.18920493125916,55.65101504325867 73.18920493125916,55.65101504325867 73.297119140625,55.90580105781555 73.297119140625,55.90580105781555 73.36481213569641,56.179046630859375 73.36481213569641,56.179046630859375 73.388671875,56.46728873252869 73.388671875,56.46728873252869 73.388671875,59.34082269668579 73.388671875,59.34082269668579 73.36481213569641,59.62833762168884 73.36481213569641,59.62833762168884 73.297119140625,59.901124238967896 73.297119140625,59.901124238967896 73.18920493125916,60.155487060546875 73.18920493125916,60.155487060546875 73.04468154907227,60.38780212402344 73.04468154907227,60.38780212402344 72.86720275878906,60.594481229782104 72.86720275878906,60.594481229782104 72.66036868095398,60.77190637588501 72.66036868095398,60.77190637588501 72.4277913570404,60.91632843017578 72.4277913570404,60.91632843017578 72.1731185913086,61.024171113967896 72.1731185913086,61.024171113967896 71.89995050430298,61.091846227645874 71.89995050430298,61.091846227645874 71.61194086074829,61.115723848342896 71.61194086074829,61.115723848342896 57.03125,61.115723848342896 57.03125,61.115723848342896 56.74320459365845,61.091846227645874 56.74320459365845,61.091846227645874 56.47001266479492,61.024171113967896 56.47001266479492,61.024171113967896 56.21526837348938,60.916292667388916 56.21526837348938,60.916292667388916 55.98264932632446,60.7718288898468 55.98264932632446,60.7718288898468 55.775755643844604,60.594481229782104 55.775755643844604,60.594481229782104 55.59825897216797,60.38784384727478 55.59825897216797,60.38784384727478 55.453723669052124,60.155487060546875 55.453723669052124,60.155487060546875 55.34583926200867,59.901124238967896 55.34583926200867,59.901124238967896 55.278223752975464,59.62833762168884 55.278223752975464,59.62833762168884 55.25451898574829,59.34082269668579 55.25451898574829,59.34082269668579 55.25451898574829,56.46728873252869 55.25451898574829,56.46728873252869 55.278223752975464,56.17908835411072 55.278223752975464,56.17908835411072 55.34583926200867,55.90583682060242 55.34583926200867,55.90583682060242 55.453723669052124,55.65101504325867 55.453723669052124,55.65101504325867 55.598241090774536,55.418360233306885 55.598241090774536,55.418360233306885 55.775755643844604,55.21149039268494 55.775755643844604,55.21149039268494 55.982667207717896,55.03398776054382 55.982667207717896,55.03398776054382 56.21526837348938,54.889410734176636 56.21526837348938,54.889410734176636 56.47001266479492,54.78149652481079 56.47001266479492,54.78149652481079 56.74320459365845,54.713743925094604 56.74320459365845,54.713743925094604 57.03125,54.68994379043579 57.03125,54.68994379043579" stroke="white" stroke-width="0.1" /></svg>