<?xml version="1.0" encoding="utf-8" ?>
<svg baseProfile="full" height="81.6162109375" version="1.1" width="77.89276242256165" xmlns="http://www.w3.org/2000/svg" xmlns:ev="http://www.w3.org/2001/xml-events" xmlns:xlink="http://www.w3.org/1999/xlink"><defs><clipPath /></defs><polygon points="76.9726574420929,33.76098573207855 76.9726574420929,33.76098573207855 64.4482433795929,50.834959745407104 64.4482433795929,50.834959745407104 64.43802118301392,50.84827542304993 64.43802118301392,50.84827542304993 64.42779898643494,50.86132287979126 64.42779898643494,50.86132287979126 64.41711783409119,50.87394714355469 64.41711783409119,50.87394714355469 64.40643668174744,50.88645815849304 64.40643668174744,50.88645815849304 64.39544558525085,50.89874267578125 64.39544558525085,50.89874267578125 64.38446044921875,50.91094970703125 64.38446044921875,50.91094970703125 64.37347531318665,50.92326998710632 64.37347531318665,50.92326998710632 64.36249017715454,50.93555450439453 64.36249017715454,50.93555450439453 64.35150504112244,50.947993993759155 64.35150504112244,50.947993993759155 64.34082388877869,50.96069574356079 64.34082388877869,50.96069574356079 55.07446527481079,50.96069574356079 55.07446527481079,50.96069574356079 54.73724603652954,50.977784395217896 54.73724603652954,50.977784395217896 54.40719723701477,51.02836489677429 54.40719723701477,51.02836489677429 54.08569574356079,51.111072301864624 54.08569574356079,51.111072301864624 53.77609133720398,51.22482180595398 53.77609133720398,51.22482180595398 53.47946286201477,51.36833190917969 53.47946286201477,51.36833190917969 53.198546171188354,51.54052972793579 53.198546171188354,51.54052972793579 52.935791015625,51.74011588096619 52.935791015625,51.74011588096619 52.69256830215454,51.96594595909119 52.69256830215454,51.96594595909119 52.47177481651306,52.21676230430603 52.47177481651306,52.21676230430603 52.275389432907104,52.491456270217896 52.275389432907104,52.491456270217896 46.630859375,61.30127310752869 46.630859375,61.30127310752869 46.45248353481293,61.61590814590454 46.45248353481293,61.61590814590454 46.31103575229645,61.94412112236023 46.31103575229645,61.94412112236023 46.20620906352997,62.28286623954773 46.20620906352997,62.28286623954773 46.1386114358902,62.628936767578125 46.1386114358902,62.628936767578125 46.10763490200043,62.979358434677124 46.10763490200043,62.979358434677124 46.11404538154602,63.33107352256775 46.11404538154602,63.33107352256775 46.1578369140625,63.68110775947571 46.1578369140625,63.68110775947571 46.23886048793793,64.02626037597656 46.23886048793793,64.02626037597656 46.357423067092896,64.36355710029602 46.357423067092896,64.36355710029602 46.51367366313934,64.6899402141571 46.51367366313934,64.6899402141571 46.70425355434418,64.99725580215454 46.70425355434418,64.99725580215454 46.92443907260895,65.2789294719696 46.92443907260895,65.2789294719696 47.17132747173309,65.53329825401306 47.17132747173309,65.53329825401306 47.442626953125,65.75881838798523 47.442626953125,65.75881838798523 47.73513972759247,65.95382690429688 47.73513972759247,65.95382690429688 48.04672300815582,66.11694693565369 48.04672300815582,66.11694693565369 48.374634981155396,66.24649167060852 48.374634981155396,66.24649167060852 48.71627986431122,66.34101867675781 48.71627986431122,66.34101867675781 49.068909883499146,66.39877557754517 49.068909883499146,66.39877557754517 49.42993223667145,66.41845703125 49.42993223667145,66.41845703125 51.704102754592896,66.41845703125 51.704102754592896,66.41845703125 51.719969511032104,71.49902582168579 51.719969511032104,71.49902582168579 49.468994140625,71.49902582168579 49.468994140625,71.49902582168579 49.268800020217896,71.49902582168579 49.268800020217896,71.49902582168579 41.340333223342896,71.49902582168579 41.340333223342896,71.49902582168579 40.51269590854645,71.49902582168579 40.51269590854645,71.49902582168579 40.37353694438934,71.49749994277954 40.37353694438934,71.49749994277954 40.2352899312973,71.49338126182556 40.2352899312973,71.49338126182556 40.097808837890625,71.48628234863281 40.097808837890625,71.48628234863281 39.96139466762543,71.4764416217804 39.96139466762543,71.4764416217804 39.82589840888977,71.46377563476562 39.82589840888977,71.46377563476562 39.69131410121918,71.44836783409119 39.69131410121918,71.44836783409119 39.5577996969223,71.43036127090454 39.5577996969223,71.43036127090454 39.425355195999146,71.40945792198181 39.425355195999146,71.40945792198181 39.29397761821747,71.38595581054688 39.29397761821747,71.38595581054688 39.16381895542145,71.35986685752869 39.16381895542145,71.35986685752869 38.94104063510895,71.319580078125 38.94104063510895,71.319580078125 38.7197881937027,71.27251029014587 38.7197881937027,71.27251029014587 38.49975764751434,71.21796011924744 38.49975764751434,71.21796011924744 38.28140199184418,71.15547060966492 38.28140199184418,71.15547060966492 38.064271211624146,71.0845947265625 38.064271211624146,71.0845947265625 37.848663330078125,71.00479006767273 37.848663330078125,71.00479006767273 37.63488829135895,70.9155261516571 37.63488829135895,70.9155261516571 37.42263913154602,70.81634402275085 37.42263913154602,70.81634402275085 37.21206784248352,70.70663571357727 37.21206784248352,70.70663571357727 37.00317442417145,70.5859363079071 37.00317442417145,70.5859363079071 36.415863037109375,70.17715573310852 36.415863037109375,70.17715573310852 35.89233458042145,69.71222162246704 35.89233458042145,69.71222162246704 35.433197021484375,69.19670104980469 35.433197021484375,69.19670104980469 35.03967225551605,68.63647699356079 35.03967225551605,68.63647699356079 34.71176326274872,68.0371105670929 34.71176326274872,68.0371105670929 34.45068299770355,67.40463376045227 34.45068299770355,67.40463376045227 34.257203340530396,66.74453616142273 34.257203340530396,66.74453616142273 34.132081270217896,66.06277823448181 34.132081270217896,66.06277823448181 34.07577574253082,65.36499261856079 34.07577574253082,65.36499261856079 34.089356660842896,64.65698480606079 34.089356660842896,64.65698480606079 34.815675020217896,54.09912467002869 34.815675020217896,54.09912467002869 34.832000732421875,53.851014375686646 34.832000732421875,53.851014375686646 34.84741151332855,53.601378202438354 34.84741151332855,53.601378202438354 34.86206233501434,53.35037112236023 34.86206233501434,53.35037112236023 34.87701416015625,53.09852957725525 34.87701416015625,53.09852957725525 34.89257991313934,52.845919132232666 34.89257991313934,52.845919132232666 34.90966856479645,52.59300470352173 34.90966856479645,52.59300470352173 34.92889404296875,52.340167760849 34.92889404296875,52.340167760849 34.951019287109375,52.08751559257507 34.951019287109375,52.08751559257507 34.97650325298309,51.83551907539368 34.97650325298309,51.83551907539368 35.00610291957855,51.58447623252869 35.00610291957855,51.58447623252869 34.92889404296875,51.51752829551697 34.92889404296875,51.51752829551697 34.85305905342102,51.44935846328735 34.85305905342102,51.44935846328735 34.77768003940582,51.37958526611328 34.77768003940582,51.37958526611328 34.70352292060852,51.30821466445923 34.70352292060852,51.30821466445923 34.6304327249527,51.23489499092102 34.6304327249527,51.23489499092102 34.558868408203125,51.15959048271179 34.558868408203125,51.15959048271179 34.488677978515625,51.082152128219604 34.488677978515625,51.082152128219604 34.420472383499146,51.00235342979431 34.420472383499146,51.00235342979431 34.35394465923309,50.91995596885681 34.35394465923309,50.91995596885681 34.28955078125,50.834959745407104 34.28955078125,50.834959745407104 21.76513671875,33.76098573207855 21.76513671875,33.76098573207855 21.372070908546448,33.127593994140625 21.372070908546448,33.127593994140625 21.08917236328125,32.461509108543396 21.08917236328125,32.461509108543396 20.913849771022797,31.77543580532074 20.913849771022797,31.77543580532074 20.845185220241547,31.08234405517578 20.845185220241547,31.08234405517578 20.88058441877365,30.394896864891052 20.88058441877365,30.394896864891052 21.018829941749573,29.72610592842102 21.018829941749573,29.72610592842102 21.258392930030823,29.088744521141052 21.258392930030823,29.088744521141052 21.5972900390625,28.49571406841278 21.5972900390625,28.49571406841278 22.033539414405823,27.959784865379333 22.033539414405823,27.959784865379333 22.565917670726776,27.493897080421448 22.565917670726776,27.493897080421448 22.792816162109375,27.33898162841797 22.792816162109375,27.33898162841797 23.026733100414276,27.200928330421448 23.026733100414276,27.200928330421448 23.266449570655823,27.0795077085495 23.266449570655823,27.0795077085495 23.51165860891342,26.97467803955078 23.51165860891342,26.97467803955078 23.761139810085297,26.886293292045593 23.761139810085297,26.886293292045593 24.014587700366974,26.814231276512146 24.014587700366974,26.814231276512146 24.271240830421448,26.758423447608948 24.271240830421448,26.758423447608948 24.530182778835297,26.71867311000824 24.530182778835297,26.71867311000824 24.79095458984375,26.694869995117188 24.79095458984375,26.694869995117188 25.052490830421448,26.687011122703552 25.052490830421448,26.687011122703552 25.472107529640198,26.707345247268677 25.472107529640198,26.707345247268677 25.889739394187927,26.767465472221375 25.889739394187927,26.767465472221375 26.30157470703125,26.866760849952698 26.30157470703125,26.866760849952698 26.705169677734375,27.004623413085938 26.705169677734375,27.004623413085938 27.097168564796448,27.180632948875427 27.097168564796448,27.180632948875427 27.4749755859375,27.39429473876953 27.4749755859375,27.39429473876953 27.835389971733093,27.6449978351593 27.835389971733093,27.6449978351593 28.175505995750427,27.93228328227997 28.175505995750427,27.93228328227997 28.49228084087372,28.255614638328552 28.49228084087372,28.255614638328552 28.782960772514343,28.614503145217896 28.782960772514343,28.614503145217896 40.97534120082855,45.24902403354645 40.97534120082855,45.24902403354645 41.03286862373352,45.239946246147156 41.03286862373352,45.239946246147156 41.091156005859375,45.23243010044098 41.091156005859375,45.23243010044098 41.14929139614105,45.226097106933594 41.14929139614105,45.226097106933594 41.20773375034332,45.22079527378082 41.20773375034332,45.22079527378082 41.26617610454559,45.216065645217896 41.26617610454559,45.216065645217896 41.3247674703598,45.21186947822571 41.3247674703598,45.21186947822571 41.38336181640625,45.2078253030777 41.38336181640625,45.2078253030777 41.4419561624527,45.20370662212372 41.4419561624527,45.20370662212372 41.500550508499146,45.19916474819183 41.500550508499146,45.19916474819183 41.558837890625,45.19409239292145 41.558837890625,45.19409239292145 41.57669246196747,45.192527770996094 41.57669246196747,45.192527770996094 41.594696044921875,45.19104063510895 41.594696044921875,45.19104063510895 41.61239564418793,45.189476013183594 41.61239564418793,45.189476013183594 41.630250215530396,45.18783688545227 41.630250215530396,45.18783688545227 41.64779782295227,45.18615901470184 41.64779782295227,45.18615901470184 41.665345430374146,45.18447816371918 41.665345430374146,45.18447816371918 41.683197021484375,45.18287777900696 41.683197021484375,45.18287777900696 41.70074462890625,45.1812744140625 41.70074462890625,45.1812744140625 41.718292236328125,45.179709792137146 41.718292236328125,45.179709792137146 41.73583984375,45.17822265625 41.73583984375,45.17822265625 41.76788330078125,45.175859332084656 41.76788330078125,45.175859332084656 41.80023372173309,45.17284333705902 41.80023372173309,45.17284333705902 41.83197021484375,45.16918361186981 41.83197021484375,45.16918361186981 41.864013671875,45.16521394252777 41.864013671875,45.16521394252777 41.89590513706207,45.161134004592896 41.89590513706207,45.161134004592896 41.92794859409332,45.15720307826996 41.92794859409332,45.15720307826996 41.95999205112457,45.15369534492493 41.95999205112457,45.15369534492493 41.9921875,45.1507568359375 41.9921875,45.1507568359375 42.02438294887543,45.14869749546051 42.02438294887543,45.14869749546051 42.05688536167145,45.147705078125 42.05688536167145,45.147705078125 41.107177734375,44.15828883647919 41.107177734375,44.15828883647919 40.302735567092896,43.067702651023865 40.302735567092896,43.067702651023865 39.64721858501434,41.89315736293793 39.64721858501434,41.89315736293793 39.14428651332855,40.65178036689758 39.14428651332855,40.65178036689758 38.797760009765625,39.360809326171875 38.797760009765625,39.360809326171875 38.61145079135895,38.03745210170746 38.61145079135895,38.03745210170746 38.58886659145355,36.69891357421875 38.58886659145355,36.69891357421875 38.734132051467896,35.36224365234375 38.734132051467896,35.36224365234375 39.05059993267059,34.04476344585419 39.05059993267059,34.04476344585419 39.54223692417145,32.763671875 39.54223692417145,32.763671875 40.12481868267059,31.67698085308075 40.12481868267059,31.67698085308075 40.82382321357727,30.674782395362854 40.82382321357727,30.674782395362854 41.62750244140625,29.763871431350708 41.62750244140625,29.763871431350708 42.525482177734375,28.951531648635864 42.525482177734375,28.951531648635864 43.50601136684418,28.244629502296448 43.50601136684418,28.244629502296448 44.55856382846832,27.65045166015625 44.55856382846832,27.65045166015625 45.672303438186646,27.176019549369812 45.672303438186646,27.176019549369812 46.83593809604645,26.828384399414062 46.83593809604645,26.828384399414062 48.03833067417145,26.61457061767578 48.03833067417145,26.61457061767578 49.268800020217896,26.541748642921448 49.268800020217896,26.541748642921448 49.27856624126434,26.541826128959656 49.27856624126434,26.541826128959656 49.288636445999146,26.542282104492188 49.288636445999146,26.542282104492188 49.29840266704559,26.54285430908203 49.29840266704559,26.54285430908203 49.30862486362457,26.543617248535156 49.30862486362457,26.543617248535156 49.3185430765152,26.544341444969177 49.3185430765152,26.544341444969177 49.32861328125,26.545143127441406 49.32861328125,26.545143127441406 49.33883845806122,26.546022295951843 49.33883845806122,26.546022295951843 49.349212646484375,26.546746492385864 49.349212646484375,26.546746492385864 49.35943782329559,26.547393202781677 49.35943782329559,26.547393202781677 49.37011897563934,26.547852158546448 49.37011897563934,26.547852158546448 49.37988221645355,26.547357439994812 49.37988221645355,26.547357439994812 49.38980042934418,26.54678523540497 49.38980042934418,26.54678523540497 49.3997186422348,26.54598355293274 49.3997186422348,26.54598355293274 49.40979182720184,26.545220613479614 49.40979182720184,26.545220613479614 49.41955506801605,26.544341444969177 49.41955506801605,26.544341444969177 49.42947328090668,26.543503999710083 49.42947328090668,26.543503999710083 49.4393914937973,26.54285430908203 49.4393914937973,26.54285430908203 49.44915771484375,26.542282104492188 49.44915771484375,26.542282104492188 49.459075927734375,26.541900634765625 49.459075927734375,26.541900634765625 49.468994140625,26.541748642921448 49.468994140625,26.541748642921448 50.69931149482727,26.614531874656677 50.69931149482727,26.614531874656677 51.902008056640625,26.82834565639496 51.902008056640625,26.82834565639496 53.06549072265625,27.176055312156677 53.06549072265625,27.176055312156677 54.17923331260681,27.650490403175354 54.17923331260681,27.650490403175354 55.23177981376648,28.244629502296448 55.23177981376648,28.244629502296448 56.21246695518494,28.951454162597656 56.21246695518494,28.951454162597656 57.110291719436646,29.763871431350708 57.110291719436646,29.763871431350708 57.91412591934204,30.67474365234375 57.91412591934204,30.67474365234375 58.61267447471619,31.677016615867615 58.61267447471619,31.677016615867615 59.19556021690369,32.763671875 59.19556021690369,32.763671875 59.687042236328125,34.04468595981598 59.687042236328125,34.04468595981598 60.003817081451416,35.362282395362854 60.003817081451416,35.362282395362854 60.148924589157104,36.698874831199646 60.148924589157104,36.698874831199646 60.126495361328125,38.03749084472656 60.126495361328125,38.03749084472656 59.94003415107727,39.360809326171875 59.94003415107727,39.360809326171875 59.593504667282104,40.65174162387848 59.593504667282104,40.65174162387848 59.09057855606079,41.89312160015106 59.09057855606079,41.89312160015106 58.43505859375,43.067702651023865 58.43505859375,43.067702651023865 57.63046145439148,44.15828883647919 57.63046145439148,44.15828883647919 56.68091177940369,45.147705078125 56.68091177940369,45.147705078125 56.71325922012329,45.148658752441406 56.71325922012329,45.148658752441406 56.745606660842896,45.150795578956604 56.745606660842896,45.150795578956604 56.7779541015625,45.15369534492493 56.7779541015625,45.15369534492493 56.80999755859375,45.15724182128906 56.80999755859375,45.15724182128906 56.84189200401306,45.161134004592896 56.84189200401306,45.161134004592896 56.873780488967896,45.165178179740906 56.873780488967896,45.165178179740906 56.905823945999146,45.16921937465668 56.905823945999146,45.16921937465668 56.93771243095398,45.172807574272156 56.93771243095398,45.172807574272156 56.96975588798523,45.17589509487152 56.96975588798523,45.17589509487152 57.001954317092896,45.17822265625 57.001954317092896,45.17822265625 57.01950192451477,45.17967402935028 57.01950192451477,45.17967402935028 57.037508487701416,45.1812744140625 57.037508487701416,45.1812744140625 57.054901123046875,45.18287777900696 57.054901123046875,45.18287777900696 57.07290768623352,45.184555649757385 57.07290768623352,45.184555649757385 57.090455293655396,45.18615901470184 57.090455293655396,45.18615901470184 57.10815787315369,45.18783688545227 57.10815787315369,45.18783688545227 57.126009464263916,45.18943727016449 57.126009464263916,45.18943727016449 57.14355707168579,45.19104063510895 57.14355707168579,45.19104063510895 57.161253690719604,45.1925665140152 57.161253690719604,45.1925665140152 57.178956270217896,45.19409239292145 57.178956270217896,45.19409239292145 57.23709464073181,45.19912898540497 57.23709464073181,45.19912898540497 57.29584097862244,45.203667879104614 57.29584097862244,45.203667879104614 57.354432344436646,45.2078253030777 57.354432344436646,45.2078253030777 57.413023710250854,45.21186947822571 57.413023710250854,45.21186947822571 57.47162103652954,45.216065645217896 57.47162103652954,45.216065645217896 57.53021240234375,45.220717787742615 57.53021240234375,45.220717787742615 57.58865475654602,45.22605836391449 57.58865475654602,45.22605836391449 57.64679312705994,45.232391357421875 57.64679312705994,45.232391357421875 57.70477652549744,45.23998200893402 57.70477652549744,45.23998200893402 57.762449979782104,45.24902403354645 57.762449979782104,45.24902403354645 69.95483636856079,28.614503145217896 69.95483636856079,28.614503145217896 70.24566531181335,28.255578875541687 70.24566531181335,28.255578875541687 70.562744140625,27.932167053222656 70.562744140625,27.932167053222656 70.90301513671875,27.644768357276917 70.90301513671875,27.644768357276917 71.26358151435852,27.39391326904297 71.26358151435852,27.39391326904297 71.64108157157898,27.180176973342896 71.64108157157898,27.180176973342896 72.03308343887329,27.004051208496094 72.03308343887329,27.004051208496094 72.4365234375,26.866188645362854 72.4365234375,26.866188645362854 72.84820675849915,26.767006516456604 72.84820675849915,26.767006516456604 73.2653796672821,26.707077026367188 73.2653796672821,26.707077026367188 73.68530631065369,26.687011122703552 73.68530631065369,26.687011122703552 73.94683957099915,26.694831252098083 73.94683957099915,26.694831252098083 74.20760989189148,26.71867311000824 74.20760989189148,26.71867311000824 74.46670532226562,26.75846219062805 74.46670532226562,26.75846219062805 74.72335696220398,26.81427001953125 74.72335696220398,26.81427001953125 74.97665286064148,26.886293292045593 74.97665286064148,26.886293292045593 75.22644400596619,26.97467803955078 75.22644400596619,26.97467803955078 75.47149658203125,27.0795077085495 75.47149658203125,27.0795077085495 75.7110595703125,27.200928330421448 75.7110595703125,27.200928330421448 75.9448230266571,27.339020371437073 75.9448230266571,27.339020371437073 76.171875,27.493897080421448 76.171875,27.493897080421448 76.7041027545929,27.95974910259247 76.7041027545929,27.95974910259247 77.14080810546875,28.495749831199646 77.14080810546875,28.495749831199646 77.47940421104431,29.088783264160156 77.47940421104431,29.088783264160156 77.7191162109375,29.72610592842102 77.7191162109375,29.72610592842102 77.85720825195312,30.394896864891052 77.85720825195312,30.394896864891052 77.89276242256165,31.082305312156677 77.89276242256165,31.082305312156677 77.82379388809204,31.77543580532074 77.82379388809204,31.77543580532074 77.64862179756165,32.461509108543396 77.64862179756165,32.461509108543396 77.36541628837585,33.12763273715973 77.36541628837585,33.12763273715973" stroke="white" stroke-width="0.1" /><polygon points="55.07446527481079,54.28466796875 55.07446527481079,54.28466796875 64.6484375,54.28466796875 64.6484375,54.28466796875 64.6484375,81.6162109375 64.6484375,81.6162109375 55.07446527481079,81.6162109375 55.07446527481079,81.6162109375 55.018311738967896,63.09448480606079 55.018311738967896,63.09448480606079 49.42993223667145,63.09448480606079 49.42993223667145,63.09448480606079" stroke="white" stroke-width="0.1" /></svg>