<?xml version="1.0" encoding="utf-8" ?>
<svg baseProfile="full" height="73.77685904502869" version="1.1" width="79.94011044502258" xmlns="http://www.w3.org/2000/svg" xmlns:ev="http://www.w3.org/2001/xml-events" xmlns:xlink="http://www.w3.org/1999/xlink"><defs><clipPath /></defs><polygon points="34.577637910842896,63.408201932907104 34.577637910842896,63.408201932907104 35.01091003417969,63.424378633499146 35.01091003417969,63.424378633499146 35.42991578578949,63.37219476699829 35.42991578578949,63.37219476699829 35.828590393066406,63.25637698173523 35.828590393066406,63.25637698173523 36.20079159736633,63.081854581832886 36.20079159736633,63.081854581832886 36.54037415981293,62.85339593887329 36.54037415981293,62.85339593887329 36.84127926826477,62.57591247558594 36.84127926826477,62.57591247558594 37.09731996059418,62.25414276123047 37.09731996059418,62.25414276123047 37.30247616767883,61.89296841621399 37.30247616767883,61.89296841621399 37.45048642158508,61.497193574905396 37.45048642158508,61.497193574905396 37.53540217876434,61.07177734375 37.53540217876434,61.07177734375 37.55066096782684,60.63823699951172 37.55066096782684,60.63823699951172 37.4978631734848,60.219115018844604 37.4978631734848,60.219115018844604 37.381669878959656,59.82047915458679 37.381669878959656,59.82047915458679 37.20695674419403,59.448397159576416 37.20695674419403,59.448397159576416 36.97845637798309,59.10888910293579 36.97845637798309,59.10888910293579 36.701011657714844,58.80810022354126 36.701011657714844,58.80810022354126 36.379241943359375,58.55194330215454 36.379241943359375,58.55194330215454 36.018142104148865,58.346712589263916 36.018142104148865,58.346712589263916 35.622215270996094,58.198243379592896 35.622215270996094,58.198243379592896 35.19653379917145,58.112794160842896 35.19653379917145,58.112794160842896 34.76364314556122,58.09791684150696 34.76364314556122,58.09791684150696 34.34509336948395,58.1512451171875 34.34509336948395,58.1512451171875 33.9468777179718,58.26782584190369 33.9468777179718,58.26782584190369 33.57509672641754,58.442991971969604 33.57509672641754,58.442991971969604 33.235931396484375,58.671873807907104 33.235931396484375,58.671873807907104 32.93541073799133,58.949774503707886 32.93541073799133,58.949774503707886 32.679519057273865,59.27162170410156 32.679519057273865,59.27162170410156 32.474517822265625,59.63291525840759 32.474517822265625,59.63291525840759 32.326316833496094,60.02861261367798 32.326316833496094,60.02861261367798 32.24121034145355,60.454100370407104 32.24121034145355,60.454100370407104 32.2256863117218,60.88699698448181 32.2256863117218,60.88699698448181 32.2784423828125,61.30577325820923 32.2784423828125,61.30577325820923 32.39456117153168,61.70417666435242 32.39456117153168,61.70417666435242 32.56935179233551,62.0761513710022 32.56935179233551,62.0761513710022 32.79785215854645,62.41546869277954 32.79785215854645,62.41546869277954 33.07533264160156,62.716102600097656 33.07533264160156,62.716102600097656 33.39683711528778,62.97176480293274 33.39683711528778,62.97176480293274 33.7576299905777,63.17650079727173 33.7576299905777,63.17650079727173 34.152793884277344,63.32389712333679 34.152793884277344,63.32389712333679" stroke="white" stroke-width="0.1" /><polygon points="54.83765006065369,66.8505847454071 54.83765006065369,66.8505847454071 55.00202178955078,66.88400506973267 55.00202178955078,66.88400506973267 55.156898498535156,66.88873171806335 55.156898498535156,66.88873171806335 55.30029535293579,66.86630249023438 55.30029535293579,66.86630249023438 55.43007254600525,66.8182373046875 55.43007254600525,66.8182373046875 55.544281005859375,66.7462170124054 55.544281005859375,66.7462170124054 55.64090609550476,66.65180325508118 55.64090609550476,66.65180325508118 55.71781396865845,66.5365219116211 55.71781396865845,66.5365219116211 55.77312707901001,66.4019763469696 55.77312707901001,66.4019763469696 55.804675817489624,66.2497341632843 55.804675817489624,66.2497341632843 55.810546875,66.0815417766571 55.810546875,66.0815417766571 55.756837129592896,64.92676138877869 55.756837129592896,64.92676138877869 55.73517084121704,64.75128531455994 55.73517084121704,64.75128531455994 55.6884765625,64.57695364952087 55.6884765625,64.57695364952087 55.61897158622742,64.40658569335938 55.61897158622742,64.40658569335938 55.5289089679718,64.24293518066406 55.5289089679718,64.24293518066406 55.42053580284119,64.08905386924744 55.42053580284119,64.08905386924744 55.29605746269226,63.94767761230469 55.29605746269226,63.94767761230469 55.157625675201416,63.821643590927124 55.157625675201416,63.821643590927124 55.007630586624146,63.71387839317322 55.007630586624146,63.71387839317322 54.84806299209595,63.627129793167114 54.84806299209595,63.627129793167114 54.681396484375,63.56445550918579 54.681396484375,63.56445550918579 41.54907166957855,59.73877310752869 41.54907166957855,59.73877310752869 41.37527644634247,59.70215201377869 41.37527644634247,59.70215201377869 41.19461178779602,59.68971252441406 41.19461178779602,59.68971252441406 41.01051390171051,59.70020294189453 41.01051390171051,59.70020294189453 40.82634150981903,59.732359647750854 40.82634150981903,59.732359647750854 40.645599365234375,59.785157442092896 40.645599365234375,59.785157442092896 40.47172665596008,59.857332706451416 40.47172665596008,59.857332706451416 40.308114886283875,59.94747281074524 40.308114886283875,59.94747281074524 40.15819728374481,60.0546658039093 40.15819728374481,60.0546658039093 40.02544581890106,60.17746329307556 40.02544581890106,60.17746329307556 39.91332948207855,60.31494140625 39.91332948207855,60.31494140625 39.246827363967896,61.25732660293579 39.246827363967896,61.25732660293579 39.160919189453125,61.40243411064148 39.160919189453125,61.40243411064148 39.105454087257385,61.54770255088806 39.105454087257385,61.54770255088806 39.07970488071442,61.69067621231079 39.07970488071442,61.69067621231079 39.08271789550781,61.828917264938354 39.08271789550781,61.828917264938354 39.113616943359375,61.960142850875854 39.113616943359375,61.960142850875854 39.17163908481598,62.08195090293884 39.17163908481598,62.08195090293884 39.25575315952301,62.19184994697571 39.25575315952301,62.19184994697571 39.365312457084656,62.28756308555603 39.365312457084656,62.28756308555603 39.49928283691406,62.36664056777954 39.49928283691406,62.36664056777954 39.65698182582855,62.4267578125 39.65698182582855,62.4267578125" stroke="white" stroke-width="0.1" /><polygon points="54.12964224815369,56.93115592002869 54.12964224815369,56.93115592002869 54.883235692977905,57.07794427871704 54.883235692977905,57.07794427871704 55.61271905899048,57.23503232002258 55.61271905899048,57.23503232002258 56.31393790245056,57.399290800094604 56.31393790245056,57.399290800094604 56.98280334472656,57.567787170410156 56.98280334472656,57.567787170410156 57.61520266532898,57.737427949905396 57.61520266532898,57.737427949905396 58.20701718330383,57.90519714355469 58.20701718330383,57.90519714355469 58.75396728515625,58.0679714679718 58.75396728515625,58.0679714679718 59.25224423408508,58.2227349281311 59.25224423408508,58.2227349281311 59.69730615615845,58.36639404296875 59.69730615615845,58.36639404296875 60.08545160293579,58.49609375 60.08545160293579,58.49609375 60.15716791152954,58.521461486816406 60.15716791152954,58.521461486816406 60.25436520576477,58.55621695518494 60.25436520576477,58.55621695518494 60.36926507949829,58.59741568565369 60.36926507949829,58.59741568565369 60.49408316612244,58.642274141311646 60.49408316612244,58.642274141311646 60.62103509902954,58.688050508499146 60.62103509902954,58.688050508499146 60.74237823486328,58.73188376426697 60.74237823486328,58.73188376426697 60.85025668144226,58.770751953125 60.85025668144226,58.770751953125 60.9369695186615,58.8021457195282 60.9369695186615,58.8021457195282 60.9946072101593,58.822935819625854 60.9946072101593,58.822935819625854 61.015623807907104,58.830565214157104 61.015623807907104,58.830565214157104 60.9552800655365,58.68133902549744 60.9552800655365,58.68133902549744 60.79078912734985,58.27469229698181 60.79078912734985,58.27469229698181 60.54679751396179,57.67189264297485 60.54679751396179,57.67189264297485 60.248035192489624,56.93439841270447 60.248035192489624,56.93439841270447 59.91927981376648,56.123656034469604 59.91927981376648,56.123656034469604 59.585267305374146,55.30109405517578 59.585267305374146,55.30109405517578 59.27055478096008,54.52800989151001 59.27055478096008,54.52800989151001 59.000056982040405,53.86589169502258 59.000056982040405,53.86589169502258 58.79829525947571,53.37608456611633 58.79829525947571,53.37608456611633 58.690184354782104,53.120118379592896 58.690184354782104,53.120118379592896 58.34224820137024,52.902454137802124 58.34224820137024,52.902454137802124 57.55111575126648,52.65724062919617 57.55111575126648,52.65724062919617 56.42971396446228,52.396392822265625 56.42971396446228,52.396392822265625 55.09113669395447,52.131807804107666 55.09113669395447,52.131807804107666 53.64837646484375,51.87530517578125 53.64837646484375,51.87530517578125 52.21450924873352,51.63883566856384 52.21450924873352,51.63883566856384 50.90247988700867,51.43421292304993 50.90247988700867,51.43421292304993 49.82543885707855,51.273345947265625 49.82543885707855,51.273345947265625 49.09625947475433,51.16802453994751 49.09625947475433,51.16802453994751 48.828125,51.130372285842896 48.828125,51.130372285842896 48.55842590332031,51.10511779785156 48.55842590332031,51.10511779785156 47.82447814941406,51.03904604911804 47.82447814941406,51.03904604911804 46.738967299461365,50.94673037528992 46.738967299461365,50.94673037528992 45.414772629737854,50.842708349227905 45.414772629737854,50.842708349227905 43.9645379781723,50.7415771484375 43.9645379781723,50.7415771484375 42.50110685825348,50.65792202949524 42.50110685825348,50.65792202949524 41.13708436489105,50.60615539550781 41.13708436489105,50.60615539550781 39.985352754592896,50.60100555419922 39.985352754592896,50.60100555419922 39.15851712226868,50.656890869140625 39.15851712226868,50.656890869140625 38.76953125,50.788575410842896 38.76953125,50.788575410842896 38.605234026908875,51.012688875198364 38.605234026908875,51.012688875198364 38.29605281352997,51.44256949424744 38.29605281352997,51.44256949424744 37.880173325538635,52.024078369140625 37.880173325538635,52.024078369140625 37.39578425884247,52.7033269405365 37.39578425884247,52.7033269405365 36.88110411167145,53.42621207237244 36.88110411167145,53.42621207237244 36.37436032295227,54.13883328437805 36.37436032295227,54.13883328437805 35.913658142089844,54.78702783584595 35.913658142089844,54.78702783584595 35.53733825683594,55.31696677207947 35.53733825683594,55.31696677207947 35.283470153808594,55.674439668655396 35.283470153808594,55.674439668655396 35.19043028354645,55.805665254592896 35.19043028354645,55.805665254592896 35.21255552768707,55.803149938583374 35.21255552768707,55.803149938583374 35.273438692092896,55.79635500907898 35.273438692092896,55.79635500907898 35.36487519741058,55.7861328125 35.36487519741058,55.7861328125 35.47866940498352,55.77346682548523 35.47866940498352,55.77346682548523 35.60669124126434,55.75928092002869 35.60669124126434,55.75928092002869 35.74073910713196,55.74455261230469 35.74073910713196,55.74455261230469 35.8725368976593,55.73005676269531 35.8725368976593,55.73005676269531 35.99407374858856,55.71693778038025 35.99407374858856,55.71693778038025 36.09691560268402,55.70598840713501 36.09691560268402,55.70598840713501 36.17309629917145,55.69824576377869 36.17309629917145,55.69824576377869 36.579665541648865,55.662041902542114 36.579665541648865,55.662041902542114 37.04544007778168,55.62507510185242 37.04544007778168,55.62507510185242 37.565651535987854,55.58937191963196 37.565651535987854,55.58937191963196 38.13541531562805,55.55691123008728 38.13541531562805,55.55691123008728 38.75000178813934,55.52978515625 38.75000178813934,55.52978515625 39.40460383892059,55.51002621650696 39.40460383892059,55.51002621650696 40.09433686733246,55.49953579902649 40.09433686733246,55.49953579902649 40.81447720527649,55.50045371055603 40.81447720527649,55.50045371055603 41.560098528862,55.514681339263916 41.560098528862,55.514681339263916 42.32666194438934,55.54443597793579 42.32666194438934,55.54443597793579 43.43040585517883,55.604708194732666 43.43040585517883,55.604708194732666 44.4253534078598,55.665820837020874 44.4253534078598,55.665820837020874 45.30975520610809,55.726051330566406 45.30975520610809,55.726051330566406 46.08184993267059,55.78369498252869 46.08184993267059,55.78369498252869 46.739959716796875,55.83710074424744 46.739959716796875,55.83710074424744 47.28229641914368,55.88462948799133 47.28229641914368,55.88462948799133 47.707101702690125,55.92445731163025 47.707101702690125,55.92445731163025 48.01269471645355,55.95497488975525 48.01269471645355,55.95497488975525 48.1973260641098,55.97450137138367 48.1973260641098,55.97450137138367 48.25927913188934,55.9814453125 48.25927913188934,55.9814453125 48.321038484573364,55.98899722099304 48.321038484573364,55.98899722099304 48.50502014160156,56.01249933242798 48.50502014160156,56.01249933242798 48.80909025669098,56.05323910713196 48.80909025669098,56.05323910713196 49.23122525215149,56.11252188682556 49.23122525215149,56.11252188682556 49.76944029331207,56.191712617874146 49.76944029331207,56.191712617874146 50.42167901992798,56.29211664199829 50.42167901992798,56.29211664199829 51.18579864501953,56.41487240791321 51.18579864501953,56.41487240791321 52.0599365234375,56.56147003173828 52.0599365234375,56.56147003173828 53.04180383682251,56.7330539226532 53.04180383682251,56.7330539226532" stroke="white" stroke-width="0.1" /><polygon points="59.85473990440369,66.36719107627869 59.85473990440369,66.36719107627869 60.28732657432556,66.38336181640625 60.28732657432556,66.38336181640625 60.705870389938354,66.3311779499054 60.705870389938354,66.3311779499054 61.104124784469604,66.21536612510681 61.104124784469604,66.21536612510681 61.47602200508118,66.04084372520447 61.47602200508118,66.04084372520447 61.81549429893494,65.8123791217804 61.81549429893494,65.8123791217804 62.1163547039032,65.53485989570618 62.1163547039032,65.53485989570618 62.37247586250305,65.21309018135071 62.37247586250305,65.21309018135071 62.57774233818054,64.85199332237244 62.57774233818054,64.85199332237244 62.72602081298828,64.4561767578125 62.72602081298828,64.4561767578125 62.811279296875,64.0307605266571 62.811279296875,64.0307605266571 62.826234102249146,63.59722018241882 62.826234102249146,63.59722018241882 62.77324557304382,63.17810416221619 62.77324557304382,63.17810416221619 62.65701651573181,62.779539823532104 62.65701651573181,62.779539823532104 62.48230338096619,62.407493591308594 62.48230338096619,62.407493591308594 62.25387454032898,62.06817626953125 62.25387454032898,62.06817626953125 61.97654604911804,61.76761984825134 61.97654604911804,61.76761984825134 61.654895544052124,61.51184439659119 61.654895544052124,61.51184439659119 61.29387021064758,61.30695343017578 61.29387021064758,61.30695343017578 60.898059606552124,61.159056425094604 60.898059606552124,61.159056425094604 60.472410917282104,61.07422113418579 60.472410917282104,61.07422113418579 60.039180517196655,61.0586941242218 60.039180517196655,61.0586941242218 59.62020754814148,61.1114501953125 59.62020754814148,61.1114501953125 59.22172665596008,61.22760772705078 59.22172665596008,61.22760772705078 58.84971618652344,61.402320861816406 58.84971618652344,61.402320861816406 58.51028561592102,61.63086295127869 58.51028561592102,61.63086295127869 58.209651708602905,61.90834045410156 58.209651708602905,61.90834045410156 57.95372128486633,62.22980618476868 57.95372128486633,62.22980618476868 57.748717069625854,62.59064078330994 57.748717069625854,62.59064078330994 57.60067105293274,62.985801696777344 57.60067105293274,62.985801696777344 57.51587152481079,63.410645723342896 57.51587152481079,63.410645723342896 57.50061273574829,63.8440728187561 57.50061273574829,63.8440728187561 57.55355954170227,64.26307559013367 57.55355954170227,64.26307559013367 57.66987204551697,64.66140747070312 57.66987204551697,64.66140747070312 57.84465670585632,65.03319144248962 57.84465670585632,65.03319144248962 58.07327628135681,65.37231802940369 58.07327628135681,65.37231802940369 58.350831270217896,65.67283868789673 58.350831270217896,65.67283868789673 58.6725652217865,65.92857241630554 58.6725652217865,65.92857241630554 59.033626317977905,66.13357663154602 59.033626317977905,66.13357663154602 59.42928194999695,66.28174185752869 59.42928194999695,66.28174185752869" stroke="white" stroke-width="0.1" /><polygon points="67.1191394329071,67.41943359375 67.1191394329071,67.41943359375 67.36282706260681,67.43927001953125 67.36282706260681,67.43927001953125 67.59430170059204,67.49664545059204 67.59430170059204,67.49664545059204 67.81059503555298,67.58853793144226 67.81059503555298,67.58853793144226 68.00827383995056,67.71163940429688 68.00827383995056,67.71163940429688 68.18435788154602,67.86285638809204 68.18435788154602,67.86285638809204 68.33557486534119,68.03909540176392 68.33557486534119,68.03909540176392 68.45871210098267,68.23711395263672 68.45871210098267,68.23711395263672 68.55064630508423,68.45383048057556 68.55064630508423,68.45383048057556 68.60805749893188,68.68599057197571 68.60805749893188,68.68599057197571 68.6279296875,68.93066763877869 68.6279296875,68.93066763877869 68.6279296875,72.26806879043579 68.6279296875,72.26806879043579 68.60805749893188,72.51201868057251 68.60805749893188,72.51201868057251 68.55056881904602,72.74376153945923 68.55056881904602,72.74376153945923 68.45867037773132,72.96005487442017 68.45867037773132,72.96005487442017 68.33553314208984,73.15773367881775 68.33553314208984,73.15773367881775 68.18435788154602,73.333740234375 68.18435788154602,73.333740234375 68.00830960273743,73.48484396934509 68.00830960273743,73.48484396934509 67.81055331230164,73.6078679561615 67.81055331230164,73.6078679561615 67.5943374633789,73.69968295097351 67.5943374633789,73.69968295097351 67.3627495765686,73.75694513320923 67.3627495765686,73.75694513320923 67.1191394329071,73.77685904502869 67.1191394329071,73.77685904502869 56.245118379592896,73.77685904502869 56.245118379592896,73.77685904502869 56.06369376182556,73.76594543457031 56.06369376182556,73.76594543457031 55.888599157333374,73.73405694961548 55.888599157333374,73.73405694961548 55.7211697101593,73.68236780166626 55.7211697101593,73.68236780166626 55.56251406669617,73.61229062080383 55.56251406669617,73.61229062080383 55.413973331451416,73.52508902549744 55.413973331451416,73.52508902549744 55.276793241500854,73.42201471328735 55.276793241500854,73.42201471328735 55.15205264091492,73.30425381660461 55.15205264091492,73.30425381660461 55.041199922561646,73.17310571670532 55.041199922561646,73.17310571670532 54.94529604911804,73.02989959716797 54.94529604911804,73.02989959716797 54.865723848342896,72.8759765625 54.865723848342896,72.8759765625 37.274169921875,70.8178699016571 37.274169921875,70.8178699016571 37.12158203125,71.93847894668579 37.12158203125,71.93847894668579 37.050896883010864,72.25307822227478 37.050896883010864,72.25307822227478 36.9354248046875,72.54447937011719 36.9354248046875,72.54447937011719 36.77932918071747,72.80937433242798 36.77932918071747,72.80937433242798 36.586761474609375,73.04462790489197 36.586761474609375,73.04462790489197 36.36200129985809,73.2470691204071 36.36200129985809,73.2470691204071 36.10920011997223,73.41346740722656 36.10920011997223,73.41346740722656 35.83252131938934,73.54065179824829 35.83252131938934,73.54065179824829 35.53611934185028,73.62537384033203 35.53611934185028,73.62537384033203 35.22419035434723,73.66443872451782 35.22419035434723,73.66443872451782 34.901124238967896,73.65478873252869 34.901124238967896,73.65478873252869 29.995116591453552,73.08105826377869 29.995116591453552,73.08105826377869 29.679909348487854,73.01807403564453 29.679909348487854,73.01807403564453 29.387053847312927,72.90840148925781 29.387053847312927,72.90840148925781 29.120025038719177,72.75657653808594 29.120025038719177,72.75657653808594 28.882333636283875,72.56717681884766 28.882333636283875,72.56717681884766 28.677520155906677,72.34466671943665 28.677520155906677,72.34466671943665 28.509101271629333,72.09369540214539 28.509101271629333,72.09369540214539 28.3804714679718,71.81877493858337 28.3804714679718,71.81877493858337 28.295251727104187,71.52454257011414 28.295251727104187,71.52454257011414 28.256914019584656,71.21532559394836 28.256914019584656,71.21532559394836 28.269043564796448,70.89599967002869 28.269043564796448,70.89599967002869 28.269654512405396,70.89568972587585 28.269654512405396,70.89568972587585 28.270035982131958,70.89458703994751 28.270035982131958,70.89458703994751 28.27030122280121,70.89252471923828 28.27030122280121,70.89252471923828 28.27049195766449,70.88924646377563 28.27049195766449,70.88924646377563 28.270721435546875,70.88470458984375 28.270721435546875,70.88470458984375 28.271102905273438,70.87860107421875 28.271102905273438,70.87860107421875 28.271561861038208,70.87074518203735 28.271561861038208,70.87074518203735 28.272438049316406,70.86101770401001 28.272438049316406,70.86101770401001 28.273507952690125,70.8490788936615 28.273507952690125,70.8490788936615 28.275147080421448,70.83496451377869 28.275147080421448,70.83496451377869 29.677733778953552,60.52002310752869 29.677733778953552,60.52002310752869 29.69631254673004,60.4134738445282 29.69631254673004,60.4134738445282 29.720497131347656,60.30921936035156 29.720497131347656,60.30921936035156 29.74998652935028,60.20744442939758 29.74998652935028,60.20744442939758 29.784584045410156,60.108184814453125 29.784584045410156,60.108184814453125 29.824066162109375,60.011595487594604 29.824066162109375,60.011595487594604 29.868242144584656,59.91783142089844 29.868242144584656,59.91783142089844 29.91672456264496,59.826892614364624 29.91672456264496,59.826892614364624 29.969558119773865,59.73899960517883 29.969558119773865,59.73899960517883 30.02617061138153,59.654200077056885 30.02617061138153,59.654200077056885 30.086669325828552,59.57275629043579 30.086669325828552,59.57275629043579 30.277100205421448,57.52197504043579 30.277100205421448,57.52197504043579 32.01049864292145,56.60644769668579 32.01049864292145,56.60644769668579 32.09594786167145,56.489259004592896 32.09594786167145,56.489259004592896 32.06054866313934,56.48437738418579 32.06054866313934,56.48437738418579 31.728744506835938,56.4178466796875 31.728744506835938,56.4178466796875 31.41990602016449,56.302034854888916 31.41990602016449,56.302034854888916 31.137847900390625,56.14170432090759 31.137847900390625,56.14170432090759 30.88638484477997,55.94158172607422 30.88638484477997,55.94158172607422 30.669251084327698,55.706483125686646 30.669251084327698,55.706483125686646 30.49030303955078,55.44113516807556 30.49030303955078,55.44113516807556 30.35331666469574,55.150264501571655 30.35331666469574,55.150264501571655 30.26203215122223,54.83863949775696 30.26203215122223,54.83863949775696 30.22029995918274,54.511070251464844 30.22029995918274,54.511070251464844 30.231934785842896,54.17236685752869 30.231934785842896,54.17236685752869 30.239257216453552,54.121094942092896 30.239257216453552,54.121094942092896 30.305787920951843,53.78994345664978 30.305787920951843,53.78994345664978 30.421677231788635,53.48167419433594 30.421677231788635,53.48167419433594 30.582162737846375,53.200000524520874 30.582162737846375,53.200000524520874 30.782395601272583,52.94883847236633 30.782395601272583,52.94883847236633 31.01761043071747,52.73193717002869 31.01761043071747,52.73193717002869 31.283074617385864,52.55317687988281 31.283074617385864,52.55317687988281 31.57394528388977,52.416229248046875 31.57394528388977,52.416229248046875 31.885454058647156,52.32502222061157 31.885454058647156,52.32502222061157 32.212790846824646,52.28325128555298 32.212790846824646,52.28325128555298 32.551270723342896,52.294921875 32.551270723342896,52.294921875 33.82324278354645,52.44385004043579 33.82324278354645,52.44385004043579 33.92166197299957,52.458614110946655 33.92166197299957,52.458614110946655 34.01840329170227,52.47794985771179 34.01840329170227,52.47794985771179 34.11338925361633,52.50160098075867 34.11338925361633,52.50160098075867 34.20650660991669,52.529603242874146 34.20650660991669,52.529603242874146 34.2977911233902,52.561646699905396 34.2977911233902,52.561646699905396 34.38709378242493,52.59769558906555 34.38709378242493,52.59769558906555 34.47429835796356,52.637481689453125 34.47429835796356,52.637481689453125 34.559401869773865,52.68096923828125 34.559401869773865,52.68096923828125 34.642258286476135,52.72793173789978 34.642258286476135,52.72793173789978 34.722900390625,52.778321504592896 34.722900390625,52.778321504592896 35.008201003074646,52.37518548965454 35.008201003074646,52.37518548965454 35.29949188232422,51.96434259414673 35.29949188232422,51.96434259414673 35.59032380580902,51.55487060546875 35.59032380580902,51.55487060546875 35.874176025390625,51.15593075752258 35.874176025390625,51.15593075752258 36.144715547561646,50.77667236328125 36.144715547561646,50.77667236328125 36.39541566371918,50.426214933395386 36.39541566371918,50.426214933395386 36.61971986293793,50.11360049247742 36.61971986293793,50.11360049247742 36.811333894729614,49.848100543022156 36.811333894729614,49.848100543022156 36.963579058647156,49.63867366313934 36.963579058647156,49.63867366313934 37.07031309604645,49.494630098342896 37.07031309604645,49.494630098342896 37.31140196323395,49.21325743198395 37.31140196323395,49.21325743198395 37.58617341518402,48.978957533836365 37.58617341518402,48.978957533836365 37.92049586772919,48.790207505226135 37.92049586772919,48.790207505226135 38.34022581577301,48.64543974399567 38.34022581577301,48.64543974399567 38.87130916118622,48.54309260845184 38.87130916118622,48.54309260845184 39.539605379104614,48.48163723945618 39.539605379104614,48.48163723945618 40.37101864814758,48.459434509277344 40.37101864814758,48.459434509277344 41.39141142368317,48.4750360250473 41.39141142368317,48.4750360250473 42.626649141311646,48.526763916015625 42.626649141311646,48.526763916015625 44.10278499126434,48.61328303813934 44.10278499126434,48.61328303813934 44.83642578125,48.66264462471008 44.83642578125,48.66264462471008 45.55126130580902,48.714447021484375 45.55126130580902,48.714447021484375 46.234360337257385,48.766860365867615 46.234360337257385,48.766860365867615 46.87267243862152,48.818206787109375 46.87267243862152,48.818206787109375 47.45315611362457,48.8668829202652 47.45315611362457,48.8668829202652 47.96279966831207,48.911094665527344 47.96279966831207,48.911094665527344 48.38848114013672,48.94901216030121 48.38848114013672,48.94901216030121 48.71726930141449,48.979148268699646 48.71726930141449,48.979148268699646 48.93608093261719,48.999595642089844 48.93608093261719,48.999595642089844 49.03198182582855,49.00878965854645 49.03198182582855,49.00878965854645 49.07470643520355,49.01123046875 49.07470643520355,49.01123046875 49.11743104457855,49.01611506938934 49.11743104457855,49.01611506938934 49.09904599189758,49.01321530342102 49.09904599189758,49.01321530342102 49.23263490200043,49.03160035610199 49.23263490200043,49.03160035610199 49.50340390205383,49.06967282295227 49.50340390205383,49.06967282295227 49.896737933158875,49.1262823343277 49.896737933158875,49.1262823343277 50.397950410842896,49.19982850551605 50.397950410842896,49.19982850551605 50.99235773086548,49.289169907569885 50.99235773086548,49.289169907569885 51.665157079696655,49.392661452293396 51.665157079696655,49.392661452293396 52.40181088447571,49.509164690971375 52.40181088447571,49.509164690971375 53.18741202354431,49.63718354701996 53.18741202354431,49.63718354701996 54.00757193565369,49.775391817092896 54.00757193565369,49.775391817092896 55.461883544921875,50.03097653388977 55.461883544921875,50.03097653388977 56.67438507080078,50.265198945999146 56.67438507080078,50.265198945999146 57.66979455947876,50.485384464263916 57.66979455947876,50.485384464263916 58.472901582717896,50.69896578788757 58.472901582717896,50.69896578788757 59.10843014717102,50.91339349746704 59.10843014717102,50.91339349746704 59.60121154785156,51.1361300945282 59.60121154785156,51.1361300945282 59.97596979141235,51.37454867362976 59.97596979141235,51.37454867362976 60.257452726364136,51.6360878944397 60.257452726364136,51.6360878944397 60.47035455703735,51.9281804561615 60.47035455703735,51.9281804561615 60.639649629592896,52.25830078125 60.639649629592896,52.25830078125 60.710906982421875,52.42142081260681 60.710906982421875,52.42142081260681 60.81138849258423,52.65922546386719 60.81138849258423,52.65922546386719 60.936927795410156,52.961158752441406 60.936927795410156,52.961158752441406 61.08337640762329,53.31687927246094 61.08337640762329,53.31687927246094 61.24664545059204,53.715819120407104 61.24664545059204,53.715819120407104 61.42261624336243,54.14760708808899 61.42261624336243,54.14760708808899 61.607056856155396,54.601746797561646 61.607056856155396,54.601746797561646 61.79596185684204,55.06778955459595 61.79596185684204,55.06778955459595 61.98505759239197,55.53520321846008 61.98505759239197,55.53520321846008 62.17041015625,55.99365234375 62.17041015625,55.99365234375 63.91968131065369,60.34179925918579 63.91968131065369,60.34179925918579 65.3979480266571,61.63330078125 65.3979480266571,61.63330078125 65.10986685752869,63.66943717002869 65.10986685752869,63.66943717002869 65.1498794555664,63.763427734375 65.1498794555664,63.763427734375 65.18562436103821,63.85944485664368 65.18562436103821,63.85944485664368 65.21674990653992,63.95732760429382 65.21674990653992,63.95732760429382 65.24314880371094,64.05696868896484 65.24314880371094,64.05696868896484 65.26458859443665,64.1583263874054 65.26458859443665,64.1583263874054 65.28087854385376,64.26132321357727 65.28087854385376,64.26132321357727 65.29159545898438,64.36576843261719 65.29159545898438,64.36576843261719 65.29678702354431,64.47170376777649 65.29678702354431,64.47170376777649 65.29605984687805,64.57893252372742 65.29605984687805,64.57893252372742 65.289306640625,64.68750238418579 65.289306640625,64.68750238418579 65.04150629043579,67.41943359375 65.04150629043579,67.41943359375" stroke="white" stroke-width="0.1" /><polygon points="62.066650390625,36.14501953125 62.066650390625,36.14501953125 62.36732602119446,36.305007338523865 62.36732602119446,36.305007338523865 62.63740658760071,36.50108277797699 62.63740658760071,36.50108277797699 62.87468075752258,36.72904968261719 62.87468075752258,36.72904968261719 63.07716369628906,36.98486387729645 63.07716369628906,36.98486387729645 63.242799043655396,37.26440370082855 63.242799043655396,37.26440370082855 63.36948275566101,37.56363093852997 63.36948275566101,37.56363093852997 63.45508694648743,37.87826597690582 63.45508694648743,37.87826597690582 63.49758505821228,38.20442259311676 63.49758505821228,38.20442259311676 63.49479556083679,38.53778839111328 63.49479556083679,38.53778839111328 63.444823026657104,38.874512910842896 63.444823026657104,38.874512910842896 61.36108636856079,48.26904237270355 61.36108636856079,48.26904237270355 61.334192752838135,48.25572967529297 61.334192752838135,48.25572967529297 61.25572323799133,48.21891784667969 61.25572323799133,48.21891784667969 61.12892031669617,48.16311001777649 61.12892031669617,48.16311001777649 60.95706820487976,48.09291958808899 60.95706820487976,48.09291958808899 60.743409395217896,48.013001680374146 60.743409395217896,48.013001680374146 60.49125790596008,47.9278564453125 60.49125790596008,47.9278564453125 60.20382046699524,47.84206449985504 60.20382046699524,47.84206449985504 59.88437533378601,47.76031672954559 59.88437533378601,47.76031672954559 59.53613519668579,47.68703579902649 59.53613519668579,47.68703579902649 59.162598848342896,47.626954317092896 59.162598848342896,47.626954317092896 57.978326082229614,47.458648681640625 57.978326082229614,47.458648681640625 56.891632080078125,47.292861342430115 56.891632080078125,47.292861342430115 55.87967038154602,47.1304714679718 55.87967038154602,47.1304714679718 54.91932034492493,46.97254300117493 54.91932034492493,46.97254300117493 53.98773550987244,46.820068359375 53.98773550987244,46.820068359375 53.061944246292114,46.674081683158875 53.061944246292114,46.674081683158875 52.118951082229614,46.53545320034027 52.118951082229614,46.53545320034027 51.13590359687805,46.40533626079559 51.13590359687805,46.40533626079559 50.08964538574219,46.284523606300354 50.08964538574219,46.284523606300354 48.957520723342896,46.174317598342896 48.957520723342896,46.174317598342896 47.73441255092621,46.07948362827301 47.73441255092621,46.07948362827301 46.56250178813934,46.010780334472656 46.56250178813934,46.010780334472656 45.43609619140625,45.96431851387024 45.43609619140625,45.96431851387024 44.349405169487,45.936354994773865 44.349405169487,45.936354994773865 43.29681396484375,45.92315852642059 43.29681396484375,45.92315852642059 42.27260649204254,45.92086970806122 42.27260649204254,45.92086970806122 41.27090573310852,45.925673842430115 41.27090573310852,45.925673842430115 40.2862548828125,45.93380093574524 40.2862548828125,45.93380093574524 39.31266963481903,45.941391587257385 39.31266963481903,45.941391587257385 38.34472596645355,45.94482481479645 38.34472596645355,45.94482481479645 37.93419003486633,45.96416652202606 37.93419003486633,45.96416652202606 37.54848539829254,46.016693115234375 37.54848539829254,46.016693115234375 37.192001938819885,46.09405696392059 37.192001938819885,46.09405696392059 36.868974566459656,46.18801176548004 36.868974566459656,46.18801176548004 36.583709716796875,46.290284395217896 36.583709716796875,46.290284395217896 36.34063899517059,46.392592787742615 36.34063899517059,46.392592787742615 36.144065856933594,46.4865118265152 36.144065856933594,46.4865118265152 35.998305678367615,46.56391143798828 35.998305678367615,46.56391143798828 35.90759336948395,46.616363525390625 35.90759336948395,46.616363525390625 35.87646484375,46.63574397563934 35.87646484375,46.63574397563934 34.156495332717896,38.874512910842896 34.156495332717896,38.874512910842896 34.10618007183075,38.537827134132385 34.10618007183075,38.537827134132385 34.10331904888153,38.20442259311676 34.10331904888153,38.20442259311676 34.14573669433594,37.87826597690582 34.14573669433594,37.87826597690582 34.231337904930115,37.56355345249176 34.231337904930115,37.56355345249176 34.35806334018707,37.26440370082855 34.35806334018707,37.26440370082855 34.52385067939758,36.98486387729645 34.52385067939758,36.98486387729645 34.72641110420227,36.72904968261719 34.72641110420227,36.72904968261719 34.96387600898743,36.501047015190125 34.96387600898743,36.501047015190125 35.23387908935547,36.304971575737 35.23387908935547,36.304971575737 35.53466796875,36.14501953125 35.53466796875,36.14501953125 35.62973141670227,36.10473573207855 35.62973141670227,36.10473573207855 35.725900530815125,36.06880307197571 35.725900530815125,36.06880307197571 35.823020339012146,36.03721559047699 35.823020339012146,36.03721559047699 35.92083156108856,36.00994050502777 35.92083156108856,36.00994050502777 36.01928651332855,35.98693907260895 36.01928651332855,35.98693907260895 36.11816465854645,35.968247056007385 36.11816465854645,35.968247056007385 36.2173467874527,35.95363795757294 36.2173467874527,35.95363795757294 36.31664216518402,35.943299531936646 36.31664216518402,35.943299531936646 36.41582429409027,35.93707978725433 36.41582429409027,35.93707978725433 36.51489317417145,35.93505918979645 36.51489317417145,35.93505918979645 36.74278259277344,35.945817828178406 36.74278259277344,35.945817828178406 36.96777522563934,35.977861285209656 36.96777522563934,35.977861285209656 37.18826472759247,36.03073060512543 37.18826472759247,36.03073060512543 37.40280270576477,36.10397279262543 37.40280270576477,36.10397279262543 37.61001527309418,36.19720637798309 37.61001527309418,36.19720637798309 37.80830502510071,36.310043931007385 37.80830502510071,36.310043931007385 37.99617886543274,36.4419549703598 37.99617886543274,36.4419549703598 38.17222714424133,36.592599749565125 38.17222714424133,36.592599749565125 38.33480775356293,36.761435866355896 38.33480775356293,36.761435866355896 38.482666015625,36.94824278354645 38.482666015625,36.94824278354645 44.40063536167145,45.246583223342896 44.40063536167145,45.246583223342896 46.43310606479645,25.93994140625 46.43310606479645,25.93994140625 46.523818373680115,25.612297654151917 46.523818373680115,25.612297654151917 46.65664732456207,25.30662715435028 46.65664732456207,25.30662715435028 46.827927231788635,25.025978684425354 46.827927231788635,25.025978684425354 47.03399837017059,24.7731015086174 47.03399837017059,24.7731015086174 47.27127254009247,24.551086127758026 47.27127254009247,24.551086127758026 47.53616452217102,24.362869560718536 47.53616452217102,24.362869560718536 47.82497584819794,24.211274087429047 47.82497584819794,24.211274087429047 48.13411831855774,24.09938871860504 48.13411831855774,24.09938871860504 48.45985472202301,24.03007596731186 48.45985472202301,24.03007596731186 48.798829317092896,24.006347358226776 48.798829317092896,24.006347358226776 49.138376116752625,24.03007596731186 49.138376116752625,24.03007596731186 49.46479797363281,24.09938871860504 49.46479797363281,24.09938871860504 49.77432191371918,24.21131134033203 49.77432191371918,24.21131134033203 50.063514709472656,24.362830817699432 50.063514709472656,24.362830817699432 50.32867789268494,24.551086127758026 50.32867789268494,24.551086127758026 50.566256046295166,24.773140251636505 50.566256046295166,24.773140251636505 50.77255368232727,25.025978684425354 50.77255368232727,25.025978684425354 50.94410181045532,25.30670166015625 50.94410181045532,25.30670166015625 51.07707977294922,25.612258911132812 51.07707977294922,25.612258911132812 51.16821527481079,25.93994140625 51.16821527481079,25.93994140625 53.199464082717896,45.246583223342896 53.199464082717896,45.246583223342896 59.117430448532104,36.94824278354645 59.117430448532104,36.94824278354645 59.265291690826416,36.761474609375 59.265291690826416,36.761474609375 59.42813754081726,36.59256100654602 59.42813754081726,36.59256100654602 59.60441827774048,36.44191920757294 59.60441827774048,36.44191920757294 59.792596101760864,36.31000518798828 59.792596101760864,36.31000518798828 59.991151094436646,36.19720637798309 59.991151094436646,36.19720637798309 60.19859313964844,36.10401153564453 60.19859313964844,36.10401153564453 60.413360595703125,36.03073060512543 60.413360595703125,36.03073060512543 60.63392758369446,35.977861285209656 60.63392758369446,35.977861285209656 60.858726501464844,35.94585359096527 60.858726501464844,35.94585359096527 61.08642816543579,35.93505918979645 61.08642816543579,35.93505918979645 61.185723543167114,35.93711853027344 61.185723543167114,35.93711853027344 61.28506064414978,35.943299531936646 61.28506064414978,35.943299531936646 61.384278535842896,35.9536737203598 61.384278535842896,35.9536737203598 61.48330569267273,35.96816956996918 61.48330569267273,35.96816956996918 61.58203482627869,35.98693907260895 61.58203482627869,35.98693907260895 61.68033480644226,36.009979248046875 61.68033480644226,36.009979248046875 61.7780327796936,36.03721559047699 61.7780327796936,36.03721559047699 61.87507510185242,36.06880307197571 61.87507510185242,36.06880307197571 61.97124719619751,36.10469996929169 61.97124719619751,36.10469996929169" stroke="white" stroke-width="0.1" /><polygon points="22.635498642921448,39.59716856479645 22.635498642921448,39.59716856479645 22.76153564453125,39.60044980049133 22.76153564453125,39.60044980049133 22.887496650218964,39.61040675640106 22.887496650218964,39.61040675640106 23.013153672218323,39.62696194648743 23.013153672218323,39.62696194648743 23.138199746608734,39.650192856788635 23.138199746608734,39.650192856788635 23.262329399585724,39.680176973342896 23.262329399585724,39.680176973342896 23.38535338640213,39.71695005893707 23.38535338640213,39.71695005893707 23.506812751293182,39.76036012172699 23.506812751293182,39.76036012172699 23.62663298845291,39.81063961982727 23.62663298845291,39.81063961982727 23.744316399097443,39.867669343948364 23.744316399097443,39.867669343948364 23.859862983226776,39.93164002895355 23.859862983226776,39.93164002895355 34.91455018520355,47.79541194438934 34.91455018520355,47.79541194438934 34.83516871929169,47.904473543167114 34.83516871929169,47.904473543167114 34.751129150390625,48.02040159702301 34.751129150390625,48.02040159702301 34.662628173828125,48.1427401304245 34.662628173828125,48.1427401304245 34.57016050815582,48.27102720737457 34.57016050815582,48.27102720737457 34.47403013706207,48.4048455953598 34.47403013706207,48.4048455953598 34.37461853027344,48.543739318847656 34.37461853027344,48.543739318847656 34.27211940288544,48.687171936035156 34.27211940288544,48.687171936035156 34.166985750198364,48.834800720214844 34.166985750198364,48.834800720214844 34.05952453613281,48.986053466796875 34.05952453613281,48.986053466796875 33.95019471645355,49.140626192092896 33.95019471645355,49.140626192092896 33.22997987270355,49.055176973342896 33.22997987270355,49.055176973342896 33.17718505859375,49.04895722866058 33.17718505859375,49.04895722866058 33.12362730503082,49.04342591762543 33.12362730503082,49.04342591762543 33.06926786899567,49.03862178325653 33.06926786899567,49.03862178325653 33.014145493507385,49.03453886508942 33.014145493507385,49.03453886508942 32.958221435546875,49.03106689453125 32.958221435546875,49.03106689453125 32.90153443813324,49.02832210063934 32.90153443813324,49.02832210063934 32.84408748149872,49.02614653110504 32.84408748149872,49.02614653110504 32.78591334819794,49.02462065219879 32.78591334819794,49.02462065219879 32.72689878940582,49.02370572090149 32.72689878940582,49.02370572090149 32.667237520217896,49.0234375 32.667237520217896,49.0234375 32.037049531936646,49.065208435058594 32.037049531936646,49.065208435058594 31.42932951450348,49.18598234653473 31.42932951450348,49.18598234653473 30.84976375102997,49.38114285469055 30.84976375102997,49.38114285469055 30.304336547851562,49.645957350730896 30.304336547851562,49.645957350730896 29.798737168312073,49.97589290142059 29.798737168312073,49.97589290142059 29.338952898979187,50.36625266075134 29.338952898979187,50.36625266075134 28.9306640625,50.81238150596619 28.9306640625,50.81238150596619 28.579828143119812,51.309627294540405 28.579828143119812,51.309627294540405 28.292199969291687,51.85333490371704 28.292199969291687,51.85333490371704 28.073731064796448,52.43896842002869 28.073731064796448,52.43896842002869 20.69336026906967,43.452149629592896 20.69336026906967,43.452149629592896 20.510827004909515,43.165358901023865 20.510827004909515,43.165358901023865 20.372620224952698,42.8619384765625 20.372620224952698,42.8619384765625 20.27847319841385,42.54650175571442 20.27847319841385,42.54650175571442 20.22823393344879,42.22377836704254 20.22823393344879,42.22377836704254 20.221710205078125,41.8984979391098 20.221710205078125,41.8984979391098 20.25875151157379,41.5753573179245 20.25875151157379,41.5753573179245 20.339126884937286,41.25896394252777 20.339126884937286,41.25896394252777 20.462684333324432,40.95416963100433 20.462684333324432,40.95416963100433 20.629234611988068,40.66555202007294 20.629234611988068,40.66555202007294 20.838622748851776,40.39795100688934 20.838622748851776,40.39795100688934 20.98541259765625,40.24795591831207 20.98541259765625,40.24795591831207 21.142463386058807,40.11314511299133 21.142463386058807,40.11314511299133 21.308593451976776,39.993515610694885 21.308593451976776,39.993515610694885 21.482734382152557,39.88933563232422 21.482734382152557,39.88933563232422 21.66381925344467,39.800721406936646 21.66381925344467,39.800721406936646 21.850815415382385,39.72789943218231 21.850815415382385,39.72789943218231 22.04250395298004,39.67094421386719 22.04250395298004,39.67094421386719 22.237931191921234,39.63005244731903 22.237931191921234,39.63005244731903 22.43591398000717,39.60537016391754 22.43591398000717,39.60537016391754" stroke="white" stroke-width="0.1" /><polygon points="79.8229992389679,55.864256620407104 79.8229992389679,55.864256620407104 79.90528345108032,56.19392395019531 79.90528345108032,56.19392395019531 79.94011044502258,56.52527213096619 79.94011044502258,56.52527213096619 79.92920279502869,56.85386657714844 79.92920279502869,56.85386657714844 79.87422943115234,57.175445556640625 79.87422943115234,57.175445556640625 79.77691888809204,57.485657930374146 79.77691888809204,57.485657930374146 79.6390175819397,57.78011679649353 79.6390175819397,57.78011679649353 79.4620931148529,58.05442929267883 79.4620931148529,58.05442929267883 79.24789786338806,58.304327726364136 79.24789786338806,58.304327726364136 78.9981484413147,58.525389432907104 78.9981484413147,58.525389432907104 78.71460318565369,58.71338248252869 78.71460318565369,58.71338248252869 74.6630847454071,61.00830435752869 74.6630847454071,61.00830435752869 74.17133450508118,61.43867373466492 74.17133450508118,61.43867373466492 73.6798107624054,61.858367919921875 73.6798107624054,61.858367919921875 73.1884777545929,62.26734519004822 73.1884777545929,62.26734519004822 72.69744873046875,62.665826082229614 72.69744873046875,62.665826082229614 72.20672965049744,63.05389404296875 72.20672965049744,63.05389404296875 71.71642184257507,63.4316623210907 71.71642184257507,63.4316623210907 71.22642397880554,63.79913687705994 71.22642397880554,63.79913687705994 70.73696255683899,64.15653228759766 70.73696255683899,64.15653228759766 70.24791836738586,64.50382471084595 70.24791836738586,64.50382471084595 69.75952386856079,64.84131217002869 69.75952386856079,64.84131217002869 69.63272094726562,64.76215720176697 69.63272094726562,64.76215720176697 69.50287222862244,64.68734741210938 69.50287222862244,64.68734741210938 69.37007904052734,64.61700797080994 69.37007904052734,64.61700797080994 69.23446655273438,64.5512044429779 69.23446655273438,64.5512044429779 69.0960705280304,64.49005007743835 69.0960705280304,64.49005007743835 68.95511746406555,64.43371176719666 68.95511746406555,64.43371176719666 68.81149411201477,64.38217163085938 68.81149411201477,64.38217163085938 68.66554617881775,64.33559656143188 68.66554617881775,64.33559656143188 68.5171902179718,64.29409384727478 68.5171902179718,64.29409384727478 68.3667004108429,64.2578125 68.3667004108429,64.2578125 68.36838126182556,64.22668695449829 68.36838126182556,64.22668695449829 68.36978793144226,64.1962468624115 68.36978793144226,64.1962468624115 68.37097406387329,64.16649222373962 68.37097406387329,64.16649222373962 68.3719277381897,64.13738131523132 68.3719277381897,64.13738131523132 68.37264895439148,64.10889029502869 68.37264895439148,64.10889029502869 68.37322115898132,64.08100128173828 68.37322115898132,64.08100128173828 68.37360262870789,64.05361294746399 68.37360262870789,64.05361294746399 68.37387084960938,64.02687430381775 68.37387084960938,64.02687430381775 68.37394833564758,64.00039792060852 68.37394833564758,64.00039792060852 68.37402582168579,63.97461295127869 68.37402582168579,63.97461295127869 68.37264895439148,63.861578702926636 68.37264895439148,63.861578702926636 68.36868524551392,63.74969482421875 68.36868524551392,63.74969482421875 68.36208701133728,63.63884210586548 68.36208701133728,63.63884210586548 68.35296750068665,63.52916955947876 68.35296750068665,63.52916955947876 68.34136843681335,63.42071890830994 68.34136843681335,63.42071890830994 68.32740902900696,63.313525915145874 68.32740902900696,63.313525915145874 68.3109700679779,63.20754885673523 68.3109700679779,63.20754885673523 68.29231381416321,63.10299038887024 68.29231381416321,63.10299038887024 68.27133297920227,62.99968957901001 68.27133297920227,62.99968957901001 68.2482898235321,62.897950410842896 68.2482898235321,62.897950410842896 68.65600943565369,60.017091035842896 68.65600943565369,60.017091035842896 66.5576159954071,58.186036348342896 66.5576159954071,58.186036348342896 65.0500476360321,54.438477754592896 65.0500476360321,54.438477754592896 64.86309170722961,53.97453308105469 64.86309170722961,53.97453308105469 64.67365622520447,53.505516052246094 64.67365622520447,53.505516052246094 64.48513269424438,53.04008722305298 64.48513269424438,53.04008722305298 64.30103182792664,52.58682370185852 64.30103182792664,52.58682370185852 64.1247570514679,52.154541015625 64.1247570514679,52.154541015625 63.95984888076782,51.751863956451416 63.95984888076782,51.751863956451416 63.809508085250854,51.38736963272095 63.809508085250854,51.38736963272095 63.677406311035156,51.069873571395874 63.677406311035156,51.069873571395874 63.566821813583374,50.807952880859375 63.566821813583374,50.807952880859375 63.481444120407104,50.6103515625 63.481444120407104,50.6103515625 63.41544985771179,50.46348571777344 63.41544985771179,50.46348571777344 63.33908438682556,50.30826926231384 63.33908438682556,50.30826926231384 63.25210928916931,50.14640688896179 63.25210928916931,50.14640688896179 63.15448880195618,49.9795526266098 63.15448880195618,49.9795526266098 63.04611563682556,49.80957210063934 63.04611563682556,49.80957210063934 62.92690634727478,49.63817596435547 62.92690634727478,49.63817596435547 62.796592712402344,49.46693480014801 62.796592712402344,49.46693480014801 62.65525817871094,49.29775297641754 62.65525817871094,49.29775297641754 62.50267028808594,49.13219511508942 62.50267028808594,49.13219511508942 62.33887076377869,48.97216856479645 62.33887076377869,48.97216856479645 62.279170751571655,48.9187628030777 62.279170751571655,48.9187628030777 62.219393253326416,48.8668829202652 62.219393253326416,48.8668829202652 62.15953826904297,48.816490173339844 62.15953826904297,48.816490173339844 62.099456787109375,48.76751005649567 62.099456787109375,48.76751005649567 62.0391845703125,48.71978759765625 62.0391845703125,48.71978759765625 61.978644132614136,48.67332577705383 61.978644132614136,48.67332577705383 61.917686462402344,48.62804412841797 61.917686462402344,48.62804412841797 61.85634732246399,48.58390986919403 61.85634732246399,48.58390986919403 61.794471740722656,48.540687561035156 61.794471740722656,48.540687561035156 61.732178926467896,48.49853515625 61.732178926467896,48.49853515625 75.7373034954071,39.25049006938934 75.7373034954071,39.25049006938934 75.85304379463196,39.185792207717896 75.85304379463196,39.185792207717896 75.97091794013977,39.12803828716278 75.97091794013977,39.12803828716278 76.0906994342804,39.07707333564758 76.0906994342804,39.07707333564758 76.21223330497742,39.03297483921051 76.21223330497742,39.03297483921051 76.33514404296875,38.99566829204559 76.33514404296875,38.99566829204559 76.45938992500305,38.96522521972656 76.45938992500305,38.96522521972656 76.58454775810242,38.94153535366058 76.58454775810242,38.94153535366058 76.71058773994446,38.924676179885864 76.71058773994446,38.924676179885864 76.83712244033813,38.91448974609375 76.83712244033813,38.91448974609375 76.9641101360321,38.911134004592896 76.9641101360321,38.911134004592896 77.16361880302429,38.91944885253906 77.16361880302429,38.91944885253906 77.36156582832336,38.944244384765625 77.36156582832336,38.944244384765625 77.5568425655365,38.985368609428406 77.5568425655365,38.985368609428406 77.7484118938446,39.04251158237457 77.7484118938446,39.04251158237457 77.93518304824829,39.115601778030396 77.93518304824829,39.115601778030396 78.11614871025085,39.204367995262146 78.11614871025085,39.204367995262146 78.29006314277649,39.30854797363281 78.29006314277649,39.30854797363281 78.45607995986938,39.42802548408508 78.45607995986938,39.42802548408508 78.61297726631165,39.562493562698364 78.61297726631165,39.562493562698364 78.759765625,39.71191346645355 78.759765625,39.71191346645355 78.96854281425476,39.9802029132843 78.96854281425476,39.9802029132843 79.13475036621094,40.26931822299957 79.13475036621094,40.26931822299957 79.25819754600525,40.57457149028778 79.25819754600525,40.57457149028778 79.33868765830994,40.891191363334656 79.33868765830994,40.891191363334656 79.37591671943665,41.21460020542145 79.37591671943665,41.21460020542145 79.36977744102478,41.540032625198364 79.36977744102478,41.540032625198364 79.31987643241882,41.86286926269531 79.31987643241882,41.86286926269531 79.22622561454773,42.1783447265625 79.22622561454773,42.1783447265625 79.08836603164673,42.481765151023865 79.08836603164673,42.481765151023865 78.90625,42.768555879592896 78.90625,42.768555879592896 67.1276867389679,55.363768339157104 67.1276867389679,55.363768339157104 77.252197265625,54.206544160842896 77.252197265625,54.206544160842896 77.27974057197571,54.20441031455994 77.27974057197571,54.20441031455994 77.30736136436462,54.20246124267578 77.30736136436462,54.20246124267578 77.3350179195404,54.20066714286804 77.3350179195404,54.20066714286804 77.36267447471619,54.19906973838806 77.36267447471619,54.19906973838806 77.39028930664062,54.19769287109375 77.39028930664062,54.19769287109375 77.41779685020447,54.196590185165405 77.41779685020447,54.196590185165405 77.44514346122742,54.195594787597656 77.44514346122742,54.195594787597656 77.4722695350647,54.194945096969604 77.4722695350647,54.194945096969604 77.49904990196228,54.19445037841797 77.49904990196228,54.19445037841797 77.5256335735321,54.194337129592896 77.5256335735321,54.194337129592896 77.8329849243164,54.213947057724 77.8329849243164,54.213947057724 78.13125848770142,54.27147150039673 78.13125848770142,54.27147150039673 78.41731905937195,54.36493158340454 78.41731905937195,54.36493158340454 78.68812680244446,54.49245572090149 78.68812680244446,54.49245572090149 78.94073724746704,54.652100801467896 78.94073724746704,54.652100801467896 79.17202115058899,54.841917753219604 79.17202115058899,54.841917753219604 79.37893271446228,55.06000518798828 79.37893271446228,55.06000518798828 79.5584499835968,55.30433654785156 79.5584499835968,55.30433654785156 79.70741391181946,55.57304620742798 79.70741391181946,55.57304620742798" stroke="white" stroke-width="0.1" /><polygon points="20.347900688648224,54.206544160842896 20.347900688648224,54.206544160842896 28.024902939796448,55.083006620407104 28.024902939796448,55.083006620407104 28.02940309047699,55.10139465332031 28.02940309047699,55.10139465332031 28.033524751663208,55.119895935058594 28.033524751663208,55.119895935058594 28.037413954734802,55.13847470283508 28.037413954734802,55.13847470283508 28.04107666015625,55.15708923339844 28.04107666015625,55.15708923339844 28.044739365577698,55.17578125 28.044739365577698,55.17578125 28.04851531982422,55.19447326660156 28.04851531982422,55.19447326660156 28.052368760108948,55.21312952041626 28.052368760108948,55.21312952041626 28.05660367012024,55.23170828819275 28.05660367012024,55.23170828819275 28.061220049858093,55.25016784667969 28.061220049858093,55.25016784667969 28.066405653953552,55.268555879592896 28.066405653953552,55.268555879592896 27.796632051467896,58.161622285842896 27.796632051467896,58.161622285842896 27.73410975933075,58.292847871780396 27.73410975933075,58.292847871780396 27.674904465675354,58.42716097831726 27.674904465675354,58.42716097831726 27.619248628616333,58.56437683105469 27.619248628616333,58.56437683105469 27.567291259765625,58.704376220703125 27.567291259765625,58.704376220703125 27.519378066062927,58.8470458984375 27.519378066062927,58.8470458984375 27.47569978237152,58.992236852645874 27.47569978237152,58.992236852645874 27.43637263774872,59.139710664749146 27.43637263774872,59.139710664749146 27.4017333984375,59.28936004638672 27.4017333984375,59.28936004638672 27.371978759765625,59.44107174873352 27.371978759765625,59.44107174873352 27.347412705421448,59.5947265625 27.347412705421448,59.5947265625 26.7578125,63.92578482627869 26.7578125,63.92578482627869 26.057013869285583,63.44303488731384 26.057013869285583,63.44303488731384 25.422286987304688,62.9886269569397 25.422286987304688,62.9886269569397 24.85530823469162,62.56778836250305 24.85530823469162,62.56778836250305 24.358025193214417,62.18585968017578 24.358025193214417,62.18585968017578 23.932190239429474,61.848145723342896 23.932190239429474,61.848145723342896 23.579750955104828,61.55998110771179 23.579750955104828,61.55998110771179 23.302344977855682,61.32652163505554 23.302344977855682,61.32652163505554 23.101960122585297,61.1532986164093 23.101960122585297,61.1532986164093 22.980384528636932,61.04542016983032 22.980384528636932,61.04542016983032 22.93945401906967,61.00830435752869 22.93945401906967,61.00830435752869 18.885497748851776,58.71338248252869 18.885497748851776,58.71338248252869 18.602295219898224,58.52543115615845 18.602295219898224,58.52543115615845 18.35292875766754,58.304327726364136 18.35292875766754,58.304327726364136 18.139076232910156,58.05442929267883 18.139076232910156,58.05442929267883 17.962418496608734,57.78007507324219 17.962418496608734,57.78007507324219 17.82470792531967,57.485657930374146 17.82470792531967,57.485657930374146 17.727546393871307,57.17548727989197 17.727546393871307,57.17548727989197 17.672614753246307,56.85386657714844 17.672614753246307,56.85386657714844 17.661666870117188,56.52527213096619 17.661666870117188,56.52527213096619 17.696304619312286,56.19388818740845 17.696304619312286,56.19388818740845 17.778320610523224,55.864256620407104 17.778320610523224,55.864256620407104 17.894135415554047,55.573081970214844 17.894135415554047,55.573081970214844 18.043212592601776,55.30433654785156 18.043212592601776,55.30433654785156 18.222656846046448,55.059969425201416 18.222656846046448,55.059969425201416 18.429337441921234,54.841917753219604 18.429337441921234,54.841917753219604 18.660278618335724,54.652100801467896 18.660278618335724,54.652100801467896 18.912506103515625,54.492491483688354 18.912506103515625,54.492491483688354 19.182853400707245,54.36493158340454 19.182853400707245,54.36493158340454 19.46849822998047,54.27147150039673 19.46849822998047,54.27147150039673 19.7662353515625,54.213905334472656 19.7662353515625,54.213905334472656 20.073242485523224,54.194337129592896 20.073242485523224,54.194337129592896 20.100747048854828,54.19445037841797 20.100747048854828,54.19445037841797 20.128288865089417,54.19490933418274 20.128288865089417,54.19490933418274 20.15586942434311,54.195594787597656 20.15586942434311,54.195594787597656 20.183487236499786,54.1965126991272 20.183487236499786,54.1965126991272 20.211029052734375,54.19769287109375 20.211029052734375,54.19769287109375 20.238570868968964,54.19914126396179 20.238570868968964,54.19914126396179 20.266036689281464,54.200708866119385 20.266036689281464,54.200708866119385 20.293426513671875,54.20246124267578 20.293426513671875,54.20246124267578 20.32066434621811,54.20441031455994 20.32066434621811,54.20441031455994" stroke="white" stroke-width="0.1" /></svg>