<?xml version="1.0" encoding="utf-8" ?>
<svg baseProfile="full" height="100.0" version="1.1" width="100.0" xmlns="http://www.w3.org/2000/svg" xmlns:ev="http://www.w3.org/2001/xml-events" xmlns:xlink="http://www.w3.org/1999/xlink"><defs><clipPath /></defs><polygon points="50.00244379043579,0.0 50.00244379043579,0.0 58.10150504112244,0.6555938627570868 58.10150504112244,0.6555938627570868 65.78842401504517,2.5531768798828125 65.78842401504517,2.5531768798828125 72.9595959186554,5.589065700769424 72.9595959186554,5.589065700769424 79.51111197471619,9.659576416015625 79.51111197471619,9.659576416015625 85.33935546875,14.660798013210297 85.33935546875,14.660798013210297 90.34057855606079,20.489196479320526 90.34057855606079,20.489196479320526 94.4110095500946,27.040863037109375 94.4110095500946,27.040863037109375 97.4469006061554,34.21218991279602 97.4469006061554,34.21218991279602 99.34433102607727,41.899338364601135 99.34433102607727,41.899338364601135 100.0,49.99878108501434 100.0,49.99878108501434 99.34440851211548,58.09852480888367 99.34440851211548,58.09852480888367 97.44682312011719,65.78605771064758 97.44682312011719,65.78605771064758 94.4110095500946,72.95776605606079 94.4110095500946,72.95776605606079 90.34057855606079,79.50981259346008 90.34057855606079,79.50981259346008 85.33935546875,85.33844351768494 85.33935546875,85.33844351768494 79.51111197471619,90.34004211425781 79.51111197471619,90.34004211425781 72.9595959186554,94.41062808036804 72.9595959186554,94.41062808036804 65.78842401504517,97.44674563407898 65.78842401504517,97.44674563407898 58.10142755508423,99.34433102607727 58.10142755508423,99.34433102607727 50.00244379043579,100.0 50.00244379043579,100.0 41.90269410610199,99.34433102607727 41.90269410610199,99.34433102607727 34.215012192726135,97.44659662246704 34.215012192726135,97.44659662246704 27.043229341506958,94.41062808036804 27.043229341506958,94.41062808036804 20.49102783203125,90.3399646282196 20.49102783203125,90.3399646282196 14.66217041015625,85.33844351768494 14.66217041015625,85.33844351768494 9.660530090332031,79.50981259346008 9.660530090332031,79.50981259346008 5.589714273810387,72.95776605606079 5.589714273810387,72.95776605606079 2.5534821674227715,65.78613519668579 2.5534821674227715,65.78613519668579 0.655632046982646,58.09845328330994 0.655632046982646,58.09845328330994 0.0,49.99878108501434 0.0,49.99878108501434 0.655632046982646,41.89941585063934 0.655632046982646,41.89941585063934 2.5534821674227715,34.21218991279602 2.5534821674227715,34.21218991279602 5.5896759033203125,27.040863037109375 5.5896759033203125,27.040863037109375 9.660454094409943,20.489120483398438 9.660454094409943,20.489120483398438 14.66217041015625,14.660798013210297 14.66217041015625,14.660798013210297 20.49102783203125,9.659576416015625 20.49102783203125,9.659576416015625 27.04315185546875,5.589065700769424 27.04315185546875,5.589065700769424 34.21508967876434,2.553253248333931 34.21508967876434,2.553253248333931 41.90261960029602,0.6555175874382257 41.90261960029602,0.6555175874382257" stroke="white" stroke-width="0.1" /><polygon points="50.00244379043579,90.00000357627869 50.00244379043579,90.00000357627869 54.33868765830994,89.7674560546875 54.33868765830994,89.7674560546875 58.54019522666931,89.08615112304688 58.54019522666931,89.08615112304688 62.58293390274048,87.98004388809204 62.58293390274048,87.98004388809204 66.44294857978821,86.47308349609375 66.44294857978821,86.47308349609375 70.09643912315369,84.58954095840454 70.09643912315369,84.58954095840454 73.51943850517273,82.35344290733337 73.51943850517273,82.35344290733337 76.68777704238892,79.78874444961548 76.68777704238892,79.78874444961548 79.57763671875,76.91963315010071 79.57763671875,76.91963315010071 82.16506838798523,73.77006411552429 82.16506838798523,73.77006411552429 84.42627191543579,70.3643798828125 84.42627191543579,70.3643798828125 79.3408215045929,70.3643798828125 79.3408215045929,70.3643798828125 78.7304699420929,70.31707763671875 78.7304699420929,70.31707763671875 78.14971804618835,70.1800525188446 78.14971804618835,70.1800525188446 77.60543823242188,69.96048092842102 77.60543823242188,69.96048092842102 77.10456848144531,69.66560482978821 77.10456848144531,69.66560482978821 76.65390372276306,69.30252313613892 76.65390372276306,69.30252313613892 76.2603759765625,68.87855529785156 76.2603759765625,68.87855529785156 75.9307861328125,68.40057373046875 75.9307861328125,68.40057373046875 75.67200064659119,67.87620782852173 75.67200064659119,67.87620782852173 75.490802526474,67.31224060058594 75.490802526474,67.31224060058594 75.39429068565369,66.7163074016571 75.39429068565369,66.7163074016571 75.39092898368835,66.68289303779602 75.39092898368835,66.68289303779602 75.38696527481079,66.64962768554688 75.38696527481079,66.64962768554688 75.38261413574219,66.61651730537415 75.38261413574219,66.61651730537415 75.37803649902344,66.58348441123962 75.37803649902344,66.58348441123962 75.3735363483429,66.55052304267883 75.3735363483429,66.55052304267883 75.36941766738892,66.51756167411804 75.36941766738892,66.51756167411804 75.36575198173523,66.4843738079071 75.36575198173523,66.4843738079071 75.36270022392273,66.45126342773438 75.36270022392273,66.45126342773438 75.36072134971619,66.41777157783508 75.36072134971619,66.41777157783508 75.360107421875,66.38427972793579 75.360107421875,66.38427972793579 75.360107421875,33.27087461948395 75.360107421875,33.27087461948395 75.36102533340454,33.20251405239105 75.36102533340454,33.20251405239105 75.36369562149048,33.13461244106293 75.36369562149048,33.13461244106293 75.36796927452087,33.067017793655396 75.36796927452087,33.067017793655396 75.3736138343811,32.99980163574219 75.3736138343811,32.99980163574219 75.38055777549744,32.932814955711365 75.38055777549744,32.932814955711365 75.38864016532898,32.86628723144531 75.38864016532898,32.86628723144531 75.39749145507812,32.79983699321747 75.39749145507812,32.79983699321747 75.40740966796875,32.733842730522156 75.40740966796875,32.733842730522156 75.41763186454773,32.66792297363281 75.41763186454773,32.66792297363281 75.4284679889679,32.60253965854645 75.4284679889679,32.60253965854645 75.56304931640625,32.05459713935852 75.56304931640625,32.05459713935852 75.77041983604431,31.538772583007812 75.77041983604431,31.538772583007812 76.04461908340454,31.061020493507385 76.04461908340454,31.061020493507385 76.37969851493835,30.62736690044403 76.37969851493835,30.62736690044403 76.76987051963806,30.24391233921051 76.76987051963806,30.24391233921051 77.20932364463806,29.916688799858093 77.20932364463806,29.916688799858093 77.69180536270142,29.651567339897156 77.69180536270142,29.651567339897156 78.21197509765625,29.454880952835083 78.21197509765625,29.454880952835083 78.76350283622742,29.332351684570312 78.76350283622742,29.332351684570312 79.3408215045929,29.290160536766052 79.3408215045929,29.290160536766052 84.2272937297821,29.290160536766052 84.2272937297821,29.290160536766052 81.95724487304688,25.940170884132385 81.95724487304688,25.940170884132385 79.3688952922821,22.843781113624573 79.3688952922821,22.843781113624573 76.48559808731079,20.02418488264084 76.48559808731079,20.02418488264084 73.33061099052429,17.504730820655823 73.33061099052429,17.504730820655823 69.92737054824829,15.308915078639984 69.92737054824829,15.308915078639984 66.29913449287415,13.460007309913635 66.29913449287415,13.460007309913635 62.469178438186646,11.981201171875 62.469178438186646,11.981201171875 58.46084952354431,10.896148532629013 58.46084952354431,10.896148532629013 54.29741144180298,10.227813571691513 54.29741144180298,10.227813571691513 50.00244379043579,10.000000149011612 50.00244379043579,10.000000149011612 43.51394772529602,10.523529350757599 43.51394772529602,10.523529350757599 37.3587042093277,12.0391845703125 37.3587042093277,12.0391845703125 31.6192626953125,14.464493095874786 31.6192626953125,14.464493095874786 26.377716660499573,17.717285454273224 26.377716660499573,17.717285454273224 21.716614067554474,21.7152401804924 21.716614067554474,21.7152401804924 17.71831512451172,26.375961303710938 17.71831512451172,26.375961303710938 14.46506530046463,31.616973876953125 14.46506530046463,31.616973876953125 12.03945204615593,37.35603392124176 12.03945204615593,37.35603392124176 10.523529350757599,43.510666489601135 10.523529350757599,43.510666489601135 10.000000149011612,49.99878108501434 10.000000149011612,49.99878108501434 10.523567348718643,56.4875066280365 10.523567348718643,56.4875066280365 12.039413303136826,62.64282464981079 12.039413303136826,62.64282464981079 14.465104043483734,68.38234066963196 14.465104043483734,68.38234066963196 17.718277871608734,73.62357974052429 17.718277871608734,73.62357974052429 21.716614067554474,78.28445434570312 21.716614067554474,78.28445434570312 26.377716660499573,82.28256106376648 26.377716660499573,82.28256106376648 31.6192626953125,85.53543090820312 31.6192626953125,85.53543090820312 37.358781695365906,87.96089291572571 37.358781695365906,87.96089291572571 43.51387023925781,89.47647213935852 43.51387023925781,89.47647213935852" stroke="white" stroke-width="0.1" /></svg>