<?xml version="1.0" encoding="utf-8" ?>
<svg baseProfile="full" height="48.69140684604645" version="1.1" width="79.6948254108429" xmlns="http://www.w3.org/2000/svg" xmlns:ev="http://www.w3.org/2001/xml-events" xmlns:xlink="http://www.w3.org/1999/xlink"><defs><clipPath /></defs><polygon points="79.0820300579071,34.38964784145355 79.0820300579071,34.38964784145355 79.19792532920837,34.67307984828949 79.19792532920837,34.67307984828949 79.30183410644531,34.960708022117615 79.30183410644531,34.960708022117615 79.39361929893494,35.25245785713196 79.39361929893494,35.25245785713196 79.4733464717865,35.548096895217896 79.4733464717865,35.548096895217896 79.54086661338806,35.84747314453125 79.54086661338806,35.84747314453125 79.59625124931335,36.15047633647919 79.59625124931335,36.15047633647919 79.63928580284119,36.456871032714844 79.63928580284119,36.456871032714844 79.67018485069275,36.766549944877625 79.67018485069275,36.766549944877625 79.68849539756775,37.07923889160156 79.68849539756775,37.07923889160156 79.6948254108429,37.39502131938934 79.6948254108429,37.39502131938934 79.68856692314148,37.71141171455383 79.68856692314148,37.71141171455383 79.67010736465454,38.024672865867615 79.67010736465454,38.024672865867615 79.63928580284119,38.33480775356293 79.63928580284119,38.33480775356293 79.59625124931335,38.64150941371918 79.59625124931335,38.64150941371918 79.54086661338806,38.944703340530396 79.54086661338806,38.944703340530396 79.4733464717865,39.24427032470703 79.4733464717865,39.24427032470703 79.39369082450867,39.53998684883118 79.39369082450867,39.53998684883118 79.30183410644531,39.831772446632385 79.30183410644531,39.831772446632385 79.19784784317017,40.119361877441406 79.19784784317017,40.119361877441406 79.0820300579071,40.40283262729645 79.0820300579071,40.40283262729645 78.9563000202179,40.67878723144531 78.9563000202179,40.67878723144531 78.82095575332642,40.94841182231903 78.82095575332642,40.94841182231903 78.6761462688446,41.211509704589844 78.6761462688446,41.211509704589844 78.52188348770142,41.467973589897156 78.52188348770142,41.467973589897156 78.35831046104431,41.717529296875 78.35831046104431,41.717529296875 78.1855046749115,41.960105299949646 78.1855046749115,41.960105299949646 78.00369262695312,42.19539761543274 78.00369262695312,42.19539761543274 77.81295776367188,42.423439025878906 77.81295776367188,42.423439025878906 77.61314511299133,42.64373779296875 77.61314511299133,42.64373779296875 77.40478515625,42.85644590854645 77.40478515625,42.85644590854645 77.18948721885681,43.060991168022156 77.18948721885681,43.060991168022156 76.96685791015625,43.257102370262146 76.96685791015625,43.257102370262146 76.73706412315369,43.44467222690582 76.73706412315369,43.44467222690582 76.50032043457031,43.62365901470184 76.50032043457031,43.62365901470184 76.25671625137329,43.793946504592896 76.25671625137329,43.793946504592896 76.00647211074829,43.955498933792114 76.00647211074829,43.955498933792114 75.74943900108337,44.10804808139801 75.74943900108337,44.10804808139801 75.48599243164062,44.251710176467896 75.48599243164062,44.251710176467896 75.21606683731079,44.38621699810028 75.21606683731079,44.38621699810028 74.9401867389679,44.51172053813934 74.9401867389679,44.51172053813934 74.71222281455994,44.60655152797699 74.71222281455994,44.60655152797699 74.48181509971619,44.69337463378906 74.48181509971619,44.69337463378906 74.24911856651306,44.77226436138153 74.24911856651306,44.77226436138153 74.01397824287415,44.84306275844574 74.01397824287415,44.84306275844574 73.77685904502869,44.90600526332855 73.77685904502869,44.90600526332855 73.537677526474,44.961053133010864 73.537677526474,44.961053133010864 73.29643368721008,45.00812590122223 73.29643368721008,45.00812590122223 73.05351495742798,45.04745602607727 73.05351495742798,45.04745602607727 72.80861139297485,45.07884979248047 72.80861139297485,45.07884979248047 72.56225943565369,45.10253965854645 72.56225943565369,45.10253965854645 72.56225943565369,48.095703125 72.56225943565369,48.095703125 72.55447506904602,48.191872239112854 72.55447506904602,48.191872239112854 72.53181338310242,48.28331172466278 72.53181338310242,48.28331172466278 72.49565124511719,48.36864471435547 72.49565124511719,48.36864471435547 72.44705557823181,48.44673275947571 72.44705557823181,48.44673275947571 72.38739132881165,48.51623475551605 72.38739132881165,48.51623475551605 72.31788635253906,48.57601225376129 72.31788635253906,48.57601225376129 72.23960757255554,48.624610900878906 72.23960757255554,48.624610900878906 72.1540093421936,48.66088926792145 72.1540093421936,48.66088926792145 72.06199765205383,48.68354797363281 72.06199765205383,48.68354797363281 71.9653308391571,48.69140684604645 71.9653308391571,48.69140684604645 68.39966177940369,48.69140684604645 68.39966177940369,48.69140684604645 68.30283999443054,48.68354797363281 68.30283999443054,48.68354797363281 68.2110607624054,48.66088926792145 68.2110607624054,48.66088926792145 68.12538504600525,48.62453639507294 68.12538504600525,48.62453639507294 68.04702877998352,48.57593476772308 68.04702877998352,48.57593476772308 67.97760128974915,48.51623475551605 67.97760128974915,48.51623475551605 67.91793704032898,48.44673275947571 67.91793704032898,48.44673275947571 67.86941885948181,48.36864471435547 67.86941885948181,48.36864471435547 67.83317923545837,48.28331172466278 67.83317923545837,48.28331172466278 67.81051754951477,48.191872239112854 67.81051754951477,48.191872239112854 67.8027331829071,48.095703125 67.8027331829071,48.095703125 67.8027331829071,40.961915254592896 67.8027331829071,40.961915254592896 67.81059503555298,40.865135192871094 67.81059503555298,40.865135192871094 67.83317923545837,40.77339172363281 67.83317923545837,40.77339172363281 67.86941885948181,40.68790376186371 67.86941885948181,40.68790376186371 67.91793704032898,40.60981869697571 67.91793704032898,40.60981869697571 67.97760128974915,40.5404657125473 67.97760128974915,40.5404657125473 68.04725527763367,40.480995178222656 68.04725527763367,40.480995178222656 68.12538504600525,40.43262600898743 68.12538504600525,40.43262600898743 68.21098327636719,40.39653837680817 68.21098327636719,40.39653837680817 68.3026909828186,40.37395417690277 68.3026909828186,40.37395417690277 68.39966177940369,40.36621153354645 68.39966177940369,40.36621153354645 71.9653308391571,40.36621153354645 71.9653308391571,40.36621153354645 72.08938598632812,40.363845229148865 72.08938598632812,40.363845229148865 72.21161127090454,40.35686552524567 72.21161127090454,40.35686552524567 72.33215570449829,40.345191955566406 72.33215570449829,40.345191955566406 72.45063781738281,40.32882750034332 72.45063781738281,40.32882750034332 72.56729006767273,40.30792415142059 72.56729006767273,40.30792415142059 72.6819634437561,40.28240144252777 72.6819634437561,40.28240144252777 72.79449701309204,40.25222957134247 72.79449701309204,40.25222957134247 72.90481925010681,40.21747708320618 72.90481925010681,40.21747708320618 73.01292419433594,40.17810821533203 73.01292419433594,40.17810821533203 73.1188952922821,40.13427793979645 73.1188952922821,40.13427793979645 73.22418093681335,40.086135268211365 73.22418093681335,40.086135268211365 73.32702875137329,40.034180879592896 73.32702875137329,40.034180879592896 73.42727780342102,39.97833430767059 73.42727780342102,39.97833430767059 73.52501153945923,39.91870880126953 73.52501153945923,39.91870880126953 73.62014651298523,39.85534608364105 73.62014651298523,39.85534608364105 73.71277213096619,39.78839814662933 73.71277213096619,39.78839814662933 73.80256652832031,39.7177517414093 73.80256652832031,39.7177517414093 73.88992309570312,39.643630385398865 73.88992309570312,39.643630385398865 73.97438287734985,39.56588804721832 73.97438287734985,39.56588804721832 74.05639886856079,39.484864473342896 74.05639886856079,39.484864473342896 74.13643002510071,39.39926326274872 74.13643002510071,39.39926326274872 74.21326041221619,39.310988783836365 74.21326041221619,39.310988783836365 74.28680658340454,39.22004699707031 74.28680658340454,39.22004699707031 74.35684204101562,39.126625657081604 74.35684204101562,39.126625657081604 74.42367672920227,39.03076350688934 74.42367672920227,39.03076350688934 74.48722720146179,38.93260955810547 74.48722720146179,38.93260955810547 74.54704642295837,38.83209228515625 74.54704642295837,38.83209228515625 74.60350394248962,38.72947692871094 74.60350394248962,38.72947692871094 74.65629577636719,38.62476348876953 74.65629577636719,38.62476348876953 74.7058093547821,38.51806819438934 74.7058093547821,38.51806819438934 74.749755859375,38.41186463832855 74.749755859375,38.41186463832855 74.78896975517273,38.30425441265106 74.78896975517273,38.30425441265106 74.82376098632812,38.19518983364105 74.82376098632812,38.19518983364105 74.85389709472656,38.08475434780121 74.85389709472656,38.08475434780121 74.87945556640625,37.9730224609375 74.87945556640625,37.9730224609375 74.9005138874054,37.85999417304993 74.9005138874054,37.85999417304993 74.91683959960938,37.74555325508118 74.91683959960938,37.74555325508118 74.92836117744446,37.62996792793274 74.92836117744446,37.62996792793274 74.935382604599,37.51304745674133 74.935382604599,37.51304745674133 74.9377429485321,37.39502131938934 74.9377429485321,37.39502131938934 74.93545413017273,37.27195858955383 74.93545413017273,37.27195858955383 74.92843866348267,37.15049922466278 74.92843866348267,37.15049922466278 74.91669058799744,37.03064024448395 74.91669058799744,37.03064024448395 74.90043640136719,36.91238462924957 74.90043640136719,36.91238462924957 74.87945556640625,36.7959588766098 74.87945556640625,36.7959588766098 74.85397458076477,36.68140470981598 74.85397458076477,36.68140470981598 74.82383847236633,36.568641662597656 74.82383847236633,36.568641662597656 74.78912472724915,36.45794093608856 74.78912472724915,36.45794093608856 74.74967837333679,36.349183320999146 74.74967837333679,36.349183320999146 74.7058093547821,36.24267578125 74.7058093547821,36.24267578125 74.65667724609375,36.1367791891098 74.65667724609375,36.1367791891098 74.60373044013977,36.03298366069794 74.60373044013977,36.03298366069794 74.5471179485321,35.93128323554993 74.5471179485321,35.93128323554993 74.48669672012329,35.83179414272308 74.48669672012329,35.83179414272308 74.42260980606079,35.73455810546875 74.42260980606079,35.73455810546875 74.3548572063446,35.63961088657379 74.3548572063446,35.63961088657379 74.28345084190369,35.546913743019104 74.28345084190369,35.546913743019104 74.20852780342102,35.456582903862 74.20852780342102,35.456582903862 74.12994503974915,35.36861538887024 74.12994503974915,35.36861538887024 74.0478515625,35.28320491313934 74.0478515625,35.28320491313934 73.96240234375,35.20137965679169 73.96240234375,35.20137965679169 73.87451529502869,35.12306213378906 73.87451529502869,35.12306213378906 73.7841784954071,35.048142075538635 73.7841784954071,35.048142075538635 73.69148135185242,34.97680723667145 73.69148135185242,34.97680723667145 73.59649538993835,34.9090576171875 73.59649538993835,34.9090576171875 73.49929809570312,34.845009446144104 73.49929809570312,34.845009446144104 73.39981198310852,34.784623980522156 73.39981198310852,34.784623980522156 73.29811453819275,34.728050231933594 73.29811453819275,34.728050231933594 73.19419980049133,34.67525541782379 73.19419980049133,34.67525541782379 73.0883777141571,34.626466035842896 73.0883777141571,34.626466035842896 72.98248410224915,34.58259701728821 72.98248410224915,34.58259701728821 72.87506461143494,34.54330563545227 72.87506461143494,34.54330563545227 72.76611328125,34.50855314731598 72.76611328125,34.50855314731598 72.65556454658508,34.47837829589844 72.65556454658508,34.47837829589844 72.54379391670227,34.45281982421875 72.54379391670227,34.45281982421875 72.43072390556335,34.43191647529602 72.43072390556335,34.43191647529602 72.31605648994446,34.4155877828598 72.31605648994446,34.4155877828598 72.20039367675781,34.40391719341278 72.20039367675781,34.40391719341278 72.08328247070312,34.396860003471375 72.08328247070312,34.396860003471375 71.9653308391571,34.394532442092896 71.9653308391571,34.394532442092896 68.39966177940369,34.394532442092896 68.39966177940369,34.394532442092896 68.27507019042969,34.396860003471375 68.27507019042969,34.396860003471375 68.15201044082642,34.40391719341278 68.15201044082642,34.40391719341278 68.03047060966492,34.41566526889801 68.03047060966492,34.41566526889801 67.91038513183594,34.4320684671402 67.91038513183594,34.4320684671402 67.79205203056335,34.45312678813934 67.79205203056335,34.45312678813934 67.67539978027344,34.47891175746918 67.67539978027344,34.47891175746918 67.56042838096619,34.50939357280731 67.56042838096619,34.50939357280731 67.44728088378906,34.54456329345703 67.44728088378906,34.54456329345703 67.3358142375946,34.58435237407684 67.3358142375946,34.58435237407684 67.22656488418579,34.62890684604645 67.22656488418579,34.62890684604645 67.11799502372742,34.67754423618317 67.11799502372742,34.67754423618317 67.0123279094696,34.72965359687805 67.0123279094696,34.72965359687805 66.90940856933594,34.785231947898865 66.90940856933594,34.785231947898865 66.80931448936462,34.844207763671875 66.80931448936462,34.844207763671875 66.71218872070312,34.90661680698395 66.71218872070312,34.90661680698395 66.6180431842804,34.97242033481598 66.6180431842804,34.97242033481598 66.52687191963196,35.041505098342896 66.52687191963196,35.041505098342896 66.43875241279602,35.11390686035156 66.43875241279602,35.11390686035156 66.35368466377258,35.189589858055115 66.35368466377258,35.189589858055115 66.27197265625,35.26855409145355 66.27197265625,35.26855409145355 66.19300842285156,35.3506475687027 66.19300842285156,35.3506475687027 66.11739993095398,35.43579280376434 66.11739993095398,35.43579280376434 66.0449206829071,35.52398681640625 66.0449206829071,35.52398681640625 65.97564816474915,35.61508357524872 65.97564816474915,35.61508357524872 65.90988039970398,35.70922911167145 65.90988039970398,35.70922911167145 65.84747433662415,35.806313157081604 65.84747433662415,35.806313157081604 65.78819155693054,35.906219482421875 65.78819155693054,35.906219482421875 65.73249697685242,36.00906431674957 65.73249697685242,36.00906431674957 65.679931640625,36.11465394496918 65.679931640625,36.11465394496918 65.631103515625,36.22314631938934 65.631103515625,36.22314631938934 65.58685302734375,36.332473158836365 65.58685302734375,36.332473158836365 65.54733514785767,36.44371032714844 65.54733514785767,36.44371032714844 65.51238894462585,36.556702852249146 65.51238894462585,36.556702852249146 65.48202633857727,36.671486496925354 65.48202633857727,36.671486496925354 65.45639038085938,36.7880254983902 65.45639038085938,36.7880254983902 65.43548703193665,36.90624237060547 65.43548703193665,36.90624237060547 65.41900634765625,37.0261013507843 65.41900634765625,37.0261013507843 65.40733575820923,37.14752197265625 65.40733575820923,37.14752197265625 65.40023684501648,37.27047145366669 65.40023684501648,37.27047145366669 65.3979480266571,37.39502131938934 65.3979480266571,37.39502131938934 65.39604067802429,37.44235932826996 65.39604067802429,37.44235932826996 65.39062857627869,37.489089369773865 65.39062857627869,37.489089369773865 65.38147330284119,37.53502070903778 65.38147330284119,37.53502070903778 65.36880731582642,37.579917907714844 65.36880731582642,37.579917907714844 65.35278558731079,37.62359619140625 65.35278558731079,37.62359619140625 65.33340811729431,37.66593933105469 65.33340811729431,37.66593933105469 65.3106689453125,37.7066045999527 65.3106689453125,37.7066045999527 65.28472900390625,37.74559199810028 65.28472900390625,37.74559199810028 65.25551080703735,37.78247833251953 65.25551080703735,37.78247833251953 65.2233898639679,37.8173828125 65.2233898639679,37.8173828125 65.1885986328125,37.84957826137543 65.1885986328125,37.84957826137543 65.15175104141235,37.87879943847656 65.15175104141235,37.87879943847656 65.11291861534119,37.90489137172699 65.11291861534119,37.90489137172699 65.07232785224915,37.92777955532074 65.07232785224915,37.92777955532074 65.03021121025085,37.94738948345184 65.03021121025085,37.94738948345184 64.98680114746094,37.96367645263672 64.98680114746094,37.96367645263672 64.94202017784119,37.97641694545746 64.94202017784119,37.97641694545746 64.89624381065369,37.98568844795227 64.89624381065369,37.98568844795227 64.84947204589844,37.99125850200653 64.84947204589844,37.99125850200653 64.8022472858429,37.99316585063934 64.8022472858429,37.99316585063934 61.235350370407104,37.99316585063934 61.235350370407104,37.99316585063934 61.13883852958679,37.98530697822571 61.13883852958679,37.98530697822571 61.04736328125,37.96260952949524 61.04736328125,37.96260952949524 60.9619140625,37.926292419433594 60.9619140625,37.926292419433594 60.8838677406311,37.8775030374527 60.8838677406311,37.8775030374527 60.81436276435852,37.81768977642059 60.81436276435852,37.81768977642059 60.75485348701477,37.747955322265625 60.75485348701477,37.747955322265625 60.70625185966492,37.669602036476135 60.70625185966492,37.669602036476135 60.6702446937561,37.58384883403778 60.6702446937561,37.58384883403778 60.64735651016235,37.491798400878906 60.64735651016235,37.491798400878906 60.639649629592896,37.39502131938934 60.639649629592896,37.39502131938934 60.645753145217896,37.07927763462067 60.645753145217896,37.07927763462067 60.66436767578125,36.76651120185852 60.66436767578125,36.76651120185852 60.695189237594604,36.45683228969574 60.695189237594604,36.45683228969574 60.73822379112244,36.15043759346008 60.73822379112244,36.15043759346008 60.79360842704773,35.84747314453125 60.79360842704773,35.84747314453125 60.86128354072571,35.548135638237 60.86128354072571,35.548135638237 60.940855741500854,35.25245785713196 60.940855741500854,35.25245785713196 61.03264093399048,34.96074676513672 61.03264093399048,34.96074676513672 61.13647818565369,34.673044085502625 61.13647818565369,34.673044085502625 61.25244498252869,34.38964784145355 61.25244498252869,34.38964784145355 61.37794852256775,34.11426544189453 61.37794852256775,34.11426544189453 61.512452363967896,33.844947814941406 61.512452363967896,33.844947814941406 61.65603995323181,33.581772446632385 61.65603995323181,33.581772446632385 61.80862784385681,33.324965834617615 61.80862784385681,33.324965834617615 61.97006106376648,33.074647188186646 61.97006106376648,33.074647188186646 62.14027404785156,32.831040024757385 62.14027404785156,32.831040024757385 62.31903433799744,32.59418606758118 62.31903433799744,32.59418606758118 62.50648498535156,32.36435055732727 62.50648498535156,32.36435055732727 62.702178955078125,32.14157223701477 62.702178955078125,32.14157223701477 62.90649771690369,31.926271319389343 62.90649771690369,31.926271319389343 63.11996579170227,31.717529892921448 63.11996579170227,31.717529892921448 63.34137320518494,31.5176784992218 63.34137320518494,31.5176784992218 63.57055902481079,31.32675290107727 63.57055902481079,31.32675290107727 63.80729675292969,31.144791841506958 63.80729675292969,31.144791841506958 64.05166983604431,30.971986055374146 64.05166983604431,30.971986055374146 64.30343985557556,30.808335542678833 64.30343985557556,30.808335542678833 64.56222534179688,30.65384030342102 64.56222534179688,30.65384030342102 64.82826471328735,30.50869107246399 64.82826471328735,30.50869107246399 65.10101556777954,30.37288784980774 65.10101556777954,30.37288784980774 65.380859375,30.246582627296448 65.380859375,30.246582627296448 65.66665768623352,30.13099730014801 65.66665768623352,30.13099730014801 65.95657467842102,30.027467012405396 65.95657467842102,30.027467012405396 66.25038385391235,29.93602752685547 66.25038385391235,29.93602752685547 66.54769778251648,29.856643080711365 66.54769778251648,29.856643080711365 66.84860587120056,29.789429903030396 66.84860587120056,29.789429903030396 67.15286374092102,29.734420776367188 67.15286374092102,29.734420776367188 67.46025085449219,29.691505432128906 67.46025085449219,29.691505432128906 67.77054071426392,29.66083586215973 67.77054071426392,29.66083586215973 68.08364987373352,29.64237332344055 68.08364987373352,29.64237332344055 68.39966177940369,29.636231064796448 68.39966177940369,29.636231064796448 71.9653308391571,29.636231064796448 71.9653308391571,29.636231064796448 72.28134274482727,29.64237332344055 72.28134274482727,29.64237332344055 72.59445190429688,29.66083586215973 72.59445190429688,29.66083586215973 72.90436029434204,29.69154417514801 72.90436029434204,29.69154417514801 73.21082949638367,29.734498262405396 73.21082949638367,29.734498262405396 73.51394891738892,29.78973388671875 73.51394891738892,29.78973388671875 73.81348013877869,29.857254028320312 73.81348013877869,29.857254028320312 74.10919070243835,29.9368679523468 74.10919070243835,29.9368679523468 74.40094351768494,30.02876341342926 74.40094351768494,30.02876341342926 74.68841671943665,30.13279139995575 74.68841671943665,30.13279139995575 74.97192621231079,30.2490234375 74.97192621231079,30.2490234375 75.24811029434204,30.375367403030396 75.24811029434204,30.375367403030396 75.51795840263367,30.511093139648438 75.51795840263367,30.511093139648438 75.78125,30.65624237060547 75.78125,30.65624237060547 76.03775262832642,30.810546875 76.03775262832642,30.810546875 76.28738284111023,30.974122881889343 76.28738284111023,30.974122881889343 76.5302300453186,31.14677369594574 76.5302300453186,31.14677369594574 76.76567435264587,31.32835328578949 76.76567435264587,31.32835328578949 76.99386477470398,31.51889741420746 76.99386477470398,31.51889741420746 77.21450924873352,31.7181795835495 77.21450924873352,31.7181795835495 77.4279773235321,31.926271319389343 77.4279773235321,31.926271319389343 77.63214111328125,32.14164674282074 77.63214111328125,32.14164674282074 77.82806754112244,32.36435055732727 77.82806754112244,32.36435055732727 78.01544070243835,32.59418606758118 78.01544070243835,32.59418606758118 78.19420099258423,32.83096253871918 78.19420099258423,32.83096253871918 78.36441397666931,33.074647188186646 78.36441397666931,33.074647188186646 78.52584719657898,33.32500457763672 78.52584719657898,33.32500457763672 78.67836356163025,33.581772446632385 78.67836356163025,33.581772446632385 78.8221001625061,33.844947814941406 78.8221001625061,33.844947814941406 78.95645499229431,34.11426544189453 78.95645499229431,34.11426544189453" stroke="white" stroke-width="0.1" /></svg>