<?xml version="1.0" encoding="utf-8" ?>
<svg baseProfile="full" height="54.169923067092896" version="1.1" width="72.08404541015625" xmlns="http://www.w3.org/2000/svg" xmlns:ev="http://www.w3.org/2001/xml-events" xmlns:xlink="http://www.w3.org/1999/xlink"><defs><clipPath /></defs><polygon points="31.718751788139343,54.169923067092896 31.718751788139343,54.169923067092896 30.38177490234375,53.95496487617493 30.38177490234375,53.95496487617493 29.342040419578552,53.371661901474 29.342040419578552,53.371661901474 28.59954833984375,52.51197814941406 28.59954833984375,52.51197814941406 28.15399169921875,51.46808624267578 28.15399169921875,51.46808624267578 28.005370497703552,50.33203363418579 28.005370497703552,50.33203363418579 28.153839707374573,49.19597804546356 28.153839707374573,49.19597804546356 28.59954833984375,48.15208613872528 28.59954833984375,48.15208613872528 29.34219539165497,47.29244410991669 29.34219539165497,47.29244410991669 30.381926894187927,46.70906066894531 30.381926894187927,46.70906066894531 31.718751788139343,46.49414122104645 31.718751788139343,46.49414122104645 33.05542171001434,46.70902192592621 33.05542171001434,46.70902192592621 34.0951532125473,47.29244410991669 34.0951532125473,47.29244410991669 34.8379522562027,48.15208613872528 34.8379522562027,48.15208613872528 35.283660888671875,49.19605255126953 35.283660888671875,49.19605255126953 35.432130098342896,50.33203363418579 35.432130098342896,50.33203363418579 35.2835088968277,51.468050479888916 35.2835088968277,51.468050479888916 34.8379522562027,52.51197814941406 34.8379522562027,52.51197814941406 34.09530818462372,53.371661901474 34.09530818462372,53.371661901474 33.05542171001434,53.95500063896179 33.05542171001434,53.95500063896179 31.718751788139343,54.169923067092896 31.718751788139343,54.169923067092896" stroke="white" stroke-width="0.1" /><polygon points="61.60888671875,52.167969942092896 61.60888671875,52.167969942092896 43.49365234375,52.167969942092896 43.49365234375,52.167969942092896 39.65087831020355,52.167969942092896 39.65087831020355,52.167969942092896 39.356690645217896,52.16415524482727 39.356690645217896,52.16415524482727 39.05059993267059,52.147865295410156 39.05059993267059,52.147865295410156 38.74572813510895,52.11170315742493 38.74572813510895,52.11170315742493 38.456422090530396,52.048224210739136 38.456422090530396,52.048224210739136 38.19610774517059,51.9500732421875 38.19610774517059,51.9500732421875 37.97867000102997,51.809924840927124 37.97867000102997,51.809924840927124 37.81784176826477,51.62029266357422 37.81784176826477,51.62029266357422 37.72735595703125,51.37390494346619 37.72735595703125,51.37390494346619 37.720948457717896,51.0633111000061 37.720948457717896,51.0633111000061 37.812501192092896,50.68115592002869 37.812501192092896,50.68115592002869 37.95837461948395,50.25150179862976 37.95837461948395,50.25150179862976 38.10974061489105,49.82360899448395 38.10974061489105,49.82360899448395 38.27453553676605,49.407464265823364 38.27453553676605,49.407464265823364 38.46237361431122,49.01359677314758 38.46237361431122,49.01359677314758 38.68133723735809,48.6520379781723 38.68133723735809,48.6520379781723 38.94073665142059,48.333245515823364 38.94073665142059,48.333245515823364 39.2495721578598,48.067399859428406 39.2495721578598,48.067399859428406 39.61624205112457,47.86483943462372 39.61624205112457,47.86483943462372 40.04974365234375,47.73574769496918 40.04974365234375,47.73574769496918 40.559083223342896,47.69043028354645 40.559083223342896,47.69043028354645 43.72802674770355,47.69043028354645 43.72802674770355,47.69043028354645 56.718748807907104,47.69043028354645 56.718748807907104,47.69043028354645 60.039061307907104,47.69043028354645 60.039061307907104,47.69043028354645 60.38269400596619,47.716790437698364 60.38269400596619,47.716790437698364 60.696715116500854,47.792816162109375 60.696715116500854,47.792816162109375 60.98220944404602,47.913628816604614 60.98220944404602,47.913628816604614 61.24008297920227,48.074570298194885 61.24008297920227,48.074570298194885 61.471253633499146,48.270875215530396 61.471253633499146,48.270875215530396 61.677247285842896,48.497772216796875 61.677247285842896,48.497772216796875 61.858826875686646,48.75057339668274 61.858826875686646,48.75057339668274 62.017059326171875,49.02450740337372 62.017059326171875,49.02450740337372 62.15301752090454,49.31476712226868 62.15301752090454,49.31476712226868 62.26806640625,49.616700410842896 62.26806640625,49.616700410842896 62.36862540245056,49.906426668167114 62.36862540245056,49.906426668167114 62.474215030670166,50.227051973342896 62.474215030670166,50.227051973342896 62.568819522857666,50.56396722793579 62.568819522857666,50.56396722793579 62.637025117874146,50.90290307998657 62.637025117874146,50.90290307998657 62.66266107559204,51.22925043106079 62.66266107559204,51.22925043106079 62.63061761856079,51.52866244316101 62.63061761856079,51.52866244316101 62.524718046188354,51.78669095039368 62.524718046188354,51.78669095039368 62.32971549034119,51.98890566825867 62.32971549034119,51.98890566825867 62.02957034111023,52.12078094482422 62.02957034111023,52.12078094482422 61.60888671875,52.167969942092896 61.60888671875,52.167969942092896" stroke="white" stroke-width="0.1" /><polygon points="58.60595703125,41.62841737270355 58.60595703125,41.62841737270355 55.86807131767273,41.467782855033875 55.86807131767273,41.467782855033875 53.12591791152954,41.35620296001434 53.12591791152954,41.35620296001434 50.38192868232727,41.30142331123352 50.38192868232727,41.30142331123352 47.63839840888977,41.31183624267578 47.63839840888977,41.31183624267578 44.8974609375,41.395264863967896 44.8974609375,41.395264863967896 42.16201901435852,41.559869050979614 42.16201901435852,41.559869050979614 39.43420350551605,41.81365966796875 39.43420350551605,41.81365966796875 36.71630918979645,42.16476380825043 36.71630918979645,42.16476380825043 34.01122987270355,42.62115657329559 34.01122987270355,42.62115657329559 31.320801377296448,43.19091737270355 31.320801377296448,43.19091737270355 31.743165850639343,42.41596162319183 31.743165850639343,42.41596162319183 32.16446042060852,41.64005219936371 32.16446042060852,41.64005219936371 32.58514404296875,40.86345732212067 32.58514404296875,40.86345732212067 33.005982637405396,40.086862444877625 33.005982637405396,40.086862444877625 33.42773616313934,39.3106073141098 33.42773616313934,39.3106073141098 33.851319551467896,38.535308837890625 33.851319551467896,38.535308837890625 34.27749574184418,37.7615362405777 34.27749574184418,37.7615362405777 34.706878662109375,36.98974549770355 34.706878662109375,36.98974549770355 35.14038026332855,36.2203985452652 35.14038026332855,36.2203985452652 35.578614473342896,35.45410335063934 35.578614473342896,35.45410335063934 35.820770263671875,35.3314608335495 35.820770263671875,35.3314608335495 36.410218477249146,35.172080993652344 36.410218477249146,35.172080993652344 37.31262385845184,34.98760163784027 37.31262385845184,34.98760163784027 38.49441707134247,34.789735078811646 38.49441707134247,34.789735078811646 39.921265840530396,34.59014892578125 39.921265840530396,34.59014892578125 41.55944883823395,34.400674700737 41.55944883823395,34.400674700737 43.375396728515625,34.23290252685547 43.375396728515625,34.23290252685547 45.334625244140625,34.0985506772995 45.334625244140625,34.0985506772995 47.40356504917145,34.009361267089844 47.40356504917145,34.009361267089844 49.54833984375,33.97705256938934 49.54833984375,33.97705256938934 51.60568356513977,34.00871455669403 51.60568356513977,34.00871455669403 53.6590576171875,34.09561216831207 53.6590576171875,34.09561216831207 55.66086173057556,34.22493040561676 55.66086173057556,34.22493040561676 57.564085721969604,34.384116530418396 57.564085721969604,34.384116530418396 59.321290254592896,34.56054627895355 59.321290254592896,34.56054627895355 60.8856201171875,34.74166989326477 60.8856201171875,34.74166989326477 62.20947504043579,34.914931654930115 62.20947504043579,34.914931654930115 63.24600577354431,35.06767451763153 63.24600577354431,35.06767451763153 63.947755098342896,35.18730103969574 63.947755098342896,35.18730103969574 64.26758170127869,35.261231660842896 64.26758170127869,35.261231660842896 64.42428827285767,35.355302691459656 64.42428827285767,35.355302691459656 64.57061767578125,35.49377620220184 64.57061767578125,35.49377620220184 64.70611691474915,35.66726744174957 64.70611691474915,35.66726744174957 64.83230590820312,35.86650788784027 64.83230590820312,35.86650788784027 64.94903564453125,36.082154512405396 64.94903564453125,36.082154512405396 65.05752801895142,36.305007338523865 65.05752801895142,36.305007338523865 65.15838503837585,36.52580380439758 65.15838503837585,36.52580380439758 65.25177359580994,36.73515319824219 65.25177359580994,36.73515319824219 65.33874869346619,36.923789978027344 65.33874869346619,36.923789978027344 65.41992425918579,37.08252012729645 65.41992425918579,37.08252012729645 65.75515866279602,37.693291902542114 65.75515866279602,37.693291902542114 66.0906970500946,38.30425441265106 66.0906970500946,38.30425441265106 66.42562747001648,38.91502320766449 66.42562747001648,38.91502320766449 66.76086783409119,39.52594697475433 66.76086783409119,39.52594697475433 67.09564328193665,40.13671875 67.09564328193665,40.13671875 67.4304187297821,40.74752926826477 67.4304187297821,40.74752926826477 67.76534914970398,41.35841429233551 67.76534914970398,41.35841429233551 68.10013055801392,41.96922481060028 68.10013055801392,41.96922481060028 68.43475699424744,42.58007109165192 68.43475699424744,42.58007109165192 68.7695324420929,43.19091737270355 68.7695324420929,43.19091737270355 67.76520013809204,42.962875962257385 67.76520013809204,42.962875962257385 66.75826907157898,42.749521136283875 66.75826907157898,42.749521136283875 65.74813723564148,42.55119264125824 65.74813723564148,42.55119264125824 64.73541259765625,42.3684686422348 64.73541259765625,42.3684686422348 63.71979117393494,42.2018438577652 63.71979117393494,42.2018438577652 62.701719999313354,42.05184876918793 62.701719999313354,42.05184876918793 61.68121695518494,41.91902279853821 61.68121695518494,41.91902279853821 60.658419132232666,41.80381894111633 60.658419132232666,41.80381894111633 59.633177518844604,41.70677363872528 59.633177518844604,41.70677363872528 58.60595703125,41.62841737270355 58.60595703125,41.62841737270355" stroke="white" stroke-width="0.1" /><polygon points="68.37158203125,54.169923067092896 68.37158203125,54.169923067092896 67.03476309776306,53.95496487617493 67.03476309776306,53.95496487617493 65.99502563476562,53.371661901474 65.99502563476562,53.371661901474 65.25238156318665,52.51197814941406 65.25238156318665,52.51197814941406 64.80682492256165,51.46808624267578 64.80682492256165,51.46808624267578 64.65820670127869,50.33203363418579 64.65820670127869,50.33203363418579 64.80666995048523,49.19597804546356 64.80666995048523,49.19597804546356 65.25238156318665,48.15208613872528 65.25238156318665,48.15208613872528 65.99502563476562,47.29244410991669 65.99502563476562,47.29244410991669 67.03476309776306,46.70906066894531 67.03476309776306,46.70906066894531 68.37158203125,46.49414122104645 68.37158203125,46.49414122104645 69.70779299736023,46.70902192592621 69.70779299736023,46.70902192592621 70.74737548828125,47.29244410991669 70.74737548828125,47.29244410991669 71.48987054824829,48.15208613872528 71.48987054824829,48.15208613872528 71.93542718887329,49.19605255126953 71.93542718887329,49.19605255126953 72.08404541015625,50.33203363418579 72.08404541015625,50.33203363418579 71.93573117256165,51.468050479888916 71.93573117256165,51.468050479888916 71.49032950401306,52.51197814941406 71.49032950401306,52.51197814941406 70.74798941612244,53.371661901474 70.74798941612244,53.371661901474 69.708251953125,53.95500063896179 69.708251953125,53.95500063896179 68.37158203125,54.169923067092896 68.37158203125,54.169923067092896" stroke="white" stroke-width="0.1" /></svg>