<?xml version="1.0" encoding="utf-8" ?>
<svg baseProfile="full" height="77.37793326377869" version="1.1" width="76.18408203125" xmlns="http://www.w3.org/2000/svg" xmlns:ev="http://www.w3.org/2001/xml-events" xmlns:xlink="http://www.w3.org/1999/xlink"><defs><clipPath /></defs><polygon points="42.9443359375,27.03857421875 42.9443359375,27.03857421875 67.5537109375,21.25244140625 67.5537109375,21.25244140625 67.7264392375946,21.219711005687714 67.7264392375946,21.219711005687714 67.89970397949219,21.20208740234375 67.89970397949219,21.20208740234375 68.07281374931335,21.199379861354828 68.07281374931335,21.199379861354828 68.2447075843811,21.21131867170334 68.2447075843811,21.21131867170334 68.41461062431335,21.237793564796448 68.41461062431335,21.237793564796448 68.58169436454773,21.278686821460724 68.58169436454773,21.278686821460724 68.74504089355469,21.333657205104828 68.74504089355469,21.333657205104828 68.9038097858429,21.40270322561264 68.9038097858429,21.40270322561264 69.0570056438446,21.485519409179688 69.0570056438446,21.485519409179688 69.20410394668579,21.58203125 69.20410394668579,21.58203125 69.34158205986023,21.690712869167328 69.34158205986023,21.690712869167328 69.4683849811554,21.809807419776917 69.4683849811554,21.809807419776917 69.58374381065369,21.93847745656967 69.58374381065369,21.93847745656967 69.68742609024048,22.07588255405426 69.68742609024048,22.07588255405426 69.77890133857727,22.22137451171875 69.77890133857727,22.22137451171875 69.85786557197571,22.37415313720703 69.85786557197571,22.37415313720703 69.92347836494446,22.533340752124786 69.92347836494446,22.533340752124786 69.97573971748352,22.69825041294098 69.97573971748352,22.69825041294098 70.01388669013977,22.86800444126129 70.01388669013977,22.86800444126129 70.037841796875,23.041991889476776 70.037841796875,23.041991889476776 73.75244498252869,62.75390982627869 73.75244498252869,62.75390982627869 74.06631708145142,62.87887692451477 74.06631708145142,62.87887692451477 74.3664562702179,63.02887201309204 74.3664562702179,63.02887201309204 74.64981079101562,63.20457458496094 74.64981079101562,63.20457458496094 74.91317987442017,63.4067177772522 74.91317987442017,63.4067177772522 75.15350580215454,63.63617181777954 75.15350580215454,63.63617181777954 75.36765933036804,63.89374136924744 75.36765933036804,63.89374136924744 75.55267214775085,64.17999267578125 75.55267214775085,64.17999267578125 75.70526003837585,64.49596285820007 75.70526003837585,64.49596285820007 75.82229971885681,64.84222412109375 75.82229971885681,64.84222412109375 75.90088248252869,65.21973013877869 75.90088248252869,65.21973013877869 75.90881586074829,65.30327200889587 75.90881586074829,65.30327200889587 75.93032717704773,65.5303955078125 75.93032717704773,65.5303955078125 75.96206665039062,65.86578488349915 75.96206665039062,65.86578488349915 76.00051760673523,66.27418398857117 76.00051760673523,66.27418398857117 76.0424792766571,66.72027707099915 76.0424792766571,66.72027707099915 76.08444094657898,67.16880798339844 76.08444094657898,67.16880798339844 76.12289786338806,67.58441925048828 76.12289786338806,67.58441925048828 76.15463137626648,67.93193817138672 76.15463137626648,67.93193817138672 76.17607116699219,68.17592978477478 76.17607116699219,68.17592978477478 76.18408203125,68.2812511920929 76.18408203125,68.2812511920929 76.11107230186462,68.83827447891235 76.11107230186462,68.83827447891235 75.9552001953125,69.35493350028992 75.9552001953125,69.35493350028992 75.72311758995056,69.82868313789368 75.72311758995056,69.82868313789368 75.42160153388977,70.25715112686157 75.42160153388977,70.25715112686157 75.05737543106079,70.6378161907196 75.05737543106079,70.6378161907196 74.63729977607727,70.96824645996094 74.63729977607727,70.96824645996094 74.16778802871704,71.24595642089844 74.16778802871704,71.24595642089844 73.6560046672821,71.46850824356079 73.6560046672821,71.46850824356079 73.10829162597656,71.63341641426086 73.10829162597656,71.63341641426086 72.53174185752869,71.73828482627869 72.53174185752869,71.73828482627869 71.97021842002869,71.69742584228516 71.97021842002869,71.69742584228516 71.40724062919617,71.59759402275085 71.40724062919617,71.59759402275085 70.85494995117188,71.43966555595398 70.85494995117188,71.43966555595398 70.32577395439148,71.22482657432556 70.32577395439148,71.22482657432556 69.83169913291931,70.95398306846619 69.83169913291931,70.95398306846619 69.38522458076477,70.62824368476868 69.38522458076477,70.62824368476868 68.9984142780304,70.24856805801392 68.9984142780304,70.24856805801392 68.68362426757812,69.8160171508789 68.68362426757812,69.8160171508789 68.45306754112244,69.33159232139587 68.45306754112244,69.33159232139587 68.31909418106079,68.79639029502869 68.31909418106079,68.79639029502869 68.31116080284119,68.71349215507507 68.31116080284119,68.71349215507507 68.28948855400085,68.48808526992798 68.28948855400085,68.48808526992798 68.25767755508423,68.15494894981384 68.25767755508423,68.15494894981384 68.218994140625,67.74894595146179 68.218994140625,67.74894595146179 68.17688345909119,67.30499267578125 68.17688345909119,67.30499267578125 68.1348443031311,66.85795187950134 68.1348443031311,66.85795187950134 68.09616088867188,66.44248962402344 68.09616088867188,66.44248962402344 68.06427240371704,66.09355807304382 68.06427240371704,66.09355807304382 68.04260611534119,65.84606170654297 68.04260611534119,65.84606170654297 68.0346667766571,65.73486328125 68.0346667766571,65.73486328125 68.072509765625,65.37887454032898 68.072509765625,65.37887454032898 68.14498901367188,65.0446355342865 68.14498901367188,65.0446355342865 68.24989318847656,64.73186612129211 68.24989318847656,64.73186612129211 68.3850109577179,64.4403874874115 68.3850109577179,64.4403874874115 68.54812502861023,64.16992545127869 68.54812502861023,64.16992545127869 68.73718500137329,63.92032504081726 68.73718500137329,63.92032504081726 68.9496636390686,63.69118094444275 68.9496636390686,63.69118094444275 69.18365359306335,63.48247528076172 69.18365359306335,63.48247528076172 69.43680047988892,63.29372525215149 69.43680047988892,63.29372525215149 69.7070300579071,63.12500238418579 69.7070300579071,63.12500238418579 68.548583984375,50.74219107627869 68.548583984375,50.74219107627869 55.98999261856079,53.679198026657104 55.98999261856079,53.679198026657104 55.706787109375,58.89648795127869 55.706787109375,58.89648795127869 55.919456481933594,59.03026461601257 55.919456481933594,59.03026461601257 56.119006872177124,59.179842472076416 56.119006872177124,59.179842472076416 56.303560733795166,59.34547781944275 56.303560733795166,59.34547781944275 56.471556425094604,59.52739715576172 56.471556425094604,59.52739715576172 56.621092557907104,59.7259521484375 56.621092557907104,59.7259521484375 56.75041079521179,59.94136929512024 56.75041079521179,59.94136929512024 56.85775876045227,60.17383933067322 56.85775876045227,60.17383933067322 56.94122314453125,60.42366027832031 56.94122314453125,60.42366027832031 56.99920654296875,60.69114804267883 56.99920654296875,60.69114804267883 57.030028104782104,60.97656488418579 57.030028104782104,60.97656488418579 57.02667236328125,61.05793118476868 57.02667236328125,61.05793118476868 57.017749547958374,61.24977469444275 57.017749547958374,61.24977469444275 57.00446963310242,61.523932218551636 57.00446963310242,61.523932218551636 56.98829889297485,61.852455139160156 56.98829889297485,61.852455139160156 56.97082877159119,62.207335233688354 56.97082877159119,62.207335233688354 56.95335268974304,62.560540437698364 56.95335268974304,62.560540437698364 56.93718194961548,62.884026765823364 56.93718194961548,62.884026765823364 56.92397952079773,63.14979791641235 56.92397952079773,63.14979791641235 56.91482424736023,63.32973837852478 56.91482424736023,63.32973837852478 56.91162347793579,63.395994901657104 56.91162347793579,63.395994901657104 56.81290030479431,63.864898681640625 56.81290030479431,63.864898681640625 56.63139224052429,64.27818536758423 56.63139224052429,64.27818536758423 56.378406286239624,64.63726162910461 56.378406286239624,64.63726162910461 56.06521964073181,64.94373679161072 56.06521964073181,64.94373679161072 55.70312738418579,65.19927978515625 55.70312738418579,65.19927978515625 55.30361533164978,65.40538668632507 55.30361533164978,65.40538668632507 54.877930879592896,65.56354761123657 54.877930879592896,65.56354761123657 54.43736910820007,65.67550897598267 54.43736910820007,65.67550897598267 53.99322509765625,65.74260592460632 53.99322509765625,65.74260592460632 53.557127714157104,65.7666027545929 53.557127714157104,65.7666027545929 53.111231327056885,65.71739315986633 53.111231327056885,65.71739315986633 52.6728093624115,65.62347412109375 52.6728093624115,65.62347412109375 52.25040316581726,65.48404693603516 52.25040316581726,65.48404693603516 51.852571964263916,65.29834866523743 51.852571964263916,65.29834866523743 51.487886905670166,65.06561636924744 51.487886905670166,65.06561636924744 51.16493105888367,64.78511691093445 51.16493105888367,64.78511691093445 50.89222192764282,64.45587277412415 50.89222192764282,64.45587277412415 50.678443908691406,64.07729983329773 50.678443908691406,64.07729983329773 50.53184628486633,63.64852786064148 50.53184628486633,63.64852786064148 50.46142935752869,63.16894888877869 50.46142935752869,63.16894888877869 50.46607851982117,63.100665807724 50.46607851982117,63.100665807724 50.476229190826416,62.91664242744446 50.476229190826416,62.91664242744446 50.49049258232117,62.64579892158508 50.49049258232117,62.64579892158508 50.50739645957947,62.31708526611328 50.50739645957947,62.31708526611328 50.52551627159119,61.959534883499146 50.52551627159119,61.959534883499146 50.54359436035156,61.60206198692322 50.54359436035156,61.60206198692322 50.559961795806885,61.273616552352905 50.559961795806885,61.273616552352905 50.57350397109985,61.00315451622009 50.57350397109985,61.00315451622009 50.58254599571228,60.81954836845398 50.58254599571228,60.81954836845398 50.5859375,60.75195670127869 50.5859375,60.75195670127869 50.646209716796875,60.40046811103821 50.646209716796875,60.40046811103821 50.74707269668579,60.07957458496094 50.74707269668579,60.07957458496094 50.88508725166321,59.78855490684509 50.88508725166321,59.78855490684509 51.056671142578125,59.52674746513367 51.056671142578125,59.52674746513367 51.25839114189148,59.29352045059204 51.25839114189148,59.29352045059204 51.48674249649048,59.08821225166321 51.48674249649048,59.08821225166321 51.738208532333374,58.910101652145386 51.738208532333374,58.910101652145386 52.00931429862976,58.75858664512634 52.00931429862976,58.75858664512634 52.29648947715759,58.63296389579773 52.29648947715759,58.63296389579773 52.59643793106079,58.53271484375 52.59643793106079,58.53271484375 52.81982421875,54.4189453125 52.81982421875,54.4189453125 48.28979671001434,55.47851920127869 48.28979671001434,55.47851920127869 49.500733613967896,68.4252917766571 49.500733613967896,68.4252917766571 49.82273280620575,68.55301260948181 49.82273280620575,68.55301260948181 50.1303493976593,68.70666742324829 50.1303493976593,68.70666742324829 50.42023062705994,68.88694763183594 50.42023062705994,68.88694763183594 50.68908929824829,69.09462213516235 50.68908929824829,69.09462213516235 50.93368887901306,69.33044791221619 50.93368887901306,69.33044791221619 51.150745153427124,69.59514617919922 51.150745153427124,69.59514617919922 51.33686065673828,69.88937258720398 51.33686065673828,69.88937258720398 51.48891806602478,70.21400332450867 51.48891806602478,70.21400332450867 51.603394746780396,70.56957483291626 51.603394746780396,70.56957483291626 51.677244901657104,70.95703482627869 51.677244901657104,70.95703482627869 51.683807373046875,71.03973627090454 51.683807373046875,71.03973627090454 51.701658964157104,71.26457095146179 51.701658964157104,71.26457095146179 51.727867126464844,71.59644961357117 51.727867126464844,71.59644961357117 51.75971984863281,72.00039029121399 51.75971984863281,72.00039029121399 51.79443359375,72.4414050579071 51.79443359375,72.4414050579071 51.82918906211853,72.88452386856079 51.82918906211853,72.88452386856079 51.861000061035156,73.29456210136414 51.861000061035156,73.29456210136414 51.88724398612976,73.63678216934204 51.88724398612976,73.63678216934204 51.905059814453125,73.87585043907166 51.905059814453125,73.87585043907166 51.911622285842896,73.97705316543579 51.911622285842896,73.97705316543579 51.82502865791321,74.54200983047485 51.82502865791321,74.54200983047485 51.63612365722656,75.0622570514679 51.63612365722656,75.0622570514679 51.356738805770874,75.53577423095703 51.356738805770874,75.53577423095703 50.99853873252869,75.96058249473572 50.99853873252869,75.96058249473572 50.573426485061646,76.3348400592804 50.573426485061646,76.3348400592804 50.093233585357666,76.65649652481079 50.093233585357666,76.65649652481079 49.56958889961243,76.92360281944275 49.56958889961243,76.92360281944275 49.01435971260071,77.13417410850525 49.01435971260071,77.13417410850525 48.43933284282684,77.28622555732727 48.43933284282684,77.28622555732727 47.85644710063934,77.37793326377869 47.85644710063934,77.37793326377869 47.307053208351135,77.33848690986633 47.307053208351135,77.33848690986633 46.77329957485199,77.23972201347351 46.77329957485199,77.23972201347351 46.26323878765106,77.08236575126648 46.26323878765106,77.08236575126648 45.78498899936676,76.86702609062195 45.78498899936676,76.86702609062195 45.34668028354645,76.59454345703125 45.34668028354645,76.59454345703125 44.95643675327301,76.2656033039093 44.95643675327301,76.2656033039093 44.62226927280426,75.88089108467102 44.62226927280426,75.88089108467102 44.3524569272995,75.44116973876953 44.3524569272995,75.44116973876953 44.1549688577652,74.94701743125916 44.1549688577652,74.94701743125916 44.038087129592896,74.39941763877869 44.038087129592896,74.39941763877869 43.81591975688934,71.59423828125 43.81591975688934,71.59423828125 43.83598268032074,71.51752710342407 43.83598268032074,71.51752710342407 43.89701783657074,71.33369445800781 43.89701783657074,71.33369445800781 43.99551451206207,71.06598019599915 43.99551451206207,71.06598019599915 44.128188490867615,70.7375705242157 44.128188490867615,70.7375705242157 44.29168701171875,70.3717052936554 44.29168701171875,70.3717052936554 44.48269009590149,69.99168395996094 44.48269009590149,69.99168395996094 44.69772279262543,69.6206271648407 44.69772279262543,69.6206271648407 44.93362605571747,69.28184628486633 44.93362605571747,69.28184628486633 45.18676698207855,68.9984917640686 45.18676698207855,68.9984917640686 45.454102754592896,68.7939465045929 45.454102754592896,68.7939465045929 44.48486268520355,58.4228515625 44.48486268520355,58.4228515625 29.506835341453552,55.33447265625 29.506835341453552,55.33447265625 28.389891982078552,62.70751953125 28.389891982078552,62.70751953125 28.638383746147156,62.88307309150696 28.638383746147156,62.88307309150696 28.870773315429688,63.076019287109375 28.870773315429688,63.076019287109375 29.084929823875427,63.286399841308594 29.084929823875427,63.286399841308594 29.27909791469574,63.5144829750061 29.27909791469574,63.5144829750061 29.451295733451843,63.7603759765625 29.451295733451843,63.7603759765625 29.59964871406555,64.02435302734375 29.59964871406555,64.02435302734375 29.72213923931122,64.30641412734985 29.72213923931122,64.30641412734985 29.816970229148865,64.6069347858429 29.816970229148865,64.6069347858429 29.882049560546875,64.92587924003601 29.882049560546875,64.92587924003601 29.915770888328552,65.2636706829071 29.915770888328552,65.2636706829071 29.91538941860199,65.30433893203735 29.91538941860199,65.30433893203735 29.914474487304688,65.34447073936462 29.914474487304688,65.34447073936462 29.91287410259247,65.38414359092712 29.91287410259247,65.38414359092712 29.91062104701996,65.423583984375 29.91062104701996,65.423583984375 29.907837510108948,65.46295285224915 29.907837510108948,65.46295285224915 29.90451753139496,65.50243496894836 29.90451753139496,65.50243496894836 29.900476336479187,65.54203033447266 29.900476336479187,65.54203033447266 29.895973205566406,65.58212637901306 29.895973205566406,65.58212637901306 29.890748858451843,65.62271118164062 29.890748858451843,65.62271118164062 29.885253310203552,65.66406488418579 29.885253310203552,65.66406488418579 29.851913452148438,65.78544974327087 29.851913452148438,65.78544974327087 29.75876033306122,66.11644625663757 29.75876033306122,66.11644625663757 29.616013169288635,66.60717129707336 29.616013169288635,66.60717129707336 29.43367063999176,67.20771789550781 29.43367063999176,67.20771789550781 29.22210693359375,67.86834597587585 29.22210693359375,67.86834597587585 28.991469740867615,68.53920221328735 28.991469740867615,68.53920221328735 28.75179350376129,69.1702663898468 28.75179350376129,69.1702663898468 28.51337492465973,69.71191763877869 28.51337492465973,69.71191763877869 28.286361694335938,70.11405825614929 28.286361694335938,70.11405825614929 28.081056475639343,70.32715082168579 28.081056475639343,70.32715082168579 27.885743975639343,70.42679190635681 27.885743975639343,70.42679190635681 27.686768770217896,70.51361203193665 27.686768770217896,70.51361203193665 27.484360337257385,70.58830261230469 27.484360337257385,70.58830261230469 27.278634905815125,70.6512451171875 27.278634905815125,70.6512451171875 27.070006728172302,70.703125 27.070006728172302,70.703125 26.85871124267578,70.74451446533203 26.85871124267578,70.74451446533203 26.6448974609375,70.77579498291016 26.6448974609375,70.77579498291016 26.42887234687805,70.79769372940063 26.42887234687805,70.79769372940063 26.21082365512848,70.81069946289062 26.21082365512848,70.81069946289062 25.991210341453552,70.81543207168579 25.991210341453552,70.81543207168579 25.899583101272583,70.81470489501953 25.899583101272583,70.81470489501953 25.807762145996094,70.81249356269836 25.807762145996094,70.81249356269836 25.715753436088562,70.80894708633423 25.715753436088562,70.80894708633423 25.623437762260437,70.8038330078125 25.623437762260437,70.8038330078125 25.530853867530823,70.79742550849915 25.530853867530823,70.79742550849915 25.437965989112854,70.78960537910461 25.437965989112854,70.78960537910461 25.344619154930115,70.7803726196289 25.344619154930115,70.7803726196289 25.251007080078125,70.76984643936157 25.251007080078125,70.76984643936157 25.156784057617188,70.75783014297485 25.156784057617188,70.75783014297485 25.062257051467896,70.7446277141571 25.062257051467896,70.7446277141571 24.80926513671875,70.69835662841797 24.80926513671875,70.69835662841797 24.561157822608948,70.64281702041626 24.561157822608948,70.64281702041626 24.318237602710724,70.57773470878601 24.318237602710724,70.57773470878601 24.080848693847656,70.50270438194275 24.080848693847656,70.50270438194275 23.849335312843323,70.4174816608429 23.849335312843323,70.4174816608429 23.624153435230255,70.32173275947571 23.624153435230255,70.32173275947571 23.405495285987854,70.21507620811462 23.405495285987854,70.21507620811462 23.19389432668686,70.09720206260681 23.19389432668686,70.09720206260681 22.989539802074432,69.96784210205078 22.989539802074432,69.96784210205078 22.79296964406967,69.82666254043579 22.79296964406967,69.82666254043579 22.606658935546875,69.67491507530212 22.606658935546875,69.67491507530212 22.42828458547592,69.50592398643494 22.42828458547592,69.50592398643494 22.26051390171051,69.32037472724915 22.26051390171051,69.32037472724915 22.106246650218964,69.11884546279907 22.106246650218964,69.11884546279907 21.968232095241547,68.90228390693665 21.968232095241547,68.90228390693665 21.84925079345703,68.67130398750305 21.84925079345703,68.67130398750305 21.751976013183594,68.42655539512634 21.751976013183594,68.42655539512634 21.679306030273438,68.16879510879517 21.679306030273438,68.16879510879517 21.633873879909515,67.89871454238892 21.633873879909515,67.89871454238892 21.61865234375,67.61718988418579 21.61865234375,67.61718988418579 21.6319277882576,67.49889254570007 21.6319277882576,67.49889254570007 21.667900681495667,67.23991632461548 21.667900681495667,67.23991632461548 21.72096222639084,66.87626242637634 21.72096222639084,66.87626242637634 21.785354614257812,66.44401550292969 21.785354614257812,66.44401550292969 21.855469048023224,65.97930788993835 21.855469048023224,65.97930788993835 21.925583481788635,65.51823019981384 21.925583481788635,65.51823019981384 21.990013122558594,65.09674191474915 21.990013122558594,65.09674191474915 22.043076157569885,64.75101709365845 22.043076157569885,64.75101709365845 22.078971564769745,64.51709866523743 22.078971564769745,64.51709866523743 22.092285752296448,64.43115472793579 22.092285752296448,64.43115472793579 22.19013273715973,64.06047940254211 22.19013273715973,64.06047940254211 22.3255917429924,63.72276544570923 22.3255917429924,63.72276544570923 22.495345771312714,63.41705322265625 22.495345771312714,63.41705322265625 22.69611358642578,63.14250826835632 22.69611358642578,63.14250826835632 22.9248046875,62.89825439453125 22.9248046875,62.89825439453125 23.178139328956604,62.683409452438354 23.178139328956604,62.683409452438354 23.452797532081604,62.4969482421875 23.452797532081604,62.4969482421875 23.745575547218323,62.33814358711243 23.745575547218323,62.33814358711243 24.05315488576889,62.205928564071655 24.05315488576889,62.205928564071655 24.372558295726776,62.09961175918579 24.372558295726776,62.09961175918579 28.682860732078552,33.642578125 28.682860732078552,33.642578125 28.72672975063324,33.43063294887543 28.72672975063324,33.43063294887543 28.79234254360199,33.22647213935852 28.79234254360199,33.22647213935852 28.87859344482422,33.03161561489105 28.87859344482422,33.03161561489105 28.984186053276062,32.84740447998047 28.984186053276062,32.84740447998047 29.10812497138977,32.67547786235809 29.10812497138977,32.67547786235809 29.249152541160583,32.517242431640625 29.249152541160583,32.517242431640625 29.406052827835083,32.37415254116058 29.406052827835083,32.37415254116058 29.577866196632385,32.24773406982422 29.577866196632385,32.24773406982422 29.763108491897583,32.13939666748047 29.763108491897583,32.13939666748047 29.960939288139343,32.050782442092896 29.960939288139343,32.050782442092896" stroke="white" stroke-width="0.1" /><polygon points="29.881593585014343,52.85888910293579 29.881593585014343,52.85888910293579 44.24194395542145,55.82031607627869 44.24194395542145,55.82031607627869 41.993409395217896,31.760254502296448 41.993409395217896,31.760254502296448 32.52441585063934,35.41748225688934 32.52441585063934,35.41748225688934" stroke="white" stroke-width="0.1" /><polygon points="47.907716035842896,51.396483182907104 47.907716035842896,51.396483182907104 53.04931998252869,50.19287467002869 53.04931998252869,50.19287467002869 53.082770109176636,49.58988130092621 53.082770109176636,49.58988130092621 53.17390561103821,47.95257747173309 53.17390561103821,47.95257747173309 53.308528661727905,45.53848206996918 53.308528661727905,45.53848206996918 53.47275137901306,42.60513484477997 53.47275137901306,42.60513484477997 53.65249514579773,39.410096406936646 53.65249514579773,39.410096406936646 53.83381247520447,36.21090054512024 53.83381247520447,36.21090054512024 54.00245785713196,33.26503932476044 54.00245785713196,33.26503932476044 54.1446328163147,30.830079317092896 54.1446328163147,30.830079317092896 54.246217012405396,29.163476824760437 54.246217012405396,29.163476824760437 54.29321527481079,28.522950410842896 54.29321527481079,28.522950410842896 45.95215022563934,30.471190810203552 45.95215022563934,30.471190810203552" stroke="white" stroke-width="0.1" /><polygon points="56.220704317092896,49.45312440395355 56.220704317092896,49.45312440395355 68.16650629043579,46.66015803813934 68.16650629043579,46.66015803813934 66.24755859375,26.142579317092896 66.24755859375,26.142579317092896 57.27295279502869,30.085450410842896 57.27295279502869,30.085450410842896" stroke="white" stroke-width="0.1" /></svg>