<?xml version="1.0" encoding="utf-8" ?>
<svg baseProfile="full" height="71.62065505981445" version="1.1" width="81.87510967254639" xmlns="http://www.w3.org/2000/svg" xmlns:ev="http://www.w3.org/2001/xml-events" xmlns:xlink="http://www.w3.org/1999/xlink"><defs><clipPath /></defs><polygon points="32.594406604766846,71.23796939849854 32.594406604766846,71.23796939849854 32.24891126155853,71.3743805885315 32.24891126155853,71.3743805885315 31.893765926361084,71.47157788276672 31.893765926361084,71.47157788276672 31.532323360443115,71.52963876724243 31.532323360443115,71.52963876724243 31.16806149482727,71.54878973960876 31.16806149482727,71.54878973960876 30.804407596588135,71.52925729751587 30.804407596588135,71.52925729751587 30.44479787349701,71.47127389907837 30.44479787349701,71.47127389907837 30.09278178215027,71.37529850006104 30.09278178215027,71.37529850006104 29.75163459777832,71.24117612838745 29.75163459777832,71.24117612838745 29.424908757209778,71.06943726539612 29.424908757209778,71.06943726539612 29.116034507751465,70.86016535758972 29.116034507751465,70.86016535758972 28.97515892982483,70.74602842330933 28.97515892982483,70.74602842330933 28.840041160583496,70.62419056892395 28.840041160583496,70.62419056892395 28.709733486175537,70.4957127571106 28.709733486175537,70.4957127571106 28.58373522758484,70.36212086677551 28.58373522758484,70.36212086677551 28.4611314535141,70.22448778152466 28.4611314535141,70.22448778152466 28.341349959373474,70.08402943611145 28.341349959373474,70.08402943611145 28.223705291748047,69.94204521179199 28.223705291748047,69.94204521179199 28.10731828212738,69.79983448982239 28.10731828212738,69.79983448982239 27.99161970615387,69.65838670730591 27.99161970615387,69.65838670730591 27.875807881355286,69.5192277431488 27.875807881355286,69.5192277431488 27.523407340049744,69.09969449043274 27.523407340049744,69.09969449043274 27.171045541763306,68.68038177490234 27.171045541763306,68.68038177490234 26.818493008613586,68.26092004776001 26.818493008613586,68.26092004776001 26.465940475463867,67.84153580665588 26.465940475463867,67.84153580665588 26.113274693489075,67.42207407951355 26.113274693489075,67.42207407951355 25.760608911514282,67.00261235237122 25.760608911514282,67.00261235237122 25.407904386520386,66.5833055973053 25.407904386520386,66.5833055973053 25.055235624313354,66.16384387016296 25.055235624313354,66.16384387016296 24.702493846416473,65.74438214302063 24.702493846416473,65.74438214302063 24.34982657432556,65.3249204158783 24.34982657432556,65.3249204158783 24.205441772937775,65.1515781879425 24.205441772937775,65.1515781879425 24.064184725284576,64.9783194065094 24.064184725284576,64.9783194065094 23.927009105682373,64.80368375778198 23.927009105682373,64.80368375778198 23.79540205001831,64.62637782096863 23.79540205001831,64.62637782096863 23.670433461666107,64.44533467292786 23.670433461666107,64.44533467292786 23.553436994552612,64.2593264579773 23.553436994552612,64.2593264579773 23.44571202993393,64.06699419021606 23.44571202993393,64.06699419021606 23.348398506641388,63.86740803718567 23.348398506641388,63.86740803718567 23.262760043144226,63.658976554870605 23.262760043144226,63.658976554870605 23.19016605615616,63.440775871276855 23.19016605615616,63.440775871276855 23.090946674346924,63.02154064178467 23.090946674346924,63.02154064178467 23.037616908550262,62.59528994560242 23.037616908550262,62.59528994560242 23.02941530942917,62.16636896133423 23.02941530942917,62.16636896133423 23.06569367647171,61.73950433731079 23.06569367647171,61.73950433731079 23.14576357603073,61.319053173065186 23.14576357603073,61.319053173065186 23.269054293632507,60.90950965881348 23.269054293632507,60.90950965881348 23.434840142726898,60.51552891731262 23.434840142726898,60.51552891731262 23.642510175704956,60.141390562057495 23.642510175704956,60.141390562057495 23.891378939151764,59.79173183441162 23.891378939151764,59.79173183441162 24.180760979652405,59.471070766448975 24.180760979652405,59.471070766448975 23.425988852977753,59.441930055618286 23.425988852977753,59.441930055618286 22.690215706825256,59.317415952682495 22.690215706825256,59.317415952682495 21.981295943260193,59.102654457092285 21.981295943260193,59.102654457092285 21.307358145713806,58.80304574966431 21.307358145713806,58.80304574966431 20.676372945308685,58.42387080192566 20.676372945308685,58.42387080192566 20.096465945243835,57.97068476676941 20.096465945243835,57.97068476676941 19.575610756874084,57.44884014129639 19.575610756874084,57.44884014129639 19.12185400724411,56.86366558074951 19.12185400724411,56.86366558074951 18.743248283863068,56.2203586101532 18.743248283863068,56.2203586101532 18.447764217853546,55.524563789367676 18.447764217853546,55.524563789367676 18.262599408626556,54.871416091918945 18.262599408626556,54.871416091918945 18.155865371227264,54.20735478401184 18.155865371227264,54.20735478401184 18.12576651573181,53.539252281188965 18.12576651573181,53.539252281188965 18.17062795162201,52.874207496643066 18.17062795162201,52.874207496643066 18.288767337799072,52.219074964523315 18.288767337799072,52.219074964523315 18.478548526763916,51.58103108406067 18.478548526763916,51.58103108406067 18.73832792043686,50.96701979637146 18.73832792043686,50.96701979637146 19.066351652145386,50.38406252861023 19.066351652145386,50.38406252861023 19.46094036102295,49.83917474746704 19.46094036102295,49.83917474746704 19.920532405376434,49.33930039405823 19.920532405376434,49.33930039405823 20.436085760593414,48.89748394489288 20.436085760593414,48.89748394489288 20.994439721107483,48.52219521999359 20.994439721107483,48.52219521999359 21.58849984407425,48.214733600616455 21.58849984407425,48.214733600616455 22.211244702339172,47.976696491241455 22.211244702339172,47.976696491241455 22.855542600154877,47.809234261512756 22.855542600154877,47.809234261512756 23.51437509059906,47.71401882171631 23.51437509059906,47.71401882171631 24.180760979652405,47.69242703914642 24.180760979652405,47.69242703914642 24.847489595413208,47.74583280086517 24.847489595413208,47.74583280086517 25.50758123397827,47.87553250789642 25.50758123397827,47.87553250789642 26.154014468193054,48.0832040309906 26.154014468193054,48.0832040309906 26.838672161102295,48.40264320373535 26.838672161102295,48.40264320373535 27.467980980873108,48.80349040031433 27.467980980873108,48.80349040031433 28.036823868751526,49.27734732627869 28.036823868751526,49.27734732627869 28.540131449699402,49.816134572029114 28.540131449699402,49.816134572029114 28.972679376602173,50.41145086288452 28.972679376602173,50.41145086288452 29.32950258255005,51.05529427528381 29.32950258255005,51.05529427528381 29.605379700660706,51.7392635345459 29.605379700660706,51.7392635345459 29.795274138450623,52.45527625083923 29.795274138450623,52.45527625083923 29.89407479763031,53.19509506225586 29.89407479763031,53.19509506225586 29.89666759967804,53.95047664642334 29.89666759967804,53.95047664642334 30.007371306419373,53.85022759437561 30.007371306419373,53.85022759437561 30.12203872203827,53.75562310218811 30.12203872203827,53.75562310218811 30.24018108844757,53.66605520248413 30.24018108844757,53.66605520248413 30.361714959144592,53.581827878952026 30.361714959144592,53.581827878952026 30.48626482486725,53.502631187438965 30.48626482486725,53.502631187438965 30.613750219345093,53.4284770488739 30.613750219345093,53.4284770488739 30.7437926530838,53.35935354232788 30.7437926530838,53.35935354232788 30.876201391220093,53.294962644577026 30.876201391220093,53.294962644577026 31.010782718658447,53.23522686958313 31.010782718658447,53.23522686958313 31.147271394729614,53.18021774291992 31.147271394729614,53.18021774291992 31.52385652065277,53.692907094955444 31.52385652065277,53.692907094955444 31.521832942962646,53.72151732444763 31.521832942962646,53.72151732444763 31.520003080368042,53.75012755393982 31.520003080368042,53.75012755393982 31.518173217773438,53.778284788131714 31.518173217773438,53.778284788131714 31.5163791179657,53.80658507347107 31.5163791179657,53.80658507347107 31.514623761177063,53.83458733558655 31.514623761177063,53.83458733558655 31.512945890426636,53.86243462562561 31.512945890426636,53.86243462562561 31.511342525482178,53.89028191566467 31.511342525482178,53.89028191566467 31.509780883789062,53.91797423362732 31.509780883789062,53.91797423362732 31.50821626186371,53.945595026016235 31.50821626186371,53.945595026016235 31.506764888763428,53.973060846328735 31.506764888763428,53.973060846328735 31.502875685691833,54.03791069984436 31.502875685691833,54.03791069984436 31.499099731445312,54.102909564971924 31.499099731445312,54.102909564971924 31.49520754814148,54.16775941848755 31.49520754814148,54.16775941848755 31.491315364837646,54.232460260391235 31.491315364837646,54.232460260391235 31.48730993270874,54.297077655792236 31.48730993270874,54.297077655792236 31.483304500579834,54.36162352561951 31.483304500579834,54.36162352561951 31.47922456264496,54.42601442337036 31.47922456264496,54.42601442337036 31.475067138671875,54.490482807159424 31.475067138671875,54.490482807159424 31.47079348564148,54.55464720726013 31.47079348564148,54.55464720726013 31.46648406982422,54.61880564689636 31.46648406982422,54.61880564689636 30.80059289932251,64.30197358131409 30.80059289932251,64.30197358131409 30.77007532119751,64.74570035934448 30.77007532119751,64.74570035934448 30.74558675289154,65.45988321304321 30.74558675289154,65.45988321304321 30.770495533943176,66.1652147769928 30.770495533943176,66.1652147769928 30.84331750869751,66.85956120491028 30.84331750869751,66.85956120491028 30.962982773780823,67.5408661365509 30.962982773780823,67.5408661365509 31.12812042236328,68.20698380470276 31.12812042236328,68.20698380470276 31.3376247882843,68.8559353351593 31.3376247882843,68.8559353351593 31.590232253074646,69.48558688163757 31.590232253074646,69.48558688163757 31.884723901748657,70.09387016296387 31.884723901748657,70.09387016296387 32.219842076301575,70.67858576774597 32.219842076301575,70.67858576774597" stroke="white" stroke-width="0.1" /><polygon points="78.4486174583435,57.828015089035034 78.4486174583435,57.828015089035034 79.04702425003052,58.14860463142395 79.04702425003052,58.14860463142395 79.59904670715332,58.53312015533447 79.59904670715332,58.53312015533447 80.10067939758301,58.97562503814697 80.10067939758301,58.97562503814697 80.54802417755127,59.46992635726929 80.54802417755127,59.46992635726929 80.9373140335083,60.01001000404358 80.9373140335083,60.01001000404358 81.26457333564758,60.5898380279541 81.26457333564758,60.5898380279541 81.52583837509155,61.203163862228394 81.52583837509155,61.203163862228394 81.71730041503906,61.84418201446533 81.71730041503906,61.84418201446533 81.83494210243225,62.50648498535156 81.83494210243225,62.50648498535156 81.87510967254639,63.184428215026855 81.87510967254639,63.184428215026855 81.8349838256836,63.862448930740356 81.8349838256836,63.862448930740356 81.71725869178772,64.52498435974121 81.71725869178772,64.52498435974121 81.52580261230469,65.16607403755188 81.52580261230469,65.16607403755188 81.26449584960938,65.77947735786438 81.26449584960938,65.77947735786438 80.9373140335083,66.3593053817749 80.9373140335083,66.3593053817749 80.54810166358948,66.8993890285492 80.54810166358948,66.8993890285492 80.10067939758301,67.39361882209778 80.10067939758301,67.39361882209778 79.59904670715332,67.83604025840759 79.59904670715332,67.83604025840759 79.04702425003052,68.22040677070618 79.04702425003052,68.22040677070618 78.4486174583435,68.54084134101868 78.4486174583435,68.54084134101868 77.7431309223175,68.81160736083984 77.7431309223175,68.81160736083984 77.01769471168518,68.98608803749084 77.01769471168518,68.98608803749084 76.28169059753418,69.06612515449524 76.28169059753418,69.06612515449524 75.54454803466797,69.05384063720703 75.54454803466797,69.05384063720703 74.81582760810852,68.95137429237366 74.81582760810852,68.95137429237366 74.10492300987244,68.76087188720703 74.10492300987244,68.76087188720703 73.42118620872498,68.48407983779907 73.42118620872498,68.48407983779907 72.77417778968811,68.12320947647095 72.77417778968811,68.12320947647095 72.17321395874023,67.68040657043457 72.17321395874023,67.68040657043457 71.62798047065735,67.15779304504395 71.62798047065735,67.15779304504395 71.59002423286438,67.64805316925049 71.59002423286438,67.64805316925049 71.48928046226501,68.12534928321838 71.48928046226501,68.12534928321838 71.32986187934875,68.58440637588501 71.32986187934875,68.58440637588501 71.11597657203674,69.02019381523132 71.11597657203674,69.02019381523132 70.85185050964355,69.4276750087738 70.85185050964355,69.4276750087738 70.5416738986969,69.80167031288147 70.5416738986969,69.80167031288147 70.18942832946777,70.13713121414185 70.18942832946777,70.13713121414185 69.7996437549591,70.42880058288574 69.7996437549591,70.42880058288574 69.37621831893921,70.67171931266785 69.37621831893921,70.67171931266785 68.92353296279907,70.86077332496643 68.92353296279907,70.86077332496643 68.71036887168884,70.92623114585876 68.71036887168884,70.92623114585876 68.49300861358643,70.97856998443604 68.49300861358643,70.97856998443604 68.27221512794495,71.01946473121643 68.27221512794495,71.01946473121643 68.0487871170044,71.0509717464447 68.0487871170044,71.0509717464447 67.82360672950745,71.074777841568 67.82360672950745,71.074777841568 67.59750843048096,71.09293341636658 67.59750843048096,71.09293341636658 67.37111210823059,71.10704779624939 67.37111210823059,71.10704779624939 67.14550852775574,71.11917734146118 67.14550852775574,71.11917734146118 66.9212818145752,71.13093137741089 66.9212818145752,71.13093137741089 66.69942140579224,71.14458680152893 66.69942140579224,71.14458680152893 66.57159328460693,71.15366458892822 66.57159328460693,71.15366458892822 66.4438009262085,71.16274237632751 66.4438009262085,71.16274237632751 66.31600856781006,71.17159366607666 66.31600856781006,71.17159366607666 66.18818044662476,71.1804449558258 66.18818044662476,71.1804449558258 66.06038808822632,71.18921875953674 66.06038808822632,71.18921875953674 65.93259572982788,71.19799256324768 65.93259572982788,71.19799256324768 65.80476760864258,71.206533908844 65.80476760864258,71.206533908844 65.677011013031,71.2152361869812 65.677011013031,71.2152361869812 65.54906964302063,71.22377753257751 65.54906964302063,71.22377753257751 65.4213547706604,71.23247385025024 65.4213547706604,71.23247385025024 65.79519510269165,70.67378163337708 65.79519510269165,70.67378163337708 66.12962484359741,70.08944749832153 66.12962484359741,70.08944749832153 66.4233922958374,69.48177218437195 66.4233922958374,69.48177218437195 66.6753888130188,68.85265111923218 66.6753888130188,68.85265111923218 66.88435673713684,68.20438504219055 66.88435673713684,68.20438504219055 67.04911589622498,67.53895878791809 67.04911589622498,67.53895878791809 67.16836094856262,66.85833930969238 67.16836094856262,66.85833930969238 67.24098920822144,66.16475582122803 67.24098920822144,66.16475582122803 67.26567149162292,65.46010971069336 67.26567149162292,65.46010971069336 67.24141240119934,64.74692225456238 67.24141240119934,64.74692225456238 67.11263060569763,62.86888122558594 67.11263060569763,62.86888122558594 66.58589839935303,55.21755814552307 66.58589839935303,55.21755814552307 66.65731072425842,55.22221326828003 66.65731072425842,55.22221326828003 66.72864556312561,55.227017402648926 66.72864556312561,55.227017402648926 66.80001616477966,55.23197650909424 66.80001616477966,55.23197650909424 66.87130928039551,55.23693561553955 66.87130928039551,55.23693561553955 66.9427216053009,55.24197220802307 66.9427216053009,55.24197220802307 67.0141339302063,55.2470862865448 67.0141339302063,55.2470862865448 67.0855462551117,55.251967906951904 67.0855462551117,55.251967906951904 67.15699434280396,55.25692701339722 67.15699434280396,55.25692701339722 67.22836494445801,55.261653661727905 67.22836494445801,55.261653661727905 67.30000376701355,55.26638627052307 67.30000376701355,55.26638627052307 67.52480268478394,55.28286695480347 67.52480268478394,55.28286695480347 67.74769425392151,55.30148148536682 67.74769425392151,55.30148148536682 67.9685652256012,55.324143171310425 67.9685652256012,55.324143171310425 68.1876003742218,55.35244345664978 68.1876003742218,55.35244345664978 68.40465664863586,55.388230085372925 68.40465664863586,55.388230085372925 68.61988306045532,55.43339252471924 68.61988306045532,55.43339252471924 68.83304715156555,55.48939108848572 68.83304715156555,55.48939108848572 69.04438138008118,55.558210611343384 69.04438138008118,55.558210611343384 69.25373077392578,55.64152002334595 69.25373077392578,55.64152002334595 69.4612443447113,55.741238594055176 69.4612443447113,55.741238594055176 69.83165144920349,55.961114168167114 69.83165144920349,55.961114168167114 70.1752781867981,56.21883273124695 70.1752781867981,56.21883273124695 70.48929929733276,56.51088356971741 70.48929929733276,56.51088356971741 70.77105045318604,56.833529472351074 70.77105045318604,56.833529472351074 71.01771235466003,57.18318223953247 71.01771235466003,57.18318223953247 71.22656106948853,57.55641460418701 71.22656106948853,57.55641460418701 71.39471173286438,57.9492449760437 71.39471173286438,57.9492449760437 71.51952981948853,58.358484506607056 71.51952981948853,58.358484506607056 71.59814834594727,58.78015756607056 71.59814834594727,58.78015756607056 71.62798047065735,59.211063385009766 71.62798047065735,59.211063385009766 72.1732497215271,58.68837833404541 72.1732497215271,58.68837833404541 72.77413606643677,58.245646953582764 72.77413606643677,58.245646953582764 73.42114448547363,57.884931564331055 73.42114448547363,57.884931564331055 74.1048514842987,57.608288526535034 74.1048514842987,57.608288526535034 74.81582760810852,57.4177086353302 74.81582760810852,57.4177086353302 75.5446195602417,57.31532573699951 75.5446195602417,57.31532573699951 76.28169059753418,57.303041219711304 76.28169059753418,57.303041219711304 77.01769471168518,57.38307237625122 77.01769471168518,57.38307237625122 77.7431309223175,57.55724906921387 77.7431309223175,57.55724906921387" stroke="white" stroke-width="0.1" /><polygon points="49.00604784488678,28.450143337249756 49.00604784488678,28.450143337249756 50.18867254257202,28.519800305366516 50.18867254257202,28.519800305366516 51.34917497634888,28.724420070648193 51.34917497634888,28.724420070648193 52.47572660446167,29.057136178016663 52.47572660446167,29.057136178016663 53.55668663978577,29.511386156082153 53.55668663978577,29.511386156082153 54.58035469055176,30.080384016036987 54.58035469055176,30.080384016036987 55.53494095802307,30.757412314414978 55.53494095802307,30.757412314414978 56.408727169036865,31.53568208217621 56.408727169036865,31.53568208217621 57.189977169036865,32.40863084793091 57.189977169036865,32.40863084793091 57.86692500114441,33.36931765079498 57.86692500114441,33.36931765079498 58.42798948287964,34.411412477493286 58.42798948287964,34.411412477493286 58.89948010444641,35.63973605632782 58.89948010444641,35.63973605632782 59.20313000679016,36.903002858161926 59.20313000679016,36.903002858161926 59.34244394302368,38.18458318710327 59.34244394302368,38.18458318710327 59.32108163833618,39.46814239025116 59.32108163833618,39.46814239025116 59.14255380630493,40.737056732177734 59.14255380630493,40.737056732177734 58.81052613258362,41.97507202625275 58.81052613258362,41.97507202625275 58.328425884246826,43.16540062427521 58.328425884246826,43.16540062427521 57.700031995773315,44.29164528846741 57.700031995773315,44.29164528846741 56.928783655166626,45.33739984035492 56.928783655166626,45.33739984035492 56.01833462715149,46.286338567733765 56.01833462715149,46.286338567733765 56.049346923828125,46.28710150718689 56.049346923828125,46.28710150718689 56.08021020889282,46.28893435001373 56.08021020889282,46.28893435001373 56.11087679862976,46.29167914390564 56.11087679862976,46.29167914390564 56.1414361000061,46.29488289356232 56.1414361000061,46.29488289356232 56.17191195487976,46.29862308502197 56.17191195487976,46.29862308502197 56.20235800743103,46.30251228809357 56.20235800743103,46.30251228809357 56.232720613479614,46.30625247955322 56.232720613479614,46.30625247955322 56.26319646835327,46.309760212898254 56.26319646835327,46.309760212898254 56.293487548828125,46.31265997886658 56.293487548828125,46.31265997886658 56.3241183757782,46.31502628326416 56.3241183757782,46.31502628326416 56.34128451347351,46.31662666797638 56.34128451347351,46.31662666797638 56.35845065116882,46.31815254688263 56.35845065116882,46.31815254688263 56.375616788864136,46.31960391998291 56.375616788864136,46.31960391998291 56.392669677734375,46.32112979888916 56.392669677734375,46.32112979888916 56.409722566604614,46.3225781917572 56.409722566604614,46.3225781917572 56.42677545547485,46.32418155670166 56.42677545547485,46.32418155670166 56.44370913505554,46.32570743560791 56.44370913505554,46.32570743560791 56.46068453788757,46.32761478424072 56.46068453788757,46.32761478424072 56.47750496864319,46.32929265499115 56.47750496864319,46.32929265499115 56.49440884590149,46.33150398731232 56.49440884590149,46.33150398731232 56.55048489570618,46.33577764034271 56.55048489570618,46.33577764034271 56.606632471084595,46.339744329452515 56.606632471084595,46.339744329452515 56.6628634929657,46.34355902671814 56.6628634929657,46.34355902671814 56.719017028808594,46.347373723983765 56.719017028808594,46.347373723983765 56.77516460418701,46.351492404937744 56.77516460418701,46.351492404937744 56.83128237724304,46.3561475276947 56.83128237724304,46.3561475276947 56.88723921775818,46.3613361120224 56.88723921775818,46.3613361120224 56.943053007125854,46.36751413345337 56.943053007125854,46.36751413345337 56.99862837791443,46.37476205825806 56.99862837791443,46.37476205825806 57.05409646034241,46.38338387012482 57.05409646034241,46.38338387012482 68.74591708183289,30.431944131851196 68.74591708183289,30.431944131851196 69.02458071708679,30.088013410568237 69.02458071708679,30.088013410568237 69.32834386825562,29.77810800075531 69.32834386825562,29.77810800075531 69.65442299842834,29.502612352371216 69.65442299842834,29.502612352371216 69.99991536140442,29.26221191883087 69.99991536140442,29.26221191883087 70.3620433807373,29.05728816986084 70.3620433807373,29.05728816986084 70.7379400730133,28.888526558876038 70.7379400730133,28.888526558876038 71.12463712692261,28.756234049797058 71.12463712692261,28.756234049797058 71.51956558227539,28.661170601844788 71.51956558227539,28.661170601844788 71.9195008277893,28.60357165336609 71.9195008277893,28.60357165336609 72.32194542884827,28.584420680999756 72.32194542884827,28.584420680999756 72.57272601127625,28.591972589492798 72.57272601127625,28.591972589492798 72.82266020774841,28.61478626728058 72.82266020774841,28.61478626728058 73.0709969997406,28.65285575389862 73.0709969997406,28.65285575389862 73.31700325012207,28.706413507461548 73.31700325012207,28.706413507461548 73.56003522872925,28.77553701400757 73.56003522872925,28.77553701400757 73.79944920539856,28.86044979095459 73.79944920539856,28.86044979095459 74.03450608253479,28.961005806922913 74.03450608253479,28.961005806922913 74.26449060440063,29.077506065368652 74.26449060440063,29.077506065368652 74.48871731758118,29.210102558135986 74.48871731758118,29.210102558135986 74.7065782546997,29.35895323753357 74.7065782546997,29.35895323753357 75.21732449531555,29.805344343185425 75.21732449531555,29.805344343185425 75.63605904579163,30.31895160675049 75.63605904579163,30.31895160675049 75.96099376678467,30.887416005134583 75.96099376678467,30.887416005134583 76.1906385421753,31.49845004081726 76.1906385421753,31.49845004081726 76.32331252098083,32.13962018489838 76.32331252098083,32.13962018489838 76.35741233825684,32.79871940612793 76.35741233825684,32.79871940612793 76.29119157791138,33.463236689567566 76.29119157791138,33.463236689567566 76.1232316493988,34.120962023735046 76.1232316493988,34.120962023735046 75.85158944129944,34.759461879730225 75.85158944129944,34.759461879730225 75.47500133514404,35.36660671234131 75.47500133514404,35.36660671234131 63.46641182899475,51.7397940158844 63.46641182899475,51.7397940158844 63.404381275177,51.821357011795044 63.404381275177,51.821357011795044 63.34048509597778,51.90032124519348 63.34048509597778,51.90032124519348 63.2748007774353,51.97676420211792 63.2748007774353,51.97676420211792 63.20742964744568,52.05084681510925 63.20742964744568,52.05084681510925 63.138651847839355,52.12286710739136 63.138651847839355,52.12286710739136 63.068580627441406,52.19298005104065 63.068580627441406,52.19298005104065 62.997281551361084,52.26118564605713 62.997281551361084,52.26118564605713 62.92499303817749,52.32778787612915 62.92499303817749,52.32778787612915 62.85175085067749,52.39301919937134 62.85175085067749,52.39301919937134 62.77793645858765,52.4569571018219 62.77793645858765,52.4569571018219 62.80632019042969,52.69819498062134 62.80632019042969,52.69819498062134 62.83084750175476,52.94027328491211 62.83084750175476,52.94027328491211 62.85201907157898,53.18281054496765 62.85201907157898,53.18281054496765 62.870556116104126,53.4254252910614 62.870556116104126,53.4254252910614 62.88711428642273,53.66804003715515 62.88711428642273,53.66804003715515 62.90221810340881,53.91026735305786 62.90221810340881,53.91026735305786 62.91652321815491,54.151737689971924 62.91652321815491,54.151737689971924 62.93071508407593,54.392218589782715 62.93071508407593,54.392218589782715 62.94528841972351,54.631394147872925 62.94528841972351,54.631394147872925 62.96104192733765,54.86904978752136 62.96104192733765,54.86904978752136 63.657450675964355,64.99350070953369 63.657450675964355,64.99350070953369 63.67061138153076,65.67228436470032 63.67061138153076,65.67228436470032 63.61682415008545,66.34129881858826 63.61682415008545,66.34129881858826 63.4968101978302,66.99498295783997 63.4968101978302,66.99498295783997 63.31123113632202,67.62776374816895 63.31123113632202,67.62776374816895 63.06098699569702,68.23413968086243 63.06098699569702,68.23413968086243 62.746697664260864,68.80863308906555 62.746697664260864,68.80863308906555 62.36896514892578,69.34565901756287 62.36896514892578,69.34565901756287 61.92871332168579,69.8395848274231 61.92871332168579,69.8395848274231 61.4265501499176,70.28490900993347 61.4265501499176,70.28490900993347 60.863274335861206,70.67645192146301 60.863274335861206,70.67645192146301 60.66269874572754,70.79676389694214 60.66269874572754,70.79676389694214 60.46067476272583,70.91280817985535 60.46067476272583,70.91280817985535 60.25712490081787,71.02335691452026 60.25712490081787,71.02335691452026 60.05208492279053,71.12734317779541 60.05208492279053,71.12734317779541 59.84559655189514,71.22385501861572 59.84559655189514,71.22385501861572 59.63769555091858,71.31174206733704 59.63769555091858,71.31174206733704 59.428274631500244,71.38979434967041 59.428274631500244,71.38979434967041 59.21751260757446,71.45701050758362 59.21751260757446,71.45701050758362 59.0052604675293,71.5123176574707 59.0052604675293,71.5123176574707 58.79175662994385,71.55473828315735 58.79175662994385,71.55473828315735 58.1610381603241,71.57846689224243 58.1610381603241,71.57846689224243 56.66133761405945,71.59693241119385 56.66133761405945,71.59693241119385 54.5080304145813,71.61012887954712 54.5080304145813,71.61012887954712 51.91645622253418,71.61798477172852 51.91645622253418,71.61798477172852 49.101874232292175,71.62065505981445 49.101874232292175,71.62065505981445 46.27962410449982,71.61806225776672 46.27962410449982,71.61806225776672 43.66493225097656,71.61012887954712 43.66493225097656,71.61012887954712 41.47321283817291,71.59693241119385 41.47321283817291,71.59693241119385 39.91960883140564,71.57846689224243 39.91960883140564,71.57846689224243 39.219731092453,71.55473828315735 39.219731092453,71.55473828315735 39.016562700271606,71.51979804039001 39.016562700271606,71.51979804039001 38.81033957004547,71.46875858306885 38.81033957004547,71.46875858306885 38.60194385051727,71.4032232761383 38.60194385051727,71.4032232761383 38.39209973812103,71.32486701011658 38.39209973812103,71.32486701011658 38.18168342113495,71.2352991104126 38.18168342113495,71.2352991104126 37.97149360179901,71.13619446754456 37.97149360179901,71.13619446754456 37.76214420795441,71.0290789604187 37.76214420795441,71.0290789604187 37.554702162742615,70.91570496559143 37.554702162742615,70.91570496559143 37.34973967075348,70.79744935035706 37.34973967075348,70.79744935035706 37.148210406303406,70.67645192146301 37.148210406303406,70.67645192146301 36.584898829460144,70.28506398200989 36.584898829460144,70.28506398200989 36.08277142047882,69.8395848274231 36.08277142047882,69.8395848274231 35.64252257347107,69.34558749198914 35.64252257347107,69.34558749198914 35.26482880115509,68.80855560302734 35.26482880115509,68.80855560302734 34.95050072669983,68.23413968086243 34.95050072669983,68.23413968086243 34.700220823287964,67.62783527374268 34.700220823287964,67.62783527374268 34.51467454433441,66.99506044387817 34.51467454433441,66.99506044387817 34.394702315330505,66.34137630462646 34.394702315330505,66.34137630462646 34.340840578079224,65.67228436470032 34.340840578079224,65.67228436470032 34.354040026664734,64.99350070953369 34.354040026664734,64.99350070953369 34.42365527153015,63.98093104362488 34.42365527153015,63.98093104362488 34.49327349662781,62.96836733818054 34.49327349662781,62.96836733818054 34.562891721725464,61.95587515830994 34.562891721725464,61.95587515830994 34.63250994682312,60.94330549240112 34.63250994682312,60.94330549240112 34.70216691493988,59.930819272994995 34.70216691493988,59.930819272994995 34.7717821598053,58.9184045791626 34.7717821598053,58.9184045791626 34.84136462211609,57.9059898853302 34.84136462211609,57.9059898853302 34.91094410419464,56.8935751914978 34.91094410419464,56.8935751914978 34.98036861419678,55.881160497665405 34.98036861419678,55.881160497665405 35.049834847450256,54.86904978752136 35.049834847450256,54.86904978752136 35.0656658411026,54.631394147872925 35.0656658411026,54.631394147872925 35.080429911613464,54.392218589782715 35.080429911613464,54.392218589782715 35.09465754032135,54.151737689971924 35.09465754032135,54.151737689971924 35.108962655067444,53.91034483909607 35.108962655067444,53.91034483909607 35.12406945228577,53.66818904876709 35.12406945228577,53.66818904876709 35.14062464237213,53.425806760787964 35.14062464237213,53.425806760787964 35.15916466712952,53.183192014694214 35.15916466712952,53.183192014694214 35.180410742759705,52.940958738327026 35.180410742759705,52.940958738327026 35.20497679710388,52.69903540611267 35.20497679710388,52.69903540611267 35.233551263809204,52.458178997039795 35.233551263809204,52.458178997039795 35.15965938568115,52.39393711090088 35.15965938568115,52.39393711090088 35.086533427238464,52.328479290008545 35.086533427238464,52.328479290008545 35.014283657073975,52.2616446018219 35.014283657073975,52.2616446018219 34.94298756122589,52.193135023117065 34.94298756122589,52.193135023117065 34.872832894325256,52.12302207946777 34.872832894325256,52.12302207946777 34.80405509471893,52.05099582672119 34.80405509471893,52.05099582672119 34.73672568798065,51.97668671607971 34.73672568798065,51.97668671607971 34.67103838920593,51.90032124519348 34.67103838920593,51.90032124519348 34.607064723968506,51.821279525756836 34.607064723968506,51.821279525756836 34.54507887363434,51.7397940158844 34.54507887363434,51.7397940158844 22.53648340702057,35.36660671234131 22.53648340702057,35.36660671234131 22.159822285175323,34.75953936576843 22.159822285175323,34.75953936576843 21.88829481601715,34.12088453769684 21.88829481601715,34.12088453769684 21.72018140554428,33.463236689567566 21.72018140554428,33.463236689567566 21.6539204120636,32.79864490032196 21.6539204120636,32.79864490032196 21.68787121772766,32.13962018489838 21.68787121772766,32.13962018489838 21.82050794363022,31.49845004081726 21.82050794363022,31.49845004081726 22.049997746944427,30.887416005134583 22.049997746944427,30.887416005134583 22.37493246793747,30.31895160675049 22.37493246793747,30.31895160675049 22.793516516685486,29.805269837379456 22.793516516685486,29.805269837379456 23.304301500320435,29.35895323753357 23.304301500320435,29.35895323753357 23.522157967090607,29.210180044174194 23.522157967090607,29.210180044174194 23.746497929096222,29.077506065368652 23.746497929096222,29.077506065368652 23.97652268409729,28.961005806922913 23.97652268409729,28.961005806922913 24.211621284484863,28.86037528514862 24.211621284484863,28.86037528514862 24.4510680437088,28.77553701400757 24.4510680437088,28.77553701400757 24.69421625137329,28.706490993499756 24.69421625137329,28.706490993499756 24.940186738967896,28.65285575389862 24.940186738967896,28.65285575389862 25.18848180770874,28.61478626728058 25.18848180770874,28.61478626728058 25.438231229782104,28.59189808368683 25.438231229782104,28.59189808368683 25.688931345939636,28.584420680999756 25.688931345939636,28.584420680999756 26.09134018421173,28.603798151016235 26.09134018421173,28.603798151016235 26.491424441337585,28.661400079727173 26.491424441337585,28.661400079727173 26.886317133903503,28.756538033485413 26.886317133903503,28.756538033485413 27.273163199424744,28.888678550720215 27.273163199424744,28.888678550720215 27.649062871932983,29.057517647743225 27.649062871932983,29.057517647743225 28.01126539707184,29.262441396713257 28.01126539707184,29.262441396713257 28.356683254241943,29.502764344215393 28.356683254241943,29.502764344215393 28.682762384414673,29.77810800075531 28.682762384414673,29.77810800075531 28.986412286758423,30.088013410568237 28.986412286758423,30.088013410568237 29.264959692955017,30.431944131851196 29.264959692955017,30.431944131851196 40.95739126205444,46.38338387012482 40.95739126205444,46.38338387012482 41.01247489452362,46.37476205825806 41.01247489452362,46.37476205825806 41.067978739738464,46.36751413345337 41.067978739738464,46.36751413345337 41.1237508058548,46.36141061782837 41.1237508058548,46.36141061782837 41.17971062660217,46.355995535850525 41.17971062660217,46.355995535850525 41.23586416244507,46.351492404937744 41.23586416244507,46.351492404937744 41.29213094711304,46.34752571582794 41.29213094711304,46.34752571582794 41.34843349456787,46.34355902671814 41.34843349456787,46.34355902671814 41.40477776527405,46.33989632129669 41.40477776527405,46.33989632129669 41.460928320884705,46.33577764034271 41.460928320884705,46.33577764034271 41.5170818567276,46.33150398731232 41.5170818567276,46.33150398731232 41.5340930223465,46.32936716079712 41.5340930223465,46.32936716079712 41.55106842517853,46.327537298202515 41.55106842517853,46.327537298202515 41.56804382801056,46.32578194141388 41.56804382801056,46.32578194141388 41.584983468055725,46.32410407066345 41.584983468055725,46.32410407066345 41.60192012786865,46.3225781917572 41.60192012786865,46.3225781917572 41.618895530700684,46.32112979888916 41.618895530700684,46.32112979888916 41.63579344749451,46.31960391998291 41.63579344749451,46.31960391998291 41.65276885032654,46.31807804107666 41.65276885032654,46.31807804107666 41.66966676712036,46.31662666797638 41.66966676712036,46.31662666797638 41.686758399009705,46.31502628326416 41.686758399009705,46.31502628326416 41.717466711997986,46.312737464904785 41.717466711997986,46.312737464904785 41.74802005290985,46.309685707092285 41.74802005290985,46.309685707092285 41.77853763103485,46.30625247955322 41.77853763103485,46.30625247955322 41.809019446372986,46.3024377822876 41.809019446372986,46.3024377822876 41.83949828147888,46.29862308502197 41.83949828147888,46.29862308502197 41.87009036540985,46.29503786563873 41.87009036540985,46.29503786563873 41.90060794353485,46.29160463809967 41.90060794353485,46.29160463809967 41.93127751350403,46.2890088558197 41.93127751350403,46.2890088558197 41.96210205554962,46.28702700138092 41.96210205554962,46.28702700138092 41.99315309524536,46.286338567733765 41.99315309524536,46.286338567733765 41.08266532421112,45.33747732639313 41.08266532421112,45.33747732639313 40.311452746391296,44.291722774505615 40.311452746391296,44.291722774505615 39.683061838150024,43.16532611846924 39.683061838150024,43.16532611846924 39.201000332832336,41.97499454021454 39.201000332832336,41.97499454021454 38.86893391609192,40.737056732177734 38.86893391609192,40.737056732177734 38.69048357009888,39.46814239025116 38.69048357009888,39.46814239025116 38.66904675960541,38.18458318710327 38.66904675960541,38.18458318710327 38.80839645862579,36.90292835235596 38.80839645862579,36.90292835235596 39.11193013191223,35.63966155052185 39.11193013191223,35.63966155052185 39.58349823951721,34.411412477493286 39.58349823951721,34.411412477493286 40.14456272125244,33.36939513683319 40.14456272125244,33.36939513683319 40.82159101963043,32.40863084793091 40.82159101963043,32.40863084793091 41.60294830799103,31.53568208217621 41.60294830799103,31.53568208217621 42.476776242256165,30.757412314414978 42.476776242256165,30.757412314414978 43.43143701553345,30.080384016036987 43.43143701553345,30.080384016036987 44.45521831512451,29.51146364212036 44.45521831512451,29.51146364212036 45.53622007369995,29.057210683822632 45.53622007369995,29.057210683822632 46.66288495063782,28.724420070648193 46.66288495063782,28.724420070648193 47.823384404182434,28.519722819328308 47.823384404182434,28.519722819328308" stroke="white" stroke-width="0.1" /></svg>