<?xml version="1.0" encoding="utf-8" ?>
<svg baseProfile="full" height="99.99939203262329" version="1.1" width="100.0" xmlns="http://www.w3.org/2000/svg" xmlns:ev="http://www.w3.org/2001/xml-events" xmlns:xlink="http://www.w3.org/1999/xlink"><defs><clipPath /></defs><polygon points="50.00091791152954,0.0 50.00091791152954,0.0 58.10022950172424,0.6555898580700159 58.10022950172424,0.6555898580700159 65.78748822212219,2.553161233663559 65.78748822212219,2.553161233663559 72.95884490013123,5.589031428098679 72.95884490013123,5.589031428098679 79.51054573059082,9.65951755642891 79.51054573059082,9.65951755642891 85.33898591995239,14.660707116127014 85.33898591995239,14.660707116127014 90.34036993980408,20.489071309566498 90.34036993980408,20.489071309566498 94.41085457801819,27.040699124336243 94.41085457801819,27.040699124336243 97.44676351547241,34.21198129653931 97.44676351547241,34.21198129653931 99.34433698654175,41.8990820646286 99.34433698654175,41.8990820646286 100.0,49.99847412109375 100.0,49.99847412109375 99.34437274932861,58.09817314147949 99.34437274932861,58.09817314147949 97.44676351547241,65.78565835952759 97.44676351547241,65.78565835952759 94.41081881523132,72.95731902122498 94.41081881523132,72.95731902122498 90.34032821655273,79.5093297958374 90.34032821655273,79.5093297958374 85.33898591995239,85.33791899681091 85.33898591995239,85.33791899681091 79.51062321662903,90.33949375152588 79.51062321662903,90.33949375152588 72.95884490013123,94.4100558757782 72.95884490013123,94.4100558757782 65.78744649887085,97.4461555480957 65.78744649887085,97.4461555480957 58.10019373893738,99.34372305870056 58.10019373893738,99.34372305870056 50.00091791152954,99.99939203262329 50.00091791152954,99.99939203262329 41.9012188911438,99.34372305870056 41.9012188911438,99.34372305870056 34.21369791030884,97.44600057601929 34.21369791030884,97.44600057601929 27.042070031166077,94.4100558757782 27.042070031166077,94.4100558757782 20.490063726902008,90.33941626548767 20.490063726902008,90.33941626548767 14.66147005558014,85.33791899681091 14.66147005558014,85.33791899681091 9.660013765096664,79.5093297958374 9.660013765096664,79.5093297958374 5.589336529374123,72.95731902122498 5.589336529374123,72.95731902122498 2.55335196852684,65.78572988510132 2.55335196852684,65.78572988510132 0.6555898580700159,58.098095655441284 0.6555898580700159,58.098095655441284 0.0,49.99847412109375 0.0,49.99847412109375 0.6555898580700159,41.89915955066681 0.6555898580700159,41.89915955066681 2.553313970565796,34.21198129653931 2.553313970565796,34.21198129653931 5.589374899864197,27.040699124336243 5.589374899864197,27.040699124336243 9.65997502207756,20.48899531364441 9.65997502207756,20.48899531364441 14.66147005558014,14.660707116127014 14.66147005558014,14.660707116127014 20.490102469921112,9.65951755642891 20.490102469921112,9.65951755642891 27.042070031166077,5.589031428098679 27.042070031166077,5.589031428098679 34.21377241611481,2.5532376021146774 34.21377241611481,2.5532376021146774 41.901180148124695,0.6555135827511549 41.901180148124695,0.6555135827511549" stroke="white" stroke-width="0.1" /><polygon points="50.00091791152954,9.999939054250717 50.00091791152954,9.999939054250717 43.51280331611633,10.523465275764465 43.51280331611633,10.523465275764465 37.35794126987457,12.03911155462265 37.35794126987457,12.03911155462265 31.61861300468445,14.464405179023743 31.61861300468445,14.464405179023743 26.377248764038086,17.71717667579651 26.377248764038086,17.71717667579651 21.71632945537567,21.715107560157776 21.71632945537567,21.715107560157776 17.71816909313202,26.375800371170044 17.71816909313202,26.375800371170044 14.464977383613586,31.616780161857605 14.464977383613586,31.616780161857605 12.03937828540802,37.355804443359375 12.03937828540802,37.355804443359375 10.523465275764465,43.510401248931885 10.523465275764465,43.510401248931885 9.999939054250717,49.99847412109375 9.999939054250717,49.99847412109375 10.52350327372551,56.4871609210968 10.52350327372551,56.4871609210968 12.039340287446976,62.64244318008423 12.039340287446976,62.64244318008423 14.464938640594482,68.38192343711853 14.464938640594482,68.38192343711853 17.718054354190826,73.62313270568848 17.718054354190826,73.62313270568848 21.71632945537567,78.28397750854492 21.71632945537567,78.28397750854492 26.377326250076294,82.28206038475037 26.377326250076294,82.28206038475037 31.61861300468445,85.53491234779358 31.61861300468445,85.53491234779358 37.35790252685547,87.96035647392273 37.35790252685547,87.96035647392273 43.512728810310364,89.47592377662659 43.512728810310364,89.47592377662659 50.00091791152954,89.99944925308228 50.00091791152954,89.99944925308228 56.488990783691406,89.47592377662659 56.488990783691406,89.47592377662659 62.643736600875854,87.96035647392273 62.643736600875854,87.96035647392273 68.3828353881836,85.53491234779358 68.3828353881836,85.53491234779358 73.6238956451416,82.28198289871216 73.6238956451416,82.28198289871216 78.28458547592163,78.28397750854492 78.28458547592163,78.28397750854492 82.282555103302,73.62321019172668 82.282555103302,73.62321019172668 85.53540706634521,68.38192343711853 85.53540706634521,68.38192343711853 87.96092867851257,62.64244318008423 87.96092867851257,62.64244318008423 89.47649598121643,56.4871609210968 89.47649598121643,56.4871609210968 90.00006318092346,49.99847412109375 90.00006318092346,49.99847412109375 89.47653770446777,43.510401248931885 89.47653770446777,43.510401248931885 87.96088695526123,37.355729937553406 87.96088695526123,37.355729937553406 85.53548455238342,31.616705656051636 85.53548455238342,31.616705656051636 82.28251934051514,26.375722885131836 82.28251934051514,26.375722885131836 78.28458547592163,21.715107560157776 78.28458547592163,21.715107560157776 73.6238956451416,17.717254161834717 73.6238956451416,17.717254161834717 68.38279962539673,14.464481174945831 68.38279962539673,14.464481174945831 62.6437783241272,12.03911155462265 62.6437783241272,12.03911155462265 56.4889132976532,10.523312538862228 56.4889132976532,10.523312538862228" stroke="white" stroke-width="0.1" /></svg>