<?xml version="1.0" encoding="utf-8" ?>
<svg baseProfile="full" height="65.4797375202179" version="1.1" width="72.3010241985321" xmlns="http://www.w3.org/2000/svg" xmlns:ev="http://www.w3.org/2001/xml-events" xmlns:xlink="http://www.w3.org/1999/xlink"><defs><clipPath /></defs><polygon points="50.0,65.4797375202179 50.0,65.4797375202179 46.38260006904602,65.18783569335938 46.38260006904602,65.18783569335938 42.95105040073395,64.34295773506165 42.95105040073395,64.34295773506165 39.7512823343277,62.99087405204773 39.7512823343277,62.99087405204773 36.82914674282074,61.17752194404602 36.82914674282074,61.17752194404602 34.2306524515152,58.94867181777954 34.2306524515152,58.94867181777954 32.00172483921051,56.350404024124146 32.00172483921051,56.350404024124146 30.188065767288208,53.4284234046936 30.188065767288208,53.4284234046936 28.835907578468323,50.22880434989929 28.835907578468323,50.22880434989929 27.99072265625,46.79718017578125 27.99072265625,46.79718017578125 27.698975801467896,43.17993223667145 27.698975801467896,43.17993223667145 27.990800142288208,39.56245481967926 27.990800142288208,39.56245481967926 28.835830092430115,36.13083064556122 28.835830092430115,36.13083064556122 30.188140273094177,32.93090760707855 30.188140273094177,32.93090760707855 32.0016473531723,30.008697509765625 32.0016473531723,30.008697509765625 34.2306524515152,27.409973740577698 34.2306524515152,27.409973740577698 36.82922422885895,25.180894136428833 36.82922422885895,25.180894136428833 39.75120484828949,23.367157578468323 39.75120484828949,23.367157578468323 42.95105040073395,22.014693915843964 42.95105040073395,22.014693915843964 46.38252258300781,21.16951048374176 46.38252258300781,21.16951048374176 50.0,20.877686142921448 50.0,20.877686142921448 50.85205435752869,20.894241333007812 50.85205435752869,20.894241333007812 51.69571042060852,20.943450927734375 51.69571042060852,20.943450927734375 52.53036618232727,21.024398505687714 52.53036618232727,21.024398505687714 53.35548520088196,21.136169135570526 53.35548520088196,21.136169135570526 54.17084097862244,21.278229355812073 54.17084097862244,21.278229355812073 54.97589111328125,21.449661254882812 54.97589111328125,21.449661254882812 55.77003359794617,21.649475395679474 55.77003359794617,21.649475395679474 56.55311942100525,21.877136826515198 56.55311942100525,21.877136826515198 57.32421875,22.131501138210297 57.32421875,22.131501138210297 58.08349847793579,22.412109375 58.08349847793579,22.412109375 58.0622136592865,22.492218017578125 58.0622136592865,22.492218017578125 58.04244875907898,22.5727841258049 58.04244875907898,22.5727841258049 58.024293184280396,22.65411466360092 58.024293184280396,22.65411466360092 58.008044958114624,22.735825181007385 58.008044958114624,22.735825181007385 57.993775606155396,22.818298637866974 57.993775606155396,22.818298637866974 57.98179507255554,22.90138304233551 57.98179507255554,22.90138304233551 57.97203183174133,22.98523038625717 57.97203183174133,22.98523038625717 57.96501040458679,23.06968718767166 57.96501040458679,23.06968718767166 57.96043276786804,23.154830932617188 57.96043276786804,23.154830932617188 57.958984375,23.240967094898224 57.958984375,23.240967094898224 58.00064206123352,23.758164048194885 58.00064206123352,23.758164048194885 58.121490478515625,24.24873411655426 58.121490478515625,24.24873411655426 58.314818143844604,24.7059628367424 58.314818143844604,24.7059628367424 58.57399106025696,25.123366713523865 58.57399106025696,25.123366713523865 58.89267325401306,25.494536757469177 58.89267325401306,25.494536757469177 59.26422476768494,25.812911987304688 59.26422476768494,25.812911987304688 59.681934118270874,26.07170045375824 59.681934118270874,26.07170045375824 60.13954281806946,26.264801621437073 60.13954281806946,26.264801621437073 60.630035400390625,26.385346055030823 60.630035400390625,26.385346055030823 61.14746332168579,26.427003741264343 61.14746332168579,26.427003741264343 61.41800284385681,26.41555964946747 61.41800284385681,26.41555964946747 61.68197989463806,26.381835341453552 61.68197989463806,26.381835341453552 61.938631534576416,26.326829195022583 61.938631534576416,26.326829195022583 62.186890840530396,26.251527667045593 62.186890840530396,26.251527667045593 62.42614984512329,26.156768202781677 62.42614984512329,26.156768202781677 62.65549063682556,26.043701171875 62.65549063682556,26.043701171875 62.87384033203125,25.91300904750824 62.87384033203125,25.91300904750824 63.08067440986633,25.76591670513153 63.08067440986633,25.76591670513153 63.274842500686646,25.60318112373352 63.274842500686646,25.60318112373352 63.45581412315369,25.426027178764343 63.45581412315369,25.426027178764343 65.00717401504517,26.716765761375427 65.00717401504517,26.716765761375427 66.43585562705994,28.13980281352997 66.43585562705994,28.13980281352997 67.73231625556946,29.685670137405396 67.73231625556946,29.685670137405396 68.88702511787415,31.345367431640625 68.88702511787415,31.345367431640625 69.89029049873352,33.10959041118622 69.89029049873352,33.10959041118622 70.73265314102173,34.96948182582855 70.73265314102173,34.96948182582855 71.4044988155365,36.91551387310028 71.4044988155365,36.91551387310028 71.89621329307556,38.93875181674957 71.89621329307556,38.93875181674957 72.19818234443665,41.02981686592102 72.19818234443665,41.02981686592102 72.3010241985321,43.17993223667145 72.3010241985321,43.17993223667145 72.00912833213806,46.79733216762543 72.00912833213806,46.79733216762543 71.16417288780212,50.22880434989929 71.16417288780212,50.22880434989929 69.81193423271179,53.42850089073181 69.81193423271179,53.42850089073181 67.99835562705994,56.350404024124146 67.99835562705994,56.350404024124146 65.76935052871704,58.94867181777954 65.76935052871704,58.94867181777954 63.17092776298523,61.17752194404602 63.17092776298523,61.17752194404602 60.24872064590454,62.99087405204773 60.24872064590454,62.99087405204773 57.0490300655365,64.34295773506165 57.0490300655365,64.34295773506165 53.61732840538025,65.18783569335938 53.61732840538025,65.18783569335938" stroke="white" stroke-width="0.1" /><polygon points="50.0,26.975098252296448 50.0,26.975098252296448 47.37136960029602,27.18711793422699 47.37136960029602,27.18711793422699 44.877853989601135,27.801209688186646 44.877853989601135,27.801209688186646 42.55271852016449,28.783798217773438 42.55271852016449,28.783798217773438 40.429383516311646,30.10154664516449 40.429383516311646,30.10154664516449 38.54126036167145,31.721192598342896 38.54126036167145,31.721192598342896 36.92169189453125,33.60939025878906 36.92169189453125,33.60939025878906 35.60386598110199,35.73265075683594 35.60386598110199,35.73265075683594 34.6212774515152,38.05778622627258 34.6212774515152,38.05778622627258 34.00718867778778,40.55122435092926 34.00718867778778,40.55122435092926 33.795166015625,43.17993223667145 33.795166015625,43.17993223667145 33.84735286235809,44.487762451171875 33.84735286235809,44.487762451171875 34.00131165981293,45.76675593852997 34.00131165981293,45.76675593852997 34.2529296875,47.01294004917145 34.2529296875,47.01294004917145 34.59815979003906,48.22250306606293 34.59815979003906,48.22250306606293 35.03296077251434,49.39148128032684 35.03296077251434,49.39148128032684 35.55335998535156,50.515979528427124 35.55335998535156,50.515979528427124 36.15516722202301,51.59187316894531 36.15516722202301,51.59187316894531 36.83456480503082,52.61543393135071 36.83456480503082,52.61543393135071 37.587204575538635,53.58261466026306 37.587204575538635,53.58261466026306 38.409423828125,54.48974967002869 38.409423828125,54.48974967002869 38.25065791606903,54.66774106025696 38.25065791606903,54.66774106025696 38.1051629781723,54.857027530670166 38.1051629781723,54.857027530670166 37.97386288642883,55.056995153427124 37.97386288642883,55.056995153427124 37.85743713378906,55.26672601699829 37.85743713378906,55.26672601699829 37.75680661201477,55.485689640045166 37.75680661201477,55.485689640045166 37.672653794288635,55.713123083114624 37.672653794288635,55.713123083114624 37.60574460029602,55.94825744628906 37.60574460029602,55.94825744628906 37.5570684671402,56.19049072265625 37.5570684671402,56.19049072265625 37.527161836624146,56.43882751464844 37.527161836624146,56.43882751464844 37.51709163188934,56.69311881065369 37.51709163188934,56.69311881065369 37.55882382392883,57.21039175987244 37.55882382392883,57.21039175987244 37.67959773540497,57.700806856155396 37.67959773540497,57.700806856155396 37.87284791469574,58.158111572265625 37.87284791469574,58.158111572265625 38.13202083110809,58.575594425201416 38.13202083110809,58.575594425201416 38.45062255859375,58.94668698310852 38.45062255859375,58.94668698310852 38.82202208042145,59.26498770713806 38.82202208042145,59.26498770713806 39.23965394496918,59.52392816543579 39.23965394496918,59.52392816543579 39.696961641311646,59.71687436103821 39.696961641311646,59.71687436103821 40.18737971782684,59.83734130859375 40.18737971782684,59.83734130859375 40.704345703125,59.87915396690369 40.704345703125,59.87915396690369 41.08001887798309,59.85710024833679 41.08001887798309,59.85710024833679 41.44226014614105,59.792560338974 41.44226014614105,59.792560338974 41.78878962993622,59.688109159469604 41.78878962993622,59.688109159469604 42.117080092430115,59.54635739326477 42.117080092430115,59.54635739326477 42.42492616176605,59.369659423828125 42.42492616176605,59.369659423828125 42.70996153354645,59.16069149971008 42.70996153354645,59.16069149971008 42.96974241733551,58.92173647880554 42.96974241733551,58.92173647880554 43.201905488967896,58.65570306777954 43.201905488967896,58.65570306777954 43.40415894985199,58.36471915245056 43.40415894985199,58.36471915245056 43.574219942092896,58.051759004592896 43.574219942092896,58.051759004592896 44.17152404785156,58.29605460166931 44.17152404785156,58.29605460166931 44.78027522563934,58.51722955703735 44.78027522563934,58.51722955703735 45.39993405342102,58.71467590332031 45.39993405342102,58.71467590332031 46.02997004985809,58.88778567314148 46.02997004985809,58.88778567314148 46.66992127895355,59.035950899124146 46.66992127895355,59.035950899124146 47.319260239601135,59.158629179000854 47.319260239601135,59.158629179000854 47.977373003959656,59.25506949424744 47.977373003959656,59.25506949424744 48.64395260810852,59.32472348213196 48.64395260810852,59.32472348213196 49.31823909282684,59.36684012413025 49.31823909282684,59.36684012413025 50.0,59.381103515625 50.0,59.381103515625 52.62863039970398,59.16900634765625 52.62863039970398,59.16900634765625 55.122071504592896,58.55514407157898 55.122071504592896,58.55514407157898 57.447052001953125,57.57255554199219 57.447052001953125,57.57255554199219 59.57016348838806,56.254881620407104 59.57016348838806,56.254881620407104 61.458128690719604,54.63547110557556 61.458128690719604,54.63547110557556 63.07770013809204,52.74772644042969 63.07770013809204,52.74772644042969 64.39521908760071,50.62476992607117 64.39521908760071,50.62476992607117 65.37773013114929,48.300400376319885 65.37773013114929,48.300400376319885 65.99151492118835,45.80741822719574 65.99151492118835,45.80741822719574 66.2036120891571,43.17993223667145 66.2036120891571,43.17993223667145 65.99151492118835,40.55130183696747 65.99151492118835,40.55130183696747 65.37765860557556,38.057708740234375 65.37765860557556,38.057708740234375 64.39521908760071,35.73265075683594 64.39521908760071,35.73265075683594 63.077545166015625,33.60931575298309 63.077545166015625,33.60931575298309 61.458128690719604,31.721192598342896 61.458128690719604,31.721192598342896 59.57016348838806,30.10154664516449 59.57016348838806,30.10154664516449 57.44697451591492,28.783798217773438 57.44697451591492,28.783798217773438 55.122071504592896,27.801209688186646 55.122071504592896,27.801209688186646 52.62855887413025,27.18704342842102 52.62855887413025,27.18704342842102" stroke="white" stroke-width="0.1" /></svg>