<?xml version="1.0" encoding="utf-8" ?>
<svg baseProfile="full" height="30.02471923828125" version="1.1" width="99.99938011169434" xmlns="http://www.w3.org/2000/svg" xmlns:ev="http://www.w3.org/2001/xml-events" xmlns:xlink="http://www.w3.org/1999/xlink"><defs><clipPath /></defs><polygon points="99.89147186279297,17.055130004882812 99.89147186279297,17.055130004882812 99.97951984405518,17.26222038269043 99.97951984405518,17.26222038269043 99.99938011169434,17.52033233642578 99.99938011169434,17.52033233642578 99.96814727783203,17.821073532104492 99.96814727783203,17.821073532104492 99.9027967453003,18.155789375305176 99.9027967453003,18.155789375305176 99.82044696807861,18.516111373901367 99.82044696807861,18.516111373901367 99.73812103271484,18.8934326171875 99.73812103271484,18.8934326171875 99.5718002319336,19.342875480651855 99.5718002319336,19.342875480651855 99.2408275604248,19.901537895202637 99.2408275604248,19.901537895202637 98.7680435180664,20.53394317626953 98.7680435180664,20.53394317626953 98.17607402801514,21.204590797424316 98.17607402801514,21.204590797424316 97.4877119064331,21.87807559967041 97.4877119064331,21.87807559967041 96.72565460205078,22.5189208984375 96.72565460205078,22.5189208984375 95.54052352905273,23.148632049560547 95.54052352905273,23.148632049560547 93.7978982925415,23.778319358825684 93.7978982925415,23.778319358825684 91.84255599975586,24.357032775878906 91.84255599975586,24.357032775878906 90.01908302307129,24.83360767364502 90.01908302307129,24.83360767364502 88.67230415344238,25.15699863433838 88.67230415344238,25.15699863433838 88.14678192138672,25.27618408203125 88.14678192138672,25.27618408203125 87.71800994873047,25.164794921875 87.71800994873047,25.164794921875 87.85338401794434,24.719667434692383 87.85338401794434,24.719667434692383 87.96601295471191,24.265122413635254 87.96601295471191,24.265122413635254 88.05503845214844,23.801803588867188 88.05503845214844,23.801803588867188 88.11960220336914,23.330307006835938 88.11960220336914,23.330307006835938 88.15903663635254,22.85139560699463 88.15903663635254,22.85139560699463 88.1723403930664,22.365570068359375 88.1723403930664,22.365570068359375 87.85443305969238,20.006299018859863 87.85443305969238,20.006299018859863 86.95757389068604,17.88458824157715 86.95757389068604,17.88458824157715 85.56714057922363,16.08576774597168 85.56714057922363,16.08576774597168 83.7683916091919,14.695191383361816 83.7683916091919,14.695191383361816 81.64677619934082,13.798308372497559 81.64677619934082,13.798308372497559 79.28752899169922,13.480377197265625 79.28752899169922,13.480377197265625 76.9282579421997,13.798332214355469 76.9282579421997,13.798332214355469 74.80654716491699,14.695215225219727 74.80654716491699,14.695215225219727 73.00772666931152,16.08576774597168 73.00772666931152,16.08576774597168 71.61717414855957,17.884540557861328 71.61717414855957,17.884540557861328 70.7202672958374,20.006299018859863 70.7202672958374,20.006299018859863 70.40233612060547,22.365570068359375 70.40233612060547,22.365570068359375 70.42050361633301,22.93374538421631 70.42050361633301,22.93374538421631 70.47417163848877,23.49233627319336 70.47417163848877,23.49233627319336 70.56212425231934,24.04041290283203 70.56212425231934,24.04041290283203 70.68307399749756,24.576878547668457 70.68307399749756,24.576878547668457 70.83585262298584,25.10077953338623 70.83585262298584,25.10077953338623 71.01917266845703,25.611114501953125 71.01917266845703,25.611114501953125 70.07083892822266,25.93994140625 70.07083892822266,25.93994140625 26.667213439941406,26.399612426757812 26.667213439941406,26.399612426757812 25.705718994140625,26.061248779296875 25.705718994140625,26.061248779296875 25.945186614990234,25.4880428314209 25.945186614990234,25.4880428314209 26.145148277282715,24.895596504211426 26.145148277282715,24.895596504211426 26.303768157958984,24.285507202148438 26.303768157958984,24.285507202148438 26.41925811767578,23.659372329711914 26.41925811767578,23.659372329711914 26.489901542663574,23.018884658813477 26.489901542663574,23.018884658813477 26.51386260986328,22.365570068359375 26.51386260986328,22.365570068359375 26.195955276489258,20.006299018859863 26.195955276489258,20.006299018859863 25.29904842376709,17.88458824157715 25.29904842376709,17.88458824157715 23.908567428588867,16.08576774597168 23.908567428588867,16.08576774597168 22.10979461669922,14.695191383361816 22.10979461669922,14.695191383361816 19.988107681274414,13.798308372497559 19.988107681274414,13.798308372497559 17.628860473632812,13.480377197265625 17.628860473632812,13.480377197265625 15.269613265991211,13.798332214355469 15.269613265991211,13.798332214355469 13.147902488708496,14.695215225219727 13.147902488708496,14.695215225219727 11.349153518676758,16.08576774597168 11.349153518676758,16.08576774597168 9.958648681640625,17.884540557861328 9.958648681640625,17.884540557861328 9.061765670776367,20.006299018859863 9.061765670776367,20.006299018859863 8.743858337402344,22.365570068359375 8.743858337402344,22.365570068359375 8.771920204162598,23.073196411132812 8.771920204162598,23.073196411132812 8.85462760925293,23.76556396484375 8.85462760925293,23.76556396484375 8.989715576171875,24.440765380859375 8.989715576171875,24.440765380859375 9.174966812133789,25.096583366394043 9.174966812133789,25.096583366394043 9.408164024353027,25.73103904724121 9.408164024353027,25.73103904724121 9.687042236328125,26.342010498046875 9.687042236328125,26.342010498046875 8.897209167480469,26.80816650390625 8.897209167480469,26.80816650390625 6.70166015625,26.7059326171875 6.70166015625,26.7059326171875 6.650543212890625,25.888824462890625 6.650543212890625,25.888824462890625 6.547451019287109,25.883865356445312 6.547451019287109,25.883865356445312 6.285524368286133,25.866127014160156 6.285524368286133,25.866127014160156 5.93562126159668,25.83141326904297 5.93562126159668,25.83141326904297 5.568695068359375,25.775432586669922 5.568695068359375,25.775432586669922 5.255746841430664,25.69401264190674 5.255746841430664,25.69401264190674 5.067634582519531,25.5828857421875 5.067634582519531,25.5828857421875 4.902839660644531,25.434112548828125 4.902839660644531,25.434112548828125 4.617500305175781,25.24421215057373 4.617500305175781,25.24421215057373 4.2186737060546875,25.014686584472656 4.2186737060546875,25.014686584472656 3.7134647369384766,24.74684715270996 3.7134647369384766,24.74684715270996 3.1090259552001953,24.442172050476074 3.1090259552001953,24.442172050476074 2.41241455078125,24.102020263671875 2.41241455078125,24.102020263671875 1.7764568328857422,23.813486099243164 1.7764568328857422,23.813486099243164 1.3248920440673828,23.63276481628418 1.3248920440673828,23.63276481628418 1.0208368301391602,23.514556884765625 1.0208368301391602,23.514556884765625 0.8274078369140625,23.4133243560791 0.8274078369140625,23.4133243560791 0.7077693939208984,23.283767700195312 0.7077693939208984,23.283767700195312 0.6250381469726562,23.0804443359375 0.6250381469726562,23.0804443359375 0.6096839904785156,22.827458381652832 0.6096839904785156,22.827458381652832 0.6893396377563477,22.588682174682617 0.6893396377563477,22.588682174682617 0.822901725769043,22.3783016204834 0.822901725769043,22.3783016204834 0.9691953659057617,22.21047878265381 0.9691953659057617,22.21047878265381 1.0871648788452148,22.09939956665039 1.0871648788452148,22.09939956665039 1.1356353759765625,22.059249877929688 1.1356353759765625,22.059249877929688 1.1205196380615234,21.93279266357422 1.1205196380615234,21.93279266357422 1.0826587677001953,21.609163284301758 1.0826587677001953,21.609163284301758 1.0334968566894531,21.172046661376953 1.0334968566894531,21.172046661376953 0.9843111038208008,20.705080032348633 0.9843111038208008,20.705080032348633 0.9464740753173828,20.292019844055176 0.9464740753173828,20.292019844055176 0.9313583374023438,20.0164794921875 0.9313583374023438,20.0164794921875 0.8897542953491211,19.873619079589844 0.8897542953491211,19.873619079589844 0.7857322692871094,19.791722297668457 0.7857322692871094,19.791722297668457 0.6505012512207031,19.755172729492188 0.6505012512207031,19.755172729492188 0.5152702331542969,19.748353958129883 0.5152702331542969,19.748353958129883 0.41124820709228516,19.75572109222412 0.41124820709228516,19.75572109222412 0.3696441650390625,19.76165771484375 0.3696441650390625,19.76165771484375 0.35381317138671875,19.704222679138184 0.35381317138671875,19.704222679138184 0.3110647201538086,19.54038143157959 0.3110647201538086,19.54038143157959 0.24845600128173828,19.282913208007812 0.24845600128173828,19.282913208007812 0.17309188842773438,18.944549560546875 0.17309188842773438,18.944549560546875 0.09202957153320312,18.53809356689453 0.09202957153320312,18.53809356689453 0.01239776611328125,18.076324462890625 0.01239776611328125,18.076324462890625 0.0461578369140625,17.648744583129883 0.0461578369140625,17.648744583129883 0.24871826171875,17.327499389648438 0.24871826171875,17.327499389648438 0.5420684814453125,17.099905014038086 0.5420684814453125,17.099905014038086 0.8481979370117188,16.953110694885254 0.8481979370117188,16.953110694885254 1.0890960693359375,16.874408721923828 1.0890960693359375,16.874408721923828 1.1867523193359375,16.851043701171875 1.1867523193359375,16.851043701171875 1.1832237243652344,16.78602695465088 1.1832237243652344,16.78602695465088 1.1754035949707031,16.60325527191162 1.1754035949707031,16.60325527191162 1.1675834655761719,16.321182250976562 1.1675834655761719,16.321182250976562 1.1640071868896484,15.958189964294434 1.1640071868896484,15.958189964294434 1.168990135192871,15.532827377319336 1.168990135192871,15.532827377319336 1.1867523193359375,15.0634765625 1.1867523193359375,15.0634765625 1.261305809020996,14.616966247558594 1.261305809020996,14.616966247558594 1.4081478118896484,14.248394966125488 1.4081478118896484,14.248394966125488 1.5889883041381836,13.959264755249023 1.5889883041381836,13.959264755249023 1.7655372619628906,13.750958442687988 1.7655372619628906,13.750958442687988 1.899552345275879,13.624906539916992 1.899552345275879,13.624906539916992 1.9527435302734375,13.582611083984375 1.9527435302734375,13.582611083984375 1.9118547439575195,13.580751419067383 1.9118547439575195,13.580751419067383 1.8127918243408203,13.567495346069336 1.8127918243408203,13.567495346069336 1.6910314559936523,13.53158950805664 1.6910314559936523,13.53158950805664 1.5820503234863281,13.461637496948242 1.5820503234863281,13.461637496948242 1.5212535858154297,13.346385955810547 1.5212535858154297,13.346385955810547 1.544189453125,13.1744384765625 1.544189453125,13.1744384765625 2.1496057510375977,12.509584426879883 2.1496057510375977,12.509584426879883 3.4440994262695312,11.77663803100586 3.4440994262695312,11.77663803100586 5.344533920288086,11.004066467285156 5.344533920288086,11.004066467285156 7.767796516418457,10.220146179199219 7.767796516418457,10.220146179199219 10.63079833984375,9.453296661376953 10.63079833984375,9.453296661376953 13.85040283203125,8.731842041015625 13.85040283203125,8.731842041015625 17.290258407592773,8.150339126586914 17.290258407592773,8.150339126586914 20.70603370666504,7.75599479675293 20.70603370666504,7.75599479675293 23.8523006439209,7.506370544433594 23.8523006439209,7.506370544433594 26.483678817749023,7.358813285827637 26.483678817749023,7.358813285827637 28.354787826538086,7.27083683013916 28.354787826538086,7.27083683013916 29.220199584960938,7.199859619140625 29.220199584960938,7.199859619140625 29.339599609375,7.237553596496582 29.339599609375,7.237553596496582 29.2050838470459,7.449626922607422 29.2050838470459,7.449626922607422 28.92024517059326,7.755327224731445 28.92024517059326,7.755327224731445 28.588581085205078,8.073735237121582 28.588581085205078,8.073735237121582 28.313636779785156,8.324098587036133 28.313636779785156,8.324098587036133 28.199005126953125,8.425521850585938 28.199005126953125,8.425521850585938 29.11815643310547,8.221054077148438 29.11815643310547,8.221054077148438 30.117011070251465,7.8124284744262695 30.117011070251465,7.8124284744262695 32.32574462890625,6.840610504150391 32.32574462890625,6.840610504150391 35.25218963623047,5.534029006958008 35.25218963623047,5.534029006958008 38.404130935668945,4.1210174560546875 38.404130935668945,4.1210174560546875 41.289424896240234,2.830028533935547 41.289424896240234,2.830028533935547 43.41583251953125,1.8894195556640625 43.41583251953125,1.8894195556640625 45.09685039520264,1.296544075012207 45.09685039520264,1.296544075012207 46.958017349243164,0.8738517761230469 46.958017349243164,0.8738517761230469 48.975253105163574,0.5873203277587891 48.975253105163574,0.5873203277587891 51.12435817718506,0.40290355682373047 51.12435817718506,0.40290355682373047 53.38127613067627,0.2866506576538086 53.38127613067627,0.2866506576538086 55.72185516357422,0.2044677734375 55.72185516357422,0.2044677734375 58.306264877319336,0.1850128173828125 58.306264877319336,0.1850128173828125 61.1119270324707,0.25348663330078125 61.1119270324707,0.25348663330078125 63.84105682373047,0.37021636962890625 63.84105682373047,0.37021636962890625 66.19565486907959,0.4954338073730469 66.19565486907959,0.4954338073730469 67.87796020507812,0.5894899368286133 67.87796020507812,0.5894899368286133 68.58997344970703,0.612640380859375 68.58997344970703,0.612640380859375 68.76559257507324,0.553441047668457 68.76559257507324,0.553441047668457 69.00780200958252,0.4445075988769531 69.00780200958252,0.4445075988769531 69.27275657653809,0.3128528594970703 69.27275657653809,0.3128528594970703 69.51642036437988,0.185394287109375 69.51642036437988,0.185394287109375 69.69485282897949,0.08916854858398438 69.69485282897949,0.08916854858398438 69.7641372680664,0.051116943359375 69.7641372680664,0.051116943359375 70.32604217529297,0.0 70.32604217529297,0.0 70.12157440185547,0.817108154296875 70.12157440185547,0.817108154296875 70.25518417358398,0.850224494934082 70.25518417358398,0.850224494934082 70.62849998474121,0.9457111358642578 70.62849998474121,0.9457111358642578 71.20041847229004,1.0979652404785156 71.20041847229004,1.0979652404785156 71.92976474761963,1.3012409210205078 71.92976474761963,1.3012409210205078 72.77548313140869,1.5499353408813477 72.77548313140869,1.5499353408813477 73.69632720947266,1.8383026123046875 73.69632720947266,1.8383026123046875 75.39987564086914,2.3932456970214844 75.39987564086914,2.3932456970214844 78.25229167938232,3.315448760986328 78.25229167938232,3.315448760986328 81.70042037963867,4.410696029663086 81.70042037963867,4.410696029663086 85.19108295440674,5.484652519226074 85.19108295440674,5.484652519226074 88.17110061645508,6.34307861328125 88.17110061645508,6.34307861328125 90.08731842041016,6.79168701171875 90.08731842041016,6.79168701171875 91.3949966430664,6.931018829345703 91.3949966430664,6.931018829345703 92.83733367919922,7.005190849304199 92.83733367919922,7.005190849304199 94.29383277893066,7.034015655517578 94.29383277893066,7.034015655517578 95.64392566680908,7.03732967376709 95.64392566680908,7.03732967376709 96.76711559295654,7.0349931716918945 96.76711559295654,7.0349931716918945 97.54276275634766,7.0468902587890625 97.54276275634766,7.0468902587890625 97.96664714813232,7.14869499206543 97.96664714813232,7.14869499206543 98.15924167633057,7.368254661560059 98.15924167633057,7.368254661560059 98.18730354309082,7.653141021728516 98.18730354309082,7.653141021728516 98.11747074127197,7.950782775878906 98.11747074127197,7.950782775878906 98.01642894744873,8.208727836608887 98.01642894744873,8.208727836608887 97.95093536376953,8.374404907226562 97.95093536376953,8.374404907226562 97.94836044311523,8.527898788452148 97.94836044311523,8.527898788452148 97.98121452331543,8.767867088317871 97.98121452331543,8.767867088317871 98.03400039672852,9.070205688476562 98.03400039672852,9.070205688476562 98.0910062789917,9.410786628723145 98.0910062789917,9.410786628723145 98.13668727874756,9.76557731628418 98.13668727874756,9.76557731628418 98.15540313720703,10.1104736328125 98.15540313720703,10.1104736328125 98.15800189971924,10.433626174926758 98.15800189971924,10.433626174926758 98.17619323730469,10.738372802734375 98.17619323730469,10.738372802734375 98.22559356689453,11.023283004760742 98.22559356689453,11.023283004760742 98.32174777984619,11.28690242767334 98.32174777984619,11.28690242767334 98.48031997680664,11.527824401855469 98.48031997680664,11.527824401855469 98.71692657470703,11.74468994140625 98.71692657470703,11.74468994140625 98.96864891052246,11.95840835571289 98.96864891052246,11.95840835571289 99.16508197784424,12.177777290344238 99.16508197784424,12.177777290344238 99.31049346923828,12.382936477661133 99.31049346923828,12.382936477661133 99.40910339355469,12.554025650024414 99.40910339355469,12.554025650024414 99.46515560150146,12.671279907226562 99.46515560150146,12.671279907226562 99.48291778564453,12.714767456054688 99.48291778564453,12.714767456054688 99.43180084228516,16.49322509765625 99.43180084228516,16.49322509765625 99.44813251495361,16.51003360748291 99.44813251495361,16.51003360748291 99.49426651000977,16.559457778930664 99.49426651000977,16.559457778930664 99.5659351348877,16.640138626098633 99.5659351348877,16.640138626098633 99.65884685516357,16.750574111938477 99.65884685516357,16.750574111938477 99.7687816619873,16.889381408691406 99.7687816619873,16.889381408691406" stroke="white" stroke-width="0.1" /><polygon points="62.51335144042969,8.425521850585938 62.51335144042969,8.425521850585938 63.22822570800781,2.910614013671875 63.22822570800781,2.910614013671875 62.99610137939453,2.8949975967407227 62.99610137939453,2.8949975967407227 62.34123706817627,2.853822708129883 62.34123706817627,2.853822708129883 61.32612228393555,2.7956485748291016 61.32612228393555,2.7956485748291016 60.01312732696533,2.7289628982543945 60.01312732696533,2.7289628982543945 58.464694023132324,2.662324905395508 58.464694023132324,2.662324905395508 56.74324035644531,2.6042938232421875 56.74324035644531,2.6042938232421875 55.094099044799805,2.5783777236938477 55.094099044799805,2.5783777236938477 53.66053581237793,2.600574493408203 53.66053581237793,2.600574493408203 52.35180854797363,2.668142318725586 52.35180854797363,2.668142318725586 51.07710361480713,2.7782678604125977 51.07710361480713,2.7782678604125977 49.74567890167236,2.92816162109375 49.74567890167236,2.92816162109375 48.26679229736328,3.115081787109375 48.26679229736328,3.115081787109375 46.60775661468506,3.4950733184814453 46.60775661468506,3.4950733184814453 44.90046501159668,4.130411148071289 44.90046501159668,4.130411148071289 43.30096244812012,4.876422882080078 43.30096244812012,4.876422882080078 41.96524620056152,5.588388442993164 41.96524620056152,5.588388442993164 41.0494327545166,6.121683120727539 41.0494327545166,6.121683120727539 40.709495544433594,6.331634521484375 40.709495544433594,6.331634521484375 40.65837860107422,6.740570068359375 40.65837860107422,6.740570068359375 40.714406967163086,6.74436092376709 40.714406967163086,6.74436092376709 40.868282318115234,6.753826141357422 40.868282318115234,6.753826141357422 41.098785400390625,6.7661285400390625 41.098785400390625,6.7661285400390625 41.38455390930176,6.778407096862793 41.38455390930176,6.778407096862793 41.704416275024414,6.787896156311035 41.704416275024414,6.787896156311035 42.037010192871094,6.79168701171875 42.037010192871094,6.79168701171875 42.28639602661133,6.954336166381836 42.28639602661133,6.954336166381836 42.39821434020996,7.36086368560791 42.39821434020996,7.36086368560791 42.41361618041992,7.889366149902344 42.41361618041992,7.889366149902344 42.3736572265625,8.417868614196777 42.3736572265625,8.417868614196777 42.319560050964355,8.824396133422852 42.319560050964355,8.824396133422852 42.29240417480469,8.987045288085938 42.29240417480469,8.987045288085938 42.78740882873535,8.979272842407227 42.78740882873535,8.979272842407227 44.12496089935303,8.958745002746582 44.12496089935303,8.958745002746582 46.083784103393555,8.929729461669922 46.083784103393555,8.929729461669922 48.44257831573486,8.896422386169434 48.44257831573486,8.896422386169434 50.98013877868652,8.863139152526855 50.98013877868652,8.863139152526855 53.475189208984375,8.834075927734375 53.475189208984375,8.834075927734375 55.811357498168945,8.78608226776123 55.811357498168945,8.78608226776123 57.95176029205322,8.705425262451172 57.95176029205322,8.705425262451172 59.79428291320801,8.61063003540039 59.79428291320801,8.61063003540039 61.23676300048828,8.520054817199707 61.23676300048828,8.520054817199707 62.177181243896484,8.452224731445312 62.177181243896484,8.452224731445312" stroke="white" stroke-width="0.1" /><polygon points="65.43769836425781,20.4437255859375 65.43769836425781,20.4437255859375 68.5007095336914,14.3402099609375 68.5007095336914,14.3402099609375 68.1173324584961,14.3402099609375 68.1173324584961,14.3402099609375 65.00186920166016,20.4437255859375 65.00186920166016,20.4437255859375" stroke="white" stroke-width="0.1" /><polygon points="66.33071899414062,20.4437255859375 66.33071899414062,20.4437255859375 69.44599151611328,14.3402099609375 69.44599151611328,14.3402099609375 69.06147003173828,14.3402099609375 69.06147003173828,14.3402099609375 69.06149387359619,14.3402099609375 69.06149387359619,14.3402099609375 69.06147003173828,14.3402099609375 69.06147003173828,14.3402099609375 69.06147003173828,14.3402099609375 69.06147003173828,14.3402099609375 69.06144618988037,14.34016227722168 69.06144618988037,14.34016227722168 69.06144618988037,14.34018611907959 69.06144618988037,14.34018611907959 69.06147003173828,14.3402099609375 69.06147003173828,14.3402099609375 65.89603424072266,20.4437255859375 65.89603424072266,20.4437255859375" stroke="white" stroke-width="0.1" /><polygon points="67.2006607055664,20.4437255859375 67.2006607055664,20.4437255859375 70.4854965209961,14.3402099609375 70.4854965209961,14.3402099609375 70.1150894165039,14.3402099609375 70.1150894165039,14.3402099609375 66.7623519897461,20.4437255859375 66.7623519897461,20.4437255859375" stroke="white" stroke-width="0.1" /><polygon points="68.13030242919922,7.35321044921875 68.13030242919922,7.35321044921875 69.33763027191162,7.14869499206543 69.33763027191162,7.14869499206543 70.36764621734619,6.976747512817383 70.36764621734619,6.976747512817383 71.16222381591797,6.810522079467773 71.16222381591797,6.810522079467773 71.66316509246826,6.622982025146484 71.66316509246826,6.622982025146484 71.81239128112793,6.38728141784668 71.81239128112793,6.38728141784668 71.55170440673828,6.0764312744140625 71.55170440673828,6.0764312744140625 70.93179225921631,5.622696876525879 70.93179225921631,5.622696876525879 70.04806995391846,5.032682418823242 70.04806995391846,5.032682418823242 68.90909671783447,4.391574859619141 68.90909671783447,4.391574859619141 67.52328872680664,3.784465789794922 67.52328872680664,3.784465789794922 65.8992052078247,3.296518325805664 65.8992052078247,3.296518325805664 64.04533386230469,3.012847900390625 64.04533386230469,3.012847900390625 63.43250274658203,8.374404907226562 63.43250274658203,8.374404907226562 63.60321044921875,8.330678939819336 63.60321044921875,8.330678939819336 64.08312320709229,8.211708068847656 64.08312320709229,8.211708068847656 64.8240327835083,8.036041259765625 64.8240327835083,8.036041259765625 65.77765941619873,7.822060585021973 65.77765941619873,7.822060585021973 66.89586639404297,7.588291168212891 66.89586639404297,7.588291168212891" stroke="white" stroke-width="0.1" /><polygon points="17.628860473632812,14.706039428710938 17.628860473632812,14.706039428710938 19.665098190307617,14.97964859008789 19.665098190307617,14.97964859008789 21.49479389190674,15.75171947479248 21.49479389190674,15.75171947479248 23.044991493225098,16.94936752319336 23.044991493225098,16.94936752319336 24.242639541625977,18.4995174407959 24.242639541625977,18.4995174407959 25.014781951904297,20.32926082611084 25.014781951904297,20.32926082611084 25.28839111328125,22.365570068359375 25.28839111328125,22.365570068359375 25.266480445861816,22.948718070983887 25.266480445861816,22.948718070983887 25.201845169067383,23.51984977722168 25.201845169067383,23.51984977722168 25.09603500366211,24.077510833740234 25.09603500366211,24.077510833740234 24.950671195983887,24.62005615234375 24.950671195983887,24.62005615234375 24.767398834228516,25.146031379699707 24.767398834228516,25.146031379699707 24.547767639160156,25.653839111328125 24.547767639160156,25.653839111328125 23.819971084594727,26.874876022338867 23.819971084594727,26.874876022338867 22.885489463806152,27.935504913330078 22.885489463806152,27.935504913330078 21.771740913391113,28.808307647705078 21.771740913391113,28.808307647705078 20.50609588623047,29.465746879577637 20.50609588623047,29.465746879577637 19.11599636077881,29.880380630493164 19.11599636077881,29.880380630493164 17.628860473632812,30.02471923828125 17.628860473632812,30.02471923828125 16.154003143310547,29.88283634185791 16.154003143310547,29.88283634185791 14.774322509765625,29.474973678588867 14.774322509765625,29.474973678588867 13.516569137573242,28.827953338623047 13.516569137573242,28.827953338623047 12.407422065734863,27.968502044677734 12.407422065734863,27.968502044677734 11.473584175109863,26.923418045043945 11.473584175109863,26.923418045043945 10.741806030273438,25.719451904296875 10.741806030273438,25.719451904296875 10.513019561767578,25.20277500152588 10.513019561767578,25.20277500152588 10.321950912475586,24.666976928710938 10.321950912475586,24.666976928710938 10.170340538024902,24.113750457763672 10.170340538024902,24.113750457763672 10.059905052185059,23.544645309448242 10.059905052185059,23.544645309448242 9.992408752441406,22.96137809753418 9.992408752441406,22.96137809753418 9.969520568847656,22.365570068359375 9.969520568847656,22.365570068359375 10.24312973022461,20.32928466796875 10.24312973022461,20.32928466796875 11.01524829864502,18.49956512451172 11.01524829864502,18.49956512451172 12.212896347045898,16.94936752319336 12.212896347045898,16.94936752319336 13.763046264648438,15.75169563293457 13.763046264648438,15.75169563293457 15.592718124389648,14.97960090637207 15.592718124389648,14.97960090637207" stroke="white" stroke-width="0.1" /><polygon points="79.28752899169922,14.706039428710938 79.28752899169922,14.706039428710938 81.3237190246582,14.97964859008789 81.3237190246582,14.97964859008789 83.15339088439941,15.75171947479248 83.15339088439941,15.75171947479248 84.70358848571777,16.94936752319336 84.70358848571777,16.94936752319336 85.90126037597656,18.4995174407959 85.90126037597656,18.4995174407959 86.6734504699707,20.32926082611084 86.6734504699707,20.32926082611084 86.94705963134766,22.365570068359375 86.94705963134766,22.365570068359375 86.93485260009766,22.798633575439453 86.93485260009766,22.798633575439453 86.89873218536377,23.22535514831543 86.89873218536377,23.22535514831543 86.83948516845703,23.64511489868164 86.83948516845703,23.64511489868164 86.75782680511475,24.057292938232422 86.75782680511475,24.057292938232422 86.65459156036377,24.46131706237793 86.65459156036377,24.46131706237793 86.5304946899414,24.8565673828125 86.5304946899414,24.8565673828125 85.86807250976562,26.28340721130371 85.86807250976562,26.28340721130371 84.93921756744385,27.53276824951172 84.93921756744385,27.53276824951172 83.78033638000488,28.568172454833984 83.78033638000488,28.568172454833984 82.42781162261963,29.352974891662598 82.42781162261963,29.352974891662598 80.9180736541748,29.85067367553711 80.9180736541748,29.85067367553711 79.28752899169922,30.02471923828125 79.28752899169922,30.02471923828125 77.71940231323242,29.864001274108887 77.71940231323242,29.864001274108887 76.26142501831055,29.403376579284668 76.26142501831055,29.403376579284668 74.94587898254395,28.675270080566406 74.94587898254395,28.675270080566406 73.80490303039551,27.712035179138184 73.80490303039551,27.712035179138184 72.8708028793335,26.546096801757812 72.8708028793335,26.546096801757812 72.17578887939453,25.209808349609375 72.17578887939453,25.209808349609375 72.01294898986816,24.76353645324707 72.01294898986816,24.76353645324707 71.87728881835938,24.304914474487305 71.87728881835938,24.304914474487305 71.76985740661621,23.834896087646484 71.76985740661621,23.834896087646484 71.69175148010254,23.354363441467285 71.69175148010254,23.354363441467285 71.64411544799805,22.864294052124023 71.64411544799805,22.864294052124023 71.62799835205078,22.365570068359375 71.62799835205078,22.365570068359375 71.90160751342773,20.32928466796875 71.90160751342773,20.32928466796875 72.67377376556396,18.49956512451172 72.67377376556396,18.49956512451172 73.87146949768066,16.94936752319336 73.87146949768066,16.94936752319336 75.42166709899902,15.75169563293457 75.42166709899902,15.75169563293457 77.25133895874023,14.97960090637207 77.25133895874023,14.97960090637207" stroke="white" stroke-width="0.1" /></svg>