<?xml version="1.0" encoding="utf-8" ?>
<svg baseProfile="full" height="42.90962219238281" version="1.1" width="100.0" xmlns="http://www.w3.org/2000/svg" xmlns:ev="http://www.w3.org/2001/xml-events" xmlns:xlink="http://www.w3.org/1999/xlink"><defs><clipPath /></defs><polygon points="99.28512573242188,8.581924438476562 99.28512573242188,8.581924438476562 100.0,10.47515869140625 100.0,10.47515869140625 100.0,24.231338500976562 100.0,24.231338500976562 99.28512573242188,26.29241943359375 99.28512573242188,26.29241943359375 93.31130981445312,26.29241943359375 93.31130981445312,26.29241943359375 92.59605407714844,24.399566650390625 92.59605407714844,24.399566650390625 92.59605407714844,20.487213134765625 92.59605407714844,20.487213134765625 92.09136962890625,20.487213134765625 92.09136962890625,20.487213134765625 92.09136962890625,26.629257202148438 92.09136962890625,26.629257202148438 93.22700500488281,26.629257202148438 93.22700500488281,26.629257202148438 93.22700500488281,29.784393310546875 93.22700500488281,29.784393310546875 93.17891597747803,30.142271518707275 93.17891597747803,30.142271518707275 93.04320812225342,30.463850498199463 93.04320812225342,30.463850498199463 92.83270835876465,30.736303329467773 92.83270835876465,30.736303329467773 92.56024360656738,30.946791172027588 92.56024360656738,30.946791172027588 92.2386646270752,31.082510948181152 92.2386646270752,31.082510948181152 91.88079833984375,31.130599975585938 91.88079833984375,31.130599975585938 91.5229320526123,31.082510948181152 91.5229320526123,31.082510948181152 91.20135307312012,30.946803092956543 91.20135307312012,30.946803092956543 90.92888832092285,30.736303329467773 90.92888832092285,30.736303329467773 90.71836471557617,30.463826656341553 90.71836471557617,30.463826656341553 90.58265686035156,30.14225959777832 90.58265686035156,30.14225959777832 90.53459167480469,29.784393310546875 90.53459167480469,29.784393310546875 90.53459167480469,27.050018310546875 90.53459167480469,27.050018310546875 90.44139385223389,27.318918704986572 90.44139385223389,27.318918704986572 90.33598899841309,27.58357524871826 90.33598899841309,27.58357524871826 90.21763801574707,27.840137481689453 90.21763801574707,27.840137481689453 90.08557796478271,28.084659576416016 90.08557796478271,28.084659576416016 89.9390697479248,28.31329107284546 89.9390697479248,28.31329107284546 89.77737426757812,28.522109985351562 89.77737426757812,28.522109985351562 89.27254676818848,29.105651378631592 89.27254676818848,29.105651378631592 88.7397289276123,29.656457901000977 88.7397289276123,29.656457901000977 88.13681602478027,30.141830444335938 88.13681602478027,30.141830444335938 87.42170333862305,30.529022216796875 87.42170333862305,30.529022216796875 86.55233383178711,30.785346031188965 86.55233383178711,30.785346031188965 85.48660278320312,30.878067016601562 85.48660278320312,30.878067016601562 85.25371551513672,30.87754249572754 85.25371551513672,30.87754249572754 85.00912189483643,30.87601661682129 85.00912189483643,30.87601661682129 84.7541332244873,30.873584747314453 84.7541332244873,30.873584747314453 84.49006080627441,30.87031841278076 84.49006080627441,30.87031841278076 84.21831130981445,30.86632490158081 84.21831130981445,30.86632490158081 83.94012451171875,30.861663818359375 83.94012451171875,30.861663818359375 82.99560546875,28.55774164199829 82.99560546875,28.55774164199829 81.60128593444824,26.5317440032959 81.60128593444824,26.5317440032959 79.81991767883301,24.846553802490234 79.81991767883301,24.846553802490234 77.71432399749756,23.56501817703247 77.71432399749756,23.56501817703247 75.34735202789307,22.749996185302734 75.34735202789307,22.749996185302734 72.78175354003906,22.464370727539062 72.78175354003906,22.464370727539062 69.89154815673828,22.828471660614014 69.89154815673828,22.828471660614014 67.26633310317993,23.86002540588379 67.26633310317993,23.86002540588379 64.99717235565186,25.467967987060547 64.99717235565186,25.467967987060547 63.175129890441895,27.561187744140625 63.175129890441895,27.561187744140625 61.89131736755371,30.048632621765137 61.89131736755371,30.048632621765137 61.23676300048828,32.839202880859375 61.23676300048828,32.839202880859375 29.73613739013672,32.29827880859375 29.73613739013672,32.29827880859375 28.990960121154785,29.638659954071045 28.990960121154785,29.638659954071045 27.668404579162598,27.27682590484619 27.668404579162598,27.27682590484619 25.85129737854004,25.295639038085938 25.85129737854004,25.295639038085938 23.622488975524902,23.777925968170166 23.622488975524902,23.777925968170166 21.06482982635498,22.80656099319458 21.06482982635498,22.80656099319458 18.261146545410156,22.464370727539062 18.261146545410156,22.464370727539062 15.46947956085205,22.803616523742676 15.46947956085205,22.803616523742676 12.921357154846191,23.766803741455078 12.921357154846191,23.766803741455078 10.698485374450684,25.272226333618164 10.698485374450684,25.272226333618164 8.882546424865723,27.238094806671143 8.882546424865723,27.238094806671143 7.555282115936279,29.582691192626953 7.555282115936279,29.582691192626953 6.798362731933594,32.224273681640625 6.798362731933594,32.224273681640625 5.1357269287109375,32.224273681640625 5.1357269287109375,32.224273681640625 5.083918571472168,31.97305202484131 5.083918571472168,31.97305202484131 4.945635795593262,31.336188316345215 4.945635795593262,31.336188316345215 4.746603965759277,30.489015579223633 4.746603965759277,30.489015579223633 4.512512683868408,29.6067476272583 4.512512683868408,29.6067476272583 4.269099235534668,28.864729404449463 4.269099235534668,28.864729404449463 4.04205322265625,28.438186645507812 4.04205322265625,28.438186645507812 3.9549827575683594,28.353095054626465 3.9549827575683594,28.353095054626465 3.866708278656006,28.26913595199585 3.866708278656006,28.26913595199585 3.778362274169922,28.185224533081055 3.778362274169922,28.185224533081055 3.6910295486450195,28.100240230560303 3.6910295486450195,28.100240230560303 3.605818748474121,28.013145923614502 3.605818748474121,28.013145923614502 3.5238265991210938,27.922821044921875 3.5238265991210938,27.922821044921875 2.5485992431640625,27.922821044921875 2.5485992431640625,27.922821044921875 2.5485992431640625,28.64837646484375 2.5485992431640625,28.64837646484375 2.526068687438965,28.81617546081543 2.526068687438965,28.81617546081543 2.462446689605713,28.966915607452393 2.462446689605713,28.966915607452393 2.3637771606445312,29.094600677490234 2.3637771606445312,29.094600677490234 2.236044406890869,29.19321060180664 2.236044406890869,29.19321060180664 2.085268497467041,29.256796836853027 2.085268497467041,29.256796836853027 1.9174575805664062,29.279327392578125 1.9174575805664062,29.279327392578125 1.65863037109375,29.279327392578125 1.65863037109375,29.279327392578125 1.8229126930236816,29.638004302978516 1.8229126930236816,29.638004302978516 2.01876163482666,30.00943660736084 2.01876163482666,30.00943660736084 2.2484302520751953,30.387306213378906 2.2484302520751953,30.387306213378906 2.514171600341797,30.76530694961548 2.514171600341797,30.76530694961548 2.81827449798584,31.13710880279541 2.81827449798584,31.13710880279541 3.1629562377929688,31.496429443359375 3.1629562377929688,31.496429443359375 3.668391704559326,31.93027973175049 3.668391704559326,31.93027973175049 4.250049591064453,32.3246955871582 4.250049591064453,32.3246955871582 4.916143417358398,32.66706466674805 4.916143417358398,32.66706466674805 5.674898624420166,32.94476270675659 5.674898624420166,32.94476270675659 6.534552574157715,33.14518928527832 6.534552574157715,33.14518928527832 7.503318786621094,33.255767822265625 7.503318786621094,33.255767822265625 7.652902603149414,33.284831047058105 7.652902603149414,33.284831047058105 7.785046100616455,33.34987163543701 7.785046100616455,33.34987163543701 7.894682884216309,33.445167541503906 7.894682884216309,33.445167541503906 7.976698875427246,33.56500864028931 7.976698875427246,33.56500864028931 8.02602767944336,33.70366096496582 8.02602767944336,33.70366096496582 8.037567138671875,33.855438232421875 8.037567138671875,33.855438232421875 8.01016092300415,34.00001525878906 8.01016092300415,34.00001525878906 7.94910192489624,34.128546714782715 7.94910192489624,34.128546714782715 7.859516143798828,34.23647880554199 7.859516143798828,34.23647880554199 7.746529579162598,34.31917428970337 7.746529579162598,34.31917428970337 7.6152801513671875,34.372103214263916 7.6152801513671875,34.372103214263916 7.470893859863281,34.39064025878906 7.470893859863281,34.39064025878906 7.465362548828125,34.39061641693115 7.465362548828125,34.39061641693115 7.459831237792969,34.39052104949951 7.459831237792969,34.39052104949951 7.454276084899902,34.39040184020996 7.454276084899902,34.39040184020996 7.448709011077881,34.39023494720459 7.448709011077881,34.39023494720459 7.443118095397949,34.39006805419922 7.443118095397949,34.39006805419922 7.4375152587890625,34.38987731933594 7.4375152587890625,34.38987731933594 6.340420246124268,34.26556587219238 6.340420246124268,34.26556587219238 5.348968505859375,34.03270244598389 5.348968505859375,34.03270244598389 4.459977149963379,33.70628356933594 4.459977149963379,33.70628356933594 3.6702394485473633,33.3012580871582 3.6702394485473633,33.3012580871582 2.9765844345092773,32.83267021179199 2.9765844345092773,32.83267021179199 2.37579345703125,32.31544494628906 2.37579345703125,32.31544494628906 1.8615365028381348,31.766843795776367 1.8615365028381348,31.766843795776367 1.4281511306762695,31.20288848876953 1.4281511306762695,31.20288848876953 1.0689496994018555,30.63793182373047 1.0689496994018555,30.63793182373047 0.7771730422973633,30.08631467819214 0.7771730422973633,30.08631467819214 0.5461215972900391,29.56242561340332 0.5461215972900391,29.56242561340332 0.36907196044921875,29.080581665039062 0.36907196044921875,29.080581665039062 0.32706260681152344,28.9398193359375 0.32706260681152344,28.9398193359375 0.29011964797973633,28.789854049682617 0.29011964797973633,28.789854049682617 0.25746822357177734,28.63011360168457 0.25746822357177734,28.63011360168457 0.2282857894897461,28.459954261779785 0.2282857894897461,28.459954261779785 0.2017974853515625,28.278839588165283 0.2017974853515625,28.278839588165283 0.17719268798828125,28.086090087890625 0.17719268798828125,28.086090087890625 0.1548290252685547,27.88306474685669 0.1548290252685547,27.88306474685669 0.13439655303955078,27.669548988342285 0.13439655303955078,27.669548988342285 0.11577606201171875,27.44617462158203 0.11577606201171875,27.44617462158203 0.09887218475341797,27.21349000930786 0.09887218475341797,27.21349000930786 0.08358955383300781,26.972150802612305 0.08358955383300781,26.972150802612305 0.0698089599609375,26.72271728515625 0.0698089599609375,26.72271728515625 0.046563148498535156,26.202070713043213 0.046563148498535156,26.202070713043213 0.028562545776367188,25.657081604003906 0.028562545776367188,25.657081604003906 0.015377998352050781,25.093460083007812 0.015377998352050781,25.093460083007812 0.006520748138427734,24.516844749450684 0.006520748138427734,24.516844749450684 0.0015497207641601562,23.932969570159912 0.0015497207641601562,23.932969570159912 0.0,23.34747314453125 0.0,23.34747314453125 0.006496906280517578,22.071099281311035 0.006496906280517578,22.071099281311035 0.022745132446289062,20.880770683288574 0.022745132446289062,20.880770683288574 0.0438690185546875,19.841480255126953 0.0438690185546875,19.841480255126953 0.06499290466308594,19.018149375915527 0.06499290466308594,19.018149375915527 0.08124113082885742,18.475770950317383 0.08124113082885742,18.475770950317383 0.087738037109375,18.279266357421875 0.087738037109375,18.279266357421875 0.08792877197265625,18.279266357421875 0.08792877197265625,18.279266357421875 0.11352300643920898,18.12920570373535 0.11352300643920898,18.12920570373535 0.17551183700561523,17.995691299438477 0.17551183700561523,17.995691299438477 0.2682924270629883,17.883968353271484 0.2682924270629883,17.883968353271484 0.3862619400024414,17.7992582321167 0.3862619400024414,17.7992582321167 0.523829460144043,17.746806144714355 0.523829460144043,17.746806144714355 0.6753921508789062,17.731857299804688 0.6753921508789062,17.731857299804688 0.8255958557128906,17.75747537612915 0.8255958557128906,17.75747537612915 0.9591817855834961,17.819499969482422 0.9591817855834961,17.819499969482422 1.0709285736083984,17.91234016418457 1.0709285736083984,17.91234016418457 1.1556148529052734,18.030381202697754 1.1556148529052734,18.030381202697754 1.208043098449707,18.168044090270996 1.208043098449707,18.168044090270996 1.222991943359375,18.3197021484375 1.222991943359375,18.3197021484375 1.2212157249450684,18.369925022125244 1.2212157249450684,18.369925022125244 1.2164592742919922,18.513774871826172 1.2164592742919922,18.513774871826172 1.2093067169189453,18.743419647216797 1.2093067169189453,18.743419647216797 1.2003421783447266,19.050920009613037 1.2003421783447266,19.050920009613037 1.1901497840881348,19.42845582962036 1.1901497840881348,19.42845582962036 1.1793136596679688,19.868087768554688 1.1793136596679688,19.868087768554688 1.170492172241211,20.269429683685303 1.170492172241211,20.269429683685303 1.16196870803833,20.702505111694336 1.16196870803833,20.702505111694336 1.1541128158569336,21.162748336791992 1.1541128158569336,21.162748336791992 1.1472463607788086,21.64558172225952 1.1472463607788086,21.64558172225952 1.1417388916015625,22.146475315093994 1.1417388916015625,22.146475315093994 1.1379241943359375,22.66082763671875 1.1379241943359375,22.66082763671875 1.148390769958496,22.659552097320557 1.148390769958496,22.659552097320557 1.1588335037231445,22.658121585845947 1.1588335037231445,22.658121585845947 1.1693000793457031,22.656726837158203 1.1693000793457031,22.656726837158203 1.179826259613037,22.655510902404785 1.179826259613037,22.655510902404785 1.1904597282409668,22.654640674591064 1.1904597282409668,22.654640674591064 1.2012481689453125,22.654342651367188 1.2012481689453125,22.654342651367188 1.9174575805664062,22.654342651367188 1.9174575805664062,22.654342651367188 2.085280418395996,22.676897048950195 2.085280418395996,22.676897048950195 2.236044406890869,22.740519046783447 2.236044406890869,22.740519046783447 2.3637771606445312,22.83921241760254 2.3637771606445312,22.83921241760254 2.462446689605713,22.96689748764038 2.462446689605713,22.96689748764038 2.5260567665100098,23.11762571334839 2.5260567665100098,23.11762571334839 2.5485992431640625,23.285293579101562 2.5485992431640625,23.285293579101562 2.5485992431640625,26.912689208984375 2.5485992431640625,26.912689208984375 3.1192779541015625,26.912689208984375 3.1192779541015625,26.912689208984375 3.118729591369629,26.90056562423706 3.118729591369629,26.90056562423706 3.118109703063965,26.88852548599243 3.118109703063965,26.88852548599243 3.117489814758301,26.876497268676758 3.117489814758301,26.876497268676758 3.116941452026367,26.86436176300049 3.116941452026367,26.86436176300049 3.1165599822998047,26.852047443389893 3.1165599822998047,26.852047443389893 3.1164169311523438,26.839447021484375 3.1164169311523438,26.839447021484375 3.05098295211792,25.8636474609375 3.05098295211792,25.8636474609375 2.9014110565185547,24.053514003753662 2.9014110565185547,24.053514003753662 2.7378320693969727,21.822738647460938 2.7378320693969727,21.822738647460938 2.630341053009033,19.584953784942627 2.630341053009033,19.584953784942627 2.649044990539551,17.753851413726807 2.649044990539551,17.753851413726807 2.86407470703125,16.743087768554688 2.86407470703125,16.743087768554688 3.25319766998291,16.25349521636963 3.25319766998291,16.25349521636963 3.817605972290039,15.742826461791992 3.817605972290039,15.742826461791992 4.662466049194336,15.26021957397461 4.662466049194336,15.26021957397461 5.892956256866455,14.854717254638672 5.892956256866455,14.854717254638672 7.614254951477051,14.575433731079102 7.614254951477051,14.575433731079102 9.931564331054688,14.471435546875 9.931564331054688,14.471435546875 12.239456176757812,14.465188980102539 12.239456176757812,14.465188980102539 13.923346996307373,14.449572563171387 13.923346996307373,14.449572563171387 15.074396133422852,14.429283142089844 15.074396133422852,14.429283142089844 15.783727169036865,14.40896987915039 15.783727169036865,14.40896987915039 16.142499446868896,14.393365383148193 16.142499446868896,14.393365383148193 16.241836547851562,14.387130737304688 16.241836547851562,14.387130737304688 16.15772247314453,12.03155517578125 16.15772247314453,12.03155517578125 25.833511352539062,12.957000732421875 25.833511352539062,12.957000732421875 25.74920654296875,14.050674438476562 25.74920654296875,14.050674438476562 33.57410430908203,14.050674438476562 33.57410430908203,14.050674438476562 40.7257080078125,2.43988037109375 40.7257080078125,2.43988037109375 40.712082386016846,2.3382186889648438 40.712082386016846,2.3382186889648438 40.70079326629639,2.0752787590026855 40.70079326629639,2.0752787590026855 40.73624610900879,1.714181900024414 40.73624610900879,1.714181900024414 40.86282253265381,1.3180136680603027 40.86282253265381,1.3180136680603027 41.12496376037598,0.9498834609985352 41.12496376037598,0.9498834609985352 41.567039489746094,0.67291259765625 41.567039489746094,0.67291259765625 42.99466609954834,0.47696828842163086 42.99466609954834,0.47696828842163086 45.892322063446045,0.3114461898803711 45.892322063446045,0.3114461898803711 49.82297420501709,0.17867088317871094 49.82297420501709,0.17867088317871094 54.349589347839355,0.08094310760498047 54.349589347839355,0.08094310760498047 59.03513431549072,0.020623207092285156 59.03513431549072,0.020623207092285156 63.44261169433594,0.0 63.44261169433594,0.0 67.85593032836914,0.0007748603820800781 67.85593032836914,0.0007748603820800781 72.55434989929199,0.006222724914550781 72.55434989929199,0.006222724914550781 77.09388732910156,0.0209808349609375 77.09388732910156,0.0209808349609375 81.03041648864746,0.04973411560058594 81.03041648864746,0.04973411560058594 83.91995429992676,0.09713172912597656 83.91995429992676,0.09713172912597656 85.31837463378906,0.1678466796875 85.31837463378906,0.1678466796875 85.76855659484863,0.38219690322875977 85.76855659484863,0.38219690322875977 86.11598014831543,0.788116455078125 86.11598014831543,0.788116455078125 86.36999130249023,1.2827873229980469 86.36999130249023,1.2827873229980469 86.53984069824219,1.7633914947509766 86.53984069824219,1.7633914947509766 86.6349458694458,2.1271705627441406 86.6349458694458,2.1271705627441406 86.66458129882812,2.271270751953125 86.66458129882812,2.271270751953125 89.69345092773438,13.545989990234375 89.69345092773438,13.545989990234375 90.53993225097656,14.513397216796875 90.53993225097656,14.513397216796875 92.59605407714844,14.513397216796875 92.59605407714844,14.513397216796875 92.59605407714844,10.64300537109375 92.59605407714844,10.64300537109375 93.31130981445312,8.58154296875 93.31130981445312,8.58154296875" stroke="white" stroke-width="0.1" /><polygon points="42.27161407470703,13.440704345703125 42.27161407470703,13.440704345703125 42.74482727050781,2.93426513671875 42.74482727050781,2.93426513671875 39.495086669921875,8.613204956054688 39.495086669921875,8.613204956054688 39.905357360839844,8.644866943359375 39.905357360839844,8.644866943359375 39.963483810424805,8.69905948638916 39.963483810424805,8.69905948638916 40.10748863220215,8.868038654327393 40.10748863220215,8.868038654327393 40.291810035705566,9.16147232055664 40.291810035705566,9.16147232055664 40.470850467681885,9.588980674743652 40.470850467681885,9.588980674743652 40.59908390045166,10.160231590270996 40.59908390045166,10.160231590270996 40.63091278076172,10.884857177734375 40.63091278076172,10.884857177734375 40.57269096374512,11.597657203674316 40.57269096374512,11.597657203674316 40.46972990036011,12.138700485229492 40.46972990036011,12.138700485229492 40.33520221710205,12.525510787963867 40.33520221710205,12.525510787963867 40.18223285675049,12.775576114654541 40.18223285675049,12.775576114654541 40.02401828765869,12.906455993652344 40.02401828765869,12.906455993652344 39.873695373535156,12.935638427734375 39.873695373535156,12.935638427734375 39.742374420166016,12.875723838806152 39.742374420166016,12.875723838806152 39.63298797607422,12.750041484832764 39.63298797607422,12.750041484832764 39.54641819000244,12.592792510986328 39.54641819000244,12.592792510986328 39.48349952697754,12.438130378723145 39.48349952697754,12.438130378723145 39.44512605667114,12.320291996002197 39.44512605667114,12.320291996002197 39.43214416503906,12.273406982421875 39.43214416503906,12.273406982421875 38.516998291015625,11.8316650390625 38.516998291015625,11.8316650390625 37.88604736328125,13.47198486328125 37.88604736328125,13.47198486328125" stroke="white" stroke-width="0.1" /><polygon points="56.75373077392578,13.37738037109375 56.75373077392578,13.37738037109375 56.75373077392578,2.776336669921875 56.75373077392578,2.776336669921875 43.88084411621094,2.9026031494140625 43.88084411621094,2.9026031494140625 43.34449768066406,13.37738037109375 43.34449768066406,13.37738037109375" stroke="white" stroke-width="0.1" /><polygon points="60.79235076904297,12.178802490234375 60.79235076904297,12.178802490234375 84.67674255371094,12.178802490234375 84.67674255371094,12.178802490234375 82.75222778320312,4.227447509765625 82.75222778320312,4.227447509765625 60.79235076904297,4.290771484375 60.79235076904297,4.290771484375" stroke="white" stroke-width="0.1" /><polygon points="18.261146545410156,25.2410888671875 18.261146545410156,25.2410888671875 20.609700679779053,25.556647777557373 20.609700679779053,25.556647777557373 22.720038890838623,26.447176933288574 22.720038890838623,26.447176933288574 24.507975578308105,27.828502655029297 24.507975578308105,27.828502655029297 25.889301300048828,29.61639165878296 25.889301300048828,29.61639165878296 26.77985429763794,31.726694107055664 26.77985429763794,31.726694107055664 27.095413208007812,34.075164794921875 27.095413208007812,34.075164794921875 26.779866218566895,36.42367124557495 26.779866218566895,36.42367124557495 25.889313220977783,38.53402137756348 25.889313220977783,38.53402137756348 24.507975578308105,40.322017669677734 24.507975578308105,40.322017669677734 22.720026969909668,41.70341491699219 22.720026969909668,41.70341491699219 20.609688758850098,42.59401559829712 20.609688758850098,42.59401559829712 18.261146545410156,42.90962219238281 18.261146545410156,42.90962219238281 15.912580490112305,42.594051361083984 15.912580490112305,42.594051361083984 13.802194595336914,41.70342683792114 13.802194595336914,41.70342683792114 12.014222145080566,40.322017669677734 12.014222145080566,40.322017669677734 10.632836818695068,38.533997535705566 10.632836818695068,38.533997535705566 9.742259979248047,36.42364740371704 9.742259979248047,36.42364740371704 9.426689147949219,34.075164794921875 9.426689147949219,34.075164794921875 9.742259979248047,31.726694107055664 9.742259979248047,31.726694107055664 10.632836818695068,29.616403579711914 10.632836818695068,29.616403579711914 12.014222145080566,27.828502655029297 12.014222145080566,27.828502655029297 13.802194595336914,26.447176933288574 13.802194595336914,26.447176933288574 15.912580490112305,25.556635856628418 15.912580490112305,25.556635856628418" stroke="white" stroke-width="0.1" /><polygon points="72.78175354003906,25.2410888671875 72.78175354003906,25.2410888671875 75.13039112091064,25.556647777557373 75.13039112091064,25.556647777557373 77.24077701568604,26.447176933288574 77.24077701568604,26.447176933288574 79.02874946594238,27.828502655029297 79.02874946594238,27.828502655029297 80.41009902954102,29.61639165878296 80.41009902954102,29.61639165878296 81.30064010620117,31.726694107055664 81.30064010620117,31.726694107055664 81.6162109375,34.075164794921875 81.6162109375,34.075164794921875 81.30066394805908,36.42367124557495 81.30066394805908,36.42367124557495 80.41009902954102,38.53402137756348 80.41009902954102,38.53402137756348 79.02874946594238,40.322017669677734 79.02874946594238,40.322017669677734 77.24075317382812,41.70341491699219 77.24075317382812,41.70341491699219 75.13039112091064,42.59401559829712 75.13039112091064,42.59401559829712 72.78175354003906,42.90962219238281 72.78175354003906,42.90962219238281 70.4332709312439,42.594051361083984 70.4332709312439,42.594051361083984 68.32294464111328,41.70342683792114 68.32294464111328,41.70342683792114 66.53499603271484,40.322017669677734 66.53499603271484,40.322017669677734 65.1536226272583,38.533997535705566 65.1536226272583,38.533997535705566 64.26305770874023,36.42364740371704 64.26305770874023,36.42364740371704 63.947486877441406,34.075164794921875 63.947486877441406,34.075164794921875 64.26305770874023,31.726694107055664 64.26305770874023,31.726694107055664 65.1536226272583,29.616403579711914 65.1536226272583,29.616403579711914 66.53499603271484,27.828502655029297 66.53499603271484,27.828502655029297 68.32294464111328,26.447176933288574 68.32294464111328,26.447176933288574 70.43325901031494,25.556635856628418 70.43325901031494,25.556635856628418" stroke="white" stroke-width="0.1" /></svg>