<?xml version="1.0" encoding="utf-8" ?>
<svg baseProfile="full" height="38.38203251361847" version="1.1" width="100.0" xmlns="http://www.w3.org/2000/svg" xmlns:ev="http://www.w3.org/2001/xml-events" xmlns:xlink="http://www.w3.org/1999/xlink"><defs><clipPath /></defs><polygon points="99.54757690429688,22.202152013778687 99.54757690429688,22.202152013778687 99.66785907745361,22.218316793441772 99.66785907745361,22.218316793441772 99.77591037750244,22.26387858390808 99.77591037750244,22.26387858390808 99.86748695373535,22.334595024585724 99.86748695373535,22.334595024585724 99.93820190429688,22.426123917102814 99.93820190429688,22.426123917102814 99.98383522033691,22.534222900867462 99.98383522033691,22.534222900867462 100.0,22.65457659959793 100.0,22.65457659959793 99.98383522033691,22.77485877275467 99.98383522033691,22.77485877275467 99.93822574615479,22.882933914661407 99.93822574615479,22.882933914661407 99.86748695373535,22.974486649036407 99.86748695373535,22.974486649036407 99.77591037750244,23.04520159959793 99.77591037750244,23.04520159959793 99.6678352355957,23.09081256389618 99.6678352355957,23.09081256389618 99.54757690429688,23.107001185417175 99.54757690429688,23.107001185417175 97.13591933250427,23.107001185417175 97.13591933250427,23.107001185417175 97.13591933250427,23.51536452770233 97.13591933250427,23.51536452770233 97.16879725456238,23.542115092277527 97.16879725456238,23.542115092277527 97.25198149681091,23.618313670158386 97.25198149681091,23.618313670158386 97.36246466636658,23.73802363872528 97.36246466636658,23.73802363872528 97.47709631919861,23.89519065618515 97.47709631919861,23.89519065618515 97.57279753684998,24.083898961544037 97.57279753684998,24.083898961544037 97.62648940086365,24.2981418967247 97.62648940086365,24.2981418967247 97.64036536216736,24.715065956115723 97.64036536216736,24.715065956115723 97.60424494743347,25.41661262512207 97.60424494743347,25.41661262512207 97.47647643089294,26.25425159931183 97.47647643089294,26.25425159931183 97.21536040306091,27.079346776008606 97.21536040306091,27.079346776008606 96.77926898002625,27.743369340896606 96.77926898002625,27.743369340896606 96.1265504360199,28.09777855873108 96.1265504360199,28.09777855873108 95.02297639846802,28.23377251625061 95.02297639846802,28.23377251625061 93.44414472579956,28.34661602973938 93.44414472579956,28.34661602973938 91.66315197944641,28.443747758865356 91.66315197944641,28.443747758865356 89.9529755115509,28.532487154006958 89.9529755115509,28.532487154006958 88.58664035797119,28.620320558547974 88.58664035797119,28.620320558547974 87.83719539642334,28.71461510658264 87.83719539642334,28.71461510658264 87.75780200958252,28.73883843421936 87.75780200958252,28.73883843421936 87.65981197357178,28.771382570266724 87.65981197357178,28.771382570266724 87.54479885101318,28.811627626419067 87.54479885101318,28.811627626419067 87.41426467895508,28.858834505081177 87.41426467895508,28.858834505081177 87.26975917816162,28.912433981895447 87.26975917816162,28.912433981895447 87.11278438568115,28.971728682518005 87.11278438568115,28.971728682518005 86.4609956741333,26.563885807991028 86.4609956741333,26.563885807991028 85.28234362602234,24.423931539058685 85.28234362602234,24.423931539058685 83.6526095867157,22.627682983875275 83.6526095867157,22.627682983875275 81.64745569229126,21.250788867473602 81.64745569229126,21.250788867473602 79.34263348579407,20.369163155555725 79.34263348579407,20.369163155555725 76.81384682655334,20.05847990512848 76.81384682655334,20.05847990512848 74.14426803588867,20.405521988868713 74.14426803588867,20.405521988868713 71.73044085502625,21.386711299419403 71.73044085502625,21.386711299419403 69.66201066970825,22.91247397661209 69.66201066970825,22.91247397661209 68.02862882614136,24.89297389984131 68.02862882614136,24.89297389984131 66.9199526309967,27.23861038684845 66.9199526309967,27.23861038684845 66.42563939094543,29.859599471092224 66.42563939094543,29.859599471092224 63.76793384552002,29.931315779685974 63.76793384552002,29.931315779685974 63.64572048187256,30.179890990257263 63.64572048187256,30.179890990257263 63.33659887313843,30.801260471343994 63.33659887313843,30.801260471343994 62.92695999145508,31.60911798477173 62.92695999145508,31.60911798477173 62.50309944152832,32.41693079471588 62.50309944152832,32.41693079471588 62.151432037353516,33.038321137428284 62.151432037353516,33.038321137428284 61.95824146270752,33.28692018985748 61.95824146270752,33.28692018985748 26.517346501350403,33.28692018985748 26.517346501350403,33.28692018985748 26.433709263801575,33.27910006046295 26.433709263801575,33.27910006046295 26.354172825813293,33.25630724430084 26.354172825813293,33.25630724430084 26.28057301044464,33.21978151798248 26.28057301044464,33.21978151798248 26.2147456407547,33.17057192325592 26.2147456407547,33.17057192325592 26.158514618873596,33.10984671115875 26.158514618873596,33.10984671115875 26.113751530647278,33.03877413272858 26.113751530647278,33.03877413272858 24.808931350708008,30.459269881248474 24.808931350708008,30.459269881248474 23.554083704948425,30.448588728904724 23.554083704948425,30.448588728904724 23.178324103355408,27.68922448158264 23.178324103355408,27.68922448158264 22.12623953819275,25.207972526550293 22.12623953819275,25.207972526550293 20.497527718544006,23.10461699962616 20.497527718544006,23.10461699962616 18.391823768615723,21.478717029094696 18.391823768615723,21.478717029094696 15.908807516098022,20.430150628089905 15.908807516098022,20.430150628089905 13.148142397403717,20.05847990512848 13.148142397403717,20.05847990512848 10.600205510854721,20.374050736427307 10.600205510854721,20.374050736427307 8.28038826584816,21.26898020505905 8.28038826584816,21.26898020505905 6.266224384307861,22.665734589099884 6.266224384307861,22.665734589099884 4.635247588157654,24.486730992794037 4.635247588157654,24.486730992794037 3.4649915993213654,26.65446102619171 3.4649915993213654,26.65446102619171 2.832990325987339,29.09131944179535 2.832990325987339,29.09131944179535 2.4032996967434883,29.046067595481873 2.4032996967434883,29.046067595481873 2.0154396072030067,28.991565108299255 2.0154396072030067,28.991565108299255 1.6803057864308357,28.926977515220642 1.6803057864308357,28.926977515220642 1.4087584801018238,28.85149121284485 1.4087584801018238,28.85149121284485 1.2116932310163975,28.764301538467407 1.2116932310163975,28.764301538467407 1.0999700985848904,28.664642572402954 1.0999700985848904,28.664642572402954 0.9388702921569347,28.327900171279907 0.9388702921569347,28.327900171279907 0.8444205857813358,27.986961603164673 0.8444205857813358,27.986961603164673 0.799967348575592,27.670985460281372 0.799967348575592,27.670985460281372 0.7888451218605042,27.409130334854126 0.7888451218605042,27.409130334854126 0.7943883538246155,27.230671048164368 0.7943883538246155,27.230671048164368 0.7999435067176819,27.164700627326965 0.7999435067176819,27.164700627326965 0.7406963966786861,27.157309651374817 0.7406963966786861,27.157309651374817 0.5925428122282028,27.122119069099426 0.5925428122282028,27.122119069099426 0.39997175335884094,27.039745450019836 0.39997175335884094,27.039745450019836 0.20738879684358835,26.89068615436554 0.20738879684358835,26.89068615436554 0.05924712750129402,26.65558159351349 0.05924712750129402,26.65558159351349 0.0,26.314976811408997 0.0,26.314976811408997 0.026869826251640916,25.951889157295227 0.026869826251640916,25.951889157295227 0.09820479899644852,25.659561157226562 0.09820479899644852,25.659561157226562 0.20010508596897125,25.433874130249023 0.20010508596897125,25.433874130249023 0.318682799115777,25.270676612854004 0.318682799115777,25.270676612854004 0.440038088709116,25.165867805480957 0.440038088709116,25.165867805480957 0.5502711515873671,25.115251541137695 0.5502711515873671,25.115251541137695 0.6098758894950151,25.040268898010254 0.6098758894950151,25.040268898010254 0.6112110335379839,24.881935119628906 0.6112110335379839,24.881935119628906 0.5875837057828903,24.665284156799316 0.5875837057828903,24.665284156799316 0.5723010282963514,24.41525310277939 0.5723010282963514,24.41525310277939 0.5986702162772417,24.156950414180756 0.5986702162772417,24.156950414180756 0.6999982986599207,23.915337026119232 0.6999982986599207,23.915337026119232 0.8486286737024784,23.57766330242157 0.8486286737024784,23.57766330242157 0.9889144450426102,23.08027446269989 0.9889144450426102,23.08027446269989 1.1125347577035427,22.52180129289627 1.1125347577035427,22.52180129289627 1.2111448682844639,22.000783681869507 1.2111448682844639,22.000783681869507 1.2764358893036842,21.615904569625854 1.2764358893036842,21.615904569625854 1.3000513426959515,21.46572321653366 1.3000513426959515,21.46572321653366 1.9498862326145172,21.415750682353973 1.9498862326145172,21.415750682353973 1.9271887838840485,21.026675403118134 1.9271887838840485,21.026675403118134 1.9016897305846214,20.036259293556213 1.9016897305846214,20.036259293556213 1.9372977316379547,18.70979070663452 1.9372977316379547,18.70979070663452 2.097896672785282,17.312440276145935 2.097896672785282,17.312440276145935 2.447383292019367,16.109593212604523 2.447383292019367,16.109593212604523 3.049665503203869,15.366393327713013 3.049665503203869,15.366393327713013 3.7874769419431686,15.051345527172089 3.7874769419431686,15.051345527172089 4.945406690239906,14.652566611766815 4.945406690239906,14.652566611766815 6.276285648345947,14.232972264289856 6.276285648345947,14.232972264289856 7.532920688390732,13.855388760566711 7.532920688390732,13.855388760566711 8.468179404735565,13.582755625247955 8.468179404735565,13.582755625247955 8.834856003522873,13.477922976016998 8.834856003522873,13.477922976016998 8.834856003522873,12.123321741819382 8.834856003522873,12.123321741819382 8.846204727888107,12.039493769407272 8.846204727888107,12.039493769407272 8.878188580274582,11.964010447263718 8.878188580274582,11.964010447263718 8.927743881940842,11.899970471858978 8.927743881940842,11.899970471858978 8.991783112287521,11.850379407405853 8.991783112287521,11.850379407405853 9.067266434431076,11.818407475948334 9.067266434431076,11.818407475948334 9.151094406843185,11.80708259344101 9.151094406843185,11.80708259344101 14.25955593585968,11.80708259344101 14.25955593585968,11.80708259344101 14.346757531166077,11.81795448064804 14.346757531166077,11.81795448064804 14.431741833686829,11.848495900630951 14.431741833686829,11.848495900630951 14.510516822338104,11.895845830440521 14.510516822338104,11.895845830440521 14.579086005687714,11.957024782896042 14.579086005687714,11.957024782896042 14.633457362651825,12.029122561216354 14.633457362651825,12.029122561216354 14.669637382030487,12.10920736193657 14.669637382030487,12.10920736193657 14.78617638349533,12.48476505279541 14.78617638349533,12.48476505279541 15.273195505142212,12.466788291931152 15.273195505142212,12.466788291931152 16.509301960468292,12.413525581359863 16.509301960468292,12.413525581359863 18.15711110830307,12.32593059539795 18.15711110830307,12.32593059539795 19.87922340631485,12.204956263303757 19.87922340631485,12.204956263303757 21.338264644145966,12.051653116941452 21.338264644145966,12.051653116941452 22.19681143760681,11.866973340511322 22.19681143760681,11.866973340511322 23.279115557670593,11.173436790704727 23.279115557670593,11.173436790704727 25.339269638061523,9.729165583848953 25.339269638061523,9.729165583848953 27.93470025062561,7.888975739479065 27.93470025062561,7.888975739479065 30.622828006744385,6.0074444860219955 30.622828006744385,6.0074444860219955 32.96107351779938,4.43938635289669 32.96107351779938,4.43938635289669 34.5068633556366,3.5394735634326935 34.5068633556366,3.5394735634326935 35.58875024318695,3.1364500522613525 35.58875024318695,3.1364500522613525 36.82146072387695,2.8162771835923195 36.82146072387695,2.8162771835923195 38.19167613983154,2.5692272931337357 38.19167613983154,2.5692272931337357 39.68605101108551,2.3854300379753113 39.68605101108551,2.3854300379753113 41.291266679763794,2.255086414515972 41.291266679763794,2.255086414515972 42.99401044845581,2.1684687584638596 42.99401044845581,2.1684687584638596 45.48453390598297,2.0867863669991493 45.48453390598297,2.0867863669991493 48.754140734672546,1.9981421530246735 48.754140734672546,1.9981421530246735 52.27375626564026,1.9122637808322906 52.27375626564026,1.9122637808322906 55.51425218582153,1.8388545140624046 55.51425218582153,1.8388545140624046 57.94653296470642,1.7876897007226944 57.94653296470642,1.7876897007226944 59.04151797294617,1.7684970051050186 59.04151797294617,1.7684970051050186 59.35344099998474,1.7983470112085342 59.35344099998474,1.7983470112085342 59.750813245773315,1.8795287236571312 59.750813245773315,1.8795287236571312 60.17596125602722,1.9996203482151031 60.17596125602722,1.9996203482151031 60.57118773460388,2.146105095744133 60.57118773460388,2.146105095744133 60.87881922721863,2.3065373301506042 60.87881922721863,2.3065373301506042 61.04118824005127,2.4684952571988106 61.04118824005127,2.4684952571988106 61.10854148864746,2.66221072524786 61.10854148864746,2.66221072524786 61.16809844970703,2.9020842164754868 61.16809844970703,2.9020842164754868 61.21790409088135,3.1518518924713135 61.21790409088135,3.1518518924713135 61.25593185424805,3.375178948044777 61.25593185424805,3.375178948044777 61.28021478652954,3.5358257591724396 61.28021478652954,3.5358257591724396 61.28876209259033,3.5974569618701935 61.28876209259033,3.5974569618701935 61.3081693649292,3.586060553789139 61.3081693649292,3.586060553789139 61.3591194152832,3.5547323524951935 61.3591194152832,3.5547323524951935 61.43064498901367,3.5077400505542755 61.43064498901367,3.5077400505542755 61.5118145942688,3.449375182390213 61.5118145942688,3.449375182390213 61.59169673919678,3.3839527517557144 61.59169673919678,3.3839527517557144 61.6593599319458,3.3157411962747574 61.6593599319458,3.3157411962747574 61.72592639923096,3.2040655612945557 61.72592639923096,3.2040655612945557 61.804866790771484,3.0276356264948845 61.804866790771484,3.0276356264948845 61.88864707946777,2.8196627274155617 61.88864707946777,2.8196627274155617 61.96976900100708,2.6131680235266685 61.96976900100708,2.6131680235266685 62.04073429107666,2.441410906612873 62.04073429107666,2.441410906612873 62.09404468536377,2.337460219860077 62.09404468536377,2.337460219860077 62.13867664337158,2.27609109133482 62.13867664337158,2.27609109133482 62.189531326293945,2.2117657586932182 62.189531326293945,2.2117657586932182 62.247562408447266,2.1473925560712814 62.247562408447266,2.1473925560712814 62.31377124786377,2.085832692682743 62.31377124786377,2.085832692682743 62.389183044433594,2.030114270746708 62.389183044433594,2.030114270746708 62.474751472473145,1.9830740988254547 62.474751472473145,1.9830740988254547 62.94150352478027,1.8082892522215843 62.94150352478027,1.8082892522215843 63.96811008453369,1.4358309097588062 63.96811008453369,1.4358309097588062 65.2670681476593,0.9680528193712234 65.2670681476593,0.9680528193712234 66.55085682868958,0.5072126630693674 66.55085682868958,0.5072126630693674 67.53197908401489,0.15571147669106722 67.53197908401489,0.15571147669106722 67.92291402816772,0.01583102421136573 67.92291402816772,0.01583102421136573 67.99226999282837,0.0004768380676978268 67.99226999282837,0.0004768380676978268 68.05273294448853,0.006008159834891558 68.05273294448853,0.006008159834891558 68.101966381073,0.03061300376430154 68.101966381073,0.03061300376430154 68.13768148422241,0.07250322960317135 68.13768148422241,0.07250322960317135 68.1576132774353,0.1298906863667071 68.1576132774353,0.1298906863667071 68.15942525863647,0.20103491842746735 68.15942525863647,0.20103491842746735 68.05223226547241,1.216509286314249 68.05223226547241,1.216509286314249 68.03572177886963,1.2963796965777874 68.03572177886963,1.2963796965777874 68.00433397293091,1.3785149902105331 68.00433397293091,1.3785149902105331 67.96067953109741,1.458766870200634 67.96067953109741,1.458766870200634 67.90734529495239,1.532867457717657 67.90734529495239,1.532867457717657 67.84696578979492,1.5967637300491333 67.84696578979492,1.5967637300491333 67.78215169906616,1.6462357714772224 67.78215169906616,1.6462357714772224 65.81338047981262,2.8616005554795265 65.81338047981262,2.8616005554795265 65.9609854221344,2.8839167207479477 65.9609854221344,2.8839167207479477 66.09370112419128,2.941923961043358 66.09370112419128,2.941923961043358 66.20622277259827,3.0304251238703728 66.20622277259827,3.0304251238703728 66.29318594932556,3.1441032886505127 66.29318594932556,3.1441032886505127 66.34929776191711,3.277713432908058 66.34929776191711,3.277713432908058 66.36918187141418,3.4259863197803497 66.36918187141418,3.4259863197803497 66.36918187141418,3.9074018597602844 66.36918187141418,3.9074018597602844 66.5628969669342,3.9112403988838196 66.5628969669342,3.9112403988838196 66.7797863483429,3.9203479886054993 66.7797863483429,3.9203479886054993 67.0161783695221,3.9363935589790344 67.0161783695221,3.9363935589790344 67.26841926574707,3.960926830768585 67.26841926574707,3.960926830768585 67.53283739089966,3.9956167340278625 67.53283739089966,3.9956167340278625 67.80580282211304,4.042061045765877 67.80580282211304,4.042061045765877 68.1050181388855,4.107912257313728 68.1050181388855,4.107912257313728 68.40587854385376,4.191382601857185 68.40587854385376,4.191382601857185 68.70354413986206,4.296430200338364 68.70354413986206,4.296430200338364 68.99315118789673,4.426821693778038 68.99315118789673,4.426821693778038 69.26988363265991,4.586490616202354 69.26988363265991,4.586490616202354 69.52890157699585,4.779252409934998 69.52890157699585,4.779252409934998 69.6183443069458,4.8613641411066055 69.6183443069458,4.8613641411066055 69.70759630203247,4.952273145318031 69.70759630203247,4.952273145318031 69.79755163192749,5.052075535058975 69.79755163192749,5.052075535058975 69.88908052444458,5.160818248987198 69.88908052444458,5.160818248987198 69.98310089111328,5.278573557734489 69.98310089111328,5.278573557734489 70.08050680160522,5.405436456203461 70.08050680160522,5.405436456203461 70.18054723739624,5.540738999843597 70.18054723739624,5.540738999843597 70.28336524963379,5.684195831418037 70.28336524963379,5.684195831418037 70.38878798484802,5.835377424955368 70.38878798484802,5.835377424955368 70.49664855003357,5.9937115758657455 70.49664855003357,5.9937115758657455 70.60679793357849,6.158816814422607 70.60679793357849,6.158816814422607 70.71909308433533,6.33012056350708 70.71909308433533,6.33012056350708 70.948725938797,6.689298897981644 70.948725938797,6.689298897981644 71.18373513221741,7.066740095615387 71.18373513221741,7.066740095615387 71.42195105552673,7.45786651968956 71.42195105552673,7.45786651968956 71.66116833686829,7.858005166053772 71.66116833686829,7.858005166053772 71.89924120903015,8.262578397989273 71.89924120903015,8.262578397989273 72.13396430015564,8.667008578777313 72.13396430015564,8.667008578777313 72.39465117454529,9.122436493635178 72.39465117454529,9.122436493635178 72.64458537101746,9.564226865768433 72.64458537101746,9.564226865768433 72.88040518760681,9.985370934009552 72.88040518760681,9.985370934009552 73.09872508049011,10.37876233458519 73.09872508049011,10.37876233458519 73.29621911048889,10.73741540312767 73.29621911048889,10.73741540312767 73.46949577331543,11.054250597953796 73.46949577331543,11.054250597953796 78.65152955055237,10.988757014274597 78.65152955055237,10.988757014274597 83.94028544425964,10.923072695732117 83.94028544425964,10.923072695732117 88.87698650360107,10.865136981010437 88.87698650360107,10.865136981010437 93.00273656845093,10.82286536693573 93.00273656845093,10.82286536693573 95.85866332054138,10.804316401481628 95.85866332054138,10.804316401481628 96.98600172996521,10.817357897758484 96.98600172996521,10.817357897758484 97.11048007011414,10.902425646781921 97.11048007011414,10.902425646781921 97.14886546134949,11.048623919487 97.14886546134949,11.048623919487 97.12342619895935,11.242077499628067 97.12342619895935,11.242077499628067 97.05631136894226,11.468837410211563 97.05631136894226,11.468837410211563 96.9697892665863,11.715100705623627 96.9697892665863,11.715100705623627 96.88605666160583,11.966919153928757 96.88605666160583,11.966919153928757 96.82657122612,12.218355387449265 96.82657122612,12.218355387449265 96.79340720176697,12.461352348327637 96.79340720176697,12.461352348327637 96.77967429161072,12.679362297058105 96.77967429161072,12.679362297058105 96.77841067314148,12.8556489944458 96.77841067314148,12.8556489944458 96.78274989128113,12.973667681217194 96.78274989128113,12.973667681217194 96.7857301235199,13.016726076602936 96.7857301235199,13.016726076602936 96.83040976524353,13.072992861270905 96.83040976524353,13.072992861270905 96.94313406944275,13.233400881290436 96.94313406944275,13.233400881290436 97.09200263023376,13.485480844974518 97.09200263023376,13.485480844974518 97.24501967430115,13.816717267036438 97.24501967430115,13.816717267036438 97.37023711204529,14.214661717414856 97.37023711204529,14.214661717414856 97.4357545375824,14.666776359081268 97.4357545375824,14.666776359081268 97.44066596031189,14.945630729198456 97.44066596031189,14.945630729198456 97.43377566337585,15.336591005325317 97.43377566337585,15.336591005325317 97.41706252098083,15.816932916641235 97.41706252098083,15.816932916641235 97.39245772361755,16.36374741792679 97.39245772361755,16.36374741792679 97.36191630363464,16.954311728477478 97.36191630363464,16.954311728477478 97.32741713523865,17.565760016441345 97.32741713523865,17.565760016441345 99.22981262207031,20.08174955844879 99.22981262207031,20.08174955844879 99.26319122314453,20.132580399513245 99.26319122314453,20.132580399513245 99.28920269012451,20.18689215183258 99.28920269012451,20.18689215183258 99.30768013000488,20.243945717811584 99.30768013000488,20.243945717811584 99.31840896606445,20.3029066324234 99.31840896606445,20.3029066324234 99.32126998901367,20.363131165504456 99.32126998901367,20.363131165504456 99.31602478027344,20.423737168312073 99.31602478027344,20.423737168312073 99.30288791656494,20.48307955265045 99.30288791656494,20.48307955265045 99.28202629089355,20.5395370721817 99.28202629089355,20.5395370721817 99.25394058227539,20.59248983860016 99.25394058227539,20.59248983860016 99.21903610229492,20.641222596168518 99.21903610229492,20.641222596168518 99.17778968811035,20.685210824012756 99.17778968811035,20.685210824012756 99.13063049316406,20.7237645983696 99.13063049316406,20.7237645983696 97.13591933250427,22.13844656944275 97.13591933250427,22.13844656944275 97.13591933250427,22.202152013778687 97.13591933250427,22.202152013778687" stroke="white" stroke-width="0.1" /><polygon points="33.13795626163483,32.38188326358795 33.13795626163483,32.38188326358795 55.33782243728638,32.38188326358795 55.33782243728638,32.38188326358795 55.0883412361145,30.386027693748474 55.0883412361145,30.386027693748474 52.37923264503479,30.454429984092712 52.37923264503479,30.454429984092712 49.0885466337204,30.499517917633057 49.0885466337204,30.499517917633057 45.37934362888336,30.524718761444092 45.37934362888336,30.524718761444092 41.414675116539,30.53337335586548 41.414675116539,30.53337335586548 37.3576283454895,30.52893877029419 37.3576283454895,30.52893877029419 33.371224999427795,30.514776706695557 33.371224999427795,30.514776706695557" stroke="white" stroke-width="0.1" /><polygon points="49.942874908447266,11.71724647283554 49.942874908447266,11.71724647283554 50.472140312194824,11.737392842769623 50.472140312194824,11.737392842769623 51.611047983169556,11.744998395442963 51.611047983169556,11.744998395442963 53.06101441383362,11.735962331295013 53.06101441383362,11.735962331295013 54.52349781990051,11.706040799617767 54.52349781990051,11.706040799617767 55.69998025894165,11.651180684566498 55.69998025894165,11.651180684566498 56.29187822341919,11.567138135433197 56.29187822341919,11.567138135433197 56.514549255371094,11.481211334466934 56.514549255371094,11.481211334466934 56.75666332244873,11.363384872674942 56.75666332244873,11.363384872674942 56.979334354400635,11.12336814403534 56.979334354400635,11.12336814403534 57.14366436004639,10.670872777700424 57.14366436004639,10.670872777700424 57.21076726913452,9.915751963853836 57.21076726913452,9.915751963853836 57.14179277420044,8.767716586589813 57.14179277420044,8.767716586589813 56.97307586669922,7.405629009008408 56.97307586669922,7.405629009008408 56.782567501068115,6.119858846068382 56.782567501068115,6.119858846068382 56.59364461898804,4.986868053674698 56.59364461898804,4.986868053674698 56.42973184585571,4.082949832081795 56.42973184585571,4.082949832081795 56.314218044281006,3.4846611320972443 56.314218044281006,3.4846611320972443 56.27051591873169,3.268248215317726 56.27051591873169,3.268248215317726 49.79276657104492,3.5183019936084747 49.79276657104492,3.5183019936084747 49.78652000427246,4.122169688344002 49.78652000427246,4.122169688344002 49.77611303329468,5.6327927857637405 49.77611303329468,5.6327927857637405 49.77405071258545,7.598962634801865 49.77405071258545,7.598962634801865 49.79281425476074,9.569281339645386 49.79281425476074,9.569281339645386 49.844932556152344,11.092469096183777 49.844932556152344,11.092469096183777" stroke="white" stroke-width="0.1" /><polygon points="61.68015003204346,32.38188326358795 61.68015003204346,32.38188326358795 63.013386726379395,29.746684432029724 63.013386726379395,29.746684432029724 62.44552135467529,29.801949858665466 62.44552135467529,29.801949858665466 61.745452880859375,29.868611693382263 61.745452880859375,29.868611693382263 60.90161204338074,29.94745671749115 60.90161204338074,29.94745671749115 59.902411699295044,30.03920018672943 59.902411699295044,30.03920018672943 58.73629450798035,30.144652724266052 58.73629450798035,30.144652724266052 57.39165544509888,30.264529585838318 57.39165544509888,30.264529585838318 57.201457023620605,30.28026521205902 57.201457023620605,30.28026521205902 56.993567943573,30.29542863368988 56.993567943573,30.29542863368988 56.76854848861694,30.310019850730896 56.76854848861694,30.310019850730896 56.526875495910645,30.323991179466248 56.526875495910645,30.323991179466248 56.269073486328125,30.337461829185486 56.269073486328125,30.337461829185486 55.99566698074341,30.35036027431488 55.99566698074341,30.35036027431488 56.24953508377075,32.38188326358795 56.24953508377075,32.38188326358795 56.3029408454895,32.38188326358795 56.3029408454895,32.38188326358795" stroke="white" stroke-width="0.1" /><polygon points="66.36918187141418,4.812440648674965 66.36918187141418,4.812440648674965 66.36918187141418,7.53575786948204 66.36918187141418,7.53575786948204 70.40972113609314,7.53575786948204 70.40972113609314,7.53575786948204 70.21845579147339,7.228054851293564 70.21845579147339,7.228054851293564 70.03164291381836,6.933797895908356 70.03164291381836,6.933797895908356 69.85071897506714,6.655896455049515 69.85071897506714,6.655896455049515 69.67705488204956,6.39725923538208 69.67705488204956,6.39725923538208 69.51209306716919,6.16077184677124 69.51209306716919,6.16077184677124 69.35724020004272,5.949413031339645 69.35724020004272,5.949413031339645 69.27101612091064,5.836545675992966 69.27101612091064,5.836545675992966 69.18954849243164,5.73488362133503 69.18954849243164,5.73488362133503 69.11429166793823,5.6457627564668655 69.11429166793823,5.6457627564668655 69.04667615890503,5.570398643612862 69.04667615890503,5.570398643612862 68.98820400238037,5.510149896144867 68.98820400238037,5.510149896144867 68.94029378890991,5.466280877590179 68.94029378890991,5.466280877590179 68.77673864364624,5.343781039118767 68.77673864364624,5.343781039118767 68.58450174331665,5.2341800183057785 68.58450174331665,5.2341800183057785 68.36889982223511,5.137787014245987 68.36889982223511,5.137787014245987 68.13526153564453,5.054888874292374 68.13526153564453,5.054888874292374 67.88896322250366,4.985819011926651 67.88896322250366,4.985819011926651 67.6352858543396,4.930886998772621 67.6352858543396,4.930886998772621 67.4010157585144,4.890880361199379 67.4010157585144,4.890880361199379 67.17050671577454,4.8606012016534805 67.17050671577454,4.8606012016534805 66.94794297218323,4.838833585381508 66.94794297218323,4.838833585381508 66.73741936683655,4.824337735772133 66.73741936683655,4.824337735772133 66.54313206672668,4.815993085503578 66.54313206672668,4.815993085503578" stroke="white" stroke-width="0.1" /><polygon points="66.36918187141418,11.141035705804825 66.36918187141418,11.141035705804825 67.22782850265503,11.13118827342987 67.22782850265503,11.13118827342987 68.15654039382935,11.120197176933289 68.15654039382935,11.120197176933289 69.1489577293396,11.10820472240448 69.1489577293396,11.10820472240448 70.19871473312378,11.095258593559265 70.19871473312378,11.095258593559265 71.29947543144226,11.081597208976746 71.29947543144226,11.081597208976746 72.44486212730408,11.067220568656921 72.44486212730408,11.067220568656921 72.33335375785828,10.864660143852234 72.33335375785828,10.864660143852234 72.21513390541077,10.650917142629623 72.21513390541077,10.650917142629623 72.09081053733826,10.427256673574448 72.09081053733826,10.427256673574448 71.9609797000885,10.194893181324005 71.9609797000885,10.194893181324005 71.82626128196716,9.955114871263504 71.82626128196716,9.955114871263504 71.68726325035095,9.709186106920242 71.68726325035095,9.709186106920242 71.56948447227478,9.501999616622925 71.56948447227478,9.501999616622925 71.44946455955505,9.292072057723999 71.44946455955505,9.292072057723999 71.32758498191833,9.080236405134201 71.32758498191833,9.080236405134201 71.20420336723328,8.867161720991135 71.20420336723328,8.867161720991135 71.07970118522644,8.653609454631805 71.07970118522644,8.653609454631805 70.95445990562439,8.440415561199188 70.95445990562439,8.440415561199188 66.36918187141418,8.440415561199188 66.36918187141418,8.440415561199188" stroke="white" stroke-width="0.1" /><polygon points="37.6021146774292,4.632768034934998 37.6021146774292,4.632768034934998 36.17193400859833,5.227885767817497 36.17193400859833,5.227885767817497 34.51458811759949,6.047284230589867 34.51458811759949,6.047284230589867 32.84732401371002,6.942714750766754 32.84732401371002,6.942714750766754 31.387412548065186,7.765856385231018 31.387412548065186,7.765856385231018 30.352148413658142,8.368507772684097 30.352148413658142,8.368507772684097 29.958781599998474,8.60234946012497 29.958781599998474,8.60234946012497 29.958781599998474,13.611628115177155 29.958781599998474,13.611628115177155 31.976759433746338,13.611628115177155 31.976759433746338,13.611628115177155 34.60776209831238,13.351275026798248 34.60776209831238,13.351275026798248 37.75298595428467,12.022613734006882 37.75298595428467,12.022613734006882 44.64367926120758,11.966919153928757 44.64367926120758,11.966919153928757 44.68100368976593,11.681483685970306 44.68100368976593,11.681483685970306 44.7758823633194,10.94658076763153 44.7758823633194,10.94658076763153 44.90267336368561,9.944624453783035 44.90267336368561,9.944624453783035 45.03573477268219,8.857791870832443 45.03573477268219,8.857791870832443 45.149460434913635,7.86844789981842 45.149460434913635,7.86844789981842 45.218172669410706,7.158865034580231 45.218172669410706,7.158865034580231 45.2388197183609,6.573594361543655 45.2388197183609,6.573594361543655 45.23221552371979,5.8951012790203094 45.23221552371979,5.8951012790203094 45.208826661109924,5.212436243891716 45.208826661109924,5.212436243891716 45.17914354801178,4.614552855491638 45.17914354801178,4.614552855491638 45.15365660190582,4.19057197868824 45.15365660190582,4.19057197868824 45.14283239841461,4.029472544789314 45.14283239841461,4.029472544789314 44.75708305835724,4.0139514952898026 44.75708305835724,4.0139514952898026 43.740832805633545,3.9931371808052063 43.740832805633545,3.9931371808052063 42.30566918849945,4.00589294731617 42.30566918849945,4.00589294731617 40.66311717033386,4.090865328907967 40.66311717033386,4.090865328907967 39.024749398231506,4.2869411408901215 39.024749398231506,4.2869411408901215" stroke="white" stroke-width="0.1" /><polygon points="32.22605288028717,32.38188326358795 32.22605288028717,32.38188326358795 32.45989382266998,30.510389804840088 32.45989382266998,30.510389804840088 31.254935264587402,30.504047870635986 31.254935264587402,30.504047870635986 30.082830786705017,30.49718141555786 30.082830786705017,30.49718141555786 28.948792815208435,30.490005016326904 28.948792815208435,30.490005016326904 27.858000993728638,30.482542514801025 27.858000993728638,30.482542514801025 26.815703511238098,30.475008487701416 26.815703511238098,30.475008487701416 25.82707703113556,30.467471480369568 25.82707703113556,30.467471480369568 26.795628666877747,32.38188326358795 26.795628666877747,32.38188326358795 32.1728378534317,32.38188326358795 32.1728378534317,32.38188326358795" stroke="white" stroke-width="0.1" /><polygon points="97.24158644676208,18.952786922454834 97.24158644676208,18.952786922454834 97.24158644676208,21.02913111448288 97.24158644676208,21.02913111448288 98.22654128074646,20.24177610874176 98.22654128074646,20.24177610874176" stroke="white" stroke-width="0.1" /><polygon points="64.55948948860168,11.160299926996231 64.55948948860168,11.160299926996231 64.55948948860168,3.6356043070554733 64.55948948860168,3.6356043070554733 61.61911487579346,5.450640618801117 61.61911487579346,5.450640618801117 62.79098987579346,11.167166382074356 62.79098987579346,11.167166382074356" stroke="white" stroke-width="0.1" /><polygon points="84.73126292228699,30.464419722557068 84.73126292228699,30.464419722557068 84.44845080375671,32.56920874118805 84.44845080375671,32.56920874118805 83.65032076835632,34.46058630943298 83.65032076835632,34.46058630943298 82.41235017776489,36.063024401664734 82.41235017776489,36.063024401664734 80.80998659133911,37.301039695739746 80.80998659133911,37.301039695739746 78.91865372657776,38.09921741485596 78.91865372657776,38.09921741485596 76.81384682655334,38.38203251361847 76.81384682655334,38.38203251361847 74.70898628234863,38.09919357299805 74.70898628234863,38.09919357299805 72.81760573387146,37.301015853881836 72.81760573387146,37.301015853881836 71.21514678001404,36.063024401664734 71.21514678001404,36.063024401664734 69.97706890106201,34.460610151290894 69.97706890106201,34.460610151290894 69.17887926101685,32.56925642490387 69.17887926101685,32.56925642490387 68.89604330062866,30.464419722557068 68.89604330062866,30.464419722557068 69.17887926101685,28.359562158584595 69.17887926101685,28.359562158584595 69.97705698013306,26.46818459033966 69.97705698013306,26.46818459033966 71.21514678001404,24.86581802368164 71.21514678001404,24.86581802368164 72.81760573387146,23.62777888774872 72.81760573387146,23.62777888774872 74.70901012420654,22.82964736223221 74.70901012420654,22.82964736223221 76.81384682655334,22.546811401844025 76.81384682655334,22.546811401844025 78.91865372657776,22.829599678516388 78.91865372657776,22.829599678516388 80.8099627494812,23.627755045890808 80.8099627494812,23.627755045890808 82.41235017776489,24.86581802368164 82.41235017776489,24.86581802368164 83.65032076835632,26.46823227405548 83.65032076835632,26.46823227405548 84.44845080375671,28.359609842300415 84.44845080375671,28.359609842300415" stroke="white" stroke-width="0.1" /><polygon points="21.06575220823288,30.464419722557068 21.06575220823288,30.464419722557068 20.78292816877365,32.56920874118805 20.78292816877365,32.56920874118805 19.984760880470276,34.46058630943298 19.984760880470276,34.46058630943298 18.746745586395264,36.063024401664734 18.746745586395264,36.063024401664734 17.14431941509247,37.301039695739746 17.14431941509247,37.301039695739746 15.252965688705444,38.09921741485596 15.252965688705444,38.09921741485596 13.148142397403717,38.38203251361847 13.148142397403717,38.38203251361847 11.04339063167572,38.09919357299805 11.04339063167572,38.09919357299805 9.152048081159592,37.301015853881836 9.152048081159592,37.301015853881836 7.549609988927841,36.063024401664734 7.549609988927841,36.063024401664734 6.311559677124023,34.460610151290894 6.311559677124023,34.460610151290894 5.513368546962738,32.56925642490387 5.513368546962738,32.56925642490387 5.230532214045525,30.464419722557068 5.230532214045525,30.464419722557068 5.513368546962738,28.359562158584595 5.513368546962738,28.359562158584595 6.311547756195068,26.46818459033966 6.311547756195068,26.46818459033966 7.549609988927841,24.86581802368164 7.549609988927841,24.86581802368164 9.152048081159592,23.62777888774872 9.152048081159592,23.62777888774872 11.04339063167572,22.82964736223221 11.04339063167572,22.82964736223221 13.148142397403717,22.546811401844025 13.148142397403717,22.546811401844025 15.25295376777649,22.829599678516388 15.25295376777649,22.829599678516388 17.14431941509247,23.627755045890808 17.14431941509247,23.627755045890808 18.746745586395264,24.86581802368164 18.746745586395264,24.86581802368164 19.98477280139923,26.46823227405548 19.98477280139923,26.46823227405548 20.78292816877365,28.359609842300415 20.78292816877365,28.359609842300415" stroke="white" stroke-width="0.1" /></svg>