<?xml version="1.0" encoding="utf-8" ?>
<svg baseProfile="full" height="44.04563903808594" version="1.1" width="99.9849796295166" xmlns="http://www.w3.org/2000/svg" xmlns:ev="http://www.w3.org/2001/xml-events" xmlns:xlink="http://www.w3.org/1999/xlink"><defs><clipPath /></defs><polygon points="97.87883758544922,12.541580200195312 97.87883758544922,12.541580200195312 98.40354919433594,13.347244262695312 98.40354919433594,13.347244262695312 98.93839359283447,14.472556114196777 98.93839359283447,14.472556114196777 99.42154884338379,15.87686538696289 99.42154884338379,15.87686538696289 99.79102611541748,17.519521713256836 99.79102611541748,17.519521713256836 99.9849796295166,19.359898567199707 99.9849796295166,19.359898567199707 99.94144439697266,21.357345581054688 99.94144439697266,21.357345581054688 99.64933395385742,23.206329345703125 99.64933395385742,23.206329345703125 99.20096397399902,24.648618698120117 99.20096397399902,24.648618698120117 98.68979454040527,25.71568489074707 98.68979454040527,25.71568489074707 98.2090711593628,26.43895149230957 98.2090711593628,26.43895149230957 97.85218238830566,26.849842071533203 97.85218238830566,26.849842071533203 97.71251678466797,26.979827880859375 97.71251678466797,26.979827880859375 97.18036651611328,27.545166015625 97.18036651611328,27.545166015625 97.14717864990234,29.008865356445312 97.14717864990234,29.008865356445312 95.51715850830078,29.141998291015625 95.51715850830078,29.141998291015625 93.96533966064453,29.985809326171875 93.96533966064453,29.985809326171875 92.88756847381592,27.69460678100586 92.88756847381592,27.69460678100586 91.38331413269043,25.68802833557129 91.38331413269043,25.68802833557129 89.5113468170166,24.02496337890625 89.5113468170166,24.02496337890625 87.33038902282715,22.764205932617188 87.33038902282715,22.764205932617188 84.89930629730225,21.964621543884277 84.89930629730225,21.964621543884277 82.27672576904297,21.685028076171875 82.27672576904297,21.685028076171875 78.98941040039062,22.12803363800049 78.98941040039062,22.12803363800049 76.03306770324707,23.37772846221924 76.03306770324707,23.37772846221924 73.5267162322998,25.315237045288086 73.5267162322998,25.315237045288086 71.58918380737305,27.82158851623535 71.58918380737305,27.82158851623535 70.3394889831543,30.777907371520996 70.3394889831543,30.777907371520996 69.8965072631836,34.06524658203125 69.8965072631836,34.06524658203125 69.89712715148926,34.182047843933105 69.89712715148926,34.182047843933105 69.8988676071167,34.29856300354004 69.8988676071167,34.29856300354004 69.90175247192383,34.41481590270996 69.90175247192383,34.41481590270996 69.905686378479,34.53078269958496 69.905686378479,34.53078269958496 69.91069316864014,34.64643955230713 69.91069316864014,34.64643955230713 69.9167251586914,34.761810302734375 69.9167251586914,34.761810302734375 68.26417446136475,34.66994762420654 68.26417446136475,34.66994762420654 66.66412353515625,34.58437919616699 66.66412353515625,34.58437919616699 65.18468856811523,34.5097541809082 65.18468856811523,34.5097541809082 63.893866539001465,34.450674057006836 63.893866539001465,34.450674057006836 62.85977363586426,34.4118595123291 62.85977363586426,34.4118595123291 62.15038299560547,34.39788818359375 62.15038299560547,34.39788818359375 59.870219230651855,34.38291549682617 59.870219230651855,34.38291549682617 55.785346031188965,34.349894523620605 55.785346031188965,34.349894523620605 50.685834884643555,34.31692123413086 50.685834884643555,34.31692123413086 45.36170959472656,34.30190086364746 45.36170959472656,34.30190086364746 40.603089332580566,34.32290554046631 40.603089332580566,34.32290554046631 37.199974060058594,34.39788818359375 37.199974060058594,34.39788818359375 36.58730983734131,34.38868522644043 36.58730983734131,34.38868522644043 35.048747062683105,34.36837196350098 35.048747062683105,34.36837196350098 33.03337097167969,34.348106384277344 33.03337097167969,34.348106384277344 30.990266799926758,34.3388557434082 30.990266799926758,34.3388557434082 29.36851978302002,34.35177803039551 29.36851978302002,34.35177803039551 28.617286682128906,34.39788818359375 28.617286682128906,34.39788818359375 28.513526916503906,34.42723751068115 28.513526916503906,34.42723751068115 28.306245803833008,34.474992752075195 28.306245803833008,34.474992752075195 28.006887435913086,34.539079666137695 28.006887435913086,34.539079666137695 27.626705169677734,34.61742401123047 27.626705169677734,34.61742401123047 27.177143096923828,34.70797538757324 27.177143096923828,34.70797538757324 26.66950225830078,34.80873107910156 26.66950225830078,34.80873107910156 26.676368713378906,34.685564041137695 26.676368713378906,34.685564041137695 26.682090759277344,34.562063217163086 26.682090759277344,34.562063217163086 26.686620712280273,34.438276290893555 26.686620712280273,34.438276290893555 26.689887046813965,34.31417942047119 26.689887046813965,34.31417942047119 26.691889762878418,34.18984413146973 26.691889762878418,34.18984413146973 26.692581176757812,34.06524658203125 26.692581176757812,34.06524658203125 26.24959945678711,30.777931213378906 26.24959945678711,30.777931213378906 24.99985694885254,27.82158851623535 24.99985694885254,27.82158851623535 23.0623722076416,25.315237045288086 23.0623722076416,25.315237045288086 20.555973052978516,23.377704620361328 20.555973052978516,23.377704620361328 17.59967803955078,22.128009796142578 17.59967803955078,22.128009796142578 14.312362670898438,21.685028076171875 14.312362670898438,21.685028076171875 11.394071578979492,22.032475471496582 11.394071578979492,22.032475471496582 8.72335433959961,23.020124435424805 8.72335433959961,23.020124435424805 6.382036209106445,24.566030502319336 6.382036209106445,24.566030502319336 4.452037811279297,26.58822536468506 4.452037811279297,26.58822536468506 3.015255928039551,29.004764556884766 3.015255928039551,29.004764556884766 2.1535873413085938,31.73370361328125 2.1535873413085938,31.73370361328125 1.7199993133544922,31.325316429138184 1.7199993133544922,31.325316429138184 1.2676239013671875,30.930495262145996 1.2676239013671875,30.930495262145996 0.839996337890625,30.551958084106445 0.839996337890625,30.551958084106445 0.48065185546875,30.19237518310547 0.48065185546875,30.19237518310547 0.2331256866455078,29.854512214660645 0.2331256866455078,29.854512214660645 0.14095306396484375,29.541015625 0.14095306396484375,29.541015625 0.12214183807373047,29.210233688354492 0.12214183807373047,29.210233688354492 0.07925033569335938,28.890514373779297 0.07925033569335938,28.890514373779297 0.03268718719482422,28.592967987060547 0.03268718719482422,28.592967987060547 0.0027179718017578125,28.328657150268555 0.0027179718017578125,28.328657150268555 0.009775161743164062,28.108716011047363 0.009775161743164062,28.108716011047363 0.07419586181640625,27.944183349609375 0.07419586181640625,27.944183349609375 0.1973867416381836,27.829408645629883 0.1973867416381836,27.829408645629883 0.350189208984375,27.734899520874023 0.350189208984375,27.734899520874023 0.5067110061645508,27.63667106628418 0.5067110061645508,27.63667106628418 0.6410360336303711,27.510666847229004 0.6410360336303711,27.510666847229004 0.7273197174072266,27.33292579650879 0.7273197174072266,27.33292579650879 0.7396697998046875,27.079391479492188 0.7396697998046875,27.079391479492188 0.6838798522949219,26.639318466186523 0.6838798522949219,26.639318466186523 0.6040573120117188,25.99778175354004 0.6040573120117188,25.99778175354004 0.5316495895385742,25.27484893798828 0.5316495895385742,25.27484893798828 0.49805641174316406,24.590682983398438 0.49805641174316406,24.590682983398438 0.5347251892089844,24.065470695495605 0.5347251892089844,24.065470695495605 0.6731033325195312,23.819351196289062 0.6731033325195312,23.819351196289062 0.924992561340332,23.718905448913574 0.924992561340332,23.718905448913574 1.2471199035644531,23.57039451599121 1.2471199035644531,23.57039451599121 1.5877723693847656,23.403406143188477 1.5877723693847656,23.403406143188477 1.8951416015625,23.247480392456055 1.8951416015625,23.247480392456055 2.1175384521484375,23.13227653503418 2.1175384521484375,23.13227653503418 2.2031784057617188,23.087310791015625 2.2031784057617188,23.087310791015625 2.1345138549804688,23.055267333984375 2.1345138549804688,23.055267333984375 1.9641876220703125,22.964048385620117 1.9641876220703125,22.964048385620117 1.7457962036132812,22.82109260559082 1.7457962036132812,22.82109260559082 1.5329360961914062,22.633790969848633 1.5329360961914062,22.633790969848633 1.3792037963867188,22.409534454345703 1.3792037963867188,22.409534454345703 1.33819580078125,22.15576171875 1.33819580078125,22.15576171875 1.3721466064453125,21.69177532196045 1.3721466064453125,21.69177532196045 1.431894302368164,20.926427841186523 1.431894302368164,20.926427841186523 1.5544652938842773,20.002079010009766 1.5544652938842773,20.002079010009766 1.7767906188964844,19.060993194580078 1.7767906188964844,19.060993194580078 2.1359920501708984,18.245482444763184 2.1359920501708984,18.245482444763184 2.6689529418945312,17.697906494140625 2.6689529418945312,17.697906494140625 3.5782814025878906,17.23349094390869 3.5782814025878906,17.23349094390869 4.9533843994140625,16.62116050720215 4.9533843994140625,16.62116050720215 6.661128997802734,15.934896469116211 6.661128997802734,15.934896469116211 8.568429946899414,15.248560905456543 8.568429946899414,15.248560905456543 10.54224967956543,14.63618278503418 10.54224967956543,14.63618278503418 12.449455261230469,14.171600341796875 12.449455261230469,14.171600341796875 14.331221580505371,13.848590850830078 14.331221580505371,13.848590850830078 16.214823722839355,13.604998588562012 16.214823722839355,13.604998588562012 17.946863174438477,13.431644439697266 17.946863174438477,13.431644439697266 19.37391757965088,13.319253921508789 19.37391757965088,13.319253921508789 20.342683792114258,13.258600234985352 20.342683792114258,13.258600234985352 20.699691772460938,13.240432739257812 20.699691772460938,13.240432739257812 20.7150936126709,13.15600872039795 20.7150936126709,13.15600872039795 20.778512954711914,12.942171096801758 20.778512954711914,12.942171096801758 20.915913581848145,12.658119201660156 20.915913581848145,12.658119201660156 21.15311622619629,12.362957000732422 21.15311622619629,12.362957000732422 21.516084671020508,12.115955352783203 21.516084671020508,12.115955352783203 22.0306396484375,11.976242065429688 22.0306396484375,11.976242065429688 22.777605056762695,11.886906623840332 22.777605056762695,11.886906623840332 23.72593879699707,11.771750450134277 23.72593879699707,11.771750450134277 24.733448028564453,11.660289764404297 24.733448028564453,11.660289764404297 25.65774917602539,11.582088470458984 25.65774917602539,11.582088470458984 26.35664939880371,11.566662788391113 26.35664939880371,11.566662788391113 26.68781280517578,11.643600463867188 26.68781280517578,11.643600463867188 26.78658962249756,11.790156364440918 26.78658962249756,11.790156364440918 26.87983512878418,11.951541900634766 26.87983512878418,11.951541900634766 26.96206569671631,12.10932731628418 26.96206569671631,12.10932731628418 27.02765464782715,12.244915962219238 27.02765464782715,12.244915962219238 27.071094512939453,12.33987808227539 27.071094512939453,12.33987808227539 27.086830139160156,12.375640869140625 27.086830139160156,12.375640869140625 27.416110038757324,11.81933879852295 27.416110038757324,11.81933879852295 28.257346153259277,10.409140586853027 28.257346153259277,10.409140586853027 29.390597343444824,8.533191680908203 29.390597343444824,8.533191680908203 30.595898628234863,6.57958984375 30.595898628234863,6.57958984375 31.653380393981934,4.936528205871582 31.653380393981934,4.936528205871582 32.343101501464844,3.9920806884765625 32.343101501464844,3.9920806884765625 32.72554874420166,3.545093536376953 32.72554874420166,3.545093536376953 33.03046226501465,3.1443119049072266 33.03046226501465,3.1443119049072266 33.291053771972656,2.8026580810546875 33.291053771972656,2.8026580810546875 33.54058265686035,2.533102035522461 33.54058265686035,2.533102035522461 33.81228446960449,2.348613739013672 33.81228446960449,2.348613739013672 34.139442443847656,2.262115478515625 34.139442443847656,2.262115478515625 34.470415115356445,2.2298336029052734 34.470415115356445,2.2298336029052734 34.735774993896484,2.203035354614258 34.735774993896484,2.203035354614258 34.942030906677246,2.1872997283935547 34.942030906677246,2.1872997283935547 35.09559631347656,2.1881818771362305 35.09559631347656,2.1881818771362305 35.202980041503906,2.2112607955932617 35.202980041503906,2.2112607955932617 35.27069091796875,2.262115478515625 35.27069091796875,2.262115478515625 35.31227111816406,2.3380279541015625 35.31227111816406,2.3380279541015625 35.35940647125244,2.424907684326172 35.35940647125244,2.424907684326172 35.445356369018555,2.5116920471191406 35.445356369018555,2.5116920471191406 35.60335636138916,2.5873184204101562 35.60335636138916,2.5873184204101562 35.866689682006836,2.640843391418457 35.866689682006836,2.640843391418457 36.26861572265625,2.6611328125 36.26861572265625,2.6611328125 37.6631498336792,2.6340484619140625 37.6631498336792,2.6340484619140625 40.405988693237305,2.566385269165039 40.405988693237305,2.566385269165039 43.782782554626465,2.4784088134765625 43.782782554626465,2.4784088134765625 47.07918167114258,2.390408515930176 47.07918167114258,2.390408515930176 49.58088397979736,2.322721481323242 49.58088397979736,2.322721481323242 50.57353973388672,2.295684814453125 50.57353973388672,2.295684814453125 51.33857727050781,0.8983612060546875 51.33857727050781,0.8983612060546875 51.970672607421875,0.83160400390625 51.970672607421875,0.83160400390625 51.967573165893555,0.7872343063354492 51.967573165893555,0.7872343063354492 51.97925567626953,0.6763458251953125 51.97925567626953,0.6763458251953125 52.03714370727539,0.5321502685546875 52.03714370727539,0.5321502685546875 52.17263698577881,0.3879547119140625 52.17263698577881,0.3879547119140625 52.41718292236328,0.2770423889160156 52.41718292236328,0.2770423889160156 52.802276611328125,0.232696533203125 52.802276611328125,0.232696533203125 53.193116188049316,0.27954578399658203 53.193116188049316,0.27954578399658203 53.4564733505249,0.3966808319091797 53.4564733505249,0.3966808319091797 53.62558364868164,0.5489349365234375 53.62558364868164,0.5489349365234375 53.7337064743042,0.7011890411376953 53.7337064743042,0.7011890411376953 53.814125061035156,0.8183002471923828 53.814125061035156,0.8183002471923828 53.900146484375,0.86517333984375 53.900146484375,0.86517333984375 53.99646759033203,0.8676528930664062 53.99646759033203,0.8676528930664062 54.08363342285156,0.8737802505493164 54.08363342285156,0.8737802505493164 54.1579008102417,0.8817672729492188 54.1579008102417,0.8817672729492188 54.21555042266846,0.8897304534912109 54.21555042266846,0.8897304534912109 54.25288677215576,0.8958816528320312 54.25288677215576,0.8958816528320312 54.26616668701172,0.8983612060546875 54.26616668701172,0.8983612060546875 54.27894592285156,0.9205341339111328 54.27894592285156,0.9205341339111328 54.312968254089355,0.9759902954101562 54.312968254089355,0.9759902954101562 54.361772537231445,1.0480880737304688 54.361772537231445,1.0480880737304688 54.41884994506836,1.120162010192871 54.41884994506836,1.120162010192871 54.477763175964355,1.1756181716918945 54.477763175964355,1.1756181716918945 54.53205108642578,1.19781494140625 54.53205108642578,1.19781494140625 54.64186668395996,1.181483268737793 54.64186668395996,1.181483268737793 54.843997955322266,1.1447668075561523 54.843997955322266,1.1447668075561523 55.0978422164917,1.1062145233154297 55.0978422164917,1.1062145233154297 55.362701416015625,1.0842561721801758 55.362701416015625,1.0842561721801758 55.59799671173096,1.0974407196044922 55.59799671173096,1.0974407196044922 55.76305389404297,1.16424560546875 55.76305389404297,1.16424560546875 55.89568614959717,1.2780189514160156 55.89568614959717,1.2780189514160156 56.047677993774414,1.4083623886108398 56.047677993774414,1.4083623886108398 56.19971752166748,1.5386581420898438 56.19971752166748,1.5386581420898438 56.33232593536377,1.6522884368896484 56.33232593536377,1.6522884368896484 56.426119804382324,1.7326831817626953 56.426119804382324,1.7326831817626953 56.46171569824219,1.763153076171875 56.46171569824219,1.763153076171875 56.89411163330078,1.86309814453125 56.89411163330078,1.86309814453125 57.06043243408203,2.16217041015625 57.06043243408203,2.16217041015625 69.03667449951172,2.062225341796875 69.03667449951172,2.062225341796875 69.73514556884766,0.6988525390625 69.73514556884766,0.6988525390625 70.16773223876953,0.6988525390625 70.16773223876953,0.6988525390625 70.18146514892578,0.6470918655395508 70.18146514892578,0.6470918655395508 70.23305892944336,0.5176544189453125 70.23305892944336,0.5176544189453125 70.33824920654297,0.34942626953125 70.33824920654297,0.34942626953125 70.51272392272949,0.1811504364013672 70.51272392272949,0.1811504364013672 70.77224254608154,0.05173683166503906 70.77224254608154,0.05173683166503906 71.1324691772461,0.0 71.1324691772461,0.0 71.4951753616333,0.051784515380859375 71.4951753616333,0.051784515380859375 71.76089286804199,0.1811981201171875 71.76089286804199,0.1811981201171875 71.94347381591797,0.34942626953125 71.94347381591797,0.34942626953125 72.05672264099121,0.5176544189453125 72.05672264099121,0.5176544189453125 72.11456298828125,0.6470680236816406 72.11456298828125,0.6470680236816406 72.13077545166016,0.6988525390625 72.13077545166016,0.6988525390625 72.15862274169922,0.6971359252929688 72.15862274169922,0.6971359252929688 72.23167419433594,0.6963014602661133 72.23167419433594,0.6963014602661133 72.33428955078125,0.7028579711914062 72.33428955078125,0.7028579711914062 72.45073318481445,0.7232666015625 72.45073318481445,0.7232666015625 72.5653886795044,0.7639884948730469 72.5653886795044,0.7639884948730469 72.66254425048828,0.83160400390625 72.66254425048828,0.83160400390625 72.72768020629883,0.9016752243041992 72.72768020629883,0.9016752243041992 72.76227474212646,0.948643684387207 72.76227474212646,0.948643684387207 72.77469635009766,0.9771347045898438 72.77469635009766,0.9771347045898438 72.77324199676514,0.9917497634887695 72.77324199676514,0.9917497634887695 72.76628017425537,0.9971380233764648 72.76628017425537,0.9971380233764648 72.7621078491211,0.9979248046875 72.7621078491211,0.9979248046875 73.69403839111328,0.931549072265625 73.69403839111328,0.931549072265625 73.99349212646484,1.16424560546875 73.99349212646484,1.16424560546875 74.03814792633057,1.1650562286376953 74.03814792633057,1.1650562286376953 74.1511344909668,1.170492172241211 74.1511344909668,1.170492172241211 74.30109977722168,1.1852264404296875 74.30109977722168,1.1852264404296875 74.45659637451172,1.2137889862060547 74.45659637451172,1.2137889862060547 74.58631992340088,1.260828971862793 74.58631992340088,1.260828971862793 74.65877532958984,1.3309478759765625 74.65877532958984,1.3309478759765625 74.68676567077637,1.4156579971313477 74.68676567077637,1.4156579971313477 74.70548152923584,1.4995574951171875 74.70548152923584,1.4995574951171875 74.71685409545898,1.576089859008789 74.71685409545898,1.576089859008789 74.72267150878906,1.6387939453125 74.72267150878906,1.6387939453125 74.72484111785889,1.6811847686767578 74.72484111785889,1.6811847686767578 74.72515106201172,1.69677734375 74.72515106201172,1.69677734375 74.99141693115234,1.7635345458984375 74.99141693115234,1.7635345458984375 75.2908706665039,2.0626068115234375 75.2908706665039,2.0626068115234375 75.52328109741211,2.057814598083496 75.52328109741211,2.057814598083496 76.1631727218628,2.046537399291992 76.1631727218628,2.046537399291992 77.12464332580566,2.0334243774414062 77.12464332580566,2.0334243774414062 78.32176685333252,2.0230770111083984 78.32176685333252,2.0230770111083984 79.66861724853516,2.0202159881591797 79.66861724853516,2.0202159881591797 81.07929229736328,2.0294189453125 81.07929229736328,2.0294189453125 82.53169059753418,2.045869827270508 82.53169059753418,2.045869827270508 83.9832067489624,2.0613670349121094 83.9832067489624,2.0613670349121094 85.31646728515625,2.075052261352539 85.31646728515625,2.075052261352539 86.41407489776611,2.0859479904174805 86.41407489776611,2.0859479904174805 87.15872764587402,2.093172073364258 87.15872764587402,2.093172073364258 87.43305206298828,2.095794677734375 87.43305206298828,2.095794677734375 87.45262622833252,2.0589828491210938 87.45262622833252,2.0589828491210938 87.52298355102539,1.9676685333251953 87.52298355102539,1.9676685333251953 87.6617431640625,1.8505096435546875 87.6617431640625,1.8505096435546875 87.88642883300781,1.7361164093017578 87.88642883300781,1.7361164093017578 88.21468353271484,1.6531944274902344 88.21468353271484,1.6531944274902344 88.66405487060547,1.630401611328125 88.66405487060547,1.630401611328125 89.10105228424072,1.6788482666015625 89.10105228424072,1.6788482666015625 89.3984317779541,1.7744064331054688 89.3984317779541,1.7744064331054688 89.58301544189453,1.8921375274658203 89.58301544189453,1.8921375274658203 89.68162536621094,2.0070552825927734 89.68162536621094,2.0070552825927734 89.72110748291016,2.0943403244018555 89.72110748291016,2.0943403244018555 89.72835540771484,2.1289825439453125 89.72835540771484,2.1289825439453125 89.75653648376465,2.140378952026367 89.75653648376465,2.140378952026367 89.83182907104492,2.1758317947387695 89.83182907104492,2.1758317947387695 89.94040489196777,2.2371292114257812 89.94040489196777,2.2371292114257812 90.06836414337158,2.3261308670043945 90.06836414337158,2.3261308670043945 90.20195007324219,2.444744110107422 90.20195007324219,2.444744110107422 90.32726287841797,2.594757080078125 90.32726287841797,2.594757080078125 90.43776988983154,2.7523040771484375 90.43776988983154,2.7523040771484375 90.53430557250977,2.8894424438476562 90.53430557250977,2.8894424438476562 90.61417579650879,3.002500534057617 90.61417579650879,3.002500534057617 90.67459106445312,3.0878067016601562 90.67459106445312,3.0878067016601562 90.71288108825684,3.1416893005371094 90.71288108825684,3.1416893005371094 90.72628021240234,3.1604766845703125 90.72628021240234,3.1604766845703125 90.78762531280518,3.1638622283935547 90.78762531280518,3.1638622283935547 90.950608253479,3.1985998153686523 90.950608253479,3.1985998153686523 91.18390083312988,3.3017635345458984 91.18390083312988,3.3017635345458984 91.45596027374268,3.510284423828125 91.45596027374268,3.510284423828125 91.73545837402344,3.8611888885498047 91.73545837402344,3.8611888885498047 91.99085235595703,4.3914794921875 91.99085235595703,4.3914794921875 92.3126220703125,5.377483367919922 92.3126220703125,5.377483367919922 92.75825023651123,6.86802864074707 92.75825023651123,6.86802864074707 93.2464599609375,8.558177947998047 93.2464599609375,8.558177947998047 93.69585514068604,10.142946243286133 93.69585514068604,10.142946243286133 94.02515888214111,11.31744384765625 94.02515888214111,11.31744384765625 94.15302276611328,11.7767333984375 94.15302276611328,11.7767333984375 94.35970783233643,11.745572090148926 94.35970783233643,11.745572090148926 94.8972225189209,11.694002151489258 94.8972225189209,11.694002151489258 95.64170837402344,11.684942245483398 95.64170837402344,11.684942245483398 96.46933078765869,11.78123950958252 96.46933078765869,11.78123950958252 97.25632667541504,12.045812606811523 97.25632667541504,12.045812606811523" stroke="white" stroke-width="0.1" /><polygon points="48.909950256347656,12.209320068359375 48.909950256347656,12.209320068359375 49.046897888183594,11.752533912658691 49.046897888183594,11.752533912658691 49.10714626312256,10.818076133728027 49.10714626312256,10.818076133728027 49.11377429962158,9.610176086425781 49.11377429962158,9.610176086425781 49.089884757995605,8.332967758178711 49.089884757995605,8.332967758178711 49.05862808227539,7.190608978271484 49.05862808227539,7.190608978271484 49.04308319091797,6.3873291015625 49.04308319091797,6.3873291015625 49.01907444000244,5.91282844543457 49.01907444000244,5.91282844543457 48.95071983337402,5.597352981567383 48.95071983337402,5.597352981567383 48.84352684020996,5.4058074951171875 48.84352684020996,5.4058074951171875 48.70305061340332,5.303001403808594 48.70305061340332,5.303001403808594 48.53484630584717,5.253791809082031 48.53484630584717,5.253791809082031 48.34442138671875,5.22308349609375 48.34442138671875,5.22308349609375 47.96624183654785,5.202484130859375 47.96624183654785,5.202484130859375 47.28116989135742,5.203151702880859 47.28116989135742,5.203151702880859 46.36509418487549,5.218648910522461 46.36509418487549,5.218648910522461 45.29376029968262,5.242466926574707 45.29376029968262,5.242466926574707 44.142985343933105,5.268239974975586 44.142985343933105,5.268239974975586 42.98858642578125,5.289459228515625 42.98858642578125,5.289459228515625 41.619324684143066,5.323600769042969 41.619324684143066,5.323600769042969 39.92931842803955,5.384469032287598 39.92931842803955,5.384469032287598 38.152408599853516,5.460071563720703 38.152408599853516,5.460071563720703 36.52241230010986,5.538392066955566 36.52241230010986,5.538392066955566 35.273194313049316,5.607461929321289 35.273194313049316,5.607461929321289 34.63859558105469,5.6552886962890625 34.63859558105469,5.6552886962890625 34.342074394226074,5.892848968505859 34.342074394226074,5.892848968505859 33.98549556732178,6.435298919677734 33.98549556732178,6.435298919677734 33.61971378326416,7.12742805480957 33.61971378326416,7.12742805480957 33.295488357543945,7.8139543533325195 33.295488357543945,7.8139543533325195 33.06374549865723,8.339738845825195 33.06374549865723,8.339738845825195 32.975196838378906,8.54949951171875 32.975196838378906,8.54949951171875 33.074092864990234,8.530402183532715 33.074092864990234,8.530402183532715 33.333778381347656,8.48541259765625 33.333778381347656,8.48541259765625 33.69879722595215,8.433055877685547 33.69879722595215,8.433055877685547 34.11369323730469,8.391809463500977 34.11369323730469,8.391809463500977 34.52301025390625,8.38022232055664 34.52301025390625,8.38022232055664 34.87129211425781,8.416748046875 34.87129211425781,8.416748046875 35.10596752166748,8.639311790466309 35.10596752166748,8.639311790466309 35.228753089904785,9.110403060913086 35.228753089904785,9.110403060913086 35.26647090911865,9.734869003295898 35.26647090911865,9.734869003295898 35.2459192276001,10.417532920837402 35.2459192276001,10.417532920837402 35.19394397735596,11.063241958618164 35.19394397735596,11.063241958618164 35.137367248535156,11.57684326171875 35.137367248535156,11.57684326171875 35.01455783843994,11.934733390808105 35.01455783843994,11.934733390808105 34.7752571105957,12.188124656677246 34.7752571105957,12.188124656677246 34.46385860443115,12.354612350463867 34.46385860443115,12.354612350463867 34.12470817565918,12.451744079589844 34.12470817565918,12.451744079589844 33.802223205566406,12.497138977050781 33.802223205566406,12.497138977050781 33.54072570800781,12.508392333984375 33.54072570800781,12.508392333984375 33.33389759063721,12.542891502380371 33.33389759063721,12.542891502380371 33.15014839172363,12.629151344299316 33.15014839172363,12.629151344299316 32.99596309661865,12.741279602050781 32.99596309661865,12.741279602050781 32.87777900695801,12.853384017944336 32.87777900695801,12.853384017944336 32.80215263366699,12.939643859863281 32.80215263366699,12.939643859863281 32.77549743652344,12.974166870117188 32.77549743652344,12.974166870117188 33.36215019226074,12.961530685424805 33.36215019226074,12.961530685424805 34.91816520690918,12.928581237792969 34.91816520690918,12.928581237792969 37.137675285339355,12.882661819458008 37.137675285339355,12.882661819458008 39.714765548706055,12.83116340637207 39.714765548706055,12.83116340637207 42.34364032745361,12.781524658203125 42.34364032745361,12.781524658203125 44.718360900878906,12.7410888671875 44.718360900878906,12.7410888671875 46.49350643157959,12.699413299560547 46.49350643157959,12.699413299560547 47.631025314331055,12.640190124511719 47.631025314331055,12.640190124511719 48.28622341156006,12.56246566772461 48.28622341156006,12.56246566772461 48.6142635345459,12.465333938598633 48.6142635345459,12.465333938598633 48.77042770385742,12.347936630249023 48.77042770385742,12.347936630249023" stroke="white" stroke-width="0.1" /><polygon points="69.16980743408203,11.27777099609375 69.16980743408203,11.27777099609375 69.1507339477539,10.834217071533203 69.1507339477539,10.834217071533203 68.99588108062744,9.935998916625977 68.99588108062744,9.935998916625977 68.75791549682617,8.782720565795898 68.75791549682617,8.782720565795898 68.48948001861572,7.573986053466797 68.48948001861572,7.573986053466797 68.24326515197754,6.50935173034668 68.24326515197754,6.50935173034668 68.07193756103516,5.788421630859375 68.07193756103516,5.788421630859375 67.92447566986084,5.391836166381836 67.92447566986084,5.391836166381836 67.73543357849121,5.144047737121582 67.73543357849121,5.144047737121582 67.53535270690918,5.010843276977539 67.53535270690918,5.010843276977539 67.3546552658081,4.958009719848633 67.3546552658081,4.958009719848633 67.22393035888672,4.951381683349609 67.22393035888672,4.951381683349609 67.17357635498047,4.956817626953125 67.17357635498047,4.956817626953125 66.3083553314209,4.959297180175781 66.3083553314209,4.959297180175781 64.13273811340332,4.965519905090332 64.13273811340332,4.965519905090332 61.277008056640625,4.973602294921875 61.277008056640625,4.973602294921875 58.37135314941406,4.981660842895508 58.37135314941406,4.981660842895508 56.04603290557861,4.987907409667969 56.04603290557861,4.987907409667969 54.93125915527344,4.990386962890625 54.93125915527344,4.990386962890625 54.645681381225586,4.9861907958984375 54.645681381225586,4.9861907958984375 54.38997745513916,4.982852935791016 54.38997745513916,4.982852935791016 54.16750907897949,4.994344711303711 54.16750907897949,4.994344711303711 53.981685638427734,5.034494400024414 53.981685638427734,5.034494400024414 53.83591651916504,5.117321014404297 53.83591651916504,5.117321014404297 53.73363494873047,5.25665283203125 53.73363494873047,5.25665283203125 53.664350509643555,5.777716636657715 53.664350509643555,5.777716636657715 53.6449670791626,6.764554977416992 53.6449670791626,6.764554977416992 53.6588191986084,8.000898361206055 53.6588191986084,8.000898361206055 53.68928909301758,9.270524978637695 53.68928909301758,9.270524978637695 53.71975898742676,10.357189178466797 53.71975898742676,10.357189178466797 53.73363494873047,11.044692993164062 53.73363494873047,11.044692993164062 53.7783145904541,11.43941879272461 53.7783145904541,11.43941879272461 53.902435302734375,11.785173416137695 53.902435302734375,11.785173416137695 54.09126281738281,12.071800231933594 54.09126281738281,12.071800231933594 54.3299674987793,12.289118766784668 54.3299674987793,12.289118766784668 54.60383892059326,12.426996231079102 54.60383892059326,12.426996231079102 54.8980712890625,12.475204467773438 54.8980712890625,12.475204467773438 55.741262435913086,12.465047836303711 55.741262435913086,12.465047836303711 57.45217800140381,12.438225746154785 57.45217800140381,12.438225746154785 59.700918197631836,12.400341033935547 59.700918197631836,12.400341033935547 62.157559394836426,12.356901168823242 62.157559394836426,12.356901168823242 64.49229717254639,12.313508987426758 64.49229717254639,12.313508987426758 66.37516021728516,12.27569580078125 66.37516021728516,12.27569580078125 67.6471471786499,12.19949722290039 67.6471471786499,12.19949722290039 68.44508647918701,12.053942680358887 68.44508647918701,12.053942680358887 68.88270378112793,11.863994598388672 68.88270378112793,11.863994598388672 69.07358169555664,11.65463924407959 69.07358169555664,11.65463924407959 69.13139820098877,11.450910568237305 69.13139820098877,11.450910568237305" stroke="white" stroke-width="0.1" /><polygon points="91.7245864868164,11.643218994140625 91.7245864868164,11.643218994140625 91.80684089660645,11.648941040039062 91.80684089660645,11.648941040039062 92.00549125671387,11.633443832397461 92.00549125671387,11.633443832397461 92.24853515625,11.547708511352539 92.24853515625,11.547708511352539 92.46382713317871,11.342716217041016 92.46382713317871,11.342716217041016 92.57934093475342,10.96949577331543 92.57934093475342,10.96949577331543 92.52300262451172,10.3790283203125 92.52300262451172,10.3790283203125 92.3180341720581,9.506082534790039 92.3180341720581,9.506082534790039 92.04840660095215,8.417797088623047 92.04840660095215,8.417797088623047 91.73264503479004,7.264804840087891 91.73264503479004,7.264804840087891 91.38915538787842,6.197667121887207 91.38915538787842,6.197667121887207 91.0365104675293,5.367088317871094 91.0365104675293,5.367088317871094 90.6930923461914,4.9236297607421875 90.6930923461914,4.9236297607421875 90.32363891601562,4.762935638427734 90.32363891601562,4.762935638427734 89.8552417755127,4.669713973999023 89.8552417755127,4.669713973999023 89.25013542175293,4.628276824951172 89.25013542175293,4.628276824951172 88.47036361694336,4.622864723205566 88.47036361694336,4.622864723205566 87.4781608581543,4.637813568115234 87.4781608581543,4.637813568115234 86.2356185913086,4.6573638916015625 86.2356185913086,4.6573638916015625 84.2689037322998,4.676294326782227 84.2689037322998,4.676294326782227 81.48074150085449,4.698038101196289 81.48074150085449,4.698038101196289 78.39694023132324,4.719781875610352 78.39694023132324,4.719781875610352 75.54323673248291,4.738759994506836 75.54323673248291,4.738759994506836 73.44543933868408,4.752206802368164 73.44543933868408,4.752206802368164 72.62935638427734,4.7573089599609375 72.62935638427734,4.7573089599609375 74.75833892822266,11.876678466796875 74.75833892822266,11.876678466796875 75.3636121749878,11.869096755981445 75.3636121749878,11.869096755981445 76.9169807434082,11.849427223205566 76.9169807434082,11.849427223205566 79.0247917175293,11.822366714477539 79.0247917175293,11.822366714477539 81.29336833953857,11.792516708374023 81.29336833953857,11.792516708374023 83.32912921905518,11.76457405090332 83.32912921905518,11.76457405090332 84.73834991455078,11.7431640625 84.73834991455078,11.7431640625 85.92596054077148,11.724233627319336 85.92596054077148,11.724233627319336 87.40730285644531,11.702489852905273 87.40730285644531,11.702489852905273 88.95516395568848,11.680746078491211 88.95516395568848,11.680746078491211 90.34216403961182,11.661744117736816 90.34216403961182,11.661744117736816 91.34109020233154,11.648297309875488 91.34109020233154,11.648297309875488" stroke="white" stroke-width="0.1" /><polygon points="14.312362670898438,24.085235595703125 14.312362670898438,24.085235595703125 16.965484619140625,24.44171905517578 16.965484619140625,24.44171905517578 19.34952735900879,25.447797775268555 19.34952735900879,25.447797775268555 21.369409561157227,27.0082950592041 21.369409561157227,27.0082950592041 22.929954528808594,29.02810573577881 22.929954528808594,29.02810573577881 23.936033248901367,31.412124633789062 23.936033248901367,31.412124633789062 24.292564392089844,34.06524658203125 24.292564392089844,34.06524658203125 24.29027557373047,34.271240234375 24.29027557373047,34.271240234375 24.283480644226074,34.47608947753906 24.283480644226074,34.47608947753906 24.272465705871582,34.67984199523926 24.272465705871582,34.67984199523926 24.257373809814453,34.882450103759766 24.257373809814453,34.882450103759766 24.23844337463379,35.083961486816406 24.23844337463379,35.083961486816406 24.21588897705078,35.284423828125 24.21588897705078,35.284423828125 23.627376556396484,37.647390365600586 23.627376556396484,37.647390365600586 22.513866424560547,39.749717712402344 22.513866424560547,39.749717712402344 20.95048427581787,41.51611328125 20.95048427581787,41.51611328125 19.01235580444336,42.87111759185791 19.01235580444336,42.87111759185791 16.774606704711914,43.7394380569458 16.774606704711914,43.7394380569458 14.312362670898438,44.04563903808594 14.312362670898438,44.04563903808594 11.65926456451416,43.68913173675537 11.65926456451416,43.68913173675537 9.275245666503906,42.68298149108887 9.275245666503906,42.68298149108887 7.255411148071289,41.12238883972168 7.255411148071289,41.12238883972168 5.694890022277832,39.10245895385742 5.694890022277832,39.10245895385742 4.688835144042969,36.71836853027344 4.688835144042969,36.71836853027344 4.3323516845703125,34.06524658203125 4.3323516845703125,34.06524658203125 4.332923889160156,33.968496322631836 4.332923889160156,33.968496322631836 4.334545135498047,33.8719367980957 4.334545135498047,33.8719367980957 4.337167739868164,33.77561569213867 4.337167739868164,33.77561569213867 4.340696334838867,33.67946147918701 4.340696334838867,33.67946147918701 4.345083236694336,33.58349800109863 4.345083236694336,33.58349800109863 4.35028076171875,33.487701416015625 4.35028076171875,33.487701416015625 4.822754859924316,30.97076416015625 4.822754859924316,30.97076416015625 5.884218215942383,28.71983051300049 5.884218215942383,28.71983051300049 7.4492692947387695,26.82037353515625 7.4492692947387695,26.82037353515625 9.432554244995117,25.357818603515625 9.432554244995117,25.357818603515625 11.748695373535156,24.417591094970703 11.748695373535156,24.417591094970703" stroke="white" stroke-width="0.1" /><polygon points="82.27672576904297,24.085235595703125 82.27672576904297,24.085235595703125 84.45892333984375,24.324584007263184 84.45892333984375,24.324584007263184 86.47346496582031,25.008153915405273 86.47346496582031,25.008153915405273 88.2688045501709,26.084232330322266 88.2688045501709,26.084232330322266 89.79325294494629,27.50115394592285 89.79325294494629,27.50115394592285 90.99516868591309,29.207229614257812 90.99516868591309,29.207229614257812 91.82300567626953,31.15081787109375 91.82300567626953,31.15081787109375 91.95289611816406,31.61642551422119 91.95289611816406,31.61642551422119 92.06056594848633,32.09085464477539 92.06056594848633,32.09085464477539 92.14544296264648,32.573556900024414 92.14544296264648,32.573556900024414 92.20681190490723,33.06388854980469 92.20681190490723,33.06388854980469 92.24414825439453,33.56132507324219 92.24414825439453,33.56132507324219 92.2567367553711,34.06524658203125 92.2567367553711,34.06524658203125 91.90025329589844,36.71836853027344 91.90025329589844,36.71836853027344 90.89417457580566,39.10245895385742 90.89417457580566,39.10245895385742 89.33367729187012,41.12238883972168 89.33367729187012,41.12238883972168 87.31381893157959,42.68295764923096 87.31381893157959,42.68295764923096 84.92980003356934,43.68910789489746 84.92980003356934,43.68910789489746 82.27672576904297,44.04563903808594 82.27672576904297,44.04563903808594 79.75382804870605,43.72386932373047 79.75382804870605,43.72386932373047 77.4691104888916,42.81268119812012 77.4691104888916,42.81268119812012 75.50368309020996,41.39351844787598 75.50368309020996,41.39351844787598 73.93860816955566,39.54761028289795 73.93860816955566,39.54761028289795 72.8550672531128,37.35635280609131 72.8550672531128,37.35635280609131 72.33409881591797,34.90104675292969 72.33409881591797,34.90104675292969 72.32351303100586,34.76293087005615 72.32351303100586,34.76293087005615 72.31440544128418,34.624338150024414 72.31440544128418,34.624338150024414 72.30696678161621,34.48529243469238 72.30696678161621,34.48529243469238 72.30136394500732,34.34574604034424 72.30136394500732,34.34574604034424 72.29790687561035,34.2057466506958 72.29790687561035,34.2057466506958 72.29671478271484,34.06524658203125 72.29671478271484,34.06524658203125 72.65322208404541,31.412148475646973 72.65322208404541,31.412148475646973 73.65927696228027,29.02812957763672 73.65927696228027,29.02812957763672 75.21977424621582,27.0082950592041 75.21977424621582,27.0082950592041 77.23956108093262,25.447773933410645 77.23956108093262,25.447773933410645 79.62362766265869,24.44171905517578 79.62362766265869,24.44171905517578" stroke="white" stroke-width="0.1" /></svg>