<?xml version="1.0" encoding="utf-8" ?>
<svg baseProfile="full" height="31.92901611328125" version="1.1" width="100.0" xmlns="http://www.w3.org/2000/svg" xmlns:ev="http://www.w3.org/2001/xml-events" xmlns:xlink="http://www.w3.org/1999/xlink"><defs><clipPath /></defs><polygon points="97.03254699707031,18.78528594970703 97.03254699707031,18.78528594970703 100.0,18.78528594970703 100.0,18.78528594970703 99.88365173339844,23.20728302001953 99.88365173339844,23.20728302001953 95.46165466308594,23.731040954589844 95.46165466308594,23.731040954589844 94.9056625366211,23.802947998046875 94.9056625366211,23.802947998046875 93.49627494812012,23.99606704711914 93.49627494812012,23.99606704711914 91.62139892578125,24.27654266357422 91.62139892578125,24.27654266357422 89.66894149780273,24.610233306884766 89.66894149780273,24.610233306884766 88.02685737609863,24.96337890625 88.02685737609863,24.96337890625 87.08305358886719,25.30193328857422 87.08305358886719,25.30193328857422 86.57441139221191,25.58884620666504 86.57441139221191,25.58884620666504 86.02051734924316,25.812721252441406 86.02051734924316,25.812721252441406 85.48283576965332,25.978374481201172 85.48283576965332,25.978374481201172 85.02273559570312,26.090621948242188 85.02273559570312,26.090621948242188 84.70163345336914,26.154518127441406 84.70163345336914,26.154518127441406 84.58099365234375,26.17473602294922 84.58099365234375,26.17473602294922 82.89718627929688,26.191139221191406 82.89718627929688,26.191139221191406 82.94439315795898,25.922107696533203 82.94439315795898,25.922107696533203 82.98354148864746,25.650453567504883 82.98354148864746,25.650453567504883 83.01448822021484,25.376319885253906 83.01448822021484,25.376319885253906 83.03687572479248,25.099658966064453 83.03687572479248,25.099658966064453 83.05048942565918,24.820709228515625 83.05048942565918,24.820709228515625 83.05511474609375,24.539566040039062 83.05511474609375,24.539566040039062 82.74073600769043,22.206592559814453 82.74073600769043,22.206592559814453 81.85386657714844,20.108604431152344 81.85386657714844,20.108604431152344 80.47890663146973,18.329906463623047 80.47890663146973,18.329906463623047 78.70023250579834,16.954898834228516 78.70023250579834,16.954898834228516 76.60226821899414,16.068077087402344 76.60226821899414,16.068077087402344 74.26948547363281,15.753746032714844 74.26948547363281,15.753746032714844 71.9365119934082,16.068124771118164 71.9365119934082,16.068124771118164 69.83842849731445,16.954946517944336 69.83842849731445,16.954946517944336 68.05973052978516,18.329906463623047 68.05973052978516,18.329906463623047 66.68469905853271,20.108509063720703 66.68469905853271,20.108509063720703 65.79782962799072,22.206592559814453 65.79782962799072,22.206592559814453 65.48347473144531,24.539566040039062 65.48347473144531,24.539566040039062 65.50102233886719,25.094985961914062 65.50102233886719,25.094985961914062 65.55280685424805,25.641155242919922 65.55280685424805,25.641155242919922 65.63773155212402,26.177167892456055 65.63773155212402,26.177167892456055 65.7545804977417,26.701927185058594 65.7545804977417,26.701927185058594 65.9022331237793,27.214717864990234 65.9022331237793,27.214717864990234 66.07952117919922,27.71434783935547 66.07952117919922,27.71434783935547 24.1851806640625,27.280235290527344 24.1851806640625,27.280235290527344 21.515846252441406,27.7099609375 21.515846252441406,27.7099609375 21.692514419555664,27.21090316772461 21.692514419555664,27.21090316772461 21.83969020843506,26.698827743530273 21.83969020843506,26.698827743530273 21.956181526184082,26.1746883392334 21.956181526184082,26.1746883392334 22.040843963623047,25.63939094543457 22.040843963623047,25.63939094543457 22.092485427856445,25.094032287597656 22.092485427856445,25.094032287597656 22.1099853515625,24.539566040039062 22.1099853515625,24.539566040039062 21.79560661315918,22.206592559814453 21.79560661315918,22.206592559814453 20.908737182617188,20.108604431152344 20.908737182617188,20.108604431152344 19.533753395080566,18.329906463623047 19.533753395080566,18.329906463623047 17.75505542755127,16.954898834228516 17.75505542755127,16.954898834228516 15.65706729888916,16.068077087402344 15.65706729888916,16.068077087402344 13.324165344238281,15.753746032714844 13.324165344238281,15.753746032714844 10.991263389587402,16.068124771118164 10.991263389587402,16.068124771118164 8.893251419067383,16.954946517944336 8.893251419067383,16.954946517944336 7.114577293395996,18.329906463623047 7.114577293395996,18.329906463623047 5.739593505859375,20.108509063720703 5.739593505859375,20.108509063720703 4.852724075317383,22.206592559814453 4.852724075317383,22.206592559814453 4.5383453369140625,24.539566040039062 4.5383453369140625,24.539566040039062 4.540872573852539,24.744033813476562 4.540872573852539,24.744033813476562 4.548287391662598,24.947261810302734 4.548287391662598,24.947261810302734 4.560422897338867,25.149202346801758 4.560422897338867,25.149202346801758 4.577112197875977,25.349903106689453 4.577112197875977,25.349903106689453 4.5981645584106445,25.54941177368164 4.5981645584106445,25.54941177368164 4.6234130859375,25.7476806640625 4.6234130859375,25.7476806640625 1.706695556640625,25.70934295654297 1.706695556640625,25.70934295654297 1.5802860260009766,25.657987594604492 1.5802860260009766,25.657987594604492 1.2642145156860352,25.50530433654785 1.2642145156860352,25.50530433654785 0.8533477783203125,25.253582000732422 0.8533477783203125,25.253582000732422 0.4424571990966797,24.904727935791016 0.4424571990966797,24.904727935791016 0.12640953063964844,24.46122169494629 0.12640953063964844,24.46122169494629 0.0,23.925018310546875 0.0,23.925018310546875 0.01723766326904297,23.11868667602539 0.01723766326904297,23.11868667602539 0.06031990051269531,21.9998836517334 0.06031990051269531,21.9998836517334 0.1163482666015625,20.7733154296875 0.1163482666015625,20.7733154296875 0.17235279083251953,19.643688201904297 0.17235279083251953,19.643688201904297 0.21543502807617188,18.81580352783203 0.21543502807617188,18.81580352783203 0.232696533203125,18.494415283203125 0.232696533203125,18.494415283203125 1.706695556640625,16.632461547851562 1.706695556640625,16.632461547851562 2.947998046875,12.753486633300781 2.947998046875,12.753486633300781 3.016948699951172,12.632083892822266 3.016948699951172,12.632083892822266 3.2410621643066406,12.325382232666016 3.2410621643066406,12.325382232666016 3.6461830139160156,11.919546127319336 3.6461830139160156,11.919546127319336 4.258203506469727,11.500740051269531 4.258203506469727,11.500740051269531 5.1029205322265625,11.155223846435547 5.1029205322265625,11.155223846435547 6.206321716308594,10.969161987304688 6.206321716308594,10.969161987304688 7.2235107421875,10.892343521118164 7.2235107421875,10.892343521118164 7.852745056152344,10.819768905639648 7.852745056152344,10.819768905639648 8.184623718261719,10.75582504272461 8.184623718261719,10.75582504272461 8.309578895568848,10.704803466796875 8.309578895568848,10.704803466796875 8.318185806274414,10.671043395996094 8.318185806274414,10.671043395996094 8.300971984863281,10.658836364746094 8.300971984863281,10.658836364746094 8.844184875488281,9.960556030273438 8.844184875488281,9.960556030273438 9.052515029907227,9.903097152709961 9.052515029907227,9.903097152709961 9.65735912322998,9.75942611694336 9.65735912322998,9.75942611694336 10.628557205200195,9.572696685791016 10.628557205200195,9.572696685791016 11.935901641845703,9.385895729064941 11.935901641845703,9.385895729064941 13.549280166625977,9.24227237701416 13.549280166625977,9.24227237701416 15.438461303710938,9.184837341308594 15.438461303710938,9.184837341308594 17.42534637451172,9.173345565795898 17.42534637451172,9.173345565795898 19.282937049865723,9.14463996887207 19.282937049865723,9.14463996887207 20.9078311920166,9.107303619384766 20.9078311920166,9.107303619384766 22.196531295776367,9.06994342803955 22.196531295776367,9.06994342803955 23.045635223388672,9.041237831115723 23.045635223388672,9.041237831115723 23.351669311523438,9.029769897460938 23.351669311523438,9.029769897460938 24.14255142211914,8.47020149230957 24.14255142211914,8.47020149230957 26.161742210388184,7.061529159545898 26.161742210388184,7.061529159545898 28.879165649414062,5.208945274353027 28.879165649414062,5.208945274353027 31.764698028564453,3.3174991607666016 31.764698028564453,3.3174991607666016 34.28816795349121,1.7924785614013672 34.28816795349121,1.7924785614013672 35.91957092285156,1.0389328002929688 35.91957092285156,1.0389328002929688 37.12742328643799,0.8080482482910156 37.12742328643799,0.8080482482910156 38.72966766357422,0.5878925323486328 38.72966766357422,0.5878925323486328 40.71981906890869,0.3893136978149414 40.71981906890869,0.3893136978149414 43.091368675231934,0.22296905517578125 43.091368675231934,0.22296905517578125 45.8378791809082,0.09980201721191406 45.8378791809082,0.09980201721191406 48.95286560058594,0.030517578125 48.95286560058594,0.030517578125 52.089834213256836,0.0041961669921875 52.089834213256836,0.0041961669921875 54.88626956939697,0.001621246337890625 54.88626956939697,0.001621246337890625 57.31205940246582,0.020647048950195312 57.31205940246582,0.020647048950195312 59.3369722366333,0.05905628204345703 59.3369722366333,0.05905628204345703 60.93096733093262,0.11477470397949219 60.93096733093262,0.11477470397949219 62.06378936767578,0.18558502197265625 62.06378936767578,0.18558502197265625 62.89029121398926,0.23517608642578125 62.89029121398926,0.23517608642578125 63.580989837646484,0.27179718017578125 63.580989837646484,0.27179718017578125 64.12944793701172,0.36013126373291016 64.12944793701172,0.36013126373291016 64.5291805267334,0.5647659301757812 64.5291805267334,0.5647659301757812 64.77375030517578,0.9505271911621094 64.77375030517578,0.9505271911621094 64.85671997070312,1.5819549560546875 64.85671997070312,1.5819549560546875 64.89548683166504,2.7269840240478516 64.89548683166504,2.7269840240478516 64.99242782592773,4.393482208251953 64.99242782592773,4.393482208251953 65.118408203125,6.25612735748291 65.118408203125,6.25612735748291 65.24438858032227,7.989406585693359 65.24438858032227,7.989406585693359 65.34132957458496,9.268045425415039 65.34132957458496,9.268045425415039 65.38009643554688,9.766578674316406 65.38009643554688,9.766578674316406 65.40083885192871,9.766578674316406 65.40083885192871,9.766578674316406 65.46213626861572,9.766578674316406 65.46213626861572,9.766578674316406 65.56274890899658,9.766626358032227 65.56274890899658,9.766626358032227 65.7012939453125,9.766650199890137 65.7012939453125,9.766650199890137 65.87653160095215,9.766769409179688 65.87653160095215,9.766769409179688 66.08715057373047,9.766960144042969 66.08715057373047,9.766960144042969 66.11447334289551,8.444929122924805 66.11447334289551,8.444929122924805 66.17212295532227,6.788969039916992 66.17212295532227,6.788969039916992 66.27137660980225,5.0281524658203125 66.27137660980225,5.0281524658203125 66.42348766326904,3.391551971435547 66.42348766326904,3.391551971435547 66.63978099822998,2.1082639694213867 66.63978099822998,2.1082639694213867 66.93153381347656,1.4074325561523438 66.93153381347656,1.4074325561523438 67.37995147705078,1.0623455047607422 67.37995147705078,1.0623455047607422 67.90401935577393,0.8392810821533203 67.90401935577393,0.8392810821533203 68.5171127319336,0.7114887237548828 68.5171127319336,0.7114887237548828 69.23251152038574,0.6520986557006836 69.23251152038574,0.6520986557006836 70.06368637084961,0.6343603134155273 70.06368637084961,0.6343603134155273 71.02394104003906,0.6315231323242188 71.02394104003906,0.6315231323242188 72.78268337249756,0.6513118743896484 72.78268337249756,0.6513118743896484 74.91452693939209,0.7111072540283203 74.91452693939209,0.7111072540283203 77.26974487304688,0.8133649826049805 77.26974487304688,0.8133649826049805 79.69856262207031,0.9604692459106445 79.69856262207031,0.9604692459106445 82.05130100250244,1.1548995971679688 82.05130100250244,1.1548995971679688 84.17816162109375,1.3990402221679688 84.17816162109375,1.3990402221679688 84.81388092041016,1.4933586120605469 84.81388092041016,1.4933586120605469 85.40217876434326,1.5925407409667969 85.40217876434326,1.5925407409667969 85.94131469726562,1.6989946365356445 85.94131469726562,1.6989946365356445 86.42942905426025,1.8151044845581055 86.42942905426025,1.8151044845581055 86.8647813796997,1.9433259963989258 86.8647813796997,1.9433259963989258 87.24555969238281,2.0860671997070312 87.24555969238281,2.0860671997070312 87.87963390350342,2.3987293243408203 87.87963390350342,2.3987293243408203 88.52119445800781,2.787303924560547 88.52119445800781,2.787303924560547 89.16020393371582,3.250718116760254 89.16020393371582,3.250718116760254 89.7864818572998,3.7879467010498047 89.7864818572998,3.7879467010498047 90.3900146484375,4.398012161254883 90.3900146484375,4.398012161254883 90.960693359375,5.079841613769531 90.960693359375,5.079841613769531 91.43774509429932,5.756974220275879 91.43774509429932,5.756974220275879 91.8691635131836,6.491756439208984 91.8691635131836,6.491756439208984 92.24600791931152,7.282495498657227 92.24600791931152,7.282495498657227 92.5593614578247,8.127212524414062 92.5593614578247,8.127212524414062 92.80033111572266,9.024333953857422 92.80033111572266,9.024333953857422 92.95997619628906,9.971809387207031 92.95997619628906,9.971809387207031 93.9249038696289,9.999275207519531 93.9249038696289,9.999275207519531 94.74830627441406,10.029101371765137 94.74830627441406,10.029101371765137 95.41568756103516,10.061383247375488 95.41568756103516,10.061383247375488 95.91224193572998,10.096192359924316 95.91224193572998,10.096192359924316 96.22340202331543,10.133695602416992 96.22340202331543,10.133695602416992 96.33445739746094,10.173988342285156 96.33445739746094,10.173988342285156 96.40631675720215,10.953235626220703 96.40631675720215,10.953235626220703 96.54121398925781,12.587547302246094 96.54121398925781,12.587547302246094 96.70524597167969,14.632320404052734 96.70524597167969,14.632320404052734 96.86441421508789,16.643190383911133 96.86441421508789,16.643190383911133 96.98483943939209,18.175649642944336 96.98483943939209,18.175649642944336" stroke="white" stroke-width="0.1" /><polygon points="2.365875244140625,16.399765014648438 2.365875244140625,16.399765014648438 5.7987213134765625,14.014053344726562 5.7987213134765625,14.014053344726562 5.100440979003906,13.02490234375 5.100440979003906,13.02490234375 3.5295486450195312,12.9669189453125 3.5295486450195312,12.9669189453125" stroke="white" stroke-width="0.1" /><polygon points="43.50242614746094,9.708404541015625 43.50242614746094,9.708404541015625 43.72444152832031,9.05141830444336 43.72444152832031,9.05141830444336 43.92054080963135,7.633161544799805 43.92054080963135,7.633161544799805 44.08433437347412,5.846428871154785 44.08433437347412,5.846428871154785 44.20928955078125,4.083871841430664 44.20928955078125,4.083871841430664 44.28904056549072,2.7383804321289062 44.28904056549072,2.7383804321289062 44.317054748535156,2.202606201171875 44.317054748535156,2.202606201171875 43.81685256958008,2.217435836791992 43.81685256958008,2.217435836791992 42.52626895904541,2.2629261016845703 42.52626895904541,2.2629261016845703 40.76054096221924,2.3407936096191406 40.76054096221924,2.3407936096191406 38.8347864151001,2.452564239501953 38.8347864151001,2.452564239501953 37.064170837402344,2.599930763244629 37.064170837402344,2.599930763244629 35.76393127441406,2.7845382690429688 35.76393127441406,2.7845382690429688 34.674835205078125,3.1931638717651367 34.674835205078125,3.1931638717651367 33.43219757080078,3.900766372680664 33.43219757080078,3.900766372680664 32.19277858734131,4.74092960357666 32.19277858734131,4.74092960357666 31.113338470458984,5.547118186950684 31.113338470458984,5.547118186950684 30.350756645202637,6.152939796447754 30.350756645202637,6.152939796447754 30.061721801757812,6.39190673828125 30.061721801757812,6.39190673828125 30.00354766845703,10.3485107421875 30.00354766845703,10.3485107421875 30.69314956665039,10.348224639892578 30.69314956665039,10.348224639892578 32.45594501495361,10.346317291259766 32.45594501495361,10.346317291259766 34.83290672302246,10.341262817382812 34.83290672302246,10.341262817382812 37.365007400512695,10.331249237060547 37.365007400512695,10.331249237060547 39.59329128265381,10.31484603881836 39.59329128265381,10.31484603881836 41.05873107910156,10.290336608886719 41.05873107910156,10.290336608886719 41.853952407836914,10.247254371643066 41.853952407836914,10.247254371643066 42.4163818359375,10.178279876708984 42.4163818359375,10.178279876708984 42.80428886413574,10.086703300476074 42.80428886413574,10.086703300476074 43.0757999420166,9.975671768188477 43.0757999420166,9.975671768188477 43.28911304473877,9.848499298095703 43.28911304473877,9.848499298095703" stroke="white" stroke-width="0.1" /><polygon points="51.241111755371094,10.232162475585938 51.241111755371094,10.232162475585938 52.48746871948242,10.230827331542969 52.48746871948242,10.230827331542969 53.76455783843994,10.182619094848633 53.76455783843994,10.182619094848633 54.95760440826416,10.108542442321777 54.95760440826416,10.108542442321777 55.951833724975586,10.02960205078125 55.951833724975586,10.02960205078125 56.63254261016846,9.966850280761719 56.63254261016846,9.966850280761719 56.88495635986328,9.941291809082031 56.88495635986328,9.941291809082031 56.8267822265625,1.4461517333984375 56.8267822265625,1.4461517333984375 56.32820129394531,1.425933837890625 56.32820129394531,1.425933837890625 55.068325996398926,1.3814926147460938 55.068325996398926,1.3814926147460938 53.40118408203125,1.3370752334594727 53.40118408203125,1.3370752334594727 51.680660247802734,1.3168573379516602 51.680660247802734,1.3168573379516602 50.26082992553711,1.3451337814331055 50.26082992553711,1.3451337814331055 49.495506286621094,1.4461517333984375 49.495506286621094,1.4461517333984375 49.19548034667969,1.587080955505371 49.19548034667969,1.587080955505371 48.937416076660156,1.7199277877807617 48.937416076660156,1.7199277877807617 48.7246036529541,1.8462657928466797 48.7246036529541,1.8462657928466797 48.560237884521484,1.9677162170410156 48.560237884521484,1.9677162170410156 48.447632789611816,2.0859479904174805 48.447632789611816,2.0859479904174805 48.39000701904297,2.202606201171875 48.39000701904297,2.202606201171875 48.35686683654785,2.696657180786133 48.35686683654785,2.696657180786133 48.28011989593506,3.9438247680664062 48.28011989593506,3.9438247680664062 48.19366931915283,5.591845512390137 48.19366931915283,5.591845512390137 48.131442070007324,7.288312911987305 48.131442070007324,7.288312911987305 48.12741279602051,8.680987358093262 48.12741279602051,8.680987358093262 48.215484619140625,9.417533874511719 48.215484619140625,9.417533874511719 48.37493896484375,9.675908088684082 48.37493896484375,9.675908088684082 48.59905242919922,9.874439239501953 48.59905242919922,9.874439239501953 48.94280433654785,10.021257400512695 48.94280433654785,10.021257400512695 49.46107864379883,10.124349594116211 49.46107864379883,10.124349594116211 50.20885467529297,10.191988945007324 50.20885467529297,10.191988945007324" stroke="white" stroke-width="0.1" /><polygon points="59.96875762939453,8.13751220703125 59.96875762939453,8.13751220703125 60.01484394073486,7.472944259643555 60.01484394073486,7.472944259643555 60.085153579711914,6.215238571166992 60.085153579711914,6.215238571166992 60.16519069671631,4.682779312133789 60.16519069671631,4.682779312133789 60.24036407470703,3.1939268112182617 60.24036407470703,3.1939268112182617 60.29613018035889,2.0671606063842773 60.29613018035889,2.0671606063842773 60.3179931640625,1.6208648681640625 60.3179931640625,1.6208648681640625 57.525062561035156,1.4461517333984375 57.525062561035156,1.4461517333984375 57.35054016113281,9.592056274414062 57.35054016113281,9.592056274414062 57.54046440124512,9.520673751831055 57.54046440124512,9.520673751831055 58.016419410705566,9.331274032592773 58.016419410705566,9.331274032592773 58.63783359527588,9.061121940612793 58.63783359527588,9.061121940612793 59.26408767700195,8.747267723083496 59.26408767700195,8.747267723083496 59.7545862197876,8.427023887634277 59.7545862197876,8.427023887634277" stroke="white" stroke-width="0.1" /><polygon points="68.04466247558594,2.38189697265625 68.04466247558594,2.38189697265625 67.94726848602295,2.6717424392700195 67.94726848602295,2.6717424392700195 67.88969039916992,3.1581878662109375 67.88969039916992,3.1581878662109375 67.86127090454102,3.74910831451416 67.86127090454102,3.74910831451416 67.85118579864502,4.352402687072754 67.85118579864502,4.352402687072754 67.8487777709961,4.876089096069336 67.8487777709961,4.876089096069336 67.84324645996094,5.2280426025390625 67.84324645996094,5.2280426025390625 89.25514221191406,5.2280426025390625 89.25514221191406,5.2280426025390625 88.83471488952637,4.810810089111328 88.83471488952637,4.810810089111328 88.40293884277344,4.434776306152344 88.40293884277344,4.434776306152344 87.96615600585938,4.101109504699707 87.96615600585938,4.101109504699707 87.53046989440918,3.811001777648926 87.53046989440918,3.811001777648926 87.10217475891113,3.565669059753418 87.10217475891113,3.565669059753418 86.68746948242188,3.3662796020507812 86.68746948242188,3.3662796020507812 86.42587661743164,3.2678604125976562 86.42587661743164,3.2678604125976562 86.07621192932129,3.1668663024902344 86.07621192932129,3.1668663024902344 85.64801216125488,3.0655622482299805 85.64801216125488,3.0655622482299805 85.15076637268066,2.9662132263183594 85.15076637268066,2.9662132263183594 84.59408283233643,2.871060371398926 84.59408283233643,2.871060371398926 83.9874267578125,2.782440185546875 83.9874267578125,2.782440185546875 83.33420753479004,2.6979923248291016 83.33420753479004,2.6979923248291016 82.64188766479492,2.618694305419922 82.64188766479492,2.618694305419922 81.91647529602051,2.5446653366088867 81.91647529602051,2.5446653366088867 81.1638355255127,2.4757862091064453 81.1638355255127,2.4757862091064453 80.39000034332275,2.412128448486328 80.39000034332275,2.412128448486328 79.60090637207031,2.353668212890625 79.60090637207031,2.353668212890625 77.99932956695557,2.2516489028930664 77.99932956695557,2.2516489028930664 76.40516757965088,2.169513702392578 76.40516757965088,2.169513702392578 74.86453056335449,2.1066904067993164 74.86453056335449,2.1066904067993164 73.42338562011719,2.062511444091797 73.42338562011719,2.062511444091797 72.1278429031372,2.0365476608276367 72.1278429031372,2.0365476608276367 71.02394104003906,2.0280838012695312 71.02394104003906,2.0280838012695312 70.15142440795898,2.0291566848754883 70.15142440795898,2.0291566848754883 69.44942474365234,2.04470157623291 69.44942474365234,2.04470157623291 68.90287399291992,2.0812511444091797 68.90287399291992,2.0812511444091797 68.49663257598877,2.145242691040039 68.49663257598877,2.145242691040039 68.21558475494385,2.243328094482422 68.21558475494385,2.243328094482422" stroke="white" stroke-width="0.1" /><polygon points="67.59033203125,6.701087951660156 67.59033203125,6.701087951660156 67.58522987365723,6.844782829284668 67.58522987365723,6.844782829284668 67.58017539978027,6.9881439208984375 67.58017539978027,6.9881439208984375 67.57521629333496,7.131052017211914 67.57521629333496,7.131052017211914 67.57032871246338,7.273292541503906 67.57032871246338,7.273292541503906 67.56556034088135,7.414865493774414 67.56556034088135,7.414865493774414 67.56095886230469,7.555580139160156 67.56095886230469,7.555580139160156 90.83938598632812,7.555580139160156 90.83938598632812,7.555580139160156 90.7618761062622,7.393884658813477 90.7618761062622,7.393884658813477 90.68155288696289,7.234787940979004 90.68155288696289,7.234787940979004 90.59853553771973,7.078313827514648 90.59853553771973,7.078313827514648 90.51284790039062,6.9244384765625 90.51284790039062,6.9244384765625 90.42463302612305,6.773281097412109 90.42463302612305,6.773281097412109 90.33393859863281,6.624794006347656 90.33393859863281,6.624794006347656 67.5933837890625,6.624794006347656 67.5933837890625,6.624794006347656 67.59285926818848,6.637477874755859 67.59285926818848,6.637477874755859 67.59233474731445,6.6501617431640625 67.59233474731445,6.6501617431640625 67.59185791015625,6.662869453430176 67.59185791015625,6.662869453430176 67.59133338928223,6.675529479980469 67.59133338928223,6.675529479980469 67.59085655212402,6.6883087158203125 67.59085655212402,6.6883087158203125" stroke="white" stroke-width="0.1" /><polygon points="67.49610900878906,9.768295288085938 67.49610900878906,9.768295288085938 70.50909996032715,9.773635864257812 70.50909996032715,9.773635864257812 74.39525127410889,9.785175323486328 74.39525127410889,9.785175323486328 78.79834175109863,9.80520248413086 78.79834175109863,9.80520248413086 83.36200714111328,9.836101531982422 83.36200714111328,9.836101531982422 87.73009777069092,9.8801851272583 87.73009777069092,9.8801851272583 91.54624938964844,9.939956665039062 91.54624938964844,9.939956665039062 91.52059555053711,9.770750999450684 91.52059555053711,9.770750999450684 91.49200916290283,9.603285789489746 91.49200916290283,9.603285789489746 91.4604663848877,9.43760871887207 91.4604663848877,9.43760871887207 91.42587184906006,9.273743629455566 91.42587184906006,9.273743629455566 91.38824939727783,9.111952781677246 91.38824939727783,9.111952781677246 91.34750366210938,8.952140808105469 91.34750366210938,8.952140808105469 67.51823425292969,8.952140808105469 67.51823425292969,8.952140808105469 67.51410961151123,9.101247787475586 67.51410961151123,9.101247787475586 67.51012802124023,9.245514869689941 67.51012802124023,9.245514869689941 67.50631332397461,9.384679794311523 67.50631332397461,9.384679794311523 67.50266551971436,9.51836109161377 67.50266551971436,9.51836109161377 67.4992561340332,9.646320343017578 67.4992561340332,9.646320343017578" stroke="white" stroke-width="0.1" /><polygon points="94.87991333007812,16.748809814453125 94.87991333007812,16.748809814453125 95.08569240570068,17.10333824157715 95.08569240570068,17.10333824157715 95.42076587677002,17.45138168334961 95.42076587677002,17.45138168334961 95.81079483032227,17.76714324951172 95.81079483032227,17.76714324951172 96.18141651153564,18.024635314941406 96.18141651153564,18.024635314941406 96.45829200744629,18.198108673095703 96.45829200744629,18.198108673095703 96.56715393066406,18.26171875 96.56715393066406,18.26171875 96.04339599609375,11.395835876464844 96.04339599609375,11.395835876464844 95.94402313232422,11.419010162353516 95.94402313232422,11.419010162353516 95.69430351257324,11.484146118164062 95.69430351257324,11.484146118164062 95.36700248718262,11.584949493408203 95.36700248718262,11.584949493408203 95.03483772277832,11.714744567871094 95.03483772277832,11.714744567871094 94.77052688598633,11.867237091064453 94.77052688598633,11.867237091064453 94.64683532714844,12.035942077636719 94.64683532714844,12.035942077636719 94.62780952453613,12.457752227783203 94.62780952453613,12.457752227783203 94.62969303131104,13.257789611816406 94.62969303131104,13.257789611816406 94.65422630310059,14.261484146118164 94.65422630310059,14.261484146118164 94.70298290252686,15.294218063354492 94.70298290252686,15.294218063354492 94.77767944335938,16.181564331054688 94.77767944335938,16.181564331054688" stroke="white" stroke-width="0.1" /><polygon points="74.26948547363281,17.149925231933594 74.26948547363281,17.149925231933594 76.2338399887085,17.413902282714844 76.2338399887085,17.413902282714844 77.99901962280273,18.158817291259766 77.99901962280273,18.158817291259766 79.49457168579102,19.314289093017578 79.49457168579102,19.314289093017578 80.65001964569092,20.80988883972168 80.65001964569092,20.80988883972168 81.39498233795166,22.57513999938965 81.39498233795166,22.57513999938965 81.658935546875,24.539566040039062 81.658935546875,24.539566040039062 81.39493465423584,26.503944396972656 81.39493465423584,26.503944396972656 80.64999580383301,28.269100189208984 80.64999580383301,28.269100189208984 79.49457168579102,29.764652252197266 79.49457168579102,29.764652252197266 77.99901962280273,30.920124053955078 77.99901962280273,30.920124053955078 76.2338638305664,31.6650390625 76.2338638305664,31.6650390625 74.26948547363281,31.92901611328125 74.26948547363281,31.92901611328125 72.30508327484131,31.6650390625 72.30508327484131,31.6650390625 70.53992748260498,30.920028686523438 70.53992748260498,30.920028686523438 69.04439926147461,29.764652252197266 69.04439926147461,29.764652252197266 67.8889274597168,28.269100189208984 67.8889274597168,28.269100189208984 67.14401245117188,26.503944396972656 67.14401245117188,26.503944396972656 66.88003540039062,24.539566040039062 66.88003540039062,24.539566040039062 67.14398860931396,22.575092315673828 67.14398860931396,22.575092315673828 67.88890361785889,20.80984115600586 67.88890361785889,20.80984115600586 69.04439926147461,19.314289093017578 69.04439926147461,19.314289093017578 70.53992748260498,18.158817291259766 70.53992748260498,18.158817291259766 72.30513095855713,17.413902282714844 72.30513095855713,17.413902282714844 74.26948547363281,17.149925231933594 74.26948547363281,17.149925231933594" stroke="white" stroke-width="0.1" /><polygon points="13.324165344238281,17.149925231933594 13.324165344238281,17.149925231933594 15.288591384887695,17.413902282714844 15.288591384887695,17.413902282714844 17.053771018981934,18.158817291259766 17.053771018981934,18.158817291259766 18.549323081970215,19.314289093017578 18.549323081970215,19.314289093017578 19.704747200012207,20.80988883972168 19.704747200012207,20.80988883972168 20.44966220855713,22.57513999938965 20.44966220855713,22.57513999938965 20.71361541748047,24.539566040039062 20.71361541748047,24.539566040039062 20.44963836669922,26.503944396972656 20.44963836669922,26.503944396972656 19.704723358154297,28.269100189208984 19.704723358154297,28.269100189208984 18.549323081970215,29.764652252197266 18.549323081970215,29.764652252197266 17.053794860839844,30.920124053955078 17.053794860839844,30.920124053955078 15.288591384887695,31.6650390625 15.288591384887695,31.6650390625 13.324165344238281,31.92901611328125 13.324165344238281,31.92901611328125 11.359715461730957,31.6650390625 11.359715461730957,31.6650390625 9.594511985778809,30.920028686523438 9.594511985778809,30.920028686523438 8.099007606506348,29.764652252197266 8.099007606506348,29.764652252197266 6.943559646606445,28.269100189208984 6.943559646606445,28.269100189208984 6.198668479919434,26.503944396972656 6.198668479919434,26.503944396972656 5.934715270996094,24.539566040039062 5.934715270996094,24.539566040039062 6.198644638061523,22.575092315673828 6.198644638061523,22.575092315673828 6.943559646606445,20.80984115600586 6.943559646606445,20.80984115600586 8.099007606506348,19.314289093017578 8.099007606506348,19.314289093017578 9.594535827636719,18.158817291259766 9.594535827636719,18.158817291259766 11.359739303588867,17.413902282714844 11.359739303588867,17.413902282714844 13.324165344238281,17.149925231933594 13.324165344238281,17.149925231933594" stroke="white" stroke-width="0.1" /></svg>