<?xml version="1.0" encoding="utf-8" ?>
<svg baseProfile="full" height="28.02886962890625" version="1.1" width="100.0" xmlns="http://www.w3.org/2000/svg" xmlns:ev="http://www.w3.org/2001/xml-events" xmlns:xlink="http://www.w3.org/1999/xlink"><defs><clipPath /></defs><polygon points="88.41705322265625,5.9322357177734375 88.41705322265625,5.9322357177734375 93.76296997070312,6.6448211669921875 93.76296997070312,6.6448211669921875 93.87350082397461,6.624174118041992 93.87350082397461,6.624174118041992 94.07711029052734,6.490612030029297 94.07711029052734,6.490612030029297 94.34213638305664,6.297636032104492 94.34213638305664,6.297636032104492 94.63682174682617,6.098604202270508 94.63682174682617,6.098604202270508 94.92955207824707,5.947065353393555 94.92955207824707,5.947065353393555 95.18852233886719,5.8963775634765625 95.18852233886719,5.8963775634765625 95.42553424835205,5.9326171875 95.42553424835205,5.9326171875 95.67041397094727,6.019258499145508 95.67041397094727,6.019258499145508 95.91922760009766,6.1771392822265625 95.91922760009766,6.1771392822265625 96.16804122924805,6.4270734786987305 96.16804122924805,6.4270734786987305 96.41292095184326,6.789922714233398 96.41292095184326,6.789922714233398 96.64993286132812,7.2864532470703125 96.64993286132812,7.2864532470703125 96.88234329223633,7.930183410644531 96.88234329223633,7.930183410644531 97.11973667144775,8.669900894165039 97.11973667144775,8.669900894165039 97.36709594726562,9.429407119750977 97.36709594726562,9.429407119750977 97.62930870056152,10.132455825805664 97.62930870056152,10.132455825805664 97.91135787963867,10.702919960021973 97.91135787963867,10.702919960021973 98.21815490722656,11.064529418945312 98.21815490722656,11.064529418945312 98.55237007141113,11.279630661010742 98.55237007141113,11.279630661010742 98.89650344848633,11.46697998046875 98.89650344848633,11.46697998046875 99.224853515625,11.634588241577148 99.224853515625,11.634588241577148 99.51159954071045,11.790299415588379 99.51159954071045,11.790299415588379 99.73101615905762,11.942148208618164 99.73101615905762,11.942148208618164 99.85733032226562,12.097930908203125 99.85733032226562,12.097930908203125 99.91745948791504,12.25423812866211 99.91745948791504,12.25423812866211 99.9577283859253,12.39767074584961 99.9577283859253,12.39767074584961 99.9821662902832,12.52131462097168 99.9821662902832,12.52131462097168 99.99470710754395,12.618207931518555 99.99470710754395,12.618207931518555 99.99933242797852,12.681436538696289 99.99933242797852,12.681436538696289 100.0,12.704086303710938 100.0,12.704086303710938 99.18022155761719,12.881851196289062 99.18022155761719,12.881851196289062 99.20611381530762,12.988948822021484 99.20611381530762,12.988948822021484 99.26862716674805,13.27524185180664 99.26862716674805,13.27524185180664 99.34501647949219,13.688278198242188 99.34501647949219,13.688278198242188 99.41248893737793,14.17553424835205 99.41248893737793,14.17553424835205 99.44829940795898,14.684629440307617 99.44829940795898,14.684629440307617 99.42970275878906,15.163040161132812 99.42970275878906,15.163040161132812 99.38206672668457,15.612387657165527 99.38206672668457,15.612387657165527 99.34525489807129,16.048812866210938 99.34525489807129,16.048812866210938 99.31831359863281,16.441726684570312 99.31831359863281,16.441726684570312 99.30026531219482,16.76032543182373 99.30026531219482,16.76032543182373 99.29018020629883,16.97402000427246 99.29018020629883,16.97402000427246 99.28703308105469,17.052078247070312 99.28703308105469,17.052078247070312 99.33176040649414,17.03507900238037 99.33176040649414,17.03507900238037 99.44286346435547,16.999268531799316 99.44286346435547,16.999268531799316 99.58562850952148,16.967391967773438 99.58562850952148,16.967391967773438 99.72538948059082,16.962194442749023 99.72538948059082,16.962194442749023 99.82752799987793,17.006492614746094 99.82752799987793,17.006492614746094 99.85733032226562,17.123031616210938 99.85733032226562,17.123031616210938 99.81913566589355,17.33098030090332 99.81913566589355,17.33098030090332 99.75314140319824,17.61016845703125 99.75314140319824,17.61016845703125 99.67923164367676,17.925024032592773 99.67923164367676,17.925024032592773 99.61714744567871,18.239808082580566 99.61714744567871,18.239808082580566 99.58677291870117,18.518924713134766 99.58677291870117,18.518924713134766 99.60784912109375,18.726730346679688 99.60784912109375,18.726730346679688 99.67296123504639,18.910717964172363 99.67296123504639,18.910717964172363 99.74792003631592,19.12822723388672 99.74792003631592,19.12822723388672 99.81293678283691,19.359588623046875 99.81293678283691,19.359588623046875 99.84822273254395,19.58491802215576 99.84822273254395,19.58491802215576 99.83401298522949,19.78456974029541 99.83401298522949,19.78456974029541 99.75051879882812,19.93865966796875 99.75051879882812,19.93865966796875 99.57842826843262,20.12033462524414 99.57842826843262,20.12033462524414 99.33600425720215,20.382142066955566 99.33600425720215,20.382142066955566 99.05996322631836,20.673656463623047 99.05996322631836,20.673656463623047 98.78687858581543,20.94435691833496 98.78687858581543,20.94435691833496 98.553466796875,21.143817901611328 98.553466796875,21.143817901611328 98.39630126953125,21.221542358398438 98.39630126953125,21.221542358398438 97.82600402832031,21.221542358398438 97.82600402832031,21.221542358398438 97.80685901641846,21.311497688293457 97.80685901641846,21.311497688293457 97.74413108825684,21.537065505981445 97.74413108825684,21.537065505981445 97.62992858886719,21.831941604614258 97.62992858886719,21.831941604614258 97.45633602142334,22.12975025177002 97.45633602142334,22.12975025177002 97.21546173095703,22.364211082458496 97.21546173095703,22.364211082458496 96.8994140625,22.468948364257812 96.8994140625,22.468948364257812 96.39577865600586,22.478771209716797 96.39577865600586,22.478771209716797 95.68619728088379,22.475671768188477 95.68619728088379,22.475671768188477 94.90342140197754,22.464656829833984 94.90342140197754,22.464656829833984 94.18001174926758,22.450590133666992 94.18001174926758,22.450590133666992 93.64871978759766,22.438573837280273 93.64871978759766,22.438573837280273 93.44215393066406,22.4334716796875 93.44215393066406,22.4334716796875 93.18327903747559,22.49171733856201 93.18327903747559,22.49171733856201 92.51155853271484,22.63803482055664 92.51155853271484,22.63803482055664 91.58444404602051,22.829914093017578 91.58444404602051,22.829914093017578 90.55929183959961,23.024725914001465 90.55929183959961,23.024725914001465 89.59357738494873,23.180055618286133 89.59357738494873,23.180055618286133 88.84468078613281,23.253250122070312 88.84468078613281,23.253250122070312 88.4331464767456,23.28934669494629 88.4331464767456,23.28934669494629 87.9368782043457,23.369169235229492 87.9368782043457,23.369169235229492 87.36357688903809,23.48346710205078 87.36357688903809,23.48346710205078 86.72094345092773,23.622775077819824 86.72094345092773,23.622775077819824 86.01665496826172,23.77779483795166 86.01665496826172,23.77779483795166 85.25848388671875,23.939132690429688 85.25848388671875,23.939132690429688 85.43105125427246,23.4616756439209 85.43105125427246,23.4616756439209 85.5748176574707,22.971343994140625 85.5748176574707,22.971343994140625 85.68868637084961,22.469186782836914 85.68868637084961,22.469186782836914 85.77146530151367,21.95608615875244 85.77146530151367,21.95608615875244 85.82196235656738,21.433067321777344 85.82196235656738,21.433067321777344 85.83908081054688,20.901107788085938 85.83908081054688,20.901107788085938 85.54325103759766,18.70551109313965 85.54325103759766,18.70551109313965 84.7085952758789,16.730976104736328 84.7085952758789,16.730976104736328 83.4146499633789,15.056991577148438 83.4146499633789,15.056991577148438 81.74071311950684,13.762903213500977 81.74071311950684,13.762903213500977 79.76629734039307,12.928247451782227 79.76629734039307,12.928247451782227 77.57072448730469,12.632369995117188 77.57072448730469,12.632369995117188 75.37515163421631,12.928247451782227 75.37515163421631,12.928247451782227 73.40071201324463,13.762927055358887 73.40071201324463,13.762927055358887 71.72679901123047,15.056991577148438 71.72679901123047,15.056991577148438 70.4328179359436,16.730976104736328 70.4328179359436,16.730976104736328 69.59822177886963,18.70548725128174 69.59822177886963,18.70548725128174 69.3023681640625,20.901107788085938 69.3023681640625,20.901107788085938 69.33417320251465,21.62799835205078 69.33417320251465,21.62799835205078 69.42775249481201,22.33748435974121 69.42775249481201,22.33748435974121 69.58036422729492,23.02694320678711 69.58036422729492,23.02694320678711 69.78923082351685,23.69368076324463 69.78923082351685,23.69368076324463 70.05161046981812,24.335098266601562 70.05161046981812,24.335098266601562 70.36476135253906,24.948501586914062 70.36476135253906,24.948501586914062 69.72024440765381,24.891281127929688 69.72024440765381,24.891281127929688 68.44251155853271,24.754667282104492 68.44251155853271,24.754667282104492 66.77665710449219,24.57876205444336 66.77665710449219,24.57876205444336 64.96775150299072,24.4035005569458 64.96775150299072,24.4035005569458 63.260865211486816,24.26903247833252 63.260865211486816,24.26903247833252 61.901092529296875,24.215316772460938 61.901092529296875,24.215316772460938 59.086430072784424,24.214982986450195 59.086430072784424,24.214982986450195 53.72140407562256,24.21269416809082 53.72140407562256,24.21269416809082 47.110891342163086,24.20644760131836 47.110891342163086,24.20644760131836 40.55972099304199,24.19426441192627 40.55972099304199,24.19426441192627 35.37275791168213,24.174213409423828 35.37275791168213,24.174213409423828 32.85484313964844,24.144363403320312 32.85484313964844,24.144363403320312 32.28118419647217,24.100065231323242 32.28118419647217,24.100065231323242 31.671202182769775,24.01742935180664 31.671202182769775,24.01742935180664 31.053829193115234,23.894119262695312 31.053829193115234,23.894119262695312 30.457937717437744,23.7276554107666 30.457937717437744,23.7276554107666 29.91243600845337,23.515725135803223 29.91243600845337,23.515725135803223 29.44622039794922,23.25592041015625 29.44622039794922,23.25592041015625 29.548823833465576,22.87895679473877 29.548823833465576,22.87895679473877 29.634034633636475,22.495198249816895 29.634034633636475,22.495198249816895 29.70130443572998,22.105121612548828 29.70130443572998,22.105121612548828 29.75003719329834,21.709108352661133 29.75003719329834,21.709108352661133 29.779720306396484,21.30763530731201 29.779720306396484,21.30763530731201 29.78973388671875,20.901107788085938 29.78973388671875,20.901107788085938 29.49388027191162,18.70551109313965 29.49388027191162,18.70551109313965 28.65927219390869,16.730976104736328 28.65927219390869,16.730976104736328 27.36530303955078,15.056991577148438 27.36530303955078,15.056991577148438 25.69139003753662,13.762903213500977 25.69139003753662,13.762903213500977 23.71695041656494,12.928247451782227 23.71695041656494,12.928247451782227 21.521377563476562,12.632369995117188 21.521377563476562,12.632369995117188 19.325804710388184,12.928247451782227 19.325804710388184,12.928247451782227 17.351365089416504,13.762927055358887 17.351365089416504,13.762927055358887 15.677452087402344,15.056991577148438 15.677452087402344,15.056991577148438 14.383482933044434,16.730976104736328 14.383482933044434,16.730976104736328 13.548874855041504,18.70548725128174 13.548874855041504,18.70548725128174 13.253021240234375,20.901107788085938 13.253021240234375,20.901107788085938 13.28272819519043,21.605253219604492 13.28272819519043,21.605253219604492 13.370227813720703,22.29318618774414 13.370227813720703,22.29318618774414 13.51313591003418,22.962522506713867 13.51313591003418,22.962522506713867 13.709032535552979,23.610806465148926 13.709032535552979,23.610806465148926 13.955521583557129,24.23572540283203 13.955521583557129,24.23572540283203 14.25018310546875,24.834823608398438 14.25018310546875,24.834823608398438 13.962292671203613,24.91176128387451 13.962292671203613,24.91176128387451 13.67267370223999,24.974560737609863 13.67267370223999,24.974560737609863 13.38348388671875,25.020790100097656 13.38348388671875,25.020790100097656 13.096892833709717,25.047922134399414 13.096892833709717,25.047922134399414 12.815093994140625,25.0535249710083 12.815093994140625,25.0535249710083 12.540245056152344,25.03509521484375 12.540245056152344,25.03509521484375 11.606311798095703,24.930119514465332 11.606311798095703,24.930119514465332 10.652589797973633,24.837017059326172 10.652589797973633,24.837017059326172 9.671163558959961,24.767732620239258 9.671163558959961,24.767732620239258 8.654093742370605,24.734044075012207 8.654093742370605,24.734044075012207 7.59347677230835,24.747920036315918 7.59347677230835,24.747920036315918 6.481361389160156,24.821090698242188 6.481361389160156,24.821090698242188 5.243921279907227,24.926137924194336 5.243921279907227,24.926137924194336 3.899550437927246,25.019240379333496 3.899550437927246,25.019240379333496 2.578902244567871,25.08859634399414 2.578902244567871,25.08859634399414 1.4126777648925781,25.12223720550537 1.4126777648925781,25.12223720550537 0.5315303802490234,25.10838508605957 0.5315303802490234,25.10838508605957 0.06618499755859375,25.03509521484375 0.06618499755859375,25.03509521484375 0.018024444580078125,24.902725219726562 0.018024444580078125,24.902725219726562 0.22727251052856445,24.736738204956055 0.22727251052856445,24.736738204956055 0.5830287933349609,24.562883377075195 0.5830287933349609,24.562883377075195 0.9744167327880859,24.406838417053223 0.9744167327880859,24.406838417053223 1.290571689605713,24.294376373291016 1.290571689605713,24.294376373291016 1.42059326171875,24.251174926757812 1.42059326171875,24.251174926757812 1.4463305473327637,24.14391040802002 1.4463305473327637,24.14391040802002 1.5076875686645508,23.868274688720703 1.5076875686645508,23.868274688720703 1.5809297561645508,23.493671417236328 1.5809297561645508,23.493671417236328 1.642298698425293,23.08933734893799 1.642298698425293,23.08933734893799 1.6680359840393066,22.72467613220215 1.6680359840393066,22.72467613220215 1.6344070434570312,22.468948364257812 1.6344070434570312,22.468948364257812 1.5397310256958008,22.311925888061523 1.5397310256958008,22.311925888061523 1.4232635498046875,22.186613082885742 1.4232635498046875,22.186613082885742 1.322627067565918,22.077131271362305 1.322627067565918,22.077131271362305 1.2754440307617188,21.967577934265137 1.2754440307617188,21.967577934265137 1.3193368911743164,21.842169761657715 1.3193368911743164,21.842169761657715 1.4919281005859375,21.685028076171875 1.4919281005859375,21.685028076171875 1.531517505645752,21.663761138916016 1.531517505645752,21.663761138916016 1.6304850578308105,21.597886085510254 1.6304850578308105,21.597886085510254 1.7591476440429688,21.48451805114746 1.7591476440429688,21.48451805114746 1.8877983093261719,21.320605278015137 1.8877983093261719,21.320605278015137 1.9867777824401855,21.103215217590332 1.9867777824401855,21.103215217590332 2.0263671875,20.829391479492188 2.0263671875,20.829391479492188 2.026033401489258,20.455241203308105 2.026033401489258,20.455241203308105 2.01185941696167,19.98600959777832 2.01185941696167,19.98600959777832 1.9640207290649414,19.49305534362793 1.9640207290649414,19.49305534362793 1.8627285957336426,19.04757022857666 1.8627285957336426,19.04757022857666 1.6881823539733887,18.72096061706543 1.6881823539733887,18.72096061706543 1.42059326171875,18.584442138671875 1.42059326171875,18.584442138671875 1.1374115943908691,18.56684684753418 1.1374115943908691,18.56684684753418 0.9255290031433105,18.526411056518555 0.9255290031433105,18.526411056518555 0.7790088653564453,18.428564071655273 0.7790088653564453,18.428564071655273 0.6919026374816895,18.23856830596924 0.6919026374816895,18.23856830596924 0.658261775970459,17.921900749206543 0.658261775970459,17.921900749206543 0.672149658203125,17.44384765625 0.672149658203125,17.44384765625 0.8249521255493164,16.791057586669922 0.8249521255493164,16.791057586669922 1.2292146682739258,16.010475158691406 1.2292146682739258,16.010475158691406 1.9106626510620117,15.158605575561523 1.9106626510620117,15.158605575561523 2.895045280456543,14.291763305664062 2.895045280456543,14.291763305664062 4.208099842071533,13.466525077819824 4.208099842071533,13.466525077819824 5.875587463378906,12.739181518554688 5.875587463378906,12.739181518554688 7.822906970977783,12.055730819702148 7.822906970977783,12.055730819702148 10.013759136199951,11.345481872558594 10.013759136199951,11.345481872558594 12.531304359436035,10.641145706176758 12.531304359436035,10.641145706176758 15.45867919921875,9.975337982177734 15.45867919921875,9.975337982177734 18.879055976867676,9.380793571472168 18.879055976867676,9.380793571472168 22.875595092773438,8.890151977539062 22.875595092773438,8.890151977539062 26.5669584274292,8.548831939697266 26.5669584274292,8.548831939697266 29.157447814941406,8.356928825378418 29.157447814941406,8.356928825378418 30.858922004699707,8.279895782470703 30.858922004699707,8.279895782470703 31.88323974609375,8.282995223999023 31.88323974609375,8.282995223999023 32.442259788513184,8.331656455993652 32.442259788513184,8.331656455993652 32.747840881347656,8.391189575195312 32.747840881347656,8.391189575195312 32.9991340637207,8.446574211120605 32.9991340637207,8.446574211120605 33.249449729919434,8.500862121582031 33.249449729919434,8.500862121582031 33.49184989929199,8.547258377075195 33.49184989929199,8.547258377075195 33.71939659118652,8.578753471374512 33.71939659118652,8.578753471374512 33.92517566680908,8.588552474975586 33.92517566680908,8.588552474975586 34.10224914550781,8.569717407226562 34.10224914550781,8.569717407226562 34.57839488983154,8.351922035217285 34.57839488983154,8.351922035217285 35.606980323791504,7.825207710266113 35.606980323791504,7.825207710266113 37.06920146942139,7.072782516479492 37.06920146942139,7.072782516479492 38.84624242782593,6.177759170532227 38.84624242782593,6.177759170532227 40.81931114196777,5.223345756530762 40.81931114196777,5.223345756530762 42.86956787109375,4.2926788330078125 42.86956787109375,4.2926788330078125 44.845736026763916,3.3870697021484375 44.845736026763916,3.3870697021484375 46.7634916305542,2.4883270263671875 46.7634916305542,2.4883270263671875 48.75452518463135,1.6509532928466797 48.75452518463135,1.6509532928466797 50.95047950744629,0.9293794631958008 50.95047950744629,0.9293794631958008 53.48302125930786,0.37806034088134766 53.48302125930786,0.37806034088134766 56.48384094238281,0.0514984130859375 56.48384094238281,0.0514984130859375 59.960079193115234,0.03578662872314453 59.960079193115234,0.03578662872314453 63.70556354522705,0.3288745880126953 63.70556354522705,0.3288745880126953 67.53220558166504,0.8535861968994141 67.53220558166504,0.8535861968994141 71.25191688537598,1.5326738357543945 71.25191688537598,1.5326738357543945 74.67670440673828,2.288985252380371 74.67670440673828,2.288985252380371 77.618408203125,3.0452728271484375 77.618408203125,3.0452728271484375 80.24976253509521,3.7665605545043945 80.24976253509521,3.7665605545043945 82.76231288909912,4.443264007568359 82.76231288909912,4.443264007568359 84.99569892883301,5.036783218383789 84.99569892883301,5.036783218383789 86.78951263427734,5.508518218994141 86.78951263427734,5.508518218994141 87.98344135284424,5.819869041442871 87.98344135284424,5.819869041442871" stroke="white" stroke-width="0.1" /><polygon points="28.649330139160156,20.901107788085938 28.649330139160156,20.901107788085938 28.394699096679688,22.796010971069336 28.394699096679688,22.796010971069336 27.67612934112549,24.498677253723145 27.67612934112549,24.498677253723145 26.561570167541504,25.94127655029297 26.561570167541504,25.94127655029297 25.11894702911377,27.055740356445312 25.11894702911377,27.055740356445312 23.416244983673096,27.7742862701416 23.416244983673096,27.7742862701416 21.521377563476562,28.02886962890625 21.521377563476562,28.02886962890625 20.228159427642822,27.911710739135742 20.228159427642822,27.911710739135742 19.012165069580078,27.57422924041748 19.012165069580078,27.57422924041748 17.89400577545166,27.03719139099121 17.89400577545166,27.03719139099121 16.894304752349854,26.32129192352295 16.894304752349854,26.32129192352295 16.0336971282959,25.447368621826172 16.0336971282959,25.447368621826172 15.332794189453125,24.436187744140625 15.332794189453125,24.436187744140625 15.056037902832031,23.90162944793701 15.056037902832031,23.90162944793701 14.824080467224121,23.342156410217285 14.824080467224121,23.342156410217285 14.63937759399414,22.76005744934082 14.63937759399414,22.76005744934082 14.504384994506836,22.157621383666992 14.504384994506836,22.157621383666992 14.421582221984863,21.537208557128906 14.421582221984863,21.537208557128906 14.393424987792969,20.901107788085938 14.393424987792969,20.901107788085938 14.648032188415527,19.00615692138672 14.648032188415527,19.00615692138672 15.366578102111816,17.30337142944336 15.366578102111816,17.30337142944336 16.48111343383789,15.860748291015625 16.48111343383789,15.860748291015625 17.923712730407715,14.74616527557373 17.923712730407715,14.74616527557373 19.626450538635254,14.027595520019531 19.626450538635254,14.027595520019531 21.521377563476562,13.772964477539062 21.521377563476562,13.772964477539062 23.389005661010742,14.020228385925293 23.389005661010742,14.020228385925293 25.07089376449585,14.71869945526123 25.07089376449585,14.71869945526123 26.502227783203125,15.80348014831543 26.502227783203125,15.80348014831543 27.61821746826172,17.209529876708984 27.61821746826172,17.209529876708984 28.35404872894287,18.87190341949463 28.35404872894287,18.87190341949463 28.644943237304688,20.725631713867188 28.644943237304688,20.725631713867188 28.645730018615723,20.754671096801758 28.645730018615723,20.754671096801758 28.64665985107422,20.78380584716797 28.64665985107422,20.78380584716797 28.647637367248535,20.81308364868164 28.647637367248535,20.81308364868164 28.648483753204346,20.842385292053223 28.648483753204346,20.842385292053223 28.64910364151001,20.871734619140625 28.64910364151001,20.871734619140625" stroke="white" stroke-width="0.1" /><polygon points="84.69886779785156,20.901107788085938 84.69886779785156,20.901107788085938 84.67473983764648,21.489787101745605 84.67473983764648,21.489787101745605 84.60373878479004,22.065162658691406 84.60373878479004,22.065162658691406 84.48781967163086,22.625446319580078 84.48781967163086,22.625446319580078 84.3289852142334,23.16873073577881 84.3289852142334,23.16873073577881 84.12923812866211,23.693203926086426 84.12923812866211,23.693203926086426 83.89053344726562,24.197006225585938 83.89053344726562,24.197006225585938 83.19988250732422,25.27146339416504 83.19988250732422,25.27146339416504 82.33351707458496,26.20241641998291 82.33351707458496,26.20241641998291 81.31442070007324,26.96681022644043 81.31442070007324,26.96681022644043 80.16557693481445,27.541399002075195 80.16557693481445,27.541399002075195 78.9100170135498,27.903175354003906 78.9100170135498,27.903175354003906 77.57072448730469,28.02886962890625 77.57072448730469,28.02886962890625 76.38106346130371,27.9299259185791 76.38106346130371,27.9299259185791 75.25496482849121,27.643895149230957 75.25496482849121,27.643895149230957 74.20845031738281,27.18682289123535 74.20845031738281,27.18682289123535 73.25739860534668,26.57475471496582 73.25739860534668,26.57475471496582 72.41783142089844,25.82383155822754 72.41783142089844,25.82383155822754 71.70562744140625,24.950027465820312 71.70562744140625,24.950027465820312 71.3357925415039,24.355363845825195 71.3357925415039,24.355363845825195 71.02460861206055,23.723626136779785 71.02460861206055,23.723626136779785 70.7758903503418,23.058605194091797 70.7758903503418,23.058605194091797 70.59347629547119,22.363996505737305 70.59347629547119,22.363996505737305 70.48122882843018,21.643590927124023 70.48122882843018,21.643590927124023 70.44296264648438,20.901107788085938 70.44296264648438,20.901107788085938 70.69754600524902,19.00615692138672 70.69754600524902,19.00615692138672 71.41604423522949,17.30337142944336 71.41604423522949,17.30337142944336 72.53055572509766,15.860748291015625 72.53055572509766,15.860748291015625 73.97310733795166,14.74616527557373 73.97310733795166,14.74616527557373 75.67582130432129,14.027595520019531 75.67582130432129,14.027595520019531 77.57072448730469,13.772964477539062 77.57072448730469,13.772964477539062 79.4656753540039,14.027571678161621 79.4656753540039,14.027571678161621 81.16841316223145,14.74614143371582 81.16841316223145,14.74614143371582 82.611083984375,15.860748291015625 82.611083984375,15.860748291015625 83.7256669998169,17.30339527130127 83.7256669998169,17.30339527130127 84.4442367553711,19.00618076324463 84.4442367553711,19.00618076324463" stroke="white" stroke-width="0.1" /><polygon points="55.117034912109375,2.083587646484375 55.117034912109375,2.083587646484375 53.65715026855469,2.3107051849365234 53.65715026855469,2.3107051849365234 52.22892761230469,2.6018381118774414 52.22892761230469,2.6018381118774414 50.733375549316406,3.0487537384033203 50.733375549316406,3.0487537384033203 49.07149076461792,3.743124008178711 49.07149076461792,3.743124008178711 47.144317626953125,4.776716232299805 47.144317626953125,4.776716232299805 44.85282897949219,6.2412261962890625 44.85282897949219,6.2412261962890625 44.95062828063965,6.254005432128906 44.95062828063965,6.254005432128906 45.199573040008545,6.303763389587402 45.199573040008545,6.303763389587402 45.533013343811035,6.407642364501953 45.533013343811035,6.407642364501953 45.88425159454346,6.582784652709961 45.88425159454346,6.582784652709961 46.18666172027588,6.846356391906738 46.18666172027588,6.846356391906738 46.373558044433594,7.2154998779296875 46.373558044433594,7.2154998779296875 46.46364450454712,7.593584060668945 46.46364450454712,7.593584060668945 46.52402400970459,7.879233360290527 46.52402400970459,7.879233360290527 46.56064510345459,8.083009719848633 46.56064510345459,8.083009719848633 46.57944440841675,8.215475082397461 46.57944440841675,8.215475082397461 46.58637046813965,8.287215232849121 46.58637046813965,8.287215232849121 46.587371826171875,8.308792114257812 46.587371826171875,8.308792114257812 63.88435363769531,7.8571319580078125 63.88435363769531,7.8571319580078125 63.78955841064453,2.8438568115234375 63.78955841064453,2.8438568115234375 63.35669755935669,2.756214141845703 63.35669755935669,2.756214141845703 62.211668491363525,2.5464534759521484 62.211668491363525,2.5464534759521484 60.58483123779297,2.294492721557617 60.58483123779297,2.294492721557617 58.70654582977295,2.080106735229492 58.70654582977295,2.080106735229492 56.80716037750244,1.983189582824707 56.80716037750244,1.983189582824707" stroke="white" stroke-width="0.1" /><polygon points="70.63217163085938,5.1486968994140625 70.63217163085938,5.1486968994140625 69.91875171661377,4.7829389572143555 69.91875171661377,4.7829389572143555 68.91692876815796,4.3769121170043945 68.91692876815796,4.3769121170043945 67.76597499847412,3.969573974609375 67.76597499847412,3.969573974609375 66.60513877868652,3.599834442138672 66.60513877868652,3.599834442138672 65.57371616363525,3.306746482849121 65.57371616363525,3.306746482849121 64.81094360351562,3.1291961669921875 64.81094360351562,3.1291961669921875 64.83478546142578,7.8334808349609375 64.83478546142578,7.8334808349609375 65.16003608703613,7.820844650268555 65.16003608703613,7.820844650268555 65.98751544952393,7.7797651290893555 65.98751544952393,7.7797651290893555 67.09485054016113,7.7056884765625 67.09485054016113,7.7056884765625 68.25960874557495,7.593941688537598 68.25960874557495,7.593941688537598 69.25942897796631,7.439994812011719 69.25942897796631,7.439994812011719 69.87190246582031,7.2391510009765625 69.87190246582031,7.2391510009765625 70.24004459381104,6.9739580154418945 70.24004459381104,6.9739580154418945 70.6075668334961,6.644630432128906 70.6075668334961,6.644630432128906 70.90249061584473,6.274318695068359 70.90249061584473,6.274318695068359 71.05286121368408,5.886125564575195 71.05286121368408,5.886125564575195 70.98674774169922,5.503225326538086 70.98674774169922,5.503225326538086" stroke="white" stroke-width="0.1" /><polygon points="2.7505874633789062,15.769195556640625 2.7505874633789062,15.769195556640625 3.3541202545166016,15.946459770202637 3.3541202545166016,15.946459770202637 4.3318986892700195,16.02349281311035 4.3318986892700195,16.02349281311035 5.468082427978516,16.0306453704834 5.468082427978516,16.0306453704834 6.5468549728393555,15.998196601867676 6.5468549728393555,15.998196601867676 7.352399826049805,15.956497192382812 7.352399826049805,15.956497192382812 7.668876647949219,15.935897827148438 7.668876647949219,15.935897827148438 7.719254493713379,15.856456756591797 7.719254493713379,15.856456756591797 7.858061790466309,15.641021728515625 7.858061790466309,15.641021728515625 8.066821098327637,15.323925018310547 8.066821098327637,15.323925018310547 8.327066898345947,14.939498901367188 8.327066898345947,14.939498901367188 8.62032175064087,14.522075653076172 8.62032175064087,14.522075653076172 8.928108215332031,14.105987548828125 8.928108215332031,14.105987548828125 9.163343906402588,13.72978687286377 9.163343906402588,13.72978687286377 9.258031845092773,13.408303260803223 9.258031845092773,13.408303260803223 9.222078323364258,13.14091682434082 9.222078323364258,13.14091682434082 9.065353870391846,12.926936149597168 9.065353870391846,12.926936149597168 8.797740936279297,12.765765190124512 8.797740936279297,12.765765190124512 8.429145812988281,12.656784057617188 8.429145812988281,12.656784057617188 7.944297790527344,12.658452987670898 7.944297790527344,12.658452987670898 7.346642017364502,12.804603576660156 7.346642017364502,12.804603576660156 6.673765182495117,13.057708740234375 6.673765182495117,13.057708740234375 5.963277816772461,13.380098342895508 5.963277816772461,13.380098342895508 5.252790451049805,13.734173774719238 5.252790451049805,13.734173774719238 4.579925537109375,14.08233642578125 4.579925537109375,14.08233642578125 3.9800405502319336,14.425230026245117 3.9800405502319336,14.425230026245117 3.474915027618408,14.7735595703125 3.474915027618408,14.7735595703125 3.081965446472168,15.10472297668457 3.081965446472168,15.10472297668457 2.818632125854492,15.39607048034668 2.818632125854492,15.39607048034668 2.7023673057556152,15.62511920928955 2.7023673057556152,15.62511920928955" stroke="white" stroke-width="0.1" /></svg>