<?xml version="1.0" encoding="utf-8" ?>
<svg baseProfile="full" height="44.69623565673828" version="1.1" width="99.98054504394531" xmlns="http://www.w3.org/2000/svg" xmlns:ev="http://www.w3.org/2001/xml-events" xmlns:xlink="http://www.w3.org/1999/xlink"><defs><clipPath /></defs><polygon points="99.98054504394531,22.760772705078125 99.98054504394531,22.760772705078125 99.96004104614258,23.07426929473877 99.96004104614258,23.07426929473877 99.75380897521973,23.41744899749756 99.75380897521973,23.41744899749756 99.44634437561035,23.75173568725586 99.44634437561035,23.75173568725586 99.12211894989014,24.038338661193848 99.12211894989014,24.038338661193848 98.86562824249268,24.2387056350708 98.86562824249268,24.2387056350708 98.76136779785156,24.314117431640625 98.76136779785156,24.314117431640625 98.69327545166016,24.668312072753906 98.69327545166016,24.668312072753906 98.50947856903076,25.578022003173828 98.50947856903076,25.578022003173828 98.24070930480957,26.813793182373047 98.24070930480957,26.813793182373047 97.91765213012695,28.14621925354004 97.91765213012695,28.14621925354004 97.57106304168701,29.346036911010742 97.57106304168701,29.346036911010742 97.23167419433594,30.183792114257812 97.23167419433594,30.183792114257812 97.07603454589844,30.440211296081543 97.07603454589844,30.440211296081543 96.89536094665527,30.695772171020508 96.89536094665527,30.695772171020508 96.68941497802734,30.9462308883667 96.68941497802734,30.9462308883667 96.45788669586182,31.18722438812256 96.45788669586182,31.18722438812256 96.2005615234375,31.41453266143799 96.2005615234375,31.41453266143799 95.91712951660156,31.62384033203125 95.91712951660156,31.62384033203125 94.9167251586914,28.960418701171875 94.9167251586914,28.960418701171875 93.37544441223145,26.62029266357422 93.37544441223145,26.62029266357422 91.37167930603027,24.67942237854004 91.37167930603027,24.67942237854004 88.98382186889648,23.213577270507812 88.98382186889648,23.213577270507812 86.29043102264404,22.298765182495117 86.29043102264404,22.298765182495117 83.36982727050781,22.01080322265625 83.36982727050781,22.01080322265625 80.00164031982422,22.522521018981934 80.00164031982422,22.522521018981934 76.98731422424316,23.85702133178711 76.98731422424316,23.85702133178711 74.44696426391602,25.890088081359863 74.44696426391602,25.890088081359863 72.5006103515625,28.49752902984619 72.5006103515625,28.49752902984619 71.26834392547607,31.55515193939209 71.26834392547607,31.55515193939209 70.87020874023438,34.938812255859375 70.87020874023438,34.938812255859375 70.87311744689941,35.07094383239746 70.87311744689941,35.07094383239746 70.87748050689697,35.202693939208984 70.87748050689697,35.202693939208984 70.88332176208496,35.334062576293945 70.88332176208496,35.334062576293945 70.89049816131592,35.465049743652344 70.89049816131592,35.465049743652344 70.89900970458984,35.595703125 70.89900970458984,35.595703125 70.90873718261719,35.726165771484375 70.90873718261719,35.726165771484375 70.11387348175049,35.608577728271484 70.11387348175049,35.608577728271484 68.81017684936523,35.46428680419922 68.81017684936523,35.46428680419922 66.94543361663818,35.320496559143066 66.94543361663818,35.320496559143066 64.46731090545654,35.204410552978516 64.46731090545654,35.204410552978516 61.32354736328125,35.143327713012695 61.32354736328125,35.143327713012695 57.46192932128906,35.164451599121094 57.46192932128906,35.164451599121094 52.42304801940918,35.242271423339844 52.42304801940918,35.242271423339844 47.799015045166016,35.30240058898926 47.799015045166016,35.30240058898926 43.813371658325195,35.34646034240723 43.813371658325195,35.34646034240723 40.689659118652344,35.37592887878418 40.689659118652344,35.37592887878418 38.65153789520264,35.39252281188965 38.65153789520264,35.39252281188965 37.92247772216797,35.39772033691406 37.92247772216797,35.39772033691406 22.669219970703125,35.20374298095703 22.669219970703125,35.20374298095703 22.123074531555176,32.45506286621094 22.123074531555176,32.45506286621094 20.931386947631836,30.005288124084473 20.931386947631836,30.005288124084473 19.19078826904297,27.94806957244873 19.19078826904297,27.94806957244873 16.99802875518799,26.376748085021973 16.99802875518799,26.376748085021973 14.449787139892578,25.384974479675293 14.449787139892578,25.384974479675293 11.642837524414062,25.066184997558594 11.642837524414062,25.066184997558594 10.440397262573242,25.15273094177246 10.440397262573242,25.15273094177246 9.278106689453125,25.36640167236328 9.278106689453125,25.36640167236328 8.162856101989746,25.699949264526367 8.162856101989746,25.699949264526367 7.101559638977051,26.14614963531494 7.101559638977051,26.14614963531494 6.1011552810668945,26.697897911071777 6.1011552810668945,26.697897911071777 5.1685333251953125,27.347946166992188 5.1685333251953125,27.347946166992188 4.905891418457031,26.086044311523438 4.905891418457031,26.086044311523438 3.4711837768554688,26.206016540527344 3.4711837768554688,26.206016540527344 3.7584304809570312,28.661537170410156 3.7584304809570312,28.661537170410156 3.5385608673095703,28.912925720214844 3.5385608673095703,28.912925720214844 3.3264636993408203,29.170989990234375 3.3264636993408203,29.170989990234375 3.122282028198242,29.43558692932129 3.122282028198242,29.43558692932129 2.9261112213134766,29.706478118896484 2.9261112213134766,29.706478118896484 2.738189697265625,29.98354434967041 2.738189697265625,29.98354434967041 2.5585174560546875,30.266571044921875 2.5585174560546875,30.266571044921875 2.1961212158203125,30.155181884765625 2.1961212158203125,30.155181884765625 2.0343780517578125,26.230239868164062 2.0343780517578125,26.230239868164062 1.878213882446289,26.200485229492188 1.878213882446289,26.200485229492188 1.4894962310791016,26.108098030090332 1.4894962310791016,26.108098030090332 0.9878635406494141,25.948452949523926 0.9878635406494141,25.948452949523926 0.49300193786621094,25.716805458068848 0.49300193786621094,25.716805458068848 0.12459754943847656,25.408577919006348 0.12459754943847656,25.408577919006348 0.002288818359375,25.019073486328125 0.002288818359375,25.019073486328125 0.31893253326416016,24.572396278381348 0.31893253326416016,24.572396278381348 1.0480403900146484,24.121427536010742 1.0480403900146484,24.121427536010742 1.979994773864746,23.70433807373047 1.979994773864746,23.70433807373047 2.9051780700683594,23.359155654907227 2.9051780700683594,23.359155654907227 3.614020347595215,23.124122619628906 3.614020347595215,23.124122619628906 3.8969039916992188,23.037338256835938 3.8969039916992188,23.037338256835938 3.9371252059936523,22.766566276550293 3.9371252059936523,22.766566276550293 4.047584533691406,22.087407112121582 4.047584533691406,22.087407112121582 4.213094711303711,21.199798583984375 4.213094711303711,21.199798583984375 4.418349266052246,20.30351161956787 4.418349266052246,20.30351161956787 4.648137092590332,19.59841251373291 4.648137092590332,19.59841251373291 4.887199401855469,19.284439086914062 4.887199401855469,19.284439086914062 5.498766899108887,18.909072875976562 5.498766899108887,18.909072875976562 6.838846206665039,18.02389621734619 6.838846206665039,18.02389621734619 8.881664276123047,16.834139823913574 8.881664276123047,16.834139823913574 11.60135269165039,15.545177459716797 11.60135269165039,15.545177459716797 14.972209930419922,14.362359046936035 14.972209930419922,14.362359046936035 18.96839141845703,13.491058349609375 18.96839141845703,13.491058349609375 22.932720184326172,12.968254089355469 22.932720184326172,12.968254089355469 26.214027404785156,12.659287452697754 26.214027404785156,12.659287452697754 28.795456886291504,12.511157989501953 28.795456886291504,12.511157989501953 30.660176277160645,12.47091293334961 30.660176277160645,12.47091293334961 31.791377067565918,12.485575675964355 31.791377067565918,12.485575675964355 32.172203063964844,12.502288818359375 32.172203063964844,12.502288818359375 32.45227336883545,11.803460121154785 32.45227336883545,11.803460121154785 33.25181007385254,10.028767585754395 33.25181007385254,10.028767585754395 34.50968265533447,7.660913467407227 34.50968265533447,7.660913467407227 36.16487979888916,5.182552337646484 36.16487979888916,5.182552337646484 38.1563663482666,3.076457977294922 38.1563663482666,3.076457977294922 40.423011779785156,1.8253326416015625 40.423011779785156,1.8253326416015625 43.202877044677734,1.1880874633789062 43.202877044677734,1.1880874633789062 46.63352966308594,0.6383895874023438 46.63352966308594,0.6383895874023438 50.50301551818848,0.2303600311279297 50.50301551818848,0.2303600311279297 54.59926128387451,0.01811981201171875 54.59926128387451,0.01811981201171875 58.710408210754395,0.05576610565185547 58.710408210754395,0.05576610565185547 62.624359130859375,0.397491455078125 62.624359130859375,0.397491455078125 66.10119342803955,1.0224342346191406 66.10119342803955,1.0224342346191406 69.11048889160156,1.8600940704345703 69.11048889160156,1.8600940704345703 71.7557430267334,2.8902292251586914 71.7557430267334,2.8902292251586914 74.14040565490723,4.09238338470459 74.14040565490723,4.09238338470459 76.36799812316895,5.446267127990723 76.36799812316895,5.446267127990723 78.54194641113281,6.931495666503906 78.54194641113281,6.931495666503906 80.6753396987915,8.49003791809082 80.6753396987915,8.49003791809082 82.64570236206055,10.006046295166016 82.64570236206055,10.006046295166016 84.35282707214355,11.372137069702148 84.35282707214355,11.372137069702148 85.69633960723877,12.480878829956055 85.69633960723877,12.480878829956055 86.5760326385498,13.22488784790039 86.5760326385498,13.22488784790039 86.89155578613281,13.496780395507812 86.89155578613281,13.496780395507812 87.09397315979004,13.586091995239258 87.09397315979004,13.586091995239258 87.60995864868164,13.811159133911133 87.60995864868164,13.811159133911133 88.30275535583496,14.107799530029297 88.30275535583496,14.107799530029297 89.03555870056152,14.411711692810059 89.03555870056152,14.411711692810059 89.67161178588867,14.658737182617188 89.67161178588867,14.658737182617188 90.07415771484375,14.784622192382812 90.07415771484375,14.784622192382812 90.27643203735352,14.879179000854492 90.27643203735352,14.879179000854492 90.40541648864746,15.052127838134766 90.40541648864746,15.052127838134766 90.46587944030762,15.268874168395996 90.46587944030762,15.268874168395996 90.46258926391602,15.494632720947266 90.46258926391602,15.494632720947266 90.40036201477051,15.694856643676758 90.40036201477051,15.694856643676758 90.28396606445312,15.834808349609375 90.28396606445312,15.834808349609375 90.122389793396,15.960836410522461 90.122389793396,15.960836410522461 89.93749618530273,16.124510765075684 89.93749618530273,16.124510765075684 89.75281715393066,16.298818588256836 89.75281715393066,16.298818588256836 89.59178924560547,16.4567232131958 89.59178924560547,16.4567232131958 89.47796821594238,16.5712833404541 89.47796821594238,16.5712833404541 89.434814453125,16.61548614501953 89.434814453125,16.61548614501953 91.78314208984375,19.545936584472656 91.78314208984375,19.545936584472656 93.65119934082031,10.988044738769531 93.65119934082031,10.988044738769531 93.69080066680908,10.996246337890625 93.69080066680908,10.996246337890625 93.80788803100586,11.02445125579834 93.80788803100586,11.02445125579834 93.99991035461426,11.07800006866455 93.99991035461426,11.07800006866455 94.26426887512207,11.162257194519043 94.26426887512207,11.162257194519043 94.59853172302246,11.282610893249512 94.59853172302246,11.282610893249512 95.00007629394531,11.444473266601562 95.00007629394531,11.444473266601562 95.34459114074707,11.600065231323242 95.34459114074707,11.600065231323242 95.53656578063965,11.70501708984375 95.53656578063965,11.70501708984375 95.61614990234375,11.769294738769531 95.61614990234375,11.769294738769531 95.62335014343262,11.802816390991211 95.62335014343262,11.802816390991211 95.59826850891113,11.815643310546875 95.59826850891113,11.815643310546875 95.5810546875,11.817741394042969 95.5810546875,11.817741394042969 93.14651489257812,20.864105224609375 93.14651489257812,20.864105224609375 93.63875389099121,20.964956283569336 93.63875389099121,20.964956283569336 94.8735237121582,21.228885650634766 94.8735237121582,21.228885650634766 96.48799896240234,21.598219871520996 96.48799896240234,21.598219871520996 98.11921119689941,22.01511859893799 98.11921119689941,22.01511859893799 99.40435886383057,22.421908378601074 99.40435886383057,22.421908378601074" stroke="white" stroke-width="0.1" /><polygon points="36.41185760498047,13.963699340820312 36.41185760498047,13.963699340820312 38.37735652923584,14.07785415649414 38.37735652923584,14.07785415649414 42.030930519104004,14.089035987854004 42.030930519104004,14.089035987854004 46.46046161651611,14.033961296081543 46.46046161651611,14.033961296081543 50.75373649597168,13.949179649353027 50.75373649597168,13.949179649353027 53.998613357543945,13.871479034423828 53.998613357543945,13.871479034423828 55.28297424316406,13.837432861328125 55.28297424316406,13.837432861328125 55.2734375,13.297820091247559 55.2734375,13.297820091247559 55.24699687957764,11.914920806884766 55.24699687957764,11.914920806884766 55.207014083862305,10.042595863342285 55.207014083862305,10.042595863342285 55.156731605529785,8.034706115722656 55.156731605529785,8.034706115722656 55.09951114654541,6.245207786560059 55.09951114654541,6.245207786560059 55.03864288330078,5.027961730957031 55.03864288330078,5.027961730957031 54.752135276794434,4.369330406188965 54.752135276794434,4.369330406188965 53.96726131439209,3.985166549682617 53.96726131439209,3.985166549682617 52.611374855041504,3.8234472274780273 52.611374855041504,3.8234472274780273 50.61166286468506,3.832221031188965 50.61166286468506,3.832221031188965 47.89547920227051,3.959512710571289 47.89547920227051,3.959512710571289 44.390106201171875,4.1534423828125 44.390106201171875,4.1534423828125 40.99857807159424,4.701995849609375 40.99857807159424,4.701995849609375 38.55316638946533,5.792427062988281 38.55316638946533,5.792427062988281 36.87455654144287,7.221269607543945 36.87455654144287,7.221269607543945 35.78338623046875,8.784866333007812 35.78338623046875,8.784866333007812 35.10031700134277,10.27979850769043 35.10031700134277,10.27979850769043 34.646034240722656,11.502456665039062 34.646034240722656,11.502456665039062 34.44008827209473,12.229299545288086 34.44008827209473,12.229299545288086 34.45487022399902,12.790155410766602 34.45487022399902,12.790155410766602 34.674930572509766,13.214516639709473 34.674930572509766,13.214516639709473 35.08474826812744,13.531851768493652 35.08474826812744,13.531851768493652 35.66889762878418,13.771748542785645 35.66889762878418,13.771748542785645" stroke="white" stroke-width="0.1" /><polygon points="75.85983276367188,12.628746032714844 75.85983276367188,12.628746032714844 76.08625888824463,12.22231388092041 76.08625888824463,12.22231388092041 76.04889869689941,11.63933277130127 76.04889869689941,11.63933277130127 75.80757141113281,10.953283309936523 75.80757141113281,10.953283309936523 75.42204856872559,10.237669944763184 75.42204856872559,10.237669944763184 74.9521017074585,9.566092491149902 74.9521017074585,9.566092491149902 74.45755004882812,9.012031555175781 74.45755004882812,9.012031555175781 73.62403869628906,8.398985862731934 73.62403869628906,8.398985862731934 72.22282886505127,7.577228546142578 72.22282886505127,7.577228546142578 70.44215202331543,6.660723686218262 70.44215202331543,6.660723686218262 68.4701919555664,5.763387680053711 68.4701919555664,5.763387680053711 66.49518013000488,4.999208450317383 66.49518013000488,4.999208450317383 64.70527648925781,4.482078552246094 64.70527648925781,4.482078552246094 63.1342887878418,4.16104793548584 63.1342887878418,4.16104793548584 61.72330379486084,3.9291858673095703 61.72330379486084,3.9291858673095703 60.521888732910156,3.8161754608154297 60.521888732910156,3.8161754608154297 59.57953929901123,3.851771354675293 59.57953929901123,3.851771354675293 58.94582271575928,4.065728187561035 58.94582271575928,4.065728187561035 58.67023468017578,4.487800598144531 58.67023468017578,4.487800598144531 58.531951904296875,6.162214279174805 58.531951904296875,6.162214279174805 58.518362045288086,8.127260208129883 58.518362045288086,8.127260208129883 58.58504772186279,10.117578506469727 58.58504772186279,10.117578506469727 58.687615394592285,11.867761611938477 58.687615394592285,11.867761611938477 58.78176689147949,13.112521171569824 58.78176689147949,13.112521171569824 58.82301330566406,13.58642578125 58.82301330566406,13.58642578125 58.980441093444824,13.584208488464355 58.980441093444824,13.584208488464355 59.50765609741211,13.578367233276367 59.50765609741211,13.578367233276367 60.48727035522461,13.570308685302734 60.48727035522461,13.570308685302734 62.001729011535645,13.561153411865234 62.001729011535645,13.561153411865234 64.1336441040039,13.552331924438477 64.1336441040039,13.552331924438477 66.96548461914062,13.545036315917969 66.96548461914062,13.545036315917969 69.80047225952148,13.513684272766113 69.80047225952148,13.513684272766113 71.95594310760498,13.432550430297852 71.95594310760498,13.432550430297852 73.53582382202148,13.3026123046875 73.53582382202148,13.3026123046875 74.64385032653809,13.124704360961914 74.64385032653809,13.124704360961914 75.38392543792725,12.89975643157959 75.38392543792725,12.89975643157959" stroke="white" stroke-width="0.1" /><polygon points="96.42181396484375,27.61077880859375 96.42181396484375,27.61077880859375 97.03407287597656,24.151611328125 97.03407287597656,24.151611328125 95.88623046875,24.266815185546875 95.88623046875,24.266815185546875 95.69156169891357,24.820899963378906 95.69156169891357,24.820899963378906 95.4827070236206,25.16770362854004 95.4827070236206,25.16770362854004 95.28183937072754,25.354695320129395 95.28183937072754,25.354695320129395 95.11094093322754,25.429391860961914 95.11094093322754,25.429391860961914 94.99228000640869,25.43942928314209 94.99228000640869,25.43942928314209 94.94781494140625,25.432205200195312 94.94781494140625,25.432205200195312" stroke="white" stroke-width="0.1" /><polygon points="93.42460632324219,34.558868408203125 93.42460632324219,34.558868408203125 93.1173324584961,37.18106746673584 93.1173324584961,37.18106746673584 92.16504096984863,39.548611640930176 92.16504096984863,39.548611640930176 90.65999984741211,41.56620502471924 90.65999984741211,41.56620502471924 88.69428634643555,43.13840866088867 88.69428634643555,43.13840866088867 86.36016845703125,44.16995048522949 86.36016845703125,44.16995048522949 83.74977111816406,44.565391540527344 83.74977111816406,44.565391540527344 81.1276912689209,44.25795078277588 81.1276912689209,44.25795078277588 78.7602186203003,43.30556392669678 78.7602186203003,43.30556392669678 76.74274444580078,41.800475120544434 76.74274444580078,41.800475120544434 75.17054080963135,39.83478546142578 75.17054080963135,39.83478546142578 74.13899898529053,37.500667572021484 74.13899898529053,37.500667572021484 73.74343872070312,34.89036560058594 73.74343872070312,34.89036560058594 74.05085563659668,32.26821422576904 74.05085563659668,32.26821422576904 75.00321865081787,29.900693893432617 75.00321865081787,29.900693893432617 76.50837898254395,27.883267402648926 76.50837898254395,27.883267402648926 78.47411632537842,26.311087608337402 78.47411632537842,26.311087608337402 80.80825805664062,25.279593467712402 80.80825805664062,25.279593467712402 83.41865539550781,24.884033203125 83.41865539550781,24.884033203125 86.04073524475098,25.191450119018555 86.04073524475098,25.191450119018555 88.40813636779785,26.143789291381836 88.40813636779785,26.143789291381836 90.42563438415527,27.64892578125 90.42563438415527,27.64892578125 91.99776649475098,29.614591598510742 91.99776649475098,29.614591598510742 93.02921295166016,31.94863796234131 93.02921295166016,31.94863796234131" stroke="white" stroke-width="0.1" /><polygon points="20.589065551757812,35.78529357910156 20.589065551757812,35.78529357910156 20.31533718109131,38.120460510253906 20.31533718109131,38.120460510253906 19.46723461151123,40.22879600524902 19.46723461151123,40.22879600524902 18.126916885375977,42.02547073364258 18.126916885375977,42.02547073364258 16.376399993896484,43.42551231384277 16.376399993896484,43.42551231384277 14.297795295715332,44.34404373168945 14.297795295715332,44.34404373168945 11.973190307617188,44.69623565673828 11.973190307617188,44.69623565673828 9.638071060180664,44.42243576049805 9.638071060180664,44.42243576049805 7.529735565185547,43.57435703277588 7.529735565185547,43.57435703277588 5.733180046081543,42.234110832214355 5.733180046081543,42.234110832214355 4.333162307739258,40.483665466308594 4.333162307739258,40.483665466308594 3.414630889892578,38.40513229370117 3.414630889892578,38.40513229370117 3.06243896484375,36.08055114746094 3.06243896484375,36.08055114746094 3.3361196517944336,33.74533653259277 3.3361196517944336,33.74533653259277 4.184150695800781,31.636977195739746 4.184150695800781,31.636977195739746 5.524444580078125,29.840373992919922 5.524444580078125,29.840373992919922 7.274937629699707,28.440332412719727 7.274937629699707,28.440332412719727 9.35359001159668,27.521800994873047 9.35359001159668,27.521800994873047 11.678314208984375,27.16960906982422 11.678314208984375,27.16960906982422 14.013338088989258,27.443289756774902 14.013338088989258,27.443289756774902 16.121625900268555,28.29134464263916 16.121625900268555,28.29134464263916 17.91825294494629,29.631662368774414 17.91825294494629,29.631662368774414 19.318294525146484,31.382131576538086 19.318294525146484,31.382131576538086 20.236873626708984,33.46071243286133 20.236873626708984,33.46071243286133" stroke="white" stroke-width="0.1" /></svg>