<?xml version="1.0" encoding="utf-8" ?>
<svg baseProfile="full" height="46.69027030467987" version="1.1" width="100.0" xmlns="http://www.w3.org/2000/svg" xmlns:ev="http://www.w3.org/2001/xml-events" xmlns:xlink="http://www.w3.org/1999/xlink"><defs><clipPath /></defs><polygon points="34.19596552848816,16.16862118244171 34.19596552848816,16.16862118244171 31.870931386947632,17.430420219898224 31.870931386947632,17.430420219898224 29.62850034236908,18.856608867645264 29.62850034236908,18.856608867645264 27.475586533546448,20.44108211994171 27.475586533546448,20.44108211994171 25.416463613510132,22.1770241856575 25.416463613510132,22.1770241856575 23.45784604549408,24.058228731155396 23.45784604549408,24.058228731155396 21.604818105697632,26.07828974723816 21.604818105697632,26.07828974723816 19.300538301467896,28.99210751056671 19.300538301467896,28.99210751056671 17.214152216911316,32.12158381938934 17.214152216911316,32.12158381938934 15.359294414520264,35.451966524124146 15.359294414520264,35.451966524124146 13.74918669462204,38.967692852020264 13.74918669462204,38.967692852020264 12.397664785385132,42.65381097793579 12.397664785385132,42.65381097793579 11.318360269069672,46.49495780467987 11.318360269069672,46.49495780467987 0.0,46.49495780467987 0.0,46.49495780467987 3.352050855755806,34.662580490112305 3.352050855755806,34.662580490112305 8.657634258270264,24.07470792531967 8.657634258270264,24.07470792531967 15.666504204273224,15.022990107536316 15.666504204273224,15.022990107536316 24.127401411533356,7.79876783490181 24.127401411533356,7.79876783490181 33.790284395217896,2.693990245461464 33.790284395217896,2.693990245461464 44.404298067092896,0.0 44.404298067092896,0.0" stroke="white" stroke-width="0.1" /><polygon points="37.203776836395264,31.326499581336975 37.203776836395264,31.326499581336975 36.19466423988342,32.92399346828461 36.19466423988342,32.92399346828461 35.323894023895264,33.57432186603546 35.323894023895264,33.57432186603546 34.475913643836975,34.26239192485809 34.475913643836975,34.26239192485809 33.65234434604645,34.98769402503967 33.65234434604645,34.98769402503967 32.85319209098816,35.74910759925842 32.85319209098816,35.74910759925842 32.08048641681671,36.54592037200928 32.08048641681671,36.54592037200928 31.334635615348816,37.37793266773224 31.334635615348816,37.37793266773224 30.242106318473816,38.72721493244171 30.242106318473816,38.72721493244171 29.222005605697632,40.14933407306671 29.222005605697632,40.14933407306671 28.277182579040527,41.641032695770264 28.277182579040527,41.641032695770264 27.409467101097107,43.19804012775421 27.409467101097107,43.19804012775421 26.62251889705658,44.817304611206055 26.62251889705658,44.817304611206055 25.91797113418579,46.49495780467987 25.91797113418579,46.49495780467987 14.199219644069672,46.49495780467987 14.199219644069672,46.49495780467987 15.877889096736908,41.27848446369171 15.877889096736908,41.27848446369171 18.095296621322632,36.40482723712921 18.095296621322632,36.40482723712921 20.80932706594467,31.922709941864014 20.80932706594467,31.922709941864014 23.97705167531967,27.881065011024475 23.97705167531967,27.881065011024475 27.555951476097107,24.329224228858948 27.555951476097107,24.329224228858948 31.503906846046448,21.31591886281967 31.503906846046448,21.31591886281967 31.33138120174408,22.266745567321777 31.33138120174408,22.266745567321777 31.259766221046448,23.23303371667862 31.259766221046448,23.23303371667862 31.29069209098816,24.204102158546448 31.29069209098816,24.204102158546448 31.42435848712921,25.16937255859375 31.42435848712921,25.16937255859375 31.662192940711975,26.118573546409607 31.662192940711975,26.118573546409607 32.00520873069763,27.04101800918579 32.00520873069763,27.04101800918579 32.00520873069763,27.03857421875 32.00520873069763,27.03857421875 32.00520873069763,27.047526836395264 32.00520873069763,27.047526836395264 32.00520873069763,27.04101800918579 32.00520873069763,27.04101800918579 32.589927315711975,28.14422845840454 32.589927315711975,28.14422845840454 33.31461846828461,29.11122739315033 33.31461846828461,29.11122739315033 34.15893614292145,29.927775263786316 34.15893614292145,29.927775263786316 35.10192930698395,30.578717589378357 35.10192930698395,30.578717589378357 36.12366020679474,31.049907207489014 36.12366020679474,31.049907207489014" stroke="white" stroke-width="0.1" /><polygon points="70.71940302848816,22.913412749767303 70.71940302848816,22.913412749767303 74.13818836212158,25.9033203125 74.13818836212158,25.9033203125 77.23714709281921,29.31762933731079 77.23714709281921,29.31762933731079 79.98453974723816,33.12062621116638 79.98453974723816,33.12062621116638 82.34822750091553,37.27498650550842 82.34822750091553,37.27498650550842 84.29667353630066,41.74560904502869 84.29667353630066,41.74560904502869 85.79753041267395,46.49495780467987 85.79753041267395,46.49495780467987 74.07878041267395,46.49495780467987 74.07878041267395,46.49495780467987 73.37545156478882,44.81750726699829 73.37545156478882,44.81750726699829 72.58850336074829,43.19824576377869 72.58850336074829,43.19824576377869 71.72119617462158,41.641032695770264 71.72119617462158,41.641032695770264 70.77596187591553,40.14933407306671 70.77596187591553,40.14933407306671 69.75667476654053,38.727012276649475 69.75667476654053,38.727012276649475 68.66536736488342,37.37793266773224 68.66536736488342,37.37793266773224 67.63387322425842,36.2448126077652 67.63387322425842,36.2448126077652 66.55151844024658,35.17761528491974 66.55151844024658,35.17761528491974 65.42155146598816,34.1787725687027 65.42155146598816,34.1787725687027 64.24581408500671,33.250224590301514 64.24581408500671,33.250224590301514 63.027143478393555,32.39451348781586 63.027143478393555,32.39451348781586 61.76758408546448,31.613770127296448 61.76758408546448,31.613770127296448 69.9414074420929,23.79394620656967 69.9414074420929,23.79394620656967 70.00000476837158,23.73860776424408 70.00000476837158,23.73860776424408 70.05859613418579,23.680828511714935 70.05859613418579,23.680828511714935 70.17598748207092,23.559367656707764 70.17598748207092,23.559367656707764 70.28992176055908,23.435059189796448 70.28992176055908,23.435059189796448 70.40120959281921,23.308107256889343 70.40120959281921,23.308107256889343 70.50944566726685,23.17861020565033 70.50944566726685,23.17861020565033 70.61564326286316,23.047079145908356 70.61564326286316,23.047079145908356" stroke="white" stroke-width="0.1" /><polygon points="70.81705927848816,4.779459908604622 70.81705927848816,4.779459908604622 77.8393566608429,9.214986860752106 77.8393566608429,9.214986860752106 84.14245843887329,14.825236797332764 84.14245843887329,14.825236797332764 89.61873650550842,21.484071016311646 89.61873650550842,21.484071016311646 94.15894150733948,29.065757989883423 94.15894150733948,29.065757989883423 97.65585064888,37.44466304779053 97.65585064888,37.44466304779053 100.0,46.49495780467987 100.0,46.49495780467987 88.68164420127869,46.49495780467987 88.68164420127869,46.49495780467987 87.60091662406921,42.65381097793579 87.60091662406921,42.65381097793579 86.24878525733948,38.967692852020264 86.24878525733948,38.967692852020264 84.63908433914185,35.451966524124146 84.63908433914185,35.451966524124146 82.78381824493408,32.12138116359711 82.78381824493408,32.12138116359711 80.69722652435303,28.992006182670593 80.69722652435303,28.992006182670593 78.39193344116211,26.07828974723816 78.39193344116211,26.07828974723816 77.41618156433105,24.983826279640198 77.41618156433105,24.983826279640198 76.40950679779053,23.92781674861908 76.40950679779053,23.92781674861908 75.3735363483429,22.91198819875717 75.3735363483429,22.91198819875717 74.30806756019592,21.936342120170593 74.30806756019592,21.936342120170593 73.21574091911316,21.002401411533356 73.21574091911316,21.002401411533356 72.09635972976685,20.110678672790527 72.09635972976685,20.110678672790527 72.28434681892395,19.297079741954803 72.28434681892395,19.297079741954803 72.39746451377869,18.463745713233948 72.39746451377869,18.463745713233948 72.43449091911316,17.61779934167862 72.43449091911316,17.61779934167862 72.39238023757935,16.76534116268158 72.39238023757935,16.76534116268158 72.27091789245605,15.914002060890198 72.27091789245605,15.914002060890198 72.06705808639526,15.069988369941711 72.06705808639526,15.069988369941711 72.03776240348816,14.972332119941711 72.03776240348816,14.972332119941711 72.00846672058105,14.875489473342896 72.00846672058105,14.875489473342896 71.56168818473816,13.758240640163422 71.56168818473816,13.758240640163422 70.98022699356079,12.74973601102829 70.98022699356079,12.74973601102829 70.28036117553711,11.862590163946152 70.28036117553711,11.862590163946152 69.47733759880066,11.109212785959244 69.47733759880066,11.109212785959244 68.58764886856079,10.502319782972336 68.58764886856079,10.502319782972336 67.62695908546448,10.05452498793602 67.62695908546448,10.05452498793602 70.1855480670929,6.004232168197632 70.1855480670929,6.004232168197632 70.19531726837158,5.983886867761612 70.19531726837158,5.983886867761612 70.21158933639526,5.964355915784836 70.21158933639526,5.964355915784836 70.3259289264679,5.77392615377903 70.3259289264679,5.77392615377903 70.43436765670776,5.580444633960724 70.43436765670776,5.580444633960724 70.53751945495605,5.384114757180214 70.53751945495605,5.384114757180214 70.63497304916382,5.184835195541382 70.63497304916382,5.184835195541382 70.72855830192566,4.983113706111908 70.72855830192566,4.983113706111908" stroke="white" stroke-width="0.1" /><polygon points="66.36719107627869,17.912597954273224 66.36719107627869,17.912597954273224 66.41561388969421,18.15134733915329 66.41561388969421,18.15134733915329 66.42151474952698,18.39030086994171 66.42151474952698,18.39030086994171 66.38712882995605,18.623149394989014 66.38712882995605,18.623149394989014 66.31368398666382,18.84358823299408 66.31368398666382,18.84358823299408 66.20321273803711,19.045208394527435 66.20321273803711,19.045208394527435 66.05794429779053,19.22200620174408 66.05794429779053,19.22200620174408 37.63997554779053,46.41764461994171 37.63997554779053,46.41764461994171 37.54435479640961,46.50350213050842 37.54435479640961,46.50350213050842 37.443238496780396,46.57226800918579 37.443238496780396,46.57226800918579 37.33764886856079,46.62475883960724 37.33764886856079,46.62475883960724 37.22778558731079,46.66137993335724 37.22778558731079,46.66137993335724 37.11487054824829,46.682944893836975 37.11487054824829,46.682944893836975 36.998701095581055,46.69027030467987 36.998701095581055,46.69027030467987 36.87540888786316,46.68050408363342 36.87540888786316,46.68050408363342 36.75313591957092,46.6520220041275 36.75313591957092,46.6520220041275 36.63370907306671,46.60522639751434 36.63370907306671,46.60522639751434 36.51815056800842,46.54012322425842 36.51815056800842,46.54012322425842 36.40828728675842,46.45874202251434 36.40828728675842,46.45874202251434 36.30534112453461,46.36068046092987 36.30534112453461,46.36068046092987 36.14664971828461,46.14298641681671 36.14664971828461,46.14298641681671 36.04187071323395,45.89131772518158 36.04187071323395,45.89131772518158 35.99243462085724,45.61930596828461 35.99243462085724,45.61930596828461 35.99894344806671,45.3397661447525 35.99894344806671,45.3397661447525 36.06262505054474,45.06632685661316 36.06262505054474,45.06632685661316 36.184898018836975,44.81201469898224 36.184898018836975,44.81201469898224 48.51888418197632,25.27669370174408 48.51888418197632,25.27669370174408 37.93945610523224,25.27669370174408 37.93945610523224,25.27669370174408 37.75472342967987,25.255942344665527 37.75472342967987,25.255942344665527 37.57772147655487,25.195923447608948 37.57772147655487,25.195923447608948 37.413740158081055,25.100404024124146 37.413740158081055,25.100404024124146 37.26664483547211,24.972636997699738 37.26664483547211,24.972636997699738 37.14192807674408,24.816489219665527 37.14192807674408,24.816489219665527 37.04427182674408,24.635417759418488 37.04427182674408,24.635417759418488 36.97408139705658,24.42932277917862 36.97408139705658,24.42932277917862 36.93807125091553,24.215801060199738 36.93807125091553,24.215801060199738 36.93603575229645,24.000652134418488 36.93603575229645,24.000652134418488 36.96675896644592,23.78896176815033 36.96675896644592,23.78896176815033 37.03043758869171,23.58703762292862 37.03043758869171,23.58703762292862 37.12565302848816,23.400066792964935 37.12565302848816,23.400066792964935 51.10352039337158,1.262207143008709 51.10352039337158,1.262207143008709 51.209717988967896,1.1233520694077015 51.209717988967896,1.1233520694077015 51.33097767829895,1.0050456039607525 51.33097767829895,1.0050456039607525 51.46525502204895,0.9095256216824055 51.46525502204895,0.9095256216824055 51.60929560661316,0.8385214023292065 51.60929560661316,0.8385214023292065 51.760661602020264,0.7945760153234005 51.760661602020264,0.7945760153234005 51.91732048988342,0.779622420668602 51.91732048988342,0.779622420668602 64.49218988418579,0.779622420668602 64.49218988418579,0.779622420668602 64.6771252155304,0.8003744296729565 64.6771252155304,0.8003744296729565 64.8541271686554,0.8601888082921505 64.8541271686554,0.8601888082921505 65.01913070678711,0.955708883702755 65.01913070678711,0.955708883702755 65.16724228858948,1.0828654281795025 65.16724228858948,1.0828654281795025 65.29500484466553,1.238606870174408 65.29500484466553,1.238606870174408 65.39713740348816,1.4192708767950535 65.39713740348816,1.4192708767950535 65.46346545219421,1.625875011086464 65.46346545219421,1.625875011086464 65.49642086029053,1.839294470846653 65.49642086029053,1.839294470846653 65.49683213233948,2.054341696202755 65.49683213233948,2.054341696202755 65.46468734741211,2.265218272805214 65.46468734741211,2.265218272805214 65.40100574493408,2.467244677245617 65.40100574493408,2.467244677245617 65.30599594116211,2.654622495174408 65.30599594116211,2.654622495174408 56.15885853767395,17.13460385799408 56.15885853767395,17.13460385799408 65.41016101837158,17.13460385799408 65.41016101837158,17.13460385799408 65.61890244483948,17.16054379940033 65.61890244483948,17.16054379940033 65.81502556800842,17.234700918197632 65.81502556800842,17.234700918197632 65.99365472793579,17.352397739887238 65.99365472793579,17.352397739887238 66.14828109741211,17.507731914520264 66.14828109741211,17.507731914520264 66.27482175827026,17.696432769298553 66.27482175827026,17.696432769298553" stroke="white" stroke-width="0.1" /></svg>