<?xml version="1.0" encoding="utf-8" ?>
<svg baseProfile="full" height="73.67350459098816" version="1.1" width="100.0" xmlns="http://www.w3.org/2000/svg" xmlns:ev="http://www.w3.org/2001/xml-events" xmlns:xlink="http://www.w3.org/1999/xlink"><defs><clipPath /></defs><polygon points="14.90885466337204,73.67269396781921 14.90885466337204,73.67269396781921 10.952962934970856,73.13761711120605 10.952962934970856,73.13761711120605 7.39390105009079,71.63228988647461 7.39390105009079,71.63228988647461 4.375813901424408,69.30033564567566 4.375813901424408,69.30033564567566 2.041626162827015,66.28377437591553 2.041626162827015,66.28377437591553 0.5351766012609005,62.726038694381714 0.5351766012609005,62.726038694381714 0.0,58.76953601837158 0.0,58.76953601837158 0.0,14.905600249767303 0.0,14.905600249767303 0.5350749008357525,10.949300974607468 0.5350749008357525,10.949300974607468 2.041524276137352,7.391256093978882 2.041524276137352,7.391256093978882 4.375813901424408,4.374491423368454 4.375813901424408,4.374491423368454 7.394104450941086,2.041626162827015 7.394104450941086,2.041626162827015 10.953064262866974,0.5358886905014515 10.953064262866974,0.5358886905014515 14.90885466337204,0.0 14.90885466337204,0.0 85.08138656616211,0.0024414064682787284 85.08138656616211,0.0024414064682787284 89.03799057006836,0.5371094215661287 89.03799057006836,0.5371094215661287 92.59694814682007,2.042236365377903 92.59694814682007,2.042236365377903 95.61564922332764,4.374796897172928 95.61564922332764,4.374796897172928 97.95075058937073,7.391459494829178 97.95075058937073,7.391459494829178 99.45984482765198,10.949402302503586 99.45984482765198,10.949402302503586 100.0,14.905600249767303 100.0,14.905600249767303 100.0,58.76953601837158 100.0,58.76953601837158 99.45974349975586,62.72583603858948 99.45974349975586,62.72583603858948 97.95064926147461,66.28377437591553 97.95064926147461,66.28377437591553 95.61564922332764,69.3005383014679 95.61564922332764,69.3005383014679 92.5971508026123,71.63289785385132 92.5971508026123,71.63289785385132 89.0381932258606,73.13802242279053 89.0381932258606,73.13802242279053 85.08138656616211,73.67350459098816 85.08138656616211,73.67350459098816" stroke="white" stroke-width="0.1" /><polygon points="3.509114682674408,58.76953601837158 3.509114682674408,58.76953601837158 3.921203687787056,61.78222894668579 3.921203687787056,61.78222894668579 5.07710799574852,64.4970715045929 5.07710799574852,64.4970715045929 6.865234673023224,66.8042004108429 6.865234673023224,66.8042004108429 9.174194931983948,68.5925304889679 9.174194931983948,68.5925304889679 11.892497539520264,69.75199580192566 11.892497539520264,69.75199580192566 14.90885466337204,70.17171382904053 14.90885466337204,70.17171382904053 85.08138656616211,70.17171382904053 85.08138656616211,70.17171382904053 88.10120224952698,69.75179314613342 88.10120224952698,69.75179314613342 90.82112908363342,68.5925304889679 90.82112908363342,68.5925304889679 93.13029646873474,66.8042004108429 93.13029646873474,66.8042004108429 94.9177086353302,64.49727416038513 94.9177086353302,64.49727416038513 96.07259631156921,61.78222894668579 96.07259631156921,61.78222894668579 96.48438096046448,58.76953601837158 96.48438096046448,58.76953601837158 96.48438096046448,14.905600249767303 96.48438096046448,14.905600249767303 96.0724949836731,11.884461343288422 96.0724949836731,11.884461343288422 94.91750597953796,9.164632856845856 94.91750597953796,9.164632856845856 93.13029646873474,6.856384873390198 93.13029646873474,6.856384873390198 90.82123041152954,5.069580301642418 90.82123041152954,5.069580301642418 88.10140490531921,3.914998471736908 88.10140490531921,3.914998471736908 85.08138656616211,3.502604365348816 85.08138656616211,3.502604365348816 14.90885466337204,3.500976786017418 14.90885466337204,3.500976786017418 11.892395466566086,3.91387976706028 11.892395466566086,3.91387976706028 9.17409285902977,5.06897009909153 9.17409285902977,5.06897009909153 6.865234673023224,6.856181472539902 6.865234673023224,6.856181472539902 5.077209696173668,9.164632856845856 5.077209696173668,9.164632856845856 3.921305388212204,11.884664744138718 3.921305388212204,11.884664744138718 3.509114682674408,14.905600249767303 3.509114682674408,14.905600249767303" stroke="white" stroke-width="0.1" /></svg>