<?xml version="1.0" encoding="utf-8" ?>
<svg baseProfile="full" height="99.96305108070374" version="1.1" width="72.58374691009521" xmlns="http://www.w3.org/2000/svg" xmlns:ev="http://www.w3.org/2001/xml-events" xmlns:xlink="http://www.w3.org/1999/xlink"><defs><clipPath /></defs><polygon points="42.12784171104431,96.90195322036743 42.12784171104431,96.90195322036743 42.12784171104431,96.90195322036743 42.12784171104431,96.90195322036743 42.12618172168732,59.882545471191406 42.12618172168732,59.882545471191406 48.42745065689087,59.882545471191406 48.42745065689087,59.882545471191406 48.44865798950195,59.98272895812988 48.44865798950195,59.98272895812988 48.461562395095825,60.248005390167236 48.461562395095825,60.248005390167236 48.46784174442291,60.62613129615784 48.46784174442291,60.62613129615784 48.469170928001404,61.06451749801636 48.469170928001404,61.06451749801636 48.467251658439636,61.51065230369568 48.467251658439636,61.51065230369568 48.46380949020386,61.91209554672241 48.46380949020386,61.91209554672241 48.46048951148987,62.21618056297302 48.46048951148987,62.21618056297302 48.45900237560272,62.37061619758606 48.45900237560272,62.37061619758606 48.45900237560272,77.39425301551819 48.45900237560272,77.39425301551819 48.45900237560272,93.50222945213318 48.45900237560272,93.50222945213318 48.45900237560272,96.85158133506775 48.45900237560272,96.85158133506775 48.18694591522217,98.20113182067871 48.18694591522217,98.20113182067871 47.46975898742676,99.16917085647583 47.46975898742676,99.16917085647583 46.455779671669006,99.75451231002808 46.455779671669006,99.75451231002808 45.2934205532074,99.95606541633606 45.2934205532074,99.95606541633606 44.13106441497803,99.772709608078 44.13106441497803,99.772709608078 43.117085099220276,99.20334815979004 43.117085099220276,99.20334815979004 42.39989519119263,98.24679493904114 42.39989519119263,98.24679493904114" stroke="white" stroke-width="0.1" /><polygon points="21.019916236400604,96.90195322036743 21.019916236400604,96.90195322036743 21.019916236400604,96.90195322036743 21.019916236400604,96.90195322036743 21.019916236400604,76.40234231948853 21.019916236400604,76.40234231948853 21.019916236400604,66.85689091682434 21.019916236400604,66.85689091682434 21.076029539108276,66.56186580657959 21.076029539108276,66.56186580657959 21.229855716228485,66.31748676300049 21.229855716228485,66.31748676300049 21.459566056728363,66.11475944519043 21.459566056728363,66.11475944519043 21.74336612224579,65.94469547271729 21.74336612224579,65.94469547271729 22.059425711631775,65.79815149307251 22.059425711631775,65.79815149307251 22.385986149311066,65.6661331653595 22.385986149311066,65.6661331653595 22.701197862625122,65.53951501846313 22.701197862625122,65.53951501846313 22.98325151205063,65.4094398021698 22.98325151205063,65.4094398021698 23.529592156410217,65.12548327445984 23.529592156410217,65.12548327445984 24.076002836227417,64.84111547470093 24.076002836227417,64.84111547470093 24.62242990732193,64.55646753311157 24.62242990732193,64.55646753311157 25.168892741203308,64.27167654037476 25.168892741203308,64.27167654037476 25.715389847755432,63.986754417419434 25.715389847755432,63.986754417419434 26.261886954307556,63.70183229446411 26.261886954307556,63.70183229446411 26.808419823646545,63.41690421104431 26.808419823646545,63.41690421104431 27.354949712753296,63.132256269454956 27.354949712753296,63.132256269454956 27.354949712753296,84.16711688041687 27.354949712753296,84.16711688041687 27.354949712753296,95.42903304100037 27.354949712753296,95.42903304100037 27.358445525169373,95.73208689689636 27.358445525169373,95.73208689689636 27.36550271511078,96.04323506355286 27.36550271511078,96.04323506355286 27.37095057964325,96.35915756225586 27.37095057964325,96.35915756225586 27.36961841583252,96.67680859565735 27.36961841583252,96.67680859565735 27.356350421905518,96.99307680130005 27.356350421905518,96.99307680130005 27.32599377632141,97.30477333068848 27.32599377632141,97.30477333068848 27.273374795913696,97.60886430740356 27.273374795913696,97.60886430740356 27.193322777748108,97.90216088294983 27.193322777748108,97.90216088294983 26.611021161079407,98.95364046096802 26.611021161079407,98.95364046096802 25.762853026390076,99.6349573135376 25.762853026390076,99.6349573135376 24.754738807678223,99.96305108070374 24.754738807678223,99.96305108070374 23.69251698255539,99.95495676994324 23.69251698255539,99.95495676994324 22.682049870491028,99.62775707244873 22.682049870491028,99.62775707244873 21.829231083393097,98.9985466003418 21.829231083393097,98.9985466003418 21.239888668060303,98.08427095413208 21.239888668060303,98.08427095413208" stroke="white" stroke-width="0.1" /><polygon points="41.10216796398163,2.6795895770192146 41.10216796398163,2.6795895770192146 41.10216796398163,2.6795895770192146 41.10216796398163,2.6795895770192146 45.602285861968994,13.610498607158661 45.602285861968994,13.610498607158661 30.491748452186584,13.610498607158661 30.491748452186584,13.610498607158661 34.84850227832794,5.256224423646927 34.84850227832794,5.256224423646927 36.951324343681335,1.223832368850708 36.951324343681335,1.223832368850708 37.4996542930603,0.44132829643785954 37.4996542930603,0.44132829643785954 38.08249235153198,0.06116394069977105 38.08249235153198,0.06116394069977105 38.67839276790619,0.020030498853884637 38.67839276790619,0.020030498853884637 39.265868067741394,0.25441155303269625 39.265868067741394,0.25441155303269625 39.82345163822174,0.7009982597082853 39.82345163822174,0.7009982597082853 40.32967984676361,1.2963089160621166 40.32967984676361,1.2963089160621166 40.763068199157715,1.9769653677940369 40.763068199157715,1.9769653677940369" stroke="white" stroke-width="0.1" /><polygon points="69.9322521686554,31.508561968803406 69.9322521686554,31.508561968803406 69.9322521686554,31.508561968803406 69.9322521686554,31.508561968803406 70.64435482025146,31.85313045978546 70.64435482025146,31.85313045978546 71.32650017738342,32.29054808616638 71.32650017738342,32.29054808616638 71.91774249076843,32.79937207698822 71.91774249076843,32.79937207698822 72.35715389251709,33.358219265937805 72.35715389251709,33.358219265937805 72.58374691009521,33.94564092159271 72.58374691009521,33.94564092159271 72.53666520118713,34.540191292762756 72.53666520118713,34.540191292762756 72.15487360954285,35.120418667793274 72.15487360954285,35.120418667793274 71.37749195098877,35.66494286060333 71.37749195098877,35.66494286060333 70.89759111404419,35.915204882621765 70.89759111404419,35.915204882621765 70.41768431663513,36.16539537906647 70.41768431663513,36.16539537906647 69.93781924247742,36.41558587551117 69.93781924247742,36.41558587551117 69.4579541683197,36.66570782661438 69.4579541683197,36.66570782661438 68.97811889648438,36.91589832305908 68.97811889648438,36.91589832305908 68.49831938743591,37.1659517288208 68.49831938743591,37.1659517288208 68.01854372024536,37.416210770606995 68.01854372024536,37.416210770606995 67.53882765769958,37.66647279262543 67.53882765769958,37.66647279262543 59.32736396789551,41.9496089220047 59.32736396789551,41.9496089220047 59.32736396789551,27.144059538841248 59.32736396789551,27.144059538841248" stroke="white" stroke-width="0.1" /><polygon points="6.359943002462387,59.882545471191406 6.359943002462387,59.882545471191406 6.359943002462387,59.882545471191406 6.359943002462387,59.882545471191406 24.939943850040436,59.882545471191406 24.939943850040436,59.882545471191406 5.875613167881966,69.82486844062805 5.875613167881966,69.82486844062805 5.527976527810097,70.00628113746643 5.527976527810097,70.00628113746643 5.1804181188344955,70.18777132034302 5.1804181188344955,70.18777132034302 4.83289398252964,70.36925554275513 4.83289398252964,70.36925554275513 4.485378786921501,70.5506682395935 4.485378786921501,70.5506682395935 4.137837514281273,70.73208689689636 4.137837514281273,70.73208689689636 3.7902358919382095,70.91336250305176 3.7902358919382095,70.91336250305176 3.442547470331192,71.0945725440979 3.442547470331192,71.0945725440979 3.094729408621788,71.27564549446106 3.094729408621788,71.27564549446106 2.3268330842256546,71.60360217094421 2.3268330842256546,71.60360217094421 1.744893379509449,71.70448303222656 1.744893379509449,71.70448303222656 1.3372953049838543,71.6076135635376 1.3372953049838543,71.6076135635376 1.0924406349658966,71.34240865707397 1.0924406349658966,71.34240865707397 0.9987227618694305,70.93813419342041 0.9987227618694305,70.93813419342041 1.0445351712405682,70.4241931438446 1.0445351712405682,70.4241931438446 1.2182798236608505,69.82985138893127 1.2182798236608505,69.82985138893127 1.5083415433764458,69.18444633483887 1.5083415433764458,69.18444633483887" stroke="white" stroke-width="0.1" /><polygon points="50.68027377128601,19.489432871341705 50.68027377128601,19.489432871341705 50.68027377128601,19.489432871341705 50.68027377128601,19.489432871341705 51.56698226928711,19.837044179439545 51.56698226928711,19.837044179439545 52.25542187690735,20.321789383888245 52.25542187690735,20.321789383888245 52.77026295661926,20.92215120792389 52.77026295661926,20.92215120792389 53.136175870895386,21.616263687610626 53.136175870895386,21.616263687610626 53.37783694267273,22.382543981075287 53.37783694267273,22.382543981075287 53.51990461349487,23.19912314414978 53.51990461349487,23.19912314414978 53.58706712722778,24.04448688030243 53.58706712722778,24.04448688030243 53.603971004486084,24.89676922559738 53.603971004486084,24.89676922559738 53.603971004486084,32.230353355407715 53.603971004486084,32.230353355407715 53.603971004486084,48.59793484210968 53.603971004486084,48.59793484210968 53.5847008228302,49.45672154426575 53.5847008228302,49.45672154426575 53.5111129283905,50.31183958053589 53.5111129283905,50.31183958053589 53.35952043533325,51.139283180236816 53.35952043533325,51.139283180236816 53.106147050857544,51.915043592453 53.106147050857544,51.915043592453 52.72732973098755,52.61524319648743 52.72732973098755,52.61524319648743 52.19937562942505,53.215813636779785 52.19937562942505,53.215813636779785 51.49853229522705,53.692805767059326 51.49853229522705,53.692805767059326 50.60112476348877,54.02243137359619 50.60112476348877,54.02243137359619 50.23413896560669,54.09666895866394 50.23413896560669,54.09666895866394 49.8598575592041,54.144275188446045 49.8598575592041,54.144275188446045 49.480435252189636,54.17049527168274 49.480435252189636,54.17049527168274 49.09803867340088,54.180318117141724 49.09803867340088,54.180318117141724 48.714813590049744,54.179078340530396 48.714813590049744,54.179078340530396 48.332902789115906,54.171741008758545 48.332902789115906,54.171741008758545 47.95446693897247,54.163575172424316 47.95446693897247,54.163575172424316 47.58167266845703,54.159700870513916 47.58167266845703,54.159700870513916 33.39717388153076,54.159700870513916 33.39717388153076,54.159700870513916 4.154719784855843,54.159700870513916 4.154719784855843,54.159700870513916 2.422185428440571,53.79382371902466 2.422185428440571,53.79382371902466 1.2388033792376518,52.800190448760986 1.2388033792376518,52.800190448760986 0.5065052304416895,51.33460760116577 0.5065052304416895,51.33460760116577 0.1272403751499951,49.55303370952606 0.1272403751499951,49.55303370952606 0.002949222835013643,47.611287236213684 0.002949222835013643,47.611287236213684 0.03557229938451201,45.66538631916046 0.03557229938451201,45.66538631916046 0.1270587439648807,43.871015310287476 0.1270587439648807,43.871015310287476 0.1793404226191342,42.38412082195282 0.1793404226191342,42.38412082195282 0.1793404226191342,24.89676922559738 0.1793404226191342,24.89676922559738 0.19544439855962992,24.042411148548126 0.19544439855962992,24.042411148548126 0.2605175832286477,23.19580167531967 0.2605175832286477,23.19580167531967 0.3997191786766052,22.37832248210907 0.3997191786766052,22.37832248210907 0.6382083520293236,21.611352264881134 0.6382083520293236,21.611352264881134 1.0011357255280018,20.916269719600677 1.0011357255280018,20.916269719600677 1.5136518515646458,20.314593613147736 1.5136518515646458,20.314593613147736 2.200916036963463,19.827565550804138 2.200916036963463,19.827565550804138 3.0880872160196304,19.4767028093338 3.0880872160196304,19.4767028093338 3.4803424030542374,19.3891778588295 3.4803424030542374,19.3891778588295 3.8873091340065002,19.334863126277924 3.8873091340065002,19.334863126277924 4.304464161396027,19.306980073451996 4.304464161396027,19.306980073451996 4.727267101407051,19.29902285337448 4.727267101407051,19.29902285337448 5.151176825165749,19.30435001850128 5.151176825165749,19.30435001850128 5.5716875940561295,19.3163201212883 5.5716875940561295,19.3163201212883 5.9842415153980255,19.32842880487442 5.9842415153980255,19.32842880487442 6.384297460317612,19.333894550800323 6.384297460317612,19.333894550800323 21.937651932239532,19.333894550800323 21.937651932239532,19.333894550800323 40.9017950296402,19.333894550800323 40.9017950296402,19.333894550800323 47.3984569311142,19.333894550800323 47.3984569311142,19.333894550800323 47.80105650424957,19.328981637954712 47.80105650424957,19.328981637954712 48.21247756481171,19.318534433841705 48.21247756481171,19.318534433841705 48.62940013408661,19.30864006280899 48.62940013408661,19.30864006280899 49.04850125312805,19.305802881717682 49.04850125312805,19.305802881717682 49.46645796298981,19.316181540489197 49.46645796298981,19.316181540489197 49.87995624542236,19.346071779727936 49.87995624542236,19.346071779727936 50.285667181015015,19.401700794696808 50.285667181015015,19.401700794696808" stroke="white" stroke-width="0.1" /></svg>