<?xml version="1.0" encoding="utf-8" ?>
<svg baseProfile="full" height="78.61321568489075" version="1.1" width="100.0" xmlns="http://www.w3.org/2000/svg" xmlns:ev="http://www.w3.org/2001/xml-events" xmlns:xlink="http://www.w3.org/1999/xlink"><defs><clipPath /></defs><polygon points="98.16365242004395,14.254787564277649 98.16365242004395,14.254787564277649 98.59212636947632,15.318158268928528 98.59212636947632,15.318158268928528 98.96425008773804,16.401465237140656 98.96425008773804,16.401465237140656 99.27974939346313,17.503724992275238 99.27974939346313,17.503724992275238 99.53842163085938,18.6240017414093 99.53842163085938,18.6240017414093 99.7400164604187,19.761335849761963 99.7400164604187,19.761335849761963 99.88429546356201,20.914767682552338 99.88429546356201,20.914767682552338 99.97102618217468,22.083337604999542 99.97102618217468,22.083337604999542 100.0,23.266135156154633 100.0,23.266135156154633 99.97102618217468,24.449482560157776 99.97102618217468,24.449482560157776 99.88429546356201,25.61860680580139 99.88429546356201,25.61860680580139 99.7400164604187,26.77249312400818 99.7400164604187,26.77249312400818 99.53842163085938,27.91018784046173 99.53842163085938,27.91018784046173 99.27974939346313,29.030656814575195 99.27974939346313,29.030656814575195 98.96425008773804,30.132964253425598 98.96425008773804,30.132964253425598 98.59212636947632,31.216078996658325 98.59212636947632,31.216078996658325 98.16365242004395,32.27901756763458 98.16365242004395,32.27901756763458 97.687429189682,33.31184685230255 97.687429189682,33.31184685230255 97.16656804084778,34.3140184879303 97.16656804084778,34.3140184879303 96.60162925720215,35.2848082780838 96.60162925720215,35.2848082780838 95.9931492805481,36.22349798679352 95.9931492805481,36.22349798679352 95.34170031547546,37.129366397857666 95.34170031547546,37.129366397857666 94.64786052703857,38.00169825553894 94.64786052703857,38.00169825553894 93.91218423843384,38.83977234363556 93.91218423843384,38.83977234363556 93.13516616821289,39.6428644657135 93.13516616821289,39.6428644657135 92.32451915740967,40.40423929691315 92.32451915740967,40.40423929691315 91.4799690246582,41.12643599510193 91.4799690246582,41.12643599510193 90.60226082801819,41.808879375457764 90.60226082801819,41.808879375457764 89.69219326972961,42.45094656944275 89.69219326972961,42.45094656944275 88.7505292892456,43.05205941200256 88.7505292892456,43.05205941200256 87.77803182601929,43.61164569854736 87.77803182601929,43.61164569854736 86.77550554275513,44.129082560539246 86.77550554275513,44.129082560539246 85.74368357658386,44.60378885269165 85.74368357658386,44.60378885269165 84.88802313804626,44.954439997673035 84.88802313804626,44.954439997673035 84.02109146118164,45.268142223358154 84.02109146118164,45.268142223358154 83.14343690872192,45.54485380649567 83.14343690872192,45.54485380649567 82.25560188293457,45.78452110290527 82.25560188293457,45.78452110290527 81.35812878608704,45.98705172538757 81.35812878608704,45.98705172538757 80.45154213905334,46.152350306510925 80.45154213905334,46.152350306510925 79.53638434410095,46.28039002418518 79.53638434410095,46.28039002418518 78.61321568489075,46.37105166912079 78.61321568489075,46.37105166912079 78.61321568489075,55.34708499908447 78.61321568489075,55.34708499908447 78.57697010040283,55.70690035820007 78.57697010040283,55.70690035820007 78.47301363945007,56.04219436645508 78.47301363945007,56.04219436645508 78.30846309661865,56.34574890136719 78.30846309661865,56.34574890136719 78.09041142463684,56.6103458404541 78.09041142463684,56.6103458404541 77.82600522041321,56.828731298446655 77.82600522041321,56.828731298446655 77.52240300178528,56.993669271469116 77.52240300178528,56.993669271469116 77.18669772148132,57.09793567657471 77.18669772148132,57.09793567657471 76.82599425315857,57.13430643081665 76.82599425315857,57.13430643081665 66.1333680152893,57.13430643081665 66.1333680152893,57.13430643081665 65.77268838882446,57.09793567657471 65.77268838882446,57.09793567657471 65.43696522712708,56.993669271469116 65.43696522712708,56.993669271469116 65.13335704803467,56.828731298446655 65.13335704803467,56.828731298446655 64.86895680427551,56.6103458404541 64.86895680427551,56.6103458404541 64.6509051322937,56.34574890136719 64.6509051322937,56.34574890136719 64.4863486289978,56.04219436645508 64.4863486289978,56.04219436645508 64.38239812850952,55.70692420005798 64.38239812850952,55.70692420005798 64.34614658355713,55.34708499908447 64.34614658355713,55.34708499908447 64.34614658355713,33.958759903907776 64.34614658355713,33.958759903907776 64.38237428665161,33.599019050598145 64.38237428665161,33.599019050598145 64.4863486289978,33.26388895511627 64.4863486289978,33.26388895511627 64.6509051322937,32.960572838783264 64.6509051322937,32.960572838783264 64.86895680427551,32.69626498222351 64.86895680427551,32.69626498222351 65.13335704803467,32.47816562652588 65.13335704803467,32.47816562652588 65.43696522712708,32.31346905231476 65.43696522712708,32.31346905231476 65.77266454696655,32.20937252044678 65.77266454696655,32.20937252044678 66.1333680152893,32.173073291778564 66.1333680152893,32.173073291778564 76.82599425315857,32.173073291778564 76.82599425315857,32.173073291778564 77.28952169418335,32.16208517551422 77.28952169418335,32.16208517551422 77.7447760105133,32.12921917438507 77.7447760105133,32.12921917438507 78.19143533706665,32.074615359306335 78.19143533706665,32.074615359306335 78.62914800643921,31.998419761657715 78.62914800643921,31.998419761657715 79.05757427215576,31.90077841281891 79.05757427215576,31.90077841281891 79.47638630867004,31.78183138370514 79.47638630867004,31.78183138370514 79.88521456718445,31.641724705696106 79.88521456718445,31.641724705696106 80.28374910354614,31.48060142993927 80.28374910354614,31.48060142993927 80.67609667778015,31.296688318252563 80.67609667778015,31.296688318252563 81.05723857879639,31.095117330551147 81.05723857879639,31.095117330551147 81.42688870429993,30.876126885414124 81.42688870429993,30.876126885414124 81.78480863571167,30.63996136188507 81.78480863571167,30.63996136188507 82.13070631027222,30.38681149482727 82.13070631027222,30.38681149482727 82.46430158615112,30.116865038871765 82.46430158615112,30.116865038871765 82.78534412384033,29.830366373062134 82.78534412384033,29.830366373062134 83.09355974197388,29.527553915977478 83.09355974197388,29.527553915977478 83.39222073554993,29.205766320228577 83.39222073554993,29.205766320228577 83.6754322052002,28.871643543243408 83.6754322052002,28.871643543243408 83.94302725791931,28.52557599544525 83.94302725791931,28.52557599544525 84.19483304023743,28.16794514656067 84.19483304023743,28.16794514656067 84.43066477775574,27.799084782600403 84.43066477775574,27.799084782600403 84.65032577514648,27.419334650039673 84.65032577514648,27.419334650039673 84.85366702079773,27.02910006046295 84.85366702079773,27.02910006046295 85.04046201705933,26.62869095802307 85.04046201705933,26.62869095802307 85.20254492759705,26.23116374015808 85.20254492759705,26.23116374015808 85.3432297706604,25.826486945152283 85.3432297706604,25.826486945152283 85.46246290206909,25.41497051715851 85.46246290206909,25.41497051715851 85.56020259857178,24.996930360794067 85.56020259857178,24.996930360794067 85.63634753227234,24.572700262069702 85.63634753227234,24.572700262069702 85.69080829620361,24.142616987228394 85.69080829620361,24.142616987228394 85.7235312461853,23.706990480422974 85.7235312461853,23.706990480422974 85.73446869850159,23.266135156154633 85.73446869850159,23.266135156154633 85.7235312461853,22.80457466840744 85.7235312461853,22.80457466840744 85.69083213806152,22.350643575191498 85.69083213806152,22.350643575191498 85.63641905784607,21.904774010181427 85.63641905784607,21.904774010181427 85.56039333343506,21.46739661693573 85.56039333343506,21.46739661693573 85.46284437179565,21.03894352912903 85.46284437179565,21.03894352912903 85.34387350082397,20.619848370552063 85.34387350082397,20.619848370552063 85.20355224609375,20.210540294647217 85.20355224609375,20.210540294647217 85.04199981689453,19.81145143508911 85.04199981689453,19.81145143508911 84.85532402992249,19.414380192756653 84.85532402992249,19.414380192756653 84.65123772621155,19.027191400527954 84.65123772621155,19.027191400527954 84.42987203598022,18.650294840335846 84.42987203598022,18.650294840335846 84.19137597084045,18.28409880399704 84.19137597084045,18.28409880399704 83.93589854240417,17.928986251354218 83.93589854240417,17.928986251354218 83.66357684135437,17.58534163236618 83.66357684135437,17.58534163236618 83.37455987930298,17.25357174873352 83.37455987930298,17.25357174873352 83.06899070739746,16.93408489227295 83.06899070739746,16.93408489227295 82.74717926979065,16.627386212348938 82.74717926979065,16.627386212348938 82.41404294967651,16.337312757968903 82.41404294967651,16.337312757968903 82.06982016563416,16.064129769802094 82.06982016563416,16.064129769802094 81.71475529670715,15.808050334453583 81.71475529670715,15.808050334453583 81.34903907775879,15.56934267282486 81.34903907775879,15.56934267282486 80.97286224365234,15.348170697689056 80.97286224365234,15.348170697689056 80.58648705482483,15.144847333431244 80.58648705482483,15.144847333431244 80.1900863647461,14.959542453289032 80.1900863647461,14.959542453289032 79.7925591468811,14.797915518283844 79.7925591468811,14.797915518283844 79.38785552978516,14.657425880432129 79.38785552978516,14.657425880432129 78.97627353668213,14.538215100765228 78.97627353668213,14.538215100765228 78.55813503265381,14.440380036830902 78.55813503265381,14.440380036830902 78.13373804092407,14.36406522989273 78.13373804092407,14.36406522989273 77.70336270332336,14.309415221214294 77.70336270332336,14.309415221214294 77.26735472679138,14.276522397994995 77.26735472679138,14.276522397994995 76.82599425315857,14.265535771846771 76.82599425315857,14.265535771846771 66.1333680152893,14.265535771846771 66.1333680152893,14.265535771846771 65.66789746284485,14.276595413684845 65.66789746284485,14.276595413684845 65.20912051200867,14.309726655483246 65.20912051200867,14.309726655483246 64.75735306739807,14.364808797836304 64.75735306739807,14.364808797836304 64.31294679641724,14.441724121570587 64.31294679641724,14.441724121570587 63.876235485076904,14.540374279022217 63.876235485076904,14.540374279022217 63.44757080078125,14.660663902759552 63.44757080078125,14.660663902759552 63.02729845046997,14.802473783493042 63.02729845046997,14.802473783493042 62.615734338760376,14.965684711933136 62.615734338760376,14.965684711933136 62.210434675216675,15.150605142116547 62.210434675216675,15.150605142116547 61.818087100982666,15.35172164440155 61.818087100982666,15.35172164440155 61.43898367881775,15.568765997886658 61.43898367881775,15.568765997886658 61.073410511016846,15.801525115966797 61.073410511016846,15.801525115966797 60.721659660339355,16.049759089946747 60.721659660339355,16.049759089946747 60.38401126861572,16.313226521015167 60.38401126861572,16.313226521015167 60.06075739860535,16.591687500476837 60.06075739860535,16.591687500476837 59.75219011306763,16.884952783584595 59.75219011306763,16.884952783584595 59.457987546920776,17.194098234176636 59.457987546920776,17.194098234176636 59.178948402404785,17.517879605293274 59.178948402404785,17.517879605293274 58.915239572525024,17.85598248243332 58.915239572525024,17.85598248243332 58.66703391075134,18.20809543132782 58.66703391075134,18.20809543132782 58.434516191482544,18.573860824108124 58.434516191482544,18.573860824108124 58.21787714958191,18.95301192998886 58.21787714958191,18.95301192998886 58.01728963851929,19.34516578912735 58.01728963851929,19.34516578912735 57.83292055130005,19.750036299228668 57.83292055130005,19.750036299228668 57.669252157211304,20.160135626792908 57.669252157211304,20.160135626792908 57.52725005149841,20.579470694065094 57.52725005149841,20.579470694065094 57.40693807601929,21.007612347602844 57.40693807601929,21.007612347602844 57.30838179588318,21.44417315721512 57.30838179588318,21.44417315721512 57.231634855270386,21.888723969459534 57.231634855270386,21.888723969459534 57.17674493789673,22.34083116054535 57.17674493789673,22.34083116054535 57.14375972747803,22.800111770629883 57.14375972747803,22.800111770629883 57.132768630981445,23.266135156154633 57.132768630981445,23.266135156154633 57.12406039237976,23.44292253255844 57.12406039237976,23.44292253255844 57.09824562072754,23.616665601730347 57.09824562072754,23.616665601730347 57.05575942993164,23.786208033561707 57.05575942993164,23.786208033561707 56.99707865715027,23.950353264808655 56.99707865715027,23.950353264808655 56.922608613967896,24.107973277568817 56.922608613967896,24.107973277568817 56.83286190032959,24.25784468650818 56.83286190032959,24.25784468650818 56.72823786735535,24.398837983608246 56.72823786735535,24.398837983608246 56.60919547080994,24.529780447483063 56.60919547080994,24.529780447483063 56.47832155227661,24.64839071035385 56.47832155227661,24.64839071035385 56.33749961853027,24.752800166606903 56.33749961853027,24.752800166606903 56.18786811828613,24.842526018619537 56.18786811828613,24.842526018619537 56.03053569793701,24.917088449001312 56.03053569793701,24.917088449001312 55.866676568984985,24.975962936878204 55.866676568984985,24.975962936878204 55.697375535964966,25.018617510795593 55.697375535964966,25.018617510795593 55.52380084991455,25.044575333595276 55.52380084991455,25.044575333595276 55.34708499908447,25.05335807800293 55.34708499908447,25.05335807800293 44.652920961380005,25.05335807800293 44.652920961380005,25.05335807800293 44.29310858249664,25.017058849334717 44.29310858249664,25.017058849334717 43.9578115940094,24.912938475608826 43.9578115940094,24.912938475608826 43.65425407886505,24.748192727565765 43.65425407886505,24.748192727565765 43.389660120010376,24.529972672462463 43.389660120010376,24.529972672462463 43.17127168178558,24.26549792289734 43.17127168178558,24.26549792289734 43.00633370876312,23.96189272403717 43.00633370876312,23.96189272403717 42.90207028388977,23.626381158828735 42.90207028388977,23.626381158828735 42.86569952964783,23.266135156154633 42.86569952964783,23.266135156154633 42.89460778236389,22.084297239780426 42.89460778236389,22.084297239780426 42.98119246959686,20.916278660297394 42.98119246959686,20.916278660297394 43.12528073787689,19.76308673620224 43.12528073787689,19.76308673620224 43.32670867443085,18.62572878599167 43.32670867443085,18.62572878599167 43.58528256416321,17.505212128162384 43.58528256416321,17.505212128162384 43.900808691978455,16.40254408121109 43.900808691978455,16.40254408121109 44.273123145103455,15.31873345375061 44.273123145103455,15.31873345375061 44.7020560503006,14.254787564277649 44.7020560503006,14.254787564277649 45.176762342453,13.224044442176819 45.176762342453,13.224044442176819 45.69419622421265,12.222402542829514 45.69419622421265,12.222402542829514 46.253782510757446,11.250605434179306 46.253782510757446,11.250605434179306 46.8548983335495,10.30934825539589 46.8548983335495,10.30934825539589 47.496989369392395,9.399423003196716 47.496989369392395,9.399423003196716 48.17940890789032,8.5215263068676 48.17940890789032,8.5215263068676 48.9016056060791,7.676424086093903 48.9016056060791,7.676424086093903 49.66298043727875,6.864837557077408 49.66298043727875,6.864837557077408 50.46700835227966,6.087774038314819 50.46700835227966,6.087774038314819 51.30779147148132,5.351854860782623 51.30779147148132,5.351854860782623 52.184563875198364,4.657631739974022 52.184563875198364,4.657631739974022 53.096550703048706,4.005704447627068 53.096550703048706,4.005704447627068 54.0429413318634,3.3966004848480225 54.0429413318634,3.3966004848480225 55.02291917800903,2.8308482840657234 55.02291917800903,2.8308482840657234 56.0357391834259,2.309047430753708 56.0357391834259,2.309047430753708 57.08056688308716,1.8317494541406631 57.08056688308716,1.8317494541406631 58.15423130989075,1.4038966037333012 58.15423130989075,1.4038966037333012 59.24646258354187,1.0325182229280472 59.24646258354187,1.0325182229280472 60.35625338554382,0.717758247628808 60.35625338554382,0.717758247628808 61.4825963973999,0.45985663309693336 61.4825963973999,0.45985663309693336 62.62449026107788,0.25895724538713694 62.62449026107788,0.25895724538713694 63.78092169761658,0.11520406696945429 63.78092169761658,0.11520406696945429 64.95088338851929,0.028837000718340278 64.95088338851929,0.028837000718340278 66.1333680152893,0.0 66.1333680152893,0.0 76.82599425315857,0.0 76.82599425315857,0.0 78.00835967063904,0.02895695506595075 78.00835967063904,0.02895695506595075 79.17676568031311,0.11568388435989618 79.17676568031311,0.11568388435989618 80.33028841018677,0.2599168801680207 80.33028841018677,0.2599168801680207 81.46793842315674,0.46139201149344444 81.46793842315674,0.46139201149344444 82.58874416351318,0.7198694627732038 82.58874416351318,0.7198694627732038 83.69174599647522,1.035109255462885 83.69174599647522,1.035109255462885 84.77596640586853,1.4068234711885452 84.77596640586853,1.4068234711885452 85.84041595458984,1.8348202109336853 85.84041595458984,1.8348202109336853 86.87285780906677,2.312094159424305 86.87285780906677,2.312094159424305 87.87493109703064,2.8338711708784103 87.87493109703064,2.8338711708784103 88.8457715511322,3.399503603577614 88.8457715511322,3.399503603577614 89.78450894355774,4.008391126990318 89.78450894355774,4.008391126990318 90.69028496742249,4.659982770681381 90.69028496742249,4.659982770681381 91.56222939491272,5.35363033413887 91.56222939491272,5.35363033413887 92.39946603775024,6.088781729340553 92.39946603775024,6.088781729340553 93.20119023323059,6.864837557077408 93.20119023323059,6.864837557077408 93.9635694026947,7.676544040441513 93.9635694026947,7.676544040441513 94.68651413917542,8.521957695484161 94.68651413917542,8.521957695484161 95.36943435668945,9.40021499991417 95.36943435668945,9.40021499991417 96.01176381111145,10.310499370098114 96.01176381111145,10.310499370098114 96.61293029785156,11.251948773860931 96.61293029785156,11.251948773860931 97.17234969139099,12.223698198795319 97.17234969139099,12.223698198795319 97.68944382667542,13.224932551383972 97.68944382667542,13.224932551383972" stroke="white" stroke-width="0.1" /><polygon points="76.82599425315857,64.34768438339233 76.82599425315857,64.34768438339233 77.18669772148132,64.38390612602234 77.18669772148132,64.38390612602234 77.52240300178528,64.4878625869751 77.52240300178528,64.4878625869751 77.82600522041321,64.6523654460907 77.82600522041321,64.6523654460907 78.09041142463684,64.87029790878296 78.09041142463684,64.87029790878296 78.30846309661865,65.13451337814331 78.30846309661865,65.13451337814331 78.47301363945007,65.43785333633423 78.47301363945007,65.43785333633423 78.57697010040283,65.77317118644714 78.57697010040283,65.77317118644714 78.61321568489075,66.1333680152893 78.61321568489075,66.1333680152893 78.61321568489075,76.82753205299377 78.61321568489075,76.82753205299377 78.57697010040283,77.18727588653564 78.57697010040283,77.18727588653564 78.47301363945007,77.52240300178528 78.47301363945007,77.52240300178528 78.30846309661865,77.82569527626038 78.30846309661865,77.82569527626038 78.09041142463684,78.0900239944458 78.09041142463684,78.0900239944458 77.82600522041321,78.30812335014343 77.82600522041321,78.30812335014343 77.52240300178528,78.47282290458679 77.52240300178528,78.47282290458679 77.18669772148132,78.57692241668701 77.18669772148132,78.57692241668701 76.82599425315857,78.61321568489075 76.82599425315857,78.61321568489075 66.1333680152893,78.61321568489075 66.1333680152893,78.61321568489075 65.77268838882446,78.57692241668701 65.77268838882446,78.57692241668701 65.43696522712708,78.47282290458679 65.43696522712708,78.47282290458679 65.13335704803467,78.30812335014343 65.13335704803467,78.30812335014343 64.86895680427551,78.0900239944458 64.86895680427551,78.0900239944458 64.6509051322937,77.82569527626038 64.6509051322937,77.82569527626038 64.4863486289978,77.52240300178528 64.4863486289978,77.52240300178528 64.38239812850952,77.18727588653564 64.38239812850952,77.18727588653564 64.34614658355713,76.82753205299377 64.34614658355713,76.82753205299377 64.34614658355713,66.1333680152893 64.34614658355713,66.1333680152893 64.38237428665161,65.77317118644714 64.38237428665161,65.77317118644714 64.4863486289978,65.43785333633423 64.4863486289978,65.43785333633423 64.6509051322937,65.13451337814331 64.6509051322937,65.13451337814331 64.86895680427551,64.87029790878296 64.86895680427551,64.87029790878296 65.13335704803467,64.6523654460907 65.13335704803467,64.6523654460907 65.43696522712708,64.4878625869751 65.43696522712708,64.4878625869751 65.77266454696655,64.38390612602234 65.77266454696655,64.38390612602234 66.1333680152893,64.34768438339233 66.1333680152893,64.34768438339233" stroke="white" stroke-width="0.1" /><polygon points="1.8363555893301964,64.35843110084534 1.8363555893301964,64.35843110084534 1.4078670181334019,63.29506039619446 1.4078670181334019,63.29506039619446 1.03575699031353,62.21175193786621 1.03575699031353,62.21175193786621 0.7202533073723316,61.10949516296387 0.7202533073723316,61.10949516296387 0.4615839570760727,59.989213943481445 0.4615839570760727,59.989213943481445 0.25998884811997414,58.851903676986694 0.25998884811997414,58.851903676986694 0.11570786591619253,57.69845247268677 0.11570786591619253,57.69845247268677 0.02895695506595075,56.529879570007324 0.02895695506595075,56.529879570007324 0.0,55.34708499908447 0.0,55.34708499908447 0.028968951664865017,54.16373610496521 0.028968951664865017,54.16373610496521 0.11570786591619253,52.99461483955383 0.11570786591619253,52.99461483955383 0.25998884811997414,51.84072256088257 0.25998884811997414,51.84072256088257 0.4615839570760727,50.703030824661255 0.4615839570760727,50.703030824661255 0.7202533073723316,49.58253800868988 0.7202533073723316,49.58253800868988 1.03575699031353,48.48025441169739 1.03575699031353,48.48025441169739 1.4078670181334019,47.39713966846466 1.4078670181334019,47.39713966846466 1.8363555893301964,46.3342010974884 1.8363555893301964,46.3342010974884 2.312573976814747,45.301371812820435 2.312573976814747,45.301371812820435 2.8334394097328186,44.29920017719269 2.8334394097328186,44.29920017719269 3.3983759582042694,43.328410387039185 3.3983759582042694,43.328410387039185 4.006855934858322,42.38972067832947 4.006855934858322,42.38972067832947 4.6582914888858795,41.48384928703308 4.6582914888858795,41.48384928703308 5.352142825722694,40.611520409584045 5.352142825722694,40.611520409584045 6.0878463089466095,39.77344632148743 6.0878463089466095,39.77344632148743 6.864837557077408,38.970354199409485 6.864837557077408,38.970354199409485 7.675489038228989,38.20897936820984 7.675489038228989,38.20897936820984 8.520038425922394,37.48678267002106 8.520038425922394,37.48678267002106 9.39774364233017,36.80436313152313 9.39774364233017,36.80436313152313 10.307812690734863,36.16227209568024 10.307812690734863,36.16227209568024 11.249477416276932,35.561156272888184 11.249477416276932,35.561156272888184 12.221970409154892,35.001569986343384 12.221970409154892,35.001569986343384 13.22450041770935,34.48413610458374 13.22450041770935,34.48413610458374 14.256322383880615,34.009429812431335 14.256322383880615,34.009429812431335 15.111979842185974,33.65877866744995 15.111979842185974,33.65877866744995 15.978914499282837,33.34507346153259 15.978914499282837,33.34507346153259 16.856570541858673,33.06836485862732 16.856570541858673,33.06836485862732 17.74440109729767,32.828694581985474 17.74440109729767,32.828694581985474 18.641874194145203,32.626163959503174 18.641874194145203,32.626163959503174 19.548463821411133,32.46086835861206 19.548463821411133,32.46086835861206 20.463620126247406,32.332852482795715 20.463620126247406,32.332852482795715 21.38678729534149,32.2421669960022 21.38678729534149,32.2421669960022 21.38678729534149,23.266135156154633 21.38678729534149,23.266135156154633 21.423013508319855,22.906319797039032 21.423013508319855,22.906319797039032 21.526989340782166,22.571024298667908 21.526989340782166,22.571024298667908 21.691566705703735,22.26744294166565 21.691566705703735,22.26744294166565 21.909596025943756,22.002872824668884 21.909596025943756,22.002872824668884 22.17397540807724,21.784508228302002 22.17397540807724,21.784508228302002 22.4776029586792,21.61954641342163 22.4776029586792,21.61954641342163 22.813330590724945,21.51528298854828 22.813330590724945,21.51528298854828 23.17401021718979,21.478912234306335 23.17401021718979,21.478912234306335 33.86663496494293,21.478912234306335 33.86663496494293,21.478912234306335 34.227314591407776,21.51528298854828 34.227314591407776,21.51528298854828 34.5630407333374,21.61954641342163 34.5630407333374,21.61954641342163 34.86666977405548,21.784484386444092 34.86666977405548,21.784484386444092 35.131049156188965,22.002872824668884 35.131049156188965,22.002872824668884 35.349076986312866,22.26746678352356 35.349076986312866,22.26746678352356 35.513654351234436,22.571024298667908 35.513654351234436,22.571024298667908 35.617631673812866,22.906319797039032 35.617631673812866,22.906319797039032 35.65385937690735,23.266135156154633 35.65385937690735,23.266135156154633 35.65385937690735,44.65445876121521 35.65385937690735,44.65445876121521 35.617631673812866,45.01419961452484 35.617631673812866,45.01419961452484 35.513654351234436,45.349329710006714 35.513654351234436,45.349329710006714 35.349076986312866,45.65264582633972 35.349076986312866,45.65264582633972 35.131049156188965,45.916950702667236 35.131049156188965,45.916950702667236 34.86666977405548,46.13505303859711 34.86666977405548,46.13505303859711 34.5630407333374,46.29974961280823 34.5630407333374,46.29974961280823 34.227314591407776,46.40386998653412 34.227314591407776,46.40386998653412 33.86663496494293,46.44014537334442 33.86663496494293,46.44014537334442 23.17401021718979,46.44014537334442 23.17401021718979,46.44014537334442 22.71048277616501,46.451133489608765 22.71048277616501,46.451133489608765 22.25523144006729,46.483999490737915 22.25523144006729,46.483999490737915 21.808570623397827,46.53860330581665 21.808570623397827,46.53860330581665 21.37085795402527,46.61479890346527 21.37085795402527,46.61479890346527 20.942428708076477,46.71244025230408 20.942428708076477,46.71244025230408 20.523621141910553,46.83138728141785 20.523621141910553,46.83138728141785 20.11479288339615,46.97149395942688 20.11479288339615,46.97149395942688 19.716256856918335,47.132617235183716 19.716256856918335,47.132617235183716 19.323910772800446,47.31653034687042 19.323910772800446,47.31653034687042 18.94276738166809,47.51810133457184 18.94276738166809,47.51810133457184 18.573103845119476,47.73708879947662 18.573103845119476,47.73708879947662 18.215197324752808,47.973254323005676 18.215197324752808,47.973254323005676 17.869308590888977,48.226407170295715 17.869308590888977,48.226407170295715 17.535704374313354,48.49635064601898 17.535704374313354,48.49635064601898 17.214670777320862,48.78285229206085 17.214670777320862,48.78285229206085 16.90644770860672,49.08566474914551 16.90644770860672,49.08566474914551 16.607798635959625,49.40747618675232 16.607798635959625,49.40747618675232 16.324573755264282,49.74157214164734 16.324573755264282,49.74157214164734 16.05696827173233,50.087618827819824 16.05696827173233,50.087618827819824 15.805171430110931,50.44527053833008 15.805171430110931,50.44527053833008 15.569354593753815,50.81415772438049 15.569354593753815,50.81415772438049 15.349681675434113,51.193881034851074 15.349681675434113,51.193881034851074 15.146347880363464,51.584118604660034 15.146347880363464,51.584118604660034 14.959542453289032,51.984524726867676 14.959542453289032,51.984524726867676 14.797472953796387,52.382051944732666 14.797472953796387,52.382051944732666 14.656777679920197,52.7867317199707 14.656777679920197,52.7867317199707 14.53753113746643,53.19827198982239 14.53753113746643,53.19827198982239 14.43980485200882,53.61628532409668 14.43980485200882,53.61628532409668 14.363670349121094,54.040491580963135 14.363670349121094,54.040491580963135 14.309199154376984,54.47059869766235 14.309199154376984,54.47059869766235 14.27646279335022,54.90622520446777 14.27646279335022,54.90622520446777 14.265535771846771,55.34708499908447 14.265535771846771,55.34708499908447 14.27646279335022,55.808645486831665 14.27646279335022,55.808645486831665 14.309175312519073,56.26257658004761 14.309175312519073,56.26257658004761 14.363585412502289,56.70844316482544 14.363585412502289,56.70844316482544 14.439612627029419,57.145822048187256 14.439612627029419,57.145822048187256 14.537160098552704,57.57427215576172 14.537160098552704,57.57427215576172 14.656130969524384,57.99337029457092 14.656130969524384,57.99337029457092 14.796440303325653,58.40265154838562 14.796440303325653,58.40265154838562 14.958007633686066,58.801764249801636 14.958007633686066,58.801764249801636 15.144680440425873,59.19883847236633 15.144680440425873,59.19883847236633 15.348769724369049,59.58602428436279 15.348769724369049,59.58602428436279 15.570133924484253,59.96292233467102 15.570133924484253,59.96292233467102 15.808627009391785,60.329121351242065 15.808627009391785,60.329121351242065 16.064105927944183,60.68423390388489 16.064105927944183,60.68423390388489 16.33642613887787,61.027878522872925 16.33642613887787,61.027878522872925 16.62544310092926,61.359620094299316 16.62544310092926,61.359620094299316 16.931015253067017,61.6791307926178 16.931015253067017,61.6791307926178 17.252840101718903,61.98583245277405 17.252840101718903,61.98583245277405 17.585964500904083,62.275904417037964 17.585964500904083,62.275904417037964 17.930173873901367,62.54909038543701 17.930173873901367,62.54909038543701 18.285250663757324,62.80516982078552 18.285250663757324,62.80516982078552 18.650978803634644,63.04389834403992 18.650978803634644,63.04389834403992 19.027143716812134,63.26504945755005 19.027143716812134,63.26504945755005 19.41351592540741,63.46839666366577 19.41351592540741,63.46839666366577 19.809916615486145,63.65367770195007 19.809916615486145,63.65367770195007 20.207445323467255,63.81530165672302 20.207445323467255,63.81530165672302 20.612147450447083,63.95578980445862 20.612147450447083,63.95578980445862 21.023710072040558,64.07500505447388 21.023710072040558,64.07500505447388 21.44187092781067,64.1728401184082 21.44187092781067,64.1728401184082 21.866267919540405,64.24912810325623 21.866267919540405,64.24912810325623 22.296640276908875,64.30380344390869 22.296640276908875,64.30380344390869 22.732649743556976,64.33669328689575 22.732649743556976,64.33669328689575 23.17401021718979,64.34768438339233 23.17401021718979,64.34768438339233 33.86663496494293,64.34768438339233 33.86663496494293,64.34768438339233 34.33210551738739,64.33662176132202 34.33210551738739,64.33662176132202 34.79088246822357,64.30349349975586 34.79088246822357,64.30349349975586 35.242655873298645,64.24840688705444 35.242655873298645,64.24840688705444 35.68706214427948,64.17149305343628 35.68706214427948,64.17149305343628 36.123767495155334,64.07284140586853 36.123767495155334,64.07284140586853 36.55243515968323,63.952553272247314 36.55243515968323,63.952553272247314 36.97273135185242,63.810741901397705 36.97273135185242,63.810741901397705 37.38426864147186,63.64753246307373 37.38426864147186,63.64753246307373 37.7895712852478,63.46261501312256 37.7895712852478,63.46261501312256 38.18191885948181,63.261497020721436 38.18191885948181,63.261497020721436 38.56102228164673,63.04445266723633 38.56102228164673,63.04445266723633 38.92659246921539,62.81169056892395 38.92659246921539,62.81169056892395 39.27834630012512,62.56348490715027 39.27834630012512,62.56348490715027 39.615994691848755,62.2999906539917 39.615994691848755,62.2999906539917 39.93924856185913,62.02150583267212 39.93924856185913,62.02150583267212 40.24781882762909,61.72826290130615 40.24781882762909,61.72826290130615 40.54199457168579,61.41911745071411 40.54199457168579,61.41911745071411 40.821054577827454,61.09533905982971 40.821054577827454,61.09533905982971 41.084763407707214,60.757237672805786 41.084763407707214,60.757237672805786 41.332972049713135,60.405123233795166 41.332972049713135,60.405123233795166 41.56549274921417,60.03933548927307 41.56549274921417,60.03933548927307 41.78212881088257,59.660208225250244 41.78212881088257,59.660208225250244 41.9827401638031,59.26805138587952 41.9827401638031,59.26805138587952 42.16708540916443,58.8631808757782 42.16708540916443,58.8631808757782 42.330750823020935,58.45308303833008 42.330750823020935,58.45308303833008 42.472752928733826,58.03374648094177 42.472752928733826,58.03374648094177 42.59306788444519,57.60558247566223 42.59306788444519,57.60558247566223 42.69162118434906,57.16904401779175 42.69162118434906,57.16904401779175 42.76836812496185,56.72449469566345 42.76836812496185,56.72449469566345 42.82326102256775,56.27238750457764 42.82326102256775,56.27238750457764 42.85624623298645,55.813080072402954 42.85624623298645,55.813080072402954 42.86723434925079,55.34708499908447 42.86723434925079,55.34708499908447 42.87594258785248,55.170321464538574 42.87594258785248,55.170321464538574 42.9017573595047,54.9965500831604 42.9017573595047,54.9965500831604 42.94424653053284,54.82701063156128 42.94424653053284,54.82701063156128 43.00292730331421,54.66286540031433 43.00292730331421,54.66286540031433 43.07739436626434,54.5052707195282 43.07739436626434,54.5052707195282 43.16714406013489,54.35537099838257 43.16714406013489,54.35537099838257 43.27176809310913,54.21438217163086 43.27176809310913,54.21438217163086 43.39081048965454,54.083436727523804 43.39081048965454,54.083436727523804 43.52168142795563,53.964829444885254 43.52168142795563,53.964829444885254 43.662506341934204,53.8604199886322 43.662506341934204,53.8604199886322 43.812137842178345,53.77069115638733 43.812137842178345,53.77069115638733 43.969470262527466,53.69613170623779 43.969470262527466,53.69613170623779 44.1333532333374,53.63727807998657 44.1333532333374,53.63727807998657 44.30263042449951,53.59460115432739 44.30263042449951,53.59460115432739 44.47620511054993,53.5686194896698 44.47620511054993,53.5686194896698 44.652920961380005,53.559863567352295 44.652920961380005,53.559863567352295 55.34708499908447,53.559863567352295 55.34708499908447,53.559863567352295 55.70690035820007,53.59615683555603 55.70690035820007,53.59615683555603 56.04219436645508,53.70028018951416 56.04219436645508,53.70028018951416 56.34574890136719,53.86502742767334 56.34574890136719,53.86502742767334 56.6103458404541,54.08324599266052 56.6103458404541,54.08324599266052 56.828707456588745,54.34771776199341 56.828707456588745,54.34771776199341 56.993669271469116,54.651325941085815 56.993669271469116,54.651325941085815 57.09793567657471,54.98685836791992 57.09793567657471,54.98685836791992 57.13430643081665,55.34708499908447 57.13430643081665,55.34708499908447 57.105422019958496,56.52891993522644 57.105422019958496,56.52891993522644 57.01881647109985,57.69693851470947 57.01881647109985,57.69693851470947 56.87472224235535,58.850133419036865 56.87472224235535,58.850133419036865 56.67330026626587,59.98749136924744 56.67330026626587,59.98749136924744 56.41472339630127,61.10800504684448 56.41472339630127,61.10800504684448 56.099194288253784,62.210673093795776 56.099194288253784,62.210673093795776 55.726855993270874,63.29445838928223 55.726855993270874,63.29445838928223 55.29795289039612,64.35843110084534 55.29795289039612,64.35843110084534 54.823243618011475,65.38917422294617 54.823243618011475,65.38917422294617 54.30580973625183,66.39081835746765 54.30580973625183,66.39081835746765 53.74622344970703,67.36261248588562 53.74622344970703,67.36261248588562 53.14510464668274,68.30387115478516 53.14510464668274,68.30387115478516 52.503037452697754,69.21381950378418 52.503037452697754,69.21381950378418 51.82059407234192,70.09169459342957 51.82059407234192,70.09169459342957 51.098400354385376,70.93681693077087 51.098400354385376,70.93681693077087 50.33702850341797,71.74838185310364 50.33702850341797,71.74838185310364 49.532997608184814,72.52544164657593 49.532997608184814,72.52544164657593 48.692214488983154,73.26136231422424 48.692214488983154,73.26136231422424 47.81544506549835,73.9555835723877 47.81544506549835,73.9555835723877 46.90345525741577,74.60751533508301 46.90345525741577,74.60751533508301 45.957064628601074,75.21663904190063 45.957064628601074,75.21663904190063 44.977086782455444,75.78237056732178 44.977086782455444,75.78237056732178 43.964287638664246,76.30414366722107 43.964287638664246,76.30414366722107 42.91943907737732,76.78146958351135 42.91943907737732,76.78146958351135 41.84577763080597,77.20932364463806 41.84577763080597,77.20932364463806 40.753546357154846,77.58070230484009 40.753546357154846,77.58070230484009 39.643752574920654,77.89543271064758 39.643752574920654,77.89543271064758 38.517406582832336,78.15335988998413 38.517406582832336,78.15335988998413 37.37551271915436,78.35428714752197 37.37551271915436,78.35428714752197 36.21908128261566,78.49801182746887 36.21908128261566,78.49801182746887 35.04911959171295,78.58437895774841 35.04911959171295,78.58437895774841 33.86663496494293,78.61321568489075 33.86663496494293,78.61321568489075 23.17401021718979,78.61321568489075 23.17401021718979,78.61321568489075 21.99164479970932,78.58423590660095 21.99164479970932,78.58423590660095 20.823241770267487,78.49753499031067 20.823241770267487,78.49753499031067 19.66971457004547,78.35330367088318 19.66971457004547,78.35330367088318 18.53206753730774,78.1518280506134 18.53206753730774,78.1518280506134 17.411263287067413,77.89334654808044 17.411263287067413,77.89334654808044 16.308259963989258,77.57810950279236 16.308259963989258,77.57810950279236 15.224041044712067,77.20637321472168 15.224041044712067,77.20637321472168 14.159591495990753,76.77839994430542 14.159591495990753,76.77839994430542 13.127145171165466,76.30109786987305 13.127145171165466,76.30109786987305 12.1250718832016,75.77934861183167 12.1250718832016,75.77934861183167 11.154233664274216,75.21371245384216 11.154233664274216,75.21371245384216 10.215496271848679,74.60482716560364 10.215496271848679,74.60482716560364 9.309721738100052,73.95325899124146 9.309721738100052,73.95325899124146 8.437773585319519,73.25958609580994 8.437773585319519,73.25958609580994 7.600517570972443,72.52443432807922 7.600517570972443,72.52443432807922 6.798814982175827,71.74838185310364 6.798814982175827,71.74838185310364 6.0364339500665665,70.93667387962341 6.0364339500665665,70.93667387962341 5.313493683934212,70.0912594795227 5.313493683934212,70.0912594795227 4.630570113658905,69.21297907829285 4.630570113658905,69.21297907829285 3.9882387965917587,68.30272078514099 3.9882387965917587,68.30272078514099 3.387076035141945,67.36127138137817 3.387076035141945,67.36127138137817 2.827657572925091,66.38951897621155 2.827657572925091,66.38951897621155 2.310558781027794,65.3882622718811 2.310558781027794,65.3882622718811" stroke="white" stroke-width="0.1" /><polygon points="23.17401021718979,14.265535771846771 23.17401021718979,14.265535771846771 22.813330590724945,14.229309558868408 22.813330590724945,14.229309558868408 22.4776029586792,14.125356078147888 22.4776029586792,14.125356078147888 22.17397540807724,13.960851728916168 22.17397540807724,13.960851728916168 21.909596025943756,13.742919266223907 21.909596025943756,13.742919266223907 21.691566705703735,13.478706777095795 21.691566705703735,13.478706777095795 21.526989340782166,13.175366818904877 21.526989340782166,13.175366818904877 21.423013508319855,12.840047478675842 21.423013508319855,12.840047478675842 21.38678729534149,12.4798484146595 21.38678729534149,12.4798484146595 21.38678729534149,1.7856869846582413 21.38678729534149,1.7856869846582413 21.423013508319855,1.4259441755712032 21.423013508319855,1.4259441755712032 21.526989340782166,1.09081594273448 21.526989340782166,1.09081594273448 21.691566705703735,0.7874996401369572 21.691566705703735,0.7874996401369572 21.909596025943756,0.5231924820691347 21.909596025943756,0.5231924820691347 22.17397540807724,0.3050916362553835 22.17397540807724,0.3050916362553835 22.4776029586792,0.14039445668458939 22.4776029586792,0.14039445668458939 22.813330590724945,0.03629815764725208 22.813330590724945,0.03629815764725208 23.17401021718979,0.0 23.17401021718979,0.0 33.86663496494293,0.0 33.86663496494293,0.0 34.227314591407776,0.03629815764725208 34.227314591407776,0.03629815764725208 34.5630407333374,0.14039445668458939 34.5630407333374,0.14039445668458939 34.86666977405548,0.3050916362553835 34.86666977405548,0.3050916362553835 35.131049156188965,0.5231924820691347 35.131049156188965,0.5231924820691347 35.349076986312866,0.7874757051467896 35.349076986312866,0.7874757051467896 35.513654351234436,1.09081594273448 35.513654351234436,1.09081594273448 35.617631673812866,1.4259441755712032 35.617631673812866,1.4259441755712032 35.65385937690735,1.7856869846582413 35.65385937690735,1.7856869846582413 35.65385937690735,12.4798484146595 35.65385937690735,12.4798484146595 35.617631673812866,12.840023636817932 35.617631673812866,12.840023636817932 35.513654351234436,13.175366818904877 35.513654351234436,13.175366818904877 35.349076986312866,13.478706777095795 35.349076986312866,13.478706777095795 35.131049156188965,13.742919266223907 35.131049156188965,13.742919266223907 34.86666977405548,13.960851728916168 34.86666977405548,13.960851728916168 34.5630407333374,14.125356078147888 34.5630407333374,14.125356078147888 34.227314591407776,14.229309558868408 34.227314591407776,14.229309558868408 33.86663496494293,14.265535771846771 33.86663496494293,14.265535771846771" stroke="white" stroke-width="0.1" /></svg>