<?xml version="1.0" encoding="utf-8" ?>
<svg baseProfile="full" height="99.99999403953552" version="1.1" width="86.99296712875366" xmlns="http://www.w3.org/2000/svg" xmlns:ev="http://www.w3.org/2001/xml-events" xmlns:xlink="http://www.w3.org/1999/xlink"><defs><clipPath /></defs><polygon points="75.23890733718872,36.12576127052307 75.23890733718872,36.12576127052307 75.23890733718872,58.26972723007202 75.23890733718872,58.26972723007202 74.76367354393005,58.153825998306274 74.76367354393005,58.153825998306274 74.29665327072144,58.06077718734741 74.29665327072144,58.06077718734741 73.84139895439148,57.98770189285278 73.84139895439148,57.98770189285278 73.40152859687805,57.931530475616455 73.40152859687805,57.931530475616455 72.98052906990051,57.889324426651 72.98052906990051,57.889324426651 72.58195877075195,57.85813331604004 72.58195877075195,57.85813331604004 72.20937609672546,57.83492922782898 72.20937609672546,57.83492922782898 71.86627388000488,57.81673192977905 71.86627388000488,57.81673192977905 71.78295254707336,57.81272649765015 71.78295254707336,57.81272649765015 71.7015027999878,57.80903697013855 71.7015027999878,57.80903697013855 71.62206172943115,57.805389165878296 71.62206172943115,57.805389165878296 71.54488563537598,57.80160427093506 71.54488563537598,57.80160427093506 71.47009372711182,57.797372341156006 71.47009372711182,57.797372341156006 71.39796018600464,57.79242515563965 71.39796018600464,57.79242515563965 71.32859826087952,57.78657793998718 71.32859826087952,57.78657793998718 71.26228213310242,57.779496908187866 71.26228213310242,57.779496908187866 70.61485052108765,57.689034938812256 70.61485052108765,57.689034938812256 69.97724175453186,57.573819160461426 69.97724175453186,57.573819160461426 69.34933662414551,57.43412971496582 69.34933662414551,57.43412971496582 68.73144507408142,57.27039575576782 68.73144507408142,57.27039575576782 68.12370419502258,57.08287954330444 68.12370419502258,57.08287954330444 67.52630472183228,56.871962547302246 67.52630472183228,56.871962547302246 66.939377784729,56.63796663284302 66.939377784729,56.63796663284302 66.36311411857605,56.381213665008545 66.36311411857605,56.381213665008545 66.36311411857605,32.34977722167969 66.36311411857605,32.34977722167969 71.46240472793579,32.34977722167969 71.46240472793579,32.34977722167969 72.2198486328125,32.428184151649475 72.2198486328125,32.428184151649475 72.92668223381042,32.649898529052734 72.92668223381042,32.649898529052734 73.56745600700378,32.999566197395325 73.56745600700378,32.999566197395325 74.12671446800232,33.46170783042908 74.12671446800232,33.46170783042908 74.58895444869995,34.020838141441345 74.58895444869995,34.020838141441345 74.93872046470642,34.66154634952545 74.93872046470642,34.66154634952545 75.1604974269867,35.36831438541412 75.1604974269867,35.36831438541412" stroke="white" stroke-width="0.1" /><polygon points="72.14861512184143,72.75002598762512 72.14861512184143,72.75002598762512 72.58687615394592,72.74298071861267 72.58687615394592,72.74298071861267 73.0096161365509,72.7221667766571 73.0096161365509,72.7221667766571 73.41710329055786,72.688227891922 73.41710329055786,72.688227891922 73.80972504615784,72.64181971549988 73.80972504615784,72.64181971549988 74.18786883354187,72.58354425430298 74.18786883354187,72.58354425430298 74.55185055732727,72.51396179199219 74.55185055732727,72.51396179199219 74.90213513374329,72.43377566337585 74.90213513374329,72.43377566337585 75.23890733718872,72.34356999397278 75.23890733718872,72.34356999397278 75.23890733718872,74.0893542766571 75.23890733718872,74.0893542766571 74.5320737361908,74.37399625778198 74.5320737361908,74.37399625778198 73.83790612220764,74.67789649963379 73.83790612220764,74.67789649963379 73.1561541557312,74.99760389328003 73.1561541557312,74.99760389328003 72.48661518096924,75.32953023910522 72.48661518096924,75.32953023910522 71.8290388584137,75.67024230957031 71.8290388584137,75.67024230957031 71.18309736251831,76.01625919342041 71.18309736251831,76.01625919342041 70.54872512817383,76.36405229568481 70.54872512817383,76.36405229568481 69.92553472518921,76.7100989818573 69.92553472518921,76.7100989818573 69.46762800216675,76.96439623832703 69.46762800216675,76.96439623832703 69.00972127914429,77.2165834903717 69.00972127914429,77.2165834903717 68.55362057685852,77.46409177780151 68.55362057685852,77.46409177780151 68.10107827186584,77.704256772995 68.10107827186584,77.704256772995 67.65397191047668,77.9344379901886 67.65397191047668,77.9344379901886 67.21403002738953,78.15195322036743 67.21403002738953,78.15195322036743 66.78314208984375,78.35427522659302 66.78314208984375,78.35427522659302 66.36311411857605,78.53862643241882 66.36311411857605,78.53862643241882 66.36311411857605,72.3497748374939 66.36311411857605,72.3497748374939 66.79374575614929,72.37608432769775 66.79374575614929,72.37608432769775 67.21888184547424,72.40258455276489 67.21888184547424,72.40258455276489 67.63910055160522,72.42976427078247 67.63910055160522,72.42976427078247 68.05473566055298,72.45811223983765 68.05473566055298,72.45811223983765 68.46649050712585,72.48810529708862 68.46649050712585,72.48810529708862 68.8748836517334,72.52023220062256 68.8748836517334,72.52023220062256 69.28030252456665,72.55497574806213 69.28030252456665,72.55497574806213 69.68352198600769,72.59281873703003 69.68352198600769,72.59281873703003 69.83296871185303,72.60833382606506 69.83296871185303,72.60833382606506 70.06644606590271,72.63166904449463 70.06644606590271,72.63166904449463 70.31899690628052,72.65577912330627 70.31899690628052,72.65577912330627 70.58912515640259,72.67953157424927 70.58912515640259,72.67953157424927 70.87521553039551,72.70167469978333 70.87521553039551,72.70167469978333 71.17578983306885,72.72103428840637 71.17578983306885,72.72103428840637 71.48922681808472,72.73631691932678 71.48922681808472,72.73631691932678 71.81404232978821,72.74643778800964 71.81404232978821,72.74643778800964" stroke="white" stroke-width="0.1" /><polygon points="51.331573724746704,70.17685174942017 51.331573724746704,70.17685174942017 52.60251760482788,70.47978639602661 52.60251760482788,70.47978639602661 53.8949191570282,70.76132297515869 53.8949191570282,70.76132297515869 55.209171772003174,71.02172374725342 55.209171772003174,71.02172374725342 56.545788049697876,71.26124501228333 56.545788049697876,71.26124501228333 57.905417680740356,71.4802086353302 57.905417680740356,71.4802086353302 59.2883825302124,71.67894840240479 59.2883825302124,71.67894840240479 60.69539189338684,71.85770869255066 60.69539189338684,71.85770869255066 62.126898765563965,72.01675176620483 62.126898765563965,72.01675176620483 62.126898765563965,78.01220417022705 62.126898765563965,78.01220417022705 62.0194673538208,77.92015671730042 62.0194673538208,77.92015671730042 61.91139221191406,77.82642841339111 61.91139221191406,77.82642841339111 61.80260181427002,77.7310848236084 61.80260181427002,77.7310848236084 61.6930365562439,77.63431668281555 61.6930365562439,77.63431668281555 61.58269643783569,77.53626108169556 61.58269643783569,77.53626108169556 61.47158145904541,77.43697166442871 61.47158145904541,77.43697166442871 61.359626054763794,77.33668684959412 61.359626054763794,77.33668684959412 61.24676465988159,77.23549008369446 61.24676465988159,77.23549008369446 60.49138903617859,76.56388878822327 60.49138903617859,76.56388878822327 59.63652729988098,75.85110664367676 59.63652729988098,75.85110664367676 58.6733341217041,75.13741850852966 58.6733341217041,75.13741850852966 57.592952251434326,74.46309924125671 57.592952251434326,74.46309924125671 56.38664364814758,73.86844754219055 56.38664364814758,73.86844754219055 55.04537224769592,73.39370250701904 55.04537224769592,73.39370250701904 53.56047749519348,73.0791985988617 53.56047749519348,73.0791985988617 51.923155784606934,72.96514511108398 51.923155784606934,72.96514511108398 51.85011029243469,72.96540141105652 51.85011029243469,72.96540141105652 51.77680850028992,72.96611070632935 51.77680850028992,72.96611070632935 51.70331597328186,72.96727895736694 51.70331597328186,72.96727895736694 51.62949562072754,72.96889424324036 51.62949562072754,72.96889424324036 51.555418968200684,72.97096252441406 51.555418968200684,72.97096252441406 51.481086015701294,72.97341823577881 51.481086015701294,72.97341823577881 51.40642523765564,72.97632694244385 51.40642523765564,72.97632694244385 51.331573724746704,72.97962307929993 51.331573724746704,72.97962307929993" stroke="white" stroke-width="0.1" /><polygon points="62.126898765563965,5.2952732890844345 62.126898765563965,5.2952732890844345 62.126898765563965,53.51742506027222 62.126898765563965,53.51742506027222 61.44656538963318,52.87487506866455 61.44656538963318,52.87487506866455 60.77961325645447,52.18917727470398 60.77961325645447,52.18917727470398 60.12623906135559,51.46036744117737 60.12623906135559,51.46036744117737 59.48682427406311,50.68854093551636 59.48682427406311,50.68854093551636 58.86169672012329,49.87375736236572 58.86169672012329,49.87375736236572 58.25117230415344,49.016088247299194 58.25117230415344,49.016088247299194 57.655519247055054,48.115625977516174 57.655519247055054,48.115625977516174 57.07518458366394,47.17240631580353 57.07518458366394,47.17240631580353 56.222718954086304,45.667725801467896 56.222718954086304,45.667725801467896 55.41052222251892,44.091230630874634 55.41052222251892,44.091230630874634 54.641056060791016,42.44896471500397 54.641056060791016,42.44896471500397 53.916770219802856,40.74684381484985 53.916770219802856,40.74684381484985 53.24005484580994,38.990846276283264 53.24005484580994,38.990846276283264 52.61324644088745,37.187013030052185 52.61324644088745,37.187013030052185 52.03886032104492,35.341230034828186 52.03886032104492,35.341230034828186 51.51928663253784,33.459508419036865 51.51928663253784,33.459508419036865 51.508623361587524,33.36681425571442 51.508623361587524,33.36681425571442 51.50286555290222,33.238378167152405 51.50286555290222,33.238378167152405 51.50119066238403,33.08233618736267 51.50119066238403,33.08233618736267 51.50274038314819,32.90671110153198 51.50274038314819,32.90671110153198 51.5067458152771,32.71964490413666 51.5067458152771,32.71964490413666 51.512306928634644,32.529279589653015 51.512306928634644,32.529279589653015 51.51864290237427,32.34363496303558 51.51864290237427,32.34363496303558 51.524972915649414,32.17085301876068 51.524972915649414,32.17085301876068 51.54365301132202,31.63725435733795 51.54365301132202,31.63725435733795 51.5545129776001,31.061315536499023 51.5545129776001,31.061315536499023 51.54798626899719,30.44782280921936 51.54798626899719,30.44782280921936 51.51456594467163,29.801684617996216 51.51456594467163,29.801684617996216 51.44462585449219,29.12771999835968 51.44462585449219,29.12771999835968 51.32873058319092,28.430745005607605 51.32873058319092,28.430745005607605 51.15717649459839,27.715635299682617 51.15717649459839,27.715635299682617 50.92046856880188,26.9872784614563 50.92046856880188,26.9872784614563 50.80275535583496,26.690807938575745 50.80275535583496,26.690807938575745 50.676387548446655,26.412439346313477 50.676387548446655,26.412439346313477 50.54323077201843,26.15174651145935 50.54323077201843,26.15174651145935 50.404709577560425,25.908443331718445 50.404709577560425,25.908443331718445 50.26269555091858,25.68213939666748 50.26269555091858,25.68213939666748 50.118738412857056,25.47251582145691 50.118738412857056,25.47251582145691 49.97465908527374,25.2792090177536 49.97465908527374,25.2792090177536 49.83193576335907,25.10187029838562 49.83193576335907,25.10187029838562 49.775439500808716,24.953006207942963 49.775439500808716,24.953006207942963 49.71274137496948,24.799293279647827 49.71274137496948,24.799293279647827 49.64344799518585,24.64125007390976 49.64344799518585,24.64125007390976 49.567171931266785,24.479392170906067 49.567171931266785,24.479392170906067 49.48352873325348,24.31430220603943 49.48352873325348,24.31430220603943 49.392127990722656,24.14649873971939 49.392127990722656,24.14649873971939 49.292582273483276,23.976528644561768 49.292582273483276,23.976528644561768 49.1845041513443,23.80494326353073 49.1845041513443,23.80494326353073 48.63772094249725,23.07102531194687 48.63772094249725,23.07102531194687 48.004573583602905,22.415418922901154 48.004573583602905,22.415418922901154 47.2959965467453,21.844100952148438 47.2959965467453,21.844100952148438 46.52290642261505,21.363118290901184 46.52290642261505,21.363118290901184 45.69629728794098,20.9785133600235 45.69629728794098,20.9785133600235 44.82715129852295,20.696328580379486 44.82715129852295,20.696328580379486 43.926334381103516,20.52261084318161 43.926334381103516,20.52261084318161 43.00496280193329,20.463335514068604 43.00496280193329,20.463335514068604 42.97885000705719,20.464015007019043 42.97885000705719,20.464015007019043 42.952993512153625,20.46579271554947 42.952993512153625,20.46579271554947 42.92713701725006,20.4683780670166 42.92713701725006,20.4683780670166 42.90134608745575,20.471350848674774 42.90134608745575,20.471350848674774 42.87561774253845,20.474453270435333 42.87561774253845,20.474453270435333 42.84982681274414,20.47729790210724 42.84982681274414,20.47729790210724 42.82410144805908,20.479559898376465 42.82410144805908,20.479559898376465 42.79811680316925,20.480917394161224 42.79811680316925,20.480917394161224 42.79811680316925,5.2952732890844345 42.79811680316925,5.2952732890844345 42.90619492530823,4.231564700603485 42.90619492530823,4.231564700603485 43.21594536304474,3.239218145608902 43.21594536304474,3.239218145608902 43.70565712451935,2.339952439069748 43.70565712451935,2.339952439069748 44.353604316711426,1.5554865822196007 44.353604316711426,1.5554865822196007 45.13806998729706,0.907539576292038 45.13806998729706,0.907539576292038 46.03733420372009,0.4178301431238651 46.03733420372009,0.4178301431238651 47.029680013656616,0.10807735379785299 47.029680013656616,0.10807735379785299 48.093390464782715,0.0 48.093390464782715,0.0 56.83162212371826,0.0 56.83162212371826,0.0 57.89533257484436,0.10807735379785299 57.89533257484436,0.10807735379785299 58.887678384780884,0.4178301431238651 58.887678384780884,0.4178301431238651 59.78694558143616,0.907539576292038 59.78694558143616,0.907539576292038 60.57141423225403,1.5554865822196007 60.57141423225403,1.5554865822196007 61.21935844421387,2.339952439069748 61.21935844421387,2.339952439069748 61.70907020568848,3.239218145608902 61.70907020568848,3.239218145608902 62.01882362365723,4.231564700603485 62.01882362365723,4.231564700603485" stroke="white" stroke-width="0.1" /><polygon points="80.82841634750366,94.02729868888855 80.82841634750366,94.02729868888855 80.05028963088989,94.06110644340515 80.05028963088989,94.06110644340515 79.2645275592804,94.1598117351532 79.2645275592804,94.1598117351532 78.4719169139862,94.31943893432617 78.4719169139862,94.31943893432617 77.6736855506897,94.53588724136353 77.6736855506897,94.53588724136353 76.87060236930847,94.80520486831665 76.87060236930847,94.80520486831665 76.06377005577087,95.12332677841187 76.06377005577087,95.12332677841187 75.25409460067749,95.48624753952026 75.25409460067749,95.48624753952026 74.44254755973816,95.88995575904846 74.44254755973816,95.88995575904846 73.26965928077698,96.52445912361145 73.26965928077698,96.52445912361145 72.05456495285034,97.20494747161865 72.05456495285034,97.20494747161865 70.80281972885132,97.89122939109802 70.80281972885132,97.89122939109802 69.51985359191895,98.54301810264587 69.51985359191895,98.54301810264587 68.21116209030151,99.12005662918091 68.21116209030151,99.12005662918091 66.88230037689209,99.5820701122284 66.88230037689209,99.5820701122284 65.5388355255127,99.88881945610046 65.5388355255127,99.88881945610046 64.18605446815491,99.99999403953552 64.18605446815491,99.99999403953552 63.82834315299988,99.99169111251831 63.82834315299988,99.99169111251831 63.470494747161865,99.96625781059265 63.470494747161865,99.96625781059265 63.11265230178833,99.92294907569885 63.11265230178833,99.92294907569885 62.75486946105957,99.86101984977722 62.75486946105957,99.86101984977722 62.397223711013794,99.77976679801941 62.397223711013794,99.77976679801941 62.03989386558533,99.67841506004333 62.03989386558533,99.67841506004333 61.682891845703125,99.55627918243408 61.682891845703125,99.55627918243408 61.32640242576599,99.41255450248718 61.32640242576599,99.41255450248718 60.56830883026123,99.02112483978271 60.56830883026123,99.02112483978271 59.87892746925354,98.55336546897888 59.87892746925354,98.55336546897888 59.23970937728882,98.0290412902832 59.23970937728882,98.0290412902832 58.63209366798401,97.46780395507812 58.63209366798401,97.46780395507812 58.03766846656799,96.88934683799744 58.03766846656799,96.88934683799744 57.43781328201294,96.31341099739075 57.43781328201294,96.31341099739075 56.814044713974,95.75957655906677 56.814044713974,95.75957655906677 56.147998571395874,95.2476978302002 56.147998571395874,95.2476978302002 55.65376281738281,94.92928385734558 55.65376281738281,94.92928385734558 55.14388680458069,94.65223550796509 55.14388680458069,94.65223550796509 54.6197235584259,94.41688060760498 54.6197235584259,94.41688060760498 54.082828760147095,94.22354698181152 54.082828760147095,94.22354698181152 53.534555435180664,94.07258033752441 53.534555435180664,94.07258033752441 52.976393699645996,93.96434426307678 52.976393699645996,93.96434426307678 52.409565448760986,93.89915466308594 52.409565448760986,93.89915466308594 51.835763454437256,93.87733936309814 51.835763454437256,93.87733936309814 51.68527960777283,93.87879371643066 51.68527960777283,93.87879371643066 51.534539461135864,93.88318657875061 51.534539461135864,93.88318657875061 51.383477449417114,93.89052391052246 51.383477449417114,93.89052391052246 51.23209357261658,93.90086531639099 51.23209357261658,93.90086531639099 51.08044743537903,93.9142107963562 51.08044743537903,93.9142107963562 50.928544998168945,93.93056631088257 50.928544998168945,93.93056631088257 50.776511430740356,93.94999146461487 50.776511430740356,93.94999146461487 50.62415599822998,93.9724862575531 50.62415599822998,93.9724862575531 48.75064492225647,94.42434906959534 48.75064492225647,94.42434906959534 46.96743190288544,95.12320160865784 46.96743190288544,95.12320160865784 45.24433612823486,95.98671793937683 45.24433612823486,95.98671793937683 43.551427125930786,96.93259000778198 43.551427125930786,96.93259000778198 41.8583869934082,97.87849187850952 41.8583869934082,97.87849187850952 40.13522565364838,98.74217510223389 40.13522565364838,98.74217510223389 38.35175335407257,99.44125413894653 38.35175335407257,99.44125413894653 36.477917432785034,99.89346861839294 36.477917432785034,99.89346861839294 36.327049136161804,99.91564154624939 36.327049136161804,99.91564154624939 36.176568269729614,99.93477463722229 36.176568269729614,99.93477463722229 36.026474833488464,99.95096921920776 36.026474833488464,99.95096921920776 35.876768827438354,99.96418356895447 35.876768827438354,99.96418356895447 35.72745323181152,99.97442960739136 35.72745323181152,99.97442960739136 35.578522086143494,99.98176693916321 35.578522086143494,99.98176693916321 35.42998135089874,99.98616576194763 35.42998135089874,99.98616576194763 35.28182804584503,99.98758435249329 35.28182804584503,99.98758435249329 34.63239371776581,99.9593734741211 34.63239371776581,99.9593734741211 33.993691205978394,99.87543821334839 33.993691205978394,99.87543821334839 33.36752653121948,99.73697662353516 33.36752653121948,99.73697662353516 32.75551795959473,99.54506158828735 32.75551795959473,99.54506158828735 32.15934932231903,99.3008553981781 32.15934932231903,99.3008553981781 31.58062994480133,99.00545477867126 31.58062994480133,99.00545477867126 31.021109223365784,98.6599862575531 31.021109223365784,98.6599862575531 30.482468008995056,98.26558828353882 30.482468008995056,98.26558828353882 29.84570562839508,97.72452116012573 29.84570562839508,97.72452116012573 29.24197018146515,97.16070294380188 29.24197018146515,97.16070294380188 28.65329682826996,96.5914249420166 28.65329682826996,96.5914249420166 28.061586618423462,96.03384137153625 28.061586618423462,96.03384137153625 27.448803186416626,95.50518989562988 27.448803186416626,95.50518989562988 26.797044277191162,95.02274990081787 26.797044277191162,95.02274990081787 26.08814239501953,94.60365772247314 26.08814239501953,94.60365772247314 25.30406415462494,94.26517486572266 25.30406415462494,94.26517486572266 24.99999850988388,94.16527152061462 24.99999850988388,94.16527152061462 24.696063995361328,94.0801739692688 24.696063995361328,94.0801739692688 24.392257630825043,94.00936365127563 24.392257630825043,94.00936365127563 24.088646471500397,93.95244717597961 24.088646471500397,93.95244717597961 23.78522753715515,93.90894770622253 23.78522753715515,93.90894770622253 23.48206788301468,93.87843608856201 23.48206788301468,93.87843608856201 23.179231584072113,93.86046528816223 23.179231584072113,93.86046528816223 22.876718640327454,93.8545823097229 22.876718640327454,93.8545823097229 21.44075036048889,93.97907853126526 21.44075036048889,93.97907853126526 20.01774311065674,94.32108998298645 20.01774311065674,94.32108998298645 18.612445890903473,94.83351707458496 18.612445890903473,94.83351707458496 17.2295480966568,95.46915292739868 17.2295480966568,95.46915292739868 15.873926877975464,96.18083238601685 15.873926877975464,96.18083238601685 14.550301432609558,96.9214379787445 14.550301432609558,96.9214379787445 13.26352208852768,97.64382243156433 13.26352208852768,97.64382243156433 12.01830580830574,98.30074906349182 12.01830580830574,98.30074906349182 11.28978505730629,98.64599108695984 11.28978505730629,98.64599108695984 10.564497113227844,98.95257949829102 10.564497113227844,98.95257949829102 9.84305515885353,99.21824336051941 9.84305515885353,99.21824336051941 9.126202017068863,99.44073557853699 9.126202017068863,99.44073557853699 8.41452032327652,99.61771965026855 8.41452032327652,99.61771965026855 7.708656042814255,99.7469961643219 7.708656042814255,99.7469961643219 7.009288668632507,99.82624650001526 7.009288668632507,99.82624650001526 6.317095458507538,99.85313415527344 6.317095458507538,99.85313415527344 5.48822246491909,99.81228113174438 5.48822246491909,99.81228113174438 4.672083258628845,99.6869146823883 4.672083258628845,99.6869146823883 3.869841620326042,99.47298765182495 3.869841620326042,99.47298765182495 3.082725591957569,99.16640520095825 3.082725591957569,99.16640520095825 2.3119958117604256,98.7630546092987 2.3119958117604256,98.7630546092987 1.5588478185236454,98.25883507728577 1.5588478185236454,98.25883507728577 0.8244777098298073,97.6496696472168 0.8244777098298073,97.6496696472168 0.11014582123607397,96.93142771720886 0.11014582123607397,96.93142771720886 0.038880700594745576,96.64888978004456 0.038880700594745576,96.64888978004456 0.00542972375114914,96.3275671005249 0.00542972375114914,96.3275671005249 0.0010665528861864004,95.97989916801453 0.0010665528861864004,95.97989916801453 0.017064846178982407,95.61821222305298 0.017064846178982407,95.61821222305298 0.044730582158081234,95.25486826896667 0.044730582158081234,95.25486826896667 0.07524045649915934,94.90225911140442 0.07524045649915934,94.90225911140442 0.09996509179472923,94.5727288722992 0.09996509179472923,94.5727288722992 0.11014582123607397,94.27862167358398 0.11014582123607397,94.27862167358398 0.11014582123607397,91.62580966949463 0.11014582123607397,91.62580966949463 0.8385690860450268,92.36195683479309 0.8385690860450268,92.36195683479309 1.5719696879386902,92.9784893989563 1.5719696879386902,92.9784893989563 2.310056611895561,93.48203539848328 2.310056611895561,93.48203539848328 3.0526036396622658,93.87914538383484 3.0526036396622658,93.87914538383484 3.7993844598531723,94.17648911476135 3.7993844598531723,94.17648911476135 4.5500438660383224,94.38074827194214 4.5500438660383224,94.38074827194214 5.304419994354248,94.4983959197998 5.304419994354248,94.4983959197998 6.062157079577446,94.53614354133606 6.062157079577446,94.53614354133606 7.825492322444916,94.35376524925232 7.825492322444916,94.35376524925232 9.601561725139618,93.86117458343506 9.601561725139618,93.86117458343506 11.386841535568237,93.14015507698059 11.386841535568237,93.14015507698059 13.177745044231415,92.27246642112732 13.177745044231415,92.27246642112732 14.970685541629791,91.33991003036499 14.970685541629791,91.33991003036499 16.762171685695648,90.42429327964783 16.762171685695648,90.42429327964783 18.54858249425888,89.60737586021423 18.54858249425888,89.60737586021423 20.326299965381622,88.97093534469604 20.326299965381622,88.97093534469604 20.648786425590515,88.88189196586609 20.648786425590515,88.88189196586609 20.972469449043274,88.80351781845093 20.972469449043274,88.80351781845093 21.297186613082886,88.73616456985474 21.297186613082886,88.73616456985474 21.622711420059204,88.68018388748169 21.622711420059204,88.68018388748169 21.94865643978119,88.63603472709656 21.94865643978119,88.63603472709656 22.27492481470108,88.60397338867188 22.27492481470108,88.60397338867188 22.60103076696396,88.58451843261719 22.60103076696396,88.58451843261719 22.926878929138184,88.57792615890503 22.926878929138184,88.57792615890503 23.317690193653107,88.58768939971924 23.317690193653107,88.58768939971924 23.707208037376404,88.6174201965332 23.707208037376404,88.6174201965332 24.094851315021515,88.66780996322632 24.094851315021515,88.66780996322632 24.480168521404266,88.73952627182007 24.480168521404266,88.73952627182007 24.86257553100586,88.83325457572937 24.86257553100586,88.83325457572937 25.241687893867493,88.94966840744019 25.241687893867493,88.94966840744019 25.616919994354248,89.08945322036743 25.616919994354248,89.08945322036743 25.987690687179565,89.25328254699707 25.987690687179565,89.25328254699707 26.615989208221436,89.59431648254395 26.615989208221436,89.59431648254395 27.194124460220337,89.98513221740723 27.194124460220337,89.98513221740723 27.733993530273438,90.41504859924316 27.733993530273438,90.41504859924316 28.247621655464172,90.87353348731995 28.247621655464172,90.87353348731995 28.746896982192993,91.34986400604248 28.746896982192993,91.34986400604248 29.243910312652588,91.83349609375 29.243910312652588,91.83349609375 29.750555753707886,92.31380224227905 29.750555753707886,92.31380224227905 30.278724431991577,92.7800178527832 30.278724431991577,92.7800178527832 30.863648653030396,93.22938919067383 30.863648653030396,93.22938919067383 31.46117627620697,93.61105561256409 31.46117627620697,93.61105561256409 32.07027614116669,93.92743110656738 32.07027614116669,93.92743110656738 32.6898455619812,94.1808819770813 32.6898455619812,94.1808819770813 33.3188533782959,94.37386393547058 33.3188533782959,94.37386393547058 33.95619988441467,94.50873732566833 33.95619988441467,94.50873732566833 34.600913524627686,94.58785653114319 34.600913524627686,94.58785653114319 35.251834988594055,94.61371302604675 35.251834988594055,94.61371302604675 35.80411374568939,94.595867395401 35.80411374568939,94.595867395401 36.35949790477753,94.54328417778015 36.35949790477753,94.54328417778015 36.917272210121155,94.45741176605225 36.917272210121155,94.45741176605225 37.4767929315567,94.33963894844055 37.4767929315567,94.33963894844055 38.037413358688354,94.19142007827759 38.037413358688354,94.19142007827759 38.59848380088806,94.01420950889587 38.59848380088806,94.01420950889587 39.15923237800598,93.80940198898315 39.15923237800598,93.80940198898315 39.71920311450958,93.57844591140747 39.71920311450958,93.57844591140747 41.08820557594299,92.92687773704529 41.08820557594299,92.92687773704529 42.44466722011566,92.20084547996521 42.44466722011566,92.20084547996521 43.79899501800537,91.44226908683777 43.79899501800537,91.44226908683777 45.161598920822144,90.69306254386902 45.161598920822144,90.69306254386902 46.54294550418854,89.99505043029785 46.54294550418854,89.99505043029785 47.95337915420532,89.39025402069092 47.95337915420532,89.39025402069092 49.40337538719177,88.9204204082489 49.40337538719177,88.9204204082489 50.903403759002686,88.62757086753845 50.903403759002686,88.62757086753845 51.02582573890686,88.61309289932251 51.02582573890686,88.61309289932251 51.14683508872986,88.60074281692505 51.14683508872986,88.60074281692505 51.26641392707825,88.59043717384338 51.26641392707825,88.59043717384338 51.384639739990234,88.58206272125244 51.384639739990234,88.58206272125244 51.50157809257507,88.57563138008118 51.50157809257507,88.57563138008118 51.617151498794556,88.57113718986511 51.617151498794556,88.57113718986511 51.73143148422241,88.56849074363708 51.73143148422241,88.56849074363708 51.844555139541626,88.5675847530365 51.844555139541626,88.5675847530365 53.10502648353577,88.69075775146484 53.10502648353577,88.69075775146484 54.222190380096436,89.03217911720276 54.222190380096436,89.03217911720276 55.231666564941406,89.54984545707703 55.231666564941406,89.54984545707703 56.16919994354248,90.20166993141174 56.16919994354248,90.20166993141174 57.07053542137146,90.94560742378235 57.07053542137146,90.94560742378235 57.971155643463135,91.7396068572998 57.971155643463135,91.7396068572998 58.90700817108154,92.54162311553955 58.90700817108154,92.54162311553955 59.91364121437073,93.30954551696777 59.91364121437073,93.30954551696777 60.45428514480591,93.65963339805603 60.45428514480591,93.65963339805603 60.993701219558716,93.95522475242615 60.993701219558716,93.95522475242615 61.5319550037384,94.19869184494019 61.5319550037384,94.19869184494019 62.069302797317505,94.3925142288208 62.069302797317505,94.3925142288208 62.605684995651245,94.53908205032349 62.605684995651245,94.53908205032349 63.14115524291992,94.64073181152344 63.14115524291992,94.64073181152344 63.675856590270996,94.6999728679657 63.675856590270996,94.6999728679657 64.20984268188477,94.71920132637024 64.20984268188477,94.71920132637024 66.29459857940674,94.45459842681885 66.29459857940674,94.45459842681885 68.37198734283447,93.75704526901245 68.37198734283447,93.75704526901245 70.44536471366882,92.7708387374878 70.44536471366882,92.7708387374878 72.51816391944885,91.64029359817505 72.51816391944885,91.64029359817505 74.5939314365387,90.50977826118469 74.5939314365387,90.50977826118469 76.67603492736816,89.52353596687317 76.67603492736816,89.52353596687317 78.76803278923035,88.82594704627991 78.76803278923035,88.82594704627991 80.87340593338013,88.56137990951538 80.87340593338013,88.56137990951538 81.70441389083862,88.62598538398743 81.70441389083862,88.62598538398743 82.66424536705017,88.81651163101196 82.66424536705017,88.81651163101196 83.67915153503418,89.12794589996338 83.67915153503418,89.12794589996338 84.67512130737305,89.55527544021606 84.67512130737305,89.55527544021606 85.57839393615723,90.09352922439575 85.57839393615723,90.09352922439575 86.31502389907837,90.7377302646637 86.31502389907837,90.7377302646637 86.81119680404663,91.48285984992981 86.81119680404663,91.48285984992981 86.99296712875366,92.32391715049744 86.99296712875366,92.32391715049744 86.99296712875366,96.93142771720886 86.99296712875366,96.93142771720886 86.27682328224182,96.21127843856812 86.27682328224182,96.21127843856812 85.5428397655487,95.60282826423645 85.5428397655487,95.60282826423645 84.79211926460266,95.10128498077393 84.79211926460266,95.10128498077393 84.0258777141571,94.70174908638 84.0258777141571,94.70174908638 83.24516415596008,94.39942836761475 83.24516415596008,94.39942836761475 82.45139122009277,94.18948292732239 82.45139122009277,94.18948292732239 81.64533376693726,94.06705498695374 81.64533376693726,94.06705498695374" stroke="white" stroke-width="0.1" /><polygon points="21.81662917137146,27.75881588459015 21.81662917137146,27.75881588459015 22.06045091152191,27.435940504074097 22.06045091152191,27.435940504074097 22.259604930877686,27.102240920066833 22.259604930877686,27.102240920066833 22.439496219158173,26.773643493652344 22.439496219158173,26.773643493652344 22.625400125980377,26.466023921966553 22.625400125980377,26.466023921966553 22.84271866083145,26.19524896144867 22.84271866083145,26.19524896144867 23.116855323314667,25.97718834877014 23.116855323314667,25.97718834877014 23.473083972930908,25.827708840370178 23.473083972930908,25.827708840370178 23.936808109283447,25.76274573802948 23.936808109283447,25.76274573802948 23.944757878780365,25.762391090393066 23.944757878780365,25.762391090393066 23.952709138393402,25.76216459274292 23.952709138393402,25.76216459274292 23.96065890789032,25.7619708776474 23.96065890789032,25.7619708776474 23.968610167503357,25.761839747428894 23.968610167503357,25.761839747428894 23.976561427116394,25.76177716255188 23.976561427116394,25.76177716255188 23.98451119661331,25.761711597442627 23.98451119661331,25.761711597442627 23.99246245622635,25.761711597442627 23.99246245622635,25.761711597442627 24.000412225723267,25.761711597442627 24.000412225723267,25.761711597442627 24.327877163887024,25.788021087646484 24.327877163887024,25.788021087646484 24.639827013015747,25.864553451538086 24.639827013015747,25.864553451538086 24.93128776550293,25.98794996738434 24.93128776550293,25.98794996738434 25.197666883468628,26.154720783233643 25.197666883468628,26.154720783233643 25.434118509292603,26.361438632011414 25.434118509292603,26.361438632011414 25.63585937023163,26.604676246643066 25.63585937023163,26.604676246643066 25.798168778419495,26.88094675540924 25.798168778419495,26.88094675540924 25.91632902622223,27.186885476112366 25.91632902622223,27.186885476112366 25.999584794044495,27.4032324552536 25.999584794044495,27.4032324552536 26.118910312652588,27.624139189720154 26.118910312652588,27.624139189720154 26.26551389694214,27.84627377986908 26.26551389694214,27.84627377986908 26.43086016178131,28.06624174118042 26.43086016178131,28.06624174118042 26.60629153251648,28.28068435192108 26.60629153251648,28.28068435192108 26.78314745426178,28.486236929893494 26.78314745426178,28.486236929893494 26.952823996543884,28.679510951042175 26.952823996543884,28.679510951042175 27.10673213005066,28.857171535491943 27.10673213005066,28.857171535491943 27.256566286087036,29.002094268798828 27.256566286087036,29.002094268798828 27.431094646453857,29.118314385414124 27.431094646453857,29.118314385414124 27.626562118530273,29.2088121175766 27.626562118530273,29.2088121175766 27.839484810829163,29.276424646377563 27.839484810829163,29.276424646377563 28.066113591194153,29.32399809360504 28.066113591194153,29.32399809360504 28.302952647209167,29.35444414615631 28.302952647209167,29.35444414615631 28.546255826950073,29.370570182800293 28.546255826950073,29.370570182800293 28.79253327846527,29.37532365322113 28.79253327846527,29.37532365322113 28.975912928581238,29.373157024383545 28.975912928581238,29.373157024383545 29.157420992851257,29.36740517616272 29.157420992851257,29.36740517616272 29.33550477027893,29.35929298400879 29.33550477027893,29.35929298400879 29.508739709854126,29.349982738494873 29.508739709854126,29.349982738494873 29.675573110580444,29.340675473213196 29.675573110580444,29.340675473213196 29.834458231925964,29.332563281059265 29.834458231925964,29.332563281059265 29.983967542648315,29.326841235160828 29.983967542648315,29.326841235160828 30.122554302215576,29.324644804000854 30.122554302215576,29.324644804000854 35.056883096694946,29.324644804000854 35.056883096694946,29.324644804000854 35.354676842689514,29.32845950126648 35.354676842689514,29.32845950126648 35.66003441810608,29.338541626930237 35.66003441810608,29.338541626930237 35.97140312194824,29.352763295173645 35.97140312194824,29.352763295173645 36.287230253219604,29.369115829467773 36.287230253219604,29.369115829467773 36.606162786483765,29.38547134399414 36.606162786483765,29.38547134399414 36.926645040512085,29.39969003200531 36.926645040512085,29.39969003200531 37.24725842475891,29.409775137901306 37.24725842475891,29.409775137901306 37.566447257995605,29.41358983516693 37.566447257995605,29.41358983516693 37.75862157344818,29.41197156906128 37.75862157344818,29.41197156906128 37.94950246810913,29.406800866127014 37.94950246810913,29.406800866127014 38.13863694667816,29.397621750831604 38.13863694667816,29.397621750831604 38.325703144073486,29.383984208106995 38.325703144073486,29.383984208106995 38.51044476032257,29.36546504497528 38.51044476032257,29.36546504497528 38.69240581989288,29.34158146381378 38.69240581989288,29.34158146381378 38.871392607688904,29.31194305419922 38.871392607688904,29.31194305419922 39.04695212841034,29.276037216186523 39.04695212841034,29.276037216186523 39.540669322013855,29.080629348754883 39.540669322013855,29.080629348754883 39.95959758758545,28.759437799453735 39.95959758758545,28.759437799453735 40.32171070575714,28.347164392471313 40.32171070575714,28.347164392471313 40.64522981643677,27.878397703170776 40.64522981643677,27.878397703170776 40.948131680488586,27.387753129005432 40.948131680488586,27.387753129005432 41.24844670295715,26.909905672073364 41.24844670295715,26.909905672073364 41.56440496444702,26.479405164718628 41.56440496444702,26.479405164718628 41.913846135139465,26.130932569503784 41.913846135139465,26.130932569503784 42.03743934631348,26.04127824306488 42.03743934631348,26.04127824306488 42.16594099998474,25.96455216407776 42.16594099998474,25.96455216407776 42.2989696264267,25.900429487228394 42.2989696264267,25.900429487228394 42.435553669929504,25.848588347434998 42.435553669929504,25.848588347434998 42.57517457008362,25.808769464492798 42.57517457008362,25.808769464492798 42.71705746650696,25.78071653842926 42.71705746650696,25.78071653842926 42.86055862903595,25.76410472393036 42.86055862903595,25.76410472393036 43.00496280193329,25.758609175682068 43.00496280193329,25.758609175682068 43.25990080833435,25.775253772735596 43.25990080833435,25.775253772735596 43.51186752319336,25.824087858200073 43.51186752319336,25.824087858200073 43.757107853889465,25.903400778770447 43.757107853889465,25.903400778770447 43.991878628730774,26.01160705089569 43.991878628730774,26.01160705089569 44.21236515045166,26.14702880382538 44.21236515045166,26.14702880382538 44.414880871772766,26.30791664123535 44.414880871772766,26.30791664123535 44.595614075660706,26.49272084236145 44.595614075660706,26.49272084236145 44.750747084617615,26.69976055622101 44.750747084617615,26.69976055622101 44.83083784580231,26.85050070285797 44.83083784580231,26.85050070285797 44.8906272649765,27.015265822410583 44.8906272649765,27.015265822410583 44.93781626224518,27.188435196876526 44.93781626224518,27.188435196876526 44.979700446128845,27.364513278007507 44.979700446128845,27.364513278007507 45.02384960651398,27.53797471523285 45.02384960651398,27.53797471523285 45.07782459259033,27.703291177749634 45.07782459259033,27.703291177749634 45.1490581035614,27.854934334754944 45.1490581035614,27.854934334754944 45.24511098861694,27.98738181591034 45.24511098861694,27.98738181591034 45.348986983299255,28.09397280216217 45.348986983299255,28.09397280216217 45.45170068740845,28.1893789768219 45.45170068740845,28.1893789768219 45.55169641971588,28.279003500938416 45.55169641971588,28.279003500938416 45.647427439689636,28.36836576461792 45.647427439689636,28.36836576461792 45.73734104633331,28.462901711463928 45.73734104633331,28.462901711463928 45.81988751888275,28.568103909492493 45.81988751888275,28.568103909492493 45.893511176109314,28.68943214416504 45.893511176109314,28.68943214416504 45.95666527748108,28.832349181175232 45.95666527748108,28.832349181175232 46.14838361740112,29.529553651809692 46.14838361740112,29.529553651809692 46.23907506465912,30.25674819946289 46.23907506465912,30.25674819946289 46.259695291519165,31.00559711456299 46.259695291519165,31.00559711456299 46.24120891094208,31.767889857292175 46.24120891094208,31.767889857292175 46.214380860328674,32.53538906574249 46.214380860328674,32.53538906574249 46.21018171310425,33.29978287220001 46.21018171310425,33.29978287220001 46.25943601131439,34.05289947986603 46.25943601131439,34.05289947986603 46.39311134815216,34.78643000125885 46.39311134815216,34.78643000125885 46.930524706840515,36.73957884311676 46.930524706840515,36.73957884311676 47.53251075744629,38.689592480659485 47.53251075744629,38.689592480659485 48.19939732551575,40.628522634506226 48.19939732551575,40.628522634506226 48.93163442611694,42.548349499702454 48.93163442611694,42.548349499702454 49.729546904563904,44.44102644920349 49.729546904563904,44.44102644920349 50.593650341033936,46.2985098361969 50.593650341033936,46.2985098361969 51.52432918548584,48.112812638282776 51.52432918548584,48.112812638282776 52.521973848342896,49.87589120864868 52.521973848342896,49.87589120864868 53.496354818344116,51.43454670906067 53.496354818344116,51.43454670906067 54.547518491744995,52.94775366783142 54.547518491744995,52.94775366783142 55.677807331085205,54.40347194671631 55.677807331085205,54.40347194671631 56.88941478729248,55.78963756561279 56.88941478729248,55.78963756561279 58.18452835083008,57.09415674209595 58.18452835083008,57.09415674209595 59.56549048423767,58.30495357513428 59.56549048423767,58.30495357513428 61.034297943115234,59.40997004508972 61.034297943115234,59.40997004508972 62.593334913253784,60.39714217185974 62.593334913253784,60.39714217185974 63.53190541267395,60.90446710586548 63.53190541267395,60.90446710586548 64.49373960494995,61.36137247085571 64.49373960494995,61.36137247085571 65.47664999961853,61.76769733428955 65.47664999961853,61.76769733428955 66.4785623550415,62.12340593338013 66.4785623550415,62.12340593338013 67.49715209007263,62.428343296051025 67.49715209007263,62.428343296051025 68.53035092353821,62.68240809440613 68.53035092353821,62.68240809440613 69.57576870918274,62.88551092147827 69.57576870918274,62.88551092147827 70.6313967704773,63.03753852844238 70.6313967704773,63.03753852844238 71.33312225341797,63.0918025970459 71.33312225341797,63.0918025970459 72.15385437011719,63.135987520217896 72.15385437011719,63.135987520217896 73.01840782165527,63.21439743041992 73.01840782165527,63.21439743041992 73.85148406028748,63.371336460113525 73.85148406028748,63.371336460113525 74.57764148712158,63.651132583618164 74.57764148712158,63.651132583618164 75.1216471195221,64.09808397293091 75.1216471195221,64.09808397293091 75.40826201438904,64.75650072097778 75.40826201438904,64.75650072097778 75.36197900772095,65.67069888114929 75.36197900772095,65.67069888114929 75.18816590309143,66.16871356964111 75.18816590309143,66.16871356964111 74.92178082466125,66.56860709190369 74.92178082466125,66.56860709190369 74.57661032676697,66.88013672828674 74.57661032676697,66.88013672828674 74.16621446609497,67.11306571960449 74.16621446609497,67.11306571960449 73.70449304580688,67.27721691131592 73.70449304580688,67.27721691131592 73.20521473884583,67.38235354423523 73.20521473884583,67.38235354423523 72.68195748329163,67.43829846382141 72.68195748329163,67.43829846382141 72.14861512184143,67.45474934577942 72.14861512184143,67.45474934577942 71.88501954078674,67.45132207870483 71.88501954078674,67.45132207870483 71.62400484085083,67.44175553321838 71.62400484085083,67.44175553321838 71.36725187301636,67.42737293243408 71.36725187301636,67.42737293243408 71.11632227897644,67.40924119949341 71.11632227897644,67.40924119949341 70.87289094924927,67.38859415054321 70.87289094924927,67.38859415054321 70.6386387348175,67.36661195755005 70.6386387348175,67.36661195755005 70.41524052619934,67.34447479248047 70.41524052619934,67.34447479248047 70.20425796508789,67.32340455055237 70.20425796508789,67.32340455055237 69.3210244178772,67.24379658699036 69.3210244178772,67.24379658699036 68.43688488006592,67.17666983604431 68.43688488006592,67.17666983604431 67.55209565162659,67.11788177490234 67.55209565162659,67.11788177490234 66.66705012321472,67.06329584121704 66.66705012321472,67.06329584121704 65.78194499015808,67.00867414474487 65.78194499015808,67.00867414474487 64.89702463150024,66.9499158859253 64.89702463150024,66.9499158859253 64.01269435882568,66.88278913497925 64.01269435882568,66.88278913497925 63.12906742095947,66.80318117141724 63.12906742095947,66.80318117141724 60.94825863838196,66.56049489974976 60.94825863838196,66.56049489974976 58.77281427383423,66.25924110412598 58.77281427383423,66.25924110412598 56.606483459472656,65.89512825012207 56.606483459472656,65.89512825012207 54.45275902748108,65.46372175216675 54.45275902748108,65.46372175216675 52.31525897979736,64.96073007583618 52.31525897979736,64.96073007583618 50.19766688346863,64.38178420066833 50.19766688346863,64.38178420066833 48.10347259044647,63.72249126434326 48.10347259044647,63.72249126434326 46.03630006313324,62.97858953475952 46.03630006313324,62.97858953475952 46.03630006313324,73.50190877914429 46.03630006313324,73.50190877914429 45.83824574947357,74.14575219154358 45.83824574947357,74.14575219154358 45.30445039272308,74.72679615020752 45.30445039272308,74.72679615020752 44.52483355998993,75.24954080581665 44.52483355998993,75.24954080581665 43.58969330787659,75.71865916252136 43.58969330787659,75.71865916252136 42.58913695812225,76.13862156867981 42.58913695812225,76.13862156867981 41.61340296268463,76.51411294937134 41.61340296268463,76.51411294937134 40.752533078193665,76.84959173202515 40.752533078193665,76.84959173202515 40.0967001914978,77.14965343475342 40.0967001914978,77.14965343475342 40.0967001914978,61.395180225372314 40.0967001914978,61.395180225372314 40.0860995054245,61.054688692092896 40.0860995054245,61.054688692092896 40.050289034843445,60.74842810630798 40.050289034843445,60.74842810630798 39.98357951641083,60.471898317337036 39.98357951641083,60.471898317337036 39.880287647247314,60.220545530319214 39.880287647247314,60.220545530319214 39.73459005355835,59.98985171318054 39.73459005355835,59.98985171318054 39.54080045223236,59.77528095245361 39.54080045223236,59.77528095245361 39.29322957992554,59.57227945327759 39.29322957992554,59.57227945327759 38.98593187332153,59.3763530254364 38.98593187332153,59.3763530254364 38.42725455760956,59.054964780807495 38.42725455760956,59.054964780807495 37.87781596183777,58.73497128486633 37.87781596183777,58.73497128486633 37.336719036102295,58.41219425201416 37.336719036102295,58.41219425201416 36.802926659584045,58.08253288269043 36.802926659584045,58.08253288269043 36.2756609916687,57.741814851760864 36.2756609916687,57.741814851760864 35.75395345687866,57.38587975502014 35.75395345687866,57.38587975502014 35.23703217506409,57.01061487197876 35.23703217506409,57.01061487197876 34.723860025405884,56.61184787750244 34.723860025405884,56.61184787750244 33.59861373901367,55.66614270210266 33.59861373901367,55.66614270210266 32.51396119594574,54.67453598976135 32.51396119594574,54.67453598976135 31.472358107566833,53.638362884521484 31.472358107566833,53.638362884521484 30.47574758529663,52.559077739715576 30.47574758529663,52.559077739715576 29.526448249816895,51.43803358078003 29.526448249816895,51.43803358078003 28.62679660320282,50.276654958724976 28.62679660320282,50.276654958724976 27.77872383594513,49.07633066177368 27.77872383594513,49.07633066177368 26.984691619873047,47.83845245838165 26.984691619873047,47.83845245838165 26.984691619873047,73.60533475875854 26.984691619873047,73.60533475875854 26.497569680213928,73.4492301940918 26.497569680213928,73.4492301940918 26.004886627197266,73.3150064945221 26.004886627197266,73.3150064945221 25.507354736328125,73.20230603218079 25.507354736328125,73.20230603218079 25.005751848220825,73.11084270477295 25.005751848220825,73.11084270477295 24.500852823257446,73.04028868675232 24.500852823257446,73.04028868675232 23.993560671806335,72.99028635025024 23.993560671806335,72.99028635025024 23.48445951938629,72.96048998832703 23.48445951938629,72.96048998832703 22.97445386648178,72.95066714286804 22.97445386648178,72.95066714286804 22.732248902320862,72.95286059379578 22.732248902320862,72.95286059379578 22.49017357826233,72.95939326286316 22.49017357826233,72.95939326286316 22.24816381931305,72.97021746635437 22.24816381931305,72.97021746635437 22.006411850452423,72.9853093624115 22.006411850452423,72.9853093624115 21.76491767168045,73.00470471382141 21.76491767168045,73.00470471382141 21.523812413215637,73.02833199501038 21.523812413215637,73.02833199501038 21.283191442489624,73.0561912059784 21.283191442489624,73.0561912059784 21.043023467063904,73.08821678161621 21.043023467063904,73.08821678161621 21.043023467063904,47.99565374851227 21.043023467063904,47.99565374851227 21.043023467063904,35.55383086204529 21.043023467063904,35.55383086204529 21.042829751968384,34.9170982837677 21.042829751968384,34.9170982837677 21.04160189628601,34.281206130981445 21.04160189628601,34.281206130981445 21.03824019432068,33.645960688591 21.03824019432068,33.645960688591 21.0316464304924,33.01104009151459 21.0316464304924,33.01104009151459 21.020787954330444,32.376277446746826 21.020787954330444,32.376277446746826 21.004627645015717,31.74145221710205 21.004627645015717,31.74145221710205 20.982035994529724,31.10630512237549 20.982035994529724,31.10630512237549 20.95201164484024,30.470573902130127 20.95201164484024,30.470573902130127 20.936594903469086,30.020391941070557 20.936594903469086,30.020391941070557 20.945870876312256,29.629454016685486 20.945870876312256,29.629454016685486 20.98517119884491,29.284051060676575 20.98517119884491,29.284051060676575 21.059700846672058,28.970420360565186 21.059700846672058,28.970420360565186 21.174822747707367,28.67482304573059 21.174822747707367,28.67482304573059 21.335840225219727,28.38352620601654 21.335840225219727,28.38352620601654 21.547988057136536,28.08275818824768 21.547988057136536,28.08275818824768" stroke="white" stroke-width="0.1" /><polygon points="46.10559344291687,58.53759050369263 46.10559344291687,58.53759050369263 46.28949463367462,58.76612663269043 46.28949463367462,58.76612663269043 46.599698066711426,58.97015929222107 46.599698066711426,58.97015929222107 46.99878394603729,59.15095806121826 46.99878394603729,59.15095806121826 47.44919240474701,59.30977463722229 47.44919240474701,59.30977463722229 47.913432121276855,59.447914361953735 47.913432121276855,59.447914361953735 48.353952169418335,59.56658720970154 48.353952169418335,59.56658720970154 48.73325824737549,59.66710448265076 48.73325824737549,59.66710448265076 49.013856053352356,59.75074768066406 49.013856053352356,59.75074768066406 50.068384408950806,60.100579261779785 50.068384408950806,60.100579261779785 51.13022327423096,60.42749285697937 51.13022327423096,60.42749285697937 52.19864845275879,60.73229908943176 52.19864845275879,60.73229908943176 53.273218870162964,61.01561784744263 53.273218870162964,61.01561784744263 54.35308814048767,61.2781822681427 54.35308814048767,61.2781822681427 55.437737703323364,61.52074337005615 55.437737703323364,61.52074337005615 56.526464223861694,61.74393892288208 56.526464223861694,61.74393892288208 57.618677616119385,61.94849610328674 57.618677616119385,61.94849610328674 55.71129322052002,60.346078872680664 55.71129322052002,60.346078872680664 53.94676327705383,58.598679304122925 53.94676327705383,58.598679304122925 52.31913924217224,56.72338604927063 52.31913924217224,56.72338604927063 50.822991132736206,54.737305641174316 50.822991132736206,54.737305641174316 49.45237338542938,52.65755653381348 49.45237338542938,52.65755653381348 48.201531171798706,50.50128102302551 48.201531171798706,50.50128102302551 47.06471562385559,48.28556180000305 47.06471562385559,48.28556180000305 46.03630006313324,46.02750837802887 46.03630006313324,46.02750837802887 46.03630006313324,57.12379813194275 46.03630006313324,57.12379813194275 46.0324227809906,57.28487968444824 46.0324227809906,57.28487968444824 46.02356553077698,57.46237635612488 46.02356553077698,57.46237635612488 46.01406455039978,57.650285959243774 46.01406455039978,57.650285959243774 46.008116006851196,57.84271955490112 46.008116006851196,57.84271955490112 46.010056138038635,58.03362727165222 46.010056138038635,58.03362727165222 46.02408409118652,58.217042684555054 46.02408409118652,58.217042684555054 46.054527163505554,58.38704705238342 46.054527163505554,58.38704705238342" stroke="white" stroke-width="0.1" /><polygon points="29.63646650314331,44.3437784910202 29.63646650314331,44.3437784910202 30.649757385253906,46.00549936294556 30.649757385253906,46.00549936294556 31.746041774749756,47.59472906589508 31.746041774749756,47.59472906589508 32.92584419250488,49.109265208244324 32.92584419250488,49.109265208244324 34.18980538845062,50.5468487739563 34.18980538845062,50.5468487739563 35.538315773010254,51.90521478652954 35.538315773010254,51.90521478652954 36.971959471702576,53.1821072101593 36.971959471702576,53.1821072101593 38.49124610424042,54.37525510787964 38.49124610424042,54.37525510787964 40.0967001914978,55.48246502876282 40.0967001914978,55.48246502876282 40.09980261325836,53.988128900527954 40.09980261325836,53.988128900527954 40.10742902755737,52.49379277229309 40.10742902755737,52.49379277229309 40.117448568344116,50.99942088127136 40.117448568344116,50.99942088127136 40.12746810913086,49.50498938560486 40.12746810913086,49.50498938560486 40.135353803634644,48.01052212715149 40.135353803634644,48.01052212715149 40.13858735561371,46.51598930358887 40.13858735561371,46.51598930358887 40.13509452342987,45.02142667770386 40.13509452342987,45.02142667770386 40.12255668640137,43.52673292160034 40.12255668640137,43.52673292160034 40.11615514755249,42.91895925998688 40.11615514755249,42.91895925998688 40.10542631149292,42.316681146621704 40.10542631149292,42.316681146621704 40.08002281188965,41.72022044658661 40.08002281188965,41.72022044658661 40.029603242874146,41.12989902496338 40.029603242874146,41.12989902496338 39.94376361370087,40.54597616195679 39.94376361370087,40.54597616195679 39.8120254278183,39.968714118003845 39.8120254278183,39.968714118003845 39.62411880493164,39.3984317779541 39.62411880493164,39.3984317779541 39.36963379383087,38.83545100688934 39.36963379383087,38.83545100688934 38.89821767807007,38.066565990448 38.89821767807007,38.066565990448 38.32913041114807,37.373435497283936 38.32913041114807,37.373435497283936 37.674397230148315,36.76433563232422 37.674397230148315,36.76433563232422 36.946165561676025,36.247414350509644 36.946165561676025,36.247414350509644 36.15652918815613,35.83100438117981 36.15652918815613,35.83100438117981 35.3177011013031,35.52338480949402 35.3177011013031,35.52338480949402 34.44170653820038,35.332730412483215 34.44170653820038,35.332730412483215 33.540695905685425,35.26734709739685 33.540695905685425,35.26734709739685 32.713308930397034,35.32710671424866 32.713308930397034,35.32710671424866 31.850823760032654,35.503089427948 31.850823760032654,35.503089427948 30.98652958869934,35.79047620296478 30.98652958869934,35.79047620296478 30.15345335006714,36.1844539642334 30.15345335006714,36.1844539642334 29.384759068489075,36.68011128902435 29.384759068489075,36.68011128902435 28.713414072990417,37.27266192436218 28.713414072990417,37.27266192436218 28.17263901233673,37.957194447517395 28.17263901233673,37.957194447517395 27.79553234577179,38.728925585746765 27.79553234577179,38.728925585746765 27.654099464416504,39.43718075752258 27.654099464416504,39.43718075752258 27.689650654792786,40.171292424201965 27.689650654792786,40.171292424201965 27.866634726524353,40.91736376285553 27.866634726524353,40.91736376285553 28.14975678920746,41.66162312030792 28.14975678920746,41.66162312030792 28.5036563873291,42.390209436416626 28.5036563873291,42.390209436416626 28.892982006072998,43.08931827545166 28.892982006072998,43.08931827545166 29.28237020969391,43.74515116214752 29.28237020969391,43.74515116214752" stroke="white" stroke-width="0.1" /><polygon points="0.11014582123607397,81.31140470504761 0.11014582123607397,81.31140470504761 0.8390539325773716,82.04823136329651 0.8390539325773716,82.04823136329651 1.5727130696177483,82.66528248786926 1.5727130696177483,82.66528248786926 2.3108968511223793,83.16918015480042 2.3108968511223793,83.16918015480042 3.0533146113157272,83.56655240058899 3.0533146113157272,83.56655240058899 3.799707815051079,83.86405110359192 3.799707815051079,83.86405110359192 4.549849778413773,84.06834602355957 4.549849778413773,84.06834602355957 5.303385481238365,84.18605327606201 5.303385481238365,84.18605327606201 6.06008879840374,84.22380685806274 6.06008879840374,84.22380685806274 7.828433066606522,84.03990864753723 7.828433066606522,84.03990864753723 9.609382599592209,83.5434079170227 9.609382599592209,83.5434079170227 11.39957532286644,82.81728029251099 11.39957532286644,82.81728029251099 13.195779919624329,81.94448351860046 13.195779919624329,81.94448351860046 14.994698762893677,81.00792169570923 14.994698762893677,81.00792169570923 16.793036460876465,80.09058833122253 16.793036460876465,80.09058833122253 18.58752816915512,79.27532196044922 18.58752816915512,79.27532196044922 20.374909043312073,78.6451518535614 20.374909043312073,78.6451518535614 20.685307681560516,78.56157422065735 20.685307681560516,78.56157422065735 20.99027782678604,78.48988771438599 20.99027782678604,78.48988771438599 21.289946138858795,78.42990159988403 21.289946138858795,78.42990159988403 21.584509313106537,78.3812940120697 21.584509313106537,78.3812940120697 21.874159574508667,78.34393382072449 21.874159574508667,78.34393382072449 22.159090638160706,78.31749320030212 22.159090638160706,78.31749320030212 22.439368069171906,78.30178737640381 22.439368069171906,78.30178737640381 22.715377807617188,78.2966136932373 22.715377807617188,78.2966136932373 23.706497251987457,78.36629748344421 23.706497251987457,78.36629748344421 24.64616149663925,78.56771349906921 24.64616149663925,78.56771349906921 25.542324781417847,78.88955473899841 25.542324781417847,78.88955473899841 26.403388381004333,79.32050824165344 26.403388381004333,79.32050824165344 27.23730504512787,79.84919548034668 27.23730504512787,79.84919548034668 28.052344918251038,80.4642379283905 28.052344918251038,80.4642379283905 28.85652482509613,81.15432858467102 28.85652482509613,81.15432858467102 29.658186435699463,81.90815448760986 29.658186435699463,81.90815448760986 30.310851335525513,82.48623013496399 30.310851335525513,82.48623013496399 30.980387330055237,82.97755718231201 30.980387330055237,82.97755718231201 31.665632128715515,83.38504433631897 31.665632128715515,83.38504433631897 32.36522674560547,83.71173143386841 32.36522674560547,83.71173143386841 33.07800590991974,83.960622549057 33.07800590991974,83.960622549057 33.80267918109894,84.13466811180115 33.80267918109894,84.13466811180115 34.538084268569946,84.23692584037781 34.538084268569946,84.23692584037781 35.282862186431885,84.27034616470337 35.282862186431885,84.27034616470337 35.87341010570526,84.2502772808075 35.87341010570526,84.2502772808075 36.468350887298584,84.19106602668762 36.468350887298584,84.19106602668762 37.06710636615753,84.09417271614075 37.06710636615753,84.09417271614075 37.66902983188629,83.96111130714417 37.66902983188629,83.96111130714417 38.273605704307556,83.7933361530304 38.273605704307556,83.7933361530304 38.88005316257477,83.5923433303833 38.88005316257477,83.5923433303833 39.487987756729126,83.35950970649719 39.487987756729126,83.35950970649719 40.0967001914978,83.09649229049683 40.0967001914978,83.09649229049683 41.4598822593689,82.42326974868774 41.4598822593689,82.42326974868774 42.81879961490631,81.68075680732727 42.81879961490631,81.68075680732727 44.18250322341919,80.91374039649963 44.18250322341919,80.91374039649963 45.559775829315186,80.167156457901 45.559775829315186,80.167156457901 46.959611773490906,79.48572635650635 46.959611773490906,79.48572635650635 48.39111864566803,78.91437411308289 48.39111864566803,78.91437411308289 49.8629629611969,78.49790453910828 49.8629629611969,78.49790453910828 51.38431787490845,78.28110456466675 51.38431787490845,78.28110456466675 51.45329236984253,78.27634811401367 51.45329236984253,78.27634811401367 51.52174234390259,78.27218174934387 51.52174234390259,78.27218174934387 51.58967971801758,78.26862931251526 51.58967971801758,78.26862931251526 51.657164096832275,78.26572060585022 51.657164096832275,78.26572060585022 51.72419548034668,78.2633900642395 51.72419548034668,78.2633900642395 51.79077386856079,78.26177477836609 51.79077386856079,78.26177477836609 51.85689926147461,78.260737657547 51.85689926147461,78.260737657547 51.92263722419739,78.26041579246521 51.92263722419739,78.26041579246521 53.18608283996582,78.38513851165771 53.18608283996582,78.38513851165771 54.301440715789795,78.72973084449768 54.301440715789795,78.72973084449768 55.305033922195435,79.25105094909668 55.305033922195435,79.25105094909668 56.233060359954834,79.90587949752808 56.233060359954834,79.90587949752808 57.12172985076904,80.65111041069031 57.12172985076904,80.65111041069031 58.007222414016724,81.44349455833435 58.007222414016724,81.44349455833435 58.925819396972656,82.23991990089417 58.925819396972656,82.23991990089417 59.91364121437073,82.99720287322998 59.91364121437073,82.99720287322998 60.45370101928711,83.3466112613678 60.45370101928711,83.3466112613678 60.9926700592041,83.64166021347046 60.9926700592041,83.64166021347046 61.53066158294678,83.8848352432251 61.53066158294678,83.8848352432251 62.06762194633484,84.07836556434631 62.06762194633484,84.07836556434631 62.60374188423157,84.2247724533081 62.60374188423157,84.2247724533081 63.13896179199219,84.32638645172119 63.13896179199219,84.32638645172119 63.6734664440155,84.38559770584106 63.6734664440155,84.38559770584106 64.20725584030151,84.40479636192322 64.20725584030151,84.40479636192322 66.29304885864258,84.14022922515869 66.29304885864258,84.14022922515869 68.37172508239746,83.44263434410095 68.37172508239746,83.44263434410095 70.44639587402344,82.4564278125763 70.44639587402344,82.4564278125763 72.52035737037659,81.32588267326355 72.52035737037659,81.32588267326355 74.59677457809448,80.1953375339508 74.59677457809448,80.1953375339508 76.6789436340332,79.20913100242615 76.6789436340332,79.20913100242615 78.7701666355133,78.51157188415527 78.7701666355133,78.51157188415527 80.87340593338013,78.24697494506836 80.87340593338013,78.24697494506836 81.70441389083862,78.3115804195404 81.70441389083862,78.3115804195404 82.66424536705017,78.50210666656494 82.66424536705017,78.50210666656494 83.67915153503418,78.8134753704071 83.67915153503418,78.8134753704071 84.67512130737305,79.24073934555054 84.67512130737305,79.24073934555054 85.57839393615723,79.7788679599762 85.57839393615723,79.7788679599762 86.31502389907837,80.42287230491638 86.31502389907837,80.42287230491638 86.81119680404663,81.16774559020996 86.81119680404663,81.16774559020996 86.99296712875366,82.00847506523132 86.99296712875366,82.00847506523132 86.99296712875366,86.61598563194275 86.99296712875366,86.61598563194275 86.27662658691406,85.89622378349304 86.27662658691406,85.89622378349304 85.54258346557617,85.28816103935242 85.54258346557617,85.28816103935242 84.79172587394714,84.78694558143616 84.79172587394714,84.78694558143616 84.02549028396606,84.38773155212402 84.02549028396606,84.38773155212402 83.24490189552307,84.08563733100891 83.24490189552307,84.08563733100891 82.45099782943726,83.87591242790222 82.45099782943726,83.87591242790222 81.64520263671875,83.75361561775208 81.64520263671875,83.75361561775208 80.82841634750366,83.71393084526062 80.82841634750366,83.71393084526062 80.05034923553467,83.74773263931274 80.05034923553467,83.74773263931274 79.2645275592804,83.84643793106079 79.2645275592804,83.84643793106079 78.47204804420471,84.00603532791138 78.47204804420471,84.00603532791138 77.67387628555298,84.22251343727112 77.67387628555298,84.22251343727112 76.870858669281,84.49183106422424 76.870858669281,84.49183106422424 76.06396675109863,84.80995893478394 76.06396675109863,84.80995893478394 75.254225730896,85.17287373542786 75.254225730896,85.17287373542786 74.44254755973816,85.57658195495605 74.44254755973816,85.57658195495605 73.26403856277466,86.2130880355835 73.26403856277466,86.2130880355835 72.04493284225464,86.89309358596802 72.04493284225464,86.89309358596802 70.79066634178162,87.57704496383667 70.79066634178162,87.57704496383667 69.50660347938538,88.22538256645203 69.50660347938538,88.22538256645203 68.1979775428772,88.7985110282898 68.1979775428772,88.7985110282898 66.87008738517761,89.25693035125732 66.87008738517761,89.25693035125732 65.52823185920715,89.56096768379211 65.52823185920715,89.56096768379211 64.17778134346008,89.67111110687256 64.17778134346008,89.67111110687256 63.77856731414795,89.66079950332642 63.77856731414795,89.66079950332642 63.37922811508179,89.62922692298889 63.37922811508179,89.62922692298889 62.97988295555115,89.57531452178955 62.97988295555115,89.57531452178955 62.580668926239014,89.49800729751587 62.580668926239014,89.49800729751587 62.181711196899414,89.39635753631592 62.181711196899414,89.39635753631592 61.78327202796936,89.26924467086792 61.78327202796936,89.26924467086792 61.38535141944885,89.11572694778442 61.38535141944885,89.11572694778442 60.988205671310425,88.93473744392395 60.988205671310425,88.93473744392395 60.235804319381714,88.50136399269104 60.235804319381714,88.50136399269104 59.54739451408386,87.993323802948 59.54739451408386,87.993323802948 58.90358090400696,87.4329686164856 58.90358090400696,87.4329686164856 58.28511118888855,86.84261441230774 58.28511118888855,86.84261441230774 57.67258405685425,86.2445056438446 57.67258405685425,86.2445056438446 57.046616077423096,85.6610655784607 57.046616077423096,85.6610655784607 56.388068199157715,85.11447310447693 56.388068199157715,85.11447310447693 55.677419900894165,84.62715744972229 55.677419900894165,84.62715744972229 55.227142572402954,84.37519073486328 55.227142572402954,84.37519073486328 54.76832985877991,84.15936231613159 54.76832985877991,84.15936231613159 54.301828145980835,83.97888541221619 54.301828145980835,83.97888541221619 53.828150033950806,83.83299708366394 53.828150033950806,83.83299708366394 53.3480703830719,83.72091054916382 53.3480703830719,83.72091054916382 52.86223888397217,83.64179134368896 52.86223888397217,83.64179134368896 52.37136483192444,83.59492421150208 52.37136483192444,83.59492421150208 51.87609791755676,83.57948064804077 51.87609791755676,83.57948064804077 51.64940357208252,83.58261585235596 51.64940357208252,83.58261585235596 51.421940326690674,83.59201550483704 51.421940326690674,83.59201550483704 51.193827390670776,83.60756635665894 51.193827390670776,83.60756635665894 50.96513032913208,83.62925052642822 50.96513032913208,83.62925052642822 50.73585510253906,83.6570143699646 50.73585510253906,83.6570143699646 50.50625801086426,83.69072079658508 50.50625801086426,83.69072079658508 50.27633309364319,83.73041152954102 50.27633309364319,83.73041152954102 50.04602074623108,83.77598524093628 50.04602074623108,83.77598524093628 48.314133286476135,84.26973223686218 48.314133286476135,84.26973223686218 46.657875180244446,84.95963215827942 46.657875180244446,84.95963215827942 45.05158066749573,85.77922582626343 45.05158066749573,85.77922582626343 43.469592928886414,86.6620123386383 43.469592928886414,86.6620123386383 41.88643991947174,87.54149675369263 41.88643991947174,87.54149675369263 40.27626812458038,88.35117220878601 40.27626812458038,88.35117220878601 38.61367404460907,89.02465105056763 38.61367404460907,89.02465105056763 36.872994899749756,89.49528932571411 36.872994899749756,89.49528932571411 36.67280673980713,89.5316481590271 36.67280673980713,89.5316481590271 36.473265290260315,89.56316113471985 36.473265290260315,89.56316113471985 36.27443313598633,89.58982825279236 36.27443313598633,89.58982825279236 36.076247692108154,89.61164355278015 36.076247692108154,89.61164355278015 35.87883710861206,89.6286129951477 35.87883710861206,89.6286129951477 35.68213880062103,89.64073061943054 35.68213880062103,89.64073061943054 35.486218333244324,89.64800238609314 35.486218333244324,89.64800238609314 35.29113531112671,89.6504282951355 35.29113531112671,89.6504282951355 34.63775813579559,89.62282538414001 34.63775813579559,89.62282538414001 33.99537205696106,89.54027891159058 33.99537205696106,89.54027891159058 33.36539268493652,89.40298557281494 33.36539268493652,89.40298557281494 32.74911940097809,89.2112672328949 32.74911940097809,89.2112672328949 32.14764893054962,88.9653742313385 32.14764893054962,88.9653742313385 31.562337279319763,88.6656403541565 31.562337279319763,88.6656403541565 30.99447786808014,88.31235766410828 30.99447786808014,88.31235766410828 30.44523596763611,87.90567517280579 30.44523596763611,87.90567517280579 29.80976402759552,87.36270070075989 29.80976402759552,87.36270070075989 29.206353425979614,86.8009865283966 29.206353425979614,86.8009865283966 28.616970777511597,86.2366795539856 28.616970777511597,86.2366795539856 28.023838996887207,85.68608164787292 28.023838996887207,85.68608164787292 27.409115433692932,85.16525030136108 27.409115433692932,85.16525030136108 26.75483524799347,84.69046950340271 26.75483524799347,84.69046950340271 26.043280959129333,84.27781462669373 26.043280959129333,84.27781462669373 25.256487727165222,83.94352793693542 25.256487727165222,83.94352793693542 24.95804876089096,83.84682536125183 24.95804876089096,83.84682536125183 24.65960681438446,83.76438021659851 24.65960681438446,83.76438021659851 24.361295998096466,83.6957335472107 24.361295998096466,83.6957335472107 24.063049256801605,83.64049792289734 24.063049256801605,83.64049792289734 23.764866590499878,83.59825611114502 23.764866590499878,83.59825611114502 23.466943204402924,83.5686206817627 23.466943204402924,83.5686206817627 23.169147968292236,83.55110287666321 23.169147968292236,83.55110287666321 22.87154793739319,83.54535102844238 22.87154793739319,83.54535102844238 21.4372918009758,83.66990685462952 21.4372918009758,83.66990685462952 20.014671981334686,84.01210904121399 20.014671981334686,84.01210904121399 18.608956038951874,84.52463746070862 18.608956038951874,84.52463746070862 17.225410044193268,85.16030311584473 17.225410044193268,85.16030311584473 15.869304537773132,85.87175607681274 15.869304537773132,85.87175607681274 14.54584151506424,86.61178350448608 14.54584151506424,86.61178350448608 13.260452449321747,87.33309507369995 13.260452449321747,87.33309507369995 12.01830580830574,87.9884123802185 12.01830580830574,87.9884123802185 11.28978505730629,88.33297491073608 11.28978505730629,88.33297491073608 10.564497113227844,88.63904476165771 10.564497113227844,88.63904476165771 9.843119233846664,88.90435695648193 9.843119233846664,88.90435695648193 9.126266837120056,89.1265869140625 9.126266837120056,89.1265869140625 8.41461718082428,89.30343985557556 8.41461718082428,89.30343985557556 7.7088505029678345,89.43262100219727 7.7088505029678345,89.43262100219727 7.009644061326981,89.51180577278137 7.009644061326981,89.51180577278137 6.317612528800964,89.53872919082642 6.317612528800964,89.53872919082642 5.48861026763916,89.49784636497498 5.48861026763916,89.49784636497498 4.6723417937755585,89.37247395515442 4.6723417937755585,89.37247395515442 3.8701001554727554,89.15851712226868 3.8701001554727554,89.15851712226868 3.0829841271042824,88.85186910629272 3.0829841271042824,88.85186910629272 2.312254346907139,88.44838738441467 2.312254346907139,88.44838738441467 1.5590417198836803,87.94400691986084 1.5590417198836803,87.94400691986084 0.8246392942965031,87.33458518981934 0.8246392942965031,87.33458518981934 0.11014582123607397,86.61598563194275 0.11014582123607397,86.61598563194275 0.038880700594745576,86.33409142494202 0.038880700594745576,86.33409142494202 0.00542972375114914,86.01328730583191 0.00542972375114914,86.01328730583191 0.0010665528861864004,85.66591143608093 0.0010665528861864004,85.66591143608093 0.017064846178982407,85.30431985855103 0.017064846178982407,85.30431985855103 0.044730582158081234,84.94088649749756 0.044730582158081234,84.94088649749756 0.07524045649915934,84.5879852771759 0.07524045649915934,84.5879852771759 0.09996509179472923,84.25793647766113 0.09996509179472923,84.25793647766113 0.11014582123607397,83.96317958831787 0.11014582123607397,83.96317958831787" stroke="white" stroke-width="0.1" /></svg>