<?xml version="1.0" encoding="utf-8" ?>
<svg baseProfile="full" height="92.12673306465149" version="1.1" width="100.0" xmlns="http://www.w3.org/2000/svg" xmlns:ev="http://www.w3.org/2001/xml-events" xmlns:xlink="http://www.w3.org/1999/xlink"><defs><clipPath /></defs><polygon points="96.09252214431763,13.480687141418457 96.09252214431763,13.480687141418457 96.87716960906982,13.560450077056885 96.87716960906982,13.560450077056885 97.60929942131042,13.789014518260956 97.60929942131042,13.789014518260956 98.2728660106659,14.150376617908478 98.2728660106659,14.150376617908478 98.85180592536926,14.628607034683228 98.85180592536926,14.628607034683228 99.33004975318909,15.207633376121521 99.33004975318909,15.207633376121521 99.6915340423584,15.871386229991913 99.6915340423584,15.871386229991913 99.9202013015747,16.60393476486206 99.9202013015747,16.60393476486206 100.0,17.38927662372589 100.0,17.38927662372589 100.0,78.79154682159424 100.0,78.79154682159424 99.9202013015747,79.57653999328613 99.9202013015747,79.57653999328613 99.6915340423584,80.30877709388733 99.6915340423584,80.30877709388733 99.33004975318909,80.97235560417175 99.33004975318909,80.97235560417175 98.85180592536926,81.5512478351593 98.85180592536926,81.5512478351593 98.2728660106659,82.02937245368958 98.2728660106659,82.02937245368958 97.60929942131042,82.39073753356934 97.60929942131042,82.39073753356934 96.87716960906982,82.61929750442505 96.87716960906982,82.61929750442505 96.09252214431763,82.69902467727661 96.09252214431763,82.69902467727661 92.84924864768982,82.69902467727661 92.84924864768982,82.69902467727661 92.84924864768982,73.84222745895386 92.84924864768982,73.84222745895386 92.84924864768982,70.47677040100098 92.84924864768982,70.47677040100098 92.7587628364563,69.37317848205566 92.7587628364563,69.37317848205566 92.49703288078308,68.32074522972107 92.49703288078308,68.32074522972107 92.07860827445984,67.33453869819641 92.07860827445984,67.33453869819641 91.51806235313416,66.42962098121643 91.51806235313416,66.42962098121643 90.82996249198914,65.62102437019348 90.82996249198914,65.62102437019348 90.02886414527893,64.92378115653992 90.02886414527893,64.92378115653992 89.12934064865112,64.35294151306152 89.12934064865112,64.35294151306152 88.14594745635986,63.923585414886475 88.14594745635986,63.923585414886475 88.09150457382202,63.134872913360596 88.09150457382202,63.134872913360596 88.0352258682251,62.36453056335449 88.0352258682251,62.36453056335449 87.97705173492432,61.612021923065186 87.97705173492432,61.612021923065186 87.91700601577759,60.87690591812134 87.91700601577759,60.87690591812134 87.8550112247467,60.158658027648926 87.8550112247467,60.158658027648926 87.79107928276062,59.45672392845154 87.79107928276062,59.45672392845154 87.72516250610352,58.77075791358948 87.72516250610352,58.77075791358948 87.65723705291748,58.1001341342926 87.65723705291748,58.1001341342926 87.69840002059937,58.05285573005676 87.69840002059937,58.05285573005676 87.74005174636841,58.00541043281555 87.74005174636841,58.00541043281555 87.78181076049805,57.95809626579285 87.78181076049805,57.95809626579285 87.82328963279724,57.91131258010864 87.82328963279724,57.91131258010864 87.8641426563263,57.865357398986816 87.8641426563263,57.865357398986816 87.90402412414551,57.82054662704468 87.90402412414551,57.82054662704468 87.94255256652832,57.77726173400879 87.94255256652832,57.77726173400879 87.97934055328369,57.73581862449646 87.97934055328369,57.73581862449646 88.39174509048462,57.267552614212036 88.39174509048462,57.267552614212036 88.83446455001831,56.72663450241089 88.83446455001831,56.72663450241089 89.27285075187683,56.11310601234436 89.27285075187683,56.11310601234436 89.67220187187195,55.426931381225586 89.67220187187195,55.426931381225586 89.99788165092468,54.668211936950684 89.99788165092468,54.668211936950684 90.21525382995605,53.83691191673279 90.21525382995605,53.83691191673279 90.28961658477783,52.93310880661011 90.28961658477783,52.93310880661011 90.18632173538208,51.956796646118164 90.18632173538208,51.956796646118164 89.54631090164185,49.089425802230835 89.54631090164185,49.089425802230835 88.82167935371399,46.39199674129486 88.82167935371399,46.39199674129486 88.01564574241638,43.87214481830597 88.01564574241638,43.87214481830597 87.13138699531555,41.53763949871063 87.13138699531555,41.53763949871063 86.17208003997803,39.396122097969055 86.17208003997803,39.396122097969055 85.14088988304138,37.45529353618622 85.14088988304138,37.45529353618622 84.0410053730011,35.72286367416382 84.0410053730011,35.72286367416382 82.87562727928162,34.206536412239075 82.87562727928162,34.206536412239075 82.5898289680481,33.88054370880127 82.5898289680481,33.88054370880127 82.30680823326111,33.57197344303131 82.30680823326111,33.57197344303131 82.02595114707947,33.280134201049805 82.02595114707947,33.280134201049805 81.74666166305542,33.00447165966034 81.74666166305542,33.00447165966034 81.46832585334778,32.74428844451904 81.46832585334778,32.74428844451904 81.1903715133667,32.499027252197266 81.1903715133667,32.499027252197266 80.91217279434204,32.26799964904785 80.91217279434204,32.26799964904785 80.63310384750366,32.05064833164215 80.63310384750366,32.05064833164215 80.01384735107422,31.606850028038025 80.01384735107422,31.606850028038025 79.38161492347717,31.218379735946655 79.38161492347717,31.218379735946655 78.7390649318695,30.886417627334595 78.7390649318695,30.886417627334595 78.08888554573059,30.612140893936157 78.08888554573059,30.612140893936157 77.43377685546875,30.39676547050476 77.43377685546875,30.39676547050476 76.77637338638306,30.24144172668457 76.77637338638306,30.24144172668457 76.11940503120422,30.147412419319153 76.11940503120422,30.147412419319153 75.46553015708923,30.115792155265808 75.46553015708923,30.115792155265808 61.80379390716553,30.115792155265808 61.80379390716553,30.115792155265808 57.50090479850769,30.115792155265808 57.50090479850769,30.115792155265808 41.14902913570404,30.115792155265808 41.14902913570404,30.115792155265808 36.508482694625854,30.115792155265808 36.508482694625854,30.115792155265808 21.075168251991272,30.115792155265808 21.075168251991272,30.115792155265808 21.004343032836914,30.117076635360718 21.004343032836914,30.117076635360718 20.933447778224945,30.120649933815002 20.933447778224945,30.120649933815002 20.862536132335663,30.126065015792847 20.862536132335663,30.126065015792847 20.791588723659515,30.132868885993958 20.791588723659515,30.132868885993958 20.72060853242874,30.140680074691772 20.72060853242874,30.140680074691772 20.649626851081848,30.14904260635376 20.649626851081848,30.14904260635376 20.57861089706421,30.157580971717834 20.57861089706421,30.157580971717834 20.50759494304657,30.165773630142212 20.50759494304657,30.165773630142212 20.50759494304657,22.907283902168274 20.50759494304657,22.907283902168274 20.56562900543213,22.33651727437973 20.56562900543213,22.33651727437973 20.73192298412323,21.804070472717285 20.73192298412323,21.804070472717285 20.994797348976135,21.321536600589752 20.994797348976135,21.321536600589752 21.342571079730988,20.900647342205048 21.342571079730988,20.900647342205048 21.763546764850616,20.552994310855865 21.763546764850616,20.552994310855865 22.24602997303009,20.29024213552475 22.24602997303009,20.29024213552475 22.778336703777313,20.124052464962006 22.778336703777313,20.124052464962006 23.348790407180786,20.06608694791794 23.348790407180786,20.06608694791794 38.41224014759064,20.06608694791794 38.41224014759064,20.06608694791794 38.98300528526306,20.12408673763275 38.98300528526306,20.12408673763275 39.51547145843506,20.29024213552475 39.51547145843506,20.29024213552475 39.997971057891846,20.552994310855865 39.997971057891846,20.552994310855865 40.41887819766998,20.900647342205048 40.41887819766998,20.900647342205048 40.766528248786926,21.321536600589752 40.766528248786926,21.321536600589752 41.02926552295685,21.804070472717285 41.02926552295685,21.804070472717285 41.19545519351959,22.33651727437973 41.19545519351959,22.33651727437973 41.25343561172485,22.907283902168274 41.25343561172485,22.907283902168274 41.25343561172485,24.895454943180084 41.25343561172485,24.895454943180084 58.40390920639038,24.895454943180084 58.40390920639038,24.895454943180084 60.34542918205261,5.504678934812546 60.34542918205261,5.504678934812546 60.43744683265686,5.011419579386711 60.43744683265686,5.011419579386711 60.609644651412964,4.545511305332184 60.609644651412964,4.545511305332184 60.853683948516846,4.114416986703873 60.853683948516846,4.114416986703873 61.16124987602234,3.725738078355789 61.16124987602234,3.725738078355789 61.52399778366089,3.386971354484558 61.52399778366089,3.386971354484558 61.93360686302185,3.10568418353796 61.93360686302185,3.10568418353796 62.381744384765625,2.889442816376686 62.381744384765625,2.889442816376686 62.86007761955261,2.7456752955913544 62.86007761955261,2.7456752955913544 62.89742588996887,2.724641188979149 62.89742588996887,2.724641188979149 62.93540000915527,2.7032947167754173 62.93540000915527,2.7032947167754173 62.974101305007935,2.6816705241799355 62.974101305007935,2.6816705241799355 63.01363706588745,2.65987291932106 63.01363706588745,2.65987291932106 63.05410861968994,2.6379363611340523 63.05410861968994,2.6379363611340523 63.09561729431152,2.61603444814682 63.09561729431152,2.61603444814682 63.13827633857727,2.594132721424103 63.13827633857727,2.594132721424103 63.1821870803833,2.572404406964779 63.1821870803833,2.572404406964779 67.40954518318176,0.5131480284035206 67.40954518318176,0.5131480284035206 67.97726154327393,0.28864576015621424 67.97726154327393,0.28864576015621424 68.60692501068115,0.12828700710088015 68.60692501068115,0.12828700710088015 69.2779004573822,0.032071751775220037 69.2779004573822,0.032071751775220037 69.9694573879242,0.0 69.9694573879242,0.0 70.66090703010559,0.032071751775220037 70.66090703010559,0.032071751775220037 71.33156657218933,0.12828700710088015 71.33156657218933,0.12828700710088015 71.96071743965149,0.28864576015621424 71.96071743965149,0.28864576015621424 72.52770066261292,0.5131480284035206 72.52770066261292,0.5131480284035206 76.75617337226868,2.572404406964779 76.75617337226868,2.572404406964779 76.80007815361023,2.594132721424103 76.80007815361023,2.594132721424103 76.84275507926941,2.61603444814682 76.84275507926941,2.61603444814682 76.88432335853577,2.637971006333828 76.88432335853577,2.637971006333828 76.92486047744751,2.65987291932106 76.92486047744751,2.65987291932106 76.96453332901001,2.6816705241799355 76.96453332901001,2.6816705241799355 77.00342535972595,2.7032947167754173 77.00342535972595,2.7032947167754173 77.0416796207428,2.724641188979149 77.0416796207428,2.724641188979149 77.07939147949219,2.7456752955913544 77.07939147949219,2.7456752955913544 77.55736112594604,2.889442816376686 77.55736112594604,2.889442816376686 78.00523638725281,3.10568418353796 78.00523638725281,3.10568418353796 78.41469049453735,3.386971354484558 78.41469049453735,3.386971354484558 78.7773847579956,3.725738078355789 78.7773847579956,3.725738078355789 79.0850043296814,4.114416986703873 79.0850043296814,4.114416986703873 79.32920455932617,4.545511305332184 79.32920455932617,4.545511305332184 79.50165867805481,5.011419579386711 79.50165867805481,5.011419579386711 79.59403395652771,5.504678934812546 79.59403395652771,5.504678934812546 80.38930296897888,13.480687141418457 80.38930296897888,13.480687141418457" stroke="white" stroke-width="0.1" /><polygon points="86.02727055549622,67.53339171409607 86.02727055549622,67.53339171409607 86.59834861755371,67.6116943359375 86.59834861755371,67.6116943359375 87.13096976280212,67.79680252075195 87.13096976280212,67.79680252075195 87.6134991645813,68.07677149772644 87.6134991645813,68.07677149772644 88.03431987762451,68.43945384025574 88.03431987762451,68.43945384025574 88.38183283805847,68.87287497520447 88.38183283805847,68.87287497520447 88.64445090293884,69.36495304107666 88.64445090293884,69.36495304107666 88.81053328514099,69.90357637405396 88.81053328514099,69.90357637405396 88.8684630393982,70.47677040100098 88.8684630393982,70.47677040100098 88.8684630393982,73.84222745895386 88.8684630393982,73.84222745895386 88.09953927993774,72.91207313537598 88.09953927993774,72.91207313537598 87.23152279853821,72.07539677619934 87.23152279853821,72.07539677619934 86.27325892448425,71.34166955947876 86.27325892448425,71.34166955947876 85.23366451263428,70.72029709815979 85.23366451263428,70.72029709815979 84.12160277366638,70.22064924240112 84.12160277366638,70.22064924240112 82.94591903686523,69.8521375656128 82.94591903686523,69.8521375656128 81.71553015708923,69.62409615516663 81.71553015708923,69.62409615516663 80.43928742408752,69.54599618911743 80.43928742408752,69.54599618911743 80.43150901794434,69.54599618911743 80.43150901794434,69.54599618911743 80.38153052330017,69.54821944236755 80.38153052330017,69.54821944236755 78.28537821769714,69.77126598358154 78.28537821769714,69.77126598358154 76.33252143859863,70.38888931274414 76.33252143859863,70.38888931274414 74.56493377685547,71.35867476463318 74.56493377685547,71.35867476463318 73.02460074424744,72.63821363449097 73.02460074424744,72.63821363449097 71.75350189208984,74.18519258499146 71.75350189208984,74.18519258499146 70.79358696937561,75.95715522766113 70.79358696937561,75.95715522766113 70.18684148788452,77.91179418563843 70.18684148788452,77.91179418563843 69.97528672218323,80.00666499137878 69.97528672218323,80.00666499137878 69.98103260993958,80.34980297088623 69.98103260993958,80.34980297088623 69.99818086624146,80.69114089012146 69.99818086624146,80.69114089012146 70.02655267715454,81.03063702583313 70.02655267715454,81.03063702583313 70.06595134735107,81.36825561523438 70.06595134735107,81.36825561523438 70.11624574661255,81.70393705368042 70.11624574661255,81.70393705368042 70.17724514007568,82.03766942024231 70.17724514007568,82.03766942024231 70.24880051612854,82.36938714981079 70.24880051612854,82.36938714981079 70.33071517944336,82.69902467727661 70.33071517944336,82.69902467727661 67.98878312110901,82.69902467727661 67.98878312110901,82.69902467727661 67.98590421676636,82.64064192771912 67.98590421676636,82.64064192771912 67.98329949378967,82.58212208747864 67.98329949378967,82.58212208747864 67.98065900802612,82.5235664844513 67.98065900802612,82.5235664844513 67.9777443408966,82.46508240699768 67.9777443408966,82.46508240699768 67.97422170639038,82.40677118301392 67.97422170639038,82.40677118301392 67.96979904174805,82.34866857528687 67.96979904174805,82.34866857528687 67.96420812606812,82.29094743728638 67.96420812606812,82.29094743728638 67.9571270942688,82.23363757133484 67.9571270942688,82.23363757133484 67.89234280586243,81.83611035346985 67.89234280586243,81.83611035346985 67.78878569602966,81.41303062438965 67.78878569602966,81.41303062438965 67.63965487480164,80.97152709960938 67.63965487480164,80.97152709960938 67.43807792663574,80.51870465278625 67.43807792663574,80.51870465278625 67.17721819877625,80.0617516040802 67.17721819877625,80.0617516040802 66.8502688407898,79.60771322250366 66.8502688407898,79.60771322250366 66.45034551620483,79.16377782821655 66.45034551620483,79.16377782821655 65.97062349319458,78.73712182044983 65.97062349319458,78.73712182044983 65.9216821193695,78.54042649269104 65.9216821193695,78.54042649269104 65.87156057357788,78.33372950553894 65.87156057357788,78.33372950553894 65.82105755805969,78.12102437019348 65.82105755805969,78.12102437019348 65.7709002494812,77.90645360946655 65.7709002494812,77.90645360946655 65.72185754776001,77.69399285316467 65.72185754776001,77.69399285316467 65.67472219467163,77.48774886131287 65.67472219467163,77.48774886131287 65.63020944595337,77.2917091846466 65.63020944595337,77.2917091846466 65.5890941619873,77.1099328994751 65.5890941619873,77.1099328994751 65.39034843444824,76.24097466468811 65.39034843444824,76.24097466468811 65.21124243736267,75.49266815185547 65.21124243736267,75.49266815185547 65.04267454147339,74.85005259513855 65.04267454147339,74.85005259513855 64.87553119659424,74.29817318916321 64.87553119659424,74.29817318916321 64.70069885253906,73.82209300994873 64.70069885253906,73.82209300994873 64.50909972190857,73.40689301490784 64.50909972190857,73.40689301490784 64.29159641265869,73.03761839866638 64.29159641265869,73.03761839866638 64.03909921646118,72.69930243492126 64.03909921646118,72.69930243492126 63.82417678833008,72.46046662330627 63.82417678833008,72.46046662330627 63.45614790916443,72.15700149536133 63.45614790916443,72.15700149536133 62.83959746360779,71.79372906684875 62.83959746360779,71.79372906684875 61.87918186187744,71.37547731399536 61.87918186187744,71.37547731399536 60.4794979095459,70.90710401535034 60.4794979095459,70.90710401535034 58.54514241218567,70.3934371471405 58.54514241218567,70.3934371471405 55.980777740478516,69.83922719955444 55.980777740478516,69.83922719955444 52.69097089767456,69.24943923950195 52.69097089767456,69.24943923950195 52.44598984718323,69.20875906944275 52.44598984718323,69.20875906944275 52.20257043838501,69.17009353637695 52.20257043838501,69.17009353637695 51.96201801300049,69.13354396820068 51.96201801300049,69.13354396820068 51.72562599182129,69.09935474395752 51.72562599182129,69.09935474395752 51.49470567703247,69.06759738922119 51.49470567703247,69.06759738922119 51.27055048942566,69.0384030342102 51.27055048942566,69.0384030342102 51.054465770721436,69.01195645332336 51.054465770721436,69.01195645332336 50.8477509021759,68.98842453956604 50.8477509021759,68.98842453956604 50.799018144607544,68.96467804908752 50.799018144607544,68.96467804908752 50.73317289352417,68.92972588539124 50.73317289352417,68.92972588539124 50.649577379226685,68.88193488121033 50.649577379226685,68.88193488121033 50.547581911087036,68.81959438323975 50.547581911087036,68.81959438323975 50.426530838012695,68.74101161956787 50.426530838012695,68.74101161956787 50.28576850891113,68.64444613456726 50.28576850891113,68.64444613456726 50.1246452331543,68.52834224700928 50.1246452331543,68.52834224700928 49.94252026081085,68.39085817337036 49.94252026081085,68.39085817337036 49.81350600719452,68.28805208206177 49.81350600719452,68.28805208206177 49.68191981315613,68.17992925643921 49.68191981315613,68.17992925643921 49.54808056354523,68.06694865226746 49.54808056354523,68.06694865226746 49.41222667694092,67.94962882995605 49.41222667694092,67.94962882995605 49.274638295173645,67.82845854759216 49.274638295173645,67.82845854759216 49.13555681705475,67.70395636558533 49.13555681705475,67.70395636558533 48.995259404182434,67.5765335559845 48.995259404182434,67.5765335559845 48.854026198387146,67.44675636291504 48.854026198387146,67.44675636291504 55.6226909160614,67.44675636291504 55.6226909160614,67.44675636291504 56.19314908981323,67.38879084587097 56.19314908981323,67.38879084587097 56.725454330444336,67.22273826599121 56.725454330444336,67.22273826599121 57.20793604850769,66.96005463600159 57.20793604850769,66.96005463600159 57.62891173362732,66.61247611045837 57.62891173362732,66.61247611045837 57.97668695449829,66.1915123462677 57.97668695449829,66.1915123462677 58.239561319351196,65.70877432823181 58.239561319351196,65.70877432823181 58.40585231781006,65.17590880393982 58.40585231781006,65.17590880393982 58.463889360427856,64.60444927215576 58.463889360427856,64.60444927215576 58.463889360427856,57.78247117996216 58.463889360427856,57.78247117996216 58.40585231781006,57.211631536483765 58.40585231781006,57.211631536483765 58.239561319351196,56.67904615402222 58.239561319351196,56.67904615402222 57.97668695449829,56.19637370109558 57.97668695449829,56.19637370109558 57.62891173362732,55.7752788066864 57.62891173362732,55.7752788066864 57.20793604850769,55.42741417884827 57.20793604850769,55.42741417884827 56.725454330444336,55.16452193260193 56.725454330444336,55.16452193260193 56.19314908981323,54.9981951713562 56.19314908981323,54.9981951713562 55.6226909160614,54.94016408920288 55.6226909160614,54.94016408920288 42.35637187957764,54.94016408920288 42.35637187957764,54.94016408920288 41.859814524650574,54.98403310775757 41.859814524650574,54.98403310775757 41.391026973724365,55.11051416397095 41.391026973724365,55.11051416397095 40.95753729343414,55.312007665634155 40.95753729343414,55.312007665634155 40.56687951087952,55.58076500892639 40.56687951087952,55.58076500892639 40.226566791534424,55.90922236442566 40.226566791534424,55.90922236442566 39.94411826133728,56.2896728515625 39.94411826133728,56.2896728515625 39.72707688808441,56.714487075805664 39.72707688808441,56.714487075805664 39.58292901515961,57.17601776123047 39.58292901515961,57.17601776123047 39.40941393375397,57.121700048446655 39.40941393375397,57.121700048446655 39.2337828874588,57.073867321014404 39.2337828874588,57.073867321014404 39.05612230300903,57.032740116119385 39.05612230300903,57.032740116119385 38.87651860713959,56.998586654663086 38.87651860713959,56.998586654663086 38.695019483566284,56.97161555290222 38.695019483566284,56.97161555290222 38.51175308227539,56.95204138755798 38.51175308227539,56.95204138755798 38.326749205589294,56.94013237953186 38.326749205589294,56.94013237953186 38.14011514186859,56.93610906600952 38.14011514186859,56.93610906600952 37.846922874450684,56.944435834884644 37.846922874450684,56.944435834884644 37.54793405532837,56.96963667869568 37.54793405532837,56.96963667869568 37.24259436130524,57.01184272766113 37.24259436130524,57.01184272766113 36.930206418037415,57.07119703292847 36.930206418037415,57.07119703292847 36.61021888256073,57.147908210754395 36.61021888256073,57.147908210754395 36.28196716308594,57.24207162857056 36.28196716308594,57.24207162857056 35.94483435153961,57.35394358634949 35.94483435153961,57.35394358634949 35.598257184028625,57.48368501663208 35.598257184028625,57.48368501663208 35.49371063709259,56.966233253479004 35.49371063709259,56.966233253479004 35.300272703170776,56.486475467681885 35.300272703170776,56.486475467681885 35.027143359184265,56.05413317680359 35.027143359184265,56.05413317680359 34.68344807624817,55.67878484725952 34.68344807624817,55.67878484725952 34.27838683128357,55.37007451057434 34.27838683128357,55.37007451057434 33.82108509540558,55.13765811920166 33.82108509540558,55.13765811920166 33.32074582576752,54.99114990234375 33.32074582576752,54.99114990234375 32.7864944934845,54.94016408920288 32.7864944934845,54.94016408920288 23.67534041404724,54.94016408920288 23.67534041404724,54.94016408920288 23.140601813793182,54.99128699302673 23.140601813793182,54.99128699302673 22.63963669538498,55.13821244239807 22.63963669538498,55.13821244239807 22.181712090969086,55.371326208114624 22.181712090969086,55.371326208114624 21.776095032691956,55.68086504936218 21.776095032691956,55.68086504936218 21.432052552700043,56.057220697402954 21.432052552700043,56.057220697402954 21.158817410469055,56.490713357925415 21.158817410469055,56.490713357925415 20.96569389104843,56.97161555290222 20.96569389104843,56.97161555290222 20.86191177368164,57.49034881591797 20.86191177368164,57.49034881591797 20.821647346019745,57.493650913238525 20.821647346019745,57.493650913238525 20.781974494457245,57.49683976173401 20.781974494457245,57.49683976173401 20.74263095855713,57.499998807907104 20.74263095855713,57.499998807907104 20.703427493572235,57.503122091293335 20.703427493572235,57.503122091293335 20.664136111736298,57.50625133514404 20.664136111736298,57.50625133514404 20.624566078186035,57.50937461853027 20.624566078186035,57.50937461853027 20.58449387550354,57.51263499259949 20.58449387550354,57.51263499259949 20.543693006038666,57.5158953666687 20.543693006038666,57.5158953666687 18.96648406982422,57.65807032585144 18.96648406982422,57.65807032585144 17.212674021720886,57.8157901763916 17.212674021720886,57.8157901763916 16.88733994960785,57.849252223968506 16.88733994960785,57.849252223968506 16.56518131494522,57.89006948471069 16.56518131494522,57.89006948471069 16.24600887298584,57.93772339820862 16.24600887298584,57.93772339820862 15.929664671421051,57.991695404052734 15.929664671421051,57.991695404052734 15.615975856781006,58.051466941833496 15.615975856781006,58.051466941833496 15.304768085479736,58.116477727890015 15.304768085479736,58.116477727890015 14.995869994163513,58.186179399490356 14.995869994163513,58.186179399490356 14.689140021800995,58.26007127761841 14.689140021800995,58.26007127761841 14.691813290119171,56.694287061691284 14.691813290119171,56.694287061691284 14.69792127609253,55.2107572555542 14.69792127609253,55.2107572555542 14.707762002944946,53.829413652420044 14.707762002944946,53.829413652420044 14.72155898809433,52.57032513618469 14.72155898809433,52.57032513618469 14.739608764648438,51.45336389541626 14.739608764648438,51.45336389541626 14.762169122695923,50.49864053726196 14.762169122695923,50.49864053726196 14.789485931396484,49.7260719537735 14.789485931396484,49.7260719537735 14.821870625019073,49.15558397769928 14.821870625019073,49.15558397769928 15.132661163806915,46.47672474384308 15.132661163806915,46.47672474384308 15.63510000705719,43.890124559402466 15.63510000705719,43.890124559402466 16.292762756347656,41.464921832084656 16.292762756347656,41.464921832084656 17.06925332546234,39.27026391029358 17.06925332546234,39.27026391029358 17.928162217140198,37.37528920173645 17.928162217140198,37.37528920173645 18.83307844400406,35.84913909435272 18.83307844400406,35.84913909435272 19.747591018676758,34.76095497608185 19.747591018676758,34.76095497608185 20.635326206684113,34.17988121509552 20.635326206684113,34.17988121509552 20.691591501235962,34.160998463630676 20.691591501235962,34.160998463630676 20.74716091156006,34.14437174797058 20.74716091156006,34.14437174797058 20.80221027135849,34.13010537624359 20.80221027135849,34.13010537624359 20.856912434101105,34.11823511123657 20.856912434101105,34.11823511123657 20.911407470703125,34.10886526107788 20.911407470703125,34.10886526107788 20.965832471847534,34.1020941734314 20.965832471847534,34.1020941734314 21.02036029100418,34.0979665517807 21.02036029100418,34.0979665517807 21.075168251991272,34.096577763557434 21.075168251991272,34.096577763557434 36.508482694625854,34.096577763557434 36.508482694625854,34.096577763557434 41.14902913570404,34.096577763557434 41.14902913570404,34.096577763557434 57.50090479850769,34.096577763557434 57.50090479850769,34.096577763557434 61.80379390716553,34.096577763557434 61.80379390716553,34.096577763557434 75.46553015708923,34.096577763557434 75.46553015708923,34.096577763557434 75.77829360961914,34.11368727684021 75.77829360961914,34.11368727684021 76.10284686088562,34.16537046432495 76.10284686088562,34.16537046432495 76.4380931854248,34.252145886421204 76.4380931854248,34.252145886421204 76.78296566009521,34.37453210353851 76.78296566009521,34.37453210353851 77.13643312454224,34.533050656318665 77.13643312454224,34.533050656318665 77.4974524974823,34.72822308540344 77.4974524974823,34.72822308540344 77.8649389743805,34.96057093143463 77.8649389743805,34.96057093143463 78.2378613948822,35.23061275482178 78.2378613948822,35.23061275482178 78.43693494796753,35.38621664047241 78.43693494796753,35.38621664047241 78.63611578941345,35.553133487701416 78.63611578941345,35.553133487701416 78.83561253547668,35.731229186058044 78.83561253547668,35.731229186058044 79.03562784194946,35.92050075531006 79.03562784194946,35.92050075531006 79.2363703250885,36.12084686756134 79.2363703250885,36.12084686756134 79.43804860115051,36.332228779792786 79.43804860115051,36.332228779792786 79.64087724685669,36.5545779466629 79.64087724685669,36.5545779466629 79.84505891799927,36.7878258228302 79.84505891799927,36.7878258228302 80.73131442070007,37.93505132198334 80.73131442070007,37.93505132198334 81.614750623703,39.30594623088837 81.614750623703,39.30594623088837 82.48514533042908,40.90974032878876 82.48514533042908,40.90974032878876 83.33227038383484,42.75553226470947 83.33227038383484,42.75553226470947 84.1459333896637,44.852414727211 84.1459333896637,44.852414727211 84.91588234901428,47.20954895019531 84.91588234901428,47.20954895019531 85.63192486763,49.83596205711365 85.63192486763,49.83596205711365 86.28384470939636,52.7409553527832 86.28384470939636,52.7409553527832 86.24826669692993,53.31532955169678 86.24826669692993,53.31532955169678 85.96675395965576,53.902411460876465 85.96675395965576,53.902411460876465 85.51948666572571,54.501187801361084 85.51948666572571,54.501187801361084 84.98667478561401,55.11079430580139 84.98667478561401,55.11079430580139 84.44849848747253,55.730223655700684 84.44849848747253,55.730223655700684 83.9851438999176,56.358540058135986 83.9851438999176,56.358540058135986 83.67681503295898,56.99480175971985 83.67681503295898,56.99480175971985 83.60369801521301,57.6380729675293 83.60369801521301,57.6380729675293 83.73339176177979,58.85777473449707 83.73339176177979,58.85777473449707 83.85215401649475,60.0927472114563 83.85215401649475,60.0927472114563 83.96060466766357,61.33660078048706 83.96060466766357,61.33660078048706 84.0593695640564,62.58309483528137 84.0593695640564,62.58309483528137 84.14907455444336,63.82591128349304 84.14907455444336,63.82591128349304 84.23035144805908,65.05869626998901 84.23035144805908,65.05869626998901 84.30379629135132,66.2751317024231 84.30379629135132,66.2751317024231 84.37008857727051,67.46897101402283 84.37008857727051,67.46897101402283" stroke="white" stroke-width="0.1" /><polygon points="35.628801584243774,47.549498081207275 35.628801584243774,47.549498081207275 35.628801584243774,40.729737281799316 35.628801584243774,40.729737281799316 35.570818185806274,40.15858769416809 35.570818185806274,40.15858769416809 35.4046106338501,39.62586522102356 35.4046106338501,39.62586522102356 35.141825675964355,39.14315700531006 35.141825675964355,39.14315700531006 34.79410111904144,38.72212767601013 34.79410111904144,38.72212767601013 34.373074769973755,38.37440609931946 34.373074769973755,38.37440609931946 33.890366554260254,38.111621141433716 33.890366554260254,38.111621141433716 33.357641100883484,37.945395708084106 33.357641100883484,37.945395708084106 32.7864944934845,37.88743019104004 32.7864944934845,37.88743019104004 25.49023926258087,37.88743019104004 25.49023926258087,37.88743019104004 24.908818304538727,37.94442415237427 24.908818304538727,37.94442415237427 24.346573650836945,38.10776770114899 24.346573650836945,38.10776770114899 23.817163705825806,38.3660763502121 23.817163705825806,38.3660763502121 23.334212601184845,38.7079656124115 23.334212601184845,38.7079656124115 22.91141450405121,39.122018218040466 22.91141450405121,39.122018218040466 22.562390565872192,39.596813917160034 22.562390565872192,39.596813917160034 22.30081856250763,40.120965242385864 22.30081856250763,40.120965242385864 22.140339016914368,40.68308770656586 22.140339016914368,40.68308770656586 20.881904661655426,47.59392440319061 20.881904661655426,47.59392440319061 20.83808332681656,48.15656840801239 20.83808332681656,48.15656840801239 20.90936005115509,48.68137836456299 20.90936005115509,48.68137836456299 21.08617126941681,49.156901240348816 21.08617126941681,49.156901240348816 21.358953416347504,49.57168400287628 21.358953416347504,49.57168400287628 21.718165278434753,49.91426765918732 21.718165278434753,49.91426765918732 22.15425670146942,50.17313361167908 22.15425670146942,50.17313361167908 22.65765219926834,50.336891412734985 22.65765219926834,50.336891412734985 23.21883738040924,50.3940224647522 23.21883738040924,50.3940224647522 32.7864944934845,50.3940224647522 32.7864944934845,50.3940224647522 33.357641100883484,50.33591985702515 33.357641100883484,50.33591985702515 33.890366554260254,50.169312953948975 33.890366554260254,50.169312953948975 34.373074769973755,49.90604221820831 34.373074769973755,49.90604221820831 34.79410111904144,49.557799100875854 34.79410111904144,49.557799100875854 35.141825675964355,49.13628399372101 35.141825675964355,49.13628399372101 35.4046106338501,48.653265833854675 35.4046106338501,48.653265833854675 35.57080030441284,48.12040030956268 35.57080030441284,48.12040030956268" stroke="white" stroke-width="0.1" /><polygon points="58.463889360427856,47.549498081207275 58.463889360427856,47.549498081207275 58.463889360427856,40.729737281799316 58.463889360427856,40.729737281799316 58.40585231781006,40.15858769416809 58.40585231781006,40.15858769416809 58.239561319351196,39.62586522102356 58.239561319351196,39.62586522102356 57.97668695449829,39.14315700531006 57.97668695449829,39.14315700531006 57.62891173362732,38.72212767601013 57.62891173362732,38.72212767601013 57.20793604850769,38.37440609931946 57.20793604850769,38.37440609931946 56.725454330444336,38.111621141433716 56.725454330444336,38.111621141433716 56.19314908981323,37.945395708084106 56.19314908981323,37.945395708084106 55.6226909160614,37.88743019104004 55.6226909160614,37.88743019104004 42.35637187957764,37.88743019104004 42.35637187957764,37.88743019104004 41.785553097724915,37.945395708084106 41.785553097724915,37.945395708084106 41.25296771526337,38.111621141433716 41.25296771526337,38.111621141433716 40.7702773809433,38.37440609931946 40.7702773809433,38.37440609931946 40.34917950630188,38.72212767601013 40.34917950630188,38.72212767601013 40.00133574008942,39.14315700531006 40.00133574008942,39.14315700531006 39.73841071128845,39.62586522102356 39.73841071128845,39.62586522102356 39.57209885120392,40.15858769416809 39.57209885120392,40.15858769416809 39.51406478881836,40.729737281799316 39.51406478881836,40.729737281799316 39.51406478881836,47.549498081207275 39.51406478881836,47.549498081207275 39.57209885120392,48.12040030956268 39.57209885120392,48.12040030956268 39.73841071128845,48.653265833854675 39.73841071128845,48.653265833854675 40.00133574008942,49.13628399372101 40.00133574008942,49.13628399372101 40.34917950630188,49.557799100875854 40.34917950630188,49.557799100875854 40.7702773809433,49.90607500076294 40.7702773809433,49.90607500076294 41.25296771526337,50.169312953948975 41.25296771526337,50.169312953948975 41.78557097911835,50.33591985702515 41.78557097911835,50.33591985702515 42.35637187957764,50.3940224647522 42.35637187957764,50.3940224647522 55.6226909160614,50.3940224647522 55.6226909160614,50.3940224647522 56.19314908981323,50.33591985702515 56.19314908981323,50.33591985702515 56.725454330444336,50.169312953948975 56.725454330444336,50.169312953948975 57.20793604850769,49.90604221820831 57.20793604850769,49.90604221820831 57.62891173362732,49.557799100875854 57.62891173362732,49.557799100875854 57.97668695449829,49.13628399372101 57.97668695449829,49.13628399372101 58.239561319351196,48.653265833854675 58.239561319351196,48.653265833854675 58.40585231781006,48.12040030956268 58.40585231781006,48.12040030956268" stroke="white" stroke-width="0.1" /><polygon points="62.57907152175903,40.729737281799316 62.57907152175903,40.729737281799316 62.57907152175903,47.549498081207275 62.57907152175903,47.549498081207275 62.63705492019653,48.12040030956268 62.63705492019653,48.12040030956268 62.80325651168823,48.653265833854675 62.80325651168823,48.653265833854675 63.06604743003845,49.13628399372101 63.06604743003845,49.13628399372101 63.413769006729126,49.557799100875854 63.413769006729126,49.557799100875854 63.83479833602905,49.90607500076294 63.83479833602905,49.90607500076294 64.31750655174255,50.169312953948975 64.31750655174255,50.169312953948975 64.85022902488708,50.33591985702515 64.85022902488708,50.33591985702515 65.42137861251831,50.3940224647522 65.42137861251831,50.3940224647522 75.27559399604797,50.3940224647522 75.27559399604797,50.3940224647522 75.83643794059753,50.336891412734985 75.83643794059753,50.336891412734985 76.33967399597168,50.17313361167908 76.33967399597168,50.17313361167908 76.77566409111023,49.91423189640045 76.77566409111023,49.91423189640045 77.13478803634644,49.57168400287628 77.13478803634644,49.57168400287628 77.40743160247803,49.156901240348816 77.40743160247803,49.156901240348816 77.58398056030273,48.68137836456299 77.58398056030273,48.68137836456299 77.65480875968933,48.156535625457764 77.65480875968933,48.156535625457764 77.61030793190002,47.59392440319061 77.61030793190002,47.59392440319061 76.3518750667572,40.68308770656586 76.3518750667572,40.68308770656586 76.19113326072693,40.120965242385864 76.19113326072693,40.120965242385864 75.92952847480774,39.596813917160034 75.92952847480774,39.596813917160034 75.5806565284729,39.12198543548584 75.5806565284729,39.12198543548584 75.15813708305359,38.7079656124115 75.15813708305359,38.7079656124115 74.67553615570068,38.3660763502121 74.67553615570068,38.3660763502121 74.14641976356506,38.10776770114899 74.14641976356506,38.10776770114899 73.58440160751343,37.94442415237427 73.58440160751343,37.94442415237427 73.00308346748352,37.88743019104004 73.00308346748352,37.88743019104004 65.42137861251831,37.88743019104004 65.42137861251831,37.88743019104004 64.85022902488708,37.945395708084106 64.85022902488708,37.945395708084106 64.31750655174255,38.111621141433716 64.31750655174255,38.111621141433716 63.83479833602905,38.37440609931946 63.83479833602905,38.37440609931946 63.413769006729126,38.72212767601013 63.413769006729126,38.72212767601013 63.06604743003845,39.14315700531006 63.06604743003845,39.14315700531006 62.80325651168823,39.62586522102356 62.80325651168823,39.62586522102356 62.63706684112549,40.15858769416809 62.63706684112549,40.15858769416809" stroke="white" stroke-width="0.1" /><polygon points="80.7669460773468,64.60444927215576 80.7669460773468,64.60444927215576 80.7669460773468,57.78247117996216 80.7669460773468,57.78247117996216 80.7090163230896,57.211631536483765 80.7090163230896,57.211631536483765 80.54292798042297,56.67904615402222 80.54292798042297,56.67904615402222 80.28033375740051,56.19637370109558 80.28033375740051,56.19637370109558 79.93280291557312,55.7752788066864 79.93280291557312,55.7752788066864 79.51196432113647,55.42741417884827 79.51196432113647,55.42741417884827 79.02944684028625,55.16452193260193 79.02944684028625,55.16452193260193 78.49684357643127,54.9981951713562 78.49684357643127,54.9981951713562 77.92574763298035,54.94016408920288 77.92574763298035,54.94016408920288 64.6605372428894,54.94016408920288 64.6605372428894,54.94016408920288 64.08977508544922,54.9981951713562 64.08977508544922,54.9981951713562 63.55730891227722,55.16452193260193 63.55730891227722,55.16452193260193 63.074809312820435,55.42744994163513 63.074809312820435,55.42744994163513 62.653905153274536,55.7752788066864 62.653905153274536,55.7752788066864 62.306249141693115,56.19637370109558 62.306249141693115,56.19637370109558 62.04351782798767,56.67904615402222 62.04351782798767,56.67904615402222 61.87732815742493,57.211631536483765 61.87732815742493,57.211631536483765 61.81934475898743,57.78247117996216 61.81934475898743,57.78247117996216 61.81934475898743,64.60444927215576 61.81934475898743,64.60444927215576 61.87732815742493,65.17590880393982 61.87732815742493,65.17590880393982 62.04351782798767,65.70877432823181 62.04351782798767,65.70877432823181 62.306249141693115,66.1915123462677 62.306249141693115,66.1915123462677 62.653905153274536,66.61247611045837 62.653905153274536,66.61247611045837 63.074809312820435,66.96005463600159 63.074809312820435,66.96005463600159 63.55730891227722,67.22270250320435 63.55730891227722,67.22270250320435 64.08977508544922,67.38882660865784 64.08977508544922,67.38882660865784 64.6605372428894,67.44675636291504 64.6605372428894,67.44675636291504 77.92574763298035,67.44675636291504 77.92574763298035,67.44675636291504 78.49682569503784,67.38879084587097 78.49682569503784,67.38879084587097 79.02944684028625,67.22273826599121 79.02944684028625,67.22273826599121 79.51196432113647,66.96005463600159 79.51196432113647,66.96005463600159 79.93280291557312,66.61247611045837 79.93280291557312,66.61247611045837 80.28033375740051,66.1915123462677 80.28033375740051,66.1915123462677 80.54292798042297,65.70877432823181 80.54292798042297,65.70877432823181 80.70899844169617,65.17590880393982 80.70899844169617,65.17590880393982" stroke="white" stroke-width="0.1" /><polygon points="80.43928742408752,72.46938943862915 80.43928742408752,72.46938943862915 81.95646405220032,72.62245416641235 81.95646405220032,72.62245416641235 83.37041735649109,73.06153178215027 83.37041735649109,73.06153178215027 84.6506118774414,73.75628352165222 84.6506118774414,73.75628352165222 85.76653003692627,74.67650771141052 85.76653003692627,74.67650771141052 86.68761849403381,75.79193711280823 86.68761849403381,75.79193711280823 87.3833417892456,77.07223892211914 87.3833417892456,77.07223892211914 87.82314658164978,78.48724722862244 87.82314658164978,78.48724722862244 87.97656297683716,80.00666499137878 87.97656297683716,80.00666499137878 87.97139525413513,80.2894115447998 87.97139525413513,80.2894115447998 87.95598149299622,80.56938052177429 87.95598149299622,80.56938052177429 87.93052434921265,80.84636330604553 87.93052434921265,80.84636330604553 87.89520859718323,81.1202883720398 87.89520859718323,81.1202883720398 87.85018920898438,81.39092326164246 87.85018920898438,81.39092326164246 87.79569268226624,81.65808320045471 87.79569268226624,81.65808320045471 87.7318799495697,81.92166686058044 87.7318799495697,81.92166686058044 87.65890002250671,82.18143582344055 87.65890002250671,82.18143582344055 87.63609528541565,82.24766254425049 87.63609528541565,82.24766254425049 87.61136531829834,82.31322765350342 87.61136531829834,82.31322765350342 87.5853180885315,82.37820267677307 87.5853180885315,82.37820267677307 87.55851984024048,82.44273066520691 87.55851984024048,82.44273066520691 87.53157258033752,82.50690698623657 87.53157258033752,82.50690698623657 87.50504851341248,82.57101774215698 87.50504851341248,82.57101774215698 87.47955560684204,82.63498544692993 87.47955560684204,82.63498544692993 87.45564222335815,82.69902467727661 87.45564222335815,82.69902467727661 86.97161674499512,83.71994495391846 86.97161674499512,83.71994495391846 86.34887337684631,84.65068340301514 86.34887337684631,84.65068340301514 85.60062050819397,85.4770839214325 85.60062050819397,85.4770839214325 84.7400963306427,86.18499040603638 84.7400963306427,86.18499040603638 83.78047347068787,86.76023483276367 83.78047347068787,86.76023483276367 82.73500204086304,87.18865513801575 82.73500204086304,87.18865513801575 81.61686658859253,87.45609521865845 81.61686658859253,87.45609521865845 80.43928742408752,87.54838705062866 80.43928742408752,87.54838705062866 79.25728559494019,87.4562680721283 79.25728559494019,87.4562680721283 78.13379764556885,87.18928098678589 78.13379764556885,87.18928098678589 77.08268761634827,86.76141500473022 77.08268761634827,86.76141500473022 76.11778974533081,86.18665337562561 76.11778974533081,86.18665337562561 75.25296807289124,85.47902703285217 75.25296807289124,85.47902703285217 74.50205683708191,84.65255498886108 74.50205683708191,84.65255498886108 73.87891411781311,83.72122645378113 73.87891411781311,83.72122645378113 73.39738607406616,82.69902467727661 73.39738607406616,82.69902467727661 73.28159213066101,82.38226771354675 73.28159213066101,82.38226771354675 73.18018674850464,82.05935955047607 73.18018674850464,82.05935955047607 73.09348583221436,81.73059225082397 73.09348583221436,81.73059225082397 73.02182912826538,81.39616250991821 73.02182912826538,81.39616250991821 72.96552658081055,81.05632066726685 72.96552658081055,81.05632066726685 72.92490005493164,80.71126937866211 72.92490005493164,80.71126937866211 72.90028929710388,80.36136627197266 72.90028929710388,80.36136627197266 72.89201021194458,80.00666499137878 72.89201021194458,80.00666499137878 73.04447293281555,78.49169373512268 73.04447293281555,78.49169373512268 73.48171472549438,77.08057165145874 73.48171472549438,77.08057165145874 74.17352795600891,75.8032500743866 74.17352795600891,75.8032500743866 75.08969306945801,74.68969821929932 75.08969306945801,74.68969821929932 76.20002031326294,73.76978397369385 76.20002031326294,73.76978397369385 77.47426629066467,73.07354211807251 77.47426629066467,73.07354211807251 78.88224720954895,72.63085842132568 78.88224720954895,72.63085842132568 80.39374947547913,72.4716067314148 80.39374947547913,72.4716067314148 80.39870858192444,72.47154116630554 80.39870858192444,72.47154116630554 80.40429949760437,72.4712610244751 80.40429949760437,72.4712610244751 80.41030168533325,72.4709153175354 80.41030168533325,72.4709153175354 80.41651844978333,72.47049808502197 80.41651844978333,72.47049808502197 80.42272925376892,72.47008085250854 80.42272925376892,72.47008085250854 80.42873740196228,72.46973514556885 80.42873740196228,72.46973514556885 80.43432235717773,72.46949076652527 80.43432235717773,72.46949076652527" stroke="white" stroke-width="0.1" /><polygon points="15.376114845275879,80.52314519882202 15.376114845275879,80.52314519882202 16.053056716918945,80.56226372718811 16.053056716918945,80.56226372718811 16.707248985767365,80.67663311958313 16.707248985767365,80.67663311958313 17.33429580926895,80.86191415786743 17.33429580926895,80.86191415786743 17.92977601289749,81.11376762390137 17.92977601289749,81.11376762390137 18.489278852939606,81.42774701118469 18.489278852939606,81.42774701118469 19.008396565914154,81.79956078529358 19.008396565914154,81.79956078529358 19.482704997062683,82.2247862815857 19.482704997062683,82.2247862815857 19.907811284065247,82.69902467727661 19.907811284065247,82.69902467727661 20.191285014152527,83.08485746383667 20.191285014152527,83.08485746383667 20.44319063425064,83.49325060844421 20.44319063425064,83.49325060844421 20.66158503293991,83.92250537872314 20.66158503293991,83.92250537872314 20.844556391239166,84.37106013298035 20.844556391239166,84.37106013298035 20.990198850631714,84.83724594116211 20.990198850631714,84.83724594116211 21.096600592136383,85.31947135925293 21.096600592136383,85.31947135925293 21.161837875843048,85.81609725952148 21.161837875843048,85.81609725952148 21.18401676416397,86.3254964351654 21.18401676416397,86.3254964351654 21.17391675710678,86.66720986366272 21.17391675710678,86.66720986366272 21.1440309882164,87.0038628578186 21.1440309882164,87.0038628578186 21.09498679637909,87.33485341072083 21.09498679637909,87.33485341072083 21.02740705013275,87.65959739685059 21.02740705013275,87.65959739685059 20.941917598247528,87.97750473022461 20.941917598247528,87.97750473022461 20.839141309261322,88.28808665275574 20.839141309261322,88.28808665275574 20.719705522060394,88.59061598777771 20.719705522060394,88.59061598777771 20.584233105182648,88.8845682144165 20.584233105182648,88.8845682144165 20.497338473796844,89.05027508735657 20.497338473796844,89.05027508735657 20.406433939933777,89.21306133270264 20.406433939933777,89.21306133270264 20.311224460601807,89.3727958202362 20.311224460601807,89.3727958202362 20.21145224571228,89.52919840812683 20.21145224571228,89.52919840812683 20.106837153434753,89.68198895454407 20.106837153434753,89.68198895454407 19.99710202217102,89.83092904090881 19.99710202217102,89.83092904090881 19.88198757171631,89.97581005096436 19.88198757171631,89.97581005096436 19.76119726896286,90.11634588241577 19.76119726896286,90.11634588241577 19.599832594394684,90.29707908630371 19.599832594394684,90.29707908630371 19.430796802043915,90.4708743095398 19.430796802043915,90.4708743095398 19.25431489944458,90.63751697540283 19.25431489944458,90.63751697540283 19.070613384246826,90.79665541648865 19.070613384246826,90.79665541648865 18.879936635494232,90.94812870025635 18.879936635494232,90.94812870025635 18.68252456188202,91.09162092208862 18.68252456188202,91.09162092208862 18.478605151176453,91.22688174247742 18.478605151176453,91.22688174247742 18.26840341091156,91.3536787033081 18.26840341091156,91.3536787033081 17.94213205575943,91.52784943580627 17.94213205575943,91.52784943580627 17.604371905326843,91.68158173561096 17.604371905326843,91.68158173561096 17.255835235118866,91.81403517723083 17.255835235118866,91.81403517723083 16.897231340408325,91.92430377006531 16.897231340408325,91.92430377006531 16.529257595539093,92.01160073280334 16.529257595539093,92.01160073280334 16.152605414390564,92.07494854927063 16.152605414390564,92.07494854927063 15.767987072467804,92.11364984512329 15.767987072467804,92.11364984512329 15.376114845275879,92.12673306465149 15.376114845275879,92.12673306465149 14.968830347061157,92.11243391036987 14.968830347061157,92.11243391036987 14.569686353206635,92.07022786140442 14.569686353206635,92.07022786140442 14.17941153049469,92.00115203857422 14.17941153049469,92.00115203857422 13.798767328262329,91.90625548362732 13.798767328262329,91.90625548362732 13.42848390340805,91.78658127784729 13.42848390340805,91.78658127784729 13.069291412830353,91.64316058158875 13.069291412830353,91.64316058158875 12.721951305866241,91.47707223892212 12.721951305866241,91.47707223892212 12.387193739414215,91.28925800323486 12.387193739414215,91.28925800323486 12.16418370604515,91.14694595336914 12.16418370604515,91.14694595336914 11.947821080684662,90.99516272544861 11.947821080684662,90.99516272544861 11.73860877752304,90.83417654037476 11.73860877752304,90.83417654037476 11.537083983421326,90.66420793533325 11.537083983421326,90.66420793533325 11.343716084957123,90.4856264591217 11.343716084957123,90.4856264591217 11.15904375910759,90.29871225357056 11.15904375910759,90.29871225357056 10.983551293611526,90.10364413261414 10.983551293611526,90.10364413261414 10.817760229110718,89.90086913108826 10.817760229110718,89.90086913108826 10.697109252214432,89.74332213401794 10.697109252214432,89.74332213401794 10.582584887742996,89.58223462104797 10.582584887742996,89.58223462104797 10.4741171002388,89.41760659217834 10.4741171002388,89.41760659217834 10.371671617031097,89.24943804740906 10.371671617031097,89.24943804740906 10.275213420391083,89.07772898674011 10.275213420391083,89.07772898674011 10.18470749258995,88.90247941017151 10.18470749258995,88.90247941017151 10.100103169679642,88.72368931770325 10.100103169679642,88.72368931770325 10.021381080150604,88.54135870933533 10.021381080150604,88.54135870933533 9.920965880155563,88.28190565109253 9.920965880155563,88.28190565109253 9.83247384428978,88.01689743995667 9.83247384428978,88.01689743995667 9.756337851285934,87.74664998054504 9.756337851285934,87.74664998054504 9.693027287721634,87.47133016586304 9.693027287721634,87.47133016586304 9.642993658781052,87.1912956237793 9.642993658781052,87.1912956237793 9.606686979532242,86.90681457519531 9.606686979532242,86.90681457519531 9.584559500217438,86.61813139915466 9.584559500217438,86.61813139915466 9.577096998691559,86.3254964351654 9.577096998691559,86.3254964351654 9.694971144199371,85.15695929527283 9.694971144199371,85.15695929527283 10.03292202949524,84.06842947006226 10.03292202949524,84.06842947006226 10.567503422498703,83.08326005935669 10.567503422498703,83.08326005935669 11.275234073400497,82.22475051879883 11.275234073400497,82.22475051879883 12.132667750120163,81.51615262031555 12.132667750120163,81.51615262031555 13.116288185119629,80.9808611869812 13.116288185119629,80.9808611869812 14.202666282653809,80.64209818840027 14.202666282653809,80.64209818840027 15.36833941936493,80.52314519882202 15.36833941936493,80.52314519882202" stroke="white" stroke-width="0.1" /><polygon points="54.7407865524292,84.34287905693054 54.7407865524292,84.34287905693054 54.81225848197937,84.55134630203247 54.81225848197937,84.55134630203247 54.87573742866516,84.76334810256958 54.87573742866516,84.76334810256958 54.93110418319702,84.97883081436157 54.93110418319702,84.97883081436157 54.978203773498535,85.1975679397583 54.978203773498535,85.1975679397583 55.01686930656433,85.41943430900574 55.01686930656433,85.41943430900574 55.04692792892456,85.64428091049194 55.04692792892456,85.64428091049194 55.06824254989624,85.87197661399841 55.06824254989624,85.87197661399841 55.08066415786743,86.1022412776947 55.08066415786743,86.1022412776947 55.081743001937866,86.13045811653137 55.081743001937866,86.13045811653137 55.083167552948,86.15854382514954 55.083167552948,86.15854382514954 55.084794759750366,86.1864447593689 55.084794759750366,86.1864447593689 55.08649945259094,86.21428608894348 55.08649945259094,86.21428608894348 55.08809685707092,86.24204993247986 55.08809685707092,86.24204993247986 55.08941411972046,86.26981973648071 55.08941411972046,86.26981973648071 55.09031414985657,86.29765510559082 55.09031414985657,86.29765510559082 55.090659856796265,86.3254964351654 55.090659856796265,86.3254964351654 55.08061647415161,86.66720986366272 55.08061647415161,86.66720986366272 55.050867795944214,87.0038628578186 55.050867795944214,87.0038628578186 55.00204563140869,87.33485341072083 55.00204563140869,87.33485341072083 54.9347460269928,87.65959739685059 54.9347460269928,87.65959739685059 54.8495888710022,87.97750473022461 54.8495888710022,87.97750473022461 54.747194051742554,88.28808665275574 54.747194051742554,88.28808665275574 54.62815761566162,88.59061598777771 54.62815761566162,88.59061598777771 54.49309945106506,88.8845682144165 54.49309945106506,88.8845682144165 54.40840721130371,89.05027508735657 54.40840721130371,89.05027508735657 54.3185830116272,89.21306133270264 54.3185830116272,89.21306133270264 54.22375202178955,89.3727958202362 54.22375202178955,89.3727958202362 54.12406921386719,89.52919840812683 54.12406921386719,89.52919840812683 54.019695520401,89.68198895454407 54.019695520401,89.68198895454407 53.91080975532532,89.83092904090881 53.91080975532532,89.83092904090881 53.7975549697876,89.97581005096436 53.7975549697876,89.97581005096436 53.68006229400635,90.11634588241577 53.68006229400635,90.11634588241577 53.51511836051941,90.29707908630371 53.51511836051941,90.29707908630371 53.34357023239136,90.4708743095398 53.34357023239136,90.4708743095398 53.16541790962219,90.63751697540283 53.16541790962219,90.63751697540283 52.98072695732117,90.79665541648865 52.98072695732117,90.79665541648865 52.78953313827515,90.94812870025635 52.78953313827515,90.94812870025635 52.59186029434204,91.09162092208862 52.59186029434204,91.09162092208862 52.38775014877319,91.22688174247742 52.38775014877319,91.22688174247742 52.177268266677856,91.3536787033081 52.177268266677856,91.3536787033081 51.854610443115234,91.52784943580627 51.854610443115234,91.52784943580627 51.51945352554321,91.68158173561096 51.51945352554321,91.68158173561096 51.17263197898865,91.81403517723083 51.17263197898865,91.81403517723083 50.81498622894287,91.92430377006531 50.81498622894287,91.92430377006531 50.447338819503784,92.01160073280334 50.447338819503784,92.01160073280334 50.07053017616272,92.07494854927063 50.07053017616272,92.07494854927063 49.685391783714294,92.11364984512329 49.685391783714294,92.11364984512329 49.292755126953125,92.12673306465149 49.292755126953125,92.12673306465149 48.90015423297882,92.11364984512329 48.90015423297882,92.11364984512329 48.51499795913696,92.07497835159302 48.51499795913696,92.07497835159302 48.13799858093262,92.01156497001648 48.13799858093262,92.01156497001648 47.769832611083984,91.92430377006531 47.769832611083984,91.92430377006531 47.4111944437027,91.81403517723083 47.4111944437027,91.81403517723083 47.06278145313263,91.6815459728241 47.06278145313263,91.6815459728241 46.725279092788696,91.52788519859314 46.725279092788696,91.52788519859314 46.39935493469238,91.3536787033081 46.39935493469238,91.3536787033081 46.25328183174133,91.2665605545044 46.25328183174133,91.2665605545044 46.11003398895264,91.17520451545715 46.11003398895264,91.17520451545715 45.96971869468689,91.07978343963623 45.96971869468689,91.07978343963623 45.83247900009155,90.98048210144043 45.83247900009155,90.98048210144043 45.69841027259827,90.87742567062378 45.69841027259827,90.87742567062378 45.567625761032104,90.77076315879822 45.567625761032104,90.77076315879822 45.44025957584381,90.66069722175598 45.44025957584381,90.66069722175598 45.316413044929504,90.54730534553528 45.316413044929504,90.54730534553528 45.26386260986328,90.49537777900696 45.26386260986328,90.49537777900696 45.211297273635864,90.44296741485596 45.211297273635864,90.44296741485596 45.15891969203949,90.38993120193481 45.15891969203949,90.38993120193481 45.106905698776245,90.33640623092651 45.106905698776245,90.33640623092651 45.05546689033508,90.2823269367218 45.05546689033508,90.2823269367218 45.00480890274048,90.2275562286377 45.00480890274048,90.2275562286377 44.95510458946228,90.17226696014404 44.95510458946228,90.17226696014404 44.9065625667572,90.11634588241577 44.9065625667572,90.11634588241577 44.807952642440796,90.00097513198853 44.807952642440796,90.00097513198853 44.712793827056885,89.88316655158997 44.712793827056885,89.88316655158997 44.62105631828308,89.76290225982666 44.62105631828308,89.76290225982666 44.532668590545654,89.64027166366577 44.532668590545654,89.64027166366577 44.44756209850311,89.51531648635864 44.44756209850311,89.51531648635864 44.36566233634949,89.38800096511841 44.36566233634949,89.38800096511841 44.286924600601196,89.25846219062805 44.286924600601196,89.25846219062805 44.21125650405884,89.12670612335205 44.21125650405884,89.12670612335205 44.19393837451935,89.09636735916138 44.19393837451935,89.09636735916138 44.17760670185089,89.0662431716919 44.17760670185089,89.0662431716919 44.16203796863556,89.03611302375793 44.16203796863556,89.03611302375793 44.14697587490082,89.0060544013977 44.14697587490082,89.0060544013977 44.13217306137085,88.97589445114136 44.13217306137085,88.97589445114136 44.117385149002075,88.9456570148468 44.117385149002075,88.9456570148468 44.10237371921539,88.91525268554688 44.10237371921539,88.91525268554688 44.08685863018036,88.8845682144165 44.08685863018036,88.8845682144165 44.02115345001221,88.7431263923645 44.02115345001221,88.7431263923645 43.95829439163208,88.59960436820984 43.95829439163208,88.59960436820984 43.898558616638184,88.45410346984863 43.898558616638184,88.45410346984863 43.84222328662872,88.306725025177 43.84222328662872,88.306725025177 43.789517879486084,88.15757632255554 43.789517879486084,88.15757632255554 43.740734457969666,88.00676465034485 43.740734457969666,88.00676465034485 43.696096539497375,87.85438537597656 43.696096539497375,87.85438537597656 43.65590214729309,87.70055174827576 43.65590214729309,87.70055174827576 43.618208169937134,87.53394484519958 43.618208169937134,87.53394484519958 43.58448684215546,87.36574649810791 43.58448684215546,87.36574649810791 43.5550719499588,87.19594478607178 43.5550719499588,87.19594478607178 43.53025257587433,87.02468872070312 43.53025257587433,87.02468872070312 43.510398268699646,86.85190081596375 43.510398268699646,86.85190081596375 43.49580407142639,86.67779564857483 43.49580407142639,86.67779564857483 43.48681569099426,86.50230765342712 43.48681569099426,86.50230765342712 43.48374307155609,86.3254964351654 43.48374307155609,86.3254964351654 43.50595772266388,85.81609725952148 43.50595772266388,85.81609725952148 43.571314215660095,85.31947135925293 43.571314215660095,85.31947135925293 43.677857518196106,84.83728170394897 43.677857518196106,84.83728170394897 43.823620676994324,84.37106013298035 43.823620676994324,84.37106013298035 44.00666058063507,83.92250537872314 44.00666058063507,83.92250537872314 44.22503709793091,83.49322080612183 44.22503709793091,83.49322080612183 44.47678625583649,83.08485746383667 44.47678625583649,83.08485746383667 44.759947061538696,82.69902467727661 44.759947061538696,82.69902467727661 45.184969902038574,82.22475051879883 45.184969902038574,82.22475051879883 45.65906822681427,81.79956078529358 45.65906822681427,81.79956078529358 46.17794454097748,81.42778277397156 46.17794454097748,81.42778277397156 46.73728942871094,81.11376762390137 46.73728942871094,81.11376762390137 47.33276963233948,80.86191415786743 47.33276963233948,80.86191415786743 47.96004295349121,80.67663311958313 47.96004295349121,80.67663311958313 48.614805936813354,80.56222796440125 48.614805936813354,80.56222796440125 49.292755126953125,80.52314519882202 49.292755126953125,80.52314519882202 49.97032284736633,80.56226372718811 49.97032284736633,80.56226372718811 50.62407851219177,80.67663311958313 50.62407851219177,80.67663311958313 51.24993324279785,80.86191415786743 51.24993324279785,80.86191415786743 51.843780279159546,81.11376762390137 51.843780279159546,81.11376762390137 52.4014949798584,81.42774701118469 52.4014949798584,81.42774701118469 52.918946743011475,81.79956078529358 52.918946743011475,81.79956078529358 53.392040729522705,82.2247862815857 53.392040729522705,82.2247862815857 53.81667613983154,82.69902467727661 53.81667613983154,82.69902467727661 53.84524464607239,82.73380398750305 53.84524464607239,82.73380398750305 53.873395919799805,82.76892900466919 53.873395919799805,82.76892900466919 53.9010226726532,82.80436992645264 53.9010226726532,82.80436992645264 53.92802953720093,82.84008502960205 53.92802953720093,82.84008502960205 53.95430326461792,82.87600874900818 53.95430326461792,82.87600874900818 53.97974252700806,82.91207551956177 53.97974252700806,82.91207551956177 54.0042519569397,82.94824361801147 54.0042519569397,82.94824361801147 54.02771234512329,82.98447728157043 54.02771234512329,82.98447728157043 54.135626554489136,83.14247727394104 54.135626554489136,83.14247727394104 54.238468408584595,83.3040177822113 54.238468408584595,83.3040177822113 54.33610677719116,83.4690272808075 54.33610677719116,83.4690272808075 54.42839860916138,83.63744020462036 54.42839860916138,83.63744020462036 54.51517701148987,83.80907773971558 54.51517701148987,83.80907773971558 54.59625720977783,83.98394584655762 54.59625720977783,83.98394584655762 54.67150807380676,84.16193723678589 54.67150807380676,84.16193723678589" stroke="white" stroke-width="0.1" /><polygon points="63.1977379322052,81.00519180297852 63.1977379322052,81.00519180297852 63.352400064468384,81.08377456665039 63.352400064468384,81.08377456665039 63.54230046272278,81.18908405303955 63.54230046272278,81.18908405303955 63.75232934951782,81.32688403129578 63.75232934951782,81.32688403129578 63.96745443344116,81.50265216827393 63.96745443344116,81.50265216827393 64.17258977890015,81.72212243080139 64.17258977890015,81.72212243080139 64.35263156890869,81.99095129966736 64.35263156890869,81.99095129966736 64.49254751205444,82.31468796730042 64.49254751205444,82.31468796730042 64.5772397518158,82.69902467727661 64.5772397518158,82.69902467727661 64.59396481513977,82.86722898483276 64.59396481513977,82.86722898483276 64.59872126579285,83.04556608200073 64.59872126579285,83.04556608200073 64.59070444107056,83.2345962524414 64.59070444107056,83.2345962524414 64.56918716430664,83.43473076820374 64.56918716430664,83.43473076820374 64.5334005355835,83.64649415016174 64.5334005355835,83.64649415016174 64.482581615448,83.87033939361572 64.482581615448,83.87033939361572 64.41599130630493,84.10671353340149 64.41599130630493,84.10671353340149 64.33287858963013,84.35620665550232 64.33287858963013,84.35620665550232 64.21974301338196,84.66949462890625 64.21974301338196,84.66949462890625 64.11153674125671,84.97761487960815 64.11153674125671,84.97761487960815 64.00761604309082,85.27982831001282 64.00761604309082,85.27982831001282 63.907408714294434,85.57548522949219 63.907408714294434,85.57548522949219 63.81028890609741,85.86395978927612 63.81028890609741,85.86395978927612 63.71567249298096,86.14459037780762 63.71567249298096,86.14459037780762 63.622963428497314,86.41674518585205 63.622963428497314,86.41674518585205 63.531506061553955,86.67981028556824 63.531506061553955,86.67981028556824 63.36016058921814,87.14797496795654 63.36016058921814,87.14797496795654 63.187527656555176,87.57302761077881 63.187527656555176,87.57302761077881 63.0096971988678,87.9490077495575 63.0096971988678,87.9490077495575 62.82272934913635,88.26993107795715 62.82272934913635,88.26993107795715 62.62270212173462,88.52990865707397 62.62270212173462,88.52990865707397 62.40565776824951,88.72296214103699 62.40565776824951,88.72296214103699 62.16769218444824,88.8431966304779 62.16769218444824,88.8431966304779 61.904871463775635,88.8845682144165 61.904871463775635,88.8845682144165 57.10993409156799,88.8845682144165 57.10993409156799,88.8845682144165 57.20660090446472,88.57377767562866 57.20660090446472,88.57377767562866 57.29075074195862,88.260418176651 57.29075074195862,88.260418176651 57.36228823661804,87.94442415237427 57.36228823661804,87.94442415237427 57.42107033729553,87.62586116790771 57.42107033729553,87.62586116790771 57.46698975563049,87.30465769767761 57.46698975563049,87.30465769767761 57.499951124191284,86.98088526725769 57.499951124191284,86.98088526725769 57.51980543136597,86.65447235107422 57.51980543136597,86.65447235107422 57.52645134925842,86.3254964351654 57.52645134925842,86.3254964351654 57.52624273300171,86.28689646720886 57.52624273300171,86.28689646720886 57.525670528411865,86.24857664108276 57.525670528411865,86.24857664108276 57.52474665641785,86.21053695678711 57.52474665641785,86.21053695678711 57.523536682128906,86.17263436317444 57.523536682128906,86.17263436317444 57.52205848693848,86.13490462303162 57.52205848693848,86.13490462303162 57.52035975456238,86.09727621078491 57.52035975456238,86.09727621078491 57.51848220825195,86.05979084968567 57.51848220825195,86.05979084968567 57.51645565032959,86.02226972579956 57.51645565032959,86.02226972579956 57.49805569648743,85.69579124450684 57.49805569648743,85.69579124450684 57.467079162597656,85.37278175354004 57.467079162597656,85.37278175354004 57.42369294166565,85.05338430404663 57.42369294166565,85.05338430404663 57.36803412437439,84.73759293556213 57.36803412437439,84.73759293556213 57.30024576187134,84.42552089691162 57.30024576187134,84.42552089691162 57.22046494483948,84.117192029953 57.22046494483948,84.117192029953 57.12883472442627,83.81268978118896 57.12883472442627,83.81268978118896 57.025521993637085,83.5120677947998 57.025521993637085,83.5120677947998 56.927430629730225,83.25604796409607 56.927430629730225,83.25604796409607 56.82149529457092,83.00374150276184 56.82149529457092,83.00374150276184 56.707751750946045,82.75532722473145 56.707751750946045,82.75532722473145 56.586235761642456,82.5110375881195 56.586235761642456,82.5110375881195 56.45700693130493,82.27102160453796 56.45700693130493,82.27102160453796 56.32014870643616,82.03537464141846 56.32014870643616,82.03537464141846 56.17568492889404,81.8044900894165 56.17568492889404,81.8044900894165 56.02365732192993,81.57832026481628 56.02365732192993,81.57832026481628 55.98563551902771,81.5250039100647 55.98563551902771,81.5250039100647 55.947279930114746,81.47238492965698 55.947279930114746,81.47238492965698 55.90848922729492,81.42039179801941 55.90848922729492,81.42039179801941 55.86913228034973,81.36895298957825 55.86913228034973,81.36895298957825 55.8290958404541,81.31789565086365 55.8290958404541,81.31789565086365 55.78827261924744,81.26718401908875 55.78827261924744,81.26718401908875 55.74653744697571,81.21668100357056 55.74653744697571,81.21668100357056 55.70377707481384,81.1662495136261 55.70377707481384,81.1662495136261 55.082350969314575,80.47330379486084 55.082350969314575,80.47330379486084 54.394978284835815,79.86140251159668 54.394978284835815,79.86140251159668 53.648924827575684,79.33399081230164 53.648924827575684,79.33399081230164 52.851468324661255,78.89456748962402 52.851468324661255,78.89456748962402 52.009862661361694,78.5466730594635 52.009862661361694,78.5466730594635 51.13136172294617,78.29381227493286 51.13136172294617,78.29381227493286 50.22323727607727,78.1395971775055 50.22323727607727,78.1395971775055 49.292755126953125,78.08735966682434 49.292755126953125,78.08735966682434 48.35972487926483,78.1395971775055 48.35972487926483,78.1395971775055 47.44965434074402,78.29402089118958 47.44965434074402,78.29402089118958 46.56953811645508,78.54726314544678 46.56953811645508,78.54726314544678 45.72640359401703,78.89595627784729 45.72640359401703,78.89595627784729 44.927266240119934,79.33669686317444 44.927266240119934,79.33669686317444 44.17913258075714,79.8660933971405 44.17913258075714,79.8660933971405 43.489035964012146,80.48080205917358 43.489035964012146,80.48080205917358 42.86396503448486,81.17735385894775 42.86396503448486,81.17735385894775 42.45045185089111,81.74045085906982 42.45045185089111,81.74045085906982 42.0872688293457,82.33429789543152 42.0872688293457,82.33429789543152 41.775888204574585,82.95494318008423 41.775888204574585,82.95494318008423 41.51778519153595,83.59856009483337 41.51778519153595,83.59856009483337 41.31445586681366,84.26131010055542 41.31445586681366,84.26131010055542 41.1673903465271,84.93925929069519 41.1673903465271,84.93925929069519 41.0780668258667,85.62862873077393 41.0780668258667,85.62862873077393 41.04795455932617,86.3254964351654 41.04795455932617,86.3254964351654 41.0518079996109,86.56575679779053 41.0518079996109,86.56575679779053 41.06333255767822,86.80726289749146 41.06333255767822,86.80726289749146 41.0825252532959,87.04988360404968 41.0825252532959,87.04988360404968 41.109323501586914,87.29333877563477 41.109323501586914,87.29333877563477 41.14371836185455,87.5373125076294 41.14371836185455,87.5373125076294 41.18571877479553,87.78166770935059 41.18571877479553,87.78166770935059 41.23525023460388,88.02609443664551 41.23525023460388,88.02609443664551 41.2923127412796,88.27034831047058 41.2923127412796,88.27034831047058 41.31053388118744,88.34906816482544 41.31053388118744,88.34906816482544 41.33082330226898,88.4270966053009 41.33082330226898,88.4270966053009 41.35284423828125,88.50439786911011 41.35284423828125,88.50439786911011 41.37631058692932,88.58121037483215 41.37631058692932,88.58121037483215 41.40084981918335,88.65749835968018 41.40084981918335,88.65749835968018 41.426169872283936,88.73344659805298 41.426169872283936,88.73344659805298 41.45192503929138,88.80911469459534 41.45192503929138,88.80911469459534 41.47779941558838,88.8845682144165 41.47779941558838,88.8845682144165 41.184571385383606,88.8845682144165 41.184571385383606,88.8845682144165 23.20328801870346,88.8845682144165 23.20328801870346,88.8845682144165 23.297403752803802,88.57377767562866 23.297403752803802,88.57377767562866 23.380360007286072,88.260418176651 23.380360007286072,88.260418176651 23.45173954963684,87.94442415237427 23.45173954963684,87.94442415237427 23.511093854904175,87.62586116790771 23.511093854904175,87.62586116790771 23.55802059173584,87.30465769767761 23.55802059173584,87.30465769767761 23.59205335378647,86.98088526725769 23.59205335378647,86.98088526725769 23.612792789936066,86.65447235107422 23.612792789936066,86.65447235107422 23.61980378627777,86.3254964351654 23.61980378627777,86.3254964351654 23.58974516391754,85.6283187866211 23.58974516391754,85.6283187866211 23.50054234266281,84.9388062953949 23.50054234266281,84.9388062953949 23.3536496758461,84.26082134246826 23.3536496758461,84.26082134246826 23.150528967380524,83.59814882278442 23.150528967380524,83.59814882278442 22.89263606071472,82.95462727546692 22.89263606071472,82.95462727546692 22.58142977952957,82.33412504196167 22.58142977952957,82.33412504196167 22.218365967273712,81.74041509628296 22.218365967273712,81.74041509628296 21.80490344762802,81.17735385894775 21.80490344762802,81.17735385894775 21.179470419883728,80.48076629638672 21.179470419883728,80.48076629638672 20.48911154270172,79.8660933971405 20.48911154270172,79.8660933971405 19.740822911262512,79.33669686317444 19.740822911262512,79.33669686317444 18.94163191318512,78.89595627784729 18.94163191318512,78.89595627784729 18.098551034927368,78.54726314544678 18.098551034927368,78.54726314544678 17.218591272830963,78.29402089118958 17.218591272830963,78.29402089118958 16.308781504631042,78.1395971775055 16.308781504631042,78.1395971775055 15.376114845275879,78.08735966682434 15.376114845275879,78.08735966682434 15.365007519721985,78.08735966682434 15.365007519721985,78.08735966682434 13.710552453994751,78.2569169998169 13.710552453994751,78.2569169998169 12.168245017528534,78.7391722202301 12.168245017528534,78.7391722202301 10.771510004997253,79.50063347816467 10.771510004997253,79.50063347816467 9.553772211074829,80.50787448883057 9.553772211074829,80.50787448883057 8.54845866560936,81.72739744186401 8.54845866560936,81.72739744186401 7.788992673158646,83.12581777572632 7.788992673158646,83.12581777572632 7.308802008628845,84.66970324516296 7.308802008628845,84.66970324516296 7.141309976577759,86.3254964351654 7.141309976577759,86.3254964351654 7.1445032954216,86.54444217681885 7.1445032954216,86.54444217681885 7.15392678976059,86.76231503486633 7.15392678976059,86.76231503486633 7.1693554520606995,86.97921633720398 7.1693554520606995,86.97921633720398 7.190597802400589,87.19518184661865 7.190597802400589,87.19518184661865 7.2173938155174255,87.41031289100647 7.2173938155174255,87.41031289100647 7.249552011489868,87.62471079826355 7.249552011489868,87.62471079826355 7.286830246448517,87.83842325210571 7.286830246448517,87.83842325210571 7.329019904136658,88.05153965950012 7.329019904136658,88.05153965950012 6.2889620661735535,87.79972195625305 6.2889620661735535,87.79972195625305 5.261259898543358,87.5041663646698 5.261259898543358,87.5041663646698 4.269534721970558,87.16116547584534 4.269534721970558,87.16116547584534 3.3374059945344925,86.76714301109314 3.3374059945344925,86.76714301109314 2.488476410508156,86.31841540336609 2.488476410508156,86.31841540336609 1.7463484779000282,85.81123352050781 1.7463484779000282,85.81123352050781 1.1346423998475075,85.24209856987 1.1346423998475075,85.24209856987 0.6769777741283178,84.6072256565094 0.6769777741283178,84.6072256565094 0.12889442732557654,83.10721516609192 0.12889442732557654,83.10721516609192 0.004512259693001397,81.49157762527466 0.004512259693001397,81.49157762527466 0.21073988173156977,79.84078526496887 0.21073988173156977,79.84078526496887 0.6544858682900667,78.23535799980164 0.6544858682900667,78.23535799980164 1.2426589615643024,76.75585746765137 1.2426589615643024,76.75585746765137 1.8821675330400467,75.48274397850037 1.8821675330400467,75.48274397850037 2.4799205362796783,74.49650168418884 2.4799205362796783,74.49650168418884 2.9428262263536453,73.87776970863342 2.9428262263536453,73.87776970863342 3.3072780817747116,73.48988652229309 3.3072780817747116,73.48988652229309 3.671729564666748,73.1344223022461 3.671729564666748,73.1344223022461 4.036181420087814,72.79669642448425 4.036181420087814,72.79669642448425 4.400633275508881,72.4618911743164 4.400633275508881,72.4618911743164 4.765084758400917,72.11534976959229 4.765084758400917,72.11534976959229 5.129536613821983,71.74229025840759 5.129536613821983,71.74229025840759 5.49398846924305,71.32802605628967 5.49398846924305,71.32802605628967 5.858439952135086,70.85774540901184 5.858439952135086,70.85774540901184 6.123171001672745,70.41766047477722 6.123171001672745,70.41766047477722 6.4548395574092865,69.7748064994812 6.4548395574092865,69.7748064994812 6.86880424618721,68.9705491065979 6.86880424618721,68.9705491065979 7.380390167236328,68.04625988006592 7.380390167236328,68.04625988006592 8.004956692457199,67.04335808753967 8.004956692457199,67.04335808753967 8.757861703634262,66.00325107574463 8.757861703634262,66.00325107574463 9.65443029999733,64.96730446815491 9.65443029999733,64.96730446815491 10.71002185344696,63.976895809173584 10.71002185344696,63.976895809173584 11.125323176383972,63.64430785179138 11.125323176383972,63.64430785179138 11.562907695770264,63.32428455352783 11.562907695770264,63.32428455352783 12.02360987663269,63.018739223480225 12.02360987663269,63.018739223480225 12.50826120376587,62.729573249816895 12.50826120376587,62.729573249816895 13.017694652080536,62.45872974395752 13.017694652080536,62.45872974395752 13.552744686603546,62.20816373825073 13.552744686603546,62.20816373825073 14.114244282245636,61.97977066040039 14.114244282245636,61.97977066040039 14.703023433685303,61.77546977996826 14.703023433685303,61.77546977996826 15.025129914283752,61.67672276496887 15.025129914283752,61.67672276496887 15.35579115152359,61.58553957939148 15.35579115152359,61.58553957939148 15.69492220878601,61.502236127853394 15.69492220878601,61.502236127853394 16.042400896549225,61.427122354507446 16.042400896549225,61.427122354507446 16.398176550865173,61.36051416397095 16.398176550865173,61.36051416397095 16.762124001979828,61.302655935287476 16.762124001979828,61.302655935287476 17.134177684783936,61.25395894050598 17.134177684783936,61.25395894050598 17.51423180103302,61.21456027030945 17.51423180103302,61.21456027030945 17.94789433479309,61.17589473724365 17.94789433479309,61.17589473724365 18.375934660434723,61.13743782043457 18.375934660434723,61.13743782043457 18.798455595970154,61.099255084991455 18.798455595970154,61.099255084991455 19.21556144952774,61.061424016952515 19.21556144952774,61.061424016952515 19.62735652923584,61.024075746536255 19.62735652923584,61.024075746536255 20.033946633338928,60.98731756210327 20.033946633338928,60.98731756210327 20.435433089733124,60.95118522644043 20.435433089733124,60.95118522644043 20.831921696662903,60.91578006744385 20.831921696662903,60.91578006744385 21.34394198656082,60.87374687194824 21.34394198656082,60.87374687194824 21.850408613681793,60.83504557609558 21.850408613681793,60.83504557609558 22.35206812620163,60.799640417099 22.35206812620163,60.799640417099 22.849595546722412,60.767364501953125 22.849595546722412,60.767364501953125 23.343724012374878,60.73813438415527 23.343724012374878,60.73813438415527 23.835143446922302,60.71196794509888 23.835143446922302,60.71196794509888 24.32456761598587,60.6886088848114 24.32456761598587,60.6886088848114 24.81270730495453,60.66809296607971 24.81270730495453,60.66809296607971 25.042173266410828,60.65865159034729 25.042173266410828,60.65865159034729 25.27158558368683,60.6489360332489 25.27158558368683,60.6489360332489 25.501033663749695,60.63942313194275 25.501033663749695,60.63942313194275 25.730571150779724,60.63060760498047 25.730571150779724,60.63060760498047 25.96026062965393,60.622936487197876 25.96026062965393,60.622936487197876 26.190179586410522,60.616862773895264 26.190179586410522,60.616862773895264 26.42037272453308,60.61286926269531 26.42037272453308,60.61286926269531 26.65093243122101,60.61144471168518 26.65093243122101,60.61144471168518 26.670923829078674,60.61144471168518 26.670923829078674,60.61144471168518 27.269232273101807,60.616374015808105 27.269232273101807,60.616374015808105 27.872660756111145,60.63123345375061 27.872660756111145,60.63123345375061 28.482040762901306,60.65625548362732 28.482040762901306,60.65625548362732 29.09824252128601,60.69155931472778 29.09824252128601,60.69155931472778 29.722079634666443,60.737305879592896 29.722079634666443,60.737305879592896 30.354437232017517,60.793739557266235 30.354437232017517,60.793739557266235 30.996134877204895,60.86093783378601 30.996134877204895,60.86093783378601 31.64801597595215,60.93910336494446 31.64801597595215,60.93910336494446 31.88980519771576,60.970449447631836 31.88980519771576,60.970449447631836 32.133638858795166,61.00366711616516 32.133638858795166,61.00366711616516 32.37948715686798,61.03869080543518 32.37948715686798,61.03869080543518 32.62731432914734,61.07558608055115 32.62731432914734,61.07558608055115 32.87710249423981,61.11428737640381 32.87710249423981,61.11428737640381 33.12880098819733,61.15482449531555 33.12880098819733,61.15482449531555 33.382388949394226,61.1971378326416 33.382388949394226,61.1971378326416 33.63785445690155,61.24122142791748 33.63785445690155,61.24122142791748 33.69109928607941,61.250871419906616 33.69109928607941,61.250871419906616 33.74462127685547,61.260586977005005 33.74462127685547,61.260586977005005 33.798351883888245,61.270374059677124 33.798351883888245,61.270374059677124 33.852219581604004,61.280232667922974 33.852219581604004,61.280232667922974 33.90619456768036,61.29012703895569 33.90619456768036,61.29012703895569 33.960238099098206,61.30012273788452 33.960238099098206,61.30012273788452 34.01427865028381,61.31008267402649 34.01427865028381,61.31008267402649 34.06825363636017,61.32007837295532 34.06825363636017,61.32007837295532 34.20089781284332,61.34448051452637 34.20089781284332,61.34448051452637 34.332603216171265,61.367976665496826 34.332603216171265,61.367976665496826 34.46389138698578,61.39102578163147 34.46389138698578,61.39102578163147 34.59528684616089,61.41407489776611 34.59528684616089,61.41407489776611 34.7273051738739,61.43760681152344 34.7273051738739,61.43760681152344 34.8604679107666,61.46204471588135 34.8604679107666,61.46204471588135 34.99531447887421,61.48790121078491 34.99531447887421,61.48790121078491 35.1323127746582,61.51556372642517 35.1323127746582,61.51556372642517 35.191598534584045,61.48120164871216 35.191598534584045,61.48120164871216 35.251906514167786,61.4465594291687 35.251906514167786,61.4465594291687 35.31311750411987,61.41167879104614 35.31311750411987,61.41167879104614 35.375142097473145,61.37672662734985 35.375142097473145,61.37672662734985 35.43782830238342,61.3417387008667 35.43782830238342,61.3417387008667 35.501086711883545,61.30688786506653 35.501086711883545,61.30688786506653 35.564762353897095,61.27225160598755 35.564762353897095,61.27225160598755 35.628801584243774,61.237889528274536 35.628801584243774,61.237889528274536 35.9662652015686,61.05996370315552 35.9662652015686,61.05996370315552 36.30468547344208,60.89363694190979 36.30468547344208,60.89363694190979 36.64020597934723,60.74261665344238 36.64020597934723,60.74261665344238 36.96901202201843,60.6106162071228 36.96901202201843,60.6106162071228 37.28722929954529,60.501450300216675 37.28722929954529,60.501450300216675 37.5910609960556,60.418808460235596 37.5910609960556,60.418808460235596 37.876635789871216,60.36646366119385 37.876635789871216,60.36646366119385 38.14011514186859,60.348206758499146 38.14011514186859,60.348206758499146 38.35673928260803,60.36931276321411 38.35673928260803,60.36931276321411 38.5620653629303,60.430264472961426 38.5620653629303,60.430264472961426 38.75534534454346,60.5274498462677 38.75534534454346,60.5274498462677 38.93580138683319,60.65726280212402 38.93580138683319,60.65726280212402 39.10268545150757,60.81612706184387 39.10268545150757,60.81612706184387 39.255183935165405,61.0004723072052 39.255183935165405,61.0004723072052 39.392563700675964,61.206650733947754 39.392563700675964,61.206650733947754 39.51406478881836,61.43115162849426 39.51406478881836,61.43115162849426 39.57779109477997,61.56811714172363 39.57779109477997,61.56811714172363 39.63494002819061,61.70945167541504 39.63494002819061,61.70945167541504 39.68554735183716,61.854469776153564 39.68554735183716,61.854469776153564 39.729681611061096,62.00247406959534 39.729681611061096,62.00247406959534 39.76741135120392,62.152695655822754 39.76741135120392,62.152695655822754 39.79880511760712,62.3044490814209 39.79880511760712,62.3044490814209 39.82391953468323,62.456995248794556 39.82391953468323,62.456995248794556 39.8428350687027,62.60961294174194 39.8428350687027,62.60961294174194 39.85118269920349,62.69902586936951 39.85118269920349,62.69902586936951 39.85772430896759,62.78809309005737 39.85772430896759,62.78809309005737 39.86223638057709,62.876635789871216 39.86223638057709,62.876635789871216 39.864495396614075,62.964487075805664 39.864495396614075,62.964487075805664 39.864251017570496,63.05150389671326 39.864251017570496,63.05150389671326 39.86126482486725,63.13754916191101 39.86126482486725,63.13754916191101 39.855313301086426,63.22245001792908 39.855313301086426,63.22245001792908 39.84616696834564,63.30602765083313 39.84616696834564,63.30602765083313 39.85496461391449,63.314151763916016 39.85496461391449,63.314151763916016 39.864495396614075,63.32189440727234 39.864495396614075,63.32189440727234 39.87443745136261,63.32928538322449 39.87443745136261,63.32928538322449 39.88448679447174,63.33629488945007 39.88448679447174,63.33629488945007 39.89432752132416,63.34299445152283 39.89432752132416,63.34299445152283 39.90364670753479,63.34941387176514 39.90364670753479,63.34941387176514 39.91211652755737,63.35563063621521 39.91211652755737,63.35563063621521 39.919474720954895,63.36156725883484 39.919474720954895,63.36156725883484 39.93325233459473,63.374269008636475 39.93325233459473,63.374269008636475 39.947137236595154,63.387250900268555 39.947137236595154,63.387250900268555 39.96105492115021,63.400477170944214 39.96105492115021,63.400477170944214 39.97500836849213,63.413769006729126 39.97500836849213,63.413769006729126 39.988961815834045,63.42706084251404 39.988961815834045,63.42706084251404 40.00288248062134,63.4402871131897 40.00288248062134,63.4402871131897 40.016746520996094,63.45326900482178 40.016746520996094,63.45326900482178 40.0305449962616,63.46597075462341 40.0305449962616,63.46597075462341 40.51106572151184,63.9115035533905 40.51106572151184,63.9115035533905 40.99880754947662,64.37987685203552 40.99880754947662,64.37987685203552 41.49258732795715,64.86716866493225 41.49258732795715,64.86716866493225 41.99122488498688,65.369313955307 41.99122488498688,65.369313955307 42.493510246276855,65.88231921195984 42.493510246276855,65.88231921195984 42.99822449684143,66.40227437019348 42.99822449684143,66.40227437019348 43.50418746471405,66.92506670951843 43.50418746471405,66.92506670951843 44.01021897792816,67.44675636291504 44.01021897792816,67.44675636291504 44.510072469711304,67.96261072158813 44.510072469711304,67.96261072158813 45.00734210014343,68.46944093704224 45.00734210014343,68.46944093704224 45.50063610076904,68.963223695755 45.50063610076904,68.963223695755 45.98853290081024,69.43978667259216 45.98853290081024,69.43978667259216 46.4696079492569,69.8950707912445 46.4696079492569,69.8950707912445 46.942442655563354,70.32495141029358 46.942442655563354,70.32495141029358 47.40562438964844,70.72532773017883 47.40562438964844,70.72532773017883 47.8577196598053,71.0921049118042 47.8577196598053,71.0921049118042 48.20418953895569,71.3513195514679 48.20418953895569,71.3513195514679 48.542001843452454,71.58609628677368 48.542001843452454,71.58609628677368 48.87077212333679,71.79449200630188 48.87077212333679,71.79449200630188 49.190154671669006,71.97442650794983 49.190154671669006,71.97442650794983 49.49980080127716,72.12388515472412 49.49980080127716,72.12388515472412 49.79936182498932,72.24093079566956 49.79936182498932,72.24093079566956 50.08849501609802,72.32343554496765 50.08849501609802,72.32343554496765 50.36681294441223,72.36942052841187 50.36681294441223,72.36942052841187 50.541192293167114,72.38788604736328 50.541192293167114,72.38788604736328 50.73122978210449,72.40996360778809 50.73122978210449,72.40996360778809 50.9357750415802,72.4356472492218 50.9357750415802,72.4356472492218 51.153749227523804,72.46480584144592 51.153749227523804,72.46480584144592 51.38401389122009,72.49746918678284 51.38401389122009,72.49746918678284 51.6254186630249,72.53360152244568 51.6254186630249,72.53360152244568 51.876890659332275,72.57313132286072 51.876890659332275,72.57313132286072 52.137285470962524,72.61599898338318 52.137285470962524,72.61599898338318 53.48478555679321,72.85230159759521 53.48478555679321,72.85230159759521 54.94897961616516,73.13532829284668 54.94897961616516,73.13532829284668 56.444722414016724,73.44837188720703 56.444722414016724,73.44837188720703 57.88687467575073,73.77488613128662 57.88687467575073,73.77488613128662 59.19032692909241,74.09824132919312 59.19032692909241,74.09824132919312 60.269975662231445,74.40174221992493 60.269975662231445,74.40174221992493 61.040663719177246,74.66890811920166 61.040663719177246,74.66890811920166 61.417269706726074,74.88296031951904 61.417269706726074,74.88296031951904 61.61375641822815,75.30364394187927 61.61375641822815,75.30364394187927 61.832600831985474,76.0507345199585 61.832600831985474,76.0507345199585 62.066322565078735,77.01021432876587 62.066322565078735,77.01021432876587 62.3075008392334,78.06819677352905 62.3075008392334,78.06819677352905 62.54867911338806,79.11063432693481 62.54867911338806,79.11063432693481 62.78240084648132,80.02360463142395 62.78240084648132,80.02360463142395 63.00124526023865,80.69308400154114 63.00124526023865,80.69308400154114" stroke="white" stroke-width="0.1" /></svg>