<?xml version="1.0" encoding="utf-8" ?>
<svg baseProfile="full" height="82.50378370285034" version="1.1" width="100.00020265579224" xmlns="http://www.w3.org/2000/svg" xmlns:ev="http://www.w3.org/2001/xml-events" xmlns:xlink="http://www.w3.org/1999/xlink"><defs><clipPath /></defs><polygon points="53.36071848869324,3.0624110251665115 53.36071848869324,3.0624110251665115 53.15427780151367,2.9249055311083794 53.15427780151367,2.9249055311083794 52.803295850753784,2.896888181567192 52.803295850753784,2.896888181567192 52.35498547554016,2.952243573963642 52.35498547554016,2.952243573963642 51.85661315917969,3.064992092549801 51.85661315917969,3.064992092549801 51.35549306869507,3.209051862359047 51.35549306869507,3.209051862359047 50.89883208274841,3.3584099262952805 50.89883208274841,3.3584099262952805 50.53396224975586,3.4870516508817673 50.53396224975586,3.4870516508817673 50.30809044837952,3.5688281059265137 50.30809044837952,3.5688281059265137 50.060176849365234,3.656989336013794 50.060176849365234,3.656989336013794 49.81359243392944,3.7497691810131073 49.81359243392944,3.7497691810131073 49.568602442741394,3.8473714143037796 49.568602442741394,3.8473714143037796 49.32568371295929,3.9501354098320007 49.32568371295929,3.9501354098320007 49.085211753845215,4.058367013931274 49.085211753845215,4.058367013931274 48.84755611419678,4.172304272651672 48.84755611419678,4.172304272651672 48.613160848617554,4.292320087552071 48.613160848617554,4.292320087552071 48.38240146636963,4.418652877211571 48.38240146636963,4.418652877211571 48.12121093273163,4.5172058045864105 48.12121093273163,4.5172058045864105 47.87605106830597,4.5188359916210175 47.87605106830597,4.5188359916210175 47.64315187931061,4.441949725151062 47.64315187931061,4.441949725151062 47.418877482414246,4.304953292012215 47.418877482414246,4.304953292012215 47.19955921173096,4.126355797052383 47.19955921173096,4.126355797052383 46.9814658164978,3.924597054719925 46.9814658164978,3.924597054719925 46.76099717617035,3.7181179970502853 46.76099717617035,3.7181179970502853 46.53441309928894,3.525358811020851 46.53441309928894,3.525358811020851 48.74390959739685,2.5113020092248917 48.74390959739685,2.5113020092248917 51.118725538253784,1.6545496881008148 51.118725538253784,1.6545496881008148 53.613829612731934,0.965561531484127 53.613829612731934,0.965561531484127 56.18405342102051,0.4546615295112133 56.18405342102051,0.4546615295112133 58.784329891204834,0.13217378873378038 58.784329891204834,0.13217378873378038 61.36959791183472,0.00849009447847493 61.36959791183472,0.00849009447847493 63.894689083099365,0.09390044724568725 63.894689083099365,0.09390044724568725 66.3145661354065,0.39883069694042206 66.3145661354065,0.39883069694042206 68.06590557098389,0.8289388380944729 68.06590557098389,0.8289388380944729 69.77570652961731,1.4671563170850277 69.77570652961731,1.4671563170850277 71.43891453742981,2.279352769255638 71.43891453742981,2.279352769255638 73.05054068565369,3.231262043118477 73.05054068565369,3.231262043118477 74.60558414459229,4.288652539253235 74.60558414459229,4.288652539253235 76.09896063804626,5.417359620332718 76.09896063804626,5.417359620332718 77.52577066421509,6.583083420991898 77.52577066421509,6.583083420991898 78.88099551200867,7.751660048961639 78.88099551200867,7.751660048961639 79.23248410224915,8.033259958028793 79.23248410224915,8.033259958028793 79.55822944641113,8.239806443452835 79.55822944641113,8.239806443452835 79.87287640571594,8.385564386844635 79.87287640571594,8.385564386844635 80.19105195999146,8.484797179698944 80.19105195999146,8.484797179698944 80.52735924720764,8.551902323961258 80.52735924720764,8.551902323961258 80.89640736579895,8.601213246583939 80.89640736579895,8.601213246583939 81.31282925605774,8.646991848945618 81.31282925605774,8.646991848945618 81.79126381874084,8.70363786816597 81.79126381874084,8.70363786816597 83.06182026863098,8.872488886117935 83.06182026863098,8.872488886117935 84.33258533477783,9.05383676290512 84.33258533477783,9.05383676290512 85.60215830802917,9.250059723854065 85.60215830802917,9.250059723854065 86.86935901641846,9.463535249233246 86.86935901641846,9.463535249233246 88.13278675079346,9.696672856807709 88.13278675079346,9.696672856807709 89.39118981361389,9.951885044574738 89.39118981361389,9.951885044574738 90.6432032585144,10.23154929280281 90.6432032585144,10.23154929280281 91.88754558563232,10.538041591644287 91.88754558563232,10.538041591644287 92.68344044685364,10.753554105758667 92.68344044685364,10.753554105758667 93.47149133682251,10.987506806850433 93.47149133682251,10.987506806850433 94.25163269042969,11.240749806165695 94.25163269042969,11.240749806165695 95.0238585472107,11.514198780059814 95.0238585472107,11.514198780059814 95.78816890716553,11.808736622333527 95.78816890716553,11.808736622333527 96.54446840286255,12.125247716903687 96.54446840286255,12.125247716903687 97.29278087615967,12.464647740125656 97.29278087615967,12.464647740125656 98.03301692008972,12.827785313129425 98.03301692008972,12.827785313129425 98.40566515922546,13.107755780220032 98.40566515922546,13.107755780220032 98.62015843391418,13.465052843093872 98.62015843391418,13.465052843093872 98.70753884315491,13.883750140666962 98.70753884315491,13.883750140666962 98.6984372138977,14.347852766513824 98.6984372138977,14.347852766513824 98.62379431724548,14.84139859676361 98.62379431724548,14.84139859676361 98.51433634757996,15.34842699766159 98.51433634757996,15.34842699766159 98.40094447135925,15.852975845336914 98.40094447135925,15.852975845336914 98.31448197364807,16.33901745080948 98.31448197364807,16.33901745080948 97.8048026561737,16.20962768793106 97.8048026561737,16.20962768793106 97.29475378990173,16.112568974494934 97.29475378990173,16.112568974494934 96.78385257720947,16.043154895305634 96.78385257720947,16.043154895305634 96.27176523208618,15.996833145618439 96.27176523208618,15.996833145618439 95.75808048248291,15.968917310237885 95.75808048248291,15.968917310237885 95.24235725402832,15.954653918743134 95.24235725402832,15.954653918743134 94.72429156303406,15.949559211730957 94.72429156303406,15.949559211730957 94.20337080955505,15.948881208896637 94.20337080955505,15.948881208896637 93.69810819625854,15.952616930007935 93.69810819625854,15.952616930007935 93.27157139778137,15.954789519309998 93.27157139778137,15.954789519309998 92.90289282798767,15.941782295703888 92.90289282798767,15.941782295703888 92.57116913795471,15.899977087974548 92.57116913795471,15.899977087974548 92.25561022758484,15.815789997577667 92.25561022758484,15.815789997577667 91.93529486656189,15.675635635852814 91.93529486656189,15.675635635852814 91.58934354782104,15.46589583158493 91.58934354782104,15.46589583158493 91.19693040847778,15.17295390367508 91.19693040847778,15.17295390367508 90.02172946929932,14.36832994222641 90.02172946929932,14.36832994222641 88.75337839126587,13.754089176654816 88.75337839126587,13.754089176654816 87.41697072982788,13.332878053188324 87.41697072982788,13.332878053188324 86.03746294975281,13.107211887836456 86.03746294975281,13.107211887836456 84.63999629020691,13.079635798931122 84.63999629020691,13.079635798931122 83.24952125549316,13.25276643037796 83.24952125549316,13.25276643037796 81.89113736152649,13.629080355167389 81.89113736152649,13.629080355167389 80.58987855911255,14.211195707321167 80.58987855911255,14.211195707321167 80.24165034294128,14.433127641677856 80.24165034294128,14.433127641677856 79.90204691886902,14.69910442829132 79.90204691886902,14.69910442829132 79.56631183624268,14.98640924692154 79.56631183624268,14.98640924692154 79.22970056533813,15.272389352321625 79.22970056533813,15.272389352321625 78.88741493225098,15.534292161464691 78.88741493225098,15.534292161464691 78.53473424911499,15.749499201774597 78.53473424911499,15.749499201774597 78.16687822341919,15.895256400108337 78.16687822341919,15.895256400108337 77.77904868125916,15.948881208896637 77.77904868125916,15.948881208896637 74.68294501304626,15.948881208896637 74.68294501304626,15.948881208896637 69.54379081726074,15.948881208896637 69.54379081726074,15.948881208896637 69.64570879936218,15.313482284545898 69.64570879936218,15.313482284545898 69.76005434989929,14.699138700962067 69.76005434989929,14.699138700962067 69.85714435577393,14.103269577026367 69.85714435577393,14.103269577026367 69.90730166435242,13.52342963218689 69.90730166435242,13.52342963218689 69.8808491230011,12.957073748111725 69.8808491230011,12.957073748111725 69.74809765815735,12.401718646287918 69.74809765815735,12.401718646287918 69.47940587997437,11.854889243841171 69.47940587997437,11.854889243841171 69.04498338699341,11.313968151807785 69.04498338699341,11.313968151807785 68.47176551818848,10.807210952043533 68.47176551818848,10.807210952043533 67.81931519508362,10.357847809791565 67.81931519508362,10.357847809791565 67.10706949234009,9.959696233272552 67.10706949234009,9.959696233272552 66.35450720787048,9.606575965881348 66.35450720787048,9.606575965881348 65.58105945587158,9.292341023683548 65.58105945587158,9.292341023683548 64.80618119239807,9.01077538728714 64.80618119239807,9.01077538728714 64.04927372932434,8.755766600370407 64.04927372932434,8.755766600370407 63.32985758781433,8.52106660604477 63.32985758781433,8.52106660604477 64.10900950431824,8.552683889865875 64.10900950431824,8.552683889865875 64.88833427429199,8.581618219614029 64.88833427429199,8.581618219614029 65.66786170005798,8.607835322618484 65.66786170005798,8.607835322618484 66.44741892814636,8.631370216608047 66.44741892814636,8.631370216608047 67.2270119190216,8.652255684137344 67.2270119190216,8.652255684137344 68.00650954246521,8.670525997877121 68.00650954246521,8.670525997877121 68.78586411476135,8.686181902885437 68.78586411476135,8.686181902885437 69.5649802684784,8.699290454387665 69.5649802684784,8.699290454387665 70.24734616279602,8.691683411598206 70.24734616279602,8.691683411598206 70.67484259605408,8.637448400259018 70.67484259605408,8.637448400259018 70.9082841873169,8.52629616856575 70.9082841873169,8.52629616856575 71.00864052772522,8.348004519939423 71.00864052772522,8.348004519939423 71.03669047355652,8.0921471118927 71.03669047355652,8.0921471118927 71.05339765548706,7.748433947563171 71.05339765548706,7.748433947563171 71.11955285072327,7.306575775146484 71.11955285072327,7.306575775146484 71.2961494922638,6.756213307380676 71.2961494922638,6.756213307380676 71.42893075942993,6.548919528722763 71.42893075942993,6.548919528722763 71.59642577171326,6.418851017951965 71.59642577171326,6.418851017951965 71.77257537841797,6.337176263332367 71.77257537841797,6.337176263332367 71.93147540092468,6.275063008069992 71.93147540092468,6.275063008069992 72.0471441745758,6.203678250312805 72.0471441745758,6.203678250312805 72.09357023239136,6.09419010579586 72.09357023239136,6.09419010579586 72.04480171203613,5.917765945196152 72.04480171203613,5.917765945196152 71.87483310699463,5.645573511719704 71.87483310699463,5.645573511719704 71.5462327003479,5.239984393119812 71.5462327003479,5.239984393119812 71.18176817893982,4.877729341387749 71.18176817893982,4.877729341387749 70.78667283058167,4.55327183008194 70.78667283058167,4.55327183008194 70.36631107330322,4.2610764503479 70.36631107330322,4.2610764503479 69.92591619491577,3.99557426571846 69.92591619491577,3.99557426571846 69.47077512741089,3.7511955946683884 69.47077512741089,3.7511955946683884 69.00619864463806,3.522404283285141 69.00619864463806,3.522404283285141 68.53747963905334,3.303665667772293 68.53747963905334,3.303665667772293 67.4545168876648,2.8598714619874954 67.4545168876648,2.8598714619874954 66.34893417358398,2.512083202600479 66.34893417358398,2.512083202600479 65.22454023361206,2.2563274949789047 65.22454023361206,2.2563274949789047 64.08479809761047,2.0886991173028946 64.08479809761047,2.0886991173028946 62.933337688446045,2.0052244886755943 62.933337688446045,2.0052244886755943 61.77365779876709,2.0019304007291794 61.77365779876709,2.0019304007291794 60.60943007469177,2.0749112591147423 60.60943007469177,2.0749112591147423 59.44424867630005,2.2201936691999435 59.44424867630005,2.2201936691999435 58.49226713180542,2.46769692748785 58.49226713180542,2.46769692748785 57.83357620239258,2.8537586331367493 57.83357620239258,2.8537586331367493 57.427746057510376,3.360990807414055 57.427746057510376,3.360990807414055 57.2343111038208,3.972141817212105 57.2343111038208,3.972141817212105 57.21284747123718,4.669687896966934 57.21284747123718,4.669687896966934 57.322877645492554,5.436309427022934 57.322877645492554,5.436309427022934 57.523924112319946,6.254618614912033 57.523924112319946,6.254618614912033 57.77556896209717,7.10722804069519 57.77556896209717,7.10722804069519 57.42720365524292,7.038560509681702 57.42720365524292,7.038560509681702 57.07859992980957,6.971114873886108 57.07859992980957,6.971114873886108 56.72982931137085,6.904824078083038 56.72982931137085,6.904824078083038 56.381022930145264,6.8397559225559235 56.381022930145264,6.8397559225559235 56.03218078613281,6.775842607021332 56.03218078613281,6.775842607021332 55.68343997001648,6.713084131479263 55.68343997001648,6.713084131479263 55.33483624458313,6.651479750871658 55.33483624458313,6.651479750871658 54.98647093772888,6.5910302102565765 54.98647093772888,6.5910302102565765 54.69309091567993,6.536931544542313 54.69309091567993,6.536931544542313 54.50029373168945,6.486432254314423 54.50029373168945,6.486432254314423 54.386967420578,6.428767740726471 54.386967420578,6.428767740726471 54.33198809623718,6.353171914815903 54.33198809623718,6.353171914815903 54.314327239990234,6.248913332819939 54.314327239990234,6.248913332819939 54.31283116340637,6.105193123221397 54.31283116340637,6.105193123221397 54.30648326873779,5.911313369870186 54.30648326873779,5.911313369870186 54.274117946624756,5.656440556049347 54.274117946624756,5.656440556049347 54.20898199081421,5.326481536030769 54.20898199081421,5.326481536030769 54.129618406295776,4.991632327437401 54.129618406295776,4.991632327437401 54.03625965118408,4.655152931809425 54.03625965118408,4.655152931809425 53.92887592315674,4.320303350687027 53.92887592315674,4.320303350687027 53.80756855010986,3.9903443306684494 53.80756855010986,3.9903443306684494 53.67237329483032,3.6685358732938766 53.67237329483032,3.6685358732938766 53.52339148521423,3.3581379801034927 53.52339148521423,3.3581379801034927" stroke="white" stroke-width="0.1" /><polygon points="8.515632897615433,15.847814083099365 8.515632897615433,15.847814083099365 8.016754686832428,15.94792902469635 8.016754686832428,15.94792902469635 7.497534900903702,16.004371643066406 7.497534900903702,16.004371643066406 6.964186578989029,16.026411950588226 6.964186578989029,16.026411950588226 6.422994285821915,16.023457050323486 6.422994285821915,16.023457050323486 5.8802396059036255,16.004881262779236 5.8802396059036255,16.004881262779236 5.342137441039085,15.979988873004913 5.342137441039085,15.979988873004913 4.81497049331665,15.958254039287567 4.81497049331665,15.958254039287567 4.3050892651081085,15.948881208896637 4.3050892651081085,15.948881208896637 3.767937794327736,15.964128077030182 3.767937794327736,15.964128077030182 3.23258638381958,16.009466350078583 3.23258638381958,16.009466350078583 2.700563333928585,16.084416210651398 2.700563333928585,16.084416210651398 2.17339638620615,16.188369691371918 2.17339638620615,16.188369691371918 1.652579940855503,16.320781409740448 1.652579940855503,16.320781409740448 1.139778271317482,16.481176018714905 1.139778271317482,16.481176018714905 0.636383518576622,16.668908298015594 0.636383518576622,16.668908298015594 0.1439920044504106,16.883470118045807 0.1439920044504106,16.883470118045807 0.12409122427925467,16.557620465755463 0.12409122427925467,16.557620465755463 0.11539736296981573,16.232246160507202 0.11539736296981573,16.232246160507202 0.1248723128810525,15.9099280834198 0.1248723128810525,15.9099280834198 0.15934209804981947,15.59324711561203 0.15934209804981947,15.59324711561203 0.225768587552011,15.284819900989532 0.225768587552011,15.284819900989532 0.3310457803308964,14.987258613109589 0.3310457803308964,14.987258613109589 0.48203361220657825,14.703145623207092 0.48203361220657825,14.703145623207092 0.6857279688119888,14.435063302516937 0.6857279688119888,14.435063302516937 0.9049762040376663,14.189189672470093 0.9049762040376663,14.189189672470093 1.093252468854189,13.967971503734589 1.093252468854189,13.967971503734589 1.2534775771200657,13.758708536624908 1.2534775771200657,13.758708536624908 1.3886398635804653,13.548697531223297 1.3886398635804653,13.548697531223297 1.5017279423773289,13.325169682502747 1.5017279423773289,13.325169682502747 1.595696248114109,13.07542473077774 1.595696248114109,13.07542473077774 1.6735335811972618,12.78669387102127 1.6735335811972618,12.78669387102127 1.738228090107441,12.446343153715134 1.738228090107441,12.446343153715134 1.807744987308979,11.851561069488525 1.807744987308979,11.851561069488525 1.8639493733644485,11.148513108491898 1.8639493733644485,11.148513108491898 1.9289834424853325,10.38094088435173 1.9289834424853325,10.38094088435173 2.024853602051735,9.59244892001152 2.024853602051735,9.59244892001152 2.173702046275139,8.826743811368942 2.173702046275139,8.826743811368942 2.3976705968379974,8.127465844154358 2.3976705968379974,8.127465844154358 2.7187660336494446,7.538287341594696 2.7187660336494446,7.538287341594696 3.1591303646564484,7.102881371974945 3.1591303646564484,7.102881371974945 3.373861685395241,6.991966813802719 3.373861685395241,6.991966813802719 3.6230292171239853,6.917661428451538 3.6230292171239853,6.917661428451538 3.896138444542885,6.872528046369553 3.896138444542885,6.872528046369553 4.1826281696558,6.849265098571777 4.1826281696558,6.849265098571777 4.472004622220993,6.840537488460541 4.472004622220993,6.840537488460541 4.753773659467697,6.83894082903862 4.753773659467697,6.83894082903862 5.017306283116341,6.837242841720581 5.017306283116341,6.837242841720581 5.252176150679588,6.827937811613083 5.252176150679588,6.827937811613083 5.651278793811798,6.802331656217575 5.651278793811798,6.802331656217575 6.053471565246582,6.781276315450668 6.053471565246582,6.781276315450668 6.457532197237015,6.761477142572403 6.457532197237015,6.761477142572403 6.862238049507141,6.739776581525803 6.862238049507141,6.739776581525803 7.266366481781006,6.712914258241653 7.266366481781006,6.712914258241653 7.668661326169968,6.677696853876114 7.668661326169968,6.677696853876114 8.067933470010757,6.630899757146835 8.067933470010757,6.630899757146835 8.462926000356674,6.56929537653923 8.462926000356674,6.56929537653923 9.191002696752548,6.3931092619895935 9.191002696752548,6.3931092619895935 9.910283982753754,6.136572360992432 9.910283982753754,6.136572360992432 10.620904713869095,5.818737298250198 10.620904713869095,5.818737298250198 11.32313758134842,5.458791181445122 11.32313758134842,5.458791181445122 12.017083913087845,5.075887963175774 12.017083913087845,5.075887963175774 12.702879309654236,4.689113423228264 12.702879309654236,4.689113423228264 13.380762934684753,4.317688569426537 13.380762934684753,4.317688569426537 14.050902426242828,3.9806999266147614 14.050902426242828,3.9806999266147614 16.787531971931458,2.7963994070887566 16.787531971931458,2.7963994070887566 19.701333343982697,1.7546309158205986 19.701333343982697,1.7546309158205986 22.74041324853897,0.9090513922274113 22.74041324853897,0.9090513922274113 25.852814316749573,0.3132505342364311 25.852814316749573,0.3132505342364311 28.986746072769165,0.02098751429002732 28.986746072769165,0.02098751429002732 32.09028244018555,0.08588579948991537 32.09028244018555,0.08588579948991537 35.11156737804413,0.561636732891202 35.11156737804413,0.561636732891202 37.99867630004883,1.5018638223409653 37.99867630004883,1.5018638223409653 39.23411965370178,2.077288366854191 39.23411965370178,2.077288366854191 40.41631519794464,2.724573202431202 40.41631519794464,2.724573202431202 41.55208468437195,3.435160219669342 41.55208468437195,3.435160219669342 42.64839589595795,4.2006272822618484 42.64839589595795,4.2006272822618484 43.712034821510315,5.012517794966698 43.712034821510315,5.012517794966698 44.749897718429565,5.862308666110039 44.749897718429565,5.862308666110039 45.768776535987854,6.741610914468765 45.768776535987854,6.741610914468765 46.77566587924957,7.641900330781937 46.77566587924957,7.641900330781937 47.25484848022461,8.006498962640762 47.25484848022461,8.006498962640762 47.761332988739014,8.270438760519028 47.761332988739014,8.270438760519028 48.291558027267456,8.45307782292366 48.291558027267456,8.45307782292366 48.84215593338013,8.573772758245468 48.84215593338013,8.573772758245468 49.4095653295517,8.651881664991379 49.4095653295517,8.651881664991379 49.99035596847534,8.70676189661026 49.99035596847534,8.70676189661026 50.58099627494812,8.75777006149292 50.58099627494812,8.75777006149292 51.17802023887634,8.824265003204346 51.17802023887634,8.824265003204346 52.02852487564087,8.942412585020065 52.02852487564087,8.942412585020065 52.87773609161377,9.06871184706688 52.87773609161377,9.06871184706688 53.72558832168579,9.20322835445404 53.72558832168579,9.20322835445404 54.57208752632141,9.34603214263916 54.57208752632141,9.34603214263916 55.41712045669556,9.497291594743729 55.41712045669556,9.497291594743729 56.26063346862793,9.65697318315506 56.26063346862793,9.65697318315506 57.1026086807251,9.82528105378151 57.1026086807251,9.82528105378151 57.94292688369751,10.00228226184845 57.94292688369751,10.00228226184845 58.693450689315796,10.168314725160599 58.693450689315796,10.168314725160599 59.44227576255798,10.343210399150848 59.44227576255798,10.343210399150848 60.18865704536438,10.528872162103653 60.18865704536438,10.528872162103653 60.93164086341858,10.727132856845856 60.93164086341858,10.727132856845856 61.670416593551636,10.939860343933105 61.670416593551636,10.939860343933105 62.40416765213013,11.16892322897911 62.40416765213013,11.16892322897911 63.1320059299469,11.41618862748146 63.1320059299469,11.41618862748146 63.85312080383301,11.683457344770432 63.85312080383301,11.683457344770432 64.20236825942993,11.803676933050156 64.20236825942993,11.803676933050156 64.67764377593994,11.958637833595276 64.67764377593994,11.958637833595276 65.22467732429504,12.147966772317886 65.22467732429504,12.147966772317886 65.78927040100098,12.371358275413513 65.78927040100098,12.371358275413513 66.31714701652527,12.628336250782013 66.31714701652527,12.628336250782013 66.75398349761963,12.918561697006226 66.75398349761963,12.918561697006226 67.04563498497009,13.241627812385559 67.04563498497009,13.241627812385559 67.13776588439941,13.597191870212555 67.13776588439941,13.597191870212555 67.125403881073,13.822247087955475 67.125403881073,13.822247087955475 67.10605025291443,14.139743149280548 67.10605025291443,14.139743149280548 67.0750081539154,14.514563977718353 67.0750081539154,14.514563977718353 67.02759861946106,14.911459386348724 67.02759861946106,14.911459386348724 66.95913672447205,15.295279026031494 66.95913672447205,15.295279026031494 66.86496138572693,15.630806982517242 66.86496138572693,15.630806982517242 66.74046516418457,15.882861614227295 66.74046516418457,15.882861614227295 66.58081412315369,16.01625829935074 66.58081412315369,16.01625829935074 66.17210507392883,16.130296885967255 66.17210507392883,16.130296885967255 65.74162244796753,16.200527548789978 65.74162244796753,16.200527548789978 65.29517769813538,16.23632162809372 65.29517769813538,16.23632162809372 64.83858227729797,16.24678075313568 64.83858227729797,16.24678075313568 64.37763571739197,16.24121218919754 64.37763571739197,16.24121218919754 63.91811966896057,16.228850185871124 63.91811966896057,16.228850185871124 63.465869426727295,16.218864917755127 63.465869426727295,16.218864917755127 63.026660680770874,16.220563650131226 63.026660680770874,16.220563650131226 62.64759302139282,16.232450306415558 62.64759302139282,16.232450306415558 62.25820183753967,16.242027282714844 62.25820183753967,16.242027282714844 61.86521649360657,16.23842716217041 61.86521649360657,16.23842716217041 61.475348472595215,16.21064692735672 61.475348472595215,16.21064692735672 61.09539866447449,16.147786378860474 61.09539866447449,16.147786378860474 60.732024908065796,16.03887528181076 60.732024908065796,16.03887528181076 60.39208173751831,15.872979164123535 60.39208173751831,15.872979164123535 60.08216142654419,15.639162063598633 60.08216142654419,15.639162063598633 59.75270867347717,15.347510576248169 59.75270867347717,15.347510576248169 59.4103217124939,15.07110595703125 59.4103217124939,15.07110595703125 59.055739641189575,14.810460805892944 59.055739641189575,14.810460805892944 58.68971347808838,14.566013216972351 58.68971347808838,14.566013216972351 58.31295847892761,14.338275790214539 58.31295847892761,14.338275790214539 57.926249504089355,14.127755165100098 57.926249504089355,14.127755165100098 57.53020644187927,13.934893906116486 57.53020644187927,13.934893906116486 57.12570548057556,13.760201632976532 57.12570548057556,13.760201632976532 56.243038177490234,13.451026380062103 56.243038177490234,13.451026380062103 55.33905029296875,13.23157548904419 55.33905029296875,13.23157548904419 54.420965909957886,13.101506233215332 54.420965909957886,13.101506233215332 53.49588394165039,13.06048184633255 53.49588394165039,13.06048184633255 52.57093906402588,13.108162581920624 52.57093906402588,13.108162581920624 51.65332555770874,13.244140148162842 51.65332555770874,13.244140148162842 50.75011849403381,13.468143343925476 50.75011849403381,13.468143343925476 49.86850619316101,13.779763877391815 49.86850619316101,13.779763877391815 49.46940541267395,13.953708112239838 49.46940541267395,13.953708112239838 49.078384041786194,14.145244657993317 49.078384041786194,14.145244657993317 48.69612753391266,14.353930950164795 48.69612753391266,14.353930950164795 48.323580622673035,14.579461514949799 48.323580622673035,14.579461514949799 47.961461544036865,14.821429550647736 47.961461544036865,14.821429550647736 47.61054813861847,15.079495310783386 47.61054813861847,15.079495310783386 47.27172553539276,15.353283286094666 47.27172553539276,15.353283286094666 46.94574177265167,15.642422437667847 46.94574177265167,15.642422437667847 46.5999573469162,15.884287655353546 46.5999573469162,15.884287655353546 46.212637424468994,16.02637767791748 46.212637424468994,16.02637767791748 45.79417705535889,16.089442372322083 45.79417705535889,16.089442372322083 45.354968309402466,16.09436720609665 45.354968309402466,16.09436720609665 44.905468821525574,16.061969101428986 44.905468821525574,16.061969101428986 44.45603787899017,16.012997925281525 44.45603787899017,16.012997925281525 44.01716887950897,15.968373417854309 44.01716887950897,15.968373417854309 43.5991495847702,15.948881208896637 43.5991495847702,15.948881208896637 34.38529074192047,15.948881208896637 34.38529074192047,15.948881208896637 25.583848357200623,15.948881208896637 25.583848357200623,15.948881208896637 25.124499201774597,15.95628410577774 25.124499201774597,15.95628410577774 24.661484360694885,15.970207750797272 24.661484360694885,15.970207750797272 24.198059737682343,15.978221595287323 24.198059737682343,15.978221595287323 23.73749017715454,15.967898070812225 23.73749017715454,15.967898070812225 23.283031582832336,15.926806628704071 23.283031582832336,15.926806628704071 22.83794730901718,15.842516720294952 22.83794730901718,15.842516720294952 22.40549623966217,15.702599287033081 22.40549623966217,15.702599287033081 21.988937258720398,15.494626760482788 21.988937258720398,15.494626760482788 21.595947444438934,15.242300927639008 21.595947444438934,15.242300927639008 21.217799186706543,14.97584730386734 21.217799186706543,14.97584730386734 20.84735929965973,14.70375657081604 20.84735929965973,14.70375657081604 20.477429032325745,14.434383809566498 20.477429032325745,14.434383809566498 20.100808143615723,14.176148176193237 20.100808143615723,14.176148176193237 19.710366427898407,13.937543332576752 19.710366427898407,13.937543332576752 19.298867881298065,13.726852834224701 19.298867881298065,13.726852834224701 18.859149515628815,13.552635908126831 18.859149515628815,13.552635908126831 17.91253685951233,13.288016617298126 17.91253685951233,13.288016617298126 16.929417848587036,13.117808103561401 16.929417848587036,13.117808103561401 15.925821661949158,13.04604858160019 15.925821661949158,13.04604858160019 14.917843043804169,13.076648116111755 14.917843043804169,13.076648116111755 13.921479880809784,13.213609158992767 13.921479880809784,13.213609158992767 12.95272558927536,13.460943102836609 12.95272558927536,13.460943102836609 12.02767938375473,13.822554051876068 12.02767938375473,13.822554051876068 11.162368953227997,14.302481710910797 11.162368953227997,14.302481710910797 10.844771564006805,14.517654478549957 10.844771564006805,14.517654478549957 10.530366003513336,14.741690456867218 10.530366003513336,14.741690456867218 10.215621441602707,14.96698409318924 10.215621441602707,14.96698409318924 9.897073358297348,15.185993909835815 9.897073358297348,15.185993909835815 9.571291506290436,15.391148626804352 9.571291506290436,15.391148626804352 9.234743565320969,15.574875473976135 9.234743565320969,15.574875473976135 8.884035050868988,15.72963297367096 8.884035050868988,15.72963297367096" stroke="white" stroke-width="0.1" /><polygon points="39.23102915287018,4.569708555936813 39.23102915287018,4.569708555936813 38.257452845573425,3.844926133751869 38.257452845573425,3.844926133751869 37.189704179763794,3.260909393429756 37.189704179763794,3.260909393429756 36.048534512519836,2.8057385236024857 36.048534512519836,2.8057385236024857 34.854692220687866,2.4674253538250923 34.854692220687866,2.4674253538250923 33.6289256811142,2.234049513936043 33.6289256811142,2.234049513936043 32.39201903343201,2.0936913788318634 32.39201903343201,2.0936913788318634 31.16469383239746,2.034362591803074 31.16469383239746,2.034362591803074 29.96772527694702,2.0441431552171707 29.96772527694702,2.0441431552171707 29.50056493282318,2.054535038769245 29.50056493282318,2.054535038769245 29.018837213516235,2.0615987479686737 29.018837213516235,2.0615987479686737 28.529638051986694,2.07674503326416 28.529638051986694,2.07674503326416 28.040269017219543,2.1113846451044083 28.040269017219543,2.1113846451044083 27.557897567749023,2.176928147673607 27.557897567749023,2.176928147673607 27.089616656303406,2.2848542779684067 27.089616656303406,2.2848542779684067 26.64276659488678,2.4465056136250496 26.64276659488678,2.4465056136250496 26.224476099014282,2.6733610779047012 26.224476099014282,2.6733610779047012 25.779426097869873,3.085096552968025 25.779426097869873,3.085096552968025 25.519153475761414,3.585740551352501 25.519153475761414,3.585740551352501 25.412246584892273,4.15070541203022 25.412246584892273,4.15070541203022 25.42729079723358,4.75526824593544 25.42729079723358,4.75526824593544 25.53287446498871,5.374841392040253 25.53287446498871,5.374841392040253 25.69761574268341,5.984701588749886 25.69761574268341,5.984701588749886 25.890102982521057,6.56026229262352 25.890102982521057,6.56026229262352 26.078853011131287,7.0767998695373535 26.078853011131287,7.0767998695373535 26.135161519050598,7.246941328048706 26.135161519050598,7.246941328048706 26.192009449005127,7.4348777532577515 26.192009449005127,7.4348777532577515 26.255381107330322,7.628757506608963 26.255381107330322,7.628757506608963 26.33131444454193,7.816728204488754 26.33131444454193,7.816728204488754 26.42582654953003,7.986937463283539 26.42582654953003,7.986937463283539 26.54489278793335,8.127465844154358 26.54489278793335,8.127465844154358 26.694557070732117,8.226494491100311 26.694557070732117,8.226494491100311 26.880863308906555,8.272204548120499 26.880863308906555,8.272204548120499 27.21523642539978,8.295026421546936 27.21523642539978,8.295026421546936 27.549609541893005,8.315639942884445 27.549609541893005,8.315639942884445 27.88398265838623,8.334589749574661 27.88398265838623,8.334589749574661 28.218358755111694,8.352351188659668 28.218358755111694,8.352351188659668 28.55273187160492,8.369399607181549 28.55273187160492,8.369399607181549 28.887104988098145,8.386209607124329 28.887104988098145,8.386209607124329 29.22147810459137,8.403292298316956 29.22147810459137,8.403292298316956 29.555854201316833,8.421087265014648 29.555854201316833,8.421087265014648 30.391687154769897,8.464352786540985 30.391687154769897,8.464352786540985 31.227654218673706,8.503814786672592 31.227654218673706,8.503814786672592 32.063692808151245,8.539608865976334 32.063692808151245,8.539608865976334 32.89986252784729,8.571871370077133 32.89986252784729,8.571871370077133 33.73617231845856,8.600771427154541 33.73617231845856,8.600771427154541 34.57268476486206,8.626479655504227 34.57268476486206,8.626479655504227 35.4093998670578,8.649130910634995 35.4093998670578,8.649130910634995 36.246320605278015,8.668862283229828 36.246320605278015,8.668862283229828 36.758577823638916,8.705098181962967 36.758577823638916,8.705098181962967 37.282416224479675,8.767721056938171 37.282416224479675,8.767721056938171 37.79599964618683,8.820529282093048 37.79599964618683,8.820529282093048 38.277557492256165,8.827253431081772 38.277557492256165,8.827253431081772 38.70525360107422,8.751793205738068 38.70525360107422,8.751793205738068 39.05732333660126,8.557913452386856 39.05732333660126,8.557913452386856 39.3119215965271,8.20944607257843 39.3119215965271,8.20944607257843 39.44728970527649,7.670155167579651 39.44728970527649,7.670155167579651 39.48209881782532,7.4475109577178955 39.48209881782532,7.4475109577178955 39.535754919052124,7.249114662408829 39.535754919052124,7.249114662408829 39.609313011169434,7.071705162525177 39.609313011169434,7.071705162525177 39.703622460365295,6.911752372980118 39.703622460365295,6.911752372980118 39.81969952583313,6.765925884246826 39.81969952583313,6.765925884246826 39.958494901657104,6.630831956863403 39.958494901657104,6.630831956863403 40.12092649936676,6.50300532579422 40.12092649936676,6.50300532579422 40.30798077583313,6.37911781668663 40.30798077583313,6.37911781668663 40.443551540374756,6.206870451569557 40.443551540374756,6.206870451569557 40.428778529167175,5.976585298776627 40.428778529167175,5.976585298776627 40.30023813247681,5.709554627537727 40.30023813247681,5.709554627537727 40.09450674057007,5.42714037001133 40.09450674057007,5.42714037001133 39.84815776348114,5.150634795427322 39.84815776348114,5.150634795427322 39.597734808921814,4.901331663131714 39.597734808921814,4.901331663131714 39.379844069480896,4.700591787695885 39.379844069480896,4.700591787695885" stroke="white" stroke-width="0.1" /><polygon points="21.326574683189392,2.9646052047610283 21.326574683189392,2.9646052047610283 20.572926104068756,3.0132364481687546 20.572926104068756,3.0132364481687546 19.700823724269867,3.1575679779052734 19.700823724269867,3.1575679779052734 18.766504526138306,3.395392745733261 18.766504526138306,3.395392745733261 17.826278507709503,3.7243667989969254 17.826278507709503,3.7243667989969254 16.936448216438293,4.142215475440025 16.936448216438293,4.142215475440025 16.153186559677124,4.646730795502663 16.153186559677124,4.646730795502663 15.532831847667694,5.235535651445389 15.532831847667694,5.235535651445389 15.13165831565857,5.906388908624649 15.13165831565857,5.906388908624649 15.182870626449585,6.526743620634079 15.182870626449585,6.526743620634079 15.777482092380524,6.974238902330399 15.777482092380524,6.974238902330399 16.761960089206696,7.26684182882309 16.761960089206696,7.26684182882309 17.982767522335052,7.422516494989395 17.982767522335052,7.422516494989395 19.286438822746277,7.459261268377304 19.286438822746277,7.459261268377304 20.519472658634186,7.395008206367493 20.519472658634186,7.395008206367493 21.52833342552185,7.2477564215660095 21.52833342552185,7.2477564215660095 22.159554064273834,7.035503536462784 22.159554064273834,7.035503536462784 22.450867295265198,6.688971817493439 22.450867295265198,6.688971817493439 22.597134113311768,6.147269904613495 22.597134113311768,6.147269904613495 22.61435240507126,5.484770983457565 22.61435240507126,5.484770983457565 22.51858413219452,4.775916039943695 22.51858413219452,4.775916039943695 22.325892746448517,4.095044359564781 22.325892746448517,4.095044359564781 22.052273154258728,3.5166312009096146 22.052273154258728,3.5166312009096146 21.71379029750824,3.1149817630648613 21.71379029750824,3.1149817630648613" stroke="white" stroke-width="0.1" /><polygon points="99.02955293655396,23.359306156635284 99.02955293655396,23.359306156635284 99.50754046440125,24.263739585876465 99.50754046440125,24.263739585876465 99.80456233024597,25.3106027841568 99.80456233024597,25.3106027841568 99.95673894882202,26.457682251930237 99.95673894882202,26.457682251930237 100.00020265579224,27.662628889083862 100.00020265579224,27.662628889083862 99.97110366821289,28.883233666419983 99.97110366821289,28.883233666419983 99.90562796592712,30.077213048934937 99.90562796592712,30.077213048934937 99.83977675437927,31.202253699302673 99.83977675437927,31.202253699302673 99.80982542037964,32.21617341041565 99.80982542037964,32.21617341041565 99.69120025634766,33.50697457790375 99.69120025634766,33.50697457790375 99.35027360916138,34.56460237503052 99.35027360916138,34.56460237503052 98.80921840667725,35.40780544281006 98.80921840667725,35.40780544281006 98.0904757976532,36.055463552474976 98.0904757976532,36.055463552474976 97.21633791923523,36.52642369270325 97.21633791923523,36.52642369270325 96.20900750160217,36.83947026729584 96.20900750160217,36.83947026729584 95.0909972190857,37.01351881027222 95.0909972190857,37.01351881027222 93.88442039489746,37.06734478473663 93.88442039489746,37.06734478473663 93.88434886932373,35.23609936237335 93.88434886932373,35.23609936237335 93.4890866279602,33.569154143333435 93.4890866279602,33.569154143333435 92.74654388427734,32.09116458892822 92.74654388427734,32.09116458892822 91.70470237731934,30.82665205001831 91.70470237731934,30.82665205001831 90.41152596473694,29.800298810005188 90.41152596473694,29.800298810005188 88.91496062278748,29.036736488342285 88.91496062278748,29.036736488342285 87.26299405097961,28.560543060302734 87.26299405097961,28.560543060302734 85.50354242324829,28.396311402320862 85.50354242324829,28.396311402320862 79.33905124664307,28.396311402320862 79.33905124664307,28.396311402320862 70.95545530319214,28.396311402320862 70.95545530319214,28.396311402320862 69.2478597164154,28.57300639152527 69.2478597164154,28.57300639152527 67.65729188919067,29.0795236825943 67.65729188919067,29.0795236825943 66.22610092163086,29.880547523498535 66.22610092163086,29.880547523498535 64.99676704406738,30.94075620174408 64.99676704406738,30.94075620174408 64.0116810798645,32.22486674785614 64.0116810798645,32.22486674785614 63.31328749656677,33.697524666786194 63.31328749656677,33.697524666786194 62.94400095939636,35.323479771614075 62.94400095939636,35.323479771614075 62.94624209403992,37.06734478473663 62.94624209403992,37.06734478473663 36.9488924741745,37.06734478473663 36.9488924741745,37.06734478473663 36.950793862342834,35.211750864982605 36.950793862342834,35.211750864982605 36.54859960079193,33.533430099487305 36.54859960079193,33.533430099487305 35.79247295856476,32.0539116859436 35.79247295856476,32.0539116859436 34.73263680934906,30.794864892959595 34.73263680934906,30.794864892959595 33.419254422187805,29.777953028678894 33.419254422187805,29.777953028678894 31.902548670768738,29.024779796600342 31.902548670768738,29.024779796600342 30.232718586921692,28.55704426765442 30.232718586921692,28.55704426765442 28.459882736206055,28.396311402320862 28.459882736206055,28.396311402320862 21.345049142837524,28.396311402320862 21.345049142837524,28.396311402320862 14.292700588703156,28.396311402320862 14.292700588703156,28.396311402320862 12.550091743469238,28.564277291297913 12.550091743469238,28.564277291297913 10.91574877500534,29.049572348594666 10.91574877500534,29.049572348594666 9.43663865327835,29.824379086494446 9.43663865327835,29.824379086494446 8.159728348255157,30.860882997512817 8.159728348255157,30.860882997512817 7.132019102573395,32.13127255439758 7.132019102573395,32.13127255439758 6.400512903928757,33.607664704322815 6.400512903928757,33.607664704322815 6.012175604701042,35.26231646537781 6.012175604701042,35.26231646537781 6.013975664973259,37.06734478473663 6.013975664973259,37.06734478473663 5.27757853269577,37.06381320953369 5.27757853269577,37.06381320953369 4.552558436989784,37.03905642032623 4.552558436989784,37.03905642032623 3.8461487740278244,36.97188198566437 3.8461487740278244,36.97188198566437 3.1655825674533844,36.84103488922119 3.1655825674533844,36.84103488922119 2.5180941447615623,36.625316739082336 2.5180941447615623,36.625316739082336 1.910950429737568,36.30354404449463 1.910950429737568,36.30354404449463 1.3513513840734959,35.854485630989075 1.3513513840734959,35.854485630989075 0.8465643040835857,35.256850719451904 0.8465643040835857,35.256850719451904 0.5412605125457048,34.73273813724518 0.5412605125457048,34.73273813724518 0.3276157658547163,34.1848224401474 0.3276157658547163,34.1848224401474 0.18997435690835118,33.617785573005676 0.18997435690835118,33.617785573005676 0.11254469864070415,33.03638398647308 0.11254469864070415,33.03638398647308 0.07967104902490973,32.445305585861206 0.07967104902490973,32.445305585861206 0.0756637251470238,31.84923231601715 0.0756637251470238,31.84923231601715 0.08476510411128402,31.252920627593994 0.08476510411128402,31.252920627593994 0.09128549718298018,30.66106140613556 0.09128549718298018,30.66106140613556 0.06445680046454072,29.568418860435486 0.06445680046454072,29.568418860435486 0.01772731775417924,28.40021550655365 0.01772731775417924,28.40021550655365 0.001731979318719823,27.198526263237 0.001731979318719823,27.198526263237 0.06717363139614463,26.005500555038452 0.06717363139614463,26.005500555038452 0.2646871842443943,24.863208830356598 0.2646871842443943,24.863208830356598 0.6448736414313316,23.813730478286743 0.6448736414313316,23.813730478286743 1.2584357522428036,22.899211943149567 1.2584357522428036,22.899211943149567 2.156076580286026,22.161728143692017 2.156076580286026,22.161728143692017 2.914343774318695,21.811018884181976 2.914343774318695,21.811018884181976 3.7624362856149673,21.590955555438995 3.7624362856149673,21.590955555438995 4.674646258354187,21.475660800933838 4.674646258354187,21.475660800933838 5.6252650916576385,21.43932282924652 5.6252650916576385,21.43932282924652 6.588652729988098,21.456031501293182 6.588652729988098,21.456031501293182 7.539135962724686,21.500010788440704 7.539135962724686,21.500010788440704 8.451040089130402,21.545347571372986 8.451040089130402,21.545347571372986 9.298623353242874,21.566198766231537 9.298623353242874,21.566198766231537 91.54359698295593,21.566198766231537 91.54359698295593,21.566198766231537 92.52036809921265,21.546535193920135 92.52036809921265,21.546535193920135 93.5417890548706,21.51474952697754 93.5417890548706,21.51474952697754 94.57972049713135,21.511760354042053 94.57972049713135,21.511760354042053 95.60586810112,21.57842516899109 95.60586810112,21.57842516899109 96.59214615821838,21.755629777908325 96.59214615821838,21.755629777908325 97.51026630401611,22.0842644572258 97.51026630401611,22.0842644572258 98.33217263221741,22.605182230472565 98.33217263221741,22.605182230472565" stroke="white" stroke-width="0.1" /><polygon points="77.69536972045898,58.00324082374573 77.69536972045898,58.00324082374573 77.23554372787476,58.25580358505249 77.23554372787476,58.25580358505249 76.77490711212158,58.507758378982544 76.77490711212158,58.507758378982544 76.3127088546753,58.757299184799194 76.3127088546753,58.757299184799194 75.84819793701172,59.002625942230225 75.84819793701172,59.002625942230225 75.38062930107117,59.24187898635864 75.38062930107117,59.24187898635864 74.90925788879395,59.473246335983276 74.90925788879395,59.473246335983276 74.43333864212036,59.69487428665161 74.43333864212036,59.69487428665161 73.95212054252625,59.905022382736206 73.95212054252625,59.905022382736206 73.95212054252625,51.81756019592285 73.95212054252625,51.81756019592285 73.89354109764099,51.0391891002655 73.89354109764099,51.0391891002655 73.73300790786743,50.2515435218811 73.73300790786743,50.2515435218811 73.4933853149414,49.460166692733765 73.4933853149414,49.460166692733765 73.19751977920532,48.670655488967896 73.19751977920532,48.670655488967896 72.86827564239502,47.88855016231537 72.86827564239502,47.88855016231537 72.52857089042664,47.119516134262085 72.52857089042664,47.119516134262085 72.20122814178467,46.369025111198425 72.20122814178467,46.369025111198425 71.90906405448914,45.64274847507477 71.90906405448914,45.64274847507477 71.64183259010315,44.92948055267334 71.64183259010315,44.92948055267334 71.37439250946045,44.21600699424744 71.37439250946045,44.21600699424744 71.10685110092163,43.50239634513855 71.10685110092163,43.50239634513855 70.83924412727356,42.78858304023743 70.83924412727356,42.78858304023743 70.57167291641235,42.07463264465332 70.57167291641235,42.07463264465332 70.30419707298279,41.36054813861847 70.30419707298279,41.36054813861847 70.03689408302307,40.64632952213287 70.03689408302307,40.64632952213287 69.76982951164246,39.931970834732056 69.76982951164246,39.931970834732056 69.46765184402466,39.15570676326752 69.46765184402466,39.15570676326752 69.12624835968018,38.240405917167664 69.12624835968018,38.240405917167664 68.82691979408264,37.260717153549194 68.82691979408264,37.260717153549194 68.65083575248718,36.29155457019806 68.65083575248718,36.29155457019806 68.67926120758057,35.40759980678558 68.67926120758057,35.40759980678558 68.99339556694031,34.683600068092346 68.99339556694031,34.683600068092346 69.67453956604004,34.194400906562805 69.67453956604004,34.194400906562805 70.80385684967041,34.01471674442291 70.80385684967041,34.01471674442291 85.6953501701355,34.01471674442291 85.6953501701355,34.01471674442291 86.83332800865173,34.16101634502411 86.83332800865173,34.16101634502411 87.57722973823547,34.56467092037201 87.57722973823547,34.56467092037201 87.9900872707367,35.17303466796875 87.9900872707367,35.17303466796875 88.13499212265015,35.93333959579468 88.13499212265015,35.93333959579468 88.07498812675476,36.792877316474915 88.07498812675476,36.792877316474915 87.87312507629395,37.69894242286682 87.87312507629395,37.69894242286682 87.59247660636902,38.598787784576416 87.59247660636902,38.598787784576416 87.29610443115234,39.43968117237091 87.29610443115234,39.43968117237091 87.07318902015686,40.06401002407074 87.07318902015686,40.06401002407074 86.85030937194824,40.68833589553833 86.85030937194824,40.68833589553833 86.62752509117126,41.31273329257965 86.62752509117126,41.31273329257965 86.40484809875488,41.93712770938873 86.40484809875488,41.93712770938873 86.18230819702148,42.56159067153931 86.18230819702148,42.56159067153931 85.96000075340271,43.18612217903137 85.96000075340271,43.18612217903137 85.73786616325378,43.8106894493103 85.73786616325378,43.8106894493103 85.51603555679321,44.43539083003998 85.51603555679321,44.43539083003998 85.31261682510376,45.00707983970642 85.31261682510376,45.00707983970642 85.10898947715759,45.578733086586 85.10898947715759,45.578733086586 84.90529656410217,46.15032076835632 84.90529656410217,46.15032076835632 84.70153212547302,46.72187268733978 84.70153212547302,46.72187268733978 84.49776768684387,47.29342758655548 84.49776768684387,47.29342758655548 84.29407477378845,47.865015268325806 84.29407477378845,47.865015268325806 84.09044742584229,48.43666851520538 84.09044742584229,48.43666851520538 83.88702273368835,49.008357524871826 83.88702273368835,49.008357524871826 83.79513025283813,49.241599440574646 83.79513025283813,49.241599440574646 83.68370532989502,49.49609637260437 83.68370532989502,49.49609637260437 83.56249928474426,49.76553916931152 83.56249928474426,49.76553916931152 83.4414005279541,50.043606758117676 83.4414005279541,50.043606758117676 83.33014249801636,50.323981046676636 83.33014249801636,50.323981046676636 83.23851823806763,50.60028433799744 83.23851823806763,50.60028433799744 83.17636847496033,50.86626410484314 83.17636847496033,50.86626410484314 83.15348029136658,51.11553072929382 83.15348029136658,51.11553072929382 83.15348029136658,54.974520206451416 83.15348029136658,54.974520206451416 82.9564094543457,55.313682556152344 82.9564094543457,55.313682556152344 82.42910504341125,55.71444630622864 82.42910504341125,55.71444630622864 81.66733980178833,56.151652336120605 81.66733980178833,56.151652336120605 80.76695203781128,56.60013556480408 80.76695203781128,56.60013556480408 79.8237681388855,57.034724950790405 79.8237681388855,57.034724950790405 78.93356680870056,57.43018984794617 78.93356680870056,57.43018984794617 78.19214463233948,57.7614426612854 78.19214463233948,57.7614426612854" stroke="white" stroke-width="0.1" /><polygon points="26.21849775314331,54.26487922668457 26.21849775314331,54.26487922668457 24.992530047893524,54.49625253677368 24.992530047893524,54.49625253677368 23.793219029903412,54.81558442115784 23.793219029903412,54.81558442115784 22.618120908737183,55.210745334625244 22.618120908737183,55.210745334625244 21.464793384075165,55.669617652893066 21.464793384075165,55.669617652893066 20.33078819513321,56.180113554000854 20.33078819513321,56.180113554000854 19.21369582414627,56.73006772994995 19.21369582414627,56.73006772994995 18.111036717891693,57.30739235877991 18.111036717891693,57.30739235877991 17.020398378372192,57.89999961853027 17.020398378372192,57.89999961853027 17.03975647687912,56.920140981674194 17.03975647687912,56.920140981674194 17.083021998405457,55.91779947280884 17.083021998405457,55.91779947280884 17.127984762191772,54.90272641181946 17.127984762191772,54.90272641181946 17.15250462293625,53.88438701629639 17.15250462293625,53.88438701629639 17.13433563709259,52.87257432937622 17.13433563709259,52.87257432937622 17.05133616924286,51.87685489654541 17.05133616924286,51.87685489654541 16.881296038627625,50.90687870979309 16.881296038627625,50.90687870979309 16.602006554603577,49.97228980064392 16.602006554603577,49.97228980064392 11.781806498765945,37.12276816368103 11.781806498765945,37.12276816368103 11.542996764183044,36.05756759643555 11.542996764183044,36.05756759643555 11.689094454050064,35.268157720565796 11.689094454050064,35.268157720565796 12.141480296850204,34.713348746299744 12.141480296850204,34.713348746299744 12.821537256240845,34.35187339782715 12.821537256240845,34.35187339782715 13.650645315647125,34.14254188537598 13.650645315647125,34.14254188537598 14.550188183784485,34.04402434825897 14.550188183784485,34.04402434825897 15.441545844078064,34.01519060134888 15.441545844078064,34.01519060134888 16.24610126018524,34.01471674442291 16.24610126018524,34.01471674442291 25.434964895248413,34.01471674442291 25.434964895248413,34.01471674442291 26.189088821411133,33.99019539356232 26.189088821411133,33.99019539356232 27.067101001739502,33.947405219078064 27.067101001739502,33.947405219078064 28.005188703536987,33.93259942531586 28.005188703536987,33.93259942531586 28.93967628479004,33.9920312166214 28.93967628479004,33.9920312166214 29.806819558143616,34.17191803455353 29.806819558143616,34.17191803455353 30.542877316474915,34.51855182647705 30.542877316474915,34.51855182647705 31.08413815498352,35.078150033950806 31.08413815498352,35.078150033950806 31.366893649101257,35.89693605899811 31.366893649101257,35.89693605899811 31.378167867660522,36.628374457359314 31.378167867660522,36.628374457359314 31.24643564224243,37.423521280288696 31.24643564224243,37.423521280288696 31.005826592445374,38.25935423374176 31.005826592445374,38.25935423374176 30.690470337867737,39.11298215389252 30.690470337867737,39.11298215389252 30.334463715553284,39.96148407459259 30.334463715553284,39.96148407459259 29.972004890441895,40.781864523887634 29.972004890441895,40.781864523887634 29.637154936790466,41.551271080970764 29.637154936790466,41.551271080970764 29.364046454429626,42.24671125411987 29.364046454429626,42.24671125411987 29.077181220054626,43.050044775009155 29.077181220054626,43.050044775009155 28.790387511253357,43.85351240634918 28.790387511253357,43.85351240634918 28.503692150115967,44.657015800476074 28.503692150115967,44.657015800476074 28.21713387966156,45.46058475971222 28.21713387966156,45.46058475971222 27.930712699890137,46.26408815383911 27.930712699890137,46.26408815383911 27.64449417591095,47.06745445728302 27.64449417591095,47.06745445728302 27.358481287956238,47.870686650276184 27.358481287956238,47.870686650276184 27.072671055793762,48.67364466190338 27.072671055793762,48.67364466190338 26.8244206905365,49.41622316837311 26.8244206905365,49.41622316837311 26.628366112709045,50.10690689086914 26.628366112709045,50.10690689086914 26.478636264801025,50.765401124954224 26.478636264801025,50.765401124954224 26.369282603263855,51.41139626502991 26.369282603263855,51.41139626502991 26.294469833374023,52.064621448516846 26.294469833374023,52.064621448516846 26.248350739479065,52.74481773376465 26.248350739479065,52.74481773376465 26.224985718727112,53.47166657447815 26.224985718727112,53.47166657447815" stroke="white" stroke-width="0.1" /><polygon points="89.16582465171814,59.671372175216675 89.16582465171814,59.671372175216675 90.03853797912598,59.73929166793823 90.03853797912598,59.73929166793823 91.04695916175842,59.93959307670593 91.04695916175842,59.93959307670593 92.11341738700867,60.266971588134766 92.11341738700867,60.266971588134766 93.16017627716064,60.7161283493042 93.16017627716064,60.7161283493042 94.1095769405365,61.281776428222656 94.1095769405365,61.281776428222656 94.88387107849121,61.9586706161499 94.88387107849121,61.9586706161499 95.40543556213379,62.74145841598511 95.40543556213379,62.74145841598511 95.59656381607056,63.62490653991699 95.59656381607056,63.62490653991699 95.59656381607056,68.46629977226257 95.59656381607056,68.46629977226257 94.14197206497192,67.12268590927124 94.14197206497192,67.12268590927124 92.62336492538452,66.18965864181519 92.62336492538452,66.18965864181519 91.04841947555542,65.63271284103394 91.04841947555542,65.63271284103394 89.42474126815796,65.41733145713806 89.42474126815796,65.41733145713806 87.75997161865234,65.50896167755127 87.75997161865234,65.50896167755127 86.06184720993042,65.87308049201965 86.06184720993042,65.87308049201965 84.33798551559448,66.4751648902893 84.33798551559448,66.4751648902893 82.5959861278534,67.28067398071289 82.5959861278534,67.28067398071289 81.09938502311707,68.08851957321167 81.09938502311707,68.08851957321167 79.55055832862854,68.95865201950073 79.55055832862854,68.95865201950073 77.95523405075073,69.817715883255 77.95523405075073,69.817715883255 76.31922960281372,70.59234976768494 76.31922960281372,70.59234976768494 74.64837431907654,71.20921015739441 74.64837431907654,71.20921015739441 72.94842004776001,71.59496545791626 72.94842004776001,71.59496545791626 71.22523784637451,71.67630195617676 71.22523784637451,71.67630195617676 69.48456764221191,71.37982845306396 69.48456764221191,71.37982845306396 68.5926616191864,71.04775905609131 68.5926616191864,71.04775905609131 67.7904486656189,70.61476707458496 67.7904486656189,70.61476707458496 67.05690622329712,70.10176181793213 67.05690622329712,70.10176181793213 66.3708746433258,69.52952742576599 66.3708746433258,69.52952742576599 65.71123003959656,68.91891956329346 65.71123003959656,68.91891956329346 65.05694389343262,68.29082369804382 65.05694389343262,68.29082369804382 64.38683867454529,67.66608953475952 64.38683867454529,67.66608953475952 63.679784536361694,67.06550121307373 63.679784536361694,67.06550121307373 63.06065320968628,66.6147768497467 63.06065320968628,66.6147768497467 62.41251826286316,66.22300744056702 62.41251826286316,66.22300744056702 61.73793077468872,65.89315533638 61.73793077468872,65.89315533638 61.03963851928711,65.6281590461731 61.03963851928711,65.6281590461731 60.32012104988098,65.4309868812561 60.32012104988098,65.4309868812561 59.58209037780762,65.30451774597168 59.58209037780762,65.30451774597168 58.828139305114746,65.25177955627441 58.828139305114746,65.25177955627441 58.06083679199219,65.27565121650696 58.06083679199219,65.27565121650696 56.065356731414795,65.62007665634155 56.065356731414795,65.62007665634155 54.16731238365173,66.26169085502625 54.16731238365173,66.26169085502625 52.33759880065918,67.11291074752808 52.33759880065918,67.11291074752808 50.5470335483551,68.08621287345886 50.5470335483551,68.08621287345886 48.76652657985687,69.09405589103699 48.76652657985687,69.09405589103699 46.9668984413147,70.04885077476501 46.9668984413147,70.04885077476501 45.11904716491699,70.86318731307983 45.11904716491699,70.86318731307983 43.19379925727844,71.44937515258789 43.19379925727844,71.44937515258789 42.33752191066742,71.60012722015381 42.33752191066742,71.60012722015381 41.48721992969513,71.66624665260315 41.48721992969513,71.66624665260315 40.64649939537048,71.64689302444458 40.64649939537048,71.64689302444458 39.81902003288269,71.54120802879333 39.81902003288269,71.54120802879333 39.008352160453796,71.34830951690674 39.008352160453796,71.34830951690674 38.21812868118286,71.06732130050659 38.21812868118286,71.06732130050659 37.4520480632782,70.69739103317261 37.4520480632782,70.69739103317261 36.7136150598526,70.23767232894897 36.7136150598526,70.23767232894897 36.014336347579956,69.70062255859375 36.014336347579956,69.70062255859375 35.359206795692444,69.12098526954651 35.359206795692444,69.12098526954651 34.72897112369537,68.51876378059387 34.72897112369537,68.51876378059387 34.10423398017883,67.91409850120544 34.10423398017883,67.91409850120544 33.46571326255798,67.32712984085083 33.46571326255798,67.32712984085083 32.7940434217453,66.77792072296143 32.7940434217453,66.77792072296143 32.06990659236908,66.28661751747131 32.06990659236908,66.28661751747131 31.2739759683609,65.87335467338562 31.2739759683609,65.87335467338562 29.414984583854675,65.33321142196655 29.414984583854675,65.33321142196655 27.554026246070862,65.27422666549683 27.554026246070862,65.27422666549683 25.703150033950806,65.60302972793579 25.703150033950806,65.60302972793579 23.874349892139435,66.22640490531921 23.874349892139435,66.22640490531921 22.079679369926453,67.05102920532227 22.079679369926453,67.05102920532227 20.331093668937683,67.98365116119385 20.331093668937683,67.98365116119385 18.640682101249695,68.93097758293152 18.640682101249695,68.93097758293152 17.020398378372192,69.79971528053284 17.020398378372192,69.79971528053284 15.309542417526245,70.57285904884338 15.309542417526245,70.57285904884338 13.617126643657684,71.13592028617859 13.617126643657684,71.13592028617859 11.951234936714172,71.45969867706299 11.951234936714172,71.45969867706299 10.320015996694565,71.51498794555664 10.320015996694565,71.51498794555664 8.731620758771896,71.27251029014587 8.731620758771896,71.27251029014587 7.194268703460693,70.70306539535522 7.194268703460693,70.70306539535522 5.716007202863693,69.77736949920654 5.716007202863693,69.77736949920654 4.3050892651081085,68.46629977226257 4.3050892651081085,68.46629977226257 4.229425638914108,68.16941499710083 4.229425638914108,68.16941499710083 4.193903133273125,67.83177852630615 4.193903133273125,67.83177852630615 4.189284518361092,67.46653914451599 4.189284518361092,67.46653914451599 4.206264764070511,67.0865535736084 4.206264764070511,67.0865535736084 4.235606268048286,66.70490503311157 4.235606268048286,66.70490503311157 4.268038645386696,66.33460521697998 4.268038645386696,66.33460521697998 4.294290021061897,65.98861813545227 4.294290021061897,65.98861813545227 4.3050892651081085,65.67991375923157 4.3050892651081085,65.67991375923157 4.3050892651081085,62.890273332595825 4.3050892651081085,62.890273332595825 6.943029910326004,65.03283381462097 6.943029910326004,65.03283381462097 9.626816213130951,65.89950323104858 9.626816213130951,65.89950323104858 12.347925454378128,65.76923131942749 12.347925454378128,65.76923131942749 15.097969770431519,64.92096781730652 15.097969770431519,64.92096781730652 17.868490517139435,63.633668422698975 17.868490517139435,63.633668422698975 20.651035010814667,62.18620538711548 20.651035010814667,62.18620538711548 23.43721240758896,60.857611894607544 23.43721240758896,60.857611894607544 26.21849775314331,59.92675423622131 26.21849775314331,59.92675423622131 26.93893313407898,59.78989601135254 26.93893313407898,59.78989601135254 27.659234404563904,59.71077084541321 27.659234404563904,59.71077084541321 28.376850485801697,59.6916139125824 28.376850485801697,59.6916139125824 29.08930480480194,59.734541177749634 29.08930480480194,59.734541177749634 29.79412078857422,59.841716289520264 29.79412078857422,59.841716289520264 30.48871159553528,60.01525521278381 30.48871159553528,60.01525521278381 31.170669198036194,60.25732755661011 31.170669198036194,60.25732755661011 31.837448477745056,60.57010293006897 31.837448477745056,60.57010293006897 32.4661910533905,60.94903349876404 32.4661910533905,60.94903349876404 33.04657340049744,61.3761842250824 33.04657340049744,61.3761842250824 33.59116017818451,61.83977723121643 33.59116017818451,61.83977723121643 34.11259055137634,62.32802867889404 34.11259055137634,62.32802867889404 34.62345600128174,62.82917857170105 34.62345600128174,62.82917857170105 35.13635993003845,63.331419229507446 35.13635993003845,63.331419229507446 35.6638640165329,63.822996616363525 35.6638640165329,63.822996616363525 36.2186074256897,64.29215669631958 36.2186074256897,64.29215669631958 37.34235763549805,65.04889726638794 37.34235763549805,65.04889726638794 38.50529491901398,65.58142900466919 38.50529491901398,65.58142900466919 39.70005512237549,65.90574979782104 39.70005512237549,65.90574979782104 40.91940224170685,66.03772044181824 40.91940224170685,66.03772044181824 42.15603768825531,65.99336862564087 42.15603768825531,65.99336862564087 43.40258538722992,65.78859090805054 43.40258538722992,65.78859090805054 44.65188682079315,65.43933749198914 44.65188682079315,65.43933749198914 45.8965003490448,64.96158838272095 45.8965003490448,64.96158838272095 47.37778604030609,64.25673961639404 47.37778604030609,64.25673961639404 48.847657442092896,63.464951515197754 48.847657442092896,63.464951515197754 50.31749606132507,62.6364529132843 50.31749606132507,62.6364529132843 51.798540353775024,61.821335554122925 51.798540353775024,61.821335554122925 53.30210328102112,61.06972694396973 53.30210328102112,61.06972694396973 54.83945608139038,60.431814193725586 54.83945608139038,60.431814193725586 56.42194151878357,59.95765924453735 56.42194151878357,59.95765924453735 58.06083679199219,59.697455167770386 58.06083679199219,59.697455167770386 59.56609845161438,59.72689986228943 59.56609845161438,59.72689986228943 60.87656021118164,60.040318965911865 60.87656021118164,60.040318965911865 62.03916072845459,60.58174967765808 62.03916072845459,60.58174967765808 63.10089826583862,61.295223236083984 63.10089826583862,61.295223236083984 64.10863399505615,62.124741077423096 64.10863399505615,62.124741077423096 65.10934829711914,63.01429867744446 65.10934829711914,63.01429867744446 66.14996194839478,63.90793323516846 66.14996194839478,63.90793323516846 67.27741360664368,64.749675989151 67.27741360664368,64.749675989151 70.05563974380493,65.9710943698883 70.05563974380493,65.9710943698883 72.80296683311462,66.07154607772827 72.80296683311462,66.07154607772827 75.5288302898407,65.34635424613953 75.5288302898407,65.34635424613953 78.24260592460632,64.0908420085907 78.24260592460632,64.0908420085907 80.95376491546631,62.600284814834595 80.95376491546631,62.600284814834595 83.67174863815308,61.169975996017456 83.67174863815308,61.169975996017456 86.4059329032898,60.09523272514343 86.4059329032898,60.09523272514343" stroke="white" stroke-width="0.1" /><polygon points="89.16582465171814,70.5104410648346 89.16582465171814,70.5104410648346 90.03853797912598,70.5782949924469 90.03853797912598,70.5782949924469 91.04695916175842,70.77832221984863 91.04695916175842,70.77832221984863 92.11341738700867,71.10535502433777 92.11341738700867,71.10535502433777 93.16017627716064,71.5541124343872 93.16017627716064,71.5541124343872 94.1095769405365,72.1193790435791 94.1095769405365,72.1193790435791 94.88387107849121,72.79587388038635 94.88387107849121,72.79587388038635 95.40543556213379,73.57845306396484 95.40543556213379,73.57845306396484 95.59656381607056,74.46179986000061 95.59656381607056,74.46179986000061 95.59656381607056,79.3042778968811 95.59656381607056,79.3042778968811 94.15481090545654,77.97136306762695 94.15481090545654,77.97136306762695 92.6470398902893,77.04190611839294 92.6470398902893,77.04190611839294 91.0814642906189,76.48257613182068 91.0814642906189,76.48257613182068 89.4664466381073,76.26006603240967 89.4664466381073,76.26006603240967 87.8101646900177,76.34109854698181 87.8101646900177,76.34109854698181 86.12100481987,76.69224739074707 86.12100481987,76.69224739074707 84.4071626663208,77.28030681610107 84.4071626663208,77.28030681610107 82.6769471168518,78.07192206382751 82.6769471168518,78.07192206382751 81.13294243812561,78.90313863754272 81.13294243812561,78.90313863754272 79.52977418899536,79.80437874794006 79.52977418899536,79.80437874794006 77.87553071975708,80.6938648223877 77.87553071975708,80.6938648223877 76.17835998535156,81.48996829986572 76.17835998535156,81.48996829986572 74.44638013839722,82.11089968681335 74.44638013839722,82.11089968681335 72.68770933151245,82.47501850128174 72.68770933151245,82.47501850128174 70.91042399406433,82.50059485435486 70.91042399406433,82.50059485435486 69.12268400192261,82.10586905479431 69.12268400192261,82.10586905479431 68.23176741600037,81.71396851539612 68.23176741600037,81.71396851539612 67.42931604385376,81.22208714485168 67.42931604385376,81.22208714485168 66.69234037399292,80.65454363822937 66.69234037399292,80.65454363822937 65.99778532981873,80.03578186035156 65.99778532981873,80.03578186035156 65.32272100448608,79.39019799232483 65.32272100448608,79.39019799232483 64.64409232139587,78.74209880828857 64.64409232139587,78.74209880828857 63.938939571380615,78.11596989631653 63.938939571380615,78.11596989631653 63.184237480163574,77.53616571426392 63.184237480163574,77.53616571426392 62.52744197845459,77.12075710296631 62.52744197845459,77.12075710296631 61.84511184692383,76.7747700214386 61.84511184692383,76.7747700214386 61.14029884338379,76.49887800216675 61.14029884338379,76.49887800216675 60.41592359542847,76.29375457763672 60.41592359542847,76.29375457763672 59.675008058547974,76.16005539894104 59.675008058547974,76.16005539894104 58.92050862312317,76.09841823577881 58.92050862312317,76.09841823577881 58.15545320510864,76.10952258110046 58.15545320510864,76.10952258110046 57.38271474838257,76.19404792785645 57.38271474838257,76.19404792785645 55.4135262966156,76.66891813278198 55.4135262966156,76.66891813278198 53.539252281188965,77.40334272384644 53.539252281188965,77.40334272384644 51.728278398513794,78.31083536148071 51.728278398513794,78.31083536148071 49.94899332523346,79.30482029914856 49.94899332523346,79.30482029914856 48.16974103450775,80.29884099960327 48.16974103450775,80.29884099960327 46.35883867740631,81.20629787445068 46.35883867740631,81.20629787445068 44.48469877243042,81.94068670272827 44.48469877243042,81.94068670272827 42.51567721366882,82.41559267044067 42.51567721366882,82.41559267044067 41.66082739830017,82.50378370285034 41.66082739830017,82.50378370285034 40.819016098976135,82.5016438961029 40.819016098976135,82.5016438961029 39.99333679676056,82.41117596626282 39.99333679676056,82.41117596626282 39.18701708316803,82.23437666893005 39.18701708316803,82.23437666893005 38.403210043907166,81.97332620620728 38.403210043907166,81.97332620620728 37.64508068561554,81.63008689880371 37.64508068561554,81.63008689880371 36.91584765911102,81.20666742324829 36.91584765911102,81.20666742324829 36.2186074256897,80.70507645606995 36.2186074256897,80.70507645606995 35.54711043834686,80.13596534729004 35.54711043834686,80.13596534729004 34.91075932979584,79.54277992248535 34.91075932979584,79.54277992248535 34.29040610790253,78.9438545703888 34.29040610790253,78.9438545703888 33.66696238517761,78.35745811462402 33.66696238517761,78.35745811462402 33.02130699157715,77.8019368648529 33.02130699157715,77.8019368648529 32.33432173728943,77.29565501213074 32.33432173728943,77.29565501213074 31.58695697784424,76.85678601264954 31.58695697784424,76.85678601264954 30.75995147228241,76.50376558303833 30.75995147228241,76.50376558303833 28.918078541755676,76.1090099811554 28.918078541755676,76.1090099811554 27.089276909828186,76.1522114276886 27.089276909828186,76.1522114276886 25.281158089637756,76.54649019241333 25.281158089637756,76.54649019241333 23.501260578632355,77.20498442649841 23.501260578632355,77.20498442649841 21.75719141960144,78.0408501625061 21.75719141960144,78.0408501625061 20.0564906001091,78.96725535392761 20.0564906001091,78.96725535392761 18.40672940015793,79.89732623100281 18.40672940015793,79.89732623100281 16.81554913520813,80.74419498443604 16.81554913520813,80.74419498443604 15.126971900463104,81.4908504486084 15.126971900463104,81.4908504486084 13.45856636762619,82.02524781227112 13.45856636762619,82.02524781227112 11.818143725395203,82.32121467590332 11.818143725395203,82.32121467590332 10.21331250667572,82.35242366790771 10.21331250667572,82.35242366790771 8.651881664991379,82.09262490272522 8.651881664991379,82.09262490272522 7.141561806201935,81.5155029296875 7.141561806201935,81.5155029296875 5.690061300992966,80.59483766555786 5.690061300992966,80.59483766555786 4.3050892651081085,79.3042778968811 4.3050892651081085,79.3042778968811 4.229425638914108,79.00773286819458 4.229425638914108,79.00773286819458 4.193903133273125,78.67037057876587 4.193903133273125,78.67037057876587 4.189284518361092,78.3051609992981 4.189284518361092,78.3051609992981 4.206264764070511,77.92508006095886 4.206264764070511,77.92508006095886 4.235606268048286,77.54312753677368 4.235606268048286,77.54312753677368 4.268038645386696,77.17227935791016 4.268038645386696,77.17227935791016 4.294290021061897,76.82547569274902 4.294290021061897,76.82547569274902 4.3050892651081085,76.51572227478027 4.3050892651081085,76.51572227478027 4.3050892651081085,73.72825145721436 4.3050892651081085,73.72825145721436 6.867297738790512,75.82663297653198 6.867297738790512,75.82663297653198 9.480175375938416,76.71465873718262 9.480175375938416,76.71465873718262 12.13248148560524,76.64769291877747 12.13248148560524,76.64769291877747 14.812973141670227,75.88120698928833 14.812973141670227,75.88120698928833 17.51048117876053,74.67055320739746 17.51048117876053,74.67055320739746 20.2138289809227,73.27114939689636 20.2138289809227,73.27114939689636 22.91177660226822,71.93840742111206 22.91177660226822,71.93840742111206 25.59308409690857,70.92774510383606 25.59308409690857,70.92774510383606 27.2007018327713,70.6024706363678 27.2007018327713,70.6024706363678 28.64605486392975,70.57686448097229 28.64605486392975,70.57686448097229 29.961442947387695,70.81513404846191 29.961442947387695,70.81513404846191 31.179293990135193,71.28161191940308 31.179293990135193,71.28161191940308 32.331979274749756,71.94044589996338 32.331979274749756,71.94044589996338 33.4519237279892,72.75593280792236 33.4519237279892,72.75593280792236 34.571462869644165,73.69235754013062 34.571462869644165,73.69235754013062 35.72305738925934,74.71392154693604 35.72305738925934,74.71392154693604 36.87679469585419,75.5936324596405 36.87679469585419,75.5936324596405 38.078755140304565,76.23174786567688 38.078755140304565,76.23174786567688 39.321669936180115,76.6427993774414 39.321669936180115,76.6427993774414 40.598273277282715,76.84119939804077 40.598273277282715,76.84119939804077 41.90133512020111,76.84156894683838 41.90133512020111,76.84156894683838 43.22354793548584,76.65842175483704 43.22354793548584,76.65842175483704 44.55768167972565,76.30621790885925 44.55768167972565,76.30621790885925 45.8965003490448,75.79956650733948 45.8965003490448,75.79956650733948 47.43945598602295,75.059974193573 47.43945598602295,75.059974193573 48.981767892837524,74.2203414440155 48.981767892837524,74.2203414440155 50.53260326385498,73.3418881893158 50.53260326385498,73.3418881893158 52.10112929344177,72.48584628105164 52.10112929344177,72.48584628105164 53.69651913642883,71.7134177684784 53.69651913642883,71.7134177684784 55.32797574996948,71.08592987060547 55.32797574996948,71.08592987060547 57.00460076332092,70.66451907157898 57.00460076332092,70.66451907157898 58.73569846153259,70.5104410648346 58.73569846153259,70.5104410648346 60.17402410507202,70.66068053245544 60.17402410507202,70.66068053245544 61.42529249191284,71.07299566268921 61.42529249191284,71.07299566268921 62.53664493560791,71.68971300125122 62.53664493560791,71.68971300125122 63.555288314819336,72.4532425403595 63.555288314819336,72.4532425403595 64.52835202217102,73.30588698387146 64.52835202217102,73.30588698387146 65.50301909446716,74.19008016586304 65.50301909446716,74.19008016586304 66.52647852897644,75.04812479019165 66.52647852897644,75.04812479019165 67.64581203460693,75.82238912582397 67.64581203460693,75.82238912582397 70.39965987205505,76.87743306159973 70.39965987205505,76.87743306159973 73.1089174747467,76.8780767917633 73.1089174747467,76.8780767917633 75.78676342964172,76.10588669776917 75.78676342964172,76.10588669776917 78.44637036323547,74.84256029129028 78.44637036323547,74.84256029129028 81.10088109970093,73.369699716568 81.10088109970093,73.369699716568 83.76354575157166,71.96900248527527 83.76354575157166,71.96900248527527 86.4474356174469,70.92204093933105 86.4474356174469,70.92204093933105" stroke="white" stroke-width="0.1" /></svg>