<?xml version="1.0" encoding="utf-8" ?>
<svg baseProfile="full" height="91.27997159957886" version="1.1" width="99.9919593334198" xmlns="http://www.w3.org/2000/svg" xmlns:ev="http://www.w3.org/2001/xml-events" xmlns:xlink="http://www.w3.org/1999/xlink"><defs><clipPath /></defs><polygon points="6.8831294775009155,49.28693771362305 6.8831294775009155,49.28693771362305 6.8831294775009155,49.28693771362305 6.8831294775009155,49.28693771362305 5.90321309864521,49.315693974494934 5.90321309864521,49.315693974494934 4.9457162618637085,49.43058788776398 4.9457162618637085,49.43058788776398 4.0165673941373825,49.63495135307312 4.0165673941373825,49.63495135307312 3.1216269358992577,49.93199408054352 3.1216269358992577,49.93199408054352 2.2666871547698975,50.324779748916626 2.2666871547698975,50.324779748916626 1.4575405977666378,50.81670880317688 1.4575405977666378,50.81670880317688 0.6999792996793985,51.41072869300842 0.6999792996793985,51.41072869300842 0.0,52.11029648780823 0.0,52.11029648780823 0.0,38.927897810935974 0.0,38.927897810935974 0.0027939204301219434,38.29708695411682 0.0027939204301219434,38.29708695411682 0.024259407655335963,37.67063319683075 0.024259407655335963,37.67063319683075 0.08422647952102125,37.05781102180481 0.08422647952102125,37.05781102180481 0.20225257612764835,36.46802306175232 0.20225257612764835,36.46802306175232 0.39803143590688705,35.910600423812866 0.39803143590688705,35.910600423812866 0.6913931109011173,35.39481461048126 0.6913931109011173,35.39481461048126 1.1017587035894394,34.930139780044556 1.1017587035894394,34.930139780044556 1.6490945592522621,34.52576994895935 1.6490945592522621,34.52576994895935 1.7971042543649673,34.43466126918793 1.7971042543649673,34.43466126918793 1.9468173384666443,34.34627652168274 1.9468173384666443,34.34627652168274 2.0979616791009903,34.26000773906708 2.0979616791009903,34.26000773906708 2.2501282393932343,34.17537212371826 2.2501282393932343,34.17537212371826 2.403044141829014,34.091827273368835 2.403044141829014,34.091827273368835 2.5563690811395645,34.00875926017761 2.5563690811395645,34.00875926017761 2.7095576748251915,33.92569124698639 2.7095576748251915,33.92569124698639 2.8626101091504097,33.84214639663696 2.8626101091504097,33.84214639663696 24.0784153342247,22.194904088974 24.0784153342247,22.194904088974 55.916571617126465,4.715592786669731 55.916571617126465,4.715592786669731 63.54328989982605,0.5277102347463369 63.54328989982605,0.5277102347463369 64.10712003707886,0.2671260619536042 64.10712003707886,0.2671260619536042 64.6907091140747,0.09226751863025129 64.6907091140747,0.09226751863025129 65.28295278549194,0.007768462091917172 65.28295278549194,0.007768462091917172 65.87260365486145,0.0179901224328205 65.87260365486145,0.0179901224328205 66.44876599311829,0.12760038953274488 66.44876599311829,0.12760038953274488 67.00025796890259,0.34113088622689247 67.00025796890259,0.34113088622689247 67.51617789268494,0.6630450487136841 67.51617789268494,0.6630450487136841 67.98521876335144,1.0979426093399525 67.98521876335144,1.0979426093399525 68.32655072212219,1.5422781929373741 68.32655072212219,1.5422781929373741 68.57125759124756,2.013871446251869 68.57125759124756,2.013871446251869 68.73507499694824,2.5081228464841843 68.73507499694824,2.5081228464841843 68.8337504863739,3.0203644186258316 68.8337504863739,3.0203644186258316 68.88308525085449,3.5458259284496307 68.88308525085449,3.5458259284496307 68.89876127243042,4.079907387495041 68.89876127243042,4.079907387495041 68.89657974243164,4.617805406451225 68.89657974243164,4.617805406451225 68.89235377311707,5.154987797141075 68.89235377311707,5.154987797141075 68.89235377311707,22.149111330509186 68.89235377311707,22.149111330509186 68.89235377311707,24.393515288829803 68.89235377311707,24.393515288829803 68.94564628601074,24.499274790287018 68.94564628601074,24.499274790287018 69.08840537071228,24.562786519527435 69.08840537071228,24.562786519527435 69.29515600204468,24.592702090740204 69.29515600204468,24.592702090740204 69.54013705253601,24.597744643688202 69.54013705253601,24.597744643688202 69.79785561561584,24.586500227451324 69.79785561561584,24.586500227451324 70.04277110099792,24.567829072475433 70.04277110099792,24.567829072475433 70.24917602539062,24.55017864704132 70.24917602539062,24.55017864704132 70.39152979850769,24.542342126369476 70.39152979850769,24.542342126369476 71.16749286651611,24.50588494539261 71.16749286651611,24.50588494539261 72.21330404281616,24.432630836963654 72.21330404281616,24.432630836963654 73.41400980949402,24.37695562839508 73.41400980949402,24.37695562839508 74.65437054634094,24.393174052238464 74.65437054634094,24.393174052238464 75.81936717033386,24.535664916038513 75.81936717033386,24.535664916038513 76.79410576820374,24.85853284597397 76.79410576820374,24.85853284597397 77.46321558952332,25.416430830955505 77.46321558952332,25.416430830955505 77.71187424659729,26.263397932052612 77.71187424659729,26.263397932052612 77.76898145675659,26.731550693511963 77.76898145675659,26.731550693511963 77.8191328048706,27.43738889694214 77.8191328048706,27.43738889694214 77.85102725028992,28.288376331329346 77.85102725028992,28.288376331329346 77.85334587097168,29.192107915878296 77.85334587097168,29.192107915878296 77.81491279602051,30.056041479110718 77.81491279602051,30.056041479110718 77.72448062896729,30.787572264671326 77.72448062896729,30.787572264671326 77.57061123847961,31.294363737106323 77.57061123847961,31.294363737106323 77.34225988388062,31.483805179595947 77.34225988388062,31.483805179595947 69.24997568130493,31.483805179595947 69.24997568130493,31.483805179595947 68.28491687774658,31.47222101688385 68.28491687774658,31.47222101688385 67.30172634124756,31.450891494750977 67.30172634124756,31.450891494750977 66.3090705871582,31.44005537033081 66.3090705871582,31.44005537033081 65.31572937965393,31.45981729030609 65.31572937965393,31.45981729030609 64.33042883872986,31.53034746646881 64.33042883872986,31.53034746646881 63.36182355880737,31.671950221061707 63.36182355880737,31.671950221061707 62.418705224990845,31.904664635658264 62.418705224990845,31.904664635658264 61.509865522384644,32.24865794181824 61.509865522384644,32.24865794181824 60.22820472717285,32.972076535224915 60.22820472717285,32.972076535224915 59.17155742645264,33.84971022605896 59.17155742645264,33.84971022605896 58.323293924331665,34.86267626285553 58.323293924331665,34.86267626285553 57.66672492027283,35.99196374416351 57.66672492027283,35.99196374416351 57.18507766723633,37.21897304058075 57.18507766723633,37.21897304058075 56.86166286468506,38.52468729019165 56.86166286468506,38.52468729019165 56.679993867874146,39.89036977291107 56.679993867874146,39.89036977291107 56.62308931350708,41.29714369773865 56.62308931350708,41.29714369773865 56.62308931350708,48.9832878112793 56.62308931350708,48.9832878112793 56.49600028991699,49.14792478084564 56.49600028991699,49.14792478084564 56.158822774887085,49.18915033340454 56.158822774887085,49.18915033340454 55.67744970321655,49.13129508495331 55.67744970321655,49.13129508495331 55.11777997016907,48.99848401546478 55.11777997016907,48.99848401546478 54.545778036117554,48.8152414560318 54.545778036117554,48.8152414560318 54.02747392654419,48.605698347091675 54.02747392654419,48.605698347091675 53.62868905067444,48.39431345462799 53.62868905067444,48.39431345462799 53.41539978981018,48.20534884929657 53.41539978981018,48.20534884929657 53.31918001174927,48.003777861595154 53.31918001174927,48.003777861595154 53.25287580490112,47.79314398765564 53.25287580490112,47.79314398765564 53.21109890937805,47.575560212135315 53.21109890937805,47.575560212135315 53.188616037368774,47.35327363014221 53.188616037368774,47.35327363014221 53.18022966384888,47.12839722633362 53.18022966384888,47.12839722633362 53.18077802658081,46.903178095817566 53.18077802658081,46.903178095817566 53.184932470321655,46.67973220348358 53.184932470321655,46.67973220348358 53.187525272369385,46.460309624671936 53.187525272369385,46.460309624671936 53.187525272369385,29.779648780822754 53.187525272369385,29.779648780822754 53.16762328147888,29.224613308906555 53.16762328147888,29.224613308906555 53.12708020210266,28.561976552009583 53.12708020210266,28.561976552009583 53.09436917304993,27.835488319396973 53.09436917304993,27.835488319396973 53.0981183052063,27.08882987499237 53.0981183052063,27.08882987499237 53.16687822341919,26.36561393737793 53.16687822341919,26.36561393737793 53.32919359207153,25.70938467979431 53.32919359207153,25.70938467979431 53.61369848251343,25.163954496383667 53.61369848251343,25.163954496383667 54.04886603355408,24.772943556308746 54.04886603355408,24.772943556308746 54.41398620605469,24.61525648832321 54.41398620605469,24.61525648832321 54.8273503780365,24.51978623867035 54.8273503780365,24.51978623867035 55.27383089065552,24.47378933429718 55.27383089065552,24.47378933429718 55.7387113571167,24.46465790271759 55.7387113571167,24.46465790271759 56.20700120925903,24.47964996099472 56.20700120925903,24.47964996099472 56.663841009140015,24.506022036075592 56.663841009140015,24.506022036075592 57.09424018859863,24.53116774559021 57.09424018859863,24.53116774559021 57.48334527015686,24.542342126369476 57.48334527015686,24.542342126369476 61.585092544555664,24.542342126369476 61.585092544555664,24.542342126369476 61.867755651474,24.353310465812683 61.867755651474,24.353310465812683 62.03968524932861,23.84774684906006 62.03968524932861,23.84774684906006 62.123435735702515,23.1179878115654 62.123435735702515,23.1179878115654 62.14156150817871,22.256438434123993 62.14156150817871,22.256438434123993 62.116414308547974,21.355365216732025 62.116414308547974,21.355365216732025 62.07069158554077,20.507240295410156 62.07069158554077,20.507240295410156 62.02666759490967,19.8042631149292 62.02666759490967,19.8042631149292 62.00704574584961,19.338835775852203 62.00704574584961,19.338835775852203 62.00704574584961,12.581092119216919 62.00704574584961,12.581092119216919 46.90297544002533,29.87014353275299 46.90297544002533,29.87014353275299 39.59789574146271,38.23119103908539 39.59789574146271,38.23119103908539 39.4199013710022,38.45409154891968 39.4199013710022,38.45409154891968 39.29505944252014,38.654232025146484 39.29505944252014,38.654232025146484 39.21437859535217,38.84360492229462 39.21437859535217,38.84360492229462 39.16885852813721,39.033862948417664 39.16885852813721,39.033862948417664 39.14923071861267,39.23686444759369 39.14923071861267,39.23686444759369 39.146506786346436,39.46446776390076 39.146506786346436,39.46446776390076 39.15148079395294,39.7284597158432 39.15148079395294,39.7284597158432 39.155226945877075,40.0405615568161 39.155226945877075,40.0405615568161 39.155226945877075,47.10577130317688 39.155226945877075,47.10577130317688 39.15645480155945,47.243013978004456 39.15645480155945,47.243013978004456 39.159250259399414,47.510480880737305 39.159250259399414,47.510480880737305 39.16211128234863,47.86251485347748 39.16211128234863,47.86251485347748 39.163678884506226,48.2531875371933 39.163678884506226,48.2531875371933 39.16245102882385,48.636773228645325 39.16245102882385,48.636773228645325 39.15713727474213,48.96740913391113 39.15713727474213,48.96740913391113 39.14602994918823,49.19944107532501 39.14602994918823,49.19944107532501 39.12796974182129,49.28693771362305 39.12796974182129,49.28693771362305 35.902830958366394,49.28693771362305 35.902830958366394,49.28693771362305 32.294994592666626,49.28693771362305 32.294994592666626,49.28693771362305 32.27700591087341,49.19494390487671 32.27700591087341,49.19494390487671 32.266101241111755,48.95112216472626 32.266101241111755,48.95112216472626 32.26078748703003,48.603516817092896 32.26078748703003,48.603516817092896 32.25983381271362,48.20023775100708 32.25983381271362,48.20023775100708 32.26160407066345,47.78946340084076 32.26160407066345,47.78946340084076 32.264602184295654,47.4192351102829 32.264602184295654,47.4192351102829 32.267600297927856,47.13766276836395 32.267600297927856,47.13766276836395 32.26882815361023,46.99292480945587 32.26882815361023,46.99292480945587 32.27441608905792,46.56198024749756 32.27441608905792,46.56198024749756 32.286953926086426,45.791539549827576 32.286953926086426,45.791539549827576 32.299765944480896,44.803786277770996 32.299765944480896,44.803786277770996 32.30644464492798,43.721312284469604 32.30644464492798,43.721312284469604 32.30051398277283,42.666301131248474 32.30051398277283,42.666301131248474 32.275232672691345,41.76134169101715 32.275232672691345,41.76134169101715 32.22433030605316,41.128554940223694 32.22433030605316,41.128554940223694 32.14126229286194,40.89045822620392 32.14126229286194,40.89045822620392 26.81727409362793,40.89045822620392 26.81727409362793,40.89045822620392 9.18150395154953,40.89045822620392 9.18150395154953,40.89045822620392 7.078840583562851,40.89045822620392 7.078840583562851,40.89045822620392 6.953182071447372,40.921396017074585 6.953182071447372,40.921396017074585 6.876042485237122,41.00568890571594 6.876042485237122,41.00568890571594 6.837540864944458,41.130530834198 6.837540864944458,41.130530834198 6.827864795923233,41.28337800502777 6.827864795923233,41.28337800502777 6.837404519319534,41.451287269592285 6.837404519319534,41.451287269592285 6.8563491106033325,41.62178337574005 6.8563491106033325,41.62178337574005 6.874816119670868,41.78192317485809 6.874816119670868,41.78192317485809 6.8831294775009155,41.91916584968567 6.8831294775009155,41.91916584968567" stroke="white" stroke-width="0.1" /><polygon points="50.075775384902954,15.771885216236115 50.075775384902954,15.771885216236115 50.075775384902954,15.771885216236115 50.075775384902954,15.771885216236115 16.863831877708435,34.00678336620331 16.863831877708435,34.00678336620331 28.21396291255951,34.00678336620331 28.21396291255951,34.00678336620331 33.744016289711,34.00678336620331 33.744016289711,34.00678336620331 33.97945761680603,33.97932052612305 33.97945761680603,33.97932052612305 34.183141589164734,33.90265703201294 34.183141589164734,33.90265703201294 34.3621551990509,33.78545045852661 34.3621551990509,33.78545045852661 34.52304303646088,33.63628089427948 34.52304303646088,33.63628089427948 34.67268943786621,33.46380889415741 34.67268943786621,33.46380889415741 34.817904233932495,33.276546001434326 34.817904233932495,33.276546001434326 34.96543765068054,33.08328986167908 34.96543765068054,33.08328986167908 35.12217104434967,32.892486453056335 35.12217104434967,32.892486453056335" stroke="white" stroke-width="0.1" /><polygon points="99.52462911605835,56.050676107406616 99.52462911605835,56.050676107406616 99.52462911605835,56.050676107406616 99.52462911605835,56.050676107406616 99.85648989677429,56.696414947509766 99.85648989677429,56.696414947509766 99.9919593334198,57.40116238594055 99.9919593334198,57.40116238594055 99.969881772995,58.1457793712616 99.969881772995,58.1457793712616 99.82841610908508,58.91103744506836 99.82841610908508,58.91103744506836 99.60626363754272,59.67786908149719 99.60626363754272,59.67786908149719 99.34200048446655,60.42691469192505 99.34200048446655,60.42691469192505 99.07412528991699,61.13922595977783 99.07412528991699,61.13922595977783 98.84099960327148,61.79552674293518 98.84099960327148,61.79552674293518 98.66198897361755,62.34579086303711 98.66198897361755,62.34579086303711 98.48297238349915,62.89605498313904 98.48297238349915,62.89605498313904 98.30402135848999,63.44618797302246 98.30402135848999,63.44618797302246 98.12507629394531,63.996315002441406 98.12507629394531,63.996315002441406 97.94599413871765,64.54644799232483 97.94599413871765,64.54644799232483 97.76697754859924,65.09657502174377 97.76697754859924,65.09657502174377 97.58769273757935,65.6468391418457 97.58769273757935,65.6468391418457 97.40833640098572,66.19710922241211 97.40833640098572,66.19710922241211 96.20429277420044,65.23763537406921 96.20429277420044,65.23763537406921 94.92747187614441,64.41574692726135 94.92747187614441,64.41574692726135 93.58604550361633,63.737642765045166 93.58604550361633,63.737642765045166 92.18860864639282,63.20931911468506 92.18860864639282,63.20931911468506 90.74340462684631,62.83690929412842 90.74340462684631,62.83690929412842 89.25867080688477,62.626683712005615 89.25867080688477,62.626683712005615 87.74287104606628,62.584638595581055 87.74287104606628,62.584638595581055 86.2043023109436,62.716835737228394 86.2043023109436,62.716835737228394 84.75228548049927,62.99486756324768 84.75228548049927,62.99486756324768 83.34183096885681,63.39412331581116 83.34183096885681,63.39412331581116 81.96688294410706,63.89417052268982 81.96688294410706,63.89417052268982 80.6212306022644,64.47489261627197 80.6212306022644,64.47489261627197 79.29875254631042,65.1159942150116 79.29875254631042,65.1159942150116 77.99358367919922,65.79716801643372 77.99358367919922,65.79716801643372 76.69945359230042,66.49830341339111 76.69945359230042,66.49830341339111 75.41022896766663,67.19910502433777 75.41022896766663,67.19910502433777 74.8524010181427,67.50384569168091 74.8524010181427,67.50384569168091 74.27003979682922,67.82153248786926 74.27003979682922,67.82153248786926 73.66743683815002,68.13567876815796 73.66743683815002,68.13567876815796 73.04862141609192,68.42979192733765 73.04862141609192,68.42979192733765 72.41767048835754,68.68724226951599 72.41767048835754,68.68724226951599 71.77895307540894,68.89167428016663 71.77895307540894,68.89167428016663 71.13628387451172,69.02632713317871 71.13628387451172,69.02632713317871 70.49401998519897,69.07498240470886 70.49401998519897,69.07498240470886 70.05966901779175,69.02509927749634 70.05966901779175,69.02509927749634 69.65632438659668,68.8869059085846 69.65632438659668,68.8869059085846 69.28064227104187,68.67769956588745 69.28064227104187,68.67769956588745 68.92942786216736,68.41480135917664 68.92942786216736,68.41480135917664 68.59926581382751,68.11537146568298 68.59926581382751,68.11537146568298 68.28675866127014,67.79673099517822 68.28675866127014,67.79673099517822 67.9887592792511,67.47604012489319 67.9887592792511,67.47604012489319 67.7017331123352,67.17075705528259 67.7017331123352,67.17075705528259 66.7051911354065,66.22347831726074 66.7051911354065,66.22347831726074 65.6416654586792,65.36438465118408 65.6416654586792,65.36438465118408 64.51550722122192,64.60280418395996 64.51550722122192,64.60280418395996 63.33101987838745,63.94786834716797 63.33101987838745,63.94786834716797 62.09249496459961,63.409048318862915 62.09249496459961,63.409048318862915 60.804158449172974,62.99540996551514 60.804158449172974,62.99540996551514 59.47050452232361,62.71663308143616 59.47050452232361,62.71663308143616 58.09555649757385,62.58164048194885 58.09555649757385,62.58164048194885 55.95670938491821,62.65714168548584 55.95670938491821,62.65714168548584 53.915852308273315,63.03350329399109 53.915852308273315,63.03350329399109 51.95281505584717,63.650548458099365 51.95281505584717,63.650548458099365 50.04722476005554,64.44818377494812 50.04722476005554,64.44818377494812 48.17904531955719,65.36601781845093 48.17904531955719,65.36601781845093 46.32783532142639,66.34395718574524 46.32783532142639,66.34395718574524 44.473761320114136,67.3218309879303 44.473761320114136,67.3218309879303 42.59624779224396,68.23925971984863 42.59624779224396,68.23925971984863 41.67957007884979,68.61657500267029 41.67957007884979,68.61657500267029 40.87764620780945,68.85228753089905 40.87764620780945,68.85228753089905 40.163153409957886,68.94394159317017 40.163153409957886,68.94394159317017 39.50835168361664,68.88921856880188 39.50835168361664,68.88921856880188 38.885852694511414,68.68560314178467 38.885852694511414,68.68560314178467 38.267987966537476,68.33063960075378 38.267987966537476,68.33063960075378 37.627431750297546,67.82194375991821 37.627431750297546,67.82194375991821 36.9364470243454,67.15712547302246 36.9364470243454,67.15712547302246 36.251118779182434,66.49012565612793 36.251118779182434,66.49012565612793 35.53178608417511,65.8621072769165 35.53178608417511,65.8621072769165 34.77926850318909,65.27708768844604 34.77926850318909,65.27708768844604 33.994242548942566,64.73909020423889 33.994242548942566,64.73909020423889 33.177533745765686,64.25219774246216 33.177533745765686,64.25219774246216 32.32995271682739,63.820505142211914 32.32995271682739,63.820505142211914 31.452184915542603,63.44802379608154 31.452184915542603,63.44802379608154 30.54504692554474,63.13878893852234 30.54504692554474,63.13878893852234 28.49826216697693,62.70184516906738 28.49826216697693,62.70184516906738 26.486092805862427,62.601739168167114 26.486092805862427,62.601739168167114 24.50888454914093,62.792885303497314 24.50888454914093,62.792885303497314 22.5669726729393,63.22948932647705 22.5669726729393,63.22948932647705 20.660769939422607,63.86595368385315 20.660769939422607,63.86595368385315 18.79054605960846,64.65650200843811 18.79054605960846,64.65650200843811 16.9567808508873,65.55545926094055 16.9567808508873,65.55545926094055 15.159676969051361,66.51711463928223 15.159676969051361,66.51711463928223 14.790061116218567,66.69456362724304 14.790061116218567,66.69456362724304 14.490088820457458,66.78144335746765 14.490088820457458,66.78144335746765 14.238500595092773,66.7873740196228 14.238500595092773,66.7873740196228 14.01362419128418,66.72188639640808 14.01362419128418,66.72188639640808 13.79399448633194,66.59459471702576 13.79399448633194,66.59459471702576 13.558146357536316,66.41503572463989 13.558146357536316,66.41503572463989 13.284683227539062,66.19288325309753 13.284683227539062,66.19288325309753 12.951797246932983,65.93761444091797 12.951797246932983,65.93761444091797 12.519557774066925,65.62258005142212 12.519557774066925,65.62258005142212 12.087181210517883,65.30755162239075 12.087181210517883,65.30755162239075 11.65473684668541,64.99245166778564 11.65473684668541,64.99245166778564 11.222224682569504,64.67728018760681 11.222224682569504,64.67728018760681 10.789711773395538,64.36211466789246 10.789711773395538,64.36211466789246 10.35713106393814,64.04674053192139 10.35713106393814,64.04674053192139 9.924686700105667,63.731300830841064 9.924686700105667,63.731300830841064 9.492242336273193,63.41572403907776 9.492242336273193,63.41572403907776 8.825313299894333,62.96106576919556 8.825313299894333,62.96106576919556 8.072317391633987,62.485283613204956 8.072317391633987,62.485283613204956 7.271143794059753,61.985236406326294 7.271143794059753,61.985236406326294 6.4597487449646,61.45814061164856 6.4597487449646,61.45814061164856 5.676088109612465,60.90085506439209 5.676088109612465,60.90085506439209 4.9578458070755005,60.310518741607666 4.9578458070755005,60.310518741607666 4.343251511454582,59.68400239944458 4.343251511454582,59.68400239944458 3.8700569421052933,59.01850461959839 3.8700569421052933,59.01850461959839 3.487835079431534,58.07027220726013 3.487835079431534,58.07027220726013 3.4526724368333817,57.243889570236206 3.4526724368333817,57.243889570236206 3.7071917206048965,56.540775299072266 3.7071917206048965,56.540775299072266 4.194151610136032,55.962228775024414 4.194151610136032,55.962228775024414 4.8560380935668945,55.509746074676514 4.8560380935668945,55.509746074676514 5.635610222816467,55.18490672111511 5.635610222816467,55.18490672111511 6.475421786308289,54.9889862537384 6.475421786308289,54.9889862537384 7.31816366314888,54.923295974731445 7.31816366314888,54.923295974731445 18.09152066707611,54.923295974731445 18.09152066707611,54.923295974731445 54.40540313720703,54.923295974731445 54.40540313720703,54.923295974731445 60.113173723220825,54.923295974731445 60.113173723220825,54.923295974731445 60.279786586761475,54.93256449699402 60.279786586761475,54.93256449699402 60.540443658828735,54.95498776435852 60.540443658828735,54.95498776435852 60.862624645233154,54.98272180557251 60.862624645233154,54.98272180557251 61.21398210525513,55.007725954055786 61.21398210525513,55.007725954055786 61.561787128448486,55.02224564552307 61.561787128448486,55.02224564552307 61.873823404312134,55.01822233200073 61.873823404312134,55.01822233200073 62.11730241775513,54.987967014312744 62.11730241775513,54.987967014312744 62.25999593734741,54.923295974731445 62.25999593734741,54.923295974731445 62.31887340545654,54.791027307510376 62.31887340545654,54.791027307510376 62.34654188156128,54.57153916358948 62.34654188156128,54.57153916358948 62.35008239746094,54.29282784461975 62.35008239746094,54.29282784461975 62.336862087249756,53.983038663864136 62.336862087249756,53.983038663864136 62.31410503387451,53.67012023925781 62.31410503387451,53.67012023925781 62.28882074356079,53.38207483291626 62.28882074356079,53.38207483291626 62.26844787597656,53.14704775810242 62.26844787597656,53.14704775810242 62.25999593734741,52.99290418624878 62.25999593734741,52.99290418624878 62.25999593734741,48.938584327697754 62.25999593734741,48.938584327697754 62.25999593734741,40.63805043697357 62.25999593734741,40.63805043697357 62.32200860977173,39.80621099472046 62.32200860977173,39.80621099472046 62.505042552948,39.08824324607849 62.505042552948,39.08824324607849 62.80467510223389,38.483256101608276 62.80467510223389,38.483256101608276 63.21660876274109,37.99029886722565 63.21660876274109,37.99029886722565 63.736480474472046,37.60848641395569 63.736480474472046,37.60848641395569 64.35973048210144,37.336862087249756 64.35973048210144,37.336862087249756 65.08233547210693,37.17454373836517 65.08233547210693,37.17454373836517 65.89945554733276,37.12070882320404 65.89945554733276,37.12070882320404 74.16945695877075,37.12070882320404 74.16945695877075,37.12070882320404 81.48108124732971,37.12070882320404 81.48108124732971,37.12070882320404 82.41111636161804,37.22251653671265 82.41111636161804,37.22251653671265 83.12976360321045,37.5090628862381 83.12976360321045,37.5090628862381 83.66394639015198,37.95207142829895 83.66394639015198,37.95207142829895 84.04071927070618,38.523393869400024 84.04071927070618,38.523393869400024 84.28685665130615,39.19461667537689 84.28685665130615,39.19461667537689 84.42941308021545,39.937594532966614 84.42941308021545,39.937594532966614 84.49517488479614,40.723979473114014 84.49517488479614,40.723979473114014 84.5110535621643,41.52556359767914 84.5110535621643,41.52556359767914 84.5110535621643,50.428491830825806 84.5110535621643,50.428491830825806 84.49926376342773,50.7818877696991 84.49926376342773,50.7818877696991 84.47288870811462,51.36629343032837 84.47288870811462,51.36629343032837 84.44508910179138,52.095985412597656 84.44508910179138,52.095985412597656 84.42927598953247,52.885234355926514 84.42927598953247,52.885234355926514 84.43888425827026,53.648316860198975 84.43888425827026,53.648316860198975 84.48706269264221,54.299503564834595 84.48706269264221,54.299503564834595 84.58744287490845,54.75307106971741 84.58744287490845,54.75307106971741 84.75310206413269,54.923295974731445 84.75310206413269,54.923295974731445 92.65239834785461,54.923295974731445 92.65239834785461,54.923295974731445 93.43973994255066,54.89780902862549 93.43973994255066,54.89780902862549 94.34422254562378,54.84609007835388 94.34422254562378,54.84609007835388 95.31752467155457,54.80499863624573 95.31752467155457,54.80499863624573 96.31134271621704,54.81133460998535 96.31134271621704,54.81133460998535 97.27728962898254,54.90217208862305 97.27728962898254,54.90217208862305 98.16705584526062,55.11437654495239 98.16705584526062,55.11437654495239 98.93231391906738,55.484944581985474 98.93231391906738,55.484944581985474" stroke="white" stroke-width="0.1" /><polygon points="88.2486343383789,68.20545792579651 88.2486343383789,68.20545792579651 88.2486343383789,68.20545792579651 88.2486343383789,68.20545792579651 88.85362148284912,68.23040246963501 88.85362148284912,68.23040246963501 89.4498884677887,68.3038592338562 89.4498884677887,68.3038592338562 90.0355875492096,68.4243381023407 90.0355875492096,68.4243381023407 90.6091570854187,68.59006881713867 90.6091570854187,68.59006881713867 91.16882681846619,68.79926919937134 91.16882681846619,68.79926919937134 91.71282649040222,69.05044913291931 91.71282649040222,69.05044913291931 92.23958253860474,69.34170126914978 92.23958253860474,69.34170126914978 92.74725914001465,69.67138051986694 92.74725914001465,69.67138051986694 93.2185411453247,70.00651359558105 93.2185411453247,70.00651359558105 93.62590909004211,70.32079696655273 93.62590909004211,70.32079696655273 93.96976828575134,70.63092589378357 93.96976828575134,70.63092589378357 94.25038695335388,70.95372080802917 94.25038695335388,70.95372080802917 94.46810483932495,71.30603194236755 94.46810483932495,71.30603194236755 94.62327361106873,71.70467376708984 94.62327361106873,71.70467376708984 94.71601843833923,72.16628193855286 94.71601843833923,72.16628193855286 94.74688768386841,72.70789742469788 94.74688768386841,72.70789742469788 94.74688768386841,77.09367275238037 94.74688768386841,77.09367275238037 93.14624071121216,75.64062476158142 93.14624071121216,75.64062476158142 91.47786498069763,74.68211054801941 91.47786498069763,74.68211054801941 89.75251317024231,74.1659164428711 89.75251317024231,74.1659164428711 87.98123598098755,74.03998374938965 87.98123598098755,74.03998374938965 86.17486357688904,74.25205111503601 86.17486357688904,74.25205111503601 84.34436917304993,74.74991083145142 84.34436917304993,74.74991083145142 82.50072598457336,75.48151016235352 82.50072598457336,75.48151016235352 80.65462112426758,76.39477849006653 80.65462112426758,76.39477849006653 79.10638451576233,77.24460959434509 79.10638451576233,77.24460959434509 77.49149799346924,78.12401056289673 77.49149799346924,78.12401056289673 75.82236528396606,78.95305752754211 75.82236528396606,78.95305752754211 74.11139607429504,79.65160608291626 74.11139607429504,79.65160608291626 72.37119674682617,80.13958930969238 72.37119674682617,80.13958930969238 70.61395645141602,80.3370714187622 70.61395645141602,80.3370714187622 68.85242462158203,80.16371130943298 68.85242462158203,80.16371130943298 67.09879636764526,79.53978180885315 67.09879636764526,79.53978180885315 66.33298993110657,79.09336686134338 66.33298993110657,79.09336686134338 65.63062071800232,78.57506275177002 65.63062071800232,78.57506275177002 64.97323513031006,78.00557613372803 64.97323513031006,78.00557613372803 64.34194445610046,77.4057686328888 64.34194445610046,77.4057686328888 63.7182891368866,76.79635882377625 63.7182891368866,76.79635882377625 63.0835235118866,76.1981189250946 63.0835235118866,76.1981189250946 62.41897940635681,75.63170194625854 62.41897940635681,75.63170194625854 61.706119775772095,75.11802911758423 61.706119775772095,75.11802911758423 60.880279541015625,74.65205788612366 60.880279541015625,74.65205788612366 60.028815269470215,74.29852485656738 60.028815269470215,74.29852485656738 59.15601849555969,74.05320405960083 59.15601849555969,74.05320405960083 58.26618671417236,73.91180396080017 58.26618671417236,73.91180396080017 57.363682985305786,73.87017011642456 57.363682985305786,73.87017011642456 56.45286440849304,73.92399907112122 56.45286440849304,73.92399907112122 55.53809404373169,74.06914830207825 55.53809404373169,74.06914830207825 54.62346076965332,74.3013858795166 54.62346076965332,74.3013858795166 52.822405099868774,74.96551871299744 52.822405099868774,74.96551871299744 51.0728657245636,75.8043110370636 51.0728657245636,75.8043110370636 49.35249388217926,76.74300074577332 49.35249388217926,76.74300074577332 47.639068961143494,77.70676612854004 47.639068961143494,77.70676612854004 45.91038227081299,78.62098813056946 45.91038227081299,78.62098813056946 44.144147634506226,79.41098809242249 44.144147634506226,79.41098809242249 42.31815040111542,80.00200390815735 42.31815040111542,80.00200390815735 40.410175919532776,80.31935095787048 40.410175919532776,80.31935095787048 38.48237097263336,80.20595908164978 38.48237097263336,80.20595908164978 36.8214875459671,79.6235978603363 36.8214875459671,79.6235978603363 35.34691035747528,78.70910167694092 35.34691035747528,78.70910167694092 33.978161215782166,77.59895920753479 33.978161215782166,77.59895920753479 32.63469636440277,76.42994523048401 32.63469636440277,76.42994523048401 31.235826015472412,75.33867955207825 31.235826015472412,75.33867955207825 29.701146483421326,74.46179986000061 29.701146483421326,74.46179986000061 27.95010805130005,73.93612861633301 27.95010805130005,73.93612861633301 26.14823281764984,73.84406924247742 26.14823281764984,73.84406924247742 24.377228319644928,74.10587668418884 24.377228319644928,74.10587668418884 22.638046741485596,74.64606165885925 22.638046741485596,74.64606165885925 20.931915938854218,75.38896799087524 20.931915938854218,75.38896799087524 19.25978809595108,76.25917196273804 19.25978809595108,76.25917196273804 17.622551321983337,77.18110084533691 17.622551321983337,77.18110084533691 16.021566092967987,78.07917594909668 16.021566092967987,78.07917594909668 14.457516372203827,78.8779616355896 14.457516372203827,78.8779616355896 13.638420403003693,79.24403548240662 13.638420403003693,79.24403548240662 12.798404693603516,79.57767248153687 12.798404693603516,79.57767248153687 11.94053441286087,79.8666000366211 11.94053441286087,79.8666000366211 11.068081855773926,80.09808659553528 11.068081855773926,80.09808659553528 10.18424928188324,80.25965690612793 10.18424928188324,80.25965690612793 9.292034059762955,80.33891320228577 9.292034059762955,80.33891320228577 8.394913375377655,80.32317161560059 8.394913375377655,80.32317161560059 7.495884597301483,80.19996285438538 7.495884597301483,80.19996285438538 6.952228397130966,80.05386590957642 6.952228397130966,80.05386590957642 6.23173750936985,79.80063557624817 6.23173750936985,79.80063557624817 5.411210656166077,79.45725917816162 5.411210656166077,79.45725917816162 4.567378386855125,79.04082536697388 4.567378386855125,79.04082536697388 3.7772443145513535,78.56831550598145 3.7772443145513535,78.56831550598145 3.1177427619695663,78.05682420730591 3.1177427619695663,78.05682420730591 2.6656726375222206,77.52318382263184 2.6656726375222206,77.52318382263184 2.4979012086987495,76.98463797569275 2.4979012086987495,76.98463797569275 2.4979012086987495,71.45894765853882 2.4979012086987495,71.45894765853882 5.013588070869446,73.52964878082275 5.013588070869446,73.52964878082275 7.583313435316086,74.44285154342651 7.583313435316086,74.44285154342651 10.194061696529388,74.43426847457886 10.194061696529388,74.43426847457886 12.832681834697723,73.73960018157959 12.832681834697723,73.73960018157959 15.486088395118713,72.59443402290344 15.486088395118713,72.59443402290344 18.141335248947144,71.2344765663147 18.141335248947144,71.2344765663147 20.785200595855713,69.89530324935913 20.785200595855713,69.89530324935913 23.404604196548462,68.81276369094849 23.404604196548462,68.81276369094849 24.947665631771088,68.41275691986084 24.947665631771088,68.41275691986084 26.392054557800293,68.2767391204834 26.392054557800293,68.2767391204834 27.75065004825592,68.38563084602356 27.75065004825592,68.38563084602356 29.03619408607483,68.72042417526245 29.03619408607483,68.72042417526245 30.26149868965149,69.26210522651672 30.26149868965149,69.26210522651672 31.439238786697388,69.99179720878601 31.439238786697388,69.99179720878601 32.58249759674072,70.89034914970398 32.58249759674072,70.89034914970398 33.703675866127014,71.93868160247803 33.703675866127014,71.93868160247803 34.80638861656189,72.9008138179779 34.80638861656189,72.9008138179779 35.96988618373871,73.64501953125 35.96988618373871,73.64501953125 37.18721866607666,74.17668104171753 37.18721866607666,74.17668104171753 38.45170438289642,74.50097799301147 38.45170438289642,74.50097799301147 39.75633084774017,74.62329864501953 39.75633084774017,74.62329864501953 41.09434485435486,74.54915642738342 41.09434485435486,74.54915642738342 42.45852828025818,74.28353428840637 42.45852828025818,74.28353428840637 43.84247362613678,73.83200526237488 43.84247362613678,73.83200526237488 45.37762999534607,73.15860390663147 45.37762999534607,73.15860390663147 46.881917119026184,72.38503098487854 46.881917119026184,72.38503098487854 48.37093949317932,71.55911922454834 48.37093949317932,71.55911922454834 49.86030459403992,70.72850465774536 49.86030459403992,70.72850465774536 51.36554837226868,69.94109749794006 51.36554837226868,69.94109749794006 52.90226936340332,69.24465894699097 52.90226936340332,69.24465894699097 54.48601245880127,68.68683099746704 54.48601245880127,68.68683099746704 56.13245368003845,68.31558346748352 56.13245368003845,68.31558346748352 57.65438675880432,68.21813583374023 57.65438675880432,68.21813583374023 58.996427059173584,68.40301156044006 58.996427059173584,68.40301156044006 60.1981520652771,68.82434487342834 60.1981520652771,68.82434487342834 61.29943132400513,69.43649053573608 61.29943132400513,69.43649053573608 62.33999729156494,70.19343376159668 62.33999729156494,70.19343376159668 63.35957646369934,71.04946374893188 63.35957646369934,71.04946374893188 64.39796090126038,71.95857763290405 64.39796090126038,71.95857763290405 65.49494862556458,72.8752613067627 65.49494862556458,72.8752613067627 68.33847761154175,74.40475821495056 68.33847761154175,74.40475821495056 71.17390036582947,74.6878981590271 71.17390036582947,74.6878981590271 74.0053653717041,74.0459144115448 74.0053653717041,74.0459144115448 76.83703899383545,72.80016541481018 76.83703899383545,72.80016541481018 79.67300415039062,71.27195596694946 79.67300415039062,71.27195596694946 82.51755833625793,69.78259086608887 82.51755833625793,69.78259086608887 85.37464737892151,68.65330338478088 85.37464737892151,68.65330338478088" stroke="white" stroke-width="0.1" /><polygon points="88.2486343383789,79.15599346160889 88.2486343383789,79.15599346160889 88.2486343383789,79.15599346160889 88.2486343383789,79.15599346160889 89.12292718887329,79.2252242565155 89.12292718887329,79.2252242565155 90.1384174823761,79.4289767742157 90.1384174823761,79.4289767742157 91.21557474136353,79.7614574432373 91.21557474136353,79.7614574432373 92.2750174999237,80.2167296409607 92.2750174999237,80.2167296409607 93.23728084564209,80.78900575637817 93.23728084564209,80.78900575637817 94.02305483818054,81.47242665290833 94.02305483818054,81.47242665290833 94.552743434906,82.26119875907898 94.552743434906,82.26119875907898 94.74688768386841,83.149254322052 94.74688768386841,83.149254322052 94.74688768386841,88.04311156272888 94.74688768386841,88.04311156272888 93.25289130210876,86.66754961013794 93.25289130210876,86.66754961013794 91.69204235076904,85.72061657905579 91.69204235076904,85.72061657905579 90.07313251495361,85.16469597816467 90.07313251495361,85.16469597816467 88.4050965309143,84.9622368812561 88.4050965309143,84.9622368812561 86.69685125350952,85.07576584815979 86.69685125350952,85.07576584815979 84.95705723762512,85.46779751777649 84.95705723762512,85.46779751777649 83.19491147994995,86.10072731971741 83.19491147994995,86.10072731971741 81.41893148422241,86.93699240684509 81.41893148422241,86.93699240684509 79.83846068382263,87.79833912849426 79.83846068382263,87.79833912849426 78.18854451179504,88.71958255767822 78.18854451179504,88.71958255767822 76.48098468780518,89.61458802223206 76.48098468780518,89.61458802223206 74.72769618034363,90.39716124534607 74.72769618034363,90.39716124534607 72.94040322303772,90.98109006881714 72.94040322303772,90.98109006881714 71.13116979598999,91.27997159957886 71.13116979598999,91.27997159957886 69.3115770816803,91.20787382125854 69.3115770816803,91.20787382125854 67.49348640441895,90.6783938407898 67.49348640441895,90.6783938407898 66.68890714645386,90.26243686676025 66.68890714645386,90.26243686676025 65.95730781555176,89.765465259552 65.95730781555176,89.765465259552 65.2789294719696,89.20851945877075 65.2789294719696,89.20851945877075 64.63415026664734,88.61252665519714 64.63415026664734,88.61252665519714 64.00326490402222,87.99827098846436 64.00326490402222,87.99827098846436 63.366591930389404,87.38674521446228 63.366591930389404,87.38674521446228 62.704503536224365,86.79893016815186 62.704503536224365,86.79893016815186 61.99723482131958,86.25555038452148 61.99723482131958,86.25555038452148 61.33323311805725,85.83645820617676 61.33323311805725,85.83645820617676 60.64333915710449,85.48749089241028 60.64333915710449,85.48749089241028 59.93068218231201,85.20912528038025 59.93068218231201,85.20912528038025 59.19833779335022,85.00230312347412 59.19833779335022,85.00230312347412 58.44922661781311,84.86751317977905 58.44922661781311,84.86751317977905 57.68662095069885,84.80543494224548 57.68662095069885,84.80543494224548 56.91325068473816,84.81688499450684 56.91325068473816,84.81688499450684 56.13245368003845,84.90247130393982 56.13245368003845,84.90247130393982 54.14297580718994,85.38193702697754 54.14297580718994,85.38193702697754 52.249377965927124,86.12368702888489 52.249377965927124,86.12368702888489 50.41963458061218,87.04037070274353 50.41963458061218,87.04037070274353 48.62184822559357,88.04447650909424 48.62184822559357,88.04447650909424 46.82406187057495,89.04865384101868 46.82406187057495,89.04865384101868 44.99431848526001,89.96526002883911 44.99431848526001,89.96526002883911 43.10072064399719,90.70701599121094 43.10072064399719,90.70701599121094 41.11124575138092,91.18647575378418 41.11124575138092,91.18647575378418 40.24703800678253,91.2765622138977 40.24703800678253,91.2765622138977 39.39591348171234,91.27492904663086 39.39591348171234,91.27492904663086 38.56114447116852,91.18347764015198 38.56114447116852,91.18347764015198 37.74586617946625,91.00473523139954 37.74586617946625,91.00473523139954 36.953482031822205,90.74074625968933 36.953482031822205,90.74074625968933 36.187198758125305,90.39368629455566 36.187198758125305,90.39368629455566 35.45035421848297,89.9658739566803 35.45035421848297,89.9658739566803 34.74601209163666,89.45942521095276 34.74601209163666,89.45942521095276 34.069883823394775,88.88558149337769 34.069883823394775,88.88558149337769 33.42878222465515,88.28747868537903 33.42878222465515,88.28747868537903 32.80355632305145,87.68337965011597 32.80355632305145,87.68337965011597 32.175061106681824,87.09161281585693 32.175061106681824,87.09161281585693 31.52441680431366,86.53044104576111 31.52441680431366,86.53044104576111 30.832207202911377,86.01813316345215 30.832207202911377,86.01813316345215 30.079689621925354,85.57294607162476 30.079689621925354,85.57294607162476 29.247575998306274,85.21321415901184 29.247575998306274,85.21321415901184 27.388939261436462,84.8087728023529 27.388939261436462,84.8087728023529 25.539636611938477,84.85047817230225 25.539636611938477,84.85047817230225 23.70859533548355,85.24946570396423 23.70859533548355,85.24946570396423 21.90474569797516,85.91707348823547 21.90474569797516,85.91707348823547 20.137079060077667,86.76444888114929 20.137079060077667,86.76444888114929 18.414388597011566,87.70293593406677 18.414388597011566,87.70293593406677 16.745737195014954,88.64373564720154 16.745737195014954,88.64373564720154 15.140050649642944,89.4981324672699 15.140050649642944,89.4981324672699 13.433374464511871,90.25296568870544 13.433374464511871,90.25296568870544 11.74720898270607,90.79328179359436 11.74720898270607,90.79328179359436 10.089460015296936,91.09250903129578 10.089460015296936,91.09250903129578 8.467759937047958,91.12405776977539 8.467759937047958,91.12405776977539 6.890012323856354,90.86142778396606 6.890012323856354,90.86142778396606 5.3639184683561325,90.27811288833618 5.3639184683561325,90.27811288833618 3.8972463458776474,89.34746384620667 3.8972463458776474,89.34746384620667 2.4979012086987495,88.04311156272888 2.4979012086987495,88.04311156272888 2.422124706208706,87.7436876296997 2.422124706208706,87.7436876296997 2.3866213858127594,87.40296363830566 2.3866213858127594,87.40296363830566 2.3819195106625557,87.03410029411316 2.3819195106625557,87.03410029411316 2.398955449461937,86.65017485618591 2.398955449461937,86.65017485618591 2.4282576516270638,86.26440763473511 2.4282576516270638,86.26440763473511 2.4607624858617783,85.88988780975342 2.4607624858617783,85.88988780975342 2.487134374678135,85.53982973098755 2.487134374678135,85.53982973098755 2.4979012086987495,85.22738814353943 2.4979012086987495,85.22738814353943 2.4979012086987495,82.40838646888733 2.4979012086987495,82.40838646888733 5.1049016416072845,84.53858494758606 5.1049016416072845,84.53858494758606 7.7628739178180695,85.43182015419006 7.7628739178180695,85.43182015419006 10.461188107728958,85.35086512565613 10.461188107728958,85.35086512565613 13.189075887203217,84.55848097801208 13.189075887203217,84.55848097801208 15.9358412027359,83.31763744354248 15.9358412027359,83.31763744354248 18.690647184848785,81.89103603363037 18.690647184848785,81.89103603363037 21.442998945713043,80.54164052009583 21.442998945713043,80.54164052009583 24.181994795799255,79.5321524143219 24.181994795799255,79.5321524143219 25.770848989486694,79.2318344116211 25.770848989486694,79.2318344116211 27.204743027687073,79.2293131351471 27.204743027687073,79.2293131351471 28.513935208320618,79.48758006095886 28.513935208320618,79.48758006095886 29.728540778160095,79.97011542320251 29.728540778160095,79.97011542320251 30.878886580467224,80.63990473747253 30.878886580467224,80.63990473747253 31.994956731796265,81.46029710769653 31.994956731796265,81.46029710769653 33.10714066028595,82.39434957504272 33.10714066028595,82.39434957504272 34.24555957317352,83.40547680854797 34.24555957317352,83.40547680854797 35.4119211435318,84.29414629936218 35.4119211435318,84.29414629936218 36.62693500518799,84.9385917186737 36.62693500518799,84.9385917186737 37.8833144903183,85.35358905792236 37.8833144903183,85.35358905792236 39.173489809036255,85.5539321899414 39.173489809036255,85.5539321899414 40.490177273750305,85.55420637130737 40.490177273750305,85.55420637130737 41.82594418525696,85.36912798881531 41.82594418525696,85.36912798881531 43.1733638048172,85.01341342926025 43.1733638048172,85.01341342926025 44.52500641345978,84.50178503990173 44.52500641345978,84.50178503990173 45.964354276657104,83.82081985473633 45.964354276657104,83.82081985473633 47.38638997077942,83.06284546852112 47.38638997077942,83.06284546852112 48.80324900150299,82.26991891860962 48.80324900150299,82.26991891860962 50.22664666175842,81.48400783538818 50.22664666175842,81.48400783538818 51.66865587234497,80.74730038642883 51.66865587234497,80.74730038642883 53.141117095947266,80.10169863700867 53.141117095947266,80.10169863700867 54.65596914291382,79.58945631980896 54.65596914291382,79.58945631980896 56.22512698173523,79.25248742103577 56.22512698173523,79.25248742103577 56.92988038063049,79.17922735214233 56.92988038063049,79.17922735214233 57.629722356796265,79.16669249534607 57.629722356796265,79.16669249534607 58.32206606864929,79.21479940414429 58.32206606864929,79.21479940414429 59.00453329086304,79.32342290878296 59.00453329086304,79.32342290878296 59.67445969581604,79.49249148368835 59.67445969581604,79.49249148368835 60.32946705818176,79.72186207771301 60.32946705818176,79.72186207771301 60.96675395965576,80.01147508621216 60.96675395965576,80.01147508621216 61.584001779556274,80.36133050918579 61.584001779556274,80.36133050918579 62.19007968902588,80.78082799911499 62.19007968902588,80.78082799911499 62.755608558654785,81.24420642852783 62.755608558654785,81.24420642852783 63.29313516616821,81.73818588256836 63.29313516616821,81.73818588256836 63.81491422653198,82.2492003440857 63.81491422653198,82.2492003440857 64.33356404304504,82.76403546333313 64.33356404304504,82.76403546333313 64.86133933067322,83.26932191848755 64.86133933067322,83.26932191848755 65.41078686714172,83.75164866447449 65.41078686714172,83.75164866447449 65.99431037902832,84.19758677482605 65.99431037902832,84.19758677482605 68.80560517311096,85.4921281337738 68.80560517311096,85.4921281337738 71.5926468372345,85.63039302825928 71.5926468372345,85.63039302825928 74.36332702636719,84.91542339324951 74.36332702636719,84.91542339324951 77.1255612373352,83.65059494972229 77.1255612373352,83.65059494972229 79.88731861114502,82.13908076286316 79.88731861114502,82.13908076286316 82.65643119812012,80.68392872810364 82.65643119812012,80.68392872810364 85.44088006019592,79.58850264549255 85.44088006019592,79.58850264549255" stroke="white" stroke-width="0.1" /></svg>