<?xml version="1.0" encoding="utf-8" ?>
<svg baseProfile="full" height="99.99999403953552" version="1.1" width="97.12591767311096" xmlns="http://www.w3.org/2000/svg" xmlns:ev="http://www.w3.org/2001/xml-events" xmlns:xlink="http://www.w3.org/1999/xlink"><defs><clipPath /></defs><polygon points="85.04897952079773,40.37618637084961 85.04897952079773,40.37618637084961 85.04897952079773,54.13963198661804 85.04897952079773,54.13963198661804 84.20969247817993,53.941309452056885 84.20969247817993,53.941309452056885 83.4051787853241,53.76880764961243 83.4051787853241,53.76880764961243 82.63450264930725,53.62238883972168 82.63450264930725,53.62238883972168 81.89741373062134,53.50213050842285 81.89741373062134,53.50213050842285 81.19324445724487,53.408282995224 81.19324445724487,53.408282995224 80.52130937576294,53.340935707092285 80.52130937576294,53.340935707092285 79.88135814666748,53.30042839050293 79.88135814666748,53.30042839050293 79.27246689796448,53.286927938461304 79.27246689796448,53.286927938461304 79.192715883255,53.28717827796936 79.192715883255,53.28717827796936 79.11372184753418,53.28776836395264 79.11372184753418,53.28776836395264 79.03532385826111,53.28895449638367 79.03532385826111,53.28895449638367 78.9576768875122,53.29046845436096 78.9576768875122,53.29046845436096 78.88063192367554,53.292495012283325 78.88063192367554,53.292495012283325 78.80442142486572,53.29486131668091 78.80442142486572,53.29486131668091 78.72889041900635,53.29781174659729 78.72889041900635,53.29781174659729 78.65403294563293,53.30110788345337 78.65403294563293,53.30110788345337 77.99712419509888,53.34600210189819 77.99712419509888,53.34600210189819 77.30045914649963,53.42009663581848 77.30045914649963,53.42009663581848 76.5624463558197,53.52364778518677 76.5624463558197,53.52364778518677 75.78181028366089,53.656989336013794 75.78181028366089,53.656989336013794 74.95712637901306,53.82037162780762 74.95712637901306,53.82037162780762 74.08678531646729,54.01405692100525 74.08678531646729,54.01405692100525 73.16943407058716,54.23828363418579 73.16943407058716,54.23828363418579 72.20373153686523,54.49340343475342 72.20373153686523,54.49340343475342 71.8995749950409,54.58623766899109 71.8995749950409,54.58623766899109 71.60335779190063,54.695528745651245 71.60335779190063,54.695528745651245 71.31566405296326,54.82051372528076 71.31566405296326,54.82051372528076 71.03674411773682,54.9608588218689 71.03674411773682,54.9608588218689 70.76736688613892,55.115967988967896 70.76736688613892,55.115967988967896 70.50811052322388,55.28534650802612 70.50811052322388,55.28534650802612 70.2593207359314,55.46839237213135 70.2593207359314,55.46839237213135 70.02167105674744,55.664777755737305 70.02167105674744,55.664777755737305 69.92951035499573,55.65979480743408 69.92951035499573,55.65979480743408 69.8373556137085,55.65558075904846 69.8373556137085,55.65558075904846 69.74502801895142,55.65195083618164 69.74502801895142,55.65195083618164 69.65287327766418,55.64899444580078 69.65287327766418,55.64899444580078 69.5605456829071,55.64671754837036 69.5605456829071,55.64671754837036 69.4682240486145,55.6451141834259 69.4682240486145,55.6451141834259 69.37572956085205,55.64418435096741 69.37572956085205,55.64418435096741 69.28306221961975,55.64384460449219 69.28306221961975,55.64384460449219 69.15099024772644,55.64452409744263 69.15099024772644,55.64452409744263 69.01874542236328,55.64655065536499 69.01874542236328,55.64655065536499 68.88667345046997,55.65009117126465 68.88667345046997,55.65009117126465 68.75442862510681,55.65490126609802 68.75442862510681,55.65490126609802 68.62226724624634,55.6610643863678 68.62226724624634,55.6610643863678 68.49011182785034,55.66865801811218 68.49011182785034,55.66865801811218 68.35795044898987,55.67752122879028 68.35795044898987,55.67752122879028 68.22579503059387,55.68773150444031 68.22579503059387,55.68773150444031 66.65321588516235,55.93956112861633 66.65321588516235,55.93956112861633 65.18765091896057,56.39578700065613 65.18765091896057,56.39578700065613 63.82656693458557,57.0296585559845 63.82656693458557,57.0296585559845 62.56759762763977,57.81383514404297 62.56759762763977,57.81383514404297 61.408209800720215,58.72131586074829 61.408209800720215,58.72131586074829 60.34587621688843,59.725165367126465 60.34587621688843,59.725165367126465 59.37805771827698,60.798048973083496 59.37805771827698,60.798048973083496 58.502399921417236,61.91321611404419 58.502399921417236,61.91321611404419 58.502399921417236,40.37618637084961 58.502399921417236,40.37618637084961 58.558857440948486,39.82088267803192 58.558857440948486,39.82088267803192 58.72071981430054,39.3027126789093 58.72071981430054,39.3027126789093 58.9765191078186,38.83306682109833 58.9765191078186,38.83306682109833 59.31493043899536,38.423338532447815 59.31493043899536,38.423338532447815 59.72457528114319,38.08484077453613 59.72457528114319,38.08484077453613 60.19430160522461,37.829047441482544 60.19430160522461,37.829047441482544 60.71247458457947,37.66726553440094 60.71247458457947,37.66726553440094 61.267781257629395,37.61080503463745 61.267781257629395,37.61080503463745 82.28359818458557,37.61080503463745 82.28359818458557,37.61080503463745 82.83898830413818,37.66726553440094 82.83898830413818,37.66726553440094 83.35707187652588,37.829047441482544 83.35707187652588,37.829047441482544 83.82680416107178,38.08492422103882 83.82680416107178,38.08492422103882 84.23644304275513,38.423338532447815 84.23644304275513,38.423338532447815 84.57494378089905,38.83306682109833 84.57494378089905,38.83306682109833 84.83073711395264,39.3027126789093 84.83073711395264,39.3027126789093 84.99252200126648,39.820799231529236 84.99252200126648,39.820799231529236" stroke="white" stroke-width="0.1" /><polygon points="63.3445143699646,99.99999403953552 63.3445143699646,99.99999403953552 58.502399921417236,99.99999403953552 58.502399921417236,99.99999403953552 58.502399921417236,90.69856405258179 58.502399921417236,90.69856405258179 58.62519145011902,90.91739654541016 58.62519145011902,90.91739654541016 58.749669790267944,91.13706946372986 58.749669790267944,91.13706946372986 58.8759183883667,91.35767221450806 58.8759183883667,91.35767221450806 59.004199504852295,91.57912135124207 59.004199504852295,91.57912135124207 59.134501218795776,91.80175065994263 59.134501218795776,91.80175065994263 59.26707983016968,92.02547073364258 59.26707983016968,92.02547073364258 59.40202474594116,92.25054979324341 59.40202474594116,92.25054979324341 59.53941345214844,92.47689247131348 59.53941345214844,92.47689247131348 59.95749831199646,93.07042360305786 59.95749831199646,93.07042360305786 60.441070795059204,93.59560012817383 60.441070795059204,93.59560012817383 60.981690883636475,94.04895901679993 60.981690883636475,94.04895901679993 61.57142519950867,94.42746043205261 61.57142519950867,94.42746043205261 62.202173471450806,94.72755789756775 62.202173471450806,94.72755789756775 62.86558508872986,94.9460506439209 62.86558508872986,94.9460506439209 63.55389356613159,95.07956504821777 63.55389356613159,95.07956504821777 64.25865888595581,95.12479901313782 64.25865888595581,95.12479901313782 64.27241563796997,95.12479901313782 64.27241563796997,95.12479901313782 64.28617238998413,95.12471556663513 64.28617238998413,95.12471556663513 64.30017948150635,95.12454271316528 64.30017948150635,95.12454271316528 64.31418657302856,95.12437582015991 64.31418657302856,95.12437582015991 64.32836651802063,95.12420892715454 64.32836651802063,95.12420892715454 64.34237360954285,95.123952627182 64.34237360954285,95.123952627182 64.3566370010376,95.12378573417664 64.3566370010376,95.12378573417664 64.37073349952698,95.12344598770142 64.37073349952698,95.12344598770142 64.25553560256958,95.59208154678345 64.25553560256958,95.59208154678345 64.14169073104858,96.05480432510376 64.14169073104858,96.05480432510376 64.02961611747742,96.51128649711609 64.02961611747742,96.51128649711609 63.919228315353394,96.96109890937805 63.919228315353394,96.96109890937805 63.81070017814636,97.40374088287354 63.81070017814636,97.40374088287354 63.70403170585632,97.83886671066284 63.70403170585632,97.83886671066284 63.59955072402954,98.26606512069702 63.59955072402954,98.26606512069702 63.49709630012512,98.68481755256653 63.49709630012512,98.68481755256653 63.459962606430054,98.8483726978302 63.459962606430054,98.8483726978302 63.42823505401611,99.01226162910461 63.42823505401611,99.01226162910461 63.40198516845703,99.1766631603241 63.40198516845703,99.1766631603241 63.380807638168335,99.34114217758179 63.380807638168335,99.34114217758179 63.36468458175659,99.50579404830933 63.36468458175659,99.50579404830933 63.353294134140015,99.67061281204224 63.353294134140015,99.67061281204224 63.346707820892334,99.83526468276978 63.346707820892334,99.83526468276978" stroke="white" stroke-width="0.1" /><polygon points="37.48658001422882,99.99999403953552 37.48658001422882,99.99999403953552 37.48658001422882,50.883424282073975 37.48658001422882,50.883424282073975 37.37416863441467,49.76884722709656 37.37416863441467,49.76884722709656 37.051957845687866,48.73073101043701 37.051957845687866,48.73073101043701 36.54197156429291,47.79118597507477 36.54197156429291,47.79118597507477 35.86657643318176,46.97266221046448 35.86657643318176,46.97266221046448 35.04805266857147,46.29726707935333 35.04805266857147,46.29726707935333 34.10850763320923,45.787280797958374 34.10850763320923,45.787280797958374 33.070307970047,45.46507000923157 33.070307970047,45.46507000923157 31.955817341804504,45.35265862941742 31.955817341804504,45.35265862941742 26.425054669380188,45.35265862941742 26.425054669380188,45.35265862941742 26.425054669380188,5.530762672424316 26.425054669380188,5.530762672424316 26.53738260269165,4.4161878526210785 26.53738260269165,4.4161878526210785 26.859763264656067,3.378072753548622 26.859763264656067,3.378072753548622 27.3696631193161,2.438570372760296 27.3696631193161,2.438570372760296 28.045058250427246,1.6200030222535133 28.045058250427246,1.6200030222535133 28.86366844177246,0.9446501731872559 28.86366844177246,0.9446501731872559 29.803043603897095,0.434664823114872 29.803043603897095,0.434664823114872 30.84115982055664,0.11236893478780985 30.84115982055664,0.11236893478780985 31.955817341804504,0.0 31.955817341804504,0.0 58.502399921417236,0.0 58.502399921417236,0.0 59.616971015930176,0.11236893478780985 59.616971015930176,0.11236893478780985 60.65508723258972,0.43470701202750206 60.65508723258972,0.43470701202750206 61.59454584121704,0.9446501731872559 61.59454584121704,0.9446501731872559 62.413156032562256,1.6200030222535133 62.413156032562256,1.6200030222535133 63.08855414390564,2.438570372760296 63.08855414390564,2.438570372760296 63.59853744506836,3.3780302852392197 63.59853744506836,3.3780302852392197 63.920748233795166,4.4161878526210785 63.920748233795166,4.4161878526210785 64.03316259384155,5.530762672424316 64.03316259384155,5.530762672424316 64.03316259384155,32.080042362213135 64.03316259384155,32.080042362213135 58.502399921417236,32.080042362213135 58.502399921417236,32.080042362213135 57.38782286643982,32.19245374202728 57.38782286643982,32.19245374202728 56.34970664978027,32.51466751098633 56.34970664978027,32.51466751098633 55.41016459465027,33.02465081214905 55.41016459465027,33.02465081214905 54.59163784980774,33.70004594326019 54.59163784980774,33.70004594326019 53.91632914543152,34.51857268810272 53.91632914543152,34.51857268810272 53.40633988380432,35.458117723464966 53.40633988380432,35.458117723464966 53.083962202072144,36.49623095989227 53.083962202072144,36.49623095989227 52.97163724899292,37.61080503463745 52.97163724899292,37.61080503463745 52.97163724899292,99.99999403953552 52.97163724899292,99.99999403953552" stroke="white" stroke-width="0.1" /><polygon points="5.714401230216026,63.78200650215149 5.714401230216026,63.78200650215149 5.673555284738541,63.89644742012024 5.673555284738541,63.89644742012024 5.63540980219841,64.0113890171051 5.63540980219841,64.0113890171051 5.599711462855339,64.12667036056519 5.599711462855339,64.12667036056519 5.566545203328133,64.24254179000854 5.566545203328133,64.24254179000854 5.535826086997986,64.35874700546265 5.535826086997986,64.35874700546265 5.507892370223999,64.47538137435913 5.507892370223999,64.47538137435913 5.482236668467522,64.59234952926636 5.482236668467522,64.59234952926636 5.459197610616684,64.70965147018433 5.459197610616684,64.70965147018433 5.452615022659302,64.71151113510132 5.452615022659302,64.71151113510132 5.4460324347019196,64.71370458602905 5.4460324347019196,64.71370458602905 5.439534038305283,64.71606492996216 5.439534038305283,64.71606492996216 5.432867258787155,64.71843123435974 5.432867258787155,64.71843123435974 5.426284298300743,64.72079157829285 5.426284298300743,64.72079157829285 5.419701710343361,64.72315788269043 5.419701710343361,64.72315788269043 5.413119122385979,64.72535133361816 5.413119122385979,64.72535133361816 5.4065365344285965,64.72720503807068 5.4065365344285965,64.72720503807068 5.4065365344285965,53.64880561828613 5.4065365344285965,53.64880561828613 5.462995171546936,53.093498945236206 5.462995171546936,53.093498945236206 5.62477633357048,52.57532596588135 5.62477633357048,52.57532596588135 5.880654975771904,52.10568308830261 5.880654975771904,52.10568308830261 6.21907003223896,51.6959547996521 6.21907003223896,51.6959547996521 6.628796458244324,51.357537508010864 6.628796458244324,51.357537508010864 7.098442316055298,51.10166072845459 7.098442316055298,51.10166072845459 7.616529613733292,50.93979835510254 7.616529613733292,50.93979835510254 8.171918243169785,50.883424282073975 8.171918243169785,50.883424282073975 29.190436005592346,50.883424282073975 29.190436005592346,50.883424282073975 29.745739698410034,50.939881801605225 29.745739698410034,50.939881801605225 30.263912677764893,51.10166072845459 30.263912677764893,51.10166072845459 30.733558535575867,51.357537508010864 30.733558535575867,51.357537508010864 31.14328384399414,51.6959547996521 31.14328384399414,51.6959547996521 31.481698155403137,52.10568308830261 31.481698155403137,52.10568308830261 31.73757791519165,52.57532596588135 31.73757791519165,52.57532596588135 31.89927339553833,53.093498945236206 31.89927339553833,53.093498945236206 31.955817341804504,53.64880561828613 31.955817341804504,53.64880561828613 31.955817341804504,65.3125524520874 31.955817341804504,65.3125524520874 31.23510479927063,64.60348963737488 31.23510479927063,64.60348963737488 30.461645126342773,63.93898129463196 30.461645126342773,63.93898129463196 29.634004831314087,63.33034038543701 29.634004831314087,63.33034038543701 28.751087188720703,62.7890408039093 28.751087188720703,62.7890408039093 27.811458706855774,62.326234579086304 27.811458706855774,62.326234579086304 26.813852787017822,61.95330023765564 26.813852787017822,61.95330023765564 25.757169723510742,61.68164014816284 25.757169723510742,61.68164014816284 24.639980494976044,61.522310972213745 24.639980494976044,61.522310972213745 24.512800574302673,61.512601375579834 24.512800574302673,61.512601375579834 24.387477338314056,61.5042507648468 24.387477338314056,61.5042507648468 24.263504147529602,61.49715781211853 24.263504147529602,61.49715781211853 24.14088100194931,61.491334438323975 24.14088100194931,61.491334438323975 24.019186198711395,61.48686408996582 24.019186198711395,61.48686408996582 23.89816790819168,61.483657360076904 23.89816790819168,61.483657360076904 23.777401447296143,61.48171424865723 23.777401447296143,61.48171424865723 23.656973242759705,61.48112416267395 23.656973242759705,61.48112416267395 23.613426089286804,61.48112416267395 23.613426089286804,61.48112416267395 23.570048809051514,61.48146390914917 23.570048809051514,61.48146390914917 23.52675497531891,61.48179769515991 23.52675497531891,61.48179769515991 23.483461141586304,61.48222088813782 23.483461141586304,61.48222088813782 23.440168797969818,61.48289442062378 23.440168797969818,61.48289442062378 23.396874964237213,61.483657360076904 23.396874964237213,61.483657360076904 23.353327810764313,61.484670639038086 23.353327810764313,61.484670639038086 23.309950530529022,61.48585081100464 23.309950530529022,61.48585081100464 23.095761239528656,61.32896542549133 23.095761239528656,61.32896542549133 22.873640060424805,61.182206869125366 22.873640060424805,61.182206869125366 22.64409214258194,61.045998334884644 22.64409214258194,61.045998334884644 22.40728586912155,60.92050075531006 22.40728586912155,60.92050075531006 22.163642942905426,60.806238651275635 22.163642942905426,60.806238651275635 21.913588047027588,60.703444480895996 21.913588047027588,60.703444480895996 21.657371520996094,60.612553358078 21.657371520996094,60.612553358078 21.39524817466736,60.5338990688324 21.39524817466736,60.5338990688324 20.550644397735596,60.310763120651245 20.550644397735596,60.310763120651245 19.74790096282959,60.1146399974823 19.74790096282959,60.1146399974823 18.98566633462906,59.94534492492676 18.98566633462906,59.94534492492676 18.26258897781372,59.80246663093567 18.26258897781372,59.80246663093567 17.577573657035828,59.68583822250366 17.577573657035828,59.68583822250366 16.929268836975098,59.595197439193726 16.929268836975098,59.595197439193726 16.316324472427368,59.53029990196228 16.316324472427368,59.53029990196228 15.737558901309967,59.490805864334106 15.737558901309967,59.490805864334106 15.668018162250519,59.48793888092041 15.668018162250519,59.48793888092041 15.5983105301857,59.485405683517456 15.5983105301857,59.485405683517456 15.528179705142975,59.48321223258972 15.528179705142975,59.48321223258972 15.45771211385727,59.48135256767273 15.45771211385727,59.48135256767273 15.386822819709778,59.480005502700806 15.386822819709778,59.480005502700806 15.315595269203186,59.478819370269775 15.315595269203186,59.478819370269775 15.243944525718689,59.47814583778381 15.243944525718689,59.47814583778381 15.17179012298584,59.47797894477844 15.17179012298584,59.47797894477844 14.577749371528625,59.491562843322754 14.577749371528625,59.491562843322754 13.953326642513275,59.53240990638733 13.953326642513275,59.53240990638733 13.29725831747055,59.600770473480225 13.29725831747055,59.600770473480225 12.608274817466736,59.69681143760681 12.608274817466736,59.69681143760681 11.885029822587967,59.82078313827515 11.885029822587967,59.82078313827515 11.126592010259628,59.97277498245239 11.126592010259628,59.97277498245239 10.331190377473831,60.15295386314392 10.331190377473831,60.15295386314392 9.497896581888199,60.36173701286316 9.497896581888199,60.36173701286316 8.86056274175644,60.570526123046875 8.86056274175644,60.570526123046875 8.259855210781097,60.85129976272583 8.259855210781097,60.85129976272583 7.700499892234802,61.1994206905365 7.700499892234802,61.1994206905365 7.188405096530914,61.61007881164551 7.188405096530914,61.61007881164551 6.728380173444748,62.078458070755005 6.728380173444748,62.078458070755005 6.325910985469818,62.599748373031616 6.325910985469818,62.599748373031616 5.986145883798599,63.169145584106445 5.986145883798599,63.169145584106445" stroke="white" stroke-width="0.1" /><polygon points="28.871768712997437,96.60605788230896 28.871768712997437,96.60605788230896 29.3072372674942,96.51187658309937 29.3072372674942,96.51187658309937 29.732322692871094,96.38292193412781 29.732322692871094,96.38292193412781 30.14500141143799,96.22021317481995 30.14500141143799,96.22021317481995 30.54341971874237,96.0246741771698 30.54341971874237,96.0246741771698 30.925551056861877,95.79740762710571 30.925551056861877,95.79740762710571 31.289705634117126,95.53916454315186 31.289705634117126,95.53916454315186 31.633776426315308,95.25121450424194 31.633776426315308,95.25121450424194 31.955817341804504,94.93440985679626 31.955817341804504,94.93440985679626 31.955817341804504,99.99999403953552 31.955817341804504,99.99999403953552 29.53205704689026,99.99999403953552 29.53205704689026,99.99999403953552 29.529863595962524,99.83534812927246 29.529863595962524,99.83534812927246 29.523450136184692,99.67061281204224 29.523450136184692,99.67061281204224 29.512310028076172,99.50579404830933 29.512310028076172,99.50579404830933 29.496443271636963,99.34122562408447 29.496443271636963,99.34122562408447 29.475516080856323,99.17674660682678 29.475516080856323,99.17674660682678 29.449522495269775,99.01260137557983 29.449522495269775,99.01260137557983 29.417958855628967,98.8487958908081 29.417958855628967,98.8487958908081 29.3808251619339,98.68549704551697 29.3808251619339,98.68549704551697 29.314914345741272,98.41712713241577 29.314914345741272,98.41712713241577 29.249680042266846,98.151034116745 29.249680042266846,98.151034116745 29.18511927127838,97.88748025894165 29.18511927127838,97.88748025894165 29.121235013008118,97.62628078460693 29.121235013008118,97.62628078460693 29.058024287223816,97.36753702163696 29.058024287223816,97.36753702163696 28.995320200920105,97.1112310886383 28.995320200920105,97.1112310886383 28.933292627334595,96.8573808670044 28.933292627334595,96.8573808670044" stroke="white" stroke-width="0.1" /><polygon points="85.04897952079773,88.78048658370972 85.04897952079773,88.78048658370972 85.04897952079773,99.99999403953552 85.04897952079773,99.99999403953552 79.82743382453918,99.99999403953552 79.82743382453918,99.99999403953552 80.06001710891724,97.77911901473999 80.06001710891724,97.77911901473999 80.32804727554321,95.57520151138306 80.32804727554321,95.57520151138306 80.63101768493652,93.39171051979065 80.63101768493652,93.39171051979065 80.96842169761658,91.23193025588989 80.96842169761658,91.23193025588989 81.33966326713562,89.09940719604492 81.33966326713562,89.09940719604492 81.74449801445007,86.9975209236145 81.74449801445007,86.9975209236145 82.18215703964233,84.92964506149292 82.18215703964233,84.92964506149292 82.65222311019897,82.89932608604431 82.65222311019897,82.89932608604431 83.03384780883789,83.48028659820557 83.03384780883789,83.48028659820557 83.39184522628784,84.10707116127014 83.39184522628784,84.10707116127014 83.72637629508972,84.7788393497467 83.72637629508972,84.7788393497467 84.03744697570801,85.4945719242096 84.03744697570801,85.4945719242096 84.32514071464539,86.25360131263733 84.32514071464539,86.25360131263733 84.58971381187439,87.05474138259888 84.58971381187439,87.05474138259888 84.83090996742249,87.89740204811096 84.83090996742249,87.89740204811096" stroke="white" stroke-width="0.1" /><polygon points="13.652719557285309,99.99999403953552 13.652719557285309,99.99999403953552 5.4065365344285965,99.99999403953552 5.4065365344285965,99.99999403953552 5.4065365344285965,96.76336646080017 5.4065365344285965,96.76336646080017 5.435905233025551,96.76269292831421 5.435905233025551,96.76269292831421 5.465273931622505,96.76201343536377 5.465273931622505,96.76201343536377 5.4946426302194595,96.76133990287781 5.4946426302194595,96.76133990287781 5.524011328816414,96.76066637039185 5.524011328816414,96.76066637039185 5.5534642189741135,96.75981998443604 5.5534642189741135,96.75981998443604 5.582748726010323,96.75880670547485 5.582748726010323,96.75880670547485 5.612117424607277,96.75754308700562 5.612117424607277,96.75754308700562 5.641486123204231,96.75593972206116 5.641486123204231,96.75593972206116 6.586937606334686,96.61762118339539 6.586937606334686,96.61762118339539 7.47525617480278,96.32646441459656 7.47525617480278,96.32646441459656 8.291418105363846,95.89589238166809 8.291418105363846,95.89589238166809 9.020739793777466,95.33932209014893 9.020739793777466,95.33932209014893 9.648369252681732,94.670170545578 9.648369252681732,94.670170545578 10.159451514482498,93.90177726745605 10.159451514482498,93.90177726745605 10.539049655199051,93.04755330085754 10.539049655199051,93.04755330085754 10.772564262151718,92.12108850479126 10.772564262151718,92.12108850479126 10.876958072185516,91.52249097824097 10.876958072185516,91.52249097824097 10.99257618188858,90.94398021697998 10.99257618188858,90.94398021697998 11.119334399700165,90.38580656051636 11.119334399700165,90.38580656051636 11.257316172122955,89.84780311584473 11.257316172122955,89.84780311584473 11.406438797712326,89.33013677597046 11.406438797712326,89.33013677597046 11.566615849733353,88.8329803943634 11.566615849733353,88.8329803943634 11.738017201423645,88.3562445640564 11.738017201423645,88.3562445640564 11.920306086540222,87.90010213851929 11.920306086540222,87.90010213851929 12.18884363770485,89.29207921028137 12.18884363770485,89.29207921028137 12.442359328269958,90.71966409683228 12.442359328269958,90.71966409683228 12.681105732917786,92.18236207962036 12.681105732917786,92.18236207962036 12.905000150203705,93.67940425872803 12.905000150203705,93.67940425872803 13.114126026630402,95.21028399467468 13.114126026630402,95.21028399467468 13.308396935462952,96.774423122406 13.308396935462952,96.774423122406 13.487900793552399,98.37121963500977 13.487900793552399,98.37121963500977" stroke="white" stroke-width="0.1" /><polygon points="4.11161445081234,83.47792625427246 4.11161445081234,83.47792625427246 4.144864901900291,82.39524960517883 4.144864901900291,82.39524960517883 4.244786128401756,81.39755725860596 4.244786128401756,81.39755725860596 4.411377385258675,80.48476576805115 4.411377385258675,80.48476576805115 4.644639045000076,79.65695858001709 4.644639045000076,79.65695858001709 4.9445707350969315,78.91413569450378 4.9445707350969315,78.91413569450378 5.31134158372879,78.25612425804138 5.31134158372879,78.25612425804138 5.7447828352451324,77.68309712409973 5.7447828352451324,77.68309712409973 6.245062872767448,77.19505429267883 6.245062872767448,77.19505429267883 6.673693656921387,76.87098383903503 6.673693656921387,76.87098383903503 7.165534794330597,76.55906677246094 7.165534794330597,76.55906677246094 7.7205851674079895,76.25930905342102 7.7205851674079895,76.25930905342102 8.338847011327744,75.97169280052185 8.338847011327744,75.97169280052185 9.020233899354935,75.69623589515686 9.020233899354935,75.69623589515686 9.764577448368073,75.43293237686157 9.764577448368073,75.43293237686157 10.571878403425217,75.18178224563599 10.571878403425217,75.18178224563599 11.442305147647858,74.94277954101562 11.442305147647858,74.94277954101562 11.077813059091568,74.91518259048462 11.077813059091568,74.91518259048462 10.702518373727798,74.89003539085388 10.702518373727798,74.89003539085388 10.316337645053864,74.86733198165894 10.316337645053864,74.86733198165894 9.919185191392899,74.84707832336426 9.919185191392899,74.84707832336426 9.511145949363708,74.8291015625 9.511145949363708,74.8291015625 9.092304855585098,74.81349110603333 9.092304855585098,74.81349110603333 8.662576973438263,74.80007410049438 8.662576973438263,74.80007410049438 8.221878111362457,74.7888445854187 8.221878111362457,74.7888445854187 8.198079466819763,74.78867769241333 8.198079466819763,74.78867769241333 8.174280822277069,74.78833794593811 8.174280822277069,74.78833794593811 8.15039798617363,74.78808760643005 8.15039798617363,74.78808760643005 8.12651440501213,74.78792071342468 8.12651440501213,74.78792071342468 8.102547377347946,74.78766441345215 8.102547377347946,74.78766441345215 8.078495413064957,74.78766441345215 8.078495413064957,74.78766441345215 8.054358512163162,74.78749752044678 8.054358512163162,74.78749752044678 8.030138164758682,74.78749752044678 8.030138164758682,74.78749752044678 7.280055433511734,74.80454444885254 7.280055433511734,74.80454444885254 6.457563489675522,74.85568523406982 6.457563489675522,74.85568523406982 5.5626630783081055,74.94075298309326 5.5626630783081055,74.94075298309326 4.595353454351425,75.05983114242554 4.595353454351425,75.05983114242554 3.5555504262447357,75.21275281906128 3.5555504262447357,75.21275281906128 2.4430010467767715,75.3995954990387 2.4430010467767715,75.3995954990387 1.2578737922012806,75.62011480331421 1.2578737922012806,75.62011480331421 0.0,75.87447762489319 0.0,75.87447762489319 1.1294280178844929,74.46562051773071 1.1294280178844929,74.46562051773071 2.2296562790870667,73.24463129043579 2.2296562790870667,73.24463129043579 3.3011063933372498,72.21165895462036 3.3011063933372498,72.21165895462036 4.343356937170029,71.36655449867249 4.343356937170029,71.36655449867249 5.356575921177864,70.70930004119873 5.356575921177864,70.70930004119873 6.3407644629478455,70.23990750312805 6.3407644629478455,70.23990750312805 7.295921444892883,69.9582040309906 7.295921444892883,69.9582040309906 8.221878111362457,69.86436247825623 8.221878111362457,69.86436247825623 8.746801316738129,69.89102959632874 8.746801316738129,69.89102959632874 9.313076734542847,69.97094750404358 9.313076734542847,69.97094750404358 9.920451045036316,70.10420560836792 9.920451045036316,70.10420560836792 10.569009184837341,70.2907145023346 10.569009184837341,70.2907145023346 11.258835345506668,70.53055763244629 11.258835345506668,70.53055763244629 11.989592015743256,70.82365155220032 11.989592015743256,70.82365155220032 12.761448323726654,71.17008566856384 12.761448323726654,71.17008566856384 13.574403524398804,71.5697705745697 13.574403524398804,71.5697705745697 13.481909036636353,71.23388648033142 13.481909036636353,71.23388648033142 13.37844431400299,70.88450193405151 13.37844431400299,70.88450193405151 13.26417624950409,70.5216109752655 13.26417624950409,70.5216109752655 13.138768076896667,70.14521956443787 13.138768076896667,70.14521956443787 13.002558052539825,69.75549459457397 13.002558052539825,69.75549459457397 12.855292856693268,69.35226917266846 12.855292856693268,69.35226917266846 12.697140872478485,68.93587112426758 12.697140872478485,68.93587112426758 12.527933716773987,68.50597858428955 12.527933716773987,68.50597858428955 12.425818294286728,68.2589590549469 12.425818294286728,68.2589590549469 12.29475662112236,67.9826557636261 12.29475662112236,67.9826557636261 12.134578824043274,67.67715811729431 12.134578824043274,67.67715811729431 11.945454776287079,67.34253764152527 11.945454776287079,67.34253764152527 11.72729954123497,66.97863936424255 11.72729954123497,66.97863936424255 11.479944735765457,66.58570170402527 11.479944735765457,66.58570170402527 11.203642934560776,66.163569688797 11.203642934560776,66.163569688797 10.89814081788063,65.71223735809326 10.89814081788063,65.71223735809326 11.55201569199562,65.54767489433289 11.55201569199562,65.54767489433289 12.171627581119537,65.40488004684448 12.171627581119537,65.40488004684448 12.757059931755066,65.28403162956238 12.757059931755066,65.28403162956238 13.308396935462952,65.18504023551941 13.308396935462952,65.18504023551941 13.825471699237823,65.10798931121826 13.825471699237823,65.10798931121826 14.308451116085052,65.05287885665894 14.308451116085052,65.05287885665894 14.757168292999268,65.01971483230591 14.757168292999268,65.01971483230591 15.17179012298584,65.00874161720276 15.17179012298584,65.00874161720276 15.210694074630737,65.00882506370544 15.210694074630737,65.00882506370544 15.249431133270264,65.00916481018066 15.249431133270264,65.00916481018066 15.287913382053375,65.00958204269409 15.287913382053375,65.00958204269409 15.326228737831116,65.01034498214722 15.326228737831116,65.01034498214722 15.364204347133636,65.01127481460571 15.364204347133636,65.01127481460571 15.40175974369049,65.01245498657227 15.40175974369049,65.01245498657227 15.43889194726944,65.01380205154419 15.43889194726944,65.01380205154419 15.475603938102722,65.01549482345581 15.475603938102722,65.01549482345581 15.901617705821991,65.04570245742798 15.901617705821991,65.04570245742798 16.36527180671692,65.09794592857361 16.36527180671692,65.09794592857361 16.866564750671387,65.1720404624939 16.866564750671387,65.1720404624939 17.405496537685394,65.2679979801178 17.405496537685394,65.2679979801178 17.98206716775894,65.38563966751099 17.98206716775894,65.38563966751099 18.596193194389343,65.52513837814331 18.596193194389343,65.52513837814331 19.247789680957794,65.68624377250671 19.247789680957794,65.68624377250671 19.9369415640831,65.86887240409851 19.9369415640831,65.86887240409851 19.734735786914825,66.04145765304565 19.734735786914825,66.04145765304565 19.516834616661072,66.24914407730103 19.516834616661072,66.24914407730103 19.28340345621109,66.49211049079895 19.28340345621109,66.49211049079895 19.03410702943802,66.77018404006958 19.03410702943802,66.77018404006958 18.76911371946335,67.08353757858276 18.76911371946335,67.08353757858276 18.488340079784393,67.43199229240417 18.488340079784393,67.43199229240417 18.19169968366623,67.81564354896545 18.19169968366623,67.81564354896545 17.87910908460617,68.23456883430481 17.87910908460617,68.23456883430481 17.82442182302475,68.38901042938232 17.82442182302475,68.38901042938232 17.775557935237885,68.56167316436768 17.775557935237885,68.56167316436768 17.73277223110199,68.75256896018982 17.73277223110199,68.75256896018982 17.69597679376602,68.96169781684875 17.69597679376602,68.96169781684875 17.665258049964905,69.18905377388 17.665258049964905,69.18905377388 17.64044612646103,69.43463683128357 17.64044612646103,69.43463683128357 17.621710896492004,69.69844698905945 17.621710896492004,69.69844698905945 17.60905236005783,69.98048424720764 17.60905236005783,69.98048424720764 18.368586897850037,69.28483843803406 18.368586897850037,69.28483843803406 19.12710815668106,68.68184804916382 19.12710815668106,68.68184804916382 19.884532690048218,68.17161440849304 19.884532690048218,68.17161440849304 20.641113817691803,67.7541196346283 20.641113817691803,67.7541196346283 21.39659821987152,67.42937564849854 21.39659821987152,67.42937564849854 22.150984406471252,67.19746589660645 22.150984406471252,67.19746589660645 22.904527187347412,67.05830097198486 22.904527187347412,67.05830097198486 23.656973242759705,67.01188683509827 23.656973242759705,67.01188683509827 23.720267415046692,67.01222658157349 23.720267415046692,67.01222658157349 23.78356158733368,67.01323986053467 23.78356158733368,67.01323986053467 23.84677231311798,67.01475381851196 23.84677231311798,67.01475381851196 23.910151422023773,67.01703667640686 23.910151422023773,67.01703667640686 23.97344559431076,67.01998710632324 23.97344559431076,67.01998710632324 24.036824703216553,67.02353358268738 24.036824703216553,67.02353358268738 24.10011887550354,67.02792048454285 24.10011887550354,67.02792048454285 24.163329601287842,67.0328140258789 24.163329601287842,67.0328140258789 25.16287863254547,67.23569631576538 25.16287863254547,67.23569631576538 26.14419460296631,67.67006516456604 26.14419460296631,67.67006516456604 27.10728645324707,68.33600997924805 27.10728645324707,68.33600997924805 28.05214822292328,69.23344135284424 28.05214822292328,69.23344135284424 28.97869646549225,70.36244869232178 28.97869646549225,70.36244869232178 29.887181520462036,71.7229425907135 29.887181520462036,71.7229425907135 30.777356028556824,73.31501245498657 30.777356028556824,73.31501245498657 31.649303436279297,75.13856887817383 31.649303436279297,75.13856887817383 30.56451976299286,74.20856356620789 30.56451976299286,74.20856356620789 29.53290343284607,73.40252995491028 29.53290343284607,73.40252995491028 28.55479121208191,72.720468044281 28.55479121208191,72.720468044281 27.629846334457397,72.16237783432007 27.629846334457397,72.16237783432007 26.758238673210144,71.72825932502747 26.758238673210144,71.72825932502747 25.93996524810791,71.41820192337036 25.93996524810791,71.41820192337036 25.17477571964264,71.23211622238159 25.17477571964264,71.23211622238159 24.463093280792236,71.17008566856384 24.463093280792236,71.17008566856384 24.424777925014496,71.17025256156921 24.424777925014496,71.17025256156921 24.386802315711975,71.17084860801697 24.386802315711975,71.17084860801697 24.349161982536316,71.17177248001099 24.349161982536316,71.17177248001099 24.311691522598267,71.17312550544739 24.311691522598267,71.17312550544739 24.274559319019318,71.17481231689453 24.274559319019318,71.17481231689453 24.237342178821564,71.17692232131958 24.237342178821564,71.17692232131958 24.200378358364105,71.17937207221985 24.200378358364105,71.17937207221985 24.163329601287842,71.18223905563354 24.163329601287842,71.18223905563354 23.68718534708023,71.25819325447083 23.68718534708023,71.25819325447083 23.18909913301468,71.40781879425049 23.18909913301468,71.40781879425049 22.669240832328796,71.63146138191223 22.669240832328796,71.63146138191223 22.127607464790344,71.9289481639862 22.127607464790344,71.9289481639862 21.56403362751007,72.3004400730133 21.56403362751007,72.3004400730133 20.978854596614838,72.74578213691711 20.978854596614838,72.74578213691711 20.371563732624054,73.26505184173584 20.371563732624054,73.26505184173584 19.74250078201294,73.85849952697754 19.74250078201294,73.85849952697754 19.829508662223816,73.85656237602234 19.829508662223816,73.85656237602234 19.91634964942932,73.85495901107788 19.91634964942932,73.85495901107788 20.003020763397217,73.85360598564148 20.003020763397217,73.85360598564148 20.08935511112213,73.85242581367493 20.08935511112213,73.85242581367493 20.17543464899063,73.85149598121643 20.17543464899063,73.85149598121643 20.261093974113464,73.85090589523315 20.261093974113464,73.85090589523315 20.346415042877197,73.85056614875793 20.346415042877197,73.85056614875793 20.431144535541534,73.85039925575256 20.431144535541534,73.85039925575256 22.945035994052887,73.98019433021545 22.945035994052887,73.98019433021545 25.127601623535156,74.3695855140686 25.127601623535156,74.3695855140686 26.978588104248047,75.01856684684753 26.978588104248047,75.01856684684753 28.498247265815735,75.92722177505493 28.498247265815735,75.92722177505493 29.686328768730164,77.09555625915527 29.686328768730164,77.09555625915527 30.54291307926178,78.52356433868408 30.54291307926178,78.52356433868408 31.06817603111267,80.21125197410583 31.06817603111267,80.21125197410583 31.26177191734314,82.15869665145874 31.26177191734314,82.15869665145874 31.226494908332825,83.04625749588013 31.226494908332825,83.04625749588013 31.082183122634888,84.0014100074768 31.082183122634888,84.0014100074768 30.828920006752014,85.02433896064758 30.828920006752014,85.02433896064758 30.466455221176147,86.11502647399902 30.466455221176147,86.11502647399902 29.99495267868042,87.27357387542725 29.99495267868042,87.27357387542725 29.414162039756775,88.50005269050598 29.414162039756775,88.50005269050598 28.724250197410583,89.7944688796997 28.724250197410583,89.7944688796997 27.925220131874084,91.1569893360138 27.925220131874084,91.1569893360138 27.881252765655518,90.42209386825562 27.881252765655518,90.42209386825562 27.826228737831116,89.71015810966492 27.826228737831116,89.71015810966492 27.760231494903564,89.02109265327454 27.760231494903564,89.02109265327454 27.683350443840027,88.35514783859253 27.683350443840027,88.35514783859253 27.59549915790558,87.71224617958069 27.59549915790558,87.71224617958069 27.49667465686798,87.09229826927185 27.49667465686798,87.09229826927185 27.386879920959473,86.49555444717407 27.386879920959473,86.49555444717407 27.266281843185425,85.92193722724915 27.266281843185425,85.92193722724915 26.956897974014282,84.68254804611206 26.956897974014282,84.68254804611206 26.591983437538147,83.54383707046509 26.591983437538147,83.54383707046509 26.171454787254333,82.50572085380554 26.171454787254333,82.50572085380554 25.695225596427917,81.56811594963074 25.695225596427917,81.56811594963074 25.163298845291138,80.73110580444336 25.163298845291138,80.73110580444336 24.575673043727875,79.99469637870789 24.575673043727875,79.99469637870789 23.93217831850052,79.35888171195984 23.93217831850052,79.35888171195984 23.23298454284668,78.82349491119385 23.23298454284668,78.82349491119385 22.841908037662506,78.59225869178772 22.841908037662506,78.59225869178772 22.38660901784897,78.38279604911804 22.38660901784897,78.38279604911804 21.867172420024872,78.19485664367676 21.867172420024872,78.19485664367676 21.28351181745529,78.02868485450745 21.28351181745529,78.02868485450745 20.635713636875153,77.8842031955719 20.635713636875153,77.8842031955719 19.92369145154953,77.7614951133728 19.92369145154953,77.7614951133728 19.147446751594543,77.66039371490479 19.147446751594543,77.66039371490479 18.307147920131683,77.58123278617859 18.307147920131683,77.58123278617859 18.682020902633667,78.58272194862366 18.682020902633667,78.58272194862366 18.990983068943024,79.51382994651794 18.990983068943024,79.51382994651794 19.315050542354584,80.66697120666504 19.315050542354584,80.66697120666504 19.735749065876007,82.33457207679749 19.735749065876007,82.33457207679749 20.33417820930481,84.8093032836914 20.33417820930481,84.8093032836914 21.191439032554626,88.38333487510681 21.191439032554626,88.38333487510681 22.388972342014313,93.34942698478699 22.388972342014313,93.34942698478699 24.008047580718994,99.99999403953552 24.008047580718994,99.99999403953552 19.21318918466568,99.99999403953552 19.21318918466568,99.99999403953552 18.9051553606987,96.98768258094788 18.9051553606987,96.98768258094788 18.542097508907318,94.04338598251343 18.542097508907318,94.04338598251343 18.122665584087372,91.17352962493896 18.122665584087372,91.17352962493896 17.645171284675598,88.38451504707336 17.645171284675598,88.38451504707336 17.10834950208664,85.68268418312073 17.10834950208664,85.68268418312073 16.510680317878723,83.0745279788971 16.510680317878723,83.0745279788971 15.850897133350372,80.56637644767761 15.850897133350372,80.56637644767761 15.127229690551758,78.16455960273743 15.127229690551758,78.16455960273743 14.46390300989151,78.32406163215637 14.46390300989151,78.32406163215637 13.812728226184845,78.53233814239502 13.812728226184845,78.53233814239502 13.173706829547882,78.78923416137695 13.173706829547882,78.78923416137695 12.546837329864502,79.09473180770874 12.546837329864502,79.09473180770874 11.932121217250824,79.44875955581665 11.932121217250824,79.44875955581665 11.329557001590729,79.85122799873352 11.329557001590729,79.85122799873352 10.739229619503021,80.3023099899292 10.739229619503021,80.3023099899292 10.160885751247406,80.80165982246399 10.160885751247406,80.80165982246399 9.270795434713364,81.72812461853027 9.270795434713364,81.72812461853027 8.462060242891312,82.76269435882568 8.462060242891312,82.76269435882568 7.734426110982895,83.90520215034485 7.734426110982895,83.90520215034485 7.087977230548859,85.15565395355225 7.087977230548859,85.15565395355225 6.522715091705322,86.51395440101624 6.522715091705322,86.51395440101624 6.038553640246391,87.98002600669861 6.038553640246391,87.98002600669861 5.63540980219841,89.55386281013489 5.63540980219841,89.55386281013489 5.313367024064064,91.23530387878418 5.313367024064064,91.23530387878418 5.031495168805122,90.19777774810791 5.031495168805122,90.19777774810791 4.78726252913475,89.17949795722961 4.78726252913475,89.17949795722961 4.580584913492203,88.18062543869019 4.580584913492203,88.18062543869019 4.411714896559715,87.20116019248962 4.411714896559715,87.20116019248962 4.280399903655052,86.24110817909241 4.280399903655052,86.24110817909241 4.186554998159409,85.30046939849854 4.186554998159409,85.30046939849854 4.130349680781364,84.3794047832489 4.130349680781364,84.3794047832489" stroke="white" stroke-width="0.1" /><polygon points="87.44843602180481,70.32886147499084 87.44843602180481,70.32886147499084 86.92975640296936,70.34185528755188 86.92975640296936,70.34185528755188 86.42407655715942,70.35755515098572 86.42407655715942,70.35755515098572 85.93121767044067,70.3759491443634 85.93121767044067,70.3759491443634 85.45119762420654,70.39721608161926 85.45119762420654,70.39721608161926 84.9839985370636,70.4213559627533 84.9839985370636,70.4213559627533 84.52979326248169,70.44827342033386 84.52979326248169,70.44827342033386 84.08825397491455,70.47823667526245 84.08825397491455,70.47823667526245 83.6595356464386,70.51115036010742 83.6595356464386,70.51115036010742 84.68372821807861,70.79225778579712 84.68372821807861,70.79225778579712 85.63382029533386,71.08755111694336 85.63382029533386,71.08755111694336 86.50965094566345,71.39726877212524 86.50965094566345,71.39726877212524 87.31138110160828,71.72117233276367 87.31138110160828,71.72117233276367 88.03884387016296,72.05924987792969 88.03884387016296,72.05924987792969 88.69221210479736,72.41167426109314 88.69221210479736,72.41167426109314 89.27140235900879,72.77827262878418 89.27140235900879,72.77827262878418 89.77632522583008,73.15905690193176 89.77632522583008,73.15905690193176 90.3649628162384,73.73402118682861 90.3649628162384,73.73402118682861 90.87511897087097,74.40873980522156 90.87511897087097,74.40873980522156 91.3067877292633,75.18329620361328 91.3067877292633,75.18329620361328 91.6599690914154,76.05777382850647 91.6599690914154,76.05777382850647 91.93458557128906,77.03200578689575 91.93458557128906,77.03200578689575 92.13088154792786,78.10632586479187 92.13088154792786,78.10632586479187 92.24860668182373,79.28048372268677 92.24860668182373,79.28048372268677 92.28785037994385,80.55455684661865 92.28785037994385,80.55455684661865 92.26573705673218,81.61571621894836 92.26573705673218,81.61571621894836 92.19923615455627,82.69973993301392 92.19923615455627,82.69973993301392 92.08868145942688,83.80663394927979 92.08868145942688,83.80663394927979 91.93373918533325,84.93639826774597 91.93373918533325,84.93639826774597 91.73465371131897,86.08903288841248 91.73465371131897,86.08903288841248 91.4913535118103,87.26445436477661 91.4913535118103,87.26445436477661 91.2042498588562,88.46275210380554 91.2042498588562,88.46275210380554 90.87275266647339,89.68383073806763 90.87275266647339,89.68383073806763 90.4938280582428,87.7046525478363 90.4938280582428,87.7046525478363 90.01937508583069,85.85231304168701 90.01937508583069,85.85231304168701 89.44921493530273,84.12681818008423 89.44921493530273,84.12681818008423 88.78369331359863,82.52833485603333 88.78369331359863,82.52833485603333 88.02255988121033,81.0568630695343 88.02255988121033,81.0568630695343 87.16605305671692,79.71223592758179 87.16605305671692,79.71223592758179 86.21401786804199,78.49470376968384 86.21401786804199,78.49470376968384 85.16645431518555,77.40434408187866 85.16645431518555,77.40434408187866 84.48591232299805,76.81663632392883 84.48591232299805,76.81663632392883 83.79119038581848,76.28605961799622 83.79119038581848,76.28605961799622 83.08220505714417,75.81253051757812 83.08220505714417,75.81253051757812 82.35887885093689,75.39596557617188 82.35887885093689,75.39596557617188 81.62128329277039,75.03645420074463 81.62128329277039,75.03645420074463 80.86934685707092,74.73399043083191 80.86934685707092,74.73399043083191 80.10322451591492,74.48849081993103 80.10322451591492,74.48849081993103 79.32242751121521,74.30004477500916 79.32242751121521,74.30004477500916 78.4597635269165,77.12720036506653 78.4597635269165,77.12720036506653 77.65482664108276,80.07951378822327 77.65482664108276,80.07951378822327 76.91166400909424,83.14929604530334 76.91166400909424,83.14929604530334 76.23432874679565,86.32921576499939 76.23432874679565,86.32921576499939 75.62686800956726,89.61175680160522 75.62686800956726,89.61175680160522 75.09333491325378,92.98932552337646 75.09333491325378,92.98932552337646 74.63778257369995,96.4545726776123 74.63778257369995,96.4545726776123 74.26426410675049,99.99999403953552 74.26426410675049,99.99999403953552 68.86852979660034,99.99999403953552 68.86852979660034,99.99999403953552 69.12820339202881,98.94120693206787 69.12820339202881,98.94120693206787 69.81878876686096,96.13430500030518 69.81878876686096,96.13430500030518 70.80753445625305,92.13341474533081 70.80753445625305,92.13341474533081 71.96168899536133,87.49282360076904 71.96168899536133,87.49282360076904 73.14867377281189,82.76649117469788 73.14867377281189,82.76649117469788 74.23573732376099,78.50871086120605 74.23573732376099,78.50871086120605 75.09029507637024,75.27368068695068 75.09029507637024,75.27368068695068 75.57944059371948,73.61544966697693 75.57944059371948,73.61544966697693 74.58984851837158,73.7082839012146 74.58984851837158,73.7082839012146 73.67604374885559,73.82685542106628 73.67604374885559,73.82685542106628 72.83785343170166,73.9710807800293 72.83785343170166,73.9710807800293 72.07528352737427,74.14088249206543 72.07528352737427,74.14088249206543 71.38841152191162,74.33633208274841 71.38841152191162,74.33633208274841 70.77707052230835,74.5574414730072 70.77707052230835,74.5574414730072 70.24142742156982,74.80420470237732 70.24142742156982,74.80420470237732 69.78132128715515,75.0764548778534 69.78132128715515,75.0764548778534 68.95832419395447,75.7063627243042 68.95832419395447,75.7063627243042 68.20098161697388,76.45450830459595 68.20098161697388,76.45450830459595 67.50921607017517,77.32113599777222 67.50921607017517,77.32113599777222 66.88293218612671,78.3061683177948 66.88293218612671,78.3061683177948 66.32223129272461,79.40968871116638 66.32223129272461,79.40968871116638 65.82717895507812,80.63152432441711 65.82717895507812,80.63152432441711 65.397709608078,81.97184801101685 65.397709608078,81.97184801101685 65.03372192382812,83.43066573143005 65.03372192382812,83.43066573143005 64.89228010177612,84.10563468933105 64.89228010177612,84.10563468933105 64.76332545280457,84.80795621871948 64.76332545280457,84.80795621871948 64.64720368385315,85.53744554519653 64.64720368385315,85.53744554519653 64.5439088344574,86.29427552223206 64.5439088344574,86.29427552223206 64.45343494415283,87.07828521728516 64.45343494415283,87.07828521728516 64.37562704086304,87.88946866989136 64.37562704086304,87.88946866989136 64.3106460571289,88.72782588005066 64.3106460571289,88.72782588005066 64.25865888595581,89.59335684776306 64.25865888595581,89.59335684776306 63.3186936378479,87.98972964286804 63.3186936378479,87.98972964286804 62.50717043876648,86.46610379219055 62.50717043876648,86.46610379219055 61.823928356170654,85.02231240272522 61.823928356170654,85.02231240272522 61.26896142959595,83.65852236747742 61.26896142959595,83.65852236747742 60.842353105545044,82.37457275390625 60.842353105545044,82.37457275390625 60.54394245147705,81.17045760154724 60.54394245147705,81.17045760154724 60.37389039993286,80.04626035690308 60.37389039993286,80.04626035690308 60.332030057907104,79.0017306804657 60.332030057907104,79.0017306804657 60.560399293899536,76.710045337677 60.560399293899536,76.710045337677 61.17866039276123,74.72386360168457 61.17866039276123,74.72386360168457 62.18690276145935,73.04326891899109 62.18690276145935,73.04326891899109 63.58503699302673,71.66825532913208 63.58503699302673,71.66825532913208 65.37323594093323,70.59874534606934 65.37323594093323,70.59874534606934 67.55115389823914,69.83482241630554 67.55115389823914,69.83482241630554 70.11922597885132,69.37640309333801 70.11922597885132,69.37640309333801 73.07736277580261,69.22365427017212 73.07736277580261,69.22365427017212 73.17770719528198,69.22382116317749 73.17770719528198,69.22382116317749 73.2783854007721,69.22432780265808 73.2783854007721,69.22432780265808 73.37940335273743,69.22508478164673 73.37940335273743,69.22508478164673 73.48076105117798,69.2261815071106 73.48076105117798,69.2261815071106 73.58245253562927,69.22761797904968 73.58245253562927,69.22761797904968 73.68465065956116,69.22930479049683 73.68465065956116,69.22930479049683 73.78718852996826,69.23141479492188 73.78718852996826,69.23141479492188 73.89023303985596,69.23378109931946 73.89023303985596,69.23378109931946 73.15011024475098,68.53551268577576 73.15011024475098,68.53551268577576 72.43546843528748,67.9240882396698 72.43546843528748,67.9240882396698 71.74648642539978,67.39975810050964 71.74648642539978,67.39975810050964 71.08316421508789,66.96243286132812 71.08316421508789,66.96243286132812 70.44540643692017,66.61220192909241 70.44540643692017,66.61220192909241 69.83330249786377,66.34889841079712 69.83330249786377,66.34889841079712 69.24703121185303,66.17268323898315 69.24703121185303,66.17268323898315 68.68624091148376,66.08356833457947 68.68624091148376,66.08356833457947 68.6430275440216,66.0801887512207 68.6430275440216,66.0801887512207 68.59965324401855,66.077321767807 68.59965324401855,66.077321767807 68.55602264404297,66.0749614238739 68.55602264404297,66.0749614238739 68.51205229759216,66.07293486595154 68.51205229759216,66.07293486595154 68.46791505813599,66.07141494750977 68.46791505813599,66.07141494750977 68.42352747917175,66.0703182220459 68.42352747917175,66.0703182220459 68.37862730026245,66.06955528259277 68.37862730026245,66.06955528259277 68.33381652832031,66.0693883895874 68.33381652832031,66.0693883895874 67.49629974365234,66.14230275154114 67.49629974365234,66.14230275154114 66.59616827964783,66.36121869087219 66.59616827964783,66.36121869087219 65.63324928283691,66.72596335411072 65.63324928283691,66.72596335411072 64.60753679275513,67.23670959472656 64.60753679275513,67.23670959472656 63.51895332336426,67.89336800575256 63.51895332336426,67.89336800575256 62.36758828163147,68.69602799415588 62.36758828163147,68.69602799415588 61.15309000015259,69.64477300643921 61.15309000015259,69.64477300643921 59.87563729286194,70.73934674263 59.87563729286194,70.73934674263 60.90219020843506,68.5934066772461 60.90219020843506,68.5934066772461 61.95017695426941,66.71971678733826 61.95017695426941,66.71971678733826 63.01952004432678,65.11844992637634 63.01952004432678,65.11844992637634 64.11029696464539,63.78960609436035 64.11029696464539,63.78960609436035 65.22242426872253,62.733256816864014 65.22242426872253,62.733256816864014 66.35581851005554,61.94941997528076 66.35581851005554,61.94941997528076 67.51047968864441,61.43825054168701 67.51047968864441,61.43825054168701 68.68624091148376,61.19958758354187 68.68624091148376,61.19958758354187 68.76075863838196,61.19368076324463 68.76075863838196,61.19368076324463 68.83527636528015,61.1886203289032 68.83527636528015,61.1886203289032 68.9099669456482,61.18423342704773 68.9099669456482,61.18423342704773 68.98465156555176,61.18077039718628 68.98465156555176,61.18077039718628 69.05916929244995,61.178070306777954 69.05916929244995,61.178070306777954 69.13411021232605,61.176127195358276 69.13411021232605,61.176127195358276 69.20862793922424,61.17503046989441 69.20862793922424,61.17503046989441 69.28306221961975,61.174607276916504 69.28306221961975,61.174607276916504 70.16834616661072,61.22921109199524 70.16834616661072,61.22921109199524 71.05480432510376,61.39301657676697 71.05480432510376,61.39301657676697 71.9426155090332,61.66611313819885 71.9426155090332,61.66611313819885 72.83161282539368,62.048327922821045 72.83161282539368,62.048327922821045 73.72186779975891,62.53974437713623 73.72186779975891,62.53974437713623 74.61348176002502,63.140201568603516 74.61348176002502,63.140201568603516 75.50626993179321,63.849860429763794 75.50626993179321,63.849860429763794 76.4004111289978,64.66847062110901 76.4004111289978,64.66847062110901 76.38564109802246,64.33688998222351 76.38564109802246,64.33688998222351 76.36370062828064,64.02666568756104 76.36370062828064,64.02666568756104 76.33458375930786,63.73778581619263 76.33458375930786,63.73778581619263 76.2982964515686,63.47026228904724 76.2982964515686,63.47026228904724 76.25483274459839,63.2240891456604 76.25483274459839,63.2240891456604 76.2041985988617,62.999266386032104 76.2041985988617,62.999266386032104 76.14655494689941,62.79562711715698 76.14655494689941,62.79562711715698 76.08174681663513,62.613338232040405 76.08174681663513,62.613338232040405 75.7142961025238,62.120991945266724 75.7142961025238,62.120991945266724 75.36550164222717,61.66982650756836 75.36550164222717,61.66982650756836 75.03527402877808,61.259764432907104 75.03527402877808,61.259764432907104 74.72352981567383,60.89105010032654 74.72352981567383,60.89105010032654 74.43034648895264,60.56360602378845 74.43034648895264,60.56360602378845 74.15573000907898,60.27734875679016 74.15573000907898,60.27734875679016 73.89951348304749,60.032522678375244 73.89951348304749,60.032522678375244 73.66203665733337,59.82905030250549 73.66203665733337,59.82905030250549 74.47330355644226,59.614020586013794 74.47330355644226,59.614020586013794 75.24034976959229,59.424471855163574 75.24034976959229,59.424471855163574 75.96308588981628,59.26058292388916 75.96308588981628,59.26058292388916 76.64143443107605,59.122347831726074 76.64143443107605,59.122347831726074 77.27556228637695,59.009766578674316 77.27556228637695,59.009766578674316 77.86530256271362,58.9227557182312 77.86530256271362,58.9227557182312 78.41081619262695,58.86140465736389 78.41081619262695,58.86140465736389 78.91193628311157,58.825790882110596 78.91193628311157,58.825790882110596 78.95565629005432,58.82393717765808 78.95565629005432,58.82393717765808 78.9997935295105,58.82224440574646 78.9997935295105,58.82224440574646 79.04435396194458,58.82081389427185 79.04435396194458,58.82081389427185 79.08916473388672,58.81971716880798 79.08916473388672,58.81971716880798 79.13448214530945,58.81887078285217 79.13448214530945,58.81887078285217 79.17997241020203,58.81819725036621 79.17997241020203,58.81819725036621 79.2260468006134,58.81785750389099 79.2260468006134,58.81785750389099 79.27246689796448,58.81769061088562 79.27246689796448,58.81769061088562 79.76042628288269,58.830684423446655 79.76042628288269,58.830684423446655 80.28838634490967,58.86950492858887 80.28838634490967,58.86950492858887 80.85668683052063,58.93440246582031 80.85668683052063,58.93440246582031 81.46498799324036,59.025126695632935 81.46498799324036,59.025126695632935 82.1134626865387,59.14175510406494 82.1134626865387,59.14175510406494 82.80202150344849,59.284210205078125 82.80202150344849,59.284210205078125 83.53075385093689,59.452658891677856 83.53075385093689,59.452658891677856 84.29957032203674,59.646761417388916 84.29957032203674,59.646761417388916 83.93989205360413,60.17751097679138 83.93989205360413,60.17751097679138 83.61446857452393,60.67391037940979 83.61446857452393,60.67391037940979 83.32323431968689,61.13612651824951 83.32323431968689,61.13612651824951 83.06625485420227,61.56399846076965 83.06625485420227,61.56399846076965 82.84354209899902,61.95760369300842 82.84354209899902,61.95760369300842 82.65509605407715,62.31712102890015 82.65509605407715,62.31712102890015 82.50073790550232,62.64236569404602 82.50073790550232,62.64236569404602 82.38081932067871,62.93335556983948 82.38081932067871,62.93335556983948 82.18215703964233,63.439375162124634 82.18215703964233,63.439375162124634 81.99623823165894,63.92969489097595 81.99623823165894,63.92969489097595 81.82315230369568,64.40406441688538 81.82315230369568,64.40406441688538 81.66280388832092,64.86274003982544 81.66280388832092,64.86274003982544 81.515371799469,65.30563235282898 81.515371799469,65.30563235282898 81.3805103302002,65.73283076286316 81.3805103302002,65.73283076286316 81.25856518745422,66.14424586296082 81.25856518745422,66.14424586296082 81.14935755729675,66.53996109962463 81.14935755729675,66.53996109962463 82.10645914077759,66.06955528259277 82.10645914077759,66.06955528259277 83.0150306224823,65.66168665885925 83.0150306224823,65.66168665885925 83.87516140937805,65.31660556793213 83.87516140937805,65.31660556793213 84.68676805496216,65.03422856330872 84.68676805496216,65.03422856330872 85.44984459877014,64.81455564498901 85.44984459877014,64.81455564498901 86.16456389427185,64.65767025947571 86.16456389427185,64.65767025947571 86.83076500892639,64.56348299980164 86.83076500892639,64.56348299980164 87.44843602180481,64.53208923339844 87.44843602180481,64.53208923339844 88.53811025619507,64.64264392852783 88.53811025619507,64.64264392852783 89.66222405433655,64.97414112091064 89.66222405433655,64.97414112091064 90.82059860229492,65.52674174308777 90.82059860229492,65.52674174308777 92.01323390007019,66.30045771598816 92.01323390007019,66.30045771598816 93.24013590812683,67.29527711868286 93.24013590812683,67.29527711868286 94.50130462646484,68.51112246513367 94.50130462646484,68.51112246513367 95.7965612411499,69.94807720184326 95.7965612411499,69.94807720184326 97.12591767311096,71.60623073577881 97.12591767311096,71.60623073577881 95.64507603645325,71.30646705627441 95.64507603645325,71.30646705627441 94.24981474876404,71.04670405387878 94.24981474876404,71.04670405387878 92.9400384426117,70.8269476890564 92.9400384426117,70.8269476890564 91.71583652496338,70.64710259437561 91.71583652496338,70.64710259437561 90.57720899581909,70.50726413726807 90.57720899581909,70.50726413726807 89.52390551567078,70.40742635726929 89.52390551567078,70.40742635726929 88.5562539100647,70.34742832183838 88.5562539100647,70.34742832183838 87.67393231391907,70.32750844955444 87.67393231391907,70.32750844955444 87.6452386379242,70.32750844955444 87.6452386379242,70.32750844955444 87.61671185493469,70.32767534255981 87.61671185493469,70.32767534255981 87.58835792541504,70.32776474952698 87.58835792541504,70.32776474952698 87.56017088890076,70.32793164253235 87.56017088890076,70.32793164253235 87.53206729888916,70.3281819820404 87.53206729888916,70.3281819820404 87.50413060188293,70.32835483551025 87.50413060188293,70.32835483551025 87.47628331184387,70.32860517501831 87.47628331184387,70.32860517501831" stroke="white" stroke-width="0.1" /></svg>