<?xml version="1.0" encoding="utf-8" ?>
<svg baseProfile="full" height="73.55127334594727" version="1.1" width="100.0" xmlns="http://www.w3.org/2000/svg" xmlns:ev="http://www.w3.org/2001/xml-events" xmlns:xlink="http://www.w3.org/1999/xlink"><defs><clipPath /></defs><polygon points="4.810198023915291,53.743910789489746 4.810198023915291,53.743910789489746 4.563172534108162,54.249292612075806 4.563172534108162,54.249292612075806 4.055099189281464,55.23632764816284 4.055099189281464,55.23632764816284 3.5231586545705795,56.191325187683105 3.5231586545705795,56.191325187683105 2.970396541059017,57.11607336997986 2.970396541059017,57.11607336997986 2.3997167125344276,58.01246166229248 2.3997167125344276,58.01246166229248 1.8143059685826302,58.882296085357666 1.8143059685826302,58.882296085357666 1.2172096408903599,59.727370738983154 1.2172096408903599,59.727370738983154 0.6113314535468817,60.549575090408325 0.6113314535468817,60.549575090408325 0.0,61.350709199905396 0.0,61.350709199905396 0.0,1.5127478167414665 0.0,1.5127478167414665 1.1543909087777138,1.4477336779236794 1.1543909087777138,1.4477336779236794 2.30623222887516,1.2763810344040394 2.30623222887516,1.2763810344040394 3.4560196101665497,1.0341005399823189 3.4560196101665497,1.0341005399823189 4.604391008615494,0.7563739083707333 4.604391008615494,0.7563739083707333 5.751911923289299,0.47864727675914764 5.751911923289299,0.47864727675914764 6.898937374353409,0.23636685218662024 6.898937374353409,0.23636685218662024 8.046317100524902,0.06501416210085154 8.046317100524902,0.06501416210085154 9.194333851337433,0.0 9.194333851337433,0.0 9.670821577310562,0.012641643115784973 9.670821577310562,0.012641643115784973 10.147662460803986,0.052195467287674546 10.147662460803986,0.052195467287674546 10.624787211418152,0.12124645290896297 10.624787211418152,0.12124645290896297 11.102407425642014,0.2222379669547081 11.102407425642014,0.2222379669547081 11.580382287502289,0.3577195340767503 11.580382287502289,0.3577195340767503 12.058640271425247,0.5301699507981539 12.058640271425247,0.5301699507981539 12.5372514128685,0.7420679554343224 12.5372514128685,0.7420679554343224 13.016431033611298,0.9960339404642582 13.016431033611298,0.9960339404642582 13.7626051902771,1.571919210255146 13.7626051902771,1.571919210255146 14.433498680591583,2.3482294753193855 14.433498680591583,2.3482294753193855 15.053470432758331,3.2606586813926697 15.053470432758331,3.2606586813926697 15.647025406360626,4.244900867342949 15.647025406360626,4.244900867342949 16.23873859643936,5.236614495515823 16.23873859643936,5.236614495515823 16.852903366088867,6.1715297400951385 16.852903366088867,6.1715297400951385 17.51416325569153,6.985268741846085 17.51416325569153,6.985268741846085 18.247024714946747,7.613597810268402 18.247024714946747,7.613597810268402 18.47769021987915,7.7521950006484985 18.47769021987915,7.7521950006484985 18.71550977230072,7.870113104581833 18.71550977230072,7.870113104581833 18.95977258682251,7.968024164438248 18.95977258682251,7.968024164438248 19.20977234840393,8.046600222587585 19.20977234840393,8.046600222587585 19.465014338493347,8.106550574302673 19.465014338493347,8.106550574302673 19.724716246128082,8.148512244224548 19.724716246128082,8.148512244224548 19.988243281841278,8.173229545354843 19.988243281841278,8.173229545354843 20.254957675933838,8.18130299448967 20.254957675933838,8.18130299448967 20.868554711341858,8.141713589429855 20.868554711341858,8.141713589429855 21.488384902477264,8.028186857700348 21.488384902477264,8.028186857700348 22.10729420185089,7.848512381315231 22.10729420185089,7.848512381315231 22.71798849105835,7.61062279343605 22.71798849105835,7.61062279343605 23.313243687152863,7.322308421134949 23.313243687152863,7.322308421134949 23.885764181613922,6.991430371999741 23.885764181613922,6.991430371999741 24.42818582057953,6.62584975361824 24.42818582057953,6.62584975361824 24.93371069431305,6.233427673578262 24.93371069431305,6.233427673578262 25.226345658302307,5.9781514108181 25.226345658302307,5.9781514108181 25.512605905532837,5.715474486351013 25.512605905532837,5.715474486351013 25.79553723335266,5.458144471049309 25.79553723335266,5.458144471049309 26.078611612319946,5.218980088829994 26.078611612319946,5.218980088829994 26.365014910697937,5.010729283094406 26.365014910697937,5.010729283094406 26.65800154209137,4.846139997243881 26.65800154209137,4.846139997243881 26.960977911949158,4.738030955195427 26.960977911949158,4.738030955195427 27.277052402496338,4.69915010035038 27.277052402496338,4.69915010035038 27.311614155769348,4.699574783444405 27.311614155769348,4.699574783444405 27.34631597995758,4.700920730829239 27.34631597995758,4.700920730829239 27.381160855293274,4.703151434659958 27.381160855293274,4.703151434659958 27.416428923606873,4.706373810768127 27.416428923606873,4.706373810768127 27.451840043067932,4.710587859153748 27.451840043067932,4.710587859153748 27.487462759017944,4.715863987803459 27.487462759017944,4.715863987803459 27.523157000541687,4.7222379595041275 27.523157000541687,4.7222379595041275 27.559205889701843,4.729744791984558 27.559205889701843,4.729744791984558 27.9924213886261,4.857932031154633 27.9924213886261,4.857932031154633 28.422662615776062,5.0435904413461685 28.422662615776062,5.0435904413461685 28.849929571151733,5.275318399071693 28.849929571151733,5.275318399071693 29.274219274520874,5.541642755270004 29.274219274520874,5.541642755270004 29.695609211921692,5.8311257511377335 29.695609211921692,5.8311257511377335 30.113881826400757,6.132330000400543 30.113881826400757,6.132330000400543 30.52924871444702,6.433781981468201 30.52924871444702,6.433781981468201 30.941641330718994,6.724078953266144 30.941641330718994,6.724078953266144 31.565722823143005,7.1515582501888275 31.565722823143005,7.1515582501888275 32.18987286090851,7.583781331777573 32.18987286090851,7.583781331777573 32.81458914279938,8.01628902554512 32.81458914279938,8.01628902554512 33.44036638736725,8.444617688655853 33.44036638736725,8.444617688655853 34.067633748054504,8.864447474479675 34.067633748054504,8.864447474479675 34.697026014328,9.271246194839478 34.697026014328,9.271246194839478 35.32882332801819,9.660694003105164 35.32882332801819,9.660694003105164 35.96373796463013,10.028328746557236 35.96373796463013,10.028328746557236 36.80311441421509,10.492102801799774 36.80311441421509,10.492102801799774 37.63987123966217,10.947945713996887 37.63987123966217,10.947945713996887 38.472238183021545,11.412889510393143 38.472238183021545,11.412889510393143 39.29858207702637,11.903823912143707 39.29858207702637,11.903823912143707 40.117067098617554,12.437747418880463 40.117067098617554,12.437747418880463 40.92592000961304,13.03158551454544 40.92592000961304,13.03158551454544 41.72329902648926,13.702301681041718 41.72329902648926,13.702301681041718 42.50764846801758,14.466854929924011 42.50764846801758,14.466854929924011 42.80439019203186,14.801345765590668 42.80439019203186,14.801345765590668 43.09220910072327,15.168236196041107 43.09220910072327,15.168236196041107 43.37167143821716,15.564800798892975 43.37167143821716,15.564800798892975 43.64334046840668,15.988384187221527 43.64334046840668,15.988384187221527 43.90764832496643,16.436295211315155 43.90764832496643,16.436295211315155 44.16515529155731,16.90584272146225 44.16515529155731,16.90584272146225 44.416430592536926,17.39436984062195 44.416430592536926,17.39436984062195 44.66175436973572,17.899149656295776 44.66175436973572,17.899149656295776 44.60127353668213,17.934702336788177 44.60127353668213,17.934702336788177 44.54192519187927,17.9693341255188 44.54192519187927,17.9693341255188 44.48328614234924,18.00336390733719 44.48328614234924,18.00336390733719 44.42492723464966,18.037252128124237 44.42492723464966,18.037252128124237 44.36628818511963,18.071281909942627 44.36628818511963,18.071281909942627 44.307079911231995,18.105806410312653 44.307079911231995,18.105806410312653 44.246670603752136,18.141253292560577 44.246670603752136,18.141253292560577 44.1847026348114,18.177902698516846 44.1847026348114,18.177902698516846 44.05892193317413,18.251557648181915 44.05892193317413,18.251557648181915 43.88895034790039,18.34900826215744 43.88895034790039,18.34900826215744 42.81812906265259,18.988455832004547 42.81812906265259,18.988455832004547 41.79525375366211,19.607435166835785 41.79525375366211,19.607435166835785 40.81600606441498,20.208746194839478 40.81600606441498,20.208746194839478 39.87606167793274,20.79504132270813 39.87606167793274,20.79504132270813 38.971033692359924,21.369050443172455 38.971033692359924,21.369050443172455 38.096386194229126,21.933569014072418 38.096386194229126,21.933569014072418 37.24815845489502,22.491218149662018 37.24815845489502,22.491218149662018 36.421528458595276,23.044759035110474 36.421528458595276,23.044759035110474 35.62287390232086,23.59125316143036 35.62287390232086,23.59125316143036 34.770041704177856,24.203434586524963 34.770041704177856,24.203434586524963 33.87917876243591,24.89936202764511 33.87917876243591,24.89936202764511 32.96614587306976,25.697165727615356 32.96614587306976,25.697165727615356 32.04730749130249,26.614871621131897 32.04730749130249,26.614871621131897 31.138667464256287,27.670642733573914 31.138667464256287,27.670642733573914 30.256372690200806,28.882506489753723 30.256372690200806,28.882506489753723 29.41642999649048,30.268555879592896 29.41642999649048,30.268555879592896 29.21048104763031,30.64759075641632 29.21048104763031,30.64759075641632 29.008853435516357,31.02489411830902 29.008853435516357,31.02489411830902 28.811118006706238,31.4002126455307 28.811118006706238,31.4002126455307 28.616997599601746,31.773370504379272 28.616997599601746,31.773370504379272 28.426063060760498,32.14419186115265 28.426063060760498,32.14419186115265 28.23788821697235,32.512497901916504 28.23788821697235,32.512497901916504 28.0521959066391,32.87811577320099 28.0521959066391,32.87811577320099 27.86855399608612,33.24079215526581 27.86855399608612,33.24079215526581 27.387037873268127,34.18824374675751 27.387037873268127,34.18824374675751 26.909419894218445,35.10771989822388 26.909419894218445,35.10771989822388 26.43314301967621,35.98456084728241 26.43314301967621,35.98456084728241 25.955381989479065,36.8041068315506 25.955381989479065,36.8041068315506 25.473371148109436,37.551698088645935 25.473371148109436,37.551698088645935 24.984489381313324,38.21260631084442 24.984489381313324,38.21260631084442 24.485976994037628,38.7722373008728 24.485976994037628,38.7722373008728 23.97506982088089,39.21586275100708 23.97506982088089,39.21586275100708 23.223087191581726,39.748936891555786 23.223087191581726,39.748936891555786 22.456444799900055,40.24960994720459 22.456444799900055,40.24960994720459 21.67549580335617,40.72333574295044 21.67549580335617,40.72333574295044 20.88073641061783,41.175636649131775 20.88073641061783,41.175636649131775 20.07244974374771,41.61200225353241 20.07244974374771,41.61200225353241 19.251061975955963,42.037925124168396 19.251061975955963,42.037925124168396 18.41692626476288,42.458921670913696 18.41692626476288,42.458921670913696 17.570537328720093,42.880451679229736 17.570537328720093,42.880451679229736 17.092634737491608,43.11784505844116 17.092634737491608,43.11784505844116 16.611047089099884,43.35807263851166 16.611047089099884,43.35807263851166 16.126275062561035,43.601980805397034 16.126275062561035,43.601980805397034 15.638527274131775,43.850281834602356 15.638527274131775,43.850281834602356 15.148158371448517,44.1038578748703 15.148158371448517,44.1038578748703 14.655807614326477,44.36352550983429 14.655807614326477,44.36352550983429 14.161473512649536,44.63002681732178 14.161473512649536,44.63002681732178 13.66572231054306,44.90424692630768 13.66572231054306,44.90424692630768 12.969192862510681,45.29929161071777 12.969192862510681,45.29929161071777 12.276628613471985,45.70368230342865 12.276628613471985,45.70368230342865 11.587534844875336,46.12397253513336 11.587534844875336,46.12397253513336 10.901699215173721,46.566855907440186 10.901699215173721,46.566855907440186 10.218696296215057,47.03895151615143 10.218696296215057,47.03895151615143 9.53824371099472,47.546881437301636 9.53824371099472,47.546881437301636 8.859985321760178,48.09730648994446 8.859985321760178,48.09730648994446 8.183569461107254,48.69688153266907 8.183569461107254,48.69688153266907 7.594475895166397,49.28590655326843 7.594475895166397,49.28590655326843 7.071175426244736,49.89390969276428 7.071175426244736,49.89390969276428 6.604816019535065,50.51738619804382 6.604816019535065,50.51738619804382 6.1862606555223465,51.15283131599426 6.1862606555223465,51.15283131599426 5.8065153658390045,51.79674029350281 5.8065153658390045,51.79674029350281 5.456656962633133,52.445536851882935 5.456656962633133,52.445536851882935 5.127478763461113,53.09578776359558 5.127478763461113,53.09578776359558" stroke="white" stroke-width="0.1" /><polygon points="100.0,73.55127334594727 100.0,73.55127334594727 90.80452919006348,73.55127334594727 90.80452919006348,73.55127334594727 90.80452919006348,54.00906205177307 90.80452919006348,54.00906205177307 90.30920267105103,49.09631609916687 90.30920267105103,49.09631609916687 88.88880610466003,44.520607590675354 88.88880610466003,44.520607590675354 86.64121627807617,40.37999212741852 86.64121627807617,40.37999212741852 83.66459012031555,36.77237927913666 83.66459012031555,36.77237927913666 80.0568699836731,33.795857429504395 80.0568699836731,33.795857429504395 75.91628432273865,31.54844045639038 75.91628432273865,31.54844045639038 71.34072184562683,30.128079652786255 71.34072184562683,30.128079652786255 66.4283275604248,29.6328604221344 66.4283275604248,29.6328604221344 61.51522397994995,30.128079652786255 61.51522397994995,30.128079652786255 56.939518451690674,31.54844045639038 56.939518451690674,31.54844045639038 52.79907584190369,33.795857429504395 52.79907584190369,33.795857429504395 49.19178485870361,36.77237927913666 49.19178485870361,36.77237927913666 46.21557891368866,40.37995636463165 46.21557891368866,40.37995636463165 43.968555331230164,44.520607590675354 43.968555331230164,44.520607590675354 42.548298835754395,49.09631609916687 42.548298835754395,49.09631609916687 42.05325543880463,54.00906205177307 42.05325543880463,54.00906205177307 42.05325543880463,73.55127334594727 42.05325543880463,73.55127334594727 0.0453257787739858,73.55127334594727 0.0453257787739858,73.55127334594727 0.04525495751295239,73.54705929756165 0.04525495751295239,73.54705929756165 0.04518413625191897,73.54298830032349 0.04518413625191897,73.54298830032349 0.04490084829740226,73.53895306587219 0.04490084829740226,73.53895306587219 0.0446175632532686,73.53498339653015 0.0446175632532686,73.53498339653015 0.04433427529875189,73.53109121322632 0.04433427529875189,73.53109121322632 0.043909347732551396,73.52719306945801 0.043909347732551396,73.52719306945801 0.043484417255967855,73.5233724117279 0.043484417255967855,73.5233724117279 0.04305948968976736,73.51954579353333 0.04305948968976736,73.51954579353333 0.04249291669111699,73.50297570228577 0.04249291669111699,73.50297570228577 0.0418555224314332,73.48639965057373 0.0418555224314332,73.48639965057373 0.041005664388649166,73.4697937965393 0.041005664388649166,73.4697937965393 0.040084985084831715,73.45325350761414 0.040084985084831715,73.45325350761414 0.03909348451998085,73.43668341636658 0.03909348451998085,73.43668341636658 0.038101981044746935,73.42011332511902 0.038101981044746935,73.42011332511902 0.03711048047989607,73.40353727340698 0.03711048047989607,73.40353727340698 0.03626062243711203,73.38696718215942 0.03626062243711203,73.38696718215942 0.07903682417236269,73.19985628128052 0.07903682417236269,73.19985628128052 0.13696883106604218,72.94847369194031 0.13696883106604218,72.94847369194031 0.20871104206889868,72.64015674591064 0.20871104206889868,72.64015674591064 0.2930594841018319,72.2822904586792 0.2930594841018319,72.2822904586792 0.3886685473844409,71.88218832015991 0.3886685473844409,71.88218832015991 0.49433428794145584,71.44723534584045 0.49433428794145584,71.44723534584045 0.6089235190302134,70.98470330238342 0.6089235190302134,70.98470330238342 0.7308781612664461,70.50198316574097 0.7308781612664461,70.50198316574097 0.9156515821814537,69.79337930679321 0.9156515821814537,69.79337930679321 1.108852680772543,69.08275485038757 1.108852680772543,69.08275485038757 1.3065155595541,68.3921754360199 1.3065155595541,68.3921754360199 1.504957489669323,67.74362325668335 1.504957489669323,67.74362325668335 1.7002832144498825,67.15913414955139 1.7002832144498825,67.15913414955139 1.888526789844036,66.66072607040405 1.888526789844036,66.66072607040405 2.0660055801272392,66.27039313316345 2.0660055801272392,66.27039313316345 2.228895202279091,66.01019501686096 2.228895202279091,66.01019501686096 3.087322786450386,64.94224071502686 3.087322786450386,64.94224071502686 3.944546729326248,63.84270191192627 3.944546729326248,63.84270191192627 4.794405028223991,62.706440687179565 4.794405028223991,62.706440687179565 5.631161481142044,61.52846813201904 5.631161481142044,61.52846813201904 6.448795646429062,60.30368208885193 6.448795646429062,60.30368208885193 7.241359353065491,59.02705192565918 7.241359353065491,59.02705192565918 8.002903312444687,57.69355297088623 8.002903312444687,57.69355297088623 8.727478235960007,56.298017501831055 8.727478235960007,56.298017501831055 9.037605673074722,55.663102865219116 9.037605673074722,55.663102865219116 9.334135800600052,55.059629678726196 9.334135800600052,55.059629678726196 9.626132994890213,54.48760390281677 9.626132994890213,54.48760390281677 9.922804683446884,53.947025537490845 9.922804683446884,53.947025537490845 10.233215242624283,53.4380316734314 10.233215242624283,53.4380316734314 10.566501319408417,52.96062231063843 10.566501319408417,52.96062231063843 10.931869596242905,52.51486897468567 10.931869596242905,52.51486897468567 11.338243633508682,52.10084915161133 11.338243633508682,52.10084915161133 11.892279982566833,51.61203742027283 11.892279982566833,51.61203742027283 12.45516985654831,51.15976929664612 12.45516985654831,51.15976929664612 13.025636970996857,50.73944926261902 13.025636970996857,50.73944926261902 13.601841032505035,50.346314907073975 13.601841032505035,50.346314907073975 14.18236494064331,49.97577667236328 14.18236494064331,49.97577667236328 14.765651524066925,49.62315857410431 14.765651524066925,49.62315857410431 15.350140631198883,49.28378164768219 15.350140631198883,49.28378164768219 15.934276580810547,48.95297288894653 15.934276580810547,48.95297288894653 17.283286154270172,48.224857449531555 17.283286154270172,48.224857449531555 18.640297651290894,47.53254055976868 18.640297651290894,47.53254055976868 20.00134587287903,46.85502648353577 20.00134587287903,46.85502648353577 21.36218100786209,46.171388030052185 21.36218100786209,46.171388030052185 22.7188378572464,45.46065628528595 22.7188378572464,45.46065628528595 24.06727969646454,44.70187723636627 24.06727969646454,44.70187723636627 25.403258204460144,43.87407898902893 25.403258204460144,43.87407898902893 26.722946763038635,42.95637309551239 26.722946763038635,42.95637309551239 27.774575352668762,42.04688370227814 27.774575352668762,42.04688370227814 28.719615936279297,40.97124636173248 28.719615936279297,40.97124636173248 29.581868648529053,39.75573480129242 29.581868648529053,39.75573480129242 30.384984612464905,38.42676877975464 30.384984612464905,38.42676877975464 31.15304410457611,37.010765075683594 31.15304410457611,37.010765075683594 31.909701228141785,35.53406298160553 31.909701228141785,35.53406298160553 32.67889320850372,34.023088216781616 32.67889320850372,34.023088216781616 33.4844172000885,32.50424861907959 33.4844172000885,32.50424861907959 34.09631550312042,31.488314270973206 34.09631550312042,31.488314270973206 34.73753333091736,30.598193407058716 34.73753333091736,30.598193407058716 35.404884815216064,29.81586456298828 35.404884815216064,29.81586456298828 36.095184087753296,29.123228788375854 36.095184087753296,29.123228788375854 36.80523931980133,28.502336144447327 36.80523931980133,28.502336144447327 37.53186762332916,27.93509066104889 37.53186762332916,27.93509066104889 38.27195465564728,27.40350365638733 38.27195465564728,27.40350365638733 39.02209401130676,26.889517903327942 39.02209401130676,26.889517903327942 39.91742134094238,26.290544867515564 39.91742134094238,26.290544867515564 40.814730525016785,25.702443718910217 40.814730525016785,25.702443718910217 41.71416461467743,25.124362111091614 41.71416461467743,25.124362111091614 42.61529743671417,24.555523693561554 42.61529743671417,24.555523693561554 43.51791739463806,23.995041847229004 43.51791739463806,23.995041847229004 44.421812891960144,23.44217300415039 44.421812891960144,23.44217300415039 45.326629281044006,22.89603352546692 45.326629281044006,22.89603352546692 46.23229503631592,22.355806827545166 46.23229503631592,22.355806827545166 46.26253545284271,22.33806550502777 46.26253545284271,22.33806550502777 46.29284739494324,22.320467233657837 46.29284739494324,22.320467233657837 46.32315635681152,22.30297476053238 46.32315635681152,22.30297476053238 46.35353982448578,22.285552322864532 46.35353982448578,22.285552322864532 46.383923292160034,22.268129885196686 46.383923292160034,22.268129885196686 46.41423523426056,22.250637412071228 46.41423523426056,22.250637412071228 46.444615721702576,22.233037650585175 46.444615721702576,22.233037650585175 46.47478759288788,22.21529632806778 46.47478759288788,22.21529632806778 46.48158550262451,22.21147269010544 46.48158550262451,22.21147269010544 46.48810029029846,22.207647562026978 46.48810029029846,22.207647562026978 46.4948296546936,22.203823924064636 46.4948296546936,22.203823924064636 46.501415967941284,22.199998795986176 46.501415967941284,22.199998795986176 46.508073806762695,22.196175158023834 46.508073806762695,22.196175158023834 46.514588594436646,22.192351520061493 46.514588594436646,22.192351520061493 46.52131497859955,22.188526391983032 46.52131497859955,22.188526391983032 46.52804434299469,22.18470275402069 46.52804434299469,22.18470275402069 46.53066396713257,22.183072566986084 46.53066396713257,22.183072566986084 46.53335511684418,22.18147963285446 46.53335511684418,22.18147963285446 46.535977721214294,22.17995673418045 46.535977721214294,22.17995673418045 46.538808941841125,22.178469598293304 46.538808941841125,22.178469598293304 46.541571617126465,22.17698246240616 46.541571617126465,22.17698246240616 46.544334292411804,22.175459563732147 46.544334292411804,22.175459563732147 46.54702544212341,22.173866629600525 46.54702544212341,22.173866629600525 46.54957354068756,22.172237932682037 46.54957354068756,22.172237932682037 46.7936247587204,22.028540074825287 46.7936247587204,22.028540074825287 47.03795909881592,21.88626080751419 47.03795909881592,21.88626080751419 47.2824364900589,21.745042502880096 47.2824364900589,21.745042502880096 47.5270539522171,21.60453200340271 47.5270539522171,21.60453200340271 47.7717399597168,21.464447677135468 47.7717399597168,21.464447677135468 48.016357421875,21.324503421783447 48.016357421875,21.324503421783447 48.26090633869171,21.184347569942474 48.26090633869171,21.184347569942474 48.505380749702454,21.043625473976135 48.505380749702454,21.043625473976135 48.75949025154114,20.896954834461212 48.75949025154114,20.896954834461212 49.01366829872131,20.75028270483017 49.01366829872131,20.75028270483017 49.26784634590149,20.6038236618042 49.26784634590149,20.6038236618042 49.522095918655396,20.457789301872253 49.522095918655396,20.457789301872253 49.776485562324524,20.312392711639404 49.776485562324524,20.312392711639404 50.03094673156738,20.167846977710724 50.03094673156738,20.167846977710724 50.285691022872925,20.024362206459045 50.285691022872925,20.024362206459045 50.5405068397522,19.88215297460556 50.5405068397522,19.88215297460556 50.96890926361084,19.645360112190247 50.96890926361084,19.645360112190247 51.39759182929993,19.41019743680954 51.39759182929993,19.41019743680954 51.82669758796692,19.177018105983734 51.82669758796692,19.177018105983734 52.25594639778137,18.946033716201782 52.25594639778137,18.946033716201782 52.68562436103821,18.717527389526367 52.68562436103821,18.717527389526367 53.11571955680847,18.491855263710022 53.11571955680847,18.491855263710022 53.54631543159485,18.269191682338715 53.54631543159485,18.269191682338715 53.97733449935913,18.049858510494232 53.97733449935913,18.049858510494232 54.58406209945679,17.734843492507935 54.58406209945679,17.734843492507935 55.199503898620605,17.408958077430725 55.199503898620605,17.408958077430725 55.82181215286255,17.08672046661377 55.82181215286255,17.08672046661377 56.449151039123535,16.782718896865845 56.449151039123535,16.782718896865845 57.0796012878418,16.511543095111847 57.0796012878418,16.511543095111847 57.71133303642273,16.287782788276672 57.71133303642273,16.287782788276672 58.34242105484009,16.125990450382233 58.34242105484009,16.125990450382233 58.97110104560852,16.04079306125641 58.97110104560852,16.04079306125641 58.987247943878174,16.03962481021881 58.987247943878174,16.03962481021881 59.003257751464844,16.038668155670166 59.003257751464844,16.038668155670166 59.019118547439575,16.037853062152863 59.019118547439575,16.037853062152863 59.035128355026245,16.03725105524063 59.035128355026245,16.03725105524063 59.05113220214844,16.036826372146606 59.05113220214844,16.036826372146606 59.06699299812317,16.036473214626312 59.06699299812317,16.036473214626312 59.08300280570984,16.03633165359497 59.08300280570984,16.03633165359497 59.09914970397949,16.03626012802124 59.09914970397949,16.03626012802124 59.560978412628174,16.094546020030975 59.560978412628174,16.094546020030975 60.008782148361206,16.255345940589905 60.008782148361206,16.255345940589905 60.44546365737915,16.497449576854706 60.44546365737915,16.497449576854706 60.874080657958984,16.799716651439667 60.874080657958984,16.799716651439667 61.29780411720276,17.140933871269226 61.29780411720276,17.140933871269226 61.71961426734924,17.50003546476364 61.71961426734924,17.50003546476364 62.14263439178467,17.855770885944366 62.14263439178467,17.855770885944366 62.56996989250183,18.186968564987183 62.56996989250183,18.186968564987183 63.25509548187256,18.63686293363571 63.25509548187256,18.63686293363571 63.95474076271057,19.017350673675537 63.95474076271057,19.017350673675537 64.66543674468994,19.338031113147736 64.66543674468994,19.338031113147736 65.38413166999817,19.608497619628906 65.38413166999817,19.608497619628906 66.10750555992126,19.83838528394699 66.10750555992126,19.83838528394699 66.8322205543518,20.037323236465454 66.8322205543518,20.037323236465454 67.55523681640625,20.214907824993134 67.55523681640625,20.214907824993134 68.27308535575867,20.380735397338867 68.27308535575867,20.380735397338867 68.48980188369751,20.4276904463768 68.48980188369751,20.4276904463768 68.70665550231934,20.469652116298676 68.70665550231934,20.469652116298676 68.92358064651489,20.506267249584198 68.92358064651489,20.506267249584198 69.14036870002747,20.537109673023224 69.14036870002747,20.537109673023224 69.35715079307556,20.561791956424713 69.35715079307556,20.561791956424713 69.5738673210144,20.579922199249268 69.5738673210144,20.579922199249268 69.79036927223206,20.591075718402863 69.79036927223206,20.591075718402863 70.00679969787598,20.594900846481323 70.00679969787598,20.594900846481323 70.40141224861145,20.58151513338089 70.40141224861145,20.58151513338089 70.79475522041321,20.539836585521698 70.79475522041321,20.539836585521698 71.18654251098633,20.46738564968109 71.18654251098633,20.46738564968109 71.57634496688843,20.361755788326263 71.57634496688843,20.361755788326263 71.96387648582458,20.22053748369217 71.96387648582458,20.22053748369217 72.34872579574585,20.041324198246002 72.34872579574585,20.041324198246002 72.73066639900208,19.821670651435852 72.73066639900208,19.821670651435852 73.10934662818909,19.559206068515778 73.10934662818909,19.559206068515778 73.72584939002991,19.0319761633873 73.72584939002991,19.0319761633873 74.30559396743774,18.420042097568512 74.30559396743774,18.420042097568512 74.85594749450684,17.737534642219543 74.85594749450684,17.737534642219543 75.38427710533142,16.998441517353058 75.38427710533142,16.998441517353058 75.89794397354126,16.216926276683807 75.89794397354126,16.216926276683807 76.40452980995178,15.407082438468933 76.40452980995178,15.407082438468933 76.91118717193604,14.582931995391846 76.91118717193604,14.582931995391846 77.42549180984497,13.758639991283417 77.42549180984497,13.758639991283417 78.29064726829529,12.601664662361145 78.29064726829529,12.601664662361145 79.24256324768066,11.683427542448044 79.24256324768066,11.683427542448044 80.26458621025085,10.977867990732193 80.26458621025085,10.977867990732193 81.34036660194397,10.458923131227493 81.34036660194397,10.458923131227493 82.45318531990051,10.100601613521576 82.45318531990051,10.100601613521576 83.58668088912964,9.876912087202072 83.58668088912964,9.876912087202072 84.72421765327454,9.761755913496017 84.72421765327454,9.761755913496017 85.8492910861969,9.729178249835968 85.8492910861969,9.729178249835968 86.2055242061615,9.731975942850113 86.2055242061615,9.731975942850113 86.55835390090942,9.739730507135391 86.55835390090942,9.739730507135391 86.90714836120605,9.751557558774948 86.90714836120605,9.751557558774948 87.25127577781677,9.76671352982521 87.25127577781677,9.76671352982521 87.59015202522278,9.784206748008728 87.59015202522278,9.784206748008728 87.9233717918396,9.803257882595062 87.9233717918396,9.803257882595062 88.25014233589172,9.822981059551239 88.25014233589172,9.822981059551239 88.56996893882751,9.842492640018463 88.56996893882751,9.842492640018463 100.0,11.771104484796524 100.0,11.771104484796524" stroke="white" stroke-width="0.1" /><polygon points="84.80339646339417,60.77393889427185 84.80339646339417,60.77393889427185 84.80339646339417,60.77393889427185 84.80339646339417,60.77393889427185 84.8271906375885,62.05630302429199 84.8271906375885,62.05630302429199 84.85084772109985,63.3385956287384 84.85084772109985,63.3385956287384 84.87443327903748,64.62082266807556 84.87443327903748,64.62082266807556 84.89801287651062,65.90297222137451 84.89801287651062,65.90297222137451 84.92159843444824,67.18505620956421 84.92159843444824,67.18505620956421 84.94518399238586,68.4671401977539 84.94518399238586,68.4671401977539 84.96890664100647,69.74911093711853 84.96890664100647,69.74911093711853 84.99263525009155,71.03115916252136 84.99263525009155,71.03115916252136 84.99149680137634,71.32032513618469 84.99149680137634,71.32032513618469 84.97372269630432,71.60350680351257 84.97372269630432,71.60350680351257 84.93427634239197,71.87874913215637 84.93427634239197,71.87874913215637 84.86798405647278,72.1441924571991 84.86798405647278,72.1441924571991 84.76982712745667,72.39784002304077 84.76982712745667,72.39784002304077 84.63476896286011,72.63767719268799 84.63476896286011,72.63767719268799 84.45764780044556,72.86193370819092 84.45764780044556,72.86193370819092 84.23342704772949,73.06855320930481 84.23342704772949,73.06855320930481 83.96104574203491,73.2462465763092 83.96104574203491,73.2462465763092 83.67159962654114,73.36996793746948 83.67159962654114,73.36996793746948 83.36855173110962,73.44900965690613 83.36855173110962,73.44900965690613 83.05566310882568,73.4927773475647 83.05566310882568,73.4927773475647 82.73640275001526,73.51055145263672 82.73640275001526,73.51055145263672 82.41444826126099,73.51168394088745 82.41444826126099,73.51168394088745 82.09341168403625,73.50555658340454 82.09341168403625,73.50555658340454 81.77676796913147,73.50141406059265 81.77676796913147,73.50141406059265 81.37903213500977,73.50137829780579 81.37903213500977,73.50137829780579 80.98151087760925,73.50123524665833 80.98151087760925,73.50123524665833 80.58392405509949,73.50106239318848 80.58392405509949,73.50106239318848 80.18640279769897,73.50084781646729 80.18640279769897,73.50084781646729 79.78895306587219,73.5006332397461 79.78895306587219,73.5006332397461 79.39128875732422,73.50042462348938 79.39128875732422,73.50042462348938 78.99369597434998,73.50031733512878 78.99369597434998,73.50031733512878 78.596031665802,73.50028157234192 78.596031665802,73.50028157234192 78.2240092754364,73.49348068237305 78.2240092754364,73.49348068237305 77.85849571228027,73.46699833869934 77.85849571228027,73.46699833869934 77.50495672225952,73.41154217720032 77.50495672225952,73.41154217720032 77.16869711875916,73.31798672676086 77.16869711875916,73.31798672676086 76.85509920120239,73.17712306976318 76.85509920120239,73.17712306976318 76.56954526901245,72.97967076301575 76.56954526901245,72.97967076301575 76.31748914718628,72.7165699005127 76.31748914718628,72.7165699005127 76.10424757003784,72.37846851348877 76.10424757003784,72.37846851348877 76.01211071014404,72.16253280639648 76.01211071014404,72.16253280639648 75.94730854034424,71.9398021697998 75.94730854034424,71.9398021697998 75.90523958206177,71.71182632446289 75.90523958206177,71.71182632446289 75.8807361125946,71.4800238609314 75.8807361125946,71.4800238609314 75.86919069290161,71.24596238136292 75.86919069290161,71.24596238136292 75.86557865142822,71.01112008094788 75.86557865142822,71.01112008094788 75.86508393287659,70.77694535255432 75.86508393287659,70.77694535255432 75.86289048194885,70.54504156112671 75.86289048194885,70.54504156112671 75.85877776145935,70.45431733131409 75.85877776145935,70.45431733131409 75.8484423160553,70.3921377658844 75.8484423160553,70.3921377658844 75.82974433898926,70.35336494445801 75.82974433898926,70.35336494445801 75.80084800720215,70.33300399780273 75.80084800720215,70.33300399780273 75.7594883441925,70.32598853111267 75.7594883441925,70.32598853111267 75.70353746414185,70.32719254493713 75.70353746414185,70.32719254493713 75.63108801841736,70.33165693283081 75.63108801841736,70.33165693283081 75.53994059562683,70.33427357673645 75.53994059562683,70.33427357673645 72.31501340866089,70.33427357673645 72.31501340866089,70.33427357673645 66.36940240859985,70.33427357673645 66.36940240859985,70.33427357673645 59.947872161865234,70.33427357673645 59.947872161865234,70.33427357673645 57.16373920440674,70.33427357673645 57.16373920440674,70.33427357673645 57.09008574485779,70.36678194999695 57.09008574485779,70.36678194999695 57.04461336135864,70.45417428016663 57.04461336135864,70.45417428016663 57.021528482437134,70.58126330375671 57.021528482437134,70.58126330375671 57.01529383659363,70.73271870613098 57.01529383659363,70.73271870613098 57.02010989189148,70.89337706565857 57.02010989189148,70.89337706565857 57.03023672103882,71.04801535606384 57.03023672103882,71.04801535606384 57.03994035720825,71.18133902549744 57.03994035720825,71.18133902549744 57.04362392425537,71.27818465232849 57.04362392425537,71.27818465232849 57.02584981918335,71.56451940536499 57.02584981918335,71.56451940536499 56.982290744781494,71.84227705001831 56.982290744781494,71.84227705001831 56.91133141517639,72.10896015167236 56.91133141517639,72.10896015167236 56.81076645851135,72.36189842224121 56.81076645851135,72.36189842224121 56.67910575866699,72.59865403175354 56.67910575866699,72.59865403175354 56.514304876327515,72.81671166419983 56.514304876327515,72.81671166419983 56.31451606750488,73.01345467567444 56.31451606750488,73.01345467567444 56.07818365097046,73.18640351295471 56.07818365097046,73.18640351295471 55.726271867752075,73.35771918296814 55.726271867752075,73.35771918296814 55.33519983291626,73.46749305725098 55.33519983291626,73.46749305725098 54.91628646850586,73.52758049964905 54.91628646850586,73.52758049964905 54.48116064071655,73.54999780654907 54.48116064071655,73.54999780654907 54.041147232055664,73.5466718673706 54.041147232055664,73.5466718673706 53.60779166221619,73.52945804595947 53.60779166221619,73.52945804595947 53.192561864852905,73.51044416427612 53.192561864852905,73.51044416427612 52.80680060386658,73.50141406059265 52.80680060386658,73.50141406059265 52.422380447387695,73.50573539733887 52.422380447387695,73.50573539733887 52.03399062156677,73.51600527763367 52.03399062156677,73.51600527763367 51.64305567741394,73.52850437164307 51.64305567741394,73.52850437164307 51.250988245010376,73.53923320770264 51.250988245010376,73.53923320770264 50.859135389328,73.54440093040466 50.859135389328,73.54440093040466 50.46883821487427,73.54015707969666 50.46883821487427,73.54015707969666 50.081515312194824,73.52255582809448 50.081515312194824,73.52255582809448 49.69858229160309,73.48781824111938 49.69858229160309,73.48781824111938 48.91388118267059,73.23243618011475 48.91388118267059,73.23243618011475 48.38370978832245,72.7246105670929 48.38370978832245,72.7246105670929 48.06225001811981,72.02677130699158 48.06225001811981,72.02677130699158 47.903963923454285,71.20141386985779 47.903963923454285,71.20141386985779 47.863101959228516,70.31090259552002 47.863101959228516,70.31090259552002 47.893765568733215,69.41773891448975 47.893765568733215,69.41773891448975 47.95049428939819,68.58431100845337 47.95049428939819,68.58431100845337 47.98753559589386,67.8730845451355 47.98753559589386,67.8730845451355 48.00361096858978,67.0071542263031 48.00361096858978,67.0071542263031 48.019686341285706,66.14128947257996 48.019686341285706,66.14128947257996 48.035621643066406,65.27549624443054 48.035621643066406,65.27549624443054 48.05155694484711,64.40977454185486 48.05155694484711,64.40977454185486 48.06749224662781,63.54411840438843 48.06749224662781,63.54411840438843 48.08342754840851,62.678468227386475 48.08342754840851,62.678468227386475 48.0994313955307,61.81288957595825 48.0994313955307,61.81288957595825 48.115578293800354,60.94730496406555 48.115578293800354,60.94730496406555 48.1313019990921,60.784804821014404 48.1313019990921,60.784804821014404 48.16763401031494,60.62244772911072 48.16763401031494,60.62244772911072 48.21756184101105,60.46104431152344 48.21756184101105,60.46104431152344 48.27379584312439,60.301417112350464 48.27379584312439,60.301417112350464 48.329317569732666,60.1443350315094 48.329317569732666,60.1443350315094 48.376697301864624,59.9905788898468 48.376697301864624,59.9905788898468 48.40920567512512,59.84100699424744 48.40920567512512,59.84100699424744 48.41926097869873,59.696316719055176 48.41926097869873,59.696316719055176 48.414161801338196,59.48675274848938 48.414161801338196,59.48675274848938 48.40920567512512,59.27698016166687 48.40920567512512,59.27698016166687 48.40431809425354,59.06713604927063 48.40431809425354,59.06713604927063 48.3994334936142,58.85722041130066 48.3994334936142,58.85722041130066 48.394474387168884,58.647340536117554 48.394474387168884,58.647340536117554 48.38965833187103,58.43746066093445 48.38965833187103,58.43746066093445 48.38463068008423,58.22768807411194 48.38463068008423,58.22768807411194 48.379603028297424,58.01813006401062 48.379603028297424,58.01813006401062 48.431017994880676,57.722872495651245 48.431017994880676,57.722872495651245 48.58349859714508,57.48916268348694 48.58349859714508,57.48916268348694 48.809629678726196,57.299256324768066 48.809629678726196,57.299256324768066 49.08243417739868,57.135552167892456 49.08243417739868,57.135552167892456 49.374714493751526,56.98038339614868 49.374714493751526,56.98038339614868 49.659135937690735,56.81614875793457 49.659135937690735,56.81614875793457 49.90878105163574,56.62517547607422 49.90878105163574,56.62517547607422 50.096315145492554,56.38980269432068 50.096315145492554,56.38980269432068 49.594756960868835,56.33711218833923 49.594756960868835,56.33711218833923 49.13852512836456,56.17403984069824 49.13852512836456,56.17403984069824 48.738810420036316,55.916184186935425 48.738810420036316,55.916184186935425 48.406797647476196,55.579036474227905 48.406797647476196,55.579036474227905 48.15361201763153,55.17814755439758 48.15361201763153,55.17814755439758 47.99036681652069,54.72906827926636 47.99036681652069,54.72906827926636 47.928327322006226,54.247307777404785 47.928327322006226,54.247307777404785 47.97846972942352,53.748440742492676 47.97846972942352,53.748440742492676 48.13293218612671,53.281229734420776 48.13293218612671,53.281229734420776 48.362889885902405,52.90609002113342 48.362889885902405,52.90609002113342 48.65736365318298,52.613842487335205 48.65736365318298,52.613842487335205 49.005523324012756,52.395325899124146 49.005523324012756,52.395325899124146 49.39631521701813,52.24132537841797 49.39631521701813,52.24132537841797 49.81883764266968,52.14270353317261 49.81883764266968,52.14270353317261 50.26196837425232,52.09022760391235 50.26196837425232,52.09022760391235 50.71501135826111,52.07478404045105 50.71501135826111,52.07478404045105 50.92244744300842,52.0740807056427 50.92244744300842,52.0740807056427 51.1283278465271,52.074432373046875 51.1283278465271,52.074432373046875 51.33243799209595,52.0796000957489 51.33243799209595,52.0796000957489 51.53470039367676,52.09333896636963 51.53470039367676,52.09333896636963 51.735055446624756,52.11933255195618 51.735055446624756,52.11933255195618 51.93321704864502,52.16132998466492 51.93321704864502,52.16132998466492 52.12917923927307,52.22301483154297 52.12917923927307,52.22301483154297 52.32294797897339,52.30821371078491 52.32294797897339,52.30821371078491 52.47379541397095,52.032506465911865 52.47379541397095,52.032506465911865 52.624642848968506,51.75687074661255 52.624642848968506,51.75687074661255 52.775633335113525,51.481300592422485 52.775633335113525,51.481300592422485 52.926766872406006,51.20580792427063 52.926766872406006,51.20580792427063 53.07797193527222,50.93038082122803 53.07797193527222,50.93038082122803 53.2295286655426,50.654953718185425 53.2295286655426,50.654953718185425 53.38122844696045,50.37960410118103 53.38122844696045,50.37960410118103 53.53314280509949,50.10424852371216 53.53314280509949,50.10424852371216 53.66714000701904,49.8508483171463 53.66714000701904,49.8508483171463 53.80113124847412,49.58590567111969 53.80113124847412,49.58590567111969 53.938525915145874,49.315544962882996 53.938525915145874,49.315544962882996 54.08271551132202,49.04589056968689 54.08271551132202,49.04589056968689 54.237109422683716,48.78300130367279 54.237109422683716,48.78300130367279 54.40509915351868,48.5330730676651 54.40509915351868,48.5330730676651 54.59015369415283,48.302122950553894 54.59015369415283,48.302122950553894 54.79546785354614,48.09631705284119 54.79546785354614,48.09631705284119 55.096954107284546,47.87358343601227 55.096954107284546,47.87358343601227 55.431658029556274,47.69716560840607 55.431658029556274,47.69716560840607 55.791640281677246,47.56034016609192 55.791640281677246,47.56034016609192 56.168556213378906,47.45623171329498 56.168556213378906,47.45623171329498 56.554603576660156,47.378113865852356 56.554603576660156,47.378113865852356 56.94149732589722,47.319191694259644 56.94149732589722,47.319191694259644 57.3214590549469,47.272661328315735 57.3214590549469,47.272661328315735 57.68612027168274,47.231727838516235 57.68612027168274,47.231727838516235 58.57082009315491,47.13926911354065 58.57082009315491,47.13926911354065 59.45779085159302,47.06338346004486 59.45779085159302,47.06338346004486 60.346317291259766,47.00155556201935 60.346317291259766,47.00155556201935 61.23611927032471,46.95141613483429 61.23611927032471,46.95141613483429 62.126344442367554,46.91047966480255 62.126344442367554,46.91047966480255 63.01678419113159,46.87620401382446 63.01678419113159,46.87620401382446 63.906729221343994,46.84624671936035 63.906729221343994,46.84624671936035 64.79546427726746,46.81812822818756 64.79546427726746,46.81812822818756 66.12153053283691,46.786898374557495 66.12153053283691,46.786898374557495 67.4525499343872,46.77811563014984 67.4525499343872,46.77811563014984 68.78654360771179,46.79270386695862 68.78654360771179,46.79270386695862 70.12138366699219,46.83187007904053 70.12138366699219,46.83187007904053 71.4550256729126,46.896564960479736 71.4550256729126,46.896564960479736 72.7854073047638,46.98781669139862 72.7854073047638,46.98781669139862 74.11034107208252,47.10676372051239 74.11034107208252,47.10676372051239 75.42775869369507,47.25438952445984 75.42775869369507,47.25438952445984 75.77924728393555,47.29759097099304 75.77924728393555,47.29759097099304 76.14418864250183,47.347378730773926 76.14418864250183,47.347378730773926 76.51501297950745,47.410303354263306 76.51501297950745,47.410303354263306 76.88370943069458,47.492775321006775 76.88370943069458,47.492775321006775 77.24255919456482,47.60134518146515 77.24255919456482,47.60134518146515 77.58399248123169,47.74249196052551 77.58399248123169,47.74249196052551 77.89971232414246,47.92269766330719 77.89971232414246,47.92269766330719 78.18243503570557,48.148441314697266 78.18243503570557,48.148441314697266 78.28732132911682,48.25686812400818 78.28732132911682,48.25686812400818 78.38356494903564,48.372235894203186 78.38356494903564,48.372235894203186 78.47251892089844,48.49330484867096 78.47251892089844,48.49330484867096 78.55552434921265,48.61883819103241 78.55552434921265,48.61883819103241 78.63399386405945,48.747625946998596 78.63399386405945,48.747625946998596 78.70920300483704,48.8783985376358 78.70920300483704,48.8783985376358 78.78264784812927,49.009984731674194 78.78264784812927,49.009984731674194 78.85552048683167,49.14107620716095 78.85552048683167,49.14107620716095 79.0416419506073,49.474433064460754 79.0416419506073,49.474433064460754 79.22683954238892,49.80814456939697 79.22683954238892,49.80814456939697 79.41139936447144,50.14217495918274 79.41139936447144,50.14217495918274 79.59546446800232,50.47648549079895 79.59546446800232,50.47648549079895 79.77896332740784,50.81101059913635 79.77896332740784,50.81101059913635 79.96239066123962,51.145678758621216 79.96239066123962,51.145678758621216 80.1453948020935,51.480454206466675 80.1453948020935,51.480454206466675 80.3286075592041,51.81529521942139 80.3286075592041,51.81529521942139 80.41905164718628,51.98119282722473 80.41905164718628,51.98119282722473 80.48703670501709,52.099502086639404 80.48703670501709,52.099502086639404 80.54390549659729,52.17599272727966 80.54390549659729,52.17599272727966 80.60098886489868,52.21657156944275 80.60098886489868,52.21657156944275 80.66940307617188,52.22705006599426 80.66940307617188,52.22705006599426 80.76062202453613,52.21317410469055 80.76062202453613,52.21317410469055 80.88576197624207,52.18087434768677 80.88576197624207,52.18087434768677 81.05608820915222,52.135974168777466 81.05608820915222,52.135974168777466 81.12096190452576,52.12099552154541 81.12096190452576,52.12099552154541 81.18569254875183,52.10825204849243 81.18569254875183,52.10825204849243 81.25035166740417,52.09769606590271 81.25035166740417,52.09769606590271 81.31515383720398,52.089232206344604 81.31515383720398,52.089232206344604 81.38023614883423,52.082788944244385 81.38023614883423,52.082788944244385 81.4456045627594,52.07829475402832 81.4456045627594,52.07829475402832 81.5116822719574,52.07563638687134 81.5116822719574,52.07563638687134 81.57846927642822,52.07478404045105 81.57846927642822,52.07478404045105 82.36940503120422,52.07478404045105 82.36940503120422,52.07478404045105 82.63214826583862,52.07775831222534 82.63214826583862,52.07775831222534 82.88958668708801,52.0898699760437 82.88958668708801,52.0898699760437 83.14114809036255,52.115970849990845 83.14114809036255,52.115970849990845 83.38626027107239,52.16076374053955 83.38626027107239,52.16076374053955 83.62429141998291,52.229106426239014 83.62429141998291,52.229106426239014 83.85467529296875,52.32577919960022 83.85467529296875,52.32577919960022 84.07683968544006,52.45552062988281 84.07683968544006,52.45552062988281 84.2900812625885,52.62323021888733 84.2900812625885,52.62323021888733 84.71890687942505,53.158777952194214 84.71890687942505,53.158777952194214 84.94043946266174,53.763240575790405 84.94043946266174,53.763240575790405 84.97074842453003,54.39291596412659 84.97074842453003,54.39291596412659 84.82634425163269,55.00410795211792 84.82634425163269,55.00410795211792 84.52322483062744,55.55307865142822 84.52322483062744,55.55307865142822 84.07782912254333,55.996173620224 84.07782912254333,55.996173620224 83.50630402565002,56.289660930633545 83.50630402565002,56.289660930633545 82.82492756843567,56.38980269432068 82.82492756843567,56.38980269432068 82.97004103660583,56.55566453933716 82.97004103660583,56.55566453933716 83.19942951202393,56.722450256347656 83.19942951202393,56.722450256347656 83.4810197353363,56.889837980270386 83.4810197353363,56.889837980270386 83.7827205657959,57.0573627948761 83.7827205657959,57.0573627948761 84.07244682312012,57.22475051879883 84.07244682312012,57.22475051879883 84.31798815727234,57.39164352416992 84.31798815727234,57.39164352416992 84.48739051818848,57.557612657547 84.48739051818848,57.557612657547 84.54843759536743,57.72237777709961 84.54843759536743,57.72237777709961 84.54376459121704,57.9149067401886 84.54376459121704,57.9149067401886 84.53909158706665,58.107542991638184 84.53909158706665,58.107542991638184 84.53449010848999,58.300209045410156 84.53449010848999,58.300209045410156 84.52988266944885,58.49291682243347 84.52988266944885,58.49291682243347 84.52528119087219,58.68562459945679 84.52528119087219,58.68562459945679 84.52088832855225,58.87829065322876 84.52088832855225,58.87829065322876 84.51642990112305,59.07089114189148 84.51642990112305,59.07089114189148 84.51218008995056,59.263455867767334 84.51218008995056,59.263455867767334 84.5201849937439,59.46621894836426 84.5201849937439,59.46621894836426 84.54985618591309,59.657222032547 84.54985618591309,59.657222032547 84.59447622299194,59.84036922454834 84.59447622299194,59.84036922454834 84.64716672897339,60.01954674720764 84.64716672897339,60.01954674720764 84.70120429992676,60.19861698150635 84.70120429992676,60.19861698150635 84.74978804588318,60.3814423084259 84.74978804588318,60.3814423084259 84.78604555130005,60.57192087173462 84.78604555130005,60.57192087173462" stroke="white" stroke-width="0.1" /><polygon points="53.442490100860596,63.12747597694397 53.442490100860596,63.12747597694397 53.442490100860596,63.12747597694397 53.442490100860596,63.12747597694397 54.59617376327515,62.893128395080566 54.59617376327515,62.893128395080566 55.42032718658447,62.275320291519165 55.42032718658447,62.275320291519165 55.914872884750366,61.401838064193726 55.914872884750366,61.401838064193726 56.07960224151611,60.40056347846985 56.07960224151611,60.40056347846985 55.914729833602905,59.39928889274597 55.914729833602905,59.39928889274597 55.42032718658447,58.52581262588501 55.42032718658447,58.52581262588501 54.59617376327515,57.90800452232361 54.59617376327515,57.90800452232361 53.442490100860596,57.67365097999573 53.442490100860596,57.67365097999573 52.28866934776306,57.90800452232361 52.28866934776306,57.90800452232361 51.464658975601196,58.52581262588501 51.464658975601196,58.52581262588501 50.970256328582764,59.39928889274597 50.970256328582764,59.39928889274597 50.805383920669556,60.40056347846985 50.805383920669556,60.40056347846985 50.970256328582764,61.401838064193726 50.970256328582764,61.401838064193726 51.464658975601196,62.275320291519165 51.464658975601196,62.275320291519165 52.28866934776306,62.893128395080566 52.28866934776306,62.893128395080566" stroke="white" stroke-width="0.1" /><polygon points="74.67648386955261,61.70424818992615 74.67648386955261,61.70424818992615 74.67648386955261,61.70424818992615 74.67648386955261,61.70424818992615 75.03611445426941,61.65251135826111 75.03611445426941,61.65251135826111 75.2662181854248,61.51069402694702 75.2662181854248,61.51069402694702 75.3885269165039,61.29879355430603 75.3885269165039,61.29879355430603 75.42478442192078,61.03696823120117 75.42478442192078,61.03696823120117 75.39688348770142,60.74521541595459 75.39688348770142,60.74521541595459 75.3264844417572,60.44362187385559 75.3264844417572,60.44362187385559 75.23548007011414,60.152262449264526 75.23548007011414,60.152262449264526 75.1456081867218,59.891217947006226 75.1456081867218,59.891217947006226 75.04079341888428,59.62485671043396 75.04079341888428,59.62485671043396 74.9123215675354,59.372520446777344 74.9123215675354,59.372520446777344 74.75849986076355,59.140753746032715 74.75849986076355,59.140753746032715 74.57818388938904,58.936262130737305 74.57818388938904,58.936262130737305 74.36968684196472,58.76564979553223 74.36968684196472,58.76564979553223 74.13151264190674,58.63555073738098 74.13151264190674,58.63555073738098 73.86217713356018,58.5526168346405 73.86217713356018,58.5526168346405 73.5603392124176,58.52351188659668 73.5603392124176,58.52351188659668 71.20226621627808,58.52351188659668 71.20226621627808,58.52351188659668 61.97280287742615,58.52351188659668 61.97280287742615,58.52351188659668 59.72237586975098,58.52351188659668 59.72237586975098,58.52351188659668 59.278613328933716,58.57333540916443 59.278613328933716,58.57333540916443 58.916497230529785,58.713310956954956 58.916497230529785,58.713310956954956 58.623796701431274,58.92917513847351 58.623796701431274,58.92917513847351 58.38810205459595,59.206658601760864 58.38810205459595,59.206658601760864 58.19730758666992,59.53144431114197 58.19730758666992,59.53144431114197 58.039093017578125,59.889304637908936 58.039093017578125,59.889304637908936 57.901060581207275,60.26589870452881 57.901060581207275,60.26589870452881 57.77110457420349,60.64702272415161 57.77110457420349,60.64702272415161 57.70113468170166,60.97906827926636 57.70113468170166,60.97906827926636 57.736045122146606,61.23335361480713 57.736045122146606,61.23335361480713 57.85665512084961,61.420220136642456 57.85665512084961,61.420220136642456 58.04390907287598,61.549997329711914 58.04390907287598,61.549997329711914 58.278608322143555,61.63296699523926 58.278608322143555,61.63296699523926 58.541715145111084,61.67945861816406 58.541715145111084,61.67945861816406 58.81409049034119,61.699748039245605 58.81409049034119,61.699748039245605 59.07648801803589,61.70424818992615 59.07648801803589,61.70424818992615 61.80736422538757,61.70424818992615 61.80736422538757,61.70424818992615" stroke="white" stroke-width="0.1" /><polygon points="72.54164218902588,54.216426610946655 72.54164218902588,54.216426610946655 72.54164218902588,54.216426610946655 72.54164218902588,54.216426610946655 73.45368266105652,54.28817272186279 73.45368266105652,54.28817272186279 74.36331510543823,54.38055992126465 74.36331510543823,54.38055992126465 75.27046799659729,54.49284315109253 75.27046799659729,54.49284315109253 76.1749267578125,54.62436079978943 76.1749267578125,54.62436079978943 77.07662582397461,54.77436184883118 77.07662582397461,54.77436184883118 77.9752790927887,54.94210124015808 77.9752790927887,54.94210124015808 78.87089252471924,55.12691140174866 78.87089252471924,55.12691140174866 79.76316809654236,55.328041315078735 79.76316809654236,55.328041315078735 79.46578860282898,54.78540658950806 79.46578860282898,54.78540658950806 79.1684091091156,54.24280762672424 79.1684091091156,54.24280762672424 78.87110114097595,53.70028018951416 78.87110114097595,53.70028018951416 78.57365012168884,53.15778851509094 78.57365012168884,53.15778851509094 78.27613353729248,52.615439891815186 78.27613353729248,52.615439891815186 77.97846794128418,52.07319259643555 77.97846794128418,52.07319259643555 77.68052220344543,51.531124114990234 77.68052220344543,51.531124114990234 77.38243341445923,50.98923444747925 77.38243341445923,50.98923444747925 77.31005549430847,50.84390640258789 77.31005549430847,50.84390640258789 77.23080515861511,50.66816210746765 77.23080515861511,50.66816210746765 77.1439790725708,50.47482252120972 77.1439790725708,50.47482252120972 77.04843878746033,50.27676820755005 77.04843878746033,50.27676820755005 76.94348096847534,50.08689761161804 76.94348096847534,50.08689761161804 76.82825326919556,49.9180942773819 76.82825326919556,49.9180942773819 76.7017662525177,49.783214926719666 76.7017662525177,49.783214926719666 76.56317353248596,49.69518184661865 76.56317353248596,49.69518184661865 76.35056376457214,49.61763322353363 76.35056376457214,49.61763322353363 76.12910866737366,49.556514620780945 76.12910866737366,49.556514620780945 75.90113282203674,49.508991837501526 75.90113282203674,49.508991837501526 75.66925883293152,49.47223663330078 75.66925883293152,49.47223663330078 75.43562054634094,49.44344758987427 75.43562054634094,49.44344758987427 75.20282864570618,49.41982924938202 75.20282864570618,49.41982924938202 74.97308850288391,49.398547410964966 74.97308850288391,49.398547410964966 74.74900484085083,49.37677085399628 74.74900484085083,49.37677085399628 73.22337031364441,49.23480749130249 73.22337031364441,49.23480749130249 71.69610261917114,49.1265207529068 71.69610261917114,49.1265207529068 70.16763091087341,49.050140380859375 70.16763091087341,49.050140380859375 68.63809823989868,49.00396466255188 68.63809823989868,49.00396466255188 67.10807085037231,48.98625910282135 67.10807085037231,48.98625910282135 65.5777633190155,48.99528920650482 65.5777633190155,48.99528920650482 64.04752135276794,49.02932047843933 64.04752135276794,49.02932047843933 62.51784563064575,49.08668398857117 62.51784563064575,49.08668398857117 61.992138624191284,49.110692739486694 61.992138624191284,49.110692739486694 61.466288566589355,49.13640022277832 61.466288566589355,49.13640022277832 60.94051003456116,49.16444718837738 60.94051003456116,49.16444718837738 60.41486859321594,49.195465445518494 60.41486859321594,49.195465445518494 59.8894476890564,49.230098724365234 59.8894476890564,49.230098724365234 59.36451554298401,49.26897883415222 59.36451554298401,49.26897883415222 58.840084075927734,49.31274652481079 58.840084075927734,49.31274652481079 58.316147327423096,49.36203956604004 58.316147327423096,49.36203956604004 58.11048150062561,49.375635385513306 58.11048150062561,49.375635385513306 57.836681604385376,49.38863217830658 57.836681604385376,49.38863217830658 57.52004384994507,49.40771758556366 57.52004384994507,49.40771758556366 57.18611478805542,49.43965971469879 57.18611478805542,49.43965971469879 56.860196590423584,49.491146206855774 56.860196590423584,49.491146206855774 56.567418575286865,49.56887364387512 56.567418575286865,49.56887364387512 56.333428621292114,49.679601192474365 56.333428621292114,49.679601192474365 56.18357062339783,49.83002841472626 56.18357062339783,49.83002841472626 55.795180797576904,50.51122307777405 55.795180797576904,50.51122307777405 55.41189908981323,51.195502281188965 55.41189908981323,51.195502281188965 55.03278970718384,51.88215374946594 55.03278970718384,51.88215374946594 54.656511545181274,52.570539712905884 54.656511545181274,52.570539712905884 54.28215265274048,53.25998663902283 54.28215265274048,53.25998663902283 53.90856862068176,53.94982099533081 53.90856862068176,53.94982099533081 53.53463292121887,54.639410972595215 53.53463292121887,54.639410972595215 53.1592071056366,55.328041315078735 53.1592071056366,55.328041315078735 55.55028319358826,54.8348069190979 55.55028319358826,54.8348069190979 57.956939935684204,54.46515679359436 57.956939935684204,54.46515679359436 60.375988483428955,54.20796871185303 60.375988483428955,54.20796871185303 62.80410885810852,54.05198335647583 62.80410885810852,54.05198335647583 65.23802876472473,53.98604869842529 65.23802876472473,53.98604869842529 67.67436265945435,53.99893522262573 67.67436265945435,53.99893522262573 70.11005282402039,54.079461097717285 70.11005282402039,54.079461097717285" stroke="white" stroke-width="0.1" /><polygon points="79.47988510131836,63.12747597694397 79.47988510131836,63.12747597694397 79.47988510131836,63.12747597694397 79.47988510131836,63.12747597694397 80.63356876373291,62.893128395080566 80.63356876373291,62.893128395080566 81.45778775215149,62.275320291519165 81.45778775215149,62.275320291519165 81.95212483406067,61.401838064193726 81.95212483406067,61.401838064193726 82.11699724197388,60.40056347846985 82.11699724197388,60.40056347846985 81.9521963596344,59.39928889274597 81.9521963596344,59.39928889274597 81.45764470100403,58.52581262588501 81.45764470100403,58.52581262588501 80.63364028930664,57.90800452232361 80.63364028930664,57.90800452232361 79.47988510131836,57.67365097999573 79.47988510131836,57.67365097999573 78.3257782459259,57.90800452232361 78.3257782459259,57.90800452232361 77.50141620635986,58.52581262588501 77.50141620635986,58.52581262588501 77.00679898262024,59.39928889274597 77.00679898262024,59.39928889274597 76.84192657470703,60.40056347846985 76.84192657470703,60.40056347846985 77.00672745704651,61.401838064193726 77.00672745704651,61.401838064193726 77.50141620635986,62.275320291519165 77.50141620635986,62.275320291519165 78.32584977149963,62.893128395080566 78.32584977149963,62.893128395080566" stroke="white" stroke-width="0.1" /></svg>