<?xml version="1.0" encoding="utf-8" ?>
<svg baseProfile="full" height="71.67229652404785" version="1.1" width="99.99999403953552" xmlns="http://www.w3.org/2000/svg" xmlns:ev="http://www.w3.org/2001/xml-events" xmlns:xlink="http://www.w3.org/1999/xlink"><defs><clipPath /></defs><polygon points="7.044250518083572,47.581785917282104 7.044250518083572,47.581785917282104 6.895218044519424,47.578832507133484 6.895218044519424,47.578832507133484 6.701862812042236,47.557926177978516 6.701862812042236,47.557926177978516 6.462597846984863,47.50126898288727 6.462597846984863,47.50126898288727 6.175686419010162,47.390908002853394 6.175686419010162,47.390908002853394 5.839540809392929,47.208890318870544 5.839540809392929,47.208890318870544 5.452461540699005,46.93756699562073 5.452461540699005,46.93756699562073 5.012860521674156,46.55883312225342 5.012860521674156,46.55883312225342 4.519075900316238,46.054744720458984 4.519075900316238,46.054744720458984 0.3557583084329963,41.47716462612152 0.3557583084329963,41.47716462612152 0.3557583084329963,22.59538024663925 0.3557583084329963,22.59538024663925 0.5754848476499319,19.72087323665619 0.5754848476499319,19.72087323665619 1.216714084148407,16.954919695854187 1.216714084148407,16.954919695854187 2.2525573149323463,14.319641888141632 2.2525573149323463,14.319641888141632 3.65619957447052,11.83708980679512 3.65619957447052,11.83708980679512 5.400752276182175,9.529351443052292 5.400752276182175,9.529351443052292 7.4594005942344666,7.418476790189743 7.4594005942344666,7.418476790189743 9.805218875408173,5.526479333639145 9.805218875408173,5.526479333639145 12.41135522723198,3.8755200803279877 12.41135522723198,3.8755200803279877 12.937310338020325,3.5890888422727585 12.937310338020325,3.5890888422727585 13.471686840057373,3.3126667141914368 13.471686840057373,3.3126667141914368 14.014299213886261,3.0463282018899918 14.014299213886261,3.0463282018899918 14.564889669418335,2.790294587612152 14.564889669418335,2.790294587612152 15.123273432254791,2.544565685093403 15.123273432254791,2.544565685093403 15.689192712306976,2.309252507984638 15.689192712306976,2.309252507984638 16.262535750865936,2.084502950310707 16.262535750865936,2.084502950310707 16.84296876192093,1.8703904002904892 16.84296876192093,1.8703904002904892 17.86666065454483,1.523127220571041 17.86666065454483,1.523127220571041 18.910740315914154,1.2096595019102097 18.910740315914154,1.2096595019102097 19.97421085834503,0.9306891821324825 19.97421085834503,0.9306891821324825 21.056075394153595,0.6869178730994463 21.056075394153595,0.6869178730994463 22.155410051345825,0.4791213199496269 22.155410051345825,0.4791213199496269 23.271217942237854,0.3081121016293764 23.271217942237854,0.3081121016293764 24.402537941932678,0.1745549961924553 24.402537941932678,0.1745549961924553 25.548410415649414,0.07918872870504856 25.548410415649414,0.07918872870504856 25.82283914089203,0.06168151739984751 25.82283914089203,0.06168151739984751 26.097893714904785,0.04613186465576291 26.097893714904785,0.04613186465576291 26.373538374900818,0.03257670614402741 26.373538374900818,0.03257670614402741 26.64981484413147,0.0212007129448466 26.64981484413147,0.0212007129448466 26.92667841911316,0.0121516284707468 26.92667841911316,0.0121516284707468 27.20417082309723,0.005466385846375488 27.20417082309723,0.005466385846375488 27.482256293296814,0.001366596461593872 27.482256293296814,0.001366596461593872 27.76096761226654,0.0 27.76096761226654,0.0 28.04078757762909,0.001366596461593872 28.04078757762909,0.001366596461593872 28.319573402404785,0.005466385846375488 28.319573402404785,0.005466385846375488 28.59750986099243,0.012114693527109921 28.59750986099243,0.012114693527109921 28.874707221984863,0.0212007129448466 28.874707221984863,0.0212007129448466 29.15123999118805,0.03257670614402741 29.15123999118805,0.03257670614402741 29.427292943000793,0.04616880032699555 29.427292943000793,0.04616880032699555 29.70290184020996,0.06168151739984751 29.70290184020996,0.06168151739984751 29.978251457214355,0.07918872870504856 29.978251457214355,0.07918872870504856 30.127617716789246,0.09049084619618952 30.127617716789246,0.09049084619618952 30.276650190353394,0.10367665672674775 30.276650190353394,0.10367665672674775 30.425387620925903,0.11837680358439684 30.425387620925903,0.11837680358439684 30.57401478290558,0.1341480645351112 30.57401478290558,0.1341480645351112 30.722492933273315,0.15058416174724698 30.722492933273315,0.15058416174724698 30.87104558944702,0.16727879410609603 30.87104558944702,0.16727879410609603 31.019634008407593,0.183788756839931 31.019634008407593,0.183788756839931 31.168445944786072,0.19974468741565943 31.168445944786072,0.19974468741565943 32.15239644050598,0.3139478387311101 32.15239644050598,0.3139478387311101 33.12511742115021,0.4552982281893492 33.12511742115021,0.4552982281893492 34.085944294929504,0.6237589754164219 34.085944294929504,0.6237589754164219 35.03406643867493,0.8192191831767559 35.03406643867493,0.8192191831767559 35.96874475479126,1.04167889803648 35.96874475479126,1.04167889803648 36.88916563987732,1.2910273857414722 36.88916563987732,1.2910273857414722 37.79459297657013,1.5673384070396423 37.79459297657013,1.5673384070396423 38.684284687042236,1.8703904002904892 38.684284687042236,1.8703904002904892 39.26471769809723,2.084502950310707 39.26471769809723,2.084502950310707 39.838024973869324,2.309252507984638 39.838024973869324,2.309252507984638 40.40394127368927,2.544565685093403 40.40394127368927,2.544565685093403 40.96229076385498,2.790294587612152 40.96229076385498,2.790294587612152 41.512805223464966,3.0464021489024162 41.512805223464966,3.0464021489024162 42.05530881881714,3.3126667141914368 42.05530881881714,3.3126667141914368 42.589572072029114,3.589051589369774 42.589572072029114,3.589051589369774 43.11530590057373,3.8755200803279877 43.11530590057373,3.8755200803279877 44.10040080547333,4.452445358037949 44.10040080547333,4.452445358037949 45.05240321159363,5.0637200474739075 45.05240321159363,5.0637200474739075 45.970162749290466,5.708310380578041 45.970162749290466,5.708310380578041 46.852320432662964,6.3851818442344666 46.852320432662964,6.3851818442344666 47.69776463508606,7.093226909637451 47.69776463508606,7.093226909637451 48.50516319274902,7.831447571516037 48.50516319274902,7.831447571516037 49.27337467670441,8.598662167787552 49.27337467670441,8.598662167787552 50.00118017196655,9.393910318613052 50.00118017196655,9.393910318613052 50.72850584983826,8.598698675632477 50.72850584983826,8.598698675632477 51.496607065200806,7.831410318613052 51.496607065200806,7.831410318613052 52.30422616004944,7.093226909637451 52.30422616004944,7.093226909637451 53.15003991127014,6.3851818442344666 53.15003991127014,6.3851818442344666 54.032713174819946,5.708273500204086 54.032713174819946,5.708273500204086 54.95091676712036,5.0637200474739075 54.95091676712036,5.0637200474739075 55.9033989906311,4.452408477663994 55.9033989906311,4.452408477663994 56.888824701309204,3.8755200803279877 56.888824701309204,3.8755200803279877 57.41456151008606,3.5890888422727585 57.41456151008606,3.5890888422727585 57.94878602027893,3.3126667141914368 57.94878602027893,3.3126667141914368 58.49121809005737,3.0463282018899918 58.49121809005737,3.0463282018899918 59.041619300842285,2.790294587612152 59.041619300842285,2.790294587612152 59.59970951080322,2.544565685093403 59.59970951080322,2.544565685093403 60.16533374786377,2.309252507984638 60.16533374786377,2.309252507984638 60.73819398880005,2.084502950310707 60.73819398880005,2.084502950310707 61.31807565689087,1.8703904002904892 61.31807565689087,1.8703904002904892 62.34235763549805,1.523127220571041 62.34235763549805,1.523127220571041 63.38688135147095,1.2096595019102097 63.38688135147095,1.2096595019102097 64.45068717002869,0.9306891821324825 64.45068717002869,0.9306891821324825 65.5328094959259,0.6869178730994463 65.5328094959259,0.6869178730994463 66.63232445716858,0.4791213199496269 66.63232445716858,0.4791213199496269 67.74832010269165,0.3081121016293764 67.74832010269165,0.3081121016293764 68.87982487678528,0.1745549961924553 68.87982487678528,0.1745549961924553 70.02587914466858,0.07918872870504856 70.02587914466858,0.07918872870504856 70.30004858970642,0.06168151739984751 70.30004858970642,0.06168151739984751 70.57477235794067,0.04613186465576291 70.57477235794067,0.04613186465576291 70.8500862121582,0.03257670614402741 70.8500862121582,0.03257670614402741 71.12610340118408,0.0212007129448466 71.12610340118408,0.0212007129448466 71.40281796455383,0.0121516284707468 71.40281796455383,0.0121516284707468 71.68031334877014,0.005466385846375488 71.68031334877014,0.005466385846375488 71.95865511894226,0.001366596461593872 71.95865511894226,0.001366596461593872 72.23784923553467,0.0 72.23784923553467,0.0 72.51715064048767,0.001366596461593872 72.51715064048767,0.001366596461593872 72.79571294784546,0.005466385846375488 72.79571294784546,0.005466385846375488 73.07361364364624,0.012114693527109921 73.07361364364624,0.012114693527109921 73.35092425346375,0.0212007129448466 73.35092425346375,0.0212007129448466 73.62767457962036,0.03257670614402741 73.62767457962036,0.03257670614402741 73.90391230583191,0.04616880032699555 73.90391230583191,0.04616880032699555 74.17970895767212,0.06168151739984751 74.17970895767212,0.06168151739984751 74.45513010025024,0.07918872870504856 74.45513010025024,0.07918872870504856 75.60041546821594,0.1745549961924553 75.60041546821594,0.1745549961924553 76.73136591911316,0.3081121016293764 76.73136591911316,0.3081121016293764 77.84695029258728,0.47915829345583916 77.84695029258728,0.47915829345583916 78.94620895385742,0.6869178730994463 78.94620895385742,0.6869178730994463 80.02825975418091,0.9306522086262703 80.02825975418091,0.9306522086262703 81.09206557273865,1.2096595019102097 81.09206557273865,1.2096595019102097 82.13666081428528,1.5230902470648289 82.13666081428528,1.5230902470648289 83.16116333007812,1.8703904002904892 83.16116333007812,1.8703904002904892 83.74059796333313,2.084502950310707 83.74059796333313,2.084502950310707 84.31338667869568,2.309252507984638 84.31338667869568,2.309252507984638 84.87915992736816,2.544565685093403 84.87915992736816,2.544565685093403 85.43761968612671,2.790294587612152 85.43761968612671,2.790294587612152 85.98835468292236,3.0464021489024162 85.98835468292236,3.0464021489024162 86.53097152709961,3.3126667141914368 86.53097152709961,3.3126667141914368 87.06508874893188,3.589051589369774 87.06508874893188,3.589051589369774 87.59041428565979,3.8755200803279877 87.59041428565979,3.8755200803279877 89.88984227180481,5.3108155727386475 89.88984227180481,5.3108155727386475 91.99144840240479,6.933556497097015 91.99144840240479,6.933556497097015 93.87708902359009,8.729005604982376 93.87708902359009,8.729005604982376 95.52863836288452,10.682056844234467 95.52863836288452,10.682056844234467 96.92792296409607,12.777899205684662 96.92792296409607,12.777899205684662 98.05684685707092,15.001647174358368 98.05684685707092,15.001647174358368 98.89722466468811,17.33826845884323 98.89722466468811,17.33826845884323 99.43090081214905,19.772952795028687 99.43090081214905,19.772952795028687 99.4807243347168,20.119772851467133 99.4807243347168,20.119772851467133 99.52390193939209,20.468364655971527 99.52390193939209,20.468364655971527 99.56035614013672,20.81865668296814 99.56035614013672,20.81865668296814 99.59016442298889,21.17064744234085 99.59016442298889,21.17064744234085 99.61332082748413,21.52433842420578 99.61332082748413,21.52433842420578 99.62983131408691,21.87972664833069 99.62983131408691,21.87972664833069 99.63976740837097,22.23677784204483 99.63976740837097,22.23677784204483 99.64305758476257,22.59538024663925 99.64305758476257,22.59538024663925 99.64305758476257,42.205819487571716 99.64305758476257,42.205819487571716 98.8545298576355,41.81777834892273 98.8545298576355,41.81777834892273 98.0522632598877,41.479673981666565 98.0522632598877,41.479673981666565 97.23637104034424,41.19209945201874 97.23637104034424,41.19209945201874 96.40695452690125,40.955567359924316 96.40695452690125,40.955567359924316 95.56413292884827,40.770670771598816 95.56413292884827,40.770670771598816 94.70801949501038,40.637850761413574 94.70801949501038,40.637850761413574 93.83867979049683,40.557849407196045 93.83867979049683,40.557849407196045 92.95633435249329,40.531036257743835 92.95633435249329,40.531036257743835 92.4862265586853,40.538644790649414 92.4862265586853,40.538644790649414 92.0202910900116,40.56099057197571 92.0202910900116,40.56099057197571 91.5584921836853,40.597519278526306 91.5584921836853,40.597519278526306 91.10079407691956,40.64730703830719 91.10079407691956,40.64730703830719 90.64708352088928,40.70983827114105 90.64708352088928,40.70983827114105 90.19736051559448,40.784335136413574 90.19736051559448,40.784335136413574 89.75151777267456,40.870100259780884 89.75151777267456,40.870100259780884 89.30951952934265,40.96657335758209 89.30951952934265,40.96657335758209 89.30951952934265,30.490022897720337 89.30951952934265,30.490022897720337 89.27192091941833,30.111438035964966 89.27192091941833,30.111438035964966 89.1642153263092,29.75878417491913 89.1642153263092,29.75878417491913 88.99383544921875,29.439443349838257 88.99383544921875,29.439443349838257 88.76834511756897,29.161176085472107 88.76834511756897,29.161176085472107 88.49528431892395,28.93151342868805 88.49528431892395,28.93151342868805 88.18211555480957,28.758028149604797 88.18211555480957,28.758028149604797 87.83643841743469,28.648442029953003 87.83643841743469,28.648442029953003 87.46572136878967,28.61017882823944 87.46572136878967,28.61017882823944 57.01470375061035,28.61017882823944 57.01470375061035,28.61017882823944 56.64380192756653,28.648406267166138 56.64380192756653,28.648406267166138 56.29757046699524,28.758028149604797 56.29757046699524,28.758028149604797 55.9836208820343,28.93151342868805 55.9836208820343,28.93151342868805 55.70971369743347,29.161176085472107 55.70971369743347,29.161176085472107 55.48337697982788,29.439443349838257 55.48337697982788,29.439443349838257 55.31221628189087,29.75878417491913 55.31221628189087,29.75878417491913 55.203962326049805,30.111438035964966 55.203962326049805,30.111438035964966 55.166178941726685,30.490022897720337 55.166178941726685,30.490022897720337 55.166178941726685,41.17873013019562 55.166178941726685,41.17873013019562 54.07097935676575,41.51424765586853 54.07097935676575,41.51424765586853 52.99986004829407,41.90114140510559 52.99986004829407,41.90114140510559 51.95249319076538,42.33062267303467 51.95249319076538,42.33062267303467 50.928473472595215,42.79389679431915 50.928473472595215,42.79389679431915 49.92741942405701,43.28225255012512 49.92741942405701,43.28225255012512 48.948901891708374,43.78693401813507 48.948901891708374,43.78693401813507 47.99265265464783,44.299185276031494 47.99265265464783,44.299185276031494 47.05819487571716,44.810181856155396 47.05819487571716,44.810181856155396 46.77896797657013,44.96357440948486 46.77896797657013,44.96357440948486 46.49951756000519,45.116519927978516 46.49951756000519,45.116519927978516 46.22010290622711,45.26861906051636 46.22010290622711,45.26861906051636 45.94098627567291,45.419684052467346 45.94098627567291,45.419684052467346 45.662420988082886,45.569419860839844 45.662420988082886,45.569419860839844 45.38466930389404,45.717453956604004 45.38466930389404,45.717453956604004 45.10799050331116,45.8635687828064 45.10799050331116,45.8635687828064 44.832637906074524,46.00746929645538 44.832637906074524,46.00746929645538 44.832637906074524,30.490022897720337 44.832637906074524,30.490022897720337 44.79503929615021,30.111438035964966 44.79503929615021,30.111438035964966 44.687336683273315,29.75878417491913 44.687336683273315,29.75878417491913 44.51695382595062,29.439443349838257 44.51695382595062,29.439443349838257 44.29146647453308,29.161176085472107 44.29146647453308,29.161176085472107 44.01840567588806,28.93151342868805 44.01840567588806,28.93151342868805 43.70523393154144,28.758028149604797 43.70523393154144,28.758028149604797 43.359556794166565,28.648442029953003 43.359556794166565,28.648442029953003 42.988839745521545,28.61017882823944 42.988839745521545,28.61017882823944 12.537820637226105,28.61017882823944 12.537820637226105,28.61017882823944 12.16699331998825,28.648406267166138 12.16699331998825,28.648406267166138 11.820948868989944,28.758028149604797 11.820948868989944,28.758028149604797 11.50733307003975,28.93151342868805 11.50733307003975,28.93151342868805 11.233718693256378,29.161176085472107 11.233718693256378,29.161176085472107 11.00771278142929,29.439443349838257 11.00771278142929,29.439443349838257 10.836851596832275,29.75878417491913 10.836851596832275,29.75878417491913 10.728779435157776,30.111438035964966 10.728779435157776,30.111438035964966 10.691069066524506,30.490022897720337 10.691069066524506,30.490022897720337 10.691069066524506,46.41345739364624 10.691069066524506,46.41345739364624 10.173165798187256,46.658411622047424 10.173165798187256,46.658411622047424 9.668079018592834,46.88223898410797 9.668079018592834,46.88223898410797 9.178246557712555,47.08124399185181 9.178246557712555,47.08124399185181 8.70610624551773,47.25203216075897 8.70610624551773,47.25203216075897 8.254168927669525,47.390979528427124 8.254168927669525,47.390979528427124 7.824909687042236,47.49462008476257 7.824909687042236,47.49462008476257 7.420766353607178,47.559404373168945 7.420766353607178,47.559404373168945" stroke="white" stroke-width="0.1" /><polygon points="87.59041428565979,9.179982542991638 87.59041428565979,9.179982542991638 87.59041428565979,22.59538024663925 87.59041428565979,22.59538024663925 95.21735310554504,22.59538024663925 95.21735310554504,22.59538024663925 95.11186480522156,20.863939821720123 95.11186480522156,20.863939821720123 94.7985827922821,19.162674248218536 94.7985827922821,19.162674248218536 94.28245425224304,17.50107854604721 94.28245425224304,17.50107854604721 93.56834888458252,15.888716280460358 93.56834888458252,15.888716280460358 92.66107678413391,14.335006475448608 92.66107678413391,14.335006475448608 91.56569242477417,12.849478423595428 91.56569242477417,12.849478423595428 90.2868926525116,11.441589146852493 90.2868926525116,11.441589146852493 88.82966041564941,10.12079194188118 88.82966041564941,10.12079194188118 88.67877721786499,9.998758882284164 88.67877721786499,9.998758882284164 88.52664232254028,9.87805500626564 88.52664232254028,9.87805500626564 88.37336301803589,9.758717566728592 88.37336301803589,9.758717566728592 88.21889758110046,9.640636295080185 88.21889758110046,9.640636295080185 88.0633294582367,9.523773938417435 88.0633294582367,9.523773938417435 87.90672421455383,9.408056735992432 87.90672421455383,9.408056735992432 87.74908781051636,9.293483942747116 87.74908781051636,9.293483942747116" stroke="white" stroke-width="0.1" /><polygon points="74.45513010025024,4.595309868454933 74.45513010025024,4.595309868454933 74.45513010025024,22.59538024663925 74.45513010025024,22.59538024663925 83.16116333007812,22.59538024663925 83.16116333007812,22.59538024663925 83.16116333007812,6.6914476454257965 83.16116333007812,6.6914476454257965 82.14389681816101,6.280212849378586 82.14389681816101,6.280212849378586 81.10343813896179,5.910677462816238 81.10343813896179,5.910677462816238 80.04125952720642,5.583285540342331 80.04125952720642,5.583285540342331 78.9588451385498,5.2985530346632 78.9588451385498,5.2985530346632 77.85754799842834,5.056924000382423 77.85754799842834,5.056924000382423 76.73889994621277,4.858841374516487 76.73889994621277,4.858841374516487 75.60425400733948,4.704822227358818 75.60425400733948,4.704822227358818" stroke="white" stroke-width="0.1" /><polygon points="61.31807565689087,6.6914476454257965 61.31807565689087,6.6914476454257965 61.31807565689087,22.59538024663925 61.31807565689087,22.59538024663925 70.02587914466858,22.59538024663925 70.02587914466858,22.59538024663925 70.02587914466858,4.595309868454933 70.02587914466858,4.595309868454933 68.87649893760681,4.704785346984863 68.87649893760681,4.704785346984863 67.74159669876099,4.858804494142532 67.74159669876099,4.858804494142532 66.62261486053467,5.056924000382423 66.62261486053467,5.056924000382423 65.52106142044067,5.2985530346632 65.52106142044067,5.2985530346632 64.43834900856018,5.583285540342331 64.43834900856018,5.583285540342331 63.37602138519287,5.910714343190193 63.37602138519287,5.910714343190193 62.33537793159485,6.280212849378586 62.33537793159485,6.280212849378586" stroke="white" stroke-width="0.1" /><polygon points="43.11530590057373,9.179982542991638 43.11530590057373,9.179982542991638 43.11530590057373,22.59538024663925 43.11530590057373,22.59538024663925 56.888824701309204,22.59538024663925 56.888824701309204,22.59538024663925 56.888824701309204,9.179982542991638 56.888824701309204,9.179982542991638 56.730520725250244,9.2935211956501 56.730520725250244,9.2935211956501 56.572771072387695,9.408093243837357 56.572771072387695,9.408093243837357 56.415653228759766,9.523773938417435 56.415653228759766,9.523773938417435 56.25945329666138,9.640636295080185 56.25945329666138,9.640636295080185 56.104326248168945,9.758717566728592 56.104326248168945,9.758717566728592 55.950599908828735,9.878017753362656 55.950599908828735,9.878017753362656 55.79835772514343,9.998758882284164 55.79835772514343,9.998758882284164 55.64780831336975,10.12079194188118 55.64780831336975,10.12079194188118 55.22726774215698,10.476956516504288 55.22726774215698,10.476956516504288 54.8206090927124,10.840471088886261 54.8206090927124,10.840471088886261 54.4278085231781,11.211151629686356 54.4278085231781,11.211151629686356 54.04888987541199,11.588738113641739 54.04888987541199,11.588738113641739 53.68378758430481,11.972936242818832 53.68378758430481,11.972936242818832 53.332459926605225,12.363598495721817 53.332459926605225,12.363598495721817 52.99491286277771,12.760354578495026 52.99491286277771,12.760354578495026 52.67114043235779,13.16305696964264 52.67114043235779,13.16305696964264 52.42626070976257,13.43216598033905 52.42626070976257,13.43216598033905 52.14577913284302,13.665300607681274 52.14577913284302,13.665300607681274 51.83478593826294,13.86268138885498 51.83478593826294,13.86268138885498 51.498377323150635,14.02416080236435 51.498377323150635,14.02416080236435 51.141732931137085,14.149777591228485 51.141732931137085,14.149777591228485 50.76990723609924,14.239491522312164 50.76990723609924,14.239491522312164 50.38803815841675,14.293307065963745 50.38803815841675,14.293307065963745 50.00118017196655,14.311294257640839 50.00118017196655,14.311294257640839 49.613288044929504,14.29334282875061 49.613288044929504,14.29334282875061 49.23086166381836,14.239491522312164 49.23086166381836,14.239491522312164 48.85888993740082,14.149777591228485 48.85888993740082,14.149777591228485 48.5023558139801,14.02416080236435 48.5023558139801,14.02416080236435 48.166248202323914,13.862644135951996 48.166248202323914,13.862644135951996 47.85562455654144,13.66533637046814 47.85562455654144,13.66533637046814 47.57536053657532,13.432128727436066 47.57536053657532,13.432128727436066 47.33062982559204,13.16305696964264 47.33062982559204,13.16305696964264 47.00678288936615,12.76039183139801 47.00678288936615,12.76039183139801 46.66904807090759,12.363598495721817 46.66904807090759,12.363598495721817 46.317464113235474,11.972936242818832 46.317464113235474,11.972936242818832 45.95206677913666,11.588738113641739 45.95206677913666,11.588738113641739 45.57289183139801,11.21118813753128 45.57289183139801,11.21118813753128 45.17990052700043,10.840434581041336 45.17990052700043,10.840434581041336 44.77320909500122,10.476920008659363 44.77320909500122,10.476920008659363 44.35277879238129,10.12079194188118 44.35277879238129,10.12079194188118 44.20241713523865,9.998758882284164 44.20241713523865,9.998758882284164 44.05057430267334,9.87805500626564 44.05057430267334,9.87805500626564 43.89733374118805,9.758717566728592 43.89733374118805,9.758717566728592 43.74290704727173,9.640636295080185 43.74290704727173,9.640636295080185 43.587374687194824,9.523773938417435 43.587374687194824,9.523773938417435 43.43080520629883,9.408056735992432 43.43080520629883,9.408056735992432 43.27346384525299,9.293483942747116 43.27346384525299,9.293483942747116" stroke="white" stroke-width="0.1" /><polygon points="29.978251457214355,4.595309868454933 29.978251457214355,4.595309868454933 29.978251457214355,22.59538024663925 29.978251457214355,22.59538024663925 38.684284687042236,22.59538024663925 38.684284687042236,22.59538024663925 38.684284687042236,6.6914476454257965 38.684284687042236,6.6914476454257965 37.80087232589722,6.333030015230179 37.80087232589722,6.333030015230179 36.89902722835541,6.007262691855431 36.89902722835541,6.007262691855431 35.97997426986694,5.713998526334763 35.97997426986694,5.713998526334763 35.044926404953,5.453237146139145 35.044926404953,5.453237146139145 34.09503102302551,5.224867910146713 34.09503102302551,5.224867910146713 33.131542801856995,5.028853565454483 33.131542801856995,5.028853565454483 32.155609130859375,4.865120351314545 32.155609130859375,4.865120351314545 31.168445944786072,4.7335948795080185 31.168445944786072,4.7335948795080185 31.019634008407593,4.715533554553986 31.019634008407593,4.715533554553986 30.87104558944702,4.696807637810707 30.87104558944702,4.696807637810707 30.72252869606018,4.677749052643776 30.72252869606018,4.677749052643776 30.57401478290558,4.658912122249603 30.57401478290558,4.658912122249603 30.42542338371277,4.640813916921616 30.42542338371277,4.640813916921616 30.276650190353394,4.62382398545742 30.276650190353394,4.62382398545742 30.127617716789246,4.608532786369324 30.127617716789246,4.608532786369324" stroke="white" stroke-width="0.1" /><polygon points="16.84296876192093,6.6914476454257965 16.84296876192093,6.6914476454257965 16.84296876192093,22.59538024663925 16.84296876192093,22.59538024663925 25.548410415649414,22.59538024663925 25.548410415649414,22.59538024663925 25.548410415649414,4.595309868454933 25.548410415649414,4.595309868454933 24.39921349287033,4.704785346984863 24.39921349287033,4.704785346984863 23.26442152261734,4.858804494142532 23.26442152261734,4.858804494142532 22.145511209964752,5.056924000382423 22.145511209964752,5.056924000382423 21.044108271598816,5.2985530346632 21.044108271598816,5.2985530346632 19.961653649806976,5.583285540342331 19.961653649806976,5.583285540342331 18.89958679676056,5.910714343190193 18.89958679676056,5.910714343190193 17.859531939029694,6.280212849378586 17.859531939029694,6.280212849378586" stroke="white" stroke-width="0.1" /><polygon points="11.170928925275803,10.12079194188118 11.170928925275803,10.12079194188118 9.714174270629883,11.441589146852493 9.714174270629883,11.441589146852493 8.435963094234467,12.849478423595428 8.435963094234467,12.849478423595428 7.341098040342331,14.335043728351593 7.341098040342331,14.335043728351593 6.4344532787799835,15.888716280460358 6.4344532787799835,15.888716280460358 5.720868334174156,17.50107854604721 5.720868334174156,17.50107854604721 5.205144360661507,19.162674248218536 5.205144360661507,19.162674248218536 4.892193898558617,20.86390256881714 4.892193898558617,20.86390256881714 4.786781221628189,22.59538024663925 4.786781221628189,22.59538024663925 12.41135522723198,22.59538024663925 12.41135522723198,22.59538024663925 12.41135522723198,9.179982542991638 12.41135522723198,9.179982542991638 12.253199517726898,9.2935211956501 12.253199517726898,9.2935211956501 12.095634639263153,9.408093243837357 12.095634639263153,9.408093243837357 11.938808858394623,9.523773938417435 11.938808858394623,9.523773938417435 11.782942712306976,9.640636295080185 11.782942712306976,9.640636295080185 11.628036946058273,9.758717566728592 11.628036946058273,9.758717566728592 11.474387347698212,9.878017753362656 11.474387347698212,9.878017753362656 11.321919411420822,9.998758882284164 11.321919411420822,9.998758882284164" stroke="white" stroke-width="0.1" /><polygon points="92.95633435249329,58.50983262062073 92.95633435249329,58.50983262062073 93.83642673492432,58.5554838180542 93.83642673492432,58.5554838180542 94.71666216850281,58.69775414466858 94.71666216850281,58.69775414466858 95.59704661369324,58.94477963447571 95.59704661369324,58.94477963447571 96.4775025844574,59.304821491241455 96.4775025844574,59.304821491241455 97.35803008079529,59.785860776901245 97.35803008079529,59.785860776901245 98.23867678642273,60.39617657661438 98.23867678642273,60.39617657661438 99.1193175315857,61.1436665058136 99.1193175315857,61.1436665058136 99.99999403953552,62.03668713569641 99.99999403953552,62.03668713569641 99.99999403953552,68.14485192298889 99.99999403953552,68.14485192298889 99.1193175315857,67.25242733955383 99.1193175315857,67.25242733955383 98.23867678642273,66.50530695915222 98.23867678642273,66.50530695915222 97.35803008079529,65.8953607082367 97.35803008079529,65.8953607082367 96.4775025844574,65.41454195976257 96.4775025844574,65.41454195976257 95.5970823764801,65.0547206401825 95.5970823764801,65.0547206401825 94.71666216850281,64.80770111083984 94.71666216850281,64.80770111083984 93.83638501167297,64.66542482376099 93.83638501167297,64.66542482376099 92.95633435249329,64.61977362632751 92.95633435249329,64.61977362632751 91.75306558609009,64.69888687133789 91.75306558609009,64.69888687133789 90.54986834526062,64.9226427078247 90.54986834526062,64.9226427078247 89.34678435325623,65.27027487754822 89.34678435325623,65.27027487754822 88.14377188682556,65.7212495803833 88.14377188682556,65.7212495803833 86.94087266921997,66.25481247901917 86.94087266921997,66.25481247901917 85.73800921440125,66.85035228729248 85.73800921440125,66.85035228729248 84.53525900840759,67.4872636795044 84.53525900840759,67.4872636795044 83.3325445652008,68.14485192298889 83.3325445652008,68.14485192298889 82.12978839874268,68.80303621292114 82.12978839874268,68.80303621292114 80.92688918113708,69.44046020507812 80.92688918113708,69.44046020507812 79.7239899635315,70.03644704818726 79.7239899635315,70.03644704818726 78.52094173431396,70.57030200958252 78.52094173431396,70.57030200958252 77.31796503067017,71.02150321006775 77.31796503067017,71.02150321006775 76.1149525642395,71.3692843914032 76.1149525642395,71.3692843914032 74.91208910942078,71.59311175346375 74.91208910942078,71.59311175346375 73.70933890342712,71.67229652404785 73.70933890342712,71.67229652404785 72.8292167186737,71.62664532661438 72.8292167186737,71.62664532661438 71.94893956184387,71.48422598838806 71.94893956184387,71.48422598838806 71.06855511665344,71.2371289730072 71.06855511665344,71.2371289730072 70.18809914588928,70.87701559066772 70.18809914588928,70.87701559066772 69.30764317512512,70.39582133293152 69.30764317512512,70.39582133293152 68.42725872993469,69.78550553321838 68.42725872993469,69.78550553321838 67.54695177078247,69.03794407844543 67.54695177078247,69.03794407844543 66.66685938835144,68.14485192298889 66.66685938835144,68.14485192298889 65.78618288040161,67.25242733955383 65.78618288040161,67.25242733955383 64.9055004119873,66.50530695915222 64.9055004119873,66.50530695915222 64.02478814125061,65.8953607082367 64.02478814125061,65.8953607082367 63.14406991004944,65.41454195976257 63.14406991004944,65.41454195976257 62.2633159160614,65.0547206401825 62.2633159160614,65.0547206401825 61.3825261592865,64.80770111083984 61.3825261592865,64.80770111083984 60.5017364025116,64.66542482376099 60.5017364025116,64.66542482376099 59.6208393573761,64.61977362632751 59.6208393573761,64.61977362632751 58.41816067695618,64.69888687133789 58.41816067695618,64.69888687133789 57.21551775932312,64.9226427078247 57.21551775932312,64.9226427078247 56.01291060447693,65.27027487754822 56.01291060447693,65.27027487754822 54.81034517288208,65.7212495803833 54.81034517288208,65.7212495803833 53.60788702964783,66.25481247901917 53.60788702964783,66.25481247901917 52.40550637245178,66.85035228729248 52.40550637245178,66.85035228729248 51.20330452919006,67.4872636795044 51.20330452919006,67.4872636795044 50.00118017196655,68.14485192298889 50.00118017196655,68.14485192298889 48.797911405563354,68.80303621292114 48.797911405563354,68.80303621292114 47.594788670539856,69.44046020507812 47.594788670539856,69.44046020507812 46.39170467853546,70.03644704818726 46.39170467853546,70.03644704818726 45.1886922121048,70.57030200958252 45.1886922121048,70.57030200958252 43.98567974567413,71.02150321006775 43.98567974567413,71.02150321006775 42.78259575366974,71.3692843914032 42.78259575366974,71.3692843914032 41.57947301864624,71.59311175346375 41.57947301864624,71.59311175346375 40.37620425224304,71.67229652404785 40.37620425224304,71.67229652404785 39.496004581451416,71.62664532661438 39.496004581451416,71.62664532661438 38.61580491065979,71.48422598838806 38.61580491065979,71.48422598838806 37.7356082201004,71.2371289730072 37.7356082201004,71.2371289730072 36.85540854930878,70.87701559066772 36.85540854930878,70.87701559066772 35.97513437271118,70.39582133293152 35.97513437271118,70.39582133293152 35.094788670539856,69.78550553321838 35.094788670539856,69.78550553321838 34.214332699775696,69.03794407844543 34.214332699775696,69.03794407844543 33.33372473716736,68.14485192298889 33.33372473716736,68.14485192298889 32.453083992004395,67.25242733955383 32.453083992004395,67.25242733955383 31.572553515434265,66.50530695915222 31.572553515434265,66.50530695915222 30.692058801651,65.8953607082367 30.692058801651,65.8953607082367 29.811599850654602,65.41454195976257 29.811599850654602,65.41454195976257 28.931143879890442,65.0547206401825 28.931143879890442,65.0547206401825 28.050649166107178,64.80770111083984 28.050649166107178,64.80770111083984 27.17011868953705,64.66542482376099 27.17011868953705,64.66542482376099 26.289474964141846,64.61977362632751 26.289474964141846,64.61977362632751 25.086796283721924,64.69888687133789 25.086796283721924,64.69888687133789 23.884117603302002,64.9226427078247 23.884117603302002,64.9226427078247 22.68136441707611,65.27027487754822 22.68136441707611,65.27027487754822 21.47853821516037,65.7212495803833 21.47853821516037,65.7212495803833 20.27563750743866,66.25481247901917 20.27563750743866,66.25481247901917 19.0726637840271,66.85035228729248 19.0726637840271,66.85035228729248 17.86954253911972,67.4872636795044 17.86954253911972,67.4872636795044 16.666272282600403,68.14485192298889 16.666272282600403,68.14485192298889 15.463408827781677,68.80303621292114 15.463408827781677,68.80303621292114 14.260545372962952,69.44046020507812 14.260545372962952,69.44046020507812 13.05779218673706,70.03644704818726 13.05779218673706,70.03644704818726 11.85503974556923,70.57030200958252 11.85503974556923,70.57030200958252 10.652287304401398,71.02150321006775 10.652287304401398,71.02150321006775 9.449608623981476,71.3692843914032 9.449608623981476,71.3692843914032 8.246929943561554,71.59311175346375 8.246929943561554,71.59311175346375 7.044250518083572,71.67229652404785 7.044250518083572,71.67229652404785 6.163571774959564,71.62664532661438 6.163571774959564,71.62664532661438 5.282892659306526,71.48422598838806 5.282892659306526,71.48422598838806 4.402287304401398,71.2371289730072 4.402287304401398,71.2371289730072 3.521682322025299,70.87701559066772 3.521682322025299,70.87701559066772 2.641150914132595,70.39582133293152 2.641150914132595,70.39582133293152 1.7606934532523155,69.78550553321838 1.7606934532523155,69.78550553321838 0.8803097531199455,69.03794407844543 0.8803097531199455,69.03794407844543 0.0,68.14485192298889 0.0,68.14485192298889 0.0,62.03668713569641 0.0,62.03668713569641 0.8803097531199455,62.929922342300415 0.8803097531199455,62.929922342300415 1.7606934532523155,63.67785334587097 1.7606934532523155,63.67785334587097 2.641150914132595,64.28853869438171 2.641150914132595,64.28853869438171 3.521682322025299,64.76995348930359 3.521682322025299,64.76995348930359 4.402250424027443,65.13036489486694 4.402250424027443,65.13036489486694 5.282892659306526,65.37768244743347 5.282892659306526,65.37768244743347 6.163571774959564,65.52025079727173 6.163571774959564,65.52025079727173 7.044250518083572,65.5659019947052 7.044250518083572,65.5659019947052 8.246929943561554,65.48656225204468 8.246929943561554,65.48656225204468 9.449608623981476,65.262371301651 9.449608623981476,65.262371301651 10.652323812246323,64.914071559906 10.652323812246323,64.914071559906 11.85503974556923,64.46235775947571 11.85503974556923,64.46235775947571 13.05779218673706,63.92805576324463 13.05779218673706,63.92805576324463 14.260582625865936,63.3317768573761 14.260582625865936,63.3317768573761 15.463408827781677,62.69442439079285 15.463408827781677,62.69442439079285 16.666272282600403,62.03668713569641 16.666272282600403,62.03668713569641 17.86954253911972,61.379021406173706 17.86954253911972,61.379021406173706 19.0726637840271,60.74188947677612 19.0726637840271,60.74188947677612 20.27563750743866,60.14605164527893 20.27563750743866,60.14605164527893 21.47853821516037,59.61219668388367 21.47853821516037,59.61219668388367 22.68136441707611,59.16092395782471 22.68136441707611,59.16092395782471 23.884117603302002,58.81299376487732 23.884117603302002,58.81299376487732 25.086796283721924,58.58909487724304 25.086796283721924,58.58909487724304 26.289474964141846,58.50983262062073 26.289474964141846,58.50983262062073 27.17011868953705,58.5554838180542 27.17011868953705,58.5554838180542 28.050649166107178,58.69775414466858 28.050649166107178,58.69775414466858 28.931143879890442,58.94477963447571 28.931143879890442,58.94477963447571 29.811599850654602,59.304821491241455 29.811599850654602,59.304821491241455 30.692058801651,59.785860776901245 30.692058801651,59.785860776901245 31.572553515434265,60.39617657661438 31.572553515434265,60.39617657661438 32.45311975479126,61.1436665058136 32.45311975479126,61.1436665058136 33.33372473716736,62.03668713569641 33.33372473716736,62.03668713569641 34.214332699775696,62.929922342300415 34.214332699775696,62.929922342300415 35.094788670539856,63.67785334587097 35.094788670539856,63.67785334587097 35.97513437271118,64.28853869438171 35.97513437271118,64.28853869438171 36.85540854930878,64.76995348930359 36.85540854930878,64.76995348930359 37.73564398288727,65.13036489486694 37.73564398288727,65.13036489486694 38.61580491065979,65.37768244743347 38.61580491065979,65.37768244743347 39.496004581451416,65.52025079727173 39.496004581451416,65.52025079727173 40.37620425224304,65.5659019947052 40.37620425224304,65.5659019947052 41.57947301864624,65.48656225204468 41.57947301864624,65.48656225204468 42.78259575366974,65.262371301651 42.78259575366974,65.262371301651 43.98567974567413,64.914071559906 43.98567974567413,64.914071559906 45.1886922121048,64.46235775947571 45.1886922121048,64.46235775947571 46.39170467853546,63.92805576324463 46.39170467853546,63.92805576324463 47.594788670539856,63.3317768573761 47.594788670539856,63.3317768573761 48.797911405563354,62.69442439079285 48.797911405563354,62.69442439079285 50.00118017196655,62.03668713569641 50.00118017196655,62.03668713569641 51.2032687664032,61.379021406173706 51.2032687664032,61.379021406173706 52.40550637245178,60.74188947677612 52.40550637245178,60.74188947677612 53.60788702964783,60.14605164527893 53.60788702964783,60.14605164527893 54.81034517288208,59.61219668388367 54.81034517288208,59.61219668388367 56.01287484169006,59.16092395782471 56.01287484169006,59.16092395782471 57.215481996536255,58.81299376487732 57.215481996536255,58.81299376487732 58.41816067695618,58.58909487724304 58.41816067695618,58.58909487724304 59.6208393573761,58.50983262062073 59.6208393573761,58.50983262062073 60.5017364025116,58.5554838180542 60.5017364025116,58.5554838180542 61.3825261592865,58.69775414466858 61.3825261592865,58.69775414466858 62.2633159160614,58.94477963447571 62.2633159160614,58.94477963447571 63.14406991004944,59.304821491241455 63.14406991004944,59.304821491241455 64.02478814125061,59.785860776901245 64.02478814125061,59.785860776901245 64.9055004119873,60.39617657661438 64.9055004119873,60.39617657661438 65.78618288040161,61.1436665058136 65.78618288040161,61.1436665058136 66.66685938835144,62.03668713569641 66.66685938835144,62.03668713569641 67.54695177078247,62.929922342300415 67.54695177078247,62.929922342300415 68.42725872993469,63.67785334587097 68.42725872993469,63.67785334587097 69.30764317512512,64.28853869438171 69.30764317512512,64.28853869438171 70.18809914588928,64.76995348930359 70.18809914588928,64.76995348930359 71.06855511665344,65.13036489486694 71.06855511665344,65.13036489486694 71.94897532463074,65.37768244743347 71.94897532463074,65.37768244743347 72.8292167186737,65.52025079727173 72.8292167186737,65.52025079727173 73.70933890342712,65.5659019947052 73.70933890342712,65.5659019947052 74.91208910942078,65.48656225204468 74.91208910942078,65.48656225204468 76.11499428749084,65.262371301651 76.11499428749084,65.262371301651 77.3179292678833,64.914071559906 77.3179292678833,64.914071559906 78.52094173431396,64.46235775947571 78.52094173431396,64.46235775947571 79.72395420074463,63.92805576324463 79.72395420074463,63.92805576324463 80.92692494392395,63.3317768573761 80.92692494392395,63.3317768573761 82.12975263595581,62.69442439079285 82.12975263595581,62.69442439079285 83.3325445652008,62.03668713569641 83.3325445652008,62.03668713569641 84.53525900840759,61.379021406173706 84.53525900840759,61.379021406173706 85.73800921440125,60.74188947677612 85.73800921440125,60.74188947677612 86.94087266921997,60.14605164527893 86.94087266921997,60.14605164527893 88.14377188682556,59.61219668388367 88.14377188682556,59.61219668388367 89.34678435325623,59.16092395782471 89.34678435325623,59.16092395782471 90.54986834526062,58.81299376487732 90.54986834526062,58.81299376487732 91.75306558609009,58.58909487724304 91.75306558609009,58.58909487724304" stroke="white" stroke-width="0.1" /><polygon points="99.34048652648926,49.49945509433746 99.34048652648926,49.49945509433746 99.4225561618805,49.579086899757385 99.4225561618805,49.579086899757385 99.50476884841919,49.659013748168945 99.50476884841919,49.659013748168945 99.5871365070343,49.73967969417572 99.5871365070343,49.73967969417572 99.66957569122314,49.82145428657532 99.66957569122314,49.82145428657532 99.75212812423706,49.904558062553406 99.75212812423706,49.904558062553406 99.83471035957336,49.98950958251953 99.83471035957336,49.98950958251953 99.91733431816101,50.076526403427124 99.91733431816101,50.076526403427124 99.99999403953552,50.16605854034424 99.99999403953552,50.16605854034424 99.99999403953552,56.274229288101196 99.99999403953552,56.274229288101196 99.1193175315857,55.38106560707092 99.1193175315857,55.38106560707092 98.23867678642273,54.633575677871704 98.23867678642273,54.633575677871704 97.35803008079529,54.02355194091797 97.35803008079529,54.02355194091797 96.4775025844574,53.54273319244385 96.4775025844574,53.54273319244385 95.5970823764801,53.1829833984375 95.5970823764801,53.1829833984375 94.71666216850281,52.93618440628052 94.71666216850281,52.93618440628052 93.83638501167297,52.794063091278076 93.83638501167297,52.794063091278076 92.95633435249329,52.748554944992065 92.95633435249329,52.748554944992065 91.75306558609009,52.82774567604065 91.75306558609009,52.82774567604065 90.54986834526062,53.051573038101196 90.54986834526062,53.051573038101196 89.34678435325623,53.39927673339844 89.34678435325623,53.39927673339844 88.14377188682556,53.85032892227173 88.14377188682556,53.85032892227173 86.94087266921997,54.38404083251953 86.94087266921997,54.38404083251953 85.73800921440125,54.97958064079285 85.73800921440125,54.97958064079285 84.53525900840759,55.61663508415222 84.53525900840759,55.61663508415222 83.3325445652008,56.274229288101196 83.3325445652008,56.274229288101196 82.12978839874268,56.93233609199524 82.12978839874268,56.93233609199524 80.92688918113708,57.56976008415222 80.92688918113708,57.56976008415222 79.7239899635315,58.16588997840881 79.7239899635315,58.16588997840881 78.52094173431396,58.70004892349243 78.52094173431396,58.70004892349243 77.31796503067017,59.15146470069885 77.31796503067017,59.15146470069885 76.1149525642395,59.49954390525818 76.1149525642395,59.49954390525818 74.91208910942078,59.723591804504395 74.91208910942078,59.723591804504395 73.70933890342712,59.80285406112671 73.70933890342712,59.80285406112671 72.8292167186737,59.75712537765503 72.8292167186737,59.75712537765503 71.94893956184387,59.61470603942871 71.94893956184387,59.61470603942871 71.06855511665344,59.36731696128845 71.06855511665344,59.36731696128845 70.18809914588928,59.00697708129883 70.18809914588928,59.00697708129883 69.30764317512512,58.52563977241516 69.30764317512512,58.52563977241516 68.42725872993469,57.91503190994263 68.42725872993469,57.91503190994263 67.54695177078247,57.16731548309326 67.54695177078247,57.16731548309326 66.66685938835144,56.274229288101196 66.66685938835144,56.274229288101196 65.78618288040161,55.38106560707092 65.78618288040161,55.38106560707092 64.9055004119873,54.633575677871704 64.9055004119873,54.633575677871704 64.02478814125061,54.02355194091797 64.02478814125061,54.02355194091797 63.14406991004944,53.54273319244385 63.14406991004944,53.54273319244385 62.2633159160614,53.1829833984375 62.2633159160614,53.1829833984375 61.3825261592865,52.93618440628052 61.3825261592865,52.93618440628052 60.5017364025116,52.794063091278076 60.5017364025116,52.794063091278076 59.6208393573761,52.748554944992065 59.6208393573761,52.748554944992065 58.41816067695618,52.82774567604065 58.41816067695618,52.82774567604065 57.21551775932312,53.051573038101196 57.21551775932312,53.051573038101196 56.01291060447693,53.39927673339844 56.01291060447693,53.39927673339844 54.81034517288208,53.85032892227173 54.81034517288208,53.85032892227173 53.60788702964783,54.38404083251953 53.60788702964783,54.38404083251953 52.40550637245178,54.97958064079285 52.40550637245178,54.97958064079285 51.20330452919006,55.61663508415222 51.20330452919006,55.61663508415222 50.00118017196655,56.274229288101196 50.00118017196655,56.274229288101196 48.797911405563354,56.93233609199524 48.797911405563354,56.93233609199524 47.594788670539856,57.56976008415222 47.594788670539856,57.56976008415222 46.39170467853546,58.16588997840881 46.39170467853546,58.16588997840881 45.1886922121048,58.70004892349243 45.1886922121048,58.70004892349243 43.98567974567413,59.15146470069885 43.98567974567413,59.15146470069885 42.78259575366974,59.49954390525818 42.78259575366974,59.49954390525818 41.57947301864624,59.723591804504395 41.57947301864624,59.723591804504395 40.37620425224304,59.80285406112671 40.37620425224304,59.80285406112671 39.496004581451416,59.75712537765503 39.496004581451416,59.75712537765503 38.61580491065979,59.61470603942871 38.61580491065979,59.61470603942871 37.7356082201004,59.36731696128845 37.7356082201004,59.36731696128845 36.85540854930878,59.00697708129883 36.85540854930878,59.00697708129883 35.97513437271118,58.52563977241516 35.97513437271118,58.52563977241516 35.094788670539856,57.91503190994263 35.094788670539856,57.91503190994263 34.214332699775696,57.16731548309326 34.214332699775696,57.16731548309326 33.33372473716736,56.274229288101196 33.33372473716736,56.274229288101196 32.453083992004395,55.38106560707092 32.453083992004395,55.38106560707092 31.572553515434265,54.633575677871704 31.572553515434265,54.633575677871704 30.692058801651,54.02355194091797 30.692058801651,54.02355194091797 29.811599850654602,53.54273319244385 29.811599850654602,53.54273319244385 28.931143879890442,53.1829833984375 28.931143879890442,53.1829833984375 28.050649166107178,52.93618440628052 28.050649166107178,52.93618440628052 27.17011868953705,52.794063091278076 27.17011868953705,52.794063091278076 26.289474964141846,52.748554944992065 26.289474964141846,52.748554944992065 25.086796283721924,52.82774567604065 25.086796283721924,52.82774567604065 23.884117603302002,53.051573038101196 23.884117603302002,53.051573038101196 22.68136441707611,53.39927673339844 22.68136441707611,53.39927673339844 21.47853821516037,53.85032892227173 21.47853821516037,53.85032892227173 20.27563750743866,54.38404083251953 20.27563750743866,54.38404083251953 19.0726637840271,54.97958064079285 19.0726637840271,54.97958064079285 17.86954253911972,55.61663508415222 17.86954253911972,55.61663508415222 16.666272282600403,56.274229288101196 16.666272282600403,56.274229288101196 15.463408827781677,56.93233609199524 15.463408827781677,56.93233609199524 14.260545372962952,57.56976008415222 14.260545372962952,57.56976008415222 13.05779218673706,58.16588997840881 13.05779218673706,58.16588997840881 11.85503974556923,58.70004892349243 11.85503974556923,58.70004892349243 10.652287304401398,59.15146470069885 10.652287304401398,59.15146470069885 9.449608623981476,59.49954390525818 9.449608623981476,59.49954390525818 8.246929943561554,59.723591804504395 8.246929943561554,59.723591804504395 7.044250518083572,59.80285406112671 7.044250518083572,59.80285406112671 6.163571774959564,59.75712537765503 6.163571774959564,59.75712537765503 5.282892659306526,59.61470603942871 5.282892659306526,59.61470603942871 4.402287304401398,59.36731696128845 4.402287304401398,59.36731696128845 3.521682322025299,59.00697708129883 3.521682322025299,59.00697708129883 2.641150914132595,58.52563977241516 2.641150914132595,58.52563977241516 1.7606934532523155,57.91503190994263 1.7606934532523155,57.91503190994263 0.8803097531199455,57.16731548309326 0.8803097531199455,57.16731548309326 0.0,56.274229288101196 0.0,56.274229288101196 0.0,50.16605854034424 0.0,50.16605854034424 0.880826823413372,51.05900168418884 0.880826823413372,51.05900168418884 1.7614319920539856,51.80634260177612 1.7614319920539856,51.80634260177612 2.641926519572735,52.41628885269165 2.641926519572735,52.41628885269165 3.5223469138145447,52.89703607559204 3.5223469138145447,52.89703607559204 4.402730613946915,53.25677990913391 4.402730613946915,53.25677990913391 5.283151194453239,53.50350737571716 5.283151194453239,53.50350737571716 6.163645535707474,53.64563465118408 6.163645535707474,53.64563465118408 7.044250518083572,53.691136837005615 7.044250518083572,53.691136837005615 8.247003704309464,53.61195206642151 8.247003704309464,53.61195206642151 9.449867159128189,53.3882737159729 9.449867159128189,53.3882737159729 10.65276712179184,53.04063558578491 10.65276712179184,53.04063558578491 11.855704337358475,52.58966088294983 11.855704337358475,52.58966088294983 13.05856853723526,52.056097984313965 13.05856853723526,52.056097984313965 14.261320233345032,51.46055817604065 14.261320233345032,51.46055817604065 15.46388864517212,50.823646783828735 15.46388864517212,50.823646783828735 16.666272282600403,50.16605854034424 16.666272282600403,50.16605854034424 17.86954253911972,49.50787425041199 17.86954253911972,49.50787425041199 19.0726637840271,48.87067377567291 19.0726637840271,48.87067377567291 20.27563750743866,48.27505648136139 20.27563750743866,48.27505648136139 21.47853821516037,47.741493582725525 21.47853821516037,47.741493582725525 22.68136441707611,47.29066491127014 22.68136441707611,47.29066491127014 23.884117603302002,46.9431072473526 23.884117603302002,46.9431072473526 25.086796283721924,46.71950042247772 25.086796283721924,46.71950042247772 26.289474964141846,46.640387177467346 26.289474964141846,46.640387177467346 27.17011868953705,46.68603837490082 27.17011868953705,46.68603837490082 28.050649166107178,46.82831168174744 28.050649166107178,46.82831168174744 28.931143879890442,47.07533419132233 28.931143879890442,47.07533419132233 29.811599850654602,47.435230016708374 29.811599850654602,47.435230016708374 30.692058801651,47.916123270988464 30.692058801651,47.916123270988464 31.572553515434265,48.52614104747772 31.572553515434265,48.52614104747772 32.45311975479126,49.27341341972351 32.45311975479126,49.27341341972351 33.33372473716736,50.16605854034424 33.33372473716736,50.16605854034424 34.214332699775696,51.05900168418884 34.214332699775696,51.05900168418884 35.094788670539856,51.80634260177612 35.094788670539856,51.80634260177612 35.97520887851715,52.41628885269165 35.97520887851715,52.41628885269165 36.855629086494446,52.89703607559204 36.855629086494446,52.89703607559204 37.73604929447174,53.25677990913391 37.73604929447174,53.25677990913391 38.616544008255005,53.50350737571716 38.616544008255005,53.50350737571716 39.49718773365021,53.64563465118408 39.49718773365021,53.64563465118408 40.37797749042511,53.691136837005615 40.37797749042511,53.691136837005615 41.525623202323914,53.61889600753784 41.525623202323914,53.61889600753784 42.67311990261078,53.41405272483826 42.67311990261078,53.41405272483826 43.82061958312988,53.09470891952515 43.82061958312988,53.09470891952515 44.96804177761078,52.6786744594574 44.96804177761078,52.6786744594574 46.11550271511078,52.18403935432434 46.11550271511078,52.18403935432434 47.26303815841675,51.62883400917053 47.26303815841675,51.62883400917053 48.41068387031555,51.030927896499634 48.41068387031555,51.030927896499634 49.558550119400024,50.4083514213562 49.558550119400024,50.4083514213562 49.61339831352234,50.37798881530762 49.61339831352234,50.37798881530762 49.66843128204346,50.34763216972351 49.66843128204346,50.34763216972351 49.72364902496338,50.31734108924866 49.72364902496338,50.31734108924866 49.778980016708374,50.28698444366455 49.778980016708374,50.28698444366455 49.834418296813965,50.256770849227905 49.834418296813965,50.256770849227905 49.88996982574463,50.22640824317932 49.88996982574463,50.22640824317932 49.94555711746216,50.196194648742676 49.94555711746216,50.196194648742676 50.00118017196655,50.16605854034424 50.00118017196655,50.16605854034424 50.64635872840881,49.81214702129364 50.64635872840881,49.81214702129364 51.29176378250122,49.46200251579285 51.29176378250122,49.46200251579285 51.93735361099243,49.11865293979645 51.93735361099243,49.11865293979645 52.58301496505737,48.78505766391754 52.58301496505737,48.78505766391754 53.228747844696045,48.46423864364624 53.228747844696045,48.46423864364624 53.874558210372925,48.15915524959564 53.874558210372925,48.15915524959564 54.520368576049805,47.872984409332275 54.520368576049805,47.872984409332275 55.166178941726685,47.608381509780884 55.166178941726685,47.608381509780884 55.723637342453,47.39999175071716 55.723637342453,47.39999175071716 56.28094673156738,47.2119927406311 56.28094673156738,47.2119927406311 56.83807730674744,47.04681932926178 56.83807730674744,47.04681932926178 57.39505887031555,46.9065397977829 57.39505887031555,46.9065397977829 57.951998710632324,46.79344594478607 57.951998710632324,46.79344594478607 58.508872985839844,46.709972620010376 58.508872985839844,46.709972620010376 59.06570553779602,46.658116579055786 59.06570553779602,46.658116579055786 59.62260961532593,46.640387177467346 59.62260961532593,46.640387177467346 60.50292253494263,46.68603837490082 60.50292253494263,46.68603837490082 61.383265256881714,46.82831168174744 61.383265256881714,46.82831168174744 62.26376295089722,47.07533419132233 62.26376295089722,47.07533419132233 63.14429044723511,47.435230016708374 63.14429044723511,47.435230016708374 64.0248954296112,47.916123270988464 64.0248954296112,47.916123270988464 64.90554213523865,48.52614104747772 64.90554213523865,48.52614104747772 65.78618288040161,49.27341341972351 65.78618288040161,49.27341341972351 66.66685938835144,50.16605854034424 66.66685938835144,50.16605854034424 67.54695177078247,51.05900168418884 67.54695177078247,51.05900168418884 68.42729449272156,51.80634260177612 68.42729449272156,51.80634260177612 69.30771470069885,52.41628885269165 69.30771470069885,52.41628885269165 70.18831968307495,52.89703607559204 70.18831968307495,52.89703607559204 71.06896638870239,53.25677990913391 71.06896638870239,53.25677990913391 71.94971442222595,53.50350737571716 71.94971442222595,53.50350737571716 72.83039689064026,53.64563465118408 72.83039689064026,53.64563465118408 73.71110916137695,53.691136837005615 73.71110916137695,53.691136837005615 74.9132752418518,53.61195206642151 74.9132752418518,53.61195206642151 76.11573338508606,53.3882737159729 76.11573338508606,53.3882737159729 77.31837034225464,53.04063558578491 77.31837034225464,53.04063558578491 78.52116227149963,52.58966088294983 78.52116227149963,52.58966088294983 79.72406148910522,52.056097984313965 79.72406148910522,52.056097984313965 80.92696070671082,51.46055817604065 80.92696070671082,51.46055817604065 82.12975263595581,50.823646783828735 82.12975263595581,50.823646783828735 83.3325445652008,50.16605854034424 83.3325445652008,50.16605854034424 84.07944440841675,49.75652098655701 84.07944440841675,49.75652098655701 84.82656478881836,49.35201108455658 84.82656478881836,49.35201108455658 85.57376265525818,48.957470059394836 85.57376265525818,48.957470059394836 86.32103204727173,48.57770502567291 86.32103204727173,48.57770502567291 87.06830143928528,48.21751415729523 87.06830143928528,48.21751415729523 87.81549334526062,47.881996631622314 87.81549334526062,47.881996631622314 88.56258392333984,47.57587909698486 88.56258392333984,47.57587909698486 89.30951952934265,47.3040372133255 89.30951952934265,47.3040372133255 89.76536989212036,47.15791940689087 89.76536989212036,47.15791940689087 90.22122025489807,47.02761471271515 90.22122025489807,47.02761471271515 90.67707657814026,46.914076805114746 90.67707657814026,46.914076805114746 91.13292694091797,46.81863486766815 91.13292694091797,46.81863486766815 91.58874154090881,46.7423290014267 91.58874154090881,46.7423290014267 92.04463362693787,46.686482429504395 92.04463362693787,46.686482429504395 92.50051975250244,46.65205776691437 92.50051975250244,46.65205776691437 92.95633435249329,46.640387177467346 92.95633435249329,46.640387177467346 93.75376105308533,46.67835533618927 93.75376105308533,46.67835533618927 94.55137848854065,46.796104311943054 94.55137848854065,46.796104311943054 95.34913897514343,46.99932038784027 95.34913897514343,46.99932038784027 96.14707827568054,47.29384183883667 96.14707827568054,47.29384183883667 96.94517254829407,47.685351967811584 96.94517254829407,47.685351967811584 97.7434515953064,48.179617524147034 97.7434515953064,48.179617524147034 98.54190945625305,48.78247082233429 98.54190945625305,48.78247082233429" stroke="white" stroke-width="0.1" /></svg>