<?xml version="1.0" encoding="utf-8" ?>
<svg baseProfile="full" height="67.83673763275146" version="1.1" width="99.9790906906128" xmlns="http://www.w3.org/2000/svg" xmlns:ev="http://www.w3.org/2001/xml-events" xmlns:xlink="http://www.w3.org/1999/xlink"><defs><clipPath /></defs><polygon points="27.90548801422119,24.040962755680084 27.90548801422119,24.040962755680084 27.766305208206177,23.865285515785217 27.766305208206177,23.865285515785217 27.55216956138611,23.60794097185135 27.55216956138611,23.60794097185135 27.295014262199402,23.29659014940262 27.295014262199402,23.29659014940262 27.026459574699402,22.958745062351227 27.026459574699402,22.958745062351227 26.77866220474243,22.6219579577446 26.77866220474243,22.6219579577446 26.583397388458252,22.31377810239792 26.583397388458252,22.31377810239792 26.47251784801483,22.06190377473831 26.47251784801483,22.06190377473831 26.478028297424316,21.893736720085144 26.478028297424316,21.893736720085144 27.88737118244171,19.658955931663513 27.88737118244171,19.658955931663513 33.26389193534851,11.140698939561844 33.26389193534851,11.140698939561844 34.536996483802795,9.114578366279602 34.536996483802795,9.114578366279602 35.83213984966278,7.136915624141693 35.83213984966278,7.136915624141693 37.20419704914093,5.276019126176834 37.20419704914093,5.276019126176834 38.70773911476135,3.600196912884712 38.70773911476135,3.600196912884712 40.397560596466064,2.1778330206871033 40.397560596466064,2.1778330206871033 42.32831597328186,1.0772361420094967 42.32831597328186,1.0772361420094967 44.55471932888031,0.36675240844488144 44.55471932888031,0.36675240844488144 47.13149666786194,0.11472805636003613 47.13149666786194,0.11472805636003613 48.22835624217987,0.09838686091825366 48.22835624217987,0.09838686091825366 49.35140907764435,0.061704072868451476 49.35140907764435,0.061704072868451476 50.490838289260864,0.023058830993250012 50.490838289260864,0.023058830993250012 51.636987924575806,0.000830268891149899 51.636987924575806,0.000830268891149899 52.78003811836243,0.013435259461402893 52.78003811836243,0.013435259461402893 53.91033887863159,0.0793284154497087 53.91033887863159,0.0793284154497087 55.018067359924316,0.21685112733393908 55.018067359924316,0.21685112733393908 56.09356760978699,0.4444202873855829 56.09356760978699,0.4444202873855829 57.481175661087036,0.897558405995369 57.481175661087036,0.897558405995369 58.744919300079346,1.4841056428849697 58.744919300079346,1.4841056428849697 59.89748239517212,2.194060944020748 59.89748239517212,2.194060944020748 60.951393842697144,3.0175745487213135 60.951393842697144,3.0175745487213135 61.919188499450684,3.9446450769901276 61.919188499450684,3.9446450769901276 62.813687324523926,4.965309798717499 62.813687324523926,4.965309798717499 63.647204637527466,6.06968067586422 63.647204637527466,6.06968067586422 64.43248987197876,7.247794419527054 64.43248987197876,7.247794419527054 69.0711259841919,14.597032964229584 69.0711259841919,14.597032964229584 68.99994611740112,14.895665645599365 68.99994611740112,14.895665645599365 68.65243911743164,15.437830984592438 68.65243911743164,15.437830984592438 68.11133027076721,16.142691671848297 68.11133027076721,16.142691671848297 67.45949387550354,16.929559409618378 67.45949387550354,16.929559409618378 66.7798101902008,17.71748512983322 66.7798101902008,17.71748512983322 66.15521907806396,18.425704538822174 66.15521907806396,18.425704538822174 65.66838026046753,18.973417580127716 65.66838026046753,18.973417580127716 65.40223956108093,19.27974820137024 65.40223956108093,19.27974820137024 64.56578373908997,20.317433774471283 64.56578373908997,20.317433774471283 63.72932195663452,21.35489284992218 63.72932195663452,21.35489284992218 62.892866134643555,22.39227592945099 62.892866134643555,22.39227592945099 62.05641031265259,23.42958301305771 62.05641031265259,23.42958301305771 61.219948530197144,24.466928839683533 61.219948530197144,24.466928839683533 60.38349270820618,25.504273176193237 60.38349270820618,25.504273176193237 59.54703688621521,26.541772484779358 59.54703688621521,26.541772484779358 58.710575103759766,27.579417824745178 58.710575103759766,27.579417824745178 44.597816467285156,14.34946209192276 44.597816467285156,14.34946209192276 43.51031482219696,13.663773238658905 43.51031482219696,13.663773238658905 42.37262010574341,13.509154319763184 42.37262010574341,13.509154319763184 41.21235907077789,13.776123523712158 41.21235907077789,13.776123523712158 40.05669951438904,14.355047047138214 40.05669951438904,14.355047047138214 38.9331191778183,15.136480331420898 38.9331191778183,15.136480331420898 37.868866324424744,16.01090431213379 37.868866324424744,16.01090431213379 36.89148724079132,16.868723928928375 36.89148724079132,16.868723928928375 36.02823317050934,17.600491642951965 36.02823317050934,17.600491642951965 27.90548801422119,24.040962755680084 27.90548801422119,24.040962755680084" stroke="white" stroke-width="0.1" /><polygon points="61.458009481430054,34.11650359630585 61.458009481430054,34.11650359630585 61.458009481430054,34.11650359630585 61.458009481430054,34.11650359630585 72.025066614151,21.013350784778595 72.025066614151,21.013350784778595 73.19740653038025,22.49205857515335 73.19740653038025,22.49205857515335 74.34031367301941,23.963257670402527 74.34031367301941,23.963257670402527 75.45619606971741,25.434228777885437 75.45619606971741,25.434228777885437 76.54761672019958,26.91241204738617 76.54761672019958,26.91241204738617 77.61700749397278,28.40515971183777 77.61700749397278,28.40515971183777 78.66684198379517,29.919907450675964 78.66684198379517,29.919907450675964 79.69962358474731,31.463944911956787 79.69962358474731,31.463944911956787 80.71783185005188,33.04470181465149 80.71783185005188,33.04470181465149 99.16006922721863,62.26171255111694 99.16006922721863,62.26171255111694 99.68426823616028,63.28686475753784 99.68426823616028,63.28686475753784 99.95659589767456,64.27896022796631 99.95659589767456,64.27896022796631 99.9790906906128,65.20622372627258 99.9790906906128,65.20622372627258 99.75378513336182,66.03649258613586 99.75378513336182,66.03649258613586 99.28256869316101,66.73792004585266 99.28256869316101,66.73792004585266 98.5675573348999,67.27849841117859 98.5675573348999,67.27849841117859 97.6106345653534,67.62630343437195 97.6106345653534,67.62630343437195 96.4138388633728,67.74933338165283 96.4138388633728,67.74933338165283 94.54437494277954,67.74933338165283 94.54437494277954,67.74933338165283 82.82883167266846,67.74933338165283 82.82883167266846,67.74933338165283 8.129993081092834,67.74933338165283 8.129993081092834,67.74933338165283 7.231981307268143,67.77258515357971 7.231981307268143,67.77258515357971 6.180370599031448,67.81522631645203 6.180370599031448,67.81522631645203 5.040788650512695,67.83673763275146 5.040788650512695,67.83673763275146 3.879167139530182,67.79651045799255 3.879167139530182,67.79651045799255 2.7610214427113533,67.65393018722534 2.7610214427113533,67.65393018722534 1.7520938068628311,67.36847162246704 1.7520938068628311,67.36847162246704 0.9181263856589794,66.8995201587677 0.9181263856589794,66.8995201587677 0.32486156560480595,66.20654463768005 0.32486156560480595,66.20654463768005 0.06732725887559354,65.5417263507843 0.06732725887559354,65.5417263507843 0.0011321848432999104,64.87479209899902 0.0011321848432999104,64.87479209899902 0.09208436822518706,64.21095728874207 0.09208436822518706,64.21095728874207 0.3062937408685684,63.55557441711426 0.3062937408685684,63.55557441711426 0.6095305550843477,62.91407346725464 0.6095305550843477,62.91407346725464 0.9676406159996986,62.29182481765747 0.9676406159996986,62.29182481765747 1.346696075052023,61.69418692588806 1.346696075052023,61.69418692588806 1.712467335164547,61.126506328582764 1.712467335164547,61.126506328582764 2.1826259791851044,60.38198471069336 2.1826259791851044,60.38198471069336 2.6528222486376762,59.63723063468933 2.6528222486376762,59.63723063468933 3.123094141483307,58.89248251914978 3.123094141483307,58.89248251914978 3.593403846025467,58.14757943153381 3.593403846025467,58.14757943153381 4.063713178038597,57.40267634391785 4.063713178038597,57.40267634391785 4.533985257148743,56.65762424468994 4.533985257148743,56.65762424468994 5.0041813403368,55.91249465942383 5.0041813403368,55.91249465942383 5.474340170621872,55.16728758811951 5.474340170621872,55.16728758811951 22.828468680381775,27.674219012260437 22.828468680381775,27.674219012260437 23.399165272712708,28.481128811836243 23.399165272712708,28.481128811836243 24.029867351055145,29.34955060482025 24.029867351055145,29.34955060482025 24.723444879055023,30.19219934940338 24.723444879055023,30.19219934940338 25.4827618598938,30.921703577041626 25.4827618598938,30.921703577041626 26.310616731643677,31.450697779655457 26.310616731643677,31.450697779655457 27.209872007369995,31.691929697990417 27.209872007369995,31.691929697990417 28.183400630950928,31.557953357696533 28.183400630950928,31.557953357696533 29.233917593955994,30.961480736732483 29.233917593955994,30.961480736732483 29.673054814338684,30.663451552391052 29.673054814338684,30.663451552391052 30.103662610054016,30.34549653530121 30.103662610054016,30.34549653530121 30.527475476264954,30.01255989074707 30.527475476264954,30.01255989074707 30.945932865142822,29.66950833797455 30.945932865142822,29.66950833797455 31.36061429977417,29.321247339248657 31.36061429977417,29.321247339248657 31.773030757904053,28.972533345222473 31.773030757904053,28.972533345222473 32.18469321727753,28.628426790237427 32.18469321727753,28.628426790237427 32.59726166725159,28.293752670288086 32.59726166725159,28.293752670288086 33.212265372276306,27.790534496307373 33.212265372276306,27.790534496307373 34.37856435775757,26.828476786613464 34.37856435775757,26.828476786613464 35.90460121631622,25.572961568832397 35.90460121631622,25.572961568832397 37.598347663879395,24.18920397758484 37.598347663879395,24.18920397758484 39.268168807029724,22.842583060264587 39.268168807029724,22.842583060264587 40.72234928607941,21.69851064682007 40.72234928607941,21.69851064682007 41.76901578903198,20.922133326530457 41.76901578903198,20.922133326530457 42.21630394458771,20.678827166557312 42.21630394458771,20.678827166557312 51.1143684387207,29.017746448516846 51.1143684387207,29.017746448516846 52.015286684036255,29.933345317840576 52.015286684036255,29.933345317840576 53.15902233123779,31.137987971305847 53.15902233123779,31.137987971305847 54.48027849197388,32.44735896587372 54.48027849197388,32.44735896587372 55.91347813606262,33.67728888988495 55.91347813606262,33.67728888988495 57.39331841468811,34.64345932006836 57.39331841468811,34.64345932006836 58.85428786277771,35.16154587268829 58.85428786277771,35.16154587268829 60.23102402687073,35.04731059074402 60.23102402687073,35.04731059074402" stroke="white" stroke-width="0.1" /></svg>