<?xml version="1.0" encoding="utf-8" ?>
<svg baseProfile="full" height="29.7196626663208" version="1.1" width="99.99197125434875" xmlns="http://www.w3.org/2000/svg" xmlns:ev="http://www.w3.org/2001/xml-events" xmlns:xlink="http://www.w3.org/1999/xlink"><defs><clipPath /></defs><polygon points="99.99197125434875,18.649837374687195 99.99197125434875,18.649837374687195 99.94478821754456,19.337616860866547 99.94478821754456,19.337616860866547 99.88070130348206,20.0750470161438 99.88070130348206,20.0750470161438 99.80682134628296,20.818673074245453 99.80682134628296,20.818673074245453 99.73027110099792,21.524834632873535 99.73027110099792,21.524834632873535 99.6583640575409,22.149933874607086 99.6583640575409,22.149933874607086 99.59800839424133,22.650380432605743 99.59800839424133,22.650380432605743 99.5566725730896,22.982579469680786 99.5566725730896,22.982579469680786 99.54124689102173,23.103007674217224 99.54124689102173,23.103007674217224 99.25278425216675,23.607821762561798 99.25278425216675,23.607821762561798 99.88380074501038,23.625850677490234 99.88380074501038,23.625850677490234 99.88844990730286,23.64380955696106 99.88844990730286,23.64380955696106 99.90041851997375,23.69571328163147 99.90041851997375,23.69571328163147 99.91711378097534,23.777970671653748 99.91711378097534,23.777970671653748 99.93563294410706,23.88727068901062 99.93563294410706,23.88727068901062 99.95338320732117,24.020235240459442 99.95338320732117,24.020235240459442 99.96746778488159,24.17348176240921 99.96746778488159,24.17348176240921 99.97528195381165,24.34356063604355 99.97528195381165,24.34356063604355 99.97394680976868,24.527302384376526 99.97394680976868,24.527302384376526 99.96457695960999,24.70555007457733 99.96457695960999,24.70555007457733 99.94971752166748,24.861684441566467 99.94971752166748,24.861684441566467 99.92894530296326,24.99535232782364 99.92894530296326,24.99535232782364 99.90183115005493,25.106483697891235 99.90183115005493,25.106483697891235 99.8679518699646,25.1947283744812 99.8679518699646,25.1947283744812 99.82689619064331,25.260013341903687 99.82689619064331,25.260013341903687 99.7782289981842,25.301986932754517 99.7782289981842,25.301986932754517 99.72153902053833,25.3205806016922 99.72153902053833,25.3205806016922 99.55335855484009,25.324946641921997 99.55335855484009,25.324946641921997 99.21081066131592,25.325366854667664 99.21081066131592,25.325366854667664 98.75466227531433,25.32276213169098 98.75466227531433,25.32276213169098 98.24541211128235,25.31832456588745 98.24541211128235,25.31832456588745 97.74383902549744,25.31304359436035 97.74383902549744,25.31304359436035 97.31043577194214,25.307902693748474 97.31043577194214,25.307902693748474 97.0059871673584,25.304028391838074 97.0059871673584,25.304028391838074 96.89098000526428,25.302550196647644 96.89098000526428,25.302550196647644 96.67561650276184,25.337904691696167 96.67561650276184,25.337904691696167 96.09432220458984,25.433260202407837 96.09432220458984,25.433260202407837 95.2443540096283,25.572633743286133 95.2443540096283,25.572633743286133 94.22268271446228,25.739753246307373 94.22268271446228,25.739753246307373 93.12678575515747,25.91884732246399 93.12678575515747,25.91884732246399 92.05356240272522,26.093575358390808 92.05356240272522,26.093575358390808 91.1004900932312,26.248088479042053 91.1004900932312,26.248088479042053 90.36446809768677,26.36626362800598 90.36446809768677,26.36626362800598 89.78556990623474,26.464226841926575 89.78556990623474,26.464226841926575 89.2452597618103,26.565709710121155 89.2452597618103,26.565709710121155 88.75361680984497,26.665431261062622 88.75361680984497,26.665431261062622 88.32042813301086,26.75839364528656 88.32042813301086,26.75839364528656 87.95576095581055,26.839524507522583 87.95576095581055,26.839524507522583 87.66941428184509,26.903754472732544 87.66941428184509,26.903754472732544 87.47151494026184,26.945939660072327 87.47151494026184,26.945939660072327 87.37165331840515,26.961222290992737 87.37165331840515,26.961222290992737 86.4194929599762,26.961222290992737 86.4194929599762,26.961222290992737 86.49287819862366,26.686349511146545 86.49287819862366,26.686349511146545 86.5572452545166,26.407885551452637 86.5572452545166,26.407885551452637 86.61231994628906,26.126039028167725 86.61231994628906,26.126039028167725 86.65788173675537,25.84102749824524 86.65788173675537,25.84102749824524 86.69373393058777,25.552985072135925 86.69373393058777,25.552985072135925 86.71965003013611,25.26184320449829 86.71965003013611,25.26184320449829 86.73534989356995,24.96802657842636 86.73534989356995,24.96802657842636 86.74063682556152,24.671533703804016 86.74063682556152,24.671533703804016 86.70894503593445,23.940442502498627 86.70894503593445,23.940442502498627 86.61555647850037,23.226886987686157 86.61555647850037,23.226886987686157 86.46308779716492,22.53333330154419 86.46308779716492,22.53333330154419 86.25441193580627,21.86252623796463 86.25441193580627,21.86252623796463 85.99214553833008,21.21686190366745 85.99214553833008,21.21686190366745 85.67882180213928,20.599226653575897 85.67882180213928,20.599226653575897 85.31725406646729,20.011945068836212 85.31725406646729,20.011945068836212 84.91012454032898,19.457903504371643 84.91012454032898,19.457903504371643 85.06365418434143,19.81024444103241 85.06365418434143,19.81024444103241 85.19858717918396,20.17209380865097 85.19858717918396,20.17209380865097 85.3146493434906,20.542603731155396 85.3146493434906,20.542603731155396 85.41092276573181,20.92149555683136 85.41092276573181,20.92149555683136 85.48691272735596,21.308062970638275 85.48691272735596,21.308062970638275 85.54198741912842,21.701744198799133 85.54198741912842,21.701744198799133 85.57543754577637,22.101974487304688 85.57543754577637,22.101974487304688 85.58677434921265,22.508050501346588 85.58677434921265,22.508050501346588 85.58058142662048,22.806726396083832 85.58058142662048,22.806726396083832 85.56227087974548,23.102444410324097 85.56227087974548,23.102444410324097 85.53212881088257,23.394641280174255 85.53212881088257,23.394641280174255 85.49036383628845,23.683318495750427 85.49036383628845,23.683318495750427 85.43733358383179,23.96811991930008 85.43733358383179,23.96811991930008 85.37331819534302,24.24897849559784 85.37331819534302,24.24897849559784 85.29852628707886,24.525541067123413 85.29852628707886,24.525541067123413 85.21338105201721,24.79773759841919 85.21338105201721,24.79773759841919 84.77518558502197,25.83039104938507 84.77518558502197,25.83039104938507 84.18853878974915,26.773324608802795 84.18853878974915,26.773324608802795 83.4681510925293,27.611887454986572 83.4681510925293,27.611887454986572 82.62860774993896,28.331217169761658 82.62860774993896,28.331217169761658 81.68482780456543,28.916385769844055 81.68482780456543,28.916385769844055 80.65153956413269,29.352813959121704 80.65153956413269,29.352813959121704 79.54338788986206,29.625433683395386 79.54338788986206,29.625433683395386 78.37516069412231,29.7196626663208 78.37516069412231,29.7196626663208 77.2282063961029,29.62888479232788 77.2282063961029,29.62888479232788 76.13885998725891,29.366126656532288 76.13885998725891,29.366126656532288 75.12092590332031,28.945189714431763 75.12092590332031,28.945189714431763 74.18834567070007,28.38016152381897 74.18834567070007,28.38016152381897 73.35506081581116,27.68484652042389 73.35506081581116,27.68484652042389 72.63523936271667,26.873469352722168 72.63523936271667,26.873469352722168 72.04253673553467,25.959905982017517 72.04253673553467,25.959905982017517 71.59117460250854,24.95816797018051 71.59117460250854,24.95816797018051 71.4934229850769,24.668505787849426 71.4934229850769,24.668505787849426 71.4077889919281,24.37356263399124 71.4077889919281,24.37356263399124 71.33447527885437,24.07354712486267 71.33447527885437,24.07354712486267 71.2736964225769,23.76888543367386 71.2736964225769,23.76888543367386 71.22601866722107,23.459644615650177 71.22601866722107,23.459644615650177 71.19150757789612,23.14624935388565 71.19150757789612,23.14624935388565 71.17059230804443,22.828911244869232 71.17059230804443,22.828911244869232 71.16355299949646,22.508050501346588 71.16355299949646,22.508050501346588 71.17481827735901,22.101904451847076 71.17481827735901,22.101904451847076 71.20833992958069,21.701744198799133 71.20833992958069,21.701744198799133 71.26341462135315,21.308062970638275 71.26341462135315,21.308062970638275 71.3394045829773,20.92149555683136 71.3394045829773,20.92149555683136 71.4356780052185,20.542603731155396 71.4356780052185,20.542603731155396 71.55174016952515,20.17209380865097 71.55174016952515,20.17209380865097 71.6867446899414,19.8101744055748 71.6867446899414,19.8101744055748 71.84020280838013,19.457903504371643 71.84020280838013,19.457903504371643 71.43306732177734,20.012015104293823 71.43306732177734,20.012015104293823 71.07157707214355,20.599156618118286 71.07157707214355,20.599156618118286 70.75824737548828,21.21693193912506 70.75824737548828,21.21693193912506 70.49591541290283,21.86252623796463 70.49591541290283,21.86252623796463 70.28723955154419,22.5334033370018 70.28723955154419,22.5334033370018 70.134836435318,23.226886987686157 70.134836435318,23.226886987686157 70.04145383834839,23.940512537956238 70.04145383834839,23.940512537956238 70.00969052314758,24.671533703804016 70.00969052314758,24.671533703804016 70.01849412918091,25.05641281604767 70.01849412918091,25.05641281604767 70.04462480545044,25.436994433403015 70.04462480545044,25.436994433403015 70.0876533985138,25.8126437664032 70.0876533985138,25.8126437664032 70.14723420143127,26.183155179023743 70.14723420143127,26.183155179023743 70.22280097007751,26.548033952713013 70.22280097007751,26.548033952713013 70.3141450881958,26.907062530517578 70.3141450881958,26.907062530517578 70.42076587677002,27.25982666015625 70.42076587677002,27.25982666015625 70.54225206375122,27.605828642845154 70.54225206375122,27.605828642845154 69.82940435409546,27.934789657592773 69.82940435409546,27.934789657592773 24.82893615961075,28.079020977020264 24.82893615961075,28.079020977020264 24.19721633195877,27.76576578617096 24.19721633195877,27.76576578617096 24.332715570926666,27.40257978439331 24.332715570926666,27.40257978439331 24.451805651187897,27.031859755516052 24.451805651187897,27.031859755516052 24.553993344306946,26.65395438671112 24.553993344306946,26.65395438671112 24.638645350933075,26.26935839653015 24.638645350933075,26.26935839653015 24.70533847808838,25.87835192680359 24.70533847808838,25.87835192680359 24.753651022911072,25.481432676315308 24.753651022911072,25.481432676315308 24.783018231391907,25.078949332237244 24.783018231391907,25.078949332237244 24.792878329753876,24.671533703804016 24.792878329753876,24.671533703804016 24.7611865401268,23.940442502498627 24.7611865401268,23.940442502498627 24.667800962924957,23.226886987686157 24.667800962924957,23.226886987686157 24.51532930135727,22.53333330154419 24.51532930135727,22.53333330154419 24.306657910346985,21.86252623796463 24.306657910346985,21.86252623796463 24.04439151287079,21.21686190366745 24.04439151287079,21.21686190366745 23.731066286563873,20.599226653575897 23.731066286563873,20.599226653575897 23.369500041007996,20.011945068836212 23.369500041007996,20.011945068836212 22.96236753463745,19.457903504371643 22.96236753463745,19.457903504371643 23.115895688533783,19.81024444103241 23.115895688533783,19.81024444103241 23.25083166360855,20.17209380865097 23.25083166360855,20.17209380865097 23.36689382791519,20.542603731155396 23.36689382791519,20.542603731155396 23.463165760040283,20.92149555683136 23.463165760040283,20.92149555683136 23.53915572166443,21.308062970638275 23.53915572166443,21.308062970638275 23.59422892332077,21.701744198799133 23.59422892332077,21.701744198799133 23.62768203020096,22.101974487304688 23.62768203020096,22.101974487304688 23.639020323753357,22.508050501346588 23.639020323753357,22.508050501346588 23.631131649017334,22.847221791744232 23.631131649017334,22.847221791744232 23.607680201530457,23.182378709316254 23.607680201530457,23.182378709316254 23.56901615858078,23.513098061084747 23.56901615858078,23.513098061084747 23.51556271314621,23.839029669761658 23.51556271314621,23.839029669761658 23.44774305820465,24.159960448741913 23.44774305820465,24.159960448741913 23.36590886116028,24.475398659706116 23.36590886116028,24.475398659706116 23.270340263843536,24.785061180591583 23.270340263843536,24.785061180591583 23.16153198480606,25.088879466056824 23.16153198480606,25.088879466056824 22.700101137161255,26.065263152122498 22.700101137161255,26.065263152122498 22.103312611579895,26.954743266105652 22.103312611579895,26.954743266105652 21.38468623161316,27.744075655937195 21.38468623161316,27.744075655937195 20.5574631690979,28.419670462608337 20.5574631690979,28.419670462608337 19.63474303483963,28.968429565429688 19.63474303483963,28.968429565429688 18.629907071590424,29.37690019607544 18.629907071590424,29.37690019607544 17.55647510290146,29.631701111793518 17.55647510290146,29.631701111793518 16.427406668663025,29.7196626663208 16.427406668663025,29.7196626663208 15.241645276546478,29.622545838356018 15.241645276546478,29.622545838356018 14.117859303951263,29.34189736843109 14.117859303951263,29.34189736843109 13.071611523628235,28.892862796783447 13.071611523628235,28.892862796783447 12.118397653102875,28.291144967079163 12.118397653102875,28.291144967079163 11.273498088121414,27.55216658115387 11.273498088121414,27.55216658115387 10.552617907524109,26.6913503408432 10.552617907524109,26.6913503408432 9.971252083778381,25.72426199913025 9.971252083778381,25.72426199913025 9.544682502746582,24.666322767734528 9.544682502746582,24.666322767734528 9.469185769557953,24.408775568008423 9.469185769557953,24.408775568008423 9.403126686811447,24.147212505340576 9.403126686811447,24.147212505340576 9.346645325422287,23.882129788398743 9.346645325422287,23.882129788398743 9.300023317337036,23.613525927066803 9.300023317337036,23.613525927066803 9.263401478528976,23.34161102771759 9.263401478528976,23.34161102771759 9.23699215054512,23.066668212413788 9.23699215054512,23.066668212413788 9.2210054397583,22.788697481155396 9.2210054397583,22.788697481155396 9.21565294265747,22.508050501346588 9.21565294265747,22.508050501346588 9.226921200752258,22.101904451847076 9.226921200752258,22.101904451847076 9.260443598031998,21.701814234256744 9.260443598031998,21.701814234256744 9.315446019172668,21.308204531669617 9.315446019172668,21.308204531669617 9.391435980796814,20.921777188777924 9.391435980796814,20.921777188777924 9.487637877464294,20.54295539855957 9.487637877464294,20.54295539855957 9.603629261255264,20.172375440597534 9.603629261255264,20.172375440597534 9.738706052303314,19.810597598552704 9.738706052303314,19.810597598552704 9.892164170742035,19.458256661891937 9.892164170742035,19.458256661891937 9.485102444887161,20.012226700782776 9.485102444887161,20.012226700782776 9.123535454273224,20.59943825006485 9.123535454273224,20.59943825006485 8.810421824455261,21.217073500156403 8.810421824455261,21.217073500156403 8.548085391521454,21.862737834453583 8.548085391521454,21.862737834453583 8.33941400051117,22.53347337245941 8.33941400051117,22.53347337245941 8.187011629343033,23.226958513259888 8.187011629343033,23.226958513259888 8.09369757771492,23.940512537956238 8.09369757771492,23.940512537956238 8.061935752630234,24.671533703804016 8.061935752630234,24.671533703804016 8.069822937250137,25.01218318939209 8.069822937250137,25.01218318939209 8.092852681875229,25.3412127494812 8.092852681875229,25.3412127494812 8.130107820034027,25.66313147544861 8.130107820034027,25.66313147544861 8.180603384971619,25.982582569122314 8.180603384971619,25.982582569122314 8.243422955274582,26.304078102111816 8.243422955274582,26.304078102111816 8.317722380161285,26.632192730903625 8.317722380161285,26.632192730903625 8.402303606271744,26.971715688705444 8.402303606271744,26.971715688705444 8.496463298797607,27.327153086662292 8.496463298797607,27.327153086662292 8.025877177715302,27.556177973747253 8.025877177715302,27.556177973747253 7.6893821358680725,27.54455804824829 7.6893821358680725,27.54455804824829 6.800748407840729,27.510473132133484 6.800748407840729,27.510473132133484 5.5415332317352295,27.454835176467896 5.5415332317352295,27.454835176467896 4.093294590711594,27.37877666950226 4.093294590711594,27.37877666950226 2.637450397014618,27.283138036727905 2.637450397014618,27.283138036727905 1.3554170727729797,27.1689772605896 1.3554170727729797,27.1689772605896 0.4288233816623688,27.037280797958374 0.4288233816623688,27.037280797958374 0.039015954826027155,26.88910663127899 0.039015954826027155,26.88910663127899 0.002535332714614924,26.69290006160736 0.002535332714614924,26.69290006160736 0.007183443085523322,26.434576511383057 0.007183443085523322,26.434576511383057 0.0419034156948328,26.141393184661865 0.0419034156948328,26.141393184661865 0.09535668068565428,25.840532779693604 0.09535668068565428,25.840532779693604 0.15648637199774384,25.559180974960327 0.15648637199774384,25.559180974960327 0.21395392250269651,25.324594974517822 0.21395392250269651,25.324594974517822 0.25670244358479977,25.163811445236206 0.25670244358479977,25.163811445236206 0.2733933739364147,25.104230642318726 0.2733933739364147,25.104230642318726 0.26620994322001934,24.884995818138123 0.26620994322001934,24.884995818138123 0.25064582005143166,24.294263124465942 0.25064582005143166,24.294263124465942 0.23585637100040913,23.432601988315582 0.23585637100040913,23.432601988315582 0.23078571539372206,22.40058034658432 0.23078571539372206,22.40058034658432 0.24458917323499918,21.29848450422287 0.24458917323499918,21.29848450422287 0.28635174967348576,20.22695541381836 0.28635174967348576,20.22695541381836 0.365017494186759,19.286487996578217 0.365017494186759,19.286487996578217 0.4897417966276407,18.57772171497345 0.4897417966276407,18.57772171497345 0.6769338622689247,17.988678812980652 0.6769338622689247,17.988678812980652 0.9346926584839821,17.356887459754944 0.9346926584839821,17.356887459754944 1.259496994316578,16.706787049770355 1.259496994316578,16.706787049770355 1.6481071710586548,16.062670946121216 1.6481071710586548,16.062670946121216 2.0970018580555916,15.448980033397675 2.0970018580555916,15.448980033397675 2.602730318903923,14.890150725841522 2.602730318903923,14.890150725841522 3.16191203892231,14.410479366779327 3.16191203892231,14.410479366779327 3.771025687456131,14.03440535068512 3.771025687456131,14.03440535068512 4.565359652042389,13.696430623531342 4.565359652042389,13.696430623531342 5.615057796239853,13.327117264270782 5.615057796239853,13.327117264270782 6.8193405866622925,12.945197522640228 6.8193405866622925,12.945197522640228 8.077429234981537,12.568911910057068 8.077429234981537,12.568911910057068 9.288543462753296,12.216923385858536 9.288543462753296,12.216923385858536 10.351763665676117,11.907894164323807 10.351763665676117,11.907894164323807 11.166450381278992,11.660136282444 11.166450381278992,11.660136282444 11.631684005260468,11.492311209440231 11.631684005260468,11.492311209440231 11.881695687770844,11.355121433734894 11.881695687770844,11.355121433734894 12.133680284023285,11.192860454320908 12.133680284023285,11.192860454320908 12.411932647228241,11.014048755168915 12.411932647228241,11.014048755168915 12.740468978881836,10.8274906873703 12.740468978881836,10.8274906873703 13.143375515937805,10.641777515411377 13.143375515937805,10.641777515411377 13.644738495349884,10.465501248836517 13.644738495349884,10.465501248836517 14.268641173839569,10.307395458221436 14.268641173839569,10.307395458221436 15.039171278476715,10.176191478967667 15.039171278476715,10.176191478967667 15.916889905929565,10.068581253290176 15.916889905929565,10.068581253290176 16.837848722934723,9.975055605173111 16.837848722934723,9.975055605173111 17.789725959300995,9.89413633942604 17.789725959300995,9.89413633942604 18.759912252426147,9.82462540268898 18.759912252426147,9.82462540268898 19.736085832118988,9.765256941318512 19.736085832118988,9.765256941318512 20.70564031600952,9.71476137638092 20.70564031600952,9.71476137638092 21.656319499015808,9.671801328659058 21.656319499015808,9.671801328659058 22.57530689239502,9.63532105088234 22.57530689239502,9.63532105088234 23.446616530418396,9.595248103141785 23.446616530418396,9.595248103141785 24.255387485027313,9.545175731182098 24.255387485027313,9.545175731182098 24.991479516029358,9.488271176815033 24.991479516029358,9.488271176815033 25.644749402999878,9.427987039089203 25.644749402999878,9.427987039089203 26.20512843132019,9.367702156305313 26.20512843132019,9.367702156305313 26.66226327419281,9.310798346996307 26.66226327419281,9.310798346996307 27.006295323371887,9.26065519452095 27.006295323371887,9.26065519452095 27.226796746253967,9.220653027296066 27.226796746253967,9.220653027296066 27.41096019744873,9.21487808227539 27.41096019744873,9.21487808227539 27.64512598514557,9.252485632896423 27.64512598514557,9.252485632896423 27.918660640716553,9.314107894897461 27.918660640716553,9.314107894897461 28.22064757347107,9.380660951137543 28.22064757347107,9.380660951137543 28.54045331478119,9.432917088270187 28.54045331478119,9.432917088270187 28.86715829372406,9.45136845111847 28.86715829372406,9.45136845111847 29.19013202190399,9.41714122891426 29.19013202190399,9.41714122891426 29.498454928398132,9.310798346996307 29.498454928398132,9.310798346996307 30.054116249084473,8.985994011163712 30.054116249084473,8.985994011163712 31.059938669204712,8.362583816051483 31.059938669204712,8.362583816051483 32.41697549819946,7.520219683647156 32.41697549819946,7.520219683647156 34.025996923446655,6.538834422826767 34.025996923446655,6.538834422826767 35.78805327415466,5.498291552066803 35.78805327415466,5.498291552066803 37.603914737701416,4.47845384478569 37.603914737701416,4.47845384478569 39.37470316886902,3.5591140389442444 39.37470316886902,3.5591140389442444 41.00097715854645,2.8203463181853294 41.00097715854645,2.8203463181853294 42.452457547187805,2.226937748491764 42.452457547187805,2.226937748491764 43.819987773895264,1.6938135027885437 43.819987773895264,1.6938135027885437 45.18716633319855,1.2252699583768845 45.18716633319855,1.2252699583768845 46.63730561733246,0.8258846588432789 46.63730561733246,0.8258846588432789 48.25400114059448,0.5000239703804255 48.25400114059448,0.5000239703804255 50.12056827545166,0.25205432903021574 50.12056827545166,0.25205432903021574 52.320605516433716,0.08641259046271443 52.320605516433716,0.08641259046271443 54.93742227554321,0.007817275763954967 54.93742227554321,0.007817275763954967 57.7252984046936,0.009014516399474815 57.7252984046936,0.009014516399474815 60.341620445251465,0.06838355911895633 60.341620445251465,0.06838355911895633 62.72469758987427,0.16789536457508802 62.72469758987427,0.16789536457508802 64.81282114982605,0.2895209239795804 64.81282114982605,0.2895209239795804 66.54431223869324,0.41544241830706596 66.54431223869324,0.41544241830706596 67.85747408866882,0.5275604780763388 67.85747408866882,0.5275604780763388 68.69061589241028,0.6079868879169226 68.69061589241028,0.6079868879169226 68.98203492164612,0.6388334091752768 68.98203492164612,0.6388334091752768 72.75010347366333,1.341965701431036 72.75010347366333,1.341965701431036 72.85391092300415,1.3709811493754387 72.85391092300415,1.3709811493754387 73.15829396247864,1.4597178436815739 73.15829396247864,1.4597178436815739 73.65233302116394,1.6100067645311356 73.65233302116394,1.6100067645311356 74.32539463043213,1.8242422491312027 74.32539463043213,1.8242422491312027 75.16663074493408,2.1043965592980385 75.16663074493408,2.1043965592980385 76.16519927978516,2.452441491186619 76.16519927978516,2.452441491186619 77.31039524078369,2.870700880885124 77.31039524078369,2.870700880885124 78.59151363372803,3.3612173050642014 78.59151363372803,3.3612173050642014 80.02679347991943,3.946949541568756 80.02679347991943,3.946949541568756 81.57841563224792,4.616488888859749 81.57841563224792,4.616488888859749 83.15166234970093,5.319761857390404 83.15166234970093,5.319761857390404 84.65151786804199,6.006978079676628 84.65151786804199,6.006978079676628 85.9832763671875,6.628275662660599 85.9832763671875,6.628275662660599 87.05191612243652,7.133792340755463 87.05191612243652,7.133792340755463 87.76272535324097,7.473597675561905 87.76272535324097,7.473597675561905 88.02069425582886,7.5980402529239655 88.02069425582886,7.5980402529239655 95.72585225105286,8.519210666418076 95.72585225105286,8.519210666418076 95.82797288894653,8.544564247131348 95.82797288894653,8.544564247131348 96.09714150428772,8.612525463104248 96.09714150428772,8.612525463104248 96.47772312164307,8.71112123131752 96.47772312164307,8.71112123131752 96.91408276557922,8.828239887952805 96.91408276557922,8.828239887952805 97.35072255134583,8.951766788959503 97.35072255134583,8.951766788959503 97.73193597793579,9.069589525461197 97.73193597793579,9.069589525461197 98.00208806991577,9.169946610927582 98.00208806991577,9.169946610927582 98.10568690299988,9.240372478961945 98.10568690299988,9.240372478961945 98.12561869621277,9.423338621854782 98.12561869621277,9.423338621854782 98.17181825637817,9.704338014125824 98.17181825637817,9.704338014125824 98.23681712150574,10.068369656801224 98.23681712150574,10.068369656801224 98.31273555755615,10.499728471040726 98.31273555755615,10.499728471040726 98.3921766281128,10.98320260643959 98.3921766281128,10.98320260643959 98.4673261642456,11.50364950299263 98.4673261642456,11.50364950299263 98.53063821792603,12.045647203922272 98.53063821792603,12.045647203922272 98.57444167137146,12.593773007392883 98.57444167137146,12.593773007392883 98.59592318534851,13.284650444984436 98.59592318534851,13.284650444984436 98.5852837562561,13.939470052719116 98.5852837562561,13.939470052719116 98.55141043663025,14.541049301624298 98.55141043663025,14.541049301624298 98.50345253944397,15.071919560432434 98.50345253944397,15.071919560432434 98.4504222869873,15.51496833562851 98.4504222869873,15.51496833562851 98.40140342712402,15.852731466293335 98.40140342712402,15.852731466293335 98.36534857749939,16.068093478679657 98.36534857749939,16.068093478679657 98.35132956504822,16.14380180835724 98.35132956504822,16.14380180835724 99.2708146572113,16.684672236442566 99.2708146572113,16.684672236442566 99.30581450462341,16.698195040225983 99.30581450462341,16.698195040225983 99.3971586227417,16.748549044132233 99.3971586227417,16.748549044132233 99.52455759048462,16.85052514076233 99.52455759048462,16.85052514076233 99.66773390769958,17.018844187259674 99.66773390769958,17.018844187259674 99.80640411376953,17.26815104484558 99.80640411376953,17.26815104484558 99.92020726203918,17.613308131694794 99.92020726203918,17.613308131694794 99.98887777328491,18.068964779376984 99.98887777328491,18.068964779376984" stroke="white" stroke-width="0.1" /><polygon points="31.096842885017395,15.987034142017365 31.096842885017395,15.987034142017365 30.90852200984955,15.775403380393982 30.90852200984955,15.775403380393982 30.171164870262146,15.683285892009735 30.171164870262146,15.683285892009735 29.061603546142578,15.682440996170044 29.061603546142578,15.682440996170044 27.756962180137634,15.745049715042114 27.756962180137634,15.745049715042114 26.43415331840515,15.842589735984802 26.43415331840515,15.842589735984802 25.27015507221222,15.947102010250092 25.27015507221222,15.947102010250092 24.44201558828354,16.030485928058624 24.44201558828354,16.030485928058624 24.126648902893066,16.06450229883194 24.126648902893066,16.06450229883194 24.436241388320923,16.890527307987213 24.436241388320923,16.890527307987213 24.706536531448364,16.882358491420746 24.706536531448364,16.882358491420746 25.422486662864685,16.854681074619293 25.422486662864685,16.854681074619293 26.44161880016327,16.802072525024414 26.44161880016327,16.802072525024414 27.621254324913025,16.719533503055573 27.621254324913025,16.719533503055573 28.81912589073181,16.601993143558502 28.81912589073181,16.601993143558502 29.892700910568237,16.444097459316254 29.892700910568237,16.444097459316254 30.699428915977478,16.2407785654068 30.699428915977478,16.2407785654068" stroke="white" stroke-width="0.1" /><polygon points="59.69708561897278,10.06801724433899 59.69708561897278,10.06801724433899 60.25598645210266,8.283143490552902 60.25598645210266,8.283143490552902 60.321974754333496,8.05094912648201 60.321974754333496,8.05094912648201 60.49627661705017,7.43662416934967 60.49627661705017,7.43662416934967 60.74375510215759,6.563272327184677 60.74375510215759,6.563272327184677 61.02898120880127,5.553998425602913 61.02898120880127,5.553998425602913 61.31681203842163,4.532118514180183 61.31681203842163,4.532118514180183 61.57182455062866,3.620666265487671 61.57182455062866,3.620666265487671 61.75894737243652,2.942887507379055 61.75894737243652,2.942887507379055 61.84254288673401,2.622026950120926 61.84254288673401,2.622026950120926 61.71760559082031,2.5320932269096375 61.71760559082031,2.5320932269096375 61.315757036209106,2.4637095630168915 61.315757036209106,2.4637095630168915 60.6579065322876,2.414763532578945 60.6579065322876,2.414763532578945 59.764695167541504,2.383142337203026 59.764695167541504,2.383142337203026 58.65689516067505,2.366733178496361 58.65689516067505,2.366733178496361 57.35499858856201,2.3634230718016624 57.35499858856201,2.3634230718016624 55.87993264198303,2.371099591255188 55.87993264198303,2.371099591255188 54.252320528030396,2.387649565935135 54.252320528030396,2.387649565935135 52.62688994407654,2.448708936572075 52.62688994407654,2.448708936572075 51.14033818244934,2.582588605582714 51.14033818244934,2.582588605582714 49.7860461473465,2.7755554765462875 49.7860461473465,2.7755554765462875 48.55739772319794,3.014158457517624 48.55739772319794,3.014158457517624 47.44797646999359,3.284875676035881 47.44797646999359,3.284875676035881 46.4510977268219,3.5741854459047318 46.4510977268219,3.5741854459047318 45.56035101413727,3.868495300412178 45.56035101413727,3.868495300412178 44.76904571056366,4.1544947773218155 44.76904571056366,4.1544947773218155 43.95407736301422,4.4991593807935715 43.95407736301422,4.4991593807935715 43.039387464523315,4.948053881525993 43.039387464523315,4.948053881525993 42.089200019836426,5.454838648438454 42.089200019836426,5.454838648438454 41.16774797439575,5.973173677921295 41.16774797439575,5.973173677921295 40.33925533294678,6.456929445266724 40.33925533294678,6.456929445266724 39.66795802116394,6.859695166349411 39.66795802116394,6.859695166349411 39.218077063560486,7.135271281003952 39.218077063560486,7.135271281003952 39.053842425346375,7.237459719181061 39.053842425346375,7.237459719181061 38.765379786491394,8.589636534452438 38.765379786491394,8.589636534452438 38.77939283847809,8.608933538198471 38.77939283847809,8.608933538198471 38.81636559963226,8.666542172431946 38.81636559963226,8.666542172431946 38.86904418468475,8.761687576770782 38.86904418468475,8.761687576770782 38.92989456653595,8.893876522779465 38.92989456653595,8.893876522779465 38.99165689945221,9.062405675649643 38.99165689945221,9.062405675649643 39.04680013656616,9.266570955514908 39.04680013656616,9.266570955514908 39.088138937950134,9.505736827850342 39.088138937950134,9.505736827850342 39.1079306602478,9.77955311536789 39.1079306602478,9.77955311536789 39.09842371940613,10.054777562618256 39.09842371940613,10.054777562618256 39.06201124191284,10.298169404268265 39.06201124191284,10.298169404268265 39.00750279426575,10.508179664611816 39.00750279426575,10.508179664611816 38.94341588020325,10.68325862288475 38.94341588020325,10.68325862288475 38.87855410575867,10.821997374296188 38.87855410575867,10.821997374296188 38.82143795490265,10.922987759113312 38.82143795490265,10.922987759113312 38.78087103366852,10.984540730714798 38.78087103366852,10.984540730714798 38.765379786491394,11.005527526140213 38.765379786491394,11.005527526140213" stroke="white" stroke-width="0.1" /><polygon points="71.57821655273438,9.689407795667648 71.57821655273438,9.689407795667648 72.29290008544922,9.687013179063797 72.29290008544922,9.687013179063797 72.98166751861572,9.694197028875351 72.98166751861572,9.694197028875351 73.63247275352478,9.691590815782547 73.63247275352478,9.691590815782547 74.23299551010132,9.660110622644424 74.23299551010132,9.660110622644424 74.77104663848877,9.58045870065689 74.77104663848877,9.58045870065689 75.23416876792908,9.433339536190033 75.23416876792908,9.433339536190033 75.61038136482239,9.19959545135498 75.61038136482239,9.19959545135498 75.88715553283691,8.860072493553162 75.88715553283691,8.860072493553162 76.09491348266602,8.481533080339432 76.09491348266602,8.481533080339432 76.26463770866394,8.140601217746735 76.26463770866394,8.140601217746735 76.38534903526306,7.832628488540649 76.38534903526306,7.832628488540649 76.4460563659668,7.552967220544815 76.4460563659668,7.552967220544815 76.43584609031677,7.297039777040482 76.43584609031677,7.297039777040482 76.34351849555969,7.0599861443042755 76.34351849555969,7.0599861443042755 76.1583685874939,6.837299466133118 76.1583685874939,6.837299466133118 75.86912512779236,6.624472141265869 75.86912512779236,6.624472141265869 75.40473937988281,6.367981433868408 75.40473937988281,6.367981433868408 74.72597360610962,6.032894551753998 74.72597360610962,6.032894551753998 73.87072443962097,5.6419603526592255 73.87072443962097,5.6419603526592255 72.87631034851074,5.218207836151123 72.87631034851074,5.218207836151123 71.78062200546265,4.784243181347847 71.78062200546265,4.784243181347847 70.62098979949951,4.362955689430237 70.62098979949951,4.362955689430237 69.43529844284058,3.977162390947342 69.43529844284058,3.977162390947342 68.26087832450867,3.649681806564331 68.26087832450867,3.649681806564331 67.1526551246643,3.3922046422958374 67.1526551246643,3.3922046422958374 66.14894270896912,3.1958572566509247 66.14894270896912,3.1958572566509247 65.26319980621338,3.052329272031784 65.26319980621338,3.052329272031784 64.50858116149902,2.9533104971051216 64.50858116149902,2.9533104971051216 63.89855146408081,2.8907019644975662 63.89855146408081,2.8907019644975662 63.446277379989624,2.856122702360153 63.446277379989624,2.856122702360153 63.16521167755127,2.8414037078619003 63.16521167755127,2.8414037078619003 63.06851506233215,2.8383754193782806 63.06851506233215,2.8383754193782806 61.301666498184204,9.905756264925003 61.301666498184204,9.905756264925003 61.66415214538574,9.89793911576271 61.66415214538574,9.89793911576271 62.63610124588013,9.877022355794907 62.63610124588013,9.877022355794907 64.04461860656738,9.84680950641632 64.04461860656738,9.84680950641632 65.71652889251709,9.811104089021683 65.71652889251709,9.811104089021683 67.479008436203,9.773707389831543 67.479008436203,9.773707389831543 69.15866732597351,9.73842442035675 69.15866732597351,9.73842442035675 70.58289051055908,9.709056466817856 70.58289051055908,9.709056466817856" stroke="white" stroke-width="0.1" /></svg>