<?xml version="1.0" encoding="utf-8" ?>
<svg baseProfile="full" height="29.01444435119629" version="1.1" width="99.99986290931702" xmlns="http://www.w3.org/2000/svg" xmlns:ev="http://www.w3.org/2001/xml-events" xmlns:xlink="http://www.w3.org/1999/xlink"><defs><clipPath /></defs><polygon points="17.14734584093094,14.429609477519989 17.14734584093094,14.429609477519989 18.617720901966095,14.577572047710419 18.617720901966095,14.577572047710419 19.98734027147293,15.001951158046722 19.98734027147293,15.001951158046722 21.226797997951508,15.673588216304779 21.226797997951508,15.673588216304779 22.306688129901886,16.56329035758972 22.306688129901886,16.56329035758972 23.19774180650711,17.64189749956131 23.19774180650711,17.64189749956131 23.87048304080963,18.880145251750946 23.87048304080963,18.880145251750946 24.295715987682343,20.248982310295105 24.295715987682343,20.248982310295105 24.443964660167694,21.719107031822205 24.443964660167694,21.719107031822205 24.443821609020233,21.76891416311264 24.443821609020233,21.76891416311264 24.443180859088898,21.8186154961586 24.443180859088898,21.8186154961586 24.44232702255249,21.86824530363083 24.44232702255249,21.86824530363083 24.44104552268982,21.917767822742462 24.44104552268982,21.917767822742462 24.439549446105957,21.96718454360962 24.439549446105957,21.96718454360962 24.43755567073822,22.01656401157379 24.43755567073822,22.01656401157379 24.435420334339142,22.065837681293488 24.435420334339142,22.065837681293488 24.43285584449768,22.115004062652588 24.43285584449768,22.115004062652588 24.2205947637558,23.515313863754272 24.2205947637558,23.515313863754272 23.755700886249542,24.815082550048828 23.755700886249542,24.815082550048828 23.064731061458588,25.98760724067688 23.064731061458588,25.98760724067688 22.174246609210968,27.006474137306213 22.174246609210968,27.006474137306213 21.110735833644867,27.845194935798645 21.110735833644867,27.845194935798645 19.90068405866623,28.47699224948883 19.90068405866623,28.47699224948883 18.57072561979294,28.875666856765747 18.57072561979294,28.875666856765747 17.14734584093094,29.01444435119629 17.14734584093094,29.01444435119629 15.727384388446808,28.87588143348694 15.727384388446808,28.87588143348694 14.4001305103302,28.477847576141357 14.4001305103302,28.477847576141357 13.19214403629303,27.846938371658325 13.19214403629303,27.846938371658325 12.12984323501587,27.009394764900208 12.12984323501587,27.009394764900208 11.239928752183914,25.99184513092041 11.239928752183914,25.99184513092041 10.54895892739296,24.8208150267601 10.54895892739296,24.8208150267601 10.083281248807907,23.522719740867615 10.083281248807907,23.522719740867615 9.869524836540222,22.123976051807404 9.869524836540222,22.123976051807404 9.86696183681488,22.073635458946228 9.86696183681488,22.073635458946228 9.86461192369461,22.023257613182068 9.86461192369461,22.023257613182068 9.862618148326874,21.97277396917343 9.862618148326874,21.97277396917343 9.86098051071167,21.92225456237793 9.86098051071167,21.92225456237793 9.859699010848999,21.871592104434967 9.859699010848999,21.871592104434967 9.85870212316513,21.820858120918274 9.85870212316513,21.820858120918274 9.858061373233795,21.77005410194397 9.858061373233795,21.77005410194397 9.857847541570663,21.719107031822205 9.857847541570663,21.719107031822205 10.006095468997955,20.24901807308197 10.006095468997955,20.24901807308197 10.431186854839325,18.88018101453781 10.431186854839325,18.88018101453781 11.103785037994385,17.64189749956131 11.103785037994385,17.64189749956131 11.994270235300064,16.563326120376587 11.994270235300064,16.563326120376587 13.073375821113586,15.673588216304779 13.073375821113586,15.673588216304779 14.311480522155762,15.001951158046722 14.311480522155762,15.001951158046722 15.679249167442322,14.577572047710419 15.679249167442322,14.577572047710419" stroke="white" stroke-width="0.1" /><polygon points="77.93598175048828,14.429609477519989 77.93598175048828,14.429609477519989 79.40179705619812,14.576753973960876 79.40179705619812,14.576753973960876 80.76722025871277,14.998924732208252 80.76722025871277,14.998924732208252 82.00304508209229,15.66714495420456 82.00304508209229,15.66714495420456 83.08051228523254,16.55246764421463 83.08051228523254,16.55246764421463 83.97049903869629,17.625947296619415 83.97049903869629,17.625947296619415 84.64402556419373,18.858569860458374 84.64402556419373,18.858569860458374 85.07217764854431,20.221568644046783 85.07217764854431,20.221568644046783 85.22576689720154,21.685783565044403 85.22576689720154,21.685783565044403 85.22583246231079,21.690019965171814 85.22583246231079,21.690019965171814 85.22590398788452,21.694186329841614 85.22590398788452,21.694186329841614 85.22604703903198,21.698351204395294 85.22604703903198,21.698351204395294 85.22626161575317,21.702516078948975 85.22626161575317,21.702516078948975 85.2263331413269,21.70664668083191 85.2263331413269,21.70664668083191 85.22647619247437,21.71081155538559 85.22647619247437,21.71081155538559 85.22661924362183,21.71497792005539 85.22661924362183,21.71497792005539 85.22661924362183,21.719107031822205 85.22661924362183,21.719107031822205 85.07858514785767,23.1893390417099 85.07858514785767,23.1893390417099 84.65391993522644,24.558675289154053 84.65391993522644,24.558675289154053 83.9819610118866,25.797882676124573 83.9819610118866,25.797882676124573 83.09190273284912,26.877593994140625 83.09190273284912,26.877593994140625 82.01301097869873,27.768436074256897 82.01301097869873,27.768436074256897 80.77455163002014,28.441104292869568 80.77455163002014,28.441104292869568 79.4057846069336,28.866195678710938 79.4057846069336,28.866195678710938 77.93598175048828,29.01444435119629 77.93598175048828,29.01444435119629 76.51786804199219,28.876662254333496 76.51786804199219,28.876662254333496 75.19282698631287,28.480765223503113 75.19282698631287,28.480765223503113 73.98690581321716,27.85320281982422 73.98690581321716,27.85320281982422 72.92624115943909,27.019932866096497 72.92624115943909,27.019932866096497 72.03689217567444,26.007401943206787 72.03689217567444,26.007401943206787 71.34514451026917,24.84189122915268 71.34514451026917,24.84189122915268 70.87697386741638,23.549598455429077 70.87697386741638,23.549598455429077 70.65858840942383,22.1567302942276 70.65858840942383,22.1567302942276 70.65552473068237,22.10233062505722 70.65552473068237,22.10233062505722 70.65274715423584,22.047893702983856 70.65274715423584,22.047893702983856 70.65025568008423,21.993350982666016 70.65025568008423,21.993350982666016 70.64826488494873,21.938738226890564 70.64826488494873,21.938738226890564 70.64655423164368,21.884016692638397 70.64655423164368,21.884016692638397 70.64534425735474,21.82915359735489 70.64534425735474,21.82915359735489 70.64462900161743,21.77421897649765 70.64462900161743,21.77421897649765 70.64434885978699,21.719107031822205 70.64434885978699,21.719107031822205 70.79238295555115,20.24901807308197 70.79238295555115,20.24901807308197 71.21704816818237,18.88018101453781 71.21704816818237,18.88018101453781 71.88900113105774,17.64189749956131 71.88900113105774,17.64189749956131 72.77913093566895,16.563326120376587 72.77913093566895,16.563326120376587 73.85809421539307,15.673588216304779 73.85809421539307,15.673588216304779 75.09683966636658,15.001951158046722 75.09683966636658,15.001951158046722 76.46574974060059,14.577572047710419 76.46574974060059,14.577572047710419" stroke="white" stroke-width="0.1" /><polygon points="99.99986290931702,15.309840440750122 99.99986290931702,15.309840440750122 99.94645714759827,15.502732992172241 99.94645714759827,15.502732992172241 99.81152415275574,15.659312903881073 99.81152415275574,15.659312903881073 99.62098002433777,15.784169733524323 99.62098002433777,15.784169733524323 99.40074682235718,15.882040560245514 99.40074682235718,15.882040560245514 99.17687773704529,15.957516431808472 99.17687773704529,15.957516431808472 98.97537231445312,16.01519286632538 98.97537231445312,16.01519286632538 98.8222062587738,16.059695184230804 98.8222062587738,16.059695184230804 98.74324202537537,16.09579622745514 98.74324202537537,16.09579622745514 98.7163245677948,16.16450846195221 98.7163245677948,16.16450846195221 98.69040846824646,16.2991926074028 98.69040846824646,16.2991926074028 98.64861369132996,16.492940485477448 98.64861369132996,16.492940485477448 98.57398867607117,16.73877388238907 98.57398867607117,16.73877388238907 98.44959378242493,17.029787600040436 98.44959378242493,17.029787600040436 98.25841188430786,17.359071969985962 98.25841188430786,17.359071969985962 97.98349142074585,17.7194744348526 97.98349142074585,17.7194744348526 97.60795831680298,18.10433566570282 97.60795831680298,18.10433566570282 97.13993072509766,18.505288660526276 97.13993072509766,18.505288660526276 96.62191271781921,18.907451629638672 96.62191271781921,18.907451629638672 96.08859419822693,19.29391473531723 96.08859419822693,19.29391473531723 95.5744981765747,19.64801549911499 95.5744981765747,19.64801549911499 95.1143741607666,19.952699542045593 95.1143741607666,19.952699542045593 94.7428286075592,20.191198587417603 94.7428286075592,20.191198587417603 94.49446201324463,20.34667432308197 94.49446201324463,20.34667432308197 94.40403580665588,20.402249693870544 94.40403580665588,20.402249693870544 97.79892563819885,20.052635669708252 97.79892563819885,20.052635669708252 97.76902198791504,21.000367403030396 97.76902198791504,21.000367403030396 97.6183533668518,21.0233673453331 97.6183533668518,21.0233673453331 97.21077680587769,21.083535254001617 97.21077680587769,21.083535254001617 96.61272764205933,21.167413890361786 96.61272764205933,21.167413890361786 95.89078426361084,21.261724829673767 95.89078426361084,21.261724829673767 95.11159658432007,21.353009343147278 95.11159658432007,21.353009343147278 94.3415880203247,21.42791599035263 94.3415880203247,21.42791599035263 93.64741444587708,21.473166346549988 93.64741444587708,21.473166346549988 93.09557676315308,21.475303173065186 93.09557676315308,21.475303173065186 92.66166090965271,21.447889506816864 92.66166090965271,21.447889506816864 92.27487444877625,21.411824226379395 92.27487444877625,21.411824226379395 91.93074107170105,21.368496119976044 91.93074107170105,21.368496119976044 91.62506461143494,21.319150924682617 91.62506461143494,21.319150924682617 91.35313034057617,21.265141665935516 91.35313034057617,21.265141665935516 91.1104679107666,21.207822859287262 91.1104679107666,21.207822859287262 90.8928632736206,21.148331463336945 90.8928632736206,21.148331463336945 90.69555997848511,21.088092029094696 90.69555997848511,21.088092029094696 90.38354158401489,21.068653464317322 90.38354158401489,21.068653464317322 89.87129330635071,21.114081144332886 89.87129330635071,21.114081144332886 89.2268180847168,21.205437183380127 89.2268180847168,21.205437183380127 88.5176956653595,21.323637664318085 88.5176956653595,21.323637664318085 87.8119170665741,21.44966870546341 87.8119170665741,21.44966870546341 87.17734217643738,21.564486622810364 87.17734217643738,21.564486622810364 86.6815447807312,21.649041771888733 86.6815447807312,21.649041771888733 86.39252185821533,21.68435901403427 86.39252185821533,21.68435901403427 86.20824217796326,19.9883371591568 86.20824217796326,19.9883371591568 85.69457530975342,18.408165872097015 85.69457530975342,18.408165872097015 84.88889336585999,16.977664828300476 84.88889336585999,16.977664828300476 83.82858633995056,15.731015801429749 83.82858633995056,15.731015801429749 82.55117535591125,14.702215790748596 82.55117535591125,14.702215790748596 81.09397292137146,13.925231993198395 81.09397292137146,13.925231993198395 79.4945776462555,13.434168696403503 79.4945776462555,13.434168696403503 77.79015302658081,13.262850046157837 77.79015302658081,13.262850046157837 75.1144289970398,13.662949204444885 75.1144289970398,13.662949204444885 73.06929230690002,14.717702567577362 73.06929230690002,14.717702567577362 71.57028913497925,16.20890498161316 71.57028913497925,16.20890498161316 70.53312659263611,17.91827827692032 70.53312659263611,17.91827827692032 69.87334489822388,19.627757370471954 69.87334489822388,19.627757370471954 69.50656771659851,21.11895978450775 69.50656771659851,21.11895978450775 69.34835314750671,22.17371314764023 69.34835314750671,22.17371314764023 69.3143904209137,22.57377654314041 69.3143904209137,22.57377654314041 69.27109360694885,22.610090672969818 69.27109360694885,22.610090672969818 69.14278268814087,22.705788910388947 69.14278268814087,22.705788910388947 68.93173456192017,22.84121960401535 68.93173456192017,22.84121960401535 68.64022016525269,22.996339201927185 68.64022016525269,22.996339201927185 68.27067136764526,23.151494562625885 68.27067136764526,23.151494562625885 67.82528758049011,23.28685373067856 67.82528758049011,23.28685373067856 67.30634570121765,23.38258922100067 67.30634570121765,23.38258922100067 66.7164146900177,23.418903350830078 66.7164146900177,23.418903350830078 27.1780788898468,23.54564666748047 27.1780788898468,23.54564666748047 25.551623106002808,22.702157497406006 25.551623106002808,22.702157497406006 25.610581040382385,21.719107031822205 25.610581040382385,21.719107031822205 25.43833553791046,20.01703232526779 25.43833553791046,20.01703232526779 24.94439035654068,18.43070089817047 24.94439035654068,18.43070089817047 24.163204431533813,16.994433104991913 24.163204431533813,16.994433104991913 23.12895804643631,15.742407739162445 23.12895804643631,15.742407739162445 21.87590003013611,14.708980917930603 21.87590003013611,14.708980917930603 20.43842226266861,13.928435742855072 20.43842226266861,13.928435742855072 18.850843608379364,13.434988260269165 18.850843608379364,13.434988260269165 17.14734584093094,13.262850046157837 17.14734584093094,13.262850046157837 15.445271134376526,13.4349524974823 15.445271134376526,13.4349524974823 13.859046995639801,13.928399980068207 13.859046995639801,13.928399980068207 12.422779202461243,14.708980917930603 12.422779202461243,14.708980917930603 11.17078885436058,15.742407739162445 11.17078885436058,15.742407739162445 10.137397050857544,16.994468867778778 10.137397050857544,16.994468867778778 9.356851875782013,18.43070089817047 9.356851875782013,18.43070089817047 8.863332867622375,20.017068088054657 8.863332867622375,20.017068088054657 8.691231906414032,21.719107031822205 8.691231906414032,21.719107031822205 8.711453527212143,22.27521538734436 8.711453527212143,22.27521538734436 5.269424244761467,22.97501415014267 5.269424244761467,22.97501415014267 3.6972269415855408,23.512892425060272 3.6972269415855408,23.512892425060272 4.671590402722359,21.84656411409378 4.671590402722359,21.84656411409378 3.1330015510320663,21.12070322036743 3.1330015510320663,21.12070322036743 3.1093617901206017,21.063241362571716 3.1093617901206017,21.063241362571716 3.044494427740574,20.907588303089142 3.044494427740574,20.907588303089142 2.947157807648182,20.679092407226562 2.947157807648182,20.679092407226562 2.8263235464692116,20.403103530406952 2.8263235464692116,20.403103530406952 2.690678834915161,20.104792714118958 2.690678834915161,20.104792714118958 2.549266628921032,19.80961412191391 2.549266628921032,19.80961412191391 2.4109160527586937,19.54270303249359 2.4109160527586937,19.54270303249359 2.2843854501843452,19.329480826854706 2.2843854501843452,19.329480826854706 2.1618423983454704,19.163574278354645 2.1618423983454704,19.163574278354645 2.0337453112006187,19.018495082855225 2.0337453112006187,19.018495082855225 1.9070012494921684,18.894776701927185 1.9070012494921684,18.894776701927185 1.7882319167256355,18.79259943962097 1.7882319167256355,18.79259943962097 1.6841309145092964,18.712493777275085 1.6841309145092964,18.712493777275085 1.6013910993933678,18.65481734275818 1.6013910993933678,18.65481734275818 1.5468483790755272,18.61989200115204 1.5468483790755272,18.61989200115204 1.5271958895027637,18.608178198337555 1.5271958895027637,18.608178198337555 1.4675265178084373,18.580302596092224 1.4675265178084373,18.580302596092224 1.3095946982502937,18.503651022911072 1.3095946982502937,18.503651022911072 1.0847306810319424,18.38851273059845 1.0847306810319424,18.38851273059845 0.8241930976510048,18.2453915476799 0.8241930976510048,18.2453915476799 0.5594544112682343,18.084682524204254 0.5594544112682343,18.084682524204254 0.321844732388854,17.916640639305115 0.321844732388854,17.916640639305115 0.14269398525357246,17.751872539520264 0.14269398525357246,17.751872539520264 0.05354585009627044,17.600634694099426 0.05354585009627044,17.600634694099426 0.023924739798530936,17.444054782390594 0.023924739798530936,17.444054782390594 0.007120458758436143,17.265403270721436 0.007120458758436143,17.265403270721436 0.00042722749640233815,17.07809865474701 0.00042722749640233815,17.07809865474701 0.0010680687410058454,16.89513921737671 0.0010680687410058454,16.89513921737671 0.006337207742035389,16.729873418807983 0.006337207742035389,16.729873418807983 0.013528870476875454,16.595403850078583 0.013528870476875454,16.595403850078583 0.01979487424250692,16.50511622428894 0.01979487424250692,16.50511622428894 0.022500648628920317,16.472041606903076 0.022500648628920317,16.472041606903076 0.43192701414227486,16.505365073680878 0.43192701414227486,16.505365073680878 0.4270851146429777,16.343161463737488 0.4270851146429777,16.343161463737488 0.41519394144415855,15.914154052734375 0.41519394144415855,15.914154052734375 0.40059699676930904,15.304712951183319 0.40059699676930904,15.304712951183319 0.3873529378324747,14.601247012615204 0.3873529378324747,14.601247012615204 0.37980524357408285,13.890199363231659 0.37980524357408285,13.890199363231659 0.38179897237569094,13.257867097854614 0.38179897237569094,13.257867097854614 0.39782002568244934,12.790800631046295 0.39782002568244934,12.790800631046295 0.43192701414227486,12.57515698671341 0.43192701414227486,12.57515698671341 0.5082583054900169,12.486400455236435 0.5082583054900169,12.486400455236435 0.661419378593564,12.347444891929626 0.661419378593564,12.347444891929626 0.9110626764595509,12.166335433721542 0.9110626764595509,12.166335433721542 1.2768406420946121,11.95104867219925 1.2768406420946121,11.95104867219925 1.7784057185053825,11.70966550707817 1.7784057185053825,11.70966550707817 2.4356240406632423,11.4501953125 2.4356240406632423,11.4501953125 3.2679345458745956,11.180650442838669 3.2679345458745956,11.180650442838669 4.29520308971405,10.9091117978096 4.29520308971405,10.9091117978096 5.4900869727134705,10.60820147395134 5.4900869727134705,10.60820147395134 6.783874332904816,10.263500362634659 6.783874332904816,10.263500362634659 8.133699744939804,9.895586222410202 8.133699744939804,9.895586222410202 9.496840089559555,9.524823725223541 9.496840089559555,9.524823725223541 10.830430686473846,9.171755611896515 10.830430686473846,9.171755611896515 12.091535329818726,8.85678231716156 12.091535329818726,8.85678231716156 13.237430155277252,8.600445836782455 13.237430155277252,8.600445836782455 14.225251972675323,8.423075079917908 14.225251972675323,8.423075079917908 15.280930697917938,8.288142085075378 15.280930697917938,8.288142085075378 16.613169014453888,8.144380152225494 16.613169014453888,8.144380152225494 18.16015988588333,7.997983694076538 18.16015988588333,7.997983694076538 19.860169291496277,7.855432480573654 19.860169291496277,7.855432480573654 21.651534736156464,7.72288516163826 21.651534736156464,7.72288516163826 23.47244918346405,7.606785744428635 23.47244918346405,7.606785744428635 25.261393189430237,7.513329386711121 25.261393189430237,7.513329386711121 26.95648968219757,7.448854297399521 26.95648968219757,7.448854297399521 28.425583243370056,7.40734189748764 28.425583243370056,7.40734189748764 29.598036408424377,7.373448461294174 29.598036408424377,7.373448461294174 30.505040287971497,7.346533238887787 30.505040287971497,7.346533238887787 31.177568435668945,7.325954735279083 31.177568435668945,7.325954735279083 31.646662950515747,7.311072945594788 31.646662950515747,7.311072945594788 31.94323182106018,7.301317900419235 31.94323182106018,7.301317900419235 32.09838569164276,7.295870780944824 32.09838569164276,7.295870780944824 32.14331567287445,7.294197380542755 32.14331567287445,7.294197380542755 32.193586230278015,7.293272018432617 32.193586230278015,7.293272018432617 32.32204020023346,7.292987406253815 32.32204020023346,7.292987406253815 32.4946403503418,7.29711726307869 32.4946403503418,7.29711726307869 32.6774924993515,7.309506833553314 32.6774924993515,7.309506833553314 32.83684849739075,7.3338232934474945 32.83684849739075,7.3338232934474945 32.93902575969696,7.373911142349243 32.93902575969696,7.373911142349243 32.94984996318817,7.433580607175827 32.94984996318817,7.433580607175827 32.835566997528076,7.516498118638992 32.835566997528076,7.516498118638992 32.613977789878845,7.600448280572891 32.613977789878845,7.600448280572891 32.34454095363617,7.6696597039699554 32.34454095363617,7.6696597039699554 32.05302953720093,7.729684561491013 32.05302953720093,7.729684561491013 31.7653626203537,7.7858299016952515 31.7653626203537,7.7858299016952515 31.50724470615387,7.843576371669769 31.50724470615387,7.843576371669769 31.304597854614258,7.908372581005096 31.304597854614258,7.908372581005096 31.183192133903503,7.985629886388779 31.183192133903503,7.985629886388779 31.1688095331192,8.080723136663437 31.1688095331192,8.080723136663437 31.335854530334473,8.161433786153793 31.335854530334473,8.161433786153793 31.70526623725891,8.191695809364319 31.70526623725891,8.191695809364319 32.22384750843048,8.17115306854248 32.22384750843048,8.17115306854248 32.83855617046356,8.099450170993805 32.83855617046356,8.099450170993805 33.49598944187164,7.97630175948143 33.49598944187164,7.97630175948143 34.14302468299866,7.801245152950287 34.14302468299866,7.801245152950287 34.726548194885254,7.573995739221573 34.726548194885254,7.573995739221573 35.193294286727905,7.294197380542755 35.193294286727905,7.294197380542755 35.812702775001526,6.784194707870483 35.812702775001526,6.784194707870483 36.806076765060425,5.9476833790540695 36.806076765060425,5.9476833790540695 38.04062306880951,4.902969673275948 38.04062306880951,4.902969673275948 39.38318490982056,3.768075257539749 39.38318490982056,3.768075257539749 40.700897574424744,2.661271393299103 40.700897574424744,2.661271393299103 41.86074733734131,1.7007214948534966 41.86074733734131,1.7007214948534966 42.72987246513367,1.004518661648035 42.72987246513367,1.004518661648035 43.17518472671509,0.6909692659974098 43.17518472671509,0.6909692659974098 43.44789683818817,0.599328987300396 43.44789683818817,0.599328987300396 43.902042508125305,0.4919881001114845 43.902042508125305,0.4919881001114845 44.55840587615967,0.37752671632915735 44.55840587615967,0.37752671632915735 45.43763995170593,0.2645962405949831 45.43763995170593,0.2645962405949831 46.56074941158295,0.16170560847967863 46.56074941158295,0.16170560847967863 47.948384284973145,0.07761299493722618 47.948384284973145,0.07761299493722618 49.62126314640045,0.020827341359108686 49.62126314640045,0.020827341359108686 51.60025358200073,0.0 51.60025358200073,0.0 53.94644737243652,0.015202179201878607 53.94644737243652,0.015202179201878607 56.60907030105591,0.06419093115255237 56.60907030105591,0.06419093115255237 59.44101810455322,0.15216419706121087 59.44101810455322,0.15216419706121087 62.295037508010864,0.2841775072738528 62.295037508010864,0.2841775072738528 65.02395272254944,0.4654287826269865 65.02395272254944,0.4654287826269865 67.48079657554626,0.7009735330939293 67.48079657554626,0.7009735330939293 69.51824426651001,0.9959029033780098 69.51824426651001,0.9959029033780098 70.98926305770874,1.3554505072534084 70.98926305770874,1.3554505072534084 72.37882018089294,1.9130535423755646 72.37882018089294,1.9130535423755646 74.16527271270752,2.733081206679344 74.16527271270752,2.733081206679344 76.19132399559021,3.716772422194481 76.19132399559021,3.716772422194481 78.29976677894592,4.765509068965912 78.29976677894592,4.765509068965912 80.33336997032166,5.780566111207008 80.33336997032166,5.780566111207008 82.13484287261963,6.663218140602112 82.13484287261963,6.663218140602112 83.547043800354,7.314775884151459 83.547043800354,7.314775884151459 84.41274762153625,7.636691629886627 84.41274762153625,7.636691629886627 85.31932830810547,7.8155577182769775 85.31932830810547,7.8155577182769775 86.82238459587097,8.078373968601227 86.82238459587097,8.078373968601227 88.71699571609497,8.386903256177902 88.71699571609497,8.386903256177902 90.7982349395752,8.702944964170456 90.7982349395752,8.702944964170456 92.86096096038818,8.98822620511055 92.86096096038818,8.98822620511055 94.70039010047913,9.204403311014175 94.70039010047913,9.204403311014175 96.11130952835083,9.313274919986725 96.11130952835083,9.313274919986725 96.88893556594849,9.276533126831055 96.88893556594849,9.276533126831055 97.2643256187439,9.14519652724266 97.2643256187439,9.14519652724266 97.60411381721497,9.001398831605911 97.60411381721497,9.001398831605911 97.9060173034668,8.85382741689682 97.9060173034668,8.85382741689682 98.16797971725464,8.71116891503334 98.16797971725464,8.71116891503334 98.38786125183105,8.582039177417755 98.38786125183105,8.582039177417755 98.56337904930115,8.475232124328613 98.56337904930115,8.475232124328613 98.69254231452942,8.399221301078796 98.69254231452942,8.399221301078796 98.77314567565918,8.362836390733719 98.77314567565918,8.362836390733719 98.82947206497192,8.365684002637863 98.82947206497192,8.365684002637863 98.8849401473999,8.4019273519516 98.8849401473999,8.4019273519516 98.93563985824585,8.47185030579567 98.93563985824585,8.47185030579567 98.97821545600891,8.575737476348877 98.97821545600891,8.575737476348877 99.00869131088257,8.713839203119278 99.00869131088257,8.713839203119278 99.02357459068298,8.886510133743286 99.02357459068298,8.886510133743286 99.0190863609314,9.094035625457764 99.0190863609314,9.094035625457764 98.99160265922546,9.336630254983902 98.99160265922546,9.336630254983902 98.94325733184814,9.591329097747803 98.94325733184814,9.591329097747803 98.88351559638977,9.83370915055275 98.88351559638977,9.83370915055275 98.82014393806458,10.062169283628464 98.82014393806458,10.062169283628464 98.7604022026062,10.275035351514816 98.7604022026062,10.275035351514816 98.71198534965515,10.470633953809738 98.71198534965515,10.470633953809738 98.68229031562805,10.647328197956085 98.68229031562805,10.647328197956085 98.67894649505615,10.803551226854324 98.67894649505615,10.803551226854324 98.70949387550354,10.937593877315521 98.70949387550354,10.937593877315521 98.7500786781311,11.167940497398376 98.7500786781311,11.167940497398376 98.77514243125916,11.573165655136108 98.77514243125916,11.573165655136108 98.78945350646973,12.091998010873795 98.78945350646973,12.091998010873795 98.79800081253052,12.662951648235321 98.79800081253052,12.662951648235321 98.80561828613281,13.22479248046875 98.80561828613281,13.22479248046875 98.81708025932312,13.715961575508118 98.81708025932312,13.715961575508118 98.83723258972168,14.075259864330292 98.83723258972168,14.075259864330292 98.8709807395935,14.241202175617218 98.8709807395935,14.241202175617218 98.95215630531311,14.301227033138275 98.95215630531311,14.301227033138275 99.0962028503418,14.383397996425629 99.0962028503418,14.383397996425629 99.28026795387268,14.487035572528839 99.28026795387268,14.487035572528839 99.4814932346344,14.611750841140747 99.4814932346344,14.611750841140747 99.6768057346344,14.756901562213898 99.6768057346344,14.756901562213898 99.84363913536072,14.922024309635162 99.84363913536072,14.922024309635162 99.9589204788208,15.10651558637619 99.9589204788208,15.10651558637619" stroke="white" stroke-width="0.1" /><polygon points="60.39245128631592,8.726691454648972 60.39245128631592,8.726691454648972 60.40612459182739,8.467720448970795 60.40612459182739,8.467720448970795 60.42349934577942,8.151144534349442 60.42349934577942,8.151144534349442 60.444146394729614,7.789354026317596 60.444146394729614,7.789354026317596 60.46750545501709,7.394738495349884 60.46750545501709,7.394738495349884 60.492920875549316,6.979580223560333 60.492920875549316,6.979580223560333 60.51976680755615,6.556162238121033 60.51976680755615,6.556162238121033 60.54753661155701,6.136802583932877 60.54753661155701,6.136802583932877 60.57559251785278,5.73396272957325 60.57559251785278,5.73396272957325 60.62002182006836,5.237595736980438 60.62002182006836,5.237595736980438 60.6909453868866,4.6352047473192215 60.6909453868866,4.6352047473192215 60.77837944030762,3.9798378944396973 60.77837944030762,3.9798378944396973 60.87237000465393,3.3245421946048737 60.87237000465393,3.3245421946048737 60.96280217170715,2.72254291921854 60.96280217170715,2.72254291921854 61.03977560997009,2.2267453372478485 61.03977560997009,2.2267453372478485 61.093246936798096,1.890374906361103 61.093246936798096,1.890374906361103 61.113327741622925,1.7664432525634766 61.113327741622925,1.7664432525634766 60.98295450210571,1.75206009298563 60.98295450210571,1.75206009298563 60.61311364173889,1.713217981159687 60.61311364173889,1.713217981159687 60.035574436187744,1.656254194676876 60.035574436187744,1.656254194676876 59.28223133087158,1.58743504434824 59.28223133087158,1.58743504434824 58.384984731674194,1.5132398344576359 58.384984731674194,1.5132398344576359 57.37544298171997,1.4398991130292416 57.37544298171997,1.4398991130292416 56.28558397293091,1.3738924637436867 56.28558397293091,1.3738924637436867 55.147379636764526,1.3214146718382835 55.147379636764526,1.3214146718382835 53.52064371109009,1.286417618393898 53.52064371109009,1.286417618393898 51.85303092002869,1.2906542979180813 51.85303092002869,1.2906542979180813 50.22415518760681,1.3234440237283707 50.22415518760681,1.3234440237283707 48.71319234371185,1.374177262187004 48.71319234371185,1.374177262187004 47.39968180656433,1.4322089962661266 47.39968180656433,1.4322089962661266 46.36315703392029,1.4868229627609253 46.36315703392029,1.4868229627609253 45.683011412620544,1.5274095349013805 45.683011412620544,1.5274095349013805 45.43863534927368,1.5432882122695446 45.43863534927368,1.5432882122695446 38.52595388889313,8.046972751617432 38.52595388889313,8.046972751617432 39.782142639160156,8.14865231513977 39.782142639160156,8.14865231513977 42.0667439699173,8.258058875799179 42.0667439699173,8.258058875799179 45.05797624588013,8.369244635105133 45.05797624588013,8.369244635105133 48.43449890613556,8.476051688194275 48.43449890613556,8.476051688194275 51.87453627586365,8.57246220111847 51.87453627586365,8.57246220111847 55.0565242767334,8.652424812316895 55.0565242767334,8.652424812316895 57.65883922576904,8.70988741517067 57.65883922576904,8.70988741517067 59.35984253883362,8.738796412944794 59.35984253883362,8.738796412944794 59.49883460998535,8.739899843931198 59.49883460998535,8.739899843931198 59.63512063026428,8.740255981683731 59.63512063026428,8.740255981683731 59.76841449737549,8.739793300628662 59.76841449737549,8.739793300628662 59.89893674850464,8.738582581281662 59.89893674850464,8.738582581281662 60.02660393714905,8.736660331487656 60.02660393714905,8.736660331487656 60.15135645866394,8.734025806188583 60.15135645866394,8.734025806188583 60.27332544326782,8.73071476817131 60.27332544326782,8.73071476817131" stroke="white" stroke-width="0.1" /><polygon points="60.94585657119751,8.697355538606644 60.94585657119751,8.697355538606644 61.57487630844116,8.64124596118927 61.57487630844116,8.64124596118927 62.12307810783386,8.565591275691986 62.12307810783386,8.565591275691986 62.609195709228516,8.474911749362946 62.609195709228516,8.474911749362946 63.052088022232056,8.373730629682541 63.052088022232056,8.373730629682541 63.4706974029541,8.266425132751465 63.4706974029541,8.266425132751465 63.8836145401001,8.157553523778915 63.8836145401001,8.157553523778915 64.3099844455719,8.05145874619484 64.3099844455719,8.05145874619484 64.76826071739197,7.952697575092316 64.76826071739197,7.952697575092316 65.41479825973511,7.822678238153458 65.41479825973511,7.822678238153458 66.12492203712463,7.676566392183304 66.12492203712463,7.676566392183304 66.85242056846619,7.524651288986206 66.85242056846619,7.524651288986206 67.55107641220093,7.377222180366516 67.55107641220093,7.377222180366516 68.17489862442017,7.244568318128586 68.17489862442017,7.244568318128586 68.67753267288208,7.1371205151081085 68.67753267288208,7.1371205151081085 69.0129816532135,7.0649899542331696 69.0129816532135,7.0649899542331696 69.13509368896484,7.038715481758118 69.13509368896484,7.038715481758118 68.88958215713501,6.859280169010162 68.88958215713501,6.859280169010162 68.23200583457947,6.380286812782288 68.23200583457947,6.380286812782288 67.28050112724304,5.69077730178833 67.28050112724304,5.69077730178833 66.15325808525085,4.879863932728767 66.15325808525085,4.879863932728767 64.96855616569519,4.03640978038311 64.96855616569519,4.03640978038311 63.844454288482666,3.2495636492967606 63.844454288482666,3.2495636492967606 62.89935111999512,2.608259581029415 62.89935111999512,2.608259581029415 62.251460552215576,2.2016458213329315 62.251460552215576,2.2016458213329315 62.1796190738678,2.162483148276806 62.1796190738678,2.162483148276806 62.106990814208984,2.124744839966297 62.106990814208984,2.124744839966297 62.033504247665405,2.0885728299617767 62.033504247665405,2.0885728299617767 61.95909380912781,2.0537538453936577 61.95909380912781,2.0537538453936577 61.88362240791321,2.0204300060868263 61.88362240791321,2.0204300060868263 61.80700063705444,1.9884947687387466 61.80700063705444,1.9884947687387466 61.72931790351868,1.957876794040203 61.72931790351868,1.957876794040203 61.65021061897278,1.9286474213004112 61.65021061897278,1.9286474213004112 61.62991523742676,2.0448531955480576 61.62991523742676,2.0448531955480576 61.60805821418762,2.1734843030571938 61.60805821418762,2.1734843030571938 61.584705114364624,2.3136505857110023 61.584705114364624,2.3136505857110023 61.56027913093567,2.464248239994049 61.56027913093567,2.464248239994049 61.534786224365234,2.6243161410093307 61.534786224365234,2.6243161410093307 61.50836944580078,2.7928929775953293 61.50836944580078,2.7928929775953293 61.4812433719635,2.968946285545826 61.4812433719635,2.968946285545826 61.45354509353638,3.1515147536993027 61.45354509353638,3.1515147536993027 61.40184998512268,3.4900926053524017 61.40184998512268,3.4900926053524017 61.35079860687256,3.838425502181053 61.35079860687256,3.838425502181053 61.301594972610474,4.190140590071678 61.301594972610474,4.190140590071678 61.255455017089844,4.538508877158165 61.255455017089844,4.538508877158165 61.2135112285614,4.876980185508728 61.2135112285614,4.876980185508728 61.17691397666931,5.199074000120163 61.17691397666931,5.199074000120163 61.1470103263855,5.498168990015984 61.1470103263855,5.498168990015984 61.12486124038696,5.767713859677315 61.12486124038696,5.767713859677315 61.1000120639801,6.157558783888817 61.1000120639801,6.157558783888817 61.07487678527832,6.563068926334381 61.07487678527832,6.563068926334381 61.04981303215027,6.973207741975784 61.04981303215027,6.973207741975784 61.02553606033325,7.37650990486145 61.02553606033325,7.37650990486145 61.00239157676697,7.761869579553604 61.00239157676697,7.761869579553604 60.9811007976532,8.11789259314537 60.9811007976532,8.11789259314537 60.962021350860596,8.43350663781166 60.962021350860596,8.43350663781166" stroke="white" stroke-width="0.1" /><polygon points="69.43671703338623,15.384890139102936 69.43671703338623,15.384890139102936 69.5472240447998,15.219837427139282 69.5472240447998,15.219837427139282 69.66221928596497,15.054892003536224 69.66221928596497,15.054892003536224 69.77558135986328,14.896781742572784 69.77558135986328,14.896781742572784 69.88160610198975,14.7523432970047 69.88160610198975,14.7523432970047 69.97430920600891,14.628270268440247 69.97430920600891,14.628270268440247 70.04786729812622,14.531253278255463 70.04786729812622,14.531253278255463 70.09628415107727,14.46809470653534 70.09628415107727,14.46809470653534 70.11373043060303,14.445558190345764 70.11373043060303,14.445558190345764 66.87079071998596,14.445558190345764 66.87079071998596,14.445558190345764 66.87079071998596,14.694347977638245 66.87079071998596,14.694347977638245 67.56417751312256,14.694347977638245 67.56417751312256,14.694347977638245 67.44248867034912,14.864811301231384 67.44248867034912,14.864811301231384 67.29708909988403,15.075506269931793 67.29708909988403,15.075506269931793 67.13581085205078,15.31916856765747 67.13581085205078,15.31916856765747 66.96613430976868,15.588463842868805 66.96613430976868,15.588463842868805 66.79587960243225,15.875916182994843 66.79587960243225,15.875916182994843 66.63275361061096,16.174334287643433 66.63275361061096,16.174334287643433 66.48436188697815,16.47617071866989 66.48436188697815,16.47617071866989 66.35854244232178,16.774234175682068 66.35854244232178,16.774234175682068 66.24134182929993,17.117653787136078 66.24134182929993,17.117653787136078 66.13175868988037,17.485247552394867 66.13175868988037,17.485247552394867 66.03107452392578,17.861314117908478 66.03107452392578,17.861314117908478 65.94099998474121,18.230046331882477 65.94099998474121,18.230046331882477 65.86267352104187,18.57571005821228 65.86267352104187,18.57571005821228 65.79787731170654,18.882600963115692 65.79787731170654,18.882600963115692 65.7478928565979,19.134950637817383 65.7478928565979,19.134950637817383 65.7141387462616,19.31694895029068 65.7141387462616,19.31694895029068 65.03371000289917,19.31694895029068 65.03371000289917,19.31694895029068 65.03371000289917,19.5655956864357 65.03371000289917,19.5655956864357 67.98698902130127,19.5655956864357 67.98698902130127,19.5655956864357 67.99033880233765,19.54248994588852 67.99033880233765,19.54248994588852 67.99980998039246,19.477836787700653 67.99980998039246,19.477836787700653 68.01525950431824,19.377224147319794 68.01525950431824,19.377224147319794 68.03640723228455,19.246385991573334 68.03640723228455,19.246385991573334 68.06311011314392,19.091089069843292 68.06311011314392,19.091089069843292 68.0952250957489,18.916921317577362 68.0952250957489,18.916921317577362 68.13246011734009,18.72972548007965 68.13246011734009,18.72972548007965 68.17469000816345,18.535122275352478 68.17469000816345,18.535122275352478 68.22075843811035,18.331122398376465 68.22075843811035,18.331122398376465 68.27081441879272,18.119145929813385 68.27081441879272,18.119145929813385 68.32464337348938,17.90236383676529 68.32464337348938,17.90236383676529 68.3820366859436,17.68408566713333 68.3820366859436,17.68408566713333 68.44234466552734,17.467588186264038 68.44234466552734,17.467588186264038 68.50557327270508,17.256146669387817 68.50557327270508,17.256146669387817 68.57115626335144,17.052999138832092 68.57115626335144,17.052999138832092 68.63893866539001,16.861388087272644 68.63893866539001,16.861388087272644 68.71392130851746,16.676078736782074 68.71392130851746,16.676078736782074 68.80057454109192,16.486424207687378 68.80057454109192,16.486424207687378 68.89669895172119,16.29481315612793 68.89669895172119,16.29481315612793 68.99980306625366,16.103307902812958 68.99980306625366,16.103307902812958 69.10768151283264,15.914367139339447 69.10768151283264,15.914367139339447 69.21804547309875,15.730124711990356 69.21804547309875,15.730124711990356 69.32841539382935,15.55289626121521 69.32841539382935,15.55289626121521" stroke="white" stroke-width="0.1" /></svg>