<?xml version="1.0" encoding="utf-8" ?>
<svg baseProfile="full" height="19.31694895029068" version="1.1" width="69.60675120353699" xmlns="http://www.w3.org/2000/svg" xmlns:ev="http://www.w3.org/2001/xml-events" xmlns:xlink="http://www.w3.org/1999/xlink"><defs><clipPath /></defs><polygon points="67.60462522506714,16.861672699451447 67.60462522506714,16.861672699451447 67.68209338188171,16.666822135448456 67.68209338188171,16.666822135448456 67.79267191886902,16.437862813472748 67.79267191886902,16.437862813472748 67.92312264442444,16.193346679210663 67.92312264442444,16.193346679210663 68.05983185768127,15.951678156852722 68.05983185768127,15.951678156852722 68.18956732749939,15.731513500213623 68.18956732749939,15.731513500213623 68.2988703250885,15.551330149173737 68.2988703250885,15.551330149173737 68.37420463562012,15.429571270942688 68.37420463562012,15.429571270942688 68.40239763259888,15.384890139102936 68.40239763259888,15.384890139102936 68.8841700553894,14.694204926490784 68.8841700553894,14.694204926490784 69.60675120353699,14.694204926490784 69.60675120353699,14.694204926490784 69.56445574760437,14.759072661399841 69.56445574760437,14.759072661399841 69.45109963417053,14.935232698917389 69.45109963417053,14.935232698917389 69.28675770759583,15.19477367401123 69.28675770759583,15.19477367401123 69.09173130989075,15.510174632072449 69.09173130989075,15.510174632072449 68.8861608505249,15.853522717952728 68.8861608505249,15.853522717952728 68.69013905525208,16.197121143341064 68.69013905525208,16.197121143341064 68.52387189865112,16.513127088546753 68.52387189865112,16.513127088546753 68.40766668319702,16.773949563503265 68.40766668319702,16.773949563503265 68.31495761871338,17.05460101366043 68.31495761871338,17.05460101366043 68.21078658103943,17.423155903816223 68.21078658103943,17.423155903816223 68.10248494148254,17.8409144282341 68.10248494148254,17.8409144282341 67.9974615573883,18.269316852092743 67.9974615573883,18.269316852092743 67.90297031402588,18.66973489522934 67.90297031402588,18.66973489522934 67.82635450363159,19.003507494926453 67.82635450363159,19.003507494926453 67.77494549751282,19.23218071460724 67.77494549751282,19.23218071460724 67.75628924369812,19.31694895029068 67.75628924369812,19.31694895029068 66.97489023208618,19.31694895029068 66.97489023208618,19.31694895029068 67.13510155677795,18.535122275352478 67.13510155677795,18.535122275352478 67.1491265296936,18.481968343257904 67.1491265296936,18.481968343257904 67.18736290931702,18.337993323802948 67.18736290931702,18.337993323802948 67.24404096603394,18.126265704631805 67.24404096603394,18.126265704631805 67.31353998184204,17.87000149488449 67.31353998184204,17.87000149488449 67.39001274108887,17.592231929302216 67.39001274108887,17.592231929302216 67.46791005134583,17.316171526908875 67.46791005134583,17.316171526908875 67.54132509231567,17.064961791038513 67.54132509231567,17.064961791038513" stroke="white" stroke-width="0.1" /></svg>