<?xml version="1.0" encoding="utf-8" ?>
<svg baseProfile="full" height="25.553998351097107" version="1.1" width="99.99720454216003" xmlns="http://www.w3.org/2000/svg" xmlns:ev="http://www.w3.org/2001/xml-events" xmlns:xlink="http://www.w3.org/1999/xlink"><defs><clipPath /></defs><polygon points="98.09896945953369,13.694758713245392 98.09896945953369,13.694758713245392 98.18413853645325,13.707411289215088 98.18413853645325,13.707411289215088 98.40781092643738,13.744010031223297 98.40781092643738,13.744010031223297 98.72250556945801,13.802242279052734 98.72250556945801,13.802242279052734 99.08074140548706,13.879793882369995 99.08074140548706,13.879793882369995 99.43488836288452,13.97455632686615 99.43488836288452,13.97455632686615 99.73734021186829,14.084148406982422 99.73734021186829,14.084148406982422 99.9406099319458,14.206461608409882 99.9406099319458,14.206461608409882 99.99720454216003,14.339114725589752 99.99720454216003,14.339114725589752 99.88536834716797,14.46952372789383 99.88536834716797,14.46952372789383 99.64482188224792,14.585919678211212 99.64482188224792,14.585919678211212 99.31978583335876,14.687144756317139 99.31978583335876,14.687144756317139 98.95448088645935,14.772315323352814 98.95448088645935,14.772315323352814 98.5933244228363,14.840342104434967 98.5933244228363,14.840342104434967 98.28046560287476,14.890138804912567 98.28046560287476,14.890138804912567 98.06025624275208,14.920750260353088 98.06025624275208,14.920750260353088 97.97706007957458,14.931227266788483 97.97706007957458,14.931227266788483 97.2804605960846,16.846881806850433 97.2804605960846,16.846881806850433 98.60400557518005,16.794636845588684 98.60400557518005,16.794636845588684 97.76808023452759,17.63055920600891 97.76808023452759,17.63055920600891 96.09623551368713,17.64797419309616 96.09623551368713,17.64797419309616 95.98916172981262,17.696137726306915 95.98916172981262,17.696137726306915 95.68017721176147,17.828111350536346 95.68017721176147,17.828111350536346 95.18793225288391,18.02450716495514 95.18793225288391,18.02450716495514 94.53105926513672,18.266208469867706 94.53105926513672,18.266208469867706 93.72799396514893,18.533964455127716 93.72799396514893,18.533964455127716 92.79744625091553,18.808797001838684 92.79744625091553,18.808797001838684 91.75784587860107,19.071246683597565 91.75784587860107,19.071246683597565 90.62790870666504,19.302403926849365 90.62790870666504,19.302403926849365 89.52361941337585,19.49247270822525 89.52361941337585,19.49247270822525 88.47361207008362,19.66070532798767 88.47361207008362,19.66070532798767 87.50320076942444,19.806352257728577 87.50320076942444,19.806352257728577 86.63809895515442,19.928869605064392 86.63809895515442,19.928869605064392 85.90353727340698,20.02730518579483 85.90353727340698,20.02730518579483 85.32516360282898,20.101115107536316 85.32516360282898,20.101115107536316 84.92835760116577,20.149347186088562 84.92835760116577,20.149347186088562 84.73856449127197,20.171523094177246 84.73856449127197,20.171523094177246 84.77237224578857,19.97818946838379 84.77237224578857,19.97818946838379 84.80203151702881,19.783426821231842 84.80203151702881,19.783426821231842 84.82747673988342,19.587303698062897 84.82747673988342,19.587303698062897 84.84842777252197,19.39002424478531 84.84842777252197,19.39002424478531 84.86495614051819,19.191382825374603 84.86495614051819,19.191382825374603 84.87693071365356,18.99138242006302 84.87693071365356,18.99138242006302 84.88414287567139,18.790292739868164 84.88414287567139,18.790292739868164 84.88659262657166,18.587978184223175 84.88659262657166,18.587978184223175 84.71074104309082,16.849331557750702 84.71074104309082,16.849331557750702 84.20672416687012,15.229050815105438 84.20672416687012,15.229050815105438 83.40944051742554,13.761833310127258 83.40944051742554,13.761833310127258 82.35372304916382,12.483052164316177 82.35372304916382,12.483052164316177 81.07486963272095,11.427468806505203 81.07486963272095,11.427468806505203 79.60779070854187,10.63011810183525 79.60779070854187,10.63011810183525 77.98737287521362,10.125966370105743 77.98737287521362,10.125966370105743 76.24879479408264,9.9501833319664 76.24879479408264,9.9501833319664 74.51021671295166,10.126034170389175 74.51021671295166,10.126034170389175 72.88987040519714,10.63011810183525 72.88987040519714,10.63011810183525 71.42278552055359,11.427468806505203 71.42278552055359,11.427468806505203 70.14386653900146,12.483052164316177 70.14386653900146,12.483052164316177 69.08828616142273,13.761833310127258 69.08828616142273,13.761833310127258 68.2909369468689,15.229050815105438 68.2909369468689,15.229050815105438 67.78684854507446,16.849331557750702 67.78684854507446,16.849331557750702 67.61106848716736,18.587978184223175 67.61106848716736,18.587978184223175 67.62610077857971,19.099818170070648 67.62610077857971,19.099818170070648 67.67079830169678,19.603970646858215 67.67079830169678,19.603970646858215 67.74399280548096,20.099414885044098 67.74399280548096,20.099414885044098 67.84501671791077,20.5852672457695 67.84501671791077,20.5852672457695 67.97304153442383,21.060915291309357 67.97304153442383,21.060915291309357 68.12685132026672,21.5254083275795 68.12685132026672,21.5254083275795 68.3060348033905,21.977858245372772 68.3060348033905,21.977858245372772 68.50937008857727,22.41765707731247 68.50937008857727,22.41765707731247 68.28440427780151,24.82297420501709 68.28440427780151,24.82297420501709 29.448845982551575,24.80555921792984 29.448845982551575,24.80555921792984 28.821903467178345,18.675462901592255 28.821903467178345,18.675462901592255 28.80789041519165,18.67709457874298 28.80789041519165,18.67709457874298 28.808027505874634,18.665938079357147 28.808027505874634,18.665938079357147 28.808298707008362,18.654781579971313 28.808298707008362,18.654781579971313 28.80863845348358,18.64362508058548 28.80863845348358,18.64362508058548 28.809115290641785,18.63260567188263 28.809115290641785,18.63260567188263 28.809455037117004,18.621380627155304 28.809455037117004,18.621380627155304 28.809863328933716,18.610292673110962 28.809863328933716,18.610292673110962 28.8100004196167,18.5992032289505 28.8100004196167,18.5992032289505 28.810134530067444,18.587978184223175 28.810134530067444,18.587978184223175 28.645646572113037,16.96157604455948 28.645646572113037,16.96157604455948 28.17414700984955,15.445786714553833 28.17414700984955,15.445786714553833 27.428224682807922,14.073263108730316 27.428224682807922,14.073263108730316 26.440736651420593,12.876999378204346 26.440736651420593,12.876999378204346 25.24440586566925,11.889443546533585 25.24440586566925,11.889443546533585 23.872017860412598,11.14358976483345 23.872017860412598,11.14358976483345 22.35609143972397,10.67202314734459 22.35609143972397,10.67202314734459 20.729757845401764,10.507600754499435 20.729757845401764,10.507600754499435 19.103220105171204,10.67202314734459 19.103220105171204,10.67202314734459 17.58742928504944,11.14358976483345 17.58742928504944,11.14358976483345 16.21490716934204,11.889512091875076 16.21490716934204,11.889512091875076 15.018506348133087,12.876930832862854 15.018506348133087,12.876930832862854 14.03108686208725,14.073331654071808 14.03108686208725,14.073331654071808 13.285095989704132,15.445786714553833 13.285095989704132,15.445786714553833 12.813597917556763,16.96157604455948 12.813597917556763,16.96157604455948 12.649106979370117,18.587978184223175 12.649106979370117,18.587978184223175 12.652848660945892,18.833693861961365 12.652848660945892,18.833693861961365 12.66414076089859,19.077573716640472 12.66414076089859,19.077573716640472 12.682576477527618,19.319547712802887 12.682576477527618,19.319547712802887 12.70822286605835,19.559411704540253 12.70822286605835,19.559411704540253 12.740875780582428,19.79723572731018 12.740875780582428,19.79723572731018 12.780264019966125,20.032747089862823 12.780264019966125,20.032747089862823 12.826250493526459,20.266149938106537 12.826250493526459,20.266149938106537 12.878972291946411,20.49703598022461 12.878972291946411,20.49703598022461 12.817475199699402,20.504042506217957 12.817475199699402,20.504042506217957 12.834890186786652,24.80555921792984 12.834890186786652,24.80555921792984 3.3959344029426575,24.648824334144592 3.3959344029426575,24.648824334144592 0.0,24.17861819267273 0.0,24.17861819267273 0.905582495033741,23.342695832252502 0.905582495033741,23.342695832252502 2.6296723634004593,13.83407860994339 2.6296723634004593,13.83407860994339 5.973361432552338,12.197064608335495 5.973361432552338,12.197064608335495 6.199757009744644,10.490389913320541 6.199757009744644,10.490389913320541 6.175879389047623,10.481750220060349 6.175879389047623,10.481750220060349 6.113225966691971,10.457192361354828 6.113225966691971,10.457192361354828 6.025266647338867,10.418688505887985 6.025266647338867,10.418688505887985 5.925470218062401,10.368484258651733 5.925470218062401,10.368484258651733 5.82730658352375,10.308416187763214 5.82730658352375,10.308416187763214 5.7442449033260345,10.240592807531357 5.7442449033260345,10.240592807531357 5.689754709601402,10.167054831981659 5.689754709601402,10.167054831981659 5.677305534482002,10.089843720197678 5.677305534482002,10.089843720197678 5.872884765267372,10.052972286939621 5.872884765267372,10.052972286939621 6.3668325543403625,10.08603423833847 6.3668325543403625,10.08603423833847 7.059148699045181,10.168755799531937 7.059148699045181,10.168755799531937 7.849832624197006,10.281409323215485 7.849832624197006,10.281409323215485 8.638884127140045,10.403722524642944 8.638884127140045,10.403722524642944 9.326302260160446,10.51596775650978 9.326302260160446,10.51596775650978 9.812086820602417,10.597873479127884 9.812086820602417,10.597873479127884 9.996237605810165,10.62970981001854 9.996237605810165,10.62970981001854 10.192292928695679,10.53052619099617 10.192292928695679,10.53052619099617 10.745085030794144,10.263721644878387 10.745085030794144,10.263721644878387 11.601551622152328,9.875693172216415 11.601551622152328,9.875693172216415 12.708631157875061,9.41283330321312 12.708631157875061,9.41283330321312 14.013263583183289,8.921334892511368 14.013263583183289,8.921334892511368 15.46238660812378,8.447659015655518 15.46238660812378,8.447659015655518 17.00293719768524,8.03806483745575 17.00293719768524,8.03806483745575 18.581856787204742,7.738812267780304 18.581856787204742,7.738812267780304 20.15104740858078,7.538402825593948 20.15104740858078,7.538402825593948 21.66595309972763,7.389150559902191 21.66595309972763,7.389150559902191 23.078884184360504,7.283572107553482 23.078884184360504,7.283572107553482 24.34188425540924,7.214183360338211 24.34188425540924,7.214183360338211 25.407332181930542,7.173299044370651 25.407332181930542,7.173299044370651 26.22760534286499,7.153502851724625 26.22760534286499,7.153502851724625 26.754820346832275,7.147108763456345 26.754820346832275,7.147108763456345 26.941078901290894,7.146700471639633 26.941078901290894,7.146700471639633 26.942983269691467,7.126836478710175 26.942983269691467,7.126836478710175 26.946520805358887,7.07295835018158 26.946520805358887,7.07295835018158 26.94842517375946,6.993366032838821 26.94842517375946,6.993366032838821 26.945433020591736,6.8963587284088135 26.945433020591736,6.8963587284088135 26.93427801132202,6.790440529584885 26.93427801132202,6.790440529584885 26.911690831184387,6.683841347694397 26.911690831184387,6.683841347694397 26.87441110610962,6.585065275430679 26.87441110610962,6.585065275430679 26.819175481796265,6.502343714237213 26.819175481796265,6.502343714237213 26.7347514629364,6.439077854156494 26.7347514629364,6.439077854156494 26.62053406238556,6.391594558954239 26.62053406238556,6.391594558954239 26.489171385765076,6.35751336812973 26.489171385765076,6.35751336812973 26.353320479393005,6.33472353219986 26.353320479393005,6.33472353219986 26.225635409355164,6.320778280496597 26.225635409355164,6.320778280496597 26.11876130104065,6.31377100944519 26.11876130104065,6.31377100944519 26.045361161231995,6.3111186027526855 26.045361161231995,6.3111186027526855 26.018083095550537,6.310778111219406 26.018083095550537,6.310778111219406 25.999373197555542,6.3019342720508575 25.999373197555542,6.3019342720508575 25.950053334236145,6.272682547569275 25.950053334236145,6.272682547569275 25.880324840545654,6.218940764665604 25.880324840545654,6.218940764665604 25.800395011901855,6.136627495288849 25.800395011901855,6.136627495288849 25.720462203025818,6.021593138575554 25.720462203025818,6.021593138575554 25.650733709335327,5.86995966732502 25.650733709335327,5.86995966732502 25.60141384601593,5.677441880106926 25.60141384601593,5.677441880106926 25.582706928253174,5.44002577662468 25.582706928253174,5.44002577662468 25.570732355117798,5.147099122405052 25.570732355117798,5.147099122405052 25.54869055747986,4.807641729712486 25.54869055747986,4.807641729712486 25.537672638893127,4.446959868073463 25.537672638893127,4.446959868073463 25.55876076221466,4.0903594344854355 25.55876076221466,4.0903594344854355 25.632908940315247,3.763147071003914 25.632908940315247,3.763147071003914 25.781074166297913,3.4906286746263504 25.781074166297913,3.4906286746263504 26.024341583251953,3.2981108874082565 26.024341583251953,3.2981108874082565 26.3837993144989,3.210899606347084 26.3837993144989,3.210899606347084 26.82393491268158,3.188178315758705 26.82393491268158,3.188178315758705 27.3089736700058,3.172804042696953 27.3089736700058,3.172804042696953 27.859315276145935,3.16559299826622 27.859315276145935,3.16559299826622 28.495371341705322,3.16736176609993 28.495371341705322,3.16736176609993 29.237553477287292,3.178926557302475 29.237553477287292,3.178926557302475 30.106264352798462,3.2011035829782486 30.106264352798462,3.2011035829782486 31.121915578842163,3.2347090542316437 31.121915578842163,3.2347090542316437 32.30491578578949,3.280559554696083 32.30491578578949,3.280559554696083 33.5036963224411,3.3281110227108 33.5036963224411,3.3281110227108 34.55118238925934,3.37362140417099 34.55118238925934,3.37362140417099 35.44479310512543,3.4280434250831604 35.44479310512543,3.4280434250831604 36.18193864822388,3.502601385116577 36.18193864822388,3.502601385116577 36.75990104675293,3.608180209994316 36.75990104675293,3.608180209994316 37.17595636844635,3.7556640803813934 37.17595636844635,3.7556640803813934 37.427523732185364,3.956345096230507 37.427523732185364,3.956345096230507 37.51201331615448,4.2209722101688385 37.51201331615448,4.2209722101688385 37.50194609165192,4.525327309966087 37.50194609165192,4.525327309966087 37.470653653144836,4.830498993396759 37.470653653144836,4.830498993396759 37.416502833366394,5.125874653458595 37.416502833366394,5.125874653458595 37.33786344528198,5.400841683149338 37.33786344528198,5.400841683149338 37.233102321624756,5.64485676586628 37.233102321624756,5.64485676586628 37.10058331489563,5.847102403640747 37.10058331489563,5.847102403640747 36.938679218292236,5.997171252965927 36.938679218292236,5.997171252965927 36.74575090408325,6.0843825340271 36.74575090408325,6.0843825340271 36.47758662700653,6.130369007587433 36.47758662700653,6.130369007587433 36.11554503440857,6.168464571237564 36.11554503440857,6.168464571237564 35.69636046886444,6.205267459154129 35.69636046886444,6.205267459154129 35.25676429271698,6.247648596763611 35.25676429271698,6.247648596763611 34.83349680900574,6.302206963300705 34.83349680900574,6.302206963300705 34.463292360305786,6.375812739133835 34.463292360305786,6.375812739133835 34.18288230895996,6.474996358156204 34.18288230895996,6.474996358156204 34.029003977775574,6.606833636760712 34.029003977775574,6.606833636760712 33.95852744579315,6.744997948408127 33.95852744579315,6.744997948408127 33.9027464389801,6.860168278217316 33.9027464389801,6.860168278217316 33.86002480983734,6.953638046979904 33.86002480983734,6.953638046979904 33.82873237133026,7.026971876621246 33.82873237133026,7.026971876621246 33.80723297595978,7.081393897533417 33.80723297595978,7.081393897533417 33.79390239715576,7.118672877550125 33.79390239715576,7.118672877550125 33.78709852695465,7.139897346496582 33.78709852695465,7.139897346496582 33.78519415855408,7.146700471639633 33.78519415855408,7.146700471639633 45.08756101131439,6.868059933185577 45.08756101131439,6.868059933185577 45.26892006397247,6.73336535692215 45.26892006397247,6.73336535692215 45.76103091239929,6.368737667798996 45.76103091239929,6.368737667798996 46.486204862594604,5.833088606595993 46.486204862594604,5.833088606595993 47.36675322055817,5.185330659151077 47.36675322055817,5.185330659151077 48.32485318183899,4.484578967094421 48.32485318183899,4.484578967094421 49.282681941986084,3.7896778434515 49.282681941986084,3.7896778434515 50.16254782676697,3.1597428023815155 50.16254782676697,3.1597428023815155 50.886768102645874,2.6536179706454277 50.886768102645874,2.6536179706454277 51.48867964744568,2.2221192717552185 51.48867964744568,2.2221192717552185 52.070993185043335,1.787763461470604 52.070993185043335,1.787763461470604 52.659839391708374,1.3672173023223877 52.659839391708374,1.3672173023223877 53.28133702278137,0.9774195961654186 53.28133702278137,0.9774195961654186 53.96161675453186,0.6349009461700916 53.96161675453186,0.6349009461700916 54.72679138183594,0.35646427422761917 54.72679138183594,0.35646427422761917 55.60291409492493,0.15884428285062313 55.60291409492493,0.15884428285062313 56.61632418632507,0.05877578514628112 56.61632418632507,0.05877578514628112 57.866936922073364,0.021972892864141613 57.866936922073364,0.021972892864141613 59.38231945037842,0.0029932114557595924 59.38231945037842,0.0029932114557595924 61.07933521270752,0.0014966057278797962 61.07933521270752,0.0014966057278797962 62.87485361099243,0.017415048205293715 62.87485361099243,0.017415048205293715 64.6858811378479,0.050476426258683205 64.6858811378479,0.050476426258683205 66.42943024635315,0.10040863417088985 66.42943024635315,0.10040863417088985 68.02236437797546,0.16714364755898714 68.02236437797546,0.16714364755898714 69.3815529346466,0.2503413241356611 69.3815529346466,0.2503413241356611 70.49516439437866,0.3700017463415861 70.49516439437866,0.3700017463415861 71.41720652580261,0.5349684972316027 71.41720652580261,0.5349684972316027 72.16333150863647,0.7284387946128845 72.16333150863647,0.7284387946128845 72.74918556213379,0.9338819421827793 72.74918556213379,0.9338819421827793 73.19055199623108,1.1343590915203094 73.19055199623108,1.1343590915203094 73.50320219993591,1.3132034800946712 73.50320219993591,1.3132034800946712 73.70272874832153,1.453680358827114 73.70272874832153,1.453680358827114 73.80497455596924,1.53905488550663 73.80497455596924,1.53905488550663 74.09123182296753,1.693069189786911 74.09123182296753,1.693069189786911 74.76307153701782,2.0171523094177246 74.76307153701782,2.0171523094177246 75.71613788604736,2.4606918916106224 75.71613788604736,2.4606918916106224 76.8460750579834,2.9736194759607315 76.8460750579834,2.9736194759607315 78.04873585700989,3.5051867365837097 78.04873585700989,3.5051867365837097 79.21969294548035,4.00518886744976 79.21969294548035,4.00518886744976 80.25473356246948,4.423150047659874 80.25473356246948,4.423150047659874 81.04963302612305,4.708593711256981 81.04963302612305,4.708593711256981 81.95930123329163,4.989003017544746 81.95930123329163,4.989003017544746 83.30488204956055,5.394583195447922 83.30488204956055,5.394583195447922 84.93128418922424,5.878939479589462 84.93128418922424,5.878939479589462 86.6834044456482,6.3956767320632935 86.6834044456482,6.3956767320632935 88.4061336517334,6.898535788059235 88.4061336517334,6.898535788059235 89.94436860084534,7.3412589728832245 89.94436860084534,7.3412589728832245 91.14301800727844,7.677382975816727 91.14301800727844,7.677382975816727 91.84696674346924,7.860717177391052 91.84696674346924,7.860717177391052 92.38295555114746,7.983846962451935 92.38295555114746,7.983846962451935 93.12424659729004,8.156773447990417 93.12424659729004,8.156773447990417 93.98554563522339,8.359087258577347 93.98554563522339,8.359087258577347 94.88153457641602,8.570380508899689 94.88153457641602,8.570380508899689 95.72691321372986,8.770177513360977 95.72691321372986,8.770177513360977 96.43637537956238,8.938273787498474 96.43637537956238,8.938273787498474 96.92460894584656,9.053988009691238 96.92460894584656,9.053988009691238 97.10630774497986,9.097185730934143 97.10630774497986,9.097185730934143 98.90005588531494,8.714054524898529 98.90005588531494,8.714054524898529" stroke="white" stroke-width="0.1" /><polygon points="4.620838165283203,22.087043523788452 4.620838165283203,22.087043523788452 5.642475560307503,17.094705998897552 5.642475560307503,17.094705998897552 3.2740291208028793,16.792868077754974 3.2740291208028793,16.792868077754974 3.232124075293541,17.00436621904373 3.232124075293541,17.00436621904373 3.121647424995899,17.561987042427063 3.121647424995899,17.561987042427063 2.965456247329712,18.350426852703094 2.965456247329712,18.350426852703094 2.786407619714737,19.25424039363861 2.786407619714737,19.25424039363861 2.607359178364277,20.157918334007263 2.607359178364277,20.157918334007263 2.4511680006980896,20.946356654167175 2.4511680006980896,20.946356654167175 2.340691350400448,21.50411456823349 2.340691350400448,21.50411456823349 2.2987863048911095,21.715544164180756 2.2987863048911095,21.715544164180756" stroke="white" stroke-width="0.1" /><polygon points="35.52669882774353,20.090094208717346 35.52669882774353,20.090094208717346 35.248059034347534,18.650496006011963 35.248059034347534,18.650496006011963 35.642820596694946,16.630350053310394 35.642820596694946,16.630350053310394 30.000346899032593,16.467764973640442 30.000346899032593,16.467764973640442 30.464768409729004,18.511176109313965 30.464768409729004,18.511176109313965 30.348646640777588,20.87962180376053 30.348646640777588,20.87962180376053" stroke="white" stroke-width="0.1" /><polygon points="61.64926886558533,23.61963540315628 61.64926886558533,23.61963540315628 62.19213008880615,23.604533076286316 62.19213008880615,23.604533076286316 62.69770860671997,23.561199009418488 62.69770860671997,23.561199009418488 63.15526366233826,23.49269539117813 63.15526366233826,23.49269539117813 63.55390548706055,23.40201586484909 63.55390548706055,23.40201586484909 63.88281583786011,23.29208254814148 63.88281583786011,23.29208254814148 64.13111686706543,23.16582351922989 64.13111686706543,23.16582351922989 64.28812742233276,23.0264350771904 64.28812742233276,23.0264350771904 64.34282064437866,22.876571118831635 64.34282064437866,22.876571118831635 64.28805589675903,22.726841270923615 64.28805589675903,22.726841270923615 64.13111686706543,22.58731722831726 64.13111686706543,22.58731722831726 63.88281583786011,22.46105819940567 63.88281583786011,22.46105819940567 63.553839921951294,22.35112637281418 63.553839921951294,22.35112637281418 63.15526366233826,22.26044535636902 63.15526366233826,22.26044535636902 62.6977801322937,22.19187319278717 62.6977801322937,22.19187319278717 62.1920645236969,22.148607671260834 62.1920645236969,22.148607671260834 61.64926886558533,22.13350534439087 61.64926886558533,22.13350534439087 61.10641360282898,22.148607671260834 61.10641360282898,22.148607671260834 60.600829124450684,22.19187319278717 60.600829124450684,22.19187319278717 60.143280029296875,22.26044535636902 60.143280029296875,22.26044535636902 59.744638204574585,22.35119342803955 59.744638204574585,22.35119342803955 59.41572189331055,22.46105819940567 59.41572189331055,22.46105819940567 59.167420864105225,22.587385773658752 59.167420864105225,22.587385773658752 59.01041626930237,22.726841270923615 59.01041626930237,22.726841270923615 58.95572304725647,22.876571118831635 58.95572304725647,22.876571118831635 59.01048183441162,23.026366531848907 59.01048183441162,23.026366531848907 59.167420864105225,23.16582351922989 59.167420864105225,23.16582351922989 59.41572189331055,23.29208254814148 59.41572189331055,23.29208254814148 59.74470376968384,23.40201586484909 59.74470376968384,23.40201586484909 60.143280029296875,23.49269539117813 60.143280029296875,23.49269539117813 60.60076355934143,23.56126755475998 60.60076355934143,23.56126755475998 61.10647916793823,23.604533076286316 61.10647916793823,23.604533076286316" stroke="white" stroke-width="0.1" /><polygon points="66.1075234413147,7.202959060668945 66.1075234413147,7.202959060668945 66.47888422012329,6.91758394241333 66.47888422012329,6.91758394241333 66.74902439117432,6.426560878753662 66.74902439117432,6.426560878753662 66.93201661109924,5.780911818146706 66.93201661109924,5.780911818146706 67.04215407371521,5.0318606197834015 67.04215407371521,5.0318606197834015 67.09351539611816,4.23063226044178 67.09351539611816,4.23063226044178 67.10017919540405,3.428247570991516 67.10017919540405,3.428247570991516 67.07643866539001,2.675998955965042 67.07643866539001,2.675998955965042 67.036372423172,2.0249074324965477 67.036372423172,2.0249074324965477 66.64997339248657,1.6457220539450645 66.64997339248657,1.6457220539450645 65.67840576171875,1.3831357471644878 65.67840576171875,1.3831357471644878 64.30370211601257,1.2168084271252155 64.30370211601257,1.2168084271252155 62.7075731754303,1.126399915665388 62.7075731754303,1.126399915665388 61.07199192047119,1.091705821454525 61.07199192047119,1.091705821454525 59.5789909362793,1.0924541391432285 59.5789909362793,1.0924541391432285 58.41047763824463,1.10850865021348 58.41047763824463,1.10850865021348 57.74829983711243,1.1193250305950642 57.74829983711243,1.1193250305950642 56.53148889541626,1.3951086439192295 56.53148889541626,1.3951086439192295 55.15822172164917,2.11388748139143 55.15822172164917,2.11388748139143 53.72664928436279,3.1277697533369064 53.72664928436279,3.1277697533369064 52.33507752418518,4.2889997363090515 52.33507752418518,4.2889997363090515 51.08180642127991,5.4495494812726974 51.08180642127991,5.4495494812726974 50.06499886512756,6.461459398269653 50.06499886512756,6.461459398269653 49.38281774520874,7.177108526229858 49.38281774520874,7.177108526229858 49.13363456726074,7.448538392782211 49.13363456726074,7.448538392782211 52.732765674591064,7.481599599123001 52.732765674591064,7.481599599123001 52.74711847305298,7.4279263615608215 52.74711847305298,7.4279263615608215 52.78677940368652,7.28241503238678 52.78677940368652,7.28241503238678 52.846646308898926,7.068944722414017 52.846646308898926,7.068944722414017 52.92147397994995,6.811120361089706 52.92147397994995,6.811120361089706 53.0060350894928,6.532547622919083 53.0060350894928,6.532547622919083 53.09521555900574,6.257172673940659 53.09521555900574,6.257172673940659 53.18392515182495,6.008259579539299 53.18392515182495,6.008259579539299 53.26685309410095,5.809755250811577 53.26685309410095,5.809755250811577 53.349435329437256,5.633972212672234 53.349435329437256,5.633972212672234 53.43984365463257,5.444039404392242 53.43984365463257,5.444039404392242 53.5374641418457,5.249752849340439 53.5374641418457,5.249752849340439 53.64127159118652,5.060840398073196 53.64127159118652,5.060840398073196 53.750526905059814,4.8872340470552444 53.750526905059814,4.8872340470552444 53.8644015789032,4.738729819655418 53.8644015789032,4.738729819655418 53.98209095001221,4.62498776614666 53.98209095001221,4.62498776614666 54.10277247428894,4.555871710181236 54.10277247428894,4.555871710181236 54.23787236213684,4.5250553637743 54.23787236213684,4.5250553637743 54.39113974571228,4.522878676652908 54.39113974571228,4.522878676652908 54.55052852630615,4.553830996155739 54.55052852630615,4.553830996155739 54.703593254089355,4.622606933116913 54.703593254089355,4.622606933116913 54.8381507396698,4.7338999807834625 54.8381507396698,4.7338999807834625 54.94195818901062,4.892199859023094 54.94195818901062,4.892199859023094 55.00277876853943,5.1022689789533615 55.00277876853943,5.1022689789533615 55.008357763290405,5.368596687912941 55.008357763290405,5.368596687912941 54.957401752471924,5.64914233982563 54.957401752471924,5.64914233982563 54.86651659011841,5.8975789695978165 54.86651659011841,5.8975789695978165 54.74998354911804,6.112273782491684 54.74998354911804,6.112273782491684 54.6222984790802,6.291594356298447 54.6222984790802,6.291594356298447 54.4979453086853,6.433907896280289 54.4979453086853,6.433907896280289 54.39121127128601,6.537581980228424 54.39121127128601,6.537581980228424 54.316580295562744,6.601051241159439 54.316580295562744,6.601051241159439 54.288554191589355,6.622480601072311 54.288554191589355,6.622480601072311 54.218894243240356,7.504865527153015 54.218894243240356,7.504865527153015 54.68304753303528,7.509967684745789 54.68304753303528,7.509967684745789 55.916452407836914,7.519695162773132 55.916452407836914,7.519695162773132 57.68054723739624,7.525681704282761 57.68054723739624,7.525681704282761 59.73653793334961,7.519355416297913 59.73653793334961,7.519355416297913 61.845868825912476,7.492280006408691 61.845868825912476,7.492280006408691 63.76989483833313,7.436293363571167 63.76989483833313,7.436293363571167 65.27003645896912,7.342619448900223 65.27003645896912,7.342619448900223" stroke="white" stroke-width="0.1" /><polygon points="83.21488499641418,18.587978184223175 83.21488499641418,18.587978184223175 83.07338356971741,19.991862773895264 83.07338356971741,19.991862773895264 82.66746401786804,21.299555897712708 82.66746401786804,21.299555897712708 82.025146484375,22.482691705226898 82.025146484375,22.482691705226898 81.17453455924988,23.513716459274292 81.17453455924988,23.513716459274292 80.14357686042786,24.364332854747772 80.14357686042786,24.364332854747772 78.9603054523468,25.006580352783203 78.9603054523468,25.006580352783203 77.6527464389801,25.412434339523315 77.6527464389801,25.412434339523315 76.24879479408264,25.553998351097107 76.24879479408264,25.553998351097107 74.84477758407593,25.41249990463257 74.84477758407593,25.41249990463257 73.53721857070923,25.006648898124695 73.53721857070923,25.006648898124695 72.35388159751892,24.364332854747772 72.35388159751892,24.364332854747772 71.3229238986969,23.513716459274292 71.3229238986969,23.513716459274292 70.47244310379028,22.482827305793762 70.47244310379028,22.482827305793762 69.83012557029724,21.299488842487335 69.83012557029724,21.299488842487335 69.42427158355713,19.991862773895264 69.42427158355713,19.991862773895264 69.28277611732483,18.587978184223175 69.28277611732483,18.587978184223175 69.42427158355713,17.184026539325714 69.42427158355713,17.184026539325714 69.83006000518799,15.876537561416626 69.83006000518799,15.876537561416626 70.47237157821655,14.693130552768707 70.47237157821655,14.693130552768707 71.3229238986969,13.662241399288177 71.3229238986969,13.662241399288177 72.35394716262817,12.811625003814697 72.35394716262817,12.811625003814697 73.53721857070923,12.169377505779266 73.53721857070923,12.169377505779266 74.84484314918518,11.763457208871841 74.84484314918518,11.763457208871841 76.24879479408264,11.621959507465363 76.24879479408264,11.621959507465363 77.65268087387085,11.763457208871841 77.65268087387085,11.763457208871841 78.9603054523468,12.169445306062698 78.9603054523468,12.169445306062698 80.14364242553711,12.811625003814697 80.14364242553711,12.811625003814697 81.17460012435913,13.662241399288177 81.17460012435913,13.662241399288177 82.02521800994873,14.693130552768707 82.02521800994873,14.693130552768707 82.66746401786804,15.876469016075134 82.66746401786804,15.876469016075134 83.07338356971741,17.184026539325714 83.07338356971741,17.184026539325714" stroke="white" stroke-width="0.1" /><polygon points="27.695709466934204,18.587978184223175 27.695709466934204,18.587978184223175 27.554211020469666,19.991862773895264 27.554211020469666,19.991862773895264 27.1482914686203,21.299555897712708 27.1482914686203,21.299555897712708 26.505976915359497,22.482691705226898 26.505976915359497,22.482691705226898 25.65542757511139,23.513716459274292 25.65542757511139,23.513716459274292 24.624469876289368,24.364332854747772 24.624469876289368,24.364332854747772 23.441198468208313,25.006580352783203 23.441198468208313,25.006580352783203 22.13357388973236,25.412434339523315 22.13357388973236,25.412434339523315 20.729689300060272,25.553998351097107 20.729689300060272,25.553998351097107 19.32573765516281,25.41249990463257 19.32573765516281,25.41249990463257 18.01818013191223,25.006648898124695 18.01818013191223,25.006648898124695 16.834908723831177,24.364332854747772 16.834908723831177,24.364332854747772 15.803952515125275,23.513716459274292 15.803952515125275,23.513716459274292 14.953404664993286,22.482827305793762 14.953404664993286,22.482827305793762 14.311088621616364,21.299488842487335 14.311088621616364,21.299488842487335 13.90523612499237,19.991862773895264 13.90523612499237,19.991862773895264 13.76367062330246,18.587978184223175 13.76367062330246,18.587978184223175 13.90523612499237,17.184026539325714 13.90523612499237,17.184026539325714 14.311088621616364,15.876537561416626 14.311088621616364,15.876537561416626 14.953404664993286,14.693130552768707 14.953404664993286,14.693130552768707 15.803952515125275,13.662241399288177 15.803952515125275,13.662241399288177 16.834908723831177,12.811625003814697 16.834908723831177,12.811625003814697 18.01818013191223,12.169377505779266 18.01818013191223,12.169377505779266 19.325806200504303,11.763457208871841 19.325806200504303,11.763457208871841 20.729689300060272,11.621959507465363 20.729689300060272,11.621959507465363 22.13350534439087,11.763457208871841 22.13350534439087,11.763457208871841 23.44113141298294,12.169445306062698 23.44113141298294,12.169445306062698 24.624469876289368,12.811625003814697 24.624469876289368,12.811625003814697 25.65542757511139,13.662241399288177 25.65542757511139,13.662241399288177 26.50604248046875,14.693130552768707 26.50604248046875,14.693130552768707 27.1482914686203,15.876469016075134 27.1482914686203,15.876469016075134 27.554211020469666,17.184026539325714 27.554211020469666,17.184026539325714" stroke="white" stroke-width="0.1" /></svg>