<?xml version="1.0" encoding="utf-8" ?>
<svg baseProfile="full" height="23.779191076755524" version="1.1" width="99.99986290931702" xmlns="http://www.w3.org/2000/svg" xmlns:ev="http://www.w3.org/2001/xml-events" xmlns:xlink="http://www.w3.org/1999/xlink"><defs><clipPath /></defs><polygon points="99.64610934257507,14.20951783657074 99.64610934257507,14.20951783657074 99.85418319702148,14.293557405471802 99.85418319702148,14.293557405471802 99.96495246887207,14.398624002933502 99.96495246887207,14.398624002933502 99.99986290931702,14.51454907655716 99.99986290931702,14.51454907655716 99.98034834861755,14.631709456443787 99.98034834861755,14.631709456443787 99.92784857749939,14.740005135536194 99.92784857749939,14.740005135536194 99.86380338668823,14.829543232917786 99.86380338668823,14.829543232917786 99.80965852737427,14.890632033348083 99.80965852737427,14.890632033348083 99.78684186935425,14.913170039653778 99.78684186935425,14.913170039653778 97.95734286308289,15.100696682929993 97.95734286308289,15.100696682929993 97.9400098323822,15.152165293693542 97.9400098323822,15.152165293693542 97.89124131202698,15.294407308101654 97.89124131202698,15.294407308101654 97.81583547592163,15.509763360023499 97.81583547592163,15.509763360023499 97.71862626075745,15.780504047870636 97.71862626075745,15.780504047870636 97.60443568229675,16.08862727880478 97.60443568229675,16.08862727880478 97.47808575630188,16.41640216112137 97.47808575630188,16.41640216112137 97.34439849853516,16.745828092098236 97.34439849853516,16.745828092098236 97.20820188522339,17.059309780597687 97.20820188522339,17.059309780597687 98.567134141922,17.059309780597687 98.567134141922,17.059309780597687 97.75792956352234,17.868509888648987 97.75792956352234,17.868509888648987 96.16701602935791,17.868509888648987 96.16701602935791,17.868509888648987 95.25193572044373,18.217863142490387 95.25193572044373,18.217863142490387 93.8254177570343,18.66348683834076 93.8254177570343,18.66348683834076 92.05595254898071,19.165250658988953 92.05595254898071,19.165250658988953 90.1120662689209,19.683164358139038 90.1120662689209,19.683164358139038 88.16226720809937,20.177507400512695 88.16226720809937,20.177507400512695 86.37507557868958,20.60801386833191 86.37507557868958,20.60801386833191 84.91896986961365,20.934896171092987 84.91896986961365,20.934896171092987 83.96249413490295,21.118229627609253 83.96249413490295,21.118229627609253 84.00380611419678,20.887206494808197 84.00380611419678,20.887206494808197 84.03992056846619,20.61474770307541 84.03992056846619,20.61474770307541 84.0707778930664,20.314252376556396 84.0707778930664,20.314252376556396 84.09623503684998,19.9988454580307 84.09623503684998,19.9988454580307 84.11621451377869,19.681788980960846 84.11621451377869,19.681788980960846 84.1306209564209,19.376415014266968 84.1306209564209,19.376415014266968 84.13933515548706,19.0959170460701 84.13933515548706,19.0959170460701 84.14225578308105,18.853624165058136 84.14225578308105,18.853624165058136 84.1113030910492,18.14028173685074 84.1113030910492,18.14028173685074 84.0201735496521,17.444051802158356 84.0201735496521,17.444051802158356 83.87148380279541,16.767334938049316 83.87148380279541,16.767334938049316 83.66786241531372,16.11267775297165 83.66786241531372,16.11267775297165 83.41190814971924,15.48282653093338 83.41190814971924,15.48282653093338 83.10623168945312,14.880049228668213 83.10623168945312,14.880049228668213 82.7534556388855,14.307163655757904 82.7534556388855,14.307163655757904 82.35619068145752,13.76657485961914 82.35619068145752,13.76657485961914 82.50592947006226,14.110429584980011 82.50592947006226,14.110429584980011 82.63769149780273,14.463354647159576 82.63769149780273,14.463354647159576 82.75086283683777,14.825007319450378 82.75086283683777,14.825007319450378 82.84482955932617,15.19470065832138 82.84482955932617,15.19470065832138 82.91898369789124,15.571881830692291 82.91898369789124,15.571881830692291 82.97269940376282,15.956005454063416 82.97269940376282,15.956005454063416 83.00538659095764,16.34638160467148 83.00538659095764,16.34638160467148 83.01641345024109,16.7426660656929 83.01641345024109,16.7426660656929 83.01218748092651,16.986264288425446 83.01218748092651,16.986264288425446 82.99964666366577,17.22780168056488 82.99964666366577,17.22780168056488 82.97896385192871,17.46707111597061 82.97896385192871,17.46707111597061 82.95031189918518,17.703866958618164 82.95031189918518,17.703866958618164 82.91388154029846,17.93832629919052 82.91388154029846,17.93832629919052 82.8698456287384,18.170173466205597 82.8698456287384,18.170173466205597 82.81838893890381,18.399204313755035 82.81838893890381,18.399204313755035 82.759690284729,18.62548589706421 82.759690284729,18.62548589706421 82.36454129219055,19.70006823539734 82.36454129219055,19.70006823539734 81.80763125419617,20.68435698747635 81.80763125419617,20.68435698747635 81.10523223876953,21.56199812889099 81.10523223876953,21.56199812889099 80.2735984325409,22.316637635231018 80.2735984325409,22.316637635231018 79.3289840221405,22.932058572769165 79.3289840221405,22.932058572769165 78.28766107559204,23.39170128107071 78.28766107559204,23.39170128107071 77.16587781906128,23.679621517658234 77.16587781906128,23.679621517658234 75.97988843917847,23.779191076755524 75.97988843917847,23.779191076755524 74.92045760154724,23.699891567230225 74.92045760154724,23.699891567230225 73.91056418418884,23.46983104944229 73.91056418418884,23.46983104944229 72.96172380447388,23.100413382053375 72.96172380447388,23.100413382053375 72.0854103565216,22.60318398475647 72.0854103565216,22.60318398475647 71.29312753677368,21.989823877811432 71.29312753677368,21.989823877811432 70.59637308120728,21.271809935569763 70.59637308120728,21.271809935569763 70.00663876533508,20.460617542266846 70.00663876533508,20.460617542266846 69.53542232513428,19.567857682704926 69.53542232513428,19.567857682704926 69.40091848373413,19.2393958568573 69.40091848373413,19.2393958568573 69.28266286849976,18.902961909770966 69.28266286849976,18.902961909770966 69.18115615844727,18.558968603610992 69.18115615844727,18.558968603610992 69.0969467163086,18.20789873600006 69.0969467163086,18.20789873600006 69.03054118156433,17.850232124328613 69.03054118156433,17.850232124328613 68.98245811462402,17.486517131328583 68.98245811462402,17.486517131328583 68.95322799682617,17.117169499397278 68.95322799682617,17.117169499397278 68.94336342811584,16.7426660656929 68.94336342811584,16.7426660656929 68.95005106925964,16.434474289417267 68.95005106925964,16.434474289417267 68.96989345550537,16.129787266254425 68.96989345550537,16.129787266254425 69.00259256362915,15.828743577003479 69.00259256362915,15.828743577003479 69.04785633087158,15.531614422798157 69.04785633087158,15.531614422798157 69.10537481307983,15.238747000694275 69.10537481307983,15.238747000694275 69.1748559474945,14.950276911258698 69.1748559474945,14.950276911258698 69.25597190856934,14.666685461997986 69.25597190856934,14.666685461997986 69.34844851493835,14.387904107570648 69.34844851493835,14.387904107570648 69.06651258468628,14.880941808223724 69.06651258468628,14.880941808223724 68.81784200668335,15.395694971084595 68.81784200668335,15.395694971084595 68.60374808311462,15.93085527420044 68.60374808311462,15.93085527420044 68.42560172080994,16.484500467777252 68.42560172080994,16.484500467777252 68.28470826148987,17.05525517463684 68.28470826148987,17.05525517463684 68.18241477012634,17.641404271125793 68.18241477012634,17.641404271125793 68.12006831169128,18.241363763809204 68.12006831169128,18.241363763809204 68.09898614883423,18.853624165058136 68.09898614883423,18.853624165058136 68.10534000396729,19.25753653049469 68.10534000396729,19.25753653049469 68.12208890914917,19.75531578063965 68.12208890914917,19.75531578063965 68.14577579498291,20.301608741283417 68.14577579498291,20.301608741283417 68.17291975021362,20.850512385368347 68.17291975021362,20.850512385368347 68.20007562637329,21.356812119483948 68.20007562637329,21.356812119483948 68.22375655174255,21.774743497371674 68.22375655174255,21.774743497371674 68.24051141738892,22.05902189016342 68.24051141738892,22.05902189016342 68.2468593120575,22.163812816143036 68.2468593120575,22.163812816143036 27.98529863357544,22.15941548347473 27.98529863357544,22.15941548347473 27.98856496810913,22.063350677490234 27.98856496810913,22.063350677490234 27.997153997421265,21.800649166107178 27.997153997421265,21.800649166107178 28.009307384490967,21.4092418551445 28.009307384490967,21.4092418551445 28.023231029510498,20.927199721336365 28.023231029510498,20.927199721336365 28.037145733833313,20.392587780952454 28.037145733833313,20.392587780952454 28.04930806159973,19.843409955501556 28.04930806159973,19.843409955501556 28.05790603160858,19.317731261253357 28.05790603160858,19.317731261253357 28.061163425445557,18.853624165058136 28.061163425445557,18.853624165058136 28.03020477294922,18.14028173685074 28.03020477294922,18.14028173685074 27.939072251319885,17.444051802158356 27.939072251319885,17.444051802158356 27.790385484695435,16.767334938049316 27.790385484695435,16.767334938049316 27.586764097213745,16.11267775297165 27.586764097213745,16.11267775297165 27.330797910690308,15.48282653093338 27.330797910690308,15.48282653093338 27.02513039112091,14.880049228668213 27.02513039112091,14.880049228668213 26.672351360321045,14.307163655757904 26.672351360321045,14.307163655757904 26.275095343589783,13.76657485961914 26.275095343589783,13.76657485961914 26.424843072891235,14.110429584980011 26.424843072891235,14.110429584980011 26.55659019947052,14.463354647159576 26.55659019947052,14.463354647159576 26.669764518737793,14.825007319450378 26.669764518737793,14.825007319450378 26.763734221458435,15.19470065832138 26.763734221458435,15.19470065832138 26.837879419326782,15.571881830692291 26.837879419326782,15.571881830692291 26.89160704612732,15.956005454063416 26.89160704612732,15.956005454063416 26.924291253089905,16.34638160467148 26.924291253089905,16.34638160467148 26.935318112373352,16.7426660656929 26.935318112373352,16.7426660656929 26.918911933898926,17.225946485996246 26.918911933898926,17.225946485996246 26.870417594909668,17.700430750846863 26.870417594909668,17.700430750846863 26.790937781333923,18.165089190006256 26.790937781333923,18.165089190006256 26.68156623840332,18.61875206232071 26.68156623840332,18.61875206232071 26.54338777065277,19.06045824289322 26.54338777065277,19.06045824289322 26.37750804424286,19.489246606826782 26.37750804424286,19.489246606826782 26.18499994277954,19.904017448425293 26.18499994277954,19.904017448425293 25.96697211265564,20.303669571876526 25.96697211265564,20.303669571876526 25.461265444755554,21.049925684928894 25.461265444755554,21.049925684928894 24.866707623004913,21.72389328479767 24.866707623004913,21.72389328479767 24.191607534885406,22.317050397396088 24.191607534885406,22.317050397396088 23.444285988807678,22.821082174777985 23.444285988807678,22.821082174777985 22.633032500743866,23.227743804454803 22.633032500743866,23.227743804454803 21.766161918640137,23.52844476699829 21.766161918640137,23.52844476699829 20.851989090442657,23.715078830718994 20.851989090442657,23.715078830718994 19.89879459142685,23.779191076755524 19.89879459142685,23.779191076755524 18.659749627113342,23.670412600040436 18.659749627113342,23.670412600040436 17.491696774959564,23.356586694717407 17.491696774959564,23.356586694717407 16.413259506225586,22.85633385181427 16.413259506225586,22.85633385181427 15.443040430545807,22.188276052474976 15.443040430545807,22.188276052474976 14.599688351154327,21.371173858642578 14.599688351154327,21.371173858642578 13.901816308498383,20.42364776134491 13.901816308498383,20.42364776134491 13.368046283721924,19.364389777183533 13.368046283721924,19.364389777183533 13.017019629478455,18.211953341960907 13.017019629478455,18.211953341960907 12.981441617012024,18.033428490161896 12.981441617012024,18.033428490161896 12.950338423252106,17.853255569934845 12.950338423252106,17.853255569934845 12.923789024353027,17.67163872718811 12.923789024353027,17.67163872718811 12.901867926120758,17.48857945203781 12.901867926120758,17.48857945203781 12.884671986103058,17.30407625436783 12.884671986103058,17.30407625436783 12.872277200222015,17.118267714977264 12.872277200222015,17.118267714977264 12.864796817302704,16.931016743183136 12.864796817302704,16.931016743183136 12.862271070480347,16.7426660656929 12.862271070480347,16.7426660656929 12.87330836057663,16.34638160467148 12.87330836057663,16.34638160467148 12.905974686145782,15.955936908721924 12.905974686145782,15.955936908721924 12.95970231294632,15.571881830692291 12.95970231294632,15.571881830692291 13.033854961395264,15.19463062286377 13.033854961395264,15.19463062286377 13.12781572341919,14.825007319450378 13.12781572341919,14.825007319450378 13.240991532802582,14.463354647159576 13.240991532802582,14.463354647159576 13.37275356054306,14.110429584980011 13.37275356054306,14.110429584980011 13.522495329380035,13.76657485961914 13.522495329380035,13.76657485961914 13.125230371952057,14.307232201099396 13.125230371952057,14.307232201099396 12.772449851036072,14.880049228668213 12.772449851036072,14.880049228668213 12.46679276227951,15.48282653093338 12.46679276227951,15.48282653093338 12.210825830698013,16.11274629831314 12.210825830698013,16.11274629831314 12.007202953100204,16.767266392707825 12.007202953100204,16.767266392707825 11.858509480953217,17.444120347499847 11.858509480953217,17.444120347499847 11.76738366484642,18.14028173685074 11.76738366484642,18.14028173685074 11.736427247524261,18.853624165058136 11.736427247524261,18.853624165058136 11.740189045667648,19.100038707256317 11.740189045667648,19.100038707256317 11.751347035169601,19.344668090343475 11.751347035169601,19.344668090343475 11.76978051662445,19.587373733520508 11.76978051662445,19.587373733520508 11.795316636562347,19.82801705598831 11.795316636562347,19.82801705598831 11.827810853719711,20.066531002521515 11.827810853719711,20.066531002521515 11.867116391658783,20.302845537662506 11.867116391658783,20.302845537662506 11.913061887025833,20.536960661411285 11.913061887025833,20.536960661411285 11.965526640415192,20.768602192401886 11.965526640415192,20.768602192401886 11.965526640415192,22.365769743919373 11.965526640415192,22.365769743919373 4.033494740724564,22.365769743919373 4.033494740724564,22.365769743919373 0.0,21.75598293542862 0.0,21.75598293542862 1.8764292821288109,20.3017458319664 1.8764292821288109,20.3017458319664 2.4393511936068535,17.29947328567505 2.4393511936068535,17.29947328567505 2.4393511936068535,14.756910502910614 2.4393511936068535,14.756910502910614 2.3575447499752045,14.666342735290527 2.3575447499752045,14.666342735290527 2.2789249196648598,14.57659900188446 2.2789249196648598,14.57659900188446 2.204565703868866,14.488023519515991 2.204565703868866,14.488023519515991 2.1354544907808304,14.400549232959747 2.1354544907808304,14.400549232959747 2.072630822658539,14.314791560173035 2.072630822658539,14.314791560173035 2.017134055495262,14.230820536613464 2.017134055495262,14.230820536613464 1.969960331916809,14.148704707622528 1.969960331916809,14.148704707622528 1.9321579486131668,14.068786799907684 1.9321579486131668,14.068786799907684 1.8990712240338326,13.876932859420776 1.8990712240338326,13.876932859420776 1.9578061997890472,13.72135877609253 1.9578061997890472,13.72135877609253 2.0814092829823494,13.598769903182983 2.0814092829823494,13.598769903182983 2.2429434582591057,13.505865633487701 2.2429434582591057,13.505865633487701 2.415481023490429,13.439348340034485 2.415481023490429,13.439348340034485 2.572067640721798,13.395850360393524 2.572067640721798,13.395850360393524 2.6857927441596985,13.372281193733215 2.6857927441596985,13.372281193733215 2.729676477611065,13.365134596824646 2.729676477611065,13.365134596824646 2.758708968758583,13.35269808769226 2.758708968758583,13.35269808769226 2.8437623754143715,13.31634670495987 2.8437623754143715,13.31634670495987 2.9818128794431686,13.257525861263275 2.9818128794431686,13.257525861263275 3.1697943806648254,13.177540898323059 3.1697943806648254,13.177540898323059 3.4046486020088196,13.077832758426666 3.4046486020088196,13.077832758426666 3.6833520978689194,12.959916889667511 3.6833520978689194,12.959916889667511 4.002813249826431,12.825095653533936 4.002813249826431,12.825095653533936 4.360033571720123,12.67467588186264 4.360033571720123,12.67467588186264 4.3453797698020935,12.328828126192093 4.3453797698020935,12.328828126192093 4.322068020701408,11.943674832582474 4.322068020701408,11.943674832582474 4.288027808070183,11.54099851846695 4.288027808070183,11.54099851846695 4.2412493377923965,11.142445355653763 4.2412493377923965,11.142445355653763 4.1797056794166565,10.769935697317123 4.1797056794166565,10.769935697317123 4.10136915743351,10.445114970207214 4.10136915743351,10.445114970207214 4.004187509417534,10.18969714641571 4.004187509417534,10.18969714641571 3.8861677050590515,10.02553477883339 3.8861677050590515,10.02553477883339 3.767477720975876,9.887140989303589 3.767477720975876,9.887140989303589 3.757033124566078,9.783104807138443 3.757033124566078,9.783104807138443 3.8263246417045593,9.708547592163086 3.8263246417045593,9.708547592163086 3.9468955248594284,9.658590704202652 3.9468955248594284,9.658590704202652 4.090237244963646,9.628356248140335 4.090237244963646,9.628356248140335 4.227892681956291,9.612757712602615 4.227892681956291,9.612757712602615 4.331370443105698,9.606985002756119 4.331370443105698,9.606985002756119 4.372196272015572,9.60622951388359 4.372196272015572,9.60622951388359 8.822660148143768,10.834597796201706 8.822660148143768,10.834597796201706 9.533295780420303,10.54915115237236 9.533295780420303,10.54915115237236 10.248982161283493,10.264254361391068 10.248982161283493,10.264254361391068 10.963784158229828,9.982655942440033 10.963784158229828,9.982655942440033 11.671748012304306,9.707172960042953 11.671748012304306,9.707172960042953 12.366931140422821,9.440554678440094 12.366931140422821,9.440554678440094 13.04340660572052,9.185618162155151 13.04340660572052,9.185618162155151 13.695220649242401,8.944699913263321 13.695220649242401,8.944699913263321 14.316439628601074,8.72102901339531 14.316439628601074,8.72102901339531 14.860464632511139,8.539481461048126 14.860464632511139,8.539481461048126 15.422219038009644,8.373738080263138 15.422219038009644,8.373738080263138 15.999674797058105,8.223044127225876 15.999674797058105,8.223044127225876 16.59081280231476,8.086642622947693 16.59081280231476,8.086642622947693 17.193615436553955,7.963778078556061 17.193615436553955,7.963778078556061 17.80606508255005,7.853901386260986 17.80606508255005,7.853901386260986 18.42612326145172,7.756118476390839 18.42612326145172,7.756118476390839 19.051800668239594,7.669742405414581 19.051800668239594,7.669742405414581 19.760949909687042,6.686072051525116 19.760949909687042,6.686072051525116 19.91088092327118,6.664013862609863 19.91088092327118,6.664013862609863 20.329344272613525,6.60608634352684 20.329344272613525,6.60608634352684 20.969338715076447,6.524039804935455 20.969338715076447,6.524039804935455 21.78388237953186,6.430035829544067 21.78388237953186,6.430035829544067 22.725962102413177,6.336032599210739 22.725962102413177,6.336032599210739 23.748576641082764,6.2539853155612946 23.748576641082764,6.2539853155612946 24.80476051568985,6.19598925113678 24.80476051568985,6.19598925113678 25.847473740577698,6.173999980092049 25.847473740577698,6.173999980092049 27.191045880317688,6.197500973939896 27.191045880317688,6.197500973939896 29.040348529815674,6.259483098983765 29.040348529815674,6.259483098983765 31.184297800064087,6.347164511680603 31.184297800064087,6.347164511680603 33.41180682182312,6.447627395391464 33.41180682182312,6.447627395391464 35.511770844459534,6.548090279102325 35.511770844459534,6.548090279102325 37.27310001850128,6.635703146457672 37.27310001850128,6.635703146457672 38.48470151424408,6.697753816843033 38.48470151424408,6.697753816843033 38.935476541519165,6.72125443816185 38.935476541519165,6.72125443816185 38.81618678569794,7.138773053884506 38.81618678569794,7.138773053884506 39.90574777126312,7.118570804595947 39.90574777126312,7.118570804595947 40.925297141075134,7.098093628883362 40.925297141075134,7.098093628883362 41.854485869407654,7.077616453170776 41.854485869407654,7.077616453170776 42.67294406890869,7.057413458824158 42.67294406890869,7.057413458824158 43.36036145687103,7.037829607725143 43.36036145687103,7.037829607725143 43.89635622501373,7.0191390812397 43.89635622501373,7.0191390812397 44.260621070861816,7.0015475153923035 44.260621070861816,7.0015475153923035 44.43276226520538,6.985330581665039 44.43276226520538,6.985330581665039 44.866129755973816,6.724690645933151 44.866129755973816,6.724690645933151 45.76237499713898,6.087486445903778 45.76237499713898,6.087486445903778 46.99064791202545,5.185313522815704 46.99064791202545,5.185313522815704 48.42013120651245,4.129628837108612 48.42013120651245,4.129628837108612 49.91998076438904,3.032301925122738 49.91998076438904,3.032301925122738 51.359355449676514,2.0047908648848534 51.359355449676514,2.0047908648848534 52.60744094848633,1.1586213484406471 52.60744094848633,1.1586213484406471 53.53338122367859,0.6054571364074945 53.53338122367859,0.6054571364074945 54.59986925125122,0.3008388914167881 54.59986925125122,0.3008388914167881 56.24246001243591,0.11214460246264935 56.24246001243591,0.11214460246264935 58.28964710235596,0.019171778694726527 58.28964710235596,0.019171778694726527 60.569918155670166,0.0015804693248355761 60.569918155670166,0.0015804693248355761 62.911754846572876,0.03889328509103507 62.911754846572876,0.03889328509103507 65.14365077018738,0.11077027302235365 65.14365077018738,0.11077027302235365 67.09408164024353,0.19700892735272646 67.09408164024353,0.19700892735272646 68.59154105186462,0.2772005507722497 68.59154105186462,0.2772005507722497 69.70739364624023,0.35849164705723524 69.70739364624023,0.35849164705723524 70.64018249511719,0.4619093146175146 70.64018249511719,0.4619093146175146 71.4091420173645,0.58717867359519 71.4091420173645,0.58717867359519 72.03352451324463,0.7344371639192104 72.03352451324463,0.7344371639192104 72.53257632255554,0.9038222953677177 72.53257632255554,0.9038222953677177 72.9255199432373,1.0951277799904346 72.9255199432373,1.0951277799904346 73.23161959648132,1.3084223493933678 73.23161959648132,1.3084223493933678 73.47010374069214,1.5437748283147812 73.47010374069214,1.5437748283147812 73.93114566802979,1.8652286380529404 73.93114566802979,1.8652286380529404 74.8187780380249,2.31263879686594 74.8187780380249,2.31263879686594 76.02306008338928,2.8491050004959106 76.02306008338928,2.8491050004959106 77.43404507637024,3.4377265721559525 77.43404507637024,3.4377265721559525 78.94177436828613,4.041809588670731 78.94177436828613,4.041809588670731 80.43631315231323,4.624384269118309 80.43631315231323,4.624384269118309 81.80773258209229,5.14882504940033 81.80773258209229,5.14882504940033 82.94605016708374,5.578025802969933 82.94605016708374,5.578025802969933 83.65756273269653,5.824853852391243 83.65756273269653,5.824853852391243 84.59001183509827,6.118271127343178 84.59001183509827,6.118271127343178 85.69948673248291,6.4470089972019196 85.69948673248291,6.4470089972019196 86.94202303886414,6.800071895122528 86.94202303886414,6.800071895122528 88.27371001243591,7.166259735822678 88.27371001243591,7.166259735822678 89.65057134628296,7.534509152173996 89.65057134628296,7.534509152173996 91.02869033813477,7.893550395965576 91.02869033813477,7.893550395965576 92.36413240432739,8.232320845127106 92.36413240432739,8.232320845127106 93.0654525756836,4.725809022784233 93.0654525756836,4.725809022784233 91.31003022193909,4.688221588730812 91.31003022193909,4.688221588730812 91.24072194099426,4.67970073223114 91.24072194099426,4.67970073223114 91.17871522903442,4.6579863876104355 91.17871522903442,4.6579863876104355 91.12516045570374,4.6248652040958405 91.12516045570374,4.6248652040958405 91.08123183250427,4.581436887383461 91.08123183250427,4.581436887383461 91.04810357093811,4.529281333088875 91.04810357093811,4.529281333088875 91.02692604064941,4.469979181885719 91.02692604064941,4.469979181885719 91.01887941360474,4.404767602682114 91.01887941360474,4.404767602682114 91.02513194084167,4.335227236151695 91.02513194084167,4.335227236151695 91.23973250389099,3.226424753665924 91.23973250389099,3.226424753665924 91.97351932525635,2.9579512774944305 91.97351932525635,2.9579512774944305 92.55077242851257,2.763141319155693 92.55077242851257,2.763141319155693 93.02033185958862,2.625846490263939 93.02033185958862,2.625846490263939 93.43100786209106,2.5300564244389534 93.43100786209106,2.5300564244389534 93.83165240287781,2.459828555583954 93.83165240287781,2.459828555583954 94.27108764648438,2.398946136236191 94.27108764648438,2.398946136236191 94.79814171791077,2.331535704433918 94.79814171791077,2.331535704433918 95.46164870262146,2.2413115948438644 95.46164870262146,2.2413115948438644 96.12535238265991,2.1456588059663773 96.12535238265991,2.1456588059663773 96.65491580963135,2.06539835780859 96.65491580963135,2.06539835780859 97.0745325088501,1.9938649609684944 97.0745325088501,1.9938649609684944 97.40839004516602,1.9245991483330727 97.40839004516602,1.9245991483330727 97.68067598342896,1.8509356305003166 97.68067598342896,1.8509356305003166 97.91560173034668,1.766277477145195 97.91560173034668,1.766277477145195 98.13733100891113,1.664096675813198 98.13733100891113,1.664096675813198 98.37005138397217,1.5376591123640537 98.37005138397217,1.5376591123640537 98.56939315795898,1.5097604133188725 98.56939315795898,1.5097604133188725 98.68629574775696,1.6698000952601433 98.68629574775696,1.6698000952601433 98.7379789352417,1.960812509059906 98.7379789352417,1.960812509059906 98.74165058135986,2.3262444883584976 98.74165058135986,2.3262444883584976 98.71454238891602,2.7091991156339645 98.71454238891602,2.7091991156339645 98.67386221885681,3.0531229451298714 98.67386221885681,3.0531229451298714 98.63682985305786,3.301050513982773 98.63682985305786,3.301050513982773 98.6206591129303,3.3962909132242203 98.6206591129303,3.3962909132242203 98.60305190086365,3.4709852188825607 98.60305190086365,3.4709852188825607 98.57702851295471,3.5507645457983017 98.57702851295471,3.5507645457983017 98.5438346862793,3.633017838001251 98.5438346862793,3.633017838001251 98.50475788116455,3.7153396755456924 98.50475788116455,3.7153396755456924 98.46102595329285,3.79539392888546 98.46102595329285,3.79539392888546 98.41391444206238,3.8706377148628235 98.41391444206238,3.8706377148628235 98.36465716362,3.9385292679071426 98.36465716362,3.9385292679071426 98.31452965736389,3.9966631680727005 98.31452965736389,3.9966631680727005 97.76885509490967,4.567143693566322 97.76885509490967,4.567143693566322 97.71283864974976,4.618062451481819 97.71283864974976,4.618062451481819 97.6466953754425,4.6652015298604965 97.6466953754425,4.6652015298604965 97.5728690624237,4.707736894488335 97.5728690624237,4.707736894488335 97.49380350112915,4.744431376457214 97.49380350112915,4.744431376457214 97.41193652153015,4.774391278624535 97.41193652153015,4.774391278624535 97.32969999313354,4.796655476093292 97.32969999313354,4.796655476093292 97.24955558776855,4.810192435979843 97.24955558776855,4.810192435979843 97.1739113330841,4.8138342797756195 97.1739113330841,4.8138342797756195 95.6484854221344,4.781125485897064 95.6484854221344,4.781125485897064 94.83880400657654,8.829394727945328 94.83880400657654,8.829394727945328 95.24780511856079,8.922161161899567 95.24780511856079,8.922161161899567 95.62253952026367,9.00455191731453 95.62253952026367,9.00455191731453 95.95978856086731,9.075810015201569 95.95978856086731,9.075810015201569 96.25638127326965,9.135249257087708 96.25638127326965,9.135249257087708 96.50912284851074,9.1817706823349 96.50912284851074,9.1817706823349 96.7147946357727,9.214891493320465 96.7147946357727,9.214891493320465 96.87023758888245,9.233513474464417 96.87023758888245,9.233513474464417 96.9722330570221,9.23701822757721 96.9722330570221,9.23701822757721 97.2798228263855,9.209463000297546 97.2798228263855,9.209463000297546 97.59454131126404,9.165965765714645 97.59454131126404,9.165965765714645 97.90156483650208,9.11257341504097 97.90156483650208,9.11257341504097 98.18605184555054,9.055195748806 98.18605184555054,9.055195748806 98.43315482139587,9.000153839588165 98.43315482139587,9.000153839588165 98.62801432609558,8.953358232975006 98.62801432609558,8.953358232975006 98.75582456588745,8.920786529779434 98.75582456588745,8.920786529779434 98.80172610282898,8.908555656671524 98.80172610282898,8.908555656671524 98.799067735672,8.966963738203049 98.799067735672,8.966963738203049 98.78925681114197,9.129202365875244 98.78925681114197,9.129202365875244 98.76954555511475,9.376099705696106 98.76954555511475,9.376099705696106 98.73718619346619,9.688550978899002 98.73718619346619,9.688550978899002 98.68944883346558,10.047043114900589 98.68944883346558,10.047043114900589 98.62356781959534,10.432471334934235 98.62356781959534,10.432471334934235 98.53679537773132,10.825664550065994 98.53679537773132,10.825664550065994 98.42640161514282,11.207244545221329 98.42640161514282,11.207244545221329 98.31600785255432,11.606965959072113 98.31600785255432,11.606965959072113 98.22924733161926,12.047985941171646 98.22924733161926,12.047985941171646 98.16336631774902,12.501031160354614 98.16336631774902,12.501031160354614 98.11561703681946,12.93710321187973 98.11561703681946,12.93710321187973 98.08326959609985,13.32692950963974 98.08326959609985,13.32692950963974 98.06354641914368,13.641442358493805 98.06354641914368,13.641442358493805 98.05373549461365,13.851575553417206 98.05373549461365,13.851575553417206 98.05107712745667,13.928057253360748 98.05107712745667,13.928057253360748 98.09074997901917,13.932454586029053 98.09074997901917,13.932454586029053 98.2013463973999,13.945648074150085 98.2013463973999,13.945648074150085 98.37021827697754,13.967637717723846 98.37021827697754,13.967637717723846 98.58472347259521,13.998422026634216 98.58472347259521,13.998422026634216 98.83221387863159,14.038002490997314 98.83221387863159,14.038002490997314 99.10003542900085,14.08631056547165 99.10003542900085,14.08631056547165 99.37555193901062,14.143550395965576 99.37555193901062,14.143550395965576" stroke="white" stroke-width="0.1" /><polygon points="93.06442141532898,8.319452404975891 93.06442141532898,8.319452404975891 94.22311186790466,8.319452404975891 94.22311186790466,8.319452404975891 94.92676258087158,4.8010531812906265 94.92676258087158,4.8010531812906265 93.7680721282959,4.8010531812906265 93.7680721282959,4.8010531812906265" stroke="white" stroke-width="0.1" /><polygon points="65.988028049469,6.961898505687714 65.988028049469,6.961898505687714 66.25354290008545,6.759048253297806 66.25354290008545,6.759048253297806 66.4497971534729,6.408321857452393 66.4497971534729,6.408321857452393 66.58667922019958,5.939609557390213 66.58667922019958,5.939609557390213 66.6740894317627,5.383078381419182 66.6740894317627,5.383078381419182 66.72191619873047,4.768825322389603 66.72191619873047,4.768825322389603 66.74005389213562,4.126879945397377 66.74005389213562,4.126879945397377 66.73840284347534,3.487545996904373 66.73840284347534,3.487545996904373 66.72686338424683,2.88071446120739 66.72686338424683,2.88071446120739 66.71510934829712,2.364656887948513 66.71510934829712,2.364656887948513 66.69222712516785,1.965416595339775 66.69222712516785,1.965416595339775 66.63718819618225,1.6642341390252113 66.63718819618225,1.6642341390252113 66.5289580821991,1.4426248148083687 66.5289580821991,1.4426248148083687 66.34652018547058,1.2820353731513023 66.34652018547058,1.2820353731513023 66.06883406639099,1.1638438329100609 66.06883406639099,1.1638438329100609 65.674889087677,1.0697027668356895 65.674889087677,1.0697027668356895 65.1436448097229,0.9808529168367386 65.1436448097229,0.9808529168367386 64.31465148925781,0.9176341816782951 64.31465148925781,0.9176341816782951 63.136035203933716,0.9044406935572624 63.136035203933716,0.9044406935572624 61.749619245529175,0.9282851591706276 61.749619245529175,0.9282851591706276 60.29723882675171,0.9764551185071468 60.29723882675171,0.9764551185071468 58.92071723937988,1.0361693799495697 58.92071723937988,1.0361693799495697 57.761889696121216,1.0945780202746391 57.761889696121216,1.0945780202746391 56.962573528289795,1.1391060426831245 56.962573528289795,1.1391060426831245 56.66463375091553,1.1567660607397556 56.66463375091553,1.1567660607397556 56.080955266952515,1.49910943582654 56.080955266952515,1.49910943582654 55.15508055686951,2.2265376523137093 55.15508055686951,2.2265376523137093 54.01645302772522,3.206291049718857 54.01645302772522,3.206291049718857 52.79454588890076,4.305610433220863 52.79454588890076,4.305610433220863 51.61881446838379,5.391736328601837 51.61881446838379,5.391736328601837 50.618720054626465,6.33184090256691 50.618720054626465,6.33184090256691 49.923714995384216,6.99337050318718 49.923714995384216,6.99337050318718 49.66329038143158,7.243359088897705 49.66329038143158,7.243359088897705 50.02714395523071,7.3317281901836395 50.02714395523071,7.3317281901836395 50.377386808395386,7.389587163925171 50.377386808395386,7.389587163925171 50.71031451225281,7.422707974910736 50.71031451225281,7.422707974910736 51.02221965789795,7.436863332986832 51.02221965789795,7.436863332986832 51.309382915496826,7.437825947999954 51.309382915496826,7.437825947999954 51.56810283660889,7.43129774928093 51.56810283660889,7.43129774928093 51.79464817047119,7.423257827758789 51.79464817047119,7.423257827758789 51.9853413105011,7.4192725121974945 51.9853413105011,7.4192725121974945 52.14084982872009,7.406491041183472 52.14084982872009,7.406491041183472 52.26625204086304,7.369796931743622 52.26625204086304,7.369796931743622 52.36445069313049,7.311663031578064 52.36445069313049,7.311663031578064 52.438318729400635,7.2345636785030365 52.438318729400635,7.2345636785030365 52.490752935409546,7.140972465276718 52.490752935409546,7.140972465276718 52.5246262550354,7.033294439315796 52.5246262550354,7.033294439315796 52.542829513549805,6.914209574460983 52.542829513549805,6.914209574460983 52.54826545715332,6.785985082387924 52.54826545715332,6.785985082387924 52.556443214416504,6.634259968996048 52.556443214416504,6.634259968996048 52.58070230484009,6.450100988149643 52.58070230484009,6.450100988149643 52.620625495910645,6.243609264492989 52.620625495910645,6.243609264492989 52.675801515579224,6.025160849094391 52.675801515579224,6.025160849094391 52.74582505226135,5.805063620209694 52.74582505226135,5.805063620209694 52.8302788734436,5.593555420637131 52.8302788734436,5.593555420637131 52.92873978614807,5.40115050971508 52.92873978614807,5.40115050971508 53.040820360183716,5.237950012087822 53.040820360183716,5.237950012087822 53.155237436294556,5.096806958317757 53.155237436294556,5.096806958317757 53.26346158981323,4.966384172439575 53.26346158981323,4.966384172439575 53.36921811103821,4.850803688168526 53.36921811103821,4.850803688168526 53.476208448410034,4.754189029335976 53.476208448410034,4.754189029335976 53.58814597129822,4.680662602186203 53.58814597129822,4.680662602186203 53.708744049072266,4.634279385209084 53.708744049072266,4.634279385209084 53.84169816970825,4.61936816573143 53.84169816970825,4.61936816573143 53.99075150489807,4.6398453414440155 53.99075150489807,4.6398453414440155 54.12811636924744,4.723816365003586 54.12811636924744,4.723816365003586 54.225486516952515,4.883375018835068 54.225486516952515,4.883375018835068 54.28575277328491,5.0981126725673676 54.28575277328491,5.0981126725673676 54.31179404258728,5.347895622253418 54.31179404258728,5.347895622253418 54.306501150131226,5.61252124607563 54.306501150131226,5.61252124607563 54.272764921188354,5.871718004345894 54.272764921188354,5.871718004345894 54.21345233917236,6.105490028858185 54.21345233917236,6.105490028858185 54.131484031677246,6.293428689241409 54.131484031677246,6.293428689241409 54.033565521240234,6.431272625923157 54.033565521240234,6.431272625923157 53.92863154411316,6.532010436058044 53.92863154411316,6.532010436058044 53.82288098335266,6.601414084434509 53.82288098335266,6.601414084434509 53.72248291969299,6.6452547907829285 53.72248291969299,6.6452547907829285 53.633636236190796,6.669305264949799 53.633636236190796,6.669305264949799 53.5625159740448,6.679268926382065 53.5625159740448,6.679268926382065 53.515297174453735,6.681124120950699 53.515297174453735,6.681124120950699 53.498196601867676,6.6804371774196625 53.498196601867676,6.6804371774196625 53.674107789993286,7.524820417165756 53.674107789993286,7.524820417165756 53.92492413520813,7.538425922393799 53.92492413520813,7.538425922393799 54.60534691810608,7.574295997619629 54.60534691810608,7.574295997619629 55.60736656188965,7.625008374452591 55.60736656188965,7.625008374452591 56.82295560836792,7.683142274618149 56.82295560836792,7.683142274618149 58.144086599349976,7.741275429725647 58.144086599349976,7.741275429725647 59.46274995803833,7.791919261217117 59.46274995803833,7.791919261217117 60.67090630531311,7.827857881784439 60.67090630531311,7.827857881784439 61.660563945770264,7.841463387012482 61.660563945770264,7.841463387012482 62.45980262756348,7.816588878631592 62.45980262756348,7.816588878631592 63.17286491394043,7.748559862375259 63.17286491394043,7.748559862375259 63.805949687957764,7.646653801202774 63.805949687957764,7.646653801202774 64.36522603034973,7.520422339439392 64.36522603034973,7.520422339439392 64.85689282417297,7.379348576068878 64.85689282417297,7.379348576068878 65.28712511062622,7.232845574617386 65.28712511062622,7.232845574617386 65.66210389137268,7.090603560209274 65.66210389137268,7.090603560209274" stroke="white" stroke-width="0.1" /><polygon points="36.49028539657593,18.261153995990753 36.49028539657593,18.261153995990753 36.45657300949097,18.062633275985718 36.45657300949097,18.062633275985718 36.35987043380737,17.877787351608276 36.35987043380737,17.877787351608276 36.20685935020447,17.71039515733719 36.20685935020447,17.71039515733719 36.00422441959381,17.564648389816284 36.00422441959381,17.564648389816284 35.75863242149353,17.444325983524323 35.75863242149353,17.444325983524323 35.47675013542175,17.35348403453827 35.47675013542175,17.35348403453827 35.16526818275452,17.295968532562256 35.16526818275452,17.295968532562256 34.830862283706665,17.276041209697723 34.830862283706665,17.276041209697723 34.66443121433258,17.28091984987259 34.66443121433258,17.28091984987259 34.50275957584381,17.29535013437271 34.50275957584381,17.29535013437271 34.34661030769348,17.31885075569153 34.34661030769348,17.31885075569153 34.19675827026367,17.350803315639496 34.19675827026367,17.350803315639496 34.05396640300751,17.390865087509155 34.05396640300751,17.390865087509155 33.91900956630707,17.438553273677826 33.91900956630707,17.438553273677826 33.79266560077667,17.493321001529694 33.79266560077667,17.493321001529694 33.675676584243774,17.55475252866745 33.675676584243774,17.55475252866745 33.55869650840759,17.493321001529694 33.55869650840759,17.493321001529694 33.432334661483765,17.438553273677826 33.432334661483765,17.438553273677826 33.297377824783325,17.390865087509155 33.297377824783325,17.390865087509155 33.15459489822388,17.350803315639496 33.15459489822388,17.350803315639496 33.00473392009735,17.31885075569153 33.00473392009735,17.31885075569153 32.84859359264374,17.29535013437271 32.84859359264374,17.29535013437271 32.68691301345825,17.28091984987259 32.68691301345825,17.28091984987259 32.520490884780884,17.276041209697723 32.520490884780884,17.276041209697723 32.18608498573303,17.295968532562256 32.18608498573303,17.295968532562256 31.874603033065796,17.35348403453827 31.874603033065796,17.35348403453827 31.59272074699402,17.444325983524323 31.59272074699402,17.444325983524323 31.347128748893738,17.564648389816284 31.347128748893738,17.564648389816284 31.14449381828308,17.71039515733719 31.14449381828308,17.71039515733719 30.991488695144653,17.877787351608276 30.991488695144653,17.877787351608276 30.894780158996582,18.062564730644226 30.894780158996582,18.062564730644226 30.86106777191162,18.261153995990753 30.86106777191162,18.261153995990753 30.894780158996582,18.45974326133728 30.894780158996582,18.45974326133728 30.991482734680176,18.644657731056213 30.991482734680176,18.644657731056213 31.14449381828308,18.81198137998581 31.14449381828308,18.81198137998581 31.347128748893738,18.957796692848206 31.347128748893738,18.957796692848206 31.59272074699402,19.078050553798676 31.59272074699402,19.078050553798676 31.874603033065796,19.16889250278473 31.874603033065796,19.16889250278473 32.18608498573303,19.226202368736267 32.18608498573303,19.226202368736267 32.520490884780884,19.246266782283783 32.520490884780884,19.246266782283783 32.68692195415497,19.241319596767426 32.68692195415497,19.241319596767426 32.84859359264374,19.226957857608795 32.84859359264374,19.226957857608795 33.00474286079407,19.20352578163147 33.00474286079407,19.20352578163147 33.15459489822388,19.171573221683502 33.15459489822388,19.171573221683502 33.29738676548004,19.131511449813843 33.29738676548004,19.131511449813843 33.43234360218048,19.083891808986664 33.43234360218048,19.083891808986664 33.55868756771088,19.029055535793304 33.55868756771088,19.029055535793304 33.675676584243774,18.96769255399704 33.675676584243774,18.96769255399704 33.792656660079956,19.029124081134796 33.792656660079956,19.029124081134796 33.919018507003784,19.083891808986664 33.919018507003784,19.083891808986664 34.053975343704224,19.131511449813843 34.053975343704224,19.131511449813843 34.19675827026367,19.171573221683502 34.19675827026367,19.171573221683502 34.34661030769348,19.20359432697296 34.34661030769348,19.20359432697296 34.50275957584381,19.226957857608795 34.50275957584381,19.226957857608795 34.6644401550293,19.241319596767426 34.6644401550293,19.241319596767426 34.830862283706665,19.246266782283783 34.830862283706665,19.246266782283783 35.16526818275452,19.226202368736267 35.16526818275452,19.226202368736267 35.47675013542175,19.16889250278473 35.47675013542175,19.16889250278473 35.75863242149353,19.078050553798676 35.75863242149353,19.078050553798676 36.00422441959381,18.957796692848206 36.00422441959381,18.957796692848206 36.20685935020447,18.81198137998581 36.20685935020447,18.81198137998581 36.35986149311066,18.644657731056213 36.35986149311066,18.644657731056213 36.45657300949097,18.45967471599579 36.45657300949097,18.45967471599579" stroke="white" stroke-width="0.1" /></svg>