<?xml version="1.0" encoding="utf-8" ?>
<svg baseProfile="full" height="27.15015411376953" version="1.1" width="99.99457597732544" xmlns="http://www.w3.org/2000/svg" xmlns:ev="http://www.w3.org/2001/xml-events" xmlns:xlink="http://www.w3.org/1999/xlink"><defs><clipPath /></defs><polygon points="99.98998641967773,14.620137214660645 99.98998641967773,14.620137214660645 99.99457597732544,14.958097040653229 99.99457597732544,14.958097040653229 99.94660019874573,15.447203814983368 99.94660019874573,15.447203814983368 99.86220002174377,16.026969254016876 99.86220002174377,16.026969254016876 99.75742697715759,16.636839509010315 99.75742697715759,16.636839509010315 99.64812994003296,17.21646785736084 99.64812994003296,17.21646785736084 99.5501697063446,17.705364525318146 99.5501697063446,17.705364525318146 99.479740858078,18.042977154254913 99.479740858078,18.042977154254913 99.45269823074341,18.16895604133606 99.45269823074341,18.16895604133606 99.42405223846436,18.193775415420532 99.42405223846436,18.193775415420532 99.34799671173096,18.26128363609314 99.34799671173096,18.26128363609314 99.23911690711975,18.36119145154953 99.23911690711975,18.36119145154953 99.11216497421265,18.48306804895401 99.11216497421265,18.48306804895401 98.9816665649414,18.616555631160736 98.9816665649414,18.616555631160736 98.86243343353271,18.751294910907745 98.86243343353271,18.751294910907745 98.7691342830658,18.877065181732178 98.7691342830658,18.877065181732178 98.71629476547241,18.983228504657745 98.71629476547241,18.983228504657745 98.67499470710754,19.16448026895523 98.67499470710754,19.16448026895523 98.60866665840149,19.490689039230347 98.60866665840149,19.490689039230347 98.52120876312256,19.91458088159561 98.52120876312256,19.91458088159561 98.41594696044922,20.389017462730408 98.41594696044922,20.389017462730408 98.29657077789307,20.8665132522583 98.29657077789307,20.8665132522583 98.1667697429657,21.300138533115387 98.1667697429657,21.300138533115387 98.03001284599304,21.64240926504135 98.03001284599304,21.64240926504135 97.88978099822998,21.846255660057068 97.88978099822998,21.846255660057068 97.34276533126831,22.04975336790085 97.34276533126831,22.04975336790085 96.12399339675903,22.388339042663574 96.12399339675903,22.388339042663574 94.4445550441742,22.8101447224617 94.4445550441742,22.8101447224617 92.51566529273987,23.263446986675262 92.51566529273987,23.263446986675262 90.5482530593872,23.69658499956131 90.5482530593872,23.69658499956131 88.75354528427124,24.05797392129898 88.75354528427124,24.05797392129898 87.34233379364014,24.295610189437866 87.34233379364014,24.295610189437866 86.52611374855042,24.357973039150238 86.52611374855042,24.357973039150238 86.5853488445282,24.110743403434753 86.5853488445282,24.110743403434753 86.63721084594727,23.860733211040497 86.63721084594727,23.860733211040497 86.6813600063324,23.60801100730896 86.6813600063324,23.60801100730896 86.71786189079285,23.352855443954468 86.71786189079285,23.352855443954468 86.74643635749817,23.09526652097702 86.74643635749817,23.09526652097702 86.76701784133911,22.83531278371811 86.76701784133911,22.83531278371811 86.77946329116821,22.573135793209076 86.77946329116821,22.573135793209076 86.78362965583801,22.309011220932007 86.78362965583801,22.309011220932007 86.7549180984497,21.61717116832733 86.7549180984497,21.61717116832733 86.67016625404358,20.94104439020157 86.67016625404358,20.94104439020157 86.5319550037384,20.28278410434723 86.5319550037384,20.28278410434723 86.34228706359863,19.644756615161896 86.34228706359863,19.644756615161896 86.10374927520752,19.029323756694794 86.10374927520752,19.029323756694794 85.81849336624146,18.438641726970673 85.81849336624146,18.438641726970673 85.48866510391235,17.875005304813385 85.48866510391235,17.875005304813385 85.11698842048645,17.340707778930664 85.11698842048645,17.340707778930664 85.23698449134827,17.65558570623398 85.23698449134827,17.65558570623398 85.34238338470459,17.977415025234222 85.34238338470459,17.977415025234222 85.43283939361572,18.305641412734985 85.43283939361572,18.305641412734985 85.50785183906555,18.640124797821045 85.50785183906555,18.640124797821045 85.56694984436035,18.98016929626465 85.56694984436035,18.98016929626465 85.60971021652222,19.3255677819252 85.60971021652222,19.3255677819252 85.63584685325623,19.675903022289276 85.63584685325623,19.675903022289276 85.64453721046448,20.030826330184937 85.64453721046448,20.030826330184937 85.64016222953796,20.281532406806946 85.64016222953796,20.281532406806946 85.62701940536499,20.530083775520325 85.62701940536499,20.530083775520325 85.60532927513123,20.77620029449463 85.60532927513123,20.77620029449463 85.57543158531189,21.019814908504486 85.57543158531189,21.019814908504486 85.53726077079773,21.260857582092285 85.53726077079773,21.260857582092285 85.49124002456665,21.499118208885193 85.49124002456665,21.499118208885193 85.43728590011597,21.734529733657837 85.43728590011597,21.734529733657837 85.37589907646179,21.967019140720367 85.37589907646179,21.967019140720367 84.97300148010254,23.048406839370728 84.97300148010254,23.048406839370728 84.40797328948975,24.038438498973846 84.40797328948975,24.038438498973846 83.69715213775635,24.921193718910217 83.69715213775635,24.921193718910217 82.85681009292603,25.67998468875885 82.85681009292603,25.67998468875885 81.90313577651978,26.298755407333374 81.90313577651978,26.298755407333374 80.85241317749023,26.76088511943817 80.85241317749023,26.76088511943817 79.72110509872437,27.050107717514038 79.72110509872437,27.050107717514038 78.52520942687988,27.15015411376953 78.52520942687988,27.15015411376953 77.28336453437805,27.04218327999115 77.28336453437805,27.04218327999115 76.11173391342163,26.730433106422424 76.11173391342163,26.730433106422424 75.02881288528442,26.233333349227905 75.02881288528442,26.233333349227905 74.05282855033875,25.569093227386475 74.05282855033875,25.569093227386475 73.20205569267273,24.756141006946564 73.20205569267273,24.756141006946564 72.494637966156,23.812969028949738 72.494637966156,23.812969028949738 71.9490110874176,22.757723927497864 71.9490110874176,22.757723927497864 71.58358693122864,21.608898043632507 71.58358693122864,21.608898043632507 71.54298424720764,21.417565643787384 71.54298424720764,21.417565643787384 71.50738835334778,21.224357187747955 71.50738835334778,21.224357187747955 71.47693634033203,21.029548346996307 71.47693634033203,21.029548346996307 71.45163416862488,20.832863450050354 71.45163416862488,20.832863450050354 71.43175005912781,20.634718239307404 71.43175005912781,20.634718239307404 71.41749262809753,20.434904098510742 71.41749262809753,20.434904098510742 71.40880227088928,20.233561098575592 71.40880227088928,20.233561098575592 71.40588164329529,20.030826330184937 71.40588164329529,20.030826330184937 71.41464352607727,19.675903022289276 71.41464352607727,19.675903022289276 71.44057750701904,19.3255677819252 71.44057750701904,19.3255677819252 71.48333191871643,18.980100750923157 71.48333191871643,18.980100750923157 71.54242992401123,18.640054762363434 71.54242992401123,18.640054762363434 71.6173768043518,18.305709958076477 71.6173768043518,18.305709958076477 71.70789837837219,17.977415025234222 71.70789837837219,17.977415025234222 71.81329727172852,17.65558570623398 71.81329727172852,17.65558570623398 71.9334363937378,17.340707778930664 71.9334363937378,17.340707778930664 71.56161665916443,17.875005304813385 71.56161665916443,17.875005304813385 71.23186588287354,18.438641726970673 71.23186588287354,18.438641726970673 70.946604013443,19.029393792152405 70.946604013443,19.029393792152405 70.70799469947815,19.644895195961 70.70799469947815,19.644895195961 70.51840424537659,20.28285413980484 70.51840424537659,20.28285413980484 70.3801155090332,20.94104439020157 70.3801155090332,20.94104439020157 70.29550671577454,21.61710113286972 70.29550671577454,21.61710113286972 70.26678919792175,22.309011220932007 70.26678919792175,22.309011220932007 70.22396326065063,22.72094488143921 70.22396326065063,22.72094488143921 70.11105418205261,23.249123990535736 70.11105418205261,23.249123990535736 69.95142698287964,23.840710520744324 69.95142698287964,23.840710520744324 69.76844072341919,24.44293200969696 69.76844072341919,24.44293200969696 69.58544850349426,25.003233551979065 69.58544850349426,25.003233551979065 69.42582130432129,25.468701124191284 69.42582130432129,25.468701124191284 69.31291222572327,25.786566734313965 69.31291222572327,25.786566734313965 69.27008628845215,25.904271006584167 69.27008628845215,25.904271006584167 63.621342182159424,25.904271006584167 63.621342182159424,25.904271006584167 61.246657371520996,25.049951672554016 61.246657371520996,25.049951672554016 27.123665809631348,25.3347247838974 27.123665809631348,25.3347247838974 25.921165943145752,24.6173694729805 25.921165943145752,24.6173694729805 26.016902923583984,24.32105541229248 26.016902923583984,24.32105541229248 26.100817322731018,24.039828777313232 26.100817322731018,24.039828777313232 26.17277503013611,23.767292499542236 26.17277503013611,23.767292499542236 26.232358813285828,23.49684089422226 26.232358813285828,23.49684089422226 26.27921998500824,23.222357034683228 26.27921998500824,23.222357034683228 26.31300687789917,22.937028110027313 26.31300687789917,22.937028110027313 26.333656907081604,22.634874284267426 26.333656907081604,22.634874284267426 26.340538263320923,22.309011220932007 26.340538263320923,22.309011220932007 26.311826705932617,21.61717116832733 26.311826705932617,21.61717116832733 26.22707486152649,20.94104439020157 26.22707486152649,20.94104439020157 26.088860630989075,20.28278410434723 26.088860630989075,20.28278410434723 25.899195671081543,19.644756615161896 25.899195671081543,19.644756615161896 25.66065788269043,19.029323756694794 25.66065788269043,19.029323756694794 25.375398993492126,18.438641726970673 25.375398993492126,18.438641726970673 25.045642256736755,17.875005304813385 25.045642256736755,17.875005304813385 24.67389404773712,17.340707778930664 24.67389404773712,17.340707778930664 24.793893098831177,17.65558570623398 24.793893098831177,17.65558570623398 24.8992919921875,17.977415025234222 24.8992919921875,17.977415025234222 24.989745020866394,18.305641412734985 24.989745020866394,18.305641412734985 25.064760446548462,18.640124797821045 25.064760446548462,18.640124797821045 25.12385845184326,18.98016929626465 25.12385845184326,18.98016929626465 25.166615843772888,19.3255677819252 25.166615843772888,19.3255677819252 25.192755460739136,19.675903022289276 25.192755460739136,19.675903022289276 25.201445817947388,20.030826330184937 25.201445817947388,20.030826330184937 25.197693705558777,20.263387262821198 25.197693705558777,20.263387262821198 25.18649995326996,20.494000613689423 25.18649995326996,20.494000613689423 25.168076157569885,20.722666382789612 25.168076157569885,20.722666382789612 25.14249086380005,20.94917893409729 25.14249086380005,20.94917893409729 25.109952688217163,21.173465251922607 25.109952688217163,21.173465251922607 25.070461630821228,21.395596861839294 25.070461630821228,21.395596861839294 25.024089217185974,21.615225076675415 25.024089217185974,21.615225076675415 24.9711811542511,21.832281351089478 24.9711811542511,21.832281351089478 24.581843614578247,22.939182817935944 24.581843614578247,22.939182817935944 24.0236297249794,23.95389676094055 24.0236297249794,23.95389676094055 23.313434422016144,24.859385192394257 23.313434422016144,24.859385192394257 22.468571364879608,25.638547539711 22.468571364879608,25.638547539711 21.50593250989914,26.2742817401886 21.50593250989914,26.2742817401886 20.442551374435425,26.74948275089264 20.442551374435425,26.74948275089264 19.295673072338104,27.047118544578552 19.295673072338104,27.047118544578552 18.082119524478912,27.15015411376953 18.082119524478912,27.15015411376953 17.13644415140152,27.08786129951477 17.13644415140152,27.08786129951477 16.228313744068146,26.90633237361908 16.228313744068146,26.90633237361908 15.365928411483765,26.613494753837585 15.365928411483765,26.613494753837585 14.557148516178131,26.217201352119446 14.557148516178131,26.217201352119446 13.809897005558014,25.72559416294098 13.809897005558014,25.72559416294098 13.131961226463318,25.146523118019104 13.131961226463318,25.146523118019104 12.531477212905884,24.48798418045044 12.531477212905884,24.48798418045044 12.016229331493378,23.757974803447723 12.016229331493378,23.757974803447723 11.779358983039856,23.342634737491608 11.779358983039856,23.342634737491608 11.570020020008087,22.910399734973907 11.570020020008087,22.910399734973907 11.389603465795517,22.462591528892517 11.389603465795517,22.462591528892517 11.239221692085266,22.000321745872498 11.239221692085266,22.000321745872498 11.120125651359558,21.524912118911743 11.120125651359558,21.524912118911743 11.033428460359573,21.037335693836212 11.033428460359573,21.037335693836212 10.980729013681412,20.53891271352768 10.980729013681412,20.53891271352768 10.962791740894318,20.030826330184937 10.962791740894318,20.030826330184937 10.971551388502121,19.675903022289276 10.971551388502121,19.675903022289276 10.997484624385834,19.3255677819252 10.997484624385834,19.3255677819252 11.04024201631546,18.980100750923157 11.04024201631546,18.980100750923157 11.099337786436081,18.640054762363434 11.099337786436081,18.640054762363434 11.174285411834717,18.305709958076477 11.174285411834717,18.305709958076477 11.264806985855103,17.977415025234222 11.264806985855103,17.977415025234222 11.370205879211426,17.65558570623398 11.370205879211426,17.65558570623398 11.490345001220703,17.340707778930664 11.490345001220703,17.340707778930664 11.118526756763458,17.875005304813385 11.118526756763458,17.875005304813385 10.788771510124207,18.438641726970673 10.788771510124207,18.438641726970673 10.503511130809784,19.029393792152405 10.503511130809784,19.029393792152405 10.264902561903,19.644895195961 10.264902561903,19.644895195961 10.075309127569199,20.28285413980484 10.075309127569199,20.28285413980484 9.937024116516113,20.94104439020157 9.937024116516113,20.94104439020157 9.852412343025208,21.61710113286972 9.852412343025208,21.61710113286972 9.823699295520782,22.309011220932007 9.823699295520782,22.309011220932007 9.838994592428207,22.797004878520966 9.838994592428207,22.797004878520966 9.884116053581238,23.251836001873016 9.884116053581238,23.251836001873016 9.95829850435257,23.680873215198517 9.95829850435257,23.680873215198517 10.060500353574753,24.09176379442215 10.060500353574753,24.09176379442215 10.189885646104813,24.492156505584717 10.189885646104813,24.492156505584717 10.34548208117485,24.88962858915329 10.34548208117485,24.88962858915329 10.526245832443237,25.291690230369568 10.526245832443237,25.291690230369568 10.731413215398788,25.706055760383606 10.731413215398788,25.706055760383606 2.0622411742806435,25.706055760383606 2.0622411742806435,25.706055760383606 1.8674330785870552,25.5236953496933 1.8674330785870552,25.5236953496933 1.740759052336216,25.306430459022522 1.740759052336216,25.306430459022522 1.6747800633311272,25.068306922912598 1.6747800633311272,25.068306922912598 1.6619181260466576,24.82309341430664 1.6619181260466576,24.82309341430664 1.694803312420845,24.585041403770447 1.694803312420845,24.585041403770447 1.7657879739999771,24.368055164813995 1.7657879739999771,24.368055164813995 1.8675025552511215,24.186038970947266 1.8675025552511215,24.186038970947266 1.9924383610486984,24.053247272968292 1.9924383610486984,24.053247272968292 2.156238630414009,23.96835684776306 2.156238630414009,23.96835684776306 2.3656468838453293,23.912736773490906 2.3656468838453293,23.912736773490906 2.6000842452049255,23.873594403266907 2.6000842452049255,23.873594403266907 2.8384147211909294,23.83834570646286 2.8384147211909294,23.83834570646286 3.0600594356656075,23.794476687908173 3.0600594356656075,23.794476687908173 3.2440219074487686,23.729123175144196 3.2440219074487686,23.729123175144196 3.369791805744171,23.629702627658844 3.369791805744171,23.629702627658844 3.4163039177656174,23.483701050281525 3.4163039177656174,23.483701050281525 3.285875543951988,23.19517284631729 3.285875543951988,23.19517284631729 2.940198965370655,22.710585594177246 2.940198965370655,22.710585594177246 2.447686158120632,22.080831229686737 2.447686158120632,22.080831229686737 1.8767492845654488,21.356801688671112 1.8767492845654488,21.356801688671112 1.2958010658621788,20.58945745229721 1.2958010658621788,20.58945745229721 0.773253571242094,19.829553365707397 0.773253571242094,19.829553365707397 0.3775190329179168,19.12797838449478 0.3775190329179168,19.12797838449478 0.17700984608381987,18.53576749563217 0.17700984608381987,18.53576749563217 0.10171461617574096,18.08142364025116 0.10171461617574096,18.08142364025116 0.04185386060271412,17.74429827928543 0.04185386060271412,17.74429827928543 0.006118172314018011,17.501449584960938 0.006118172314018011,17.501449584960938 0.0034762342693284154,17.329931259155273 0.0034762342693284154,17.329931259155273 0.04247958422638476,17.20687299966812 0.04247958422638476,17.20687299966812 0.1319578499533236,17.109191417694092 0.1319578499533236,17.109191417694092 0.28067114762961864,17.013941705226898 0.28067114762961864,17.013941705226898 0.497379619628191,16.898322105407715 0.497379619628191,16.898322105407715 0.7776336278766394,16.772691905498505 0.7776336278766394,16.772691905498505 1.0975167155265808,16.66082590818405 1.0975167155265808,16.66082590818405 1.4366581104695797,16.5598064661026 1.4366581104695797,16.5598064661026 1.7744090408086777,16.466712951660156 1.7744090408086777,16.466712951660156 2.0905377343297005,16.378694772720337 2.0905377343297005,16.378694772720337 2.3645345121622086,16.292692720890045 2.3645345121622086,16.292692720890045 2.5759590789675713,16.205787658691406 2.5759590789675713,16.205787658691406 2.704371139407158,16.11519604921341 2.704371139407158,16.11519604921341 2.7903037145733833,15.958626568317413 2.7903037145733833,15.958626568317413 2.87790484726429,15.6969353556633 2.87790484726429,15.6969353556633 2.952157147228718,15.36189615726471 2.952157147228718,15.36189615726471 2.9980434104800224,14.98500257730484 2.9980434104800224,14.98500257730484 3.000546433031559,14.598236978054047 3.000546433031559,14.598236978054047 2.944648452103138,14.233092963695526 2.944648452103138,14.233092963695526 2.8153326362371445,13.921275734901428 2.8153326362371445,13.921275734901428 2.597581222653389,13.694624602794647 2.597581222653389,13.694624602794647 2.307802438735962,13.511775434017181 2.307802438735962,13.511775434017181 1.9946632906794548,13.313072919845581 1.9946632906794548,13.313072919845581 1.6915356740355492,13.102760910987854 1.6915356740355492,13.102760910987854 1.431791391223669,12.884801626205444 1.431791391223669,12.884801626205444 1.2488024309277534,12.663643062114716 1.2488024309277534,12.663643062114716 1.175940502434969,12.44325041770935 1.175940502434969,12.44325041770935 1.2465775944292545,12.227793037891388 1.2465775944292545,12.227793037891388 1.4940855093300343,12.021582573652267 1.4940855093300343,12.021582573652267 1.9283367320895195,11.796114593744278 1.9283367320895195,11.796114593744278 2.526387944817543,11.528444290161133 2.526387944817543,11.528444290161133 3.2729439437389374,11.231295764446259 3.2729439437389374,11.231295764446259 4.152153432369232,10.917183011770248 4.152153432369232,10.917183011770248 5.148442089557648,10.598690807819366 5.148442089557648,10.598690807819366 6.246375665068626,10.288610309362411 6.246375665068626,10.288610309362411 7.4303120374679565,9.999249130487442 7.4303120374679565,9.999249130487442 8.684606850147247,9.743397682905197 8.684606850147247,9.743397682905197 10.062655061483383,9.496098756790161 10.062655061483383,9.496098756790161 11.57606840133667,9.233017265796661 11.57606840133667,9.233017265796661 13.146978616714478,8.967641741037369 13.146978616714478,8.967641741037369 14.696961641311646,8.713250607252121 14.696961641311646,8.713250607252121 16.14794284105301,8.483193814754486 16.14794284105301,8.483193814754486 17.42163449525833,8.291026949882507 17.42163449525833,8.291026949882507 18.439893424510956,8.150169998407364 18.439893424510956,8.150169998407364 19.12471204996109,8.073832094669342 19.12471204996109,8.073832094669342 19.617989659309387,8.061665296554565 19.617989659309387,8.061665296554565 20.25921493768692,8.082592487335205 20.25921493768692,8.082592487335205 20.982620120048523,8.12687948346138 20.982620120048523,8.12687948346138 21.722154319286346,8.18486288189888 21.722154319286346,8.18486288189888 22.412116825580597,8.246948570013046 22.412116825580597,8.246948570013046 22.986529767513275,8.303263783454895 22.986529767513275,8.303263783454895 23.379483819007874,8.344074338674545 23.379483819007874,8.344074338674545 23.525068163871765,8.359856903553009 23.525068163871765,8.359856903553009 26.162555813789368,8.21274220943451 26.162555813789368,8.21274220943451 26.2148380279541,8.227412402629852 26.2148380279541,8.227412402629852 26.35868489742279,8.265789598226547 26.35868489742279,8.265789598226547 26.5745609998703,8.319740742444992 26.5745609998703,8.319740742444992 26.842856407165527,8.380922675132751 26.842856407165527,8.380922675132751 27.144035696983337,8.441061526536942 27.144035696983337,8.441061526536942 27.458497881889343,8.492092788219452 27.458497881889343,8.492092788219452 27.766770124435425,8.525395393371582 27.766770124435425,8.525395393371582 28.049176931381226,8.533111959695816 28.049176931381226,8.533111959695816 28.45095992088318,8.413946628570557 28.45095992088318,8.413946628570557 29.100391268730164,8.100321143865585 29.100391268730164,8.100321143865585 29.952901601791382,7.634019106626511 29.952901601791382,7.634019106626511 30.964139103889465,7.056755572557449 30.964139103889465,7.056755572557449 32.08925724029541,6.410523504018784 32.08925724029541,6.410523504018784 33.283692598342896,5.736968293786049 33.283692598342896,5.736968293786049 34.503015875816345,5.0778742879629135 34.503015875816345,5.0778742879629135 35.702455043792725,4.475095495581627 35.702455043792725,4.475095495581627 36.97934448719025,3.86960506439209 36.97934448719025,3.86960506439209 38.441866636276245,3.2012641429901123 38.441866636276245,3.2012641429901123 40.06220996379852,2.5104667991399765 40.06220996379852,2.5104667991399765 41.81228578090668,1.8375374376773834 41.81228578090668,1.8375374376773834 43.664005398750305,1.222869660705328 43.664005398750305,1.222869660705328 45.589423179626465,0.7069965358823538 45.589423179626465,0.7069965358823538 47.5605845451355,0.3298946423456073 47.5605845451355,0.3298946423456073 49.5495468378067,0.132305477745831 49.5495468378067,0.132305477745831 51.65600776672363,0.05589784705080092 51.65600776672363,0.05589784705080092 53.93607020378113,0.013209690223447978 53.93607020378113,0.013209690223447978 56.2963604927063,6.952468538656831e-05 56.2963604927063,6.952468538656831e-05 58.64344835281372,0.012444918684195727 58.64344835281372,0.012444918684195727 60.88387966156006,0.046581539209000766 60.88387966156006,0.046581539209000766 62.92421817779541,0.09837743127718568 62.92421817779541,0.09837743127718568 64.67095613479614,0.16380015294998884 64.67095613479614,0.16380015294998884 66.03079438209534,0.23909539449959993 66.03079438209534,0.23909539449959993 67.12949275970459,0.32259454019367695 67.12949275970459,0.32259454019367695 68.16360354423523,0.41937287896871567 68.16360354423523,0.41937287896871567 69.14591193199158,0.5350619554519653 69.14591193199158,0.5350619554519653 70.08880972862244,0.675084674730897 70.08880972862244,0.675084674730897 71.00507616996765,0.8452811278402805 71.00507616996765,0.8452811278402805 71.90715670585632,1.051004696637392 71.90715670585632,1.051004696637392 72.80784845352173,1.297956332564354 72.80784845352173,1.297956332564354 73.7196683883667,1.591767743229866 73.7196683883667,1.591767743229866 74.80619549751282,2.039923705160618 74.80619549751282,2.039923705160618 76.1414885520935,2.692134864628315 76.1414885520935,2.692134864628315 77.6044249534607,3.4670569002628326 77.6044249534607,3.4670569002628326 79.07348275184631,4.283415898680687 79.07348275184631,4.283415898680687 80.42733669281006,5.059867724776268 80.42733669281006,5.059867724776268 81.5446674823761,5.715276673436165 81.5446674823761,5.715276673436165 82.30394721031189,6.167951971292496 82.30394721031189,6.167951971292496 82.58406519889832,6.336966156959534 82.58406519889832,6.336966156959534 91.36252999305725,6.022019684314728 91.36252999305725,6.022019684314728 91.37837886810303,6.019099801778793 91.37837886810303,6.019099801778793 91.42266511917114,6.010130792856216 91.42266511917114,6.010130792856216 91.4904534816742,5.994626879692078 91.4904534816742,5.994626879692078 91.57666563987732,5.972100794315338 91.57666563987732,5.972100794315338 91.67664051055908,5.9421356767416 91.67664051055908,5.9421356767416 91.78524017333984,5.904453247785568 91.78524017333984,5.904453247785568 91.89758896827698,5.85835874080658 91.89758896827698,5.85835874080658 92.00882911682129,5.803503468632698 92.00882911682129,5.803503468632698 92.16511845588684,5.70644699037075 92.16511845588684,5.70644699037075 92.39664077758789,5.548904091119766 92.39664077758789,5.548904091119766 92.67348647117615,5.353539809584618 92.67348647117615,5.353539809584618 92.96646118164062,5.143019184470177 92.96646118164062,5.143019184470177 93.24567317962646,4.939937591552734 93.24567317962646,4.939937591552734 93.48170757293701,4.76682111620903 93.48170757293701,4.76682111620903 93.64509582519531,4.6464040875434875 93.64509582519531,4.6464040875434875 93.70606541633606,4.601282626390457 93.70606541633606,4.601282626390457 93.77169609069824,4.559915512800217 93.77169609069824,4.559915512800217 93.84685158729553,4.521329328417778 93.84685158729553,4.521329328417778 93.92903447151184,4.486427828669548 93.92903447151184,4.486427828669548 94.01565790176392,4.45590652525425 94.01565790176392,4.45590652525425 94.10395622253418,4.430738836526871 94.10395622253418,4.430738836526871 94.19121146202087,4.411758482456207 94.19121146202087,4.411758482456207 94.27498579025269,4.399660974740982 94.27498579025269,4.399660974740982 94.35237050056458,4.395489767193794 94.35237050056458,4.395489767193794 97.01043367385864,4.395489767193794 97.01043367385864,4.395489767193794 97.0810055732727,4.402720183134079 97.0810055732727,4.402720183134079 97.14489579200745,4.4233690947294235 97.14489579200745,4.4233690947294235 97.20100164413452,4.456045478582382 97.20100164413452,4.456045478582382 97.24786281585693,4.499150812625885 97.24786281585693,4.499150812625885 97.28450179100037,4.55150306224823 97.28450179100037,4.55150306224823 97.30932116508484,4.611433297395706 97.30932116508484,4.611433297395706 97.32134938240051,4.677481949329376 97.32134938240051,4.677481949329376 97.31912612915039,4.748327285051346 97.31912612915039,4.748327285051346 96.89168930053711,8.05012434720993 96.89168930053711,8.05012434720993 97.03706502914429,8.072372525930405 97.03706502914429,8.072372525930405 97.1619963645935,8.129104226827621 97.1619963645935,8.129104226827621 97.2666323184967,8.20898786187172 97.2666323184967,8.20898786187172 97.35152125358582,8.300135284662247 97.35152125358582,8.300135284662247 97.41687774658203,8.391142636537552 97.41687774658203,8.391142636537552 97.46297001838684,8.47047045826912 97.46297001838684,8.47047045826912 97.4905014038086,8.526507765054703 97.4905014038086,8.526507765054703 97.49960899353027,8.547782152891159 97.49960899353027,8.547782152891159 98.10336232185364,13.3742555975914 98.10336232185364,13.3742555975914 98.18053841590881,13.401299715042114 98.18053841590881,13.401299715042114 98.38452339172363,13.478055596351624 98.38452339172363,13.478055596351624 98.67485761642456,13.59812468290329 98.67485761642456,13.59812468290329 99.01052117347717,13.754902780056 99.01052117347717,13.754902780056 99.3506371974945,13.941994309425354 99.3506371974945,13.941994309425354 99.6544599533081,14.152932167053223 99.6544599533081,14.152932167053223 99.88124966621399,14.381042122840881 99.88124966621399,14.381042122840881" stroke="white" stroke-width="0.1" /><polygon points="81.0217022895813,10.04367545247078 81.0217022895813,10.04367545247078 80.98986148834229,9.756676852703094 80.98986148834229,9.756676852703094 80.8986485004425,9.489354491233826 80.8986485004425,9.489354491233826 80.75424432754517,9.24747809767723 80.75424432754517,9.24747809767723 80.56297898292542,9.036818891763687 80.56297898292542,9.036818891763687 80.3311824798584,8.862937241792679 80.3311824798584,8.862937241792679 80.06518483161926,8.731674402952194 80.06518483161926,8.731674402952194 79.77116107940674,8.648731559515 79.77116107940674,8.648731559515 79.45545315742493,8.61980989575386 79.45545315742493,8.61980989575386 79.13981080055237,8.648731559515 79.13981080055237,8.648731559515 78.84585857391357,8.731674402952194 78.84585857391357,8.731674402952194 78.57978940010071,8.862937241792679 78.57978940010071,8.862937241792679 78.34792137145996,9.036818891763687 78.34792137145996,9.036818891763687 78.15666198730469,9.247548133134842 78.15666198730469,9.247548133134842 78.01232933998108,9.489354491233826 78.01232933998108,9.489354491233826 77.92097330093384,9.756676852703094 77.92097330093384,9.756676852703094 77.88919806480408,10.04367545247078 77.88919806480408,10.04367545247078 77.92104482650757,10.330673307180405 77.92104482650757,10.330673307180405 78.01232933998108,10.597856342792511 78.01232933998108,10.597856342792511 78.15673351287842,10.839663445949554 78.15673351287842,10.839663445949554 78.34792137145996,11.05046197772026 78.34792137145996,11.05046197772026 78.57978940010071,11.224273592233658 78.57978940010071,11.224273592233658 78.84585857391357,11.355605721473694 78.84585857391357,11.355605721473694 79.13981080055237,11.4386186003685 79.13981080055237,11.4386186003685 79.45545315742493,11.467541009187698 79.45545315742493,11.467541009187698 79.77109551429749,11.4386186003685 79.77109551429749,11.4386186003685 80.06518483161926,11.355605721473694 80.06518483161926,11.355605721473694 80.33125400543213,11.224273592233658 80.33125400543213,11.224273592233658 80.56297898292542,11.05046197772026 80.56297898292542,11.05046197772026 80.75424432754517,10.839732736349106 80.75424432754517,10.839732736349106 80.8986485004425,10.597856342792511 80.8986485004425,10.597856342792511 80.98986148834229,10.330603271722794 80.98986148834229,10.330603271722794" stroke="white" stroke-width="0.1" /><polygon points="40.5644565820694,7.276592403650284 40.5644565820694,7.276592403650284 40.70628583431244,7.138238847255707 40.70628583431244,7.138238847255707 40.86542725563049,7.010452449321747 40.86542725563049,7.010452449321747 41.042786836624146,6.89573660492897 41.042786836624146,6.89573660492897 41.23954176902771,6.796663999557495 41.23954176902771,6.796663999557495 41.45645797252655,6.715250015258789 41.45645797252655,6.715250015258789 41.694650053977966,6.654207408428192 41.694650053977966,6.654207408428192 41.95515811443329,6.615830212831497 41.95515811443329,6.615830212831497 42.2388881444931,6.602481007575989 42.2388881444931,6.602481007575989 42.58623421192169,6.705447286367416 42.58623421192169,6.705447286367416 42.837634682655334,6.977010518312454 42.837634682655334,6.977010518312454 43.00852715969086,7.360856235027313 43.00852715969086,7.360856235027313 43.11392605304718,7.800878584384918 43.11392605304718,7.800878584384918 43.16926896572113,8.240969479084015 43.16926896572113,8.240969479084015 43.189916014671326,8.624884486198425 43.189916014671326,8.624884486198425 43.19102764129639,8.896378427743912 43.19102764129639,8.896378427743912 43.1880384683609,8.99934470653534 43.1880384683609,8.99934470653534 60.08448600769043,8.667086064815521 60.08448600769043,8.667086064815521 60.04680395126343,8.402962237596512 60.04680395126343,8.402962237596512 59.947240352630615,7.706741988658905 59.947240352630615,7.706741988658905 59.806662797927856,6.722341477870941 59.806662797927856,6.722341477870941 59.645503759384155,5.593886598944664 59.645503759384155,5.593886598944664 59.4842791557312,4.465501010417938 59.4842791557312,4.465501010417938 59.34363007545471,3.4811705350875854 59.34363007545471,3.4811705350875854 59.24420952796936,2.7848808094859123 59.24420952796936,2.7848808094859123 59.20652747154236,2.520756609737873 59.20652747154236,2.520756609737873 58.70872735977173,2.5194356217980385 58.70872735977173,2.5194356217980385 57.37802982330322,2.5237461552023888 57.37802982330322,2.5237461552023888 55.45837879180908,2.5457853451371193 55.45837879180908,2.5457853451371193 53.19361686706543,2.597859315574169 53.19361686706543,2.597859315574169 50.82747936248779,2.6922740042209625 50.82747936248779,2.6922740042209625 48.60415160655975,2.84112635999918 48.60415160655975,2.84112635999918 46.767377853393555,3.0567223206162453 46.767377853393555,3.0567223206162453 45.561057329177856,3.351368010044098 45.561057329177856,3.351368010044098 44.61475610733032,3.7957698106765747 44.61475610733032,3.7957698106765747 43.46349537372589,4.4066134840250015 43.46349537372589,4.4066134840250015 42.209410667419434,5.114235728979111 42.209410667419434,5.114235728979111 40.95441997051239,5.849042162299156 40.95441997051239,5.849042162299156 39.8005872964859,6.541577726602554 39.8005872964859,6.541577726602554 38.8500452041626,7.122386991977692 38.8500452041626,7.122386991977692 38.20499777793884,7.5217366218566895 38.20499777793884,7.5217366218566895 37.967291474342346,7.670380175113678 37.967291474342346,7.670380175113678 37.65860199928284,8.99934470653534 37.65860199928284,8.99934470653534 39.84195590019226,8.99934470653534 39.84195590019226,8.99934470653534 39.845848083496094,8.954362571239471 39.845848083496094,8.954362571239471 39.86169993877411,8.829843252897263 39.86169993877411,8.829843252897263 39.8959755897522,8.641153573989868 39.8959755897522,8.641153573989868 39.954861998558044,8.403726667165756 39.954861998558044,8.403726667165756 40.04482924938202,8.133275806903839 40.04482924938202,8.133275806903839 40.17219841480255,7.844817638397217 40.17219841480255,7.844817638397217 40.34329652786255,7.554135471582413 40.34329652786255,7.554135471582413" stroke="white" stroke-width="0.1" /><polygon points="62.932491302490234,2.591949887573719 62.932491302490234,2.591949887573719 62.4273955821991,2.5432825088500977 62.4273955821991,2.5432825088500977 61.9759738445282,2.516028843820095 61.9759738445282,2.516028843820095 61.58239245414734,2.5055306032299995 61.58239245414734,2.5055306032299995 61.25096678733826,2.507268637418747 61.25096678733826,2.507268637418747 60.98580360412598,2.5166545063257217 60.98580360412598,2.5166545063257217 60.79106330871582,2.529029920697212 60.79106330871582,2.529029920697212 60.67120432853699,2.539806254208088 60.67120432853699,2.539806254208088 60.63039302825928,2.5444643571972847 60.63039302825928,2.5444643571972847 61.651015281677246,8.05012434720993 61.651015281677246,8.05012434720993 61.772823333740234,8.023009449243546 61.772823333740234,8.023009449243546 62.100839614868164,7.9492442309856415 62.100839614868164,7.9492442309856415 62.57833242416382,7.839881628751755 62.57833242416382,7.839881628751755 63.148993253707886,7.705976814031601 63.148993253707886,7.705976814031601 63.75643014907837,7.5587935745716095 63.75643014907837,7.5587935745716095 64.34398293495178,7.409384846687317 64.34398293495178,7.409384846687317 64.85547423362732,7.268805801868439 64.85547423362732,7.268805801868439 65.23431539535522,7.148319482803345 65.23431539535522,7.148319482803345 65.5796468257904,7.024913281202316 65.5796468257904,7.024913281202316 66.00367426872253,6.872793287038803 66.00367426872253,6.872793287038803 66.46956205368042,6.699050962924957 66.46956205368042,6.699050962924957 66.94003343582153,6.510499864816666 66.94003343582153,6.510499864816666 67.37831830978394,6.31423220038414 67.37831830978394,6.31423220038414 67.74735450744629,6.117129325866699 67.74735450744629,6.117129325866699 68.01002025604248,5.926075577735901 68.01002025604248,5.926075577735901 68.12960505485535,5.748162046074867 68.12960505485535,5.748162046074867 67.99291968345642,5.489877611398697 67.99291968345642,5.489877611398697 67.56110191345215,5.088164284825325 67.56110191345215,5.088164284825325 66.90853834152222,4.595164582133293 66.90853834152222,4.595164582133293 66.10949635505676,4.063231125473976 66.10949635505676,4.063231125473976 65.23799896240234,3.544716164469719 65.23799896240234,3.544716164469719 64.36852812767029,3.091832250356674 64.36852812767029,3.091832250356674 63.575249910354614,2.756792865693569 63.575249910354614,2.756792865693569" stroke="white" stroke-width="0.1" /></svg>