<?xml version="1.0" encoding="utf-8" ?>
<svg baseProfile="full" height="29.604080319404602" version="1.1" width="99.99684691429138" xmlns="http://www.w3.org/2000/svg" xmlns:ev="http://www.w3.org/2001/xml-events" xmlns:xlink="http://www.w3.org/1999/xlink"><defs><clipPath /></defs><polygon points="99.99684691429138,17.086343467235565 99.99684691429138,17.086343467235565 99.96280074119568,17.80465543270111 99.96280074119568,17.80465543270111 99.82525706291199,18.599463999271393 99.82525706291199,18.599463999271393 99.61751699447632,19.417670369148254 99.61751699447632,19.417670369148254 99.37288165092468,20.206178724765778 99.37288165092468,20.206178724765778 99.12464618682861,20.911891758441925 99.12464618682861,20.911891758441925 98.90602827072144,21.48171067237854 98.90602827072144,21.48171067237854 98.75056147575378,21.862521767616272 98.75056147575378,21.862521767616272 98.69131445884705,22.0012828707695 98.69131445884705,22.0012828707695 99.45927858352661,22.078078985214233 99.45927858352661,22.078078985214233 98.99849891662598,23.767590522766113 98.99849891662598,23.767590522766113 93.31560134887695,23.92118126153946 93.31560134887695,23.92118126153946 93.16216111183167,23.96077960729599 93.16216111183167,23.96077960729599 92.7504301071167,24.065174162387848 92.7504301071167,24.065174162387848 92.15331673622131,24.21276569366455 92.15331673622131,24.21276569366455 91.44369959831238,24.381957948207855 91.44369959831238,24.381957948207855 90.69449305534363,24.55114871263504 90.69449305534363,24.55114871263504 89.9785041809082,24.698740243911743 89.9785041809082,24.698740243911743 89.36886191368103,24.80311542749405 89.36886191368103,24.80311542749405 88.93823623657227,24.842733144760132 88.93823623657227,24.842733144760132 88.62640261650085,24.852631986141205 88.62640261650085,24.852631986141205 88.32986950874329,24.87873136997223 88.32986950874329,24.87873136997223 88.05673122406006,24.915629625320435 88.05673122406006,24.915629625320435 87.81509399414062,24.95792657136917 87.81509399414062,24.95792657136917 87.61305212974548,25.000223517417908 87.61305212974548,25.000223517417908 87.45864033699036,25.037121772766113 87.45864033699036,25.037121772766113 87.36016750335693,25.063201785087585 87.36016750335693,25.063201785087585 87.325519323349,25.07311999797821 87.325519323349,25.07311999797821 86.94813847541809,24.95342642068863 86.94813847541809,24.95342642068863 87.06948161125183,24.595245718955994 87.06948161125183,24.595245718955994 87.17590570449829,24.230502545833588 87.17590570449829,24.230502545833588 87.26694583892822,23.859572410583496 87.26694583892822,23.859572410583496 87.34232187271118,23.482829332351685 87.34232187271118,23.482829332351685 87.40164041519165,23.10059368610382 87.40164041519165,23.10059368610382 87.44438886642456,22.71322011947632 87.44438886642456,22.71322011947632 87.4704122543335,22.32108563184738 87.4704122543335,22.32108563184738 87.4791145324707,21.924488246440887 87.4791145324707,21.924488246440887 87.29777336120605,20.131444931030273 87.29777336120605,20.131444931030273 86.7779016494751,18.46034675836563 86.7779016494751,18.46034675836563 85.95556616783142,16.947263479232788 85.95556616783142,16.947263479232788 84.86692309379578,15.628346800804138 84.86692309379578,15.628346800804138 83.54804515838623,14.539666473865509 83.54804515838623,14.539666473865509 82.03485012054443,13.71733546257019 82.03485012054443,13.71733546257019 80.36378622055054,13.197462260723114 80.36378622055054,13.197462260723114 78.57078313827515,13.01615983247757 78.57078313827515,13.01615983247757 76.77770256996155,13.197462260723114 76.77770256996155,13.197462260723114 75.10656714439392,13.71733546257019 75.10656714439392,13.71733546257019 73.59344959259033,14.539666473865509 73.59344959259033,14.539666473865509 72.27456569671631,15.628346800804138 72.27456569671631,15.628346800804138 71.18592858314514,16.947263479232788 71.18592858314514,16.947263479232788 70.36359310150146,18.46032738685608 70.36359310150146,18.46032738685608 69.84379887580872,20.13142704963684 69.84379887580872,20.13142704963684 69.66245770454407,21.924488246440887 69.66245770454407,21.924488246440887 69.67910528182983,22.47087061405182 69.67910528182983,22.47087061405182 69.72845196723938,23.008592426776886 69.72845196723938,23.008592426776886 69.80937123298645,23.536638915538788 69.80937123298645,23.536638915538788 69.92096900939941,24.054111540317535 69.92096900939941,24.054111540317535 70.06211280822754,24.560073018074036 70.06211280822754,24.560073018074036 70.23182511329651,25.053584575653076 70.23182511329651,25.053584575653076 70.42921781539917,25.53369104862213 70.42921781539917,25.53369104862213 70.65315246582031,25.99947154521942 70.65315246582031,25.99947154521942 70.47886252403259,26.062673330307007 70.47886252403259,26.062673330307007 70.2943742275238,26.120513677597046 70.2943742275238,26.120513677597046 70.09968161582947,26.17200016975403 70.09968161582947,26.17200016975403 69.89471912384033,26.21624767780304 69.89471912384033,26.21624767780304 69.67948079109192,26.252302527427673 69.67948079109192,26.252302527427673 69.4538950920105,26.279208064079285 69.4538950920105,26.279208064079285 69.21780705451965,26.29602551460266 69.21780705451965,26.29602551460266 68.97129416465759,26.301854848861694 68.97129416465759,26.301854848861694 66.59511923789978,26.315054297447205 66.59511923789978,26.315054297447205 61.668479442596436,26.349851489067078 61.668479442596436,26.349851489067078 55.0751268863678,26.399049162864685 55.0751268863678,26.399049162864685 47.698819637298584,26.45544707775116 47.698819637298584,26.45544707775116 40.423306822776794,26.511844992637634 40.423306822776794,26.511844992637634 34.13234055042267,26.56104266643524 34.13234055042267,26.56104266643524 29.709675908088684,26.595821976661682 29.709675908088684,26.595821976661682 28.039062023162842,26.609039306640625 28.039062023162842,26.609039306640625 26.971718668937683,25.999170541763306 26.971718668937683,25.999170541763306 27.195581793785095,25.53340792655945 27.195581793785095,25.53340792655945 27.39289700984955,25.053322315216064 27.39289700984955,25.053322315216064 27.562689781188965,24.559885263442993 27.562689781188965,24.559885263442993 27.70383059978485,24.053962528705597 27.70383059978485,24.053962528705597 27.815350890159607,23.536546528339386 27.815350890159607,23.536546528339386 27.896270155906677,23.00853580236435 27.896270155906677,23.00853580236435 27.945616841316223,22.470852732658386 27.945616841316223,22.470852732658386 27.96226739883423,21.924488246440887 27.96226739883423,21.924488246440887 27.78092622756958,20.131444931030273 27.78092622756958,20.131444931030273 27.261054515838623,18.46034675836563 27.261054515838623,18.46034675836563 26.438722014427185,16.947263479232788 26.438722014427185,16.947263479232788 25.35008192062378,15.628346800804138 25.35008192062378,15.628346800804138 24.031126499176025,14.539666473865509 24.031126499176025,14.539666473865509 22.518080472946167,13.71733546257019 22.518080472946167,13.71733546257019 20.84694504737854,13.197462260723114 20.84694504737854,13.197462260723114 19.05394047498703,13.01615983247757 19.05394047498703,13.01615983247757 17.26085990667343,13.197462260723114 17.26085990667343,13.197462260723114 15.589722990989685,13.71733546257019 15.589722990989685,13.71733546257019 14.076603949069977,14.539666473865509 14.076603949069977,14.539666473865509 12.757723033428192,15.628346800804138 12.757723033428192,15.628346800804138 11.669081449508667,16.947263479232788 11.669081449508667,16.947263479232788 10.846824944019318,18.46032738685608 10.846824944019318,18.46032738685608 10.326952487230301,20.13142704963684 10.326952487230301,20.13142704963684 10.145612061023712,21.924488246440887 10.145612061023712,21.924488246440887 10.15971153974533,22.426660358905792 10.15971153974533,22.426660358905792 10.201258957386017,22.92155921459198 10.201258957386017,22.92155921459198 10.269805788993835,23.408471047878265 10.269805788993835,23.408471047878265 10.36430075764656,23.886683583259583 10.36430075764656,23.886683583259583 10.483994334936142,24.35544580221176 10.483994334936142,24.35544580221176 10.628211498260498,24.81400966644287 10.628211498260498,24.81400966644287 10.795977711677551,25.261661410331726 10.795977711677551,25.261661410331726 10.986767709255219,25.69768726825714 10.986767709255219,25.69768726825714 9.915224462747574,26.22506022453308 9.915224462747574,26.22506022453308 9.64013859629631,26.231059432029724 9.64013859629631,26.231059432029724 8.90967771410942,26.244258880615234 8.90967771410942,26.244258880615234 7.866033166646957,26.257458329200745 7.866033166646957,26.257458329200745 6.6513970494270325,26.263457536697388 6.6513970494270325,26.263457536697388 5.407963320612907,26.255059242248535 5.407963320612907,26.255059242248535 4.277923330664635,26.22506022453308 4.277923330664635,26.22506022453308 3.4034695476293564,26.166245341300964 3.4034695476293564,26.166245341300964 2.9267948120832443,26.071467995643616 2.9267948120832443,26.071467995643616 2.706756442785263,25.932276248931885 2.706756442785263,25.932276248931885 2.505617216229439,25.74988603591919 2.505617216229439,25.74988603591919 2.3206770420074463,25.531497597694397 2.3206770420074463,25.531497597694397 2.1492360159754753,25.284308195114136 2.1492360159754753,25.284308195114136 1.9885946065187454,25.01552402973175 1.9885946065187454,25.01552402973175 1.8360527232289314,24.73233938217163 1.8360527232289314,24.73233938217163 1.688910461962223,24.441935122013092 1.688910461962223,24.441935122013092 1.544468104839325,24.151569604873657 1.544468104839325,24.151569604873657 1.3526283204555511,23.689743876457214 1.3526283204555511,23.689743876457214 1.0896922089159489,22.94803261756897 1.0896922089159489,22.94803261756897 0.7925579324364662,22.028131783008575 0.7925579324364662,22.028131783008575 0.49812360666692257,21.031734347343445 0.49812360666692257,21.031734347343445 0.24328709114342928,20.06053626537323 0.24328709114342928,20.06053626537323 0.06494655390270054,19.216230511665344 0.06494655390270054,19.216230511665344 0.0,18.600495159626007 0.0,18.600495159626007 0.08534547523595393,18.31507831811905 0.08534547523595393,18.31507831811905 0.3430318087339401,18.21923404932022 0.3430318087339401,18.21923404932022 0.7357109803706408,18.109889328479767 0.7357109803706408,18.109889328479767 1.2111857533454895,17.99514591693878 1.2111857533454895,17.99514591693878 1.7172589898109436,17.883101105690002 1.7172589898109436,17.883101105690002 2.2017331793904305,17.781856656074524 2.2017331793904305,17.781856656074524 2.612411417067051,17.699511349201202 2.612411417067051,17.699511349201202 2.897096425294876,17.64414608478546 2.897096425294876,17.64414608478546 3.003590740263462,17.623916268348694 3.003590740263462,17.623916268348694 3.5411622375249863,17.086343467235565 3.5411622375249863,17.086343467235565 3.5209134221076965,16.921353340148926 3.5209134221076965,16.921353340148926 3.465566411614418,16.486376523971558 3.465566411614418,16.486376523971558 3.3832207322120667,15.871408581733704 3.3832207322120667,15.871408581733704 3.2819759100675583,15.166446566581726 3.2819759100675583,15.166446566581726 3.1699318438768387,14.46148306131363 3.1699318438768387,14.46148306131363 3.0551880598068237,13.846515119075775 3.0551880598068237,13.846515119075775 2.9458438977599144,13.411520421504974 2.9458438977599144,13.411520421504974 2.8499988839030266,13.246548175811768 2.8499988839030266,13.246548175811768 2.744254469871521,13.239948451519012 2.744254469871521,13.239948451519012 2.608811669051647,13.222548365592957 2.608811669051647,13.222548365592957 2.4571696296334267,13.197949528694153 2.4571696296334267,13.197949528694153 2.302827872335911,13.169752061367035 2.302827872335911,13.169752061367035 2.159285545349121,13.141553103923798 2.159285545349121,13.141553103923798 2.040041796863079,13.116954267024994 2.040041796863079,13.116954267024994 1.958596147596836,13.099536299705505 1.958596147596836,13.099536299705505 1.9284477457404137,13.092955946922302 1.9284477457404137,13.092955946922302 1.9803449511528015,13.030709326267242 1.9803449511528015,13.030709326267242 2.1564356982707977,12.854167819023132 2.1564356982707977,12.854167819023132 2.487318031489849,12.578633427619934 2.487318031489849,12.578633427619934 3.003590740263462,12.219402194023132 3.003590740263462,12.219402194023132 3.7358518689870834,11.79177463054657 3.7358518689870834,11.79177463054657 4.71469983458519,11.31105050444603 4.71469983458519,11.31105050444603 5.970733240246773,10.792508721351624 5.970733240246773,10.792508721351624 7.534550875425339,10.25150641798973 7.534550875425339,10.25150641798973 9.38575267791748,9.733583778142929 9.38575267791748,9.733583778142929 11.443943530321121,9.275957942008972 11.443943530321121,9.275957942008972 13.649725914001465,8.881328999996185 13.649725914001465,8.881328999996185 15.943704545497894,8.552396297454834 15.943704545497894,8.552396297454834 18.266481161117554,8.291860669851303 18.266481161117554,8.291860669851303 20.558659732341766,8.102420717477798 20.558659732341766,8.102420717477798 22.760842740535736,7.986757904291153 22.760842740535736,7.986757904291153 24.813634157180786,7.947628945112228 24.813634157180786,7.947628945112228 32.26284086704254,7.947628945112228 32.26284086704254,7.947628945112228 32.23119080066681,7.957977801561356 32.23119080066681,7.957977801561356 32.153645157814026,7.9872265458106995 32.153645157814026,7.9872265458106995 32.05629885196686,8.032674342393875 32.05629885196686,8.032674342393875 31.965255737304688,8.091621100902557 31.965255737304688,8.091621100902557 31.906607747077942,8.16136747598648 31.906607747077942,8.16136747598648 31.906458735466003,8.23921337723732 31.906458735466003,8.23921337723732 31.990903615951538,8.322440087795258 31.990903615951538,8.322440087795258 32.18604326248169,8.408404141664505 32.18604326248169,8.408404141664505 32.604220509529114,8.345107734203339 32.604220509529114,8.345107734203339 33.31398367881775,8.017224818468094 33.31398367881775,8.017224818468094 34.275731444358826,7.476953417062759 34.275731444358826,7.476953417062759 35.44987142086029,6.776490807533264 35.44987142086029,6.776490807533264 36.796799302101135,5.968033522367477 36.796799302101135,5.968033522367477 38.2768452167511,5.103779211640358 38.2768452167511,5.103779211640358 39.850637316703796,4.2359065264463425 39.850637316703796,4.2359065264463425 41.47835075855255,3.4166689962148666 41.47835075855255,3.4166689962148666 43.06556582450867,2.6635587215423584 43.06556582450867,2.6635587215423584 44.60058510303497,1.97074543684721 44.60058510303497,1.97074543684721 46.16800248622894,1.355328131467104 46.16800248622894,1.355328131467104 47.85241186618805,0.8344057947397232 47.85241186618805,0.8344057947397232 49.73841309547424,0.4250774625688791 49.73841309547424,0.4250774625688791 51.91052556037903,0.14444234548136592 51.91052556037903,0.14444234548136592 54.45356369018555,0.00958074233494699 54.45356369018555,0.00958074233494699 57.45190382003784,0.037648004945367575 57.45190382003784,0.037648004945367575 60.42894721031189,0.1600415096618235 60.42894721031189,0.1600415096618235 62.938010692596436,0.3112334990873933 62.938010692596436,0.3112334990873933 65.10869860649109,0.5128228105604649 65.10869860649109,0.5128228105604649 67.07059144973755,0.7864083163440228 67.07059144973755,0.7864083163440228 68.95329356193542,1.153588853776455 68.95329356193542,1.153588853776455 70.88631391525269,1.6359632834792137 70.88631391525269,1.6359632834792137 72.99947738647461,2.2551117464900017 72.99947738647461,2.2551117464900017 75.4221498966217,3.032689169049263 75.4221498966217,3.032689169049263 77.88277268409729,3.8591455668210983 77.88277268409729,3.8591455668210983 80.03110885620117,4.604605957865715 80.03110885620117,4.604605957865715 81.87885880470276,5.260071158409119 81.87885880470276,5.260071158409119 83.43772888183594,5.816541612148285 83.43772888183594,5.816541612148285 84.71940755844116,6.265018135309219 84.71940755844116,6.265018135309219 85.73552966117859,6.596500426530838 85.73552966117859,6.596500426530838 86.4980161190033,6.801970303058624 86.4980161190033,6.801970303058624 87.01833486557007,6.87248557806015 87.01833486557007,6.87248557806015 87.7537488937378,6.852686405181885 87.7537488937378,6.852686405181885 89.02822732925415,6.800489127635956 89.02822732925415,6.800489127635956 90.65369367599487,6.726693361997604 90.65369367599487,6.726693361997604 92.44204759597778,6.642097979784012 92.44204759597778,6.642097979784012 94.20520663261414,6.557502597570419 94.20520663261414,6.557502597570419 95.75499892234802,6.483706086874008 95.75499892234802,6.483706086874008 96.90356254577637,6.431490182876587 96.90356254577637,6.431490182876587 97.4625825881958,6.4117103815078735 97.4625825881958,6.4117103815078735 97.59412407875061,6.518354266881943 97.59412407875061,6.518354266881943 97.60777354240417,6.804089248180389 97.60777354240417,6.804089248180389 97.53682613372803,7.217617332935333 97.53682613372803,7.217617332935333 97.41458296775818,7.707641273736954 97.41458296775818,7.707641273736954 97.27434515953064,8.22286382317543 97.27434515953064,8.22286382317543 97.14932441711426,8.711987733840942 97.14932441711426,8.711987733840942 97.07305431365967,9.123697131872177 97.07305431365967,9.123697131872177 97.07860350608826,9.40675139427185 97.07860350608826,9.40675139427185 97.1495509147644,9.619589895009995 97.1495509147644,9.619589895009995 97.24299311637878,9.856727719306946 97.24299311637878,9.856727719306946 97.35263586044312,10.12086346745491 97.35263586044312,10.12086346745491 97.47217893600464,10.414697974920273 97.47217893600464,10.414697974920273 97.59532809257507,10.740930587053299 97.59532809257507,10.740930587053299 97.7156937122345,11.102261394262314 97.7156937122345,11.102261394262314 97.82721400260925,11.50137111544609 97.82721400260925,11.50137111544609 97.92335629463196,11.941017210483551 97.92335629463196,11.941017210483551 98.0012059211731,12.36429437994957 98.0012059211731,12.36429437994957 98.07094931602478,12.720975279808044 98.07094931602478,12.720975279808044 98.14609885215759,13.023659586906433 98.14609885215759,13.023659586906433 98.2401430606842,13.284945487976074 98.2401430606842,13.284945487976074 98.36658239364624,13.517433404922485 98.36658239364624,13.517433404922485 98.53885173797607,13.733722269535065 98.53885173797607,13.733722269535065 98.77066016197205,13.946391642093658 98.77066016197205,13.946391642093658 99.07529950141907,14.16809856891632 99.07529950141907,14.16809856891632 99.37633275985718,14.397436380386353 99.37633275985718,14.397436380386353 99.59726929664612,14.63487446308136 99.59726929664612,14.63487446308136 99.75160956382751,14.895710349082947 99.75160956382751,14.895710349082947 99.852854013443,15.195244550704956 99.852854013443,15.195244550704956 99.91450309753418,15.548776090145111 99.91450309753418,15.548776090145111 99.94997382164001,15.971602499485016 99.94997382164001,15.971602499485016 99.97299909591675,16.4790078997612 99.97299909591675,16.4790078997612" stroke="white" stroke-width="0.1" /><polygon points="63.441985845565796,7.947628945112228 63.441985845565796,7.947628945112228 63.49943280220032,7.7571384608745575 63.49943280220032,7.7571384608745575 63.65152597427368,7.249265909194946 63.65152597427368,7.249265909194946 63.86856436729431,6.519442051649094 63.86856436729431,6.519442051649094 64.12039995193481,5.662987381219864 64.12039995193481,5.662987381219864 64.376962184906,4.775334149599075 64.376962184906,4.775334149599075 64.60825204849243,3.951878100633621 64.60825204849243,3.951878100633621 64.7844135761261,3.287975490093231 64.7844135761261,3.287975490093231 64.87545967102051,2.8790973126888275 64.87545967102051,2.8790973126888275 64.75921869277954,2.643778547644615 64.75921869277954,2.643778547644615 64.3682599067688,2.4360207840800285 64.3682599067688,2.4360207840800285 63.754117488861084,2.2546429187059402 63.754117488861084,2.2546429187059402 62.968313694000244,2.098463661968708 62.968313694000244,2.098463661968708 62.06265687942505,1.966264471411705 62.06265687942505,1.966264471411705 61.08846068382263,1.856864057481289 61.08846068382263,1.856864057481289 60.09761095046997,1.7690625041723251 60.09761095046997,1.7690625041723251 59.14141535758972,1.7016597092151642 59.14141535758972,1.7016597092151642 58.16871523857117,1.6543559730052948 58.16871523857117,1.6543559730052948 57.109469175338745,1.630488596856594 57.109469175338745,1.630488596856594 55.98798394203186,1.6342008486390114 55.98798394203186,1.6342008486390114 54.82801795005798,1.6697114333510399 54.82801795005798,1.6697114333510399 53.65365743637085,1.7412202432751656 53.65365743637085,1.7412202432751656 52.488893270492554,1.8529454246163368 52.488893270492554,1.8529454246163368 51.357728242874146,2.0090309903025627 51.357728242874146,2.0090309903025627 50.284236669540405,2.213732711970806 50.284236669540405,2.213732711970806 49.17144179344177,2.539721503853798 49.17144179344177,2.539721503853798 47.95793294906616,3.0168650671839714 47.95793294906616,3.0168650671839714 46.72042429447174,3.585222363471985 46.72042429447174,3.585222363471985 45.53571045398712,4.184778034687042 45.53571045398712,4.184778034687042 44.480592012405396,4.75553534924984 44.480592012405396,4.75553534924984 43.63178610801697,5.237478390336037 43.63178610801697,5.237478390336037 43.06631684303284,5.570667237043381 43.06631684303284,5.570667237043381 42.8606778383255,5.695047974586487 42.8606778383255,5.695047974586487 43.543216586112976,5.761869624257088 43.543216586112976,5.761869624257088 44.06856298446655,5.913342535495758 44.06856298446655,5.913342535495758 44.457194209098816,6.133212149143219 44.457194209098816,6.133212149143219 44.72935199737549,6.405297666788101 44.72935199737549,6.405297666788101 44.90551948547363,6.713381409645081 44.90551948547363,6.713381409645081 45.00608742237091,7.041320204734802 45.00608742237091,7.041320204734802 45.05146145820618,7.372821867465973 45.05146145820618,7.372821867465973 45.0621098279953,7.691742479801178 45.0621098279953,7.691742479801178 45.03788650035858,7.968664914369583 45.03788650035858,7.968664914369583 44.9741393327713,8.18924680352211 44.9741393327713,8.18924680352211 44.88391876220703,8.359450846910477 44.88391876220703,8.359450846910477 44.78057622909546,8.485274761915207 44.78057622909546,8.485274761915207 44.67723071575165,8.57270136475563 44.67723071575165,8.57270136475563 44.58701014518738,8.627748489379883 44.58701014518738,8.627748489379883 44.5232629776001,8.656378835439682 44.5232629776001,8.656378835439682 44.49903964996338,8.664590865373611 44.49903964996338,8.664590865373611" stroke="white" stroke-width="0.1" /><polygon points="78.85231971740723,7.230966538190842 78.85231971740723,7.230966538190842 78.97973656654358,7.104842364788055 78.97973656654358,7.104842364788055 79.17075157165527,6.894140690565109 79.17075157165527,6.894140690565109 79.36888933181763,6.619861721992493 79.36888933181763,6.619861721992493 79.51790690422058,6.3029661774635315 79.51790690422058,6.3029661774635315 79.56125736236572,5.964471399784088 79.56125736236572,5.964471399784088 79.44276332855225,5.625395476818085 79.44276332855225,5.625395476818085 79.10580635070801,5.306681245565414 79.10580635070801,5.306681245565414 78.49398851394653,5.029383301734924 78.49398851394653,5.029383301734924 77.53373980522156,4.73586767911911 77.53373980522156,4.73586767911911 76.27410292625427,4.379917681217194 76.27410292625427,4.379917681217194 74.84288215637207,3.9999503642320633 74.84288215637207,3.9999503642320633 73.36785793304443,3.634382411837578 73.36785793304443,3.634382411837578 71.97683453559875,3.3215925097465515 71.97683453559875,3.3215925097465515 70.797598361969,3.0999980866909027 70.797598361969,3.0999980866909027 69.95794177055359,3.007996827363968 69.95794177055359,3.007996827363968 69.58566308021545,3.0839864164590836 69.58566308021545,3.0839864164590836 69.54171061515808,3.23185995221138 69.54171061515808,3.23185995221138 69.42561864852905,3.6239389330148697 69.42561864852905,3.6239389330148697 69.26167607307434,4.182790592312813 69.26167607307434,4.182790592312813 69.07366514205933,4.8310186713933945 69.07366514205933,4.8310186713933945 68.88564825057983,5.491265282034874 68.88564825057983,5.491265282034874 68.72163414955139,6.086152419447899 68.72163414955139,6.086152419447899 68.6056137084961,6.538228690624237 68.6056137084961,6.538228690624237 68.5616672039032,6.770191341638565 68.5616672039032,6.770191341638565 68.57831478118896,6.8721480667591095 68.57831478118896,6.8721480667591095 68.63763332366943,6.981305032968521 68.63763332366943,6.981305032968521 68.75335574150085,7.090461254119873 68.75335574150085,7.090461254119873 68.93926858901978,7.192455977201462 68.93926858901978,7.192455977201462 69.20910477638245,7.280033081769943 69.20910477638245,7.280033081769943 69.57681179046631,7.346066832542419 69.57681179046631,7.346066832542419 70.05618810653687,7.383283227682114 70.05618810653687,7.383283227682114 70.66080570220947,7.384558767080307 70.66080570220947,7.384558767080307 71.51890993118286,7.3716215789318085 71.51890993118286,7.3716215789318085 72.66784906387329,7.367684692144394 72.66784906387329,7.367684692144394 73.9861249923706,7.367347180843353 73.9861249923706,7.367347180843353 75.35172700881958,7.3652468621730804 75.35172700881958,7.3652468621730804 76.64293646812439,7.355928421020508 76.64293646812439,7.355928421020508 77.7378797531128,7.334067672491074 77.7378797531128,7.334067672491074 78.5149872303009,7.294188439846039 78.5149872303009,7.294188439846039" stroke="white" stroke-width="0.1" /><polygon points="19.05394047498703,14.244894683361053 19.05394047498703,14.244894683361053 20.601707696914673,14.40090537071228 20.601707696914673,14.40090537071228 22.043131291866302,14.848369359970093 22.043131291866302,14.848369359970093 23.347611725330353,15.55640697479248 23.347611725330353,15.55640697479248 24.48425143957138,16.494138538837433 24.48425143957138,16.494138538837433 25.422000885009766,17.63068437576294 25.422000885009766,17.63068437576294 26.129963994026184,18.93518418073654 26.129963994026184,18.93518418073654 26.57754123210907,20.376719534397125 26.57754123210907,20.376719534397125 26.733532547950745,21.924488246440887 26.733532547950745,21.924488246440887 26.719659566879272,22.388824820518494 26.719659566879272,22.388824820518494 26.678484678268433,22.84579426050186 26.678484678268433,22.84579426050186 26.61098837852478,23.294664919376373 26.61098837852478,23.294664919376373 26.517844200134277,23.734629154205322 26.517844200134277,23.734629154205322 26.400026679039,24.164937436580658 26.400026679039,24.164937436580658 26.258283853530884,24.584820866584778 26.258283853530884,24.584820866584778 26.093366742134094,24.993494153022766 26.093366742134094,24.993494153022766 25.90632736682892,25.390204787254333 25.90632736682892,25.390204787254333 25.37100613117218,26.28888189792633 25.37100613117218,26.28888189792633 24.72228854894638,27.10307538509369 24.72228854894638,27.10307538509369 23.97090345621109,27.821913361549377 23.97090345621109,27.821913361549377 23.12779873609543,28.434443473815918 23.12779873609543,28.434443473815918 22.203773260116577,28.929829597473145 22.203773260116577,28.929829597473145 21.20947539806366,29.29714024066925 21.20947539806366,29.29714024066925 20.156006515026093,29.52553927898407 20.156006515026093,29.52553927898407 19.05394047498703,29.604080319404602 19.05394047498703,29.604080319404602 17.918500304222107,29.52066659927368 17.918500304222107,29.52066659927368 16.834957897663116,29.27837371826172 16.834957897663116,29.27837371826172 15.815161168575287,28.889182209968567 15.815161168575287,28.889182209968567 14.870961010456085,28.364920616149902 14.870961010456085,28.364920616149902 14.01420682668686,27.717575430870056 14.01420682668686,27.717575430870056 13.256746530532837,26.959064602851868 13.256746530532837,26.959064602851868 12.610581517219543,26.101279258728027 12.610581517219543,26.101279258728027 12.08740919828415,25.156214833259583 12.08740919828415,25.156214833259583 11.925717443227768,24.7825488448143 11.925717443227768,24.7825488448143 11.783375591039658,24.399037659168243 11.783375591039658,24.399037659168243 11.66113168001175,24.00626391172409 11.66113168001175,24.00626391172409 11.559662222862244,23.60481023788452 11.559662222862244,23.60481023788452 11.479641497135162,23.195314407348633 11.479641497135162,23.195314407348633 11.42151951789856,22.778354585170746 11.42151951789856,22.778354585170746 11.386346071958542,22.354532778263092 11.386346071958542,22.354532778263092 11.374346911907196,21.924488246440887 11.374346911907196,21.924488246440887 11.5304134786129,20.376738905906677 11.5304134786129,20.376738905906677 11.977840214967728,18.93518418073654 11.977840214967728,18.93518418073654 12.685953080654144,17.630702257156372 12.685953080654144,17.630702257156372 13.62370252609253,16.494138538837433 13.62370252609253,16.494138538837433 14.760267734527588,15.55640697479248 14.760267734527588,15.55640697479248 16.064748167991638,14.848369359970093 16.064748167991638,14.848369359970093 17.506322264671326,14.400885999202728 17.506322264671326,14.400885999202728" stroke="white" stroke-width="0.1" /><polygon points="78.57078313827515,14.244894683361053 78.57078313827515,14.244894683361053 80.11855483055115,14.40090537071228 80.11855483055115,14.40090537071228 81.55997395515442,14.848369359970093 81.55997395515442,14.848369359970093 82.86445736885071,15.55640697479248 82.86445736885071,15.55640697479248 84.0010941028595,16.494138538837433 84.0010941028595,16.494138538837433 84.93884801864624,17.63068437576294 84.93884801864624,17.63068437576294 85.64680814743042,18.93518418073654 85.64680814743042,18.93518418073654 86.0943853855133,20.376719534397125 86.0943853855133,20.376719534397125 86.25037670135498,21.924488246440887 86.25037670135498,21.924488246440887 86.24257445335388,22.27301299571991 86.24257445335388,22.27301299571991 86.21947765350342,22.617563605308533 86.21947765350342,22.617563605308533 86.18130683898926,22.95781970024109 86.18130683898926,22.95781970024109 86.12850904464722,23.29338937997818 86.12850904464722,23.29338937997818 86.06131076812744,23.623991012573242 86.06131076812744,23.623991012573242 85.98016500473022,23.949305713176727 85.98016500473022,23.949305713176727 85.88544726371765,24.268938601017 85.88544726371765,24.268938601017 85.77744960784912,24.582646787166595 85.77744960784912,24.582646787166595 85.29290556907654,25.639978051185608 85.29290556907654,25.639978051185608 84.66016054153442,26.603826880455017 84.66016054153442,26.603826880455017 83.89385342597961,27.45954990386963 83.89385342597961,27.45954990386963 83.00859928131104,28.192543983459473 83.00859928131104,28.192543983459473 82.01902508735657,28.788143396377563 82.01902508735657,28.788143396377563 80.9398353099823,29.231667518615723 80.9398353099823,29.231667518615723 79.78556752204895,29.50851619243622 79.78556752204895,29.50851619243622 78.57078313827515,29.604080319404602 78.57078313827515,29.604080319404602 77.468341588974,29.525485634803772 77.468341588974,29.525485634803772 76.41434669494629,29.296934604644775 76.41434669494629,29.296934604644775 75.41982531547546,28.92937958240509 75.41982531547546,28.92937958240509 74.49550032615662,28.433653712272644 74.49550032615662,28.433653712272644 73.65224361419678,27.82069444656372 73.65224361419678,27.82069444656372 72.90078401565552,27.101445198059082 72.90078401565552,27.101445198059082 72.25207090377808,26.28672420978546 72.25207090377808,26.28672420978546 71.71689867973328,25.38750469684601 71.71689867973328,25.38750469684601 71.53015732765198,24.99096244573593 71.53015732765198,24.99096244573593 71.36561870574951,24.582533538341522 71.36561870574951,24.582533538341522 71.2240993976593,24.162986874580383 71.2240993976593,24.162986874580383 71.10642790794373,23.733054101467133 71.10642790794373,23.733054101467133 71.01358771324158,23.2934832572937 71.01358771324158,23.2934832572937 70.94608545303345,22.84504473209381 70.94608545303345,22.84504473209381 70.90514302253723,22.388450801372528 70.90514302253723,22.388450801372528 70.89118957519531,21.924488246440887 70.89118957519531,21.924488246440887 71.0472583770752,20.376738905906677 71.0472583770752,20.376738905906677 71.49468660354614,18.93518418073654 71.49468660354614,18.93518418073654 72.20272421836853,17.630702257156372 72.20272421836853,17.630702257156372 73.1404721736908,16.494138538837433 73.1404721736908,16.494138538837433 74.27703738212585,15.55640697479248 74.27703738212585,15.55640697479248 75.58151483535767,14.848369359970093 75.58151483535767,14.848369359970093 77.02301740646362,14.400885999202728 77.02301740646362,14.400885999202728" stroke="white" stroke-width="0.1" /></svg>