<?xml version="1.0" encoding="utf-8" ?>
<svg baseProfile="full" height="29.67228591442108" version="1.1" width="100.00007152557373" xmlns="http://www.w3.org/2000/svg" xmlns:ev="http://www.w3.org/2001/xml-events" xmlns:xlink="http://www.w3.org/1999/xlink"><defs><clipPath /></defs><polygon points="99.39612746238708,0.9587742388248444 99.39612746238708,0.9587742388248444 99.45673942565918,0.9812335483729839 99.45673942565918,0.9812335483729839 99.51498508453369,1.0211129672825336 99.51498508453369,1.0211129672825336 99.57023859024048,1.0740987956523895 99.57023859024048,1.0740987956523895 99.62188601493835,1.1358597315847874 99.62188601493835,1.1358597315847874 99.66935515403748,1.202069129794836 99.66935515403748,1.202069129794836 99.71210360527039,1.2684088200330734 99.71210360527039,1.2684088200330734 99.74942803382874,1.330543402582407 99.74942803382874,1.330543402582407 99.78077411651611,1.3841547071933746 99.78077411651611,1.3841547071933746 99.82942938804626,1.4713160693645477 99.82942938804626,1.4713160693645477 99.87488985061646,1.5625739470124245 99.87488985061646,1.5625739470124245 99.91568922996521,1.6572201624512672 99.91568922996521,1.6572201624512672 99.95009303092957,1.7545206472277641 99.95009303092957,1.7545206472277641 99.97657537460327,1.8537653610110283 99.97657537460327,1.8537653610110283 99.99388456344604,1.9542349502444267 99.99388456344604,1.9542349502444267 100.00007152557373,2.055204100906849 100.00007152557373,2.055204100906849 99.99374747276306,2.1559562534093857 99.99374747276306,2.1559562534093857 99.98638033866882,2.2003773599863052 99.98638033866882,2.2003773599863052 99.97636675834656,2.2445227950811386 99.97636675834656,2.2445227950811386 99.96413588523865,2.2884292528033257 99.96413588523865,2.2884292528033257 99.950510263443,2.3321380838751793 99.950510263443,2.3321380838751793 99.93612170219421,2.375683933496475 99.93612170219421,2.375683933496475 99.92166757583618,2.419101633131504 99.92166757583618,2.419101633131504 99.90776777267456,2.4624304845929146 99.90776777267456,2.4624304845929146 99.89504814147949,2.505713514983654 99.89504814147949,2.505713514983654 99.88309144973755,2.549845911562443 99.88309144973755,2.549845911562443 99.87127184867859,2.5940129533410072 99.87127184867859,2.5940129533410072 99.85932111740112,2.638166956603527 99.85932111740112,2.638166956603527 99.8472273349762,2.682260237634182 99.8472273349762,2.682260237634182 99.8347818851471,2.726253680884838 99.8347818851471,2.726253680884838 99.82192516326904,2.770090475678444 99.82192516326904,2.770090475678444 99.80837106704712,2.8137320652604103 99.80837106704712,2.8137320652604103 99.79411959648132,2.8571389615535736 99.79411959648132,2.8571389615535736 99.7661828994751,2.9332008212804794 99.7661828994751,2.9332008212804794 99.73393082618713,3.0078183859586716 99.73393082618713,3.0078183859586716 99.69667196273804,3.0797338113188744 99.69667196273804,3.0797338113188744 99.65372085571289,3.1476940959692 99.65372085571289,3.1476940959692 99.6044397354126,3.2104454934597015 99.6044397354126,3.2104454934597015 99.5482087135315,3.2667435705661774 99.5482087135315,3.2667435705661774 99.48425889015198,3.3153265714645386 99.48425889015198,3.3153265714645386 99.4118332862854,3.354945406317711 99.4118332862854,3.354945406317711 99.15806651115417,3.395085409283638 99.15806651115417,3.395085409283638 98.60340356826782,3.4492764621973038 98.60340356826782,3.4492764621973038 97.85106778144836,3.511539474129677 97.85106778144836,3.511539474129677 97.0041275024414,3.5758893936872482 97.0041275024414,3.5758893936872482 96.16574048995972,3.6363493651151657 96.16574048995972,3.6363493651151657 95.43925523757935,3.6869414150714874 95.43925523757935,3.6869414150714874 94.9276864528656,3.721683844923973 94.9276864528656,3.721683844923973 94.7341799736023,3.7345904856920242 94.7341799736023,3.7345904856920242 97.89714813232422,12.686069309711456 97.89714813232422,12.686069309711456 97.51694798469543,13.164691627025604 97.51694798469543,13.164691627025604 96.79824709892273,13.87699544429779 96.79824709892273,13.87699544429779 96.93740010261536,14.440833032131195 96.93740010261536,14.440833032131195 96.94657325744629,14.457885921001434 96.94657325744629,14.457885921001434 96.97229266166687,14.503754675388336 96.97229266166687,14.503754675388336 97.01240062713623,14.570499956607819 97.01240062713623,14.570499956607819 97.06432223320007,14.650186896324158 97.06432223320007,14.650186896324158 97.12576270103455,14.734876155853271 97.12576270103455,14.734876155853271 97.19429612159729,14.816638827323914 97.19429612159729,14.816638827323914 97.26762771606445,14.887531101703644 97.26762771606445,14.887531101703644 97.34318256378174,14.93961215019226 97.34318256378174,14.93961215019226 97.39809036254883,14.967593550682068 97.39809036254883,14.967593550682068 97.4535584449768,14.994390308856964 97.4535584449768,14.994390308856964 97.50930070877075,15.020625293254852 97.50930070877075,15.020625293254852 97.56490588188171,15.046913921833038 97.56490588188171,15.046913921833038 97.62023091316223,15.073873102664948 97.62023091316223,15.073873102664948 97.67486453056335,15.102121233940125 97.67486453056335,15.102121233940125 97.72845506668091,15.132276713848114 97.72845506668091,15.132276713848114 97.78093099594116,15.164953470230103 97.78093099594116,15.164953470230103 97.93419241905212,15.288636088371277 97.93419241905212,15.288636088371277 98.05763959884644,15.433931350708008 98.05763959884644,15.433931350708008 98.15418124198914,15.596875548362732 98.15418124198914,15.596875548362732 98.22660684585571,15.77351838350296 98.22660684585571,15.77351838350296 98.27776551246643,15.95989316701889 98.27776551246643,15.95989316701889 98.3105719089508,16.152046620845795 98.3105719089508,16.152046620845795 98.32795262336731,16.34601801633835 98.32795262336731,16.34601801633835 98.33253622055054,16.537848114967346 98.33253622055054,16.537848114967346 98.32642078399658,16.757163405418396 98.32642078399658,16.757163405418396 98.31050634384155,16.976337134838104 98.31050634384155,16.976337134838104 98.28603863716125,17.1951562166214 98.28603863716125,17.1951562166214 98.25441241264343,17.41340607404709 98.25441241264343,17.41340607404709 98.21694493293762,17.630866169929504 98.21694493293762,17.630866169929504 98.1747567653656,17.847320437431335 98.1747567653656,17.847320437431335 98.12915921211243,18.06255429983139 98.12915921211243,18.06255429983139 98.08148145675659,18.276347219944 98.08148145675659,18.276347219944 98.03045988082886,18.49544793367386 98.03045988082886,18.49544793367386 97.97722101211548,18.713967502117157 97.97722101211548,18.713967502117157 97.92189002037048,18.931974470615387 97.92189002037048,18.931974470615387 97.86489605903625,19.1495418548584 97.86489605903625,19.1495418548584 97.8063702583313,19.366736710071564 97.8063702583313,19.366736710071564 97.74673581123352,19.583630561828613 97.74673581123352,19.583630561828613 97.68640398979187,19.80029046535492 97.68640398979187,19.80029046535492 97.62537479400635,20.01679241657257 97.62537479400635,20.01679241657257 97.57623672485352,20.192386209964752 97.57623672485352,20.192386209964752 97.52883315086365,20.3671395778656 97.52883315086365,20.3671395778656 97.48386144638062,20.54160237312317 97.48386144638062,20.54160237312317 97.44173884391785,20.71632444858551 97.44173884391785,20.71632444858551 97.40337133407593,20.891864597797394 97.40337133407593,20.891864597797394 97.36924767494202,21.068769693374634 97.36924767494202,21.068769693374634 97.34005331993103,21.24759405851364 97.34005331993103,21.24759405851364 97.31649160385132,21.42888903617859 97.31649160385132,21.42888903617859 97.30432629585266,21.56451791524887 97.30432629585266,21.56451791524887 97.29772210121155,21.699441969394684 97.29772210121155,21.699441969394684 97.29521870613098,21.833890676498413 97.29521870613098,21.833890676498413 97.29536175727844,21.96810394525528 97.29536175727844,21.96810394525528 97.29702472686768,22.10230827331543 97.29702472686768,22.10230827331543 97.29869365692139,22.236740589141846 97.29869365692139,22.236740589141846 97.29897379875183,22.371631860733032 97.29897379875183,22.371631860733032 97.29661345481873,22.507214546203613 97.29661345481873,22.507214546203613 97.28729724884033,22.78088480234146 97.28729724884033,22.78088480234146 97.27631211280823,23.054523766040802 97.27631211280823,23.054523766040802 97.26394414901733,23.328129947185516 97.26394414901733,23.328129947185516 97.25045561790466,23.601700365543365 97.25045561790466,23.601700365543365 97.23607301712036,23.87523353099823 97.23607301712036,23.87523353099823 97.22098708152771,24.148721992969513 97.22098708152771,24.148721992969513 97.20548987388611,24.422165751457214 97.20548987388611,24.422165751457214 97.18970656394958,24.695561826229095 97.18970656394958,24.695561826229095 84.98323559761047,26.261407136917114 84.98323559761047,26.261407136917114 84.11648869514465,25.56939721107483 84.11648869514465,25.56939721107483 84.43462252616882,24.574358761310577 84.43462252616882,24.574358761310577 84.62152481079102,23.554784059524536 84.62152481079102,23.554784059524536 84.67921614646912,22.524338960647583 84.67921614646912,22.524338960647583 84.60935950279236,21.496693789958954 84.60935950279236,21.496693789958954 84.41383838653564,20.48550397157669 84.41383838653564,20.48550397157669 84.09452438354492,19.504442811012268 84.09452438354492,19.504442811012268 83.65315794944763,18.567167222499847 83.65315794944763,18.567167222499847 83.09168219566345,17.687349021434784 83.09168219566345,17.687349021434784 82.48308300971985,16.952228546142578 82.48308300971985,16.952228546142578 81.79767727851868,16.29622131586075 81.79767727851868,16.29622131586075 81.04464411735535,15.724395215511322 81.04464411735535,15.724395215511322 80.23329377174377,15.241827070713043 80.23329377174377,15.241827070713043 79.37294244766235,14.853587746620178 79.37294244766235,14.853587746620178 78.472900390625,14.564751088619232 78.472900390625,14.564751088619232 77.54241228103638,14.380386471748352 77.54241228103638,14.380386471748352 76.59086585044861,14.30557370185852 76.59086585044861,14.30557370185852 75.63403844833374,14.344026148319244 75.63403844833374,14.344026148319244 74.69437718391418,14.493082463741302 74.69437718391418,14.493082463741302 73.78147840499878,14.748091995716095 73.78147840499878,14.748091995716095 72.9047954082489,15.104395151138306 72.9047954082489,15.104395151138306 72.0738410949707,15.557344257831573 72.0738410949707,15.557344257831573 71.29808068275452,16.102278232574463 71.29808068275452,16.102278232574463 70.58709263801575,16.734549403190613 70.58709263801575,16.734549403190613 69.95034217834473,17.449496686458588 69.95034217834473,17.449496686458588 69.34855580329895,18.32355707883835 69.34855580329895,18.32355707883835 68.86875033378601,19.261080026626587 68.86875033378601,19.261080026626587 68.51336359977722,20.24778574705124 68.51336359977722,20.24778574705124 68.2846188545227,21.269388496875763 68.2846188545227,21.269388496875763 68.18508505821228,22.31161892414093 68.18508505821228,22.31161892414093 68.2170569896698,23.360194265842438 68.2170569896698,23.360194265842438 68.38297247886658,24.40083622932434 68.38297247886658,24.40083622932434 68.68518590927124,25.419265031814575 68.68518590927124,25.419265031814575 67.26071834564209,26.724043488502502 67.26071834564209,26.724043488502502 25.694650411605835,27.044329047203064 25.694650411605835,27.044329047203064 24.048593640327454,25.680053234100342 24.048593640327454,25.680053234100342 24.088698625564575,25.5802720785141 24.088698625564575,25.5802720785141 24.127553403377533,25.47997534275055 24.127553403377533,25.47997534275055 24.165086448192596,25.379180908203125 24.165086448192596,25.379180908203125 24.201230704784393,25.27790367603302 24.201230704784393,25.27790367603302 24.236123263835907,25.176167488098145 24.236123263835907,25.176167488098145 24.269624054431915,25.073984265327454 24.269624054431915,25.073984265327454 24.30187612771988,24.97137188911438 24.30187612771988,24.97137188911438 24.332736432552338,24.868354201316833 24.332736432552338,24.868354201316833 24.55967515707016,23.852629959583282 24.55967515707016,23.852629959583282 24.654482305049896,22.82441258430481 24.654482305049896,22.82441258430481 24.620355665683746,21.796931326389313 24.620355665683746,21.796931326389313 24.46042001247406,20.78341692686081 24.46042001247406,20.78341692686081 24.177667498588562,19.797100126743317 24.177667498588562,19.797100126743317 23.775292932987213,18.85121464729309 23.775292932987213,18.85121464729309 23.25635701417923,17.95899122953415 23.25635701417923,17.95899122953415 22.62384742498398,17.13365912437439 22.62384742498398,17.13365912437439 21.949772536754608,16.44860953092575 21.949772536754608,16.44860953092575 21.20535671710968,15.850742161273956 21.20535671710968,15.850742161273956 20.400330424308777,15.344184637069702 20.400330424308777,15.344184637069702 19.544565677642822,14.933061599731445 19.544565677642822,14.933061599731445 18.647651374340057,14.621502161026001 18.647651374340057,14.621502161026001 17.71959960460663,14.413627982139587 17.71959960460663,14.413627982139587 16.770139336586,14.31356817483902 16.770139336586,14.31356817483902 15.80900102853775,14.325451850891113 15.80900102853775,14.325451850891113 14.866352081298828,14.44968730211258 14.866352081298828,14.44968730211258 13.949976861476898,14.681769907474518 13.949976861476898,14.681769907474518 13.069051504135132,15.016089379787445 13.069051504135132,15.016089379787445 12.232330441474915,15.447045862674713 12.232330441474915,15.447045862674713 11.44912987947464,15.969033539295197 11.44912987947464,15.969033539295197 10.728276520967484,16.57644957304001 10.728276520967484,16.57644957304001 10.078876465559006,17.263689637184143 10.078876465559006,17.263689637184143 9.509894996881485,18.025150895118713 9.509894996881485,18.025150895118713 8.977752178907394,18.96311193704605 8.977752178907394,18.96311193704605 8.577324450016022,19.955505430698395 8.577324450016022,19.955505430698395 8.309515565633774,20.987048745155334 8.309515565633774,20.987048745155334 8.17536786198616,22.04245924949646 8.17536786198616,22.04245924949646 8.17592442035675,23.1064572930336 8.17592442035675,23.1064572930336 8.312296122312546,24.16376620531082 8.312296122312546,24.16376620531082 8.585526794195175,25.199103355407715 8.585526794195175,25.199103355407715 8.996519446372986,26.19718313217163 8.996519446372986,26.19718313217163 7.509494572877884,27.257853746414185 7.509494572877884,27.257853746414185 7.183925807476044,27.233633399009705 7.183925807476044,27.233633399009705 6.326214224100113,27.16464102268219 6.326214224100113,27.16464102268219 5.114922299981117,27.056387066841125 5.114922299981117,27.056387066841125 3.7284042686223984,26.914384961128235 3.7284042686223984,26.914384961128235 2.3451531305909157,26.744142174720764 2.3451531305909157,26.744142174720764 1.1438008397817612,26.55116617679596 1.1438008397817612,26.55116617679596 0.3027708036825061,26.340967416763306 0.3027708036825061,26.340967416763306 0.0005560529189096997,26.119056344032288 0.0005560529189096997,26.119056344032288 0.15701544471085072,26.039958000183105 0.15701544471085072,26.039958000183105 0.3503828542307019,25.944113731384277 0.3503828542307019,25.944113731384277 0.56279506534338,25.839942693710327 0.56279506534338,25.839942693710327 0.7765279151499271,25.735849142074585 0.7765279151499271,25.735849142074585 0.9737877175211906,25.640246272087097 0.9737877175211906,25.640246272087097 1.1367111466825008,25.56154727935791 1.1367111466825008,25.56154727935791 1.2475047260522842,25.508159399032593 1.2475047260522842,25.508159399032593 1.2883746065199375,25.488492846488953 1.2883746065199375,25.488492846488953 1.2340204790234566,25.197625160217285 1.2340204790234566,25.197625160217285 1.0906977578997612,24.428066611289978 1.0906977578997612,24.428066611289978 0.8877384476363659,23.33439588546753 0.8877384476363659,23.33439588546753 0.6543352734297514,22.07118272781372 0.6543352734297514,22.07118272781372 0.42009796015918255,20.793001353740692 0.42009796015918255,20.793001353740692 0.21421939600259066,19.654427468776703 0.21421939600259066,19.654427468776703 0.06603128276765347,18.810032308101654 0.06603128276765347,18.810032308101654 0.005004476406611502,18.414387106895447 0.005004476406611502,18.414387106895447 0.0011816124242614023,18.32948476076126 0.0011816124242614023,18.32948476076126 0.0013206256880948786,18.244116008281708 0.0013206256880948786,18.244116008281708 0.006742141704307869,18.159089982509613 0.006742141704307869,18.159089982509613 0.018349746824242175,18.075212836265564 0.018349746824242175,18.075212836265564 0.037603077362291515,17.993299663066864 0.037603077362291515,17.993299663066864 0.06554473657160997,17.91415512561798 0.06554473657160997,17.91415512561798 0.10342583991587162,17.83859431743622 0.10342583991587162,17.83859431743622 0.15235849423334002,17.767420411109924 0.15235849423334002,17.767420411109924 0.28136277105659246,17.693082988262177 0.28136277105659246,17.693082988262177 0.548615725710988,17.596250772476196 0.548615725710988,17.596250772476196 0.918460451066494,17.485879361629486 0.918460451066494,17.485879361629486 1.355378981679678,17.37091988325119 1.355378981679678,17.37091988325119 1.8237145617604256,17.26032644510269 1.8237145617604256,17.26032644510269 2.2878797724843025,17.163051664829254 2.2878797724843025,17.163051664829254 2.712148055434227,17.08804965019226 2.712148055434227,17.08804965019226 3.0610714107751846,17.044273018836975 3.0610714107751846,17.044273018836975 3.0373001471161842,16.826730966567993 3.0373001471161842,16.826730966567993 3.0097754672169685,16.609078645706177 3.0097754672169685,16.609078645706177 2.978358417749405,16.39164239168167 2.978358417749405,16.39164239168167 2.942562475800514,16.174745559692383 2.942562475800514,16.174745559692383 2.9021792113780975,15.95870554447174 2.9021792113780975,15.95870554447174 2.8569303452968597,15.743851661682129 2.8569303452968597,15.743851661682129 2.806399017572403,15.530501306056976 2.806399017572403,15.530501306056976 2.7503767982125282,15.318979322910309 2.7503767982125282,15.318979322910309 2.717708609998226,15.203163027763367 2.717708609998226,15.203163027763367 2.6821212843060493,15.083099901676178 2.6821212843060493,15.083099901676178 2.6420854032039642,14.9614617228508 2.6420854032039642,14.9614617228508 2.5962110608816147,14.840912818908691 2.5962110608816147,14.840912818908691 2.5432471185922623,14.724116027355194 2.5432471185922623,14.724116027355194 2.4816641584038734,14.613740146160126 2.4816641584038734,14.613740146160126 2.410072274506092,14.512445032596588 2.410072274506092,14.512445032596588 2.3272205144166946,14.422900974750519 2.3272205144166946,14.422900974750519 2.2732138633728027,14.349475502967834 2.2732138633728027,14.349475502967834 2.236722782254219,14.254240691661835 2.236722782254219,14.254240691661835 2.2144807502627373,14.14693295955658 2.2144807502627373,14.14693295955658 2.203359641134739,14.037294685840607 2.203359641134739,14.037294685840607 2.200162410736084,13.935066759586334 2.200162410736084,13.935066759586334 2.2018305957317352,13.849985599517822 2.2018305957317352,13.849985599517822 2.205166779458523,13.791793584823608 2.205166779458523,13.791793584823608 2.2069741040468216,13.77023309469223 2.2069741040468216,13.77023309469223 2.185427024960518,13.754233717918396 2.185427024960518,13.754233717918396 2.12843157351017,13.709685206413269 2.12843157351017,13.709685206413269 2.04703938215971,13.64176720380783 2.04703938215971,13.64176720380783 1.9523713737726212,13.55566680431366 1.9523713737726212,13.55566680431366 1.8556876108050346,13.456559181213379 1.8556876108050346,13.456559181213379 1.7682483419775963,13.34962248802185 1.7682483419775963,13.34962248802185 1.701035350561142,13.240040838718414 1.701035350561142,13.240040838718414 1.6653785482048988,13.13299685716629 1.6653785482048988,13.13299685716629 1.6603045165538788,13.05312067270279 1.6603045165538788,13.05312067270279 1.6698269173502922,12.979285418987274 1.6698269173502922,12.979285418987274 1.6923470422625542,12.911370396614075 1.6923470422625542,12.911370396614075 1.7261967062950134,12.849253416061401 1.7261967062950134,12.849253416061401 1.7699165269732475,12.792813777923584 1.7699165269732475,12.792813777923584 1.8217682838439941,12.741924822330475 1.8217682838439941,12.741924822330475 1.8802929669618607,12.696464359760284 1.8802929669618607,12.696464359760284 1.9436830654740334,12.656320631504059 1.9436830654740334,12.656320631504059 2.0986827090382576,12.57142722606659 2.0986827090382576,12.57142722606659 2.257157862186432,12.492050230503082 2.257157862186432,12.492050230503082 2.4184826761484146,12.417326122522354 2.4184826761484146,12.417326122522354 2.581823244690895,12.346390634775162 2.581823244690895,12.346390634775162 2.7464844286441803,12.278374284505844 2.7464844286441803,12.278374284505844 2.9117710888385773,12.21240758895874 2.9117710888385773,12.21240758895874 3.0769187957048416,12.147630006074905 3.0769187957048416,12.147630006074905 3.2412324100732803,12.08316907286644 3.2412324100732803,12.08316907286644 3.91850508749485,11.820290237665176 3.91850508749485,11.820290237665176 4.5986272394657135,11.564584076404572 4.5986272394657135,11.564584076404572 5.281251668930054,11.315038055181503 5.281251668930054,11.315038055181503 5.965752899646759,11.070631444454193 5.965752899646759,11.070631444454193 6.651782989501953,10.830355435609818 6.651782989501953,10.830355435609818 7.3387861251831055,10.593203455209732 7.3387861251831055,10.593203455209732 8.02648514509201,10.358154028654099 8.02648514509201,10.358154028654099 8.714183419942856,10.124194622039795 8.714183419942856,10.124194622039795 8.949671685695648,10.044266283512115 8.949671685695648,10.044266283512115 9.185229986906052,9.964518249034882 9.185229986906052,9.964518249034882 9.420926868915558,9.884948283433914 9.420926868915558,9.884948283433914 9.656553715467453,9.805558621883392 9.656553715467453,9.805558621883392 9.89232063293457,9.726344794034958 9.89232063293457,9.726344794034958 10.128086805343628,9.647303074598312 10.128086805343628,9.647303074598312 10.363992303609848,9.568434953689575 10.363992303609848,9.568434953689575 10.599897801876068,9.489738196134567 10.599897801876068,9.489738196134567 10.780198127031326,9.423650056123734 10.780198127031326,9.423650056123734 10.955215245485306,9.348741918802261 10.955215245485306,9.348741918802261 11.126063019037247,9.266739338636398 11.126063019037247,9.266739338636398 11.293990910053253,9.17937383055687 11.293990910053253,9.17937383055687 11.460250616073608,9.088380634784698 11.460250616073608,9.088380634784698 11.626163125038147,8.995487540960312 11.626163125038147,8.995487540960312 11.792700737714767,8.902429044246674 11.792700737714767,8.902429044246674 11.961254477500916,8.810936659574509 11.961254477500916,8.810936659574509 12.64568567276001,8.489466458559036 12.64568567276001,8.489466458559036 13.351386785507202,8.233015239238739 13.351386785507202,8.233015239238739 14.07439410686493,8.033500611782074 14.07439410686493,8.033500611782074 14.810816943645477,7.8828491270542145 14.810816943645477,7.8828491270542145 15.556693077087402,7.772974669933319 15.556693077087402,7.772974669933319 16.30805879831314,7.695798575878143 16.30805879831314,7.695798575878143 17.060816287994385,7.643238455057144 17.060816287994385,7.643238455057144 17.811208963394165,7.607220858335495 17.811208963394165,7.607220858335495 19.018886983394623,7.566642016172409 19.018886983394623,7.566642016172409 20.894940197467804,7.514961808919907 20.894940197467804,7.514961808919907 23.179760575294495,7.461239397525787 23.179760575294495,7.461239397525787 25.613674521446228,7.414530962705612 25.613674521446228,7.414530962705612 27.93707251548767,7.383900880813599 27.93707251548767,7.383900880813599 29.89048659801483,7.3784030973911285 29.89048659801483,7.3784030973911285 31.214377284049988,7.4071004986763 31.214377284049988,7.4071004986763 31.648865342140198,7.4790507555007935 31.648865342140198,7.4790507555007935 31.541547179222107,7.581254094839096 31.541547179222107,7.581254094839096 31.423315405845642,7.690440118312836 31.423315405845642,7.690440118312836 31.309673190116882,7.800254225730896 31.309673190116882,7.800254225730896 31.21618628501892,7.90434405207634 31.21618628501892,7.90434405207634 31.158563494682312,7.996357977390289 31.158563494682312,7.996357977390289 31.152239441871643,8.069950342178345 31.152239441871643,8.069950342178345 31.21291995048523,8.11876356601715 31.21291995048523,8.11876356601715 31.356242299079895,8.13644453883171 31.356242299079895,8.13644453883171 31.640592217445374,8.065897226333618 31.640592217445374,8.065897226333618 32.08300173282623,7.875444740056992 32.08300173282623,7.875444740056992 32.63669312000275,7.596862316131592 32.63669312000275,7.596862316131592 33.255162835121155,7.261929661035538 33.255162835121155,7.261929661035538 33.89149606227875,6.9024257361888885 33.89149606227875,6.9024257361888885 34.49905216693878,6.550122797489166 34.49905216693878,6.550122797489166 35.03112494945526,6.236806884407997 35.03112494945526,6.236806884407997 35.44100522994995,5.994250625371933 35.44100522994995,5.994250625371933 35.781171917915344,5.793115869164467 35.781171917915344,5.793115869164467 36.12105846405029,5.591359734535217 36.12105846405029,5.591359734535217 36.460527777671814,5.389036983251572 36.460527777671814,5.389036983251572 36.79971992969513,5.186201259493828 36.79971992969513,5.186201259493828 37.13856637477875,4.982909560203552 37.13856637477875,4.982909560203552 37.477272748947144,4.7792185097932816 37.477272748947144,4.7792185097932816 37.815698981285095,4.5751772820949554 37.815698981285095,4.5751772820949554 38.15398812294006,4.370854049921036 38.15398812294006,4.370854049921036 38.41012120246887,4.215819388628006 38.41012120246887,4.215819388628006 38.66611421108246,4.0609825402498245 38.66611421108246,4.0609825402498245 38.922592997550964,3.9069365710020065 38.922592997550964,3.9069365710020065 39.1797661781311,3.7542782723903656 39.1797661781311,3.7542782723903656 39.43805396556854,3.603609651327133 39.43805396556854,3.603609651327133 39.69793915748596,3.4555234014987946 39.69793915748596,3.4555234014987946 39.959701895713806,3.31062413752079 39.959701895713806,3.31062413752079 40.223896503448486,3.1695015728473663 40.223896503448486,3.1695015728473663 40.641769766807556,2.954365685582161 40.641769766807556,2.954365685582161 41.062840819358826,2.745168097317219 41.062840819358826,2.745168097317219 41.48676097393036,2.541893906891346 41.48676097393036,2.541893906891346 41.913601756095886,2.344527654349804 41.913601756095886,2.344527654349804 42.34308302402496,2.1530499681830406 42.34308302402496,2.1530499681830406 42.77506470680237,1.9674498587846756 42.77506470680237,1.9674498587846756 43.209412693977356,1.7877036705613136 43.209412693977356,1.7877036705613136 43.64612400531769,1.6138045117259026 43.64612400531769,1.6138045117259026 44.15122866630554,1.4209975488483906 44.15122866630554,1.4209975488483906 44.66008543968201,1.236522663384676 44.66008543968201,1.236522663384676 45.17241716384888,1.0615267790853977 45.17241716384888,1.0615267790853977 45.68836688995361,0.8971740491688251 45.68836688995361,0.8971740491688251 46.207788586616516,0.7446243427693844 46.207788586616516,0.7446243427693844 46.73068821430206,0.6050290074199438 46.73068821430206,0.6050290074199438 47.257059812545776,0.47955652698874474 47.257059812545776,0.47955652698874474 47.78663218021393,0.3693581558763981 47.78663218021393,0.3693581558763981 48.20394814014435,0.2973666647449136 48.20394814014435,0.2973666647449136 48.62196147441864,0.2403712598606944 48.62196147441864,0.2403712598606944 49.04053211212158,0.19615201745182276 49.04053211212158,0.19615201745182276 49.45979416370392,0.1624890835955739 49.45979416370392,0.1624890835955739 49.87982213497162,0.13715827371925116 49.87982213497162,0.13715827371925116 50.30054450035095,0.11794404126703739 50.30054450035095,0.11794404126703739 50.72224140167236,0.10261782445013523 50.72224140167236,0.10261782445013523 51.14477276802063,0.08896846557036042 51.14477276802063,0.08896846557036042 51.58565640449524,0.07535385666415095 51.58565640449524,0.07535385666415095 52.02653408050537,0.0626949651632458 52.02653408050537,0.0626949651632458 52.467554807662964,0.051052606431767344 52.467554807662964,0.051052606431767344 52.908432483673096,0.04048760456498712 52.908432483673096,0.04048760456498712 53.34952473640442,0.031056423904374242 53.34952473640442,0.031056423904374242 53.79054546356201,0.022815546253696084 53.79054546356201,0.022815546253696084 54.23156023025513,0.01582578697707504 54.23156023025513,0.01582578697707504 54.67265248298645,0.01014796580420807 54.67265248298645,0.01014796580420807 55.6948184967041,0.0016377496649511158 55.6948184967041,0.0016377496649511158 56.717538833618164,0.00046048130570852663 56.717538833618164,0.00046048130570852663 57.74039626121521,0.008253910345956683 57.74039626121521,0.008253910345956683 58.763188123703,0.02667316293809563 58.763188123703,0.02667316293809563 59.78555679321289,0.05736033199355006 59.78555679321289,0.05736033199355006 60.807234048843384,0.10196620132774115 60.807234048843384,0.10196620132774115 61.82801127433777,0.16214156057685614 61.82801127433777,0.16214156057685614 62.84746527671814,0.2395197981968522 62.84746527671814,0.2395197981968522 63.29731345176697,0.2796337939798832 63.29731345176697,0.2796337939798832 63.74715566635132,0.32409196719527245 63.74715566635132,0.32409196719527245 64.19651508331299,0.373702310025692 64.19651508331299,0.373702310025692 64.64518308639526,0.4292902071028948 64.64518308639526,0.4292902071028948 65.09287357330322,0.491659389808774 65.09287357330322,0.491659389808774 65.53938388824463,0.5616264883428812 65.53938388824463,0.5616264883428812 65.98429679870605,0.6399951875209808 65.98429679870605,0.6399951875209808 66.4276123046875,0.7275952491909266 66.4276123046875,0.7275952491909266 66.72259569168091,0.7918019779026508 66.72259569168091,0.7918019779026508 67.01667904853821,0.8604137226939201 67.01667904853821,0.8604137226939201 67.30999946594238,0.9327396750450134 67.30999946594238,0.9327396750450134 67.60268807411194,1.0080891661345959 67.60268807411194,1.0080891661345959 67.89475679397583,1.0857715271413326 67.89475679397583,1.0857715271413326 68.1864082813263,1.165095902979374 68.1864082813263,1.165095902979374 68.4775710105896,1.2453674338757992 68.4775710105896,1.2453674338757992 68.76845359802246,1.3259082101285458 68.76845359802246,1.3259082101285458 70.00998258590698,1.686682179570198 70.00998258590698,1.686682179570198 72.04284071922302,2.294817380607128 72.04284071922302,2.294817380607128 74.5947778224945,3.066149726510048 74.5947778224945,3.066149726510048 77.39359736442566,3.916523978114128 77.39359736442566,3.916523978114128 80.16698360443115,4.761776700615883 80.16698360443115,4.761776700615883 82.6428771018982,5.517743527889252 82.6428771018982,5.517743527889252 84.54895615577698,6.10026977956295 84.54895615577698,6.10026977956295 85.61310172080994,6.4251914620399475 85.61310172080994,6.4251914620399475 85.76143383979797,6.470092386007309 85.76143383979797,6.470092386007309 85.90899705886841,6.513727456331253 85.90899705886841,6.513727456331253 86.0562801361084,6.555381417274475 86.0562801361084,6.555381417274475 86.20384335517883,6.594353169202805 86.20384335517883,6.594353169202805 86.35223507881165,6.629929691553116 86.35223507881165,6.629929691553116 86.50202751159668,6.661398708820343 86.50202751159668,6.661398708820343 86.65368556976318,6.6880568861961365 86.65368556976318,6.6880568861961365 86.807781457901,6.709195673465729 86.807781457901,6.709195673465729 87.2670829296112,6.747730076313019 87.2670829296112,6.747730076313019 87.83411979675293,6.7740753293037415 87.83411979675293,6.7740753293037415 88.45676183700562,6.790405511856079 88.45676183700562,6.790405511856079 89.08287286758423,6.798893958330154 89.08287286758423,6.798893958330154 89.66054320335388,6.80171325802803 89.66054320335388,6.80171325802803 90.13757109642029,6.80103525519371 90.13757109642029,6.80103525519371 90.4619574546814,6.799034774303436 90.4619574546814,6.799034774303436 90.58171510696411,6.797885894775391 90.58171510696411,6.797885894775391 91.56690239906311,3.912527486681938 91.56690239906311,3.912527486681938 91.10426902770996,3.8413524627685547 91.10426902770996,3.8413524627685547 91.1105215549469,3.802928328514099 91.1105215549469,3.802928328514099 91.12963676452637,3.69928739964962 91.12963676452637,3.69928739964962 91.16223454475403,3.5478781908750534 91.16223454475403,3.5478781908750534 91.20901226997375,3.3661533147096634 91.20901226997375,3.3661533147096634 91.2704586982727,3.171556442975998 91.2704586982727,3.171556442975998 91.34733080863953,2.981540560722351 91.34733080863953,2.981540560722351 91.44018888473511,2.8135495260357857 91.44018888473511,2.8135495260357857 91.54966473579407,2.685040608048439 91.54966473579407,2.685040608048439 91.69535040855408,2.5690773501992226 91.69535040855408,2.5690773501992226 91.84958338737488,2.466142550110817 91.84958338737488,2.466142550110817 92.01105237007141,2.3749062791466713 92.01105237007141,2.3749062791466713 92.17842221260071,2.2940311580896378 92.17842221260071,2.2940311580896378 92.35038161277771,2.2221872583031654 92.35038161277771,2.2221872583031654 92.52547025680542,2.158045768737793 92.52547025680542,2.158045768737793 92.70243048667908,2.100268378853798 92.70243048667908,2.100268378853798 92.87987947463989,2.047525905072689 92.87987947463989,2.047525905072689 93.03133487701416,2.005283161997795 93.03133487701416,2.005283161997795 93.18335056304932,1.9649716094136238 93.18335056304932,1.9649716094136238 93.33577752113342,1.9264105707406998 93.33577752113342,1.9264105707406998 93.48862171173096,1.8894156441092491 93.48862171173096,1.8894156441092491 93.64181160926819,1.8538065254688263 93.64181160926819,1.8538065254688263 93.79521608352661,1.8194116652011871 93.79521608352661,1.8194116652011871 93.948894739151,1.7860420048236847 93.948894739151,1.7860420048236847 94.10264492034912,1.7535129562020302 94.10264492034912,1.7535129562020302 94.64660286903381,1.6501609236001968 94.64660286903381,1.6501609236001968 95.38080096244812,1.524844765663147 95.38080096244812,1.524844765663147 96.22690677642822,1.3891201466321945 96.22690677642822,1.3891201466321945 97.10658192634583,1.254542265087366 97.10658192634583,1.254542265087366 97.94170260429382,1.132662408053875 97.94170260429382,1.132662408053875 98.65386486053467,1.0350403375923634 98.65386486053467,1.0350403375923634 99.16467070579529,0.973227247595787 99.16467070579529,0.973227247595787" stroke="white" stroke-width="0.1" /><polygon points="28.553596138954163,20.25909274816513 28.553596138954163,20.25909274816513 32.444435358047485,20.3066349029541 32.444435358047485,20.3066349029541 29.028046131134033,19.64215189218521 29.028046131134033,19.64215189218521 29.027214646339417,19.630742073059082 29.027214646339417,19.630742073059082 29.026171565055847,19.619345664978027 29.026171565055847,19.619345664978027 29.02519702911377,19.60795968770981 29.02519702911377,19.60795968770981 29.024016857147217,19.596590101718903 29.024016857147217,19.596590101718903 29.022765159606934,19.58523541688919 29.022765159606934,19.58523541688919 29.021582007408142,19.573888182640076 29.021582007408142,19.573888182640076 29.020261764526367,19.562554359436035 29.020261764526367,19.562554359436035 29.019013047218323,19.551236927509308 29.019013047218323,19.551236927509308 29.002121090888977,19.42054182291031 29.002121090888977,19.42054182291031 28.98259162902832,19.290150701999664 28.98259162902832,19.290150701999664 28.96069586277008,19.160069525241852 28.96069586277008,19.160069525241852 28.93671691417694,19.03030276298523 28.93671691417694,19.03030276298523 28.91099750995636,18.900854885578156 28.91099750995636,18.900854885578156 28.88389229774475,18.771731853485107 28.88389229774475,18.771731853485107 28.855672478675842,18.642938137054443 28.855672478675842,18.642938137054443 28.82675528526306,18.514476716518402 28.82675528526306,18.514476716518402 28.761491179466248,18.231619894504547 28.761491179466248,18.231619894504547 28.69372069835663,17.948350310325623 28.69372069835663,17.948350310325623 28.622615337371826,17.66529232263565 28.622615337371826,17.66529232263565 28.547269105911255,17.383083701133728 28.547269105911255,17.383083701133728 28.46699059009552,17.102345824241638 28.46699059009552,17.102345824241638 28.380942344665527,16.82370752096176 28.380942344665527,16.82370752096176 28.288358449935913,16.547800600528717 28.288358449935913,16.547800600528717 28.18840742111206,16.275252401828766 28.18840742111206,16.275252401828766 28.10673713684082,16.070841252803802 28.10673713684082,16.070841252803802 28.01908850669861,15.868471562862396 28.01908850669861,15.868471562862396 27.925187349319458,15.66871553659439 27.925187349319458,15.66871553659439 27.824747562408447,15.472155809402466 27.824747562408447,15.472155809402466 27.717292308807373,15.279367566108704 27.717292308807373,15.279367566108704 27.602815628051758,15.090930461883545 27.602815628051758,15.090930461883545 27.48062312602997,14.907422661781311 27.48062312602997,14.907422661781311 27.350714802742004,14.729425311088562 27.350714802742004,14.729425311088562 27.303379774093628,14.668245613574982 27.303379774093628,14.668245613574982 27.254796028137207,14.607368409633636 27.254796028137207,14.607368409633636 27.204957604408264,14.547193050384521 27.204957604408264,14.547193050384521 27.15359330177307,14.488115906715393 27.15359330177307,14.488115906715393 27.10069715976715,14.43052887916565 27.10069715976715,14.43052887916565 27.045926451683044,14.374829828739166 27.045926451683044,14.374829828739166 26.989349722862244,14.32141661643982 26.989349722862244,14.32141661643982 26.930615305900574,14.270681142807007 26.930615305900574,14.270681142807007 32.1123331785202,13.426314294338226 32.1123331785202,13.426314294338226 25.2795547246933,13.758556544780731 25.2795547246933,13.758556544780731 25.36289393901825,13.816355168819427 25.36289393901825,13.816355168819427 25.444981455802917,13.87597918510437 25.444981455802917,13.87597918510437 25.526094436645508,13.9372318983078 25.526094436645508,13.9372318983078 25.606098771095276,13.999918103218079 25.606098771095276,13.999918103218079 25.685125589370728,14.063842594623566 25.685125589370728,14.063842594623566 25.76318383216858,14.128810167312622 25.76318383216858,14.128810167312622 25.840473175048828,14.19462114572525 25.840473175048828,14.19462114572525 25.91693103313446,14.261089265346527 25.91693103313446,14.261089265346527 26.074084639549255,14.40238356590271 26.074084639549255,14.40238356590271 26.227903366088867,14.54758495092392 26.227903366088867,14.54758495092392 26.377898454666138,14.696703851222992 26.377898454666138,14.696703851222992 26.524001359939575,14.84975814819336 26.524001359939575,14.84975814819336 26.66572630405426,15.0067538022995 26.66572630405426,15.0067538022995 26.80286169052124,15.167701244354248 26.80286169052124,15.167701244354248 26.93513333797455,15.332616865634918 26.93513333797455,15.332616865634918 27.06226110458374,15.501503646373749 27.06226110458374,15.501503646373749 27.214619517326355,15.722669661045074 27.214619517326355,15.722669661045074 27.35314667224884,15.948055684566498 27.35314667224884,15.948055684566498 27.478882670402527,16.177962720394135 27.478882670402527,16.177962720394135 27.592667937278748,16.412684321403503 27.592667937278748,16.412684321403503 27.695536613464355,16.65252298116684 27.695536613464355,16.65252298116684 27.788397669792175,16.897772252559662 27.788397669792175,16.897772252559662 27.87235975265503,17.148734629154205 27.87235975265503,17.148734629154205 27.94819176197052,17.405708134174347 27.94819176197052,17.405708134174347 28.043833374977112,17.75653064250946 28.043833374977112,17.75653064250946 28.13614010810852,18.109475076198578 28.13614010810852,18.109475076198578 28.223857283592224,18.464314937591553 28.223857283592224,18.464314937591553 28.30587327480316,18.820826709270477 28.30587327480316,18.820826709270477 28.38101089000702,19.178786873817444 28.38101089000702,19.178786873817444 28.448152542114258,19.537965953350067 28.448152542114258,19.537965953350067 28.506052494049072,19.898144900798798 28.506052494049072,19.898144900798798" stroke="white" stroke-width="0.1" /><polygon points="62.100547552108765,24.458405375480652 62.100547552108765,24.458405375480652 62.29926347732544,24.437861144542694 62.29926347732544,24.437861144542694 62.485337257385254,24.37906712293625 62.485337257385254,24.37906712293625 62.654441595077515,24.286293983459473 62.654441595077515,24.286293983459473 62.802356481552124,24.163800477981567 62.802356481552124,24.163800477981567 62.92482614517212,24.01585876941681 62.92482614517212,24.01585876941681 63.01761865615845,23.84672462940216 63.01761865615845,23.84672462940216 63.07641863822937,23.660670220851898 63.07641863822937,23.660670220851898 63.096994161605835,23.461957275867462 63.096994161605835,23.461957275867462 63.07641863822937,23.263205587863922 63.07641863822937,23.263205587863922 63.0176842212677,23.077131807804108 63.0176842212677,23.077131807804108 62.92489171028137,22.90799915790558 62.92489171028137,22.90799915790558 62.80242204666138,22.760063409805298 62.80242204666138,22.760063409805298 62.654441595077515,22.637584805488586 62.654441595077515,22.637584805488586 62.485337257385254,22.544829547405243 62.485337257385254,22.544829547405243 62.29926347732544,22.48605191707611 62.29926347732544,22.48605191707611 62.100547552108765,22.465510666370392 62.100547552108765,22.465510666370392 61.90175414085388,22.48605042695999 61.90175414085388,22.48605042695999 61.715757846832275,22.544829547405243 61.715757846832275,22.544829547405243 61.54657602310181,22.637584805488586 61.54657602310181,22.637584805488586 61.398667097091675,22.760063409805298 61.398667097091675,22.760063409805298 61.27612590789795,22.90799915790558 61.27612590789795,22.90799915790558 61.18340492248535,23.077131807804108 61.18340492248535,23.077131807804108 61.12460494041443,23.263205587863922 61.12460494041443,23.263205587863922 61.104100942611694,23.461957275867462 61.104100942611694,23.461957275867462 61.12467050552368,23.660670220851898 61.12467050552368,23.660670220851898 61.18340492248535,23.84672462940216 61.18340492248535,23.84672462940216 61.27619743347168,24.01585578918457 61.27619743347168,24.01585578918457 61.398667097091675,24.163800477981567 61.398667097091675,24.163800477981567 61.54657602310181,24.286293983459473 61.54657602310181,24.286293983459473 61.715757846832275,24.37906712293625 61.715757846832275,24.37906712293625 61.90182566642761,24.437861144542694 61.90182566642761,24.437861144542694" stroke="white" stroke-width="0.1" /><polygon points="64.94753956794739,24.458405375480652 64.94753956794739,24.458405375480652 65.14625549316406,24.437861144542694 65.14625549316406,24.437861144542694 65.3323233127594,24.37906712293625 65.3323233127594,24.37906712293625 65.50143361091614,24.286293983459473 65.50143361091614,24.286293983459473 65.64934253692627,24.163800477981567 65.64934253692627,24.163800477981567 65.77181816101074,24.01585876941681 65.77181816101074,24.01585876941681 65.86460471153259,23.84672462940216 65.86460471153259,23.84672462940216 65.923410654068,23.660670220851898 65.923410654068,23.660670220851898 65.94398617744446,23.461957275867462 65.94398617744446,23.461957275867462 65.923410654068,23.263205587863922 65.923410654068,23.263205587863922 65.86467623710632,23.077131807804108 65.86467623710632,23.077131807804108 65.77195525169373,22.90799915790558 65.77195525169373,22.90799915790558 65.6494140625,22.760063409805298 65.6494140625,22.760063409805298 65.50143361091614,22.637584805488586 65.50143361091614,22.637584805488586 65.3323233127594,22.544829547405243 65.3323233127594,22.544829547405243 65.14625549316406,22.48605191707611 65.14625549316406,22.48605191707611 64.94753956794739,22.465510666370392 64.94753956794739,22.465510666370392 64.7487461566925,22.48605042695999 64.7487461566925,22.48605042695999 64.5627498626709,22.544829547405243 64.5627498626709,22.544829547405243 64.39356803894043,22.637584805488586 64.39356803894043,22.637584805488586 64.2456591129303,22.760063409805298 64.2456591129303,22.760063409805298 64.12311792373657,22.90799915790558 64.12311792373657,22.90799915790558 64.03039693832397,23.077131807804108 64.03039693832397,23.077131807804108 63.97159695625305,23.263205587863922 63.97159695625305,23.263205587863922 63.95109295845032,23.461957275867462 63.95109295845032,23.461957275867462 63.971662521362305,23.660670220851898 63.971662521362305,23.660670220851898 64.03039693832397,23.84672462940216 64.03039693832397,23.84672462940216 64.1231894493103,24.01585578918457 64.1231894493103,24.01585578918457 64.2456591129303,24.163800477981567 64.2456591129303,24.163800477981567 64.39356803894043,24.286293983459473 64.39356803894043,24.286293983459473 64.5627498626709,24.37906712293625 64.5627498626709,24.37906712293625 64.74881768226624,24.437861144542694 64.74881768226624,24.437861144542694" stroke="white" stroke-width="0.1" /><polygon points="69.36037540435791,7.113724201917648 69.36037540435791,7.113724201917648 69.60740089416504,7.09623247385025 69.60740089416504,7.09623247385025 69.85060572624207,7.044584304094315 69.85060572624207,7.044584304094315 70.08428573608398,6.960020959377289 70.08428573608398,6.960020959377289 70.30274271965027,6.843777745962143 70.30274271965027,6.843777745962143 70.50021290779114,6.697096675634384 70.50021290779114,6.697096675634384 70.6712007522583,6.521221250295639 70.6712007522583,6.521221250295639 70.80979347229004,6.317386776208878 70.80979347229004,6.317386776208878 70.91050744056702,6.086833402514458 70.91050744056702,6.086833402514458 70.9623634815216,5.857715755701065 70.9623634815216,5.857715755701065 70.97028493881226,5.630265921354294 70.97028493881226,5.630265921354294 70.93747854232788,5.408398807048798 70.93747854232788,5.408398807048798 70.86713910102844,5.196036398410797 70.86713910102844,5.196036398410797 70.7624614238739,4.997095465660095 70.7624614238739,4.997095465660095 70.6266462802887,4.815500974655151 70.6266462802887,4.815500974655151 70.46302556991577,4.655168578028679 70.46302556991577,4.655168578028679 70.27466297149658,4.520015046000481 70.27466297149658,4.520015046000481 70.052170753479,4.406914860010147 70.052170753479,4.406914860010147 69.81613039970398,4.327627271413803 69.81613039970398,4.327627271413803 69.57125663757324,4.282128810882568 69.57125663757324,4.282128810882568 69.32242512702942,4.270399361848831 69.32242512702942,4.270399361848831 69.07428503036499,4.29241806268692 69.07428503036499,4.29241806268692 68.83177757263184,4.348162189126015 68.83177757263184,4.348162189126015 68.59948635101318,4.437612742185593 68.59948635101318,4.437612742185593 68.3822751045227,4.560745880007744 68.3822751045227,4.560745880007744 68.20065379142761,4.704703018069267 68.20065379142761,4.704703018069267 68.04565787315369,4.872741550207138 68.04565787315369,4.872741550207138 67.92019605636597,5.060715973377228 67.92019605636597,5.060715973377228 67.82698631286621,5.264483019709587 67.82698631286621,5.264483019709587 67.76894927024841,5.47989048063755 67.76894927024841,5.47989048063755 67.74899959564209,5.702802538871765 67.74899959564209,5.702802538871765 67.769855260849,5.929064005613327 67.769855260849,5.929064005613327 67.83442497253418,6.154532730579376 67.83442497253418,6.154532730579376 67.94236898422241,6.371083110570908 67.94236898422241,6.371083110570908 68.0840253829956,6.562039256095886 68.0840253829956,6.562039256095886 68.25445294380188,6.726393848657608 68.25445294380188,6.726393848657608 68.4485137462616,6.863135099411011 68.4485137462616,6.863135099411011 68.6612069606781,6.9712527096271515 68.6612069606781,6.9712527096271515 68.88744831085205,7.049728184938431 68.88744831085205,7.049728184938431 69.12217140197754,7.097554951906204 69.12217140197754,7.097554951906204" stroke="white" stroke-width="0.1" /><polygon points="88.7215793132782,22.133269906044006 88.7215793132782,22.133269906044006 91.35351777076721,21.93698287010193 91.35351777076721,21.93698287010193 89.16850686073303,21.49519920349121 89.16850686073303,21.49519920349121 89.15092349052429,21.362818777561188 89.15092349052429,21.362818777561188 89.13291692733765,21.230506896972656 89.13291692733765,21.230506896972656 89.11449909210205,21.0982546210289 89.11449909210205,21.0982546210289 89.09566402435303,20.96606194972992 89.09566402435303,20.96606194972992 89.0764832496643,20.833927392959595 89.0764832496643,20.833927392959595 89.05687928199768,20.701852440834045 89.05687928199768,20.701852440834045 89.0368640422821,20.569831132888794 89.0368640422821,20.569831132888794 89.01642560958862,20.43786346912384 89.01642560958862,20.43786346912384 88.99105787277222,20.27425467967987 88.99105787277222,20.27425467967987 88.9652669429779,20.110227167606354 88.9652669429779,20.110227167606354 88.93816471099854,19.946174323558807 88.93816471099854,19.946174323558807 88.9086902141571,19.78248655796051 88.9086902141571,19.78248655796051 88.87574672698975,19.61955428123474 88.87574672698975,19.61955428123474 88.83855938911438,19.45776790380478 88.83855938911438,19.45776790380478 88.79581093788147,19.29752081632614 88.79581093788147,19.29752081632614 88.74673843383789,19.139201939105988 88.74673843383789,19.139201939105988 88.65151405334473,18.864522874355316 88.65151405334473,18.864522874355316 88.55080008506775,18.591496348381042 88.55080008506775,18.591496348381042 88.44535946846008,18.31996738910675 88.44535946846008,18.31996738910675 88.33616375923157,18.049773573875427 88.33616375923157,18.049773573875427 88.22391033172607,17.780758440494537 88.22391033172607,17.780758440494537 88.10950517654419,17.512767016887665 88.10950517654419,17.512767016887665 87.99377679824829,17.245638370513916 87.99377679824829,17.245638370513916 87.87763118743896,16.979214549064636 87.87763118743896,16.979214549064636 90.31063914299011,16.43928736448288 90.31063914299011,16.43928736448288 87.08302974700928,16.68478548526764 87.08302974700928,16.68478548526764 87.25790977478027,16.97183847427368 87.25790977478027,16.97183847427368 87.42848038673401,17.263905704021454 87.42848038673401,17.263905704021454 87.59292960166931,17.560754716396332 87.59292960166931,17.560754716396332 87.74987459182739,17.86215752363205 87.74987459182739,17.86215752363205 87.897789478302,18.16788613796234 87.897789478302,18.16788613796234 88.03492188453674,18.4777170419693 88.03492188453674,18.4777170419693 88.15982937812805,18.79141479730606 88.15982937812805,18.79141479730606 88.27089667320251,19.108758866786957 88.27089667320251,19.108758866786957 88.34040760993958,19.342516362667084 88.34040760993958,19.342516362667084 88.3995532989502,19.57990974187851 88.3995532989502,19.57990974187851 88.44974040985107,19.820119440555573 88.44974040985107,19.820119440555573 88.4924829006195,20.062319934368134 88.4924829006195,20.062319934368134 88.5293960571289,20.30569314956665 88.5293960571289,20.30569314956665 88.56171369552612,20.5494225025177 88.56171369552612,20.5494225025177 88.59118223190308,20.792682468891144 88.59118223190308,20.792682468891144 88.61912488937378,21.034647524356842 88.61912488937378,21.034647524356842 88.63455653190613,21.171697974205017 88.63455653190613,21.171697974205017 88.64936232566833,21.308840811252594 88.64936232566833,21.308840811252594 88.66347074508667,21.446073055267334 88.66347074508667,21.446073055267334 88.67681622505188,21.58338576555252 88.67681622505188,21.58338576555252 88.68939876556396,21.720770001411438 88.68939876556396,21.720770001411438 88.70107531547546,21.85821682214737 88.70107531547546,21.85821682214737 88.71184587478638,21.995720267295837 88.71184587478638,21.995720267295837" stroke="white" stroke-width="0.1" /><polygon points="16.406340897083282,15.44284075498581 16.406340897083282,15.44284075498581 16.940152645111084,15.46303927898407 16.940152645111084,15.46303927898407 17.46986210346222,15.52315503358841 17.46986210346222,15.52315503358841 17.99289882183075,15.622474253177643 17.99289882183075,15.622474253177643 18.50683093070984,15.760277211666107 18.50683093070984,15.760277211666107 19.00908648967743,15.935851633548737 19.00908648967743,15.935851633548737 19.497162103652954,16.14847183227539 19.497162103652954,16.14847183227539 19.968555867671967,16.397427022457123 19.968555867671967,16.397427022457123 20.420625805854797,16.682004928588867 20.420625805854797,16.682004928588867 21.198126673698425,17.29957014322281 21.198126673698425,17.29957014322281 21.874704957008362,18.01280826330185 21.874704957008362,18.01280826330185 22.44410365819931,18.80762130022049 22.44410365819931,18.80762130022049 22.89978861808777,19.669920206069946 22.89978861808777,19.669920206069946 23.23564440011978,20.585612952709198 23.23564440011978,20.585612952709198 23.445206880569458,21.540607511997223 23.445206880569458,21.540607511997223 23.52215051651001,22.520814836025238 23.52215051651001,22.520814836025238 23.460151255130768,23.512141406536102 23.460151255130768,23.512141406536102 23.2441246509552,24.529606103897095 23.2441246509552,24.529606103897095 22.88394123315811,25.494402647018433 22.88394123315811,25.494402647018433 22.391486167907715,26.39276385307312 22.391486167907715,26.39276385307312 21.77857756614685,27.210918068885803 21.77857756614685,27.210918068885803 21.057099103927612,27.935102581977844 21.057099103927612,27.935102581977844 20.238935947418213,28.551551699638367 20.238935947418213,28.551551699638367 19.336044788360596,29.046493768692017 19.336044788360596,29.046493768692017 18.36017221212387,29.406163096427917 18.36017221212387,29.406163096427917 17.34544485807419,29.615047574043274 17.34544485807419,29.615047574043274 16.32244735956192,29.67228591442108 16.32244735956192,29.67228591442108 15.307928621768951,29.58311140537262 15.307928621768951,29.58311140537262 14.318501949310303,29.352766275405884 14.318501949310303,29.352766275405884 13.370917737483978,28.986483812332153 13.370917737483978,28.986483812332153 12.481928616762161,28.489503264427185 12.481928616762161,28.489503264427185 11.668284237384796,27.867063879966736 11.668284237384796,27.867063879966736 10.946735739707947,27.124398946762085 10.946735739707947,27.124398946762085 10.321106761693954,26.245218515396118 10.321106761693954,26.245218515396118 9.842553734779358,25.291362404823303 9.842553734779358,25.291362404823303 9.513231366872787,24.28283542394638 9.513231366872787,24.28283542394638 9.334947168827057,23.23964089155197 9.334947168827057,23.23964089155197 9.309855103492737,22.181785106658936 9.309855103492737,22.181785106658936 9.439971297979355,21.129272878170013 9.439971297979355,21.129272878170013 9.727172553539276,20.102107524871826 9.727172553539276,20.102107524871826 10.173822194337845,19.120296835899353 10.173822194337845,19.120296835899353 10.693245381116867,18.316824734210968 10.693245381116867,18.316824734210968 11.31095066666603,17.597267031669617 11.31095066666603,17.597267031669617 12.014774233102798,16.968782246112823 12.014774233102798,16.968782246112823 12.792901694774628,16.438522934913635 12.792901694774628,16.438522934913635 13.633166253566742,16.013644635677338 13.633166253566742,16.013644635677338 14.523476362228394,15.701301395893097 14.523476362228394,15.701301395893097 15.451876819133759,15.508648753166199 15.451876819133759,15.508648753166199" stroke="white" stroke-width="0.1" /><polygon points="76.43044590950012,15.44284075498581 76.43044590950012,15.44284075498581 77.02069878578186,15.4676154255867 77.02069878578186,15.4676154255867 77.6052474975586,15.541212260723114 77.6052474975586,15.541212260723114 78.18076014518738,15.662537515163422 78.18076014518738,15.662537515163422 78.74390482902527,15.830495953559875 78.74390482902527,15.830495953559875 79.29148077964783,16.043998301029205 79.29148077964783,16.043998301029205 79.81993556022644,16.301949322223663 79.81993556022644,16.301949322223663 80.32622337341309,16.6032537817955 80.32622337341309,16.6032537817955 80.80686330795288,16.94682538509369 80.80686330795288,16.94682538509369 81.55975937843323,17.628471553325653 81.55975937843323,17.628471553325653 82.2006106376648,18.40287744998932 82.2006106376648,18.40287744998932 82.72364735603333,19.25453096628189 82.72364735603333,19.25453096628189 83.12317132949829,20.167917013168335 83.12317132949829,20.167917013168335 83.39354991912842,21.127521991729736 83.39354991912842,21.127521991729736 83.52915644645691,22.11783677339554 83.52915644645691,22.11783677339554 83.5242211818695,23.123343288898468 83.5242211818695,23.123343288898468 83.37304592132568,24.12852644920349 83.37304592132568,24.12852644920349 83.07639360427856,25.1012921333313 83.07639360427856,25.1012921333313 82.64676928520203,26.01282298564911 82.64676928520203,26.01282298564911 82.09607005119324,26.85096263885498 82.09607005119324,26.85096263885498 81.4364492893219,27.60356068611145 81.4364492893219,27.60356068611145 80.67987561225891,28.258460760116577 80.67987561225891,28.258460760116577 79.83828783035278,28.80350947380066 79.83828783035278,28.80350947380066 78.92392873764038,29.226550459861755 78.92392873764038,29.226550459861755 77.94846892356873,29.515427350997925 77.94846892356873,29.515427350997925 76.94966197013855,29.6578049659729 76.94966197013855,29.6578049659729 75.95126628875732,29.65644896030426 75.95126628875732,29.65644896030426 74.96851682662964,29.51689064502716 74.96851682662964,29.51689064502716 74.0166187286377,29.244646430015564 74.0166187286377,29.244646430015564 73.11074137687683,28.84523868560791 73.11074137687683,28.84523868560791 72.26603031158447,28.3241868019104 72.26603031158447,28.3241868019104 71.49763107299805,27.687013149261475 71.49763107299805,27.687013149261475 70.8208441734314,26.939234137535095 70.8208441734314,26.939234137535095 70.24025917053223,26.06705129146576 70.24025917053223,26.06705129146576 69.80013847351074,25.127699971199036 69.80013847351074,25.127699971199036 69.50216889381409,24.139738082885742 69.50216889381409,24.139738082885742 69.34779286384583,23.121723532676697 69.34779286384583,23.121723532676697 69.33861970901489,22.092212736606598 69.33861970901489,22.092212736606598 69.47610378265381,21.069766581058502 69.47610378265381,21.069766581058502 69.762122631073,20.072941482067108 69.762122631073,20.072941482067108 70.19792795181274,19.120296835899353 70.19792795181274,19.120296835899353 70.71741819381714,18.31686496734619 70.71741819381714,18.31686496734619 71.33505344390869,17.597326636314392 71.33505344390869,17.597326636314392 72.03902006149292,16.96884334087372 72.03902006149292,16.96884334087372 72.81707525253296,16.438575088977814 72.81707525253296,16.438575088977814 73.65727424621582,16.013680398464203 73.65727424621582,16.013680398464203 74.54758286476135,15.701320767402649 74.54758286476135,15.701320767402649 75.47605037689209,15.508653223514557 75.47605037689209,15.508653223514557" stroke="white" stroke-width="0.1" /><polygon points="34.98295843601227,9.357397258281708 34.98295843601227,9.357397258281708 43.1162029504776,9.000411629676819 43.1162029504776,9.000411629676819 43.82489323616028,8.976983278989792 43.82489323616028,8.976983278989792 45.696985721588135,8.914396911859512 45.696985721588135,8.914396911859512 48.3519971370697,8.82418155670166 48.3519971370697,8.82418155670166 51.40917897224426,8.717866986989975 51.40917897224426,8.717866986989975 54.48797345161438,8.606991171836853 54.48797345161438,8.606991171836853 57.207560539245605,8.50309208035469 57.207560539245605,8.50309208035469 59.18745398521423,8.417698740959167 59.18745398521423,8.417698740959167 60.046905279159546,8.362340927124023 60.046905279159546,8.362340927124023 60.21260619163513,8.337213844060898 60.21260619163513,8.337213844060898 60.367053747177124,8.317561447620392 60.367053747177124,8.317561447620392 60.51308512687683,8.277499675750732 60.51308512687683,8.277499675750732 60.653626918792725,8.191145956516266 60.653626918792725,8.191145956516266 60.79152822494507,8.032618463039398 60.79152822494507,8.032618463039398 60.929638147354126,7.776035368442535 60.929638147354126,7.776035368442535 61.07087731361389,7.395510375499725 61.07087731361389,7.395510375499725 61.21823191642761,6.865168362855911 61.21823191642761,6.865168362855911 61.364054679870605,6.259176880121231 61.364054679870605,6.259176880121231 61.497509479522705,5.680054426193237 61.497509479522705,5.680054426193237 61.616361141204834,5.144419148564339 61.616361141204834,5.144419148564339 61.71853542327881,4.66889850795269 61.71853542327881,4.66889850795269 61.801737546920776,4.2701128870248795 61.801737546920776,4.2701128870248795 61.86387538909912,3.964683413505554 61.86387538909912,3.964683413505554 61.9027316570282,3.7692349404096603 61.9027316570282,3.7692349404096603 61.91621422767639,3.7003930658102036 61.91621422767639,3.7003930658102036 61.88521385192871,3.6698907613754272 61.88521385192871,3.6698907613754272 61.79937124252319,3.5880640149116516 61.79937124252319,3.5880640149116516 61.66911721229553,3.469424694776535 61.66911721229553,3.469424694776535 61.504942178726196,3.3284805715084076 61.504942178726196,3.3284805715084076 61.31748557090759,3.1797517091035843 61.31748557090759,3.1797517091035843 61.11709475517273,3.0377496033906937 61.11709475517273,3.0377496033906937 60.91441512107849,2.916988357901573 60.91441512107849,2.916988357901573 60.72000861167908,2.831977605819702 60.72000861167908,2.831977605819702 60.40083169937134,2.764912322163582 60.40083169937134,2.764912322163582 59.84811186790466,2.691454626619816 59.84811186790466,2.691454626619816 59.108567237854004,2.6163332164287567 59.108567237854004,2.6163332164287567 58.228886127471924,2.544272318482399 58.228886127471924,2.544272318482399 57.25579857826233,2.4800004437565804 57.25579857826233,2.4800004437565804 56.23599290847778,2.428237535059452 56.23599290847778,2.428237535059452 55.216121673583984,2.393714338541031 55.216121673583984,2.393714338541031 54.24309968948364,2.3811576887965202 54.24309968948364,2.3811576887965202 53.22510600090027,2.402448281645775 53.22510600090027,2.402448281645775 52.07546949386597,2.4643221870064735 52.07546949386597,2.4643221870064735 50.84819197654724,2.563781850039959 50.84819197654724,2.563781850039959 49.59748685359955,2.6978297159075737 49.59748685359955,2.6978297159075737 48.37743937969208,2.8634684160351753 48.37743937969208,2.8634684160351753 47.24190831184387,3.0577002093195915 47.24190831184387,3.0577002093195915 46.245184540748596,3.2775279134511948 46.245184540748596,3.2775279134511948 45.44120132923126,3.5199541598558426 45.44120132923126,3.5199541598558426 43.690747022628784,4.24760989844799 43.690747022628784,4.24760989844799 41.895389556884766,5.132700875401497 41.895389556884766,5.132700875401497 40.14076590538025,6.096798926591873 40.14076590538025,6.096798926591873 38.512712717056274,7.061472535133362 38.512712717056274,7.061472535133362 37.09714114665985,7.948298752307892 37.09714114665985,7.948298752307892 35.979822278022766,8.678846061229706 35.979822278022766,8.678846061229706 35.246455669403076,9.174690395593643 35.246455669403076,9.174690395593643" stroke="white" stroke-width="0.1" /></svg>