<?xml version="1.0" encoding="utf-8" ?>
<svg baseProfile="full" height="26.099592447280884" version="1.1" width="100.0" xmlns="http://www.w3.org/2000/svg" xmlns:ev="http://www.w3.org/2001/xml-events" xmlns:xlink="http://www.w3.org/1999/xlink"><defs><clipPath /></defs><polygon points="97.68093228340149,14.092805981636047 97.68093228340149,14.092805981636047 97.70540595054626,14.195814728736877 97.70540595054626,14.195814728736877 97.93282747268677,14.236579835414886 97.93282747268677,14.236579835414886 98.29963445663452,14.233511686325073 98.29963445663452,14.233511686325073 98.74228239059448,14.205019176006317 98.74228239059448,14.205019176006317 99.19719696044922,14.169514179229736 99.19719696044922,14.169514179229736 99.60082769393921,14.14540559053421 99.60082769393921,14.14540559053421 99.8896837234497,14.151105284690857 99.8896837234497,14.151105284690857 100.0,14.205019176006317 100.0,14.205019176006317 99.97925162315369,14.358946681022644 99.97925162315369,14.358946681022644 99.91817474365234,14.62990939617157 99.91817474365234,14.62990939617157 99.81852769851685,14.98415470123291 99.81852769851685,14.98415470123291 99.68206286430359,15.3879314661026 99.68206286430359,15.3879314661026 99.51045513153076,15.807487070560455 99.51045513153076,15.807487070560455 99.30568337440491,16.20907187461853 99.30568337440491,16.20907187461853 99.06935095787048,16.55893474817276 99.06935095787048,16.55893474817276 98.80306124687195,16.82332158088684 98.80306124687195,16.82332158088684 98.49403500556946,17.00778603553772 98.49403500556946,17.00778603553772 98.14030528068542,17.148855328559875 98.14030528068542,17.148855328559875 97.76027202606201,17.2592431306839 97.76027202606201,17.2592431306839 97.37234711647034,17.351657152175903 97.37234711647034,17.351657152175903 96.99487090110779,17.4388125538826 96.99487090110779,17.4388125538826 96.64646983146667,17.53341853618622 96.64646983146667,17.53341853618622 96.34540677070618,17.648188769817352 96.34540677070618,17.648188769817352 96.10995054244995,17.795833945274353 96.10995054244995,17.795833945274353 95.9734857082367,17.89787858724594 95.9734857082367,17.89787858724594 95.75870037078857,18.039235472679138 95.75870037078857,18.039235472679138 95.4740047454834,18.2153582572937 95.4740047454834,18.2153582572937 95.12801170349121,18.421699106693268 95.12801170349121,18.421699106693268 94.72913146018982,18.653708696365356 94.72913146018982,18.653708696365356 94.28590536117554,18.906840682029724 94.28590536117554,18.906840682029724 93.80695819854736,19.17654722929001 93.80695819854736,19.17654722929001 93.30053329467773,19.458280503749847 93.30053329467773,19.458280503749847 93.3099627494812,19.354450702667236 93.3099627494812,19.354450702667236 93.31821799278259,19.2502960562706 93.31821799278259,19.2502960562706 93.32537651062012,19.145818054676056 93.32537651062012,19.145818054676056 93.33129525184631,19.041024148464203 93.33129525184631,19.041024148464203 93.33581924438477,18.93591582775116 93.33581924438477,18.93591582775116 93.33932995796204,18.830493092536926 93.33932995796204,18.830493092536926 93.3413028717041,18.7247633934021 93.3413028717041,18.7247633934021 93.34203004837036,18.6187282204628 93.34203004837036,18.6187282204628 93.16538572311401,16.87200367450714 93.16538572311401,16.87200367450714 92.65903830528259,15.244098007678986 92.65903830528259,15.244098007678986 91.85791015625,13.770180940628052 91.85791015625,13.770180940628052 90.79744219779968,12.485407292842865 90.79744219779968,12.485407292842865 89.51269388198853,11.424936354160309 89.51269388198853,11.424936354160309 88.03873062133789,10.623925924301147 88.03873062133789,10.623925924301147 86.41090989112854,10.117538273334503 86.41090989112854,10.117538273334503 84.66423153877258,9.940927475690842 84.66423153877258,9.940927475690842 82.91747570037842,10.117538273334503 82.91747570037842,10.117538273334503 81.28958940505981,10.623925924301147 81.28958940505981,10.623925924301147 79.81569766998291,11.424936354160309 79.81569766998291,11.424936354160309 78.53094339370728,12.485407292842865 78.53094339370728,12.485407292842865 77.47040390968323,13.77018541097641 77.47040390968323,13.77018541097641 76.66942477226257,15.244098007678986 76.66942477226257,15.244098007678986 76.16307735443115,16.87200367450714 76.16307735443115,16.87200367450714 75.98642706871033,18.6187282204628 75.98642706871033,18.6187282204628 75.99607110023499,19.028012454509735 75.99607110023499,19.028012454509735 76.02463960647583,19.432400166988373 76.02463960647583,19.432400166988373 76.07153654098511,19.831500947475433 76.07153654098511,19.831500947475433 76.13655924797058,20.22492289543152 76.13655924797058,20.22492289543152 76.21903419494629,20.612262189388275 76.21903419494629,20.612262189388275 76.31853818893433,20.99311798810959 76.31853818893433,20.99311798810959 76.43462419509888,21.36709690093994 76.43462419509888,21.36709690093994 76.56677961349487,21.733807027339935 76.56677961349487,21.733807027339935 76.11719965934753,21.94252610206604 76.11719965934753,21.94252610206604 75.67711472511292,22.139304876327515 75.67711472511292,22.139304876327515 75.25309920310974,22.32014387845993 75.25309920310974,22.32014387845993 74.85129833221436,22.481052577495575 74.85129833221436,22.481052577495575 74.47805404663086,22.61803150177002 74.47805404663086,22.61803150177002 74.13966655731201,22.727081179618835 74.13966655731201,22.727081179618835 73.84232878684998,22.80420809984207 73.84232878684998,22.80420809984207 73.5925555229187,22.845415771007538 73.5925555229187,22.845415771007538 71.21716141700745,22.88033664226532 71.21716141700745,22.88033664226532 65.90889096260071,22.879314422607422 65.90889096260071,22.879314422607422 58.66925120353699,22.851991653442383 58.66925120353699,22.851991653442383 50.49998760223389,22.80801236629486 50.49998760223389,22.80801236629486 42.402613162994385,22.757019102573395 42.402613162994385,22.757019102573395 35.37863790988922,22.708657383918762 35.37863790988922,22.708657383918762 30.42987287044525,22.672566771507263 30.42987287044525,22.672566771507263 28.557610511779785,22.658394277095795 28.557610511779785,22.658394277095795 26.467499136924744,21.12160325050354 26.467499136924744,21.12160325050354 26.552096009254456,20.822036266326904 26.552096009254456,20.822036266326904 26.62617564201355,20.518280565738678 26.62617564201355,20.518280565738678 26.68958604335785,20.2105313539505 26.68958604335785,20.2105313539505 26.741966605186462,19.89898681640625 26.741966605186462,19.89898681640625 26.78324282169342,19.583839178085327 26.78324282169342,19.583839178085327 26.812976598739624,19.265282154083252 26.812976598739624,19.265282154083252 26.830947399139404,18.943513929843903 26.830947399139404,18.943513929843903 26.8370121717453,18.6187282204628 26.8370121717453,18.6187282204628 26.660436391830444,16.87200367450714 26.660436391830444,16.87200367450714 26.154017448425293,15.244098007678986 26.154017448425293,15.244098007678986 25.352966785430908,13.770180940628052 25.352966785430908,13.770180940628052 24.292495846748352,12.485407292842865 24.292495846748352,12.485407292842865 23.007744550704956,11.424936354160309 23.007744550704956,11.424936354160309 21.53378129005432,10.623925924301147 21.53378129005432,10.623925924301147 19.90589052438736,10.117538273334503 19.90589052438736,10.117538273334503 18.159210681915283,9.940927475690842 18.159210681915283,9.940927475690842 16.412530839443207,10.117538273334503 16.412530839443207,10.117538273334503 14.784640073776245,10.623925924301147 14.784640073776245,10.623925924301147 13.31074982881546,11.424936354160309 13.31074982881546,11.424936354160309 12.025925517082214,12.485407292842865 12.025925517082214,12.485407292842865 10.965455323457718,13.77018541097641 10.965455323457718,13.77018541097641 10.164476931095123,15.244098007678986 10.164476931095123,15.244098007678986 9.658057242631912,16.87200367450714 9.658057242631912,16.87200367450714 9.481409937143326,18.6187282204628 9.481409937143326,18.6187282204628 9.496385604143143,19.130371510982513 9.496385604143143,19.130371510982513 9.540730714797974,19.634242355823517 9.540730714797974,19.634242355823517 9.613493829965591,20.129521191120148 9.613493829965591,20.129521191120148 9.714017808437347,20.61540335416794 9.714017808437347,20.61540335416794 9.841279685497284,21.091066300868988 9.841279685497284,21.091066300868988 9.994404017925262,21.555688977241516 9.994404017925262,21.555688977241516 10.172512382268906,22.008466720581055 10.172512382268906,22.008466720581055 10.374876111745834,22.448579967021942 10.374876111745834,22.448579967021942 10.042474418878555,22.546181082725525 10.042474418878555,22.546181082725525 9.825792163610458,22.51191884279251 9.825792163610458,22.51191884279251 9.248801320791245,22.419357299804688 9.248801320791245,22.419357299804688 8.42108502984047,22.28384017944336 8.42108502984047,22.28384017944336 7.452225685119629,22.120708227157593 7.452225685119629,22.120708227157593 6.451806426048279,21.945302188396454 6.451806426048279,21.945302188396454 5.529410019516945,21.772964298725128 5.529410019516945,21.772964298725128 4.794619604945183,21.6190367937088 4.794619604945183,21.6190367937088 4.357018321752548,21.49886041879654 4.357018321752548,21.49886041879654 4.148153215646744,21.387962996959686 4.148153215646744,21.387962996959686 4.018625989556313,21.25690132379532 4.018625989556313,21.25690132379532 3.956529125571251,21.113567054271698 3.956529125571251,21.113567054271698 3.950246423482895,20.965848863124847 3.950246423482895,20.965848863124847 3.987796977162361,20.82163840532303 3.987796977162361,20.82163840532303 4.0571995079517365,20.688824355602264 4.0571995079517365,20.688824355602264 4.146838188171387,20.575295388698578 4.146838188171387,20.575295388698578 4.244805499911308,20.48894464969635 4.244805499911308,20.48894464969635 4.328015446662903,20.420783758163452 4.328015446662903,20.420783758163452 4.384487122297287,20.357444882392883 4.384487122297287,20.357444882392883 4.41896915435791,20.30024230480194 4.41896915435791,20.30024230480194 4.436502605676651,20.25049179792404 4.436502605676651,20.25049179792404 4.441762343049049,20.209507644176483 4.441762343049049,20.209507644176483 4.4394247233867645,20.178605616092682 4.4394247233867645,20.178605616092682 4.434530064463615,20.159099996089935 4.434530064463615,20.159099996089935 4.4318269938230515,20.15230506658554 4.4318269938230515,20.15230506658554 4.375355318188667,20.14331966638565 4.375355318188667,20.14331966638565 4.211492091417313,20.09444534778595 4.211492091417313,20.09444534778595 3.948492929339409,19.97280865907669 3.948492929339409,19.97280865907669 3.594905510544777,19.745533168315887 3.594905510544777,19.745533168315887 3.158911317586899,19.379745423793793 3.158911317586899,19.379745423793793 2.648693136870861,18.84257048368454 2.648693136870861,18.84257048368454 2.0727980881929398,18.101131916046143 2.0727980881929398,18.101131916046143 1.439481694251299,17.122556269168854 1.439481694251299,17.122556269168854 0.869431160390377,16.156107187271118 0.869431160390377,16.156107187271118 0.46287840232253075,15.443453192710876 0.46287840232253075,15.443453192710876 0.19739542622119188,14.940321445465088 0.19739542622119188,14.940321445465088 0.050846493104472756,14.602440595626831 0.050846493104472756,14.602440595626831 0.0007305530289158924,14.385539293289185 0.0007305530289158924,14.385539293289185 0.024546580971218646,14.245346188545227 0.024546580971218646,14.245346188545227 0.10015881853178144,14.137589931488037 0.10015881853178144,14.137589931488037 0.2051393035799265,14.017997682094574 0.2051393035799265,14.017997682094574 0.4440301563590765,13.749007880687714 0.4440301563590765,13.749007880687714 0.9310168214142323,13.26172947883606 0.9310168214142323,13.26172947883606 1.6582092270255089,12.614898383617401 1.6582092270255089,12.614898383617401 2.61771772056818,11.867249757051468 2.61771772056818,11.867249757051468 3.801652044057846,11.077521741390228 3.801652044057846,11.077521741390228 5.2021220326423645,10.304450988769531 5.2021220326423645,10.304450988769531 6.811238080263138,9.606772661209106 6.811238080263138,9.606772661209106 8.621110022068024,9.043224155902863 8.621110022068024,9.043224155902863 10.932141542434692,8.56398120522499 10.932141542434692,8.56398120522499 13.868235051631927,8.091751486063004 13.868235051631927,8.091751486063004 17.156745493412018,7.6440684497356415 17.156745493412018,7.6440684497356415 20.52503377199173,7.2384655475616455 20.52503377199173,7.2384655475616455 23.70045632123947,6.892475485801697 23.70045632123947,6.892475485801697 26.41036808490753,6.623632460832596 26.41036808490753,6.623632460832596 28.382205963134766,6.449468433856964 28.382205963134766,6.449468433856964 29.343101382255554,6.387517601251602 29.343101382255554,6.387517601251602 29.76623773574829,6.368742138147354 29.76623773574829,6.368742138147354 30.28756082057953,6.314462423324585 30.28756082057953,6.314462423324585 30.87894320487976,6.227745488286018 30.87894320487976,6.227745488286018 31.512552499771118,6.111660599708557 31.512552499771118,6.111660599708557 32.160112261772156,5.9692759066820145 32.160112261772156,5.9692759066820145 32.79365003108978,5.803659558296204 32.79365003108978,5.803659558296204 33.385178446769714,5.617879703640938 33.385178446769714,5.617879703640938 33.90642702579498,5.41500523686409 33.90642702579498,5.41500523686409 34.69732403755188,5.039720237255096 34.69732403755188,5.039720237255096 36.004576086997986,4.397490993142128 36.004576086997986,4.397490993142128 37.660667300224304,3.5825591534376144 37.660667300224304,3.5825591534376144 39.49837386608124,2.689165808260441 39.49837386608124,2.689165808260441 41.35003387928009,1.811552420258522 41.35003387928009,1.811552420258522 43.048277497291565,1.043960265815258 43.048277497291565,1.043960265815258 44.425734877586365,0.4806308541446924 44.425734877586365,0.4806308541446924 45.31474411487579,0.21580536849796772 45.31474411487579,0.21580536849796772 46.085551381111145,0.13617508811876178 46.085551381111145,0.13617508811876178 47.17502295970917,0.06969476235099137 47.17502295970917,0.06969476235099137 48.51602613925934,0.02250103425467387 48.51602613925934,0.02250103425467387 50.041717290878296,0.0007305530289158924 50.041717290878296,0.0007305530289158924 51.684802770614624,0.010519963689148426 51.684802770614624,0.010519963689148426 53.3782958984375,0.05800591316074133 53.3782958984375,0.05800591316074133 55.05520701408386,0.14932503690943122 55.05520701408386,0.14932503690943122 56.64825439453125,0.2906139940023422 56.64825439453125,0.2906139940023422 58.435988426208496,0.5224184598773718 58.435988426208496,0.5224184598773718 60.64065098762512,0.861614290624857 60.64065098762512,0.861614290624857 63.110798597335815,1.2788331136107445 63.110798597335815,1.2788331136107445 65.69549441337585,1.744706742465496 65.69549441337585,1.744706742465496 68.24329495429993,2.2298671305179596 68.24329495429993,2.2298671305179596 70.6031322479248,2.7049457654356956 70.6031322479248,2.7049457654356956 72.62369394302368,3.1405743211507797 72.62369394302368,3.1405743211507797 74.15362000465393,3.507385030388832 74.15362000465393,3.507385030388832 75.35004615783691,3.8202811032533646 75.35004615783691,3.8202811032533646 76.45924091339111,4.109945148229599 76.45924091339111,4.109945148229599 77.46411561965942,4.370679706335068 77.46411561965942,4.370679706335068 78.34757566452026,4.596785828471184 78.34757566452026,4.596785828471184 79.09244894981384,4.78256531059742 79.09244894981384,4.78256531059742 79.68186140060425,4.922320321202278 79.68186140060425,4.922320321202278 80.09849190711975,5.010351911187172 80.09849190711975,5.010351911187172 80.32532930374146,5.040962249040604 80.32532930374146,5.040962249040604 80.57817220687866,5.021456256508827 80.57817220687866,5.021456256508827 81.06464743614197,4.976088926196098 81.06464743614197,4.976088926196098 81.75538778305054,4.924584925174713 81.75538778305054,4.924584925174713 82.62102007865906,4.886669293045998 82.62102007865906,4.886669293045998 83.6321771144867,4.882066696882248 83.6321771144867,4.882066696882248 84.75949168205261,4.93050254881382 84.75949168205261,4.93050254881382 85.97367405891418,5.05170114338398 85.97367405891418,5.05170114338398 87.24513053894043,5.2653878927230835 87.24513053894043,5.2653878927230835 88.58189582824707,5.555855855345726 88.58189582824707,5.555855855345726 89.97213840484619,5.877883732318878 89.97213840484619,5.877883732318878 91.35711789131165,6.206924840807915 91.35711789131165,6.206924840807915 92.67810583114624,6.5184324979782104 92.67810583114624,6.5184324979782104 93.87635588645935,6.78786039352417 93.87635588645935,6.78786039352417 94.89313960075378,6.990662217140198 94.89313960075378,6.990662217140198 95.6697940826416,7.102290540933609 95.6697940826416,7.102290540933609 96.14735245704651,7.098199427127838 96.14735245704651,7.098199427127838 96.46719098091125,7.026824355125427 96.46719098091125,7.026824355125427 96.79842591285706,6.955011188983917 96.79842591285706,6.955011188983917 97.12439775466919,6.885827332735062 97.12439775466919,6.885827332735062 97.42845296859741,6.822342425584793 97.42845296859741,6.822342425584793 97.69393801689148,6.767623871564865 97.69393801689148,6.767623871564865 97.90418744087219,6.724740564823151 97.90418744087219,6.724740564823151 98.04263114929199,6.696760654449463 98.04263114929199,6.696760654449463 98.09237718582153,6.686752289533615 98.09237718582153,6.686752289533615 98.13328981399536,6.6961027681827545 98.13328981399536,6.6961027681827545 98.23732376098633,6.733507663011551 98.23732376098633,6.733507663011551 98.37641716003418,6.812991201877594 98.37641716003418,6.812991201877594 98.52253198623657,6.948582082986832 98.52253198623657,6.948582082986832 98.64760041236877,7.154306024312973 98.64760041236877,7.154306024312973 98.72357845306396,7.444189488887787 98.72357845306396,7.444189488887787 98.7224817276001,7.832258939743042 98.7224817276001,7.832258939743042 98.6160397529602,8.332541584968567 98.6160397529602,8.332541584968567 98.45772981643677,8.994276821613312 98.45772981643677,8.994276821613312 98.31739068031311,9.81118157505989 98.31739068031311,9.81118157505989 98.1919527053833,10.713998973369598 98.1919527053833,10.713998973369598 98.07835221290588,11.633472889661789 98.07835221290588,11.633472889661789 97.9734480381012,12.500347197055817 97.9734480381012,12.500347197055817 97.8743851184845,13.245365023612976 97.8743851184845,13.245365023612976 97.77787923812866,13.799270987510681 97.77787923812866,13.799270987510681" stroke="white" stroke-width="0.1" /><polygon points="42.846059799194336,7.397434115409851 42.846059799194336,7.397434115409851 46.3620662689209,7.397434115409851 46.3620662689209,7.397434115409851 48.49410951137543,0.8142744190990925 48.49410951137543,0.8142744190990925 48.26968610286713,0.8142744190990925 48.26968610286713,0.8142744190990925 41.61171615123749,4.891344904899597 41.61171615123749,4.891344904899597 42.47201681137085,4.9661535769701 42.47201681137085,4.9661535769701 42.49312877655029,4.974335804581642 42.49312877655029,4.974335804581642 42.54974722862244,5.003557726740837 42.54974722862244,5.003557726740837 42.631715536117554,5.0608329474925995 42.631715536117554,5.0608329474925995 42.729172110557556,5.153175070881844 42.729172110557556,5.153175070881844 42.83181428909302,5.287596955895424 42.83181428909302,5.287596955895424 42.92963445186615,5.471111834049225 42.92963445186615,5.471111834049225 43.012624979019165,5.710732936859131 43.012624979019165,5.710732936859131 43.070486187934875,6.013474240899086 43.070486187934875,6.013474240899086 43.093058466911316,6.330680102109909 43.093058466911316,6.330680102109909 43.08275878429413,6.60843700170517 43.08275878429413,6.60843700170517 43.048715591430664,6.845866143703461 43.048715591430664,6.845866143703461 43.00035238265991,7.042092829942703 43.00035238265991,7.042092829942703 42.946657538414,7.19623938202858 42.946657538414,7.19623938202858 42.89690554141998,7.307429611682892 42.89690554141998,7.307429611682892 42.860376834869385,7.374786585569382 42.860376834869385,7.374786585569382" stroke="white" stroke-width="0.1" /><polygon points="61.39860153198242,3.320363536477089 61.39860153198242,3.320363536477089 61.49737238883972,2.9553793370723724 61.49737238883972,2.9553793370723724 61.57159209251404,2.64474805444479 61.57159209251404,2.64474805444479 61.62470579147339,2.3867167532444 61.62470579147339,2.3867167532444 61.66043281555176,2.179531939327717 61.66043281555176,2.179531939327717 61.68205142021179,2.021440304815769 61.68205142021179,2.021440304815769 61.69315576553345,1.910688355565071 61.69315576553345,1.910688355565071 61.69732213020325,1.8455231562256813 61.69732213020325,1.8455231562256813 61.697834730148315,1.8241910263895988 61.697834730148315,1.8241910263895988 61.44798398017883,1.7808690667152405 61.44798398017883,1.7808690667152405 60.72999835014343,1.6669759526848793 60.72999835014343,1.6669759526848793 59.59113836288452,1.5066195279359818 59.59113836288452,1.5066195279359818 58.07896852493286,1.323908194899559 58.07896852493286,1.323908194899559 56.24060034751892,1.1429502628743649 56.24060034751892,1.1429502628743649 54.12346124649048,0.9878538548946381 54.12346124649048,0.9878538548946381 51.774948835372925,0.8827272802591324 51.774948835372925,0.8827272802591324 49.24219846725464,0.8516787551343441 49.24219846725464,0.8516787551343441 49.194782972335815,0.9731696918606758 49.194782972335815,0.9731696918606758 49.06628131866455,1.304621621966362 49.06628131866455,1.304621621966362 48.87721240520477,1.7965029925107956 48.87721240520477,1.7965029925107956 48.64840507507324,2.399282343685627 48.64840507507324,2.399282343685627 48.400235176086426,3.0634280294179916 48.400235176086426,3.0634280294179916 48.15337955951691,3.739408776164055 48.15337955951691,3.739408776164055 47.92851805686951,4.377692937850952 47.92851805686951,4.377692937850952 47.746023535728455,4.928749054670334 47.746023535728455,4.928749054670334 47.59896397590637,5.4139092564582825 47.59896397590637,5.4139092564582825 47.467246651649475,5.878468230366707 47.467246651649475,5.878468230366707 47.35211133956909,6.3088372349739075 47.35211133956909,6.3088372349739075 47.25509285926819,6.691427528858185 47.25509285926819,6.691427528858185 47.17728793621063,7.012651860713959 47.17728793621063,7.012651860713959 47.12008535861969,7.2589211165905 47.12008535861969,7.2589211165905 47.08487391471863,7.416647672653198 47.08487391471863,7.416647672653198 47.072747349739075,7.4722424149513245 47.072747349739075,7.4722424149513245 47.575294971466064,7.492405921220779 47.575294971466064,7.492405921220779 48.90497326850891,7.542375475168228 48.90497326850891,7.542375475168228 50.79476833343506,7.606372237205505 50.79476833343506,7.606372237205505 52.97795534133911,7.668615132570267 52.97795534133911,7.668615132570267 55.18736243247986,7.713325321674347 55.18736243247986,7.713325321674347 57.1561336517334,7.724721729755402 57.1561336517334,7.724721729755402 58.61738324165344,7.6870255172252655 58.61738324165344,7.6870255172252655 59.30395722389221,7.584455609321594 59.30395722389221,7.584455609321594 59.54277515411377,7.336798310279846 59.54277515411377,7.336798310279846 59.82586741447449,6.907670944929123 59.82586741447449,6.907670944929123 60.1343035697937,6.3470445573329926 60.1343035697937,6.3470445573329926 60.44946312904358,5.704888701438904 60.44946312904358,5.704888701438904 60.752278566360474,5.031172558665276 60.752278566360474,5.031172558665276 61.02397441864014,4.375866428017616 61.02397441864014,4.375866428017616 61.24576926231384,3.7889402359724045 61.24576926231384,3.7889402359724045" stroke="white" stroke-width="0.1" /><polygon points="63.37839961051941,13.718762993812561 63.37839961051941,13.718762993812561 63.42676281929016,12.979735434055328 63.42676281929016,12.979735434055328 63.43289613723755,12.28804811835289 63.43289613723755,12.28804811835289 63.40177655220032,11.659480631351471 63.40177655220032,11.659480631351471 63.33887577056885,11.109812557697296 63.33887577056885,11.109812557697296 63.24909329414368,10.65482422709465 63.24909329414368,10.65482422709465 63.137900829315186,10.310295224189758 63.137900829315186,10.310295224189758 63.01034688949585,10.092005878686905 63.01034688949585,10.092005878686905 62.87168860435486,10.015735775232315 62.87168860435486,10.015735775232315 62.73536682128906,10.239139199256897 62.73536682128906,10.239139199256897 62.61248588562012,10.828111320734024 62.61248588562012,10.828111320734024 62.50436305999756,11.660795658826828 62.50436305999756,11.660795658826828 62.41253614425659,12.6153364777565 62.41253614425659,12.6153364777565 62.33853101730347,13.569876551628113 62.33853101730347,13.569876551628113 62.28388547897339,14.402560889720917 62.28388547897339,14.402560889720917 62.249910831451416,14.991532266139984 62.249910831451416,14.991532266139984 62.23829984664917,15.214936435222626 62.23829984664917,15.214936435222626 62.24180459976196,15.241162478923798 62.24180459976196,15.241162478923798 62.254077196121216,15.312537550926208 62.254077196121216,15.312537550926208 62.27833032608032,15.418103337287903 62.27833032608032,15.418103337287903 62.31741905212402,15.546898543834686 62.31741905212402,15.546898543834686 62.37425208091736,15.687969326972961 62.37425208091736,15.687969326972961 62.451910972595215,15.830354392528534 62.451910972595215,15.830354392528534 62.55331039428711,15.963095426559448 62.55331039428711,15.963095426559448 62.681448459625244,16.075235605239868 62.681448459625244,16.075235605239868 62.81273365020752,16.131998598575592 62.81273365020752,16.131998598575592 62.923991680145264,16.10153466463089 62.923991680145264,16.10153466463089 63.01896572113037,15.977267920970917 63.01896572113037,15.977267920970917 63.10122609138489,15.752622485160828 63.10122609138489,15.752622485160828 63.174647092819214,15.421025454998016 63.174647092819214,15.421025454998016 63.24280500411987,14.975899457931519 63.24280500411987,14.975899457931519 63.30950856208801,14.410670101642609 63.30950856208801,14.410670101642609" stroke="white" stroke-width="0.1" /><polygon points="18.159210681915283,11.137865483760834 18.159210681915283,11.137865483760834 19.666926562786102,11.289843171834946 19.666926562786102,11.289843171834946 21.071122586727142,11.725728213787079 21.071122586727142,11.725728213787079 22.3417729139328,12.415438145399094 22.3417729139328,12.415438145399094 23.448999226093292,13.328903913497925 23.448999226093292,13.328903913497925 24.362482130527496,14.436043798923492 24.362482130527496,14.436043798923492 25.05227029323578,15.706776082515717 25.05227029323578,15.706776082515717 25.488120317459106,17.111031711101532 25.488120317459106,17.111031711101532 25.64007341861725,18.6187282204628 25.64007341861725,18.6187282204628 25.636714696884155,18.842990696430206 25.636714696884155,18.842990696430206 25.626632571220398,19.06556636095047 25.626632571220398,19.06556636095047 25.609976053237915,19.28638070821762 25.609976053237915,19.28638070821762 25.587037205696106,19.505363702774048 25.587037205696106,19.505363702774048 25.557741522789,19.72244381904602 25.557741522789,19.72244381904602 25.52230954170227,19.93754655122757 25.52230954170227,19.93754655122757 25.480958819389343,20.150597393512726 25.480958819389343,20.150597393512726 25.433766841888428,20.361536741256714 25.433766841888428,20.361536741256714 25.040510296821594,21.552802622318268 25.040510296821594,21.552802622318268 24.462276697158813,22.64624983072281 24.462276697158813,22.64624983072281 23.717989027500153,23.623071610927582 23.717989027500153,23.623071610927582 22.82612919807434,24.46446865797043 22.82612919807434,24.46446865797043 21.805620193481445,25.151625275611877 21.805620193481445,25.151625275611877 20.675089955329895,25.665733218193054 20.675089955329895,25.665733218193054 19.45345848798752,25.98799169063568 19.45345848798752,25.98799169063568 18.159210681915283,26.099592447280884 18.159210681915283,26.099592447280884 17.10188090801239,26.02539360523224 17.10188090801239,26.02539360523224 16.090065240859985,25.809544324874878 16.090065240859985,25.809544324874878 15.133990347385406,25.462165474891663 15.133990347385406,25.462165474891663 14.243738353252411,24.99338835477829 14.243738353252411,24.99338835477829 13.429245352745056,24.413329362869263 13.429245352745056,24.413329362869263 12.70066499710083,23.732106387615204 12.70066499710083,23.732106387615204 12.06800565123558,22.95984774827957 12.06800565123558,22.95984774827957 11.541423201560974,22.106681764125824 11.541423201560974,22.106681764125824 11.346365511417389,21.70937955379486 11.346365511417389,21.70937955379486 11.174466460943222,21.299347281455994 11.174466460943222,21.299347281455994 11.026529222726822,20.877425372600555 11.026529222726822,20.877425372600555 10.903504490852356,20.44445425271988 10.903504490852356,20.44445425271988 10.806340724229813,20.001263916492462 10.806340724229813,20.001263916492462 10.7358418405056,19.54868584871292 10.7358418405056,19.54868584871292 10.692885518074036,19.08756047487259 10.692885518074036,19.08756047487259 10.678347945213318,18.6187282204628 10.678347945213318,18.6187282204628 10.83030253648758,17.111031711101532 10.83030253648758,17.111031711101532 11.266223341226578,15.706776082515717 11.266223341226578,15.706776082515717 11.95593848824501,14.436037838459015 11.95593848824501,14.436037838459015 12.869422137737274,13.328903913497925 12.869422137737274,13.328903913497925 13.976648449897766,12.415438145399094 13.976648449897766,12.415438145399094 15.247371792793274,11.725728213787079 15.247371792793274,11.725728213787079 16.651567816734314,11.289847642183304 16.651567816734314,11.289847642183304" stroke="white" stroke-width="0.1" /><polygon points="84.66423153877258,11.137865483760834 84.66423153877258,11.137865483760834 86.17179989814758,11.289843171834946 86.17179989814758,11.289843171834946 87.57606744766235,11.725728213787079 87.57606744766235,11.725728213787079 88.84679079055786,12.415438145399094 88.84679079055786,12.415438145399094 89.95394706726074,13.328903913497925 89.95394706726074,13.328903913497925 90.86742997169495,14.436043798923492 90.86742997169495,14.436043798923492 91.55714511871338,15.706776082515717 91.55714511871338,15.706776082515717 91.9931411743164,17.111031711101532 91.9931411743164,17.111031711101532 92.14509129524231,18.6187282204628 92.14509129524231,18.6187282204628 92.14239120483398,18.818941712379456 92.14239120483398,18.818941712379456 92.13442802429199,19.017815589904785 92.13442802429199,19.017815589904785 92.12120175361633,19.21529769897461 92.12120175361633,19.21529769897461 92.10293889045715,19.411341845989227 92.10293889045715,19.411341845989227 92.07963347434998,19.605888426303864 92.07963347434998,19.605888426303864 92.05136299133301,19.798895716667175 92.05136299133301,19.798895716667175 92.01841354370117,19.990305602550507 92.01841354370117,19.990305602550507 91.98057055473328,20.18006592988968 91.98057055473328,20.18006592988968 91.6074812412262,21.405386924743652 91.6074812412262,21.405386924743652 91.04005694389343,22.531720995903015 91.04005694389343,22.531720995903015 90.29811024665833,23.539218306541443 90.29811024665833,23.539218306541443 89.4014298915863,24.40803349018097 89.4014298915863,24.40803349018097 88.36988806724548,25.118321180343628 88.36988806724548,25.118321180343628 87.22335696220398,25.65024197101593 87.22335696220398,25.65024197101593 85.98148822784424,25.983944535255432 85.98148822784424,25.983944535255432 84.66423153877258,26.099592447280884 84.66423153877258,26.099592447280884 83.48109722137451,26.00654661655426 83.48109722137451,26.00654661655426 82.35685229301453,25.73692798614502 82.35685229301453,25.73692798614502 81.30565881729126,25.304988026618958 81.30565881729126,25.304988026618958 80.34183979034424,24.72498267889023 80.34183979034424,24.72498267889023 79.47956919670105,24.01118278503418 79.47956919670105,24.01118278503418 78.7330150604248,23.17783683538437 78.7330150604248,23.17783683538437 78.11664938926697,22.239208221435547 78.11664938926697,22.239208221435547 77.64449119567871,21.209561824798584 77.64449119567871,21.209561824798584 77.53907442092896,20.903779566287994 77.53907442092896,20.903779566287994 77.44665741920471,20.592208206653595 77.44665741920471,20.592208206653595 77.36760973930359,20.275157690048218 77.36760973930359,20.275157690048218 77.30215787887573,19.952937960624695 77.30215787887573,19.952937960624695 77.25065350532532,19.625869393348694 77.25065350532532,19.625869393348694 77.21353769302368,19.294270873069763 77.21353769302368,19.294270873069763 77.19096541404724,18.958453834056854 77.19096541404724,18.958453834056854 77.18336582183838,18.6187282204628 77.18336582183838,18.6187282204628 77.33532190322876,17.111031711101532 77.33532190322876,17.111031711101532 77.77124047279358,15.706776082515717 77.77124047279358,15.706776082515717 78.46088409423828,14.436037838459015 78.46088409423828,14.436037838459015 79.3744444847107,13.328903913497925 79.3744444847107,13.328903913497925 80.4815948009491,12.415438145399094 80.4815948009491,12.415438145399094 81.75224661827087,11.725728213787079 81.75224661827087,11.725728213787079 83.15658569335938,11.289847642183304 83.15658569335938,11.289847642183304" stroke="white" stroke-width="0.1" /></svg>