<?xml version="1.0" encoding="utf-8" ?>
<svg baseProfile="full" height="32.19693899154663" version="1.1" width="99.99280571937561" xmlns="http://www.w3.org/2000/svg" xmlns:ev="http://www.w3.org/2001/xml-events" xmlns:xlink="http://www.w3.org/1999/xlink"><defs><clipPath /></defs><polygon points="99.406898021698,12.945704162120819 99.406898021698,12.945704162120819 99.43550825119019,12.962868809700012 99.43550825119019,12.962868809700012 99.51021671295166,13.02025020122528 99.51021671295166,13.02025020122528 99.61435198783875,13.12667429447174 99.61435198783875,13.12667429447174 99.73123669624329,13.290970027446747 99.73123669624329,13.290970027446747 99.8441994190216,13.521964848041534 99.8441994190216,13.521964848041534 99.93656873703003,13.828487694263458 99.93656873703003,13.828487694263458 99.99166131019592,14.219364523887634 99.99166131019592,14.219364523887634 99.99280571937561,14.703424274921417 99.99280571937561,14.703424274921417 99.93640184402466,15.231460332870483 99.93640184402466,15.231460332870483 99.83978867530823,15.74184000492096 99.83978867530823,15.74184000492096 99.71767067909241,16.224756836891174 99.71767067909241,16.224756836891174 99.58476424217224,16.67039841413498 99.58476424217224,16.67039841413498 99.4557797908783,17.068959772586823 99.4557797908783,17.068959772586823 99.34542775154114,17.410629987716675 99.34542775154114,17.410629987716675 99.26843047142029,17.685601115226746 99.26843047142029,17.685601115226746 99.23949241638184,17.884063720703125 99.23949241638184,17.884063720703125 99.23900365829468,18.087594211101532 99.23900365829468,18.087594211101532 99.23557043075562,18.366652727127075 99.23557043075562,18.366652727127075 99.22625422477722,18.69475394487381 99.22625422477722,18.69475394487381 99.20810461044312,19.04541552066803 99.20810461044312,19.04541552066803 99.17818903923035,19.39215362071991 99.17818903923035,19.39215362071991 99.13356304168701,19.708484411239624 99.13356304168701,19.708484411239624 99.07127618789673,19.967925548553467 99.07127618789673,19.967925548553467 98.98838996887207,20.143991708755493 98.98838996887207,20.143991708755493 98.90190958976746,20.330029726028442 98.90190958976746,20.330029726028442 98.83014559745789,20.612193644046783 98.83014559745789,20.612193644046783 98.77210855484009,20.953209698200226 98.77210855484009,20.953209698200226 98.72682690620422,21.3158056139946 98.72682690620422,21.3158056139946 98.69331121444702,21.66270762681961 98.69331121444702,21.66270762681961 98.67058992385864,21.956641972064972 98.67058992385864,21.956641972064972 98.65767359733582,22.16033637523651 98.65767359733582,22.16033637523651 98.6535906791687,22.236517071723938 98.6535906791687,22.236517071723938 98.68513941764832,22.26986587047577 98.68513941764832,22.26986587047577 98.7647533416748,22.36206829547882 98.7647533416748,22.36206829547882 98.86987209320068,22.501352429389954 98.86987209320068,22.501352429389954 98.97792935371399,22.675947844982147 98.97792935371399,22.675947844982147 99.06637072563171,22.874082624912262 99.06637072563171,22.874082624912262 99.11263585090637,23.083989322185516 99.11263585090637,23.083989322185516 99.09416437149048,23.29389601945877 99.09416437149048,23.29389601945877 98.98838996887207,23.492032289505005 98.98838996887207,23.492032289505005 98.80824089050293,23.75229001045227 98.80824089050293,23.75229001045227 98.58296513557434,24.13025200366974 98.58296513557434,24.13025200366974 98.31453561782837,24.586685001850128 98.31453561782837,24.586685001850128 98.00490736961365,25.08235275745392 98.00490736961365,25.08235275745392 97.65604138374329,25.57801902294159 97.65604138374329,25.57801902294159 97.26990461349487,26.03445053100586 97.26990461349487,26.03445053100586 96.84845805168152,26.412412524223328 96.84845805168152,26.412412524223328 96.39366269111633,26.672670245170593 96.39366269111633,26.672670245170593 96.1342990398407,26.757538318634033 96.1342990398407,26.757538318634033 95.8487868309021,26.8173485994339 95.8487868309021,26.8173485994339 95.53915858268738,26.85490846633911 95.53915858268738,26.85490846633911 95.20705342292786,26.873034238815308 95.20705342292786,26.873034238815308 94.85442638397217,26.87452733516693 94.85442638397217,26.87452733516693 94.483083486557,26.862141489982605 94.483083486557,26.862141489982605 94.09482479095459,26.83880627155304 94.09482479095459,26.83880627155304 93.69168877601624,26.807212829589844 93.69168877601624,26.807212829589844 93.7991738319397,26.452016830444336 93.7991738319397,26.452016830444336 93.89342069625854,26.091301441192627 93.89342069625854,26.091301441192627 93.97401213645935,25.72535276412964 93.97401213645935,25.72535276412964 94.04071569442749,25.354480743408203 94.04071569442749,25.354480743408203 94.09310817718506,24.97893124818802 94.09310817718506,24.97893124818802 94.13103461265564,24.598966538906097 94.13103461265564,24.598966538906097 94.15400624275208,24.214832484722137 94.15400624275208,24.214832484722137 94.16168928146362,23.826836049556732 94.16168928146362,23.826836049556732 93.96404027938843,21.8725323677063 93.96404027938843,21.8725323677063 93.39742660522461,20.05113512277603 93.39742660522461,20.05113512277603 92.50123500823975,18.40202510356903 92.50123500823975,18.40202510356903 91.31470918655396,16.964517533779144 91.31470918655396,16.964517533779144 89.8771584033966,15.777969360351562 89.8771584033966,15.777969360351562 88.2280707359314,14.881739020347595 88.2280707359314,14.881739020347595 86.40667200088501,14.315122365951538 86.40667200088501,14.315122365951538 84.45236682891846,14.117518067359924 84.45236682891846,14.117518067359924 82.4980616569519,14.315122365951538 82.4980616569519,14.315122365951538 80.67666888237,14.881739020347595 80.67666888237,14.881739020347595 79.0274977684021,15.777969360351562 79.0274977684021,15.777969360351562 77.59003043174744,16.964517533779144 77.59003043174744,16.964517533779144 76.40358209609985,18.402045965194702 76.40358209609985,18.402045965194702 75.50731301307678,20.05113512277603 75.50731301307678,20.05113512277603 74.94061589241028,21.8725323677063 74.94061589241028,21.8725323677063 74.74305033683777,23.826836049556732 74.74305033683777,23.826836049556732 74.76152181625366,24.42851960659027 74.76152181625366,24.42851960659027 74.81645345687866,25.020495057106018 74.81645345687866,25.020495057106018 74.90636706352234,25.601723790168762 74.90636706352234,25.601723790168762 75.03036260604858,26.171138882637024 75.03036260604858,26.171138882637024 75.18730163574219,26.72768235206604 75.18730163574219,26.72768235206604 75.37595629692078,27.270308136940002 75.37595629692078,27.270308136940002 75.59526562690735,27.797934412956238 75.59526562690735,27.797934412956238 75.84407925605774,28.30958068370819 75.84407925605774,28.30958068370819 73.7764835357666,28.197699785232544 73.7764835357666,28.197699785232544 71.4211642742157,28.079241514205933 71.4211642742157,28.079241514205933 68.81605386734009,27.95918583869934 68.81605386734009,27.95918583869934 65.99907279014587,27.842503786087036 65.99907279014587,27.842503786087036 63.00823092460632,27.734199166297913 63.00823092460632,27.734199166297913 59.88137722015381,27.639320492744446 59.88137722015381,27.639320492744446 56.65643811225891,27.562791109085083 56.65643811225891,27.562791109085083 53.371334075927734,27.50968039035797 53.371334075927734,27.50968039035797 48.37870001792908,27.46521532535553 48.37870001792908,27.46521532535553 43.86080801486969,27.45213806629181 43.86080801486969,27.45213806629181 39.876505732536316,27.46259868144989 39.876505732536316,27.46259868144989 36.48465275764465,27.48875617980957 36.48465275764465,27.48875617980957 33.744099736213684,27.52276062965393 33.744099736213684,27.52276062965393 31.71369731426239,27.556762099266052 31.71369731426239,27.556762099266052 30.452296137809753,27.582919597625732 30.452296137809753,27.582919597625732 30.018749833106995,27.593383193016052 30.018749833106995,27.593383193016052 29.181739687919617,29.100000858306885 29.181739687919617,29.100000858306885 29.200294613838196,29.032117128372192 29.200294613838196,29.032117128372192 29.23724055290222,28.84485125541687 29.23724055290222,28.84485125541687 29.264622926712036,28.562933206558228 29.264622926712036,28.562933206558228 29.254242777824402,28.211024403572083 29.254242777824402,28.211024403572083 29.178142547607422,27.81379222869873 29.178142547607422,27.81379222869873 29.008206725120544,27.395901083946228 29.008206725120544,27.395901083946228 28.716397285461426,26.982012391090393 28.716397285461426,26.982012391090393 28.274759650230408,26.59681737422943 28.274759650230408,26.59681737422943 28.36737036705017,26.265117526054382 28.36737036705017,26.265117526054382 28.448456525802612,25.928843021392822 28.448456525802612,25.928843021392822 28.517934679985046,25.58821439743042 28.517934679985046,25.58821439743042 28.57539653778076,25.243398547172546 28.57539653778076,25.243398547172546 28.620517253875732,24.894657731056213 28.620517253875732,24.894657731056213 28.65304946899414,24.542178213596344 28.65304946899414,24.542178213596344 28.67291271686554,24.186162650585175 28.67291271686554,24.186162650585175 28.679534792900085,23.826836049556732 28.679534792900085,23.826836049556732 28.48188877105713,21.8725323677063 28.48188877105713,21.8725323677063 27.915272116661072,20.05113512277603 27.915272116661072,20.05113512277603 27.019083499908447,18.40202510356903 27.019083499908447,18.40202510356903 25.832554697990417,16.964517533779144 25.832554697990417,16.964517533779144 24.39500540494919,15.777969360351562 24.39500540494919,15.777969360351562 22.74591624736786,14.881739020347595 22.74591624736786,14.881739020347595 20.92451900243759,14.315122365951538 20.92451900243759,14.315122365951538 18.970215320587158,14.117518067359924 18.970215320587158,14.117518067359924 17.015910148620605,14.315122365951538 17.015910148620605,14.315122365951538 15.194514393806458,14.881739020347595 15.194514393806458,14.881739020347595 13.545425236225128,15.777969360351562 13.545425236225128,15.777969360351562 12.107875943183899,16.964517533779144 12.107875943183899,16.964517533779144 10.921348631381989,18.402045965194702 10.921348631381989,18.402045965194702 10.025077313184738,20.05113512277603 10.025077313184738,20.05113512277603 9.458542615175247,21.8725323677063 9.458542615175247,21.8725323677063 9.26089659333229,23.826836049556732 9.26089659333229,23.826836049556732 9.276754409074783,24.38468635082245 9.276754409074783,24.38468635082245 9.323754161596298,24.934321641921997 9.323754161596298,24.934321641921997 9.400998055934906,25.474905967712402 9.400998055934906,25.474905967712402 9.507586061954498,26.00557506084442 9.507586061954498,26.00557506084442 9.642700850963593,26.525458693504333 9.642700850963593,26.525458693504333 9.8054438829422,27.03375518321991 9.8054438829422,27.03375518321991 9.995079040527344,27.52954363822937 9.995079040527344,27.52954363822937 10.210543870925903,28.012052178382874 10.210543870925903,28.012052178382874 9.870345145463943,28.08467745780945 9.870345145463943,28.08467745780945 9.567582607269287,28.1499445438385 9.567582607269287,28.1499445438385 9.304872900247574,28.20708155632019 9.304872900247574,28.20708155632019 9.084585309028625,28.25545072555542 9.084585309028625,28.25545072555542 8.90892744064331,28.29429805278778 8.90892744064331,28.29429805278778 8.780597150325775,28.3229261636734 8.780597150325775,28.3229261636734 8.701799809932709,28.340643644332886 8.701799809932709,28.340643644332886 8.674989640712738,28.34669053554535 8.674989640712738,28.34669053554535 8.356697112321854,28.316283226013184 8.356697112321854,28.316283226013184 7.509714365005493,28.228986263275146 7.509714365005493,28.228986263275146 6.295885890722275,28.09068262577057 6.295885890722275,28.09068262577057 4.877055808901787,27.90726125240326 4.877055808901787,27.90726125240326 3.415067121386528,27.68460214138031 3.415067121386528,27.68460214138031 2.071763761341572,27.42859721183777 2.071763761341572,27.42859721183777 1.0089896619319916,27.14512348175049 1.0089896619319916,27.14512348175049 0.38858852349221706,26.840072870254517 0.38858852349221706,26.840072870254517 0.12784022837877274,26.50984525680542 0.12784022837877274,26.50984525680542 0.013241762644611299,26.160001754760742 0.013241762644611299,26.160001754760742 0.010462627687957138,25.810158252716064 0.010462627687957138,25.810158252716064 0.08517233072780073,25.479930639266968 0.08517233072780073,25.479930639266968 0.20304035861045122,25.18894076347351 0.20304035861045122,25.18894076347351 0.32973624765872955,24.956800043582916 0.32973624765872955,24.956800043582916 0.4309294745326042,24.803130328655243 0.4309294745326042,24.803130328655243 0.47228955663740635,24.747547507286072 0.47228955663740635,24.747547507286072 0.5082548130303621,24.73250776529312 0.5082548130303621,24.73250776529312 0.6030723918229342,24.67430979013443 0.6030723918229342,24.67430979013443 0.7371248211711645,24.553334712982178 0.7371248211711645,24.553334712982178 0.890794675797224,24.349968135356903 0.890794675797224,24.349968135356903 1.0444644838571548,24.044589698314667 1.0444644838571548,24.044589698314667 1.1785169132053852,23.617583513259888 1.1785169132053852,23.617583513259888 1.2733344919979572,23.049332201480865 1.2733344919979572,23.049332201480865 1.309299748390913,22.3202183842659 1.309299748390913,22.3202183842659 1.2748057954013348,21.543367207050323 1.2748057954013348,21.543367207050323 1.1902873404324055,20.84498703479767 1.1902873404324055,20.84498703479767 1.0841897688806057,20.225076377391815 1.0841897688806057,20.225076377391815 0.9849582798779011,19.683635234832764 0.9849582798779011,19.683635234832764 0.9210381656885147,19.220665097236633 0.9210381656885147,19.220665097236633 0.9208747185766697,18.836162984371185 0.9208747185766697,18.836162984371185 1.0129131376743317,18.53013038635254 1.0129131376743317,18.53013038635254 1.2255987152457237,18.302568793296814 1.2255987152457237,18.302568793296814 1.561547163873911,18.092499673366547 1.561547163873911,18.092499673366547 1.98283139616251,17.846137285232544 1.98283139616251,17.846137285232544 2.4570826441049576,17.57427155971527 2.4570826441049576,17.57427155971527 2.9519323259592056,17.287693917751312 2.9519323259592056,17.287693917751312 3.4350115805864334,16.997192800045013 3.4350115805864334,16.997192800045013 3.8739513605833054,16.71355664730072 3.8739513605833054,16.71355664730072 4.236383363604546,16.447578370571136 4.236383363604546,16.447578370571136 4.4899385422468185,16.21004343032837 4.4899385422468185,16.21004343032837 4.685131832957268,15.974634885787964 4.685131832957268,15.974634885787964 4.905828088521957,15.707837045192719 4.905828088521957,15.707837045192719 5.169682577252388,15.409652888774872 5.169682577252388,15.409652888774872 5.49435093998909,15.080079436302185 5.49435093998909,15.080079436302185 5.897488817572594,14.719118177890778 5.897488817572594,14.719118177890778 6.396752595901489,14.326770603656769 6.396752595901489,14.326770603656769 7.0097967982292175,13.90303373336792 7.0097967982292175,13.90303373336792 7.754278182983398,13.44790905714035 7.754278182983398,13.44790905714035 8.588509261608124,13.00063282251358 8.588509261608124,13.00063282251358 9.453147649765015,12.600436806678772 9.453147649765015,12.600436806678772 10.339365154504776,12.247323244810104 10.339365154504776,12.247323244810104 11.238333582878113,11.941291391849518 11.238333582878113,11.941291391849518 12.14122548699379,11.682341247797012 12.14122548699379,11.682341247797012 13.039213418960571,11.470472812652588 13.039213418960571,11.470472812652588 13.923469185829163,11.305686831474304 13.923469185829163,11.305686831474304 14.785164594650269,11.187981814146042 14.785164594650269,11.187981814146042 15.89796245098114,11.076325923204422 15.89796245098114,11.076325923204422 17.425669729709625,10.938186943531036 17.425669729709625,10.938186943531036 19.194671511650085,10.7863150537014 19.194671511650085,10.7863150537014 21.031352877616882,10.63346266746521 21.031352877616882,10.63346266746521 22.762100398540497,10.49238070845604 22.762100398540497,10.49238070845604 24.21329915523529,10.375820845365524 24.21329915523529,10.375820845365524 25.211337208747864,10.29653325676918 25.211337208747864,10.29653325676918 25.58259665966034,10.267271101474762 25.58259665966034,10.267271101474762 26.796916127204895,10.713893920183182 26.796916127204895,10.713893920183182 35.71041822433472,6.165920943021774 35.71041822433472,6.165920943021774 37.23011612892151,5.425689741969109 37.23011612892151,5.425689741969109 38.8282835483551,4.716846719384193 38.8282835483551,4.716846719384193 40.4892235994339,4.047238826751709 40.4892235994339,4.047238826751709 42.197248339653015,3.4247122704982758 42.197248339653015,3.4247122704982758 43.93666088581085,2.8571147471666336 43.93666088581085,2.8571147471666336 45.69176733493805,2.352293021976948 45.69176733493805,2.352293021976948 47.44687080383301,1.9180938601493835 47.44687080383301,1.9180938601493835 49.186283349990845,1.562364585697651 49.186283349990845,1.562364585697651 50.207942724227905,1.3683564029633999 50.207942724227905,1.3683564029633999 51.106828451156616,1.1831351555883884 51.106828451156616,1.1831351555883884 51.87885761260986,1.0119731537997723 51.87885761260986,1.0119731537997723 52.519774436950684,0.8601424284279346 52.519774436950684,0.8601424284279346 53.02557945251465,0.7328743580728769 53.02557945251465,0.7328743580728769 53.39193344116211,0.6355228833854198 53.39193344116211,0.6355228833854198 53.61467003822327,0.5731966812163591 53.61467003822327,0.5731966812163591 53.68995666503906,0.5512496922165155 53.68995666503906,0.5512496922165155 54.16698455810547,0.0 54.16698455810547,0.0 54.832834005355835,0.007520013605244458 54.832834005355835,0.007520013605244458 55.16216158866882,0.024603522615507245 55.16216158866882,0.024603522615507245 56.069958209991455,0.07622187840752304 56.069958209991455,0.07622187840752304 57.435983419418335,0.16298812115564942 57.435983419418335,0.16298812115564942 59.140002727508545,0.28543355874717236 59.140002727508545,0.28543355874717236 61.061859130859375,0.4441303666681051 61.061859130859375,0.4441303666681051 63.08097839355469,0.6397324614226818 63.08097839355469,0.6397324614226818 65.0774598121643,0.8728120476007462 65.0774598121643,0.8728120476007462 66.93090200424194,1.143859513103962 66.93090200424194,1.143859513103962 69.35855746269226,1.6203993931412697 69.35855746269226,1.6203993931412697 72.32176661491394,2.3039033636450768 72.32176661491394,2.3039033636450768 75.55570006370544,3.1109970062971115 75.55570006370544,3.1109970062971115 78.79552245140076,3.958306461572647 78.79552245140076,3.958306461572647 81.77638649940491,4.762457311153412 81.77638649940491,4.762457311153412 84.23346877098083,5.440076068043709 84.23346877098083,5.440076068043709 85.90193390846252,5.907788127660751 85.90193390846252,5.907788127660751 86.51694059371948,6.082219630479813 86.51694059371948,6.082219630479813 86.53067350387573,6.0354650020599365 86.53067350387573,6.0354650020599365 86.57971620559692,5.912201851606369 86.57971620559692,5.912201851606369 86.6758406162262,5.73793388903141 86.6758406162262,5.73793388903141 86.83081865310669,5.538162961602211 86.83081865310669,5.538162961602211 87.05641627311707,5.338392406702042 87.05641627311707,5.338392406702042 87.36441135406494,5.164124071598053 87.36441135406494,5.164124071598053 87.76656985282898,5.040861293673515 87.76656985282898,5.040861293673515 88.27466368675232,4.994106292724609 88.27466368675232,4.994106292724609 88.78700137138367,4.997048899531364 88.78700137138367,4.997048899531364 89.21891450881958,5.0019532442092896 89.21891450881958,5.0019532442092896 89.60766792297363,5.002934113144875 89.60766792297363,5.002934113144875 89.99053239822388,4.994106292724609 89.99053239822388,4.994106292724609 90.40478467941284,4.969584569334984 90.40478467941284,4.969584569334984 90.88770151138306,4.923483729362488 90.88770151138306,4.923483729362488 91.47655367851257,4.849918186664581 91.47655367851257,4.849918186664581 92.20861196517944,4.743003472685814 92.20861196517944,4.743003472685814 93.08894276618958,4.604373499751091 93.08894276618958,4.604373499751091 94.05657052993774,4.450049996376038 94.05657052993774,4.450049996376038 95.0497031211853,4.295726120471954 95.0497031211853,4.295726120471954 96.00654244422913,4.1570961475372314 96.00654244422913,4.1570961475372314 96.86529636383057,4.049854353070259 96.86529636383057,4.049854353070259 97.5641667842865,3.989694267511368 97.5641667842865,3.989694267511368 98.04136157035828,3.992309793829918 98.04136157035828,3.992309793829918 98.23508262634277,4.0733952075243 98.23508262634277,4.0733952075243 98.28053116798401,4.196004197001457 98.28053116798401,4.196004197001457 98.33186268806458,4.316651448607445 98.33186268806458,4.316651448607445 98.35572838783264,4.4412218034267426 98.35572838783264,4.4412218034267426 98.31878542900085,4.57560122013092 98.31878542900085,4.57560122013092 98.18767309188843,4.725674539804459 98.18767309188843,4.725674539804459 97.92904853820801,4.897326976060867 97.92904853820801,4.897326976060867 97.50956296920776,5.0964441150426865 97.50956296920776,5.0964441150426865 96.89586758613586,5.3289104253053665 96.89586758613586,5.3289104253053665 96.21579647064209,5.547808483242989 96.21579647064209,5.547808483242989 95.61419486999512,5.714720115065575 95.61419486999512,5.714720115065575 95.0832188129425,5.84828183054924 95.0832188129425,5.84828183054924 94.61501240730286,5.96713088452816 94.61501240730286,5.96713088452816 94.20173764228821,6.08990341424942 94.20173764228821,6.08990341424942 93.83555054664612,6.235235556960106 93.83555054664612,6.235235556960106 93.50858926773071,6.421764940023422 93.50858926773071,6.421764940023422 93.2130217552185,6.668126583099365 93.2130217552185,6.668126583099365 92.92203187942505,6.924787908792496 92.92203187942505,6.924787908792496 92.6271140575409,7.136329263448715 92.6271140575409,7.136329263448715 92.3478901386261,7.312559336423874 92.3478901386261,7.312559336423874 92.10398197174072,7.463286817073822 92.10398197174072,7.463286817073822 91.91499948501587,7.59831964969635 91.91499948501587,7.59831964969635 91.8005645275116,7.727468013763428 91.8005645275116,7.727468013763428 91.78029298782349,7.8605398535728455 91.78029298782349,7.8605398535728455 91.8738067150116,8.007343113422394 91.8738067150116,8.007343113422394 92.0430064201355,8.141395449638367 92.0430064201355,8.141395449638367 92.2386884689331,8.232289552688599 92.2386884689331,8.232289552688599 92.46379733085632,8.28394889831543 92.46379733085632,8.28394889831543 92.72127747535706,8.3002969622612 92.72127747535706,8.3002969622612 93.01406741142273,8.28525647521019 93.01406741142273,8.28525647521019 93.34511160850525,8.242752403020859 93.34511160850525,8.242752403020859 93.71735453605652,8.176706731319427 93.71735453605652,8.176706731319427 94.13373470306396,8.091044425964355 94.13373470306396,8.091044425964355 94.57675814628601,7.997371256351471 94.57675814628601,7.997371256351471 95.02567052841187,7.906640321016312 95.02567052841187,7.906640321016312 95.47850489616394,7.821795344352722 95.47850489616394,7.821795344352722 95.9333062171936,7.745777815580368 95.9333062171936,7.745777815580368 96.38810157775879,7.681530714035034 96.38810157775879,7.681530714035034 96.84093594551086,7.631996273994446 96.84093594551086,7.631996273994446 97.28984832763672,7.6001182198524475 97.28984832763672,7.6001182198524475 97.73287773132324,7.588838040828705 97.73287773132324,7.588838040828705 98.16936254501343,7.597666233778 98.16936254501343,7.597666233778 98.58819842338562,7.628072798252106 98.58819842338562,7.628072798252106 98.9717185497284,7.685944437980652 98.9717185497284,7.685944437980652 99.30226802825928,7.777165621519089 99.30226802825928,7.777165621519089 99.56220388412476,7.9076215624809265 99.56220388412476,7.9076215624809265 99.73385334014893,8.083197474479675 99.73385334014893,8.083197474479675 99.79957342147827,8.309778571128845 99.79957342147827,8.309778571128845 99.74170327186584,8.593250066041946 99.74170327186584,8.593250066041946 99.62072968482971,8.902715146541595 99.62072968482971,8.902715146541595 99.51152205467224,9.20139029622078 99.51152205467224,9.20139029622078 99.41801428794861,9.486334025859833 99.41801428794861,9.486334025859833 99.34412240982056,9.754601866006851 99.34412240982056,9.754601866006851 99.2937684059143,10.003253072500229 99.2937684059143,10.003253072500229 99.27088022232056,10.229343920946121 99.27088022232056,10.229343920946121 99.27938580513,10.429932177066803 99.27938580513,10.429932177066803 99.32319521903992,10.60207486152649 99.32319521903992,10.60207486152649 99.37485456466675,10.822934657335281 99.37485456466675,10.822934657335281 99.406898021698,11.144823580980301 99.406898021698,11.144823580980301 99.42324757575989,11.527527123689651 99.42324757575989,11.527527123689651 99.42781925201416,11.930828541517258 99.42781925201416,11.930828541517258 99.42455291748047,12.314512580633163 99.42455291748047,12.314512580633163 99.41735863685608,12.638363242149353 99.41735863685608,12.638363242149353 99.41016435623169,12.86216527223587 99.41016435623169,12.86216527223587" stroke="white" stroke-width="0.1" /><polygon points="27.340316772460938,23.826836049556732 27.340316772460938,23.826836049556732 27.335330843925476,24.11603033542633 27.335330843925476,24.11603033542633 27.320373058319092,24.402669072151184 27.320373058319092,24.402669072151184 27.295932173728943,24.686652421951294 27.295932173728943,24.686652421951294 27.262011170387268,24.967855215072632 27.262011170387268,24.967855215072632 27.218851447105408,25.246095657348633 27.218851447105408,25.246095657348633 27.16662287712097,25.52129030227661 27.16662287712097,25.52129030227661 27.105724811553955,25.793278217315674 27.105724811553955,25.793278217315674 27.03608274459839,26.06191635131836 27.03608274459839,26.06191635131836 26.566490530967712,27.341032028198242 26.566490530967712,27.341032028198242 25.904402136802673,28.512704372406006 25.904402136802673,28.512704372406006 25.068864226341248,29.55743372440338 25.068864226341248,29.55743372440338 24.079492688179016,30.455809831619263 24.079492688179016,30.455809831619263 22.95549511909485,31.188398599624634 22.95549511909485,31.188398599624634 21.716491878032684,31.735724210739136 21.716491878032684,31.735724210739136 20.38152515888214,32.078397274017334 20.38152515888214,32.078397274017334 18.970215320587158,32.19693899154663 18.970215320587158,32.19693899154663 17.78712123632431,32.11393356323242 17.78712123632431,32.11393356323242 16.655032336711884,31.87243342399597 16.655032336711884,31.87243342399597 15.585391223430634,31.483784317970276 15.585391223430634,31.483784317970276 14.589235186576843,30.959302186965942 14.589235186576843,30.959302186965942 13.677923381328583,30.310314893722534 13.677923381328583,30.310314893722534 12.86281943321228,29.548096656799316 12.86281943321228,29.548096656799316 12.15495765209198,28.68402898311615 12.15495765209198,28.68402898311615 11.565780639648438,27.729395031929016 11.565780639648438,27.729395031929016 11.347537487745285,27.284938097000122 11.347537487745285,27.284938097000122 11.155122518539429,26.826217770576477 11.155122518539429,26.826217770576477 10.989682376384735,26.354193687438965 10.989682376384735,26.354193687438965 10.852033644914627,25.869765877723694 10.852033644914627,25.869765877723694 10.743320733308792,25.373893976211548 10.743320733308792,25.373893976211548 10.66444218158722,24.867500364780426 10.66444218158722,24.867500364780426 10.616379231214523,24.35149997472763 10.616379231214523,24.35149997472763 10.60011312365532,23.826836049556732 10.60011312365532,23.826836049556732 10.770130902528763,22.139982879161835 10.770130902528763,22.139982879161835 11.257787048816681,20.568831264972687 11.257787048816681,20.568831264972687 12.02956959605217,19.147038459777832 12.02956959605217,19.147038459777832 13.051638007164001,17.908279597759247 13.051638007164001,17.908279597759247 14.290396869182587,16.886210441589355 14.290396869182587,16.886210441589355 15.71216881275177,16.11448973417282 15.71216881275177,16.11448973417282 17.28336215019226,15.62679260969162 17.28336215019226,15.62679260969162 18.970215320587158,15.456734597682953 18.970215320587158,15.456734597682953 20.657068490982056,15.62679260969162 20.657068490982056,15.62679260969162 22.22817987203598,16.11448973417282 22.22817987203598,16.11448973417282 23.649951815605164,16.886231303215027 23.649951815605164,16.886231303215027 24.888792634010315,17.908279597759247 24.888792634010315,17.908279597759247 25.910860300064087,19.14701759815216 25.910860300064087,19.14701759815216 26.68256163597107,20.568831264972687 26.68256163597107,20.568831264972687 27.170300483703613,22.139982879161835 27.170300483703613,22.139982879161835" stroke="white" stroke-width="0.1" /><polygon points="92.82246828079224,23.826836049556732 92.82246828079224,23.826836049556732 92.81421303749084,24.20112043619156 92.81421303749084,24.20112043619156 92.78977513313293,24.571216106414795 92.78977513313293,24.571216106414795 92.74939894676208,24.93671327829361 92.74939894676208,24.93671327829361 92.69348382949829,25.29732584953308 92.69348382949829,25.29732584953308 92.62237548828125,25.652706623077393 92.62237548828125,25.652706623077393 92.53646731376648,26.002490520477295 92.53646731376648,26.002490520477295 92.43600964546204,26.346367597579956 92.43600964546204,26.346367597579956 92.32157468795776,26.683950424194336 92.32157468795776,26.683950424194336 91.79664254188538,27.84411609172821 91.79664254188538,27.84411609172821 91.1083996295929,28.902027010917664 91.1083996295929,28.902027010917664 90.27286171913147,29.841497540473938 90.27286171913147,29.841497540473938 89.3062949180603,30.646365880966187 89.3062949180603,30.646365880966187 88.22479844093323,31.30050301551819 88.22479844093323,31.30050301551819 87.0446503162384,31.787753105163574 87.0446503162384,31.787753105163574 85.78177690505981,32.09194540977478 85.78177690505981,32.09194540977478 84.45236682891846,32.19693899154663 84.45236682891846,32.19693899154663 83.37022066116333,32.127562165260315 83.37022066116333,32.127562165260315 82.32976198196411,31.925195455551147 82.32976198196411,31.925195455551147 81.33965730667114,31.598463654518127 81.33965730667114,31.598463654518127 80.40856122970581,31.155988574028015 80.40856122970581,31.155988574028015 79.54490780830383,30.60641586780548 79.54490780830383,30.60641586780548 78.75726819038391,29.958385229110718 78.75726819038391,29.958385229110718 78.0542254447937,29.220524430274963 78.0542254447937,29.220524430274963 77.44436860084534,28.401455283164978 77.44436860084534,28.401455283164978 77.13891267776489,27.896595001220703 77.13891267776489,27.896595001220703 76.8686830997467,27.36937701702118 76.8686830997467,27.36937701702118 76.6353964805603,26.82141661643982 76.6353964805603,26.82141661643982 76.44069194793701,26.254287362098694 76.44069194793701,26.254287362098694 76.28645300865173,25.669649243354797 76.28645300865173,25.669649243354797 76.17413997650146,25.06915032863617 76.17413997650146,25.06915032863617 76.10548138618469,24.454307556152344 76.10548138618469,24.454307556152344 76.08226537704468,23.826836049556732 76.08226537704468,23.826836049556732 76.252281665802,22.139982879161835 76.252281665802,22.139982879161835 76.74002051353455,20.568831264972687 76.74002051353455,20.568831264972687 77.51180529594421,19.147038459777832 77.51180529594421,19.147038459777832 78.53379249572754,17.908279597759247 78.53379249572754,17.908279597759247 79.77254986763,16.886210441589355 79.77254986763,16.886210441589355 81.194406747818,16.11448973417282 81.194406747818,16.11448973417282 82.76551365852356,15.62679260969162 82.76551365852356,15.62679260969162 84.45236682891846,15.456734597682953 84.45236682891846,15.456734597682953 86.13930344581604,15.62679260969162 86.13930344581604,15.62679260969162 87.71041631698608,16.11448973417282 87.71041631698608,16.11448973417282 89.13218975067139,16.886231303215027 89.13218975067139,16.886231303215027 90.37094712257385,17.908279597759247 90.37094712257385,17.908279597759247 91.39301180839539,19.14701759815216 91.39301180839539,19.14701759815216 92.16471314430237,20.568831264972687 92.16471314430237,20.568831264972687 92.65245199203491,22.139982879161835 92.65245199203491,22.139982879161835" stroke="white" stroke-width="0.1" /><polygon points="29.26543951034546,19.641785323619843 29.26543951034546,19.641785323619843 29.451152682304382,20.0387105345726 29.451152682304382,20.0387105345726 29.731029272079468,20.651428401470184 29.731029272079468,20.651428401470184 30.065831542015076,21.36615663766861 30.065831542015076,21.36615663766861 30.416330695152283,22.069114446640015 30.416330695152283,22.069114446640015 30.74328601360321,22.646521031856537 30.74328601360321,22.646521031856537 31.007468700408936,22.984594106674194 31.007468700408936,22.984594106674194 31.16963803768158,22.969554364681244 31.16963803768158,22.969554364681244 31.19056522846222,22.487619519233704 31.19056522846222,22.487619519233704 31.090515851974487,21.6908261179924 31.090515851974487,21.6908261179924 30.923768877983093,20.83714008331299 30.923768877983093,20.83714008331299 30.7020902633667,19.971685111522675 30.7020902633667,19.971685111522675 30.437254905700684,19.139578938484192 30.437254905700684,19.139578938484192 30.141031742095947,18.38594228029251 30.141031742095947,18.38594228029251 29.82519268989563,17.755895853042603 29.82519268989563,17.755895853042603 29.501503705978394,17.294560372829437 29.501503705978394,17.294560372829437 29.181739687919617,17.047053575515747 29.181739687919617,17.047053575515747 28.87309193611145,16.94013923406601 28.87309193611145,16.94013923406601 28.580138087272644,16.866573691368103 28.580138087272644,16.866573691368103 28.31072509288788,16.820472478866577 28.31072509288788,16.820472478866577 28.072699904441833,16.79595112800598 28.072699904441833,16.79595112800598 27.873912453651428,16.787122189998627 27.873912453651428,16.787122189998627 27.722203731536865,16.7881041765213 27.722203731536865,16.7881041765213 27.625423669815063,16.793008148670197 27.625423669815063,16.793008148670197 27.591419219970703,16.79595112800598 27.591419219970703,16.79595112800598 27.649620175361633,16.890768706798553 27.649620175361633,16.890768706798553 27.805903553962708,17.14644879102707 27.805903553962708,17.14644879102707 28.032812476158142,17.519833147525787 28.032812476158142,17.519833147525787 28.3028781414032,17.967765033245087 28.3028781414032,17.967765033245087 28.588640689849854,18.447083234786987 28.588640689849854,18.447083234786987 28.86262834072113,18.914632499217987 28.86262834072113,18.914632499217987 29.097384214401245,19.327253103256226 29.097384214401245,19.327253103256226" stroke="white" stroke-width="0.1" /><polygon points="29.432842135429382,10.60207486152649 29.432842135429382,10.60207486152649 29.636290669441223,10.63477024435997 29.636290669441223,10.63477024435997 30.184271931648254,10.717163980007172 30.184271931648254,10.717163980007172 30.983027815818787,10.825733840465546 30.983027815818787,10.825733840465546 31.938806176185608,10.936899483203888 31.938806176185608,10.936899483203888 32.95809328556061,11.02713942527771 32.95809328556061,11.02713942527771 33.94705951213837,11.072933673858643 33.94705951213837,11.072933673858643 34.8120242357254,11.05068027973175 34.8120242357254,11.05068027973175 35.45931577682495,10.936878621578217 35.45931577682495,10.936878621578217 36.232489347457886,10.492196679115295 36.232489347457886,10.492196679115295 37.429314851760864,9.597621858119965 37.429314851760864,9.597621858119965 38.88746201992035,8.41013416647911 38.88746201992035,8.41013416647911 40.444594621658325,7.0866115391254425 40.444594621658325,7.0866115391254425 41.93821847438812,5.784034729003906 41.93821847438812,5.784034729003906 43.20615530014038,4.659302532672882 43.20615530014038,4.659302532672882 44.08591687679291,3.869374096393585 44.08591687679291,3.869374096393585 44.41532492637634,3.571189194917679 44.41532492637634,3.571189194917679 44.20149624347687,3.652764856815338 44.20149624347687,3.652764856815338 43.614935874938965,3.8785286247730255 43.614935874938965,3.8785286247730255 42.73803532123566,4.220035672187805 42.73803532123566,4.220035672187805 41.65319204330444,4.648839682340622 41.65319204330444,4.648839682340622 40.44279754161835,5.13649620115757 40.44279754161835,5.13649620115757 39.18924331665039,5.6545596569776535 39.18924331665039,5.6545596569776535 37.974923849105835,6.174585223197937 37.974923849105835,6.174585223197937 36.88223361968994,6.668126583099365 36.88223361968994,6.668126583099365 35.79314053058624,7.197634130716324 35.79314053058624,7.197634130716324 34.58830416202545,7.8124769032001495 34.58830416202545,7.8124769032001495 33.34815502166748,8.464592695236206 33.34815502166748,8.464592695236206 32.15312659740448,9.105919301509857 32.15312659740448,9.105919301509857 31.083649396896362,9.688393026590347 31.083649396896362,9.688393026590347 30.22015690803528,10.1639524102211 30.22015690803528,10.1639524102211 29.6430766582489,10.48453375697136 29.6430766582489,10.48453375697136" stroke="white" stroke-width="0.1" /><polygon points="46.24350666999817,3.794337436556816 46.24350666999817,3.794337436556816 42.40650236606598,7.3377348482608795 42.40650236606598,7.3377348482608795 42.46281981468201,7.319650053977966 42.46281981468201,7.319650053977966 42.618370056152344,7.281968742609024 42.618370056152344,7.281968742609024 42.85312592983246,7.249538600444794 42.85312592983246,7.249538600444794 43.14722120761871,7.2471678256988525 43.14722120761871,7.2471678256988525 43.48055422306061,7.299746572971344 43.48055422306061,7.299746572971344 43.83309781551361,7.432082295417786 43.83309781551361,7.432082295417786 44.18473839759827,7.669045031070709 44.18473839759827,7.669045031070709 44.51570212841034,8.035461604595184 44.51570212841034,8.035461604595184 44.73762512207031,8.489073812961578 44.73762512207031,8.489073812961578 44.80195343494415,8.955886960029602 44.80195343494415,8.955886960029602 44.748085737228394,9.413197636604309 44.748085737228394,9.413197636604309 44.61558759212494,9.838303178548813 44.61558759212494,9.838303178548813 44.443851709365845,10.208480060100555 44.443851709365845,10.208480060100555 44.27236318588257,10.501004010438919 44.27236318588257,10.501004010438919 44.140517711639404,10.693173110485077 44.140517711639404,10.693173110485077 44.087713956832886,10.762283951044083 44.087713956832886,10.762283951044083 63.91766667366028,9.430260956287384 63.91766667366028,9.430260956287384 64.41987156867981,4.408199340105057 64.41987156867981,4.408199340105057" stroke="white" stroke-width="0.1" /><polygon points="69.10712718963623,5.914817750453949 69.10712718963623,5.914817750453949 68.80346536636353,5.93862421810627 68.80346536636353,5.93862421810627 68.52064728736877,6.006896868348122 68.52064728736877,6.006896868348122 68.26472282409668,6.114935874938965 68.26472282409668,6.114935874938965 68.04173588752747,6.2580205500125885 68.04173588752747,6.2580205500125885 67.857825756073,6.4314305782318115 67.857825756073,6.4314305782318115 67.71894693374634,6.630486249923706 67.71894693374634,6.630486249923706 67.63107776641846,6.85044601559639 67.63107776641846,6.85044601559639 67.60050654411316,7.086631655693054 67.60050654411316,7.086631655693054 67.63107776641846,7.322817295789719 67.63107776641846,7.322817295789719 67.71886944770813,7.542777806520462 67.71886944770813,7.542777806520462 67.857825756073,7.741813361644745 67.857825756073,7.741813361644745 68.04173588752747,7.91524350643158 68.04173588752747,7.91524350643158 68.26480627059937,8.058328181505203 68.26480627059937,8.058328181505203 68.52073073387146,8.166366815567017 68.52073073387146,8.166366815567017 68.80346536636353,8.234639465808868 68.80346536636353,8.234639465808868 69.10712718963623,8.25844630599022 69.10712718963623,8.25844630599022 69.41078901290894,8.234639465808868 69.41078901290894,8.234639465808868 69.69360709190369,8.166366815567017 69.69360709190369,8.166366815567017 69.94953155517578,8.058328181505203 69.94953155517578,8.058328181505203 70.172518491745,7.91524350643158 70.172518491745,7.91524350643158 70.35651206970215,7.741833478212357 70.35651206970215,7.741833478212357 70.49538493156433,7.542777806520462 70.49538493156433,7.542777806520462 70.58309316635132,7.322817295789719 70.58309316635132,7.322817295789719 70.6137478351593,7.086631655693054 70.6137478351593,7.086631655693054 70.583176612854,6.85044601559639 70.583176612854,6.85044601559639 70.49530744552612,6.630486249923706 70.49530744552612,6.630486249923706 70.35642862319946,6.431450694799423 70.35642862319946,6.431450694799423 70.172518491745,6.2580205500125885 70.172518491745,6.2580205500125885 69.9494481086731,6.114935874938965 69.9494481086731,6.114935874938965 69.69360709190369,6.006896868348122 69.69360709190369,6.006896868348122 69.41078901290894,5.93862421810627 69.41078901290894,5.93862421810627" stroke="white" stroke-width="0.1" /><polygon points="69.19082999229431,18.97217631340027 69.19082999229431,18.97217631340027 70.31915783882141,18.2749405503273 70.31915783882141,18.2749405503273 71.24934792518616,17.521795630455017 71.24934792518616,17.521795630455017 71.97160124778748,16.743147373199463 71.97160124778748,16.743147373199463 72.47609496116638,15.969403088092804 72.47609496116638,15.969403088092804 72.75302410125732,15.230970084667206 72.75302410125732,15.230970084667206 72.79258966445923,14.558255672454834 72.79258966445923,14.558255672454834 72.58496880531311,13.981667160987854 72.58496880531311,13.981667160987854 72.1203625202179,13.531610369682312 72.1203625202179,13.531610369682312 71.24657034873962,13.24683129787445 71.24657034873962,13.24683129787445 69.93236541748047,13.120952248573303 69.93236541748047,13.120952248573303 68.34940314292908,13.116702437400818 68.34940314292908,13.116702437400818 66.66933298110962,13.196806609630585 66.66933298110962,13.196806609630585 65.06381034851074,13.323992490768433 65.06381034851074,13.323992490768433 63.704490661621094,13.46098780632019 63.704490661621094,13.46098780632019 62.763017416000366,13.570518791675568 62.763017416000366,13.570518791675568 62.41104602813721,13.615311682224274 62.41104602813721,13.615311682224274 62.53463625907898,13.626591861248016 62.53463625907898,13.626591861248016 62.86616921424866,13.658469915390015 62.86616921424866,13.658469915390015 63.3467972278595,13.708004355430603 63.3467972278595,13.708004355430603 63.91766667366028,13.772250711917877 63.91766667366028,13.772250711917877 64.5199179649353,13.848268985748291 64.5199179649353,13.848268985748291 65.0947093963623,13.93311470746994 65.0947093963623,13.93311470746994 65.58318138122559,14.02384489774704 65.58318138122559,14.02384489774704 65.9264862537384,14.117518067359924 65.9264862537384,14.117518067359924 65.93670845031738,14.182807505130768 65.93670845031738,14.182807505130768 65.95836877822876,14.367762207984924 65.95836877822876,14.367762207984924 65.97822904586792,14.656077325344086 65.97822904586792,14.656077325344086 65.98272323608398,15.03138393163681 65.98272323608398,15.03138393163681 65.95861315727234,15.47735333442688 65.95861315727234,15.47735333442688 65.89240431785583,15.977658331394196 65.89240431785583,15.977658331394196 65.77061414718628,16.515912115573883 65.77061414718628,16.515912115573883 65.58007597923279,17.075826227664948 65.58007597923279,17.075826227664948 65.31851291656494,17.63324737548828 65.31851291656494,17.63324737548828 65.00986218452454,18.165001273155212 65.00986218452454,18.165001273155212 64.67922925949097,18.656112253665924 64.67922925949097,18.656112253665924 64.35202360153198,19.091495871543884 64.35202360153198,19.091495871543884 64.05343413352966,19.45623755455017 64.05343413352966,19.45623755455017 63.80878686904907,19.735336303710938 63.80878686904907,19.735336303710938 63.64359259605408,19.913773238658905 63.64359259605408,19.913773238658905 63.58286142349243,19.97658908367157 63.58286142349243,19.97658908367157 62.751078605651855,20.673172175884247 62.751078605651855,20.673172175884247 61.49556636810303,21.31188213825226 61.49556636810303,21.31188213825226 59.981101751327515,21.881932020187378 59.981101751327515,21.881932020187378 58.37247371673584,22.37253040075302 58.37247371673584,22.37253040075302 56.83446526527405,22.772890329360962 56.83446526527405,22.772890329360962 55.53186535835266,23.072218894958496 55.53186535835266,23.072218894958496 54.62946891784668,23.259729146957397 54.62946891784668,23.259729146957397 54.29204702377319,23.32462966442108 54.29204702377319,23.32462966442108 54.798340797424316,23.20970445871353 54.798340797424316,23.20970445871353 56.160932779312134,22.891739010810852 56.160932779312134,22.891739010810852 58.145397901535034,22.410948574543 58.145397901535034,22.410948574543 60.517311096191406,21.80754989385605 60.517311096191406,21.80754989385605 63.042235374450684,21.121756732463837 63.042235374450684,21.121756732463837 65.48575162887573,20.39378732442856 65.48575162887573,20.39378732442856 67.61342287063599,19.66385543346405 67.61342287063599,19.66385543346405" stroke="white" stroke-width="0.1" /></svg>