<?xml version="1.0" encoding="utf-8" ?>
<svg baseProfile="full" height="41.51129126548767" version="1.1" width="100.0" xmlns="http://www.w3.org/2000/svg" xmlns:ev="http://www.w3.org/2001/xml-events" xmlns:xlink="http://www.w3.org/1999/xlink"><defs><clipPath /></defs><polygon points="99.85826015472412,16.4339616894722 99.85826015472412,16.4339616894722 100.0,26.563364267349243 100.0,26.563364267349243 99.90357756614685,26.593506336212158 99.90357756614685,26.593506336212158 99.64028000831604,26.67848765850067 99.64028000831604,26.67848765850067 99.24917221069336,26.809903979301453 99.24917221069336,26.809903979301453 98.76922369003296,26.97950303554535 98.76922369003296,26.97950303554535 98.23946356773376,27.17893421649933 98.23946356773376,27.17893421649933 97.69893884658813,27.400052547454834 97.69893884658813,27.400052547454834 97.18660712242126,27.634453773498535 97.18660712242126,27.634453773498535 96.7415452003479,27.873781323432922 96.7415452003479,27.873781323432922 96.14325165748596,28.061383962631226 96.14325165748596,28.061383962631226 95.22703886032104,28.159335255622864 95.22703886032104,28.159335255622864 94.11544799804688,28.187507390975952 94.11544799804688,28.187507390975952 92.93107390403748,28.165924549102783 92.93107390403748,28.165924549102783 91.79651141166687,28.114458918571472 91.79651141166687,28.114458918571472 90.83433151245117,28.053084015846252 90.83433151245117,28.053084015846252 90.16715288162231,28.001615405082703 90.16715288162231,28.001615405082703 89.91749882698059,27.980035543441772 89.91749882698059,27.980035543441772 89.20127749443054,27.178001403808594 89.20127749443054,27.178001403808594 88.40199708938599,26.458773016929626 88.40199708938599,26.458773016929626 87.52719759941101,25.829660892486572 87.52719759941101,25.829660892486572 86.5842342376709,25.298240780830383 86.5842342376709,25.298240780830383 85.58058738708496,24.871931970119476 85.58058738708496,24.871931970119476 84.5237135887146,24.558256566524506 84.5237135887146,24.558256566524506 83.42097997665405,24.36453253030777 83.42097997665405,24.36453253030777 82.2798490524292,24.298332631587982 82.2798490524292,24.298332631587982 81.13872408866882,24.36453253030777 81.13872408866882,24.36453253030777 80.0359845161438,24.558256566524506 80.0359845161438,24.558256566524506 78.97911071777344,24.871982634067535 78.97911071777344,24.871982634067535 77.97546982765198,25.298291444778442 77.97546982765198,25.298291444778442 77.03250050544739,25.82971155643463 77.03250050544739,25.82971155643463 76.1576771736145,26.458773016929626 76.1576771736145,26.458773016929626 75.35845041275024,27.178001403808594 75.35845041275024,27.178001403808594 74.64219927787781,27.980035543441772 74.64219927787781,27.980035543441772 73.507559299469,27.980035543441772 73.507559299469,27.980035543441772 70.10736465454102,32.58439302444458 70.10736465454102,32.58439302444458 63.30728530883789,32.58439302444458 63.30728530883789,32.58439302444458 63.37805390357971,34.35520529747009 63.37805390357971,34.35520529747009 35.114797949790955,34.35520529747009 35.114797949790955,34.35520529747009 34.47728157043457,33.78855586051941 34.47728157043457,33.78855586051941 27.322956919670105,33.78855586051941 27.322956919670105,33.78855586051941 26.673921942710876,34.03862416744232 26.673921942710876,34.03862416744232 26.469042897224426,32.07714855670929 26.469042897224426,32.07714855670929 25.894924998283386,30.24958074092865 25.894924998283386,30.24958074092865 24.99086856842041,28.595086932182312 24.99086856842041,28.595086932182312 23.79627674818039,27.15325355529785 23.79627674818039,27.15325355529785 22.350449860095978,25.963202118873596 22.350449860095978,25.963202118873596 20.69271355867386,25.064462423324585 20.69271355867386,25.064462423324585 18.862445652484894,24.49641525745392 18.862445652484894,24.49641525745392 16.898973286151886,24.298332631587982 16.898973286151886,24.298332631587982 15.579217672348022,24.387100338935852 15.579217672348022,24.387100338935852 14.312641322612762,24.645625054836273 14.312641322612762,24.645625054836273 13.11083734035492,25.062334537506104 13.11083734035492,25.062334537506104 11.985480785369873,25.6256103515625 11.985480785369873,25.6256103515625 10.948088765144348,26.323723793029785 10.948088765144348,26.323723793029785 10.010282695293427,27.14526355266571 10.010282695293427,27.14526355266571 9.183632582426071,28.07845175266266 9.183632582426071,28.07845175266266 8.479785919189453,29.111772775650024 8.479785919189453,29.111772775650024 4.693905636668205,25.660422444343567 4.693905636668205,25.660422444343567 4.693905636668205,25.660371780395508 4.693905636668205,25.660371780395508 4.425939172506332,25.706753134727478 4.425939172506332,25.706753134727478 4.035843908786774,25.773626565933228 4.035843908786774,25.773626565933228 3.568834438920021,25.852641463279724 3.568834438920021,25.852641463279724 3.07017769664526,25.935444235801697 3.07017769664526,25.935444235801697 2.58498415350914,26.01352632045746 2.58498415350914,26.01352632045746 2.1585719659924507,26.078689098358154 2.1585719659924507,26.078689098358154 1.8361039459705353,26.122424006462097 1.8361039459705353,26.122424006462097 1.6627946868538857,26.136484742164612 1.6627946868538857,26.136484742164612 1.5454132109880447,26.118016242980957 1.5454132109880447,26.118016242980957 1.3891727663576603,26.0740727186203 1.3891727663576603,26.0740727186203 1.205331552773714,26.00979208946228 1.205331552773714,26.00979208946228 1.0051995515823364,25.930309295654297 1.0051995515823364,25.930309295654297 0.8000350557267666,25.84076225757599 0.8000350557267666,25.84076225757599 0.6011222954839468,25.746235251426697 0.6011222954839468,25.746235251426697 0.4197194706648588,25.651967525482178 0.4197194706648588,25.651967525482178 0.26708475779742,25.562885403633118 0.26708475779742,25.562885403633118 0.15328320441767573,25.481483340263367 0.15328320441767573,25.481483340263367 0.07636922528035939,25.407448410987854 0.07636922528035939,25.407448410987854 0.029650144279003143,25.34182071685791 0.029650144279003143,25.34182071685791 0.006433277303585783,25.28563141822815 0.006433277303585783,25.28563141822815 2.5940633463505947e-05,25.240081548690796 2.5940633463505947e-05,25.240081548690796 0.003735451173270121,25.206151604652405 0.003735451173270121,25.206151604652405 0.010869125253520906,25.184983015060425 0.010869125253520906,25.184983015060425 0.014734279830008745,25.177720189094543 0.014734279830008745,25.177720189094543 0.06625237874686718,24.86373335123062 0.06625237874686718,24.86373335123062 0.2027519978582859,24.033011496067047 0.2027519978582859,24.033011496067047 0.3971511032432318,22.852453589439392 0.3971511032432318,22.852453589439392 0.6223676726222038,21.488754451274872 0.6223676726222038,21.488754451274872 0.8513197302818298,20.108920335769653 0.8513197302818298,20.108920335769653 1.05692520737648,18.87974888086319 1.05692520737648,18.87974888086319 1.2121020816266537,17.968039214611053 1.2121020816266537,17.968039214611053 1.2897683307528496,17.54079759120941 1.2897683307528496,17.54079759120941 1.3263446278870106,17.425672709941864 1.3263446278870106,17.425672709941864 1.3731934130191803,17.33700782060623 1.3731934130191803,17.33700782060623 1.4256453141570091,17.27137714624405 1.4256453141570091,17.27137714624405 1.4790311455726624,17.22535938024521 1.4790311455726624,17.22535938024521 1.5286815352737904,17.195527255535126 1.5286815352737904,17.195527255535126 1.5699271112680435,17.178457975387573 1.5699271112680435,17.178457975387573 1.5980986878275871,17.170727252960205 1.5980986878275871,17.170727252960205 1.6085267066955566,17.168912291526794 1.6085267066955566,17.168912291526794 5.639493837952614,17.16107726097107 5.639493837952614,17.16107726097107 6.029173731803894,17.083774507045746 6.029173731803894,17.083774507045746 7.081844657659531,16.878117620944977 7.081844657659531,16.878117620944977 8.622977882623672,16.58363938331604 8.622977882623672,16.58363938331604 10.478096455335617,16.239719092845917 10.478096455335617,16.239719092845917 12.472671270370483,15.885835886001587 12.472671270370483,15.885835886001587 14.43214863538742,15.561370551586151 14.43214863538742,15.561370551586151 16.182078421115875,15.306010842323303 16.182078421115875,15.306010842323303 17.547903954982758,15.15892744064331 17.547903954982758,15.15892744064331 18.752120435237885,15.079653263092041 18.752120435237885,15.079653263092041 20.07581889629364,15.002816915512085 20.07581889629364,15.002816915512085 21.432800590991974,14.93106484413147 21.432800590991974,14.93106484413147 22.736601531505585,14.866732060909271 22.736601531505585,14.866732060909271 23.900973796844482,14.81236070394516 23.900973796844482,14.81236070394516 24.839530885219574,14.77038860321045 24.839530885219574,14.77038860321045 25.46597123146057,14.743462204933167 25.46597123146057,14.743462204933167 25.693988800048828,14.733916521072388 25.693988800048828,14.733916521072388 26.55138075351715,15.243078768253326 26.55138075351715,15.243078768253326 26.888632774353027,15.002298355102539 26.888632774353027,15.002298355102539 27.80125141143799,14.353471994400024 27.80125141143799,14.353471994400024 29.14040982723236,13.407053053379059 29.14040982723236,13.407053053379059 30.757340788841248,12.273499369621277 30.757340788841248,12.273499369621277 32.50332772731781,11.063161492347717 32.50332772731781,11.063161492347717 34.229522943496704,9.886390715837479 34.229522943496704,9.886390715837479 35.787203907966614,8.853589743375778 35.787203907966614,8.853589743375778 37.02755570411682,8.075371384620667 37.02755570411682,8.075371384620667 37.4376505613327,7.831995934247971 37.4376505613327,7.831995934247971 37.83316910266876,7.599567621946335 37.83316910266876,7.599567621946335 38.21711540222168,7.37730860710144 38.21711540222168,7.37730860710144 38.59219253063202,7.1647509932518005 38.59219253063202,7.1647509932518005 38.96145522594452,6.9613248109817505 38.96145522594452,6.9613248109817505 39.32773768901825,6.7663028836250305 39.32773768901825,6.7663028836250305 39.693889021873474,6.579270958900452 39.693889021873474,6.579270958900452 40.06281793117523,6.399502605199814 40.06281793117523,6.399502605199814 39.34747874736786,5.684163421392441 39.34747874736786,5.684163421392441 39.319437742233276,5.653034895658493 39.319437742233276,5.653034895658493 39.294689893722534,5.619467422366142 39.294689893722534,5.619467422366142 39.27336633205414,5.583669617772102 39.27336633205414,5.583669617772102 39.255598187446594,5.546107515692711 39.255598187446594,5.546107515692711 39.24158811569214,5.506988987326622 39.24158811569214,5.506988987326622 39.23141956329346,5.466677248477936 39.23141956329346,5.466677248477936 39.22514319419861,5.425483360886574 39.22514319419861,5.425483360886574 39.223068952560425,5.383667349815369 39.223068952560425,5.383667349815369 39.223068952560425,0.42501133866608143 39.223068952560425,0.42501133866608143 39.23170566558838,0.3393553663045168 39.23170566558838,0.3393553663045168 39.25648033618927,0.2596138510853052 39.25648033618927,0.2596138510853052 39.29567635059357,0.1873951405286789 39.29567635059357,0.1873951405286789 39.34755623340607,0.12451504589989781 39.34755623340607,0.12451504589989781 39.410436153411865,0.07258189143612981 39.410436153411865,0.07258189143612981 39.482682943344116,0.03346341836731881 39.482682943344116,0.03346341836731881 39.56244885921478,0.008612290548626333 39.56244885921478,0.008612290548626333 39.64807987213135,0.0 39.64807987213135,0.0 39.72699046134949,0.007367139915004373 39.72699046134949,0.007367139915004373 39.80094790458679,0.02853469632100314 39.80094790458679,0.02853469632100314 39.86859917640686,0.06215375615283847 39.86859917640686,0.06215375615283847 39.92873132228851,0.1069272868335247 39.92873132228851,0.1069272868335247 39.97998833656311,0.16145450063049793 39.97998833656311,0.16145450063049793 40.021130442619324,0.22438648156821728 40.021130442619324,0.22438648156821728 40.05080759525299,0.2944780746474862 40.05080759525299,0.2944780746474862 40.067797899246216,0.370172830298543 40.067797899246216,0.370172830298543 40.22831916809082,0.4613282158970833 40.22831916809082,0.4613282158970833 40.37672579288483,0.6274520419538021 40.37672579288483,0.6274520419538021 40.51016569137573,0.8607621304690838 40.51016569137573,0.8607621304690838 40.62578082084656,1.1534761637449265 40.62578082084656,1.1534761637449265 40.72067141532898,1.497812196612358 40.72067141532898,1.497812196612358 40.792036056518555,1.8859358504414558 40.792036056518555,1.8859358504414558 40.836963057518005,2.3102208971977234 40.836963057518005,2.3102208971977234 40.85255563259125,2.7626775205135345 40.85255563259125,2.7626775205135345 40.83706736564636,3.2133180648088455 40.83706736564636,3.2133180648088455 40.79252779483795,3.6359429359436035 40.79252779483795,3.6359429359436035 40.72176218032837,4.0229253470897675 40.72176218032837,4.0229253470897675 40.62757194042206,4.366534948348999 40.62757194042206,4.366534948348999 40.51283597946167,4.658937826752663 40.51283597946167,4.658937826752663 40.38030505180359,4.89276647567749 40.38030505180359,4.89276647567749 40.232911705970764,5.060083791613579 40.232911705970764,5.060083791613579 40.0734007358551,5.153262615203857 40.0734007358551,5.153262615203857 40.0734007358551,5.207478255033493 40.0734007358551,5.207478255033493 40.899765491485596,6.033843383193016 40.899765491485596,6.033843383193016 41.63731038570404,5.764786899089813 41.63731038570404,5.764786899089813 42.43980944156647,5.525251105427742 42.43980944156647,5.525251105427742 43.32677125930786,5.315962061285973 43.32677125930786,5.315962061285973 44.31754946708679,5.137490481138229 44.31754946708679,5.137490481138229 45.43159604072571,4.990614578127861 45.43159604072571,4.990614578127861 46.68823778629303,4.876009002327919 46.68823778629303,4.876009002327919 48.106956481933594,4.7942958772182465 48.106956481933594,4.7942958772182465 49.70712959766388,4.746150225400925 49.70712959766388,4.746150225400925 50.10114312171936,4.740339517593384 50.10114312171936,4.740339517593384 51.15923285484314,4.726175963878632 51.15923285484314,4.726175963878632 52.695465087890625,4.708743840456009 52.695465087890625,4.708743840456009 54.52383756637573,4.692971706390381 54.52383756637573,4.692971706390381 56.45851492881775,4.683892801403999 56.45851492881775,4.683892801403999 58.313530683517456,4.686331003904343 58.313530683517456,4.686331003904343 59.90286469459534,4.70542348921299 59.90286469459534,4.70542348921299 61.04069948196411,4.746150225400925 61.04069948196411,4.746150225400925 61.468613147735596,4.775463044643402 61.468613147735596,4.775463044643402 61.90893054008484,4.81022372841835 61.90893054008484,4.81022372841835 62.3562216758728,4.849549382925034 62.3562216758728,4.849549382925034 62.80512809753418,4.892247915267944 62.80512809753418,4.892247915267944 63.25026750564575,4.937539994716644 63.25026750564575,4.937539994716644 63.686197996139526,4.984181374311447 63.686197996139526,4.984181374311447 64.10757899284363,5.031393468379974 64.10757899284363,5.031393468379974 64.50896263122559,5.078034475445747 64.50896263122559,5.078034475445747 64.56592679023743,5.03118596971035 64.56592679023743,5.03118596971035 64.63119387626648,4.979252815246582 64.63119387626648,4.979252815246582 64.70452547073364,4.923013597726822 64.70452547073364,4.923013597726822 64.78574872016907,4.8629868775606155 64.78574872016907,4.8629868775606155 64.87461924552917,4.799950867891312 64.87461924552917,4.799950867891312 64.97088670730591,4.7345805913209915 64.97088670730591,4.7345805913209915 65.07439017295837,4.667602106928825 65.07439017295837,4.667602106928825 65.18486738204956,4.599637538194656 65.18486738204956,4.599637538194656 65.38248658180237,4.487677663564682 65.38248658180237,4.487677663564682 65.59807658195496,4.378000646829605 65.59807658195496,4.378000646829605 65.83079099655151,4.274497553706169 65.83079099655151,4.274497553706169 66.07964038848877,4.180903732776642 66.07964038848877,4.180903732776642 66.34374260902405,4.101265966892242 66.34374260902405,4.101265966892242 66.62216186523438,4.0393199771642685 66.62216186523438,4.0393199771642685 66.91402196884155,3.998904302716255 66.91402196884155,3.998904302716255 67.21830368041992,3.9839107543230057 67.21830368041992,3.9839107543230057 67.39277839660645,3.9887353777885437 67.39277839660645,3.9887353777885437 67.57010817527771,4.004092514514923 67.57010817527771,4.004092514514923 67.74961948394775,4.030551761388779 67.74961948394775,4.030551761388779 67.93078780174255,4.068632796406746 67.93078780174255,4.068632796406746 68.11289191246033,4.118957370519638 68.11289191246033,4.118957370519638 68.29546093940735,4.182149097323418 68.29546093940735,4.182149097323418 68.47782731056213,4.2587775737047195 68.47782731056213,4.2587775737047195 68.65935921669006,4.349258542060852 68.65935921669006,4.349258542060852 68.89240741729736,4.477560892701149 68.89240741729736,4.477560892701149 69.22730207443237,4.666097462177277 69.22730207443237,4.666097462177277 69.65724229812622,4.91066575050354 69.65724229812622,4.91066575050354 70.17532587051392,5.207374691963196 70.17532587051392,5.207374691963196 70.77476382255554,5.552125722169876 70.77476382255554,5.552125722169876 71.44867777824402,5.94092383980751 71.44867777824402,5.94092383980751 72.19026684761047,6.369619071483612 72.19026684761047,6.369619071483612 72.99268841743469,6.834371387958527 72.99268841743469,6.834371387958527 73.84738326072693,7.330096513032913 73.84738326072693,7.330096513032913 74.74769949913025,7.852904498577118 74.74769949913025,7.852904498577118 75.68633556365967,8.39843600988388 75.68633556365967,8.39843600988388 76.65602564811707,8.962436765432358 76.65602564811707,8.962436765432358 77.64942049980164,9.540601819753647 77.64942049980164,9.540601819753647 78.65931391716003,10.128727555274963 78.65931391716003,10.128727555274963 79.67839241027832,10.722456872463226 79.67839241027832,10.722456872463226 80.69933652877808,11.317535489797592 80.69933652877808,11.317535489797592 81.95050954818726,12.047245353460312 81.95050954818726,12.047245353460312 83.17973017692566,12.764452397823334 83.17973017692566,12.764452397823334 84.37333703041077,13.461165130138397 84.37333703041077,13.461165130138397 85.51768064498901,14.129292964935303 85.51768064498901,14.129292964935303 86.5990936756134,14.76084291934967 86.5990936756134,14.76084291934967 87.60385513305664,15.347827970981598 87.60385513305664,15.347827970981598 88.51833939552307,15.882256627082825 88.51833939552307,15.882256627082825 89.32885527610779,16.355933248996735 89.32885527610779,16.355933248996735" stroke="white" stroke-width="0.1" /><polygon points="16.898973286151886,26.635894179344177 16.898973286151886,26.635894179344177 18.397927284240723,26.78697109222412 18.397927284240723,26.78697109222412 19.794078171253204,27.220389246940613 19.794078171253204,27.220389246940613 21.05746418237686,27.906155586242676 21.05746418237686,27.906155586242676 22.1582293510437,28.81433665752411 22.1582293510437,28.81433665752411 23.066437244415283,29.91510033607483 23.066437244415283,29.91510033607483 23.752178251743317,31.178513169288635 23.752178251743317,31.178513169288635 24.18556809425354,32.57458806037903 24.18556809425354,32.57458806037903 24.336671829223633,34.07359421253204 24.336671829223633,34.07359421253204 24.18556809425354,35.57254672050476 24.18556809425354,35.57254672050476 23.752178251743317,36.96867227554321 23.752178251743317,36.96867227554321 23.066411912441254,38.23208510875702 23.066411912441254,38.23208510875702 22.1582293510437,39.33284878730774 22.1582293510437,39.33284878730774 21.05749100446701,40.24102985858917 21.05749100446701,40.24102985858917 19.794078171253204,40.926796197891235 19.794078171253204,40.926796197891235 18.397927284240723,41.36016070842743 18.397927284240723,41.36016070842743 16.898973286151886,41.51129126548767 16.898973286151886,41.51129126548767 15.400020778179169,41.36016070842743 15.400020778179169,41.36016070842743 14.003869891166687,40.926796197891235 14.003869891166687,40.926796197891235 12.74045705795288,40.24108350276947 12.74045705795288,40.24108350276947 11.63971796631813,39.33284878730774 11.63971796631813,39.33284878730774 10.731510072946548,38.23208510875702 10.731510072946548,38.23208510875702 10.045769810676575,36.96867227554321 10.045769810676575,36.96867227554321 9.612379223108292,35.57254672050476 9.612379223108292,35.57254672050476 9.461275488138199,34.07359421253204 9.461275488138199,34.07359421253204 9.612379223108292,32.57458806037903 9.612379223108292,32.57458806037903 10.045769810676575,31.178513169288635 10.045769810676575,31.178513169288635 10.731510072946548,29.91510033607483 10.731510072946548,29.91510033607483 11.63971796631813,28.81433665752411 11.63971796631813,28.81433665752411 12.74048238992691,27.906101942062378 12.74048238992691,27.906101942062378 14.003869891166687,27.220389246940613 14.003869891166687,27.220389246940613 15.39999395608902,26.78697109222412 15.39999395608902,26.78697109222412" stroke="white" stroke-width="0.1" /><polygon points="82.2798490524292,26.635894179344177 82.2798490524292,26.635894179344177 83.77880454063416,26.78697109222412 83.77880454063416,26.78697109222412 85.17493009567261,27.220389246940613 85.17493009567261,27.220389246940613 86.43836975097656,27.906155586242676 86.43836975097656,27.906155586242676 87.53910660743713,28.81433665752411 87.53910660743713,28.81433665752411 88.44731450080872,29.91510033607483 88.44731450080872,29.91510033607483 89.13305401802063,31.178513169288635 89.13305401802063,31.178513169288635 89.56644535064697,32.57458806037903 89.56644535064697,32.57458806037903 89.71754908561707,34.07359421253204 89.71754908561707,34.07359421253204 89.56644535064697,35.57254672050476 89.56644535064697,35.57254672050476 89.13305401802063,36.96867227554321 89.13305401802063,36.96867227554321 88.44731450080872,38.23208510875702 88.44731450080872,38.23208510875702 87.53910660743713,39.33284878730774 87.53910660743713,39.33284878730774 86.43833994865417,40.24102985858917 86.43833994865417,40.24102985858917 85.17493009567261,40.926796197891235 85.17493009567261,40.926796197891235 83.77880454063416,41.36016070842743 83.77880454063416,41.36016070842743 82.2798490524292,41.51129126548767 82.2798490524292,41.51129126548767 80.78089952468872,41.36016070842743 80.78089952468872,41.36016070842743 79.38474416732788,40.926796197891235 79.38474416732788,40.926796197891235 78.12135815620422,40.24108350276947 78.12135815620422,40.24108350276947 77.02059149742126,39.33284878730774 77.02059149742126,39.33284878730774 76.11238956451416,38.23208510875702 76.11238956451416,38.23208510875702 75.42662024497986,36.96867227554321 75.42662024497986,36.96867227554321 74.9932587146759,35.57254672050476 74.9932587146759,35.57254672050476 74.84214901924133,34.07359421253204 74.84214901924133,34.07359421253204 74.9932587146759,32.57458806037903 74.9932587146759,32.57458806037903 75.42664408683777,31.178513169288635 75.42664408683777,31.178513169288635 76.11238956451416,29.91510033607483 76.11238956451416,29.91510033607483 77.02059149742126,28.81433665752411 77.02059149742126,28.81433665752411 78.12135815620422,27.906101942062378 78.12135815620422,27.906101942062378 79.38474416732788,27.220389246940613 79.38474416732788,27.220389246940613 80.78089952468872,26.78697109222412 80.78089952468872,26.78697109222412" stroke="white" stroke-width="0.1" /><polygon points="1.3650479726493359,25.217562913894653 1.3650479726493359,25.217562913894653 2.7817178517580032,18.027806282043457 2.7817178517580032,18.027806282043457 2.0733829587697983,17.992371320724487 2.0733829587697983,17.992371320724487 0.833783857524395,24.987366795539856 0.833783857524395,24.987366795539856" stroke="white" stroke-width="0.1" /><polygon points="2.2327622398734093,25.18218159675598 2.2327622398734093,25.18218159675598 3.9151161909103394,24.96967613697052 3.9151161909103394,24.96967613697052 3.737993538379669,24.774861335754395 3.737993538379669,24.774861335754395 2.409832924604416,24.38528537750244 2.409832924604416,24.38528537750244" stroke="white" stroke-width="0.1" /><polygon points="3.5963576287031174,22.64980524778366 3.5963576287031174,22.64980524778366 3.717474266886711,22.347959876060486 3.717474266886711,22.347959876060486 3.904584050178528,21.77264839410782 3.904584050178528,21.77264839410782 4.13239486515522,21.020525693893433 4.13239486515522,21.020525693893433 4.3755363672971725,20.1882466673851 4.3755363672971725,20.1882466673851 4.608716815710068,19.372621178627014 4.608716815710068,19.372621178627014 4.806617647409439,18.670251965522766 4.806617647409439,18.670251965522766 4.943947494029999,18.177950382232666 4.943947494029999,18.177950382232666 4.995336011052132,17.992371320724487 4.995336011052132,17.992371320724487 3.737993538379669,18.01011562347412 3.737993538379669,18.01011562347412 2.462959475815296,23.977965116500854 2.462959475815296,23.977965116500854 2.502959780395031,23.93542230129242 2.502959780395031,23.93542230129242 2.6101725175976753,23.820246756076813 2.6101725175976753,23.820246756076813 2.7655309066176414,23.651112616062164 2.7655309066176414,23.651112616062164 2.9499689117074013,23.4467014670372 2.9499689117074013,23.4467014670372 3.1443677842617035,23.225687444210052 3.1443677842617035,23.225687444210052 3.3296100795269012,23.006747663021088 3.3296100795269012,23.006747663021088 3.486628830432892,22.808560729026794 3.486628830432892,22.808560729026794" stroke="white" stroke-width="0.1" /><polygon points="39.68387842178345,15.619322657585144 39.68387842178345,15.619322657585144 39.68387842178345,8.3232082426548 39.68387842178345,8.3232082426548 39.47484791278839,8.45581665635109 39.47484791278839,8.45581665635109 38.91465961933136,8.81296694278717 38.91465961933136,8.81296694278717 38.10378015041351,9.333699196577072 38.10378015041351,9.333699196577072 37.14268207550049,9.956897050142288 37.14268207550049,9.956897050142288 36.13177537918091,10.62154769897461 36.13177537918091,10.62154769897461 35.17147898674011,11.266795545816422 35.17147898674011,11.266795545816422 34.36228632926941,11.83147132396698 34.36228632926941,11.83147132396698 33.80458950996399,12.254562973976135 33.80458950996399,12.254562973976135 33.45532417297363,12.589456140995026 33.45532417297363,12.589456140995026 33.19529592990875,12.928032875061035 33.19529592990875,12.928032875061035 33.010804653167725,13.267543911933899 33.010804653167725,13.267543911933899 32.88813233375549,13.604876399040222 32.88813233375549,13.604876399040222 32.81365633010864,13.93727958202362 32.81365633010864,13.93727958202362 32.77357816696167,14.261849224567413 32.77357816696167,14.261849224567413 32.7542781829834,14.575575292110443 32.7542781829834,14.575575292110443 32.74205923080444,14.87555205821991 32.74205923080444,14.87555205821991 32.75928497314453,15.131223201751709 32.75928497314453,15.131223201751709 32.826730608940125,15.320537984371185 32.826730608940125,15.320537984371185 32.928237318992615,15.453353524208069 32.928237318992615,15.453353524208069 33.04756283760071,15.539684891700745 33.04756283760071,15.539684891700745 33.168524503707886,15.589490532875061 33.168524503707886,15.589490532875061 33.27498435974121,15.612681210041046 33.27498435974121,15.612681210041046 33.35072994232178,15.619374811649323 33.35072994232178,15.619374811649323 33.37957561016083,15.619322657585144 33.37957561016083,15.619322657585144" stroke="white" stroke-width="0.1" /><polygon points="50.09665489196777,13.954608142375946 50.09665489196777,13.954608142375946 50.13976693153381,13.267700374126434 50.13976693153381,13.267700374126434 50.20900368690491,12.356976419687271 50.20900368690491,12.356976419687271 50.29403567314148,11.314370483160019 50.29403567314148,11.314370483160019 50.384438037872314,10.23145243525505 50.384438037872314,10.23145243525505 50.469887256622314,9.199949353933334 50.469887256622314,9.199949353933334 50.539952516555786,8.311741799116135 50.539952516555786,8.311741799116135 50.58428645133972,7.658349722623825 50.58428645133972,7.658349722623825 50.592535734176636,7.331601530313492 50.592535734176636,7.331601530313492 50.57551860809326,7.19945952296257 50.57551860809326,7.19945952296257 50.54273009300232,7.071468234062195 50.54273009300232,7.071468234062195 50.48174262046814,6.9518305361270905 50.48174262046814,6.9518305361270905 50.38005709648132,6.844592094421387 50.38005709648132,6.844592094421387 50.22521615028381,6.75390362739563 50.22521615028381,6.75390362739563 50.00482797622681,6.6840194165706635 50.00482797622681,6.6840194165706635 49.70640540122986,6.639142334461212 49.70640540122986,6.639142334461212 49.31750297546387,6.62316232919693 49.31750297546387,6.62316232919693 48.811349272727966,6.622228771448135 48.811349272727966,6.622228771448135 48.19022715091705,6.62207305431366 48.19022715091705,6.62207305431366 47.48526215553284,6.626950204372406 47.48526215553284,6.626950204372406 46.72756493091583,6.640905886888504 46.72756493091583,6.640905886888504 45.94833254814148,6.668195128440857 45.94833254814148,6.668195128440857 45.178595185279846,6.712917238473892 45.178595185279846,6.712917238473892 44.44956183433533,6.779221445322037 44.44956183433533,6.779221445322037 43.79235506057739,6.871207058429718 43.79235506057739,6.871207058429718 43.67987513542175,6.892114877700806 43.67987513542175,6.892114877700806 43.37730407714844,6.951986253261566 43.37730407714844,6.951986253261566 42.936962842941284,7.046773284673691 42.936962842941284,7.046773284673691 42.41109490394592,7.172221690416336 42.41109490394592,7.172221690416336 41.85202121734619,7.3242343962192535 41.85202121734619,7.3242343962192535 41.312041878700256,7.498659193515778 41.312041878700256,7.498659193515778 40.84342420101166,7.69139751791954 40.84342420101166,7.69139751791954 40.49851596355438,7.898196578025818 40.49851596355438,7.898196578025818 40.53390026092529,15.513069927692413 40.53390026092529,15.513069927692413 40.88282883167267,15.511460602283478 40.88282883167267,15.511460602283478 41.80452525615692,15.506947040557861 41.80452525615692,15.506947040557861 43.11138689517975,15.499943494796753 43.11138689517975,15.499943494796753 44.615814089775085,15.49091637134552 44.615814089775085,15.49091637134552 46.13022804260254,15.480124950408936 46.13022804260254,15.480124950408936 47.4669486284256,15.468139946460724 47.4669486284256,15.468139946460724 48.43845069408417,15.455377101898193 48.43845069408417,15.455377101898193 48.857107758522034,15.442147850990295 48.857107758522034,15.442147850990295 48.968470096588135,15.427672863006592 48.968470096588135,15.427672863006592 49.13046956062317,15.399034321308136 49.13046956062317,15.399034321308136 49.32401478290558,15.338903665542603 49.32401478290558,15.338903665542603 49.53000843524933,15.229745209217072 49.53000843524933,15.229745209217072 49.72933530807495,15.054075419902802 49.72933530807495,15.054075419902802 49.9029815196991,14.794722199440002 49.9029815196991,14.794722199440002 50.03175139427185,14.434042572975159 50.03175139427185,14.434042572975159" stroke="white" stroke-width="0.1" /><polygon points="72.12129235267639,8.837195485830307 72.12129235267639,8.837195485830307 71.8928575515747,8.860231190919876 71.8928575515747,8.860231190919876 71.68009281158447,8.926275372505188 71.68009281158447,8.926275372505188 71.487557888031,9.030764549970627 71.487557888031,9.030764549970627 71.31983041763306,9.169183671474457 71.31983041763306,9.169183671474457 71.18143439292908,9.336915612220764 71.18143439292908,9.336915612220764 71.07694745063782,9.529447555541992 71.07694745063782,9.529447555541992 71.0108995437622,9.742160886526108 71.0108995437622,9.742160886526108 70.9878921508789,9.970593452453613 70.9878921508789,9.970593452453613 71.0109293460846,10.199026763439178 71.0109293460846,10.199026763439178 71.07694745063782,10.411792248487473 71.07694745063782,10.411792248487473 71.18143439292908,10.60432344675064 71.18143439292908,10.60432344675064 71.31983041763306,10.772055387496948 71.31983041763306,10.772055387496948 71.487557888031,10.910474509000778 71.487557888031,10.910474509000778 71.68011665344238,11.014963686466217 71.68011665344238,11.014963686466217 71.8928575515747,11.08095645904541 71.8928575515747,11.08095645904541 72.12129235267639,11.10399216413498 72.12129235267639,11.10399216413498 72.3497211933136,11.08095645904541 72.3497211933136,11.08095645904541 72.56248593330383,11.014911532402039 72.56248593330383,11.014911532402039 72.75499701499939,10.91042309999466 72.75499701499939,10.91042309999466 72.92275428771973,10.772055387496948 72.92275428771973,10.772055387496948 73.06112051010132,10.60432344675064 73.06112051010132,10.60432344675064 73.16560745239258,10.411792248487473 73.16560745239258,10.411792248487473 73.23165535926819,10.199026763439178 73.23165535926819,10.199026763439178 73.2546865940094,9.970593452453613 73.2546865940094,9.970593452453613 73.23165535926819,9.742212295532227 73.23165535926819,9.742212295532227 73.16563725471497,9.529447555541992 73.16563725471497,9.529447555541992 73.06114435195923,9.336915612220764 73.06114435195923,9.336915612220764 72.92275428771973,9.169183671474457 72.92275428771973,9.169183671474457 72.7550208568573,9.030816704034805 72.7550208568573,9.030816704034805 72.56246209144592,8.926275372505188 72.56246209144592,8.926275372505188 72.3497211933136,8.860231190919876 72.3497211933136,8.860231190919876" stroke="white" stroke-width="0.1" /><polygon points="67.48673915863037,16.221456229686737 67.48673915863037,16.221456229686737 68.85048747062683,16.229860484600067 68.85048747062683,16.229860484600067 67.61695742607117,5.0876326858997345 67.61695742607117,5.0876326858997345 67.5667405128479,5.07793091237545 67.5667405128479,5.07793091237545 67.51667261123657,5.06952628493309 67.51667261123657,5.06952628493309 67.46671199798584,5.062521994113922 67.46671199798584,5.062521994113922 67.41685271263123,5.056815221905708 67.41685271263123,5.056815221905708 67.36707091331482,5.0523534417152405 67.36707091331482,5.0523534417152405 67.31742024421692,5.049136653542519 67.31742024421692,5.049136653542519 67.26782321929932,5.047165229916573 67.26782321929932,5.047165229916573 67.21830368041992,5.0464387983083725 67.21830368041992,5.0464387983083725 67.08141565322876,5.050693079829216 67.08141565322876,5.050693079829216 66.94514751434326,5.063819140195847 66.94514751434326,5.063819140195847 66.80992245674133,5.085090547800064 66.80992245674133,5.085090547800064 66.67622327804565,5.1137808710336685 66.67622327804565,5.1137808710336685 66.54454469680786,5.149111896753311 66.54454469680786,5.149111896753311 66.41536355018616,5.190305784344673 66.41536355018616,5.190305784344673 66.28913283348083,5.236583948135376 66.28913283348083,5.236583948135376 66.16635918617249,5.287271738052368 66.16635918617249,5.287271738052368 66.20872020721436,5.29303066432476 66.20872020721436,5.29303066432476 66.24599695205688,5.298114940524101 66.24599695205688,5.298114940524101 66.27805829048157,5.302473157644272 66.27805829048157,5.302473157644272 66.30467176437378,5.3061045706272125 66.30467176437378,5.3061045706272125 66.32571220397949,5.309009924530983 66.32571220397949,5.309009924530983 66.3409411907196,5.311085283756256 66.3409411907196,5.311085283756256 66.35022759437561,5.3123824298381805 66.35022759437561,5.3123824298381805 66.35333895683289,5.312797427177429 66.35333895683289,5.312797427177429" stroke="white" stroke-width="0.1" /><polygon points="68.74392628669739,5.613293498754501 68.74392628669739,5.613293498754501 69.45293545722961,12.016479671001434 69.45293545722961,12.016479671001434 70.37279009819031,6.546741724014282 70.37279009819031,6.546741724014282 70.12588381767273,6.404534727334976 70.12588381767273,6.404534727334976 69.89047527313232,6.269072741270065 69.89047527313232,6.269072741270065 69.66699361801147,6.14071860909462 69.66699361801147,6.14071860909462 69.45586204528809,6.019575893878937 69.45586204528809,6.019575893878937 69.2575454711914,5.906007811427116 69.2575454711914,5.906007811427116 69.07248497009277,5.80032579600811 69.07248497009277,5.80032579600811 68.90112161636353,5.702633038163185 68.90112161636353,5.702633038163185" stroke="white" stroke-width="0.1" /><polygon points="69.92027759552002,16.236397624015808 69.92027759552002,16.236397624015808 81.84280395507812,16.309809684753418 81.84280395507812,16.309809684753418 79.61149215698242,11.913339793682098 79.61149215698242,11.913339793682098 76.24107599258423,9.950048476457596 76.24107599258423,9.950048476457596 69.63908076286316,13.697431981563568 69.63908076286316,13.697431981563568" stroke="white" stroke-width="0.1" /><polygon points="83.03793668746948,16.317228972911835 83.03793668746948,16.317228972911835 87.20068335533142,16.342858970165253 87.20068335533142,16.342858970165253 84.12049412727356,14.543823897838593 84.12049412727356,14.543823897838593 83.7804913520813,14.345377683639526 83.7804913520813,14.345377683639526 83.4363341331482,14.144493639469147 83.4363341331482,14.144493639469147 83.08836817741394,13.941378891468048 83.08836817741394,13.941378891468048 82.7369749546051,13.736291229724884 82.7369749546051,13.736291229724884 82.38247036933899,13.529440760612488 82.38247036933899,13.529440760612488 82.02521800994873,13.320982456207275 82.02521800994873,13.320982456207275 81.66552186012268,13.1111741065979 81.66552186012268,13.1111741065979 81.30375742912292,12.900121510028839 81.30375742912292,12.900121510028839" stroke="white" stroke-width="0.1" /><polygon points="99.43345785140991,24.43830817937851 99.43345785140991,24.43830817937851 99.43345785140991,17.319367825984955 99.43345785140991,17.319367825984955 98.12293648719788,18.02775412797928 98.12293648719788,18.02775412797928 98.12293648719788,22.66739308834076 98.12293648719788,22.66739308834076" stroke="white" stroke-width="0.1" /><polygon points="5.114870518445969,22.454990446567535 5.114870518445969,22.454990446567535 5.272329971194267,22.344328463077545 5.272329971194267,22.344328463077545 5.689714848995209,22.045336663722992 5.689714848995209,22.045336663722992 6.284533441066742,21.60751074552536 6.284533441066742,21.60751074552536 6.9742947816848755,21.080344915390015 6.9742947816848755,21.080344915390015 7.676507532596588,20.5133855342865 7.676507532596588,20.5133855342865 8.308681100606918,19.95597332715988 8.308681100606918,19.95597332715988 8.788323402404785,19.457757472991943 8.788323402404785,19.457757472991943 9.032943844795227,19.06818151473999 9.032943844795227,19.06818151473999 9.045343101024628,18.88197958469391 9.045343101024628,18.88197958469391 8.971308916807175,18.715129792690277 8.971308916807175,18.715129792690277 8.827130496501923,18.568824231624603 8.827130496501923,18.568824231624603 8.629151433706284,18.44441294670105 8.629151433706284,18.44441294670105 8.393636345863342,18.34324449300766 8.393636345863342,18.34324449300766 8.136928081512451,18.26651245355606 8.136928081512451,18.26651245355606 7.875291258096695,18.21546107530594 7.875291258096695,18.21546107530594 7.625093311071396,18.191595375537872 7.625093311071396,18.191595375537872 7.356452196836472,18.192529678344727 7.356452196836472,18.192529678344727 7.0448532700538635,18.211518228054047 7.0448532700538635,18.211518228054047 6.714577227830887,18.243010342121124 6.714577227830887,18.243010342121124 6.389904022216797,18.281246721744537 6.389904022216797,18.281246721744537 6.095115095376968,18.320779502391815 6.095115095376968,18.320779502391815 5.854489654302597,18.355955183506012 5.854489654302597,18.355955183506012 5.692308768630028,18.381117284297943 5.692308768630028,18.381117284297943 5.632852762937546,18.390819430351257 5.632852762937546,18.390819430351257 4.503916576504707,22.388581931591034 4.503916576504707,22.388581931591034" stroke="white" stroke-width="0.1" /></svg>