<?xml version="1.0" encoding="utf-8" ?>
<svg baseProfile="full" height="28.717780113220215" version="1.1" width="99.99996423721313" xmlns="http://www.w3.org/2000/svg" xmlns:ev="http://www.w3.org/2001/xml-events" xmlns:xlink="http://www.w3.org/1999/xlink"><defs><clipPath /></defs><polygon points="99.91540312767029,18.281592428684235 99.91540312767029,18.281592428684235 99.96298551559448,18.627046048641205 99.96298551559448,18.627046048641205 99.99057054519653,19.0375879406929 99.99057054519653,19.0375879406929 99.99996423721313,19.490715861320496 99.99996423721313,19.490715861320496 99.99299049377441,19.96437907218933 99.99299049377441,19.96437907218933 99.9714732170105,20.436298847198486 99.9714732170105,20.436298847198486 99.93722438812256,20.8840474486351 99.93722438812256,20.8840474486351 99.89206194877625,21.285346150398254 99.89206194877625,21.285346150398254 99.83780980110168,21.6180682182312 99.83780980110168,21.6180682182312 99.76158142089844,21.902599930763245 99.76158142089844,21.902599930763245 99.65716004371643,22.169779241085052 99.65716004371643,22.169779241085052 99.53637719154358,22.413164377212524 99.53637719154358,22.413164377212524 99.41104650497437,22.62677103281021 99.41104650497437,22.62677103281021 99.29299354553223,22.804006934165955 99.29299354553223,22.804006934165955 99.19403195381165,22.938428819179535 99.19403195381165,22.938428819179535 99.12598729133606,23.0236753821373 99.12598729133606,23.0236753821373 99.10067915916443,23.053529858589172 99.10067915916443,23.053529858589172 99.10908937454224,23.07012379169464 99.10908937454224,23.07012379169464 99.13159608840942,23.12089204788208 99.13159608840942,23.12089204788208 99.16410446166992,23.20697158575058 99.16410446166992,23.20697158575058 99.20251965522766,23.329952359199524 99.20251965522766,23.329952359199524 99.24275279045105,23.4911248087883 99.24275279045105,23.4911248087883 99.28072094917297,23.691925406455994 99.28072094917297,23.691925406455994 99.31231737136841,23.933568596839905 99.31231737136841,23.933568596839905 99.33345913887024,24.21741634607315 99.33345913887024,24.21741634607315 99.33436512947083,24.500130116939545 99.33436512947083,24.500130116939545 99.3043601512909,24.740636348724365 99.3043601512909,24.740636348724365 99.23798441886902,24.94370937347412 99.23798441886902,24.94370937347412 99.12977814674377,25.114580988883972 99.12977814674377,25.114580988883972 98.97428750991821,25.258246064186096 98.97428750991821,25.258246064186096 98.76605868339539,25.379562377929688 98.76605868339539,25.379562377929688 98.49963784217834,25.483521819114685 98.49963784217834,25.483521819114685 98.16957116127014,25.575286149978638 98.16957116127014,25.575286149978638 97.81941771507263,25.65886378288269 97.81941771507263,25.65886378288269 97.49972820281982,25.734183192253113 97.49972820281982,25.734183192253113 97.2154974937439,25.800257921218872 97.2154974937439,25.800257921218872 96.97173833847046,25.856557488441467 96.97173833847046,25.856557488441467 96.77343368530273,25.901946425437927 96.77343368530273,25.901946425437927 96.62560224533081,25.93543827533722 96.62560224533081,25.93543827533722 96.53323292732239,25.95612406730652 96.53323292732239,25.95612406730652 96.5013325214386,25.963246822357178 96.5013325214386,25.963246822357178 96.33008241653442,25.956806540489197 96.33008241653442,25.956806540489197 95.87331414222717,25.940895080566406 95.87331414222717,25.940895080566406 95.21650671958923,25.920283794403076 95.21650671958923,25.920283794403076 94.44513320922852,25.900202989578247 94.44513320922852,25.900202989578247 93.64465475082397,25.885578989982605 93.64465475082397,25.885578989982605 92.90055632591248,25.881487131118774 92.90055632591248,25.881487131118774 92.29830503463745,25.892779231071472 92.29830503463745,25.892779231071472 91.92337393760681,25.924450159072876 91.92337393760681,25.924450159072876 91.69552326202393,25.967717170715332 91.69552326202393,25.967717170715332 91.47274494171143,26.011061668395996 91.47274494171143,26.011061668395996 91.2478506565094,26.0556161403656 91.2478506565094,26.0556161403656 91.0135567188263,26.102596521377563 91.0135567188263,26.102596521377563 90.76259136199951,26.153138279914856 90.76259136199951,26.153138279914856 90.48791527748108,26.20837688446045 90.48791527748108,26.20837688446045 90.18216729164124,26.26960277557373 90.18216729164124,26.26960277557373 89.83807563781738,26.337948441505432 89.83807563781738,26.337948441505432 89.95996117591858,25.976961851119995 89.95996117591858,25.976961851119995 90.06680250167847,25.609612464904785 90.06680250167847,25.609612464904785 90.15829563140869,25.235894322395325 90.15829563140869,25.235894322395325 90.23403525352478,24.856190383434296 90.23403525352478,24.856190383434296 90.29362797737122,24.471183121204376 90.29362797737122,24.471183121204376 90.33663272857666,24.080872535705566 90.33663272857666,24.080872535705566 90.3627336025238,23.685787618160248 90.3627336025238,23.685787618160248 90.37152528762817,23.286306858062744 90.37152528762817,23.286306858062744 90.33738970756531,22.499698400497437 90.33738970756531,22.499698400497437 90.23687243461609,21.73195630311966 90.23687243461609,21.73195630311966 90.07293581962585,20.985735952854156 90.07293581962585,20.985735952854156 89.84838128089905,20.26391327381134 89.84838128089905,20.26391327381134 89.56615924835205,19.569218158721924 89.56615924835205,19.569218158721924 89.22908306121826,18.904681503772736 89.22908306121826,18.904681503772736 88.84006142616272,18.272878229618073 88.84006142616272,18.272878229618073 88.4020447731018,17.676764726638794 88.4020447731018,17.676764726638794 88.56711983680725,18.055862188339233 88.56711983680725,18.055862188339233 88.71245384216309,18.44518780708313 88.71245384216309,18.44518780708313 88.83721828460693,18.843910098075867 88.83721828460693,18.843910098075867 88.94083499908447,19.251498579978943 88.94083499908447,19.251498579978943 89.02263641357422,19.667421281337738 89.02263641357422,19.667421281337738 89.08185362815857,20.090997219085693 89.08185362815857,20.090997219085693 89.11784291267395,20.52161991596222 89.11784291267395,20.52161991596222 89.13004398345947,20.958532392978668 89.13004398345947,20.958532392978668 89.11746740341187,21.404007077217102 89.11746740341187,21.404007077217102 89.08011317253113,21.842889487743378 89.08011317253113,21.842889487743378 89.01869654655457,22.274498641490936 89.01869654655457,22.274498641490936 88.93394470214844,22.69815057516098 88.93394470214844,22.69815057516098 88.82657289505005,23.11316430568695 88.82657289505005,23.11316430568695 88.69718909263611,23.51885735988617 88.69718909263611,23.51885735988617 88.54655027389526,23.914548754692078 88.54655027389526,23.914548754692078 88.37533593177795,24.299556016921997 88.37533593177795,24.299556016921997 87.84257173538208,25.239530205726624 87.84257173538208,25.239530205726624 87.18848824501038,26.09221637248993 87.18848824501038,26.09221637248993 86.42483949661255,26.84571146965027 86.42483949661255,26.84571146965027 85.56321859359741,27.488499879837036 85.56321859359741,27.488499879837036 84.61536169052124,28.00883948802948 84.61536169052124,28.00883948802948 83.59282612800598,28.3949077129364 83.59282612800598,28.3949077129364 82.50740766525269,28.635036945343018 82.50740766525269,28.635036945343018 81.3707947731018,28.717780113220215 81.3707947731018,28.717780113220215 80.30484914779663,28.645113110542297 80.30484914779663,28.645113110542297 79.28330302238464,28.433552384376526 79.28330302238464,28.433552384376526 78.3157467842102,28.09256911277771 78.3157467842102,28.09256911277771 77.41168737411499,27.631941437721252 77.41168737411499,27.631941437721252 76.58070921897888,27.06136405467987 76.58070921897888,27.06136405467987 75.83233118057251,26.390233635902405 75.83233118057251,26.390233635902405 75.17620325088501,25.628402829170227 75.17620325088501,25.628402829170227 74.6217668056488,24.785418808460236 74.6217668056488,24.785418808460236 74.39406514167786,24.35373365879059 74.39406514167786,24.35373365879059 74.19314980506897,23.90666753053665 74.19314980506897,23.90666753053665 74.02008175849915,23.445281386375427 74.02008175849915,23.445281386375427 73.87596368789673,22.970405220985413 73.87596368789673,22.970405220985413 73.76195788383484,22.483406960964203 73.76195788383484,22.483406960964203 73.67913722991943,21.984966099262238 73.67913722991943,21.984966099262238 73.62863421440125,21.476371586322784 73.62863421440125,21.476371586322784 73.61155152320862,20.958532392978668 73.61155152320862,20.958532392978668 73.6237108707428,20.52154392004013 73.6237108707428,20.52154392004013 73.65974187850952,20.090997219085693 73.65974187850952,20.090997219085693 73.71899485588074,19.667421281337738 73.71899485588074,19.667421281337738 73.80075454711914,19.25157457590103 73.80075454711914,19.25157457590103 73.90437722206116,18.843910098075867 73.90437722206116,18.843910098075867 74.029141664505,18.44518780708313 74.029141664505,18.44518780708313 74.17447566986084,18.055862188339233 74.17447566986084,18.055862188339233 74.3395447731018,17.676764726638794 74.3395447731018,17.676764726638794 73.90153408050537,18.272878229618073 73.90153408050537,18.272878229618073 73.51251244544983,18.904681503772736 73.51251244544983,18.904681503772736 73.17543029785156,19.569218158721924 73.17543029785156,19.569218158721924 72.89321422576904,20.26383727788925 72.89321422576904,20.26383727788925 72.66865372657776,20.985735952854156 72.66865372657776,20.985735952854156 72.50468134880066,21.73195630311966 72.50468134880066,21.73195630311966 72.40424156188965,22.499774396419525 72.40424156188965,22.499774396419525 72.37007021903992,23.286306858062744 72.37007021903992,23.286306858062744 72.38518595695496,23.81058633327484 72.38518595695496,23.81058633327484 72.42993116378784,24.326910078525543 72.42993116378784,24.326910078525543 72.50350713729858,24.83459562063217 72.50350713729858,24.83459562063217 72.60504364967346,25.332733988761902 72.60504364967346,25.332733988761902 72.73374795913696,25.820642709732056 72.73374795913696,25.820642709732056 72.88863062858582,26.29733383655548 72.88863062858582,26.29733383655548 73.0690062046051,26.762208342552185 73.0690062046051,26.762208342552185 73.27390313148499,27.21412479877472 73.27390313148499,27.21412479877472 71.43895626068115,27.747875452041626 71.43895626068115,27.747875452041626 23.348744213581085,27.675282955169678 23.348744213581085,27.675282955169678 23.607361316680908,27.178889513015747 23.607361316680908,27.178889513015747 23.83551597595215,26.66529417037964 23.83551597595215,26.66529417037964 24.031998217105865,26.135557889938354 24.031998217105865,26.135557889938354 24.19551908969879,25.590819120407104 24.19551908969879,25.590819120407104 24.324864149093628,25.032365322113037 24.324864149093628,25.032365322113037 24.418899416923523,24.46140944957733 24.418899416923523,24.46140944957733 24.476109445095062,23.87893497943878 24.476109445095062,23.87893497943878 24.495507776737213,23.286306858062744 24.495507776737213,23.286306858062744 24.46140944957733,22.499698400497437 24.46140944957733,22.499698400497437 24.360932409763336,21.73195630311966 24.360932409763336,21.73195630311966 24.19688254594803,20.985735952854156 24.19688254594803,20.985735952854156 23.972363770008087,20.26391327381134 23.972363770008087,20.26391327381134 23.690181970596313,19.569218158721924 23.690181970596313,19.569218158721924 23.35306406021118,18.904681503772736 23.35306406021118,18.904681503772736 22.96404093503952,18.272878229618073 22.96404093503952,18.272878229618073 22.52599149942398,17.676764726638794 22.52599149942398,17.676764726638794 22.69110381603241,18.055862188339233 22.69110381603241,18.055862188339233 22.836361825466156,18.44518780708313 22.836361825466156,18.44518780708313 22.96116203069687,18.843910098075867 22.96116203069687,18.843910098075867 23.06482046842575,19.251498579978943 23.06482046842575,19.251498579978943 23.146580159664154,19.667421281337738 23.146580159664154,19.667421281337738 23.20583462715149,20.090997219085693 23.20583462715149,20.090997219085693 23.24182838201523,20.52161991596222 23.24182838201523,20.52161991596222 23.25402796268463,20.958532392978668 23.25402796268463,20.958532392978668 23.2323557138443,21.54206782579422 23.2323557138443,21.54206782579422 23.168402910232544,22.113706171512604 23.168402910232544,22.113706171512604 23.06368350982666,22.672007977962494 23.06368350982666,22.672007977962494 22.91978895664215,23.215459287166595 22.91978895664215,23.215459287166595 22.73831069469452,23.742541670799255 22.73831069469452,23.742541670799255 22.520838677883148,24.251742660999298 22.520838677883148,24.251742660999298 22.26889133453369,24.741697311401367 22.26889133453369,24.741697311401367 21.984057128429413,25.210660696029663 21.984057128429413,25.210660696029663 21.418480575084686,25.967642664909363 21.418480575084686,25.967642664909363 20.766976475715637,26.649531722068787 20.766976475715637,26.649531722068787 20.037350058555603,27.24829614162445 20.037350058555603,27.24829614162445 19.23755556344986,27.756133675575256 19.23755556344986,27.756133675575256 18.37555170059204,28.16493511199951 18.37555170059204,28.16493511199951 17.459142208099365,28.46681773662567 17.459142208099365,28.46681773662567 16.49620682001114,28.653675317764282 16.49620682001114,28.653675317764282 15.494778752326965,28.717780113220215 15.494778752326965,28.717780113220215 14.46334421634674,28.649812936782837 14.46334421634674,28.649812936782837 13.473130762577057,28.451737761497498 13.473130762577057,28.451737761497498 12.532776594161987,28.132125735282898 12.532776594161987,28.132125735282898 11.650844663381577,27.699759602546692 11.650844663381577,27.699759602546692 10.836047679185867,27.16335356235504 10.836047679185867,27.16335356235504 10.097024589776993,26.531627774238586 10.097024589776993,26.531627774238586 9.442565590143204,25.813138484954834 9.442565590143204,25.813138484954834 8.881080895662308,25.016680359840393 8.881080895662308,25.016680359840393 8.623449504375458,24.564309418201447 8.623449504375458,24.564309418201447 8.395824581384659,24.09360259771347 8.395824581384659,24.09360259771347 8.199570327997208,23.60599786043167 8.199570327997208,23.60599786043167 8.036050200462341,23.102782666683197 8.036050200462341,23.102782666683197 7.906552404165268,22.58501946926117 7.906552404165268,22.58501946926117 7.812365889549255,22.05437570810318 7.812365889549255,22.05437570810318 7.7550046145915985,21.511682868003845 7.7550046145915985,21.511682868003845 7.735531032085419,20.958532392978668 7.735531032085419,20.958532392978668 7.745987921953201,20.553672313690186 7.745987921953201,20.553672313690186 7.776903361082077,20.1541930437088 7.776903361082077,20.1541930437088 7.827672362327576,19.760623574256897 7.827672362327576,19.760623574256897 7.897990196943283,19.373570382595062 7.897990196943283,19.373570382595062 7.98717588186264,18.99341195821762 7.98717588186264,18.99341195821762 8.094774931669235,18.620604276657104 8.094774931669235,18.620604276657104 8.220180869102478,18.255753815174103 8.220180869102478,18.255753815174103 8.362863212823868,17.899464070796967 8.362863212823868,17.899464070796967 7.964519411325455,18.479740619659424 7.964519411325455,18.479740619659424 7.609064131975174,19.091615080833435 7.609064131975174,19.091615080833435 7.29861855506897,19.732587039470673 7.29861855506897,19.732587039470673 7.035304605960846,20.400002598762512 7.035304605960846,20.400002598762512 6.821167469024658,21.091440320014954 6.821167469024658,21.091440320014954 6.658177822828293,21.804699301719666 6.658177822828293,21.804699301719666 6.548456847667694,22.537130117416382 6.548456847667694,22.537130117416382 6.494051218032837,23.286306858062744 6.494051218032837,23.286306858062744 6.511782109737396,24.114137887954712 6.511782109737396,24.114137887954712 6.606803089380264,24.896426498889923 6.606803089380264,24.896426498889923 6.754562258720398,25.613248348236084 6.754562258720398,25.613248348236084 6.9305092096328735,26.244521141052246 6.9305092096328735,26.244521141052246 7.110093533992767,26.770466566085815 7.110093533992767,26.770466566085815 7.268764078617096,27.170857787132263 7.268764078617096,27.170857787132263 7.381969690322876,27.42568552494049 7.381969690322876,27.42568552494049 7.425161451101303,27.515098452568054 7.425161451101303,27.515098452568054 5.174979194998741,27.670282125473022 5.174979194998741,27.670282125473022 5.028280988335609,27.63156294822693 5.028280988335609,27.63156294822693 4.634256660938263,27.527296543121338 4.634256660938263,27.527296543121338 4.0620118379592896,27.37559676170349 4.0620118379592896,27.37559676170349 3.380652889609337,27.195027470588684 3.380652889609337,27.195027470588684 2.659285254776478,27.00354754924774 2.659285254776478,27.00354754924774 1.9670149311423302,26.819264888763428 1.9670149311423302,26.819264888763428 1.3729474507272243,26.660367846488953 1.3729474507272243,26.660367846488953 0.9461888112127781,26.545190811157227 0.9461888112127781,26.545190811157227 0.6709021981805563,26.432818174362183 0.6709021981805563,26.432818174362183 0.47517819330096245,26.271873712539673 0.47517819330096245,26.271873712539673 0.34401353914290667,26.064404845237732 0.34401353914290667,26.064404845237732 0.26240504812449217,25.812911987304688 0.26240504812449217,25.812911987304688 0.2153494395315647,25.519591569900513 0.2153494395315647,25.519591569900513 0.18784351414069533,25.186792016029358 0.18784351414069533,25.186792016029358 0.16488402616232634,24.816636741161346 0.16488402616232634,24.816636741161346 0.13146772980690002,24.41139817237854 0.13146772980690002,24.41139817237854 0.08183582103811204,23.817406594753265 0.08183582103811204,23.817406594753265 0.032658554846420884,22.940248250961304 0.032658554846420884,22.940248250961304 0.002576312908786349,21.87107801437378 0.002576312908786349,21.87107801437378 0.010229477629764006,20.701508224010468 0.010229477629764006,20.701508224010468 0.07425842923112214,19.52292025089264 0.07425842923112214,19.52292025089264 0.21330355666577816,18.426547944545746 0.21330355666577816,18.426547944545746 0.44600521214306355,17.50377267599106 0.44600521214306355,17.50377267599106 0.7910038344562054,16.846130788326263 0.7910038344562054,16.846130788326263 1.3866625726222992,16.240015625953674 1.3866625726222992,16.240015625953674 2.3483091965317726,15.452572703361511 2.3483091965317726,15.452572703361511 3.660031408071518,14.545862376689911 3.660031408071518,14.545862376689911 5.30591644346714,13.582397997379303 5.30591644346714,13.582397997379303 7.270051538944244,12.624387443065643 7.270051538944244,12.624387443065643 9.53652560710907,11.734195798635483 9.53652560710907,11.734195798635483 12.089423835277557,10.973956435918808 12.089423835277557,10.973956435918808 14.912836253643036,10.405955463647842 14.912836253643036,10.405955463647842 17.844149470329285,9.970633685588837 17.844149470329285,9.970633685588837 20.672258734703064,9.57130566239357 20.672258734703064,9.57130566239357 23.308509588241577,9.214562177658081 23.308509588241577,9.214562177658081 25.66424310207367,8.90744999051094 25.66424310207367,8.90744999051094 27.650809288024902,8.656790107488632 27.650809288024902,8.656790107488632 29.179546236991882,8.469250053167343 29.179546236991882,8.469250053167343 30.16180396080017,8.351648598909378 30.16180396080017,8.351648598909378 30.508923530578613,8.310957998037338 30.508923530578613,8.310957998037338 30.52142858505249,8.32740068435669 30.52142858505249,8.32740068435669 30.565300583839417,8.36983472108841 30.565300583839417,8.36983472108841 30.65009117126465,8.42757448554039 30.65009117126465,8.42757448554039 30.785349011421204,8.490390330553055 30.785349011421204,8.490390330553055 30.980616807937622,8.547751605510712 30.980616807937622,8.547751605510712 31.24544620513916,8.589275926351547 31.24544620513916,8.589275926351547 31.589385867118835,8.604354411363602 31.589385867118835,8.604354411363602 32.02197849750519,8.582531660795212 32.02197849750519,8.582531660795212 32.65272080898285,8.45591351389885 32.65272080898285,8.45591351389885 33.390605449676514,8.197827637195587 33.390605449676514,8.197827637195587 34.20415222644806,7.83684104681015 34.20415222644806,7.83684104681015 35.06195247173309,7.401064783334732 35.06195247173309,7.401064783334732 35.932594537734985,6.919067353010178 35.932594537734985,6.919067353010178 36.784595251083374,6.419187039136887 36.784595251083374,6.419187039136887 37.586510181427,5.929611623287201 37.586510181427,5.929611623287201 38.30696940422058,5.478832498192787 38.30696940422058,5.478832498192787 39.20678496360779,4.911210015416145 39.20678496360779,4.911210015416145 40.52259922027588,4.1167963296175 40.52259922027588,4.1167963296175 42.18666851520538,3.1922031193971634 42.18666851520538,3.1922031193971634 44.13125514984131,2.234496735036373 44.13125514984131,2.234496735036373 46.288612484931946,1.3405161909759045 46.288612484931946,1.3405161909759045 48.5910028219223,0.6069490220397711 48.5910028219223,0.6069490220397711 50.97068548202515,0.13063421938568354 50.97068548202515,0.13063421938568354 53.35990786552429,0.0085624516941607 53.35990786552429,0.0085624516941607 55.66176772117615,0.12184444349259138 55.66176772117615,0.12184444349259138 57.82269239425659,0.28203048277646303 57.82269239425659,0.28203048277646303 59.839946031570435,0.48116431571543217 59.839946031570435,0.48116431571543217 61.71079874038696,0.711744325235486 61.71079874038696,0.711744325235486 63.4325385093689,0.9659658186137676 63.4325385093689,0.9659658186137676 65.00241756439209,1.2361755594611168 65.00241756439209,1.2361755594611168 66.41772389411926,1.514493115246296 66.41772389411926,1.514493115246296 67.67572164535522,1.7931895330548286 67.67572164535522,1.7931895330548286 69.14929747581482,2.1689523011446 69.14929747581482,2.1689523011446 71.09161019325256,2.7037646621465683 71.09161019325256,2.7037646621465683 73.32034707069397,3.33859845995903 73.32034707069397,3.33859845995903 75.65320134162903,4.014274477958679 75.65320134162903,4.014274477958679 77.90785431861877,4.6718403697013855 77.90785431861877,4.6718403697013855 79.90199327468872,5.2521925419569016 79.90199327468872,5.2521925419569016 81.45331740379333,5.696076154708862 81.45331740379333,5.696076154708862 82.37950205802917,5.94438724219799 82.37950205802917,5.94438724219799 90.97972512245178,8.02551805973053 90.97972512245178,8.02551805973053 92.16600060462952,5.00585176050663 92.16600060462952,5.00585176050663 89.64799642562866,5.114208534359932 89.64799642562866,5.114208534359932 90.16394019126892,2.8922900557518005 90.16394019126892,2.8922900557518005 90.19864797592163,2.810605801641941 90.19864797592163,2.810605801641941 90.24770855903625,2.7331648394465446 90.24770855903625,2.7331648394465446 90.30885696411133,2.6617858558893204 90.30885696411133,2.6617858558893204 90.37989974021912,2.598135732114315 90.37989974021912,2.598135732114315 90.4583990573883,2.5441089645028114 90.4583990573883,2.5441089645028114 90.5422031879425,2.50144824385643 90.5422031879425,2.50144824385643 90.62904119491577,2.47197225689888 90.62904119491577,2.47197225689888 90.71660041809082,2.457347884774208 90.71660041809082,2.457347884774208 98.13486337661743,1.9023798406124115 98.13486337661743,1.9023798406124115 98.21977019309998,1.904653012752533 98.21977019309998,1.904653012752533 98.29899072647095,1.9235964864492416 98.29899072647095,1.9235964864492416 98.37074875831604,1.9573915749788284 98.37074875831604,1.9573915749788284 98.43341708183289,2.0045988261699677 98.43341708183289,2.0045988261699677 98.48509430885315,2.063474990427494 98.48509430885315,2.063474990427494 98.52418899536133,2.132580801844597 98.52418899536133,2.132580801844597 98.54889512062073,2.210097573697567 98.54889512062073,2.210097573697567 98.55753183364868,2.2946612909436226 98.55753183364868,2.2946612909436226 98.55753183364868,4.31782454252243 98.55753183364868,4.31782454252243 98.54889512062073,4.403070360422134 98.54889512062073,4.403070360422134 98.52407574653625,4.4829361140728 98.52407574653625,4.4829361140728 98.48486185073853,4.555603116750717 98.48486185073853,4.555603116750717 98.43303561210632,4.619253426790237 98.43303561210632,4.619253426790237 98.37021827697754,4.67214360833168 98.37021827697754,4.67214360833168 98.2982337474823,4.712606593966484 98.2982337474823,4.712606593966484 98.21882247924805,4.7387488186359406 98.21882247924805,4.7387488186359406 98.13368916511536,4.748978093266487 98.13368916511536,4.748978093266487 96.69281244277954,4.810961335897446 96.69281244277954,4.810961335897446 95.51164507865906,9.12211760878563 95.51164507865906,9.12211760878563 95.68660855293274,9.16447564959526 95.68660855293274,9.16447564959526 95.95886468887329,9.41157415509224 95.95886468887329,9.41157415509224 96.22793793678284,9.693150222301483 96.22793793678284,9.693150222301483 96.50155901908875,10.018371790647507 96.50155901908875,10.018371790647507 96.7874526977539,10.396256297826767 96.7874526977539,10.396256297826767 97.09334969520569,10.836123675107956 97.09334969520569,10.836123675107956 97.42698669433594,11.346839368343353 97.42698669433594,11.346839368343353 97.79608249664307,11.937497556209564 97.79608249664307,11.937497556209564 98.20836782455444,12.617340683937073 98.20836782455444,12.617340683937073 98.60420823097229,13.299836218357086 98.60420823097229,13.299836218357086 98.92367124557495,13.894662261009216 98.92367124557495,13.894662261009216 99.17402863502502,14.404772222042084 99.17402863502502,14.404772222042084 99.36255216598511,14.83357548713684 99.36255216598511,14.83357548713684 99.49651956558228,15.184181928634644 99.49651956558228,15.184181928634644 99.5832085609436,15.459847450256348 99.5832085609436,15.459847450256348 99.62988495826721,15.663602948188782 99.62988495826721,15.663602948188782 99.64382648468018,15.798632800579071 99.64382648468018,15.798632800579071 99.64549541473389,15.908277034759521 99.64549541473389,15.908277034759521 99.64988827705383,16.028454899787903 99.64988827705383,16.028454899787903 99.65609908103943,16.1512091755867 99.65609908103943,16.1512091755867 99.66322183609009,16.269037127494812 99.66322183609009,16.269037127494812 99.67034459114075,16.374211013317108 99.67034459114075,16.374211013317108 99.67656135559082,16.458851099014282 99.67656135559082,16.458851099014282 99.68095421791077,16.515226662158966 99.68095421791077,16.515226662158966 99.68262314796448,16.535761952400208 99.68262314796448,16.535761952400208 99.37225580215454,16.846130788326263 99.37225580215454,16.846130788326263 99.48863983154297,17.6220566034317 99.48863983154297,17.6220566034317 99.50061440467834,17.616979777812958 99.50061440467834,17.616979777812958 99.53349828720093,17.610614001750946 99.53349828720093,17.610614001750946 99.58275556564331,17.615918815135956 99.58275556564331,17.615918815135956 99.64382648468018,17.64630377292633 99.64382648468018,17.64630377292633 99.71217513084412,17.714878916740417 99.71217513084412,17.714878916740417 99.78324770927429,17.83490478992462 99.78324770927429,17.83490478992462 99.8525083065033,18.019413948059082 99.8525083065033,18.019413948059082" stroke="white" stroke-width="0.1" /><polygon points="5.204076319932938,25.458896160125732 5.204076319932938,25.458896160125732 5.18861822783947,25.387290120124817 5.18861822783947,25.387290120124817 5.148836970329285,25.184518098831177 5.148836970329285,25.184518098831177 5.0941284745931625,24.868087470531464 5.0941284745931625,24.868087470531464 5.034191161394119,24.4562566280365 5.034191161394119,24.4562566280365 4.978648945689201,23.966680467128754 4.978648945689201,23.966680467128754 4.93689738214016,23.417168855667114 4.93689738214016,23.417168855667114 4.918787628412247,22.8254497051239 4.918787628412247,22.8254497051239 4.933639243245125,22.209711372852325 4.933639243245125,22.209711372852325 4.9788761883974075,21.6180682182312 4.9788761883974075,21.6180682182312 5.04063181579113,21.090151369571686 5.04063181579113,21.090151369571686 5.1119353622198105,20.630735158920288 5.1119353622198105,20.630735158920288 5.185966193675995,20.244362950325012 5.185966193675995,20.244362950325012 5.255602672696114,19.935888051986694 5.255602672696114,19.935888051986694 5.313948541879654,19.70970332622528 5.313948541879654,19.70970332622528 5.354032665491104,19.570431113243103 5.354032665491104,19.570431113243103 5.368960276246071,19.523072242736816 5.368960276246071,19.523072242736816 2.29981392621994,20.49275040626526 2.29981392621994,20.49275040626526 2.291327156126499,20.53624540567398 2.291327156126499,20.53624540567398 2.268746681511402,20.65884619951248 2.268746681511402,20.65884619951248 2.2360121831297874,20.84881216287613 2.2360121831297874,20.84881216287613 2.1976707503199577,21.094243228435516 2.1976707503199577,21.094243228435516 2.157737873494625,21.383321285247803 2.157737873494625,21.383321285247803 2.1204570308327675,21.7041477560997 2.1204570308327675,21.7041477560997 2.0901475101709366,22.04490303993225 2.0901475101709366,22.04490303993225 2.0707493647933006,22.39399403333664 2.0707493647933006,22.39399403333664 2.071204036474228,22.766421735286713 2.071204036474228,22.766421735286713 2.092951163649559,23.168781399726868 2.092951163649559,23.168781399726868 2.129322662949562,23.576445877552032 2.129322662949562,23.576445877552032 2.1738018840551376,23.965241014957428 2.1738018840551376,23.965241014957428 2.219872362911701,24.310392141342163 2.219872362911701,24.310392141342163 2.2609418258070946,24.587269127368927 2.2609418258070946,24.587269127368927 2.290342189371586,24.771323800086975 2.290342189371586,24.771323800086975 2.3016324266791344,24.8381569981575 2.3016324266791344,24.8381569981575" stroke="white" stroke-width="0.1" /><polygon points="13.283392786979675,12.384563684463501 13.283392786979675,12.384563684463501 13.29725980758667,12.273706495761871 13.29725980758667,12.273706495761871 13.232474029064178,12.132463604211807 13.232474029064178,12.132463604211807 13.049478828907013,11.996525526046753 13.049478828907013,11.996525526046753 12.708723545074463,11.902035027742386 12.708723545074463,11.902035027742386 12.17065379023552,11.884834617376328 12.17065379023552,11.884834617376328 11.395713686943054,11.980915814638138 11.395713686943054,11.980915814638138 10.344351083040237,12.225968390703201 10.344351083040237,12.225968390703201 8.977010846138,12.656137347221375 8.977010846138,12.656137347221375 7.507375627756119,13.245582580566406 7.507375627756119,13.245582580566406 6.185348331928253,13.912393152713776 6.185348331928253,13.912393152713776 5.025856196880341,14.60845172405243 5.025856196880341,14.60845172405243 4.043826088309288,15.28579443693161 4.043826088309288,15.28579443693161 3.2541103661060333,15.896381437778473 3.2541103661060333,15.896381437778473 2.6715606451034546,16.392017900943756 2.6715606451034546,16.392017900943756 2.3111041635274887,16.724513471126556 2.3111041635274887,16.724513471126556 2.1876685321331024,16.846130788326263 2.1876685321331024,16.846130788326263 2.254955843091011,16.849389672279358 2.254955843091011,16.849389672279358 2.436661534011364,16.857118904590607 2.436661534011364,16.857118904590607 2.7027036994695663,16.866666078567505 2.7027036994695663,16.866666078567505 3.0230000615119934,16.87522828578949 3.0230000615119934,16.87522828578949 3.367392346262932,16.880305111408234 3.367392346262932,16.880305111408234 3.705722838640213,16.878941655158997 3.705722838640213,16.878941655158997 4.007909446954727,16.868408024311066 4.007909446954727,16.868408024311066 4.243869334459305,16.846130788326263 4.243869334459305,16.846130788326263 4.467250779271126,16.75967276096344 4.467250779271126,16.75967276096344 4.752160608768463,16.571904718875885 4.752160608768463,16.571904718875885 5.09897768497467,16.30275696516037 5.09897768497467,16.30275696516037 5.508005246520042,15.972381830215454 5.508005246520042,15.972381830215454 5.979698151350021,15.601013600826263 5.979698151350021,15.601013600826263 6.514434516429901,15.20858108997345 6.514434516429901,15.20858108997345 7.112441956996918,14.815087616443634 7.112441956996918,14.815087616443634 7.774326950311661,14.440764486789703 7.774326950311661,14.440764486789703 8.582228422164917,14.064547419548035 8.582228422164917,14.064547419548035 9.46575254201889,13.714471459388733 9.46575254201889,13.714471459388733 10.37018969655037,13.394401967525482 10.37018969655037,13.394401967525482 11.240529268980026,13.108356297016144 11.240529268980026,13.108356297016144 12.021909654140472,12.860499322414398 12.021909654140472,12.860499322414398 12.659470736980438,12.654545903205872 12.659470736980438,12.654545903205872 13.098277151584625,12.494587153196335 13.098277151584625,12.494587153196335" stroke="white" stroke-width="0.1" /><polygon points="63.252949714660645,7.5738295912742615 63.252949714660645,7.5738295912742615 64.53322768211365,2.724299393594265 64.53322768211365,2.724299393594265 64.40054774284363,2.683608792722225 64.40054774284363,2.683608792722225 64.0246331691742,2.573433518409729 64.0246331691742,2.573433518409729 63.438671827316284,2.4112774059176445 63.438671827316284,2.4112774059176445 62.67585754394531,2.215098589658737 62.67585754394531,2.215098589658737 61.76937222480774,2.0025528967380524 61.76937222480774,2.0025528967380524 60.75241565704346,1.7914468422532082 60.75241565704346,1.7914468422532082 59.65816378593445,1.5993598848581314 59.65816378593445,1.5993598848581314 58.51981043815613,1.4440233819186687 58.51981043815613,1.4440233819186687 57.40063190460205,1.3275588862597942 57.40063190460205,1.3275588862597942 56.333887577056885,1.2421617284417152 56.333887577056885,1.2421617284417152 55.30775189399719,1.1910143308341503 55.30775189399719,1.1910143308341503 54.31041717529297,1.1772234924137592 54.31041717529297,1.1772234924137592 53.330057859420776,1.2041989713907242 53.330057859420776,1.2041989713907242 52.35484838485718,1.2748202309012413 52.35484838485718,1.2748202309012413 51.37296915054321,1.392572931945324 51.37296915054321,1.392572931945324 50.37260055541992,1.5604120679199696 50.37260055541992,1.5604120679199696 49.30880963802338,1.8352441489696503 49.30880963802338,1.8352441489696503 48.18364381790161,2.2412406280636787 48.18364381790161,2.2412406280636787 47.05574810504913,2.732255682349205 47.05574810504913,2.732255682349205 45.983776450157166,3.2625973224639893 45.983776450157166,3.2625973224639893 45.026370882987976,3.7862706929445267 45.026370882987976,3.7862706929445267 44.24218833446503,4.257432743906975 44.24218833446503,4.257432743906975 43.689870834350586,4.630013182759285 43.689870834350586,4.630013182759285 43.42807233333588,4.858092591166496 43.42807233333588,4.858092591166496 43.4397429227829,5.728886276483536 43.4397429227829,5.728886276483536 43.53885352611542,5.783140659332275 43.53885352611542,5.783140659332275 43.64611208438873,5.854443833231926 43.64611208438873,5.854443833231926 43.75598430633545,5.944311618804932 43.75598430633545,5.944311618804932 43.86301636695862,6.054714322090149 43.86301636695862,6.054714322090149 43.96163523197174,6.186939775943756 43.96163523197174,6.186939775943756 44.04642581939697,6.343109905719757 44.04642581939697,6.343109905719757 44.111818075180054,6.524588167667389 44.111818075180054,6.524588167667389 44.15228068828583,6.733269244432449 44.15228068828583,6.733269244432449 44.19032037258148,7.029242068529129 44.19032037258148,7.029242068529129 44.22646462917328,7.296951860189438 44.22646462917328,7.296951860189438 44.25351619720459,7.538291811943054 44.25351619720459,7.538291811943054 44.26420032978058,7.755307853221893 44.26420032978058,7.755307853221893 44.251468777656555,7.9496681690216064 44.251468777656555,7.9496681690216064 44.20790076255798,8.12341794371605 44.20790076255798,8.12341794371605 44.12640631198883,8.278527110815048 44.12640631198883,8.278527110815048 43.99971067905426,8.416738361120224 43.99971067905426,8.416738361120224" stroke="white" stroke-width="0.1" /><polygon points="73.3399748802185,7.651422172784805 73.3399748802185,7.651422172784805 73.47932457923889,7.466912269592285 73.47932457923889,7.466912269592285 73.5988199710846,7.176698744297028 73.5988199710846,7.176698744297028 73.67254495620728,6.81222602725029 73.67254495620728,6.81222602725029 73.67459535598755,6.405016779899597 73.67459535598755,6.405016779899597 73.57904314994812,5.986214429140091 73.57904314994812,5.986214429140091 73.35997819900513,5.587264895439148 73.35997819900513,5.587264895439148 72.9914903640747,5.239614099264145 72.9914903640747,5.239614099264145 72.44766354560852,4.974481463432312 72.44766354560852,4.974481463432312 71.72083854675293,4.737839475274086 71.72083854675293,4.737839475274086 70.86671590805054,4.467629641294479 70.86671590805054,4.467629641294479 69.95439529418945,4.184235259890556 69.95439529418945,4.184235259890556 69.05298829078674,3.9075087755918503 69.05298829078674,3.9075087755918503 68.231600522995,3.657606616616249 68.231600522995,3.657606616616249 67.5593376159668,3.454229235649109 67.5593376159668,3.454229235649109 67.10529923439026,3.317457437515259 67.10529923439026,3.317457437515259 66.93859696388245,3.267446532845497 66.93859696388245,3.267446532845497 66.24026298522949,7.6126255095005035 66.24026298522949,7.6126255095005035 66.52994751930237,7.6275534927845 66.52994751930237,7.6275534927845 67.29685664176941,7.664227485656738 67.29685664176941,7.664227485656738 68.387770652771,7.710146903991699 68.387770652771,7.710146903991699 69.64948177337646,7.753261923789978 69.64948177337646,7.753261923789978 70.92877626419067,7.781222462654114 70.92877626419067,7.781222462654114 72.07242846488953,7.781828939914703 72.07242846488953,7.781828939914703 72.92723655700684,7.742653787136078 72.92723655700684,7.742653787136078" stroke="white" stroke-width="0.1" /><polygon points="95.91938853263855,13.16048800945282 95.91938853263855,13.16048800945282 96.11693024635315,13.153895735740662 96.11693024635315,13.153895735740662 96.37221097946167,13.13631683588028 96.37221097946167,13.13631683588028 96.65932059288025,13.111311197280884 96.65932059288025,13.111311197280884 96.95233702659607,13.082896173000336 96.95233702659607,13.082896173000336 97.22535014152527,13.054481148719788 97.22535014152527,13.054481148719788 97.4524438381195,13.02962601184845 97.4524438381195,13.02962601184845 97.60770797729492,13.011971116065979 97.60770797729492,13.011971116065979 97.6652204990387,13.005302846431732 97.6652204990387,13.005302846431732 97.62248396873474,12.92702853679657 97.62248396873474,12.92702853679657 97.49791026115417,12.713800370693207 97.49791026115417,12.713800370693207 97.29695916175842,12.397672235965729 97.29695916175842,12.397672235965729 97.02507853507996,12.011149525642395 97.02507853507996,12.011149525642395 96.68773412704468,11.58643662929535 96.68773412704468,11.58643662929535 96.29037380218506,11.155889183282852 96.29037380218506,11.155889183282852 95.838463306427,10.751635581254959 95.838463306427,10.751635581254959 95.3374445438385,10.405955463647842 95.3374445438385,10.405955463647842 94.71768736839294,10.098540037870407 94.71768736839294,10.098540037870407 93.89289021492004,9.794384241104126 93.89289021492004,9.794384241104126 92.843496799469,9.503715485334396 92.843496799469,9.503715485334396 91.54996275901794,9.237218648195267 91.54996275901794,9.237218648195267 89.99273180961609,9.00534987449646 89.99273180961609,9.00534987449646 88.15225958824158,8.81841629743576 88.15225958824158,8.81841629743576 86.00899577140808,8.686872571706772 86.00899577140808,8.686872571706772 83.5433840751648,8.621328324079514 83.5433840751648,8.621328324079514 83.74297618865967,8.678234368562698 83.74297618865967,8.678234368562698 84.28900241851807,8.836601674556732 84.28900241851807,8.836601674556732 85.10236144065857,9.077562391757965 85.10236144065857,9.077562391757965 86.1039400100708,9.38270390033722 86.1039400100708,9.38270390033722 87.21463084220886,9.733310341835022 87.21463084220886,9.733310341835022 88.35533261299133,10.110815614461899 88.35533261299133,10.110815614461899 89.44693207740784,10.496429353952408 89.44693207740784,10.496429353952408 90.41032195091248,10.871510207653046 90.41032195091248,10.871510207653046 91.29785895347595,11.248333752155304 91.29785895347595,11.248333752155304 92.19313263893127,11.638417840003967 92.19313263893127,11.638417840003967 93.06384921073914,12.021984905004501 93.06384921073914,12.021984905004501 93.87773275375366,12.379714101552963 93.87773275375366,12.379714101552963 94.60251331329346,12.692053616046906 94.60251331329346,12.692053616046906 95.20590305328369,12.939304113388062 95.20590305328369,12.939304113388062 95.65562009811401,13.101914525032043 95.65562009811401,13.101914525032043" stroke="white" stroke-width="0.1" /></svg>