<?xml version="1.0" encoding="utf-8" ?>
<svg baseProfile="full" height="28.028815984725952" version="1.1" width="100.0" xmlns="http://www.w3.org/2000/svg" xmlns:ev="http://www.w3.org/2001/xml-events" xmlns:xlink="http://www.w3.org/1999/xlink"><defs><clipPath /></defs><polygon points="99.28720593452454,17.051789164543152 99.28720593452454,17.051789164543152 99.3131697177887,17.04169511795044 99.3131697177887,17.04169511795044 99.3813157081604,17.017818987369537 99.3813157081604,17.017818987369537 99.47695732116699,16.98976755142212 99.47695732116699,16.98976755142212 99.58568811416626,16.96714460849762 99.58568811416626,16.96714460849762 99.69267249107361,16.959556937217712 99.69267249107361,16.959556937217712 99.78337287902832,16.97661131620407 99.78337287902832,16.97661131620407 99.84316825866699,17.02784299850464 99.84316825866699,17.02784299850464 99.85743761062622,17.123067378997803 99.85743761062622,17.123067378997803 99.8320996761322,17.27091670036316 99.8320996761322,17.27091670036316 99.78838562965393,17.463871836662292 99.78838562965393,17.463871836662292 99.73464608192444,17.68689900636673 99.73464608192444,17.68689900636673 99.67923760414124,17.92496144771576 99.67923760414124,17.92496144771576 99.63051080703735,18.16302388906479 99.63051080703735,18.16302388906479 99.5968222618103,18.386049568653107 99.5968222618103,18.386049568653107 99.58652257919312,18.57893615961075 99.58652257919312,18.57893615961075 99.60796236991882,18.726854026317596 99.60796236991882,18.726854026317596 99.65501427650452,18.86078119277954 99.65501427650452,18.86078119277954 99.71042275428772,19.01642680168152 99.71042275428772,19.01642680168152 99.76583123207092,19.185437262058258 99.76583123207092,19.185437262058258 99.8128890991211,19.35945898294449 99.8128890991211,19.35945898294449 99.84323978424072,19.53013986349106 99.84323978424072,19.53013986349106 99.8485267162323,19.689126312732697 99.8485267162323,19.689126312732697 99.82040524482727,19.82799619436264 99.82040524482727,19.82799619436264 99.75051879882812,19.938604533672333 99.75051879882812,19.938604533672333 99.62946772575378,20.065362751483917 99.62946772575378,20.065362751483917 99.46373105049133,20.244325697422028 99.46373105049133,20.244325697422028 99.26868677139282,20.454196631908417 99.26868677139282,20.454196631908417 99.05999898910522,20.67367285490036 99.05999898910522,20.67367285490036 98.85291457176208,20.88145613670349 98.85291457176208,20.88145613670349 98.66294860839844,21.056243777275085 98.66294860839844,21.056243777275085 98.5055685043335,21.176736056804657 98.5055685043335,21.176736056804657 98.39621186256409,21.22163325548172 98.39621186256409,21.22163325548172 97.82597422599792,21.22163325548172 97.82597422599792,21.22163325548172 97.8153944015503,21.273770928382874 97.8153944015503,21.273770928382874 97.7814257144928,21.411526203155518 97.7814257144928,21.411526203155518 97.72072434425354,21.606919169425964 97.72072434425354,21.606919169425964 97.62995839118958,21.83196395635605 97.62995839118958,21.83196395635605 97.50577211380005,22.058679163455963 97.50577211380005,22.058679163455963 97.3448395729065,22.2590833902359 97.3448395729065,22.2590833902359 97.14381098747253,22.405122220516205 97.14381098747253,22.405122220516205 96.89934253692627,22.46902287006378 96.89934253692627,22.46902287006378 96.54614925384521,22.47772514820099 96.54614925384521,22.47772514820099 96.05847001075745,22.478489577770233 96.05847001075745,22.478489577770233 95.49227356910706,22.47340828180313 95.49227356910706,22.47340828180313 94.90351676940918,22.46456891298294 94.90351676940918,22.46456891298294 94.34818029403687,22.4540576338768 94.34818029403687,22.4540576338768 93.88222098350525,22.443963587284088 93.88222098350525,22.443963587284088 93.56160163879395,22.4363774061203 93.56160163879395,22.4363774061203 93.44229102134705,22.433383762836456 93.44229102134705,22.433383762836456 93.29298138618469,22.467143833637238 93.29298138618469,22.467143833637238 92.88932085037231,22.556452453136444 92.88932085037231,22.556452453136444 92.29764342308044,22.68334925174713 92.29764342308044,22.68334925174713 91.58456921577454,22.829875349998474 91.58456921577454,22.829875349998474 90.81630110740662,22.978071868419647 90.81630110740662,22.978071868419647 90.05930423736572,23.109981417655945 90.05930423736572,23.109981417655945 89.3799901008606,23.207572102546692 89.3799901008606,23.207572102546692 88.84477019309998,23.253096640110016 88.84477019309998,23.253096640110016 88.5443389415741,23.275719583034515 88.5443389415741,23.275719583034515 88.1951093673706,23.324237763881683 88.1951093673706,23.324237763881683 87.80049681663513,23.39482009410858 87.80049681663513,23.39482009410858 87.36356496810913,23.483362793922424 87.36356496810913,23.483362793922424 86.88771724700928,23.58596622943878 86.88771724700928,23.58596622943878 86.37609481811523,23.698732256889343 86.37609481811523,23.698732256889343 85.8319640159607,23.817624151706696 85.8319640159607,23.817624151706696 85.25852560997009,23.93888235092163 85.25852560997009,23.93888235092163 85.39063930511475,23.58206808567047 85.39063930511475,23.58206808567047 85.5067491531372,23.217874765396118 85.5067491531372,23.217874765396118 85.60628890991211,22.84678965806961 85.60628890991211,22.84678965806961 85.6888473033905,22.469162940979004 85.6888473033905,22.469162940979004 85.75392961502075,22.085270285606384 85.75392961502075,22.085270285606384 85.80098748207092,21.6956689953804 85.80098748207092,21.6956689953804 85.82952618598938,21.300779283046722 85.82952618598938,21.300779283046722 85.83920001983643,20.900876820087433 85.83920001983643,20.900876820087433 85.67088842391968,19.236600399017334 85.67088842391968,19.236600399017334 85.18843054771423,17.685507237911224 85.18843054771423,17.685507237911224 84.42516922950745,16.28114879131317 84.42516922950745,16.28114879131317 83.41472744941711,15.056939423084259 83.41472744941711,15.056939423084259 82.19058513641357,14.046497642993927 82.19058513641357,14.046497642993927 80.78615665435791,13.28323781490326 80.78615665435791,13.28323781490326 79.23513650894165,12.800709903240204 79.23513650894165,12.800709903240204 77.57079005241394,12.632465362548828 77.57079005241394,12.632465362548828 75.90651512145996,12.800709903240204 75.90651512145996,12.800709903240204 74.3554174900055,13.28330785036087 74.3554174900055,13.28330785036087 72.9509949684143,14.046497642993927 72.9509949684143,14.046497642993927 71.72685265541077,15.056939423084259 71.72685265541077,15.056939423084259 70.71641087532043,16.28114879131317 70.71641087532043,16.28114879131317 69.95314955711365,17.685507237911224 69.95314955711365,17.685507237911224 69.4706916809082,19.236530363559723 69.4706916809082,19.236530363559723 69.30238008499146,20.900876820087433 69.30238008499146,20.900876820087433 69.32033896446228,21.447722613811493 69.32033896446228,21.447722613811493 69.37344670295715,21.98503315448761 69.37344670295715,21.98503315448761 69.460529088974,22.511763870716095 69.460529088974,22.511763870716095 69.58046555519104,23.02686870098114 69.58046555519104,23.02686870098114 69.732004404068,23.529095947742462 69.732004404068,23.529095947742462 69.91403102874756,24.017609655857086 69.91403102874756,24.017609655857086 70.12543082237244,24.491019546985626 70.12543082237244,24.491019546985626 70.36488652229309,24.948488175868988 70.36488652229309,24.948488175868988 69.95043754577637,24.914589524269104 69.95043754577637,24.914589524269104 69.14527416229248,24.83050227165222 69.14527416229248,24.83050227165222 68.0528998374939,24.712932109832764 68.0528998374939,24.712932109832764 66.77676439285278,24.578866362571716 66.77676439285278,24.578866362571716 65.42008519172668,24.445217847824097 65.42008519172668,24.445217847824097 64.08631205558777,24.32883083820343 64.08631205558777,24.32883083820343 62.87887692451477,24.2465540766716 62.87887692451477,24.2465540766716 61.90115213394165,24.215368926525116 61.90115213394165,24.215368926525116 60.080188512802124,24.215230345726013 60.080188512802124,24.215230345726013 56.64123296737671,24.214255809783936 56.64123296737671,24.214255809783936 52.134621143341064,24.211609363555908 52.134621143341064,24.211609363555908 47.11088538169861,24.206459522247314 47.11088538169861,24.206459522247314 42.120561003685,24.19796735048294 42.120561003685,24.19796735048294 37.7141147851944,24.18529838323593 37.7141147851944,24.18529838323593 34.44201350212097,24.16761666536331 34.44201350212097,24.16761666536331 32.85479545593262,24.144089221954346 32.85479545593262,24.144089221954346 32.42906630039215,24.114365875720978 32.42906630039215,24.114365875720978 31.97883665561676,24.063482880592346 31.97883665561676,24.063482880592346 31.516358256340027,23.99025410413742 31.516358256340027,23.99025410413742 31.053805351257324,23.893915116786957 31.053805351257324,23.893915116786957 30.603229999542236,23.773352801799774 30.603229999542236,23.773352801799774 30.177083611488342,23.627452552318573 30.177083611488342,23.627452552318573 29.787275195121765,23.455309867858887 29.787275195121765,23.455309867858887 29.44619059562683,23.255881667137146 29.44619059562683,23.255881667137146 29.524779319763184,22.97382652759552 29.524779319763184,22.97382652759552 29.59362268447876,22.687873244285583 29.59362268447876,22.687873244285583 29.652652144432068,22.39823192358017 29.652652144432068,22.39823192358017 29.70137596130371,22.105108201503754 29.70137596130371,22.105108201503754 29.739663004875183,21.808645129203796 29.739663004875183,21.808645129203796 29.767367243766785,21.508978307247162 29.767367243766785,21.508978307247162 29.784071445465088,21.20625078678131 29.784071445465088,21.20625078678131 29.78978157043457,20.900876820087433 29.78978157043457,20.900876820087433 29.621466994285583,19.236600399017334 29.621466994285583,19.236600399017334 29.13893759250641,17.685507237911224 29.13893759250641,17.685507237911224 28.375747799873352,16.28114879131317 28.375747799873352,16.28114879131317 27.36530601978302,15.056939423084259 27.36530601978302,15.056939423084259 26.14116668701172,14.046497642993927 26.14116668701172,14.046497642993927 24.736738204956055,13.28323781490326 24.736738204956055,13.28323781490326 23.185646533966064,12.800709903240204 23.185646533966064,12.800709903240204 21.521368622779846,12.632465362548828 21.521368622779846,12.632465362548828 19.857092201709747,12.800709903240204 19.857092201709747,12.800709903240204 18.305999040603638,13.28330785036087 18.305999040603638,13.28330785036087 16.901572048664093,14.046497642993927 16.901572048664093,14.046497642993927 15.677432715892792,15.056939423084259 15.677432715892792,15.056939423084259 14.66699093580246,16.28114879131317 14.66699093580246,16.28114879131317 13.903731107711792,17.685507237911224 13.903731107711792,17.685507237911224 13.421203196048737,19.236530363559723 13.421203196048737,19.236530363559723 13.25295865535736,20.900876820087433 13.25295865535736,20.900876820087433 13.269734382629395,21.43045961856842 13.269734382629395,21.43045961856842 13.319364190101624,21.95127308368683 13.319364190101624,21.95127308368683 13.400806486606598,22.46227115392685 13.400806486606598,22.46227115392685 13.513155281543732,22.962410748004913 13.513155281543732,22.962410748004913 13.655157387256622,23.450785875320435 13.655157387256622,23.450785875320435 13.826116919517517,23.926283419132233 13.826116919517517,23.926283419132233 14.024780690670013,24.387790262699127 14.024780690670013,24.387790262699127 14.250174164772034,24.834609031677246 14.250174164772034,24.834609031677246 14.03452605009079,24.893637001514435 14.03452605009079,24.893637001514435 13.817624747753143,24.945008754730225 13.817624747753143,24.945008754730225 13.600166141986847,24.98774826526642 13.600166141986847,24.98774826526642 13.383474946022034,25.020810961723328 13.383474946022034,25.020810961723328 13.168174028396606,25.04308819770813 13.168174028396606,25.04308819770813 12.95517086982727,25.05359947681427 12.95517086982727,25.05359947681427 12.745580077171326,25.05130171775818 12.745580077171326,25.05130171775818 12.540164589881897,25.035083293914795 12.540164589881897,25.035083293914795 11.841291934251785,24.95572865009308 11.841291934251785,24.95572865009308 11.132395267486572,24.881385266780853 11.132395267486572,24.881385266780853 10.410134494304657,24.81706738471985 10.410134494304657,24.81706738471985 9.671168029308319,24.767784774303436 9.671168029308319,24.767784774303436 8.912153542041779,24.738548696041107 8.912153542041779,24.738548696041107 8.129750937223434,24.73437190055847 8.129750937223434,24.73437190055847 7.320617884397507,24.76026713848114 7.320617884397507,24.76026713848114 6.481414288282394,24.821244180202484 6.481414288282394,24.821244180202484 5.568425357341766,24.90059733390808 5.568425357341766,24.90059733390808 4.576917737722397,24.974940717220306 4.576917737722397,24.974940717220306 3.562021255493164,25.03925859928131 3.562021255493164,25.03925859928131 2.578866668045521,25.088542699813843 2.578866668045521,25.088542699813843 1.6825838014483452,25.117778778076172 1.6825838014483452,25.117778778076172 0.9283029474318027,25.121954083442688 0.9283029474318027,25.121954083442688 0.3711540950462222,25.09605884552002 0.3711540950462222,25.09605884552002 0.06626757676713169,25.035083293914795 0.06626757676713169,25.035083293914795 0.0016706111637176946,24.939996004104614 0.0016706111637176946,24.939996004104614 0.09745231363922358,24.822357296943665 0.09745231363922358,24.822357296943665 0.3068355843424797,24.693024158477783 0.3068355843424797,24.693024158477783 0.5830432754009962,24.562856554985046 0.5830432754009962,24.562856554985046 0.8792983368039131,24.44271147251129 0.8792983368039131,24.44271147251129 1.14882355555892,24.343448877334595 1.14882355555892,24.343448877334595 1.344841904938221,24.275928735733032 1.344841904938221,24.275928735733032 1.420576311647892,24.25100803375244 1.420576311647892,24.25100803375244 1.4356118626892567,24.18905645608902 1.4356118626892567,24.18905645608902 1.4740359038114548,24.022692441940308 1.4740359038114548,24.022692441940308 1.5258247964084148,23.781149089336395 1.5258247964084148,23.781149089336395 1.5809549018740654,23.49366545677185 1.5809549018740654,23.49366545677185 1.6294026747345924,23.189474642276764 1.6294026747345924,23.189474642276764 1.661144383251667,22.897814214229584 1.661144383251667,22.897814214229584 1.6661562025547028,22.64791876077652 1.6661562025547028,22.64791876077652 1.6344144940376282,22.46902287006378 1.6344144940376282,22.46902287006378 1.5668939799070358,22.347626090049744 1.5668939799070358,22.347626090049744 1.4818320982158184,22.24627584218979 1.4818320982158184,22.24627584218979 1.3950995169579983,22.158290445804596 1.3950995169579983,22.158290445804596 1.3225670903921127,22.076986730098724 1.3225670903921127,22.076986730098724 1.2801057659089565,21.995683014392853 1.2801057659089565,21.995683014392853 1.283586211502552,21.90769761800766 1.283586211502552,21.90769761800766 1.3488792814314365,21.806347370147705 1.3488792814314365,21.806347370147705 1.4918557368218899,21.684950590133667 1.4918557368218899,21.684950590133667 1.5148266218602657,21.67304754257202 1.5148266218602657,21.67304754257202 1.5753863379359245,21.63650244474411 1.5753863379359245,21.63650244474411 1.6610050573945045,21.57406359910965 1.6610050573945045,21.57406359910965 1.7591534182429314,21.484476327896118 1.7591534182429314,21.484476327896118 1.857301965355873,21.366490423679352 1.857301965355873,21.366490423679352 1.9429206848144531,21.21884971857071 1.9429206848144531,21.21884971857071 2.0034803077578545,21.040233969688416 2.0034803077578545,21.040233969688416 2.0264513790607452,20.829597115516663 2.0264513790607452,20.829597115516663 2.0267296582460403,20.560628175735474 2.0267296582460403,20.560628175735474 2.0219963043928146,20.228177309036255 2.0219963043928146,20.228177309036255 2.003898099064827,19.86231356859207 2.003898099064827,19.86231356859207 1.9640818238258362,19.493107497692108 1.9640818238258362,19.493107497692108 1.894194632768631,19.150632619857788 1.894194632768631,19.150632619857788 1.7858833074569702,18.864957988262177 1.7858833074569702,18.864957988262177 1.6307948157191277,18.666085600852966 1.6307948157191277,18.666085600852966 1.420576311647892,18.584296107292175 1.420576311647892,18.584296107292175 1.201308611780405,18.57183575630188 1.201308611780405,18.57183575630188 1.022970862686634,18.55144053697586 1.022970862686634,18.55144053697586 0.8830571547150612,18.508492410182953 0.8830571547150612,18.508492410182953 0.779061671346426,18.428371846675873 0.779061671346426,18.428371846675873 0.7084783166646957,18.296463787555695 0.7084783166646957,18.296463787555695 0.6688013207167387,18.098147213459015 0.6688013207167387,18.098147213459015 0.6575246807187796,17.818807065486908 0.6575246807187796,17.818807065486908 0.6721425335854292,17.44382530450821 0.6721425335854292,17.44382530450821 0.7641653530299664,16.96832776069641 0.7641653530299664,16.96832776069641 0.9940136224031448,16.41305834054947 0.9940136224031448,16.41305834054947 1.37254623696208,15.801823139190674 1.37254623696208,15.801823139190674 1.9106222316622734,15.158429741859436 1.9106222316622734,15.158429741859436 2.619100548326969,14.506682753562927 2.619100548326969,14.506682753562927 3.5088401287794113,13.870388269424438 3.5088401287794113,13.870388269424438 4.590700194239616,13.273283839225769 4.590700194239616,13.273283839225769 5.875539407134056,12.739384174346924 5.875539407134056,12.739384174346924 7.316441088914871,12.23047450184822 7.316441088914871,12.23047450184822 8.882639557123184,11.701934784650803 8.882639557123184,11.701934784650803 10.60921624302864,11.167547851800919 10.60921624302864,11.167547851800919 12.531253695487976,10.641096532344818 12.531253695487976,10.641096532344818 14.683836698532104,10.13636365532875 14.683836698532104,10.13636365532875 17.102046310901642,9.667130559682846 17.102046310901642,9.667130559682846 19.820965826511383,9.247180819511414 19.820965826511383,9.247180819511414 22.875678539276123,8.890296518802643 22.875678539276123,8.890296518802643 25.75567364692688,8.61889123916626 25.75567364692688,8.61889123916626 27.986633777618408,8.436446636915207 27.986633777618408,8.436446636915207 29.657942056655884,8.32834467291832 29.657942056655884,8.32834467291832 30.858972668647766,8.279966562986374 30.858972668647766,8.279966562986374 31.679102778434753,8.276695013046265 31.679102778434753,8.276695013046265 32.20771253108978,8.303911983966827 32.20771253108978,8.303911983966827 32.53417611122131,8.346930146217346 32.53417611122131,8.346930146217346 32.74787664413452,8.39134007692337 32.74787664413452,8.39134007692337 32.93616771697998,8.432618528604507 32.93616771697998,8.432618528604507 33.12487602233887,8.474314212799072 33.12487602233887,8.474314212799072 33.31108093261719,8.513503521680832 33.31108093261719,8.513503521680832 33.49185585975647,8.547264337539673 33.49185585975647,8.547264337539673 33.66420567035675,8.572671562433243 33.66420567035675,8.572671562433243 33.82542133331299,8.586801588535309 33.82542133331299,8.586801588535309 33.97229611873627,8.586732298135757 33.97229611873627,8.586732298135757 34.10218358039856,8.569538593292236 34.10218358039856,8.569538593292236 34.40289497375488,8.438395708799362 34.40289497375488,8.438395708799362 35.031044483184814,8.12181532382965 35.031044483184814,8.12181532382965 35.936516523361206,7.654879242181778 35.936516523361206,7.654879242181778 37.06918954849243,7.072671502828598 37.06918954849243,7.072671502828598 38.37894797325134,6.410273909568787 38.37894797325134,6.410273909568787 39.81567621231079,5.7027701288461685 39.81567621231079,5.7027701288461685 41.32924973964691,4.985242709517479 41.32924973964691,4.985242709517479 42.869552969932556,4.292774572968483 42.869552969932556,4.292774572968483 44.36231255531311,3.614993765950203 44.36231255531311,3.614993765950203 45.803701877593994,2.93345395475626 45.803701877593994,2.93345395475626 47.249266505241394,2.2711262106895447 47.249266505241394,2.2711262106895447 48.754557967185974,1.650981418788433 48.754557967185974,1.650981418788433 50.37512183189392,1.095990464091301 50.37512183189392,1.095990464091301 52.16650366783142,0.6291243247687817 52.16650366783142,0.6291243247687817 54.1842520236969,0.2732841297984123 54.1842520236969,0.2732841297984123 56.48391842842102,0.05164972972124815 56.48391842842102,0.05164972972124815 59.05846953392029,0.007796184945618734 59.05846953392029,0.007796184945618734 61.8109405040741,0.14854517066851258 61.8109405040741,0.14854517066851258 64.66197967529297,0.4413197748363018 64.66197967529297,0.4413197748363018 67.53222942352295,0.8535430766642094 67.53222942352295,0.8535430766642094 70.34233212471008,1.3526380993425846 70.34233212471008,1.3526380993425846 73.01294803619385,1.9060280174016953 73.01294803619385,1.9060280174016953 75.46470761299133,2.4810662493109703 75.46470761299133,2.4810662493109703 77.61826515197754,3.0453847721219063 77.61826515197754,3.0453847721219063 79.59668636322021,3.5889599472284317 79.59668636322021,3.5889599472284317 81.53083324432373,4.112905263900757 81.53083324432373,4.112905263900757 83.35305452346802,4.600932449102402 83.35305452346802,4.600932449102402 84.99568104743958,5.036753416061401 84.99568104743958,5.036753416061401 86.39106154441833,5.404078960418701 86.39106154441833,5.404078960418701 87.4715268611908,5.686620995402336 87.4715268611908,5.686620995402336 88.16942572593689,5.868091061711311 88.16942572593689,5.868091061711311 88.41709494590759,5.932200700044632 88.41709494590759,5.932200700044632 88.49213123321533,5.861826241016388 88.49213123321533,5.861826241016388 88.69664072990417,5.669914931058884 88.69664072990417,5.669914931058884 88.99971842765808,5.385284498333931 88.99971842765808,5.385284498333931 89.37045335769653,5.036753416061401 89.37045335769653,5.036753416061401 89.77794647216797,4.653139039874077 89.77794647216797,4.653139039874077 90.19128084182739,4.263260215520859 90.19128084182739,4.263260215520859 90.57955741882324,3.8958650082349777 90.57955741882324,3.8958650082349777 90.91187119483948,3.579980507493019 90.91187119483948,3.579980507493019 91.17652773857117,3.3018235117197037 91.17652773857117,3.3018235117197037 91.39857888221741,3.0320199206471443 91.39857888221741,3.0320199206471443 91.6022539138794,2.775581181049347 91.6022539138794,2.775581181049347 91.81177616119385,2.5375191122293472 91.81177616119385,2.5375191122293472 92.05136895179749,2.322845533490181 92.05136895179749,2.322845533490181 92.34525561332703,2.136572450399399 92.34525561332703,2.136572450399399 92.71766543388367,1.9836418330669403 92.71766543388367,1.9836418330669403 93.19281578063965,1.8692746758460999 93.19281578063965,1.8692746758460999 93.78741383552551,1.782333292067051 93.78741383552551,1.782333292067051 94.46804523468018,1.7083391547203064 94.46804523468018,1.7083391547203064 95.18376588821411,1.6468744724988937 95.18376588821411,1.6468744724988937 95.88361382484436,1.5975218266248703 95.88361382484436,1.5975218266248703 96.51663303375244,1.559863518923521 96.51663303375244,1.559863518923521 97.03187942504883,1.5334817580878735 97.03187942504883,1.5334817580878735 97.37839102745056,1.5179590322077274 97.37839102745056,1.5179590322077274 97.50521779060364,1.5128775499761105 97.50521779060364,1.5128775499761105 97.45022654533386,1.5500486828386784 97.45022654533386,1.5500486828386784 97.29917645454407,1.6565501689910889 97.29917645454407,1.6565501689910889 97.07294702529907,1.824864186346531 97.07294702529907,1.824864186346531 96.79242372512817,2.047473192214966 96.79242372512817,2.047473192214966 96.47848606109619,2.3168591782450676 96.47848606109619,2.3168591782450676 96.1520254611969,2.62550450861454 96.1520254611969,2.62550450861454 95.83390951156616,2.965891547501087 95.83390951156616,2.965891547501087 95.54503560066223,3.3305026590824127 95.54503560066223,3.3305026590824127 95.25942802429199,3.7550464272499084 95.25942802429199,3.7550464272499084 94.9508547782898,4.254350438714027 94.9508547782898,4.254350438714027 94.63970065116882,4.789572581648827 94.63970065116882,4.789572581648827 94.34664845466614,5.321871116757393 94.34664845466614,5.321871116757393 94.09195184707642,5.812404304742813 94.09195184707642,5.812404304742813 93.8961386680603,6.222330406308174 93.8961386680603,6.222330406308174 93.77968311309814,6.512738019227982 93.77968311309814,6.512738019227982 93.76304745674133,6.644994765520096 93.76304745674133,6.644994765520096 93.83599758148193,6.642071157693863 93.83599758148193,6.642071157693863 93.96575093269348,6.568146497011185 93.96575093269348,6.568146497011185 94.13893818855286,6.445774435997009 94.13893818855286,6.445774435997009 94.34219598770142,6.297507882118225 94.34219598770142,6.297507882118225 94.56216096878052,6.145899742841721 94.56216096878052,6.145899742841721 94.78546380996704,6.013504043221474 94.78546380996704,6.013504043221474 94.99874711036682,5.922803655266762 94.99874711036682,5.922803655266762 95.18863558769226,5.896561220288277 95.18863558769226,5.896561220288277 95.3654408454895,5.919740721583366 95.3654408454895,5.919740721583366 95.54725885391235,5.968397483229637 95.54725885391235,5.968397483229637 95.7324206829071,6.051301583647728 95.7324206829071,6.051301583647728 95.91925144195557,6.177223846316338 95.91925144195557,6.177223846316338 96.10608220100403,6.354934722185135 96.10608220100403,6.354934722185135 96.2912380695343,6.593205779790878 96.2912380695343,6.593205779790878 96.47305607795715,6.900807470083237 96.47305607795715,6.900807470083237 96.64986729621887,7.286509871482849 96.64986729621887,7.286509871482849 96.82395458221436,7.7572740614414215 96.82395458221436,7.7572740614414215 97.00013399124146,8.292774111032486 97.00013399124146,8.292774111032486 97.18042612075806,8.8608518242836 97.18042612075806,8.8608518242836 97.36711382865906,9.429346770048141 97.36711382865906,9.429346770048141 97.56208658218384,9.966100007295609 97.56208658218384,9.966100007295609 97.76750206947327,10.438952594995499 97.76750206947327,10.438952594995499 97.98544645309448,10.815675556659698 97.98544645309448,10.815675556659698 98.2180118560791,11.06431856751442 98.2180118560791,11.06431856751442 98.4667956829071,11.228594928979874 98.4667956829071,11.228594928979874 98.724764585495,11.376165598630905 98.724764585495,11.376165598630905 98.98106455802917,11.510371416807175 98.98106455802917,11.510371416807175 99.22483563423157,11.634553223848343 99.22483563423157,11.634553223848343 99.4452178478241,11.75205335021019 99.4452178478241,11.75205335021019 99.63135123252869,11.866211891174316 99.63135123252869,11.866211891174316 99.77237582206726,11.980300396680832 99.77237582206726,11.980300396680832 99.85743761062622,12.09786981344223 99.85743761062622,12.09786981344223 99.90449547767639,12.215995788574219 99.90449547767639,12.215995788574219 99.93985295295715,12.327857315540314 99.93985295295715,12.327857315540314 99.96519088745117,12.430530041456223 99.96519088745117,12.430530041456223 99.98217821121216,12.521091103553772 99.98217821121216,12.521091103553772 99.99247789382935,12.59661614894867 99.99247789382935,12.59661614894867 99.9977707862854,12.654183804988861 99.9977707862854,12.654183804988861 99.99971985816956,12.690867483615875 99.99971985816956,12.690867483615875 100.0,12.703745067119598 100.0,12.703745067119598 99.18028116226196,12.881943583488464 99.18028116226196,12.881943583488464 99.19539093971252,12.943407893180847 99.19539093971252,12.943407893180847 99.2343008518219,13.113044202327728 99.2343008518219,13.113044202327728 99.28734302520752,13.368716835975647 99.28734302520752,13.368716835975647 99.3451178073883,13.688291609287262 99.3451178073883,13.688291609287262 99.39781427383423,14.049631357192993 99.39781427383423,14.049631357192993 99.43588972091675,14.43059891462326 99.43588972091675,14.43059891462326 99.44974184036255,14.80899304151535 99.44974184036255,14.80899304151535 99.42976236343384,15.162883698940277 99.42976236343384,15.162883698940277 99.3929386138916,15.499860048294067 99.3929386138916,15.499860048294067 99.36237931251526,15.833912789821625 99.36237931251526,15.833912789821625 99.33760166168213,16.152094304561615 99.33760166168213,16.152094304561615 99.31838512420654,16.441458463668823 99.31838512420654,16.441458463668823 99.30411577224731,16.689057648181915 99.30411577224731,16.689057648181915 99.29444193840027,16.881942749023438 99.29444193840027,16.881942749023438 99.2889404296875,17.007169127464294 99.2889404296875,17.007169127464294" stroke="white" stroke-width="0.1" /><polygon points="28.649309277534485,20.900876820087433 28.649309277534485,20.900876820087433 28.504523634910583,22.33739346265793 28.504523634910583,22.33739346265793 28.089168667793274,23.67541342973709 28.089168667793274,23.67541342973709 27.431991696357727,24.88618940114975 27.431991696357727,24.88618940114975 26.56160295009613,25.941109657287598 26.56160295009613,25.941109657287598 25.506681203842163,26.811498403549194 25.506681203842163,26.811498403549194 24.295836687088013,27.46867537498474 24.295836687088013,27.46867537498474 22.95788675546646,27.88396179676056 22.95788675546646,27.88396179676056 21.521368622779846,28.028815984725952 21.521368622779846,28.028815984725952 20.54503560066223,27.96247899532318 20.54503560066223,27.96247899532318 19.60921585559845,27.769246697425842 19.60921585559845,27.769246697425842 18.72267872095108,27.457815408706665 18.72267872095108,27.457815408706665 17.8940549492836,27.037101984024048 17.8940549492836,27.037101984024048 17.132046818733215,26.51573121547699 17.132046818733215,26.51573121547699 16.445356607437134,25.90261697769165 16.445356607437134,25.90261697769165 15.842753648757935,25.206458568572998 15.842753648757935,25.206458568572998 15.332868695259094,24.43602830171585 15.332868695259094,24.43602830171585 15.121188759803772,24.03765767812729 15.121188759803772,24.03765767812729 14.93435800075531,23.624947667121887 14.93435800075531,23.624947667121887 14.773353934288025,23.198802769184113 14.773353934288025,23.198802769184113 14.639425277709961,22.760197520256042 14.639425277709961,22.760197520256042 14.53334242105484,22.310176491737366 14.53334242105484,22.310176491737366 14.456285536289215,21.849574148654938 14.456285536289215,21.849574148654938 14.409299194812775,21.379506587982178 14.409299194812775,21.379506587982178 14.393427968025208,20.900876820087433 14.393427968025208,20.900876820087433 14.538215100765228,19.464290142059326 14.538215100765228,19.464290142059326 14.953570067882538,18.126338720321655 14.953570067882538,18.126338720321655 15.610747039318085,16.915564239025116 15.610747039318085,16.915564239025116 16.48113578557968,15.860642492771149 16.48113578557968,15.860642492771149 17.53605753183365,14.990253746509552 17.53605753183365,14.990253746509552 18.7469020485878,14.333078265190125 18.7469020485878,14.333078265190125 20.08485198020935,13.917721807956696 20.08485198020935,13.917721807956696 21.521368622779846,13.772936165332794 21.521368622779846,13.772936165332794 22.936934232711792,13.91354501247406 22.936934232711792,13.91354501247406 24.257203936576843,14.317137002944946 24.257203936576843,14.317137002944946 25.45468509197235,14.956215023994446 25.45468509197235,14.956215023994446 26.502156257629395,15.803425014019012 26.502156257629395,15.803425014019012 27.372267842292786,16.83133691549301 27.372267842292786,16.83133691549301 28.03758680820465,18.012598156929016 28.03758680820465,18.012598156929016 28.470972180366516,19.31971311569214 28.470972180366516,19.31971311569214 28.644853830337524,20.725323259830475 28.644853830337524,20.725323259830475 28.645411133766174,20.74718028306961 28.645411133766174,20.74718028306961 28.646177053451538,20.769107341766357 28.646177053451538,20.769107341766357 28.646942973136902,20.791034400463104 28.646942973136902,20.791034400463104 28.647640347480774,20.81295996904373 28.647640347480774,20.81295996904373 28.648266196250916,20.83488702774048 28.648266196250916,20.83488702774048 28.648751974105835,20.856814086437225 28.648751974105835,20.856814086437225 28.6491721868515,20.878811180591583 28.6491721868515,20.878811180591583" stroke="white" stroke-width="0.1" /><polygon points="84.69873070716858,20.900876820087433 84.69873070716858,20.900876820087433 84.68515872955322,21.343588829040527 84.68515872955322,21.343588829040527 84.64492559432983,21.779130399227142 84.64492559432983,21.779130399227142 84.57879424095154,22.20652848482132 84.57879424095154,22.20652848482132 84.48781371116638,22.62529581785202 84.48781371116638,22.62529581785202 84.37254428863525,23.034386336803436 84.37254428863525,23.034386336803436 84.23409461975098,23.433174192905426 84.23409461975098,23.433174192905426 84.07308459281921,23.820964992046356 84.07308459281921,23.820964992046356 83.8904321193695,24.19685274362564 83.8904321193695,24.19685274362564 83.38987827301025,25.015243887901306 83.38987827301025,25.015243887901306 82.78720378875732,25.75622797012329 82.78720378875732,25.75622797012329 82.0922315120697,26.409924030303955 82.0922315120697,26.409924030303955 81.31449222564697,26.966726779937744 81.31449222564697,26.966726779937744 80.46373128890991,27.41674780845642 80.46373128890991,27.41674780845642 79.54976558685303,27.75024175643921 79.54976558685303,27.75024175643921 78.58227491378784,27.9575377702713 78.58227491378784,27.9575377702713 77.57079005241394,28.028815984725952 77.57079005241394,28.028815984725952 76.67325139045715,27.972853183746338 76.67325139045715,27.972853183746338 75.80919861793518,27.809271216392517 75.80919861793518,27.809271216392517 74.9853789806366,27.545034885406494 74.9853789806366,27.545034885406494 74.20854568481445,27.18682885169983 74.20854568481445,27.18682885169983 73.4854519367218,26.741471886634827 73.4854519367218,26.741471886634827 72.82277345657349,26.21571719646454 72.82277345657349,26.21571719646454 72.22726941108704,25.616315007209778 72.22726941108704,25.616315007209778 71.7056930065155,24.950160086154938 71.7056930065155,24.950160086154938 71.42301201820374,24.507656693458557 71.42301201820374,24.507656693458557 71.172696352005,24.04378354549408 71.172696352005,24.04378354549408 70.95649242401123,23.560211062431335 70.95649242401123,23.560211062431335 70.77592611312866,23.05833101272583 70.77592611312866,23.05833101272583 70.63260078430176,22.539955377578735 70.63260078430176,22.539955377578735 70.52832841873169,22.00654298067093 70.52832841873169,22.00654298067093 70.46449780464172,21.45962566137314 70.46449780464172,21.45962566137314 70.4428493976593,20.900876820087433 70.4428493976593,20.900876820087433 70.58770656585693,19.464290142059326 70.58770656585693,19.464290142059326 71.00299000740051,18.126338720321655 71.00299000740051,18.126338720321655 71.66023850440979,16.915564239025116 71.66023850440979,16.915564239025116 72.53055572509766,15.860642492771149 72.53055572509766,15.860642492771149 73.58554601669312,14.990253746509552 73.58554601669312,14.990253746509552 74.79625344276428,14.333078265190125 74.79625344276428,14.333078265190125 76.1342704296112,13.917721807956696 76.1342704296112,13.917721807956696 77.57079005241394,13.772936165332794 77.57079005241394,13.772936165332794 79.00737524032593,13.917721807956696 79.00737524032593,13.917721807956696 80.3453266620636,14.333078265190125 80.3453266620636,14.333078265190125 81.55609965324402,14.990323781967163 81.55609965324402,14.990323781967163 82.61102437973022,15.860642492771149 82.61102437973022,15.860642492771149 83.48134160041809,16.915564239025116 83.48134160041809,16.915564239025116 84.13859009742737,18.126408755779266 84.13859009742737,18.126408755779266 84.55394506454468,19.464360177516937 84.55394506454468,19.464360177516937" stroke="white" stroke-width="0.1" /><polygon points="2.683001384139061,15.707643330097198 2.683001384139061,15.707643330097198 3.1733259558677673,15.915703773498535 3.1733259558677673,15.915703773498535 3.8746345788240433,16.035500168800354 3.8746345788240433,16.035500168800354 4.701865464448929,16.08561873435974 4.701865464448929,16.08561873435974 5.569817498326302,16.084852814674377 5.569817498326302,16.084852814674377 6.393150240182877,16.05178862810135 6.393150240182877,16.05178862810135 7.086732238531113,16.005080938339233 7.086732238531113,16.005080938339233 7.565362751483917,15.963315963745117 7.565362751483917,15.963315963745117 7.7438391745090485,15.945287048816681 7.7438391745090485,15.945287048816681 7.82569944858551,15.853054821491241 7.82569944858551,15.853054821491241 8.037866652011871,15.604133903980255 8.037866652011871,15.604133903980255 8.330223709344864,15.23987203836441 8.330223709344864,15.23987203836441 8.6526520550251,14.801892638206482 8.6526520550251,14.801892638206482 8.955032378435135,14.331546425819397 8.955032378435135,14.331546425819397 9.187247604131699,13.87045830488205 9.187247604131699,13.87045830488205 9.299178421497345,13.459904491901398 9.299178421497345,13.459904491901398 9.240707010030746,13.141584396362305 9.240707010030746,13.141584396362305 9.063204377889633,12.92259395122528 9.063204377889633,12.92259395122528 8.844980597496033,12.779965996742249 8.844980597496033,12.779965996742249 8.576638996601105,12.709730863571167 8.576638996601105,12.709730863571167 8.24878141283989,12.707921862602234 8.24878141283989,12.707921862602234 7.851872593164444,12.770847976207733 7.851872593164444,12.770847976207733 7.376305013895035,12.894333899021149 7.376305013895035,12.894333899021149 6.812891364097595,13.074760138988495 6.812891364097595,13.074760138988495 6.152025610208511,13.307948410511017 6.152025610208511,13.307948410511017 5.445357039570808,13.600236177444458 5.445357039570808,13.600236177444458 4.767158254981041,13.94389420747757 4.767158254981041,13.94389420747757 4.1423499584198,14.314353466033936 4.1423499584198,14.314353466033936 3.5955727100372314,14.687038958072662 3.5955727100372314,14.687038958072662 3.1514685600996017,15.037240087985992 3.1514685600996017,15.037240087985992 2.8348878026008606,15.340594947338104 2.8348878026008606,15.340594947338104 2.670471929013729,15.572184324264526 2.670471929013729,15.572184324264526" stroke="white" stroke-width="0.1" /><polygon points="2.469163201749325,17.32340157032013 2.469163201749325,17.32340157032013 2.5321591645479202,17.51510500907898 2.5321591645479202,17.51510500907898 2.8040511533617973,17.654183506965637 2.8040511533617973,17.654183506965637 3.2217733561992645,17.75483787059784 3.2217733561992645,17.75483787059784 3.7224695086479187,17.831267416477203 3.7224695086479187,17.831267416477203 4.243282601237297,17.897604405879974 4.243282601237297,17.897604405879974 4.721147194504738,17.968258261680603 4.721147194504738,17.968258261680603 5.093275755643845,18.057218194007874 5.093275755643845,18.057218194007874 5.296672508120537,18.178755044937134 5.296672508120537,18.178755044937134 5.353403836488724,18.37240606546402 5.353403836488724,18.37240606546402 5.33607117831707,18.649867177009583 5.33607117831707,18.649867177009583 5.257413163781166,18.983571231365204 5.257413163781166,18.983571231365204 5.130307376384735,19.345955550670624 5.130307376384735,19.345955550670624 4.967562109231949,19.709382951259613 4.967562109231949,19.709382951259613 4.782054573297501,20.046497881412506 4.782054573297501,20.046497881412506 4.5864541083574295,20.32952755689621 4.5864541083574295,20.32952755689621 4.39370721578598,20.530974864959717 4.39370721578598,20.530974864959717 4.193790629506111,20.67088931798935 4.193790629506111,20.67088931798935 3.974592685699463,20.79012840986252 3.974592685699463,20.79012840986252 3.7459973245859146,20.892663300037384 3.7459973245859146,20.892663300037384 3.51761095225811,20.98245769739151 3.51761095225811,20.98245769739151 3.299317881464958,21.063274145126343 3.299317881464958,21.063274145126343 3.100723773241043,21.139077842235565 3.100723773241043,21.139077842235565 2.9317136853933334,21.213698387145996 2.9317136853933334,21.213698387145996 2.8018932789564133,21.29124253988266 2.8018932789564133,21.29124253988266 2.704719454050064,21.39955461025238 2.704719454050064,21.39955461025238 2.6259222999215126,21.552275121212006 2.6259222999215126,21.552275121212006 2.5638312101364136,21.731100976467133 2.5638312101364136,21.731100976467133 2.5167755782604218,21.917930245399475 2.5167755782604218,21.917930245399475 2.483084984123707,22.09487557411194 2.483084984123707,22.09487557411194 2.4610886350274086,22.24356085062027 2.4610886350274086,22.24356085062027 2.449115924537182,22.346024215221405 2.449115924537182,22.346024215221405 2.4454962462186813,22.384239733219147 2.4454962462186813,22.384239733219147 3.1106779351830482,22.384239733219147 3.1106779351830482,22.384239733219147 3.111095540225506,22.37442582845688 3.111095540225506,22.37442582845688 3.1136710196733475,22.346024215221405 3.1136710196733475,22.346024215221405 3.1207015737891197,22.300291061401367 3.1207015737891197,22.300291061401367 3.134484216570854,22.23868817090988 3.134484216570854,22.23868817090988 3.157106786966324,22.162675857543945 3.157106786966324,22.162675857543945 3.190867230296135,22.07350581884384 3.190867230296135,22.07350581884384 3.2380618155002594,21.972642838954926 3.2380618155002594,21.972642838954926 3.300848975777626,21.861477196216583 3.300848975777626,21.861477196216583 3.3973965793848038,21.751634776592255 3.3973965793848038,21.751634776592255 3.538493439555168,21.65132910013199 3.538493439555168,21.65132910013199 3.7151608616113663,21.556591987609863 3.7151608616113663,21.556591987609863 3.9185576140880585,21.46352380514145 3.9185576140880585,21.46352380514145 4.139774292707443,21.368229389190674 4.139774292707443,21.368229389190674 4.3699707835912704,21.266810595989227 4.3699707835912704,21.266810595989227 4.600097239017487,21.15529626607895 4.600097239017487,21.15529626607895 4.821383580565453,21.02993130683899 4.821383580565453,21.02993130683899 5.031323805451393,20.86314857006073 5.031323805451393,20.86314857006073 5.231240391731262,20.63566744327545 5.231240391731262,20.63566744327545 5.4177917540073395,20.355840027332306 5.4177917540073395,20.355840027332306 5.587637424468994,20.032019913196564 5.587637424468994,20.032019913196564 5.737435445189476,19.672490656375885 5.737435445189476,19.672490656375885 5.8638449758291245,19.285812973976135 5.8638449758291245,19.285812973976135 5.963524803519249,18.88013333082199 5.963524803519249,18.88013333082199 6.033133715391159,18.463872373104095 6.033133715391159,18.463872373104095 6.017680466175079,18.091048300266266 6.017680466175079,18.091048300266266 5.882430449128151,17.8023099899292 5.882430449128151,17.8023099899292 5.654740333557129,17.585965991020203 5.654740333557129,17.585965991020203 5.361965671181679,17.430320382118225 5.361965671181679,17.430320382118225 5.031254142522812,17.323750257492065 5.031254142522812,17.323750257492065 4.689962416887283,17.25434958934784 4.689962416887283,17.25434958934784 4.365446045994759,17.210635542869568 4.365446045994759,17.210635542869568 4.08492274582386,17.18084365129471 4.08492274582386,17.18084365129471 3.8286231458187103,17.151886224746704 3.8286231458187103,17.151886224746704 3.5658497363328934,17.123137414455414 3.5658497363328934,17.123137414455414 3.3076010644435883,17.100931704044342 3.3076010644435883,17.100931704044342 3.064875304698944,17.092230916023254 3.064875304698944,17.092230916023254 2.8488095849752426,17.103438079357147 2.8488095849752426,17.103438079357147 2.6700541377067566,17.141304910182953 2.6700541377067566,17.141304910182953 2.53988578915596,17.21237599849701 2.53988578915596,17.21237599849701" stroke="white" stroke-width="0.1" /><polygon points="44.97549533843994,6.251287460327148 44.97549533843994,6.251287460327148 45.0150340795517,6.262286007404327 45.0150340795517,6.262286007404327 45.12251019477844,6.294723600149155 45.12251019477844,6.294723600149155 45.281147956848145,6.347835063934326 45.281147956848145,6.347835063934326 45.474451780319214,6.420575827360153 45.474451780319214,6.420575827360153 45.685505867004395,6.512390077114105 45.685505867004395,6.512390077114105 45.897674560546875,6.622232496738434 45.897674560546875,6.622232496738434 46.094247698783875,6.749268621206284 46.094247698783875,6.749268621206284 46.25852704048157,6.892802566289902 46.25852704048157,6.892802566289902 46.38298749923706,7.07002654671669 46.38298749923706,7.07002654671669 46.47459089756012,7.285952568054199 46.47459089756012,7.285952568054199 46.538352966308594,7.521370053291321 46.538352966308594,7.521370053291321 46.579283475875854,7.757065445184708 46.579283475875854,7.757065445184708 46.60239219665527,7.973826676607132 46.60239219665527,7.973826676607132 46.61276638507843,8.152512460947037 46.61276638507843,8.152512460947037 46.615201234817505,8.27363207936287 46.615201234817505,8.27363207936287 46.6149240732193,8.31839069724083 46.6149240732193,8.31839069724083 63.912010192871094,7.890713959932327 63.912010192871094,7.890713959932327 63.90693187713623,7.675274461507797 63.90693187713623,7.675274461507797 63.89349699020386,7.107406109571457 63.89349699020386,7.107406109571457 63.87442350387573,6.304468959569931 63.87442350387573,6.304468959569931 63.85263800621033,5.384031683206558 63.85263800621033,5.384031683206558 63.830846548080444,4.463664069771767 63.830846548080444,4.463664069771767 63.81177306175232,3.660726547241211 63.81177306175232,3.660726547241211 63.798344135284424,3.0927885323762894 63.798344135284424,3.0927885323762894 63.79325985908508,2.8773492202162743 63.79325985908508,2.8773492202162743 63.54447603225708,2.8294583782553673 63.54447603225708,2.8294583782553673 62.84950375556946,2.7080606669187546 62.84950375556946,2.7080606669187546 61.785948276519775,2.546568214893341 61.785948276519775,2.546568214893341 60.43122410774231,2.3783933371305466 60.43122410774231,2.3783933371305466 58.86259078979492,2.236948348581791 58.86259078979492,2.236948348581791 57.157593965530396,2.155575528740883 57.157593965530396,2.155575528740883 55.39349913597107,2.167966030538082 55.39349913597107,2.167966030538082 53.647780418395996,2.307114005088806 53.647780418395996,2.307114005088806 51.96540355682373,2.6403313502669334 51.96540355682373,2.6403313502669334 50.368231534957886,3.1639982014894485 50.368231534957886,3.1639982014894485 48.89906644821167,3.8056522607803345 48.89906644821167,3.8056522607803345 47.60093092918396,4.493039101362228 47.60093092918396,4.493039101362228 46.51663601398468,5.153696238994598 46.51663601398468,5.153696238994598 45.68898677825928,5.715230107307434 45.68898677825928,5.715230107307434 45.16100287437439,6.105178594589233 45.16100287437439,6.105178594589233" stroke="white" stroke-width="0.1" /><polygon points="70.61227560043335,5.134623125195503 70.61227560043335,5.134623125195503 70.13810276985168,4.797438159584999 70.13810276985168,4.797438159584999 69.37567591667175,4.4555895030498505 69.37567591667175,4.4555895030498505 68.43338012695312,4.1243210434913635 68.43338012695312,4.1243210434913635 67.41960048675537,3.818877786397934 67.41960048675537,3.818877786397934 66.44257307052612,3.554712235927582 66.44257307052612,3.554712235927582 65.61053395271301,3.3469997346401215 65.61053395271301,3.3469997346401215 65.03194570541382,3.211193159222603 65.03194570541382,3.211193159222603 64.81497883796692,3.162466734647751 64.81497883796692,3.162466734647751 64.81908559799194,3.3625923097133636 64.81908559799194,3.3625923097133636 64.82980251312256,3.8901571184396744 64.82980251312256,3.8901571184396744 64.8450493812561,4.635945707559586 64.8450493812561,4.635945707559586 64.86245393753052,5.490950867533684 64.86245393753052,5.490950867533684 64.87985253334045,6.345955282449722 64.87985253334045,6.345955282449722 64.895099401474,7.091813534498215 64.895099401474,7.091813534498215 64.90588784217834,7.619309425354004 64.90588784217834,7.619309425354004 64.90992307662964,7.819434255361557 64.90992307662964,7.819434255361557 65.08116126060486,7.817485183477402 65.08116126060486,7.817485183477402 65.54030179977417,7.808297127485275 65.54030179977417,7.808297127485275 66.20548367500305,7.786857336759567 66.20548367500305,7.786857336759567 66.99484586715698,7.748155295848846 66.99484586715698,7.748155295848846 67.82646179199219,7.687177509069443 67.82646179199219,7.687177509069443 68.6186134815216,7.598914206027985 68.6186134815216,7.598914206027985 69.28943395614624,7.478281855583191 69.28943395614624,7.478281855583191 69.75692510604858,7.320478558540344 69.75692510604858,7.320478558540344 70.0851321220398,7.126200199127197 70.0851321220398,7.126200199127197 70.38180232048035,6.902129948139191 70.38180232048035,6.902129948139191 70.63114047050476,6.65188655257225 70.63114047050476,6.65188655257225 70.81720232963562,6.379019469022751 70.81720232963562,6.379019469022751 70.92426419258118,6.087359040975571 70.92426419258118,6.087359040975571 70.93637585639954,5.780244991183281 70.93637585639954,5.780244991183281 70.83767056465149,5.46143651008606 70.83767056465149,5.46143651008606" stroke="white" stroke-width="0.1" /><polygon points="56.950438022613525,17.67979860305786 56.950438022613525,17.67979860305786 57.18376636505127,17.68300086259842 57.18376636505127,17.68300086259842 57.819151878356934,17.692050337791443 57.819151878356934,17.692050337791443 58.75964164733887,17.706111073493958 58.75964164733887,17.706111073493958 59.90853309631348,17.724348604679108 59.90853309631348,17.724348604679108 61.16873025894165,17.74599701166153 61.16873025894165,17.74599701166153 62.44340538978577,17.770011723041534 62.44340538978577,17.770011723041534 63.63566517829895,17.79576689004898 63.63566517829895,17.79576689004898 64.64861035346985,17.822358012199402 64.64861035346985,17.822358012199402 65.37031531333923,17.932896316051483 65.37031531333923,17.932896316051483 65.788733959198,18.18578541278839 65.788733959198,18.18578541278839 65.95711708068848,18.542808294296265 65.95711708068848,18.542808294296265 65.92872142791748,18.965820968151093 65.92872142791748,18.965820968151093 65.75657725334167,19.416607916355133 65.75657725334167,19.416607916355133 65.4940128326416,19.85716223716736 65.4940128326416,19.85716223716736 65.19407033920288,20.249198377132416 65.19407033920288,20.249198377132416 64.90992307662964,20.554642379283905 64.90992307662964,20.554642379283905 64.35472369194031,20.80077975988388 64.35472369194031,20.80077975988388 63.31984996795654,21.035778522491455 63.31984996795654,21.035778522491455 61.97591423988342,21.252958476543427 61.97591423988342,21.252958476543427 60.49352288246155,21.445564925670624 60.49352288246155,21.445564925670624 59.04350280761719,21.607127785682678 59.04350280761719,21.607127785682678 57.79646039009094,21.730682253837585 57.79646039009094,21.730682253837585 56.92307949066162,21.8098983168602 56.92307949066162,21.8098983168602 56.594038009643555,21.837671101093292 56.594038009643555,21.837671101093292 56.76228404045105,21.837393939495087 56.76228404045105,21.837393939495087 57.22706317901611,21.83544486761093 57.22706317901611,21.83544486761093 57.92844295501709,21.830153465270996 57.92844295501709,21.830153465270996 58.80669355392456,21.81985229253769 58.80669355392456,21.81985229253769 59.801894426345825,21.80286794900894 59.801894426345825,21.80286794900894 60.854166746139526,21.777459979057312 60.854166746139526,21.777459979057312 61.903661489486694,21.742238104343414 61.903661489486694,21.742238104343414 62.89043426513672,21.69511318206787 62.89043426513672,21.69511318206787 63.76667022705078,21.600723266601562 63.76667022705078,21.600723266601562 64.52728509902954,21.429625153541565 64.52728509902954,21.429625153541565 65.1770830154419,21.19017094373703 65.1770830154419,21.19017094373703 65.72079658508301,20.89029550552368 65.72079658508301,20.89029550552368 66.16322994232178,20.538005232810974 66.16322994232178,20.538005232810974 66.50897860527039,20.141513645648956 66.50897860527039,20.141513645648956 66.76291227340698,19.708825647830963 66.76291227340698,19.708825647830963 66.92955493927002,19.24794614315033 66.92955493927002,19.24794614315033 66.99944138526917,18.80822777748108 66.99944138526917,18.80822777748108 66.9633150100708,18.430112302303314 66.9633150100708,18.430112302303314 66.82632565498352,18.108171224594116 66.82632565498352,18.108171224594116 66.59390330314636,17.83718466758728 66.59390330314636,17.83718466758728 66.27126336097717,17.611929774284363 66.27126336097717,17.611929774284363 65.86370468139648,17.426979541778564 65.86370468139648,17.426979541778564 65.37651419639587,17.27704256772995 65.37651419639587,17.27704256772995 64.81497883796692,17.157037556171417 64.81497883796692,17.157037556171417 64.02004361152649,17.09759086370468 64.02004361152649,17.09759086370468 62.91458606719971,17.11847335100174 62.91458606719971,17.11847335100174 61.627036333084106,17.197200655937195 61.627036333084106,17.197200655937195 60.28581261634827,17.311498522758484 60.28581261634827,17.311498522758484 59.019142389297485,17.439301311969757 59.019142389297485,17.439301311969757 57.95544981956482,17.558053135871887 57.95544981956482,17.558053135871887 57.22309350967407,17.645621299743652 57.22309350967407,17.645621299743652" stroke="white" stroke-width="0.1" /></svg>