<?xml version="1.0" encoding="utf-8" ?>
<svg baseProfile="full" height="72.10333347320557" version="1.1" width="99.99675154685974" xmlns="http://www.w3.org/2000/svg" xmlns:ev="http://www.w3.org/2001/xml-events" xmlns:xlink="http://www.w3.org/1999/xlink"><defs><clipPath /></defs><polygon points="74.53957200050354,63.44218850135803 74.53957200050354,63.44218850135803 25.04591941833496,63.44218850135803 25.04591941833496,63.44218850135803 24.84811544418335,63.529813289642334 24.84811544418335,63.529813289642334 24.726100265979767,63.76535892486572 24.726100265979767,63.76535892486572 24.664433300495148,64.10783529281616 24.664433300495148,64.10783529281616 24.647873640060425,64.5160436630249 24.647873640060425,64.5160436630249 24.660876393318176,64.94904160499573 24.660876393318176,64.94904160499573 24.688103795051575,65.36577939987183 24.688103795051575,65.36577939987183 24.714316427707672,65.7251238822937 24.714316427707672,65.7251238822937 24.724069237709045,65.98612070083618 24.724069237709045,65.98612070083618 24.67631995677948,66.75665974617004 24.67631995677948,66.75665974617004 24.559281766414642,67.50444769859314 24.559281766414642,67.50444769859314 24.36787784099579,68.2225227355957 24.36787784099579,68.2225227355957 24.097229540348053,68.90391707420349 24.097229540348053,68.90391707420349 23.74235987663269,69.54172849655151 23.74235987663269,69.54172849655151 23.298391699790955,70.12904286384583 23.298391699790955,70.12904286384583 22.76034653186798,70.6588625907898 22.76034653186798,70.6588625907898 22.123245894908905,71.12436890602112 22.123245894908905,71.12436890602112 21.176181733608246,71.5855062007904 21.176181733608246,71.5855062007904 20.12305110692978,71.8809962272644 20.12305110692978,71.8809962272644 18.995147943496704,72.04288244247437 18.995147943496704,72.04288244247437 17.822949588298798,72.10333347320557 17.822949588298798,72.10333347320557 16.63784831762314,72.09439277648926 16.63784831762314,72.09439277648926 15.470321476459503,72.04831838607788 15.470321476459503,72.04831838607788 14.351765811443329,71.99711799621582 14.351765811443329,71.99711799621582 13.312959671020508,71.97288870811462 13.312959671020508,71.97288870811462 12.277913838624954,71.98441624641418 12.277913838624954,71.98441624641418 11.232098937034607,72.01210260391235 11.232098937034607,72.01210260391235 10.179273784160614,72.04552888870239 10.179273784160614,72.04552888870239 9.123197942972183,72.07427620887756 9.123197942972183,72.07427620887756 8.067629486322403,72.08804488182068 8.067629486322403,72.08804488182068 7.016734778881073,72.07641005516052 7.016734778881073,72.07641005516052 5.973967537283897,72.02906608581543 5.973967537283897,72.02906608581543 4.943188279867172,71.93549871444702 4.943188279867172,71.93549871444702 2.829613536596298,71.24765515327454 2.829613536596298,71.24765515327454 1.401599496603012,69.88013982772827 1.401599496603012,69.88013982772827 0.5360132548958063,68.00094246864319 0.5360132548958063,68.00094246864319 0.10972219752147794,65.77825546264648 0.10972219752147794,65.77825546264648 -0.0005079731636215001,63.38006258010864 -0.0005079731636215001,63.38006258010864 0.0819868640974164,60.97447872161865 0.0819868640974164,60.97447872161865 0.2343788044527173,58.729541301727295 0.2343788044527173,58.729541301727295 0.3332303836941719,56.81334137916565 0.3332303836941719,56.81334137916565 0.6794648710638285,38.162192702293396 0.6794648710638285,38.162192702293396 0.7216266356408596,37.72457540035248 0.7216266356408596,37.72457540035248 0.8195638656616211,37.287336587905884 0.8195638656616211,37.287336587905884 0.9537703357636929,36.85263991355896 0.9537703357636929,36.85263991355896 1.1053496040403843,36.422690749168396 1.1053496040403843,36.422690749168396 1.2546936981379986,35.99967658519745 1.2546936981379986,35.99967658519745 1.3826013542711735,35.5857789516449 1.3826013542711735,35.5857789516449 1.4698711223900318,35.18321216106415 1.4698711223900318,35.18321216106415 1.4970984309911728,34.79412794113159 1.4970984309911728,34.79412794113159 1.3898145407438278,30.271947383880615 1.3898145407438278,30.271947383880615 1.52869438752532,29.476919770240784 1.52869438752532,29.476919770240784 1.9393399357795715,28.847438097000122 1.9393399357795715,28.847438097000122 2.548602782189846,28.33598554134369 2.548602782189846,28.33598554134369 3.283335268497467,27.895039319992065 3.283335268497467,27.895039319992065 4.070388898253441,27.47713029384613 4.070388898253441,27.47713029384613 4.836717247962952,27.034685015678406 4.836717247962952,27.034685015678406 5.509070307016373,26.52023732662201 5.509070307016373,26.52023732662201 6.014402210712433,25.886312127113342 6.014402210712433,25.886312127113342 4.663396626710892,25.74494183063507 4.663396626710892,25.74494183063507 3.4345079213380814,25.306129455566406 3.4345079213380814,25.306129455566406 2.3579098284244537,24.611781537532806 2.3579098284244537,24.611781537532806 1.4633690007030964,23.703855276107788 1.4633690007030964,23.703855276107788 0.781161105260253,22.62423485517502 0.781161105260253,22.62423485517502 0.3413579659536481,21.414902806282043 0.3413579659536481,21.414902806282043 0.17372681759297848,20.11774331331253 0.17372681759297848,20.11774331331253 0.3088476834818721,18.774686753749847 0.3088476834818721,18.774686753749847 0.7246744818985462,17.51585453748703 0.7246744818985462,17.51585453748703 1.344096940010786,16.504961252212524 1.344096940010786,16.504961252212524 2.1374493837356567,15.71734994649887 2.1374493837356567,15.71734994649887 3.0752694234251976,15.128253400325775 3.0752694234251976,15.128253400325775 4.127891361713409,14.713035523891449 4.127891361713409,14.713035523891449 5.2657511085271835,14.447061717510223 5.2657511085271835,14.447061717510223 6.459284573793411,14.305564761161804 6.459284573793411,14.305564761161804 7.678928226232529,14.263886213302612 7.678928226232529,14.263886213302612 8.238206803798676,14.262057840824127 8.238206803798676,14.262057840824127 8.792811632156372,14.263226091861725 8.792811632156372,14.263226091861725 9.342845529317856,14.277423918247223 9.342845529317856,14.277423918247223 9.887595474720001,14.31468278169632 9.887595474720001,14.31468278169632 10.427062958478928,14.385011792182922 10.427062958478928,14.385011792182922 10.961044579744339,14.4984170794487 10.961044579744339,14.4984170794487 11.489133536815643,14.664904773235321 11.489133536815643,14.664904773235321 12.010923773050308,14.894585311412811 12.010923773050308,14.894585311412811 12.41699755191803,14.152131974697113 12.41699755191803,14.152131974697113 12.823274731636047,13.409729301929474 12.823274731636047,13.409729301929474 13.229754567146301,12.667402625083923 13.229754567146301,12.667402625083923 13.636641204357147,11.925177276134491 13.636641204357147,11.925177276134491 14.043831825256348,11.183104664087296 14.043831825256348,11.183104664087296 14.451530575752258,10.441235452890396 14.451530575752258,10.441235452890396 14.859738945960999,9.699594974517822 14.859738945960999,9.699594974517822 15.26845395565033,8.958207815885544 15.26845395565033,8.958207815885544 15.62972366809845,8.275873214006424 15.62972366809845,8.275873214006424 15.990893542766571,7.562576979398727 15.990893542766571,7.562576979398727 16.36100262403488,6.834778934717178 16.36100262403488,6.834778934717178 16.749297082424164,6.108884885907173 16.749297082424164,6.108884885907173 17.164920270442963,5.4013799875974655 17.164920270442963,5.4013799875974655 17.617422342300415,4.728645831346512 17.617422342300415,4.728645831346512 18.11574399471283,4.107166081666946 18.11574399471283,4.107166081666946 18.66902858018875,3.5533737391233444 18.66902858018875,3.5533737391233444 19.480566680431366,2.9526954516768456 19.480566680431366,2.9526954516768456 20.3819140791893,2.477080188691616 20.3819140791893,2.477080188691616 21.351127326488495,2.1081140264868736 21.351127326488495,2.1081140264868736 22.366464138031006,1.8274841830134392 22.366464138031006,1.8274841830134392 23.406386375427246,1.6167769208550453 23.406386375427246,1.6167769208550453 24.448849260807037,1.4576797373592854 24.448849260807037,1.4576797373592854 25.47241449356079,1.3318040408194065 25.47241449356079,1.3318040408194065 26.455241441726685,1.220761053264141 26.455241441726685,1.220761053264141 28.837838768959045,0.9721844457089901 28.837838768959045,0.9721844457089901 31.22653067111969,0.7681570015847683 31.22653067111969,0.7681570015847683 33.61949026584625,0.6020751781761646 33.61949026584625,0.6020751781761646 36.01570129394531,0.46733529306948185 36.01570129394531,0.46733529306948185 38.413336873054504,0.3572829067707062 38.413336873054504,0.3572829067707062 40.81096947193146,0.2652635797858238 40.81096947193146,0.2652635797858238 43.20718050003052,0.18467364134266973 43.20718050003052,0.18467364134266973 45.60054540634155,0.10890944395214319 45.60054540634155,0.10890944395214319 49.17210638523102,0.02478908863849938 49.17210638523102,0.02478908863849938 52.75697112083435,0.0010667436072253622 52.75697112083435,0.0010667436072253622 56.34986758232117,0.04051085852552205 56.34986758232117,0.04051085852552205 59.94489789009094,0.14588988851755857 59.94489789009094,0.14588988851755857 63.53667378425598,0.3199976868927479 63.53667378425598,0.3199976868927479 67.1194076538086,0.5656281020492315 67.1194076538086,0.5656281020492315 70.68750858306885,0.8855749852955341 70.68750858306885,0.8855749852955341 74.235600233078,1.2825305573642254 74.235600233078,1.2825305573642254 75.18246173858643,1.399440597742796 75.18246173858643,1.399440597742796 76.16580128669739,1.5339264646172523 76.16580128669739,1.5339264646172523 77.1645724773407,1.7035387456417084 77.1645724773407,1.7035387456417084 78.15776467323303,1.9258277490735054 78.15776467323303,1.9258277490735054 79.12423610687256,2.218394912779331 79.12423610687256,2.218394912779331 80.04335761070251,2.5987397879362106 80.04335761070251,2.5987397879362106 80.89380860328674,3.084489144384861 80.89380860328674,3.084489144384861 81.65444731712341,3.6931678652763367 81.65444731712341,3.6931678652763367 81.93708658218384,3.9851509034633636 81.93708658218384,3.9851509034633636 82.19635486602783,4.295649379491806 82.19635486602783,4.295649379491806 82.4359118938446,4.6214379370212555 82.4359118938446,4.6214379370212555 82.65942335128784,4.959240183234215 82.65942335128784,4.959240183234215 82.8705370426178,5.305830389261246 82.8705370426178,5.305830389261246 83.0730140209198,5.657881125807762 83.0730140209198,5.657881125807762 83.2707166671753,6.012192368507385 83.2707166671753,6.012192368507385 83.46689343452454,6.365513056516647 83.46689343452454,6.365513056516647 83.96795988082886,7.262847572565079 83.96795988082886,7.262847572565079 84.46699380874634,8.161325007677078 84.46699380874634,8.161325007677078 84.96440052986145,9.060768038034439 84.96440052986145,9.060768038034439 85.46018600463867,9.960947185754776 85.46018600463867,9.960947185754776 85.95504760742188,10.861685127019882 85.95504760742188,10.861685127019882 86.44910454750061,11.762702465057373 86.44910454750061,11.762702465057373 86.94264888763428,12.6638725399971 86.94264888763428,12.6638725399971 87.43640184402466,13.564914464950562 87.43640184402466,13.564914464950562 87.67961859703064,14.01289701461792 87.67961859703064,14.01289701461792 87.86269426345825,14.332334697246552 87.86269426345825,14.332334697246552 88.01579475402832,14.538952708244324 88.01579475402832,14.538952708244324 88.16930651664734,14.648523926734924 88.16930651664734,14.648523926734924 88.35349678993225,14.676766097545624 88.35349678993225,14.676766097545624 88.59874606132507,14.639507234096527 88.59874606132507,14.639507234096527 88.93542885780334,14.552414417266846 88.93542885780334,14.552414417266846 89.39352035522461,14.431314170360565 89.39352035522461,14.431314170360565 89.56826329231262,14.390066266059875 89.56826329231262,14.390066266059875 89.74260091781616,14.355093240737915 89.74260091781616,14.355093240737915 89.91714119911194,14.326214790344238 89.91714119911194,14.326214790344238 90.09188413619995,14.303101599216461 90.09188413619995,14.303101599216461 90.26733636856079,14.285551011562347 90.26733636856079,14.285551011562347 90.44390916824341,14.27336037158966 90.44390916824341,14.27336037158966 90.62159657478333,14.266222715377808 90.62159657478333,14.266222715377808 90.80121517181396,14.263886213302612 90.80121517181396,14.263886213302612 92.93226599693298,14.263886213302612 92.93226599693298,14.263886213302612 93.63895654678345,14.271987974643707 93.63895654678345,14.271987974643707 94.33183073997498,14.304853975772858 94.33183073997498,14.304853975772858 95.00896334648132,14.375385642051697 95.00896334648132,14.375385642051697 95.66881656646729,14.496538043022156 95.66881656646729,14.496538043022156 96.30988240242004,14.68113511800766 96.30988240242004,14.68113511800766 96.93031907081604,14.94210660457611 96.93031907081604,14.94210660457611 97.52850532531738,15.292328596115112 97.52850532531738,15.292328596115112 98.10302257537842,15.744729340076447 98.10302257537842,15.744729340076447 99.2586612701416,17.186635732650757 99.2586612701416,17.186635732650757 99.85553026199341,18.814030289649963 99.85553026199341,18.814030289649963 99.93762373924255,20.50926387310028 99.93762373924255,20.50926387310028 99.54851269721985,22.15474098920822 99.54851269721985,22.15474098920822 98.7324059009552,23.63279014825821 98.7324059009552,23.63279014825821 97.53287434577942,24.825841188430786 97.53287434577942,24.825841188430786 95.99401950836182,25.616222620010376 95.99401950836182,25.616222620010376 94.15952563285828,25.886312127113342 94.15952563285828,25.886312127113342 94.54954862594604,26.332947611808777 94.54954862594604,26.332947611808777 95.16693949699402,26.78222358226776 95.16693949699402,26.78222358226776 95.92514038085938,27.233076095581055 95.92514038085938,27.233076095581055 96.73759341239929,27.684536576271057 96.73759341239929,27.684536576271057 97.51774072647095,28.135541081428528 97.51774072647095,28.135541081428528 98.17901849746704,28.58501970767975 98.17901849746704,28.58501970767975 98.63477349281311,29.031985998153687 98.63477349281311,29.031985998153687 98.79874587059021,29.47544753551483 98.79874587059021,29.47544753551483 98.70121479034424,33.62700939178467 98.70121479034424,33.62700939178467 98.72295260429382,34.17231738567352 98.72295260429382,34.17231738567352 98.80301356315613,34.68628525733948 98.80301356315613,34.68628525733948 98.92320036888123,35.179299116134644 98.92320036888123,35.179299116134644 99.06512498855591,35.66174805164337 99.06512498855591,35.66174805164337 99.21060800552368,36.144042015075684 99.21060800552368,36.144042015075684 99.34146404266357,36.63659691810608 99.34146404266357,36.63659691810608 99.43940043449402,37.14980185031891 99.43940043449402,37.14980185031891 99.48633909225464,37.69404590129852 99.48633909225464,37.69404590129852 99.99675154685974,65.321284532547 99.99675154685974,65.321284532547 99.993497133255,66.09898805618286 99.993497133255,66.09898805618286 99.9455451965332,66.86079502105713 99.9455451965332,66.86079502105713 99.83917474746704,67.60152578353882 99.83917474746704,67.60152578353882 99.66067671775818,68.31588745117188 99.66067671775818,68.31588745117188 99.39642548561096,68.9987063407898 99.39642548561096,68.9987063407898 99.03261661529541,69.64479684829712 99.03261661529541,69.64479684829712 98.55563044548035,70.24887800216675 98.55563044548035,70.24887800216675 97.95185327529907,70.8057701587677 97.95185327529907,70.8057701587677 97.21834063529968,71.28437757492065 97.21834063529968,71.28437757492065 96.43880128860474,71.61766290664673 96.43880128860474,71.61766290664673 95.62269449234009,71.83080911636353 95.62269449234009,71.83080911636353 94.77986693382263,71.94890975952148 94.77986693382263,71.94890975952148 93.92017126083374,71.99706435203552 93.92017126083374,71.99706435203552 93.05295944213867,72.00036644935608 93.05295944213867,72.00036644935608 92.18848943710327,71.98395729064941 92.18848943710327,71.98395729064941 91.33601188659668,71.97288870811462 91.33601188659668,71.97288870811462 82.76792764663696,71.96963429450989 82.76792764663696,71.96963429450989 81.7662000656128,71.9513475894928 81.7662000656128,71.9513475894928 80.78205585479736,71.87987565994263 80.78205585479736,71.87987565994263 79.83001470565796,71.73048257827759 79.83001470565796,71.73048257827759 78.92460227012634,71.4783251285553 78.92460227012634,71.4783251285553 78.08024883270264,71.09861373901367 78.08024883270264,71.09861373901367 77.31127738952637,70.5665647983551 77.31127738952637,70.5665647983551 76.63232088088989,69.85738277435303 76.63232088088989,69.85738277435303 76.05780363082886,68.94617676734924 76.05780363082886,68.94617676734924 75.80950856208801,68.3650553226471 75.80950856208801,68.3650553226471 75.63506960868835,67.76544451713562 75.63506960868835,67.76544451713562 75.52148699760437,67.15151071548462 75.52148699760437,67.15151071548462 75.45555233955383,66.52741432189941 75.45555233955383,66.52741432189941 75.42446255683899,65.89722037315369 75.42446255683899,65.89722037315369 75.41501522064209,65.2649998664856 75.41501522064209,65.2649998664856 75.41429996490479,64.63490724563599 75.41429996490479,64.63490724563599 75.40922164916992,64.01112079620361 75.40922164916992,64.01112079620361 75.3978431224823,63.76683712005615 75.3978431224823,63.76683712005615 75.36990642547607,63.599252700805664 75.36990642547607,63.599252700805664 75.31941533088684,63.494664430618286 75.31941533088684,63.494664430618286 75.24138689041138,63.43954801559448 75.24138689041138,63.43954801559448 75.12983679771423,63.42034339904785 75.12983679771423,63.42034339904785 74.97947812080383,63.42339515686035 74.97947812080383,63.42339515686035 74.78461861610413,63.43522667884827 74.78461861610413,63.43522667884827" stroke="white" stroke-width="0.1" /><polygon points="23.478925228118896,5.7234350591897964 23.478925228118896,5.7234350591897964 22.273707389831543,6.997152417898178 22.273707389831543,6.997152417898178 21.027040481567383,8.46976637840271 21.027040481567383,8.46976637840271 19.801199436187744,10.109427571296692 19.801199436187744,10.109427571296692 18.65866631269455,11.884336918592453 18.65866631269455,11.884336918592453 17.66151487827301,13.762618601322174 17.66151487827301,13.762618601322174 16.872023046016693,15.712498128414154 16.872023046016693,15.712498128414154 16.35277271270752,17.702102661132812 16.35277271270752,17.702102661132812 16.165737807750702,19.69960480928421 16.165737807750702,19.69960480928421 16.709166765213013,19.61454451084137 16.709166765213013,19.61454451084137 18.33081990480423,19.390249252319336 18.33081990480423,19.390249252319336 21.018201112747192,19.07314658164978 21.018201112747192,19.07314658164978 24.75881427526474,18.709667026996613 24.75881427526474,18.709667026996613 29.539754986763,18.346187472343445 29.539754986763,18.346187472343445 35.34863293170929,18.02908480167389 35.34863293170929,18.02908480167389 42.17274487018585,17.804789543151855 42.17274487018585,17.804789543151855 49.999186396598816,17.719729244709015 49.999186396598816,17.719729244709015 57.825833559036255,17.804814875125885 57.825833559036255,17.804814875125885 64.6498441696167,18.02908480167389 64.6498441696167,18.02908480167389 70.45862078666687,18.346187472343445 70.45862078666687,18.346187472343445 75.23956298828125,18.709667026996613 75.23956298828125,18.709667026996613 78.98007035255432,19.07314658164978 78.98007035255432,19.07314658164978 81.6674530506134,19.390249252319336 81.6674530506134,19.390249252319336 83.28930735588074,19.61454451084137 83.28930735588074,19.61454451084137 83.83263945579529,19.69960480928421 83.83263945579529,19.69960480928421 83.64570140838623,17.702102661132812 83.64570140838623,17.702102661132812 83.1262469291687,15.712498128414154 83.1262469291687,15.712498128414154 82.33696222305298,13.762618601322174 82.33696222305298,13.762618601322174 81.33971095085144,11.884336918592453 81.33971095085144,11.884336918592453 80.19707202911377,10.109427571296692 80.19707202911377,10.109427571296692 78.97133231163025,8.46976637840271 78.97133231163025,8.46976637840271 77.72456407546997,6.997152417898178 77.72456407546997,6.997152417898178 76.51944756507874,5.7234350591897964 76.51944756507874,5.7234350591897964 75.47617554664612,5.199994146823883 75.47617554664612,5.199994146823883 73.53317737579346,4.737027361989021 73.53317737579346,4.737027361989021 70.81592679023743,4.342459142208099 70.81592679023743,4.342459142208099 67.44948625564575,4.024163261055946 67.44948625564575,4.024163261055946 63.55932950973511,3.79008911550045 63.55932950973511,3.79008911550045 59.27071571350098,3.64808551967144 59.27071571350098,3.64808551967144 54.70890998840332,3.6061014980077744 54.70890998840332,3.6061014980077744 49.999186396598816,3.6720361560583115 49.999186396598816,3.6720361560583115 45.28956413269043,3.6061014980077744 45.28956413269043,3.6061014980077744 40.72776436805725,3.64808551967144 40.72776436805725,3.64808551967144 36.43914759159088,3.79008911550045 36.43914759159088,3.79008911550045 32.54888653755188,4.024163261055946 32.54888653755188,4.024163261055946 29.182550311088562,4.342459142208099 29.182550311088562,4.342459142208099 26.465198397636414,4.737027361989021 26.465198397636414,4.737027361989021 24.522200226783752,5.199994146823883 24.522200226783752,5.199994146823883" stroke="white" stroke-width="0.1" /><polygon points="18.444707989692688,39.91124629974365 18.444707989692688,39.91124629974365 18.444707989692688,29.09345030784607 18.444707989692688,29.09345030784607 7.345698028802872,29.09345030784607 7.345698028802872,29.09345030784607 7.345698028802872,39.91124629974365 7.345698028802872,39.91124629974365" stroke="white" stroke-width="0.1" /><polygon points="25.655487179756165,39.90962207317352 25.655487179756165,39.90962207317352 25.655487179756165,29.09182608127594 25.655487179756165,29.09182608127594 21.7705100774765,29.09182608127594 21.7705100774765,29.09182608127594 21.7705100774765,39.90962207317352 21.7705100774765,39.90962207317352" stroke="white" stroke-width="0.1" /><polygon points="49.999186396598816,28.665941953659058 49.999186396598816,28.665941953659058 51.09153389930725,28.451374173164368 51.09153389930725,28.451374173164368 51.87188386917114,27.885693311691284 51.87188386917114,27.885693311691284 52.3399293422699,27.085942029953003 52.3399293422699,27.085942029953003 52.49597430229187,26.169151067733765 52.49597430229187,26.169151067733765 52.340030670166016,25.252360105514526 52.340030670166016,25.252360105514526 51.87177658081055,24.452608823776245 51.87177658081055,24.452608823776245 51.09163522720337,23.88692945241928 51.09163522720337,23.88692945241928 49.999186396598816,23.67236167192459 49.999186396598816,23.67236167192459 48.90684187412262,23.88692945241928 48.90684187412262,23.88692945241928 48.1266975402832,24.452608823776245 48.1266975402832,24.452608823776245 47.65844643115997,25.252360105514526 47.65844643115997,25.252360105514526 47.50239849090576,26.169151067733765 47.50239849090576,26.169151067733765 47.65854775905609,27.085942029953003 47.65854775905609,27.085942029953003 48.126596212387085,27.885693311691284 48.126596212387085,27.885693311691284 48.90694320201874,28.451374173164368 48.90694320201874,28.451374173164368" stroke="white" stroke-width="0.1" /><polygon points="78.22786569595337,39.90962207317352 78.22786569595337,39.90962207317352 78.22786569595337,29.09182608127594 78.22786569595337,29.09182608127594 74.3428885936737,29.09182608127594 74.3428885936737,29.09182608127594 74.3428885936737,39.90962207317352 74.3428885936737,39.90962207317352" stroke="white" stroke-width="0.1" /><polygon points="92.65267848968506,39.91124629974365 92.65267848968506,39.91124629974365 92.65267848968506,29.09345030784607 92.65267848968506,29.09345030784607 81.55366778373718,29.09345030784607 81.55366778373718,29.09345030784607 81.55366778373718,39.91124629974365 81.55366778373718,39.91124629974365" stroke="white" stroke-width="0.1" /><polygon points="74.53957200050354,63.44218850135803 92.65267848968506,39.91124629974365 92.65267848968506,29.09345030784607 49.999186396598816,28.665941953659058 51.09153389930725,28.451374173164368 51.87188386917114,27.885693311691284 52.3399293422699,27.085942029953003 52.49597430229187,26.169151067733765 52.340030670166016,25.252360105514526 51.87177658081055,24.452608823776245 51.09163522720337,23.88692945241928 49.999186396598816,23.67236167192459 48.90684187412262,23.88692945241928 48.1266975402832,24.452608823776245 25.655487179756165,39.90962207317352 25.655487179756165,29.09182608127594 21.7705100774765,29.09182608127594 21.7705100774765,39.90962207317352 18.444707989692688,39.91124629974365 18.444707989692688,29.09345030784607 7.345698028802872,29.09345030784607 7.345698028802872,39.91124629974365 18.444707989692688,39.91124629974365 21.7705100774765,39.90962207317352 25.655487179756165,39.90962207317352 48.1266975402832,24.452608823776245 47.65844643115997,25.252360105514526 47.50239849090576,26.169151067733765 47.65854775905609,27.085942029953003 48.126596212387085,27.885693311691284 48.90694320201874,28.451374173164368 49.999186396598816,28.665941953659058 92.65267848968506,29.09345030784607 81.55366778373718,29.09345030784607 78.22786569595337,39.90962207317352 78.22786569595337,29.09182608127594 74.3428885936737,29.09182608127594 74.3428885936737,39.90962207317352 78.22786569595337,39.90962207317352 81.55366778373718,29.09345030784607 81.55366778373718,39.91124629974365 92.65267848968506,39.91124629974365 74.53957200050354,63.44218850135803 25.04591941833496,63.44218850135803 24.84811544418335,63.529813289642334 24.726100265979767,63.76535892486572 24.664433300495148,64.10783529281616 24.647873640060425,64.5160436630249 24.660876393318176,64.94904160499573 24.688103795051575,65.36577939987183 24.714316427707672,65.7251238822937 24.724069237709045,65.98612070083618 24.67631995677948,66.75665974617004 24.559281766414642,67.50444769859314 24.36787784099579,68.2225227355957 24.097229540348053,68.90391707420349 23.74235987663269,69.54172849655151 23.298391699790955,70.12904286384583 22.76034653186798,70.6588625907898 22.123245894908905,71.12436890602112 21.176181733608246,71.5855062007904 20.12305110692978,71.8809962272644 18.995147943496704,72.04288244247437 17.822949588298798,72.10333347320557 16.63784831762314,72.09439277648926 15.470321476459503,72.04831838607788 14.351765811443329,71.99711799621582 13.312959671020508,71.97288870811462 12.277913838624954,71.98441624641418 11.232098937034607,72.01210260391235 10.179273784160614,72.04552888870239 9.123197942972183,72.07427620887756 8.067629486322403,72.08804488182068 7.016734778881073,72.07641005516052 5.973967537283897,72.02906608581543 4.943188279867172,71.93549871444702 2.829613536596298,71.24765515327454 1.401599496603012,69.88013982772827 0.5360132548958063,68.00094246864319 0.10972219752147794,65.77825546264648 -0.0005079731636215001,63.38006258010864 0.0819868640974164,60.97447872161865 0.2343788044527173,58.729541301727295 0.3332303836941719,56.81334137916565 0.6794648710638285,38.162192702293396 0.7216266356408596,37.72457540035248 0.8195638656616211,37.287336587905884 0.9537703357636929,36.85263991355896 1.1053496040403843,36.422690749168396 1.2546936981379986,35.99967658519745 1.3826013542711735,35.5857789516449 1.4698711223900318,35.18321216106415 1.4970984309911728,34.79412794113159 1.3898145407438278,30.271947383880615 1.52869438752532,29.476919770240784 1.9393399357795715,28.847438097000122 2.548602782189846,28.33598554134369 3.283335268497467,27.895039319992065 4.070388898253441,27.47713029384613 4.836717247962952,27.034685015678406 5.509070307016373,26.52023732662201 6.014402210712433,25.886312127113342 4.663396626710892,25.74494183063507 3.4345079213380814,25.306129455566406 2.3579098284244537,24.611781537532806 23.478925228118896,5.7234350591897964 22.273707389831543,6.997152417898178 21.027040481567383,8.46976637840271 19.801199436187744,10.109427571296692 18.65866631269455,11.884336918592453 17.66151487827301,13.762618601322174 16.872023046016693,15.712498128414154 16.35277271270752,17.702102661132812 16.165737807750702,19.69960480928421 16.709166765213013,19.61454451084137 18.33081990480423,19.390249252319336 21.018201112747192,19.07314658164978 24.75881427526474,18.709667026996613 29.539754986763,18.346187472343445 35.34863293170929,18.02908480167389 42.17274487018585,17.804789543151855 49.999186396598816,17.719729244709015 57.825833559036255,17.804814875125885 64.6498441696167,18.02908480167389 70.45862078666687,18.346187472343445 75.23956298828125,18.709667026996613 78.98007035255432,19.07314658164978 81.6674530506134,19.390249252319336 83.28930735588074,19.61454451084137 83.83263945579529,19.69960480928421 83.64570140838623,17.702102661132812 83.1262469291687,15.712498128414154 82.33696222305298,13.762618601322174 81.33971095085144,11.884336918592453 80.19707202911377,10.109427571296692 78.97133231163025,8.46976637840271 77.72456407546997,6.997152417898178 76.51944756507874,5.7234350591897964 75.47617554664612,5.199994146823883 73.53317737579346,4.737027361989021 70.81592679023743,4.342459142208099 67.44948625564575,4.024163261055946 63.55932950973511,3.79008911550045 59.27071571350098,3.64808551967144 54.70890998840332,3.6061014980077744 49.999186396598816,3.6720361560583115 45.28956413269043,3.6061014980077744 40.72776436805725,3.64808551967144 36.43914759159088,3.79008911550045 32.54888653755188,4.024163261055946 29.182550311088562,4.342459142208099 26.465198397636414,4.737027361989021 24.522200226783752,5.199994146823883 23.478925228118896,5.7234350591897964 2.3579098284244537,24.611781537532806 1.4633690007030964,23.703855276107788 0.781161105260253,22.62423485517502 0.3413579659536481,21.414902806282043 0.17372681759297848,20.11774331331253 0.3088476834818721,18.774686753749847 0.7246744818985462,17.51585453748703 1.344096940010786,16.504961252212524 2.1374493837356567,15.71734994649887 3.0752694234251976,15.128253400325775 4.127891361713409,14.713035523891449 5.2657511085271835,14.447061717510223 6.459284573793411,14.305564761161804 7.678928226232529,14.263886213302612 8.238206803798676,14.262057840824127 8.792811632156372,14.263226091861725 9.342845529317856,14.277423918247223 9.887595474720001,14.31468278169632 10.427062958478928,14.385011792182922 10.961044579744339,14.4984170794487 11.489133536815643,14.664904773235321 12.010923773050308,14.894585311412811 12.41699755191803,14.152131974697113 12.823274731636047,13.409729301929474 13.229754567146301,12.667402625083923 13.636641204357147,11.925177276134491 14.043831825256348,11.183104664087296 14.451530575752258,10.441235452890396 14.859738945960999,9.699594974517822 15.26845395565033,8.958207815885544 15.62972366809845,8.275873214006424 15.990893542766571,7.562576979398727 16.36100262403488,6.834778934717178 16.749297082424164,6.108884885907173 17.164920270442963,5.4013799875974655 17.617422342300415,4.728645831346512 18.11574399471283,4.107166081666946 18.66902858018875,3.5533737391233444 19.480566680431366,2.9526954516768456 20.3819140791893,2.477080188691616 21.351127326488495,2.1081140264868736 22.366464138031006,1.8274841830134392 23.406386375427246,1.6167769208550453 24.448849260807037,1.4576797373592854 25.47241449356079,1.3318040408194065 26.455241441726685,1.220761053264141 28.837838768959045,0.9721844457089901 31.22653067111969,0.7681570015847683 33.61949026584625,0.6020751781761646 36.01570129394531,0.46733529306948185 38.413336873054504,0.3572829067707062 40.81096947193146,0.2652635797858238 43.20718050003052,0.18467364134266973 45.60054540634155,0.10890944395214319 49.17210638523102,0.02478908863849938 52.75697112083435,0.0010667436072253622 56.34986758232117,0.04051085852552205 59.94489789009094,0.14588988851755857 63.53667378425598,0.3199976868927479 67.1194076538086,0.5656281020492315 70.68750858306885,0.8855749852955341 74.235600233078,1.2825305573642254 75.18246173858643,1.399440597742796 76.16580128669739,1.5339264646172523 77.1645724773407,1.7035387456417084 78.15776467323303,1.9258277490735054 79.12423610687256,2.218394912779331 80.04335761070251,2.5987397879362106 80.89380860328674,3.084489144384861 81.65444731712341,3.6931678652763367 81.93708658218384,3.9851509034633636 82.19635486602783,4.295649379491806 82.4359118938446,4.6214379370212555 82.65942335128784,4.959240183234215 82.8705370426178,5.305830389261246 83.0730140209198,5.657881125807762 83.2707166671753,6.012192368507385 83.46689343452454,6.365513056516647 83.96795988082886,7.262847572565079 84.46699380874634,8.161325007677078 84.96440052986145,9.060768038034439 85.46018600463867,9.960947185754776 85.95504760742188,10.861685127019882 86.44910454750061,11.762702465057373 86.94264888763428,12.6638725399971 87.43640184402466,13.564914464950562 87.67961859703064,14.01289701461792 87.86269426345825,14.332334697246552 88.01579475402832,14.538952708244324 88.16930651664734,14.648523926734924 88.35349678993225,14.676766097545624 88.59874606132507,14.639507234096527 88.93542885780334,14.552414417266846 89.39352035522461,14.431314170360565 89.56826329231262,14.390066266059875 89.74260091781616,14.355093240737915 89.91714119911194,14.326214790344238 90.09188413619995,14.303101599216461 90.26733636856079,14.285551011562347 90.44390916824341,14.27336037158966 90.62159657478333,14.266222715377808 90.80121517181396,14.263886213302612 92.93226599693298,14.263886213302612 93.63895654678345,14.271987974643707 94.33183073997498,14.304853975772858 95.00896334648132,14.375385642051697 95.66881656646729,14.496538043022156 96.30988240242004,14.68113511800766 96.93031907081604,14.94210660457611 97.52850532531738,15.292328596115112 98.10302257537842,15.744729340076447 99.2586612701416,17.186635732650757 99.85553026199341,18.814030289649963 99.93762373924255,20.50926387310028 99.54851269721985,22.15474098920822 98.7324059009552,23.63279014825821 97.53287434577942,24.825841188430786 95.99401950836182,25.616222620010376 94.15952563285828,25.886312127113342 94.54954862594604,26.332947611808777 95.16693949699402,26.78222358226776 95.92514038085938,27.233076095581055 96.73759341239929,27.684536576271057 97.51774072647095,28.135541081428528 98.17901849746704,28.58501970767975 98.63477349281311,29.031985998153687 98.79874587059021,29.47544753551483 98.70121479034424,33.62700939178467 98.72295260429382,34.17231738567352 98.80301356315613,34.68628525733948 98.92320036888123,35.179299116134644 99.06512498855591,35.66174805164337 99.21060800552368,36.144042015075684 99.34146404266357,36.63659691810608 99.43940043449402,37.14980185031891 99.48633909225464,37.69404590129852 99.99675154685974,65.321284532547 99.993497133255,66.09898805618286 99.9455451965332,66.86079502105713 99.83917474746704,67.60152578353882 99.66067671775818,68.31588745117188 99.39642548561096,68.9987063407898 99.03261661529541,69.64479684829712 98.55563044548035,70.24887800216675 97.95185327529907,70.8057701587677 97.21834063529968,71.28437757492065 96.43880128860474,71.61766290664673 95.62269449234009,71.83080911636353 94.77986693382263,71.94890975952148 93.92017126083374,71.99706435203552 93.05295944213867,72.00036644935608 92.18848943710327,71.98395729064941 91.33601188659668,71.97288870811462 82.76792764663696,71.96963429450989 81.7662000656128,71.9513475894928 80.78205585479736,71.87987565994263 79.83001470565796,71.73048257827759 78.92460227012634,71.4783251285553 78.08024883270264,71.09861373901367 77.31127738952637,70.5665647983551 76.63232088088989,69.85738277435303 76.05780363082886,68.94617676734924 75.80950856208801,68.3650553226471 75.63506960868835,67.76544451713562 75.52148699760437,67.15151071548462 75.45555233955383,66.52741432189941 75.42446255683899,65.89722037315369 75.41501522064209,65.2649998664856 75.41429996490479,64.63490724563599 75.40922164916992,64.01112079620361 75.3978431224823,63.76683712005615 75.36990642547607,63.599252700805664 75.31941533088684,63.494664430618286 75.24138689041138,63.43954801559448 75.12983679771423,63.42034339904785 74.97947812080383,63.42339515686035 74.78461861610413,63.43522667884827" stroke="white" stroke-width="0.1" /></svg>