<?xml version="1.0" encoding="utf-8" ?>
<svg baseProfile="full" height="29.911285638809204" version="1.1" width="100.0" xmlns="http://www.w3.org/2000/svg" xmlns:ev="http://www.w3.org/2001/xml-events" xmlns:xlink="http://www.w3.org/1999/xlink"><defs><clipPath /></defs><polygon points="98.14985394477844,0.0 93.52449178695679,0.0 93.15139055252075,0.03754720091819763 92.80403852462769,0.14527662424370646 92.48988032341003,0.3157917410135269 92.21593141555786,0.5415831226855516 91.99008345603943,0.815338920801878 91.81979298591614,1.1296343989670277 91.71183705329895,1.4770448207855225 91.67434573173523,1.8501454964280128 91.67434573173523,5.859396234154701 8.32565426826477,5.859396234154701 8.32565426826477,1.8501454964280128 8.287937939167023,1.4770448207855225 8.180434256792068,1.1296343989670277 8.00991952419281,0.8153107017278671 7.784071564674377,0.5415831226855516 7.510343939065933,0.3157634986564517 7.1959637105464935,0.14527662424370646 6.848609447479248,0.03754720091819763 6.475508958101273,0.0 1.8501454964280128,0.0 1.4770448207855225,0.03754720091819763 1.129464991390705,0.14527662424370646 0.8153107017278671,0.3157917410135269 0.5415831226855516,0.5415831226855516 0.31573527958244085,0.815338920801878 0.14522015117108822,1.1296343989670277 0.03749073948711157,1.4770448207855225 0.0,1.8501454964280128 0.0,13.259978592395782 0.03749073948711157,13.632570207118988 0.14522015117108822,13.979727029800415 0.31573527958244085,14.293965697288513 0.5415831226855516,14.567862451076508 0.8153107017278671,14.793908596038818 1.1296908371150494,14.964592456817627 1.4770448207855225,15.072491765022278 1.8501454964280128,15.11012315750122 26.37902796268463,15.11012315750122 26.37902796268463,28.061142563819885 26.416516304016113,28.43427062034607 26.524245738983154,28.781652450561523 26.694762706756592,29.09592092037201 26.920610666275024,29.36970293521881 27.19433605670929,29.595550894737244 27.50871777534485,29.766011238098145 27.856072783470154,29.873740673065186 28.22917103767395,29.911285638809204 31.93126916885376,29.911285638809204 32.30392038822174,29.873740673065186 32.65082240104675,29.766011238098145 32.96520113945007,29.595524072647095 33.239156007766724,29.36970293521881 33.465227484703064,29.095947742462158 33.63596796989441,28.781652450561523 33.7439239025116,28.43424081802368 33.78141522407532,28.061142563819885 33.78141522407532,15.11012315750122 67.70195364952087,15.11012315750122 67.70195364952087,28.061142563819885 67.73967146873474,28.43427062034607 67.84717440605164,28.781652450561523 68.01746487617493,29.09592092037201 68.24353337287903,29.36970293521881 68.51726174354553,29.595550894737244 68.83164644241333,29.766011238098145 69.1789984703064,29.873740673065186 69.55209970474243,29.911285638809204 73.25419783592224,29.911285638809204 73.62752556800842,29.873740673065186 73.97465109825134,29.766011238098145 74.28902983665466,29.595524072647095 74.56275820732117,29.36970293521881 74.7886061668396,29.095947742462158 74.95912313461304,28.781652450561523 75.06685256958008,28.43424081802368 75.1043438911438,28.061142563819885 75.1043438911438,15.11012315750122 98.14985394477844,15.11012315750122 98.52295517921448,15.072491765022278 98.87053370475769,14.964592456817627 99.18491244316101,14.793908596038818 99.45841431617737,14.567862451076508 99.6842622756958,14.293994009494781 99.85477924346924,13.979727029800415 99.96250867843628,13.632570207118988 100.0,13.259978592395782 100.0,1.8501454964280128 99.96250867843628,1.4770448207855225 99.85477924346924,1.1296343989670277 99.68448877334595,0.8153107017278671 99.45841431617737,0.5415831226855516 99.18469190597534,0.3157634986564517 98.87030720710754,0.14527662424370646 98.52295517921448,0.03754720091819763 98.14985394477844,0.0 98.14985394477844,0.0 98.52295517921448,0.03754720091819763 98.52295517921448,0.03754720091819763 98.87030720710754,0.14527662424370646 98.87030720710754,0.14527662424370646 99.18469190597534,0.3157634986564517 99.18469190597534,0.3157634986564517 99.45841431617737,0.5415831226855516 99.45841431617737,0.5415831226855516 99.68448877334595,0.8153107017278671 99.68448877334595,0.8153107017278671 99.85477924346924,1.1296343989670277 99.85477924346924,1.1296343989670277 99.96250867843628,1.4770448207855225 99.96250867843628,1.4770448207855225 100.0,1.8501454964280128 100.0,1.8501454964280128 100.0,13.259978592395782 100.0,13.259978592395782 99.96250867843628,13.632570207118988 99.96250867843628,13.632570207118988 99.85477924346924,13.979727029800415 99.85477924346924,13.979727029800415 99.6842622756958,14.293994009494781 99.6842622756958,14.293994009494781 99.45841431617737,14.567862451076508 99.45841431617737,14.567862451076508 99.18491244316101,14.793908596038818 99.18491244316101,14.793908596038818 98.87053370475769,14.964592456817627 98.87053370475769,14.964592456817627 98.52295517921448,15.072491765022278 98.52295517921448,15.072491765022278 98.14985394477844,15.11012315750122 98.14985394477844,15.11012315750122 75.1043438911438,15.11012315750122 75.1043438911438,15.11012315750122 75.1043438911438,28.061142563819885 75.1043438911438,28.061142563819885 75.06685256958008,28.43424081802368 75.06685256958008,28.43424081802368 74.95912313461304,28.781652450561523 74.95912313461304,28.781652450561523 74.7886061668396,29.095947742462158 74.7886061668396,29.095947742462158 74.56275820732117,29.36970293521881 74.56275820732117,29.36970293521881 74.28902983665466,29.595524072647095 74.28902983665466,29.595524072647095 73.97465109825134,29.766011238098145 73.97465109825134,29.766011238098145 73.62752556800842,29.873740673065186 73.62752556800842,29.873740673065186 73.25419783592224,29.911285638809204 73.25419783592224,29.911285638809204 69.55209970474243,29.911285638809204 69.55209970474243,29.911285638809204 69.1789984703064,29.873740673065186 69.1789984703064,29.873740673065186 68.83164644241333,29.766011238098145 68.83164644241333,29.766011238098145 68.51726174354553,29.595550894737244 68.51726174354553,29.595550894737244 68.24353337287903,29.36970293521881 68.24353337287903,29.36970293521881 68.01746487617493,29.09592092037201 68.01746487617493,29.09592092037201 67.84717440605164,28.781652450561523 67.84717440605164,28.781652450561523 67.73967146873474,28.43427062034607 67.73967146873474,28.43427062034607 67.70195364952087,28.061142563819885 67.70195364952087,28.061142563819885 67.70195364952087,15.11012315750122 67.70195364952087,15.11012315750122 33.78141522407532,15.11012315750122 33.78141522407532,15.11012315750122 33.78141522407532,28.061142563819885 33.78141522407532,28.061142563819885 33.7439239025116,28.43424081802368 33.7439239025116,28.43424081802368 33.63596796989441,28.781652450561523 33.63596796989441,28.781652450561523 33.465227484703064,29.095947742462158 33.465227484703064,29.095947742462158 33.239156007766724,29.36970293521881 33.239156007766724,29.36970293521881 32.96520113945007,29.595524072647095 32.96520113945007,29.595524072647095 32.65082240104675,29.766011238098145 32.65082240104675,29.766011238098145 32.30392038822174,29.873740673065186 32.30392038822174,29.873740673065186 31.93126916885376,29.911285638809204 31.93126916885376,29.911285638809204 28.22917103767395,29.911285638809204 28.22917103767395,29.911285638809204 27.856072783470154,29.873740673065186 27.856072783470154,29.873740673065186 27.50871777534485,29.766011238098145 27.50871777534485,29.766011238098145 27.19433605670929,29.595550894737244 27.19433605670929,29.595550894737244 26.920610666275024,29.36970293521881 26.920610666275024,29.36970293521881 26.694762706756592,29.09592092037201 26.694762706756592,29.09592092037201 26.524245738983154,28.781652450561523 26.524245738983154,28.781652450561523 26.416516304016113,28.43427062034607 26.416516304016113,28.43427062034607 26.37902796268463,28.061142563819885 26.37902796268463,28.061142563819885 26.37902796268463,15.11012315750122 26.37902796268463,15.11012315750122 1.8501454964280128,15.11012315750122 1.8501454964280128,15.11012315750122 1.4770448207855225,15.072491765022278 1.4770448207855225,15.072491765022278 1.1296908371150494,14.964592456817627 1.1296908371150494,14.964592456817627 0.8153107017278671,14.793908596038818 0.8153107017278671,14.793908596038818 0.5415831226855516,14.567862451076508 0.5415831226855516,14.567862451076508 0.31573527958244085,14.293965697288513 0.31573527958244085,14.293965697288513 0.14522015117108822,13.979727029800415 0.14522015117108822,13.979727029800415 0.03749073948711157,13.632570207118988 0.03749073948711157,13.632570207118988 0.0,13.259978592395782 0.0,13.259978592395782 0.0,1.8501454964280128 0.0,1.8501454964280128 0.03749073948711157,1.4770448207855225 0.03749073948711157,1.4770448207855225 0.14522015117108822,1.1296343989670277 0.14522015117108822,1.1296343989670277 0.31573527958244085,0.815338920801878 0.31573527958244085,0.815338920801878 0.5415831226855516,0.5415831226855516 0.5415831226855516,0.5415831226855516 0.8153107017278671,0.3157917410135269 0.8153107017278671,0.3157917410135269 1.129464991390705,0.14527662424370646 1.129464991390705,0.14527662424370646 1.4770448207855225,0.03754720091819763 1.4770448207855225,0.03754720091819763 1.8501454964280128,0.0 1.8501454964280128,0.0 6.475508958101273,0.0 6.475508958101273,0.0 6.848609447479248,0.03754720091819763 6.848609447479248,0.03754720091819763 7.1959637105464935,0.14527662424370646 7.1959637105464935,0.14527662424370646 7.510343939065933,0.3157634986564517 7.510343939065933,0.3157634986564517 7.784071564674377,0.5415831226855516 7.784071564674377,0.5415831226855516 8.00991952419281,0.8153107017278671 8.00991952419281,0.8153107017278671 8.180434256792068,1.1296343989670277 8.180434256792068,1.1296343989670277 8.287937939167023,1.4770448207855225 8.287937939167023,1.4770448207855225 8.32565426826477,1.8501454964280128 8.32565426826477,1.8501454964280128 8.32565426826477,5.859396234154701 8.32565426826477,5.859396234154701 91.67434573173523,5.859396234154701 91.67434573173523,5.859396234154701 91.67434573173523,1.8501454964280128 91.67434573173523,1.8501454964280128 91.71183705329895,1.4770448207855225 91.71183705329895,1.4770448207855225 91.81979298591614,1.1296343989670277 91.81979298591614,1.1296343989670277 91.99008345603943,0.815338920801878 91.99008345603943,0.815338920801878 92.21593141555786,0.5415831226855516 92.21593141555786,0.5415831226855516 92.48988032341003,0.3157917410135269 92.48988032341003,0.3157917410135269 92.80403852462769,0.14527662424370646 92.80403852462769,0.14527662424370646 93.15139055252075,0.03754720091819763 93.15139055252075,0.03754720091819763 93.52449178695679,0.0 93.52449178695679,0.0" stroke="white" stroke-width="0.1" /></svg>