<?xml version="1.0" encoding="utf-8" ?>
<svg baseProfile="full" height="43.78872215747833" version="1.1" width="74.64842796325684" xmlns="http://www.w3.org/2000/svg" xmlns:ev="http://www.w3.org/2001/xml-events" xmlns:xlink="http://www.w3.org/1999/xlink"><defs><clipPath /></defs><polygon points="74.44486021995544,24.18818771839142 74.44486021995544,24.18818771839142 74.44486021995544,41.71468913555145 74.44486021995544,41.71468913555145 74.44836497306824,41.97975397109985 74.44836497306824,41.97975397109985 74.45850372314453,42.24315583705902 74.45850372314453,42.24315583705902 74.47534799575806,42.504897713661194 74.47534799575806,42.504897713661194 74.49833154678345,42.76498258113861 74.49833154678345,42.76498258113861 74.52734112739563,43.02340745925903 74.52734112739563,43.02340745925903 74.56225752830505,43.28017234802246 74.56225752830505,43.28017234802246 74.60269927978516,43.5352623462677 74.60269927978516,43.5352623462677 74.64842796325684,43.78872215747833 74.64842796325684,43.78872215747833 4.365399479866028,43.78872215747833 4.365399479866028,43.78872215747833 3.488311916589737,43.69964599609375 3.488311916589737,43.69964599609375 2.6701685041189194,43.44434142112732 2.6701685041189194,43.44434142112732 1.9288545474410057,43.0406928062439 1.9288545474410057,43.0406928062439 1.2821332551538944,42.506587505340576 1.2821332551538944,42.506587505340576 0.7480749394744635,41.85991287231445 0.7480749394744635,41.85991287231445 0.34431975800544024,41.11855328083038 0.34431975800544024,41.11855328083038 0.08912239572964609,40.30039608478546 0.08912239572964609,40.30039608478546 0.0,39.423322677612305 0.0,39.423322677612305 0.0,9.55195426940918 0.0,9.55195426940918 0.08906093426048756,8.674882352352142 0.08906093426048756,8.674882352352142 0.34431975800544024,7.856722921133041 0.34431975800544024,7.856722921133041 0.7480749394744635,7.115363329648972 0.7480749394744635,7.115363329648972 1.2821332551538944,6.468687951564789 1.2821332551538944,6.468687951564789 1.9288545474410057,5.934583395719528 1.9288545474410057,5.934583395719528 2.670229971408844,5.530935898423195 2.670229971408844,5.530935898423195 3.488311916589737,5.275630950927734 3.488311916589737,5.275630950927734 4.365399479866028,5.186554789543152 4.365399479866028,5.186554789543152 68.80003213882446,5.186554789543152 68.80003213882446,5.186554789543152 68.61853003501892,5.802897363901138 68.61853003501892,5.802897363901138 68.45632791519165,6.438709050416946 68.45632791519165,6.438709050416946 68.3148980140686,7.094081491231918 68.3148980140686,7.094081491231918 68.19584369659424,7.769137620925903 68.19584369659424,7.769137620925903 68.10057163238525,8.46395418047905 68.10057163238525,8.46395418047905 68.03069114685059,9.17866975069046 68.03069114685059,9.17866975069046 67.98760294914246,9.913361072540283 67.98760294914246,9.913361072540283 67.97297596931458,10.668135434389114 67.97297596931458,10.668135434389114 68.08330416679382,12.6289501786232 68.08330416679382,12.6289501786232 68.40900182723999,14.540565013885498 68.40900182723999,14.540565013885498 68.94232034683228,16.388870775699615 68.94232034683228,16.388870775699615 69.67515349388123,18.15982460975647 69.67515349388123,18.15982460975647 70.59975266456604,19.839321076869965 70.59975266456604,19.839321076869965 71.70812487602234,21.413253247737885 71.70812487602234,21.413253247737885 72.9924738407135,22.867578268051147 72.9924738407135,22.867578268051147" stroke="white" stroke-width="0.1" /><polygon points="4.845308139920235,41.74222648143768 4.845308139920235,41.74222648143768 5.251153185963631,41.70126020908356 5.251153185963631,41.70126020908356 5.629216507077217,41.58380329608917 5.629216507077217,41.58380329608917 5.971384793519974,41.39796793460846 5.971384793519974,41.39796793460846 6.269422173500061,41.15192890167236 6.269422173500061,41.15192890167236 6.5154001116752625,40.85378348827362 6.5154001116752625,40.85378348827362 6.701020896434784,40.51169157028198 6.701020896434784,40.51169157028198 6.818416714668274,40.13378322124481 6.818416714668274,40.13378322124481 6.859351694583893,39.728182554244995 6.859351694583893,39.728182554244995 6.818416714668274,39.322030544281006 6.818416714668274,39.322030544281006 6.701020896434784,38.94384503364563 6.701020896434784,38.94384503364563 6.515339016914368,38.601723313331604 6.515339016914368,38.601723313331604 6.269422173500061,38.30370008945465 6.269422173500061,38.30370008945465 5.971384793519974,38.05786073207855 5.971384793519974,38.05786073207855 5.629216507077217,37.87228465080261 5.629216507077217,37.87228465080261 5.251153185963631,37.755027413368225 5.251153185963631,37.755027413368225 4.845308139920235,37.71413862705231 4.845308139920235,37.71413862705231 4.439401626586914,37.755027413368225 4.439401626586914,37.755027413368225 4.061399772763252,37.87228465080261 4.061399772763252,37.87228465080261 3.7192311137914658,38.057875633239746 3.7192311137914658,38.057875633239746 3.4211937338113785,38.30370008945465 3.4211937338113785,38.30370008945465 3.1752772629261017,38.60170543193817 3.1752772629261017,38.60170543193817 2.9895953834056854,38.94384503364563 2.9895953834056854,38.94384503364563 2.8721382841467857,39.322030544281006 2.8721382841467857,39.322030544281006 2.8312649577856064,39.728182554244995 2.8312649577856064,39.728182554244995 2.8721997514367104,40.13378322124481 2.8721997514367104,40.13378322124481 2.9895953834056854,40.51169157028198 2.9895953834056854,40.51169157028198 3.1752772629261017,40.853798389434814 3.1752772629261017,40.853798389434814 3.4211937338113785,41.15192890167236 3.4211937338113785,41.15192890167236 3.719354048371315,41.39796793460846 3.719354048371315,41.39796793460846 4.061276838183403,41.58380329608917 4.061276838183403,41.58380329608917 4.439401626586914,41.70127511024475 4.439401626586914,41.70127511024475" stroke="white" stroke-width="0.1" /><polygon points="4.845308139920235,11.260154098272324 4.845308139920235,11.260154098272324 5.251153185963631,11.219188570976257 5.251153185963631,11.219188570976257 5.629216507077217,11.101730912923813 5.629216507077217,11.101730912923813 5.971384793519974,10.9158955514431 5.971384793519974,10.9158955514431 6.269422173500061,10.669856518507004 6.269422173500061,10.669856518507004 6.5154001116752625,10.371726751327515 6.5154001116752625,10.371726751327515 6.701020896434784,10.029619187116623 6.701020896434784,10.029619187116623 6.818416714668274,9.651709347963333 6.818416714668274,9.651709347963333 6.859351694583893,9.246110916137695 6.859351694583893,9.246110916137695 6.818416714668274,8.839958161115646 6.818416714668274,8.839958161115646 6.701020896434784,8.46177190542221 6.701020896434784,8.46177190542221 6.515339016914368,8.119634538888931 6.515339016914368,8.119634538888931 6.269422173500061,7.821627706289291 6.269422173500061,7.821627706289291 5.971384793519974,7.575803250074387 5.971384793519974,7.575803250074387 5.629216507077217,7.390213757753372 5.629216507077217,7.390213757753372 5.251153185963631,7.2729408740997314 5.251153185963631,7.2729408740997314 4.845308139920235,7.232066988945007 4.845308139920235,7.232066988945007 4.439401626586914,7.2729408740997314 4.439401626586914,7.2729408740997314 4.061399772763252,7.390213757753372 4.061399772763252,7.390213757753372 3.7192311137914658,7.575803250074387 3.7192311137914658,7.575803250074387 3.4211937338113785,7.821627706289291 3.4211937338113785,7.821627706289291 3.1752772629261017,8.119634538888931 3.1752772629261017,8.119634538888931 2.9895953834056854,8.46177190542221 2.9895953834056854,8.46177190542221 2.8721382841467857,8.839958161115646 2.8721382841467857,8.839958161115646 2.8312649577856064,9.246110916137695 2.8312649577856064,9.246110916137695 2.8721997514367104,9.651709347963333 2.8721997514367104,9.651709347963333 2.9895953834056854,10.029619187116623 2.9895953834056854,10.029619187116623 3.1752772629261017,10.371726751327515 3.1752772629261017,10.371726751327515 3.4211937338113785,10.669856518507004 3.4211937338113785,10.669856518507004 3.719354048371315,10.9158955514431 3.719354048371315,10.9158955514431 4.061276838183403,11.101730912923813 4.061276838183403,11.101730912923813 4.439401626586914,11.219188570976257 4.439401626586914,11.219188570976257" stroke="white" stroke-width="0.1" /><polygon points="29.936274886131287,23.24410378932953 29.936274886131287,23.24410378932953 29.936274886131287,22.94219434261322 29.936274886131287,22.94219434261322 29.930618405342102,22.70244061946869 29.930618405342102,22.70244061946869 29.913780093193054,22.467003762722015 29.913780093193054,22.467003762722015 29.885566234588623,22.2358837723732 29.885566234588623,22.2358837723732 29.8460453748703,22.009052336215973 29.8460453748703,22.009052336215973 29.795154929161072,21.78652286529541 29.795154929161072,21.78652286529541 29.732951521873474,21.56825065612793 29.732951521873474,21.56825065612793 29.65938150882721,21.354249119758606 29.65938150882721,21.354249119758606 29.574376344680786,21.144503355026245 29.574376344680786,21.144503355026245 29.479414224624634,20.940151810646057 29.479414224624634,20.940151810646057 29.375970363616943,20.74236124753952 29.375970363616943,20.74236124753952 29.26410734653473,20.551133155822754 29.26410734653473,20.551133155822754 29.14363741874695,20.366495847702026 29.14363741874695,20.366495847702026 29.014748334884644,20.188435912132263 29.014748334884644,20.188435912132263 28.877440094947815,20.016998052597046 28.877440094947815,20.016998052597046 28.73152494430542,19.85216736793518 28.73152494430542,19.85216736793518 28.577187657356262,19.69396024942398 28.577187657356262,19.69396024942398 28.415292501449585,19.543634355068207 28.415292501449585,19.543634355068207 28.246760368347168,19.401715695858 28.246760368347168,19.401715695858 28.071588277816772,19.268201291561127 28.071588277816772,19.268201291561127 27.889901399612427,19.14312243461609 27.889901399612427,19.14312243461609 27.70157754421234,19.026464223861694 27.70157754421234,19.026464223861694 27.506735920906067,18.918272852897644 27.506735920906067,18.918272852897644 27.305197715759277,18.818531930446625 27.305197715759277,18.818531930446625 27.0971417427063,18.72725784778595 27.0971417427063,18.72725784778595 26.883617043495178,18.646003305912018 26.883617043495178,18.646003305912018 26.6664057970047,18.575519323349 26.6664057970047,18.575519323349 26.445379853248596,18.515853583812714 26.445379853248596,18.515853583812714 26.220792531967163,18.467020988464355 26.220792531967163,18.467020988464355 25.992393493652344,18.42900514602661 25.992393493652344,18.42900514602661 25.760245323181152,18.4018537402153 25.760245323181152,18.4018537402153 25.52434802055359,18.385550379753113 25.52434802055359,18.385550379753113 25.284698605537415,18.38011145591736 25.284698605537415,18.38011145591736 21.810278296470642,18.38011145591736 21.810278296470642,18.38011145591736 21.577516198158264,18.392373621463776 21.577516198158264,18.392373621463776 21.347518265247345,18.42917501926422 21.347518265247345,18.42917501926422 21.120287477970123,18.490515649318695 21.120287477970123,18.490515649318695 20.89594453573227,18.576426804065704 20.89594453573227,18.576426804065704 20.674429833889008,18.68690699338913 20.674429833889008,18.68690699338913 20.455802977085114,18.82195919752121 20.455802977085114,18.82195919752121 20.240065455436707,18.9815953373909 20.240065455436707,18.9815953373909 20.027339458465576,19.16586309671402 20.027339458465576,19.16586309671402 20.813091099262238,11.461754888296127 20.813091099262238,11.461754888296127 17.36915558576584,11.461754888296127 17.36915558576584,11.461754888296127 14.830949902534485,35.63027381896973 14.830949902534485,35.63027381896973 18.275868892669678,35.63027381896973 18.275868892669678,35.63027381896973 18.366342782974243,34.844520688056946 18.366342782974243,34.844520688056946 18.543851375579834,35.02877354621887 18.543851375579834,35.02877354621887 18.72885674238205,35.188427567481995 18.72885674238205,35.188427567481995 18.921422958374023,35.323476791381836 18.921422958374023,35.323476791381836 19.12160962820053,35.43395698070526 19.12160962820053,35.43395698070526 19.329296052455902,35.51985323429108 19.329296052455902,35.51985323429108 19.544602930545807,35.581210255622864 19.544602930545807,35.581210255622864 19.76747065782547,35.61801016330719 19.76747065782547,35.61801016330719 19.997836649417877,35.63027381896973 19.997836649417877,35.63027381896973 23.471274971961975,35.63027381896973 23.471274971961975,35.63027381896973 23.734523355960846,35.623666644096375 23.734523355960846,35.623666644096375 23.99531453847885,35.6038898229599 23.99531453847885,35.6038898229599 24.25376921892166,35.57089865207672 24.25376921892166,35.57089865207672 24.509888887405396,35.524678230285645 24.509888887405396,35.524678230285645 24.76361095905304,35.46522855758667 24.76361095905304,35.46522855758667 25.01499652862549,35.39254665374756 25.01499652862549,35.39254665374756 25.264108180999756,35.30660569667816 25.264108180999756,35.30660569667816 25.510886311531067,35.20740270614624 25.510886311531067,35.20740270614624 25.753054022789,35.09736657142639 25.753054022789,35.09736657142639 25.989195704460144,34.978896379470825 25.989195704460144,34.978896379470825 26.219254732131958,34.851959347724915 26.219254732131958,34.851959347724915 26.44316852092743,34.71655249595642 26.44316852092743,34.71655249595642 26.660996675491333,34.57260727882385 26.660996675491333,34.57260727882385 26.872798800468445,34.4200998544693 26.872798800468445,34.4200998544693 27.078518271446228,34.25898849964142 27.078518271446228,34.25898849964142 27.27809250354767,34.08925533294678 27.27809250354767,34.08925533294678 27.469858527183533,33.91177952289581 27.469858527183533,33.91177952289581 27.65277326107025,33.72674286365509 27.65277326107025,33.72674286365509 27.826717495918274,33.53414535522461 27.826717495918274,33.53414535522461 27.991807460784912,33.33398997783661 27.991807460784912,33.33398997783661 28.147926926612854,33.12627375125885 28.147926926612854,33.12627375125885 28.295069932937622,32.91099667549133 28.295069932937622,32.91099667549133 28.43330204486847,32.68815875053406 28.43330204486847,32.68815875053406 28.562438488006592,32.45776295661926 28.562438488006592,32.45776295661926 28.681185841560364,32.22201764583588 28.681185841560364,32.22201764583588 28.78800928592682,31.982415914535522 28.78800928592682,31.982415914535522 28.88297140598297,31.738975644111633 28.88297140598297,31.738975644111633 28.966131806373596,31.491675972938538 28.966131806373596,31.491675972938538 29.03742790222168,31.240564584732056 29.03742790222168,31.240564584732056 29.097047448158264,30.985629558563232 29.097047448158264,30.985629558563232 29.14499044418335,30.726882815361023 29.14499044418335,30.726882815361023 29.181009531021118,30.464372038841248 29.181009531021118,30.464372038841248 29.90677058696747,23.546014726161957 29.90677058696747,23.546014726161957 29.913654923439026,23.508398234844208 29.913654923439026,23.508398234844208 29.91967797279358,23.470766842365265 29.91967797279358,23.470766842365265 29.924720525741577,23.433120548725128 29.924720525741577,23.433120548725128 29.928898811340332,23.39542806148529 29.928898811340332,23.39542806148529 29.932156205177307,23.357689380645752 29.932156205177307,23.357689380645752 29.93443012237549,23.319904506206512 29.93443012237549,23.319904506206512 29.93578314781189,23.282042145729065 29.93578314781189,23.282042145729065" stroke="white" stroke-width="0.1" /><polygon points="34.70979332923889,35.63027381896973 34.70979332923889,35.63027381896973 37.24701404571533,11.461754888296127 37.24701404571533,11.461754888296127 33.80308151245117,11.461754888296127 33.80308151245117,11.461754888296127 31.265857815742493,35.63027381896973 31.265857815742493,35.63027381896973" stroke="white" stroke-width="0.1" /><polygon points="52.41330862045288,35.63027381896973 52.41330862045288,35.63027381896973 54.225754737854004,18.38011145591736 54.225754737854004,18.38011145591736 50.781816244125366,18.38011145591736 50.781816244125366,18.38011145591736 49.513205885887146,30.464372038841248 49.513205885887146,30.464372038841248 49.489542841911316,30.635255575180054 49.489542841911316,30.635255575180054 49.449530243873596,30.800500512123108 49.449530243873596,30.800500512123108 49.39310848712921,30.96010684967041 49.39310848712921,30.96010684967041 49.32021200656891,31.114041805267334 49.32021200656891,31.114041805267334 49.23078119754791,31.262323260307312 49.23078119754791,31.262323260307312 49.12487864494324,31.404903531074524 49.12487864494324,31.404903531074524 49.00231957435608,31.541800498962402 49.00231957435608,31.541800498962402 48.86316657066345,31.672993302345276 48.86316657066345,31.672993302345276 48.714855313301086,31.79330825805664 48.714855313301086,31.79330825805664 48.564085364341736,31.89758062362671 48.564085364341736,31.89758062362671 48.410916328430176,31.98581337928772 48.410916328430176,31.98581337928772 48.25541377067566,32.058003544807434 48.25541377067566,32.058003544807434 48.09745252132416,32.11414813995361 48.09745252132416,32.11414813995361 47.93715476989746,32.154253125190735 47.93715476989746,32.154253125190735 47.77439832687378,32.1783185005188 47.77439832687378,32.1783185005188 47.60930836200714,32.18633830547333 47.60930836200714,32.18633830547333 44.13488507270813,32.18633830547333 44.13488507270813,32.18633830547333 43.97243857383728,32.17923939228058 43.97243857383728,32.17923939228058 43.81699562072754,32.157957553863525 43.81699562072754,32.157957553863525 43.668559193611145,32.12250769138336 43.668559193611145,32.12250769138336 43.52725446224213,32.072874903678894 43.52725446224213,32.072874903678894 43.39289665222168,32.00910687446594 43.39289665222168,32.00910687446594 43.26566457748413,31.931185722351074 43.26566457748413,31.931185722351074 43.145567178726196,31.839144229888916 43.145567178726196,31.839144229888916 43.03247332572937,31.732982397079468 43.03247332572937,31.732982397079468 42.92982816696167,31.616908311843872 42.92982816696167,31.616908311843872 42.84088909626007,31.49513304233551 42.84088909626007,31.49513304233551 42.7655965089798,31.367671489715576 42.7655965089798,31.367671489715576 42.704132199287415,31.234511733055115 42.704132199287415,31.234511733055115 42.65625178813934,31.09569549560547 42.65625178813934,31.09569549560547 42.62214004993439,30.951210856437683 42.62214004993439,30.951210856437683 42.60167181491852,30.801084637641907 42.60167181491852,30.801084637641907 42.594850063323975,30.64531981945038 42.594850063323975,30.64531981945038 42.594850063323975,30.464372038841248 42.594850063323975,30.464372038841248 43.863463401794434,18.38011145591736 43.863463401794434,18.38011145591736 40.419527888298035,18.38011145591736 40.419527888298035,18.38011145591736 39.150914549827576,30.464372038841248 39.150914549827576,30.464372038841248 39.14366364479065,30.502310395240784 39.14366364479065,30.502310395240784 39.13745582103729,30.540171265602112 39.13745582103729,30.540171265602112 39.13223147392273,30.577954649925232 39.13223147392273,30.577954649925232 39.127928018569946,30.61569333076477 39.127928018569946,30.61569333076477 39.12467062473297,30.653372406959534 39.12467062473297,30.653372406959534 39.122274518013,30.691033601760864 39.122274518013,30.691033601760864 39.1209214925766,30.728664994239807 39.1209214925766,30.728664994239807 39.1204297542572,30.766281485557556 39.1204297542572,30.766281485557556 39.1204297542572,31.038686633110046 39.1204297542572,31.038686633110046 39.12608325481415,31.27811849117279 39.12608325481415,31.27811849117279 39.143046736717224,31.513309478759766 39.143046736717224,31.513309478759766 39.171382784843445,31.74425959587097 39.171382784843445,31.74425959587097 39.211151003837585,31.97096884250641 39.211151003837585,31.97096884250641 39.2621636390686,32.19343721866608 39.2621636390686,32.19343721866608 39.32461142539978,32.411664724349976 39.32461142539978,32.411664724349976 39.3982470035553,32.625651359558105 39.3982470035553,32.625651359558105 39.4833117723465,32.83539414405823 39.4833117723465,32.83539414405823 39.57790434360504,33.04002285003662 39.57790434360504,33.04002285003662 39.68116343021393,33.23795199394226 39.68116343021393,33.23795199394226 39.79290425777435,33.42919647693634 39.79290425777435,33.42919647693634 39.91318941116333,33.613771200180054 39.91318941116333,33.613771200180054 40.04201591014862,33.79170894622803 40.04201591014862,33.79170894622803 40.17932713031769,33.96303951740265 40.17932713031769,33.96303951740265 40.32524228096008,34.12776291370392 40.32524228096008,34.12776291370392 40.47951400279999,34.28593873977661 40.47951400279999,34.28593873977661 40.641412138938904,34.436801075935364 40.641412138938904,34.436801075935364 40.80994427204132,34.57965850830078 40.80994427204132,34.57965850830078 40.985116362571716,34.71446335315704 40.985116362571716,34.71446335315704 41.16692543029785,34.841203689575195 41.16692543029785,34.841203689575195 41.355374455451965,34.95987355709076 41.355374455451965,34.95987355709076 41.55046045780182,35.070475935935974 41.55046045780182,35.070475935935974 41.75218343734741,35.17298400402069 41.75218343734741,35.17298400402069 41.960546374320984,35.26739180088043 41.960546374320984,35.26739180088043 42.17376410961151,35.35244166851044 42.17376410961151,35.35244166851044 42.39073097705841,35.426151752471924 42.39073097705841,35.426151752471924 42.61156916618347,35.48852205276489 42.61156916618347,35.48852205276489 42.836156487464905,35.53955256938934 42.836156487464905,35.53955256938934 43.06461811065674,35.579243302345276 43.06461811065674,35.579243302345276 43.29688847064972,35.60759425163269 43.29688847064972,35.60759425163269 43.532970547676086,35.624587535858154 43.532970547676086,35.624587535858154 43.77298653125763,35.63027381896973 43.77298653125763,35.63027381896973 47.24740982055664,35.63027381896973 47.24740982055664,35.63027381896973 47.48035669326782,35.61801016330719 47.48035669326782,35.61801016330719 47.711458802223206,35.581210255622864 47.711458802223206,35.581210255622864 47.94084131717682,35.51986813545227 47.94084131717682,35.51986813545227 48.16838204860687,35.43395698070526 48.16838204860687,35.43395698070526 48.39407503604889,35.323476791381836 48.39407503604889,35.323476791381836 48.617926239967346,35.188427567481995 48.617926239967346,35.188427567481995 48.839810490608215,35.02877354621887 48.839810490608215,35.02877354621887 49.059849977493286,34.844520688056946 49.059849977493286,34.844520688056946 48.96937608718872,35.63027381896973 48.96937608718872,35.63027381896973" stroke="white" stroke-width="0.1" /><polygon points="66.49096012115479,21.824046969413757 66.49096012115479,21.824046969413757 66.85384511947632,18.38011145591736 66.85384511947632,18.38011145591736 63.379424810409546,18.38011145591736 63.379424810409546,18.38011145591736 63.146597146987915,18.392373621463776 63.146597146987915,18.392373621463776 62.916600704193115,18.42917501926422 62.916600704193115,18.42917501926422 62.68949508666992,18.490515649318695 62.68949508666992,18.490515649318695 62.465089559555054,18.576426804065704 62.465089559555054,18.576426804065704 62.24357485771179,18.68690699338913 62.24357485771179,18.68690699338913 62.02494502067566,18.82195919752121 62.02494502067566,18.82195919752121 61.809271574020386,18.9815953373909 61.809271574020386,18.9815953373909 61.59648299217224,19.16586309671402 61.59648299217224,19.16586309671402 61.65745258331299,18.38011145591736 61.65745258331299,18.38011145591736 58.21352005004883,18.38011145591736 58.21352005004883,18.38011145591736 56.40009641647339,35.63027381896973 56.40009641647339,35.63027381896973 59.84501242637634,35.63027381896973 59.84501242637634,35.63027381896973 61.1136257648468,23.546014726161957 61.1136257648468,23.546014726161957 61.13673448562622,23.368169367313385 61.13673448562622,23.368169367313385 61.17594838142395,23.197484016418457 61.17594838142395,23.197484016418457 61.23120188713074,23.0339452624321 61.23120188713074,23.0339452624321 61.302441358566284,22.877535223960876 61.302441358566284,22.877535223960876 61.38972043991089,22.728224098682404 61.38972043991089,22.728224098682404 61.493098735809326,22.585982084274292 61.493098735809326,22.585982084274292 61.6125226020813,22.450807690620422 61.6125226020813,22.450807690620422 61.74793243408203,22.3226398229599 61.74793243408203,22.3226398229599 61.893290281295776,22.205781936645508 61.893290281295776,22.205781936645508 62.04240322113037,22.104506194591522 62.04240322113037,22.104506194591522 62.19526529312134,22.018809616565704 62.19526529312134,22.018809616565704 62.35199570655823,21.948695182800293 62.35199570655823,21.948695182800293 62.51247525215149,21.89416140317917 62.51247525215149,21.89416140317917 62.6767098903656,21.85520827770233 62.6767098903656,21.85520827770233 62.84474730491638,21.8318372964859 62.84474730491638,21.8318372964859 63.01653981208801,21.824046969413757 63.01653981208801,21.824046969413757" stroke="white" stroke-width="0.1" /><polygon points="74.44486021995544,24.18818771839142 74.44486021995544,41.71468913555145 66.49096012115479,21.824046969413757 66.85384511947632,18.38011145591736 63.379424810409546,18.38011145591736 63.146597146987915,18.392373621463776 62.916600704193115,18.42917501926422 62.68949508666992,18.490515649318695 62.465089559555054,18.576426804065704 62.24357485771179,18.68690699338913 62.02494502067566,18.82195919752121 61.809271574020386,18.9815953373909 61.59648299217224,19.16586309671402 61.65745258331299,18.38011145591736 58.21352005004883,18.38011145591736 52.41330862045288,35.63027381896973 54.225754737854004,18.38011145591736 50.781816244125366,18.38011145591736 49.513205885887146,30.464372038841248 49.489542841911316,30.635255575180054 49.449530243873596,30.800500512123108 49.39310848712921,30.96010684967041 49.32021200656891,31.114041805267334 49.23078119754791,31.262323260307312 49.12487864494324,31.404903531074524 49.00231957435608,31.541800498962402 48.86316657066345,31.672993302345276 48.714855313301086,31.79330825805664 48.564085364341736,31.89758062362671 48.410916328430176,31.98581337928772 48.25541377067566,32.058003544807434 48.09745252132416,32.11414813995361 47.93715476989746,32.154253125190735 47.77439832687378,32.1783185005188 47.60930836200714,32.18633830547333 44.13488507270813,32.18633830547333 43.97243857383728,32.17923939228058 43.81699562072754,32.157957553863525 43.668559193611145,32.12250769138336 43.52725446224213,32.072874903678894 43.39289665222168,32.00910687446594 43.26566457748413,31.931185722351074 43.145567178726196,31.839144229888916 43.03247332572937,31.732982397079468 42.92982816696167,31.616908311843872 42.84088909626007,31.49513304233551 42.7655965089798,31.367671489715576 42.704132199287415,31.234511733055115 42.65625178813934,31.09569549560547 42.62214004993439,30.951210856437683 42.60167181491852,30.801084637641907 42.594850063323975,30.64531981945038 42.594850063323975,30.464372038841248 43.863463401794434,18.38011145591736 40.419527888298035,18.38011145591736 34.70979332923889,35.63027381896973 37.24701404571533,11.461754888296127 4.845308139920235,11.260154098272324 5.251153185963631,11.219188570976257 5.629216507077217,11.101730912923813 5.971384793519974,10.9158955514431 6.269422173500061,10.669856518507004 6.5154001116752625,10.371726751327515 6.701020896434784,10.029619187116623 6.818416714668274,9.651709347963333 6.859351694583893,9.246110916137695 6.818416714668274,8.839958161115646 6.701020896434784,8.46177190542221 6.515339016914368,8.119634538888931 6.269422173500061,7.821627706289291 5.971384793519974,7.575803250074387 5.629216507077217,7.390213757753372 5.251153185963631,7.2729408740997314 4.845308139920235,7.232066988945007 4.439401626586914,7.2729408740997314 4.061399772763252,7.390213757753372 3.7192311137914658,7.575803250074387 3.4211937338113785,7.821627706289291 3.1752772629261017,8.119634538888931 2.9895953834056854,8.46177190542221 2.8721382841467857,8.839958161115646 2.8312649577856064,9.246110916137695 2.8721997514367104,9.651709347963333 2.9895953834056854,10.029619187116623 3.1752772629261017,10.371726751327515 3.4211937338113785,10.669856518507004 3.719354048371315,10.9158955514431 4.061276838183403,11.101730912923813 4.439401626586914,11.219188570976257 4.845308139920235,11.260154098272324 37.24701404571533,11.461754888296127 33.80308151245117,11.461754888296127 29.930618405342102,22.70244061946869 29.913780093193054,22.467003762722015 29.885566234588623,22.2358837723732 29.8460453748703,22.009052336215973 29.795154929161072,21.78652286529541 29.732951521873474,21.56825065612793 29.65938150882721,21.354249119758606 29.574376344680786,21.144503355026245 29.479414224624634,20.940151810646057 29.375970363616943,20.74236124753952 29.26410734653473,20.551133155822754 29.14363741874695,20.366495847702026 29.014748334884644,20.188435912132263 28.877440094947815,20.016998052597046 28.73152494430542,19.85216736793518 28.577187657356262,19.69396024942398 28.415292501449585,19.543634355068207 28.246760368347168,19.401715695858 28.071588277816772,19.268201291561127 27.889901399612427,19.14312243461609 27.70157754421234,19.026464223861694 27.506735920906067,18.918272852897644 27.305197715759277,18.818531930446625 27.0971417427063,18.72725784778595 26.883617043495178,18.646003305912018 26.6664057970047,18.575519323349 26.445379853248596,18.515853583812714 26.220792531967163,18.467020988464355 25.992393493652344,18.42900514602661 25.760245323181152,18.4018537402153 25.52434802055359,18.385550379753113 25.284698605537415,18.38011145591736 21.810278296470642,18.38011145591736 21.577516198158264,18.392373621463776 21.347518265247345,18.42917501926422 21.120287477970123,18.490515649318695 20.89594453573227,18.576426804065704 20.674429833889008,18.68690699338913 20.455802977085114,18.82195919752121 20.240065455436707,18.9815953373909 20.027339458465576,19.16586309671402 20.813091099262238,11.461754888296127 17.36915558576584,11.461754888296127 14.830949902534485,35.63027381896973 18.275868892669678,35.63027381896973 18.366342782974243,34.844520688056946 18.543851375579834,35.02877354621887 18.72885674238205,35.188427567481995 18.921422958374023,35.323476791381836 19.12160962820053,35.43395698070526 19.329296052455902,35.51985323429108 19.544602930545807,35.581210255622864 19.76747065782547,35.61801016330719 19.997836649417877,35.63027381896973 23.471274971961975,35.63027381896973 23.734523355960846,35.623666644096375 23.99531453847885,35.6038898229599 24.25376921892166,35.57089865207672 24.509888887405396,35.524678230285645 24.76361095905304,35.46522855758667 25.01499652862549,35.39254665374756 25.264108180999756,35.30660569667816 25.510886311531067,35.20740270614624 25.753054022789,35.09736657142639 25.989195704460144,34.978896379470825 26.219254732131958,34.851959347724915 26.44316852092743,34.71655249595642 26.660996675491333,34.57260727882385 26.872798800468445,34.4200998544693 27.078518271446228,34.25898849964142 27.27809250354767,34.08925533294678 27.469858527183533,33.91177952289581 27.65277326107025,33.72674286365509 27.826717495918274,33.53414535522461 27.991807460784912,33.33398997783661 28.147926926612854,33.12627375125885 28.295069932937622,32.91099667549133 28.43330204486847,32.68815875053406 28.562438488006592,32.45776295661926 28.681185841560364,32.22201764583588 28.78800928592682,31.982415914535522 28.88297140598297,31.738975644111633 28.966131806373596,31.491675972938538 29.03742790222168,31.240564584732056 29.097047448158264,30.985629558563232 29.14499044418335,30.726882815361023 29.181009531021118,30.464372038841248 29.90677058696747,23.546014726161957 29.913654923439026,23.508398234844208 29.91967797279358,23.470766842365265 29.924720525741577,23.433120548725128 29.928898811340332,23.39542806148529 29.932156205177307,23.357689380645752 29.93443012237549,23.319904506206512 29.93578314781189,23.282042145729065 29.936274886131287,23.24410378932953 29.936274886131287,22.94219434261322 29.930618405342102,22.70244061946869 33.80308151245117,11.461754888296127 31.265857815742493,35.63027381896973 34.70979332923889,35.63027381896973 40.419527888298035,18.38011145591736 39.150914549827576,30.464372038841248 39.14366364479065,30.502310395240784 39.13745582103729,30.540171265602112 39.13223147392273,30.577954649925232 39.127928018569946,30.61569333076477 39.12467062473297,30.653372406959534 39.122274518013,30.691033601760864 39.1209214925766,30.728664994239807 39.1204297542572,30.766281485557556 39.1204297542572,31.038686633110046 39.12608325481415,31.27811849117279 39.143046736717224,31.513309478759766 39.171382784843445,31.74425959587097 39.211151003837585,31.97096884250641 39.2621636390686,32.19343721866608 39.32461142539978,32.411664724349976 39.3982470035553,32.625651359558105 39.4833117723465,32.83539414405823 39.57790434360504,33.04002285003662 39.68116343021393,33.23795199394226 39.79290425777435,33.42919647693634 39.91318941116333,33.613771200180054 40.04201591014862,33.79170894622803 40.17932713031769,33.96303951740265 40.32524228096008,34.12776291370392 40.47951400279999,34.28593873977661 40.641412138938904,34.436801075935364 40.80994427204132,34.57965850830078 40.985116362571716,34.71446335315704 41.16692543029785,34.841203689575195 41.355374455451965,34.95987355709076 41.55046045780182,35.070475935935974 41.75218343734741,35.17298400402069 41.960546374320984,35.26739180088043 42.17376410961151,35.35244166851044 42.39073097705841,35.426151752471924 42.61156916618347,35.48852205276489 42.836156487464905,35.53955256938934 43.06461811065674,35.579243302345276 43.29688847064972,35.60759425163269 43.532970547676086,35.624587535858154 43.77298653125763,35.63027381896973 47.24740982055664,35.63027381896973 47.48035669326782,35.61801016330719 47.711458802223206,35.581210255622864 47.94084131717682,35.51986813545227 48.16838204860687,35.43395698070526 48.39407503604889,35.323476791381836 48.617926239967346,35.188427567481995 48.839810490608215,35.02877354621887 49.059849977493286,34.844520688056946 48.96937608718872,35.63027381896973 52.41330862045288,35.63027381896973 58.21352005004883,18.38011145591736 56.40009641647339,35.63027381896973 59.84501242637634,35.63027381896973 61.1136257648468,23.546014726161957 61.13673448562622,23.368169367313385 61.17594838142395,23.197484016418457 61.23120188713074,23.0339452624321 61.302441358566284,22.877535223960876 61.38972043991089,22.728224098682404 61.493098735809326,22.585982084274292 61.6125226020813,22.450807690620422 61.74793243408203,22.3226398229599 61.893290281295776,22.205781936645508 62.04240322113037,22.104506194591522 62.19526529312134,22.018809616565704 62.35199570655823,21.948695182800293 62.51247525215149,21.89416140317917 62.6767098903656,21.85520827770233 62.84474730491638,21.8318372964859 63.01653981208801,21.824046969413757 66.49096012115479,21.824046969413757 74.44486021995544,41.71468913555145 74.44836497306824,41.97975397109985 4.845308139920235,41.74222648143768 5.251153185963631,41.70126020908356 5.629216507077217,41.58380329608917 5.971384793519974,41.39796793460846 6.269422173500061,41.15192890167236 6.5154001116752625,40.85378348827362 6.701020896434784,40.51169157028198 6.818416714668274,40.13378322124481 6.859351694583893,39.728182554244995 6.818416714668274,39.322030544281006 6.701020896434784,38.94384503364563 6.515339016914368,38.601723313331604 6.269422173500061,38.30370008945465 5.971384793519974,38.05786073207855 5.629216507077217,37.87228465080261 5.251153185963631,37.755027413368225 4.845308139920235,37.71413862705231 4.439401626586914,37.755027413368225 4.061399772763252,37.87228465080261 3.7192311137914658,38.057875633239746 3.4211937338113785,38.30370008945465 3.1752772629261017,38.60170543193817 2.9895953834056854,38.94384503364563 2.8721382841467857,39.322030544281006 2.8312649577856064,39.728182554244995 2.8721997514367104,40.13378322124481 2.9895953834056854,40.51169157028198 3.1752772629261017,40.853798389434814 3.4211937338113785,41.15192890167236 3.719354048371315,41.39796793460846 4.061276838183403,41.58380329608917 4.439401626586914,41.70127511024475 4.845308139920235,41.74222648143768 74.44836497306824,41.97975397109985 74.45850372314453,42.24315583705902 74.47534799575806,42.504897713661194 74.49833154678345,42.76498258113861 74.52734112739563,43.02340745925903 74.56225752830505,43.28017234802246 74.60269927978516,43.5352623462677 74.64842796325684,43.78872215747833 4.365399479866028,43.78872215747833 3.488311916589737,43.69964599609375 2.6701685041189194,43.44434142112732 1.9288545474410057,43.0406928062439 1.2821332551538944,42.506587505340576 0.7480749394744635,41.85991287231445 0.34431975800544024,41.11855328083038 0.08912239572964609,40.30039608478546 0.0,39.423322677612305 0.0,9.55195426940918 0.08906093426048756,8.674882352352142 0.34431975800544024,7.856722921133041 0.7480749394744635,7.115363329648972 1.2821332551538944,6.468687951564789 1.9288545474410057,5.934583395719528 2.670229971408844,5.530935898423195 3.488311916589737,5.275630950927734 4.365399479866028,5.186554789543152 68.80003213882446,5.186554789543152 68.61853003501892,5.802897363901138 68.45632791519165,6.438709050416946 68.3148980140686,7.094081491231918 68.19584369659424,7.769137620925903 68.10057163238525,8.46395418047905 68.03069114685059,9.17866975069046 67.98760294914246,9.913361072540283 67.97297596931458,10.668135434389114 68.08330416679382,12.6289501786232 68.40900182723999,14.540565013885498 68.94232034683228,16.388870775699615 69.67515349388123,18.15982460975647 70.59975266456604,19.839321076869965 71.70812487602234,21.413253247737885 72.9924738407135,22.867578268051147" stroke="white" stroke-width="0.1" /></svg>