<?xml version="1.0" encoding="utf-8" ?>
<svg baseProfile="full" height="64.27921056747437" version="1.1" width="100.0005841255188" xmlns="http://www.w3.org/2000/svg" xmlns:ev="http://www.w3.org/2001/xml-events" xmlns:xlink="http://www.w3.org/1999/xlink"><defs><clipPath /></defs><polygon points="97.14541435241699,23.837921023368835 97.14541435241699,23.837921023368835 98.39468598365784,25.716492533683777 98.39468598365784,25.716492533683777 99.28694367408752,27.763837575912476 99.28694367408752,27.763837575912476 99.82227683067322,29.923683404922485 99.82227683067322,29.923683404922485 100.0005841255188,32.13980197906494 100.0005841255188,32.13980197906494 99.8218834400177,34.355998039245605 99.8218834400177,34.355998039245605 99.28635358810425,36.516064405441284 99.28635358810425,36.516064405441284 98.3936071395874,38.56375217437744 98.3936071395874,38.56375217437744 97.14384078979492,40.44286012649536 97.14384078979492,40.44286012649536 96.02511525154114,41.745540499687195 96.02511525154114,41.745540499687195 93.329519033432,44.5764422416687 93.329519033432,44.5764422416687 89.16367292404175,48.411017656326294 89.16367292404175,48.411017656326294 83.63339900970459,52.724725008010864 83.63339900970459,52.724725008010864 76.84561610221863,56.992971897125244 76.84561610221863,56.992971897125244 68.90643835067749,60.691165924072266 68.90643835067749,60.691165924072266 59.92259383201599,63.29476237297058 59.92259383201599,63.29476237297058 50.0,64.27921056747437 50.0,64.27921056747437 40.07740616798401,63.29476237297058 40.07740616798401,63.29476237297058 31.09346032142639,60.691142082214355 31.09346032142639,60.691142082214355 23.154287040233612,56.9928765296936 23.154287040233612,56.9928765296936 16.36640429496765,52.724528312683105 16.36640429496765,52.724528312683105 10.836131870746613,48.410651087760925 10.836131870746613,48.410651087760925 6.669792532920837,44.575780630111694 6.669792532920837,44.575780630111694 3.9738040417432785,41.74448549747467 3.9738040417432785,41.74448549747467 2.854587137699127,40.44129252433777 2.854587137699127,40.44129252433777 1.6053128987550735,38.56272101402283 1.6053128987550735,38.56272101402283 0.7130582816898823,36.51537597179413 0.7130582816898823,36.51537597179413 0.17772511346265674,34.35553014278412 0.17772511346265674,34.35553014278412 -0.0005884937763767084,32.13941156864166 -0.0005884937763767084,32.13941156864166 0.1781174447387457,29.923215508461 0.1781174447387457,29.923215508461 0.7136467844247818,27.76314914226532 0.7136467844247818,27.76314914226532 1.6063917428255081,25.715461373329163 1.6063917428255081,25.715461373329163 2.8561564162373543,23.836351931095123 2.8561564162373543,23.836351931095123 3.974883258342743,22.53367155790329 3.974883258342743,22.53367155790329 6.670478731393814,19.702771306037903 6.670478731393814,19.702771306037903 10.836327821016312,15.86819440126419 10.836327821016312,15.86819440126419 16.36659950017929,11.55448630452156 16.36659950017929,11.55448630452156 23.15438538789749,7.286239415407181 23.15438538789749,7.286239415407181 31.09355866909027,3.588046506047249 31.09355866909027,3.588046506047249 40.07740616798401,0.9844520129263401 40.07740616798401,0.9844520129263401 50.0,0.0 50.0,0.0 59.92259383201599,0.9844520129263401 59.92259383201599,0.9844520129263401 68.90653967857361,3.5880710929632187 68.90653967857361,3.5880710929632187 76.84571146965027,7.28633776307106 76.84571146965027,7.28633776307106 83.63359570503235,11.55468299984932 83.63359570503235,11.55468299984932 89.1638696193695,15.868562459945679 89.1638696193695,15.868562459945679 93.3302104473114,19.70343291759491 93.3302104473114,19.70343291759491 96.02619409561157,22.534726560115814 96.02619409561157,22.534726560115814" stroke="white" stroke-width="0.1" /><polygon points="50.0,43.09500753879547 50.0,43.09500753879547 52.20891237258911,42.87265241146088 52.20891237258911,42.87265241146088 54.26579713821411,42.23484992980957 54.26579713821411,42.23484992980957 56.126612424850464,41.225436329841614 56.126612424850464,41.225436329841614 57.74732232093811,39.888304471969604 57.74732232093811,39.888304471969604 59.08437967300415,38.26729655265808 59.08437967300415,38.26729655265808 60.09364724159241,36.40626072883606 60.09364724159241,36.40626072883606 60.73157787322998,34.34905707836151 60.73157787322998,34.34905707836151 60.95383167266846,32.13960528373718 60.95383167266846,32.13960528373718 60.73157787322998,29.930129647254944 60.73157787322998,29.930129647254944 60.093748569488525,27.872952818870544 60.093748569488525,27.872952818870544 59.08437967300415,26.011914014816284 59.08437967300415,26.011914014816284 57.74732232093811,24.390909075737 57.74732232093811,24.390909075737 56.126415729522705,23.05377721786499 56.126415729522705,23.05377721786499 54.26579713821411,22.044363617897034 54.26579713821411,22.044363617897034 52.20891237258911,21.406559646129608 52.20891237258911,21.406559646129608 50.0,21.184206008911133 50.0,21.184206008911133 47.79098927974701,21.406559646129608 47.79098927974701,21.406559646129608 45.73381245136261,22.044363617897034 45.73381245136261,22.044363617897034 43.87240707874298,23.05377721786499 43.87240707874298,23.05377721786499 42.25110709667206,24.390909075737 42.25110709667206,24.390909075737 40.91345965862274,26.011914014816284 40.91345965862274,26.011914014816284 39.90360498428345,27.872952818870544 39.90360498428345,27.872952818870544 39.265480637550354,29.930156469345093 39.265480637550354,29.930156469345093 39.04303014278412,32.13960528373718 39.04303014278412,32.13960528373718 39.265480637550354,34.34908092021942 39.265480637550354,34.34908092021942 39.90360498428345,36.40626072883606 39.90360498428345,36.40626072883606 40.91345965862274,38.26729655265808 40.91345965862274,38.26729655265808 42.25110709667206,39.888304471969604 42.25110709667206,39.888304471969604 43.87260377407074,41.225436329841614 43.87260377407074,41.225436329841614 45.73361575603485,42.23484992980957 45.73361575603485,42.23484992980957 47.79098927974701,42.87265241146088 47.79098927974701,42.87265241146088" stroke="white" stroke-width="0.1" /><polygon points="8.9199960231781,35.554438829422 8.9199960231781,35.554438829422 9.290943294763565,35.99522113800049 9.290943294763565,35.99522113800049 10.379460453987122,37.20996975898743 10.379460453987122,37.20996975898743 12.148669362068176,39.03719484806061 12.148669362068176,39.03719484806061 14.561690390110016,41.31540060043335 14.561690390110016,41.31540060043335 17.581741511821747,43.883147835731506 17.581741511821747,43.883147835731506 21.172043681144714,46.578988432884216 21.172043681144714,46.578988432884216 25.295522809028625,49.241405725479126 25.295522809028625,49.241405725479126 29.915884137153625,51.708984375 29.915884137153625,51.708984375 28.15883755683899,49.730175733566284 28.15883755683899,49.730175733566284 26.592659950256348,47.59131968021393 26.592659950256348,47.59131968021393 25.230494141578674,45.305684208869934 25.230494141578674,45.305684208869934 24.08587336540222,42.886483669281006 24.08587336540222,42.886483669281006 23.17233383655548,40.347033739089966 23.17233383655548,40.347033739089966 22.503021359443665,37.700554728507996 22.503021359443665,37.700554728507996 22.091761231422424,34.96032953262329 22.091761231422424,34.96032953262329 21.951602399349213,32.13960528373718 21.951602399349213,32.13960528373718 22.091761231422424,29.318881034851074 22.091761231422424,29.318881034851074 22.503021359443665,26.57865881919861 22.503021359443665,26.57865881919861 23.17233383655548,23.93217831850052 23.17233383655548,23.93217831850052 24.08587336540222,21.392729878425598 24.08587336540222,21.392729878425598 25.230494141578674,18.9735546708107 25.230494141578674,18.9735546708107 26.592659950256348,16.687893867492676 26.592659950256348,16.687893867492676 28.15883755683899,14.54903781414032 28.15883755683899,14.54903781414032 29.915884137153625,12.570226192474365 29.915884137153625,12.570226192474365 25.295621156692505,15.037806332111359 25.295621156692505,15.037806332111359 21.172043681144714,17.700225114822388 21.172043681144714,17.700225114822388 17.581741511821747,20.396041870117188 17.581741511821747,20.396041870117188 14.561690390110016,22.963811457157135 14.561690390110016,22.963811457157135 12.148669362068176,25.242042541503906 12.148669362068176,25.242042541503906 10.379460453987122,27.06924080848694 10.379460453987122,27.06924080848694 9.290943294763565,28.283965587615967 9.290943294763565,28.283965587615967 8.9199960231781,28.724774718284607 8.9199960231781,28.724774718284607 8.424092084169388,29.47973608970642 8.424092084169388,29.47973608970642 8.069916814565659,30.319344997406006 8.069916814565659,30.319344997406006 7.857372611761093,31.215375661849976 7.857372611761093,31.215375661849976 7.786557078361511,32.13960528373718 7.786557078361511,32.13960528373718 7.857372611761093,33.06383490562439 7.857372611761093,33.06383490562439 8.069916814565659,33.95986557006836 8.069916814565659,33.95986557006836 8.423993736505508,34.799474477767944 8.423993736505508,34.799474477767944" stroke="white" stroke-width="0.1" /><polygon points="91.0800039768219,35.554438829422 91.0800039768219,35.554438829422 91.57590866088867,34.799474477767944 91.57590866088867,34.799474477767944 91.93008542060852,33.95986557006836 91.93008542060852,33.95986557006836 92.14262962341309,33.06383490562439 92.14262962341309,33.06383490562439 92.21343994140625,32.13960528373718 92.21343994140625,32.13960528373718 92.14262962341309,31.215375661849976 92.14262962341309,31.215375661849976 91.93008542060852,30.319344997406006 91.93008542060852,30.319344997406006 91.57600402832031,29.47973608970642 91.57600402832031,29.47973608970642 91.0800039768219,28.724774718284607 91.0800039768219,28.724774718284607 90.70905447006226,28.283992409706116 90.70905447006226,28.283992409706116 89.62053656578064,27.06924080848694 89.62053656578064,27.06924080848694 87.85133361816406,25.242018699645996 87.85133361816406,25.242018699645996 85.4383111000061,22.963811457157135 85.4383111000061,22.963811457157135 82.41825699806213,20.396065711975098 82.41825699806213,20.396065711975098 78.82795333862305,17.700225114822388 78.82795333862305,17.700225114822388 74.70448017120361,15.037806332111359 74.70448017120361,15.037806332111359 70.08411288261414,12.570226192474365 70.08411288261414,12.570226192474365 71.84116244316101,14.54903781414032 71.84116244316101,14.54903781414032 73.40734004974365,16.687893867492676 73.40734004974365,16.687893867492676 74.76950883865356,18.97352933883667 74.76950883865356,18.97352933883667 75.91412663459778,21.392729878425598 75.91412663459778,21.392729878425598 76.82766318321228,23.93217831850052 76.82766318321228,23.93217831850052 77.49698162078857,26.57865881919861 77.49698162078857,26.57865881919861 77.90823578834534,29.318881034851074 77.90823578834534,29.318881034851074 78.04839611053467,32.13960528373718 78.04839611053467,32.13960528373718 77.90823578834534,34.96032953262329 77.90823578834534,34.96032953262329 77.49698162078857,37.700554728507996 77.49698162078857,37.700554728507996 76.82766318321228,40.347033739089966 76.82766318321228,40.347033739089966 75.91412663459778,42.886483669281006 75.91412663459778,42.886483669281006 74.76950883865356,45.305657386779785 74.76950883865356,45.305657386779785 73.40734004974365,47.59131968021393 73.40734004974365,47.59131968021393 71.84116244316101,49.730175733566284 71.84116244316101,49.730175733566284 70.08411288261414,51.708984375 70.08411288261414,51.708984375 74.7043788433075,49.241405725479126 74.7043788433075,49.241405725479126 78.82795333862305,46.578988432884216 78.82795333862305,46.578988432884216 82.41825699806213,43.88317167758942 82.41825699806213,43.88317167758942 85.4383111000061,41.31540060043335 85.4383111000061,41.31540060043335 87.85133361816406,39.0371710062027 87.85133361816406,39.0371710062027 89.62053656578064,37.20996975898743 89.62053656578064,37.20996975898743 90.70905447006226,35.9952449798584 90.70905447006226,35.9952449798584" stroke="white" stroke-width="0.1" /><polygon points="97.14541435241699,23.837921023368835 98.39468598365784,25.716492533683777 99.28694367408752,27.763837575912476 91.0800039768219,35.554438829422 91.57590866088867,34.799474477767944 91.93008542060852,33.95986557006836 92.14262962341309,33.06383490562439 92.21343994140625,32.13960528373718 92.14262962341309,31.215375661849976 91.93008542060852,30.319344997406006 91.57600402832031,29.47973608970642 91.0800039768219,28.724774718284607 90.70905447006226,28.283992409706116 89.62053656578064,27.06924080848694 87.85133361816406,25.242018699645996 85.4383111000061,22.963811457157135 82.41825699806213,20.396065711975098 78.82795333862305,17.700225114822388 74.70448017120361,15.037806332111359 70.08411288261414,12.570226192474365 71.84116244316101,14.54903781414032 73.40734004974365,16.687893867492676 74.76950883865356,18.97352933883667 75.91412663459778,21.392729878425598 76.82766318321228,23.93217831850052 77.49698162078857,26.57865881919861 77.90823578834534,29.318881034851074 78.04839611053467,32.13960528373718 77.90823578834534,34.96032953262329 77.49698162078857,37.700554728507996 76.82766318321228,40.347033739089966 75.91412663459778,42.886483669281006 50.0,43.09500753879547 52.20891237258911,42.87265241146088 54.26579713821411,42.23484992980957 56.126612424850464,41.225436329841614 57.74732232093811,39.888304471969604 59.08437967300415,38.26729655265808 60.09364724159241,36.40626072883606 60.73157787322998,34.34905707836151 60.95383167266846,32.13960528373718 60.73157787322998,29.930129647254944 60.093748569488525,27.872952818870544 59.08437967300415,26.011914014816284 57.74732232093811,24.390909075737 56.126415729522705,23.05377721786499 54.26579713821411,22.044363617897034 52.20891237258911,21.406559646129608 50.0,21.184206008911133 47.79098927974701,21.406559646129608 45.73381245136261,22.044363617897034 43.87240707874298,23.05377721786499 42.25110709667206,24.390909075737 40.91345965862274,26.011914014816284 39.90360498428345,27.872952818870544 39.265480637550354,29.930156469345093 39.04303014278412,32.13960528373718 39.265480637550354,34.34908092021942 39.90360498428345,36.40626072883606 40.91345965862274,38.26729655265808 42.25110709667206,39.888304471969604 43.87260377407074,41.225436329841614 45.73361575603485,42.23484992980957 47.79098927974701,42.87265241146088 50.0,43.09500753879547 75.91412663459778,42.886483669281006 74.76950883865356,45.305657386779785 73.40734004974365,47.59131968021393 71.84116244316101,49.730175733566284 70.08411288261414,51.708984375 74.7043788433075,49.241405725479126 78.82795333862305,46.578988432884216 82.41825699806213,43.88317167758942 85.4383111000061,41.31540060043335 87.85133361816406,39.0371710062027 89.62053656578064,37.20996975898743 90.70905447006226,35.9952449798584 91.0800039768219,35.554438829422 99.28694367408752,27.763837575912476 99.82227683067322,29.923683404922485 100.0005841255188,32.13980197906494 99.8218834400177,34.355998039245605 99.28635358810425,36.516064405441284 98.3936071395874,38.56375217437744 97.14384078979492,40.44286012649536 96.02511525154114,41.745540499687195 93.329519033432,44.5764422416687 89.16367292404175,48.411017656326294 83.63339900970459,52.724725008010864 76.84561610221863,56.992971897125244 68.90643835067749,60.691165924072266 59.92259383201599,63.29476237297058 50.0,64.27921056747437 40.07740616798401,63.29476237297058 31.09346032142639,60.691142082214355 23.154287040233612,56.9928765296936 16.36640429496765,52.724528312683105 10.836131870746613,48.410651087760925 6.669792532920837,44.575780630111694 8.9199960231781,35.554438829422 9.290943294763565,35.99522113800049 10.379460453987122,37.20996975898743 12.148669362068176,39.03719484806061 14.561690390110016,41.31540060043335 17.581741511821747,43.883147835731506 21.172043681144714,46.578988432884216 25.295522809028625,49.241405725479126 29.915884137153625,51.708984375 28.15883755683899,49.730175733566284 26.592659950256348,47.59131968021393 25.230494141578674,45.305684208869934 24.08587336540222,42.886483669281006 23.17233383655548,40.347033739089966 22.503021359443665,37.700554728507996 22.091761231422424,34.96032953262329 21.951602399349213,32.13960528373718 22.091761231422424,29.318881034851074 22.503021359443665,26.57865881919861 23.17233383655548,23.93217831850052 24.08587336540222,21.392729878425598 25.230494141578674,18.9735546708107 26.592659950256348,16.687893867492676 28.15883755683899,14.54903781414032 29.915884137153625,12.570226192474365 25.295621156692505,15.037806332111359 21.172043681144714,17.700225114822388 17.581741511821747,20.396041870117188 14.561690390110016,22.963811457157135 12.148669362068176,25.242042541503906 10.379460453987122,27.06924080848694 9.290943294763565,28.283965587615967 8.9199960231781,28.724774718284607 8.424092084169388,29.47973608970642 8.069916814565659,30.319344997406006 7.857372611761093,31.215375661849976 7.786557078361511,32.13960528373718 7.857372611761093,33.06383490562439 8.069916814565659,33.95986557006836 8.423993736505508,34.799474477767944 8.9199960231781,35.554438829422 6.669792532920837,44.575780630111694 3.9738040417432785,41.74448549747467 2.854587137699127,40.44129252433777 1.6053128987550735,38.56272101402283 0.7130582816898823,36.51537597179413 0.17772511346265674,34.35553014278412 -0.0005884937763767084,32.13941156864166 0.1781174447387457,29.923215508461 0.7136467844247818,27.76314914226532 1.6063917428255081,25.715461373329163 2.8561564162373543,23.836351931095123 3.974883258342743,22.53367155790329 6.670478731393814,19.702771306037903 10.836327821016312,15.86819440126419 16.36659950017929,11.55448630452156 23.15438538789749,7.286239415407181 31.09355866909027,3.588046506047249 40.07740616798401,0.9844520129263401 50.0,0.0 59.92259383201599,0.9844520129263401 68.90653967857361,3.5880710929632187 76.84571146965027,7.28633776307106 83.63359570503235,11.55468299984932 89.1638696193695,15.868562459945679 93.3302104473114,19.70343291759491 96.02619409561157,22.534726560115814" stroke="white" stroke-width="0.1" /></svg>