<?xml version="1.0" encoding="utf-8" ?>
<svg baseProfile="full" height="100.0" version="1.1" width="91.31101369857788" xmlns="http://www.w3.org/2000/svg" xmlns:ev="http://www.w3.org/2001/xml-events" xmlns:xlink="http://www.w3.org/1999/xlink"><defs><clipPath /></defs><polygon points="91.31101369857788,74.64107871055603 91.31101369857788,74.64107871055603 91.22452139854431,77.25584506988525 91.22452139854431,77.25584506988525 90.62862396240234,79.69538569450378 90.62862396240234,79.69538569450378 89.57326412200928,81.9064199924469 89.57326412200928,81.9064199924469 88.10882568359375,83.83522629737854 88.10882568359375,83.83522629737854 86.28479838371277,85.4285180568695 86.28479838371277,85.4285180568695 84.15111899375916,86.63279414176941 84.15111899375916,86.63279414176941 81.75795078277588,87.39455342292786 81.75795078277588,87.39455342292786 79.15499806404114,87.66028881072998 79.15499806404114,87.66028881072998 56.94743990898132,87.66028881072998 56.94743990898132,87.66028881072998 57.02412724494934,26.11510455608368 57.02412724494934,26.11510455608368 56.979769468307495,25.118377804756165 56.979769468307495,25.118377804756165 56.83864951133728,24.13981854915619 56.83864951133728,24.13981854915619 56.60278797149658,23.185113072395325 56.60278797149658,23.185113072395325 56.27485513687134,22.260169684886932 56.27485513687134,22.260169684886932 55.85685968399048,21.370673179626465 55.85685968399048,21.370673179626465 55.3510308265686,20.522306859493256 55.3510308265686,20.522306859493256 54.759591817855835,19.720979034900665 54.759591817855835,19.720979034900665 54.08499836921692,18.972374498844147 54.08499836921692,18.972374498844147 53.33216190338135,18.290315568447113 53.33216190338135,18.290315568447113 52.528488636016846,17.69263595342636 52.528488636016846,17.69263595342636 51.67889595031738,17.181453108787537 51.67889595031738,17.181453108787537 50.78895688056946,16.758662462234497 50.78895688056946,16.758662462234497 49.864012002944946,16.426382958889008 49.864012002944946,16.426382958889008 48.90874922275543,16.186508536338806 48.90874922275543,16.186508536338806 47.92918860912323,16.041158139705658 47.92918860912323,16.041158139705658 46.9297856092453,15.992224216461182 46.9297856092453,15.992224216461182 41.40821397304535,15.992224216461182 41.40821397304535,15.992224216461182 42.50815808773041,12.672661244869232 42.50815808773041,12.672661244869232 44.12173926830292,9.625296294689178 44.12173926830292,9.625296294689178 46.19700908660889,6.902855634689331 46.19700908660889,6.902855634689331 48.68225157260895,4.557837545871735 48.68225157260895,4.557837545871735 51.52574181556702,2.6424087584018707 51.52574181556702,2.6424087584018707 54.6757698059082,1.2095156125724316 54.6757698059082,1.2095156125724316 58.08038115501404,0.3111011115834117 58.08038115501404,0.3111011115834117 61.68786287307739,0.0 61.68786287307739,0.0 65.89547395706177,0.42423889972269535 65.89547395706177,0.42423889972269535 69.8146104812622,1.6409998759627342 69.8146104812622,1.6409998759627342 73.36145043373108,3.5660143941640854 73.36145043373108,3.5660143941640854 76.45195126533508,6.115683540701866 76.45195126533508,6.115683540701866 79.00184392929077,9.205961972475052 79.00184392929077,9.205961972475052 80.92730641365051,12.752246856689453 80.92730641365051,12.752246856689453 82.14406967163086,16.671384871006012 82.14406967163086,16.671384871006012 82.56852626800537,20.878885686397552 82.56852626800537,20.878885686397552 82.44703412055969,23.136737942695618 82.44703412055969,23.136737942695618 82.09145665168762,25.32358467578888 82.09145665168762,25.32358467578888 81.51428699493408,27.42750346660614 81.51428699493408,27.42750346660614 80.72845339775085,29.436340928077698 80.72845339775085,29.436340928077698 79.74710464477539,31.33794665336609 79.74710464477539,31.33794665336609 78.5822868347168,33.12028646469116 78.5822868347168,33.12028646469116 77.24782228469849,34.771427512168884 77.24782228469849,34.771427512168884 75.75573921203613,36.2790048122406 75.75573921203613,36.2790048122406 78.3731758594513,36.5674763917923 78.3731758594513,36.5674763917923 80.84794282913208,37.34216392040253 80.84794282913208,37.34216392040253 83.12429785728455,38.5510116815567 83.12429785728455,38.5510116815567 85.14606356620789,40.14174044132233 85.14606356620789,40.14174044132233 86.85684204101562,42.06251800060272 86.85684204101562,42.06251800060272 88.2008969783783,44.26107108592987 88.2008969783783,44.26107108592987 89.12160396575928,46.68578803539276 89.12160396575928,46.68578803539276 89.56323266029358,49.28394258022308 89.56323266029358,49.28394258022308" stroke="white" stroke-width="0.1" /><polygon points="46.9297856092453,23.297248780727386 46.9297856092453,23.297248780727386 47.2048819065094,23.31106960773468 47.2048819065094,23.31106960773468 47.47529923915863,23.35197776556015 47.47529923915863,23.35197776556015 47.73924946784973,23.41919243335724 47.73924946784973,23.41919243335724 47.99495339393616,23.51193130016327 47.99495339393616,23.51193130016327 48.240846395492554,23.62930476665497 48.240846395492554,23.62930476665497 48.47514629364014,23.77053201198578 48.47514629364014,23.77053201198578 48.69629442691803,23.93472045660019 48.69629442691803,23.93472045660019 48.90228509902954,24.121204018592834 48.90228509902954,24.121204018592834 49.08820986747742,24.327415227890015 49.08820986747742,24.327415227890015 49.25161898136139,24.548786878585815 49.25161898136139,24.548786878585815 49.39228892326355,24.783755838871002 49.39228892326355,24.783755838871002 49.508658051490784,25.030764937400818 49.508658051490784,25.030764937400818 49.60050582885742,25.288137793540955 49.60050582885742,25.288137793540955 49.666717648506165,25.55420696735382 49.666717648506165,25.55420696735382 49.70662295818329,25.827521085739136 49.70662295818329,25.827521085739136 49.719107151031494,26.10618770122528 49.719107151031494,26.10618770122528 49.62993264198303,97.25704789161682 49.62993264198303,97.25704789161682 49.57375526428223,97.80813455581665 49.57375526428223,97.80813455581665 49.41279888153076,98.32221865653992 49.41279888153076,98.32221865653992 49.15798604488373,98.78803491592407 49.15798604488373,98.78803491592407 48.82069230079651,99.19432401657104 48.82069230079651,99.19432401657104 48.41183423995972,99.52994585037231 48.41183423995972,99.52994585037231 47.94323146343231,99.78353381156921 47.94323146343231,99.78353381156921 47.42491543292999,99.94404315948486 47.42491543292999,99.94404315948486 46.86914682388306,100.0 46.86914682388306,100.0 39.83520865440369,100.0 39.83520865440369,100.0 39.55899775028229,99.98629093170166 39.55899775028229,99.98629093170166 39.28813338279724,99.9454915523529 39.28813338279724,99.9454915523529 39.02418315410614,99.87850189208984 39.02418315410614,99.87850189208984 38.76870274543762,99.78621006011963 38.76870274543762,99.78621006011963 38.52325677871704,99.66917037963867 38.52325677871704,99.66917037963867 38.289400935173035,99.5282769203186 38.289400935173035,99.5282769203186 38.06869983673096,99.36419725418091 38.06869983673096,99.36419725418091 37.862709164619446,99.17782545089722 37.862709164619446,99.17782545089722 37.67678439617157,98.97105693817139 37.67678439617157,98.97105693817139 37.51315176486969,98.74924421310425 37.51315176486969,98.74924421310425 37.37270534038544,98.51382374763489 37.37270534038544,98.51382374763489 37.25588917732239,98.2667088508606 37.25588917732239,98.2667088508606 37.16359734535217,98.00910949707031 37.16359734535217,98.00910949707031 37.096717953681946,97.74304032325745 37.096717953681946,97.74304032325745 37.0561420917511,97.46983647346497 37.0561420917511,97.46983647346497 37.042322754859924,97.19105958938599 37.042322754859924,97.19105958938599 37.067291140556335,75.99828839302063 37.067291140556335,75.99828839302063 6.4489662647247314,75.99828839302063 6.4489662647247314,75.99828839302063 5.809487029910088,75.96707940101624 5.809487029910088,75.96707940101624 5.182714760303497,75.87400078773499 5.182714760303497,75.87400078773499 4.572327807545662,75.72062611579895 4.572327807545662,75.72062611579895 3.9813362061977386,75.50828456878662 3.9813362061977386,75.50828456878662 3.413417935371399,75.23820400238037 3.413417935371399,75.23820400238037 2.871916815638542,74.91171956062317 2.871916815638542,74.91171956062317 2.3601772263646126,74.5305061340332 2.3601772263646126,74.5305061340332 1.8815429881215096,74.09534454345703 1.8815429881215096,74.09534454345703 1.4525110833346844,73.6193835735321 1.4525110833346844,73.6193835735321 1.075868122279644,73.10998439788818 1.075868122279644,73.10998439788818 0.7532860152423382,72.57071137428284 0.7532860152423382,72.57071137428284 0.48599098809063435,72.00491428375244 0.48599098809063435,72.00491428375244 0.2756549743935466,71.41593098640442 0.2756549743935466,71.41593098640442 0.12328119482845068,70.80709934234619 0.12328119482845068,70.80709934234619 0.03109896497335285,70.18200159072876 0.03109896497335285,70.18200159072876 0.0,69.54396963119507 0.0,69.54396963119507 0.04280287539586425,36.09887361526489 0.04280287539586425,36.09887361526489 0.045032190973870456,35.934796929359436 0.045032190973870456,35.934796929359436 0.0512742786668241,35.77183485031128 0.0512742786668241,35.77183485031128 0.06197499460540712,35.61009764671326 0.06197499460540712,35.61009764671326 0.07668848265893757,35.44925153255463 0.07668848265893757,35.44925153255463 0.09530327515676618,35.28963327407837 0.09530327515676618,35.28963327407837 0.1181537751108408,35.13135015964508 0.1181537751108408,35.13135015964508 0.1445711706764996,34.97418463230133 0.1445711706764996,34.97418463230133 0.17477840883657336,34.81835424900055 0.17477840883657336,34.81835424900055 0.28702449053525925,34.36190187931061 0.28702449053525925,34.36190187931061 0.4314841702580452,33.919161558151245 0.4314841702580452,33.919161558151245 0.6067084614187479,33.49124193191528 0.6067084614187479,33.49124193191528 0.8116940967738628,33.07948708534241 0.8116940967738628,33.07948708534241 1.04465764015913,32.68512189388275 1.04465764015913,32.68512189388275 1.3045959174633026,32.30937123298645 1.3045959174633026,32.30937123298645 1.5899484977126122,31.95357322692871 1.5899484977126122,31.95357322692871 1.899377629160881,31.618839502334595 1.899377629160881,31.618839502334595 2.007053606212139,31.51227831840515 2.007053606212139,31.51227831840515 2.1172933280467987,31.408393383026123 2.1172933280467987,31.408393383026123 2.229985222220421,31.306734681129456 2.229985222220421,31.306734681129456 2.3454638198018074,31.207755208015442 2.3454638198018074,31.207755208015442 2.4631716310977936,31.111449003219604 2.4631716310977936,31.111449003219604 2.5833318009972572,31.017816066741943 2.5833318009972572,31.017816066741943 2.7056097984313965,30.927196145057678 2.7056097984313965,30.927196145057678 2.830340154469013,30.83947002887726 2.830340154469013,30.83947002887726 2.836247719824314,30.83534836769104 2.836247719824314,30.83534836769104 2.841709554195404,30.83088994026184 2.841709554195404,30.83088994026184 2.847282961010933,30.826428532600403 2.847282961010933,30.826428532600403 2.852410264313221,30.82185983657837 2.852410264313221,30.82185983657837 2.857649140059948,30.81740140914917 2.857649140059948,30.81740140914917 2.862665243446827,30.813053250312805 2.862665243446827,30.813053250312805 2.867792546749115,30.809152126312256 2.867792546749115,30.809152126312256 2.873142994940281,30.80558478832245 2.873142994940281,30.80558478832245 2.9153885319828987,30.778610706329346 2.9153885319828987,30.778610706329346 2.9589716345071793,30.753418803215027 2.9589716345071793,30.753418803215027 3.0035579577088356,30.729565024375916 3.0035579577088356,30.729565024375916 3.048590198159218,30.706605315208435 3.048590198159218,30.706605315208435 3.093956783413887,30.683976411819458 3.093956783413887,30.683976411819458 3.139323368668556,30.661126971244812 3.139323368668556,30.661126971244812 3.1840212643146515,30.637717247009277 3.1840212643146515,30.637717247009277 3.228050097823143,30.612972378730774 3.228050097823143,30.612972378730774 3.4529883414506912,30.48534393310547 3.4529883414506912,30.48534393310547 3.6823850125074387,30.36518394947052 3.6823850125074387,30.36518394947052 3.9163514971733093,30.253159999847412 3.9163514971733093,30.253159999847412 4.154999926686287,30.150166153907776 4.154999926686287,30.150166153907776 4.39855270087719,30.05675971508026 4.39855270087719,30.05675971508026 4.647121578454971,29.97382879257202 4.647121578454971,29.97382879257202 4.900594800710678,29.902267456054688 4.900594800710678,29.902267456054688 5.15953004360199,29.842519760131836 5.15953004360199,29.842519760131836 5.316027998924255,29.812315106391907 5.316027998924255,29.812315106391907 5.473863333463669,29.786118865013123 5.473863333463669,29.786118865013123 5.632702261209488,29.763713479042053 5.632702261209488,29.763713479042053 5.793101713061333,29.745322465896606 5.793101713061333,29.745322465896606 5.9546153992414474,29.730942845344543 5.9546153992414474,29.730942845344543 6.117021292448044,29.720577597618103 6.117021292448044,29.720577597618103 6.280653178691864,29.714447259902954 6.280653178691864,29.714447259902954 6.445399671792984,29.71232831478119 6.445399671792984,29.71232831478119 37.13684380054474,29.71232831478119 37.13684380054474,29.71232831478119 37.14219331741333,26.04198157787323 37.14219331741333,26.04198157787323 37.199488282203674,25.4908949136734 37.199488282203674,25.4908949136734 37.360891699790955,24.976591765880585 37.360891699790955,24.976591765880585 37.61592507362366,24.51055347919464 37.61592507362366,24.51055347919464 37.95321881771088,24.103814363479614 37.95321881771088,24.103814363479614 38.36207687854767,23.767857253551483 38.36207687854767,23.767857253551483 38.83112370967865,23.51393699645996 38.83112370967865,23.51393699645996 39.34966325759888,23.353315889835358 39.34966325759888,23.353315889835358 39.90654647350311,23.297248780727386 39.90654647350311,23.297248780727386" stroke="white" stroke-width="0.1" /><polygon points="39.8994117975235,47.28647470474243 39.8994117975235,47.28647470474243 39.91011381149292,36.14346086978912 39.91011381149292,36.14346086978912 28.75639796257019,36.14346086978912 28.75639796257019,36.14346086978912 28.7421315908432,47.28647470474243 28.7421315908432,47.28647470474243 17.595548927783966,47.28647470474243 17.595548927783966,47.28647470474243 17.61694997549057,36.14346086978912 17.61694997549057,36.14346086978912 6.47750198841095,36.14346086978912 6.47750198841095,36.14346086978912 6.456100195646286,47.28647470474243 6.456100195646286,47.28647470474243 17.595548927783966,47.28647470474243 17.595548927783966,47.28647470474243 17.588414251804352,58.42413902282715 17.588414251804352,58.42413902282715 6.434699147939682,58.42413902282715 6.434699147939682,58.42413902282715 6.420431286096573,69.56537365913391 6.420431286096573,69.56537365913391 17.57771372795105,69.56537365913391 17.57771372795105,69.56537365913391 17.588414251804352,58.42413902282715 17.588414251804352,58.42413902282715 28.738564252853394,58.42413902282715 28.738564252853394,58.42413902282715 28.71716320514679,69.56537365913391 28.71716320514679,69.56537365913391 39.85660970211029,69.56537365913391 39.85660970211029,69.56537365913391 39.878010749816895,58.42413902282715 39.878010749816895,58.42413902282715 28.738564252853394,58.42413902282715 28.738564252853394,58.42413902282715 28.7421315908432,47.28647470474243 28.7421315908432,47.28647470474243" stroke="white" stroke-width="0.1" /><polygon points="91.31101369857788,74.64107871055603 91.22452139854431,77.25584506988525 90.62862396240234,79.69538569450378 89.57326412200928,81.9064199924469 88.10882568359375,83.83522629737854 86.28479838371277,85.4285180568695 84.15111899375916,86.63279414176941 81.75795078277588,87.39455342292786 79.15499806404114,87.66028881072998 56.94743990898132,87.66028881072998 57.02412724494934,26.11510455608368 56.979769468307495,25.118377804756165 56.83864951133728,24.13981854915619 56.60278797149658,23.185113072395325 56.27485513687134,22.260169684886932 55.85685968399048,21.370673179626465 55.3510308265686,20.522306859493256 54.759591817855835,19.720979034900665 54.08499836921692,18.972374498844147 53.33216190338135,18.290315568447113 52.528488636016846,17.69263595342636 51.67889595031738,17.181453108787537 50.78895688056946,16.758662462234497 49.864012002944946,16.426382958889008 48.90874922275543,16.186508536338806 47.92918860912323,16.041158139705658 46.9297856092453,15.992224216461182 41.40821397304535,15.992224216461182 42.50815808773041,12.672661244869232 44.12173926830292,9.625296294689178 46.19700908660889,6.902855634689331 48.68225157260895,4.557837545871735 51.52574181556702,2.6424087584018707 54.6757698059082,1.2095156125724316 58.08038115501404,0.3111011115834117 61.68786287307739,0.0 65.89547395706177,0.42423889972269535 69.8146104812622,1.6409998759627342 73.36145043373108,3.5660143941640854 76.45195126533508,6.115683540701866 79.00184392929077,9.205961972475052 80.92730641365051,12.752246856689453 82.14406967163086,16.671384871006012 82.56852626800537,20.878885686397552 82.44703412055969,23.136737942695618 82.09145665168762,25.32358467578888 81.51428699493408,27.42750346660614 80.72845339775085,29.436340928077698 79.74710464477539,31.33794665336609 78.5822868347168,33.12028646469116 77.24782228469849,34.771427512168884 75.75573921203613,36.2790048122406 78.3731758594513,36.5674763917923 80.84794282913208,37.34216392040253 83.12429785728455,38.5510116815567 85.14606356620789,40.14174044132233 86.85684204101562,42.06251800060272 88.2008969783783,44.26107108592987 89.12160396575928,46.68578803539276 89.56323266029358,49.28394258022308" stroke="white" stroke-width="0.1" /><polygon points="46.9297856092453,23.297248780727386 47.2048819065094,23.31106960773468 39.8994117975235,47.28647470474243 39.91011381149292,36.14346086978912 28.75639796257019,36.14346086978912 28.7421315908432,47.28647470474243 17.595548927783966,47.28647470474243 17.61694997549057,36.14346086978912 6.47750198841095,36.14346086978912 6.456100195646286,47.28647470474243 17.595548927783966,47.28647470474243 17.588414251804352,58.42413902282715 6.434699147939682,58.42413902282715 6.420431286096573,69.56537365913391 17.57771372795105,69.56537365913391 17.588414251804352,58.42413902282715 28.738564252853394,58.42413902282715 28.71716320514679,69.56537365913391 39.85660970211029,69.56537365913391 39.878010749816895,58.42413902282715 28.738564252853394,58.42413902282715 28.7421315908432,47.28647470474243 39.8994117975235,47.28647470474243 47.2048819065094,23.31106960773468 47.47529923915863,23.35197776556015 47.73924946784973,23.41919243335724 47.99495339393616,23.51193130016327 48.240846395492554,23.62930476665497 48.47514629364014,23.77053201198578 48.69629442691803,23.93472045660019 48.90228509902954,24.121204018592834 49.08820986747742,24.327415227890015 49.25161898136139,24.548786878585815 49.39228892326355,24.783755838871002 49.508658051490784,25.030764937400818 49.60050582885742,25.288137793540955 49.666717648506165,25.55420696735382 49.70662295818329,25.827521085739136 49.719107151031494,26.10618770122528 49.62993264198303,97.25704789161682 49.57375526428223,97.80813455581665 49.41279888153076,98.32221865653992 49.15798604488373,98.78803491592407 48.82069230079651,99.19432401657104 48.41183423995972,99.52994585037231 47.94323146343231,99.78353381156921 47.42491543292999,99.94404315948486 46.86914682388306,100.0 39.83520865440369,100.0 39.55899775028229,99.98629093170166 39.28813338279724,99.9454915523529 39.02418315410614,99.87850189208984 38.76870274543762,99.78621006011963 38.52325677871704,99.66917037963867 38.289400935173035,99.5282769203186 38.06869983673096,99.36419725418091 37.862709164619446,99.17782545089722 37.67678439617157,98.97105693817139 37.51315176486969,98.74924421310425 37.37270534038544,98.51382374763489 37.25588917732239,98.2667088508606 37.16359734535217,98.00910949707031 37.096717953681946,97.74304032325745 37.0561420917511,97.46983647346497 37.042322754859924,97.19105958938599 37.067291140556335,75.99828839302063 6.4489662647247314,75.99828839302063 5.809487029910088,75.96707940101624 5.182714760303497,75.87400078773499 4.572327807545662,75.72062611579895 3.9813362061977386,75.50828456878662 3.413417935371399,75.23820400238037 2.871916815638542,74.91171956062317 2.3601772263646126,74.5305061340332 1.8815429881215096,74.09534454345703 1.4525110833346844,73.6193835735321 1.075868122279644,73.10998439788818 0.7532860152423382,72.57071137428284 0.48599098809063435,72.00491428375244 0.2756549743935466,71.41593098640442 0.12328119482845068,70.80709934234619 0.03109896497335285,70.18200159072876 0.0,69.54396963119507 0.04280287539586425,36.09887361526489 0.045032190973870456,35.934796929359436 0.0512742786668241,35.77183485031128 0.06197499460540712,35.61009764671326 0.07668848265893757,35.44925153255463 0.09530327515676618,35.28963327407837 0.1181537751108408,35.13135015964508 0.1445711706764996,34.97418463230133 0.17477840883657336,34.81835424900055 0.28702449053525925,34.36190187931061 0.4314841702580452,33.919161558151245 0.6067084614187479,33.49124193191528 0.8116940967738628,33.07948708534241 1.04465764015913,32.68512189388275 1.3045959174633026,32.30937123298645 1.5899484977126122,31.95357322692871 1.899377629160881,31.618839502334595 2.007053606212139,31.51227831840515 2.1172933280467987,31.408393383026123 2.229985222220421,31.306734681129456 2.3454638198018074,31.207755208015442 2.4631716310977936,31.111449003219604 2.5833318009972572,31.017816066741943 2.7056097984313965,30.927196145057678 2.830340154469013,30.83947002887726 2.836247719824314,30.83534836769104 2.841709554195404,30.83088994026184 2.847282961010933,30.826428532600403 2.852410264313221,30.82185983657837 2.857649140059948,30.81740140914917 2.862665243446827,30.813053250312805 2.867792546749115,30.809152126312256 2.873142994940281,30.80558478832245 2.9153885319828987,30.778610706329346 2.9589716345071793,30.753418803215027 3.0035579577088356,30.729565024375916 3.048590198159218,30.706605315208435 3.093956783413887,30.683976411819458 3.139323368668556,30.661126971244812 3.1840212643146515,30.637717247009277 3.228050097823143,30.612972378730774 3.4529883414506912,30.48534393310547 3.6823850125074387,30.36518394947052 3.9163514971733093,30.253159999847412 4.154999926686287,30.150166153907776 4.39855270087719,30.05675971508026 4.647121578454971,29.97382879257202 4.900594800710678,29.902267456054688 5.15953004360199,29.842519760131836 5.316027998924255,29.812315106391907 5.473863333463669,29.786118865013123 5.632702261209488,29.763713479042053 5.793101713061333,29.745322465896606 5.9546153992414474,29.730942845344543 6.117021292448044,29.720577597618103 6.280653178691864,29.714447259902954 6.445399671792984,29.71232831478119 37.13684380054474,29.71232831478119 37.14219331741333,26.04198157787323 37.199488282203674,25.4908949136734 37.360891699790955,24.976591765880585 37.61592507362366,24.51055347919464 37.95321881771088,24.103814363479614 38.36207687854767,23.767857253551483 38.83112370967865,23.51393699645996 39.34966325759888,23.353315889835358 39.90654647350311,23.297248780727386" stroke="white" stroke-width="0.1" /></svg>