<?xml version="1.0" encoding="utf-8" ?>
<svg baseProfile="full" height="99.99487400054932" version="1.1" width="85.03655791282654" xmlns="http://www.w3.org/2000/svg" xmlns:ev="http://www.w3.org/2001/xml-events" xmlns:xlink="http://www.w3.org/1999/xlink"><defs><clipPath /></defs><polygon points="84.41377282142639,13.731539249420166 84.41377282142639,13.731539249420166 84.61303114891052,15.49874097108841 84.61303114891052,15.49874097108841 84.82351303100586,17.36660897731781 84.82351303100586,17.36660897731781 84.9848210811615,19.290971755981445 84.9848210811615,19.290971755981445 85.03655791282654,21.227779984474182 85.03655791282654,21.227779984474182 84.91856455802917,23.132863640785217 84.91856455802917,23.132863640785217 84.57008004188538,24.962173402309418 84.57008004188538,24.962173402309418 83.93142819404602,26.67141854763031 83.93142819404602,26.67141854763031 82.941734790802,28.216665983200073 82.941734790802,28.216665983200073 82.12725520133972,29.114726185798645 82.12725520133972,29.114726185798645 81.24274015426636,29.948118329048157 81.24274015426636,29.948118329048157 80.30588030815125,30.731967091560364 80.30588030815125,30.731967091560364 79.33338284492493,31.482142210006714 79.33338284492493,31.482142210006714 78.34283709526062,32.21389055252075 78.34283709526062,32.21389055252075 77.35142707824707,32.94270932674408 77.35142707824707,32.94270932674408 76.37649774551392,33.68397653102875 76.37649774551392,33.68397653102875 75.43511986732483,34.45330560207367 75.43511986732483,34.45330560207367 74.47153329849243,35.30036211013794 74.47153329849243,35.30036211013794 73.52771759033203,36.16926074028015 73.52771759033203,36.16926074028015 72.60268926620483,37.05816864967346 72.60268926620483,37.05816864967346 71.6952383518219,37.965503334999084 71.6952383518219,37.965503334999084 70.80461978912354,38.889676332473755 70.80461978912354,38.889676332473755 69.92961764335632,39.82909917831421 69.92961764335632,39.82909917831421 69.069504737854,40.7821923494339 69.069504737854,40.7821923494339 68.22330355644226,41.747117042541504 68.22330355644226,41.747117042541504 66.95345044136047,43.20463538169861 66.95345044136047,43.20463538169861 65.65053462982178,44.70559358596802 65.65053462982178,44.70559358596802 64.34980630874634,46.24998867511749 64.34980630874634,46.24998867511749 63.08605670928955,47.83770143985748 63.08605670928955,47.83770143985748 61.89454197883606,49.46848452091217 61.89454197883606,49.46848452091217 60.81039905548096,51.142340898513794 60.81039905548096,51.142340898513794 59.86853837966919,52.859026193618774 59.86853837966919,52.859026193618774 59.104084968566895,54.61866855621338 59.104084968566895,54.61866855621338 58.407360315322876,56.423574686050415 58.407360315322876,56.423574686050415 57.65913724899292,58.221155405044556 57.65913724899292,58.221155405044556 56.8512499332428,59.99958515167236 56.8512499332428,59.99958515167236 55.97600340843201,61.74713969230652 55.97600340843201,61.74713969230652 55.025601387023926,63.452112674713135 55.025601387023926,63.452112674713135 53.99197340011597,65.10279178619385 53.99197340011597,65.10279178619385 52.86756753921509,66.68720841407776 52.86756753921509,66.68720841407776 51.644331216812134,68.19401979446411 51.644331216812134,68.19401979446411 51.366859674453735,68.50687861442566 51.366859674453735,68.50687861442566 51.083773374557495,68.81473064422607 51.083773374557495,68.81473064422607 50.794464349746704,69.1172182559967 50.794464349746704,69.1172182559967 50.49930214881897,69.41372156143188 50.49930214881897,69.41372156143188 50.197917222976685,69.70376372337341 50.197917222976685,69.70376372337341 49.88994002342224,69.9869692325592 49.88994002342224,69.9869692325592 49.57586228847504,70.26309967041016 49.57586228847504,70.26309967041016 49.254706501960754,70.5309271812439 49.254706501960754,70.5309271812439 48.922327160835266,70.80815434455872 48.922327160835266,70.80815434455872 48.674505949020386,71.0397481918335 48.674505949020386,71.0397481918335 48.500752449035645,71.24888896942139 48.500752449035645,71.24888896942139 48.38983714580536,71.45925164222717 48.38983714580536,71.45925164222717 48.33090007305145,71.69413566589355 48.33090007305145,71.69413566589355 48.31308722496033,71.97685837745667 48.31308722496033,71.97685837745667 48.32528829574585,72.33119606971741 48.32528829574585,72.33119606971741 48.35664629936218,72.77998328208923 48.35664629936218,72.77998328208923 48.42143952846527,73.55907559394836 48.42143952846527,73.55907559394836 48.49916398525238,74.33743476867676 48.49916398525238,74.33743476867676 48.591044545173645,75.11420845985413 48.591044545173645,75.11420845985413 48.69781136512756,75.88927745819092 48.69781136512756,75.88927745819092 48.82044196128845,76.66177749633789 48.82044196128845,76.66177749633789 48.96015226840973,77.43123173713684 48.96015226840973,77.43123173713684 49.11743700504303,78.19714546203613 49.11743700504303,78.19714546203613 49.29375350475311,78.95902991294861 49.29375350475311,78.95902991294861 49.81697201728821,80.76906204223633 49.81697201728821,80.76906204223633 50.455498695373535,82.39484429359436 50.455498695373535,82.39484429359436 51.216161251068115,83.86468291282654 51.216161251068115,83.86468291282654 52.10556387901306,85.20714044570923 52.10556387901306,85.20714044570923 53.1305193901062,86.45051121711731 53.1305193901062,86.45051121711731 54.298120737075806,87.62299418449402 54.298120737075806,87.62299418449402 55.61470985412598,88.75325918197632 55.61470985412598,88.75325918197632 57.087355852127075,89.86948728561401 57.087355852127075,89.86948728561401 58.050209283828735,90.59770107269287 58.050209283828735,90.59770107269287 59.00610685348511,91.40717387199402 59.00610685348511,91.40717387199402 59.91758704185486,92.29534864425659 59.91758704185486,92.29534864425659 60.74719429016113,93.25942397117615 60.74719429016113,93.25942397117615 61.457592248916626,94.29670572280884 61.457592248916626,94.29670572280884 62.01131343841553,95.40476202964783 62.01131343841553,95.40476202964783 62.37102746963501,96.58090472221375 62.37102746963501,96.58090472221375 62.49914765357971,97.82220125198364 62.49914765357971,97.82220125198364 62.47986555099487,98.50026369094849 62.47986555099487,98.50026369094849 62.41324543952942,99.01115894317627 62.41324543952942,99.01115894317627 62.28793263435364,99.37868118286133 62.28793263435364,99.37868118286133 62.092822790145874,99.62638020515442 62.092822790145874,99.62638020515442 61.81669235229492,99.77792501449585 61.81669235229492,99.77792501449585 61.448436975479126,99.8567521572113 61.448436975479126,99.8567521572113 60.97671389579773,99.88688826560974 60.97671389579773,99.88688826560974 60.39065718650818,99.89164471626282 60.39065718650818,99.89164471626282 50.39094686508179,99.89164471626282 50.39094686508179,99.89164471626282 25.707954168319702,99.89164471626282 25.707954168319702,99.89164471626282 25.194498896598816,99.91360902786255 25.194498896598816,99.91360902786255 24.69397634267807,99.95851516723633 24.69397634267807,99.95851516723633 24.218346178531647,99.99487400054932 24.218346178531647,99.99487400054932 23.77932071685791,99.9906063079834 23.77932071685791,99.9906063079834 23.388737440109253,99.9140977859497 23.388737440109253,99.9140977859497 23.05843234062195,99.73399639129639 23.05843234062195,99.73399639129639 22.79987335205078,99.41809177398682 22.79987335205078,99.41809177398682 22.625264525413513,98.93501996994019 22.625264525413513,98.93501996994019 22.50080555677414,97.04287052154541 22.50080555677414,97.04287052154541 22.939951717853546,95.3448474407196 22.939951717853546,95.3448474407196 23.824957013130188,93.81693005561829 23.824957013130188,93.81693005561829 25.037580728530884,92.43506193161011 25.037580728530884,92.43506193161011 26.459592580795288,91.17546081542969 26.459592580795288,91.17546081542969 27.97311544418335,90.0139570236206 27.97311544418335,90.0139570236206 29.459676146507263,88.92676830291748 29.459676146507263,88.92676830291748 30.801519751548767,87.88985013961792 30.801519751548767,87.88985013961792 31.681764125823975,87.07330226898193 31.681764125823975,87.07330226898193 32.46671259403229,86.17377281188965 32.46671259403229,86.17377281188965 33.16258788108826,85.20335555076599 33.16258788108826,85.20335555076599 33.775368332862854,84.174245595932 33.775368332862854,84.174245595932 34.31103229522705,83.09876918792725 34.31103229522705,83.09876918792725 34.77568030357361,81.98900818824768 34.77568030357361,81.98900818824768 35.175538063049316,80.85715770721436 35.175538063049316,80.85715770721436 35.51633656024933,79.7155499458313 35.51633656024933,79.7155499458313 35.74158251285553,78.89789938926697 35.74158251285553,78.89789938926697 36.0349178314209,77.7847170829773 36.0349178314209,77.7847170829773 36.34313642978668,76.48350596427917 36.34313642978668,76.48350596427917 36.612799763679504,75.1013994216919 36.612799763679504,75.1013994216919 36.79070174694061,73.74625205993652 36.79070174694061,73.74625205993652 36.82352602481842,72.5252091884613 36.82352602481842,72.5252091884613 36.657702922821045,71.54576182365417 36.657702922821045,71.54576182365417 36.24064028263092,70.91553211212158 36.24064028263092,70.91553211212158 34.31383669376373,69.26022171974182 34.31383669376373,69.26022171974182 32.59214758872986,67.37356185913086 32.59214758872986,67.37356185913086 31.057271361351013,65.29960632324219 31.057271361351013,65.29960632324219 29.691144824028015,63.08215260505676 29.691144824028015,63.08215260505676 28.47559154033661,60.765254497528076 28.47559154033661,60.765254497528076 27.39255130290985,58.39271545410156 27.39255130290985,58.39271545410156 26.424086093902588,56.008708477020264 26.424086093902588,56.008708477020264 25.551769137382507,53.657156229019165 25.551769137382507,53.657156229019165 24.97071474790573,52.30933427810669 24.97071474790573,52.30933427810669 24.222250282764435,50.977373123168945 24.222250282764435,50.977373123168945 23.34420084953308,49.6659129858017 23.34420084953308,49.6659129858017 22.374393045902252,48.38044047355652 22.374393045902252,48.38044047355652 21.35077565908432,47.125595808029175 21.35077565908432,47.125595808029175 20.311294496059418,45.90638279914856 20.311294496059418,45.90638279914856 19.293777644634247,44.72792148590088 19.293777644634247,44.72792148590088 18.33605021238327,43.59497427940369 18.33605021238327,43.59497427940369 17.68593192100525,42.81417429447174 17.68593192100525,42.81417429447174 17.02824980020523,42.039474844932556 17.02824980020523,42.039474844932556 16.362513601779938,41.27160906791687 16.362513601779938,41.27160906791687 15.68848043680191,40.51106572151184 15.68848043680191,40.51106572151184 15.005539357662201,39.75857198238373 15.005539357662201,39.75857198238373 14.31320309638977,39.01450037956238 14.31320309638977,39.01450037956238 13.61098438501358,38.27970325946808 13.61098438501358,38.27970325946808 12.898880243301392,37.55454123020172 12.898880243301392,37.55454123020172 12.106488645076752,36.774107813835144 12.106488645076752,36.774107813835144 11.300552636384964,36.00990176200867 11.300552636384964,36.00990176200867 10.48070639371872,35.26180386543274 10.48070639371872,35.26180386543274 9.647072106599808,34.52993333339691 9.647072106599808,34.52993333339691 8.79940539598465,33.81441533565521 8.79940539598465,33.81441533565521 7.937584817409515,33.115121722221375 7.937584817409515,33.115121722221375 7.061488181352615,32.432302832603455 7.061488181352615,32.432302832603455 6.17123655974865,31.765958666801453 6.17123655974865,31.765958666801453 5.2980683743953705,31.120598316192627 5.2980683743953705,31.120598316192627 4.440030083060265,30.458644032478333 4.440030083060265,30.458644032478333 3.614449128508568,29.76716458797455 3.614449128508568,29.76716458797455 2.8388958424329758,29.033461213111877 2.8388958424329758,29.033461213111877 2.1306971088051796,28.244608640670776 2.1306971088051796,28.244608640670776 1.5075456351041794,27.387547492980957 1.5075456351041794,27.387547492980957 0.9866462089121342,26.44970715045929 0.9866462089121342,26.44970715045929 0.585691537708044,25.418037176132202 0.585691537708044,25.418037176132202 0.26795389130711555,24.13390874862671 0.26795389130711555,24.13390874862671 0.08175278198905289,22.814881801605225 0.08175278198905289,22.814881801605225 0.0050027821998810396,21.471697092056274 0.0050027821998810396,21.471697092056274 0.015374404028989375,20.114722847938538 0.015374404028989375,20.114722847938538 0.09090420790016651,18.75433176755905 0.09090420790016651,18.75433176755905 0.20926271099597216,17.401506006717682 0.20926271099597216,17.401506006717682 0.3483644453808665,16.066373884677887 0.3483644453808665,16.066373884677887 0.48612398095428944,14.759427309036255 0.48612398095428944,14.759427309036255 0.6159523036330938,13.547167181968689 0.6159523036330938,13.547167181968689 0.7711605634540319,12.331247329711914 0.7711605634540319,12.331247329711914 0.964804831892252,11.119110137224197 0.964804831892252,11.119110137224197 1.2099411338567734,9.918076545000076 1.2099411338567734,9.918076545000076 1.5196255408227444,8.735711872577667 1.5196255408227444,8.735711872577667 1.9071580842137337,7.579458504915237 1.9071580842137337,7.579458504915237 2.3854728788137436,6.456639617681503 2.3854728788137436,6.456639617681503 2.9675038531422615,5.374696105718613 2.9675038531422615,5.374696105718613 4.764112830162048,3.1677372753620148 4.764112830162048,3.1677372753620148 6.823916733264923,1.894468069076538 6.823916733264923,1.894468069076538 9.066992998123169,1.4224983751773834 9.066992998123169,1.4224983751773834 11.413419991731644,1.6196811571717262 11.413419991731644,1.6196811571717262 13.783518970012665,2.3532599210739136 13.783518970012665,2.3532599210739136 16.097000241279602,3.490965813398361 16.097000241279602,3.490965813398361 18.274308741092682,4.900529980659485 18.274308741092682,4.900529980659485 20.235642790794373,6.449440121650696 20.235642790794373,6.449440121650696 24.547797441482544,4.046884551644325 24.547797441482544,4.046884551644325 29.088494181632996,2.198539674282074 29.088494181632996,2.198539674282074 33.79952609539032,0.9080659598112106 33.79952609539032,0.9080659598112106 38.62196505069733,0.17814785242080688 38.62196505069733,0.17814785242080688 43.49735975265503,0.012201907520648092 43.49735975265503,0.012201907520648092 48.3670175075531,0.41327858343720436 48.3670175075531,0.41327858343720436 53.17237377166748,1.3845504261553288 53.17237377166748,1.3845504261553288 57.85461068153381,2.9294339939951897 57.85461068153381,2.9294339939951897 58.70862603187561,3.2798726111650467 58.70862603187561,3.2798726111650467 59.55543518066406,3.6481261253356934 59.55543518066406,3.6481261253356934 60.39443612098694,4.034438729286194 60.39443612098694,4.034438729286194 61.22477650642395,4.439054057002068 61.22477650642395,4.439054057002068 62.04596757888794,4.862093925476074 62.04596757888794,4.862093925476074 62.85678148269653,5.303803086280823 62.85678148269653,5.303803086280823 63.65698575973511,5.764669179916382 63.65698575973511,5.764669179916382 64.44559693336487,6.244448199868202 64.44559693336487,6.244448199868202 64.74881172180176,6.279833614826202 64.74881172180176,6.279833614826202 65.15794396400452,6.121208891272545 65.15794396400452,6.121208891272545 65.63869714736938,5.819455534219742 65.63869714736938,5.819455534219742 66.15630388259888,5.425821989774704 66.15630388259888,5.425821989774704 66.67622327804565,4.991068318486214 66.67622327804565,4.991068318486214 67.16417670249939,4.566441848874092 67.16417670249939,4.566441848874092 67.58526563644409,4.202336817979813 67.58526563644409,4.202336817979813 67.90508031845093,3.9504896849393845 67.90508031845093,3.9504896849393845 68.43366622924805,3.5951700061559677 68.43366622924805,3.5951700061559677 68.97396445274353,3.257177025079727 68.97396445274353,3.257177025079727 69.52573657035828,2.938341349363327 69.52573657035828,2.938341349363327 70.08946537971497,2.641346864402294 70.08946537971497,2.641346864402294 70.66466212272644,2.368268184363842 70.66466212272644,2.368268184363842 71.25145196914673,2.121301554143429 71.25145196914673,2.121301554143429 71.84995412826538,1.902887411415577 71.84995412826538,1.902887411415577 72.45980501174927,1.715100184082985 72.45980501174927,1.715100184082985 75.23915767669678,1.3253712095320225 75.23915767669678,1.3253712095320225 77.60071158409119,1.738283783197403 77.60071158409119,1.738283783197403 79.56985831260681,2.8225451707839966 79.56985831260681,2.8225451707839966 81.17197155952454,4.4474732130765915 81.17197155952454,4.4474732130765915 82.43206143379211,6.4817748963832855 82.43206143379211,6.4817748963832855 83.37563276290894,8.794646710157394 83.37563276290894,8.794646710157394 84.02782678604126,11.254917085170746 84.02782678604126,11.254917085170746" stroke="white" stroke-width="0.1" /><polygon points="11.139853298664093,26.88714563846588 11.139853298664093,26.88714563846588 12.484747916460037,27.936753630638123 12.484747916460037,27.936753630638123 13.797429203987122,29.024678468704224 13.797429203987122,29.024678468704224 15.078872442245483,30.147984623908997 15.078872442245483,30.147984623908997 16.330544650554657,31.304481625556946 16.330544650554657,31.304481625556946 17.55402982234955,32.49136209487915 17.55402982234955,32.49136209487915 18.750061094760895,33.70618224143982 18.750061094760895,33.70618224143982 19.92071270942688,34.94638502597809 19.92071270942688,34.94638502597809 21.06732577085495,36.20940446853638 21.06732577085495,36.20940446853638 20.68735808134079,33.948758244514465 20.68735808134079,33.948758244514465 20.343752205371857,31.682497262954712 20.343752205371857,31.682497262954712 20.035287737846375,29.411110281944275 20.035287737846375,29.411110281944275 19.760988652706146,27.13508903980255 19.760988652706146,27.13508903980255 19.519878923892975,24.85528588294983 19.519878923892975,24.85528588294983 19.311226904392242,22.572308778762817 19.311226904392242,22.572308778762817 19.133445620536804,20.286768674850464 19.133445620536804,20.286768674850464 18.98616850376129,17.999278008937836 18.98616850376129,17.999278008937836 18.971525132656097,17.485089600086212 18.971525132656097,17.485089600086212 18.974697589874268,16.96772873401642 18.974697589874268,16.96772873401642 18.976162374019623,16.453540325164795 18.976162374019623,16.453540325164795 18.955907225608826,15.948502719402313 18.955907225608826,15.948502719402313 18.894897401332855,15.458840131759644 18.894897401332855,15.458840131759644 18.773122131824493,14.991019666194916 18.773122131824493,14.991019666194916 18.57118159532547,14.550775289535522 18.57118159532547,14.550775289535522 18.269671499729156,14.144450426101685 18.269671499729156,14.144450426101685 17.98487901687622,13.839402794837952 17.98487901687622,13.839402794837952 17.697158455848694,13.53704035282135 17.697158455848694,13.53704035282135 17.406265437602997,13.23748379945755 17.406265437602997,13.23748379945755 17.11219847202301,12.9410982131958 17.11219847202301,12.9410982131958 16.815082728862762,12.647886574268341 16.815082728862762,12.647886574268341 16.514427959918976,12.35809177160263 16.514427959918976,12.35809177160263 16.21072143316269,12.07171306014061 16.21072143316269,12.07171306014061 15.903477370738983,11.788994818925858 15.903477370738983,11.788994818925858 15.326084196567535,11.242349445819855 15.326084196567535,11.242349445819855 14.688777923583984,10.67398488521576 14.688777923583984,10.67398488521576 14.001201093196869,10.108792036771774 14.001201093196869,10.108792036771774 13.273723423480988,9.570444375276566 13.273723423480988,9.570444375276566 12.51610666513443,9.083832055330276 12.51610666513443,9.083832055330276 11.738722771406174,8.672993630170822 11.738722771406174,8.672993630170822 10.951334238052368,8.362333476543427 10.951334238052368,8.362333476543427 10.163700580596924,8.176254481077194 10.163700580596924,8.176254481077194 9.17290598154068,8.439937233924866 9.17290598154068,8.439937233924866 8.4256611764431,9.424874931573868 8.4256611764431,9.424874931573868 7.885604351758957,10.922415554523468 7.885604351758957,10.922415554523468 7.516863197088242,12.724393606185913 7.516863197088242,12.724393606185913 7.283562421798706,14.62264358997345 7.283562421798706,14.62264358997345 7.149097323417664,16.408637166023254 7.149097323417664,16.408637166023254 7.078204303979874,17.874452471733093 7.078204303979874,17.874452471733093 7.0341557264328,18.811435997486115 7.0341557264328,18.811435997486115 6.984616070985794,19.378826022148132 6.984616070985794,19.378826022148132 6.922630220651627,20.00502645969391 6.922630220651627,20.00502645969391 6.86686709523201,20.66783457994461 6.86686709523201,20.66783457994461 6.835264712572098,21.345284581184387 6.835264712572098,21.345284581184387 6.846246123313904,22.015291452407837 6.846246123313904,22.015291452407837 6.917993724346161,22.655770182609558 6.917993724346161,22.655770182609558 7.068931311368942,23.24487715959549 7.068931311368942,23.24487715959549 7.3172397911548615,23.76053035259247 7.3172397911548615,23.76053035259247 7.672925293445587,24.232378602027893 7.672925293445587,24.232378602027893 8.098772168159485,24.672745168209076 8.098772168159485,24.672745168209076 8.57708677649498,25.085657835006714 8.57708677649498,25.085657835006714 9.090176969766617,25.475385785102844 9.090176969766617,25.475385785102844 9.62071567773819,25.846201181411743 9.62071567773819,25.846201181411743 10.150888562202454,26.202374696731567 10.150888562202454,26.202374696731567 10.663002729415894,26.547813415527344 10.663002729415894,26.547813415527344" stroke="white" stroke-width="0.1" /><polygon points="77.55922675132751,23.939165472984314 77.55922675132751,23.939165472984314 78.02460789680481,22.924211621284485 78.02460789680481,22.924211621284485 78.26083898544312,21.67278379201889 78.26083898544312,21.67278379201889 78.31440567970276,20.260290801525116 78.31440567970276,20.260290801525116 78.23082208633423,18.762506544589996 78.23082208633423,18.762506544589996 78.05657982826233,17.254717648029327 78.05657982826233,17.254717648029327 77.83767580986023,15.812574326992035 77.83767580986023,15.812574326992035 77.61999368667603,14.511483907699585 77.61999368667603,14.511483907699585 77.4498999118805,13.426978886127472 77.4498999118805,13.426978886127472 77.36741304397583,12.841896712779999 77.36741304397583,12.841896712779999 77.2717535495758,12.234120070934296 77.2717535495758,12.234120070934296 77.15583443641663,11.614995449781418 77.15583443641663,11.614995449781418 77.01282501220703,10.99587082862854 77.01282501220703,10.99587082862854 76.83541178703308,10.388094186782837 76.83541178703308,10.388094186782837 76.61675214767456,9.803134202957153 76.61675214767456,9.803134202957153 76.3494074344635,9.251974523067474 76.3494074344635,9.251974523067474 76.0266661643982,8.746327459812164 76.0266661643982,8.746327459812164 75.6259560585022,8.400890976190567 75.6259560585022,8.400890976190567 75.18461346626282,8.233480900526047 75.18461346626282,8.233480900526047 74.7149646282196,8.213470131158829 74.7149646282196,8.213470131158829 74.22908544540405,8.310475200414658 74.22908544540405,8.310475200414658 73.73954057693481,8.49350392818451 73.73954057693481,8.49350392818451 73.25817942619324,8.732295036315918 73.25817942619324,8.732295036315918 72.79767990112305,8.99597853422165 72.79767990112305,8.99597853422165 72.36999869346619,9.253926575183868 72.36999869346619,9.253926575183868 71.59261703491211,9.752984344959259 71.59261703491211,9.752984344959259 70.8393931388855,10.294749587774277 70.8393931388855,10.294749587774277 70.10947465896606,10.872997343540192 70.10947465896606,10.872997343540192 69.40127611160278,11.481872946023941 69.40127611160278,11.481872946023941 68.71394515037537,12.115395814180374 68.71394515037537,12.115395814180374 68.04625391960144,12.767709791660309 68.04625391960144,12.767709791660309 67.39686727523804,13.432592153549194 67.39686727523804,13.432592153549194 66.76493287086487,14.104428887367249 66.76493287086487,14.104428887367249 66.33713245391846,14.750885963439941 66.33713245391846,14.750885963439941 66.0591721534729,15.554015338420868 66.0591721534729,15.554015338420868 65.9004271030426,16.469524800777435 65.9004271030426,16.469524800777435 65.82953333854675,17.452998459339142 65.82953333854675,17.452998459339142 65.8157467842102,18.460266292095184 65.8157467842102,18.460266292095184 65.82794785499573,19.44679021835327 65.82794785499573,19.44679021835327 65.8351480960846,20.36876678466797 65.8351480960846,20.36876678466797 65.8063530921936,21.181535720825195 65.8063530921936,21.181535720825195 65.65163135528564,23.06782752275467 65.65163135528564,23.06782752275467 65.47567844390869,24.952533841133118 65.47567844390869,24.952533841133118 65.27788639068604,26.835167407989502 65.27788639068604,26.835167407989502 65.05764126777649,28.715237975120544 65.05764126777649,28.715237975120544 64.8142158985138,30.592623353004456 64.8142158985138,30.592623353004456 64.54735994338989,32.46671259403229 64.54735994338989,32.46671259403229 64.25597667694092,34.33714210987091 64.25597667694092,34.33714210987091 63.93994688987732,36.203548312187195 63.93994688987732,36.203548312187195 64.92269039154053,35.117822885513306 64.92269039154053,35.117822885513306 65.92275500297546,34.04991030693054 65.92275500297546,34.04991030693054 66.94137454032898,33.00079107284546 66.94137454032898,33.00079107284546 67.97926425933838,31.971925497055054 67.97926425933838,31.971925497055054 69.03765797615051,30.96453547477722 69.03765797615051,30.96453547477722 70.1177716255188,29.97959852218628 70.1177716255188,29.97959852218628 71.22021317481995,29.018819332122803 71.22021317481995,29.018819332122803 72.34657406806946,28.082934021949768 72.34657406806946,28.082934021949768 72.94153571128845,27.6414692401886 72.94153571128845,27.6414692401886 73.63241314888,27.18072533607483 73.63241314888,27.18072533607483 74.37940835952759,26.699358224868774 74.37940835952759,26.699358224868774 75.14252066612244,26.196274161338806 75.14252066612244,26.196274161338806 75.88207721710205,25.66988468170166 75.88207721710205,25.66988468170166 76.5576958656311,25.11921226978302 76.5576958656311,25.11921226978302 77.13008522987366,24.54279512166977 77.13008522987366,24.54279512166977" stroke="white" stroke-width="0.1" /><polygon points="84.41377282142639,13.731539249420166 84.61303114891052,15.49874097108841 84.82351303100586,17.36660897731781 84.9848210811615,19.290971755981445 85.03655791282654,21.227779984474182 84.91856455802917,23.132863640785217 84.57008004188538,24.962173402309418 83.93142819404602,26.67141854763031 82.941734790802,28.216665983200073 77.55922675132751,23.939165472984314 78.02460789680481,22.924211621284485 78.26083898544312,21.67278379201889 78.31440567970276,20.260290801525116 78.23082208633423,18.762506544589996 78.05657982826233,17.254717648029327 77.83767580986023,15.812574326992035 77.61999368667603,14.511483907699585 77.4498999118805,13.426978886127472 77.36741304397583,12.841896712779999 77.2717535495758,12.234120070934296 77.15583443641663,11.614995449781418 77.01282501220703,10.99587082862854 76.83541178703308,10.388094186782837 76.61675214767456,9.803134202957153 76.3494074344635,9.251974523067474 76.0266661643982,8.746327459812164 75.6259560585022,8.400890976190567 75.18461346626282,8.233480900526047 74.7149646282196,8.213470131158829 74.22908544540405,8.310475200414658 73.73954057693481,8.49350392818451 73.25817942619324,8.732295036315918 72.79767990112305,8.99597853422165 72.36999869346619,9.253926575183868 71.59261703491211,9.752984344959259 70.8393931388855,10.294749587774277 70.10947465896606,10.872997343540192 69.40127611160278,11.481872946023941 68.71394515037537,12.115395814180374 68.04625391960144,12.767709791660309 67.39686727523804,13.432592153549194 66.76493287086487,14.104428887367249 66.33713245391846,14.750885963439941 66.0591721534729,15.554015338420868 65.9004271030426,16.469524800777435 65.82953333854675,17.452998459339142 65.8157467842102,18.460266292095184 65.82794785499573,19.44679021835327 65.8351480960846,20.36876678466797 65.8063530921936,21.181535720825195 65.65163135528564,23.06782752275467 65.47567844390869,24.952533841133118 65.27788639068604,26.835167407989502 65.05764126777649,28.715237975120544 64.8142158985138,30.592623353004456 64.54735994338989,32.46671259403229 64.25597667694092,34.33714210987091 63.93994688987732,36.203548312187195 64.92269039154053,35.117822885513306 65.92275500297546,34.04991030693054 66.94137454032898,33.00079107284546 67.97926425933838,31.971925497055054 69.03765797615051,30.96453547477722 70.1177716255188,29.97959852218628 71.22021317481995,29.018819332122803 72.34657406806946,28.082934021949768 72.94153571128845,27.6414692401886 73.63241314888,27.18072533607483 74.37940835952759,26.699358224868774 75.14252066612244,26.196274161338806 75.88207721710205,25.66988468170166 76.5576958656311,25.11921226978302 77.13008522987366,24.54279512166977 77.55922675132751,23.939165472984314 82.941734790802,28.216665983200073 82.12725520133972,29.114726185798645 81.24274015426636,29.948118329048157 80.30588030815125,30.731967091560364 79.33338284492493,31.482142210006714 78.34283709526062,32.21389055252075 77.35142707824707,32.94270932674408 76.37649774551392,33.68397653102875 75.43511986732483,34.45330560207367 74.47153329849243,35.30036211013794 73.52771759033203,36.16926074028015 72.60268926620483,37.05816864967346 71.6952383518219,37.965503334999084 70.80461978912354,38.889676332473755 69.92961764335632,39.82909917831421 69.069504737854,40.7821923494339 68.22330355644226,41.747117042541504 66.95345044136047,43.20463538169861 65.65053462982178,44.70559358596802 64.34980630874634,46.24998867511749 63.08605670928955,47.83770143985748 61.89454197883606,49.46848452091217 60.81039905548096,51.142340898513794 59.86853837966919,52.859026193618774 59.104084968566895,54.61866855621338 58.407360315322876,56.423574686050415 57.65913724899292,58.221155405044556 56.8512499332428,59.99958515167236 55.97600340843201,61.74713969230652 55.025601387023926,63.452112674713135 53.99197340011597,65.10279178619385 52.86756753921509,66.68720841407776 11.139853298664093,26.88714563846588 12.484747916460037,27.936753630638123 13.797429203987122,29.024678468704224 15.078872442245483,30.147984623908997 16.330544650554657,31.304481625556946 17.55402982234955,32.49136209487915 18.750061094760895,33.70618224143982 19.92071270942688,34.94638502597809 21.06732577085495,36.20940446853638 20.68735808134079,33.948758244514465 20.343752205371857,31.682497262954712 20.035287737846375,29.411110281944275 19.760988652706146,27.13508903980255 19.519878923892975,24.85528588294983 19.311226904392242,22.572308778762817 19.133445620536804,20.286768674850464 18.98616850376129,17.999278008937836 18.971525132656097,17.485089600086212 18.974697589874268,16.96772873401642 18.976162374019623,16.453540325164795 18.955907225608826,15.948502719402313 18.894897401332855,15.458840131759644 18.773122131824493,14.991019666194916 18.57118159532547,14.550775289535522 18.269671499729156,14.144450426101685 17.98487901687622,13.839402794837952 17.697158455848694,13.53704035282135 17.406265437602997,13.23748379945755 17.11219847202301,12.9410982131958 16.815082728862762,12.647886574268341 16.514427959918976,12.35809177160263 16.21072143316269,12.07171306014061 15.903477370738983,11.788994818925858 15.326084196567535,11.242349445819855 14.688777923583984,10.67398488521576 14.001201093196869,10.108792036771774 13.273723423480988,9.570444375276566 12.51610666513443,9.083832055330276 11.738722771406174,8.672993630170822 10.951334238052368,8.362333476543427 10.163700580596924,8.176254481077194 9.17290598154068,8.439937233924866 8.4256611764431,9.424874931573868 7.885604351758957,10.922415554523468 7.516863197088242,12.724393606185913 7.283562421798706,14.62264358997345 7.149097323417664,16.408637166023254 7.078204303979874,17.874452471733093 7.0341557264328,18.811435997486115 6.984616070985794,19.378826022148132 6.922630220651627,20.00502645969391 6.86686709523201,20.66783457994461 6.835264712572098,21.345284581184387 6.846246123313904,22.015291452407837 6.917993724346161,22.655770182609558 7.068931311368942,23.24487715959549 7.3172397911548615,23.76053035259247 7.672925293445587,24.232378602027893 8.098772168159485,24.672745168209076 8.57708677649498,25.085657835006714 9.090176969766617,25.475385785102844 9.62071567773819,25.846201181411743 10.150888562202454,26.202374696731567 10.663002729415894,26.547813415527344 11.139853298664093,26.88714563846588 52.86756753921509,66.68720841407776 51.644331216812134,68.19401979446411 51.366859674453735,68.50687861442566 51.083773374557495,68.81473064422607 50.794464349746704,69.1172182559967 50.49930214881897,69.41372156143188 50.197917222976685,69.70376372337341 49.88994002342224,69.9869692325592 49.57586228847504,70.26309967041016 49.254706501960754,70.5309271812439 48.922327160835266,70.80815434455872 48.674505949020386,71.0397481918335 48.500752449035645,71.24888896942139 48.38983714580536,71.45925164222717 48.33090007305145,71.69413566589355 48.31308722496033,71.97685837745667 48.32528829574585,72.33119606971741 48.35664629936218,72.77998328208923 48.42143952846527,73.55907559394836 48.49916398525238,74.33743476867676 48.591044545173645,75.11420845985413 48.69781136512756,75.88927745819092 48.82044196128845,76.66177749633789 48.96015226840973,77.43123173713684 49.11743700504303,78.19714546203613 49.29375350475311,78.95902991294861 49.81697201728821,80.76906204223633 50.455498695373535,82.39484429359436 51.216161251068115,83.86468291282654 52.10556387901306,85.20714044570923 53.1305193901062,86.45051121711731 54.298120737075806,87.62299418449402 55.61470985412598,88.75325918197632 57.087355852127075,89.86948728561401 58.050209283828735,90.59770107269287 59.00610685348511,91.40717387199402 59.91758704185486,92.29534864425659 60.74719429016113,93.25942397117615 61.457592248916626,94.29670572280884 62.01131343841553,95.40476202964783 62.37102746963501,96.58090472221375 62.49914765357971,97.82220125198364 62.47986555099487,98.50026369094849 62.41324543952942,99.01115894317627 62.28793263435364,99.37868118286133 62.092822790145874,99.62638020515442 61.81669235229492,99.77792501449585 61.448436975479126,99.8567521572113 60.97671389579773,99.88688826560974 60.39065718650818,99.89164471626282 50.39094686508179,99.89164471626282 25.707954168319702,99.89164471626282 25.194498896598816,99.91360902786255 24.69397634267807,99.95851516723633 24.218346178531647,99.99487400054932 23.77932071685791,99.9906063079834 23.388737440109253,99.9140977859497 23.05843234062195,99.73399639129639 22.79987335205078,99.41809177398682 22.625264525413513,98.93501996994019 22.50080555677414,97.04287052154541 22.939951717853546,95.3448474407196 23.824957013130188,93.81693005561829 25.037580728530884,92.43506193161011 26.459592580795288,91.17546081542969 27.97311544418335,90.0139570236206 29.459676146507263,88.92676830291748 30.801519751548767,87.88985013961792 31.681764125823975,87.07330226898193 32.46671259403229,86.17377281188965 33.16258788108826,85.20335555076599 33.775368332862854,84.174245595932 34.31103229522705,83.09876918792725 34.77568030357361,81.98900818824768 35.175538063049316,80.85715770721436 35.51633656024933,79.7155499458313 35.74158251285553,78.89789938926697 36.0349178314209,77.7847170829773 36.34313642978668,76.48350596427917 36.612799763679504,75.1013994216919 36.79070174694061,73.74625205993652 36.82352602481842,72.5252091884613 36.657702922821045,71.54576182365417 36.24064028263092,70.91553211212158 34.31383669376373,69.26022171974182 32.59214758872986,67.37356185913086 31.057271361351013,65.29960632324219 29.691144824028015,63.08215260505676 28.47559154033661,60.765254497528076 27.39255130290985,58.39271545410156 26.424086093902588,56.008708477020264 25.551769137382507,53.657156229019165 24.97071474790573,52.30933427810669 24.222250282764435,50.977373123168945 23.34420084953308,49.6659129858017 22.374393045902252,48.38044047355652 21.35077565908432,47.125595808029175 20.311294496059418,45.90638279914856 19.293777644634247,44.72792148590088 18.33605021238327,43.59497427940369 17.68593192100525,42.81417429447174 17.02824980020523,42.039474844932556 16.362513601779938,41.27160906791687 15.68848043680191,40.51106572151184 15.005539357662201,39.75857198238373 14.31320309638977,39.01450037956238 13.61098438501358,38.27970325946808 12.898880243301392,37.55454123020172 12.106488645076752,36.774107813835144 11.300552636384964,36.00990176200867 10.48070639371872,35.26180386543274 9.647072106599808,34.52993333339691 8.79940539598465,33.81441533565521 7.937584817409515,33.115121722221375 7.061488181352615,32.432302832603455 6.17123655974865,31.765958666801453 5.2980683743953705,31.120598316192627 4.440030083060265,30.458644032478333 3.614449128508568,29.76716458797455 2.8388958424329758,29.033461213111877 2.1306971088051796,28.244608640670776 1.5075456351041794,27.387547492980957 0.9866462089121342,26.44970715045929 0.585691537708044,25.418037176132202 0.26795389130711555,24.13390874862671 0.08175278198905289,22.814881801605225 0.0050027821998810396,21.471697092056274 0.015374404028989375,20.114722847938538 0.09090420790016651,18.75433176755905 0.20926271099597216,17.401506006717682 0.3483644453808665,16.066373884677887 0.48612398095428944,14.759427309036255 0.6159523036330938,13.547167181968689 0.7711605634540319,12.331247329711914 0.964804831892252,11.119110137224197 1.2099411338567734,9.918076545000076 1.5196255408227444,8.735711872577667 1.9071580842137337,7.579458504915237 2.3854728788137436,6.456639617681503 2.9675038531422615,5.374696105718613 4.764112830162048,3.1677372753620148 6.823916733264923,1.894468069076538 9.066992998123169,1.4224983751773834 11.413419991731644,1.6196811571717262 13.783518970012665,2.3532599210739136 16.097000241279602,3.490965813398361 18.274308741092682,4.900529980659485 20.235642790794373,6.449440121650696 24.547797441482544,4.046884551644325 29.088494181632996,2.198539674282074 33.79952609539032,0.9080659598112106 38.62196505069733,0.17814785242080688 43.49735975265503,0.012201907520648092 48.3670175075531,0.41327858343720436 53.17237377166748,1.3845504261553288 57.85461068153381,2.9294339939951897 58.70862603187561,3.2798726111650467 59.55543518066406,3.6481261253356934 60.39443612098694,4.034438729286194 61.22477650642395,4.439054057002068 62.04596757888794,4.862093925476074 62.85678148269653,5.303803086280823 63.65698575973511,5.764669179916382 64.44559693336487,6.244448199868202 64.74881172180176,6.279833614826202 65.15794396400452,6.121208891272545 65.63869714736938,5.819455534219742 66.15630388259888,5.425821989774704 66.67622327804565,4.991068318486214 67.16417670249939,4.566441848874092 67.58526563644409,4.202336817979813 67.90508031845093,3.9504896849393845 68.43366622924805,3.5951700061559677 68.97396445274353,3.257177025079727 69.52573657035828,2.938341349363327 70.08946537971497,2.641346864402294 70.66466212272644,2.368268184363842 71.25145196914673,2.121301554143429 71.84995412826538,1.902887411415577 72.45980501174927,1.715100184082985 75.23915767669678,1.3253712095320225 77.60071158409119,1.738283783197403 79.56985831260681,2.8225451707839966 81.17197155952454,4.4474732130765915 82.43206143379211,6.4817748963832855 83.37563276290894,8.794646710157394 84.02782678604126,11.254917085170746" stroke="white" stroke-width="0.1" /></svg>