<?xml version="1.0" encoding="utf-8" ?>
<svg baseProfile="full" height="99.9852180480957" version="1.1" width="97.11576104164124" xmlns="http://www.w3.org/2000/svg" xmlns:ev="http://www.w3.org/2001/xml-events" xmlns:xlink="http://www.w3.org/1999/xlink"><defs><clipPath /></defs><polygon points="97.11576104164124,49.98914897441864 97.11576104164124,49.98914897441864 96.7690646648407,52.15768814086914 96.7690646648407,52.15768814086914 95.82419991493225,54.28227782249451 95.82419991493225,54.28227782249451 94.42209601402283,56.34419918060303 94.42209601402283,56.34419918060303 92.70503520965576,58.32528471946716 92.70503520965576,58.32528471946716 90.81448912620544,60.20667552947998 90.81448912620544,60.20667552947998 88.89220356941223,61.96991801261902 88.89220356941223,61.96991801261902 87.0797872543335,63.596510887145996 87.0797872543335,63.596510887145996 85.5191171169281,65.06792902946472 85.5191171169281,65.06792902946472 64.4982397556305,86.09097599983215 64.4982397556305,86.09097599983215 63.01814317703247,87.60457634925842 63.01814317703247,87.60457634925842 61.54509782791138,89.1592800617218 61.54509782791138,89.1592800617218 60.06960868835449,90.73392152786255 60.06960868835449,90.73392152786255 58.58259201049805,92.30760931968689 58.58259201049805,92.30760931968689 57.074958086013794,93.85932683944702 57.074958086013794,93.85932683944702 55.53775429725647,95.36811113357544 55.53775429725647,95.36811113357544 53.96162271499634,96.81288003921509 53.96162271499634,96.81288003921509 52.337342500686646,98.17266464233398 52.337342500686646,98.17266464233398 50.09332299232483,99.47195649147034 50.09332299232483,99.47195649147034 47.770899534225464,99.9852180480957 47.770899534225464,99.9852180480957 45.48632204532623,99.79477524757385 45.48632204532623,99.79477524757385 43.356239795684814,98.9827036857605 43.356239795684814,98.9827036857605 41.49689078330994,97.63132333755493 41.49689078330994,97.63132333755493 40.02465903759003,95.82270979881287 40.02465903759003,95.82270979881287 39.055922627449036,93.6391830444336 39.055922627449036,93.6391830444336 38.70719075202942,91.16281270980835 38.70719075202942,91.16281270980835 38.70719075202942,78.36060523986816 38.70719075202942,78.36060523986816 38.70719075202942,73.48409295082092 38.70719075202942,73.48409295082092 36.717358231544495,75.47392249107361 36.717358231544495,75.47392249107361 34.72779989242554,77.46368646621704 34.72779989242554,77.46368646621704 32.73810148239136,79.45358753204346 32.73810148239136,79.45358753204346 30.74854016304016,81.44342303276062 30.74854016304016,81.44342303276062 28.758978843688965,83.4332525730133 28.758978843688965,83.4332525730133 26.769554615020752,85.42308807373047 26.769554615020752,85.42308807373047 24.78012889623642,87.41291761398315 24.78012889623642,87.41291761398315 22.790703177452087,89.40275311470032 22.790703177452087,89.40275311470032 15.159077942371368,97.03546166419983 15.159077942371368,97.03546166419983 13.425061106681824,98.41254353523254 13.425061106681824,98.41254353523254 11.490298807621002,99.33462142944336 11.490298807621002,99.33462142944336 9.449195116758347,99.79287981987 9.449195116758347,99.79287981987 7.396560907363892,99.77863430976868 7.396560907363892,99.77863430976868 5.426803603768349,99.28300976753235 5.426803603768349,99.28300976753235 3.634665533900261,98.29711318016052 3.634665533900261,98.29711318016052 2.114756591618061,96.8122661113739 2.114756591618061,96.8122661113739 0.9614132344722748,94.8196530342102 0.9614132344722748,94.8196530342102 0.4507981240749359,93.21937561035156 0.4507981240749359,93.21937561035156 0.15076338313519955,91.47328734397888 0.15076338313519955,91.47328734397888 0.01763314357958734,89.62743878364563 0.01763314357958734,89.62743878364563 0.007324537000386044,87.72760033607483 0.007324537000386044,87.72760033607483 0.07582251564599574,85.81976294517517 0.07582251564599574,85.81976294517517 0.17924768617376685,83.94976854324341 0.17924768617376685,83.94976854324341 0.2734493697062135,82.16353058815002 0.2734493697062135,82.16353058815002 0.3146837931126356,80.50696849822998 0.3146837931126356,80.50696849822998 0.3146837931126356,52.780067920684814 0.3146837931126356,52.780067920684814 0.3146837931126356,8.546377718448639 0.3146837931126356,8.546377718448639 0.6352000869810581,6.228365376591682 0.6352000869810581,6.228365376591682 1.5282509848475456,4.178715869784355 1.5282509848475456,4.178715869784355 2.891157381236553,2.464435249567032 2.891157381236553,2.464435249567032 4.621375724673271,1.1521224863827229 4.621375724673271,1.1521224863827229 6.6162265837192535,0.30844437424093485 6.6162265837192535,0.30844437424093485 8.773167431354523,0.00013563957281803596 8.773167431354523,0.00013563957281803596 10.989382117986679,0.29399876948446035 10.989382117986679,0.29399876948446035 13.162463903427124,1.256564911454916 13.162463903427124,1.256564911454916 14.00953233242035,1.840154267847538 14.00953233242035,1.840154267847538 14.824320375919342,2.502414397895336 14.824320375919342,2.502414397895336 15.611028671264648,3.224288299679756 15.611028671264648,3.224288299679756 16.374002397060394,3.9867181330919266 16.374002397060394,3.9867181330919266 17.117713391780853,4.7707147896289825 17.117713391780853,4.7707147896289825 17.846640944480896,5.5572886019945145 17.846640944480896,5.5572886019945145 18.564987182617188,6.327314674854279 18.564987182617188,6.327314674854279 19.277095794677734,7.0619381964206696 19.277095794677734,7.0619381964206696 21.60494178533554,9.390327334403992 21.60494178533554,9.390327334403992 23.933058977127075,11.718715727329254 23.933058977127075,11.718715727329254 26.261040568351746,14.047105610370636 26.261040568351746,14.047105610370636 28.5891592502594,16.3754940032959 28.5891592502594,16.3754940032959 30.91714084148407,18.70381534099579 30.91714084148407,18.70381534099579 33.24553072452545,21.032270789146423 33.24553072452545,21.032270789146423 35.57364642620087,23.360660672187805 35.57364642620087,23.360660672187805 37.90203630924225,25.68904757499695 37.90203630924225,25.68904757499695 38.002678751945496,25.789830088615417 38.002678751945496,25.789830088615417 38.10319006443024,25.890609622001648 38.10319006443024,25.890609622001648 38.20396959781647,25.99111795425415 38.20396959781647,25.99111795425415 38.30461502075195,26.091626286506653 38.30461502075195,26.091626286506653 38.405394554138184,26.192137598991394 38.405394554138184,26.192137598991394 38.50603997707367,26.29271149635315 38.50603997707367,26.29271149635315 38.60654830932617,26.393356919288635 38.60654830932617,26.393356919288635 38.70719075202942,26.494204998016357 38.70719075202942,26.494204998016357 38.70719075202942,15.6039759516716 38.70719075202942,15.6039759516716 38.6787086725235,14.159820973873138 38.6787086725235,14.159820973873138 38.622280955314636,12.637539207935333 38.622280955314636,12.637539207935333 38.58104646205902,11.070358753204346 38.58104646205902,11.070358753204346 38.59854340553284,9.491514414548874 38.59854340553284,9.491514414548874 38.71804475784302,7.93430432677269 38.71804475784302,7.93430432677269 38.98321986198425,6.431824713945389 38.98321986198425,6.431824713945389 39.43720459938049,5.017375573515892 39.43720459938049,5.017375573515892 40.12326896190643,3.7241198122501373 40.12326896190643,3.7241198122501373 41.464608907699585,2.1540241315960884 41.464608907699585,2.1540241315960884 43.03585886955261,1.0352011770009995 43.03585886955261,1.0352011770009995 44.769737124443054,0.3521203063428402 44.769737124443054,0.3521203063428402 46.59978747367859,0.08925083675421774 46.59978747367859,0.08925083675421774 48.45859110355377,0.23099419195204973 48.45859110355377,0.23099419195204973 50.27928352355957,0.7616161834448576 50.27928352355957,0.7616161834448576 51.99498534202576,1.6657216474413872 51.99498534202576,1.6657216474413872 53.53856682777405,2.9276443645358086 53.53856682777405,2.9276443645358086 54.230326414108276,3.619338572025299 54.230326414108276,3.619338572025299 54.921817779541016,4.311168193817139 54.921817779541016,4.311168193817139 55.613577365875244,5.002861842513084 55.613577365875244,5.002861842513084 56.304931640625,5.694420263171196 56.304931640625,5.694420263171196 56.99629187583923,6.385910511016846 56.99629187583923,6.385910511016846 57.687777280807495,7.077265530824661 57.687777280807495,7.077265530824661 58.37913155555725,7.768484950065613 58.37913155555725,7.768484950065613 59.070491790771484,8.4595687687397 59.070491790771484,8.4595687687397 94.26950216293335,43.66074800491333 94.26950216293335,43.66074800491333 94.88530158996582,44.32402551174164 94.88530158996582,44.32402551174164 95.43925523757935,45.024603605270386 95.43925523757935,45.024603605270386 95.92538475990295,45.7620769739151 95.92538475990295,45.7620769739151 96.33718729019165,46.53603732585907 96.33718729019165,46.53603732585907 96.66842222213745,47.346144914627075 96.66842222213745,47.346144914627075 96.9128429889679,48.19192588329315 96.9128429889679,48.19192588329315 97.06394672393799,49.07304048538208 97.06394672393799,49.07304048538208 97.11576104164124,49.98914897441864 97.11576104164124,49.98914897441864" stroke="white" stroke-width="0.1" /><polygon points="97.11576104164124,49.98914897441864 96.7690646648407,52.15768814086914 95.82419991493225,54.28227782249451 94.42209601402283,56.34419918060303 92.70503520965576,58.32528471946716 90.81448912620544,60.20667552947998 88.89220356941223,61.96991801261902 87.0797872543335,63.596510887145996 85.5191171169281,65.06792902946472 64.4982397556305,86.09097599983215 63.01814317703247,87.60457634925842 61.54509782791138,89.1592800617218 60.06960868835449,90.73392152786255 58.58259201049805,92.30760931968689 57.074958086013794,93.85932683944702 55.53775429725647,95.36811113357544 53.96162271499634,96.81288003921509 52.337342500686646,98.17266464233398 50.09332299232483,99.47195649147034 47.770899534225464,99.9852180480957 45.48632204532623,99.79477524757385 43.356239795684814,98.9827036857605 41.49689078330994,97.63132333755493 40.02465903759003,95.82270979881287 39.055922627449036,93.6391830444336 38.70719075202942,91.16281270980835 38.70719075202942,78.36060523986816 38.70719075202942,73.48409295082092 36.717358231544495,75.47392249107361 34.72779989242554,77.46368646621704 32.73810148239136,79.45358753204346 30.74854016304016,81.44342303276062 28.758978843688965,83.4332525730133 26.769554615020752,85.42308807373047 24.78012889623642,87.41291761398315 22.790703177452087,89.40275311470032 15.159077942371368,97.03546166419983 13.425061106681824,98.41254353523254 11.490298807621002,99.33462142944336 9.449195116758347,99.79287981987 7.396560907363892,99.77863430976868 5.426803603768349,99.28300976753235 3.634665533900261,98.29711318016052 2.114756591618061,96.8122661113739 0.9614132344722748,94.8196530342102 0.4507981240749359,93.21937561035156 0.15076338313519955,91.47328734397888 0.01763314357958734,89.62743878364563 0.007324537000386044,87.72760033607483 0.07582251564599574,85.81976294517517 0.17924768617376685,83.94976854324341 0.2734493697062135,82.16353058815002 0.3146837931126356,80.50696849822998 0.3146837931126356,52.780067920684814 0.3146837931126356,8.546377718448639 0.6352000869810581,6.228365376591682 1.5282509848475456,4.178715869784355 2.891157381236553,2.464435249567032 4.621375724673271,1.1521224863827229 6.6162265837192535,0.30844437424093485 8.773167431354523,0.00013563957281803596 10.989382117986679,0.29399876948446035 13.162463903427124,1.256564911454916 14.00953233242035,1.840154267847538 14.824320375919342,2.502414397895336 15.611028671264648,3.224288299679756 16.374002397060394,3.9867181330919266 17.117713391780853,4.7707147896289825 17.846640944480896,5.5572886019945145 18.564987182617188,6.327314674854279 19.277095794677734,7.0619381964206696 21.60494178533554,9.390327334403992 23.933058977127075,11.718715727329254 26.261040568351746,14.047105610370636 28.5891592502594,16.3754940032959 30.91714084148407,18.70381534099579 33.24553072452545,21.032270789146423 35.57364642620087,23.360660672187805 37.90203630924225,25.68904757499695 38.002678751945496,25.789830088615417 38.10319006443024,25.890609622001648 38.20396959781647,25.99111795425415 38.30461502075195,26.091626286506653 38.405394554138184,26.192137598991394 38.50603997707367,26.29271149635315 38.60654830932617,26.393356919288635 38.70719075202942,26.494204998016357 38.70719075202942,15.6039759516716 38.6787086725235,14.159820973873138 38.622280955314636,12.637539207935333 38.58104646205902,11.070358753204346 38.59854340553284,9.491514414548874 38.71804475784302,7.93430432677269 38.98321986198425,6.431824713945389 39.43720459938049,5.017375573515892 40.12326896190643,3.7241198122501373 41.464608907699585,2.1540241315960884 43.03585886955261,1.0352011770009995 44.769737124443054,0.3521203063428402 46.59978747367859,0.08925083675421774 48.45859110355377,0.23099419195204973 50.27928352355957,0.7616161834448576 51.99498534202576,1.6657216474413872 53.53856682777405,2.9276443645358086 54.230326414108276,3.619338572025299 54.921817779541016,4.311168193817139 55.613577365875244,5.002861842513084 56.304931640625,5.694420263171196 56.99629187583923,6.385910511016846 57.687777280807495,7.077265530824661 58.37913155555725,7.768484950065613 59.070491790771484,8.4595687687397 94.26950216293335,43.66074800491333 94.88530158996582,44.32402551174164 95.43925523757935,45.024603605270386 95.92538475990295,45.7620769739151 96.33718729019165,46.53603732585907 96.66842222213745,47.346144914627075 96.9128429889679,48.19192588329315 97.06394672393799,49.07304048538208 97.11576104164124,49.98914897441864" stroke="white" stroke-width="0.1" /></svg>