<?xml version="1.0" encoding="utf-8" ?>
<svg baseProfile="full" height="74.60213303565979" version="1.1" width="99.98397827148438" xmlns="http://www.w3.org/2000/svg" xmlns:ev="http://www.w3.org/2001/xml-events" xmlns:xlink="http://www.w3.org/1999/xlink"><defs><clipPath /></defs><polygon points="0.016021484043449163,56.47191405296326 0.016021484043449163,56.47191405296326 0.6858720909804106,46.736958622932434 0.6858720909804106,46.736958622932434 0.7143865339457989,46.25135362148285 0.7143865339457989,46.25135362148285 0.737274345010519,45.75793147087097 0.737274345010519,45.75793147087097 0.7601622026413679,45.259642601013184 0.7601622026413679,45.259642601013184 0.7886766456067562,44.759735465049744 0.7886766456067562,44.759735465049744 0.8283965289592743,44.261160492897034 0.8283965289592743,44.261160492897034 0.8849962614476681,43.76716613769531 0.8849962614476681,43.76716613769531 0.9640546515583992,43.28060746192932 0.9640546515583992,43.28060746192932 1.0711506940424442,42.80482828617096 1.0711506940424442,42.80482828617096 1.4499442651867867,41.73977971076965 1.4499442651867867,41.73977971076965 1.996486634016037,40.75951278209686 1.996486634016037,40.75951278209686 2.6904650032520294,39.88109827041626 2.6904650032520294,39.88109827041626 3.511565923690796,39.121413230895996 3.511565923690796,39.121413230895996 4.439381510019302,38.49800527095795 4.439381510019302,38.49800527095795 5.453789606690407,38.028040528297424 5.453789606690407,38.028040528297424 6.534333527088165,37.72859275341034 6.534333527088165,37.72859275341034 7.660558074712753,37.61691749095917 7.660558074712753,37.61691749095917 6.3441261649131775,36.151811480522156 6.3441261649131775,36.151811480522156 5.3554195910692215,34.49654281139374 5.3554195910692215,34.49654281139374 4.699254035949707,32.70576298236847 4.699254035949707,32.70576298236847 4.380064085125923,30.83401322364807 4.380064085125923,30.83401322364807 4.4025227427482605,28.9359450340271 4.4025227427482605,28.9359450340271 4.771255329251289,27.066007256507874 4.771255329251289,27.066007256507874 5.490743741393089,25.27894675731659 5.490743741393089,25.27894675731659 6.565757095813751,23.62940013408661 6.565757095813751,23.62940013408661 7.838033884763718,22.312206029891968 7.838033884763718,22.312206029891968 9.300471842288971,21.262893080711365 9.300471842288971,21.262893080711365 10.908818989992142,20.490047335624695 10.908818989992142,20.490047335624695 12.6188263297081,20.00301331281662 12.6188263297081,20.00301331281662 14.386148750782013,19.81075555086136 14.386148750782013,19.81075555086136 16.166630387306213,19.92223858833313 16.166630387306213,19.92223858833313 17.915882170200348,20.346522331237793 17.915882170200348,20.346522331237793 19.58969682455063,21.092665195465088 19.58969682455063,21.092665195465088 20.311617851257324,21.538691222667694 20.311617851257324,21.538691222667694 20.992960035800934,22.042128443717957 20.992960035800934,22.042128443717957 21.630243957042694,22.59935289621353 21.630243957042694,22.59935289621353 22.219890356063843,23.206165432929993 22.219890356063843,23.206165432929993 22.758279740810394,23.858851194381714 22.758279740810394,23.858851194381714 23.241975903511047,24.55349713563919 23.241975903511047,24.55349713563919 23.667261004447937,25.286290049552917 23.667261004447937,25.286290049552917 24.03070032596588,26.05322301387787 24.03070032596588,26.05322301387787 24.192392826080322,26.459863781929016 24.192392826080322,26.459863781929016 24.336396157741547,26.872795820236206 24.336396157741547,26.872795820236206 24.462422728538513,27.291452884674072 24.462422728538513,27.291452884674072 24.570471048355103,27.71506905555725 24.570471048355103,27.71506905555725 24.660353362560272,28.142881393432617 24.660353362560272,28.142881393432617 24.73192662000656,28.574317693710327 24.73192662000656,28.574317693710327 24.78504478931427,29.008325934410095 24.78504478931427,29.008325934410095 24.819567799568176,29.444435238838196 24.819567799568176,29.444435238838196 24.790385365486145,29.992884397506714 24.790385365486145,29.992884397506714 24.651247262954712,30.496037006378174 24.651247262954712,30.496037006378174 24.424895644187927,30.96466362476349 24.424895644187927,30.96466362476349 24.13426786661148,31.409451365470886 24.13426786661148,31.409451365470886 23.802202939987183,31.8413645029068 23.802202939987183,31.8413645029068 23.451638221740723,32.2708934545517 23.451638221740723,32.2708934545517 23.10541123151779,32.70919620990753 23.10541123151779,32.70919620990753 22.78636544942856,33.166760206222534 22.78636544942856,33.166760206222534 22.125764191150665,34.31410789489746 22.125764191150665,34.31410789489746 21.570543944835663,35.487204790115356 21.570543944835663,35.487204790115356 21.111643314361572,36.68481111526489 21.111643314361572,36.68481111526489 20.740193128585815,37.90597319602966 20.740193128585815,37.90597319602966 20.44689506292343,39.14964199066162 20.44689506292343,39.14964199066162 20.22283226251602,40.41447937488556 20.22283226251602,40.41447937488556 20.058898627758026,41.69972538948059 20.058898627758026,41.69972538948059 19.945985078811646,43.003952503204346 19.945985078811646,43.003952503204346 18.681813776493073,61.3660991191864 18.681813776493073,61.3660991191864 18.67995411157608,61.488932371139526 18.67995411157608,61.488932371139526 18.683530390262604,61.67336702346802 18.683530390262604,61.67336702346802 18.688203394412994,61.89767122268677 18.688203394412994,61.89767122268677 18.689729273319244,62.14056611061096 18.689729273319244,62.14056611061096 18.683768808841705,62.38069534301758 18.683768808841705,62.38069534301758 18.66607815027237,62.59660720825195 18.66607815027237,62.59660720825195 18.632222712039948,62.76673674583435 18.632222712039948,62.76673674583435 18.578055500984192,62.869828939437866 18.578055500984192,62.869828939437866 18.394571542739868,62.9513680934906 18.394571542739868,62.9513680934906 18.093596398830414,62.98961043357849 18.093596398830414,62.98961043357849 17.712800204753876,62.994569540023804 17.712800204753876,62.994569540023804 17.28985160589218,62.976258993148804 17.28985160589218,62.976258993148804 16.862468421459198,62.94469237327576 16.862468421459198,62.94469237327576 16.468368470668793,62.90969252586365 16.468368470668793,62.90969252586365 16.145221889019012,62.88146376609802 16.145221889019012,62.88146376609802 15.930695831775665,62.869828939437866 15.930695831775665,62.869828939437866 6.627553701400757,62.869828939437866 6.627553701400757,62.869828939437866 5.279126763343811,62.75739073753357 5.279126763343811,62.75739073753357 4.008708894252777,62.42704391479492 4.008708894252777,62.42704391479492 2.8518717736005783,61.889755725860596 2.8518717736005783,61.889755725860596 1.8440918996930122,61.156004667282104 1.8440918996930122,61.156004667282104 1.0210835374891758,60.23668050765991 1.0210835374891758,60.23668050765991 0.41832285933196545,59.14235711097717 0.41832285933196545,59.14235711097717 0.07152448524720967,57.88390636444092 0.07152448524720967,57.88390636444092 0.016021484043449163,56.47191405296326 0.016021484043449163,56.47191405296326" stroke="white" stroke-width="0.1" /><polygon points="74.18709993362427,68.82524490356445 74.18709993362427,68.82524490356445 74.18709993362427,68.82524490356445 74.18709993362427,68.82524490356445 72.85093069076538,70.92176675796509 72.85093069076538,70.92176675796509 71.22217416763306,72.44152426719666 71.22217416763306,72.44152426719666 69.35433149337769,73.47614765167236 69.35433149337769,73.47614765167236 67.30062961578369,74.11700487136841 67.30062961578369,74.11700487136841 65.11436104774475,74.45603013038635 65.11436104774475,74.45603013038635 62.84875273704529,74.58468079566956 62.84875273704529,74.58468079566956 60.557204484939575,74.59478974342346 60.557204484939575,74.59478974342346 58.29302668571472,74.57771897315979 58.29302668571472,74.57771897315979 38.40120732784271,74.57771897315979 38.40120732784271,74.57771897315979 37.68148124217987,74.58344101905823 37.68148124217987,74.58344101905823 36.953744292259216,74.59431290626526 36.953744292259216,74.59431290626526 36.22152507305145,74.60213303565979 36.22152507305145,74.60213303565979 35.4877769947052,74.59736466407776 35.4877769947052,74.59736466407776 34.75603461265564,74.57161545753479 34.75603461265564,74.57161545753479 34.02944207191467,74.51592087745667 34.02944207191467,74.51592087745667 33.311524987220764,74.42150712013245 33.311524987220764,74.42150712013245 32.60524570941925,74.27941560745239 32.60524570941925,74.27941560745239 30.76840043067932,73.64904284477234 30.76840043067932,73.64904284477234 29.15376126766205,72.7220892906189 29.15376126766205,72.7220892906189 27.773624658584595,71.53649926185608 27.773624658584595,71.53649926185608 26.640772819519043,70.13003826141357 26.640772819519043,70.13003826141357 25.767505168914795,68.54057908058167 25.767505168914795,68.54057908058167 25.166508555412292,66.8058693408966 25.166508555412292,66.8058693408966 24.850228428840637,64.96368646621704 24.850228428840637,64.96368646621704 24.83101189136505,63.05217146873474 24.83101189136505,63.05217146873474 25.91589391231537,47.28931784629822 25.91589391231537,47.28931784629822 25.963100790977478,46.542030572891235 25.963100790977478,46.542030572891235 26.004299521446228,45.791977643966675 26.004299521446228,45.791977643966675 26.043495535850525,45.040395855903625 26.043495535850525,45.040395855903625 26.084882020950317,44.28814947605133 26.084882020950317,44.28814947605133 26.132184267044067,43.53647530078888 26.132184267044067,43.53647530078888 26.189500093460083,42.78632700443268 26.189500093460083,42.78632700443268 26.26073956489563,42.038753628730774 26.26073956489563,42.038753628730774 26.350000500679016,41.294994950294495 26.350000500679016,41.294994950294495 26.834651827812195,39.2039030790329 26.834651827812195,39.2039030790329 27.682453393936157,37.2562438249588 27.682453393936157,37.2562438249588 28.851258754730225,35.49254536628723 28.851258754730225,35.49254536628723 30.29891550540924,33.95400643348694 30.29891550540924,33.95400643348694 31.98307752609253,32.68106281757355 31.98307752609253,32.68106281757355 33.86178910732269,31.71491026878357 33.86178910732269,31.71491026878357 35.892605781555176,31.095793843269348 35.892605781555176,31.095793843269348 38.03347647190094,30.865007638931274 38.03347647190094,30.865007638931274 36.10193431377411,28.785839676856995 36.10193431377411,28.785839676856995 34.54918563365936,26.45576298236847 34.54918563365936,26.45576298236847 33.38734209537506,23.930470645427704 33.38734209537506,23.930470645427704 32.62851536273956,21.265563368797302 32.62851536273956,21.265563368797302 32.28481709957123,18.51682960987091 32.28481709957123,18.51682960987091 32.36835598945618,15.739582479000092 32.36835598945618,15.739582479000092 32.891249656677246,12.989895045757294 32.891249656677246,12.989895045757294 33.86560380458832,10.32317653298378 33.86560380458832,10.32317653298378 35.10383367538452,8.090658485889435 35.10383367538452,8.090658485889435 36.63598299026489,6.081583723425865 36.63598299026489,6.081583723425865 38.426098227500916,4.318743571639061 38.426098227500916,4.318743571639061 40.43879806995392,2.825026400387287 40.43879806995392,2.825026400387287 42.638128995895386,1.6234150156378746 42.638128995895386,1.6234150156378746 44.988709688186646,0.736702186986804 44.988709688186646,0.736702186986804 47.45449125766754,0.18806171137839556 47.45449125766754,0.18806171137839556 50.0,0.0 50.0,0.0 52.54550576210022,0.18806171137839556 52.54550576210022,0.18806171137839556 55.011290311813354,0.7367975544184446 55.011290311813354,0.7367975544184446 57.361871004104614,1.6236057505011559 57.361871004104614,1.6236057505011559 59.56120491027832,2.825312502682209 59.56120491027832,2.825312502682209 61.573803424835205,4.318934306502342 61.573803424835205,4.318934306502342 63.36401700973511,6.081869825720787 63.36401700973511,6.081869825720787 64.89616632461548,8.090849220752716 64.89616632461548,8.090849220752716 66.13439917564392,10.32317653298378 66.13439917564392,10.32317653298378 67.10875034332275,12.989895045757294 67.10875034332275,12.989895045757294 67.63164401054382,15.739582479000092 67.63164401054382,15.739582479000092 67.71518588066101,18.51673424243927 67.71518588066101,18.51673424243927 67.37148761749268,21.265563368797302 67.37148761749268,21.265563368797302 66.61255955696106,23.930470645427704 66.61255955696106,23.930470645427704 65.4508113861084,26.45576298236847 65.4508113861084,26.45576298236847 63.89806270599365,28.785839676856995 63.89806270599365,28.785839676856995 61.96652054786682,30.865007638931274 61.96652054786682,30.865007638931274 64.18969631195068,31.113913655281067 64.18969631195068,31.113913655281067 66.29422903060913,31.781569123268127 66.29422903060913,31.781569123268127 68.2314932346344,32.82144069671631 68.2314932346344,32.82144069671631 69.95332837104797,34.18708145618439 69.95332837104797,34.18708145618439 71.4111864566803,35.83195507526398 71.4111864566803,35.83195507526398 72.55691289901733,37.709423899650574 72.55691289901733,37.709423899650574 73.341965675354,39.77295160293579 73.341965675354,39.77295160293579 73.71789813041687,41.976287961006165 73.71789813041687,41.976287961006165 74.22143220901489,49.28971529006958 74.22143220901489,49.28971529006958 74.97901916503906,60.28655767440796 74.97901916503906,60.28655767440796 75.05712509155273,61.37658953666687 75.05712509155273,61.37658953666687 75.12693405151367,62.46309280395508 75.12693405151367,62.46309280395508 75.16727447509766,63.54435086250305 75.16727447509766,63.54435086250305 75.15697479248047,64.61912989616394 75.15697479248047,64.61912989616394 75.07495880126953,65.68598747253418 75.07495880126953,65.68598747253418 74.90005493164062,66.74359440803528 74.90005493164062,66.74359440803528 74.61119294166565,67.79042482376099 74.61119294166565,67.79042482376099" stroke="white" stroke-width="0.1" /><polygon points="99.98397827148438,56.47191405296326 99.98397827148438,56.47191405296326 99.98397827148438,56.47191405296326 99.98397827148438,56.47191405296326 99.92847442626953,57.88390636444092 99.92847442626953,57.88390636444092 99.5817244052887,59.14235711097717 99.5817244052887,59.14235711097717 98.97891879081726,60.23668050765991 98.97891879081726,60.23668050765991 98.15590977668762,61.156004667282104 98.15590977668762,61.156004667282104 97.14817404747009,61.889755725860596 97.14817404747009,61.889755725860596 95.9912896156311,62.42704391479492 95.9912896156311,62.42704391479492 94.72092390060425,62.75739073753357 94.72092390060425,62.75739073753357 93.37244629859924,62.869828939437866 93.37244629859924,62.869828939437866 84.06930565834045,62.869828939437866 84.06930565834045,62.869828939437866 83.85482430458069,62.88146376609802 83.85482430458069,62.88146376609802 83.53163003921509,62.90969252586365 83.53163003921509,62.90969252586365 83.1375777721405,62.94469237327576 83.1375777721405,62.94469237327576 82.7101469039917,62.976258993148804 82.7101469039917,62.976258993148804 82.28719830513,62.994569540023804 82.28719830513,62.994569540023804 81.90640211105347,62.98961043357849 81.90640211105347,62.98961043357849 81.60542845726013,62.9513680934906 81.60542845726013,62.9513680934906 81.42194747924805,62.869828939437866 81.42194747924805,62.869828939437866 81.36777877807617,62.76673674583435 81.36777877807617,62.76673674583435 81.33392333984375,62.59660720825195 81.33392333984375,62.59660720825195 81.3161849975586,62.38069534301758 81.3161849975586,62.38069534301758 81.31027221679688,62.14056611061096 81.31027221679688,62.14056611061096 81.31189346313477,61.89767122268677 81.31189346313477,61.89767122268677 81.31647109985352,61.67336702346802 81.31647109985352,61.67336702346802 81.32009506225586,61.488932371139526 81.32009506225586,61.488932371139526 81.31818771362305,61.3660991191864 81.31818771362305,61.3660991191864 80.05401492118835,43.003952503204346 80.05401492118835,43.003952503204346 79.94109988212585,41.69972538948059 79.94109988212585,41.69972538948059 79.7771692276001,40.41447937488556 79.7771692276001,40.41447937488556 79.55315113067627,39.14964199066162 79.55315113067627,39.14964199066162 79.25980687141418,37.90597319602966 79.25980687141418,37.90597319602966 78.88835668563843,36.68481111526489 78.88835668563843,36.68481111526489 78.42945456504822,35.487204790115356 78.42945456504822,35.487204790115356 77.8743326663971,34.31410789489746 77.8743326663971,34.31410789489746 77.21363306045532,33.166760206222534 77.21363306045532,33.166760206222534 76.89453959465027,32.70919620990753 76.89453959465027,32.70919620990753 76.54836177825928,32.2708934545517 76.54836177825928,32.2708934545517 76.19779706001282,31.8413645029068 76.19779706001282,31.8413645029068 75.86573362350464,31.409451365470886 75.86573362350464,31.409451365470886 75.57505965232849,30.96466362476349 75.57505965232849,30.96466362476349 75.34875273704529,30.496037006378174 75.34875273704529,30.496037006378174 75.20961165428162,29.992884397506714 75.20961165428162,29.992884397506714 75.18043518066406,29.444435238838196 75.18043518066406,29.444435238838196 75.21495223045349,29.008325934410095 75.21495223045349,29.008325934410095 75.26807188987732,28.574317693710327 75.26807188987732,28.574317693710327 75.33969283103943,28.142881393432617 75.33969283103943,28.142881393432617 75.4295289516449,27.71506905555725 75.4295289516449,27.71506905555725 75.53758025169373,27.291452884674072 75.53758025169373,27.291452884674072 75.66355466842651,26.872795820236206 75.66355466842651,26.872795820236206 75.80755949020386,26.459863781929016 75.80755949020386,26.459863781929016 75.96930265426636,26.05322301387787 75.96930265426636,26.05322301387787 76.33245587348938,25.286290049552917 76.33245587348938,25.286290049552917 76.75759792327881,24.55349713563919 76.75759792327881,24.55349713563919 77.24109888076782,23.858851194381714 77.24109888076782,23.858851194381714 77.77944207191467,23.206165432929993 77.77944207191467,23.206165432929993 78.3690869808197,22.59935289621353 78.3690869808197,22.59935289621353 79.00632619857788,22.042128443717957 79.00632619857788,22.042128443717957 79.68761920928955,21.538691222667694 79.68761920928955,21.538691222667694 80.40953874588013,21.092665195465088 80.40953874588013,21.092665195465088 82.08359479904175,20.346522331237793 82.08359479904175,20.346522331237793 83.83298516273499,19.92223858833313 83.83298516273499,19.92223858833313 85.61366200447083,19.81075555086136 85.61366200447083,19.81075555086136 87.3809814453125,20.00301331281662 87.3809814453125,20.00301331281662 89.090895652771,20.490047335624695 89.090895652771,20.490047335624695 90.69914817810059,21.262893080711365 90.69914817810059,21.262893080711365 92.16148853302002,22.312206029891968 92.16148853302002,22.312206029891968 93.43348145484924,23.62940013408661 93.43348145484924,23.62940013408661 94.50873136520386,25.27894675731659 94.50873136520386,25.27894675731659 95.2284574508667,27.065911889076233 95.2284574508667,27.065911889076233 95.59723734855652,28.93575429916382 95.59723734855652,28.93575429916382 95.61983942985535,30.83372712135315 95.61983942985535,30.83372712135315 95.3007459640503,32.70547688007355 95.3007459640503,32.70547688007355 94.64453458786011,34.496256709098816 94.64453458786011,34.496256709098816 93.6558723449707,36.151620745658875 93.6558723449707,36.151620745658875 92.33944416046143,37.61691749095917 92.33944416046143,37.61691749095917 93.46571564674377,37.72859275341034 93.46571564674377,37.72859275341034 94.54621076583862,38.028040528297424 94.54621076583862,38.028040528297424 95.56052088737488,38.49800527095795 95.56052088737488,38.49800527095795 96.4884340763092,39.121413230895996 96.4884340763092,39.121413230895996 97.30953574180603,39.88109827041626 97.30953574180603,39.88109827041626 98.0035126209259,40.75951278209686 98.0035126209259,40.75951278209686 98.55005741119385,41.73977971076965 98.55005741119385,41.73977971076965 98.92885088920593,42.80482828617096 98.92885088920593,42.80482828617096 99.03603792190552,43.28060746192932 99.03603792190552,43.28060746192932 99.11500215530396,43.76716613769531 99.11500215530396,43.76716613769531 99.1714596748352,44.261160492897034 99.1714596748352,44.261160492897034 99.21132326126099,44.759735465049744 99.21132326126099,44.759735465049744 99.23983812332153,45.259642601013184 99.23983812332153,45.259642601013184 99.26272630691528,45.75793147087097 99.26272630691528,45.75793147087097 99.28561449050903,46.25135362148285 99.28561449050903,46.25135362148285 99.31412935256958,46.736958622932434 99.31412935256958,46.736958622932434" stroke="white" stroke-width="0.1" /><polygon points="0.016021484043449163,56.47191405296326 0.6858720909804106,46.736958622932434 0.7143865339457989,46.25135362148285 0.737274345010519,45.75793147087097 0.7601622026413679,45.259642601013184 0.7886766456067562,44.759735465049744 0.8283965289592743,44.261160492897034 0.8849962614476681,43.76716613769531 0.9640546515583992,43.28060746192932 1.0711506940424442,42.80482828617096 1.4499442651867867,41.73977971076965 1.996486634016037,40.75951278209686 2.6904650032520294,39.88109827041626 3.511565923690796,39.121413230895996 4.439381510019302,38.49800527095795 5.453789606690407,38.028040528297424 6.534333527088165,37.72859275341034 7.660558074712753,37.61691749095917 6.3441261649131775,36.151811480522156 5.3554195910692215,34.49654281139374 4.699254035949707,32.70576298236847 4.380064085125923,30.83401322364807 4.4025227427482605,28.9359450340271 4.771255329251289,27.066007256507874 5.490743741393089,25.27894675731659 6.565757095813751,23.62940013408661 7.838033884763718,22.312206029891968 9.300471842288971,21.262893080711365 10.908818989992142,20.490047335624695 12.6188263297081,20.00301331281662 14.386148750782013,19.81075555086136 16.166630387306213,19.92223858833313 17.915882170200348,20.346522331237793 19.58969682455063,21.092665195465088 20.311617851257324,21.538691222667694 20.992960035800934,22.042128443717957 21.630243957042694,22.59935289621353 22.219890356063843,23.206165432929993 22.758279740810394,23.858851194381714 23.241975903511047,24.55349713563919 23.667261004447937,25.286290049552917 24.03070032596588,26.05322301387787 24.192392826080322,26.459863781929016 24.336396157741547,26.872795820236206 24.462422728538513,27.291452884674072 24.570471048355103,27.71506905555725 24.660353362560272,28.142881393432617 24.73192662000656,28.574317693710327 24.78504478931427,29.008325934410095 24.819567799568176,29.444435238838196 24.790385365486145,29.992884397506714 24.651247262954712,30.496037006378174 24.424895644187927,30.96466362476349 24.13426786661148,31.409451365470886 23.802202939987183,31.8413645029068 23.451638221740723,32.2708934545517 23.10541123151779,32.70919620990753 22.78636544942856,33.166760206222534 22.125764191150665,34.31410789489746 21.570543944835663,35.487204790115356 21.111643314361572,36.68481111526489 20.740193128585815,37.90597319602966 20.44689506292343,39.14964199066162 20.22283226251602,40.41447937488556 20.058898627758026,41.69972538948059 19.945985078811646,43.003952503204346 18.681813776493073,61.3660991191864 18.67995411157608,61.488932371139526 18.683530390262604,61.67336702346802 18.688203394412994,61.89767122268677 18.689729273319244,62.14056611061096 18.683768808841705,62.38069534301758 18.66607815027237,62.59660720825195 18.632222712039948,62.76673674583435 18.578055500984192,62.869828939437866 18.394571542739868,62.9513680934906 18.093596398830414,62.98961043357849 17.712800204753876,62.994569540023804 17.28985160589218,62.976258993148804 16.862468421459198,62.94469237327576 16.468368470668793,62.90969252586365 16.145221889019012,62.88146376609802 15.930695831775665,62.869828939437866 6.627553701400757,62.869828939437866 5.279126763343811,62.75739073753357 4.008708894252777,62.42704391479492 2.8518717736005783,61.889755725860596 1.8440918996930122,61.156004667282104 1.0210835374891758,60.23668050765991 0.41832285933196545,59.14235711097717 0.07152448524720967,57.88390636444092 0.016021484043449163,56.47191405296326" stroke="white" stroke-width="0.1" /><polygon points="74.18709993362427,68.82524490356445 74.18709993362427,68.82524490356445 72.85093069076538,70.92176675796509 71.22217416763306,72.44152426719666 69.35433149337769,73.47614765167236 67.30062961578369,74.11700487136841 65.11436104774475,74.45603013038635 62.84875273704529,74.58468079566956 60.557204484939575,74.59478974342346 58.29302668571472,74.57771897315979 38.40120732784271,74.57771897315979 37.68148124217987,74.58344101905823 36.953744292259216,74.59431290626526 36.22152507305145,74.60213303565979 35.4877769947052,74.59736466407776 34.75603461265564,74.57161545753479 34.02944207191467,74.51592087745667 33.311524987220764,74.42150712013245 32.60524570941925,74.27941560745239 30.76840043067932,73.64904284477234 29.15376126766205,72.7220892906189 27.773624658584595,71.53649926185608 26.640772819519043,70.13003826141357 25.767505168914795,68.54057908058167 25.166508555412292,66.8058693408966 24.850228428840637,64.96368646621704 24.83101189136505,63.05217146873474 25.91589391231537,47.28931784629822 25.963100790977478,46.542030572891235 26.004299521446228,45.791977643966675 26.043495535850525,45.040395855903625 26.084882020950317,44.28814947605133 26.132184267044067,43.53647530078888 26.189500093460083,42.78632700443268 26.26073956489563,42.038753628730774 26.350000500679016,41.294994950294495 26.834651827812195,39.2039030790329 27.682453393936157,37.2562438249588 28.851258754730225,35.49254536628723 30.29891550540924,33.95400643348694 31.98307752609253,32.68106281757355 33.86178910732269,31.71491026878357 35.892605781555176,31.095793843269348 38.03347647190094,30.865007638931274 36.10193431377411,28.785839676856995 34.54918563365936,26.45576298236847 33.38734209537506,23.930470645427704 32.62851536273956,21.265563368797302 32.28481709957123,18.51682960987091 32.36835598945618,15.739582479000092 32.891249656677246,12.989895045757294 33.86560380458832,10.32317653298378 35.10383367538452,8.090658485889435 36.63598299026489,6.081583723425865 38.426098227500916,4.318743571639061 40.43879806995392,2.825026400387287 42.638128995895386,1.6234150156378746 44.988709688186646,0.736702186986804 47.45449125766754,0.18806171137839556 50.0,0.0 52.54550576210022,0.18806171137839556 55.011290311813354,0.7367975544184446 57.361871004104614,1.6236057505011559 59.56120491027832,2.825312502682209 61.573803424835205,4.318934306502342 63.36401700973511,6.081869825720787 64.89616632461548,8.090849220752716 66.13439917564392,10.32317653298378 67.10875034332275,12.989895045757294 67.63164401054382,15.739582479000092 67.71518588066101,18.51673424243927 67.37148761749268,21.265563368797302 66.61255955696106,23.930470645427704 65.4508113861084,26.45576298236847 63.89806270599365,28.785839676856995 61.96652054786682,30.865007638931274 64.18969631195068,31.113913655281067 66.29422903060913,31.781569123268127 68.2314932346344,32.82144069671631 69.95332837104797,34.18708145618439 71.4111864566803,35.83195507526398 72.55691289901733,37.709423899650574 73.341965675354,39.77295160293579 73.71789813041687,41.976287961006165 74.22143220901489,49.28971529006958 74.97901916503906,60.28655767440796 75.05712509155273,61.37658953666687 75.12693405151367,62.46309280395508 75.16727447509766,63.54435086250305 75.15697479248047,64.61912989616394 75.07495880126953,65.68598747253418 74.90005493164062,66.74359440803528 74.61119294166565,67.79042482376099" stroke="white" stroke-width="0.1" /><polygon points="99.98397827148438,56.47191405296326 99.98397827148438,56.47191405296326 99.92847442626953,57.88390636444092 99.5817244052887,59.14235711097717 98.97891879081726,60.23668050765991 98.15590977668762,61.156004667282104 97.14817404747009,61.889755725860596 95.9912896156311,62.42704391479492 94.72092390060425,62.75739073753357 93.37244629859924,62.869828939437866 84.06930565834045,62.869828939437866 83.85482430458069,62.88146376609802 83.53163003921509,62.90969252586365 83.1375777721405,62.94469237327576 82.7101469039917,62.976258993148804 82.28719830513,62.994569540023804 81.90640211105347,62.98961043357849 81.60542845726013,62.9513680934906 81.42194747924805,62.869828939437866 81.36777877807617,62.76673674583435 81.33392333984375,62.59660720825195 81.3161849975586,62.38069534301758 81.31027221679688,62.14056611061096 81.31189346313477,61.89767122268677 81.31647109985352,61.67336702346802 81.32009506225586,61.488932371139526 81.31818771362305,61.3660991191864 80.05401492118835,43.003952503204346 79.94109988212585,41.69972538948059 79.7771692276001,40.41447937488556 79.55315113067627,39.14964199066162 79.25980687141418,37.90597319602966 78.88835668563843,36.68481111526489 78.42945456504822,35.487204790115356 77.8743326663971,34.31410789489746 77.21363306045532,33.166760206222534 76.89453959465027,32.70919620990753 76.54836177825928,32.2708934545517 76.19779706001282,31.8413645029068 75.86573362350464,31.409451365470886 75.57505965232849,30.96466362476349 75.34875273704529,30.496037006378174 75.20961165428162,29.992884397506714 75.18043518066406,29.444435238838196 75.21495223045349,29.008325934410095 75.26807188987732,28.574317693710327 75.33969283103943,28.142881393432617 75.4295289516449,27.71506905555725 75.53758025169373,27.291452884674072 75.66355466842651,26.872795820236206 75.80755949020386,26.459863781929016 75.96930265426636,26.05322301387787 76.33245587348938,25.286290049552917 76.75759792327881,24.55349713563919 77.24109888076782,23.858851194381714 77.77944207191467,23.206165432929993 78.3690869808197,22.59935289621353 79.00632619857788,22.042128443717957 79.68761920928955,21.538691222667694 80.40953874588013,21.092665195465088 82.08359479904175,20.346522331237793 83.83298516273499,19.92223858833313 85.61366200447083,19.81075555086136 87.3809814453125,20.00301331281662 89.090895652771,20.490047335624695 90.69914817810059,21.262893080711365 92.16148853302002,22.312206029891968 93.43348145484924,23.62940013408661 94.50873136520386,25.27894675731659 95.2284574508667,27.065911889076233 95.59723734855652,28.93575429916382 95.61983942985535,30.83372712135315 95.3007459640503,32.70547688007355 94.64453458786011,34.496256709098816 93.6558723449707,36.151620745658875 92.33944416046143,37.61691749095917 93.46571564674377,37.72859275341034 94.54621076583862,38.028040528297424 95.56052088737488,38.49800527095795 96.4884340763092,39.121413230895996 97.30953574180603,39.88109827041626 98.0035126209259,40.75951278209686 98.55005741119385,41.73977971076965 98.92885088920593,42.80482828617096 99.03603792190552,43.28060746192932 99.11500215530396,43.76716613769531 99.1714596748352,44.261160492897034 99.21132326126099,44.759735465049744 99.23983812332153,45.259642601013184 99.26272630691528,45.75793147087097 99.28561449050903,46.25135362148285 99.31412935256958,46.736958622932434" stroke="white" stroke-width="0.1" /></svg>