<?xml version="1.0" encoding="utf-8" ?>
<svg baseProfile="full" height="100.0" version="1.1" width="73.53515625" xmlns="http://www.w3.org/2000/svg" xmlns:ev="http://www.w3.org/2001/xml-events" xmlns:xlink="http://www.w3.org/1999/xlink"><defs><clipPath /></defs><polygon points="36.767578125,100.0 36.767578125,100.0 36.767578125,100.0 36.767578125,100.0 33.36435854434967,99.96554255485535 33.36435854434967,99.96554255485535 29.32332456111908,99.82083439826965 29.32332456111908,99.82083439826965 24.889881908893585,99.50332641601562 24.889881908893585,99.50332641601562 20.30995637178421,98.95095825195312 20.30995637178421,98.95095825195312 15.8294677734375,98.10130000114441 15.8294677734375,98.10130000114441 11.69382706284523,96.89216613769531 11.69382706284523,96.89216613769531 8.149973303079605,95.26100158691406 8.149973303079605,95.26100158691406 5.44230155646801,93.145751953125 5.44230155646801,93.145751953125 3.646087646484375,90.8959686756134 3.646087646484375,90.8959686756134 2.295939065515995,88.54967951774597 2.295939065515995,88.54967951774597 1.3285319320857525,86.11500859260559 1.3285319320857525,86.11500859260559 0.6802876945585012,83.60036015510559 0.6802876945585012,83.60036015510559 0.286865234375,81.01374506950378 0.286865234375,81.01374506950378 0.08494059438817203,78.36329340934753 0.08494059438817203,78.36329340934753 0.01068115234375,75.65752863883972 0.01068115234375,75.65752863883972 0.0,72.90446162223816 0.0,72.90446162223816 0.0,49.44864809513092 0.0,49.44864809513092 0.115966796875,46.14550173282623 0.115966796875,46.14550173282623 0.49387612380087376,42.94649660587311 0.49387612380087376,42.94649660587311 1.177978515625,39.8834228515625 1.177978515625,39.8834228515625 2.2125244140625,36.98832094669342 2.2125244140625,36.98832094669342 3.642527386546135,34.2926025390625 3.642527386546135,34.2926025390625 5.51198311150074,31.828179955482483 5.51198311150074,31.828179955482483 7.86590576171875,29.626718163490295 7.86590576171875,29.626718163490295 10.748291015625,27.72013247013092 10.748291015625,27.72013247013092 12.43387833237648,20.672352612018585 12.43387833237648,20.672352612018585 14.7552490234375,14.782969653606415 14.7552490234375,14.782969653606415 17.6177978515625,9.984970092773438 17.6177978515625,9.984970092773438 20.928192138671875,6.2104541808366776 20.928192138671875,6.2104541808366776 24.592335522174835,3.3921558409929276 24.592335522174835,3.3921558409929276 28.51613461971283,1.46268205717206 28.51613461971283,1.46268205717206 32.605743408203125,0.3543853759765625 32.605743408203125,0.3543853759765625 36.767578125,0.0 36.767578125,0.0 40.92915952205658,0.3543853759765625 40.92915952205658,0.3543853759765625 45.01902163028717,1.46268205717206 45.01902163028717,1.46268205717206 48.942819237709045,3.3921558409929276 48.942819237709045,3.3921558409929276 52.606964111328125,6.2104541808366776 52.606964111328125,6.2104541808366776 55.9173583984375,9.984970092773438 55.9173583984375,9.984970092773438 58.7799072265625,14.783096313476562 58.7799072265625,14.783096313476562 61.101025342941284,20.672225952148438 61.101025342941284,20.672225952148438 62.786865234375,27.72013247013092 62.786865234375,27.72013247013092 65.66925048828125,29.626718163490295 65.66925048828125,29.626718163490295 68.02317500114441,31.828179955482483 68.02317500114441,31.828179955482483 69.89288330078125,34.2926025390625 69.89288330078125,34.2926025390625 71.3226318359375,36.98832094669342 71.3226318359375,36.98832094669342 72.35743403434753,39.8834228515625 72.35743403434753,39.8834228515625 73.04127812385559,42.94649660587311 73.04127812385559,42.94649660587311 73.41893315315247,46.145376563072205 73.41893315315247,46.145376563072205 73.53515625,49.44864809513092 73.53515625,49.44864809513092 73.53515625,72.90446162223816 73.53515625,72.90446162223816 73.52447509765625,75.65765380859375 73.52447509765625,75.65765380859375 73.45021367073059,78.36341857910156 73.45021367073059,78.36341857910156 73.248291015625,81.01374506950378 73.248291015625,81.01374506950378 72.85487055778503,83.60036015510559 72.85487055778503,83.60036015510559 72.20637202262878,86.11500859260559 72.20637202262878,86.11500859260559 71.23896479606628,88.54967951774597 71.23896479606628,88.54967951774597 69.88906860351562,90.8959686756134 69.88906860351562,90.8959686756134 68.09285283088684,93.145751953125 68.09285283088684,93.145751953125 65.38543701171875,95.26100158691406 65.38543701171875,95.26100158691406 61.8408203125,96.89204096794128 61.8408203125,96.89204096794128 57.7056884765625,98.10130000114441 57.7056884765625,98.10130000114441 53.22520136833191,98.95095825195312 53.22520136833191,98.95095825195312 48.645272850990295,99.50332641601562 48.645272850990295,99.50332641601562 44.21183168888092,99.82070922851562 44.21183168888092,99.82070922851562 40.17079770565033,99.96554255485535 40.17079770565033,99.96554255485535" stroke="white" stroke-width="0.1" /><polygon points="46.04288637638092,79.77294921875 46.04288637638092,79.77294921875 46.04288637638092,79.77294921875 46.04288637638092,79.77294921875 41.45304262638092,61.97306513786316 41.45304262638092,61.97306513786316 41.39811098575592,61.80025935173035 41.39811098575592,61.80025935173035 41.31011962890625,61.554211378097534 41.31011962890625,61.554211378097534 41.204071044921875,61.25946044921875 41.204071044921875,61.25946044921875 41.094717383384705,60.9405517578125 41.094717383384705,60.9405517578125 40.996551513671875,60.62164306640625 40.996551513671875,60.62164306640625 40.92458188533783,60.326892137527466 40.92458188533783,60.326892137527466 40.893301367759705,60.080718994140625 40.893301367759705,60.080718994140625 40.91796875,59.90803837776184 40.91796875,59.90803837776184 41.910552978515625,59.470874071121216 41.910552978515625,59.470874071121216 42.858633399009705,58.930206298828125 42.858633399009705,58.930206298828125 43.743133544921875,58.29060673713684 43.743133544921875,58.29060673713684 44.545745849609375,57.556915283203125 44.545745849609375,57.556915283203125 45.247140526771545,56.73382878303528 45.247140526771545,56.73382878303528 45.82875669002533,55.82618713378906 45.82875669002533,55.82618713378906 46.272024512290955,54.83868718147278 46.272024512290955,54.83868718147278 46.5576171875,53.77604365348816 46.5576171875,53.77604365348816 46.63442075252533,51.75793766975403 46.63442075252533,51.75793766975403 46.15631103515625,49.94494020938873 46.15631103515625,49.94494020938873 45.21535336971283,48.35675656795502 45.21535336971283,48.35675656795502 43.902587890625,47.013092041015625 43.902587890625,47.013092041015625 42.309823632240295,45.93366086483002 42.309823632240295,45.93366086483002 40.52886962890625,45.13842165470123 40.52886962890625,45.13842165470123 38.650766015052795,44.64670717716217 38.650766015052795,44.64670717716217 36.767578125,44.47835385799408 36.767578125,44.47835385799408 34.72951352596283,44.683584570884705 34.72951352596283,44.683584570884705 32.705941796302795,45.27638852596283 32.705941796302795,45.27638852596283 30.81207275390625,46.22141420841217 30.81207275390625,46.22141420841217 29.16310727596283,47.48382568359375 29.16310727596283,47.48382568359375 27.875009179115295,49.028778076171875 27.875009179115295,49.028778076171875 27.06298828125,50.821179151535034 27.06298828125,50.821179151535034 26.84275209903717,52.82630920410156 26.84275209903717,52.82630920410156 27.32950747013092,55.00895380973816 27.32950747013092,55.00895380973816 27.62857973575592,55.4938018321991 27.62857973575592,55.4938018321991 28.17789614200592,56.1560332775116 28.17789614200592,56.1560332775116 28.887686133384705,56.921643018722534 28.887686133384705,56.921643018722534 29.66867983341217,57.717132568359375 29.66867983341217,57.717132568359375 30.43111264705658,58.468371629714966 30.43111264705658,58.468371629714966 31.085205078125,59.101611375808716 31.085205078125,59.101611375808716 31.54245913028717,59.543102979660034 31.54245913028717,59.543102979660034 31.71183168888092,59.71882939338684 31.71183168888092,59.71882939338684 31.653594970703125,60.030871629714966 31.653594970703125,60.030871629714966 31.595101952552795,60.343170166015625 31.595101952552795,60.343170166015625 31.53635561466217,60.655468702316284 31.53635561466217,60.655468702316284 31.477609276771545,60.967761278152466 31.477609276771545,60.967761278152466 31.418609619140625,61.2799346446991 31.418609619140625,61.2799346446991 31.359609961509705,61.59197688102722 31.359609961509705,61.59197688102722 31.300607323646545,61.90376281738281 31.300607323646545,61.90376281738281 31.24186098575592,62.21516728401184 31.24186098575592,62.21516728401184 27.95206606388092,79.77294921875 27.95206606388092,79.77294921875" stroke="white" stroke-width="0.1" /><polygon points="22.93497771024704,24.98779296875 22.93497771024704,24.98779296875 22.93497771024704,24.98779296875 22.93497771024704,24.98779296875 50.57169795036316,24.98779296875 50.57169795036316,24.98779296875 49.74466860294342,22.624842822551727 49.74466860294342,22.624842822551727 48.66587221622467,20.141220092773438 48.66587221622467,20.141220092773438 47.333526611328125,17.672093212604523 47.333526611328125,17.672093212604523 45.744070410728455,15.352630615234375 45.744070410728455,15.352630615234375 43.89444887638092,13.317997753620148 43.89444887638092,13.317997753620148 41.7816162109375,11.703363806009293 41.7816162109375,11.703363806009293 39.403024315834045,10.644149780273438 39.403024315834045,10.644149780273438 36.75537109375,10.2752685546875 36.75537109375,10.2752685546875 34.10898745059967,10.64402237534523 34.10898745059967,10.64402237534523 31.7291259765625,11.702346801757812 31.7291259765625,11.702346801757812 29.61324155330658,13.315582275390625 29.61324155330658,13.315582275390625 27.760061621665955,15.34881591796875 27.760061621665955,15.34881591796875 26.167550683021545,17.667388916015625 26.167550683021545,17.667388916015625 24.833934009075165,20.136642456054688 24.833934009075165,20.136642456054688 23.75691682100296,22.62166291475296 23.75691682100296,22.62166291475296" stroke="white" stroke-width="0.1" /><polygon points="36.767578125,100.0 46.04288637638092,79.77294921875 46.04288637638092,79.77294921875 41.45304262638092,61.97306513786316 41.39811098575592,61.80025935173035 41.31011962890625,61.554211378097534 41.204071044921875,61.25946044921875 41.094717383384705,60.9405517578125 40.996551513671875,60.62164306640625 40.92458188533783,60.326892137527466 40.893301367759705,60.080718994140625 40.91796875,59.90803837776184 41.910552978515625,59.470874071121216 42.858633399009705,58.930206298828125 43.743133544921875,58.29060673713684 44.545745849609375,57.556915283203125 45.247140526771545,56.73382878303528 45.82875669002533,55.82618713378906 46.272024512290955,54.83868718147278 46.5576171875,53.77604365348816 46.63442075252533,51.75793766975403 46.15631103515625,49.94494020938873 45.21535336971283,48.35675656795502 43.902587890625,47.013092041015625 42.309823632240295,45.93366086483002 40.52886962890625,45.13842165470123 38.650766015052795,44.64670717716217 36.767578125,44.47835385799408 34.72951352596283,44.683584570884705 32.705941796302795,45.27638852596283 30.81207275390625,46.22141420841217 29.16310727596283,47.48382568359375 27.875009179115295,49.028778076171875 27.06298828125,50.821179151535034 26.84275209903717,52.82630920410156 27.32950747013092,55.00895380973816 27.62857973575592,55.4938018321991 28.17789614200592,56.1560332775116 28.887686133384705,56.921643018722534 29.66867983341217,57.717132568359375 30.43111264705658,58.468371629714966 31.085205078125,59.101611375808716 31.54245913028717,59.543102979660034 31.71183168888092,59.71882939338684 31.653594970703125,60.030871629714966 31.595101952552795,60.343170166015625 31.53635561466217,60.655468702316284 31.477609276771545,60.967761278152466 31.418609619140625,61.2799346446991 31.359609961509705,61.59197688102722 31.300607323646545,61.90376281738281 31.24186098575592,62.21516728401184 27.95206606388092,79.77294921875 46.04288637638092,79.77294921875 36.767578125,100.0 36.767578125,100.0 33.36435854434967,99.96554255485535 29.32332456111908,99.82083439826965 22.93497771024704,24.98779296875 22.93497771024704,24.98779296875 50.57169795036316,24.98779296875 49.74466860294342,22.624842822551727 48.66587221622467,20.141220092773438 47.333526611328125,17.672093212604523 45.744070410728455,15.352630615234375 43.89444887638092,13.317997753620148 41.7816162109375,11.703363806009293 39.403024315834045,10.644149780273438 36.75537109375,10.2752685546875 34.10898745059967,10.64402237534523 31.7291259765625,11.702346801757812 29.61324155330658,13.315582275390625 27.760061621665955,15.34881591796875 26.167550683021545,17.667388916015625 24.833934009075165,20.136642456054688 23.75691682100296,22.62166291475296 22.93497771024704,24.98779296875 29.32332456111908,99.82083439826965 24.889881908893585,99.50332641601562 20.30995637178421,98.95095825195312 15.8294677734375,98.10130000114441 11.69382706284523,96.89216613769531 8.149973303079605,95.26100158691406 5.44230155646801,93.145751953125 3.646087646484375,90.8959686756134 2.295939065515995,88.54967951774597 1.3285319320857525,86.11500859260559 0.6802876945585012,83.60036015510559 0.286865234375,81.01374506950378 0.08494059438817203,78.36329340934753 0.01068115234375,75.65752863883972 0.0,72.90446162223816 0.0,49.44864809513092 0.115966796875,46.14550173282623 0.49387612380087376,42.94649660587311 1.177978515625,39.8834228515625 2.2125244140625,36.98832094669342 3.642527386546135,34.2926025390625 5.51198311150074,31.828179955482483 7.86590576171875,29.626718163490295 10.748291015625,27.72013247013092 12.43387833237648,20.672352612018585 14.7552490234375,14.782969653606415 17.6177978515625,9.984970092773438 20.928192138671875,6.2104541808366776 24.592335522174835,3.3921558409929276 28.51613461971283,1.46268205717206 32.605743408203125,0.3543853759765625 36.767578125,0.0 40.92915952205658,0.3543853759765625 45.01902163028717,1.46268205717206 48.942819237709045,3.3921558409929276 52.606964111328125,6.2104541808366776 55.9173583984375,9.984970092773438 58.7799072265625,14.783096313476562 61.101025342941284,20.672225952148438 62.786865234375,27.72013247013092 65.66925048828125,29.626718163490295 68.02317500114441,31.828179955482483 69.89288330078125,34.2926025390625 71.3226318359375,36.98832094669342 72.35743403434753,39.8834228515625 73.04127812385559,42.94649660587311 73.41893315315247,46.145376563072205 73.53515625,49.44864809513092 73.53515625,72.90446162223816 73.52447509765625,75.65765380859375 73.45021367073059,78.36341857910156 73.248291015625,81.01374506950378 72.85487055778503,83.60036015510559 72.20637202262878,86.11500859260559 71.23896479606628,88.54967951774597 69.88906860351562,90.8959686756134 68.09285283088684,93.145751953125 65.38543701171875,95.26100158691406 61.8408203125,96.89204096794128 57.7056884765625,98.10130000114441 53.22520136833191,98.95095825195312 48.645272850990295,99.50332641601562 44.21183168888092,99.82070922851562 40.17079770565033,99.96554255485535" stroke="white" stroke-width="0.1" /></svg>