<?xml version="1.0" encoding="utf-8" ?>
<svg baseProfile="full" height="79.71777319908142" version="1.1" width="100.0" xmlns="http://www.w3.org/2000/svg" xmlns:ev="http://www.w3.org/2001/xml-events" xmlns:xlink="http://www.w3.org/1999/xlink"><defs><clipPath /></defs><polygon points="54.16601300239563,13.822264969348907 54.16601300239563,13.822264969348907 54.16601300239563,65.89648723602295 54.16601300239563,65.89648723602295 54.10229563713074,66.52722358703613 54.10229563713074,66.52722358703613 53.920167684555054,67.11462140083313 53.920167684555054,67.11462140083313 53.631591796875,67.64605641365051 53.631591796875,67.64605641365051 53.24975848197937,68.109130859375 53.24975848197937,68.109130859375 52.78686285018921,68.49108934402466 52.78686285018921,68.49108934402466 52.25512981414795,68.77954006195068 52.25512981414795,68.77954006195068 51.667726039886475,68.96185278892517 51.667726039886475,68.96185278892517 51.03710889816284,69.02539134025574 51.03710889816284,69.02539134025574 47.77490198612213,68.85168552398682 47.77490198612213,68.85168552398682 44.59570348262787,68.33752393722534 44.59570348262787,68.33752393722534 41.521239280700684,67.49365329742432 41.521239280700684,67.49365329742432 38.573241233825684,66.33056402206421 38.573241233825684,66.33056402206421 35.77319383621216,64.8590087890625 35.77319383621216,64.8590087890625 33.14257860183716,63.08947801589966 33.14257860183716,63.08947801589966 30.703124403953552,61.032652854919434 30.703124403953552,61.032652854919434 28.476563096046448,58.699220418930054 28.476563096046448,58.699220418930054 12.085937708616257,58.699220418930054 12.085937708616257,58.699220418930054 9.653564542531967,58.43573212623596 9.653564542531967,58.43573212623596 7.386230677366257,57.680296897888184 7.386230677366257,57.680296897888184 5.333251878619194,56.485289335250854 5.333251878619194,56.485289335250854 3.543945401906967,54.90307807922363 3.543945401906967,54.90307807922363 2.066894620656967,52.9860258102417 2.066894620656967,52.9860258102417 0.9511718526482582,50.78662037849426 0.9511718526482582,50.78662037849426 0.2458496019244194,48.35711717605591 0.2458496019244194,48.35711717605591 0.0,45.750001072883606 0.0,45.750001072883606 0.0,39.85937535762787 0.0,39.85937535762787 0.0,33.96874964237213 0.0,33.96874964237213 0.2458496019244194,31.361481547355652 0.2458496019244194,31.361481547355652 0.9511718526482582,28.931549191474915 0.9511718526482582,28.931549191474915 2.0671386271715164,26.731446385383606 2.0671386271715164,26.731446385383606 3.543945401906967,24.81372058391571 3.543945401906967,24.81372058391571 5.333251878619194,23.23080450296402 5.333251878619194,23.23080450296402 7.386230677366257,22.035126388072968 7.386230677366257,22.035126388072968 9.653320163488388,21.279235184192657 9.653320163488388,21.279235184192657 12.085937708616257,21.015624701976776 12.085937708616257,21.015624701976776 28.476563096046448,21.015624701976776 28.476563096046448,21.015624701976776 30.70361316204071,18.682342767715454 30.70361316204071,18.682342767715454 33.143311738967896,16.6259765625 33.143311738967896,16.6259765625 35.773926973342896,14.857086539268494 35.773926973342896,14.857086539268494 38.57397437095642,13.386230170726776 38.57397437095642,13.386230170726776 41.52172803878784,12.223877012729645 41.52172803878784,12.223877012729645 44.59594786167145,11.380615085363388 44.59594786167145,11.380615085363388 47.77490198612213,10.866943001747131 47.77490198612213,10.866943001747131 51.03710889816284,10.693359375 51.03710889816284,10.693359375 51.667970418930054,10.756927728652954 51.667970418930054,10.756927728652954 52.25536823272705,10.939178615808487 52.25536823272705,10.939178615808487 52.78661847114563,11.227600276470184 52.78661847114563,11.227600276470184 53.24975848197937,11.609619110822678 53.24975848197937,11.609619110822678 53.63183617591858,12.072692811489105 53.63183617591858,12.072692811489105 53.92041206359863,12.604156136512756 53.92041206359863,12.604156136512756 54.102540016174316,13.191558420658112 54.102540016174316,13.191558420658112" stroke="white" stroke-width="0.1" /><polygon points="61.314451694488525,20.316405594348907 61.314451694488525,20.316405594348907 61.314451694488525,20.316405594348907 61.314451694488525,20.316405594348907 60.584473609924316,19.51269507408142 60.584473609924316,19.51269507408142 60.062986612319946,18.622344732284546 60.062986612319946,18.622344732284546 59.75024700164795,17.674164474010468 59.75024700164795,17.674164474010468 59.64599847793579,16.697020828723907 59.64599847793579,16.697020828723907 59.75024700164795,15.719787776470184 59.75024700164795,15.719787776470184 60.063230991363525,14.77133184671402 60.063230991363525,14.77133184671402 60.584473609924316,13.880462944507599 60.584473609924316,13.880462944507599 61.314451694488525,13.076171278953552 61.314451694488525,13.076171278953552 62.21020221710205,12.428222596645355 62.21020221710205,12.428222596645355 63.20263743400574,11.965454369783401 63.20263743400574,11.965454369783401 64.25976753234863,11.687774956226349 64.25976753234863,11.687774956226349 65.34936428070068,11.595214903354645 65.34936428070068,11.595214903354645 66.43872261047363,11.687774956226349 66.43872261047363,11.687774956226349 67.49560832977295,11.965454369783401 67.49560832977295,11.965454369783401 68.487548828125,12.428253144025803 68.487548828125,12.428253144025803 69.38281059265137,13.076171278953552 69.38281059265137,13.076171278953552 72.27856516838074,15.950439870357513 72.27856516838074,15.950439870357513 74.78954792022705,19.016052782535553 74.78954792022705,19.016052782535553 76.91552639007568,22.244873642921448 76.91552639007568,22.244873642921448 78.65576148033142,25.608885288238525 78.65576148033142,25.608885288238525 80.0097644329071,29.080018401145935 80.0097644329071,29.080018401145935 80.97705245018005,32.63018727302551 80.97705245018005,32.63018727302551 81.55737519264221,36.231353878974915 81.55737519264221,36.231353878974915 81.74999952316284,39.85546827316284 81.74999952316284,39.85546827316284 81.55737519264221,43.48211586475372 81.55737519264221,43.48211586475372 80.97729682922363,47.085145115852356 80.97729682922363,47.085145115852356 80.01000881195068,50.6364107131958 80.01000881195068,50.6364107131958 78.65576148033142,54.10791039466858 78.65576148033142,54.10791039466858 76.91552639007568,57.47155547142029 76.91552639007568,57.47155547142029 74.78954792022705,60.699278116226196 74.78954792022705,60.699278116226196 72.27856516838074,63.76306414604187 72.27856516838074,63.76306414604187 69.38281059265137,66.63476824760437 69.38281059265137,66.63476824760437 68.48779320716858,67.28527545928955 68.48779320716858,67.28527545928955 67.49560832977295,67.74987578392029 67.49560832977295,67.74987578392029 66.43847823143005,68.02868843078613 66.43847823143005,68.02868843078613 65.34936428070068,68.12158226966858 65.34936428070068,68.12158226966858 64.26001191139221,68.02868843078613 64.26001191139221,68.02868843078613 63.20263743400574,67.74987578392029 63.20263743400574,67.74987578392029 62.21020221710205,67.28527545928955 62.21020221710205,67.28527545928955 61.314451694488525,66.63476824760437 61.314451694488525,66.63476824760437 60.584473609924316,65.83014130592346 60.584473609924316,65.83014130592346 60.062986612319946,64.93750214576721 60.062986612319946,64.93750214576721 59.75024700164795,63.986754417419434 59.75024700164795,63.986754417419434 59.64599847793579,63.007569313049316 59.64599847793579,63.007569313049316 59.75024700164795,62.02978491783142 59.75024700164795,62.02978491783142 60.063230991363525,61.08313202857971 60.063230991363525,61.08313202857971 60.584473609924316,60.197389125823975 60.584473609924316,60.197389125823975 61.314451694488525,59.40234661102295 61.314451694488525,59.40234661102295 62.41064667701721,58.36816430091858 62.41064667701721,58.36816430091858 63.43457102775574,57.298827171325684 63.43457102775574,57.298827171325684 64.38671946525574,56.196409463882446 64.38671946525574,56.196409463882446 65.26733636856079,55.06322979927063 65.26733636856079,55.06322979927063 66.07690453529358,53.901368379592896 66.07690453529358,53.901368379592896 66.81542992591858,52.7130126953125 66.81542992591858,52.7130126953125 67.48388409614563,51.50042772293091 67.48388409614563,51.50042772293091 68.08202862739563,50.26562213897705 68.08202862739563,50.26562213897705 68.61230731010437,49.0081787109375 68.61230731010437,49.0081787109375 69.07104253768921,47.734618186950684 69.07104253768921,47.734618186950684 69.45874094963074,46.44668698310852 69.45874094963074,46.44668698310852 69.77514624595642,45.146238803863525 69.77514624595642,45.146238803863525 70.0207531452179,43.835052847862244 70.0207531452179,43.835052847862244 70.19604444503784,42.515045404434204 70.19604444503784,42.515045404434204 70.30078172683716,41.18789732456207 70.30078172683716,41.18789732456207 70.33593654632568,39.85546827316284 70.33593654632568,39.85546827316284 70.30102610588074,38.52526843547821 70.30102610588074,38.52526843547821 70.19604444503784,37.19930946826935 70.19604444503784,37.19930946826935 70.0207531452179,35.879698395729065 70.0207531452179,35.879698395729065 69.77514624595642,34.568604826927185 69.77514624595642,34.568604826927185 69.45874094963074,33.26824903488159 69.45874094963074,33.26824903488159 69.07128691673279,31.980744004249573 69.07128691673279,31.980744004249573 68.61230731010437,30.70831298828125 68.61230731010437,30.70831298828125 68.08202862739563,29.453125596046448 68.08202862739563,29.453125596046448 67.48388409614563,28.21832299232483 67.48388409614563,28.21832299232483 66.81567430496216,27.00570821762085 66.81567430496216,27.00570821762085 66.07690453529358,25.817352533340454 66.07690453529358,25.817352533340454 65.26733636856079,24.65551793575287 65.26733636856079,24.65551793575287 64.38671946525574,23.522338271141052 64.38671946525574,23.522338271141052 63.43457102775574,22.419951856136322 63.43457102775574,22.419951856136322 62.41040229797363,21.350586414337158 62.41040229797363,21.350586414337158" stroke="white" stroke-width="0.1" /><polygon points="74.22460913658142,8.736328035593033 74.22460913658142,8.736328035593033 74.22460913658142,8.736328035593033 74.22460913658142,8.736328035593033 73.49658012390137,7.934814691543579 73.49658012390137,7.934814691543579 72.97656536102295,7.045318931341171 72.97656536102295,7.045318931341171 72.66430854797363,6.097107008099556 72.66430854797363,6.097107008099556 72.56054878234863,5.119384825229645 72.56054878234863,5.119384825229645 72.66479730606079,4.141388088464737 72.66479730606079,4.141388088464737 72.97632098197937,3.192352131009102 72.97632098197937,3.192352131009102 73.49682450294495,2.301483228802681 73.49682450294495,2.301483228802681 74.22460913658142,1.4980468899011612 74.22460913658142,1.4980468899011612 75.12011528015137,0.8430786430835724 75.12011528015137,0.8430786430835724 76.11279487609863,0.3752441378310323 76.11279487609863,0.3752441378310323 77.16991901397705,0.09454345563426614 77.16991901397705,0.09454345563426614 78.25927734375,0.0009765624781721272 78.25927734375,0.0009765624781721272 79.34839129447937,0.09454345563426614 79.34839129447937,0.09454345563426614 80.40502667427063,0.3752441378310323 80.40502667427063,0.3752441378310323 81.39672875404358,0.843048095703125 81.39672875404358,0.843048095703125 82.29101300239563,1.4980468899011612 82.29101300239563,1.4980468899011612 86.43994331359863,5.614684894680977 86.43994331359863,5.614684894680977 90.03686308860779,10.004516690969467 90.03686308860779,10.004516690969467 93.08130145072937,14.627808332443237 93.08130145072937,14.627808332443237 95.57299613952637,19.444824755191803 95.57299613952637,19.444824755191803 97.51123189926147,24.415862560272217 97.51123189926147,24.415862560272217 98.89550805091858,29.50109839439392 98.89550805091858,29.50109839439392 99.72509741783142,34.660887718200684 99.72509741783142,34.660887718200684 100.0,39.85546827316284 100.0,39.85546827316284 99.72509741783142,45.05230784416199 99.72509741783142,45.05230784416199 98.89550805091858,50.21325945854187 98.89550805091858,50.21325945854187 97.51123189926147,55.29894828796387 97.51123189926147,55.29894828796387 95.57299613952637,60.27001738548279 95.57299613952637,60.27001738548279 93.08130145072937,65.08709788322449 93.08130145072937,65.08709788322449 90.03661870956421,69.71081495285034 90.03661870956421,69.71081495285034 86.43994331359863,74.10180568695068 86.43994331359863,74.10180568695068 82.29101300239563,78.22070121765137 82.29101300239563,78.22070121765137 81.39672875404358,78.87567281723022 81.39672875404358,78.87567281723022 80.40502667427063,79.34350371360779 80.40502667427063,79.34350371360779 79.34863567352295,79.62420582771301 79.34863567352295,79.62420582771301 78.25927734375,79.71777319908142 78.25927734375,79.71777319908142 77.16991901397705,79.62420582771301 77.16991901397705,79.62420582771301 76.11303925514221,79.34350371360779 76.11303925514221,79.34350371360779 75.12035965919495,78.87567281723022 75.12035965919495,78.87567281723022 74.22460913658142,78.22070121765137 74.22460913658142,78.22070121765137 73.49658012390137,77.41723656654358 73.49658012390137,77.41723656654358 72.97656536102295,76.52636766433716 72.97656536102295,76.52636766433716 72.66430854797363,75.57714581489563 72.66430854797363,75.57714581489563 72.56054878234863,74.59887862205505 72.56054878234863,74.59887862205505 72.66479730606079,73.62072467803955 72.66479730606079,73.62072467803955 72.97632098197937,72.67175316810608 72.97632098197937,72.67175316810608 73.49682450294495,71.78137302398682 73.49682450294495,71.78137302398682 74.22460913658142,70.97851634025574 74.22460913658142,70.97851634025574 77.593994140625,67.63262748718262 77.593994140625,67.63262748718262 80.51318526268005,64.07067775726318 80.51318526268005,64.07067775726318 82.98242092132568,60.32299995422363 82.98242092132568,60.32299995422363 85.00195145606995,56.419676542282104 85.00195145606995,56.419676542282104 86.57202124595642,52.390992641448975 86.57202124595642,52.390992641448975 87.69311308860779,48.26733469963074 87.69311308860779,48.26733469963074 88.36596608161926,44.07864511013031 88.36596608161926,44.07864511013031 88.58984112739563,39.85546827316284 88.58984112739563,39.85546827316284 88.36572170257568,35.63183546066284 88.36572170257568,35.63183546066284 87.69335746765137,31.44342005252838 87.69335746765137,31.44342005252838 86.572265625,27.320313453674316 86.572265625,27.320313453674316 85.00195145606995,23.292480409145355 85.00195145606995,23.292480409145355 82.98242092132568,19.390136003494263 82.98242092132568,19.390136003494263 80.51318526268005,15.643249452114105 80.51318526268005,15.643249452114105 77.593994140625,12.081970274448395 77.593994140625,12.081970274448395" stroke="white" stroke-width="0.1" /><polygon points="54.16601300239563,13.822264969348907 54.16601300239563,65.89648723602295 54.10229563713074,66.52722358703613 53.920167684555054,67.11462140083313 53.631591796875,67.64605641365051 53.24975848197937,68.109130859375 52.78686285018921,68.49108934402466 52.25512981414795,68.77954006195068 51.667726039886475,68.96185278892517 51.03710889816284,69.02539134025574 47.77490198612213,68.85168552398682 44.59570348262787,68.33752393722534 41.521239280700684,67.49365329742432 38.573241233825684,66.33056402206421 35.77319383621216,64.8590087890625 33.14257860183716,63.08947801589966 30.703124403953552,61.032652854919434 28.476563096046448,58.699220418930054 12.085937708616257,58.699220418930054 9.653564542531967,58.43573212623596 7.386230677366257,57.680296897888184 5.333251878619194,56.485289335250854 3.543945401906967,54.90307807922363 2.066894620656967,52.9860258102417 0.9511718526482582,50.78662037849426 0.2458496019244194,48.35711717605591 0.0,45.750001072883606 0.0,39.85937535762787 0.0,33.96874964237213 0.2458496019244194,31.361481547355652 0.9511718526482582,28.931549191474915 2.0671386271715164,26.731446385383606 3.543945401906967,24.81372058391571 5.333251878619194,23.23080450296402 7.386230677366257,22.035126388072968 9.653320163488388,21.279235184192657 12.085937708616257,21.015624701976776 28.476563096046448,21.015624701976776 30.70361316204071,18.682342767715454 33.143311738967896,16.6259765625 35.773926973342896,14.857086539268494 38.57397437095642,13.386230170726776 41.52172803878784,12.223877012729645 44.59594786167145,11.380615085363388 47.77490198612213,10.866943001747131 51.03710889816284,10.693359375 51.667970418930054,10.756927728652954 52.25536823272705,10.939178615808487 52.78661847114563,11.227600276470184 53.24975848197937,11.609619110822678 53.63183617591858,12.072692811489105 53.92041206359863,12.604156136512756 54.102540016174316,13.191558420658112" stroke="white" stroke-width="0.1" /><polygon points="61.314451694488525,20.316405594348907 61.314451694488525,20.316405594348907 60.584473609924316,19.51269507408142 60.062986612319946,18.622344732284546 59.75024700164795,17.674164474010468 59.64599847793579,16.697020828723907 59.75024700164795,15.719787776470184 60.063230991363525,14.77133184671402 60.584473609924316,13.880462944507599 61.314451694488525,13.076171278953552 62.21020221710205,12.428222596645355 63.20263743400574,11.965454369783401 64.25976753234863,11.687774956226349 65.34936428070068,11.595214903354645 66.43872261047363,11.687774956226349 67.49560832977295,11.965454369783401 68.487548828125,12.428253144025803 69.38281059265137,13.076171278953552 72.27856516838074,15.950439870357513 74.78954792022705,19.016052782535553 76.91552639007568,22.244873642921448 78.65576148033142,25.608885288238525 80.0097644329071,29.080018401145935 80.97705245018005,32.63018727302551 81.55737519264221,36.231353878974915 81.74999952316284,39.85546827316284 81.55737519264221,43.48211586475372 80.97729682922363,47.085145115852356 80.01000881195068,50.6364107131958 78.65576148033142,54.10791039466858 76.91552639007568,57.47155547142029 74.78954792022705,60.699278116226196 72.27856516838074,63.76306414604187 69.38281059265137,66.63476824760437 68.48779320716858,67.28527545928955 67.49560832977295,67.74987578392029 66.43847823143005,68.02868843078613 65.34936428070068,68.12158226966858 64.26001191139221,68.02868843078613 63.20263743400574,67.74987578392029 62.21020221710205,67.28527545928955 61.314451694488525,66.63476824760437 60.584473609924316,65.83014130592346 60.062986612319946,64.93750214576721 59.75024700164795,63.986754417419434 59.64599847793579,63.007569313049316 59.75024700164795,62.02978491783142 60.063230991363525,61.08313202857971 60.584473609924316,60.197389125823975 61.314451694488525,59.40234661102295 62.41064667701721,58.36816430091858 63.43457102775574,57.298827171325684 64.38671946525574,56.196409463882446 65.26733636856079,55.06322979927063 66.07690453529358,53.901368379592896 66.81542992591858,52.7130126953125 67.48388409614563,51.50042772293091 68.08202862739563,50.26562213897705 68.61230731010437,49.0081787109375 69.07104253768921,47.734618186950684 69.45874094963074,46.44668698310852 69.77514624595642,45.146238803863525 70.0207531452179,43.835052847862244 70.19604444503784,42.515045404434204 70.30078172683716,41.18789732456207 70.33593654632568,39.85546827316284 70.30102610588074,38.52526843547821 70.19604444503784,37.19930946826935 70.0207531452179,35.879698395729065 69.77514624595642,34.568604826927185 69.45874094963074,33.26824903488159 69.07128691673279,31.980744004249573 68.61230731010437,30.70831298828125 68.08202862739563,29.453125596046448 67.48388409614563,28.21832299232483 66.81567430496216,27.00570821762085 66.07690453529358,25.817352533340454 65.26733636856079,24.65551793575287 64.38671946525574,23.522338271141052 63.43457102775574,22.419951856136322 62.41040229797363,21.350586414337158" stroke="white" stroke-width="0.1" /><polygon points="74.22460913658142,8.736328035593033 74.22460913658142,8.736328035593033 73.49658012390137,7.934814691543579 72.97656536102295,7.045318931341171 72.66430854797363,6.097107008099556 72.56054878234863,5.119384825229645 72.66479730606079,4.141388088464737 72.97632098197937,3.192352131009102 73.49682450294495,2.301483228802681 74.22460913658142,1.4980468899011612 75.12011528015137,0.8430786430835724 76.11279487609863,0.3752441378310323 77.16991901397705,0.09454345563426614 78.25927734375,0.0009765624781721272 79.34839129447937,0.09454345563426614 80.40502667427063,0.3752441378310323 81.39672875404358,0.843048095703125 82.29101300239563,1.4980468899011612 86.43994331359863,5.614684894680977 90.03686308860779,10.004516690969467 93.08130145072937,14.627808332443237 95.57299613952637,19.444824755191803 97.51123189926147,24.415862560272217 98.89550805091858,29.50109839439392 99.72509741783142,34.660887718200684 100.0,39.85546827316284 99.72509741783142,45.05230784416199 98.89550805091858,50.21325945854187 97.51123189926147,55.29894828796387 95.57299613952637,60.27001738548279 93.08130145072937,65.08709788322449 90.03661870956421,69.71081495285034 86.43994331359863,74.10180568695068 82.29101300239563,78.22070121765137 81.39672875404358,78.87567281723022 80.40502667427063,79.34350371360779 79.34863567352295,79.62420582771301 78.25927734375,79.71777319908142 77.16991901397705,79.62420582771301 76.11303925514221,79.34350371360779 75.12035965919495,78.87567281723022 74.22460913658142,78.22070121765137 73.49658012390137,77.41723656654358 72.97656536102295,76.52636766433716 72.66430854797363,75.57714581489563 72.56054878234863,74.59887862205505 72.66479730606079,73.62072467803955 72.97632098197937,72.67175316810608 73.49682450294495,71.78137302398682 74.22460913658142,70.97851634025574 77.593994140625,67.63262748718262 80.51318526268005,64.07067775726318 82.98242092132568,60.32299995422363 85.00195145606995,56.419676542282104 86.57202124595642,52.390992641448975 87.69311308860779,48.26733469963074 88.36596608161926,44.07864511013031 88.58984112739563,39.85546827316284 88.36572170257568,35.63183546066284 87.69335746765137,31.44342005252838 86.572265625,27.320313453674316 85.00195145606995,23.292480409145355 82.98242092132568,19.390136003494263 80.51318526268005,15.643249452114105 77.593994140625,12.081970274448395" stroke="white" stroke-width="0.1" /></svg>