<?xml version="1.0" encoding="utf-8" ?>
<svg baseProfile="full" height="99.99959468841553" version="1.1" width="90.8318281173706" xmlns="http://www.w3.org/2000/svg" xmlns:ev="http://www.w3.org/2001/xml-events" xmlns:xlink="http://www.w3.org/1999/xlink"><defs><clipPath /></defs><polygon points="32.73388743400574,0.09852430084720254 32.73388743400574,0.09852430084720254 32.73388743400574,0.09852430084720254 32.73388743400574,0.09852430084720254 33.58244001865387,0.1867630984634161 33.58244001865387,0.1867630984634161 34.3672513961792,0.4388932604342699 34.3672513961792,0.4388932604342699 35.07309556007385,0.836238544434309 35.07309556007385,0.836238544434309 35.68474352359772,1.3598518446087837 35.68474352359772,1.3598518446087837 36.1869752407074,1.9911246374249458 36.1869752407074,1.9911246374249458 36.56456172466278,2.7111776173114777 36.56456172466278,2.7111776173114777 36.8022084236145,3.5012666136026382 36.8022084236145,3.5012666136026382 36.88490092754364,4.342648014426231 36.88490092754364,4.342648014426231 36.88490092754364,94.18382048606873 36.88490092754364,94.18382048606873 36.84646487236023,95.19754648208618 36.84646487236023,95.19754648208618 36.71620488166809,96.20370268821716 36.71620488166809,96.20370268821716 36.47131323814392,97.16282486915588 36.47131323814392,97.16282486915588 36.08912527561188,98.03574085235596 36.08912527561188,98.03574085235596 35.54697334766388,98.78312945365906 35.54697334766388,98.78312945365906 34.82218384742737,99.36561584472656 34.82218384742737,99.36561584472656 33.89208912849426,99.7439444065094 33.89208912849426,99.7439444065094 32.73388743400574,99.87874031066895 32.73388743400574,99.87874031066895 31.68327808380127,99.95771050453186 31.68327808380127,99.95771050453186 30.621027946472168,99.9947190284729 30.621027946472168,99.9947190284729 29.550659656524658,99.99959468841553 29.550659656524658,99.99959468841553 28.47609519958496,99.98186230659485 28.47609519958496,99.98186230659485 27.401122450828552,99.95121359825134 27.401122450828552,99.95121359825134 26.32940113544464,99.91744756698608 26.32940113544464,99.91744756698608 25.264784693717957,99.89004135131836 25.264784693717957,99.89004135131836 24.210993945598602,99.87874031066895 24.210993945598602,99.87874031066895 9.498392045497894,99.87874031066895 9.498392045497894,99.87874031066895 8.316371589899063,99.90919232368469 8.316371589899063,99.90919232368469 7.027367502450943,99.9606192111969 7.027367502450943,99.9606192111969 5.6907933205366135,99.97273087501526 5.6907933205366135,99.97273087501526 4.3659258633852005,99.88550543785095 4.3659258633852005,99.88550543785095 3.1121093779802322,99.63885545730591 3.1121093779802322,99.63885545730591 1.9887562841176987,99.17255640029907 1.9887562841176987,99.17255640029907 1.054940838366747,98.42665791511536 1.054940838366747,98.42665791511536 0.3702781395986676,97.34092950820923 0.3702781395986676,97.34092950820923 0.19989064894616604,96.83923721313477 0.19989064894616604,96.83923721313477 0.08945681620389223,96.30534052848816 0.08945681620389223,96.30534052848816 0.0275407888693735,95.74870467185974 0.0275407888693735,95.74870467185974 0.002571375989646185,95.1788067817688 0.002571375989646185,95.1788067817688 0.0031803861929802224,94.60532069206238 0.0031803861929802224,94.60532069206238 0.01786429638741538,94.03765797615051 0.01786429638741538,94.03765797615051 0.03511958348099142,93.48548650741577 0.03511958348099142,93.48548650741577 0.043307384476065636,92.95821785926819 0.043307384476065636,92.95821785926819 0.043307384476065636,84.65402722358704 0.043307384476065636,84.65402722358704 0.043307384476065636,57.7168345451355 0.043307384476065636,57.7168345451355 0.043307384476065636,7.019044458866119 0.043307384476065636,7.019044458866119 0.03505191416479647,6.491777300834656 0.03505191416479647,6.491777300834656 0.01779662852641195,5.939607694745064 0.01779662852641195,5.939607694745064 0.0031127183319767937,5.3720105439424515 0.0031127183319767937,5.3720105439424515 0.002571375989646185,4.798458144068718 0.002571375989646185,4.798458144068718 0.027473122463561594,4.228560253977776 0.027473122463561594,4.228560253977776 0.08945681620389223,3.6719247698783875 0.08945681620389223,3.6719247698783875 0.19989064894616604,3.1380262225866318 0.19989064894616604,3.1380262225866318 0.3702781395986676,2.6363370940089226 0.3702781395986676,2.6363370940089226 1.054940838366747,1.5506073832511902 1.054940838366747,1.5506073832511902 1.9887562841176987,0.8047053590416908 1.9887562841176987,0.8047053590416908 3.1121093779802322,0.33840660471469164 3.1121093779802322,0.33840660471469164 4.3659258633852005,0.09175752056762576 4.3659258633852005,0.09175752056762576 5.6907933205366135,0.0045337419578572735 5.6907933205366135,0.0045337419578572735 7.027435302734375,0.016713944205548614 7.027435302734375,0.016713944205548614 8.316371589899063,0.06800612900406122 8.316371589899063,0.06800612900406122 9.498392045497894,0.09852430084720254 9.498392045497894,0.09852430084720254" stroke="white" stroke-width="0.1" /><polygon points="86.6775631904602,0.09852430084720254 86.6775631904602,0.09852430084720254 86.6775631904602,0.09852430084720254 86.6775631904602,0.09852430084720254 87.52564787864685,0.1867630984634161 87.52564787864685,0.1867630984634161 88.3105218410492,0.4388932604342699 88.3105218410492,0.4388932604342699 89.01684284210205,0.836238544434309 89.01684284210205,0.836238544434309 89.62923288345337,1.3598518446087837 89.62923288345337,1.3598518446087837 90.13234376907349,1.9911246374249458 90.13234376907349,1.9911246374249458 90.51067233085632,2.7111776173114777 90.51067233085632,2.7111776173114777 90.74906706809998,3.5012666136026382 90.74906706809998,3.5012666136026382 90.8318281173706,4.342648014426231 90.8318281173706,4.342648014426231 90.8318281173706,94.18382048606873 90.8318281173706,94.18382048606873 90.7933235168457,95.19754648208618 90.7933235168457,95.19754648208618 90.66258668899536,96.20370268821716 90.66258668899536,96.20370268821716 90.41715860366821,97.16282486915588 90.41715860366821,97.16282486915588 90.03443121910095,98.03574085235596 90.03443121910095,98.03574085235596 89.49173092842102,98.78312945365906 89.49173092842102,98.78312945365906 88.76640200614929,99.36561584472656 88.76640200614929,99.36561584472656 87.83583641052246,99.7439444065094 87.83583641052246,99.7439444065094 86.6775631904602,99.87874031066895 86.6775631904602,99.87874031066895 85.62695384025574,99.95771050453186 85.62695384025574,99.95771050453186 84.56443548202515,99.9947190284729 84.56443548202515,99.9947190284729 83.49393010139465,99.99959468841553 83.49393010139465,99.99959468841553 82.41909742355347,99.98186230659485 82.41909742355347,99.98186230659485 81.34378790855408,99.95121359825134 81.34378790855408,99.95121359825134 80.27172684669495,99.91744756698608 80.27172684669495,99.91744756698608 79.20670509338379,99.89004135131836 79.20670509338379,99.89004135131836 78.15250754356384,99.87874031066895 78.15250754356384,99.87874031066895 63.43774199485779,99.87874031066895 63.43774199485779,99.87874031066895 62.25612759590149,99.9093234539032 62.25612759590149,99.9093234539032 60.96773147583008,99.96088743209839 60.96773147583008,99.96088743209839 59.631699323654175,99.97327327728271 59.631699323654175,99.97327327728271 58.30743908882141,99.8863160610199 58.30743908882141,99.8863160610199 57.05423355102539,99.63980317115784 57.05423355102539,99.63980317115784 55.93135356903076,99.173504114151 55.93135356903076,99.173504114151 54.998213052749634,98.42733144760132 54.998213052749634,98.42733144760132 54.31395769119263,97.34092950820923 54.31395769119263,97.34092950820923 54.143571853637695,96.83923721313477 54.143571853637695,96.83923721313477 54.03313636779785,96.30534052848816 54.03313636779785,96.30534052848816 53.97115349769592,95.74870467185974 53.97115349769592,95.74870467185974 53.946250677108765,95.1788067817688 53.946250677108765,95.1788067817688 53.946858644485474,94.60532069206238 53.946858644485474,94.60532069206238 53.96154522895813,94.03765797615051 53.96154522895813,94.03765797615051 53.978800773620605,93.48548650741577 53.978800773620605,93.48548650741577 53.98698449134827,92.95821785926819 53.98698449134827,92.95821785926819 53.98698449134827,84.65402722358704 53.98698449134827,84.65402722358704 53.98698449134827,57.7168345451355 53.98698449134827,57.7168345451355 53.98698449134827,7.019044458866119 53.98698449134827,7.019044458866119 53.978729248046875,6.491777300834656 53.978729248046875,6.491777300834656 53.9614737033844,5.939607694745064 53.9614737033844,5.939607694745064 53.94679307937622,5.3720105439424515 53.94679307937622,5.3720105439424515 53.946250677108765,4.798458144068718 53.946250677108765,4.798458144068718 53.97115349769592,4.228560253977776 53.97115349769592,4.228560253977776 54.03313636779785,3.6719247698783875 54.03313636779785,3.6719247698783875 54.143571853637695,3.1380262225866318 54.143571853637695,3.1380262225866318 54.31395769119263,2.6363370940089226 54.31395769119263,2.6363370940089226 54.998213052749634,1.5499983914196491 54.998213052749634,1.5499983914196491 55.93135356903076,0.803758017718792 55.93135356903076,0.803758017718792 57.05423355102539,0.3374592633917928 57.05423355102539,0.3374592633917928 58.30743908882141,0.09094550623558462 58.30743908882141,0.09094550623558462 59.631699323654175,0.003992399433627725 59.631699323654175,0.003992399433627725 60.96773147583008,0.01637560490053147 60.96773147583008,0.01637560490053147 62.256258726119995,0.06793846259824932 62.256258726119995,0.06793846259824932 63.43774199485779,0.09852430084720254 63.43774199485779,0.09852430084720254" stroke="white" stroke-width="0.1" /><polygon points="32.73388743400574,0.09852430084720254 32.73388743400574,0.09852430084720254 33.58244001865387,0.1867630984634161 34.3672513961792,0.4388932604342699 35.07309556007385,0.836238544434309 35.68474352359772,1.3598518446087837 36.1869752407074,1.9911246374249458 36.56456172466278,2.7111776173114777 36.8022084236145,3.5012666136026382 36.88490092754364,4.342648014426231 36.88490092754364,94.18382048606873 36.84646487236023,95.19754648208618 36.71620488166809,96.20370268821716 36.47131323814392,97.16282486915588 36.08912527561188,98.03574085235596 35.54697334766388,98.78312945365906 34.82218384742737,99.36561584472656 33.89208912849426,99.7439444065094 32.73388743400574,99.87874031066895 31.68327808380127,99.95771050453186 30.621027946472168,99.9947190284729 29.550659656524658,99.99959468841553 28.47609519958496,99.98186230659485 27.401122450828552,99.95121359825134 26.32940113544464,99.91744756698608 25.264784693717957,99.89004135131836 24.210993945598602,99.87874031066895 9.498392045497894,99.87874031066895 8.316371589899063,99.90919232368469 7.027367502450943,99.9606192111969 5.6907933205366135,99.97273087501526 4.3659258633852005,99.88550543785095 3.1121093779802322,99.63885545730591 1.9887562841176987,99.17255640029907 1.054940838366747,98.42665791511536 0.3702781395986676,97.34092950820923 0.19989064894616604,96.83923721313477 0.08945681620389223,96.30534052848816 0.0275407888693735,95.74870467185974 0.002571375989646185,95.1788067817688 0.0031803861929802224,94.60532069206238 0.01786429638741538,94.03765797615051 0.03511958348099142,93.48548650741577 0.043307384476065636,92.95821785926819 0.043307384476065636,84.65402722358704 0.043307384476065636,57.7168345451355 0.043307384476065636,7.019044458866119 0.03505191416479647,6.491777300834656 0.01779662852641195,5.939607694745064 0.0031127183319767937,5.3720105439424515 0.002571375989646185,4.798458144068718 0.027473122463561594,4.228560253977776 0.08945681620389223,3.6719247698783875 0.19989064894616604,3.1380262225866318 0.3702781395986676,2.6363370940089226 1.054940838366747,1.5506073832511902 1.9887562841176987,0.8047053590416908 3.1121093779802322,0.33840660471469164 4.3659258633852005,0.09175752056762576 5.6907933205366135,0.0045337419578572735 7.027435302734375,0.016713944205548614 8.316371589899063,0.06800612900406122 9.498392045497894,0.09852430084720254" stroke="white" stroke-width="0.1" /><polygon points="86.6775631904602,0.09852430084720254 86.6775631904602,0.09852430084720254 87.52564787864685,0.1867630984634161 88.3105218410492,0.4388932604342699 89.01684284210205,0.836238544434309 89.62923288345337,1.3598518446087837 90.13234376907349,1.9911246374249458 90.51067233085632,2.7111776173114777 90.74906706809998,3.5012666136026382 90.8318281173706,4.342648014426231 90.8318281173706,94.18382048606873 90.7933235168457,95.19754648208618 90.66258668899536,96.20370268821716 90.41715860366821,97.16282486915588 90.03443121910095,98.03574085235596 89.49173092842102,98.78312945365906 88.76640200614929,99.36561584472656 87.83583641052246,99.7439444065094 86.6775631904602,99.87874031066895 85.62695384025574,99.95771050453186 84.56443548202515,99.9947190284729 83.49393010139465,99.99959468841553 82.41909742355347,99.98186230659485 81.34378790855408,99.95121359825134 80.27172684669495,99.91744756698608 79.20670509338379,99.89004135131836 78.15250754356384,99.87874031066895 63.43774199485779,99.87874031066895 62.25612759590149,99.9093234539032 60.96773147583008,99.96088743209839 59.631699323654175,99.97327327728271 58.30743908882141,99.8863160610199 57.05423355102539,99.63980317115784 55.93135356903076,99.173504114151 54.998213052749634,98.42733144760132 54.31395769119263,97.34092950820923 54.143571853637695,96.83923721313477 54.03313636779785,96.30534052848816 53.97115349769592,95.74870467185974 53.946250677108765,95.1788067817688 53.946858644485474,94.60532069206238 53.96154522895813,94.03765797615051 53.978800773620605,93.48548650741577 53.98698449134827,92.95821785926819 53.98698449134827,84.65402722358704 53.98698449134827,57.7168345451355 53.98698449134827,7.019044458866119 53.978729248046875,6.491777300834656 53.9614737033844,5.939607694745064 53.94679307937622,5.3720105439424515 53.946250677108765,4.798458144068718 53.97115349769592,4.228560253977776 54.03313636779785,3.6719247698783875 54.143571853637695,3.1380262225866318 54.31395769119263,2.6363370940089226 54.998213052749634,1.5499983914196491 55.93135356903076,0.803758017718792 57.05423355102539,0.3374592633917928 58.30743908882141,0.09094550623558462 59.631699323654175,0.003992399433627725 60.96773147583008,0.01637560490053147 62.256258726119995,0.06793846259824932 63.43774199485779,0.09852430084720254" stroke="white" stroke-width="0.1" /></svg>