<?xml version="1.0" encoding="utf-8" ?>
<svg baseProfile="full" height="77.59791016578674" version="1.1" width="99.9997615814209" xmlns="http://www.w3.org/2000/svg" xmlns:ev="http://www.w3.org/2001/xml-events" xmlns:xlink="http://www.w3.org/1999/xlink"><defs><clipPath /></defs><polygon points="6.669645756483078,28.550270199775696 6.669645756483078,28.550270199775696 6.669645756483078,28.550270199775696 6.669645756483078,28.550270199775696 6.300830096006393,28.374961018562317 6.300830096006393,28.374961018562317 5.797478556632996,28.115543723106384 5.797478556632996,28.115543723106384 5.223587527871132,27.78519093990326 5.223587527871132,27.78519093990326 4.643472656607628,27.397462725639343 4.643472656607628,27.397462725639343 4.121289402246475,26.96552872657776 4.121289402246475,26.96552872657776 3.7211935967206955,26.5028715133667 3.7211935967206955,26.5028715133667 3.5075008869171143,26.022741198539734 3.5075008869171143,26.022741198539734 3.544206917285919,25.5384624004364 3.544206917285919,25.5384624004364 4.011969268321991,24.7875839471817 4.011969268321991,24.7875839471817 4.7622088342905045,24.11203384399414 4.7622088342905045,24.11203384399414 5.719598010182381,23.506782948970795 5.719598010182381,23.506782948970795 6.808171421289444,22.966724634170532 6.808171421289444,22.966724634170532 7.952281832695007,22.486913204193115 7.952281832695007,22.486913204193115 9.076125174760818,22.06208109855652 9.076125174760818,22.06208109855652 10.104212909936905,21.68744057416916 10.104212909936905,21.68744057416916 10.960740596055984,21.357804536819458 10.960740596055984,21.357804536819458 24.159590899944305,15.890200436115265 24.159590899944305,15.890200436115265 28.000319004058838,14.299233257770538 28.000319004058838,14.299233257770538 31.841206550598145,12.708267569541931 31.841206550598145,12.708267569541931 35.6821745634079,11.117299646139145 35.6821745634079,11.117299646139145 39.52313959598541,9.526252746582031 39.52313959598541,9.526252746582031 43.364107608795166,7.935205847024918 43.364107608795166,7.935205847024918 47.20507562160492,6.344158947467804 47.20507562160492,6.344158947467804 51.04588270187378,4.753032326698303 51.04588270187378,4.753032326698303 54.88669276237488,3.1618256121873856 54.88669276237488,3.1618256121873856 55.6879997253418,2.825406938791275 55.6879997253418,2.825406938791275 56.48866891860962,2.4827640503644943 56.48866891860962,2.4827640503644943 57.28957653045654,2.137727476656437 57.28957653045654,2.137727476656437 58.09176564216614,1.7940472811460495 58.09176564216614,1.7940472811460495 58.89594554901123,1.4556336216628551 58.89594554901123,1.4556336216628551 59.7032368183136,1.126236841082573 59.7032368183136,1.126236841082573 60.514360666275024,0.809846818447113 60.514360666275024,0.809846818447113 61.3303542137146,0.5100542679429054 61.3303542137146,0.5100542679429054 61.83689832687378,0.3404883434996009 61.83689832687378,0.3404883434996009 62.42459416389465,0.17523140413686633 62.42459416389465,0.17523140413686633 63.050270080566406,0.04995212075300515 63.050270080566406,0.04995212075300515 63.6707603931427,0.0 63.6707603931427,0.0 64.2427384853363,0.061043730238452554 64.2427384853363,0.061043730238452554 64.72278833389282,0.26851261500269175 64.72278833389282,0.26851261500269175 65.0678277015686,0.6581551395356655 65.0678277015686,0.6581551395356655 65.23460149765015,1.2652410194277763 65.23460149765015,1.2652410194277763 65.2521550655365,1.6969358548521996 65.2521550655365,1.6969358548521996 65.23331999778748,2.1279923617839813 65.23331999778748,2.1279923617839813 65.18257260322571,2.557452954351902 65.18257260322571,2.557452954351902 65.10453224182129,2.984200417995453 65.10453224182129,2.984200417995453 65.00383019447327,3.40711772441864 65.00383019447327,3.40711772441864 64.88509178161621,3.8253270089626312 64.88509178161621,3.8253270089626312 64.75279331207275,4.237551987171173 64.75279331207275,4.237551987171173 64.61155414581299,4.642834514379501 64.61155414581299,4.642834514379501 63.385891914367676,8.054260909557343 63.385891914367676,8.054260909557343 52.894991636276245,37.26587891578674 52.894991636276245,37.26587891578674 52.73731350898743,37.71321475505829 52.73731350898743,37.71321475505829 52.5809109210968,38.16413879394531 52.5809109210968,38.16413879394531 52.422118186950684,38.61594200134277 52.422118186950684,38.61594200134277 52.257418632507324,39.06615078449249 52.257418632507324,39.06615078449249 52.08314657211304,39.51228857040405 52.08314657211304,39.51228857040405 51.89586877822876,39.95148539543152 51.89586877822876,39.95148539543152 51.69183015823364,40.38158357143402 51.69183015823364,40.38158357143402 51.4676034450531,40.79987108707428 51.4676034450531,40.79987108707428 50.4821240901947,42.18839704990387 50.4821240901947,42.18839704990387 49.28694665431976,43.32117736339569 49.28694665431976,43.32117736339569 47.923076152801514,44.18959319591522 47.923076152801514,44.18959319591522 46.43137454986572,44.78503167629242 46.43137454986572,44.78503167629242 44.85269784927368,45.09918689727783 44.85269784927368,45.09918689727783 43.227896094322205,45.123523473739624 43.227896094322205,45.123523473739624 41.59806966781616,44.849586486816406 41.59806966781616,44.849586486816406 40.00383019447327,44.26875114440918 40.00383019447327,44.26875114440918 30.981168150901794,40.01468122005463 30.981168150901794,40.01468122005463" stroke="white" stroke-width="0.1" /><polygon points="79.96169924736023,21.00989520549774 79.96169924736023,21.00989520549774 79.96169924736023,21.00989520549774 79.96169924736023,21.00989520549774 78.65248918533325,21.636690199375153 78.65248918533325,21.636690199375153 77.41246223449707,22.384455800056458 77.41246223449707,22.384455800056458 76.2502372264862,23.24497252702713 76.2502372264862,23.24497252702713 75.17411708831787,24.210022389888763 75.17411708831787,24.210022389888763 74.19262528419495,25.271067023277283 74.19262528419495,25.271067023277283 73.31423759460449,26.41996443271637 73.31423759460449,26.41996443271637 72.54723906517029,27.6483416557312 72.54723906517029,27.6483416557312 71.90041542053223,28.947973251342773 71.90041542053223,28.947973251342773 71.60540819168091,29.672279953956604 71.60540819168091,29.672279953956604 71.34878635406494,30.410468578338623 71.34878635406494,30.410468578338623 71.13086581230164,31.160709261894226 71.13086581230164,31.160709261894226 70.95180153846741,31.921082735061646 70.95180153846741,31.921082735061646 70.81199884414673,32.68967568874359 70.81199884414673,32.68967568874359 70.7119345664978,33.464571833610535 70.7119345664978,33.464571833610535 70.65153121948242,34.243935346603394 70.65153121948242,34.243935346603394 70.631343126297,35.02585291862488 70.631343126297,35.02585291862488 70.63892483711243,35.50191521644592 70.63892483711243,35.50191521644592 70.66166400909424,35.97741723060608 70.66166400909424,35.97741723060608 70.69932818412781,36.45196259021759 70.69932818412781,36.45196259021759 70.75199484825134,36.925071477890015 70.75199484825134,36.925071477890015 70.81950306892395,37.39626407623291 70.81950306892395,37.39626407623291 70.90169191360474,37.86522448062897 70.90169191360474,37.86522448062897 70.99864482879639,38.331231474876404 70.99864482879639,38.331231474876404 71.11011743545532,38.794127106666565 71.11011743545532,38.794127106666565 71.18935585021973,39.05681371688843 71.18935585021973,39.05681371688843 71.27154469490051,39.28040266036987 71.27154469490051,39.28040266036987 71.34312391281128,39.47494328022003 71.34312391281128,39.47494328022003 71.39036059379578,39.65049386024475 71.39036059379578,39.65049386024475 71.3998556137085,39.817267656326294 71.3998556137085,39.817267656326294 71.35788202285767,39.985159039497375 71.35788202285767,39.985159039497375 71.25095725059509,40.16445875167847 71.25095725059509,40.16445875167847 71.06543183326721,40.36514461040497 71.06543183326721,40.36514461040497 70.96585035324097,40.45930504798889 70.96585035324097,40.45930504798889 70.86746096611023,40.554580092430115 70.86746096611023,40.554580092430115 70.77010869979858,40.65097272396088 70.77010869979858,40.65097272396088 70.67379355430603,40.74848294258118 70.67379355430603,40.74848294258118 70.57859897613525,40.84703028202057 70.57859897613525,40.84703028202057 70.48444151878357,40.9466952085495 70.48444151878357,40.9466952085495 70.39147615432739,41.04739725589752 70.39147615432739,41.04739725589752 70.29939293861389,41.14905893802643 70.29939293861389,41.14905893802643 69.10979747772217,42.77258217334747 69.10979747772217,42.77258217334747 68.24880242347717,44.54197287559509 68.24880242347717,44.54197287559509 67.65839457511902,46.42491340637207 67.65839457511902,46.42491340637207 67.2808825969696,48.388925194740295 67.2808825969696,48.388925194740295 67.05833077430725,50.401771068573 67.05833077430725,50.401771068573 66.93305373191833,52.43105888366699 66.93305373191833,52.43105888366699 66.8469488620758,54.44430112838745 66.8469488620758,54.44430112838745 66.7424201965332,56.40919208526611 66.7424201965332,56.40919208526611 66.73539876937866,56.714171171188354 66.73539876937866,56.714171171188354 66.7328417301178,57.239145040512085 66.7328417301178,57.239145040512085 66.72701835632324,57.90640115737915 66.72701835632324,57.90640115737915 66.71002507209778,58.63852500915527 66.71002507209778,58.63852500915527 66.6738748550415,59.3580424785614 66.6738748550415,59.3580424785614 66.61075353622437,59.987473487854004 66.61075353622437,59.987473487854004 66.51284694671631,60.44917106628418 66.51284694671631,60.44917106628418 66.37216806411743,60.66581606864929 66.37216806411743,60.66581606864929 66.00207686424255,60.819023847579956 66.00207686424255,60.819023847579956 65.6319797039032,60.97230911254883 65.6319797039032,60.97230911254883 65.26188850402832,61.125677824020386 65.26188850402832,61.125677824020386 64.89179730415344,61.27896308898926 64.89179730415344,61.27896308898926 64.52170610427856,61.432331800460815 64.52170610427856,61.432331800460815 64.1516923904419,61.58553957939148 64.1516923904419,61.58553957939148 63.78151774406433,61.73890829086304 63.78151774406433,61.73890829086304 63.41142654418945,61.8921160697937 63.41142654418945,61.8921160697937 49.38270151615143,67.70251989364624 49.38270151615143,67.70251989364624 33.613789081573486,74.2330014705658 33.613789081573486,74.2330014705658 32.595834136009216,74.67554807662964 32.595834136009216,74.67554807662964 31.551387906074524,75.15640258789062 31.551387906074524,75.15640258789062 30.485478043556213,75.65224766731262 30.485478043556213,75.65224766731262 29.4034481048584,76.13916397094727 29.4034481048584,76.13916397094727 28.310245275497437,76.59351825714111 28.310245275497437,76.59351825714111 27.210980653762817,76.99162364006042 27.210980653762817,76.99162364006042 26.11083686351776,77.30976939201355 26.11083686351776,77.30976939201355 25.015002489089966,77.52441763877869 25.015002489089966,77.52441763877869 23.673157393932343,77.59791016578674 23.673157393932343,77.59791016578674 22.35652655363083,77.44637727737427 22.35652655363083,77.44637727737427 21.09120637178421,77.08434462547302 21.09120637178421,77.08434462547302 19.90312784910202,76.5268087387085 19.90312784910202,76.5268087387085 18.81830543279648,75.78846216201782 18.81830543279648,75.78846216201782 17.862671613693237,74.88405704498291 17.862671613693237,74.88405704498291 17.062319815158844,73.82851839065552 17.062319815158844,73.82851839065552 16.443026065826416,72.63644933700562 16.443026065826416,72.63644933700562 16.30234569311142,72.29747772216797 16.30234569311142,72.29747772216797 16.16174578666687,71.95850610733032 16.16174578666687,71.95850610733032 16.021226346492767,71.61953449249268 16.021226346492767,71.61953449249268 15.880785882472992,71.28047943115234 15.880785882472992,71.28047943115234 15.740424394607544,70.94135284423828 15.740424394607544,70.94135284423828 15.600143373012543,70.60229778289795 15.600143373012543,70.60229778289795 15.459783375263214,70.2632486820221 15.459783375263214,70.2632486820221 15.319502353668213,69.92403268814087 15.319502353668213,69.92403268814087 9.557612240314484,56.01723790168762 9.557612240314484,56.01723790168762 3.0820300802588463,40.3849333524704 3.0820300802588463,40.3849333524704 2.5698212906718254,39.20946419239044 2.5698212906718254,39.20946419239044 2.0092563703656197,37.978774309158325 2.0092563703656197,37.978774309158325 1.4438237994909286,36.70571446418762 1.4438237994909286,36.70571446418762 0.9171720594167709,35.40336787700653 0.9171720594167709,35.40336787700653 0.47278967685997486,34.08458232879639 0.47278967685997486,34.08458232879639 0.1542451325803995,32.76228904724121 0.1542451325803995,32.76228904724121 0.005186722046346404,31.449410319328308 0.005186722046346404,31.449410319328308 0.0689435051754117,30.15895187854767 0.0689435051754117,30.15895187854767 0.9013724513351917,31.004628539085388 0.9013724513351917,31.004628539085388 1.8276412039995193,31.75279200077057 1.8276412039995193,31.75279200077057 2.828120067715645,32.41932690143585 2.828120067715645,32.41932690143585 3.8830194622278214,33.01994800567627 3.8830194622278214,33.01994800567627 4.9728695303201675,33.570459485054016 4.9728695303201675,33.570459485054016 6.077960506081581,34.086817502975464 6.077960506081581,34.086817502975464 7.178742438554764,34.58450436592102 7.178742438554764,34.58450436592102 8.255346119403839,35.07947623729706 8.255346119403839,35.07947623729706 20.130226016044617,40.67986011505127 20.130226016044617,40.67986011505127 32.5809121131897,46.551549434661865 32.5809121131897,46.551549434661865 33.44095051288605,46.96616530418396 33.44095051288605,46.96616530418396 34.304818511009216,47.39411175251007 34.304818511009216,47.39411175251007 35.173237323760986,47.82628417015076 35.173237323760986,47.82628417015076 36.04691922664642,48.253512382507324 36.04691922664642,48.253512382507324 36.9267463684082,48.66645336151123 36.9267463684082,48.66645336151123 37.81343698501587,49.05601739883423 37.81343698501587,49.05601739883423 38.70778679847717,49.41294193267822 38.70778679847717,49.41294193267822 39.61059749126434,49.72805678844452 39.61059749126434,49.72805678844452 42.46058166027069,50.335144996643066 42.46058166027069,50.335144996643066 45.234280824661255,50.34607648849487 45.234280824661255,50.34607648849487 47.87870943546295,49.80713427066803 47.87870943546295,49.80713427066803 50.34040808677673,48.764681816101074 50.34040808677673,48.764681816101074 52.566152811050415,47.265082597732544 52.566152811050415,47.265082597732544 54.502636194229126,45.35477161407471 54.502636194229126,45.35477161407471 56.096553802490234,43.07987689971924 56.096553802490234,43.07987689971924 57.294607162475586,40.48707187175751 57.294607162475586,40.48707187175751 61.51803135871887,28.72454524040222 61.51803135871887,28.72454524040222 67.33865141868591,12.514522671699524 67.33865141868591,12.514522671699524 67.84448027610779,11.168847978115082 67.84448027610779,11.168847978115082 68.39339137077332,9.76843312382698 68.39339137077332,9.76843312382698 68.94701719284058,8.327162265777588 68.94701719284058,8.327162265777588 69.46712136268616,6.859240680932999 69.46712136268616,6.859240680932999 69.91549730300903,5.378551036119461 69.91549730300903,5.378551036119461 70.2537477016449,3.8992978632450104 70.2537477016449,3.8992978632450104 70.44406533241272,2.435365505516529 70.44406533241272,2.435365505516529 70.4474925994873,1.0009575635194778 70.4474925994873,1.0009575635194778 71.49824500083923,1.9609799608588219 71.49824500083923,1.9609799608588219 72.39977717399597,3.1218480318784714 72.39977717399597,3.1218480318784714 73.1763482093811,4.433370754122734 73.1763482093811,4.433370754122734 73.85174036026001,5.845435708761215 73.85174036026001,5.845435708761215 74.4499683380127,7.3079317808151245 74.4499683380127,7.3079317808151245 74.99505281448364,8.770507574081421 74.99505281448364,8.770507574081421 75.51093101501465,10.183130949735641 75.51093101501465,10.183130949735641 76.02170705795288,11.495690792798996 76.02170705795288,11.495690792798996" stroke="white" stroke-width="0.1" /><polygon points="99.12543892860413,48.579636216163635 99.12543892860413,48.579636216163635 99.12543892860413,48.579636216163635 99.12543892860413,48.579636216163635 99.6680498123169,56.4225971698761 99.6680498123169,56.4225971698761 99.73723292350769,57.222312688827515 99.73723292350769,57.222312688827515 99.82444643974304,58.057451248168945 99.82444643974304,58.057451248168945 99.91030693054199,58.91509652137756 99.91030693054199,58.91509652137756 99.97526407241821,59.782713651657104 99.97526407241821,59.782713651657104 99.9997615814209,60.647302865982056 99.9997615814209,60.647302865982056 99.96457099914551,61.49609088897705 99.96457099914551,61.49609088897705 99.84974265098572,62.316471338272095 99.84974265098572,62.316471338272095 99.63613152503967,63.0954384803772 99.63613152503967,63.0954384803772 99.18137788772583,64.07772302627563 99.18137788772583,64.07772302627563 98.59264492988586,64.89291191101074 98.59264492988586,64.89291191101074 97.88724780082703,65.55210947990417 97.88724780082703,65.55210947990417 97.08234667778015,66.0663902759552 97.08234667778015,66.0663902759552 96.19526267051697,66.44701361656189 96.19526267051697,66.44701361656189 95.24306058883667,66.70507788658142 95.24306058883667,66.70507788658142 94.24329996109009,66.85165762901306 94.24329996109009,66.85165762901306 93.21289658546448,66.89817905426025 93.21289658546448,66.89817905426025 78.26747298240662,66.89817905426025 78.26747298240662,66.89817905426025 77.19733715057373,66.83913469314575 77.19733715057373,66.83913469314575 76.16446018218994,66.65767431259155 76.16446018218994,66.65767431259155 75.18879771232605,66.34750962257385 75.18879771232605,66.34750962257385 74.29061532020569,65.90216755867004 74.29061532020569,65.90216755867004 73.48986864089966,65.31527042388916 73.48986864089966,65.31527042388916 72.80673384666443,64.58051204681396 72.80673384666443,64.58051204681396 72.26133346557617,63.69134783744812 72.26133346557617,63.69134783744812 71.87360525131226,62.641555070877075 71.87360525131226,62.641555070877075 71.72917127609253,61.927229166030884 71.72917127609253,61.927229166030884 71.65943384170532,61.189115047454834 71.65943384170532,61.189115047454834 71.64921760559082,60.434091091156006 71.64921760559082,60.434091091156006 71.68368697166443,59.66956615447998 71.68368697166443,59.66956615447998 71.74760699272156,58.90241265296936 71.74760699272156,58.90241265296936 71.82620763778687,58.13988447189331 71.82620763778687,58.13988447189331 71.90424799919128,57.388925552368164 71.90424799919128,57.388925552368164 71.96680307388306,56.65687918663025 71.96680307388306,56.65687918663025 72.06702828407288,54.556334018707275 72.06702828407288,54.556334018707275 72.17323780059814,52.2469699382782 72.17323780059814,52.2469699382782 72.3956286907196,49.87807273864746 72.3956286907196,49.87807273864746 72.84455895423889,47.59926497936249 72.84455895423889,47.59926497936249 73.63030910491943,45.56008577346802 73.63030910491943,45.56008577346802 74.8630702495575,43.90991032123566 74.8630702495575,43.90991032123566 76.65344476699829,42.798277735710144 76.65344476699829,42.798277735710144 79.11139726638794,42.37472116947174 79.11139726638794,42.37472116947174 77.06862688064575,39.773938059806824 77.06862688064575,39.773938059806824 76.0775625705719,36.869534850120544 76.0775625705719,36.869534850120544 76.04221105575562,33.87671709060669 76.04221105575562,33.87671709060669 76.86673998832703,31.01053237915039 76.86673998832703,31.01053237915039 78.45507264137268,28.486034274101257 78.45507264137268,28.486034274101257 80.7112991809845,26.518434286117554 80.7112991809845,26.518434286117554 83.53933691978455,25.32261312007904 83.53933691978455,25.32261312007904 86.84328198432922,25.113949179649353 86.84328198432922,25.113949179649353 89.75127935409546,25.8662611246109 89.75127935409546,25.8662611246109 92.14762449264526,27.368736267089844 92.14762449264526,27.368736267089844 93.97430419921875,29.44701611995697 93.97430419921875,29.44701611995697 95.1736330986023,31.9269061088562 95.1736330986023,31.9269061088562 95.6876814365387,34.63389575481415 95.6876814365387,34.63389575481415 95.4588234424591,37.39379048347473 95.4588234424591,37.39379048347473 94.42874193191528,40.03223776817322 94.42874193191528,40.03223776817322 92.54005551338196,42.37472116947174 92.54005551338196,42.37472116947174 93.78279447555542,42.513325810432434 93.78279447555542,42.513325810432434 94.96098160743713,42.885175347328186 94.96098160743713,42.885175347328186 96.04691863059998,43.464651703834534 96.04691863059998,43.464651703834534 97.01292514801025,44.22613978385925 97.01292514801025,44.22613978385925 97.83139228820801,45.1440304517746 97.83139228820801,45.1440304517746 98.4747052192688,46.1927056312561 98.4747052192688,46.1927056312561 98.91533851623535,47.34639227390289 98.91533851623535,47.34639227390289" stroke="white" stroke-width="0.1" /><polygon points="6.669645756483078,28.550270199775696 6.669645756483078,28.550270199775696 6.300830096006393,28.374961018562317 5.797478556632996,28.115543723106384 5.223587527871132,27.78519093990326 4.643472656607628,27.397462725639343 4.121289402246475,26.96552872657776 3.7211935967206955,26.5028715133667 3.5075008869171143,26.022741198539734 3.544206917285919,25.5384624004364 4.011969268321991,24.7875839471817 4.7622088342905045,24.11203384399414 5.719598010182381,23.506782948970795 6.808171421289444,22.966724634170532 7.952281832695007,22.486913204193115 9.076125174760818,22.06208109855652 10.104212909936905,21.68744057416916 10.960740596055984,21.357804536819458 24.159590899944305,15.890200436115265 28.000319004058838,14.299233257770538 31.841206550598145,12.708267569541931 35.6821745634079,11.117299646139145 39.52313959598541,9.526252746582031 43.364107608795166,7.935205847024918 47.20507562160492,6.344158947467804 51.04588270187378,4.753032326698303 54.88669276237488,3.1618256121873856 55.6879997253418,2.825406938791275 56.48866891860962,2.4827640503644943 57.28957653045654,2.137727476656437 58.09176564216614,1.7940472811460495 58.89594554901123,1.4556336216628551 59.7032368183136,1.126236841082573 60.514360666275024,0.809846818447113 61.3303542137146,0.5100542679429054 61.83689832687378,0.3404883434996009 62.42459416389465,0.17523140413686633 63.050270080566406,0.04995212075300515 63.6707603931427,0.0 64.2427384853363,0.061043730238452554 64.72278833389282,0.26851261500269175 65.0678277015686,0.6581551395356655 65.23460149765015,1.2652410194277763 65.2521550655365,1.6969358548521996 65.23331999778748,2.1279923617839813 65.18257260322571,2.557452954351902 65.10453224182129,2.984200417995453 65.00383019447327,3.40711772441864 64.88509178161621,3.8253270089626312 64.75279331207275,4.237551987171173 64.61155414581299,4.642834514379501 63.385891914367676,8.054260909557343 52.894991636276245,37.26587891578674 52.73731350898743,37.71321475505829 52.5809109210968,38.16413879394531 52.422118186950684,38.61594200134277 52.257418632507324,39.06615078449249 52.08314657211304,39.51228857040405 51.89586877822876,39.95148539543152 51.69183015823364,40.38158357143402 51.4676034450531,40.79987108707428 50.4821240901947,42.18839704990387 49.28694665431976,43.32117736339569 47.923076152801514,44.18959319591522 46.43137454986572,44.78503167629242 44.85269784927368,45.09918689727783 43.227896094322205,45.123523473739624 41.59806966781616,44.849586486816406 40.00383019447327,44.26875114440918 30.981168150901794,40.01468122005463" stroke="white" stroke-width="0.1" /><polygon points="79.96169924736023,21.00989520549774 79.96169924736023,21.00989520549774 78.65248918533325,21.636690199375153 77.41246223449707,22.384455800056458 76.2502372264862,23.24497252702713 75.17411708831787,24.210022389888763 74.19262528419495,25.271067023277283 73.31423759460449,26.41996443271637 72.54723906517029,27.6483416557312 71.90041542053223,28.947973251342773 71.60540819168091,29.672279953956604 71.34878635406494,30.410468578338623 71.13086581230164,31.160709261894226 70.95180153846741,31.921082735061646 70.81199884414673,32.68967568874359 70.7119345664978,33.464571833610535 70.65153121948242,34.243935346603394 70.631343126297,35.02585291862488 70.63892483711243,35.50191521644592 70.66166400909424,35.97741723060608 70.69932818412781,36.45196259021759 70.75199484825134,36.925071477890015 70.81950306892395,37.39626407623291 70.90169191360474,37.86522448062897 70.99864482879639,38.331231474876404 71.11011743545532,38.794127106666565 71.18935585021973,39.05681371688843 71.27154469490051,39.28040266036987 71.34312391281128,39.47494328022003 71.39036059379578,39.65049386024475 71.3998556137085,39.817267656326294 71.35788202285767,39.985159039497375 71.25095725059509,40.16445875167847 71.06543183326721,40.36514461040497 70.96585035324097,40.45930504798889 70.86746096611023,40.554580092430115 70.77010869979858,40.65097272396088 70.67379355430603,40.74848294258118 70.57859897613525,40.84703028202057 70.48444151878357,40.9466952085495 70.39147615432739,41.04739725589752 70.29939293861389,41.14905893802643 69.10979747772217,42.77258217334747 68.24880242347717,44.54197287559509 67.65839457511902,46.42491340637207 67.2808825969696,48.388925194740295 67.05833077430725,50.401771068573 66.93305373191833,52.43105888366699 66.8469488620758,54.44430112838745 66.7424201965332,56.40919208526611 66.73539876937866,56.714171171188354 66.7328417301178,57.239145040512085 66.72701835632324,57.90640115737915 66.71002507209778,58.63852500915527 66.6738748550415,59.3580424785614 66.61075353622437,59.987473487854004 66.51284694671631,60.44917106628418 66.37216806411743,60.66581606864929 66.00207686424255,60.819023847579956 65.6319797039032,60.97230911254883 65.26188850402832,61.125677824020386 64.89179730415344,61.27896308898926 64.52170610427856,61.432331800460815 64.1516923904419,61.58553957939148 63.78151774406433,61.73890829086304 63.41142654418945,61.8921160697937 49.38270151615143,67.70251989364624 33.613789081573486,74.2330014705658 32.595834136009216,74.67554807662964 31.551387906074524,75.15640258789062 30.485478043556213,75.65224766731262 29.4034481048584,76.13916397094727 28.310245275497437,76.59351825714111 27.210980653762817,76.99162364006042 26.11083686351776,77.30976939201355 25.015002489089966,77.52441763877869 23.673157393932343,77.59791016578674 22.35652655363083,77.44637727737427 21.09120637178421,77.08434462547302 19.90312784910202,76.5268087387085 18.81830543279648,75.78846216201782 17.862671613693237,74.88405704498291 17.062319815158844,73.82851839065552 16.443026065826416,72.63644933700562 16.30234569311142,72.29747772216797 16.16174578666687,71.95850610733032 16.021226346492767,71.61953449249268 15.880785882472992,71.28047943115234 15.740424394607544,70.94135284423828 15.600143373012543,70.60229778289795 15.459783375263214,70.2632486820221 15.319502353668213,69.92403268814087 9.557612240314484,56.01723790168762 3.0820300802588463,40.3849333524704 2.5698212906718254,39.20946419239044 2.0092563703656197,37.978774309158325 1.4438237994909286,36.70571446418762 0.9171720594167709,35.40336787700653 0.47278967685997486,34.08458232879639 0.1542451325803995,32.76228904724121 0.005186722046346404,31.449410319328308 0.0689435051754117,30.15895187854767 0.9013724513351917,31.004628539085388 1.8276412039995193,31.75279200077057 2.828120067715645,32.41932690143585 3.8830194622278214,33.01994800567627 4.9728695303201675,33.570459485054016 6.077960506081581,34.086817502975464 7.178742438554764,34.58450436592102 8.255346119403839,35.07947623729706 20.130226016044617,40.67986011505127 32.5809121131897,46.551549434661865 33.44095051288605,46.96616530418396 34.304818511009216,47.39411175251007 35.173237323760986,47.82628417015076 36.04691922664642,48.253512382507324 36.9267463684082,48.66645336151123 37.81343698501587,49.05601739883423 38.70778679847717,49.41294193267822 39.61059749126434,49.72805678844452 42.46058166027069,50.335144996643066 45.234280824661255,50.34607648849487 47.87870943546295,49.80713427066803 50.34040808677673,48.764681816101074 52.566152811050415,47.265082597732544 54.502636194229126,45.35477161407471 56.096553802490234,43.07987689971924 57.294607162475586,40.48707187175751 61.51803135871887,28.72454524040222 67.33865141868591,12.514522671699524 67.84448027610779,11.168847978115082 68.39339137077332,9.76843312382698 68.94701719284058,8.327162265777588 69.46712136268616,6.859240680932999 69.91549730300903,5.378551036119461 70.2537477016449,3.8992978632450104 70.44406533241272,2.435365505516529 70.4474925994873,1.0009575635194778 71.49824500083923,1.9609799608588219 72.39977717399597,3.1218480318784714 73.1763482093811,4.433370754122734 73.85174036026001,5.845435708761215 74.4499683380127,7.3079317808151245 74.99505281448364,8.770507574081421 75.51093101501465,10.183130949735641 76.02170705795288,11.495690792798996" stroke="white" stroke-width="0.1" /><polygon points="99.12543892860413,48.579636216163635 99.12543892860413,48.579636216163635 99.6680498123169,56.4225971698761 99.73723292350769,57.222312688827515 99.82444643974304,58.057451248168945 99.91030693054199,58.91509652137756 99.97526407241821,59.782713651657104 99.9997615814209,60.647302865982056 99.96457099914551,61.49609088897705 99.84974265098572,62.316471338272095 99.63613152503967,63.0954384803772 99.18137788772583,64.07772302627563 98.59264492988586,64.89291191101074 97.88724780082703,65.55210947990417 97.08234667778015,66.0663902759552 96.19526267051697,66.44701361656189 95.24306058883667,66.70507788658142 94.24329996109009,66.85165762901306 93.21289658546448,66.89817905426025 78.26747298240662,66.89817905426025 77.19733715057373,66.83913469314575 76.16446018218994,66.65767431259155 75.18879771232605,66.34750962257385 74.29061532020569,65.90216755867004 73.48986864089966,65.31527042388916 72.80673384666443,64.58051204681396 72.26133346557617,63.69134783744812 71.87360525131226,62.641555070877075 71.72917127609253,61.927229166030884 71.65943384170532,61.189115047454834 71.64921760559082,60.434091091156006 71.68368697166443,59.66956615447998 71.74760699272156,58.90241265296936 71.82620763778687,58.13988447189331 71.90424799919128,57.388925552368164 71.96680307388306,56.65687918663025 72.06702828407288,54.556334018707275 72.17323780059814,52.2469699382782 72.3956286907196,49.87807273864746 72.84455895423889,47.59926497936249 73.63030910491943,45.56008577346802 74.8630702495575,43.90991032123566 76.65344476699829,42.798277735710144 79.11139726638794,42.37472116947174 77.06862688064575,39.773938059806824 76.0775625705719,36.869534850120544 76.04221105575562,33.87671709060669 76.86673998832703,31.01053237915039 78.45507264137268,28.486034274101257 80.7112991809845,26.518434286117554 83.53933691978455,25.32261312007904 86.84328198432922,25.113949179649353 89.75127935409546,25.8662611246109 92.14762449264526,27.368736267089844 93.97430419921875,29.44701611995697 95.1736330986023,31.9269061088562 95.6876814365387,34.63389575481415 95.4588234424591,37.39379048347473 94.42874193191528,40.03223776817322 92.54005551338196,42.37472116947174 93.78279447555542,42.513325810432434 94.96098160743713,42.885175347328186 96.04691863059998,43.464651703834534 97.01292514801025,44.22613978385925 97.83139228820801,45.1440304517746 98.4747052192688,46.1927056312561 98.91533851623535,47.34639227390289" stroke="white" stroke-width="0.1" /></svg>