<?xml version="1.0" encoding="utf-8" ?>
<svg baseProfile="full" height="77.11387276649475" version="1.1" width="99.99887347221375" xmlns="http://www.w3.org/2000/svg" xmlns:ev="http://www.w3.org/2001/xml-events" xmlns:xlink="http://www.w3.org/1999/xlink"><defs><clipPath /></defs><polygon points="96.37654423713684,0.10228101164102554 96.37654423713684,0.10228101164102554 96.37654423713684,0.10228101164102554 96.37654423713684,0.10228101164102554 97.74859547615051,0.32526866998523474 97.74859547615051,0.32526866998523474 98.71988892555237,0.9371685795485973 98.71988892555237,0.9371685795485973 99.35754537582397,1.8520573154091835 99.35754537582397,1.8520573154091835 99.72859621047974,2.9841050505638123 99.72859621047974,2.9841050505638123 99.9003529548645,4.247529432177544 99.9003529548645,4.247529432177544 99.93983507156372,5.556594952940941 99.93983507156372,5.556594952940941 99.91436004638672,6.8254247307777405 99.91436004638672,6.8254247307777405 99.89095330238342,7.968142628669739 99.89095330238342,7.968142628669739 99.89095330238342,34.41004157066345 99.89095330238342,34.41004157066345 99.89095330238342,54.72034215927124 99.89095330238342,54.72034215927124 99.91642832756042,56.49954676628113 99.91642832756042,56.49954676628113 99.96597170829773,58.332520723342896 99.96597170829773,58.332520723342896 99.99887347221375,60.195666551589966 99.99887347221375,60.195666551589966 99.97442960739136,62.06596493721008 99.97442960739136,62.06596493721008 99.85212683677673,63.919997215270996 99.85212683677673,63.919997215270996 99.59143996238708,65.73435664176941 99.59143996238708,65.73435664176941 99.15167093276978,67.48573184013367 99.15167093276978,67.48573184013367 98.49210977554321,69.15099024772644 98.49210977554321,69.15099024772644 97.33693599700928,71.11726999282837 97.33693599700928,71.11726999282837 95.94889879226685,72.78178334236145 95.94889879226685,72.78178334236145 94.35536861419678,74.15655851364136 94.35536861419678,74.15655851364136 92.58378148078918,75.25382041931152 92.58378148078918,75.25382041931152 90.66140651702881,76.08598470687866 90.66140651702881,76.08598470687866 88.61559629440308,76.66516900062561 88.61559629440308,76.66516900062561 86.47361993789673,77.00369358062744 86.47361993789673,77.00369358062744 84.263014793396,77.11387276649475 84.263014793396,77.11387276649475 71.40343189239502,77.11387276649475 71.40343189239502,77.11387276649475 30.663245916366577,77.11387276649475 30.663245916366577,77.11387276649475 16.563507914543152,77.11387276649475 16.563507914543152,77.11387276649475 14.665669202804565,77.06536054611206 14.665669202804565,77.06536054611206 12.809757888317108,76.90150737762451 12.809757888317108,76.90150737762451 11.007242649793625,76.59485340118408 11.007242649793625,76.59485340118408 9.269969165325165,76.11775994300842 9.269969165325165,76.11775994300842 7.6094068586826324,75.44296979904175 7.6094068586826324,75.44296979904175 6.037024408578873,74.54264760017395 6.037024408578873,74.54264760017395 4.564666375517845,73.38963747024536 4.564666375517845,73.38963747024536 3.2038025557994843,71.95619940757751 3.2038025557994843,71.95619940757751 2.0625418052077293,70.32844424247742 2.0625418052077293,70.32844424247742 1.2290643528103828,68.6410903930664 1.2290643528103828,68.6410903930664 0.6555197760462761,66.90062284469604 0.6555197760462761,66.90062284469604 0.29377590399235487,65.1137113571167 0.29377590399235487,65.1137113571167 0.09588845423422754,63.28694224357605 0.09588845423422754,63.28694224357605 0.014007235586177558,61.42699122428894 0.014007235586177558,61.42699122428894 0.0,59.5404326915741 0.0,59.5404326915741 0.006016530460328795,57.63384699821472 0.006016530460328795,57.63384699821472 0.006016530460328795,37.90338933467865 0.006016530460328795,37.90338933467865 0.006016530460328795,21.95657640695572 0.006016530460328795,21.95657640695572 0.21885130554437637,19.232356548309326 0.21885130554437637,19.232356548309326 0.8456985466182232,16.632556915283203 0.8456985466182232,16.632556915283203 1.8686966970562935,14.215932786464691 1.8686966970562935,14.215932786464691 3.2701723277568817,12.040957808494568 3.2701723277568817,12.040957808494568 5.032451823353767,10.166385024785995 5.032451823353767,10.166385024785995 7.1377672255039215,8.650783449411392 7.1377672255039215,8.650783449411392 9.568539261817932,7.552860677242279 9.568539261817932,7.552860677242279 12.306813150644302,6.931042671203613 12.306813150644302,6.931042671203613 13.508802652359009,6.811041384935379 13.508802652359009,6.811041384935379 14.723953604698181,6.744483858346939 14.723953604698181,6.744483858346939 15.947942435741425,6.719806790351868 15.947942435741425,6.719806790351868 17.17672497034073,6.72554075717926 17.17672497034073,6.72554075717926 18.405883014202118,6.75007700920105 18.405883014202118,6.75007700920105 19.631563127040863,6.781899183988571 19.631563127040863,6.781899183988571 20.84934562444687,6.809443235397339 20.84934562444687,6.809443235397339 22.055096924304962,6.821241229772568 22.055096924304962,6.821241229772568 41.412532329559326,6.821241229772568 41.412532329559326,6.821241229772568 71.70576453208923,6.821241229772568 71.70576453208923,6.821241229772568 71.7521071434021,6.716986000537872 71.7521071434021,6.716986000537872 71.78012132644653,6.439661979675293 71.78012132644653,6.439661979675293 71.79356813430786,6.04238286614418 71.79356813430786,6.04238286614418 71.7962920665741,5.5783577263355255 71.7962920665741,5.5783577263355255 71.7919647693634,5.10079562664032 71.7919647693634,5.10079562664032 71.7841625213623,4.6628110110759735 71.7841625213623,4.6628110110759735 71.77683115005493,4.317565634846687 71.77683115005493,4.317565634846687 71.77344560623169,4.118315130472183 71.77344560623169,4.118315130472183 71.81735038757324,3.4217137843370438 71.81735038757324,3.4217137843370438 71.95008993148804,2.751857601106167 71.95008993148804,2.751857601106167 72.17373251914978,2.123929187655449 72.17373251914978,2.123929187655449 72.49007225036621,1.5532049350440502 72.49007225036621,1.5532049350440502 72.90098071098328,1.0550550185143948 72.90098071098328,1.0550550185143948 73.40843677520752,0.6447558291256428 73.40843677520752,0.6447558291256428 74.01413321495056,0.33767777495086193 74.01413321495056,0.33767777495086193 74.72004294395447,0.1489091315306723 74.72004294395447,0.1489091315306723 75.42397975921631,0.05922522395849228 75.42397975921631,0.05922522395849228 76.14313960075378,0.012785126455128193 76.14313960075378,0.012785126455128193 76.87255144119263,-4.700414422131871e-05 76.87255144119263,-4.700414422131871e-05 77.60750651359558,0.011092978093074635 77.60750651359558,0.011092978093074635 78.34293246269226,0.036475216620601714 78.34293246269226,0.036475216620601714 79.07403707504272,0.06665187538601458 79.07403707504272,0.06665187538601458 79.79583144187927,0.09175208979286253 79.79583144187927,0.09175208979286253 80.5034339427948,0.10228101164102554 80.5034339427948,0.10228101164102554" stroke="white" stroke-width="0.1" /><polygon points="10.6011264026165,23.9412784576416 10.6011264026165,23.9412784576416 10.6011264026165,23.9412784576416 10.6011264026165,23.9412784576416 10.919908434152603,25.466376543045044 10.919908434152603,25.466376543045044 11.78591325879097,26.509398221969604 11.78591325879097,26.509398221969604 13.063673675060272,27.156269550323486 13.063673675060272,27.156269550323486 14.61772471666336,27.492910623550415 14.61772471666336,27.492910623550415 16.312600672245026,27.60515809059143 16.312600672245026,27.60515809059143 18.012739717960358,27.57902443408966 18.012739717960358,27.57902443408966 19.582678377628326,27.500244975090027 19.582678377628326,27.500244975090027 20.887137949466705,27.454933524131775 20.887137949466705,27.454933524131775 31.0693621635437,27.454933524131775 31.0693621635437,27.454933524131775 31.792381405830383,27.47279405593872 31.792381405830383,27.47279405593872 32.583555579185486,27.510207891464233 32.583555579185486,27.510207891464233 33.416467905044556,27.54254937171936 33.416467905044556,27.54254937171936 34.26423370838165,27.54555642604828 34.26423370838165,27.54555642604828 35.10034382343292,27.494651079177856 35.10034382343292,27.494651079177856 35.89819371700287,27.365529537200928 35.89819371700287,27.365529537200928 36.63108050823212,27.1334707736969 36.63108050823212,27.1334707736969 37.27240562438965,26.774311065673828 37.27240562438965,26.774311065673828 38.00548315048218,26.00400745868683 38.00548315048218,26.00400745868683 38.483795523643494,25.01969337463379 38.483795523643494,25.01969337463379 38.755762577056885,23.880454897880554 38.755762577056885,23.880454897880554 38.86979520320892,22.64546900987625 38.86979520320892,22.64546900987625 38.87430727481842,21.373818814754486 38.87430727481842,21.373818814754486 38.817524909973145,20.124588906764984 38.817524909973145,20.124588906764984 38.74805271625519,18.95700693130493 38.74805271625519,18.95700693130493 38.71411681175232,17.930012941360474 38.71411681175232,17.930012941360474 38.645678758621216,16.908612847328186 38.645678758621216,16.908612847328186 38.440364599227905,16.00702553987503 38.440364599227905,16.00702553987503 38.09817433357239,15.230189263820648 38.09817433357239,15.230189263820648 37.619391083717346,14.583317935466766 37.619391083717346,14.583317935466766 37.00410723686218,14.071348309516907 37.00410723686218,14.071348309516907 36.2523227930069,13.699404895305634 36.2523227930069,13.699404895305634 35.36432087421417,13.472515344619751 35.36432087421417,13.472515344619751 34.34009850025177,13.395805656909943 34.34009850025177,13.395805656909943 16.363458335399628,13.395805656909943 16.363458335399628,13.395805656909943 15.402881801128387,13.405957818031311 15.402881801128387,13.405957818031311 14.415419101715088,13.462033867835999 14.415419101715088,13.462033867835999 13.448919355869293,13.602294027805328 13.448919355869293,13.602294027805328 12.551046907901764,13.865187764167786 12.551046907901764,13.865187764167786 11.769555509090424,14.288978278636932 11.769555509090424,14.288978278636932 11.152297258377075,14.912064373493195 11.152297258377075,14.912064373493195 10.74683964252472,15.772804617881775 10.74683964252472,15.772804617881775 10.6011264026165,16.909459233283997 10.6011264026165,16.909459233283997 10.544157773256302,17.779411375522614 10.544157773256302,17.779411375522614 10.517365485429764,18.656179308891296 10.517365485429764,18.656179308891296 10.51388680934906,19.537648558616638 10.51388680934906,19.537648558616638 10.526672005653381,20.421701669692993 10.526672005653381,20.421701669692993 10.54876372218132,21.306179463863373 10.54876372218132,21.306179463863373 10.573206096887589,22.189058363437653 10.573206096887589,22.189058363437653 10.592947900295258,23.068130016326904 10.592947900295258,23.068130016326904" stroke="white" stroke-width="0.1" /><polygon points="49.94622766971588,67.38213300704956 49.94622766971588,67.38213300704956 49.94622766971588,67.38213300704956 49.94622766971588,67.38213300704956 50.827646255493164,67.36220121383667 50.827646255493164,67.36220121383667 51.706910133361816,67.30260252952576 51.706910133361816,67.30260252952576 52.582406997680664,67.20333099365234 52.582406997680664,67.20333099365234 53.45245599746704,67.06494688987732 53.45245599746704,67.06494688987732 54.31535840034485,66.88727140426636 54.31535840034485,66.88727140426636 55.169326066970825,66.6707694530487 55.169326066970825,66.6707694530487 56.01295828819275,66.415536403656 56.01295828819275,66.415536403656 56.84418082237244,66.1216676235199 56.84418082237244,66.1216676235199 60.12582182884216,64.49532508850098 60.12582182884216,64.49532508850098 62.98103928565979,62.3196005821228 62.98103928565979,62.3196005821228 65.36508798599243,59.68341827392578 65.36508798599243,59.68341827392578 67.23312735557556,56.67562484741211 67.23312735557556,56.67562484741211 68.54050159454346,53.38486433029175 68.54050159454346,53.38486433029175 69.24245953559875,49.89997446537018 69.24245953559875,49.89997446537018 69.29407119750977,46.30979895591736 69.29407119750977,46.30979895591736 68.65086555480957,42.70307719707489 68.65086555480957,42.70307719707489 67.32459664344788,39.28982317447662 67.32459664344788,39.28982317447662 65.41322469711304,36.25392019748688 65.41322469711304,36.25392019748688 63.001155853271484,33.64688158035278 63.001155853271484,33.64688158035278 60.17292141914368,31.520789861679077 60.17292141914368,31.520789861679077 57.01320767402649,29.927349090576172 57.01320767402649,29.927349090576172 53.60672473907471,28.91840636730194 53.60672473907471,28.91840636730194 50.0377893447876,28.5457581281662 50.0377893447876,28.5457581281662 46.391209959983826,28.8612961769104 46.391209959983826,28.8612961769104 42.875298857688904,29.87263798713684 42.875298857688904,29.87263798713684 39.682215452194214,31.50053322315216 39.682215452194214,31.50053322315216 36.87080144882202,33.665308356285095 36.87080144882202,33.665308356285095 34.50019657611847,36.2875759601593 34.50019657611847,36.2875759601593 32.62924253940582,39.287567138671875 32.62924253940582,39.287567138671875 31.316980719566345,42.58565902709961 31.316980719566345,42.58565902709961 30.622446537017822,46.10251188278198 30.622446537017822,46.10251188278198 30.604586005210876,49.75821077823639 30.604586005210876,49.75821077823639 31.290283799171448,53.3463180065155 31.290283799171448,53.3463180065155 32.61796236038208,56.6714882850647 32.61796236038208,56.6714882850647 34.514203667640686,59.66734290122986 34.514203667640686,59.66734290122986 36.905208230018616,62.267518043518066 36.905208230018616,62.267518043518066 39.71756100654602,64.40545320510864 39.71756100654602,64.40545320510864 42.87755489349365,66.01487398147583 42.87755489349365,66.01487398147583 46.31167948246002,67.02922582626343 46.31167948246002,67.02922582626343" stroke="white" stroke-width="0.1" /><polygon points="96.37654423713684,0.10228101164102554 96.37654423713684,0.10228101164102554 97.74859547615051,0.32526866998523474 98.71988892555237,0.9371685795485973 99.35754537582397,1.8520573154091835 99.72859621047974,2.9841050505638123 99.9003529548645,4.247529432177544 99.93983507156372,5.556594952940941 99.91436004638672,6.8254247307777405 99.89095330238342,7.968142628669739 99.89095330238342,34.41004157066345 99.89095330238342,54.72034215927124 99.91642832756042,56.49954676628113 99.96597170829773,58.332520723342896 99.99887347221375,60.195666551589966 99.97442960739136,62.06596493721008 99.85212683677673,63.919997215270996 99.59143996238708,65.73435664176941 99.15167093276978,67.48573184013367 49.94622766971588,67.38213300704956 49.94622766971588,67.38213300704956 50.827646255493164,67.36220121383667 51.706910133361816,67.30260252952576 52.582406997680664,67.20333099365234 53.45245599746704,67.06494688987732 54.31535840034485,66.88727140426636 55.169326066970825,66.6707694530487 56.01295828819275,66.415536403656 56.84418082237244,66.1216676235199 60.12582182884216,64.49532508850098 62.98103928565979,62.3196005821228 65.36508798599243,59.68341827392578 67.23312735557556,56.67562484741211 68.54050159454346,53.38486433029175 69.24245953559875,49.89997446537018 69.29407119750977,46.30979895591736 68.65086555480957,42.70307719707489 67.32459664344788,39.28982317447662 65.41322469711304,36.25392019748688 63.001155853271484,33.64688158035278 60.17292141914368,31.520789861679077 57.01320767402649,29.927349090576172 53.60672473907471,28.91840636730194 50.0377893447876,28.5457581281662 46.391209959983826,28.8612961769104 42.875298857688904,29.87263798713684 39.682215452194214,31.50053322315216 36.87080144882202,33.665308356285095 34.50019657611847,36.2875759601593 32.62924253940582,39.287567138671875 31.316980719566345,42.58565902709961 30.622446537017822,46.10251188278198 30.604586005210876,49.75821077823639 31.290283799171448,53.3463180065155 32.61796236038208,56.6714882850647 34.514203667640686,59.66734290122986 36.905208230018616,62.267518043518066 39.71756100654602,64.40545320510864 42.87755489349365,66.01487398147583 46.31167948246002,67.02922582626343 49.94622766971588,67.38213300704956 99.15167093276978,67.48573184013367 98.49210977554321,69.15099024772644 97.33693599700928,71.11726999282837 95.94889879226685,72.78178334236145 94.35536861419678,74.15655851364136 92.58378148078918,75.25382041931152 90.66140651702881,76.08598470687866 88.61559629440308,76.66516900062561 86.47361993789673,77.00369358062744 84.263014793396,77.11387276649475 71.40343189239502,77.11387276649475 30.663245916366577,77.11387276649475 16.563507914543152,77.11387276649475 14.665669202804565,77.06536054611206 12.809757888317108,76.90150737762451 11.007242649793625,76.59485340118408 10.6011264026165,23.9412784576416 10.6011264026165,23.9412784576416 10.919908434152603,25.466376543045044 11.78591325879097,26.509398221969604 13.063673675060272,27.156269550323486 14.61772471666336,27.492910623550415 16.312600672245026,27.60515809059143 18.012739717960358,27.57902443408966 19.582678377628326,27.500244975090027 20.887137949466705,27.454933524131775 31.0693621635437,27.454933524131775 31.792381405830383,27.47279405593872 32.583555579185486,27.510207891464233 33.416467905044556,27.54254937171936 34.26423370838165,27.54555642604828 35.10034382343292,27.494651079177856 35.89819371700287,27.365529537200928 36.63108050823212,27.1334707736969 37.27240562438965,26.774311065673828 38.00548315048218,26.00400745868683 38.483795523643494,25.01969337463379 38.755762577056885,23.880454897880554 38.86979520320892,22.64546900987625 38.87430727481842,21.373818814754486 38.817524909973145,20.124588906764984 38.74805271625519,18.95700693130493 38.71411681175232,17.930012941360474 38.645678758621216,16.908612847328186 38.440364599227905,16.00702553987503 38.09817433357239,15.230189263820648 37.619391083717346,14.583317935466766 37.00410723686218,14.071348309516907 36.2523227930069,13.699404895305634 35.36432087421417,13.472515344619751 34.34009850025177,13.395805656909943 16.363458335399628,13.395805656909943 15.402881801128387,13.405957818031311 14.415419101715088,13.462033867835999 13.448919355869293,13.602294027805328 12.551046907901764,13.865187764167786 11.769555509090424,14.288978278636932 11.152297258377075,14.912064373493195 10.74683964252472,15.772804617881775 10.6011264026165,16.909459233283997 10.544157773256302,17.779411375522614 10.517365485429764,18.656179308891296 10.51388680934906,19.537648558616638 10.526672005653381,20.421701669692993 10.54876372218132,21.306179463863373 10.573206096887589,22.189058363437653 10.592947900295258,23.068130016326904 10.6011264026165,23.9412784576416 11.007242649793625,76.59485340118408 9.269969165325165,76.11775994300842 7.6094068586826324,75.44296979904175 6.037024408578873,74.54264760017395 4.564666375517845,73.38963747024536 3.2038025557994843,71.95619940757751 2.0625418052077293,70.32844424247742 1.2290643528103828,68.6410903930664 0.6555197760462761,66.90062284469604 0.29377590399235487,65.1137113571167 0.09588845423422754,63.28694224357605 0.014007235586177558,61.42699122428894 0.0,59.5404326915741 0.006016530460328795,57.63384699821472 0.006016530460328795,37.90338933467865 0.006016530460328795,21.95657640695572 0.21885130554437637,19.232356548309326 0.8456985466182232,16.632556915283203 1.8686966970562935,14.215932786464691 3.2701723277568817,12.040957808494568 5.032451823353767,10.166385024785995 7.1377672255039215,8.650783449411392 9.568539261817932,7.552860677242279 12.306813150644302,6.931042671203613 13.508802652359009,6.811041384935379 14.723953604698181,6.744483858346939 15.947942435741425,6.719806790351868 17.17672497034073,6.72554075717926 18.405883014202118,6.75007700920105 19.631563127040863,6.781899183988571 20.84934562444687,6.809443235397339 22.055096924304962,6.821241229772568 41.412532329559326,6.821241229772568 71.70576453208923,6.821241229772568 71.7521071434021,6.716986000537872 71.78012132644653,6.439661979675293 71.79356813430786,6.04238286614418 71.7962920665741,5.5783577263355255 71.7919647693634,5.10079562664032 71.7841625213623,4.6628110110759735 71.77683115005493,4.317565634846687 71.77344560623169,4.118315130472183 71.81735038757324,3.4217137843370438 71.95008993148804,2.751857601106167 72.17373251914978,2.123929187655449 72.49007225036621,1.5532049350440502 72.90098071098328,1.0550550185143948 73.40843677520752,0.6447558291256428 74.01413321495056,0.33767777495086193 74.72004294395447,0.1489091315306723 75.42397975921631,0.05922522395849228 76.14313960075378,0.012785126455128193 76.87255144119263,-4.700414422131871e-05 77.60750651359558,0.011092978093074635 78.34293246269226,0.036475216620601714 79.07403707504272,0.06665187538601458 79.79583144187927,0.09175208979286253 80.5034339427948,0.10228101164102554" stroke="white" stroke-width="0.1" /></svg>