<?xml version="1.0" encoding="utf-8" ?>
<svg baseProfile="full" height="99.97447729110718" version="1.1" width="58.44451189041138" xmlns="http://www.w3.org/2000/svg" xmlns:ev="http://www.w3.org/2001/xml-events" xmlns:xlink="http://www.w3.org/1999/xlink"><defs><clipPath /></defs><polygon points="0.0,91.59662127494812 0.0,91.59662127494812 0.0,8.346908539533615 0.0,8.346908539533615 0.4043949767947197,5.768703296780586 0.4043949767947197,5.768703296780586 1.5149540267884731,3.5874273627996445 1.5149540267884731,3.5874273627996445 3.1776025891304016,1.8670858815312386 3.1776025891304016,1.8670858815312386 5.2384015172719955,0.6714124232530594 5.2384015172719955,0.6714124232530594 7.54341259598732,0.06434482056647539 7.54341259598732,0.06434482056647539 9.938696026802063,0.10968485148623586 9.938696026802063,0.10968485148623586 12.270177900791168,0.8713021874427795 12.270177900791168,0.8713021874427795 14.383918046951294,2.4130666628479958 14.383918046951294,2.4130666628479958 14.873495697975159,2.9032547026872635 14.873495697975159,2.9032547026872635 15.363073348999023,3.3933069556951523 15.363073348999023,3.3933069556951523 15.85271805524826,3.883223608136177 15.85271805524826,3.883223608136177 16.34249836206436,4.373004660010338 16.34249836206436,4.373004660010338 16.83221161365509,4.862649738788605 16.83221161365509,4.862649738788605 17.32192486524582,5.352294817566872 17.32192486524582,5.352294817566872 17.811502516269684,5.841803923249245 17.811502516269684,5.841803923249245 18.30108016729355,6.331313401460648 18.30108016729355,6.331313401460648 37.80434727668762,25.83566904067993 37.80434727668762,25.83566904067993 39.91503417491913,27.94608473777771 39.91503417491913,27.94608473777771 42.025721073150635,30.056768655776978 42.025721073150635,30.056768655776978 44.1362738609314,32.167524099349976 44.1362738609314,32.167524099349976 46.24682366847992,34.27841365337372 46.24682366847992,34.27841365337372 48.35737347602844,36.389440298080444 48.35737347602844,36.389440298080444 50.46799182891846,38.50046694278717 50.46799182891846,38.50046694278717 52.57854461669922,40.61162769794464 52.57854461669922,40.61162769794464 54.68930006027222,42.72279143333435 54.68930006027222,42.72279143333435 55.670082569122314,43.76920759677887 55.670082569122314,43.76920759677887 56.550413370132446,44.86904442310333 56.550413370132446,44.86904442310333 57.29920268058777,46.02528214454651 57.29920268058777,46.02528214454651 57.88522958755493,47.24050164222717 57.88522958755493,47.24050164222717 58.27740430831909,48.5177606344223 58.27740430831909,48.5177606344223 58.44451189041138,49.85956847667694 58.44451189041138,49.85956847667694 58.35532546043396,51.26897692680359 58.35532546043396,51.26897692680359 57.978755235672,52.74863839149475 57.978755235672,52.74863839149475 57.62336850166321,53.58797311782837 57.62336850166321,53.58797311782837 57.177501916885376,54.37055826187134 57.177501916885376,54.37055826187134 56.657516956329346,55.10557293891907 56.657516956329346,55.10557293891907 56.07990622520447,55.80189228057861 56.07990622520447,55.80189228057861 55.46116232872009,56.46876096725464 55.46116232872009,56.46876096725464 54.81778383255005,57.11512565612793 54.81778383255005,57.11512565612793 54.16625738143921,57.75008797645569 54.16625738143921,57.75008797645569 53.52294445037842,58.38274359703064 53.52294445037842,58.38274359703064 26.207077503204346,85.6997013092041 26.207077503204346,85.6997013092041 15.492713451385498,96.41406536102295 15.492713451385498,96.41406536102295 15.009991824626923,96.8937337398529 15.009991824626923,96.8937337398529 14.5246222615242,97.36064076423645 14.5246222615242,97.36064076423645 14.029614627361298,97.80887961387634 14.029614627361298,97.80887961387634 13.51797878742218,98.23201298713684 13.51797878742218,98.23201298713684 12.982518970966339,98.6237108707428 12.982518970966339,98.6237108707428 12.416242808103561,98.97788166999817 12.416242808103561,98.97788166999817 11.812026053667068,99.28813576698303 11.812026053667068,99.28813576698303 11.162876337766647,99.54822659492493 11.162876337766647,99.54822659492493 9.135132282972336,99.97447729110718 9.135132282972336,99.97447729110718 7.143904268741608,99.89038109779358 7.143904268741608,99.89038109779358 5.2613429725170135,99.34827089309692 5.2613429725170135,99.34827089309692 3.55946347117424,98.40033650398254 3.55946347117424,98.40033650398254 2.1102793514728546,97.09898233413696 2.1102793514728546,97.09898233413696 0.9859418496489525,95.49633860588074 0.9859418496489525,95.49633860588074 0.2584652742370963,93.64479780197144 0.2584652742370963,93.64479780197144 0.0,91.59662127494812 0.0,91.59662127494812" stroke="white" stroke-width="0.1" /><polygon points="0.0,91.59662127494812 0.0,8.346908539533615 0.4043949767947197,5.768703296780586 1.5149540267884731,3.5874273627996445 3.1776025891304016,1.8670858815312386 5.2384015172719955,0.6714124232530594 7.54341259598732,0.06434482056647539 9.938696026802063,0.10968485148623586 12.270177900791168,0.8713021874427795 14.383918046951294,2.4130666628479958 14.873495697975159,2.9032547026872635 15.363073348999023,3.3933069556951523 15.85271805524826,3.883223608136177 16.34249836206436,4.373004660010338 16.83221161365509,4.862649738788605 17.32192486524582,5.352294817566872 17.811502516269684,5.841803923249245 18.30108016729355,6.331313401460648 37.80434727668762,25.83566904067993 39.91503417491913,27.94608473777771 42.025721073150635,30.056768655776978 44.1362738609314,32.167524099349976 46.24682366847992,34.27841365337372 48.35737347602844,36.389440298080444 50.46799182891846,38.50046694278717 52.57854461669922,40.61162769794464 54.68930006027222,42.72279143333435 55.670082569122314,43.76920759677887 56.550413370132446,44.86904442310333 57.29920268058777,46.02528214454651 57.88522958755493,47.24050164222717 58.27740430831909,48.5177606344223 58.44451189041138,49.85956847667694 58.35532546043396,51.26897692680359 57.978755235672,52.74863839149475 57.62336850166321,53.58797311782837 57.177501916885376,54.37055826187134 56.657516956329346,55.10557293891907 56.07990622520447,55.80189228057861 55.46116232872009,56.46876096725464 54.81778383255005,57.11512565612793 54.16625738143921,57.75008797645569 53.52294445037842,58.38274359703064 26.207077503204346,85.6997013092041 15.492713451385498,96.41406536102295 15.009991824626923,96.8937337398529 14.5246222615242,97.36064076423645 14.029614627361298,97.80887961387634 13.51797878742218,98.23201298713684 12.982518970966339,98.6237108707428 12.416242808103561,98.97788166999817 11.812026053667068,99.28813576698303 11.162876337766647,99.54822659492493 9.135132282972336,99.97447729110718 7.143904268741608,99.89038109779358 5.2613429725170135,99.34827089309692 3.55946347117424,98.40033650398254 2.1102793514728546,97.09898233413696 0.9859418496489525,95.49633860588074 0.2584652742370963,93.64479780197144 0.0,91.59662127494812" stroke="white" stroke-width="0.1" /></svg>