<?xml version="1.0" encoding="utf-8" ?>
<svg baseProfile="full" height="29.111585021018982" version="1.1" width="100.0002384185791" xmlns="http://www.w3.org/2000/svg" xmlns:ev="http://www.w3.org/2001/xml-events" xmlns:xlink="http://www.w3.org/1999/xlink"><defs><clipPath /></defs><polygon points="85.32291054725647,16.074863076210022 85.32291054725647,16.074863076210022 86.6366982460022,16.207237541675568 86.6366982460022,16.207237541675568 87.8603994846344,16.586916148662567 87.8603994846344,16.586916148662567 88.96790146827698,17.187781631946564 88.96790146827698,17.187781631946564 89.9328351020813,17.983652651309967 89.9328351020813,17.983652651309967 90.72897434234619,18.94841343164444 90.72897434234619,18.94841343164444 91.33025407791138,20.055940747261047 91.33025407791138,20.055940747261047 91.7102575302124,21.280057728290558 91.7102575302124,21.280057728290558 91.84269309043884,22.594645619392395 91.84269309043884,22.594645619392395 91.82498455047607,23.07344228029251 91.82498455047607,23.07344228029251 91.77280068397522,23.54253977537155 91.77280068397522,23.54253977537155 91.68751239776611,24.0008145570755 91.68751239776611,24.0008145570755 91.57059788703918,24.44716840982437 91.57059788703918,24.44716840982437 91.42341613769531,24.880507588386536 91.42341613769531,24.880507588386536 91.24739170074463,25.299736857414246 91.24739170074463,25.299736857414246 91.04400873184204,25.70374310016632 91.04400873184204,25.70374310016632 90.8145010471344,26.091447472572327 90.8145010471344,26.091447472572327 90.34056067466736,26.742523908615112 90.34056067466736,26.742523908615112 89.7923469543457,27.329334616661072 89.7923469543457,27.329334616661072 89.17679190635681,27.84494161605835 89.17679190635681,27.84494161605835 88.50047588348389,28.282397985458374 88.50047588348389,28.282397985458374 87.77019381523132,28.63474190235138 87.77019381523132,28.63474190235138 86.99265718460083,28.895017504692078 86.99265718460083,28.895017504692078 86.1746609210968,29.056280851364136 86.1746609210968,29.056280851364136 85.32291054725647,29.111585021018982 85.32291054725647,29.111585021018982 84.55170392990112,29.066306352615356 84.55170392990112,29.066306352615356 83.80774855613708,28.93393039703369 83.80774855613708,28.93393039703369 83.09583067893982,28.71970534324646 83.09583067893982,28.71970534324646 82.4211061000824,28.428807854652405 82.4211061000824,28.428807854652405 81.78814053535461,28.06648313999176 81.78814053535461,28.06648313999176 81.20202422142029,27.637970447540283 81.20202422142029,27.637970447540283 80.66749572753906,27.148455381393433 80.66749572753906,27.148455381393433 80.1895260810852,26.603174209594727 80.1895260810852,26.603174209594727 79.88184094429016,26.175373792648315 79.88184094429016,26.175373792648315 79.60826754570007,25.72271227836609 79.60826754570007,25.72271227836609 79.37099933624268,25.247156620025635 79.37099933624268,25.247156620025635 79.17223572731018,24.75065141916275 79.17223572731018,24.75065141916275 79.01391983032227,24.23519343137741 79.01391983032227,24.23519343137741 78.89824509620667,23.702721297740936 78.89824509620667,23.702721297740936 78.82729172706604,23.155221343040466 78.82729172706604,23.155221343040466 78.8031280040741,22.594645619392395 78.8031280040741,22.594645619392395 78.93555760383606,21.280057728290558 78.93555760383606,21.280057728290558 79.31544780731201,20.055940747261047 79.31544780731201,20.055940747261047 79.9164891242981,18.948426842689514 79.9164891242981,18.948426842689514 80.71262836456299,17.983652651309967 80.71262836456299,17.983652651309967 81.67750239372253,17.187781631946564 81.67750239372253,17.187781631946564 82.78500437736511,16.586916148662567 82.78500437736511,16.586916148662567 84.00888442993164,16.207237541675568 84.00888442993164,16.207237541675568" stroke="white" stroke-width="0.1" /><polygon points="46.28002941608429,28.994077444076538 46.28002941608429,28.994077444076538 46.283701062202454,28.995099663734436 46.283701062202454,28.995099663734436 46.28743231296539,28.996047377586365 46.28743231296539,28.996047377586365 46.29128277301788,28.996920585632324 46.29128277301788,28.996920585632324 46.29518985748291,28.997749090194702 46.29518985748291,28.997749090194702 46.299099922180176,28.998517990112305 46.299099922180176,28.998517990112305 46.302950382232666,28.999274969100952 46.302950382232666,28.999274969100952 46.30674123764038,28.999999165534973 46.30674123764038,28.999999165534973 46.31035327911377,29.00071144104004 46.31035327911377,29.00071144104004 46.30893170833588,28.998342156410217 46.30893170833588,28.998342156410217 46.30745053291321,28.99620831012726 46.30745053291321,28.99620831012726 46.305909752845764,28.994256258010864 46.305909752845764,28.994256258010864 46.304312348365784,28.992417454719543 46.304312348365784,28.992417454719543 46.30253612995148,28.990671038627625 46.30253612995148,28.990671038627625 46.30064070224762,28.98898422718048 46.30064070224762,28.98898422718048 46.29850685596466,28.9872944355011 46.29850685596466,28.9872944355011 46.29613757133484,28.98554801940918 46.29613757133484,28.98554801940918 46.29436135292053,28.986376523971558 46.29436135292053,28.986376523971558 46.2924063205719,28.98741364479065 46.2924063205719,28.98741364479065 46.29045128822327,28.988569974899292 46.29045128822327,28.988569974899292 46.2884396314621,28.98981273174286 46.2884396314621,28.98981273174286 46.286365389823914,28.991055488586426 46.286365389823914,28.991055488586426 46.28429412841797,28.99221181869507 46.28429412841797,28.99221181869507 46.28216028213501,28.99324893951416 46.28216028213501,28.99324893951416" stroke="white" stroke-width="0.1" /><polygon points="100.0,18.344467878341675 100.0,18.344467878341675 100.0002384185791,18.413913249969482 100.0002384185791,18.413913249969482 99.99496340751648,18.622660636901855 99.99496340751648,18.622660636901855 99.9752402305603,18.971334397792816 99.9752402305603,18.971334397792816 99.93212223052979,19.46055442094803 99.93212223052979,19.46055442094803 99.85660910606384,20.090943574905396 99.85660910606384,20.090943574905396 99.73975419998169,20.86312472820282 99.73975419998169,20.86312472820282 99.57255125045776,21.777719259262085 99.57255125045776,21.777719259262085 99.34612512588501,22.835347056388855 99.34612512588501,22.835347056388855 98.96636009216309,23.822924494743347 98.96636009216309,23.822924494743347 98.39563965797424,24.552252888679504 98.39563965797424,24.552252888679504 97.7084219455719,25.062337517738342 97.7084219455719,25.062337517738342 96.97915315628052,25.392204523086548 96.97915315628052,25.392204523086548 96.28227949142456,25.580844283103943 96.28227949142456,25.580844283103943 95.69237232208252,25.667303800582886 95.69237232208252,25.667303800582886 95.28381824493408,25.690564513206482 95.28381824493408,25.690564513206482 95.13100981712341,25.68964660167694 95.13100981712341,25.68964660167694 95.11946439743042,25.69078803062439 95.11946439743042,25.69078803062439 95.08552551269531,25.69410502910614 95.08552551269531,25.69410502910614 95.03008723258972,25.69947838783264 95.03008723258972,25.69947838783264 94.95439529418945,25.70682168006897 94.95439529418945,25.70682168006897 94.85933184623718,25.71597397327423 94.85933184623718,25.71597397327423 94.74591612815857,25.72682797908783 94.74591612815857,25.72682797908783 94.61543560028076,25.73924958705902 94.61543560028076,25.73924958705902 94.46861147880554,25.753140449523926 94.46861147880554,25.753140449523926 94.59020495414734,25.37842094898224 94.59020495414734,25.37842094898224 94.69675421714783,24.997231364250183 94.69675421714783,24.997231364250183 94.78796720504761,24.609926342964172 94.78796720504761,24.609926342964172 94.86342072486877,24.216891825199127 94.86342072486877,24.216891825199127 94.92270946502686,23.818467557430267 94.92270946502686,23.818467557430267 94.9655294418335,23.415052890777588 94.9655294418335,23.415052890777588 94.99152898788452,23.006989061832428 94.99152898788452,23.006989061832428 95.0002372264862,22.594645619392395 95.0002372264862,22.594645619392395 94.80318427085876,20.64550817012787 94.80318427085876,20.64550817012787 94.23815608024597,18.82917284965515 94.23815608024597,18.82917284965515 93.34452748298645,17.184819281101227 93.34452748298645,17.184819281101227 92.1615719795227,15.75159877538681 92.1615719795227,15.75159877538681 90.72861671447754,14.56870436668396 90.72861671447754,14.56870436668396 89.08498883247375,13.675269484519958 89.08498883247375,13.675269484519958 87.26996183395386,13.110488653182983 87.26996183395386,13.110488653182983 85.32291054725647,12.913528084754944 85.32291054725647,12.913528084754944 83.37461352348328,13.110488653182983 83.37461352348328,13.110488653182983 81.55863285064697,13.675269484519958 81.55863285064697,13.675269484519958 79.91423606872559,14.56870436668396 79.91423606872559,14.56870436668396 78.48092913627625,15.75159877538681 78.48092913627625,15.75159877538681 77.29767560958862,17.184819281101227 77.29767560958862,17.184819281101227 76.40393376350403,18.82917284965515 76.40393376350403,18.82917284965515 75.83884000778198,20.64550817012787 75.83884000778198,20.64550817012787 75.64179301261902,22.594645619392395 75.64179301261902,22.594645619392395 75.65405368804932,23.08078706264496 75.65405368804932,23.08078706264496 75.69047808647156,23.56085628271103 75.69047808647156,23.56085628271103 75.75029730796814,24.034322798252106 75.75029730796814,24.034322798252106 75.83286166191101,24.500592052936554 75.83286166191101,24.500592052936554 75.93751549720764,24.959133565425873 75.93751549720764,24.959133565425873 76.0635495185852,25.409412384033203 76.0635495185852,25.409412384033203 76.21031999588013,25.85083544254303 76.21031999588013,25.85083544254303 76.37715935707092,26.282870769500732 76.37715935707092,26.282870769500732 75.5810797214508,26.220890879631042 75.5810797214508,26.220890879631042 74.76409673690796,26.15901231765747 74.76409673690796,26.15901231765747 73.93129467964172,26.09793245792389 73.93129467964172,26.09793245792389 73.08801412582397,26.038262248039246 73.08801412582397,26.038262248039246 72.23916053771973,25.980693101882935 72.23916053771973,25.980693101882935 71.39013409614563,25.925862789154053 71.39013409614563,25.925862789154053 70.54578065872192,25.874435901641846 70.54578065872192,25.874435901641846 69.71144080162048,25.827056169509888 69.71144080162048,25.827056169509888 69.86993551254272,25.58068335056305 69.86993551254272,25.58068335056305 70.0194239616394,25.323930382728577 70.0194239616394,25.323930382728577 70.15932202339172,25.05645751953125 70.15932202339172,25.05645751953125 70.28903365135193,24.77789670228958 70.28903365135193,24.77789670228958 70.40784358978271,24.48793202638626 70.40784358978271,24.48793202638626 70.51528096199036,24.18619692325592 70.51528096199036,24.18619692325592 70.61057686805725,23.872365057468414 70.61057686805725,23.872365057468414 70.6932008266449,23.54607880115509 70.6932008266449,23.54607880115509 70.9384024143219,22.402718663215637 70.9384024143219,22.402718663215637 71.12259864807129,21.399742364883423 71.12259864807129,21.399742364883423 71.25444412231445,20.536009967327118 71.25444412231445,20.536009967327118 71.3424563407898,19.810353219509125 71.3424563407898,19.810353219509125 71.395343542099,19.221659004688263 71.395343542099,19.221659004688263 71.42181992530823,18.768760561943054 71.42181992530823,18.768760561943054 71.43028974533081,18.450529873371124 71.43028974533081,18.450529873371124 71.42952084541321,18.26581358909607 71.42952084541321,18.26581358909607 71.39522433280945,17.879323661327362 71.39522433280945,17.879323661327362 71.31586074829102,17.50531494617462 71.31586074829102,17.50531494617462 71.19385004043579,17.147092521190643 71.19385004043579,17.147092521190643 71.03139162063599,16.807983815670013 71.03139162063599,16.807983815670013 70.8308458328247,16.49130880832672 70.8308458328247,16.49130880832672 70.59464454650879,16.20038151741028 70.59464454650879,16.20038151741028 70.32498121261597,15.938521921634674 70.32498121261597,15.938521921634674 70.02416253089905,15.709073841571808 70.02416253089905,15.709073841571808 70.1340913772583,14.882729947566986 70.1340913772583,14.882729947566986 70.20350694656372,14.724472165107727 70.20350694656372,14.724472165107727 70.26522159576416,14.562663435935974 70.26522159576416,14.562663435935974 70.319002866745,14.397653937339783 70.319002866745,14.397653937339783 70.36460638046265,14.229802787303925 70.36460638046265,14.229802787303925 70.40174007415771,14.059464633464813 70.40174007415771,14.059464633464813 70.43023109436035,13.886994123458862 70.43023109436035,13.886994123458862 70.44965624809265,13.712745904922485 70.44965624809265,13.712745904922485 70.46008110046387,13.537076115608215 70.46008110046387,13.537076115608215 70.4487681388855,13.118292391300201 70.4487681388855,13.118292391300201 70.38053870201111,12.668651342391968 70.38053870201111,12.668651342391968 70.24011015892029,12.197820097208023 70.24011015892029,12.197820097208023 70.01219987869263,11.715470254421234 70.01219987869263,11.715470254421234 69.68153119087219,11.231254786252975 69.68153119087219,11.231254786252975 69.23288106918335,10.754827409982681 69.23288106918335,10.754827409982681 68.65091323852539,10.295871645212173 68.65091323852539,10.295871645212173 67.9203987121582,9.864012897014618 67.9203987121582,9.864012897014618 67.64155626296997,9.721970558166504 67.64155626296997,9.721970558166504 67.33126044273376,9.56670492887497 67.33126044273376,9.56670492887497 66.98691248893738,9.399372339248657 66.98691248893738,9.399372339248657 66.60590171813965,9.221155941486359 66.60590171813965,9.221155941486359 66.18561744689941,9.033212065696716 66.18561744689941,9.033212065696716 65.72328805923462,8.836694806814194 65.72328805923462,8.836694806814194 65.21641612052917,8.632788807153702 65.21641612052917,8.632788807153702 64.66240286827087,8.422648906707764 64.66240286827087,8.422648906707764 65.3705894947052,8.447346836328506 65.3705894947052,8.447346836328506 66.11010432243347,8.47078561782837 66.11010432243347,8.47078561782837 66.88000559806824,8.492700010538101 66.88000559806824,8.492700010538101 67.67969727516174,8.512793481349945 67.67969727516174,8.512793481349945 68.50811243057251,8.530798554420471 68.50811243057251,8.530798554420471 69.36436891555786,8.54644924402237 69.36436891555786,8.54644924402237 70.24781107902527,8.559449762105942 70.24781107902527,8.559449762105942 71.1575448513031,8.569533377885818 71.1575448513031,8.569533377885818 71.15861177444458,8.47269594669342 71.15861177444458,8.47269594669342 71.16583585739136,8.217424899339676 71.16583585739136,8.217424899339676 71.18561863899231,7.856521010398865 71.18561863899231,7.856521010398865 71.22399806976318,7.442785799503326 71.22399806976318,7.442785799503326 71.28736972808838,7.029051333665848 71.28736972808838,7.029051333665848 71.38184309005737,6.668147444725037 71.38184309005737,6.668147444725037 71.51368260383606,6.412876397371292 71.51368260383606,6.412876397371292 71.68917059898376,6.316038966178894 71.68917059898376,6.316038966178894 71.8670904636383,6.300891190767288 71.8670904636383,6.300891190767288 72.00473546981812,6.260956823825836 72.00473546981812,6.260956823825836 72.10732102394104,6.204483658075333 72.10732102394104,6.204483658075333 72.17981815338135,6.139777228236198 72.17981815338135,6.139777228236198 72.22737669944763,6.0750562697649 72.22737669944763,6.0750562697649 72.25497364997864,6.018597632646561 72.25497364997864,6.018597632646561 72.26788401603699,5.978663265705109 72.26788401603699,5.978663265705109 72.27102518081665,5.963515862822533 72.27102518081665,5.963515862822533 72.24159240722656,5.900793522596359 72.24159240722656,5.900793522596359 72.14451432228088,5.726397782564163 72.14451432228088,5.726397782564163 71.96683287620544,5.461087450385094 71.96683287620544,5.461087450385094 71.69545292854309,5.125562846660614 71.69545292854309,5.125562846660614 71.31728529930115,4.7405533492565155 71.31728529930115,4.7405533492565155 70.81947326660156,4.326788708567619 70.81947326660156,4.326788708567619 70.18864154815674,3.904969245195389 70.18864154815674,3.904969245195389 69.41198706626892,3.495854139328003 69.41198706626892,3.495854139328003 68.59630346298218,3.11715230345726 68.59630346298218,3.11715230345726 67.82705783843994,2.7773188427090645 67.82705783843994,2.7773188427090645 67.05999970436096,2.482113242149353 67.05999970436096,2.482113242149353 66.25089049339294,2.2372661158442497 66.25089049339294,2.2372661158442497 65.35548567771912,2.0485296845436096 65.35548567771912,2.0485296845436096 64.32965993881226,1.9216269254684448 64.32965993881226,1.9216269254684448 63.12905550003052,1.8623104318976402 63.12905550003052,1.8623104318976402 61.70954704284668,1.8763326108455658 61.70954704284668,1.8763326108455658 60.312843322753906,1.9585998728871346 60.312843322753906,1.9585998728871346 59.20102000236511,2.1092750132083893 59.20102000236511,2.1092750132083893 58.3541214466095,2.3440832272171974 58.3541214466095,2.3440832272171974 57.75219202041626,2.6787491515278816 57.75219202041626,2.6787491515278816 57.37520456314087,3.1289979815483093 57.37520456314087,3.1289979815483093 57.20314979553223,3.710554540157318 57.20314979553223,3.710554540157318 57.216060161590576,4.439143463969231 57.216060161590576,4.439143463969231 57.39398002624512,5.330490320920944 57.39398002624512,5.330490320920944 57.4417769908905,5.5118899792432785 57.4417769908905,5.5118899792432785 57.48791694641113,5.685190111398697 57.48791694641113,5.685190111398697 57.53234028816223,5.850568413734436 57.53234028816223,5.850568413734436 57.57521986961365,6.0081735253334045 57.57521986961365,6.0081735253334045 57.61656165122986,6.158196926116943 57.61656165122986,6.158196926116943 57.65647888183594,6.300772726535797 57.65647888183594,6.300772726535797 57.69509673118591,6.4360931515693665 57.69509673118591,6.4360931515693665 57.73229002952576,6.564321368932724 57.73229002952576,6.564321368932724 57.29394555091858,6.4790330827236176 57.29394555091858,6.4790330827236176 56.8612277507782,6.396617740392685 56.8612277507782,6.396617740392685 56.434375047683716,6.31709024310112 56.434375047683716,6.31709024310112 56.01373910903931,6.240464374423027 56.01373910903931,6.240464374423027 55.59967756271362,6.166770309209824 55.59967756271362,6.166770309209824 55.19260764122009,6.096037849783897 55.19260764122009,6.096037849783897 54.79264259338379,6.028281152248383 54.79264259338379,6.028281152248383 54.400378465652466,5.963515862822533 54.400378465652466,5.963515862822533 54.34499979019165,5.525512248277664 54.34499979019165,5.525512248277664 54.24377918243408,5.061256140470505 54.24377918243408,5.061256140470505 54.11016345024109,4.59168441593647 54.11016345024109,4.59168441593647 53.95723581314087,4.1377633810043335 53.95723581314087,4.1377633810043335 53.79838943481445,3.720386326313019 53.79838943481445,3.720386326313019 53.64706516265869,3.360503911972046 53.64706516265869,3.360503911972046 53.51628661155701,3.079039417207241 53.51628661155701,3.079039417207241 53.41956615447998,2.896943874657154 53.41956615447998,2.896943874657154 53.218549489974976,2.809390611946583 53.218549489974976,2.809390611946583 52.80312895774841,2.810915745794773 52.80312895774841,2.810915745794773 52.218371629714966,2.894841320812702 52.218371629714966,2.894841320812702 51.50923728942871,3.054489381611347 51.50923728942871,3.054489381611347 50.72073936462402,3.2831676304340363 50.72073936462402,3.2831676304340363 49.89789128303528,3.574182838201523 49.89789128303528,3.574182838201523 49.08558428287506,3.920856863260269 49.08558428287506,3.920856863260269 48.32883179187775,4.316512495279312 48.32883179187775,4.316512495279312 48.17069470882416,4.1848789900541306 48.17069470882416,4.1848789900541306 48.007699847221375,4.050195589661598 48.007699847221375,4.050195589661598 47.8398472070694,3.912624344229698 47.8398472070694,3.912624344229698 47.667139768600464,3.772328794002533 47.667139768600464,3.772328794002533 47.48981297016144,3.6294568330049515 47.48981297016144,3.6294568330049515 47.30774760246277,3.4841567277908325 47.30774760246277,3.4841567277908325 47.121238708496094,3.336590901017189 47.121238708496094,3.336590901017189 46.930110454559326,3.1869225203990936 46.930110454559326,3.1869225203990936 48.95072281360626,2.302001975476742 48.95072281360626,2.302001975476742 51.14510655403137,1.5625592321157455 51.14510655403137,1.5625592321157455 53.47020626068115,0.9674247354269028 53.47020626068115,0.9674247354269028 55.8829665184021,0.5153991747647524 55.8829665184021,0.5153991747647524 58.34038257598877,0.2052979078143835 58.34038257598877,0.2052979078143835 60.799336433410645,0.035936388303525746 60.799336433410645,0.035936388303525746 63.21665644645691,0.006122660852270201 63.21665644645691,0.006122660852270201 65.5493974685669,0.11466477299109101 65.5493974685669,0.11466477299109101 67.91364550590515,0.602641561999917 67.91364550590515,0.602641561999917 70.34968137741089,1.5943201258778572 70.34968137741089,1.5943201258778572 72.73821234703064,2.9144011437892914 72.73821234703064,2.9144011437892914 74.95996356010437,4.387585818767548 74.95996356010437,4.387585818767548 76.89564228057861,5.838560312986374 76.89564228057861,5.838560312986374 78.42596769332886,7.0920102298259735 78.42596769332886,7.0920102298259735 79.43171262741089,7.972636818885803 79.43171262741089,7.972636818885803 79.79341149330139,8.30514132976532 79.79341149330139,8.30514132976532 79.99247908592224,8.325367420911789 79.99247908592224,8.325367420911789 80.56159615516663,8.387689292430878 80.56159615516663,8.387689292430878 81.45859837532043,8.494580537080765 81.45859837532043,8.494580537080765 82.64143466949463,8.648543059825897 82.64143466949463,8.648543059825897 84.06805396080017,8.852019906044006 84.06805396080017,8.852019906044006 85.69622039794922,9.10751298069954 85.69622039794922,9.10751298069954 87.48400807380676,9.41748097538948 87.48400807380676,9.41748097538948 89.38924670219421,9.784411638975143 89.38924670219421,9.784411638975143 91.20563864707947,10.184760391712189 91.20563864707947,10.184760391712189 92.77256727218628,10.588056594133377 92.77256727218628,10.588056594133377 94.11294460296631,10.987517982721329 94.11294460296631,10.987517982721329 95.2498197555542,11.376332491636276 95.2498197555542,11.376332491636276 96.20605111122131,11.747690290212631 96.20605111122131,11.747690290212631 97.00479507446289,12.094779312610626 97.00479507446289,12.094779312610626 97.66885638237,12.410788238048553 97.66885638237,12.410788238048553 98.22127223014832,12.688936293125153 98.22127223014832,12.688936293125153 98.63266944885254,12.930022180080414 98.63266944885254,12.930022180080414 98.88308644294739,13.136978447437286 98.88308644294739,13.136978447437286 99.00509119033813,13.310426473617554 99.00509119033813,13.310426473617554 99.03162717819214,13.450959324836731 99.03162717819214,13.450959324836731 98.99532198905945,13.559198379516602 98.99532198905945,13.559198379516602 98.92880916595459,13.635765016078949 98.92880916595459,13.635765016078949 98.86478185653687,13.681250810623169 98.86478185653687,13.681250810623169 98.8362967967987,13.696280121803284 98.8362967967987,13.696280121803284 98.29140305519104,17.764510214328766 98.29140305519104,17.764510214328766" stroke="white" stroke-width="0.1" /><polygon points="15.743188560009003,16.074863076210022 15.743188560009003,16.074863076210022 17.05816090106964,16.207237541675568 17.05816090106964,16.207237541675568 18.28257590532303,16.586916148662567 18.28257590532303,16.586916148662567 19.390428066253662,17.187781631946564 19.390428066253662,17.187781631946564 20.355483889579773,17.983652651309967 20.355483889579773,17.983652651309967 21.15156352519989,18.94841343164444 21.15156352519989,18.94841343164444 21.75266593694687,20.055940747261047 21.75266593694687,20.055940747261047 22.132492065429688,21.280057728290558 22.132492065429688,21.280057728290558 22.264866530895233,22.594645619392395 22.264866530895233,22.594645619392395 22.247926890850067,23.06322604417801 22.247926890850067,23.06322604417801 22.197939455509186,23.52295070886612 22.197939455509186,23.52295070886612 22.116322815418243,23.972681164741516 22.116322815418243,23.972681164741516 22.00414538383484,24.41127747297287 22.00414538383484,24.41127747297287 21.862828731536865,24.83762800693512 21.862828731536865,24.83762800693512 21.693556010723114,25.25056302547455 21.693556010723114,25.25056302547455 21.497690677642822,25.648987293243408 21.497690677642822,25.648987293243408 21.276475489139557,26.031747460365295 21.276475489139557,26.031747460365295 20.80342322587967,26.694902777671814 20.80342322587967,26.694902777671814 20.253968238830566,27.292954921722412 20.253968238830566,27.292954921722412 19.635039567947388,27.818703651428223 19.635039567947388,27.818703651428223 18.953683972358704,28.264984488487244 18.953683972358704,28.264984488487244 18.216773867607117,28.624600172042847 18.216773867607117,28.624600172042847 17.43147373199463,28.890353441238403 17.43147373199463,28.890353441238403 16.604536771774292,29.05508279800415 16.604536771774292,29.05508279800415 15.743188560009003,29.111585021018982 15.743188560009003,29.111585021018982 14.788320660591125,29.04178500175476 14.788320660591125,29.04178500175476 13.876806199550629,28.839018940925598 13.876806199550629,28.839018940925598 13.0183607339859,28.51329743862152 13.0183607339859,28.51329743862152 12.222814559936523,28.074628114700317 12.222814559936523,28.074628114700317 11.49982213973999,27.532988786697388 11.49982213973999,27.532988786697388 10.85897907614708,26.89836621284485 10.85897907614708,26.89836621284485 10.310234874486923,26.18076205253601 10.310234874486923,26.18076205253601 9.863065928220749,25.39019286632538 9.863065928220749,25.39019286632538 9.720030426979065,25.067609548568726 9.720030426979065,25.067609548568726 9.593461453914642,24.736303091049194 9.593461453914642,24.736303091049194 9.484245628118515,24.39679652452469 9.484245628118515,24.39679652452469 9.393153339624405,24.049632251262665 9.393153339624405,24.049632251262665 9.320836514234543,23.69530349969864 9.320836514234543,23.69530349969864 9.268300980329514,23.334355652332306 9.268300980329514,23.334355652332306 9.236200153827667,22.9672908782959 9.236200153827667,22.9672908782959 9.225302189588547,22.594645619392395 9.225302189588547,22.594645619392395 9.357675909996033,21.280057728290558 9.357675909996033,21.280057728290558 9.737325459718704,20.055940747261047 9.737325459718704,20.055940747261047 10.33807173371315,18.948426842689514 10.33807173371315,18.948426842689514 11.13385483622551,17.983652651309967 11.13385483622551,17.983652651309967 12.098436057567596,17.187781631946564 12.098436057567596,17.187781631946564 13.205638527870178,16.586916148662567 13.205638527870178,16.586916148662567 14.429223537445068,16.207237541675568 14.429223537445068,16.207237541675568" stroke="white" stroke-width="0.1" /><polygon points="54.723525047302246,16.18194729089737 54.723525047302246,16.18194729089737 55.830490589141846,16.48116558790207 55.830490589141846,16.48116558790207 56.85039162635803,16.960717737674713 56.85039162635803,16.960717737674713 57.76457190513611,17.60219782590866 57.76457190513611,17.60219782590866 58.5543692111969,18.38723123073578 58.5543692111969,18.38723123073578 59.20113921165466,19.29738223552704 59.20113921165466,19.29738223552704 59.68621373176575,20.314276218414307 59.68621373176575,20.314276218414307 59.990936517715454,21.419495344161987 59.990936517715454,21.419495344161987 60.096657276153564,22.594645619392395 60.096657276153564,22.594645619392395 60.08262038230896,23.021884262561798 60.08262038230896,23.021884262561798 60.041046142578125,23.441675305366516 60.041046142578125,23.441675305366516 59.97287631034851,23.853233456611633 59.97287631034851,23.853233456611633 59.8791778087616,24.255745112895966 59.8791778087616,24.255745112895966 59.760719537734985,24.648454785346985 59.760719537734985,24.648454785346985 59.61851477622986,25.030547380447388 59.61851477622986,25.030547380447388 59.45344567298889,25.401252508163452 59.45344567298889,25.401252508163452 59.26652550697327,25.759771466255188 59.26652550697327,25.759771466255188 59.2434823513031,25.80142319202423 59.2434823513031,25.80142319202423 59.21997427940369,25.84317922592163 59.21997427940369,25.84317922592163 59.19604301452637,25.884950160980225 59.19604301452637,25.884950160980225 59.17152166366577,25.926676392555237 59.17152166366577,25.926676392555237 59.146589040756226,25.96825361251831 59.146589040756226,25.96825361251831 59.12129878997803,26.009640097618103 59.12129878997803,26.009640097618103 59.095531702041626,26.05072855949402 59.095531702041626,26.05072855949402 59.06941294670105,26.091447472572327 59.06941294670105,26.091447472572327 58.59506130218506,26.742523908615112 58.59506130218506,26.742523908615112 58.04649591445923,27.329334616661072 58.04649591445923,27.329334616661072 57.430464029312134,27.84494161605835 57.430464029312134,27.84494161605835 56.75384998321533,28.282397985458374 56.75384998321533,28.282397985458374 56.02339506149292,28.63474190235138 56.02339506149292,28.63474190235138 55.24585247039795,28.895017504692078 55.24585247039795,28.895017504692078 54.4281005859375,29.056280851364136 54.4281005859375,29.056280851364136 53.57687473297119,29.111585021018982 53.57687473297119,29.111585021018982 53.167080879211426,29.0985107421875 53.167080879211426,29.0985107421875 52.76409387588501,29.0599524974823 52.76409387588501,29.0599524974823 52.368634939193726,28.996890783309937 52.368634939193726,28.996890783309937 51.981520652770996,28.910329937934875 51.981520652770996,28.910329937934875 51.6034722328186,28.80123257637024 51.6034722328186,28.80123257637024 51.23525261878967,28.670620918273926 51.23525261878967,28.670620918273926 50.87751746177673,28.519457578659058 50.87751746177673,28.519457578659058 50.53115487098694,28.348731994628906 50.53115487098694,28.348731994628906 50.23193359375,28.17811369895935 50.23193359375,28.17811369895935 49.94243085384369,27.99336612224579 49.94243085384369,27.99336612224579 49.663230776786804,27.794775366783142 49.663230776786804,27.794775366783142 49.39504861831665,27.58256196975708 49.39504861831665,27.58256196975708 49.13841485977173,27.35702395439148 49.13841485977173,27.35702395439148 48.89410138130188,27.11845636367798 48.89410138130188,27.11845636367798 48.662519454956055,26.8670916557312 48.662519454956055,26.8670916557312 48.44444394111633,26.603174209594727 48.44444394111633,26.603174209594727 48.13646078109741,26.175373792648315 48.13646078109741,26.175373792648315 47.86265194416046,25.72271227836609 47.86265194416046,25.72271227836609 47.62526750564575,25.247156620025635 47.62526750564575,25.247156620025635 47.42632210254669,24.75065141916275 47.42632210254669,24.75065141916275 47.267886996269226,24.23519343137741 47.267886996269226,24.23519343137741 47.152215242385864,23.702721297740936 47.152215242385864,23.702721297740936 47.081258893013,23.155221343040466 47.081258893013,23.155221343040466 47.05709517002106,22.594645619392395 47.05709517002106,22.594645619392395 47.12177217006683,21.673329174518585 47.12177217006683,21.673329174518585 47.3097026348114,20.792140066623688 47.3097026348114,20.792140066623688 47.61223495006561,19.95968073606491 47.61223495006561,19.95968073606491 48.02049398422241,19.184553623199463 48.02049398422241,19.184553623199463 48.525646328926086,18.475346267223358 48.525646328926086,18.475346267223358 49.1188108921051,17.84064769744873 49.1188108921051,17.84064769744873 49.791163206100464,17.289060354232788 49.791163206100464,17.289060354232788 50.533998012542725,16.82918667793274 50.533998012542725,16.82918667793274 50.88006258010864,16.659100353717804 50.88006258010864,16.659100353717804 51.23750567436218,16.509032249450684 51.23750567436218,16.509032249450684 51.60548686981201,16.37979745864868 51.60548686981201,16.37979745864868 51.9832968711853,16.2722110748291 51.9832968711853,16.2722110748291 52.37017273902893,16.187100112438202 52.37017273902893,16.187100112438202 52.76516079902649,16.1252960562706 52.76516079902649,16.1252960562706 53.16773056983948,16.087597608566284 53.16773056983948,16.087597608566284 53.57687473297119,16.074863076210022 53.57687473297119,16.074863076210022 53.722935914993286,16.076788306236267 53.722935914993286,16.076788306236267 53.8682758808136,16.08240008354187 53.8682758808136,16.08240008354187 54.01279330253601,16.09150618314743 54.01279330253601,16.09150618314743 54.15659546852112,16.10388606786728 54.15659546852112,16.10388606786728 54.2996346950531,16.119329631328583 54.2996346950531,16.119329631328583 54.44177985191345,16.137629747390747 54.44177985191345,16.137629747390747 54.583096504211426,16.158582270145416 54.583096504211426,16.158582270145416" stroke="white" stroke-width="0.1" /><polygon points="66.54821038246155,17.764510214328766 66.54821038246155,17.764510214328766 68.25207471847534,18.344467878341675 68.25207471847534,18.344467878341675 68.25230717658997,18.413913249969482 68.25230717658997,18.413913249969482 68.2470977306366,18.622660636901855 68.2470977306366,18.622660636901855 68.2274341583252,18.971334397792816 68.2274341583252,18.971334397792816 68.18443536758423,19.46055442094803 68.18443536758423,19.46055442094803 68.10909509658813,20.090943574905396 68.10909509658813,20.090943574905396 67.99265742301941,20.86312472820282 67.99265742301941,20.86312472820282 67.82593131065369,21.777719259262085 67.82593131065369,21.777719259262085 67.60009527206421,22.835347056388855 67.60009527206421,22.835347056388855 67.34281182289124,23.58836829662323 67.34281182289124,23.58836829662323 66.97145104408264,24.196118116378784 66.97145104408264,24.196118116378784 66.51575565338135,24.67406988143921 66.51575565338135,24.67406988143921 66.00521206855774,25.03778636455536 66.00521206855774,25.03778636455536 65.46949744224548,25.302740931510925 65.46949744224548,25.302740931510925 64.93805050849915,25.484466552734375 64.93805050849915,25.484466552734375 64.44065570831299,25.598466396331787 64.44065570831299,25.598466396331787 64.00663256645203,25.66027045249939 64.00663256645203,25.66027045249939 63.91921639442444,25.668606162071228 63.91921639442444,25.668606162071228 63.83712291717529,25.675255060195923 63.83712291717529,25.675255060195923 63.760483264923096,25.68039298057556 63.760483264923096,25.68039298057556 63.689881563186646,25.68419873714447 63.689881563186646,25.68419873714447 63.62556219100952,25.686848163604736 63.62556219100952,25.686848163604736 63.5678768157959,25.688523054122925 63.5678768157959,25.688523054122925 63.5172963142395,25.689396262168884 63.5172963142395,25.689396262168884 63.474059104919434,25.68964660167694 63.474059104919434,25.68964660167694 63.38497996330261,25.68964660167694 63.38497996330261,25.68964660167694 63.37348818778992,25.69078803062439 63.37348818778992,25.69078803062439 63.33954930305481,25.69410502910614 63.33954930305481,25.69410502910614 63.28423619270325,25.69947838783264 63.28423619270325,25.69947838783264 63.208478689193726,25.70682168006897 63.208478689193726,25.70682168006897 63.11330199241638,25.71597397327423 63.11330199241638,25.71597397327423 62.99964189529419,25.72682797908783 62.99964189529419,25.72682797908783 62.86839842796326,25.73924958705902 62.86839842796326,25.73924958705902 62.720680236816406,25.753140449523926 62.720680236816406,25.753140449523926 62.724411487579346,25.74225664138794 62.724411487579346,25.74225664138794 62.72779107093811,25.73159635066986 62.72779107093811,25.73159635066986 62.73098587989807,25.721141695976257 62.73098587989807,25.721141695976257 62.73406744003296,25.710850954055786 62.73406744003296,25.710850954055786 62.7372682094574,25.70069432258606 62.7372682094574,25.70069432258606 62.740522623062134,25.69063901901245 62.740522623062134,25.69063901901245 62.7441942691803,25.680643320083618 62.7441942691803,25.680643320083618 62.74816393852234,25.670695304870605 62.74816393852234,25.670695304870605 62.86354064941406,25.304076075553894 62.86354064941406,25.304076075553894 62.96494007110596,24.93206560611725 62.96494007110596,24.93206560611725 63.051825761795044,24.554815888404846 63.051825761795044,24.554815888404846 63.123905658721924,24.172471463680267 63.123905658721924,24.172471463680267 63.180702924728394,23.785151541233063 63.180702924728394,23.785151541233063 63.22186589241028,23.392975330352783 63.22186589241028,23.392975330352783 63.246744871139526,22.996090352535248 63.246744871139526,22.996090352535248 63.255155086517334,22.594645619392395 63.255155086517334,22.594645619392395 63.05816173553467,20.64550817012787 63.05816173553467,20.64550817012787 62.49324679374695,18.82917284965515 62.49324679374695,18.82917284965515 61.59961819648743,17.184819281101227 61.59961819648743,17.184819281101227 60.416728258132935,15.75159877538681 60.416728258132935,15.75159877538681 58.98371338844299,14.56870436668396 58.98371338844299,14.56870436668396 57.33984708786011,13.675269484519958 57.33984708786011,13.675269484519958 55.52458167076111,13.110488653182983 55.52458167076111,13.110488653182983 53.57687473297119,12.913528084754944 53.57687473297119,12.913528084754944 53.18058729171753,12.921878695487976 53.18058729171753,12.921878695487976 52.78855562210083,12.946665287017822 52.78855562210083,12.946665287017822 52.400970458984375,12.98738420009613 52.400970458984375,12.98738420009613 52.01800465583801,13.043591380119324 52.01800465583801,13.043591380119324 51.63983702659607,13.114812970161438 51.63983702659607,13.114812970161438 51.266640424728394,13.200575113296509 51.266640424728394,13.200575113296509 50.89859962463379,13.30043226480484 50.89859962463379,13.30043226480484 50.53589344024658,13.4138822555542 50.53589344024658,13.4138822555542 49.931830167770386,13.636089861392975 49.931830167770386,13.636089861392975 49.347904324531555,13.896603882312775 49.347904324531555,13.896603882312775 48.78559708595276,14.193911850452423 48.78559708595276,14.193911850452423 48.246267437934875,14.526534080505371 48.246267437934875,14.526534080505371 47.73116707801819,14.892946183681488 47.73116707801819,14.892946183681488 47.241827845573425,15.2916818857193 47.241827845573425,15.2916818857193 46.779435873031616,15.721215307712555 46.779435873031616,15.721215307712555 46.34541571140289,16.180051863193512 46.34541571140289,16.180051863193512 45.80431282520294,16.84580147266388 45.80431282520294,16.84580147266388 45.32231688499451,17.55773276090622 45.32231688499451,17.55773276090622 44.90346014499664,18.312203884124756 44.90346014499664,18.312203884124756 44.55176591873169,19.105543196201324 44.55176591873169,19.105543196201324 44.27120387554169,19.93410885334015 44.27120387554169,19.93410885334015 44.06585991382599,20.794257521629333 44.06585991382599,20.794257521629333 43.9396470785141,21.682317554950714 43.9396470785141,21.682317554950714 43.89670789241791,22.594645619392395 43.89670789241791,22.594645619392395 43.90890896320343,23.08078706264496 43.90890896320343,23.08078706264496 43.945154547691345,23.56085628271103 43.945154547691345,23.56085628271103 44.004619121551514,24.034322798252106 44.004619121551514,24.034322798252106 44.08694505691528,24.500592052936554 44.08694505691528,24.500592052936554 44.19142305850983,24.959133565425873 44.19142305850983,24.959133565425873 44.317224621772766,25.409412384033203 44.317224621772766,25.409412384033203 44.46410834789276,25.85083544254303 44.46410834789276,25.85083544254303 44.63112950325012,26.282870769500732 44.63112950325012,26.282870769500732 44.31414306163788,26.257964968681335 44.31414306163788,26.257964968681335 43.993011116981506,26.233017444610596 43.993011116981506,26.233017444610596 43.66808831691742,26.208096742630005 43.66808831691742,26.208096742630005 43.33972930908203,26.183250546455383 43.33972930908203,26.183250546455383 43.008291721343994,26.158538460731506 43.008291721343994,26.158538460731506 42.67401099205017,26.13401710987091 42.67401099205017,26.13401710987091 42.337360978126526,26.10974907875061 42.337360978126526,26.10974907875061 41.99857711791992,26.085761189460754 41.99857711791992,26.085761189460754 41.05768799781799,26.01938247680664 41.05768799781799,26.01938247680664 40.11205732822418,25.95590353012085 40.11205732822418,25.95590353012085 39.16885852813721,25.89629292488098 39.16885852813721,25.89629292488098 38.23536932468414,25.84150731563568 38.23536932468414,25.84150731563568 37.318941950798035,25.792494416236877 37.318941950798035,25.792494416236877 36.42667531967163,25.750207901000977 36.42667531967163,25.750207901000977 35.56615710258484,25.715619325637817 35.56615710258484,25.715619325637817 34.744372963905334,25.68964660167694 34.744372963905334,25.68964660167694 34.46067273616791,25.682392716407776 34.46067273616791,25.682392716407776 34.17483866214752,25.676262378692627 34.17483866214752,25.676262378692627 33.88705253601074,25.671198964118958 33.88705253601074,25.671198964118958 33.59760642051697,25.667139887809753 33.59760642051697,25.667139887809753 33.30662250518799,25.664061307907104 33.30662250518799,25.664061307907104 33.014512062072754,25.661927461624146 33.014512062072754,25.661927461624146 32.72133469581604,25.660669803619385 32.72133469581604,25.660669803619385 32.427385449409485,25.66027045249939 32.427385449409485,25.66027045249939 31.398779153823853,25.665155053138733 31.398779153823853,25.665155053138733 30.37414252758026,25.678956508636475 30.37414252758026,25.678956508636475 29.363185167312622,25.7003515958786 29.363185167312622,25.7003515958786 28.375384211540222,25.728026032447815 28.375384211540222,25.728026032447815 27.420517802238464,25.760674476623535 27.420517802238464,25.760674476623535 26.50829255580902,25.796997547149658 26.50829255580902,25.796997547149658 25.648248195648193,25.83567202091217 25.648248195648193,25.83567202091217 24.850036203861237,25.875383615493774 24.850036203861237,25.875383615493774 24.981284141540527,25.48624575138092 24.981284141540527,25.48624575138092 25.0963032245636,25.09024739265442 25.0963032245636,25.09024739265442 25.19468069076538,24.687840044498444 25.19468069076538,24.687840044498444 25.276002287864685,24.279436469078064 25.276002287864685,24.279436469078064 25.33990740776062,23.86549413204193 25.33990740776062,23.86549413204193 25.38604736328125,23.44641387462616 25.38604736328125,23.44641387462616 25.414001941680908,23.02265465259552 25.414001941680908,23.02265465259552 25.423359870910645,22.594645619392395 25.423359870910645,22.594645619392395 25.226309895515442,20.645418763160706 25.226309895515442,20.645418763160706 24.661336839199066,18.828876316547394 24.661336839199066,18.828876316547394 23.76776784658432,17.184212803840637 23.76776784658432,17.184212803840637 22.584696114063263,15.750651061534882 22.584696114063263,15.750651061534882 21.15144580602646,14.567400515079498 21.15144580602646,14.567400515079498 19.50734406709671,13.673670589923859 19.50734406709671,13.673670589923859 17.691482603549957,13.108682632446289 17.691482603549957,13.108682632446289 15.743188560009003,12.911632657051086 15.743188560009003,12.911632657051086 13.796079158782959,13.108682632446289 13.796079158782959,13.108682632446289 11.980928480625153,13.673670589923859 11.980928480625153,13.673670589923859 10.337182879447937,14.567400515079498 10.337182879447937,14.567400515079498 8.904051035642624,15.750651061534882 8.904051035642624,15.750651061534882 7.720918953418732,17.18422770500183 7.720918953418732,17.18422770500183 6.827114522457123,18.828876316547394 6.827114522457123,18.828876316547394 6.262082606554031,20.645418763160706 6.262082606554031,20.645418763160706 6.064913421869278,22.594645619392395 6.064913421869278,22.594645619392395 6.065861135721207,22.71624058485031 6.065861135721207,22.71624058485031 6.068467348814011,22.837893664836884 6.068467348814011,22.837893664836884 6.072850152850151,22.959458827972412 6.072850152850151,22.959458827972412 6.078772619366646,23.08078706264496 6.078772619366646,23.08078706264496 6.0861170291900635,23.201759159564972 6.0861170291900635,23.201759159564972 6.09494186937809,23.32225739955902 6.09494186937809,23.32225739955902 6.104892119765282,23.442134261131287 6.104892119765282,23.442134261131287 6.11608624458313,23.56124073266983 6.11608624458313,23.56124073266983 5.357439070940018,23.172204196453094 5.357439070940018,23.172204196453094 4.60033155977726,22.788245975971222 4.60033155977726,22.788245975971222 3.867211565375328,22.422130405902863 3.867211565375328,22.422130405902863 3.1805258244276047,22.08659052848816 3.1805258244276047,22.08659052848816 2.5627221912145615,21.794360876083374 2.5627221912145615,21.794360876083374 2.036069706082344,21.55817598104477 2.036069706082344,21.55817598104477 1.6233120113611221,21.39078378677368 1.6233120113611221,21.39078378677368 1.3466003350913525,21.30490392446518 1.3466003350913525,21.30490392446518 1.0002369061112404,21.073530614376068 1.0002369061112404,21.073530614376068 0.7184316404163837,20.58180868625641 0.7184316404163837,20.58180868625641 0.4945510532706976,19.89670693874359 0.4945510532706976,19.89670693874359 0.32148780301213264,19.085168838500977 0.32148780301213264,19.085168838500977 0.19266761373728514,18.21415275335312 0.19266761373728514,18.21415275335312 0.10116086341440678,17.350612580776215 0.10116086341440678,17.350612580776215 0.040156362229026854,16.561508178710938 0.040156362229026854,16.561508178710938 0.002842928188329097,15.913765132427216 0.002842928188329097,15.913765132427216 0.03458895953372121,15.402540564537048 0.03458895953372121,15.402540564537048 0.16340914880856872,14.970311522483826 0.16340914880856872,14.970311522483826 0.3608742030337453,14.607276022434235 0.3608742030337453,14.607276022434235 0.5986732896417379,14.303600788116455 0.5986732896417379,14.303600788116455 0.8482587523758411,14.049455523490906 0.8482587523758411,14.049455523490906 1.081141922622919,13.835006952285767 1.081141922622919,13.835006952285767 1.269130501896143,13.650423288345337 1.269130501896143,13.650423288345337 1.3835583813488483,13.485904037952423 1.3835583813488483,13.485904037952423 1.4453920535743237,13.30057978630066 1.4453920535743237,13.30057978630066 1.498341653496027,13.059183955192566 1.498341653496027,13.059183955192566 1.5471451915800571,12.754812836647034 1.5471451915800571,12.754812836647034 1.5964226797223091,12.380596995353699 1.5964226797223091,12.380596995353699 1.6509121283888817,11.929666996002197 1.6509121283888817,11.929666996002197 1.7152925953269005,11.395151913166046 1.7152925953269005,11.395151913166046 1.7941838130354881,10.770166665315628 1.7941838130354881,10.770166665315628 1.8924426287412643,10.047855973243713 1.8924426287412643,10.047855973243713 2.0272446796298027,9.317830204963684 2.0272446796298027,9.317830204963684 2.2022033110260963,8.674988150596619 2.2022033110260963,8.674988150596619 2.3994313552975655,8.122453093528748 2.3994313552975655,8.122453093528748 2.60104238986969,7.663349807262421 2.60104238986969,7.663349807262421 2.789030969142914,7.300817221403122 2.789030969142914,7.300817221403122 2.9454512521624565,7.0379942655563354 2.9454512521624565,7.0379942655563354 3.0524756759405136,6.878005713224411 3.0524756759405136,6.878005713224411 3.0921582132577896,6.823975592851639 3.0921582132577896,6.823975592851639 8.904998749494553,6.403221935033798 8.904998749494553,6.403221935033798 8.960317820310593,6.373237818479538 8.960317820310593,6.373237818479538 9.149845689535141,6.272106617689133 9.149845689535141,6.272106617689133 9.509002417325974,6.083037331700325 9.509002417325974,6.083037331700325 10.072968155145645,5.7892680168151855 10.072968155145645,5.7892680168151855 10.877161473035812,5.373993143439293 10.877161473035812,5.373993143439293 11.957000941038132,4.820466041564941 11.957000941038132,4.820466041564941 13.347665965557098,4.11188118159771 13.347665965557098,4.11188118159771 15.084576606750488,3.2314617186784744 15.084576606750488,3.2314617186784744 16.77227020263672,2.4682391434907913 16.77227020263672,2.4682391434907913 18.59055906534195,1.8091833218932152 18.59055906534195,1.8091833218932152 20.513325929641724,1.2535684742033482 20.513325929641724,1.2535684742033482 22.514569759368896,0.800639670342207 22.514569759368896,0.800639670342207 24.568229913711548,0.44965646229684353 24.568229913711548,0.44965646229684353 26.648247241973877,0.19987858831882477 26.648247241973877,0.19987858831882477 28.72861921787262,0.050565623678267 28.72861921787262,0.050565623678267 30.7832270860672,0.0009476427294430323 30.7832270860672,0.0009476427294430323 31.1691552400589,0.0026874555260292254 31.1691552400589,0.0026874555260292254 31.55294954776764,0.00792170103522949 31.55294954776764,0.00792170103522949 31.934374570846558,0.016687395691405982 31.934374570846558,0.016687395691405982 32.31331408023834,0.02902155974879861 32.31331408023834,0.02902155974879861 32.689645886421204,0.04495380271691829 32.689645886421204,0.04495380271691829 33.06325376033783,0.06451373919844627 33.06325376033783,0.06451373919844627 33.43390226364136,0.08773839217610657 33.43390226364136,0.08773839217610657 33.80146920681,0.11466477299109101 33.80146920681,0.11466477299109101 35.047975182533264,0.30212034471333027 35.047975182533264,0.30212034471333027 36.33031249046326,0.6562277674674988 36.33031249046326,0.6562277674674988 37.630537152290344,1.150327268987894 37.630537152290344,1.150327268987894 38.930585980415344,1.7577588558197021 38.930585980415344,1.7577588558197021 40.21233022212982,2.451847866177559 40.21233022212982,2.451847866177559 41.4576530456543,3.205949440598488 41.4576530456543,3.205949440598488 42.64854192733765,3.9933811873197556 42.64854192733765,3.9933811873197556 43.76688003540039,4.787491261959076 43.76688003540039,4.787491261959076 44.67104971408844,5.467010289430618 44.67104971408844,5.467010289430618 45.49407660961151,6.113509833812714 45.49407660961151,6.113509833812714 46.22388184070587,6.709221750497818 46.22388184070587,6.709221750497818 46.84825837612152,7.236436754465103 46.84825837612152,7.236436754465103 47.355011105537415,7.677386701107025 47.355011105537415,7.677386701107025 47.73211181163788,8.01430344581604 47.73211181163788,8.01430344581604 47.96724617481232,8.22947770357132 47.96724617481232,8.22947770357132 48.04832935333252,8.30514132976532 48.04832935333252,8.30514132976532 48.247453570365906,8.325367420911789 48.247453570365906,8.325367420911789 48.81674945354462,8.387689292430878 48.81674945354462,8.387689292430878 49.71393048763275,8.494580537080765 49.71393048763275,8.494580537080765 50.89694261550903,8.648543059825897 50.89694261550903,8.648543059825897 52.3235023021698,8.852019906044006 52.3235023021698,8.852019906044006 53.9515495300293,9.10751298069954 53.9515495300293,9.10751298069954 55.738866329193115,9.41748097538948 55.738866329193115,9.41748097538948 57.643210887908936,9.784411638975143 57.643210887908936,9.784411638975143 59.45895314216614,10.184760391712189 59.45895314216614,10.184760391712189 61.0252320766449,10.588056594133377 61.0252320766449,10.588056594133377 62.36519813537598,10.987517982721329 62.36519813537598,10.987517982721329 63.50177526473999,11.376332491636276 63.50177526473999,11.376332491636276 64.45812582969666,11.747690290212631 64.45812582969666,11.747690290212631 65.25728702545166,12.094779312610626 65.25728702545166,12.094779312610626 65.9222960472107,12.410788238048553 65.9222960472107,12.410788238048553 66.47619009017944,12.688936293125153 66.47619009017944,12.688936293125153 66.88811779022217,12.930022180080414 66.88811779022217,12.930022180080414 67.13865399360657,13.136978447437286 67.13865399360657,13.136978447437286 67.26054549217224,13.310426473617554 67.26054549217224,13.310426473617554 67.28677749633789,13.450959324836731 67.28677749633789,13.450959324836731 67.25006103515625,13.559198379516602 67.25006103515625,13.559198379516602 67.18313097953796,13.635765016078949 67.18313097953796,13.635765016078949 67.11893081665039,13.681250810623169 67.11893081665039,13.681250810623169 67.09026098251343,13.696280121803284 67.09026098251343,13.696280121803284" stroke="white" stroke-width="0.1" /><polygon points="22.210849821567535,7.019189745187759 22.210849821567535,7.019189745187759 22.532574832439423,6.7611053586006165 22.532574832439423,6.7611053586006165 22.657190263271332,6.295797973871231 22.657190263271332,6.295797973871231 22.627635300159454,5.690150335431099 22.627635300159454,5.690150335431099 22.487089037895203,5.0110165029764175 22.487089037895203,5.0110165029764175 22.27848917245865,4.325263574719429 22.27848917245865,4.325263574719429 22.044776380062103,3.699760138988495 22.044776380062103,3.699760138988495 21.82912826538086,3.201374039053917 21.82912826538086,3.201374039053917 21.67448401451111,2.896943874657154 21.67448401451111,2.896943874657154 21.655531227588654,2.8739338740706444 21.655531227588654,2.8739338740706444 21.628110110759735,2.8539594262838364 21.628110110759735,2.8539594262838364 21.59239500761032,2.837035059928894 21.59239500761032,2.837035059928894 21.548685431480408,2.8231462463736534 21.548685431480408,2.8231462463736534 21.497274935245514,2.8123371303081512 21.497274935245514,2.8123371303081512 21.43840342760086,2.8045931831002235 21.43840342760086,2.8045931831002235 21.372245252132416,2.7999436482787132 21.372245252132416,2.7999436482787132 21.299217641353607,2.798389084637165 21.299217641353607,2.798389084637165 20.67762315273285,2.8577202931046486 20.67762315273285,2.8577202931046486 19.857734441757202,3.028162755072117 19.857734441757202,3.028162755072117 18.916606903076172,3.2984185963869095 18.916606903076172,3.2984185963869095 17.93105900287628,3.657190129160881 17.93105900287628,3.657190129160881 16.978144645690918,4.093164950609207 16.978144645690918,4.093164950609207 16.134801506996155,4.595030844211578 16.134801506996155,4.595030844211578 15.477907657623291,5.151489749550819 15.477907657623291,5.151489749550819 15.084576606750488,5.751243606209755 15.084576606750488,5.751243606209755 15.043532848358154,6.157827004790306 15.043532848358154,6.157827004790306 15.236258506774902,6.490375846624374 15.236258506774902,6.490375846624374 15.625858306884766,6.755004823207855 15.625858306884766,6.755004823207855 16.17555022239685,6.9578297436237335 16.17555022239685,6.9578297436237335 16.848495602607727,7.1049511432647705 16.848495602607727,7.1049511432647705 17.607735097408295,7.202469557523727 17.607735097408295,7.202469557523727 18.41660737991333,7.256500422954559 18.41660737991333,7.256500422954559 19.238094985485077,7.273157685995102 19.238094985485077,7.273157685995102 19.724354147911072,7.267605513334274 19.724354147911072,7.267605513334274 20.19420713186264,7.251865416765213 20.19420713186264,7.251865416765213 20.639362931251526,7.227285951375961 20.639362931251526,7.227285951375961 21.051764488220215,7.195214182138443 21.051764488220215,7.195214182138443 21.423299610614777,7.1570128202438354 21.423299610614777,7.1570128202438354 21.745675802230835,7.114043086767197 21.745675802230835,7.114043086767197 22.010956704616547,7.06765279173851 22.010956704616547,7.06765279173851" stroke="white" stroke-width="0.1" /><polygon points="39.94408845901489,6.316038966178894 39.94408845901489,6.316038966178894 40.12177288532257,6.300891190767288 40.12177288532257,6.300891190767288 40.25929868221283,6.260956823825836 40.25929868221283,6.260956823825836 40.361762046813965,6.204483658075333 40.361762046813965,6.204483658075333 40.434375405311584,6.139777228236198 40.434375405311584,6.139777228236198 40.48205316066742,6.0750562697649 40.48205316066742,6.0750562697649 40.50983190536499,6.018597632646561 40.50983190536499,6.018597632646561 40.52274227142334,5.978663265705109 40.52274227142334,5.978663265705109 40.52594304084778,5.963515862822533 40.52594304084778,5.963515862822533 40.496447682380676,5.900793522596359 40.496447682380676,5.900793522596359 40.39943218231201,5.726397782564163 40.39943218231201,5.726397782564163 40.22174775600433,5.461087450385094 40.22174775600433,5.461087450385094 39.95024859905243,5.125562846660614 39.95024859905243,5.125562846660614 39.57202136516571,4.7405533492565155 39.57202136516571,4.7405533492565155 39.073917269706726,4.326788708567619 39.073917269706726,4.326788708567619 38.44290375709534,3.904969245195389 38.44290375709534,3.904969245195389 37.66595721244812,3.495854139328003 37.66595721244812,3.495854139328003 36.91761493682861,3.148868680000305 36.91761493682861,3.148868680000305 36.211562156677246,2.8337035328149796 36.211562156677246,2.8337035328149796 35.51391959190369,2.554815262556076 35.51391959190369,2.554815262556076 34.791043400764465,2.3166311904788017 34.791043400764465,2.3166311904788017 34.0091198682785,2.1236376836895943 34.0091198682785,2.1236376836895943 33.13421010971069,1.9802624359726906 33.13421010971069,1.9802624359726906 32.13278949260712,1.8909692764282227 32.13278949260712,1.8909692764282227 30.97085952758789,1.8602227792143822 30.97085952758789,1.8602227792143822 30.85157573223114,1.8604891374707222 30.85157573223114,1.8604891374707222 30.730336904525757,1.8612740561366081 30.730336904525757,1.8612740561366081 30.607202649116516,1.8625769764184952 30.607202649116516,1.8625769764184952 30.482113361358643,1.8643686547875404 30.482113361358643,1.8643686547875404 30.355188250541687,1.866648904979229 30.355188250541687,1.866648904979229 30.22642731666565,1.8694177269935608 30.22642731666565,1.8694177269935608 30.095890164375305,1.872653141617775 30.095890164375305,1.872653141617775 29.96351718902588,1.8763326108455658 29.96351718902588,1.8763326108455658 28.56704592704773,1.9585998728871346 28.56704592704773,1.9585998728871346 27.45540142059326,2.1092750132083893 27.45540142059326,2.1092750132083893 26.608505845069885,2.3440832272171974 26.608505845069885,2.3440832272171974 26.006513833999634,2.6787491515278816 26.006513833999634,2.6787491515278816 25.62941312789917,3.1289979815483093 25.62941312789917,3.1289979815483093 25.457236170768738,3.710554540157318 25.457236170768738,3.710554540157318 25.470149517059326,4.439143463969231 25.470149517059326,4.439143463969231 25.647950172424316,5.330490320920944 25.647950172424316,5.330490320920944 25.88036060333252,6.1957769095897675 25.88036060333252,6.1957769095897675 26.070836186408997,6.857364624738693 26.070836186408997,6.857364624738693 26.222872734069824,7.342498749494553 26.222872734069824,7.342498749494553 26.339730620384216,7.678394019603729 26.339730620384216,7.678394019603729 26.42478048801422,7.892265170812607 26.42478048801422,7.892265170812607 26.481342315673828,8.011326938867569 26.481342315673828,8.011326938867569 26.51285231113434,8.062811195850372 26.51285231113434,8.062811195850372 26.522624492645264,8.073916286230087 26.522624492645264,8.073916286230087 26.65328085422516,8.084429055452347 26.65328085422516,8.084429055452347 27.037668228149414,8.113391697406769 27.037668228149414,8.113391697406769 27.664238214492798,8.156967908143997 27.664238214492798,8.156967908143997 28.52143943309784,8.211324363946915 28.52143943309784,8.211324363946915 29.597842693328857,8.272609859704971 29.597842693328857,8.272609859704971 30.88189959526062,8.336976170539856 30.88189959526062,8.336976170539856 32.36211836338043,8.400586247444153 32.36211836338043,8.400586247444153 34.0270072221756,8.459606766700745 34.0270072221756,8.459606766700745 34.63409245014191,8.478233963251114 34.63409245014191,8.478233963251114 35.26095747947693,8.49570631980896 35.26095747947693,8.49570631980896 35.90707182884216,8.511874824762344 35.90707182884216,8.511874824762344 36.57214045524597,8.526652306318283 36.57214045524597,8.526652306318283 37.255507707595825,8.539919555187225 37.255507707595825,8.539919555187225 37.956881523132324,8.55155736207962 37.956881523132324,8.55155736207962 38.67572844028473,8.56146365404129 38.67572844028473,8.56146365404129 39.4115149974823,8.569533377885818 39.4115149974823,8.569533377885818 39.41216468811035,8.4998220205307 39.41216468811035,8.4998220205307 39.41654860973358,8.311759680509567 39.41654860973358,8.311759680509567 39.42845165729523,8.03697258234024 39.42845165729523,8.03697258234024 39.45178985595703,7.707060128450394 39.45178985595703,7.707060128450394 39.490169286727905,7.353648543357849 39.490169286727905,7.353648543357849 39.54744040966034,7.0083655416965485 39.54744040966034,7.0083655416965485 39.627400040626526,6.702825427055359 39.627400040626526,6.702825427055359 39.73371386528015,6.468608975410461 39.73371386528015,6.468608975410461 39.755627512931824,6.435397267341614 39.755627512931824,6.435397267341614 39.77884352207184,6.40559121966362 39.77884352207184,6.40559121966362 39.80324566364288,6.379516422748566 39.80324566364288,6.379516422748566 39.82895016670227,6.357498466968536 39.82895016670227,6.357498466968536 39.85590040683746,6.339818984270096 39.85590040683746,6.339818984270096 39.88403081893921,6.326818466186523 39.88403081893921,6.326818466186523 39.913469552993774,6.318792700767517 39.913469552993774,6.318792700767517" stroke="white" stroke-width="0.1" /><polygon points="85.32291054725647,16.074863076210022 86.6366982460022,16.207237541675568 87.8603994846344,16.586916148662567 88.96790146827698,17.187781631946564 89.9328351020813,17.983652651309967 90.72897434234619,18.94841343164444 91.33025407791138,20.055940747261047 91.7102575302124,21.280057728290558 91.84269309043884,22.594645619392395 91.82498455047607,23.07344228029251 91.77280068397522,23.54253977537155 91.68751239776611,24.0008145570755 91.57059788703918,24.44716840982437 91.42341613769531,24.880507588386536 91.24739170074463,25.299736857414246 91.04400873184204,25.70374310016632 90.8145010471344,26.091447472572327 90.34056067466736,26.742523908615112 89.7923469543457,27.329334616661072 89.17679190635681,27.84494161605835 88.50047588348389,28.282397985458374 87.77019381523132,28.63474190235138 86.99265718460083,28.895017504692078 86.1746609210968,29.056280851364136 85.32291054725647,29.111585021018982 84.55170392990112,29.066306352615356 83.80774855613708,28.93393039703369 83.09583067893982,28.71970534324646 82.4211061000824,28.428807854652405 81.78814053535461,28.06648313999176 81.20202422142029,27.637970447540283 80.66749572753906,27.148455381393433 80.1895260810852,26.603174209594727 79.88184094429016,26.175373792648315 79.60826754570007,25.72271227836609 79.37099933624268,25.247156620025635 79.17223572731018,24.75065141916275 79.01391983032227,24.23519343137741 78.89824509620667,23.702721297740936 78.82729172706604,23.155221343040466 78.8031280040741,22.594645619392395 78.93555760383606,21.280057728290558 79.31544780731201,20.055940747261047 79.9164891242981,18.948426842689514 80.71262836456299,17.983652651309967 81.67750239372253,17.187781631946564 82.78500437736511,16.586916148662567 84.00888442993164,16.207237541675568" stroke="white" stroke-width="0.1" /><polygon points="46.28002941608429,28.994077444076538 46.283701062202454,28.995099663734436 46.28743231296539,28.996047377586365 46.29128277301788,28.996920585632324 46.29518985748291,28.997749090194702 46.299099922180176,28.998517990112305 46.302950382232666,28.999274969100952 46.30674123764038,28.999999165534973 46.31035327911377,29.00071144104004 46.30893170833588,28.998342156410217 46.30745053291321,28.99620831012726 46.305909752845764,28.994256258010864 46.304312348365784,28.992417454719543 46.30253612995148,28.990671038627625 46.30064070224762,28.98898422718048 46.29850685596466,28.9872944355011 46.29613757133484,28.98554801940918 46.29436135292053,28.986376523971558 46.2924063205719,28.98741364479065 46.29045128822327,28.988569974899292 46.2884396314621,28.98981273174286 46.286365389823914,28.991055488586426 46.28429412841797,28.99221181869507 46.28216028213501,28.99324893951416" stroke="white" stroke-width="0.1" /><polygon points="100.0,18.344467878341675 100.0002384185791,18.413913249969482 99.99496340751648,18.622660636901855 99.9752402305603,18.971334397792816 99.93212223052979,19.46055442094803 99.85660910606384,20.090943574905396 99.73975419998169,20.86312472820282 99.57255125045776,21.777719259262085 99.34612512588501,22.835347056388855 98.96636009216309,23.822924494743347 98.39563965797424,24.552252888679504 97.7084219455719,25.062337517738342 96.97915315628052,25.392204523086548 96.28227949142456,25.580844283103943 95.69237232208252,25.667303800582886 95.28381824493408,25.690564513206482 95.13100981712341,25.68964660167694 95.11946439743042,25.69078803062439 95.08552551269531,25.69410502910614 95.03008723258972,25.69947838783264 94.95439529418945,25.70682168006897 94.85933184623718,25.71597397327423 94.74591612815857,25.72682797908783 94.61543560028076,25.73924958705902 94.46861147880554,25.753140449523926 94.59020495414734,25.37842094898224 94.69675421714783,24.997231364250183 94.78796720504761,24.609926342964172 94.86342072486877,24.216891825199127 94.92270946502686,23.818467557430267 94.9655294418335,23.415052890777588 94.99152898788452,23.006989061832428 95.0002372264862,22.594645619392395 94.80318427085876,20.64550817012787 94.23815608024597,18.82917284965515 93.34452748298645,17.184819281101227 92.1615719795227,15.75159877538681 90.72861671447754,14.56870436668396 89.08498883247375,13.675269484519958 87.26996183395386,13.110488653182983 85.32291054725647,12.913528084754944 83.37461352348328,13.110488653182983 81.55863285064697,13.675269484519958 79.91423606872559,14.56870436668396 78.48092913627625,15.75159877538681 77.29767560958862,17.184819281101227 76.40393376350403,18.82917284965515 75.83884000778198,20.64550817012787 75.64179301261902,22.594645619392395 75.65405368804932,23.08078706264496 75.69047808647156,23.56085628271103 75.75029730796814,24.034322798252106 75.83286166191101,24.500592052936554 75.93751549720764,24.959133565425873 76.0635495185852,25.409412384033203 76.21031999588013,25.85083544254303 76.37715935707092,26.282870769500732 75.5810797214508,26.220890879631042 74.76409673690796,26.15901231765747 73.93129467964172,26.09793245792389 73.08801412582397,26.038262248039246 72.23916053771973,25.980693101882935 71.39013409614563,25.925862789154053 70.54578065872192,25.874435901641846 69.71144080162048,25.827056169509888 69.86993551254272,25.58068335056305 70.0194239616394,25.323930382728577 70.15932202339172,25.05645751953125 70.28903365135193,24.77789670228958 70.40784358978271,24.48793202638626 70.51528096199036,24.18619692325592 70.61057686805725,23.872365057468414 70.6932008266449,23.54607880115509 70.9384024143219,22.402718663215637 71.12259864807129,21.399742364883423 71.25444412231445,20.536009967327118 71.3424563407898,19.810353219509125 71.395343542099,19.221659004688263 71.42181992530823,18.768760561943054 71.43028974533081,18.450529873371124 71.42952084541321,18.26581358909607 71.39522433280945,17.879323661327362 71.31586074829102,17.50531494617462 71.19385004043579,17.147092521190643 71.03139162063599,16.807983815670013 70.8308458328247,16.49130880832672 70.59464454650879,16.20038151741028 70.32498121261597,15.938521921634674 70.02416253089905,15.709073841571808 70.1340913772583,14.882729947566986 70.20350694656372,14.724472165107727 70.26522159576416,14.562663435935974 70.319002866745,14.397653937339783 70.36460638046265,14.229802787303925 70.40174007415771,14.059464633464813 70.43023109436035,13.886994123458862 70.44965624809265,13.712745904922485 70.46008110046387,13.537076115608215 70.4487681388855,13.118292391300201 70.38053870201111,12.668651342391968 70.24011015892029,12.197820097208023 70.01219987869263,11.715470254421234 69.68153119087219,11.231254786252975 69.23288106918335,10.754827409982681 68.65091323852539,10.295871645212173 67.9203987121582,9.864012897014618 67.64155626296997,9.721970558166504 67.33126044273376,9.56670492887497 66.98691248893738,9.399372339248657 66.60590171813965,9.221155941486359 66.18561744689941,9.033212065696716 65.72328805923462,8.836694806814194 65.21641612052917,8.632788807153702 64.66240286827087,8.422648906707764 65.3705894947052,8.447346836328506 66.11010432243347,8.47078561782837 66.88000559806824,8.492700010538101 67.67969727516174,8.512793481349945 68.50811243057251,8.530798554420471 69.36436891555786,8.54644924402237 70.24781107902527,8.559449762105942 71.1575448513031,8.569533377885818 71.15861177444458,8.47269594669342 71.16583585739136,8.217424899339676 71.18561863899231,7.856521010398865 71.22399806976318,7.442785799503326 71.28736972808838,7.029051333665848 71.38184309005737,6.668147444725037 71.51368260383606,6.412876397371292 71.68917059898376,6.316038966178894 71.8670904636383,6.300891190767288 72.00473546981812,6.260956823825836 72.10732102394104,6.204483658075333 72.17981815338135,6.139777228236198 72.22737669944763,6.0750562697649 72.25497364997864,6.018597632646561 72.26788401603699,5.978663265705109 72.27102518081665,5.963515862822533 72.24159240722656,5.900793522596359 72.14451432228088,5.726397782564163 71.96683287620544,5.461087450385094 71.69545292854309,5.125562846660614 71.31728529930115,4.7405533492565155 70.81947326660156,4.326788708567619 70.18864154815674,3.904969245195389 69.41198706626892,3.495854139328003 68.59630346298218,3.11715230345726 67.82705783843994,2.7773188427090645 67.05999970436096,2.482113242149353 66.25089049339294,2.2372661158442497 65.35548567771912,2.0485296845436096 64.32965993881226,1.9216269254684448 63.12905550003052,1.8623104318976402 61.70954704284668,1.8763326108455658 60.312843322753906,1.9585998728871346 59.20102000236511,2.1092750132083893 58.3541214466095,2.3440832272171974 57.75219202041626,2.6787491515278816 57.37520456314087,3.1289979815483093 57.20314979553223,3.710554540157318 57.216060161590576,4.439143463969231 57.39398002624512,5.330490320920944 57.4417769908905,5.5118899792432785 57.48791694641113,5.685190111398697 57.53234028816223,5.850568413734436 57.57521986961365,6.0081735253334045 57.61656165122986,6.158196926116943 57.65647888183594,6.300772726535797 57.69509673118591,6.4360931515693665 57.73229002952576,6.564321368932724 57.29394555091858,6.4790330827236176 56.8612277507782,6.396617740392685 56.434375047683716,6.31709024310112 56.01373910903931,6.240464374423027 55.59967756271362,6.166770309209824 55.19260764122009,6.096037849783897 54.79264259338379,6.028281152248383 54.400378465652466,5.963515862822533 54.34499979019165,5.525512248277664 54.24377918243408,5.061256140470505 54.11016345024109,4.59168441593647 53.95723581314087,4.1377633810043335 53.79838943481445,3.720386326313019 53.64706516265869,3.360503911972046 53.51628661155701,3.079039417207241 53.41956615447998,2.896943874657154 53.218549489974976,2.809390611946583 52.80312895774841,2.810915745794773 52.218371629714966,2.894841320812702 51.50923728942871,3.054489381611347 50.72073936462402,3.2831676304340363 49.89789128303528,3.574182838201523 49.08558428287506,3.920856863260269 48.32883179187775,4.316512495279312 48.17069470882416,4.1848789900541306 48.007699847221375,4.050195589661598 47.8398472070694,3.912624344229698 47.667139768600464,3.772328794002533 47.48981297016144,3.6294568330049515 47.30774760246277,3.4841567277908325 47.121238708496094,3.336590901017189 46.930110454559326,3.1869225203990936 48.95072281360626,2.302001975476742 51.14510655403137,1.5625592321157455 53.47020626068115,0.9674247354269028 55.8829665184021,0.5153991747647524 58.34038257598877,0.2052979078143835 60.799336433410645,0.035936388303525746 63.21665644645691,0.006122660852270201 65.5493974685669,0.11466477299109101 67.91364550590515,0.602641561999917 70.34968137741089,1.5943201258778572 72.73821234703064,2.9144011437892914 74.95996356010437,4.387585818767548 76.89564228057861,5.838560312986374 78.42596769332886,7.0920102298259735 79.43171262741089,7.972636818885803 79.79341149330139,8.30514132976532 79.99247908592224,8.325367420911789 80.56159615516663,8.387689292430878 81.45859837532043,8.494580537080765 82.64143466949463,8.648543059825897 84.06805396080017,8.852019906044006 85.69622039794922,9.10751298069954 87.48400807380676,9.41748097538948 89.38924670219421,9.784411638975143 91.20563864707947,10.184760391712189 92.77256727218628,10.588056594133377 94.11294460296631,10.987517982721329 95.2498197555542,11.376332491636276 96.20605111122131,11.747690290212631 97.00479507446289,12.094779312610626 97.66885638237,12.410788238048553 98.22127223014832,12.688936293125153 98.63266944885254,12.930022180080414 98.88308644294739,13.136978447437286 99.00509119033813,13.310426473617554 99.03162717819214,13.450959324836731 98.99532198905945,13.559198379516602 98.92880916595459,13.635765016078949 98.86478185653687,13.681250810623169 98.8362967967987,13.696280121803284 98.29140305519104,17.764510214328766" stroke="white" stroke-width="0.1" /><polygon points="15.743188560009003,16.074863076210022 17.05816090106964,16.207237541675568 18.28257590532303,16.586916148662567 19.390428066253662,17.187781631946564 20.355483889579773,17.983652651309967 21.15156352519989,18.94841343164444 21.75266593694687,20.055940747261047 22.132492065429688,21.280057728290558 22.264866530895233,22.594645619392395 22.247926890850067,23.06322604417801 22.197939455509186,23.52295070886612 22.116322815418243,23.972681164741516 22.00414538383484,24.41127747297287 21.862828731536865,24.83762800693512 21.693556010723114,25.25056302547455 21.497690677642822,25.648987293243408 21.276475489139557,26.031747460365295 20.80342322587967,26.694902777671814 20.253968238830566,27.292954921722412 19.635039567947388,27.818703651428223 18.953683972358704,28.264984488487244 18.216773867607117,28.624600172042847 17.43147373199463,28.890353441238403 16.604536771774292,29.05508279800415 15.743188560009003,29.111585021018982 14.788320660591125,29.04178500175476 13.876806199550629,28.839018940925598 13.0183607339859,28.51329743862152 12.222814559936523,28.074628114700317 11.49982213973999,27.532988786697388 10.85897907614708,26.89836621284485 10.310234874486923,26.18076205253601 9.863065928220749,25.39019286632538 9.720030426979065,25.067609548568726 9.593461453914642,24.736303091049194 9.484245628118515,24.39679652452469 9.393153339624405,24.049632251262665 9.320836514234543,23.69530349969864 9.268300980329514,23.334355652332306 9.236200153827667,22.9672908782959 9.225302189588547,22.594645619392395 9.357675909996033,21.280057728290558 9.737325459718704,20.055940747261047 10.33807173371315,18.948426842689514 11.13385483622551,17.983652651309967 12.098436057567596,17.187781631946564 13.205638527870178,16.586916148662567 14.429223537445068,16.207237541675568" stroke="white" stroke-width="0.1" /><polygon points="54.723525047302246,16.18194729089737 55.830490589141846,16.48116558790207 56.85039162635803,16.960717737674713 57.76457190513611,17.60219782590866 58.5543692111969,18.38723123073578 59.20113921165466,19.29738223552704 59.68621373176575,20.314276218414307 59.990936517715454,21.419495344161987 60.096657276153564,22.594645619392395 60.08262038230896,23.021884262561798 60.041046142578125,23.441675305366516 59.97287631034851,23.853233456611633 59.8791778087616,24.255745112895966 59.760719537734985,24.648454785346985 59.61851477622986,25.030547380447388 59.45344567298889,25.401252508163452 59.26652550697327,25.759771466255188 59.2434823513031,25.80142319202423 59.21997427940369,25.84317922592163 59.19604301452637,25.884950160980225 59.17152166366577,25.926676392555237 59.146589040756226,25.96825361251831 59.12129878997803,26.009640097618103 59.095531702041626,26.05072855949402 59.06941294670105,26.091447472572327 58.59506130218506,26.742523908615112 58.04649591445923,27.329334616661072 57.430464029312134,27.84494161605835 56.75384998321533,28.282397985458374 56.02339506149292,28.63474190235138 55.24585247039795,28.895017504692078 54.4281005859375,29.056280851364136 53.57687473297119,29.111585021018982 53.167080879211426,29.0985107421875 52.76409387588501,29.0599524974823 52.368634939193726,28.996890783309937 51.981520652770996,28.910329937934875 51.6034722328186,28.80123257637024 51.23525261878967,28.670620918273926 50.87751746177673,28.519457578659058 50.53115487098694,28.348731994628906 50.23193359375,28.17811369895935 49.94243085384369,27.99336612224579 49.663230776786804,27.794775366783142 49.39504861831665,27.58256196975708 49.13841485977173,27.35702395439148 48.89410138130188,27.11845636367798 48.662519454956055,26.8670916557312 48.44444394111633,26.603174209594727 48.13646078109741,26.175373792648315 47.86265194416046,25.72271227836609 47.62526750564575,25.247156620025635 47.42632210254669,24.75065141916275 47.267886996269226,24.23519343137741 47.152215242385864,23.702721297740936 47.081258893013,23.155221343040466 47.05709517002106,22.594645619392395 47.12177217006683,21.673329174518585 47.3097026348114,20.792140066623688 47.61223495006561,19.95968073606491 48.02049398422241,19.184553623199463 48.525646328926086,18.475346267223358 49.1188108921051,17.84064769744873 49.791163206100464,17.289060354232788 50.533998012542725,16.82918667793274 50.88006258010864,16.659100353717804 51.23750567436218,16.509032249450684 51.60548686981201,16.37979745864868 51.9832968711853,16.2722110748291 52.37017273902893,16.187100112438202 52.76516079902649,16.1252960562706 53.16773056983948,16.087597608566284 53.57687473297119,16.074863076210022 53.722935914993286,16.076788306236267 53.8682758808136,16.08240008354187 54.01279330253601,16.09150618314743 54.15659546852112,16.10388606786728 54.2996346950531,16.119329631328583 54.44177985191345,16.137629747390747 54.583096504211426,16.158582270145416" stroke="white" stroke-width="0.1" /><polygon points="66.54821038246155,17.764510214328766 68.25207471847534,18.344467878341675 68.25230717658997,18.413913249969482 68.2470977306366,18.622660636901855 68.2274341583252,18.971334397792816 68.18443536758423,19.46055442094803 68.10909509658813,20.090943574905396 67.99265742301941,20.86312472820282 67.82593131065369,21.777719259262085 67.60009527206421,22.835347056388855 67.34281182289124,23.58836829662323 66.97145104408264,24.196118116378784 66.51575565338135,24.67406988143921 66.00521206855774,25.03778636455536 65.46949744224548,25.302740931510925 64.93805050849915,25.484466552734375 64.44065570831299,25.598466396331787 64.00663256645203,25.66027045249939 63.91921639442444,25.668606162071228 63.83712291717529,25.675255060195923 63.760483264923096,25.68039298057556 63.689881563186646,25.68419873714447 63.62556219100952,25.686848163604736 63.5678768157959,25.688523054122925 63.5172963142395,25.689396262168884 63.474059104919434,25.68964660167694 63.38497996330261,25.68964660167694 63.37348818778992,25.69078803062439 63.33954930305481,25.69410502910614 63.28423619270325,25.69947838783264 63.208478689193726,25.70682168006897 63.11330199241638,25.71597397327423 62.99964189529419,25.72682797908783 62.86839842796326,25.73924958705902 62.720680236816406,25.753140449523926 62.724411487579346,25.74225664138794 62.72779107093811,25.73159635066986 62.73098587989807,25.721141695976257 62.73406744003296,25.710850954055786 62.7372682094574,25.70069432258606 62.740522623062134,25.69063901901245 62.7441942691803,25.680643320083618 62.74816393852234,25.670695304870605 62.86354064941406,25.304076075553894 62.96494007110596,24.93206560611725 63.051825761795044,24.554815888404846 63.123905658721924,24.172471463680267 63.180702924728394,23.785151541233063 63.22186589241028,23.392975330352783 63.246744871139526,22.996090352535248 63.255155086517334,22.594645619392395 63.05816173553467,20.64550817012787 62.49324679374695,18.82917284965515 61.59961819648743,17.184819281101227 60.416728258132935,15.75159877538681 58.98371338844299,14.56870436668396 57.33984708786011,13.675269484519958 39.94408845901489,6.316038966178894 40.12177288532257,6.300891190767288 40.25929868221283,6.260956823825836 40.361762046813965,6.204483658075333 40.434375405311584,6.139777228236198 40.48205316066742,6.0750562697649 40.50983190536499,6.018597632646561 40.52274227142334,5.978663265705109 40.52594304084778,5.963515862822533 40.496447682380676,5.900793522596359 40.39943218231201,5.726397782564163 40.22174775600433,5.461087450385094 39.95024859905243,5.125562846660614 39.57202136516571,4.7405533492565155 39.073917269706726,4.326788708567619 38.44290375709534,3.904969245195389 37.66595721244812,3.495854139328003 36.91761493682861,3.148868680000305 36.211562156677246,2.8337035328149796 35.51391959190369,2.554815262556076 34.791043400764465,2.3166311904788017 34.0091198682785,2.1236376836895943 33.13421010971069,1.9802624359726906 32.13278949260712,1.8909692764282227 30.97085952758789,1.8602227792143822 30.85157573223114,1.8604891374707222 30.730336904525757,1.8612740561366081 30.607202649116516,1.8625769764184952 30.482113361358643,1.8643686547875404 30.355188250541687,1.866648904979229 30.22642731666565,1.8694177269935608 30.095890164375305,1.872653141617775 29.96351718902588,1.8763326108455658 28.56704592704773,1.9585998728871346 27.45540142059326,2.1092750132083893 26.608505845069885,2.3440832272171974 26.006513833999634,2.6787491515278816 25.62941312789917,3.1289979815483093 25.457236170768738,3.710554540157318 25.470149517059326,4.439143463969231 25.647950172424316,5.330490320920944 22.210849821567535,7.019189745187759 22.532574832439423,6.7611053586006165 22.657190263271332,6.295797973871231 22.627635300159454,5.690150335431099 22.487089037895203,5.0110165029764175 22.27848917245865,4.325263574719429 22.044776380062103,3.699760138988495 21.82912826538086,3.201374039053917 21.67448401451111,2.896943874657154 21.655531227588654,2.8739338740706444 21.628110110759735,2.8539594262838364 21.59239500761032,2.837035059928894 21.548685431480408,2.8231462463736534 21.497274935245514,2.8123371303081512 21.43840342760086,2.8045931831002235 21.372245252132416,2.7999436482787132 21.299217641353607,2.798389084637165 20.67762315273285,2.8577202931046486 19.857734441757202,3.028162755072117 18.916606903076172,3.2984185963869095 17.93105900287628,3.657190129160881 16.978144645690918,4.093164950609207 16.134801506996155,4.595030844211578 15.477907657623291,5.151489749550819 15.084576606750488,5.751243606209755 15.043532848358154,6.157827004790306 15.236258506774902,6.490375846624374 15.625858306884766,6.755004823207855 16.17555022239685,6.9578297436237335 16.848495602607727,7.1049511432647705 17.607735097408295,7.202469557523727 18.41660737991333,7.256500422954559 19.238094985485077,7.273157685995102 19.724354147911072,7.267605513334274 20.19420713186264,7.251865416765213 20.639362931251526,7.227285951375961 21.051764488220215,7.195214182138443 21.423299610614777,7.1570128202438354 21.745675802230835,7.114043086767197 22.010956704616547,7.06765279173851 22.210849821567535,7.019189745187759 25.647950172424316,5.330490320920944 25.88036060333252,6.1957769095897675 26.070836186408997,6.857364624738693 26.222872734069824,7.342498749494553 26.339730620384216,7.678394019603729 26.42478048801422,7.892265170812607 26.481342315673828,8.011326938867569 26.51285231113434,8.062811195850372 26.522624492645264,8.073916286230087 26.65328085422516,8.084429055452347 27.037668228149414,8.113391697406769 27.664238214492798,8.156967908143997 28.52143943309784,8.211324363946915 29.597842693328857,8.272609859704971 30.88189959526062,8.336976170539856 32.36211836338043,8.400586247444153 34.0270072221756,8.459606766700745 34.63409245014191,8.478233963251114 35.26095747947693,8.49570631980896 35.90707182884216,8.511874824762344 36.57214045524597,8.526652306318283 37.255507707595825,8.539919555187225 37.956881523132324,8.55155736207962 38.67572844028473,8.56146365404129 39.4115149974823,8.569533377885818 39.41216468811035,8.4998220205307 39.41654860973358,8.311759680509567 39.42845165729523,8.03697258234024 39.45178985595703,7.707060128450394 39.490169286727905,7.353648543357849 39.54744040966034,7.0083655416965485 39.627400040626526,6.702825427055359 39.73371386528015,6.468608975410461 39.755627512931824,6.435397267341614 39.77884352207184,6.40559121966362 39.80324566364288,6.379516422748566 39.82895016670227,6.357498466968536 39.85590040683746,6.339818984270096 39.88403081893921,6.326818466186523 39.913469552993774,6.318792700767517 39.94408845901489,6.316038966178894 57.33984708786011,13.675269484519958 55.52458167076111,13.110488653182983 53.57687473297119,12.913528084754944 53.18058729171753,12.921878695487976 52.78855562210083,12.946665287017822 52.400970458984375,12.98738420009613 52.01800465583801,13.043591380119324 51.63983702659607,13.114812970161438 51.266640424728394,13.200575113296509 50.89859962463379,13.30043226480484 50.53589344024658,13.4138822555542 49.931830167770386,13.636089861392975 49.347904324531555,13.896603882312775 48.78559708595276,14.193911850452423 48.246267437934875,14.526534080505371 47.73116707801819,14.892946183681488 47.241827845573425,15.2916818857193 46.779435873031616,15.721215307712555 46.34541571140289,16.180051863193512 45.80431282520294,16.84580147266388 45.32231688499451,17.55773276090622 44.90346014499664,18.312203884124756 44.55176591873169,19.105543196201324 44.27120387554169,19.93410885334015 44.06585991382599,20.794257521629333 43.9396470785141,21.682317554950714 43.89670789241791,22.594645619392395 43.90890896320343,23.08078706264496 43.945154547691345,23.56085628271103 44.004619121551514,24.034322798252106 44.08694505691528,24.500592052936554 44.19142305850983,24.959133565425873 44.317224621772766,25.409412384033203 44.46410834789276,25.85083544254303 44.63112950325012,26.282870769500732 44.31414306163788,26.257964968681335 43.993011116981506,26.233017444610596 43.66808831691742,26.208096742630005 43.33972930908203,26.183250546455383 43.008291721343994,26.158538460731506 42.67401099205017,26.13401710987091 42.337360978126526,26.10974907875061 41.99857711791992,26.085761189460754 41.05768799781799,26.01938247680664 40.11205732822418,25.95590353012085 39.16885852813721,25.89629292488098 38.23536932468414,25.84150731563568 37.318941950798035,25.792494416236877 36.42667531967163,25.750207901000977 35.56615710258484,25.715619325637817 34.744372963905334,25.68964660167694 34.46067273616791,25.682392716407776 34.17483866214752,25.676262378692627 33.88705253601074,25.671198964118958 33.59760642051697,25.667139887809753 33.30662250518799,25.664061307907104 33.014512062072754,25.661927461624146 32.72133469581604,25.660669803619385 32.427385449409485,25.66027045249939 31.398779153823853,25.665155053138733 30.37414252758026,25.678956508636475 29.363185167312622,25.7003515958786 28.375384211540222,25.728026032447815 27.420517802238464,25.760674476623535 26.50829255580902,25.796997547149658 25.648248195648193,25.83567202091217 24.850036203861237,25.875383615493774 24.981284141540527,25.48624575138092 25.0963032245636,25.09024739265442 25.19468069076538,24.687840044498444 25.276002287864685,24.279436469078064 25.33990740776062,23.86549413204193 25.38604736328125,23.44641387462616 25.414001941680908,23.02265465259552 25.423359870910645,22.594645619392395 25.226309895515442,20.645418763160706 24.661336839199066,18.828876316547394 23.76776784658432,17.184212803840637 22.584696114063263,15.750651061534882 21.15144580602646,14.567400515079498 19.50734406709671,13.673670589923859 17.691482603549957,13.108682632446289 15.743188560009003,12.911632657051086 13.796079158782959,13.108682632446289 11.980928480625153,13.673670589923859 10.337182879447937,14.567400515079498 8.904051035642624,15.750651061534882 7.720918953418732,17.18422770500183 6.827114522457123,18.828876316547394 6.262082606554031,20.645418763160706 6.064913421869278,22.594645619392395 6.065861135721207,22.71624058485031 6.068467348814011,22.837893664836884 6.072850152850151,22.959458827972412 6.078772619366646,23.08078706264496 6.0861170291900635,23.201759159564972 6.09494186937809,23.32225739955902 6.104892119765282,23.442134261131287 6.11608624458313,23.56124073266983 5.357439070940018,23.172204196453094 4.60033155977726,22.788245975971222 3.867211565375328,22.422130405902863 3.1805258244276047,22.08659052848816 2.5627221912145615,21.794360876083374 2.036069706082344,21.55817598104477 1.6233120113611221,21.39078378677368 1.3466003350913525,21.30490392446518 1.0002369061112404,21.073530614376068 0.7184316404163837,20.58180868625641 0.4945510532706976,19.89670693874359 0.32148780301213264,19.085168838500977 0.19266761373728514,18.21415275335312 0.10116086341440678,17.350612580776215 0.040156362229026854,16.561508178710938 0.002842928188329097,15.913765132427216 0.03458895953372121,15.402540564537048 0.16340914880856872,14.970311522483826 0.3608742030337453,14.607276022434235 0.5986732896417379,14.303600788116455 0.8482587523758411,14.049455523490906 1.081141922622919,13.835006952285767 1.269130501896143,13.650423288345337 1.3835583813488483,13.485904037952423 1.4453920535743237,13.30057978630066 1.498341653496027,13.059183955192566 1.5471451915800571,12.754812836647034 1.5964226797223091,12.380596995353699 1.6509121283888817,11.929666996002197 1.7152925953269005,11.395151913166046 1.7941838130354881,10.770166665315628 1.8924426287412643,10.047855973243713 2.0272446796298027,9.317830204963684 2.2022033110260963,8.674988150596619 2.3994313552975655,8.122453093528748 2.60104238986969,7.663349807262421 2.789030969142914,7.300817221403122 2.9454512521624565,7.0379942655563354 3.0524756759405136,6.878005713224411 3.0921582132577896,6.823975592851639 8.904998749494553,6.403221935033798 8.960317820310593,6.373237818479538 9.149845689535141,6.272106617689133 9.509002417325974,6.083037331700325 10.072968155145645,5.7892680168151855 10.877161473035812,5.373993143439293 11.957000941038132,4.820466041564941 13.347665965557098,4.11188118159771 15.084576606750488,3.2314617186784744 16.77227020263672,2.4682391434907913 18.59055906534195,1.8091833218932152 20.513325929641724,1.2535684742033482 22.514569759368896,0.800639670342207 24.568229913711548,0.44965646229684353 26.648247241973877,0.19987858831882477 28.72861921787262,0.050565623678267 30.7832270860672,0.0009476427294430323 31.1691552400589,0.0026874555260292254 31.55294954776764,0.00792170103522949 31.934374570846558,0.016687395691405982 32.31331408023834,0.02902155974879861 32.689645886421204,0.04495380271691829 33.06325376033783,0.06451373919844627 33.43390226364136,0.08773839217610657 33.80146920681,0.11466477299109101 35.047975182533264,0.30212034471333027 36.33031249046326,0.6562277674674988 37.630537152290344,1.150327268987894 38.930585980415344,1.7577588558197021 40.21233022212982,2.451847866177559 41.4576530456543,3.205949440598488 42.64854192733765,3.9933811873197556 43.76688003540039,4.787491261959076 44.67104971408844,5.467010289430618 45.49407660961151,6.113509833812714 46.22388184070587,6.709221750497818 46.84825837612152,7.236436754465103 47.355011105537415,7.677386701107025 47.73211181163788,8.01430344581604 47.96724617481232,8.22947770357132 48.04832935333252,8.30514132976532 48.247453570365906,8.325367420911789 48.81674945354462,8.387689292430878 49.71393048763275,8.494580537080765 50.89694261550903,8.648543059825897 52.3235023021698,8.852019906044006 53.9515495300293,9.10751298069954 55.738866329193115,9.41748097538948 57.643210887908936,9.784411638975143 59.45895314216614,10.184760391712189 61.0252320766449,10.588056594133377 62.36519813537598,10.987517982721329 63.50177526473999,11.376332491636276 64.45812582969666,11.747690290212631 65.25728702545166,12.094779312610626 65.9222960472107,12.410788238048553 66.47619009017944,12.688936293125153 66.88811779022217,12.930022180080414 67.13865399360657,13.136978447437286 67.26054549217224,13.310426473617554 67.28677749633789,13.450959324836731 67.25006103515625,13.559198379516602 67.18313097953796,13.635765016078949 67.11893081665039,13.681250810623169 67.09026098251343,13.696280121803284" stroke="white" stroke-width="0.1" /></svg>