<?xml version="1.0" encoding="utf-8" ?>
<svg baseProfile="full" height="99.99629259109497" version="1.1" width="98.4271764755249" xmlns="http://www.w3.org/2000/svg" xmlns:ev="http://www.w3.org/2001/xml-events" xmlns:xlink="http://www.w3.org/1999/xlink"><defs><clipPath /></defs><polygon points="92.94100999832153,52.42503881454468 92.94100999832153,52.42503881454468 92.94100999832153,52.42503881454468 92.94100999832153,52.42503881454468 94.97058391571045,52.728646993637085 94.97058391571045,52.728646993637085 96.43147587776184,53.56489419937134 96.43147587776184,53.56489419937134 97.41594195365906,54.822248220443726 97.41594195365906,54.822248220443726 98.0154275894165,56.3890278339386 98.0154275894165,56.3890278339386 98.32202196121216,58.1535279750824 98.32202196121216,58.1535279750824 98.4271764755249,60.00424027442932 98.4271764755249,60.00424027442932 98.42314720153809,61.82938814163208 98.42314720153809,61.82938814163208 98.40137362480164,63.51736783981323 98.40137362480164,63.51736783981323 98.40137362480164,79.70685362815857 98.40137362480164,79.70685362815857 98.40137362480164,83.59503746032715 98.40137362480164,83.59503746032715 98.28267097473145,84.77844595909119 98.28267097473145,84.77844595909119 97.94284701347351,85.8541190624237 97.94284701347351,85.8541190624237 97.40561842918396,86.80664896965027 97.40561842918396,86.80664896965027 96.69485092163086,87.6205563545227 96.69485092163086,87.6205563545227 95.83441019058228,88.28044533729553 95.83441019058228,88.28044533729553 94.84865069389343,88.77090215682983 94.84865069389343,88.77090215682983 93.76080632209778,89.07653093338013 93.76080632209778,89.07653093338013 92.59521961212158,89.18184638023376 92.59521961212158,89.18184638023376 85.38268804550171,89.18184638023376 85.38268804550171,89.18184638023376 84.63708162307739,89.1954779624939 84.63708162307739,89.1954779624939 83.85648131370544,89.22563791275024 83.85648131370544,89.22563791275024 83.05377960205078,89.2560362815857 83.05377960205078,89.2560362815857 82.24172592163086,89.27006721496582 82.24172592163086,89.27006721496582 81.43354058265686,89.2517626285553 81.43354058265686,89.2517626285553 80.64180612564087,89.18458819389343 80.64180612564087,89.18458819389343 79.87974882125854,89.05225992202759 79.87974882125854,89.05225992202759 79.1597843170166,88.83864283561707 79.1597843170166,88.83864283561707 77.6513159275055,87.99013495445251 77.6513159275055,87.99013495445251 76.61136984825134,86.81704998016357 76.61136984825134,86.81704998016357 75.9580135345459,85.39212346076965 75.9580135345459,85.39212346076965 75.60819387435913,83.78777503967285 75.60819387435913,83.78777503967285 75.47965049743652,82.07648992538452 75.47965049743652,82.07648992538452 75.49013495445251,80.33101558685303 75.49013495445251,80.33101558685303 75.55674314498901,78.6236822605133 75.55674314498901,78.6236822605133 75.59738755226135,77.02699303627014 75.59738755226135,77.02699303627014 75.59738755226135,60.70783734321594 75.59738755226135,60.70783734321594 75.58932304382324,60.01190543174744 75.58932304382324,60.01190543174744 75.57609677314758,59.30500626564026 75.57609677314758,59.30500626564026 75.57432651519775,58.593589067459106 75.57432651519775,58.593589067459106 75.60045123100281,57.88419246673584 75.60045123100281,57.88419246673584 75.6710946559906,57.18325972557068 75.6710946559906,57.18325972557068 75.80254077911377,56.49740695953369 75.80254077911377,56.49740695953369 76.011723279953,55.832844972610474 76.011723279953,55.832844972610474 76.31477117538452,55.1965057849884 76.31477117538452,55.1965057849884 76.57378911972046,54.826122522354126 76.57378911972046,54.826122522354126 76.8866777420044,54.4857382774353 76.8866777420044,54.4857382774353 77.22859382629395,54.164302349090576 77.22859382629395,54.164302349090576 77.57406234741211,53.85109186172485 77.57406234741211,53.85109186172485 77.89807915687561,53.535062074661255 77.89807915687561,53.535062074661255 78.17531824111938,53.20531725883484 78.17531824111938,53.20531725883484 78.3806324005127,52.85106301307678 78.3806324005127,52.85106301307678 78.4888505935669,52.46116518974304 78.4888505935669,52.46116518974304 78.54626774787903,52.03424692153931 78.54626774787903,52.03424692153931 78.61158847808838,51.607656478881836 78.61158847808838,51.607656478881836 78.6859393119812,51.1821985244751 78.6859393119812,51.1821985244751 78.77077460289001,50.7584273815155 78.77077460289001,50.7584273815155 78.86689901351929,50.33724308013916 78.86689901351929,50.33724308013916 78.97543907165527,49.91943836212158 78.97543907165527,49.91943836212158 79.09769415855408,49.50567185878754 79.09769415855408,49.50567185878754 79.2346179485321,49.09681975841522 79.2346179485321,49.09681975841522 79.38703298568726,48.706355690956116 79.38703298568726,48.706355690956116 79.59476113319397,48.260411620140076 79.59476113319397,48.260411620140076 79.85394597053528,47.80874252319336 79.85394597053528,47.80874252319336 80.16021847724915,47.40101993083954 80.16021847724915,47.40101993083954 80.50971627235413,47.08700478076935 80.50971627235413,47.08700478076935 80.89872598648071,46.91652953624725 80.89872598648071,46.91652953624725 81.32257461547852,46.93919122219086 81.32257461547852,46.93919122219086 81.7777156829834,47.20466136932373 81.7777156829834,47.20466136932373 82.04399347305298,47.47021198272705 82.04399347305298,47.47021198272705 82.27527141571045,47.77269661426544 82.27527141571045,47.77269661426544 82.47541785240173,48.10405075550079 82.47541785240173,48.10405075550079 82.64799118041992,48.45637083053589 82.64799118041992,48.45637083053589 82.79685378074646,48.82159233093262 82.79685378074646,48.82159233093262 82.92604088783264,49.19165372848511 82.92604088783264,49.19165372848511 83.03861618041992,49.55849051475525 83.03861618041992,49.55849051475525 83.13893675804138,49.914199113845825 83.13893675804138,49.914199113845825 83.20199847221375,50.22805333137512 83.20199847221375,50.22805333137512 83.25215578079224,50.60915946960449 83.25215578079224,50.60915946960449 83.3029568195343,51.023900508880615 83.3029568195343,51.023900508880615 83.36795568466187,51.43863558769226 83.36795568466187,51.43863558769226 83.460533618927,51.81974768638611 83.460533618927,51.81974768638611 83.59407186508179,52.133601903915405 83.59407186508179,52.133601903915405 83.78212451934814,52.34657526016235 83.78212451934814,52.34657526016235 84.038245677948,52.42503881454468 84.038245677948,52.42503881454468 86.53230667114258,52.42503881454468 86.53230667114258,52.42503881454468" stroke="white" stroke-width="0.1" /><polygon points="94.83768343925476,67.44877696037292 94.83768343925476,67.44877696037292 94.83768343925476,67.44877696037292 94.83768343925476,67.44877696037292 94.86655592918396,65.78853726387024 94.86655592918396,65.78853726387024 94.89284157752991,63.99952173233032 94.89284157752991,63.99952173233032 94.82607245445251,62.18057870864868 94.82607245445251,62.18057870864868 94.57560181617737,60.43034791946411 94.57560181617737,60.43034791946411 94.05094981193542,58.847445249557495 94.05094981193542,58.847445249557495 93.16164255142212,57.530659437179565 93.16164255142212,57.530659437179565 91.81719422340393,56.578528881073 91.81719422340393,56.578528881073 89.9269700050354,56.0900092124939 89.9269700050354,56.0900092124939 88.23302388191223,55.96429109573364 88.23302388191223,55.96429109573364 86.43553853034973,55.9548556804657 86.43553853034973,55.9548556804657 84.63595509529114,56.12049102783203 84.63595509529114,56.12049102783203 82.93572068214417,56.51998519897461 82.93572068214417,56.51998519897461 81.43660426139832,57.21204876899719 81.43660426139832,57.21204876899719 80.2400529384613,58.25546383857727 80.2400529384613,58.25546383857727 79.44783568382263,59.70909595489502 79.44783568382263,59.70909595489502 79.16107773780823,61.6316556930542 79.16107773780823,61.6316556930542 79.13817167282104,63.3375346660614 79.13817167282104,63.3375346660614 79.13140058517456,65.18840789794922 79.13140058517456,65.18840789794922 79.23333048820496,67.06936359405518 79.23333048820496,67.06936359405518 79.53718304634094,68.86563897132874 79.53718304634094,68.86563897132874 80.13522028923035,70.46257257461548 80.13522028923035,70.46257257461548 81.12065196037292,71.74524664878845 81.12065196037292,71.74524664878845 82.5859010219574,72.59899377822876 82.5859010219574,72.59899377822876 84.6240222454071,72.90914058685303 84.6240222454071,72.90914058685303 86.24264597892761,72.95970320701599 86.24264597892761,72.95970320701599 87.95352578163147,72.9326069355011 87.95352578163147,72.9326069355011 89.66150283813477,72.76188731193542 89.66150283813477,72.76188731193542 91.27190113067627,72.38166928291321 91.27190113067627,72.38166928291321 92.68973469734192,71.72605395317078 92.68973469734192,71.72605395317078 93.81967186927795,70.72941660881042 93.81967186927795,70.72941660881042 94.56737637519836,69.3255364894867 94.56737637519836,69.3255364894867" stroke="white" stroke-width="0.1" /><polygon points="73.82199764251709,25.93350112438202 73.82199764251709,25.93350112438202 73.82199764251709,25.93350112438202 73.82199764251709,25.93350112438202 80.33778667449951,41.6617214679718 80.33778667449951,41.6617214679718 79.72620725631714,41.75865054130554 79.72620725631714,41.75865054130554 79.13382053375244,41.91461205482483 79.13382053375244,41.91461205482483 78.56320142745972,42.12661683559418 78.56320142745972,42.12661683559418 78.0169427394867,42.3921674489975 78.0169427394867,42.3921674489975 77.4976134300232,42.70828068256378 77.4976134300232,42.70828068256378 77.00796127319336,43.07229220867157 77.00796127319336,43.07229220867157 76.55024528503418,43.48130524158478 76.55024528503418,43.48130524158478 76.12768411636353,43.93257200717926 76.12768411636353,43.93257200717926 75.81511735916138,44.320616126060486 75.81511735916138,44.320616126060486 75.52610039710999,44.72575485706329 75.52610039710999,44.72575485706329 75.25950074195862,45.14605700969696 75.25950074195862,45.14605700969696 75.01419186592102,45.5795019865036 75.01419186592102,45.5795019865036 74.78888034820557,46.024155616760254 74.78888034820557,46.024155616760254 74.582439661026,46.47808372974396 74.582439661026,46.47808372974396 74.39390420913696,46.9394326210022 74.39390420913696,46.9394326210022 74.22197461128235,47.40594029426575 74.22197461128235,47.40594029426575 74.12827014923096,47.68165051937103 74.12827014923096,47.68165051937103 74.03956651687622,47.95897603034973 74.03956651687622,47.95897603034973 73.95569682121277,48.23799431324005 73.95569682121277,48.23799431324005 73.87651205062866,48.51830303668976 73.87651205062866,48.51830303668976 73.80167245864868,48.7999826669693 73.80167245864868,48.7999826669693 73.73135685920715,49.0826278924942 73.73135685920715,49.0826278924942 73.66507053375244,49.36632215976715 73.66507053375244,49.36632215976715 73.60265254974365,49.6509850025177 73.60265254974365,49.6509850025177 73.51830005645752,49.95032548904419 73.51830005645752,49.95032548904419 73.40459823608398,50.2140998840332 73.40459823608398,50.2140998840332 73.26654195785522,50.45158863067627 73.26654195785522,50.45158863067627 73.10832142829895,50.672221183776855 73.10832142829895,50.672221183776855 72.9349434375763,50.8853554725647 72.9349434375763,50.8853554725647 72.75075912475586,51.10042691230774 72.75075912475586,51.10042691230774 72.5607693195343,51.32654309272766 72.5607693195343,51.32654309272766 72.36917018890381,51.57346725463867 72.36917018890381,51.57346725463867 71.67258858680725,52.672767639160156 71.67258858680725,52.672767639160156 71.1540699005127,53.8002073764801 71.1540699005127,53.8002073764801 70.78731656074524,54.95385527610779 70.78731656074524,54.95385527610779 70.54635882377625,56.13153576850891 70.54635882377625,56.13153576850891 70.40475606918335,57.33131766319275 70.40475606918335,57.33131766319275 70.33604979515076,58.55125188827515 70.33604979515076,58.55125188827515 70.31378746032715,59.789252281188965 70.31378746032715,59.789252281188965 70.3125,61.04329824447632 70.3125,61.04329824447632 70.3125,81.27774000167847 70.3125,81.27774000167847 70.09170651435852,81.63578510284424 70.09170651435852,81.63578510284424 69.50350999832153,82.0293128490448 69.50350999832153,82.0293128490448 68.65807175636292,82.43768215179443 68.65807175636292,82.43768215179443 67.66634583473206,82.83991813659668 67.66634583473206,82.83991813659668 66.6388213634491,83.21530222892761 66.6388213634491,83.21530222892761 65.68628549575806,83.54310989379883 65.68628549575806,83.54310989379883 64.91922736167908,83.80228877067566 64.91922736167908,83.80228877067566 64.44828510284424,83.97244215011597 64.44828510284424,83.97244215011597 49.100691080093384,90.32888412475586 49.100691080093384,90.32888412475586 33.564719557762146,96.76403999328613 33.564719557762146,96.76403999328613 32.583802938461304,97.18998670578003 32.583802938461304,97.18998670578003 31.57772421836853,97.65189290046692 31.57772421836853,97.65189290046692 30.551326274871826,98.12751412391663 30.551326274871826,98.12751412391663 29.509282112121582,98.59410524368286 29.509282112121582,98.59410524368286 28.456595540046692,99.02940392494202 28.456595540046692,99.02940392494202 27.397939562797546,99.41075444221497 27.397939562797546,99.41075444221497 26.338478922843933,99.71582293510437 26.338478922843933,99.71582293510437 25.282564759254456,99.92194175720215 25.282564759254456,99.92194175720215 23.926346004009247,99.99629259109497 23.926346004009247,99.99629259109497 22.595608234405518,99.84298944473267 22.595608234405518,99.84298944473267 21.316319704055786,99.47720170021057 21.316319704055786,99.47720170021057 20.11525183916092,98.91376495361328 20.11525183916092,98.91376495361328 19.018372893333435,98.1675922870636 19.018372893333435,98.1675922870636 18.052293360233307,97.25369215011597 18.052293360233307,97.25369215011597 17.243142426013947,96.18688821792603 17.243142426013947,96.18688821792603 16.61720722913742,94.9821949005127 16.61720722913742,94.9821949005127 16.474956274032593,94.63962912559509 16.474956274032593,94.63962912559509 16.33302867412567,94.29706931114197 16.33302867412567,94.29706931114197 16.190938651561737,93.95442605018616 16.190938651561737,93.95442605018616 16.049011051654816,93.61186027526855 16.049011051654816,93.61186027526855 15.907081961631775,93.26921701431274 15.907081961631775,93.26921701431274 15.765315294265747,92.92649626731873 15.765315294265747,92.92649626731873 15.62354862689972,92.58385300636292 15.62354862689972,92.58385300636292 15.481781959533691,92.24104285240173 15.481781959533691,92.24104285240173 9.658855944871902,78.18628549575806 9.658855944871902,78.18628549575806 3.1146779656410217,62.38839030265808 3.1146779656410217,62.38839030265808 2.5971239432692528,61.20039224624634 2.5971239432692528,61.20039224624634 2.030540443956852,59.95658040046692 2.030540443956852,59.95658040046692 1.4591182582080364,58.67003798484802 1.4591182582080364,58.67003798484802 0.9268876165151596,57.35373497009277 0.9268876165151596,57.35373497009277 0.4777172580361366,56.02082014083862 0.4777172580361366,56.02082014083862 0.15579841565340757,54.684436321258545 0.15579841565340757,54.684436321258545 0.005161024091648869,53.357648849487305 0.005161024091648869,53.357648849487305 0.0696738250553608,52.05343961715698 0.0696738250553608,52.05343961715698 0.9109207428991795,52.90864109992981 0.9109207428991795,52.90864109992981 1.8466789275407791,53.66513133049011 1.8466789275407791,53.66513133049011 2.8572719544172287,54.33896780014038 2.8572719544172287,54.33896780014038 3.922862187027931,54.94611859321594 3.922862187027931,54.94611859321594 5.023934319615364,55.50253987312317 5.023934319615364,55.50253987312317 6.140328198671341,56.024205684661865 6.140328198671341,56.024205684661865 7.252206653356552,56.527161598205566 7.252206653356552,56.527161598205566 8.340214937925339,57.02738165855408 8.340214937925339,57.02738165855408 20.342175662517548,62.68644332885742 20.342175662517548,62.68644332885742 32.92475342750549,68.61968636512756 32.92475342750549,68.61968636512756 33.79438519477844,69.0386950969696 33.79438519477844,69.0386950969696 34.667566418647766,69.47117447853088 34.667566418647766,69.47117447853088 35.54558455944061,69.90800499916077 35.54558455944061,69.90800499916077 36.42876446247101,70.33975720405579 36.42876446247101,70.33975720405579 37.31807470321655,70.75715661048889 37.31807470321655,70.75715661048889 38.21447789669037,71.15100622177124 38.21447789669037,71.15100622177124 39.11862671375275,71.51187062263489 39.11862671375275,71.51187062263489 40.03148078918457,71.83048725128174 40.03148078918457,71.83048725128174 42.91165471076965,72.44448661804199 42.91165471076965,72.44448661804199 45.71457505226135,72.45569825172424 45.71457505226135,72.45569825172424 48.38685691356659,71.91120982170105 48.38685691356659,71.91120982170105 50.87447166442871,70.85771560668945 50.87447166442871,70.85771560668945 53.12371253967285,69.3422257900238 53.12371253967285,69.3422257900238 55.080705881118774,67.41160154342651 55.080705881118774,67.41160154342651 56.69159293174744,65.11268615722656 56.69159293174744,65.11268615722656 57.90281891822815,62.49225735664368 57.90281891822815,62.49225735664368 62.17227578163147,50.6044864654541 62.17227578163147,50.6044864654541 68.05455088615417,34.22274887561798 68.05455088615417,34.22274887561798 68.56613755226135,32.86265730857849 68.56613755226135,32.86265730857849 69.12127137184143,31.447327136993408 69.12127137184143,31.447327136993408 69.680917263031,29.990792274475098 69.680917263031,29.990792274475098 70.20670175552368,28.507238626480103 70.20670175552368,28.507238626480103 70.65989971160889,27.010944485664368 70.65989971160889,27.010944485664368 71.00182175636292,25.515860319137573 71.00182175636292,25.515860319137573 71.19390368461609,24.036340415477753 71.19390368461609,24.036340415477753 71.1976170539856,22.586576640605927 71.1976170539856,22.586576640605927 71.61888480186462,22.92252629995346 71.61888480186462,22.92252629995346 72.0166027545929,23.285087943077087 72.0166027545929,23.285087943077087 72.38932847976685,23.672568798065186 72.38932847976685,23.672568798065186 72.73527979850769,24.08367693424225 72.73527979850769,24.08367693424225 73.05300235748291,24.516798555850983 73.05300235748291,24.516798555850983 73.34121465682983,24.970485270023346 73.34121465682983,24.970485270023346 73.59797358512878,25.443202257156372 73.59797358512878,25.443202257156372" stroke="white" stroke-width="0.1" /><polygon points="3.2359618693590164,45.6086128950119 3.2359618693590164,45.6086128950119 3.2359618693590164,45.6086128950119 3.2359618693590164,45.6086128950119 2.741148881614208,45.36459445953369 2.741148881614208,45.36459445953369 2.4281004443764687,44.97525990009308 2.4281004443764687,44.97525990009308 2.2661734372377396,44.47818696498871 2.2661734372377396,44.47818696498871 2.2252077236771584,43.91103982925415 2.2252077236771584,43.91103982925415 2.2747213020920753,43.3117151260376 2.2747213020920753,43.3117151260376 2.384554408490658,42.71771311759949 2.384554408490658,42.71771311759949 2.524063363671303,42.167097330093384 2.524063363671303,42.167097330093384 2.6630884036421776,41.69720411300659 2.6630884036421776,41.69720411300659 3.7078730762004852,38.433340191841125 3.7078730762004852,38.433340191841125 4.814106225967407,35.18342673778534 4.814106225967407,35.18342673778534 5.9672728180885315,31.944963335990906 5.9672728180885315,31.944963335990906 7.153340429067612,28.715452551841736 7.153340429067612,28.715452551841736 8.357955515384674,25.492072105407715 8.357955515384674,25.492072105407715 9.566441923379898,22.272318601608276 9.566441923379898,22.272318601608276 10.764928162097931,19.05369460582733 10.764928162097931,19.05369460582733 11.938738822937012,15.833376348018646 11.938738822937012,15.833376348018646 15.450815856456757,6.05517141520977 15.450815856456757,6.05517141520977 16.11110419034958,4.608955606818199 16.11110419034958,4.608955606818199 16.984768211841583,3.319264203310013 16.984768211841583,3.319264203310013 18.04535835981369,2.208595722913742 18.04535835981369,2.208595722913742 19.266746938228607,1.2991265393793583 19.266746938228607,1.2991265393793583 20.62232345342636,0.6132747977972031 20.62232345342636,0.6132747977972031 22.085796296596527,0.1733781537041068 22.085796296596527,0.1733781537041068 23.630715906620026,0.001693460944807157 23.630715906620026,0.001693460944807157 25.230956077575684,0.1206389395520091 25.230956077575684,0.1206389395520091 25.798508524894714,0.23756837472319603 25.798508524894714,0.23756837472319603 26.352187991142273,0.39127012714743614 26.352187991142273,0.39127012714743614 26.894095540046692,0.5756960716098547 26.894095540046692,0.5756960716098547 27.426809072494507,0.7847982458770275 27.426809072494507,0.7847982458770275 27.952751517295837,1.012528408318758 27.952751517295837,1.012528408318758 28.474175930023193,1.252838596701622 28.474175930023193,1.252838596701622 28.993666172027588,1.4996806159615517 28.993666172027588,1.4996806159615517 29.513314366340637,1.7470065504312515 29.513314366340637,1.7470065504312515 57.833147048950195,15.101800858974457 57.833147048950195,15.101800858974457 58.26812386512756,15.306952595710754 58.26812386512756,15.306952595710754 58.70310068130493,15.512102842330933 58.70310068130493,15.512102842330933 59.1380774974823,15.71725308895111 59.1380774974823,15.71725308895111 59.57305431365967,15.922403335571289 59.57305431365967,15.922403335571289 60.00819206237793,16.127555072307587 60.00819206237793,16.127555072307587 60.443007946014404,16.332705318927765 60.443007946014404,16.332705318927765 60.87798476219177,16.53793603181839 60.87798476219177,16.53793603181839 61.31296157836914,16.74300730228424 61.31296157836914,16.74300730228424 61.710041761398315,16.934287548065186 61.710041761398315,16.934287548065186 62.10598945617676,17.136050760746002 62.10598945617676,17.136050760746002 62.49661445617676,17.35120117664337 62.49661445617676,17.35120117664337 62.87772059440613,17.582722008228302 62.87772059440613,17.582722008228302 63.245123624801636,17.83343404531479 63.245123624801636,17.83343404531479 63.59478235244751,18.106403946876526 63.59478235244751,18.106403946876526 63.92234563827515,18.404453992843628 63.92234563827515,18.404453992843628 64.22378420829773,18.73064637184143 64.22378420829773,18.73064637184143 64.51747417449951,19.220539927482605 64.51747417449951,19.220539927482605 64.58408832550049,19.686806201934814 64.58408832550049,19.686806201934814 64.46457505226135,20.125816762447357 64.46457505226135,20.125816762447357 64.20023441314697,20.533859729766846 64.20023441314697,20.533859729766846 63.8318657875061,20.907388627529144 63.8318657875061,20.907388627529144 63.40075731277466,21.242612600326538 63.40075731277466,21.242612600326538 62.94772028923035,21.536065638065338 62.94772028923035,21.536065638065338 62.51419186592102,21.784037351608276 62.51419186592102,21.784037351608276 61.696815490722656,22.20716029405594 61.696815490722656,22.20716029405594 60.8587920665741,22.60044664144516 60.8587920665741,22.60044664144516 60.00496745109558,22.970104217529297 60.00496745109558,22.970104217529297 59.141141176223755,23.322345316410065 59.141141176223755,23.322345316410065 58.27215313911438,23.663294315338135 58.27215313911438,23.663294315338135 57.403647899627686,23.99924546480179 57.403647899627686,23.99924546480179 56.540632247924805,24.336324632167816 56.540632247924805,24.336324632167816 55.68873882293701,24.680662155151367 55.68873882293701,24.680662155151367 24.736787378787994,37.500643730163574 24.736787378787994,37.500643730163574 11.272966861724854,43.07842254638672 11.272966861724854,43.07842254638672 10.42107492685318,43.45477223396301 10.42107492685318,43.45477223396301 9.455318748950958,43.90483200550079 9.455318748950958,43.90483200550079 8.4111787378788,44.38295066356659 8.4111787378788,44.38295066356659 7.323170453310013,44.84405517578125 7.323170453310013,44.84405517578125 6.2266141176223755,45.24258375167847 6.2266141176223755,45.24258375167847 5.156508088111877,45.53305208683014 5.156508088111877,45.53305208683014 4.148011654615402,45.67014276981354 4.148011654615402,45.67014276981354" stroke="white" stroke-width="0.1" /><polygon points="73.82199764251709,25.93350112438202 73.82199764251709,25.93350112438202 80.33778667449951,41.6617214679718 79.72620725631714,41.75865054130554 79.13382053375244,41.91461205482483 78.56320142745972,42.12661683559418 78.0169427394867,42.3921674489975 77.4976134300232,42.70828068256378 77.00796127319336,43.07229220867157 76.55024528503418,43.48130524158478 76.12768411636353,43.93257200717926 75.81511735916138,44.320616126060486 75.52610039710999,44.72575485706329 75.25950074195862,45.14605700969696 75.01419186592102,45.5795019865036 74.78888034820557,46.024155616760254 74.582439661026,46.47808372974396 74.39390420913696,46.9394326210022 74.22197461128235,47.40594029426575 74.12827014923096,47.68165051937103 74.03956651687622,47.95897603034973 73.95569682121277,48.23799431324005 73.87651205062866,48.51830303668976 73.80167245864868,48.7999826669693 73.73135685920715,49.0826278924942 73.66507053375244,49.36632215976715 73.60265254974365,49.6509850025177 73.51830005645752,49.95032548904419 73.40459823608398,50.2140998840332 73.26654195785522,50.45158863067627 73.10832142829895,50.672221183776855 72.9349434375763,50.8853554725647 72.75075912475586,51.10042691230774 72.5607693195343,51.32654309272766 72.36917018890381,51.57346725463867 71.67258858680725,52.672767639160156 71.1540699005127,53.8002073764801 70.78731656074524,54.95385527610779 70.54635882377625,56.13153576850891 70.40475606918335,57.33131766319275 70.33604979515076,58.55125188827515 70.31378746032715,59.789252281188965 70.3125,61.04329824447632 70.3125,81.27774000167847 70.09170651435852,81.63578510284424 69.50350999832153,82.0293128490448 68.65807175636292,82.43768215179443 67.66634583473206,82.83991813659668 66.6388213634491,83.21530222892761 65.68628549575806,83.54310989379883 64.91922736167908,83.80228877067566 64.44828510284424,83.97244215011597 49.100691080093384,90.32888412475586 33.564719557762146,96.76403999328613 32.583802938461304,97.18998670578003 31.57772421836853,97.65189290046692 30.551326274871826,98.12751412391663 29.509282112121582,98.59410524368286 28.456595540046692,99.02940392494202 27.397939562797546,99.41075444221497 26.338478922843933,99.71582293510437 25.282564759254456,99.92194175720215 23.926346004009247,99.99629259109497 22.595608234405518,99.84298944473267 21.316319704055786,99.47720170021057 20.11525183916092,98.91376495361328 19.018372893333435,98.1675922870636 18.052293360233307,97.25369215011597 17.243142426013947,96.18688821792603 16.61720722913742,94.9821949005127 16.474956274032593,94.63962912559509 16.33302867412567,94.29706931114197 16.190938651561737,93.95442605018616 16.049011051654816,93.61186027526855 15.907081961631775,93.26921701431274 15.765315294265747,92.92649626731873 15.62354862689972,92.58385300636292 15.481781959533691,92.24104285240173 9.658855944871902,78.18628549575806 3.1146779656410217,62.38839030265808 2.5971239432692528,61.20039224624634 2.030540443956852,59.95658040046692 1.4591182582080364,58.67003798484802 0.9268876165151596,57.35373497009277 0.4777172580361366,56.02082014083862 0.15579841565340757,54.684436321258545 0.005161024091648869,53.357648849487305 0.0696738250553608,52.05343961715698 0.9109207428991795,52.90864109992981 1.8466789275407791,53.66513133049011 2.8572719544172287,54.33896780014038 3.922862187027931,54.94611859321594 5.023934319615364,55.50253987312317 6.140328198671341,56.024205684661865 7.252206653356552,56.527161598205566 8.340214937925339,57.02738165855408 20.342175662517548,62.68644332885742 32.92475342750549,68.61968636512756 33.79438519477844,69.0386950969696 34.667566418647766,69.47117447853088 35.54558455944061,69.90800499916077 36.42876446247101,70.33975720405579 37.31807470321655,70.75715661048889 38.21447789669037,71.15100622177124 39.11862671375275,71.51187062263489 40.03148078918457,71.83048725128174 42.91165471076965,72.44448661804199 45.71457505226135,72.45569825172424 48.38685691356659,71.91120982170105 50.87447166442871,70.85771560668945 53.12371253967285,69.3422257900238 55.080705881118774,67.41160154342651 56.69159293174744,65.11268615722656 57.90281891822815,62.49225735664368 62.17227578163147,50.6044864654541 68.05455088615417,34.22274887561798 68.56613755226135,32.86265730857849 69.12127137184143,31.447327136993408 69.680917263031,29.990792274475098 70.20670175552368,28.507238626480103 70.65989971160889,27.010944485664368 71.00182175636292,25.515860319137573 71.19390368461609,24.036340415477753 71.1976170539856,22.586576640605927 71.61888480186462,22.92252629995346 72.0166027545929,23.285087943077087 72.38932847976685,23.672568798065186 72.73527979850769,24.08367693424225 73.05300235748291,24.516798555850983 73.34121465682983,24.970485270023346 73.59797358512878,25.443202257156372" stroke="white" stroke-width="0.1" /><polygon points="3.2359618693590164,45.6086128950119 3.2359618693590164,45.6086128950119 2.741148881614208,45.36459445953369 2.4281004443764687,44.97525990009308 2.2661734372377396,44.47818696498871 2.2252077236771584,43.91103982925415 2.2747213020920753,43.3117151260376 2.384554408490658,42.71771311759949 2.524063363671303,42.167097330093384 2.6630884036421776,41.69720411300659 3.7078730762004852,38.433340191841125 4.814106225967407,35.18342673778534 5.9672728180885315,31.944963335990906 7.153340429067612,28.715452551841736 8.357955515384674,25.492072105407715 9.566441923379898,22.272318601608276 10.764928162097931,19.05369460582733 11.938738822937012,15.833376348018646 15.450815856456757,6.05517141520977 16.11110419034958,4.608955606818199 16.984768211841583,3.319264203310013 18.04535835981369,2.208595722913742 19.266746938228607,1.2991265393793583 20.62232345342636,0.6132747977972031 22.085796296596527,0.1733781537041068 23.630715906620026,0.001693460944807157 25.230956077575684,0.1206389395520091 25.798508524894714,0.23756837472319603 26.352187991142273,0.39127012714743614 26.894095540046692,0.5756960716098547 27.426809072494507,0.7847982458770275 27.952751517295837,1.012528408318758 28.474175930023193,1.252838596701622 28.993666172027588,1.4996806159615517 29.513314366340637,1.7470065504312515 57.833147048950195,15.101800858974457 58.26812386512756,15.306952595710754 58.70310068130493,15.512102842330933 59.1380774974823,15.71725308895111 59.57305431365967,15.922403335571289 60.00819206237793,16.127555072307587 60.443007946014404,16.332705318927765 60.87798476219177,16.53793603181839 61.31296157836914,16.74300730228424 61.710041761398315,16.934287548065186 62.10598945617676,17.136050760746002 62.49661445617676,17.35120117664337 62.87772059440613,17.582722008228302 63.245123624801636,17.83343404531479 63.59478235244751,18.106403946876526 63.92234563827515,18.404453992843628 64.22378420829773,18.73064637184143 64.51747417449951,19.220539927482605 64.58408832550049,19.686806201934814 64.46457505226135,20.125816762447357 64.20023441314697,20.533859729766846 63.8318657875061,20.907388627529144 63.40075731277466,21.242612600326538 62.94772028923035,21.536065638065338 62.51419186592102,21.784037351608276 61.696815490722656,22.20716029405594 60.8587920665741,22.60044664144516 60.00496745109558,22.970104217529297 59.141141176223755,23.322345316410065 58.27215313911438,23.663294315338135 57.403647899627686,23.99924546480179 56.540632247924805,24.336324632167816 55.68873882293701,24.680662155151367 24.736787378787994,37.500643730163574 11.272966861724854,43.07842254638672 10.42107492685318,43.45477223396301 9.455318748950958,43.90483200550079 8.4111787378788,44.38295066356659 7.323170453310013,44.84405517578125 6.2266141176223755,45.24258375167847 5.156508088111877,45.53305208683014 4.148011654615402,45.67014276981354" stroke="white" stroke-width="0.1" /><polygon points="92.94100999832153,52.42503881454468 92.94100999832153,52.42503881454468 94.97058391571045,52.728646993637085 96.43147587776184,53.56489419937134 97.41594195365906,54.822248220443726 98.0154275894165,56.3890278339386 98.32202196121216,58.1535279750824 98.4271764755249,60.00424027442932 94.83768343925476,67.44877696037292 94.83768343925476,67.44877696037292 94.86655592918396,65.78853726387024 94.89284157752991,63.99952173233032 94.82607245445251,62.18057870864868 94.57560181617737,60.43034791946411 94.05094981193542,58.847445249557495 93.16164255142212,57.530659437179565 91.81719422340393,56.578528881073 89.9269700050354,56.0900092124939 88.23302388191223,55.96429109573364 86.43553853034973,55.9548556804657 84.63595509529114,56.12049102783203 82.93572068214417,56.51998519897461 81.43660426139832,57.21204876899719 80.2400529384613,58.25546383857727 79.44783568382263,59.70909595489502 79.16107773780823,61.6316556930542 79.13817167282104,63.3375346660614 79.13140058517456,65.18840789794922 79.23333048820496,67.06936359405518 79.53718304634094,68.86563897132874 80.13522028923035,70.46257257461548 81.12065196037292,71.74524664878845 82.5859010219574,72.59899377822876 84.6240222454071,72.90914058685303 86.24264597892761,72.95970320701599 87.95352578163147,72.9326069355011 89.66150283813477,72.76188731193542 91.27190113067627,72.38166928291321 92.68973469734192,71.72605395317078 93.81967186927795,70.72941660881042 94.56737637519836,69.3255364894867 94.83768343925476,67.44877696037292 98.4271764755249,60.00424027442932 98.42314720153809,61.82938814163208 98.40137362480164,63.51736783981323 98.40137362480164,79.70685362815857 98.40137362480164,83.59503746032715 98.28267097473145,84.77844595909119 97.94284701347351,85.8541190624237 97.40561842918396,86.80664896965027 96.69485092163086,87.6205563545227 95.83441019058228,88.28044533729553 94.84865069389343,88.77090215682983 93.76080632209778,89.07653093338013 92.59521961212158,89.18184638023376 85.38268804550171,89.18184638023376 84.63708162307739,89.1954779624939 83.85648131370544,89.22563791275024 83.05377960205078,89.2560362815857 82.24172592163086,89.27006721496582 81.43354058265686,89.2517626285553 80.64180612564087,89.18458819389343 79.87974882125854,89.05225992202759 79.1597843170166,88.83864283561707 77.6513159275055,87.99013495445251 76.61136984825134,86.81704998016357 75.9580135345459,85.39212346076965 75.60819387435913,83.78777503967285 75.47965049743652,82.07648992538452 75.49013495445251,80.33101558685303 75.55674314498901,78.6236822605133 75.59738755226135,77.02699303627014 75.59738755226135,60.70783734321594 75.58932304382324,60.01190543174744 75.57609677314758,59.30500626564026 75.57432651519775,58.593589067459106 75.60045123100281,57.88419246673584 75.6710946559906,57.18325972557068 75.80254077911377,56.49740695953369 76.011723279953,55.832844972610474 76.31477117538452,55.1965057849884 76.57378911972046,54.826122522354126 76.8866777420044,54.4857382774353 77.22859382629395,54.164302349090576 77.57406234741211,53.85109186172485 77.89807915687561,53.535062074661255 78.17531824111938,53.20531725883484 78.3806324005127,52.85106301307678 78.4888505935669,52.46116518974304 78.54626774787903,52.03424692153931 78.61158847808838,51.607656478881836 78.6859393119812,51.1821985244751 78.77077460289001,50.7584273815155 78.86689901351929,50.33724308013916 78.97543907165527,49.91943836212158 79.09769415855408,49.50567185878754 79.2346179485321,49.09681975841522 79.38703298568726,48.706355690956116 79.59476113319397,48.260411620140076 79.85394597053528,47.80874252319336 80.16021847724915,47.40101993083954 80.50971627235413,47.08700478076935 80.89872598648071,46.91652953624725 81.32257461547852,46.93919122219086 81.7777156829834,47.20466136932373 82.04399347305298,47.47021198272705 82.27527141571045,47.77269661426544 82.47541785240173,48.10405075550079 82.64799118041992,48.45637083053589 82.79685378074646,48.82159233093262 82.92604088783264,49.19165372848511 83.03861618041992,49.55849051475525 83.13893675804138,49.914199113845825 83.20199847221375,50.22805333137512 83.25215578079224,50.60915946960449 83.3029568195343,51.023900508880615 83.36795568466187,51.43863558769226 83.460533618927,51.81974768638611 83.59407186508179,52.133601903915405 83.78212451934814,52.34657526016235 84.038245677948,52.42503881454468 86.53230667114258,52.42503881454468" stroke="white" stroke-width="0.1" /></svg>