<?xml version="1.0" encoding="utf-8" ?>
<svg baseProfile="full" height="78.34439873695374" version="1.1" width="99.99886751174927" xmlns="http://www.w3.org/2000/svg" xmlns:ev="http://www.w3.org/2001/xml-events" xmlns:xlink="http://www.w3.org/1999/xlink"><defs><clipPath /></defs><polygon points="6.785103678703308,28.448879718780518 6.785103678703308,28.448879718780518 6.785103678703308,28.448879718780518 6.785103678703308,28.448879718780518 6.412667781114578,28.2675564289093 6.412667781114578,28.2675564289093 5.904756113886833,27.999964356422424 5.904756113886833,27.999964356422424 5.3263552486896515,27.66014337539673 5.3263552486896515,27.66014337539673 4.742288962006569,27.262133359909058 4.742288962006569,27.262133359909058 4.217382147908211,26.81993544101715 4.217382147908211,26.81993544101715 3.8164589554071426,26.347550749778748 3.8164589554071426,26.347550749778748 3.60458642244339,25.859063863754272 3.60458642244339,25.859063863754272 3.6463458091020584,25.36838948726654 3.6463458091020584,25.36838948726654 4.127712920308113,24.610649049282074 4.127712920308113,24.610649049282074 4.894435778260231,23.931977152824402 4.894435778260231,23.931977152824402 5.870037525892258,23.326626420021057 5.870037525892258,23.326626420021057 6.9778770208358765,22.7886900305748 6.9778770208358765,22.7886900305748 8.14155787229538,22.312261164188385 8.14155787229538,22.312261164188385 9.28444042801857,21.891550719738007 9.28444042801857,21.891550719738007 10.330045223236084,21.520651876926422 10.330045223236084,21.520651876926422 11.201895773410797,21.193738281726837 11.201895773410797,21.193738281726837 24.63614195585251,15.765655040740967 24.63614195585251,15.765655040740967 55.91365694999695,3.1290464103221893 55.91365694999695,3.1290464103221893 56.72934651374817,2.794485166668892 56.72934651374817,2.794485166668892 57.544463872909546,2.4538541212677956 57.544463872909546,2.4538541212677956 58.3598256111145,2.110876329243183 58.3598256111145,2.110876329243183 59.1763973236084,1.769435964524746 59.1763973236084,1.769435964524746 59.995001554489136,1.433337014168501 59.995001554489136,1.433337014168501 60.816675424575806,1.106383092701435 60.816675424575806,1.106383092701435 61.64199113845825,0.7924586534500122 61.64199113845825,0.7924586534500122 62.472158670425415,0.49528670497238636 62.472158670425415,0.49528670497238636 62.98702955245972,0.3278037067502737 62.98702955245972,0.3278037067502737 63.58461380004883,0.16570253064855933 63.58461380004883,0.16570253064855933 64.22039270401001,0.04451105778571218 64.22039270401001,0.04451105778571218 64.85034823417664,-0.00016185839513127576 64.85034823417664,-0.00016185839513127576 65.43003916740417,0.06729262531735003 65.43003916740417,0.06729262531735003 65.91529250144958,0.2824024297297001 65.91529250144958,0.2824024297297001 66.2618339061737,0.6808168720453978 66.2618339061737,0.6808168720453978 66.42538905143738,1.2981043197214603 66.42538905143738,1.2981043197214603 66.43930673599243,1.735607534646988 66.43930673599243,1.735607534646988 66.41632318496704,2.1723823621869087 66.41632318496704,2.1723823621869087 66.36105179786682,2.6073768734931946 66.36105179786682,2.6073768734931946 66.27810001373291,3.0393769964575768 66.27810001373291,3.0393769964575768 66.1723256111145,3.467411547899246 66.1723256111145,3.467411547899246 66.04809761047363,3.890347480773926 66.04809761047363,3.890347480773926 65.91035723686218,4.3070923537015915 65.91035723686218,4.3070923537015915 65.76371192932129,4.7165535390377045 65.76371192932129,4.7165535390377045 65.60484766960144,5.147744342684746 65.60484766960144,5.147744342684746 65.44590592384338,5.578935146331787 65.44590592384338,5.578935146331787 65.28695821762085,6.010125949978828 65.28695821762085,6.010125949978828 65.12777209281921,6.44131675362587 65.12777209281921,6.44131675362587 64.96866345405579,6.872507184743881 64.96866345405579,6.872507184743881 64.80939388275146,7.303698360919952 64.80939388275146,7.303698360919952 64.65012431144714,7.734888792037964 64.65012431144714,7.734888792037964 64.4908607006073,8.166079968214035 64.4908607006073,8.166079968214035 53.59455347061157,37.69682049751282 53.59455347061157,37.69682049751282 53.43026518821716,38.14949691295624 53.43026518821716,38.14949691295624 53.26727628707886,38.60553205013275 53.26727628707886,38.60553205013275 53.101933002471924,39.06237781047821 53.101933002471924,39.06237781047821 52.93060541152954,39.51740264892578 52.93060541152954,39.51740264892578 52.74965167045593,39.96809720993042 52.74965167045593,39.96809720993042 52.55558490753174,40.41179120540619 52.55558490753174,40.41179120540619 52.3445188999176,40.84597826004028 52.3445188999176,40.84597826004028 52.1132230758667,41.268062591552734 52.1132230758667,41.268062591552734 51.101285219192505,42.667168378829956 51.101285219192505,42.667168378829956 49.879252910614014,43.805599212646484 49.879252910614014,43.805599212646484 48.48848581314087,44.67490017414093 48.48848581314087,44.67490017414093 46.97049558162689,45.266613364219666 46.97049558162689,45.266613364219666 45.36672234535217,45.57236433029175 45.36672234535217,45.57236433029175 43.71868073940277,45.583611726760864 43.71868073940277,45.583611726760864 42.0678049325943,45.29198408126831 42.0678049325943,45.29198408126831 40.45553505420685,44.68910098075867 40.45553505420685,44.68910098075867 31.34225904941559,40.29302895069122 31.34225904941559,40.29302895069122" stroke="white" stroke-width="0.1" /><polygon points="71.93634510040283,46.325814723968506 71.93634510040283,46.325814723968506 71.93634510040283,46.325814723968506 71.93634510040283,46.325814723968506 72.49605059623718,46.83878421783447 72.49605059623718,46.83878421783447 73.0661153793335,47.390761971473694 73.0661153793335,47.390761971473694 73.63132834434509,47.976770997047424 73.63132834434509,47.976770997047424 74.17694926261902,48.59199523925781 74.17694926261902,48.59199523925781 74.68810081481934,49.231576919555664 74.68810081481934,49.231576919555664 75.1497209072113,49.890583753585815 75.1497209072113,49.890583753585815 75.54692029953003,50.56427717208862 75.54692029953003,50.56427717208862 75.86497068405151,51.247602701187134 75.86497068405151,51.247602701187134 76.0378360748291,51.6706645488739 76.0378360748291,51.6706645488739 76.21798515319824,52.09076404571533 76.21798515319824,52.09076404571533 76.40557885169983,52.507591247558594 76.40557885169983,52.507591247558594 76.60093903541565,52.920734882354736 76.60093903541565,52.920734882354736 76.80456042289734,53.32983136177063 76.80456042289734,53.32983136177063 77.01667547225952,53.73443961143494 77.01667547225952,53.73443961143494 77.23768949508667,54.134225845336914 77.23768949508667,54.134225845336914 77.46801972389221,54.528796672821045 77.46801972389221,54.528796672821045 77.57532596588135,54.7044575214386 77.57532596588135,54.7044575214386 77.68458127975464,54.87881898880005 77.68458127975464,54.87881898880005 77.7958631515503,55.05192279815674 77.7958631515503,55.05192279815674 77.90924310684204,55.223655700683594 77.90924310684204,55.223655700683594 78.02464962005615,55.39401173591614 78.02464962005615,55.39401173591614 78.14215421676636,55.56287169456482 78.14215421676636,55.56287169456482 78.26176881790161,55.730271339416504 78.26176881790161,55.730271339416504 78.38348746299744,55.896174907684326 78.38348746299744,55.896174907684326 78.25578451156616,55.98588585853577 78.25578451156616,55.98588585853577 78.12936902046204,56.0772180557251 78.12936902046204,56.0772180557251 78.00400853157043,56.17020130157471 78.00400853157043,56.17020130157471 77.87978649139404,56.264728307724 77.87978649139404,56.264728307724 77.7568519115448,56.360793113708496 77.7568519115448,56.360793113708496 77.63505578041077,56.45827054977417 77.63505578041077,56.45827054977417 77.51463055610657,56.55720829963684 77.51463055610657,56.55720829963684 77.39550471305847,56.65755867958069 77.39550471305847,56.65755867958069 77.06029415130615,56.950682401657104 77.06029415130615,56.950682401657104 76.77769064903259,57.20512866973877 76.77769064903259,57.20512866973877 76.52859091758728,57.42763876914978 76.52859091758728,57.42763876914978 76.29356980323792,57.62482285499573 76.29356980323792,57.62482285499573 76.05353593826294,57.80331492424011 76.05353593826294,57.80331492424011 75.78905820846558,57.96974301338196 75.78905820846558,57.96974301338196 75.48112273216248,58.13071131706238 75.48112273216248,58.13071131706238 75.11006593704224,58.2929790019989 75.11006593704224,58.2929790019989 47.608381509780884,69.40423250198364 47.608381509780884,69.40423250198364 32.70446062088013,75.42665600776672 32.70446062088013,75.42665600776672 31.786316633224487,75.81503987312317 31.786316633224487,75.81503987312317 30.845031142234802,76.2351393699646 30.845031142234802,76.2351393699646 29.88520860671997,76.66665315628052 29.88520860671997,76.66665315628052 28.9111465215683,77.08926796913147 28.9111465215683,77.08926796913147 27.927371859550476,77.48242020606995 27.927371859550476,77.48242020606995 26.938417553901672,77.82588601112366 26.938417553901672,77.82588601112366 25.94848871231079,78.09914350509644 25.94848871231079,78.09914350509644 24.962449073791504,78.28184366226196 24.962449073791504,78.28184366226196 23.600895702838898,78.34439873695374 23.600895702838898,78.34439873695374 22.266697883605957,78.1789779663086 22.266697883605957,78.1789779663086 20.986074209213257,77.80071496963501 20.986074209213257,77.80071496963501 19.785408675670624,77.22490429878235 19.785408675670624,77.22490429878235 18.69100332260132,76.4665961265564 18.69100332260132,76.4665961265564 17.729240655899048,75.54104924201965 17.729240655899048,75.54104924201965 16.926422715187073,74.46331977844238 16.926422715187073,74.46331977844238 16.308851540088654,73.248690366745 16.308851540088654,73.248690366745 16.169491410255432,72.90385365486145 16.169491410255432,72.90385365486145 16.03013128042221,72.55897521972656 16.03013128042221,72.55897521972656 15.89077115058899,72.21397161483765 15.89077115058899,72.21397161483765 15.751411020755768,71.86884880065918 15.751411020755768,71.86884880065918 15.612050890922546,71.52372598648071 15.612050890922546,71.52372598648071 15.472690761089325,71.1784839630127 15.472690761089325,71.1784839630127 15.333330631256104,70.83331942558289 15.333330631256104,70.83331942558289 15.193970501422882,70.48803567886353 15.193970501422882,70.48803567886353 9.474542737007141,56.33254647254944 9.474542737007141,56.33254647254944 3.0468223616480827,40.421220660209656 3.0468223616480827,40.421220660209656 2.537858672440052,39.224156737327576 2.537858672440052,39.224156737327576 1.9803375005722046,37.97076642513275 1.9803375005722046,37.97076642513275 1.4183650724589825,36.67452335357666 1.4183650724589825,36.67452335357666 0.8957243524491787,35.34890115261078 0.8957243524491787,35.34890115261078 0.45660254545509815,34.00737941265106 0.45660254545509815,34.00737941265106 0.1447014044970274,32.663387060165405 0.1447014044970274,32.663387060165405 0.004208318205201067,31.330564618110657 0.004208318205201067,31.330564618110657 0.07898689364083111,30.022141337394714 0.07898689364083111,30.022141337394714 0.9168468415737152,30.887478590011597 0.9168468415737152,30.887478590011597 1.8497176468372345,31.65464699268341 1.8497176468372345,31.65464699268341 2.8579335659742355,32.33962953090668 2.8579335659742355,32.33962953090668 3.9215050637722015,32.9582542181015 3.9215050637722015,32.9582542181015 5.020766332745552,33.52633714675903 5.020766332745552,33.52633714675903 6.13597072660923,34.05986130237579 6.13597072660923,34.05986130237579 7.247452437877655,34.57452952861786 7.247452437877655,34.57452952861786 8.335059881210327,35.08636653423309 8.335059881210327,35.08636653423309 20.330709218978882,40.87053835391998 20.330709218978882,40.87053835391998 32.90645778179169,46.934401988983154 32.90645778179169,46.934401988983154 33.77563953399658,47.36243784427643 33.77563953399658,47.36243784427643 34.648215770721436,47.804027795791626 34.648215770721436,47.804027795791626 35.525327920913696,48.249948024749756 35.525327920913696,48.249948024749756 36.40778064727783,48.6908882856369 36.40778064727783,48.6908882856369 37.296462059020996,49.11746680736542 37.296462059020996,49.11746680736542 38.1925106048584,49.52045381069183 38.1925106048584,49.52045381069183 39.096733927726746,49.890461564064026 39.096733927726746,49.890461564064026 40.01010060310364,50.21818280220032 40.01010060310364,50.21818280220032 42.894577980041504,50.859832763671875 42.894577980041504,50.859832763671875 45.70719301700592,50.89580416679382 45.70719301700592,50.89580416679382 48.39339256286621,50.37283897399902 48.39339256286621,50.37283897399902 50.89896321296692,49.337512254714966 50.89896321296692,49.337512254714966 53.16935181617737,47.836437821388245 53.16935181617737,47.836437821388245 55.15017509460449,45.9162712097168 55.15017509460449,45.9162712097168 56.78712725639343,43.623629212379456 56.78712725639343,43.623629212379456 58.02558660507202,41.00520610809326 58.02558660507202,41.00520610809326 62.41388916969299,29.111850261688232 62.41388916969299,29.111850261688232 68.46221685409546,12.72401213645935 68.46221685409546,12.72401213645935 68.98744702339172,11.363106966018677 68.98744702339172,11.363106966018677 69.55645680427551,9.947574138641357 69.55645680427551,9.947574138641357 70.13040781021118,8.491051197052002 70.13040781021118,8.491051197052002 70.67044973373413,7.007335126399994 70.67044973373413,7.007335126399994 71.13789916038513,5.5101048201322556 71.13789916038513,5.5101048201322556 71.4938223361969,4.012954980134964 71.4938223361969,4.012954980134964 71.69946432113647,2.5297656655311584 71.69946432113647,2.5297656655311584 71.71621918678284,1.0740922763943672 71.71621918678284,1.0740922763943672 72.36356735229492,1.6280122101306915 72.36356735229492,1.6280122101306915 72.92052507400513,2.2285472601652145 72.92052507400513,2.2285472601652145 73.40116500854492,2.870315872132778 73.40116500854492,2.870315872132778 73.81940484046936,3.5477742552757263 73.81940484046936,3.5477742552757263 74.18957352638245,4.255500063300133 74.18957352638245,4.255500063300133 74.52551126480103,4.988151788711548 74.52551126480103,4.988151788711548 74.84145760536194,5.7401057332754135 74.84145760536194,5.7401057332754135 75.15149712562561,6.506060063838959 75.15149712562561,6.506060063838959 78.0908465385437,13.781918585300446 78.0908465385437,13.781918585300446 82.95825123786926,25.83065629005432 82.95825123786926,25.83065629005432 82.59739279747009,25.895318388938904 82.59739279747009,25.895318388938904 82.23766088485718,25.96605122089386 82.23766088485718,25.96605122089386 81.87914490699768,26.04297399520874 81.87914490699768,26.04297399520874 81.52192234992981,26.126211881637573 81.52192234992981,26.126211881637573 81.16632103919983,26.21588110923767 81.16632103919983,26.21588110923767 80.81249594688416,26.312103867530823 80.81249594688416,26.312103867530823 80.46053647994995,26.415005326271057 80.46053647994995,26.415005326271057 80.11084198951721,26.524704694747925 80.11084198951721,26.524704694747925 79.78542447090149,26.624208688735962 79.78542447090149,26.624208688735962 79.51779365539551,26.68968141078949 79.51779365539551,26.68968141078949 79.28892374038696,26.722699403762817 79.28892374038696,26.722699403762817 79.07947897911072,26.724761724472046 79.07947897911072,26.724761724472046 78.87027859687805,26.697489619255066 78.87027859687805,26.697489619255066 78.64213585853577,26.642337441444397 78.64213585853577,26.642337441444397 78.3757209777832,26.560962200164795 78.3757209777832,26.560962200164795 78.05200219154358,26.454782485961914 78.05200219154358,26.454782485961914 77.64946222305298,26.331770420074463 77.64946222305298,26.331770420074463 77.24068760871887,26.226523518562317 77.24068760871887,26.226523518562317 76.82705521583557,26.13992691040039 76.82705521583557,26.13992691040039 76.40962600708008,26.072797179222107 76.40962600708008,26.072797179222107 75.98952054977417,26.026099920272827 75.98952054977417,26.026099920272827 75.56812167167664,26.000648736953735 75.56812167167664,26.000648736953735 75.14640092849731,25.99737048149109 75.14640092849731,25.99737048149109 74.72549080848694,26.017117500305176 74.72549080848694,26.017117500305176 73.5009491443634,26.20912194252014 73.5009491443634,26.20912194252014 72.35410213470459,26.587224006652832 72.35410213470459,26.587224006652832 71.29489779472351,27.134063839912415 71.29489779472351,27.134063839912415 70.33313512802124,27.832359075546265 70.33313512802124,27.832359075546265 69.47892904281616,28.66491973400116 69.47892904281616,28.66491973400116 68.74215006828308,29.614299535751343 68.74215006828308,29.614299535751343 68.13275218009949,30.6633859872818 68.13275218009949,30.6633859872818 67.66069531440735,31.794816255569458 67.66069531440735,31.794816255569458 67.32734441757202,32.89743661880493 67.32734441757202,32.89743661880493 67.06035733222961,34.072163701057434 67.06035733222961,34.072163701057434 66.8696939945221,35.29484272003174 66.8696939945221,35.29484272003174 66.76496863365173,36.54147386550903 66.76496863365173,36.54147386550903 66.75639152526855,37.78798580169678 66.75639152526855,37.78798580169678 66.85366630554199,39.010339975357056 66.85366630554199,39.010339975357056 67.06675291061401,40.18446207046509 67.06675291061401,40.18446207046509 67.40560531616211,41.28619134426117 67.40560531616211,41.28619134426117 67.78500080108643,42.10956394672394 67.78500080108643,42.10956394672394 68.24192404747009,42.83590614795685 68.24192404747009,42.83590614795685 68.76440644264221,43.48596930503845 68.76440644264221,43.48596930503845 69.34029459953308,44.080838561058044 69.34029459953308,44.080838561058044 69.9575424194336,44.64135468006134 69.9575424194336,44.64135468006134 70.604008436203,45.18839418888092 70.604008436203,45.18839418888092 71.26762866973877,45.74292302131653 71.26762866973877,45.74292302131653" stroke="white" stroke-width="0.1" /><polygon points="99.79411363601685,35.38030385971069 99.79411363601685,35.38030385971069 99.86015558242798,35.959553718566895 99.86015558242798,35.959553718566895 99.92926716804504,36.57182157039642 99.92926716804504,36.57182157039642 99.9821126461029,37.2026652097702 99.9821126461029,37.2026652097702 99.99886751174927,37.83763647079468 99.99886751174927,37.83763647079468 99.95985627174377,38.462287187576294 99.95985627174377,38.462287187576294 99.84526634216309,39.062175154685974 99.84526634216309,39.062175154685974 99.63565468788147,39.6228551864624 99.63565468788147,39.6228551864624 99.31113123893738,40.129876136779785 99.31113123893738,40.129876136779785 99.03346300125122,40.43740630149841 99.03346300125122,40.43740630149841 98.73095154762268,40.72268009185791 98.73095154762268,40.72268009185791 98.40981960296631,40.99104404449463 98.40981960296631,40.99104404449463 98.07631373405457,41.24799370765686 98.07631373405457,41.24799370765686 97.73665070533752,41.49887263774872 97.73665070533752,41.49887263774872 97.39715456962585,41.749024391174316 97.39715456962585,41.749024391174316 97.0639705657959,42.00391173362732 97.0639705657959,42.00391173362732 96.74341082572937,42.26899445056915 96.74341082572937,42.26899445056915 95.85059881210327,43.08856427669525 95.85059881210327,43.08856427669525 95.0030267238617,43.95066499710083 95.0030267238617,43.95066499710083 94.20352578163147,44.853752851486206 94.20352578163147,44.853752851486206 93.4550940990448,45.796212553977966 93.4550940990448,45.796212553977966 92.7608847618103,46.77655100822449 92.7608847618103,46.77655100822449 92.12372899055481,47.79326319694519 92.12372899055481,47.79326319694519 91.54686331748962,48.844775557518005 91.54686331748962,48.844775557518005 91.03304743766785,49.929431080818176 91.03304743766785,49.929431080818176 90.77892899513245,50.491076707839966 90.77892899513245,50.491076707839966 90.50409197807312,51.05183720588684 90.50409197807312,51.05183720588684 90.20538330078125,51.60490870475769 90.20538330078125,51.60490870475769 89.87996578216553,52.14349031448364 89.87996578216553,52.14349031448364 89.52460289001465,52.66098976135254 89.52460289001465,52.66098976135254 89.13638591766357,53.15040946006775 89.13638591766357,53.15040946006775 88.71215581893921,53.60523462295532 88.71215581893921,53.60523462295532 88.24908137321472,54.018622636795044 88.24908137321472,54.018622636795044 88.01414370536804,54.35629487037659 88.01414370536804,54.35629487037659 87.91888952255249,54.833418130874634 87.91888952255249,54.833418130874634 87.93612718582153,55.40671944618225 87.93612718582153,55.40671944618225 88.03898692131042,56.03278875350952 88.03898692131042,56.03278875350952 88.200443983078,56.66836500167847 88.200443983078,56.66836500167847 88.39362263679504,57.27003216743469 88.39362263679504,57.27003216743469 88.5915756225586,57.7945351600647 88.5915756225586,57.7945351600647 88.76702785491943,58.19845199584961 88.76702785491943,58.19845199584961 89.19408917427063,58.81651043891907 89.19408917427063,58.81651043891907 89.81927037239075,59.42363739013672 89.81927037239075,59.42363739013672 90.54908752441406,60.032832622528076 90.54908752441406,60.032832622528076 91.29007458686829,60.65707802772522 91.29007458686829,60.65707802772522 91.94835424423218,61.309367418289185 91.94835424423218,61.309367418289185 92.43077039718628,62.00268864631653 92.43077039718628,62.00268864631653 92.64321327209473,62.75007128715515 92.64321327209473,62.75007128715515 92.49235987663269,63.56437802314758 92.49235987663269,63.56437802314758 92.22877621650696,63.69855999946594 92.22877621650696,63.69855999946594 91.65085554122925,63.76856565475464 91.65085554122925,63.76856565475464 90.85807800292969,63.78883719444275 90.85807800292969,63.78883719444275 89.95004892349243,63.77350091934204 89.95004892349243,63.77350091934204 89.02599811553955,63.73676061630249 89.02599811553955,63.73676061630249 88.18538784980774,63.69297504425049 88.18538784980774,63.69297504425049 87.52768039703369,63.65615725517273 87.52768039703369,63.65615725517273 87.15232610702515,63.64077925682068 87.15232610702515,63.64077925682068 79.8570454120636,63.64077925682068 79.8570454120636,63.64077925682068 79.6777069568634,63.59715461730957 79.6777069568634,63.59715461730957 79.56035733222961,63.47924470901489 79.56035733222961,63.47924470901489 79.4952929019928,63.30605745315552 79.4952929019928,63.30605745315552 79.47279214859009,63.09693455696106 79.47279214859009,63.09693455696106 79.48291301727295,62.87106275558472 79.48291301727295,62.87106275558472 79.51585054397583,62.64761686325073 79.51585054397583,62.64761686325073 79.56181764602661,62.44589686393738 79.56181764602661,62.44589686393738 79.6110212802887,62.285053730010986 79.6110212802887,62.285053730010986 79.92632389068604,61.64862513542175 79.92632389068604,61.64862513542175 80.3554892539978,61.110079288482666 80.3554892539978,61.110079288482666 80.86307644844055,60.637736320495605 80.86307644844055,60.637736320495605 81.41396045684814,60.19999384880066 81.41396045684814,60.19999384880066 81.97277784347534,59.765321016311646 81.97277784347534,59.765321016311646 82.50424265861511,59.30204391479492 82.50424265861511,59.30204391479492 82.97306299209595,58.77863168716431 82.97306299209595,58.77863168716431 83.34412574768066,58.163487911224365 83.34412574768066,58.163487911224365 83.51989984512329,57.747310400009155 83.51989984512329,57.747310400009155 83.66881012916565,57.320696115493774 83.66881012916565,57.320696115493774 83.79344344139099,56.88549876213074 83.79344344139099,56.88549876213074 83.89573693275452,56.44374489784241 83.89573693275452,56.44374489784241 83.97812247276306,55.99725842475891 83.97812247276306,55.99725842475891 84.04302597045898,55.54814338684082 84.04302597045898,55.54814338684082 84.09247398376465,55.0981342792511 84.09247398376465,55.0981342792511 84.1288149356842,54.649221897125244 84.1288149356842,54.649221897125244 84.09571051597595,54.39987778663635 84.09571051597595,54.39987778663635 83.97682905197144,54.15182709693909 83.97682905197144,54.15182709693909 83.79319906234741,53.906047344207764 83.79319906234741,53.906047344207764 83.56635570526123,53.66382598876953 83.56635570526123,53.66382598876953 83.31741690635681,53.426218032836914 83.31741690635681,53.426218032836914 83.06783437728882,53.19427251815796 83.06783437728882,53.19427251815796 82.83864259719849,52.969253063201904 82.83864259719849,52.969253063201904 82.65137076377869,52.752238512039185 82.65137076377869,52.752238512039185 82.14855790138245,52.01161503791809 82.14855790138245,52.01161503791809 81.70976042747498,51.24226212501526 81.70976042747498,51.24226212501526 81.3134491443634,50.45401453971863 81.3134491443634,50.45401453971863 80.93842267990112,49.65653717517853 80.93842267990112,49.65653717517853 80.56323528289795,48.85966777801514 80.56323528289795,48.85966777801514 80.16635775566101,48.073238134384155 80.16635775566101,48.073238134384155 79.7265887260437,47.30696082115173 79.7265887260437,47.30696082115173 79.22255992889404,46.57054543495178 79.22255992889404,46.57054543495178 78.79695296287537,46.015775203704834 78.79695296287537,46.015775203704834 78.36244702339172,45.46667039394379 78.36244702339172,45.46667039394379 77.91765928268433,44.92517411708832 77.91765928268433,44.92517411708832 77.46154069900513,44.393062591552734 77.46154069900513,44.393062591552734 76.9927978515625,43.872323632240295 76.9927978515625,43.872323632240295 76.51013731956482,43.364858627319336 76.51013731956482,43.364858627319336 76.01242661476135,42.872485518455505 76.01242661476135,42.872485518455505 75.49852132797241,42.397186160087585 75.49852132797241,42.397186160087585 74.9056339263916,41.89457595348358 74.9056339263916,41.89457595348358 74.31032061576843,41.42640233039856 74.31032061576843,41.42640233039856 73.73823523521423,40.965792536735535 73.73823523521423,40.965792536735535 73.21502566337585,40.485963225364685 73.21502566337585,40.485963225364685 72.76643514633179,39.96000587940216 72.76643514633179,39.96000587940216 72.41787314414978,39.361006021499634 72.41787314414978,39.361006021499634 72.19531536102295,38.66218328475952 72.19531536102295,38.66218328475952 72.12409973144531,37.83666491508484 72.12409973144531,37.83666491508484 72.12952375411987,37.080058455467224 72.12952375411987,37.080058455467224 72.15639352798462,36.25219464302063 72.15639352798462,36.25219464302063 72.2252607345581,35.38787066936493 72.2252607345581,35.38787066936493 72.35652804374695,34.52180624008179 72.35652804374695,34.52180624008179 72.57058620452881,33.68875980377197 72.57058620452881,33.68875980377197 72.88782596588135,32.92349576950073 72.88782596588135,32.92349576950073 73.32864999771118,32.26076662540436 73.32864999771118,32.26076662540436 73.91360402107239,31.73525035381317 73.91360402107239,31.73525035381317 74.21579360961914,31.561091542243958 74.21579360961914,31.561091542243958 74.52769875526428,31.434842944145203 74.52769875526428,31.434842944145203 74.84737038612366,31.353628635406494 74.84737038612366,31.353628635406494 75.1727044582367,31.31474256515503 75.1727044582367,31.31474256515503 75.50192475318909,31.315308809280396 75.50192475318909,31.315308809280396 75.83300471305847,31.35249614715576 75.83300471305847,31.35249614715576 76.16408467292786,31.4235121011734 76.16408467292786,31.4235121011734 76.49298310279846,31.52548372745514 76.49298310279846,31.52548372745514 76.74952745437622,31.651854515075684 76.74952745437622,31.651854515075684 77.06838846206665,31.854137778282166 77.06838846206665,31.854137778282166 77.4258553981781,32.09983706474304 77.4258553981781,32.09983706474304 77.79853343963623,32.35678672790527 77.79853343963623,32.35678672790527 78.16279530525208,32.592615485191345 78.16279530525208,32.592615485191345 78.49516868591309,32.774949073791504 78.49516868591309,32.774949073791504 78.77219319343567,32.87157714366913 78.77219319343567,32.87157714366913 78.97006273269653,32.85013139247894 78.97006273269653,32.85013139247894 80.42694926261902,32.08498656749725 80.42694926261902,32.08498656749725 81.95295333862305,31.50634467601776 81.95295333862305,31.50634467601776 83.52945446968079,31.11533522605896 83.52945446968079,31.11533522605896 85.1373553276062,30.913010239601135 85.1373553276062,30.913010239601135 86.75779700279236,30.9005469083786 86.75779700279236,30.9005469083786 88.37193250656128,31.079119443893433 88.37193250656128,31.079119443893433 89.96089696884155,31.449773907661438 89.96089696884155,31.449773907661438 91.50567054748535,32.01364874839783 91.50567054748535,32.01364874839783 91.78940653800964,32.156285643577576 91.78940653800964,32.156285643577576 92.07881093025208,32.32563138008118 92.07881093025208,32.32563138008118 92.37056374549866,32.49938488006592 92.37056374549866,32.49938488006592 92.66117811203003,32.655417919158936 92.66117811203003,32.655417919158936 92.94701814651489,32.77142941951752 92.94701814651489,32.77142941951752 93.22476983070374,32.82524645328522 93.22476983070374,32.82524645328522 93.49086284637451,32.7945739030838 93.49086284637451,32.7945739030838 93.7419056892395,32.65719711780548 93.7419056892395,32.65719711780548 94.07428503036499,32.39547312259674 94.07428503036499,32.39547312259674 94.4181501865387,32.14985132217407 94.4181501865387,32.14985132217407 94.77424025535583,31.925395131111145 94.77424025535583,31.925395131111145 95.1431155204773,31.727319955825806 95.1431155204773,31.727319955825806 95.52534222602844,31.560727953910828 95.52534222602844,31.560727953910828 95.92181444168091,31.430795788764954 95.92181444168091,31.430795788764954 96.3326096534729,31.342703104019165 96.3326096534729,31.342703104019165 96.75894975662231,31.30147159099579 96.75894975662231,31.30147159099579 97.50106930732727,31.372365355491638 97.50106930732727,31.372365355491638 98.11758399009705,31.652340292930603 98.11758399009705,31.652340292930603 98.61950874328613,32.0995956659317 98.61950874328613,32.0995956659317 99.01800751686096,32.672250270843506 99.01800751686096,32.672250270843506 99.32367205619812,33.32846462726593 99.32367205619812,33.32846462726593 99.54760670661926,34.026479721069336 99.54760670661926,34.026479721069336 99.70080256462097,34.72433090209961 99.70080256462097,34.72433090209961" stroke="white" stroke-width="0.1" /><polygon points="75.757497549057,39.696094393730164 75.757497549057,39.696094393730164 76.19953155517578,40.039315819740295 76.19953155517578,40.039315819740295 76.63072347640991,40.39532244205475 76.63072347640991,40.39532244205475 77.0514726638794,40.763306617736816 77.0514726638794,40.763306617736816 77.46235132217407,41.1422997713089 77.46235132217407,41.1422997713089 77.86375880241394,41.531407833099365 77.86375880241394,41.531407833099365 78.25635075569153,41.929781436920166 78.25635075569153,41.929781436920166 78.64043712615967,42.33657121658325 78.64043712615967,42.33657121658325 79.01667952537537,42.75068640708923 79.01667952537537,42.75068640708923 78.88508439064026,41.96191132068634 78.88508439064026,41.96191132068634 78.76660823822021,41.17094874382019 78.76660823822021,41.17094874382019 78.6609947681427,40.37812650203705 78.6609947681427,40.37812650203705 78.56800556182861,39.58360254764557 78.56800556182861,39.58360254764557 78.48699688911438,38.787662982940674 78.48699688911438,38.787662982940674 78.41796278953552,37.99067437648773 78.41796278953552,37.99067437648773 78.36025953292847,37.19271123409271 78.36025953292847,37.19271123409271 78.31356525421143,36.394184827804565 78.31356525421143,36.394184827804565 78.2209038734436,35.95356345176697 78.2209038734436,35.95356345176697 78.00166606903076,35.48235297203064 78.00166606903076,35.48235297203064 77.6802122592926,35.0080281496048 77.6802122592926,35.0080281496048 77.28042006492615,34.55822467803955 77.28042006492615,34.55822467803955 76.82657241821289,34.160417318344116 76.82657241821289,34.160417318344116 76.34285688400269,33.84216129779816 76.34285688400269,33.84216129779816 75.85315704345703,33.63101780414581 75.85315704345703,33.63101780414581 75.38198828697205,33.55453908443451 75.38198828697205,33.55453908443451 75.08238554000854,33.667922019958496 75.08238554000854,33.667922019958496 74.85756278038025,33.97124409675598 74.85756278038025,33.97124409675598 74.69627261161804,34.40951704978943 74.69627261161804,34.40951704978943 74.58693981170654,34.92758572101593 74.58693981170654,34.92758572101593 74.51815009117126,35.470375418663025 74.51815009117126,35.470375418663025 74.4784951210022,35.98273992538452 74.4784951210022,35.98273992538452 74.45647716522217,36.40960156917572 74.45647716522217,36.40960156917572 74.44061636924744,36.6958886384964 74.44061636924744,36.6958886384964 74.40403699874878,37.261179089546204 74.40403699874878,37.261179089546204 74.40476417541504,37.727126479148865 74.40476417541504,37.727126479148865 74.45291876792908,38.11623454093933 74.45291876792908,38.11623454093933 74.5586097240448,38.45091760158539 74.5586097240448,38.45091760158539 74.73180294036865,38.753753900527954 74.73180294036865,38.753753900527954 74.98267889022827,39.04724419116974 74.98267889022827,39.04724419116974 75.3211259841919,39.35384452342987 75.3211259841919,39.35384452342987" stroke="white" stroke-width="0.1" /><polygon points="97.5462257862091,38.726240396499634 97.5462257862091,38.726240396499634 97.73203730583191,38.23070824146271 97.73203730583191,38.23070824146271 97.82575368881226,37.46778964996338 97.82575368881226,37.46778964996338 97.82203435897827,36.553046107292175 97.82203435897827,36.553046107292175 97.7155327796936,35.60172617435455 97.7155327796936,35.60172617435455 97.50114679336548,34.72926616668701 97.50114679336548,34.72926616668701 97.17370867729187,34.051284193992615 97.17370867729187,34.051284193992615 96.72771096229553,33.682894706726074 96.72771096229553,33.682894706726074 96.1581289768219,33.73970687389374 96.1581289768219,33.73970687389374 95.87390422821045,33.8918536901474 95.87390422821045,33.8918536901474 95.60003876686096,34.064555168151855 95.60003876686096,34.064555168151855 95.33580541610718,34.254616498947144 95.33580541610718,34.254616498947144 95.08079886436462,34.4590038061142 95.08079886436462,34.4590038061142 94.83453035354614,34.67455804347992 94.83453035354614,34.67455804347992 94.59651708602905,34.89812612533569 94.59651708602905,34.89812612533569 94.36627626419067,35.12667119503021 94.36627626419067,35.12667119503021 94.14331316947937,35.35699546337128 94.14331316947937,35.35699546337128 93.98566484451294,35.55033504962921 93.98566484451294,35.55033504962921 93.87819170951843,35.74233949184418 93.87819170951843,35.74233949184418 93.81118416786194,35.93652844429016 93.81118416786194,35.93652844429016 93.77492666244507,36.13634407520294 93.77492666244507,36.13634407520294 93.7598705291748,36.34530305862427 93.7598705291748,36.34530305862427 93.75615119934082,36.56700849533081 93.75615119934082,36.56700849533081 93.75436902046204,36.804819107055664 93.75436902046204,36.804819107055664 93.74449849128723,37.06233501434326 93.74449849128723,37.06233501434326 93.69528889656067,37.77685761451721 93.69528889656067,37.77685761451721 93.63685846328735,38.490694761276245 93.63685846328735,38.490694761276245 93.5689628124237,39.20367956161499 93.5689628124237,39.20367956161499 93.49135160446167,39.91573750972748 93.49135160446167,39.91573750972748 93.40378642082214,40.62661826610565 93.40378642082214,40.62661826610565 93.30602288246155,41.33616387844086 93.30602288246155,41.33616387844086 93.1977391242981,42.044296860694885 93.1977391242981,42.044296860694885 93.07893514633179,42.75068640708923 93.07893514633179,42.75068640708923 93.42514872550964,42.36805438995361 93.42514872550964,42.36805438995361 93.77832412719727,41.99246168136597 93.77832412719727,41.99246168136597 94.13870573043823,41.62435531616211 94.13870573043823,41.62435531616211 94.50652599334717,41.264018416404724 94.50652599334717,41.264018416404724 94.88203525543213,40.91189503669739 94.88203525543213,40.91189503669739 95.26580572128296,40.56834876537323 95.26580572128296,40.56834876537323 95.6578254699707,40.233707427978516 95.6578254699707,40.233707427978516 96.05842232704163,39.908453822135925 96.05842232704163,39.908453822135925 96.2283730506897,39.784470200538635 96.2283730506897,39.784470200538635 96.42584323883057,39.65417444705963 96.42584323883057,39.65417444705963 96.63925170898438,39.517322182655334 96.63925170898438,39.517322182655334 96.85719609260559,39.373672008514404 96.85719609260559,39.373672008514404 97.06825613975525,39.2229825258255 97.06825613975525,39.2229825258255 97.2611129283905,39.065009355545044 97.2611129283905,39.065009355545044 97.42426872253418,38.8995498418808 97.42426872253418,38.8995498418808" stroke="white" stroke-width="0.1" /><polygon points="6.785103678703308,28.448879718780518 6.785103678703308,28.448879718780518 6.412667781114578,28.2675564289093 5.904756113886833,27.999964356422424 5.3263552486896515,27.66014337539673 4.742288962006569,27.262133359909058 4.217382147908211,26.81993544101715 3.8164589554071426,26.347550749778748 3.60458642244339,25.859063863754272 3.6463458091020584,25.36838948726654 4.127712920308113,24.610649049282074 4.894435778260231,23.931977152824402 5.870037525892258,23.326626420021057 6.9778770208358765,22.7886900305748 8.14155787229538,22.312261164188385 9.28444042801857,21.891550719738007 10.330045223236084,21.520651876926422 11.201895773410797,21.193738281726837 24.63614195585251,15.765655040740967 55.91365694999695,3.1290464103221893 56.72934651374817,2.794485166668892 57.544463872909546,2.4538541212677956 58.3598256111145,2.110876329243183 59.1763973236084,1.769435964524746 59.995001554489136,1.433337014168501 60.816675424575806,1.106383092701435 61.64199113845825,0.7924586534500122 62.472158670425415,0.49528670497238636 62.98702955245972,0.3278037067502737 63.58461380004883,0.16570253064855933 64.22039270401001,0.04451105778571218 64.85034823417664,-0.00016185839513127576 65.43003916740417,0.06729262531735003 65.91529250144958,0.2824024297297001 66.2618339061737,0.6808168720453978 66.42538905143738,1.2981043197214603 66.43930673599243,1.735607534646988 66.41632318496704,2.1723823621869087 66.36105179786682,2.6073768734931946 66.27810001373291,3.0393769964575768 66.1723256111145,3.467411547899246 66.04809761047363,3.890347480773926 65.91035723686218,4.3070923537015915 65.76371192932129,4.7165535390377045 65.60484766960144,5.147744342684746 65.44590592384338,5.578935146331787 65.28695821762085,6.010125949978828 65.12777209281921,6.44131675362587 64.96866345405579,6.872507184743881 64.80939388275146,7.303698360919952 64.65012431144714,7.734888792037964 64.4908607006073,8.166079968214035 53.59455347061157,37.69682049751282 53.43026518821716,38.14949691295624 53.26727628707886,38.60553205013275 53.101933002471924,39.06237781047821 52.93060541152954,39.51740264892578 52.74965167045593,39.96809720993042 52.55558490753174,40.41179120540619 52.3445188999176,40.84597826004028 52.1132230758667,41.268062591552734 51.101285219192505,42.667168378829956 49.879252910614014,43.805599212646484 48.48848581314087,44.67490017414093 46.97049558162689,45.266613364219666 45.36672234535217,45.57236433029175 43.71868073940277,45.583611726760864 42.0678049325943,45.29198408126831 40.45553505420685,44.68910098075867 31.34225904941559,40.29302895069122" stroke="white" stroke-width="0.1" /><polygon points="71.93634510040283,46.325814723968506 71.93634510040283,46.325814723968506 72.49605059623718,46.83878421783447 73.0661153793335,47.390761971473694 73.63132834434509,47.976770997047424 74.17694926261902,48.59199523925781 74.68810081481934,49.231576919555664 75.1497209072113,49.890583753585815 75.54692029953003,50.56427717208862 75.86497068405151,51.247602701187134 76.0378360748291,51.6706645488739 76.21798515319824,52.09076404571533 76.40557885169983,52.507591247558594 76.60093903541565,52.920734882354736 76.80456042289734,53.32983136177063 77.01667547225952,53.73443961143494 77.23768949508667,54.134225845336914 77.46801972389221,54.528796672821045 77.57532596588135,54.7044575214386 77.68458127975464,54.87881898880005 77.7958631515503,55.05192279815674 77.90924310684204,55.223655700683594 78.02464962005615,55.39401173591614 78.14215421676636,55.56287169456482 78.26176881790161,55.730271339416504 78.38348746299744,55.896174907684326 78.25578451156616,55.98588585853577 78.12936902046204,56.0772180557251 78.00400853157043,56.17020130157471 77.87978649139404,56.264728307724 77.7568519115448,56.360793113708496 77.63505578041077,56.45827054977417 77.51463055610657,56.55720829963684 77.39550471305847,56.65755867958069 77.06029415130615,56.950682401657104 76.77769064903259,57.20512866973877 76.52859091758728,57.42763876914978 76.29356980323792,57.62482285499573 76.05353593826294,57.80331492424011 75.78905820846558,57.96974301338196 75.48112273216248,58.13071131706238 75.11006593704224,58.2929790019989 47.608381509780884,69.40423250198364 32.70446062088013,75.42665600776672 31.786316633224487,75.81503987312317 30.845031142234802,76.2351393699646 29.88520860671997,76.66665315628052 28.9111465215683,77.08926796913147 27.927371859550476,77.48242020606995 26.938417553901672,77.82588601112366 25.94848871231079,78.09914350509644 24.962449073791504,78.28184366226196 23.600895702838898,78.34439873695374 22.266697883605957,78.1789779663086 20.986074209213257,77.80071496963501 19.785408675670624,77.22490429878235 18.69100332260132,76.4665961265564 17.729240655899048,75.54104924201965 16.926422715187073,74.46331977844238 16.308851540088654,73.248690366745 16.169491410255432,72.90385365486145 16.03013128042221,72.55897521972656 15.89077115058899,72.21397161483765 15.751411020755768,71.86884880065918 15.612050890922546,71.52372598648071 15.472690761089325,71.1784839630127 15.333330631256104,70.83331942558289 15.193970501422882,70.48803567886353 9.474542737007141,56.33254647254944 3.0468223616480827,40.421220660209656 2.537858672440052,39.224156737327576 1.9803375005722046,37.97076642513275 1.4183650724589825,36.67452335357666 0.8957243524491787,35.34890115261078 0.45660254545509815,34.00737941265106 0.1447014044970274,32.663387060165405 0.004208318205201067,31.330564618110657 0.07898689364083111,30.022141337394714 0.9168468415737152,30.887478590011597 1.8497176468372345,31.65464699268341 2.8579335659742355,32.33962953090668 3.9215050637722015,32.9582542181015 5.020766332745552,33.52633714675903 6.13597072660923,34.05986130237579 7.247452437877655,34.57452952861786 8.335059881210327,35.08636653423309 20.330709218978882,40.87053835391998 32.90645778179169,46.934401988983154 33.77563953399658,47.36243784427643 34.648215770721436,47.804027795791626 35.525327920913696,48.249948024749756 36.40778064727783,48.6908882856369 37.296462059020996,49.11746680736542 38.1925106048584,49.52045381069183 39.096733927726746,49.890461564064026 40.01010060310364,50.21818280220032 42.894577980041504,50.859832763671875 45.70719301700592,50.89580416679382 48.39339256286621,50.37283897399902 50.89896321296692,49.337512254714966 53.16935181617737,47.836437821388245 55.15017509460449,45.9162712097168 56.78712725639343,43.623629212379456 58.02558660507202,41.00520610809326 62.41388916969299,29.111850261688232 68.46221685409546,12.72401213645935 68.98744702339172,11.363106966018677 69.55645680427551,9.947574138641357 70.13040781021118,8.491051197052002 70.67044973373413,7.007335126399994 71.13789916038513,5.5101048201322556 71.4938223361969,4.012954980134964 71.69946432113647,2.5297656655311584 71.71621918678284,1.0740922763943672 72.36356735229492,1.6280122101306915 72.92052507400513,2.2285472601652145 73.40116500854492,2.870315872132778 73.81940484046936,3.5477742552757263 74.18957352638245,4.255500063300133 74.52551126480103,4.988151788711548 74.84145760536194,5.7401057332754135 75.15149712562561,6.506060063838959 78.0908465385437,13.781918585300446 82.95825123786926,25.83065629005432 82.59739279747009,25.895318388938904 82.23766088485718,25.96605122089386 81.87914490699768,26.04297399520874 81.52192234992981,26.126211881637573 81.16632103919983,26.21588110923767 80.81249594688416,26.312103867530823 80.46053647994995,26.415005326271057 80.11084198951721,26.524704694747925 79.78542447090149,26.624208688735962 79.51779365539551,26.68968141078949 79.28892374038696,26.722699403762817 79.07947897911072,26.724761724472046 78.87027859687805,26.697489619255066 78.64213585853577,26.642337441444397 78.3757209777832,26.560962200164795 78.05200219154358,26.454782485961914 77.64946222305298,26.331770420074463 77.24068760871887,26.226523518562317 76.82705521583557,26.13992691040039 76.40962600708008,26.072797179222107 75.98952054977417,26.026099920272827 75.56812167167664,26.000648736953735 75.14640092849731,25.99737048149109 74.72549080848694,26.017117500305176 73.5009491443634,26.20912194252014 72.35410213470459,26.587224006652832 71.29489779472351,27.134063839912415 70.33313512802124,27.832359075546265 69.47892904281616,28.66491973400116 68.74215006828308,29.614299535751343 68.13275218009949,30.6633859872818 67.66069531440735,31.794816255569458 67.32734441757202,32.89743661880493 67.06035733222961,34.072163701057434 66.8696939945221,35.29484272003174 66.76496863365173,36.54147386550903 66.75639152526855,37.78798580169678 66.85366630554199,39.010339975357056 67.06675291061401,40.18446207046509 67.40560531616211,41.28619134426117 67.78500080108643,42.10956394672394 68.24192404747009,42.83590614795685 68.76440644264221,43.48596930503845 69.34029459953308,44.080838561058044 69.9575424194336,44.64135468006134 70.604008436203,45.18839418888092 71.26762866973877,45.74292302131653" stroke="white" stroke-width="0.1" /><polygon points="99.79411363601685,35.38030385971069 97.5462257862091,38.726240396499634 97.73203730583191,38.23070824146271 97.82575368881226,37.46778964996338 97.82203435897827,36.553046107292175 97.7155327796936,35.60172617435455 97.50114679336548,34.72926616668701 97.17370867729187,34.051284193992615 96.72771096229553,33.682894706726074 96.1581289768219,33.73970687389374 95.87390422821045,33.8918536901474 95.60003876686096,34.064555168151855 95.33580541610718,34.254616498947144 95.08079886436462,34.4590038061142 94.83453035354614,34.67455804347992 94.59651708602905,34.89812612533569 94.36627626419067,35.12667119503021 94.14331316947937,35.35699546337128 93.98566484451294,35.55033504962921 93.87819170951843,35.74233949184418 93.81118416786194,35.93652844429016 93.77492666244507,36.13634407520294 93.7598705291748,36.34530305862427 93.75615119934082,36.56700849533081 93.75436902046204,36.804819107055664 93.74449849128723,37.06233501434326 93.69528889656067,37.77685761451721 93.63685846328735,38.490694761276245 93.5689628124237,39.20367956161499 93.49135160446167,39.91573750972748 93.40378642082214,40.62661826610565 93.30602288246155,41.33616387844086 93.1977391242981,42.044296860694885 93.07893514633179,42.75068640708923 93.42514872550964,42.36805438995361 93.77832412719727,41.99246168136597 94.13870573043823,41.62435531616211 94.50652599334717,41.264018416404724 94.88203525543213,40.91189503669739 95.26580572128296,40.56834876537323 95.6578254699707,40.233707427978516 96.05842232704163,39.908453822135925 96.2283730506897,39.784470200538635 96.42584323883057,39.65417444705963 96.63925170898438,39.517322182655334 96.85719609260559,39.373672008514404 97.06825613975525,39.2229825258255 97.2611129283905,39.065009355545044 97.42426872253418,38.8995498418808 97.5462257862091,38.726240396499634 99.79411363601685,35.38030385971069 99.86015558242798,35.959553718566895 99.92926716804504,36.57182157039642 99.9821126461029,37.2026652097702 99.99886751174927,37.83763647079468 99.95985627174377,38.462287187576294 99.84526634216309,39.062175154685974 99.63565468788147,39.6228551864624 99.31113123893738,40.129876136779785 99.03346300125122,40.43740630149841 98.73095154762268,40.72268009185791 98.40981960296631,40.99104404449463 98.07631373405457,41.24799370765686 97.73665070533752,41.49887263774872 97.39715456962585,41.749024391174316 97.0639705657959,42.00391173362732 96.74341082572937,42.26899445056915 95.85059881210327,43.08856427669525 95.0030267238617,43.95066499710083 94.20352578163147,44.853752851486206 93.4550940990448,45.796212553977966 92.7608847618103,46.77655100822449 92.12372899055481,47.79326319694519 91.54686331748962,48.844775557518005 91.03304743766785,49.929431080818176 90.77892899513245,50.491076707839966 90.50409197807312,51.05183720588684 90.20538330078125,51.60490870475769 89.87996578216553,52.14349031448364 89.52460289001465,52.66098976135254 75.757497549057,39.696094393730164 76.19953155517578,40.039315819740295 76.63072347640991,40.39532244205475 77.0514726638794,40.763306617736816 77.46235132217407,41.1422997713089 77.86375880241394,41.531407833099365 78.25635075569153,41.929781436920166 78.64043712615967,42.33657121658325 79.01667952537537,42.75068640708923 78.88508439064026,41.96191132068634 78.76660823822021,41.17094874382019 78.6609947681427,40.37812650203705 78.56800556182861,39.58360254764557 78.48699688911438,38.787662982940674 78.41796278953552,37.99067437648773 78.36025953292847,37.19271123409271 78.31356525421143,36.394184827804565 78.2209038734436,35.95356345176697 78.00166606903076,35.48235297203064 77.6802122592926,35.0080281496048 77.28042006492615,34.55822467803955 76.82657241821289,34.160417318344116 76.34285688400269,33.84216129779816 75.85315704345703,33.63101780414581 75.38198828697205,33.55453908443451 75.08238554000854,33.667922019958496 74.85756278038025,33.97124409675598 74.69627261161804,34.40951704978943 74.58693981170654,34.92758572101593 74.51815009117126,35.470375418663025 74.4784951210022,35.98273992538452 74.45647716522217,36.40960156917572 74.44061636924744,36.6958886384964 74.40403699874878,37.261179089546204 74.40476417541504,37.727126479148865 74.45291876792908,38.11623454093933 74.5586097240448,38.45091760158539 74.73180294036865,38.753753900527954 74.98267889022827,39.04724419116974 75.3211259841919,39.35384452342987 75.757497549057,39.696094393730164 89.52460289001465,52.66098976135254 89.13638591766357,53.15040946006775 88.71215581893921,53.60523462295532 88.24908137321472,54.018622636795044 88.01414370536804,54.35629487037659 87.91888952255249,54.833418130874634 87.93612718582153,55.40671944618225 88.03898692131042,56.03278875350952 88.200443983078,56.66836500167847 88.39362263679504,57.27003216743469 88.5915756225586,57.7945351600647 88.76702785491943,58.19845199584961 89.19408917427063,58.81651043891907 89.81927037239075,59.42363739013672 90.54908752441406,60.032832622528076 91.29007458686829,60.65707802772522 91.94835424423218,61.309367418289185 92.43077039718628,62.00268864631653 92.64321327209473,62.75007128715515 92.49235987663269,63.56437802314758 92.22877621650696,63.69855999946594 91.65085554122925,63.76856565475464 90.85807800292969,63.78883719444275 89.95004892349243,63.77350091934204 89.02599811553955,63.73676061630249 88.18538784980774,63.69297504425049 87.52768039703369,63.65615725517273 87.15232610702515,63.64077925682068 79.8570454120636,63.64077925682068 79.6777069568634,63.59715461730957 79.56035733222961,63.47924470901489 79.4952929019928,63.30605745315552 79.47279214859009,63.09693455696106 79.48291301727295,62.87106275558472 79.51585054397583,62.64761686325073 79.56181764602661,62.44589686393738 79.6110212802887,62.285053730010986 79.92632389068604,61.64862513542175 80.3554892539978,61.110079288482666 80.86307644844055,60.637736320495605 81.41396045684814,60.19999384880066 81.97277784347534,59.765321016311646 82.50424265861511,59.30204391479492 82.97306299209595,58.77863168716431 83.34412574768066,58.163487911224365 83.51989984512329,57.747310400009155 83.66881012916565,57.320696115493774 83.79344344139099,56.88549876213074 83.89573693275452,56.44374489784241 83.97812247276306,55.99725842475891 84.04302597045898,55.54814338684082 84.09247398376465,55.0981342792511 84.1288149356842,54.649221897125244 84.09571051597595,54.39987778663635 83.97682905197144,54.15182709693909 83.79319906234741,53.906047344207764 83.56635570526123,53.66382598876953 83.31741690635681,53.426218032836914 83.06783437728882,53.19427251815796 82.83864259719849,52.969253063201904 82.65137076377869,52.752238512039185 82.14855790138245,52.01161503791809 81.70976042747498,51.24226212501526 81.3134491443634,50.45401453971863 80.93842267990112,49.65653717517853 80.56323528289795,48.85966777801514 80.16635775566101,48.073238134384155 79.7265887260437,47.30696082115173 79.22255992889404,46.57054543495178 78.79695296287537,46.015775203704834 78.36244702339172,45.46667039394379 77.91765928268433,44.92517411708832 77.46154069900513,44.393062591552734 76.9927978515625,43.872323632240295 76.51013731956482,43.364858627319336 76.01242661476135,42.872485518455505 75.49852132797241,42.397186160087585 74.9056339263916,41.89457595348358 74.31032061576843,41.42640233039856 73.73823523521423,40.965792536735535 73.21502566337585,40.485963225364685 72.76643514633179,39.96000587940216 72.41787314414978,39.361006021499634 72.19531536102295,38.66218328475952 72.12409973144531,37.83666491508484 72.12952375411987,37.080058455467224 72.15639352798462,36.25219464302063 72.2252607345581,35.38787066936493 72.35652804374695,34.52180624008179 72.57058620452881,33.68875980377197 72.88782596588135,32.92349576950073 73.32864999771118,32.26076662540436 73.91360402107239,31.73525035381317 74.21579360961914,31.561091542243958 74.52769875526428,31.434842944145203 74.84737038612366,31.353628635406494 75.1727044582367,31.31474256515503 75.50192475318909,31.315308809280396 75.83300471305847,31.35249614715576 76.16408467292786,31.4235121011734 76.49298310279846,31.52548372745514 76.74952745437622,31.651854515075684 77.06838846206665,31.854137778282166 77.4258553981781,32.09983706474304 77.79853343963623,32.35678672790527 78.16279530525208,32.592615485191345 78.49516868591309,32.774949073791504 78.77219319343567,32.87157714366913 78.97006273269653,32.85013139247894 80.42694926261902,32.08498656749725 81.95295333862305,31.50634467601776 83.52945446968079,31.11533522605896 85.1373553276062,30.913010239601135 86.75779700279236,30.9005469083786 88.37193250656128,31.079119443893433 89.96089696884155,31.449773907661438 91.50567054748535,32.01364874839783 91.78940653800964,32.156285643577576 92.07881093025208,32.32563138008118 92.37056374549866,32.49938488006592 92.66117811203003,32.655417919158936 92.94701814651489,32.77142941951752 93.22476983070374,32.82524645328522 93.49086284637451,32.7945739030838 93.7419056892395,32.65719711780548 94.07428503036499,32.39547312259674 94.4181501865387,32.14985132217407 94.77424025535583,31.925395131111145 95.1431155204773,31.727319955825806 95.52534222602844,31.560727953910828 95.92181444168091,31.430795788764954 96.3326096534729,31.342703104019165 96.75894975662231,31.30147159099579 97.50106930732727,31.372365355491638 98.11758399009705,31.652340292930603 98.61950874328613,32.0995956659317 99.01800751686096,32.672250270843506 99.32367205619812,33.32846462726593 99.54760670661926,34.026479721069336 99.70080256462097,34.72433090209961" stroke="white" stroke-width="0.1" /></svg>