<?xml version="1.0" encoding="utf-8" ?>
<svg baseProfile="full" height="98.90910983085632" version="1.1" width="99.9997615814209" xmlns="http://www.w3.org/2000/svg" xmlns:ev="http://www.w3.org/2001/xml-events" xmlns:xlink="http://www.w3.org/1999/xlink"><defs><clipPath /></defs><polygon points="60.820937156677246,16.6000634431839 60.820937156677246,16.6000634431839 60.820937156677246,16.6000634431839 60.820937156677246,16.6000634431839 61.18975281715393,16.77529513835907 61.18975281715393,16.77529513835907 61.693185567855835,17.034710943698883 61.693185567855835,17.034710943698883 62.26699352264404,17.364825308322906 62.26699352264404,17.364825308322906 62.847113609313965,17.752473056316376 62.847113609313965,17.752473056316376 63.36929202079773,18.18416863679886 63.36929202079773,18.18416863679886 63.76931071281433,18.646664917469025 63.76931071281433,18.646664917469025 63.98316025733948,19.12655532360077 63.98316025733948,19.12655532360077 63.946378231048584,19.61059719324112 63.946378231048584,19.61059719324112 63.47877383232117,20.361873507499695 63.47877383232117,20.361873507499695 62.72845268249512,21.037663519382477 62.72845268249512,21.037663519382477 61.77130341529846,21.643073856830597 61.77130341529846,21.643073856830597 60.68289279937744,22.183211147785187 60.68289279937744,22.183211147785187 59.53894257545471,22.66310304403305 59.53894257545471,22.66310304403305 58.41493606567383,23.087935149669647 58.41493606567383,23.087935149669647 57.38669037818909,23.46273511648178 57.38669037818909,23.46273511648178 56.52984380722046,23.792530596256256 56.52984380722046,23.792530596256256 43.33099126815796,29.259496927261353 43.33099126815796,29.259496927261353 12.603893876075745,41.987231373786926 12.603893876075745,41.987231373786926 11.80250570178032,42.32380986213684 11.80250570178032,42.32380986213684 11.00175529718399,42.66645312309265 11.00175529718399,42.66645312309265 10.200606286525726,43.011489510536194 10.200606286525726,43.011489510536194 9.398340433835983,43.35501194000244 9.398340433835983,43.35501194000244 8.593999594449997,43.693265318870544 8.593999594449997,43.693265318870544 7.786785811185837,44.02258098125458 7.786785811185837,44.02258098125458 6.975822150707245,44.33913230895996 6.975822150707245,44.33913230895996 6.160229817032814,44.63900327682495 6.160229817032814,44.63900327682495 5.653686448931694,44.80880796909332 5.653686448931694,44.80880796909332 5.065911263227463,44.97430622577667 5.065911263227463,44.97430622577667 4.440312832593918,45.09974420070648 4.440312832593918,45.09974420070648 3.8198214024305344,45.14985680580139 3.8198214024305344,45.14985680580139 3.24784554541111,45.08889317512512 3.24784554541111,45.08889317512512 2.767874300479889,44.88142430782318 2.767874300479889,44.88142430782318 2.4226779118180275,44.49170231819153 2.4226779118180275,44.49170231819153 2.2559847682714462,43.884456157684326 2.2559847682714462,43.884456157684326 2.2384297102689743,43.45276057720184 2.2384297102689743,43.45276057720184 2.257261425256729,43.0215448141098 2.257261425256729,43.0215448141098 2.3080114275217056,42.59200394153595 2.3080114275217056,42.59200394153595 2.3860517889261246,42.165178060531616 2.3860517889261246,42.165178060531616 2.486753836274147,41.742101311683655 2.486753836274147,41.742101311683655 2.6055697351694107,41.32381081581116 2.6055697351694107,41.32381081581116 2.7378709986805916,40.91150760650635 2.7378709986805916,40.91150760650635 2.8790296986699104,40.50622284412384 2.8790296986699104,40.50622284412384 4.104692116379738,37.09479868412018 4.104692116379738,37.09479868412018 14.595595002174377,7.883179187774658 14.595595002174377,7.883179187774658 14.753271639347076,7.4358440935611725 14.753271639347076,7.4358440935611725 14.909671247005463,6.984918564558029 14.909671247005463,6.984918564558029 15.0684654712677,6.533195078372955 15.0684654712677,6.533195078372955 15.23316353559494,6.082987412810326 15.23316353559494,6.082987412810326 15.4073566198349,5.63700944185257 15.4073566198349,5.63700944185257 15.59479683637619,5.197813734412193 15.59479683637619,5.197813734412193 15.79875499010086,4.767874255776405 15.79875499010086,4.767874255776405 16.022981703281403,4.349824413657188 16.022981703281403,4.349824413657188 17.00853854417801,2.9614586383104324 17.00853854417801,2.9614586383104324 18.203797936439514,1.828758418560028 18.203797936439514,1.828758418560028 19.56782639026642,0.9602617472410202 19.56782639026642,0.9602617472410202 21.059687435626984,0.3645866643637419 21.059687435626984,0.3645866643637419 22.638365626335144,0.050191511400043964 22.638365626335144,0.050191511400043964 24.2631658911705,0.02569422358646989 24.2631658911705,0.02569422358646989 25.892913341522217,0.29947333969175816 25.892913341522217,0.29947333969175816 27.486753463745117,0.8803064003586769 27.486753463745117,0.8803064003586769 36.50941550731659,5.135014280676842 36.50941550731659,5.135014280676842" stroke="white" stroke-width="0.1" /><polygon points="79.96169924736023,42.32109785079956 79.96169924736023,42.32109785079956 79.96169924736023,42.32109785079956 79.96169924736023,42.32109785079956 78.65208983421326,42.94765293598175 78.65208983421326,42.94765293598175 77.41190791130066,43.69533956050873 77.41190791130066,43.69533956050873 76.24959945678711,44.55577731132507 76.24959945678711,44.55577731132507 75.17363429069519,45.52066624164581 75.17363429069519,45.52066624164581 74.19230937957764,46.58170938491821 74.19230937957764,46.58170938491821 73.3140766620636,47.73052930831909 73.3140766620636,47.73052930831909 72.54723906517029,48.95890653133392 72.54723906517029,48.95890653133392 71.90041542053223,50.258541107177734 71.90041542053223,50.258541107177734 71.60540819168091,50.982844829559326 71.60540819168091,50.982844829559326 71.34878635406494,51.72119140625 71.34878635406494,51.72119140625 71.13086581230164,52.47151255607605 71.13086581230164,52.47151255607605 70.95180153846741,53.231966495513916 70.95180153846741,53.231966495513916 70.81208229064941,54.00063991546631 70.81208229064941,54.00063991546631 70.7119345664978,54.775696992874146 70.7119345664978,54.775696992874146 70.65153121948242,55.555057525634766 70.65153121948242,55.555057525634766 70.631343126297,56.337058544158936 70.631343126297,56.337058544158936 70.63900232315063,56.81312084197998 70.63900232315063,56.81312084197998 70.66166400909424,57.28862285614014 70.66166400909424,57.28862285614014 70.69932818412781,57.76316523551941 70.69932818412781,57.76316523551941 70.75199484825134,58.23627710342407 70.75199484825134,58.23627710342407 70.81950306892395,58.70746970176697 70.81950306892395,58.70746970176697 70.90169191360474,59.176427125930786 70.90169191360474,59.176427125930786 70.99864482879639,59.64251756668091 70.99864482879639,59.64251756668091 71.11011743545532,60.105329751968384 71.11011743545532,60.105329751968384 71.18943333625793,60.368019342422485 71.18943333625793,60.368019342422485 71.2717056274414,60.59160828590393 71.2717056274414,60.59160828590393 71.34343981742859,60.78606843948364 71.34343981742859,60.78606843948364 71.39083743095398,60.96169948577881 71.39083743095398,60.96169948577881 71.40041589736938,61.12847328186035 71.40041589736938,61.12847328186035 71.35844230651855,61.296361684799194 71.35844230651855,61.296361684799194 71.25127911567688,61.475664377212524 71.25127911567688,61.475664377212524 71.06543183326721,61.67634725570679 71.06543183326721,61.67634725570679 70.96592783927917,61.77050471305847 70.96592783927917,61.77050471305847 70.86746096611023,61.865782737731934 70.86746096611023,61.865782737731934 70.77010869979858,61.9620144367218 70.77010869979858,61.9620144367218 70.67379355430603,62.05945014953613 70.67379355430603,62.05945014953613 70.57852149009705,62.157994508743286 70.57852149009705,62.157994508743286 70.48444151878357,62.25758194923401 70.48444151878357,62.25758194923401 70.39147615432739,62.35836148262024 70.39147615432739,62.35836148262024 70.29939293861389,62.46026158332825 70.29939293861389,62.46026158332825 69.10979747772217,64.0833854675293 69.10979747772217,64.0833854675293 68.24880242347717,65.85269570350647 68.24880242347717,65.85269570350647 67.65839457511902,67.73563623428345 67.65839457511902,67.73563623428345 67.2808825969696,69.69988942146301 67.2808825969696,69.69988942146301 67.05840826034546,71.71289324760437 67.05840826034546,71.71289324760437 66.93305373191833,73.74234199523926 66.93305373191833,73.74234199523926 66.84703230857849,75.7556676864624 66.84703230857849,75.7556676864624 66.7424201965332,77.72039771080017 66.7424201965332,77.72039771080017 66.73539876937866,78.02537679672241 66.73539876937866,78.02537679672241 66.7328417301178,78.55011224746704 66.7328417301178,78.55011224746704 66.72701835632324,79.21720147132874 66.72701835632324,79.21720147132874 66.71002507209778,79.94909286499023 66.71002507209778,79.94909286499023 66.6738748550415,80.66844940185547 66.6738748550415,80.66844940185547 66.61075353622437,81.29755854606628 66.61075353622437,81.29755854606628 66.51284694671631,81.75917863845825 66.51284694671631,81.75917863845825 66.37216806411743,81.97574019432068 66.37216806411743,81.97574019432068 66.00207686424255,82.12894797325134 66.00207686424255,82.12894797325134 65.6319797039032,82.28223919868469 65.6319797039032,82.28223919868469 65.26188850402832,82.43560194969177 65.26188850402832,82.43560194969177 64.89179730415344,82.58889317512512 64.89179730415344,82.58889317512512 64.52170610427856,82.742178440094 64.52170610427856,82.742178440094 64.1516923904419,82.89554715156555 64.1516923904419,82.89554715156555 63.78151774406433,83.04875493049622 63.78151774406433,83.04875493049622 63.41142654418945,83.20204019546509 63.41142654418945,83.20204019546509 49.38270151615143,89.0124499797821 49.38270151615143,89.0124499797821 33.613789081573486,95.54420709609985 33.613789081573486,95.54420709609985 32.596153020858765,95.98667621612549 32.596153020858765,95.98667621612549 31.551867723464966,96.4676022529602 31.551867723464966,96.4676022529602 30.48611581325531,96.96345329284668 30.48611581325531,96.96345329284668 29.4039249420166,97.45036959648132 29.4039249420166,97.45036959648132 28.310564160346985,97.90472388267517 28.310564160346985,97.90472388267517 27.211138606071472,98.30282330513 27.211138606071472,98.30282330513 26.110917329788208,98.62096905708313 26.110917329788208,98.62096905708313 25.015002489089966,98.83562326431274 25.015002489089966,98.83562326431274 23.67347627878189,98.90910983085632 23.67347627878189,98.90910983085632 22.357085347175598,98.75742197036743 22.357085347175598,98.75742197036743 21.09176516532898,98.39538931846619 21.09176516532898,98.39538931846619 19.903606176376343,97.83777594566345 19.903606176376343,97.83777594566345 18.818624317646027,97.0994234085083 18.818624317646027,97.0994234085083 17.86283105611801,96.19501829147339 17.86283105611801,96.19501829147339 17.062319815158844,95.13956308364868 17.062319815158844,95.13956308364868 16.443026065826416,93.94765496253967 16.443026065826416,93.94765496253967 16.30234569311142,93.60868334770203 16.30234569311142,93.60868334770203 16.16174578666687,93.26971173286438 16.16174578666687,93.26971173286438 16.021305322647095,92.93074011802673 16.021305322647095,92.93074011802673 15.880785882472992,92.5916850566864 15.880785882472992,92.5916850566864 15.740424394607544,92.25263595581055 15.740424394607544,92.25263595581055 15.600143373012543,91.91358089447021 15.600143373012543,91.91358089447021 15.459783375263214,91.57437086105347 15.459783375263214,91.57437086105347 15.319502353668213,91.23523831367493 15.319502353668213,91.23523831367493 9.557612240314484,77.3277997970581 9.557612240314484,77.3277997970581 3.0820300802588463,61.69549822807312 3.0820300802588463,61.69549822807312 2.5698212906718254,60.519951581954956 2.5698212906718254,60.519951581954956 2.0092563703656197,59.28918123245239 2.0092563703656197,59.28918123245239 1.4439036138355732,58.01612138748169 1.4439036138355732,58.01612138748169 0.9171720594167709,56.713610887527466 0.9171720594167709,56.713610887527466 0.47278967685997486,55.39475083351135 0.47278967685997486,55.39475083351135 0.1542451325803995,54.07229661941528 0.1542451325803995,54.07229661941528 0.005186722046346404,52.759337425231934 0.005186722046346404,52.759337425231934 0.0689435051754117,51.468878984451294 0.0689435051754117,51.468878984451294 0.901053287088871,52.31471657752991 0.901053287088871,52.31471657752991 1.827242225408554,53.06304097175598 1.827242225408554,53.06304097175598 2.8278807178139687,53.72965335845947 2.8278807178139687,53.72965335845947 3.8830194622278214,54.33035492897034 3.8830194622278214,54.33035492897034 4.973108693957329,54.880863428115845 4.973108693957329,54.880863428115845 6.078359484672546,55.39698600769043 6.078359484672546,55.39698600769043 7.178981602191925,55.89466691017151 7.178981602191925,55.89466691017151 8.255346119403839,56.389403343200684 8.255346119403839,56.389403343200684 20.130226016044617,61.99042201042175 20.130226016044617,61.99042201042175 32.5809121131897,67.86211133003235 32.5809121131897,67.86211133003235 33.44095051288605,68.27689409255981 33.44095051288605,68.27689409255981 34.304818511009216,68.70507597923279 34.304818511009216,68.70507597923279 35.173237323760986,69.13732886314392 35.173237323760986,69.13732886314392 36.04691922664642,69.5646345615387 36.04691922664642,69.5646345615387 36.9267463684082,69.97765898704529 36.9267463684082,69.97765898704529 37.81343698501587,70.36721706390381 37.81343698501587,70.36721706390381 38.70778679847717,70.72422504425049 38.70778679847717,70.72422504425049 39.61059749126434,71.03925943374634 39.61059749126434,71.03925943374634 42.46010184288025,71.64634466171265 42.46010184288025,71.64634466171265 45.23380100727081,71.65719866752625 45.23380100727081,71.65719866752625 47.878071665763855,71.11817598342896 47.878071665763855,71.11817598342896 50.33993124961853,70.07564902305603 50.33993124961853,70.07564902305603 52.56575345993042,68.57604384422302 52.56575345993042,68.57604384422302 54.50239181518555,66.66565537452698 54.50239181518555,66.66565537452698 56.09647035598755,64.3909215927124 56.09647035598755,64.3909215927124 57.294607162475586,61.798274517059326 57.294607162475586,61.798274517059326 61.51803135871887,50.03511309623718 61.51803135871887,50.03511309623718 67.33865141868591,33.825087547302246 67.33865141868591,33.825087547302246 67.84448027610779,32.479411363601685 67.84448027610779,32.479411363601685 68.39339137077332,31.078997254371643 68.39339137077332,31.078997254371643 68.94701719284058,29.637888073921204 68.94701719284058,29.637888073921204 69.46712136268616,28.169885277748108 69.46712136268616,28.169885277748108 69.91541385650635,26.689276099205017 69.91541385650635,26.689276099205017 70.2537477016449,25.21018087863922 70.2537477016449,25.21018087863922 70.44398188591003,23.74640852212906 70.44398188591003,23.74640852212906 70.4474925994873,22.312161326408386 70.4474925994873,22.312161326408386 71.49824500083923,23.271305859088898 71.49824500083923,23.271305859088898 72.40001559257507,24.431854486465454 72.40001559257507,24.431854486465454 73.17667007446289,25.743457674980164 73.17667007446289,25.743457674980164 73.85221719741821,27.155840396881104 73.85221719741821,27.155840396881104 74.45052862167358,28.61865758895874 74.45052862167358,28.61865758895874 74.99569058418274,30.081471800804138 74.99569058418274,30.081471800804138 75.51133036613464,31.494176387786865 75.51133036613464,31.494176387786865 76.02170705795288,32.80625641345978 76.02170705795288,32.80625641345978" stroke="white" stroke-width="0.1" /><polygon points="99.12543892860413,69.89083886146545 99.12543892860413,69.89083886146545 99.12543892860413,69.89083886146545 99.12543892860413,69.89083886146545 99.6680498123169,77.73380279541016 99.6680498123169,77.73380279541016 99.73715543746948,78.53335738182068 99.73715543746948,78.53335738182068 99.82444643974304,79.36825752258301 99.82444643974304,79.36825752258301 99.91030693054199,80.22590279579163 99.91030693054199,80.22590279579163 99.97526407241821,81.09335899353027 99.97526407241821,81.09335899353027 99.9997615814209,81.95787072181702 99.9997615814209,81.95787072181702 99.96457099914551,82.80665278434753 99.96457099914551,82.80665278434753 99.84966516494751,83.62703323364258 99.84966516494751,83.62703323364258 99.63613152503967,84.40600037574768 99.63613152503967,84.40600037574768 99.18097853660583,85.38812398910522 99.18097853660583,85.38812398910522 98.59208464622498,86.20308041572571 98.59208464622498,86.20308041572571 97.88668751716614,86.86211109161377 97.88668751716614,86.86211109161377 97.08186984062195,87.37639784812927 97.08186984062195,87.37639784812927 96.19501829147339,87.75702118873596 96.19501829147339,87.75702118873596 95.24289965629578,88.01500201225281 95.24289965629578,88.01500201225281 94.2432165145874,88.16174864768982 94.2432165145874,88.16174864768982 93.21289658546448,88.20810914039612 93.21289658546448,88.20810914039612 78.26747298240662,88.20810914039612 78.26747298240662,88.20810914039612 77.19733715057373,88.14905881881714 77.19733715057373,88.14905881881714 76.16446018218994,87.96760439872742 76.16446018218994,87.96760439872742 75.18887519836426,87.65743970870972 75.18887519836426,87.65743970870972 74.29061532020569,87.21217513084412 74.29061532020569,87.21217513084412 73.48986864089966,86.62543892860413 73.48986864089966,86.62543892860413 72.80673384666443,85.89068055152893 72.80673384666443,85.89068055152893 72.26133346557617,85.00167727470398 72.26133346557617,85.00167727470398 71.87360525131226,83.95212292671204 71.87360525131226,83.95212292671204 71.72917127609253,83.23786854743958 71.72917127609253,83.23786854743958 71.65943384170532,82.499760389328 71.65943384170532,82.499760389328 71.64921760559082,81.74489140510559 71.64921760559082,81.74489140510559 71.68368697166443,80.98044991493225 71.68368697166443,80.98044991493225 71.74752354621887,80.21345138549805 71.74752354621887,80.21345138549805 71.82620763778687,79.45100665092468 71.82620763778687,79.45100665092468 71.90432548522949,78.70012521743774 71.90432548522949,78.70012521743774 71.96680307388306,77.96807885169983 71.96680307388306,77.96807885169983 72.06710577011108,75.86753964424133 72.06710577011108,75.86753964424133 72.17323780059814,73.55793118476868 72.17323780059814,73.55793118476868 72.3956286907196,71.18879556655884 72.3956286907196,71.18879556655884 72.84455895423889,68.90982985496521 72.84455895423889,68.90982985496521 73.63030910491943,66.8704092502594 73.63030910491943,66.8704092502594 74.8630702495575,65.21991491317749 74.8630702495575,65.21991491317749 76.65344476699829,64.10820484161377 76.65344476699829,64.10820484161377 79.11139726638794,63.684648275375366 79.11139726638794,63.684648275375366 77.06790566444397,61.08458638191223 77.06790566444397,61.08458638191223 76.07660293579102,58.18049907684326 76.07660293579102,58.18049907684326 76.04141235351562,55.18776178359985 76.04141235351562,55.18776178359985 76.86626315116882,52.32141613960266 76.86626315116882,52.32141613960266 78.45499515533447,49.796679615974426 78.45499515533447,49.796679615974426 80.71146011352539,47.82867729663849 80.71146011352539,47.82867729663849 83.53965878486633,46.63277864456177 83.53965878486633,46.63277864456177 86.84328198432922,46.42387628555298 86.84328198432922,46.42387628555298 89.75071907043457,47.17626869678497 89.75071907043457,47.17626869678497 92.14682579040527,48.67890179157257 92.14682579040527,48.67890179157257 93.97382736206055,50.7574200630188 93.97382736206055,50.7574200630188 95.1736330986023,53.23731303215027 95.1736330986023,53.23731303215027 95.6881582736969,55.94438314437866 95.6881582736969,55.94438314437866 95.4594612121582,58.70427489280701 95.4594612121582,58.70427489280701 94.42946314811707,61.342406272888184 94.42946314811707,61.342406272888184 92.54005551338196,63.684648275375366 92.54005551338196,63.684648275375366 93.7832772731781,63.82325291633606 93.7832772731781,63.82325291633606 94.96153593063354,64.19517993927002 94.96153593063354,64.19517993927002 96.04747891426086,64.77481722831726 96.04747891426086,64.77481722831726 97.01340794563293,65.53646922111511 97.01340794563293,65.53646922111511 97.831791639328,66.45451784133911 97.831791639328,66.45451784133911 98.47486615180969,67.50335097312927 98.47486615180969,67.50335097312927 98.91541600227356,68.65735650062561 98.91541600227356,68.65735650062561" stroke="white" stroke-width="0.1" /><polygon points="60.820937156677246,16.6000634431839 60.820937156677246,16.6000634431839 61.18975281715393,16.77529513835907 61.693185567855835,17.034710943698883 62.26699352264404,17.364825308322906 62.847113609313965,17.752473056316376 63.36929202079773,18.18416863679886 63.76931071281433,18.646664917469025 63.98316025733948,19.12655532360077 63.946378231048584,19.61059719324112 63.47877383232117,20.361873507499695 62.72845268249512,21.037663519382477 61.77130341529846,21.643073856830597 60.68289279937744,22.183211147785187 59.53894257545471,22.66310304403305 58.41493606567383,23.087935149669647 57.38669037818909,23.46273511648178 56.52984380722046,23.792530596256256 43.33099126815796,29.259496927261353 12.603893876075745,41.987231373786926 11.80250570178032,42.32380986213684 11.00175529718399,42.66645312309265 10.200606286525726,43.011489510536194 9.398340433835983,43.35501194000244 8.593999594449997,43.693265318870544 7.786785811185837,44.02258098125458 6.975822150707245,44.33913230895996 6.160229817032814,44.63900327682495 5.653686448931694,44.80880796909332 5.065911263227463,44.97430622577667 4.440312832593918,45.09974420070648 3.8198214024305344,45.14985680580139 3.24784554541111,45.08889317512512 2.767874300479889,44.88142430782318 2.4226779118180275,44.49170231819153 2.2559847682714462,43.884456157684326 2.2384297102689743,43.45276057720184 2.257261425256729,43.0215448141098 2.3080114275217056,42.59200394153595 2.3860517889261246,42.165178060531616 2.486753836274147,41.742101311683655 2.6055697351694107,41.32381081581116 2.7378709986805916,40.91150760650635 2.8790296986699104,40.50622284412384 4.104692116379738,37.09479868412018 14.595595002174377,7.883179187774658 14.753271639347076,7.4358440935611725 14.909671247005463,6.984918564558029 15.0684654712677,6.533195078372955 15.23316353559494,6.082987412810326 15.4073566198349,5.63700944185257 15.59479683637619,5.197813734412193 15.79875499010086,4.767874255776405 16.022981703281403,4.349824413657188 17.00853854417801,2.9614586383104324 18.203797936439514,1.828758418560028 19.56782639026642,0.9602617472410202 21.059687435626984,0.3645866643637419 22.638365626335144,0.050191511400043964 24.2631658911705,0.02569422358646989 25.892913341522217,0.29947333969175816 27.486753463745117,0.8803064003586769 36.50941550731659,5.135014280676842" stroke="white" stroke-width="0.1" /><polygon points="79.96169924736023,42.32109785079956 79.96169924736023,42.32109785079956 78.65208983421326,42.94765293598175 77.41190791130066,43.69533956050873 76.24959945678711,44.55577731132507 75.17363429069519,45.52066624164581 74.19230937957764,46.58170938491821 73.3140766620636,47.73052930831909 72.54723906517029,48.95890653133392 71.90041542053223,50.258541107177734 71.60540819168091,50.982844829559326 71.34878635406494,51.72119140625 71.13086581230164,52.47151255607605 70.95180153846741,53.231966495513916 70.81208229064941,54.00063991546631 70.7119345664978,54.775696992874146 70.65153121948242,55.555057525634766 70.631343126297,56.337058544158936 70.63900232315063,56.81312084197998 70.66166400909424,57.28862285614014 70.69932818412781,57.76316523551941 70.75199484825134,58.23627710342407 70.81950306892395,58.70746970176697 70.90169191360474,59.176427125930786 70.99864482879639,59.64251756668091 71.11011743545532,60.105329751968384 71.18943333625793,60.368019342422485 71.2717056274414,60.59160828590393 71.34343981742859,60.78606843948364 71.39083743095398,60.96169948577881 71.40041589736938,61.12847328186035 71.35844230651855,61.296361684799194 71.25127911567688,61.475664377212524 71.06543183326721,61.67634725570679 70.96592783927917,61.77050471305847 70.86746096611023,61.865782737731934 70.77010869979858,61.9620144367218 70.67379355430603,62.05945014953613 70.57852149009705,62.157994508743286 70.48444151878357,62.25758194923401 70.39147615432739,62.35836148262024 70.29939293861389,62.46026158332825 69.10979747772217,64.0833854675293 68.24880242347717,65.85269570350647 67.65839457511902,67.73563623428345 67.2808825969696,69.69988942146301 67.05840826034546,71.71289324760437 66.93305373191833,73.74234199523926 66.84703230857849,75.7556676864624 66.7424201965332,77.72039771080017 66.73539876937866,78.02537679672241 66.7328417301178,78.55011224746704 66.72701835632324,79.21720147132874 66.71002507209778,79.94909286499023 66.6738748550415,80.66844940185547 66.61075353622437,81.29755854606628 66.51284694671631,81.75917863845825 66.37216806411743,81.97574019432068 66.00207686424255,82.12894797325134 65.6319797039032,82.28223919868469 65.26188850402832,82.43560194969177 64.89179730415344,82.58889317512512 64.52170610427856,82.742178440094 64.1516923904419,82.89554715156555 63.78151774406433,83.04875493049622 63.41142654418945,83.20204019546509 49.38270151615143,89.0124499797821 33.613789081573486,95.54420709609985 32.596153020858765,95.98667621612549 31.551867723464966,96.4676022529602 30.48611581325531,96.96345329284668 29.4039249420166,97.45036959648132 28.310564160346985,97.90472388267517 27.211138606071472,98.30282330513 26.110917329788208,98.62096905708313 25.015002489089966,98.83562326431274 23.67347627878189,98.90910983085632 22.357085347175598,98.75742197036743 21.09176516532898,98.39538931846619 19.903606176376343,97.83777594566345 18.818624317646027,97.0994234085083 17.86283105611801,96.19501829147339 17.062319815158844,95.13956308364868 16.443026065826416,93.94765496253967 16.30234569311142,93.60868334770203 16.16174578666687,93.26971173286438 16.021305322647095,92.93074011802673 15.880785882472992,92.5916850566864 15.740424394607544,92.25263595581055 15.600143373012543,91.91358089447021 15.459783375263214,91.57437086105347 15.319502353668213,91.23523831367493 9.557612240314484,77.3277997970581 3.0820300802588463,61.69549822807312 2.5698212906718254,60.519951581954956 2.0092563703656197,59.28918123245239 1.4439036138355732,58.01612138748169 0.9171720594167709,56.713610887527466 0.47278967685997486,55.39475083351135 0.1542451325803995,54.07229661941528 0.005186722046346404,52.759337425231934 0.0689435051754117,51.468878984451294 0.901053287088871,52.31471657752991 1.827242225408554,53.06304097175598 2.8278807178139687,53.72965335845947 3.8830194622278214,54.33035492897034 4.973108693957329,54.880863428115845 6.078359484672546,55.39698600769043 7.178981602191925,55.89466691017151 8.255346119403839,56.389403343200684 20.130226016044617,61.99042201042175 32.5809121131897,67.86211133003235 33.44095051288605,68.27689409255981 34.304818511009216,68.70507597923279 35.173237323760986,69.13732886314392 36.04691922664642,69.5646345615387 36.9267463684082,69.97765898704529 37.81343698501587,70.36721706390381 38.70778679847717,70.72422504425049 39.61059749126434,71.03925943374634 42.46010184288025,71.64634466171265 45.23380100727081,71.65719866752625 47.878071665763855,71.11817598342896 50.33993124961853,70.07564902305603 52.56575345993042,68.57604384422302 54.50239181518555,66.66565537452698 56.09647035598755,64.3909215927124 57.294607162475586,61.798274517059326 61.51803135871887,50.03511309623718 67.33865141868591,33.825087547302246 67.84448027610779,32.479411363601685 68.39339137077332,31.078997254371643 68.94701719284058,29.637888073921204 69.46712136268616,28.169885277748108 69.91541385650635,26.689276099205017 70.2537477016449,25.21018087863922 70.44398188591003,23.74640852212906 70.4474925994873,22.312161326408386 71.49824500083923,23.271305859088898 72.40001559257507,24.431854486465454 73.17667007446289,25.743457674980164 73.85221719741821,27.155840396881104 74.45052862167358,28.61865758895874 74.99569058418274,30.081471800804138 75.51133036613464,31.494176387786865 76.02170705795288,32.80625641345978" stroke="white" stroke-width="0.1" /><polygon points="99.12543892860413,69.89083886146545 99.12543892860413,69.89083886146545 99.6680498123169,77.73380279541016 99.73715543746948,78.53335738182068 99.82444643974304,79.36825752258301 99.91030693054199,80.22590279579163 99.97526407241821,81.09335899353027 99.9997615814209,81.95787072181702 99.96457099914551,82.80665278434753 99.84966516494751,83.62703323364258 99.63613152503967,84.40600037574768 99.18097853660583,85.38812398910522 98.59208464622498,86.20308041572571 97.88668751716614,86.86211109161377 97.08186984062195,87.37639784812927 96.19501829147339,87.75702118873596 95.24289965629578,88.01500201225281 94.2432165145874,88.16174864768982 93.21289658546448,88.20810914039612 78.26747298240662,88.20810914039612 77.19733715057373,88.14905881881714 76.16446018218994,87.96760439872742 75.18887519836426,87.65743970870972 74.29061532020569,87.21217513084412 73.48986864089966,86.62543892860413 72.80673384666443,85.89068055152893 72.26133346557617,85.00167727470398 71.87360525131226,83.95212292671204 71.72917127609253,83.23786854743958 71.65943384170532,82.499760389328 71.64921760559082,81.74489140510559 71.68368697166443,80.98044991493225 71.74752354621887,80.21345138549805 71.82620763778687,79.45100665092468 71.90432548522949,78.70012521743774 71.96680307388306,77.96807885169983 72.06710577011108,75.86753964424133 72.17323780059814,73.55793118476868 72.3956286907196,71.18879556655884 72.84455895423889,68.90982985496521 73.63030910491943,66.8704092502594 74.8630702495575,65.21991491317749 76.65344476699829,64.10820484161377 79.11139726638794,63.684648275375366 77.06790566444397,61.08458638191223 76.07660293579102,58.18049907684326 76.04141235351562,55.18776178359985 76.86626315116882,52.32141613960266 78.45499515533447,49.796679615974426 80.71146011352539,47.82867729663849 83.53965878486633,46.63277864456177 86.84328198432922,46.42387628555298 89.75071907043457,47.17626869678497 92.14682579040527,48.67890179157257 93.97382736206055,50.7574200630188 95.1736330986023,53.23731303215027 95.6881582736969,55.94438314437866 95.4594612121582,58.70427489280701 94.42946314811707,61.342406272888184 92.54005551338196,63.684648275375366 93.7832772731781,63.82325291633606 94.96153593063354,64.19517993927002 96.04747891426086,64.77481722831726 97.01340794563293,65.53646922111511 97.831791639328,66.45451784133911 98.47486615180969,67.50335097312927 98.91541600227356,68.65735650062561" stroke="white" stroke-width="0.1" /></svg>