<?xml version="1.0" encoding="utf-8" ?>
<svg baseProfile="full" height="97.22203612327576" version="1.1" width="100.0" xmlns="http://www.w3.org/2000/svg" xmlns:ev="http://www.w3.org/2001/xml-events" xmlns:xlink="http://www.w3.org/1999/xlink"><defs><clipPath /></defs><polygon points="73.60889911651611,6.9444917142391205 73.60889911651611,6.9444917142391205 73.60889911651611,56.94534182548523 73.60889911651611,56.94534182548523 66.6644036769867,56.94534182548523 66.6644036769867,56.94534182548523 65.26488065719604,57.086485624313354 65.26488065719604,57.086485624313354 63.96141052246094,57.49116539955139 63.96141052246094,57.49116539955139 62.78175711631775,58.13140273094177 62.78175711631775,58.13140273094177 61.75401210784912,58.97943377494812 61.75401210784912,58.97943377494812 60.906028747558594,60.00729203224182 60.906028747558594,60.00729203224182 60.265737771987915,61.186784505844116 60.265737771987915,61.186784505844116 59.86100435256958,62.49035596847534 59.86100435256958,62.49035596847534 59.71991419792175,63.88983130455017 59.71991419792175,63.88983130455017 59.71991419792175,97.22203612327576 59.71991419792175,97.22203612327576 40.27669429779053,97.22203612327576 40.27669429779053,97.22203612327576 40.27669429779053,47.22457826137543 40.27669429779053,47.22457826137543 40.13565480709076,45.825210213661194 40.13565480709076,45.825210213661194 39.73092436790466,44.521528482437134 39.73092436790466,44.521528482437134 39.090633392333984,43.34203600883484 39.090633392333984,43.34203600883484 38.2425993680954,42.31418073177338 38.2425993680954,42.31418073177338 37.21479773521423,41.466039419174194 37.21479773521423,41.466039419174194 36.03525161743164,40.82580208778381 36.03525161743164,40.82580208778381 34.731677174568176,40.42122960090637 34.731677174568176,40.42122960090637 33.33220183849335,40.28008580207825 33.33220183849335,40.28008580207825 26.387712359428406,40.28008580207825 26.387712359428406,40.28008580207825 26.387712359428406,6.9444917142391205 26.387712359428406,6.9444917142391205 26.528802514076233,5.545124039053917 26.528802514076233,5.545124039053917 26.93348228931427,4.241442307829857 26.93348228931427,4.241442307829857 27.573826909065247,3.061845153570175 27.573826909065247,3.061845153570175 28.421807289123535,2.0340951159596443 28.421807289123535,2.0340951159596443 29.4496089220047,1.1861669830977917 29.4496089220047,1.1861669830977917 30.62925934791565,0.5457173567265272 30.62925934791565,0.5457173567265272 31.932729482650757,0.14114475343376398 31.932729482650757,0.14114475343376398 33.33220183849335,0.0 33.33220183849335,0.0 66.6644036769867,0.0 66.6644036769867,0.0 68.06387901306152,0.14114475343376398 68.06387901306152,0.14114475343376398 69.36740279197693,0.5457173567265272 69.36740279197693,0.5457173567265272 70.54705023765564,1.1860609985888004 70.54705023765564,1.1860609985888004 71.57480120658875,2.0340951159596443 71.57480120658875,2.0340951159596443 72.42283821105957,3.061845153570175 72.42283821105957,3.061845153570175 73.06318283081055,4.241548106074333 73.06318283081055,4.241548106074333 73.46775531768799,5.545124039053917 73.46775531768799,5.545124039053917" stroke="white" stroke-width="0.1" /><polygon points="3.4722458571195602,47.22457826137543 3.4722458571195602,47.22457826137543 29.859957098960876,47.22457826137543 29.859957098960876,47.22457826137543 30.557310581207275,47.295573353767395 30.557310581207275,47.295573353767395 31.20793104171753,47.49860167503357 31.20793104171753,47.49860167503357 31.79757297039032,47.81988561153412 31.79757297039032,47.81988561153412 32.311975955963135,48.24480414390564 32.311975955963135,48.24480414390564 32.736948132514954,48.75936806201935 32.736948132514954,48.75936806201935 33.05812478065491,49.348849058151245 33.05812478065491,49.348849058151245 33.261364698410034,49.999576807022095 33.261364698410034,49.999576807022095 33.33220183849335,50.69682002067566 33.33220183849335,50.69682002067566 33.33220183849335,93.74978542327881 33.33220183849335,93.74978542327881 33.261314034461975,94.44703459739685 33.261314034461975,94.44703459739685 33.058178424835205,95.0976550579071 33.058178424835205,95.0976550579071 32.736948132514954,95.68734765052795 32.736948132514954,95.68734765052795 32.311975955963135,96.2018072605133 32.311975955963135,96.2018072605133 31.797519326210022,96.62672281265259 31.797519326210022,96.62672281265259 31.20788037776947,96.94800972938538 31.20788037776947,96.94800972938538 30.557310581207275,97.15103507041931 30.557310581207275,97.15103507041931 29.859957098960876,97.22203612327576 29.859957098960876,97.22203612327576 3.4722458571195602,97.22203612327576 3.4722458571195602,97.22203612327576 2.774946205317974,97.15114235877991 2.774946205317974,97.15114235877991 2.124376967549324,96.94790244102478 2.124376967549324,96.94790244102478 1.5346312895417213,96.62672281265259 1.5346312895417213,96.62672281265259 1.0202265344560146,96.2018072605133 1.0202265344560146,96.2018072605133 0.5953087471425533,95.68734765052795 0.5953087471425533,95.68734765052795 0.27407726738601923,95.0977623462677 0.27407726738601923,95.0977623462677 0.0708902720361948,94.44703459739685 0.0708902720361948,94.44703459739685 0.0,93.74978542327881 0.0,93.74978542327881 0.0,50.69682002067566 0.0,50.69682002067566 0.0708902720361948,49.999576807022095 0.0708902720361948,49.999576807022095 0.2741302363574505,49.348849058151245 0.2741302363574505,49.348849058151245 0.5952557548880577,48.759156465530396 0.5952557548880577,48.759156465530396 1.0202265344560146,48.24480414390564 1.0202265344560146,48.24480414390564 1.534684281796217,47.81988561153412 1.534684281796217,47.81988561153412 2.124323882162571,47.49860167503357 2.124323882162571,47.49860167503357 2.774946205317974,47.295573353767395 2.774946205317974,47.295573353767395" stroke="white" stroke-width="0.1" /><polygon points="70.13665437698364,63.88983130455017 70.13665437698364,63.88983130455017 96.52775526046753,63.88983130455017 96.52775526046753,63.88983130455017 97.22505211830139,63.96082639694214 97.22505211830139,63.96082639694214 97.87572622299194,64.16385769844055 97.87572622299194,64.16385769844055 98.46531748771667,64.48513865470886 98.46531748771667,64.48513865470886 98.97977113723755,64.91006016731262 98.97977113723755,64.91006016731262 99.4047999382019,65.4244065284729 99.4047999382019,65.4244065284729 99.72591996192932,66.01420640945435 99.72591996192932,66.01420640945435 99.92911219596863,66.66472554206848 99.92911219596863,66.66472554206848 100.0,67.36207604408264 100.0,67.36207604408264 100.0,93.74978542327881 100.0,93.74978542327881 99.92911219596863,94.44703459739685 99.92911219596863,94.44703459739685 99.72597360610962,95.0976550579071 99.72597360610962,95.0976550579071 99.4047462940216,95.68734765052795 99.4047462940216,95.68734765052795 98.97977113723755,96.2018072605133 98.97977113723755,96.2018072605133 98.46537113189697,96.62672281265259 98.46537113189697,96.62672281265259 97.87567853927612,96.94800972938538 97.87567853927612,96.94800972938538 97.22505211830139,97.15103507041931 97.22505211830139,97.15103507041931 96.52775526046753,97.22203612327576 96.52775526046753,97.22203612327576 70.13665437698364,97.22203612327576 70.13665437698364,97.22203612327576 69.439297914505,97.15114235877991 69.439297914505,97.15114235877991 68.78878474235535,96.94790244102478 68.78878474235535,96.94790244102478 68.1990921497345,96.62672281265259 68.1990921497345,96.62672281265259 67.68463253974915,96.2018072605133 67.68463253974915,96.2018072605133 67.25966334342957,95.68734765052795 67.25966334342957,95.68734765052795 66.93848371505737,95.0977623462677 66.93848371505737,95.0977623462677 66.73529744148254,94.44703459739685 66.73529744148254,94.44703459739685 66.6644036769867,93.74978542327881 66.6644036769867,93.74978542327881 66.6644036769867,67.36207604408264 66.6644036769867,67.36207604408264 66.73529744148254,66.66483283042908 66.73529744148254,66.66483283042908 66.93853735923767,66.01409912109375 66.93853735923767,66.01409912109375 67.25971698760986,65.4245138168335 67.25971698760986,65.4245138168335 67.68463253974915,64.91006016731262 67.68463253974915,64.91006016731262 68.1990921497345,64.48503136634827 68.1990921497345,64.48503136634827 68.78873109817505,64.16395902633667 68.78873109817505,64.16395902633667 69.4393515586853,63.96071910858154 69.4393515586853,63.96071910858154" stroke="white" stroke-width="0.1" /><polygon points="73.60889911651611,6.9444917142391205 73.60889911651611,56.94534182548523 66.6644036769867,56.94534182548523 65.26488065719604,57.086485624313354 63.96141052246094,57.49116539955139 62.78175711631775,58.13140273094177 61.75401210784912,58.97943377494812 60.906028747558594,60.00729203224182 60.265737771987915,61.186784505844116 59.86100435256958,62.49035596847534 59.71991419792175,63.88983130455017 59.71991419792175,97.22203612327576 40.27669429779053,97.22203612327576 40.27669429779053,47.22457826137543 40.13565480709076,45.825210213661194 39.73092436790466,44.521528482437134 39.090633392333984,43.34203600883484 38.2425993680954,42.31418073177338 37.21479773521423,41.466039419174194 36.03525161743164,40.82580208778381 34.731677174568176,40.42122960090637 33.33220183849335,40.28008580207825 26.387712359428406,40.28008580207825 26.387712359428406,6.9444917142391205 26.528802514076233,5.545124039053917 26.93348228931427,4.241442307829857 27.573826909065247,3.061845153570175 28.421807289123535,2.0340951159596443 29.4496089220047,1.1861669830977917 30.62925934791565,0.5457173567265272 31.932729482650757,0.14114475343376398 33.33220183849335,0.0 66.6644036769867,0.0 68.06387901306152,0.14114475343376398 69.36740279197693,0.5457173567265272 70.54705023765564,1.1860609985888004 71.57480120658875,2.0340951159596443 72.42283821105957,3.061845153570175 73.06318283081055,4.241548106074333 73.46775531768799,5.545124039053917" stroke="white" stroke-width="0.1" /><polygon points="3.4722458571195602,47.22457826137543 29.859957098960876,47.22457826137543 30.557310581207275,47.295573353767395 31.20793104171753,47.49860167503357 31.79757297039032,47.81988561153412 32.311975955963135,48.24480414390564 32.736948132514954,48.75936806201935 33.05812478065491,49.348849058151245 33.261364698410034,49.999576807022095 33.33220183849335,50.69682002067566 33.33220183849335,93.74978542327881 33.261314034461975,94.44703459739685 33.058178424835205,95.0976550579071 32.736948132514954,95.68734765052795 32.311975955963135,96.2018072605133 31.797519326210022,96.62672281265259 31.20788037776947,96.94800972938538 30.557310581207275,97.15103507041931 29.859957098960876,97.22203612327576 3.4722458571195602,97.22203612327576 2.774946205317974,97.15114235877991 2.124376967549324,96.94790244102478 1.5346312895417213,96.62672281265259 1.0202265344560146,96.2018072605133 0.5953087471425533,95.68734765052795 0.27407726738601923,95.0977623462677 0.0708902720361948,94.44703459739685 0.0,93.74978542327881 0.0,50.69682002067566 0.0708902720361948,49.999576807022095 0.2741302363574505,49.348849058151245 0.5952557548880577,48.759156465530396 1.0202265344560146,48.24480414390564 1.534684281796217,47.81988561153412 2.124323882162571,47.49860167503357 2.774946205317974,47.295573353767395" stroke="white" stroke-width="0.1" /><polygon points="70.13665437698364,63.88983130455017 96.52775526046753,63.88983130455017 97.22505211830139,63.96082639694214 97.87572622299194,64.16385769844055 98.46531748771667,64.48513865470886 98.97977113723755,64.91006016731262 99.4047999382019,65.4244065284729 99.72591996192932,66.01420640945435 99.92911219596863,66.66472554206848 100.0,67.36207604408264 100.0,93.74978542327881 99.92911219596863,94.44703459739685 99.72597360610962,95.0976550579071 99.4047462940216,95.68734765052795 98.97977113723755,96.2018072605133 98.46537113189697,96.62672281265259 97.87567853927612,96.94800972938538 97.22505211830139,97.15103507041931 96.52775526046753,97.22203612327576 70.13665437698364,97.22203612327576 69.439297914505,97.15114235877991 68.78878474235535,96.94790244102478 68.1990921497345,96.62672281265259 67.68463253974915,96.2018072605133 67.25966334342957,95.68734765052795 66.93848371505737,95.0977623462677 66.73529744148254,94.44703459739685 66.6644036769867,93.74978542327881 66.6644036769867,67.36207604408264 66.73529744148254,66.66483283042908 66.93853735923767,66.01409912109375 67.25971698760986,65.4245138168335 67.68463253974915,64.91006016731262 68.1990921497345,64.48503136634827 68.78873109817505,64.16395902633667 69.4393515586853,63.96071910858154" stroke="white" stroke-width="0.1" /></svg>