<?xml version="1.0" encoding="utf-8" ?>
<svg baseProfile="full" height="99.81231689453125" version="1.1" width="100.0" xmlns="http://www.w3.org/2000/svg" xmlns:ev="http://www.w3.org/2001/xml-events" xmlns:xlink="http://www.w3.org/1999/xlink"><defs><clipPath /></defs><polygon points="76.71011686325073,0.0 76.71011686325073,0.0 76.71011686325073,0.0 76.71011686325073,0.0 78.5848319530487,0.07691116188652813 78.5848319530487,0.07691116188652813 80.44254779815674,0.30544286128133535 80.44254779815674,0.30544286128133535 82.27277398109436,0.6824062671512365 82.27277398109436,0.6824062671512365 84.06564593315125,1.2044606730341911 84.06564593315125,1.2044606730341911 85.8108401298523,1.8684173002839088 85.8108401298523,1.8684173002839088 87.49817609786987,2.6711633428931236 87.49817609786987,2.6711633428931236 89.11778926849365,3.609054535627365 89.11778926849365,3.609054535627365 90.65950512886047,4.679357260465622 90.65950512886047,4.679357260465622 93.55342984199524,7.280062884092331 93.55342984199524,7.280062884092331 95.76616287231445,10.119322687387466 95.76616287231445,10.119322687387466 97.38881587982178,13.168436288833618 97.38881587982178,13.168436288833618 98.51203560829163,16.3984015583992 98.51203560829163,16.3984015583992 99.22739863395691,19.78059411048889 99.22739863395691,19.78059411048889 99.62553977966309,23.286087810993195 99.62553977966309,23.286087810993195 99.79773759841919,26.88618302345276 99.79773759841919,26.88618302345276 99.83478784561157,30.551877617836 99.83478784561157,30.551877617836 99.83478784561157,62.7874493598938 99.83478784561157,62.7874493598938 99.87745881080627,65.8290445804596 99.87745881080627,65.8290445804596 99.956876039505,68.95173192024231 99.956876039505,68.95173192024231 100.0,72.11761474609375 100.0,72.11761474609375 99.9343991279602,75.2885103225708 99.9343991279602,75.2885103225708 99.68703985214233,78.42653393745422 99.68703985214233,78.42653393745422 99.18503165245056,81.49356245994568 99.18503165245056,81.49356245994568 98.35548400878906,84.45179462432861 98.35548400878906,84.45179462432861 97.12581634521484,87.26296424865723 97.12581634521484,87.26296424865723 95.59867978096008,89.73004221916199 95.59867978096008,89.73004221916199 93.78499984741211,91.96950197219849 93.78499984741211,91.96950197219849 91.7165219783783,93.96016001701355 91.7165219783783,93.96016001701355 89.4246757030487,95.68052291870117 89.4246757030487,95.68052291870117 86.94104552268982,97.10956811904907 86.94104552268982,97.10956811904907 84.29721593856812,98.22580218315125 84.29721593856812,98.22580218315125 81.52477145195007,99.00805354118347 81.52477145195007,99.00805354118347 78.65498661994934,99.43512678146362 78.65498661994934,99.43512678146362 77.72430777549744,99.49783682823181 77.72430777549744,99.49783682823181 76.7896831035614,99.53473806381226 76.7896831035614,99.53473806381226 75.85262656211853,99.55121278762817 75.85262656211853,99.55121278762817 74.9142050743103,99.55265522003174 74.9142050743103,99.55265522003174 73.97562861442566,99.54438209533691 73.97562861442566,99.54438209533691 73.03781509399414,99.53177571296692 73.03781509399414,99.53177571296692 72.10243344306946,99.5202362537384 72.10243344306946,99.5202362537384 71.17068767547607,99.515300989151 71.17068767547607,99.515300989151 39.5692378282547,99.515300989151 39.5692378282547,99.515300989151 36.721017956733704,99.5622992515564 36.721017956733704,99.5622992515564 33.75982344150543,99.66540336608887 33.75982344150543,99.66540336608887 30.7275652885437,99.76767301559448 30.7275652885437,99.76767301559448 27.665847539901733,99.81231689453125 27.665847539901733,99.81231689453125 24.61627870798111,99.74238872528076 24.61627870798111,99.74238872528076 21.62061631679535,99.5010256767273 21.62061631679535,99.5010256767273 18.720465898513794,99.0311324596405 18.720465898513794,99.0311324596405 15.957434475421906,98.27621579170227 15.957434475421906,98.27621579170227 13.29340785741806,97.1703052520752 13.29340785741806,97.1703052520752 10.8049176633358,95.74612379074097 10.8049176633358,95.74612379074097 8.518385887145996,94.03175711631775 8.518385887145996,94.03175711631775 6.45962655544281,92.05529689788818 6.45962655544281,92.05529689788818 4.654909670352936,89.84461426734924 4.654909670352936,89.84461426734924 3.1302008777856827,87.4278724193573 3.1302008777856827,87.4278724193573 1.9116181880235672,84.83301401138306 1.9116181880235672,84.83301401138306 1.0252797044813633,82.08797574043274 1.0252797044813633,82.08797574043274 0.7650117389857769,80.90052008628845 0.7650117389857769,80.90052008628845 0.577327236533165,79.71033453941345 0.577327236533165,79.71033453941345 0.4502302035689354,78.51756811141968 0.4502302035689354,78.51756811141968 0.3721801796928048,77.32206583023071 0.3721801796928048,77.32206583023071 0.33163668122142553,76.12360119819641 0.33163668122142553,76.12360119819641 0.3170592477545142,74.92232918739319 0.3170592477545142,74.92232918739319 0.3170592477545142,73.7180233001709 0.3170592477545142,73.7180233001709 0.319488812237978,72.51060009002686 0.319488812237978,72.51060009002686 0.319488812237978,41.873687505722046 0.319488812237978,41.873687505722046 0.2833489328622818,39.0992671251297 0.2833489328622818,39.0992671251297 0.19816202111542225,36.27716600894928 0.19816202111542225,36.27716600894928 0.09961248142644763,33.42408835887909 0.09961248142644763,33.42408835887909 0.022625396377407014,30.556735396385193 0.022625396377407014,30.556735396385193 0.0025814209948293865,27.691662311553955 0.0025814209948293865,27.691662311553955 0.07501305663026869,24.845418334007263 0.07501305663026869,24.845418334007263 0.27499727439135313,22.03478217124939 0.27499727439135313,22.03478217124939 0.6377628538757563,19.276230037212372 0.6377628538757563,19.276230037212372 1.8405532464385033,14.795567095279694 1.8405532464385033,14.795567095279694 3.7904370576143265,10.897544771432877 3.7904370576143265,10.897544771432877 6.393572688102722,7.586720585823059 6.393572688102722,7.586720585823059 9.555964916944504,4.867649078369141 9.555964916944504,4.867649078369141 13.184380531311035,2.7448857203125954 13.184380531311035,2.7448857203125954 17.18451976776123,1.2229861691594124 17.18451976776123,1.2229861691594124 21.462997794151306,0.3064298536628485 21.462997794151306,0.3064298536628485 25.92597007751465,0.0 25.92597007751465,0.0" stroke="white" stroke-width="0.1" /><polygon points="50.07714033126831,35.906654596328735 50.07714033126831,35.906654596328735 50.07714033126831,35.906654596328735 50.07714033126831,35.906654596328735 72.2943663597107,19.779151678085327 72.2943663597107,19.779151678085327 72.78271317481995,19.41881626844406 72.78271317481995,19.41881626844406 73.2507050037384,19.051039218902588 73.2507050037384,19.051039218902588 73.6901581287384,18.666179478168488 73.6901581287384,18.666179478168488 74.09361600875854,18.25459450483322 74.09361600875854,18.25459450483322 74.45319294929504,17.80656725168228 74.45319294929504,17.80656725168228 74.76099133491516,17.3123762011528 74.76099133491516,17.3123762011528 75.0092625617981,16.76238179206848 75.0092625617981,16.76238179206848 75.19041895866394,16.146939992904663 75.19041895866394,16.146939992904663 75.29853582382202,14.808094501495361 75.29853582382202,14.808094501495361 75.05102157592773,13.550637662410736 75.05102157592773,13.550637662410736 74.49844479560852,12.421190738677979 74.49844479560852,12.421190738677979 73.6906111240387,11.466368287801743 73.6906111240387,11.466368287801743 72.67778515815735,10.733017325401306 72.67778515815735,10.733017325401306 71.50992155075073,10.267677903175354 71.50992155075073,10.267677903175354 70.23727893829346,10.117196291685104 70.23727893829346,10.117196291685104 68.90997290611267,10.328114032745361 68.90997290611267,10.328114032745361 67.56018996238708,10.85624247789383 67.56018996238708,10.85624247789383 66.21679067611694,11.585038155317307 66.21679067611694,11.585038155317307 64.88705277442932,12.464088201522827 64.88705277442932,12.464088201522827 63.5787308216095,13.442826271057129 63.5787308216095,13.442826271057129 62.299710512161255,14.470763504505157 62.299710512161255,14.470763504505157 61.057138442993164,15.49740880727768 61.057138442993164,15.49740880727768 59.859055280685425,16.47227555513382 59.859055280685425,16.47227555513382 58.71305465698242,17.344720661640167 58.71305465698242,17.344720661640167 58.13891887664795,17.788268625736237 58.13891887664795,17.788268625736237 57.106196880340576,18.604452908039093 57.106196880340576,18.604452908039093 55.77008128166199,19.653497636318207 55.77008128166199,19.653497636318207 54.28622364997864,20.795319974422455 54.28622364997864,20.795319974422455 52.809953689575195,21.88999503850937 52.809953689575195,21.88999503850937 51.49722695350647,22.797591984272003 51.49722695350647,22.797591984272003 50.50261616706848,23.378032445907593 50.50261616706848,23.378032445907593 49.98238682746887,23.49153906106949 49.98238682746887,23.49153906106949 48.63579571247101,22.52221554517746 48.63579571247101,22.52221554517746 47.2895085811615,21.553120017051697 47.2895085811615,21.553120017051697 45.94306945800781,20.584098994731903 45.94306945800781,20.584098994731903 44.5967823266983,19.615155458450317 44.5967823266983,19.615155458450317 43.250495195388794,18.64621192216873 43.250495195388794,18.64621192216873 41.90436005592346,17.677192389965057 41.90436005592346,17.677192389965057 40.55837690830231,16.708019375801086 40.55837690830231,16.708019375801086 39.2120897769928,15.738771855831146 39.2120897769928,15.738771855831146 38.06760907173157,14.860178530216217 38.06760907173157,14.860178530216217 36.78889572620392,13.83155733346939 36.78889572620392,13.83155733346939 35.40525138378143,12.759660184383392 35.40525138378143,12.759660184383392 33.94492864608765,11.751236021518707 33.94492864608765,11.751236021518707 32.437074184417725,10.912957787513733 32.437074184417725,10.912957787513733 30.91069459915161,10.351498425006866 30.91069459915161,10.351498425006866 29.39433753490448,10.173608362674713 29.39433753490448,10.173608362674713 27.917006611824036,10.486035794019699 27.917006611824036,10.486035794019699 26.69341266155243,11.18757501244545 26.69341266155243,11.18757501244545 25.79689919948578,12.114609032869339 25.79689919948578,12.114609032869339 25.21866261959076,13.206398487091064 25.21866261959076,13.206398487091064 24.94989037513733,14.402203261852264 24.94989037513733,14.402203261852264 24.98192936182022,15.641133487224579 24.98192936182022,15.641133487224579 25.306430459022522,16.862449049949646 25.306430459022522,16.862449049949646 25.914278626441956,18.005259335041046 25.914278626441956,18.005259335041046 26.79697275161743,19.008977711200714 26.79697275161743,19.008977711200714 27.061036229133606,19.235002994537354 27.061036229133606,19.235002994537354 27.337250113487244,19.45161521434784 27.337250113487244,19.45161521434784 27.62272357940674,19.660861790180206 27.62272357940674,19.660861790180206 27.914121747016907,19.864490628242493 27.914121747016907,19.864490628242493 28.208249807357788,20.06462663412094 28.208249807357788,20.06462663412094 28.501924872398376,20.263244211673737 28.501924872398376,20.263244211673737 28.792259097099304,20.462165772914886 28.792259097099304,20.462165772914886 29.07591164112091,20.663516223430634 29.07591164112091,20.663516223430634" stroke="white" stroke-width="0.1" /><polygon points="33.16245377063751,34.470778703689575 33.16245377063751,34.470778703689575 33.16245377063751,34.470778703689575 33.16245377063751,34.470778703689575 30.649667978286743,34.73044037818909 30.649667978286743,34.73044037818909 28.296777606010437,35.47358512878418 28.296777606010437,35.47358512878418 26.157692074775696,36.64630949497223 26.157692074775696,36.64630949497223 24.28661733865738,38.19470703601837 24.28661733865738,38.19470703601837 22.737307846546173,40.06494581699371 22.737307846546173,40.06494581699371 21.563825011253357,42.2031968832016 21.563825011253357,42.2031968832016 20.820072293281555,44.555553793907166 20.820072293281555,44.555553793907166 20.560260117053986,47.06811308860779 20.560260117053986,47.06811308860779 20.820072293281555,49.58082139492035 20.820072293281555,49.58082139492035 21.563825011253357,51.9334077835083 21.563825011253357,51.9334077835083 22.737307846546173,54.07204031944275 22.737307846546173,54.07204031944275 24.28661733865738,55.942732095718384 24.28661733865738,55.942732095718384 26.157692074775696,57.491666078567505 26.157692074775696,57.491666078567505 28.296777606010437,58.66469144821167 28.296777606010437,58.66469144821167 30.649667978286743,59.40806269645691 30.649667978286743,59.40806269645691 33.16245377063751,59.66787934303284 33.16245377063751,59.66787934303284 35.67493557929993,59.40799117088318 35.67493557929993,59.40799117088318 38.02691400051117,58.66430997848511 38.02691400051117,58.66430997848511 40.16478657722473,57.49098062515259 40.16478657722473,57.49098062515259 42.03464686870575,55.9418261051178 42.03464686870575,55.9418261051178 43.58258843421936,54.07090187072754 43.58258843421936,54.07090187072754 44.75485682487488,51.9323468208313 44.75485682487488,51.9323468208313 45.49784958362579,49.58013892173767 45.49784958362579,49.58013892173767 45.75735926628113,47.06811308860779 45.75735926628113,47.06811308860779 45.497697591781616,44.55623924732208 45.497697591781616,44.55623924732208 44.7547048330307,42.20426082611084 44.7547048330307,42.20426082611084 43.582284450531006,40.066009759902954 43.582284450531006,40.066009759902954 42.03419089317322,38.195616006851196 42.03419089317322,38.195616006851196 40.1643306016922,36.64699196815491 40.1643306016922,36.64699196815491 38.02630603313446,35.473889112472534 38.02630603313446,35.473889112472534 35.674479603767395,34.730514883995056 35.674479603767395,34.730514883995056" stroke="white" stroke-width="0.1" /><polygon points="66.9991135597229,34.470778703689575 66.9991135597229,34.470778703689575 66.9991135597229,34.470778703689575 66.9991135597229,34.470778703689575 64.48632478713989,34.73044037818909 64.48632478713989,34.73044037818909 62.13359236717224,35.47358512878418 62.13359236717224,35.47358512878418 59.994351863861084,36.64630949497223 59.994351863861084,36.64630949497223 58.12327861785889,38.19470703601837 58.12327861785889,38.19470703601837 56.57411813735962,40.06494581699371 56.57411813735962,40.06494581699371 55.400484800338745,42.2031968832016 55.400484800338745,42.2031968832016 54.65673208236694,44.555553793907166 54.65673208236694,44.555553793907166 54.39692139625549,47.06811308860779 54.39692139625549,47.06811308860779 54.65673208236694,49.58082139492035 54.65673208236694,49.58082139492035 55.400484800338745,51.9334077835083 55.400484800338745,51.9334077835083 56.57396912574768,54.07204031944275 56.57396912574768,54.07204031944275 58.12327861785889,55.942732095718384 58.12327861785889,55.942732095718384 59.994351863861084,57.491666078567505 59.994351863861084,57.491666078567505 62.133437395095825,58.66469144821167 62.133437395095825,58.66469144821167 64.48632478713989,59.40806269645691 64.48632478713989,59.40806269645691 66.9991135597229,59.66787934303284 66.9991135597229,59.66787934303284 69.5112943649292,59.40799117088318 69.5112943649292,59.40799117088318 71.86312079429626,58.66430997848511 71.86312079429626,58.66430997848511 74.00113940238953,57.49098062515259 74.00113940238953,57.49098062515259 75.87084770202637,55.9418261051178 75.87084770202637,55.9418261051178 77.41894125938416,54.07090187072754 77.41894125938416,54.07090187072754 78.59151363372803,51.9323468208313 78.59151363372803,51.9323468208313 79.33450937271118,49.58013892173767 79.33450937271118,49.58013892173767 79.59401607513428,47.06811308860779 79.59401607513428,47.06811308860779 79.33436036109924,44.55623924732208 79.33436036109924,44.55623924732208 78.59151363372803,42.20426082611084 78.59151363372803,42.20426082611084 77.41894125938416,40.066009759902954 77.41894125938416,40.066009759902954 75.87084770202637,38.195616006851196 75.87084770202637,38.195616006851196 74.00099039077759,36.64699196815491 74.00099039077759,36.64699196815491 71.86312079429626,35.473889112472534 71.86312079429626,35.473889112472534 69.5112943649292,34.730514883995056 69.5112943649292,34.730514883995056" stroke="white" stroke-width="0.1" /><polygon points="50.07714033126831,65.17571806907654 50.07714033126831,65.17571806907654 50.07714033126831,65.17571806907654 50.07714033126831,65.17571806907654 45.762673020362854,65.40424823760986 45.762673020362854,65.40424823760986 41.50621294975281,66.02667570114136 41.50621294975281,66.02667570114136 37.332358956336975,67.02781319618225 37.332358956336975,67.02781319618225 33.26555788516998,68.39216947555542 33.26555788516998,68.39216947555542 29.330256581306458,70.10448575019836 29.330256581306458,70.10448575019836 25.551360845565796,72.14935421943665 25.551360845565796,72.14935421943665 21.952860057353973,74.51134920120239 21.952860057353973,74.51134920120239 18.55950653553009,77.17537879943848 18.55950653553009,77.17537879943848 17.564596235752106,78.02087068557739 17.564596235752106,78.02087068557739 16.516995429992676,78.94319891929626 16.516995429992676,78.94319891929626 15.494903922080994,79.94235754013062 15.494903922080994,79.94235754013062 14.575766026973724,81.01865649223328 14.575766026973724,81.01865649223328 13.837328553199768,82.17225074768066 13.837328553199768,82.17225074768066 13.357183337211609,83.40343832969666 13.357183337211609,83.40343832969666 13.213232159614563,84.71236824989319 13.213232159614563,84.71236824989319 13.482913374900818,86.09920144081116 13.482913374900818,86.09920144081116 14.135709404945374,87.3661458492279 14.135709404945374,87.3661458492279 15.043458342552185,88.3152723312378 15.043458342552185,88.3152723312378 16.139043867588043,88.94909024238586 16.139043867588043,88.94909024238586 17.35519766807556,89.27040100097656 17.35519766807556,89.27040100097656 18.624800443649292,89.28163647651672 18.624800443649292,89.28163647651672 19.880282878875732,88.98553252220154 19.880282878875732,88.98553252220154 21.05482965707779,88.38467001914978 21.05482965707779,88.38467001914978 22.081172466278076,87.48162388801575 22.081172466278076,87.48162388801575 22.471877932548523,87.05257773399353 22.471877932548523,87.05257773399353 22.875945270061493,86.63423657417297 22.875945270061493,86.63423657417297 23.291251063346863,86.22576594352722 23.291251063346863,86.22576594352722 23.71627390384674,85.82648038864136 23.71627390384674,85.82648038864136 24.149346351623535,85.43570041656494 24.149346351623535,85.43570041656494 24.588491022586823,85.05243062973022 24.588491022586823,85.05243062973022 25.032344460487366,84.67615246772766 25.032344460487366,84.67615246772766 25.47892928123474,84.30617451667786 25.47892928123474,84.30617451667786 30.31803071498871,80.88214993476868 30.31803071498871,80.88214993476868 35.49438714981079,78.24667096138 35.49438714981079,78.24667096138 40.92129468917847,76.42205953598022 40.92129468917847,76.42205953598022 46.512043476104736,75.43003559112549 46.512043476104736,75.43003559112549 52.17978358268738,75.29276609420776 52.17978358268738,75.29276609420776 57.83810615539551,76.0322630405426 57.83810615539551,76.0322630405426 63.39985132217407,77.67040133476257 63.39985132217407,77.67040133476257 68.77877712249756,80.22935390472412 68.77877712249756,80.22935390472412 70.08953094482422,81.02996945381165 70.08953094482422,81.02996945381165 71.3407576084137,81.8789541721344 71.3407576084137,81.8789541721344 72.54324555397034,82.77015089988708 72.54324555397034,82.77015089988708 73.70792031288147,83.69756937026978 73.70792031288147,83.69756937026978 74.8458743095398,84.65496897697449 74.8458743095398,84.65496897697449 75.96772909164429,85.63636541366577 75.96772909164429,85.63636541366577 77.08487510681152,86.63567900657654 77.08487510681152,86.63567900657654 78.20794582366943,87.64683604240417 78.20794582366943,87.64683604240417 79.53510284423828,88.75601291656494 79.53510284423828,88.75601291656494 81.03323578834534,89.28695321083069 81.03323578834534,89.28695321083069 82.5817883014679,89.29803371429443 82.5817883014679,89.29803371429443 84.06093716621399,88.84735107421875 84.06093716621399,88.84735107421875 85.35043597221375,87.99312710762024 85.35043597221375,87.99312710762024 86.3300085067749,86.79367899894714 86.3300085067749,86.79367899894714 86.87970042228699,85.30723452568054 86.87970042228699,85.30723452568054 86.87909245491028,83.59187841415405 86.87909245491028,83.59187841415405 86.75366640090942,83.06352496147156 86.75366640090942,83.06352496147156 86.57357096672058,82.57343173027039 86.57357096672058,82.57343173027039 86.34549975395203,82.11591243743896 86.34549975395203,82.11591243743896 86.07672452926636,81.68527483940125 86.07672452926636,81.68527483940125 85.77393889427185,81.27581477165222 85.77393889427185,81.27581477165222 85.44412851333618,80.88184595108032 85.44412851333618,80.88184595108032 85.09426712989807,80.49774169921875 85.09426712989807,80.49774169921875 84.73135232925415,80.11758923530579 84.73135232925415,80.11758923530579 81.19556307792664,76.81124806404114 81.19556307792664,76.81124806404114 77.34788060188293,73.87434840202332 77.34788060188293,73.87434840202332 73.23020696640015,71.32754921913147 73.23020696640015,71.32754921913147 68.88521909713745,69.19180154800415 68.88521909713745,69.19180154800415 64.35512900352478,67.48791337013245 64.35512900352478,67.48791337013245 59.682148694992065,66.23668074607849 59.682148694992065,66.23668074607849 54.90880012512207,65.45898914337158 54.90880012512207,65.45898914337158" stroke="white" stroke-width="0.1" /><polygon points="76.71011686325073,0.0 76.71011686325073,0.0 78.5848319530487,0.07691116188652813 80.44254779815674,0.30544286128133535 82.27277398109436,0.6824062671512365 84.06564593315125,1.2044606730341911 66.9991135597229,34.470778703689575 66.9991135597229,34.470778703689575 64.48632478713989,34.73044037818909 62.13359236717224,35.47358512878418 59.994351863861084,36.64630949497223 58.12327861785889,38.19470703601837 50.07714033126831,35.906654596328735 50.07714033126831,35.906654596328735 72.2943663597107,19.779151678085327 72.78271317481995,19.41881626844406 73.2507050037384,19.051039218902588 73.6901581287384,18.666179478168488 74.09361600875854,18.25459450483322 74.45319294929504,17.80656725168228 74.76099133491516,17.3123762011528 75.0092625617981,16.76238179206848 75.19041895866394,16.146939992904663 75.29853582382202,14.808094501495361 75.05102157592773,13.550637662410736 74.49844479560852,12.421190738677979 73.6906111240387,11.466368287801743 72.67778515815735,10.733017325401306 71.50992155075073,10.267677903175354 70.23727893829346,10.117196291685104 68.90997290611267,10.328114032745361 67.56018996238708,10.85624247789383 66.21679067611694,11.585038155317307 64.88705277442932,12.464088201522827 63.5787308216095,13.442826271057129 62.299710512161255,14.470763504505157 61.057138442993164,15.49740880727768 59.859055280685425,16.47227555513382 58.71305465698242,17.344720661640167 58.13891887664795,17.788268625736237 57.106196880340576,18.604452908039093 55.77008128166199,19.653497636318207 54.28622364997864,20.795319974422455 52.809953689575195,21.88999503850937 51.49722695350647,22.797591984272003 50.50261616706848,23.378032445907593 49.98238682746887,23.49153906106949 48.63579571247101,22.52221554517746 47.2895085811615,21.553120017051697 45.94306945800781,20.584098994731903 44.5967823266983,19.615155458450317 43.250495195388794,18.64621192216873 41.90436005592346,17.677192389965057 40.55837690830231,16.708019375801086 39.2120897769928,15.738771855831146 38.06760907173157,14.860178530216217 36.78889572620392,13.83155733346939 35.40525138378143,12.759660184383392 33.94492864608765,11.751236021518707 32.437074184417725,10.912957787513733 30.91069459915161,10.351498425006866 29.39433753490448,10.173608362674713 27.917006611824036,10.486035794019699 26.69341266155243,11.18757501244545 25.79689919948578,12.114609032869339 25.21866261959076,13.206398487091064 24.94989037513733,14.402203261852264 24.98192936182022,15.641133487224579 25.306430459022522,16.862449049949646 25.914278626441956,18.005259335041046 26.79697275161743,19.008977711200714 27.061036229133606,19.235002994537354 27.337250113487244,19.45161521434784 27.62272357940674,19.660861790180206 27.914121747016907,19.864490628242493 28.208249807357788,20.06462663412094 28.501924872398376,20.263244211673737 28.792259097099304,20.462165772914886 29.07591164112091,20.663516223430634 50.07714033126831,35.906654596328735 58.12327861785889,38.19470703601837 56.57411813735962,40.06494581699371 55.400484800338745,42.2031968832016 54.65673208236694,44.555553793907166 54.39692139625549,47.06811308860779 54.65673208236694,49.58082139492035 55.400484800338745,51.9334077835083 56.57396912574768,54.07204031944275 58.12327861785889,55.942732095718384 59.994351863861084,57.491666078567505 62.133437395095825,58.66469144821167 64.48632478713989,59.40806269645691 66.9991135597229,59.66787934303284 69.5112943649292,59.40799117088318 71.86312079429626,58.66430997848511 74.00113940238953,57.49098062515259 75.87084770202637,55.9418261051178 77.41894125938416,54.07090187072754 78.59151363372803,51.9323468208313 79.33450937271118,49.58013892173767 79.59401607513428,47.06811308860779 79.33436036109924,44.55623924732208 78.59151363372803,42.20426082611084 77.41894125938416,40.066009759902954 75.87084770202637,38.195616006851196 74.00099039077759,36.64699196815491 71.86312079429626,35.473889112472534 69.5112943649292,34.730514883995056 66.9991135597229,34.470778703689575 84.06564593315125,1.2044606730341911 85.8108401298523,1.8684173002839088 87.49817609786987,2.6711633428931236 89.11778926849365,3.609054535627365 90.65950512886047,4.679357260465622 93.55342984199524,7.280062884092331 95.76616287231445,10.119322687387466 97.38881587982178,13.168436288833618 98.51203560829163,16.3984015583992 99.22739863395691,19.78059411048889 99.62553977966309,23.286087810993195 99.79773759841919,26.88618302345276 99.83478784561157,30.551877617836 99.83478784561157,62.7874493598938 50.07714033126831,65.17571806907654 50.07714033126831,65.17571806907654 45.762673020362854,65.40424823760986 41.50621294975281,66.02667570114136 37.332358956336975,67.02781319618225 33.26555788516998,68.39216947555542 29.330256581306458,70.10448575019836 25.551360845565796,72.14935421943665 21.952860057353973,74.51134920120239 18.55950653553009,77.17537879943848 17.564596235752106,78.02087068557739 16.516995429992676,78.94319891929626 15.494903922080994,79.94235754013062 14.575766026973724,81.01865649223328 13.837328553199768,82.17225074768066 13.357183337211609,83.40343832969666 13.213232159614563,84.71236824989319 13.482913374900818,86.09920144081116 14.135709404945374,87.3661458492279 15.043458342552185,88.3152723312378 16.139043867588043,88.94909024238586 17.35519766807556,89.27040100097656 18.624800443649292,89.28163647651672 19.880282878875732,88.98553252220154 21.05482965707779,88.38467001914978 22.081172466278076,87.48162388801575 22.471877932548523,87.05257773399353 22.875945270061493,86.63423657417297 23.291251063346863,86.22576594352722 23.71627390384674,85.82648038864136 24.149346351623535,85.43570041656494 24.588491022586823,85.05243062973022 25.032344460487366,84.67615246772766 25.47892928123474,84.30617451667786 30.31803071498871,80.88214993476868 35.49438714981079,78.24667096138 40.92129468917847,76.42205953598022 46.512043476104736,75.43003559112549 52.17978358268738,75.29276609420776 57.83810615539551,76.0322630405426 63.39985132217407,77.67040133476257 68.77877712249756,80.22935390472412 70.08953094482422,81.02996945381165 71.3407576084137,81.8789541721344 72.54324555397034,82.77015089988708 73.70792031288147,83.69756937026978 74.8458743095398,84.65496897697449 75.96772909164429,85.63636541366577 77.08487510681152,86.63567900657654 78.20794582366943,87.64683604240417 79.53510284423828,88.75601291656494 81.03323578834534,89.28695321083069 82.5817883014679,89.29803371429443 84.06093716621399,88.84735107421875 85.35043597221375,87.99312710762024 86.3300085067749,86.79367899894714 86.87970042228699,85.30723452568054 86.87909245491028,83.59187841415405 86.75366640090942,83.06352496147156 86.57357096672058,82.57343173027039 86.34549975395203,82.11591243743896 86.07672452926636,81.68527483940125 85.77393889427185,81.27581477165222 85.44412851333618,80.88184595108032 85.09426712989807,80.49774169921875 84.73135232925415,80.11758923530579 81.19556307792664,76.81124806404114 77.34788060188293,73.87434840202332 73.23020696640015,71.32754921913147 68.88521909713745,69.19180154800415 64.35512900352478,67.48791337013245 59.682148694992065,66.23668074607849 54.90880012512207,65.45898914337158 50.07714033126831,65.17571806907654 99.83478784561157,62.7874493598938 99.87745881080627,65.8290445804596 99.956876039505,68.95173192024231 100.0,72.11761474609375 99.9343991279602,75.2885103225708 99.68703985214233,78.42653393745422 99.18503165245056,81.49356245994568 98.35548400878906,84.45179462432861 97.12581634521484,87.26296424865723 95.59867978096008,89.73004221916199 93.78499984741211,91.96950197219849 91.7165219783783,93.96016001701355 89.4246757030487,95.68052291870117 86.94104552268982,97.10956811904907 84.29721593856812,98.22580218315125 81.52477145195007,99.00805354118347 78.65498661994934,99.43512678146362 77.72430777549744,99.49783682823181 76.7896831035614,99.53473806381226 75.85262656211853,99.55121278762817 74.9142050743103,99.55265522003174 73.97562861442566,99.54438209533691 73.03781509399414,99.53177571296692 72.10243344306946,99.5202362537384 71.17068767547607,99.515300989151 39.5692378282547,99.515300989151 36.721017956733704,99.5622992515564 33.75982344150543,99.66540336608887 30.7275652885437,99.76767301559448 27.665847539901733,99.81231689453125 24.61627870798111,99.74238872528076 21.62061631679535,99.5010256767273 18.720465898513794,99.0311324596405 15.957434475421906,98.27621579170227 13.29340785741806,97.1703052520752 10.8049176633358,95.74612379074097 8.518385887145996,94.03175711631775 6.45962655544281,92.05529689788818 4.654909670352936,89.84461426734924 3.1302008777856827,87.4278724193573 1.9116181880235672,84.83301401138306 1.0252797044813633,82.08797574043274 0.7650117389857769,80.90052008628845 0.577327236533165,79.71033453941345 0.4502302035689354,78.51756811141968 0.3721801796928048,77.32206583023071 0.33163668122142553,76.12360119819641 0.3170592477545142,74.92232918739319 0.3170592477545142,73.7180233001709 0.319488812237978,72.51060009002686 0.319488812237978,41.873687505722046 0.2833489328622818,39.0992671251297 0.19816202111542225,36.27716600894928 0.09961248142644763,33.42408835887909 0.022625396377407014,30.556735396385193 0.0025814209948293865,27.691662311553955 0.07501305663026869,24.845418334007263 33.16245377063751,34.470778703689575 33.16245377063751,34.470778703689575 30.649667978286743,34.73044037818909 28.296777606010437,35.47358512878418 26.157692074775696,36.64630949497223 24.28661733865738,38.19470703601837 22.737307846546173,40.06494581699371 21.563825011253357,42.2031968832016 20.820072293281555,44.555553793907166 20.560260117053986,47.06811308860779 20.820072293281555,49.58082139492035 21.563825011253357,51.9334077835083 22.737307846546173,54.07204031944275 24.28661733865738,55.942732095718384 26.157692074775696,57.491666078567505 28.296777606010437,58.66469144821167 30.649667978286743,59.40806269645691 33.16245377063751,59.66787934303284 35.67493557929993,59.40799117088318 38.02691400051117,58.66430997848511 40.16478657722473,57.49098062515259 42.03464686870575,55.9418261051178 43.58258843421936,54.07090187072754 44.75485682487488,51.9323468208313 45.49784958362579,49.58013892173767 45.75735926628113,47.06811308860779 45.497697591781616,44.55623924732208 44.7547048330307,42.20426082611084 43.582284450531006,40.066009759902954 42.03419089317322,38.195616006851196 40.1643306016922,36.64699196815491 38.02630603313446,35.473889112472534 35.674479603767395,34.730514883995056 33.16245377063751,34.470778703689575 0.07501305663026869,24.845418334007263 0.27499727439135313,22.03478217124939 0.6377628538757563,19.276230037212372 1.8405532464385033,14.795567095279694 3.7904370576143265,10.897544771432877 6.393572688102722,7.586720585823059 9.555964916944504,4.867649078369141 13.184380531311035,2.7448857203125954 17.18451976776123,1.2229861691594124 21.462997794151306,0.3064298536628485 25.92597007751465,0.0" stroke="white" stroke-width="0.1" /></svg>