<?xml version="1.0" encoding="utf-8" ?>
<svg baseProfile="full" height="52.986299991607666" version="1.1" width="57.47172236442566" xmlns="http://www.w3.org/2000/svg" xmlns:ev="http://www.w3.org/2001/xml-events" xmlns:xlink="http://www.w3.org/1999/xlink"><defs><clipPath /></defs><polygon points="49.99840557575226,52.986299991607666 51.504701375961304,52.832067012786865 52.90684103965759,52.395254373550415 54.175758361816406,51.70563459396362 55.2811861038208,50.79307556152344 56.19344711303711,49.687451124191284 56.88246488571167,48.41863214969635 57.318586111068726,47.016388177871704 57.47172236442566,45.51059305667877 57.318586111068726,44.00479793548584 56.88246488571167,42.60255694389343 56.19344711303711,41.3337379693985 55.2811861038208,40.228113532066345 54.17556166648865,39.3155574798584 52.90684103965759,38.62593472003937 51.50449872016907,38.18912208080292 49.99840557575226,38.03488910198212 48.49251210689545,38.18912208080292 47.09016978740692,38.62593472003937 45.821452140808105,39.3155574798584 44.71602737903595,40.228113532066345 43.80376636981964,41.3337379693985 43.11434626579285,42.60255694389343 42.677631974220276,44.00479793548584 42.523497343063354,45.51059305667877 42.67743229866028,47.016388177871704 43.11434626579285,48.41863214969635 43.80376636981964,49.687451124191284 44.71602737903595,50.79307556152344 45.821452140808105,51.70563459396362 47.09016978740692,52.395254373550415 48.49251210689545,52.832067012786865 49.99840557575226,52.986299991607666 49.99840557575226,52.986299991607666 48.49251210689545,52.832067012786865 48.49251210689545,52.832067012786865 47.09016978740692,52.395254373550415 47.09016978740692,52.395254373550415 45.821452140808105,51.70563459396362 45.821452140808105,51.70563459396362 44.71602737903595,50.79307556152344 44.71602737903595,50.79307556152344 43.80376636981964,49.687451124191284 43.80376636981964,49.687451124191284 43.11434626579285,48.41863214969635 43.11434626579285,48.41863214969635 42.67743229866028,47.016388177871704 42.67743229866028,47.016388177871704 42.523497343063354,45.51059305667877 42.523497343063354,45.51059305667877 42.677631974220276,44.00479793548584 42.677631974220276,44.00479793548584 43.11434626579285,42.60255694389343 43.11434626579285,42.60255694389343 43.80376636981964,41.3337379693985 43.80376636981964,41.3337379693985 44.71602737903595,40.228113532066345 44.71602737903595,40.228113532066345 45.821452140808105,39.3155574798584 45.821452140808105,39.3155574798584 47.09016978740692,38.62593472003937 47.09016978740692,38.62593472003937 48.49251210689545,38.18912208080292 48.49251210689545,38.18912208080292 49.99840557575226,38.03488910198212 49.99840557575226,38.03488910198212 51.50449872016907,38.18912208080292 51.50449872016907,38.18912208080292 52.90684103965759,38.62593472003937 52.90684103965759,38.62593472003937 54.17556166648865,39.3155574798584 54.17556166648865,39.3155574798584 55.2811861038208,40.228113532066345 55.2811861038208,40.228113532066345 56.19344711303711,41.3337379693985 56.19344711303711,41.3337379693985 56.88246488571167,42.60255694389343 56.88246488571167,42.60255694389343 57.318586111068726,44.00479793548584 57.318586111068726,44.00479793548584 57.47172236442566,45.51059305667877 57.47172236442566,45.51059305667877 57.318586111068726,47.016388177871704 57.318586111068726,47.016388177871704 56.88246488571167,48.41863214969635 56.88246488571167,48.41863214969635 56.19344711303711,49.687451124191284 56.19344711303711,49.687451124191284 55.2811861038208,50.79307556152344 55.2811861038208,50.79307556152344 54.175758361816406,51.70563459396362 54.175758361816406,51.70563459396362 52.90684103965759,52.395254373550415 52.90684103965759,52.395254373550415 51.504701375961304,52.832067012786865 51.504701375961304,52.832067012786865" stroke="white" stroke-width="0.1" /></svg>