<?xml version="1.0" encoding="utf-8" ?>
<svg baseProfile="full" height="83.29057693481445" version="1.1" width="100.0" xmlns="http://www.w3.org/2000/svg" xmlns:ev="http://www.w3.org/2001/xml-events" xmlns:xlink="http://www.w3.org/1999/xlink"><defs><clipPath /></defs><polygon points="26.769933104515076,0.0 26.769933104515076,0.0 26.526856422424316,2.3300034925341606 26.526856422424316,2.3300034925341606 26.050671935081482,4.570199176669121 26.050671935081482,4.570199176669121 25.314664840698242,6.657848507165909 25.314664840698242,6.657848507165909 24.29250478744507,8.530214428901672 24.29250478744507,8.530214428901672 22.957877814769745,10.124556720256805 22.957877814769745,10.124556720256805 21.284058690071106,11.37813851237297 21.284058690071106,11.37813851237297 19.245126843452454,12.228221446275711 19.245126843452454,12.228221446275711 16.813962161540985,12.61206716299057 16.813962161540985,12.61206716299057 16.87777191400528,9.854547679424286 16.87777191400528,9.854547679424286 17.439699172973633,7.595445960760117 17.439699172973633,7.595445960760117 18.41958314180374,5.754275247454643 18.41958314180374,5.754275247454643 19.737061858177185,4.250550270080566 19.737061858177185,4.250550270080566 21.31117731332779,3.003760799765587 21.31117731332779,3.003760799765587 23.06176871061325,1.9333962351083755 23.06176871061325,1.9333962351083755 24.908272922039032,0.9589711204171181 24.908272922039032,0.9589711204171181" stroke="white" stroke-width="0.1" /><polygon points="12.38873079419136,18.80483627319336 12.38873079419136,18.80483627319336 11.92152127623558,18.64895075559616 11.92152127623558,18.64895075559616 11.441949009895325,18.21850687265396 11.441949009895325,18.21850687265396 10.97174808382988,17.598015069961548 10.97174808382988,17.598015069961548 10.532455146312714,16.871988773345947 10.532455146312714,16.871988773345947 10.145407170057297,16.124950349330902 10.145407170057297,16.124950349330902 9.83194038271904,15.441420674324036 9.83194038271904,15.441420674324036 9.613988548517227,14.905914664268494 9.613988548517227,14.905914664268494 9.512490779161453,14.602941274642944 9.512490779161453,14.602941274642944 9.288357943296432,12.88454383611679 9.288357943296432,12.88454383611679 9.357152879238129,11.22589185833931 9.357152879238129,11.22589185833931 9.655863791704178,9.633193910121918 9.655863791704178,9.633193910121918 10.121478140354156,8.112657070159912 10.121478140354156,8.112657070159912 10.690584778785706,6.670486181974411 10.690584778785706,6.670486181974411 11.30037009716034,5.3128886967897415 11.30037009716034,5.3128886967897415 11.887422949075699,4.046071320772171 11.887422949075699,4.046071320772171 12.38873079419136,2.876240387558937 12.38873079419136,2.876240387558937 13.051758706569672,3.8847889751195908 13.051758706569672,3.8847889751195908 13.762642443180084,5.112933740019798 13.762642443180084,5.112933740019798 14.453984797000885,6.524059176445007 14.453984797000885,6.524059176445007 15.05858600139618,8.081549406051636 15.05858600139618,8.081549406051636 15.509244799613953,9.748812764883041 15.509244799613953,9.748812764883041 15.738561749458313,11.489257961511612 15.738561749458313,11.489257961511612 15.67973643541336,13.266269862651825 15.67973643541336,13.266269862651825 15.264971554279327,15.043231844902039 15.264971554279327,15.043231844902039 15.046422183513641,15.533846616744995 15.046422183513641,15.533846616744995 14.714409410953522,16.113746166229248 14.714409410953522,16.113746166229248 14.30542767047882,16.735370457172394 14.30542767047882,16.735370457172394 13.856163620948792,17.351162433624268 13.856163620948792,17.351162433624268 13.403311371803284,17.913563549518585 13.403311371803284,17.913563549518585 12.983162701129913,18.375015258789062 12.983162701129913,18.375015258789062 12.633004784584045,18.687959015369415 12.633004784584045,18.687959015369415" stroke="white" stroke-width="0.1" /><polygon points="24.779057502746582,11.504961550235748 24.779057502746582,11.504961550235748 24.349336326122284,13.621225953102112 24.349336326122284,13.621225953102112 23.734964430332184,15.695689618587494 23.734964430332184,15.695689618587494 22.89167493581772,17.6484152674675 22.89167493581772,17.6484152674675 21.776393055915833,19.39946711063385 21.776393055915833,19.39946711063385 20.34505307674408,20.868906378746033 20.34505307674408,20.868906378746033 18.553784489631653,21.97679728269577 18.553784489631653,21.97679728269577 16.35931432247162,22.643201053142548 16.35931432247162,22.643201053142548 13.71757686138153,22.78818190097809 13.71757686138153,22.78818190097809 13.958460092544556,20.2363520860672 13.958460092544556,20.2363520860672 14.663960039615631,18.149462342262268 14.663960039615631,18.149462342262268 15.765681862831116,16.45810753107071 15.765681862831116,16.45810753107071 17.19343215227127,15.092884004116058 17.19343215227127,15.092884004116058 18.878018856048584,13.984370231628418 18.878018856048584,13.984370231628418 20.750246942043304,13.063149154186249 20.750246942043304,13.063149154186249 22.740325331687927,12.259814888238907 22.740325331687927,12.259814888238907" stroke="white" stroke-width="0.1" /><polygon points="9.292346239089966,30.531537532806396 9.292346239089966,30.531537532806396 7.534576952457428,29.61653470993042 7.534576952457428,29.61653470993042 6.245613098144531,28.177669644355774 6.245613098144531,28.177669644355774 5.3831797093153,26.33100152015686 5.3831797093153,26.33100152015686 4.9042049795389175,24.192602932453156 4.9042049795389175,24.192602932453156 4.766614735126495,21.878552436828613 4.766614735126495,21.878552436828613 4.927336424589157,19.504928588867188 4.927336424589157,19.504928588867188 5.344095826148987,17.187799513339996 5.344095826148987,17.187799513339996 5.974220857024193,15.043231844902039 5.974220857024193,15.043231844902039 7.39319771528244,16.296052932739258 7.39319771528244,16.296052932739258 8.693328499794006,17.93617159128189 8.693328499794006,17.93617159128189 9.79086235165596,19.86754983663559 9.79086235165596,19.86754983663559 10.601649433374405,21.994145214557648 10.601649433374405,21.994145214557648 11.041340976953506,24.219895899295807 11.041340976953506,24.219895899295807 11.025787144899368,26.44873857498169 11.025787144899368,26.44873857498169 10.470838844776154,28.58463227748871 10.470838844776154,28.58463227748871" stroke="white" stroke-width="0.1" /><polygon points="18.80483627319336,22.5664421916008 18.80483627319336,22.5664421916008 18.87064129114151,25.12202560901642 18.87064129114151,25.12202560901642 18.6628594994545,27.547717094421387 18.6628594994545,27.547717094421387 18.166735768318176,29.79229986667633 18.166735768318176,29.79229986667633 17.367713153362274,31.80454969406128 17.367713153362274,31.80454969406128 16.250239312648773,33.53324234485626 16.250239312648773,33.53324234485626 14.799955487251282,34.92715656757355 14.799955487251282,34.92715656757355 13.001307845115662,35.9350711107254 13.001307845115662,35.9350711107254 10.839740931987762,36.50575876235962 10.839740931987762,36.50575876235962 10.5027437210083,33.87552499771118 10.5027437210083,33.87552499771118 10.735251754522324,31.566432118415833 10.735251754522324,31.566432118415833 11.442746222019196,29.544749855995178 11.442746222019196,29.544749855995178 12.531107664108276,27.77673602104187 12.531107664108276,27.77673602104187 13.905815780162811,26.228642463684082 13.905815780162811,26.228642463684082 15.472753345966339,24.866721034049988 15.472753345966339,24.866721034049988 17.13699996471405,23.657234013080597 17.13699996471405,23.657234013080597" stroke="white" stroke-width="0.1" /><polygon points="9.734231233596802,41.814759373664856 9.734231233596802,41.814759373664856 7.617729902267456,41.16578996181488 7.617729902267456,41.16578996181488 5.857767164707184,40.159982442855835 5.857767164707184,40.159982442855835 4.428819939494133,38.82351219654083 4.428819939494133,38.82351219654083 3.304166719317436,37.18254566192627 3.304166719317436,37.18254566192627 2.457885257899761,35.26325523853302 2.457885257899761,35.26325523853302 1.8636537715792656,33.091819286346436 1.8636537715792656,33.091819286346436 1.4955492690205574,30.694404244422913 1.4955492690205574,30.694404244422913 1.3272500596940517,28.097182512283325 1.3272500596940517,28.097182512283325 3.138260543346405,29.06610071659088 3.138260543346405,29.06610071659088 4.920357093214989,30.185815691947937 4.920357093214989,30.185815691947937 6.579220294952393,31.487467885017395 6.579220294952393,31.487467885017395 8.021128922700882,33.0021858215332 8.021128922700882,33.0021858215332 9.151764214038849,34.76112484931946 9.151764214038849,34.76112484931946 9.876806288957596,36.795446276664734 9.876806288957596,36.795446276664734 10.10233536362648,39.13626670837402 10.10233536362648,39.13626670837402" stroke="white" stroke-width="0.1" /><polygon points="18.141211569309235,32.96589255332947 18.141211569309235,32.96589255332947 18.864260613918304,35.21628379821777 18.864260613918304,35.21628379821777 19.220998883247375,37.611642479896545 19.220998883247375,37.611642479896545 19.208435714244843,40.03059267997742 19.208435714244843,40.03059267997742 18.823182582855225,42.35176146030426 18.823182582855225,42.35176146030426 18.062247335910797,44.453755021095276 18.062247335910797,44.453755021095276 16.922637820243835,46.21518850326538 16.922637820243835,46.21518850326538 15.400967001914978,47.51468300819397 15.400967001914978,47.51468300819397 13.49424123764038,48.230865597724915 13.49424123764038,48.230865597724915 12.639385461807251,45.9287166595459 12.639385461807251,45.9287166595459 12.409868091344833,43.68315041065216 12.409868091344833,43.68315041065216 12.698608636856079,41.522154211997986 12.698608636856079,41.522154211997986 13.397330045700073,39.473727345466614 13.397330045700073,39.473727345466614 14.39874917268753,37.565878033638 14.39874917268753,37.565878033638 15.594789385795593,35.826629400253296 15.594789385795593,35.826629400253296 16.878171265125275,34.28397178649902 16.878171265125275,34.28397178649902" stroke="white" stroke-width="0.1" /><polygon points="12.610471248626709,50.22174119949341 12.610471248626709,50.22174119949341 9.991265833377838,50.32263994216919 9.991265833377838,50.32263994216919 7.7569156885147095,49.89585876464844 7.7569156885147095,49.89585876464844 5.8639489114284515,49.02094006538391 5.8639489114284515,49.02094006538391 4.268895834684372,47.777414321899414 4.268895834684372,47.777414321899414 2.9284847900271416,46.244800090789795 2.9284847900271416,46.244800090789795 1.7990460619330406,44.502609968185425 1.7990460619330406,44.502609968185425 0.8373081684112549,42.630383372306824 0.8373081684112549,42.630383372306824 0.0,40.707653760910034 0.0,40.707653760910034 2.4044442921876907,41.068705916404724 2.4044442921876907,41.068705916404724 4.672295227646828,41.5665477514267 4.672295227646828,41.5665477514267 6.753302365541458,42.2511100769043 6.753302365541458,42.2511100769043 8.597613871097565,43.17231774330139 8.597613871097565,43.17231774330139 10.1553775370121,44.38007473945618 10.1553775370121,44.38007473945618 11.376941949129105,45.92427909374237 11.376941949129105,45.92427909374237 12.21165806055069,47.85485863685608 12.21165806055069,47.85485863685608" stroke="white" stroke-width="0.1" /><polygon points="20.353826880455017,43.80722939968109 20.353826880455017,43.80722939968109 21.272891759872437,45.72576880455017 21.272891759872437,45.72576880455017 21.872906386852264,47.988560795784 21.872906386852264,47.988560795784 22.13093787431717,50.42988061904907 22.13093787431717,50.42988061904907 22.023458778858185,52.884018421173096 22.023458778858185,52.884018421173096 21.52773290872574,55.1852285861969 21.52773290872574,55.1852285861969 20.620234310626984,57.167792320251465 20.620234310626984,57.167792320251465 19.27802860736847,58.665984869003296 19.27802860736847,58.665984869003296 17.47758686542511,59.514087438583374 17.47758686542511,59.514087438583374 16.353332996368408,57.526201009750366 16.353332996368408,57.526201009750366 15.85521548986435,55.40543794631958 15.85521548986435,55.40543794631958 15.881934762001038,53.22176218032837 15.881934762001038,53.22176218032837 16.33259356021881,51.04508996009827 16.33259356021881,51.04508996009827 17.10629165172577,48.945364356040955 17.10629165172577,48.945364356040955 18.101729452610016,46.99252545833588 18.101729452610016,46.99252545833588 19.21800673007965,45.25650441646576 19.21800673007965,45.25650441646576" stroke="white" stroke-width="0.1" /><polygon points="25.442683696746826,66.5938138961792 25.442683696746826,66.5938138961792 23.90027344226837,65.2163028717041 23.90027344226837,65.2163028717041 22.943320870399475,63.3769154548645 22.943320870399475,63.3769154548645 22.49525338411331,61.2149715423584 22.49525338411331,61.2149715423584 22.48009890317917,58.869802951812744 22.48009890317917,58.869802951812744 22.8212833404541,56.480735540390015 22.8212833404541,56.480735540390015 23.442834615707397,54.18711304664612 23.442834615707397,54.18711304664612 24.268178641796112,52.12825536727905 24.268178641796112,52.12825536727905 25.220942497253418,50.443482398986816 25.220942497253418,50.443482398986816 26.328247785568237,52.055156230926514 26.328247785568237,52.055156230926514 27.26326584815979,54.05856966972351 27.26326584815979,54.05856966972351 27.957597374916077,56.31600618362427 27.957597374916077,56.31600618362427 28.343847393989563,58.68973731994629 28.343847393989563,58.68973731994629 28.35341989994049,61.04208827018738 28.35341989994049,61.04208827018738 27.918514609336853,63.23536038398743 27.918514609336853,63.23536038398743 26.970934867858887,65.13183116912842 26.970934867858887,65.13183116912842" stroke="white" stroke-width="0.1" /><polygon points="15.485116839408875,58.62872004508972 15.485116839408875,58.62872004508972 12.89442628622055,59.01075601577759 12.89442628622055,59.01075601577759 10.622388124465942,58.80429744720459 10.622388124465942,58.80429744720459 8.634902536869049,58.110737800598145 8.634902536869049,58.110737800598145 6.897672265768051,57.03147649765015 6.897672265768051,57.03147649765015 5.376599356532097,55.66790699958801 5.376599356532097,55.66790699958801 4.037583991885185,54.121434688568115 4.037583991885185,54.121434688568115 2.846728079020977,52.49345302581787 2.846728079020977,52.49345302581787 1.7691349610686302,50.88536739349365 1.7691349610686302,50.88536739349365 4.345468059182167,50.743263959884644 4.345468059182167,50.743263959884644 6.767858564853668,50.898897647857666 6.767858564853668,50.898897647857666 8.989845961332321,51.36198401451111 8.989845961332321,51.36198401451111 10.965566337108612,52.142226696014404 10.965566337108612,52.142226696014404 12.649156153202057,53.24931740760803 12.649156153202057,53.24931740760803 13.994152843952179,54.692959785461426 13.994152843952179,54.692959785461426 14.954894781112671,56.48285746574402 14.954894781112671,56.48285746574402" stroke="white" stroke-width="0.1" /><polygon points="35.84053814411163,71.90281748771667 35.84053814411163,71.90281748771667 34.00121331214905,71.16861343383789 34.00121331214905,71.16861343383789 32.53377974033356,69.95653510093689 32.53377974033356,69.95653510093689 31.419894099235535,68.34173798561096 31.419894099235535,68.34173798561096 30.641809105873108,66.39939546585083 30.641809105873108,66.39939546585083 30.181977152824402,64.20467495918274 30.181977152824402,64.20467495918274 30.021855235099792,61.83276176452637 30.021855235099792,61.83276176452637 30.14448881149292,59.358811378479004 30.14448881149292,59.358811378479004 30.531537532806396,56.857991218566895 30.531537532806396,56.857991218566895 32.00714588165283,57.99406170845032 32.00714588165283,57.99406170845032 33.46002399921417,59.4238817691803 33.46002399921417,59.4238817691803 34.78607535362244,61.106932163238525 34.78607535362244,61.106932163238525 35.879820585250854,63.002705574035645 35.879820585250854,63.002705574035645 36.636969447135925,65.07068872451782 36.636969447135925,65.07068872451782 36.95262968540192,67.27038025856018 36.95262968540192,67.27038025856018 36.72191500663757,69.56126093864441 36.72191500663757,69.56126093864441" stroke="white" stroke-width="0.1" /><polygon points="22.5664421916008,65.93019366264343 22.5664421916008,65.93019366264343 20.252129435539246,66.79462194442749 20.252129435539246,66.79462194442749 17.944397032260895,66.9953465461731 17.944397032260895,66.9953465461731 15.705659985542297,66.64589643478394 15.705659985542297,66.64589643478394 13.598929345607758,65.8598005771637 13.598929345607758,65.8598005771637 11.686620861291885,64.75058794021606 11.686620861291885,64.75058794021606 10.03134697675705,63.43179941177368 10.03134697675705,63.43179941177368 8.696120232343674,62.016963958740234 8.696120232343674,62.016963958740234 7.743355631828308,60.619598627090454 7.743355631828308,60.619598627090454 10.160163044929504,60.128581523895264 10.160163044929504,60.128581523895264 12.571386992931366,59.95891094207764 12.571386992931366,59.95891094207764 14.899659156799316,60.114896297454834 14.899659156799316,60.114896297454834 17.06680953502655,60.600852966308594 17.06680953502655,60.600852966308594 18.9948707818985,61.42106056213379 18.9948707818985,61.42106056213379 20.60607671737671,62.57981061935425 20.60607671737671,62.57981061935425 21.822457015514374,64.08141851425171 21.822457015514374,64.08141851425171" stroke="white" stroke-width="0.1" /><polygon points="50.0,75.2225399017334 50.0,75.2225399017334 47.385379672050476,75.04414319992065 47.385379672050476,75.04414319992065 45.206865668296814,74.42924976348877 45.206865668296814,74.42924976348877 43.40701997280121,73.43590259552002 43.40701997280121,73.43590259552002 41.9274240732193,72.12216258049011 41.9274240732193,72.12216258049011 40.71044623851776,70.54610252380371 40.71044623851776,70.54610252380371 39.69745934009552,68.76580119132996 39.69745934009552,68.76580119132996 38.83123695850372,66.83931350708008 38.83123695850372,66.83931350708008 38.053154945373535,64.82468247413635 38.053154945373535,64.82468247413635 40.386608242988586,65.28422832489014 40.386608242988586,65.28422832489014 42.591845989227295,65.8721387386322 42.591845989227295,65.8721387386322 44.61283087730408,66.64426922798157 44.61283087730408,66.64426922798157 46.393731236457825,67.65645146369934 46.393731236457825,67.65645146369934 47.87871241569519,68.96453499794006 47.87871241569519,68.96453499794006 49.01193976402283,70.62434554100037 49.01193976402283,70.62434554100037 49.737781286239624,72.69173264503479 49.737781286239624,72.69173264503479" stroke="white" stroke-width="0.1" /><polygon points="31.19516372680664,71.90281748771667 31.19516372680664,71.90281748771667 29.368600249290466,73.11221957206726 29.368600249290466,73.11221957206726 27.30194926261902,73.72167706489563 27.30194926261902,73.72167706489563 25.09491741657257,73.8188624382019 25.09491741657257,73.8188624382019 22.849000990390778,73.49148988723755 22.849000990390778,73.49148988723755 20.664502680301666,72.82722592353821 20.664502680301666,72.82722592353821 18.641722202301025,71.91380858421326 18.641722202301025,71.91380858421326 16.881759464740753,70.83891034126282 16.881759464740753,70.83891034126282 15.485116839408875,69.69020366668701 15.485116839408875,69.69020366668701 17.425940930843353,68.69068741798401 17.425940930843353,68.69068741798401 19.638754427433014,67.98978447914124 19.638754427433014,67.98978447914124 21.991154551506042,67.62048602104187 21.991154551506042,67.62048602104187 24.349933862686157,67.61577725410461 24.349933862686157,67.61577725410461 26.582491397857666,68.00865530967712 26.582491397857666,68.00865530967712 28.55621576309204,68.83212924003601 28.55621576309204,68.83212924003601 30.137908458709717,70.1191782951355 30.137908458709717,70.1191782951355" stroke="white" stroke-width="0.1" /><polygon points="40.92939496040344,75.2225399017334 40.92939496040344,75.2225399017334 40.86259305477142,75.44475197792053 40.86259305477142,75.44475197792053 40.64484238624573,75.78197121620178 40.64484238624573,75.78197121620178 40.321603417396545,76.19232535362244 40.321603417396545,76.19232535362244 39.938342571258545,76.6339361667633 39.938342571258545,76.6339361667633 39.540526270866394,77.06493139266968 39.540526270866394,77.06493139266968 39.17381763458252,77.44342684745789 39.17381763458252,77.44342684745789 38.88348340988159,77.7275562286377 38.88348340988159,77.7275562286377 38.7151837348938,77.87544131278992 38.7151837348938,77.87544131278992 37.293416261672974,78.64774465560913 37.293416261672974,78.64774465560913 35.65528988838196,79.1143536567688 35.65528988838196,79.1143536567688 33.87080132961273,79.31386232376099 33.87080132961273,79.31386232376099 32.01053738594055,79.28484678268433 32.01053738594055,79.28484678268433 30.144888162612915,79.06590104103088 30.144888162612915,79.06590104103088 28.344446420669556,78.69560122489929 28.344446420669556,78.69560122489929 26.67980194091797,78.21255326271057 26.67980194091797,78.21255326271057 25.220942497253418,77.65529751777649 25.220942497253418,77.65529751777649 26.132628321647644,76.92344784736633 26.132628321647644,76.92344784736633 27.1511971950531,76.1130154132843 27.1511971950531,76.1130154132843 28.275054693222046,75.28094053268433 28.275054693222046,75.28094053268433 29.502001404762268,74.48413372039795 29.502001404762268,74.48413372039795 30.82984983921051,73.77952933311462 30.82984983921051,73.77952933311462 32.25620687007904,73.2240617275238 32.25620687007904,73.2240617275238 33.77927243709564,72.87463545799255 33.77927243709564,72.87463545799255 35.397058725357056,72.78818488121033 35.397058725357056,72.78818488121033 35.95180809497833,72.85974621772766 35.95180809497833,72.85974621772766 36.71354055404663,73.0310320854187 36.71354055404663,73.0310320854187 37.597909569740295,73.28545451164246 37.597909569740295,73.28545451164246 38.52156102657318,73.60634803771973 38.52156102657318,73.60634803771973 39.40034508705139,73.97711873054504 39.40034508705139,73.97711873054504 40.150511264801025,74.38116669654846 40.150511264801025,74.38116669654846 40.68811237812042,74.80183839797974 40.68811237812042,74.80183839797974" stroke="white" stroke-width="0.1" /><polygon points="83.1860363483429,12.61206716299057 83.1860363483429,12.61206716299057 80.75507283210754,12.228221446275711 80.75507283210754,12.228221446275711 78.7157416343689,11.37813851237297 78.7157416343689,11.37813851237297 77.04212069511414,10.124556720256805 77.04212069511414,10.124556720256805 75.70749521255493,8.530214428901672 75.70749521255493,8.530214428901672 74.68533515930176,6.657848507165909 74.68533515930176,6.657848507165909 73.94932508468628,4.570199176669121 73.94932508468628,4.570199176669121 73.47314357757568,2.3300034925341606 73.47314357757568,2.3300034925341606 73.23006987571716,0.0 73.23006987571716,0.0 75.09172558784485,0.9589711204171181 75.09172558784485,0.9589711204171181 76.93822979927063,1.9333962351083755 76.93822979927063,1.9333962351083755 78.6886215209961,3.003760799765587 78.6886215209961,3.003760799765587 80.26293516159058,4.250550270080566 80.26293516159058,4.250550270080566 81.58021569252014,5.754275247454643 81.58021569252014,5.754275247454643 82.56030082702637,7.595445960760117 82.56030082702637,7.595445960760117 83.1224262714386,9.854547679424286 83.1224262714386,9.854547679424286" stroke="white" stroke-width="0.1" /><polygon points="87.6112699508667,18.80483627319336 87.6112699508667,18.80483627319336 87.36719489097595,18.687959015369415 87.36719489097595,18.687959015369415 87.01663613319397,18.375015258789062 87.01663613319397,18.375015258789062 86.59688830375671,17.913563549518585 86.59688830375671,17.913563549518585 86.14383339881897,17.351162433624268 86.14383339881897,17.351162433624268 85.69457530975342,16.735370457172394 85.69457530975342,16.735370457172394 85.2855920791626,16.113746166229248 85.2855920791626,16.113746166229248 84.95337963104248,15.533846616744995 84.95337963104248,15.533846616744995 84.73502993583679,15.043231844902039 84.73502993583679,15.043231844902039 84.32026505470276,13.266269862651825 84.32026505470276,13.266269862651825 84.26123857498169,11.489257961511612 84.26123857498169,11.489257961511612 84.49075818061829,9.748812764883041 84.49075818061829,9.748812764883041 84.94141697883606,8.081549406051636 84.94141697883606,8.081549406051636 85.54601669311523,6.524059176445007 85.54601669311523,6.524059176445007 86.23735904693604,5.112933740019798 86.23735904693604,5.112933740019798 86.94823980331421,3.8847889751195908 86.94823980331421,3.8847889751195908 87.6112699508667,2.876240387558937 87.6112699508667,2.876240387558937 88.11257481575012,4.046071320772171 88.11257481575012,4.046071320772171 88.69962692260742,5.3128886967897415 88.69962692260742,5.3128886967897415 89.30941224098206,6.670486181974411 89.30941224098206,6.670486181974411 89.87852334976196,8.112657070159912 89.87852334976196,8.112657070159912 90.34413695335388,9.633193910121918 90.34413695335388,9.633193910121918 90.64304828643799,11.22589185833931 90.64304828643799,11.22589185833931 90.71164131164551,12.88454383611679 90.71164131164551,12.88454383611679 90.4875099658966,14.602941274642944 90.4875099658966,14.602941274642944 90.38621187210083,14.905914664268494 90.38621187210083,14.905914664268494 90.1680588722229,15.441420674324036 90.1680588722229,15.441420674324036 89.85459208488464,16.124950349330902 89.85459208488464,16.124950349330902 89.46754336357117,16.871988773345947 89.46754336357117,16.871988773345947 89.02825117111206,17.598015069961548 89.02825117111206,17.598015069961548 88.55805397033691,18.21850687265396 88.55805397033691,18.21850687265396 88.07867765426636,18.64895075559616 88.07867765426636,18.64895075559616" stroke="white" stroke-width="0.1" /><polygon points="86.28242611885071,22.78818190097809 86.28242611885071,22.78818190097809 83.64068269729614,22.643201053142548 83.64068269729614,22.643201053142548 81.44601583480835,21.97679728269577 81.44601583480835,21.97679728269577 79.65494394302368,20.868906378746033 79.65494394302368,20.868906378746033 78.22360396385193,19.39946711063385 78.22360396385193,19.39946711063385 77.1081268787384,17.6484152674675 77.1081268787384,17.6484152674675 76.26503705978394,15.695689618587494 76.26503705978394,15.695689618587494 75.65046548843384,13.621225953102112 75.65046548843384,13.621225953102112 75.22094249725342,11.504961550235748 75.22094249725342,11.504961550235748 77.25967764854431,12.259814888238907 77.25967764854431,12.259814888238907 79.24975156784058,13.063149154186249 79.24975156784058,13.063149154186249 81.12198114395142,13.984370231628418 81.12198114395142,13.984370231628418 82.80656933784485,15.092884004116058 82.80656933784485,15.092884004116058 84.23432111740112,16.45810753107071 84.23432111740112,16.45810753107071 85.33583879470825,18.149462342262268 85.33583879470825,18.149462342262268 86.04174256324768,20.2363520860672 86.04174256324768,20.2363520860672" stroke="white" stroke-width="0.1" /><polygon points="90.70765376091003,30.531537532806396 90.70765376091003,30.531537532806396 89.52916264533997,28.58463227748871 89.52916264533997,28.58463227748871 88.97421360015869,26.44873857498169 88.97421360015869,26.44873857498169 88.95865678787231,24.219895899295807 88.95865678787231,24.219895899295807 89.39834833145142,21.994145214557648 89.39834833145142,21.994145214557648 90.2091383934021,19.86754983663559 90.2091383934021,19.86754983663559 91.30666851997375,17.93617159128189 91.30666851997375,17.93617159128189 92.60700345039368,16.296052932739258 92.60700345039368,16.296052932739258 94.02577877044678,15.043231844902039 94.02577877044678,15.043231844902039 94.65590119361877,17.187799513339996 94.65590119361877,17.187799513339996 95.07266283035278,19.504928588867188 95.07266283035278,19.504928588867188 95.23358345031738,21.878552436828613 95.23358345031738,21.878552436828613 95.09579539299011,24.192602932453156 95.09579539299011,24.192602932453156 94.61702108383179,26.33100152015686 94.61702108383179,26.33100152015686 93.75419020652771,28.177669644355774 93.75419020652771,28.177669644355774 92.46522188186646,29.61653470993042 92.46522188186646,29.61653470993042" stroke="white" stroke-width="0.1" /><polygon points="89.16025757789612,36.50575876235962 89.16025757789612,36.50575876235962 86.9990885257721,35.9350711107254 86.9990885257721,35.9350711107254 85.20084023475647,34.92715656757355 85.20084023475647,34.92715656757355 83.75036120414734,33.53324234485626 83.75036120414734,33.53324234485626 82.63288736343384,31.80454969406128 82.63288736343384,31.80454969406128 81.83346390724182,29.79229986667633 81.83346390724182,29.79229986667633 81.33733868598938,27.547717094421387 81.33733868598938,27.547717094421387 81.12955689430237,25.12202560901642 81.12955689430237,25.12202560901642 81.19516372680664,22.5664421916008 81.19516372680664,22.5664421916008 82.86280035972595,23.657234013080597 82.86280035972595,23.657234013080597 84.52724814414978,24.866721034049988 84.52724814414978,24.866721034049988 86.09398603439331,26.228642463684082 86.09398603439331,26.228642463684082 87.46889233589172,27.77673602104187 87.46889233589172,27.77673602104187 88.55725526809692,29.544749855995178 88.55725526809692,29.544749855995178 89.26494717597961,31.566432118415833 89.26494717597961,31.566432118415833 89.4972562789917,33.87552499771118 89.4972562789917,33.87552499771118" stroke="white" stroke-width="0.1" /><polygon points="90.2657687664032,41.814759373664856 90.2657687664032,41.814759373664856 89.89766240119934,39.13628160953522 89.89766240119934,39.13628160953522 90.12339115142822,36.795446276664734 90.12339115142822,36.795446276664734 90.84823727607727,34.76112484931946 90.84823727607727,34.76112484931946 91.97887182235718,33.0021858215332 91.97887182235718,33.0021858215332 93.42077970504761,31.487467885017395 93.42077970504761,31.487467885017395 95.07984519004822,30.185815691947937 95.07984519004822,30.185815691947937 96.86173796653748,29.06610071659088 96.86173796653748,29.06610071659088 98.67274761199951,28.097182512283325 98.67274761199951,28.097182512283325 98.50444793701172,30.694404244422913 98.50444793701172,30.694404244422913 98.13634753227234,33.091819286346436 98.13634753227234,33.091819286346436 97.5421130657196,35.26325523853302 97.5421130657196,35.26325523853302 96.69583439826965,37.18254566192627 96.69583439826965,37.18254566192627 95.57117819786072,38.82351219654083 95.57117819786072,38.82351219654083 94.1420316696167,40.159982442855835 94.1420316696167,40.159982442855835 92.3824667930603,41.16578996181488 92.3824667930603,41.16578996181488" stroke="white" stroke-width="0.1" /><polygon points="81.85878992080688,32.96589255332947 81.85878992080688,32.96589255332947 83.12162756919861,34.28397178649902 83.12162756919861,34.28397178649902 84.40520763397217,35.826629400253296 84.40520763397217,35.826629400253296 85.60144901275635,37.565878033638 85.60144901275635,37.565878033638 86.60266995429993,39.473727345466614 86.60266995429993,39.473727345466614 87.30139136314392,41.52214229106903 87.30139136314392,41.52214229106903 87.59013414382935,43.68315041065216 87.59013414382935,43.68315041065216 87.36081719398499,45.92872858047485 87.36081719398499,45.92872858047485 86.50575876235962,48.230865597724915 86.50575876235962,48.230865597724915 84.59903597831726,47.51468300819397 84.59903597831726,47.51468300819397 83.07735919952393,46.21518850326538 83.07735919952393,46.21518850326538 81.93775415420532,44.453755021095276 81.93775415420532,44.453755021095276 81.17681741714478,42.35176146030426 81.17681741714478,42.35176146030426 80.79156279563904,40.03059267997742 80.79156279563904,40.03059267997742 80.77900409698486,37.611642479896545 80.77900409698486,37.611642479896545 81.13573789596558,35.21627187728882 81.13573789596558,35.21627187728882" stroke="white" stroke-width="0.1" /><polygon points="100.0,40.707653760910034 100.0,40.707653760910034 99.16269183158875,42.630383372306824 99.16269183158875,42.630383372306824 98.20095300674438,44.502609968185425 98.20095300674438,44.502609968185425 97.07151651382446,46.244800090789795 97.07151651382446,46.244800090789795 95.73110342025757,47.777414321899414 95.73110342025757,47.777414321899414 94.13605332374573,49.02094006538391 94.13605332374573,49.02094006538391 92.2428846359253,49.89585876464844 92.2428846359253,49.89585876464844 90.00873565673828,50.32263994216919 90.00873565673828,50.32263994216919 87.38952875137329,50.22174119949341 87.38952875137329,50.22174119949341 87.78834342956543,47.85485863685608 87.78834342956543,47.85485863685608 88.62325549125671,45.92427909374237 88.62325549125671,45.92427909374237 89.84462022781372,44.38007473945618 89.84462022781372,44.38007473945618 91.40238761901855,43.17231774330139 91.40238761901855,43.17231774330139 93.2466983795166,42.2511100769043 93.2466983795166,42.2511100769043 95.3277051448822,41.5665477514267 95.3277051448822,41.5665477514267 97.59555459022522,41.068705916404724 97.59555459022522,41.068705916404724" stroke="white" stroke-width="0.1" /><polygon points="82.52241611480713,59.514087438583374 82.52241611480713,59.514087438583374 80.72217106819153,58.665984869003296 80.72217106819153,58.665984869003296 79.37976717948914,57.167792320251465 79.37976717948914,57.167792320251465 78.47246527671814,55.1852285861969 78.47246527671814,55.1852285861969 77.97654271125793,52.884018421173096 77.97654271125793,52.884018421173096 77.86906361579895,50.42988061904907 77.86906361579895,50.42988061904907 78.12709212303162,47.988560795784 78.12709212303162,47.988560795784 78.72730493545532,45.72576880455017 78.72730493545532,45.72576880455017 79.64617013931274,43.80722939968109 79.64617013931274,43.80722939968109 80.78199028968811,45.25650441646576 80.78199028968811,45.25650441646576 81.8982720375061,46.99252545833588 81.8982720375061,46.99252545833588 82.89370536804199,48.945364356040955 82.89370536804199,48.945364356040955 83.66740345954895,51.04508996009827 83.66740345954895,51.04508996009827 84.11806225776672,53.221750259399414 84.11806225776672,53.221750259399414 84.14478302001953,55.40543794631958 84.14478302001953,55.40543794631958 83.64647030830383,57.526201009750366 83.64647030830383,57.526201009750366" stroke="white" stroke-width="0.1" /><polygon points="74.55731630325317,66.5938138961792 74.55731630325317,66.5938138961792 73.02906513214111,65.13183116912842 73.02906513214111,65.13183116912842 72.08148837089539,63.23536038398743 72.08148837089539,63.23536038398743 71.64657711982727,61.04210019111633 71.64657711982727,61.04210019111633 71.6561496257782,58.68973731994629 71.6561496257782,58.68973731994629 72.04239964485168,56.315988302230835 72.04239964485168,56.315988302230835 72.73693680763245,54.05856966972351 72.73693680763245,54.05856966972351 73.671954870224,52.055174112319946 73.671954870224,52.055174112319946 74.77905750274658,50.443482398986816 74.77905750274658,50.443482398986816 75.73181986808777,52.12825536727905 75.73181986808777,52.12825536727905 76.55736804008484,54.18711304664612 76.55736804008484,54.18711304664612 77.1787166595459,56.480735540390015 77.1787166595459,56.480735540390015 77.51989960670471,58.869802951812744 77.51989960670471,58.869802951812744 77.50474810600281,61.2149715423584 77.50474810600281,61.2149715423584 77.05668210983276,63.3769154548645 77.05668210983276,63.3769154548645 76.09972953796387,65.2163028717041 76.09972953796387,65.2163028717041" stroke="white" stroke-width="0.1" /><polygon points="84.51488614082336,58.62872004508972 84.51488614082336,58.62872004508972 85.04510521888733,56.48285746574402 85.04510521888733,56.48285746574402 86.00584864616394,54.692959785461426 86.00584864616394,54.692959785461426 87.35084533691406,53.24930548667908 87.35084533691406,53.24930548667908 89.03443217277527,52.142226696014404 89.03443217277527,52.142226696014404 91.01015329360962,51.36199593544006 91.01015329360962,51.36199593544006 93.23233962059021,50.898897647857666 93.23233962059021,50.898897647857666 95.65452933311462,50.743263959884644 95.65452933311462,50.743263959884644 98.23086261749268,50.88536739349365 98.23086261749268,50.88536739349365 97.15347290039062,52.49345302581787 97.15347290039062,52.49345302581787 95.9624171257019,54.121434688568115 95.9624171257019,54.121434688568115 94.623202085495,55.66790699958801 94.623202085495,55.66790699958801 93.10232996940613,57.03147649765015 93.10232996940613,57.03147649765015 91.36529564857483,58.110737800598145 91.36529564857483,58.110737800598145 89.37761187553406,58.80429744720459 89.37761187553406,58.80429744720459 87.10557222366333,59.01075601577759 87.10557222366333,59.01075601577759" stroke="white" stroke-width="0.1" /><polygon points="69.4684624671936,56.857991218566895 69.4684624671936,56.857991218566895 69.85530853271484,59.358811378479004 69.85530853271484,59.358811378479004 69.97794508934021,61.83276176452637 69.97794508934021,61.83276176452637 69.8182225227356,64.20467495918274 69.8182225227356,64.20467495918274 69.35818791389465,66.39939546585083 69.35818791389465,66.39939546585083 68.58010292053223,68.34173798561096 68.58010292053223,68.34173798561096 67.46622323989868,69.95653510093689 67.46622323989868,69.95653510093689 65.9985899925232,71.16861343383789 65.9985899925232,71.16861343383789 64.15945887565613,71.90281748771667 64.15945887565613,71.90281748771667 63.27788233757019,69.56126093864441 63.27788233757019,69.56126093864441 63.04737329483032,67.27038025856018 63.04737329483032,67.27038025856018 63.36303353309631,65.07068872451782 63.36303353309631,65.07068872451782 64.12017941474915,63.002705574035645 64.12017941474915,63.002705574035645 65.21392464637756,61.106932163238525 65.21392464637756,61.106932163238525 66.53997898101807,59.4238817691803 66.53997898101807,59.4238817691803 67.99285411834717,57.99406170845032 67.99285411834717,57.99406170845032" stroke="white" stroke-width="0.1" /><polygon points="77.43355631828308,65.93019366264343 77.43355631828308,65.93019366264343 78.17734479904175,64.08141851425171 78.17734479904175,64.08141851425171 79.39392328262329,62.57981061935425 79.39392328262329,62.57981061935425 81.00512623786926,61.42106056213379 81.00512623786926,61.42106056213379 82.93319344520569,60.600852966308594 82.93319344520569,60.600852966308594 85.10034084320068,60.114896297454834 85.10034084320068,60.114896297454834 87.42841482162476,59.95891094207764 87.42841482162476,59.95891094207764 89.83983397483826,60.128581523895264 89.83983397483826,60.128581523895264 92.25664138793945,60.619598627090454 92.25664138793945,60.619598627090454 91.30387902259827,62.016963958740234 91.30387902259827,62.016963958740234 89.96865153312683,63.43179941177368 89.96865153312683,63.43179941177368 88.31337690353394,64.75059986114502 88.31337690353394,64.75059986114502 86.40106916427612,65.8598005771637 86.40106916427612,65.8598005771637 84.29434299468994,66.64588451385498 84.29434299468994,66.64588451385498 82.05560445785522,66.9953465461731 82.05560445785522,66.9953465461731 79.74786758422852,66.79462194442749 79.74786758422852,66.79462194442749" stroke="white" stroke-width="0.1" /><polygon points="61.946845054626465,64.82468247413635 61.946845054626465,64.82468247413635 61.16876006126404,66.83931350708008 61.16876006126404,66.83931350708008 60.30253767967224,68.76580119132996 60.30253767967224,68.76580119132996 59.289753437042236,70.54610252380371 59.289753437042236,70.54610252380371 58.07257890701294,72.12216258049011 58.07257890701294,72.12216258049011 56.59297704696655,73.43590259552002 56.59297704696655,73.43590259552002 54.793137311935425,74.42924976348877 54.793137311935425,74.42924976348877 52.61482000350952,75.04414319992065 52.61482000350952,75.04414319992065 50.0,75.2225399017334 50.0,75.2225399017334 50.262218713760376,72.69173264503479 50.262218713760376,72.69173264503479 50.98785758018494,70.62434554100037 50.98785758018494,70.62434554100037 52.12128758430481,68.96453499794006 52.12128758430481,68.96453499794006 53.60626578330994,67.65645146369934 53.60626578330994,67.65645146369934 55.38716912269592,66.64426922798157 55.38716912269592,66.64426922798157 57.40795135498047,65.8721387386322 57.40795135498047,65.8721387386322 59.613388776779175,65.28422832489014 59.613388776779175,65.28422832489014" stroke="white" stroke-width="0.1" /><polygon points="68.80483627319336,71.90281748771667 68.80483627319336,71.90281748771667 69.86209154129028,70.1191782951355 69.86209154129028,70.1191782951355 71.44378423690796,68.83212924003601 71.44378423690796,68.83212924003601 73.41750860214233,68.00865530967712 73.41750860214233,68.00865530967712 75.65006613731384,67.61577725410461 75.65006613731384,67.61577725410461 78.0088484287262,67.62048602104187 78.0088484287262,67.62048602104187 80.36104440689087,67.98978447914124 80.36104440689087,67.98978447914124 82.57405757904053,68.69068741798401 82.57405757904053,68.69068741798401 84.51488614082336,69.69020366668701 84.51488614082336,69.69020366668701 83.11824202537537,70.83889842033386 83.11824202537537,70.83889842033386 81.35827779769897,71.91380858421326 81.35827779769897,71.91380858421326 79.33549880981445,72.82724380493164 79.33549880981445,72.82724380493164 77.15100049972534,73.49148988723755 77.15100049972534,73.49148988723755 74.90488290786743,73.8188624382019 74.90488290786743,73.8188624382019 72.69824743270874,73.72167706489563 72.69824743270874,73.72167706489563 70.63140273094177,73.11221957206726 70.63140273094177,73.11221957206726" stroke="white" stroke-width="0.1" /><polygon points="59.07060503959656,75.2225399017334 59.07060503959656,75.2225399017334 59.311890602111816,74.80183839797974 59.311890602111816,74.80183839797974 59.849488735198975,74.38116669654846 59.849488735198975,74.38116669654846 60.59965491294861,73.977130651474 60.59965491294861,73.977130651474 61.47844195365906,73.60634803771973 61.47844195365906,73.60634803771973 62.40189075469971,73.28545451164246 62.40189075469971,73.28545451164246 63.28645944595337,73.0310320854187 63.28645944595337,73.0310320854187 64.04799222946167,72.85974621772766 64.04799222946167,72.85974621772766 64.60294127464294,72.78818488121033 64.60294127464294,72.78818488121033 66.22052788734436,72.87463545799255 66.22052788734436,72.87463545799255 67.7437961101532,73.2240617275238 67.7437961101532,73.2240617275238 69.17034983634949,73.77952933311462 69.17034983634949,73.77952933311462 70.4979956150055,74.48413372039795 70.4979956150055,74.48413372039795 71.72494530677795,75.28094053268433 71.72494530677795,75.28094053268433 72.8488028049469,76.1130154132843 72.8488028049469,76.1130154132843 73.86736869812012,76.92344784736633 73.86736869812012,76.92344784736633 74.77905750274658,77.65529751777649 74.77905750274658,77.65529751777649 73.32019805908203,78.21254134178162 73.32019805908203,78.21254134178162 71.65555357933044,78.69560122489929 71.65555357933044,78.69560122489929 69.85511183738708,79.06590104103088 69.85511183738708,79.06590104103088 67.98946261405945,79.28484678268433 67.98946261405945,79.28484678268433 66.1292016506195,79.31386232376099 66.1292016506195,79.31386232376099 64.34471011161804,79.1143536567688 64.34471011161804,79.1143536567688 62.70638704299927,78.64773273468018 62.70638704299927,78.64773273468018 61.2848162651062,77.87544131278992 61.2848162651062,77.87544131278992 61.11651659011841,77.7275562286377 61.11651659011841,77.7275562286377 60.82618236541748,77.44342684745789 60.82618236541748,77.44342684745789 60.45947074890137,77.06493139266968 60.45947074890137,77.06493139266968 60.061657428741455,76.6339361667633 60.061657428741455,76.6339361667633 59.67819690704346,76.19232535362244 59.67819690704346,76.19232535362244 59.35515761375427,75.78197121620178 59.35515761375427,75.78197121620178 59.137409925460815,75.44475197792053 59.137409925460815,75.44475197792053" stroke="white" stroke-width="0.1" /><polygon points="50.0,77.47503519058228 50.0,77.47503519058228 51.98947787284851,76.91158652305603 51.98947787284851,76.91158652305603 54.01305556297302,76.8154501914978 54.01305556297302,76.8154501914978 56.01828694343567,77.11570262908936 56.01828694343567,77.11570262908936 57.95313119888306,77.74144411087036 57.95313119888306,77.74144411087036 59.76513624191284,78.6217212677002 59.76513624191284,78.6217212677002 61.40127182006836,79.68560457229614 61.40127182006836,79.68560457229614 62.81047463417053,80.86217641830444 62.81047463417053,80.86217641830444 63.9393150806427,82.0805311203003 63.9393150806427,82.0805311203003 62.20627427101135,82.6836347579956 62.20627427101135,82.6836347579956 60.34361720085144,83.09022188186646 60.34361720085144,83.09022188186646 58.41435790061951,83.29057693481445 58.41435790061951,83.29057693481445 56.48270845413208,83.27497243881226 56.48270845413208,83.27497243881226 54.611873626708984,83.03369283676147 54.611873626708984,83.03369283676147 52.865469455718994,82.55701065063477 52.865469455718994,82.55701065063477 51.307111978530884,81.8352222442627 51.307111978530884,81.8352222442627 50.0,80.85856437683105 50.0,80.85856437683105 48.69309067726135,81.83521032333374 48.69309067726135,81.83521032333374 47.13492691516876,82.55701065063477 47.13492691516876,82.55701065063477 45.38852274417877,83.03369283676147 45.38852274417877,83.03369283676147 43.51789057254791,83.27497243881226 43.51789057254791,83.27497243881226 41.58623814582825,83.29057693481445 41.58623814582825,83.29057693481445 39.65718150138855,83.09022188186646 39.65718150138855,83.09022188186646 37.79412508010864,82.68362283706665 37.79412508010864,82.68362283706665 36.06068193912506,82.0805311203003 36.06068193912506,82.0805311203003 37.18952536582947,80.86217641830444 37.18952536582947,80.86217641830444 38.59853148460388,79.68560457229614 38.59853148460388,79.68560457229614 40.23506045341492,78.6217212677002 40.23506045341492,78.6217212677002 42.04686880111694,77.74144411087036 42.04686880111694,77.74144411087036 43.981510400772095,77.11570262908936 43.981510400772095,77.11570262908936 45.98694145679474,76.8154501914978 45.98694145679474,76.8154501914978 48.01071882247925,76.91158652305603 48.01071882247925,76.91158652305603" stroke="white" stroke-width="0.1" /><polygon points="26.769933104515076,0.0 26.526856422424316,2.3300034925341606 26.050671935081482,4.570199176669121 25.314664840698242,6.657848507165909 24.29250478744507,8.530214428901672 22.957877814769745,10.124556720256805 21.284058690071106,11.37813851237297 19.245126843452454,12.228221446275711 16.813962161540985,12.61206716299057 16.87777191400528,9.854547679424286 17.439699172973633,7.595445960760117 18.41958314180374,5.754275247454643 19.737061858177185,4.250550270080566 21.31117731332779,3.003760799765587 23.06176871061325,1.9333962351083755 24.908272922039032,0.9589711204171181" stroke="white" stroke-width="0.1" /><polygon points="12.38873079419136,18.80483627319336 11.92152127623558,18.64895075559616 11.441949009895325,18.21850687265396 10.97174808382988,17.598015069961548 10.532455146312714,16.871988773345947 10.145407170057297,16.124950349330902 9.83194038271904,15.441420674324036 9.613988548517227,14.905914664268494 9.512490779161453,14.602941274642944 9.288357943296432,12.88454383611679 9.357152879238129,11.22589185833931 9.655863791704178,9.633193910121918 10.121478140354156,8.112657070159912 10.690584778785706,6.670486181974411 11.30037009716034,5.3128886967897415 11.887422949075699,4.046071320772171 12.38873079419136,2.876240387558937 13.051758706569672,3.8847889751195908 13.762642443180084,5.112933740019798 14.453984797000885,6.524059176445007 15.05858600139618,8.081549406051636 15.509244799613953,9.748812764883041 15.738561749458313,11.489257961511612 15.67973643541336,13.266269862651825 15.264971554279327,15.043231844902039 15.046422183513641,15.533846616744995 14.714409410953522,16.113746166229248 14.30542767047882,16.735370457172394 13.856163620948792,17.351162433624268 13.403311371803284,17.913563549518585 12.983162701129913,18.375015258789062 12.633004784584045,18.687959015369415" stroke="white" stroke-width="0.1" /><polygon points="24.779057502746582,11.504961550235748 24.349336326122284,13.621225953102112 23.734964430332184,15.695689618587494 22.89167493581772,17.6484152674675 21.776393055915833,19.39946711063385 20.34505307674408,20.868906378746033 18.553784489631653,21.97679728269577 16.35931432247162,22.643201053142548 13.71757686138153,22.78818190097809 13.958460092544556,20.2363520860672 14.663960039615631,18.149462342262268 15.765681862831116,16.45810753107071 17.19343215227127,15.092884004116058 18.878018856048584,13.984370231628418 20.750246942043304,13.063149154186249 22.740325331687927,12.259814888238907" stroke="white" stroke-width="0.1" /><polygon points="9.292346239089966,30.531537532806396 7.534576952457428,29.61653470993042 6.245613098144531,28.177669644355774 5.3831797093153,26.33100152015686 4.9042049795389175,24.192602932453156 4.766614735126495,21.878552436828613 4.927336424589157,19.504928588867188 5.344095826148987,17.187799513339996 5.974220857024193,15.043231844902039 7.39319771528244,16.296052932739258 8.693328499794006,17.93617159128189 9.79086235165596,19.86754983663559 10.601649433374405,21.994145214557648 11.041340976953506,24.219895899295807 11.025787144899368,26.44873857498169 10.470838844776154,28.58463227748871" stroke="white" stroke-width="0.1" /><polygon points="18.80483627319336,22.5664421916008 18.87064129114151,25.12202560901642 18.6628594994545,27.547717094421387 18.166735768318176,29.79229986667633 17.367713153362274,31.80454969406128 16.250239312648773,33.53324234485626 14.799955487251282,34.92715656757355 13.001307845115662,35.9350711107254 10.839740931987762,36.50575876235962 10.5027437210083,33.87552499771118 10.735251754522324,31.566432118415833 11.442746222019196,29.544749855995178 12.531107664108276,27.77673602104187 13.905815780162811,26.228642463684082 15.472753345966339,24.866721034049988 17.13699996471405,23.657234013080597" stroke="white" stroke-width="0.1" /><polygon points="9.734231233596802,41.814759373664856 7.617729902267456,41.16578996181488 5.857767164707184,40.159982442855835 4.428819939494133,38.82351219654083 3.304166719317436,37.18254566192627 2.457885257899761,35.26325523853302 1.8636537715792656,33.091819286346436 1.4955492690205574,30.694404244422913 1.3272500596940517,28.097182512283325 3.138260543346405,29.06610071659088 4.920357093214989,30.185815691947937 6.579220294952393,31.487467885017395 8.021128922700882,33.0021858215332 9.151764214038849,34.76112484931946 9.876806288957596,36.795446276664734 10.10233536362648,39.13626670837402" stroke="white" stroke-width="0.1" /><polygon points="18.141211569309235,32.96589255332947 18.864260613918304,35.21628379821777 19.220998883247375,37.611642479896545 19.208435714244843,40.03059267997742 18.823182582855225,42.35176146030426 18.062247335910797,44.453755021095276 16.922637820243835,46.21518850326538 15.400967001914978,47.51468300819397 13.49424123764038,48.230865597724915 12.639385461807251,45.9287166595459 12.409868091344833,43.68315041065216 12.698608636856079,41.522154211997986 13.397330045700073,39.473727345466614 14.39874917268753,37.565878033638 15.594789385795593,35.826629400253296 16.878171265125275,34.28397178649902" stroke="white" stroke-width="0.1" /><polygon points="12.610471248626709,50.22174119949341 9.991265833377838,50.32263994216919 7.7569156885147095,49.89585876464844 5.8639489114284515,49.02094006538391 4.268895834684372,47.777414321899414 2.9284847900271416,46.244800090789795 1.7990460619330406,44.502609968185425 0.8373081684112549,42.630383372306824 0.0,40.707653760910034 2.4044442921876907,41.068705916404724 4.672295227646828,41.5665477514267 6.753302365541458,42.2511100769043 8.597613871097565,43.17231774330139 10.1553775370121,44.38007473945618 11.376941949129105,45.92427909374237 12.21165806055069,47.85485863685608" stroke="white" stroke-width="0.1" /><polygon points="20.353826880455017,43.80722939968109 21.272891759872437,45.72576880455017 21.872906386852264,47.988560795784 22.13093787431717,50.42988061904907 22.023458778858185,52.884018421173096 21.52773290872574,55.1852285861969 20.620234310626984,57.167792320251465 19.27802860736847,58.665984869003296 17.47758686542511,59.514087438583374 16.353332996368408,57.526201009750366 15.85521548986435,55.40543794631958 15.881934762001038,53.22176218032837 16.33259356021881,51.04508996009827 17.10629165172577,48.945364356040955 18.101729452610016,46.99252545833588 19.21800673007965,45.25650441646576" stroke="white" stroke-width="0.1" /><polygon points="25.442683696746826,66.5938138961792 23.90027344226837,65.2163028717041 22.943320870399475,63.3769154548645 22.49525338411331,61.2149715423584 22.48009890317917,58.869802951812744 22.8212833404541,56.480735540390015 23.442834615707397,54.18711304664612 24.268178641796112,52.12825536727905 25.220942497253418,50.443482398986816 26.328247785568237,52.055156230926514 27.26326584815979,54.05856966972351 27.957597374916077,56.31600618362427 28.343847393989563,58.68973731994629 28.35341989994049,61.04208827018738 27.918514609336853,63.23536038398743 26.970934867858887,65.13183116912842" stroke="white" stroke-width="0.1" /><polygon points="15.485116839408875,58.62872004508972 12.89442628622055,59.01075601577759 10.622388124465942,58.80429744720459 8.634902536869049,58.110737800598145 6.897672265768051,57.03147649765015 5.376599356532097,55.66790699958801 4.037583991885185,54.121434688568115 2.846728079020977,52.49345302581787 1.7691349610686302,50.88536739349365 4.345468059182167,50.743263959884644 6.767858564853668,50.898897647857666 8.989845961332321,51.36198401451111 10.965566337108612,52.142226696014404 12.649156153202057,53.24931740760803 13.994152843952179,54.692959785461426 14.954894781112671,56.48285746574402" stroke="white" stroke-width="0.1" /><polygon points="35.84053814411163,71.90281748771667 34.00121331214905,71.16861343383789 32.53377974033356,69.95653510093689 31.419894099235535,68.34173798561096 30.641809105873108,66.39939546585083 30.181977152824402,64.20467495918274 30.021855235099792,61.83276176452637 30.14448881149292,59.358811378479004 30.531537532806396,56.857991218566895 32.00714588165283,57.99406170845032 33.46002399921417,59.4238817691803 34.78607535362244,61.106932163238525 35.879820585250854,63.002705574035645 36.636969447135925,65.07068872451782 36.95262968540192,67.27038025856018 36.72191500663757,69.56126093864441" stroke="white" stroke-width="0.1" /><polygon points="22.5664421916008,65.93019366264343 20.252129435539246,66.79462194442749 17.944397032260895,66.9953465461731 15.705659985542297,66.64589643478394 13.598929345607758,65.8598005771637 11.686620861291885,64.75058794021606 10.03134697675705,63.43179941177368 8.696120232343674,62.016963958740234 7.743355631828308,60.619598627090454 10.160163044929504,60.128581523895264 12.571386992931366,59.95891094207764 14.899659156799316,60.114896297454834 17.06680953502655,60.600852966308594 18.9948707818985,61.42106056213379 20.60607671737671,62.57981061935425 21.822457015514374,64.08141851425171" stroke="white" stroke-width="0.1" /><polygon points="50.0,75.2225399017334 47.385379672050476,75.04414319992065 45.206865668296814,74.42924976348877 43.40701997280121,73.43590259552002 41.9274240732193,72.12216258049011 40.71044623851776,70.54610252380371 39.69745934009552,68.76580119132996 38.83123695850372,66.83931350708008 38.053154945373535,64.82468247413635 40.386608242988586,65.28422832489014 42.591845989227295,65.8721387386322 44.61283087730408,66.64426922798157 46.393731236457825,67.65645146369934 47.87871241569519,68.96453499794006 49.01193976402283,70.62434554100037 49.737781286239624,72.69173264503479" stroke="white" stroke-width="0.1" /><polygon points="31.19516372680664,71.90281748771667 29.368600249290466,73.11221957206726 27.30194926261902,73.72167706489563 25.09491741657257,73.8188624382019 22.849000990390778,73.49148988723755 20.664502680301666,72.82722592353821 18.641722202301025,71.91380858421326 16.881759464740753,70.83891034126282 15.485116839408875,69.69020366668701 17.425940930843353,68.69068741798401 19.638754427433014,67.98978447914124 21.991154551506042,67.62048602104187 24.349933862686157,67.61577725410461 26.582491397857666,68.00865530967712 28.55621576309204,68.83212924003601 30.137908458709717,70.1191782951355" stroke="white" stroke-width="0.1" /><polygon points="40.92939496040344,75.2225399017334 40.86259305477142,75.44475197792053 40.64484238624573,75.78197121620178 40.321603417396545,76.19232535362244 39.938342571258545,76.6339361667633 39.540526270866394,77.06493139266968 39.17381763458252,77.44342684745789 38.88348340988159,77.7275562286377 38.7151837348938,77.87544131278992 37.293416261672974,78.64774465560913 35.65528988838196,79.1143536567688 33.87080132961273,79.31386232376099 32.01053738594055,79.28484678268433 30.144888162612915,79.06590104103088 28.344446420669556,78.69560122489929 26.67980194091797,78.21255326271057 25.220942497253418,77.65529751777649 26.132628321647644,76.92344784736633 27.1511971950531,76.1130154132843 28.275054693222046,75.28094053268433 29.502001404762268,74.48413372039795 30.82984983921051,73.77952933311462 32.25620687007904,73.2240617275238 33.77927243709564,72.87463545799255 35.397058725357056,72.78818488121033 35.95180809497833,72.85974621772766 36.71354055404663,73.0310320854187 37.597909569740295,73.28545451164246 38.52156102657318,73.60634803771973 39.40034508705139,73.97711873054504 40.150511264801025,74.38116669654846 40.68811237812042,74.80183839797974" stroke="white" stroke-width="0.1" /><polygon points="83.1860363483429,12.61206716299057 80.75507283210754,12.228221446275711 78.7157416343689,11.37813851237297 77.04212069511414,10.124556720256805 75.70749521255493,8.530214428901672 74.68533515930176,6.657848507165909 73.94932508468628,4.570199176669121 73.47314357757568,2.3300034925341606 73.23006987571716,0.0 75.09172558784485,0.9589711204171181 76.93822979927063,1.9333962351083755 78.6886215209961,3.003760799765587 80.26293516159058,4.250550270080566 81.58021569252014,5.754275247454643 82.56030082702637,7.595445960760117 83.1224262714386,9.854547679424286" stroke="white" stroke-width="0.1" /><polygon points="87.6112699508667,18.80483627319336 87.36719489097595,18.687959015369415 87.01663613319397,18.375015258789062 86.59688830375671,17.913563549518585 86.14383339881897,17.351162433624268 85.69457530975342,16.735370457172394 85.2855920791626,16.113746166229248 84.95337963104248,15.533846616744995 84.73502993583679,15.043231844902039 84.32026505470276,13.266269862651825 84.26123857498169,11.489257961511612 84.49075818061829,9.748812764883041 84.94141697883606,8.081549406051636 85.54601669311523,6.524059176445007 86.23735904693604,5.112933740019798 86.94823980331421,3.8847889751195908 87.6112699508667,2.876240387558937 88.11257481575012,4.046071320772171 88.69962692260742,5.3128886967897415 89.30941224098206,6.670486181974411 89.87852334976196,8.112657070159912 90.34413695335388,9.633193910121918 90.64304828643799,11.22589185833931 90.71164131164551,12.88454383611679 90.4875099658966,14.602941274642944 90.38621187210083,14.905914664268494 90.1680588722229,15.441420674324036 89.85459208488464,16.124950349330902 89.46754336357117,16.871988773345947 89.02825117111206,17.598015069961548 88.55805397033691,18.21850687265396 88.07867765426636,18.64895075559616" stroke="white" stroke-width="0.1" /><polygon points="86.28242611885071,22.78818190097809 83.64068269729614,22.643201053142548 81.44601583480835,21.97679728269577 79.65494394302368,20.868906378746033 78.22360396385193,19.39946711063385 77.1081268787384,17.6484152674675 76.26503705978394,15.695689618587494 75.65046548843384,13.621225953102112 75.22094249725342,11.504961550235748 77.25967764854431,12.259814888238907 79.24975156784058,13.063149154186249 81.12198114395142,13.984370231628418 82.80656933784485,15.092884004116058 84.23432111740112,16.45810753107071 85.33583879470825,18.149462342262268 86.04174256324768,20.2363520860672" stroke="white" stroke-width="0.1" /><polygon points="90.70765376091003,30.531537532806396 89.52916264533997,28.58463227748871 88.97421360015869,26.44873857498169 88.95865678787231,24.219895899295807 89.39834833145142,21.994145214557648 90.2091383934021,19.86754983663559 91.30666851997375,17.93617159128189 92.60700345039368,16.296052932739258 94.02577877044678,15.043231844902039 94.65590119361877,17.187799513339996 95.07266283035278,19.504928588867188 95.23358345031738,21.878552436828613 95.09579539299011,24.192602932453156 94.61702108383179,26.33100152015686 93.75419020652771,28.177669644355774 92.46522188186646,29.61653470993042" stroke="white" stroke-width="0.1" /><polygon points="89.16025757789612,36.50575876235962 86.9990885257721,35.9350711107254 85.20084023475647,34.92715656757355 83.75036120414734,33.53324234485626 82.63288736343384,31.80454969406128 81.83346390724182,29.79229986667633 81.33733868598938,27.547717094421387 81.12955689430237,25.12202560901642 81.19516372680664,22.5664421916008 82.86280035972595,23.657234013080597 84.52724814414978,24.866721034049988 86.09398603439331,26.228642463684082 87.46889233589172,27.77673602104187 88.55725526809692,29.544749855995178 89.26494717597961,31.566432118415833 89.4972562789917,33.87552499771118" stroke="white" stroke-width="0.1" /><polygon points="90.2657687664032,41.814759373664856 89.89766240119934,39.13628160953522 90.12339115142822,36.795446276664734 90.84823727607727,34.76112484931946 91.97887182235718,33.0021858215332 93.42077970504761,31.487467885017395 95.07984519004822,30.185815691947937 96.86173796653748,29.06610071659088 98.67274761199951,28.097182512283325 98.50444793701172,30.694404244422913 98.13634753227234,33.091819286346436 97.5421130657196,35.26325523853302 96.69583439826965,37.18254566192627 95.57117819786072,38.82351219654083 94.1420316696167,40.159982442855835 92.3824667930603,41.16578996181488" stroke="white" stroke-width="0.1" /><polygon points="81.85878992080688,32.96589255332947 83.12162756919861,34.28397178649902 84.40520763397217,35.826629400253296 85.60144901275635,37.565878033638 86.60266995429993,39.473727345466614 87.30139136314392,41.52214229106903 87.59013414382935,43.68315041065216 87.36081719398499,45.92872858047485 86.50575876235962,48.230865597724915 84.59903597831726,47.51468300819397 83.07735919952393,46.21518850326538 81.93775415420532,44.453755021095276 81.17681741714478,42.35176146030426 80.79156279563904,40.03059267997742 80.77900409698486,37.611642479896545 81.13573789596558,35.21627187728882" stroke="white" stroke-width="0.1" /><polygon points="100.0,40.707653760910034 99.16269183158875,42.630383372306824 98.20095300674438,44.502609968185425 97.07151651382446,46.244800090789795 95.73110342025757,47.777414321899414 94.13605332374573,49.02094006538391 92.2428846359253,49.89585876464844 90.00873565673828,50.32263994216919 87.38952875137329,50.22174119949341 87.78834342956543,47.85485863685608 88.62325549125671,45.92427909374237 89.84462022781372,44.38007473945618 91.40238761901855,43.17231774330139 93.2466983795166,42.2511100769043 95.3277051448822,41.5665477514267 97.59555459022522,41.068705916404724" stroke="white" stroke-width="0.1" /><polygon points="82.52241611480713,59.514087438583374 80.72217106819153,58.665984869003296 79.37976717948914,57.167792320251465 78.47246527671814,55.1852285861969 77.97654271125793,52.884018421173096 77.86906361579895,50.42988061904907 78.12709212303162,47.988560795784 78.72730493545532,45.72576880455017 79.64617013931274,43.80722939968109 80.78199028968811,45.25650441646576 81.8982720375061,46.99252545833588 82.89370536804199,48.945364356040955 83.66740345954895,51.04508996009827 84.11806225776672,53.221750259399414 84.14478302001953,55.40543794631958 83.64647030830383,57.526201009750366" stroke="white" stroke-width="0.1" /><polygon points="74.55731630325317,66.5938138961792 73.02906513214111,65.13183116912842 72.08148837089539,63.23536038398743 71.64657711982727,61.04210019111633 71.6561496257782,58.68973731994629 72.04239964485168,56.315988302230835 72.73693680763245,54.05856966972351 73.671954870224,52.055174112319946 74.77905750274658,50.443482398986816 75.73181986808777,52.12825536727905 76.55736804008484,54.18711304664612 77.1787166595459,56.480735540390015 77.51989960670471,58.869802951812744 77.50474810600281,61.2149715423584 77.05668210983276,63.3769154548645 76.09972953796387,65.2163028717041" stroke="white" stroke-width="0.1" /><polygon points="84.51488614082336,58.62872004508972 85.04510521888733,56.48285746574402 86.00584864616394,54.692959785461426 87.35084533691406,53.24930548667908 89.03443217277527,52.142226696014404 91.01015329360962,51.36199593544006 93.23233962059021,50.898897647857666 95.65452933311462,50.743263959884644 98.23086261749268,50.88536739349365 97.15347290039062,52.49345302581787 95.9624171257019,54.121434688568115 94.623202085495,55.66790699958801 93.10232996940613,57.03147649765015 91.36529564857483,58.110737800598145 89.37761187553406,58.80429744720459 87.10557222366333,59.01075601577759" stroke="white" stroke-width="0.1" /><polygon points="69.4684624671936,56.857991218566895 69.85530853271484,59.358811378479004 69.97794508934021,61.83276176452637 69.8182225227356,64.20467495918274 69.35818791389465,66.39939546585083 68.58010292053223,68.34173798561096 67.46622323989868,69.95653510093689 65.9985899925232,71.16861343383789 64.15945887565613,71.90281748771667 63.27788233757019,69.56126093864441 63.04737329483032,67.27038025856018 63.36303353309631,65.07068872451782 64.12017941474915,63.002705574035645 65.21392464637756,61.106932163238525 66.53997898101807,59.4238817691803 67.99285411834717,57.99406170845032" stroke="white" stroke-width="0.1" /><polygon points="77.43355631828308,65.93019366264343 78.17734479904175,64.08141851425171 79.39392328262329,62.57981061935425 81.00512623786926,61.42106056213379 82.93319344520569,60.600852966308594 85.10034084320068,60.114896297454834 87.42841482162476,59.95891094207764 89.83983397483826,60.128581523895264 92.25664138793945,60.619598627090454 91.30387902259827,62.016963958740234 89.96865153312683,63.43179941177368 88.31337690353394,64.75059986114502 86.40106916427612,65.8598005771637 84.29434299468994,66.64588451385498 82.05560445785522,66.9953465461731 79.74786758422852,66.79462194442749" stroke="white" stroke-width="0.1" /><polygon points="61.946845054626465,64.82468247413635 61.16876006126404,66.83931350708008 60.30253767967224,68.76580119132996 59.289753437042236,70.54610252380371 58.07257890701294,72.12216258049011 56.59297704696655,73.43590259552002 54.793137311935425,74.42924976348877 52.61482000350952,75.04414319992065 50.0,75.2225399017334 50.262218713760376,72.69173264503479 50.98785758018494,70.62434554100037 52.12128758430481,68.96453499794006 53.60626578330994,67.65645146369934 55.38716912269592,66.64426922798157 57.40795135498047,65.8721387386322 59.613388776779175,65.28422832489014" stroke="white" stroke-width="0.1" /><polygon points="68.80483627319336,71.90281748771667 69.86209154129028,70.1191782951355 71.44378423690796,68.83212924003601 73.41750860214233,68.00865530967712 75.65006613731384,67.61577725410461 78.0088484287262,67.62048602104187 80.36104440689087,67.98978447914124 82.57405757904053,68.69068741798401 84.51488614082336,69.69020366668701 83.11824202537537,70.83889842033386 81.35827779769897,71.91380858421326 79.33549880981445,72.82724380493164 77.15100049972534,73.49148988723755 74.90488290786743,73.8188624382019 72.69824743270874,73.72167706489563 70.63140273094177,73.11221957206726" stroke="white" stroke-width="0.1" /><polygon points="59.07060503959656,75.2225399017334 59.311890602111816,74.80183839797974 59.849488735198975,74.38116669654846 60.59965491294861,73.977130651474 61.47844195365906,73.60634803771973 62.40189075469971,73.28545451164246 63.28645944595337,73.0310320854187 64.04799222946167,72.85974621772766 64.60294127464294,72.78818488121033 66.22052788734436,72.87463545799255 67.7437961101532,73.2240617275238 69.17034983634949,73.77952933311462 70.4979956150055,74.48413372039795 71.72494530677795,75.28094053268433 72.8488028049469,76.1130154132843 73.86736869812012,76.92344784736633 74.77905750274658,77.65529751777649 73.32019805908203,78.21254134178162 71.65555357933044,78.69560122489929 69.85511183738708,79.06590104103088 67.98946261405945,79.28484678268433 66.1292016506195,79.31386232376099 64.34471011161804,79.1143536567688 62.70638704299927,78.64773273468018 61.2848162651062,77.87544131278992 61.11651659011841,77.7275562286377 60.82618236541748,77.44342684745789 60.45947074890137,77.06493139266968 60.061657428741455,76.6339361667633 59.67819690704346,76.19232535362244 59.35515761375427,75.78197121620178 59.137409925460815,75.44475197792053" stroke="white" stroke-width="0.1" /><polygon points="50.0,77.47503519058228 51.98947787284851,76.91158652305603 54.01305556297302,76.8154501914978 56.01828694343567,77.11570262908936 57.95313119888306,77.74144411087036 59.76513624191284,78.6217212677002 61.40127182006836,79.68560457229614 62.81047463417053,80.86217641830444 63.9393150806427,82.0805311203003 62.20627427101135,82.6836347579956 60.34361720085144,83.09022188186646 58.41435790061951,83.29057693481445 56.48270845413208,83.27497243881226 54.611873626708984,83.03369283676147 52.865469455718994,82.55701065063477 51.307111978530884,81.8352222442627 50.0,80.85856437683105 48.69309067726135,81.83521032333374 47.13492691516876,82.55701065063477 45.38852274417877,83.03369283676147 43.51789057254791,83.27497243881226 41.58623814582825,83.29057693481445 39.65718150138855,83.09022188186646 37.79412508010864,82.68362283706665 36.06068193912506,82.0805311203003 37.18952536582947,80.86217641830444 38.59853148460388,79.68560457229614 40.23506045341492,78.6217212677002 42.04686880111694,77.74144411087036 43.981510400772095,77.11570262908936 45.98694145679474,76.8154501914978 48.01071882247925,76.91158652305603" stroke="white" stroke-width="0.1" /></svg>