<?xml version="1.0" encoding="utf-8" ?>
<svg baseProfile="full" height="90.63103199005127" version="1.1" width="99.99457597732544" xmlns="http://www.w3.org/2000/svg" xmlns:ev="http://www.w3.org/2001/xml-events" xmlns:xlink="http://www.w3.org/1999/xlink"><defs><clipPath /></defs><polygon points="98.580002784729,79.25955057144165 98.580002784729,79.25955057144165 98.580002784729,79.25955057144165 98.580002784729,79.25955057144165 99.19012784957886,80.50348162651062 99.19012784957886,80.50348162651062 99.65036511421204,81.81923627853394 99.65036511421204,81.81923627853394 99.9290406703949,83.16929936408997 99.9290406703949,83.16929936408997 99.99457597732544,84.5162570476532 99.99457597732544,84.5162570476532 99.81539249420166,85.82249879837036 99.81539249420166,85.82249879837036 99.35994148254395,87.0503842830658 99.35994148254395,87.0503842830658 98.59660267829895,88.16274404525757 98.59660267829895,88.16274404525757 97.49375581741333,89.12162184715271 97.49375581741333,89.12162184715271 96.823650598526,89.52309489250183 96.823650598526,89.52309489250183 96.1233913898468,89.84622359275818 96.1233913898468,89.84622359275818 95.39818167686462,90.09875059127808 95.39818167686462,90.09875059127808 94.65309977531433,90.28809666633606 94.65309977531433,90.28809666633606 93.89336109161377,90.42210578918457 93.89336109161377,90.42210578918457 93.12404990196228,90.50841927528381 93.12404990196228,90.50841927528381 92.35033988952637,90.55445194244385 92.35033988952637,90.55445194244385 91.57739877700806,90.56817293167114 91.57739877700806,90.56817293167114 13.412949442863464,90.56817293167114 13.412949442863464,90.56817293167114 11.8983656167984,90.59296250343323 11.8983656167984,90.59296250343323 10.293040424585342,90.63103199005127 10.293040424585342,90.63103199005127 8.644363284111023,90.62771201133728 8.644363284111023,90.62771201133728 6.999614834785461,90.52811861038208 6.999614834785461,90.52811861038208 5.40621280670166,90.27780294418335 5.40621280670166,90.27780294418335 3.911520168185234,89.82199430465698 3.911520168185234,89.82199430465698 2.562844194471836,89.10601735115051 2.562844194471836,89.10601735115051 1.4076028019189835,88.07521462440491 1.4076028019189835,88.07521462440491 0.4489500541239977,86.57000660896301 0.4489500541239977,86.57000660896301 0.034858088474720716,84.99530553817749 0.034858088474720716,84.99530553817749 0.06866490002721548,83.37811231613159 0.06866490002721548,83.37811231613159 0.45359781943261623,81.74542784690857 0.45359781943261623,81.74542784690857 1.0929394513368607,80.12436032295227 1.0929394513368607,80.12436032295227 1.8900277093052864,78.54202389717102 1.8900277093052864,78.54202389717102 2.748062275350094,77.02531218528748 2.748062275350094,77.02531218528748 3.570353612303734,75.60155391693115 3.570353612303734,75.60155391693115 24.32408481836319,38.836559653282166 24.32408481836319,38.836559653282166 42.91772246360779,5.898652598261833 42.91772246360779,5.898652598261833 43.236976861953735,5.332845076918602 43.236976861953735,5.332845076918602 43.55991184711456,4.770135879516602 43.55991184711456,4.770135879516602 43.89233589172363,4.214619472622871 43.89233589172363,4.214619472622871 44.24011707305908,3.6699481308460236 44.24011707305908,3.6699481308460236 44.609057903289795,3.1405478715896606 44.609057903289795,3.1405478715896606 45.00497281551361,2.6301810517907143 45.00497281551361,2.6301810517907143 45.43372988700867,2.143053151667118 45.43372988700867,2.143053151667118 45.90113162994385,1.6829263418912888 45.90113162994385,1.6829263418912888 47.37385809421539,0.6351918447762728 47.37385809421539,0.6351918447762728 48.868054151535034,0.09926256025210023 48.868054151535034,0.09926256025210023 50.35110116004944,0.021689476852770895 50.35110116004944,0.021689476852770895 51.79038047790527,0.3490235423669219 51.79038047790527,0.3490235423669219 53.153276443481445,1.0274836793541908 53.153276443481445,1.0274836793541908 54.407113790512085,2.003399468958378 54.407113790512085,2.003399468958378 55.519336462020874,3.223321959376335 55.519336462020874,3.223321959376335 56.45726919174194,4.633580520749092 56.45726919174194,4.633580520749092 61.331647634506226,13.269533216953278 61.331647634506226,13.269533216953278" stroke="white" stroke-width="0.1" /><polygon points="55.82074522972107,80.30241131782532 55.82074522972107,80.30241131782532 55.82074522972107,80.30241131782532 55.82074522972107,80.30241131782532 55.912595987319946,79.17688488960266 55.912595987319946,79.17688488960266 56.07576370239258,77.64279842376709 56.07576370239258,77.64279842376709 56.22527003288269,75.87211728096008 56.22527003288269,75.87211728096008 56.276118755340576,74.0374743938446 56.276118755340576,74.0374743938446 56.14332556724548,72.31072783470154 56.14332556724548,72.31072783470154 55.74195981025696,70.86405754089355 55.74195981025696,70.86405754089355 54.98697757720947,69.86977458000183 54.98697757720947,69.86977458000183 53.79344820976257,69.50016617774963 53.79344820976257,69.50016617774963 52.655965089797974,69.44450736045837 52.655965089797974,69.44450736045837 51.1993944644928,69.33262944221497 51.1993944644928,69.33262944221497 49.57096874713898,69.24708485603333 49.57096874713898,69.24708485603333 47.91781008243561,69.27010416984558 47.91781008243561,69.27010416984558 46.38715386390686,69.48423385620117 46.38715386390686,69.48423385620117 45.12622952461243,69.97180581092834 45.12622952461243,69.97180581092834 44.28216814994812,70.81547975540161 44.28216814994812,70.81547975540161 44.002196192741394,72.0975935459137 44.002196192741394,72.0975935459137 44.028034806251526,72.895348072052 44.028034806251526,72.895348072052 44.05370652675629,73.69309663772583 44.05370652675629,73.69309663772583 44.07932460308075,74.49085116386414 44.07932460308075,74.49085116386414 44.104889035224915,75.28849244117737 44.104889035224915,75.28849244117737 44.13045048713684,76.0861337184906 44.13045048713684,76.0861337184906 44.156068563461304,76.88366174697876 44.156068563461304,76.88366174697876 44.18177008628845,77.68130898475647 44.18177008628845,77.68130898475647 44.207581877708435,78.47872376441956 44.207581877708435,78.47872376441956 44.22105550765991,79.08525466918945 44.22105550765991,79.08525466918945 44.24155354499817,79.72498536109924 44.24155354499817,79.72498536109924 44.2950576543808,80.37179708480835 44.2950576543808,80.37179708480835 44.407546520233154,81.00001811981201 44.407546520233154,81.00001811981201 44.60499286651611,81.58364295959473 44.60499286651611,81.58364295959473 44.91331875324249,82.09644556045532 44.91331875324249,82.09644556045532 45.35856246948242,82.51296877861023 45.35856246948242,82.51296877861023 45.96664309501648,82.80688524246216 45.96664309501648,82.80688524246216 46.703532338142395,82.98272490501404 46.703532338142395,82.98272490501404 47.50404953956604,83.07390809059143 47.50404953956604,83.07390809059143 48.348334431648254,83.09925198554993 48.348334431648254,83.09925198554993 49.216634035110474,83.07778239250183 49.216634035110474,83.07778239250183 50.0891387462616,83.02831649780273 50.0891387462616,83.02831649780273 50.94597935676575,82.96944499015808 50.94597935676575,82.96944499015808 51.76746845245361,82.92042016983032 51.76746845245361,82.92042016983032 52.53368616104126,82.89983868598938 52.53368616104126,82.89983868598938 53.16998362541199,82.87084698677063 53.16998362541199,82.87084698677063 53.769099712371826,82.777339220047 53.769099712371826,82.777339220047 54.31742072105408,82.60924220085144 54.31742072105408,82.60924220085144 54.801344871520996,82.35671520233154 54.801344871520996,82.35671520233154 55.20724654197693,82.00968503952026 55.20724654197693,82.00968503952026 55.52152395248413,81.55829906463623 55.52152395248413,81.55829906463623 55.730557441711426,80.99249005317688 55.730557441711426,80.99249005317688" stroke="white" stroke-width="0.1" /><polygon points="56.34837746620178,63.821953535079956 56.34837746620178,63.821953535079956 56.34837746620178,63.821953535079956 56.34837746620178,63.821953535079956 57.37619400024414,31.746312975883484 57.37619400024414,31.746312975883484 57.633811235427856,23.727403581142426 57.633811235427856,23.727403581142426 57.62036442756653,23.019175231456757 57.62036442756653,23.019175231456757 57.52719044685364,22.35155999660492 57.52719044685364,22.35155999660492 57.344818115234375,21.74115628004074 57.344818115234375,21.74115628004074 57.06368684768677,21.204562485218048 57.06368684768677,21.204562485218048 56.674325466156006,20.758378505706787 56.674325466156006,20.758378505706787 56.16728067398071,20.41909396648407 56.16728067398071,20.41909396648407 55.53297400474548,20.203526318073273 55.53297400474548,20.203526318073273 54.76194620132446,20.127834379673004 54.76194620132446,20.127834379673004 47.21223711967468,20.127834379673004 47.21223711967468,20.127834379673004 46.593451499938965,20.12108415365219 46.593451499938965,20.12108415365219 45.95358371734619,20.117653906345367 45.95358371734619,20.117653906345367 45.31078338623047,20.142774283885956 45.31078338623047,20.142774283885956 44.68308985233307,20.221786201000214 44.68308985233307,20.221786201000214 44.08864974975586,20.380030572414398 44.08864974975586,20.380030572414398 43.54555308818817,20.642849802970886 43.54555308818817,20.642849802970886 43.07189881801605,21.03547304868698 43.07189881801605,21.03547304868698 42.68577694892883,21.58324271440506 42.68577694892883,21.58324271440506 42.41095185279846,22.317808866500854 42.41095185279846,22.317808866500854 42.27021932601929,23.172108829021454 42.27021932601929,23.172108829021454 42.23450422286987,24.109293520450592 42.23450422286987,24.109293520450592 42.27478206157684,25.092068314552307 42.27478206157684,25.092068314552307 42.36193001270294,26.083478331565857 42.36193001270294,26.083478331565857 42.466917634010315,27.046558260917664 42.466917634010315,27.046558260917664 42.560648918151855,27.944013476371765 42.560648918151855,27.944013476371765 42.6140695810318,28.738999366760254 42.6140695810318,28.738999366760254 42.8708016872406,36.75791025161743 42.8708016872406,36.75791025161743 43.38515102863312,52.79573202133179 43.38515102863312,52.79573202133179 43.64188313484192,60.81463694572449 43.64188313484192,60.81463694572449 43.646976351737976,61.5550696849823 43.646976351737976,61.5550696849823 43.643322587013245,62.360680103302 43.643322587013245,62.360680103302 43.669384717941284,63.19162845611572 43.669384717941284,63.19162845611572 43.76361072063446,64.0077531337738 43.76361072063446,64.0077531337738 43.96440386772156,64.76931571960449 43.96440386772156,64.76931571960449 44.31016445159912,65.43616056442261 44.31016445159912,65.43616056442261 44.839343428611755,65.96854329109192 44.839343428611755,65.96854329109192 45.59039771556854,66.32642149925232 45.59039771556854,66.32642149925232 46.422481536865234,66.50934219360352 46.422481536865234,66.50934219360352 47.316426038742065,66.6038453578949 47.316426038742065,66.6038453578949 48.25297296047211,66.6297435760498 48.25297296047211,66.6297435760498 49.21287000179291,66.60661697387695 49.21287000179291,66.60661697387695 50.17686486244202,66.5542721748352 50.17686486244202,66.5542721748352 51.1257529258728,66.4924144744873 51.1257529258728,66.4924144744873 52.0402193069458,66.44095778465271 52.0402193069458,66.44095778465271 52.90107727050781,66.41937494277954 52.90107727050781,66.41937494277954 53.53964567184448,66.39137864112854 53.53964567184448,66.39137864112854 54.15469408035278,66.30008220672607 54.15469408035278,66.30008220672607 54.728275537490845,66.13487005233765 54.728275537490845,66.13487005233765 55.242544412612915,65.88488817214966 55.242544412612915,65.88488817214966 55.679601430892944,65.53929448127747 55.679601430892944,65.53929448127747 56.02148771286011,65.0874674320221 56.02148771286011,65.0874674320221 56.25041723251343,64.5186722278595 56.25041723251343,64.5186722278595" stroke="white" stroke-width="0.1" /><polygon points="98.580002784729,79.25955057144165 56.34837746620178,63.821953535079956 56.34837746620178,63.821953535079956 57.37619400024414,31.746312975883484 57.633811235427856,23.727403581142426 57.62036442756653,23.019175231456757 57.52719044685364,22.35155999660492 57.344818115234375,21.74115628004074 57.06368684768677,21.204562485218048 56.674325466156006,20.758378505706787 56.16728067398071,20.41909396648407 55.53297400474548,20.203526318073273 54.76194620132446,20.127834379673004 47.21223711967468,20.127834379673004 46.593451499938965,20.12108415365219 45.95358371734619,20.117653906345367 45.31078338623047,20.142774283885956 44.68308985233307,20.221786201000214 44.08864974975586,20.380030572414398 43.54555308818817,20.642849802970886 43.07189881801605,21.03547304868698 42.68577694892883,21.58324271440506 42.41095185279846,22.317808866500854 42.27021932601929,23.172108829021454 42.23450422286987,24.109293520450592 42.27478206157684,25.092068314552307 42.36193001270294,26.083478331565857 42.466917634010315,27.046558260917664 42.560648918151855,27.944013476371765 42.6140695810318,28.738999366760254 42.8708016872406,36.75791025161743 43.38515102863312,52.79573202133179 43.64188313484192,60.81463694572449 43.646976351737976,61.5550696849823 43.643322587013245,62.360680103302 43.669384717941284,63.19162845611572 43.76361072063446,64.0077531337738 43.96440386772156,64.76931571960449 44.31016445159912,65.43616056442261 44.839343428611755,65.96854329109192 45.59039771556854,66.32642149925232 46.422481536865234,66.50934219360352 47.316426038742065,66.6038453578949 48.25297296047211,66.6297435760498 49.21287000179291,66.60661697387695 50.17686486244202,66.5542721748352 51.1257529258728,66.4924144744873 52.0402193069458,66.44095778465271 52.90107727050781,66.41937494277954 53.53964567184448,66.39137864112854 54.15469408035278,66.30008220672607 54.728275537490845,66.13487005233765 55.242544412612915,65.88488817214966 55.679601430892944,65.53929448127747 56.02148771286011,65.0874674320221 56.25041723251343,64.5186722278595 56.34837746620178,63.821953535079956 98.580002784729,79.25955057144165 98.580002784729,79.25955057144165 99.19012784957886,80.50348162651062 99.65036511421204,81.81923627853394 99.9290406703949,83.16929936408997 55.82074522972107,80.30241131782532 55.82074522972107,80.30241131782532 55.912595987319946,79.17688488960266 56.07576370239258,77.64279842376709 56.22527003288269,75.87211728096008 56.276118755340576,74.0374743938446 56.14332556724548,72.31072783470154 55.74195981025696,70.86405754089355 54.98697757720947,69.86977458000183 53.79344820976257,69.50016617774963 52.655965089797974,69.44450736045837 51.1993944644928,69.33262944221497 49.57096874713898,69.24708485603333 47.91781008243561,69.27010416984558 46.38715386390686,69.48423385620117 45.12622952461243,69.97180581092834 44.28216814994812,70.81547975540161 44.002196192741394,72.0975935459137 44.028034806251526,72.895348072052 44.05370652675629,73.69309663772583 44.07932460308075,74.49085116386414 44.104889035224915,75.28849244117737 44.13045048713684,76.0861337184906 44.156068563461304,76.88366174697876 44.18177008628845,77.68130898475647 44.207581877708435,78.47872376441956 44.22105550765991,79.08525466918945 44.24155354499817,79.72498536109924 44.2950576543808,80.37179708480835 44.407546520233154,81.00001811981201 44.60499286651611,81.58364295959473 44.91331875324249,82.09644556045532 45.35856246948242,82.51296877861023 45.96664309501648,82.80688524246216 46.703532338142395,82.98272490501404 47.50404953956604,83.07390809059143 48.348334431648254,83.09925198554993 49.216634035110474,83.07778239250183 50.0891387462616,83.02831649780273 50.94597935676575,82.96944499015808 51.76746845245361,82.92042016983032 52.53368616104126,82.89983868598938 53.16998362541199,82.87084698677063 53.769099712371826,82.777339220047 54.31742072105408,82.60924220085144 54.801344871520996,82.35671520233154 55.20724654197693,82.00968503952026 55.52152395248413,81.55829906463623 55.730557441711426,80.99249005317688 55.82074522972107,80.30241131782532 99.9290406703949,83.16929936408997 99.99457597732544,84.5162570476532 99.81539249420166,85.82249879837036 99.35994148254395,87.0503842830658 98.59660267829895,88.16274404525757 97.49375581741333,89.12162184715271 96.823650598526,89.52309489250183 96.1233913898468,89.84622359275818 95.39818167686462,90.09875059127808 94.65309977531433,90.28809666633606 93.89336109161377,90.42210578918457 93.12404990196228,90.50841927528381 92.35033988952637,90.55445194244385 91.57739877700806,90.56817293167114 13.412949442863464,90.56817293167114 11.8983656167984,90.59296250343323 10.293040424585342,90.63103199005127 8.644363284111023,90.62771201133728 6.999614834785461,90.52811861038208 5.40621280670166,90.27780294418335 3.911520168185234,89.82199430465698 2.562844194471836,89.10601735115051 1.4076028019189835,88.07521462440491 0.4489500541239977,86.57000660896301 0.034858088474720716,84.99530553817749 0.06866490002721548,83.37811231613159 0.45359781943261623,81.74542784690857 1.0929394513368607,80.12436032295227 1.8900277093052864,78.54202389717102 2.748062275350094,77.02531218528748 3.570353612303734,75.60155391693115 24.32408481836319,38.836559653282166 42.91772246360779,5.898652598261833 43.236976861953735,5.332845076918602 43.55991184711456,4.770135879516602 43.89233589172363,4.214619472622871 44.24011707305908,3.6699481308460236 44.609057903289795,3.1405478715896606 45.00497281551361,2.6301810517907143 45.43372988700867,2.143053151667118 45.90113162994385,1.6829263418912888 47.37385809421539,0.6351918447762728 48.868054151535034,0.09926256025210023 50.35110116004944,0.021689476852770895 51.79038047790527,0.3490235423669219 53.153276443481445,1.0274836793541908 54.407113790512085,2.003399468958378 55.519336462020874,3.223321959376335 56.45726919174194,4.633580520749092 61.331647634506226,13.269533216953278" stroke="white" stroke-width="0.1" /></svg>