<?xml version="1.0" encoding="utf-8" ?>
<svg baseProfile="full" height="100.0" version="1.1" width="100.0" xmlns="http://www.w3.org/2000/svg" xmlns:ev="http://www.w3.org/2001/xml-events" xmlns:xlink="http://www.w3.org/1999/xlink"><defs><clipPath /></defs><polygon points="100.0,50.0 100.0,50.0 98.98393154144287,60.076904296875 98.98393154144287,60.076904296875 96.07066512107849,69.4623351097107 96.07066512107849,69.4623351097107 91.46062731742859,77.95565724372864 91.46062731742859,77.95565724372864 85.35511493682861,85.35544872283936 85.35511493682861,85.35544872283936 77.95521020889282,91.46084785461426 77.95521020889282,91.46084785461426 69.46200132369995,96.07077836990356 69.46200132369995,96.07077836990356 60.07657051086426,98.98415207862854 60.07657051086426,98.98415207862854 50.0,100.0 50.0,100.0 39.923205971717834,98.98426532745361 39.923205971717834,98.98426532745361 30.53799569606781,96.07066512107849 30.53799569606781,96.07066512107849 22.04478830099106,91.46084785461426 22.04478830099106,91.46084785461426 14.644886553287506,85.35544872283936 14.644886553287506,85.35544872283936 8.53937342762947,77.95565724372864 8.53937342762947,77.95565724372864 3.9293322712183,69.4623351097107 3.9293322712183,69.4623351097107 1.0158469900488853,60.07679104804993 1.0158469900488853,60.07679104804993 0.0,50.0 0.0,50.0 1.015624962747097,39.92331624031067 1.015624962747097,39.92331624031067 3.9293322712183,30.537554621696472 3.9293322712183,30.537554621696472 8.53937342762947,22.044456005096436 8.53937342762947,22.044456005096436 14.644886553287506,14.644552767276764 14.644886553287506,14.644552767276764 22.04478830099106,8.539040386676788 22.04478830099106,8.539040386676788 30.53799569606781,3.9291106164455414 30.53799569606781,3.9291106164455414 39.92342948913574,1.0158469900488853 39.92342948913574,1.0158469900488853 50.0,0.0 50.0,0.0 60.07634997367859,1.0158469900488853 60.07634997367859,1.0158469900488853 69.46200132369995,3.9291106164455414 69.46200132369995,3.9291106164455414 77.95521020889282,8.539151400327682 77.95521020889282,8.539151400327682 85.35511493682861,14.644552767276764 85.35511493682861,14.644552767276764 91.46062731742859,22.04434424638748 91.46062731742859,22.04434424638748 96.07066512107849,30.537664890289307 96.07066512107849,30.537664890289307 98.98415207862854,39.923205971717834 98.98415207862854,39.923205971717834" stroke="white" stroke-width="0.1" /><polygon points="50.0,11.7649145424366 50.0,11.7649145424366 57.70530104637146,12.541726231575012 57.70530104637146,12.541726231575012 64.88236784934998,14.769619703292847 64.88236784934998,14.769619703292847 71.37695550918579,18.294788897037506 71.37695550918579,18.294788897037506 77.03568935394287,22.963644564151764 77.03568935394287,22.963644564151764 81.7047655582428,28.62226963043213 81.7047655582428,28.62226963043213 85.23015975952148,35.11707782745361 85.23015975952148,35.11707782745361 87.45827674865723,42.29425489902496 87.45827674865723,42.29425489902496 88.23508620262146,50.0 88.23508620262146,50.0 87.45827674865723,57.7057421207428 87.45827674865723,57.7057421207428 85.22993326187134,64.88303542137146 85.22993326187134,64.88303542137146 81.7047655582428,71.37795090675354 81.7047655582428,71.37795090675354 77.03568935394287,77.0367980003357 77.03568935394287,77.0367980003357 71.37672901153564,81.70576691627502 71.37672901153564,81.70576691627502 64.8821473121643,85.23115515708923 64.8821473121643,85.23115515708923 57.70530104637146,87.45916485786438 57.70530104637146,87.45916485786438 50.0,88.23597431182861 50.0,88.23597431182861 42.29381084442139,87.45916485786438 42.29381084442139,87.45916485786438 35.116299986839294,85.23115515708923 35.116299986839294,85.23115515708923 28.62149178981781,81.70587420463562 28.62149178981781,81.70587420463562 22.96297997236252,77.0367980003357 22.96297997236252,77.0367980003357 18.294566869735718,71.37784361839294 18.294566869735718,71.37784361839294 14.769397675991058,64.88303542137146 14.769397675991058,64.88303542137146 12.541504204273224,57.7057421207428 12.541504204273224,57.7057421207428 11.7649145424366,50.0 11.7649145424366,50.0 12.541726231575012,42.29425489902496 12.541726231575012,42.29425489902496 14.76917564868927,35.11707782745361 14.76917564868927,35.11707782745361 18.29434484243393,28.62226963043213 18.29434484243393,28.62226963043213 22.96297997236252,22.963644564151764 22.96297997236252,22.963644564151764 28.62149178981781,18.294788897037506 28.62149178981781,18.294788897037506 35.116299986839294,14.769509434700012 35.116299986839294,14.769509434700012 42.29381084442139,12.541836500167847 42.29381084442139,12.541836500167847" stroke="white" stroke-width="0.1" /><polygon points="65.87358117103577,61.159443855285645 65.87358117103577,61.159443855285645 65.69780111312866,60.9832227230072 65.69780111312866,60.9832227230072 65.52157402038574,60.80777049064636 65.52157402038574,60.80777049064636 65.34534692764282,60.63332557678223 65.34534692764282,60.63332557678223 65.16912579536438,60.45976281166077 65.16912579536438,60.45976281166077 64.99311923980713,60.287195444107056 64.99311923980713,60.287195444107056 64.81733918190002,60.11563539505005 64.81733918190002,60.11563539505005 64.64200019836426,59.94495749473572 64.64200019836426,59.94495749473572 64.46732878684998,59.77538824081421 64.46732878684998,59.77538824081421 59.77272987365723,64.46732878684998 59.77272987365723,64.46732878684998 59.94251370429993,64.64255452156067 59.94251370429993,64.64255452156067 60.11297106742859,64.81822729110718 60.11297106742859,64.81822729110718 60.28475761413574,64.99400734901428 60.28475761413574,64.99400734901428 60.45721173286438,65.17012119293213 60.45721173286438,65.17012119293213 60.63076853752136,65.34645557403564 60.63076853752136,65.34645557403564 60.805439949035645,65.52290320396423 60.805439949035645,65.52290320396423 60.98099946975708,65.69957137107849 60.98099946975708,65.69957137107849 61.15766763687134,65.87624549865723 61.15766763687134,65.87624549865723 62.29603290557861,67.06187725067139 62.29603290557861,67.06187725067139 63.36581110954285,68.26061010360718 63.36581110954285,68.26061010360718 64.37322497367859,69.45889592170715 64.37322497367859,69.45889592170715 65.32448530197144,70.64253091812134 65.32448530197144,70.64253091812134 66.22558832168579,71.79765105247498 66.22558832168579,71.79765105247498 67.08273887634277,72.91026711463928 67.08273887634277,72.91026711463928 67.90216565132141,73.96639585494995 67.90216565132141,73.96639585494995 68.68963241577148,74.95205998420715 68.68963241577148,74.95205998420715 68.79838705062866,75.0842273235321 68.79838705062866,75.0842273235321 68.90669465065002,75.2148449420929 68.90669465065002,75.2148449420929 69.01456117630005,75.34368634223938 69.01456117630005,75.34368634223938 69.12153959274292,75.47052502632141 69.12153959274292,75.47052502632141 69.22829151153564,75.59570074081421 69.22829151153564,75.59570074081421 69.3341612815857,75.71888566017151 69.3341612815857,75.71888566017151 69.44003105163574,75.84017515182495 69.44003105163574,75.84017515182495 69.54545378684998,75.95969438552856 69.54545378684998,75.95969438552856 69.57763433456421,75.93583464622498 69.57763433456421,75.93583464622498 69.60982084274292,75.91219544410706 69.60982084274292,75.91219544410706 69.64244246482849,75.88844895362854 69.64244246482849,75.88844895362854 69.67507004737854,75.8649230003357 69.67507004737854,75.8649230003357 69.70769762992859,75.84117650985718 69.70769762992859,75.84117650985718 69.74009871482849,75.81743001937866 69.74009871482849,75.81743001937866 69.77250576019287,75.79323649406433 69.77250576019287,75.79323649406433 69.8046863079071,75.76882243156433 69.8046863079071,75.76882243156433 70.66295146942139,75.08467435836792 70.66295146942139,75.08467435836792 71.49747014045715,74.3725597858429 71.49747014045715,74.3725597858429 72.30779528617859,73.63348007202148 72.30779528617859,73.63348007202148 73.09303879737854,72.86787629127502 73.09303879737854,72.86787629127502 73.85231852531433,72.07652926445007 73.85231852531433,72.07652926445007 74.58474040031433,71.2597668170929 74.58474040031433,71.2597668170929 75.28963685035706,70.41859030723572 75.28963685035706,70.41859030723572 75.96591114997864,69.55344676971436 75.96591114997864,69.55344676971436 75.84517002105713,69.44690942764282 75.84517002105713,69.44690942764282 75.72287917137146,69.34015154838562 75.72287917137146,69.34015154838562 75.59881210327148,69.23295259475708 75.59881210327148,69.23295259475708 75.47274231910706,69.12519931793213 75.47274231910706,69.12519931793213 75.3449022769928,69.01699900627136 75.3449022769928,69.01699900627136 75.21528601646423,68.90835762023926 75.21528601646423,68.90835762023926 75.08389353752136,68.79926919937134 75.08389353752136,68.79926919937134 74.95028376579285,68.68963241577148 74.95028376579285,68.68963241577148 73.96484613418579,67.90261268615723 73.96484613418579,67.90261268615723 72.90904521942139,67.08362698554993 72.90904521942139,67.08362698554993 71.79620862007141,66.22669696807861 71.79620862007141,66.22669696807861 70.64098119735718,65.32570719718933 70.64098119735718,65.32570719718933 69.45711970329285,64.37444686889648 69.45711970329285,64.37444686889648 68.2586133480072,63.36714029312134 68.2586133480072,63.36714029312134 67.05943942070007,62.29747533798218 67.05943942070007,62.29747533798218" stroke="white" stroke-width="0.1" /><polygon points="34.12286937236786,38.84055316448212 34.12286937236786,38.84055316448212 34.299761056900024,39.01678025722504 34.299761056900024,39.01678025722504 34.47665274143219,39.19233977794647 34.47665274143219,39.19233977794647 34.65287685394287,39.36667740345001 34.65287685394287,39.36667740345001 34.82910096645355,39.5401269197464 34.82910096645355,39.5401269197464 35.005104541778564,39.71258103847504 35.005104541778564,39.71258103847504 35.18110811710358,39.88392353057861 35.18110811710358,39.88392353057861 35.35688817501068,40.05437791347504 35.35688817501068,40.05437791347504 35.532671213150024,40.2237206697464 35.532671213150024,40.2237206697464 40.2237206697464,35.532671213150024 40.2237206697464,35.532671213150024 40.05415439605713,35.35733222961426 40.05415439605713,35.35733222961426 39.88347947597504,35.18177270889282 39.88347947597504,35.18177270889282 39.71191346645355,35.00588238239288 39.71191346645355,35.00588238239288 39.539238810539246,34.82987880706787 39.539238810539246,34.82987880706787 39.365679025650024,34.65354144573212 39.365679025650024,34.65354144573212 39.19100761413574,34.47709381580353 39.19100761413574,34.47709381580353 39.01544809341431,34.300535917282104 39.01544809341431,34.300535917282104 38.83877694606781,34.12375748157501 38.83877694606781,34.12375748157501 37.701526284217834,32.93812274932861 37.701526284217834,32.93812274932861 36.63219213485718,31.739279627799988 36.63219213485718,31.739279627799988 35.624998807907104,30.541104078292847 35.624998807907104,30.541104078292847 34.67373847961426,29.35768961906433 34.67373847961426,29.35768961906433 33.77263844013214,28.2027930021286 33.77263844013214,28.2027930021286 32.91548192501068,27.090510725975037 32.91548192501068,27.090510725975037 32.096946239471436,26.034823060035706 32.096946239471436,26.034823060035706 31.310370564460754,25.049716234207153 31.310370564460754,25.049716234207153 31.201171875,24.91721361875534 31.201171875,24.91721361875534 31.09264075756073,24.786376953125 31.09264075756073,24.786376953125 30.984553694725037,24.6574267745018 30.984553694725037,24.6574267745018 30.876687169075012,24.530473351478577 30.876687169075012,24.530473351478577 30.769488215446472,24.40529614686966 30.769488215446472,24.40529614686966 30.66273033618927,24.282003939151764 30.66273033618927,24.282003939151764 30.556640028953552,24.160711467266083 30.556640028953552,24.160711467266083 30.45099377632141,24.04119372367859 30.45099377632141,24.04119372367859 30.414816737174988,24.068380892276764 30.414816737174988,24.068380892276764 30.378419160842896,24.095237255096436 30.378419160842896,24.095237255096436 30.342018604278564,24.121981859207153 30.342018604278564,24.121981859207153 30.305397510528564,24.148836731910706 30.305397510528564,24.148836731910706 30.268776416778564,24.175693094730377 30.268776416778564,24.175693094730377 30.232155323028564,24.202769994735718 30.232155323028564,24.202769994735718 30.19597828388214,24.230068922042847 30.19597828388214,24.230068922042847 30.159801244735718,24.257811903953552 30.159801244735718,24.257811903953552 29.306861758232117,24.939852952957153 29.306861758232117,24.939852952957153 28.477007150650024,25.649192929267883 28.477007150650024,25.649192929267883 27.671119570732117,26.385498046875 27.671119570732117,26.385498046875 26.890093088150024,27.147772908210754 26.890093088150024,27.147772908210754 26.134589314460754,27.935680747032166 26.134589314460754,27.935680747032166 25.40571689605713,28.748446702957153 25.40571689605713,28.748446702957153 24.703924357891083,29.58562672138214 24.703924357891083,29.58562672138214 24.030539393424988,30.446556210517883 24.030539393424988,30.446556210517883 24.151501059532166,30.553090572357178 24.151501059532166,30.553090572357178 24.274013936519623,30.65984547138214 24.274013936519623,30.65984547138214 24.398526549339294,30.76704442501068 24.398526549339294,30.76704442501068 24.52503591775894,30.87480068206787 24.52503591775894,30.87480068206787 24.653097987174988,30.9829980134964 24.653097987174988,30.9829980134964 24.782492220401764,31.091642379760742 24.782492220401764,31.091642379760742 24.913884699344635,31.200727820396423 24.913884699344635,31.200727820396423 25.04616379737854,31.310370564460754 25.04616379737854,31.310370564460754 26.032716035842896,32.09761083126068 26.032716035842896,32.09761083126068 27.0889550447464,32.91670382022858 27.0889550447464,32.91670382022858 28.201794624328613,33.77374708652496 28.201794624328613,33.77374708652496 29.356801509857178,34.67462658882141 29.356801509857178,34.67462658882141 30.540215969085693,35.62566637992859 30.540215969085693,35.62566637992859 31.73828125,36.63308024406433 31.73828125,36.63308024406433 32.93723464012146,37.70252466201782 32.93723464012146,37.70252466201782" stroke="white" stroke-width="0.1" /><polygon points="35.52911877632141,59.77627635002136 35.52911877632141,59.77627635002136 35.35444736480713,59.9456250667572 35.35444736480713,59.9456250667572 35.17955541610718,60.11596918106079 35.17955541610718,60.11596918106079 35.00421643257141,60.2875292301178 35.00421643257141,60.2875292301178 34.828656911849976,60.45987010002136 34.828656911849976,60.45987010002136 34.65265333652496,60.63332557678223 34.65265333652496,60.63332557678223 34.47642922401428,60.80777049064636 34.47642922401428,60.80777049064636 34.299761056900024,60.98310947418213 34.299761056900024,60.98310947418213 34.12286937236786,61.159443855285645 34.12286937236786,61.159443855285645 32.93723464012146,62.297362089157104 32.93723464012146,62.297362089157104 31.73828125,63.36714029312134 31.73828125,63.36714029312134 30.540215969085693,64.37422037124634 30.540215969085693,64.37422037124634 29.356801509857178,65.32537341117859 29.356801509857178,65.32537341117859 28.201794624328613,66.2262499332428 28.201794624328613,66.2262499332428 27.089178562164307,67.08329916000366 27.089178562164307,67.08329916000366 26.032716035842896,67.90238618850708 26.032716035842896,67.90238618850708 25.04616379737854,68.68963241577148 25.04616379737854,68.68963241577148 24.913884699344635,68.79926919937134 24.913884699344635,68.79926919937134 24.782492220401764,68.90847086906433 24.782492220401764,68.90847086906433 24.653097987174988,69.01711225509644 24.653097987174988,69.01711225509644 24.52503591775894,69.12519931793213 24.52503591775894,69.12519931793213 24.398526549339294,69.23295259475708 24.398526549339294,69.23295259475708 24.27423596382141,69.34015154838562 24.27423596382141,69.34015154838562 24.151501059532166,69.4470226764679 24.151501059532166,69.4470226764679 24.030539393424988,69.55344676971436 24.030539393424988,69.55344676971436 24.73299950361252,70.44999599456787 24.73299950361252,70.44999599456787 25.464975833892822,71.32058143615723 25.464975833892822,71.32058143615723 26.226472854614258,72.16530442237854 26.226472854614258,72.16530442237854 27.016156911849976,72.9828417301178 27.016156911849976,72.9828417301178 27.8335839509964,73.77252578735352 27.8335839509964,73.77252578735352 28.677645325660706,74.53368902206421 28.677645325660706,74.53368902206421 29.548117518424988,75.26533603668213 29.548117518424988,75.26533603668213 30.443891882896423,75.96679925918579 30.443891882896423,75.96679925918579 30.550646781921387,75.84672570228577 30.550646781921387,75.84672570228577 30.657625198364258,75.72420835494995 30.657625198364258,75.72420835494995 30.765271186828613,75.60014128684998 30.765271186828613,75.60014128684998 30.8731347322464,75.47396421432495 30.8731347322464,75.47396421432495 30.98166584968567,75.34590363502502 30.98166584968567,75.34590363502502 31.090644001960754,75.21617412567139 31.090644001960754,75.21617412567139 31.200063228607178,75.08456110954285 31.200063228607178,75.08456110954285 31.310370564460754,74.951171875 31.310370564460754,74.951171875 32.09672272205353,73.96584153175354 32.09672272205353,73.96584153175354 32.91548192501068,72.90993332862854 32.91548192501068,72.90993332862854 33.77263844013214,71.7974305152893 33.77263844013214,71.7974305152893 34.67373847961426,70.64242362976074 34.67373847961426,70.64242362976074 35.624998807907104,69.45889592170715 35.624998807907104,69.45889592170715 36.63219213485718,68.26061010360718 36.63219213485718,68.26061010360718 37.701526284217834,67.06176996231079 37.701526284217834,67.06176996231079 38.83877694606781,65.87624549865723 38.83877694606781,65.87624549865723 39.0152245759964,65.69957137107849 39.0152245759964,65.69957137107849 39.19100761413574,65.52279591560364 39.19100761413574,65.52279591560364 39.365679025650024,65.34645557403564 39.365679025650024,65.34645557403564 39.539238810539246,65.17012119293213 39.539238810539246,65.17012119293213 39.71191346645355,64.99400734901428 39.71191346645355,64.99400734901428 39.88347947597504,64.81822729110718 39.88347947597504,64.81822729110718 40.05415439605713,64.64255452156067 40.05415439605713,64.64255452156067 40.2237206697464,64.46732878684998 40.2237206697464,64.46732878684998" stroke="white" stroke-width="0.1" /><polygon points="54.73366379737854,38.57155442237854 54.73366379737854,38.57155442237854 45.26633620262146,38.57155442237854 45.26633620262146,38.57155442237854 38.56889307498932,45.26722431182861 38.56889307498932,45.26722431182861 38.56889307498932,54.73277568817139 38.56889307498932,54.73277568817139 45.26633620262146,61.42844557762146 45.26633620262146,61.42844557762146 54.73366379737854,61.42844557762146 54.73366379737854,61.42844557762146 61.42755746841431,54.73277568817139 61.42755746841431,54.73277568817139 61.42755746841431,45.26722431182861 61.42755746841431,45.26722431182861" stroke="white" stroke-width="0.1" /><polygon points="64.46732878684998,40.22460877895355 64.46732878684998,40.22460877895355 64.64200019836426,40.05493223667145 64.64200019836426,40.05493223667145 64.8175597190857,39.884477853775024 64.8175597190857,39.884477853775024 64.99311923980713,39.712801575660706 64.99311923980713,39.712801575660706 65.16912579536438,39.54024016857147 65.16912579536438,39.54024016857147 65.34534692764282,39.36667740345001 65.34534692764282,39.36667740345001 65.52157402038574,39.19233977794647 65.52157402038574,39.19233977794647 65.69780111312866,39.01678025722504 65.69780111312866,39.01678025722504 65.87358117103577,38.84055316448212 65.87358117103577,38.84055316448212 67.05943942070007,37.702637910842896 67.05943942070007,37.702637910842896 68.25883388519287,36.63296699523926 68.25883388519287,36.63296699523926 69.45711970329285,35.62544286251068 69.45711970329285,35.62544286251068 70.64098119735718,34.67429280281067 70.64098119735718,34.67429280281067 71.79620862007141,33.77319276332855 71.79620862007141,33.77319276332855 72.90882468223572,32.916370034217834 72.90882468223572,32.916370034217834 73.96484613418579,32.09739029407501 73.96484613418579,32.09739029407501 74.95028376579285,31.310370564460754 74.95028376579285,31.310370564460754 75.08389353752136,31.20061755180359 75.08389353752136,31.20061755180359 75.21528601646423,31.091642379760742 75.21528601646423,31.091642379760742 75.34512877464294,30.9829980134964 75.34512877464294,30.9829980134964 75.47274231910706,30.87480068206787 75.47274231910706,30.87480068206787 75.59858560562134,30.767157673835754 75.59858560562134,30.767157673835754 75.72287917137146,30.65984547138214 75.72287917137146,30.65984547138214 75.84517002105713,30.552977323532104 75.84517002105713,30.552977323532104 75.96591114997864,30.446556210517883 75.96591114997864,30.446556210517883 75.26456117630005,29.549893736839294 75.26456117630005,29.549893736839294 74.5330274105072,28.6788672208786 74.5330274105072,28.6788672208786 73.77175092697144,27.834251523017883 73.77175092697144,27.834251523017883 72.98162579536438,27.01682448387146 72.98162579536438,27.01682448387146 72.16375470161438,26.227140426635742 72.16375470161438,26.227140426635742 71.31924629211426,25.466307997703552 71.31924629211426,25.466307997703552 70.44833302497864,24.73466396331787 70.44833302497864,24.73466396331787 69.5525586605072,24.033203721046448 69.5525586605072,24.033203721046448 69.44580078125,24.153275787830353 69.44580078125,24.153275787830353 69.33882236480713,24.275679886341095 69.33882236480713,24.275679886341095 69.23140287399292,24.399857223033905 69.23140287399292,24.399857223033905 69.12375688552856,24.52603429555893 69.12375688552856,24.52603429555893 69.01589035987854,24.654097855091095 69.01589035987854,24.654097855091095 68.90713572502136,24.783936142921448 68.90713572502136,24.783936142921448 68.798828125,24.915549159049988 68.798828125,24.915549159049988 68.68963241577148,25.048828125 68.68963241577148,25.048828125 67.90216565132141,26.03415846824646 67.90216565132141,26.03415846824646 67.08296537399292,27.090176939964294 67.08296537399292,27.090176939964294 66.22558832168579,28.20245921611786 66.22558832168579,28.20245921611786 65.32448530197144,29.357576370239258 65.32448530197144,29.357576370239258 64.37322497367859,30.54121434688568 64.37322497367859,30.54121434688568 63.36581110954285,31.739389896392822 63.36581110954285,31.739389896392822 62.295812368392944,32.93823301792145 62.295812368392944,32.93823301792145 61.15766763687134,34.12375748157501 61.15766763687134,34.12375748157501 60.98099946975708,34.300535917282104 60.98099946975708,34.300535917282104 60.805439949035645,34.47709381580353 60.805439949035645,34.47709381580353 60.63076853752136,34.65354144573212 60.63076853752136,34.65354144573212 60.45721173286438,34.82987880706787 60.45721173286438,34.82987880706787 60.28453707695007,35.00588238239288 60.28453707695007,35.00588238239288 60.11297106742859,35.18177270889282 60.11297106742859,35.18177270889282 59.94229316711426,35.35733222961426 59.94229316711426,35.35733222961426 59.77272987365723,35.532671213150024 59.77272987365723,35.532671213150024" stroke="white" stroke-width="0.1" /><polygon points="67.14133620262146,57.099610567092896 67.14133620262146,57.099610567092896 66.3103699684143,57.92880058288574 66.3103699684143,57.92880058288574 66.65571928024292,57.94922113418579 66.65571928024292,57.94922113418579 67.00239777565002,57.96763896942139 67.00239777565002,57.96763896942139 67.35040545463562,57.984066009521484 67.35040545463562,57.984066009521484 67.69975423812866,57.99804925918579 67.69975423812866,57.99804925918579 68.05086731910706,58.00936818122864 68.05086731910706,58.00936818122864 68.40376257896423,58.017802238464355 68.40376257896423,58.017802238464355 68.75865459442139,58.02290439605713 68.75865459442139,58.02290439605713 69.11576986312866,58.024680614471436 69.11576986312866,58.024680614471436 70.52889466285706,58.084940910339355 70.52889466285706,58.084940910339355 71.91361784934998,58.251285552978516 71.91361784934998,58.251285552978516 73.26682209968567,58.50197672843933 73.26682209968567,58.50197672843933 74.58451986312866,58.815693855285645 74.58451986312866,58.815693855285645 75.86381435394287,59.17069911956787 75.86381435394287,59.17069911956787 77.10093855857849,59.545230865478516 77.10093855857849,59.545230865478516 78.29234600067139,59.91809964179993 78.29234600067139,59.91809964179993 79.43536639213562,60.26722192764282 79.43536639213562,60.26722192764282 79.60116267204285,60.31605005264282 79.60116267204285,60.31605005264282 79.76607084274292,60.36354899406433 79.76607084274292,60.36354899406433 79.9298644065857,60.40993332862854 79.9298644065857,60.40993332862854 80.09232878684998,60.45510172843933 80.09232878684998,60.45510172843933 80.25346398353577,60.49893498420715 80.25346398353577,60.49893498420715 80.41326403617859,60.54154634475708 80.41326403617859,60.54154634475708 80.5712878704071,60.58260798454285 80.5712878704071,60.58260798454285 80.72798252105713,60.622334480285645 80.72798252105713,60.622334480285645 81.13658428192139,59.36190485954285 81.13658428192139,59.36190485954285 81.49524927139282,58.07994604110718 81.49524927139282,58.07994604110718 81.80264830589294,56.77778720855713 81.80264830589294,56.77778720855713 82.0574402809143,55.45632243156433 82.0574402809143,55.45632243156433 82.25808143615723,54.1167676448822 82.25808143615723,54.1167676448822 82.40345120429993,52.76011824607849 82.40345120429993,52.76011824607849 82.49156475067139,51.387494802474976 82.49156475067139,51.387494802474976 82.5213074684143,50.0 82.5213074684143,50.0 82.49178528785706,48.612505197525024 82.49178528785706,48.612505197525024 82.40345120429993,47.23987877368927 82.40345120429993,47.23987877368927 82.25808143615723,45.88323533535004 82.25808143615723,45.88323533535004 82.0574402809143,44.54367756843567 82.0574402809143,44.54367756843567 81.80264830589294,43.22221279144287 81.80264830589294,43.22221279144287 81.49502873420715,41.92005395889282 81.49502873420715,41.92005395889282 81.13636374473572,40.63809514045715 81.13636374473572,40.63809514045715 80.72798252105713,39.37766253948212 80.72798252105713,39.37766253948212 80.5712878704071,39.41739201545715 80.5712878704071,39.41739201545715 80.41304349899292,39.45845067501068 80.41304349899292,39.45845067501068 80.25346398353577,39.50106501579285 80.25346398353577,39.50106501579285 80.09232878684998,39.54489827156067 80.09232878684998,39.54489827156067 79.9298644065857,39.59006667137146 79.9298644065857,39.59006667137146 79.76607084274292,39.63645100593567 79.76607084274292,39.63645100593567 79.60116267204285,39.68406021595001 79.60116267204285,39.68406021595001 79.43536639213562,39.73277807235718 79.43536639213562,39.73277807235718 78.29256653785706,40.08200764656067 78.29256653785706,40.08200764656067 77.10093855857849,40.45454561710358 77.10093855857849,40.45454561710358 75.8635938167572,40.82930088043213 75.8635938167572,40.82930088043213 74.58451986312866,41.18430316448212 74.58451986312866,41.18430316448212 73.26682209968567,41.49802327156067 73.26682209968567,41.49802327156067 71.91361784934998,41.748711466789246 71.91361784934998,41.748711466789246 70.52889466285706,41.91506206989288 70.52889466285706,41.91506206989288 69.11576986312866,41.975319385528564 69.11576986312866,41.975319385528564 68.75865459442139,41.97709560394287 68.75865459442139,41.97709560394287 68.40376257896423,41.98231101036072 68.40376257896423,41.98231101036072 68.05086731910706,41.990745067596436 68.05086731910706,41.990745067596436 67.69975423812866,42.00195372104645 67.69975423812866,42.00195372104645 67.35040545463562,42.015936970710754 67.35040545463562,42.015936970710754 67.00239777565002,42.03224778175354 67.00239777565002,42.03224778175354 66.65571928024292,42.05078184604645 66.65571928024292,42.05078184604645 66.3103699684143,42.07119941711426 66.3103699684143,42.07119941711426 67.14133620262146,42.900389432907104 67.14133620262146,42.900389432907104" stroke="white" stroke-width="0.1" /><polygon points="42.89772808551788,67.14311242103577 42.89772808551788,67.14311242103577 42.070311307907104,66.31214618682861 42.070311307907104,66.31214618682861 42.049893736839294,66.65749549865723 42.049893736839294,66.65749549865723 42.03124940395355,67.00428128242493 42.03124940395355,67.00428128242493 42.0150488615036,67.35207438468933 42.0150488615036,67.35207438468933 42.001065611839294,67.70152449607849 42.001065611839294,67.70152449607849 41.98974668979645,68.05264353752136 41.98974668979645,68.05264353752136 41.9815331697464,68.40553879737854 41.9815331697464,68.40553879737854 41.97620749473572,68.7604308128357 41.97620749473572,68.7604308128357 41.97443127632141,69.11754012107849 41.97443127632141,69.11754012107849 41.914063692092896,70.53078413009644 41.914063692092896,70.53078413009644 41.74760282039642,71.91561460494995 41.74760282039642,71.91561460494995 41.496580839157104,73.26849102973938 41.496580839157104,73.26849102973938 41.18252694606781,74.58629012107849 41.18252694606781,74.58629012107849 40.82719385623932,75.8654773235321 40.82719385623932,75.8654773235321 40.45232534408569,77.1027147769928 40.45232534408569,77.1027147769928 40.07945656776428,78.29423546791077 40.07945656776428,78.29423546791077 39.73011374473572,79.43714261054993 39.73011374473572,79.43714261054993 39.68150615692139,79.60305213928223 39.68150615692139,79.60305213928223 39.63401019573212,79.76795434951782 39.63401019573212,79.76795434951782 39.58762288093567,79.931640625 39.58762288093567,79.931640625 39.54257071018219,80.09410500526428 39.54257071018219,80.09410500526428 39.49884474277496,80.25524020195007 39.49884474277496,80.25524020195007 39.45623338222504,80.4150402545929 39.45623338222504,80.4150402545929 39.4149512052536,80.57306408882141 39.4149512052536,80.57306408882141 39.375001192092896,80.72975873947144 39.375001192092896,80.72975873947144 40.6356543302536,81.13813996315002 40.6356543302536,81.13813996315002 41.91783666610718,81.49691224098206 41.91783666610718,81.49691224098206 43.220216035842896,81.80441856384277 43.220216035842896,81.80441856384277 44.541460275650024,82.05921649932861 44.541460275650024,82.05921649932861 45.88112533092499,82.25996494293213 45.88112533092499,82.25996494293213 47.23765850067139,82.40522742271423 47.23765850067139,82.40522742271423 48.610395193099976,82.4933409690857 48.610395193099976,82.4933409690857 49.99822378158569,82.52308368682861 49.99822378158569,82.52308368682861 51.38605237007141,82.4933409690857 51.38605237007141,82.4933409690857 52.7587890625,82.40522742271423 52.7587890625,82.40522742271423 54.11554574966431,82.2600781917572 54.11554574966431,82.2600781917572 55.45498728752136,82.05921649932861 55.45498728752136,82.05921649932861 56.77645802497864,81.80441856384277 56.77645802497864,81.80441856384277 58.07861089706421,81.49680495262146 58.07861089706421,81.49680495262146 59.360796213150024,81.13813996315002 59.360796213150024,81.13813996315002 60.62144637107849,80.72975873947144 60.62144637107849,80.72975873947144 60.58171987533569,80.57317733764648 60.58171987533569,80.57317733764648 60.54021716117859,80.4150402545929 60.54021716117859,80.4150402545929 60.49782633781433,80.255126953125 60.49782633781433,80.255126953125 60.453879833221436,80.09410500526428 60.453879833221436,80.09410500526428 60.40882468223572,79.931640625 60.40882468223572,79.931640625 60.36266088485718,79.7680675983429 60.36266088485718,79.7680675983429 60.31494140625,79.60305213928223 60.31494140625,79.60305213928223 60.26633381843567,79.43714261054993 60.26633381843567,79.43714261054993 59.91721153259277,78.29423546791077 59.91721153259277,78.29423546791077 59.54412221908569,77.1026074886322 59.54412221908569,77.1026074886322 59.16925668716431,75.86537003517151 59.16925668716431,75.86537003517151 58.81391763687134,74.58629012107849 58.81391763687134,74.58629012107849 58.49986672401428,73.26849102973938 58.49986672401428,73.26849102973938 58.2488477230072,71.91561460494995 58.2488477230072,71.91561460494995 58.08238387107849,70.53067088127136 58.08238387107849,70.53067088127136 58.022016286849976,69.11754012107849 58.022016286849976,69.11754012107849 58.02001953125,68.7604308128357 58.02001953125,68.7604308128357 58.01491737365723,68.40565204620361 58.01491737365723,68.40565204620361 58.00670385360718,68.05264353752136 58.00670385360718,68.05264353752136 57.99538493156433,67.70152449607849 57.99538493156433,67.70152449607849 57.981401681900024,67.35218167304993 57.981401681900024,67.35218167304993 57.96520113945007,67.00417399406433 57.96520113945007,67.00417399406433 57.94655680656433,66.65749549865723 57.94655680656433,66.65749549865723 57.92613625526428,66.31214618682861 57.92613625526428,66.31214618682861 57.09872245788574,67.14311242103577 57.09872245788574,67.14311242103577" stroke="white" stroke-width="0.1" /><polygon points="32.855114340782166,42.900389432907104 32.855114340782166,42.900389432907104 33.68608057498932,42.072975635528564 33.68608057498932,42.072975635528564 33.340731263160706,42.05244481563568 33.340731263160706,42.05244481563568 32.9940527677536,42.03413426876068 32.9940527677536,42.03413426876068 32.646262645721436,42.01759994029999 32.646262645721436,42.01759994029999 32.29669630527496,42.003729939460754 32.29669630527496,42.003729939460754 31.94558024406433,41.99240803718567 31.94558024406433,41.99240803718567 31.592684984207153,41.98397696018219 31.592684984207153,41.98397696018219 31.23779296875,41.97887182235718 31.23779296875,41.97887182235718 30.880680680274963,41.97709560394287 30.880680680274963,41.97709560394287 29.46755290031433,41.91672503948212 29.46755290031433,41.91672503948212 28.08282971382141,41.75026714801788 28.08282971382141,41.75026714801788 26.729846000671387,41.499245166778564 26.729846000671387,41.499245166778564 25.411930680274963,41.18519127368927 25.411930680274963,41.18519127368927 24.132634699344635,40.82985520362854 24.132634699344635,40.82985520362854 22.895507514476776,40.45498967170715 22.895507514476776,40.45498967170715 21.70387953519821,40.08212089538574 21.70387953519821,40.08212089538574 20.561079680919647,39.73277807235718 20.561079680919647,39.73277807235718 20.39506435394287,39.68417048454285 20.39506435394287,39.68417048454285 20.230379700660706,39.63656425476074 20.230379700660706,39.63656425476074 20.066583156585693,39.59028720855713 20.066583156585693,39.59028720855713 19.90411877632141,39.54523205757141 19.90411877632141,39.54523205757141 19.74298655986786,39.501288533210754 19.74298655986786,39.501288533210754 19.583185017108917,39.45889472961426 19.583185017108917,39.45889472961426 19.425159692764282,39.41761255264282 19.425159692764282,39.41761255264282 19.268466532230377,39.37766253948212 19.268466532230377,39.37766253948212 18.86008530855179,40.638428926467896 18.86008530855179,40.638428926467896 18.501420319080353,41.9204980134964 18.501420319080353,41.9204980134964 18.1938037276268,43.22254657745361 18.1938037276268,43.22254657745361 17.9390087723732,44.544121623039246 17.9390087723732,44.544121623039246 17.73837059736252,45.88367938995361 17.73837059736252,45.88367938995361 17.59299486875534,47.24032282829285 17.59299486875534,47.24032282829285 17.5048828125,48.613059520721436 17.5048828125,48.613059520721436 17.4751415848732,50.00088810920715 17.4751415848732,50.00088810920715 17.5048828125,51.38871669769287 17.5048828125,51.38871669769287 17.59299486875534,52.76134014129639 17.59299486875534,52.76134014129639 17.73814857006073,54.11798357963562 17.73814857006073,54.11798357963562 17.9390087723732,55.45765161514282 17.9390087723732,55.45765161514282 18.1938037276268,56.77911639213562 18.1938037276268,56.77911639213562 18.501420319080353,58.08138847351074 18.501420319080353,58.08138847351074 18.86008530855179,59.36334729194641 18.86008530855179,59.36334729194641 19.268466532230377,60.62411069869995 19.268466532230377,60.62411069869995 19.425159692764282,60.58405041694641 19.425159692764282,60.58405041694641 19.583407044410706,60.542988777160645 19.583407044410706,60.542988777160645 19.74298655986786,60.50037741661072 19.74298655986786,60.50037741661072 19.90411877632141,60.456544160842896 19.90411877632141,60.456544160842896 20.066583156585693,60.41148900985718 20.066583156585693,60.41148900985718 20.230379700660706,60.365211963653564 20.230379700660706,60.365211963653564 20.39506435394287,60.317713022232056 20.39506435394287,60.317713022232056 20.561079680919647,60.26899814605713 20.561079680919647,60.26899814605713 21.70387953519821,59.919655323028564 21.70387953519821,59.919655323028564 22.895507514476776,59.54678654670715 22.895507514476776,59.54678654670715 24.132634699344635,59.17192101478577 24.132634699344635,59.17192101478577 25.411930680274963,58.8165819644928 25.411930680274963,58.8165819644928 26.729846000671387,58.50263833999634 26.729846000671387,58.50263833999634 28.08282971382141,58.25151205062866 28.08282971382141,58.25151205062866 29.46755290031433,58.08504819869995 29.46755290031433,58.08504819869995 30.880680680274963,58.024680614471436 30.880680680274963,58.024680614471436 31.23779296875,58.02290439605713 31.23779296875,58.02290439605713 31.592684984207153,58.017802238464355 31.592684984207153,58.017802238464355 31.94558024406433,58.00914168357849 31.94558024406433,58.00914168357849 32.29669630527496,57.99804925918579 32.29669630527496,57.99804925918579 32.64603912830353,57.984066009521484 32.64603912830353,57.984066009521484 32.9940527677536,57.96763896942139 32.9940527677536,57.96763896942139 33.340731263160706,57.94922113418579 33.340731263160706,57.94922113418579 33.68608057498932,57.92880058288574 33.68608057498932,57.92880058288574 32.855114340782166,57.1013867855072 32.855114340782166,57.1013867855072" stroke="white" stroke-width="0.1" /><polygon points="57.09872245788574,32.85689055919647 57.09872245788574,32.85689055919647 57.92613625526428,33.68785381317139 57.92613625526428,33.68785381317139 57.94655680656433,33.34239721298218 57.94655680656433,33.34239721298218 57.96520113945007,32.99593925476074 57.96520113945007,32.99593925476074 57.981401681900024,32.647815346717834 57.981401681900024,32.647815346717834 57.99538493156433,32.29847252368927 57.99538493156433,32.29847252368927 58.00670385360718,31.947466731071472 58.00670385360718,31.947466731071472 58.01491737365723,31.59446120262146 58.01491737365723,31.59446120262146 58.02024006843567,31.239569187164307 58.02024006843567,31.239569187164307 58.022016286849976,30.88245689868927 58.022016286849976,30.88245689868927 58.08238387107849,29.469215869903564 58.08238387107849,29.469215869903564 58.2488477230072,28.084605932235718 58.2488477230072,28.084605932235718 58.49986672401428,26.731401681900024 58.49986672401428,26.731401681900024 58.81391763687134,25.41370689868927 58.81391763687134,25.41370689868927 59.16925668716431,24.134521186351776 59.16925668716431,24.134521186351776 59.54412221908569,22.897394001483917 59.54412221908569,22.897394001483917 59.916990995407104,21.70565575361252 59.916990995407104,21.70565575361252 60.26633381843567,20.562854409217834 60.26633381843567,20.562854409217834 60.31516194343567,20.396950840950012 60.31516194343567,20.396950840950012 60.36244034767151,20.23204416036606 60.36244034767151,20.23204416036606 60.40882468223572,20.068359375 60.40882468223572,20.068359375 60.453879833221436,19.905894994735718 60.453879833221436,19.905894994735718 60.49760580062866,19.744873046875 60.49760580062866,19.744873046875 60.54021716117859,19.58507150411606 60.54021716117859,19.58507150411606 60.581499338150024,19.426824152469635 60.581499338150024,19.426824152469635 60.62144637107849,19.270241260528564 60.62144637107849,19.270241260528564 59.360575675964355,18.86174976825714 59.360575675964355,18.86174976825714 58.07861089706421,18.503084778785706 58.07861089706421,18.503084778785706 56.77645802497864,18.19569021463394 56.77645802497864,18.19569021463394 55.45498728752136,17.940784990787506 55.45498728752136,17.940784990787506 54.11532521247864,17.740145325660706 54.11532521247864,17.740145325660706 52.7587890625,17.594771087169647 52.7587890625,17.594771087169647 51.38605237007141,17.506659030914307 51.38605237007141,17.506659030914307 49.99822378158569,17.476917803287506 49.99822378158569,17.476917803287506 48.610395193099976,17.506547272205353 48.610395193099976,17.506547272205353 47.23765850067139,17.59488135576248 47.23765850067139,17.59488135576248 45.88112533092499,17.74003505706787 45.88112533092499,17.74003505706787 44.541460275650024,17.940784990787506 44.541460275650024,17.940784990787506 43.21999251842499,18.19569021463394 43.21999251842499,18.19569021463394 41.91783666610718,18.50319653749466 41.91783666610718,18.50319653749466 40.6356543302536,18.86174976825714 40.6356543302536,18.86174976825714 39.375001192092896,19.270241260528564 39.375001192092896,19.270241260528564 39.4149512052536,19.4267138838768 39.4149512052536,19.4267138838768 39.45623338222504,19.585183262825012 39.45623338222504,19.585183262825012 39.498624205589294,19.744762778282166 39.498624205589294,19.744762778282166 39.54257071018219,19.905894994735718 39.54257071018219,19.905894994735718 39.58762288093567,20.068469643592834 39.58762288093567,20.068469643592834 39.63378965854645,20.23204416036606 39.63378965854645,20.23204416036606 39.68150615692139,20.39683908224106 39.68150615692139,20.39683908224106 39.73011374473572,20.562854409217834 39.73011374473572,20.562854409217834 40.07945656776428,21.70565575361252 40.07945656776428,21.70565575361252 40.45232534408569,22.897394001483917 40.45232534408569,22.897394001483917 40.82719385623932,24.134521186351776 40.82719385623932,24.134521186351776 41.18252694606781,25.41370689868927 41.18252694606781,25.41370689868927 41.496580839157104,26.731622219085693 41.496580839157104,26.731622219085693 41.74760282039642,28.084495663642883 41.74760282039642,28.084495663642883 41.914063692092896,29.4693261384964 41.914063692092896,29.4693261384964 41.97443127632141,30.88245689868927 41.97443127632141,30.88245689868927 41.97620749473572,31.239569187164307 41.97620749473572,31.239569187164307 41.9815331697464,31.594571471214294 41.9815331697464,31.594571471214294 41.98974668979645,31.9473534822464 41.98974668979645,31.9473534822464 42.001065611839294,32.29847252368927 42.001065611839294,32.29847252368927 42.0150488615036,32.64792561531067 42.0150488615036,32.64792561531067 42.03124940395355,32.99582600593567 42.03124940395355,32.99582600593567 42.049893736839294,33.34239721298218 42.049893736839294,33.34239721298218 42.070311307907104,33.68785381317139 42.070311307907104,33.68785381317139 42.89772808551788,32.85689055919647 42.89772808551788,32.85689055919647" stroke="white" stroke-width="0.1" /><polygon points="100.0,50.0 98.98393154144287,60.076904296875 96.07066512107849,69.4623351097107 91.46062731742859,77.95565724372864 85.35511493682861,85.35544872283936 77.95521020889282,91.46084785461426 69.46200132369995,96.07077836990356 60.07657051086426,98.98415207862854 50.0,100.0 39.923205971717834,98.98426532745361 30.53799569606781,96.07066512107849 22.04478830099106,91.46084785461426 14.644886553287506,85.35544872283936 8.53937342762947,77.95565724372864 3.9293322712183,69.4623351097107 1.0158469900488853,60.07679104804993 0.0,50.0 1.015624962747097,39.92331624031067 3.9293322712183,30.537554621696472 8.53937342762947,22.044456005096436 14.644886553287506,14.644552767276764 22.04478830099106,8.539040386676788 30.53799569606781,3.9291106164455414 39.92342948913574,1.0158469900488853 50.0,0.0 60.07634997367859,1.0158469900488853 69.46200132369995,3.9291106164455414 77.95521020889282,8.539151400327682 85.35511493682861,14.644552767276764 91.46062731742859,22.04434424638748 96.07066512107849,30.537664890289307 98.98415207862854,39.923205971717834" stroke="white" stroke-width="0.1" /><polygon points="50.0,11.7649145424366 57.70530104637146,12.541726231575012 64.88236784934998,14.769619703292847 57.92613625526428,33.68785381317139 57.94655680656433,33.34239721298218 57.96520113945007,32.99593925476074 57.981401681900024,32.647815346717834 57.99538493156433,32.29847252368927 58.00670385360718,31.947466731071472 58.01491737365723,31.59446120262146 58.02024006843567,31.239569187164307 58.022016286849976,30.88245689868927 58.08238387107849,29.469215869903564 58.2488477230072,28.084605932235718 58.49986672401428,26.731401681900024 58.81391763687134,25.41370689868927 59.16925668716431,24.134521186351776 59.54412221908569,22.897394001483917 59.916990995407104,21.70565575361252 60.26633381843567,20.562854409217834 60.31516194343567,20.396950840950012 60.36244034767151,20.23204416036606 60.40882468223572,20.068359375 60.453879833221436,19.905894994735718 60.49760580062866,19.744873046875 60.54021716117859,19.58507150411606 60.581499338150024,19.426824152469635 60.62144637107849,19.270241260528564 59.360575675964355,18.86174976825714 58.07861089706421,18.503084778785706 56.77645802497864,18.19569021463394 55.45498728752136,17.940784990787506 54.11532521247864,17.740145325660706 52.7587890625,17.594771087169647 51.38605237007141,17.506659030914307 49.99822378158569,17.476917803287506 48.610395193099976,17.506547272205353 47.23765850067139,17.59488135576248 45.88112533092499,17.74003505706787 44.541460275650024,17.940784990787506 43.21999251842499,18.19569021463394 41.91783666610718,18.50319653749466 40.6356543302536,18.86174976825714 39.375001192092896,19.270241260528564 39.4149512052536,19.4267138838768 39.45623338222504,19.585183262825012 39.498624205589294,19.744762778282166 39.54257071018219,19.905894994735718 39.58762288093567,20.068469643592834 39.63378965854645,20.23204416036606 39.68150615692139,20.39683908224106 39.73011374473572,20.562854409217834 40.07945656776428,21.70565575361252 40.45232534408569,22.897394001483917 40.82719385623932,24.134521186351776 41.18252694606781,25.41370689868927 41.496580839157104,26.731622219085693 41.74760282039642,28.084495663642883 41.914063692092896,29.4693261384964 41.97443127632141,30.88245689868927 41.97620749473572,31.239569187164307 41.9815331697464,31.594571471214294 41.98974668979645,31.9473534822464 42.001065611839294,32.29847252368927 42.0150488615036,32.64792561531067 42.03124940395355,32.99582600593567 42.049893736839294,33.34239721298218 42.070311307907104,33.68785381317139 33.68608057498932,42.072975635528564 33.340731263160706,42.05244481563568 34.12286937236786,38.84055316448212 34.299761056900024,39.01678025722504 34.47665274143219,39.19233977794647 34.65287685394287,39.36667740345001 34.82910096645355,39.5401269197464 35.005104541778564,39.71258103847504 35.18110811710358,39.88392353057861 35.35688817501068,40.05437791347504 35.532671213150024,40.2237206697464 40.2237206697464,35.532671213150024 40.05415439605713,35.35733222961426 39.88347947597504,35.18177270889282 39.71191346645355,35.00588238239288 39.539238810539246,34.82987880706787 39.365679025650024,34.65354144573212 39.19100761413574,34.47709381580353 39.01544809341431,34.300535917282104 38.83877694606781,34.12375748157501 37.701526284217834,32.93812274932861 36.63219213485718,31.739279627799988 35.624998807907104,30.541104078292847 34.67373847961426,29.35768961906433 33.77263844013214,28.2027930021286 32.91548192501068,27.090510725975037 32.096946239471436,26.034823060035706 31.310370564460754,25.049716234207153 31.201171875,24.91721361875534 31.09264075756073,24.786376953125 30.984553694725037,24.6574267745018 30.876687169075012,24.530473351478577 30.769488215446472,24.40529614686966 30.66273033618927,24.282003939151764 30.556640028953552,24.160711467266083 30.45099377632141,24.04119372367859 30.414816737174988,24.068380892276764 30.378419160842896,24.095237255096436 30.342018604278564,24.121981859207153 30.305397510528564,24.148836731910706 30.268776416778564,24.175693094730377 30.232155323028564,24.202769994735718 30.19597828388214,24.230068922042847 30.159801244735718,24.257811903953552 29.306861758232117,24.939852952957153 28.477007150650024,25.649192929267883 27.671119570732117,26.385498046875 26.890093088150024,27.147772908210754 26.134589314460754,27.935680747032166 25.40571689605713,28.748446702957153 24.703924357891083,29.58562672138214 24.030539393424988,30.446556210517883 24.151501059532166,30.553090572357178 24.274013936519623,30.65984547138214 24.398526549339294,30.76704442501068 24.52503591775894,30.87480068206787 24.653097987174988,30.9829980134964 24.782492220401764,31.091642379760742 24.913884699344635,31.200727820396423 25.04616379737854,31.310370564460754 26.032716035842896,32.09761083126068 27.0889550447464,32.91670382022858 28.201794624328613,33.77374708652496 29.356801509857178,34.67462658882141 30.540215969085693,35.62566637992859 31.73828125,36.63308024406433 32.93723464012146,37.70252466201782 34.12286937236786,38.84055316448212 33.340731263160706,42.05244481563568 32.9940527677536,42.03413426876068 32.646262645721436,42.01759994029999 32.29669630527496,42.003729939460754 31.94558024406433,41.99240803718567 31.592684984207153,41.98397696018219 31.23779296875,41.97887182235718 30.880680680274963,41.97709560394287 29.46755290031433,41.91672503948212 28.08282971382141,41.75026714801788 26.729846000671387,41.499245166778564 25.411930680274963,41.18519127368927 24.132634699344635,40.82985520362854 22.895507514476776,40.45498967170715 21.70387953519821,40.08212089538574 20.561079680919647,39.73277807235718 20.39506435394287,39.68417048454285 20.230379700660706,39.63656425476074 20.066583156585693,39.59028720855713 19.90411877632141,39.54523205757141 19.74298655986786,39.501288533210754 19.583185017108917,39.45889472961426 19.425159692764282,39.41761255264282 19.268466532230377,39.37766253948212 18.86008530855179,40.638428926467896 18.501420319080353,41.9204980134964 18.1938037276268,43.22254657745361 17.9390087723732,44.544121623039246 17.73837059736252,45.88367938995361 17.59299486875534,47.24032282829285 17.5048828125,48.613059520721436 17.4751415848732,50.00088810920715 17.5048828125,51.38871669769287 17.59299486875534,52.76134014129639 17.73814857006073,54.11798357963562 17.9390087723732,55.45765161514282 18.1938037276268,56.77911639213562 18.501420319080353,58.08138847351074 18.86008530855179,59.36334729194641 19.268466532230377,60.62411069869995 19.425159692764282,60.58405041694641 19.583407044410706,60.542988777160645 19.74298655986786,60.50037741661072 19.90411877632141,60.456544160842896 35.52911877632141,59.77627635002136 35.35444736480713,59.9456250667572 35.17955541610718,60.11596918106079 35.00421643257141,60.2875292301178 34.828656911849976,60.45987010002136 34.65265333652496,60.63332557678223 34.47642922401428,60.80777049064636 34.299761056900024,60.98310947418213 34.12286937236786,61.159443855285645 32.93723464012146,62.297362089157104 31.73828125,63.36714029312134 30.540215969085693,64.37422037124634 29.356801509857178,65.32537341117859 28.201794624328613,66.2262499332428 27.089178562164307,67.08329916000366 26.032716035842896,67.90238618850708 25.04616379737854,68.68963241577148 24.913884699344635,68.79926919937134 24.782492220401764,68.90847086906433 24.653097987174988,69.01711225509644 24.52503591775894,69.12519931793213 24.398526549339294,69.23295259475708 24.27423596382141,69.34015154838562 24.151501059532166,69.4470226764679 24.030539393424988,69.55344676971436 24.73299950361252,70.44999599456787 25.464975833892822,71.32058143615723 26.226472854614258,72.16530442237854 27.016156911849976,72.9828417301178 27.8335839509964,73.77252578735352 28.677645325660706,74.53368902206421 29.548117518424988,75.26533603668213 30.443891882896423,75.96679925918579 30.550646781921387,75.84672570228577 30.657625198364258,75.72420835494995 30.765271186828613,75.60014128684998 30.8731347322464,75.47396421432495 30.98166584968567,75.34590363502502 31.090644001960754,75.21617412567139 31.200063228607178,75.08456110954285 31.310370564460754,74.951171875 32.09672272205353,73.96584153175354 32.91548192501068,72.90993332862854 33.77263844013214,71.7974305152893 34.67373847961426,70.64242362976074 35.624998807907104,69.45889592170715 36.63219213485718,68.26061010360718 37.701526284217834,67.06176996231079 38.83877694606781,65.87624549865723 39.0152245759964,65.69957137107849 39.19100761413574,65.52279591560364 39.365679025650024,65.34645557403564 39.539238810539246,65.17012119293213 39.71191346645355,64.99400734901428 39.88347947597504,64.81822729110718 40.05415439605713,64.64255452156067 40.2237206697464,64.46732878684998 35.52911877632141,59.77627635002136 19.90411877632141,60.456544160842896 20.066583156585693,60.41148900985718 20.230379700660706,60.365211963653564 20.39506435394287,60.317713022232056 20.561079680919647,60.26899814605713 21.70387953519821,59.919655323028564 22.895507514476776,59.54678654670715 24.132634699344635,59.17192101478577 25.411930680274963,58.8165819644928 26.729846000671387,58.50263833999634 28.08282971382141,58.25151205062866 29.46755290031433,58.08504819869995 30.880680680274963,58.024680614471436 31.23779296875,58.02290439605713 31.592684984207153,58.017802238464355 31.94558024406433,58.00914168357849 32.29669630527496,57.99804925918579 32.64603912830353,57.984066009521484 32.9940527677536,57.96763896942139 33.340731263160706,57.94922113418579 33.68608057498932,57.92880058288574 32.855114340782166,57.1013867855072 32.855114340782166,42.900389432907104 42.070311307907104,66.31214618682861 42.049893736839294,66.65749549865723 42.03124940395355,67.00428128242493 42.0150488615036,67.35207438468933 42.001065611839294,67.70152449607849 41.98974668979645,68.05264353752136 41.9815331697464,68.40553879737854 41.97620749473572,68.7604308128357 41.97443127632141,69.11754012107849 41.914063692092896,70.53078413009644 41.74760282039642,71.91561460494995 41.496580839157104,73.26849102973938 41.18252694606781,74.58629012107849 40.82719385623932,75.8654773235321 40.45232534408569,77.1027147769928 40.07945656776428,78.29423546791077 39.73011374473572,79.43714261054993 39.68150615692139,79.60305213928223 39.63401019573212,79.76795434951782 39.58762288093567,79.931640625 39.54257071018219,80.09410500526428 39.49884474277496,80.25524020195007 39.45623338222504,80.4150402545929 39.4149512052536,80.57306408882141 39.375001192092896,80.72975873947144 40.6356543302536,81.13813996315002 41.91783666610718,81.49691224098206 43.220216035842896,81.80441856384277 44.541460275650024,82.05921649932861 45.88112533092499,82.25996494293213 47.23765850067139,82.40522742271423 48.610395193099976,82.4933409690857 49.99822378158569,82.52308368682861 51.38605237007141,82.4933409690857 52.7587890625,82.40522742271423 54.11554574966431,82.2600781917572 55.45498728752136,82.05921649932861 56.77645802497864,81.80441856384277 58.07861089706421,81.49680495262146 59.360796213150024,81.13813996315002 60.62144637107849,80.72975873947144 60.58171987533569,80.57317733764648 60.54021716117859,80.4150402545929 60.49782633781433,80.255126953125 60.453879833221436,80.09410500526428 60.40882468223572,79.931640625 60.36266088485718,79.7680675983429 60.31494140625,79.60305213928223 60.26633381843567,79.43714261054993 59.91721153259277,78.29423546791077 59.54412221908569,77.1026074886322 59.16925668716431,75.86537003517151 58.81391763687134,74.58629012107849 58.49986672401428,73.26849102973938 58.2488477230072,71.91561460494995 58.08238387107849,70.53067088127136 58.022016286849976,69.11754012107849 58.02001953125,68.7604308128357 58.01491737365723,68.40565204620361 58.00670385360718,68.05264353752136 57.99538493156433,67.70152449607849 57.981401681900024,67.35218167304993 57.96520113945007,67.00417399406433 57.94655680656433,66.65749549865723 57.92613625526428,66.31214618682861 57.09872245788574,67.14311242103577 42.89772808551788,67.14311242103577 42.070311307907104,66.31214618682861 32.855114340782166,42.900389432907104 33.68608057498932,42.072975635528564 42.070311307907104,33.68785381317139 42.89772808551788,32.85689055919647 38.56889307498932,45.26722431182861 38.56889307498932,54.73277568817139 45.26633620262146,61.42844557762146 54.73366379737854,61.42844557762146 61.42755746841431,54.73277568817139 65.87358117103577,61.159443855285645 65.69780111312866,60.9832227230072 65.52157402038574,60.80777049064636 65.34534692764282,60.63332557678223 65.16912579536438,60.45976281166077 64.99311923980713,60.287195444107056 64.81733918190002,60.11563539505005 64.64200019836426,59.94495749473572 64.46732878684998,59.77538824081421 59.77272987365723,64.46732878684998 59.94251370429993,64.64255452156067 60.11297106742859,64.81822729110718 60.28475761413574,64.99400734901428 60.45721173286438,65.17012119293213 60.63076853752136,65.34645557403564 60.805439949035645,65.52290320396423 60.98099946975708,65.69957137107849 61.15766763687134,65.87624549865723 62.29603290557861,67.06187725067139 63.36581110954285,68.26061010360718 64.37322497367859,69.45889592170715 65.32448530197144,70.64253091812134 66.22558832168579,71.79765105247498 67.08273887634277,72.91026711463928 67.90216565132141,73.96639585494995 68.68963241577148,74.95205998420715 68.79838705062866,75.0842273235321 68.90669465065002,75.2148449420929 69.01456117630005,75.34368634223938 69.12153959274292,75.47052502632141 69.22829151153564,75.59570074081421 69.3341612815857,75.71888566017151 69.44003105163574,75.84017515182495 69.54545378684998,75.95969438552856 69.57763433456421,75.93583464622498 69.60982084274292,75.91219544410706 69.64244246482849,75.88844895362854 69.67507004737854,75.8649230003357 69.70769762992859,75.84117650985718 69.74009871482849,75.81743001937866 69.77250576019287,75.79323649406433 69.8046863079071,75.76882243156433 70.66295146942139,75.08467435836792 71.49747014045715,74.3725597858429 72.30779528617859,73.63348007202148 73.09303879737854,72.86787629127502 73.85231852531433,72.07652926445007 74.58474040031433,71.2597668170929 75.28963685035706,70.41859030723572 75.96591114997864,69.55344676971436 75.84517002105713,69.44690942764282 75.72287917137146,69.34015154838562 75.59881210327148,69.23295259475708 75.47274231910706,69.12519931793213 75.3449022769928,69.01699900627136 75.21528601646423,68.90835762023926 75.08389353752136,68.79926919937134 74.95028376579285,68.68963241577148 73.96484613418579,67.90261268615723 72.90904521942139,67.08362698554993 71.79620862007141,66.22669696807861 70.64098119735718,65.32570719718933 69.45711970329285,64.37444686889648 68.2586133480072,63.36714029312134 67.05943942070007,62.29747533798218 65.87358117103577,61.159443855285645 61.42755746841431,54.73277568817139 61.42755746841431,45.26722431182861 54.73366379737854,38.57155442237854 45.26633620262146,38.57155442237854 38.56889307498932,45.26722431182861 42.89772808551788,32.85689055919647 57.09872245788574,32.85689055919647 67.14133620262146,57.099610567092896 66.3103699684143,57.92880058288574 66.65571928024292,57.94922113418579 67.00239777565002,57.96763896942139 67.35040545463562,57.984066009521484 67.69975423812866,57.99804925918579 68.05086731910706,58.00936818122864 68.40376257896423,58.017802238464355 68.75865459442139,58.02290439605713 69.11576986312866,58.024680614471436 70.52889466285706,58.084940910339355 71.91361784934998,58.251285552978516 73.26682209968567,58.50197672843933 74.58451986312866,58.815693855285645 75.86381435394287,59.17069911956787 77.10093855857849,59.545230865478516 78.29234600067139,59.91809964179993 79.43536639213562,60.26722192764282 79.60116267204285,60.31605005264282 79.76607084274292,60.36354899406433 79.9298644065857,60.40993332862854 80.09232878684998,60.45510172843933 80.25346398353577,60.49893498420715 80.41326403617859,60.54154634475708 80.5712878704071,60.58260798454285 80.72798252105713,60.622334480285645 81.13658428192139,59.36190485954285 81.49524927139282,58.07994604110718 81.80264830589294,56.77778720855713 82.0574402809143,55.45632243156433 82.25808143615723,54.1167676448822 82.40345120429993,52.76011824607849 82.49156475067139,51.387494802474976 82.5213074684143,50.0 82.49178528785706,48.612505197525024 82.40345120429993,47.23987877368927 82.25808143615723,45.88323533535004 82.0574402809143,44.54367756843567 81.80264830589294,43.22221279144287 81.49502873420715,41.92005395889282 81.13636374473572,40.63809514045715 80.72798252105713,39.37766253948212 80.5712878704071,39.41739201545715 80.41304349899292,39.45845067501068 64.46732878684998,40.22460877895355 64.64200019836426,40.05493223667145 64.8175597190857,39.884477853775024 64.99311923980713,39.712801575660706 65.16912579536438,39.54024016857147 65.34534692764282,39.36667740345001 65.52157402038574,39.19233977794647 65.69780111312866,39.01678025722504 65.87358117103577,38.84055316448212 67.05943942070007,37.702637910842896 68.25883388519287,36.63296699523926 69.45711970329285,35.62544286251068 70.64098119735718,34.67429280281067 71.79620862007141,33.77319276332855 72.90882468223572,32.916370034217834 73.96484613418579,32.09739029407501 74.95028376579285,31.310370564460754 75.08389353752136,31.20061755180359 75.21528601646423,31.091642379760742 75.34512877464294,30.9829980134964 75.47274231910706,30.87480068206787 75.59858560562134,30.767157673835754 75.72287917137146,30.65984547138214 75.84517002105713,30.552977323532104 75.96591114997864,30.446556210517883 75.26456117630005,29.549893736839294 74.5330274105072,28.6788672208786 73.77175092697144,27.834251523017883 72.98162579536438,27.01682448387146 72.16375470161438,26.227140426635742 71.31924629211426,25.466307997703552 70.44833302497864,24.73466396331787 69.5525586605072,24.033203721046448 69.44580078125,24.153275787830353 69.33882236480713,24.275679886341095 69.23140287399292,24.399857223033905 69.12375688552856,24.52603429555893 69.01589035987854,24.654097855091095 68.90713572502136,24.783936142921448 68.798828125,24.915549159049988 68.68963241577148,25.048828125 67.90216565132141,26.03415846824646 67.08296537399292,27.090176939964294 66.22558832168579,28.20245921611786 65.32448530197144,29.357576370239258 64.37322497367859,30.54121434688568 63.36581110954285,31.739389896392822 62.295812368392944,32.93823301792145 61.15766763687134,34.12375748157501 60.98099946975708,34.300535917282104 60.805439949035645,34.47709381580353 60.63076853752136,34.65354144573212 60.45721173286438,34.82987880706787 60.28453707695007,35.00588238239288 60.11297106742859,35.18177270889282 59.94229316711426,35.35733222961426 59.77272987365723,35.532671213150024 64.46732878684998,40.22460877895355 80.41304349899292,39.45845067501068 80.25346398353577,39.50106501579285 80.09232878684998,39.54489827156067 79.9298644065857,39.59006667137146 79.76607084274292,39.63645100593567 79.60116267204285,39.68406021595001 79.43536639213562,39.73277807235718 78.29256653785706,40.08200764656067 77.10093855857849,40.45454561710358 75.8635938167572,40.82930088043213 74.58451986312866,41.18430316448212 73.26682209968567,41.49802327156067 71.91361784934998,41.748711466789246 70.52889466285706,41.91506206989288 69.11576986312866,41.975319385528564 68.75865459442139,41.97709560394287 68.40376257896423,41.98231101036072 68.05086731910706,41.990745067596436 67.69975423812866,42.00195372104645 67.35040545463562,42.015936970710754 67.00239777565002,42.03224778175354 66.65571928024292,42.05078184604645 66.3103699684143,42.07119941711426 67.14133620262146,42.900389432907104 67.14133620262146,57.099610567092896 57.09872245788574,32.85689055919647 57.92613625526428,33.68785381317139 64.88236784934998,14.769619703292847 71.37695550918579,18.294788897037506 77.03568935394287,22.963644564151764 81.7047655582428,28.62226963043213 85.23015975952148,35.11707782745361 87.45827674865723,42.29425489902496 88.23508620262146,50.0 87.45827674865723,57.7057421207428 85.22993326187134,64.88303542137146 81.7047655582428,71.37795090675354 77.03568935394287,77.0367980003357 71.37672901153564,81.70576691627502 64.8821473121643,85.23115515708923 57.70530104637146,87.45916485786438 50.0,88.23597431182861 42.29381084442139,87.45916485786438 35.116299986839294,85.23115515708923 28.62149178981781,81.70587420463562 22.96297997236252,77.0367980003357 18.294566869735718,71.37784361839294 14.769397675991058,64.88303542137146 12.541504204273224,57.7057421207428 11.7649145424366,50.0 12.541726231575012,42.29425489902496 14.76917564868927,35.11707782745361 18.29434484243393,28.62226963043213 22.96297997236252,22.963644564151764 28.62149178981781,18.294788897037506 35.116299986839294,14.769509434700012 42.29381084442139,12.541836500167847" stroke="white" stroke-width="0.1" /></svg>