<?xml version="1.0" encoding="utf-8" ?>
<svg baseProfile="full" height="85.89982390403748" version="1.1" width="99.99593496322632" xmlns="http://www.w3.org/2000/svg" xmlns:ev="http://www.w3.org/2001/xml-events" xmlns:xlink="http://www.w3.org/1999/xlink"><defs><clipPath /></defs><polygon points="74.21742677688599,74.48262572288513 74.21742677688599,74.48262572288513 74.21742677688599,74.48262572288513 74.21742677688599,74.48262572288513 74.94142651557922,75.64437985420227 74.94142651557922,75.64437985420227 75.54839253425598,76.84945464134216 75.54839253425598,76.84945464134216 75.9965181350708,78.0820906162262 75.9965181350708,78.0820906162262 76.24402046203613,79.32631373405457 76.24402046203613,79.32631373405457 76.24951004981995,80.56631684303284 76.24951004981995,80.56631684303284 75.97099542617798,81.7862868309021 75.97099542617798,81.7862868309021 75.36739110946655,82.97047019004822 75.36739110946655,82.97047019004822 74.39639568328857,84.10288691520691 74.39639568328857,84.10288691520691 73.69517087936401,84.66928005218506 73.69517087936401,84.66928005218506 72.96130657196045,85.09361147880554 72.96130657196045,85.09361147880554 72.19836115837097,85.39637923240662 72.19836115837097,85.39637923240662 71.40968441963196,85.59807538986206 71.40968441963196,85.59807538986206 70.5985426902771,85.719233751297 70.5985426902771,85.719233751297 69.76848244667053,85.78039407730103 69.76848244667053,85.78039407730103 68.92256140708923,85.8020544052124 68.92256140708923,85.8020544052124 68.0642306804657,85.80470085144043 68.0642306804657,85.80470085144043 59.88057851791382,85.80470085144043 59.88057851791382,85.80470085144043 59.23284292221069,85.81364750862122 59.23284292221069,85.81364750862122 58.56944918632507,85.83398461341858 58.56944918632507,85.83398461341858 57.89608359336853,85.85605025291443 57.89608359336853,85.85605025291443 57.21824765205383,85.87038516998291 57.21824765205383,85.87038516998291 56.54132962226868,85.86723804473877 56.54132962226868,85.86723804473877 55.871015787124634,85.83693504333496 55.871015787124634,85.83693504333496 55.212706327438354,85.76997518539429 55.212706327438354,85.76997518539429 54.57178354263306,85.65664291381836 54.57178354263306,85.65664291381836 53.1208336353302,85.1000189781189 53.1208336353302,85.1000189781189 51.7910897731781,84.16369557380676 51.7910897731781,84.16369557380676 50.572288036346436,82.93970823287964 50.572288036346436,82.93970823287964 49.454355239868164,81.52007460594177 49.454355239868164,81.52007460594177 48.42712879180908,79.99667525291443 48.42712879180908,79.99667525291443 47.48043715953827,78.46158146858215 47.48043715953827,78.46158146858215 46.60390615463257,77.00671553611755 46.60390615463257,77.00671553611755 45.78777849674225,75.72399973869324 45.78777849674225,75.72399973869324 39.26038146018982,66.07933044433594 39.26038146018982,66.07933044433594 32.31159746646881,76.27879977226257 32.31159746646881,76.27879977226257 31.42378032207489,77.66156792640686 31.42378032207489,77.66156792640686 30.478817224502563,79.1976273059845 30.478817224502563,79.1976273059845 29.45728302001953,80.78285455703735 29.45728302001953,80.78285455703735 28.339555859565735,82.31322169303894 28.339555859565735,82.31322169303894 27.10641622543335,83.68460536003113 27.10641622543335,83.68460536003113 25.73813498020172,84.79303121566772 25.73813498020172,84.79303121566772 24.215495586395264,85.53447127342224 24.215495586395264,85.53447127342224 22.51887321472168,85.80470085144043 22.51887321472168,85.80470085144043 20.894548296928406,85.86682677268982 20.894548296928406,85.86682677268982 19.26574856042862,85.89601516723633 19.26574856042862,85.89601516723633 17.633900046348572,85.89982390403748 17.633900046348572,85.89982390403748 16.000422835350037,85.88584661483765 16.000422835350037,85.88584661483765 14.366641640663147,85.86174249649048 14.366641640663147,85.86174249649048 12.733876705169678,85.83510518074036 12.733876705169678,85.83510518074036 11.103653907775879,85.81359386444092 11.103653907775879,85.81359386444092 9.477092325687408,85.80470085144043 9.477092325687408,85.80470085144043 7.413587719202042,85.56960225105286 7.413587719202042,85.56960225105286 5.615787208080292,84.90620255470276 5.615787208080292,84.90620255470276 4.140228405594826,83.8774025440216 4.140228405594826,83.8774025440216 3.043448179960251,82.54608511924744 3.043448179960251,82.54608511924744 2.382085472345352,80.97504377365112 2.382085472345352,80.97504377365112 2.212677337229252,79.22716736793518 2.212677337229252,79.22716736793518 2.591862715780735,77.36525535583496 2.591862715780735,77.36525535583496 3.5760771483182907,75.4522979259491 3.5760771483182907,75.4522979259491 23.965248465538025,45.509567856788635 23.965248465538025,45.509567856788635 24.180415272712708,45.202627778053284 24.180415272712708,45.202627778053284 24.344737827777863,44.968751072883606 24.344737827777863,44.968751072883606 24.455474317073822,44.78388726711273 24.455474317073822,44.78388726711273 24.50987547636032,44.62409019470215 24.50987547636032,44.62409019470215 24.505198001861572,44.46530640125275 24.505198001861572,44.46530640125275 24.438899755477905,44.28364634513855 24.438899755477905,44.28364634513855 24.3079274892807,44.05515789985657 24.3079274892807,44.05515789985657 24.110047519207,43.75569522380829 24.110047519207,43.75569522380829 23.634159564971924,43.055182695388794 23.634159564971924,43.055182695388794 23.158474266529083,42.35461950302124 23.158474266529083,42.35461950302124 22.68289178609848,41.65395498275757 22.68289178609848,41.65395498275757 22.207307815551758,40.95323979854584 22.207307815551758,40.95323979854584 21.731624007225037,40.252524614334106 21.731624007225037,40.252524614334106 21.256141364574432,39.55191373825073 21.256141364574432,39.55191373825073 20.780354738235474,38.85129988193512 20.780354738235474,38.85129988193512 20.304568111896515,38.150787353515625 20.304568111896515,38.150787353515625 18.757829070091248,35.87196469306946 18.757829070091248,35.87196469306946 17.2110915184021,33.592987060546875 17.2110915184021,33.592987060546875 15.664148330688477,31.313958764076233 15.664148330688477,31.313958764076233 14.117206633090973,29.03488278388977 14.117206633090973,29.03488278388977 12.57026493549347,26.75580382347107 12.57026493549347,26.75580382347107 11.023322492837906,24.476777017116547 11.023322492837906,24.476777017116547 9.47648212313652,22.197851538658142 9.47648212313652,22.197851538658142 7.929845154285431,19.918976724147797 7.929845154285431,19.918976724147797 2.9415592551231384,12.571586668491364 2.9415592551231384,12.571586668491364 2.611284703016281,12.097630649805069 2.611284703016281,12.097630649805069 2.2654522210359573,11.616250872612 2.2654522210359573,11.616250872612 1.9141286611557007,11.1271433532238 1.9141286611557007,11.1271433532238 1.5677876770496368,10.629799216985703 1.5677876770496368,10.629799216985703 1.2364961206912994,10.12396514415741 1.2364961206912994,10.12396514415741 0.930219329893589,9.609181433916092 0.930219329893589,9.609181433916092 0.6595324259251356,9.085094183683395 0.6595324259251356,9.085094183683395 0.43440060690045357,8.551347255706787 0.43440060690045357,8.551347255706787 0.0213539635296911,6.7559875547885895 0.0213539635296911,6.7559875547885895 0.11673499830067158,5.1303911954164505 0.11673499830067158,5.1303911954164505 0.6504823919385672,3.695964440703392 0.6504823919385672,3.695964440703392 1.5521280467510223,2.47421246021986 1.5521280467510223,2.47421246021986 2.7514073997735977,1.4865917153656483 2.7514073997735977,1.4865917153656483 4.17846217751503,0.7545575499534607 4.17846217751503,0.7545575499534607 5.762417986989021,0.2996164374053478 5.762417986989021,0.2996164374053478 7.433619350194931,0.1431732438504696 7.433619350194931,0.1431732438504696 17.717687785625458,0.1431732438504696 17.717687785625458,0.1431732438504696 18.85758340358734,0.14627465279772878 18.85758340358734,0.14627465279772878 19.978564977645874,0.178966554813087 19.978564977645874,0.178966554813087 21.069854497909546,0.2763304626569152 21.069854497909546,0.2763304626569152 22.120468318462372,0.47344788908958435 22.120468318462372,0.47344788908958435 23.119528591632843,0.8054003119468689 23.119528591632843,0.8054003119468689 24.056358635425568,1.3072692789137363 24.056358635425568,1.3072692789137363 24.91997331380844,2.01413631439209 24.91997331380844,2.01413631439209 25.699597597122192,2.9610829427838326 25.699597597122192,2.9610829427838326 26.193177700042725,3.6858975887298584 26.193177700042725,3.6858975887298584 26.68655514717102,4.410712048411369 26.68655514717102,4.410712048411369 27.179834246635437,5.13552650809288 27.179834246635437,5.13552650809288 27.673110365867615,5.860340967774391 27.673110365867615,5.860340967774391 28.166386485099792,6.585155427455902 28.166386485099792,6.585155427455902 28.65966260433197,7.309970259666443 28.65966260433197,7.309970259666443 29.153141379356384,8.034784346818924 29.153141379356384,8.034784346818924 29.646623134613037,8.759599179029465 29.646623134613037,8.759599179029465 30.84803819656372,10.52582636475563 30.84803819656372,10.52582636475563 32.049450278282166,12.29190081357956 32.049450278282166,12.29190081357956 33.25117230415344,14.05792385339737 33.25117230415344,14.05792385339737 34.45289134979248,15.82389622926712 34.45289134979248,15.82389622926712 35.65461039543152,17.58987009525299 35.65461039543152,17.58987009525299 36.85653507709503,19.35584247112274 36.85653507709503,19.35584247112274 38.05835545063019,21.12196832895279 38.05835545063019,21.12196832895279 39.26038146018982,22.888194024562836 39.26038146018982,22.888194024562836 40.67523181438446,20.797234773635864 40.67523181438446,20.797234773635864 42.09008514881134,18.706224858760834 42.09008514881134,18.706224858760834 43.50493848323822,16.615112125873566 43.50493848323822,16.615112125873566 44.9197918176651,14.523948729038239 44.9197918176651,14.523948729038239 46.33464217185974,12.432786077260971 46.33464217185974,12.432786077260971 47.74959683418274,10.341622680425644 47.74959683418274,10.341622680425644 49.1643488407135,8.250612020492554 49.1643488407135,8.250612020492554 50.57920217514038,6.1597030609846115 50.57920217514038,6.1597030609846115 51.06881856918335,5.413128063082695 51.06881856918335,5.413128063082695 51.56463384628296,4.638589173555374 51.56463384628296,4.638589173555374 52.078449726104736,3.8597289472818375 52.078449726104736,3.8597289472818375 52.622467279434204,3.099985420703888 52.622467279434204,3.099985420703888 53.20858359336853,2.3828480392694473 53.20858359336853,2.3828480392694473 53.84849309921265,1.7319081351161003 53.84849309921265,1.7319081351161003 54.55428957939148,1.1705530807375908 54.55428957939148,1.1705530807375908 55.33808469772339,0.7223740685731173 55.33808469772339,0.7223740685731173 56.32341504096985,0.3658137284219265 56.32341504096985,0.3658137284219265 57.39172697067261,0.14454599004238844 57.39172697067261,0.14454599004238844 58.51789116859436,0.03147167444694787 58.51789116859436,0.03147167444694787 59.67680215835571,-0.00040674217416381 59.67680215835571,-0.00040674217416381 60.8431339263916,0.021862391440663487 60.8431339263916,0.021862391440663487 61.99187636375427,0.07123072282411158 61.99187636375427,0.07123072282411158 63.0975067615509,0.12070073280483484 63.0975067615509,0.12070073280483484 64.1351044178009,0.1431732438504696 64.1351044178009,0.1431732438504696 65.13416171073914,0.13768222415819764 65.13416171073914,0.13768222415819764 66.13566279411316,0.12441226281225681 66.13566279411316,0.12441226281225681 67.13889241218567,0.10799004230648279 67.13889241218567,0.10799004230648279 68.14273595809937,0.09314395138062537 68.14273595809937,0.09314395138062537 69.14657354354858,0.08455152856186032 69.14657354354858,0.08455152856186032 70.14919519424438,0.08689029491506517 70.14919519424438,0.08689029491506517 71.14987969398499,0.1048886333592236 71.14987969398499,0.1048886333592236 72.14792370796204,0.1431732438504696 72.14792370796204,0.1431732438504696 73.30653071403503,0.2546714385971427 73.30653071403503,0.2546714385971427 74.40310716629028,0.5754384677857161 74.40310716629028,0.5754384677857161 75.41406154632568,1.0847813449800014 75.41406154632568,1.0847813449800014 76.31540298461914,1.7622103914618492 76.31540298461914,1.7622103914618492 77.08384394645691,2.587032690644264 77.08384394645691,2.587032690644264 77.6956856250763,3.538656607270241 77.6956856250763,3.538656607270241 78.1273365020752,4.596542194485664 78.1273365020752,4.596542194485664 78.354811668396,5.73994517326355 78.354811668396,5.73994517326355 78.4128725528717,6.362311542034149 78.4128725528717,6.362311542034149 78.4395158290863,6.8724170327186584 78.4395158290863,6.8724170327186584 78.41795682907104,7.27936252951622 78.41795682907104,7.27936252951622 78.3318281173706,7.5920455157756805 78.3318281173706,7.5920455157756805 78.16445231437683,7.819566875696182 78.16445231437683,7.819566875696182 77.89925932884216,7.9709261655807495 77.89925932884216,7.9709261655807495 77.5197684764862,8.055121451616287 77.5197684764862,8.055121451616287 77.00930833816528,8.08115303516388 77.00930833816528,8.08115303516388 74.88499283790588,8.072662353515625 74.88499283790588,8.072662353515625 72.7578341960907,8.052071183919907 72.7578341960907,8.052071183919907 70.62874436378479,8.026649802923203 70.62874436378479,8.026649802923203 68.4990406036377,8.003668487071991 68.4990406036377,8.003668487071991 66.3693368434906,7.9903483390808105 66.3693368434906,7.9903483390808105 64.24095630645752,7.994008809328079 64.24095630645752,7.994008809328079 62.11440563201904,8.021768927574158 62.11440563201904,8.021768927574158 59.9912166595459,8.08115303516388 59.9912166595459,8.08115303516388 58.32062363624573,8.254527300596237 58.32062363624573,8.254527300596237 56.76473379135132,8.750345557928085 56.76473379135132,8.750345557928085 55.3568959236145,9.532104432582855 55.3568959236145,9.532104432582855 54.13046479225159,10.56329756975174 54.13046479225159,10.56329756975174 53.118592500686646,11.807521432638168 53.118592500686646,11.807521432638168 52.35452651977539,13.228271901607513 52.35452651977539,13.228271901607513 51.87172293663025,14.789144694805145 51.87172293663025,14.789144694805145 51.70343518257141,16.453534364700317 51.70343518257141,16.453534364700317 51.70343518257141,20.397305488586426 51.70343518257141,20.397305488586426 51.70343518257141,61.26675605773926 51.70343518257141,61.26675605773926 51.67109966278076,62.735605239868164 51.67109966278076,62.735605239868164 51.60256624221802,64.3177330493927 51.60256624221802,64.3177330493927 51.54094099998474,65.96981287002563 51.54094099998474,65.96981287002563 51.528942584991455,67.64833927154541 51.528942584991455,67.64833927154541 51.60948038101196,69.31003332138062 51.60948038101196,69.31003332138062 51.82566046714783,70.91147899627686 51.82566046714783,70.91147899627686 52.22010016441345,72.40940928459167 52.22010016441345,72.40940928459167 52.83580422401428,73.76024723052979 52.83580422401428,73.76024723052979 53.773653507232666,75.06487369537354 53.773653507232666,75.06487369537354 54.84694242477417,76.05976462364197 54.84694242477417,76.05976462364197 56.037479639053345,76.78671479225159 56.037479639053345,76.78671479225159 57.32664465904236,77.28772163391113 57.32664465904236,77.28772163391113 58.69635343551636,77.60452032089233 58.69635343551636,77.60452032089233 60.127878189086914,77.77896523475647 60.127878189086914,77.77896523475647 61.603134870529175,77.85298824310303 61.603134870529175,77.85298824310303 63.103604316711426,77.86834836006165 63.103604316711426,77.86834836006165 64.6477997303009,77.87673473358154 64.6477997303009,77.87673473358154 66.18447303771973,77.86692380905151 66.18447303771973,77.86692380905151 67.69542098045349,77.78633832931519 67.69542098045349,77.78633832931519 69.16202902793884,77.58240699768066 69.16202902793884,77.58240699768066 70.56600451469421,77.20261216163635 70.56600451469421,77.20261216163635 71.88882827758789,76.59443020820618 71.88882827758789,76.59443020820618 73.11210632324219,75.70524215698242 73.11210632324219,75.70524215698242" stroke="white" stroke-width="0.1" /><polygon points="98.64473342895508,24.90563541650772 98.64473342895508,24.90563541650772 98.64473342895508,24.90563541650772 98.64473342895508,24.90563541650772 99.70338344573975,28.325727581977844 99.70338344573975,28.325727581977844 99.99593496322632,31.78766369819641 99.99593496322632,31.78766369819641 99.57587122917175,35.19001007080078 99.57587122917175,35.19001007080078 98.49607348442078,38.43143880367279 98.49607348442078,38.43143880367279 96.80992364883423,41.41052067279816 96.80992364883423,41.41052067279816 94.57070231437683,44.02576982975006 94.57070231437683,44.02576982975006 91.8313980102539,46.176013350486755 91.8313980102539,46.176013350486755 88.64538669586182,47.7596640586853 88.64538669586182,47.7596640586853 86.79887652397156,48.318374156951904 86.79887652397156,48.318374156951904 84.87000465393066,48.67788553237915 84.87000465393066,48.67788553237915 82.88245797157288,48.876628279685974 82.88245797157288,48.876628279685974 80.86013793945312,48.953044414520264 80.86013793945312,48.953044414520264 78.82673144340515,48.94557297229767 78.82673144340515,48.94557297229767 76.80613994598389,48.89264404773712 76.80613994598389,48.89264404773712 74.82184767723083,48.83269965648651 74.82184767723083,48.83269965648651 72.89795875549316,48.80417883396149 72.89795875549316,48.80417883396149 69.63425874710083,48.80417883396149 69.63425874710083,48.80417883396149 69.6202278137207,48.869359493255615 69.6202278137207,48.869359493255615 69.61168050765991,49.04227554798126 69.61168050765991,49.04227554798126 69.60761547088623,49.28860664367676 69.60761547088623,49.28860664367676 69.60659623146057,49.57413971424103 69.60659623146057,49.57413971424103 69.60781812667847,49.86475706100464 69.60781812667847,49.86475706100464 69.60995197296143,50.12614130973816 69.60995197296143,50.12614130973816 69.61209177970886,50.32417178153992 69.61209177970886,50.32417178153992 69.61310505867004,50.424641370773315 69.61310505867004,50.424641370773315 69.61310505867004,60.773783922195435 69.61310505867004,60.773783922195435 69.61310505867004,67.6900327205658 69.61310505867004,67.6900327205658 69.61727738380432,68.30222606658936 69.61727738380432,68.30222606658936 69.60904002189636,68.95560622215271 69.60904002189636,68.95560622215271 69.5578932762146,69.6122407913208 69.5578932762146,69.6122407913208 69.43251490592957,70.23440599441528 69.43251490592957,70.23440599441528 69.20209527015686,70.7841694355011 69.20209527015686,70.7841694355011 68.83623003959656,71.2237536907196 68.83623003959656,71.2237536907196 68.30329298973083,71.5151846408844 68.30329298973083,71.5151846408844 67.57288575172424,71.62078619003296 67.57288575172424,71.62078619003296 67.14906096458435,71.68012261390686 67.14906096458435,71.68012261390686 66.70815348625183,71.70792818069458 66.70815348625183,71.70792818069458 66.25585556030273,71.71159386634827 66.25585556030273,71.71159386634827 65.79746007919312,71.69827222824097 65.79746007919312,71.69827222824097 65.33824801445007,71.67528867721558 65.33824801445007,71.67528867721558 64.88361358642578,71.64981961250305 64.88361358642578,71.64981961250305 64.43904042243958,71.62927985191345 64.43904042243958,71.62927985191345 64.00982737541199,71.62078619003296 64.00982737541199,71.62078619003296 63.08855414390564,71.64732813835144 63.08855414390564,71.64732813835144 62.0918333530426,71.68906927108765 62.0918333530426,71.68906927108765 61.08108162879944,71.68927192687988 61.08108162879944,71.68927192687988 60.11710166931152,71.59109115600586 60.11710166931152,71.59109115600586 59.26111340522766,71.33784890174866 59.26111340522766,71.33784890174866 58.57391953468323,70.87263464927673 58.57391953468323,70.87263464927673 58.11684727668762,70.13871669769287 58.11684727668762,70.13871669769287 57.9509973526001,69.0794587135315 57.9509973526001,69.0794587135315 57.9509973526001,60.03351807594299 57.9509973526001,60.03351807594299 57.9509973526001,44.74814534187317 57.9509973526001,44.74814534187317 57.9509973526001,30.207926034927368 57.9509973526001,30.207926034927368 57.9509973526001,19.49433833360672 57.9509973526001,19.49433833360672 57.93136954307556,18.7673881649971 57.93136954307556,18.7673881649971 57.902592420578,17.945261299610138 57.902592420578,17.945261299610138 57.9098105430603,17.08703488111496 57.9098105430603,17.08703488111496 57.9981803894043,16.25199317932129 57.9981803894043,16.25199317932129 58.21273326873779,15.49941897392273 58.21273326873779,15.49941897392273 58.59893560409546,14.888492226600647 58.59893560409546,14.888492226600647 59.20162796974182,14.478546380996704 59.20162796974182,14.478546380996704 60.06605625152588,14.328712224960327 60.06605625152588,14.328712224960327 75.03741979598999,14.328712224960327 75.03741979598999,14.328712224960327 76.19745135307312,14.320476353168488 76.19745135307312,14.320476353168488 77.36286520957947,14.301155507564545 77.36286520957947,14.301155507564545 78.53143811225891,14.278683066368103 78.53143811225891,14.278683066368103 79.70173358917236,14.260990917682648 79.70173358917236,14.260990917682648 80.87162971496582,14.256007969379425 80.87162971496582,14.256007969379425 82.03908205032349,14.271768927574158 82.03908205032349,14.271768927574158 83.20256471633911,14.316104352474213 83.20256471633911,14.316104352474213 84.35994982719421,14.397045969963074 84.35994982719421,14.397045969963074 86.68346405029297,14.772163331508636 86.68346405029297,14.772163331508636 88.90265226364136,15.463116765022278 88.90265226364136,15.463116765022278 90.9932017326355,16.446110606193542 90.9932017326355,16.446110606193542 92.930006980896,17.697148025035858 92.930006980896,17.697148025035858 94.68835592269897,19.19248402118683 94.68835592269897,19.19248402118683 96.24342918395996,20.90822458267212 96.24342918395996,20.90822458267212 97.57042527198792,22.820574045181274 97.57042527198792,22.820574045181274" stroke="white" stroke-width="0.1" /><polygon points="87.92301416397095,33.6766242980957 87.92301416397095,33.6766242980957 87.92301416397095,33.6766242980957 87.92301416397095,33.6766242980957 88.32548260688782,32.25567042827606 88.32548260688782,32.25567042827606 88.31897377967834,30.873051285743713 88.31897377967834,30.873051285743713 87.95341849327087,29.575341939926147 87.95341849327087,29.575341939926147 87.27852702140808,28.409108519554138 87.27852702140808,28.409108519554138 86.34424209594727,27.420979738235474 86.34424209594727,27.420979738235474 85.20068526268005,26.657474040985107 85.20068526268005,26.657474040985107 83.8972806930542,26.16526484489441 83.8972806930542,26.16526484489441 82.48405456542969,25.990822911262512 82.48405456542969,25.990822911262512 75.97943544387817,25.990822911262512 75.97943544387817,25.990822911262512 69.79695558547974,25.990822911262512 69.79695558547974,25.990822911262512 69.67137455940247,26.151639223098755 69.67137455940247,26.151639223098755 69.59521174430847,26.579633355140686 69.59521174430847,26.579633355140686 69.55860257148743,27.193152904510498 69.55860257148743,27.193152904510498 69.55128312110901,27.9106467962265 69.55128312110901,27.9106467962265 69.56318020820618,28.65040898323059 69.56318020820618,28.65040898323059 69.58412528038025,29.3307363986969 69.58412528038025,29.3307363986969 69.60425972938538,29.87002432346344 69.60425972938538,29.87002432346344 69.61310505867004,30.18677532672882 69.61310505867004,30.18677532672882 69.61310505867004,37.04444766044617 69.61310505867004,37.04444766044617 69.77539658546448,37.11085021495819 69.77539658546448,37.11085021495819 70.20633816719055,37.151217460632324 70.20633816719055,37.151217460632324 70.82214951515198,37.17094659805298 70.82214951515198,37.17094659805298 71.53862714767456,37.175217270851135 71.53862714767456,37.175217270851135 72.27177619934082,37.16931939125061 72.27177619934082,37.16931939125061 72.93791770935059,37.15859055519104 72.93791770935059,37.15859055519104 73.45275282859802,37.14827001094818 73.45275282859802,37.14827001094818 73.732590675354,37.14369535446167 73.732590675354,37.14369535446167 75.50944685935974,37.19901144504547 75.50944685935974,37.19901144504547 77.48844623565674,37.30252683162689 77.48844623565674,37.30252683162689 79.56822514533997,37.36023306846619 79.56822514533997,37.36023306846619 81.6471815109253,37.278324365615845 81.6471815109253,37.278324365615845 83.62364768981934,36.96284592151642 83.62364768981934,36.96284592151642 85.3963315486908,36.32003962993622 85.3963315486908,36.32003962993622 86.86314225196838,35.255953669548035 86.86314225196838,35.255953669548035" stroke="white" stroke-width="0.1" /><polygon points="74.21742677688599,74.48262572288513 74.21742677688599,74.48262572288513 74.94142651557922,75.64437985420227 75.54839253425598,76.84945464134216 75.9965181350708,78.0820906162262 76.24402046203613,79.32631373405457 76.24951004981995,80.56631684303284 75.97099542617798,81.7862868309021 75.36739110946655,82.97047019004822 74.39639568328857,84.10288691520691 73.69517087936401,84.66928005218506 72.96130657196045,85.09361147880554 72.19836115837097,85.39637923240662 71.40968441963196,85.59807538986206 70.5985426902771,85.719233751297 69.76848244667053,85.78039407730103 68.92256140708923,85.8020544052124 68.0642306804657,85.80470085144043 59.88057851791382,85.80470085144043 59.23284292221069,85.81364750862122 58.56944918632507,85.83398461341858 57.89608359336853,85.85605025291443 57.21824765205383,85.87038516998291 56.54132962226868,85.86723804473877 55.871015787124634,85.83693504333496 55.212706327438354,85.76997518539429 54.57178354263306,85.65664291381836 53.1208336353302,85.1000189781189 51.7910897731781,84.16369557380676 50.572288036346436,82.93970823287964 49.454355239868164,81.52007460594177 48.42712879180908,79.99667525291443 47.48043715953827,78.46158146858215 46.60390615463257,77.00671553611755 45.78777849674225,75.72399973869324 39.26038146018982,66.07933044433594 32.31159746646881,76.27879977226257 31.42378032207489,77.66156792640686 30.478817224502563,79.1976273059845 29.45728302001953,80.78285455703735 28.339555859565735,82.31322169303894 27.10641622543335,83.68460536003113 25.73813498020172,84.79303121566772 24.215495586395264,85.53447127342224 22.51887321472168,85.80470085144043 20.894548296928406,85.86682677268982 19.26574856042862,85.89601516723633 17.633900046348572,85.89982390403748 16.000422835350037,85.88584661483765 14.366641640663147,85.86174249649048 12.733876705169678,85.83510518074036 11.103653907775879,85.81359386444092 9.477092325687408,85.80470085144043 7.413587719202042,85.56960225105286 5.615787208080292,84.90620255470276 4.140228405594826,83.8774025440216 3.043448179960251,82.54608511924744 2.382085472345352,80.97504377365112 2.212677337229252,79.22716736793518 2.591862715780735,77.36525535583496 3.5760771483182907,75.4522979259491 23.965248465538025,45.509567856788635 24.180415272712708,45.202627778053284 24.344737827777863,44.968751072883606 24.455474317073822,44.78388726711273 24.50987547636032,44.62409019470215 24.505198001861572,44.46530640125275 24.438899755477905,44.28364634513855 24.3079274892807,44.05515789985657 24.110047519207,43.75569522380829 23.634159564971924,43.055182695388794 23.158474266529083,42.35461950302124 22.68289178609848,41.65395498275757 22.207307815551758,40.95323979854584 21.731624007225037,40.252524614334106 21.256141364574432,39.55191373825073 20.780354738235474,38.85129988193512 20.304568111896515,38.150787353515625 18.757829070091248,35.87196469306946 17.2110915184021,33.592987060546875 15.664148330688477,31.313958764076233 14.117206633090973,29.03488278388977 12.57026493549347,26.75580382347107 11.023322492837906,24.476777017116547 9.47648212313652,22.197851538658142 7.929845154285431,19.918976724147797 2.9415592551231384,12.571586668491364 2.611284703016281,12.097630649805069 2.2654522210359573,11.616250872612 1.9141286611557007,11.1271433532238 1.5677876770496368,10.629799216985703 1.2364961206912994,10.12396514415741 0.930219329893589,9.609181433916092 0.6595324259251356,9.085094183683395 0.43440060690045357,8.551347255706787 0.0213539635296911,6.7559875547885895 0.11673499830067158,5.1303911954164505 0.6504823919385672,3.695964440703392 1.5521280467510223,2.47421246021986 2.7514073997735977,1.4865917153656483 4.17846217751503,0.7545575499534607 5.762417986989021,0.2996164374053478 7.433619350194931,0.1431732438504696 17.717687785625458,0.1431732438504696 18.85758340358734,0.14627465279772878 19.978564977645874,0.178966554813087 21.069854497909546,0.2763304626569152 22.120468318462372,0.47344788908958435 23.119528591632843,0.8054003119468689 24.056358635425568,1.3072692789137363 24.91997331380844,2.01413631439209 25.699597597122192,2.9610829427838326 26.193177700042725,3.6858975887298584 26.68655514717102,4.410712048411369 27.179834246635437,5.13552650809288 27.673110365867615,5.860340967774391 28.166386485099792,6.585155427455902 28.65966260433197,7.309970259666443 29.153141379356384,8.034784346818924 29.646623134613037,8.759599179029465 30.84803819656372,10.52582636475563 32.049450278282166,12.29190081357956 33.25117230415344,14.05792385339737 34.45289134979248,15.82389622926712 35.65461039543152,17.58987009525299 36.85653507709503,19.35584247112274 38.05835545063019,21.12196832895279 39.26038146018982,22.888194024562836 40.67523181438446,20.797234773635864 42.09008514881134,18.706224858760834 43.50493848323822,16.615112125873566 44.9197918176651,14.523948729038239 46.33464217185974,12.432786077260971 47.74959683418274,10.341622680425644 49.1643488407135,8.250612020492554 50.57920217514038,6.1597030609846115 51.06881856918335,5.413128063082695 51.56463384628296,4.638589173555374 52.078449726104736,3.8597289472818375 52.622467279434204,3.099985420703888 53.20858359336853,2.3828480392694473 53.84849309921265,1.7319081351161003 54.55428957939148,1.1705530807375908 55.33808469772339,0.7223740685731173 56.32341504096985,0.3658137284219265 57.39172697067261,0.14454599004238844 58.51789116859436,0.03147167444694787 59.67680215835571,-0.00040674217416381 60.8431339263916,0.021862391440663487 61.99187636375427,0.07123072282411158 63.0975067615509,0.12070073280483484 64.1351044178009,0.1431732438504696 65.13416171073914,0.13768222415819764 66.13566279411316,0.12441226281225681 67.13889241218567,0.10799004230648279 68.14273595809937,0.09314395138062537 69.14657354354858,0.08455152856186032 70.14919519424438,0.08689029491506517 71.14987969398499,0.1048886333592236 72.14792370796204,0.1431732438504696 73.30653071403503,0.2546714385971427 74.40310716629028,0.5754384677857161 75.41406154632568,1.0847813449800014 76.31540298461914,1.7622103914618492 77.08384394645691,2.587032690644264 77.6956856250763,3.538656607270241 78.1273365020752,4.596542194485664 78.354811668396,5.73994517326355 78.4128725528717,6.362311542034149 78.4395158290863,6.8724170327186584 78.41795682907104,7.27936252951622 78.3318281173706,7.5920455157756805 78.16445231437683,7.819566875696182 77.89925932884216,7.9709261655807495 77.5197684764862,8.055121451616287 77.00930833816528,8.08115303516388 74.88499283790588,8.072662353515625 72.7578341960907,8.052071183919907 70.62874436378479,8.026649802923203 68.4990406036377,8.003668487071991 66.3693368434906,7.9903483390808105 64.24095630645752,7.994008809328079 62.11440563201904,8.021768927574158 59.9912166595459,8.08115303516388 58.32062363624573,8.254527300596237 56.76473379135132,8.750345557928085 55.3568959236145,9.532104432582855 54.13046479225159,10.56329756975174 53.118592500686646,11.807521432638168 52.35452651977539,13.228271901607513 51.87172293663025,14.789144694805145 51.70343518257141,16.453534364700317 51.70343518257141,20.397305488586426 51.70343518257141,61.26675605773926 51.67109966278076,62.735605239868164 51.60256624221802,64.3177330493927 51.54094099998474,65.96981287002563 51.528942584991455,67.64833927154541 51.60948038101196,69.31003332138062 51.82566046714783,70.91147899627686 52.22010016441345,72.40940928459167 52.83580422401428,73.76024723052979 53.773653507232666,75.06487369537354 54.84694242477417,76.05976462364197 56.037479639053345,76.78671479225159 57.32664465904236,77.28772163391113 58.69635343551636,77.60452032089233 60.127878189086914,77.77896523475647 61.603134870529175,77.85298824310303 63.103604316711426,77.86834836006165 64.6477997303009,77.87673473358154 66.18447303771973,77.86692380905151 67.69542098045349,77.78633832931519 69.16202902793884,77.58240699768066 70.56600451469421,77.20261216163635 71.88882827758789,76.59443020820618 73.11210632324219,75.70524215698242" stroke="white" stroke-width="0.1" /><polygon points="98.64473342895508,24.90563541650772 87.92301416397095,33.6766242980957 87.92301416397095,33.6766242980957 88.32548260688782,32.25567042827606 88.31897377967834,30.873051285743713 87.95341849327087,29.575341939926147 87.27852702140808,28.409108519554138 86.34424209594727,27.420979738235474 85.20068526268005,26.657474040985107 83.8972806930542,26.16526484489441 82.48405456542969,25.990822911262512 75.97943544387817,25.990822911262512 69.79695558547974,25.990822911262512 69.67137455940247,26.151639223098755 69.59521174430847,26.579633355140686 69.55860257148743,27.193152904510498 69.55128312110901,27.9106467962265 69.56318020820618,28.65040898323059 69.58412528038025,29.3307363986969 69.60425972938538,29.87002432346344 69.61310505867004,30.18677532672882 69.61310505867004,37.04444766044617 69.77539658546448,37.11085021495819 70.20633816719055,37.151217460632324 70.82214951515198,37.17094659805298 71.53862714767456,37.175217270851135 72.27177619934082,37.16931939125061 72.93791770935059,37.15859055519104 73.45275282859802,37.14827001094818 73.732590675354,37.14369535446167 75.50944685935974,37.19901144504547 77.48844623565674,37.30252683162689 79.56822514533997,37.36023306846619 81.6471815109253,37.278324365615845 83.62364768981934,36.96284592151642 85.3963315486908,36.32003962993622 86.86314225196838,35.255953669548035 87.92301416397095,33.6766242980957 98.64473342895508,24.90563541650772 98.64473342895508,24.90563541650772 99.70338344573975,28.325727581977844 99.99593496322632,31.78766369819641 99.57587122917175,35.19001007080078 98.49607348442078,38.43143880367279 96.80992364883423,41.41052067279816 94.57070231437683,44.02576982975006 91.8313980102539,46.176013350486755 88.64538669586182,47.7596640586853 86.79887652397156,48.318374156951904 84.87000465393066,48.67788553237915 82.88245797157288,48.876628279685974 80.86013793945312,48.953044414520264 78.82673144340515,48.94557297229767 76.80613994598389,48.89264404773712 74.82184767723083,48.83269965648651 72.89795875549316,48.80417883396149 69.63425874710083,48.80417883396149 69.6202278137207,48.869359493255615 69.61168050765991,49.04227554798126 69.60761547088623,49.28860664367676 69.60659623146057,49.57413971424103 69.60781812667847,49.86475706100464 69.60995197296143,50.12614130973816 69.61209177970886,50.32417178153992 69.61310505867004,50.424641370773315 69.61310505867004,60.773783922195435 69.61310505867004,67.6900327205658 69.61727738380432,68.30222606658936 69.60904002189636,68.95560622215271 69.5578932762146,69.6122407913208 69.43251490592957,70.23440599441528 69.20209527015686,70.7841694355011 68.83623003959656,71.2237536907196 68.30329298973083,71.5151846408844 67.57288575172424,71.62078619003296 67.14906096458435,71.68012261390686 66.70815348625183,71.70792818069458 66.25585556030273,71.71159386634827 65.79746007919312,71.69827222824097 65.33824801445007,71.67528867721558 64.88361358642578,71.64981961250305 64.43904042243958,71.62927985191345 64.00982737541199,71.62078619003296 63.08855414390564,71.64732813835144 62.0918333530426,71.68906927108765 61.08108162879944,71.68927192687988 60.11710166931152,71.59109115600586 59.26111340522766,71.33784890174866 58.57391953468323,70.87263464927673 58.11684727668762,70.13871669769287 57.9509973526001,69.0794587135315 57.9509973526001,60.03351807594299 57.9509973526001,44.74814534187317 57.9509973526001,30.207926034927368 57.9509973526001,19.49433833360672 57.93136954307556,18.7673881649971 57.902592420578,17.945261299610138 57.9098105430603,17.08703488111496 57.9981803894043,16.25199317932129 58.21273326873779,15.49941897392273 58.59893560409546,14.888492226600647 59.20162796974182,14.478546380996704 60.06605625152588,14.328712224960327 75.03741979598999,14.328712224960327 76.19745135307312,14.320476353168488 77.36286520957947,14.301155507564545 78.53143811225891,14.278683066368103 79.70173358917236,14.260990917682648 80.87162971496582,14.256007969379425 82.03908205032349,14.271768927574158 83.20256471633911,14.316104352474213 84.35994982719421,14.397045969963074 86.68346405029297,14.772163331508636 88.90265226364136,15.463116765022278 90.9932017326355,16.446110606193542 92.930006980896,17.697148025035858 94.68835592269897,19.19248402118683 96.24342918395996,20.90822458267212 97.57042527198792,22.820574045181274" stroke="white" stroke-width="0.1" /></svg>