<?xml version="1.0" encoding="utf-8" ?>
<svg baseProfile="full" height="27.630233764648438" version="1.1" width="99.99947547912598" xmlns="http://www.w3.org/2000/svg" xmlns:ev="http://www.w3.org/2001/xml-events" xmlns:xlink="http://www.w3.org/1999/xlink"><defs><clipPath /></defs><polygon points="58.33606719970703,2.6853561401367188 58.33606719970703,2.6853561401367188 58.12187194824219,2.670931816101074 58.12187194824219,2.670931816101074 57.51771926879883,2.632927894592285 57.51771926879883,2.632927894592285 56.58116340637207,2.5792837142944336 56.58116340637207,2.5792837142944336 55.3697943687439,2.5177717208862305 55.3697943687439,2.5177717208862305 53.94117832183838,2.4562835693359375 53.94117832183838,2.4562835693359375 52.3529052734375,2.4026870727539062 52.3529052734375,2.4026870727539062 50.831449031829834,2.3786544799804688 50.831449031829834,2.3786544799804688 49.50888156890869,2.399134635925293 49.50888156890869,2.399134635925293 48.30148220062256,2.4614810943603516 48.30148220062256,2.4614810943603516 47.12545871734619,2.5630950927734375 47.12545871734619,2.5630950927734375 45.89707851409912,2.7013301849365234 45.89707851409912,2.7013301849365234 44.53258514404297,2.8736114501953125 44.53258514404297,2.8736114501953125 43.00196170806885,3.2243728637695312 43.00196170806885,3.2243728637695312 41.426801681518555,3.8106679916381836 41.426801681518555,3.8106679916381836 39.95106220245361,4.499030113220215 39.95106220245361,4.499030113220215 38.7187123298645,5.15594482421875 38.7187123298645,5.15594482421875 37.87374496459961,5.6479692459106445 37.87374496459961,5.6479692459106445 37.560081481933594,5.841636657714844 37.560081481933594,5.841636657714844 37.513160705566406,6.218528747558594 37.513160705566406,6.218528747558594 37.564849853515625,6.222009658813477 37.564849853515625,6.222009658813477 37.706828117370605,6.230688095092773 37.706828117370605,6.230688095092773 37.91947364807129,6.242084503173828 37.91947364807129,6.242084503173828 38.18314075469971,6.2534332275390625 38.18314075469971,6.2534332275390625 38.47818374633789,6.26215934753418 38.47818374633789,6.26215934753418 38.78498077392578,6.2656402587890625 38.78498077392578,6.2656402587890625 39.01510238647461,6.415653228759766 39.01510238647461,6.415653228759766 39.118289947509766,6.790781021118164 39.118289947509766,6.790781021118164 39.13252353668213,7.278537750244141 39.13252353668213,7.278537750244141 39.09571170806885,7.766246795654297 39.09571170806885,7.766246795654297 39.045798778533936,8.141374588012695 39.045798778533936,8.141374588012695 39.020729064941406,8.291435241699219 39.020729064941406,8.291435241699219 39.47741985321045,8.284211158752441 39.47741985321045,8.284211158752441 40.71145057678223,8.265233039855957 40.71145057678223,8.265233039855957 42.51866340637207,8.238434791564941 42.51866340637207,8.238434791564941 44.69490051269531,8.20765495300293 44.69490051269531,8.20765495300293 47.036051750183105,8.176946640014648 47.036051750183105,8.176946640014648 49.33795928955078,8.150100708007812 49.33795928955078,8.150100708007812 51.493287086486816,8.105731010437012 51.493287086486816,8.105731010437012 53.46801280975342,8.031320571899414 53.46801280975342,8.031320571899414 55.16791343688965,7.943916320800781 55.16791343688965,7.943916320800781 56.49876594543457,7.860422134399414 56.49876594543457,7.860422134399414 57.366371154785156,7.797861099243164 57.366371154785156,7.797861099243164 57.67650604248047,7.7732086181640625 57.67650604248047,7.7732086181640625" stroke="white" stroke-width="0.1" /><polygon points="63.20056915283203,13.230323791503906 63.20056915283203,13.230323791503906 62.84656524658203,13.230323791503906 62.84656524658203,13.230323791503906 59.972381591796875,18.861007690429688 59.972381591796875,18.861007690429688 60.37445068359375,18.861007690429688 60.37445068359375,18.861007690429688" stroke="white" stroke-width="0.1" /><polygon points="64.07241821289062,13.230323791503906 64.07241821289062,13.230323791503906 63.71784210205078,13.230323791503906 63.71784210205078,13.230323791503906 63.7176513671875,13.230323791503906 63.7176513671875,13.230323791503906 63.50104808807373,13.647770881652832 63.50104808807373,13.647770881652832 62.960171699523926,14.690589904785156 62.960171699523926,14.690589904785156 62.25719451904297,16.04609489440918 62.25719451904297,16.04609489440918 61.55426502227783,17.401456832885742 61.55426502227783,17.401456832885742 61.01357936859131,18.443989753723145 61.01357936859131,18.443989753723145 60.79730987548828,18.861007690429688 60.79730987548828,18.861007690429688 61.19842529296875,18.861007690429688 61.19842529296875,18.861007690429688" stroke="white" stroke-width="0.1" /><polygon points="65.03162384033203,13.230323791503906 65.03162384033203,13.230323791503906 64.69001770019531,13.230323791503906 64.69001770019531,13.230323791503906 61.5966796875,18.861007690429688 61.5966796875,18.861007690429688 62.00084686279297,18.861007690429688 62.00084686279297,18.861007690429688" stroke="white" stroke-width="0.1" /><polygon points="66.01505279541016,5.6060791015625 66.01505279541016,5.6060791015625 65.44324159622192,5.1872968673706055 65.44324159622192,5.1872968673706055 64.628005027771,4.642891883850098 64.628005027771,4.642891883850098 63.57719898223877,4.051399230957031 63.57719898223877,4.051399230957031 62.29865550994873,3.4913063049316406 62.29865550994873,3.4913063049316406 60.80026626586914,3.0411243438720703 60.80026626586914,3.0411243438720703 59.08985137939453,2.779388427734375 59.08985137939453,2.779388427734375 58.524513244628906,7.726097106933594 58.524513244628906,7.726097106933594 58.68198871612549,7.685685157775879 58.68198871612549,7.685685157775879 59.12473201751709,7.57601261138916 59.12473201751709,7.57601261138916 59.80830192565918,7.413983345031738 59.80830192565918,7.413983345031738 60.688161849975586,7.216596603393555 60.688161849975586,7.216596603393555 61.719810962677,7.000899314880371 61.719810962677,7.000899314880371 62.85877227783203,6.783866882324219 62.85877227783203,6.783866882324219 63.972580432891846,6.595182418823242 63.972580432891846,6.595182418823242 64.9228572845459,6.436586380004883 64.9228572845459,6.436586380004883 65.65592288970947,6.283235549926758 65.65592288970947,6.283235549926758 66.1180853843689,6.110286712646484 66.1180853843689,6.110286712646484 66.25570058822632,5.892848968505859 66.25570058822632,5.892848968505859" stroke="white" stroke-width="0.1" /><polygon points="29.59308624267578,21.266746520996094 29.59308624267578,21.266746520996094 28.99191379547119,21.297025680541992 28.99191379547119,21.297025680541992 28.45172882080078,21.382498741149902 28.45172882080078,21.382498741149902 27.994060516357422,21.51515483856201 27.994060516357422,21.51515483856201 27.640461921691895,21.686792373657227 27.640461921691895,21.686792373657227 27.41250991821289,21.889352798461914 27.41250991821289,21.889352798461914 27.33173370361328,22.11475372314453 27.33173370361328,22.11475372314453 27.41250991821289,22.34013080596924 27.41250991821289,22.34013080596924 27.640461921691895,22.542667388916016 27.640461921691895,22.542667388916016 27.994060516357422,22.71435260772705 27.994060516357422,22.71435260772705 28.45172882080078,22.84696102142334 28.45172882080078,22.84696102142334 28.991925716400146,22.93245792388916 28.991925716400146,22.93245792388916 29.59308624267578,22.96276092529297 29.59308624267578,22.96276092529297 30.19423484802246,22.93241024017334 30.19423484802246,22.93241024017334 30.73444366455078,22.84691333770752 30.73444366455078,22.84691333770752 31.19211196899414,22.71435260772705 31.19211196899414,22.71435260772705 31.545698642730713,22.542715072631836 31.545698642730713,22.542715072631836 31.773662567138672,22.34015464782715 31.773662567138672,22.34015464782715 31.85443878173828,22.11475372314453 31.85443878173828,22.11475372314453 31.773662567138672,21.889328956604004 31.773662567138672,21.889328956604004 31.545686721801758,21.686744689941406 31.545686721801758,21.686744689941406 31.19211196899414,21.51515483856201 31.19211196899414,21.51515483856201 30.73444366455078,21.382522583007812 30.73444366455078,21.382522583007812 30.19425868988037,21.297049522399902 30.19425868988037,21.297049522399902" stroke="white" stroke-width="0.1" /><polygon points="99.96700286865234,4.157257080078125 99.96700286865234,4.157257080078125 98.83594512939453,6.2770843505859375 98.83594512939453,6.2770843505859375 98.8210916519165,6.301975250244141 98.8210916519165,6.301975250244141 98.80378246307373,6.325078010559082 98.80378246307373,6.325078010559082 98.78420829772949,6.346297264099121 98.78420829772949,6.346297264099121 98.76255989074707,6.365346908569336 98.76255989074707,6.365346908569336 98.73905181884766,6.382155418395996 98.73905181884766,6.382155418395996 98.71387481689453,6.396484375 98.71387481689453,6.396484375 90.71979522705078,10.424232482910156 90.71979522705078,10.424232482910156 90.76123237609863,10.498547554016113 90.76123237609863,10.498547554016113 90.80924987792969,10.570645332336426 90.80924987792969,10.570645332336426 90.86441993713379,10.640501976013184 90.86441993713379,10.640501976013184 90.92721939086914,10.707950592041016 90.92721939086914,10.707950592041016 90.9982442855835,10.772967338562012 90.9982442855835,10.772967338562012 91.07799530029297,10.835456848144531 91.07799530029297,10.835456848144531 91.31019115447998,11.032605171203613 91.31019115447998,11.032605171203613 91.49136543273926,11.23499870300293 91.49136543273926,11.23499870300293 91.6254997253418,11.42435073852539 91.6254997253418,11.42435073852539 91.71643257141113,11.582255363464355 91.71643257141113,11.582255363464355 91.76812171936035,11.690425872802734 91.76812171936035,11.690425872802734 91.78447723388672,11.730575561523438 91.78447723388672,11.730575561523438 91.73755645751953,15.216827392578125 91.73755645751953,15.216827392578125 91.75260066986084,15.232300758361816 91.75260066986084,15.232300758361816 91.79511070251465,15.277862548828125 91.79511070251465,15.277862548828125 91.8612003326416,15.352249145507812 91.8612003326416,15.352249145507812 91.9468879699707,15.45405387878418 91.9468879699707,15.45405387878418 92.04826354980469,15.582060813903809 92.04826354980469,15.582060813903809 92.16136932373047,15.73486328125 92.16136932373047,15.73486328125 92.24257469177246,15.925931930541992 92.24257469177246,15.925931930541992 92.26090908050537,16.164064407348633 92.26090908050537,16.164064407348633 92.23213195800781,16.44153594970703 92.23213195800781,16.44153594970703 92.17193126678467,16.750383377075195 92.17193126678467,16.750383377075195 92.09606647491455,17.082786560058594 92.09606647491455,17.082786560058594 92.02022552490234,17.430877685546875 92.02022552490234,17.430877685546875 91.86673164367676,17.845487594604492 91.86673164367676,17.845487594604492 91.5614128112793,18.36085319519043 91.5614128112793,18.36085319519043 91.12520217895508,18.944334983825684 91.12520217895508,18.944334983825684 90.57905673980713,19.56310272216797 90.57905673980713,19.56310272216797 89.94395732879639,20.18451690673828 89.94395732879639,20.18451690673828 89.24083709716797,20.775794982910156 89.24083709716797,20.775794982910156 88.35732936859131,21.26612663269043 88.35732936859131,21.26612663269043 87.07072734832764,21.761631965637207 87.07072734832764,21.761631965637207 85.57357788085938,22.233915328979492 85.57357788085938,22.233915328979492 84.05835628509521,22.654271125793457 84.05835628509521,22.654271125793457 82.71760940551758,22.994279861450195 82.71760940551758,22.994279861450195 81.74381256103516,23.22540283203125 81.74381256103516,23.22540283203125 81.85827732086182,22.810959815979004 81.85827732086182,22.810959815979004 81.95328712463379,22.388863563537598 81.95328712463379,22.388863563537598 82.02829360961914,21.959733963012695 82.02829360961914,21.959733963012695 82.08260536193848,21.52390480041504 82.08260536193848,21.52390480041504 82.11565017700195,21.081924438476562 82.11565017700195,21.081924438476562 82.1268081665039,20.63426971435547 82.1268081665039,20.63426971435547 81.8056583404541,18.25118064880371 81.8056583404541,18.25118064880371 80.8997392654419,16.108131408691406 80.8997392654419,16.108131408691406 79.4952392578125,14.29131031036377 79.4952392578125,14.29131031036377 77.67835855484009,12.886810302734375 77.67835855484009,12.886810302734375 75.5353331565857,11.980962753295898 75.5353331565857,11.980962753295898 73.15235137939453,11.659812927246094 73.15235137939453,11.659812927246094 70.76922655105591,11.980915069580078 70.76922655105591,11.980915069580078 68.62611770629883,12.886786460876465 68.62611770629883,12.886786460876465 66.80922508239746,14.29131031036377 66.80922508239746,14.29131031036377 65.40472507476807,16.108179092407227 65.40472507476807,16.108179092407227 64.49882984161377,18.25122833251953 64.49882984161377,18.25122833251953 64.17770385742188,20.63426971435547 64.17770385742188,20.63426971435547 64.19570446014404,21.202731132507324 64.19570446014404,21.202731132507324 64.24887180328369,21.761798858642578 64.24887180328369,21.761798858642578 64.33601379394531,22.310423851013184 64.33601379394531,22.310423851013184 64.45589065551758,22.847557067871094 64.45589065551758,22.847557067871094 64.60729837417603,23.372268676757812 64.60729837417603,23.372268676757812 64.78900909423828,23.883438110351562 64.78900909423828,23.883438110351562 64.64881896972656,23.932266235351562 64.64881896972656,23.932266235351562 24.60479736328125,24.3560791015625 24.60479736328125,24.3560791015625 23.717689514160156,24.043846130371094 23.717689514160156,24.043846130371094 23.938608169555664,23.514986038208008 23.938608169555664,23.514986038208008 24.123084545135498,22.968411445617676 24.123084545135498,22.968411445617676 24.269437789916992,22.405648231506348 24.269437789916992,22.405648231506348 24.376022815704346,21.828031539916992 24.376022815704346,21.828031539916992 24.441182613372803,21.23708724975586 24.441182613372803,21.23708724975586 24.463272094726562,20.63426971435547 24.463272094726562,20.63426971435547 24.169957637786865,18.457651138305664 24.169957637786865,18.457651138305664 23.342514038085938,16.500186920166016 23.342514038085938,16.500186920166016 22.05967903137207,14.84072208404541 22.05967903137207,14.84072208404541 20.400166511535645,13.557863235473633 20.400166511535645,13.557863235473633 18.442726135253906,12.73038387298584 18.442726135253906,12.73038387298584 16.26605987548828,12.437057495117188 16.26605987548828,12.437057495117188 14.089393615722656,12.73033618927002 14.089393615722656,12.73033618927002 12.131953239440918,13.557791709899902 12.131953239440918,13.557791709899902 10.472440719604492,14.84072208404541 10.472440719604492,14.84072208404541 9.18959379196167,16.500234603881836 9.18959379196167,16.500234603881836 8.362162113189697,18.457698822021484 8.362162113189697,18.457698822021484 8.06884765625,20.63426971435547 8.06884765625,20.63426971435547 8.094727993011475,21.287035942077637 8.094727993011475,21.287035942077637 8.170998096466064,21.925806999206543 8.170998096466064,21.925806999206543 8.295607566833496,22.548770904541016 8.295607566833496,22.548770904541016 8.466482162475586,23.15387725830078 8.466482162475586,23.15387725830078 8.681559562683105,23.739266395568848 8.681559562683105,23.739266395568848 8.938789367675781,24.303054809570312 8.938789367675781,24.303054809570312 8.210182189941406,24.73316192626953 8.210182189941406,24.73316192626953 6.184577941894531,24.638748168945312 6.184577941894531,24.638748168945312 6.137275695800781,23.885154724121094 6.137275695800781,23.885154724121094 6.042170524597168,23.880529403686523 6.042170524597168,23.880529403686523 5.800521373748779,23.864126205444336 5.800521373748779,23.864126205444336 5.477738380432129,23.832082748413086 5.477738380432129,23.832082748413086 5.139267444610596,23.780369758605957 5.139267444610596,23.780369758605957 4.8505425453186035,23.705148696899414 4.8505425453186035,23.705148696899414 4.677009582519531,23.60248565673828 4.677009582519531,23.60248565673828 4.524993896484375,23.465275764465332 4.524993896484375,23.465275764465332 4.26173210144043,23.290109634399414 4.26173210144043,23.290109634399414 3.8937807083129883,23.078370094299316 3.8937807083129883,23.078370094299316 3.4276843070983887,22.831249237060547 3.4276843070983887,22.831249237060547 2.8699755668640137,22.550106048583984 2.8699755668640137,22.550106048583984 2.2272109985351562,22.236251831054688 2.2272109985351562,22.236251831054688 1.6405582427978516,21.970129013061523 1.6405582427978516,21.970129013061523 1.2239933013916016,21.80347442626953 1.2239933013916016,21.80347442626953 0.9434938430786133,21.694469451904297 0.9434938430786133,21.694469451904297 0.7650494575500488,21.601104736328125 0.7650494575500488,21.601104736328125 0.6546616554260254,21.481609344482422 0.6546616554260254,21.481609344482422 0.57830810546875,21.294021606445312 0.57830810546875,21.294021606445312 0.564122200012207,21.060538291931152 0.564122200012207,21.060538291931152 0.6376385688781738,20.8402156829834 0.6376385688781738,20.8402156829834 0.7608652114868164,20.646166801452637 0.7608652114868164,20.646166801452637 0.8958697319030762,20.491337776184082 0.8958697319030762,20.491337776184082 1.0047078132629395,20.38884162902832 1.0047078132629395,20.38884162902832 1.0494232177734375,20.351791381835938 1.0494232177734375,20.351791381835938 1.035463809967041,20.235061645507812 1.035463809967041,20.235061645507812 1.0005593299865723,19.936466217041016 1.0005593299865723,19.936466217041016 0.9552001953125,19.533228874206543 0.9552001953125,19.533228874206543 0.9098291397094727,19.10247802734375 0.9098291397094727,19.10247802734375 0.874936580657959,18.721437454223633 0.874936580657959,18.721437454223633 0.8609771728515625,18.467330932617188 0.8609771728515625,18.467330932617188 0.8225917816162109,18.335294723510742 0.8225917816162109,18.335294723510742 0.726616382598877,18.259572982788086 0.726616382598877,18.259572982788086 0.6018638610839844,18.225812911987305 0.6018638610839844,18.225812911987305 0.4770994186401367,18.219518661499023 0.4770994186401367,18.219518661499023 0.3811359405517578,18.226313591003418 0.3811359405517578,18.226313591003418 0.34275054931640625,18.231773376464844 0.34275054931640625,18.231773376464844 0.32813549041748047,18.178725242614746 0.32813549041748047,18.178725242614746 0.2886533737182617,18.027591705322266 0.2886533737182617,18.027591705322266 0.23086071014404297,17.7901029586792 0.23086071014404297,17.7901029586792 0.16129016876220703,17.477989196777344 0.16129016876220703,17.477989196777344 0.08647441864013672,17.103052139282227 0.08647441864013672,17.103052139282227 0.012969970703125,16.677093505859375 0.012969970703125,16.677093505859375 0.03294944763183594,16.29335880279541 0.03294944763183594,16.29335880279541 0.19521713256835938,16.020655632019043 0.19521713256835938,16.020655632019043 0.4412412643432617,15.834379196166992 0.4412412643432617,15.834379196166992 0.7124900817871094,15.709686279296875 0.7124900817871094,15.709686279296875 0.9504318237304688,15.6219482421875 0.9504318237304688,15.6219482421875 1.0965347290039062,15.546417236328125 1.0965347290039062,15.546417236328125 1.1493563652038574,15.432500839233398 1.1493563652038574,15.432500839233398 1.1578679084777832,15.248775482177734 1.1578679084777832,15.248775482177734 1.1394500732421875,14.99941349029541 1.1394500732421875,14.99941349029541 1.1114954948425293,14.688324928283691 1.1114954948425293,14.688324928283691 1.0913968086242676,14.319658279418945 1.0913968086242676,14.319658279418945 1.0965347290039062,13.897514343261719 1.0965347290039062,13.897514343261719 1.165306568145752,13.485550880432129 1.165306568145752,13.485550880432129 1.3007640838623047,13.14551830291748 1.3007640838623047,13.14551830291748 1.4676094055175781,12.878799438476562 1.4676094055175781,12.878799438476562 1.6305088996887207,12.686610221862793 1.6305088996887207,12.686610221862793 1.754140853881836,12.570333480834961 1.754140853881836,12.570333480834961 1.8032073974609375,12.531280517578125 1.8032073974609375,12.531280517578125 1.7654776573181152,12.529516220092773 1.7654776573181152,12.529516220092773 1.6740798950195312,12.517261505126953 1.6740798950195312,12.517261505126953 1.5617609024047852,12.484192848205566 1.5617609024047852,12.484192848205566 1.4612078666687012,12.419652938842773 1.4612078666687012,12.419652938842773 1.4051556587219238,12.313294410705566 1.4051556587219238,12.313294410705566 1.4263153076171875,12.154579162597656 1.4263153076171875,12.154579162597656 1.6797423362731934,11.79656982421875 1.6797423362731934,11.79656982421875 2.171754837036133,11.412405967712402 2.171754837036133,11.412405967712402 2.885890007019043,11.00771427154541 2.885890007019043,11.00771427154541 3.805685043334961,10.58797836303711 3.805685043334961,10.58797836303711 4.914677143096924,10.158896446228027 4.914677143096924,10.158896446228027 6.196403503417969,9.7259521484375 6.196403503417969,9.7259521484375 5.045127868652344,9.698104858398438 5.045127868652344,9.698104858398438 4.936540126800537,9.680604934692383 4.936540126800537,9.680604934692383 4.844367504119873,9.636402130126953 4.844367504119873,9.636402130126953 4.771900177001953,9.569716453552246 4.771900177001953,9.569716453552246 4.722452163696289,9.484529495239258 4.722452163696289,9.484529495239258 4.699313640594482,9.385013580322266 4.699313640594482,9.385013580322266 4.705810546875,9.275245666503906 4.705810546875,9.275245666503906 4.966926574707031,7.950782775878906 4.966926574707031,7.950782775878906 5.003619194030762,7.841134071350098 5.003619194030762,7.841134071350098 5.065631866455078,7.742190361022949 5.065631866455078,7.742190361022949 5.148077011108398,7.657980918884277 5.148077011108398,7.657980918884277 5.246067047119141,7.592463493347168 5.246067047119141,7.592463493347168 5.354714393615723,7.549738883972168 5.354714393615723,7.549738883972168 5.4691314697265625,7.533836364746094 5.4691314697265625,7.533836364746094 16.6473388671875,7.427024841308594 16.6473388671875,7.427024841308594 19.148528575897217,7.1514129638671875 19.148528575897217,7.1514129638671875 21.489691734313965,6.960272789001465 21.489691734313965,6.960272789001465 23.556137084960938,6.8337202072143555 23.556137084960938,6.8337202072143555 25.233161449432373,6.751823425292969 25.233161449432373,6.751823425292969 26.406073570251465,6.6947221755981445 26.406073570251465,6.6947221755981445 26.960182189941406,6.6425323486328125 26.960182189941406,6.6425323486328125 27.070331573486328,6.6771745681762695 27.070331573486328,6.6771745681762695 26.94627046585083,6.872820854187012 26.94627046585083,6.872820854187012 26.683497428894043,7.15487003326416 26.683497428894043,7.15487003326416 26.377534866333008,7.448673248291016 26.377534866333008,7.448673248291016 26.123905181884766,7.679653167724609 26.123905181884766,7.679653167724609 26.018142700195312,7.7732086181640625 26.018142700195312,7.7732086181640625 26.86614990234375,7.5847625732421875 26.86614990234375,7.5847625732421875 27.78763771057129,7.207632064819336 27.78763771057129,7.207632064819336 29.82538938522339,6.310939788818359 29.82538938522339,6.310939788818359 32.52530097961426,5.1055192947387695 32.52530097961426,5.1055192947387695 35.433268547058105,3.801870346069336 35.433268547058105,3.801870346069336 38.095200061798096,2.61080265045166 38.095200061798096,2.61080265045166 40.05699157714844,1.7429351806640625 40.05699157714844,1.7429351806640625 41.60795211791992,1.195979118347168 41.60795211791992,1.195979118347168 43.32507848739624,0.8060455322265625 43.32507848739624,0.8060455322265625 45.18616199493408,0.5417585372924805 45.18616199493408,0.5417585372924805 47.168946266174316,0.3716468811035156 47.168946266174316,0.3716468811035156 49.25119876861572,0.2643585205078125 49.25119876861572,0.2643585205078125 51.410675048828125,0.188446044921875 51.410675048828125,0.188446044921875 53.79502773284912,0.17054080963134766 53.79502773284912,0.17054080963134766 56.383538246154785,0.23376941680908203 56.383538246154785,0.23376941680908203 58.901381492614746,0.34155845642089844 58.901381492614746,0.34155845642089844 61.07370853424072,0.45714378356933594 61.07370853424072,0.45714378356933594 62.625718116760254,0.543975830078125 62.625718116760254,0.543975830078125 63.28258514404297,0.565338134765625 63.28258514404297,0.565338134765625 63.44456672668457,0.5105495452880859 63.44456672668457,0.5105495452880859 63.668107986450195,0.4099845886230469 63.668107986450195,0.4099845886230469 63.91263008117676,0.2885580062866211 63.91263008117676,0.2885580062866211 64.13753032684326,0.17099380493164062 64.13753032684326,0.17099380493164062 64.30222988128662,0.0822305679321289 64.30222988128662,0.0822305679321289 64.36614990234375,0.04711151123046875 64.36614990234375,0.04711151123046875 64.8843765258789,0.0 64.8843765258789,0.0 64.69593048095703,0.7537841796875 64.69593048095703,0.7537841796875 64.81916904449463,0.7842540740966797 64.81916904449463,0.7842540740966797 65.16354084014893,0.8724212646484375 65.16354084014893,0.8724212646484375 65.69116115570068,1.0128974914550781 65.69116115570068,1.0128974914550781 66.36402606964111,1.2004613876342773 66.36402606964111,1.2004613876342773 67.14420318603516,1.429915428161621 67.14420318603516,1.429915428161621 67.99373626708984,1.696014404296875 67.99373626708984,1.696014404296875 69.56546306610107,2.2078990936279297 69.56546306610107,2.2078990936279297 72.19710350036621,3.0586719512939453 72.19710350036621,3.0586719512939453 75.37837028503418,4.069161415100098 75.37837028503418,4.069161415100098 78.59886884689331,5.060005187988281 78.59886884689331,5.060005187988281 81.34832382202148,5.851912498474121 81.34832382202148,5.851912498474121 83.11634063720703,6.2656402587890625 83.11634063720703,6.2656402587890625 83.213210105896,6.279587745666504 83.213210105896,6.279587745666504 83.31186771392822,6.292963027954102 83.31186771392822,6.292963027954102 83.41221809387207,6.305813789367676 83.41221809387207,6.305813789367676 83.51411819458008,6.318044662475586 83.51411819458008,6.318044662475586 83.6174488067627,6.329774856567383 83.6174488067627,6.329774856567383 83.72211456298828,6.340980529785156 83.72211456298828,6.340980529785156 99.67174530029297,3.745269775390625 99.67174530029297,3.745269775390625 99.67949390411377,3.744077682495117 99.67949390411377,3.744077682495117 99.68714714050293,3.743147850036621 99.68714714050293,3.743147850036621 99.69477653503418,3.7424325942993164 99.69477653503418,3.7424325942993164 99.70235824584961,3.741908073425293 99.70235824584961,3.741908073425293 99.70991611480713,3.7415504455566406 99.70991611480713,3.7415504455566406 99.71752166748047,3.741455078125 99.71752166748047,3.741455078125 99.76217746734619,3.7450075149536133 99.76217746734619,3.7450075149536133 99.80530738830566,3.7554264068603516 99.80530738830566,3.7554264068603516 99.84612464904785,3.7724733352661133 99.84612464904785,3.7724733352661133 99.88393783569336,3.7957191467285156 99.88393783569336,3.7957191467285156 99.91798400878906,3.824949264526367 99.91798400878906,3.824949264526367 99.94754791259766,3.859710693359375 99.94754791259766,3.859710693359375 99.97406005859375,3.905510902404785 99.97406005859375,3.905510902404785 99.99139308929443,3.954625129699707 99.99139308929443,3.954625129699707 99.99947547912598,4.005694389343262 99.99947547912598,4.005694389343262 99.99814033508301,4.05735969543457 99.99814033508301,4.05735969543457 99.98736381530762,4.108333587646484 99.98736381530762,4.108333587646484" stroke="white" stroke-width="0.1" /><polygon points="23.26202392578125,20.563697814941406 23.26202392578125,20.563697814941406 23.012113571166992,22.423458099365234 23.012113571166992,22.423458099365234 22.30684757232666,24.094605445861816 22.30684757232666,24.094605445861816 21.21293544769287,25.510597229003906 21.21293544769287,25.510597229003906 19.797039031982422,26.604461669921875 19.797039031982422,26.604461669921875 18.12584400177002,27.309751510620117 18.12584400177002,27.309751510620117 16.26605987548828,27.559661865234375 16.26605987548828,27.559661865234375 14.406263828277588,27.309703826904297 14.406263828277588,27.309703826904297 12.73508071899414,26.604461669921875 12.73508071899414,26.604461669921875 11.319184303283691,25.510597229003906 11.319184303283691,25.510597229003906 10.225260257720947,24.094676971435547 10.225260257720947,24.094676971435547 9.52000617980957,22.423505783081055 9.52000617980957,22.423505783081055 9.270095825195312,20.563697814941406 9.270095825195312,20.563697814941406 9.52000617980957,18.703889846801758 9.52000617980957,18.703889846801758 10.225260257720947,17.032718658447266 10.225260257720947,17.032718658447266 11.319184303283691,15.616822242736816 11.319184303283691,15.616822242736816 12.73508071899414,14.522886276245117 12.73508071899414,14.522886276245117 14.406275749206543,13.817644119262695 14.406275749206543,13.817644119262695 16.26605987548828,13.567733764648438 16.26605987548828,13.567733764648438 18.12584400177002,13.817620277404785 18.12584400177002,13.817620277404785 19.797027111053467,14.522886276245117 19.797027111053467,14.522886276245117 21.21293544769287,15.616822242736816 21.21293544769287,15.616822242736816 22.306859493255615,17.032718658447266 22.306859493255615,17.032718658447266 23.012113571166992,18.703913688659668 23.012113571166992,18.703913688659668" stroke="white" stroke-width="0.1" /><polygon points="80.14812469482422,20.63426971435547 80.14812469482422,20.63426971435547 79.89821434020996,22.494077682495117 79.89821434020996,22.494077682495117 79.19297218322754,24.16529655456543 79.19297218322754,24.16529655456543 78.09906005859375,25.58121681213379 78.09906005859375,25.58121681213379 76.68318748474121,26.675128936767578 76.68318748474121,26.675128936767578 75.01206398010254,27.38032341003418 75.01206398010254,27.38032341003418 73.15235137939453,27.630233764648438 73.15235137939453,27.630233764648438 71.29247188568115,27.38027572631836 71.29247188568115,27.38027572631836 69.62122917175293,26.675081253051758 69.62122917175293,26.675081253051758 68.20530891418457,25.58121681213379 68.20530891418457,25.58121681213379 67.11137294769287,24.16534423828125 67.11137294769287,24.16534423828125 66.40610694885254,22.494125366210938 66.40610694885254,22.494125366210938 66.15619659423828,20.63426971435547 66.15619659423828,20.63426971435547 66.40610694885254,18.77443790435791 66.40610694885254,18.77443790435791 67.11134910583496,17.103266716003418 67.11134910583496,17.103266716003418 68.20530891418457,15.687394142150879 68.20530891418457,15.687394142150879 69.62124109268188,14.59345817565918 69.62124109268188,14.59345817565918 71.29248380661011,13.888216018676758 71.29248380661011,13.888216018676758 73.15235137939453,13.6383056640625 73.15235137939453,13.6383056640625 75.01205205917358,13.888168334960938 75.01205205917358,13.888168334960938 76.68317556381226,14.59343433380127 76.68317556381226,14.59343433380127 78.09906005859375,15.687394142150879 78.09906005859375,15.687394142150879 79.19297218322754,17.103290557861328 79.19297218322754,17.103290557861328 79.89821434020996,18.77448558807373 79.89821434020996,18.77448558807373" stroke="white" stroke-width="0.1" /></svg>