<?xml version="1.0" encoding="utf-8" ?>
<svg baseProfile="full" height="25.55384635925293" version="1.1" width="99.99713897705078" xmlns="http://www.w3.org/2000/svg" xmlns:ev="http://www.w3.org/2001/xml-events" xmlns:xlink="http://www.w3.org/1999/xlink"><defs><clipPath /></defs><polygon points="98.09895157814026,13.694736361503601 98.09895157814026,13.694736361503601 98.24560284614563,13.717076182365417 98.24560284614563,13.717076182365417 98.61040115356445,13.780519366264343 98.61040115356445,13.780519366264343 99.08065795898438,13.879773020744324 99.08065795898438,13.879773020744324 99.54366683959961,14.009448885917664 99.54366683959961,14.009448885917664 99.88672733306885,14.164349436759949 99.88672733306885,14.164349436759949 99.99713897705078,14.339038729667664 99.99713897705078,14.339038729667664 99.81729984283447,14.509840309619904 99.81729984283447,14.509840309619904 99.4347095489502,14.655061066150665 99.4347095489502,14.655061066150665 98.95439147949219,14.772172272205353 98.95439147949219,14.772172272205353 98.48129749298096,14.85881358385086 98.48129749298096,14.85881358385086 98.12048077583313,14.912576973438263 98.12048077583313,14.912576973438263 97.97688126564026,14.931078255176544 97.97688126564026,14.931078255176544 97.28031754493713,16.84662401676178 97.28031754493713,16.84662401676178 98.60401153564453,16.794554889202118 98.60401153564453,16.794554889202118 97.76783585548401,17.630542814731598 97.76783585548401,17.630542814731598 96.09623551368713,17.64789968729019 96.09623551368713,17.64789968729019 95.9076464176178,17.73175150156021 95.9076464176178,17.73175150156021 95.3712522983551,17.95298010110855 95.3712522983551,17.95298010110855 94.53107118606567,18.266119062900543 94.53107118606567,18.266119062900543 93.4310793876648,18.62565279006958 93.4310793876648,18.62565279006958 92.1153724193573,18.986237049102783 92.1153724193573,18.986237049102783 90.62787890434265,19.302330911159515 90.62787890434265,19.302330911159515 89.16627764701843,19.550977647304535 89.16627764701843,19.550977647304535 87.81619071960449,19.760380685329437 87.81619071960449,19.760380685329437 86.6379976272583,19.928821921348572 86.6379976272583,19.928821921348572 85.69205403327942,20.054611563682556 85.69205403327942,20.054611563682556 85.03873944282532,20.13607919216156 85.03873944282532,20.13607919216156 84.73837971687317,20.171508193016052 84.73837971687317,20.171508193016052 84.78263020515442,19.91337388753891 84.78263020515442,19.91337388753891 84.81939435005188,19.652806222438812 84.81939435005188,19.652806222438812 84.84848141670227,19.38990205526352 84.84848141670227,19.38990205526352 84.86955761909485,19.12471055984497 84.86955761909485,19.12471055984497 84.88243222236633,18.85732412338257 84.88243222236633,18.85732412338257 84.88677144050598,18.587839603424072 84.88677144050598,18.587839603424072 84.57768559455872,16.2942573428154 84.57768559455872,16.2942573428154 83.70574116706848,14.2316073179245 83.70574116706848,14.2316073179245 82.3539137840271,12.482881546020508 82.3539137840271,12.482881546020508 80.60516119003296,11.131027340888977 80.60516119003296,11.131027340888977 78.5424530506134,10.259108245372772 78.5424530506134,10.259108245372772 76.24878883361816,9.950046986341476 76.24878883361816,9.950046986341476 73.95510673522949,10.259132087230682 73.95510673522949,10.259132087230682 71.89241051673889,11.131075024604797 71.89241051673889,11.131075024604797 70.14366388320923,12.482881546020508 70.14366388320923,12.482881546020508 68.79183053970337,14.23158347606659 68.79183053970337,14.23158347606659 67.91988611221313,16.29420965909958 67.91988611221313,16.29420965909958 67.61080026626587,18.587839603424072 67.61080026626587,18.587839603424072 67.63750314712524,19.268666207790375 67.63750314712524,19.268666207790375 67.71622896194458,19.935068488121033 67.71622896194458,19.935068488121033 67.84487962722778,20.585116744041443 67.84487962722778,20.585116744041443 68.02136898040771,21.216805279254913 68.02136898040771,21.216805279254913 68.24362277984619,21.82829976081848 68.24362277984619,21.82829976081848 68.50954294204712,22.417597472667694 68.50954294204712,22.417597472667694 68.28447580337524,24.8227596282959 68.28447580337524,24.8227596282959 29.44883406162262,24.805402755737305 29.44883406162262,24.805402755737305 28.82189154624939,18.675386905670166 28.82189154624939,18.675386905670166 28.80796790122986,18.676912784576416 28.80796790122986,18.676912784576416 28.80820631980896,18.6620831489563 28.80820631980896,18.6620831489563 28.808647394180298,18.64725351333618 28.808647394180298,18.64725351333618 28.809183835983276,18.632447719573975 28.809183835983276,18.632447719573975 28.809696435928345,18.617618083953857 28.809696435928345,18.617618083953857 28.810089826583862,18.60274076461792 28.810089826583862,18.60274076461792 28.810256719589233,18.587839603424072 28.810256719589233,18.587839603424072 28.521114587783813,16.44231528043747 28.521114587783813,16.44231528043747 27.705448865890503,14.512772858142853 27.705448865890503,14.512772858142853 26.440855860710144,12.87693977355957 26.440855860710144,12.87693977355957 24.804973602294922,11.612321436405182 24.804973602294922,11.612321436405182 22.875408828258514,10.796692967414856 22.875408828258514,10.796692967414856 20.72978764772415,10.50756350159645 20.72978764772415,10.50756350159645 18.584096431732178,10.796716809272766 18.584096431732178,10.796716809272766 16.654472053050995,11.612369120121002 16.654472053050995,11.612369120121002 15.018554031848907,12.87693977355957 15.018554031848907,12.87693977355957 13.753947615623474,14.512749016284943 13.753947615623474,14.512749016284943 12.938271462917328,16.44226759672165 12.938271462917328,16.44226759672165 12.649130821228027,18.587839603424072 12.649130821228027,18.587839603424072 12.655806541442871,18.915140628814697 12.655806541442871,18.915140628814697 12.675619125366211,19.23903077840805 12.675619125366211,19.23903077840805 12.708187103271484,19.55939382314682 12.708187103271484,19.55939382314682 12.75317668914795,19.875894486904144 12.75317668914795,19.875894486904144 12.810218334197998,20.188507437705994 12.810218334197998,20.188507437705994 12.878966331481934,20.496901869773865 12.878966331481934,20.496901869773865 12.817549705505371,20.50395905971527 12.817549705505371,20.50395905971527 12.834906578063965,24.805402755737305 12.834906578063965,24.805402755737305 3.396027907729149,24.648618698120117 3.396027907729149,24.648618698120117 0.0,24.178458750247955 0.0,24.178458750247955 0.9056073613464832,23.342660069465637 0.9056073613464832,23.342660069465637 2.629656530916691,13.833972811698914 2.629656530916691,13.833972811698914 5.973422899842262,12.196899205446243 5.973422899842262,12.196899205446243 6.199824810028076,10.490397363901138 6.199824810028076,10.490397363901138 6.158697605133057,10.475233942270279 6.158697605133057,10.475233942270279 6.056630983948708,10.432986170053482 6.056630983948708,10.432986170053482 5.925524979829788,10.368422418832779 5.925524979829788,10.368422418832779 5.797327309846878,10.286407172679901 5.797327309846878,10.286407172679901 5.703974887728691,10.191898047924042 5.703974887728691,10.191898047924042 5.677403137087822,10.089664161205292 5.677403137087822,10.089664161205292 6.009376421570778,10.057096183300018 6.009376421570778,10.057096183300018 6.812571734189987,10.13672798871994 6.812571734189987,10.13672798871994 7.8499168157577515,10.281257331371307 7.8499168157577515,10.281257331371307 8.884365111589432,10.443142801523209 8.884365111589432,10.443142801523209 9.678881615400314,10.575083643198013 9.678881615400314,10.575083643198013 9.99639481306076,10.62963381409645 9.99639481306076,10.62963381409645 10.3396937251091,10.457829385995865 10.3396937251091,10.457829385995865 11.285712569952011,10.015563666820526 11.285712569952011,10.015563666820526 12.708711624145508,9.412747621536255 12.708711624145508,9.412747621536255 14.482887089252472,8.75907689332962 14.482887089252472,8.75907689332962 16.482488811016083,8.164461702108383 16.482488811016083,8.164461702108383 18.581736087799072,7.738670706748962 18.581736087799072,7.738670706748962 20.664295554161072,7.483182102441788 20.664295554161072,7.483182102441788 22.622065246105194,7.3142386972904205 22.622065246105194,7.3142386972904205 24.341823160648346,7.214055955410004 24.341823160648346,7.214055955410004 25.710368156433105,7.16460794210434 25.710368156433105,7.16460794210434 26.614519953727722,7.148133218288422 26.614519953727722,7.148133218288422 26.941058039665222,7.146631181240082 26.941058039665222,7.146631181240082 26.944121718406677,7.112203538417816 26.944121718406677,7.112203538417816 26.94816291332245,7.022128999233246 26.94816291332245,7.022128999233246 26.94542109966278,6.896267831325531 26.94542109966278,6.896267831325531 26.928159594535828,6.754385679960251 26.928159594535828,6.754385679960251 26.888665556907654,6.616412848234177 26.888665556907654,6.616412848234177 26.819178462028503,6.502138823270798 26.819178462028503,6.502138823270798 26.69937312602997,6.421458721160889 26.69937312602997,6.421458721160889 26.534101366996765,6.367361545562744 26.534101366996765,6.367361545562744 26.35333240032196,6.334578990936279 26.35333240032196,6.334578990936279 26.18708312511444,6.317698955535889 26.18708312511444,6.317698955535889 26.065334677696228,6.311500072479248 26.065334677696228,6.311500072479248 26.018092036247253,6.310641765594482 26.018092036247253,6.310641765594482 25.985834002494812,6.294524669647217 25.985834002494812,6.294524669647217 25.905200839042664,6.239688396453857 25.905200839042664,6.239688396453857 25.800368189811707,6.136501207947731 25.800368189811707,6.136501207947731 25.69553852081299,5.975211039185524 25.69553852081299,5.975211039185524 25.614893436431885,5.746282264590263 25.614893436431885,5.746282264590263 25.5826473236084,5.439938604831696 25.5826473236084,5.439938604831696 25.563383102416992,5.03782257437706 25.563383102416992,5.03782257437706 25.53882598876953,4.56790067255497 25.53882598876953,4.56790067255497 25.558757781982422,4.090277478098869 25.558757781982422,4.090277478098869 25.67300796508789,3.664867952466011 25.67300796508789,3.664867952466011 25.93139111995697,3.3517297357320786 25.93139111995697,3.3517297357320786 26.38373076915741,3.210824728012085 26.38373076915741,3.210824728012085 26.97957456111908,3.182142972946167 26.97957456111908,3.182142972946167 27.667325735092163,3.1669795513153076 27.667325735092163,3.1669795513153076 28.4953773021698,3.16731333732605 28.4953773021698,3.16731333732605 29.512062668800354,3.1849801540374756 29.512062668800354,3.1849801540374756 30.76578378677368,3.2220780849456787 30.76578378677368,3.2220780849456787 32.30489194393158,3.2804425805807114 32.30489194393158,3.2804425805807114 33.86979699134827,3.3429082483053207 33.86979699134827,3.3429082483053207 35.16426384449005,3.4082110971212387 35.16426384449005,3.4082110971212387 36.1820250749588,3.5025767982006073 36.1820250749588,3.5025767982006073 36.9167685508728,3.652017191052437 36.9167685508728,3.652017191052437 37.36224174499512,3.8827821612358093 37.36224174499512,3.8827821612358093 37.51213550567627,4.220954328775406 37.51213550567627,4.220954328775406 37.494075298309326,4.62745726108551 37.494075298309326,4.62745726108551 37.43729591369629,5.029120296239853 37.43729591369629,5.029120296239853 37.33794689178467,5.400790274143219 37.33794689178467,5.400790274143219 37.19215393066406,5.717242881655693 37.19215393066406,5.717242881655693 36.99604272842407,5.9534914791584015 36.99604272842407,5.9534914791584015 36.74576282501221,6.0842398554086685 36.74576282501221,6.0842398554086685 36.36552393436432,6.143510714173317 36.36552393436432,6.143510714173317 35.84015667438507,6.192576885223389 35.84015667438507,6.192576885223389 35.25674641132355,6.247532367706299 35.25674641132355,6.247532367706299 34.70235466957092,6.324183940887451 34.70235466957092,6.324183940887451 34.26406979560852,6.438601016998291 34.26406979560852,6.438601016998291 34.02894139289856,6.606661528348923 34.02894139289856,6.606661528348923 33.938366174697876,6.785809248685837 33.938366174697876,6.785809248685837 33.8729202747345,6.924758851528168 33.8729202747345,6.924758851528168 33.82874131202698,7.026921212673187 33.82874131202698,7.026921212673187 33.80196690559387,7.095633447170258 33.80196690559387,7.095633447170258 33.788734674453735,7.134424149990082 33.788734674453735,7.134424149990082 33.78518223762512,7.146631181240082 33.78518223762512,7.146631181240082 45.08753716945648,6.8679675459861755 45.08753716945648,6.8679675459861755 45.40221393108368,6.634413450956345 45.40221393108368,6.634413450956345 46.22336030006409,6.026852503418922 46.22336030006409,6.026852503418922 47.36669659614563,5.185236409306526 47.36669659614563,5.185236409306526 48.64790737628937,4.249206930398941 48.64790737628937,4.249206930398941 49.88272190093994,3.3587154000997543 49.88272190093994,3.3587154000997543 50.88682174682617,2.653498388826847 50.88682174682617,2.653498388826847 51.68364644050598,2.0767172798514366 51.68364644050598,2.0767172798514366 52.46116518974304,1.5047521330416203 52.46116518974304,1.5047521330416203 53.2812774181366,0.9772997349500656 53.2812774181366,0.9772997349500656 54.205888509750366,0.5339612253010273 54.205888509750366,0.5339612253010273 55.29693365097046,0.21455246023833752 55.29693365097046,0.21455246023833752 56.616294384002686,0.058555492432788014 56.616294384002686,0.058555492432788014 58.34675431251526,0.013589832815341651 58.34675431251526,0.013589832815341651 60.498565435409546,0.0 60.498565435409546,0.0 62.87484169006348,0.017356839089188725 62.87484169006348,0.017356839089188725 65.27867913246155,0.06513583357445896 65.27867913246155,0.06513583357445896 67.5132155418396,0.14293167041614652 67.5132155418396,0.14293167041614652 69.381582736969,0.2502436749637127 69.381582736969,0.2502436749637127 70.82303166389465,0.4207364749163389 70.82303166389465,0.4207364749163389 71.93315625190735,0.6618010345846415 71.93315625190735,0.6618010345846415 72.74919152259827,0.9338361211121082 72.74919152259827,0.9338361211121082 73.30835461616516,1.197121199220419 73.30835461616516,1.197121199220419 73.64791631698608,1.4120551757514477 73.64791631698608,1.4120551757514477 73.80509376525879,1.5390366315841675 73.80509376525879,1.5390366315841675 74.27750825881958,1.7846550792455673 74.27750825881958,1.7846550792455673 75.37354230880737,2.3026421666145325 75.37354230880737,2.3026421666145325 76.84597373008728,2.9734794050455093 76.84597373008728,2.9734794050455093 78.44759821891785,3.677694872021675 78.44759821891785,3.677694872021675 79.93119955062866,4.295841604471207 79.93119955062866,4.295841604471207 81.04957342147827,4.708471894264221 81.04957342147827,4.708471894264221 82.36700296401978,5.112447589635849 82.36700296401978,5.112447589635849 84.36744809150696,5.711401626467705 84.36744809150696,5.711401626467705 86.68334484100342,6.395518779754639 86.68334484100342,6.395518779754639 88.9469861984253,7.054935395717621 88.9469861984253,7.054935395717621 90.79076647758484,7.579908519983292 90.79076647758484,7.579908519983292 91.8470561504364,7.860550284385681 91.8470561504364,7.860550284385681 92.61146783828735,8.036788552999496 92.61146783828735,8.036788552999496 93.69038343429565,8.289488404989243 93.69038343429565,8.289488404989243 94.88154649734497,8.570225536823273 94.88154649734497,8.570225536823273 95.98274827003479,8.83062556385994 95.98274827003479,8.83062556385994 96.79175019264221,9.022409468889236 96.79175019264221,9.022409468889236 97.10636734962463,9.097082167863846 97.10636734962463,9.097082167863846 98.90003204345703,8.714087307453156 98.90003204345703,8.714087307453156" stroke="white" stroke-width="0.1" /><polygon points="4.620924592018127,22.086864709854126 4.620924592018127,22.086864709854126 5.642498657107353,17.094579339027405 5.642498657107353,17.094579339027405 3.27414833009243,16.792838275432587 3.27414833009243,16.792838275432587 2.298922836780548,21.715503931045532 2.298922836780548,21.715503931045532" stroke="white" stroke-width="0.1" /><polygon points="35.52677929401398,20.09006440639496 35.52677929401398,20.09006440639496 35.24811565876007,18.650400638580322 35.24811565876007,18.650400638580322 35.64293682575226,16.63033217191696 35.64293682575226,16.63033217191696 30.000439286231995,16.467635333538055 30.000439286231995,16.467635333538055 30.464687943458557,18.51116418838501 30.464687943458557,18.51116418838501 30.348721146583557,20.879514515399933 30.348721146583557,20.879514515399933" stroke="white" stroke-width="0.1" /><polygon points="61.649203300476074,23.619607090950012 61.649203300476074,23.619607090950012 62.36530542373657,23.593047261238098 62.36530542373657,23.593047261238098 63.00874948501587,23.518159985542297 63.00874948501587,23.518159985542297 63.55388164520264,23.401978611946106 63.55388164520264,23.401978611946106 63.97502422332764,23.25153648853302 63.97502422332764,23.25153648853302 64.24654126167297,23.074033856391907 64.24654126167297,23.074033856391907 64.34275507926941,22.87650555372238 64.34275507926941,22.87650555372238 64.24655318260193,22.678951919078827 64.24655318260193,22.678951919078827 63.97503614425659,22.501425445079803 63.97503614425659,22.501425445079803 63.55388164520264,22.351031005382538 63.55388164520264,22.351031005382538 63.008737564086914,22.234827280044556 63.008737564086914,22.234827280044556 62.36529350280762,22.159892320632935 62.36529350280762,22.159892320632935 61.649203300476074,22.13340401649475 61.649203300476074,22.13340401649475 60.933178663253784,22.159940004348755 60.933178663253784,22.159940004348755 60.28974652290344,22.234851121902466 60.28974652290344,22.234851121902466 59.74460244178772,22.351031005382538 59.74460244178772,22.351031005382538 59.3234121799469,22.501377761363983 59.3234121799469,22.501377761363983 59.051865339279175,22.678904235363007 59.051865339279175,22.678904235363007 58.95565152168274,22.87650555372238 58.95565152168274,22.87650555372238 59.05187726020813,23.074057698249817 59.05187726020813,23.074057698249817 59.3234121799469,23.25160801410675 59.3234121799469,23.25160801410675 59.74460244178772,23.401978611946106 59.74460244178772,23.401978611946106 60.28974652290344,23.518136143684387 60.28974652290344,23.518136143684387 60.93316674232483,23.593023419380188 60.93316674232483,23.593023419380188" stroke="white" stroke-width="0.1" /><polygon points="66.10743403434753,7.2028979659080505 66.10743403434753,7.2028979659080505 66.57940745353699,6.774222105741501 66.57940745353699,6.774222105741501 66.87976717948914,6.010115519165993 66.87976717948914,6.010115519165993 67.04208254814148,5.031862109899521 67.04208254814148,5.031862109899521 67.09989905357361,3.96067351102829 67.09989905357361,3.96067351102829 67.08678603172302,2.9179517179727554 67.08678603172302,2.9179517179727554 67.03631281852722,2.0248373970389366 67.03631281852722,2.0248373970389366 66.38222336769104,1.546284556388855 66.38222336769104,1.546284556388855 64.7955596446991,1.2627815827727318 64.7955596446991,1.2627815827727318 62.70759105682373,1.12635875120759 62.70759105682373,1.12635875120759 60.549551248550415,1.0889509692788124 60.549551248550415,1.0889509692788124 58.75270962715149,1.1025645770132542 58.75270962715149,1.1025645770132542 57.748305797576904,1.1192300356924534 57.748305797576904,1.1192300356924534 56.08624219894409,1.5927761793136597 56.08624219894409,1.5927761793136597 54.204219579696655,2.7661271393299103 54.204219579696655,2.7661271393299103 52.335089445114136,4.288879781961441 52.335089445114136,4.288879781961441 50.711703300476074,5.810464173555374 50.711703300476074,5.810464173555374 49.56691265106201,6.980477273464203 49.56691265106201,6.980477273464203 49.13358986377716,7.44837298989296 49.13358986377716,7.44837298989296 52.73274779319763,7.481560856103897 52.73274779319763,7.481560856103897 52.75779366493225,7.388363033533096 52.75779366493225,7.388363033533096 52.824753522872925,7.146178185939789 52.824753522872925,7.146178185939789 52.92138457298279,6.811105459928513 52.92138457298279,6.811105459928513 53.035420179367065,6.439244747161865 53.035420179367065,6.439244747161865 53.15465331077576,6.086790934205055 53.15465331077576,6.086790934205055 53.26680541038513,5.80977275967598 53.26680541038513,5.80977275967598 53.378742933273315,5.571688339114189 53.378742933273315,5.571688339114189 53.5041868686676,5.314292386174202 53.5041868686676,5.314292386174202 53.641241788864136,5.060806125402451 53.641241788864136,5.060806125402451 53.78796458244324,4.8343803733587265 53.78796458244324,4.8343803733587265 53.94245982170105,4.658356308937073 53.94245982170105,4.658356308937073 54.10279631614685,4.555884376168251 54.10279631614685,4.555884376168251 54.28757071495056,4.520956054329872 54.28757071495056,4.520956054329872 54.49749827384949,4.539528861641884 54.49749827384949,4.539528861641884 54.7035813331604,4.622641205787659 54.7035813331604,4.622641205787659 54.876768589019775,4.781165719032288 54.876768589019775,4.781165719032288 54.988062381744385,5.026211589574814 54.988062381744385,5.026211589574814 55.00839948654175,5.368604138493538 55.00839948654175,5.368604138493538 54.93088960647583,5.735601112246513 54.93088960647583,5.735601112246513 54.7907829284668,6.0445670038461685 54.7907829284668,6.0445670038461685 54.622286558151245,6.291592121124268 54.622286558151245,6.291592121124268 54.45956587791443,6.4728133380413055 54.45956587791443,6.4728133380413055 54.336875677108765,6.584440916776657 54.336875677108765,6.584440916776657 54.28838133811951,6.6224925220012665 54.28838133811951,6.6224925220012665 54.21876311302185,7.50483050942421 54.21876311302185,7.50483050942421 55.02040386199951,7.513127475976944 55.02040386199951,7.513127475976944 57.04822540283203,7.524571567773819 57.04822540283203,7.524571567773819 59.73652005195618,7.519302517175674 59.73652005195618,7.519302517175674 62.51959800720215,7.477221637964249 62.51959800720215,7.477221637964249 64.83179926872253,7.378420978784561 64.83179926872253,7.378420978784561" stroke="white" stroke-width="0.1" /><polygon points="83.21478962898254,18.587839603424072 83.21478962898254,18.587839603424072 82.96595215797424,20.43968141078949 82.96595215797424,20.43968141078949 82.26369619369507,22.103720903396606 82.26369619369507,22.103720903396606 81.17445707321167,23.513582348823547 81.17445707321167,23.513582348823547 79.7646164894104,24.602796137332916 79.7646164894104,24.602796137332916 78.10059189796448,25.30503273010254 78.10059189796448,25.30503273010254 76.24878883361816,25.55384635925293 76.24878883361816,25.55384635925293 74.39683675765991,25.30500888824463 74.39683675765991,25.30500888824463 72.73278832435608,24.602772295475006 72.73278832435608,24.602772295475006 71.32297158241272,23.513582348823547 71.32297158241272,23.513582348823547 70.23378610610962,22.103744745254517 70.23378610610962,22.103744745254517 69.5315957069397,20.43972909450531 69.5315957069397,20.43972909450531 69.2827820777893,18.587839603424072 69.2827820777893,18.587839603424072 69.53158378601074,16.735999286174774 69.53158378601074,16.735999286174774 70.23378610610962,15.071983635425568 70.23378610610962,15.071983635425568 71.32297158241272,13.662169873714447 71.32297158241272,13.662169873714447 72.73278832435608,12.572884559631348 72.73278832435608,12.572884559631348 74.39684867858887,11.870671808719635 74.39684867858887,11.870671808719635 76.24878883361816,11.621834337711334 76.24878883361816,11.621834337711334 78.10057997703552,11.870647966861725 78.10057997703552,11.870647966861725 79.76460456848145,12.572860717773438 79.76460456848145,12.572860717773438 81.17445707321167,13.662169873714447 81.17445707321167,13.662169873714447 82.26369619369507,15.072007477283478 82.26369619369507,15.072007477283478 82.96595215797424,16.736046969890594 82.96595215797424,16.736046969890594" stroke="white" stroke-width="0.1" /><polygon points="27.69579291343689,18.587839603424072 27.69579291343689,18.587839603424072 27.44695544242859,20.43968141078949 27.44695544242859,20.43968141078949 26.744696497917175,22.103720903396606 26.744696497917175,22.103720903396606 25.655460357666016,23.513582348823547 25.655460357666016,23.513582348823547 24.245621263980865,24.602796137332916 24.245621263980865,24.602796137332916 22.581593692302704,25.30503273010254 22.581593692302704,25.30503273010254 20.72978764772415,25.55384635925293 20.72978764772415,25.55384635925293 18.87791156768799,25.30500888824463 18.87791156768799,25.30500888824463 17.21387207508087,24.602772295475006 17.21387207508087,24.602772295475006 15.804046392440796,23.513582348823547 15.804046392440796,23.513582348823547 14.714832603931427,22.103744745254517 14.714832603931427,22.103744745254517 14.01260793209076,20.43972909450531 14.01260793209076,20.43972909450531 13.763782382011414,18.587839603424072 13.763782382011414,18.587839603424072 14.01260793209076,16.735999286174774 14.01260793209076,16.735999286174774 14.714820683002472,15.071983635425568 14.714820683002472,15.071983635425568 15.804046392440796,13.662169873714447 15.804046392440796,13.662169873714447 17.21387207508087,12.572884559631348 17.21387207508087,12.572884559631348 18.877923488616943,11.870671808719635 18.877923488616943,11.870671808719635 20.72978764772415,11.621834337711334 20.72978764772415,11.621834337711334 22.581593692302704,11.870647966861725 22.581593692302704,11.870647966861725 24.24560934305191,12.572860717773438 24.24560934305191,12.572860717773438 25.655460357666016,13.662169873714447 25.655460357666016,13.662169873714447 26.74470841884613,15.072007477283478 26.74470841884613,15.072007477283478 27.44695544242859,16.736046969890594 27.44695544242859,16.736046969890594" stroke="white" stroke-width="0.1" /></svg>