<?xml version="1.0" encoding="utf-8" ?>
<svg baseProfile="full" height="23.77910614013672" version="1.1" width="99.99527931213379" xmlns="http://www.w3.org/2000/svg" xmlns:ev="http://www.w3.org/2001/xml-events" xmlns:xlink="http://www.w3.org/1999/xlink"><defs><clipPath /></defs><polygon points="99.64599609375,14.209365844726562 99.64599609375,14.209365844726562 99.90081787109375,14.3265962600708 99.90081787109375,14.3265962600708 99.99527931213379,14.475107192993164 99.99527931213379,14.475107192993164 99.98030662536621,14.631485939025879 99.98030662536621,14.631485939025879 99.90665912628174,14.772200584411621 99.90665912628174,14.772200584411621 99.82519149780273,14.873862266540527 99.82519149780273,14.873862266540527 99.78675842285156,14.912986755371094 99.78675842285156,14.912986755371094 97.95722961425781,15.100479125976562 97.95722961425781,15.100479125976562 97.9269027709961,15.19010066986084 97.9269027709961,15.19010066986084 97.84352779388428,15.430760383605957 97.84352779388428,15.430760383605957 97.71852493286133,15.780258178710938 97.71852493286133,15.780258178710938 97.56331443786621,16.196274757385254 97.56331443786621,16.196274757385254 97.3893404006958,16.63665771484375 97.3893404006958,16.63665771484375 97.20802307128906,17.05913543701172 97.20802307128906,17.05913543701172 98.56719970703125,17.05913543701172 98.56719970703125,17.05913543701172 97.75810241699219,17.868423461914062 97.75810241699219,17.868423461914062 96.1669921875,17.868423461914062 96.1669921875,17.868423461914062 94.82486248016357,18.35761070251465 94.82486248016357,18.35761070251465 92.67339706420898,18.99404525756836 92.67339706420898,18.99404525756836 90.11201858520508,19.683051109313965 90.11201858520508,19.683051109313965 87.5401496887207,20.329856872558594 87.5401496887207,20.329856872558594 85.3572130203247,20.839834213256836 85.3572130203247,20.839834213256836 83.96263122558594,21.1181640625 83.96263122558594,21.1181640625 84.01646614074707,20.800209045410156 84.01646614074707,20.800209045410156 84.06109809875488,20.416545867919922 84.06109809875488,20.416545867919922 84.09624099731445,19.998645782470703 84.09624099731445,19.998645782470703 84.12165641784668,19.577836990356445 84.12165641784668,19.577836990356445 84.13708209991455,19.185638427734375 84.13708209991455,19.185638427734375 84.14230346679688,18.853378295898438 84.14230346679688,18.853378295898438 84.08751487731934,17.90597438812256 84.08751487731934,17.90597438812256 83.92729759216309,16.990327835083008 83.92729759216309,16.990327835083008 83.66785049438477,16.112518310546875 83.66785049438477,16.112518310546875 83.31537246704102,15.27855396270752 83.31537246704102,15.27855396270752 82.8761100769043,14.494538307189941 82.8761100769043,14.494538307189941 82.35626220703125,13.7664794921875 82.35626220703125,13.7664794921875 82.55195617675781,14.226961135864258 82.55195617675781,14.226961135864258 82.7153205871582,14.70341682434082 82.7153205871582,14.70341682434082 82.84492492675781,15.194559097290039 82.84492492675781,15.194559097290039 82.93929100036621,15.698957443237305 82.93929100036621,15.698957443237305 82.99703598022461,16.21541976928711 82.99703598022461,16.21541976928711 83.01658630371094,16.742515563964844 83.01658630371094,16.742515563964844 83.00909996032715,17.06693172454834 83.00909996032715,17.06693172454834 82.9869031906128,17.38746166229248 82.9869031906128,17.38746166229248 82.95044898986816,17.703843116760254 82.95044898986816,17.703843116760254 82.90014266967773,18.015742301940918 82.90014266967773,18.015742301940918 82.83648490905762,18.3229923248291 82.83648490905762,18.3229923248291 82.75985717773438,18.625259399414062 82.75985717773438,18.625259399414062 82.19623565673828,20.038843154907227 82.19623565673828,20.038843154907227 81.35466575622559,21.282148361206055 81.35466575622559,21.282148361206055 80.27372360229492,22.316551208496094 80.27372360229492,22.316551208496094 78.99191379547119,23.10323715209961 78.99191379547119,23.10323715209961 77.54782438278198,23.60367774963379 77.54782438278198,23.60367774963379 75.97999572753906,23.77910614013672 75.97999572753906,23.77910614013672 74.57777261734009,23.639321327209473 74.57777261734009,23.639321327209473 73.27048778533936,23.238182067871094 73.27048778533936,23.238182067871094 72.08538055419922,22.60308265686035 72.08538055419922,22.60308265686035 71.04966640472412,21.761345863342285 71.04966640472412,21.761345863342285 70.19062042236328,20.740413665771484 70.19062042236328,20.740413665771484 69.53544616699219,19.56768035888672 69.53544616699219,19.56768035888672 69.35967206954956,19.127941131591797 69.35967206954956,19.127941131591797 69.21309232711792,18.674230575561523 69.21309232711792,18.674230575561523 69.0969467163086,18.207740783691406 69.0969467163086,18.207740783691406 69.012451171875,17.729473114013672 69.012451171875,17.729473114013672 68.96086931228638,17.24073886871338 68.96086931228638,17.24073886871338 68.94340515136719,16.742515563964844 68.94340515136719,16.742515563964844 68.95524263381958,16.332387924194336 68.95524263381958,16.332387924194336 68.99027824401855,15.928506851196289 68.99027824401855,15.928506851196289 69.04783248901367,15.531492233276367 69.04783248901367,15.531492233276367 69.12717819213867,15.141916275024414 69.12717819213867,15.141916275024414 69.22764778137207,14.760470390319824 69.22764778137207,14.760470390319824 69.34852600097656,14.387702941894531 69.34852600097656,14.387702941894531 68.97993087768555,15.050005912780762 68.97993087768555,15.050005912780762 68.67120265960693,15.75014591217041 68.67120265960693,15.75014591217041 68.4255599975586,16.484355926513672 68.4255599975586,16.484355926513672 68.24615001678467,17.24879741668701 68.24615001678467,17.24879741668701 68.13619136810303,18.039751052856445 68.13619136810303,18.039751052856445 68.09883117675781,18.853378295898438 68.09883117675781,18.853378295898438 68.10979843139648,19.41511631011963 68.10979843139648,19.41511631011963 68.13720464706421,20.116758346557617 68.13720464706421,20.116758346557617 68.17283630371094,20.850396156311035 68.17283630371094,20.850396156311035 68.20845603942871,21.508049964904785 68.20845603942871,21.508049964904785 68.23587417602539,21.98183536529541 68.23587417602539,21.98183536529541 68.24684143066406,22.163772583007812 68.24684143066406,22.163772583007812 27.985382080078125,22.159194946289062 27.985382080078125,22.159194946289062 27.99098491668701,21.99225425720215 27.99098491668701,21.99225425720215 28.005003929138184,21.55144214630127 28.005003929138184,21.55144214630127 28.023242950439453,20.927000045776367 28.023242950439453,20.927000045776367 28.041470050811768,20.209026336669922 28.041470050811768,20.209026336669922 28.05548906326294,19.487786293029785 28.05548906326294,19.487786293029785 28.06110382080078,18.853378295898438 28.06110382080078,18.853378295898438 28.006339073181152,17.90597438812256 28.006339073181152,17.90597438812256 27.846133708953857,16.990327835083008 27.846133708953857,16.990327835083008 27.586722373962402,16.112518310546875 27.586722373962402,16.112518310546875 27.234268188476562,15.27855396270752 27.234268188476562,15.27855396270752 26.794981956481934,14.494538307189941 26.794981956481934,14.494538307189941 26.275062561035156,13.7664794921875 26.275062561035156,13.7664794921875 26.47080421447754,14.226961135864258 26.47080421447754,14.226961135864258 26.63419246673584,14.70341682434082 26.63419246673584,14.70341682434082 26.76379680633545,15.194559097290039 26.76379680633545,15.194559097290039 26.858150959014893,15.698957443237305 26.858150959014893,15.698957443237305 26.915836334228516,16.21541976928711 26.915836334228516,16.21541976928711 26.935386657714844,16.742515563964844 26.935386657714844,16.742515563964844 26.906323432922363,17.385005950927734 26.906323432922363,17.385005950927734 26.820850372314453,18.011188507080078 26.820850372314453,18.011188507080078 26.68159008026123,18.61858367919922 26.68159008026123,18.61858367919922 26.491117477416992,19.20468807220459 26.491117477416992,19.20468807220459 26.25206708908081,19.767189025878906 26.25206708908081,19.767189025878906 25.967025756835938,20.30353546142578 25.967025756835938,20.30353546142578 25.272560119628906,21.28286361694336 25.272560119628906,21.28286361694336 24.425101280212402,22.128582000732422 24.425101280212402,22.128582000732422 23.444318771362305,22.82094955444336 23.444318771362305,22.82094955444336 22.349882125854492,23.33998680114746 22.349882125854492,23.33998680114746 21.161484718322754,23.666000366210938 21.161484718322754,23.666000366210938 19.89879608154297,23.77910614013672 19.89879608154297,23.77910614013672 18.26162338256836,23.587608337402344 18.26162338256836,23.587608337402344 16.7616605758667,23.04253578186035 16.7616605758667,23.04253578186035 15.443062782287598,22.188186645507812 15.443062782287598,22.188186645507812 14.349985122680664,21.068716049194336 14.349985122680664,21.068716049194336 13.526606559753418,19.728517532348633 13.526606559753418,19.728517532348633 13.017082214355469,18.211746215820312 13.017082214355469,18.211746215820312 12.970638275146484,17.97335147857666 12.970638275146484,17.97335147857666 12.932169437408447,17.73219108581543 12.932169437408447,17.73219108581543 12.901878356933594,17.488431930541992 12.901878356933594,17.488431930541992 12.87996768951416,17.242121696472168 12.87996768951416,17.242121696472168 12.866687774658203,16.99345111846924 12.866687774658203,16.99345111846924 12.862205505371094,16.742515563964844 12.862205505371094,16.742515563964844 12.881767749786377,16.21544361114502 12.881767749786377,16.21544361114502 12.93947696685791,15.699005126953125 12.93947696685791,15.699005126953125 13.033866882324219,15.194559097290039 13.033866882324219,15.194559097290039 13.163471221923828,14.70339298248291 13.163471221923828,14.70339298248291 13.326859474182129,14.226937294006348 13.326859474182129,14.226937294006348 13.522529602050781,13.7664794921875 13.522529602050781,13.7664794921875 13.002610206604004,14.494562149047852 13.002610206604004,14.494562149047852 12.56331205368042,15.27857780456543 12.56331205368042,15.27857780456543 12.210869789123535,16.112518310546875 12.210869789123535,16.112518310546875 11.951446533203125,16.990280151367188 11.951446533203125,16.990280151367188 11.79126501083374,17.90592670440674 11.79126501083374,17.90592670440674 11.736488342285156,18.853378295898438 11.736488342285156,18.853378295898438 11.743152141571045,19.18158531188965 11.743152141571045,19.18158531188965 11.76290512084961,19.506406784057617 11.76290512084961,19.506406784057617 11.795377731323242,19.827747344970703 11.795377731323242,19.827747344970703 11.840224266052246,20.145297050476074 11.840224266052246,20.145297050476074 11.897063255310059,20.45888900756836 11.897063255310059,20.45888900756836 11.965560913085938,20.768356323242188 11.965560913085938,20.768356323242188 11.965560913085938,22.365570068359375 11.965560913085938,22.365570068359375 4.033470153808594,22.365570068359375 4.033470153808594,22.365570068359375 0.0,21.75579071044922 0.0,21.75579071044922 1.8764495849609375,20.30162811279297 1.8764495849609375,20.30162811279297 2.4393081665039062,17.299270629882812 2.4393081665039062,17.299270629882812 2.4393081665039062,14.75677490234375 2.4393081665039062,14.75677490234375 2.330923080444336,14.63620662689209 2.330923080444336,14.63620662689209 2.2288084030151367,14.51723575592041 2.2288084030151367,14.51723575592041 2.135443687438965,14.400458335876465 2.135443687438965,14.400458335876465 2.053236961364746,14.286351203918457 2.053236961364746,14.286351203918457 1.9846677780151367,14.175558090209961 1.9846677780151367,14.175558090209961 1.9321441650390625,14.068603515625 1.9321441650390625,14.068603515625 1.9097685813903809,13.821077346801758 1.9097685813903809,13.821077346801758 2.0346760749816895,13.636016845703125 2.0346760749816895,13.636016845703125 2.2429943084716797,13.505721092224121 2.2429943084716797,13.505721092224121 2.470862865447998,13.422298431396484 2.470862865447998,13.422298431396484 2.654421329498291,13.378000259399414 2.654421329498291,13.378000259399414 2.72979736328125,13.364982604980469 2.72979736328125,13.364982604980469 2.7811050415039062,13.343048095703125 2.7811050415039062,13.343048095703125 2.9302120208740234,13.279390335083008 2.9302120208740234,13.279390335083008 3.169894218444824,13.17739486694336 3.169894218444824,13.17739486694336 3.492903709411621,13.040328025817871 3.492903709411621,13.040328025817871 3.8920164108276367,12.871623039245605 3.8920164108276367,12.871623039245605 4.360008239746094,12.674522399902344 4.360008239746094,12.674522399902344 4.338693618774414,12.203550338745117 4.338693618774414,12.203550338745117 4.300713539123535,11.675643920898438 4.300713539123535,11.675643920898438 4.241275787353516,11.142325401306152 4.241275787353516,11.142325401306152 4.155576229095459,10.65514087677002 4.155576229095459,10.65514087677002 4.038834571838379,10.265636444091797 4.038834571838379,10.265636444091797 3.8862228393554688,10.025405883789062 3.8862228393554688,10.025405883789062 3.7534117698669434,9.848785400390625 3.7534117698669434,9.848785400390625 3.7961363792419434,9.730386734008789 3.7961363792419434,9.730386734008789 3.9469003677368164,9.658575057983398 3.9469003677368164,9.658575057983398 4.138171672821045,9.621667861938477 4.138171672821045,9.621667861938477 4.302453994750977,9.608101844787598 4.302453994750977,9.608101844787598 4.372215270996094,9.606170654296875 4.372215270996094,9.606170654296875 8.8226318359375,10.834503173828125 8.8226318359375,10.834503173828125 9.77160930633545,10.45384407043457 9.77160930633545,10.45384407043457 10.726022720336914,10.075902938842773 10.726022720336914,10.075902938842773 11.671805381774902,9.707140922546387 11.671805381774902,9.707140922546387 12.594866752624512,9.354066848754883 12.594866752624512,9.354066848754883 13.481152057647705,9.023165702819824 13.481152057647705,9.023165702819824 14.316558837890625,8.720970153808594 14.316558837890625,8.720970153808594 15.045905113220215,8.48245620727539 15.045905113220215,8.48245620727539 15.805590152740479,8.271527290344238 15.805590152740479,8.271527290344238 16.59080982208252,8.086514472961426 16.59080982208252,8.086514472961426 17.396771907806396,7.925653457641602 17.396771907806396,7.925653457641602 18.218672275543213,7.7872514724731445 18.218672275543213,7.7872514724731445 19.051742553710938,7.669639587402344 19.051742553710938,7.669639587402344 19.760894775390625,6.6860198974609375 19.760894775390625,6.6860198974609375 20.02279758453369,6.648111343383789 20.02279758453369,6.648111343383789 20.734262466430664,6.553244590759277 20.734262466430664,6.553244590759277 21.783852577209473,6.429958343505859 21.783852577209473,6.429958343505859 23.060178756713867,6.306648254394531 23.060178756713867,6.306648254394531 24.451851844787598,6.21180534362793 24.451851844787598,6.21180534362793 25.847434997558594,6.173896789550781 25.847434997558594,6.173896789550781 27.76165008544922,6.214451789855957 27.76165008544922,6.214451789855957 30.449891090393066,6.315755844116211 30.449891090393066,6.315755844116211 33.41176509857178,6.447505950927734 33.41176509857178,6.447505950927734 36.1469030380249,6.5792083740234375 36.1469030380249,6.5792083740234375 38.15492391586304,6.680583953857422 38.15492391586304,6.680583953857422 38.93547058105469,6.7211151123046875 38.93547058105469,6.7211151123046875 38.816261291503906,7.138633728027344 38.816261291503906,7.138633728027344 40.25440216064453,7.111573219299316 40.25440216064453,7.111573219299316 41.55604839324951,7.084202766418457 41.55604839324951,7.084202766418457 42.6729679107666,7.05721378326416 42.6729679107666,7.05721378326416 43.55689287185669,7.03120231628418 43.55689287185669,7.03120231628418 44.159603118896484,7.006978988647461 44.159603118896484,7.006978988647461 44.432830810546875,6.9850921630859375 44.432830810546875,6.9850921630859375 45.11994123458862,6.548476219177246 45.11994123458862,6.548476219177246 46.55240774154663,5.5084228515625 46.55240774154663,5.5084228515625 48.420119285583496,4.129552841186523 48.420119285583496,4.129552841186523 50.412917137145996,2.6763439178466797 50.412917137145996,2.6763439178466797 52.22071409225464,1.4134407043457031 52.22071409225464,1.4134407043457031 53.533363342285156,0.6053924560546875 53.533363342285156,0.6053924560546875 55.091845989227295,0.22597312927246094 55.091845989227295,0.22597312927246094 57.572877407073975,0.040721893310546875 57.572877407073975,0.040721893310546875 60.56993007659912,0.0014543533325195312 60.56993007659912,0.0014543533325195312 63.67642879486084,0.059866905212402344 63.67642879486084,0.059866905212402344 66.48588180541992,0.1678466796875 66.48588180541992,0.1678466796875 68.59169006347656,0.27713775634765625 68.59169006347656,0.27713775634765625 70.037841796875,0.39043426513671875 70.037841796875,0.39043426513671875 71.16994857788086,0.5428314208984375 71.16994857788086,0.5428314208984375 72.03359603881836,0.7343530654907227 72.03359603881836,0.7343530654907227 72.67439365386963,0.9649515151977539 72.67439365386963,0.9649515151977539 73.1379747390747,1.2347221374511719 73.1379747390747,1.2347221374511719 73.46992492675781,1.5436172485351562 73.46992492675781,1.5436172485351562 74.1849422454834,2.002072334289551 74.1849422454834,2.002072334289551 75.59319734573364,2.6624679565429688 75.59319734573364,2.6624679565429688 77.43406295776367,3.4375667572021484 77.43406295776367,3.4375667572021484 79.4468879699707,4.239988327026367 79.4468879699707,4.239988327026367 81.37109279632568,4.982542991638184 81.37109279632568,4.982542991638184 82.94601440429688,5.577850341796875 82.94601440429688,5.577850341796875 83.94594192504883,5.917882919311523 83.94594192504883,5.917882919311523 85.31265258789062,6.334018707275391 85.31265258789062,6.334018707275391 86.94195747375488,6.799912452697754 86.94195747375488,6.799912452697754 88.72973918914795,7.28912353515625 88.72973918914795,7.28912353515625 90.57183265686035,7.775330543518066 90.57183265686035,7.775330543518066 92.36412048339844,8.23211669921875 92.36412048339844,8.23211669921875 93.06526184082031,4.72564697265625 93.06526184082031,4.72564697265625 91.31011962890625,4.688072204589844 91.31011962890625,4.688072204589844 91.21932983398438,4.67371940612793 91.21932983398438,4.67371940612793 91.14212989807129,4.636979103088379 91.14212989807129,4.636979103088379 91.08138084411621,4.581284523010254 91.08138084411621,4.581284523010254 91.03975296020508,4.510068893432617 91.03975296020508,4.510068893432617 91.02010726928711,4.426836967468262 91.02010726928711,4.426836967468262 91.02516174316406,4.33502197265625 91.02516174316406,4.33502197265625 91.23954772949219,3.2262802124023438 91.23954772949219,3.2262802124023438 92.18082427978516,2.8854846954345703 92.18082427978516,2.8854846954345703 92.87271499633789,2.666044235229492 92.87271499633789,2.666044235229492 93.43099594116211,2.52993106842041 93.43099594116211,2.52993106842041 93.97139549255371,2.439093589782715 93.97139549255371,2.439093589782715 94.60968971252441,2.355480194091797 94.60968971252441,2.355480194091797 95.46165466308594,2.2411346435546875 95.46165466308594,2.2411346435546875 96.31562232971191,2.1173477172851562 96.31562232971191,2.1173477172851562 96.94538116455078,2.0169734954833984 96.94538116455078,2.0169734954833984 97.4083423614502,1.924443244934082 97.4083423614502,1.924443244934082 97.76184558868408,1.8240928649902344 97.76184558868408,1.8240928649902344 98.06327819824219,1.7003297805786133 98.06327819824219,1.7003297805786133 98.36997985839844,1.5375137329101562 98.36997985839844,1.5375137329101562 98.61664772033691,1.5449285507202148 98.61664772033691,1.5449285507202148 98.72689247131348,1.8526554107666016 98.72689247131348,1.8526554107666016 98.74162673950195,2.326178550720215 98.74162673950195,2.326178550720215 98.70157241821289,2.8309106826782227 98.70157241821289,2.8309106826782227 98.64766597747803,3.232455253601074 98.64766597747803,3.232455253601074 98.62060546875,3.3962249755859375 98.62060546875,3.3962249755859375 98.59516620635986,3.4970760345458984 98.59516620635986,3.4970760345458984 98.55551719665527,3.6053895950317383 98.55551719665527,3.6053895950317383 98.50468635559082,3.7153005599975586 98.50468635559082,3.7153005599975586 98.44560623168945,3.8209915161132812 98.44560623168945,3.8209915161132812 98.38128089904785,3.916645050048828 98.38128089904785,3.916645050048828 98.31466674804688,3.9964675903320312 98.31466674804688,3.9964675903320312 97.76878356933594,4.56695556640625 97.76878356933594,4.56695556640625 97.69182205200195,4.63407039642334 97.69182205200195,4.63407039642334 97.59821891784668,4.693961143493652 97.59821891784668,4.693961143493652 97.49388694763184,4.744291305541992 97.49388694763184,4.744291305541992 97.38454818725586,4.782581329345703 97.38454818725586,4.782581329345703 97.27599620819092,4.80656623840332 97.27599620819092,4.80656623840332 97.174072265625,4.8137664794921875 97.174072265625,4.8137664794921875 95.64857482910156,4.7809600830078125 95.64857482910156,4.7809600830078125 94.83871459960938,8.829307556152344 94.83871459960938,8.829307556152344 95.37668228149414,8.95071029663086 95.37668228149414,8.95071029663086 95.85175514221191,9.053230285644531 95.85175514221191,9.053230285644531 96.25639915466309,9.135031700134277 96.25639915466309,9.135031700134277 96.58305644989014,9.194159507751465 96.58305644989014,9.194159507751465 96.82421684265137,9.228730201721191 96.82421684265137,9.228730201721191 96.97227478027344,9.236907958984375 96.97227478027344,9.236907958984375 97.38476276397705,9.196281433105469 97.38476276397705,9.196281433105469 97.80111312866211,9.13090705871582 97.80111312866211,9.13090705871582 98.18615913391113,9.055089950561523 98.18615913391113,9.055089950561523 98.50473403930664,8.983159065246582 98.50473403930664,8.983159065246582 98.72164726257324,8.92951488494873 98.72164726257324,8.92951488494873 98.80180358886719,8.908462524414062 98.80180358886719,8.908462524414062 98.79682064056396,9.01033878326416 98.79682064056396,9.01033878326416 98.77748489379883,9.285497665405273 98.77748489379883,9.285497665405273 98.7372875213623,9.688401222229004 98.7372875213623,9.688401222229004 98.66971969604492,10.173368453979492 98.66971969604492,10.173368453979492 98.5682725906372,10.69486141204834 98.5682725906372,10.69486141204834 98.42643737792969,11.207199096679688 98.42643737792969,11.207199096679688 98.28457832336426,11.75074577331543 98.28457832336426,11.75074577331543 98.18315505981445,12.350296974182129 98.18315505981445,12.350296974182129 98.11558723449707,12.936878204345703 98.11558723449707,12.936878204345703 98.07538986206055,13.4413480758667 98.07538986206055,13.4413480758667 98.05607795715332,13.794684410095215 98.05607795715332,13.794684410095215 98.05107116699219,13.927841186523438 98.05107116699219,13.927841186523438 98.1203556060791,13.935661315917969 98.1203556060791,13.935661315917969 98.30825328826904,13.959121704101562 98.30825328826904,13.959121704101562 98.58474731445312,13.998222351074219 98.58474731445312,13.998222351074219 98.91986846923828,14.052939414978027 98.91986846923828,14.052939414978027 99.28359985351562,14.123320579528809 99.28359985351562,14.123320579528809" stroke="white" stroke-width="0.1" /><polygon points="93.06449890136719,8.319282531738281 93.06449890136719,8.319282531738281 94.2230224609375,8.319282531738281 94.2230224609375,8.319282531738281 94.92683410644531,4.800987243652344 94.92683410644531,4.800987243652344 93.768310546875,4.800987243652344 93.768310546875,4.800987243652344" stroke="white" stroke-width="0.1" /><polygon points="65.98796844482422,6.961822509765625 65.98796844482422,6.961822509765625 66.32615327835083,6.657075881958008 66.32615327835083,6.657075881958008 66.54706001281738,6.106996536254883 66.54706001281738,6.106996536254883 66.67413711547852,5.382990837097168 66.67413711547852,5.382990837097168 66.73082113265991,4.55632209777832 66.73082113265991,4.55632209777832 66.74058437347412,3.6983489990234375 66.74058437347412,3.6983489990234375 66.72687530517578,2.8804779052734375 66.72687530517578,2.8804779052734375 66.70974493026733,2.219367027282715 66.70974493026733,2.219367027282715 66.66039228439331,1.7546653747558594 66.66039228439331,1.7546653747558594 66.52896404266357,1.4424562454223633 66.52896404266357,1.4424562454223633 66.26558303833008,1.2386798858642578 66.26558303833008,1.2386798858642578 65.82040786743164,1.0994672775268555 65.82040786743164,1.0994672775268555 65.14358520507812,0.9807586669921875 65.14358520507812,0.9807586669921875 63.95357847213745,0.9083032608032227 63.95357847213745,0.9083032608032227 62.226057052612305,0.9169101715087891 62.226057052612305,0.9169101715087891 60.297226905822754,0.9763479232788086 60.297226905822754,0.9763479232788086 58.50324630737305,1.0562658309936523 58.50324630737305,1.0562658309936523 57.18033313751221,1.1264562606811523 57.18033313751221,1.1264562606811523 56.66465759277344,1.1566162109375 56.66465759277344,1.1566162109375 55.80397844314575,1.7052173614501953 55.80397844314575,1.7052173614501953 54.41164970397949,2.8597354888916016 54.41164970397949,2.8597354888916016 52.794575691223145,4.305458068847656 52.794575691223145,4.305458068847656 51.25957727432251,5.727696418762207 51.25957727432251,5.727696418762207 50.113558769226074,6.811833381652832 50.113558769226074,6.811833381652832 49.663352966308594,7.243156433105469 49.663352966308594,7.243156433105469 50.1456618309021,7.353973388671875 50.1456618309021,7.353973388671875 50.60155391693115,7.413911819458008 50.60155391693115,7.413911819458008 51.02226734161377,7.4367523193359375 51.02226734161377,7.4367523193359375 51.39899253845215,7.436108589172363 51.39899253845215,7.436108589172363 51.72295570373535,7.425689697265625 51.72295570373535,7.425689697265625 51.98535919189453,7.4192047119140625 51.98535919189453,7.4192047119140625 52.185869216918945,7.396745681762695 52.185869216918945,7.396745681762695 52.33457088470459,7.333183288574219 52.33457088470459,7.333183288574219 52.43830680847168,7.234454154968262 52.43830680847168,7.234454154968262 52.50391960144043,7.106375694274902 52.50391960144043,7.106375694274902 52.538275718688965,6.9548845291137695 52.538275718688965,6.9548845291137695 52.5482177734375,6.785774230957031 52.5482177734375,6.785774230957031 52.56272554397583,6.575870513916016 52.56272554397583,6.575870513916016 52.605581283569336,6.31411075592041 52.605581283569336,6.31411075592041 52.675819396972656,6.0250043869018555 52.675819396972656,6.0250043869018555 52.77242660522461,5.732917785644531 52.77242660522461,5.732917785644531 52.89444923400879,5.462360382080078 52.89444923400879,5.462360382080078 53.04088592529297,5.237770080566406 53.04088592529297,5.237770080566406 53.19187641143799,5.051755905151367 53.19187641143799,5.051755905151367 53.33406925201416,4.887247085571289 53.33406925201416,4.887247085571289 53.47626209259033,4.754018783569336 53.47626209259033,4.754018783569336 53.6272406578064,4.661750793457031 53.6272406578064,4.661750793457031 53.7958025932312,4.62040901184082 53.7958025932312,4.62040901184082 53.990745544433594,4.639625549316406 53.990745544433594,4.639625549316406 54.16489839553833,4.7695159912109375 54.16489839553833,4.7695159912109375 54.2696475982666,5.021524429321289 54.2696475982666,5.021524429321289 54.31182384490967,5.347800254821777 54.31182384490967,5.347800254821777 54.2982816696167,5.700421333312988 54.2982816696167,5.700421333312988 54.235899448394775,6.031560897827148 54.235899448394775,6.031560897827148 54.131507873535156,6.293296813964844 54.131507873535156,6.293296813964844 53.9991021156311,6.468534469604492 53.9991021156311,6.468534469604492 53.8578987121582,6.581211090087891 53.8578987121582,6.581211090087891 53.722548484802246,6.645083427429199 53.722548484802246,6.645083427429199 53.60771417617798,6.673741340637207 53.60771417617798,6.673741340637207 53.5280704498291,6.680917739868164 53.5280704498291,6.680917739868164 53.498268127441406,6.6802978515625 53.498268127441406,6.6802978515625 53.67412567138672,7.524681091308594 53.67412567138672,7.524681091308594 54.10935878753662,7.5481414794921875 54.10935878753662,7.5481414794921875 55.2443265914917,7.606744766235352 55.2443265914917,7.606744766235352 56.822991371154785,7.682991027832031 56.822991371154785,7.682991027832031 58.5892915725708,7.759189605712891 58.5892915725708,7.759189605712891 60.28716564178467,7.817816734313965 60.28716564178467,7.817816734313965 61.66057586669922,7.841300964355469 61.66057586669922,7.841300964355469 62.706756591796875,7.798147201538086 62.706756591796875,7.798147201538086 63.603413105010986,7.6836347579956055 63.603413105010986,7.6836347579956055 64.36522006988525,7.520294189453125 64.36522006988525,7.520294189453125 65.00680446624756,7.330513000488281 65.00680446624756,7.330513000488281 65.5428409576416,7.136869430541992 65.5428409576416,7.136869430541992" stroke="white" stroke-width="0.1" /><polygon points="36.49024963378906,18.260955810546875 36.49024963378906,18.260955810546875 36.430978775024414,17.99912452697754 36.430978775024414,17.99912452697754 36.2636923789978,17.763805389404297 36.2636923789978,17.763805389404297 36.00423336029053,17.56448745727539 36.00423336029053,17.56448745727539 35.66838502883911,17.41044521331787 35.66838502883911,17.41044521331787 35.27200222015381,17.31116771697998 35.27200222015381,17.31116771697998 34.83085632324219,17.2760009765625 34.83085632324219,17.2760009765625 34.61000919342041,17.284679412841797 34.61000919342041,17.284679412841797 34.398043155670166,17.309951782226562 34.398043155670166,17.309951782226562 34.19680595397949,17.35074520111084 34.19680595397949,17.35074520111084 34.008121490478516,17.4058198928833 34.008121490478516,17.4058198928833 33.83383750915527,17.47422218322754 33.83383750915527,17.47422218322754 33.67576599121094,17.554664611816406 33.67576599121094,17.554664611816406 33.517634868621826,17.47422218322754 33.517634868621826,17.47422218322754 33.34331512451172,17.40586757659912 33.34331512451172,17.40586757659912 33.15463066101074,17.35074520111084 33.15463066101074,17.35074520111084 32.95338153839111,17.309951782226562 32.95338153839111,17.309951782226562 32.741403579711914,17.284679412841797 32.741403579711914,17.284679412841797 32.520484924316406,17.2760009765625 32.520484924316406,17.2760009765625 32.07935094833374,17.31119155883789 32.07935094833374,17.31119155883789 31.682944297790527,17.41046905517578 31.682944297790527,17.41046905517578 31.347107887268066,17.56448745727539 31.347107887268066,17.56448745727539 31.087636947631836,17.763781547546387 31.087636947631836,17.763781547546387 30.92036247253418,17.99910068511963 30.92036247253418,17.99910068511963 30.86109161376953,18.260955810546875 30.86109161376953,18.260955810546875 30.92036247253418,18.52288246154785 30.92036247253418,18.52288246154785 31.087636947631836,18.758201599121094 31.087636947631836,18.758201599121094 31.347107887268066,18.95759105682373 31.347107887268066,18.95759105682373 31.682944297790527,19.11156177520752 31.682944297790527,19.11156177520752 32.079339027404785,19.21091079711914 32.079339027404785,19.21091079711914 32.520484924316406,19.24610137939453 32.520484924316406,19.24610137939453 32.741403579711914,19.237422943115234 32.741403579711914,19.237422943115234 32.95339345932007,19.21217441558838 32.95339345932007,19.21217441558838 33.15463066101074,19.171452522277832 33.15463066101074,19.171452522277832 33.34331512451172,19.11633014678955 33.34331512451172,19.11633014678955 33.517634868621826,19.048047065734863 33.517634868621826,19.048047065734863 33.67576599121094,18.967628479003906 33.67576599121094,18.967628479003906 33.83383750915527,19.048070907592773 33.83383750915527,19.048070907592773 34.008121490478516,19.11635398864746 34.008121490478516,19.11635398864746 34.19680595397949,19.171452522277832 34.19680595397949,19.171452522277832 34.39803123474121,19.21212673187256 34.39803123474121,19.21212673187256 34.61000919342041,19.237422943115234 34.61000919342041,19.237422943115234 34.83085632324219,19.24610137939453 34.83085632324219,19.24610137939453 35.27200222015381,19.21091079711914 35.27200222015381,19.21091079711914 35.668396949768066,19.11160945892334 35.668396949768066,19.11160945892334 36.00423336029053,18.95759105682373 36.00423336029053,18.95759105682373 36.2636923789978,18.758177757263184 36.2636923789978,18.758177757263184 36.43096685409546,18.52285861968994 36.43096685409546,18.52285861968994" stroke="white" stroke-width="0.1" /></svg>