<?xml version="1.0" encoding="utf-8" ?>
<svg baseProfile="full" height="36.92626953125" version="1.1" width="99.981689453125" xmlns="http://www.w3.org/2000/svg" xmlns:ev="http://www.w3.org/2001/xml-events" xmlns:xlink="http://www.w3.org/1999/xlink"><defs><clipPath /></defs><polygon points="99.981689453125,22.940826416015625 99.981689453125,22.940826416015625 99.97134208679199,23.31516742706299 99.97134208679199,23.31516742706299 99.81136322021484,23.648500442504883 99.81136322021484,23.648500442504883 99.56932067871094,23.92878532409668 99.56932067871094,23.92878532409668 99.31278228759766,24.14388656616211 99.31278228759766,24.14388656616211 99.10931587219238,24.281835556030273 99.10931587219238,24.281835556030273 99.0264892578125,24.330520629882812 99.0264892578125,24.330520629882812 99.04820919036865,24.59392547607422 99.04820919036865,24.59392547607422 99.08442497253418,25.279545783996582 99.08442497253418,25.279545783996582 99.09167289733887,26.230621337890625 99.09167289733887,26.230621337890625 99.02653694152832,27.29024887084961 99.02653694152832,27.29024887084961 98.84557723999023,28.301668167114258 98.84557723999023,28.301668167114258 98.50540161132812,29.108047485351562 98.50540161132812,29.108047485351562 97.88634777069092,29.747772216796875 97.88634777069092,29.747772216796875 96.99950218200684,30.34651279449463 96.99950218200684,30.34651279449463 95.99685668945312,30.87773323059082 95.99685668945312,30.87773323059082 95.03045082092285,31.314873695373535 95.03045082092285,31.314873695373535 94.25230026245117,31.63142204284668 94.25230026245117,31.63142204284668 93.81446838378906,31.80084228515625 93.81446838378906,31.80084228515625 93.13499927520752,31.90634250640869 93.13499927520752,31.90634250640869 91.64505004882812,32.06779956817627 91.64505004882812,32.06779956817627 89.63751792907715,32.26442337036133 89.63751792907715,32.26442337036133 87.40525245666504,32.47532844543457 87.40525245666504,32.47532844543457 85.24117469787598,32.67972469329834 85.24117469787598,32.67972469329834 83.4381103515625,32.85675048828125 83.4381103515625,32.85675048828125 83.55975151062012,32.468533515930176 83.55975151062012,32.468533515930176 83.66091251373291,32.071828842163086 83.66091251373291,32.071828842163086 83.74090194702148,31.667137145996094 83.74090194702148,31.667137145996094 83.7989330291748,31.255054473876953 83.7989330291748,31.255054473876953 83.83431434631348,30.836200714111328 83.83431434631348,30.836200714111328 83.84628295898438,30.411148071289062 83.84628295898438,30.411148071289062 83.5759162902832,28.40442657470703 83.5759162902832,28.40442657470703 82.81311988830566,26.599764823913574 82.81311988830566,26.599764823913574 81.63046836853027,25.069808959960938 81.63046836853027,25.069808959960938 80.10053634643555,23.887085914611816 80.10053634643555,23.887085914611816 78.29585075378418,23.124241828918457 78.29585075378418,23.124241828918457 76.28898620605469,22.853851318359375 76.28898620605469,22.853851318359375 74.2823839187622,23.124265670776367 74.2823839187622,23.124265670776367 72.47778177261353,23.887109756469727 72.47778177261353,23.887109756469727 70.94779014587402,25.069808959960938 70.94779014587402,25.069808959960938 69.76501941680908,26.599740982055664 69.76501941680908,26.599740982055664 69.0021276473999,28.40437889099121 69.0021276473999,28.40437889099121 68.731689453125,30.411148071289062 68.731689453125,30.411148071289062 68.7409520149231,30.785393714904785 68.7409520149231,30.785393714904785 68.76839399337769,31.154894828796387 68.76839399337769,31.154894828796387 68.81351470947266,31.519269943237305 68.81351470947266,31.519269943237305 68.87578964233398,31.878113746643066 68.87578964233398,31.878113746643066 68.95473003387451,32.23114013671875 68.95473003387451,32.23114013671875 69.04983520507812,32.57789611816406 69.04983520507812,32.57789611816406 68.77131462097168,32.9289436340332 68.77131462097168,32.9289436340332 68.49130392074585,33.23872089385986 68.49130392074585,33.23872089385986 68.21236610412598,33.498287200927734 68.21236610412598,33.498287200927734 67.93701648712158,33.69860649108887 67.93701648712158,33.69860649108887 67.6677942276001,33.830857276916504 67.6677942276001,33.830857276916504 67.4072265625,33.885955810546875 67.4072265625,33.885955810546875 63.5267972946167,33.9674711227417 63.5267972946167,33.9674711227417 55.09796142578125,34.10453796386719 55.09796142578125,34.10453796386719 44.46365833282471,34.265756607055664 44.46365833282471,34.265756607055664 33.966898918151855,34.41975116729736 33.966898918151855,34.41975116729736 25.95064640045166,34.53516960144043 25.95064640045166,34.53516960144043 22.757911682128906,34.58061218261719 22.757911682128906,34.58061218261719 22.09930419921875,33.768463134765625 22.09930419921875,33.768463134765625 22.332727909088135,33.25192928314209 22.332727909088135,33.25192928314209 22.5278377532959,32.71586894989014 22.5278377532959,32.71586894989014 22.682809829711914,32.16204643249512 22.682809829711914,32.16204643249512 22.795772552490234,31.592130661010742 22.795772552490234,31.592130661010742 22.864913940429688,31.007933616638184 22.864913940429688,31.007933616638184 22.88837432861328,30.411148071289062 22.88837432861328,30.411148071289062 22.617948055267334,28.40442657470703 22.617948055267334,28.40442657470703 21.85506820678711,26.599764823913574 21.85506820678711,26.599764823913574 20.67234516143799,25.069808959960938 20.67234516143799,25.069808959960938 19.14236545562744,23.887085914611816 19.14236545562744,23.887085914611816 17.33773946762085,23.124241828918457 17.33773946762085,23.124241828918457 15.331077575683594,22.853851318359375 15.331077575683594,22.853851318359375 13.324344158172607,23.124265670776367 13.324344158172607,23.124265670776367 11.519694328308105,23.887109756469727 11.519694328308105,23.887109756469727 9.989738464355469,25.069808959960938 9.989738464355469,25.069808959960938 8.807039260864258,26.599740982055664 8.807039260864258,26.599740982055664 8.044195175170898,28.40437889099121 8.044195175170898,28.40437889099121 7.773780822753906,30.411148071289062 7.773780822753906,30.411148071289062 7.790231704711914,30.910825729370117 7.790231704711914,30.910825729370117 7.8388214111328125,31.401824951171875 7.8388214111328125,31.401824951171875 7.918453216552734,31.88309669494629 7.918453216552734,31.88309669494629 8.028030395507812,32.35373497009277 8.028030395507812,32.35373497009277 8.166468143463135,32.8127384185791 8.166468143463135,32.8127384185791 8.332633972167969,33.25920104980469 8.332633972167969,33.25920104980469 7.209014892578125,33.885955810546875 7.209014892578125,33.885955810546875 6.945991516113281,33.91087055206299 6.945991516113281,33.91087055206299 6.263101100921631,33.96949768066406 6.263101100921631,33.96949768066406 5.319619178771973,34.03778076171875 5.319619178771973,34.03778076171875 4.274797439575195,34.09152030944824 4.274797439575195,34.09152030944824 3.287935256958008,34.10670757293701 3.287935256958008,34.10670757293701 2.5182723999023438,34.05914306640625 2.5182723999023438,34.05914306640625 2.050149440765381,33.89127254486084 2.050149440765381,33.89127254486084 1.813650131225586,33.58335494995117 1.813650131225586,33.58335494995117 1.7364025115966797,33.16917419433594 1.7364025115966797,33.16917419433594 1.7460346221923828,32.68249034881592 1.7460346221923828,32.68249034881592 1.770174503326416,32.157135009765625 1.770174503326416,32.157135009765625 1.7364501953125,31.62689208984375 1.7364501953125,31.62689208984375 1.6560077667236328,31.11426830291748 1.6560077667236328,31.11426830291748 1.585245132446289,30.623340606689453 1.585245132446289,30.623340606689453 1.5192985534667969,30.161380767822266 1.5192985534667969,30.161380767822266 1.4533519744873047,29.735565185546875 1.4533519744873047,29.735565185546875 1.382589340209961,29.35318946838379 1.382589340209961,29.35318946838379 1.3021469116210938,29.021453857421875 1.3021469116210938,29.021453857421875 1.1581778526306152,28.743553161621094 1.1581778526306152,28.743553161621094 0.9321808815002441,28.50661277770996 0.9321808815002441,28.50661277770996 0.6724119186401367,28.293800354003906 0.6724119186401367,28.293800354003906 0.4271268844604492,28.08821201324463 0.4271268844604492,28.08821201324463 0.2445697784423828,27.87303924560547 0.2445697784423828,27.87303924560547 0.17299652099609375,27.631378173828125 0.17299652099609375,27.631378173828125 0.17942190170288086,27.115821838378906 0.17942190170288086,27.115821838378906 0.19550323486328125,26.228618621826172 0.19550323486328125,26.228618621826172 0.21638870239257812,25.177288055419922 0.21638870239257812,25.177288055419922 0.237274169921875,24.169373512268066 0.237274169921875,24.169373512268066 0.2533435821533203,23.412442207336426 0.2533435821533203,23.412442207336426 0.2597808837890625,23.114013671875 0.2597808837890625,23.114013671875 0.22318363189697266,22.995805740356445 0.22318363189697266,22.995805740356445 0.14072656631469727,22.689414024353027 0.14072656631469727,22.689414024353027 0.05345344543457031,22.26724624633789 0.05345344543457031,22.26724624633789 0.002384185791015625,21.80161476135254 0.002384185791015625,21.80161476135254 0.028562545776367188,21.364974975585938 0.028562545776367188,21.364974975585938 0.17299652099609375,21.0296630859375 0.17299652099609375,21.0296630859375 0.42023658752441406,20.74563503265381 0.42023658752441406,20.74563503265381 0.703728199005127,20.43750286102295 0.703728199005127,20.43750286102295 0.98724365234375,20.139074325561523 0.98724365234375,20.139074325561523 1.234579086303711,19.884061813354492 1.234579086303711,19.884061813354492 1.4095425605773926,19.706344604492188 1.4095425605773926,19.706344604492188 1.4759063720703125,19.63958740234375 1.4759063720703125,19.63958740234375 1.495206356048584,19.339585304260254 1.495206356048584,19.339585304260254 1.6013622283935547,18.57144832611084 1.6013622283935547,18.57144832611084 1.866769790649414,17.533063888549805 1.866769790649414,17.533063888549805 2.3638248443603516,16.422271728515625 2.3638248443603516,16.422271728515625 3.1649231910705566,15.437006950378418 3.1649231910705566,15.437006950378418 4.342460632324219,14.77508544921875 4.342460632324219,14.77508544921875 6.062841415405273,14.376592636108398 6.062841415405273,14.376592636108398 8.318948745727539,14.048075675964355 8.318948745727539,14.048075675964355 10.922527313232422,13.787126541137695 10.922527313232422,13.787126541137695 13.685369491577148,13.591289520263672 13.685369491577148,13.591289520263672 16.41925573348999,13.45820426940918 16.41925573348999,13.45820426940918 18.93596649169922,13.385391235351562 18.93596649169922,13.385391235351562 21.17757797241211,13.334417343139648 21.17757797241211,13.334417343139648 23.173058032989502,13.266491889953613 23.173058032989502,13.266491889953613 24.864506721496582,13.179206848144531 24.864506721496582,13.179206848144531 26.19401216506958,13.070154190063477 26.19401216506958,13.070154190063477 27.103686332702637,12.937021255493164 27.103686332702637,12.937021255493164 27.535629272460938,12.777328491210938 27.535629272460938,12.777328491210938 28.101491928100586,11.972594261169434 28.101491928100586,11.972594261169434 29.253697395324707,10.219550132751465 29.253697395324707,10.219550132751465 30.695438385009766,7.988786697387695 30.695438385009766,7.988786697387695 32.12993144989014,5.750775337219238 32.12993144989014,5.750775337219238 33.260393142700195,3.976118564605713 33.260393142700195,3.976118564605713 33.790016174316406,3.1352996826171875 33.790016174316406,3.1352996826171875 34.01923179626465,2.7837395668029785 34.01923179626465,2.7837395668029785 34.436678886413574,2.2343039512634277 34.436678886413574,2.2343039512634277 35.02786159515381,1.5932083129882812 35.02786159515381,1.5932083129882812 35.77828407287598,0.9665727615356445 35.77828407287598,0.9665727615356445 36.67347431182861,0.4606485366821289 36.67347431182861,0.4606485366821289 37.698936462402344,0.18157958984375 37.698936462402344,0.18157958984375 39.404964447021484,0.060999393463134766 39.404964447021484,0.060999393463134766 42.02300310134888,0.0002741813659667969 42.02300310134888,0.0002741813659667969 45.06087303161621,0.06022453308105469 45.06087303161621,0.06022453308105469 48.026347160339355,0.3015756607055664 48.026347160339355,0.3015756607055664 50.42724609375,0.7851123809814453 50.42724609375,0.7851123809814453 51.77135467529297,1.5716552734375 51.77135467529297,1.5716552734375 52.44479179382324,3.1105756759643555 52.44479179382324,3.1105756759643555 53.003668785095215,5.297398567199707 53.003668785095215,5.297398567199707 53.47087383270264,7.744836807250977 53.47087383270264,7.744836807250977 53.86925935745239,10.065507888793945 53.86925935745239,10.065507888793945 54.22172546386719,11.872100830078125 54.22172546386719,11.872100830078125 54.551124572753906,12.777328491210938 54.551124572753906,12.777328491210938 57.74059295654297,13.00971508026123 57.74059295654297,13.00971508026123 65.22889137268066,13.08901309967041 65.22889137268066,13.08901309967041 74.8720645904541,13.06467056274414 74.8720645904541,13.06467056274414 84.52610969543457,12.986087799072266 84.52610969543457,12.986087799072266 92.04714298248291,12.902688980102539 92.04714298248291,12.902688980102539 95.2911376953125,12.863922119140625 95.2911376953125,12.863922119140625 95.68679332733154,13.103199005126953 95.68679332733154,13.103199005126953 96.08244895935059,13.735818862915039 96.08244895935059,13.735818862915039 96.46368026733398,14.633846282958984 96.46368026733398,14.633846282958984 96.81596755981445,15.66934585571289 96.81596755981445,15.66934585571289 97.12486267089844,16.71454906463623 97.12486267089844,16.71454906463623 97.37586975097656,17.641448974609375 97.37586975097656,17.641448974609375 97.64339923858643,18.316078186035156 97.64339923858643,18.316078186035156 97.98088073730469,18.75166893005371 97.98088073730469,18.75166893005371 98.34251403808594,19.042444229125977 98.34251403808594,19.042444229125977 98.68237972259521,19.28248405456543 98.68237972259521,19.28248405456543 98.9546537399292,19.565987586975098 98.9546537399292,19.565987586975098 99.11346435546875,19.987106323242188 99.11346435546875,19.987106323242188 99.14155006408691,20.490670204162598 99.14155006408691,20.490670204162598 99.07793998718262,20.94595432281494 99.07793998718262,20.94595432281494 98.96130561828613,21.333646774291992 98.96130561828613,21.333646774291992 98.83017539978027,21.634435653686523 98.83017539978027,21.634435653686523 98.72322082519531,21.82908058166504 98.72322082519531,21.82908058166504 98.67897033691406,21.898269653320312 98.67897033691406,21.898269653320312 98.59199523925781,22.592926025390625 98.59199523925781,22.592926025390625 98.68288040161133,22.564387321472168 98.68288040161133,22.564387321472168 98.91371726989746,22.509336471557617 98.91371726989746,22.509336471557617 99.22175407409668,22.473621368408203 99.22175407409668,22.473621368408203 99.54423904418945,22.503042221069336 99.54423904418945,22.503042221069336 99.81846809387207,22.643518447875977 99.81846809387207,22.643518447875977" stroke="white" stroke-width="0.1" /><polygon points="38.56773376464844,12.082290649414062 38.56773376464844,12.082290649414062 38.65470886230469,4.7855377197265625 38.65470886230469,4.7855377197265625 38.607656955718994,4.840636253356934 38.607656955718994,4.840636253356934 38.48097324371338,4.994678497314453 38.48097324371338,4.994678497314453 38.29636573791504,5.23076057434082 38.29636573791504,5.23076057434082 38.07554244995117,5.531954765319824 38.07554244995117,5.531954765319824 37.840235233306885,5.881404876708984 37.840235233306885,5.881404876708984 37.612152099609375,6.26220703125 37.612152099609375,6.26220703125 37.23621368408203,6.932675838470459 37.23621368408203,6.932675838470459 36.630988121032715,8.006024360656738 36.630988121032715,8.006024360656738 35.929203033447266,9.24825668334961 35.929203033447266,9.24825668334961 35.26358604431152,10.425281524658203 35.26358604431152,10.425281524658203 34.76690053939819,11.303162574768066 34.76690053939819,11.303162574768066 34.57183837890625,11.647796630859375 34.57183837890625,11.647796630859375 34.686827659606934,12.011909484863281 34.686827659606934,12.011909484863281 35.376131534576416,12.185311317443848 35.376131534576416,12.185311317443848 36.37430667877197,12.223529815673828 36.37430667877197,12.223529815673828 37.41590976715088,12.182044982910156 37.41590976715088,12.182044982910156 38.235533237457275,12.116479873657227 38.235533237457275,12.116479873657227" stroke="white" stroke-width="0.1" /><polygon points="48.557281494140625,9.128952026367188 48.557281494140625,9.128952026367188 48.58464002609253,7.514286041259766 48.58464002609253,7.514286041259766 48.60234260559082,6.288051605224609 48.60234260559082,6.288051605224609 48.51388931274414,5.404472351074219 48.51388931274414,5.404472351074219 48.22273254394531,4.817652702331543 48.22273254394531,4.817652702331543 47.632384300231934,4.481792449951172 47.632384300231934,4.481792449951172 46.64630889892578,4.351043701171875 46.64630889892578,4.351043701171875 45.26764154434204,4.320979118347168 45.26764154434204,4.320979118347168 43.695974349975586,4.312562942504883 43.695974349975586,4.312562942504883 42.12915897369385,4.318571090698242 42.12915897369385,4.318571090698242 40.76504707336426,4.331779479980469 40.76504707336426,4.331779479980469 39.80149030685425,4.3450117111206055 39.80149030685425,4.3450117111206055 39.43634033203125,4.351043701171875 39.43634033203125,4.351043701171875 39.26258087158203,12.690353393554688 39.26258087158203,12.690353393554688 39.8686408996582,12.695598602294922 39.8686408996582,12.695598602294922 41.38922691345215,12.703251838684082 41.38922691345215,12.703251838684082 43.3779239654541,12.701272964477539 43.3779239654541,12.701272964477539 45.3883171081543,12.677574157714844 45.3883171081543,12.677574157714844 46.974050998687744,12.620115280151367 46.974050998687744,12.620115280151367 47.68867492675781,12.51678466796875 47.68867492675781,12.51678466796875 47.84355163574219,12.428736686706543 47.84355163574219,12.428736686706543 48.02975654602051,12.333393096923828 48.02975654602051,12.333393096923828 48.22075366973877,12.093305587768555 48.22075366973877,12.093305587768555 48.39003086090088,11.5708589553833 48.39003086090088,11.5708589553833 48.51102828979492,10.628604888916016 48.51102828979492,10.628604888916016" stroke="white" stroke-width="0.1" /><polygon points="15.331077575683594,23.896026611328125 15.331077575683594,23.896026611328125 17.062973976135254,24.12874698638916 17.062973976135254,24.12874698638916 18.619251251220703,24.785470962524414 18.619251251220703,24.785470962524414 19.937801361083984,25.80418586730957 19.937801361083984,25.80418586730957 20.956504344940186,27.12273597717285 20.956504344940186,27.12273597717285 21.61327600479126,28.67908477783203 21.61327600479126,28.67908477783203 21.84600830078125,30.411148071289062 21.84600830078125,30.411148071289062 21.831893920898438,30.841755867004395 21.831893920898438,30.841755867004395 21.79018259048462,31.264781951904297 21.79018259048462,31.264781951904297 21.721839904785156,31.679391860961914 21.721839904785156,31.679391860961914 21.6278076171875,32.08472728729248 21.6278076171875,32.08472728729248 21.509039402008057,32.48000144958496 21.509039402008057,32.48000144958496 21.366500854492188,32.8643798828125 21.366500854492188,32.8643798828125 20.772457122802734,33.99231433868408 20.772457122802734,33.99231433868408 19.977617263793945,34.97607707977295 19.977617263793945,34.97607707977295 19.009041786193848,35.788536071777344 19.009041786193848,35.788536071777344 17.893731594085693,36.40248775482178 17.893731594085693,36.40248775482178 16.658735275268555,36.79077625274658 16.658735275268555,36.79077625274658 15.331077575683594,36.92626953125 15.331077575683594,36.92626953125 13.982486724853516,36.786437034606934 13.982486724853516,36.786437034606934 12.730038166046143,36.38596534729004 12.730038166046143,36.38596534729004 11.602139472961426,35.75334548950195 11.602139472961426,35.75334548950195 10.627150535583496,34.91706848144531 10.627150535583496,34.91706848144531 9.833478927612305,33.905649185180664 9.833478927612305,33.905649185180664 9.249496459960938,32.747650146484375 9.249496459960938,32.747650146484375 9.120571613311768,32.379841804504395 9.120571613311768,32.379841804504395 9.013211727142334,32.00244903564453 9.013211727142334,32.00244903564453 8.928251266479492,31.61616325378418 8.928251266479492,31.61616325378418 8.866524696350098,31.221675872802734 8.866524696350098,31.221675872802734 8.828878402709961,30.81979751586914 8.828878402709961,30.81979751586914 8.816146850585938,30.411148071289062 8.816146850585938,30.411148071289062 9.048867225646973,28.67910861968994 9.048867225646973,28.67910861968994 9.705603122711182,27.12273597717285 9.705603122711182,27.12273597717285 10.724282264709473,25.80418586730957 10.724282264709473,25.80418586730957 12.042808532714844,24.785470962524414 12.042808532714844,24.785470962524414 13.599109649658203,24.12872314453125 13.599109649658203,24.12872314453125" stroke="white" stroke-width="0.1" /><polygon points="76.28898620605469,23.896026611328125 76.28898620605469,23.896026611328125 78.02103757858276,24.12874698638916 78.02103757858276,24.12874698638916 79.57738637924194,24.785470962524414 79.57738637924194,24.785470962524414 80.89594841003418,25.80418586730957 80.89594841003418,25.80418586730957 81.91463947296143,27.12273597717285 81.91463947296143,27.12273597717285 82.57138729095459,28.67908477783203 82.57138729095459,28.67908477783203 82.80410766601562,30.411148071289062 82.80410766601562,30.411148071289062 82.78849124908447,30.865025520324707 82.78849124908447,30.865025520324707 82.7423095703125,31.310462951660156 82.7423095703125,31.310462951660156 82.66668319702148,31.746435165405273 82.66668319702148,31.746435165405273 82.56261348724365,32.17191696166992 82.56261348724365,32.17191696166992 82.43119716644287,32.586002349853516 82.43119716644287,32.586002349853516 82.27348327636719,32.98759460449219 82.27348327636719,32.98759460449219 81.66985511779785,34.08374786376953 81.66985511779785,34.08374786376953 80.87444305419922,35.03837585449219 80.87444305419922,35.03837585449219 79.91294860839844,35.82568168640137 79.91294860839844,35.82568168640137 78.81104946136475,36.4199161529541 78.81104946136475,36.4199161529541 77.59450674057007,36.79537773132324 77.59450674057007,36.79537773132324 76.28898620605469,36.92626953125 76.28898620605469,36.92626953125 74.70885515213013,36.733269691467285 74.70885515213013,36.733269691467285 73.26910495758057,36.185336112976074 73.26910495758057,36.185336112976074 72.0163345336914,35.32910346984863 72.0163345336914,35.32910346984863 70.99714279174805,34.21120643615723 70.99714279174805,34.21120643615723 70.25816440582275,32.87830352783203 70.25816440582275,32.87830352783203 69.84596252441406,31.377029418945312 69.84596252441406,31.377029418945312 69.82436180114746,31.218743324279785 69.82436180114746,31.218743324279785 69.80650424957275,31.0593843460083 69.80650424957275,31.0593843460083 69.79250907897949,30.89895248413086 69.79250907897949,30.89895248413086 69.78240013122559,30.73740005493164 69.78240013122559,30.73740005493164 69.77629661560059,30.574798583984375 69.77629661560059,30.574798583984375 69.77424621582031,30.411148071289062 69.77424621582031,30.411148071289062 70.00695466995239,28.67910861968994 70.00695466995239,28.67910861968994 70.6636905670166,27.12273597717285 70.6636905670166,27.12273597717285 71.68235778808594,25.80418586730957 71.68235778808594,25.80418586730957 73.00084829330444,24.785470962524414 73.00084829330444,24.785470962524414 74.55708980560303,24.12872314453125 74.55708980560303,24.12872314453125" stroke="white" stroke-width="0.1" /></svg>