<?xml version="1.0" encoding="utf-8" ?>
<svg baseProfile="full" height="27.98919677734375" version="1.1" width="100.0" xmlns="http://www.w3.org/2000/svg" xmlns:ev="http://www.w3.org/2001/xml-events" xmlns:xlink="http://www.w3.org/1999/xlink"><defs><clipPath /></defs><polygon points="16.966629028320312,10.861968994140625 16.966629028320312,10.861968994140625 18.357038497924805,10.527420043945312 18.357038497924805,10.527420043945312 19.475984573364258,10.23557186126709 19.475984573364258,10.23557186126709 20.345497131347656,9.987306594848633 20.345497131347656,9.987306594848633 20.987653732299805,9.783411026000977 20.987653732299805,9.783411026000977 21.424531936645508,9.624814987182617 21.424531936645508,9.624814987182617 21.67816162109375,9.5123291015625 21.67816162109375,9.5123291015625 21.905040740966797,9.407758712768555 21.905040740966797,9.407758712768555 22.11904525756836,9.338617324829102 22.11904525756836,9.338617324829102 22.319412231445312,9.303569793701172 22.319412231445312,9.303569793701172 22.50537872314453,9.301257133483887 22.50537872314453,9.301257133483887 22.67630100250244,9.330296516418457 22.67630100250244,9.330296516418457 22.831344604492188,9.389495849609375 22.831344604492188,9.389495849609375 22.998881340026855,9.440135955810547 22.998881340026855,9.440135955810547 23.197031021118164,9.451937675476074 23.197031021118164,9.451937675476074 23.41017723083496,9.436488151550293 23.41017723083496,9.436488151550293 23.622775077819824,9.405136108398438 23.622775077819824,9.405136108398438 23.819303512573242,9.369444847106934 23.819303512573242,9.369444847106934 23.984146118164062,9.340858459472656 23.984146118164062,9.340858459472656 24.738025665283203,9.048914909362793 24.738025665283203,9.048914909362793 26.480436325073242,8.315038681030273 26.480436325073242,8.315038681030273 28.864622116088867,7.288360595703125 28.864622116088867,7.288360595703125 31.543755531311035,6.117963790893555 31.543755531311035,6.117963790893555 34.171104431152344,4.95305061340332 34.171104431152344,4.95305061340332 36.39984130859375,3.9426803588867188 36.39984130859375,3.9426803588867188 36.79766654968262,3.7322998046875 36.79766654968262,3.7322998046875 37.91389465332031,3.1920433044433594 37.91389465332031,3.1920433044433594 39.63265419006348,2.45821475982666 39.63265419006348,2.45821475982666 41.83804988861084,1.6670942306518555 41.83804988861084,1.6670942306518555 44.41428184509277,0.9550333023071289 44.41428184509277,0.9550333023071289 47.24540710449219,0.45833587646484375 47.24540710449219,0.45833587646484375 50.266194343566895,0.18377304077148438 50.266194343566895,0.18377304077148438 53.39705944061279,0.036597251892089844 53.39705944061279,0.036597251892089844 56.50067329406738,0.001239776611328125 56.50067329406738,0.001239776611328125 59.43961143493652,0.06194114685058594 59.43961143493652,0.06194114685058594 62.076592445373535,0.20320415496826172 62.076592445373535,0.20320415496826172 64.27421569824219,0.4093170166015625 64.27421569824219,0.4093170166015625 66.48097038269043,0.7982730865478516 66.48097038269043,0.7982730865478516 69.08342838287354,1.4344453811645508 69.08342838287354,1.4344453811645508 71.85158729553223,2.2219181060791016 71.85158729553223,2.2219181060791016 74.55527782440186,3.064560890197754 74.55527782440186,3.064560890197754 76.96449756622314,3.866457939147949 76.96449756622314,3.866457939147949 78.84902954101562,4.5314788818359375 78.84902954101562,4.5314788818359375 80.40592670440674,5.123424530029297 80.40592670440674,5.123424530029297 81.91516399383545,5.733013153076172 81.91516399383545,5.733013153076172 83.27178955078125,6.304383277893066 83.27178955078125,6.304383277893066 84.37075614929199,6.781649589538574 84.37075614929199,6.781649589538574 85.1071834564209,7.10902214050293 85.1071834564209,7.10902214050293 85.3759765625,7.230567932128906 85.3759765625,7.230567932128906 93.08052062988281,7.377815246582031 93.08052062988281,7.377815246582031 95.1416015625,4.8259735107421875 95.1416015625,4.8259735107421875 95.1416015625,1.8815994262695312 95.1416015625,1.8815994262695312 100.0,1.8815994262695312 100.0,1.8815994262695312 100.0,4.727935791015625 100.0,4.727935791015625 96.71211242675781,4.727935791015625 96.71211242675781,4.727935791015625 92.83523559570312,10.027885437011719 92.83523559570312,10.027885437011719 92.78602600097656,15.671348571777344 92.78602600097656,15.671348571777344 92.78602600097656,16.80011749267578 92.78602600097656,16.80011749267578 94.11125183105469,17.241859436035156 94.11125183105469,17.241859436035156 94.16046142578125,20.186233520507812 94.16046142578125,20.186233520507812 93.30177307128906,20.897674560546875 93.30177307128906,20.897674560546875 96.81015014648438,20.897674560546875 96.81015014648438,20.897674560546875 96.81015014648438,21.609115600585938 96.81015014648438,21.609115600585938 93.37539672851562,21.609115600585938 93.37539672851562,21.609115600585938 93.38810443878174,21.669578552246094 93.38810443878174,21.669578552246094 93.41168403625488,21.83091640472412 93.41168403625488,21.83091640472412 93.42436790466309,22.063159942626953 93.42436790466309,22.063159942626953 93.40429306030273,22.336244583129883 93.40429306030273,22.336244583129883 93.3297872543335,22.620248794555664 93.3297872543335,22.620248794555664 93.17893981933594,22.8851318359375 93.17893981933594,22.8851318359375 92.9917573928833,23.128318786621094 92.9917573928833,23.128318786621094 92.82636642456055,23.357796669006348 92.82636642456055,23.357796669006348 92.6882266998291,23.559999465942383 92.6882266998291,23.559999465942383 92.58277416229248,23.72124195098877 92.58277416229248,23.72124195098877 92.51554012298584,23.82802963256836 92.51554012298584,23.82802963256836 92.49191284179688,23.866653442382812 92.49191284179688,23.866653442382812 92.64390468597412,23.84054660797119 92.64390468597412,23.84054660797119 93.03712844848633,23.772192001342773 93.03712844848633,23.772192001342773 93.57762336730957,23.676586151123047 93.57762336730957,23.676586151123047 94.17126178741455,23.56867790222168 94.17126178741455,23.56867790222168 94.72408294677734,23.46353530883789 94.72408294677734,23.46353530883789 95.14198303222656,23.376083374023438 95.14198303222656,23.376083374023438 95.48089504241943,23.298144340515137 95.48089504241943,23.298144340515137 95.84159851074219,23.210597038269043 95.84159851074219,23.210597038269043 96.19688987731934,23.112201690673828 96.19688987731934,23.112201690673828 96.51942253112793,23.001480102539062 96.51942253112793,23.001480102539062 96.78206443786621,22.877144813537598 96.78206443786621,22.877144813537598 96.9573974609375,22.737884521484375 96.9573974609375,22.737884521484375 97.04999923706055,22.89752960205078 97.04999923706055,22.89752960205078 97.09210395812988,23.523283004760742 97.09210395812988,23.523283004760742 97.0987319946289,24.39436912536621 97.0987319946289,24.39436912536621 97.0848560333252,25.2899169921875 97.0848560333252,25.2899169921875 97.06556797027588,25.989270210266113 97.06556797027588,25.989270210266113 97.05581665039062,26.271438598632812 97.05581665039062,26.271438598632812 83.1146240234375,26.271438598632812 83.1146240234375,26.271438598632812 83.73479843139648,25.48065185546875 83.73479843139648,25.48065185546875 84.26017761230469,24.619436264038086 84.26017761230469,24.619436264038086 84.6827507019043,23.695755004882812 84.6827507019043,23.695755004882812 84.99448299407959,22.71735668182373 84.99448299407959,22.71735668182373 85.18741130828857,21.69215679168701 85.18741130828857,21.69215679168701 85.25352478027344,20.627975463867188 85.25352478027344,20.627975463867188 84.94796752929688,18.360567092895508 84.94796752929688,18.360567092895508 84.08598899841309,16.321492195129395 84.08598899841309,16.321492195129395 82.74960517883301,14.592790603637695 82.74960517883301,14.592790603637695 81.02083206176758,13.256430625915527 81.02083206176758,13.256430625915527 78.98173332214355,12.394475936889648 78.98173332214355,12.394475936889648 76.71432495117188,12.088966369628906 76.71432495117188,12.088966369628906 74.44705963134766,12.394523620605469 74.44705963134766,12.394523620605469 72.40805625915527,13.256454467773438 72.40805625915527,13.256454467773438 70.67937850952148,14.592790603637695 70.67937850952148,14.592790603637695 69.3429946899414,16.321468353271484 69.3429946899414,16.321468353271484 68.48104000091553,18.360543251037598 68.48104000091553,18.360543251037598 68.17550659179688,20.627975463867188 68.17550659179688,20.627975463867188 68.24159622192383,21.692204475402832 68.24159622192383,21.692204475402832 68.4345006942749,22.71738052368164 68.4345006942749,22.71738052368164 68.7462329864502,23.695755004882812 68.7462329864502,23.695755004882812 69.16871070861816,24.619436264038086 69.16871070861816,24.619436264038086 69.69399452209473,25.48060417175293 69.69399452209473,25.48060417175293 70.31402587890625,26.271438598632812 70.31402587890625,26.271438598632812 25.9185791015625,26.271438598632812 25.9185791015625,26.271438598632812 26.538753509521484,25.48065185546875 26.538753509521484,25.48065185546875 27.064132690429688,24.619436264038086 27.064132690429688,24.619436264038086 27.486705780029297,23.695755004882812 27.486705780029297,23.695755004882812 27.79843807220459,22.71735668182373 27.79843807220459,22.71735668182373 27.991366386413574,21.69215679168701 27.991366386413574,21.69215679168701 28.057479858398438,20.627975463867188 28.057479858398438,20.627975463867188 27.751922607421875,18.360567092895508 27.751922607421875,18.360567092895508 26.889944076538086,16.321492195129395 26.889944076538086,16.321492195129395 25.553607940673828,14.592790603637695 25.553607940673828,14.592790603637695 23.82488250732422,13.256430625915527 23.82488250732422,13.256430625915527 21.785902976989746,12.394475936889648 21.785902976989746,12.394475936889648 19.518661499023438,12.088966369628906 19.518661499023438,12.088966369628906 17.251253128051758,12.394523620605469 17.251253128051758,12.394523620605469 15.212130546569824,13.256454467773438 15.212130546569824,13.256454467773438 13.483381271362305,14.592790603637695 13.483381271362305,14.592790603637695 12.146973609924316,16.321468353271484 12.146973609924316,16.321468353271484 11.285018920898438,18.360543251037598 11.285018920898438,18.360543251037598 10.979461669921875,20.627975463867188 10.979461669921875,20.627975463867188 11.055564880371094,21.76966667175293 11.055564880371094,21.76966667175293 11.277294158935547,22.865724563598633 11.277294158935547,22.865724563598633 11.63473129272461,23.906469345092773 11.63473129272461,23.906469345092773 12.117981910705566,24.882030487060547 12.117981910705566,24.882030487060547 12.717175483703613,25.78272819519043 12.717175483703613,25.78272819519043 13.422393798828125,26.598739624023438 13.422393798828125,26.598739624023438 12.469673156738281,26.603126525878906 12.469673156738281,26.603126525878906 10.080575942993164,26.605987548828125 10.080575942993164,26.605987548828125 6.958675384521484,26.592063903808594 6.958675384521484,26.592063903808594 3.8075923919677734,26.54590606689453 3.8075923919677734,26.54590606689453 1.3309478759765625,26.452302932739258 1.3309478759765625,26.452302932739258 0.2323150634765625,26.295852661132812 0.2323150634765625,26.295852661132812 0.08432865142822266,26.093339920043945 0.08432865142822266,26.093339920043945 0.006365776062011719,25.889301300048828 0.006365776062011719,25.889301300048828 0.022220611572265625,25.710105895996094 0.022220611572265625,25.710105895996094 0.1555919647216797,25.582003593444824 0.1555919647216797,25.582003593444824 0.4303455352783203,25.531315803527832 0.4303455352783203,25.531315803527832 0.8701324462890625,25.58441162109375 0.8701324462890625,25.58441162109375 1.4995098114013672,25.709223747253418 1.4995098114013672,25.709223747253418 2.261948585510254,25.839829444885254 2.261948585510254,25.839829444885254 3.0602455139160156,25.951671600341797 3.0602455139160156,25.951671600341797 3.797173500061035,26.020026206970215 3.797173500061035,26.020026206970215 4.375553131103516,26.020407676696777 4.375553131103516,26.020407676696777 4.69818115234375,25.928115844726562 4.69818115234375,25.928115844726562 4.781103134155273,25.738859176635742 4.781103134155273,25.738859176635742 4.730749130249023,25.48689842224121 4.730749130249023,25.48689842224121 4.585409164428711,25.204896926879883 4.585409164428711,25.204896926879883 4.383301734924316,24.92542266845703 4.383301734924316,24.92542266845703 4.162740707397461,24.68123435974121 4.162740707397461,24.68123435974121 3.961944580078125,24.504852294921875 3.961944580078125,24.504852294921875 3.4221649169921875,24.210357666015625 3.4221649169921875,24.210357666015625 2.4898529052734375,21.6094970703125 2.4898529052734375,21.6094970703125 2.367067337036133,21.598339080810547 2.367067337036133,21.598339080810547 2.055501937866211,21.569418907165527 2.055501937866211,21.569418907165527 1.64031982421875,21.529579162597656 1.64031982421875,21.529579162597656 1.2066841125488281,21.48563861846924 1.2066841125488281,21.48563861846924 0.8398056030273438,21.44453525543213 0.8398056030273438,21.44453525543213 0.624847412109375,21.413040161132812 0.624847412109375,21.413040161132812 0.5222320556640625,21.37126922607422 0.5222320556640625,21.37126922607422 0.4458904266357422,21.303129196166992 0.4458904266357422,21.303129196166992 0.41179656982421875,21.221351623535156 0.41179656982421875,21.221351623535156 0.4359245300292969,21.138501167297363 0.4359245300292969,21.138501167297363 0.5342960357666016,21.067333221435547 0.5342960357666016,21.067333221435547 0.7228851318359375,21.0205078125 0.7228851318359375,21.0205078125 1.0053157806396484,20.98841667175293 1.0053157806396484,20.98841667175293 1.3426780700683594,20.955204963684082 1.3426780700683594,20.955204963684082 1.6875267028808594,20.923995971679688 1.6875267028808594,20.923995971679688 1.9925117492675781,20.897841453552246 1.9925117492675781,20.897841453552246 2.210259437561035,20.8798885345459 2.210259437561035,20.8798885345459 2.29339599609375,20.873260498046875 2.29339599609375,20.873260498046875 2.276897430419922,20.71981430053711 2.276897430419922,20.71981430053711 2.247166633605957,20.328783988952637 2.247166633605957,20.328783988952637 2.2337913513183594,19.80421543121338 2.2337913513183594,19.80421543121338 2.266359329223633,19.249963760375977 2.266359329223633,19.249963760375977 2.3745298385620117,18.770122528076172 2.3745298385620117,18.770122528076172 2.587890625,18.468666076660156 2.587890625,18.468666076660156 2.8557777404785156,18.257999420166016 2.8557777404785156,18.257999420166016 3.100275993347168,18.00529956817627 3.100275993347168,18.00529956817627 3.310108184814453,17.746448516845703 3.310108184814453,17.746448516845703 3.473949432373047,17.51718521118164 3.473949432373047,17.51718521118164 3.5805702209472656,17.353415489196777 3.5805702209472656,17.353415489196777 3.618621826171875,17.290878295898438 3.618621826171875,17.290878295898438 3.662228584289551,17.093896865844727 3.662228584289551,17.093896865844727 3.8017749786376953,16.584205627441406 3.8017749786376953,16.584205627441406 4.050350189208984,15.883660316467285 4.050350189208984,15.883660316467285 4.421043395996094,15.114116668701172 4.421043395996094,15.114116668701172 4.92701530456543,14.397549629211426 4.92701530456543,14.397549629211426 5.5812835693359375,13.855743408203125 5.5812835693359375,13.855743408203125 6.720590591430664,13.395977020263672 6.720590591430664,13.395977020263672 8.502960205078125,12.869763374328613 8.502960205078125,12.869763374328613 10.67357063293457,12.315225601196289 10.67357063293457,12.315225601196289 12.97760009765625,11.770367622375488 12.97760009765625,11.770367622375488 15.160226821899414,11.27324104309082 15.160226821899414,11.27324104309082" stroke="white" stroke-width="0.1" /><polygon points="5.5908203125,24.105453491210938 5.5908203125,24.105453491210938 5.717754364013672,24.032950401306152 5.717754364013672,24.032950401306152 5.813479423522949,23.889732360839844 5.813479423522949,23.889732360839844 5.875682830810547,23.68788719177246 5.875682830810547,23.68788719177246 5.901956558227539,23.43928813934326 5.901956558227539,23.43928813934326 5.88994026184082,23.156023025512695 5.88994026184082,23.156023025512695 5.837249755859375,22.85003662109375 5.837249755859375,22.85003662109375 5.747866630554199,22.552847862243652 5.747866630554199,22.552847862243652 5.632257461547852,22.294044494628906 5.632257461547852,22.294044494628906 5.497932434082031,22.083377838134766 5.497932434082031,22.083377838134766 5.352258682250977,21.930480003356934 5.352258682250977,21.930480003356934 5.202722549438477,21.845078468322754 5.202722549438477,21.845078468322754 5.0567626953125,21.83685302734375 5.0567626953125,21.83685302734375 4.9297332763671875,21.909523010253906 4.9297332763671875,21.909523010253906 4.83393669128418,22.052693367004395 4.83393669128418,22.052693367004395 4.771757125854492,22.254514694213867 4.771757125854492,22.254514694213867 4.74553108215332,22.502923011779785 4.74553108215332,22.502923011779785 4.757595062255859,22.78604507446289 4.757595062255859,22.78604507446289 4.810333251953125,23.091888427734375 4.810333251953125,23.091888427734375 4.899740219116211,23.389267921447754 4.899740219116211,23.389267921447754 5.015325546264648,23.64811897277832 5.015325546264648,23.64811897277832 5.149650573730469,23.8588809967041 5.149650573730469,23.8588809967041 5.295300483703613,24.011754989624023 5.295300483703613,24.011754989624023 5.444836616516113,24.097156524658203 5.444836616516113,24.097156524658203" stroke="white" stroke-width="0.1" /><polygon points="11.028671264648438,16.50562286376953 11.028671264648438,16.50562286376953 11.25035285949707,16.23249053955078 11.25035285949707,16.23249053955078 11.35566234588623,15.890026092529297 11.35566234588623,15.890026092529297 11.350631713867188,15.504217147827148 11.350631713867188,15.504217147827148 11.241316795349121,15.100979804992676 11.241316795349121,15.100979804992676 11.033821105957031,14.70637321472168 11.033821105957031,14.70637321472168 10.734176635742188,14.3463134765625 10.734176635742188,14.3463134765625 10.284805297851562,14.091968536376953 10.284805297851562,14.091968536376953 9.667205810546875,13.978862762451172 9.667205810546875,13.978862762451172 8.946084976196289,13.979864120483398 8.946084976196289,13.979864120483398 8.186054229736328,14.067721366882324 8.186054229736328,14.067721366882324 7.451820373535156,14.215278625488281 7.451820373535156,14.215278625488281 6.8080902099609375,14.395332336425781 6.8080902099609375,14.395332336425781 6.2374114990234375,14.731550216674805 6.2374114990234375,14.731550216674805 5.702996253967285,15.286946296691895 5.702996253967285,15.286946296691895 5.240869522094727,15.943503379821777 5.240869522094727,15.943503379821777 4.887104034423828,16.58318042755127 4.887104034423828,16.58318042755127 4.677796363830566,17.087960243225098 4.677796363830566,17.087960243225098 4.6489715576171875,17.33989715576172 4.6489715576171875,17.33989715576172 5.133390426635742,17.369747161865234 5.133390426635742,17.369747161865234 6.242942810058594,17.30220317840576 6.242942810058594,17.30220317840576 7.682466506958008,17.159652709960938 7.682466506958008,17.159652709960938 9.15670394897461,16.964387893676758 9.15670394897461,16.964387893676758 10.370516777038574,16.73896312713623 10.370516777038574,16.73896312713623" stroke="white" stroke-width="0.1" /><polygon points="39.540863037109375,23.572158813476562 39.540863037109375,23.572158813476562 39.540863037109375,21.364212036132812 39.540863037109375,21.364212036132812 38.55934143066406,21.364212036132812 38.55934143066406,21.364212036132812 34.682464599609375,22.149276733398438 34.682464599609375,22.149276733398438 34.682464599609375,22.689056396484375 34.682464599609375,22.689056396484375 38.55934143066406,23.76861572265625 38.55934143066406,23.76861572265625 39.540863037109375,23.76861572265625 39.540863037109375,23.76861572265625" stroke="white" stroke-width="0.1" /><polygon points="56.1767578125,9.340858459472656 56.1767578125,9.340858459472656 57.45277404785156,2.3723602294921875 57.45277404785156,2.3723602294921875 56.9279670715332,2.35443115234375 56.9279670715332,2.35443115234375 55.52802085876465,2.32696533203125 55.52802085876465,2.32696533203125 53.514671325683594,2.3294687271118164 53.514671325683594,2.3294687271118164 51.149559020996094,2.4014711380004883 51.149559020996094,2.4014711380004883 48.694491386413574,2.5825023651123047 48.694491386413574,2.5825023651123047 46.4111328125,2.912139892578125 46.4111328125,2.912139892578125 44.20785903930664,3.5108089447021484 44.20785903930664,3.5108089447021484 41.95272922515869,4.3643951416015625 41.95272922515869,4.3643951416015625 39.847517013549805,5.310678482055664 39.847517013549805,5.310678482055664 38.09397220611572,6.18739128112793 38.09397220611572,6.18739128112793 36.89389228820801,6.832456588745117 36.89389228820801,6.832456588745117 36.44905090332031,7.0835113525390625 36.44905090332031,7.0835113525390625 35.909271240234375,10.322380065917969 35.909271240234375,10.322380065917969 36.71011924743652,10.274457931518555 36.71011924743652,10.274457931518555 38.78281116485596,10.151529312133789 38.78281116485596,10.151529312133789 41.63250923156738,9.984970092773438 41.63250923156738,9.984970092773438 44.76437568664551,9.806132316589355 44.76437568664551,9.806132316589355 47.68362045288086,9.646415710449219 47.68362045288086,9.646415710449219 49.895477294921875,9.537124633789062 49.895477294921875,9.537124633789062 51.53641700744629,9.471464157104492 51.53641700744629,9.471464157104492 53.02879810333252,9.4207763671875 53.02879810333252,9.4207763671875 54.30583953857422,9.383773803710938 54.30583953857422,9.383773803710938 55.30068874359131,9.358978271484375 55.30068874359131,9.358978271484375 55.94658851623535,9.345126152038574 55.94658851623535,9.345126152038574" stroke="white" stroke-width="0.1" /><polygon points="65.74630737304688,20.235061645507812 65.74630737304688,20.235061645507812 66.15729331970215,20.201778411865234 66.15729331970215,20.201778411865234 66.52660369873047,20.1077938079834 66.52660369873047,20.1077938079834 66.83950424194336,19.962024688720703 66.83950424194336,19.962024688720703 67.08126068115234,19.773292541503906 67.08126068115234,19.773292541503906 67.23713874816895,19.550609588623047 67.23713874816895,19.550609588623047 67.29240417480469,19.302749633789062 67.29240417480469,19.302749633789062 67.23718643188477,19.054889678955078 67.23718643188477,19.054889678955078 67.08128452301025,18.8321590423584 67.08128452301025,18.8321590423584 66.83950424194336,18.643474578857422 66.83950424194336,18.643474578857422 66.52655601501465,18.497681617736816 66.52655601501465,18.497681617736816 66.15726947784424,18.40372085571289 66.15726947784424,18.40372085571289 65.74630737304688,18.370437622070312 65.74630737304688,18.370437622070312 65.33539295196533,18.4037446975708 65.33539295196533,18.4037446975708 64.96613025665283,18.497681617736816 64.96613025665283,18.497681617736816 64.65330123901367,18.643474578857422 64.65330123901367,18.643474578857422 64.41159248352051,18.83213520050049 64.41159248352051,18.83213520050049 64.25580978393555,19.054841995239258 64.25580978393555,19.054841995239258 64.20059204101562,19.302749633789062 64.20059204101562,19.302749633789062 64.25580978393555,19.550609588623047 64.25580978393555,19.550609588623047 64.41161632537842,19.773340225219727 64.41161632537842,19.773340225219727 64.65330123901367,19.962024688720703 64.65330123901367,19.962024688720703 64.96610641479492,20.107746124267578 64.96610641479492,20.107746124267578 65.33536911010742,20.201754570007324 65.33536911010742,20.201754570007324" stroke="white" stroke-width="0.1" /><polygon points="57.17124938964844,9.328079223632812 57.17124938964844,9.328079223632812 67.55027770996094,8.555221557617188 67.55027770996094,8.555221557617188 69.18847560882568,8.388376235961914 69.18847560882568,8.388376235961914 70.61748504638672,8.188390731811523 70.61748504638672,8.188390731811523 71.7977523803711,7.983613014221191 71.7977523803711,7.983613014221191 72.68977165222168,7.802295684814453 72.68977165222168,7.802295684814453 73.25398921966553,7.672762870788574 73.25398921966553,7.672762870788574 73.45085144042969,7.623291015625 73.45085144042969,7.623291015625 73.1165885925293,7.420039176940918 73.1165885925293,7.420039176940918 72.1914291381836,6.888866424560547 72.1914291381836,6.888866424560547 70.79191207885742,6.14778995513916 70.79191207885742,6.14778995513916 69.03448104858398,5.31468391418457 69.03448104858398,5.31468391418457 67.03572273254395,4.507613182067871 67.03572273254395,4.507613182067871 64.91203308105469,3.844451904296875 64.91203308105469,3.844451904296875 62.94102668762207,3.3594846725463867 62.94102668762207,3.3594846725463867 61.32392883300781,2.997732162475586 61.32392883300781,2.997732162475586 60.06269454956055,2.7435779571533203 60.06269454956055,2.7435779571533203 59.15935039520264,2.5813817977905273 59.15935039520264,2.5813817977905273 58.615899085998535,2.495551109313965 58.615899085998535,2.495551109313965 58.434295654296875,2.47039794921875 58.434295654296875,2.47039794921875" stroke="white" stroke-width="0.1" /><polygon points="86.99531555175781,21.118545532226562 86.99531555175781,21.118545532226562 87.39159107208252,20.880985260009766 87.39159107208252,20.880985260009766 88.15317153930664,20.771503448486328 88.15317153930664,20.771503448486328 89.08109664916992,20.73836326599121 89.08109664916992,20.73836326599121 89.97623920440674,20.729684829711914 89.97623920440674,20.729684829711914 90.63963890075684,20.69377899169922 90.63963890075684,20.69377899169922 90.8721923828125,20.578765869140625 90.8721923828125,20.578765869140625 90.52555561065674,20.452165603637695 90.52555561065674,20.452165603637695 89.73448276519775,20.400571823120117 89.73448276519775,20.400571823120117 88.72532844543457,20.40085792541504 88.72532844543457,20.40085792541504 87.72430419921875,20.429706573486328 87.72430419921875,20.429706573486328 86.95778846740723,20.464062690734863 86.95778846740723,20.464062690734863 86.65199279785156,20.480728149414062 86.65199279785156,20.480728149414062 86.6215705871582,20.56412696838379 86.6215705871582,20.56412696838379 86.53929233551025,20.787882804870605 86.53929233551025,20.787882804870605 86.41891479492188,21.112537384033203 86.41891479492188,21.112537384033203 86.27393245697021,21.498489379882812 86.27393245697021,21.498489379882812 86.11810207366943,21.906352043151855 86.11810207366943,21.906352043151855 85.9649658203125,22.296524047851562 85.9649658203125,22.296524047851562 85.81182956695557,22.693824768066406 85.81182956695557,22.693824768066406 85.65595149993896,23.119759559631348 85.65595149993896,23.119759559631348 85.51101684570312,23.529386520385742 85.51101684570312,23.529386520385742 85.39059162139893,23.877692222595215 85.39059162139893,23.877692222595215 85.3083610534668,24.11966323852539 85.3083610534668,24.11966323852539 85.27793884277344,24.210357666015625 85.27793884277344,24.210357666015625 85.6860876083374,24.121809005737305 85.6860876083374,24.121809005737305 86.69626712799072,23.901939392089844 86.69626712799072,23.901939392089844 87.98727989196777,23.619365692138672 87.98727989196777,23.619365692138672 89.23780918121338,23.3426570892334 89.23780918121338,23.3426570892334 90.12658596038818,23.140525817871094 90.12658596038818,23.140525817871094 90.33241271972656,23.081588745117188 90.33241271972656,23.081588745117188 89.21530246734619,23.237133026123047 89.21530246734619,23.237133026123047 88.2331132888794,23.36134910583496 88.2331132888794,23.36134910583496 87.4063491821289,23.45561981201172 87.4063491821289,23.45561981201172 86.75539493560791,23.52120876312256 86.75539493560791,23.52120876312256 86.30082607269287,23.55961799621582 86.30082607269287,23.55961799621582 86.06300354003906,23.572158813476562 86.06300354003906,23.572158813476562 86.0264778137207,23.43471050262451 86.0264778137207,23.43471050262451 86.13033294677734,23.077774047851562 86.13033294677734,23.077774047851562 86.32688522338867,22.58453369140625 86.32688522338867,22.58453369140625 86.56833171844482,22.03807830810547 86.56833171844482,22.03807830810547 86.80708408355713,21.521735191345215 86.80708408355713,21.521735191345215" stroke="white" stroke-width="0.1" /><polygon points="26.879501342773438,20.627975463867188 26.879501342773438,20.627975463867188 26.79610252380371,21.73924446105957 26.79610252380371,21.73924446105957 26.554059982299805,22.79839515686035 26.554059982299805,22.79839515686035 26.16558074951172,23.793315887451172 26.16558074951172,23.793315887451172 25.642800331115723,24.71184730529785 25.642800331115723,24.71184730529785 24.997949600219727,25.54192543029785 24.997949600219727,25.54192543029785 24.2431640625,26.271438598632812 24.2431640625,26.271438598632812 23.574233055114746,26.770710945129395 23.574233055114746,26.770710945129395 22.84984588623047,27.192974090576172 22.84984588623047,27.192974090576172 22.076034545898438,27.532148361206055 22.076034545898438,27.532148361206055 21.258854866027832,27.781963348388672 21.258854866027832,27.781963348388672 20.404386520385742,27.936387062072754 20.404386520385742,27.936387062072754 19.518661499023438,27.98919677734375 19.518661499023438,27.98919677734375 18.583106994628906,27.930235862731934 18.583106994628906,27.930235862731934 17.682886123657227,27.758312225341797 17.682886123657227,27.758312225341797 16.825151443481445,27.480602264404297 16.825151443481445,27.480602264404297 16.0170316696167,27.10423469543457 16.0170316696167,27.10423469543457 15.265679359436035,26.636505126953125 15.265679359436035,26.636505126953125 14.5782470703125,26.084518432617188 14.5782470703125,26.084518432617188 13.882589340209961,25.36289691925049 13.882589340209961,25.36289691925049 13.289737701416016,24.552083015441895 13.289737701416016,24.552083015441895 12.810230255126953,23.662662506103516 12.810230255126953,23.662662506103516 12.454605102539062,22.70512580871582 12.454605102539062,22.70512580871582 12.233495712280273,21.690058708190918 12.233495712280273,21.690058708190918 12.157440185546875,20.627975463867188 12.157440185546875,20.627975463867188 12.420368194580078,18.671035766601562 12.420368194580078,18.671035766601562 13.162398338317871,16.91257953643799 13.162398338317871,16.91257953643799 14.313411712646484,15.422797203063965 14.313411712646484,15.422797203063965 15.803217887878418,14.271759986877441 15.803217887878418,14.271759986877441 17.561674118041992,13.529729843139648 17.561674118041992,13.529729843139648 19.518661499023438,13.266754150390625 19.518661499023438,13.266754150390625 21.4754581451416,13.529682159423828 21.4754581451416,13.529682159423828 23.233819007873535,14.271759986877441 23.233819007873535,14.271759986877441 24.72357749938965,15.422797203063965 24.72357749938965,15.422797203063965 25.87451934814453,16.9126033782959 25.87451934814453,16.9126033782959 26.616573333740234,18.671083450317383 26.616573333740234,18.671083450317383" stroke="white" stroke-width="0.1" /><polygon points="84.07554626464844,20.627975463867188 84.07554626464844,20.627975463867188 83.99214744567871,21.73924446105957 83.99214744567871,21.73924446105957 83.7500810623169,22.79839515686035 83.7500810623169,22.79839515686035 83.36162567138672,23.793315887451172 83.36162567138672,23.793315887451172 82.83882141113281,24.71184730529785 82.83882141113281,24.71184730529785 82.19399452209473,25.54192543029785 82.19399452209473,25.54192543029785 81.439208984375,26.271438598632812 81.439208984375,26.271438598632812 80.77011108398438,26.770710945129395 80.77011108398438,26.770710945129395 80.04567623138428,27.192974090576172 80.04567623138428,27.192974090576172 79.27188873291016,27.532148361206055 79.27188873291016,27.532148361206055 78.45470905303955,27.781963348388672 78.45470905303955,27.781963348388672 77.60019302368164,27.936387062072754 77.60019302368164,27.936387062072754 76.71432495117188,27.98919677734375 76.71432495117188,27.98919677734375 75.82859992980957,27.936339378356934 75.82859992980957,27.936339378356934 74.97410774230957,27.78193950653076 74.97410774230957,27.78193950653076 74.15695190429688,27.532148361206055 74.15695190429688,27.532148361206055 73.38311672210693,27.193021774291992 73.38311672210693,27.193021774291992 72.65872955322266,26.770734786987305 72.65872955322266,26.770734786987305 71.98982238769531,26.271438598632812 71.98982238769531,26.271438598632812 71.23503684997559,25.54187774658203 71.23503684997559,25.54187774658203 70.59016227722168,24.71182346343994 70.59016227722168,24.71182346343994 70.0674057006836,23.793315887451172 70.0674057006836,23.793315887451172 69.6789026260376,22.79841899871826 69.6789026260376,22.79841899871826 69.4368839263916,21.73929214477539 69.4368839263916,21.73929214477539 69.35348510742188,20.627975463867188 69.35348510742188,20.627975463867188 69.61638927459717,18.671035766601562 69.61638927459717,18.671035766601562 70.35841941833496,16.91257953643799 70.35841941833496,16.91257953643799 71.50940895080566,15.422797203063965 71.50940895080566,15.422797203063965 72.99914360046387,14.271759986877441 72.99914360046387,14.271759986877441 74.75752830505371,13.529729843139648 74.75752830505371,13.529729843139648 76.71432495117188,13.266754150390625 76.71432495117188,13.266754150390625 78.67131233215332,13.529682159423828 78.67131233215332,13.529682159423828 80.42974472045898,14.271759986877441 80.42974472045898,14.271759986877441 81.91957473754883,15.422797203063965 81.91957473754883,15.422797203063965 83.07056427001953,16.9126033782959 83.07056427001953,16.9126033782959 83.81261825561523,18.671083450317383 83.81261825561523,18.671083450317383" stroke="white" stroke-width="0.1" /></svg>