<?xml version="1.0" encoding="utf-8" ?>
<svg baseProfile="full" height="29.041728377342224" version="1.1" width="99.9922513961792" xmlns="http://www.w3.org/2000/svg" xmlns:ev="http://www.w3.org/2001/xml-events" xmlns:xlink="http://www.w3.org/1999/xlink"><defs><clipPath /></defs><polygon points="99.28855895996094,21.894878149032593 99.28855895996094,21.894878149032593 99.98931884765625,22.8054478764534 99.98931884765625,22.8054478764534 99.9922513961792,22.882337868213654 99.9922513961792,22.882337868213654 99.98934268951416,23.093554377555847 99.98934268951416,23.093554377555847 99.96309280395508,23.4098881483078 99.96309280395508,23.4098881483078 99.89595413208008,23.802122473716736 99.89595413208008,23.802122473716736 99.7704029083252,24.241076409816742 99.7704029083252,24.241076409816742 99.56893920898438,24.697542190551758 99.56893920898438,24.697542190551758 99.3483304977417,25.12381076812744 99.3483304977417,25.12381076812744 99.08881187438965,25.491642951965332 99.08881187438965,25.491642951965332 98.65803718566895,25.80108940601349 98.65803718566895,25.80108940601349 97.92363047599792,26.052120327949524 97.92363047599792,26.052120327949524 96.75325751304626,26.244786381721497 96.75325751304626,26.244786381721497 95.01456022262573,26.379063725471497 95.01456022262573,26.379063725471497 93.68256330490112,26.457157731056213 93.68256330490112,26.457157731056213 92.29525327682495,26.555493474006653 92.29525327682495,26.555493474006653 90.89286923408508,26.666930317878723 90.89286923408508,26.666930317878723 89.51571583747864,26.784375309944153 89.51571583747864,26.784375309944153 88.20412158966064,26.900723576545715 88.20412158966064,26.900723576545715 86.9983434677124,27.008870244026184 86.9983434677124,27.008870244026184 87.11156845092773,26.586714386940002 87.11156845092773,26.586714386940002 87.20556497573853,26.11013948917389 87.20556497573853,26.11013948917389 87.27972507476807,25.603008270263672 87.27972507476807,25.603008270263672 87.3334288597107,25.08915662765503 87.3334288597107,25.08915662765503 87.36610412597656,24.59246963262558 87.36610412597656,24.59246963262558 87.37714290618896,24.136780202388763 87.37714290618896,24.136780202388763 87.32258081436157,23.193451762199402 87.32258081436157,23.193451762199402 87.1630072593689,22.281713783740997 87.1630072593689,22.281713783740997 86.90464496612549,21.4075967669487 86.90464496612549,21.4075967669487 86.55366897583008,20.577111840248108 86.55366897583008,20.577111840248108 86.11630201339722,19.79631334543228 86.11630201339722,19.79631334543228 85.59872508049011,19.07123327255249 85.59872508049011,19.07123327255249 85.79351305961609,19.529928267002106 85.79351305961609,19.529928267002106 85.95613241195679,20.00446617603302 85.95613241195679,20.00446617603302 86.0851526260376,20.49354612827301 86.0851526260376,20.49354612827301 86.17908954620361,20.9958478808403 86.17908954620361,20.9958478808403 86.23652458190918,21.510058641433716 86.23652458190918,21.510058641433716 86.25600337982178,22.03487753868103 86.25600337982178,22.03487753868103 86.24176979064941,22.48297482728958 86.24176979064941,22.48297482728958 86.19967699050903,22.923417389392853 86.19967699050903,22.923417389392853 86.130690574646,23.355433344841003 86.130690574646,23.355433344841003 86.03576421737671,23.778221011161804 86.03576421737671,23.778221011161804 85.9158456325531,24.191008508205414 85.9158456325531,24.191008508205414 85.77191233634949,24.593017995357513 85.77191233634949,24.593017995357513 85.1397693157196,25.826826691627502 85.1397693157196,25.826826691627502 84.28563475608826,26.903846859931946 84.28563475608826,26.903846859931946 83.23952555656433,27.793985605239868 83.23952555656433,27.793985605239868 82.03140497207642,28.467077016830444 82.03140497207642,28.467077016830444 80.6912899017334,28.893035650253296 80.6912899017334,28.893035650253296 79.24914956092834,29.041728377342224 79.24914956092834,29.041728377342224 77.96311974525452,28.923949599266052 77.96311974525452,28.923949599266052 76.75502896308899,28.58465313911438 76.75502896308899,28.58465313911438 75.64587593078613,28.044992685317993 75.64587593078613,28.044992685317993 74.65670108795166,27.326062321662903 74.65670108795166,27.326062321662903 73.8085150718689,26.44900381565094 73.8085150718689,26.44900381565094 73.12235236167908,25.43492317199707 73.12235236167908,25.43492317199707 72.86272644996643,24.919116497039795 72.86272644996643,24.919116497039795 72.64530062675476,24.38015788793564 72.64530062675476,24.38015788793564 72.47232794761658,23.82015883922577 72.47232794761658,23.82015883922577 72.34600186347961,23.241207003593445 72.34600186347961,23.241207003593445 72.26859927177429,22.645409405231476 72.26859927177429,22.645409405231476 72.24230170249939,22.03487753868103 72.24230170249939,22.03487753868103 72.26176857948303,21.509915590286255 72.26176857948303,21.509915590286255 72.3192036151886,20.995597541332245 72.3192036151886,20.995597541332245 72.41315245628357,20.49326002597809 72.41315245628357,20.49326002597809 72.54216074943542,20.004191994667053 72.54216074943542,20.004191994667053 72.7047860622406,19.529761373996735 72.7047860622406,19.529761373996735 72.89957404136658,19.07123327255249 72.89957404136658,19.07123327255249 72.38187193870544,19.796325266361237 72.38187193870544,19.796325266361237 71.94445729255676,20.577123761177063 71.94445729255676,20.577123761177063 71.59351706504822,21.4075967669487 71.59351706504822,21.4075967669487 71.33520245552063,22.281701862812042 71.33520245552063,22.281701862812042 71.17568850517273,23.193451762199402 71.17568850517273,23.193451762199402 71.1211621761322,24.136780202388763 71.1211621761322,24.136780202388763 71.15179896354675,24.72240924835205 71.15179896354675,24.72240924835205 71.23753428459167,25.312793254852295 71.23753428459167,25.312793254852295 71.36916518211365,25.89884102344513 71.36916518211365,25.89884102344513 71.53742909431458,26.471427083015442 71.53742909431458,26.471427083015442 71.73313498497009,27.021482586860657 71.73313498497009,27.021482586860657 71.94704413414001,27.539879083633423 71.94704413414001,27.539879083633423 27.496010065078735,27.96064019203186 27.496010065078735,27.96064019203186 27.496010065078735,26.63007080554962 27.496010065078735,26.63007080554962 27.525097131729126,26.505783200263977 27.525097131729126,26.505783200263977 27.597826719284058,26.176944375038147 27.597826719284058,26.176944375038147 27.692371606826782,25.70958137512207 27.692371606826782,25.70958137512207 27.78690457344055,25.169730186462402 27.78690457344055,25.169730186462402 27.85964608192444,24.623453617095947 27.85964608192444,24.623453617095947 27.88873314857483,24.136780202388763 27.88873314857483,24.136780202388763 27.83418297767639,23.193451762199402 27.83418297767639,23.193451762199402 27.674633264541626,22.281713783740997 27.674633264541626,22.281713783740997 27.416282892227173,21.4075967669487 27.416282892227173,21.4075967669487 27.06529200077057,20.577111840248108 27.06529200077057,20.577111840248108 26.627841591835022,19.79631334543228 26.627841591835022,19.79631334543228 26.110127568244934,19.07123327255249 26.110127568244934,19.07123327255249 26.30498707294464,19.529761373996735 26.30498707294464,19.529761373996735 26.467671990394592,20.004215836524963 26.467671990394592,20.004215836524963 26.596716046333313,20.49326002597809 26.596716046333313,20.49326002597809 26.69067680835724,20.99558562040329 26.69067680835724,20.99558562040329 26.748111844062805,21.5099036693573 26.748111844062805,21.5099036693573 26.767590641975403,22.03487753868103 26.767590641975403,22.03487753868103 26.75701677799225,22.420592606067657 26.75701677799225,22.420592606067657 26.72572433948517,22.80072718858719 26.72572433948517,22.80072718858719 26.67434513568878,23.17480742931366 26.67434513568878,23.17480742931366 26.603522896766663,23.54232966899872 26.603522896766663,23.54232966899872 26.51391327381134,23.9028200507164 26.51391327381134,23.9028200507164 26.406148076057434,24.255798757076263 26.406148076057434,24.255798757076263 25.806108117103577,25.57591199874878 25.806108117103577,25.57591199874878 24.957704544067383,26.732566952705383 24.957704544067383,26.732566952705383 23.89497607946396,27.691608667373657 23.89497607946396,27.691608667373657 22.65189439058304,28.418904542922974 22.65189439058304,28.418904542922974 21.262483298778534,28.880327939987183 21.262483298778534,28.880327939987183 19.76074129343033,29.041728377342224 19.76074129343033,29.041728377342224 18.413329124450684,28.91225516796112 18.413329124450684,28.91225516796112 17.15274751186371,28.540080785751343 17.15274751186371,28.540080785751343 16.003352403640747,27.949625253677368 16.003352403640747,27.949625253677368 14.989428222179413,27.16527283191681 14.989428222179413,27.16527283191681 14.135316014289856,26.211467385292053 14.135316014289856,26.211467385292053 13.465334475040436,25.112581253051758 13.465334475040436,25.112581253051758 13.254620134830475,24.63862895965576 13.254620134830475,24.63862895965576 13.078619539737701,24.14705604314804 13.078619539737701,24.14705604314804 12.938953936100006,23.639389872550964 12.938953936100006,23.639389872550964 12.837207317352295,23.11711013317108 12.837207317352295,23.11711013317108 12.774991989135742,22.581787407398224 12.774991989135742,22.581787407398224 12.753891944885254,22.03487753868103 12.753891944885254,22.03487753868103 12.773346900939941,21.509915590286255 12.773346900939941,21.509915590286255 12.830746173858643,20.995597541332245 12.830746173858643,20.995597541332245 12.924672663211823,20.49326002597809 12.924672663211823,20.49326002597809 13.053669035434723,20.004191994667053 13.053669035434723,20.004191994667053 13.216306269168854,19.529761373996735 13.216306269168854,19.529761373996735 13.41116577386856,19.07123327255249 13.41116577386856,19.07123327255249 12.893523275852203,19.796325266361237 12.893523275852203,19.796325266361237 12.456130981445312,20.577123761177063 12.456130981445312,20.577123761177063 12.105178087949753,21.4075967669487 12.105178087949753,21.4075967669487 11.846838891506195,22.281701862812042 11.846838891506195,22.281701862812042 11.687301099300385,23.193451762199402 11.687301099300385,23.193451762199402 11.632750928401947,24.136780202388763 11.632750928401947,24.136780202388763 11.654971539974213,24.738943576812744 11.654971539974213,24.738943576812744 11.720488965511322,25.329101085662842 11.720488965511322,25.329101085662842 11.827681958675385,25.905802845954895 11.827681958675385,25.905802845954895 11.974858492612839,26.467588543891907 11.974858492612839,26.467588543891907 12.16036006808281,27.01301872730255 12.16036006808281,27.01301872730255 12.38253116607666,27.540642023086548 12.38253116607666,27.540642023086548 12.246798723936081,27.57626175880432 12.246798723936081,27.57626175880432 12.114643305540085,27.609318494796753 12.114643305540085,27.609318494796753 11.986612528562546,27.639538049697876 11.986612528562546,27.639538049697876 11.863254010677338,27.666622400283813 11.863254010677338,27.666622400283813 11.745117604732513,27.69034504890442 11.745117604732513,27.69034504890442 11.632750928401947,27.71039605140686 11.632750928401947,27.71039605140686 10.323472321033478,27.79797911643982 10.323472321033478,27.79797911643982 8.025447279214859,27.85051465034485 8.025447279214859,27.85051465034485 5.291472002863884,27.868038415908813 5.291472002863884,27.868038415908813 2.674286626279354,27.85051465034485 2.674286626279354,27.85051465034485 0.7266535423696041,27.797967195510864 0.7266535423696041,27.797967195510864 0.001335146589553915,27.71039605140686 0.001335146589553915,27.71039605140686 0.11163970921188593,27.592986822128296 0.11163970921188593,27.592986822128296 0.27643495704978704,27.448338270187378 0.27643495704978704,27.448338270187378 0.4567870404571295,27.272561192512512 0.4567870404571295,27.272561192512512 0.6137859541922808,27.061739563941956 0.6137859541922808,27.061739563941956 0.7085336837917566,26.812008023262024 0.7085336837917566,26.812008023262024 0.7020963821560144,26.519444584846497 0.7020963821560144,26.519444584846497 0.6407511420547962,25.89907944202423 0.6407511420547962,25.89907944202423 0.6086122710257769,24.803876876831055 0.6086122710257769,24.803876876831055 0.6231796927750111,23.436209559440613 0.6231796927750111,23.436209559440613 0.7020010147243738,21.99847102165222 0.7020010147243738,21.99847102165222 0.8625881746411324,20.693066716194153 0.8625881746411324,20.693066716194153 1.1224768124520779,19.722403585910797 1.1224768124520779,19.722403585910797 1.4607934281229973,19.05076503753662 1.4607934281229973,19.05076503753662 1.8205320462584496,18.505513668060303 1.8205320462584496,18.505513668060303 2.164701744914055,18.084751069545746 2.164701744914055,18.084751069545746 2.456323988735676,17.78656095266342 2.456323988735676,17.78656095266342 2.658419869840145,17.609046399593353 2.658419869840145,17.609046399593353 2.7339987456798553,17.550310492515564 2.7339987456798553,17.550310492515564 2.3136183619499207,17.06012189388275 2.3136183619499207,17.06012189388275 2.3541614413261414,16.94236695766449 2.3541614413261414,16.94236695766449 2.497856691479683,16.631920635700226 2.497856691479683,16.631920635700226 2.7777962386608124,16.19303971529007 2.7777962386608124,16.19303971529007 3.227049484848976,15.689927339553833 3.227049484848976,15.689927339553833 3.8787201046943665,15.186838805675507 3.8787201046943665,15.186838805675507 4.76590096950531,14.74802941083908 4.76590096950531,14.74802941083908 5.765389651060104,14.31746780872345 5.765389651060104,14.31746780872345 6.735671311616898,13.826575875282288 6.735671311616898,13.826575875282288 7.682576775550842,13.320137560367584 7.682576775550842,13.320137560367584 8.611969649791718,12.842893600463867 8.611969649791718,12.842893600463867 9.529703855514526,12.439656257629395 9.529703855514526,12.439656257629395 10.441609472036362,12.15517446398735 10.441609472036362,12.15517446398735 11.815713346004486,11.926161497831345 11.815713346004486,11.926161497831345 13.890519738197327,11.677668988704681 13.890519738197327,11.677668988704681 16.32736474275589,11.436960846185684 16.32736474275589,11.436960846185684 18.787574768066406,11.231277137994766 18.787574768066406,11.231277137994766 20.932476222515106,11.087879538536072 20.932476222515106,11.087879538536072 22.423405945301056,11.034032702445984 22.423405945301056,11.034032702445984 23.374149203300476,11.001595854759216 23.374149203300476,11.001595854759216 24.1439089179039,10.914680361747742 24.1439089179039,10.914680361747742 24.76186752319336,10.788843035697937 24.76186752319336,10.788843035697937 25.25721788406372,10.63966378569603 25.25721788406372,10.63966378569603 25.659143924713135,10.482748597860336 25.659143924713135,10.482748597860336 25.99683105945587,10.333652794361115 25.99683105945587,10.333652794361115 26.366284489631653,10.246677696704865 26.366284489631653,10.246677696704865 26.80387794971466,10.245342552661896 26.80387794971466,10.245342552661896 27.24924385547638,10.298509895801544 27.24924385547638,10.298509895801544 27.642065286636353,10.375043004751205 27.642065286636353,10.375043004751205 27.922004461288452,10.443802922964096 27.922004461288452,10.443802922964096 28.028732538223267,10.473652929067612 28.028732538223267,10.473652929067612 28.670066595077515,10.145671665668488 28.670066595077515,10.145671665668488 30.356594920158386,9.297972917556763 30.356594920158386,9.297972917556763 32.73214399814606,8.134952932596207 32.73214399814606,8.134952932596207 35.4405015707016,6.8609848618507385 35.4405015707016,6.8609848618507385 38.12549114227295,5.680452659726143 38.12549114227295,5.680452659726143 40.430909395217896,4.797754064202309 40.430909395217896,4.797754064202309 42.48466193675995,4.081638529896736 42.48466193675995,4.081638529896736 44.738855957984924,3.318721428513527 44.738855957984924,3.318721428513527 47.323936223983765,2.590804360806942 47.323936223983765,2.590804360806942 50.37029981613159,1.9796408712863922 50.37029981613159,1.9796408712863922 54.00837063789368,1.5670210123062134 54.00837063789368,1.5670210123062134 58.36860537528992,1.4347103424370289 58.36860537528992,1.4347103424370289 62.63946294784546,1.5703588724136353 62.63946294784546,1.5703588724136353 66.09678864479065,1.888946257531643 66.09678864479065,1.888946257531643 69.00137662887573,2.3632094264030457 69.00137662887573,2.3632094264030457 71.61404490470886,2.96589694917202 71.61404490470886,2.96589694917202 74.19559955596924,3.6697696894407272 74.19559955596924,3.6697696894407272 77.00687050819397,4.447564110159874 77.00687050819397,4.447564110159874 79.82772588729858,5.24660162627697 79.82772588729858,5.24660162627697 82.29048252105713,6.004774197936058 82.29048252105713,6.004774197936058 84.4340980052948,6.68116882443428 84.4340980052948,6.68116882443428 86.29744052886963,7.234921306371689 86.29744052886963,7.234921306371689 87.91946172714233,7.625153660774231 87.91946172714233,7.625153660774231 89.33904767036438,7.810989022254944 89.33904767036438,7.810989022254944 89.69078660011292,7.82870352268219 89.69078660011292,7.82870352268219 90.03804326057434,7.844892144203186 90.03804326057434,7.844892144203186 90.37979245185852,7.859578728675842 90.37979245185852,7.859578728675842 90.71498513221741,7.872834801673889 90.71498513221741,7.872834801673889 91.04259610176086,7.884719967842102 91.04259610176086,7.884719967842102 91.36160016059875,7.895293831825256 91.36160016059875,7.895293831825256 92.64639616012573,3.865058720111847 92.64639616012573,3.865058720111847 92.4608588218689,3.8662150502204895 92.4608588218689,3.8662150502204895 92.29868650436401,3.8661792874336243 92.29868650436401,3.8661792874336243 92.16325879096985,3.8648203015327454 92.16325879096985,3.8648203015327454 92.05794930458069,3.862030804157257 92.05794930458069,3.862030804157257 91.98620915412903,3.8576915860176086 91.98620915412903,3.8576915860176086 91.95135235786438,3.8517072796821594 91.95135235786438,3.8517072796821594 91.69042706489563,3.656608983874321 91.69042706489563,3.656608983874321 91.36880040168762,3.299981728196144 91.36880040168762,3.299981728196144 91.0623848438263,2.852492965757847 91.0623848438263,2.852492965757847 90.84718823432922,2.3848220705986023 90.84718823432922,2.3848220705986023 90.79912304878235,1.9676364958286285 90.79912304878235,1.9676364958286285 90.99424481391907,1.6716035082936287 90.99424481391907,1.6716035082936287 91.58323407173157,1.4647511765360832 91.58323407173157,1.4647511765360832 92.53867864608765,1.267995871603489 92.53867864608765,1.267995871603489 93.6688780784607,1.0813256725668907 93.6688780784607,1.0813256725668907 94.78198289871216,0.904728751629591 94.78198289871216,0.904728751629591 95.68623900413513,0.7382168434560299 95.68623900413513,0.7382168434560299 96.18987441062927,0.581742450594902 96.18987441062927,0.581742450594902 96.42326235771179,0.42499382980167866 96.42326235771179,0.42499382980167866 96.65221571922302,0.2699380274862051 96.65221571922302,0.2699380274862051 96.88753485679626,0.13508822303265333 96.88753485679626,0.13508822303265333 97.139972448349,0.03890998777933419 97.139972448349,0.03890998777933419 97.42035269737244,-7.152571015467402e-05 97.42035269737244,-7.152571015467402e-05 97.73940443992615,0.036621163599193096 97.73940443992615,0.036621163599193096 97.90772795677185,0.3599412040784955 97.90772795677185,0.3599412040784955 97.74009585380554,1.0347981937229633 97.74009585380554,1.0347981937229633 97.35707640647888,1.8852746114134789 97.35707640647888,1.8852746114134789 96.87923789024353,2.7353815734386444 96.87923789024353,2.7353815734386444 96.42724394798279,3.40922512114048 96.42724394798279,3.40922512114048 96.12159132957458,3.730781003832817 96.12159132957458,3.730781003832817 95.62796950340271,3.7761759012937546 95.62796950340271,3.7761759012937546 95.50971388816833,7.857146859169006 95.50971388816833,7.857146859169006 95.72703242301941,7.844987511634827 95.72703242301941,7.844987511634827 95.95720171928406,7.833996415138245 95.95720171928406,7.833996415138245 96.19874358177185,7.824626564979553 96.19874358177185,7.824626564979553 96.45013213157654,7.817354798316956 96.45013213157654,7.817354798316956 96.70986533164978,7.812657952308655 96.70986533164978,7.812657952308655 96.97646498680115,7.810989022254944 96.97646498680115,7.810989022254944 97.58135676383972,7.928100228309631 97.58135676383972,7.928100228309631 98.00915122032166,8.233992010354996 98.00915122032166,8.233992010354996 98.28128218650818,8.660571277141571 98.28128218650818,8.660571277141571 98.41911196708679,9.139686077833176 98.41911196708679,9.139686077833176 98.4440803527832,9.603232890367508 98.4440803527832,9.603232890367508 98.37760329246521,9.983082115650177 98.37760329246521,9.983082115650177 98.31437468528748,10.410281270742416 98.31437468528748,10.410281270742416 98.3153760433197,11.018475890159607 98.3153760433197,11.018475890159607 98.35142493247986,11.743472516536713 98.35142493247986,11.743472516536713 98.39326739311218,12.521040439605713 98.39326739311218,12.521040439605713 98.41174483299255,13.286973536014557 98.41174483299255,13.286973536014557 98.37760329246521,13.977077603340149 98.37760329246521,13.977077603340149 98.28488230705261,14.536957442760468 98.28488230705261,14.536957442760468 98.1726586818695,14.976195991039276 98.1726586818695,14.976195991039276 98.079913854599,15.325909852981567 98.079913854599,15.325909852981567 98.04553389549255,15.617221593856812 98.04553389549255,15.617221593856812 98.10852408409119,15.881282091140747 98.10852408409119,15.881282091140747 98.30779433250427,16.149170696735382 98.30779433250427,16.149170696735382 98.63667488098145,16.448529064655304 98.63667488098145,16.448529064655304 99.0239143371582,16.792698204517365 99.0239143371582,16.792698204517365 99.41120147705078,17.191395163536072 99.41120147705078,17.191395163536072 99.74009990692139,17.654334008693695 99.74009990692139,17.654334008693695 99.95226860046387,18.19124072790146 99.95226860046387,18.19124072790146 99.98931884765625,18.81183385848999 99.98931884765625,18.81183385848999 99.88880157470703,19.502343237400055 99.88880157470703,19.502343237400055 99.74541664123535,20.202675461769104 99.74541664123535,20.202675461769104 99.58643913269043,20.852462947368622 99.58643913269043,20.852462947368622 99.43912029266357,21.391336619853973 99.43912029266357,21.391336619853973 99.3307113647461,21.758919954299927 99.3307113647461,21.758919954299927" stroke="white" stroke-width="0.1" /><polygon points="2.9090937227010727,18.671834468841553 2.9090937227010727,18.671834468841553 5.303655192255974,18.48229169845581 5.303655192255974,18.48229169845581 6.836916506290436,18.25382560491562 6.836916506290436,18.25382560491562 7.704511284828186,17.97088235616684 7.704511284828186,17.97088235616684 8.102039247751236,17.61786788702011 8.102039247751236,17.61786788702011 8.225098997354507,17.179211974143982 8.225098997354507,17.179211974143982 8.269325643777847,16.639359295368195 8.269325643777847,16.639359295368195 8.068672567605972,16.426439583301544 8.068672567605972,16.426439583301544 7.489325851202011,16.338534653186798 7.489325851202011,16.338534653186798 6.665290147066116,16.352780163288116 6.665290147066116,16.352780163288116 5.7305920869112015,16.44628793001175 5.7305920869112015,16.44628793001175 4.819271340966225,16.596253216266632 4.819271340966225,16.596253216266632 4.065330699086189,16.779740154743195 4.065330699086189,16.779740154743195 3.541714698076248,17.053672671318054 3.541714698076248,17.053672671318054 3.2049715518951416,17.44152009487152 3.2049715518951416,17.44152009487152 3.0142126604914665,17.87026971578598 3.0142126604914665,17.87026971578598 2.9285605996847153,18.26690286397934 2.9285605996847153,18.26690286397934 2.907150611281395,18.558430671691895 2.907150611281395,18.558430671691895" stroke="white" stroke-width="0.1" /><polygon points="59.66483950614929,3.9218977093696594 59.66483950614929,3.9218977093696594 59.47651267051697,3.6126919090747833 59.47651267051697,3.6126919090747833 58.76559615135193,3.4445948898792267 58.76559615135193,3.4445948898792267 57.575905323028564,3.4010473638772964 57.575905323028564,3.4010473638772964 55.95120191574097,3.4654803574085236 55.95120191574097,3.4654803574085236 53.93529534339905,3.6213468760252 53.93529534339905,3.6213468760252 51.5719473361969,3.852088749408722 51.5719473361969,3.852088749408722 49.2619514465332,4.173167422413826 49.2619514465332,4.173167422413826 47.31590151786804,4.599389433860779 47.31590151786804,4.599389433860779 45.642367005348206,5.113229900598526 45.642367005348206,5.113229900598526 44.149816036224365,5.697118118405342 44.149816036224365,5.697118118405342 42.74681508541107,6.3335418701171875 42.74681508541107,6.3335418701171875 41.341859102249146,7.004941999912262 41.341859102249146,7.004941999912262 40.11337161064148,7.622149586677551 40.11337161064148,7.622149586677551 39.25662338733673,8.11188593506813 39.25662338733673,8.11188593506813 38.70547115802765,8.480946719646454 38.70547115802765,8.480946719646454 38.393715023994446,8.736126124858856 38.393715023994446,8.736126124858856 38.2551908493042,8.884256333112717 38.2551908493042,8.884256333112717 38.22371959686279,8.93213078379631 38.22371959686279,8.93213078379631 38.78932297229767,8.776895701885223 38.78932297229767,8.776895701885223 39.18655216693878,8.753053843975067 39.18655216693878,8.753053843975067 39.463117718696594,8.840148895978928 39.463117718696594,8.840148895978928 39.66669142246246,9.017734974622726 39.66669142246246,9.017734974622726 39.844971895217896,9.26540493965149 39.844971895217896,9.26540493965149 40.04562497138977,9.562700986862183 40.04562497138977,9.562700986862183 40.195995569229126,9.921783953905106 40.195995569229126,9.921783953905106 40.2208149433136,10.333402454853058 40.2208149433136,10.333402454853058 40.163880586624146,10.74502170085907 40.163880586624146,10.74502170085907 40.068989992141724,11.104080080986023 40.068989992141724,11.104080080986023 39.97994065284729,11.358068138360977 39.97994065284729,11.358068138360977 39.9405300617218,11.454413086175919 39.9405300617218,11.454413086175919 58.403509855270386,10.68384274840355 58.403509855270386,10.68384274840355 58.48477482795715,10.236497223377228 58.48477482795715,10.236497223377228 58.691567182540894,9.102075546979904 58.691567182540894,9.102075546979904 58.96844267845154,7.591976970434189 58.96844267845154,7.591976970434189 59.2599093914032,6.017624959349632 59.2599093914032,6.017624959349632 59.51053500175476,4.690465331077576 59.51053500175476,4.690465331077576" stroke="white" stroke-width="0.1" /><polygon points="75.71063041687012,9.282320737838745 75.71063041687012,9.282320737838745 75.74567794799805,9.191995859146118 75.74567794799805,9.191995859146118 75.82743167877197,8.956687897443771 75.82743167877197,8.956687897443771 75.92086791992188,8.62991064786911 75.92086791992188,8.62991064786911 75.99093914031982,8.265165239572525 75.99093914031982,8.265165239572525 76.00259780883789,7.916000485420227 76.00259780883789,7.916000485420227 75.92082023620605,7.635894417762756 75.92082023620605,7.635894417762756 75.54351091384888,7.302727550268173 75.54351091384888,7.302727550268173 74.73607063293457,6.804097443819046 74.73607063293457,6.804097443819046 73.56467247009277,6.208145618438721 73.56467247009277,6.208145618438721 72.09545969963074,5.583010986447334 72.09545969963074,5.583010986447334 70.39461731910706,4.996833950281143 70.39461731910706,4.996833950281143 68.52830648422241,4.517754539847374 68.52830648422241,4.517754539847374 66.62971377372742,4.152365401387215 66.62971377372742,4.152365401387215 64.85372185707092,3.859908878803253 64.85372185707092,3.859908878803253 63.29958438873291,3.637511655688286 63.29958438873291,3.637511655688286 62.066590785980225,3.4822292625904083 62.066590785980225,3.4822292625904083 61.254000663757324,3.391212597489357 61.254000663757324,3.391212597489357 60.961079597473145,3.3615175634622574 60.961079597473145,3.3615175634622574 59.76993441581726,10.7189379632473 59.76993441581726,10.7189379632473 60.65794825553894,10.647889226675034 60.65794825553894,10.647889226675034 62.91520595550537,10.4658804833889 62.91520595550537,10.4658804833889 65.93154072761536,10.219641029834747 65.93154072761536,10.219641029834747 69.09676790237427,9.955877810716629 69.09676790237427,9.955877810716629 71.80072665214539,9.721321612596512 71.80072665214539,9.721321612596512 73.43325018882751,9.562700986862183 73.43325018882751,9.562700986862183 74.22237396240234,9.468954801559448 74.22237396240234,9.468954801559448 74.8178243637085,9.396594762802124 74.8178243637085,9.396594762802124 75.24199485778809,9.343689680099487 75.24199485778809,9.343689680099487 75.51724910736084,9.308284521102905 75.51724910736084,9.308284521102905 75.66601037979126,9.28848385810852 75.66601037979126,9.28848385810852" stroke="white" stroke-width="0.1" /><polygon points="94.95123624801636,7.493223994970322 94.95123624801636,7.493223994970322 95.05881071090698,4.059227183461189 95.05881071090698,4.059227183461189 94.6334719657898,4.059227183461189 94.6334719657898,4.059227183461189 94.31151151657104,7.493223994970322 94.31151151657104,7.493223994970322" stroke="white" stroke-width="0.1" /><polygon points="94.21118497848511,4.059227183461189 94.21118497848511,4.059227183461189 93.35936307907104,4.059227183461189 93.35936307907104,4.059227183461189 94.0750002861023,5.511103570461273 94.0750002861023,5.511103570461273" stroke="white" stroke-width="0.1" /><polygon points="93.0648684501648,4.413994774222374 93.0648684501648,4.413994774222374 92.48846769332886,6.31028413772583 92.48846769332886,6.31028413772583 93.89876127243042,6.103908643126488 93.89876127243042,6.103908643126488" stroke="white" stroke-width="0.1" /><polygon points="92.35304594039917,6.755460053682327 92.35304594039917,6.755460053682327 92.12873578071594,7.493223994970322 92.12873578071594,7.493223994970322 93.88922452926636,7.493223994970322 93.88922452926636,7.493223994970322 93.98077726364136,6.516660004854202 93.98077726364136,6.516660004854202" stroke="white" stroke-width="0.1" /></svg>