<?xml version="1.0" encoding="utf-8" ?>
<svg baseProfile="full" height="76.63441300392151" version="1.1" width="99.97389316558838" xmlns="http://www.w3.org/2000/svg" xmlns:ev="http://www.w3.org/2001/xml-events" xmlns:xlink="http://www.w3.org/1999/xlink"><defs><clipPath /></defs><polygon points="99.63881373405457,40.42344391345978 99.63881373405457,40.42344391345978 99.25972819328308,41.27097427845001 99.25972819328308,41.27097427845001 98.76517057418823,42.04536974430084 98.76517057418823,42.04536974430084 98.1848955154419,42.76328086853027 98.1848955154419,42.76328086853027 97.54843711853027,43.44082474708557 97.54843711853027,43.44082474708557 96.88587188720703,44.09465193748474 96.88587188720703,44.09465193748474 96.22663855552673,44.741091132164 96.22663855552673,44.741091132164 75.2908706665039,65.67519903182983 75.2908706665039,65.67519903182983 67.08167791366577,73.8860547542572 67.08167791366577,73.8860547542572 66.5880560874939,74.37405586242676 66.5880560874939,74.37405586242676 66.0878837108612,74.8422920703888 66.0878837108612,74.8422920703888 65.56825637817383,75.27921795845032 65.56825637817383,75.27921795845032 65.01595973968506,75.67328214645386 65.01595973968506,75.67328214645386 64.41851854324341,76.01345777511597 64.41851854324341,76.01345777511597 63.762712478637695,76.28788948059082 63.762712478637695,76.28788948059082 61.694395542144775,76.63441300392151 61.694395542144775,76.63441300392151 59.70836281776428,76.30942463874817 59.70836281776428,76.30942463874817 57.93580412864685,75.40821433067322 57.93580412864685,75.40821433067322 56.50726556777954,74.0252435207367 56.50726556777954,74.0252435207367 55.5541455745697,72.2555935382843 55.5541455745697,72.2555935382843 55.20731210708618,70.19424438476562 55.20731210708618,70.19424438476562 55.20731210708618,55.36211133003235 55.20731210708618,55.36211133003235 29.877328872680664,55.36211133003235 29.877328872680664,55.36211133003235 29.88627552986145,55.26660680770874 29.88627552986145,55.26660680770874 29.898551106452942,55.17183542251587 29.898551106452942,55.17183542251587 29.912284016609192,55.07727265357971 29.912284016609192,55.07727265357971 29.92466390132904,54.98250126838684 29.92466390132904,54.98250126838684 29.933711886405945,54.88731861114502 29.933711886405945,54.88731861114502 29.937249422073364,54.79119420051575 29.937249422073364,54.79119420051575 29.937249422073364,49.203550815582275 29.937249422073364,49.203550815582275 35.16370356082916,49.203550815582275 35.16370356082916,49.203550815582275 36.33819818496704,49.12615120410919 36.33819818496704,49.12615120410919 37.49053478240967,48.89884889125824 37.49053478240967,48.89884889125824 38.60417306423187,48.52839708328247 38.60417306423187,48.52839708328247 39.66225981712341,48.02114963531494 39.66225981712341,48.02114963531494 40.64814746379852,47.384071350097656 40.64814746379852,47.384071350097656 41.54529869556427,46.62361443042755 41.54529869556427,46.62361443042755 42.365261912345886,45.709505677223206 42.365261912345886,45.709505677223206 43.05029809474945,44.70582604408264 43.05029809474945,44.70582604408264 43.5942679643631,43.6288058757782 43.5942679643631,43.6288058757782 43.99041533470154,42.49425828456879 43.99041533470154,42.49425828456879 44.23280358314514,41.31841063499451 44.23280358314514,41.31841063499451 44.31498646736145,40.11718034744263 44.31498646736145,40.11718034744263 44.31498646736145,36.39707863330841 44.31498646736145,36.39707863330841 44.23249065876007,35.190439224243164 44.23249065876007,35.190439224243164 43.99041533470154,34.011054039001465 43.99041533470154,34.011054039001465 43.59551668167114,32.87546634674072 43.59551668167114,32.87546634674072 43.0548757314682,31.80052638053894 43.0548757314682,31.80052638053894 42.375874519348145,30.80340027809143 42.375874519348145,30.80340027809143 41.56527519226074,29.900631308555603 41.56527519226074,29.900631308555603 40.65199792385101,29.126131534576416 40.65199792385101,29.126131534576416 39.66423571109772,28.483018279075623 39.66423571109772,28.483018279075623 38.61249387264252,27.975666522979736 38.61249387264252,27.975666522979736 37.50738799571991,27.607297897338867 37.50738799571991,27.607297897338867 36.35983467102051,27.38228142261505 36.35983467102051,27.38228142261505 35.18034815788269,27.30405032634735 35.18034815788269,27.30405032634735 29.937249422073364,27.305716276168823 29.937249422073364,27.305716276168823 29.937249422073364,21.839578449726105 29.937249422073364,21.839578449726105 29.933610558509827,21.74418270587921 29.933610558509827,21.74418270587921 29.924559593200684,21.64972424507141 29.924559593200684,21.64972424507141 29.912284016609192,21.55599445104599 29.912284016609192,21.55599445104599 29.8986554145813,21.462158858776093 29.8986554145813,21.462158858776093 29.886484146118164,21.368220448493958 29.886484146118164,21.368220448493958 29.877328872680664,21.2736576795578 29.877328872680664,21.2736576795578 55.20731210708618,21.2736576795578 55.20731210708618,21.2736576795578 55.20731210708618,6.396578252315521 55.20731210708618,6.396578252315521 55.746495723724365,3.8273565471172333 55.746495723724365,3.8273565471172333 57.177841663360596,1.827905885875225 57.177841663360596,1.827905885875225 59.22202467918396,0.5145309027284384 59.22202467918396,0.5145309027284384 61.598896980285645,0.0028088017643312924 61.598896980285645,0.0028088017643312924 64.02903199195862,0.40914881974458694 64.02903199195862,0.40914881974458694 66.23279452323914,1.849231868982315 66.23279452323914,1.849231868982315 66.73223972320557,2.350030839443207 66.73223972320557,2.350030839443207 67.23210215568542,2.8507258743047714 67.23210215568542,2.8507258743047714 67.7324891090393,3.351212665438652 67.7324891090393,3.351212665438652 68.232661485672,3.8515955209732056 68.232661485672,3.8515955209732056 68.73263120651245,4.351770505309105 68.73263120651245,4.351770505309105 69.232177734375,4.851945117115974 69.232177734375,4.851945117115974 84.17916893959045,19.79893147945404 84.17916893959045,19.79893147945404 86.33601665496826,21.955259144306183 86.33601665496826,21.955259144306183 88.49244713783264,24.112004041671753 88.49244713783264,24.112004041671753 90.64898490905762,26.268956065177917 90.64898490905762,26.268956065177917 92.8053081035614,28.425908088684082 92.8053081035614,28.425908088684082 94.9619472026825,30.58306574821472 94.9619472026825,30.58306574821472 97.1187949180603,32.7402263879776 97.1187949180603,32.7402263879776 98.1055200099945,33.818286657333374 98.1055200099945,33.818286657333374 98.94077181816101,34.970623254776 98.94077181816101,34.970623254776 99.56848621368408,36.202335357666016 99.56848621368408,36.202335357666016 99.93165731430054,37.51820623874664 99.93165731430054,37.51820623874664 99.97389316558838,38.92364799976349 99.97389316558838,38.92364799976349" stroke="white" stroke-width="0.1" /><polygon points="36.81153357028961,41.72007143497467 36.81153357028961,41.72007143497467 36.580586433410645,41.91564619541168 36.580586433410645,41.91564619541168 36.32664978504181,42.079803347587585 36.32664978504181,42.079803347587585 36.05377972126007,42.210882902145386 36.05377972126007,42.210882902145386 35.76613962650299,42.30669438838959 35.76613962650299,42.30669438838959 35.46809256076813,42.365679144859314 35.46809256076813,42.365679144859314 35.16370356082916,42.38586127758026 35.16370356082916,42.38586127758026 23.11955988407135,42.38419532775879 23.11955988407135,42.38419532775879 23.11955988407135,54.79119420051575 23.11955988407135,54.79119420051575 23.09906631708145,55.08850812911987 23.09906631708145,55.08850812911987 23.03852140903473,55.379897356033325 23.03852140903473,55.379897356033325 22.93979674577713,55.660879611968994 22.93979674577713,55.660879611968994 22.804245352745056,55.92668056488037 22.804245352745056,55.92668056488037 22.633948922157288,56.1732292175293 22.633948922157288,56.1732292175293 22.43046760559082,56.395745277404785 22.43046760559082,56.395745277404785 22.2021222114563,56.59215450286865 22.2021222114563,56.59215450286865 21.94932997226715,56.75672888755798 21.94932997226715,56.75672888755798 21.67687565088272,56.88822269439697 21.67687565088272,56.88822269439697 21.388818323612213,56.98455572128296 21.388818323612213,56.98455572128296 21.090564131736755,57.04405903816223 21.090564131736755,57.04405903816223 20.785966515541077,57.06486701965332 20.785966515541077,57.06486701965332 16.714659333229065,57.06486701965332 16.714659333229065,57.06486701965332 16.408604383468628,57.04468488693237 16.408604383468628,57.04468488693237 16.109207272529602,56.985390186309814 16.109207272529602,56.985390186309814 15.820837020874023,56.88905715942383 15.820837020874023,56.88905715942383 15.547862648963928,56.75745606422424 15.547862648963928,56.75745606422424 15.29507040977478,56.59288167953491 15.29507040977478,56.59288167953491 15.066829323768616,56.397414207458496 15.066829323768616,56.397414207458496 14.863243699073792,56.174999475479126 14.863243699073792,56.174999475479126 14.692945778369904,55.92813491821289 14.692945778369904,55.92813491821289 14.557915925979614,55.66171407699585 14.557915925979614,55.66171407699585 14.459504187107086,55.38020730018616 14.459504187107086,55.38020730018616 14.399999380111694,55.08861541748047 14.399999380111694,55.08861541748047 14.381065964698792,54.79119420051575 14.381065964698792,54.79119420051575 14.381065964698792,46.931540966033936 14.381065964698792,46.931540966033936 14.377737045288086,42.38586127758026 14.377737045288086,42.38586127758026 11.338404566049576,42.38419532775879 11.338404566049576,42.38419532775879 7.350322604179382,42.38419532775879 7.350322604179382,42.38419532775879 2.3369232192635536,42.38586127758026 2.3369232192635536,42.38586127758026 2.030867710709572,42.365261912345886 2.030867710709572,42.365261912345886 1.731054112315178,42.306068539619446 1.731054112315178,42.306068539619446 1.441851630806923,42.210257053375244 1.441851630806923,42.210257053375244 1.1672131717205048,42.0793890953064 1.1672131717205048,42.0793890953064 0.9116122499108315,41.91543757915497 0.9116122499108315,41.91543757915497 0.6791058462113142,41.72007143497467 0.6791058462113142,41.72007143497467 0.4808252677321434,41.494742035865784 0.4808252677321434,41.494742035865784 0.31364953611046076,41.247254610061646 0.31364953611046076,41.247254610061646 0.1797633129172027,40.981873869895935 0.1797633129172027,40.981873869895935 0.08114316151477396,40.7025545835495 0.08114316151477396,40.7025545835495 0.020701909670606256,40.41345715522766 0.020701909670606256,40.41345715522766 0.0,40.1188462972641 0.0,40.1188462972641 0.0,36.39707863330841 0.0,36.39707863330841 0.020701909670606256,36.09820008277893 0.020701909670606256,36.09820008277893 0.08135122479870915,35.80629527568817 0.08135122479870915,35.80629527568817 0.1797633129172027,35.52551865577698 0.1797633129172027,35.52551865577698 0.3135455073788762,35.25941073894501 0.3135455073788762,35.25941073894501 0.48072123900055885,35.01213192939758 0.48072123900055885,35.01213192939758 0.6791058462113142,34.787529706954956 0.6791058462113142,34.787529706954956 0.9102598764002323,34.593307971954346 0.9102598764002323,34.593307971954346 1.1648205108940601,34.42966938018799 1.1648205108940601,34.42966938018799 1.4385226182639599,34.2987984418869 1.4385226182639599,34.2987984418869 1.7265809699892998,34.20257270336151 1.7265809699892998,34.20257270336151 2.0254582166671753,34.14348363876343 2.0254582166671753,34.14348363876343 2.3302651941776276,34.12340581417084 2.3302651941776276,34.12340581417084 2.3369232192635536,34.12340581417084 2.3369232192635536,34.12340581417084 14.377737045288086,34.12340581417084 14.377737045288086,34.12340581417084 14.377737045288086,21.837913990020752 14.377737045288086,21.837913990020752 14.398230612277985,21.540597081184387 14.398230612277985,21.540597081184387 14.45867121219635,21.249210834503174 14.45867121219635,21.249210834503174 14.557500183582306,20.968225598335266 14.557500183582306,20.968225598335266 14.692634344100952,20.702117681503296 14.692634344100952,20.702117681503296 14.863035082817078,20.455776154994965 14.863035082817078,20.455776154994965 15.066829323768616,20.233359932899475 15.066829323768616,20.233359932899475 15.296423435211182,20.037992298603058 15.296423435211182,20.037992298603058 15.549527108669281,19.87404227256775 15.549527108669281,19.87404227256775 15.822084248065948,19.743379950523376 15.822084248065948,19.743379950523376 16.109831631183624,19.64777708053589 16.109831631183624,19.64777708053589 16.408604383468628,19.588999450206757 16.408604383468628,19.588999450206757 16.714659333229065,19.569234549999237 16.714659333229065,19.569234549999237 18.93506944179535,19.569234549999237 18.93506944179535,19.569234549999237 20.785966515541077,19.567570090293884 20.785966515541077,19.567570090293884 21.090668439865112,19.58775222301483 21.090668439865112,19.58775222301483 21.389025449752808,19.6466326713562 21.389025449752808,19.6466326713562 21.67687565088272,19.742755591869354 21.67687565088272,19.742755591869354 21.949225664138794,19.873937964439392 21.949225664138794,19.873937964439392 22.201913595199585,20.038720965385437 22.201913595199585,20.038720965385437 22.43046760559082,20.235024392604828 22.43046760559082,20.235024392604828 22.633948922157288,20.455776154994965 22.633948922157288,20.455776154994965 22.803518176078796,20.700661838054657 22.803518176078796,20.700661838054657 22.938132286071777,20.96531242132187 22.938132286071777,20.96531242132187 23.035816848278046,21.244944632053375 23.035816848278046,21.244944632053375 23.095841705799103,21.535708010196686 23.095841705799103,21.535708010196686 23.116230964660645,21.832920610904694 23.116230964660645,21.832920610904694 23.116543889045715,21.83375358581543 23.116543889045715,21.83375358581543 23.11706393957138,21.834585070610046 23.11706393957138,21.834585070610046 23.117895424365997,21.835625171661377 23.117895424365997,21.835625171661377 23.118624091148376,21.83656245470047 23.118624091148376,21.83656245470047 23.1192484498024,21.837809681892395 23.1192484498024,21.837809681892395 23.11955988407135,21.839578449726105 23.11955988407135,21.839578449726105 23.11955988407135,29.655954241752625 23.11955988407135,29.655954241752625 23.11955988407135,34.121739864349365 23.11955988407135,34.121739864349365 24.730771780014038,34.12340581417084 24.730771780014038,34.12340581417084 35.16370356082916,34.121739864349365 35.16370356082916,34.121739864349365 35.468196868896484,34.142547845840454 35.468196868896484,34.142547845840454 35.76624095439911,34.20184254646301 35.76624095439911,34.20184254646301 36.05377972126007,34.297966957092285 36.05377972126007,34.297966957092285 36.326441168785095,34.428733587265015 36.326441168785095,34.428733587265015 36.58037781715393,34.592580795288086 36.58037781715393,34.592580795288086 36.81153357028961,34.787529706954956 36.81153357028961,34.787529706954956 37.01262176036835,35.011714696884155 37.01262176036835,35.011714696884155 37.18166947364807,35.258784890174866 37.18166947364807,35.258784890174866 37.31670081615448,35.524892807006836 37.31670081615448,35.524892807006836 37.41542398929596,35.80566942691803 37.41542398929596,35.80566942691803 37.476491928100586,36.0978901386261 37.476491928100586,36.0978901386261 37.497296929359436,36.39707863330841 37.497296929359436,36.39707863330841 37.497296929359436,40.11718034744263 37.497296929359436,40.11718034744263 37.476906180381775,40.41324853897095 37.476906180381775,40.41324853897095 37.41636276245117,40.70286750793457 37.41636276245117,40.70286750793457 37.317949533462524,40.98229110240936 37.317949533462524,40.98229110240936 37.18302249908447,41.24735891819 37.18302249908447,41.24735891819 37.01366186141968,41.49463772773743 37.01366186141968,41.49463772773743" stroke="white" stroke-width="0.1" /></svg>