<?xml version="1.0" encoding="utf-8" ?>
<svg baseProfile="full" height="61.10215187072754" version="1.1" width="100.00051259994507" xmlns="http://www.w3.org/2000/svg" xmlns:ev="http://www.w3.org/2001/xml-events" xmlns:xlink="http://www.w3.org/1999/xlink"><defs><clipPath /></defs><polygon points="45.32237648963928,51.082754135131836 45.32237648963928,51.082754135131836 45.28740644454956,51.34354829788208 45.28740644454956,51.34354829788208 45.188501477241516,51.57792568206787 45.188501477241516,51.57792568206787 45.035481452941895,51.77663564682007 45.035481452941895,51.77663564682007 44.836899638175964,51.93004012107849 44.836899638175964,51.93004012107849 44.60258483886719,52.028948068618774 44.60258483886719,52.028948068618774 44.34121251106262,52.063918113708496 44.34121251106262,52.063918113708496 38.47159147262573,52.063918113708496 38.47159147262573,52.063918113708496 38.21060359477997,52.02881693840027 38.21060359477997,52.02881693840027 37.976160645484924,51.929908990859985 37.976160645484924,51.929908990859985 37.77770698070526,51.77663564682007 37.77770698070526,51.77663564682007 37.62430548667908,51.57805681228638 37.62430548667908,51.57805681228638 37.52552568912506,51.34373903274536 37.52552568912506,51.34373903274536 37.49043047428131,51.082754135131836 37.49043047428131,51.082754135131836 37.49043047428131,45.214152336120605 37.49043047428131,45.214152336120605 37.525397539138794,44.95309889316559 37.525397539138794,44.95309889316559 37.62417733669281,44.718530774116516 37.62417733669281,44.718530774116516 37.77770698070526,44.519758224487305 37.77770698070526,44.519758224487305 37.976160645484924,44.366100430488586 37.976160645484924,44.366100430488586 38.210731744766235,44.26712989807129 38.210731744766235,44.26712989807129 38.47159147262573,44.231969118118286 38.47159147262573,44.231969118118286 44.34121251106262,44.231969118118286 44.34121251106262,44.231969118118286 44.60232853889465,44.26700174808502 44.60232853889465,44.26700174808502 44.8367714881897,44.36603486537933 44.8367714881897,44.36603486537933 45.035481452941895,44.519758224487305 45.035481452941895,44.519758224487305 45.188626646995544,44.718530774116516 45.188626646995544,44.718530774116516 45.28740644454956,44.95316445827484 45.28740644454956,44.95316445827484 45.32237648963928,45.214152336120605 45.32237648963928,45.214152336120605" stroke="white" stroke-width="0.1" /><polygon points="56.05493187904358,26.62923038005829 56.05493187904358,26.62923038005829 55.701035261154175,27.3812472820282 55.701035261154175,27.3812472820282 55.303746461868286,28.103336691856384 55.303746461868286,28.103336691856384 54.86382842063904,28.79435122013092 54.86382842063904,28.79435122013092 54.38179969787598,29.453009366989136 54.38179969787598,29.453009366989136 53.85879874229431,30.078360438346863 53.85879874229431,30.078360438346863 53.29521894454956,30.669254064559937 53.29521894454956,30.669254064559937 52.69743204116821,31.222307682037354 52.69743204116821,31.222307682037354 52.066850662231445,31.736627221107483 52.066850662231445,31.736627221107483 51.404619216918945,32.21182823181152 51.404619216918945,32.21182823181152 50.71150064468384,32.64696002006531 50.71150064468384,32.64696002006531 49.98851716518402,33.041760325431824 49.98851716518402,33.041760325431824 49.23681914806366,33.395275473594666 49.23681914806366,33.395275473594666 48.60929846763611,33.64681899547577 48.60929846763611,33.64681899547577 47.9706734418869,33.862629532814026 47.9706734418869,33.862629532814026 47.322094440460205,34.04257595539093 47.322094440460205,34.04257595539093 46.66394591331482,34.18634235858917 46.66394591331482,34.18634235858917 45.997244119644165,34.29399132728577 45.997244119644165,34.29399132728577 45.32237648963928,34.3652069568634 45.32237648963928,34.3652069568634 45.32237648963928,39.291441440582275 45.32237648963928,39.291441440582275 45.28740644454956,39.55236375331879 45.28740644454956,39.55236375331879 45.188501477241516,39.7869348526001 45.188501477241516,39.7869348526001 45.035481452941895,39.985835552215576 45.035481452941895,39.985835552215576 44.836899638175964,40.13942778110504 44.836899638175964,40.13942778110504 44.60258483886719,40.238529443740845 44.60258483886719,40.238529443740845 44.34121251106262,40.273624658584595 44.34121251106262,40.273624658584595 38.47159147262573,40.273624658584595 38.47159147262573,40.273624658584595 38.21060359477997,40.23846387863159 38.21060359477997,40.23846387863159 37.976160645484924,40.13936519622803 37.976160645484924,40.13936519622803 37.77770698070526,39.985835552215576 37.77770698070526,39.985835552215576 37.62430548667908,39.787063002586365 37.62430548667908,39.787063002586365 37.52552568912506,39.55242931842804 37.52552568912506,39.55242931842804 37.49043047428131,39.291441440582275 37.49043047428131,39.291441440582275 37.49043047428131,27.551177144050598 37.49043047428131,27.551177144050598 37.525397539138794,27.290189266204834 37.525397539138794,27.290189266204834 37.62417733669281,27.05574631690979 37.62417733669281,27.05574631690979 37.77770698070526,26.857292652130127 37.77770698070526,26.857292652130127 37.976160645484924,26.703891158103943 37.976160645484924,26.703891158103943 38.210731744766235,26.605111360549927 38.210731744766235,26.605111360549927 38.47159147262573,26.570016145706177 38.47159147262573,26.570016145706177 44.34121251106262,26.570016145706177 44.34121251106262,26.570016145706177 44.679540395736694,26.559293270111084 44.679540395736694,26.559293270111084 45.00995576381683,26.52745246887207 45.00995576381683,26.52745246887207 45.331692695617676,26.474681496620178 45.331692695617676,26.474681496620178 45.644113421440125,26.400786638259888 45.644113421440125,26.400786638259888 45.94721794128418,26.305964589118958 45.94721794128418,26.305964589118958 46.24023735523224,26.19020938873291 46.24023735523224,26.19020938873291 46.52585685253143,26.05346143245697 46.52585685253143,26.05346143245697 46.80037498474121,25.899994373321533 46.80037498474121,25.899994373321533 47.06391394138336,25.729620456695557 47.06391394138336,25.729620456695557 47.315460443496704,25.54246187210083 47.315460443496704,25.54246187210083 47.55500555038452,25.33864676952362 47.55500555038452,25.33864676952362 47.781920433044434,25.118178129196167 47.781920433044434,25.118178129196167 47.99887835979462,24.880801141262054 47.99887835979462,24.880801141262054 48.200523853302,24.631617963314056 48.200523853302,24.631617963314056 48.38685095310211,24.37145859003067 48.38685095310211,24.37145859003067 48.557355999946594,24.100261926651 48.557355999946594,24.100261926651 48.71216118335724,23.818853497505188 48.71216118335724,23.818853497505188 48.85088801383972,23.527491092681885 48.85088801383972,23.527491092681885 48.96651208400726,23.235362768173218 48.96651208400726,23.235362768173218 49.061593413352966,22.936278581619263 49.061593413352966,22.936278581619263 49.13586974143982,22.63094186782837 49.13586974143982,22.63094186782837 49.18908774852753,22.319670021533966 49.18908774852753,22.319670021533966 49.22099411487579,22.003038227558136 49.22099411487579,22.003038227558136 49.23171401023865,21.68155610561371 49.23171401023865,21.68155610561371 49.220865964889526,21.344058215618134 49.220865964889526,21.344058215618134 49.18895959854126,21.014346182346344 49.18895959854126,21.014346182346344 49.135997891426086,20.692992210388184 49.135997891426086,20.692992210388184 49.06197488307953,20.38063555955887 49.06197488307953,20.38063555955887 48.96727800369263,20.07797807455063 48.96727800369263,20.07797807455063 48.85190725326538,19.785594940185547 48.85190725326538,19.785594940185547 48.71318340301514,19.495508074760437 48.71318340301514,19.495508074760437 48.55748414993286,19.215504825115204 48.55748414993286,19.215504825115204 48.38544726371765,18.946219980716705 48.38544726371765,18.946219980716705 48.19643795490265,18.68765652179718 48.19643795490265,18.68765652179718 47.991350293159485,18.44019740819931 47.991350293159485,18.44019740819931 47.76966869831085,18.20409446954727 47.76966869831085,18.20409446954727 47.53229022026062,17.981457710266113 47.53229022026062,17.981457710266113 47.28406369686127,17.775538563728333 47.28406369686127,17.775538563728333 47.025373578071594,17.586401104927063 47.025373578071594,17.586401104927063 46.75634503364563,17.41417497396469 46.75634503364563,17.41417497396469 46.47761583328247,17.259304225444794 46.47761583328247,17.259304225444794 46.189188957214355,17.121854424476624 46.189188957214355,17.121854424476624 45.89680731296539,17.005334794521332 45.89680731296539,17.005334794521332 45.59752941131592,16.910001635551453 45.59752941131592,16.910001635551453 45.292386412620544,16.83610826730728 45.292386412620544,16.83610826730728 44.980984926223755,16.783271729946136 44.980984926223755,16.783271729946136 44.663843512535095,16.751621663570404 44.663843512535095,16.751621663570404 44.34121251106262,16.741028428077698 44.34121251106262,16.741028428077698 38.47159147262573,16.741028428077698 38.47159147262573,16.741028428077698 38.13198804855347,16.75155758857727 38.13198804855347,16.75155758857727 37.798893451690674,16.783463954925537 37.798893451690674,16.783463954925537 37.47294545173645,16.836872696876526 37.47294545173645,16.836872696876526 37.154144048690796,16.911405324935913 37.154144048690796,16.911405324935913 36.84338331222534,17.007504403591156 36.84338331222534,17.007504403591156 36.54091656208038,17.12491810321808 36.54091656208038,17.12491810321808 36.24585270881653,17.261984944343567 36.24585270881653,17.261984944343567 35.96329689025879,17.414812743663788 35.96329689025879,17.414812743663788 35.694268345832825,17.58321076631546 35.694268345832825,17.58321076631546 35.43838560581207,17.766796052455902 35.43838560581207,17.766796052455902 35.19641160964966,17.965376377105713 35.19641160964966,17.965376377105713 34.968605637550354,18.17857027053833 34.968605637550354,18.17857027053833 34.75483953952789,18.40663254261017 34.75483953952789,18.40663254261017 34.55600142478943,18.64905059337616 34.55600142478943,18.64905059337616 34.37248170375824,18.90525370836258 34.37248170375824,18.90525370836258 34.20414626598358,19.174855947494507 34.20414626598358,19.174855947494507 34.05176401138306,19.4574773311615 34.05176401138306,19.4574773311615 33.9149534702301,19.752922654151917 33.9149534702301,19.752922654151917 33.797669410705566,20.053602755069733 33.797669410705566,20.053602755069733 33.70169699192047,20.363342761993408 33.70169699192047,20.363342761993408 33.62729251384735,20.681633055210114 33.62729251384735,20.681633055210114 33.57394635677338,21.007709205150604 33.57394635677338,21.007709205150604 33.541783690452576,21.341314911842346 33.541783690452576,21.341314911842346 33.53106379508972,21.68155610561371 33.53106379508972,21.68155610561371 33.52251350879669,21.81045562028885 33.52251350879669,21.81045562028885 33.49737226963043,21.93603664636612 33.49737226963043,21.93603664636612 33.456405997276306,22.056767344474792 33.456405997276306,22.056767344474792 33.39986801147461,22.170989215373993 33.39986801147461,22.170989215373993 33.32865536212921,22.277171909809113 33.32865536212921,22.277171909809113 33.243146538734436,22.373782098293304 33.243146538734436,22.373782098293304 33.146026730537415,22.459034621715546 33.146026730537415,22.459034621715546 33.03971588611603,22.53050208091736 33.03971588611603,22.53050208091736 32.92574882507324,22.587677836418152 32.92574882507324,22.587677836418152 32.80527591705322,22.629345953464508 32.80527591705322,22.629345953464508 32.67982006072998,22.65506237745285 32.67982006072998,22.65506237745285 32.55092203617096,22.663740813732147 32.55092203617096,22.663740813732147 26.679259538650513,22.663740813732147 26.679259538650513,22.663740813732147 26.418909430503845,22.628453373908997 26.418909430503845,22.628453373908997 26.184722781181335,22.529226541519165 26.184722781181335,22.529226541519165 25.986140966415405,22.375568747520447 25.986140966415405,22.375568747520447 25.83235502243042,22.176732122898102 25.83235502243042,22.176732122898102 25.73332190513611,21.942289173603058 25.73332190513611,21.942289173603058 25.698095560073853,21.68155610561371 25.698095560073853,21.68155610561371 25.7261723279953,20.81761509180069 25.7261723279953,20.81761509180069 25.810658931732178,19.967839121818542 25.810658931732178,19.967839121818542 25.95129907131195,19.133315980434418 25.95129907131195,19.133315980434418 26.14758312702179,18.31512600183487 26.14758312702179,18.31512600183487 26.399511098861694,17.51454919576645 26.399511098861694,17.51454919576645 26.70682668685913,16.73286110162735 26.70682668685913,16.73286110162735 27.059191465377808,15.982823073863983 27.059191465377808,15.982823073863983 27.453163266181946,15.260924398899078 27.453163266181946,15.260924398899078 27.88848578929901,14.568507671356201 27.88848578929901,14.568507671356201 28.363624215126038,13.906338810920715 28.363624215126038,13.906338810920715 28.878068923950195,13.275690376758575 28.878068923950195,13.275690376758575 29.430803656578064,12.677523493766785 29.430803656578064,12.677523493766785 30.023610591888428,12.113112211227417 30.023610591888428,12.113112211227417 30.652281641960144,11.589476466178894 30.652281641960144,11.589476466178894 31.315791606903076,11.10738217830658 31.315791606903076,11.10738217830658 32.012611627578735,10.667020082473755 32.012611627578735,10.667020082473755 32.74197280406952,10.269411653280258 32.74197280406952,10.269411653280258 33.502477407455444,9.91474837064743 33.502477407455444,9.91474837064743 34.290292859077454,9.609028697013855 34.290292859077454,9.609028697013855 35.096099972724915,9.358122199773788 35.096099972724915,9.358122199773788 35.918501019477844,9.162285178899765 35.918501019477844,9.162285178899765 36.75608932971954,9.021900594234467 36.75608932971954,9.021900594234467 37.60758638381958,8.937413990497589 37.60758638381958,8.937413990497589 38.47159147262573,8.909081667661667 38.47159147262573,8.909081667661667 44.34121251106262,8.909081667661667 44.34121251106262,8.909081667661667 45.205092430114746,8.937286585569382 45.205092430114746,8.937286585569382 46.05492949485779,9.021900594234467 46.05492949485779,9.021900594234467 46.88983857631683,9.16254073381424 46.88983857631683,9.16254073381424 47.70815372467041,9.358760714530945 47.70815372467041,9.358760714530945 48.50860238075256,9.610368311405182 48.50860238075256,9.610368311405182 49.2899090051651,9.916790574789047 49.2899090051651,9.916790574789047 50.042372941970825,10.271453857421875 50.042372941970825,10.271453857421875 50.76459050178528,10.66938117146492 50.76459050178528,10.66938117146492 51.455795764923096,11.109934747219086 51.455795764923096,11.109934747219086 52.11445093154907,11.591964960098267 52.11445093154907,11.591964960098267 52.739548683166504,12.114771455526352 52.739548683166504,12.114771455526352 53.32993268966675,12.677523493766785 53.32993268966675,12.677523493766785 53.88343334197998,13.275882601737976 53.88343334197998,13.275882601737976 54.398131370544434,13.906721770763397 54.398131370544434,13.906721770763397 54.873526096343994,14.568890631198883 54.873526096343994,14.568890631198883 55.3084671497345,15.261244773864746 55.3084671497345,15.261244773864746 55.70269227027893,15.98294973373413 55.70269227027893,15.98294973373413 56.05493187904358,16.73286110162735 56.05493187904358,16.73286110162735 56.36173486709595,17.513656616210938 56.36173486709595,17.513656616210938 56.61327838897705,18.313850462436676 56.61327838897705,18.313850462436676 56.80956244468689,19.132167100906372 56.80956244468689,19.132167100906372 56.94994926452637,19.967074692249298 56.94994926452637,19.967074692249298 57.03456401824951,20.81729620695114 57.03456401824951,20.81729620695114 57.06263780593872,21.68155610561371 57.06263780593872,21.68155610561371 57.03430771827698,22.545498609542847 57.03430771827698,22.545498609542847 56.94981813430786,23.395784199237823 56.94981813430786,23.395784199237823 56.80956244468689,24.230818450450897 56.80956244468689,24.230818450450897 56.61340951919556,25.04907250404358 56.61340951919556,25.04907250404358 56.36186599731445,25.849074125289917 56.36186599731445,25.849074125289917" stroke="white" stroke-width="0.1" /><polygon points="68.48843693733215,58.074432611465454 68.48843693733215,58.074432611465454 68.48843693733215,58.219921588897705 68.48843693733215,58.219921588897705 68.5049057006836,58.70399475097656 68.5049057006836,58.70399475097656 68.55327486991882,59.17938947677612 68.55327486991882,59.17938947677612 68.63303780555725,59.64508056640625 68.63303780555725,59.64508056640625 68.74253749847412,60.09986400604248 68.74253749847412,60.09986400604248 68.88126134872437,60.542845726013184 68.88126134872437,60.542845726013184 69.04793977737427,60.972994565963745 69.04793977737427,60.972994565963745 12.340600043535233,60.971975326538086 12.340600043535233,60.971975326538086 9.066440910100937,60.52912473678589 9.066440910100937,60.52912473678589 6.120654568076134,59.28339958190918 6.120654568076134,59.28339958190918 3.6223135888576508,57.35323429107666 3.6223135888576508,57.35323429107666 1.6899790614843369,54.85674738883972 1.6899790614843369,54.85674738883972 0.44310581870377064,51.91242694854736 0.44310581870377064,51.91242694854736 0.0,48.63852262496948 0.0,48.63852262496948 0.0,12.33549490571022 0.0,12.33549490571022 0.44310581870377064,9.061463177204132 0.44310581870377064,9.061463177204132 1.690106838941574,6.116889789700508 1.690106838941574,6.116889789700508 3.6223135888576508,3.6201439797878265 3.6223135888576508,3.6201439797878265 6.120527163147926,1.689404807984829 6.120527163147926,1.689404807984829 9.06631276011467,0.44336109422147274 9.06631276011467,0.44336109422147274 12.340600043535233,0.0 12.340600043535233,0.0 70.41503190994263,0.00204196239792509 70.41503190994263,0.00204196239792509 73.68983030319214,0.44463733211159706 73.68983030319214,0.44463733211159706 76.6351044178009,1.690106838941574 76.6351044178009,1.690106838941574 79.13318872451782,3.620399162173271 79.13318872451782,3.620399162173271 81.06539845466614,6.116889789700508 81.06539845466614,6.116889789700508 82.3140561580658,9.061399847269058 82.3140561580658,9.061399847269058 82.76073336601257,12.33549490571022 82.76073336601257,12.33549490571022 82.76073336601257,18.19796860218048 82.76073336601257,18.19796860218048 82.48915672302246,18.136964738368988 82.48915672302246,18.136964738368988 82.21655488014221,18.08406561613083 82.21655488014221,18.08406561613083 81.94331526756287,18.040546774864197 81.94331526756287,18.040546774864197 81.66905045509338,18.007683753967285 81.66905045509338,18.007683753967285 81.39427900314331,17.987072467803955 81.39427900314331,17.987072467803955 81.11900091171265,17.97998994588852 81.11900091171265,17.97998994588852 80.90522885322571,17.983946204185486 80.90522885322571,17.983946204185486 80.69235682487488,17.995303869247437 80.69235682487488,17.995303869247437 80.48075437545776,18.013617396354675 80.48075437545776,18.013617396354675 80.26992678642273,18.03831309080124 80.26992678642273,18.03831309080124 80.05998730659485,18.068942427635193 80.05998730659485,18.068942427635193 79.8509418964386,18.10505986213684 79.8509418964386,18.10505986213684 79.8509418964386,12.33549490571022 79.8509418964386,12.33549490571022 79.50993180274963,9.835366904735565 79.50993180274963,9.835366904735565 78.55390906333923,7.584422826766968 78.55390906333923,7.584422826766968 77.07489132881165,5.673975497484207 77.07489132881165,5.673975497484207 75.16412734985352,4.195211827754974 75.16412734985352,4.195211827754974 72.91362881660461,3.2397009432315826 72.91362881660461,3.2397009432315826 70.41503190994263,2.8985656797885895 70.41503190994263,2.8985656797885895 12.340600043535233,2.897544577717781 12.340600043535233,2.897544577717781 9.844045341014862,3.2391905784606934 9.844045341014862,3.2391905784606934 7.59405791759491,4.19495664536953 7.59405791759491,4.19495664536953 5.683036521077156,5.67384772002697 5.683036521077156,5.67384772002697 4.202869161963463,7.584294676780701 4.202869161963463,7.584294676780701 3.2462097704410553,9.835239499807358 3.2462097704410553,9.835239499807358 2.9046915471553802,12.33549490571022 2.9046915471553802,12.33549490571022 2.9046915471553802,48.63852262496948 2.9046915471553802,48.63852262496948 3.2462097704410553,51.13157033920288 3.2462097704410553,51.13157033920288 4.2031243443489075,53.378427028656006 4.2031243443489075,53.378427028656006 5.683036521077156,55.287665128707886 5.683036521077156,55.287665128707886 7.593930512666702,56.767576932907104 7.593930512666702,56.767576932907104 9.843790531158447,57.72704482078552 9.843790531158447,57.72704482078552 12.340600043535233,58.074432611465454 12.340600043535233,58.074432611465454" stroke="white" stroke-width="0.1" /><polygon points="99.82950091362,40.0505393743515 99.82950091362,40.0505393743515 100.00051259994507,41.071394085884094 100.00051259994507,41.071394085884094 99.83983635902405,42.05179214477539 99.83983635902405,42.05179214477539 99.39481616020203,42.92702674865723 99.39481616020203,42.92702674865723 98.71190786361694,43.63226890563965 98.71190786361694,43.63226890563965 97.83820509910583,44.102942943573 97.83820509910583,44.102942943573 96.82067036628723,44.27433907985687 96.82067036628723,44.27433907985687 89.49921131134033,44.27433907985687 89.49921131134033,44.27433907985687 89.49921131134033,58.219921588897705 89.49921131134033,58.219921588897705 89.39583897590637,58.983999490737915 89.39583897590637,58.983999490737915 89.1043484210968,59.67188477516174 89.1043484210968,59.67188477516174 88.6526882648468,60.25562882423401 88.6526882648468,60.25562882423401 88.06881904602051,60.70709824562073 88.06881904602051,60.70709824562073 87.38105893135071,60.99864840507507 87.38105893135071,60.99864840507507 86.6169810295105,61.10215187072754 86.6169810295105,61.10215187072754 75.5526065826416,61.10215187072754 75.5526065826416,61.10215187072754 74.7886598110199,60.99877953529358 74.7886598110199,60.99877953529358 74.10051822662354,60.707223415374756 74.10051822662354,60.707223415374756 73.5168993473053,60.25562882423401 73.5168993473053,60.25562882423401 73.06498885154724,59.671759605407715 73.06498885154724,59.671759605407715 72.7737545967102,58.98393392562866 72.7737545967102,58.98393392562866 72.67037630081177,58.219921588897705 72.67037630081177,58.219921588897705 72.67037630081177,44.27433907985687 72.67037630081177,44.27433907985687 65.3264582157135,44.27433907985687 65.3264582157135,44.27433907985687 64.05763626098633,44.00798976421356 64.05763626098633,44.00798976421356 63.07034492492676,43.3011531829834 63.07034492492676,43.3011531829834 62.421900033950806,42.291849851608276 62.421900033950806,42.291849851608276 62.16907501220703,41.118231415748596 62.16907501220703,41.118231415748596 62.36969828605652,39.91876840591431 62.36969828605652,39.91876840591431 63.080304861068726,38.83148729801178 63.080304861068726,38.83148729801178 63.32814693450928,38.58473002910614 63.32814693450928,38.58473002910614 63.57547640800476,38.33765387535095 63.57547640800476,38.33765387535095 63.822680711746216,38.090384006500244 63.822680711746216,38.090384006500244 64.06937837600708,37.843114137649536 64.06937837600708,37.843114137649536 64.31607007980347,37.596291303634644 64.31607007980347,37.596291303634644 64.56276774406433,37.35004365444183 64.56276774406433,37.35004365444183 71.94241881370544,29.971414804458618 71.94241881370544,29.971414804458618 73.00704717636108,28.906720876693726 73.00704717636108,28.906720876693726 74.07167553901672,27.84215807914734 74.07167553901672,27.84215807914734 75.13668537139893,26.777657866477966 75.13668537139893,26.777657866477966 76.20169520378113,25.713029503822327 76.20169520378113,25.713029503822327 77.26683616638184,24.648208916187286 77.26683616638184,24.648208916187286 78.33172082901001,23.58313351869583 78.33172082901001,23.58313351869583 78.73883843421936,23.202116787433624 78.73883843421936,23.202116787433624 79.16726469993591,22.861619293689728 79.16726469993591,22.861619293689728 79.61853742599487,22.574660181999207 79.61853742599487,22.574660181999207 80.09342551231384,22.35380858182907 80.09342551231384,22.35380858182907 80.59319257736206,22.21195697784424 80.59319257736206,22.21195697784424 81.11900091171265,22.161927819252014 81.11900091171265,22.161927819252014 81.28018379211426,22.166649997234344 81.28018379211426,22.166649997234344 81.44392371177673,22.180752456188202 81.44392371177673,22.180752456188202 81.61022067070007,22.20480889081955 81.61022067070007,22.20480889081955 81.7789375782013,22.239013016223907 81.7789375782013,22.239013016223907 81.9500744342804,22.283807396888733 81.9500744342804,22.283807396888733 82.12364315986633,22.339579463005066 82.12364315986633,22.339579463005066 82.54237174987793,22.52667397260666 82.54237174987793,22.52667397260666 82.92472958564758,22.770625352859497 82.92472958564758,22.770625352859497 83.27913880348206,23.05694669485092 83.27913880348206,23.05694669485092 83.61350893974304,23.370833694934845 83.61350893974304,23.370833694934845 83.93626809120178,23.69786649942398 83.93626809120178,23.69786649942398 84.255450963974,24.023176729679108 84.255450963974,24.023176729679108 94.58982348442078,34.35959219932556 94.58982348442078,34.35959219932556 95.2657163143158,35.034969449043274 95.2657163143158,35.034969449043274 95.9413468837738,35.71009337902069 95.9413468837738,35.71009337902069 96.61685228347778,36.385345458984375 96.61685228347778,36.385345458984375 97.29223251342773,37.06059753894806 97.29223251342773,37.06059753894806 97.96761274337769,37.736040353775024 97.96761274337769,37.736040353775024 98.64311814308167,38.41186463832855 98.64311814308167,38.41186463832855 98.88420104980469,38.65549564361572 98.88420104980469,38.65549564361572 99.11532402038574,38.90219032764435 99.11532402038574,38.90219032764435 99.33125972747803,39.1588419675827 99.33125972747803,39.1588419675827 99.5257556438446,39.4313782453537 99.5257556438446,39.4313782453537 99.69383478164673,39.72650468349457 99.69383478164673,39.72650468349457" stroke="white" stroke-width="0.1" /></svg>