<?xml version="1.0" encoding="utf-8" ?>
<svg baseProfile="full" height="90.6367838382721" version="1.1" width="99.99468326568604" xmlns="http://www.w3.org/2000/svg" xmlns:ev="http://www.w3.org/2001/xml-events" xmlns:xlink="http://www.w3.org/1999/xlink"><defs><clipPath /></defs><polygon points="98.58088493347168,79.25954461097717 98.58088493347168,79.25954461097717 98.58088493347168,79.25954461097717 98.58088493347168,79.25954461097717 99.36259388923645,80.93594312667847 99.36259388923645,80.93594312667847 99.85868334770203,82.71780014038086 99.85868334770203,82.71780014038086 99.99468326568604,84.5162570476532 99.99468326568604,84.5162570476532 99.69556927680969,86.24222874641418 99.69556927680969,86.24222874641418 98.88685941696167,87.80708312988281 98.88685941696167,87.80708312988281 97.49375581741333,89.12161588668823 97.49375581741333,89.12161588668823 96.59342169761658,89.6391749382019 96.59342169761658,89.6391749382019 95.6425130367279,90.02195000648499 95.6425130367279,90.02195000648499 94.6533203125,90.28809070587158 94.6533203125,90.28809070587158 93.63767504692078,90.45574069023132 93.63767504692078,90.45574069023132 92.60820150375366,90.54294228553772 92.60820150375366,90.54294228553772 91.5765106678009,90.56817293167114 91.5765106678009,90.56817293167114 13.412949442863464,90.56817293167114 13.412949442863464,90.56817293167114 11.371040344238281,90.60690402984619 11.371040344238281,90.60690402984619 9.195895493030548,90.6367838382721 9.195895493030548,90.6367838382721 6.999725103378296,90.5281126499176 6.999725103378296,90.5281126499176 4.894739389419556,90.1513159275055 4.894739389419556,90.1513159275055 2.9937010258436203,89.37680125236511 2.9937010258436203,89.37680125236511 1.408488117158413,88.07520866394043 1.408488117158413,88.07520866394043 0.25573663879185915,86.05145215988159 0.25573663879185915,86.05145215988159 0.013832574768457562,83.9201271533966 0.013832574768457562,83.9201271533966 0.45370846055448055,81.74542784690857 0.45370846055448055,81.74542784690857 1.3458541594445705,79.59108352661133 1.3458541594445705,79.59108352661133 2.4610916152596474,77.52195000648499 2.4610916152596474,77.52195000648499 3.570353612303734,75.60154795646667 3.570353612303734,75.60154795646667 24.323199689388275,38.83655667304993 24.323199689388275,38.83655667304993 42.91771948337555,5.898652598261833 42.91771948337555,5.898652598261833 43.343985080718994,5.144721642136574 43.343985080718994,5.144721642136574 43.78009736537933,4.39864806830883 43.78009736537933,4.39864806830883 44.24011409282684,3.6699481308460236 44.24011409282684,3.6699481308460236 44.737645983695984,2.967972494661808 44.737645983695984,2.967972494661808 45.286741852760315,2.302570268511772 45.286741852760315,2.302570268511772 45.90112864971161,1.6829263418912888 45.90112864971161,1.6829263418912888 47.87088930606842,0.40230657905340195 47.87088930606842,0.40230657905340195 49.85957145690918,0.0 49.85957145690918,0.0 51.79004669189453,0.34902351908385754 51.79004669189453,0.34902351908385754 53.58462929725647,1.3222281821072102 53.58462929725647,1.3222281821072102 55.166298151016235,2.792796865105629 55.166298151016235,2.792796865105629 56.457263231277466,4.633580520749092 56.457263231277466,4.633580520749092 61.33164167404175,13.269533216953278 61.33164167404175,13.269533216953278" stroke="white" stroke-width="0.1" /><polygon points="55.82163333892822,80.30241131782532 55.82163333892822,80.30241131782532 55.82163333892822,80.30241131782532 55.82163333892822,80.30241131782532 55.96415996551514,78.70247960090637 55.96415996551514,78.70247960090637 56.182825565338135,76.4779806137085 56.182825565338135,76.4779806137085 56.27644658088684,74.0374743938446 56.27644658088684,74.0374743938446 56.04339241981506,71.78874015808105 56.04339241981506,71.78874015808105 55.282604694366455,70.14022469520569 55.282604694366455,70.14022469520569 53.79256010055542,69.50016617774963 53.79256010055542,69.50016617774963 52.19849348068237,69.40942406654358 52.19849348068237,69.40942406654358 50.12404918670654,69.26755905151367 50.12404918670654,69.26755905151367 47.918251156806946,69.27010416984558 47.918251156806946,69.27010416984558 45.929792523384094,69.61215734481812 45.929792523384094,69.61215734481812 44.507911801338196,70.48958539962769 44.507911801338196,70.48958539962769 44.00130808353424,72.0975935459137 44.00130808353424,72.0975935459137 44.03649866580963,73.16126227378845 44.03649866580963,73.16126227378845 44.071024656295776,74.22493100166321 44.071024656295776,74.22493100166321 44.10533010959625,75.28849244117737 44.10533010959625,75.28849244117737 44.13919150829315,76.35182738304138 44.13919150829315,76.35182738304138 44.17305290699005,77.41538882255554 44.17305290699005,77.41538882255554 44.20669376850128,78.47872376441956 44.20669376850128,78.47872376441956 44.22495365142822,79.29606437683105 44.22495365142822,79.29606437683105 44.27109956741333,80.15700578689575 44.27109956741333,80.15700578689575 44.406768679618835,81.00001811981201 44.406768679618835,81.00001811981201 44.693490862846375,81.7635715007782 44.693490862846375,81.7635715007782 45.19290328025818,82.3863685131073 45.19290328025818,82.3863685131073 45.96664011478424,82.80687928199768 45.96664011478424,82.80687928199768 46.96424603462219,83.02156329154968 46.96424603462219,83.02156329154968 48.062995076179504,83.09703469276428 48.062995076179504,83.09703469276428 49.21630024909973,83.07777643203735 49.21630024909973,83.07777643203735 50.37690997123718,83.00872445106506 50.37690997123718,83.00872445106506 51.49834156036377,82.93447494506836 51.49834156036377,82.93447494506836 52.53368616104126,82.89983868598938 52.53368616104126,82.89983868598938 53.374260663986206,82.84738063812256 53.374260663986206,82.84738063812256 54.14080619812012,82.67419934272766 54.14080619812012,82.67419934272766 54.80111837387085,82.35671520233154 54.80111837387085,82.35671520233154 55.322885513305664,81.87113404273987 55.322885513305664,81.87113404273987 55.673789978027344,81.19433522224426 55.673789978027344,81.19433522224426" stroke="white" stroke-width="0.1" /><polygon points="56.34925961494446,63.82194757461548 56.34925961494446,63.82194757461548 56.34925961494446,63.82194757461548 56.34925961494446,63.82194757461548 57.37619400024414,31.746312975883484 57.37619400024414,31.746312975883484 57.63469338417053,23.727402091026306 57.63469338417053,23.727402091026306 57.598841190338135,22.79132455587387 57.598841190338135,22.79132455587387 57.415807247161865,21.93724662065506 57.415807247161865,21.93724662065506 57.06324577331543,21.204562485218048 57.06324577331543,21.204562485218048 56.51845932006836,20.63250243663788 56.51845932006836,20.63250243663788 55.75922131538391,20.26057243347168 55.75922131538391,20.26057243347168 54.76282835006714,20.127834379673004 54.76282835006714,20.127834379673004 47.2131222486496,20.127834379673004 47.2131222486496,20.127834379673004 46.381840109825134,20.118317008018494 46.381840109825134,20.118317008018494 45.5243319272995,20.129604637622833 45.5243319272995,20.129604637622833 44.6832001209259,20.221784710884094 44.6832001209259,20.221784710884094 43.901050090789795,20.454780757427216 43.901050090789795,20.454780757427216 43.22115182876587,20.888571441173553 43.22115182876587,20.888571441173553 42.68577694892883,21.58324271440506 42.68577694892883,21.58324271440506 42.35091805458069,22.591139376163483 42.35091805458069,22.591139376163483 42.23693609237671,23.78992587327957 42.23693609237671,23.78992587327957 42.27500259876251,25.092068314552307 42.27500259876251,25.092068314552307 42.396289110183716,26.409316062927246 42.396289110183716,26.409316062927246 42.53195822238922,27.65430510044098 42.53195822238922,27.65430510044098 42.613181471824646,28.738999366760254 42.613181471824646,28.738999366760254 42.871686816215515,36.75791025161743 42.871686816215515,36.75791025161743 43.38515102863312,52.79572606086731 43.38515102863312,52.79572606086731 43.427643179893494,54.13244962692261 43.427643179893494,54.13244962692261 43.47024857997894,55.46901226043701 43.47024857997894,55.46901226043701 43.51285398006439,56.80551528930664 43.51285398006439,56.80551528930664 43.55556666851044,58.1417977809906 43.55556666851044,58.1417977809906 43.59850585460663,59.47830080986023 43.59850585460663,59.47830080986023 43.64188313484192,60.81463694572449 43.64188313484192,60.81463694572449 43.64453852176666,61.818331480026245 43.64453852176666,61.818331480026245 43.6547189950943,62.91419863700867 43.6547189950943,62.91419863700867 43.76339018344879,64.00774717330933 43.76339018344879,64.00774717330933 44.06161904335022,65.00402688980103 44.06161904335022,65.00402688980103 44.640594720840454,65.80841541290283 44.640594720840454,65.80841541290283 45.59127986431122,66.32642149925232 45.59127986431122,66.32642149925232 46.71470820903778,66.5497362613678 46.71470820903778,66.5497362613678 47.93706238269806,66.62752628326416 47.93706238269806,66.62752628326416 49.212539196014404,66.60661101341248 49.212539196014404,66.60661101341248 50.495314598083496,66.53368473052979 50.495314598083496,66.53368473052979 51.73969268798828,66.45572781562805 51.73969268798828,66.45572781562805 52.90018916130066,66.41937494277954 52.90018916130066,66.41937494277954 53.74763011932373,66.36847257614136 53.74763011932373,66.36847257614136 54.54283952713013,66.19877219200134 54.54283952713013,66.19877219200134 55.24287819862366,65.88488221168518 55.24287819862366,65.88488221168518 55.805474519729614,65.40102362632751 55.805474519729614,65.40102362632751 56.18858337402344,64.72189426422119 56.18858337402344,64.72189426422119" stroke="white" stroke-width="0.1" /></svg>