<?xml version="1.0" encoding="utf-8" ?>
<svg baseProfile="full" height="79.51350212097168" version="1.1" width="99.97830986976624" xmlns="http://www.w3.org/2000/svg" xmlns:ev="http://www.w3.org/2001/xml-events" xmlns:xlink="http://www.w3.org/1999/xlink"><defs><clipPath /></defs><polygon points="6.889638304710388,28.88507843017578 6.889638304710388,28.88507843017578 6.889638304710388,28.88507843017578 6.889638304710388,28.88507843017578 6.351272761821747,28.61950993537903 6.351272761821747,28.61950993537903 5.607650429010391,28.206533193588257 5.607650429010391,28.206533193588257 4.815055802464485,27.680161595344543 4.815055802464485,27.680161595344543 4.129280149936676,27.073925733566284 4.129280149936676,27.073925733566284 3.706524893641472,26.421838998794556 3.706524893641472,26.421838998794556 3.7028271704912186,25.757426023483276 3.7028271704912186,25.757426023483276 4.422209784388542,24.749387800693512 4.422209784388542,24.749387800693512 5.61060830950737,23.880787193775177 5.61060830950737,23.880787193775177 7.084212452173233,23.137740790843964 7.084212452173233,23.137740790843964 8.658473193645477,22.505785524845123 8.658473193645477,22.505785524845123 10.149332880973816,21.970871090888977 10.149332880973816,21.970871090888977 11.372734606266022,21.51886373758316 11.372734606266022,21.51886373758316 25.013968348503113,16.00767821073532 25.013968348503113,16.00767821073532 56.76901936531067,3.1776081770658493 56.76901936531067,3.1776081770658493 57.873523235321045,2.7232181280851364 57.873523235321045,2.7232181280851364 58.97720456123352,2.2599538788199425 58.97720456123352,2.2599538788199425 60.0823700428009,1.79718267172575 60.0823700428009,1.79718267172575 61.191147565841675,1.3438607566058636 61.191147565841675,1.3438607566058636 62.306082248687744,0.9096840396523476 62.306082248687744,0.9096840396523476 63.42924237251282,0.5035266745835543 63.42924237251282,0.5035266745835543 64.1466498374939,0.27616729494184256 64.1466498374939,0.27616729494184256 64.98665809631348,0.07970314472913742 64.98665809631348,0.07970314472913742 65.84268808364868,0.0 65.84268808364868,0.0 66.60816669464111,0.12267710408195853 66.60816669464111,0.12267710408195853 67.17677116394043,0.5336002446711063 67.17677116394043,0.5336002446711063 67.44167804718018,1.3186351396143436 67.44167804718018,1.3186351396143436 67.45211482048035,1.9104104489088058 67.45211482048035,1.9104104489088058 67.39870309829712,2.500706724822521 67.39870309829712,2.500706724822521 67.29279160499573,3.0865659937262535 67.29279160499573,3.0865659937262535 67.14538335800171,3.66511233150959 67.14538335800171,3.66511233150959 66.96789860725403,4.233716055750847 66.96789860725403,4.233716055750847 66.7711853981018,4.78941947221756 66.7711853981018,4.78941947221756 65.4775321483612,8.291756361722946 65.4775321483612,8.291756361722946 54.41572070121765,38.274601101875305 54.41572070121765,38.274601101875305 54.19386625289917,38.88839781284332 54.19386625289917,38.88839781284332 53.97201180458069,39.5064651966095 53.97201180458069,39.5064651966095 53.741610050201416,40.12305736541748 53.741610050201416,40.12305736541748 53.493791818618774,40.73159396648407 53.493791818618774,40.73159396648407 53.22009325027466,41.32624566555023 53.22009325027466,41.32624566555023 52.91171073913574,41.90051853656769 52.91171073913574,41.90051853656769 51.49184465408325,43.736156821250916 51.49184465408325,43.736156821250916 49.71767067909241,45.096203684806824 49.71767067909241,45.096203684806824 47.689104080200195,45.960283279418945 47.689104080200195,45.960283279418945 45.5057293176651,46.30801975727081 45.5057293176651,46.30801975727081 43.26755106449127,46.11944556236267 43.26755106449127,46.11944556236267 41.07423424720764,45.373931527137756 41.07423424720764,45.373931527137756 31.821438670158386,40.91055691242218 31.821438670158386,40.91055691242218" stroke="white" stroke-width="0.1" /><polygon points="81.9282591342926,20.534159243106842 81.9282591342926,20.534159243106842 81.9282591342926,20.534159243106842 81.9282591342926,20.534159243106842 79.19345498085022,21.593306958675385 79.19345498085022,21.593306958675385 76.79702043533325,23.20355772972107 76.79702043533325,23.20355772972107 74.80986714363098,25.275099277496338 74.80986714363098,25.275099277496338 73.30248951911926,27.717304229736328 73.30248951911926,27.717304229736328 72.34563827514648,30.440357327461243 72.34563827514648,30.440357327461243 72.0102310180664,33.353713154792786 72.0102310180664,33.353713154792786 71.99568748474121,34.44605469703674 71.99568748474121,34.44605469703674 71.9914972782135,35.539138317108154 71.9914972782135,35.539138317108154 71.99445366859436,36.6327166557312 71.99445366859436,36.6327166557312 72.0007836818695,37.72629201412201 72.0007836818695,37.72629201412201 72.00727462768555,38.81978690624237 72.00727462768555,38.81978690624237 72.0102310180664,39.91270661354065 72.0102310180664,39.91270661354065 72.0102310180664,51.78831219673157 72.0102310180664,51.78831219673157 71.99790477752686,53.05213928222656 71.99790477752686,53.05213928222656 71.9735860824585,54.32788133621216 71.9735860824585,54.32788133621216 71.95665836334229,55.60929775238037 71.95665836334229,55.60929775238037 71.96610569953918,56.88955783843994 71.96610569953918,56.88955783843994 72.02140688896179,58.16242694854736 72.02140688896179,58.16242694854736 72.14170098304749,59.42140817642212 72.14170098304749,59.42140817642212 72.21860885620117,59.821152687072754 72.21860885620117,59.821152687072754 72.30808734893799,60.14070510864258 72.30808734893799,60.14070510864258 72.36815690994263,60.39559245109558 72.36815690994263,60.39559245109558 72.35640287399292,60.601258277893066 72.35640287399292,60.601258277893066 72.23109602928162,60.77364683151245 72.23109602928162,60.77364683151245 71.9497561454773,60.928040742874146 71.9497561454773,60.928040742874146 71.72757387161255,61.0180139541626 71.72757387161255,61.0180139541626 71.5053915977478,61.107826232910156 71.5053915977478,61.107826232910156 71.28320336341858,61.19755506515503 71.28320336341858,61.19755506515503 71.06094360351562,61.28720045089722 71.06094360351562,61.28720045089722 70.83876132965088,61.37709021568298 70.83876132965088,61.37709021568298 70.61665654182434,61.467063426971436 70.61665654182434,61.467063426971436 69.7574257850647,61.814308166503906 69.7574257850647,61.814308166503906 68.89786124229431,62.16155290603638 68.89786124229431,62.16155290603638 68.03805828094482,62.50895857810974 68.03805828094482,62.50895857810974 67.17783808708191,62.85620331764221 67.17783808708191,62.85620331764221 66.31729006767273,63.203608989715576 66.31729006767273,63.203608989715576 65.45649766921997,63.55085372924805 65.45649766921997,63.55085372924805 49.490886926651,70.00203728675842 49.490886926651,70.00203728675842 33.71196389198303,76.37829184532166 33.71196389198303,76.37829184532166 32.38396346569061,76.94722414016724 32.38396346569061,76.94722414016724 31.013396382331848,77.5665283203125 31.013396382331848,77.5665283203125 29.612430930137634,78.18303108215332 29.612430930137634,78.18303108215332 28.192728757858276,78.74309420585632 28.192728757858276,78.74309420585632 26.766371726989746,79.1935384273529 26.766371726989746,79.1935384273529 25.345271825790405,79.4809639453888 25.345271825790405,79.4809639453888 23.507004976272583,79.51350212097168 23.507004976272583,79.51350212097168 21.7336505651474,79.14357781410217 21.7336505651474,79.14357781410217 20.088808238506317,78.40800881385803 20.088808238506317,78.40800881385803 18.63558143377304,77.34302878379822 18.63558143377304,77.34302878379822 17.437486350536346,75.9856104850769 17.437486350536346,75.9856104850769 16.557876765727997,74.37207102775574 16.557876765727997,74.37207102775574 16.369710862636566,73.90469908714294 16.369710862636566,73.90469908714294 16.18121713399887,73.43732714653015 16.18121713399887,73.43732714653015 15.992559492588043,72.96995520591736 15.992559492588043,72.96995520591736 15.80381840467453,72.50249981880188 15.80381840467453,72.50249981880188 15.6154066324234,72.03512787818909 15.6154066324234,72.03512787818909 15.42724221944809,71.56783938407898 15.42724221944809,71.56783938407898 14.458560943603516,69.17247176170349 14.458560943603516,69.17247176170349 13.490208983421326,66.777104139328 13.490208983421326,66.777104139328 12.522102892398834,64.38173651695251 12.522102892398834,64.38173651695251 11.554162204265594,61.98628544807434 11.554162204265594,61.98628544807434 10.58654934167862,59.59083437919617 10.58654934167862,59.59083437919617 9.618937224149704,57.19563364982605 9.618937224149704,57.19563364982605 3.092810697853565,41.04070961475372 3.092810697853565,41.04070961475372 2.3906834423542023,39.406466484069824 2.3906834423542023,39.406466484069824 1.6273410990834236,37.679046392440796 1.6273410990834236,37.679046392440796 0.9087801910936832,35.89073717594147 0.9087801910936832,35.89073717594147 0.3405871568247676,34.07366871833801 0.3405871568247676,34.07366871833801 0.029005372198298573,32.26013481616974 0.029005372198298573,32.26013481616974 0.07953880704008043,30.482426285743713 0.07953880704008043,30.482426285743713 1.2362204492092133,31.63146674633026 1.2362204492092133,31.63146674633026 2.5524726137518883,32.61247277259827 2.5524726137518883,32.61247277259827 3.980884328484535,33.46398174762726 3.980884328484535,33.46398174762726 5.473551899194717,34.2242032289505 5.473551899194717,34.2242032289505 6.983146071434021,34.931424260139465 6.983146071434021,34.931424260139465 8.462008833885193,35.62418222427368 8.462008833885193,35.62418222427368 20.641307532787323,41.49690866470337 20.641307532787323,41.49690866470337 33.40958654880524,47.65360653400421 33.40958654880524,47.65360653400421 34.58755016326904,48.23716580867767 34.58755016326904,48.23716580867767 35.772085189819336,48.839375376701355 35.772085189819336,48.839375376701355 36.96549832820892,49.43796992301941 36.96549832820892,49.43796992301941 38.17000091075897,50.010353326797485 38.17000091075897,50.010353326797485 39.38814401626587,50.53442120552063 39.38814401626587,50.53442120552063 40.62198102474213,50.98766088485718 40.62198102474213,50.98766088485718 44.51379477977753,51.71747803688049 44.51379477977753,51.71747803688049 48.242753744125366,51.382070779800415 48.242753744125366,51.382070779800415 51.67820453643799,50.09400248527527 51.67820453643799,50.09400248527527 54.6890914440155,47.965022921562195 54.6890914440155,47.965022921562195 57.14477300643921,45.10762393474579 57.14477300643921,45.10762393474579 58.91458988189697,41.63363575935364 58.91458988189697,41.63363575935364 59.656327962875366,39.621502161026 59.656327962875366,39.621502161026 60.39838790893555,37.608957290649414 60.39838790893555,37.608957290649414 61.14069223403931,35.59640944004059 61.14069223403931,35.59640944004059 61.88316345214844,33.583617210388184 61.88316345214844,33.583617210388184 62.62596845626831,31.570908427238464 62.62596845626831,31.570908427238464 63.368767499923706,29.558199644088745 63.368767499923706,29.558199644088745 69.50969099998474,12.919469177722931 69.50969099998474,12.919469177722931 70.23260593414307,11.064193397760391 70.23260593414307,11.064193397760391 71.01106643676758,9.118368476629257 71.01106643676758,9.118368476629257 71.75189256668091,7.115272432565689 71.75189256668091,7.115272432565689 72.3615825176239,5.087607726454735 72.3615825176239,5.087607726454735 72.7470338344574,3.0686533078551292 72.7470338344574,3.0686533078551292 72.81482219696045,1.0911935940384865 72.81482219696045,1.0911935940384865 74.14956092834473,2.398982457816601 74.14956092834473,2.398982457816601 75.2318799495697,4.007178172469139 75.2318799495697,4.007178172469139 76.12028121948242,5.809455364942551 76.12028121948242,5.809455364942551 76.87294483184814,7.699159532785416 76.87294483184814,7.699159532785416 77.54836678504944,9.57004725933075 77.54836678504944,9.57004725933075 78.20505499839783,11.315546184778214 78.20505499839783,11.315546184778214" stroke="white" stroke-width="0.1" /><polygon points="97.83865213394165,33.68632793426514 97.83865213394165,33.68632793426514 97.83865213394165,33.68632793426514 97.83865213394165,33.68632793426514 99.05901551246643,34.2255175113678 99.05901551246643,34.2255175113678 99.72243905067444,35.61062514781952 99.72243905067444,35.61062514781952 99.97830986976624,37.49350905418396 99.97830986976624,37.49350905418396 99.97592568397522,39.52561020851135 99.97592568397522,39.52561020851135 99.8650848865509,41.35878384113312 99.8650848865509,41.35878384113312 99.79491233825684,42.64463484287262 99.79491233825684,42.64463484287262 99.79491233825684,55.84939122200012 99.79491233825684,55.84939122200012 99.63632822036743,58.30950736999512 99.63632822036743,58.30950736999512 99.13789629936218,60.64998507499695 99.13789629936218,60.64998507499695 98.26592803001404,62.811338901519775 98.26592803001404,62.811338901519775 96.98624014854431,64.73382711410522 96.98624014854431,64.73382711410522 95.26514410972595,66.35788083076477 95.26514410972595,66.35788083076477 93.06895136833191,67.62376427650452 93.06895136833191,67.62376427650452 89.81394171714783,68.47732663154602 89.81394171714783,68.47732663154602 86.5627110004425,68.3231770992279 86.5627110004425,68.3231770992279 83.51837992668152,67.2656774520874 83.51837992668152,67.2656774520874 80.8836579322815,65.4093325138092 80.8836579322815,65.4093325138092 78.86191010475159,62.85883188247681 78.86191010475159,62.85883188247681 77.65551209449768,59.718525409698486 77.65551209449768,59.718525409698486 77.50753164291382,58.84729623794556 77.50753164291382,58.84729623794556 77.4232268333435,57.96505808830261 77.4232268333435,57.96505808830261 77.38633155822754,57.07632899284363 77.38633155822754,57.07632899284363 77.38025188446045,56.18504881858826 77.38025188446045,56.18504881858826 77.38871574401855,55.29574155807495 77.38871574401855,55.29574155807495 77.3952066898346,54.41243052482605 77.3952066898346,54.41243052482605 77.3952066898346,46.104902029037476 77.3952066898346,46.104902029037476 77.38559246063232,43.98183822631836 77.38559246063232,43.98183822631836 77.36423015594482,41.855981945991516 77.36423015594482,41.855981945991516 77.34294533729553,39.72897827625275 77.34294533729553,39.72897827625275 77.33317017555237,37.60197162628174 77.33317017555237,37.60197162628174 77.34672427177429,35.476937890052795 77.34672427177429,35.476937890052795 77.3952066898346,33.35502743721008 77.3952066898346,33.35502743721008 77.70711779594421,31.19564652442932 77.70711779594421,31.19564652442932 78.5780131816864,29.259106516838074 78.5780131816864,29.259106516838074 79.9151360988617,27.632832527160645 79.9151360988617,27.632832527160645 81.62530660629272,26.404336094856262 81.62530660629272,26.404336094856262 83.61566662788391,25.661537051200867 83.61566662788391,25.661537051200867 85.79345345497131,25.491860508918762 85.79345345497131,25.491860508918762 87.76039481163025,25.88314414024353 87.76039481163025,25.88314414024353 89.5216703414917,26.740732789039612 89.5216703414917,26.740732789039612 91.00981950759888,27.991250157356262 91.00981950759888,27.991250157356262 92.1566367149353,29.560744762420654 92.1566367149353,29.560744762420654 92.89467334747314,31.375840306282043 92.89467334747314,31.375840306282043 93.15572381019592,33.362916111946106 93.15572381019592,33.362916111946106 93.15572381019592,46.991002559661865 93.15572381019592,46.991002559661865 93.15572381019592,54.11268472671509 93.15572381019592,54.11268472671509 93.15974712371826,54.41572070121765 93.15974712371826,54.41572070121765 93.16418170928955,54.725658893585205 93.16418170928955,54.725658893585205 93.15769076347351,55.03724217414856 93.15769076347351,55.03724217414856 93.1286871433258,55.34496307373047 93.1286871433258,55.34496307373047 93.06615591049194,55.643802881240845 93.06615591049194,55.643802881240845 92.95851588249207,55.928272008895874 92.95851588249207,55.928272008895874 92.37347841262817,56.636399030685425 92.37347841262817,56.636399030685425 91.59772992134094,56.96293115615845 91.59772992134094,56.96293115615845 90.76396822929382,56.93861246109009 90.76396822929382,56.93861246109009 90.0043249130249,56.59383535385132 90.0043249130249,56.59383535385132 89.45149779319763,55.95933198928833 89.45149779319763,55.95933198928833 89.23794031143188,55.065834522247314 89.23794031143188,55.065834522247314 89.16127681732178,54.27061319351196 89.16127681732178,54.27061319351196 89.13975358009338,53.44465374946594 89.13975358009338,53.44465374946594 89.155113697052,52.603256702423096 89.155113697052,52.603256702423096 89.18872475624084,51.761192083358765 89.18872475624084,51.761192083358765 89.22249674797058,50.933676958084106 89.22249674797058,50.933676958084106 89.23794031143188,50.135743618011475 89.23794031143188,50.135743618011475 89.23794031143188,41.30364954471588 89.23794031143188,41.30364954471588 89.32446241378784,39.1440212726593 89.32446241378784,39.1440212726593 89.42651748657227,36.580291390419006 89.42651748657227,36.580291390419006 89.30860757827759,33.9680016040802 89.30860757827759,33.9680016040802 88.73449563980103,31.66203200817108 88.73449563980103,31.66203200817108 87.46886253356934,30.018094182014465 87.46886253356934,30.018094182014465 85.27546525001526,29.391232132911682 85.27546525001526,29.391232132911682 83.08387398719788,30.044305324554443 83.08387398719788,30.044305324554443 81.81856274604797,31.74116015434265 81.81856274604797,31.74116015434265 81.24428987503052,34.102100133895874 81.24428987503052,34.102100133895874 81.12539649009705,36.74709498882294 81.12539649009705,36.74709498882294 81.22678995132446,39.296525716781616 81.22678995132446,39.296525716781616 81.31298422813416,41.37069880962372 81.31298422813416,41.37069880962372 81.31298422813416,56.668442487716675 81.31298422813416,56.668442487716675 81.39843940734863,58.04147124290466 81.39843940734863,58.04147124290466 81.66342973709106,59.35542583465576 81.66342973709106,59.35542583465576 82.12119340896606,60.587042570114136 82.12119340896606,60.587042570114136 82.78453350067139,61.71307563781738 82.78453350067139,61.71307563781738 83.66685509681702,62.7105176448822 83.66685509681702,62.7105176448822 84.78114008903503,63.556110858917236 84.78114008903503,63.556110858917236 86.72014474868774,64.38255906105042 86.72014474868774,64.38255906105042 88.75018954277039,64.60769772529602 88.75018954277039,64.60769772529602 90.74523448944092,64.2719566822052 90.74523448944092,64.2719566822052 92.57840514183044,63.41543793678284 92.57840514183044,63.41543793678284 94.12357807159424,62.07880973815918 94.12357807159424,62.07880973815918 95.25396823883057,60.30225157737732 95.25396823883057,60.30225157737732 95.57335376739502,59.40300226211548 95.57335376739502,59.40300226211548 95.76554894447327,58.48148465156555 95.76554894447327,58.48148465156555 95.8616852760315,57.54418969154358 95.8616852760315,57.54418969154358 95.89208364486694,56.59728646278381 95.89208364486694,56.59728646278381 95.88797688484192,55.64725399017334 95.88797688484192,55.64725399017334 95.87976336479187,54.700350761413574 95.87976336479187,54.700350761413574 95.87976336479187,46.31262123584747 95.87976336479187,46.31262123584747 95.87976336479187,38.04715871810913 95.87976336479187,38.04715871810913 95.86036801338196,37.182340025901794 95.86036801338196,37.182340025901794 95.86110711097717,36.22294366359711 95.86110711097717,36.22294366359711 95.9708034992218,35.28154194355011 95.9708034992218,35.28154194355011 96.27770185470581,34.46996808052063 96.27770185470581,34.46996808052063 96.87087535858154,33.90095233917236 96.87087535858154,33.90095233917236" stroke="white" stroke-width="0.1" /></svg>