<?xml version="1.0" encoding="utf-8" ?>
<svg baseProfile="full" height="99.78589415550232" version="1.1" width="78.1510055065155" xmlns="http://www.w3.org/2000/svg" xmlns:ev="http://www.w3.org/2001/xml-events" xmlns:xlink="http://www.w3.org/1999/xlink"><defs><clipPath /></defs><polygon points="24.472618103027344,82.70503282546997 24.472618103027344,82.70503282546997 1.504550501704216,27.25340723991394 1.504550501704216,27.25340723991394 0.1507180859334767,22.142669558525085 0.1507180859334767,22.142669558525085 0.18412331119179726,17.033247649669647 0.18412331119179726,17.033247649669647 1.5040243975818157,12.170024961233139 1.5040243975818157,12.170024961233139 4.008759185671806,7.7972277998924255 4.008759185671806,7.7972277998924255 7.5974538922309875,4.159871861338615 7.5974538922309875,4.159871861338615 12.168972939252853,1.5024462714791298 12.168972939252853,1.5024462714791298 12.168841063976288,1.5023146755993366 12.168841063976288,1.5023146755993366 12.168709933757782,1.5023146755993366 12.168709933757782,1.5023146755993366 12.168972939252853,1.5024462714791298 12.168972939252853,1.5024462714791298 12.168972939252853,1.5024462714791298 12.168972939252853,1.5024462714791298 12.168972939252853,1.5024462714791298 12.168972939252853,1.5024462714791298 12.168972939252853,1.5024462714791298 12.168972939252853,1.5024462714791298 17.279052734375,0.14992898795753717 17.279052734375,0.14992898795753717 22.388210892677307,0.1845178660005331 22.388210892677307,0.1845178660005331 27.251827716827393,1.5054711140692234 27.251827716827393,1.5054711140692234 31.62449300289154,4.010863229632378 31.62449300289154,4.010863229632378 35.26184856891632,7.599557936191559 35.26184856891632,7.599557936191559 37.918880581855774,12.170024961233139 37.918880581855774,12.170024961233139 37.91861832141876,12.170024961233139 37.91861832141876,12.170024961233139 37.918487191200256,12.169893085956573 37.918487191200256,12.169893085956573 37.918880581855774,12.170024961233139 37.918880581855774,12.170024961233139 37.918880581855774,12.170024961233139 37.918880581855774,12.170024961233139 37.91901171207428,12.170024961233139 37.91901171207428,12.170024961233139 37.918880581855774,12.170024961233139 37.918880581855774,12.170024961233139 58.696407079696655,62.33258247375488 58.696407079696655,62.33258247375488 59.033745527267456,63.60355615615845 59.033745527267456,63.60355615615845 59.02599096298218,64.87400531768799 59.02599096298218,64.87400531768799 58.6979866027832,66.08343720436096 58.6979866027832,66.08343720436096 58.07486176490784,67.17068552970886 58.07486176490784,67.17068552970886 57.18225836753845,68.07512044906616 57.18225836753845,68.07512044906616 56.04503154754639,68.73586177825928 56.04503154754639,68.73586177825928 56.04490041732788,68.73573064804077 56.04490041732788,68.73573064804077 56.044769287109375,68.73573064804077 56.044769287109375,68.73573064804077 56.04503154754639,68.73586177825928 56.04503154754639,68.73586177825928 56.04503154754639,68.73573064804077 56.04503154754639,68.73573064804077 56.04503154754639,68.73586177825928 56.04503154754639,68.73586177825928 56.04503154754639,68.73586177825928 56.04503154754639,68.73586177825928 54.77536916732788,69.07215118408203 54.77536916732788,69.07215118408203 53.50531339645386,69.06334161758423 53.50531339645386,69.06334161758423 52.29601860046387,68.73533725738525 52.29601860046387,68.73533725738525 51.208508014678955,68.1124746799469 51.208508014678955,68.1124746799469 50.30406713485718,67.22013354301453 50.30406713485718,67.22013354301453 49.643853306770325,66.08343720436096 49.643853306770325,66.08343720436096 49.64372217655182,66.08343720436096 49.64372217655182,66.08343720436096 49.64359104633331,66.08330607414246 49.64359104633331,66.08330607414246 49.643853306770325,66.08343720436096 49.643853306770325,66.08343720436096 49.643853306770325,66.08343720436096 49.643853306770325,66.08343720436096 49.643853306770325,66.08343720436096 49.643853306770325,66.08343720436096 49.643853306770325,66.08343720436096 49.643853306770325,66.08343720436096 28.866326808929443,15.919826924800873 28.866326808929443,15.919826924800873 27.529197931289673,13.62210065126419 27.529197931289673,13.62210065126419 25.70006251335144,11.81795448064804 25.70006251335144,11.81795448064804 23.501762747764587,10.558419674634933 23.501762747764587,10.558419674634933 21.05647325515747,9.893734753131866 21.05647325515747,9.893734753131866 18.487295508384705,9.874796122312546 18.487295508384705,9.874796122312546 15.916670858860016,10.551843792200089 15.916670858860016,10.551843792200089 15.91653972864151,10.551843792200089 15.91653972864151,10.551843792200089 15.91653972864151,10.551712661981583 15.91653972864151,10.551712661981583 15.916670858860016,10.551843792200089 15.916670858860016,10.551843792200089 15.916670858860016,10.551843792200089 15.916670858860016,10.551843792200089 15.916670858860016,10.551843792200089 15.916670858860016,10.551843792200089 15.916670858860016,10.551843792200089 15.916670858860016,10.551843792200089 13.62091600894928,11.890552192926407 13.62091600894928,11.890552192926407 11.818086355924606,13.720342516899109 11.818086355924606,13.720342516899109 10.559208691120148,15.919564664363861 10.559208691120148,15.919564664363861 9.895181655883789,18.364854156970978 9.895181655883789,18.364854156970978 9.876637160778046,20.93416303396225 9.876637160778046,20.93416303396225 10.555000603199005,23.504656553268433 10.555000603199005,23.504656553268433 10.55486872792244,23.504656553268433 10.55486872792244,23.504656553268433 10.554737597703934,23.504523932933807 10.554737597703934,23.504523932933807 10.555000603199005,23.504656553268433 10.555000603199005,23.504656553268433 10.555000603199005,23.504656553268433 10.555000603199005,23.504656553268433 10.555000603199005,23.504656553268433 10.555000603199005,23.504656553268433 10.555000603199005,23.504656553268433 10.555000603199005,23.504656553268433 33.5230678319931,78.95733714103699 33.5230678319931,78.95733714103699 35.98203659057617,83.1778347492218 35.98203659057617,83.1778347492218 39.343470335006714,86.49100661277771 39.343470335006714,86.49100661277771 43.38313341140747,88.80411982536316 43.38313341140747,88.80411982536316 47.875216603279114,90.0238037109375 47.875216603279114,90.0238037109375 52.5953471660614,90.05747437477112 52.5953471660614,90.05747437477112 57.318115234375,88.8116180896759 57.318115234375,88.8116180896759 57.317984104156494,88.8116180896759 57.317984104156494,88.8116180896759 57.317715883255005,88.8114869594574 57.317715883255005,88.8114869594574 57.318115234375,88.8116180896759 57.318115234375,88.8116180896759 57.318115234375,88.8116180896759 57.318115234375,88.8116180896759 57.318115234375,88.8116180896759 57.318115234375,88.8116180896759 57.318115234375,88.8116180896759 57.318115234375,88.8116180896759 61.539798974990845,86.35238409042358 61.539798974990845,86.35238409042358 64.85454440116882,82.99081921577454 64.85454440116882,82.99081921577454 67.16897487640381,78.9515495300293 67.16897487640381,78.9515495300293 68.38971376419067,74.45946931838989 68.38971376419067,74.45946931838989 68.42337846755981,69.73959803581238 68.42337846755981,69.73959803581238 67.17659831047058,65.01657366752625 67.17659831047058,65.01657366752625 67.17646718025208,65.01644253730774 67.17646718025208,65.01644253730774 67.17646718025208,65.01644253730774 67.17646718025208,65.01644253730774 67.17659831047058,65.01657366752625 67.17659831047058,65.01657366752625 67.17659831047058,65.01657366752625 67.17659831047058,65.01657366752625 67.17659831047058,65.01657366752625 67.17659831047058,65.01657366752625 67.17659831047058,65.01657366752625 67.17659831047058,65.01657366752625 46.39697074890137,14.849808812141418 46.39697074890137,14.849808812141418 46.060287952423096,13.579751551151276 46.060287952423096,13.579751551151276 46.06896638870239,12.309958785772324 46.06896638870239,12.309958785772324 46.39802277088165,11.101583391427994 46.39802277088165,11.101583391427994 47.02141284942627,10.015124827623367 47.02141284942627,10.015124827623367 47.914016246795654,9.111736714839935 47.914016246795654,9.111736714839935 49.05045032501221,8.451785892248154 49.05045032501221,8.451785892248154 49.0503191947937,8.451785892248154 49.0503191947937,8.451785892248154 49.050188064575195,8.451522886753082 49.050188064575195,8.451522886753082 49.05045032501221,8.451785892248154 49.05045032501221,8.451785892248154 49.05045032501221,8.451785892248154 49.05045032501221,8.451785892248154 49.05045032501221,8.45191776752472 49.05045032501221,8.45191776752472 49.05045032501221,8.451785892248154 49.05045032501221,8.451785892248154 50.31958818435669,8.115234971046448 50.31958818435669,8.115234971046448 51.588720083236694,8.123257756233215 51.588720083236694,8.123257756233215 52.797359228134155,8.451128751039505 52.797359228134155,8.451128751039505 53.883951902389526,9.073333442211151 53.883951902389526,9.073333442211151 54.787468910217285,9.965016692876816 54.787468910217285,9.965016692876816 55.44741749763489,11.101057380437851 55.44741749763489,11.101057380437851 55.44728636741638,11.101057380437851 55.44728636741638,11.101057380437851 55.44728636741638,11.100926250219345 55.44728636741638,11.100926250219345 55.44741749763489,11.101057380437851 55.44741749763489,11.101057380437851 55.44741749763489,11.101057380437851 55.44741749763489,11.101057380437851 55.44741749763489,11.101057380437851 55.44741749763489,11.101057380437851 55.44741749763489,11.101057380437851 55.44741749763489,11.101057380437851 76.22705101966858,61.26782298088074 76.22705101966858,61.26782298088074 78.1510055065155,68.52872371673584 78.1510055065155,68.52872371673584 78.10248136520386,75.78949332237244 78.10248136520386,75.78949332237244 76.22600197792053,82.70174860954285 76.22600197792053,82.70174860954285 72.66505360603333,88.91683220863342 72.66505360603333,88.91683220863342 67.56431460380554,94.08701062202454 67.56431460380554,94.08701062202454 61.067914962768555,97.86311984062195 61.067914962768555,97.86311984062195 61.06778383255005,97.86298871040344 61.06778383255005,97.86298871040344 61.06752157211304,97.86285758018494 61.06752157211304,97.86285758018494 61.067914962768555,97.86311984062195 61.067914962768555,97.86311984062195 61.067914962768555,97.86311984062195 61.067914962768555,97.86311984062195 61.067914962768555,97.86311984062195 61.067914962768555,97.86311984062195 61.067914962768555,97.86311984062195 61.067914962768555,97.86311984062195 53.80517244338989,99.78589415550232 53.80517244338989,99.78589415550232 46.54347896575928,99.73657131195068 46.54347896575928,99.73657131195068 39.631226658821106,97.85982966423035 39.631226658821106,97.85982966423035 33.416539430618286,94.29928064346313 33.416539430618286,94.29928064346313 28.24741005897522,89.1997218132019 28.24741005897522,89.1997218132019 24.472618103027344,82.70503282546997 24.472618103027344,82.70503282546997 24.472486972808838,82.70490169525146 24.472486972808838,82.70490169525146 24.472355842590332,82.70490169525146 24.472355842590332,82.70490169525146 24.472618103027344,82.70503282546997 24.472618103027344,82.70503282546997 24.472618103027344,82.70503282546997 24.472618103027344,82.70503282546997 24.472618103027344,82.70503282546997 24.472618103027344,82.70503282546997" stroke="white" stroke-width="0.1" /></svg>