<?xml version="1.0" encoding="utf-8" ?>
<svg baseProfile="full" height="43.21005344390869" version="1.1" width="100.0" xmlns="http://www.w3.org/2000/svg" xmlns:ev="http://www.w3.org/2001/xml-events" xmlns:xlink="http://www.w3.org/1999/xlink"><defs><clipPath /></defs><polygon points="78.39497327804565,0.0 78.39497327804565,0.0 84.13817286491394,0.7718139793723822 84.13817286491394,0.7718139793723822 89.29909467697144,2.9499726369976997 89.29909467697144,2.9499726369976997 93.67162585258484,6.328370422124863 93.67162585258484,6.328370422124863 97.04930782318115,10.700947046279907 97.04930782318115,10.700947046279907 99.22782182693481,15.861867368221283 99.22782182693481,15.861867368221283 100.0,21.605026721954346 100.0,21.605026721954346 99.22818541526794,27.348139882087708 99.22818541526794,27.348139882087708 97.05002307891846,32.50901699066162 97.05002307891846,32.50901699066162 93.67162585258484,36.88168227672577 93.67162585258484,36.88168227672577 89.29837346076965,40.260034799575806 89.29837346076965,40.260034799575806 84.13781523704529,42.43814945220947 84.13781523704529,42.43814945220947 78.39497327804565,43.21005344390869 78.39497327804565,43.21005344390869 74.4267225265503,42.84594655036926 74.4267225265503,42.84594655036926 70.69917321205139,41.79740250110626 70.69917321205139,41.79740250110626 67.27789640426636,40.12964367866516 67.27789640426636,40.12964367866516 64.22666907310486,37.90820240974426 64.22666907310486,37.90820240974426 61.61180138587952,35.19851863384247 61.61180138587952,35.19851863384247 59.49670076370239,32.06595182418823 59.49670076370239,32.06595182418823 8.89567881822586,32.06595182418823 8.89567881822586,32.06595182418823 6.531232595443726,31.748148798942566 6.531232595443726,31.748148798942566 4.406402260065079,30.85111975669861 4.406402260065079,30.85111975669861 2.6058631017804146,29.45972979068756 2.6058631017804146,29.45972979068756 1.2146522291004658,27.658694982528687 1.2146522291004658,27.658694982528687 0.3178057726472616,25.533008575439453 0.3178057726472616,25.533008575439453 0.0,23.16739112138748 0.0,23.16739112138748 0.3178057726472616,20.802946388721466 0.3178057726472616,20.802946388721466 1.2146522291004658,18.678024411201477 1.2146522291004658,18.678024411201477 2.6058631017804146,16.87757670879364 2.6058631017804146,16.87757670879364 4.4060420244932175,15.486365556716919 4.4060420244932175,15.486365556716919 6.531232595443726,14.589473605155945 6.531232595443726,14.589473605155945 8.89567881822586,14.271712303161621 8.89567881822586,14.271712303161621 58.09287428855896,14.271712303161621 58.09287428855896,14.271712303161621 59.99142527580261,10.326975584030151 59.99142527580261,10.326975584030151 62.61386275291443,6.875476986169815 62.61386275291443,6.875476986169815 65.8636212348938,4.01725210249424 65.8636212348938,4.01725210249424 69.64198350906372,1.851930283010006 69.64198350906372,1.851930283010006 73.85164499282837,0.47959121875464916 73.85164499282837,0.47959121875464916" stroke="white" stroke-width="0.1" /></svg>