<?xml version="1.0" encoding="utf-8" ?>
<svg baseProfile="full" height="100.00076293945312" version="1.1" width="76.278156042099" xmlns="http://www.w3.org/2000/svg" xmlns:ev="http://www.w3.org/2001/xml-events" xmlns:xlink="http://www.w3.org/1999/xlink"><defs><clipPath /></defs><polygon points="67.86553263664246,8.417005091905594 67.86553263664246,8.417005091905594 72.53925204277039,14.552834630012512 72.53925204277039,14.552834630012512 75.34343004226685,21.457217633724213 75.34343004226685,21.457217633724213 76.278156042099,28.744620084762573 76.278156042099,28.744620084762573 75.34295320510864,36.02946102619171 75.34295320510864,36.02946102619171 72.53839373588562,42.92621612548828 72.53839373588562,42.92621612548828 67.8640067577362,49.04934763908386 67.8640067577362,49.04934763908386 20.444349944591522,96.4903712272644 20.444349944591522,96.4903712272644 17.88937747478485,98.44098091125488 17.88937747478485,98.44098091125488 15.012912452220917,99.61117506027222 15.012912452220917,99.61117506027222 11.975844949483871,100.00076293945312 11.975844949483871,100.00076293945312 8.938299119472504,99.60955381393433 8.938299119472504,99.60955381393433 6.061262264847755,98.43745231628418 6.061262264847755,98.43745231628418 3.505050763487816,96.4842677116394 3.505050763487816,96.4842677116394 1.558160688728094,93.93182396888733 1.558160688728094,93.93182396888733 0.3897785907611251,91.05943441390991 0.3897785907611251,91.05943441390991 0.00019074068404734135,88.02682757377625 0.00019074068404734135,88.02682757377625 0.3893017303198576,84.99369025230408 0.3893017303198576,84.99369025230408 1.557588391005993,82.11977481842041 1.557588391005993,82.11977481842041 3.505050763487816,79.56480383872986 3.505050763487816,79.56480383872986 50.92013478279114,32.126834988594055 50.92013478279114,32.126834988594055 51.69721245765686,31.10639750957489 51.69721245765686,31.10639750957489 52.16357111930847,29.956063628196716 52.16357111930847,29.956063628196716 52.31940746307373,28.74080538749695 52.31940746307373,28.74080538749695 52.164238691329956,27.52555012702942 52.164238691329956,27.52555012702942 51.69835686683655,26.375216245651245 51.69835686683655,26.375216245651245 50.92166066169739,25.35477876663208 50.92166066169739,25.35477876663208 49.90319907665253,24.572740495204926 49.90319907665253,24.572740495204926 48.75522553920746,24.103519320487976 48.75522553920746,24.103519320487976 47.542306780815125,23.947110772132874 47.542306780815125,23.947110772132874 46.32871747016907,24.103519320487976 46.32871747016907,24.103519320487976 45.178744196891785,24.572740495204926 45.178744196891785,24.572740495204926 44.157230854034424,25.35477876663208 44.157230854034424,25.35477876663208 38.511306047439575,30.99459707736969 38.511306047439575,30.99459707736969 35.95614433288574,32.94525444507599 35.95614433288574,32.94525444507599 33.079299330711365,34.115615487098694 33.079299330711365,34.115615487098694 30.041658878326416,34.505751729011536 30.041658878326416,34.505751729011536 27.003923058509827,34.115615487098694 27.003923058509827,34.115615487098694 24.12717044353485,32.94520676136017 24.12717044353485,32.94520676136017 21.572008728981018,30.99459707736969 21.572008728981018,30.99459707736969 19.62464153766632,28.437265753746033 19.62464153766632,28.437265753746033 18.45625936985016,25.560158491134644 18.45625936985016,25.560158491134644 18.06676685810089,22.524185478687286 18.06676685810089,22.524185478687286 18.455687165260315,19.490240514278412 18.455687165260315,19.490240514278412 19.62321102619171,16.619235277175903 19.62321102619171,16.619235277175903 21.568956971168518,14.072084426879883 21.568956971168518,14.072084426879883 27.216407656669617,8.420056849718094 27.216407656669617,8.420056849718094 33.34547579288483,3.7418197840452194 33.34547579288483,3.7418197840452194 40.24742841720581,0.9347723796963692 40.24742841720581,0.9347723796963692 47.536394000053406,-0.001144444104284048 47.536394000053406,-0.001144444104284048 54.82631325721741,0.933985598385334 54.82631325721741,0.933985598385334 61.73141002655029,3.740043193101883 61.73141002655029,3.740043193101883" stroke="white" stroke-width="0.1" /><polygon points="35.83635985851288,56.25171661376953 35.83635985851288,56.25171661376953 21.855831146240234,70.24750709533691 21.855831146240234,70.24750709533691 35.87450683116913,71.01962566375732 35.87450683116913,71.01962566375732 36.019280552864075,71.04241847991943 36.019280552864075,71.04241847991943 36.16099953651428,71.0634708404541 36.16099953651428,71.0634708404541 36.300623416900635,71.08523845672607 36.300623416900635,71.08523845672607 36.43881380558014,71.11003398895264 36.43881380558014,71.11003398895264 36.57691180706024,71.14026546478271 36.57691180706024,71.14026546478271 36.71529293060303,71.17831707000732 36.71529293060303,71.17831707000732 50.69124698638916,57.21305012702942 50.69124698638916,57.21305012702942 36.67409420013428,56.41651749610901 36.67409420013428,56.41651749610901 36.528462171554565,56.40178322792053 36.528462171554565,56.40178322792053 36.384645104408264,56.38192296028137 36.384645104408264,56.38192296028137 36.24320924282074,56.35700821876526 36.24320924282074,56.35700821876526 36.10416054725647,56.326985359191895 36.10416054725647,56.326985359191895 35.96844673156738,56.291866302490234 35.96844673156738,56.291866302490234" stroke="white" stroke-width="0.1" /><polygon points="63.34421634674072,44.55397129058838 63.34421634674072,44.55397129058838 65.19230604171753,42.451199889183044 65.19230604171753,42.451199889183044 66.7310118675232,40.185293555259705 66.7310118675232,40.185293555259705 67.96166896820068,37.786492705345154 67.96166896820068,37.786492705345154 68.88418793678284,35.28492748737335 68.88418793678284,35.28492748737335 69.49999332427979,32.710787653923035 69.49999332427979,32.710787653923035 69.80956196784973,30.09430170059204 69.80956196784973,30.09430170059204 69.6404755115509,30.285662412643433 69.6404755115509,30.285662412643433 69.47147846221924,30.47769069671631 69.47147846221924,30.47769069671631 69.30219531059265,30.669575929641724 69.30219531059265,30.669575929641724 69.13167238235474,30.860412120819092 69.13167238235474,30.860412120819092 68.95971894264221,31.049412488937378 68.95971894264221,31.049412488937378 68.7856674194336,31.235694885253906 68.7856674194336,31.235694885253906 66.84774160385132,32.9502135515213 66.84774160385132,32.9502135515213 64.76991176605225,34.374117851257324 64.76991176605225,34.374117851257324 62.58106231689453,35.48997342586517 62.58106231689453,35.48997342586517 60.30943989753723,36.28025949001312 60.30943989753723,36.28025949001312 57.98421502113342,36.72759532928467 57.98421502113342,36.72759532928467 55.63371777534485,36.814478039741516 55.63371777534485,36.814478039741516 55.58059811592102,36.81059181690216 55.58059811592102,36.81059181690216 55.527663230895996,36.80463135242462 55.527663230895996,36.80463135242462 55.47502040863037,36.796167492866516 55.47502040863037,36.796167492866516 55.422282218933105,36.784628033638 55.422282218933105,36.784628033638 55.36934733390808,36.76955997943878 55.36934733390808,36.76955997943878 55.316323041915894,36.75038814544678 55.316323041915894,36.75038814544678 42.68166124820709,49.40641522407532 42.68166124820709,49.40641522407532 56.694233417510986,50.20905137062073 56.694233417510986,50.20905137062073 56.84129595756531,50.21911263465881 56.84129595756531,50.21911263465881 56.986260414123535,50.23651719093323 56.986260414123535,50.23651719093323 57.12893009185791,50.260549783706665 57.12893009185791,50.260549783706665 57.268744707107544,50.29039978981018 57.268744707107544,50.29039978981018 57.40569829940796,50.32540559768677 57.40569829940796,50.32540559768677 57.539600133895874,50.364696979522705 57.539600133895874,50.364696979522705" stroke="white" stroke-width="0.1" /><polygon points="33.99304151535034,26.474806666374207 33.99304151535034,26.474806666374207 39.63591456413269,20.859400928020477 39.63591456413269,20.859400928020477 40.54069221019745,20.04322111606598 40.54069221019745,20.04322111606598 41.50736629962921,19.348162412643433 41.50736629962921,19.348162412643433 42.52677857875824,18.772315979003906 42.52677857875824,18.772315979003906 43.58939528465271,18.31369251012802 43.58939528465271,18.31369251012802 44.6857750415802,17.970383167266846 44.6857750415802,17.970383167266846 45.80675661563873,17.740409076213837 45.80675661563873,17.740409076213837 45.55087685585022,17.28382408618927 45.55087685585022,17.28382408618927 45.26486098766327,16.82824045419693 45.26486098766327,16.82824045419693 44.94861364364624,16.376231610774994 44.94861364364624,16.376231610774994 44.60127651691437,15.930315852165222 44.60127651691437,15.930315852165222 44.22275125980377,15.493054687976837 44.22275125980377,15.493054687976837 43.81237328052521,15.06698876619339 43.81237328052521,15.06698876619339 42.80831217765808,14.161649346351624 42.80831217765808,14.161649346351624 41.66615903377533,13.327766954898834 41.66615903377533,13.327766954898834 40.39010405540466,12.582400441169739 40.39010405540466,12.582400441169739 38.98396193981171,11.942560225725174 38.98396193981171,11.942560225725174 37.45202720165253,11.42531931400299 37.45202720165253,11.42531931400299 35.79821288585663,11.047700047492981 35.79821288585663,11.047700047492981 35.55101156234741,10.983826220035553 35.55101156234741,10.983826220035553 35.27968227863312,10.887645184993744 35.27968227863312,10.887645184993744 35.01522243022919,10.778755694627762 35.01522243022919,10.778755694627762 34.78814363479614,10.67672148346901 34.78814363479614,10.67672148346901 34.629449248313904,10.60115247964859 34.629449248313904,10.60115247964859 34.569841623306274,10.571611672639847 34.569841623306274,10.571611672639847 34.421443939208984,10.68529337644577 34.421443939208984,10.68529337644577 34.031760692596436,10.987688601016998 34.031760692596436,10.987688601016998 33.48471820354462,11.420789361000061 33.48471820354462,11.420789361000061 32.86357223987579,11.92663311958313 32.86357223987579,11.92663311958313 32.252341508865356,12.447212636470795 32.252341508865356,12.447212636470795 31.73467218875885,12.924589216709137 31.73467218875885,12.924589216709137 26.082643866539,18.573564291000366 26.082643866539,18.573564291000366 25.177770853042603,19.77408677339554 25.177770853042603,19.77408677339554 24.63454008102417,21.119822561740875 24.63454008102417,21.119822561740875 24.453146755695343,22.53677546977997 24.453146755695343,22.53677546977997 24.6332049369812,23.9509254693985 24.6332049369812,23.9509254693985 25.175386667251587,25.288257002830505 25.175386667251587,25.288257002830505 26.0795921087265,26.474806666374207 26.0795921087265,26.474806666374207 27.27343738079071,27.392911911010742 27.27343738079071,27.392911911010742 28.617778420448303,27.943772077560425 28.617778420448303,27.943772077560425 30.03746271133423,28.127384185791016 30.03746271133423,28.127384185791016 31.456667184829712,27.943748235702515 31.456667184829712,27.943748235702515 32.80034065246582,27.392888069152832 32.80034065246582,27.392888069152832" stroke="white" stroke-width="0.1" /><polygon points="53.96740436553955,19.611194729804993 53.96740436553955,19.611194729804993 54.22452688217163,19.799144566059113 54.22452688217163,19.799144566059113 54.47668433189392,19.991768896579742 54.47668433189392,19.991768896579742 54.72369194030762,20.190663635730743 54.72369194030762,20.190663635730743 54.964977502822876,20.397427678108215 54.964977502822876,20.397427678108215 55.20102381706238,20.61370313167572 55.20102381706238,20.61370313167572 55.43076992034912,20.841090381145477 55.43076992034912,20.841090381145477 56.46830201148987,22.03679531812668 56.46830201148987,22.03679531812668 57.307273149490356,23.335453867912292 57.307273149490356,23.335453867912292 57.94854760169983,24.715033173561096 57.94854760169983,24.715033173561096 58.39220881462097,26.153337955474854 58.39220881462097,26.153337955474854 58.63931179046631,27.62826383113861 58.63931179046631,27.62826383113861 58.69014263153076,29.117709398269653 58.69014263153076,29.117709398269653 59.51710343360901,28.818628191947937 59.51710343360901,28.818628191947937 60.3509247303009,28.434094786643982 60.3509247303009,28.434094786643982 61.184459924697876,27.964109182357788 61.184459924697876,27.964109182357788 62.009793519973755,27.408674359321594 62.009793519973755,27.408674359321594 62.81958818435669,26.767784357070923 62.81958818435669,26.767784357070923 63.60667943954468,26.04144513607025 63.60667943954468,26.04144513607025 64.29772973060608,25.303825736045837 64.29772973060608,25.303825736045837 64.95397686958313,24.49234426021576 64.95397686958313,24.49234426021576 65.57035446166992,23.607973754405975 65.57035446166992,23.607973754405975 66.1411464214325,22.65162467956543 66.1411464214325,22.65162467956543 66.66138768196106,21.624235808849335 66.66138768196106,21.624235808849335 67.12546348571777,20.52674889564514 67.12546348571777,20.52674889564514 67.21453666687012,20.323634147644043 67.21453666687012,20.323634147644043 67.31496453285217,20.12661099433899 67.31496453285217,20.12661099433899 67.42644906044006,19.93621587753296 67.42644906044006,19.93621587753296 67.54804849624634,19.75291520357132 67.54804849624634,19.75291520357132 67.6799476146698,19.57729011774063 67.6799476146698,19.57729011774063 67.8212821483612,19.409772753715515 67.8212821483612,19.409772753715515 67.24982261657715,18.250784277915955 67.24982261657715,18.250784277915955 66.61036610603333,17.11737960577011 66.61036610603333,17.11737960577011 65.90166687965393,16.013824939727783 65.90166687965393,16.013824939727783 65.12210965156555,14.944329857826233 65.12210965156555,14.944329857826233 64.2705500125885,13.913173973560333 64.2705500125885,13.913173973560333 63.34574222564697,12.924589216709137 63.34574222564697,12.924589216709137 60.65954566001892,10.63704788684845 60.65954566001892,10.63704788684845 57.72538185119629,8.845837414264679 57.72538185119629,8.845837414264679 54.60314750671387,7.5498975813388824 54.60314750671387,7.5498975813388824 51.35282874107361,6.748071312904358 51.35282874107361,6.748071312904358 48.034512996673584,6.439334154129028 48.034512996673584,6.439334154129028 44.708091020584106,6.622516363859177 44.708091020584106,6.622516363859177 45.50214409828186,7.097151130437851 45.50214409828186,7.097151130437851 46.26520276069641,7.60374590754509 46.26520276069641,7.60374590754509 46.99735939502716,8.13966765999794 46.99735939502716,8.13966765999794 47.69871234893799,8.702293038368225 47.69871234893799,8.702293038368225 48.369356989860535,9.288987517356873 48.369356989860535,9.288987517356873 49.00967478752136,9.897152334451675 49.00967478752136,9.897152334451675 50.25959610939026,11.269472539424896 50.25959610939026,11.269472539424896 51.35330557823181,12.746568024158478 51.35330557823181,12.746568024158478 52.2810697555542,14.32386189699173 52.2810697555542,14.32386189699173 53.032588958740234,15.996778011322021 53.032588958740234,15.996778011322021 53.598034381866455,17.76074767112732 53.598034381866455,17.76074767112732" stroke="white" stroke-width="0.1" /><polygon points="8.014160394668579,91.96752905845642 8.014160394668579,91.96752905845642 9.20829251408577,92.87927150726318 9.20829251408577,92.87927150726318 10.553300380706787,93.42631101608276 10.553300380706787,93.42631101608276 11.973555386066437,93.60865950584412 11.973555386066437,93.60865950584412 13.39285671710968,93.42628717422485 13.39285671710968,93.42628717422485 14.735671877861023,92.87927150726318 14.735671877861023,92.87927150726318 15.92608392238617,91.96752905845642 15.92608392238617,91.96752905845642 29.866939783096313,78.02361845970154 29.866939783096313,78.02361845970154 15.83757996559143,77.24539637565613 15.83757996559143,77.24539637565613 15.697862207889557,77.22980380058289 15.697862207889557,77.22980380058289 15.557955205440521,77.21025347709656 15.557955205440521,77.21025347709656 15.41852355003357,77.18626856803894 15.41852355003357,77.18626856803894 15.279854834079742,77.15744376182556 15.279854834079742,77.15744376182556 15.142711997032166,77.12337374687195 15.142711997032166,77.12337374687195 15.007476508617401,77.08365321159363 15.007476508617401,77.08365321159363 8.014160394668579,84.06323194503784 8.014160394668579,84.06323194503784 7.111193984746933,85.25614738464355 7.111193984746933,85.25614738464355 6.569204479455948,86.59941554069519 6.569204479455948,86.59941554069519 6.388477981090546,88.01767230033875 6.388477981090546,88.01767230033875 6.568918377161026,89.43535089492798 6.568918377161026,89.43535089492798 7.11071714758873,90.7771646976471 7.11071714758873,90.7771646976471" stroke="white" stroke-width="0.1" /></svg>