<?xml version="1.0" encoding="utf-8" ?>
<svg baseProfile="full" height="53.33333611488342" version="1.1" width="100.0" xmlns="http://www.w3.org/2000/svg" xmlns:ev="http://www.w3.org/2001/xml-events" xmlns:xlink="http://www.w3.org/1999/xlink"><defs><clipPath /></defs><polygon points="57.66666531562805,53.33333611488342 57.66666531562805,53.33333611488342 57.20784664154053,53.276002407073975 57.20784664154053,53.276002407073975 56.81787133216858,53.1089723110199 56.81787133216858,53.1089723110199 56.50293231010437,52.839845418930054 56.50293231010437,52.839845418930054 56.269776821136475,52.4760365486145 56.269776821136475,52.4760365486145 56.12516403198242,52.02518701553345 56.12516403198242,52.02518701553345 56.075519323349,51.494795083999634 56.075519323349,51.494795083999634 56.08968138694763,51.18994116783142 56.08968138694763,51.18994116783142 56.131839752197266,50.861287117004395 56.131839752197266,50.861287117004395 56.202149391174316,50.509113073349 56.202149391174316,50.509113073349 56.30037784576416,50.133466720581055 56.30037784576416,50.133466720581055 56.42651319503784,49.7344970703125 56.42651319503784,49.7344970703125 56.58072829246521,49.31250214576721 56.58072829246521,49.31250214576721 47.87549078464508,49.37939643859863 47.87549078464508,49.37939643859863 41.57731235027313,49.47318732738495 41.57731235027313,49.47318732738495 37.299805879592896,49.582359194755554 37.299805879592896,49.582359194755554 34.65600609779358,49.69519078731537 34.65600609779358,49.69519078731537 33.25968384742737,49.80009198188782 33.25968384742737,49.80009198188782 32.723960280418396,49.88541901111603 32.723960280418396,49.88541901111603 32.65079855918884,49.92513060569763 32.65079855918884,49.92513060569763 32.57690370082855,49.96594488620758 32.57690370082855,49.96594488620758 32.50227868556976,50.007814168930054 32.50227868556976,50.007814168930054 32.42635130882263,50.05049705505371 32.42635130882263,50.05049705505371 32.34936594963074,50.09395480155945 32.34936594963074,50.09395480155945 32.27083384990692,50.138020515441895 32.27083384990692,50.138020515441895 31.64762556552887,50.48103928565979 31.64762556552887,50.48103928565979 30.896320939064026,50.83276629447937 30.896320939064026,50.83276629447937 29.959961771965027,51.16146206855774 29.959961771965027,51.16146206855774 28.78149449825287,51.435428857803345 28.78149449825287,51.435428857803345 27.304363250732422,51.62312984466553 27.304363250732422,51.62312984466553 25.47135353088379,51.69271230697632 25.47135353088379,51.69271230697632 23.31608086824417,51.687419414520264 23.31608086824417,51.687419414520264 21.38403356075287,51.650434732437134 21.38403356075287,51.650434732437134 19.64062601327896,51.550132036209106 19.64062601327896,51.550132036209106 18.05061846971512,51.35469436645508 18.05061846971512,51.35469436645508 16.579753160476685,51.032596826553345 16.579753160476685,51.032596826553345 15.192708373069763,50.55208206176758 15.192708373069763,50.55208206176758 13.81542980670929,50.071656703948975 13.81542980670929,50.071656703948975 12.255371361970901,49.67545568943024 12.255371361970901,49.67545568943024 10.63932329416275,49.364909529685974 10.63932329416275,49.364909529685974 9.094320237636566,49.14135932922363 9.094320237636566,49.14135932922363 7.747802883386612,49.006226658821106 7.747802883386612,49.006226658821106 6.726562976837158,48.960939049720764 6.726562976837158,48.960939049720764 6.2116701155900955,48.946574330329895 6.2116701155900955,48.946574330329895 5.573323741555214,48.845866322517395 5.573323741555214,48.845866322517395 4.8473309725522995,48.572590947151184 4.8473309725522995,48.572590947151184 4.068766534328461,48.04040789604187 4.068766534328461,48.04040789604187 3.273763135075569,47.16300666332245 3.273763135075569,47.16300666332245 2.497395873069763,45.85416913032532 2.497395873069763,45.85416913032532 1.7373047769069672,43.894532322883606 1.7373047769069672,43.894532322883606 1.1137695983052254,41.43286347389221 1.1137695983052254,41.43286347389221 0.6276041734963655,38.47428560256958 0.6276041734963655,38.47428560256958 0.27929688803851604,35.023683309555054 0.27929688803851604,35.023683309555054 0.06990560214035213,31.086182594299316 0.06990560214035213,31.086182594299316 0.0,26.66666805744171 0.0,26.66666805744171 0.06998698227107525,22.247152030467987 0.06998698227107525,22.247152030467987 0.27929688803851604,18.309611082077026 0.27929688803851604,18.309611082077026 0.6276041734963655,14.859050512313843 0.6276041734963655,14.859050512313843 1.113688200712204,11.900431662797928 1.113688200712204,11.900431662797928 1.7372233793139458,9.43884328007698 1.7372233793139458,9.43884328007698 2.497395873069763,7.4791669845581055 2.497395873069763,7.4791669845581055 3.2738443464040756,6.170329079031944 3.2738443464040756,6.170329079031944 4.068928956985474,5.2928876131772995 4.068928956985474,5.2928876131772995 4.8473309725522995,4.7607421875 4.8473309725522995,4.7607421875 5.573323741555214,4.4874269515275955 5.573323741555214,4.4874269515275955 6.211588531732559,4.386759549379349 6.211588531732559,4.386759549379349 6.726562976837158,4.372395947575569 6.726562976837158,4.372395947575569 7.747966051101685,4.327066987752914 7.747966051101685,4.327066987752914 9.094482660293579,4.191813245415688 9.094482660293579,4.191813245415688 10.63932329416275,3.968099132180214 10.63932329416275,3.968099132180214 12.255126982927322,3.657063841819763 12.255126982927322,3.657063841819763 13.815267384052277,3.2601725310087204 13.815267384052277,3.2601725310087204 15.192708373069763,2.7786459773778915 15.192708373069763,2.7786459773778915 16.579753160476685,2.298136427998543 16.579753160476685,2.298136427998543 18.05078238248825,1.9759928807616234 18.05078238248825,1.9759928807616234 19.64062601327896,1.780598983168602 19.64062601327896,1.780598983168602 21.383871138095856,1.6802165657281876 21.383871138095856,1.6802165657281876 23.315918445587158,1.643269881606102 23.315918445587158,1.643269881606102 25.47135353088379,1.6380209475755692 25.47135353088379,1.6380209475755692 27.30444371700287,1.7078043892979622 27.30444371700287,1.7078043892979622 28.781658411026,1.8959147855639458 28.781658411026,1.8959147855639458 29.959961771965027,2.1705729886889458 29.959961771965027,2.1705729886889458 30.896160006523132,2.4998780339956284 30.896160006523132,2.4998780339956284 31.647542119026184,2.8520507737994194 31.647542119026184,2.8520507737994194 32.27083384990692,3.1953126192092896 32.27083384990692,3.1953126192092896 32.349446415901184,3.239339217543602 32.349446415901184,3.239339217543602 32.426515221595764,3.28267440199852 32.426515221595764,3.28267440199852 32.50227868556976,3.325195237994194 32.50227868556976,3.325195237994194 32.57674276828766,3.3665772527456284 32.57674276828766,3.3665772527456284 32.650718092918396,3.4066975116729736 32.650718092918396,3.4066975116729736 32.723960280418396,3.4453127533197403 32.723960280418396,3.4453127533197403 33.25960338115692,3.531738370656967 33.25960338115692,3.531738370656967 34.655600786209106,3.6372479051351547 34.655600786209106,3.6372479051351547 37.29882836341858,3.7503257393836975 37.29882836341858,3.7503257393836975 41.57609045505524,3.859212249517441 41.57609045505524,3.859212249517441 47.87443280220032,3.952474147081375 47.87443280220032,3.952474147081375 56.58072829246521,4.018229246139526 56.58072829246521,4.018229246139526 56.42675757408142,3.5970866680145264 56.42675757408142,3.5970866680145264 56.30045533180237,3.1983643770217896 56.30045533180237,3.1983643770217896 56.202149391174316,2.8225911781191826 56.202149391174316,2.8225911781191826 56.13175630569458,2.4699708446860313 56.13175630569458,2.4699708446860313 56.089603900909424,2.1409912034869194 56.089603900909424,2.1409912034869194 56.075519323349,1.835937611758709 56.075519323349,1.835937611758709 56.12516403198242,1.3065999373793602 56.12516403198242,1.3065999373793602 56.26986026763916,0.8564860559999943 56.26986026763916,0.8564860559999943 56.50293231010437,0.4931640811264515 56.50293231010437,0.4931640811264515 56.81779384613037,0.22420247551053762 56.81779384613037,0.22420247551053762 57.20776319503784,0.057291670236736536 57.20776319503784,0.057291670236736536 57.66666531562805,0.0 57.66666531562805,0.0 58.537596464157104,0.1796468161046505 58.537596464157104,0.1796468161046505 59.29411053657532,0.6645508110523224 59.29411053657532,0.6645508110523224 59.94075536727905,1.3736979104578495 59.94075536727905,1.3736979104578495 60.48177480697632,2.2260336205363274 60.48177480697632,2.2260336205363274 60.92195510864258,3.140665590763092 60.92195510864258,3.140665590763092 61.265623569488525,4.03645858168602 61.265623569488525,4.03645858168602 62.55713105201721,4.039754346013069 62.55713105201721,4.039754346013069 63.724613189697266,4.041951522231102 63.724613189697266,4.041951522231102 64.75130319595337,4.0432944893836975 64.75130319595337,4.0432944893836975 65.61987400054932,4.043945297598839 65.61987400054932,4.043945297598839 66.3134753704071,4.044230282306671 66.3134753704071,4.044230282306671 66.81510806083679,4.044270887970924 66.81510806083679,4.044270887970924 68.15372705459595,4.007039591670036 68.15372705459595,4.007039591670036 69.41007375717163,3.905843198299408 69.41007375717163,3.905843198299408 70.5859363079071,3.7568360567092896 70.5859363079071,3.7568360567092896 71.68262004852295,3.575846552848816 71.68262004852295,3.575846552848816 72.70215153694153,3.3790282905101776 72.70215153694153,3.3790282905101776 73.64583611488342,3.1822916120290756 73.64583611488342,3.1822916120290756 73.94498586654663,3.119262680411339 73.94498586654663,3.119262680411339 74.23763275146484,3.058227524161339 74.23763275146484,3.058227524161339 74.52311515808105,3.0000001192092896 74.52311515808105,3.0000001192092896 74.80037808418274,2.945149876177311 74.80037808418274,2.945149876177311 75.06909370422363,2.8946127742528915 75.06909370422363,2.8946127742528915 75.328129529953,2.848958410322666 75.328129529953,2.848958410322666 76.81608200073242,2.676757797598839 76.81608200073242,2.676757797598839 78.72412204742432,2.5552572682499886 78.72412204742432,2.5552572682499886 80.8470070362091,2.4759115651249886 80.8470070362091,2.4759115651249886 82.97989964485168,2.4299316108226776 82.97989964485168,2.4299316108226776 84.91764664649963,2.4087728932499886 84.91764664649963,2.4087728932499886 86.45573258399963,2.4036459624767303 86.45573258399963,2.4036459624767303 87.52620816230774,2.450195327401161 87.52620816230774,2.450195327401161 88.34993839263916,2.585815452039242 88.34993839263916,2.585815452039242 88.98242115974426,2.8046876192092896 88.98242115974426,2.8046876192092896 89.47892189025879,3.100748732686043 89.47892189025879,3.100748732686043 89.89510536193848,3.4681804478168488 89.89510536193848,3.4681804478168488 90.28646349906921,3.9010416716337204 90.28646349906921,3.9010416716337204 90.56063294410706,4.213785752654076 90.56063294410706,4.213785752654076 90.89127779006958,4.548421502113342 90.89127779006958,4.548421502113342 91.31413102149963,4.902343824505806 91.31413102149963,4.902343824505806 91.86458587646484,5.272705107927322 91.86458587646484,5.272705107927322 92.57878065109253,5.656901001930237 92.57878065109253,5.656901001930237 93.492192029953,6.052083522081375 93.492192029953,6.052083522081375 94.54256296157837,6.679972261190414 94.54256296157837,6.679972261190414 95.51814794540405,7.710368186235428 95.51814794540405,7.710368186235428 96.41764760017395,9.140950441360474 96.41764760017395,9.140950441360474 97.23950624465942,10.96927896142006 97.23950624465942,10.96927896142006 97.98282980918884,13.193075358867645 97.98282980918884,13.193075358867645 98.64583611488342,15.8098965883255 98.64583611488342,15.8098965883255 99.08887147903442,18.033000826835632 99.08887147903442,18.033000826835632 99.43554997444153,20.196370780467987 99.43554997444153,20.196370780467987 99.69303607940674,22.220703959465027 99.69303607940674,22.220703959465027 99.8680830001831,24.026693403720856 99.8680830001831,24.026693403720856 99.96809959411621,25.535115599632263 99.96809959411621,25.535115599632263 100.0,26.66666805744171 100.0,26.66666805744171 99.96826648712158,27.79821753501892 99.96826648712158,27.79821753501892 99.86816644668579,29.306599497795105 99.86816644668579,29.306599497795105 99.69303607940674,31.112632155418396 99.69303607940674,31.112632155418396 99.43530559539795,33.136922121047974 99.43530559539795,33.136922121047974 99.08878803253174,35.30033528804779 99.08878803253174,35.30033528804779 98.64583611488342,37.52343952655792 98.64583611488342,37.52343952655792 97.98291325569153,40.140220522880554 97.98291325569153,40.140220522880554 97.23966717720032,42.36401617527008 97.23966717720032,42.36401617527008 96.41764760017395,44.19238269329071 96.41764760017395,44.19238269329071 95.51807045936584,45.622965693473816 95.51807045936584,45.622965693473816 94.54248547554016,46.65336310863495 94.54248547554016,46.65336310863495 93.492192029953,47.28125035762787 93.492192029953,47.28125035762787 92.57894158363342,47.67643213272095 92.57894158363342,47.67643213272095 91.86474680900574,48.060548305511475 91.86474680900574,48.060548305511475 91.31413102149963,48.43099117279053 91.31413102149963,48.43099117279053 90.8911943435669,48.78487288951874 90.8911943435669,48.78487288951874 90.56054949760437,49.11958873271942 90.56054949760437,49.11958873271942 90.28646349906921,49.43229258060455 90.28646349906921,49.43229258060455 89.89534974098206,49.865153431892395 89.89534974098206,49.865153431892395 89.47900533676147,50.23258328437805 89.47900533676147,50.23258328437805 88.98242115974426,50.528645515441895 88.98242115974426,50.528645515441895 88.34969401359558,50.747478008270264 88.34969401359558,50.747478008270264 87.52604126930237,50.88309645652771 87.52604126930237,50.88309645652771 86.45573258399963,50.92968940734863 86.45573258399963,50.92968940734863 84.91789102554321,50.92456340789795 84.91789102554321,50.92456340789795 82.97989964485168,50.9033203125 82.97989964485168,50.9033203125 80.8470070362091,50.85742473602295 80.8470070362091,50.85742473602295 78.72387766838074,50.778037309646606 78.72387766838074,50.778037309646606 76.81599855422974,50.656574964523315 76.81599855422974,50.656574964523315 75.328129529953,50.48437714576721 75.328129529953,50.48437714576721 75.06917715072632,50.43871998786926 75.06917715072632,50.43871998786926 74.80053901672363,50.388103723526 74.80053901672363,50.388103723526 74.52311515808105,50.333333015441895 74.52311515808105,50.333333015441895 74.23747181892395,50.27502775192261 74.23747181892395,50.27502775192261 73.94490838050842,50.214070081710815 73.94490838050842,50.214070081710815 73.64583611488342,50.15104413032532 73.64583611488342,50.15104413032532 72.70222902297974,49.95426535606384 72.70222902297974,49.95426535606384 71.68278098106384,49.75740611553192 71.68278098106384,49.75740611553192 70.5859363079071,49.57650005817413 70.5859363079071,49.57650005817413 69.40999627113342,49.42744970321655 69.40999627113342,49.42744970321655 68.15364956855774,49.32633638381958 68.15364956855774,49.32633638381958 66.81510806083679,49.28906261920929 66.81510806083679,49.28906261920929 66.31364226341248,49.289146065711975 66.31364226341248,49.289146065711975 65.619957447052,49.28934872150421 65.619957447052,49.28934872150421 64.75130319595337,49.290040135383606 64.75130319595337,49.290040135383606 63.724446296691895,49.29134249687195 63.724446296691895,49.29134249687195 62.55697011947632,49.293580651283264 62.55697011947632,49.293580651283264 61.265623569488525,49.29687678813934 61.265623569488525,49.29687678813934 60.922038555145264,50.19266605377197 60.922038555145264,50.19266605377197 60.481852293014526,51.107257604599 60.481852293014526,51.107257604599 59.94075536727905,51.95963382720947 59.94075536727905,51.95963382720947 59.29402709007263,52.66874432563782 59.29402709007263,52.66874432563782 58.53743553161621,53.15360426902771 58.53743553161621,53.15360426902771" stroke="white" stroke-width="0.1" /><polygon points="55.156248807907104,26.66666805744171 55.156248807907104,26.66666805744171 55.156248807907104,42.21354126930237 55.156248807907104,42.21354126930237 55.27637004852295,42.34724938869476 55.27637004852295,42.34724938869476 55.5625855922699,42.56502389907837 55.5625855922699,42.56502389907837 56.08333349227905,42.85774827003479 56.08333349227905,42.85774827003479 56.90690279006958,43.21618676185608 56.90690279006958,43.21618676185608 58.10205340385437,43.63122582435608 58.10205340385437,43.63122582435608 59.73697900772095,44.09375190734863 59.73697900772095,44.09375190734863 61.144042015075684,44.42378878593445 61.144042015075684,44.42378878593445 62.7855658531189,44.766032695770264 62.7855658531189,44.766032695770264 64.45280313491821,45.090171694755554 64.45280313491821,45.090171694755554 65.93652367591858,45.36588788032532 65.93652367591858,45.36588788032532 67.02799797058105,45.562949776649475 67.02799797058105,45.562949776649475 67.51822829246521,45.651042461395264 67.51822829246521,45.651042461395264 67.64501929283142,45.333132147789 67.64501929283142,45.333132147789 67.82014966011047,44.733601808547974 67.82014966011047,44.733601808547974 68.03222894668579,43.77050995826721 68.03222894668579,43.77050995826721 68.27002167701721,42.36185848712921 68.27002167701721,42.36185848712921 68.52254271507263,40.42574167251587 68.52254271507263,40.42574167251587 68.77864599227905,37.8802090883255 68.77864599227905,37.8802090883255 68.95036101341248,35.73486506938934 68.95036101341248,35.73486506938934 69.08822059631348,33.61128866672516 69.08822059631348,33.61128866672516 69.19368505477905,31.57617151737213 69.19368505477905,31.57617151737213 69.26741600036621,29.695963859558105 69.26741600036621,29.695963859558105 69.31111812591553,28.03727388381958 69.31111812591553,28.03727388381958 69.32552456855774,26.66666805744171 69.32552456855774,26.66666805744171 69.31120157241821,25.295859575271606 69.31120157241821,25.295859575271606 69.26766037940979,23.63675981760025 69.26766037940979,23.63675981760025 69.19368505477905,21.756185591220856 69.19368505477905,21.756185591220856 69.08813714981079,19.720865786075592 69.08813714981079,19.720865786075592 68.9501941204071,17.59757548570633 68.9501941204071,17.59757548570633 68.77864599227905,15.453125536441803 68.77864599227905,15.453125536441803 68.52278709411621,12.907390296459198 68.52278709411621,12.907390296459198 68.2701826095581,10.970865935087204 68.2701826095581,10.970865935087204 68.03222894668579,9.561849385499954 68.03222894668579,9.561849385499954 67.81998872756958,8.598510921001434 67.81998872756958,8.598510921001434 67.64494180679321,7.999267429113388 67.64494180679321,7.999267429113388 67.51822829246521,7.68229216337204 67.51822829246521,7.68229216337204 67.02815890312195,7.769449800252914 67.02815890312195,7.769449800252914 65.93660712242126,7.96622708439827 65.93660712242126,7.96622708439827 64.45280313491821,8.242187649011612 64.45280313491821,8.242187649011612 62.78548240661621,8.566690981388092 62.78548240661621,8.566690981388092 61.14388108253479,8.90934243798256 61.14388108253479,8.90934243798256 59.73697900772095,9.23958346247673 59.73697900772095,9.23958346247673 58.10205340385437,9.702026844024658 58.10205340385437,9.702026844024658 56.907063722610474,10.117106139659882 56.907063722610474,10.117106139659882 56.08333349227905,10.475586354732513 56.08333349227905,10.475586354732513 55.5625855922699,10.768269747495651 55.5625855922699,10.768269747495651 55.276286602020264,10.986124724149704 55.276286602020264,10.986124724149704 55.156248807907104,11.119791865348816 55.156248807907104,11.119791865348816" stroke="white" stroke-width="0.1" /><polygon points="11.031249910593033,26.66666805744171 11.031249910593033,26.66666805744171 11.079183220863342,29.410645365715027 11.079183220863342,29.410645365715027 11.209635436534882,31.85705542564392 11.209635436534882,31.85705542564392 11.402995139360428,34.00748670101166 11.402995139360428,34.00748670101166 11.63916066288948,35.86340546607971 11.63916066288948,35.86340546607971 11.898600310087204,37.42635250091553 11.898600310087204,37.42635250091553 12.161458283662796,38.69791626930237 12.161458283662796,38.69791626930237 12.429850548505783,39.771485328674316 12.429850548505783,39.771485328674316 12.691976130008698,40.664634108543396 12.691976130008698,40.664634108543396 12.938150763511658,41.38639569282532 12.938150763511658,41.38639569282532 13.158692419528961,41.94555878639221 13.158692419528961,41.94555878639221 13.3440762758255,42.35111474990845 13.3440762758255,42.35111474990845 13.484375178813934,42.61198043823242 13.484375178813934,42.61198043823242 13.995116949081421,42.676758766174316 13.995116949081421,42.676758766174316 14.81640636920929,42.71354377269745 14.81640636920929,42.71354377269745 15.909504890441895,42.71647334098816 15.909504890441895,42.71647334098816 17.235596477985382,42.679646611213684 17.235596477985382,42.679646611213684 18.756185472011566,42.59729087352753 18.756185472011566,42.59729087352753 20.43229192495346,42.46354401111603 20.43229192495346,42.46354401111603 22.465495765209198,42.23999083042145 22.465495765209198,42.23999083042145 24.09554123878479,41.995200514793396 24.09554123878479,41.995200514793396 25.356444716453552,41.743165254592896 25.356444716453552,41.743165254592896 26.281821727752686,41.497802734375 26.281821727752686,41.497802734375 26.906168460845947,41.27327501773834 26.906168460845947,41.27327501773834 27.26302146911621,41.083332896232605 27.26302146911621,41.083332896232605 27.26302146911621,12.250000238418579 27.26302146911621,12.250000238418579 26.906251907348633,12.059896439313889 26.906251907348633,12.059896439313889 26.282063126564026,11.834879964590073 26.282063126564026,11.834879964590073 25.356444716453552,11.589193344116211 25.356444716453552,11.589193344116211 24.09554123878479,11.336954683065414 24.09554123878479,11.336954683065414 22.465413808822632,11.092448234558105 22.465413808822632,11.092448234558105 20.43229192495346,10.869792103767395 20.43229192495346,10.869792103767395 18.756267428398132,10.73584035038948 18.756267428398132,10.73584035038948 17.23567694425583,10.653076320886612 17.23567694425583,10.653076320886612 15.909504890441895,10.615886002779007 15.909504890441895,10.615886002779007 14.816243946552277,10.618612170219421 14.816243946552277,10.618612170219421 13.994954526424408,10.655640065670013 13.994954526424408,10.655640065670013 13.484375178813934,10.721354186534882 13.484375178813934,10.721354186534882 13.3440762758255,10.982178151607513 13.3440762758255,10.982178151607513 13.158692419528961,11.387736350297928 13.158692419528961,11.387736350297928 12.938150763511658,11.946940422058105 12.938150763511658,11.946940422058105 12.691813707351685,12.66862004995346 12.691813707351685,12.66862004995346 12.42968812584877,13.561849296092987 12.42968812584877,13.561849296092987 12.161458283662796,14.635416865348816 12.161458283662796,14.635416865348816 11.898763477802277,15.906941890716553 11.898763477802277,15.906941890716553 11.639241874217987,17.469890415668488 11.639241874217987,17.469890415668488 11.402995139360428,19.325846433639526 11.402995139360428,19.325846433639526 11.209554225206375,21.47623747587204 11.209554225206375,21.47623747587204 11.079102009534836,23.922689259052277 11.079102009534836,23.922689259052277" stroke="white" stroke-width="0.1" /></svg>