<?xml version="1.0" encoding="utf-8" ?>
<svg baseProfile="full" height="63.666439056396484" version="1.1" width="99.99030828475952" xmlns="http://www.w3.org/2000/svg" xmlns:ev="http://www.w3.org/2001/xml-events" xmlns:xlink="http://www.w3.org/1999/xlink"><defs><clipPath /></defs><polygon points="52.64202952384949,24.476386606693268 52.64202952384949,24.476386606693268 52.802592515945435,24.358102679252625 52.802592515945435,24.358102679252625 52.96543836593628,24.238233268260956 52.96543836593628,24.238233268260956 53.13027501106262,24.11675900220871 53.13027501106262,24.11675900220871 53.29626202583313,23.993538320064545 53.29626202583313,23.993538320064545 53.463953733444214,23.86856973171234 53.463953733444214,23.86856973171234 53.63221764564514,23.74172955751419 53.63221764564514,23.74172955751419 53.66758108139038,23.74787926673889 53.66758108139038,23.74787926673889 53.703802824020386,23.753030598163605 53.703802824020386,23.753030598163605 53.740304708480835,23.757700622081757 53.740304708480835,23.757700622081757 53.77624034881592,23.762334883213043 53.77624034881592,23.762334883213043 53.81188988685608,23.76750409603119 53.81188988685608,23.76750409603119 53.846681118011475,23.773671686649323 53.846681118011475,23.773671686649323 55.3912878036499,24.162906408309937 55.3912878036499,24.162906408309937 56.90138339996338,24.682028591632843 56.90138339996338,24.682028591632843 58.376115560531616,25.309720635414124 58.376115560531616,25.309720635414124 59.81377363204956,26.02444887161255 59.81377363204956,26.02444887161255 61.213213205337524,26.804843544960022 61.213213205337524,26.804843544960022 62.57358193397522,27.62947976589203 62.57358193397522,27.62947976589203 63.91341686248779,28.493505716323853 63.91341686248779,28.493505716323853 65.22844433784485,29.395374655723572 65.22844433784485,29.395374655723572 66.51893854141235,30.332249402999878 66.51893854141235,30.332249402999878 67.78519749641418,31.30124807357788 67.78519749641418,31.30124807357788 69.0283477306366,32.29950964450836 69.0283477306366,32.29950964450836 70.24869322776794,33.32420885562897 70.24869322776794,33.32420885562897 70.7945466041565,33.80096256732941 70.7945466041565,33.80096256732941 71.243155002594,34.18761193752289 71.243155002594,34.18761193752289 71.65754437446594,34.49292778968811 71.65754437446594,34.49292778968811 72.0990240573883,34.725573658943176 72.0990240573883,34.725573658943176 72.63004779815674,34.89437401294708 72.63004779815674,34.89437401294708 73.3128011226654,35.007986426353455 73.3128011226654,35.007986426353455 77.2273600101471,35.48559546470642 77.2273600101471,35.48559546470642 81.18241429328918,36.051541566848755 81.18241429328918,36.051541566848755 85.1309061050415,36.76762580871582 85.1309061050415,36.76762580871582 89.0240728855133,37.69546449184418 89.0240728855133,37.69546449184418 92.8145706653595,38.89687657356262 92.8145706653595,38.89687657356262 96.45448923110962,40.43349325656891 96.45448923110962,40.43349325656891 96.82295322418213,40.609100461006165 96.82295322418213,40.609100461006165 97.36767411231995,40.88764488697052 97.36767411231995,40.88764488697052 97.93919920921326,41.23232066631317 97.93919920921326,41.23232066631317 98.38666915893555,41.606029868125916 98.38666915893555,41.606029868125916 98.5609233379364,41.97189509868622 98.5609233379364,41.97189509868622 98.3116626739502,42.29295253753662 98.3116626739502,42.29295253753662 98.19445013999939,42.49889552593231 98.19445013999939,42.49889552593231 98.11202883720398,42.89720356464386 98.11202883720398,42.89720356464386 98.05669784545898,43.39807331562042 98.05669784545898,43.39807331562042 98.02076816558838,43.91165375709534 98.02076816558838,43.91165375709534 97.9962408542633,44.34819221496582 97.9962408542633,44.34819221496582 97.97627329826355,44.61784362792969 97.97627329826355,44.61784362792969 97.90212512016296,45.165395736694336 97.90212512016296,45.165395736694336 97.82854318618774,45.712947845458984 97.82854318618774,45.712947845458984 97.75553345680237,46.26055359840393 97.75553345680237,46.26055359840393 97.68280982971191,46.80812358856201 97.68280982971191,46.80812358856201 97.61037230491638,47.35569357872009 97.61037230491638,47.35569357872009 97.53822088241577,47.903263568878174 97.53822088241577,47.903263568878174 97.68651723861694,48.037466406822205 97.68651723861694,48.037466406822205 98.09006452560425,48.17466139793396 98.09006452560425,48.17466139793396 98.63050580024719,48.31365644931793 98.63050580024719,48.31365644931793 99.18948411941528,48.45318794250488 99.18948411941528,48.45318794250488 99.6486485004425,48.592111468315125 99.6486485004425,48.592111468315125 99.89048838615417,48.72918128967285 99.89048838615417,48.72918128967285 99.99030828475952,49.075764417648315 99.99030828475952,49.075764417648315 99.98403191566467,49.58169460296631 99.98403191566467,49.58169460296631 99.90817308425903,50.16826391220093 99.90817308425903,50.16826391220093 99.79808926582336,50.75668692588806 99.79808926582336,50.75668692588806 99.69028234481812,51.2683629989624 99.69028234481812,51.2683629989624 99.62126612663269,51.62445902824402 99.62126612663269,51.62445902824402 99.4906485080719,52.55360007286072 99.4906485080719,52.55360007286072 99.34406280517578,53.516680002212524 99.34406280517578,53.516680002212524 99.14756417274475,54.48066592216492 99.14756417274475,54.48066592216492 98.86693358421326,55.412495136260986 98.86693358421326,55.412495136260986 98.46880435943604,56.279200315475464 98.46880435943604,56.279200315475464 97.91923761367798,57.04768896102905 97.91923761367798,57.04768896102905 97.12355136871338,57.75824189186096 97.12355136871338,57.75824189186096 96.2423026561737,58.24613571166992 96.2423026561737,58.24613571166992 95.29517889022827,58.560919761657715 95.29517889022827,58.560919761657715 94.30128335952759,58.75207185745239 94.30128335952759,58.75207185745239 93.28029155731201,58.8692307472229 93.28029155731201,58.8692307472229 92.25188493728638,58.9618980884552 92.25188493728638,58.9618980884552 92.97085404396057,54.66591715812683 92.97085404396057,54.66591715812683 92.29010343551636,50.547462701797485 92.29010343551636,50.547462701797485 90.41210412979126,46.875715255737305 90.41210412979126,46.875715255737305 87.53764629364014,43.91978085041046 87.53764629364014,43.91978085041046 83.86892676353455,41.94883108139038 83.86892676353455,41.94883108139038 79.60757613182068,41.23203456401825 79.60757613182068,41.23203456401825 79.52943444252014,41.23205244541168 79.52943444252014,41.23205244541168 79.45014834403992,41.23224914073944 79.45014834403992,41.23224914073944 79.37086820602417,41.232889890670776 79.37086820602417,41.232889890670776 79.29101586341858,41.23406708240509 79.29101586341858,41.23406708240509 79.21059131622314,41.23601019382477 79.21059131622314,41.23601019382477 79.13073301315308,41.2388801574707 79.13073301315308,41.2388801574707 74.83687400817871,42.13425815105438 74.83687400817871,42.13425815105438 71.21492624282837,44.2906379699707 71.21492624282837,44.2906379699707 68.45710873603821,47.41643965244293 68.45710873603821,47.41643965244293 66.75222516059875,51.22004151344299 66.75222516059875,51.22004151344299 66.2919282913208,55.409860610961914 66.2919282913208,55.409860610961914 67.2667145729065,59.69427824020386 67.2667145729065,59.69427824020386 64.19290900230408,59.46658253669739 64.19290900230408,59.46658253669739 61.12366318702698,59.27377939224243 61.12366318702698,59.27377939224243 58.057838678359985,59.11875367164612 58.057838678359985,59.11875367164612 54.99258637428284,59.004396200180054 54.99258637428284,59.004396200180054 51.92733407020569,58.9336633682251 51.92733407020569,58.9336633682251 48.85922968387604,58.909422159194946 48.85922968387604,58.909422159194946 48.04985225200653,58.915358781814575 48.04985225200653,58.915358781814575 47.23876416683197,58.93120765686035 47.23876416683197,58.93120765686035 46.42796218395233,58.953917026519775 46.42796218395233,58.953917026519775 45.61658799648285,58.98039937019348 45.61658799648285,58.98039937019348 44.80549991130829,59.0076744556427 44.80549991130829,59.0076744556427 43.99498105049133,59.032630920410156 43.99498105049133,59.032630920410156 43.64334046840668,58.24359059333801 43.64334046840668,58.24359059333801 43.21412444114685,57.4713408946991 43.21412444114685,57.4713408946991 42.70733594894409,56.71600699424744 42.70733594894409,56.71600699424744 42.12183654308319,55.977535247802734 42.12183654308319,55.977535247802734 41.458478569984436,55.256104469299316 41.458478569984436,55.256104469299316 40.7164067029953,54.55167889595032 40.7164067029953,54.55167889595032 40.59120714664459,52.91622281074524 40.59120714664459,52.91622281074524 40.26751220226288,51.322102546691895 40.26751220226288,51.322102546691895 39.756447076797485,49.78553652763367 39.756447076797485,49.78553652763367 39.06913101673126,48.322710394859314 39.06913101673126,48.322710394859314 38.21726143360138,46.94993495941162 38.21726143360138,46.94993495941162 37.211957573890686,45.683324337005615 37.211957573890686,45.683324337005615 38.34274709224701,44.12437081336975 38.34274709224701,44.12437081336975 39.33635652065277,42.53579378128052 39.33635652065277,42.53579378128052 40.203627943992615,40.9468412399292 40.203627943992615,40.9468412399292 40.95568358898163,39.38676416873932 40.95568358898163,39.38676416873932 41.60335659980774,37.88488805294037 41.60335659980774,37.88488805294037 42.15834140777588,36.470454931259155 42.15834140777588,36.470454931259155 42.27755069732666,36.17488741874695 42.27755069732666,36.17488741874695 42.41786599159241,35.875025391578674 42.41786599159241,35.875025391578674 42.576149106025696,35.5715274810791 42.576149106025696,35.5715274810791 42.749544978141785,35.2649450302124 42.749544978141785,35.2649450302124 42.93605983257294,34.95599329471588 42.93605983257294,34.95599329471588 43.13255846500397,34.64522063732147 43.13255846500397,34.64522063732147 43.20100545883179,34.64522063732147 43.20100545883179,34.64522063732147 43.238365650177,34.645041823387146 43.238365650177,34.645041823387146 43.275439739227295,34.64457988739014 43.275439739227295,34.64457988739014 43.31308603286743,34.64407920837402 43.31308603286743,34.64407920837402 43.35044622421265,34.64352786540985 43.35044622421265,34.64352786540985 43.388375639915466,34.6431165933609 43.388375639915466,34.6431165933609 43.42687726020813,34.64294075965881 43.42687726020813,34.64294075965881 43.45996081829071,34.64310169219971 43.45996081829071,34.64310169219971 43.493613600730896,34.64359939098358 43.493613600730896,34.64359939098358 43.527552485466,34.644365310668945 43.527552485466,34.644365310668945 43.56148838996887,34.6452921628952 43.56148838996887,34.6452921628952 43.5957133769989,34.64637994766235 43.5957133769989,34.64637994766235 43.62993538379669,34.64750349521637 43.62993538379669,34.64750349521637 44.82831656932831,34.72571671009064 44.82831656932831,34.72571671009064 46.02726697921753,34.79653298854828 46.02726697921753,34.79653298854828 47.226786613464355,34.86054241657257 47.226786613464355,34.86054241657257 48.42630922794342,34.91823971271515 48.42630922794342,34.91823971271515 49.62525963783264,34.970250725746155 49.62525963783264,34.970250725746155 50.82364082336426,35.01711189746857 50.82364082336426,35.01711189746857 51.798999309539795,35.052868723869324 51.798999309539795,35.052868723869324 52.77407169342041,35.085007548332214 52.77407169342041,35.085007548332214 53.75000238418579,35.11379361152649 53.75000238418579,35.11379361152649 54.72564697265625,35.139283537864685 54.72564697265625,35.139283537864685 55.70186376571655,35.16177535057068 55.70186376571655,35.16177535057068 56.67807459831238,35.18138527870178 56.67807459831238,35.18138527870178 57.24104642868042,35.192203521728516 57.24104642868042,35.192203521728516 57.804304361343384,35.201987624168396 57.804304361343384,35.201987624168396 58.367276191711426,35.210758447647095 58.367276191711426,35.210758447647095 58.92995595932007,35.21856665611267 58.92995595932007,35.21856665611267 59.492361545562744,35.22549867630005 59.492361545562744,35.22549867630005 60.05476117134094,35.23157835006714 60.05476117134094,35.23157835006714 60.077571868896484,35.16468107700348 60.077571868896484,35.16468107700348 60.086703300476074,35.055434703826904 60.086703300476074,35.055434703826904 60.08613109588623,34.92470979690552 60.08613109588623,34.92470979690552 60.080426931381226,34.7931832075119 60.080426931381226,34.7931832075119 60.07472276687622,34.681689739227295 60.07472276687622,34.681689739227295 60.07301211357117,34.61099863052368 60.07301211357117,34.61099863052368 60.08442044258118,34.27589535713196 60.08442044258118,34.27589535713196 60.11151075363159,33.772388100624084 60.11151075363159,33.772388100624084 60.1759672164917,33.20271670818329 60.1759672164917,33.20271670818329 60.297173261642456,32.66915678977966 60.297173261642456,32.66915678977966 60.49652099609375,32.274022698402405 60.49652099609375,32.274022698402405 60.79397797584534,32.11955428123474 60.79397797584534,32.11955428123474 61.15959882736206,32.0820152759552 61.15959882736206,32.0820152759552 61.39288544654846,31.977546215057373 61.39288544654846,31.977546215057373 61.51009798049927,31.818389892578125 61.51009798049927,31.818389892578125 61.52549982070923,31.61659836769104 61.52549982070923,31.61659836769104 61.455339193344116,31.38439953327179 61.455339193344116,31.38439953327179 61.31417155265808,31.133928894996643 61.31417155265808,31.133928894996643 60.5107843875885,30.155092477798462 60.5107843875885,30.155092477798462 59.54882502555847,29.326659440994263 59.54882502555847,29.326659440994263 58.471083641052246,28.62451672554016 58.471083641052246,28.62451672554016 57.3197603225708,28.02443504333496 57.3197603225708,28.02443504333496 56.1384916305542,27.50231921672821 56.1384916305542,27.50231921672821 54.96920347213745,27.03399658203125 54.96920347213745,27.03399658203125 54.266488552093506,26.78350806236267 54.266488552093506,26.78350806236267 53.5563588142395,26.574870944023132 53.5563588142395,26.574870944023132 52.83995270729065,26.40429139137268 52.83995270729065,26.40429139137268 52.11755633354187,26.267898082733154 52.11755633354187,26.267898082733154 51.39031410217285,26.16194784641266 51.39031410217285,26.16194784641266 50.65937042236328,26.082593202590942 50.65937042236328,26.082593202590942 50.74606537818909,26.001080870628357 50.74606537818909,26.001080870628357 50.83361864089966,25.91727077960968 50.83361864089966,25.91727077960968 50.92174410820007,25.83276331424713 50.92174410820007,25.83276331424713 51.009583473205566,25.748971104621887 51.009583473205566,25.748971104621887 51.09713673591614,25.667494535446167 51.09713673591614,25.667494535446167 51.18412375450134,25.589779019355774 51.18412375450134,25.589779019355774 51.393455266952515,25.415241718292236 51.393455266952515,25.415241718292236 51.61932706832886,25.236213207244873 51.61932706832886,25.236213207244873 51.86002850532532,25.052762031555176 51.86002850532532,25.052762031555176 52.111852169036865,24.86492693424225 52.111852169036865,24.86492693424225 52.37337350845337,24.672777950763702 52.37337350845337,24.672777950763702" stroke="white" stroke-width="0.1" /><polygon points="8.076660335063934,38.482776284217834 8.076660335063934,38.482776284217834 8.176762610673904,37.64405846595764 8.176762610673904,37.64405846595764 8.311944454908371,36.65085732936859 8.311944454908371,36.65085732936859 8.515571802854538,35.60090363025665 8.515571802854538,35.60090363025665 8.820728212594986,34.59179997444153 8.820728212594986,34.59179997444153 9.261208027601242,33.72125029563904 9.261208027601242,33.72125029563904 9.869952499866486,33.086928725242615 9.869952499866486,33.086928725242615 10.27093380689621,33.57177376747131 10.27093380689621,33.57177376747131 10.652806609869003,34.055158495903015 10.652806609869003,34.055158495903015 11.002452671527863,34.52800810337067 11.002452671527863,34.52800810337067 11.305898427963257,34.981268644332886 11.305898427963257,34.981268644332886 11.550308763980865,35.40588319301605 11.550308763980865,35.40588319301605 11.722564697265625,35.79283654689789 11.722564697265625,35.79283654689789 12.348848581314087,37.47511804103851 12.348848581314087,37.47511804103851 13.066679239273071,39.22131955623627 13.066679239273071,39.22131955623627 13.891741633415222,40.99504053592682 13.891741633415222,40.99504053592682 14.838580787181854,42.759811878204346 14.838580787181854,42.759811878204346 15.92274159193039,44.47920322418213 15.92274159193039,44.47920322418213 17.15947985649109,46.116816997528076 17.15947985649109,46.116816997528076 16.29420518875122,47.26646542549133 16.29420518875122,47.26646542549133 15.553417801856995,48.50270450115204 15.553417801856995,48.50270450115204 14.946669340133667,49.81605112552643 14.946669340133667,49.81605112552643 14.483658969402313,51.196885108947754 14.483658969402313,51.196885108947754 14.174652099609375,52.63562798500061 14.174652099609375,52.63562798500061 14.029204845428467,54.122745990753174 14.029204845428467,54.122745990753174 13.818161189556122,54.29500341415405 13.818161189556122,54.29500341415405 13.604551553726196,54.474037885665894 13.604551553726196,54.474037885665894 13.389517366886139,54.65976595878601 13.389517366886139,54.65976595878601 13.172769546508789,54.85212802886963 13.172769546508789,54.85212802886963 12.955453991889954,55.05114197731018 12.955453991889954,55.05114197731018 12.737850844860077,55.25667667388916 12.737850844860077,55.25667667388916 12.104438245296478,54.9325168132782 12.104438245296478,54.9325168132782 11.469884216785431,54.61108684539795 11.469884216785431,54.61108684539795 10.833333432674408,54.29357886314392 10.833333432674408,54.29357886314392 10.193789005279541,53.98116707801819 10.193789005279541,53.98116707801819 9.551534801721573,53.67515683174133 9.551534801721573,53.67515683174133 8.90486016869545,53.376686573028564 8.90486016869545,53.376686573028564 8.548083901405334,53.23562026023865 8.548083901405334,53.23562026023865 8.164499700069427,53.102970123291016 8.164499700069427,53.102970123291016 7.77834877371788,52.95944809913635 7.77834877371788,52.95944809913635 7.413729280233383,52.785658836364746 7.413729280233383,52.785658836364746 7.095169275999069,52.56233215332031 7.095169275999069,52.56233215332031 6.84690847992897,52.27013826370239 6.84690847992897,52.27013826370239 6.360797584056854,51.251786947250366 6.360797584056854,51.251786947250366 6.038672477006912,50.1190721988678 6.038672477006912,50.1190721988678 5.842459574341774,48.918551206588745 5.842459574341774,48.918551206588745 5.733801424503326,47.696712613105774 5.733801424503326,47.696712613105774 5.675194039940834,46.50013446807861 5.675194039940834,46.50013446807861 5.628564953804016,45.375314354896545 5.628564953804016,45.375314354896545 5.70000596344471,44.599127769470215 5.70000596344471,44.599127769470215 5.957392230629921,44.00638937950134 5.957392230629921,44.00638937950134 6.335272639989853,43.5247004032135 6.335272639989853,43.5247004032135 6.768195331096649,43.081581592559814 6.768195331096649,43.081581592559814 7.190708816051483,42.60466694831848 7.190708816051483,42.60466694831848 7.538215816020966,42.02144742012024 7.538215816020966,42.02144742012024 7.7225930988788605,41.47239923477173 7.7225930988788605,41.47239923477173 7.843657582998276,40.88395535945892 7.843657582998276,40.88395535945892 7.920374721288681,40.273502469062805 7.920374721288681,40.273502469062805 7.971709221601486,39.65825140476227 7.971709221601486,39.65825140476227 8.017482608556747,39.055585861206055 8.017482608556747,39.055585861206055" stroke="white" stroke-width="0.1" /><polygon points="79.59845066070557,45.59662342071533 79.59845066070557,45.59662342071533 81.71629309654236,45.85495591163635 81.71629309654236,45.85495591163635 83.67956280708313,46.590861678123474 83.67956280708313,46.590861678123474 85.41467189788818,47.74583876132965 85.41467189788818,47.74583876132965 86.8463397026062,49.26126301288605 86.8463397026062,49.26126301288605 87.90098428726196,51.078635454177856 87.90098428726196,51.078635454177856 88.5033130645752,53.13940644264221 88.5033130645752,53.13940644264221 88.54267001152039,55.69448471069336 88.54267001152039,55.69448471069336 87.87873983383179,58.087390661239624 87.87873983383179,58.087390661239624 86.60963177680969,60.195642709732056 86.60963177680969,60.195642709732056 84.8323106765747,61.89662218093872 84.8323106765747,61.89662218093872 82.6443076133728,63.067805767059326 82.6443076133728,63.067805767059326 80.14373779296875,63.586586713790894 80.14373779296875,63.586586713790894 80.058753490448,63.5909378528595 80.058753490448,63.5909378528595 79.97376322746277,63.594770431518555 79.97376322746277,63.594770431518555 79.88934516906738,63.5979950428009 79.88934516906738,63.5979950428009 79.80464696884155,63.60042095184326 79.80464696884155,63.60042095184326 79.71994280815125,63.601988554000854 79.71994280815125,63.601988554000854 79.6349585056305,63.60255479812622 79.6349585056305,63.60255479812622 77.2758424282074,63.27806115150452 77.2758424282074,63.27806115150452 75.13233423233032,62.36400008201599 75.13233423233032,62.36400008201599 73.29996824264526,60.949695110321045 73.29996824264526,60.949695110321045 71.87343239784241,59.12429690361023 71.87343239784241,59.12429690361023 70.94741463661194,56.977081298828125 70.94741463661194,56.977081298828125 70.61830163002014,54.597312211990356 70.61830163002014,54.597312211990356 70.92117667198181,52.31250524520874 70.92117667198181,52.31250524520874 71.7764675617218,50.22858381271362 71.7764675617218,50.22858381271362 73.10461401939392,48.43087196350098 73.10461401939392,48.43087196350098 74.82517957687378,47.004640102386475 74.82517957687378,47.004640102386475 76.85889005661011,46.035268902778625 76.85889005661011,46.035268902778625 79.12617325782776,45.60803174972534 79.12617325782776,45.60803174972534 79.20488715171814,45.60404121875763 79.20488715171814,45.60404121875763 79.28360104560852,45.6010103225708 79.28360104560852,45.6010103225708 79.36230897903442,45.59890627861023 79.36230897903442,45.59890627861023 79.4410228729248,45.59755325317383 79.4410228729248,45.59755325317383 79.51973676681519,45.59683799743652 79.51973676681519,45.59683799743652" stroke="white" stroke-width="0.1" /><polygon points="39.79466259479523,62.27926015853882 39.79466259479523,62.27926015853882 39.7712767124176,62.831199169158936 39.7712767124176,62.831199169158936 39.689427614212036,63.20334076881409 39.689427614212036,63.20334076881409 39.53371047973633,63.43115568161011 39.53371047973633,63.43115568161011 39.286449551582336,63.54999542236328 39.286449551582336,63.54999542236328 38.93195390701294,63.59531879425049 38.93195390701294,63.59531879425049 38.4531170129776,63.60255479812622 38.4531170129776,63.60255479812622 32.08533227443695,63.60255479812622 32.08533227443695,63.60255479812622 16.3700670003891,63.60255479812622 16.3700670003891,63.60255479812622 16.182979941368103,63.60728144645691 16.182979941368103,63.60728144645691 15.99760502576828,63.61908316612244 15.99760502576828,63.61908316612244 15.815366804599762,63.63449692726135 15.815366804599762,63.63449692726135 15.637406706809998,63.64988088607788 15.637406706809998,63.64988088607788 15.465007722377777,63.661736249923706 15.465007722377777,63.661736249923706 15.300023555755615,63.666439056396484 15.300023555755615,63.666439056396484 15.093401074409485,63.654887676239014 15.093401074409485,63.654887676239014 14.905458688735962,63.61444592475891 14.905458688735962,63.61444592475891 14.739619195461273,63.53639364242554 14.739619195461273,63.53639364242554 14.598307013511658,63.41192126274109 14.598307013511658,63.41192126274109 14.485228061676025,63.23234438896179 14.485228061676025,63.23234438896179 14.40337747335434,62.988823652267456 14.40337747335434,62.988823652267456 14.382700622081757,61.41067147254944 14.382700622081757,61.41067147254944 14.955225586891174,60.042744874954224 14.955225586891174,60.042744874954224 15.942847728729248,58.84925127029419 15.942847728729248,58.84925127029419 17.16718077659607,57.79433846473694 17.16718077659607,57.79433846473694 18.450406193733215,56.84223771095276 18.450406193733215,56.84223771095276 19.61441934108734,55.95710873603821 19.61441934108734,55.95710873603821 20.346082746982574,55.251383781433105 20.346082746982574,55.251383781433105 20.973078906536102,54.45624589920044 20.973078906536102,54.45624589920044 21.50496244430542,53.59029173851013 21.50496244430542,53.59029173851013 21.95000648498535,52.67202854156494 21.95000648498535,52.67202854156494 22.317619621753693,51.72005295753479 22.317619621753693,51.72005295753479 22.616930305957794,50.7529079914093 22.616930305957794,50.7529079914093 22.818276286125183,50.013476610183716 22.818276286125183,50.013476610183716 23.076660931110382,48.980116844177246 23.076660931110382,48.980116844177246 23.31223040819168,47.814854979515076 23.31223040819168,47.814854979515076 23.443703353405,46.67959213256836 23.443703353405,46.67959213256836 23.39079976081848,45.736369490623474 23.39079976081848,45.736369490623474 23.073238134384155,45.147159695625305 23.073238134384155,45.147159695625305 21.468886733055115,43.7094509601593 21.468886733055115,43.7094509601593 20.088694989681244,42.02563762664795 20.088694989681244,42.02563762664795 18.90571564435959,40.16227722167969 18.90571564435959,40.16227722167969 17.892567813396454,38.18574845790863 17.892567813396454,38.18574845790863 17.02287346124649,36.162590980529785 17.02287346124649,36.162590980529785 16.269679367542267,34.15925204753876 16.269679367542267,34.15925204753876 15.750770270824432,33.017805218696594 15.750770270824432,33.017805218696594 15.056183934211731,31.895926594734192 15.056183934211731,31.895926594734192 14.243954420089722,30.801108479499817 14.243954420089722,30.801108479499817 13.37069422006607,29.740652441978455 13.37069422006607,29.740652441978455 12.494438886642456,28.72205078601837 12.494438886642456,28.72205078601837 11.672370880842209,27.75268256664276 11.672370880842209,27.75268256664276 11.119382083415985,27.091124653816223 11.119382083415985,27.091124653816223 10.557694733142853,26.4371395111084 10.557694733142853,26.4371395111084 9.987451881170273,25.791409611701965 9.987451881170273,25.791409611701965 9.406799077987671,25.154593586921692 9.406799077987671,25.154593586921692 8.815880119800568,24.52743649482727 8.815880119800568,24.52743649482727 8.213552832603455,23.910564184188843 8.213552832603455,23.910564184188843 7.539927214384079,23.249255120754242 7.539927214384079,23.249255120754242 6.849475204944611,22.606858611106873 6.849475204944611,22.606858611106873 6.143338233232498,21.983231604099274 6.143338233232498,21.983231604099274 5.420944839715958,21.37821316719055 5.420944839715958,21.37821316719055 4.683578759431839,20.791731774806976 4.683578759431839,20.791731774806976 3.931097686290741,20.223592221736908 3.931097686290741,20.223592221736908 3.191307559609413,19.673152267932892 3.191307559609413,19.673152267932892 2.4753309786319733,19.099433720111847 2.4753309786319733,19.099433720111847 1.8092630431056023,18.483060598373413 1.8092630431056023,18.483060598373413 1.2189140543341637,17.804479598999023 1.2189140543341637,17.804479598999023 0.7312343455851078,17.044298350811005 0.7312343455851078,17.044298350811005 0.3718913998454809,16.182979941368103 0.3718913998454809,16.182979941368103 0.12220510980114341,15.088428556919098 0.12220510980114341,15.088428556919098 0.012548483209684491,13.957852125167847 0.012548483209684491,13.957852125167847 0.010552133608143777,12.807437777519226 0.010552133608143777,12.807437777519226 0.0821355264633894,11.653191596269608 0.0821355264633894,11.653191596269608 0.19464408978819847,10.511244088411331 0.19464408978819847,10.511244088411331 0.3148528514429927,9.397672861814499 0.3148528514429927,9.397672861814499 0.42750402353703976,8.367699384689331 0.42750402353703976,8.367699384689331 0.573522737249732,7.336406409740448 0.573522737249732,7.336406409740448 0.7731576915830374,6.315024197101593 0.7731576915830374,6.315024197101593 1.0452316142618656,5.314710363745689 1.0452316142618656,5.314710363745689 1.409993227571249,4.346765950322151 1.409993227571249,4.346765950322151 1.8868355080485344,3.422313556075096 1.8868355080485344,3.422313556075096 2.469056658446789,2.5984451174736023 2.469056658446789,2.5984451174736023 3.1041810289025307,1.9528042525053024 3.1041810289025307,1.9528042525053024 3.7856493145227432,1.4727355912327766 3.7856493145227432,1.4727355912327766 4.505190625786781,1.145512517541647 4.505190625786781,1.145512517541647 5.255817994475365,0.9584616869688034 5.255817994475365,0.9584616869688034 6.030116602778435,0.8989277295768261 6.030116602778435,0.8989277295768261 7.23462849855423,1.024359092116356 7.23462849855423,1.024359092116356 8.44983458518982,1.371527835726738 8.44983458518982,1.371527835726738 9.648928046226501,1.8968172371387482 9.648928046226501,1.8968172371387482 10.805384814739227,2.556503936648369 10.805384814739227,2.556503936648369 11.893395334482193,3.3069711178541183 11.893395334482193,3.3069711178541183 12.886151671409607,4.104494675993919 12.886151671409607,4.104494675993919 15.066450834274292,2.855350263416767 15.066450834274292,2.855350263416767 17.34457015991211,1.8306169658899307 17.34457015991211,1.8306169658899307 19.70168948173523,1.031542383134365 19.70168948173523,1.031542383134365 22.11812734603882,0.4592673387378454 22.11812734603882,0.4592673387378454 24.57563430070877,0.11503964196890593 24.57563430070877,0.11503964196890593 27.054530382156372,0.0 27.054530382156372,0.0 28.715920448303223,0.05137035041116178 28.715920448303223,0.05137035041116178 30.37189245223999,0.20583791192620993 30.37189245223999,0.20583791192620993 32.01774060726166,0.46372348442673683 32.01774060726166,0.46372348442673683 33.64718854427338,0.8254192769527435 33.64718854427338,0.8254192769527435 35.25496423244476,1.2912995181977749 35.25496423244476,1.2912995181977749 36.835500597953796,1.8617385998368263 36.835500597953796,1.8617385998368263 37.55832314491272,2.161761373281479 37.55832314491272,2.161761373281479 38.2733017206192,2.482442930340767 38.2733017206192,2.482442930340767 38.979580998420715,2.8239790350198746 38.979580998420715,2.8239790350198746 39.675167202949524,3.1863879412412643 39.675167202949524,3.1863879412412643 40.359628200531006,3.569847345352173 40.359628200531006,3.569847345352173 41.031259298324585,3.974447026848793 41.031259298324585,3.974447026848793 41.048941016197205,3.9829671382904053 41.048941016197205,3.9829671382904053 41.06719195842743,3.99022176861763 41.06719195842743,3.99022176861763 41.086870431900024,3.996121510863304 41.086870431900024,3.996121510863304 41.10654890537262,4.000470787286758 41.10654890537262,4.000470787286758 41.12708270549774,4.00318019092083 41.12708270549774,4.00318019092083 41.147616505622864,4.004107043147087 41.147616505622864,4.004107043147087 41.44992232322693,3.9133798331022263 41.44992232322693,3.9133798331022263 41.824379563331604,3.680698201060295 41.824379563331604,3.680698201060295 42.23077893257141,3.365274891257286 42.23077893257141,3.365274891257286 42.628052830696106,3.0262520536780357 42.628052830696106,3.0262520536780357 42.976272106170654,2.722860500216484 42.976272106170654,2.722860500216484 43.23522746562958,2.5142597034573555 43.23522746562958,2.5142597034573555 43.68383586406708,2.216126210987568 43.68383586406708,2.216126210987568 44.14670467376709,1.9377602264285088 44.14670467376709,1.9377602264285088 44.623830914497375,1.682637445628643 44.623830914497375,1.682637445628643 45.11464834213257,1.454091165214777 45.11464834213257,1.454091165214777 45.61944007873535,1.2556147761642933 45.61944007873535,1.2556147761642933 46.1373507976532,1.090577244758606 46.1373507976532,1.090577244758606 46.43794298171997,1.0144663974642754 46.43794298171997,1.0144663974642754 46.73169255256653,0.9526330977678299 46.73169255256653,0.9526330977678299 47.018882632255554,0.9049167856574059 47.018882632255554,0.9049167856574059 47.29865491390228,0.871032290160656 47.29865491390228,0.871032290160656 47.571298480033875,0.8508549071848392 47.571298480033875,0.8508549071848392 47.83709943294525,0.8441707119345665 47.83709943294525,0.8441707119345665 49.58590269088745,1.1758855544030666 49.58590269088745,1.1758855544030666 50.99503993988037,2.0812656730413437 50.99503993988037,2.0812656730413437 52.08960771560669,3.425450623035431 52.08960771560669,3.425450623035431 52.8947114944458,5.0736334174871445 52.8947114944458,5.0736334174871445 53.43600511550903,6.891059875488281 53.43600511550903,6.891059875488281 53.73945236206055,8.742870390415192 53.73945236206055,8.742870390415192 53.9156973361969,10.258100181818008 53.9156973361969,10.258100181818008 54.08053994178772,11.870936304330826 54.08053994178772,11.870936304330826 54.143279790878296,13.514716923236847 54.143279790878296,13.514716923236847 54.012662172317505,15.122722089290619 54.012662172317505,15.122722089290619 53.59799265861511,16.628344357013702 53.59799265861511,16.628344357013702 52.80858278274536,17.964865267276764 52.80858278274536,17.964865267276764 52.10643410682678,18.719805777072906 52.10643410682678,18.719805777072906 51.33185386657715,19.405783712863922 51.33185386657715,19.405783712863922 50.51078200340271,20.04648745059967 50.51078200340271,20.04648745059967 49.668893218040466,20.665712654590607 49.668893218040466,20.665712654590607 48.832136392593384,21.2872177362442 48.832136392593384,21.2872177362442 48.026466369628906,21.93474918603897 48.026466369628906,21.93474918603897 47.21309840679169,22.65794426202774 47.21309840679169,22.65794426202774 46.42026126384735,23.404543101787567 46.42026126384735,23.404543101787567 45.64738869667053,24.172085523605347 45.64738869667053,24.172085523605347 44.89277005195618,24.958041310310364 44.89277005195618,24.958041310310364 44.1558301448822,25.75998604297638 44.1558301448822,25.75998604297638 43.43600571155548,26.575404405593872 43.43600571155548,26.575404405593872 42.35112965106964,27.820485830307007 42.35112965106964,27.820485830307007 41.242870688438416,29.1143000125885 41.242870688438416,29.1143000125885 40.164557099342346,30.45659363269806 40.164557099342346,30.45659363269806 39.16809260845184,31.846946477890015 39.16809260845184,31.846946477890015 38.30709755420685,33.28510224819183 38.30709755420685,33.28510224819183 37.63404190540314,34.7707062959671 37.63404190540314,34.7707062959671 37.032997608184814,36.30306422710419 37.032997608184814,36.30306422710419 36.37220561504364,37.82212734222412 36.37220561504364,37.82212734222412 35.639119148254395,39.310404658317566 35.639119148254395,39.310404658317566 34.820616245269775,40.7503604888916 34.820616245269775,40.7503604888916 33.90514552593231,42.1245813369751 33.90514552593231,42.1245813369751 32.8793078660965,43.41546893119812 32.8793078660965,43.41546893119812 32.64245390892029,43.681520223617554 32.64245390892029,43.681520223617554 32.39989876747131,43.94104480743408 32.39989876747131,43.94104480743408 32.15121030807495,44.19347643852234 32.15121030807495,44.19347643852234 31.89510703086853,44.438278675079346 31.89510703086853,44.438278675079346 31.63158893585205,44.67498958110809 31.63158893585205,44.67498958110809 31.359800696372986,44.90303695201874 31.359800696372986,44.90303695201874 31.09014928340912,45.13290226459503 31.09014928340912,45.13290226459503 30.91176152229309,45.3190952539444 30.91176152229309,45.3190952539444 30.80880641937256,45.497092604637146 30.80880641937256,45.497092604637146 30.764031410217285,45.70225179195404 30.764031410217285,45.70225179195404 30.761608481407166,45.97004950046539 30.761608481407166,45.97004950046539 30.78485131263733,46.335843205451965 30.78485131263733,46.335843205451965 30.84217607975006,46.997955441474915 30.84217607975006,46.997955441474915 30.914899706840515,47.658443450927734 30.914899706840515,47.658443450927734 31.004449725151062,48.316794633865356 31.004449725151062,48.316794633865356 31.11168146133423,48.97245168685913 31.11168146133423,48.97245168685913 31.238165497779846,49.62497353553772 31.238165497779846,49.62497353553772 31.384897232055664,50.27378797531128 31.384897232055664,50.27378797531128 31.843486428260803,51.782721281051636 31.843486428260803,51.782721281051636 32.43654668331146,53.09382677078247 32.43654668331146,53.09382677078247 33.17391276359558,54.24994230270386 33.17391276359558,54.24994230270386 34.06485319137573,55.29385805130005 34.06485319137573,55.29385805130005 35.119497776031494,56.26842975616455 35.119497776031494,56.26842975616455 36.34725213050842,57.21651911735535 36.34725213050842,57.21651911735535 37.16418743133545,57.84551501274109 37.16418743133545,57.84551501274109 37.95973062515259,58.566051721572876 37.95973062515259,58.566051721572876 38.67756128311157,59.37400460243225 38.67756128311157,59.37400460243225 39.26035463809967,60.2649986743927 39.26035463809967,60.2649986743927 39.65163826942444,61.23483180999756 39.65163826942444,61.23483180999756" stroke="white" stroke-width="0.1" /><polygon points="40.70727825164795,23.050422966480255 40.70727825164795,23.050422966480255 41.545745730400085,22.133028507232666 41.545745730400085,22.133028507232666 42.403605580329895,21.23495638370514 42.403605580329895,21.23495638370514 43.283140659332275,20.358487963676453 43.283140659332275,20.358487963676453 44.18520629405975,19.50574368238449 44.18520629405975,19.50574368238449 45.111796259880066,18.679004907608032 45.111796259880066,18.679004907608032 46.06434106826782,17.880447208881378 46.06434106826782,17.880447208881378 46.582821011543274,17.502692341804504 46.582821011543274,17.502692341804504 47.194844484329224,17.102745175361633 47.194844484329224,17.102745175361633 47.841376066207886,16.678644716739655 47.841376066207886,16.678644716739655 48.46138656139374,16.228272020816803 48.46138656139374,16.228272020816803 48.99555146694183,15.749630331993103 48.99555146694183,15.749630331993103 49.38398599624634,15.240703523159027 49.38398599624634,15.240703523159027 49.74389970302582,14.343540370464325 49.74389970302582,14.343540370464325 49.862539768218994,13.206726312637329 49.862539768218994,13.206726312637329 49.80920851230621,11.944729834794998 49.80920851230621,11.944729834794998 49.65263605117798,10.671878606081009 49.65263605117798,10.671878606081009 49.46269989013672,9.502588212490082 49.46269989013672,9.502588212490082 49.308693408966064,8.55122059583664 49.308693408966064,8.55122059583664 49.237966537475586,8.049887418746948 49.237966537475586,8.049887418746948 49.149271845817566,7.52711147069931 49.149271845817566,7.52711147069931 49.03205633163452,7.000342756509781 49.03205633163452,7.000342756509781 48.875486850738525,6.486835330724716 48.875486850738525,6.486835330724716 48.66929352283478,6.004021316766739 48.66929352283478,6.004021316766739 48.402923345565796,5.569244921207428 48.402923345565796,5.569244921207428 48.293691873550415,5.456576123833656 48.293691873550415,5.456576123833656 48.178476095199585,5.368362367153168 48.178476095199585,5.368362367153168 48.05898070335388,5.302874743938446 48.05898070335388,5.302874743938446 47.934919595718384,5.258277803659439 47.934919595718384,5.258277803659439 47.80744016170502,5.232824385166168 47.80744016170502,5.232824385166168 47.67739176750183,5.224731937050819 47.67739176750183,5.224731937050819 47.40360677242279,5.2547309547662735 47.40360677242279,5.2547309547662735 47.12468683719635,5.335582792758942 47.12468683719635,5.335582792758942 46.8474805355072,5.453456565737724 46.8474805355072,5.453456565737724 46.57597839832306,5.594502389431 46.57597839832306,5.594502389431 46.317023038864136,5.7449594140052795 46.317023038864136,5.7449594140052795 46.07574939727783,5.890942364931107 46.07574939727783,5.890942364931107 45.41866481304169,6.320656836032867 45.41866481304169,6.320656836032867 44.78895962238312,6.796091049909592 44.78895962238312,6.796091049909592 44.18492019176483,7.308350503444672 44.18492019176483,7.308350503444672 43.60455274581909,7.848327606916428 43.60455274581909,7.848327606916428 43.04671585559845,8.407091349363327 43.04671585559845,8.407091349363327 42.50969886779785,8.975587785243988 42.50969886779785,8.975587785243988 42.169177532196045,9.547684341669083 42.169177532196045,9.547684341669083 41.98637008666992,10.281450301408768 41.98637008666992,10.281450301408768 41.91478490829468,11.109685897827148 41.91478490829468,11.109685897827148 41.90737009048462,11.965085566043854 41.90737009048462,11.965085566043854 41.9173538684845,12.780451774597168 41.9173538684845,12.780451774597168 41.89824461936951,13.48847895860672 41.89824461936951,13.48847895860672 41.76420271396637,15.086716413497925 41.76420271396637,15.086716413497925 41.6056364774704,16.684402525424957 41.6056364774704,16.684402525424957 41.421687602996826,18.280573189258575 41.421687602996826,18.280573189258575 41.211214661598206,19.874265789985657 41.211214661598206,19.874265789985657 40.97336530685425,21.46453708410263 40.97336530685425,21.46453708410263" stroke="white" stroke-width="0.1" /><polygon points="13.413187861442566,23.052704334259033 13.413187861442566,23.052704334259033 13.095340132713318,21.133534610271454 13.095340132713318,21.133534610271454 12.818418443202972,19.207610189914703 12.818418443202972,19.207610189914703 12.581279873847961,17.27612465620041 12.581279873847961,17.27612465620041 12.381645292043686,15.340235829353333 12.381645292043686,15.340235829353333 12.218514829874039,13.401210308074951 12.218514829874039,13.401210308074951 12.089893221855164,11.460187286138535 12.089893221855164,11.460187286138535 12.079055607318878,11.023557186126709 12.079055607318878,11.023557186126709 12.082763016223907,10.585001856088638 12.082763016223907,10.585001856088638 12.070214748382568,10.15428975224495 12.070214748382568,10.15428975224495 12.010752409696579,9.741241484880447 12.010752409696579,9.741241484880447 11.874572932720184,9.355749934911728 11.874572932720184,9.355749934911728 11.631303280591965,9.00752916932106 11.631303280591965,9.00752916932106 11.388888955116272,8.747220039367676 11.388888955116272,8.747220039367676 11.143766343593597,8.491027355194092 11.143766343593597,8.491027355194092 10.895220190286636,8.238934725522995 10.895220190286636,8.238934725522995 10.642539709806442,7.990799099206924 10.642539709806442,7.990799099206924 10.385295748710632,7.74662047624588 10.385295748710632,7.74662047624588 10.123203694820404,7.506274431943893 10.123203694820404,7.506274431943893 9.625684469938278,7.039128988981247 9.625684469938278,7.039128988981247 9.062856435775757,6.556546688079834 9.062856435775757,6.556546688079834 8.45111832022667,6.095140427350998 8.45111832022667,6.095140427350998 7.80487135052681,5.691521242260933 7.80487135052681,5.691521242260933 7.140371948480606,5.382336676120758 7.140371948480606,5.382336676120758 6.4727358520030975,5.204198136925697 6.4727358520030975,5.204198136925697 6.451774388551712,5.20111471414566 6.451774388551712,5.20111471414566 6.430812180042267,5.198761820793152 6.430812180042267,5.198761820793152 6.409993022680283,5.197068303823471 6.409993022680283,5.197068303823471 6.388889253139496,5.195909738540649 6.388889253139496,5.195909738540649 6.368070095777512,5.195286124944687 6.368070095777512,5.195286124944687 6.347250938415527,5.195071920752525 6.347250938415527,5.195071920752525 5.593486502766609,5.62811940908432 5.593486502766609,5.62811940908432 5.0848450511693954,6.73154816031456 5.0848450511693954,6.73154816031456 4.770990461111069,8.211841434240341 4.770990461111069,8.211841434240341 4.599874839186668,9.775393456220627 4.599874839186668,9.775393456220627 4.521019011735916,11.128686368465424 4.521019011735916,11.128686368465424 4.483230784535408,11.978097259998322 4.483230784535408,11.978097259998322 4.436744377017021,12.468629330396652 4.436744377017021,12.468629330396652 4.384126141667366,13.016930222511292 4.384126141667366,13.016930222511292 4.353468120098114,13.590008020401001 4.353468120098114,13.590008020401001 4.371292516589165,14.154689013957977 4.371292516589165,14.154689013957977 4.4655486941337585,14.677928388118744 4.4655486941337585,14.677928388118744 4.66347262263298,15.126626193523407 4.66347262263298,15.126626193523407 4.974618181586266,15.52274078130722 4.974618181586266,15.52274078130722 5.358487367630005,15.884828567504883 5.358487367630005,15.884828567504883 5.789128690958023,16.21920019388199 5.789128690958023,16.21920019388199 6.239020451903343,16.532056033611298 6.239020451903343,16.532056033611298 6.681925058364868,16.829708218574524 6.681925058364868,16.829708218574524 7.091033458709717,17.118412256240845 7.091033458709717,17.118412256240845 8.228667825460434,18.015700578689575 8.228667825460434,18.015700578689575 9.330082684755325,18.955036997795105 9.330082684755325,18.955036997795105 10.397559404373169,19.93241012096405 10.397559404373169,19.93241012096405 11.432238668203354,20.943792164325714 11.432238668203354,20.943792164325714 12.436972558498383,21.98522835969925 12.436972558498383,21.98522835969925" stroke="white" stroke-width="0.1" /></svg>