<?xml version="1.0" encoding="utf-8" ?>
<svg baseProfile="full" height="78.31591963768005" version="1.1" width="99.99967813491821" xmlns="http://www.w3.org/2000/svg" xmlns:ev="http://www.w3.org/2001/xml-events" xmlns:xlink="http://www.w3.org/1999/xlink"><defs><clipPath /></defs><polygon points="6.7833371460437775,28.449615836143494 6.7833371460437775,28.449615836143494 6.7833371460437775,28.449615836143494 6.7833371460437775,28.449615836143494 6.253904849290848,28.18804681301117 6.253904849290848,28.18804681301117 5.521820858120918,27.78128683567047 5.521820858120918,27.78128683567047 4.7409553080797195,27.262839674949646 4.7409553080797195,27.262839674949646 4.065189138054848,26.665648818016052 4.065189138054848,26.665648818016052 3.648412972688675,26.023375988006592 3.648412972688675,26.023375988006592 3.6444980651140213,25.36904811859131 3.6444980651140213,25.36904811859131 4.354093596339226,24.37666803598404 4.354093596339226,24.37666803598404 5.525462701916695,23.521223664283752 5.525462701916695,23.521223664283752 6.977248936891556,22.789281606674194 6.977248936891556,22.789281606674194 8.528094738721848,22.166596353054047 8.528094738721848,22.166596353054047 9.996643662452698,21.63965255022049 9.996643662452698,21.63965255022049 11.201538890600204,21.19428813457489 11.201538890600204,21.19428813457489 24.634838104248047,15.766063332557678 24.634838104248047,15.766063332557678 55.914461612701416,3.129127621650696 55.914461612701416,3.129127621650696 57.00142979621887,2.681577578186989 57.00142979621887,2.681577578186989 58.08815360069275,2.2252868860960007 58.08815360069275,2.2252868860960007 59.17664170265198,1.769481785595417 59.17664170265198,1.769481785595417 60.268765687942505,1.3230647891759872 60.268765687942505,1.3230647891759872 61.36651635169983,0.8953428827226162 61.36651635169983,0.8953428827226162 62.47183680534363,0.4952995106577873 62.47183680534363,0.4952995106577873 63.17949891090393,0.27144355699419975 63.17949891090393,0.27144355699419975 64.00759220123291,0.07809869712218642 64.00759220123291,0.07809869712218642 64.85121846199036,-0.00016186259017558768 64.85121846199036,-0.00016186259017558768 65.60549736022949,0.12074948754161596 65.60549736022949,0.12074948754161596 66.16554260253906,0.5254059564322233 66.16554260253906,0.5254059564322233 66.42646193504333,1.298137940466404 66.42646193504333,1.298137940466404 66.43654108047485,1.881490834057331 66.43654108047485,1.881490834057331 66.38349294662476,2.4626582860946655 66.38349294662476,2.4626582860946655 66.27852320671082,3.039455786347389 66.27852320671082,3.039455786347389 66.13274216651917,3.6089692264795303 66.13274216651917,3.6089692264795303 65.95734357833862,4.169013723731041 65.95734357833862,4.169013723731041 65.76347351074219,4.716675728559494 65.76347351074219,4.716675728559494 65.55220484733582,5.291611701250076 65.55220484733582,5.291611701250076 65.34056663513184,5.866547673940659 65.34056663513184,5.866547673940659 65.12864828109741,6.441483646631241 65.12864828109741,6.441483646631241 64.91649150848389,7.01625794172287 64.91649150848389,7.01625794172287 64.7042453289032,7.591274380683899 64.7042453289032,7.591274380683899 64.49188590049744,8.166291564702988 64.49188590049744,8.166291564702988 53.59399914741516,37.697798013687134 53.59399914741516,37.697798013687134 53.37546467781067,38.30227255821228 53.37546467781067,38.30227255821228 53.15698981285095,38.91119956970215 53.15698981285095,38.91119956970215 52.930039167404175,39.51842784881592 52.930039167404175,39.51842784881592 52.68602967262268,40.117886662483215 52.68602967262268,40.117886662483215 52.4164080619812,40.703341364860535 52.4164080619812,40.703341364860535 52.11263298988342,41.26913249492645 52.11263298988342,41.26913249492645 50.715214014053345,43.07713806629181 50.715214014053345,43.07713806629181 48.96851181983948,44.41671371459961 48.96851181983948,44.41671371459961 46.9709038734436,45.26778757572174 46.9709038734436,45.26778757572174 44.82070207595825,45.61028778553009 44.82070207595825,45.61028778553009 42.61627495288849,45.42447030544281 42.61627495288849,45.42447030544281 40.45593440532684,44.69026029109955 40.45593440532684,44.69026029109955 31.34242594242096,40.29407203197479 31.34242594242096,40.29407203197479" stroke="white" stroke-width="0.1" /><polygon points="71.93756103515625,46.32701575756073 71.93756103515625,46.32701575756073 71.93756103515625,46.32701575756073 71.93756103515625,46.32701575756073 72.6868212223053,47.019949555397034 72.6868212223053,47.019949555397034 73.44531416893005,47.77916669845581 73.44531416893005,47.77916669845581 74.17774200439453,48.59325289726257 74.17774200439453,48.59325289726257 74.84886050224304,49.450477957725525 74.84886050224304,49.450477957725525 75.42347311973572,50.33959150314331 75.42347311973572,50.33959150314331 75.86628794670105,51.248931884765625 75.86628794670105,51.248931884765625 76.0979950428009,51.81237459182739 76.0979950428009,51.81237459182739 76.34289264678955,52.37039923667908 76.34289264678955,52.37039923667908 76.60179734230042,52.92210578918457 76.60179734230042,52.92210578918457 76.87534093856812,53.46636772155762 76.87534093856812,53.46636772155762 77.16431021690369,54.002779722213745 77.16431021690369,54.002779722213745 77.46937870979309,54.53020930290222 77.46937870979309,54.53020930290222 77.6124656200409,54.76418137550354 77.6124656200409,54.76418137550354 77.75935530662537,54.995810985565186 77.75935530662537,54.995810985565186 77.9099702835083,55.2250862121582 77.9099702835083,55.2250862121582 78.06426286697388,55.45177459716797 78.06426286697388,55.45177459716797 78.22216153144836,55.676037073135376 78.22216153144836,55.676037073135376 78.3835768699646,55.897629261016846 78.3835768699646,55.897629261016846 78.21372151374817,56.01764917373657 78.21372151374817,56.01764917373657 78.04603576660156,56.14050030708313 78.04603576660156,56.14050030708313 77.88050770759583,56.266188621520996 77.88050770759583,56.266188621520996 77.71713137626648,56.394463777542114 77.71713137626648,56.394463777542114 77.55589485168457,56.525492668151855 77.55589485168457,56.525492668151855 77.39686369895935,56.65903091430664 77.39686369895935,56.65903091430664 76.96238160133362,57.041025161743164 76.96238160133362,57.041025161743164 76.61004662513733,57.35819339752197 76.61004662513733,57.35819339752197 76.29425525665283,57.62631893157959 76.29425525665283,57.62631893157959 75.969398021698,57.86117911338806 75.969398021698,57.86117911338806 75.58987140655518,58.07872414588928 75.58987140655518,58.07872414588928 75.11006593704224,58.29448699951172 75.11006593704224,58.29448699951172 47.60896861553192,69.40603256225586 47.60896861553192,69.40603256225586 32.704660296440125,75.42861700057983 32.704660296440125,75.42861700057983 31.474989652633667,75.9545087814331 31.474989652633667,75.9545087814331 30.206745862960815,76.52482986450195 30.206745862960815,76.52482986450195 28.910601139068604,77.09126472473145 28.910601139068604,77.09126472473145 27.597185969352722,77.60534286499023 27.597185969352722,77.60534286499023 26.277145743370056,78.0190646648407 26.277145743370056,78.0190646648407 24.96115416288376,78.28387022018433 24.96115416288376,78.28387022018433 23.150497674942017,78.31591963768005 23.150497674942017,78.31591963768005 21.40401154756546,77.95156836509705 21.40401154756546,77.95156836509705 19.784140586853027,77.2269070148468 19.784140586853027,77.2269070148468 18.35331618785858,76.1777937412262 18.35331618785858,76.1777937412262 17.17400550842285,74.8404860496521 17.17400550842285,74.8404860496521 16.308626532554626,73.25059175491333 16.308626532554626,73.25059175491333 16.122353076934814,72.79090285301208 16.122353076934814,72.79090285301208 15.936362743377686,72.33080863952637 15.936362743377686,72.33080863952637 15.750524401664734,71.87071442604065 15.750524401664734,71.87071442604065 15.564675629138947,71.41037583351135 15.564675629138947,71.41037583351135 15.378695726394653,70.95012068748474 15.378695726394653,70.95012068748474 15.192422270774841,70.48986554145813 15.192422270774841,70.48986554145813 9.474141150712967,56.334006786346436 9.474141150712967,56.334006786346436 3.0462538823485374,40.4222697019577 3.0462538823485374,40.4222697019577 2.354675717651844,38.81303071975708 2.354675717651844,38.81303071975708 1.6028746962547302,37.111449241638184 1.6028746962547302,37.111449241638184 0.8951000869274139,35.34981906414032 0.8951000869274139,35.34981906414032 0.3355917287990451,33.559781312942505 0.3355917287990451,33.559781312942505 0.02858898078557104,31.77354633808136 0.02858898078557104,31.77354633808136 0.07834149291738868,30.022922158241272 0.07834149291738868,30.022922158241272 1.2175911106169224,31.154179573059082 1.2175911106169224,31.154179573059082 2.5141002610325813,32.1203351020813 2.5141002610325813,32.1203351020813 3.920959308743477,32.95910954475403 3.920959308743477,32.95910954475403 5.39126843214035,33.7079644203186 5.39126843214035,33.7079644203186 6.878127902746201,34.40486490726471 6.878127902746201,34.40486490726471 8.334628492593765,35.08727848529816 8.334628492593765,35.08727848529816 20.33058851957321,40.871599316596985 20.33058851957321,40.871599316596985 32.90666341781616,46.93561792373657 32.90666341781616,46.93561792373657 34.06576216220856,47.50990867614746 34.06576216220856,47.50990867614746 35.23181974887848,48.10264706611633 35.23181974887848,48.10264706611633 36.40710413455963,48.69215190410614 36.40710413455963,48.69215190410614 37.59381175041199,49.25608038902283 37.59381175041199,49.25608038902283 38.79420459270477,49.77250397205353 38.79420459270477,49.77250397205353 40.01049101352692,50.2194881439209 40.01049101352692,50.2194881439209 43.84281039237976,50.938159227371216 43.84281039237976,50.938159227371216 47.515350580215454,50.60771703720093 47.515350580215454,50.60771703720093 50.89898705482483,49.33879375457764 50.89898705482483,49.33879375457764 53.86457443237305,47.241783142089844 53.86457443237305,47.241783142089844 56.283020973205566,44.427478313446045 56.283020973205566,44.427478313446045 58.02515149116516,41.0062700510025 58.02515149116516,41.0062700510025 58.75676870346069,39.02393877506256 58.75676870346069,39.02393877506256 59.488385915756226,37.04160749912262 59.488385915756226,37.04160749912262 60.22000312805176,35.05943715572357 60.22000312805176,35.05943715572357 60.95162630081177,33.07718634605408 60.95162630081177,33.07718634605408 61.6832435131073,31.094935536384583 61.6832435131073,31.094935536384583 62.41486072540283,29.11260426044464 62.41486072540283,29.11260426044464 68.46204996109009,12.724341452121735 68.46204996109009,12.724341452121735 69.17403936386108,10.896912962198257 69.17403936386108,10.896912962198257 69.9408233165741,8.980460464954376 69.9408233165741,8.980460464954376 70.67050337791443,7.007516920566559 70.67050337791443,7.007516920566559 71.27109169960022,5.010375380516052 71.27109169960022,5.010375380516052 71.65074348449707,3.021731786429882 71.65074348449707,3.021731786429882 71.71742916107178,1.0741201229393482 71.71742916107178,1.0741201229393482 72.55972027778625,1.8233820796012878 72.55972027778625,1.8233820796012878 73.24943542480469,2.652118541300297 73.24943542480469,2.652118541300297 73.82002472877502,3.5478662699460983 73.82002472877502,3.5478662699460983 74.30492639541626,4.4971901923418045 74.30492639541626,4.4971901923418045 74.73758459091187,5.4877083748579025 74.73758459091187,5.4877083748579025 75.15150308609009,6.506228446960449 75.15150308609009,6.506228446960449 75.64207315444946,7.718903571367264 75.64207315444946,7.718903571367264 76.13227367401123,8.931577950716019 76.13227367401123,8.931577950716019 76.62218809127808,10.144252330064774 76.62218809127808,10.144252330064774 77.11186408996582,11.356845498085022 77.11186408996582,11.356845498085022 77.60143876075745,12.569519877433777 77.60143876075745,12.569519877433777 78.09092998504639,13.782276213169098 78.09092998504639,13.782276213169098 82.95975923538208,25.831326842308044 82.95975923538208,25.831326842308044 82.47877955436707,25.91889500617981 82.47877955436707,25.91889500617981 81.99960589408875,26.017308235168457 81.99960589408875,26.017308235168457 81.52273893356323,26.126888394355774 81.52273893356323,26.126888394355774 81.04866743087769,26.247799396514893 81.04866743087769,26.247799396514893 80.57790994644165,26.380527019500732 80.57790994644165,26.380527019500732 80.11097311973572,26.52539312839508 80.11097311973572,26.52539312839508 79.69138622283936,26.650512218475342 79.69138622283936,26.650512218475342 79.36308979988098,26.71590745449066 79.36308979988098,26.71590745449066 79.08055782318115,26.72545611858368 79.08055782318115,26.72545611858368 78.79822850227356,26.6827255487442 78.79822850227356,26.6827255487442 78.47058176994324,26.591596007347107 78.47058176994324,26.591596007347107 78.05208563804626,26.45546793937683 78.05208563804626,26.45546793937683 77.51389145851135,26.295387744903564 77.51389145851135,26.295387744903564 76.96549892425537,26.167353987693787 76.96549892425537,26.167353987693787 76.40982270240784,26.073473691940308 76.40982270240784,26.073473691940308 75.84958076477051,26.015770435333252 75.84958076477051,26.015770435333252 75.2876341342926,25.99658966064453 75.2876341342926,25.99658966064453 74.72677826881409,26.017794013023376 74.72677826881409,26.017794013023376 73.11033606529236,26.31610631942749 73.11033606529236,26.31610631942749 71.63819670677185,26.93474292755127 71.63819670677185,26.93474292755127 70.33382654190063,27.833080291748047 70.33382654190063,27.833080291748047 69.22065615653992,28.96992266178131 69.22065615653992,28.96992266178131 68.32215785980225,30.304479598999023 68.32215785980225,30.304479598999023 67.6617980003357,31.79563879966736 67.6617980003357,31.79563879966736 67.23150610923767,33.28307569026947 67.23150610923767,33.28307569026947 66.92485809326172,34.88430082798004 66.92485809326172,34.88430082798004 66.7654037475586,36.54242157936096 66.7654037475586,36.54242157936096 66.77665710449219,38.200217485427856 66.77665710449219,38.200217485427856 66.98213815689087,39.800795912742615 66.98213815689087,39.800795912742615 67.40540862083435,41.28726124763489 67.40540862083435,41.28726124763489 67.92960166931152,42.362597584724426 67.92960166931152,42.362597584724426 68.5844361782074,43.277525901794434 68.5844361782074,43.277525901794434 69.34128403663635,44.08198297023773 69.34128403663635,44.08198297023773 70.17149925231934,44.825172424316406 70.17149925231934,44.825172424316406 71.04646563529968,45.5571174621582 71.04646563529968,45.5571174621582" stroke="white" stroke-width="0.1" /><polygon points="99.79605674743652,35.381218791007996 99.79605674743652,35.381218791007996 99.88518357276917,36.16164028644562 99.88518357276917,36.16164028644562 99.96862411499023,36.99215650558472 99.96862411499023,36.99215650558472 99.99967813491821,37.83861696720123 99.99967813491821,37.83861696720123 99.93165731430054,38.66654336452484 99.93165731430054,38.66654336452484 99.7179388999939,39.44211006164551 99.7179388999939,39.44211006164551 99.311763048172,40.130916237831116 99.311763048172,40.130916237831116 98.93569350242615,40.53581357002258 98.93569350242615,40.53581357002258 98.5192060470581,40.90421497821808 98.5192060470581,40.90421497821808 98.07707667350769,41.24906361103058 98.07707667350769,41.24906361103058 97.62416481971741,41.58298373222351 97.62416481971741,41.58298373222351 97.17527627944946,41.919174790382385 97.17527627944946,41.919174790382385 96.74527049064636,42.27009117603302 96.74527049064636,42.27009117603302 95.56422233581543,43.37237477302551 95.56422233581543,43.37237477302551 94.46537494659424,44.549360871315 94.46537494659424,44.549360871315 93.45589876174927,45.797401666641235 93.45589876174927,45.797401666641235 92.54287481307983,47.11253345012665 92.54287481307983,47.11253345012665 91.73345565795898,48.49168360233307 91.73345565795898,48.49168360233307 91.0347580909729,49.9307245016098 91.0347580909729,49.9307245016098 90.69148898124695,50.679826736450195 90.69148898124695,50.679826736450195 90.30953049659729,51.423096656799316 90.30953049659729,51.423096656799316 89.8816466331482,52.144843339920044 89.8816466331482,52.144843339920044 89.40067291259766,52.828794717788696 89.40067291259766,52.828794717788696 88.85944485664368,53.45924496650696 88.85944485664368,53.45924496650696 88.25072050094604,54.020023345947266 88.25072050094604,54.020023345947266 87.96986937522888,54.50334548950195 87.96986937522888,54.50334548950195 87.92114853858948,55.20898103713989 87.92114853858948,55.20898103713989 88.04062604904175,56.03423714637756 88.04062604904175,56.03423714637756 88.26431632041931,56.87616467475891 88.26431632041931,56.87616467475891 88.52835893630981,57.632386684417725 88.52835893630981,57.632386684417725 88.76867890357971,58.19995999336243 88.76867890357971,58.19995999336243 89.38626646995544,59.021008014678955 89.38626646995544,59.021008014678955 90.30107259750366,59.830242395401 90.30107259750366,59.830242395401 91.29114747047424,60.65865159034729 91.29114747047424,60.65865159034729 92.1344518661499,61.5367591381073 92.1344518661499,61.5367591381073 92.60901212692261,62.495630979537964 92.60901212692261,62.495630979537964 92.49281883239746,63.56602907180786 92.49281883239746,63.56602907180786 92.06703901290894,63.72999548912048 92.06703901290894,63.72999548912048 91.14112257957458,63.7884259223938 91.14112257957458,63.7884259223938 89.95092511177063,63.7751579284668 89.95092511177063,63.7751579284668 88.73222470283508,63.723766803741455 88.73222470283508,63.723766803741455 87.72086501121521,63.668328523635864 87.72086501121521,63.668328523635864 87.15264797210693,63.64243030548096 87.15264797210693,63.64243030548096 79.8571765422821,63.64243030548096 79.8571765422821,63.64243030548096 79.63230609893799,63.56683969497681 79.63230609893799,63.56683969497681 79.51196432113647,63.3703351020813 79.51196432113647,63.3703351020813 79.47291135787964,63.098567724227905 79.47291135787964,63.098567724227905 79.49188947677612,62.796854972839355 79.49188947677612,62.796854972839355 79.5457124710083,62.51116991043091 79.5457124710083,62.51116991043091 79.61114645004272,62.2866690158844 79.61114645004272,62.2866690158844 80.05863428115845,61.46149039268494 80.05863428115845,61.46149039268494 80.68752884864807,60.79137921333313 80.68752884864807,60.79137921333313 81.41429424285889,60.201555490493774 81.41429424285889,60.201555490493774 82.1552574634552,59.617066383361816 82.1552574634552,59.617066383361816 82.82693028450012,58.963221311569214 82.82693028450012,58.963221311569214 83.34563970565796,58.16499590873718 83.34563970565796,58.16499590873718 83.57335925102234,57.607704401016235 83.57335925102234,57.607704401016235 83.75511169433594,57.03284740447998 83.75511169433594,57.03284740447998 83.89629125595093,56.445205211639404 83.89629125595093,56.445205211639404 84.00227427482605,55.84914684295654 84.00227427482605,55.84914684295654 84.07850861549377,55.24953007698059 84.07850861549377,55.24953007698059 84.13034677505493,54.65063452720642 84.13034677505493,54.65063452720642 84.0656042098999,54.318493604660034 84.0656042098999,54.318493604660034 83.86090397834778,53.989022970199585 83.86090397834778,53.989022970199585 83.56674313545227,53.665220737457275 83.56674313545227,53.665220737457275 83.23350548744202,53.349506855010986 83.23350548744202,53.349506855010986 82.91164636611938,53.044795989990234 82.91164636611938,53.044795989990234 82.65157341957092,52.75360941886902 82.65157341957092,52.75360941886902 81.9965124130249,51.75928473472595 81.9965124130249,51.75928473472595 81.44261837005615,50.71948170661926 81.44261837005615,50.71948170661926 80.9390664100647,49.657824635505676 80.9390664100647,49.657824635505676 80.43506741523743,48.59705865383148 80.43506741523743,48.59705865383148 79.87987399101257,47.56065011024475 79.87987399101257,47.56065011024475 79.22267317771912,46.571752429008484 79.22267317771912,46.571752429008484 78.6532998085022,45.83325386047363 78.6532998085022,45.83325386047363 78.06723713874817,45.10584473609924 78.06723713874817,45.10584473609924 77.46160626411438,44.39421594142914 77.46160626411438,44.39421594142914 76.8335223197937,43.70257556438446 76.8335223197937,43.70257556438446 76.18012428283691,43.03586483001709 76.18012428283691,43.03586483001709 75.49853920936584,42.39828586578369 75.49853920936584,42.39828586578369 74.70670938491821,41.737160086631775 74.70670938491821,41.737160086631775 73.92556071281433,41.121190786361694 73.92556071281433,41.121190786361694 73.21595549583435,40.48701226711273 73.21595549583435,40.48701226711273 72.6386308670044,39.770689606666565 72.6386308670044,39.770689606666565 72.25440740585327,38.90885412693024 72.25440740585327,38.90885412693024 72.12402820587158,37.837645411491394 72.12402820587158,37.837645411491394 72.13556170463562,36.81127727031708 72.13556170463562,36.81127727031708 72.1972107887268,35.67880392074585 72.1972107887268,35.67880392074585 72.35743403434753,34.52270030975342 72.35743403434753,34.52270030975342 72.66460657119751,33.425191044807434 72.66460657119751,33.425191044807434 73.1671929359436,32.46890604496002 73.1671929359436,32.46890604496002 73.91358017921448,31.736072897911072 73.91358017921448,31.736072897911072 74.31920766830444,31.514647603034973 74.31920766830444,31.514647603034973 74.74057674407959,31.37657642364502 74.74057674407959,31.37657642364502 75.17319321632385,31.315556168556213 75.17319321632385,31.315556168556213 75.61249136924744,31.32437765598297 75.61249136924744,31.32437765598297 76.05392932891846,31.396973133087158 76.05392932891846,31.396973133087158 76.4930248260498,31.526300311088562 76.4930248260498,31.526300311088562 76.85016989707947,31.713250279426575 76.85016989707947,31.713250279426575 77.30419635772705,32.01593458652496 77.30419635772705,32.01593458652496 77.79925465583801,32.357627153396606 77.79925465583801,32.357627153396606 78.27939987182617,32.66160488128662 78.27939987182617,32.66160488128662 78.68877053260803,32.85171091556549 78.68877053260803,32.85171091556549 78.97146344184875,32.85098373889923 78.97146344184875,32.85098373889923 80.93030452728271,31.872200965881348 80.93030452728271,31.872200965881348 83.0009937286377,31.22555911540985 83.0009937286377,31.22555911540985 85.13875007629395,30.913811922073364 85.13875007629395,30.913811922073364 87.29872703552246,30.939549207687378 87.29872703552246,30.939549207687378 89.43611979484558,31.305518746376038 89.43611979484558,31.305518746376038 91.50609970092773,32.014477252960205 91.50609970092773,32.014477252960205 91.88587069511414,32.21178948879242 91.88587069511414,32.21178948879242 92.27383732795715,32.44317173957825 92.27383732795715,32.44317173957825 92.6617980003357,32.656264305114746 92.6617980003357,32.656264305114746 93.0415689945221,32.79813528060913 93.0415689945221,32.79813528060913 93.4049129486084,32.81634449958801 93.4049129486084,32.81634449958801 93.74368786811829,32.65804350376129 93.74368786811829,32.65804350376129 94.18893456459045,32.31246769428253 94.18893456459045,32.31246769428253 94.65538263320923,31.998291611671448 94.65538263320923,31.998291611671448 95.14445066452026,31.728142499923706 95.14445066452026,31.728142499923706 95.65743207931519,31.51375651359558 95.65743207931519,31.51375651359558 96.19576930999756,31.367838382720947 96.19576930999756,31.367838382720947 96.7608094215393,31.302282214164734 96.7608094215393,31.302282214164734 97.72140383720398,31.445369124412537 97.72140383720398,31.445369124412537 98.46566915512085,31.935328245162964 98.46566915512085,31.935328245162964 99.01943802833557,32.673096656799316 99.01943802833557,32.673096656799316 99.40853714942932,33.55937600135803 99.40853714942932,33.55937600135803 99.65879917144775,34.49510335922241 99.65879917144775,34.49510335922241" stroke="white" stroke-width="0.1" /><polygon points="75.75752139091492,39.69712257385254 75.75752139091492,39.69712257385254 76.34453177452087,40.157702565193176 76.34453177452087,40.157702565193176 76.9124686717987,40.64037799835205 76.9124686717987,40.64037799835205 77.46257781982422,41.14336669445038 77.46257781982422,41.14336669445038 77.9960572719574,41.66423976421356 77.9960572719574,41.66423976421356 78.51415872573853,42.20105707645416 78.51415872573853,42.20105707645416 79.01808023452759,42.751795053482056 79.01808023452759,42.751795053482056 78.84504795074463,41.69960618019104 78.84504795074463,41.69960618019104 78.69560718536377,40.643614530563354 78.69560718536377,40.643614530563354 78.5687506198883,39.584630727767944 78.5687506198883,39.584630727767944 78.46345901489258,38.52297365665436 78.46345901489258,38.52297365665436 78.37876081466675,37.45969831943512 78.37876081466675,37.45969831943512 78.31365466117859,36.39512658119202 78.31365466117859,36.39512658119202 78.16087603569031,35.79947352409363 78.16087603569031,35.79947352409363 77.79759764671326,35.16570031642914 77.79759764671326,35.16570031642914 77.28096842765808,34.55911874771118 77.28096842765808,34.55911874771118 76.66805982589722,34.044963121414185 76.66805982589722,34.044963121414185 76.01603269577026,33.68862271308899 76.01603269577026,33.68862271308899 75.382000207901,33.55540931224823 75.382000207901,33.55540931224823 74.99979734420776,33.75158607959747 74.99979734420776,33.75158607959747 74.74403977394104,34.25263166427612 74.74403977394104,34.25263166427612 74.58757758140564,34.92848873138428 74.58757758140564,34.92848873138428 74.50318336486816,35.64805090427399 74.50318336486816,35.64805090427399 74.46368932723999,36.28109395503998 74.46368932723999,36.28109395503998 74.44189786911011,36.696839332580566 74.44189786911011,36.696839332580566 74.4003415107727,37.4274879693985 74.4003415107727,37.4274879693985 74.43133592605591,37.99465298652649 74.43133592605591,37.99465298652649 74.55876469612122,38.451915979385376 74.55876469612122,38.451915979385376 74.80637431144714,38.85244429111481 74.80637431144714,38.85244429111481 75.1980185508728,39.249736070632935 75.1980185508728,39.249736070632935" stroke="white" stroke-width="0.1" /><polygon points="97.54810929298401,38.7272447347641 97.54810929298401,38.7272447347641 97.7756679058075,38.00145089626312 97.7756679058075,38.00145089626312 97.83624410629272,36.86865568161011 97.83624410629272,36.86865568161011 97.7174162864685,35.60264706611633 97.7174162864685,35.60264706611633 97.4067211151123,34.47681367397308 97.4067211151123,34.47681367397308 96.89171314239502,33.765020966529846 96.89171314239502,33.765020966529846 96.15997672080994,33.7405800819397 96.15997672080994,33.7405800819397 95.7834005355835,33.94816815853119 95.7834005355835,33.94816815853119 95.42465209960938,34.1903954744339 95.42465209960938,34.1903954744339 95.08261680603027,34.45989787578583 95.08261680603027,34.45989787578583 94.75610256195068,34.74922776222229 94.75610256195068,34.74922776222229 94.44398880004883,35.05102097988129 94.44398880004883,35.05102097988129 94.14510726928711,35.35791039466858 94.14510726928711,35.35791039466858 93.94598007202148,35.615274310112 93.94598007202148,35.615274310112 93.83049011230469,35.872310400009155 93.83049011230469,35.872310400009155 93.77573728561401,36.137279868125916 93.77573728561401,36.137279868125916 93.75874400138855,36.41851544380188 93.75874400138855,36.41851544380188 93.7565565109253,36.724355816841125 93.7565565109253,36.724355816841125 93.74628067016602,37.063294649124146 93.74628067016602,37.063294649124146 93.6786413192749,38.015857338905334 93.6786413192749,38.015857338905334 93.59443187713623,38.96712362766266 93.59443187713623,38.96712362766266 93.49312782287598,39.91677165031433 93.49312782287598,39.91677165031433 93.37409734725952,40.864235162734985 93.37409734725952,40.864235162734985 93.23681592941284,41.80951118469238 93.23681592941284,41.80951118469238 93.08069944381714,42.751795053482056 93.08069944381714,42.751795053482056 93.54375004768372,42.243221402168274 93.54375004768372,42.243221402168274 94.01918053627014,41.74727499485016 94.01918053627014,41.74727499485016 94.50768232345581,41.26508831977844 94.50768232345581,41.26508831977844 95.00998258590698,40.797385573387146 95.00998258590698,40.797385573387146 95.52685022354126,40.345221757888794 95.52685022354126,40.345221757888794 96.05897068977356,39.90948796272278 96.05897068977356,39.90948796272278 96.2922990322113,39.74285125732422 96.2922990322113,39.74285125732422 96.56762480735779,39.564719796180725 96.56762480735779,39.564719796180725 96.85792922973633,39.3746942281723 96.85792922973633,39.3746942281723 97.13612794876099,39.17204141616821 97.13612794876099,39.17204141616821 97.3751962184906,38.956522941589355 97.3751962184906,38.956522941589355" stroke="white" stroke-width="0.1" /></svg>