<?xml version="1.0" encoding="utf-8" ?>
<svg baseProfile="full" height="34.52093303203583" version="1.1" width="99.99896883964539" xmlns="http://www.w3.org/2000/svg" xmlns:ev="http://www.w3.org/2001/xml-events" xmlns:xlink="http://www.w3.org/1999/xlink"><defs><clipPath /></defs><polygon points="22.31190949678421,16.68761968612671 22.31190949678421,16.68761968612671 22.31190949678421,16.686353087425232 22.31190949678421,16.686353087425232 22.31254279613495,16.686353087425232 22.31254279613495,16.686353087425232" stroke="white" stroke-width="0.1" /><polygon points="48.245516419410706,19.194340705871582 48.245516419410706,19.194340705871582 48.24070632457733,19.237565994262695 48.24070632457733,19.237565994262695 48.227861523628235,19.353504478931427 48.227861523628235,19.353504478931427 48.20949733257294,19.52161341905594 48.20949733257294,19.52161341905594 48.18798303604126,19.72126215696335 48.18798303604126,19.72126215696335 48.16583693027496,19.93190348148346 48.16583693027496,19.93190348148346 48.14545214176178,20.132936537265778 48.14545214176178,20.132936537265778 46.291929483413696,19.09930109977722 46.291929483413696,19.09930109977722 44.410327076911926,18.225394189357758 44.410327076911926,18.225394189357758 42.52163767814636,17.484982311725616 42.52163767814636,17.484982311725616 40.646761655807495,16.851800680160522 40.646761655807495,16.851800680160522 38.80665898323059,16.29963517189026 38.80665898323059,16.29963517189026 37.02227175235748,15.802223980426788 37.02227175235748,15.802223980426788 37.017837166786194,15.79715758562088 37.017837166786194,15.79715758562088 37.013405561447144,15.792040526866913 37.013405561447144,15.792040526866913 37.008970975875854,15.78686535358429 37.008970975875854,15.78686535358429 37.00451850891113,15.781570971012115 37.00451850891113,15.781570971012115 37.000083923339844,15.776148438453674 37.000083923339844,15.776148438453674 36.995670199394226,15.770557522773743 36.995670199394226,15.770557522773743 36.45427227020264,15.160530805587769 36.45427227020264,15.160530805587769 35.896921157836914,14.557284116744995 35.896921157836914,14.557284116744995 35.32320559024811,13.961924612522125 35.32320559024811,13.961924612522125 34.73268449306488,13.375519216060638 34.73268449306488,13.375519216060638 34.12500321865082,12.799198925495148 34.12500321865082,12.799198925495148 33.499687910079956,12.234041094779968 33.499687910079956,12.234041094779968 33.432239294052124,12.173696607351303 33.432239294052124,12.173696607351303 33.36518406867981,12.113133817911148 33.36518406867981,12.113133817911148 33.29820930957794,12.052591890096664 33.29820930957794,12.052591890096664 33.230918645858765,11.992227286100388 33.230918645858765,11.992227286100388 33.16311240196228,11.932318657636642 33.16311240196228,11.932318657636642 33.09435546398163,11.873042583465576 33.09435546398163,11.873042583465576 32.587930560112,11.452986299991608 32.587930560112,11.452986299991608 32.0526659488678,11.027704924345016 32.0526659488678,11.027704924345016 31.48649036884308,10.603215545415878 31.48649036884308,10.603215545415878 30.887261033058167,10.185465216636658 30.887261033058167,10.185465216636658 30.252861976623535,9.780459851026535 30.252861976623535,9.780459851026535 29.5812726020813,9.394188225269318 29.5812726020813,9.394188225269318 29.574307799339294,9.387854486703873 29.574307799339294,9.387854486703873 29.231873154640198,9.030438959598541 29.231873154640198,9.030438959598541 29.06641662120819,8.712625503540039 29.06641662120819,8.712625503540039 29.07310426235199,8.447042852640152 29.07310426235199,8.447042852640152 29.246994853019714,8.246257156133652 29.246994853019714,8.246257156133652 29.58333194255829,8.122885972261429 29.58333194255829,8.122885972261429 30.077171325683594,8.089527487754822 30.077171325683594,8.089527487754822 38.24649751186371,8.31625983119011 38.24649751186371,8.31625983119011 37.38010227680206,5.429540574550629 37.38010227680206,5.429540574550629 37.29036748409271,4.93122823536396 37.29036748409271,4.93122823536396 37.34125196933746,4.5383259654045105 37.34125196933746,4.5383259654045105 37.51998841762543,4.26231287419796 37.51998841762543,4.26231287419796 37.81369626522064,4.1146378964185715 37.81369626522064,4.1146378964185715 38.20960819721222,4.106810316443443 38.20960819721222,4.106810316443443 38.694897294044495,4.250279441475868 38.694897294044495,4.250279441475868 41.475215554237366,5.428273603320122 41.475215554237366,5.428273603320122 42.88690984249115,0.9417621418833733 42.88690984249115,0.9417621418833733 43.0993527173996,0.47434456646442413 43.0993527173996,0.47434456646442413 43.381500244140625,0.1638445188291371 43.381500244140625,0.1638445188291371 43.714433908462524,0.013933266745880246 43.714433908462524,0.013933266745880246 44.07927393913269,0.028262363048270345 44.07927393913269,0.028262363048270345 44.45721209049225,0.21049324423074722 44.45721209049225,0.21049324423074722 44.82933282852173,0.5642972886562347 44.82933282852173,0.5642972886562347 47.81801998615265,4.197079688310623 47.81801998615265,4.197079688310623 49.95487630367279,2.0640233531594276 49.95487630367279,2.0640233531594276 50.35141706466675,1.749357208609581 50.35141706466675,1.749357208609581 50.721484422683716,1.6083026304841042 50.721484422683716,1.6083026304841042 51.04902982711792,1.63510050624609 51.04902982711792,1.63510050624609 51.31791830062866,1.823912002146244 51.31791830062866,1.823912002146244 51.51207447052002,2.1689582616090775 51.51207447052002,2.1689582616090775 51.61546468734741,2.6644203811883926 51.61546468734741,2.6644203811883926 51.89223289489746,5.667672678828239 51.89223289489746,5.667672678828239 59.38326120376587,2.3996884003281593 59.38326120376587,2.3996884003281593 59.85366702079773,2.2461453452706337 59.85366702079773,2.2461453452706337 60.21173596382141,2.234933525323868 60.21173596382141,2.234933525323868 60.44820547103882,2.3561470210552216 60.44820547103882,2.3561470210552216 60.55373549461365,2.5999000295996666 60.55373549461365,2.5999000295996666 60.51921844482422,2.9563361778855324 60.51921844482422,2.9563361778855324 60.33515930175781,3.4155502915382385 60.33515930175781,3.4155502915382385 58.2369327545166,7.4853308498859406 58.2369327545166,7.4853308498859406 60.10335683822632,7.3333315551280975 60.10335683822632,7.3333315551280975 60.593003034591675,7.334192097187042 60.593003034591675,7.334192097187042 60.9203577041626,7.422086596488953 60.9203577041626,7.422086596488953 61.08145713806152,7.5863465666770935 61.08145713806152,7.5863465666770935 61.07211709022522,7.816235721111298 61.07211709022522,7.816235721111298 60.88821291923523,8.101125806570053 60.88821291923523,8.101125806570053 60.525792837142944,8.430258929729462 60.525792837142944,8.430258929729462 58.6530327796936,9.867919236421585 58.6530327796936,9.867919236421585 58.630311489105225,9.868651628494263 58.630311489105225,9.868651628494263 58.607351779937744,9.869462996721268 58.607351779937744,9.869462996721268 58.58392119407654,9.870293736457825 58.58392119407654,9.870293736457825 58.559536933898926,9.87100675702095 58.559536933898926,9.87100675702095 58.53396654129028,9.871520847082138 58.53396654129028,9.871520847082138 58.50673317909241,9.871719032526016 58.50673317909241,9.871719032526016 58.360594511032104,9.870947152376175 58.360594511032104,9.870947152376175 58.19196701049805,9.86299067735672 58.19196701049805,9.86299067735672 58.00181031227112,9.84891876578331 58.00181031227112,9.84891876578331 57.791030406951904,9.829770773649216 57.791030406951904,9.829770773649216 57.560694217681885,9.8066046833992 57.560694217681885,9.8066046833992 57.31164216995239,9.78051945567131 57.31164216995239,9.78051945567131 57.11321234703064,9.759144484996796 57.11321234703064,9.759144484996796 56.90504312515259,9.737027436494827 56.90504312515259,9.737027436494827 56.686460971832275,9.71449464559555 56.686460971832275,9.71449464559555 56.4568817615509,9.691833704710007 56.4568817615509,9.691833704710007 56.21558427810669,9.669419378042221 56.21558427810669,9.669419378042221 55.96201419830322,9.647519886493683 55.96201419830322,9.647519886493683 55.947089195251465,9.646579623222351 55.947089195251465,9.646579623222351 55.91427683830261,9.6441850066185 55.91427683830261,9.6441850066185 55.863529443740845,9.641028195619583 55.863529443740845,9.641028195619583 55.7948112487793,9.637752920389175 55.7948112487793,9.637752920389175 55.708205699920654,9.63505133986473 55.708205699920654,9.63505133986473 55.603545904159546,9.633586555719376 55.603545904159546,9.633586555719376 54.89758253097534,9.682828187942505 54.89758253097534,9.682828187942505 54.226887226104736,9.837004542350769 54.226887226104736,9.837004542350769 53.60594391822815,10.073593258857727 53.60594391822815,10.073593258857727 53.04906964302063,10.370021313428879 53.04906964302063,10.370021313428879 52.57080793380737,10.703756660223007 52.57080793380737,10.703756660223007 52.18546390533447,11.052246391773224 52.18546390533447,11.052246391773224 51.724499464035034,11.572141200304031 51.724499464035034,11.572141200304031 51.36791467666626,12.062477320432663 51.36791467666626,12.062477320432663 51.0953426361084,12.52283900976181 51.0953426361084,12.52283900976181 50.886404514312744,12.952782213687897 50.886404514312744,12.952782213687897 50.72076916694641,13.351938128471375 50.72076916694641,13.351938128471375 50.57806968688965,13.719834387302399 50.57806968688965,13.719834387302399 50.46486258506775,14.05733972787857 50.46486258506775,14.05733972787857 50.36907196044922,14.369165897369385 50.36907196044922,14.369165897369385 50.28975009918213,14.647345244884491 50.28975009918213,14.647345244884491 50.22591948509216,14.883925020694733 50.22591948509216,14.883925020694733 50.176697969436646,15.07098376750946 50.176697969436646,15.07098376750946 50.141072273254395,15.200559794902802 50.141072273254395,15.200559794902802 50.10875463485718,15.32057672739029 50.10875463485718,15.32057672739029 50.07936358451843,15.433575212955475 50.07936358451843,15.433575212955475 50.05280375480652,15.53954929113388 50.05280375480652,15.53954929113388 50.02877712249756,15.638437867164612 50.02877712249756,15.638437867164612 50.007182359695435,15.730232000350952 50.007182359695435,15.730232000350952 49.987807869911194,15.814889967441559 49.987807869911194,15.814889967441559 49.900686740875244,15.893581509590149 49.900686740875244,15.893581509590149 49.8086541891098,15.980397164821625 49.8086541891098,15.980397164821625 49.712151288986206,16.07566326856613 49.712151288986206,16.07566326856613 49.611473083496094,16.17966890335083 49.611473083496094,16.17966890335083 49.507129192352295,16.292788088321686 49.507129192352295,16.292788088321686 49.399444460868835,16.41528755426407 49.399444460868835,16.41528755426407 49.11290109157562,16.784578561782837 49.11290109157562,16.784578561782837 48.8520085811615,17.215441167354584 48.8520085811615,17.215441167354584 48.6258327960968,17.689864337444305 48.6258327960968,17.689864337444305 48.44333231449127,18.18981021642685 48.44333231449127,18.18981021642685 48.313578963279724,18.69732439517975 48.313578963279724,18.69732439517975" stroke="white" stroke-width="0.1" /><polygon points="46.88005745410919,27.832964062690735 46.88005745410919,27.832964062690735 46.94629907608032,27.912548184394836 46.94629907608032,27.912548184394836 47.14221656322479,28.013107180595398 47.14221656322479,28.013107180595398 47.40770161151886,28.125089406967163 47.40770161151886,28.125089406967163 47.68248498439789,28.238829970359802 47.68248498439789,28.238829970359802 47.90646731853485,28.344804048538208 47.90646731853485,28.344804048538208 48.019418120384216,28.433361649513245 48.019418120384216,28.433361649513245 48.04435670375824,28.61795723438263 48.04435670375824,28.61795723438263 48.00299108028412,28.875744342803955 48.00299108028412,28.875744342803955 47.919827699661255,29.169291257858276 47.919827699661255,29.169291257858276 47.81922698020935,29.461130499839783 47.81922698020935,29.461130499839783 47.72563278675079,29.713836312294006 47.72563278675079,29.713836312294006 47.66348600387573,29.890021681785583 47.66348600387573,29.890021681785583 47.52597510814667,30.35421371459961 47.52597510814667,30.35421371459961 47.37783372402191,30.834516882896423 47.37783372402191,30.834516882896423 47.20432162284851,31.31169080734253 47.20432162284851,31.31169080734253 46.99069261550903,31.766343116760254 46.99069261550903,31.766343116760254 46.72220051288605,32.1792334318161 46.72220051288605,32.1792334318161 46.3841587305069,32.5310081243515 46.3841587305069,32.5310081243515 45.92382609844208,32.832711935043335 45.92382609844208,32.832711935043335 45.436716079711914,33.014556765556335 45.436716079711914,33.014556765556335 44.92908418178558,33.10322463512421 44.92908418178558,33.10322463512421 44.407081604003906,33.125388622283936 44.407081604003906,33.125388622283936 43.87692213058472,33.107736706733704 43.87692213058472,33.107736706733704 43.344807624816895,33.07693898677826 43.344807624816895,33.07693898677826 43.780240416526794,32.039761543273926 43.780240416526794,32.039761543273926 44.02933716773987,30.980655550956726 44.02933716773987,30.980655550956726 44.10234987735748,29.917412996292114 44.10234987735748,29.917412996292114 44.00944709777832,28.867757320404053 44.00944709777832,28.867757320404053 43.76092553138733,27.84952223300934 43.76092553138733,27.84952223300934 43.36697459220886,26.88043713569641 43.36697459220886,26.88043713569641 42.91734993457794,26.097512245178223 42.91734993457794,26.097512245178223 42.372408509254456,25.37752389907837 42.372408509254456,25.37752389907837 41.73836410045624,24.731706082820892 41.73836410045624,24.731706082820892 41.02131724357605,24.171267449855804 41.02131724357605,24.171267449855804 40.22749662399292,23.7074613571167 40.22749662399292,23.7074613571167 39.363059401512146,23.3515202999115 39.363059401512146,23.3515202999115 39.142778515815735,23.281458020210266 39.142778515815735,23.281458020210266 38.9194130897522,23.217491805553436 38.9194130897522,23.217491805553436 38.69275748729706,23.160412907600403 38.69275748729706,23.160412907600403 38.46254348754883,23.11103343963623 38.46254348754883,23.11103343963623 38.228586316108704,23.07017296552658 38.228586316108704,23.07017296552658 37.99063265323639,23.038655519485474 37.99063265323639,23.038655519485474 35.7313871383667,23.16949814558029 35.7313871383667,23.16949814558029 33.71981084346771,23.995399475097656 33.71981084346771,23.995399475097656 32.07525014877319,25.381818413734436 32.07525014877319,25.381818413734436 30.917006731033325,27.194133400917053 30.917006731033325,27.194133400917053 30.364486575126648,29.29779887199402 30.364486575126648,29.29779887199402 30.536970496177673,31.558215618133545 30.536970496177673,31.558215618133545 28.235921263694763,31.047412753105164 28.235921263694763,31.047412753105164 25.93291401863098,30.5772066116333 25.93291401863098,30.5772066116333 23.62472265958786,30.152538418769836 23.62472265958786,30.152538418769836 21.308021247386932,29.778319597244263 21.308021247386932,29.778319597244263 18.979522585868835,29.459476470947266 18.979522585868835,29.459476470947266 16.63600355386734,29.20095920562744 16.63600355386734,29.20095920562744 17.334942519664764,27.198585867881775 17.334942519664764,27.198585867881775 17.38523244857788,25.15140473842621 17.38523244857788,25.15140473842621 16.84737652540207,23.196829855442047 16.84737652540207,23.196829855442047 15.781818330287933,21.472251415252686 15.781818330287933,21.472251415252686 14.24911916255951,20.115093886852264 14.24911916255951,20.115093886852264 12.30972409248352,19.26274001598358 12.30972409248352,19.26274001598358 10.233370214700699,19.054295122623444 10.233370214700699,19.054295122623444 8.25878530740738,19.464653730392456 8.25878530740738,19.464653730392456 6.500660628080368,20.409701764583588 6.500660628080368,20.409701764583588 5.073648318648338,21.80524468421936 5.073648318648338,21.80524468421936 4.0924616158008575,23.56714904308319 4.0924616158008575,23.56714904308319 3.671732172369957,25.611242651939392 3.671732172369957,25.611242651939392 3.269369527697563,25.32181143760681 3.269369527697563,25.32181143760681 2.8660371899604797,25.033220648765564 2.8660371899604797,25.033220648765564 2.461121417582035,24.746747314929962 2.461121417582035,24.746747314929962 2.0538505166769028,24.46363866329193 2.0538505166769028,24.46363866329193 1.6436107456684113,24.1851806640625 1.6436107456684113,24.1851806640625 1.2296107597649097,23.9126518368721 1.2296107597649097,23.9126518368721 1.0580574162304401,23.813791573047638 1.0580574162304401,23.813791573047638 0.8718781173229218,23.71707111597061 0.8718781173229218,23.71707111597061 0.6851050071418285,23.614510893821716 0.6851050071418285,23.614510893821716 0.5117110908031464,23.498116433620453 0.5117110908031464,23.498116433620453 0.3657878143712878,23.359912633895874 0.3657878143712878,23.359912633895874 0.26124874129891396,23.191921412944794 0.26124874129891396,23.191921412944794 0.09060581214725971,22.63564020395279 0.09060581214725971,22.63564020395279 0.012310357124079019,22.033293545246124 0.012310357124079019,22.033293545246124 0.003404150265851058,21.405771374702454 0.003404150265851058,21.405771374702454 0.0408695952501148,20.773886144161224 0.0408695952501148,20.773886144161224 0.10176826035603881,20.158585906028748 0.10176826035603881,20.158585906028748 0.16308254562318325,19.580672681331635 0.16308254562318325,19.580672681331635 0.25835917331278324,19.1904217004776 0.25835917331278324,19.1904217004776 0.43444479815661907,18.907560408115387 0.43444479815661907,18.907560408115387 0.6635718047618866,18.690209090709686 0.6635718047618866,18.690209090709686 0.9179132990539074,18.49648952484131 0.9179132990539074,18.49648952484131 1.169681828469038,18.284571170806885 1.169681828469038,18.284571170806885 1.3911099173128605,18.012546002864838 1.3911099173128605,18.012546002864838 1.5273748897016048,17.746567726135254 1.5273748897016048,17.746567726135254 1.6340317204594612,17.455729842185974 1.6340317204594612,17.455729842185974 1.719570904970169,17.150266468524933 1.719570904970169,17.150266468524933 1.7924830317497253,16.84035062789917 1.7924830317497253,16.84035062789917 1.8612982705235481,16.536234319210052 1.8612982705235481,16.536234319210052 1.9345073029398918,16.24808758497238 1.9345073029398918,16.24808758497238 2.0715441554784775,15.742552280426025 2.0715441554784775,15.742552280426025 2.2513704374432564,15.142472088336945 2.2513704374432564,15.142472088336945 2.4902546778321266,14.534454047679901 2.4902546778321266,14.534454047679901 2.804247848689556,14.005060493946075 2.804247848689556,14.005060493946075 3.209599107503891,13.64089548587799 3.209599107503891,13.64089548587799 3.722398728132248,13.528567552566528 3.722398728132248,13.528567552566528 4.505373165011406,13.603369891643524 4.505373165011406,13.603369891643524 5.281281843781471,13.687831163406372 5.281281843781471,13.687831163406372 6.05052076280117,13.750708103179932 6.05052076280117,13.750708103179932 6.813406944274902,13.760682940483093 6.813406944274902,13.760682940483093 7.570335268974304,13.686513900756836 7.570335268974304,13.686513900756836 8.321642875671387,13.496901094913483 8.321642875671387,13.496901094913483 9.204070270061493,13.188271224498749 9.204070270061493,13.188271224498749 10.088951140642166,12.875811755657196 10.088951140642166,12.875811755657196 10.977434366941452,12.5697061419487 10.977434366941452,12.5697061419487 11.870726943016052,12.28005662560463 11.870726943016052,12.28005662560463 12.769997119903564,12.017006427049637 12.769997119903564,12.017006427049637 13.67645114660263,11.79070994257927 13.67645114660263,11.79070994257927 14.732727408409119,11.583076417446136 14.732727408409119,11.583076417446136 15.79878032207489,11.428821086883545 15.79878032207489,11.428821086883545 16.871680319309235,11.32410392165184 16.871680319309235,11.32410392165184 17.9484024643898,11.265075206756592 17.9484024643898,11.265075206756592 19.026033580303192,11.247935891151428 19.026033580303192,11.247935891151428 20.10158598423004,11.268845200538635 20.10158598423004,11.268845200538635 21.14962935447693,11.315058916807175 21.14962935447693,11.315058916807175 22.219422459602356,11.387763172388077 22.219422459602356,11.387763172388077 23.295708000659943,11.500169336795807 23.295708000659943,11.500169336795807 24.363048374652863,11.665429174900055 24.363048374652863,11.665429174900055 25.40610432624817,11.896802484989166 25.40610432624817,11.896802484989166 26.409554481506348,12.20744103193283 26.409554481506348,12.20744103193283 27.168384194374084,12.523967027664185 27.168384194374084,12.523967027664185 27.899622917175293,12.903767824172974 27.899622917175293,12.903767824172974 28.60444188117981,13.335877656936646 28.60444188117981,13.335877656936646 29.28396463394165,13.809242844581604 29.28396463394165,13.809242844581604 29.939383268356323,14.312867820262909 29.939383268356323,14.312867820262909 30.57180345058441,14.835761487483978 30.57180345058441,14.835761487483978 30.970126390457153,15.182510018348694 30.970126390457153,15.182510018348694 31.36158585548401,15.537075698375702 31.36158585548401,15.537075698375702 31.746551394462585,15.898805856704712 31.746551394462585,15.898805856704712 32.12530314922333,16.26707762479782 32.12530314922333,16.26707762479782 32.49827325344086,16.641268134117126 32.49827325344086,16.641268134117126 32.865723967552185,17.020751535892487 32.865723967552185,17.020751535892487 33.068686723709106,17.234738171100616 33.068686723709106,17.234738171100616 33.270204067230225,17.449872195720673 33.270204067230225,17.449872195720673 33.47015976905823,17.666272819042206 33.47015976905823,17.666272819042206 33.66835117340088,17.88402944803238 33.66835117340088,17.88402944803238 33.864644169807434,18.10329109430313 33.864644169807434,18.10329109430313 34.05891954898834,18.324144184589386 34.05891954898834,18.324144184589386 34.30091142654419,18.60911399126053 34.30091142654419,18.60911399126053 34.50036942958832,18.840664625167847 34.50036942958832,18.840664625167847 34.68836843967438,19.028091430664062 34.68836843967438,19.028091430664062 34.89592373371124,19.18068379163742 34.89592373371124,19.18068379163742 35.15412509441376,19.307737052440643 35.15412509441376,19.307737052440643 35.49404442310333,19.418539106845856 35.49404442310333,19.418539106845856 35.64956784248352,19.460536539554596 35.64956784248352,19.460536539554596 35.80564260482788,19.50289160013199 35.80564260482788,19.50289160013199 35.96215546131134,19.545522332191467 35.96215546131134,19.545522332191467 36.11890375614166,19.588351249694824 36.11890375614166,19.588351249694824 36.27581298351288,19.631338119506836 36.27581298351288,19.631338119506836 36.43264174461365,19.674405455589294 36.43264174461365,19.674405455589294 37.07190752029419,19.85134184360504 37.07190752029419,19.85134184360504 37.712958455085754,20.033107697963715 37.712958455085754,20.033107697963715 38.35495710372925,20.220494270324707 38.35495710372925,20.220494270324707 38.99705410003662,20.414303243160248 38.99705410003662,20.414303243160248 39.638420939445496,20.615385472774506 39.638420939445496,20.615385472774506 40.278223156929016,20.824532210826874 40.278223156929016,20.824532210826874 41.37394428253174,21.208152174949646 41.37394428253174,21.208152174949646 42.45511591434479,21.62487357854843 42.45511591434479,21.62487357854843 43.51699352264404,22.07931876182556 43.51699352264404,22.07931876182556 44.55472528934479,22.576086223125458 44.55472528934479,22.576086223125458 45.56356072425842,23.119790852069855 45.56356072425842,23.119790852069855 46.53869271278381,23.715052008628845 46.53869271278381,23.715052008628845 46.59774899482727,23.75294268131256 46.59774899482727,23.75294268131256 46.65742218494415,23.78973513841629 46.65742218494415,23.78973513841629 46.717369556427,23.82604330778122 46.717369556427,23.82604330778122 46.77712023258209,23.862439393997192 46.77712023258209,23.862439393997192 46.836358308792114,23.899559676647186 46.836358308792114,23.899559676647186 46.8946248292923,23.937983810901642 46.8946248292923,23.937983810901642 47.06954061985016,24.055804312229156 47.06954061985016,24.055804312229156 47.32663333415985,24.2396280169487 47.32663333415985,24.2396280169487 47.59223759174347,24.459214508533478 47.59223759174347,24.459214508533478 47.79256582260132,24.684275686740875 47.79256582260132,24.684275686740875 47.85400032997131,24.88456517457962 47.85400032997131,24.88456517457962 47.70275354385376,25.029847025871277 47.70275354385376,25.029847025871277 47.626593708992004,25.12502372264862 47.626593708992004,25.12502372264862 47.553882002830505,25.321316719055176 47.553882002830505,25.321316719055176 47.487419843673706,25.572293996810913 47.487419843673706,25.572293996810913 47.43000566959381,25.8314847946167 47.43000566959381,25.8314847946167 47.38454520702362,26.052486896514893 47.38454520702362,26.052486896514893 47.35378921031952,26.188841462135315 47.35378921031952,26.188841462135315 47.274938225746155,26.462993025779724 47.274938225746155,26.462993025779724 47.19604849815369,26.736968755722046 47.19604849815369,26.736968755722046 47.11715877056122,27.010902762413025 47.11715877056122,27.010902762413025 47.03817069530487,27.28481888771057 47.03817069530487,27.28481888771057 46.95916473865509,27.558821439743042 46.95916473865509,27.558821439743042" stroke="white" stroke-width="0.1" /><polygon points="14.523212611675262,15.48682451248169 14.523212611675262,15.48682451248169 15.052954852581024,15.580379962921143 15.052954852581024,15.580379962921143 15.638190507888794,15.669451653957367 15.638190507888794,15.669451653957367 16.2112757563591,15.690915286540985 16.2112757563591,15.690915286540985 16.704462468624115,15.581567585468292 16.704462468624115,15.581567585468292 17.050161957740784,15.27831107378006 17.050161957740784,15.27831107378006 17.1806663274765,14.717961847782135 17.1806663274765,14.717961847782135 17.169465124607086,14.385899901390076 17.169465124607086,14.385899901390076 17.136847972869873,14.050482213497162 17.136847972869873,14.050482213497162 17.08463877439499,13.714925944805145 17.08463877439499,13.714925944805145 17.014378309249878,13.382427394390106 17.014378309249878,13.382427394390106 16.927829384803772,13.056202232837677 16.927829384803772,13.056202232837677 16.826635599136353,12.739437818527222 16.826635599136353,12.739437818527222 16.72312617301941,12.612099945545197 16.72312617301941,12.612099945545197 16.545554995536804,12.544085085391998 16.545554995536804,12.544085085391998 16.325196623802185,12.519989907741547 16.325196623802185,12.519989907741547 16.09329879283905,12.524373829364777 16.09329879283905,12.524373829364777 15.881231427192688,12.541869282722473 15.881231427192688,12.541869282722473 15.72020798921585,12.55703866481781 15.72020798921585,12.55703866481781 15.085095167160034,12.613831460475922 15.085095167160034,12.613831460475922 14.356093108654022,12.716639041900635 14.356093108654022,12.716639041900635 13.601084053516388,12.885737419128418 13.601084053516388,12.885737419128418 12.887835502624512,13.14137578010559 12.887835502624512,13.14137578010559 12.284272164106369,13.50385844707489 12.284272164106369,13.50385844707489 11.858159303665161,13.993433117866516 11.858159303665161,13.993433117866516 11.821228265762329,14.453092217445374 11.821228265762329,14.453092217445374 12.181751430034637,14.816899597644806 12.181751430034637,14.816899597644806 12.785987555980682,15.093527734279633 12.785987555980682,15.093527734279633 13.480117917060852,15.291601419448853 13.480117917060852,15.291601419448853 14.110459387302399,15.41983038187027 14.110459387302399,15.41983038187027" stroke="white" stroke-width="0.1" /><polygon points="29.32160794734955,16.992884874343872 29.32160794734955,16.992884874343872 29.158565402030945,17.0494481921196 29.158565402030945,17.0494481921196 29.027405381202698,17.23644882440567 29.027405381202698,17.23644882440567 28.925302624702454,17.500023543834686 28.925302624702454,17.500023543834686 28.849461674690247,17.786279320716858 28.849461674690247,17.786279320716858 28.797152638435364,18.041372299194336 28.797152638435364,18.041372299194336 28.765544295310974,18.21141242980957 28.765544295310974,18.21141242980957 28.710445761680603,18.525543808937073 28.710445761680603,18.525543808937073 28.42358648777008,18.480250239372253 28.42358648777008,18.480250239372253 28.136825561523438,18.43438446521759 28.136825561523438,18.43438446521759 27.85022258758545,18.38795244693756 27.85022258758545,18.38795244693756 27.563682198524475,18.340978026390076 27.563682198524475,18.340978026390076 27.277278900146484,18.293537199497223 27.277278900146484,18.293537199497223 26.9909530878067,18.24561208486557 26.9909530878067,18.24561208486557 26.493966579437256,18.161270022392273 26.493966579437256,18.161270022392273 25.997397303581238,18.075454235076904 25.997397303581238,18.075454235076904 25.501200556755066,17.988163232803345 25.501200556755066,17.988163232803345 25.00528395175934,17.899388074874878 25.00528395175934,17.899388074874878 24.50968325138092,17.809148132801056 24.50968325138092,17.809148132801056 24.014300107955933,17.71741509437561 24.014300107955933,17.71741509437561 23.40576946735382,17.60229617357254 23.40576946735382,17.60229617357254 22.797593474388123,17.48480349779129 22.797593474388123,17.48480349779129 22.18991369009018,17.36464947462082 22.18991369009018,17.36464947462082 21.582767367362976,17.241525650024414 21.582767367362976,17.241525650024414 20.976373553276062,17.115166783332825 20.976373553276062,17.115166783332825 20.37075161933899,16.98528528213501 20.37075161933899,16.98528528213501 20.207609236240387,16.957813501358032 20.207609236240387,16.957813501358032 20.047515630722046,16.936616599559784 20.047515630722046,16.936616599559784 19.899079203605652,16.907067596912384 19.899079203605652,16.907067596912384 19.770769774913788,16.85449182987213 19.770769774913788,16.85449182987213 19.67119872570038,16.76427274942398 19.67119872570038,16.76427274942398 19.60885524749756,16.621753573417664 19.60885524749756,16.621753573417664 19.492579996585846,16.124826669692993 19.492579996585846,16.124826669692993 19.37563121318817,15.559767186641693 19.37563121318817,15.559767186641693 19.288469851017,14.962269365787506 19.288469851017,14.962269365787506 19.261513650417328,14.368027448654175 19.261513650417328,14.368027448654175 19.325241446495056,13.812795281410217 19.325241446495056,13.812795281410217 19.51005607843399,13.33223581314087 19.51005607843399,13.33223581314087 19.88670974969864,12.953554093837738 19.88670974969864,12.953554093837738 20.40819674730301,12.750017642974854 20.40819674730301,12.750017642974854 21.014927327632904,12.678322196006775 21.014927327632904,12.678322196006775 21.647249162197113,12.695056200027466 21.647249162197113,12.695056200027466 22.24554717540741,12.756913900375366 22.24554717540741,12.756913900375366 22.75017350912094,12.820504605770111 22.75017350912094,12.820504605770111 23.442760109901428,12.910734117031097 23.442760109901428,12.910734117031097 24.128656089305878,13.029810786247253 24.128656089305878,13.029810786247253 24.804380536079407,13.185936212539673 24.804380536079407,13.185936212539673 25.466349720954895,13.387216627597809 25.466349720954895,13.387216627597809 26.111119985580444,13.641844689846039 26.111119985580444,13.641844689846039 26.735088229179382,13.95796537399292 26.735088229179382,13.95796537399292 27.29637622833252,14.284774661064148 27.29637622833252,14.284774661064148 27.860039472579956,14.64039832353592 27.860039472579956,14.64039832353592 28.402170538902283,15.033835172653198 28.402170538902283,15.033835172653198 28.898999094963074,15.474019944667816 28.898999094963074,15.474019944667816 29.326793551445007,15.969938039779663 29.326793551445007,15.969938039779663 29.66170608997345,16.530553996562958 29.66170608997345,16.530553996562958 29.714688658714294,16.669292747974396 29.714688658714294,16.669292747974396 29.732975363731384,16.793107986450195 29.732975363731384,16.793107986450195 29.70968186855316,16.894719004631042 29.70968186855316,16.894719004631042 29.63791787624359,16.966749727725983 29.63791787624359,16.966749727725983 29.510855674743652,17.001919448375702 29.510855674743652,17.001919448375702" stroke="white" stroke-width="0.1" /><polygon points="10.989230126142502,21.309663355350494 10.989230126142502,21.309663355350494 12.149886786937714,21.57502919435501 12.149886786937714,21.57502919435501 13.180691003799438,22.114409506320953 13.180691003799438,22.114409506320953 14.041565358638763,22.8828564286232 14.041565358638763,22.8828564286232 14.69237208366394,23.835374414920807 14.69237208366394,23.835374414920807 15.093033015727997,24.927029013633728 15.093033015727997,24.927029013633728 15.203410387039185,26.112839579582214 15.203410387039185,26.112839579582214 14.958588778972626,27.4125337600708 14.958588778972626,27.4125337600708 14.373430609703064,28.556180000305176 14.373430609703064,28.556180000305176 13.510359823703766,29.491814970970154 13.510359823703766,29.491814970970154 12.43181824684143,30.167460441589355 12.43181824684143,30.167460441589355 11.200346797704697,30.531150102615356 11.200346797704697,30.531150102615356 9.87836867570877,30.530953407287598 9.87836867570877,30.530953407287598 8.69639664888382,30.18483817577362 8.69639664888382,30.18483817577362 7.672618329524994,29.55356538295746 7.672618329524994,29.55356538295746 6.847408413887024,28.690969944000244 6.847408413887024,28.690969944000244 6.261063367128372,27.650922536849976 6.261063367128372,27.650922536849976 5.953918024897575,26.487335562705994 5.953918024897575,26.487335562705994 5.966287851333618,25.25404393672943 5.966287851333618,25.25404393672943 6.294035911560059,24.11048710346222 6.294035911560059,24.11048710346222 6.8885356187820435,23.111408948898315 6.8885356187820435,23.111408948898315 7.7025629580020905,22.294333577156067 7.7025629580020905,22.294333577156067 8.688835799694061,21.69668823480606 8.688835799694061,21.69668823480606 9.800152480602264,21.355976164340973 9.800152480602264,21.355976164340973" stroke="white" stroke-width="0.1" /><polygon points="39.59992527961731,25.9139746427536 39.59992527961731,25.9139746427536 40.07219076156616,26.240119338035583 40.07219076156616,26.240119338035583 40.50071835517883,26.61968171596527 40.50071835517883,26.61968171596527 40.88051915168762,27.047476172447205 40.88051915168762,27.047476172447205 41.206446290016174,27.51820981502533 41.206446290016174,27.51820981502533 41.47351384162903,28.026685118675232 41.47351384162903,28.026685118675232 41.67661666870117,28.56763005256653 41.67661666870117,28.56763005256653 41.733258962631226,28.769412636756897 41.733258962631226,28.769412636756897 41.780757904052734,28.974324464797974 41.780757904052734,28.974324464797974 41.818878054618835,29.18211817741394 41.818878054618835,29.18211817741394 41.84729754924774,29.392540454864502 41.84729754924774,29.392540454864502 41.865843534469604,29.605379700660706 41.865843534469604,29.605379700660706 41.87421500682831,29.820355772972107 41.87421500682831,29.820355772972107 41.70064330101013,31.127867102622986 41.70064330101013,31.127867102622986 41.18063747882843,32.299211621284485 41.18063747882843,32.299211621284485 40.373221039772034,33.279287815093994 40.373221039772034,33.279287815093994 39.33735191822052,34.01300311088562 39.33735191822052,34.01300311088562 38.13208341598511,34.445250034332275 38.13208341598511,34.445250034332275 36.81643903255463,34.52093303203583 36.81643903255463,34.52093303203583 35.57022213935852,34.22675132751465 35.57022213935852,34.22675132751465 34.48188304901123,33.61859619617462 34.48188304901123,33.61859619617462 33.59777629375458,32.75473415851593 33.59777629375458,32.75473415851593 32.96416699886322,31.69335126876831 32.96416699886322,31.69335126876831 32.62745440006256,30.492734909057617 32.62745440006256,30.492734909057617 32.63392448425293,29.211091995239258 32.63392448425293,29.211091995239258 32.96171426773071,28.067535161972046 32.96171426773071,28.067535161972046 33.55631232261658,27.0685076713562 33.55631232261658,27.0685076713562 34.370437264442444,26.25153958797455 34.370437264442444,26.25153958797455 35.3567510843277,25.654101371765137 35.3567510843277,25.654101371765137 36.468008160591125,25.313755869865417 36.468008160591125,25.313755869865417 37.65686750411987,25.26797652244568 37.65686750411987,25.26797652244568 38.00484240055084,25.3143310546875 38.00484240055084,25.3143310546875 38.344427943229675,25.386756658554077 38.344427943229675,25.386756658554077 38.67470920085907,25.484102964401245 38.67470920085907,25.484102964401245 38.99467885494232,25.605177879333496 38.99467885494232,25.605177879333496 39.303407073020935,25.74886381626129 39.303407073020935,25.74886381626129" stroke="white" stroke-width="0.1" /><polygon points="89.61148262023926,25.26797652244568 89.61148262023926,25.26797652244568 90.7305359840393,25.518113374710083 90.7305359840393,25.518113374710083 91.73282384872437,26.02430284023285 91.73282384872437,26.02430284023285 92.58108735084534,26.747119426727295 92.58108735084534,26.747119426727295 93.23801398277283,27.647024393081665 93.23801398277283,27.647024393081665 93.66633892059326,28.68460714817047 93.66633892059326,28.68460714817047 93.82882714271545,29.820355772972107 93.82882714271545,29.820355772972107 93.65525841712952,31.127867102622986 93.65525841712952,31.127867102622986 93.13525557518005,32.299211621284485 93.13525557518005,32.299211621284485 92.32783913612366,33.279287815093994 92.32783913612366,33.279287815093994 91.29194617271423,34.01300311088562 91.29194617271423,34.01300311088562 90.08671641349792,34.445250034332275 90.08671641349792,34.445250034332275 88.77105712890625,34.52093303203583 88.77105712890625,34.52093303203583 87.52481937408447,34.22675132751465 87.52481937408447,34.22675132751465 86.43652200698853,33.61859619617462 86.43652200698853,33.61859619617462 85.55238842964172,32.75473415851593 85.55238842964172,32.75473415851593 84.91878509521484,31.69335126876831 84.91878509521484,31.69335126876831 84.58204865455627,30.492734909057617 84.58204865455627,30.492734909057617 84.58853960037231,29.211091995239258 84.58853960037231,29.211091995239258 84.9163293838501,28.067535161972046 84.9163293838501,28.067535161972046 85.5109453201294,27.0685076713562 85.5109453201294,27.0685076713562 86.32505536079407,26.25153958797455 86.32505536079407,26.25153958797455 87.31134533882141,25.654101371765137 87.31134533882141,25.654101371765137 88.42260241508484,25.313755869865417 88.42260241508484,25.313755869865417" stroke="white" stroke-width="0.1" /><polygon points="62.943845987319946,21.309663355350494 62.943845987319946,21.309663355350494 64.10450339317322,21.57502919435501 64.10450339317322,21.57502919435501 65.13528823852539,22.114409506320953 65.13528823852539,22.114409506320953 65.99618196487427,22.8828564286232 65.99618196487427,22.8828564286232 66.64696931838989,23.835374414920807 66.64696931838989,23.835374414920807 67.04762578010559,24.927029013633728 67.04762578010559,24.927029013633728 67.15802550315857,26.112839579582214 67.15802550315857,26.112839579582214 66.91320538520813,27.4125337600708 66.91320538520813,27.4125337600708 66.32804870605469,28.556180000305176 66.32804870605469,28.556180000305176 65.46497344970703,29.491814970970154 65.46497344970703,29.491814970970154 64.38649296760559,30.167460441589355 64.38649296760559,30.167460441589355 63.15498352050781,30.531150102615356 63.15498352050781,30.531150102615356 61.832982301712036,30.530953407287598 61.832982301712036,30.530953407287598 60.705578327178955,30.209043622016907 60.705578327178955,30.209043622016907 59.719955921173096,29.62641716003418 59.719955921173096,29.62641716003418 58.91072154045105,28.829512000083923 58.91072154045105,28.829512000083923 58.31230282783508,27.86475121974945 58.31230282783508,27.86475121974945 57.95925855636597,26.77863836288452 57.95925855636597,26.77863836288452 57.886070013046265,25.617575645446777 57.886070013046265,25.617575645446777 57.89026618003845,25.55731236934662 57.89026618003845,25.55731236934662 57.89470076560974,25.49685835838318 57.89470076560974,25.49685835838318 57.89968967437744,25.436285138130188 57.89968967437744,25.436285138130188 57.90550708770752,25.375574827194214 57.90550708770752,25.375574827194214 57.91251063346863,25.314834713935852 57.91251063346863,25.314834713935852 57.920902967453,25.25404393672943 57.920902967453,25.25404393672943 57.92577266693115,25.2244770526886 57.92577266693115,25.2244770526886 57.93135166168213,25.19521415233612 57.93135166168213,25.19521415233612 57.93737173080444,25.166168808937073 57.93737173080444,25.166168808937073 57.94358253479004,25.137215852737427 57.94358253479004,25.137215852737427 57.94979929924011,25.108280777931213 57.94979929924011,25.108280777931213 57.95573592185974,25.079244375228882 57.95573592185974,25.079244375228882 58.312976360321045,23.980654776096344 58.312976360321045,23.980654776096344 58.91792178153992,23.023593425750732 58.91792178153992,23.023593425750732 59.72708463668823,22.243034839630127 59.72708463668823,22.243034839630127 60.69679260253906,21.673887968063354 60.69679260253906,21.673887968063354 61.78358197212219,21.35111689567566 61.78358197212219,21.35111689567566" stroke="white" stroke-width="0.1" /><polygon points="99.97403621673584,28.433361649513245 99.97403621673584,28.433361649513245 99.99896883964539,28.61795723438263 99.99896883964539,28.61795723438263 99.95760917663574,28.875744342803955 99.95760917663574,28.875744342803955 99.87444281578064,29.169291257858276 99.87444281578064,29.169291257858276 99.7738242149353,29.461130499839783 99.7738242149353,29.461130499839783 99.68024492263794,29.713836312294006 99.68024492263794,29.713836312294006 99.61810111999512,29.890021681785583 99.61810111999512,29.890021681785583 99.48058724403381,30.35421371459961 99.48058724403381,30.35421371459961 99.33246970176697,30.834516882896423 99.33246970176697,30.834516882896423 99.1589367389679,31.31169080734253 99.1589367389679,31.31169080734253 98.94526600837708,31.766343116760254 98.94526600837708,31.766343116760254 98.6768126487732,32.1792334318161 98.6768126487732,32.1792334318161 98.33877682685852,32.5310081243515 98.33877682685852,32.5310081243515 97.87842035293579,32.832711935043335 97.87842035293579,32.832711935043335 97.39131331443787,33.014556765556335 97.39131331443787,33.014556765556335 96.88369631767273,33.10322463512421 96.88369631767273,33.10322463512421 96.36167883872986,33.125388622283936 96.36167883872986,33.125388622283936 95.83150148391724,33.107736706733704 95.83150148391724,33.107736706733704 95.29942274093628,33.07693898677826 95.29942274093628,33.07693898677826 95.99766731262207,30.900639295578003 95.99766731262207,30.900639295578003 95.943284034729,28.710949420928955 95.943284034729,28.710949420928955 95.22365927696228,26.66890323162079 95.22365927696228,26.66890323162079 93.9258873462677,24.93547946214676 93.9258873462677,24.93547946214676 92.13736057281494,23.671747744083405 92.13736057281494,23.671747744083405 89.94525074958801,23.038655519485474 89.94525074958801,23.038655519485474 87.68600225448608,23.16949814558029 87.68600225448608,23.16949814558029 85.674387216568,23.995399475097656 85.674387216568,23.995399475097656 84.02986526489258,25.381818413734436 84.02986526489258,25.381818413734436 82.87162184715271,27.194133400917053 82.87162184715271,27.194133400917053 82.31908082962036,29.29779887199402 82.31908082962036,29.29779887199402 82.49158263206482,31.558215618133545 82.49158263206482,31.558215618133545 80.19053936004639,31.047412753105164 80.19053936004639,31.047412753105164 77.88755297660828,30.5772066116333 77.88755297660828,30.5772066116333 75.57933926582336,30.152538418769836 75.57933926582336,30.152538418769836 73.26261401176453,29.778319597244263 73.26261401176453,29.778319597244263 70.93409895896912,29.459476470947266 70.93409895896912,29.459476470947266 68.5906171798706,29.20095920562744 68.5906171798706,29.20095920562744 69.2895770072937,27.198585867881775 69.2895770072937,27.198585867881775 69.33984756469727,25.15140473842621 69.33984756469727,25.15140473842621 68.80199313163757,23.196829855442047 68.80199313163757,23.196829855442047 67.73645281791687,21.472251415252686 67.73645281791687,21.472251415252686 66.20375514030457,20.115093886852264 66.20375514030457,20.115093886852264 64.2643392086029,19.26274001598358 64.2643392086029,19.26274001598358 62.87148594856262,19.051188230514526 62.87148594856262,19.051188230514526 61.507850885391235,19.129127264022827 61.507850885391235,19.129127264022827 60.2073073387146,19.471105933189392 60.2073073387146,19.471105933189392 59.003663063049316,20.05162239074707 59.003663063049316,20.05162239074707 57.93091654777527,20.845234394073486 57.93091654777527,20.845234394073486 57.02283978462219,21.82646095752716 57.02283978462219,21.82646095752716 56.656813621520996,22.35477715730667 56.656813621520996,22.35477715730667 56.340229511260986,22.917094826698303 56.340229511260986,22.917094826698303 56.07680678367615,23.51096123456955 56.07680678367615,23.51096123456955 55.870217084884644,24.1338312625885 55.870217084884644,24.1338312625885 55.724358558654785,24.783262610435486 55.724358558654785,24.783262610435486 55.64281344413757,25.456711649894714 55.64281344413757,25.456711649894714 55.64044117927551,25.482499599456787 55.64044117927551,25.482499599456787 55.637431144714355,25.508031249046326 55.637431144714355,25.508031249046326 55.63410520553589,25.53350031375885 55.63410520553589,25.53350031375885 55.63089847564697,25.559061765670776 55.63089847564697,25.559061765670776 55.62816858291626,25.58492124080658 55.62816858291626,25.58492124080658 55.62635064125061,25.611242651939392 55.62635064125061,25.611242651939392 55.53380250930786,25.544843077659607 55.53380250930786,25.544843077659607 55.44105768203735,25.47856867313385 55.44105768203735,25.47856867313385 55.34823536872864,25.41237771511078 55.34823536872864,25.41237771511078 55.255335569381714,25.346165895462036 55.255335569381714,25.346165895462036 55.16245365142822,25.279903411865234 55.16245365142822,25.279903411865234 55.06964921951294,25.213512778282166 55.06964921951294,25.213512778282166 54.75900173187256,24.991628527641296 54.75900173187256,24.991628527641296 54.44740653038025,24.7709721326828 54.44740653038025,24.7709721326828 54.134535789489746,24.552156031131744 54.134535789489746,24.552156031131744 53.81995439529419,24.33575540781021 53.81995439529419,24.33575540781021 53.50332856178284,24.122382700443268 53.50332856178284,24.122382700443268 53.184229135513306,23.9126518368721 53.184229135513306,23.9126518368721 53.012675046920776,23.813791573047638 53.012675046920776,23.813791573047638 52.826476097106934,23.71707111597061 52.826476097106934,23.71707111597061 52.63972282409668,23.614510893821716 52.63972282409668,23.614510893821716 52.46634483337402,23.498116433620453 52.46634483337402,23.498116433620453 52.32040286064148,23.359912633895874 52.32040286064148,23.359912633895874 52.21586227416992,23.191921412944794 52.21586227416992,23.191921412944794 52.045220136642456,22.63564020395279 52.045220136642456,22.63564020395279 51.9669234752655,22.033293545246124 51.9669234752655,22.033293545246124 51.95801854133606,21.405771374702454 51.95801854133606,21.405771374702454 51.99548602104187,20.773886144161224 51.99548602104187,20.773886144161224 52.056366205215454,20.158585906028748 52.056366205215454,20.158585906028748 52.11769938468933,19.580672681331635 52.11769938468933,19.580672681331635 52.21297740936279,19.1904217004776 52.21297740936279,19.1904217004776 52.38906145095825,18.907560408115387 52.38906145095825,18.907560408115387 52.61818766593933,18.690209090709686 52.61818766593933,18.690209090709686 52.87250876426697,18.49648952484131 52.87250876426697,18.49648952484131 53.12429666519165,18.284571170806885 53.12429666519165,18.284571170806885 53.34572792053223,18.012546002864838 53.34572792053223,18.012546002864838 53.347742557525635,18.008746206760406 53.347742557525635,18.008746206760406 53.349488973617554,18.004946410655975 53.349488973617554,18.004946410655975 53.351110219955444,18.001146614551544 53.351110219955444,18.001146614551544 53.35268974304199,17.997336387634277 53.35268974304199,17.997336387634277 53.354454040527344,17.993536591529846 53.354454040527344,17.993536591529846 53.35649251937866,17.98974573612213 53.35649251937866,17.98974573612213 53.488361835479736,17.725370824337006 53.488361835479736,17.725370824337006 53.592246770858765,17.437709867954254 53.592246770858765,17.437709867954254 53.67624759674072,17.13649183511734 53.67624759674072,17.13649183511734 53.7483274936676,16.831345856189728 53.7483274936676,16.831345856189728 53.81660461425781,16.53199791908264 53.81660461425781,16.53199791908264 53.88912558555603,16.24808758497238 53.88912558555603,16.24808758497238 54.02613878250122,15.742552280426025 54.02613878250122,15.742552280426025 54.20598387718201,15.142472088336945 54.20598387718201,15.142472088336945 54.44486737251282,14.534454047679901 54.44486737251282,14.534454047679901 54.75888252258301,14.005060493946075 54.75888252258301,14.005060493946075 55.1642119884491,13.64089548587799 55.1642119884491,13.64089548587799 55.67701458930969,13.528567552566528 55.67701458930969,13.528567552566528 55.700767040252686,13.530576229095459 55.700767040252686,13.530576229095459 55.7245135307312,13.532733917236328 55.7245135307312,13.532733917236328 55.748265981674194,13.535059988498688 55.748265981674194,13.535059988498688 55.771976709365845,13.537463545799255 55.771976709365845,13.537463545799255 55.7957649230957,13.539958000183105 55.7957649230957,13.539958000183105 55.81951141357422,13.542501628398895 55.81951141357422,13.542501628398895 56.577491760253906,13.618203997612 56.577491760253906,13.618203997612 57.32905864715576,13.698439300060272 57.32905864715576,13.698439300060272 58.07448625564575,13.754825294017792 58.07448625564575,13.754825294017792 58.81397724151611,13.758942484855652 58.81397724151611,13.758942484855652 59.54781174659729,13.682447373867035 59.54781174659729,13.682447373867035 60.27625799179077,13.496901094913483 60.27625799179077,13.496901094913483 60.735976696014404,13.3371040225029 60.735976696014404,13.3371040225029 61.19624972343445,13.175258040428162 61.19624972343445,13.175258040428162 61.6572380065918,13.01272064447403 61.6572380065918,13.01272064447403 62.11905479431152,12.8508061170578 62.11905479431152,12.8508061170578 62.58186101913452,12.690860033035278 62.58186101913452,12.690860033035278 63.04581165313721,12.534239888191223 63.04581165313721,12.534239888191223 63.47318887710571,12.393838167190552 63.47318887710571,12.393838167190552 63.90168070793152,12.258434295654297 63.90168070793152,12.258434295654297 64.33154940605164,12.129224836826324 64.33154940605164,12.129224836826324 64.76292610168457,12.007387727499008 64.76292610168457,12.007387727499008 65.19604921340942,11.894150078296661 65.19604921340942,11.894150078296661 65.63106775283813,11.79070994257927 65.63106775283813,11.79070994257927 66.68733954429626,11.583076417446136 66.68733954429626,11.583076417446136 67.75339841842651,11.428821086883545 67.75339841842651,11.428821086883545 68.8262939453125,11.32410392165184 68.8262939453125,11.32410392165184 69.90299820899963,11.265075206756592 69.90299820899963,11.265075206756592 70.9806501865387,11.247935891151428 70.9806501865387,11.247935891151428 72.05620408058167,11.268845200538635 72.05620408058167,11.268845200538635 73.10424447059631,11.315058916807175 73.10424447059631,11.315058916807175 74.17405843734741,11.387763172388077 74.17405843734741,11.387763172388077 75.25032162666321,11.500169336795807 75.25032162666321,11.500169336795807 76.3176441192627,11.665429174900055 76.3176441192627,11.665429174900055 77.36070156097412,11.896802484989166 77.36070156097412,11.896802484989166 78.36416959762573,12.20744103193283 78.36416959762573,12.20744103193283 79.1229784488678,12.523967027664185 79.1229784488678,12.523967027664185 79.85423803329468,12.903767824172974 79.85423803329468,12.903767824172974 80.5590569972992,13.335877656936646 80.5590569972992,13.335877656936646 81.23853802680969,13.809242844581604 81.23853802680969,13.809242844581604 81.89395666122437,14.312867820262909 81.89395666122437,14.312867820262909 82.52641558647156,14.835761487483978 82.52641558647156,14.835761487483978 83.14458727836609,15.378367900848389 83.14458727836609,15.378367900848389 83.74727964401245,15.938587486743927 83.74727964401245,15.938587486743927 84.33505296707153,16.51487797498703 84.33505296707153,16.51487797498703 84.90829467773438,17.10560768842697 84.90829467773438,17.10560768842697 85.46768426895142,17.709220945835114 85.46768426895142,17.709220945835114 86.01353168487549,18.324144184589386 86.01353168487549,18.324144184589386 86.255544424057,18.60911399126053 86.255544424057,18.60911399126053 86.45496368408203,18.840664625167847 86.45496368408203,18.840664625167847 86.642986536026,19.028091430664062 86.642986536026,19.028091430664062 86.85051798820496,19.18068379163742 86.85051798820496,19.18068379163742 87.10876107215881,19.307737052440643 87.10876107215881,19.307737052440643 87.44866251945496,19.418539106845856 87.44866251945496,19.418539106845856 89.41047787666321,19.957484304904938 89.41047787666321,19.957484304904938 91.38659238815308,20.545214414596558 91.38659238815308,20.545214414596558 93.34773421287537,21.209439635276794 93.34773421287537,21.209439635276794 95.26466727256775,21.9778373837471 95.26466727256775,21.9778373837471 97.10825085639954,22.87813574075699 97.10825085639954,22.87813574075699 98.84923696517944,23.937983810901642 98.84923696517944,23.937983810901642 99.02415871620178,24.055804312229156 99.02415871620178,24.055804312229156 99.28125143051147,24.2396280169487 99.28125143051147,24.2396280169487 99.54684972763062,24.459214508533478 99.54684972763062,24.459214508533478 99.7471809387207,24.684275686740875 99.7471809387207,24.684275686740875 99.80857372283936,24.88456517457962 99.80857372283936,24.88456517457962 99.65736865997314,25.029847025871277 99.65736865997314,25.029847025871277 99.58121180534363,25.12502372264862 99.58121180534363,25.12502372264862 99.50849413871765,25.321316719055176 99.50849413871765,25.321316719055176 99.44203495979309,25.572293996810913 99.44203495979309,25.572293996810913 99.38464164733887,25.8314847946167 99.38464164733887,25.8314847946167 99.33915734291077,26.052486896514893 99.33915734291077,26.052486896514893 99.30840134620667,26.188841462135315 99.30840134620667,26.188841462135315 99.22955632209778,26.462993025779724 99.22955632209778,26.462993025779724 99.15066361427307,26.736968755722046 99.15066361427307,26.736968755722046 99.07177686691284,27.010902762413025 99.07177686691284,27.010902762413025 98.99280667304993,27.28481888771057 98.99280667304993,27.28481888771057 98.9137589931488,27.558821439743042 98.9137589931488,27.558821439743042 98.83466958999634,27.832964062690735 98.83466958999634,27.832964062690735 98.90089631080627,27.912548184394836 98.90089631080627,27.912548184394836 99.09687042236328,28.013107180595398 99.09687042236328,28.013107180595398 99.362313747406,28.125089406967163 99.362313747406,28.125089406967163 99.63710308074951,28.238829970359802 99.63710308074951,28.238829970359802 99.86106157302856,28.344804048538208 99.86106157302856,28.344804048538208" stroke="white" stroke-width="0.1" /><polygon points="66.47782921791077,15.48682451248169 66.47782921791077,15.48682451248169 67.00757145881653,15.580379962921143 67.00757145881653,15.580379962921143 67.59280562400818,15.669451653957367 67.59280562400818,15.669451653957367 68.1658923625946,15.690915286540985 68.1658923625946,15.690915286540985 68.65909695625305,15.581567585468292 68.65909695625305,15.581567585468292 69.00477409362793,15.27831107378006 69.00477409362793,15.27831107378006 69.13528442382812,14.717961847782135 69.13528442382812,14.717961847782135 69.12404298782349,14.385899901390076 69.12404298782349,14.385899901390076 69.0915048122406,14.050482213497162 69.0915048122406,14.050482213497162 69.0392553806305,13.714925944805145 69.0392553806305,13.714925944805145 68.96899342536926,13.382427394390106 68.96899342536926,13.382427394390106 68.88242363929749,13.056202232837677 68.88242363929749,13.056202232837677 68.78125071525574,12.739437818527222 68.78125071525574,12.739437818527222 68.6777412891388,12.612099945545197 68.6777412891388,12.612099945545197 68.50013136863708,12.544085085391998 68.50013136863708,12.544085085391998 68.27981472015381,12.519989907741547 68.27981472015381,12.519989907741547 68.0479347705841,12.524373829364777 68.0479347705841,12.524373829364777 67.83584952354431,12.541869282722473 67.83584952354431,12.541869282722473 67.67482161521912,12.55703866481781 67.67482161521912,12.55703866481781 67.28983521461487,12.588389217853546 67.28983521461487,12.588389217853546 66.85786843299866,12.635096907615662 66.85786843299866,12.635096907615662 66.39581322669983,12.702229619026184 66.39581322669983,12.702229619026184 65.92041850090027,12.79478520154953 65.92041850090027,12.79478520154953 65.44858813285828,12.917830049991608 65.44858813285828,12.917830049991608 64.99710083007812,13.07636946439743 64.99710083007812,13.07636946439743 64.74725604057312,13.188023865222931 64.74725604057312,13.188023865222931 64.51371312141418,13.314689695835114 64.51371312141418,13.314689695835114 64.29996490478516,13.45747709274292 64.29996490478516,13.45747709274292 64.10949230194092,13.617461919784546 64.10949230194092,13.617461919784546 63.94593119621277,13.795754313468933 63.94593119621277,13.795754313468933 63.812774419784546,13.993433117866516 63.812774419784546,13.993433117866516 63.73855471611023,14.202451705932617 63.73855471611023,14.202451705932617 63.75347971916199,14.392945170402527 63.75347971916199,14.392945170402527 63.845473527908325,14.565646648406982 63.845473527908325,14.565646648406982 64.00229930877686,14.721237123012543 64.00229930877686,14.721237123012543 64.2118513584137,14.860442280769348 64.2118513584137,14.860442280769348 64.46194052696228,14.98396098613739 64.46194052696228,14.98396098613739 64.8381769657135,15.12536108493805 64.8381769657135,15.12536108493805 65.23650288581848,15.241558849811554 65.23650288581848,15.241558849811554 65.62829613685608,15.334191918373108 65.62829613685608,15.334191918373108 65.98486304283142,15.404848754405975 65.98486304283142,15.404848754405975 66.27757549285889,15.455187857151031 66.27757549285889,15.455187857151031" stroke="white" stroke-width="0.1" /><polygon points="81.27622604370117,16.992884874343872 81.27622604370117,16.992884874343872 81.46547079086304,17.001919448375702 81.46547079086304,17.001919448375702 81.59253001213074,16.966749727725983 81.59253001213074,16.966749727725983 81.66429996490479,16.894719004631042 81.66429996490479,16.894719004631042 81.6875696182251,16.793107986450195 81.6875696182251,16.793107986450195 81.66928291320801,16.669292747974396 81.66928291320801,16.669292747974396 81.61632418632507,16.530553996562958 81.61632418632507,16.530553996562958 81.28141164779663,15.969938039779663 81.28141164779663,15.969938039779663 80.85363507270813,15.474019944667816 80.85363507270813,15.474019944667816 80.3567886352539,15.033835172653198 80.3567886352539,15.033835172653198 79.81465458869934,14.64039832353592 79.81465458869934,14.64039832353592 79.25103306770325,14.284774661064148 79.25103306770325,14.284774661064148 78.68970036506653,13.95796537399292 78.68970036506653,13.95796537399292 78.0657172203064,13.641844689846039 78.0657172203064,13.641844689846039 77.42098569869995,13.387216627597809 77.42098569869995,13.387216627597809 76.75899863243103,13.185936212539673 76.75899863243103,13.185936212539673 76.08323097229004,13.029810786247253 76.08323097229004,13.029810786247253 75.39733648300171,12.910734117031097 75.39733648300171,12.910734117031097 74.70479011535645,12.820504605770111 74.70479011535645,12.820504605770111 74.20014142990112,12.756913900375366 74.20014142990112,12.756913900375366 73.6018419265747,12.695056200027466 73.6018419265747,12.695056200027466 72.96954393386841,12.678322196006775 72.96954393386841,12.678322196006775 72.36281037330627,12.750017642974854 72.36281037330627,12.750017642974854 71.84130549430847,12.953554093837738 71.84130549430847,12.953554093837738 71.46466970443726,13.33223581314087 71.46466970443726,13.33223581314087 71.27981781959534,13.812795281410217 71.27981781959534,13.812795281410217 71.21613025665283,14.368027448654175 71.21613025665283,14.368027448654175 71.24308347702026,14.962269365787506 71.24308347702026,14.962269365787506 71.3302493095398,15.559767186641693 71.3302493095398,15.559767186641693 71.44717574119568,16.124826669692993 71.44717574119568,16.124826669692993 71.56347036361694,16.621753573417664 71.56347036361694,16.621753573417664 71.625816822052,16.76427274942398 71.625816822052,16.76427274942398 71.72536849975586,16.85449182987213 71.72536849975586,16.85449182987213 71.85369729995728,16.907067596912384 71.85369729995728,16.907067596912384 72.00213074684143,16.936616599559784 72.00213074684143,16.936616599559784 72.16220498085022,16.957813501358032 72.16220498085022,16.957813501358032 72.32536673545837,16.98528528213501 72.32536673545837,16.98528528213501 72.93099164962769,17.115166783332825 72.93099164962769,17.115166783332825 73.53740334510803,17.241525650024414 73.53740334510803,17.241525650024414 74.14453029632568,17.36464947462082 74.14453029632568,17.36464947462082 74.75221157073975,17.48480349779129 74.75221157073975,17.48480349779129 75.36040544509888,17.60229617357254 75.36040544509888,17.60229617357254 75.96891522407532,17.71741509437561 75.96891522407532,17.71741509437561 76.46430134773254,17.809148132801056 76.46430134773254,17.809148132801056 76.9599199295044,17.899388074874878 76.9599199295044,17.899388074874878 77.45581865310669,17.988163232803345 77.45581865310669,17.988163232803345 77.9520332813263,18.075454235076904 77.9520332813263,18.075454235076904 78.44859957695007,18.161270022392273 78.44859957695007,18.161270022392273 78.94557118415833,18.24561208486557 78.94557118415833,18.24561208486557 79.2319118976593,18.293537199497223 79.2319118976593,18.293537199497223 79.51833605766296,18.340978026390076 79.51833605766296,18.340978026390076 79.80483770370483,18.38795244693756 79.80483770370483,18.38795244693756 80.09142279624939,18.43438446521759 80.09142279624939,18.43438446521759 80.37819862365723,18.480250239372253 80.37819862365723,18.480250239372253 80.66505789756775,18.525543808937073 80.66505789756775,18.525543808937073 80.7201623916626,18.21141242980957 80.7201623916626,18.21141242980957 80.75174689292908,18.041372299194336 80.75174689292908,18.041372299194336 80.80407381057739,17.786279320716858 80.80407381057739,17.786279320716858 80.8799147605896,17.500023543834686 80.8799147605896,17.500023543834686 80.98199963569641,17.23644882440567 80.98199963569641,17.23644882440567 81.11318349838257,17.0494481921196 81.11318349838257,17.0494481921196" stroke="white" stroke-width="0.1" /></svg>