<?xml version="1.0" encoding="utf-8" ?>
<svg baseProfile="full" height="76.10536813735962" version="1.1" width="99.9755859375" xmlns="http://www.w3.org/2000/svg" xmlns:ev="http://www.w3.org/2001/xml-events" xmlns:xlink="http://www.w3.org/1999/xlink"><defs><clipPath /></defs><polygon points="99.64256882667542,40.14531672000885 99.64256882667542,40.14531672000885 99.26658868789673,40.98639786243439 99.26658868789673,40.98639786243439 98.7753689289093,41.75533354282379 98.7753689289093,41.75533354282379 98.19918274879456,42.46836006641388 98.19918274879456,42.46836006641388 97.56684899330139,43.14122498035431 97.56684899330139,43.14122498035431 96.90790176391602,43.790650367736816 96.90790176391602,43.790650367736816 96.25188112258911,44.43250894546509 96.25188112258911,44.43250894546509 92.78818964958191,47.89705276489258 92.78818964958191,47.89705276489258 89.32352066040039,51.36184096336365 89.32352066040039,51.36184096336365 85.85861325263977,54.826509952545166 85.85861325263977,54.826509952545166 82.39321112632751,58.291298151016235 82.39321112632751,58.291298151016235 78.92780900001526,61.75645589828491 78.92780900001526,61.75645589828491 75.46241283416748,65.22197723388672 75.46241283416748,65.22197723388672 74.10300970077515,66.58040285110474 74.10300970077515,66.58040285110474 72.74433970451355,67.93882846832275 72.74433970451355,67.93882846832275 71.38615846633911,69.29774284362793 71.38615846633911,69.29774284362793 70.0277328491211,70.6568956375122 70.0277328491211,70.6568956375122 68.66906881332397,72.01654314994812 68.66906881332397,72.01654314994812 67.30991005897522,73.37643504142761 67.30991005897522,73.37643504142761 66.82039499282837,73.86045455932617 66.82039499282837,73.86045455932617 66.32380485534668,74.32530522346497 66.32380485534668,74.32530522346497 65.80792665481567,74.75927472114563 65.80792665481567,74.75927472114563 65.25908708572388,75.1507580280304 65.25908708572388,75.1507580280304 64.66532349586487,75.48853754997253 64.66532349586487,75.48853754997253 64.01296854019165,75.76124668121338 64.01296854019165,75.76124668121338 61.959218978881836,76.10536813735962 61.959218978881836,76.10536813735962 59.987252950668335,75.78260898590088 59.987252950668335,75.78260898590088 58.22672247886658,74.88769292831421 58.22672247886658,74.88769292831421 56.80775046348572,73.5143780708313 56.80775046348572,73.5143780708313 55.861443281173706,71.75726294517517 55.861443281173706,71.75726294517517 55.51670789718628,69.71034407615662 55.51670789718628,69.71034407615662 55.51670789718628,54.9795925617218 55.51670789718628,54.9795925617218 23.777808248996735,54.9795925617218 23.777808248996735,54.9795925617218 41.21955633163452,37.5358909368515 41.21955633163452,37.5358909368515 42.00838804244995,36.63621246814728 42.00838804244995,36.63621246814728 42.664408683776855,35.654017329216 42.664408683776855,35.654017329216 43.18394958972931,34.6015065908432 43.18394958972931,34.6015065908432 43.56091022491455,33.48966836929321 43.56091022491455,33.48966836929321 43.790650367736816,32.33046531677246 43.790650367736816,32.33046531677246 43.86804401874542,31.135374307632446 43.86804401874542,31.135374307632446 43.79016160964966,29.93845045566559 43.79016160964966,29.93845045566559 43.56017708778381,28.77815067768097 43.56017708778381,28.77815067768097 43.18346083164215,27.666068077087402 43.18346083164215,27.666068077087402 42.66367554664612,26.61319077014923 42.66367554664612,26.61319077014923 42.00643599033356,25.631725788116455 42.00643599033356,25.631725788116455 41.215649247169495,24.732905626296997 41.215649247169495,24.732905626296997 37.614014744758606,21.1273655295372 37.614014744758606,21.1273655295372 55.51670789718628,21.1273655295372 55.51670789718628,21.1273655295372 55.51670789718628,6.3536398112773895 55.51670789718628,6.3536398112773895 56.05211853981018,3.8013439625501633 56.05211853981018,3.8013439625501633 57.47402310371399,1.8154650926589966 57.47402310371399,1.8154650926589966 59.5045804977417,0.510996300727129 59.5045804977417,0.510996300727129 61.865222454071045,0.002685599247342907 61.865222454071045,0.002685599247342907 64.27859663963318,0.40625794790685177 64.27859663963318,0.40625794790685177 66.46614074707031,1.8359733745455742 66.46614074707031,1.8359733745455742 66.96224808692932,2.333785779774189 66.96224808692932,2.333785779774189 67.45932698249817,2.831231988966465 67.45932698249817,2.831231988966465 67.95640587806702,3.328678384423256 67.95640587806702,3.328678384423256 68.45348477363586,3.825514018535614 68.45348477363586,3.825514018535614 68.95056366920471,4.322227835655212 68.95056366920471,4.322227835655212 69.44667100906372,4.818453639745712 69.44667100906372,4.818453639745712 84.29070711135864,19.662493467330933 84.29070711135864,19.662493467330933 97.13861346244812,32.51430690288544 97.13861346244812,32.51430690288544 98.11910390853882,33.58463943004608 98.11910390853882,33.58463943004608 98.94895553588867,34.72907245159149 98.94895553588867,34.72907245159149 99.57274794578552,35.95260679721832 99.57274794578552,35.95260679721832 99.93359446525574,37.25976049900055 99.93359446525574,37.25976049900055 99.9755859375,38.65578472614288 99.9755859375,38.65578472614288" stroke="white" stroke-width="0.1" /><polygon points="31.914687156677246,25.002440810203552 31.914687156677246,25.002440810203552 36.43040060997009,29.522061347961426 36.43040060997009,29.522061347961426 36.80003583431244,30.00742197036743 36.80003583431244,30.00742197036743 37.02147603034973,30.55577278137207 37.02147603034973,30.55577278137207 37.09545135498047,31.135374307632446 37.09545135498047,31.135374307632446 37.02123165130615,31.714975833892822 37.02123165130615,31.714975833892822 36.79979145526886,32.26320445537567 36.79979145526886,32.26320445537567 36.43040060997009,32.74868726730347 36.43040060997009,32.74868726730347 15.13310819864273,54.0479302406311 15.13310819864273,54.0479302406311 14.899705350399017,54.25105690956116 14.899705350399017,54.25105690956116 14.647258818149567,54.41719889640808 14.647258818149567,54.41719889640808 14.379186928272247,54.54623103141785 14.379186928272247,54.54623103141785 14.099152386188507,54.638153314590454 14.099152386188507,54.638153314590454 13.811549544334412,54.693448543548584 13.811549544334412,54.693448543548584 13.51979523897171,54.71200346946716 13.51979523897171,54.71200346946716 13.22755366563797,54.69369292259216 13.22755366563797,54.69369292259216 12.939217686653137,54.63839769363403 12.939217686653137,54.63839769363403 12.658938765525818,54.54623103141785 12.658938765525818,54.54623103141785 12.39062324166298,54.41707968711853 12.39062324166298,54.41707968711853 12.138421088457108,54.250937700271606 12.138421088457108,54.250937700271606 11.90648227930069,54.0479302406311 11.90648227930069,54.0479302406311 0.6640754640102386,42.8035706281662 0.6640754640102386,42.8035706281662 0.294683501124382,42.31918752193451 0.294683501124382,42.31918752193451 0.07299947319552302,41.771200299263 0.07299947319552302,41.771200299263 -0.0009765815775608644,41.19172394275665 -0.0009765815775608644,41.19172394275665 0.07275532698258758,40.61163365840912 0.07275532698258758,40.61163365840912 0.294683501124382,40.06291627883911 0.294683501124382,40.06291627883911 0.6640754640102386,39.57694470882416 0.6640754640102386,39.57694470882416 5.1797885447740555,35.05927920341492 5.1797885447740555,35.05927920341492 5.413680151104927,34.856149554252625 5.413680151104927,34.856149554252625 5.666614696383476,34.68964397907257 5.666614696383476,34.68964397907257 5.935174599289894,34.56000089645386 5.935174599289894,34.56000089645386 6.214965134859085,34.46722626686096 6.214965134859085,34.46722626686096 6.502079963684082,34.411683678627014 6.502079963684082,34.411683678627014 6.793101131916046,34.393250942230225 6.793101131916046,34.393250942230225 7.085587829351425,34.411805868148804 7.085587829351425,34.411805868148804 7.373679429292679,34.46734845638275 7.373679429292679,34.46734845638275 7.653958350419998,34.56000089645386 7.653958350419998,34.56000089645386 7.921785861253738,34.68939960002899 7.921785861253738,34.68939960002899 8.17423164844513,34.855905175209045 8.17423164844513,34.855905175209045 8.406414091587067,35.05927920341492 8.406414091587067,35.05927920341492 13.51979523897171,40.17070531845093 13.51979523897171,40.17070531845093 28.688061237335205,25.002440810203552 28.688061237335205,25.002440810203552 28.920242190361023,24.800044298171997 28.920242190361023,24.800044298171997 29.172199964523315,24.634025990962982 29.172199964523315,24.634025990962982 29.440516233444214,24.504873156547546 29.440516233444214,24.504873156547546 29.720550775527954,24.41234141588211 29.720550775527954,24.41234141588211 30.009132623672485,24.356798827648163 30.009132623672485,24.356798827648163 30.301374197006226,24.338366091251373 30.301374197006226,24.338366091251373 30.593615770339966,24.356921017169952 30.593615770339966,24.356921017169952 30.8809757232666,24.4124636054039 30.8809757232666,24.4124636054039 31.160765886306763,24.504873156547546 31.160765886306763,24.504873156547546 31.428349018096924,24.633903801441193 31.428349018096924,24.633903801441193 31.681284308433533,24.799923598766327 31.681284308433533,24.799923598766327" stroke="white" stroke-width="0.1" /></svg>