<?xml version="1.0" encoding="utf-8" ?>
<svg baseProfile="full" height="99.99867081642151" version="1.1" width="77.94952988624573" xmlns="http://www.w3.org/2000/svg" xmlns:ev="http://www.w3.org/2001/xml-events" xmlns:xlink="http://www.w3.org/1999/xlink"><defs><clipPath /></defs><polygon points="77.94952988624573,74.1934061050415 77.94952988624573,74.1934061050415 77.94952988624573,74.1934061050415 77.94952988624573,74.1934061050415 77.83972024917603,76.85843110084534 77.83972024917603,76.85843110084534 77.17244029045105,79.39079403877258 77.17244029045105,79.39079403877258 75.99692940711975,81.70509934425354 75.99692940711975,81.70509934425354 74.36044812202454,83.71570706367493 74.36044812202454,83.71570706367493 72.31201529502869,85.3375494480133 72.31201529502869,85.3375494480133 69.89955306053162,86.4848792552948 69.89955306053162,86.4848792552948 68.3839738368988,86.8859589099884 68.3839738368988,86.8859589099884 66.81514978408813,87.10735440254211 66.81514978408813,87.10735440254211 65.21482467651367,87.19674944877625 65.21482467651367,87.19674944877625 63.603854179382324,87.20163106918335 63.603854179382324,87.20163106918335 62.00397610664368,87.16968894004822 62.00397610664368,87.16968894004822 60.436928272247314,87.14861273765564 60.436928272247314,87.14861273765564 51.11272931098938,87.14861273765564 51.11272931098938,87.14861273765564 51.03841423988342,86.93298697471619 51.03841423988342,86.93298697471619 51.00291967391968,86.38849258422852 51.00291967391968,86.38849258422852 50.995153188705444,85.66808104515076 50.995153188705444,85.66808104515076 51.00336670875549,84.92470979690552 51.00336670875549,84.92470979690552 51.01667642593384,84.31199789047241 51.01667642593384,84.31199789047241 51.023995876312256,83.98257493972778 51.023995876312256,83.98257493972778 51.023995876312256,43.21981370449066 51.023995876312256,43.21981370449066 50.84386467933655,39.475446939468384 50.84386467933655,39.475446939468384 50.243574380874634,35.88525950908661 50.243574380874634,35.88525950908661 49.13395345211029,32.523006200790405 49.13395345211029,32.523006200790405 47.42559790611267,29.46244776248932 47.42559790611267,29.46244776248932 45.02910673618317,26.777571439743042 45.02910673618317,26.777571439743042 41.85596704483032,24.542132019996643 41.85596704483032,24.542132019996643 39.790233969688416,23.592452704906464 39.790233969688416,23.592452704906464 37.6894474029541,22.96454608440399 37.6894474029541,22.96454608440399 35.55361330509186,22.591862082481384 35.55361330509186,22.591862082481384 33.38295221328735,22.4078506231308 33.38295221328735,22.4078506231308 31.178346276283264,22.346290946006775 31.178346276283264,22.346290946006775 28.939804434776306,22.34063297510147 28.939804434776306,22.34063297510147 28.3634752035141,22.328653931617737 28.3634752035141,22.328653931617737 27.997666597366333,22.265875339508057 27.997666597366333,22.265875339508057 27.795574069023132,22.111698985099792 27.795574069023132,22.111698985099792 27.70950198173523,21.825531125068665 27.70950198173523,21.825531125068665 27.69264280796051,21.366997063159943 27.69264280796051,21.366997063159943 27.697524428367615,20.695500075817108 27.697524428367615,20.695500075817108 27.709057927131653,19.992946088314056 27.709057927131653,19.992946088314056 27.743887901306152,19.291280210018158 27.743887901306152,19.291280210018158 27.802228927612305,18.591277301311493 27.802228927612305,18.591277301311493 27.88386642932892,17.893603444099426 27.88386642932892,17.893603444099426 27.98990309238434,17.1993687748909 27.98990309238434,17.1993687748909 28.119897842407227,16.50901585817337 28.119897842407227,16.50901585817337 28.434905409812927,15.193751454353333 28.434905409812927,15.193751454353333 28.835096955299377,13.902667164802551 28.835096955299377,13.902667164802551 29.31869924068451,12.64086663722992 29.31869924068451,12.64086663722992 29.883047938346863,11.413004994392395 29.883047938346863,11.413004994392395 30.52637279033661,10.22457554936409 30.52637279033661,10.22457554936409 31.246894598007202,9.080180525779724 31.246894598007202,9.080180525779724 35.110387206077576,4.818327724933624 35.110387206077576,4.818327724933624 39.86388146877289,1.8649730831384659 39.86388146877289,1.8649730831384659 45.177292823791504,0.2758527407422662 45.177292823791504,0.2758527407422662 50.71918964385986,0.10631477925926447 50.71918964385986,0.10631477925926447 56.159937381744385,1.412039902061224 56.159937381744385,1.412039902061224 61.16809844970703,4.248598217964172 61.16809844970703,4.248598217964172 65.4102623462677,8.705388754606247 65.4102623462677,8.705388754606247 68.06585788726807,14.031997323036194 68.06585788726807,14.031997323036194 69.11736130714417,19.827456772327423 69.11736130714417,19.827456772327423 68.54680180549622,25.691017508506775 68.54680180549622,25.691017508506775 66.33731722831726,31.22204840183258 66.33731722831726,31.22204840183258 62.47071623802185,36.019912362098694 62.47071623802185,36.019912362098694 65.55202007293701,36.42298877239227 65.55202007293701,36.42298877239227 68.43321919441223,37.50665485858917 68.43321919441223,37.50665485858917 71.01184129714966,39.18262422084808 71.01184129714966,39.18262422084808 73.18405508995056,41.36238396167755 73.18405508995056,41.36238396167755 74.84715580940247,43.95763874053955 74.84715580940247,43.95763874053955 75.89799165725708,46.88010215759277 75.89799165725708,46.88010215759277 76.13890767097473,48.14146161079407 76.13890767097473,48.14146161079407 76.29863023757935,49.43043887615204 76.29863023757935,49.43043887615204 76.40111446380615,50.73505640029907 76.40111446380615,50.73505640029907 76.46966576576233,52.043330669403076 76.46966576576233,52.043330669403076 76.52844786643982,53.34373116493225 76.52844786643982,53.34373116493225 76.6007661819458,54.623943567276 76.6007661819458,54.623943567276 76.8248200416565,57.88581967353821 76.8248200416565,57.88581967353821 77.04910039901733,61.14746928215027 77.04910039901733,61.14746928215027 77.27381587028503,64.40901160240173 77.27381587028503,64.40901160240173 77.49875783920288,67.67032742500305 77.49875783920288,67.67032742500305 77.7239203453064,70.93186974525452 77.7239203453064,70.93186974525452" stroke="white" stroke-width="0.1" /><polygon points="33.31263065338135,29.609745740890503 33.31263065338135,29.609745740890503 33.31263065338135,29.609745740890503 33.31263065338135,29.609745740890503 36.32183074951172,30.03944158554077 36.32183074951172,30.03944158554077 38.881370425224304,31.2389075756073 38.881370425224304,31.2389075756073 40.94821512699127,33.07371139526367 40.94821512699127,33.07371139526367 42.47799515724182,35.40942072868347 42.47799515724182,35.40942072868347 43.42833757400513,38.11160326004028 43.42833757400513,38.11160326004028 43.754881620407104,41.04582369327545 43.754881620407104,41.04582369327545 43.754881620407104,52.56531238555908 43.754881620407104,52.56531238555908 43.754881620407104,83.98257493972778 43.754881620407104,83.98257493972778 43.754881620407104,88.06169033050537 43.754881620407104,88.06169033050537 43.534597754478455,90.72449803352356 43.534597754478455,90.72449803352356 42.86443293094635,93.22624802589417 42.86443293094635,93.22624802589417 41.7308509349823,95.47100067138672 41.7308509349823,95.47100067138672 40.119436383247375,97.36193418502808 40.119436383247375,97.36193418502808 38.01732063293457,98.80363941192627 38.01732063293457,98.80363941192627 35.410308837890625,99.69919323921204 35.410308837890625,99.69919323921204 34.13608372211456,99.89362955093384 34.13608372211456,99.89362955093384 32.82680809497833,99.98314380645752 32.82680809497833,99.98314380645752 31.49934411048889,99.99867081642151 31.49934411048889,99.99867081642151 30.16921579837799,99.97116327285767 30.16921579837799,99.97116327285767 28.85417342185974,99.93212223052979 28.85417342185974,99.93212223052979 27.56974697113037,99.91215467453003 27.56974697113037,99.91215467453003 15.45218974351883,99.91215467453003 15.45218974351883,99.91215467453003 14.08412903547287,99.93178844451904 14.08412903547287,99.93178844451904 12.68123984336853,99.96195435523987 12.68123984336853,99.96195435523987 11.265706270933151,99.95996356010437 11.265706270933151,99.95996356010437 9.859489649534225,99.88298416137695 9.859489649534225,99.88298416137695 8.48521739244461,99.68854188919067 8.48521739244461,99.68854188919067 7.164406776428223,99.33360815048218 7.164406776428223,99.33360815048218 5.151691287755966,98.37583303451538 5.151691287755966,98.37583303451538 3.432907909154892,97.04492688179016 3.432907909154892,97.04492688179016 2.0404450595378876,95.40267586708069 2.0404450595378876,95.40267586708069 1.0058032348752022,93.51063966751099 1.0058032348752022,93.51063966751099 0.36181409377604723,91.43093228340149 0.36181409377604723,91.43093228340149 0.1402001827955246,89.22499418258667 0.1402001827955246,89.22499418258667 0.1402001827955246,73.2350766658783 0.1402001827955246,73.2350766658783 0.1402001827955246,49.14903938770294 0.1402001827955246,49.14903938770294 0.07986086420714855,46.49222195148468 0.07986086420714855,46.49222195148468 0.0028838645448558964,43.68977248668671 0.0028838645448558964,43.68977248668671 0.06699439254589379,40.8539354801178 0.06699439254589379,40.8539354801178 0.4285866394639015,38.0967378616333 0.4285866394639015,38.0967378616333 1.24560771510005,35.53098738193512 1.24560771510005,35.53098738193512 2.674451656639576,33.26826095581055 2.674451656639576,33.26826095581055 3.0021030455827713,32.90567100048065 3.0021030455827713,32.90567100048065 3.345726802945137,32.5579434633255 3.345726802945137,32.5579434633255 3.70510034263134,32.22641050815582 3.70510034263134,32.22641050815582 4.079115763306618,31.91218078136444 4.079115763306618,31.91218078136444 4.468215629458427,31.616583466529846 4.468215629458427,31.616583466529846 4.871512949466705,31.340953707695007 4.871512949466705,31.340953707695007 5.253070220351219,31.03925585746765 5.253070220351219,31.03925585746765 5.482670292258263,30.733013153076172 5.482670292258263,30.733013153076172 5.603127181529999,30.40502965450287 5.603127181529999,30.40502965450287 5.657476931810379,30.037778615951538 5.657476931810379,30.037778615951538 5.689199268817902,29.613962769508362 5.689199268817902,29.613962769508362 5.741108953952789,29.1163831949234 5.741108953952789,29.1163831949234 5.860678479075432,28.308790922164917 5.860678479075432,28.308790922164917 5.996663868427277,27.503415942192078 5.996663868427277,27.503415942192078 6.151061505079269,26.70125961303711 6.151061505079269,26.70125961303711 6.325424462556839,25.903314352035522 6.325424462556839,25.903314352035522 6.521748751401901,25.110918283462524 6.521748751401901,25.110918283462524 6.7420318722724915,24.324733018875122 6.7420318722724915,24.324733018875122 7.025759667158127,23.400786519050598 7.025759667158127,23.400786519050598 7.382693141698837,22.389769554138184 7.382693141698837,22.389769554138184 7.833463698625565,21.376535296440125 7.833463698625565,21.376535296440125 8.39736983180046,20.445379614830017 8.39736983180046,20.445379614830017 9.095264971256256,19.681155681610107 9.095264971256256,19.681155681610107 9.947114437818527,19.1683828830719 9.947114437818527,19.1683828830719 11.94363608956337,19.305920600891113 11.94363608956337,19.305920600891113 13.283523917198181,21.06141746044159 13.283523917198181,21.06141746044159 14.147795736789703,23.702260851860046 14.147795736789703,23.702260851860046 14.71724808216095,26.495617628097534 14.71724808216095,26.495617628097534 15.173564851284027,28.7090927362442 15.173564851284027,28.7090927362442 15.697096288204193,29.609745740890503 15.697096288204193,29.609745740890503" stroke="white" stroke-width="0.1" /><polygon points="36.940085887908936,58.343684673309326 36.940085887908936,58.343684673309326 36.940085887908936,58.343684673309326 36.940085887908936,58.343684673309326 36.940085887908936,52.17843055725098 36.940085887908936,52.17843055725098 36.96205019950867,50.25322437286377 36.96205019950867,50.25322437286377 36.967816948890686,48.32436442375183 36.967816948890686,48.32436442375183 36.86865568161011,46.41502499580383 36.86865568161011,46.41502499580383 36.574944853782654,44.548165798187256 36.574944853782654,44.548165798187256 35.9979510307312,42.74685978889465 35.9979510307312,42.74685978889465 35.04827320575714,41.034287214279175 35.04827320575714,41.034287214279175 33.477675914764404,39.26537036895752 33.477675914764404,39.26537036895752 31.699660420417786,38.035401701927185 31.699660420417786,38.035401701927185 29.74817156791687,37.247440218925476 29.74817156791687,37.247440218925476 27.657592296600342,36.8045449256897 27.657592296600342,36.8045449256897 25.462305545806885,36.60977482795715 25.462305545806885,36.60977482795715 23.19691926240921,36.566516757011414 23.19691926240921,36.566516757011414 21.20860517024994,36.53767704963684 21.20860517024994,36.53767704963684 19.198109209537506,36.51393949985504 19.198109209537506,36.51393949985504 17.197149991989136,36.58958673477173 17.197149991989136,36.58958673477173 15.237675607204437,36.85900568962097 15.237675607204437,36.85900568962097 13.352292776107788,37.41636872291565 13.352292776107788,37.41636872291565 11.57272681593895,38.35628628730774 11.57272681593895,38.35628628730774 9.876126796007156,39.78801369667053 9.876126796007156,39.78801369667053 8.641833066940308,41.42272174358368 8.641833066940308,41.42272174358368 7.801075279712677,43.229684233665466 7.801075279712677,43.229684233665466 7.285085320472717,45.17795741558075 7.285085320472717,45.17795741558075 7.025981694459915,47.237035632133484 7.025981694459915,47.237035632133484 6.954994052648544,49.37619864940643 6.954994052648544,49.37619864940643 6.941462308168411,50.98462104797363 6.941462308168411,50.98462104797363 6.91240131855011,52.599912881851196 6.91240131855011,52.599912881851196 6.884893774986267,54.21820878982544 6.884893774986267,54.21820878982544 6.8753547966480255,55.83605766296387 6.8753547966480255,55.83605766296387 6.901309639215469,57.449913024902344 6.901309639215469,57.449913024902344 6.979839503765106,59.056222438812256 6.979839503765106,59.056222438812256 7.537756860256195,61.78258657455444 7.537756860256195,61.78258657455444 8.745208382606506,64.14624452590942 8.745208382606506,64.14624452590942 10.49460545182228,66.0878598690033 10.49460545182228,66.0878598690033 12.677468359470367,67.54809617996216 12.677468359470367,67.54809617996216 15.185987949371338,68.46782565116882 15.185987949371338,68.46782565116882 17.91190505027771,68.78771185874939 17.91190505027771,68.78771185874939 26.455244421958923,68.78771185874939 26.455244421958923,68.78771185874939 29.207560420036316,68.41037273406982 29.207560420036316,68.41037273406982 31.702324748039246,67.34833121299744 31.702324748039246,67.34833121299744 33.83128046989441,65.70597290992737 33.83128046989441,65.70597290992737 35.48595309257507,63.587886095047 35.48595309257507,63.587886095047 36.55852973461151,61.09910607337952 36.55852973461151,61.09910607337952" stroke="white" stroke-width="0.1" /></svg>