<?xml version="1.0" encoding="utf-8" ?>
<svg baseProfile="full" height="55.399030447006226" version="1.1" width="100.0" xmlns="http://www.w3.org/2000/svg" xmlns:ev="http://www.w3.org/2001/xml-events" xmlns:xlink="http://www.w3.org/1999/xlink"><defs><clipPath /></defs><polygon points="46.0506409406662,16.236287355422974 46.0506409406662,16.236287355422974 45.51743268966675,15.679748356342316 45.51743268966675,15.679748356342316 45.25979459285736,15.184876322746277 45.25979459285736,15.184876322746277 45.27021050453186,14.77133333683014 45.27021050453186,14.77133333683014 45.54103910923004,14.45867121219635 45.54103910923004,14.45867121219635 46.064695715904236,14.266583323478699 46.064695715904236,14.266583323478699 46.83365821838379,14.214640855789185 46.83365821838379,14.214640855789185 59.555238485336304,14.56768810749054 59.555238485336304,14.56768810749054 58.20517539978027,10.072730481624603 58.20517539978027,10.072730481624603 58.06541442871094,9.296800196170807 58.06541442871094,9.296800196170807 58.14467668533325,8.685005456209183 58.14467668533325,8.685005456209183 58.42299461364746,8.25522094964981 58.42299461364746,8.25522094964981 58.880358934402466,8.02527368068695 58.880358934402466,8.02527368068695 59.496837854385376,8.013085275888443 59.496837854385376,8.013085275888443 60.252463817596436,8.236483484506607 60.252463817596436,8.236483484506607 64.58174586296082,10.070758312940598 64.58174586296082,10.070758312940598 66.77991151809692,3.084736689925194 66.77991151809692,3.084736689925194 67.11071133613586,2.3569131270051003 67.11071133613586,2.3569131270051003 67.55005121231079,1.8734129145741463 67.55005121231079,1.8734129145741463 68.06846857070923,1.6399990767240524 68.06846857070923,1.6399990767240524 68.63659024238586,1.6622956842184067 68.63659024238586,1.6622956842184067 69.22506093978882,1.946050487458706 69.22506093978882,1.946050487458706 69.80449557304382,2.49697994440794 69.80449557304382,2.49697994440794 73.35864901542664,6.818372756242752 73.35864901542664,6.818372756242752 73.35864901542664,9.25026535987854 73.35864901542664,9.25026535987854 73.35864901542664,32.03077018260956 73.35864901542664,32.03077018260956 70.71707248687744,30.69324791431427 70.71707248687744,30.69324791431427 68.0521011352539,29.54402267932892 68.0521011352539,29.54402267932892 65.3881847858429,28.552797436714172 65.3881847858429,28.552797436714172 62.74971961975098,27.689269185066223 62.74971961975098,27.689269185066223 60.161179304122925,26.92316770553589 60.161179304122925,26.92316770553589 57.64700174331665,26.224207878112793 57.64700174331665,26.224207878112793 57.60558247566223,26.176869869232178 57.60558247566223,26.176869869232178 56.76330327987671,25.226834416389465 56.76330327987671,25.226834416389465 55.89578151702881,24.287138879299164 55.89578151702881,24.287138879299164 55.0024688243866,23.35963249206543 55.0024688243866,23.35963249206543 54.08273935317993,22.44606912136078 54.08273935317993,22.44606912136078 53.136080503463745,21.548286080360413 53.136080503463745,21.548286080360413 52.16193199157715,20.66812962293625 52.16193199157715,20.66812962293625 52.05690264701843,20.57499885559082 52.05690264701843,20.57499885559082 51.95252299308777,20.48126608133316 51.95252299308777,20.48126608133316 51.84832811355591,20.38731873035431 51.84832811355591,20.38731873035431 51.74376368522644,20.293524861335754 51.74376368522644,20.293524861335754 51.63840055465698,20.20028531551361 51.63840055465698,20.20028531551361 51.53176784515381,20.1079860329628 51.53176784515381,20.1079860329628 50.74262022972107,19.45224553346634 50.74262022972107,19.45224553346634 49.90847408771515,18.78884583711624 49.90847408771515,18.78884583711624 49.026158452034,18.127019703388214 49.026158452034,18.127019703388214 48.092350363731384,17.47583895921707 48.092350363731384,17.47583895921707 47.10393249988556,16.84453785419464 47.10393249988556,16.84453785419464 46.05754315853119,16.24220311641693 46.05754315853119,16.24220311641693" stroke="white" stroke-width="0.1" /><polygon points="94.6303129196167,0.0 94.6303129196167,0.0 96.0536003112793,0.19264195580035448 96.0536003112793,0.19264195580035448 97.33515977859497,0.7357437163591385 97.33515977859497,0.7357437163591385 98.42274785041809,1.5771308913826942 98.42274785041809,1.5771308913826942 99.26419854164124,2.664520777761936 99.26419854164124,2.664520777761936 99.80732798576355,3.9457853883504868 99.80732798576355,3.9457853883504868 100.0,5.368703976273537 100.0,5.368703976273537 100.0,50.03032684326172 100.0,50.03032684326172 99.80736374855042,51.45321488380432 99.80736374855042,51.45321488380432 99.26419854164124,52.73446440696716 99.26419854164124,52.73446440696716 98.42274785041809,53.82189750671387 98.42274785041809,53.82189750671387 97.33512997627258,54.66322302818298 97.33512997627258,54.66322302818298 96.0536003112793,55.206358432769775 96.0536003112793,55.206358432769775 94.6303129196167,55.399030447006226 94.6303129196167,55.399030447006226 85.17295122146606,55.399030447006226 85.17295122146606,55.399030447006226 83.82226824760437,55.22490739822388 83.82226824760437,55.22490739822388 82.5995147228241,54.732441902160645 82.5995147228241,54.732441902160645 81.5477967262268,53.966617584228516 81.5477967262268,53.966617584228516 80.71004748344421,52.97231674194336 80.71004748344421,52.97231674194336 80.1293134689331,51.79445743560791 80.1293134689331,51.79445743560791 79.84862327575684,50.478047132492065 79.84862327575684,50.478047132492065 79.84082698822021,50.403374433517456 79.84082698822021,50.403374433517456 79.83115315437317,50.32910704612732 79.83115315437317,50.32910704612732 79.82113361358643,50.254929065704346 79.82113361358643,50.254929065704346 79.81213927268982,50.18056035041809 79.81213927268982,50.18056035041809 79.80572581291199,50.10579824447632 79.80572581291199,50.10579824447632 79.80326414108276,50.03032684326172 79.80326414108276,50.03032684326172 79.80326414108276,5.368703976273537 79.80326414108276,5.368703976273537 79.80656027793884,5.215508863329887 79.80656027793884,5.215508863329887 79.81586456298828,5.063577368855476 79.81586456298828,5.063577368855476 79.83025908470154,4.912847653031349 79.83025908470154,4.912847653031349 79.84880805015564,4.763242602348328 79.84880805015564,4.763242602348328 79.87068891525269,4.614762589335442 79.87068891525269,4.614762589335442 79.89497780799866,4.467345774173737 79.89497780799866,4.467345774173737 80.25292158126831,3.2591652125120163 80.25292158126831,3.2591652125120163 80.86844682693481,2.186213433742523 80.86844682693481,2.186213433742523 81.704843044281,1.2862109579145908 81.704843044281,1.2862109579145908 82.72546529769897,0.5967247299849987 82.72546529769897,0.5967247299849987 83.89373421669006,0.15544488560408354 83.89373421669006,0.15544488560408354 85.17295122146606,0.0 85.17295122146606,0.0" stroke="white" stroke-width="0.1" /><polygon points="17.111511528491974,34.799933433532715 17.111511528491974,34.799933433532715 18.91878992319107,35.21313667297363 18.91878992319107,35.21313667297363 20.52387148141861,36.05301380157471 20.52387148141861,36.05301380157471 21.864353120326996,37.249577045440674 21.864353120326996,37.249577045440674 22.877703607082367,38.73274326324463 22.877703607082367,38.73274326324463 23.50160926580429,40.43257534503937 23.50160926580429,40.43257534503937 23.67348074913025,42.279037833213806 23.67348074913025,42.279037833213806 23.292264342308044,44.30281221866608 23.292264342308044,44.30281221866608 22.381074726581573,46.08358442783356 22.381074726581573,46.08358442783356 21.037204563617706,47.54049777984619 21.037204563617706,47.54049777984619 19.357819855213165,48.59255254268646 19.357819855213165,48.59255254268646 17.440275847911835,49.158862233161926 17.440275847911835,49.158862233161926 15.381771326065063,49.158552289009094 15.381771326065063,49.158552289009094 13.541272282600403,48.61961305141449 13.541272282600403,48.61961305141449 11.947160214185715,47.63664901256561 11.947160214185715,47.63664901256561 10.66221296787262,46.293485164642334 10.66221296787262,46.293485164642334 9.7492054104805,44.67401206493378 9.7492054104805,44.67401206493378 9.270913153886795,42.862170934677124 9.270913153886795,42.862170934677124 9.29020494222641,40.941792726516724 9.29020494222641,40.941792726516724 9.800547361373901,39.16114270687103 9.800547361373901,39.16114270687103 10.7262521982193,37.60547637939453 10.7262521982193,37.60547637939453 11.993787437677383,36.33317947387695 11.993787437677383,36.33317947387695 13.529561460018158,35.40259003639221 13.529561460018158,35.40259003639221 15.259979665279388,34.87203121185303 15.259979665279388,34.87203121185303" stroke="white" stroke-width="0.1" /><polygon points="61.661696434020996,41.9693797826767 61.661696434020996,41.9693797826767 62.39703893661499,42.47722625732422 62.39703893661499,42.47722625732422 63.064366579055786,43.06826591491699 63.064366579055786,43.06826591491699 63.65572810173035,43.73437762260437 63.65572810173035,43.73437762260437 64.16326761245728,44.4673627614975 64.16326761245728,44.4673627614975 64.57909345626831,45.259103178977966 64.57909345626831,45.259103178977966 64.89534378051758,46.10143005847931 64.89534378051758,46.10143005847931 64.9835467338562,46.415647864341736 64.9835467338562,46.415647864341736 65.05751013755798,46.734702587127686 65.05751013755798,46.734702587127686 65.11686444282532,47.058260440826416 65.11686444282532,47.058260440826416 65.16115069389343,47.385913133621216 65.16115069389343,47.385913133621216 65.19002318382263,47.71732985973358 65.19002318382263,47.71732985973358 65.20302891731262,48.052072525024414 65.20302891731262,48.052072525024414 64.93275761604309,50.08801817893982 64.93275761604309,50.08801817893982 64.12305235862732,51.911938190460205 64.12305235862732,51.911938190460205 62.865811586380005,53.4380316734314 62.865811586380005,53.4380316734314 61.25286817550659,54.580509662628174 61.25286817550659,54.580509662628174 59.376126527786255,55.25357127189636 59.376126527786255,55.25357127189636 57.32748508453369,55.37141561508179 57.32748508453369,55.37141561508179 55.38697838783264,54.913341999053955 55.38697838783264,54.913341999053955 53.69231104850769,53.96637320518494 53.69231104850769,53.96637320518494 52.31565237045288,52.62123942375183 52.31565237045288,52.62123942375183 51.329052448272705,50.96854567527771 51.329052448272705,50.96854567527771 50.80477595329285,49.09907579421997 50.80477595329285,49.09907579421997 50.81482529640198,47.10337817668915 50.81482529640198,47.10337817668915 51.325225830078125,45.32272517681122 51.325225830078125,45.32272517681122 52.25108861923218,43.76712143421173 52.25108861923218,43.76712143421173 53.51877808570862,42.49500930309296 53.51877808570862,42.49500930309296 55.05461096763611,41.56474471092224 55.05461096763611,41.56474471092224 56.78496956825256,41.034770011901855 56.78496956825256,41.034770011901855 58.6361289024353,40.963488817214966 58.6361289024353,40.963488817214966 59.17827486991882,41.03567898273468 59.17827486991882,41.03567898273468 59.707170724868774,41.148442029953 59.707170724868774,41.148442029953 60.2213978767395,41.30001962184906 60.2213978767395,41.30001962184906 60.7194721698761,41.48854613304138 60.7194721698761,41.48854613304138 61.20004653930664,41.71226918697357 61.20004653930664,41.71226918697357" stroke="white" stroke-width="0.1" /><polygon points="73.35864901542664,45.21387815475464 73.35864901542664,45.21387815475464 73.62928986549377,45.3322172164917 73.62928986549377,45.3322172164917 73.92665147781372,45.455071330070496 73.92665147781372,45.455071330070496 74.22019243240356,45.5775260925293 74.22019243240356,45.5775260925293 74.47930574417114,45.694512128829956 74.47930574417114,45.694512128829956 74.67339634895325,45.80112397670746 74.67339634895325,45.80112397670746 74.77182745933533,45.89236080646515 74.77182745933533,45.89236080646515 74.8106300830841,46.17983102798462 74.8106300830841,46.17983102798462 74.7462511062622,46.58119976520538 74.7462511062622,46.58119976520538 74.6167540550232,47.03828990459442 74.6167540550232,47.03828990459442 74.46010708808899,47.49269783496857 74.46010708808899,47.49269783496857 74.31436777114868,47.88624048233032 74.31436777114868,47.88624048233032 74.21759963035583,48.160549998283386 74.21759963035583,48.160549998283386 74.09830689430237,48.55862259864807 74.09830689430237,48.55862259864807 73.97657632827759,48.968344926834106 73.97657632827759,48.968344926834106 73.84865283966064,49.38463270664215 73.84865283966064,49.38463270664215 73.71076941490173,49.802365899086 73.71076941490173,49.802365899086 73.55921268463135,50.21652579307556 73.55921268463135,50.21652579307556 73.39020371437073,50.6220281124115 73.39020371437073,50.6220281124115 73.24181795120239,50.93402862548828 73.24181795120239,50.93402862548828 73.07817339897156,51.23499631881714 73.07817339897156,51.23499631881714 72.89699912071228,51.52215361595154 72.89699912071228,51.52215361595154 72.69600629806519,51.792705059051514 72.69600629806519,51.792705059051514 72.47294187545776,52.04389691352844 72.47294187545776,52.04389691352844 72.22554087638855,52.27287411689758 72.22554087638855,52.27287411689758 71.50871753692627,52.74266004562378 71.50871753692627,52.74266004562378 70.75026035308838,53.025782108306885 70.75026035308838,53.025782108306885 69.95981335639954,53.16388010978699 69.95981335639954,53.16388010978699 69.1469669342041,53.198397159576416 69.1469669342041,53.198397159576416 68.3214783668518,53.170907497406006 68.3214783668518,53.170907497406006 67.4929141998291,53.12294960021973 67.4929141998291,53.12294960021973 68.17090511322021,51.507943868637085 68.17090511322021,51.507943868637085 68.55880618095398,49.85879361629486 68.55880618095398,49.85879361629486 68.67249608039856,48.203203082084656 68.67249608039856,48.203203082084656 68.52786540985107,46.56878113746643 68.52786540985107,46.56878113746643 68.14085841178894,44.98325288295746 68.14085841178894,44.98325288295746 67.52743124961853,43.47427487373352 67.52743124961853,43.47427487373352 66.82730913162231,42.255184054374695 66.82730913162231,42.255184054374695 65.97877740859985,41.13406538963318 65.97877740859985,41.13406538963318 64.99149799346924,40.128448605537415 64.99149799346924,40.128448605537415 63.87503147125244,39.25579786300659 63.87503147125244,39.25579786300659 62.63892650604248,38.53359818458557 62.63892650604248,38.53359818458557 61.292868852615356,37.97934055328369 61.292868852615356,37.97934055328369 60.949867963790894,37.870246171951294 60.949867963790894,37.870246171951294 60.60205698013306,37.770628929138184 60.60205698013306,37.770628929138184 60.24913191795349,37.681764364242554 60.24913191795349,37.681764364242554 59.890663623809814,37.604859471321106 59.890663623809814,37.604859471321106 59.52633023262024,37.54126727581024 59.52633023262024,37.54126727581024 59.155839681625366,37.49217391014099 59.155839681625366,37.49217391014099 55.63793182373047,37.695908546447754 55.63793182373047,37.695908546447754 52.505671977996826,38.98193538188934 52.505671977996826,38.98193538188934 49.94489848613739,41.14075303077698 49.94489848613739,41.14075303077698 48.14138114452362,43.962737917900085 48.14138114452362,43.962737917900085 47.281041741371155,47.2383588552475 47.281041741371155,47.2383588552475 47.549617290496826,50.75811743736267 47.549617290496826,50.75811743736267 43.9666211605072,49.96274411678314 43.9666211605072,49.96274411678314 40.38060009479523,49.23057556152344 40.38060009479523,49.23057556152344 36.78644597530365,48.569315671920776 36.78644597530365,48.569315671920776 33.17907154560089,47.98661470413208 33.17907154560089,47.98661470413208 29.553359746932983,47.4901407957077 29.553359746932983,47.4901407957077 25.90419352054596,47.08759784698486 25.90419352054596,47.08759784698486 26.992523670196533,43.96965503692627 26.992523670196533,43.96965503692627 27.07083225250244,40.781956911087036 27.07083225250244,40.781956911087036 26.233327388763428,37.73846924304962 26.233327388763428,37.73846924304962 24.5741605758667,35.05311608314514 24.5741605758667,35.05311608314514 22.187569737434387,32.93984830379486 22.187569737434387,32.93984830379486 19.167673587799072,31.612634658813477 19.167673587799072,31.612634658813477 15.934519469738007,31.288030743598938 15.934519469738007,31.288030743598938 12.85988986492157,31.927037239074707 12.85988986492157,31.927037239074707 10.122285038232803,33.39858651161194 10.122285038232803,33.39858651161194 7.900261878967285,35.571593046188354 7.900261878967285,35.571593046188354 6.372439116239548,38.31508457660675 6.372439116239548,38.31508457660675 5.717314779758453,41.49799346923828 5.717314779758453,41.49799346923828 5.090758576989174,41.047313809394836 5.090758576989174,41.047313809394836 4.462753608822823,40.59794247150421 4.462753608822823,40.59794247150421 3.8322526961565018,40.151870250701904 3.8322526961565018,40.151870250701904 3.198084607720375,39.71102237701416 3.198084607720375,39.71102237701416 2.559293434023857,39.277446269989014 2.559293434023857,39.277446269989014 1.9146472215652466,38.85308802127838 1.9146472215652466,38.85308802127838 1.6475031152367592,38.69915306568146 1.6475031152367592,38.69915306568146 1.357615739107132,38.54854702949524 1.357615739107132,38.54854702949524 1.0667883791029453,38.388848304748535 1.0667883791029453,38.388848304748535 0.7968246005475521,38.20759356021881 0.7968246005475521,38.20759356021881 0.5695588421076536,37.99242377281189 0.5695588421076536,37.99242377281189 0.4067947156727314,37.73082792758942 0.4067947156727314,37.73082792758942 0.1410529832355678,36.86463236808777 0.1410529832355678,36.86463236808777 0.019137842173222452,35.926708579063416 0.019137842173222452,35.926708579063416 0.005300658449414186,34.94958281517029 0.005300658449414186,34.94958281517029 0.06366953602991998,33.96569490432739 0.06366953602991998,33.96569490432739 0.15848043840378523,33.00755321979523 0.15848043840378523,33.00755321979523 0.2539385110139847,32.1076899766922 0.2539385110139847,32.1076899766922 0.4022953100502491,31.500041484832764 0.4022953100502491,31.500041484832764 0.6764965131878853,31.05957806110382 0.6764965131878853,31.05957806110382 1.0332586243748665,30.721136927604675 1.0332586243748665,30.721136927604675 1.4292825013399124,30.419492721557617 1.4292825013399124,30.419492721557617 1.8213309347629547,30.089494585990906 1.8213309347629547,30.089494585990906 2.166120335459709,29.665935039520264 2.166120335459709,29.665935039520264 2.37830076366663,29.2517751455307 2.37830076366663,29.2517751455307 2.5443777441978455,28.798907995224 2.5443777441978455,28.798907995224 2.6775721460580826,28.32326591014862 2.6775721460580826,28.32326591014862 2.7911048382520676,27.840691804885864 2.7911048382520676,27.840691804885864 2.8982890769839287,27.36714482307434 2.8982890769839287,27.36714482307434 3.0122533440589905,26.918470859527588 3.0122533440589905,26.918470859527588 3.2256048172712326,26.13130509853363 3.2256048172712326,26.13130509853363 3.50564606487751,25.196895003318787 3.50564606487751,25.196895003318787 3.877616673707962,24.25014227628708 3.877616673707962,24.25014227628708 4.366571456193924,23.42579811811447 4.366571456193924,23.42579811811447 4.997719824314117,22.858765721321106 4.997719824314117,22.858765721321106 5.79620823264122,22.68386036157608 5.79620823264122,22.68386036157608 7.0153601467609406,22.80033528804779 7.0153601467609406,22.80033528804779 8.223570883274078,22.93184995651245 8.223570883274078,22.93184995651245 9.421365708112717,23.029758036136627 9.421365708112717,23.029758036136627 10.60926765203476,23.045291006565094 10.60926765203476,23.045291006565094 11.787893623113632,22.929801046848297 11.787893623113632,22.929801046848297 12.957768142223358,22.63455092906952 12.957768142223358,22.63455092906952 14.331808686256409,22.153963148593903 14.331808686256409,22.153963148593903 15.7096728682518,21.667443215847015 15.7096728682518,21.667443215847015 17.093144357204437,21.19079977273941 17.093144357204437,21.19079977273941 18.484073877334595,20.739765465259552 18.484073877334595,20.739765465259552 19.884371757507324,20.330198109149933 19.884371757507324,20.330198109149933 21.295826137065887,19.977812469005585 21.295826137065887,19.977812469005585 22.94057160615921,19.654501974582672 22.94057160615921,19.654501974582672 24.600540101528168,19.414308667182922 24.600540101528168,19.414308667182922 26.271173357963562,19.251251220703125 26.271173357963562,19.251251220703125 27.94778347015381,19.159337878227234 27.94778347015381,19.159337878227234 29.625779390335083,19.132664799690247 29.625779390335083,19.132664799690247 31.300511956214905,19.16520893573761 31.300511956214905,19.16520893573761 32.93243646621704,19.23716813325882 32.93243646621704,19.23716813325882 34.59826111793518,19.35039311647415 34.59826111793518,19.35039311647415 36.27413213253021,19.525407254695892 36.27413213253021,19.525407254695892 37.936073541641235,19.78275030851364 37.936073541641235,19.78275030851364 39.56029415130615,20.143011212348938 39.56029415130615,20.143011212348938 41.12275540828705,20.62671184539795 41.12275540828705,20.62671184539795 42.30434000492096,21.119579672813416 42.30434000492096,21.119579672813416 43.44296455383301,21.710988879203796 43.44296455383301,21.710988879203796 44.54044699668884,22.38381803035736 44.54044699668884,22.38381803035736 45.59854567050934,23.120902478694916 45.59854567050934,23.120902478694916 46.61910533905029,23.90512228012085 46.61910533905029,23.90512228012085 47.60385751724243,24.71931278705597 47.60385751724243,24.71931278705597 48.22409749031067,25.259241461753845 48.22409749031067,25.259241461753845 48.83367121219635,25.811326503753662 48.83367121219635,25.811326503753662 49.43320155143738,26.37459635734558 49.43320155143738,26.37459635734558 50.02317428588867,26.94803774356842 50.02317428588867,26.94803774356842 50.60415267944336,27.530696988105774 50.60415267944336,27.530696988105774 51.17675065994263,28.121596574783325 51.17675065994263,28.121596574783325 51.49235129356384,28.454798460006714 51.49235129356384,28.454798460006714 51.80589556694031,28.78977060317993 51.80589556694031,28.78977060317993 52.117061614990234,29.12674844264984 52.117061614990234,29.12674844264984 52.425575256347656,29.4658362865448 52.425575256347656,29.4658362865448 52.73119807243347,29.807236790657043 52.73119807243347,29.807236790657043 53.033703565597534,30.151131749153137 53.033703565597534,30.151131749153137 53.4105122089386,30.59486150741577 53.4105122089386,30.59486150741577 53.721123933792114,30.955398082733154 53.721123933792114,30.955398082733154 54.0138304233551,31.247258186340332 54.0138304233551,31.247258186340332 54.33704853057861,31.484848260879517 54.33704853057861,31.484848260879517 54.739099740982056,31.682682037353516 54.739099740982056,31.682682037353516 55.268365144729614,31.855231523513794 55.268365144729614,31.855231523513794 55.5108368396759,31.920641660690308 55.5108368396759,31.920641660690308 55.75398802757263,31.986576318740845 55.75398802757263,31.986576318740845 55.997633934020996,32.0529580116272 55.997633934020996,32.0529580116272 56.24158978462219,32.11964666843414 56.24158978462219,32.11964666843414 56.485724449157715,32.18660056591034 56.485724449157715,32.18660056591034 56.729865074157715,32.2536438703537 56.729865074157715,32.2536438703537 57.72528052330017,32.52916932106018 57.72528052330017,32.52916932106018 58.72352719306946,32.81218409538269 58.72352719306946,32.81218409538269 59.72325801849365,33.10396671295166 59.72325801849365,33.10396671295166 60.723233222961426,33.405765891075134 60.723233222961426,33.405765891075134 61.72219514846802,33.71887505054474 61.72219514846802,33.71887505054474 62.718868255615234,34.044528007507324 62.718868255615234,34.044528007507324 64.42426443099976,34.641867876052856 64.42426443099976,34.641867876052856 66.10741019248962,35.29075086116791 66.10741019248962,35.29075086116791 67.76078343391418,35.998374223709106 67.76078343391418,35.998374223709106 69.37671303749084,36.77186965942383 69.37671303749084,36.77186965942383 70.9477424621582,37.618497014045715 70.9477424621582,37.618497014045715 72.4661648273468,38.54540288448334 72.4661648273468,38.54540288448334 72.55809307098389,38.60440254211426 72.55809307098389,38.60440254211426 72.65107035636902,38.66170942783356 72.65107035636902,38.66170942783356 72.74438738822937,38.71822953224182 72.74438738822937,38.71822953224182 72.83746004104614,38.77490162849426 72.83746004104614,38.77490162849426 72.9296624660492,38.83270025253296 72.9296624660492,38.83270025253296 73.0203926563263,38.892534375190735 73.0203926563263,38.892534375190735 73.05848002433777,38.91825079917908 73.05848002433777,38.91825079917908 73.1050193309784,38.94965350627899 73.1050193309784,38.94965350627899 73.15919399261475,38.986220955848694 73.15919399261475,38.986220955848694 73.22009205818176,39.027345180511475 73.22009205818176,39.027345180511475 73.28687310218811,39.072585105895996 73.28687310218811,39.072585105895996 73.35864901542664,39.12132382392883 73.35864901542664,39.12132382392883 73.68574738502502,39.35688138008118 73.68574738502502,39.35688138008118 74.02276992797852,39.62901830673218 74.02276992797852,39.62901830673218 74.31017756462097,39.91321921348572 74.31017756462097,39.91321921348572 74.48830604553223,40.1849091053009 74.48830604553223,40.1849091053009 74.4977355003357,40.41958451271057 74.4977355003357,40.41958451271057 74.27874207496643,40.59268832206726 74.27874207496643,40.59268832206726 74.16015863418579,40.74089229106903 74.16015863418579,40.74089229106903 74.04693365097046,41.046541929244995 74.04693365097046,41.046541929244995 73.94344806671143,41.43734276294708 73.94344806671143,41.43734276294708 73.8540768623352,41.840946674346924 73.8540768623352,41.840946674346924 73.78325462341309,42.18505918979645 73.78325462341309,42.18505918979645 73.73536229133606,42.39737689495087 73.73536229133606,42.39737689495087 73.67268204689026,42.61532127857208 73.67268204689026,42.61532127857208 73.60987663269043,42.8332656621933 73.60987663269043,42.8332656621933 73.54700565338135,43.051207065582275 73.54700565338135,43.051207065582275 73.48414063453674,43.2691216468811 73.48414063453674,43.2691216468811 73.42132925987244,43.48708093166351 73.42132925987244,43.48708093166351 73.35864901542664,43.705037236213684 73.35864901542664,43.705037236213684 73.29849004745483,43.91396641731262 73.29849004745483,43.91396641731262 73.23833703994751,44.12265121936798 73.23833703994751,44.12265121936798 73.17817807197571,44.33125555515289 73.17817807197571,44.33125555515289 73.11798930168152,44.53983008861542 73.11798930168152,44.53983008861542 73.05786609649658,44.748544692993164 73.05786609649658,44.748544692993164 72.99770712852478,44.9574738740921 72.99770712852478,44.9574738740921 73.00301194190979,44.99140381813049 73.00301194190979,44.99140381813049 73.0345368385315,45.02964913845062 73.0345368385315,45.02964913845062 73.08905124664307,45.07162272930145 73.08905124664307,45.07162272930145 73.16335439682007,45.116692781448364 73.16335439682007,45.116692781448364 73.25429916381836,45.16432285308838 73.25429916381836,45.16432285308838" stroke="white" stroke-width="0.1" /><polygon points="22.614334523677826,25.733095407485962 22.614334523677826,25.733095407485962 23.439203202724457,25.878769159317017 23.439203202724457,25.878769159317017 24.35048520565033,26.017481088638306 24.35048520565033,26.017481088638306 25.242844223976135,26.050886511802673 25.242844223976135,26.050886511802673 26.010823249816895,25.880634784698486 26.010823249816895,25.880634784698486 26.549088954925537,25.40842890739441 26.549088954925537,25.40842890739441 26.752299070358276,24.535885453224182 26.752299070358276,24.535885453224182 26.73482596874237,24.018824100494385 26.73482596874237,24.018824100494385 26.6841322183609,23.49652498960495 26.6841322183609,23.49652498960495 26.602771878242493,22.974039614200592 26.602771878242493,22.974039614200592 26.493367552757263,22.45628535747528 26.493367552757263,22.45628535747528 26.35863423347473,21.94831669330597 26.35863423347473,21.94831669330597 26.201030611991882,21.45509272813797 26.201030611991882,21.45509272813797 26.03985369205475,21.25682681798935 26.03985369205475,21.25682681798935 25.763356685638428,21.150921285152435 25.763356685638428,21.150921285152435 25.420233607292175,21.113385260105133 25.420233607292175,21.113385260105133 25.05917251110077,21.120211482048035 25.05917251110077,21.120211482048035 24.72892701625824,21.147455275058746 24.72892701625824,21.147455275058746 24.47819411754608,21.171076595783234 24.47819411754608,21.171076595783234 23.489251732826233,21.259507536888123 23.489251732826233,21.259507536888123 22.354109585285187,21.419590711593628 22.354109585285187,21.419590711593628 21.17847204208374,21.682898700237274 21.17847204208374,21.682898700237274 20.067892968654633,22.08097130060196 20.067892968654633,22.08097130060196 19.128042459487915,22.64539897441864 19.128042459487915,22.64539897441864 18.46453547477722,23.40770810842514 18.46453547477722,23.40770810842514 18.407060205936432,24.123451113700867 18.407060205936432,24.123451113700867 18.968437612056732,24.689942598342896 18.968437612056732,24.689942598342896 19.909273087978363,25.120684504508972 19.909273087978363,25.120684504508972 20.990145206451416,25.429123640060425 20.990145206451416,25.429123640060425 21.97166085243225,25.62876045703888 21.97166085243225,25.62876045703888" stroke="white" stroke-width="0.1" /><polygon points="45.65716087818146,28.07820439338684 45.65716087818146,28.07820439338684 45.95184028148651,28.092271089553833 45.95184028148651,28.092271089553833 46.149688959121704,28.037509322166443 46.149688959121704,28.037509322166443 46.261435747146606,27.92534828186035 46.261435747146606,27.92534828186035 46.297675371170044,27.76714563369751 46.297675371170044,27.76714563369751 46.269261837005615,27.574333548545837 46.269261837005615,27.574333548545837 46.18673324584961,27.358299493789673 46.18673324584961,27.358299493789673 45.665234327316284,26.48535668849945 45.665234327316284,26.48535668849945 44.9991375207901,25.713154673576355 44.9991375207901,25.713154673576355 44.2254900932312,25.027737021446228 44.2254900932312,25.027737021446228 43.38129758834839,24.415110051631927 43.38129758834839,24.415110051631927 42.50369966030121,23.861360549926758 42.50369966030121,23.861360549926758 41.629645228385925,23.35248291492462 41.629645228385925,23.35248291492462 40.65805375576019,22.86026030778885 40.65805375576019,22.86026030778885 39.6541029214859,22.463759779930115 39.6541029214859,22.463759779930115 38.62330913543701,22.150342166423798 38.62330913543701,22.150342166423798 37.57112920284271,21.907252073287964 37.57112920284271,21.907252073287964 36.503106355667114,21.721820533275604 36.503106355667114,21.721820533275604 35.424670577049255,21.581323444843292 35.424670577049255,21.581323444843292 34.63887870311737,21.482305228710175 34.63887870311737,21.482305228710175 33.707258105278015,21.385984122753143 33.707258105278015,21.385984122753143 32.72269070148468,21.35992795228958 32.72269070148468,21.35992795228958 31.777939200401306,21.471580862998962 31.777939200401306,21.471580862998962 30.965891480445862,21.788479387760162 30.965891480445862,21.788479387760162 30.37942945957184,22.378146648406982 30.37942945957184,22.378146648406982 30.091622471809387,23.126433789730072 30.091622471809387,23.126433789730072 29.992419481277466,23.991011083126068 29.992419481277466,23.991011083126068 30.034393072128296,24.916300177574158 30.034393072128296,24.916300177574158 30.1701158285141,25.84667205810547 30.1701158285141,25.84667205810547 30.352216958999634,26.726552844047546 30.352216958999634,26.726552844047546 30.53327202796936,27.50031054019928 30.53327202796936,27.50031054019928 30.6303471326828,27.722227573394775 30.6303471326828,27.722227573394775 30.785423517227173,27.8626948595047 30.785423517227173,27.8626948595047 30.985182523727417,27.94457972049713 30.985182523727417,27.94457972049713 31.216347217559814,27.99060344696045 31.216347217559814,27.99060344696045 31.465601921081543,28.023609519004822 31.465601921081543,28.023609519004822 31.71963393688202,28.066369891166687 31.71963393688202,28.066369891166687 32.66262710094452,28.26862633228302 32.66262710094452,28.26862633228302 33.606913685798645,28.465351462364197 33.606913685798645,28.465351462364197 34.552279114723206,28.657084703445435 34.552279114723206,28.657084703445435 35.498541593551636,28.844180703163147 35.498541593551636,28.844180703163147 36.44554018974304,29.02713119983673 36.44554018974304,29.02713119983673 37.39306330680847,29.206380248069763 37.39306330680847,29.206380248069763 38.16443383693695,29.349222779273987 38.16443383693695,29.349222779273987 38.9361709356308,29.4897198677063 38.9361709356308,29.4897198677063 39.708343148231506,29.62796986103058 39.708343148231506,29.62796986103058 40.48100411891937,29.763859510421753 40.48100411891937,29.763859510421753 41.25422239303589,29.897502064704895 41.25422239303589,29.897502064704895 42.02805757522583,30.028846859931946 42.02805757522583,30.028846859931946 42.47390031814575,30.10345697402954 42.47390031814575,30.10345697402954 42.919862270355225,30.17735779285431 42.919862270355225,30.17735779285431 43.36604177951813,30.250486731529236 43.36604177951813,30.250486731529236 43.81234645843506,30.322754383087158 43.81234645843506,30.322754383087158 44.258832931518555,30.39422333240509 44.258832931518555,30.39422333240509 44.70550715923309,30.46473264694214 44.70550715923309,30.46473264694214 44.79130506515503,29.975593090057373 44.79130506515503,29.975593090057373 44.84052062034607,29.71082329750061 44.84052062034607,29.71082329750061 44.92197036743164,29.313597083091736 44.92197036743164,29.313597083091736 45.04006505012512,28.867879509925842 45.04006505012512,28.867879509925842 45.19902169704437,28.45744788646698 45.19902169704437,28.45744788646698 45.4032838344574,28.16629707813263 45.4032838344574,28.16629707813263" stroke="white" stroke-width="0.1" /></svg>