<?xml version="1.0" encoding="utf-8" ?>
<svg baseProfile="full" height="99.98565316200256" version="1.1" width="58.67971181869507" xmlns="http://www.w3.org/2000/svg" xmlns:ev="http://www.w3.org/2001/xml-events" xmlns:xlink="http://www.w3.org/1999/xlink"><defs><clipPath /></defs><polygon points="29.350057244300842,0.0 29.350057244300842,0.0 29.350057244300842,0.0 29.350057244300842,0.0 34.87674593925476,0.5369410384446383 34.87674593925476,0.5369410384446383 40.14272689819336,2.0903296768665314 40.14272689819336,2.0903296768665314 45.01204192638397,4.573983326554298 45.01204192638397,4.573983326554298 49.3486225605011,7.901688665151596 49.3486225605011,7.901688665151596 53.01657319068909,11.987386643886566 53.01657319068909,11.987386643886566 55.879950523376465,16.744893789291382 55.879950523376465,16.744893789291382 57.96774625778198,22.783486545085907 57.96774625778198,22.783486545085907 58.67971181869507,29.032066464424133 58.67971181869507,29.032066464424133 58.06604623794556,35.254985094070435 58.06604623794556,35.254985094070435 56.17682933807373,41.216328740119934 56.17682933807373,41.216328740119934 53.062695264816284,46.68057858943939 53.062695264816284,46.68057858943939 48.77365827560425,51.411813497543335 48.77365827560425,51.411813497543335 43.539828062057495,55.07658123970032 43.539828062057495,55.07658123970032 37.723368406295776,57.47973918914795 37.723368406295776,57.47973918914795 31.56607449054718,58.60205888748169 31.56607449054718,58.60205888748169 25.309985876083374,58.424097299575806 25.309985876083374,58.424097299575806 19.19720321893692,56.9267213344574 19.19720321893692,56.9267213344574 13.46970796585083,54.09051775932312 13.46970796585083,54.09051775932312 8.524719625711441,50.06510019302368 8.524719625711441,50.06510019302368 4.628264904022217,45.14440894126892 4.628264904022217,45.14440894126892 1.8641158938407898,39.55088555812836 1.8641158938407898,39.55088555812836 0.3155494574457407,33.50685238838196 0.3155494574457407,33.50685238838196 0.06633709999732673,27.23468840122223 0.06633709999732673,27.23468840122223 1.1998793110251427,20.95683664083481 1.1998793110251427,20.95683664083481 3.669251501560211,15.133823454380035 3.669251501560211,15.133823454380035 7.27933794260025,10.057119280099869 7.27933794260025,10.057119280099869 11.841513216495514,5.866103991866112 11.841513216495514,5.866103991866112 17.166410386562347,2.6999756693840027 17.166410386562347,2.6999756693840027 23.065651953220367,0.6981778889894485 23.065651953220367,0.6981778889894485" stroke="white" stroke-width="0.1" /><polygon points="44.61117684841156,15.87837040424347 44.61117684841156,15.87837040424347 44.61117684841156,15.87837040424347 44.61117684841156,15.87837040424347 44.14626061916351,16.299082338809967 44.14626061916351,16.299082338809967 43.68869960308075,16.98835641145706 43.68869960308075,16.98835641145706 43.32968890666962,17.813953757286072 43.32968890666962,17.813953757286072 43.16016733646393,18.643662333488464 43.16016733646393,18.643662333488464 43.27138960361481,19.345271587371826 43.27138960361481,19.345271587371826 43.754541873931885,19.786633551120758 43.754541873931885,19.786633551120758 44.16567385196686,19.813093543052673 44.16567385196686,19.813093543052673 44.56740319728851,19.62449997663498 44.56740319728851,19.62449997663498 44.94082033634186,19.289568066596985 44.94082033634186,19.289568066596985 45.26669681072235,18.87677013874054 45.26669681072235,18.87677013874054 45.52660286426544,18.454790115356445 45.52660286426544,18.454790115356445 45.70125639438629,18.092161417007446 45.70125639438629,18.092161417007446 45.75912356376648,17.70879179239273 45.75912356376648,17.70879179239273 45.686790347099304,17.25265383720398 45.686790347099304,17.25265383720398 45.5100953578949,16.7827308177948 45.5100953578949,16.7827308177948 45.25463879108429,16.357721388339996 45.25463879108429,16.357721388339996 44.946447014808655,16.036701202392578 44.946447014808655,16.036701202392578" stroke="white" stroke-width="0.1" /><polygon points="41.69901907444,18.171297013759613 41.69901907444,18.171297013759613 42.06996560096741,18.285547196865082 42.06996560096741,18.285547196865082 42.36944019794464,18.083538115024567 42.36944019794464,18.083538115024567 42.57073700428009,17.675592005252838 42.57073700428009,17.675592005252838 42.646780610084534,17.17188209295273 42.646780610084534,17.17188209295273 42.57092475891113,16.68282300233841 42.57092475891113,16.68282300233841 42.316269874572754,16.318556666374207 42.316269874572754,16.318556666374207 42.130303382873535,16.578711569309235 42.130303382873535,16.578711569309235 41.8827623128891,16.897352039813995 41.8827623128891,16.897352039813995 41.64486229419708,17.245297133922577 41.64486229419708,17.245297133922577 41.487520933151245,17.593088746070862 41.487520933151245,17.593088746070862 41.481831669807434,17.9115429520607 41.481831669807434,17.9115429520607" stroke="white" stroke-width="0.1" /><polygon points="21.015198528766632,34.02197062969208 21.015198528766632,34.02197062969208 21.015198528766632,34.02197062969208 21.015198528766632,34.02197062969208 21.41050100326538,34.21822786331177 21.41050100326538,34.21822786331177 21.585586667060852,34.16014611721039 21.585586667060852,34.16014611721039 21.59758061170578,33.928245306015015 21.59758061170578,33.928245306015015 21.503113210201263,33.60280394554138 21.503113210201263,33.60280394554138 21.359248459339142,33.26434791088104 21.359248459339142,33.26434791088104 21.222926676273346,32.993218302726746 21.222926676273346,32.993218302726746 21.03782594203949,32.63111710548401 21.03782594203949,32.63111710548401 20.83331197500229,32.2262316942215 20.83331197500229,32.2262316942215 20.604687929153442,31.812751293182373 20.604687929153442,31.812751293182373 20.346881449222565,31.424713134765625 20.346881449222565,31.424713134765625 20.055443048477173,31.09627366065979 20.055443048477173,31.09627366065979 19.72530335187912,30.86152970790863 19.72530335187912,30.86152970790863 19.325797259807587,30.736643075942993 19.325797259807587,30.736643075942993 18.91046315431595,30.714327096939087 18.91046315431595,30.714327096939087 18.48808228969574,30.740106105804443 18.48808228969574,30.740106105804443 18.066999316215515,30.759426951408386 18.066999316215515,30.759426951408386 17.656241357326508,30.717819929122925 17.656241357326508,30.717819929122925 17.264215648174286,30.560818314552307 17.264215648174286,30.560818314552307 16.897104680538177,30.249348282814026 16.897104680538177,30.249348282814026 16.647088527679443,29.85661029815674 16.647088527679443,29.85661029815674 16.52059704065323,29.41608428955078 16.52059704065323,29.41608428955078 16.524121165275574,28.961151838302612 16.524121165275574,28.961151838302612 16.664275527000427,28.52538824081421 16.664275527000427,28.52538824081421 16.947676241397858,28.142264485359192 16.947676241397858,28.142264485359192 17.64548420906067,27.68804430961609 17.64548420906067,27.68804430961609 18.447773158550262,27.51172184944153 18.447773158550262,27.51172184944153 19.284622371196747,27.583003044128418 19.284622371196747,27.583003044128418 20.086169242858887,27.871257066726685 20.086169242858887,27.871257066726685 20.782677829265594,28.346160054206848 20.782677829265594,28.346160054206848 21.304039657115936,28.977134823799133 21.304039657115936,28.977134823799133 21.496807038784027,29.245853424072266 21.496807038784027,29.245853424072266 21.671830117702484,29.37515676021576 21.671830117702484,29.37515676021576 21.826328337192535,29.378247261047363 21.826328337192535,29.378247261047363 21.957704424858093,29.2682021856308 21.957704424858093,29.2682021856308 22.063423693180084,29.058247804641724 22.063423693180084,29.058247804641724 22.14088886976242,28.761491179466248 22.14088886976242,28.761491179466248 22.20432013273239,28.463995456695557 22.20432013273239,28.463995456695557 22.282961010932922,28.169527649879456 22.282961010932922,28.169527649879456 22.37631529569626,27.87901759147644 22.37631529569626,27.87901759147644 22.483456134796143,27.593359351158142 22.483456134796143,27.593359351158142 22.603702545166016,27.313482761383057 22.603702545166016,27.313482761383057 22.736378014087677,27.04031467437744 22.736378014087677,27.04031467437744 23.144662380218506,26.391348242759705 23.144662380218506,26.391348242759705 23.619717359542847,25.8590430021286 23.619717359542847,25.8590430021286 24.150167405605316,25.40939748287201 24.150167405605316,25.40939748287201 24.724140763282776,25.008344650268555 24.724140763282776,25.008344650268555 25.330325961112976,24.62194561958313 25.330325961112976,24.62194561958313 25.95715820789337,24.216195940971375 25.95715820789337,24.216195940971375 26.44544243812561,23.813103139400482 26.44544243812561,23.813103139400482 26.76173448562622,23.38126301765442 26.76173448562622,23.38126301765442 26.90158188343048,22.928154468536377 26.90158188343048,22.928154468536377 26.86052918434143,22.461044788360596 26.86052918434143,22.461044788360596 26.63419246673584,21.987442672252655 26.63419246673584,21.987442672252655 26.21830105781555,21.514736115932465 26.21830105781555,21.514736115932465 25.811251997947693,21.002833545207977 25.811251997947693,21.002833545207977 25.801175832748413,20.631210505962372 25.801175832748413,20.631210505962372 26.087236404418945,20.383481681346893 26.087236404418945,20.383481681346893 26.568719744682312,20.24310976266861 26.568719744682312,20.24310976266861 27.145227789878845,20.19377499818802 27.145227789878845,20.19377499818802 27.715924382209778,20.218905806541443 27.715924382209778,20.218905806541443 28.40433418750763,20.171332359313965 28.40433418750763,20.171332359313965 28.77509295940399,19.897451996803284 28.77509295940399,19.897451996803284 28.871044516563416,19.476771354675293 28.871044516563416,19.476771354675293 28.735339641571045,18.988609313964844 28.735339641571045,18.988609313964844 28.411197662353516,18.51247251033783 28.411197662353516,18.51247251033783 27.94145941734314,18.127772212028503 27.94145941734314,18.127772212028503 27.61397957801819,17.94118732213974 27.61397957801819,17.94118732213974 27.28971242904663,17.757941782474518 27.28971242904663,17.757941782474518 26.977252960205078,17.564432322978973 26.977252960205078,17.564432322978973 26.684579253196716,17.346781492233276 26.684579253196716,17.346781492233276 26.42028033733368,17.091386020183563 26.42028033733368,17.091386020183563 26.19258463382721,16.784462332725525 26.19258463382721,16.784462332725525 26.020464301109314,16.47058129310608 26.020464301109314,16.47058129310608 25.860464572906494,16.145819425582886 25.860464572906494,16.145819425582886 25.69255232810974,15.827549993991852 25.69255232810974,15.827549993991852 25.496569275856018,15.53308367729187 25.496569275856018,15.53308367729187 25.252550840377808,15.279790759086609 25.252550840377808,15.279790759086609 24.940277636051178,15.085044503211975 24.940277636051178,15.085044503211975 24.633631110191345,15.071752667427063 24.633631110191345,15.071752667427063 24.35072511434555,15.142540633678436 24.35072511434555,15.142540633678436 24.08859133720398,15.221676230430603 24.08859133720398,15.221676230430603 23.844139277935028,15.23323655128479 23.844139277935028,15.23323655128479 23.614710569381714,15.101520717144012 23.614710569381714,15.101520717144012 23.39715212583542,14.750701189041138 23.39715212583542,14.750701189041138 23.280736804008484,14.458923041820526 23.280736804008484,14.458923041820526 23.185713589191437,14.19360488653183 23.185713589191437,14.19360488653183 23.090258240699768,13.946989178657532 23.090258240699768,13.946989178657532 22.972050309181213,13.711224496364594 22.972050309181213,13.711224496364594 22.80939072370529,13.47854882478714 22.80939072370529,13.47854882478714 22.580085694789886,13.241207599639893 22.580085694789886,13.241207599639893 21.953067183494568,12.944266200065613 21.953067183494568,12.944266200065613 21.61872386932373,13.32392692565918 21.61872386932373,13.32392692565918 21.499651670455933,14.128752052783966 21.499651670455933,14.128752052783966 21.518073976039886,15.107116103172302 21.518073976039886,15.107116103172302 21.596838533878326,16.007612645626068 21.596838533878326,16.007612645626068 21.658167243003845,16.578711569309235 21.658167243003845,16.578711569309235 21.513622999191284,17.682763934135437 21.513622999191284,17.682763934135437 20.95492035150528,18.25939565896988 20.95492035150528,18.25939565896988 20.14150172472,18.383599817752838 20.14150172472,18.383599817752838 19.232814013957977,18.13027709722519 19.232814013957977,18.13027709722519 18.388792872428894,17.574571073055267 18.388792872428894,17.574571073055267 17.768698930740356,16.791385412216187 17.768698930740356,16.791385412216187 17.479239404201508,15.709188580513 17.479239404201508,15.709188580513 17.768946290016174,14.872679114341736 17.768946290016174,14.872679114341736 18.46088021993637,14.221858978271484 18.46088021993637,14.221858978271484 19.378100335597992,13.696509599685669 19.378100335597992,13.696509599685669 20.343975722789764,13.236662745475769 20.343975722789764,13.236662745475769 21.18138074874878,12.782226502895355 21.18138074874878,12.782226502895355 21.58237099647522,12.438145279884338 21.58237099647522,12.438145279884338 21.900703012943268,11.999287456274033 21.900703012943268,11.999287456274033 22.097118198871613,11.507169157266617 22.097118198871613,11.507169157266617 22.132357954978943,11.00308746099472 22.132357954978943,11.00308746099472 21.967534720897675,10.528711974620819 21.967534720897675,10.528711974620819 21.563206613063812,10.125280171632767 21.563206613063812,10.125280171632767 21.098661422729492,9.914491325616837 21.098661422729492,9.914491325616837 20.535629987716675,9.764351695775986 20.535629987716675,9.764351695775986 19.944654405117035,9.620796144008636 19.944654405117035,9.620796144008636 19.396276772022247,9.429729729890823 19.396276772022247,9.429729729890823 18.961283564567566,9.137178212404251 18.961283564567566,9.137178212404251 18.71040165424347,8.68898555636406 18.71040165424347,8.68898555636406 18.44455897808075,8.053126186132431 18.44455897808075,8.053126186132431 18.037880957126617,7.612352818250656 18.037880957126617,7.612352818250656 17.524617910385132,7.363727688789368 17.524617910385132,7.363727688789368 16.938835382461548,7.304160296916962 16.938835382461548,7.304160296916962 16.31515622138977,7.430744916200638 16.31515622138977,7.430744916200638 15.687456727027893,7.740359008312225 15.687456727027893,7.740359008312225 15.47379344701767,7.8201740980148315 15.47379344701767,7.8201740980148315 15.251165628433228,7.808643579483032 15.251165628433228,7.808643579483032 15.027424693107605,7.7300965785980225 15.027424693107605,7.7300965785980225 14.809989929199219,7.60873556137085 14.809989929199219,7.60873556137085 14.606775343418121,7.468859106302261 14.606775343418121,7.468859106302261 14.425259828567505,7.334794104099274 14.425259828567505,7.334794104099274 14.23410028219223,7.1707747876644135 14.23410028219223,7.1707747876644135 14.11428451538086,7.043479382991791 14.11428451538086,7.043479382991791 14.02488797903061,6.967435777187347 14.02488797903061,6.967435777187347 13.924980163574219,6.957049667835236 13.924980163574219,6.957049667835236 13.774006068706512,7.026848942041397 13.774006068706512,7.026848942041397 13.531038165092468,7.191362231969833 13.531038165092468,7.191362231969833 13.323123753070831,7.341223955154419 13.323123753070831,7.341223955154419 13.11681717634201,7.493001222610474 13.11681717634201,7.493001222610474 12.912055850028992,7.646757364273071 12.912055850028992,7.646757364273071 12.708717584609985,7.802337408065796 12.708717584609985,7.802337408065796 12.506861984729767,7.959833741188049 12.506861984729767,7.959833741188049 12.306428700685501,8.119216561317444 12.306428700685501,8.119216561317444 12.81585842370987,8.762185275554657 12.81585842370987,8.762185275554657 13.206833600997925,9.496530145406723 13.206833600997925,9.496530145406723 13.388347625732422,10.199592262506485 13.388347625732422,10.199592262506485 13.268780708312988,10.748712718486786 13.268780708312988,10.748712718486786 12.757311761379242,11.021356284618378 12.757311761379242,11.021356284618378 11.762378364801407,10.894864797592163 11.762378364801407,10.894864797592163 11.390136182308197,10.752792656421661 11.390136182308197,10.752792656421661 11.018017679452896,10.57467833161354 11.018017679452896,10.57467833161354 10.65300926566124,10.412266850471497 10.65300926566124,10.412266850471497 10.302096605300903,10.31711995601654 10.302096605300903,10.31711995601654 9.97251272201538,10.341107100248337 9.97251272201538,10.341107100248337 9.671244770288467,10.535790771245956 9.671244770288467,10.535790771245956 9.388523548841476,10.835204273462296 9.388523548841476,10.835204273462296 9.110315889120102,11.138760298490524 9.110315889120102,11.138760298490524 8.836621046066284,11.446458101272583 8.836621046066284,11.446458101272583 8.567625284194946,11.758143454790115 8.567625284194946,11.758143454790115 8.30376073718071,12.073878198862076 8.30376073718071,12.073878198862076 8.045027405023575,12.393476814031601 8.045027405023575,12.393476814031601 7.5386278331279755,13.046647608280182 7.5386278331279755,13.046647608280182 7.052382081747055,13.71484100818634 7.052382081747055,13.71484100818634 6.586723774671555,14.397439360618591 6.586723774671555,14.397439360618591 6.141900643706322,15.093761682510376 6.141900643706322,15.093761682510376 5.7185303419828415,15.803253650665283 5.7185303419828415,15.803253650665283 5.316859856247902,16.52529537677765 5.316859856247902,16.52529537677765 6.4038485288619995,17.247523367404938 6.4038485288619995,17.247523367404938 7.128920406103134,18.127958476543427 7.128920406103134,18.127958476543427 7.566757500171661,19.13958340883255 7.566757500171661,19.13958340883255 7.791796326637268,20.25528997182846 7.791796326637268,20.25528997182846 7.878968119621277,21.448059380054474 7.878968119621277,21.448059380054474 7.902584969997406,22.690874338150024 7.902584969997406,22.690874338150024 7.971642166376114,23.744478821754456 7.971642166376114,23.744478821754456 8.14555287361145,24.77610409259796 8.14555287361145,24.77610409259796 8.419185876846313,25.7820725440979 8.419185876846313,25.7820725440979 8.787161856889725,26.758643984794617 8.787161856889725,26.758643984794617 9.244535863399506,27.70226299762726 9.244535863399506,27.70226299762726 9.785989671945572,28.60915958881378 9.785989671945572,28.60915958881378 10.393595695495605,29.456827044487 10.393595695495605,29.456827044487 11.080707609653473,30.25713860988617 11.080707609653473,30.25713860988617 11.844727396965027,30.986908078193665 11.844727396965027,30.986908078193665 12.682627141475677,31.622830033302307 12.682627141475677,31.622830033302307 13.591934740543365,32.14174807071686 13.591934740543365,32.14174807071686 14.569680392742157,32.520389556884766 14.569680392742157,32.520389556884766 15.666745603084564,32.769015431404114 15.666745603084564,32.769015431404114 16.76214337348938,32.9140841960907 16.76214337348938,32.9140841960907 17.850306630134583,33.03377628326416 17.850306630134583,33.03377628326416 18.9255490899086,33.20617079734802 18.9255490899086,33.20617079734802 19.98230516910553,33.50954055786133 19.98230516910553,33.50954055786133" stroke="white" stroke-width="0.1" /><polygon points="34.64416563510895,42.959240078926086 34.64416563510895,42.959240078926086 34.64416563510895,42.959240078926086 34.64416563510895,42.959240078926086 34.71773564815521,42.56919324398041 34.71773564815521,42.56919324398041 34.702280163764954,42.16937720775604 34.702280163764954,42.16937720775604 34.6263587474823,41.76541864871979 34.6263587474823,41.76541864871979 34.518787264823914,41.36282205581665 34.518787264823914,41.36282205581665 34.4083696603775,40.96721112728119 34.4083696603775,40.96721112728119 34.32367146015167,40.58420956134796 34.32367146015167,40.58420956134796 34.30023789405823,40.229836106300354 34.30023789405823,40.229836106300354 34.33331549167633,39.8796021938324 34.33331549167633,39.8796021938324 34.399837255477905,39.53147232532501 34.399837255477905,39.53147232532501 34.47687029838562,39.18346464633942 34.47687029838562,39.18346464633942 34.541600942611694,38.833728432655334 34.541600942611694,38.833728432655334 34.57096517086029,38.48021924495697 34.57096517086029,38.48021924495697 34.47019159793854,37.75434195995331 34.47019159793854,37.75434195995331 34.17541682720184,37.19934821128845 34.17541682720184,37.19934821128845 33.7279349565506,36.78809702396393 33.7279349565506,36.78809702396393 33.16873610019684,36.49307191371918 33.16873610019684,36.49307191371918 32.539182901382446,36.28707528114319 32.539182901382446,36.28707528114319 31.880387663841248,36.142778396606445 31.880387663841248,36.142778396606445 31.133800745010376,35.944509506225586 31.133800745010376,35.944509506225586 30.45305907726288,35.65582036972046 30.45305907726288,35.65582036972046 29.816952347755432,35.298264026641846 29.816952347755432,35.298264026641846 29.20452356338501,34.89337861537933 29.20452356338501,34.89337861537933 28.594878315925598,34.46274399757385 28.594878315925598,34.46274399757385 27.96717882156372,34.02790427207947 27.96717882156372,34.02790427207947 27.397656440734863,33.724966645240784 27.397656440734863,33.724966645240784 26.819974184036255,33.53590965270996 26.819974184036255,33.53590965270996 26.239323616027832,33.40978920459747 26.239323616027832,33.40978920459747 25.66077411174774,33.29556882381439 25.66077411174774,33.29556882381439 25.089582800865173,33.14242959022522 25.089582800865173,33.14242959022522 24.53075647354126,32.899245619773865 24.53075647354126,32.899245619773865 24.152517318725586,32.80184268951416 24.152517318725586,32.80184268951416 23.825962841510773,32.917794585227966 23.825962841510773,32.917794585227966 23.549732565879822,33.187344670295715 23.549732565879822,33.187344670295715 23.322345316410065,33.55068564414978 23.322345316410065,33.55068564414978 23.142746090888977,33.94809067249298 23.142746090888977,33.94809067249298 23.009392619132996,34.319713711738586 23.009392619132996,34.319713711738586 22.894708812236786,34.736281633377075 22.894708812236786,34.736281633377075 22.80976176261902,35.15810668468475 22.80976176261902,35.15810668468475 22.739097476005554,35.58253049850464 22.739097476005554,35.58253049850464 22.667504847049713,36.006611585617065 22.667504847049713,36.006611585617065 22.58002460002899,36.427754163742065 22.58002460002899,36.427754163742065 22.461384534835815,36.84312105178833 22.461384534835815,36.84312105178833 22.342373430728912,37.16862201690674 22.342373430728912,37.16862201690674 22.21272885799408,37.49171495437622 22.21272885799408,37.49171495437622 22.081537544727325,37.81474530696869 22.081537544727325,37.81474530696869 21.95739597082138,38.1398469209671 21.95739597082138,38.1398469209671 21.849636733531952,38.469398021698 21.849636733531952,38.469398021698 21.76697701215744,38.8056606054306 21.76697701215744,38.8056606054306 21.772664785385132,39.77406919002533 21.772664785385132,39.77406919002533 22.131739556789398,40.54819941520691 22.131739556789398,40.54819941520691 22.71609902381897,41.204676032066345 22.71609902381897,41.204676032066345 23.39770793914795,41.820040345191956 23.39770793914795,41.820040345191956 24.04852956533432,42.47101545333862 24.04852956533432,42.47101545333862 24.540647864341736,43.23423206806183 24.540647864341736,43.23423206806183 24.781452119350433,44.550710916519165 24.781452119350433,44.550710916519165 24.448654055595398,45.749664306640625 24.448654055595398,45.749664306640625 23.788125813007355,46.88370227813721 23.788125813007355,46.88370227813721 23.045188188552856,48.00540506839752 23.045188188552856,48.00540506839752 22.46571183204651,49.16754066944122 22.46571183204651,49.16754066944122 22.295202314853668,50.42262673377991 22.295202314853668,50.42262673377991 22.35492318868637,50.7807731628418 22.35492318868637,50.7807731628418 22.459776699543,51.12395882606506 22.459776699543,51.12395882606506 22.593192756175995,51.457929611206055 22.593192756175995,51.457929611206055 22.73860275745392,51.788318157196045 22.73860275745392,51.788318157196045 22.879499197006226,52.12090015411377 22.879499197006226,52.12090015411377 22.9994997382164,52.46133208274841 22.9994997382164,52.46133208274841 23.067259788513184,52.78615951538086 23.067259788513184,52.78615951538086 23.08395206928253,53.107887506484985 23.08395206928253,53.107887506484985 23.06429147720337,53.42826247215271 23.06429147720337,53.42826247215271 23.022498190402985,53.7489116191864 23.022498190402985,53.7489116191864 22.973039746284485,54.071664810180664 22.973039746284485,54.071664810180664 22.93025702238083,54.398155212402344 22.93025702238083,54.398155212402344 22.916285693645477,54.70356345176697 22.916285693645477,54.70356345176697 22.939901053905487,55.037474632263184 22.939901053905487,55.037474632263184 23.0111226439476,55.368173122406006 23.0111226439476,55.368173122406006 23.13946932554245,55.66359758377075 23.13946932554245,55.66359758377075 23.33483248949051,55.89197874069214 23.33483248949051,55.89197874069214 23.606859147548676,56.02140426635742 23.606859147548676,56.02140426635742 23.87109398841858,55.95642924308777 23.87109398841858,55.95642924308777 24.08141940832138,55.82245588302612 24.08141940832138,55.82245588302612 24.23672080039978,55.634140968322754 24.23672080039978,55.634140968322754 24.335762858390808,55.40585517883301 24.335762858390808,55.40585517883301 24.37736988067627,55.15225529670715 24.37736988067627,55.15225529670715 24.360616505146027,54.8878014087677 24.360616505146027,54.8878014087677 24.414093792438507,54.27895784378052 24.414093792438507,54.27895784378052 24.469858407974243,53.697383403778076 24.469858407974243,53.697383403778076 24.563893675804138,53.14251184463501 24.563893675804138,53.14251184463501 24.731992185115814,52.61372923851013 24.731992185115814,52.61372923851013 25.010386109352112,52.11057662963867 25.010386109352112,52.11057662963867 25.434869527816772,51.6323983669281 25.434869527816772,51.6323983669281 25.990667939186096,51.16828680038452 25.990667939186096,51.16828680038452 26.582011580467224,50.741422176361084 26.582011580467224,50.741422176361084 27.194377779960632,50.336939096450806 27.194377779960632,50.336939096450806 27.813050150871277,49.93990659713745 27.813050150871277,49.93990659713745 28.423747420310974,49.53554570674896 28.423747420310974,49.53554570674896 29.01175618171692,49.10899102687836 29.01175618171692,49.10899102687836 29.59389090538025,48.63514304161072 29.59389090538025,48.63514304161072 30.14771044254303,48.1345534324646 30.14771044254303,48.1345534324646 30.67333698272705,47.60753512382507 30.67333698272705,47.60753512382507 31.170958280563354,47.05415070056915 31.170958280563354,47.05415070056915 31.641191244125366,46.47470414638519 31.641191244125366,46.47470414638519 32.084158062934875,45.86941599845886 32.084158062934875,45.86941599845886 32.479894161224365,45.36672532558441 32.479894161224365,45.36672532558441 32.952290773391724,44.91027891635895 32.952290773391724,44.91027891635895 33.453187346458435,44.470712542533875 33.453187346458435,44.470712542533875 33.934178948402405,44.018563628196716 33.934178948402405,44.018563628196716 34.347349405288696,43.52455735206604 34.347349405288696,43.52455735206604" stroke="white" stroke-width="0.1" /><polygon points="34.555140137672424,12.880155444145203 34.555140137672424,12.880155444145203 34.555140137672424,12.880155444145203 34.555140137672424,12.880155444145203 35.28836965560913,11.935237795114517 35.28836965560913,11.935237795114517 36.26537621021271,11.26209869980812 36.26537621021271,11.26209869980812 37.346118688583374,10.706919431686401 37.346118688583374,10.706919431686401 38.3908212184906,10.11572778224945 38.3908212184906,10.11572778224945 39.260002970695496,9.334798902273178 39.260002970695496,9.334798902273178 39.81363773345947,8.21022093296051 39.81363773345947,8.21022093296051 39.935800433158875,7.573836296796799 39.935800433158875,7.573836296796799 39.99428749084473,6.9306813180446625 39.99428749084473,6.9306813180446625 40.016913414001465,6.283663213253021 40.016913414001465,6.283663213253021 40.03119468688965,5.6355006992816925 40.03119468688965,5.6355006992816925 40.065014362335205,4.989223927259445 40.065014362335205,4.989223927259445 40.14600217342377,4.3474603444337845 40.14600217342377,4.3474603444337845 39.3814891576767,4.030241817235947 39.3814891576767,4.030241817235947 38.60769867897034,3.736516088247299 38.60769867897034,3.736516088247299 37.82537877559662,3.4665927290916443 37.82537877559662,3.4665927290916443 37.03502118587494,3.2206878066062927 37.03502118587494,3.2206878066062927 36.237552762031555,2.9992036521434784 36.237552762031555,2.9992036521434784 35.433533787727356,2.802356146275997 35.433533787727356,2.802356146275997 32.07482397556305,2.2549359127879143 32.07482397556305,2.2549359127879143 28.68483066558838,2.13252454996109 28.68483066558838,2.13252454996109 25.31048059463501,2.4286922067403793 25.31048059463501,2.4286922067403793 21.998076140880585,3.1368236988782883 21.998076140880585,3.1368236988782883 18.794728815555573,4.250458627939224 18.794728815555573,4.250458627939224 15.746808052062988,5.762981623411179 15.746808052062988,5.762981623411179 15.480594336986542,6.016892567276955 15.480594336986542,6.016892567276955 15.46093374490738,6.280077248811722 15.46093374490738,6.280077248811722 15.624643862247467,6.5169863402843475 15.624643862247467,6.5169863402843475 15.908662974834442,6.692041456699371 15.908662974834442,6.692041456699371 16.25005602836609,6.769753992557526 16.25005602836609,6.769753992557526 16.585636138916016,6.7145757377147675 16.585636138916016,6.7145757377147675 16.801773011684418,6.6008202731609344 16.801773011684418,6.6008202731609344 17.001092433929443,6.45732656121254 17.001092433929443,6.45732656121254 17.187553644180298,6.292936950922012 17.187553644180298,6.292936950922012 17.36430823802948,6.1164602637290955 17.36430823802948,6.1164602637290955 17.535066604614258,5.936923250555992 17.535066604614258,5.936923250555992 17.70341247320175,5.762981623411179 17.70341247320175,5.762981623411179 17.85593181848526,5.612780526280403 17.85593181848526,5.612780526280403 18.023908138275146,5.460415408015251 18.023908138275146,5.460415408015251 18.206413090229034,5.321682244539261 18.206413090229034,5.321682244539261 18.402332067489624,5.212130397558212 18.402332067489624,5.212130397558212 18.6109259724617,5.147586017847061 18.6109259724617,5.147586017847061 18.831081688404083,5.143753066658974 18.831081688404083,5.143753066658974 19.06082034111023,5.2371688187122345 19.06082034111023,5.2371688187122345 19.20177787542343,5.416520312428474 19.20177787542343,5.416520312428474 19.280171394348145,5.65231665968895 19.280171394348145,5.65231665968895 19.322210550308228,5.914821475744247 19.322210550308228,5.914821475744247 19.354359805583954,6.1746057122945786 19.354359805583954,6.1746057122945786 19.4028303027153,6.401994079351425 19.4028303027153,6.401994079351425 19.72721964120865,6.804405897855759 19.72721964120865,6.804405897855759 20.22787034511566,6.963108479976654 20.22787034511566,6.963108479976654 20.751085877418518,7.032351195812225 20.751085877418518,7.032351195812225 21.14298790693283,7.1663543581962585 21.14298790693283,7.1663543581962585 21.24994397163391,7.519400119781494 21.24994397163391,7.519400119781494 20.918259024620056,8.245831727981567 20.918259024620056,8.245831727981567 20.76493501663208,8.73832106590271 20.76493501663208,8.73832106590271 20.914240181446075,9.150130301713943 20.914240181446075,9.150130301713943 21.271149814128876,9.491337090730667 21.271149814128876,9.491337090730667 21.740517020225525,9.771893918514252 21.740517020225525,9.771893918514252 22.227689623832703,10.001972317695618 22.227689623832703,10.001972317695618 22.637459635734558,10.191555321216583 22.637459635734558,10.191555321216583 23.310598731040955,10.721015185117722 23.310598731040955,10.721015185117722 23.69576096534729,11.389301717281342 23.69576096534729,11.389301717281342 23.926612734794617,12.129612267017365 23.926612734794617,12.129612267017365 24.13638085126877,12.874962389469147 24.13638085126877,12.874962389469147 24.458853900432587,13.558673858642578 24.458853900432587,13.558673858642578 25.027325749397278,14.113666117191315 25.027325749397278,14.113666117191315 25.277340412139893,14.266495406627655 25.277340412139893,14.266495406627655 25.62689483165741,14.420808851718903 25.62689483165741,14.420808851718903 26.012304425239563,14.524178206920624 26.012304425239563,14.524178206920624 26.369771361351013,14.5239919424057 26.369771361351013,14.5239919424057 26.63573920726776,14.36770111322403 26.63573920726776,14.36770111322403 26.74652636051178,14.002878963947296 26.74652636051178,14.002878963947296 26.730823516845703,13.80491852760315 26.730823516845703,13.80491852760315 26.683712005615234,13.569028675556183 26.683712005615234,13.569028675556183 26.617684960365295,13.313169777393341 26.617684960365295,13.313169777393341 26.544731855392456,13.055117428302765 26.544731855392456,13.055117428302765 26.477468013763428,12.81282901763916 26.477468013763428,12.81282901763916 26.42800807952881,12.60417252779007 26.42800807952881,12.60417252779007 26.509615778923035,12.181050330400467 26.509615778923035,12.181050330400467 26.87518298625946,11.917896568775177 26.87518298625946,11.917896568775177 27.3912250995636,11.72911673784256 27.3912250995636,11.72911673784256 27.924150228500366,11.528992652893066 27.924150228500366,11.528992652893066 28.34065556526184,11.231990158557892 28.34065556526184,11.231990158557892 28.50727140903473,10.752422362565994 28.50727140903473,10.752422362565994 28.36853861808777,10.231678932905197 28.36853861808777,10.231678932905197 28.00835371017456,9.81263592839241 28.00835371017456,9.81263592839241 27.504488825798035,9.474397450685501 27.504488825798035,9.474397450685501 26.93471908569336,9.195756912231445 26.93471908569336,9.195756912231445 26.37718915939331,8.955848962068558 26.37718915939331,8.955848962068558 25.909677147865295,8.73349905014038 25.909677147865295,8.73349905014038 25.357836484909058,8.42134952545166 25.357836484909058,8.42134952545166 24.84871596097946,8.013373613357544 24.84871596097946,8.013373613357544 24.437278509140015,7.525087893009186 24.437278509140015,7.525087893009186 24.178482592105865,6.971670687198639 24.178482592105865,6.971670687198639 24.127353727817535,6.368640065193176 24.127353727817535,6.368640065193176 24.33885484933853,5.731327831745148 24.33885484933853,5.731327831745148 24.718329310417175,5.243876948952675 24.718329310417175,5.243876948952675 25.260895490646362,4.808419942855835 25.260895490646362,4.808419942855835 25.9069561958313,4.46678064763546 25.9069561958313,4.46678064763546 26.596540212631226,4.26069051027298 26.596540212631226,4.26069051027298 27.270299196243286,4.232066124677658 27.270299196243286,4.232066124677658 27.868258953094482,4.422638192772865 27.868258953094482,4.422638192772865 28.087118268013,4.650954157114029 28.087118268013,4.650954157114029 28.04272770881653,4.883041232824326 28.04272770881653,4.883041232824326 27.817565202713013,5.097014084458351 27.817565202713013,5.097014084458351 27.493855357170105,5.270862951874733 27.493855357170105,5.270862951874733 27.154254913330078,5.382795259356499 27.154254913330078,5.382795259356499 26.881054043769836,5.410832539200783 26.881054043769836,5.410832539200783 26.569893956184387,5.401496961712837 26.569893956184387,5.401496961712837 26.247483491897583,5.440445989370346 26.247483491897583,5.440445989370346 25.957900285720825,5.5418990552425385 25.957900285720825,5.5418990552425385 25.745224952697754,5.720168724656105 25.745224952697754,5.720168724656105 25.65372586250305,5.989566445350647 25.65372586250305,5.989566445350647 25.727668404579163,6.364405155181885 25.727668404579163,6.364405155181885 26.22201144695282,7.022026181221008 26.22201144695282,7.022026181221008 26.91493332386017,7.285427302122116 26.91493332386017,7.285427302122116 27.71098017692566,7.33998715877533 27.71098017692566,7.33998715877533 28.51419746875763,7.370930165052414 28.51419746875763,7.370930165052414 29.2290061712265,7.563604414463043 29.2290061712265,7.563604414463043 29.75957989692688,8.103389292955399 29.75957989692688,8.103389292955399 30.17781674861908,9.102711826562881 30.17781674861908,9.102711826562881 30.46659827232361,10.158602893352509 30.46659827232361,10.158602893352509 30.68990409374237,11.245406419038773 30.68990409374237,11.245406419038773 30.9122234582901,12.337309867143631 30.9122234582901,12.337309867143631 31.197911500930786,13.40884268283844 31.197911500930786,13.40884268283844 31.611329317092896,14.43416178226471 31.611329317092896,14.43416178226471 31.826725602149963,14.82430249452591 31.826725602149963,14.82430249452591 32.098254561424255,15.2174711227417 32.098254561424255,15.2174711227417 32.4224591255188,15.557751059532166 32.4224591255188,15.557751059532166 32.79538154602051,15.789064764976501 32.79538154602051,15.789064764976501 33.21337401866913,15.855588018894196 33.21337401866913,15.855588018894196 33.67278873920441,15.701305866241455 33.67278873920441,15.701305866241455 33.939310908317566,15.41951298713684 33.939310908317566,15.41951298713684 34.10462737083435,14.957810938358307 34.10462737083435,14.957810938358307 34.20892357826233,14.394594728946686 34.20892357826233,14.394594728946686 34.29195582866669,13.808287680149078 34.29195582866669,13.808287680149078 34.394147992134094,13.277311623096466 34.394147992134094,13.277311623096466" stroke="white" stroke-width="0.1" /><polygon points="38.52374255657196,12.173878401517868 38.52374255657196,12.173878401517868 38.52374255657196,12.173878401517868 38.52374255657196,12.173878401517868 38.29827010631561,12.62766569852829 38.29827010631561,12.62766569852829 38.40590715408325,13.047018647193909 38.40590715408325,13.047018647193909 38.73518109321594,13.436323404312134 38.73518109321594,13.436323404312134 39.17425274848938,13.79966288805008 39.17425274848938,13.79966288805008 39.61190581321716,14.141488075256348 39.61190581321716,14.141488075256348 39.93629515171051,14.4658163189888 39.93629515171051,14.4658163189888 40.293389558792114,14.532338082790375 40.293389558792114,14.532338082790375 40.616607666015625,14.410050213336945 40.616607666015625,14.410050213336945 40.911877155303955,14.154841005802155 40.911877155303955,14.154841005802155 41.184768080711365,13.822506368160248 41.184768080711365,13.822506368160248 41.441214084625244,13.46902847290039 41.441214084625244,13.46902847290039 41.68714880943298,13.150201737880707 41.68714880943298,13.150201737880707 41.904646158218384,12.882566452026367 41.904646158218384,12.882566452026367 42.10829436779022,12.582039833068848 42.10829436779022,12.582039833068848 42.24579036235809,12.276877462863922 42.24579036235809,12.276877462863922 42.26427674293518,11.995145678520203 42.26427674293518,11.995145678520203 42.111384868621826,11.765160411596298 42.111384868621826,11.765160411596298 41.73462986946106,11.614990234375 41.73462986946106,11.614990234375 41.241151094436646,11.548776179552078 41.241151094436646,11.548776179552078 40.66433608531952,11.532794684171677 40.66433608531952,11.532794684171677 40.05425572395325,11.57727763056755 40.05425572395325,11.57727763056755 39.46068286895752,11.692176759243011 39.46068286895752,11.692176759243011 38.93394470214844,11.887695640325546 38.93394470214844,11.887695640325546" stroke="white" stroke-width="0.1" /><polygon points="50.1862108707428,46.92685306072235 50.1862108707428,46.92685306072235 50.1862108707428,46.92685306072235 50.1862108707428,46.92685306072235 51.18318796157837,45.67232131958008 51.18318796157837,45.67232131958008 52.104735374450684,44.36193406581879 52.104735374450684,44.36193406581879 52.948009967803955,43.00016760826111 52.948009967803955,43.00016760826111 53.71018052101135,41.591447591781616 53.71018052101135,41.591447591781616 54.38838601112366,40.14034569263458 54.38838601112366,40.14034569263458 54.97979521751404,38.651347160339355 54.97979521751404,38.651347160339355 55.23531436920166,37.914684414863586 55.23531436920166,37.914684414863586 55.469441413879395,37.171003222465515 55.469441413879395,37.171003222465515 55.682116746902466,36.42098605632782 55.682116746902466,36.42098605632782 55.872905254364014,35.665127635002136 55.872905254364014,35.665127635002136 56.04186654090881,34.90419685840607 56.04186654090881,34.90419685840607 56.18857741355896,34.138691425323486 56.18857741355896,34.138691425323486 56.24347925186157,33.72456431388855 56.24347925186157,33.72456431388855 56.24415874481201,33.38354527950287 56.24415874481201,33.38354527950287 56.19080066680908,33.084964752197266 56.19080066680908,33.084964752197266 56.083351373672485,32.79807269573212 56.083351373672485,32.79807269573212 55.92242479324341,32.492196559906006 55.92242479324341,32.492196559906006 55.70783615112305,32.13658630847931 55.70783615112305,32.13658630847931 55.51580786705017,31.831607222557068 55.51580786705017,31.831607222557068 55.318838357925415,31.529566645622253 55.318838357925415,31.529566645622253 55.11605739593506,31.231483817100525 55.11605739593506,31.231483817100525 54.9063503742218,30.938315391540527 54.9063503742218,30.938315391540527 54.68922257423401,30.651110410690308 54.68922257423401,30.651110410690308 54.46344017982483,30.370894074440002 54.46344017982483,30.370894074440002 53.90139818191528,29.776301980018616 53.90139818191528,29.776301980018616 53.348755836486816,29.349562525749207 53.348755836486816,29.349562525749207 52.778613567352295,29.05503213405609 52.778613567352295,29.05503213405609 52.164024114608765,28.856855630874634 52.164024114608765,28.856855630874634 51.47833228111267,28.71951460838318 51.47833228111267,28.71951460838318 50.694650411605835,28.60718071460724 50.694650411605835,28.60718071460724 50.06682872772217,28.419452905654907 50.06682872772217,28.419452905654907 49.59264099597931,28.081953525543213 49.59264099597931,28.081953525543213 49.21359717845917,27.645447850227356 49.21359717845917,27.645447850227356 48.87121617794037,27.160590887069702 48.87121617794037,27.160590887069702 48.50738346576691,26.678210496902466 48.50738346576691,26.678210496902466 48.06342422962189,26.24896764755249 48.06342422962189,26.24896764755249 47.30484485626221,25.905412435531616 47.30484485626221,25.905412435531616 46.428677439689636,25.860711932182312 46.428677439689636,25.860711932182312 45.496001839637756,26.03629231452942 45.496001839637756,26.03629231452942 44.56752836704254,26.35326385498047 44.56752836704254,26.35326385498047 43.70428025722504,26.733016967773438 43.70428025722504,26.733016967773438 42.96715259552002,27.096697688102722 42.96715259552002,27.096697688102722 42.470335960388184,27.38281786441803 42.470335960388184,27.38281786441803 42.11410582065582,27.66566276550293 42.11410582065582,27.66566276550293 41.85531139373779,27.97101140022278 41.85531139373779,27.97101140022278 41.65048897266388,28.32433581352234 41.65048897266388,28.32433581352234 41.45660996437073,28.751444816589355 41.45660996437073,28.751444816589355 41.23014807701111,29.277846217155457 41.23014807701111,29.277846217155457 41.04863107204437,29.6991765499115 41.04863107204437,29.6991765499115 40.87453484535217,30.124062299728394 40.87453484535217,30.124062299728394 40.70884883403778,30.552533268928528 40.70884883403778,30.552533268928528 40.55224657058716,30.984342098236084 40.55224657058716,30.984342098236084 40.40597379207611,31.41939640045166 40.40597379207611,31.41939640045166 40.27063846588135,31.85763657093048 40.27063846588135,31.85763657093048 40.04572331905365,32.897207140922546 40.04572331905365,32.897207140922546 39.99057710170746,33.96533727645874 39.99057710170746,33.96533727645874 40.147486329078674,34.98642146587372 40.147486329078674,34.98642146587372 40.55849313735962,35.884785652160645 40.55849313735962,35.884785652160645 41.26606583595276,36.58500611782074 41.26606583595276,36.58500611782074 42.31231510639191,37.0112806558609 42.31231510639191,37.0112806558609 43.43281090259552,37.127694487571716 43.43281090259552,37.127694487571716 44.57915127277374,37.10871636867523 44.57915127277374,37.10871636867523 45.70175111293793,37.10685968399048 45.70175111293793,37.10685968399048 46.750593185424805,37.274497747421265 46.750593185424805,37.274497747421265 47.67647087574005,37.76423633098602 47.67647087574005,37.76423633098602 48.429423570632935,38.72850239276886 48.429423570632935,38.72850239276886 48.6840158700943,39.35651183128357 48.6840158700943,39.35651183128357 48.81433844566345,39.98801112174988 48.81433844566345,39.98801112174988 48.84636402130127,40.62427282333374 48.84636402130127,40.62427282333374 48.8061785697937,41.26640856266022 48.8061785697937,41.26640856266022 48.719748854637146,41.91574454307556 48.719748854637146,41.91574454307556 48.61341118812561,42.57345795631409 48.61341118812561,42.57345795631409 48.57538938522339,43.42434108257294 48.57538938522339,43.42434108257294 48.724448680877686,44.17429566383362 48.724448680877686,44.17429566383362 49.010321497917175,44.86143887042999 49.010321497917175,44.86143887042999 49.38262403011322,45.52382230758667 49.38262403011322,45.52382230758667 49.79146718978882,46.19958698749542 49.79146718978882,46.19958698749542" stroke="white" stroke-width="0.1" /><polygon points="55.28446435928345,29.90300953388214 55.28446435928345,29.90300953388214 55.28446435928345,29.90300953388214 55.28446435928345,29.90300953388214 55.42486310005188,30.20366132259369 55.42486310005188,30.20366132259369 55.59148192405701,30.484774708747864 55.59148192405701,30.484774708747864 55.78498840332031,30.74406385421753 55.78498840332031,30.74406385421753 56.00607395172119,30.97902536392212 56.00607395172119,30.97902536392212 56.25578165054321,31.187495589256287 56.25578165054321,31.187495589256287 56.534790992736816,31.367000937461853 56.534790992736816,31.367000937461853 56.54820799827576,27.673205733299255 56.54820799827576,27.673205733299255 56.064373254776,24.032238125801086 56.064373254776,24.032238125801086 55.10146617889404,20.497360825538635 55.10146617889404,20.497360825538635 53.677475452423096,17.121711373329163 53.677475452423096,17.121711373329163 51.81082487106323,13.958550989627838 51.81082487106323,13.958550989627838 49.519503116607666,11.06104701757431 49.519503116607666,11.06104701757431 48.93180429935455,11.643397808074951 48.93180429935455,11.643397808074951 48.35096895694733,12.258824706077576 48.35096895694733,12.258824706077576 47.79980778694153,12.909089028835297 47.79980778694153,12.909089028835297 47.300949692726135,13.595736026763916 47.300949692726135,13.595736026763916 46.877455711364746,14.320529997348785 46.877455711364746,14.320529997348785 46.55195474624634,15.085044503211975 46.55195474624634,15.085044503211975 46.43102586269379,15.571227669715881 46.43102586269379,15.571227669715881 46.40839695930481,16.066035628318787 46.40839695930481,16.066035628318787 46.50125801563263,16.52034968137741 46.50125801563263,16.52034968137741 46.727100014686584,16.884925961494446 46.727100014686584,16.884925961494446 47.103485465049744,17.110738158226013 47.103485465049744,17.110738158226013 47.64796793460846,17.14848130941391 47.64796793460846,17.14848130941391 48.19442927837372,17.027491331100464 48.19442927837372,17.027491331100464 48.70713651180267,16.805358231067657 48.70713651180267,16.805358231067657 49.18169677257538,16.50056540966034 49.18169677257538,16.50056540966034 49.61366057395935,16.131414473056793 49.61366057395935,16.131414473056793 49.9987006187439,15.716452896595001 49.9987006187439,15.716452896595001 50.33261179924011,15.273979306221008 50.33261179924011,15.273979306221008 50.5934476852417,14.941644668579102 50.5934476852417,14.941644668579102 50.862812995910645,14.709526300430298 50.862812995910645,14.709526300430298 51.136815547943115,14.598985016345978 51.136815547943115,14.598985016345978 51.41143798828125,14.631287753582 51.41143798828125,14.631287753582 51.682788133621216,14.827732741832733 51.682788133621216,14.827732741832733 51.946961879730225,15.209682285785675 51.946961879730225,15.209682285785675 52.11227536201477,15.573577582836151 52.11227536201477,15.573577582836151 52.3023247718811,16.11398011445999 52.3023247718811,16.11398011445999 52.44476795196533,16.722390055656433 52.44476795196533,16.722390055656433 52.466464042663574,17.28999614715576 52.466464042663574,17.28999614715576 52.295154333114624,17.708297073841095 52.295154333114624,17.708297073841095 51.857930421829224,17.868606746196747 51.857930421829224,17.868606746196747 51.514869928359985,17.810553312301636 51.514869928359985,17.810553312301636 51.19752883911133,17.669285833835602 51.19752883911133,17.669285833835602 50.893229246139526,17.485298216342926 50.893229246139526,17.485298216342926 50.589364767074585,17.29896068572998 50.589364767074585,17.29896068572998 50.27344822883606,17.15073734521866 50.27344822883606,17.15073734521866 49.93298053741455,17.081215977668762 49.93298053741455,17.081215977668762 49.54169690608978,17.09735244512558 49.54169690608978,17.09735244512558 49.05582368373871,17.179393768310547 49.05582368373871,17.179393768310547 48.545899987220764,17.330244183540344 48.545899987220764,17.330244183540344 48.08265268802643,17.552748322486877 48.08265268802643,17.552748322486877 47.736749053001404,17.84999817609787 47.736749053001404,17.84999817609787 47.57872521877289,18.22471171617508 47.57872521877289,18.22471171617508 47.5832998752594,18.583910167217255 47.5832998752594,18.583910167217255 47.64463007450104,18.94041746854782 47.64463007450104,18.94041746854782 47.730812430381775,19.29599791765213 47.730812430381775,19.29599791765213 47.80939221382141,19.652165472507477 47.80939221382141,19.652165472507477 47.84858822822571,20.0107142329216 47.84858822822571,20.0107142329216 47.81613051891327,20.37321776151657 47.81613051891327,20.37321776151657 47.61205017566681,20.787625014781952 47.61205017566681,20.787625014781952 47.27127552032471,20.97671329975128 47.27127552032471,20.97671329975128 46.84821367263794,20.991581678390503 46.84821367263794,20.991581678390503 46.397021412849426,20.883142948150635 46.397021412849426,20.883142948150635 45.97223103046417,20.702585577964783 45.97223103046417,20.702585577964783 45.628055930137634,20.500823855400085 45.628055930137634,20.500823855400085 45.23324966430664,20.354361832141876 45.23324966430664,20.354361832141876 44.79800760746002,20.382584631443024 44.79800760746002,20.382584631443024 44.36907470226288,20.552508533000946 44.36907470226288,20.552508533000946 43.99293661117554,20.831024646759033 43.99293661117554,20.831024646759033 43.71652007102966,21.185244619846344 43.71652007102966,21.185244619846344 43.586382269859314,21.581999957561493 43.586382269859314,21.581999957561493 43.338343501091,22.299467027187347 43.338343501091,22.299467027187347 42.85191297531128,23.27628582715988 42.85191297531128,23.27628582715988 42.350149154663086,24.343058466911316 42.350149154663086,24.343058466911316 42.056238651275635,25.33017098903656 42.056238651275635,25.33017098903656 42.19342768192291,26.06816291809082 42.19342768192291,26.06816291809082 42.98495948314667,26.387453079223633 42.98495948314667,26.387453079223633 43.57142150402069,26.324886083602905 43.57142150402069,26.324886083602905 44.051793217659,26.1111319065094 44.051793217659,26.1111319065094 44.46675479412079,25.79616904258728 44.46675479412079,25.79616904258728 44.856494665145874,25.429892539978027 44.856494665145874,25.429892539978027 45.26187181472778,25.06231665611267 45.26187181472778,25.06231665611267 45.72301805019379,24.74343031644821 45.72301805019379,24.74343031644821 46.37068510055542,24.495021998882294 46.37068510055542,24.495021998882294 47.066885232925415,24.409735202789307 47.066885232925415,24.409735202789307 47.7864533662796,24.453723430633545 47.7864533662796,24.453723430633545 48.50466251373291,24.593043327331543 48.50466251373291,24.593043327331543 49.196720123291016,24.79390949010849 49.196720123291016,24.79390949010849 49.83802139759064,25.02237856388092 49.83802139759064,25.02237856388092 50.478267669677734,25.265780091285706 50.478267669677734,25.265780091285706 51.12544298171997,25.514313578605652 51.12544298171997,25.514313578605652 51.77409648895264,25.769832730293274 51.77409648895264,25.769832730293274 52.41892337799072,26.03394389152527 52.41892337799072,26.03394389152527 53.05459499359131,26.30850374698639 53.05459499359131,26.30850374698639 53.676050901412964,26.595181226730347 53.676050901412964,26.595181226730347 54.2921245098114,27.005907893180847 54.2921245098114,27.005907893180847 54.65583801269531,27.489712834358215 54.65583801269531,27.489712834358215 54.851943254470825,28.033947944641113 54.851943254470825,28.033947944641113 54.965388774871826,28.62594425678253 54.965388774871826,28.62594425678253 55.08124828338623,29.25317883491516 55.08124828338623,29.25317883491516" stroke="white" stroke-width="0.1" /><polygon points="39.467424154281616,61.183953285217285 39.467424154281616,61.183953285217285 39.467424154281616,73.38206768035889 39.467424154281616,73.38206768035889 48.3087420463562,73.38206768035889 48.3087420463562,73.38206768035889 49.83585774898529,73.70256185531616 49.83585774898529,73.70256185531616 51.02411508560181,74.5531678199768 51.02411508560181,74.5531678199768 51.804763078689575,75.76772570610046 51.804763078689575,75.76772570610046 52.10869312286377,77.17994451522827 52.10869312286377,77.17994451522827 51.867079734802246,78.62362265586853 51.867079734802246,78.62362265586853 51.0111927986145,79.93243932723999 51.0111927986145,79.93243932723999 50.713568925857544,80.22934794425964 50.713568925857544,80.22934794425964 50.41613578796387,80.52647113800049 50.41613578796387,80.52647113800049 50.11894702911377,80.82394003868103 50.11894702911377,80.82394003868103 49.8216986656189,81.12149834632874 49.8216986656189,81.12149834632874 49.524325132369995,81.41918182373047 49.524325132369995,81.41918182373047 49.226704239845276,81.71692490577698 49.226704239845276,81.71692490577698 40.343838930130005,90.59780836105347 40.343838930130005,90.59780836105347 32.65392780303955,98.28771948814392 32.65392780303955,98.28771948814392 32.01269209384918,98.87412190437317 32.01269209384918,98.87412190437317 31.327620148658752,99.37062859535217 31.327620148658752,99.37062859535217 30.59568703174591,99.74380135536194 30.59568703174591,99.74380135536194 29.8137366771698,99.95993375778198 29.8137366771698,99.95993375778198 28.978803753852844,99.98565316200256 28.978803753852844,99.98565316200256 28.087857365608215,99.78732466697693 28.087857365608215,99.78732466697693 27.583622932434082,99.56191182136536 27.583622932434082,99.56191182136536 27.123096585273743,99.2676317691803 27.123096585273743,99.2676317691803 26.696571707725525,98.92228245735168 26.696571707725525,98.92228245735168 26.293975114822388,98.54354858398438 26.293975114822388,98.54354858398438 25.90571939945221,98.14942479133606 25.90571939945221,98.14942479133606 25.521916151046753,97.75751829147339 25.521916151046753,97.75751829147339 13.079969584941864,85.31755208969116 13.079969584941864,85.31755208969116 12.266799807548523,84.50425863265991 12.266799807548523,84.50425863265991 11.453629285097122,83.69077444076538 11.453629285097122,83.69077444076538 10.640644282102585,82.87723660469055 10.640644282102585,82.87723660469055 9.827473759651184,82.06363320350647 9.827473759651184,82.06363320350647 9.014426916837692,81.2501847743988 9.014426916837692,81.2501847743988 8.201318234205246,80.43692111968994 8.201318234205246,80.43692111968994 7.9111166298389435,80.14366030693054 7.9111166298389435,80.14366030693054 7.632599771022797,79.84634637832642 7.632599771022797,79.84634637832642 7.37287774682045,79.53750491142273 7.37287774682045,79.53750491142273 7.138440757989883,79.20928001403809 7.138440757989883,79.20928001403809 6.936214864253998,78.85419726371765 6.936214864253998,78.85419726371765 6.772937625646591,78.46449017524719 6.772937625646591,78.46449017524719 6.566878408193588,77.23551988601685 6.566878408193588,77.23551988601685 6.760140508413315,76.05561017990112 6.760140508413315,76.05561017990112 7.296215742826462,75.00259280204773 7.296215742826462,75.00259280204773 8.118350803852081,74.15412068367004 8.118350803852081,74.15412068367004 9.170223772525787,73.58806133270264 9.170223772525787,73.58806133270264 10.39532721042633,73.38206768035889 10.39532721042633,73.38206768035889 19.20894980430603,73.38206768035889 19.20894980430603,73.38206768035889 19.20894980430603,61.190879344940186 19.20894980430603,61.190879344940186 20.835351943969727,61.65696978569031 20.835351943969727,61.65696978569031 22.486238181591034,62.04219460487366 22.486238181591034,62.04219460487366 24.15907084941864,62.34488487243652 24.15907084941864,62.34488487243652 25.851067900657654,62.563180923461914 25.851067900657654,62.563180923461914 27.559944987297058,62.69548535346985 27.559944987297058,62.69548535346985 29.282793402671814,62.739938497543335 29.282793402671814,62.739938497543335 31.02567195892334,62.695515155792236 31.02567195892334,62.695515155792236 32.7545166015625,62.56312131881714 32.7545166015625,62.56312131881714 34.46635901927948,62.34439015388489 34.46635901927948,62.34439015388489 36.1578643321991,62.0406448841095 36.1578643321991,62.0406448841095 37.82593607902527,61.653321981430054 37.82593607902527,61.653321981430054" stroke="white" stroke-width="0.1" /></svg>