<?xml version="1.0" encoding="utf-8" ?>
<svg baseProfile="full" height="68.56120824813843" version="1.1" width="99.99999403953552" xmlns="http://www.w3.org/2000/svg" xmlns:ev="http://www.w3.org/2001/xml-events" xmlns:xlink="http://www.w3.org/1999/xlink"><defs><clipPath /></defs><polygon points="20.62200754880905,22.35935479402542 20.62200754880905,22.35935479402542 20.76050490140915,22.708171606063843 20.76050490140915,22.708171606063843 20.88366150856018,23.062576353549957 20.88366150856018,23.062576353549957 20.991697907447815,23.421913385391235 20.991697907447815,23.421913385391235 21.084614098072052,23.78552258014679 21.084614098072052,23.78552258014679 21.161751449108124,24.15274679660797 21.161751449108124,24.15274679660797 21.2233304977417,24.52293038368225 21.2233304977417,24.52293038368225 21.26891165971756,24.89541471004486 21.26891165971756,24.89541471004486 21.298713982105255,25.269541144371033 21.298713982105255,25.269541144371033 21.27395123243332,25.740638375282288 21.27395123243332,25.740638375282288 21.15451991558075,26.172730326652527 21.15451991558075,26.172730326652527 20.960579812526703,26.574963331222534 20.960579812526703,26.574963331222534 20.711198449134827,26.956704258918762 20.711198449134827,26.956704258918762 20.42631506919861,27.32716202735901 20.42631506919861,27.32716202735901 20.125435292720795,27.69564688205719 20.125435292720795,27.69564688205719 19.828280806541443,28.071418404579163 19.828280806541443,28.071418404579163 19.55435574054718,28.463736176490784 19.55435574054718,28.463736176490784 18.987438082695007,29.448115825653076 18.987438082695007,29.448115825653076 18.510808050632477,30.454736948013306 18.510808050632477,30.454736948013306 18.117012083530426,31.482616066932678 18.117012083530426,31.482616066932678 17.798161506652832,32.53076672554016 17.798161506652832,32.53076672554016 17.54636913537979,33.59819948673248 17.54636913537979,33.59819948673248 17.35418289899826,34.684041142463684 17.35418289899826,34.684041142463684 17.213933169841766,35.7871949672699 17.213933169841766,35.7871949672699 17.117510735988617,36.906784772872925 17.117510735988617,36.906784772872925 16.981424391269684,38.87642025947571 16.981424391269684,38.87642025947571 16.84599667787552,40.84605574607849 16.84599667787552,40.84605574607849 16.710348427295685,42.815691232681274 16.710348427295685,42.815691232681274 16.5749192237854,44.785329699516296 16.5749192237854,44.785329699516296 16.439490020275116,46.75496518611908 16.439490020275116,46.75496518611908 16.30406081676483,48.72460067272186 16.30406081676483,48.72460067272186 16.168195009231567,50.69423317909241 16.168195009231567,50.69423317909241 16.032327711582184,52.66387462615967 16.032327711582184,52.66387462615967 16.030573844909668,52.76878476142883 16.030573844909668,52.76878476142883 16.033203899860382,52.926623821258545 16.033203899860382,52.926623821258545 16.037148237228394,53.11897397041321 16.037148237228394,53.11897397041321 16.038024425506592,53.32742929458618 16.038024425506592,53.32742929458618 16.032765805721283,53.533583879470825 16.032765805721283,53.533583879470825 16.016986966133118,53.7190318107605 16.016986966133118,53.7190318107605 15.987841784954071,53.865307569503784 15.987841784954071,53.865307569503784 15.941163897514343,53.954172134399414 15.941163897514343,53.954172134399414 15.784040093421936,54.023581743240356 15.784040093421936,54.023581743240356 15.526112914085388,54.05617952346802 15.526112914085388,54.05617952346802 15.19959270954132,54.06050682067871 15.19959270954132,54.06050682067871 14.836914837360382,54.044896364212036 14.836914837360382,54.044896364212036 14.470511674880981,54.0179967880249 14.470511674880981,54.0179967880249 14.13237750530243,53.98819446563721 14.13237750530243,53.98819446563721 13.854946196079254,53.96409034729004 13.854946196079254,53.96409034729004 13.670867681503296,53.954172134399414 13.670867681503296,53.954172134399414 5.687137320637703,53.954172134399414 5.687137320637703,53.954172134399414 4.530293866991997,53.857529163360596 4.530293866991997,53.857529163360596 3.440069407224655,53.573960065841675 3.440069407224655,53.573960065841675 2.447362430393696,53.11250686645508 2.447362430393696,53.11250686645508 1.5824142843484879,52.482426166534424 1.5824142843484879,52.482426166534424 0.8759050630033016,51.69286131858826 0.8759050630033016,51.69286131858826 0.35873318556696177,50.75318217277527 0.35873318556696177,50.75318217277527 0.06135937292128801,49.672383069992065 0.06135937292128801,49.672383069992065 0.014024999109096825,48.45987856388092 0.014024999109096825,48.45987856388092 0.08634140249341726,47.41693437099457 0.08634140249341726,47.41693437099457 0.15843865694478154,46.37365937232971 0.15843865694478154,46.37365937232971 0.23009763099253178,45.32989263534546 0.23009763099253178,45.32989263534546 0.3019757568836212,44.285908341407776 0.3019757568836212,44.285908341407776 0.37363474257290363,43.24164688587189 0.37363474257290363,43.24164688587189 0.44507458806037903,42.19716787338257 0.44507458806037903,42.19716787338257 0.5162952933460474,41.15263521671295 0.5162952933460474,41.15263521671295 0.5872968584299088,40.1079922914505 0.5872968584299088,40.1079922914505 0.612278888002038,39.69091176986694 0.612278888002038,39.69091176986694 0.632220646366477,39.267367124557495 0.632220646366477,39.267367124557495 0.6521624512970448,38.83982300758362 0.6521624512970448,38.83982300758362 0.67670620046556,38.41096758842468 0.67670620046556,38.41096758842468 0.7108921650797129,37.983423471450806 0.7108921650797129,37.983423471450806 0.7593221962451935,37.55982518196106 0.7593221962451935,37.55982518196106 0.8270367048680782,37.1427983045578 0.8270367048680782,37.1427983045578 0.9186374023556709,36.73498034477234 0.9186374023556709,36.73498034477234 1.244061253964901,35.82045137882233 1.244061253964901,35.82045137882233 1.713460497558117,34.978896379470825 1.713460497558117,34.978896379470825 2.308865450322628,34.22483205795288 2.308865450322628,34.22483205795288 3.0136216431856155,33.57299864292145 3.0136216431856155,33.57299864292145 3.809978812932968,33.038130402565 3.809978812932968,33.038130402565 4.680843278765678,32.634857296943665 4.680843278765678,32.634857296943665 5.608465522527695,32.37797021865845 5.608465522527695,32.37797021865845 6.575971096754074,32.282042503356934 6.575971096754074,32.282042503356934 5.44542521238327,31.024503707885742 5.44542521238327,31.024503707885742 4.596474394202232,29.60381507873535 4.596474394202232,29.60381507873535 4.032844677567482,28.066763281822205 4.032844677567482,28.066763281822205 3.759137913584709,26.460352540016174 3.759137913584709,26.460352540016174 3.778422251343727,24.831479787826538 3.778422251343727,24.831479787826538 4.095299914479256,23.22687804698944 4.095299914479256,23.22687804698944 4.7132764011621475,21.693551540374756 4.7132764011621475,21.693551540374756 5.636296421289444,20.27839571237564 5.636296421289444,20.27839571237564 6.727616488933563,19.148671627044678 6.727616488933563,19.148671627044678 7.982415705919266,18.24849545955658 7.982415705919266,18.24849545955658 9.362125396728516,17.585541307926178 9.362125396728516,17.585541307926178 10.829052329063416,17.167694866657257 10.829052329063416,17.167694866657257 12.345286458730698,17.002682387828827 12.345286458730698,17.002682387828827 13.872915506362915,17.098335921764374 13.872915506362915,17.098335921764374 15.37402868270874,17.462438344955444 15.37402868270874,17.462438344955444 16.810715198516846,18.102768063545227 16.810715198516846,18.102768063545227 17.430444061756134,18.48500370979309 17.430444061756134,18.48500370979309 18.015550076961517,18.916764855384827 18.015550076961517,18.916764855384827 18.562963604927063,19.39476579427719 18.562963604927063,19.39476579427719 19.06873881816864,19.915498793125153 19.06873881816864,19.915498793125153 19.530688226222992,20.475731790065765 19.530688226222992,20.475731790065765 19.945740699768066,21.072013676166534 19.945740699768066,21.072013676166534 20.31038999557495,21.701055765151978 20.31038999557495,21.701055765151978" stroke="white" stroke-width="0.1" /><polygon points="49.45389926433563,43.263617157936096 49.45389926433563,43.263617157936096 48.585665225982666,43.33138465881348 48.585665225982666,43.33138465881348 47.75314927101135,43.52888464927673 47.75314927101135,43.52888464927673 46.96906507015228,43.84740591049194 46.96906507015228,43.84740591049194 46.24568223953247,44.27845478057861 46.24568223953247,44.27845478057861 45.59527337551117,44.81326937675476 45.59527337551117,44.81326937675476 45.03010809421539,45.443299412727356 45.03010809421539,45.443299412727356 44.56246197223663,46.15966975688934 44.56246197223663,46.15966975688934 44.205042719841,46.953943371772766 44.205042719841,46.953943371772766 38.07261288166046,63.99957537651062 38.07261288166046,63.99957537651062 32.95348882675171,63.99957537651062 32.95348882675171,63.99957537651062 32.336390018463135,64.00445103645325 32.336390018463135,64.00445103645325 31.711837649345398,64.01404142379761 31.711837649345398,64.01404142379761 31.08334243297577,64.02072310447693 31.08334243297577,64.02072310447693 30.453750491142273,64.01689052581787 30.453750491142273,64.01689052581787 29.825693368911743,63.994866609573364 29.825693368911743,63.994866609573364 29.202458262443542,63.94709348678589 29.202458262443542,63.94709348678589 28.586673736572266,63.865792751312256 28.586673736572266,63.865792751312256 27.981626987457275,63.74362111091614 27.981626987457275,63.74362111091614 26.404908299446106,63.20255994796753 26.404908299446106,63.20255994796753 25.01906454563141,62.40697503089905 25.01906454563141,62.40697503089905 23.834609985351562,61.38944625854492 23.834609985351562,61.38944625854492 22.862282395362854,60.182368755340576 22.862282395362854,60.182368755340576 22.11282104253769,58.818215131759644 22.11282104253769,58.818215131759644 21.596746146678925,57.32959508895874 21.596746146678925,57.32959508895874 21.324792504310608,55.74882626533508 21.324792504310608,55.74882626533508 21.307480335235596,54.10844683647156 21.307480335235596,54.10844683647156 22.2401425242424,40.583088994026184 22.2401425242424,40.583088994026184 22.280463576316833,39.9418830871582 22.280463576316833,39.9418830871582 22.315526008605957,39.29815590381622 22.315526008605957,39.29815590381622 22.348836064338684,38.65295350551605 22.348836064338684,38.65295350551605 22.384117543697357,38.007089495658875 22.384117543697357,38.007089495658875 22.42465913295746,37.36172020435333 22.42465913295746,37.36172020435333 22.47418463230133,36.717721819877625 22.47418463230133,36.717721819877625 22.535982728004456,36.07602417469025 22.535982728004456,36.07602417469025 22.613558173179626,35.43766736984253 22.613558173179626,35.43766736984253 23.02926778793335,33.6438924074173 23.02926778793335,33.6438924074173 23.756594955921173,31.97283446788788 23.756594955921173,31.97283446788788 24.759383499622345,30.459505319595337 24.759383499622345,30.459505319595337 26.001253724098206,29.13912832736969 26.001253724098206,29.13912832736969 27.446267008781433,28.046655654907227 27.446267008781433,28.046655654907227 29.058045148849487,27.217262983322144 29.058045148849487,27.217262983322144 30.800870060920715,26.685956120491028 30.800870060920715,26.685956120491028 32.6379269361496,26.487964391708374 32.6379269361496,26.487964391708374 30.980783700942993,24.703173339366913 30.980783700942993,24.703173339366913 29.648849368095398,22.70340621471405 29.648849368095398,22.70340621471405 28.651759028434753,20.536214113235474 28.651759028434753,20.536214113235474 28.000470995903015,18.249373137950897 28.000470995903015,18.249373137950897 27.705290913581848,15.890707075595856 27.705290913581848,15.890707075595856 27.776730060577393,13.507772982120514 27.776730060577393,13.507772982120514 28.225311636924744,11.148395389318466 28.225311636924744,11.148395389318466 29.06154990196228,8.86029303073883 29.06154990196228,8.86029303073883 30.12460172176361,6.944401562213898 30.12460172176361,6.944401562213898 31.43966495990753,5.2200935781002045 31.43966495990753,5.2200935781002045 32.97584056854248,3.7070922553539276 32.97584056854248,3.7070922553539276 34.702667593955994,2.4250099435448647 34.702667593955994,2.4250099435448647 36.589908599853516,1.3936246745288372 36.589908599853516,1.3936246745288372 38.606879115104675,0.6325493566691875 38.606879115104675,0.6325493566691875 40.72290062904358,0.16139706131070852 40.72290062904358,0.16139706131070852 42.90773272514343,0.0 42.90773272514343,0.0 45.09212672710419,0.1615614164620638 45.09212672710419,0.1615614164620638 47.20814824104309,0.6329876370728016 47.20814824104309,0.6329876370728016 49.22511577606201,1.3945012353360653 49.22511577606201,1.3945012353360653 51.112353801727295,2.426324784755707 51.112353801727295,2.426324784755707 52.83918380737305,3.7086259573698044 52.83918380737305,3.7086259573698044 54.3749213218689,5.221572890877724 54.3749213218689,5.221572890877724 55.68888783454895,6.945442408323288 55.68888783454895,6.945442408323288 56.750404834747314,8.86029303073883 56.750404834747314,8.86029303073883 57.587963342666626,11.148395389318466 57.587963342666626,11.148395389318466 58.03741812705994,13.507717847824097 58.03741812705994,13.507717847824097 58.10951590538025,15.890653431415558 58.10951590538025,15.890653431415558 57.81477093696594,18.249373137950897 57.81477093696594,18.249373137950897 57.163482904434204,20.536214113235474 57.163482904434204,20.536214113235474 56.16573691368103,22.70340621471405 56.16573691368103,22.70340621471405 54.83270883560181,24.703173339366913 54.83270883560181,24.703173339366913 53.174030780792236,26.487964391708374 53.174030780792236,26.487964391708374 55.08274435997009,26.70179009437561 55.08274435997009,26.70179009437561 56.88934326171875,27.274733781814575 56.88934326171875,27.274733781814575 58.551961183547974,28.166911005973816 58.551961183547974,28.166911005973816 60.02962589263916,29.338544607162476 60.02962589263916,29.338544607162476 61.28113865852356,30.749809741973877 61.28113865852356,30.749809741973877 62.264204025268555,32.360878586769104 62.264204025268555,32.360878586769104 62.938278913497925,34.13191735744476 62.938278913497925,34.13191735744476 63.26150894165039,36.02321147918701 63.26150894165039,36.02321147918701 63.69277834892273,42.29939877986908 63.69277834892273,42.29939877986908 63.70067000389099,42.41970479488373 63.70067000389099,42.41970479488373 63.70899677276611,42.540013790130615 63.70899677276611,42.540013790130615 63.717103004455566,42.6603764295578 63.717103004455566,42.6603764295578 63.72542977333069,42.78084933757782 63.72542977333069,42.78084933757782 63.73376250267029,42.90137588977814 63.73376250267029,42.90137588977814 63.74252438545227,43.02201271057129 63.74252438545227,43.02201271057129 63.75085115432739,43.142759799957275 63.75085115432739,43.142759799957275 63.759398460388184,43.263617157936096 63.759398460388184,43.263617157936096 63.48065137863159,43.263617157936096 63.48065137863159,43.263617157936096 62.83484697341919,43.30059587955475 62.83484697341919,43.30059587955475 62.21095323562622,43.40868592262268 62.21095323562622,43.40868592262268 61.612915992736816,43.583834171295166 61.612915992736816,43.583834171295166 61.044901609420776,43.82198750972748 61.044901609420776,43.82198750972748 60.51064133644104,44.11892294883728 60.51064133644104,44.11892294883728 60.014504194259644,44.470641016960144 60.014504194259644,44.470641016960144 59.56044793128967,44.872984290122986 59.56044793128967,44.872984290122986 59.152185916900635,45.32178342342377 59.152185916900635,45.32178342342377 58.73801112174988,44.866904616355896 58.73801112174988,44.866904616355896 58.27781558036804,44.46176588535309 58.27781558036804,44.46176588535309 57.776862382888794,44.10971701145172 57.776862382888794,44.10971701145172 57.23952651023865,43.814095854759216 57.23952651023865,43.814095854759216 56.67063593864441,43.57830286026001 56.67063593864441,43.57830286026001 56.07479810714722,43.40572953224182 56.07479810714722,43.40572953224182 55.457258224487305,43.29971969127655 55.457258224487305,43.29971969127655 54.82196807861328,43.263617157936096 54.82196807861328,43.263617157936096" stroke="white" stroke-width="0.1" /><polygon points="81.10131025314331,45.59877812862396 81.10131025314331,45.59877812862396 80.28961420059204,45.04643380641937 80.28961420059204,45.04643380641937 79.41699624061584,44.569748640060425 79.41699624061584,44.569748640060425 78.48148345947266,44.16811764240265 78.48148345947266,44.16811764240265 77.48110890388489,43.84083151817322 77.48110890388489,43.84083151817322 76.413893699646,43.587395548820496 76.413893699646,43.587395548820496 75.27830600738525,43.40715408325195 75.27830600738525,43.40715408325195 74.07193779945374,43.299391865730286 74.07193779945374,43.299391865730286 72.79325127601624,43.263617157936096 72.79325127601624,43.263617157936096 69.13623213768005,43.263617157936096 69.13623213768005,43.263617157936096 68.69970560073853,36.906784772872925 68.69970560073853,36.906784772872925 68.60175132751465,35.7871949672699 68.60175132751465,35.7871949672699 68.46040487289429,34.684041142463684 68.46040487289429,34.684041142463684 68.26799511909485,33.59819948673248 68.26799511909485,33.59819948673248 68.01620721817017,32.53076672554016 68.01620721817017,32.53076672554016 67.69757270812988,31.482616066932678 67.69757270812988,31.482616066932678 67.30421781539917,30.454736948013306 67.30421781539917,30.454736948013306 66.82780385017395,29.448115825653076 66.82780385017395,29.448115825653076 66.26110672950745,28.463736176490784 66.26110672950745,28.463736176490784 65.98718166351318,28.071418404579163 65.98718166351318,28.071418404579163 65.69002866744995,27.69564688205719 65.69002866744995,27.69564688205719 65.38936495780945,27.32716202735901 65.38936495780945,27.32716202735901 65.1042640209198,26.956704258918762 65.1042640209198,26.956704258918762 64.85510468482971,26.574963331222534 64.85510468482971,26.574963331222534 64.66072201728821,26.172730326652527 64.66072201728821,26.172730326652527 64.5417332649231,25.740638375282288 64.5417332649231,25.740638375282288 64.51674699783325,25.269541144371033 64.51674699783325,25.269541144371033 64.54654932022095,24.89541471004486 64.54654932022095,24.89541471004486 64.5919144153595,24.52293038368225 64.5919144153595,24.52293038368225 64.65305685997009,24.15274679660797 64.65305685997009,24.15274679660797 64.73019123077393,23.78552258014679 64.73019123077393,23.78552258014679 64.82266783714294,23.421913385391235 64.82266783714294,23.421913385391235 64.93092775344849,23.062576353549957 64.93092775344849,23.062576353549957 65.05473852157593,22.708171606063843 65.05473852157593,22.708171606063843 65.1934564113617,22.35935479402542 65.1934564113617,22.35935479402542 65.50441384315491,21.701055765151978 65.50441384315491,21.701055765151978 65.86906313896179,21.072013676166534 65.86906313896179,21.072013676166534 66.28389954566956,20.475731790065765 66.28389954566956,20.475731790065765 66.74584746360779,19.915498793125153 66.74584746360779,19.915498793125153 67.25184321403503,19.39476579427719 67.25184321403503,19.39476579427719 67.79859662055969,18.916764855384827 67.79859662055969,18.916764855384827 68.38370561599731,18.48500370979309 68.38370561599731,18.48500370979309 69.00299787521362,18.102768063545227 69.00299787521362,18.102768063545227 70.43968439102173,17.462438344955444 70.43968439102173,17.462438344955444 71.94079756736755,17.098335921764374 71.94079756736755,17.098335921764374 73.46886396408081,17.002682387828827 73.46886396408081,17.002682387828827 74.98553395271301,17.167694866657257 74.98553395271301,17.167694866657257 76.45289897918701,17.585541307926178 76.45289897918701,17.585541307926178 77.83282995223999,18.24849545955658 77.83282995223999,18.24849545955658 79.08762693405151,19.148671627044678 79.08762693405151,19.148671627044678 80.17916679382324,20.27839571237564 80.17916679382324,20.27839571237564 81.10218644142151,21.693551540374756 81.10218644142151,21.693551540374756 81.71972632408142,23.22687804698944 81.71972632408142,23.22687804698944 82.03638195991516,24.831479787826538 82.03638195991516,24.831479787826538 82.05567002296448,26.460352540016174 82.05567002296448,26.460352540016174 81.78152441978455,28.066763281822205 81.78152441978455,28.066763281822205 81.21833205223083,29.60381507873535 81.21833205223083,29.60381507873535 80.36959767341614,31.024503707885742 80.36959767341614,31.024503707885742 79.23949360847473,32.282042503356934 79.23949360847473,32.282042503356934 80.20634055137634,32.37797021865845 80.20634055137634,32.37797021865845 81.13396167755127,32.634857296943665 81.13396167755127,32.634857296943665 82.0046067237854,33.038130402565 82.0046067237854,33.038130402565 82.80096650123596,33.57299864292145 82.80096650123596,33.57299864292145 83.50549936294556,34.22483205795288 83.50549936294556,34.22483205795288 84.10112857818604,34.978896379470825 84.10112857818604,34.978896379470825 84.57030653953552,35.82045137882233 84.57030653953552,35.82045137882233 84.8950743675232,36.73498034477234 84.8950743675232,36.73498034477234 84.98733043670654,37.1427983045578 84.98733043670654,37.1427983045578 85.05526185035706,37.55982518196106 85.05526185035706,37.55982518196106 85.1041316986084,37.983423471450806 85.1041316986084,37.983423471450806 85.1381003856659,38.41096758842468 85.1381003856659,38.41096758842468 85.16242504119873,38.83982300758362 85.16242504119873,38.83982300758362 85.18170714378357,39.267367124557495 85.18170714378357,39.267367124557495 85.20099520683289,39.69091176986694 85.20099520683289,39.69091176986694 85.22465825080872,40.1079922914505 85.22465825080872,40.1079922914505 85.25884747505188,40.595799684524536 85.25884747505188,40.595799684524536 85.29237508773804,41.08360409736633 85.29237508773804,41.08360409736633 85.3259027004242,41.571468114852905 85.3259027004242,41.571468114852905 85.35965085029602,42.059218883514404 85.35965085029602,42.059218883514404 85.39317846298218,42.54707992076874 85.39317846298218,42.54707992076874 85.42670607566833,43.034833669662476 85.42670607566833,43.034833669662476 85.46067476272583,43.522584438323975 85.46067476272583,43.522584438323975 85.49464344978333,44.01044845581055 85.49464344978333,44.01044845581055 85.00245213508606,44.22772526741028 85.00245213508606,44.22772526741028 84.51968431472778,44.46171224117279 84.51968431472778,44.46171224117279 84.04699563980103,44.71246302127838 84.04699563980103,44.71246302127838 83.58461260795593,44.98036503791809 83.58461260795593,44.98036503791809 83.13339948654175,45.2654093503952 83.13339948654175,45.2654093503952 82.69314765930176,45.567989349365234 82.69314765930176,45.567989349365234 82.26472735404968,45.88831663131714 82.26472735404968,45.88831663131714 81.84814453125,46.22639715671539 81.84814453125,46.22639715671539 81.75938725471497,46.14410996437073 81.75938725471497,46.14410996437073 81.66932463645935,46.063026785850525 81.66932463645935,46.063026785850525 81.57793879508972,45.982933044433594 81.57793879508972,45.982933044433594 81.48524761199951,45.90404033660889 81.48524761199951,45.90404033660889 81.39123320579529,45.82613706588745 81.39123320579529,45.82613706588745 81.295907497406,45.749327540397644 81.295907497406,45.749327540397644 81.19926452636719,45.673561096191406 81.19926452636719,45.673561096191406" stroke="white" stroke-width="0.1" /><polygon points="95.38577198982239,61.30853295326233 95.38577198982239,61.30853295326233 99.9474048614502,61.30853295326233 99.9474048614502,61.30853295326233 99.79685544967651,62.146854400634766 99.79685544967651,62.146854400634766 99.59239363670349,62.93668746948242 99.59239363670349,62.93668746948242 99.33403134346008,63.67809772491455 99.33403134346008,63.67809772491455 99.02175068855286,64.37124013900757 99.02175068855286,64.37124013900757 98.65579009056091,65.01600742340088 98.65579009056091,65.01600742340088 98.23547601699829,65.61250686645508 98.23547601699829,65.61250686645508 97.7612555027008,66.16068482398987 97.7612555027008,66.16068482398987 97.23356366157532,66.6608214378357 97.23356366157532,66.6608214378357 96.65722846984863,67.1068787574768 96.65722846984863,67.1068787574768 96.04099988937378,67.49322414398193 96.04099988937378,67.49322414398193 95.38401961326599,67.81991124153137 95.38401961326599,67.81991124153137 94.68715190887451,68.08698773384094 94.68715190887451,68.08698773384094 93.94952654838562,68.29456686973572 93.94952654838562,68.29456686973572 93.17179322242737,68.44276189804077 93.17179322242737,68.44276189804077 92.35308766365051,68.5316264629364 92.35308766365051,68.5316264629364 91.49383306503296,68.56120824813843 91.49383306503296,68.56120824813843 90.46738147735596,68.51831078529358 90.46738147735596,68.51831078529358 89.49198722839355,68.38956475257874 89.49198722839355,68.38956475257874 88.56742978096008,68.1749701499939 88.56742978096008,68.1749701499939 87.69393563270569,67.87441968917847 87.69393563270569,67.87441968917847 86.8712842464447,67.48796701431274 86.8712842464447,67.48796701431274 86.09969019889832,67.01539158821106 86.09969019889832,67.01539158821106 85.37893295288086,66.4569079875946 85.37893295288086,66.4569079875946 84.70923900604248,65.81230759620667 84.70923900604248,65.81230759620667 84.10463333129883,65.09823799133301 84.10463333129883,65.09823799133301 83.58044624328613,64.32993412017822 83.58044624328613,64.32993412017822 83.13691020011902,63.50749731063843 83.13691020011902,63.50749731063843 82.77401328086853,62.631046772003174 82.77401328086853,62.631046772003174 82.49175548553467,61.70063018798828 82.49175548553467,61.70063018798828 82.29014873504639,60.71619391441345 82.29014873504639,60.71619391441345 82.16918110847473,59.67801213264465 82.16918110847473,59.67801213264465 82.12864398956299,58.58592987060547 82.12864398956299,58.58592987060547 82.16984272003174,57.44979381561279 82.16984272003174,57.44979381561279 82.29299783706665,56.372714042663574 82.29299783706665,56.372714042663574 82.4983298778534,55.354589223861694 82.4983298778534,55.354589223861694 82.78562426567078,54.39552068710327 82.78562426567078,54.39552068710327 83.15509557723999,53.49545478820801 83.15509557723999,53.49545478820801 83.60652327537537,52.654337882995605 83.60652327537537,52.654337882995605 84.13969278335571,51.87222361564636 84.13969278335571,51.87222361564636 84.7548246383667,51.149171590805054 84.7548246383667,51.149171590805054 85.43875813484192,50.49942135810852 85.43875813484192,50.49942135810852 86.17879748344421,49.93628263473511 86.17879748344421,49.93628263473511 86.97406053543091,49.45965111255646 86.97406053543091,49.45965111255646 87.82498240470886,49.06952679157257 87.82498240470886,49.06952679157257 88.73134851455688,48.76607358455658 88.73134851455688,48.76607358455658 89.6929383277893,48.54917824268341 89.6929383277893,48.54917824268341 90.70953130722046,48.41911792755127 90.70953130722046,48.41911792755127 91.78134799003601,48.375728726387024 91.78134799003601,48.375728726387024 92.63314604759216,48.404327034950256 92.63314604759216,48.404327034950256 93.4450626373291,48.49017560482025 93.4450626373291,48.49017560482025 94.21753287315369,48.63332808017731 94.21753287315369,48.63332808017731 94.94968056678772,48.833730816841125 94.94968056678772,48.833730816841125 95.64194679260254,49.09149706363678 95.64194679260254,49.09149706363678 96.29454612731934,49.406784772872925 96.29454612731934,49.406784772872925 96.90682888031006,49.77937936782837 96.90682888031006,49.77937936782837 97.47900366783142,50.20949840545654 97.47900366783142,50.20949840545654 98.00055623054504,50.69040060043335 98.00055623054504,50.69040060043335 98.46294522285461,51.212888956069946 98.46294522285461,51.212888956069946 98.86682033538818,51.77701115608215 98.86682033538818,51.77701115608215 99.21152591705322,52.38293409347534 99.21152591705322,52.38293409347534 99.49728846549988,53.03071141242981 99.49728846549988,53.03071141242981 99.723881483078,53.7205696105957 99.723881483078,53.7205696105957 99.89151954650879,54.452717304229736 99.89151954650879,54.452717304229736 99.99999403953552,55.22693991661072 99.99999403953552,55.22693991661072 95.38577198982239,55.22693991661072 95.38577198982239,55.22693991661072 95.2921986579895,54.89181876182556 95.2921986579895,54.89181876182556 95.17977833747864,54.57817316055298 95.17977833747864,54.57817316055298 95.04851698875427,54.28600311279297 95.04851698875427,54.28600311279297 94.89818215370178,54.01531457901001 94.89818215370178,54.01531457901001 94.72857117652893,53.766316175460815 94.72857117652893,53.766316175460815 94.54010725021362,53.53890061378479 94.54010725021362,53.53890061378479 94.33170557022095,53.33329439163208 94.33170557022095,53.33329439163208 94.10423636436462,53.14948558807373 94.10423636436462,53.14948558807373 93.85989308357239,52.98513174057007 93.85989308357239,52.98513174057007 93.59670877456665,52.843016386032104 93.59670877456665,52.843016386032104 93.31445693969727,52.72298455238342 93.31445693969727,52.72298455238342 93.0133581161499,52.625083923339844 93.0133581161499,52.625083923339844 92.69362688064575,52.5490939617157 92.69362688064575,52.5490939617157 92.35593676567078,52.494966983795166 92.35593676567078,52.494966983795166 91.99939370155334,52.46242880821228 91.99939370155334,52.46242880821228 91.62532091140747,52.45174169540405 91.62532091140747,52.45174169540405 91.12392663955688,52.47710943222046 91.12392663955688,52.47710943222046 90.64926505088806,52.553313970565796 90.64926505088806,52.553313970565796 90.20178318023682,52.68041491508484 90.20178318023682,52.68041491508484 89.78124856948853,52.858251333236694 89.78124856948853,52.858251333236694 89.38767313957214,53.08692455291748 89.38767313957214,53.08692455291748 89.02127146720886,53.366655111312866 89.02127146720886,53.366655111312866 88.68182301521301,53.69722843170166 88.68182301521301,53.69722843170166 88.36976885795593,54.07864451408386 88.36976885795593,54.07864451408386 88.08860778808594,54.50531244277954 88.08860778808594,54.50531244277954 87.8451406955719,54.96901273727417 87.8451406955719,54.96901273727417 87.63915300369263,55.46985864639282 87.63915300369263,55.46985864639282 87.4704122543335,56.007957458496094 87.4704122543335,56.007957458496094 87.33936548233032,56.58352971076965 87.33936548233032,56.58352971076965 87.24579215049744,57.19679594039917 87.24579215049744,57.19679594039917 87.18947768211365,57.84786343574524 87.18947768211365,57.84786343574524 87.17063069343567,58.53683948516846 87.17063069343567,58.53683948516846 87.18838095664978,59.219902753829956 87.18838095664978,59.219902753829956 87.24163174629211,59.8636269569397 87.24163174629211,59.8636269569397 87.33038306236267,60.468071699142456 87.33038306236267,60.468071699142456 87.45441436767578,61.03329062461853 87.45441436767578,61.03329062461853 87.61395215988159,61.559391021728516 87.61395215988159,61.559391021728516 87.80898451805115,62.046486139297485 87.80898451805115,62.046486139297485 88.03930282592773,62.49457597732544 88.03930282592773,62.49457597732544 88.30490112304688,62.90387511253357 88.30490112304688,62.90387511253357 88.60161900520325,63.26819658279419 88.60161900520325,63.26819658279419 88.92747759819031,63.58397603034973 88.92747759819031,63.58397603034973 89.28248882293701,63.85121941566467 89.28248882293701,63.85121941566467 89.6666407585144,64.06992077827454 89.6666407585144,64.06992077827454 90.08015990257263,64.24002647399902 90.08015990257263,64.24002647399902 90.52238464355469,64.36164975166321 90.52238464355469,64.36164975166321 90.99353551864624,64.43457007408142 90.99353551864624,64.43457007408142 91.49383306503296,64.45889472961426 91.49383306503296,64.45889472961426 91.89749360084534,64.44624066352844 91.89749360084534,64.44624066352844 92.2803282737732,64.4083321094513 92.2803282737732,64.4083321094513 92.64234900474548,64.34521675109863 92.64234900474548,64.34521675109863 92.9837703704834,64.25684690475464 92.9837703704834,64.25684690475464 93.30481290817261,64.14338946342468 93.30481290817261,64.14338946342468 93.60525608062744,64.00472521781921 93.60525608062744,64.00472521781921 93.8859760761261,63.84119391441345 93.8859760761261,63.84119391441345 94.14631128311157,63.65245580673218 94.14631128311157,63.65245580673218 94.38385963439941,63.43814134597778 94.38385963439941,63.43814134597778 94.59774494171143,63.201409578323364 94.59774494171143,63.201409578323364 94.78795528411865,62.942224740982056 94.78795528411865,62.942224740982056 94.95472311973572,62.6606285572052 94.95472311973572,62.6606285572052 95.09804248809814,62.356460094451904 95.09804248809814,62.356460094451904 95.2174723148346,62.02971935272217 95.2174723148346,62.02971935272217 95.31367421150208,61.68046593666077 95.31367421150208,61.68046593666077" stroke="white" stroke-width="0.1" /><polygon points="79.15183305740356,65.09703397750854 79.15183305740356,65.09703397750854 78.96074652671814,65.41341543197632 78.96074652671814,65.41341543197632 78.74971032142639,65.71161150932312 78.74971032142639,65.71161150932312 78.52027416229248,65.99162220954895 78.52027416229248,65.99162220954895 78.27154994010925,66.25343561172485 78.27154994010925,66.25343561172485 78.00397872924805,66.49690270423889 78.00397872924805,66.49690270423889 77.71778106689453,66.72196388244629 77.71778106689453,66.72196388244629 77.4131715297699,66.9284999370575 77.4131715297699,66.9284999370575 77.0901620388031,67.11663603782654 77.0901620388031,67.11663603782654 76.85962319374084,67.23573803901672 76.85962319374084,67.23573803901672 76.61725282669067,67.34607219696045 76.61725282669067,67.34607219696045 76.36327147483826,67.4474835395813 76.36327147483826,67.4474835395813 76.09745264053345,67.54001379013062 76.09745264053345,67.54001379013062 75.81958174705505,67.62366890907288 75.81958174705505,67.62366890907288 75.52965879440308,67.69844889640808 75.52965879440308,67.69844889640808 75.22724866867065,67.76435971260071 75.22724866867065,67.76435971260071 74.91278052330017,67.8213894367218 74.91278052330017,67.8213894367218 74.57376718521118,67.87003874778748 74.57376718521118,67.87003874778748 74.19114708900452,67.91211366653442 74.19114708900452,67.91211366653442 73.7646996974945,67.94772148132324 73.7646996974945,67.94772148132324 73.29464554786682,67.97676086425781 73.29464554786682,67.97676086425781 72.78119921684265,67.99933314323425 72.78119921684265,67.99933314323425 72.22458124160767,68.01543831825256 72.22458124160767,68.01543831825256 71.62479162216187,68.02508234977722 71.62479162216187,68.02508234977722 70.98227143287659,68.02825927734375 70.98227143287659,68.02825927734375 63.48065137863159,68.02825927734375 63.48065137863159,68.02825927734375 63.48065137863159,48.842060565948486 63.48065137863159,48.842060565948486 72.79325127601624,48.842060565948486 72.79325127601624,48.842060565948486 73.60166311264038,48.86096119880676 73.60166311264038,48.86096119880676 74.35616254806519,48.91755282878876 74.35616254806519,48.91755282878876 75.0560998916626,49.01194870471954 75.0560998916626,49.01194870471954 75.70146918296814,49.14403557777405 75.70146918296814,49.14403557777405 76.29227042198181,49.31364953517914 76.29227042198181,49.31364953517914 76.82828903198242,49.52101111412048 76.82828903198242,49.52101111412048 77.30929851531982,49.76584613323212 77.30929851531982,49.76584613323212 77.73531079292297,50.048208236694336 77.73531079292297,50.048208236694336 78.10872793197632,50.37012696266174 78.10872793197632,50.37012696266174 78.43283414840698,50.7323682308197 78.43283414840698,50.7323682308197 78.70675921440125,51.13481879234314 78.70675921440125,51.13481879234314 78.9313793182373,51.5778124332428 78.9313793182373,51.5778124332428 79.10625338554382,52.061182260513306 79.10625338554382,52.061182260513306 79.23072576522827,52.58503556251526 79.23072576522827,52.58503556251526 79.30567264556885,53.14943194389343 79.30567264556885,53.14943194389343 79.33065295219421,53.75431776046753 79.33065295219421,53.75431776046753 79.31947708129883,54.1326642036438 79.31947708129883,54.1326642036438 79.28594946861267,54.49446439743042 79.28594946861267,54.49446439743042 79.23029065132141,54.839664697647095 79.23029065132141,54.839664697647095 79.1522741317749,55.168211460113525 79.1522741317749,55.168211460113525 79.05212640762329,55.47993779182434 79.05212640762329,55.47993779182434 78.92984747886658,55.774903297424316 78.92984747886658,55.774903297424316 78.78543138504028,56.052881479263306 78.78543138504028,56.052881479263306 78.61888408660889,56.313878297805786 78.61888408660889,56.313878297805786 78.42998504638672,56.55898451805115 78.42998504638672,56.55898451805115 78.21763753890991,56.789302825927734 78.21763753890991,56.789302825927734 77.9822826385498,57.00504779815674 77.9822826385498,57.00504779815674 77.72347927093506,57.20621943473816 77.72347927093506,57.20621943473816 77.4412214756012,57.39292502403259 77.4412214756012,57.39292502403259 77.13530659675598,57.56527781486511 77.13530659675598,57.56527781486511 76.80571675300598,57.72333741188049 76.80571675300598,57.72333741188049 76.45202279090881,57.86714553833008 76.45202279090881,57.86714553833008 76.85655951499939,57.98564553260803 76.85655951499939,57.98564553260803 77.23698616027832,58.125460147857666 77.23698616027832,58.125460147857666 77.59286761283875,58.2866370677948 77.59286761283875,58.2866370677948 77.92420983314514,58.469122648239136 77.92420983314514,58.469122648239136 78.2312273979187,58.67286920547485 78.2312273979187,58.67286920547485 78.51347923278809,58.89787673950195 78.51347923278809,58.89787673950195 78.77140641212463,59.14413332939148 78.77140641212463,59.14413332939148 79.00457382202148,59.41165089607239 79.00457382202148,59.41165089607239 79.2118787765503,59.6988320350647 79.2118787765503,59.6988320350647 79.39157485961914,60.0028932094574 79.39157485961914,60.0028932094574 79.54409718513489,60.32382249832153 79.54409718513489,60.32382249832153 79.6690046787262,60.66162586212158 79.6690046787262,60.66162586212158 79.76630330085754,61.01614236831665 79.76630330085754,61.01614236831665 79.83599305152893,61.38736605644226 79.83599305152893,61.38736605644226 79.87762689590454,61.77530288696289 79.87762689590454,61.77530288696289 79.89165186882019,62.17983365058899 79.89165186882019,62.17983365058899 79.88004088401794,62.57867217063904 79.88004088401794,62.57867217063904 79.84563708305359,62.967973947525024 79.84563708305359,62.967973947525024 79.78777885437012,63.34752440452576 79.78777885437012,63.34752440452576 79.70713973045349,63.717323541641235 79.70713973045349,63.717323541641235 79.60326671600342,64.07721042633057 79.60326671600342,64.07721042633057 79.4759452342987,64.42723274230957 79.4759452342987,64.42723274230957 79.32539582252502,64.76716995239258 79.32539582252502,64.76716995239258" stroke="white" stroke-width="0.1" /><polygon points="68.1807816028595,56.34893774986267 68.1807816028595,56.34893774986267 72.13232517242432,56.34893774986267 72.13232517242432,56.34893774986267 72.43364453315735,56.34154677391052 72.43364453315735,56.34154677391052 72.71523475646973,56.31946325302124 72.71523475646973,56.31946325302124 72.9771077632904,56.28281235694885 72.9771077632904,56.28281235694885 73.21947813034058,56.231480836868286 73.21947813034058,56.231480836868286 73.44146966934204,56.16573691368103 73.44146966934204,56.16573691368103 73.64395260810852,56.08564019203186 73.64395260810852,56.08564019203186 73.8258421421051,55.99125027656555 73.8258421421051,55.99125027656555 73.98713231086731,55.88260889053345 73.98713231086731,55.88260889053345 74.13219809532166,55.75956106185913 74.13219809532166,55.75956106185913 74.25776720046997,55.62161207199097 74.25776720046997,55.62161207199097 74.36295747756958,55.46886920928955 74.36295747756958,55.46886920928955 74.44908022880554,55.301445722579956 74.44908022880554,55.301445722579956 74.51569437980652,55.119121074676514 74.51569437980652,55.119121074676514 74.56303238868713,54.92211580276489 74.56303238868713,54.92211580276489 74.5913028717041,54.71031665802002 74.5913028717041,54.71031665802002 74.60072636604309,54.4836163520813 74.60072636604309,54.4836163520813 74.59173798561096,54.272472858428955 74.59173798561096,54.272472858428955 74.5650053024292,54.0741503238678 74.5650053024292,54.0741503238678 74.52073693275452,53.8888156414032 74.52073693275452,53.8888156414032 74.45828318595886,53.71662378311157 74.45828318595886,53.71662378311157 74.37785863876343,53.5575270652771 74.37785863876343,53.5575270652771 74.27990436553955,53.411686420440674 74.27990436553955,53.411686420440674 74.16353821754456,53.27910780906677 74.16353821754456,53.27910780906677 74.02920722961426,53.16000580787659 74.02920722961426,53.16000580787659 73.87734055519104,53.05520296096802 73.87734055519104,53.05520296096802 73.70859980583191,52.96415090560913 73.70859980583191,52.96415090560913 73.52254986763,52.88701057434082 73.52254986763,52.88701057434082 73.31984639167786,52.82384157180786 73.31984639167786,52.82384157180786 73.09960722923279,52.77464985847473 73.09960722923279,52.77464985847473 72.86227941513062,52.739417552948 72.86227941513062,52.739417552948 72.60785698890686,52.71821618080139 72.60785698890686,52.71821618080139 72.335684299469,52.711206674575806 72.335684299469,52.711206674575806 68.1807816028595,52.711206674575806 68.1807816028595,52.711206674575806" stroke="white" stroke-width="0.1" /><polygon points="75.05828738212585,62.07464337348938 75.05828738212585,62.07464337348938 75.04798769950867,61.82241439819336 75.04798769950867,61.82241439819336 75.01643300056458,61.58607006072998 75.01643300056458,61.58607006072998 74.96383786201477,61.36589050292969 74.96383786201477,61.36589050292969 74.8904287815094,61.16170883178711 74.8904287815094,61.16170883178711 74.7961938381195,60.97341179847717 74.7961938381195,60.97341179847717 74.68093037605286,60.801053047180176 74.68093037605286,60.801053047180176 74.54506158828735,60.64453721046448 74.54506158828735,60.64453721046448 74.38859343528748,60.503846406936646 74.38859343528748,60.503846406936646 74.21021461486816,60.381126403808594 74.21021461486816,60.381126403808594 74.01167154312134,60.27440428733826 74.01167154312134,60.27440428733826 73.79297018051147,60.18412113189697 73.79297018051147,60.18412113189697 73.55344891548157,60.110050439834595 73.55344891548157,60.110050439834595 73.29354882240295,60.052305459976196 73.29354882240295,60.052305459976196 73.0128288269043,60.01099944114685 73.0128288269043,60.01099944114685 72.71085381507874,59.986233711242676 72.71085381507874,59.986233711242676 72.3882794380188,59.977906942367554 72.3882794380188,59.977906942367554 68.1807816028595,59.977906942367554 68.1807816028595,59.977906942367554 68.1807816028595,64.20994997024536 68.1807816028595,64.20994997024536 71.89390063285828,64.20994997024536 71.89390063285828,64.20994997024536 72.31683731079102,64.20239210128784 72.31683731079102,64.20239210128784 72.7069079875946,64.17965888977051 72.7069079875946,64.17965888977051 73.0645477771759,64.14185166358948 73.0645477771759,64.14185166358948 73.38887453079224,64.08876776695251 73.38887453079224,64.08876776695251 73.68033528327942,64.02050256729126 73.68033528327942,64.02050256729126 73.93869757652283,63.93701434135437 73.93869757652283,63.93701434135437 74.16375875473022,63.83834481239319 74.16375875473022,63.83834481239319 74.35528635978699,63.7243390083313 74.35528635978699,63.7243390083313 74.52051639556885,63.59115242958069 74.52051639556885,63.59115242958069 74.66295957565308,63.437265157699585 74.66295957565308,63.437265157699585 74.78414177894592,63.26260566711426 74.78414177894592,63.26260566711426 74.88297820091248,63.067132234573364 74.88297820091248,63.067132234573364 74.95967745780945,62.85067796707153 74.95967745780945,62.85067796707153 75.01446008682251,62.61318325996399 75.01446008682251,62.61318325996399 75.04733204841614,62.35460042953491 75.04733204841614,62.35460042953491" stroke="white" stroke-width="0.1" /><polygon points="54.82196807861328,48.842060565948486 54.82196807861328,48.842060565948486 61.59253716468811,68.02825927734375 61.59253716468811,68.02825927734375 56.31738305091858,68.02825927734375 56.31738305091858,68.02825927734375 55.146294832229614,64.51148986816406 55.146294832229614,64.51148986816406 48.73862564563751,64.51148986816406 48.73862564563751,64.51148986816406 47.64467477798462,68.02825927734375 47.64467477798462,68.02825927734375 42.553600668907166,68.02825927734375 42.553600668907166,68.02825927734375 49.45389926433563,48.842060565948486 49.45389926433563,48.842060565948486" stroke="white" stroke-width="0.1" /><polygon points="49.90971386432648,60.53890585899353 49.90971386432648,60.53890585899353 54.10318970680237,60.53890585899353 54.10318970680237,60.53890585899353 51.96613073348999,53.92261743545532 51.96613073348999,53.92261743545532" stroke="white" stroke-width="0.1" /></svg>