<?xml version="1.0" encoding="utf-8" ?>
<svg baseProfile="full" height="82.25911855697632" version="1.1" width="99.97208714485168" xmlns="http://www.w3.org/2000/svg" xmlns:ev="http://www.w3.org/2001/xml-events" xmlns:xlink="http://www.w3.org/1999/xlink"><defs><clipPath /></defs><polygon points="99.61230158805847,43.39032769203186 99.61230158805847,43.39032769203186 99.20539855957031,44.30006444454193 99.20539855957031,44.30006444454193 98.67442846298218,45.131298899650574 98.67442846298218,45.131298899650574 98.05167317390442,45.90189754962921 98.05167317390442,45.90189754962921 97.3685085773468,46.62905931472778 97.3685085773468,46.62905931472778 96.65731191635132,47.330984473228455 96.65731191635132,47.330984473228455 95.94969153404236,48.024871945381165 95.94969153404236,48.024871945381165 73.47733974456787,70.49543857574463 73.47733974456787,70.49543857574463 64.6656334400177,79.30893301963806 64.6656334400177,79.30893301963806 64.13589715957642,79.83275055885315 64.13589715957642,79.83275055885315 63.599008321762085,80.33535480499268 63.599008321762085,80.33535480499268 63.04113268852234,80.80434799194336 63.04113268852234,80.80434799194336 62.448298931121826,81.2273383140564 62.448298931121826,81.2273383140564 61.8070125579834,81.59236907958984 61.8070125579834,81.59236907958984 61.10307574272156,81.88705444335938 61.10307574272156,81.88705444335938 58.88306498527527,82.25911855697632 58.88306498527527,82.25911855697632 56.751155853271484,81.91027641296387 56.751155853271484,81.91027641296387 54.84849810600281,80.94281554222107 54.84849810600281,80.94281554222107 53.31522226333618,79.45822477340698 53.31522226333618,79.45822477340698 52.29203701019287,77.55880355834961 52.29203701019287,77.55880355834961 51.91974639892578,75.34616589546204 51.91974639892578,75.34616589546204 51.91974639892578,59.4254195690155 51.91974639892578,59.4254195690155 25.620412826538086,59.4254195690155 25.620412826538086,59.4254195690155 25.620412826538086,54.864126443862915 25.620412826538086,54.864126443862915 25.60645341873169,54.38307523727417 25.60645341873169,54.38307523727417 25.565248727798462,53.90928387641907 25.565248727798462,53.90928387641907 25.498026609420776,53.44352722167969 25.498026609420776,53.44352722167969 25.404897332191467,52.98648476600647 25.404897332191467,52.98648476600647 25.287091732025146,52.53903865814209 25.287091732025146,52.53903865814209 25.145164132118225,52.10198163986206 25.145164132118225,52.10198163986206 25.244992971420288,51.80171728134155 25.244992971420288,51.80171728134155 25.33387839794159,51.496535539627075 25.33387839794159,51.496535539627075 25.41182041168213,51.18677616119385 25.41182041168213,51.18677616119385 25.47781467437744,50.872331857681274 25.47781467437744,50.872331857681274 25.532084703445435,50.553858280181885 25.532084703445435,50.553858280181885 25.573959946632385,50.23137331008911 25.573959946632385,50.23137331008911 26.545557379722595,49.731895327568054 26.545557379722595,49.731895327568054 27.48376429080963,49.18283820152283 27.48376429080963,49.18283820152283 28.387469053268433,48.5854297876358 28.387469053268433,48.5854297876358 29.254883527755737,47.939783334732056 29.254883527755737,47.939783334732056 30.08522391319275,47.24712669849396 30.08522391319275,47.24712669849396 30.876705050468445,46.50801420211792 30.876705050468445,46.50801420211792 31.72401785850525,45.61983048915863 31.72401785850525,45.61983048915863 32.511258125305176,44.6797251701355 32.511258125305176,44.6797251701355 33.236855268478394,43.689367175102234 33.236855268478394,43.689367175102234 33.899253606796265,42.650437355041504 33.899253606796265,42.650437355041504 34.49699580669403,41.56516492366791 34.49699580669403,41.56516492366791 35.02885699272156,40.43522775173187 35.02885699272156,40.43522775173187 35.49762666225433,39.24398422241211 35.49762666225433,39.24398422241211 35.88219881057739,38.02538514137268 35.88219881057739,38.02538514137268 36.1821323633194,36.781325936317444 36.1821323633194,36.781325936317444 36.396750807762146,35.51381528377533 36.396750807762146,35.51381528377533 36.52583658695221,34.22498106956482 36.52583658695221,34.22498106956482 36.56893968582153,32.917046546936035 36.56893968582153,32.917046546936035 36.525723338127136,31.609785556793213 36.525723338127136,31.609785556793213 36.396417021751404,30.32117187976837 36.396417021751404,30.32117187976837 36.18168532848358,29.05321717262268 36.18168532848358,29.05321717262268 35.88130474090576,27.80759334564209 35.88130474090576,27.80759334564209 35.49583852291107,26.586535573005676 35.49583852291107,26.586535573005676 35.02528369426727,25.391721725463867 35.02528369426727,25.391721725463867 34.825849533081055,24.948076903820038 34.825849533081055,24.948076903820038 34.614354372024536,24.512359499931335 34.614354372024536,24.512359499931335 34.391918778419495,24.083901941776276 34.391918778419495,24.083901941776276 34.159210324287415,23.661920428276062 34.159210324287415,23.661920428276062 33.91745388507843,23.24574440717697 33.91745388507843,23.24574440717697 33.66743624210358,22.83504009246826 33.66743624210358,22.83504009246826 51.91974639892578,22.83504009246826 51.91974639892578,22.83504009246826 51.91974639892578,6.866055727005005 51.91974639892578,6.866055727005005 52.498507499694824,4.108154401183128 52.498507499694824,4.108154401183128 54.03490662574768,1.9620653241872787 54.03490662574768,1.9620653241872787 56.22912049293518,0.5522949621081352 56.22912049293518,0.5522949621081352 58.78044366836548,0.003126619412796572 58.78044366836548,0.003126619412796572 61.38893365859985,0.4392900038510561 61.38893365859985,0.4392900038510561 63.75444531440735,1.9849564880132675 63.75444531440735,1.9849564880132675 64.29055333137512,2.5225117802619934 64.29055333137512,2.5225117802619934 64.82720971107483,3.0598435550928116 64.82720971107483,3.0598435550928116 65.36421179771423,3.5971753299236298 65.36421179771423,3.5971753299236298 65.90109467506409,4.13428395986557 65.90109467506409,4.13428395986557 66.43775701522827,4.671169072389603 66.43775701522827,4.671169072389603 66.97397232055664,5.208054557442665 66.97397232055664,5.208054557442665 83.01799297332764,21.25207781791687 83.01799297332764,21.25207781791687 85.33303141593933,23.56666922569275 85.33303141593933,23.56666922569275 87.64773607254028,25.881707668304443 87.64773607254028,25.881707668304443 89.9626612663269,28.196969628334045 89.9626612663269,28.196969628334045 92.27736592292786,30.512341856956482 92.27736592292786,30.512341856956482 94.59218382835388,32.82771706581116 94.59218382835388,32.82771706581116 96.90732955932617,35.14319956302643 96.90732955932617,35.14319956302643 97.96647429466248,36.30038499832153 97.96647429466248,36.30038499832153 98.86302947998047,37.537187337875366 98.86302947998047,37.537187337875366 99.53681826591492,38.85941207408905 99.53681826591492,38.85941207408905 99.92653131484985,40.27186036109924 99.92653131484985,40.27186036109924 99.97208714485168,41.78045392036438 99.97208714485168,41.78045392036438" stroke="white" stroke-width="0.1" /><polygon points="11.91331297159195,28.307518362998962 11.91331297159195,28.307518362998962 11.59663125872612,28.317677974700928 11.59663125872612,28.317677974700928 11.285979300737381,28.34782898426056 11.285979300737381,28.34782898426056 10.982026904821396,28.39796543121338 10.982026904821396,28.39796543121338 10.684774816036224,28.467756509780884 10.684774816036224,28.467756509780884 10.394781082868576,28.557312488555908 10.394781082868576,28.557312488555908 10.112380236387253,28.666633367538452 10.112380236387253,28.666633367538452 9.837684035301208,28.794601559638977 9.837684035301208,28.794601559638977 9.574601799249649,28.936859965324402 9.574601799249649,28.936859965324402 9.32357832789421,29.093638062477112 9.32357832789421,29.093638062477112 9.085062146186829,29.264485836029053 9.085062146186829,29.264485836029053 8.859498798847198,29.449740052223206 8.859498798847198,29.449740052223206 8.647335320711136,29.64928448200226 8.647335320711136,29.64928448200226 8.447343856096268,29.862341284751892 8.447343856096268,29.862341284751892 8.261533081531525,30.08835017681122 8.261533081531525,30.08835017681122 8.090350776910782,30.327090620994568 8.090350776910782,30.327090620994568 7.933573424816132,30.578112602233887 7.933573424816132,30.578112602233887 7.791758328676224,30.841195583343506 7.791758328676224,30.841195583343506 7.66468346118927,31.116116046905518 7.66468346118927,31.116116046905518 7.55491703748703,31.39728605747223 7.55491703748703,31.39728605747223 7.464691996574402,31.686609983444214 7.464691996574402,31.686609983444214 7.394454628229141,31.98375105857849 7.394454628229141,31.98375105857849 7.3439821600914,32.2879284620285 7.3439821600914,32.2879284620285 7.313832640647888,32.59935975074768 7.313832640647888,32.59935975074768 7.303782552480698,32.917046546936035 7.303782552480698,32.917046546936035 7.296189665794373,33.03675353527069 7.296189665794373,33.03675353527069 7.273074984550476,33.153778314590454 7.273074984550476,33.153778314590454 7.235443592071533,33.26655924320221 7.235443592071533,33.26655924320221 7.182849198579788,33.373311161994934 7.182849198579788,33.373311161994934 7.116296887397766,33.47291648387909 7.116296887397766,33.47291648387909 7.035786658525467,33.56381058692932 7.035786658525467,33.56381058692932 6.945226341485977,33.64264667034149 6.945226341485977,33.64264667034149 6.84584453701973,33.70875120162964 6.84584453701973,33.70875120162964 6.739204376935959,33.76145958900452 6.739204376935959,33.76145958900452 6.626422703266144,33.79987180233002 6.626422703266144,33.79987180233002 6.509286165237427,33.82354378700256 6.509286165237427,33.82354378700256 6.3890233635902405,33.83180797100067 6.3890233635902405,33.83180797100067 0.9147594682872295,33.83180797100067 0.9147594682872295,33.83180797100067 0.6719998084008694,33.799201250076294 0.6719998084008694,33.799201250076294 0.4535831045359373,33.7065190076828 0.4535831045359373,33.7065190076828 0.268442602828145,33.563363552093506 0.268442602828145,33.563363552093506 0.12506477069109678,33.37800204753876 0.12506477069109678,33.37800204753876 0.032606173772364855,33.15969705581665 0.032606173772364855,33.15969705581665 0.0,32.917046546936035 0.0,32.917046546936035 0.026241267914883792,32.11183249950409 0.026241267914883792,32.11183249950409 0.10463008657097816,31.319233775138855 0.10463008657097816,31.319233775138855 0.2353897551074624,30.540594458580017 0.2353897551074624,30.540594458580017 0.4180736839771271,29.777252674102783 0.4180736839771271,29.777252674102783 0.6530167534947395,29.030659794807434 0.6530167534947395,29.030659794807434 0.9397724643349648,28.302156925201416 0.9397724643349648,28.302156925201416 1.2687373906373978,27.602240443229675 1.2687373906373978,27.602240443229675 1.6365619376301765,26.928454637527466 1.6365619376301765,26.928454637527466 2.042575739324093,26.282361149787903 2.042575739324093,26.282361149787903 2.4856623262166977,25.66463053226471 2.4856623262166977,25.66463053226471 2.9653750360012054,25.07682740688324 2.9653750360012054,25.07682740688324 3.4803740680217743,24.519841372966766 3.4803740680217743,24.519841372966766 4.033562168478966,23.993676900863647 4.033562168478966,23.993676900863647 4.620026797056198,23.505142331123352 4.620026797056198,23.505142331123352 5.2388738840818405,23.055243492126465 5.2388738840818405,23.055243492126465 5.88887557387352,22.643981873989105 5.88887557387352,22.643981873989105 6.569250673055649,22.272807359695435 6.569250673055649,22.272807359695435 7.278769463300705,21.941721439361572 7.278769463300705,21.941721439361572 8.013078570365906,21.656416356563568 8.013078570365906,21.656416356563568 8.764583617448807,21.422255039215088 8.764583617448807,21.422255039215088 9.531722217798233,21.239571273326874 9.531722217798233,21.239571273326874 10.31293049454689,21.108588576316833 10.31293049454689,21.108588576316833 11.107426881790161,21.029752492904663 11.107426881790161,21.029752492904663 11.91331297159195,21.003735065460205 11.91331297159195,21.003735065460205 17.387576401233673,21.003735065460205 17.387576401233673,21.003735065460205 18.192903697490692,21.030087769031525 18.192903697490692,21.030087769031525 18.985390663146973,21.108700335025787 18.985390663146973,21.108700335025787 19.76425349712372,21.23979479074478 19.76425349712372,21.23979479074478 20.527595281600952,21.42259031534195 20.527595281600952,21.42259031534195 21.27474546432495,21.6573104262352 21.27474546432495,21.6573104262352 22.004252672195435,21.943508088588715 22.004252672195435,21.943508088588715 22.70539700984955,22.27470576763153 22.70539700984955,22.27470576763153 23.378513753414154,22.6458802819252 23.378513753414154,22.6458802819252 24.02270883321762,23.0568066239357 24.02270883321762,23.0568066239357 24.636530876159668,23.50625842809677 24.636530876159668,23.50625842809677 25.219646096229553,23.994234204292297 25.219646096229553,23.994234204292297 25.770488381385803,24.519841372966766 25.770488381385803,24.519841372966766 26.28682851791382,25.077608227729797 26.28682851791382,25.077608227729797 26.76665186882019,25.66552460193634 26.76665186882019,25.66552460193634 27.209627628326416,26.283031702041626 27.209627628326416,26.283031702041626 27.61474847793579,26.928678154945374 27.61474847793579,26.928678154945374 27.982348203659058,27.60213017463684 27.982348203659058,27.60213017463684 28.311091661453247,28.302156925201416 28.311091661453247,28.302156925201416 28.597846627235413,29.030659794807434 28.597846627235413,29.030659794807434 28.832677006721497,29.776805639266968 28.832677006721497,29.776805639266968 29.015472531318665,30.539923906326294 29.015472531318665,30.539923906326294 29.14600968360901,31.318116188049316 29.14600968360901,31.318116188049316 29.22462224960327,32.11104869842529 29.22462224960327,32.11104869842529 29.250863194465637,32.917046546936035 29.250863194465637,32.917046546936035 29.224732518196106,33.72293412685394 29.224732518196106,33.72293412685394 29.146122932434082,34.51564311981201 29.146122932434082,34.51564311981201 29.015472531318665,35.29394865036011 29.015472531318665,35.29394865036011 28.83245348930359,36.056509613990784 28.83245348930359,36.056509613990784 28.597846627235413,36.8022084236145 28.597846627235413,36.8022084236145 28.311091661453247,37.53015100955963 28.311091661453247,37.53015100955963 27.981680631637573,38.23140859603882 27.981680631637573,38.23140859603882 27.61150896549225,38.90497088432312 27.61150896549225,38.90497088432312 27.201586961746216,39.54972326755524 27.201586961746216,39.54972326755524 26.752135157585144,40.164440870285034 26.752135157585144,40.164440870285034 26.264271140098572,40.748223662376404 26.264271140098572,40.748223662376404 25.73832869529724,41.299960017204285 25.73832869529724,41.299960017204285 25.181344151496887,41.81607663631439 25.181344151496887,41.81607663631439 24.59365278482437,42.29578971862793 24.59365278482437,42.29578971862793 23.97625595331192,42.738428711891174 23.97625595331192,42.738428711891174 23.32971692085266,43.14354956150055 23.32971692085266,43.14354956150055 22.655482590198517,43.511149287223816 22.655482590198517,43.511149287223816 21.95422649383545,43.84056329727173 21.95422649383545,43.84056329727173 21.36843204498291,44.07584071159363 21.36843204498291,44.07584071159363 20.772364735603333,44.277507066726685 20.772364735603333,44.277507066726685 20.167140662670135,44.4455623626709 20.167140662670135,44.4455623626709 19.55309510231018,44.57967281341553 19.55309510231018,44.57967281341553 18.931344151496887,44.679948687553406 18.931344151496887,44.679948687553406 18.30233633518219,44.746387004852295 18.30233633518219,44.746387004852295 18.30233633518219,49.339839816093445 18.30233633518219,49.339839816093445 18.26995313167572,49.58382546901703 18.26995313167572,49.58382546901703 18.177829682826996,49.80257749557495 18.177829682826996,49.80257749557495 18.03523302078247,49.98749494552612 18.03523302078247,49.98749494552612 17.849981784820557,50.13009309768677 17.849981784820557,50.13009309768677 17.631453275680542,50.22187829017639 17.631453275680542,50.22187829017639 17.387576401233673,50.25460124015808 17.387576401233673,50.25460124015808 11.91331297159195,50.25460124015808 11.91331297159195,50.25460124015808 11.66943609714508,50.22221803665161 11.66943609714508,50.22221803665161 11.450573056936264,50.13020634651184 11.450573056936264,50.13020634651184 11.265655606985092,49.98749494552612 11.265655606985092,49.98749494552612 11.122724413871765,49.80235397815704 11.122724413871765,49.80235397815704 11.030936241149902,49.583715200424194 11.030936241149902,49.583715200424194 10.998553037643433,49.339839816093445 10.998553037643433,49.339839816093445 10.998553037643433,38.39130997657776 10.998553037643433,38.39130997657776 11.03115975856781,38.148775696754456 11.03115975856781,38.148775696754456 11.122947931289673,37.93013393878937 11.122947931289673,37.93013393878937 11.265655606985092,37.74499595165253 11.265655606985092,37.74499595165253 11.450573056936264,37.601616978645325 11.450573056936264,37.601616978645325 11.669325083494186,37.50915825366974 11.669325083494186,37.50915825366974 11.91331297159195,37.47655153274536 11.91331297159195,37.47655153274536 17.387576401233673,37.47655153274536 17.387576401233673,37.47655153274536 17.70358830690384,37.466612458229065 17.70358830690384,37.466612458229065 18.01144927740097,37.43691146373749 18.01144927740097,37.43691146373749 18.3112695813179,37.38744258880615 18.3112695813179,37.38744258880615 18.602491915225983,37.31832206249237 18.602491915225983,37.31832206249237 18.885673582553864,37.23010718822479 18.885673582553864,37.23010718822479 19.159923493862152,37.12279796600342 19.159923493862152,37.12279796600342 19.426466524600983,36.995163559913635 19.426466524600983,36.995163559913635 19.682402908802032,36.85145080089569 19.682402908802032,36.85145080089569 19.927731156349182,36.692216992378235 19.927731156349182,36.692216992378235 20.162004232406616,36.51723861694336 20.162004232406616,36.51723861694336 20.384888350963593,36.32729649543762 20.384888350963593,36.32729649543762 20.596380531787872,36.12228035926819 20.596380531787872,36.12228035926819 20.798495411872864,35.90129315853119 20.798495411872864,35.90129315853119 20.98665088415146,35.66914200782776 20.98665088415146,35.66914200782776 21.160513162612915,35.42616069316864 21.160513162612915,35.42616069316864 21.319635212421417,35.172903537750244 21.319635212421417,35.172903537750244 21.46413028240204,34.909820556640625 21.46413028240204,34.909820556640625 21.593326330184937,34.637582302093506 21.593326330184937,34.637582302093506 21.701417863368988,34.36534106731415 21.701417863368988,34.36534106731415 21.789856255054474,34.08673703670502 21.789856255054474,34.08673703670502 21.858641505241394,33.802103996276855 21.858641505241394,33.802103996276855 21.907439827919006,33.511775732040405 21.907439827919006,33.511775732040405 21.93703055381775,33.21675658226013 21.93703055381775,33.21675658226013 21.947081387043,32.917046546936035 21.947081387043,32.917046546936035 21.937254071235657,32.6019287109375 21.937254071235657,32.6019287109375 21.907775104045868,32.294514775276184 21.907775104045868,32.294514775276184 21.858641505241394,31.99514150619507 21.858641505241394,31.99514150619507 21.789632737636566,31.70403242111206 21.789632737636566,31.70403242111206 21.701306104660034,31.421631574630737 21.701306104660034,31.421631574630737 21.593326330184937,31.14827573299408 21.593326330184937,31.14827573299408 21.46390676498413,30.87770938873291 21.46390676498413,30.87770938873291 21.318407356739044,30.61630129814148 21.318407356739044,30.61630129814148 21.157385408878326,30.364832282066345 21.157385408878326,30.364832282066345 20.98062038421631,30.123302340507507 20.98062038421631,30.123302340507507 20.789003372192383,29.89237904548645 20.789003372192383,29.89237904548645 20.582087337970734,29.67250943183899 20.582087337970734,29.67250943183899 20.36210745573044,29.46559488773346 20.36210745573044,29.46559488773346 20.131295919418335,29.2738676071167 20.131295919418335,29.2738676071167 19.890211522579193,29.097434878349304 19.890211522579193,29.097434878349304 19.639189541339874,28.936415910720825 19.639189541339874,28.936415910720825 19.37878578901291,28.791695833206177 19.37878578901291,28.791695833206177 19.109897315502167,28.663060069084167 19.109897315502167,28.663060069084167 18.838439881801605,28.554856777191162 18.838439881801605,28.554856777191162 18.560169637203217,28.46597135066986 18.560169637203217,28.46597135066986 18.275536596775055,28.39685082435608 18.275536596775055,28.39685082435608 17.984873056411743,28.347158432006836 17.984873056411743,28.347158432006836 17.68873631954193,28.317344188690186 17.68873631954193,28.317344188690186 17.387576401233673,28.307518362998962 17.387576401233673,28.307518362998962" stroke="white" stroke-width="0.1" /><polygon points="18.30233633518219,54.864126443862915 18.30233633518219,54.864126443862915 18.30233633518219,60.33838987350464 18.30233633518219,60.33838987350464 18.26995313167572,60.58170795440674 18.26995313167572,60.58170795440674 18.177829682826996,60.800349712371826 18.177829682826996,60.800349712371826 18.03523302078247,60.98538041114807 18.03523302078247,60.98538041114807 17.849981784820557,61.128199100494385 17.849981784820557,61.128199100494385 17.631453275680542,61.220210790634155 17.631453275680542,61.220210790634155 17.387576401233673,61.253154277801514 17.387576401233673,61.253154277801514 11.91331297159195,61.253154277801514 11.91331297159195,61.253154277801514 11.66943609714508,61.2205445766449 11.66943609714508,61.2205445766449 11.450573056936264,61.12831234931946 11.450573056936264,61.12831234931946 11.265655606985092,60.98538041114807 11.265655606985092,60.98538041114807 11.122724413871765,60.800015926361084 11.122724413871765,60.800015926361084 11.030936241149902,60.58160066604614 11.030936241149902,60.58160066604614 10.998553037643433,60.33838987350464 10.998553037643433,60.33838987350464 10.998553037643433,54.864126443862915 10.998553037643433,54.864126443862915 11.03115975856781,54.62092161178589 11.03115975856781,54.62092161178589 11.122947931289673,54.402172565460205 11.122947931289673,54.402172565460205 11.265655606985092,54.21714186668396 11.265655606985092,54.21714186668396 11.450573056936264,54.07387614250183 11.450573056936264,54.07387614250183 11.669325083494186,53.98186445236206 11.669325083494186,53.98186445236206 11.91331297159195,53.94936800003052 11.91331297159195,53.94936800003052 17.387576401233673,53.94936800003052 17.387576401233673,53.94936800003052 17.631565034389496,53.981977701187134 17.631565034389496,53.981977701187134 17.850203812122345,54.0740966796875 17.850203812122345,54.0740966796875 18.03523302078247,54.21714186668396 18.03523302078247,54.21714186668396 18.177717924118042,54.402172565460205 18.177717924118042,54.402172565460205 18.269729614257812,54.62070107460022 18.269729614257812,54.62070107460022" stroke="white" stroke-width="0.1" /></svg>