<?xml version="1.0" encoding="utf-8" ?>
<svg baseProfile="full" height="76.84108018875122" version="1.1" width="100.0" xmlns="http://www.w3.org/2000/svg" xmlns:ev="http://www.w3.org/2001/xml-events" xmlns:xlink="http://www.w3.org/1999/xlink"><defs><clipPath /></defs><polygon points="70.63836455345154,62.77858018875122 70.63836455345154,62.77858018875122 70.63836455345154,65.30839204788208 70.63836455345154,65.30839204788208 70.64119577407837,65.39978384971619 70.64119577407837,65.39978384971619 70.6486463546753,65.49193263053894 70.6486463546753,65.49193263053894 70.65918445587158,65.58478474617004 70.65918445587158,65.58478474617004 70.67113518714905,65.67821502685547 70.67113518714905,65.67821502685547 70.68334221839905,65.77216386795044 70.68334221839905,65.77216386795044 70.69387435913086,65.86657166481018 70.69387435913086,65.86657166481018 13.328537344932556,65.86657166481018 13.328537344932556,65.86657166481018 9.791581332683563,65.3854250907898 9.791581332683563,65.3854250907898 6.609529256820679,64.03829455375671 6.609529256820679,64.03829455375671 3.911133110523224,61.95273995399475 3.911133110523224,61.95273995399475 1.8243730068206787,59.25632119178772 1.8243730068206787,59.25632119178772 0.47787316143512726,56.076598167419434 0.47787316143512726,56.076598167419434 0.0,52.54111886024475 0.0,52.54111886024475 0.0,13.32545280456543 0.0,13.32545280456543 0.4781301598995924,9.789814800024033 0.4781301598995924,9.789814800024033 1.8245015293359756,6.609786301851273 1.8245015293359756,6.609786301851273 3.911133110523224,3.913060575723648 3.911133110523224,3.913060575723648 6.609401106834412,1.8273605033755302 6.609401106834412,1.8273605033755302 9.791453182697296,0.4804430529475212 9.791453182697296,0.4804430529475212 13.328537344932556,0.0 13.328537344932556,0.0 76.05469226837158,0.0 76.05469226837158,0.0 79.5931875705719,0.4804430529475212 79.5931875705719,0.4804430529475212 82.77536630630493,1.8273765221238136 82.77536630630493,1.8273765221238136 85.47402024269104,3.913060575723648 85.47402024269104,3.913060575723648 87.56129741668701,6.609786301851273 87.56129741668701,6.609786301851273 88.90997767448425,9.789814800024033 88.90997767448425,9.789814800024033 89.39247727394104,13.32545280456543 89.39247727394104,13.32545280456543 89.39247727394104,46.86061143875122 89.39247727394104,46.86061143875122 89.3139660358429,46.851375699043274 89.3139660358429,46.851375699043274 89.23622965812683,46.84016406536102 89.23622965812683,46.84016406536102 89.15913105010986,46.82861566543579 89.15913105010986,46.82861566543579 89.08177614212036,46.818336844444275 89.08177614212036,46.818336844444275 89.00416493415833,46.81097865104675 89.00416493415833,46.81097865104675 88.92578482627869,46.80818319320679 88.92578482627869,46.80818319320679 87.69737482070923,46.80818319320679 87.69737482070923,46.80818319320679 86.2500011920929,46.80818319320679 86.2500011920929,46.80818319320679 86.2500011920929,13.32545280456543 86.2500011920929,13.32545280456543 85.88173389434814,10.624213516712189 85.88173389434814,10.624213516712189 84.84863638877869,8.193343877792358 84.84863638877869,8.193343877792358 83.25054049491882,6.1308853328228 83.25054049491882,6.1308853328228 81.18588328361511,4.53486405313015 81.18588328361511,4.53486405313015 78.75437140464783,3.5033058375120163 78.75437140464783,3.5033058375120163 76.05469226837158,3.13425175845623 76.05469226837158,3.13425175845623 13.328537344932556,3.13425175845623 13.328537344932556,3.13425175845623 10.632067918777466,3.5033218562602997 10.632067918777466,3.5033218562602997 8.201069384813309,4.53486405313015 8.201069384813309,4.53486405313015 6.135768070816994,6.1308853328228 6.135768070816994,6.1308853328228 4.535875841975212,8.193327486515045 4.535875841975212,8.193327486515045 3.5018760710954666,10.624197125434875 3.5018760710954666,10.624197125434875 3.1332239508628845,13.32545280456543 3.1332239508628845,13.32545280456543 3.1332239508628845,52.54111886024475 3.1332239508628845,52.54111886024475 3.5020045936107635,55.2335262298584 3.5020045936107635,55.2335262298584 4.536004364490509,57.659369707107544 4.536004364490509,57.659369707107544 6.135768070816994,59.72052812576294 6.135768070816994,59.72052812576294 8.200812339782715,61.318808794021606 8.200812339782715,61.318808794021606 10.631810873746872,62.35615015029907 10.631810873746872,62.35615015029907 13.328537344932556,62.73437738418579 13.328537344932556,62.73437738418579 70.64042091369629,62.73437738418579 70.64042091369629,62.73437738418579 70.64029574394226,62.74136304855347 70.64029574394226,62.74136304855347 70.63990831375122,62.748801708221436 70.63990831375122,62.748801708221436 70.63939571380615,62.756478786468506 70.63939571380615,62.756478786468506 70.63875198364258,62.764137983322144 70.63875198364258,62.764137983322144 70.63849568367004,62.77157664299011 70.63849568367004,62.77157664299011" stroke="white" stroke-width="0.1" /><polygon points="48.954567313194275,37.124794721603394 48.954567313194275,37.124794721603394 48.954567313194275,42.437297105789185 48.954567313194275,42.437297105789185 48.91678988933563,42.72252321243286 48.91678988933563,42.72252321243286 48.81000816822052,42.97834038734436 48.81000816822052,42.97834038734436 48.644378781318665,43.19477379322052 48.644378781318665,43.19477379322052 48.42979311943054,43.36175322532654 48.42979311943054,43.36175322532654 48.17653000354767,43.469321727752686 48.17653000354767,43.469321727752686 47.89474010467529,43.50740313529968 47.89474010467529,43.50740313529968 41.551193594932556,43.50740313529968 41.551193594932556,43.50740313529968 41.27017557621002,43.46933662891388 41.27017557621002,43.46933662891388 41.01768136024475,43.36177110671997 41.01768136024475,43.36177110671997 40.80386757850647,43.19477379322052 40.80386757850647,43.19477379322052 40.63849449157715,42.97832548618317 40.63849449157715,42.97832548618317 40.532100200653076,42.722490429878235 40.532100200653076,42.722490429878235 40.4944509267807,42.437297105789185 40.4944509267807,42.437297105789185 40.4944509267807,29.76151406764984 40.4944509267807,29.76151406764984 40.53222835063934,29.479628801345825 40.53222835063934,29.479628801345825 40.638622641563416,29.22658920288086 40.638622641563416,29.22658920288086 40.80386757850647,29.012387990951538 40.80386757850647,29.012387990951538 41.017553210258484,28.847000002861023 41.017553210258484,28.847000002861023 41.27017557621002,28.740444779396057 41.27017557621002,28.740444779396057 41.551193594932556,28.702715039253235 41.551193594932556,28.702715039253235 47.89474010467529,28.702715039253235 47.89474010467529,28.702715039253235 48.25953543186188,28.69052290916443 48.25953543186188,28.69052290916443 48.61546754837036,28.654545545578003 48.61546754837036,28.654545545578003 48.96227717399597,28.595679998397827 48.96227717399597,28.595679998397827 49.299317598342896,28.51477563381195 49.299317598342896,28.51477563381195 49.62659478187561,28.41276526451111 49.62659478187561,28.41276526451111 49.94346499443054,28.290504217147827 49.94346499443054,28.290504217147827 50.2515971660614,28.14422845840454 50.2515971660614,28.14422845840454 50.54816007614136,27.97895073890686 50.54816007614136,27.97895073890686 50.83290934562683,27.79489755630493 50.83290934562683,27.79489755630493 51.10505819320679,27.59222984313965 51.10505819320679,27.59222984313965 51.36410593986511,27.371200919151306 51.36410593986511,27.371200919151306 51.609790325164795,27.13199257850647 51.609790325164795,27.13199257850647 51.84364914894104,26.875483989715576 51.84364914894104,26.875483989715576 52.06080675125122,26.606062054634094 52.06080675125122,26.606062054634094 52.261513471603394,26.324528455734253 52.261513471603394,26.324528455734253 52.44565010070801,26.03168785572052 52.44565010070801,26.03168785572052 52.61359214782715,25.728341937065125 52.61359214782715,25.728341937065125 52.76521444320679,25.415298342704773 52.76521444320679,25.415298342704773 52.89024114608765,25.098314881324768 52.89024114608765,25.098314881324768 52.99265384674072,24.775327742099762 52.99265384674072,24.775327742099762 53.07244658470154,24.446187913417816 53.07244658470154,24.446187913417816 53.129369020462036,24.110686779022217 53.129369020462036,24.110686779022217 53.163933753967285,23.768697679042816 53.163933753967285,23.768697679042816 53.17537188529968,23.420025408267975 53.17537188529968,23.420025408267975 53.163933753967285,23.05670529603958 53.163933753967285,23.05670529603958 53.12962532043457,22.701898217201233 53.12962532043457,22.701898217201233 53.07244658470154,22.355957329273224 53.07244658470154,22.355957329273224 52.99252271652222,22.019171714782715 52.99252271652222,22.019171714782715 52.88998484611511,21.691879630088806 52.88998484611511,21.691879630088806 52.76521444320679,21.374383568763733 52.76521444320679,21.374383568763733 52.615517377853394,21.060407161712646 52.615517377853394,21.060407161712646 52.44693160057068,20.75715810060501 52.44693160057068,20.75715810060501 52.26010084152222,20.465023815631866 52.26010084152222,20.465023815631866 52.05502510070801,20.184455811977386 52.05502510070801,20.184455811977386 51.832473278045654,19.915884733200073 51.832473278045654,19.915884733200073 51.59231424331665,19.659745693206787 51.59231424331665,19.659745693206787 51.33763551712036,19.421933591365814 51.33763551712036,19.421933591365814 51.07049345970154,19.201242923736572 51.07049345970154,19.201242923736572 50.791531801223755,18.998125195503235 50.791531801223755,18.998125195503235 50.501006841659546,18.813075125217438 50.501006841659546,18.813075125217438 50.200068950653076,18.646594882011414 50.200068950653076,18.646594882011414 49.888983368873596,18.49917769432068 49.888983368873596,18.49917769432068 49.57352578639984,18.374907970428467 49.57352578639984,18.374907970428467 49.25036132335663,18.271806836128235 49.25036132335663,18.271806836128235 48.92038702964783,18.19053292274475 48.92038702964783,18.19053292274475 48.58385920524597,18.13168227672577 48.58385920524597,18.13168227672577 48.2418030500412,18.09592843055725 48.2418030500412,18.09592843055725 47.89474010467529,18.083882331848145 47.89474010467529,18.083882331848145 41.551193594932556,18.083882331848145 41.551193594932556,18.083882331848145 41.18472635746002,18.095961213111877 41.18472635746002,18.095961213111877 40.82494080066681,18.13177913427353 40.82494080066681,18.13177913427353 40.472349524497986,18.190790712833405 40.472349524497986,18.190790712833405 40.12759625911713,18.272416293621063 40.12759625911713,18.272416293621063 39.791324734687805,18.376080691814423 39.791324734687805,18.376080691814423 39.46443498134613,18.50123405456543 39.46443498134613,18.50123405456543 39.14628028869629,18.647895753383636 39.14628028869629,18.647895753383636 38.84148895740509,18.812063336372375 38.84148895740509,18.812063336372375 38.550832867622375,18.99324208498001 38.550832867622375,18.99324208498001 38.27405571937561,19.190947711467743 38.27405571937561,19.190947711467743 38.01218271255493,19.404715299606323 38.01218271255493,19.404715299606323 37.76521682739258,19.634047150611877 37.76521682739258,19.634047150611877 37.53520846366882,19.879375398159027 37.53520846366882,19.879375398159027 37.32113540172577,20.1417475938797 37.32113540172577,20.1417475938797 37.123510241508484,20.420050621032715 37.123510241508484,20.420050621032715 36.942461133003235,20.713163912296295 36.942461133003235,20.713163912296295 36.778244376182556,21.01999521255493 36.778244376182556,21.01999521255493 36.631375551223755,21.339432895183563 36.631375551223755,21.339432895183563 36.50352358818054,21.663883328437805 36.50352358818054,21.663883328437805 36.39918565750122,21.998323500156403 36.39918565750122,21.998323500156403 36.31836175918579,22.341951727867126 36.31836175918579,22.341951727867126 36.26066744327545,22.69396483898163 36.26066744327545,22.69396483898163 36.22635900974274,23.053589463233948 36.22635900974274,23.053589463233948 36.215052008628845,23.420025408267975 36.215052008628845,23.420025408267975 36.20592653751373,23.56124222278595 36.20592653751373,23.56124222278595 36.17855906486511,23.697318136692047 36.17855906486511,23.697318136692047 36.134228110313416,23.826970160007477 36.134228110313416,23.826970160007477 36.073192954063416,23.948991298675537 36.073192954063416,23.948991298675537 35.99635362625122,24.062180519104004 35.99635362625122,24.062180519104004 35.9046071767807,24.16529655456543 35.9046071767807,24.16529655456543 35.80026924610138,24.25871342420578 35.80026924610138,24.25871342420578 35.68565249443054,24.336934089660645 35.68565249443054,24.336934089660645 35.5624258518219,24.399158358573914 35.5624258518219,24.399158358573914 35.43187379837036,24.44458156824112 35.43187379837036,24.44458156824112 35.29605269432068,24.47243183851242 35.29605269432068,24.47243183851242 35.15625298023224,24.481908977031708 35.15625298023224,24.481908977031708 28.814762830734253,24.481908977031708 28.814762830734253,24.481908977031708 28.53374481201172,24.444162845611572 28.53374481201172,24.444162845611572 28.281250596046448,24.337495863437653 28.281250596046448,24.337495863437653 28.067436814308167,24.171850085258484 28.067436814308167,24.171850085258484 27.902191877365112,23.957103490829468 27.902191877365112,23.957103490829468 27.795669436454773,23.70319664478302 27.795669436454773,23.70319664478302 27.758020162582397,23.420025408267975 27.758020162582397,23.420025408267975 27.788472175598145,22.4856898188591 27.788472175598145,22.4856898188591 27.879318594932556,21.568219363689423 27.879318594932556,21.568219363689423 28.030815720558167,20.668046176433563 28.030815720558167,20.668046176433563 28.242316842079163,19.785606861114502 28.242316842079163,19.785606861114502 28.514084219932556,18.92133355140686 28.514084219932556,18.92133355140686 28.84560227394104,18.07565838098526 28.84560227394104,18.07565838098526 29.225432872772217,17.266573011875153 29.225432872772217,17.266573011875153 29.6504944562912,16.487106680870056 29.6504944562912,16.487106680870056 30.120402574539185,15.738847851753235 30.120402574539185,15.738847851753235 30.63373863697052,15.023291110992432 30.63373863697052,15.023291110992432 31.18986487388611,14.342010021209717 31.18986487388611,14.342010021209717 31.787624955177307,13.696546852588654 31.787624955177307,13.696546852588654 32.42727220058441,13.086725771427155 32.42727220058441,13.086725771427155 33.10546875,12.520977854728699 33.10546875,12.520977854728699 33.8211864233017,11.99989765882492 33.8211864233017,11.99989765882492 34.57339704036713,11.524048447608948 34.57339704036713,11.524048447608948 35.361072421073914,11.093991249799728 35.361072421073914,11.093991249799728 36.18318438529968,10.710321366786957 36.18318438529968,10.710321366786957 37.035876512527466,10.381694883108139 37.035876512527466,10.381694883108139 37.9065603017807,10.110827535390854 37.9065603017807,10.110827535390854 38.79471719264984,9.89861786365509 38.79471719264984,9.89861786365509 39.69880938529968,9.74593386054039 39.69880938529968,9.74593386054039 40.618062019348145,9.653674066066742 40.618062019348145,9.653674066066742 41.551193594932556,9.622739255428314 41.551193594932556,9.622739255428314 47.89474010467529,9.622739255428314 47.89474010467529,9.622739255428314 48.82722795009613,9.653738141059875 48.82722795009613,9.653738141059875 49.74455535411835,9.746254980564117 49.74455535411835,9.746254980564117 50.64556002616882,9.899646043777466 50.64556002616882,9.899646043777466 51.528578996658325,10.113252699375153 51.528578996658325,10.113252699375153 52.392578125,10.386449098587036 52.392578125,10.386449098587036 53.23601961135864,10.718544572591782 53.23601961135864,10.718544572591782 54.04926538467407,11.099179089069366 54.04926538467407,11.099179089069366 54.830002784729004,11.527854949235916 54.830002784729004,11.527854949235916 55.57720065116882,12.003238499164581 55.57720065116882,12.003238499164581 56.2891960144043,12.524013221263885 56.2891960144043,12.524013221263885 56.965333223342896,13.08889389038086 56.965333223342896,13.08889389038086 57.60382413864136,13.696546852588654 57.60382413864136,13.696546852588654 58.20029973983765,14.34202492237091 58.20029973983765,14.34202492237091 58.75539779663086,15.023291110992432 58.75539779663086,15.023291110992432 59.2684805393219,15.738847851753235 59.2684805393219,15.738847851753235 59.73851680755615,16.487106680870056 59.73851680755615,16.487106680870056 60.16498804092407,17.26655662059784 60.16498804092407,17.26655662059784 60.546875,18.07565838098526 60.546875,18.07565838098526 60.877496004104614,18.917059898376465 60.877496004104614,18.917059898376465 61.148494482040405,19.780129194259644 61.148494482040405,19.780129194259644 61.359864473342896,20.663420855998993 61.359864473342896,20.663420855998993 61.510974168777466,21.565456688404083 61.510974168777466,21.565456688404083 61.601948738098145,22.48482257127762 61.601948738098145,22.48482257127762 61.63240671157837,23.420025408267975 61.63240671157837,23.420025408267975 61.60207986831665,24.354232847690582 61.60207986831665,24.354232847690582 61.51110529899597,25.27347207069397 61.51110529899597,25.27347207069397 61.359864473342896,26.175987720489502 61.359864473342896,26.175987720489502 61.148494482040405,27.05998718738556 61.148494482040405,27.05998718738556 60.87736487388611,27.9237300157547 60.87736487388611,27.9237300157547 60.546875,28.765422105789185 60.546875,28.765422105789185 60.163575410842896,29.577943682670593 60.163575410842896,29.577943682670593 59.734272956848145,30.35837411880493 59.734272956848145,30.35837411880493 59.25961136817932,31.10518753528595 59.25961136817932,31.10518753528595 58.73972177505493,31.81677758693695 58.73972177505493,31.81677758693695 58.17537307739258,32.491618394851685 58.17537307739258,32.491618394851685 57.566821575164795,33.12808573246002 57.566821575164795,33.12808573246002 56.91869258880615,33.72574746608734 56.91869258880615,33.72574746608734 56.23638033866882,34.28168296813965 56.23638033866882,34.28168296813965 55.52104711532593,34.795308113098145 55.52104711532593,34.795308113098145 54.77282404899597,35.266003012657166 54.77282404899597,35.266003012657166 53.99285554885864,35.693201422691345 53.99285554885864,35.693201422691345 53.181540966033936,36.07627749443054 53.181540966033936,36.07627749443054 52.50359773635864,36.34797930717468 52.50359773635864,36.34797930717468 51.81384086608887,36.581116914749146 51.81384086608887,36.581116914749146 51.113152503967285,36.77554726600647 51.113152503967285,36.77554726600647 50.40231943130493,36.9310736656189 50.40231943130493,36.9310736656189 49.68249201774597,37.04753816127777 49.68249201774597,37.04753816127777" stroke="white" stroke-width="0.1" /><polygon points="47.89474010467529,47.78474569320679 47.89474010467529,47.78474569320679 48.1767863035202,47.82218635082245 48.1767863035202,47.82218635082245 48.42992126941681,47.92805016040802 48.42992126941681,47.92805016040802 48.644378781318665,48.09262156486511 48.644378781318665,48.09262156486511 48.809751868247986,48.30617904663086 48.809751868247986,48.30617904663086 48.91665875911713,48.55904281139374 48.91665875911713,48.55904281139374 48.954567313194275,48.84149134159088 48.954567313194275,48.84149134159088 48.954567313194275,55.17783761024475 48.954567313194275,55.17783761024475 48.91678988933563,55.46030402183533 48.91678988933563,55.46030402183533 48.81000816822052,55.714017152786255 48.81000816822052,55.714017152786255 48.644378781318665,55.92889189720154 48.644378781318665,55.92889189720154 48.42979311943054,56.09484314918518 48.42979311943054,56.09484314918518 48.17653000354767,56.201815605163574 48.17653000354767,56.201815605163574 47.89474010467529,56.23972415924072 47.89474010467529,56.23972415924072 41.551193594932556,56.23972415924072 41.551193594932556,56.23972415924072 41.27017557621002,56.201815605163574 41.27017557621002,56.201815605163574 41.01768136024475,56.09484314918518 41.01768136024475,56.09484314918518 40.80386757850647,55.92889189720154 40.80386757850647,55.92889189720154 40.63849449157715,55.71399927139282 40.63849449157715,55.71399927139282 40.532100200653076,55.460286140441895 40.532100200653076,55.460286140441895 40.4944509267807,55.17783761024475 40.4944509267807,55.17783761024475 40.4944509267807,48.84149134159088 40.4944509267807,48.84149134159088 40.53222835063934,48.55905771255493 40.53222835063934,48.55905771255493 40.638622641563416,48.30617904663086 40.638622641563416,48.30617904663086 40.80386757850647,48.09262156486511 40.80386757850647,48.09262156486511 41.017553210258484,47.92805016040802 41.017553210258484,47.92805016040802 41.27017557621002,47.822171449661255 41.27017557621002,47.822171449661255 41.551193594932556,47.78474569320679 41.551193594932556,47.78474569320679" stroke="white" stroke-width="0.1" /><polygon points="99.54462051391602,61.68174743652344 99.54462051391602,61.68174743652344 99.67774152755737,61.83552145957947 99.67774152755737,61.83552145957947 99.78965520858765,62.004268169403076 99.78965520858765,62.004268169403076 99.87947344779968,62.18544840812683 99.87947344779968,62.18544840812683 99.94539618492126,62.37655282020569 99.94539618492126,62.37655282020569 99.98599886894226,62.57510781288147 99.98599886894226,62.57510781288147 100.0,62.77858018875122 100.0,62.77858018875122 100.0,65.30839204788208 100.0,65.30839204788208 99.98612403869629,65.5093252658844 99.98612403869629,65.5093252658844 99.94539618492126,65.70624113082886 99.94539618492126,65.70624113082886 99.87947344779968,65.89638590812683 99.87947344779968,65.89638590812683 99.78953003883362,66.07692241668701 99.78953003883362,66.07692241668701 99.67735409736633,66.24505519866943 99.67735409736633,66.24505519866943 99.54462051391602,66.39803051948547 99.54462051391602,66.39803051948547 99.39171075820923,66.53363704681396 99.39171075820923,66.53363704681396 99.22325015068054,66.64682626724243 99.22325015068054,66.64682626724243 99.0422010421753,66.73661470413208 99.0422010421753,66.73661470413208 98.85087013244629,66.80195331573486 98.85087013244629,66.80195331573486 98.65221977233887,66.84191823005676 98.65221977233887,66.84191823005676 98.44881296157837,66.85547232627869 98.44881296157837,66.85547232627869 90.47080874443054,66.85547232627869 90.47080874443054,66.85547232627869 90.47080874443054,75.30222535133362 90.47080874443054,75.30222535133362 90.45732021331787,75.50371885299683 90.45732021331787,75.50371885299683 90.41748642921448,75.70046186447144 90.41748642921448,75.70046186447144 90.352463722229,75.88996291160583 90.352463722229,75.88996291160583 90.26316404342651,76.06967687606812 90.26316404342651,76.06967687606812 90.15111327171326,76.23713612556458 90.15111327171326,76.23713612556458 90.01747965812683,76.38980746269226 90.01747965812683,76.38980746269226 89.86443877220154,76.52318477630615 89.86443877220154,76.52318477630615 89.6957278251648,76.63471698760986 89.6957278251648,76.63471698760986 89.51480388641357,76.72337889671326 89.51480388641357,76.72337889671326 89.32399153709412,76.78802609443665 89.32399153709412,76.78802609443665 89.12675380706787,76.82763934135437 89.12675380706787,76.82763934135437 88.92578482627869,76.84108018875122 88.92578482627869,76.84108018875122 86.22430562973022,76.84108018875122 86.22430562973022,76.84108018875122 86.02243661880493,76.82765126228333 86.02243661880493,76.82765126228333 85.82468628883362,76.78804397583008 85.82468628883362,76.78804397583008 85.63386797904968,76.72337889671326 85.63386797904968,76.72337889671326 85.4525625705719,76.63471698760986 85.4525625705719,76.63471698760986 85.28397679328918,76.52316689491272 85.28397679328918,76.52316689491272 85.13055443763733,76.38980746269226 85.13055443763733,76.38980746269226 84.99846458435059,76.23715400695801 84.99846458435059,76.23715400695801 84.88743901252747,76.06969475746155 84.88743901252747,76.06969475746155 84.79916453361511,75.88996291160583 84.79916453361511,75.88996291160583 84.73427295684814,75.700443983078 84.73427295684814,75.700443983078 84.69470143318176,75.50371885299683 84.69470143318176,75.50371885299683 84.68133807182312,75.30222535133362 84.68133807182312,75.30222535133362 84.68133807182312,69.94655132293701 84.68133807182312,69.94655132293701 84.68133807182312,66.85547232627869 84.68133807182312,66.85547232627869 76.69922113418579,66.85547232627869 76.69922113418579,66.85547232627869 76.497483253479,66.84193015098572 76.497483253479,66.84193015098572 76.29960179328918,66.80198311805725 76.29960179328918,66.80198311805725 76.10865831375122,66.73661470413208 76.10865831375122,66.73661470413208 75.92670917510986,66.64682626724243 75.92670917510986,66.64682626724243 75.75684189796448,66.53362512588501 75.75684189796448,66.53362512588501 75.6013572216034,66.39803051948547 75.6013572216034,66.39803051948547 75.52965879440308,66.32011532783508 75.52965879440308,66.32011532783508 75.46464204788208,66.2369430065155 75.46464204788208,66.2369430065155 75.40578842163086,66.1492645740509 75.40578842163086,66.1492645740509 75.35272240638733,66.05780720710754 75.35272240638733,66.05780720710754 75.30569434165955,65.96331596374512 75.30569434165955,65.96331596374512 75.26419162750244,65.86657166481018 75.26419162750244,65.86657166481018 75.23283362388611,65.77468514442444 75.23283362388611,65.77468514442444 75.2059817314148,65.68211913108826 75.2059817314148,65.68211913108826 75.18413662910461,65.58902263641357 75.18413662910461,65.58902263641357 75.16769170761108,65.49557447433472 75.16769170761108,65.49557447433472 75.15754103660583,65.4019832611084 75.15754103660583,65.4019832611084 75.15419721603394,65.30839204788208 75.15419721603394,65.30839204788208 75.15419721603394,62.77858018875122 75.15419721603394,62.77858018875122 75.154709815979,62.771594524383545 75.154709815979,62.771594524383545 75.15574097633362,62.764155864715576 75.15574097633362,62.764155864715576 75.15727877616882,62.756478786468506 75.15727877616882,62.756478786468506 75.15856623649597,62.748801708221436 75.15856623649597,62.748801708221436 75.15972256660461,62.74135112762451 75.15972256660461,62.74135112762451 75.16036629676819,62.73437738418579 75.16036629676819,62.73437738418579 75.17874240875244,62.53954768180847 75.17874240875244,62.53954768180847 75.21973252296448,62.34930753707886 75.21973252296448,62.34930753707886 75.2833366394043,62.166041135787964 75.2833366394043,62.166041135787964 75.36826729774475,61.992090940475464 75.36826729774475,61.992090940475464 75.47466158866882,61.829882860183716 75.47466158866882,61.829882860183716 75.6013572216034,61.68174743652344 75.6013572216034,61.68174743652344 75.7569670677185,61.55052185058594 75.7569670677185,61.55052185058594 75.9269654750824,61.43956780433655 75.9269654750824,61.43956780433655 76.10865831375122,61.35048866271973 76.10865831375122,61.35048866271973 76.29947662353516,61.28487586975098 76.29947662353516,61.28487586975098 76.49735808372498,61.24431490898132 76.49735808372498,61.24431490898132 76.69922113418579,61.23046875 76.69922113418579,61.23046875 81.31271004676819,61.23046875 81.31271004676819,61.23046875 84.68133807182312,61.23046875 84.68133807182312,61.23046875 84.68133807182312,57.913243770599365 84.68133807182312,57.913243770599365 84.68133807182312,52.87109613418579 84.68133807182312,52.87109613418579 84.6949577331543,52.66966223716736 84.6949577331543,52.66966223716736 84.73453521728516,52.47224569320679 84.73453521728516,52.47224569320679 84.79916453361511,52.28168964385986 84.79916453361511,52.28168964385986 84.88718271255493,52.10080146789551 84.88718271255493,52.10080146789551 84.99833345413208,51.93244218826294 84.99833345413208,51.93244218826294 85.13055443763733,51.77940130233765 85.13055443763733,51.77940130233765 85.28410792350769,51.64557695388794 85.28410792350769,51.64557695388794 85.4526937007904,51.53288245201111 85.4526937007904,51.53288245201111 85.63386797904968,51.442742347717285 85.63386797904968,51.442742347717285 85.82455515861511,51.37658715248108 85.82455515861511,51.37658715248108 86.02243661880493,51.335835456848145 86.02243661880493,51.335835456848145 86.22430562973022,51.321959495544434 86.22430562973022,51.321959495544434 86.2500011920929,51.321959495544434 86.2500011920929,51.321959495544434 87.69737482070923,51.321959495544434 87.69737482070923,51.321959495544434 88.92578482627869,51.321959495544434 88.92578482627869,51.321959495544434 89.0049397945404,51.325541734695435 89.0049397945404,51.325541734695435 89.08370733261108,51.33554935455322 89.08370733261108,51.33554935455322 89.16221857070923,51.350873708724976 89.16221857070923,51.350873708724976 89.23982977867126,51.370370388031006 89.23982977867126,51.370370388031006 89.31666612625122,51.392966508865356 89.31666612625122,51.392966508865356 89.39247727394104,51.41755938529968 89.39247727394104,51.41755938529968 89.50722813606262,51.45806670188904 89.50722813606262,51.45806670188904 89.61862921714783,51.505881547927856 89.61862921714783,51.505881547927856 89.72617983818054,51.56147480010986 89.72617983818054,51.56147480010986 89.82871770858765,51.625269651412964 89.82871770858765,51.625269651412964 89.92611765861511,51.697760820388794 89.92611765861511,51.697760820388794 90.01747965812683,51.77940130233765 90.01747965812683,51.77940130233765 90.15136957168579,51.93244218826294 90.15136957168579,51.93244218826294 90.26342034339905,52.10080146789551 90.26342034339905,52.10080146789551 90.352463722229,52.28168964385986 90.352463722229,52.28168964385986 90.41735529899597,52.47224569320679 90.41735529899597,52.47224569320679 90.45718908309937,52.6696503162384 90.45718908309937,52.6696503162384 90.47080874443054,52.87109613418579 90.47080874443054,52.87109613418579 90.47080874443054,58.18873643875122 90.47080874443054,58.18873643875122 90.47080874443054,61.23046875 90.47080874443054,61.23046875 91.54091477394104,61.23046875 91.54091477394104,61.23046875 98.44881296157837,61.23046875 98.44881296157837,61.23046875 98.6524760723114,61.24435067176819 98.6524760723114,61.24435067176819 98.8510012626648,61.28487586975098 98.8510012626648,61.28487586975098 99.0422010421753,61.35048866271973 99.0422010421753,61.35048866271973 99.22325015068054,61.439549922943115 99.22325015068054,61.439549922943115 99.39171075820923,61.550503969192505 99.39171075820923,61.550503969192505" stroke="white" stroke-width="0.1" /></svg>