<?xml version="1.0" encoding="utf-8" ?>
<svg baseProfile="full" height="92.85742044448853" version="1.1" width="85.50195097923279" xmlns="http://www.w3.org/2000/svg" xmlns:ev="http://www.w3.org/2001/xml-events" xmlns:xlink="http://www.w3.org/1999/xlink"><defs><clipPath /></defs><polygon points="57.142579555511475,92.85742044448853 57.142579555511475,92.85742044448853 57.142579555511475,56.09374642372131 57.142579555511475,56.09374642372131 47.42187261581421,56.09374642372131 47.42187261581421,56.09374642372131 47.42187261581421,42.857420444488525 47.42187261581421,42.857420444488525 57.142579555511475,42.857420444488525 57.142579555511475,42.857420444488525 57.142579555511475,31.552734971046448 57.142579555511475,31.552734971046448 57.62890577316284,27.20526158809662 57.62890577316284,27.20526158809662 59.12109017372131,23.18539321422577 59.12109017372131,23.18539321422577 61.66747808456421,19.69946175813675 61.66747808456421,19.69946175813675 65.31615853309631,16.95391833782196 65.31615853309631,16.95391833782196 70.11620998382568,15.155212581157684 70.11620998382568,15.155212581157684 76.11523270606995,14.509765803813934 76.11523270606995,14.509765803813934 78.66552472114563,14.547668397426605 78.66552472114563,14.547668397426605 80.91186285018921,14.642409980297089 80.91186285018921,14.642409980297089 82.783442735672,14.765624701976776 82.783442735672,14.765624701976776 84.20825004577637,14.888808131217957 84.20825004577637,14.888808131217957 85.11547446250916,14.98359590768814 85.11547446250916,14.98359590768814 85.43359041213989,15.021483600139618 85.43359041213989,15.021483600139618 85.121089220047,27.382811903953552 85.121089220047,27.382811903953552 84.80151295661926,27.379882335662842 84.80151295661926,27.379882335662842 83.91039967536926,27.372679114341736 83.91039967536926,27.372679114341736 82.55053758621216,27.363279461860657 82.55053758621216,27.363279461860657 80.82299828529358,27.353879809379578 80.82299828529358,27.353879809379578 78.83031964302063,27.346649765968323 78.83031964302063,27.346649765968323 76.673823595047,27.34375 76.673823595047,27.34375 74.60693120956421,27.523529529571533 74.60693120956421,27.523529529571533 73.11742901802063,28.049102425575256 73.11742901802063,28.049102425575256 72.11596369743347,28.899657726287842 72.11596369743347,28.899657726287842 71.51196002960205,30.054381489753723 71.51196002960205,30.054381489753723 71.21557593345642,31.492552161216736 71.21557593345642,31.492552161216736 71.13671898841858,33.19335877895355 71.13671898841858,33.19335877895355 71.13671898841858,33.81182849407196 71.13671898841858,33.81182849407196 71.136474609375,33.46533179283142 71.136474609375,33.46533179283142 71.13671898841858,33.17529261112213 71.13671898841858,33.17529261112213 71.13671898841858,33.96304249763489 71.13671898841858,33.96304249763489 71.13671898841858,36.8499755859375 71.13671898841858,36.8499755859375 71.13671898841858,42.857420444488525 71.13671898841858,42.857420444488525 85.50195097923279,42.857420444488525 85.50195097923279,42.857420444488525 84.876948595047,56.09374642372131 84.876948595047,56.09374642372131 71.13671898841858,56.09374642372131 71.13671898841858,56.09374642372131 71.13671898841858,92.85742044448853 71.13671898841858,92.85742044448853" stroke="white" stroke-width="0.1" /></svg>