<?xml version="1.0" encoding="utf-8" ?>
<svg baseProfile="full" height="81.94746971130371" version="1.1" width="99.93401169776917" xmlns="http://www.w3.org/2000/svg" xmlns:ev="http://www.w3.org/2001/xml-events" xmlns:xlink="http://www.w3.org/1999/xlink"><defs><clipPath /></defs><polygon points="49.99999701976776,81.94746971130371 49.99999701976776,81.94746971130371 29.18975055217743,65.95505475997925 29.18975055217743,65.95505475997925 14.99323695898056,52.18839645385742 14.99323695898056,52.18839645385742 6.209100037813187,40.6454473733902 6.209100037813187,40.6454473733902 1.6332561150193214,31.323617696762085 1.6332561150193214,31.323617696762085 0.0654393108561635,24.22099858522415 0.0654393108561635,24.22099858522415 0.3010208485648036,19.33513581752777 0.3010208485648036,19.33513581752777 2.2532936185598373,14.04559463262558 2.2532936185598373,14.04559463262558 5.537256598472595,9.595312178134918 5.537256598472595,9.595312178134918 9.635938704013824,5.990969017148018 9.635938704013824,5.990969017148018 14.026372134685516,3.2392460852861404 14.026372134685516,3.2392460852861404 18.191038072109222,1.3476409018039703 18.191038072109222,1.3476409018039703 21.608060598373413,0.32283393666148186 21.608060598373413,0.32283393666148186 22.113579511642456,0.226174620911479 22.113579511642456,0.226174620911479 22.618553042411804,0.1458751386962831 22.618553042411804,0.1458751386962831 23.122981190681458,0.08288979879580438 23.122981190681458,0.08288979879580438 23.624682426452637,0.037082278868183494 23.624682426452637,0.037082278868183494 24.123112857341766,0.009406901517650113 24.123112857341766,0.009406901517650113 24.618269503116608,0.0 24.618269503116608,0.0 28.37885022163391,0.49952007830142975 28.37885022163391,0.49952007830142975 31.84604048728943,1.8078973516821861 31.84604048728943,1.8078973516821861 34.9435031414032,3.6384258419275284 34.9435031414032,3.6384258419275284 37.594884634017944,5.704399570822716 37.594884634017944,5.704399570822716 39.724934101104736,7.719384878873825 39.724934101104736,7.719384878873825 41.257306933403015,9.397085756063461 41.257306933403015,9.397085756063461 49.99999701976776,19.640518724918365 49.99999701976776,19.640518724918365 58.742690086364746,9.397085756063461 58.742690086364746,9.397085756063461 60.2739691734314,7.719384878873825 60.2739691734314,7.719384878873825 62.4029278755188,5.704126879572868 62.4029278755188,5.704126879572868 65.05321860313416,3.6384258419275284 65.05321860313416,3.6384258419275284 68.14959049224854,1.8080336973071098 68.14959049224854,1.8080336973071098 71.61787748336792,0.49979276955127716 71.61787748336792,0.49979276955127716 75.38172602653503,0.0 75.38172602653503,0.0 75.87579488754272,0.009134237188845873 75.87579488754272,0.009134237188845873 76.3731300830841,0.037082278868183494 76.3731300830841,0.037082278868183494 76.87265276908875,0.08288979879580438 76.87265276908875,0.08288979879580438 77.37435102462769,0.14601147267967463 77.37435102462769,0.14601147267967463 77.87823677062988,0.2263109665364027 77.87823677062988,0.2263109665364027 78.38320732116699,0.32283393666148186 78.38320732116699,0.32283393666148186 81.80404901504517,1.347368210554123 81.80404901504517,1.347368210554123 85.96980571746826,3.2391097396612167 85.96980571746826,3.2391097396612167 90.36296606063843,5.990969017148018 90.36296606063843,5.990969017148018 94.46164965629578,9.595584869384766 94.46164965629578,9.595584869384766 97.74724841117859,14.046002924442291 97.74724841117859,14.046002924442291 99.69897270202637,19.33513581752777 99.69897270202637,19.33513581752777 99.93401169776917,24.220725893974304 99.93401169776917,24.220725893974304 98.36564660072327,31.3234806060791 98.36564660072327,31.3234806060791 93.7908947467804,40.6454473733902 93.7908947467804,40.6454473733902 85.00621318817139,52.188533544540405 85.00621318817139,52.188533544540405 70.81024646759033,65.95519185066223 70.81024646759033,65.95519185066223" stroke="white" stroke-width="0.1" /></svg>