<?xml version="1.0" encoding="utf-8" ?>
<svg baseProfile="full" height="100.0" version="1.1" width="89.57053422927856" xmlns="http://www.w3.org/2000/svg" xmlns:ev="http://www.w3.org/2001/xml-events" xmlns:xlink="http://www.w3.org/1999/xlink"><defs><clipPath /></defs><polygon points="89.11104798316956,33.82239043712616 89.11104798316956,33.82239043712616 89.18895721435547,37.9551500082016 89.18895721435547,37.9551500082016 89.26558494567871,42.08727180957794 89.26558494567871,42.08727180957794 89.34164643287659,46.21889293193817 89.34164643287659,46.21889293193817 89.41727876663208,50.35012364387512 89.41727876663208,50.35012364387512 89.49348330497742,54.48108911514282 89.49348330497742,54.48108911514282 89.57053422927856,58.61198306083679 89.57053422927856,58.61198306083679 89.5588755607605,59.54119563102722 89.5588755607605,59.54119563102722 89.46817517280579,60.442256927490234 89.46817517280579,60.442256927490234 89.26913738250732,61.303794384002686 89.26913738250732,61.303794384002686 88.93277049064636,62.11429834365845 88.93277049064636,62.11429834365845 88.4302020072937,62.86243796348572 88.4302020072937,62.86243796348572 87.73258328437805,63.536691665649414 87.73258328437805,63.536691665649414 86.84687614440918,64.07955884933472 86.84687614440918,64.07955884933472 85.89178919792175,64.40391540527344 85.89178919792175,64.40391540527344 84.8886489868164,64.56314325332642 84.8886489868164,64.56314325332642 83.85835886001587,64.61048722267151 83.85835886001587,64.61048722267151 82.82251954078674,64.59935903549194 82.82251954078674,64.59935903549194 81.80246353149414,64.58304524421692 81.80246353149414,64.58304524421692 80.52067756652832,64.58208560943604 80.52067756652832,64.58208560943604 79.23831939697266,64.58144783973694 79.23831939697266,64.58144783973694 77.95624732971191,64.58105444908142 77.95624732971191,64.58105444908142 76.67402625083923,64.5808458328247 76.67402625083923,64.5808458328247 75.39252638816833,64.58077430725098 75.39252638816833,64.58077430725098 74.11172986030579,64.58077430725098 74.11172986030579,64.58077430725098 73.1532335281372,64.56328630447388 73.1532335281372,64.56328630447388 72.21406698226929,64.48861360549927 72.21406698226929,64.48861360549927 71.31016254425049,64.33027386665344 71.31016254425049,64.33027386665344 70.45672535896301,64.0617847442627 70.45672535896301,64.0617847442627 69.66954469680786,63.656747341156006 69.66954469680786,63.656747341156006 68.96410584449768,63.08857202529907 68.96410584449768,63.08857202529907 68.80032420158386,62.91690468788147 68.80032420158386,62.91690468788147 68.64365935325623,62.733542919158936 68.64365935325623,62.733542919158936 68.4938132762909,62.53781318664551 68.4938132762909,62.53781318664551 68.35107207298279,62.32895255088806 68.35107207298279,62.32895255088806 68.21587085723877,62.10638880729675 68.21587085723877,62.10638880729675 68.08834671974182,61.869341135025024 68.08834671974182,61.869341135025024 67.807137966156,61.16974949836731 67.807137966156,61.16974949836731 67.63625144958496,60.443514585494995 67.63625144958496,60.443514585494995 67.54867434501648,59.69899892807007 67.54867434501648,59.69899892807007 67.51654744148254,58.94440412521362 67.51654744148254,58.94440412521362 67.51313209533691,58.188068866729736 67.51313209533691,58.188068866729736 67.51057505607605,57.43824243545532 67.51057505607605,57.43824243545532 67.50574111938477,57.31363296508789 67.50574111938477,57.31363296508789 67.49692559242249,57.2094202041626 67.49692559242249,57.2094202041626 67.48413443565369,57.124048471450806 67.48413443565369,57.124048471450806 67.46650338172913,57.055896520614624 67.46650338172913,57.055896520614624 67.44347214698792,57.003456354141235 67.44347214698792,57.003456354141235 67.41504073143005,56.96510672569275 67.41504073143005,56.96510672569275 67.35661029815674,56.92766308784485 67.35661029815674,56.92766308784485 67.27926731109619,56.91118836402893 67.27926731109619,56.91118836402893 67.1801745891571,56.90937638282776 67.1801745891571,56.90937638282776 67.05634593963623,56.915879249572754 67.05634593963623,56.915879249572754 66.90508127212524,56.92444443702698 66.90508127212524,56.92444443702698 66.72353148460388,56.928712129592896 66.72353148460388,56.928712129592896 65.42795300483704,56.9271445274353 65.42795300483704,56.9271445274353 64.12981748580933,56.926774978637695 64.12981748580933,56.926774978637695 62.83039450645447,56.927287578582764 62.83039450645447,56.927287578582764 61.52998208999634,56.92835450172424 61.52998208999634,56.92835450172424 60.22971272468567,56.92968964576721 60.22971272468567,56.92968964576721 58.93043875694275,56.93098306655884 58.93043875694275,56.93098306655884 56.53689503669739,56.93020224571228 56.53689503669739,56.93020224571228 54.142212867736816,56.929969787597656 54.142212867736816,56.929969787597656 51.74724459648132,56.93013072013855 51.74724459648132,56.93013072013855 49.35227930545807,56.93045258522034 49.35227930545807,56.93045258522034 46.958452463150024,56.930822134017944 46.958452463150024,56.930822134017944 44.56576108932495,56.93098306655884 44.56576108932495,56.93098306655884 40.78749716281891,56.93098306655884 40.78749716281891,56.93098306655884 32.98530578613281,49.12651777267456 32.98530578613281,49.12651777267456 32.41066038608551,48.62470030784607 32.41066038608551,48.62470030784607 31.784695386886597,48.20997714996338 31.784695386886597,48.20997714996338 31.1169296503067,47.884249687194824 31.1169296503067,47.884249687194824 30.416467785835266,47.64930009841919 30.416467785835266,47.64930009841919 29.693540930747986,47.506991028785706 29.693540930747986,47.506991028785706 28.95682454109192,47.45916724205017 28.95682454109192,47.45916724205017 28.589177131652832,47.47098684310913 28.589177131652832,47.47098684310913 28.221815824508667,47.50659763813019 28.221815824508667,47.50659763813019 27.855876088142395,47.56636321544647 27.855876088142395,47.56636321544647 27.491924166679382,47.65056073665619 27.491924166679382,47.65056073665619 27.13138461112976,47.75955080986023 27.13138461112976,47.75955080986023 26.77539587020874,47.89363443851471 26.77539587020874,47.89363443851471 26.736727356910706,47.909751534461975 26.736727356910706,47.909751534461975 26.698055863380432,47.92622625827789 26.698055863380432,47.92622625827789 26.659387350082397,47.94310927391052 26.659387350082397,47.94310927391052 26.620715856552124,47.960346937179565 26.620715856552124,47.960346937179565 26.58190429210663,47.977957129478455 26.58190429210663,47.977957129478455 26.543378829956055,47.99599647521973 26.543378829956055,47.99599647521973 26.543378829956055,36.06523871421814 26.543378829956055,36.06523871421814 26.610055565834045,36.06671094894409 26.610055565834045,36.06671094894409 26.67715847492218,36.06861233711243 26.67715847492218,36.06861233711243 26.74468755722046,36.07063889503479 26.74468755722046,36.07063889503479 26.810938119888306,36.07245087623596 26.810938119888306,36.07245087623596 26.876193284988403,36.073821783065796 26.876193284988403,36.073821783065796 26.93917453289032,36.0743373632431 26.93917453289032,36.0743373632431 33.540329337120056,36.0743373632431 33.540329337120056,36.0743373632431 38.72321546077728,36.07465624809265 38.72321546077728,36.07465624809265 43.90609860420227,36.075347661972046 43.90609860420227,36.075347661972046 49.088701605796814,36.07604205608368 49.088701605796814,36.07604205608368 54.271018505096436,36.076343059539795 54.271018505096436,36.076343059539795 59.45318937301636,36.07589900493622 59.45318937301636,36.07589900493622 64.63536620140076,36.0743373632431 64.63536620140076,36.0743373632431 65.72408676147461,35.855165123939514 65.72408676147461,35.855165123939514 66.28551483154297,35.278621315956116 66.28551483154297,35.278621315956116 66.44516587257385,34.45930480957031 66.44516587257385,34.45930480957031 66.32887125015259,33.511823415756226 66.32887125015259,33.511823415756226 66.06287360191345,32.55085647106171 66.06287360191345,32.55085647106171 65.77271223068237,31.6910058259964 65.77271223068237,31.6910058259964 65.6134843826294,31.26695156097412 65.6134843826294,31.26695156097412 65.43022990226746,30.855178833007812 65.43022990226746,30.855178833007812 65.22251963615417,30.460113286972046 65.22251963615417,30.460113286972046 64.9889349937439,30.08606731891632 64.9889349937439,30.08606731891632 64.72919583320618,29.737436771392822 64.72919583320618,29.737436771392822 64.44201469421387,29.418587684631348 64.44201469421387,29.418587684631348 64.11019563674927,29.122239351272583 64.11019563674927,29.122239351272583 63.746386766433716,28.868964314460754 63.746386766433716,28.868964314460754 63.3490264415741,28.663960099220276 63.3490264415741,28.663960099220276 62.916409969329834,28.51240634918213 62.916409969329834,28.51240634918213 62.448251247406006,28.419500589370728 62.448251247406006,28.419500589370728 61.94213032722473,28.39042842388153 61.94213032722473,28.39042842388153 60.99230647087097,28.386765718460083 60.99230647087097,28.386765718460083 60.04233360290527,28.384527564048767 60.04233360290527,28.384527564048767 59.09222364425659,28.383317589759827 59.09222364425659,28.383317589759827 58.14211368560791,28.382661938667297 58.14211368560791,28.382661938667297 57.19285607337952,28.38214635848999 57.19285607337952,28.38214635848999 56.244027614593506,28.381329774856567 56.244027614593506,28.381329774856567 33.94067585468292,28.381329774856567 33.94067585468292,28.381329774856567 33.032503724098206,28.381505608558655 33.032503724098206,28.381505608558655 32.125186920166016,28.381913900375366 32.125186920166016,28.381913900375366 31.21843934059143,28.38246524333954 31.21843934059143,28.38246524333954 30.31197190284729,28.38299870491028 30.31197190284729,28.38299870491028 29.405933618545532,28.383424878120422 29.405933618545532,28.383424878120422 28.49961221218109,28.38360369205475 28.49961221218109,28.38360369205475 28.116610646247864,28.397783637046814 28.116610646247864,28.397783637046814 27.75806188583374,28.439369797706604 27.75806188583374,28.439369797706604 27.42283046245575,28.50700616836548 27.42283046245575,28.50700616836548 27.109774947166443,28.599253296852112 27.109774947166443,28.599253296852112 26.817762851715088,28.714802861213684 26.817762851715088,28.714802861213684 26.545652747154236,28.85218858718872 26.545652747154236,28.85218858718872 26.54593586921692,28.318259119987488 26.54593586921692,28.318259119987488 26.54622197151184,27.85925269126892 26.54622197151184,27.85925269126892 26.546791195869446,27.479982376098633 26.546791195869446,27.479982376098633 26.54721736907959,27.18523144721985 26.54721736907959,27.18523144721985 26.547500491142273,26.97988748550415 26.547500491142273,26.97988748550415 26.547926664352417,26.868659257888794 26.547926664352417,26.868659257888794 26.503711938858032,26.114508509635925 26.503711938858032,26.114508509635925 26.361829042434692,25.37788152694702 26.361829042434692,25.37788152694702 26.126539707183838,24.668462574481964 26.126539707183838,24.668462574481964 25.800976157188416,23.99577647447586 25.800976157188416,23.99577647447586 25.38982331752777,23.369525372982025 25.38982331752777,23.369525372982025 24.896501004695892,22.799235582351685 24.896501004695892,22.799235582351685 24.330386519432068,22.29933589696884 24.330386519432068,22.29933589696884 23.708969354629517,21.88066840171814 23.708969354629517,21.88066840171814 23.041489720344543,21.5475857257843 23.041489720344543,21.5475857257843 22.336620092391968,21.30431830883026 22.336620092391968,21.30431830883026 21.60402685403824,21.155236661434174 21.60402685403824,21.155236661434174 20.852099359035492,21.104589104652405 20.852099359035492,21.104589104652405 1.0759292170405388,21.104589104652405 1.0759292170405388,21.104589104652405 0.678142486140132,20.487456023693085 0.678142486140132,20.487456023693085 0.3635241650044918,19.822072982788086 0.3635241650044918,19.822072982788086 0.14131522038951516,19.11679357290268 0.14131522038951516,19.11679357290268 0.019903552311006933,18.379828333854675 0.019903552311006933,18.379828333854675 0.008672261901665479,17.619512975215912 0.008672261901665479,17.619512975215912 0.11600927682593465,16.844092309474945 0.11600927682593465,16.844092309474945 0.6548268720507622,15.388663113117218 0.6548268720507622,15.388663113117218 1.5031447634100914,14.31531012058258 1.5031447634100914,14.31531012058258 2.598266676068306,13.571663200855255 2.598266676068306,13.571663200855255 3.8760747760534286,13.105316460132599 3.8760747760534286,13.105316460132599 5.274014919996262,12.863950431346893 5.274014919996262,12.863950431346893 6.728538125753403,12.795141339302063 6.728538125753403,12.795141339302063 7.398008555173874,12.79304325580597 7.398008555173874,12.79304325580597 8.059517294168472,12.801112234592438 8.059517294168472,12.801112234592438 8.712353557348251,12.840919196605682 8.712353557348251,12.840919196605682 9.356091171503067,12.933968007564545 9.356091171503067,12.933968007564545 9.991014748811722,13.10185045003891 9.991014748811722,13.10185045003891 10.615986585617065,13.366088271141052 10.615986585617065,13.366088271141052 11.102770268917084,12.479420751333237 11.102770268917084,12.479420751333237 11.589127779006958,11.59173995256424 11.589127779006958,11.59173995256424 12.075485289096832,10.703562200069427 12.075485289096832,10.703562200069427 12.561984360218048,9.815365821123123 12.561984360218048,9.815365821123123 13.048911094665527,8.927702903747559 13.048911094665527,8.927702903747559 13.536690175533295,8.041035383939743 13.536690175533295,8.041035383939743 13.970445096492767,7.216566056013107 13.970445096492767,7.216566056013107 14.407044649124146,6.351863592863083 14.407044649124146,6.351863592863083 14.866816997528076,5.481722578406334 14.866816997528076,5.481722578406334 15.369950234889984,4.640939831733704 15.369950234889984,4.640939831733704 15.937484800815582,3.8643814623355865 15.937484800815582,3.8643814623355865 16.58932715654373,3.1868431717157364 16.58932715654373,3.1868431717157364 17.581091821193695,2.4945903569459915 17.581091821193695,2.4945903569459915 18.703368306159973,1.9911905750632286 18.703368306159973,1.9911905750632286 19.910377264022827,1.638062298297882 19.910377264022827,1.638062298297882 21.156054735183716,1.3965540565550327 21.156054735183716,1.3965540565550327 22.394339740276337,1.2281202711164951 22.394339740276337,1.2281202711164951 23.57945442199707,1.0941267013549805 23.57945442199707,1.0941267013549805 26.43149197101593,0.8053475059568882 26.43149197101593,0.8053475059568882 29.291772842407227,0.5845957901328802 29.291772842407227,0.5845957901328802 32.157886028289795,0.4176902584731579 32.157886028289795,0.4176902584731579 35.026273131370544,0.2903786255046725 35.026273131370544,0.2903786255046725 37.894800305366516,0.18851507920771837 37.894800305366516,0.18851507920771837 40.76020121574402,0.09781174594536424 40.76020121574402,0.09781174594536424 45.03548443317413,0.009169850818580016 45.03548443317413,0.009169850818580016 49.32939112186432,0.018019822891801596 49.32939112186432,0.018019822891801596 53.63040566444397,0.13051043497398496 53.63040566444397,0.13051043497398496 57.92601704597473,0.3527193795889616 57.92601704597473,0.3527193795889616 62.20414638519287,0.6908665411174297 62.20414638519287,0.6908665411174297 66.45284295082092,1.1509940028190613 66.45284295082092,1.1509940028190613 67.59331822395325,1.2933755293488503 67.59331822395325,1.2933755293488503 68.78070831298828,1.4726496301591396 68.78070831298828,1.4726496301591396 69.9709415435791,1.726491004228592 69.9709415435791,1.726491004228592 71.11937403678894,2.0925385877490044 71.11937403678894,2.0925385877490044 72.18236327171326,2.6084672659635544 72.18236327171326,2.6084672659635544 73.11541438102722,3.3119510859251022 73.11541438102722,3.3119510859251022 73.12678694725037,3.323502466082573 73.12678694725037,3.323502466082573 73.13802242279053,3.3352844417095184 73.13802242279053,3.3352844417095184 73.14953804016113,3.347208723425865 73.14953804016113,3.347208723425865 73.16062450408936,3.359115496277809 73.16062450408936,3.359115496277809 73.1719970703125,3.3709153532981873 73.1719970703125,3.3709153532981873 73.18365573883057,3.382466733455658 73.18365573883057,3.382466733455658 73.49799275398254,3.7290725857019424 73.49799275398254,3.7290725857019424 73.7810492515564,4.100504890084267 73.7810492515564,4.100504890084267 74.03979301452637,4.490525647997856 74.03979301452637,4.490525647997856 74.2807686328888,4.892861843109131 74.2807686328888,4.892861843109131 74.51093792915344,5.301240086555481 74.51093792915344,5.301240086555481 74.73726868629456,5.70947639644146 74.73726868629456,5.70947639644146 75.3362238407135,6.783859431743622 75.3362238407135,6.783859431743622 75.93233585357666,7.859557867050171 75.93233585357666,7.859557867050171 76.52603387832642,8.936411142349243 76.52603387832642,8.936411142349243 77.1177351474762,10.014188289642334 77.1177351474762,10.014188289642334 77.70872712135315,11.092747747898102 77.70872712135315,11.092747747898102 78.29943895339966,12.171875685453415 78.29943895339966,12.171875685453415 78.42013835906982,12.392858415842056 78.42013835906982,12.392858415842056 78.52292656898499,12.581746280193329 78.52292656898499,12.581746280193329 78.61164212226868,12.740547955036163 78.61164212226868,12.740547955036163 78.68983149528503,12.87127137184143 78.68983149528503,12.87127137184143 78.76205444335938,12.976014614105225 78.76205444335938,12.976014614105225 78.83171439170837,13.056731224060059 78.83171439170837,13.056731224060059 78.94317507743835,13.137410581111908 78.94317507743835,13.137410581111908 79.07155156135559,13.168439269065857 79.07155156135559,13.168439269065857 79.2317807674408,13.15738558769226 79.2317807674408,13.15738558769226 79.43863272666931,13.111820816993713 79.43863272666931,13.111820816993713 79.70747351646423,13.039350509643555 79.70747351646423,13.039350509643555 80.05322813987732,12.947545945644379 80.05322813987732,12.947545945644379 80.26505708694458,12.901358306407928 80.26505708694458,12.901358306407928 80.47518134117126,12.864643335342407 80.47518134117126,12.864643335342407 80.68530559539795,12.836654484272003 80.68530559539795,12.836654484272003 80.8955729007721,12.81660795211792 80.8955729007721,12.81660795211792 81.10783100128174,12.803778052330017 81.10783100128174,12.803778052330017 81.32250308990479,12.797415256500244 81.32250308990479,12.797415256500244 81.64095878601074,12.796634435653687 81.64095878601074,12.796634435653687 81.95955753326416,12.796401977539062 81.95955753326416,12.796401977539062 82.27815628051758,12.796562910079956 82.27815628051758,12.796562910079956 82.596755027771,12.796881794929504 82.596755027771,12.796881794929504 82.91606903076172,12.797237932682037 82.91606903076172,12.797237932682037 83.23552012443542,12.797415256500244 83.23552012443542,12.797415256500244 84.07871723175049,12.810531258583069 84.07871723175049,12.810531258583069 84.89789366722107,12.870454788208008 84.89789366722107,12.870454788208008 85.69019436836243,13.004696369171143 85.69019436836243,13.004696369171143 86.45193576812744,13.240696489810944 86.45193576812744,13.240696489810944 87.1809720993042,13.606032729148865 87.1809720993042,13.606032729148865 87.8736138343811,14.128109812736511 87.8736138343811,14.128109812736511 87.90745139122009,14.158996939659119 87.90745139122009,14.158996939659119 87.94057965278625,14.190202951431274 87.94057965278625,14.190202951431274 87.97313570976257,14.221656322479248 87.97313570976257,14.221656322479248 88.00526261329651,14.253289997577667 88.00526261329651,14.253289997577667 88.037109375,14.285063743591309 88.037109375,14.285063743591309 88.06924223899841,14.31690901517868 88.06924223899841,14.31690901517868 89.21738862991333,16.08615815639496 89.21738862991333,16.08615815639496 89.54039812088013,18.0565744638443 89.54039812088013,18.0565744638443 89.12611603736877,19.992265105247498 89.12611603736877,19.992265105247498 88.06198835372925,21.65723294019699 88.06198835372925,21.65723294019699 86.43615245819092,22.815601527690887 86.43615245819092,22.815601527690887 84.33647155761719,23.231425881385803 84.33647155761719,23.231425881385803 84.36475992202759,23.27553480863571 84.36475992202759,23.27553480863571 84.39674973487854,23.321063816547394 84.39674973487854,23.321063816547394 84.43257808685303,23.36762398481369 84.43257808685303,23.36762398481369 84.47138667106628,23.41473400592804 84.47138667106628,23.41473400592804 84.51389670372009,23.46198856830597 84.51389670372009,23.46198856830597 84.55939292907715,23.508939146995544 84.55939292907715,23.508939146995544 84.78017449378967,23.70573580265045 84.78017449378967,23.70573580265045 85.04531979560852,23.902709782123566 85.04531979560852,23.902709782123566 85.34643054008484,24.10007417201996 85.34643054008484,24.10007417201996 85.67441701889038,24.29797202348709 85.67441701889038,24.29797202348709 86.02173328399658,24.496687948703766 86.02173328399658,24.496687948703766 86.37914061546326,24.69632774591446 86.37914061546326,24.69632774591446 86.73371076583862,24.89228844642639 86.73371076583862,24.89228844642639 87.07917928695679,25.088658928871155 87.07917928695679,25.088658928871155 87.40702271461487,25.28519034385681 87.40702271461487,25.28519034385681 87.7077043056488,25.481486320495605 87.7077043056488,25.481486320495605 87.97327876091003,25.67732334136963 87.97327876091003,25.67732334136963 88.19434642791748,25.87234377861023 88.19434642791748,25.87234377861023 88.28505277633667,25.968539714813232 88.28505277633667,25.968539714813232 88.36068511009216,26.064005494117737 88.36068511009216,26.064005494117737 88.4206771850586,26.159238815307617 88.4206771850586,26.159238815307617 88.46361637115479,26.254650950431824 88.46361637115479,26.254650950431824 88.48949074745178,26.350685954093933 88.48949074745178,26.350685954093933 88.49688172340393,26.44784152507782 88.49688172340393,26.44784152507782 88.48138451576233,27.06931233406067 88.48138451576233,27.06931233406067 88.46617341041565,27.689823508262634 88.46617341041565,27.689823508262634 88.45195770263672,28.309959173202515 88.45195770263672,28.309959173202515 88.43759894371033,28.930258750915527 88.43759894371033,28.930258750915527 88.4238064289093,29.55135405063629 88.4238064289093,29.55135405063629 88.41044306755066,30.173784494400024 88.41044306755066,30.173784494400024 88.44854235649109,30.819708108901978 88.44854235649109,30.819708108901978 88.57024312019348,31.420990824699402 88.57024312019348,31.420990824699402 88.73686194419861,31.999793648719788 88.73686194419861,31.999793648719788 88.90860080718994,32.578206062316895 88.90860080718994,32.578206062316895 89.04650211334229,33.17835032939911 89.04650211334229,33.17835032939911" stroke="white" stroke-width="0.1" /><polygon points="59.48091149330139,17.97461360692978 59.48091149330139,17.97461360692978 62.41810917854309,18.217508494853973 62.41810917854309,18.217508494853973 65.3449296951294,18.547658622264862 65.3449296951294,18.547658622264862 68.26037168502808,18.960976600646973 68.26037168502808,18.960976600646973 71.16358876228333,19.453322887420654 71.16358876228333,19.453322887420654 74.05458092689514,20.020610094070435 74.05458092689514,20.020610094070435 76.9323468208313,20.65875083208084 76.9323468208313,20.65875083208084 71.17738127708435,10.170146822929382 71.17738127708435,10.170146822929382 70.98004817962646,9.776589274406433 70.98004817962646,9.776589274406433 70.76281905174255,9.295563399791718 70.76281905174255,9.295563399791718 70.52311897277832,8.77007395029068 70.52311897277832,8.77007395029068 70.25712132453918,8.24303850531578 70.25712132453918,8.24303850531578 69.96226906776428,7.757480442523956 69.96226906776428,7.757480442523956 69.63513493537903,7.3563531041145325 69.63513493537903,7.3563531041145325 69.56632733345032,7.2906360030174255 69.56632733345032,7.2906360030174255 69.49552893638611,7.230231910943985 69.49552893638611,7.230231910943985 69.42359209060669,7.175514847040176 69.42359209060669,7.175514847040176 69.34980750083923,7.126858085393906 69.34980750083923,7.126858085393906 69.27488446235657,7.084634155035019 69.27488446235657,7.084634155035019 69.19839978218079,7.04926997423172 69.19839978218079,7.04926997423172 68.50859522819519,6.808134913444519 68.50859522819519,6.808134913444519 67.78354048728943,6.633587181568146 67.78354048728943,6.633587181568146 67.0377254486084,6.509599089622498 67.0377254486084,6.509599089622498 66.28494262695312,6.420086324214935 66.28494262695312,6.420086324214935 65.5402660369873,6.349055469036102 65.5402660369873,6.349055469036102 64.81733918190002,6.280423700809479 64.81733918190002,6.280423700809479 59.898316860198975,5.843256413936615 59.898316860198975,5.843256413936615 54.97347116470337,5.546871200203896 54.97347116470337,5.546871200203896 50.04492402076721,5.38192056119442 50.04492402076721,5.38192056119442 45.114246010780334,5.339021235704422 45.114246010780334,5.339021235704422 40.18385112285614,5.408861488103867 40.18385112285614,5.408861488103867 35.255447030067444,5.582093447446823 35.255447030067444,5.582093447446823 33.56051743030548,5.658935382962227 33.56051743030548,5.658935382962227 31.865444779396057,5.7441119104623795 31.865444779396057,5.7441119104623795 30.17122745513916,5.841408297419548 30.17122745513916,5.841408297419548 28.478145599365234,5.954609811306 28.478145599365234,5.954609811306 26.787054538726807,6.0875725001096725 26.787054538726807,6.0875725001096725 25.098949670791626,6.244028732180595 25.098949670791626,6.244028732180595 24.39621090888977,6.2860749661922455 24.39621090888977,6.2860749661922455 23.437713086605072,6.335514038801193 23.437713086605072,6.335514038801193 22.368749976158142,6.430837512016296 22.368749976158142,6.430837512016296 21.333907544612885,6.610485166311264 21.333907544612885,6.610485166311264 20.479191839694977,6.913001090288162 20.479191839694977,6.913001090288162 19.949045777320862,7.3768250644207 19.949045777320862,7.3768250644207 18.699388206005096,9.572720527648926 18.699388206005096,9.572720527648926 17.470769584178925,11.781126260757446 17.470769584178925,11.781126260757446 16.256652772426605,13.997884094715118 16.256652772426605,13.997884094715118 15.050356090068817,16.21878296136856 15.050356090068817,16.21878296136856 13.845622539520264,18.43971759080887 13.845622539520264,18.43971759080887 12.635912001132965,20.65647542476654 12.635912001132965,20.65647542476654 20.351383090019226,19.136928021907806 20.351383090019226,19.136928021907806 28.12826931476593,18.131816387176514 28.12826931476593,18.131816387176514 35.94837486743927,17.57711172103882 35.94837486743927,17.57711172103882 43.79265010356903,17.408695816993713 43.79265010356903,17.408695816993713 51.64318084716797,17.56257563829422 51.64318084716797,17.56257563829422" stroke="white" stroke-width="0.1" /><polygon points="76.24539136886597,39.51139450073242 76.24539136886597,39.51139450073242 79.10667061805725,38.9119952917099 79.10667061805725,38.9119952917099 81.12261295318604,37.33888566493988 81.12261295318604,37.33888566493988 82.29294419288635,35.12977063655853 82.29294419288635,35.12977063655853 82.61722922325134,32.62224197387695 82.61722922325134,32.62224197387695 82.09533095359802,30.15407621860504 82.09533095359802,30.15407621860504 80.72653412818909,28.06287109851837 80.72653412818909,28.06287109851837 80.16440272331238,27.56880223751068 80.16440272331238,27.56880223751068 79.52848076820374,27.14540660381317 79.52848076820374,27.14540660381317 78.81892323493958,26.801270246505737 78.81892323493958,26.801270246505737 78.03543210029602,26.544871926307678 78.03543210029602,26.544871926307678 77.17844247817993,26.384806632995605 77.17844247817993,26.384806632995605 76.24766826629639,26.329556107521057 76.24766826629639,26.329556107521057 73.38866591453552,26.92895531654358 73.38866591453552,26.92895531654358 71.37414216995239,28.501957654953003 71.37414216995239,28.501957654953003 70.20466327667236,30.710896849632263 70.20466327667236,30.710896849632263 69.88009214401245,33.217981457710266 69.88009214401245,33.217981457710266 70.4014241695404,35.685524344444275 70.4014241695404,35.685524344444275 71.76879644393921,37.775805592536926 71.76879644393921,37.775805592536926 72.33278155326843,38.27005326747894 72.33278155326843,38.27005326747894 72.96926975250244,38.693857192993164 72.96926975250244,38.693857192993164 73.67868423461914,39.03854489326477 73.67868423461914,39.03854489326477 74.46075677871704,39.295440912246704 74.46075677871704,39.295440912246704 75.31646490097046,39.45595026016235 75.31646490097046,39.45595026016235" stroke="white" stroke-width="0.1" /><polygon points="28.95682454109192,100.0 28.95682454109192,100.0 28.95682454109192,87.79172897338867 28.95682454109192,87.79172897338867 26.608917117118835,87.50344514846802 26.608917117118835,87.50344514846802 24.099506437778473,87.02622056007385 24.099506437778473,87.02622056007385 21.463707089424133,86.31374835968018 21.463707089424133,86.31374835968018 18.73578280210495,85.31956076622009 18.73578280210495,85.31956076622009 15.950706601142883,83.99732708930969 15.950706601142883,83.99732708930969 13.14316838979721,82.30062127113342 13.14316838979721,82.30062127113342 11.333935707807541,80.9464693069458 11.333935707807541,80.9464693069458 9.588252007961273,79.3919324874878 9.588252007961273,79.3919324874878 7.931565493345261,77.6420533657074 7.931565493345261,77.6420533657074 6.389040499925613,75.70180892944336 6.389040499925613,75.70180892944336 4.9864087253808975,73.57632517814636 4.9864087253808975,73.57632517814636 3.748691827058792,71.27063870429993 3.748691827058792,71.27063870429993 2.6865530759096146,68.80373954772949 2.6865530759096146,68.80373954772949 1.8146352842450142,66.19341969490051 1.8146352842450142,66.19341969490051 1.1345025151968002,63.44314217567444 1.1345025151968002,63.44314217567444 0.6471497938036919,60.55616736412048 0.6471497938036919,60.55616736412048 0.35428323317319155,57.53587484359741 0.35428323317319155,57.53587484359741 0.2570401644334197,54.38560247421265 0.2570401644334197,54.38560247421265 0.2570401644334197,26.80269181728363 0.2570401644334197,26.80269181728363 20.852099359035492,26.80269181728363 20.852099359035492,26.80269181728363 20.849113166332245,28.029176592826843 20.849113166332245,28.029176592826843 20.847123861312866,31.34043514728546 20.847123861312866,31.34043514728546 20.846128463745117,36.18409037590027 20.846128463745117,36.18409037590027 20.84541767835617,42.007726430892944 20.84541767835617,42.007726430892944 20.84527462720871,48.25904071331024 20.84527462720871,48.25904071331024 20.84527462720871,54.38560247421265 20.84527462720871,54.38560247421265 20.90427428483963,56.24585747718811 20.90427428483963,56.24585747718811 21.06037586927414,57.86703824996948 21.06037586927414,57.86703824996948 21.295663714408875,59.26709175109863 21.295663714408875,59.26709175109863 21.591374278068542,60.46391725540161 21.591374278068542,60.46391725540161 21.92959189414978,61.47549748420715 21.92959189414978,61.47549748420715 22.29197919368744,62.31973171234131 22.29197919368744,62.31973171234131 22.86733388900757,63.325655460357666 22.86733388900757,63.325655460357666 23.471549153327942,64.14232850074768 23.471549153327942,64.14232850074768 24.124526977539062,64.8082435131073 24.124526977539062,64.8082435131073 24.84489381313324,65.36191701889038 24.84489381313324,65.36191701889038 25.652268528938293,65.84194898605347 25.652268528938293,65.84194898605347 26.566123962402344,66.28679037094116 26.566123962402344,66.28679037094116 26.93590521812439,66.43294095993042 26.93590521812439,66.43294095993042 27.320611476898193,66.56529903411865 27.320611476898193,66.56529903411865 27.717971801757812,66.68514609336853 27.717971801757812,66.68514609336853 28.124713897705078,66.79376363754272 28.124713897705078,66.79376363754272 28.538566827774048,66.89260601997375 28.538566827774048,66.89260601997375 28.95682454109192,66.9828474521637 28.95682454109192,66.9828474521637 28.95682454109192,53.1572699546814 28.95682454109192,53.1572699546814 52.38387584686279,76.57749652862549 52.38387584686279,76.57749652862549" stroke="white" stroke-width="0.1" /></svg>