<?xml version="1.0" encoding="utf-8" ?>
<svg baseProfile="full" height="99.9682605266571" version="1.1" width="92.69325137138367" xmlns="http://www.w3.org/2000/svg" xmlns:ev="http://www.w3.org/2001/xml-events" xmlns:xlink="http://www.w3.org/1999/xlink"><defs><clipPath /></defs><polygon points="92.69325137138367,77.00517177581787 92.69325137138367,77.00517177581787 92.69325137138367,77.00517177581787 92.69325137138367,77.00517177581787 92.44231581687927,80.52382469177246 92.44231581687927,80.52382469177246 91.27734899520874,83.71782302856445 91.27734899520874,83.71782302856445 89.33151960372925,86.44681572914124 89.33151960372925,86.44681572914124 86.73719763755798,88.57003450393677 86.73719763755798,88.57003450393677 83.6273193359375,89.94706869125366 83.6273193359375,89.94706869125366 80.13505935668945,90.43737649917603 80.13505935668945,90.43737649917603 69.57330107688904,90.43737649917603 69.57330107688904,90.43737649917603 58.09520483016968,90.43737649917603 58.09520483016968,90.43737649917603 57.57102370262146,89.87427353858948 57.57102370262146,89.87427353858948 56.89516067504883,88.44330310821533 56.89516067504883,88.44330310821533 56.15995526313782,86.53237819671631 56.15995526313782,86.53237819671631 55.45740723609924,84.529048204422 55.45740723609924,84.529048204422 54.88010048866272,82.82121419906616 54.88010048866272,82.82121419906616 54.520028829574585,81.79660439491272 54.520028829574585,81.79660439491272 57.668548822402954,80.37058115005493 57.668548822402954,80.37058115005493 60.474592447280884,78.05479168891907 60.474592447280884,78.05479168891907 62.92642951011658,75.12144446372986 62.92642951011658,75.12144446372986 65.01221656799316,71.84239625930786 65.01221656799316,71.84239625930786 66.72022342681885,68.48980784416199 66.72022342681885,68.48980784416199 68.03871393203735,65.33571481704712 68.03871393203735,65.33571481704712 69.18643116950989,61.776524782180786 69.18643116950989,61.776524782180786 69.98477578163147,58.12418460845947 69.98477578163147,58.12418460845947 70.43282389640808,54.41238880157471 70.43282389640808,54.41238880157471 70.52942514419556,50.674426555633545 70.52942514419556,50.674426555633545 70.2738881111145,46.943944692611694 70.2738881111145,46.943944692611694 69.66530084609985,43.25445890426636 69.66530084609985,43.25445890426636 68.70549321174622,39.654675126075745 68.70549321174622,39.654675126075745 67.4045979976654,36.17299497127533 67.4045979976654,36.17299497127533 65.7787024974823,32.83461034297943 65.7787024974823,32.83461034297943 63.84379863739014,29.664355516433716 63.84379863739014,29.664355516433716 61.61655783653259,26.687422394752502 61.61655783653259,26.687422394752502 59.11273956298828,23.928643763065338 59.11273956298828,23.928643763065338 57.655900716781616,22.7244034409523 57.655900716781616,22.7244034409523 56.020110845565796,21.818937361240387 56.020110845565796,21.818937361240387 54.25598621368408,21.22449278831482 54.25598621368408,21.22449278831482 52.4138867855072,20.952974259853363 52.4138867855072,20.952974259853363 50.54441690444946,21.016857028007507 50.54441690444946,21.016857028007507 48.69818091392517,21.428045630455017 48.69818091392517,21.428045630455017 47.8135883808136,21.762241423130035 47.8135883808136,21.762241423130035 46.96464538574219,22.176937758922577 46.96464538574219,22.176937758922577 46.15848362445831,22.66799509525299 46.15848362445831,22.66799509525299 45.40085196495056,23.23121577501297 45.40085196495056,23.23121577501297 44.69853639602661,23.862576484680176 44.69853639602661,23.862576484680176 44.057631492614746,24.5579332113266 44.057631492614746,24.5579332113266 43.69445443153381,25.111666321754456 43.69445443153381,25.111666321754456 43.32093000411987,25.84296464920044 43.32093000411987,25.84296464920044 42.9356724023819,26.640844345092773 42.9356724023819,26.640844345092773 42.53638684749603,27.393820881843567 42.53638684749603,27.393820881843567 42.12169051170349,27.990907430648804 42.12169051170349,27.990907430648804 41.689515113830566,28.320792317390442 41.689515113830566,28.320792317390442 40.63057899475098,20.523729920387268 40.63057899475098,20.523729920387268 42.37641990184784,13.265278935432434 42.37641990184784,13.265278935432434 46.41539752483368,7.093998044729233 46.41539752483368,7.093998044729233 52.23517417907715,2.5583289563655853 52.23517417907715,2.5583289563655853 59.32411551475525,0.2067731460556388 59.32411551475525,0.2067731460556388 67.17022061347961,0.5878889467567205 67.17022061347961,0.5878889467567205 74.46087598800659,3.892004117369652 74.46087598800659,3.892004117369652 79.73071336746216,9.348319470882416 79.73071336746216,9.348319470882416 82.78194069862366,16.193395853042603 82.78194069862366,16.193395853042603 83.41652154922485,23.663565516471863 83.41652154922485,23.663565516471863 81.43665194511414,30.995330214500427 81.43665194511414,30.995330214500427 76.64452791213989,37.42524981498718 76.64452791213989,37.42524981498718 79.84042763710022,37.84351050853729 79.84042763710022,37.84351050853729 82.82828330993652,38.96719217300415 82.82828330993652,38.96719217300415 85.50173044204712,40.70487022399902 85.50173044204712,40.70487022399902 87.7536952495575,42.964884638786316 87.7536952495575,42.964884638786316 89.47803378105164,45.65586745738983 89.47803378105164,45.65586745738983 90.56801795959473,48.68622124195099 90.56801795959473,48.68622124195099 90.81757068634033,49.99367594718933 90.81757068634033,49.99367594718933 90.9830629825592,51.32988095283508 90.9830629825592,51.32988095283508 91.0889744758606,52.682650089263916 91.0889744758606,52.682650089263916 91.16004705429077,54.039496183395386 91.16004705429077,54.039496183395386 91.22099876403809,55.388468503952026 91.22099876403809,55.388468503952026 91.29667282104492,56.717026233673096 91.29667282104492,56.717026233673096" stroke="white" stroke-width="0.1" /><polygon points="13.02923858165741,70.00570297241211 13.02923858165741,70.00570297241211 13.02923858165741,70.00570297241211 13.02923858165741,70.00570297241211 13.626328110694885,70.92146277427673 13.626328110694885,70.92146277427673 13.793769478797913,71.9342827796936 13.793769478797913,71.9342827796936 13.579407334327698,72.92674779891968 13.579407334327698,72.92674779891968 13.031193614006042,73.78104329109192 13.031193614006042,73.78104329109192 12.197775393724442,74.37991499900818 12.197775393724442,74.37991499900818 11.126649379730225,74.60577487945557 11.126649379730225,74.60577487945557 10.128894448280334,74.40061569213867 10.128894448280334,74.40061569213867 9.203819930553436,73.85722994804382 9.203819930553436,73.85722994804382 8.35602730512619,73.08407425880432 8.35602730512619,73.08407425880432 7.588620483875275,72.18936085700989 7.588620483875275,72.18936085700989 6.90574049949646,71.28182053565979 6.90574049949646,71.28182053565979 6.311295926570892,70.46939134597778 6.311295926570892,70.46939134597778 5.009936168789864,68.60406398773193 5.009936168789864,68.60406398773193 3.8485337048768997,66.65070056915283 3.8485337048768997,66.65070056915283 2.831573039293289,64.61948156356812 2.831573039293289,64.61948156356812 1.9634248688817024,62.520354986190796 1.9634248688817024,62.520354986190796 1.2486889958381653,60.36378741264343 1.2486889958381653,60.36378741264343 0.6918505299836397,58.15960764884949 0.6918505299836397,58.15960764884949 0.06877104751765728,53.69023680686951 0.06877104751765728,53.69023680686951 0.09131138795055449,49.20022189617157 0.09131138795055449,49.20022189617157 0.7433713413774967,44.76753771305084 0.7433713413774967,44.76753771305084 2.008620649576187,40.47009348869324 2.008620649576187,40.47009348869324 3.8713037967681885,36.38615012168884 3.8713037967681885,36.38615012168884 6.314976513385773,32.59333670139313 6.314976513385773,32.59333670139313 6.977386027574539,31.690341234207153 6.977386027574539,31.690341234207153 7.74456262588501,30.690976977348328 7.74456262588501,30.690976977348328 8.613861352205276,29.736924171447754 8.613861352205276,29.736924171447754 9.582176059484482,28.96934449672699 9.582176059484482,28.96934449672699 10.64697727560997,28.529980778694153 10.64697727560997,28.529980778694153 11.805620044469833,28.5599946975708 11.805620044469833,28.5599946975708 12.682507932186127,28.96997630596161 12.682507932186127,28.96997630596161 13.321228325366974,29.631811380386353 13.321228325366974,29.631811380386353 13.698548078536987,30.45867383480072 13.698548078536987,30.45867383480072 13.790780305862427,31.363219022750854 13.790780305862427,31.363219022750854 13.575036823749542,32.25833475589752 13.575036823749542,32.25833475589752 13.02739828824997,33.05702209472656 13.02739828824997,33.05702209472656 11.46935448050499,34.75709557533264 11.46935448050499,34.75709557533264 10.068633407354355,36.58435642719269 10.068633407354355,36.58435642719269 8.833974599838257,38.52535784244537 8.833974599838257,38.52535784244537 7.774118334054947,40.56669473648071 7.774118334054947,40.56669473648071 6.897804886102676,42.69531965255737 6.897804886102676,42.69531965255737 6.213774532079697,44.89760398864746 6.213774532079697,44.89760398864746 5.455223098397255,49.40084218978882 5.455223098397255,49.40084218978882 5.494323745369911,53.92265319824219 5.494323745369911,53.92265319824219 6.301175802946091,58.353495597839355 6.301175802946091,58.353495597839355 7.845764607191086,62.58389353752136 7.845764607191086,62.58389353752136 10.09853407740593,66.50441884994507 10.09853407740593,66.50441884994507" stroke="white" stroke-width="0.1" /><polygon points="16.01744443178177,67.02486276626587 16.01744443178177,67.02486276626587 16.01744443178177,67.02486276626587 16.01744443178177,67.02486276626587 13.801589608192444,64.42312002182007 13.801589608192444,64.42312002182007 12.031137943267822,61.527085304260254 12.031137943267822,61.527085304260254 10.728053003549576,58.403295278549194 10.728053003549576,58.403295278549194 9.913495928049088,55.1180362701416 9.913495928049088,55.1180362701416 9.609086066484451,51.7379105091095 9.609086066484451,51.7379105091095 9.836789965629578,48.32925498485565 9.836789965629578,48.32925498485565 10.133494436740875,46.73038721084595 10.133494436740875,46.73038721084595 10.548420250415802,45.15905976295471 10.548420250415802,45.15905976295471 11.078808456659317,43.62338483333588 11.078808456659317,43.62338483333588 11.721208691596985,42.13106334209442 11.721208691596985,42.13106334209442 12.472975254058838,40.6904935836792 12.472975254058838,40.6904935836792 13.331003487110138,39.309439063072205 13.331003487110138,39.309439063072205 14.139465987682343,38.19622099399567 14.139465987682343,38.19622099399567 15.221631526947021,36.94598078727722 15.221631526947021,36.94598078727722 16.475841403007507,35.86145639419556 16.475841403007507,35.86145639419556 17.799855768680573,35.24487316608429 17.799855768680573,35.24487316608429 19.09247636795044,35.39920747280121 19.09247636795044,35.39920747280121 20.251348614692688,36.626678705215454 20.251348614692688,36.626678705215454 20.582322776317596,37.520068883895874 20.582322776317596,37.520068883895874 20.561623573303223,38.33019733428955 20.561623573303223,38.33019733428955 20.275038480758667,39.07575607299805 20.275038480758667,39.07575607299805 19.80847716331482,39.775195717811584 19.80847716331482,39.775195717811584 19.24818754196167,40.447381138801575 19.24818754196167,40.447381138801575 18.679964542388916,41.110825538635254 18.679964542388916,41.110825538635254 18.178096413612366,41.755640506744385 18.178096413612366,41.755640506744385 17.709119617938995,42.42466390132904 17.709119617938995,42.42466390132904 17.27418303489685,43.11622679233551 17.27418303489685,43.11622679233551 16.873976588249207,43.82843375205994 16.873976588249207,43.82843375205994 16.509881615638733,44.55961287021637 16.509881615638733,44.55961287021637 16.183046996593475,45.307931303977966 16.183046996593475,45.307931303977966 15.656799077987671,46.811118721961975 15.656799077987671,46.811118721961975 15.279707312583923,48.35622310638428 15.279707312583923,48.35622310638428 15.05257934331894,49.92961883544922 15.05257934331894,49.92961883544922 14.975757896900177,51.51733160018921 14.975757896900177,51.51733160018921 15.050049126148224,53.105735778808594 15.050049126148224,53.105735778808594 15.27591198682785,54.68103289604187 15.27591198682785,54.68103289604187 15.667033195495605,56.27300143241882 15.667033195495605,56.27300143241882 16.213521361351013,57.812702655792236 16.213521361351013,57.812702655792236 16.908706724643707,59.28880572319031 16.908706724643707,59.28880572319031 17.745229601860046,60.68964600563049 17.745229601860046,60.68964600563049 18.716420233249664,62.00376749038696 18.716420233249664,62.00376749038696 19.815261662006378,63.2196843624115 19.815261662006378,63.2196843624115 20.554722845554352,64.52202200889587 20.554722845554352,64.52202200889587 20.461685955524445,65.84017276763916 20.461685955524445,65.84017276763916 19.749020040035248,66.96183681488037 19.749020040035248,66.96183681488037 18.628904223442078,67.67461895942688 18.628904223442078,67.67461895942688 17.31431931257248,67.76645183563232 17.31431931257248,67.76645183563232" stroke="white" stroke-width="0.1" /><polygon points="49.842679500579834,90.43737649917603 49.842679500579834,90.43737649917603 49.842679500579834,90.43737649917603 49.842679500579834,90.43737649917603 50.235527753829956,91.37901067733765 50.235527753829956,91.37901067733765 50.65068006515503,92.34818816184998 50.65068006515503,92.34818816184998 51.04766488075256,93.33817958831787 51.04766488075256,93.33817958831787 51.385313272476196,94.3422019481659 51.385313272476196,94.3422019481659 51.623594760894775,95.35370469093323 51.623594760894775,95.35370469093323 51.721346378326416,96.36594653129578 51.721346378326416,96.36594653129578 51.460522413253784,97.79852628707886 51.460522413253784,97.79852628707886 50.78638195991516,98.88718724250793 50.78638195991516,98.88718724250793 49.79828894138336,99.61589574813843 49.79828894138336,99.61589574813843 48.595139384269714,99.9682605266571 48.595139384269714,99.9682605266571 47.27664589881897,99.92818236351013 47.27664589881897,99.92818236351013 45.94182074069977,99.47927594184875 45.94182074069977,99.47927594184875 44.52039897441864,98.69036078453064 44.52039897441864,98.69036078453064 43.13577711582184,97.79697060585022 43.13577711582184,97.79697060585022 41.78059697151184,96.83469533920288 41.78059697151184,96.83469533920288 40.44668972492218,95.83901166915894 40.44668972492218,95.83901166915894 39.1265869140625,94.84533667564392 39.1265869140625,94.84533667564392 37.812575697898865,93.88927221298218 37.812575697898865,93.88927221298218 36.45256459712982,92.90899634361267 36.45256459712982,92.90899634361267 35.00124216079712,91.92532896995544 35.00124216079712,91.92532896995544 33.475399017333984,91.1140501499176 33.475399017333984,91.1140501499176 31.890904903411865,90.65076112747192 31.890904903411865,90.65076112747192 30.264437198638916,90.71125388145447 30.264437198638916,90.71125388145447 28.61243486404419,91.47147536277771 28.61243486404419,91.47147536277771 27.283820509910583,92.40781664848328 27.283820509910583,92.40781664848328 25.95486044883728,93.34369897842407 25.95486044883728,93.34369897842407 24.625785648822784,94.27935481071472 24.625785648822784,94.27935481071472 23.29636514186859,95.21501064300537 23.29636514186859,95.21501064300537 21.96705937385559,96.15089297294617 21.96705937385559,96.15089297294617 20.63775360584259,97.08724021911621 20.63775360584259,97.08724021911621 20.057915151119232,97.50388860702515 20.057915151119232,97.50388860702515 19.47520226240158,97.92899489402771 19.47520226240158,97.92899489402771 18.88650804758072,98.35087656974792 18.88650804758072,98.35087656974792 18.288153409957886,98.75763654708862 18.288153409957886,98.75763654708862 17.677034437656403,99.13771748542786 17.677034437656403,99.13771748542786 17.049700021743774,99.47927594184875 17.049700021743774,99.47927594184875 15.719933807849884,99.92335438728333 15.719933807849884,99.92335438728333 14.397759735584259,99.96256828308105 14.397759735584259,99.96256828308105 13.187481462955475,99.61175918579102 13.187481462955475,99.61175918579102 12.192945927381516,98.88551831245422 12.192945927381516,98.88551831245422 11.5186907351017,97.79863953590393 11.5186907351017,97.79863953590393 11.268331855535507,96.36594653129578 11.268331855535507,96.36594653129578 11.379998177289963,95.27837634086609 11.379998177289963,95.27837634086609 11.65381744503975,94.16648149490356 11.65381744503975,94.16648149490356 12.040453404188156,93.04975867271423 12.040453404188156,93.04975867271423 12.48953491449356,91.94735288619995 12.48953491449356,91.94735288619995 12.951727211475372,90.87875485420227 12.951727211475372,90.87875485420227 13.377003371715546,89.86328840255737 13.377003371715546,89.86328840255737 14.823265373706818,86.22342348098755 14.823265373706818,86.22342348098755 16.26952737569809,82.58298635482788 16.26952737569809,82.58298635482788 17.71578937768936,78.94226312637329 17.71578937768936,78.94226312637329 19.16182190179825,75.30113458633423 19.16182190179825,75.30113458633423 20.608198642730713,71.65977358818054 20.608198642730713,71.65977358818054 22.054575383663177,68.01847815513611 22.054575383663177,68.01847815513611 24.649015069007874,61.49005889892578 24.649015069007874,61.49005889892578 24.597033858299255,61.26281023025513 24.597033858299255,61.26281023025513 24.34748113155365,60.97496151924133 24.34748113155365,60.97496151924133 23.980624973773956,60.65974235534668 23.980624973773956,60.65974235534668 23.576508462429047,60.35027503967285 23.576508462429047,60.35027503967285 23.215633630752563,60.0799024105072 23.215633630752563,60.0799024105072 22.978270053863525,59.881871938705444 22.978270053863525,59.881871938705444 22.464442253112793,59.32607054710388 22.464442253112793,59.32607054710388 21.986839175224304,58.7382972240448 21.986839175224304,58.7382972240448 21.5478777885437,58.12142491340637 21.5478777885437,58.12142491340637 21.14870697259903,57.477760314941406 21.14870697259903,57.477760314941406 20.791396498680115,56.810057163238525 20.791396498680115,56.810057163238525 20.477671921253204,56.12085461616516 20.477671921253204,56.12085461616516 19.991444051265717,54.707884788513184 19.991444051265717,54.707884788513184 19.68841552734375,53.247880935668945 19.68841552734375,53.247880935668945 19.56869810819626,51.76263451576233 19.56869810819626,51.76263451576233 19.63217854499817,50.27347803115845 19.63217854499817,50.27347803115845 19.879432022571564,48.80225956439972 19.879432022571564,48.80225956439972 20.310229063034058,47.37060070037842 20.310229063034058,47.37060070037842 21.72590047121048,44.697731733322144 21.72590047121048,44.697731733322144 23.725780844688416,42.5159752368927 23.725780844688416,42.5159752368927 26.175779104232788,40.8948540687561 26.175779104232788,40.8948540687561 28.94042134284973,39.90365266799927 28.94042134284973,39.90365266799927 31.885501742362976,39.61212337017059 31.885501742362976,39.61212337017059 34.875890612602234,40.08961021900177 34.875890612602234,40.08961021900177 37.83672749996185,41.44766628742218 37.83672749996185,41.44766628742218 40.25728404521942,43.50102245807648 40.25728404521942,43.50102245807648 42.050158977508545,46.08660638332367 42.050158977508545,46.08660638332367 43.127840757369995,49.04094338417053 43.127840757369995,49.04094338417053 43.40292513370514,52.200907468795776 43.40292513370514,52.200907468795776 42.78801083564758,55.403244495391846 42.78801083564758,55.403244495391846 42.46876537799835,56.22826814651489 42.46876537799835,56.22826814651489 42.088571190834045,57.02614784240723 42.088571190834045,57.02614784240723 41.65041446685791,57.79343843460083 41.65041446685791,57.79343843460083 41.1564826965332,58.52634906768799 41.1564826965332,58.52634906768799 40.609994530677795,59.2212438583374 40.609994530677795,59.2212438583374 40.01325070858002,59.874510765075684 40.01325070858002,59.874510765075684 39.80647623538971,60.054486989974976 39.80647623538971,60.054486989974976 39.45986032485962,60.335326194763184 39.45986032485962,60.335326194763184 39.05574381351471,60.66526174545288 39.05574381351471,60.66526174545288 38.676124811172485,60.99233031272888 38.676124811172485,60.99233031272888 38.40368390083313,61.264997720718384 38.40368390083313,61.264997720718384 38.32042217254639,61.43117547035217 38.32042217254639,61.43117547035217 38.45658600330353,61.773765087127686 38.45658600330353,61.773765087127686 38.59274685382843,62.11676001548767 38.59274685382843,62.11676001548767 38.72891068458557,62.46021389961243 38.72891068458557,62.46021389961243 38.86484205722809,62.80389428138733 38.86484205722809,62.80389428138733 39.0011191368103,63.14786672592163 39.0011191368103,63.14786672592163 39.13739621639252,63.492006063461304 39.13739621639252,63.492006063461304 39.79819715023041,65.1551604270935 39.79819715023041,65.1551604270935 40.45899510383606,66.81780219078064 40.45899510383606,66.81780219078064 41.120025515556335,68.48032474517822 41.120025515556335,68.48032474517822 41.7809396982193,70.14272809028625 41.7809396982193,70.14272809028625 42.4418568611145,71.80542349815369 42.4418568611145,71.80542349815369 43.102654814720154,73.46863746643066 43.102654814720154,73.46863746643066" stroke="white" stroke-width="0.1" /><polygon points="53.778499364852905,29.253685474395752 53.778499364852905,29.253685474395752 53.778499364852905,29.253685474395752 53.778499364852905,29.253685474395752 56.58465623855591,32.48057663440704 56.58465623855591,32.48057663440704 58.91470909118652,36.03890240192413 58.91470909118652,36.03890240192413 60.74461340904236,39.86765742301941 60.74461340904236,39.86765742301941 62.04977035522461,43.90525221824646 62.04977035522461,43.90525221824646 62.80624866485596,48.09068441390991 62.80624866485596,48.09068441390991 62.98968195915222,52.36259698867798 62.98968195915222,52.36259698867798 62.86536455154419,54.4582724571228 62.86536455154419,54.4582724571228 62.60189414024353,56.53980374336243 62.60189414024353,56.53980374336243 62.2014582157135,58.598798513412476 62.2014582157135,58.598798513412476 61.66532039642334,60.62662601470947 61.66532039642334,60.62662601470947 60.99589467048645,62.61512041091919 60.99589467048645,62.61512041091919 60.194677114486694,64.55554366111755 60.194677114486694,64.55554366111755 59.700971841812134,65.5918836593628 59.700971841812134,65.5918836593628 59.169548749923706,66.60964488983154 59.169548749923706,66.60964488983154 58.6014449596405,67.6076889038086 58.6014449596405,67.6076889038086 57.99710750579834,68.58445405960083 57.99710750579834,68.58445405960083 57.35769867897034,69.53879594802856 57.35769867897034,69.53879594802856 56.68390393257141,70.46939134597778 56.68390393257141,70.46939134597778 56.14822506904602,71.2004005908966 56.14822506904602,71.2004005908966 55.54618835449219,72.01035618782043 55.54618835449219,72.01035618782043 54.88205552101135,72.82325029373169 54.88205552101135,72.82325029373169 54.15915250778198,73.56271147727966 54.15915250778198,73.56271147727966 53.38151454925537,74.15289878845215 53.38151454925537,74.15289878845215 52.55303978919983,74.51745271682739 52.55303978919983,74.51745271682739 51.59507393836975,74.58783388137817 51.59507393836975,74.58783388137817 50.71830153465271,74.32603240013123 50.71830153465271,74.32603240013123 49.98505115509033,73.79570603370667 49.98505115509033,73.79570603370667 49.456846714019775,73.0600357055664 49.456846714019775,73.0600357055664 49.196138978004456,72.18286395072937 49.196138978004456,72.18286395072937 49.2649108171463,71.22748494148254 49.2649108171463,71.22748494148254 49.61106479167938,70.39809226989746 49.61106479167938,70.39809226989746 50.15939474105835,69.5972204208374 50.15939474105835,69.5972204208374 50.83284378051758,68.82210969924927 50.83284378051758,68.82210969924927 51.55344605445862,68.0698812007904 51.55344605445862,68.0698812007904 52.244144678115845,67.33806729316711 52.244144678115845,67.33806729316711 52.82720327377319,66.62373542785645 52.82720327377319,66.62373542785645 53.984928131103516,64.84126448631287 53.984928131103516,64.84126448631287 54.991304874420166,62.971967458724976 54.991304874420166,62.971967458724976 55.84186315536499,61.028093099594116 55.84186315536499,61.028093099594116 56.531983613967896,59.02148485183716 56.531983613967896,59.02148485183716 57.05777406692505,56.96433782577515 57.05777406692505,56.96433782577515 57.41439461708069,54.86871600151062 57.41439461708069,54.86871600151062 57.613348960876465,50.88120102882385 57.613348960876465,50.88120102882385 57.20428824424744,46.930548548698425 57.20428824424744,46.930548548698425 56.21124505996704,43.09483766555786 56.21124505996704,43.09483766555786 54.657572507858276,39.451926946640015 54.657572507858276,39.451926946640015 52.56741642951965,36.080074310302734 52.56741642951965,36.080074310302734 49.964120984077454,33.05702209472656 49.964120984077454,33.05702209472656 49.2240846157074,31.75140917301178 49.2240846157074,31.75140917301178 49.31700527667999,30.43331503868103 49.31700527667999,30.43331503868103 50.03105401992798,29.313716292381287 50.03105401992798,29.313716292381287 51.15381479263306,28.603234887123108 51.15381479263306,28.603234887123108 52.473801374435425,28.513017296791077 52.473801374435425,28.513017296791077" stroke="white" stroke-width="0.1" /><polygon points="48.01921248435974,51.538264751434326 48.01921248435974,51.538264751434326 48.01921248435974,51.538264751434326 48.01921248435974,51.538264751434326 47.92605936527252,49.796390533447266 47.92605936527252,49.796390533447266 47.65109121799469,48.077863454818726 47.65109121799469,48.077863454818726 47.19901978969574,46.39929533004761 47.19901978969574,46.39929533004761 46.57421410083771,44.77725327014923 46.57421410083771,44.77725327014923 45.78127562999725,43.228524923324585 45.78127562999725,43.228524923324585 44.82492208480835,41.7695552110672 44.82492208480835,41.7695552110672 44.327884912490845,41.16487801074982 44.327884912490845,41.16487801074982 43.79059672355652,40.573593974113464 43.79059672355652,40.573593974113464 43.273088335990906,39.970239996910095 43.273088335990906,39.970239996910095 42.834702134132385,39.328932762145996 42.834702134132385,39.328932762145996 42.53535270690918,38.62408697605133 42.53535270690918,38.62408697605133 42.43472516536713,37.83005475997925 42.43472516536713,37.83005475997925 42.54213869571686,37.14556694030762 42.54213869571686,37.14556694030762 42.817336320877075,36.53203248977661 42.817336320877075,36.53203248977661 43.234679102897644,36.01348698139191 43.234679102897644,36.01348698139191 43.768057227134705,35.61351299285889 43.768057227134705,35.61351299285889 44.39217150211334,35.356080532073975 44.39217150211334,35.356080532073975 45.08068561553955,35.265058279037476 45.08068561553955,35.265058279037476 46.45104706287384,35.627543926239014 46.45104706287384,35.627543926239014 47.72181808948517,36.57843470573425 47.72181808948517,36.57843470573425 48.86792302131653,37.91331648826599 48.86792302131653,37.91331648826599 49.863263964653015,39.427489042282104 49.863263964653015,39.427489042282104 50.68265199661255,40.916645526885986 50.68265199661255,40.916645526885986 51.29998326301575,42.176201939582825 51.29998326301575,42.176201939582825 51.93157196044922,43.65903437137604 51.93157196044922,43.65903437137604 52.451956272125244,45.183613896369934 52.451956272125244,45.183613896369934 52.85963416099548,46.74200117588043 52.85963416099548,46.74200117588043 53.15277576446533,48.32592010498047 53.15277576446533,48.32592010498047 53.32953333854675,49.9274343252182 53.32953333854675,49.9274343252182 53.388410806655884,51.538264751434326 53.388410806655884,51.538264751434326 53.31918001174927,53.28531265258789 53.31918001174927,53.28531265258789 53.11102867126465,55.01994490623474 53.11102867126465,55.01994490623474 52.7664840221405,56.73220157623291 52.7664840221405,56.73220157623291 52.28738784790039,58.41180682182312 52.28738784790039,58.41180682182312 51.676493883132935,60.04902720451355 51.676493883132935,60.04902720451355 50.93565583229065,61.633580923080444 50.93565583229065,61.633580923080444 50.27726888656616,62.869274616241455 50.27726888656616,62.869274616241455 49.41199719905853,64.31731581687927 49.41199719905853,64.31731581687927 48.36582541465759,65.75202345848083 48.36582541465759,65.75202345848083 47.164058685302734,66.94781184196472 47.164058685302734,66.94781184196472 45.8331435918808,67.67910718917847 45.8331435918808,67.67910718917847 44.39803659915924,67.7203893661499 44.39803659915924,67.7203893661499 42.83217191696167,66.9165313243866 42.83217191696167,66.9165313243866 42.386770248413086,65.75811505317688 42.386770248413086,65.75811505317688 42.736491560935974,64.39729928970337 42.736491560935974,64.39729928970337 43.55518817901611,62.986111640930176 43.55518817901611,62.986111640930176 44.51752305030823,61.67681813240051 44.51752305030823,61.67681813240051 45.297810435295105,60.62156558036804 45.297810435295105,60.62156558036804 46.11455202102661,59.24050807952881 46.11455202102661,59.24050807952881 46.79041802883148,57.78861045837402 46.79041802883148,57.78861045837402 47.32230007648468,56.27932548522949 47.32230007648468,56.27932548522949 47.706520557403564,54.72565293312073 47.706520557403564,54.72565293312073 47.93997406959534,53.140926361083984 47.93997406959534,53.140926361083984" stroke="white" stroke-width="0.1" /></svg>