<?xml version="1.0" encoding="utf-8" ?>
<svg baseProfile="full" height="99.99847412109375" version="1.1" width="100.0" xmlns="http://www.w3.org/2000/svg" xmlns:ev="http://www.w3.org/2001/xml-events" xmlns:xlink="http://www.w3.org/1999/xlink"><defs><clipPath /></defs><polygon points="50.000762939453125,0.0 50.000762939453125,0.0 63.29370737075806,1.7859475687146187 63.29370737075806,1.7859475687146187 75.23773908615112,6.826350837945938 75.23773908615112,6.826350837945938 85.35680770874023,14.64509665966034 85.35680770874023,14.64509665966034 93.17419528961182,24.766014516353607 93.17419528961182,24.766014516353607 98.2141375541687,36.71301603317261 98.2141375541687,36.71301603317261 100.0,50.009918212890625 100.0,50.009918212890625 98.21423292160034,63.30629587173462 98.21423292160034,63.30629587173462 93.17429065704346,75.24961233139038 93.17429065704346,75.24961233139038 85.35680770874023,85.36520004272461 85.35680770874023,85.36520004272461 75.23764371871948,93.17829608917236 75.23764371871948,93.17829608917236 63.293612003326416,98.21432828903198 63.293612003326416,98.21432828903198 50.000762939453125,99.99847412109375 50.000762939453125,99.99847412109375 36.7082953453064,98.21432828903198 36.7082953453064,98.21432828903198 24.76397603750229,93.17834377288818 24.76397603750229,93.17834377288818 14.644524455070496,85.36520004272461 14.644524455070496,85.36520004272461 6.826183944940567,75.24961233139038 6.826183944940567,75.24961233139038 1.7859594896435738,63.30629587173462 1.7859594896435738,63.30629587173462 0.0,50.009918212890625 0.0,50.009918212890625 1.7860548570752144,36.71301603317261 1.7860548570752144,36.71301603317261 6.826279312372208,24.766026437282562 6.826279312372208,24.766026437282562 14.644524455070496,14.64509665966034 14.644524455070496,14.64509665966034 24.763880670070648,6.826350837945938 24.763880670070648,6.826350837945938 36.708199977874756,1.7859356477856636 36.708199977874756,1.7859356477856636" stroke="white" stroke-width="0.1" /><polygon points="62.744319438934326,60.40067672729492 62.744319438934326,60.40067672729492 68.89857649803162,59.57084894180298 68.89857649803162,59.57084894180298 74.42800998687744,57.23681449890137 74.42800998687744,57.23681449890137 79.11243438720703,53.61807346343994 79.11243438720703,53.61807346343994 82.73118138313293,48.934030532836914 82.73118138313293,48.934030532836914 85.06414294242859,43.40421259403229 85.06414294242859,43.40421259403229 85.89084148406982,37.248051166534424 85.89084148406982,37.248051166534424 85.06404757499695,31.1068594455719 85.06404757499695,31.1068594455719 82.73060917854309,25.586339831352234 82.73060917854309,25.586339831352234 79.11128997802734,20.90739905834198 79.11128997802734,20.90739905834198 74.42657947540283,17.290909588336945 74.42657947540283,17.290909588336945 68.89733672142029,14.957815408706665 68.89733672142029,14.957815408706665 62.744319438934326,14.128991961479187 62.744319438934326,14.128991961479187 56.59635663032532,14.957815408706665 56.59635663032532,14.957815408706665 51.07064247131348,17.2909215092659 51.07064247131348,17.2909215092659 46.38840854167938,20.90739905834198 46.38840854167938,20.90739905834198 42.77062118053436,25.586339831352234 42.77062118053436,25.586339831352234 40.43842256069183,31.1068594455719 40.43842256069183,31.1068594455719 39.61305618286133,37.248051166534424 39.61305618286133,37.248051166534424 40.440234541893005,43.40316355228424 40.440234541893005,43.40316355228424 42.77367293834686,48.932695388793945 42.77367293834686,48.932695388793945 46.39241397380829,53.616929054260254 46.39241397380829,53.616929054260254 51.07455253601074,57.23614692687988 51.07455253601074,57.23614692687988 56.599026918411255,59.57061052322388 56.599026918411255,59.57061052322388" stroke="white" stroke-width="0.1" /></svg>