<?xml version="1.0" encoding="utf-8" ?>
<svg baseProfile="full" height="100.0" version="1.1" width="67.75707602500916" xmlns="http://www.w3.org/2000/svg" xmlns:ev="http://www.w3.org/2001/xml-events" xmlns:xlink="http://www.w3.org/1999/xlink"><defs><clipPath /></defs><polygon points="65.67968726158142,56.21874928474426 65.67968726158142,56.21874928474426 65.67968726158142,56.21874928474426 65.67968726158142,56.21874928474426 65.89599251747131,59.34252738952637 65.89599251747131,59.34252738952637 66.11132621765137,62.4664306640625 66.11132621765137,62.4664306640625 66.32617115974426,65.59069752693176 66.32617115974426,65.59069752693176 66.54077172279358,68.71508359909058 66.54077172279358,68.71508359909058 66.75634384155273,71.839839220047 66.75634384155273,71.839839220047 66.9726550579071,74.964839220047 66.9726550579071,74.964839220047 67.20532178878784,77.53320336341858 67.20532178878784,77.53320336341858 67.48681664466858,80.23400902748108 67.48681664466858,80.23400902748108 67.70776510238647,82.99487233161926 67.70776510238647,82.99487233161926 67.75707602500916,85.74292063713074 67.75707602500916,85.74292063713074 67.52465963363647,88.4063720703125 67.52465963363647,88.4063720703125 66.90039038658142,90.91210961341858 66.90039038658142,90.91210961341858 65.37548899650574,93.95251274108887 65.37548899650574,93.95251274108887 63.306885957717896,96.29809260368347 63.306885957717896,96.29809260368347 60.792237520217896,98.01257252693176 60.792237520217896,98.01257252693176 57.928466796875,99.15868639945984 57.928466796875,99.15868639945984 54.81371879577637,99.80016946792603 54.81371879577637,99.80016946792603 51.54492259025574,100.0 51.54492259025574,100.0 15.822264552116394,100.0 15.822264552116394,100.0 12.42968738079071,99.74755644798279 12.42968738079071,99.74755644798279 9.223632514476776,98.96606206893921 9.223632514476776,98.96606206893921 6.318359076976776,97.61938452720642 6.318359076976776,97.61938452720642 3.826659917831421,95.67114114761353 3.826659917831421,95.67114114761353 1.8632812425494194,93.08544993400574 1.8632812425494194,93.08544993400574 0.5410156212747097,89.82617259025574 0.5410156212747097,89.82617259025574 0.12255859328433871,87.53674030303955 0.12255859328433871,87.53674030303955 0.0002441406195430318,85.15600562095642 0.0002441406195430318,85.15600562095642 0.08862304384820163,82.72460699081421 0.08862304384820163,82.72460699081421 0.3022460965439677,80.28222322463989 0.3022460965439677,80.28222322463989 0.5561523139476776,77.86950469017029 0.5561523139476776,77.86950469017029 0.7656249683350325,75.526362657547 0.7656249683350325,75.526362657547 1.0756835341453552,68.70251297950745 1.0756835341453552,68.70251297950745 1.5668945387005806,61.20263338088989 1.5668945387005806,61.20263338088989 2.8645018115639687,53.874021768569946 2.8645018115639687,53.874021768569946 5.593017488718033,47.563597559928894 5.593017488718033,47.563597559928894 10.377929359674454,43.1182861328125 10.377929359674454,43.1182861328125 17.84375011920929,41.38574004173279 17.84375011920929,41.38574004173279 11.901611089706421,32.912230491638184 11.901611089706421,32.912230491638184 10.294433683156967,23.45239222049713 10.294433683156967,23.45239222049713 12.477294355630875,14.225219190120697 12.477294355630875,14.225219190120697 17.906005680561066,6.449584662914276 17.906005680561066,6.449584662914276 26.036620140075684,1.3444824144244194 26.036620140075684,1.3444824144244194 36.32421791553497,0.12890624348074198 36.32421791553497,0.12890624348074198 45.32446265220642,2.9460448771715164 45.32446265220642,2.9460448771715164 52.070558071136475,8.70385691523552 52.070558071136475,8.70385691523552 56.23412728309631,16.414427757263184 56.23412728309631,16.414427757263184 57.48583674430847,25.089964270591736 57.48583674430847,25.089964270591736 55.49706816673279,33.74304175376892 55.49706816673279,33.74304175376892 49.93945062160492,41.38574004173279 49.93945062160492,41.38574004173279 53.86914014816284,41.954466700553894 53.86914014816284,41.954466700553894 57.484132051467896,43.47827136516571 57.484132051467896,43.47827136516571 60.62939167022705,45.81213295459747 60.62939167022705,45.81213295459747 63.14770579338074,48.81030023097992 63.14770579338074,48.81030023097992 64.88329768180847,52.327632904052734 64.88329768180847,52.327632904052734" stroke="white" stroke-width="0.1" /></svg>