<?xml version="1.0" encoding="utf-8" ?>
<svg baseProfile="full" height="77.06895470619202" version="1.1" width="99.99744892120361" xmlns="http://www.w3.org/2000/svg" xmlns:ev="http://www.w3.org/2001/xml-events" xmlns:xlink="http://www.w3.org/1999/xlink"><defs><clipPath /></defs><polygon points="6.675331294536591,27.99663543701172 6.675331294536591,27.99663543701172 6.675331294536591,27.99663543701172 6.675331294536591,27.99663543701172 6.154349073767662,27.739229798316956 6.154349073767662,27.739229798316956 5.433901026844978,27.338945865631104 5.433901026844978,27.338945865631104 4.665468633174896,26.82875394821167 4.665468633174896,26.82875394821167 4.000452160835266,26.24107003211975 4.000452160835266,26.24107003211975 3.5902924835681915,25.609028339385986 3.5902924835681915,25.609028339385986 3.58646959066391,24.965116381645203 3.58646959066391,24.965116381645203 4.284776747226715,23.98853749036789 4.284776747226715,23.98853749036789 5.4374851286411285,23.1467142701149 5.4374851286411285,23.1467142701149 6.866155564785004,22.42642492055893 6.866155564785004,22.42642492055893 8.392268419265747,21.813654899597168 8.392268419265747,21.813654899597168 9.837464988231659,21.29502147436142 9.837464988231659,21.29502147436142 11.023185402154922,20.8568274974823 11.023185402154922,20.8568274974823 24.242597818374634,15.515032410621643 24.242597818374634,15.515032410621643 55.024176836013794,3.0793048441410065 55.024176836013794,3.0793048441410065 56.09385967254639,2.6388809084892273 56.09385967254639,2.6388809084892273 57.163262367248535,2.1898554638028145 57.163262367248535,2.1898554638028145 58.23441743850708,1.7413077875971794 58.23441743850708,1.7413077875971794 59.30911302566528,1.301998645067215 59.30911302566528,1.301998645067215 60.389429330825806,0.8810870349407196 60.389429330825806,0.8810870349407196 61.47714853286743,0.4874132573604584 61.47714853286743,0.4874132573604584 62.173545360565186,0.2671215683221817 62.173545360565186,0.2671215683221817 62.98844814300537,0.07685519522055984 62.98844814300537,0.07685519522055984 63.818639516830444,-0.00015928537777654128 63.818639516830444,-0.00015928537777654128 64.56087231636047,0.11882688850164413 64.56087231636047,0.11882688850164413 65.11204242706299,0.5170403514057398 65.11204242706299,0.5170403514057398 65.36880731582642,1.2774687260389328 65.36880731582642,1.2774687260389328 65.37872552871704,1.8514536321163177 65.37872552871704,1.8514536321163177 65.32651782035828,2.4233676493167877 65.32651782035828,2.4233676493167877 65.22322297096252,2.9910609126091003 65.22322297096252,2.9910609126091003 65.0797426700592,3.5515062510967255 65.0797426700592,3.5515062510967255 64.90715742111206,4.102554172277451 64.90715742111206,4.102554172277451 64.71637487411499,4.641575738787651 64.71637487411499,4.641575738787651 64.5085096359253,5.207357555627823 64.5085096359253,5.207357555627823 64.30016160011292,5.773139372467995 64.30016160011292,5.773139372467995 64.09165859222412,6.3389211893081665 64.09165859222412,6.3389211893081665 63.88287544250488,6.904622912406921 63.88287544250488,6.904622912406921 63.673973083496094,7.470324635505676 63.673973083496094,7.470324635505676 63.46502900123596,8.036265522241592 63.46502900123596,8.036265522241592 52.740663290023804,37.097564339637756 52.740663290023804,37.097564339637756 52.52562761306763,37.69249618053436 52.52562761306763,37.69249618053436 52.31059193611145,38.29156756401062 52.31059193611145,38.29156756401062 52.08727717399597,38.88920545578003 52.08727717399597,38.88920545578003 51.84715390205383,39.47904109954834 51.84715390205383,39.47904109954834 51.58178210258484,40.05533456802368 51.58178210258484,40.05533456802368 51.28288269042969,40.61203598976135 51.28288269042969,40.61203598976135 49.9075323343277,42.39133298397064 49.9075323343277,42.39133298397064 48.18824827671051,43.709421157836914 48.18824827671051,43.709421157836914 46.22206687927246,44.54702436923981 46.22206687927246,44.54702436923981 44.105881452560425,44.88407075405121 44.105881452560425,44.88407075405121 41.93681478500366,44.701212644577026 41.93681478500366,44.701212644577026 39.8117870092392,43.97869408130646 39.8117870092392,43.97869408130646 30.843383073806763,39.65250253677368 30.843383073806763,39.65250253677368" stroke="white" stroke-width="0.1" /><polygon points="72.89981842041016,35.04469394683838 72.89981842041016,35.04469394683838 72.89981842041016,35.04469394683838 72.89981842041016,35.04469394683838 70.36741971969604,35.3938490152359 70.36741971969604,35.3938490152359 68.07538270950317,36.37584149837494 68.07538270950317,36.37584149837494 66.121906042099,37.892717123031616 66.121906042099,37.892717123031616 64.60503339767456,39.846113324165344 64.60503339767456,39.846113324165344 63.62304091453552,42.138150334358215 63.62304091453552,42.138150334358215 63.27388882637024,44.67062950134277 63.27388882637024,44.67062950134277 63.250911235809326,45.980751514434814 63.250911235809326,45.980751514434814 63.244420289993286,47.29190766811371 63.244420289993286,47.29190766811371 63.24903964996338,48.6037015914917 63.24903964996338,48.6037015914917 63.25915455818176,49.915337562561035 63.25915455818176,49.915337562561035 63.26926946640015,51.226574182510376 63.26926946640015,51.226574182510376 63.27388882637024,52.5367796421051 63.27388882637024,52.5367796421051 63.26640248298645,53.528809547424316 63.26640248298645,53.528809547424316 63.250309228897095,54.52457666397095 63.250309228897095,54.52457666397095 63.23533654212952,55.52210211753845 63.23533654212952,55.52210211753845 63.231199979782104,56.51931166648865 63.231199979782104,56.51931166648865 63.24760317802429,57.51452445983887 63.24760317802429,57.51452445983887 63.29427361488342,58.50551724433899 63.29427361488342,58.50551724433899 63.37841749191284,58.93463492393494 63.37841749191284,58.93463492393494 63.54343891143799,59.515947103500366 63.54343891143799,59.515947103500366 63.72339129447937,60.15635132789612 63.72339129447937,60.15635132789612 63.852089643478394,60.7621967792511 63.852089643478394,60.7621967792511 63.86359930038452,61.2404465675354 63.86359930038452,61.2404465675354 63.69184851646423,61.497533321380615 63.69184851646423,61.497533321380615 63.48310708999634,61.58164143562317 63.48310708999634,61.58164143562317 63.27464580535889,61.665743589401245 63.27464580535889,61.665743589401245 63.06649446487427,61.74984574317932 63.06649446487427,61.74984574317932 62.85851001739502,61.833786964416504 62.85851001739502,61.833786964416504 62.65072226524353,61.91796660423279 62.65072226524353,61.91796660423279 62.44305372238159,62.00215220451355 62.44305372238159,62.00215220451355 49.57279562950134,67.20122694969177 49.57279562950134,67.20122694969177 33.509182929992676,73.69242310523987 33.509182929992676,73.69242310523987 32.0909857749939,74.30216670036316 32.0909857749939,74.30216670036316 30.625879764556885,74.96941685676575 30.625879764556885,74.96941685676575 29.127243161201477,75.63538551330566 29.127243161201477,75.63538551330566 27.6083767414093,76.24114751815796 27.6083767414093,76.24114751815796 26.08274221420288,76.72816514968872 26.08274221420288,76.72816514968872 24.56371635198593,77.03741788864136 24.56371635198593,77.03741788864136 22.781871259212494,77.06895470619202 22.781871259212494,77.06895470619202 21.063221991062164,76.71040296554565 21.063221991062164,76.71040296554565 19.469133019447327,75.99728107452393 19.469133019447327,75.99728107452393 18.06105077266693,74.96487498283386 18.06105077266693,74.96487498283386 16.900497674942017,73.64870309829712 16.900497674942017,73.64870309829712 16.048957407474518,72.08427786827087 16.048957407474518,72.08427786827087 15.865659713745117,71.63183093070984 15.865659713745117,71.63183093070984 15.682640671730042,71.17913961410522 15.682640671730042,71.17913961410522 15.499740839004517,70.7263708114624 15.499740839004517,70.7263708114624 15.316802263259888,70.27336359024048 15.316802263259888,70.27336359024048 15.133783221244812,69.82051730155945 15.133783221244812,69.82051730155945 14.950525760650635,69.36751008033752 14.950525760650635,69.36751008033752 9.32329148054123,55.43704628944397 9.32329148054123,55.43704628944397 2.9977507889270782,39.778655767440796 2.9977507889270782,39.778655767440796 2.3162880912423134,38.194721937179565 2.3162880912423134,38.194721937179565 1.576208509504795,36.52031421661377 1.576208509504795,36.52031421661377 0.8798924274742603,34.78696942329407 0.8798924274742603,34.78696942329407 0.3296410897746682,33.025673031806946 0.3296410897746682,33.025673031806946 0.027914761449210346,31.26787841320038 0.027914761449210346,31.26787841320038 0.07709412020631135,29.5448899269104 0.07709412020631135,29.5448899269104 1.1982242576777935,30.658134818077087 1.1982242576777935,30.658134818077087 2.474060282111168,31.608909368515015 2.474060282111168,31.608909368515015 3.858529031276703,32.43432641029358 3.858529031276703,32.43432641029358 5.305397883057594,33.171260356903076 5.305397883057594,33.171260356903076 6.768593192100525,33.857062458992004 6.768593192100525,33.857062458992004 8.201922476291656,34.5286101102829 8.201922476291656,34.5286101102829 20.006880164146423,40.22083282470703 20.006880164146423,40.22083282470703 32.38271772861481,46.1883008480072 32.38271772861481,46.1883008480072 33.5233598947525,46.75344526767731 33.5233598947525,46.75344526767731 34.67085063457489,47.336748242378235 34.67085063457489,47.336748242378235 35.82742214202881,47.91686534881592 35.82742214202881,47.91686534881592 36.99522316455841,48.47181439399719 36.99522316455841,48.47181439399719 38.176482915878296,48.98017346858978 38.176482915878296,48.98017346858978 39.3734335899353,49.41987991333008 39.3734335899353,49.41987991333008 43.14475357532501,50.12710690498352 43.14475357532501,50.12710690498352 46.758779883384705,49.8019278049469 46.758779883384705,49.8019278049469 50.088560581207275,48.553210496902466 50.088560581207275,48.553210496902466 53.00686955451965,46.489667892456055 53.00686955451965,46.489667892456055 55.3868293762207,43.7200129032135 55.3868293762207,43.7200129032135 57.101261615753174,40.353357791900635 57.101261615753174,40.353357791900635 57.821232080459595,38.4025901556015 57.821232080459595,38.4025901556015 58.54119658470154,36.45182251930237 58.54119658470154,36.45182251930237 59.26116704940796,34.50121283531189 59.26116704940796,34.50121283531189 59.981101751327515,32.550445199012756 59.981101751327515,32.550445199012756 60.70106625556946,30.599835515022278 60.70106625556946,30.599835515022278 61.42107844352722,28.649067878723145 61.42107844352722,28.649067878723145 67.37198233604431,12.521742284297943 67.37198233604431,12.521742284297943 68.07263493537903,10.723410546779633 68.07263493537903,10.723410546779633 68.82721185684204,8.837471157312393 68.82721185684204,8.837471157312393 69.54526901245117,6.895941495895386 69.54526901245117,6.895941495895386 70.13629674911499,4.930519685149193 70.13629674911499,4.930519685149193 70.50986289978027,2.973698638379574 70.50986289978027,2.973698638379574 70.57552933692932,1.0570177808403969 70.57552933692932,1.0570177808403969 71.55560851097107,1.9584137946367264 71.55560851097107,1.9584137946367264 72.34451174736023,2.987397275865078 72.34451174736023,2.987397275865078 72.98774719238281,4.112588986754417 72.98774719238281,4.112588986754417 73.53070974349976,5.3020525723695755 73.53070974349976,5.3020525723695755 74.01891946792603,6.52448832988739 74.01891946792603,6.52448832988739 74.49777126312256,7.748278230428696 74.49777126312256,7.748278230428696 78.78700494766235,18.36305558681488 78.78700494766235,18.36305558681488 79.91076707839966,21.143461763858795 79.91076707839966,21.143461763858795 81.03420734405518,23.923708498477936 81.03420734405518,23.923708498477936 82.1574866771698,26.70387625694275 82.1574866771698,26.70387625694275 83.28076601028442,29.483962059020996 83.28076601028442,29.483962059020996 84.40420627593994,32.26428925991058 84.40420627593994,32.26428925991058 85.52796244621277,35.04469394683838 85.52796244621277,35.04469394683838" stroke="white" stroke-width="0.1" /><polygon points="98.70914816856384,38.15649449825287 98.70914816856384,38.15649449825287 98.70914816856384,38.15649449825287 98.70914816856384,38.15649449825287 99.4738757610321,38.78343999385834 99.4738757610321,38.78343999385834 99.86898303031921,40.38911759853363 99.86898303031921,40.38911759853363 99.99744892120361,42.561689019203186 99.99744892120361,42.561689019203186 99.96184706687927,44.88877058029175 99.96184706687927,44.88877058029175 99.86520409584045,46.95844352245331 99.86520409584045,46.95844352245331 99.810129404068,48.35840463638306 99.810129404068,48.35840463638306 99.810129404068,56.013023853302 99.810129404068,56.013023853302 99.79212880134583,57.18536376953125 99.79212880134583,57.18536376953125 99.69488382339478,58.330464363098145 99.69488382339478,58.330464363098145 99.45364594459534,59.41169261932373 99.45364594459534,59.41169261932373 99.0035891532898,60.39233207702637 99.0035891532898,60.39233207702637 98.28011393547058,61.2357497215271 98.28011393547058,61.2357497215271 97.21823930740356,61.905306577682495 97.21823930740356,61.905306577682495 96.52120471000671,62.14550733566284 96.52120471000671,62.14550733566284 95.77817916870117,62.27755546569824 95.77817916870117,62.27755546569824 95.00831365585327,62.33012080192566 95.00831365585327,62.33012080192566 94.23052072525024,62.331873178482056 94.23052072525024,62.331873178482056 93.46396327018738,62.3119592666626 93.46396327018738,62.3119592666626 92.7276611328125,62.2990608215332 92.7276611328125,62.2990608215332 85.41837930679321,62.2990608215332 85.41837930679321,62.2990608215332 73.02215099334717,62.2990608215332 73.02215099334717,62.2990608215332 70.56995034217834,61.63420081138611 70.56995034217834,61.63420081138611 69.13861632347107,59.89082455635071 69.13861632347107,59.89082455635071 68.47168803215027,57.446110248565674 68.47168803215027,57.446110248565674 68.31275820732117,54.676854610443115 68.31275820732117,54.676854610443115 68.40542554855347,51.96032524108887 68.40542554855347,51.96032524108887 68.49334836006165,49.67346489429474 68.49334836006165,49.67346489429474 68.47240328788757,48.707398772239685 68.47240328788757,48.707398772239685 68.42859983444214,47.707802057266235 68.42859983444214,47.707802057266235 68.39045286178589,46.69259786605835 68.39045286178589,46.69259786605835 68.38642954826355,45.67922353744507 68.38642954826355,45.67922353744507 68.4452474117279,44.68544125556946 68.4452474117279,44.68544125556946 68.595290184021,43.72893273830414 68.595290184021,43.72893273830414 69.07271146774292,42.45512783527374 69.07271146774292,42.45512783527374 69.82178688049316,41.52856469154358 69.82178688049316,41.52856469154358 70.78514695167542,40.897953510284424 70.78514695167542,40.897953510284424 71.90515995025635,40.51128923892975 71.90515995025635,40.51128923892975 73.12453389167786,40.31735956668854 73.12453389167786,40.31735956668854 74.38563704490662,40.264156460762024 74.38563704490662,40.264156460762024 87.68405318260193,40.264156460762024 87.68405318260193,40.264156460762024 88.09477090835571,40.28860926628113 88.09477090835571,40.28860926628113 88.7100100517273,40.342286229133606 88.7100100517273,40.342286229133606 89.41866755485535,40.39604663848877 89.41866755485535,40.39604663848877 90.10968804359436,40.42041599750519 90.10968804359436,40.42041599750519 90.67204594612122,40.38617014884949 90.67204594612122,40.38617014884949 90.99463820457458,40.264156460762024 90.99463820457458,40.264156460762024 91.05170369148254,40.11618196964264 91.05170369148254,40.11618196964264 91.06520414352417,39.87836837768555 91.06520414352417,39.87836837768555 91.055166721344,39.59085941314697 91.055166721344,39.59085941314697 91.04123115539551,39.29363191127777 91.04123115539551,39.29363191127777 91.04334115982056,39.026910066604614 91.04334115982056,39.026910066604614 91.08129143714905,38.83059024810791 91.08129143714905,38.83059024810791 91.2135362625122,38.59882950782776 91.2135362625122,38.59882950782776 91.38389229774475,38.42305839061737 91.38389229774475,38.42305839061737 91.5855884552002,38.29714357852936 91.5855884552002,38.29714357852936 91.81165099143982,38.21479082107544 91.81165099143982,38.21479082107544 92.0553207397461,38.1700336933136 92.0553207397461,38.1700336933136 92.3097014427185,38.15649449825287 92.3097014427185,38.15649449825287" stroke="white" stroke-width="0.1" /><polygon points="71.81413173675537,45.627614855766296 71.81413173675537,45.627614855766296 71.81413173675537,45.627614855766296 71.81413173675537,45.627614855766296 72.19052314758301,46.35355770587921 72.19052314758301,46.35355770587921 73.15419912338257,46.73791229724884 73.15419912338257,46.73791229724884 74.45699572563171,46.874502301216125 74.45699572563171,46.874502301216125 75.85065960884094,46.856263279914856 75.85065960884094,46.856263279914856 77.08707451820374,46.777018904685974 77.08707451820374,46.777018904685974 77.91794538497925,46.7298686504364 77.91794538497925,46.7298686504364 78.36426496505737,46.74532115459442 78.36426496505737,46.74532115459442 78.86752486228943,46.764037013053894 78.86752486228943,46.764037013053894 79.38241362571716,46.745479106903076 79.38241362571716,46.745479106903076 79.86350059509277,46.64839506149292 79.86350059509277,46.64839506149292 80.26549220085144,46.432164311409 80.26549220085144,46.432164311409 80.54296970367432,46.05577290058136 80.54296970367432,46.05577290058136 80.64925074577332,45.69483399391174 80.64925074577332,45.69483399391174 80.71491718292236,45.24071216583252 80.71491718292236,45.24071216583252 80.74303269386292,44.74007785320282 80.74303269386292,44.74007785320282 80.73621988296509,44.23928260803223 80.73621988296509,44.23928260803223 80.69751858711243,43.78524124622345 80.69751858711243,43.78524124622345 80.62962293624878,43.42437982559204 80.62962293624878,43.42437982559204 80.25323152542114,42.69907474517822 80.25323152542114,42.69907474517822 79.28951382637024,42.31487810611725 79.28951382637024,42.31487810611725 77.98675894737244,42.17860996723175 77.98675894737244,42.17860996723175 76.59301161766052,42.19668805599213 76.59301161766052,42.19668805599213 75.35668015480042,42.27609038352966 75.35668015480042,42.27609038352966 74.52580332756042,42.32339859008789 74.52580332756042,42.32339859008789 74.08044338226318,42.308107018470764 74.08044338226318,42.308107018470764 73.57738018035889,42.28915274143219 73.57738018035889,42.28915274143219 73.06228876113892,42.30763018131256 73.06228876113892,42.30763018131256 72.58073091506958,42.404237389564514 72.58073091506958,42.404237389564514 72.17837572097778,42.6202267408371 72.17837572097778,42.6202267408371 71.90078496932983,42.99622178077698 71.90078496932983,42.99622178077698 71.78641557693481,43.39108765125275 71.78641557693481,43.39108765125275 71.74014449119568,43.83135437965393 71.74014449119568,43.83135437965393 71.74085974693298,44.29614841938019 71.74085974693298,44.29614841938019 71.76746129989624,44.76428925991058 71.76746129989624,44.76428925991058 71.79892063140869,45.21522521972656 71.79892063140869,45.21522521972656" stroke="white" stroke-width="0.1" /><polygon points="84.15173888206482,59.25225019454956 84.15173888206482,59.25225019454956 84.15173888206482,59.25225019454956 84.15173888206482,59.25225019454956 85.6695294380188,59.05481576919556 85.6695294380188,59.05481576919556 87.05869913101196,58.4960401058197 87.05869913101196,58.4960401058197 88.26385140419006,57.62690305709839 88.26385140419006,57.62690305709839 89.22939896583557,56.49764537811279 89.22939896583557,56.49764537811279 89.89987373352051,55.15909194946289 89.89987373352051,55.15909194946289 90.21987318992615,53.66197228431702 90.21987318992615,53.66197228431702 90.09340405464172,51.875585317611694 90.09340405464172,51.875585317611694 89.46860432624817,50.25533437728882 89.46860432624817,50.25533437728882 88.42887282371521,48.88436496257782 88.42887282371521,48.88436496257782 87.05734610557556,47.84518480300903 87.05734610557556,47.84518480300903 85.43741106987,47.22086787223816 85.43741106987,47.22086787223816 83.65222215652466,47.09431529045105 83.65222215652466,47.09431529045105 80.55786490440369,48.20644557476044 80.55786490440369,48.20644557476044 78.76669764518738,50.517040491104126 78.76669764518738,50.517040491104126 78.25467586517334,53.40169668197632 78.25467586517334,53.40169668197632 78.99754047393799,56.23546242713928 78.99754047393799,56.23546242713928 80.97128868103027,58.39393734931946 80.97128868103027,58.39393734931946" stroke="white" stroke-width="0.1" /></svg>