<?xml version="1.0" encoding="utf-8" ?>
<svg baseProfile="full" height="77.85183191299438" version="1.1" width="99.99581575393677" xmlns="http://www.w3.org/2000/svg" xmlns:ev="http://www.w3.org/2001/xml-events" xmlns:xlink="http://www.w3.org/1999/xlink"><defs><clipPath /></defs><polygon points="6.743084639310837,28.28143835067749 6.743084639310837,28.28143835067749 6.743084639310837,28.28143835067749 6.743084639310837,28.28143835067749 6.216813996434212,28.021419048309326 6.216813996434212,28.021419048309326 5.489053949713707,27.61707305908203 5.489053949713707,27.61707305908203 4.712821915745735,27.101704478263855 4.712821915745735,27.101704478263855 4.041055962443352,26.508134603500366 4.041055962443352,26.508134603500366 3.6266926676034927,25.869596004486084 3.6266926676034927,25.869596004486084 3.6228712648153305,25.21914839744568 3.6228712648153305,25.21914839744568 4.328266158699989,24.232175946235657 4.328266158699989,24.232175946235657 5.492674186825752,23.381727933883667 5.492674186825752,23.381727933883667 6.93584531545639,22.654208540916443 6.93584531545639,22.654208540916443 8.477447926998138,22.035379707813263 8.477447926998138,22.035379707813263 9.93727222084999,21.51172310113907 9.93727222084999,21.51172310113907 11.135067790746689,21.06916308403015 11.135067790746689,21.06916308403015 24.488653242588043,15.67315012216568 24.488653242588043,15.67315012216568 55.58266043663025,3.1112026423215866 55.58266043663025,3.1112026423215866 56.66319727897644,2.666308358311653 56.66319727897644,2.666308358311653 57.74349570274353,2.212725393474102 57.74349570274353,2.212725393474102 58.825480937957764,1.7596252262592316 58.825480937957764,1.7596252262592316 59.91108417510986,1.315857283771038 59.91108417510986,1.315857283771038 61.002326011657715,0.8906735107302666 61.002326011657715,0.8906735107302666 62.101125717163086,0.4930039867758751 62.101125717163086,0.4930039867758751 62.8045916557312,0.27039595879614353 62.8045916557312,0.27039595879614353 63.62776160240173,0.07803750922903419 63.62776160240173,0.07803750922903419 64.46638703346252,0.0 64.46638703346252,0.0 65.21618962287903,0.12011340586468577 65.21618962287903,0.12011340586468577 65.77290892601013,0.5224490538239479 65.77290892601013,0.5224490538239479 66.03228449821472,1.2910783290863037 66.03228449821472,1.2910783290863037 66.04226231575012,1.8704866990447044 66.04226231575012,1.8704866990447044 65.9895658493042,2.448447048664093 65.9895658493042,2.448447048664093 65.8852219581604,3.0220629647374153 65.8852219581604,3.0220629647374153 65.74024558067322,3.588518872857094 65.74024558067322,3.588518872857094 65.56590795516968,4.1451595723629 65.56590795516968,4.1451595723629 65.37322998046875,4.689330235123634 65.37322998046875,4.689330235123634 65.163254737854,5.260854586958885 65.163254737854,5.260854586958885 64.9527907371521,5.832378566265106 64.9527907371521,5.832378566265106 64.74217176437378,6.403902918100357 64.74217176437378,6.403902918100357 64.53123092651367,6.975346803665161 64.53123092651367,6.975346803665161 64.32020664215088,7.546951621770859 64.32020664215088,7.546951621770859 64.10918235778809,8.11847522854805 64.10918235778809,8.11847522854805 53.27596664428711,37.47473955154419 53.27596664428711,37.47473955154419 53.05874943733215,38.07570934295654 53.05874943733215,38.07570934295654 52.8415322303772,38.68086040019989 52.8415322303772,38.68086040019989 52.615946531295776,39.284566044807434 52.615946531295776,39.284566044807434 52.373307943344116,39.880385994911194 52.373307943344116,39.880385994911194 52.10532546043396,40.46252965927124 52.10532546043396,40.46252965927124 51.80339217185974,41.02488160133362 51.80339217185974,41.02488160133362 50.414323806762695,42.822158336639404 50.414323806762695,42.822158336639404 48.677948117256165,44.15370523929596 48.677948117256165,44.15370523929596 46.692174673080444,44.99980807304382 46.692174673080444,44.99980807304382 44.55467164516449,45.34027576446533 44.55467164516449,45.34027576446533 42.36334562301636,45.1555609703064 42.36334562301636,45.1555609703064 40.21586775779724,44.425708055496216 40.21586775779724,44.425708055496216 31.15643560886383,40.05560874938965 31.15643560886383,40.05560874938965" stroke="white" stroke-width="0.1" /><polygon points="67.6747739315033,54.56382632255554 67.6747739315033,54.56382632255554 67.6747739315033,54.56382632255554 67.6747739315033,54.56382632255554 68.47156286239624,55.24492859840393 68.47156286239624,55.24492859840393 69.3322241306305,55.77759146690369 69.3322241306305,55.77759146690369 70.24888396263123,56.17300868034363 70.24888396263123,56.17300868034363 71.21332883834839,56.44179582595825 71.21332883834839,56.44179582595825 72.21752405166626,56.59521818161011 72.21752405166626,56.59521818161011 73.2535719871521,56.6439688205719 73.2535719871521,56.6439688205719 73.63860607147217,56.62498474121094 73.63860607147217,56.62498474121094 74.29718375205994,56.5829873085022 74.29718375205994,56.5829873085022 75.08238554000854,56.54115080833435 75.08238554000854,56.54115080833435 75.84763169288635,56.522005796432495 75.84763169288635,56.522005796432495 76.4461874961853,56.54871463775635 76.4461874961853,56.54871463775635 76.73162817955017,56.6439688205719 76.73162817955017,56.6439688205719 76.76493525505066,56.946951150894165 76.76493525505066,56.946951150894165 76.54731869697571,57.200688123703 76.54731869697571,57.200688123703 76.1742651462555,57.40857720375061 76.1742651462555,57.40857720375061 75.74103474617004,57.57293701171875 75.74103474617004,57.57293701171875 75.34336447715759,57.69699215888977 75.34336447715759,57.69699215888977 75.07627010345459,57.783156633377075 75.07627010345459,57.783156633377075 46.98920249938965,69.13126111030579 46.98920249938965,69.13126111030579 32.384440302848816,75.0331461429596 32.384440302848816,75.0331461429596 31.18194043636322,75.54706931114197 31.18194043636322,75.54706931114197 29.942068457603455,76.10378861427307 29.942068457603455,76.10378861427307 28.675004839897156,76.65632963180542 28.675004839897156,76.65632963180542 27.390924096107483,77.1577775478363 27.390924096107483,77.1577775478363 26.100248098373413,77.56131887435913 26.100248098373413,77.56131887435913 24.813032150268555,77.81997323036194 24.813032150268555,77.81997323036194 23.013101518154144,77.85183191299438 23.013101518154144,77.85183191299438 21.277007460594177,77.48963832855225 21.277007460594177,77.48963832855225 19.66674029827118,76.76944136619568 19.66674029827118,76.76944136619568 18.24432462453842,75.7267951965332 18.24432462453842,75.7267951965332 17.072072625160217,74.3975818157196 17.072072625160217,74.3975818157196 16.211850941181183,72.81785011291504 16.211850941181183,72.81785011291504 16.026732325553894,72.36024141311646 16.026732325553894,72.36024141311646 15.841816365718842,71.90263867378235 15.841816365718842,71.90263867378235 15.657059848308563,71.44502997398376 15.657059848308563,71.44502997398376 15.472264587879181,70.98734378814697 15.472264587879181,70.98734378814697 15.287347137928009,70.52974104881287 15.287347137928009,70.52974104881287 15.102270245552063,70.07221579551697 15.102270245552063,70.07221579551697 9.417920559644699,56.00036382675171 9.417920559644699,56.00036382675171 3.028177283704281,40.183043479919434 3.028177283704281,40.183043479919434 2.3397978395223618,38.582950830459595 2.3397978395223618,38.582950830459595 1.5921663492918015,36.89163029193878 1.5921663492918015,36.89163029193878 0.8888231590390205,35.14069318771362 0.8888231590390205,35.14069318771362 0.3329868661239743,33.36151838302612 0.3329868661239743,33.36151838302612 0.028198090149089694,31.585964560508728 0.028198090149089694,31.585964560508728 0.07787661161273718,29.845404624938965 0.07787661161273718,29.845404624938965 1.2103859335184097,30.970433354377747 1.2103859335184097,30.970433354377747 2.49917134642601,31.930938363075256 2.49917134642601,31.930938363075256 3.8976922631263733,32.764652371406555 3.8976922631263733,32.764652371406555 5.359246209263802,33.50890576839447 5.359246209263802,33.50890576839447 6.8372927606105804,34.201428294181824 6.8372927606105804,34.201428294181824 8.285170048475266,34.879711270332336 8.285170048475266,34.879711270332336 20.209945738315582,40.62970578670502 20.209945738315582,40.62970578670502 32.711392641067505,46.65774405002594 32.711392641067505,46.65774405002594 33.86361300945282,47.22910523414612 33.86361300945282,47.22910523414612 35.02275347709656,47.81865179538727 35.02275347709656,47.81865179538727 36.19106113910675,48.40481877326965 36.19106113910675,48.40481877326965 37.37063407897949,48.96523952484131 37.37063407897949,48.96523952484131 38.56396675109863,49.47843551635742 38.56396675109863,49.47843551635742 39.773064851760864,49.92212355136871 39.773064851760864,49.92212355136871 43.58266294002533,50.63660740852356 43.58266294002533,50.63660740852356 47.2333699464798,50.308287143707275 47.2333699464798,50.308287143707275 50.596946477890015,49.047139286994934 50.596946477890015,49.047139286994934 53.54483723640442,46.96265161037445 53.54483723640442,46.96265161037445 55.94903230667114,44.16488707065582 55.94903230667114,44.16488707065582 57.68082141876221,40.763577818870544 57.68082141876221,40.763577818870544 58.40809941291809,38.79349231719971 58.40809941291809,38.79349231719971 59.135377407073975,36.823004484176636 59.135377407073975,36.823004484176636 59.86265540122986,34.852516651153564 59.86265540122986,34.852516651153564 60.58984994888306,32.88179039955139 60.58984994888306,32.88179039955139 61.317211389541626,30.911141633987427 61.317211389541626,30.911141633987427 62.04448938369751,28.940492868423462 62.04448938369751,28.940492868423462 68.0557906627655,12.649478018283844 68.0557906627655,12.649478018283844 68.76351833343506,10.832974314689636 68.76351833343506,10.832974314689636 69.52579021453857,8.927813172340393 69.52579021453857,8.927813172340393 70.25113701820374,6.966577470302582 70.25113701820374,6.966577470302582 70.84808349609375,4.981287196278572 70.84808349609375,4.981287196278572 71.2255597114563,3.0044442042708397 71.2255597114563,3.0044442042708397 71.29185199737549,1.068389881402254 71.29185199737549,1.068389881402254 72.15927243232727,1.8444206565618515 72.15927243232727,1.8444206565618515 72.86531329154968,2.7063731104135513 72.86531329154968,2.7063731104135513 73.44633340835571,3.6392834037542343 73.44633340835571,3.6392834037542343 73.93869161605835,4.627544060349464 73.93869161605835,4.627544060349464 74.37891960144043,5.656271427869797 74.37891960144043,5.656271427869797 74.80337619781494,6.710260361433029 74.80337619781494,6.710260361433029 75.35285949707031,8.069480955600739 75.35285949707031,8.069480955600739 75.9020209312439,9.428460150957108 75.9020209312439,9.428460150957108 76.45101547241211,10.78735813498497 76.45101547241211,10.78735813498497 77.0000159740448,12.146095931529999 77.0000159740448,12.146095931529999 77.5491714477539,13.504673540592194 77.5491714477539,13.504673540592194 78.09865474700928,14.86349105834961 78.09865474700928,14.86349105834961 83.40970873832703,28.013697266578674 83.40970873832703,28.013697266578674 81.35788440704346,28.419974446296692 81.35788440704346,28.419974446296692 79.68514561653137,29.320141673088074 79.68514561653137,29.320141673088074 78.38892340660095,30.62690794467926 78.38892340660095,30.62690794467926 77.46630907058716,32.2524219751358 77.46630907058716,32.2524219751358 76.91481709480286,34.10947322845459 76.91481709480286,34.10947322845459 76.73162817955017,36.11028790473938 76.73162817955017,36.11028790473938 76.73162817955017,39.50081765651703 76.73162817955017,39.50081765651703 76.53484344482422,39.529457688331604 76.53484344482422,39.529457688331604 76.03765726089478,39.54329490661621 76.03765726089478,39.54329490661621 75.38005113601685,39.54683542251587 75.38005113601685,39.54683542251587 74.70169067382812,39.54401910305023 74.70169067382812,39.54401910305023 74.14287328720093,39.53935503959656 74.14287328720093,39.53935503959656 73.84311556816101,39.53686058521271 73.84311556816101,39.53686058521271 71.85468673706055,39.709991216659546 71.85468673706055,39.709991216659546 69.9954628944397,40.23549556732178 69.9954628944397,40.23549556732178 68.35474371910095,41.12335443496704 68.35474371910095,41.12335443496704 67.0213520526886,42.383137345314026 67.0213520526886,42.383137345314026 66.08457565307617,44.024741649627686 66.08457565307617,44.024741649627686 65.63324928283691,46.05790078639984 65.63324928283691,46.05790078639984 65.54828882217407,47.558632493019104 65.54828882217407,47.558632493019104 65.56470394134521,49.080607295036316 65.56470394134521,49.080607295036316 65.73396921157837,50.58311223983765 65.73396921157837,50.58311223983765 66.10766649246216,52.02495455741882 66.10766649246216,52.02495455741882 66.73735976219177,53.36551070213318 66.73735976219177,53.36551070213318" stroke="white" stroke-width="0.1" /><polygon points="99.35317635536194,45.33834457397461 99.35317635536194,45.33834457397461 99.35317635536194,45.33834457397461 99.35317635536194,45.33834457397461 99.69388842582703,45.86626589298248 99.69388842582703,45.86626589298248 99.895578622818,46.56441807746887 99.895578622818,46.56441807746887 99.9868094921112,47.358471155166626 99.9868094921112,47.358471155166626 99.99581575393677,48.17327857017517 99.99581575393677,48.17327857017517 99.95108842849731,48.934346437454224 99.95108842849731,48.934346437454224 99.88093376159668,49.566853046417236 99.88093376159668,49.566853046417236 99.51327443122864,50.620436668395996 99.51327443122864,50.620436668395996 98.56089353561401,51.212078332901 98.56089353561401,51.212078332901 97.2495436668396,51.462602615356445 97.2495436668396,51.462602615356445 95.80488204956055,51.49220824241638 95.80488204956055,51.49220824241638 94.45282220840454,51.42173171043396 94.45282220840454,51.42173171043396 93.41910481452942,51.371532678604126 93.41910481452942,51.371532678604126 89.38496708869934,51.371532678604126 89.38496708869934,51.371532678604126 89.10910487174988,51.368314027786255 89.10910487174988,51.368314027786255 88.92937302589417,51.373785734176636 88.92937302589417,51.373785734176636 88.82535099983215,51.411110162734985 88.82535099983215,51.411110162734985 88.77643942832947,51.50306820869446 88.77643942832947,51.50306820869446 88.76211643218994,51.67266130447388 88.76211643218994,51.67266130447388 88.76195549964905,51.94305181503296 88.76195549964905,51.94305181503296 88.76195549964905,59.75388288497925 88.76195549964905,59.75388288497925 88.77184987068176,60.22339463233948 88.77184987068176,60.22339463233948 88.78182768821716,60.7130229473114 88.78182768821716,60.7130229473114 88.76227736473083,61.20441555976868 88.76227736473083,61.20441555976868 88.68367671966553,61.678916215896606 88.68367671966553,61.678916215896606 88.5166585445404,62.118178606033325 88.5166585445404,62.118178606033325 88.23162317276001,62.503379583358765 88.23162317276001,62.503379583358765 87.7362072467804,62.839823961257935 87.7362072467804,62.839823961257935 87.13177442550659,63.02100419998169 87.13177442550659,63.02100419998169 86.4629864692688,63.08889985084534 86.4629864692688,63.08889985084534 85.77440977096558,63.085365295410156 85.77440977096558,63.085365295410156 85.1107656955719,63.05270195007324 85.1107656955719,63.05270195007324 84.51671600341797,63.032424449920654 84.51671600341797,63.032424449920654 83.20246934890747,62.7770721912384 83.20246934890747,62.7770721912384 82.4212908744812,62.09002137184143 82.4212908744812,62.09002137184143 82.04204440116882,61.08953356742859 82.04204440116882,61.08953356742859 81.9334328174591,59.89370942115784 81.9334328174591,59.89370942115784 81.96448683738708,58.621376752853394 81.96448683738708,58.621376752853394 82.00407028198242,57.39055275917053 82.00407028198242,57.39055275917053 82.00407028198242,51.417869329452515 82.00407028198242,51.417869329452515 81.56118392944336,51.38142704963684 81.56118392944336,51.38142704963684 80.44347763061523,51.36348605155945 80.44347763061523,51.36348605155945 78.96720170974731,51.35897994041443 78.96720170974731,51.35897994041443 77.44860649108887,51.36227607727051 77.44860649108887,51.36227607727051 76.20403170585632,51.368314027786255 76.20403170585632,51.368314027786255 75.54996609687805,51.371532678604126 75.54996609687805,51.371532678604126 74.36484098434448,51.3827919960022 74.36484098434448,51.3827919960022 73.26547503471375,51.345545053482056 73.26547503471375,51.345545053482056 72.30972051620483,51.153987646102905 72.30972051620483,51.153987646102905 71.55532836914062,50.70193409919739 71.55532836914062,50.70193409919739 71.060311794281,49.88342821598053 71.060311794281,49.88342821598053 70.8825170993805,48.59243035316467 70.8825170993805,48.59243035316467 70.86562514305115,47.89387285709381 70.86562514305115,47.89387285709381 70.85829973220825,47.14616239070892 70.85829973220825,47.14616239070892 70.9253191947937,46.409791707992554 70.9253191947937,46.409791707992554 71.13151550292969,45.74478566646576 71.13151550292969,45.74478566646576 71.54189348220825,45.21179497241974 71.54189348220825,45.21179497241974 72.22121953964233,44.87108588218689 72.22121953964233,44.87108588218689 72.59596586227417,44.79860067367554 72.59596586227417,44.79860067367554 72.99033403396606,44.768109917640686 72.99033403396606,44.768109917640686 73.39516282081604,44.76682245731354 73.39516282081604,44.76682245731354 73.80071878433228,44.78170573711395 73.80071878433228,44.78170573711395 74.19774532318115,44.80020999908447 74.19774532318115,44.80020999908447 74.57683086395264,44.80929970741272 74.57683086395264,44.80929970741272 81.92940950393677,44.80929970741272 81.92940950393677,44.80929970741272 81.98862075805664,44.40109133720398 81.98862075805664,44.40109133720398 82.01742172241211,43.370190262794495 82.01742172241211,43.370190262794495 82.02466368675232,42.00783371925354 82.02466368675232,42.00783371925354 82.01895356178284,40.6046062707901 82.01895356178284,40.6046062707901 82.00922012329102,39.451903104782104 82.00922012329102,39.451903104782104 82.00407028198242,38.84047567844391 82.00407028198242,38.84047567844391 81.96247816085815,37.753018736839294 81.96247816085815,37.753018736839294 81.91863298416138,36.52847409248352 81.91863298416138,36.52847409248352 81.99377059936523,35.31639873981476 81.99377059936523,35.31639873981476 82.30913877487183,34.265708923339844 82.30913877487183,34.265708923339844 82.98613429069519,33.52596163749695 82.98613429069519,33.52596163749695 84.14599895477295,33.24623107910156 84.14599895477295,33.24623107910156 84.7270131111145,33.22644233703613 84.7270131111145,33.22644233703613 85.37392020225525,33.18798542022705 85.37392020225525,33.18798542022705 86.04850172996521,33.16320776939392 86.04850172996521,33.16320776939392 86.71270608901978,33.18372070789337 86.71270608901978,33.18372070789337 87.32872009277344,33.28187167644501 87.32872009277344,33.28187167644501 87.8583312034607,33.489516377449036 87.8583312034607,33.489516377449036 88.30426931381226,33.85363817214966 88.30426931381226,33.85363817214966 88.5777235031128,34.30182933807373 88.5777235031128,34.30182933807373 88.7194812297821,34.80987846851349 88.7194812297821,34.80987846851349 88.77016305923462,35.35364866256714 88.77016305923462,35.35364866256714 88.7708067893982,35.909321904182434 88.7708067893982,35.909321904182434 88.76195549964905,36.45268976688385 88.76195549964905,36.45268976688385 88.76195549964905,42.857879400253296 88.76195549964905,42.857879400253296 88.76195549964905,44.76424753665924 88.76195549964905,44.76424753665924 88.8370156288147,44.80109214782715 88.8370156288147,44.80109214782715 89.02776837348938,44.8187917470932 89.02776837348938,44.8187917470932 89.28263783454895,44.82297599315643 89.28263783454895,44.82297599315643 89.54989314079285,44.818952679634094 89.54989314079285,44.818952679634094 89.77797031402588,44.81259882450104 89.77797031402588,44.81259882450104 89.91530537605286,44.80929970741272 89.91530537605286,44.80929970741272 92.09842085838318,44.80929970741272 92.09842085838318,44.80929970741272 96.60367965698242,44.80929970741272 96.60367965698242,44.80929970741272 97.07375764846802,44.79948580265045 97.07375764846802,44.79948580265045 97.56314158439636,44.789427518844604 97.56314158439636,44.789427518844604 98.05372953414917,44.80881690979004 98.05372953414917,44.80881690979004 98.52758646011353,44.88701522350311 98.52758646011353,44.88701522350311 98.96677136421204,45.053789019584656 98.96677136421204,45.053789019584656" stroke="white" stroke-width="0.1" /></svg>