<?xml version="1.0" encoding="utf-8" ?>
<svg baseProfile="full" height="99.99999403953552" version="1.1" width="72.67897725105286" xmlns="http://www.w3.org/2000/svg" xmlns:ev="http://www.w3.org/2001/xml-events" xmlns:xlink="http://www.w3.org/1999/xlink"><defs><clipPath /></defs><polygon points="70.34305930137634,18.132634460926056 70.34305930137634,18.132634460926056 71.05326056480408,19.942675530910492 71.05326056480408,19.942675530910492 71.63601517677307,21.796783804893494 71.63601517677307,21.796783804893494 72.0910906791687,23.69215041399002 72.0910906791687,23.69215041399002 72.41689562797546,25.625786185264587 72.41689562797546,25.625786185264587 72.6131796836853,27.595248818397522 72.6131796836853,27.595248818397522 72.67897725105286,29.597365856170654 72.67897725105286,29.597365856170654 72.61330485343933,31.59978687763214 72.61330485343933,31.59978687763214 72.41701483726501,33.56967866420746 72.41701483726501,33.56967866420746 72.0910906791687,35.50404608249664 72.0910906791687,35.50404608249664 71.63601517677307,37.39953637123108 71.63601517677307,37.39953637123108 71.0530161857605,39.25333917140961 71.0530161857605,39.25333917140961 70.34305930137634,41.06209874153137 70.34305930137634,41.06209874153137 69.5227563381195,42.80451238155365 69.5227563381195,42.80451238155365 68.60162019729614,44.47753131389618 68.60162019729614,44.47753131389618 67.58185625076294,46.078649163246155 67.58185625076294,46.078649163246155 66.46443605422974,47.60542809963226 66.46443605422974,47.60542809963226 65.25155901908875,49.055853486061096 65.25155901908875,49.055853486061096 63.94468545913696,50.42724013328552 63.94468545913696,50.42724013328552 62.56030201911926,51.70823335647583 62.56030201911926,51.70823335647583 61.099863052368164,52.899569272994995 61.099863052368164,52.899569272994995 59.56582427024841,53.99996042251587 59.56582427024841,53.99996042251587 57.95987844467163,55.00739812850952 57.95987844467163,55.00739812850952 56.28472566604614,55.92053532600403 56.28472566604614,55.92053532600403 54.542434215545654,56.73772692680359 54.542434215545654,56.73772692680359 53.087979555130005,57.322072982788086 53.087979555130005,57.322072982788086 51.60850286483765,57.822734117507935 51.60850286483765,57.822734117507935 50.105464458465576,58.239907026290894 50.105464458465576,58.239907026290894 48.5804557800293,58.57309699058533 48.5804557800293,58.57309699058533 47.03555107116699,58.82248282432556 47.03555107116699,58.82248282432556 45.47221064567566,58.98770093917847 45.47221064567566,58.98770093917847 45.47221064567566,70.40262818336487 45.47221064567566,70.40262818336487 45.391157269477844,71.00778818130493 45.391157269477844,71.00778818130493 45.16240060329437,71.55099511146545 45.16240060329437,71.55099511146545 44.807177782058716,72.01101183891296 44.807177782058716,72.01101183891296 44.3469762802124,72.36611247062683 44.3469762802124,72.36611247062683 43.80376935005188,72.5948691368103 43.80376935005188,72.5948691368103 43.19879412651062,72.67604470252991 43.19879412651062,72.67604470252991 29.597365856170654,72.67604470252991 29.597365856170654,72.67604470252991 28.992268443107605,72.59499430656433 28.992268443107605,72.59499430656433 28.448939323425293,72.36611247062683 28.448939323425293,72.36611247062683 27.98898220062256,72.01101183891296 27.98898220062256,72.01101183891296 27.63376235961914,71.5508759021759 27.63376235961914,71.5508759021759 27.40488350391388,71.00772857666016 27.40488350391388,71.00772857666016 27.323952317237854,70.40262818336487 27.323952317237854,70.40262818336487 27.323952317237854,43.19879412651062 27.323952317237854,43.19879412651062 27.40500569343567,42.595040798187256 27.40500569343567,42.595040798187256 27.63388454914093,42.05207824707031 27.63388454914093,42.05207824707031 27.98898220062256,41.591876745224 27.98898220062256,41.591876745224 28.448817133903503,41.23604595661163 28.448817133903503,41.23604595661163 28.992146253585815,41.0066157579422 28.992146253585815,41.0066157579422 29.597365856170654,40.92538058757782 29.597365856170654,40.92538058757782 43.19879412651062,40.92538058757782 43.19879412651062,40.92538058757782 43.982723355293274,40.90072214603424 43.982723355293274,40.90072214603424 44.74797546863556,40.82686901092529 44.74797546863556,40.82686901092529 45.49320638179779,40.704190731048584 45.49320638179779,40.704190731048584 46.21695280075073,40.532928705215454 46.21695280075073,40.532928705215454 46.918851137161255,40.31363129615784 46.918851137161255,40.31363129615784 47.597190737724304,40.046483278274536 47.597190737724304,40.046483278274536 48.260146379470825,39.72959220409393 48.260146379470825,39.72959220409393 48.89698028564453,39.372843503952026 48.89698028564453,39.372843503952026 49.507325887680054,38.977158069610596 49.507325887680054,38.977158069610596 50.090086460113525,38.54295611381531 50.090086460113525,38.54295611381531 50.64488649368286,38.07109892368317 50.64488649368286,38.07109892368317 51.17137432098389,37.56213188171387 51.17137432098389,37.56213188171387 51.67356729507446,37.01288104057312 51.67356729507446,37.01288104057312 52.140843868255615,36.43598258495331 52.140843868255615,36.43598258495331 52.57223844528198,35.83265542984009 52.57223844528198,35.83265542984009 52.96750068664551,35.203880071640015 52.96750068664551,35.203880071640015 53.326261043548584,34.55086946487427 53.326261043548584,34.55086946487427 53.6479115486145,33.874666690826416 53.6479115486145,33.874666690826416 53.91682982444763,33.198282122612 53.91682982444763,33.198282122612 54.13728952407837,32.50572383403778 54.13728952407837,32.50572383403778 54.30904030799866,31.79827332496643 54.30904030799866,31.79827332496643 54.43183779716492,31.076842546463013 54.43183779716492,31.076842546463013 54.50593829154968,30.34290373325348 54.50593829154968,30.34290373325348 54.53071594238281,29.597365856170654 54.53071594238281,29.597365856170654 54.50605750083923,28.81600260734558 54.50605750083923,28.81600260734558 54.432082176208496,28.052642941474915 54.432082176208496,28.052642941474915 54.309529066085815,27.308571338653564 54.309529066085815,27.308571338653564 54.13814187049866,26.58464014530182 54.13814187049866,26.58464014530182 53.918904066085815,25.882497429847717 53.918904066085815,25.882497429847717 53.65181565284729,25.202879309654236 53.65181565284729,25.202879309654236 53.32955718040466,24.531498551368713 53.32955718040466,24.531498551368713 52.96847224235535,23.88325035572052 52.96847224235535,23.88325035572052 52.56882309913635,23.259049654006958 52.56882309913635,23.259049654006958 52.1304726600647,22.65993356704712 52.1304726600647,22.65993356704712 51.65415406227112,22.086820006370544 51.65415406227112,22.086820006370544 51.14012360572815,21.54080420732498 51.14012360572815,21.54080420732498 50.59179067611694,21.025489270687103 50.59179067611694,21.025489270687103 50.01757740974426,20.548076927661896 50.01757740974426,20.548076927661896 49.418461322784424,20.109422504901886 49.418461322784424,20.109422504901886 48.795053362846375,19.709889590740204 48.795053362846375,19.709889590740204 48.14857542514801,19.350212812423706 48.14857542514801,19.350212812423706 47.48000204563141,19.031064212322235 47.48000204563141,19.031064212322235 46.80373966693878,18.762266635894775 46.80373966693878,18.762266635894775 46.11136317253113,18.541809916496277 46.11136317253113,18.541809916496277 45.403853058815,18.3699369430542 45.403853058815,18.3699369430542 44.681692123413086,18.24689209461212 44.681692123413086,18.24689209461212 43.94646883010864,18.1729793548584 43.94646883010864,18.1729793548584 43.19879412651062,18.148259818553925 43.19879412651062,18.148259818553925 29.597365856170654,18.148259818553925 29.597365856170654,18.148259818553925 28.80977690219879,18.173283338546753 28.80977690219879,18.173283338546753 28.03756594657898,18.248112499713898 28.03756594657898,18.248112499713898 27.281957864761353,18.37237924337387 27.281957864761353,18.37237924337387 26.543685793876648,18.5457780957222 26.543685793876648,18.5457780957222 25.824332237243652,18.76806616783142 25.824332237243652,18.76806616783142 25.124752521514893,19.03887540102005 25.124752521514893,19.03887540102005 24.44043457508087,19.3563774228096 24.44043457508087,19.3563774228096 23.785777390003204,19.71050053834915 23.785777390003204,19.71050053834915 23.161882162094116,20.100633800029755 23.161882162094116,20.100633800029755 22.569115459918976,20.525982975959778 22.569115459918976,20.525982975959778 22.00820744037628,20.986182987689972 22.00820744037628,20.986182987689972 21.48025780916214,21.48025780916214 21.48025780916214,21.48025780916214 20.98563462495804,22.008755803108215 20.98563462495804,22.008755803108215 20.525310933589935,22.570091485977173 20.525310933589935,22.570091485977173 20.099900662899017,23.16334694623947 20.099900662899017,23.16334694623947 19.709767401218414,23.787425458431244 19.709767401218414,23.787425458431244 19.356010854244232,24.441593885421753 19.356010854244232,24.441593885421753 19.03887540102005,25.124752521514893 19.03887540102005,25.124752521514893 18.768127262592316,25.822865962982178 18.768127262592316,25.822865962982178 18.545839190483093,26.541244983673096 18.545839190483093,26.541244983673096 18.37237924337387,27.279028296470642 18.37237924337387,27.279028296470642 18.247990310192108,28.034943342208862 18.247990310192108,28.034943342208862 18.173161149024963,28.808128833770752 18.173161149024963,28.808128833770752 18.148259818553925,29.597365856170654 18.148259818553925,29.597365856170654 18.12872886657715,29.895642399787903 18.12872886657715,29.895642399787903 18.07074546813965,30.1862895488739 18.07074546813965,30.1862895488739 17.97589808702469,30.46601116657257 17.97589808702469,30.46601116657257 17.845527827739716,30.730900168418884 17.845527827739716,30.730900168418884 17.681100964546204,30.97778558731079 17.681100964546204,30.97778558731079 17.484202980995178,31.20281994342804 17.484202980995178,31.20281994342804 17.259229719638824,31.400203704833984 17.259229719638824,31.400203704833984 17.012406885623932,31.565243005752563 17.012406885623932,31.565243005752563 16.74739420413971,31.696465611457825 16.74739420413971,31.696465611457825 16.467611491680145,31.79216980934143 16.467611491680145,31.79216980934143 16.176965832710266,31.850823760032654 16.176965832710266,31.850823760032654 15.878750383853912,31.870782375335693 15.878750383853912,31.870782375335693 2.2734152153134346,31.870782375335693 2.2734152153134346,31.870782375335693 1.6696613281965256,31.7894846200943 1.6696613281965256,31.7894846200943 1.126697938889265,31.55999481678009 1.126697938889265,31.55999481678009 0.6664973683655262,31.204283237457275 0.6664973683655262,31.204283237457275 0.31054383143782616,30.74396252632141 0.31054383143782616,30.74396252632141 0.0811759615316987,30.20111918449402 0.0811759615316987,30.20111918449402 0.0,29.597365856170654 0.0,29.597365856170654 0.06542904884554446,27.596652507781982 0.06542904884554446,27.596652507781982 0.26098378002643585,25.627616047859192 0.26098378002643585,25.627616047859192 0.5864200182259083,23.693615198135376 0.5864200182259083,23.693615198135376 1.0407612659037113,21.797576546669006 1.0407612659037113,21.797576546669006 1.6243737190961838,19.94291990995407 1.6243737190961838,19.94291990995407 2.335914596915245,18.132634460926056 2.335914596915245,18.132634460926056 3.1540218740701675,16.393333673477173 3.1540218740701675,16.393333673477173 4.067831113934517,14.71988707780838 4.067831113934517,14.71988707780838 5.076122283935547,13.114862143993378 5.076122283935547,13.114862143993378 6.176453083753586,11.580514162778854 6.176453083753586,11.580514162778854 7.3678478598594666,10.119590908288956 7.3678478598594666,10.119590908288956 8.648353070020676,8.734289556741714 8.648353070020676,8.734289556741714 10.022363066673279,7.427295297384262 10.022363066673279,7.427295297384262 11.478647589683533,6.214172393083572 11.478647589683533,6.214172393083572 13.015009462833405,5.09662963449955 13.015009462833405,5.09662963449955 14.629006385803223,4.075948894023895 14.629006385803223,4.075948894023895 16.318809986114502,3.1540218740701675 16.318809986114502,3.1540218740701675 18.081854283809662,2.332008443772793 18.081854283809662,2.332008443772793 19.908252358436584,1.622176542878151 19.908252358436584,1.622176542878151 21.775665879249573,1.0399067774415016 21.775665879249573,1.0399067774415016 23.681408166885376,0.5859317723661661 23.681408166885376,0.5859317723661661 25.622186064720154,0.2608006587252021 25.622186064720154,0.2608006587252021 27.595067024230957,0.0651849084533751 27.595067024230957,0.0651849084533751 29.597365856170654,0.0 29.597365856170654,0.0 43.19879412651062,0.0 43.19879412651062,0.0 45.20097374916077,0.06549007957801223 45.20097374916077,0.06549007957801223 47.1704363822937,0.26141100097447634 47.1704363822937,0.26141100097447634 49.10449981689453,0.5871524568647146 49.10449981689453,0.5871524568647146 51.00023150444031,1.0417988523840904 51.00023150444031,1.0417988523840904 52.855563163757324,1.6250450164079666 52.855563163757324,1.6250450164079666 54.667431116104126,2.335914596915245 54.667431116104126,2.335914596915245 56.409114599227905,3.1579282134771347 56.409114599227905,3.1579282134771347 58.08182954788208,4.079794138669968 58.08182954788208,4.079794138669968 59.68300700187683,5.100047588348389 59.68300700187683,5.100047588348389 61.209726333618164,6.216919049620628 61.209726333618164,6.216919049620628 62.65978813171387,7.428821176290512 62.65978813171387,7.428821176290512 64.03062343597412,8.734289556741714 64.03062343597412,8.734289556741714 65.31259417533875,10.120445489883423 65.31259417533875,10.120445489883423 66.50496125221252,11.581917852163315 66.50496125221252,11.581917852163315 67.60578155517578,13.116326928138733 67.60578155517578,13.116326928138733 68.61333847045898,14.721046388149261 68.61333847045898,14.721046388149261 69.52654123306274,16.39406532049179 69.52654123306274,16.39406532049179" stroke="white" stroke-width="0.1" /><polygon points="43.19879412651062,81.85173869132996 43.19879412651062,81.85173869132996 43.80401372909546,81.93309307098389 43.80401372909546,81.93309307098389 44.34722065925598,82.16252326965332 44.34722065925598,82.16252326965332 44.807177782058716,82.5182318687439 44.807177782058716,82.5182318687439 45.162034034729004,82.97837376594543 45.162034034729004,82.97837376594543 45.390912890434265,83.52133631706238 45.390912890434265,83.52133631706238 45.47221064567566,84.12514925003052 45.47221064567566,84.12514925003052 45.47221064567566,97.72658348083496 45.47221064567566,97.72658348083496 45.391157269477844,98.33173751831055 45.391157269477844,98.33173751831055 45.16240060329437,98.87501001358032 45.16240060329437,98.87501001358032 44.807177782058716,99.33496117591858 44.807177782058716,99.33496117591858 44.3469762802124,99.69006180763245 44.3469762802124,99.69006180763245 43.80376935005188,99.91881847381592 43.80376935005188,99.91881847381592 43.19879412651062,99.99999403953552 43.19879412651062,99.99999403953552 29.597365856170654,99.99999403953552 29.597365856170654,99.99999403953552 28.992268443107605,99.91900324821472 28.992268443107605,99.91900324821472 28.448939323425293,99.69006180763245 28.448939323425293,99.69006180763245 27.98898220062256,99.33496117591858 27.98898220062256,99.33496117591858 27.63376235961914,98.87494444847107 27.63376235961914,98.87494444847107 27.40488350391388,98.33167791366577 27.40488350391388,98.33167791366577 27.323952317237854,97.72658348083496 27.323952317237854,97.72658348083496 27.323952317237854,84.12514925003052 27.323952317237854,84.12514925003052 27.40500569343567,83.52139592170715 27.40500569343567,83.52139592170715 27.63388454914093,82.97843337059021 27.63388454914093,82.97843337059021 27.98898220062256,82.5182318687439 27.98898220062256,82.5182318687439 28.448817133903503,82.16240406036377 28.448817133903503,82.16240406036377 28.992146253585815,81.93297386169434 28.992146253585815,81.93297386169434 29.597365856170654,81.85173869132996 29.597365856170654,81.85173869132996" stroke="white" stroke-width="0.1" /></svg>