<?xml version="1.0" encoding="utf-8" ?>
<svg baseProfile="full" height="99.72614645957947" version="1.1" width="99.99573826789856" xmlns="http://www.w3.org/2000/svg" xmlns:ev="http://www.w3.org/2001/xml-events" xmlns:xlink="http://www.w3.org/1999/xlink"><defs><clipPath /></defs><polygon points="67.67520904541016,76.43799185752869 67.67520904541016,76.43799185752869 67.67520904541016,76.43799185752869 67.67520904541016,76.43799185752869 68.47192049026489,77.11909413337708 68.47192049026489,77.11909413337708 69.33267116546631,77.65176296234131 69.33267116546631,77.65176296234131 70.24933695793152,78.04718613624573 70.24933695793152,78.04718613624573 71.21378779411316,78.31597328186035 71.21378779411316,78.31597328186035 72.21806645393372,78.4693956375122 72.21806645393372,78.4693956375122 73.25404286384583,78.518146276474 73.25404286384583,78.518146276474 73.63916039466858,78.49916219711304 73.63916039466858,78.49916219711304 74.29766058921814,78.4571647644043 74.29766058921814,78.4571647644043 75.08286833763123,78.41532826423645 75.08286833763123,78.41532826423645 75.84812045097351,78.3961832523346 75.84812045097351,78.3961832523346 76.44675970077515,78.42297554016113 76.44675970077515,78.42297554016113 76.7321228981018,78.518146276474 76.7321228981018,78.518146276474 76.7654299736023,78.82104516029358 76.7654299736023,78.82104516029358 76.54780745506287,79.07487154006958 76.54780745506287,79.07487154006958 76.17475390434265,79.28276062011719 76.17475390434265,79.28276062011719 75.74160099029541,79.44704294204712 75.74160099029541,79.44704294204712 75.34369230270386,79.57109808921814 75.34369230270386,79.57109808921814 75.07675290107727,79.65734004974365 75.07675290107727,79.65734004974365 46.989503502845764,91.0055160522461 46.989503502845764,91.0055160522461 32.38464891910553,96.90744280815125 32.38464891910553,96.90744280815125 31.182220578193665,97.42136597633362 31.182220578193665,97.42136597633362 29.942220449447632,97.97801375389099 29.942220449447632,97.97801375389099 28.67518961429596,98.53063225746155 28.67518961429596,98.53063225746155 27.391180396080017,99.0320086479187 27.391180396080017,99.0320086479187 26.100337505340576,99.43554997444153 26.100337505340576,99.43554997444153 24.81319159269333,99.69428777694702 24.81319159269333,99.69428777694702 23.01332950592041,99.72614645957947 23.01332950592041,99.72614645957947 21.277184784412384,99.36395287513733 21.277184784412384,99.36395287513733 19.666866958141327,98.64358901977539 19.666866958141327,98.64358901977539 18.244482576847076,97.60069251060486 18.244482576847076,97.60069251060486 17.07214266061783,96.271151304245 17.07214266061783,96.271151304245 16.21195524930954,94.69084143638611 16.21195524930954,94.69084143638611 16.026754677295685,94.23379898071289 16.026754677295685,94.23379898071289 15.841877460479736,93.7765121459961 15.841877460479736,93.7765121459961 15.657161176204681,93.31914186477661 15.657161176204681,93.31914186477661 15.472282469272614,92.86161661148071 15.472282469272614,92.86161661148071 15.287566184997559,92.40400791168213 15.287566184997559,92.40400791168213 15.102367103099823,91.94647669792175 15.102367103099823,91.94647669792175 9.417981654405594,77.87453532218933 9.417981654405594,77.87453532218933 3.028196655213833,62.05711364746094 3.028196655213833,62.05711364746094 2.339853160083294,60.45709252357483 2.339853160083294,60.45709252357483 1.5922168269753456,58.765679597854614 1.5922168269753456,58.765679597854614 0.8888288401067257,57.01473355293274 0.8888288401067257,57.01473355293274 0.33298900816589594,55.235546827316284 0.33298900816589594,55.235546827316284 0.028158046188764274,53.459978103637695 0.028158046188764274,53.459978103637695 0.07787711219862103,51.719409227371216 0.07787711219862103,51.719409227371216 1.2103937566280365,52.84396409988403 1.2103937566280365,52.84396409988403 2.499227784574032,53.804391622543335 2.499227784574032,53.804391622543335 3.897717222571373,54.6381950378418 3.897717222571373,54.6381950378418 5.359200015664101,55.382609367370605 5.359200015664101,55.382609367370605 6.8372562527656555,56.075459718704224 6.8372562527656555,56.075459718704224 8.285223692655563,56.753748655319214 8.285223692655563,56.753748655319214 20.21007537841797,62.50377893447876 20.21007537841797,62.50377893447876 32.71160423755646,68.53185892105103 32.71160423755646,68.53185892105103 33.86383056640625,69.10266280174255 33.86383056640625,69.10266280174255 35.022976994514465,69.69196796417236 35.022976994514465,69.69196796417236 36.191293597221375,70.2779769897461 36.191293597221375,70.2779769897461 37.37087547779083,70.83856463432312 37.37087547779083,70.83856463432312 38.564133644104004,71.35200500488281 38.564133644104004,71.35200500488281 39.7733211517334,71.79625630378723 39.7733211517334,71.79625630378723 43.582943081855774,72.51067161560059 43.582943081855774,72.51067161560059 47.23367393016815,72.18218445777893 47.23367393016815,72.18218445777893 50.59727430343628,70.9207832813263 50.59727430343628,70.9207832813263 53.54517698287964,68.83628368377686 53.54517698287964,68.83628368377686 55.94931244850159,66.03858470916748 55.94931244850159,66.03858470916748 57.681190967559814,62.63765096664429 57.681190967559814,62.63765096664429 58.408474922180176,60.66707372665405 58.408474922180176,60.66707372665405 59.13575887680054,58.69649052619934 59.13575887680054,58.69649052619934 59.8630428314209,56.726235151290894 59.8630428314209,56.726235151290894 60.590243339538574,54.75589632987976 60.590243339538574,54.75589632987976 61.317604780197144,52.785879373550415 61.317604780197144,52.785879373550415 62.044888734817505,50.815778970718384 62.044888734817505,50.815778970718384 68.05622577667236,34.52337384223938 68.05622577667236,34.52337384223938 68.7640368938446,32.7068567276001 68.7640368938446,32.7068567276001 69.52623724937439,30.8016836643219 69.52623724937439,30.8016836643219 70.25159001350403,28.840434551239014 70.25159001350403,28.840434551239014 70.84853649139404,26.85513198375702 70.84853649139404,26.85513198375702 71.22601866722107,24.878357350826263 71.22601866722107,24.878357350826263 71.29231095314026,22.942210733890533 71.29231095314026,22.942210733890533 72.15973734855652,23.718728125095367 72.15973734855652,23.718728125095367 72.86578416824341,24.580848217010498 72.86578416824341,24.580848217010498 73.44680428504944,25.513604283332825 73.44680428504944,25.513604283332825 73.93916845321655,26.50170922279358 73.93916845321655,26.50170922279358 74.37939643859863,27.53036320209503 74.37939643859863,27.53036320209503 74.80385899543762,28.5841166973114 74.80385899543762,28.5841166973114 75.353342294693,29.942944645881653 75.353342294693,29.942944645881653 75.90250372886658,31.301769614219666 75.90250372886658,31.301769614219666 76.45151019096375,32.66075849533081 76.45151019096375,32.66075849533081 77.00051069259644,34.01958644390106 77.00051069259644,34.01958644390106 77.54967212677002,35.37857234477997 77.54967212677002,35.37857234477997 78.09915542602539,36.73740029335022 78.09915542602539,36.73740029335022 83.41024518013,49.88768994808197 83.41024518013,49.88768994808197 81.35840892791748,50.29445290565491 81.35840892791748,50.29445290565491 79.68565821647644,51.194703578948975 79.68565821647644,51.194703578948975 78.38942408561707,52.50139832496643 78.38942408561707,52.50139832496643 77.4668037891388,54.126763343811035 77.4668037891388,54.126763343811035 76.91531181335449,55.98358511924744 76.91531181335449,55.98358511924744 76.7321228981018,57.984334230422974 76.7321228981018,57.984334230422974 76.7321228981018,61.374884843826294 76.7321228981018,61.374884843826294 76.53533816337585,61.40352487564087 76.53533816337585,61.40352487564087 76.03814601898193,61.417365074157715 76.03814601898193,61.417365074157715 75.38053393363953,61.42090559005737 75.38053393363953,61.42090559005737 74.70216751098633,61.41800880432129 74.70216751098633,61.41800880432129 74.14335012435913,61.413341760635376 74.14335012435913,61.413341760635376 73.84359240531921,61.41092777252197 73.84359240531921,61.41092777252197 71.85506820678711,61.58406138420105 71.85506820678711,61.58406138420105 69.99591588973999,62.10957169532776 69.99591588973999,62.10957169532776 68.35518479347229,62.99743056297302 68.35518479347229,62.99743056297302 67.02178120613098,64.25722241401672 67.02178120613098,64.25722241401672 66.08500480651855,65.8988356590271 66.08500480651855,65.8988356590271 65.63366651535034,67.93200969696045 65.63366651535034,67.93200969696045 65.54871201515198,69.43275332450867 65.54871201515198,69.43275332450867 65.56512713432312,70.95473408699036 65.56512713432312,70.95473408699036 65.73439240455627,72.4572479724884 65.73439240455627,72.4572479724884 66.10801219940186,73.89917969703674 66.10801219940186,73.89917969703674 66.73786640167236,75.23974776268005 66.73786640167236,75.23974776268005" stroke="white" stroke-width="0.1" /><polygon points="99.35317039489746,67.21245050430298 99.35317039489746,67.21245050430298 99.35317039489746,67.21245050430298 99.35317039489746,67.21245050430298 99.69388246536255,67.74085760116577 99.69388246536255,67.74085760116577 99.89557266235352,68.43941807746887 99.89557266235352,68.43941807746887 99.9868094921112,69.23355460166931 99.9868094921112,69.23355460166931 99.99573826789856,70.04829049110413 99.99573826789856,70.04829049110413 99.95100498199463,70.80895900726318 99.95100498199463,70.80895900726318 99.88093376159668,71.44098281860352 99.88093376159668,71.44098281860352 99.51335191726685,72.49457836151123 99.51335191726685,72.49457836151123 98.56088161468506,73.08622002601624 98.56088161468506,73.08622002601624 97.24952578544617,73.33674430847168 97.24952578544617,73.33674430847168 95.80485224723816,73.36634993553162 95.80485224723816,73.36634993553162 94.45286393165588,73.2958734035492 94.45286393165588,73.2958734035492 93.41906309127808,73.24567437171936 93.41906309127808,73.24567437171936 89.38490152359009,73.24567437171936 89.38490152359009,73.24567437171936 89.10903334617615,73.24245572090149 89.10903334617615,73.24245572090149 88.92930150032043,73.24792742729187 88.92930150032043,73.24792742729187 88.82527947425842,73.2852578163147 88.82527947425842,73.2852578163147 88.77636790275574,73.37713241577148 88.77636790275574,73.37713241577148 88.76204490661621,73.5468864440918 88.76204490661621,73.5468864440918 88.76188397407532,73.81719946861267 88.76188397407532,73.81719946861267 88.76188397407532,81.62808418273926 88.76188397407532,81.62808418273926 88.77177834510803,82.09751844406128 88.77177834510803,82.09751844406128 88.78167271614075,82.5871467590332 88.78167271614075,82.5871467590332 88.7622058391571,83.07862281799316 88.7622058391571,83.07862281799316 88.6836051940918,83.55312943458557 88.6836051940918,83.55312943458557 88.51658701896667,83.99231433868408 88.51658701896667,83.99231433868408 88.2315456867218,84.37759280204773 88.2315456867218,84.37759280204773 87.73612380027771,84.71404314041138 87.73612380027771,84.71404314041138 87.1318519115448,84.89522337913513 87.1318519115448,84.89522337913513 86.46321892738342,84.96311902999878 86.46321892738342,84.96311902999878 85.77479720115662,84.9595844745636 85.77479720115662,84.9595844745636 85.11131405830383,84.926837682724 85.11131405830383,84.926837682724 84.51725840568542,84.9066436290741 84.51725840568542,84.9066436290741 83.20299983024597,84.65145230293274 83.20299983024597,84.65145230293274 82.42181539535522,83.96455645561218 82.42181539535522,83.96455645561218 82.04256892204285,82.96422362327576 82.04256892204285,82.96422362327576 81.93395733833313,81.76847100257874 81.93395733833313,81.76847100257874 81.96501135826111,80.49597144126892 81.96501135826111,80.49597144126892 82.00459480285645,79.26473617553711 82.00459480285645,79.26473617553711 82.00459480285645,73.29201698303223 82.00459480285645,73.29201698303223 81.56179189682007,73.25556874275208 81.56179189682007,73.25556874275208 80.44399619102478,73.23762774467468 80.44399619102478,73.23762774467468 78.9677083492279,73.23312163352966 78.9677083492279,73.23312163352966 77.44910717010498,73.23634028434753 77.44910717010498,73.23634028434753 76.20452046394348,73.24237823486328 76.20452046394348,73.24237823486328 75.55044889450073,73.24567437171936 75.55044889450073,73.24567437171936 74.36540126800537,73.25693964958191 74.36540126800537,73.25693964958191 73.26594591140747,73.21968674659729 73.26594591140747,73.21968674659729 72.31018543243408,73.02813529968262 72.31018543243408,73.02813529968262 71.55570983886719,72.57607579231262 71.55570983886719,72.57607579231262 71.06077075004578,71.75756096839905 71.06077075004578,71.75756096839905 70.88297009468079,70.46655416488647 70.88297009468079,70.46655416488647 70.86615562438965,69.76799368858337 70.86615562438965,69.76799368858337 70.85875868797302,69.02027726173401 70.85875868797302,69.02027726173401 70.925772190094,68.2839035987854 70.925772190094,68.2839035987854 71.13196849822998,67.61897206306458 71.13196849822998,67.61897206306458 71.54235243797302,67.08598136901855 71.54235243797302,67.08598136901855 72.22168445587158,66.74518585205078 72.22168445587158,66.74518585205078 72.59643077850342,66.6731059551239 72.59643077850342,66.6731059551239 72.990882396698,66.6427731513977 72.990882396698,66.6427731513977 73.39563369750977,66.64140820503235 73.39563369750977,66.64140820503235 73.801189661026,66.65604710578918 73.801189661026,66.65604710578918 74.19822216033936,66.67439341545105 74.19822216033936,66.67439341545105 74.57730770111084,66.68339967727661 74.57730770111084,66.68339967727661 81.92993998527527,66.68339967727661 81.92993998527527,66.68339967727661 81.98915123939514,66.27526879310608 81.98915123939514,66.27526879310608 82.01795220375061,65.24460315704346 82.01795220375061,65.24460315704346 82.02519416809082,63.88239860534668 82.02519416809082,63.88239860534668 82.01947808265686,62.47932314872742 82.01947808265686,62.47932314872742 82.00974464416504,61.32645606994629 82.00974464416504,61.32645606994629 82.00459480285645,60.714536905288696 82.00459480285645,60.714536905288696 81.96308612823486,59.627074003219604 81.96308612823486,59.627074003219604 81.9191575050354,58.4026038646698 81.9191575050354,58.4026038646698 81.99430108070374,57.19044208526611 81.99430108070374,57.19044208526611 82.30966925621033,56.13974332809448 82.30966925621033,56.13974332809448 82.98667073249817,55.39999008178711 82.98667073249817,55.39999008178711 84.1465413570404,55.120259523391724 84.1465413570404,55.120259523391724 84.72756147384644,55.100470781326294 84.72756147384644,55.100470781326294 85.37439107894897,55.06201386451721 85.37439107894897,55.06201386451721 86.04897856712341,55.03723621368408 86.04897856712341,55.03723621368408 86.71310544013977,55.05782961845398 86.71310544013977,55.05782961845398 87.32888102531433,55.15589714050293 87.32888102531433,55.15589714050293 87.85825371742249,55.363547801971436 87.85825371742249,55.363547801971436 88.30427527427673,55.727750062942505 88.30427527427673,55.727750062942505 88.57765197753906,56.17586374282837 88.57765197753906,56.17586374282837 88.7194037437439,56.683915853500366 88.7194037437439,56.683915853500366 88.77009153366089,57.22776651382446 88.77009153366089,57.22776651382446 88.77073526382446,57.78336524963379 88.77073526382446,57.78336524963379 88.76188397407532,58.32673907279968 88.76188397407532,58.32673907279968 88.76188397407532,64.73067998886108 88.76188397407532,64.73067998886108 88.76188397407532,66.63835048675537 88.76188397407532,66.63835048675537 88.83702754974365,66.6756808757782 88.83702754974365,66.6756808757782 89.02769684791565,66.69345498085022 89.02769684791565,66.69345498085022 89.28256630897522,66.69756174087524 89.28256630897522,66.69756174087524 89.5498275756836,66.69329404830933 89.5498275756836,66.69329404830933 89.77790474891663,66.68677926063538 89.77790474891663,66.68677926063538 89.9152398109436,66.68339967727661 89.9152398109436,66.68339967727661 92.09837317466736,66.68339967727661 92.09837317466736,66.68339967727661 96.60365581512451,66.68339967727661 96.60365581512451,66.68339967727661 97.07373380661011,66.67358875274658 97.07373380661011,66.67358875274658 97.56304025650024,66.6635274887085 97.56304025650024,66.6635274887085 98.05371761322021,66.68291687965393 98.05371761322021,66.68291687965393 98.52757453918457,66.76111817359924 98.52757453918457,66.76111817359924 98.96675944328308,66.92781448364258 98.96675944328308,66.92781448364258" stroke="white" stroke-width="0.1" /><polygon points="3.290790691971779,45.32061517238617 3.290790691971779,45.32061517238617 3.290790691971779,45.32061517238617 3.290790691971779,45.32061517238617 2.6768647134304047,44.95689570903778 2.6768647134304047,44.95689570903778 2.369941957294941,44.359782338142395 2.369941957294941,44.359782338142395 2.297052927315235,43.61826181411743 2.297052927315235,43.61826181411743 2.3853886872529984,42.820826172828674 2.3853886872529984,42.820826172828674 2.5625430047512054,42.056456208229065 2.5625430047512054,42.056456208229065 2.7553049847483635,41.413888335227966 2.7553049847483635,41.413888335227966 4.20118048787117,37.0886504650116 4.20118048787117,37.0886504650116 5.74440211057663,32.786986231803894 5.74440211057663,32.786986231803894 7.351985573768616,28.502699732780457 7.351985573768616,28.502699732780457 8.991266041994095,24.229274690151215 8.991266041994095,24.229274690151215 10.629742592573166,19.960515201091766 10.629742592573166,19.960515201091766 12.234429270029068,15.689985454082489 12.234429270029068,15.689985454082489 12.832827866077423,14.069369435310364 12.832827866077423,14.069369435310364 13.43090534210205,12.448672205209732 13.43090534210205,12.448672205209732 14.028820395469666,10.82797572016716 14.028820395469666,10.82797572016716 14.6267369389534,9.207037091255188 14.6267369389534,9.207037091255188 15.224814414978027,7.586099207401276 15.224814414978027,7.586099207401276 15.823212265968323,5.96500039100647 15.823212265968323,5.96500039100647 16.766828298568726,4.083560407161713 16.766828298568726,4.083560407161713 18.07030588388443,2.4963313713669777 18.07030588388443,2.4963313713669777 19.67104971408844,1.2555270455777645 19.67104971408844,1.2555270455777645 21.50615006685257,0.41311876848340034 21.50615006685257,0.41311876848340034 23.513256013393402,0.021561018365900964 23.513256013393402,0.021561018365900964 25.62929093837738,0.1325841643847525 25.62929093837738,0.1325841643847525 26.380950212478638,0.30306102707982063 26.380950212478638,0.30306102707982063 27.108153700828552,0.5346810445189476 27.108153700828552,0.5346810445189476 27.816608548164368,0.8133652620017529 27.816608548164368,0.8133652620017529 28.51235568523407,1.1248736642301083 28.51235568523407,1.1248736642301083 29.20166254043579,1.4553687535226345 29.20166254043579,1.4553687535226345 29.89000678062439,1.7905298620462418 29.89000678062439,1.7905298620462418 58.02617073059082,15.360455214977264 58.02617073059082,15.360455214977264 58.60268473625183,15.638013184070587 58.60268473625183,15.638013184070587 59.17879939079285,15.91557115316391 59.17879939079285,15.91557115316391 59.75491404533386,16.19345098733902 59.75491404533386,16.19345098733902 60.330867767333984,16.47133082151413 60.330867767333984,16.47133082151413 60.907137393951416,16.749291121959686 60.907137393951416,16.749291121959686 61.483657360076904,17.027412354946136 61.483657360076904,17.027412354946136 62.00868487358093,17.28871762752533 62.00868487358093,17.28871762752533 62.52928376197815,17.570701241493225 62.52928376197815,17.570701241493225 63.035404682159424,17.88019835948944 63.035404682159424,17.88019835948944 63.51698637008667,18.223485350608826 63.51698637008667,18.223485350608826 63.964301347732544,18.60731989145279 63.964301347732544,18.60731989145279 64.3670380115509,19.038057327270508 64.3670380115509,19.038057327270508 64.69833850860596,19.68705952167511 64.69833850860596,19.68705952167511 64.65240120887756,20.288756489753723 64.65240120887756,20.288756489753723 64.3261730670929,20.83534449338913 64.3261730670929,20.83534449338913 63.81642818450928,21.31901979446411 63.81642818450928,21.31901979446411 63.22028636932373,21.73221856355667 63.22028636932373,21.73221856355667 62.634432315826416,22.06689715385437 62.634432315826416,22.06689715385437 61.53852343559265,22.613807022571564 61.53852343559265,22.613807022571564 60.40882468223572,23.11083674430847 60.40882468223572,23.11083674430847 59.25804376602173,23.572789132595062 59.25804376602173,23.572789132595062 58.098578453063965,24.014388024806976 58.098578453063965,24.014388024806976 56.94321393966675,24.450597167015076 56.94321393966675,24.450597167015076 55.80441951751709,24.89621788263321 55.80441951751709,24.89621788263321 24.81319159269333,37.418341636657715 24.81319159269333,37.418341636657715 11.333372443914413,42.864590883255005 11.333372443914413,42.864590883255005 10.165376216173172,43.37489604949951 10.165376216173172,43.37489604949951 8.819180727005005,43.985602259635925 8.819180727005005,43.985602259635925 7.376764714717865,44.59124207496643 7.376764714717865,44.59124207496643 5.919867008924484,45.08602023124695 5.919867008924484,45.08602023124695 4.530549049377441,45.36430239677429 4.530549049377441,45.36430239677429" stroke="white" stroke-width="0.1" /></svg>