<?xml version="1.0" encoding="utf-8" ?>
<svg baseProfile="full" height="99.96984601020813" version="1.1" width="98.43044877052307" xmlns="http://www.w3.org/2000/svg" xmlns:ev="http://www.w3.org/2001/xml-events" xmlns:xlink="http://www.w3.org/1999/xlink"><defs><clipPath /></defs><polygon points="92.94036626815796,52.42503881454468 92.94036626815796,52.42503881454468 92.94036626815796,52.42503881454468 92.94036626815796,52.42503881454468 95.51587700843811,52.95372009277344 95.51587700843811,52.95372009277344 97.13490605354309,54.3632447719574 97.13490605354309,54.3632447719574 98.01526665687561,56.3890278339386 98.01526665687561,56.3890278339386 98.37444424629211,58.76632332801819 98.37444424629211,58.76632332801819 98.43044877052307,61.23071312904358 98.43044877052307,61.23071312904358 98.40072989463806,63.51736783981323 98.40072989463806,63.51736783981323 98.40072989463806,79.706209897995 98.40072989463806,79.706209897995 98.40072989463806,83.59504342079163 98.40072989463806,83.59504342079163 98.19231629371643,85.14947891235352 98.19231629371643,85.14947891235352 97.60480523109436,86.50344014167786 97.60480523109436,86.50344014167786 96.69468998908997,87.6203179359436 96.69468998908997,87.6203179359436 95.51854133605957,88.46334218978882 95.51854133605957,88.46334218978882 94.13292407989502,88.99613618850708 94.13292407989502,88.99613618850708 92.59457588195801,89.18185234069824 92.59457588195801,89.18185234069824 85.38204431533813,89.18185234069824 85.38204431533813,89.18185234069824 84.37944054603577,89.20459151268005 84.37944054603577,89.20459151268005 83.32231640815735,89.24676775932312 83.32231640815735,89.24676775932312 82.24124312400818,89.2700731754303 82.24124312400818,89.2700731754303 81.1667799949646,89.23547863960266 81.1667799949646,89.23547863960266 80.1296591758728,89.10459876060486 80.1296591758728,89.10459876060486 79.16043400764465,88.83864283561707 79.16043400764465,88.83864283561707 77.25678086280823,87.63185143470764 77.25678086280823,87.63185143470764 76.13768577575684,85.89088916778564 76.13768577575684,85.89088916778564 75.60771107673645,83.78809690475464 75.60771107673645,83.78809690475464 75.47118663787842,81.4951479434967 75.47118663787842,81.4951479434967 75.5327582359314,79.1843831539154 75.5327582359314,79.1843831539154 75.59674382209778,77.02763676643372 75.59674382209778,77.02763676643372 75.59674382209778,60.70848107337952 75.59674382209778,60.70848107337952 75.58416724205017,59.77756381034851 75.58416724205017,59.77756381034851 75.572270154953,58.831000328063965 75.572270154953,58.831000328063965 75.60029625892639,57.88426995277405 75.60029625892639,57.88426995277405 75.7071852684021,56.952548027038574 75.7071852684021,56.952548027038574 75.93213319778442,56.051623821258545 75.93213319778442,56.051623821258545 76.31412744522095,55.1965057849884 76.31412744522095,55.1965057849884 76.67278051376343,54.709917306900024 76.67278051376343,54.709917306900024 77.11263298988342,54.27002310752869 77.11263298988342,54.27002310752869 77.57406234741211,53.85109186172485 77.57406234741211,53.85109186172485 77.99718379974365,53.42716574668884 77.99718379974365,53.42716574668884 78.3222496509552,52.97242999076843 78.3222496509552,52.97242999076843 78.48950028419495,52.46116518974304 78.48950028419495,52.46116518974304 78.5671591758728,51.89208388328552 78.5671591758728,51.89208388328552 78.65989208221436,51.32380127906799 78.65989208221436,51.32380127906799 78.77045273780823,50.758349895477295 78.77045273780823,50.758349895477295 78.90141606330872,50.19732713699341 78.90141606330872,50.19732713699341 79.05547618865967,49.64268207550049 79.05547618865967,49.64268207550049 79.23526763916016,49.09617602825165 79.23526763916016,49.09617602825165 79.4504165649414,48.56104254722595 79.4504165649414,48.56104254722595 79.76177334785461,47.956639528274536 79.76177334785461,47.956639528274536 80.15973567962646,47.40094244480133 80.15973567962646,47.40094244480133 80.63458800315857,47.011688351631165 80.63458800315857,47.011688351631165 81.1769425868988,46.9070166349411 81.1769425868988,46.9070166349411 81.77707195281982,47.20466136932373 81.77707195281982,47.20466136932373 82.1246325969696,47.56730496883392 82.1246325969696,47.56730496883392 82.41187930107117,47.99083173274994 82.41187930107117,47.99083173274994 82.6479971408844,48.45637083053589 82.6479971408844,48.45637083053589 82.84189701080322,48.94465208053589 82.84189701080322,48.94465208053589 83.00273418426514,49.43704605102539 83.00273418426514,49.43704605102539 83.13958048820496,49.914199113845825 83.13958048820496,49.914199113845825 83.2197368144989,50.34933686256409 83.2197368144989,50.34933686256409 83.28521847724915,50.88399052619934 83.28521847724915,50.88399052619934 83.36795568466187,51.43863558769226 83.36795568466187,51.43863558769226 83.49964618682861,51.933449506759644 83.49964618682861,51.933449506759644 83.7122917175293,52.28875279426575 83.7122917175293,52.28875279426575 84.03760194778442,52.42503881454468 84.03760194778442,52.42503881454468 86.53295636177063,52.42503881454468 86.53295636177063,52.42503881454468" stroke="white" stroke-width="0.1" /><polygon points="94.83704566955566,67.44877696037292 94.83704566955566,67.44877696037292 94.83704566955566,67.44877696037292 94.83704566955566,67.44877696037292 94.87954378128052,65.20187854766846 94.87954378128052,65.20187854766846 94.86389756202698,62.784504890441895 94.86389756202698,62.784504890441895 94.57544684410095,60.430753231048584 94.57544684410095,60.430753231048584 93.79939436912537,58.37424397468567 93.79939436912537,58.37424397468567 92.3213243484497,56.84916377067566 92.3213243484497,56.84916377067566 89.92632627487183,56.08936548233032 89.92632627487183,56.08936548233032 87.63971328735352,55.94501495361328 87.63971328735352,55.94501495361328 85.2290689945221,56.04202747344971 85.2290689945221,56.04202747344971 82.93507695198059,56.51998519897461 82.93507695198059,56.51998519897461 80.9984028339386,57.51799941062927 80.9984028339386,57.51799941062927 79.66000437736511,59.17573571205139 79.66000437736511,59.17573571205139 79.16043400764465,61.63230538368225 79.16043400764465,61.63230538368225 79.12894487380981,63.94428014755249 79.12894487380981,63.94428014755249 79.18095588684082,66.44600629806519 79.18095588684082,66.44600629806519 79.53653931617737,68.86547803878784 79.53653931617737,68.86547803878784 80.4154098033905,70.93045115470886 80.4154098033905,70.93045115470886 82.03782439231873,72.36908674240112 82.03782439231873,72.36908674240112 84.62337851524353,72.90914058685303 84.62337851524353,72.90914058685303 86.80729866027832,72.96285033226013 86.80729866027832,72.96285033226013 89.09834623336792,72.8390634059906 89.09834623336792,72.8390634059906 91.27174615859985,72.38191366195679 91.27174615859985,72.38191366195679 93.10245513916016,71.43510580062866 93.10245513916016,71.43510580062866 94.36590075492859,69.8427677154541 94.36590075492859,69.8427677154541" stroke="white" stroke-width="0.1" /><polygon points="73.82135391235352,25.93350112438202 73.82135391235352,25.93350112438202 73.82135391235352,25.93350112438202 73.82135391235352,25.93350112438202 74.90774989128113,28.555139899253845 74.90774989128113,28.555139899253845 75.99406242370605,31.176456809043884 75.99406242370605,31.176456809043884 77.08021998405457,33.79761278629303 77.08021998405457,33.79761278629303 78.16612720489502,36.41876578330994 78.16612720489502,36.41876578330994 79.25179600715637,39.04000222682953 79.25179600715637,39.04000222682953 80.33714890480042,41.6617214679718 80.33714890480042,41.6617214679718 79.52597737312317,41.80445671081543 79.52597737312317,41.80445671081543 78.75049114227295,42.050331830978394 78.75049114227295,42.050331830978394 78.0169427394867,42.39265322685242 78.0169427394867,42.39265322685242 77.3312509059906,42.82480776309967 77.3312509059906,42.82480776309967 76.69970989227295,43.34034621715546 76.69970989227295,43.34034621715546 76.12833380699158,43.93257200717926 76.12833380699158,43.93257200717926 75.71649551391602,44.453996419906616 75.71649551391602,44.453996419906616 75.3460705280304,45.00453472137451 75.3460705280304,45.00453472137451 75.0141978263855,45.57974636554718 75.0141978263855,45.57974636554718 74.7179627418518,46.1747944355011 74.7179627418518,46.1747944355011 74.454665184021,46.78508639335632 74.454665184021,46.78508639335632 74.22133088111877,47.40594029426575 74.22133088111877,47.40594029426575 74.0980327129364,47.77398705482483 74.0980327129364,47.77398705482483 73.98332357406616,48.14477562904358 73.98332357406616,48.14477562904358 73.87683391571045,48.51830303668976 73.87683391571045,48.51830303668976 73.77796769142151,48.89392852783203 73.77796769142151,48.89392852783203 73.68656396865845,49.2716521024704 73.68656396865845,49.2716521024704 73.60200881958008,49.65098798274994 73.60200881958008,49.65098798274994 73.4832227230072,50.041770935058594 73.4832227230072,50.041770935058594 73.31492900848389,50.374817848205566 73.31492900848389,50.374817848205566 73.10816645622253,50.67222714424133 73.10816645622253,50.67222714424133 72.87406325340271,50.95624327659607 72.87406325340271,50.95624327659607 72.62383699417114,51.24921202659607 72.62383699417114,51.24921202659607 72.36852645874023,51.57346725463867 72.36852645874023,51.57346725463867 71.48058414459229,53.045809268951416 71.48058414459229,53.045809268951416 70.89368104934692,54.56662178039551 70.89368104934692,54.56662178039551 70.54571509361267,56.1316192150116 70.54571509361267,56.1316192150116 70.37414908409119,57.73589015007019 70.37414908409119,57.73589015007019 70.31701803207397,59.374839067459106 70.31701803207397,59.374839067459106 70.31185626983643,61.04394793510437 70.31185626983643,61.04394793510437 70.31185626983643,81.27774000167847 70.31185626983643,81.27774000167847 69.93042230606079,81.76416754722595 69.93042230606079,81.76416754722595 68.96100044250488,82.3013186454773 68.96100044250488,82.3013186454773 67.66586303710938,82.84007906913757 67.66586303710938,82.84007906913757 66.3071870803833,83.33094120025635 66.3071870803833,83.33094120025635 65.14756679534912,83.7246298789978 65.14756679534912,83.7246298789978 64.44893479347229,83.97179841995239 64.44893479347229,83.97179841995239 49.10004734992981,90.32889008522034 49.10004734992981,90.32889008522034 33.56536626815796,96.76339626312256 33.56536626815796,96.76339626312256 32.251644134521484,97.34078645706177 32.251644134521484,97.34078645706177 30.895987153053284,97.96873927116394 30.895987153053284,97.96873927116394 29.5097678899765,98.59426617622375 29.5097678899765,98.59426617622375 28.104397654533386,99.16375279426575 28.104397654533386,99.16375279426575 26.69132351875305,99.62413311004639 26.69132351875305,99.62413311004639 25.28192102909088,99.92194175720215 25.28192102909088,99.92194175720215 23.478466272354126,99.96984601020813 23.478466272354126,99.96984601020813 21.735329926013947,99.62204098701477 21.735329926013947,99.62204098701477 20.115090906620026,98.91409277915955 20.115090906620026,98.91409277915955 18.68012547492981,97.88123965263367 18.68012547492981,97.88123965263367 17.493170499801636,96.55905365943909 17.493170499801636,96.55905365943909 16.616562008857727,94.98284459114075 16.616562008857727,94.98284459114075 16.427096724510193,94.52609419822693 16.427096724510193,94.52609419822693 16.23787134885788,94.06926035881042 16.23787134885788,94.06926035881042 16.048850119113922,93.61242651939392 16.048850119113922,93.61242651939392 15.859746932983398,93.15535426139832 15.859746932983398,93.15535426139832 15.670521557331085,92.69828200340271 15.670521557331085,92.69828200340271 15.481136739253998,92.24104881286621 15.481136739253998,92.24104881286621 9.659501910209656,78.18629145622253 9.659501910209656,78.18629145622253 3.1153231859207153,62.38839626312256 3.1153231859207153,62.38839626312256 2.4116497486829758,60.79170107841492 2.4116497486829758,60.79170107841492 1.6474956646561623,59.10307765007019 1.6474956646561623,59.10307765007019 0.927048921585083,57.35397934913635 0.927048921585083,57.35397934913635 0.3544978331774473,55.57519793510437 0.3544978331774473,55.57519793510437 0.034191785380244255,53.797948360443115 0.034191785380244255,53.797948360443115 0.07031895220279694,52.05344557762146 0.07031895220279694,52.05344557762146 1.2134051881730556,53.17080616950989 1.2134051881730556,53.17080616950989 2.5132978335022926,54.1222870349884 2.5132978335022926,54.1222870349884 3.9230234920978546,54.94587421417236 3.9230234920978546,54.94587421417236 5.395487695932388,55.67922592163086 5.395487695932388,55.67922592163086 6.88379779458046,56.36047720909119 6.88379779458046,56.36047720909119 8.340860158205032,57.02738165855408 8.340860158205032,57.02738165855408 20.34282088279724,62.68644332885742 20.34282088279724,62.68644332885742 22.439689934253693,63.67542743682861 22.439689934253693,63.67542743682861 24.536798894405365,64.66408371925354 24.536798894405365,64.66408371925354 26.634109020233154,65.65290093421936 26.634109020233154,65.65290093421936 28.731301426887512,66.64172410964966 28.731301426887512,66.64172410964966 30.828529596328735,67.63086318969727 30.828529596328735,67.63086318969727 32.92539715766907,68.62033009529114 32.92539715766907,68.62033009529114 34.08566117286682,69.1822350025177 34.08566117286682,69.1822350025177 35.253021121025085,69.76285576820374 35.253021121025085,69.76285576820374 36.42941117286682,70.34007906913757 36.42941117286682,70.34007906913757 37.61668801307678,70.89174389839172 37.61668801307678,70.89174389839172 38.816988468170166,71.39591574668884 38.816988468170166,71.39591574668884 40.03212749958038,71.83048725128174 40.03212749958038,71.83048725128174 43.857333064079285,72.5128710269928 43.857333064079285,72.5128710269928 47.51400053501129,72.15151786804199 47.51400053501129,72.15151786804199 50.87447166442871,70.85763216018677 50.87447166442871,70.85763216018677 53.811055421829224,68.74226331710815 53.811055421829224,68.74226331710815 56.19621276855469,65.91643691062927 56.19621276855469,65.91643691062927 57.902175188064575,62.4916136264801 57.902175188064575,62.4916136264801 62.172919511795044,50.6044864654541 62.172919511795044,50.6044864654541 63.153356313705444,47.8742241859436 63.153356313705444,47.8742241859436 64.13342356681824,45.14380097389221 64.13342356681824,45.14380097389221 65.11341333389282,42.41329729557037 65.11341333389282,42.41329729557037 66.0933256149292,39.68271017074585 66.0933256149292,39.68271017074585 67.07347631454468,36.952367424964905 67.07347631454468,36.952367424964905 68.0539071559906,34.22210514545441 68.0539071559906,34.22210514545441 68.7476634979248,32.39574730396271 68.7476634979248,32.39574730396271 69.49552893638611,30.47947585582733 69.49552893638611,30.47947585582733 70.20605802536011,28.506916761398315 70.20605802536011,28.506916761398315 70.78747749328613,26.511454582214355 70.78747749328613,26.511454582214355 71.14834785461426,24.526798725128174 71.14834785461426,24.526798725128174 71.19697332382202,22.586576640605927 71.19697332382202,22.586576640605927 71.75355553627014,23.040585219860077 71.75355553627014,23.040585219860077 72.26731777191162,23.540882766246796 72.26731777191162,23.540882766246796 72.73463606834412,24.08391833305359 72.73463606834412,24.08391833305359 73.15179109573364,24.666066467761993 73.15179109573364,24.666066467761993 73.51527810096741,25.28369426727295 73.51527810096741,25.28369426727295" stroke="white" stroke-width="0.1" /><polygon points="3.23660708963871,45.60861587524414 3.23660708963871,45.60861587524414 3.23660708963871,45.60861587524414 3.23660708963871,45.60861587524414 2.618413232266903,45.24911642074585 2.618413232266903,45.24911642074585 2.30532456189394,44.653502106666565 2.30532456189394,44.653502106666565 2.2253690287470818,43.911123275756836 2.2253690287470818,43.911123275756836 2.3064132779836655,43.111324310302734 2.3064132779836655,43.111324310302734 2.4765657261013985,42.343783378601074 2.4765657261013985,42.343783378601074 2.663733623921871,41.697847843170166 2.663733623921871,41.697847843170166 4.071160778403282,37.34928369522095 4.071160778403282,37.34928369522095 5.579147860407829,33.02394151687622 5.579147860407829,33.02394151687622 7.153824716806412,28.71577739715576 7.153824716806412,28.71577739715576 8.761120587587357,24.418659508228302 8.761120587587357,24.418659508228302 10.36720722913742,20.126622915267944 10.36720722913742,20.126622915267944 11.938093602657318,15.833376348018646 11.938093602657318,15.833376348018646 12.523709237575531,14.203783869743347 12.523709237575531,14.203783869743347 13.108961284160614,12.574189901351929 13.108961284160614,12.574189901351929 13.69413286447525,10.94459667801857 13.69413286447525,10.94459667801857 14.27922248840332,9.314922988414764 14.27922248840332,9.314922988414764 14.86455649137497,7.685410231351852 14.86455649137497,7.685410231351852 15.450170636177063,6.055816635489464 15.450170636177063,6.055816635489464 16.379275918006897,4.160914570093155 16.379275918006897,4.160914570093155 17.67207235097885,2.5575293228030205 17.67207235097885,2.5575293228030205 19.266103208065033,1.298965234309435 19.266103208065033,1.298965234309435 21.098750829696655,0.4377999808639288 21.098750829696655,0.4377999808639288 23.10771942138672,0.027417941601015627 23.10771942138672,0.027417941601015627 25.23031234741211,0.1206389395520091 25.23031234741211,0.1206389395520091 25.984343886375427,0.28530785348266363 25.984343886375427,0.28530785348266363 26.71475112438202,0.5114252213388681 26.71475112438202,0.5114252213388681 27.427294850349426,0.7849595509469509 27.427294850349426,0.7849595509469509 28.127500414848328,1.0913953185081482 28.127500414848328,1.0913953185081482 28.821173310279846,1.416701078414917 28.821173310279846,1.416701078414917 29.51396107673645,1.7463615164160728 29.51396107673645,1.7463615164160728 34.23371911048889,3.9720531553030014 34.23371911048889,3.9720531553030014 38.953474164009094,6.197744980454445 38.953474164009094,6.197744980454445 43.673232197761536,8.423597365617752 43.673232197761536,8.423597365617752 48.392948508262634,10.649369657039642 48.392948508262634,10.649369657039642 53.11270356178284,12.875545024871826 53.11270356178284,12.875545024871826 57.83250331878662,15.101802349090576 57.83250331878662,15.101802349090576 58.412957191467285,15.37533551454544 58.412957191467285,15.37533551454544 58.99304747581482,15.648870170116425 58.99304747581482,15.648870170116425 59.57305431365967,15.922404825687408 59.57305431365967,15.922404825687408 60.15298366546631,16.195857524871826 60.15298366546631,16.195857524871826 60.73315739631653,16.469472646713257 60.73315739631653,16.469472646713257 61.31361126899719,16.74300730228424 61.31361126899719,16.74300730228424 61.842453479766846,17.000412940979004 61.842453479766846,17.000412940979004 62.3670220375061,17.277979850769043 62.3670220375061,17.277979850769043 62.87739872932434,17.58280247449875 62.87739872932434,17.58280247449875 63.36362361907959,17.921817302703857 63.36362361907959,17.921817302703857 63.81598114967346,18.30236166715622 63.81598114967346,18.30236166715622 64.2244279384613,18.731291592121124 64.2244279384613,18.731291592121124 64.56348299980164,19.37924176454544 64.56348299980164,19.37924176454544 64.52288031578064,19.982920587062836 64.52288031578064,19.982920587062836 64.20023441314697,20.533940196037292 64.20023441314697,20.533940196037292 63.69280219078064,21.023431420326233 63.69280219078064,21.023431420326233 63.098156452178955,21.443086862564087 63.098156452178955,21.443086862564087 62.513548135757446,21.784037351608276 62.513548135757446,21.784037351608276 61.41896843910217,22.34150916337967 61.41896843910217,22.34150916337967 60.29036045074463,22.849546372890472 60.29036045074463,22.849546372890472 59.14049744606018,23.322829604148865 59.14049744606018,23.322829604148865 57.98172950744629,23.775869607925415 57.98172950744629,23.775869607925415 56.826746463775635,24.22367036342621 56.826746463775635,24.22367036342621 55.68809509277344,24.680662155151367 55.68809509277344,24.680662155151367 24.737434089183807,37.50064671039581 24.737434089183807,37.50064671039581 11.27232164144516,43.07842254638672 11.27232164144516,43.07842254638672 10.109922289848328,43.59871745109558 10.109922289848328,43.59871745109558 8.765757828950882,44.222959876060486 8.765757828950882,44.222959876060486 7.323170453310013,44.84381675720215 7.323170453310013,44.84381675720215 5.865221470594406,45.35330533981323 5.865221470594406,45.35330533981323 4.475333541631699,45.644259452819824 4.475333541631699,45.644259452819824" stroke="white" stroke-width="0.1" /></svg>