<?xml version="1.0" encoding="utf-8" ?>
<svg baseProfile="full" height="96.15408182144165" version="1.1" width="99.99739527702332" xmlns="http://www.w3.org/2000/svg" xmlns:ev="http://www.w3.org/2001/xml-events" xmlns:xlink="http://www.w3.org/1999/xlink"><defs><clipPath /></defs><polygon points="75.29926300048828,51.907289028167725 75.29926300048828,51.907289028167725 75.29926300048828,51.907289028167725 75.29926300048828,51.907289028167725 72.41637706756592,52.304911613464355 72.41637706756592,52.304911613464355 69.80700492858887,53.42300534248352 69.80700492858887,53.42300534248352 67.58291721343994,55.150020122528076 67.58291721343994,55.150020122528076 65.85590243339539,57.37394690513611 65.85590243339539,57.37394690513611 64.73773121833801,59.98331904411316 64.73773121833801,59.98331904411316 64.34018611907959,62.86635994911194 64.34018611907959,62.86635994911194 64.37090635299683,63.42052221298218 64.37090635299683,63.42052221298218 64.44277167320251,63.97460103034973 64.44277167320251,63.97460103034973 64.52542543411255,64.52666521072388 64.52542543411255,64.52666521072388 64.58837389945984,65.07477760314941 64.58837389945984,65.07477760314941 64.60132598876953,65.6170666217804 64.60132598876953,65.6170666217804 64.53379988670349,66.1516010761261 64.53379988670349,66.1516010761261 64.47465419769287,66.44729971885681 64.47465419769287,66.44729971885681 64.42621350288391,66.7445421218872 64.42621350288391,66.7445421218872 64.38859105110168,67.0431911945343 64.38859105110168,67.0431911945343 64.36167359352112,67.34291911125183 64.36167359352112,67.34291911125183 64.34553861618042,67.64357686042786 64.34553861618042,67.64357686042786 64.34018611907959,67.94501543045044 64.34018611907959,67.94501543045044 64.34018611907959,69.26060318946838 64.34018611907959,69.26060318946838 64.34018611907959,75.09509921073914 64.34018611907959,75.09509921073914 64.35337662696838,75.57401657104492 64.35337662696838,75.57401657104492 64.38354849815369,76.51307582855225 64.38354849815369,76.51307582855225 64.41682577133179,77.670419216156 64.41682577133179,77.670419216156 64.4390881061554,78.80409955978394 64.4390881061554,78.80409955978394 64.43645358085632,79.67242002487183 64.43645358085632,79.67242002487183 64.3947958946228,80.03350496292114 64.3947958946228,80.03350496292114 63.912004232406616,80.22851943969727 63.912004232406616,80.22851943969727 63.42920660972595,80.42352795600891 63.42920660972595,80.42352795600891 62.946414947509766,80.61869740486145 62.946414947509766,80.61869740486145 62.463581562042236,80.8137059211731 62.463581562042236,80.8137059211731 61.980825662612915,81.00886940956116 61.980825662612915,81.00886940956116 61.49802803993225,81.20388388633728 61.49802803993225,81.20388388633728 47.766295075416565,86.7516815662384 47.766295075416565,86.7516815662384 32.33174979686737,92.98830032348633 32.33174979686737,92.98830032348633 30.99879026412964,93.56107711791992 30.99879026412964,93.56107711791992 29.62198257446289,94.18667554855347 29.62198257446289,94.18667554855347 28.21371853351593,94.81041431427002 28.21371853351593,94.81041431427002 26.78639590740204,95.37745118141174 26.78639590740204,95.37745118141174 25.352495908737183,95.83340883255005 25.352495908737183,95.83340883255005 23.924414813518524,96.12336158752441 23.924414813518524,96.12336158752441 22.188982367515564,96.15408182144165 22.188982367515564,96.15408182144165 20.51500529050827,95.80494165420532 20.51500529050827,95.80494165420532 18.962424993515015,95.11045813560486 18.962424993515015,95.11045813560486 17.591027915477753,94.10514831542969 17.591027915477753,94.10514831542969 16.460679471492767,92.8236186504364 16.460679471492767,92.8236186504364 15.631262958049774,91.30038022994995 15.631262958049774,91.30038022994995 15.452736616134644,90.8591628074646 15.452736616134644,90.8591628074646 15.27446061372757,90.41794538497925 15.27446061372757,90.41794538497925 15.096341073513031,89.9767279624939 15.096341073513031,89.9767279624939 14.91820216178894,89.53543305397034 14.91820216178894,89.53543305397034 14.739927649497986,89.09421563148499 14.739927649497986,89.09421563148499 14.561419188976288,88.65307569503784 14.561419188976288,88.65307569503784 9.080641716718674,75.08516907691956 9.080641716718674,75.08516907691956 2.919730544090271,59.83430743217468 2.919730544090271,59.83430743217468 2.2560231387615204,58.291518688201904 2.2560231387615204,58.291518688201904 1.5351856127381325,56.66077136993408 1.5351856127381325,56.66077136993408 0.8569921366870403,54.97254133224487 0.8569921366870403,54.97254133224487 0.32108116429299116,53.257155418395996 0.32108116429299116,53.257155418395996 0.027227032114751637,51.54511332511902 0.027227032114751637,51.54511332511902 0.0750876497477293,49.86688792705536 0.0750876497477293,49.86688792705536 1.1670195497572422,50.95115900039673 1.1670195497572422,50.95115900039673 2.4096697568893433,51.87718868255615 2.4096697568893433,51.87718868255615 3.758106008172035,52.681124210357666 3.758106008172035,52.681124210357666 5.167318135499954,53.39887738227844 5.167318135499954,53.39887738227844 6.59245178103447,54.06690835952759 6.59245178103447,54.06690835952759 7.988457381725311,54.72090244293213 7.988457381725311,54.72090244293213 19.48617696762085,60.26497483253479 19.48617696762085,60.26497483253479 31.5399169921875,66.07713103294373 31.5399169921875,66.07713103294373 32.65087306499481,66.62741303443909 32.65087306499481,66.62741303443909 33.76849889755249,67.19568967819214 33.76849889755249,67.19568967819214 34.894970059394836,67.76071190834045 34.894970059394836,67.76071190834045 36.032357811927795,68.30121874809265 36.032357811927795,68.30121874809265 37.18291223049164,68.79634857177734 37.18291223049164,68.79634857177734 38.348689675331116,69.22460794448853 38.348689675331116,69.22460794448853 42.02185869216919,69.91342902183533 42.02185869216919,69.91342902183533 45.54182291030884,69.59671378135681 45.54182291030884,69.59671378135681 48.78494441509247,68.38049292564392 48.78494441509247,68.38049292564392 51.62733793258667,66.3705825805664 51.62733793258667,66.3705825805664 53.945356607437134,63.67316246032715 53.945356607437134,63.67316246032715 55.615127086639404,60.394054651260376 55.615127086639404,60.394054651260376 56.31635785102844,58.49405527114868 56.31635785102844,58.49405527114868 57.01758861541748,56.594061851501465 57.01758861541748,56.594061851501465 57.718825340270996,54.69421744346619 57.718825340270996,54.69421744346619 58.420056104660034,52.7942955493927 58.420056104660034,52.7942955493927 59.12128686904907,50.89437961578369 59.12128686904907,50.89437961578369 59.82251763343811,48.994383215904236 59.82251763343811,48.994383215904236 65.61853885650635,33.28678905963898 65.61853885650635,33.28678905963898 66.30095839500427,31.53533935546875 66.30095839500427,31.53533935546875 67.0358955860138,29.698407649993896 67.0358955860138,29.698407649993896 67.73526668548584,27.807408571243286 67.73526668548584,27.807408571243286 68.31091046333313,25.89329481124878 68.31091046333313,25.89329481124878 68.67475509643555,23.987247049808502 68.67475509643555,23.987247049808502 68.73871088027954,22.12045043706894 68.73871088027954,22.12045043706894 69.73878145217896,23.050589859485626 69.73878145217896,23.050589859485626 70.54356932640076,24.126407504081726 70.54356932640076,24.126407504081726 71.1998462677002,25.30841827392578 71.1998462677002,25.30841827392578 71.75431847572327,26.55651569366455 71.75431847572327,26.55651569366455 72.25379347801208,27.831456065177917 72.25379347801208,27.831456065177917 72.7450430393219,29.093050956726074 72.7450430393219,29.093050956726074 77.08895206451416,39.848580956459045 77.08895206451416,39.848580956459045 81.29634261131287,50.26156306266785 81.29634261131287,50.26156306266785 82.22718238830566,52.57004499435425 82.22718238830566,52.57004499435425 82.23416805267334,52.5845468044281 82.23416805267334,52.5845468044281 82.24564790725708,52.60680913925171 82.24564790725708,52.60680913925171 82.2588324546814,52.6330292224884 82.2588324546814,52.6330292224884 82.27069973945618,52.659404277801514 82.27069973945618,52.659404277801514 82.27853775024414,52.682286500930786 82.27853775024414,52.682286500930786 82.27931261062622,52.69787907600403 82.27931261062622,52.69787907600403 81.91783428192139,52.86573767662048 81.91783428192139,52.86573767662048 81.59514665603638,53.03685665130615 81.59514665603638,53.03685665130615 81.29200339317322,53.18005084991455 81.29200339317322,53.18005084991455 80.9892475605011,53.263986110687256 80.9892475605011,53.263986110687256 80.66779375076294,53.25770378112793 80.66779375076294,53.25770378112793 80.3084135055542,53.129786252975464 80.3084135055542,53.129786252975464 79.5219361782074,52.7621865272522 79.5219361782074,52.7621865272522 78.7096619606018,52.45819091796875 78.7096619606018,52.45819091796875 77.87644267082214,52.219271659851074 77.87644267082214,52.219271659851074 77.02705264091492,52.04683542251587 77.02705264091492,52.04683542251587 76.16641521453857,51.9422709941864 76.16641521453857,51.9422709941864" stroke="white" stroke-width="0.1" /><polygon points="98.69434237480164,66.2806749343872 98.69434237480164,66.2806749343872 98.69434237480164,66.2806749343872 98.69434237480164,66.2806749343872 99.39662218093872,66.56574606895447 99.39662218093872,66.56574606895447 99.7957170009613,67.30102896690369 99.7957170009613,67.30102896690369 99.96989965438843,68.30664873123169 99.96989965438843,68.30664873123169 99.99739527702332,69.40262913703918 99.99739527702332,69.40262913703918 99.95651841163635,70.40948867797852 99.95651841163635,70.40948867797852 99.92552995681763,71.14710211753845 99.92552995681763,71.14710211753845 99.92552995681763,77.82555818557739 99.92552995681763,77.82555818557739 99.9243676662445,78.24785113334656 99.9243676662445,78.24785113334656 99.90226030349731,78.69550585746765 99.90226030349731,78.69550585746765 99.83120560646057,79.13509607315063 99.83120560646057,79.13509607315063 99.6832013130188,79.53287363052368 99.6832013130188,79.53287363052368 99.43020939826965,79.85556125640869 99.43020939826965,79.85556125640869 99.04433488845825,80.069500207901 99.04433488845825,80.069500207901 98.59776496887207,80.12503981590271 98.59776496887207,80.12503981590271 98.15999865531921,80.03133535385132 98.15999865531921,80.03133535385132 97.73619771003723,79.83043193817139 97.73619771003723,79.83043193817139 97.3313570022583,79.56397533416748 97.3313570022583,79.56397533416748 96.95072174072266,79.27394509315491 96.95072174072266,79.27394509315491 96.5993344783783,79.00213599205017 96.5993344783783,79.00213599205017 95.8656370639801,78.45604419708252 95.8656370639801,78.45604419708252 95.13159394264221,77.90995240211487 95.13159394264221,77.90995240211487 94.39727663993835,77.36386060714722 94.39727663993835,77.36386060714722 93.66269111633301,76.81769132614136 93.66269111633301,76.81769132614136 92.92806386947632,76.2715995311737 92.92806386947632,76.2715995311737 92.1933650970459,75.72558522224426 92.1933650970459,75.72558522224426 92.19266772270203,77.0098328590393 92.19266772270203,77.0098328590393 92.11905002593994,78.34799289703369 92.11905002593994,78.34799289703369 91.86539649963379,79.61199283599854 91.86539649963379,79.61199283599854 91.32434725761414,80.67353963851929 91.32434725761414,80.67353963851929 90.38885235786438,81.40455484390259 90.38885235786438,81.40455484390259 88.95156383514404,81.67674541473389 88.95156383514404,81.67674541473389 83.7736189365387,81.67674541473389 83.7736189365387,81.67674541473389 75.66911578178406,81.67674541473389 75.66911578178406,81.67674541473389 74.81859922409058,81.69784545898438 74.81859922409058,81.69784545898438 73.91049265861511,81.72670602798462 73.91049265861511,81.72670602798462 72.98612594604492,81.71165585517883 72.98612594604492,81.71165585517883 72.08678126335144,81.60111904144287 72.08678126335144,81.60111904144287 71.25375866889954,81.34358525276184 71.25375866889954,81.34358525276184 70.5284059047699,80.88739514350891 70.5284059047699,80.88739514350891 69.90101933479309,80.09603023529053 69.90101933479309,80.09603023529053 69.5436954498291,79.133540391922 69.5436954498291,79.133540391922 69.386887550354,78.06416153907776 69.386887550354,78.06416153907776 69.36097741127014,76.95189118385315 69.36097741127014,76.95189118385315 69.39650177955627,75.86094737052917 69.39650177955627,75.86094737052917 69.42380666732788,74.8555600643158 69.42380666732788,74.8555600643158 69.42380666732788,68.07036995887756 69.42380666732788,68.07036995887756 69.4351315498352,67.75404214859009 69.4351315498352,67.75404214859009 69.47042942047119,67.44344830513 69.47042942047119,67.44344830513 69.53178644180298,67.13937520980835 69.53178644180298,67.13937520980835 69.62122321128845,66.84259176254272 69.62122321128845,66.84259176254272 69.74095106124878,66.5540337562561 69.74095106124878,66.5540337562561 69.8929488658905,66.27447009086609 69.8929488658905,66.27447009086609 70.03622055053711,65.85365533828735 70.03622055053711,65.85365533828735 70.01551389694214,65.3981626033783 70.01551389694214,65.3981626033783 69.88860964775085,64.91668820381165 69.88860964775085,64.91668820381165 69.71330046653748,64.41729068756104 69.71330046653748,64.41729068756104 69.54737901687622,63.908588886260986 69.54737901687622,63.908588886260986 69.44863200187683,63.398802280426025 69.44863200187683,63.398802280426025 69.4397509098053,62.46144771575928 69.4397509098053,62.46144771575928 69.57945227622986,61.54162287712097 69.57945227622986,61.54162287712097 69.86036896705627,60.657793283462524 69.86036896705627,60.657793283462524 70.27509808540344,59.828025102615356 70.27509808540344,59.828025102615356 70.81630229949951,59.07094478607178 70.81630229949951,59.07094478607178 71.47662043571472,58.404541015625 71.47662043571472,58.404541015625 73.13207387924194,57.411956787109375 73.13207387924194,57.411956787109375 74.94438290596008,57.03062415122986 74.94438290596008,57.03062415122986 76.76595449447632,57.22159743309021 76.76595449447632,57.22159743309021 78.44910621643066,57.94563889503479 78.44910621643066,57.94563889503479 79.84625101089478,59.16379690170288 79.84625101089478,59.16379690170288 80.80982565879822,60.83713173866272 80.80982565879822,60.83713173866272 82.04613327980042,58.84948372840881 82.04613327980042,58.84948372840881 83.85103344917297,57.592540979385376 83.85103344917297,57.592540979385376 85.96357107162476,57.08104372024536 85.96357107162476,57.08104372024536 88.12280297279358,57.3294997215271 88.12280297279358,57.3294997215271 90.0679886341095,58.35288166999817 90.0679886341095,58.35288166999817 91.53805375099182,60.165685415267944 91.53805375099182,60.165685415267944 91.77025556564331,60.671985149383545 91.77025556564331,60.671985149383545 91.95258617401123,61.19728684425354 91.95258617401123,61.19728684425354 92.0844554901123,61.737096309661865 92.0844554901123,61.737096309661865 92.165207862854,62.28699088096619 92.165207862854,62.28699088096619 92.1942949295044,62.842315435409546 92.1942949295044,62.842315435409546 92.17102527618408,63.398802280426025 92.17102527618408,63.398802280426025 92.12990999221802,63.739484548568726 92.12990999221802,63.739484548568726 92.06878542900085,64.07707333564758 92.06878542900085,64.07707333564758 91.98795557022095,64.41046595573425 91.98795557022095,64.41046595573425 91.8876588344574,64.73843455314636 91.8876588344574,64.73843455314636 91.76820516586304,65.06019234657288 91.76820516586304,65.06019234657288 91.62989258766174,65.37466049194336 91.62989258766174,65.37466049194336 91.51881337165833,65.67981839179993 91.51881337165833,65.67981839179993 91.50881171226501,65.90345501899719 91.50881171226501,65.90345501899719 91.57497882843018,66.08566641807556 91.57497882843018,66.08566641807556 91.6921854019165,66.26648306846619 91.6921854019165,66.26648306846619 91.83553457260132,66.48600697517395 91.83553457260132,66.48600697517395 91.97989106178284,66.78457260131836 91.97989106178284,66.78457260131836 92.15085506439209,67.38938093185425 92.15085506439209,67.38938093185425 92.23381876945496,68.03686022758484 92.23381876945496,68.03686022758484 92.25417971611023,68.7081515789032 92.25417971611023,68.7081515789032 92.23726987838745,69.38424706459045 92.23726987838745,69.38424706459045 92.20852851867676,70.0463056564331 92.20852851867676,70.0463056564331 92.1933650970459,70.6754744052887 92.1933650970459,70.6754744052887 92.72188544273376,70.2832043170929 92.72188544273376,70.2832043170929 93.25006008148193,69.89077925682068 93.25006008148193,69.89077925682068 93.77796053886414,69.49827671051025 93.77796053886414,69.49827671051025 94.30562853813171,69.10569667816162 94.30562853813171,69.10569667816162 94.83321905136108,68.71318817138672 94.83321905136108,68.71318817138672 95.36069631576538,68.32107305526733 95.36069631576538,68.32107305526733 95.81948518753052,67.95448064804077 95.81948518753052,67.95448064804077 96.34687900543213,67.51620769500732 96.34687900543213,67.51620769500732 96.92047238349915,67.06816554069519 96.92047238349915,67.06816554069519 97.51783609390259,66.67162775993347 97.51783609390259,66.67162775993347 98.11660051345825,66.3886547088623 98.11660051345825,66.3886547088623" stroke="white" stroke-width="0.1" /><polygon points="3.1729187816381454,43.69728863239288 3.1729187816381454,43.69728863239288 3.1729187816381454,43.69728863239288 3.1729187816381454,43.69728863239288 2.581002190709114,43.346595764160156 2.581002190709114,43.346595764160156 2.2850150242447853,42.77087152004242 2.2850150242447853,42.77087152004242 2.2147754207253456,42.05591082572937 2.2147754207253456,42.05591082572937 2.300063520669937,41.28696024417877 2.300063520669937,41.28696024417877 2.470756135880947,40.550047159194946 2.470756135880947,40.550047159194946 2.656613476574421,39.930495619773865 2.656613476574421,39.930495619773865 4.050718992948532,35.75971722602844 4.050718992948532,35.75971722602844 5.538586899638176,31.612056493759155 5.538586899638176,31.612056493759155 7.088646292686462,27.481305599212646 7.088646292686462,27.481305599212646 8.669307827949524,23.361103236675262 8.669307827949524,23.361103236675262 10.249018669128418,19.2453995347023 10.249018669128418,19.2453995347023 11.79620772600174,15.127989649772644 11.79620772600174,15.127989649772644 12.373153120279312,13.565345108509064 12.373153120279312,13.565345108509064 12.949788570404053,12.002544105052948 12.949788570404053,12.002544105052948 13.526326417922974,10.439665615558624 13.526326417922974,10.439665615558624 14.10282552242279,8.87678787112236 14.10282552242279,8.87678787112236 14.679500460624695,7.3139093816280365 14.679500460624695,7.3139093816280365 15.256445109844208,5.751341953873634 15.256445109844208,5.751341953873634 16.166242957115173,3.9372924715280533 16.166242957115173,3.9372924715280533 17.4230694770813,2.40691602230072 17.4230694770813,2.40691602230072 18.96645873785019,1.2105557136237621 18.96645873785019,1.2105557136237621 20.735904574394226,0.39832135662436485 20.735904574394226,0.39832135662436485 22.67102152109146,0.020788729307241738 22.67102152109146,0.020788729307241738 24.711284041404724,0.12783517595380545 24.711284041404724,0.12783517595380545 25.436019897460938,0.29181791469454765 25.436019897460938,0.29181791469454765 26.13709568977356,0.5149089265614748 26.13709568977356,0.5149089265614748 26.8202543258667,0.7837661541998386 26.8202543258667,0.7837661541998386 27.49117612838745,1.0843494907021523 27.49117612838745,1.0843494907021523 28.15563976764679,1.403161697089672 28.15563976764679,1.403161697089672 28.819385170936584,1.7263954505324364 28.819385170936584,1.7263954505324364 55.947744846343994,14.809022843837738 55.947744846343994,14.809022843837738 56.50361180305481,15.077103674411774 56.50361180305481,15.077103674411774 57.05912709236145,15.345185995101929 57.05912709236145,15.345185995101929 57.61457085609436,15.613266825675964 57.61457085609436,15.613266825675964 58.16996693611145,15.881271660327911 58.16996693611145,15.881271660327911 58.725523948669434,16.149352490901947 58.725523948669434,16.149352490901947 59.28139090538025,16.41751229763031 59.28139090538025,16.41751229763031 59.78761315345764,16.66938066482544 59.78761315345764,16.66938066482544 60.289567708969116,16.941341757774353 60.289567708969116,16.941341757774353 60.77755689620972,17.239752411842346 60.77755689620972,17.239752411842346 61.24197244644165,17.570742964744568 61.24197244644165,17.570742964744568 61.673182249069214,17.940829694271088 61.673182249069214,17.940829694271088 62.06149458885193,18.356138467788696 62.06149458885193,18.356138467788696 62.38178014755249,18.981507420539856 62.38178014755249,18.981507420539856 62.337762117385864,19.561496376991272 62.337762117385864,19.561496376991272 62.023019790649414,20.088739693164825 62.023019790649414,20.088739693164825 61.5311861038208,20.55547684431076 61.5311861038208,20.55547684431076 60.955971479415894,20.95434218645096 60.955971479415894,20.95434218645096 60.39094924926758,21.27773016691208 60.39094924926758,21.27773016691208 59.334295988082886,21.804507076740265 59.334295988082886,21.804507076740265 58.24509859085083,22.283346951007843 58.24509859085083,22.283346951007843 57.13549852371216,22.728753089904785 57.13549852371216,22.728753089904785 56.01760149002075,23.154689371585846 56.01760149002075,23.154689371585846 54.903578758239746,23.57558310031891 54.903578758239746,23.57558310031891 53.805577754974365,24.00570809841156 53.805577754974365,24.00570809841156 23.924414813518524,36.07682287693024 23.924414813518524,36.07682287693024 10.92742532491684,41.32923483848572 10.92742532491684,41.32923483848572 9.801246225833893,41.82118475437164 9.801246225833893,41.82118475437164 8.50328877568245,42.40986108779907 8.50328877568245,42.40986108779907 7.112538069486618,42.99357533454895 7.112538069486618,42.99357533454895 5.7079024612903595,43.4705525636673 5.7079024612903595,43.4705525636673 4.368367791175842,43.73902380466461 4.368367791175842,43.73902380466461" stroke="white" stroke-width="0.1" /></svg>