<?xml version="1.0" encoding="utf-8" ?>
<svg baseProfile="full" height="97.154700756073" version="1.1" width="99.99999403953552" xmlns="http://www.w3.org/2000/svg" xmlns:ev="http://www.w3.org/2001/xml-events" xmlns:xlink="http://www.w3.org/1999/xlink"><defs><clipPath /></defs><polygon points="54.0570855140686,96.71687483787537 54.0570855140686,96.71687483787537 51.43766403198242,97.154700756073 51.43766403198242,97.154700756073 48.92122745513916,96.74223065376282 48.92122745513916,96.74223065376282 46.67370319366455,95.59961557388306 46.67370319366455,95.59961557388306 44.86153721809387,93.84648203849792 44.86153721809387,93.84648203849792 43.653252720832825,91.60324931144714 43.653252720832825,91.60324931144714 43.21321249008179,88.98967504501343 43.21321249008179,88.98967504501343 43.21321249008179,70.18558382987976 43.21321249008179,70.18558382987976 7.398468255996704,70.18558382987976 7.398468255996704,70.18558382987976 5.437541380524635,69.92018222808838 5.437541380524635,69.92018222808838 3.6711465567350388,69.17182803153992 3.6711465567350388,69.17182803153992 2.1731439977884293,68.01244020462036 2.1731439977884293,68.01244020462036 1.0132323019206524,66.51384830474854 1.0132323019206524,66.51384830474854 0.264751142822206,64.74817395210266 0.264751142822206,64.74817395210266 0.0,62.78711557388306 0.0,62.78711557388306 0.0,34.37083661556244 0.0,34.37083661556244 0.2657914301380515,32.40945637226105 0.2657914301380515,32.40945637226105 1.0132323019206524,30.642929673194885 1.0132323019206524,30.642929673194885 2.1731439977884293,29.143431782722473 2.1731439977884293,29.143431782722473 3.6711465567350388,27.983000874519348 3.6711465567350388,27.983000874519348 5.436501279473305,27.23393440246582 5.436501279473305,27.23393440246582 7.398468255996704,26.968207955360413 7.398468255996704,26.968207955360413 43.21321249008179,26.968207955360413 43.21321249008179,26.968207955360413 43.21321249008179,8.110019564628601 43.21321249008179,8.110019564628601 43.89771819114685,4.852123931050301 43.89771819114685,4.852123931050301 45.712485909461975,2.3168327286839485 45.712485909461975,2.3168327286839485 48.30434322357178,0.6512150168418884 48.30434322357178,0.6512150168418884 51.31751298904419,0.0022105941752670333 51.31751298904419,0.0022105941752670333 54.39777970314026,0.5171489901840687 54.39777970314026,0.5171489901840687 57.190412282943726,2.3427097126841545 57.190412282943726,2.3427097126841545 57.82601833343506,2.9787106439471245 57.82601833343506,2.9787106439471245 58.46059322357178,3.613671287894249 58.46059322357178,3.613671287894249 59.095680713653564,4.247981682419777 59.095680713653564,4.247981682419777 59.72973108291626,4.881837218999863 59.72973108291626,4.881837218999863 60.364824533462524,5.515757575631142 60.364824533462524,5.515757575631142 60.99783182144165,6.150132790207863 60.99783182144165,6.150132790207863 79.94340658187866,25.099864602088928 79.94340658187866,25.099864602088928 82.67726302146912,27.834045886993408 82.67726302146912,27.834045886993408 85.41059494018555,30.568614602088928 85.41059494018555,30.568614602088928 88.14392685890198,33.30351114273071 88.14392685890198,33.30351114273071 90.87778329849243,36.03827655315399 90.87778329849243,36.03827655315399 93.613201379776,38.772910833358765 93.613201379776,38.772910833358765 96.35069370269775,41.50715470314026 96.35069370269775,41.50715470314026 97.32959866523743,42.55315661430359 97.32959866523743,42.55315661430359 98.2029139995575,43.65396797657013 98.2029139995575,43.65396797657013 98.93994927406311,44.81264352798462 98.93994927406311,44.81264352798462 99.5063841342926,46.03198170661926 99.5063841342926,46.03198170661926 99.8710036277771,47.31484055519104 99.8710036277771,47.31484055519104 99.99999403953552,48.66427779197693 99.99999403953552,48.66427779197693 99.98854994773865,49.079349637031555 99.98854994773865,49.079349637031555 99.9516248703003,49.500665068626404 99.9516248703003,49.500665068626404 99.88972544670105,49.928218126297 99.88972544670105,49.928218126297 99.80026483535767,50.36194920539856 99.80026483535767,50.36194920539856 99.6858298778534,50.80198645591736 99.6858298778534,50.80198645591736 99.54227209091187,51.24833583831787 99.54227209091187,51.24833583831787 99.06166195869446,52.3226797580719 99.06166195869446,52.3226797580719 98.43437671661377,53.30405831336975 98.43437671661377,53.30405831336975 97.69889712333679,54.21364903450012 97.69889712333679,54.21364903450012 96.89216017723083,55.072206258773804 96.89216017723083,55.072206258773804 96.05317711830139,55.90072274208069 96.05317711830139,55.90072274208069 95.21887302398682,56.720203161239624 95.21887302398682,56.720203161239624 68.67509484291077,83.25981497764587 68.67509484291077,83.25981497764587 66.94198846817017,84.99500155448914 66.94198846817017,84.99500155448914 65.20836353302002,86.7301881313324 65.20836353302002,86.7301881313324 63.47473859786987,88.46537470817566 63.47473859786987,88.46537470817566 61.73955202102661,90.20043015480042 61.73955202102661,90.20043015480042 60.00436544418335,91.93568229675293 60.00436544418335,91.93568229675293 58.268141746520996,93.67093443870544 58.268141746520996,93.67093443870544 57.64344930648804,94.2895770072937 57.64344930648804,94.2895770072937 57.00939893722534,94.8831856250763 57.00939893722534,94.8831856250763 56.34986162185669,95.4373300075531 56.34986162185669,95.4373300075531 55.64871430397034,95.93731164932251 55.64871430397034,95.93731164932251 54.88983392715454,96.36870622634888 54.88983392715454,96.36870622634888" stroke="white" stroke-width="0.1" /></svg>