<?xml version="1.0" encoding="utf-8" ?>
<svg baseProfile="full" height="42.70906448364258" version="1.1" width="32.52568542957306" xmlns="http://www.w3.org/2000/svg" xmlns:ev="http://www.w3.org/2001/xml-events" xmlns:xlink="http://www.w3.org/1999/xlink"><defs><clipPath /></defs><polygon points="32.52568542957306,32.13031589984894 32.52568542957306,32.13031589984894 32.42001533508301,34.84486639499664 32.42001533508301,34.84486639499664 31.576114892959595,37.344542145729065 31.576114892959595,37.344542145729065 30.10534644126892,39.505136013031006 30.10534644126892,39.505136013031006 28.11857759952545,41.20224416255951 28.11857759952545,41.20224416255951 25.727173686027527,42.311662435531616 25.727173686027527,42.311662435531616 23.04200828075409,42.70906448364258 23.04200828075409,42.70906448364258 20.53631842136383,42.36287176609039 20.53631842136383,42.36287176609039 18.266192078590393,41.389280557632446 18.266192078590393,41.389280557632446 16.329821944236755,39.88587558269501 16.329821944236755,39.88587558269501 14.82507437467575,37.949952483177185 14.82507437467575,37.949952483177185 13.850386440753937,35.67913472652435 13.850386440753937,35.67913472652435 13.503706455230713,33.1707626581192 13.503706455230713,33.1707626581192 13.824619352817535,30.748796463012695 13.824619352817535,30.748796463012695 14.731109142303467,28.539958596229553 14.731109142303467,28.539958596229553 16.138313710689545,26.634803414344788 16.138313710689545,26.634803414344788 17.961454391479492,25.123673677444458 17.961454391479492,25.123673677444458 20.11583149433136,24.097086489200592 20.11583149433136,24.097086489200592 22.516581416130066,23.645468056201935 22.516581416130066,23.645468056201935 24.953505396842957,23.834455013275146 24.953505396842957,23.834455013275146 27.209651470184326,24.619220197200775 27.209651470184326,24.619220197200775 29.190075397491455,25.92047154903412 29.190075397491455,25.92047154903412 30.799520015716553,27.658870816230774 30.799520015716553,27.658870816230774 31.943035125732422,29.755249619483948 31.943035125732422,29.755249619483948" stroke="white" stroke-width="0.1" /></svg>