<?xml version="1.0" encoding="utf-8" ?>
<svg baseProfile="full" height="38.56808543205261" version="1.1" width="99.99081492424011" xmlns="http://www.w3.org/2000/svg" xmlns:ev="http://www.w3.org/2001/xml-events" xmlns:xlink="http://www.w3.org/1999/xlink"><defs><clipPath /></defs><polygon points="99.88424777984619,26.951488852500916 99.88424777984619,26.951488852500916 99.99081492424011,27.318653464317322 99.99081492424011,27.318653464317322 99.98471736907959,27.854645252227783 99.98471736907959,27.854645252227783 99.90440607070923,28.476068377494812 99.90440607070923,28.476068377494812 99.78808760643005,29.099363088607788 99.78808760643005,29.099363088607788 99.6740460395813,29.64128851890564 99.6740460395813,29.64128851890564 99.60072636604309,30.01820743083954 99.60072636604309,30.01820743083954 99.46132302284241,31.0025691986084 99.46132302284241,31.0025691986084 99.30501580238342,32.022979855537415 99.30501580238342,32.022979855537415 99.09643530845642,33.04460942745209 99.09643530845642,33.04460942745209 98.79950284957886,34.032341837882996 98.79950284957886,34.032341837882996 98.37868809700012,34.951433539390564 98.37868809700012,34.951433539390564 97.79815077781677,35.76667904853821 97.79815077781677,35.76667904853821 96.95408940315247,36.518484354019165 96.95408940315247,36.518484354019165 96.0195541381836,37.034764885902405 96.0195541381836,37.034764885902405 95.01528143882751,37.36799359321594 95.01528143882751,37.36799359321594 93.96166801452637,37.57047355175018 93.96166801452637,37.57047355175018 92.87968277931213,37.694716453552246 92.87968277931213,37.694716453552246 91.78956747055054,37.79295086860657 91.78956747055054,37.79295086860657 92.5516128540039,33.16149711608887 92.5516128540039,33.16149711608887 91.7810320854187,28.730005025863647 91.7810320854187,28.730005025863647 89.70347046852112,24.799063801765442 89.70347046852112,24.799063801765442 86.54465675354004,21.669267117977142 86.54465675354004,21.669267117977142 82.53048062324524,19.641248881816864 82.53048062324524,19.641248881816864 77.88659334182739,19.01547610759735 77.88659334182739,19.01547610759735 73.33731651306152,19.962771236896515 73.33731651306152,19.962771236896515 69.50026154518127,22.2471222281456 69.50026154518127,22.2471222281456 66.57757759094238,25.559240579605103 66.57757759094238,25.559240579605103 64.77110385894775,29.589593410491943 64.77110385894775,29.589593410491943 64.28306698799133,34.0290904045105 64.28306698799133,34.0290904045105 65.31538367271423,38.56808543205261 65.31538367271423,38.56808543205261 60.487061738967896,38.224858045578 60.487061738967896,38.224858045578 55.66694140434265,37.9645437002182 55.66694140434265,37.9645437002182 50.84991455078125,37.79815435409546 50.84991455078125,37.79815435409546 46.03061079978943,37.73666024208069 46.03061079978943,37.73666024208069 41.204074025154114,37.79112100601196 41.204074025154114,37.79112100601196 36.36493682861328,37.972429394721985 36.36493682861328,37.972429394721985 37.18176782131195,33.694157004356384 37.18176782131195,33.694157004356384 36.66723668575287,29.52049970626831 36.66723668575287,29.52049970626831 34.98569428920746,25.712379813194275 34.98569428920746,25.712379813194275 32.301339507102966,22.53040075302124 32.301339507102966,22.53040075302124 28.77861261367798,20.23548185825348 28.77861261367798,20.23548185825348 24.581870436668396,19.08830851316452 24.581870436668396,19.08830851316452 20.30164897441864,19.290301203727722 20.30164897441864,19.290301203727722 16.414520144462585,20.719006657600403 16.414520144462585,20.719006657600403 13.128170371055603,23.168812692165375 13.128170371055603,23.168812692165375 10.6499545276165,26.434028148651123 10.6499545276165,26.434028148651123 9.18780043721199,30.30908703804016 9.18780043721199,30.30908703804016 8.949147909879684,34.58837270736694 8.949147909879684,34.58837270736694 8.044853061437607,34.121716022491455 8.044853061437607,34.121716022491455 7.13893249630928,33.6572527885437 7.13893249630928,33.6572527885437 6.230328977108002,33.19774866104126 6.230328977108002,33.19774866104126 5.317742750048637,32.745763659477234 5.317742750048637,32.745763659477234 4.40019816160202,32.304102182388306 4.40019816160202,32.304102182388306 3.4763947129249573,31.875407695770264 3.4763947129249573,31.875407695770264 3.09817586094141,31.725475192070007 3.09817586094141,31.725475192070007 2.690938301384449,31.584569811820984 2.690938301384449,31.584569811820984 2.2808557376265526,31.432241201400757 2.2808557376265526,31.432241201400757 1.8939394503831863,31.248047947883606 1.8939394503831863,31.248047947883606 1.55628165230155,31.01155161857605 1.55628165230155,31.01155161857605 1.2940564192831516,30.702301859855652 1.2940564192831516,30.702301859855652 0.7792788557708263,29.62373197078705 0.7792788557708263,29.62373197078705 0.4382071550935507,28.42364013195038 0.4382071550935507,28.42364013195038 0.23052413016557693,27.151450514793396 0.23052413016557693,27.151450514793396 0.11574977543205023,25.85650086402893 0.11574977543205023,25.85650086402893 0.05372935556806624,24.588169157505035 0.05372935556806624,24.588169157505035 0.0039016777009237558,23.395760357379913 0.0039016777009237558,23.395760357379913 0.07974053733050823,22.574050724506378 0.07974053733050823,22.574050724506378 0.3522889921441674,21.946164965629578 0.3522889921441674,21.946164965629578 0.7523735053837299,21.435491740703583 0.7523735053837299,21.435491740703583 1.2109018862247467,20.965339243412018 1.2109018862247467,20.965339243412018 1.6590258106589317,20.45905739068985 1.6590258106589317,20.45905739068985 2.0275717601180077,19.84003037214279 2.0275717601180077,19.84003037214279 2.2237123921513557,19.259127974510193 2.2237123921513557,19.259127974510193 2.3520613089203835,18.636485934257507 2.3520613089203835,18.636485934257507 2.4333463981747627,17.990310490131378 2.4333463981747627,17.990310490131378 2.487644739449024,17.338690161705017 2.487644739449024,17.338690161705017 2.5354402139782906,16.699789464473724 2.5354402139782906,16.699789464473724 2.5972167029976845,16.0918191075325 2.5972167029976845,16.0918191075325 2.723696082830429,15.023328363895416 2.723696082830429,15.023328363895416 2.908375672996044,13.750040531158447 2.908375672996044,13.750040531158447 3.2104305922985077,12.443100661039352 3.2104305922985077,12.443100661039352 3.6888737231492996,11.273572593927383 3.6888737231492996,11.273572593927383 4.402880743145943,10.412561893463135 4.402880743145943,10.412561893463135 5.411627143621445,10.031213611364365 5.411627143621445,10.031213611364365 7.024157792329788,9.946270287036896 7.024157792329788,9.946270287036896 8.62530916929245,9.883152693510056 8.62530916929245,9.883152693510056 10.206463932991028,9.778254479169846 10.206463932991028,9.778254479169846 11.758681386709213,9.567970782518387 11.758681386709213,9.567970782518387 13.273344933986664,9.18881669640541 13.273344933986664,9.18881669640541 14.741839468479156,8.577188104391098 14.741839468479156,8.577188104391098 16.441670060157776,7.684516906738281 16.441670060157776,7.684516906738281 18.14523935317993,6.783391535282135 18.14523935317993,6.783391535282135 19.85791325569153,5.894134566187859 19.85791325569153,5.894134566187859 21.58505618572235,5.036944150924683 21.58505618572235,5.036944150924683 23.33211451768875,4.232101142406464 23.33211451768875,4.232101142406464 25.104695558547974,3.499804809689522 25.104695558547974,3.499804809689522 27.18786597251892,2.75905504822731 27.18786597251892,2.75905504822731 29.307126998901367,2.1240977570414543 29.307126998901367,2.1240977570414543 31.455326080322266,1.5879828482866287 31.455326080322266,1.5879828482866287 33.62506628036499,1.143719907850027 33.62506628036499,1.143719907850027 35.809436440467834,0.7844810374081135 35.809436440467834,0.7844810374081135 38.00103962421417,0.5033164285123348 38.00103962421417,0.5033164285123348 40.14419913291931,0.2810020698234439 40.14419913291931,0.2810020698234439 42.33921766281128,0.10583300609141588 42.33921766281128,0.10583300609141588 44.55910921096802,0.009429054625798017 44.55910921096802,0.009429054625798017 46.776726841926575,0.0233287806622684 46.776726841926575,0.0233287806622684 48.96524250507355,0.17919267993420362 48.96524250507355,0.17919267993420362 51.097673177719116,0.5085186567157507 51.097673177719116,0.5085186567157507 52.73410081863403,0.9216087870299816 52.73410081863403,0.9216087870299816 54.333704710006714,1.4718672260642052 54.333704710006714,1.4718672260642052 55.8957576751709,2.136818878352642 55.8957576751709,2.136818878352642 57.4188768863678,2.893581800162792 57.4188768863678,2.893581800162792 58.902162313461304,3.71968075633049 58.902162313461304,3.71968075633049 60.344648361206055,4.592274501919746 60.344648361206055,4.592274501919746 61.76347732543945,5.507299304008484 61.76347732543945,5.507299304008484 63.15629482269287,6.463129073381424 63.15629482269287,6.463129073381424 64.52366709709167,7.456431537866592 64.52366709709167,7.456431537866592 65.8660888671875,8.483710139989853 65.8660888671875,8.483710139989853 67.18412637710571,9.541674703359604 67.18412637710571,9.541674703359604 68.47834587097168,10.626869648694992 68.47834587097168,10.626869648694992 69.05555129051208,11.132461577653885 69.05555129051208,11.132461577653885 69.53033804893494,11.542178690433502 69.53033804893494,11.542178690433502 69.96878385543823,11.865652352571487 69.96878385543823,11.865652352571487 70.43657898902893,12.11235225200653 70.43657898902893,12.11235225200653 70.99988460540771,12.291910499334335 70.99988460540771,12.291910499334335 71.72453999519348,12.413837760686874 71.72453999519348,12.413837760686874 75.87186098098755,12.918049097061157 75.87186098098755,12.918049097061157 80.06258606910706,13.51679414510727 80.06258606910706,13.51679414510727 84.24632549285889,14.275263249874115 84.24632549285889,14.275263249874115 88.37186098098755,15.258444845676422 88.37186098098755,15.258444845676422 92.38839745521545,16.53161197900772 92.38839745521545,16.53161197900772 96.24528288841248,18.159708380699158 96.24528288841248,18.159708380699158 96.6352105140686,18.345892429351807 96.6352105140686,18.345892429351807 97.21241593360901,18.641403317451477 97.21241593360901,18.641403317451477 97.81798720359802,19.00702267885208 97.81798720359802,19.00702267885208 98.29277396202087,19.403408467769623 98.29277396202087,19.403408467769623 98.47793579101562,19.79130059480667 98.47793579101562,19.79130059480667 98.21433424949646,20.13135701417923 98.21433424949646,20.13135701417923 98.08882474899292,20.348508656024933 98.08882474899292,20.348508656024933 98.00038933753967,20.769889652729034 98.00038933753967,20.769889652729034 97.94121384620667,21.300233900547028 97.94121384620667,21.300233900547028 97.90268540382385,21.84419333934784 97.90268540382385,21.84419333934784 97.87683486938477,22.30658233165741 97.87683486938477,22.30658233165741 97.85537719726562,22.59201407432556 97.85537719726562,22.59201407432556 97.77758717536926,23.173202574253082 97.77758717536926,23.173202574253082 97.6999580860138,23.753942549228668 97.6999580860138,23.753942549228668 97.62257933616638,24.334438145160675 97.62257933616638,24.334438145160675 97.5450336933136,24.91465061903 97.5450336933136,24.91465061903 97.46756553649902,25.4948228597641 97.46756553649902,25.4948228597641 97.38977551460266,26.074913144111633 97.38977551460266,26.074913144111633 97.54819869995117,26.216429471969604 97.54819869995117,26.216429471969604 97.97632694244385,26.36168599128723 97.97632694244385,26.36168599128723 98.54922294616699,26.509299874305725 98.54922294616699,26.509299874305725 99.14146661758423,26.657724380493164 99.14146661758423,26.657724380493164 99.62828159332275,26.80562436580658 99.62828159332275,26.80562436580658" stroke="white" stroke-width="0.1" /><polygon points="27.93991267681122,10.751723498106003 27.93991267681122,10.751723498106003 29.044008255004883,10.78147366642952 29.044008255004883,10.78147366642952 30.259543657302856,10.785537958145142 30.259543657302856,10.785537958145142 31.429964303970337,10.65613180398941 31.429964303970337,10.65613180398941 32.39871859550476,10.285228490829468 32.39871859550476,10.285228490829468 33.009493350982666,9.564922004938126 33.009493350982666,9.564922004938126 33.10573399066925,8.387306332588196 33.10573399066925,8.387306332588196 32.98315703868866,7.716583460569382 32.98315703868866,7.716583460569382 32.81603455543518,7.045413553714752 32.81603455543518,7.045413553714752 32.60892033576965,6.37989342212677 32.60892033576965,6.37989342212677 32.366204261779785,5.726037174463272 32.366204261779785,5.726037174463272 32.09243714809418,5.0900232046842575 32.09243714809418,5.0900232046842575 31.79216980934143,4.47782538831234 31.79216980934143,4.47782538831234 31.54270648956299,4.249699041247368 31.54270648956299,4.249699041247368 31.16115629673004,4.164797067642212 31.16115629673004,4.164797067642212 30.7062029838562,4.182273522019386 30.7062029838562,4.182273522019386 30.236458778381348,4.261038452386856 30.236458778381348,4.261038452386856 29.810768365859985,4.360206052660942 29.810768365859985,4.360206052660942 29.487580060958862,4.438808560371399 29.487580060958862,4.438808560371399 28.214657306671143,4.745293408632278 28.214657306671143,4.745293408632278 26.765182614326477,5.17386831343174 26.765182614326477,5.17386831343174 25.28287172317505,5.745220556855202 25.28287172317505,5.745220556855202 23.91151338815689,6.479955464601517 23.91151338815689,6.479955464601517 22.794902324676514,7.398881763219833 22.794902324676514,7.398881763219833 22.076992690563202,8.52256491780281 22.076992690563202,8.52256491780281 22.140313684940338,9.466607868671417 22.140313684940338,9.466607868671417 22.982019186019897,10.096403956413269 22.982019186019897,10.096403956413269 24.292495846748352,10.476004332304 24.292495846748352,10.476004332304 25.76204538345337,10.669097304344177 25.76204538345337,10.669097304344177 27.08105742931366,10.739774256944656 27.08105742931366,10.739774256944656" stroke="white" stroke-width="0.1" /><polygon points="53.13954949378967,32.936662435531616 53.13954949378967,32.936662435531616 56.346726417541504,32.936662435531616 56.346726417541504,32.936662435531616 53.75341176986694,25.79399049282074 53.75341176986694,25.79399049282074 53.86420488357544,25.721362233161926 53.86420488357544,25.721362233161926 53.9728045463562,25.646376609802246 53.9728045463562,25.646376609802246 54.07920479774475,25.568994879722595 54.07920479774475,25.568994879722595 54.183411598205566,25.488927960395813 54.183411598205566,25.488927960395813 54.285502433776855,25.40622055530548 54.285502433776855,25.40622055530548 54.385483264923096,25.320586562156677 54.385483264923096,25.320586562156677 54.553258419036865,25.16281306743622 54.553258419036865,25.16281306743622 54.71322536468506,24.998699128627777 54.71322536468506,24.998699128627777 54.86539006233215,24.82832670211792 54.86539006233215,24.82832670211792 55.00967502593994,24.6513694524765 55.00967502593994,24.6513694524765 55.14622926712036,24.467867612838745 55.14622926712036,24.467867612838745 55.275070667266846,24.277539551258087 55.275070667266846,24.277539551258087 55.39626479148865,24.081885814666748 55.39626479148865,24.081885814666748 55.507540702819824,23.88005554676056 55.507540702819824,23.88005554676056 55.60898780822754,23.672454059123993 55.60898780822754,23.672454059123993 55.70067763328552,23.459406197071075 55.70067763328552,23.459406197071075 55.78269362449646,23.241358995437622 55.78269362449646,23.241358995437622 55.85511922836304,23.018598556518555 55.85511922836304,23.018598556518555 55.91827630996704,22.79108166694641 55.91827630996704,22.79108166694641 55.96964955329895,22.561167180538177 55.96964955329895,22.561167180538177 56.00956082344055,22.32930213212967 56.00956082344055,22.32930213212967 56.037843227386475,22.095607221126556 56.037843227386475,22.095607221126556 56.05483651161194,21.86061292886734 56.05483651161194,21.86061292886734 56.060606241226196,21.624398231506348 56.060606241226196,21.624398231506348 56.05003833770752,21.291130781173706 56.05003833770752,21.291130781173706 56.01792931556702,20.962779223918915 56.01792931556702,20.962779223918915 55.96436262130737,20.639875531196594 55.96436262130737,20.639875531196594 55.889010429382324,20.323026180267334 55.889010429382324,20.323026180267334 55.79203963279724,20.012883841991425 55.79203963279724,20.012883841991425 55.673038959503174,19.70997452735901 55.673038959503174,19.70997452735901 55.536478757858276,19.42116916179657 55.536478757858276,19.42116916179657 55.38439750671387,19.14284974336624 55.38439750671387,19.14284974336624 55.21686673164368,18.875665962696075 55.21686673164368,18.875665962696075 55.03389835357666,18.620146811008453 55.03389835357666,18.620146811008453 54.835641384124756,18.377023935317993 54.835641384124756,18.377023935317993 54.62218523025513,18.146702647209167 54.62218523025513,18.146702647209167 54.39296364784241,17.92808771133423 54.39296364784241,17.92808771133423 54.15040850639343,17.725037038326263 54.15040850639343,17.725037038326263 53.89517545700073,17.53804087638855 53.89517545700073,17.53804087638855 53.6276638507843,17.36750602722168 53.6276638507843,17.36750602722168 53.34877967834473,17.213916778564453 53.34877967834473,17.213916778564453 53.058916330337524,17.077642679214478 53.058916330337524,17.077642679214478 52.75604724884033,16.95864200592041 52.75604724884033,16.95864200592041 52.4458646774292,16.86158776283264 52.4458646774292,16.86158776283264 52.129340171813965,16.78631752729416 52.129340171813965,16.78631752729416 51.80688500404358,16.732750833034515 51.80688500404358,16.732750833034515 51.479220390319824,16.700725257396698 51.479220390319824,16.700725257396698 51.14709138870239,16.690076887607574 51.14709138870239,16.690076887607574 44.08245384693146,16.690076887607574 44.08245384693146,16.690076887607574 44.08245384693146,32.936662435531616 44.08245384693146,32.936662435531616 47.541943192481995,32.936662435531616 47.541943192481995,32.936662435531616 47.541943192481995,26.54051184654236 47.541943192481995,26.54051184654236 50.34334659576416,26.54051184654236 50.34334659576416,26.54051184654236 52.67394781112671,32.936662435531616 52.67394781112671,32.936662435531616" stroke="white" stroke-width="0.1" /><polygon points="58.456236124038696,9.349720180034637 58.456236124038696,9.349720180034637 58.8428258895874,9.310256689786911 58.8428258895874,9.310256689786911 59.08993482589722,9.200074523687363 59.08993482589722,9.200074523687363 59.21381115913391,9.032058715820312 59.21381115913391,9.032058715820312 59.23047661781311,8.81868600845337 59.23047661781311,8.81868600845337 59.15650725364685,8.57267677783966 59.15650725364685,8.57267677783966 59.0076744556427,8.306671679019928 59.0076744556427,8.306671679019928 58.15775990486145,7.268703728914261 58.15775990486145,7.268703728914261 57.139092683792114,6.390298157930374 57.139092683792114,6.390298157930374 55.99720478057861,5.646052956581116 55.99720478057861,5.646052956581116 54.77735996246338,5.010323226451874 54.77735996246338,5.010323226451874 53.52541208267212,4.457747936248779 53.52541208267212,4.457747936248779 52.28638052940369,3.96280400454998 52.28638052940369,3.96280400454998 50.923073291778564,3.5089902579784393 50.923073291778564,3.5089902579784393 49.53635036945343,3.1865328550338745 49.53635036945343,3.1865328550338745 48.1307715177536,2.9776303097605705 48.1307715177536,2.9776303097605705 46.71104848384857,2.86452230066061 46.71104848384857,2.86452230066061 45.28205990791321,2.829488553106785 45.28205990791321,2.829488553106785 43.84835362434387,2.854727581143379 43.84835362434387,2.854727581143379 42.80473589897156,2.877243421971798 42.80473589897156,2.877243421971798 41.570913791656494,2.9317043721675873 41.570913791656494,2.9317043721675873 40.28124511241913,3.088177926838398 40.28124511241913,3.088177926838398 39.06969428062439,3.416731581091881 39.06969428062439,3.416731581091881 38.07078301906586,3.9875146001577377 38.07078301906586,3.9875146001577377 37.418389320373535,4.870594292879105 37.418389320373535,4.870594292879105 37.1881902217865,5.902669206261635 37.1881902217865,5.902669206261635 37.226802110672,7.049843668937683 37.226802110672,7.049843668937683 37.46163249015808,8.248797059059143 37.46163249015808,8.248797059059143 37.8196120262146,9.436004608869553 37.8196120262146,9.436004608869553 38.22831213474274,10.54806336760521 38.22831213474274,10.54806336760521 38.61490488052368,11.521654576063156 38.61490488052368,11.521654576063156 38.784465193748474,11.793877184391022 38.784465193748474,11.793877184391022 39.013850688934326,11.948075145483017 39.013850688934326,11.948075145483017 39.29021954536438,12.016516923904419 39.29021954536438,12.016516923904419 39.600566029548645,12.031636387109756 39.600566029548645,12.031636387109756 39.932045340538025,12.025824189186096 39.932045340538025,12.025824189186096 40.27181565761566,12.031473219394684 40.27181565761566,12.031473219394684 41.540512442588806,12.113327533006668 41.540512442588806,12.113327533006668 42.81018376350403,12.187540531158447 42.81018376350403,12.187540531158447 44.0805047750473,12.254844605922699 44.0805047750473,12.254844605922699 45.35123109817505,12.315849214792252 45.35123109817505,12.315849214792252 46.62220478057861,12.371204048395157 46.62220478057861,12.371204048395157 47.89309501647949,12.421641498804092 47.89309501647949,12.421641498804092 48.92703890800476,12.458951026201248 48.92703890800476,12.458951026201248 49.96098279953003,12.492846697568893 49.96098279953003,12.492846697568893 50.9949266910553,12.523409724235535 50.9949266910553,12.523409724235535 52.02879309654236,12.550722062587738 52.02879309654236,12.550722062587738 53.06273698806763,12.574823200702667 53.06273698806763,12.574823200702667 54.0967583656311,12.595915794372559 54.0967583656311,12.595915794372559 54.69355583190918,12.607215344905853 54.69355583190918,12.607215344905853 55.29002547264099,12.617497146129608 55.29002547264099,12.617497146129608 55.88632822036743,12.626804411411285 55.88632822036743,12.626804411411285 56.482553482055664,12.634973227977753 56.482553482055664,12.634973227977753 57.079023122787476,12.642045319080353 57.079023122787476,12.642045319080353 57.67589807510376,12.64793872833252 57.67589807510376,12.64793872833252 57.69947171211243,12.577018141746521 57.69947171211243,12.577018141746521 57.70833492279053,12.461795657873154 57.70833492279053,12.461795657873154 57.7074408531189,12.324099242687225 57.7074408531189,12.324099242687225 57.70142674446106,12.185467779636383 57.70142674446106,12.185467779636383 57.695406675338745,12.067726254463196 57.695406675338745,12.067726254463196 57.69410729408264,11.992456763982773 57.69410729408264,11.992456763982773 57.70581364631653,11.63683533668518 57.70581364631653,11.63683533668518 57.734423875808716,11.102671176195145 57.734423875808716,11.102671176195145 57.80205726623535,10.498439520597458 57.80205726623535,10.498439520597458 57.93024301528931,9.932492673397064 57.93024301528931,9.932492673397064 58.141010999679565,9.513509273529053 58.141010999679565,9.513509273529053" stroke="white" stroke-width="0.1" /></svg>