<?xml version="1.0" encoding="utf-8" ?>
<svg baseProfile="full" height="53.70926856994629" version="1.1" width="100.0" xmlns="http://www.w3.org/2000/svg" xmlns:ev="http://www.w3.org/2001/xml-events" xmlns:xlink="http://www.w3.org/1999/xlink"><defs><clipPath /></defs><polygon points="50.0,0.0 50.0,0.0 63.29154968261719,1.7877670004963875 63.29154968261719,1.7877670004963875 75.23420453071594,6.828724592924118 75.23420453071594,6.828724592924118 85.35255193710327,14.646881818771362 85.35255193710327,14.646881818771362 93.1700348854065,24.76556897163391 93.1700348854065,24.76556897163391 98.21144342422485,36.70913279056549 98.21144342422485,36.70913279056549 100.0,50.000905990600586 100.0,50.000905990600586 99.86739754676819,50.9868323802948 99.86739754676819,50.9868323802948 99.49334859848022,51.87273621559143 99.49334859848022,51.87273621559143 98.91315698623657,52.6232123374939 98.91315698623657,52.6232123374939 98.16234111785889,53.20284366607666 98.16234111785889,53.20284366607666 97.27643132209778,53.57677936553955 97.27643132209778,53.57677936553955 96.29073143005371,53.70926856994629 96.29073143005371,53.70926856994629 95.30593752861023,53.576892614364624 95.30593752861023,53.576892614364624 94.42026019096375,53.20307016372681 94.42026019096375,53.20307016372681 93.66989731788635,52.6232123374939 93.66989731788635,52.6232123374939 93.08969974517822,51.872509717941284 93.08969974517822,51.872509717941284 92.71565079689026,50.98671913146973 92.71565079689026,50.98671913146973 92.5832748413086,50.000905990600586 92.5832748413086,50.000905990600586 92.57965683937073,50.000905990600586 92.57965683937073,50.000905990600586 91.04498624801636,38.683927059173584 91.04498624801636,38.683927059173584 86.7487370967865,28.518283367156982 86.7487370967865,28.518283367156982 80.09390830993652,19.906431436538696 80.09390830993652,19.906431436538696 71.48239612579346,13.250589370727539 71.48239612579346,13.250589370727539 61.316978931427,8.953317254781723 61.316978931427,8.953317254781723 50.0,7.416727393865585 50.0,7.416727393865585 38.68166208267212,8.953430503606796 38.68166208267212,8.953430503606796 28.514888882637024,13.250701129436493 28.514888882637024,13.250701129436493 19.902923703193665,19.906431436538696 19.902923703193665,19.906431436538696 13.247421383857727,28.518056869506836 13.247421383857727,28.518056869506836 8.951394259929657,38.68370056152344 8.951394259929657,38.68370056152344 7.416727393865585,50.000905990600586 7.416727393865585,50.000905990600586 7.284124195575714,50.9868323802948 7.284124195575714,50.9868323802948 6.9100745022296906,51.87273621559143 6.9100745022296906,51.87273621559143 6.32987916469574,52.6232123374939 6.32987916469574,52.6232123374939 5.578837916254997,53.20284366607666 5.578837916254997,53.20284366607666 4.693157225847244,53.57677936553955 4.693157225847244,53.57677936553955 3.7074584513902664,53.70926856994629 3.7074584513902664,53.70926856994629 2.7226647362113,53.576892614364624 2.7226647362113,53.576892614364624 1.836984045803547,53.20307016372681 1.836984045803547,53.20307016372681 1.0866220109164715,52.6232123374939 1.0866220109164715,52.6232123374939 0.5062002222985029,51.872509717941284 0.5062002222985029,51.872509717941284 0.13237689854577184,50.98671913146973 0.13237689854577184,50.98671913146973 0.0,50.000905990600586 0.0,50.000905990600586 1.7869750037789345,36.70935928821564 1.7869750037789345,36.70935928821564 6.827253848314285,24.765795469284058 6.827253848314285,24.765795469284058 14.64473307132721,14.646881818771362 14.64473307132721,14.646881818771362 24.76308047771454,6.828498840332031 24.76308047771454,6.828498840332031 36.70709729194641,1.7874276265501976 36.70709729194641,1.7874276265501976" stroke="white" stroke-width="0.1" /></svg>