<?xml version="1.0" encoding="utf-8" ?>
<svg baseProfile="full" height="90.4955506324768" version="1.1" width="99.99955892562866" xmlns="http://www.w3.org/2000/svg" xmlns:ev="http://www.w3.org/2001/xml-events" xmlns:xlink="http://www.w3.org/1999/xlink"><defs><clipPath /></defs><polygon points="99.19390678405762,42.20450520515442 99.19390678405762,42.20450520515442 99.64156150817871,43.17716658115387 99.64156150817871,43.17716658115387 99.90988969802856,44.200098514556885 99.90988969802856,44.200098514556885 99.99955892562866,45.24821937084198 99.99955892562866,45.24821937084198 99.9096691608429,46.29656374454498 99.9096691608429,46.29656374454498 99.64134097099304,47.32038378715515 99.64134097099304,47.32038378715515 99.19390678405762,48.294597864151 99.19390678405762,48.294597864151 77.32284665107727,87.28538155555725 77.32284665107727,87.28538155555725 76.69252753257751,88.20754885673523 76.69252753257751,88.20754885673523 75.91906189918518,88.99356126785278 75.91906189918518,88.99356126785278 75.02707839012146,89.62953686714172 75.02707839012146,89.62953686714172 74.03943538665771,90.1010513305664 74.03943538665771,90.1010513305664 72.98054695129395,90.39456844329834 72.98054695129395,90.39456844329834 71.8737244606018,90.4955506324768 71.8737244606018,90.4955506324768 28.129827976226807,90.4955506324768 28.129827976226807,90.4955506324768 27.01745331287384,90.39468169212341 27.01745331287384,90.39468169212341 25.956791639328003,90.10127186775208 25.956791639328003,90.10127186775208 24.970704317092896,89.62953686714172 24.970704317092896,89.62953686714172 24.08093810081482,88.99356126785278 24.08093810081482,88.99356126785278 23.31102043390274,88.20744156837463 23.31102043390274,88.20744156837463 22.68248051404953,87.28538155555725 22.68248051404953,87.28538155555725 0.7954403758049011,48.294597864151 0.7954403758049011,48.294597864151 0.35399761982262135,47.320494055747986 0.35399761982262135,47.320494055747986 0.0887768343091011,46.29667401313782 0.0887768343091011,46.29667401313782 0.0004438841642695479,45.24821937084198 0.0004438841642695479,45.24821937084198 0.08855488849803805,44.19998824596405 0.08855488849803805,44.19998824596405 0.35355372820049524,43.177056312561035 0.35355372820049524,43.177056312561035 0.7954403758049011,42.20450520515442 0.7954403758049011,42.20450520515442 22.68248051404953,3.21904793381691 22.68248051404953,3.21904793381691 23.31124246120453,2.296878583729267 23.31124246120453,2.296878583729267 24.081160128116608,1.5093171037733555 24.081160128116608,1.5093171037733555 24.970704317092896,0.8711226284503937 24.970704317092896,0.8711226284503937 25.956347584724426,0.3969434183090925 25.956347584724426,0.3969434183090925 27.01723277568817,0.1016494701616466 27.01723277568817,0.1016494701616466 28.129827976226807,0.0 28.129827976226807,0.0 71.8737244606018,0.0 71.8737244606018,0.0 72.98077344894409,0.1016494701616466 72.98077344894409,0.1016494701616466 74.03965592384338,0.3966105170547962 74.03965592384338,0.3966105170547962 75.02707839012146,0.8700129576027393 75.02707839012146,0.8700129576027393 75.91884136199951,1.506542880088091 75.91884136199951,1.506542880088091 76.69208645820618,2.2917740046977997 76.69208645820618,2.2917740046977997 77.32284665107727,3.210170194506645 77.32284665107727,3.210170194506645" stroke="white" stroke-width="0.1" /><polygon points="93.91523599624634,49.93874430656433 93.91523599624634,49.93874430656433 94.41416263580322,43.73146891593933 94.41416263580322,43.73146891593933 92.87299513816833,43.365707993507385 92.87299513816833,43.365707993507385 92.59934425354004,41.92419350147247 92.59934425354004,41.92419350147247 92.05536246299744,40.59098660945892 92.05536246299744,40.59098660945892 91.24261140823364,39.36764299869537 91.24261140823364,39.36764299869537 90.16197323799133,38.255712389945984 90.16197323799133,38.255712389945984 88.81456255912781,37.25719451904297 88.81456255912781,37.25719451904297 87.20192909240723,36.373645067214966 87.20192909240723,36.373645067214966 86.05449199676514,35.842424631118774 86.05449199676514,35.842424631118774 84.8928451538086,35.3547066450119 84.8928451538086,35.3547066450119 83.72121453285217,34.90793704986572 83.72121453285217,34.90793704986572 82.54159092903137,34.49878692626953 82.54159092903137,34.49878692626953 81.35775327682495,34.12492573261261 81.35775327682495,34.12492573261261 80.17258048057556,33.78313481807709 80.17258048057556,33.78313481807709 68.2285487651825,12.487349659204483 68.2285487651825,12.487349659204483 31.776779890060425,12.487349659204483 31.776779890060425,12.487349659204483 22.899095714092255,28.316259384155273 22.899095714092255,28.316259384155273 22.807656228542328,28.36419939994812 22.807656228542328,28.36419939994812 22.714662551879883,28.412136435508728 22.714662551879883,28.412136435508728 22.62122482061386,28.460076451301575 22.62122482061386,28.460076451301575 22.52756506204605,28.507906198501587 22.52756506204605,28.507906198501587 22.434571385383606,28.555846214294434 22.434571385383606,28.555846214294434 22.343353927135468,28.603896498680115 22.343353927135468,28.603896498680115 22.087010741233826,28.738948702812195 22.087010741233826,28.738948702812195 21.830667555332184,28.873997926712036 21.830667555332184,28.873997926712036 21.57476842403412,29.00893986225128 21.57476842403412,29.00893986225128 21.318647265434265,29.143214225769043 21.318647265434265,29.143214225769043 21.063190698623657,29.277044534683228 21.063190698623657,29.277044534683228 20.80751359462738,29.409989714622498 20.80751359462738,29.409989714622498 20.595337450504303,29.458928108215332 20.595337450504303,29.458928108215332 20.275740325450897,29.498320817947388 20.275740325450897,29.498320817947388 19.883568584918976,29.529616236686707 19.883568584918976,29.529616236686707 19.453001022338867,29.55414056777954 19.453001022338867,29.55414056777954 19.018438458442688,29.573559761047363 19.018438458442688,29.573559761047363 18.61472576856613,29.589319229125977 18.61472576856613,29.589319229125977 18.310222029685974,29.6010822057724 18.310222029685974,29.6010822057724 18.004608154296875,29.613620042800903 18.004608154296875,29.613620042800903 17.698992788791656,29.627493023872375 17.698992788791656,29.627493023872375 17.39293485879898,29.64302897453308 17.39293485879898,29.64302897453308 17.086876928806305,29.660895466804504 17.086876928806305,29.660895466804504 16.78059697151184,29.681646823883057 16.78059697151184,29.681646823883057 15.222784876823425,29.927557706832886 15.222784876823425,29.927557706832886 13.486088812351227,30.566084384918213 13.486088812351227,30.566084384918213 11.736075580120087,31.75170123577118 11.736075580120087,31.75170123577118 10.138536244630814,33.63909423351288 10.138536244630814,33.63909423351288 8.859705924987793,36.382853984832764 8.859705924987793,36.382853984832764 8.06448757648468,40.13778269290924 8.06448757648468,40.13778269290924 8.027201145887375,40.45382738113403 8.027201145887375,40.45382738113403 8.015216141939163,40.55214822292328 8.015216141939163,40.55214822292328 8.003675192594528,40.65135419368744 8.003675192594528,40.65135419368744 7.99257829785347,40.7516747713089 7.99257829785347,40.7516747713089 7.982146739959717,40.8527672290802 7.982146739959717,40.8527672290802 7.972381263971329,40.954750776290894 7.972381263971329,40.954750776290894 7.963281869888306,41.05750918388367 7.963281869888306,41.05750918388367 7.4909888207912445,41.72533452510834 7.4909888207912445,41.72533452510834 7.029793411493301,42.52621233463287 7.029793411493301,42.52621233463287 6.618978828191757,43.46158504486084 6.618978828191757,43.46158504486084 6.296274811029434,44.53301131725311 6.296274811029434,44.53301131725311 6.1014097183942795,45.74215114116669 6.1014097183942795,45.74215114116669 6.072335317730904,47.09078371524811 6.072335317730904,47.09078371524811 6.098968535661697,47.70156741142273 6.098968535661697,47.70156741142273 6.150902807712555,48.84346127510071 6.150902807712555,48.84346127510071 6.254550069570541,50.126951932907104 6.254550069570541,50.126951932907104 6.454963237047195,51.51408910751343 6.454963237047195,51.51408910751343 6.79653212428093,52.96647548675537 6.79653212428093,52.96647548675537 7.324754446744919,54.44627404212952 7.324754446744919,54.44627404212952 8.084018528461456,55.91520071029663 8.084018528461456,55.91520071029663 8.943378180265427,57.073962688446045 8.943378180265427,57.073962688446045 9.876200556755066,57.97349214553833 9.876200556755066,57.97349214553833 10.818788409233093,58.64863991737366 10.818788409233093,58.64863991737366 11.705446988344193,59.133583307266235 11.705446988344193,59.133583307266235 12.472701072692871,59.46338772773743 12.472701072692871,59.46338772773743 13.055521249771118,59.67223644256592 13.055521249771118,59.67223644256592 13.610376417636871,59.93390679359436 13.610376417636871,59.93390679359436 14.170779287815094,60.20689606666565 14.170779287815094,60.20689606666565 14.738285541534424,60.489869117736816 14.738285541534424,60.489869117736816 15.313559770584106,60.78161597251892 15.313559770584106,60.78161597251892 15.89815467596054,61.081236600875854 15.89815467596054,61.081236600875854 16.492959856987,61.387401819229126 16.492959856987,61.387401819229126 18.971608579158783,62.66579031944275 18.971608579158783,62.66579031944275 19.896219670772552,63.739216327667236 19.896219670772552,63.739216327667236 20.922480523586273,64.7139847278595 20.922480523586273,64.7139847278595 22.04173356294632,65.5834436416626 22.04173356294632,65.5834436416626 23.245769739151,66.34059548377991 23.245769739151,66.34059548377991 24.52637553215027,66.97912216186523 24.52637553215027,66.97912216186523 25.874894857406616,67.49169826507568 25.874894857406616,67.49169826507568 31.776779890060425,78.01352739334106 31.776779890060425,78.01352739334106 68.2285487651825,78.01352739334106 68.2285487651825,78.01352739334106 73.92091751098633,67.861008644104 73.92091751098633,67.861008644104 75.06991028785706,67.55728125572205 75.06991028785706,67.55728125572205 76.18960738182068,67.15867519378662 76.18960738182068,67.15867519378662 77.27401852607727,66.66784882545471 77.27401852607727,66.66784882545471 78.31625938415527,66.08691811561584 78.31625938415527,66.08691811561584 79.31011319160461,65.41853547096252 79.31011319160461,65.41853547096252 80.24892807006836,64.66504335403442 80.24892807006836,64.66504335403442 81.39770030975342,64.55495953559875 81.39770030975342,64.55495953559875 81.75458312034607,64.5265519618988 81.75458312034607,64.5265519618988 82.90624022483826,64.4118070602417 82.90624022483826,64.4118070602417 84.2785120010376,64.19186592102051 84.2785120010376,64.19186592102051 85.80103516578674,63.78748416900635 85.80103516578674,63.78748416900635 87.40257024765015,63.118553161621094 87.40257024765015,63.118553161621094 89.01320099830627,62.10605502128601 89.01320099830627,62.10605502128601 90.56124687194824,60.67008972167969 90.56124687194824,60.67008972167969 91.58018231391907,59.32744741439819 91.58018231391907,59.32744741439819 92.32901334762573,57.95518159866333 92.32901334762573,57.95518159866333 92.85590648651123,56.60099983215332 92.85590648651123,56.60099983215332 93.2090163230896,55.31207323074341 93.2090163230896,55.31207323074341 93.43717098236084,54.136115312576294 93.43717098236084,54.136115312576294 93.58853697776794,53.120505809783936 93.58853697776794,53.120505809783936 93.65068078041077,52.687275409698486 93.65068078041077,52.687275409698486 93.66732835769653,52.56986618041992 93.66732835769653,52.56986618041992 93.69285106658936,52.36612558364868 93.69285106658936,52.36612558364868 93.72902512550354,52.038758993148804 93.72902512550354,52.038758993148804 93.77674460411072,51.55004262924194 93.77674460411072,51.55004262924194 93.83844137191772,50.86258053779602 93.83844137191772,50.86258053779602" stroke="white" stroke-width="0.1" /></svg>