<?xml version="1.0" encoding="utf-8" ?>
<svg baseProfile="full" height="60.925763845443726" version="1.1" width="86.66571974754333" xmlns="http://www.w3.org/2000/svg" xmlns:ev="http://www.w3.org/2001/xml-events" xmlns:xlink="http://www.w3.org/1999/xlink"><defs><clipPath /></defs><polygon points="71.30732536315918,60.91156005859375 71.30732536315918,60.91156005859375 71.24074697494507,60.916221141815186 71.24074697494507,60.916221141815186 71.17438316345215,60.919880867004395 71.17438316345215,60.919880867004395 71.10846638679504,60.92265844345093 71.10846638679504,60.92265844345093 71.04232907295227,60.924434661865234 71.04232907295227,60.924434661865234 70.9761917591095,60.92554330825806 70.9761917591095,60.92554330825806 70.90960741043091,60.925763845443726 70.90960741043091,60.925763845443726 69.07392740249634,60.67330837249756 69.07392740249634,60.67330837249756 67.40602850914001,59.96231436729431 67.40602850914001,59.96231436729431 65.98027348518372,58.862149715423584 65.98027348518372,58.862149715423584 64.86989855766296,57.44205117225647 64.86989855766296,57.44205117225647 64.14947509765625,55.77138066291809 64.14947509765625,55.77138066291809 63.89268636703491,53.91950011253357 63.89268636703491,53.91950011253357 64.12816643714905,52.142852544784546 64.12816643714905,52.142852544784546 64.7933304309845,50.522005558013916 64.7933304309845,50.522005558013916 65.82669019699097,49.123772978782654 65.82669019699097,49.123772978782654 67.1654462814331,48.01417291164398 67.1654462814331,48.01417291164398 68.74788999557495,47.25990295410156 68.74788999557495,47.25990295410156 70.51188945770264,46.92743420600891 70.51188945770264,46.92743420600891 70.5731451511383,46.925657987594604 70.5731451511383,46.925657987594604 70.63506245613098,46.9238817691803 70.63506245613098,46.9238817691803 70.6972062587738,46.92255258560181 70.6972062587738,46.92255258560181 70.75912952423096,46.92133069038391 70.75912952423096,46.92133069038391 70.82038521766663,46.92055284976959 70.82038521766663,46.92055284976959 70.88119983673096,46.92033231258392 70.88119983673096,46.92033231258392 72.52756357192993,47.120967507362366 72.52756357192993,47.120967507362366 74.05430674552917,47.69291281700134 74.05430674552917,47.69291281700134 75.40371417999268,48.59111309051514 75.40371417999268,48.59111309051514 76.51764154434204,49.76962506771088 76.51764154434204,49.76962506771088 77.33837962150574,51.18328332901001 77.33837962150574,51.18328332901001 77.80756950378418,52.786701917648315 77.80756950378418,52.786701917648315 77.83819437026978,54.772645235061646 77.83819437026978,54.772645235061646 77.32195854187012,56.63307309150696 77.32195854187012,56.63307309150696 76.33520364761353,58.272671699523926 76.33520364761353,58.272671699523926 74.9529480934143,59.59577560424805 74.9529480934143,59.59577560424805 73.25198650360107,60.50729155540466 73.25198650360107,60.50729155540466" stroke="white" stroke-width="0.1" /><polygon points="30.24981915950775,60.925763845443726 30.24981915950775,60.925763845443726 28.41058373451233,60.67153215408325 28.41058373451233,60.67153215408325 26.743799448013306,59.95676517486572 26.743799448013306,59.95676517486572 25.322258472442627,58.85282754898071 25.322258472442627,58.85282754898071 24.217432737350464,57.43095278739929 24.217432737350464,57.43095278739929 23.501890897750854,55.762726068496704 23.501890897750854,55.762726068496704 23.24710190296173,53.91950011253357 23.24710190296173,53.91950011253357 23.482804000377655,52.142852544784546 23.482804000377655,52.142852544784546 24.148407578468323,50.522005558013916 24.148407578468323,50.522005558013916 25.182437896728516,49.123772978782654 25.182437896728516,49.123772978782654 26.521411538124084,48.01417291164398 26.521411538124084,48.01417291164398 28.1036376953125,47.25990295410156 28.1036376953125,47.25990295410156 29.866302013397217,46.92743420600891 29.866302013397217,46.92743420600891 29.928001761436462,46.925657987594604 29.928001761436462,46.925657987594604 29.989701509475708,46.9238817691803 29.989701509475708,46.9238817691803 30.05162477493286,46.92255258560181 30.05162477493286,46.92255258560181 30.1131010055542,46.92133069038391 30.1131010055542,46.92133069038391 30.174356698989868,46.92055284976959 30.174356698989868,46.92055284976959 30.235612392425537,46.92033231258392 30.235612392425537,46.92033231258392 31.94589912891388,47.13705778121948 31.94589912891388,47.13705778121948 33.5207998752594,47.75261580944061 33.5207998752594,47.75261580944061 34.89839434623718,48.714956641197205 34.89839434623718,48.714956641197205 36.0147625207901,49.97159242630005 36.0147625207901,49.97159242630005 36.80754005908966,51.47058963775635 36.80754005908966,51.47058963775635 37.21347153186798,53.15956473350525 37.21347153186798,53.15956473350525 37.135571241378784,55.151498317718506 37.135571241378784,55.151498317718506 36.51568591594696,56.98629021644592 36.51568591594696,56.98629021644592 35.43615937232971,58.5727334022522 35.43615937232971,58.5727334022522 33.977556228637695,59.81894135475159 33.977556228637695,59.81894135475159 32.2217732667923,60.633909702301025 32.2217732667923,60.633909702301025" stroke="white" stroke-width="0.1" /><polygon points="86.45797967910767,51.607745885849 86.45797967910767,51.607745885849 86.35500073432922,52.330613136291504 86.35500073432922,52.330613136291504 86.23958826065063,53.079670667648315 86.23958826065063,53.079670667648315 86.08600497245789,53.829389810562134 86.08600497245789,53.829389810562134 85.86761355400085,54.55458164215088 85.86761355400085,54.55458164215088 85.5588972568512,55.22984266281128 85.5588972568512,55.22984266281128 85.13343334197998,55.8299720287323 85.13343334197998,55.8299720287323 84.51399207115173,56.38216733932495 84.51399207115173,56.38216733932495 83.82774591445923,56.760913133621216 83.82774591445923,56.760913133621216 83.09045433998108,57.004934549331665 83.09045433998108,57.004934549331665 82.3167622089386,57.152748107910156 82.3167622089386,57.152748107910156 81.52221441268921,57.242971658706665 81.52221441268921,57.242971658706665 80.7212233543396,57.314324378967285 80.7212233543396,57.314324378967285 81.28118515014648,53.97343039512634 81.28118515014648,53.97343039512634 80.75207471847534,50.769805908203125 80.75207471847534,50.769805908203125 79.29102778434753,47.91330099105835 79.29102778434753,47.91330099105835 77.0551860332489,45.61331570148468 77.0551860332489,45.61331570148468 74.20189380645752,44.07969415187836 74.20189380645752,44.07969415187836 70.8882987499237,43.521955609321594 70.8882987499237,43.521955609321594 70.82615494728088,43.52217614650726 70.82615494728088,43.52217614650726 70.76401114463806,43.52306425571442 70.76401114463806,43.52306425571442 70.70186734199524,43.524616956710815 70.70186734199524,43.524616956710815 70.63950300216675,43.52661669254303 70.63950300216675,43.52661669254303 70.57713866233826,43.52927803993225 70.57713866233826,43.52927803993225 70.51543593406677,43.53260695934296 70.51543593406677,43.53260695934296 67.17565655708313,44.22595500946045 67.17565655708313,44.22595500946045 64.35832381248474,45.902061462402344 64.35832381248474,45.902061462402344 62.212586402893066,48.33365976810455 62.212586402893066,48.33365976810455 60.88603734970093,51.29303336143494 60.88603734970093,51.29303336143494 60.52737832069397,54.55303192138672 60.52737832069397,54.55303192138672 61.284422874450684,57.886046171188354 61.284422874450684,57.886046171188354 58.89277458190918,57.70871639251709 58.89277458190918,57.70871639251709 56.50445818901062,57.5579047203064 56.50445818901062,57.5579047203064 54.11880016326904,57.43638873100281 54.11880016326904,57.43638873100281 51.73358917236328,57.34650492668152 51.73358917236328,57.34650492668152 49.34837818145752,57.290685176849365 49.34837818145752,57.290685176849365 46.96117043495178,57.27171301841736 46.96117043495178,57.27171301841736 45.80884575843811,57.27648138999939 45.80884575843811,57.27648138999939 44.655635952949524,57.29079842567444 44.655635952949524,57.29079842567444 43.50175857543945,57.31476545333862 43.50175857543945,57.31476545333862 42.34677255153656,57.34838843345642 42.34677255153656,57.34838843345642 41.19045436382294,57.39211440086365 41.19045436382294,57.39211440086365 40.03302454948425,57.44571089744568 40.03302454948425,57.44571089744568 40.63182473182678,54.305678606033325 40.63182473182678,54.305678606033325 40.25341272354126,51.24187469482422 40.25341272354126,51.24187469482422 39.01875019073486,48.44596087932587 39.01875019073486,48.44596087932587 37.04768121242523,46.109578013420105 37.04768121242523,46.109578013420105 34.46161150932312,44.42448318004608 34.46161150932312,44.42448318004608 31.38083517551422,43.58232319355011 31.38083517551422,43.58232319355011 31.19640052318573,43.56434643268585 31.19640052318573,43.56434643268585 31.01196587085724,43.54925453662872 31.01196587085724,43.54925453662872 30.828198790550232,43.5374915599823 30.828198790550232,43.5374915599823 30.644431710243225,43.528833985328674 30.644431710243225,43.528833985328674 30.460885167121887,43.52372884750366 30.460885167121887,43.52372884750366 30.278226733207703,43.521955609321594 30.278226733207703,43.521955609321594 27.385878562927246,43.94508600234985 27.385878562927246,43.94508600234985 24.7882679104805,45.13014554977417 24.7882679104805,45.13014554977417 22.61345684528351,46.95096015930176 22.61345684528351,46.95096015930176 20.988841354846954,49.280908703804016 20.988841354846954,49.280908703804016 20.04314512014389,51.99393033981323 20.04314512014389,51.99393033981323 19.903765618801117,54.9635112285614 19.903765618801117,54.9635112285614 19.240380823612213,54.62116599082947 19.240380823612213,54.62116599082947 18.575221300125122,54.28048372268677 18.575221300125122,54.28048372268677 17.908062040805817,53.943467140197754 17.908062040805817,53.943467140197754 17.237797379493713,53.61166596412659 17.237797379493713,53.61166596412659 16.563981771469116,53.287070989608765 16.563981771469116,53.287070989608765 15.885727107524872,52.97136306762695 15.885727107524872,52.97136306762695 15.608742833137512,52.86116600036621 15.608742833137512,52.86116600036621 15.309786796569824,52.758073806762695 15.309786796569824,52.758073806762695 15.00883400440216,52.646881341934204 15.00883400440216,52.646881341934204 14.724303781986237,52.51227617263794 14.724303781986237,52.51227617263794 14.475728571414948,52.339160442352295 14.475728571414948,52.339160442352295 14.282417297363281,52.112001180648804 14.282417297363281,52.112001180648804 13.9051154255867,51.31999850273132 13.9051154255867,51.31999850273132 13.654986023902893,50.4383385181427 13.654986023902893,50.4383385181427 13.502956926822662,49.503737688064575 13.502956926822662,49.503737688064575 13.418617844581604,48.55238199234009 13.418617844581604,48.55238199234009 13.37289810180664,47.62122333049774 13.37289810180664,47.62122333049774 13.336056470870972,46.746328473091125 13.336056470870972,46.746328473091125 13.392873108386993,46.142202615737915 13.392873108386993,46.142202615737915 13.59306424856186,45.680564641952515 13.59306424856186,45.680564641952515 13.886694610118866,45.3054815530777 13.886694610118866,45.3054815530777 14.2229363322258,44.96036171913147 14.2229363322258,44.96036171913147 14.55141007900238,44.58949565887451 14.55141007900238,44.58949565887451 14.822180569171906,44.13628876209259 14.822180569171906,44.13628876209259 14.966441690921783,43.70971620082855 14.966441690921783,43.70971620082855 15.06054550409317,43.25229525566101 15.06054550409317,43.25229525566101 15.120026469230652,42.77756214141846 15.120026469230652,42.77756214141846 15.15953242778778,42.29883253574371 15.15953242778778,42.29883253574371 15.194377303123474,41.82986915111542 15.194377303123474,41.82986915111542 15.239430963993073,41.38420820236206 15.239430963993073,41.38420820236206 15.333312749862671,40.59964418411255 15.333312749862671,40.59964418411255 15.46914130449295,39.664822816848755 15.46914130449295,39.664822816848755 15.690861642360687,38.70536684989929 15.690861642360687,38.70536684989929 16.041529178619385,37.84667253494263 16.041529178619385,37.84667253494263 16.565756499767303,37.21458315849304 16.565756499767303,37.21458315849304 17.30615645647049,36.934712529182434 17.30615645647049,36.934712529182434 18.490438163280487,36.871570348739624 18.490438163280487,36.871570348739624 19.666065275669098,36.82485222816467 19.666065275669098,36.82485222816467 20.827266573905945,36.74783706665039 20.827266573905945,36.74783706665039 21.96694016456604,36.59347891807556 21.96694016456604,36.59347891807556 23.079535365104675,36.31505072116852 23.079535365104675,36.31505072116852 24.157951772212982,35.86584031581879 24.157951772212982,35.86584031581879 25.40571093559265,35.21066606044769 25.40571093559265,35.21066606044769 26.655909419059753,34.54916775226593 26.655909419059753,34.54916775226593 27.91343331336975,33.89654755592346 27.91343331336975,33.89654755592346 29.181388020515442,33.267343044281006 29.181388020515442,33.267343044281006 30.46465814113617,32.67653286457062 30.46465814113617,32.67653286457062 31.766125559806824,32.13898837566376 31.766125559806824,32.13898837566376 33.29575061798096,31.595343351364136 33.29575061798096,31.595343351364136 34.85089838504791,31.12904131412506 34.85089838504791,31.12904131412506 36.42779886722565,30.735427141189575 36.42779886722565,30.735427141189575 38.02001178264618,30.40917217731476 38.02001178264618,30.40917217731476 39.62376415729523,30.14528453350067 39.62376415729523,30.14528453350067 41.23328924179077,29.93910014629364 41.23328924179077,29.93910014629364 42.117950320243835,29.84333038330078 42.117950320243835,29.84333038330078 43.0179238319397,29.75577414035797 43.0179238319397,29.75577414035797 43.92988383769989,29.680535197257996 43.92988383769989,29.680535197257996 44.84938979148865,29.62149977684021 44.84938979148865,29.62149977684021 45.77378034591675,29.58332598209381 45.77378034591675,29.58332598209381 46.69838845729828,29.56978678703308 46.69838845729828,29.56978678703308 47.40283489227295,29.578664898872375 47.40283489227295,29.578664898872375 48.10439348220825,29.60640788078308 48.10439348220825,29.60640788078308 48.80151152610779,29.655012488365173 48.80151152610779,29.655012488365173 49.49197471141815,29.725924134254456 49.49197471141815,29.725924134254456 50.17422437667847,29.8212468624115 50.17422437667847,29.8212468624115 50.84604620933533,29.942649602890015 50.84604620933533,29.942649602890015 52.04874873161316,30.246266722679138 52.04874873161316,30.246266722679138 53.22326421737671,30.65064549446106 53.22326421737671,30.65064549446106 54.37003970146179,31.13914132118225 54.37003970146179,31.13914132118225 55.48751950263977,31.694772839546204 55.48751950263977,31.694772839546204 56.57636523246765,32.30122923851013 56.57636523246765,32.30122923851013 57.63569474220276,32.941532135009766 57.63569474220276,32.941532135009766 58.67815613746643,33.61335098743439 58.67815613746643,33.61335098743439 59.701091051101685,34.314799308776855 59.701091051101685,34.314799308776855 60.70537567138672,35.043543577194214 60.70537567138672,35.043543577194214 61.69080138206482,35.79692840576172 61.69080138206482,35.79692840576172 62.65869140625,36.5725040435791 62.65869140625,36.5725040435791 63.608598709106445,37.36794590950012 63.608598709106445,37.36794590950012 64.0325129032135,37.74036467075348 64.0325129032135,37.74036467075348 64.38096165657043,38.041648268699646 64.38096165657043,38.041648268699646 64.70277309417725,38.27968239784241 64.70277309417725,38.27968239784241 65.04567861557007,38.46123218536377 65.04567861557007,38.46123218536377 65.45937657356262,38.5941743850708 65.45937657356262,38.5941743850708 65.9913718700409,38.68539333343506 65.9913718700409,38.68539333343506 69.03641819953918,39.05403912067413 69.03641819953918,39.05403912067413 72.11341857910156,39.492595195770264 72.11341857910156,39.492595195770264 75.18487572669983,40.04856050014496 75.18487572669983,40.04856050014496 78.2135009765625,40.769872069358826 78.2135009765625,40.769872069358826 81.16222023963928,41.704583168029785 81.16222023963928,41.704583168029785 83.99353623390198,42.90051758289337 83.99353623390198,42.90051758289337 84.27984118461609,43.03712248802185 84.27984118461609,43.03712248802185 84.70374941825867,43.25407147407532 84.70374941825867,43.25407147407532 85.14852523803711,43.52239966392517 85.14852523803711,43.52239966392517 85.49719452857971,43.81336569786072 85.49719452857971,43.81336569786072 85.63346862792969,44.09867227077484 85.63346862792969,44.09867227077484 85.44059991836548,44.34935450553894 85.44059991836548,44.34935450553894 85.34738421440125,44.508376717567444 85.34738421440125,44.508376717567444 85.28213500976562,44.81787383556366 85.28213500976562,44.81787383556366 85.2384090423584,45.20738124847412 85.2384090423584,45.20738124847412 85.21000146865845,45.60665786266327 85.21000146865845,45.60665786266327 85.1913571357727,45.945340394973755 85.1913571357727,45.945340394973755 85.17604470252991,46.15330100059509 85.17604470252991,46.15330100059509 85.11856198310852,46.58098220825195 85.11856198310852,46.58098220825195 85.06107926368713,47.00799882411957 85.06107926368713,47.00799882411957 85.00403761863708,47.434794902801514 85.00403761863708,47.434794902801514 84.94677543640137,47.861143946647644 84.94677543640137,47.861143946647644 84.89018082618713,48.28738272190094 84.89018082618713,48.28738272190094 84.83336567878723,48.713624477386475 84.83336567878723,48.713624477386475 84.96009707450867,48.83147478103638 84.96009707450867,48.83147478103638 85.29655933380127,48.970189690589905 85.29655933380127,48.970189690589905 85.73955297470093,49.11090135574341 85.73955297470093,49.11090135574341 86.18454933166504,49.2346316576004 86.18454933166504,49.2346316576004 86.5278959274292,49.32274520397186 86.5278959274292,49.32274520397186 86.66571974754333,49.35636818408966 86.66571974754333,49.35636818408966 86.65462136268616,49.4959682226181 86.65462136268616,49.4959682226181 86.62488460540771,49.8531848192215 86.62488460540771,49.8531848192215 86.58382296562195,50.33557415008545 86.58382296562195,50.33557415008545 86.53765916824341,50.85037350654602 86.53765916824341,50.85037350654602 86.49371266365051,51.30524039268494 86.49371266365051,51.30524039268494" stroke="white" stroke-width="0.1" /><polygon points="35.19646227359772,37.49223351478577 35.19646227359772,37.49223351478577 35.85030436515808,37.46926188468933 35.85030436515808,37.46926188468933 36.46552860736847,37.37948536872864 36.46552860736847,37.37948536872864 36.99730038642883,37.19172179698944 36.99730038642883,37.19172179698944 37.400346994400024,36.874568462371826 37.400346994400024,36.874568462371826 37.62939274311066,36.39683723449707 37.62939274311066,36.39683723449707 37.63960301876068,35.72734892368317 37.63960301876068,35.72734892368317 37.549492716789246,35.235413908958435 37.549492716789246,35.235413908958435 37.426093220710754,34.74270403385162 37.426093220710754,34.74270403385162 37.273842096328735,34.25387442111969 37.273842096328735,34.25387442111969 37.0951771736145,33.77337157726288 37.0951771736145,33.77337157726288 36.89409792423248,33.306071162223816 36.89409792423248,33.306071162223816 36.673709750175476,32.85630643367767 36.673709750175476,32.85630643367767 36.618223786354065,32.77929127216339 36.618223786354065,32.77929127216339 36.54520511627197,32.71947801113129 36.54520511627197,32.71947801113129 36.456871032714844,32.675424218177795 36.456871032714844,32.675424218177795 36.35522425174713,32.645681500434875 36.35522425174713,32.645681500434875 36.24292016029358,32.62892663478851 36.24292016029358,32.62892663478851 36.12151741981506,32.62371122837067 36.12151741981506,32.62371122837067 35.91200411319733,32.635363936424255 35.91200411319733,32.635363936424255 35.696277022361755,32.66565799713135 35.696277022361755,32.66565799713135 35.48521101474762,32.70738124847412 35.48521101474762,32.70738124847412 35.2887898683548,32.75332450866699 35.2887898683548,32.75332450866699 35.11833846569061,32.796382904052734 35.11833846569061,32.796382904052734 34.983399510383606,32.82967209815979 34.983399510383606,32.82967209815979 34.04902219772339,33.05405676364899 34.04902219772339,33.05405676364899 32.98458755016327,33.36832523345947 32.98458755016327,33.36832523345947 31.896185874938965,33.787575364112854 31.896185874938965,33.787575364112854 30.888789892196655,34.32689309120178 30.888789892196655,34.32689309120178 30.069157481193542,35.0014865398407 30.069157481193542,35.0014865398407 29.54137921333313,35.826778411865234 29.54137921333313,35.826778411865234 29.587987065315247,36.51968240737915 29.587987065315247,36.51968240737915 30.205872654914856,36.981987953186035 30.205872654914856,36.981987953186035 31.168213486671448,37.260523438453674 31.168213486671448,37.260523438453674 32.24729597568512,37.40234673023224 32.24729597568512,37.40234673023224 33.216074109077454,37.454500794410706 33.216074109077454,37.454500794410706 33.847054839134216,37.46382296085358 33.847054839134216,37.46382296085358 34.049245715141296,37.465932965278625 34.049245715141296,37.465932965278625 34.26319658756256,37.47114837169647 34.26319658756256,37.47114837169647 34.48713719844818,37.47802674770355 34.48713719844818,37.47802674770355 34.71862077713013,37.48468458652496 34.71862077713013,37.48468458652496 34.95587706565857,37.49001324176788 34.95587706565857,37.49001324176788" stroke="white" stroke-width="0.1" /><polygon points="56.25077486038208,36.43401265144348 56.25077486038208,36.43401265144348 56.53464198112488,36.40482723712921 56.53464198112488,36.40482723712921 56.715524196624756,36.323484778404236 56.715524196624756,36.323484778404236 56.80607557296753,36.19964122772217 56.80607557296753,36.19964122772217 56.81784152984619,36.042505502700806 56.81784152984619,36.042505502700806 56.76368474960327,35.861846804618835 56.76368474960327,35.861846804618835 56.65559768676758,35.66698133945465 56.65559768676758,35.66698133945465 56.031495332717896,34.90594029426575 56.031495332717896,34.90594029426575 55.283111333847046,34.261420369148254 55.283111333847046,34.261420369148254 54.44461107254028,33.71522128582001 54.44461107254028,33.71522128582001 53.54863405227661,33.248478174209595 53.54863405227661,33.248478174209595 52.629345655441284,32.84299075603485 52.629345655441284,32.84299075603485 51.719605922698975,32.47989118099213 51.719605922698975,32.47989118099213 50.88155269622803,32.19380974769592 50.88155269622803,32.19380974769592 50.03018379211426,31.97675049304962 50.03018379211426,31.97675049304962 49.168384075164795,31.821167469024658 49.168384075164795,31.821167469024658 48.29748272895813,31.719297170639038 48.29748272895813,31.719297170639038 47.42014408111572,31.66392147541046 47.42014408111572,31.66392147541046 46.538591384887695,31.6471666097641 46.538591384887695,31.6471666097641 46.37058079242706,31.647610664367676 46.37058079242706,31.647610664367676 46.201905608177185,31.648939847946167 46.201905608177185,31.648939847946167 46.03323042392731,31.651383638381958 46.03323042392731,31.651383638381958 45.863887667655945,31.654712557792664 45.863887667655945,31.654712557792664 45.69521248340607,31.65915012359619 45.69521248340607,31.65915012359619 45.52653431892395,31.66491985321045 45.52653431892395,31.66491985321045 44.759947061538696,31.681787967681885 44.759947061538696,31.681787967681885 43.85398030281067,31.722182035446167 43.85398030281067,31.722182035446167 42.90717542171478,31.837370991706848 42.90717542171478,31.837370991706848 42.01807379722595,32.078731060028076 42.01807379722595,32.078731060028076 41.28499925136566,32.497867941856384 41.28499925136566,32.497867941856384 40.80715775489807,33.14571976661682 40.80715775489807,33.14571976661682 40.63803851604462,33.90387296676636 40.63803851604462,33.90387296676636 40.66578149795532,34.746143221855164 40.66578149795532,34.746143221855164 40.837785601615906,35.62636375427246 40.837785601615906,35.62636375427246 41.099679470062256,36.4977091550827 41.099679470062256,36.4977091550827 41.398635506629944,37.31401264667511 41.398635506629944,37.31401264667511 41.680723428726196,38.02844285964966 41.680723428726196,38.02844285964966 41.75795912742615,38.17203938961029 41.75795912742615,38.17203938961029 41.85561239719391,38.27346861362457 41.85561239719391,38.27346861362457 41.97190999984741,38.34004998207092 41.97190999984741,38.34004998207092 42.103299498558044,38.3786678314209 42.103299498558044,38.3786678314209 42.24734008312225,38.396868109703064 42.24734008312225,38.396868109703064 42.40159094333649,38.40130567550659 42.40159094333649,38.40130567550659 42.56138801574707,38.40130567550659 42.56138801574707,38.40130567550659 42.58824288845062,38.39986324310303 42.58824288845062,38.39986324310303 42.615097761154175,38.398754596710205 42.615097761154175,38.398754596710205 42.642396688461304,38.398200273513794 42.642396688461304,38.398200273513794 42.66969561576843,38.39775621891022 42.66969561576843,38.39775621891022 42.69721806049347,38.39775621891022 42.69721806049347,38.39775621891022 42.72473752498627,38.39775621891022 42.72473752498627,38.39775621891022 42.753368616104126,38.39775621891022 42.753368616104126,38.39775621891022 42.781999707221985,38.397976756095886 42.781999707221985,38.397976756095886 42.81107485294342,38.39864432811737 42.81107485294342,38.39864432811737 42.83992648124695,38.39975297451019 42.83992648124695,38.39975297451019 42.86922216415405,38.40174973011017 42.86922216415405,38.40174973011017 42.898741364479065,38.404858112335205 42.898741364479065,38.404858112335205 43.83111894130707,38.462895154953 43.83111894130707,38.462895154953 44.76305544376373,38.516274094581604 44.76305544376373,38.516274094581604 45.695656538009644,38.56554329395294 45.695656538009644,38.56554329395294 46.628254652023315,38.61037492752075 46.628254652023315,38.61037492752075 47.56152331829071,38.65154683589935 47.56152331829071,38.65154683589935 48.49523305892944,38.68894279003143 48.49523305892944,38.68894279003143 49.25449788570404,38.71624171733856 49.25449788570404,38.71624171733856 50.01331567764282,38.740989565849304 50.01331567764282,38.740989565849304 50.77257752418518,38.76351714134216 50.77257752418518,38.76351714134216 51.53162479400635,38.7834906578064 51.53162479400635,38.7834906578064 52.291327714920044,38.801246881484985 52.291327714920044,38.801246881484985 53.05125713348389,38.81678283214569 53.05125713348389,38.81678283214569 53.488487005233765,38.82532715797424 53.488487005233765,38.82532715797424 53.925710916519165,38.833096623420715 53.925710916519165,38.833096623420715 54.36360239982605,38.83986473083496 54.36360239982605,38.83986473083496 54.801273345947266,38.84541392326355 54.801273345947266,38.84541392326355 55.23916482925415,38.849517703056335 55.23916482925415,38.849517703056335 55.677276849746704,38.85229229927063 55.677276849746704,38.85229229927063 55.694591999053955,38.80080282688141 55.694591999053955,38.80080282688141 55.70102334022522,38.71701955795288 55.70102334022522,38.71701955795288 55.700141191482544,38.6170357465744 55.700141191482544,38.6170357465744 55.69548010826111,38.516274094581604 55.69548010826111,38.516274094581604 55.69081902503967,38.430824875831604 55.69081902503967,38.430824875831604 55.68970441818237,38.376450538635254 55.68970441818237,38.376450538635254 55.69947361946106,38.11411261558533 55.69947361946106,38.11411261558533 55.720776319503784,37.72127628326416 55.720776319503784,37.72127628326416 55.77049255371094,37.27739155292511 55.77049255371094,37.27739155292511 55.864596366882324,36.86169385910034 55.864596366882324,36.86169385910034 56.01906776428223,36.55408322811127 56.01906776428223,36.55408322811127" stroke="white" stroke-width="0.1" /></svg>