<?xml version="1.0" encoding="utf-8" ?>
<svg baseProfile="full" height="46.400654315948486" version="1.1" width="100.0" xmlns="http://www.w3.org/2000/svg" xmlns:ev="http://www.w3.org/2001/xml-events" xmlns:xlink="http://www.w3.org/1999/xlink"><defs><clipPath /></defs><polygon points="78.96778583526611,23.641657829284668 78.96778583526611,23.641657829284668 84.55929756164551,24.392829835414886 84.55929756164551,24.392829835414886 89.58349227905273,26.512765884399414 89.58349227905273,26.512765884399414 93.84012222290039,29.80111837387085 93.84012222290039,29.80111837387085 97.12862968444824,34.057432413101196 97.12862968444824,34.057432413101196 99.24867153167725,39.081522822380066 99.24867153167725,39.081522822380066 100.0,44.67303454875946 100.0,44.67303454875946 99.93820786476135,45.13206481933594 99.93820786476135,45.13206481933594 99.76394176483154,45.54469883441925 99.76394176483154,45.54469883441925 99.49363470077515,45.89439034461975 99.49363470077515,45.89439034461975 99.1437315940857,46.16459310054779 99.1437315940857,46.16459310054779 98.73088598251343,46.33886218070984 98.73088598251343,46.33886218070984 98.27154278755188,46.400654315948486 98.27154278755188,46.400654315948486 97.81199097633362,46.33891582489014 97.81199097633362,46.33891582489014 97.39914536476135,46.16464674472809 97.39914536476135,46.16464674472809 97.04955816268921,45.89439034461975 97.04955816268921,45.89439034461975 96.77945971488953,45.54464519023895 96.77945971488953,45.54464519023895 96.60550355911255,45.13201117515564 96.60550355911255,45.13201117515564 96.54392600059509,44.67303454875946 96.54392600059509,44.67303454875946 95.90989351272583,40.00162184238434 95.90989351272583,40.00162184238434 94.13608312606812,35.805684328079224 94.13608312606812,35.805684328079224 91.38882160186768,32.2512149810791 91.38882160186768,32.2512149810791 87.83419132232666,29.504209756851196 87.83419132232666,29.504209756851196 83.6384117603302,27.730822563171387 83.6384117603302,27.730822563171387 78.96778583526611,27.09689438343048 78.96778583526611,27.09689438343048 78.8869321346283,27.098572254180908 78.8869321346283,27.098572254180908 78.8067102432251,27.102550864219666 78.8067102432251,27.102550864219666 78.72701287269592,27.10789144039154 78.72701287269592,27.10789144039154 78.64720821380615,27.113494277000427 78.64720821380615,27.113494277000427 78.56729626655579,27.11852192878723 78.56729626655579,27.11852192878723 78.48686575889587,27.122029662132263 78.48686575889587,27.122029662132263 79.05429005622864,28.884944319725037 79.05429005622864,28.884944319725037 79.54264879226685,30.681633949279785 79.54264879226685,30.681633949279785 79.94962334632874,32.510316371917725 79.94962334632874,32.510316371917725 80.27260899543762,34.369003772735596 80.27260899543762,34.369003772735596 80.5094063282013,36.25612556934357 80.5094063282013,36.25612556934357 80.65770268440247,38.16974461078644 80.65770268440247,38.16974461078644 81.38096332550049,38.56688141822815 81.38096332550049,38.56688141822815 82.01102018356323,39.09037113189697 82.01102018356323,39.09037113189697 82.53068327903748,39.723461866378784 82.53068327903748,39.723461866378784 82.9230010509491,40.44918417930603 82.9230010509491,40.44918417930603 83.17100405693054,41.25083684921265 83.17100405693054,41.25083684921265 83.25750827789307,42.11134910583496 83.25750827789307,42.11134910583496 83.10418725013733,43.25153827667236 83.10418725013733,43.25153827667236 82.67165422439575,44.2761093378067 82.67165422439575,44.2761093378067 82.00075626373291,45.14421224594116 82.00075626373291,45.14421224594116 81.1323344707489,45.81490159034729 81.1323344707489,45.81490159034729 80.10745048522949,46.24733030796051 80.10745048522949,46.24733030796051 78.96694540977478,46.400654315948486 78.96694540977478,46.400654315948486 77.82686352729797,46.24743461608887 77.82686352729797,46.24743461608887 76.8022894859314,45.81495225429535 76.8022894859314,45.81495225429535 75.9342908859253,45.14421224594116 75.9342908859253,45.14421224594116 75.26350021362305,44.276005029678345 75.26350021362305,44.276005029678345 74.83117580413818,43.251433968544006 74.83117580413818,43.251433968544006 74.67806339263916,42.11134910583496 74.67806339263916,42.11134910583496 74.76006746292114,41.27581715583801 74.76006746292114,41.27581715583801 74.99518394470215,40.49641788005829 74.99518394470215,40.49641788005829 75.36791563034058,39.78797495365143 75.36791563034058,39.78797495365143 75.8618175983429,39.16551470756531 75.8618175983429,39.16551470756531 76.46139860153198,38.643962144851685 76.46139860153198,38.643962144851685 77.15051770210266,38.23844790458679 77.15051770210266,38.23844790458679 76.99928879737854,36.38756275177002 76.99928879737854,36.38756275177002 76.75840854644775,34.56369638442993 76.75840854644775,34.56369638442993 76.42987370491028,32.76931345462799 76.42987370491028,32.76931345462799 76.01566910743713,31.006452441215515 76.01566910743713,31.006452441215515 75.51820278167725,29.27747070789337 75.51820278167725,29.27747070789337 74.93946552276611,27.584517002105713 74.93946552276611,27.584517002105713 71.24314308166504,28.90845537185669 71.24314308166504,28.90845537185669 67.98228025436401,30.980005860328674 67.98228025436401,30.980005860328674 65.26182293891907,33.69585573673248 65.26182293891907,33.69585573673248 63.186609745025635,36.95221245288849 63.186609745025635,36.95221245288849 61.86156868934631,40.645867586135864 61.86156868934631,40.645867586135864 61.391645669937134,44.67303454875946 61.391645669937134,44.67303454875946 61.329853534698486,45.13206481933594 61.329853534698486,45.13206481933594 61.15558743476868,45.54469883441925 61.15558743476868,45.54469883441925 60.8853816986084,45.89439034461975 60.8853816986084,45.89439034461975 60.53558588027954,46.16459310054779 60.53558588027954,46.16459310054779 60.12295484542847,46.33886218070984 60.12295484542847,46.33886218070984 59.66402888298035,46.400654315948486 59.66402888298035,46.400654315948486 59.20447111129761,46.33891582489014 59.20447111129761,46.33891582489014 58.79163146018982,46.16464674472809 58.79163146018982,46.16464674472809 58.442044258117676,45.89439034461975 58.442044258117676,45.89439034461975 58.17194581031799,45.54464519023895 58.17194581031799,45.54464519023895 57.997989654541016,45.13201117515564 57.997989654541016,45.13201117515564 57.93640613555908,44.67303454875946 57.93640613555908,44.67303454875946 58.469271659851074,39.94826376438141 58.469271659851074,39.94826376438141 59.98868942260742,35.60051918029785 59.98868942260742,35.60051918029785 62.37642168998718,31.748145818710327 62.37642168998718,31.748145818710327 65.51390886306763,28.50928008556366 65.51390886306763,28.50928008556366 69.2828118801117,26.00226104259491 69.2828118801117,26.00226104259491 73.56457710266113,24.345439672470093 73.56457710266113,24.345439672470093 72.60912656784058,22.503037750720978 72.60912656784058,22.503037750720978 71.55481576919556,20.72284370660782 71.55481576919556,20.72284370660782 70.4054057598114,19.00852471590042 70.4054057598114,19.00852471590042 69.16404962539673,17.363590002059937 69.16404962539673,17.363590002059937 67.83502697944641,15.791912376880646 67.83502697944641,15.791912376880646 66.42118096351624,14.296846091747284 66.42118096351624,14.296846091747284 62.88037896156311,11.180354654788971 62.88037896156311,11.180354654788971 58.96108150482178,8.53273868560791 58.96108150482178,8.53273868560791 54.706233739852905,6.397563964128494 54.706233739852905,6.397563964128494 50.15897750854492,4.818294197320938 50.15897750854492,4.818294197320938 45.362573862075806,3.838496655225754 45.362573862075806,3.838496655225754 40.36026895046234,3.5017386078834534 40.36026895046234,3.5017386078834534 35.357338190078735,3.8385488092899323 35.357338190078735,3.8385488092899323 30.560827255249023,4.818294197320938 30.560827255249023,4.818294197320938 26.013782620429993,6.397563964128494 26.013782620429993,6.397563964128494 21.758933365345,8.532685786485672 21.758933365345,8.532685786485672 17.83921867609024,11.180302500724792 17.83921867609024,11.180302500724792 14.297683537006378,14.296846091747284 14.297683537006378,14.296846091747284 11.181873083114624,17.837752401828766 11.181873083114624,17.837752401828766 8.534414321184158,21.757152676582336 8.534414321184158,21.757152676582336 6.399187445640564,26.01194977760315 6.399187445640564,26.01194977760315 4.819707944989204,30.55899441242218 4.819707944989204,30.55899441242218 3.840015083551407,35.35529375076294 3.840015083551407,35.35529375076294 3.5038329660892487,40.35775661468506 3.5038329660892487,40.35775661468506 3.441309556365013,40.82338511943817 3.441309556365013,40.82338511943817 3.264683112502098,41.24198853969574 3.264683112502098,41.24198853969574 2.99086757004261,41.59691631793976 2.99086757004261,41.59691631793976 2.6364102959632874,41.87120497226715 2.6364102959632874,41.87120497226715 2.218172699213028,42.04814434051514 2.218172699213028,42.04814434051514 1.7527543008327484,42.110928893089294 1.7527543008327484,42.110928893089294 1.2866029515862465,42.048248648643494 1.2866029515862465,42.048248648643494 0.8678941056132317,41.87125563621521 0.8678941056132317,41.87125563621521 0.5131749901920557,41.59691631793976 0.5131749901920557,41.59691631793976 0.23909765295684338,41.24198853969574 0.23909765295684338,41.24198853969574 0.06252356688492,40.82333147525787 0.06252356688492,40.82333147525787 0.0,40.35775661468506 0.0,40.35775661468506 1.4416027814149857,29.62852418422699 1.4416027814149857,29.62852418422699 5.5099282413721085,19.987641274929047 5.5099282413721085,19.987641274929047 11.820514500141144,11.819886416196823 11.820514500141144,11.819886416196823 19.988688826560974,5.509614199399948 19.988688826560974,5.509614199399948 29.630199074745178,1.4414980076253414 29.630199074745178,1.4414980076253414 40.36026895046234,0.0 40.36026895046234,0.0 48.324012756347656,0.7859955541789532 48.324012756347656,0.7859955541789532 55.75551986694336,3.042394481599331 55.75551986694336,3.042394481599331 62.50334978103638,6.616972386837006 62.50334978103638,6.616972386837006 68.41596364974976,11.357295513153076 68.41596364974976,11.357295513153076 73.34213256835938,17.111138999462128 73.34213256835938,17.111138999462128 77.13040709495544,23.72627854347229 77.13040709495544,23.72627854347229 77.43412256240845,23.701876401901245 77.43412256240845,23.701876401901245 77.73878574371338,23.68103563785553 77.73878574371338,23.68103563785553 78.04438471794128,23.664331436157227 78.04438471794128,23.664331436157227 78.35092544555664,23.651868104934692 78.35092544555664,23.651868104934692 78.65883111953735,23.64422380924225 78.65883111953735,23.64422380924225" stroke="white" stroke-width="0.1" /></svg>