<?xml version="1.0" encoding="utf-8" ?>
<svg baseProfile="full" height="18.627597391605377" version="1.1" width="100.0" xmlns="http://www.w3.org/2000/svg" xmlns:ev="http://www.w3.org/2001/xml-events" xmlns:xlink="http://www.w3.org/1999/xlink"><defs><clipPath /></defs><polygon points="90.68620204925537,0.0 90.68620204925537,0.0 93.16205978393555,0.3327244194224477 93.16205978393555,0.3327244194224477 95.38690447807312,1.2717156670987606 95.38690447807312,1.2717156670987606 97.27187752723694,2.7281228452920914 97.27187752723694,2.7281228452920914 98.72797131538391,4.613114520907402 98.72797131538391,4.613114520907402 99.6671199798584,6.837937235832214 99.6671199798584,6.837937235832214 100.0,9.313798695802689 100.0,9.313798695802689 99.66727495193481,11.789620667696 99.66727495193481,11.789620667696 98.72828722000122,14.014463126659393 98.72828722000122,14.014463126659393 97.27187752723694,15.899474918842316 97.27187752723694,15.899474918842316 95.38659453392029,17.35588163137436 95.38659453392029,17.35588163137436 93.16190481185913,18.29487234354019 93.16190481185913,18.29487234354019 90.68620204925537,18.627597391605377 90.68620204925537,18.627597391605377 88.9755129814148,18.470671772956848 88.9755129814148,18.470671772956848 87.3685896396637,18.018612265586853 87.3685896396637,18.018612265586853 85.89369654655457,17.299650609493256 85.89369654655457,17.299650609493256 84.57832932472229,16.34194254875183 84.57832932472229,16.34194254875183 83.45107436180115,15.17387330532074 83.45107436180115,15.17387330532074 82.53926634788513,13.823442161083221 82.53926634788513,13.823442161083221 3.8348741829395294,13.823442161083221 3.8348741829395294,13.823442161083221 2.815575525164604,13.686437904834747 2.815575525164604,13.686437904834747 1.899573765695095,13.299734890460968 1.899573765695095,13.299734890460968 1.1233720928430557,12.69991397857666 1.1233720928430557,12.69991397857666 0.523474020883441,11.923479288816452 0.523474020883441,11.923479288816452 0.13700417475774884,11.007127910852432 0.13700417475774884,11.007127910852432 0.0,9.987324476242065 0.0,9.987324476242065 0.13700417475774884,8.96802619099617 0.13700417475774884,8.96802619099617 0.5236293189227581,8.051985502243042 0.5236293189227581,8.051985502243042 1.1233720928430557,7.275822758674622 1.1233720928430557,7.275822758674622 1.8994184210896492,6.676080077886581 1.8994184210896492,6.676080077886581 2.8154203668236732,6.289435178041458 2.8154203668236732,6.289435178041458 3.8348741829395294,6.152450665831566 3.8348741829395294,6.152450665831566 81.93408846855164,6.152450665831566 81.93408846855164,6.152450665831566 82.75254368782043,4.451897740364075 82.75254368782043,4.451897740364075 83.88305902481079,2.9639968648552895 83.88305902481079,2.9639968648552895 85.28401255607605,1.7318135127425194 85.28401255607605,1.7318135127425194 86.9128406047821,0.7983560673892498 86.9128406047821,0.7983560673892498 88.72759938240051,0.20672951359301805 88.72759938240051,0.20672951359301805" stroke="white" stroke-width="0.1" /></svg>