<?xml version="1.0" encoding="utf-8" ?>
<svg baseProfile="full" height="100.0" version="1.1" width="71.20769619941711" xmlns="http://www.w3.org/2000/svg" xmlns:ev="http://www.w3.org/2001/xml-events" xmlns:xlink="http://www.w3.org/1999/xlink"><defs><clipPath /></defs><polygon points="71.20769619941711,68.00157427787781 71.20769619941711,68.00157427787781 39.209261536598206,100.0 39.209261536598206,100.0 39.209261536598206,83.32385420799255 39.209261536598206,83.32385420799255 35.999828577041626,82.93020129203796 35.999828577041626,82.93020129203796 32.57051408290863,82.27840662002563 32.57051408290863,82.27840662002563 28.968900442123413,81.3050627708435 28.968900442123413,81.3050627708435 25.24220049381256,79.94653582572937 25.24220049381256,79.94653582572937 21.438242495059967,78.13953757286072 21.438242495059967,78.13953757286072 17.604239284992218,75.82066655158997 17.604239284992218,75.82066655158997 15.132199227809906,73.97037744522095 15.132199227809906,73.97037744522095 12.747105956077576,71.84612154960632 12.747105956077576,71.84612154960632 10.483420640230179,69.45526599884033 10.483420640230179,69.45526599884033 8.375723659992218,66.80442690849304 8.375723659992218,66.80442690849304 6.4590901136398315,63.900840282440186 6.4590901136398315,63.900840282440186 4.767978191375732,60.751497745513916 4.767978191375732,60.751497745513916 3.317718207836151,57.38154053688049 3.317718207836151,57.38154053688049 2.1268272772431374,53.815364837646484 2.1268272772431374,53.815364837646484 1.1978809721767902,50.0576376914978 1.1978809721767902,50.0576376914978 0.532350642606616,46.11326456069946 0.532350642606616,46.11326456069946 0.13244383735582232,41.98727309703827 0.13244383735582232,41.98727309703827 0.0,37.68468797206879 0.0,37.68468797206879 0.0,0.0 0.0,0.0 28.133034706115723,0.0 28.133034706115723,0.0 28.130459785461426,1.6754144802689552 28.130459785461426,1.6754144802689552 28.128740191459656,6.198984757065773 28.128740191459656,6.198984757065773 28.12788188457489,12.81614899635315 28.12788188457489,12.81614899635315 28.127393126487732,20.772406458854675 28.127393126487732,20.772406458854675 28.127145767211914,29.31343913078308 28.127145767211914,29.31343913078308 28.127145767211914,37.68468797206879 28.127145767211914,37.68468797206879 28.206613659858704,40.225034952163696 28.206613659858704,40.225034952163696 28.419014811515808,42.43917465209961 28.419014811515808,42.43917465209961 28.739577531814575,44.35151815414429 28.739577531814575,44.35151815414429 29.143163561820984,45.98609507083893 29.143163561820984,45.98609507083893 29.60536777973175,47.367313504219055 29.60536777973175,47.367313504219055 30.101051926612854,48.51957559585571 30.101051926612854,48.51957559585571 30.886638164520264,49.89502727985382 30.886638164520264,49.89502727985382 31.711959838867188,51.011234521865845 31.711959838867188,51.011234521865845 32.60374963283539,51.92117094993591 32.60374963283539,51.92117094993591 33.58812630176544,52.67757773399353 33.58812630176544,52.67757773399353 34.69219207763672,53.33316922187805 34.69219207763672,53.33316922187805 35.94231605529785,53.94093990325928 35.94231605529785,53.94093990325928 36.44707202911377,54.14156913757324 36.44707202911377,54.14156913757324 36.97231113910675,54.323309659957886 36.97231113910675,54.323309659957886 37.514716386795044,54.48788404464722 37.514716386795044,54.48788404464722 38.07049095630646,54.63700890541077 38.07049095630646,54.63700890541077 38.63656520843506,54.77263927459717 38.63656520843506,54.77263927459717 39.209261536598206,54.89649772644043 39.209261536598206,54.89649772644043 39.209261536598206,36.0031396150589 39.209261536598206,36.0031396150589" stroke="white" stroke-width="0.1" /></svg>