<?xml version="1.0" encoding="utf-8" ?>
<svg baseProfile="full" height="95.42533159255981" version="1.1" width="100.00066757202148" xmlns="http://www.w3.org/2000/svg" xmlns:ev="http://www.w3.org/2001/xml-events" xmlns:xlink="http://www.w3.org/1999/xlink"><defs><clipPath /></defs><polygon points="98.65366816520691,75.36543607711792 98.65366816520691,75.36543607711792 80.19763827323914,94.0708339214325 80.19763827323914,94.0708339214325 78.60592007637024,95.12543082237244 78.60592007637024,95.12543082237244 76.84375047683716,95.42533159255981 76.84375047683716,95.42533159255981 75.11606812477112,95.0560450553894 75.11606812477112,95.0560450553894 73.62797260284424,94.10287737846375 73.62797260284424,94.10287737846375 72.58456349372864,92.6512598991394 72.58456349372864,92.6512598991394 72.19127416610718,90.78657627105713 72.19127416610718,90.78657627105713 72.19127416610718,83.61852169036865 72.19127416610718,83.61852169036865 60.476189851760864,83.61852169036865 60.476189851760864,83.61852169036865 60.09650230407715,86.37680411338806 60.09650230407715,86.37680411338806 59.02872085571289,88.87182474136353 59.02872085571289,88.87182474136353 57.378965616226196,90.99748134613037 57.378965616226196,90.99748134613037 55.25335073471069,92.64732003211975 55.25335073471069,92.64732003211975 52.75832414627075,93.7151849269867 52.75832414627075,93.7151849269867 50.0,94.09471154212952 50.0,94.09471154212952 47.24167883396149,93.71510148048401 47.24167883396149,93.71510148048401 44.74632143974304,92.64723658561707 44.74632143974304,92.64723658561707 42.62103736400604,90.99748134613037 42.62103736400604,90.99748134613037 40.971118211746216,88.87186646461487 40.971118211746216,88.87186646461487 39.90350365638733,86.37683987617493 39.90350365638733,86.37683987617493 39.523810148239136,83.61852169036865 39.523810148239136,83.61852169036865 39.523810148239136,34.88592803478241 39.523810148239136,34.88592803478241 27.80872881412506,34.88592803478241 27.80872881412506,34.88592803478241 27.80872881412506,42.053988575935364 27.80872881412506,42.053988575935364 27.41527557373047,43.91734004020691 27.41527557373047,43.91734004020691 26.371866464614868,45.36879062652588 26.371866464614868,45.36879062652588 24.88393783569336,46.322622895240784 24.88393783569336,46.322622895240784 23.15625548362732,46.69286608695984 23.15625548362732,46.69286608695984 21.393918991088867,46.39383554458618 21.393918991088867,46.39383554458618 19.802361726760864,45.339569449424744 19.802361726760864,45.339569449424744 1.346332486718893,26.632842421531677 1.346332486718893,26.632842421531677 0.5978909786790609,25.640296936035156 0.5978909786790609,25.640296936035156 0.1488095265813172,24.524763226509094 0.1488095265813172,24.524763226509094 -0.0006632179520238424,23.347924649715424 -0.0006632179520238424,23.347924649715424 0.14905823627486825,22.170960903167725 0.14905823627486825,22.170960903167725 0.5980568006634712,21.055595576763153 0.5980568006634712,21.055595576763153 1.346332486718893,20.06300687789917 1.346332486718893,20.06300687789917 19.802361726760864,1.3562806881964207 19.802361726760864,1.3562806881964207 21.393753588199615,0.3013496519997716 21.393753588199615,0.3013496519997716 23.155923187732697,0.0016994959878502414 23.155923187732697,0.0016994959878502414 24.88393783569336,0.3715678583830595 24.88393783569336,0.3715678583830595 26.37203335762024,1.3251095078885555 26.37203335762024,1.3251095078885555 27.4154394865036,2.7767278254032135 27.4154394865036,2.7767278254032135 27.80872881412506,4.64053601026535 27.80872881412506,4.64053601026535 27.80872881412506,11.808595806360245 27.80872881412506,11.808595806360245 39.523810148239136,11.808595806360245 39.523810148239136,11.808595806360245 39.90316987037659,9.050272405147552 39.90316987037659,9.050272405147552 40.970951318740845,6.555163115262985 40.970951318740845,6.555163115262985 42.62103736400604,4.429632797837257 42.62103736400604,4.429632797837257 44.746485352516174,2.779753692448139 44.746485352516174,2.779753692448139 47.24167883396149,1.712014153599739 47.24167883396149,1.712014153599739 50.0,1.332404837012291 50.0,1.332404837012291 52.75832414627075,1.7119728028774261 52.75832414627075,1.7119728028774261 55.25318384170532,2.779753692448139 55.25318384170532,2.779753692448139 57.378965616226196,4.429632797837257 57.378965616226196,4.429632797837257 59.02872085571289,6.555246561765671 59.02872085571289,6.555246561765671 60.09650230407715,9.050313383340836 60.09650230407715,9.050313383340836 60.476189851760864,11.808595806360245 60.476189851760864,11.808595806360245 60.476189851760864,60.54118871688843 60.476189851760864,60.54118871688843 72.19127416610718,60.54118871688843 72.19127416610718,60.54118871688843 72.19127416610718,53.373128175735474 72.19127416610718,53.373128175735474 72.58456349372864,51.50923728942871 72.58456349372864,51.50923728942871 73.62780570983887,50.058114528656006 73.62780570983887,50.058114528656006 75.11606812477112,49.105072021484375 75.11606812477112,49.105072021484375 76.84375047683716,48.73545169830322 76.84375047683716,48.73545169830322 78.60608100891113,49.0347295999527 78.60608100891113,49.0347295999527 80.19763827323914,50.0882089138031 80.19763827323914,50.0882089138031 98.65366816520691,68.79427433013916 98.65366816520691,68.79427433013916 99.40177798271179,69.78723406791687 99.40177798271179,69.78723406791687 99.85077977180481,70.90284824371338 99.85077977180481,70.90284824371338 100.00066757202148,72.07985520362854 100.00066757202148,72.07985520362854 99.85110759735107,73.25677275657654 99.85110759735107,73.25677275657654 99.40194487571716,74.37247633934021 99.40194487571716,74.37247633934021 98.65366816520691,75.36543607711792 98.65366816520691,75.36543607711792" stroke="white" stroke-width="0.1" /></svg>