<?xml version="1.0" encoding="utf-8" ?>
<svg baseProfile="full" height="100.0" version="1.1" width="81.7313015460968" xmlns="http://www.w3.org/2000/svg" xmlns:ev="http://www.w3.org/2001/xml-events" xmlns:xlink="http://www.w3.org/1999/xlink"><defs><clipPath /></defs><polygon points="43.50800812244415,81.31558299064636 43.50800812244415,81.31558299064636 43.753835558891296,81.72670006752014 43.753835558891296,81.72670006752014 44.001007080078125,82.12607502937317 44.001007080078125,82.12607502937317 44.24971044063568,82.51403570175171 44.24971044063568,82.51403570175171 44.499754905700684,82.89097547531128 44.499754905700684,82.89097547531128 44.751718640327454,83.25737118721008 44.751718640327454,83.25737118721008 45.00521719455719,83.61355066299438 45.00521719455719,83.61355066299438 43.78029704093933,83.69672298431396 43.78029704093933,83.69672298431396 42.542532086372375,83.73914957046509 42.542532086372375,83.73914957046509 41.29958748817444,83.75238180160522 41.29958748817444,83.75238180160522 40.05722105503082,83.74763131141663 40.05722105503082,83.74763131141663 38.82252275943756,83.73646140098572 38.82252275943756,83.73646140098572 37.60201334953308,83.73013734817505 37.60201334953308,83.73013734817505 15.269681811332703,83.73013734817505 15.269681811332703,83.73013734817505 14.190112054347992,83.74044299125671 14.190112054347992,83.74044299125671 13.096736371517181,83.75588059425354 13.096736371517181,83.75588059425354 11.998182535171509,83.75276327133179 11.998182535171509,83.75276327133179 10.903464257717133,83.70736837387085 10.903464257717133,83.70736837387085 9.821976721286774,83.59629511833191 9.821976721286774,83.59629511833191 8.76234918832779,83.39571952819824 8.76234918832779,83.39571952819824 6.0670677572488785,82.37621784210205 6.0670677572488785,82.37621784210205 3.823940083384514,80.78998923301697 3.823940083384514,80.78998923301697 2.0657559856772423,78.73765230178833 2.0657559856772423,78.73765230178833 0.8256888017058372,76.31964683532715 0.8256888017058372,76.31964683532715 0.1369117060676217,73.63663911819458 0.1369117060676217,73.63663911819458 0.0322145177051425,70.7891047000885 0.0322145177051425,70.7891047000885 0.23585630115121603,67.84042119979858 0.23585630115121603,67.84042119979858 0.4394980613142252,64.89145159721375 0.4394980613142252,64.89145159721375 0.6427563726902008,61.94238066673279 0.6427563726902008,61.94238066673279 0.8460146375000477,58.99322032928467 0.8460146375000477,58.99322032928467 1.0494646616280079,56.04434609413147 1.0494646616280079,56.04434609413147 1.2532982043921947,53.09566259384155 1.2532982043921947,53.09566259384155 1.3211787678301334,51.97572708129883 1.3211787678301334,51.97572708129883 1.3798552565276623,50.8513867855072 1.3798552565276623,50.8513867855072 1.4406409114599228,49.72541034221649 1.4406409114599228,49.72541034221649 1.5136988833546638,48.600396513938904 1.5136988833546638,48.600396513938904 1.6095753759145737,47.47916758060455 1.6095753759145737,47.47916758060455 1.739584095776081,46.36436402797699 1.739584095776081,46.36436402797699 2.5583697482943535,43.267837166786194 2.5583697482943535,43.267837166786194 4.073602706193924,40.48444628715515 4.073602706193924,40.48444628715515 6.17368258535862,38.122814893722534 6.17368258535862,38.122814893722534 8.745282888412476,36.29138171672821 8.745282888412476,36.29138171672821 11.676612496376038,35.09882092475891 11.676612496376038,35.09882092475891 14.85549509525299,34.653618931770325 14.85549509525299,34.653618931770325 12.05858439207077,31.475791335105896 12.05858439207077,31.475791335105896 10.025426745414734,27.83367931842804 10.025426745414734,27.83367931842804 8.788427710533142,23.875944316387177 8.788427710533142,23.875944316387177 8.379609882831573,19.75061595439911 8.379609882831573,19.75061595439911 8.831571787595749,15.606255829334259 8.831571787595749,15.606255829334259 10.176719725131989,11.591091006994247 10.176719725131989,11.591091006994247 12.106139212846756,8.303628116846085 12.106139212846756,8.303628116846085 14.597779512405396,5.476995557546616 14.597779512405396,5.476995557546616 17.55729615688324,3.172362968325615 17.55729615688324,3.172362968325615 20.888814330101013,1.4506121166050434 20.888814330101013,1.4506121166050434 24.49837476015091,0.3728638868778944 24.49837476015091,0.3728638868778944 28.290483355522156,0.0 28.290483355522156,0.0 32.083168625831604,0.37300768308341503 32.083168625831604,0.37300768308341503 35.69311201572418,1.4512352645397186 35.69311201572418,1.4512352645397186 39.02539610862732,3.17351371049881 39.02539610862732,3.17351371049881 41.9845312833786,5.478385835886002 41.9845312833786,5.478385835886002 44.47597861289978,8.30473005771637 44.47597861289978,8.30473005771637 46.40424847602844,11.591091006994247 46.40424847602844,11.591091006994247 47.749969363212585,15.606160461902618 47.749969363212585,15.606160461902618 48.20250868797302,19.75061595439911 48.20250868797302,19.75061595439911 47.79426455497742,23.875944316387177 47.79426455497742,23.875944316387177 46.55688405036926,27.83377468585968 46.55688405036926,27.83377468585968 44.523534178733826,31.475839018821716 44.523534178733826,31.475839018821716 41.72547161579132,34.653618931770325 41.72547161579132,34.653618931770325 42.565733194351196,34.69134569168091 42.565733194351196,34.69134569168091 43.395450711250305,34.78492200374603 43.395450711250305,34.78492200374603 44.21231746673584,34.93242561817169 44.21231746673584,34.93242561817169 45.01442015171051,35.13175547122955 45.01442015171051,35.13175547122955 45.79984247684479,35.38108170032501 45.79984247684479,35.38108170032501 46.56685292720795,35.67834794521332 46.56685292720795,35.67834794521332 46.030136942863464,35.86367666721344 46.030136942863464,35.86367666721344 45.49457132816315,36.05590760707855 45.49457132816315,36.05590760707855 44.96111273765564,36.2566739320755 44.96111273765564,36.2566739320755 44.42976713180542,36.46765053272247 44.42976713180542,36.46765053272247 43.90110373497009,36.6905152797699 43.90110373497009,36.6905152797699 43.37608218193054,36.92704141139984 43.37608218193054,36.92704141139984 42.639559507369995,36.484476923942566 42.639559507369995,36.484476923942566 41.85318052768707,36.07436418533325 41.85318052768707,36.07436418533325 41.014835238456726,35.70634126663208 41.014835238456726,35.70634126663208 40.122416615486145,35.38956642150879 40.122416615486145,35.38956642150879 39.17419612407684,35.13376712799072 39.17419612407684,35.13376712799072 38.16806972026825,34.94815230369568 38.16806972026825,34.94815230369568 37.93202042579651,34.91564989089966 37.93202042579651,34.91564989089966 37.68791854381561,34.88885164260864 37.68791854381561,34.88885164260864 37.43768036365509,34.86799895763397 37.43768036365509,34.86799895763397 37.181881070137024,34.85289812088013 37.181881070137024,34.85289812088013 36.92243993282318,34.84383821487427 36.92243993282318,34.84383821487427 36.660122871398926,34.840768575668335 36.660122871398926,34.840768575668335 34.47394669055939,35.071590542793274 34.47394669055939,35.071590542793274 32.42467939853668,35.74363887310028 32.42467939853668,35.74363887310028 30.555471777915955,36.826181411743164 30.555471777915955,36.826181411743164 28.907737135887146,38.28834593296051 28.907737135887146,38.28834593296051 27.524620294570923,40.099406242370605 27.524620294570923,40.099406242370605 26.448118686676025,42.2286331653595 26.448118686676025,42.2286331653595 25.921183824539185,43.77143085002899 25.921183824539185,43.77143085002899 25.537869334220886,45.306938886642456 25.537869334220886,45.306938886642456 25.27075707912445,46.816131472587585 25.27075707912445,46.816131472587585 25.091660022735596,48.27968776226044 25.091660022735596,48.27968776226044 24.973921477794647,49.67876672744751 24.973921477794647,49.67876672744751 24.889551103115082,50.9940505027771 24.889551103115082,50.9940505027771 24.878813326358795,51.19040608406067 24.878813326358795,51.19040608406067 24.823012948036194,52.43186354637146 24.823012948036194,52.43186354637146 24.86347258090973,54.092252254486084 24.86347258090973,54.092252254486084 25.1298189163208,56.04405999183655 25.1298189163208,56.04405999183655 25.75090527534485,58.15938115119934 25.75090527534485,58.15938115119934 26.856553554534912,60.31075716018677 26.856553554534912,60.31075716018677 28.57581079006195,62.37037777900696 28.57581079006195,62.37037777900696 29.078972339630127,62.83552050590515 29.078972339630127,62.83552050590515 29.582515358924866,63.27252388000488 29.582515358924866,63.27252388000488 30.08260726928711,63.68388533592224 30.08260726928711,63.68388533592224 30.574646592140198,64.07189965248108 30.574646592140198,64.07189965248108 31.054413318634033,64.43910598754883 31.054413318634033,64.43910598754883 31.51807188987732,64.78800177574158 31.51807188987732,64.78800177574158 31.8327397108078,65.02519845962524 31.8327397108078,65.02519845962524 32.138776779174805,65.25803208351135 32.138776779174805,65.25803208351135 32.43331015110016,65.48636555671692 32.43331015110016,65.48636555671692 32.71288573741913,65.7097578048706 32.71288573741913,65.7097578048706 32.97481834888458,65.92811346054077 32.97481834888458,65.92811346054077 33.216238021850586,66.14100933074951 33.216238021850586,66.14100933074951 33.700987696647644,66.58961772918701 33.700987696647644,66.58961772918701 34.189385175704956,67.062908411026 34.189385175704956,67.062908411026 34.683915972709656,67.56343245506287 34.683915972709656,67.56343245506287 35.18669307231903,68.09391975402832 35.18669307231903,68.09391975402832 35.700589418411255,68.65690350532532 35.700589418411255,68.65690350532532 36.227527260780334,69.2550778388977 36.227527260780334,69.2550778388977 36.86990141868591,70.0063705444336 36.86990141868591,70.0063705444336 37.51687407493591,70.78972458839417 37.51687407493591,70.78972458839417 38.17056119441986,71.60788774490356 38.17056119441986,71.60788774490356 38.832876086235046,72.4635899066925 38.832876086235046,72.4635899066925 39.50631320476532,73.35969805717468 39.50631320476532,73.35969805717468 40.19298255443573,74.29895401000977 40.19298255443573,74.29895401000977 40.425193309783936,74.65762495994568 40.425193309783936,74.65762495994568 40.65472185611725,75.0795304775238 40.65472185611725,75.0795304775238 40.8834844827652,75.55416822433472 40.8834844827652,75.55416822433472 41.11205339431763,76.07094049453735 41.11205339431763,76.07094049453735 41.342347860336304,76.61940455436707 41.342347860336304,76.61940455436707 41.57513678073883,77.18905806541443 41.57513678073883,77.18905806541443 41.83918237686157,77.83281803131104 41.83918237686157,77.83281803131104 42.119717597961426,78.50016951560974 42.119717597961426,78.50016951560974 42.421919107437134,79.18673753738403 42.421919107437134,79.18673753738403 42.750585079193115,79.88778948783875 42.750585079193115,79.88778948783875 43.111079931259155,80.59890270233154 43.111079931259155,80.59890270233154" stroke="white" stroke-width="0.1" /><polygon points="81.69295191764832,51.57697796821594 81.69295191764832,51.57697796821594 81.7313015460968,52.76407599449158 81.7313015460968,52.76407599449158 81.67895078659058,53.91852259635925 81.67895078659058,53.91852259635925 81.49659633636475,55.028533935546875 81.49659633636475,55.028533935546875 81.14415407180786,56.08221888542175 81.14415407180786,56.08221888542175 80.58270215988159,57.06797242164612 80.58270215988159,57.06797242164612 79.77235317230225,57.97386169433594 79.77235317230225,57.97386169433594 79.19037938117981,58.4738552570343 79.19037938117981,58.4738552570343 78.58635783195496,58.9502215385437 78.58635783195496,58.9502215385437 77.96987295150757,59.413546323776245 77.96987295150757,59.413546323776245 77.35012769699097,59.87418293952942 77.35012769699097,59.87418293952942 76.73709392547607,60.342973470687866 76.73709392547607,60.342973470687866 76.13978385925293,60.830217599868774 76.13978385925293,60.830217599868774 74.58581328392029,62.24559545516968 74.58581328392029,62.24559545516968 73.10893535614014,63.745248317718506 73.10893535614014,63.745248317718506 71.70107960700989,65.31416773796082 71.70107960700989,65.31416773796082 70.35267353057861,66.93721413612366 70.35267353057861,66.93721413612366 69.05565857887268,68.59952211380005 69.05565857887268,68.59952211380005 67.80082583427429,70.28594613075256 67.80082583427429,70.28594613075256 66.55730605125427,72.29129672050476 66.55730605125427,72.29129672050476 65.52969813346863,74.40844178199768 65.52969813346863,74.40844178199768 64.5655632019043,76.55550241470337 64.5655632019043,76.55550241470337 63.51226568222046,78.6503553390503 63.51226568222046,78.6503553390503 62.21793293952942,80.61107993125916 62.21793293952942,80.61107993125916 60.529547929763794,82.35564827919006 60.529547929763794,82.35564827919006 60.14699935913086,82.77899026870728 60.14699935913086,82.77899026870728 59.94623303413391,83.2410216331482 59.94623303413391,83.2410216331482 59.884488582611084,83.74010920524597 59.884488582611084,83.74010920524597 59.91823673248291,84.27442908287048 59.91823673248291,84.27442908287048 60.00452637672424,84.84240174293518 60.00452637672424,84.84240174293518 60.1000189781189,85.4421079158783 60.1000189781189,85.4421079158783 60.17671823501587,85.96434593200684 60.17671823501587,85.96434593200684 60.26684641838074,86.4844799041748 60.26684641838074,86.4844799041748 60.37154197692871,87.00221180915833 60.37154197692871,87.00221180915833 60.49138903617859,87.51677870750427 60.49138903617859,87.51677870750427 60.62772274017334,88.02785277366638 60.62772274017334,88.02785277366638 60.78112721443176,88.53470087051392 60.78112721443176,88.53470087051392 61.114585399627686,89.45640921592712 61.114585399627686,89.45640921592712 61.52513027191162,90.35400748252869 61.52513027191162,90.35400748252869 62.020617723464966,91.20620489120483 62.020617723464966,91.20620489120483 62.607765197753906,91.99134111404419 62.607765197753906,91.99134111404419 63.29481601715088,92.68807172775269 63.29481601715088,92.68807172775269 64.08848166465759,93.27483773231506 64.08848166465759,93.27483773231506 65.13909697532654,93.96913051605225 65.13909697532654,93.96913051605225 66.22192859649658,94.83005404472351 66.22192859649658,94.83005404472351 67.2048568725586,95.83742618560791 67.2048568725586,95.83742618560791 67.95595288276672,96.97102308273315 67.95595288276672,96.97102308273315 68.34386587142944,98.2108473777771 68.34386587142944,98.2108473777771 68.23648810386658,99.53672885894775 68.23648810386658,99.53672885894775 68.16534399986267,99.70201849937439 68.16534399986267,99.70201849937439 68.0656373500824,99.82450008392334 68.0656373500824,99.82450008392334 67.94118881225586,99.90987777709961 67.94118881225586,99.90987777709961 67.79564619064331,99.96371269226074 67.79564619064331,99.96371269226074 67.63303875923157,99.99194741249084 67.63303875923157,99.99194741249084 67.45720505714417,100.0 67.45720505714417,100.0 67.2947883605957,99.99496936798096 67.2947883605957,99.99496936798096 67.12911128997803,99.9824583530426 67.12911128997803,99.9824583530426 66.96248054504395,99.96625185012817 66.96248054504395,99.96625185012817 66.79719090461731,99.9500036239624 66.79719090461731,99.9500036239624 66.6361153125763,99.93754029273987 66.6361153125763,99.93754029273987 66.4815604686737,99.93250370025635 66.4815604686737,99.93250370025635 52.405351400375366,99.93250370025635 52.405351400375366,99.93250370025635 45.6495076417923,99.93250370025635 45.6495076417923,99.93250370025635 45.12103497982025,99.87785816192627 45.12103497982025,99.87785816192627 44.757279753685,99.71361756324768 44.757279753685,99.71361756324768 44.539639353752136,99.43893551826477 44.539639353752136,99.43893551826477 44.44894194602966,99.05298352241516 44.44894194602966,99.05298352241516 44.46735084056854,98.55514168739319 44.46735084056854,98.55514168739319 44.57569122314453,97.94440865516663 44.57569122314453,97.94440865516663 44.879043102264404,97.04753160476685 44.879043102264404,97.04753160476685 45.35209834575653,96.22668623924255 45.35209834575653,96.22668623924255 45.956310629844666,95.4792320728302 45.956310629844666,95.4792320728302 46.652376651763916,94.80224847793579 46.652376651763916,94.80224847793579 47.4017471075058,94.1931426525116 47.4017471075058,94.1931426525116 48.16530644893646,93.64914298057556 48.16530644893646,93.64914298057556 49.01381433010101,93.03131103515625 49.01381433010101,93.03131103515625 49.76510405540466,92.37321615219116 49.76510405540466,92.37321615219116 50.424158573150635,91.65912866592407 50.424158573150635,91.65912866592407 50.99558234214783,90.87308049201965 50.99558234214783,90.87308049201965 51.4847457408905,89.99950289726257 51.4847457408905,89.99950289726257 51.89605355262756,89.02252316474915 51.89605355262756,89.02252316474915 52.1767795085907,88.20004463195801 52.1767795085907,88.20004463195801 52.52500772476196,87.02756762504578 52.52500772476196,87.02756762504578 52.84331440925598,85.69406867027283 52.84331440925598,85.69406867027283 53.03429961204529,84.3883752822876 53.03429961204529,84.3883752822876 53.00055146217346,83.29955339431763 53.00055146217346,83.29955339431763 52.64465808868408,82.61643648147583 52.64465808868408,82.61643648147583 51.898741722106934,81.99318647384644 51.898741722106934,81.99318647384644 51.21034383773804,81.30633234977722 51.21034383773804,81.30633234977722 50.57526230812073,80.5673599243164 50.57526230812073,80.5673599243164 49.987730383872986,79.78769540786743 49.987730383872986,79.78769540786743 49.44391846656799,78.97887825965881 49.44391846656799,78.97887825965881 48.93845617771149,78.15242409706116 48.93845617771149,78.15242409706116 48.29186499118805,76.91264152526855 48.29186499118805,76.91264152526855 47.72580862045288,75.62555074691772 47.72580862045288,75.62555074691772 47.19120264053345,74.32196140289307 47.19120264053345,74.32196140289307 46.6389536857605,73.03266525268555 46.6389536857605,73.03266525268555 46.020740270614624,71.78851962089539 46.020740270614624,71.78851962089539 45.28747797012329,70.62036395072937 45.28747797012329,70.62036395072937 44.60080862045288,69.680917263031 44.60080862045288,69.680917263031 43.90302002429962,68.7502920627594 43.90302002429962,68.7502920627594 43.19276511669159,67.82958507537842 43.19276511669159,67.82958507537842 42.468515038490295,66.91981554031372 42.468515038490295,66.91981554031372 41.72930717468262,66.02221727371216 41.72930717468262,66.02221727371216 40.97380042076111,65.13775587081909 40.97380042076111,65.13775587081909 40.41675627231598,64.50492143630981 40.41675627231598,64.50492143630981 39.849358797073364,63.88096213340759 39.849358797073364,63.88096213340759 39.27103281021118,63.2673978805542 39.27103281021118,63.2673978805542 38.680240511894226,62.66582012176514 38.680240511894226,62.66582012176514 38.076409697532654,62.077903747558594 38.076409697532654,62.077903747558594 37.45781481266022,61.505186557769775 37.45781481266022,61.505186557769775 36.71822249889374,60.8681321144104 36.71822249889374,60.8681321144104 35.95159351825714,60.264307260513306 35.95159351825714,60.264307260513306 35.17288565635681,59.67586040496826 35.17288565635681,59.67586040496826 34.39666926860809,59.08483266830444 34.39666926860809,59.08483266830444 33.63771140575409,58.4733784198761 33.63771140575409,58.4733784198761 32.910966873168945,57.82352685928345 32.910966873168945,57.82352685928345 32.154884934425354,56.9344162940979 32.154884934425354,56.9344162940979 31.634658575057983,55.96649646759033 31.634658575057983,55.96649646759033 31.31251335144043,54.93304133415222 31.31251335144043,54.93304133415222 31.149715185165405,53.8470983505249 31.149715185165405,53.8470983505249 31.108102202415466,52.721983194351196 31.108102202415466,52.721983194351196 31.149905920028687,51.570844650268555 31.149905920028687,51.570844650268555 31.2227725982666,50.39486885070801 31.2227725982666,50.39486885070801 31.31442964076996,49.204275012016296 31.31442964076996,49.204275012016296 31.445971131324768,48.01228940486908 31.445971131324768,48.01228940486908 31.637534499168396,46.83171212673187 31.637534499168396,46.83171212673187 31.910398602485657,45.67573070526123 31.910398602485657,45.67573070526123 32.28508532047272,44.55728232860565 32.28508532047272,44.55728232860565 32.72995054721832,43.640318512916565 32.72995054721832,43.640318512916565 33.299073576927185,42.81899333000183 33.299073576927185,42.81899333000183 33.98478329181671,42.12508499622345 33.98478329181671,42.12508499622345 34.77863967418671,41.590142250061035 34.77863967418671,41.590142250061035 35.672977566719055,41.245946288108826 35.672977566719055,41.245946288108826 36.660122871398926,41.1241352558136 36.660122871398926,41.1241352558136 36.761751770973206,41.125139594078064 36.761751770973206,41.125139594078064 36.86414659023285,41.12839996814728 36.86414659023285,41.12839996814728 36.9676947593689,41.13410413265228 36.9676947593689,41.13410413265228 37.071433663368225,41.14225506782532 37.071433663368225,41.14225506782532 37.175747752189636,41.153281927108765 37.175747752189636,41.153281927108765 37.27986812591553,41.167086362838745 37.27986812591553,41.167086362838745 38.32933306694031,41.41473472118378 38.32933306694031,41.41473472118378 39.297109842300415,41.823264956474304 39.297109842300415,41.823264956474304 40.19758403301239,42.36017465591431 40.19758403301239,42.36017465591431 41.044747829437256,42.992863059043884 41.044747829437256,42.992863059043884 41.85318052768707,43.689072132110596 41.85318052768707,43.689072132110596 42.63668358325958,44.41615045070648 42.63668358325958,44.41615045070648 42.639750242233276,44.41768527030945 42.639750242233276,44.41768527030945 42.64262616634369,44.419074058532715 42.64262616634369,44.419074058532715 42.6458865404129,44.42037045955658 42.6458865404129,44.42037045955658 42.648956179618835,44.421377778053284 42.648956179618835,44.421377778053284 42.65202283859253,44.42209601402283 42.65202283859253,44.42209601402283 42.65508949756622,44.42228674888611 42.65508949756622,44.42228674888611 42.98279583454132,44.29994821548462 42.98279583454132,44.29994821548462 43.582600355148315,43.9910352230072 43.582600355148315,43.9910352230072 44.32027339935303,43.582409620285034 44.32027339935303,43.582409620285034 45.06120979785919,43.16098392009735 45.06120979785919,43.16098392009735 45.671942830085754,42.81371831893921 45.671942830085754,42.81371831893921 46.01767361164093,42.62747764587402 46.01767361164093,42.62747764587402 46.96934223175049,42.207443714141846 46.96934223175049,42.207443714141846 47.939422726631165,41.825902462005615 47.939422726631165,41.825902462005615 48.926183581352234,41.48463010787964 48.926183581352234,41.48463010787964 49.927136301994324,41.18525683879852 49.927136301994324,41.18525683879852 50.94035863876343,40.9295529127121 50.94035863876343,40.9295529127121 51.96355581283569,40.71915149688721 51.96355581283569,40.71915149688721 52.69470810890198,40.594080090522766 52.69470810890198,40.594080090522766 53.42739820480347,40.491923689842224 53.42739820480347,40.491923689842224 54.161810874938965,40.4127299785614 54.161810874938965,40.4127299785614 54.89718317985535,40.35620987415314 54.89718317985535,40.35620987415314 55.63313364982605,40.32236635684967 55.63313364982605,40.32236635684967 56.36926889419556,40.31110107898712 56.36926889419556,40.31110107898712 58.091217279434204,40.371838212013245 58.091217279434204,40.371838212013245 59.8045289516449,40.55261313915253 59.8045289516449,40.55261313915253 61.50211691856384,40.85146188735962 61.50211691856384,40.85146188735962 63.17707896232605,41.26603305339813 63.17707896232605,41.26603305339813 64.82290029525757,41.79435968399048 64.82290029525757,41.79435968399048 66.43247604370117,42.43419170379639 66.43247604370117,42.43419170379639 67.07618832588196,42.73145794868469 67.07618832588196,42.73145794868469 67.71261692047119,43.044206500053406 67.71261692047119,43.044206500053406 68.34003329277039,43.37378144264221 68.34003329277039,43.37378144264221 68.95632743835449,43.721142411231995 68.95632743835449,43.721142411231995 69.56073641777039,44.08767819404602 69.56073641777039,44.08767819404602 70.15094757080078,44.474443793296814 70.15094757080078,44.474443793296814 70.9166169166565,43.7360018491745 70.9166169166565,43.7360018491745 71.72696590423584,43.030256032943726 71.72696590423584,43.030256032943726 72.58774638175964,42.38932132720947 72.58774638175964,42.38932132720947 73.50394129753113,41.84522032737732 73.50394129753113,41.84522032737732 74.48169589042664,41.43022000789642 74.48169589042664,41.43022000789642 75.52617192268372,41.176292300224304 75.52617192268372,41.176292300224304 75.66615343093872,41.15653932094574 75.66615343093872,41.15653932094574 75.80421566963196,41.14043414592743 75.80421566963196,41.14043414592743 75.94035863876343,41.127970814704895 75.94035863876343,41.127970814704895 76.07420086860657,41.119006276130676 76.07420086860657,41.119006276130676 76.20651125907898,41.113683581352234 76.20651125907898,41.113683581352234 76.3361394405365,41.111862659454346 76.3361394405365,41.111862659454346 78.35414409637451,41.6469007730484 78.35414409637451,41.6469007730484 79.77139353752136,43.0565744638443 79.77139353752136,43.0565744638443 80.70120215415955,45.047786831855774 80.70120215415955,45.047786831855774 81.25594854354858,47.327059507369995 81.25594854354858,47.327059507369995 81.54894709587097,49.601203203201294 81.54894709587097,49.601203203201294" stroke="white" stroke-width="0.1" /><polygon points="43.63073110580444,61.94391846656799 43.63073110580444,61.94391846656799 43.386054039001465,60.41334271430969 43.386054039001465,60.41334271430969 43.175700306892395,58.87601375579834 43.175700306892395,58.87601375579834 42.993342876434326,57.33455419540405 42.993342876434326,57.33455419540405 42.83169507980347,55.79123497009277 42.83169507980347,55.79123497009277 42.68442988395691,54.2485773563385 42.68442988395691,54.2485773563385 42.544642090797424,52.70909070968628 42.544642090797424,52.70909070968628 42.52680838108063,52.382004261016846 42.52680838108063,52.382004261016846 42.52048134803772,52.02985405921936 42.52048134803772,52.02985405921936 42.51396059989929,51.66633725166321 42.51396059989929,51.66633725166321 42.49517023563385,51.305025815963745 42.49517023563385,51.305025815963745 42.452216148376465,50.95981955528259 42.452216148376465,50.95981955528259 42.37283170223236,50.64429044723511 42.37283170223236,50.64429044723511 42.10226535797119,50.417208671569824 42.10226535797119,50.417208671569824 41.62825345993042,49.8430997133255 41.62825345993042,49.8430997133255 41.05203449726105,49.08303916454315 41.05203449726105,49.08303916454315 40.47485888004303,48.297521471977234 40.47485888004303,48.297521471977234 39.997777342796326,47.64766991138458 39.997777342796326,47.64766991138458 39.722034335136414,47.29398190975189 39.722034335136414,47.29398190975189 39.44648504257202,47.007885575294495 39.44648504257202,47.007885575294495 39.01830315589905,46.59077525138855 39.01830315589905,46.59077525138855 38.49098086357117,46.12428843975067 38.49098086357117,46.12428843975067 37.91802227497101,45.68991959095001 37.91802227497101,45.68991959095001 37.353309988975525,45.369499921798706 37.353309988975525,45.369499921798706 36.85034215450287,45.244523882865906 36.85034215450287,45.244523882865906 36.75772547721863,45.25080323219299 36.75772547721863,45.25080323219299 36.67066991329193,45.269933342933655 36.67066991329193,45.269933342933655 36.58955693244934,45.30281722545624 36.58955693244934,45.30281722545624 36.514389514923096,45.34994065761566 36.514389514923096,45.34994065761566 36.44593358039856,45.41211724281311 36.44593358039856,45.41211724281311 36.38399839401245,45.48996984958649 36.38399839401245,45.48996984958649 36.01142168045044,46.18842899799347 36.01142168045044,46.18842899799347 35.758498311042786,46.96756899356842 35.758498311042786,46.96756899356842 35.597044229507446,47.7952241897583 35.597044229507446,47.7952241897583 35.4977160692215,48.63888919353485 35.4977160692215,48.63888919353485 35.43213605880737,49.46644902229309 35.43213605880737,49.46644902229309 35.37154197692871,50.24544596672058 35.37154197692871,50.24544596672058 35.29810011386871,50.88460445404053 35.29810011386871,50.88460445404053 35.21008491516113,51.59313678741455 35.21008491516113,51.59313678741455 35.14067232608795,52.33440399169922 35.14067232608795,52.33440399169922 35.12149453163147,53.07121276855469 35.12149453163147,53.07121276855469 35.18573343753815,53.766798973083496 35.18573343753815,53.766798973083496 35.365405678749084,54.38424348831177 35.365405678749084,54.38424348831177 35.62120497226715,54.793351888656616 35.62120497226715,54.793351888656616 35.98668575286865,55.167174339294434 35.98668575286865,55.167174339294434 36.42081320285797,55.50944805145264 36.42081320285797,55.50944805145264 36.88121438026428,55.823493003845215 36.88121438026428,55.823493003845215 37.32684850692749,56.11299276351929 37.32684850692749,56.11299276351929 37.71553039550781,56.38154149055481 37.71553039550781,56.38154149055481 38.78052830696106,57.221806049346924 38.78052830696106,57.221806049346924 39.81062471866608,58.10176134109497 39.81062471866608,58.10176134109497 40.808892250061035,59.017765522003174 40.808892250061035,59.017765522003174 41.77666902542114,59.965938329696655 41.77666902542114,59.965938329696655 42.71664321422577,60.94258427619934 42.71664321422577,60.94258427619934" stroke="white" stroke-width="0.1" /><polygon points="77.5756299495697,51.56470537185669 77.5756299495697,51.56470537185669 77.51637697219849,50.62713027000427 77.51637697219849,50.62713027000427 77.45233178138733,49.668604135513306 77.45233178138733,49.668604135513306 77.36009955406189,48.704516887664795 77.36009955406189,48.704516887664795 77.21628546714783,47.750067710876465 77.21628546714783,47.750067710876465 76.99730396270752,46.820735931396484 76.99730396270752,46.820735931396484 76.67976021766663,45.9317684173584 76.67976021766663,45.9317684173584 76.58522725105286,45.755305886268616 76.58522725105286,45.755305886268616 76.47420167922974,45.614609122276306 76.47420167922974,45.614609122276306 76.34764313697815,45.507994294166565 76.34764313697815,45.507994294166565 76.20612978935242,45.433834195137024 76.20612978935242,45.433834195137024 76.05080604553223,45.39054334163666 76.05080604553223,45.39054334163666 75.8820652961731,45.37644982337952 75.8820652961731,45.37644982337952 74.97105002403259,45.64279615879059 74.97105002403259,45.64279615879059 73.93884062767029,46.33166790008545 73.93884062767029,46.33166790008545 72.90682792663574,47.27749228477478 72.90682792663574,47.27749228477478 71.99599742889404,48.31449091434479 71.99599742889404,48.31449091434479 71.32735252380371,49.27723705768585 71.32735252380371,49.27723705768585 71.02227807044983,50.0 71.02227807044983,50.0 70.79581618309021,51.41940712928772 70.79581618309021,51.41940712928772 70.57204246520996,52.839577198028564 70.57204246520996,52.839577198028564 70.35267353057861,54.26037311553955 70.35267353057861,54.26037311553955 70.13867497444153,55.681312084198 70.13867497444153,55.681312084198 69.93196606636047,57.102346420288086 69.93196606636047,57.102346420288086 69.73369717597961,58.523041009902954 69.73369717597961,58.523041009902954 69.65526938438416,59.09571051597595 69.65526938438416,59.09571051597595 69.57396268844604,59.66684818267822 69.57396268844604,59.66684818267822 69.48978304862976,60.236549377441406 69.48978304862976,60.236549377441406 69.40234303474426,60.80523729324341 69.40234303474426,60.80523729324341 69.31183934211731,61.373209953308105 69.31183934211731,61.373209953308105 69.21826004981995,61.94084882736206 69.21826004981995,61.94084882736206 69.9536383152008,61.12714409828186 69.9536383152008,61.12714409828186 70.70684432983398,60.32911539077759 70.70684432983398,60.32911539077759 71.47941589355469,59.54930782318115 71.47941589355469,59.54930782318115 72.27212190628052,58.78981947898865 72.27212190628052,58.78981947898865 73.08688163757324,58.05324912071228 73.08688163757324,58.05324912071228 73.92464876174927,57.34184384346008 73.92464876174927,57.34184384346008 74.4744062423706,56.919074058532715 74.4744062423706,56.919074058532715 75.05868077278137,56.505465507507324 75.05868077278137,56.505465507507324 75.65349340438843,56.08969330787659 75.65349340438843,56.08969330787659 76.2350857257843,55.66031336784363 76.2350857257843,55.66031336784363 76.77947282791138,55.206096172332764 76.77947282791138,55.206096172332764 77.26268768310547,54.71559166908264 77.26268768310547,54.71559166908264 77.51790881156921,54.28227782249451 77.51790881156921,54.28227782249451 77.64887809753418,53.762245178222656 77.64887809753418,53.762245178222656 77.68837809562683,53.193074464797974 77.68837809562683,53.193074464797974 77.66767144203186,52.6120126247406 77.66767144203186,52.6120126247406 77.61934995651245,52.05679535865784 77.61934995651245,52.05679535865784" stroke="white" stroke-width="0.1" /></svg>