<?xml version="1.0" encoding="utf-8" ?>
<svg baseProfile="full" height="82.53018260002136" version="1.1" width="77.39612460136414" xmlns="http://www.w3.org/2000/svg" xmlns:ev="http://www.w3.org/2001/xml-events" xmlns:xlink="http://www.w3.org/1999/xlink"><defs><clipPath /></defs><polygon points="71.31747007369995,59.504616260528564 71.31747007369995,59.504616260528564 72.28204607963562,59.79436635971069 72.28204607963562,59.79436635971069 73.45702648162842,60.32836437225342 73.45702648162842,60.32836437225342 74.69571232795715,61.10484600067139 74.69571232795715,61.10484600067139 75.85138082504272,62.12185621261597 75.85138082504272,62.12185621261597 76.77845358848572,63.3777379989624 76.77845358848572,63.3777379989624 77.32954025268555,64.87038135528564 77.32954025268555,64.87038135528564 77.39612460136414,66.24833345413208 77.39612460136414,66.24833345413208 76.953125,68.25161576271057 76.953125,68.25161576271057 75.6622850894928,70.88112235069275 75.6622850894928,70.88112235069275 73.18381071090698,74.13690686225891 73.18381071090698,74.13690686225891 69.17946338653564,78.01979780197144 69.17946338653564,78.01979780197144 63.30965757369995,82.53018260002136 63.30965757369995,82.53018260002136 57.44051933288574,78.01990509033203 57.44051933288574,78.01990509033203 53.43661308288574,74.13696050643921 53.43661308288574,74.13696050643921 50.959473848342896,70.88112235069275 50.959473848342896,70.88112235069275 49.66885447502136,68.25161576271057 49.66885447502136,68.25161576271057 49.2267370223999,66.24827980995178 49.2267370223999,66.24827980995178 49.29332137107849,64.87038135528564 49.29332137107849,64.87038135528564 49.84419345855713,63.3777379989624 49.84419345855713,63.3777379989624 50.77059268951416,62.12191581726074 50.77059268951416,62.12191581726074 51.92604660987854,61.10484600067139 51.92604660987854,61.10484600067139 53.163838386535645,60.32831072807312 53.163838386535645,60.32831072807312 54.33793067932129,59.79425311088562 54.33793067932129,59.79425311088562 55.30184507369995,59.504616260528564 55.30184507369995,59.504616260528564 55.44544458389282,59.478312730789185 55.44544458389282,59.478312730789185 55.58815598487854,59.456342458724976 55.58815598487854,59.456342458724976 55.73019981384277,59.43892002105713 55.73019981384277,59.43892002105713 55.871134996414185,59.42609906196594 55.871134996414185,59.42609906196594 56.01140856742859,59.41844582557678 56.01140856742859,59.41844582557678 56.15056753158569,59.41583514213562 56.15056753158569,59.41583514213562 57.21191167831421,59.556883573532104 57.21191167831421,59.556883573532104 58.19002985954285,59.92586612701416 58.19002985954285,59.92586612701416 59.063827991485596,60.44211387634277 59.063827991485596,60.44211387634277 59.81178879737854,61.02449893951416 59.81178879737854,61.02449893951416 60.41259765625,61.5924596786499 60.41259765625,61.5924596786499 60.84516644477844,62.06498146057129 60.84516644477844,62.06498146057129 63.30965757369995,64.95561003684998 63.30965757369995,64.95561003684998 65.7776951789856,62.06498146057129 65.7776951789856,62.06498146057129 66.2098228931427,61.592572927474976 66.2098228931427,61.592572927474976 66.80997014045715,61.02461218833923 66.80997014045715,61.02461218833923 67.55725741386414,60.44211387634277 67.55725741386414,60.44211387634277 68.42995285987854,59.925758838653564 68.42995285987854,59.925758838653564 69.40784454345703,59.55677032470703 69.40784454345703,59.55677032470703 70.46874761581421,59.41583514213562 70.46874761581421,59.41583514213562 70.6085741519928,59.41849946975708 70.6085741519928,59.41849946975708 70.74884176254272,59.42615866661072 70.74884176254272,59.42615866661072 70.88977694511414,59.43892002105713 70.88977694511414,59.43892002105713 71.03137969970703,59.4562292098999 71.03137969970703,59.4562292098999 71.17387056350708,59.47825908660889 71.17387056350708,59.47825908660889" stroke="white" stroke-width="0.1" /></svg>