<?xml version="1.0" encoding="utf-8" ?>
<svg baseProfile="full" height="93.43395233154297" version="1.1" width="100.0" xmlns="http://www.w3.org/2000/svg" xmlns:ev="http://www.w3.org/2001/xml-events" xmlns:xlink="http://www.w3.org/1999/xlink"><defs><clipPath /></defs><polygon points="100.0,12.97965943813324 100.0,12.97965943813324 99.73921179771423,15.879054367542267 99.73921179771423,15.879054367542267 98.98651242256165,18.61223727464676 98.98651242256165,18.61223727464676 97.786545753479,21.13686352968216 97.786545753479,21.13686352968216 96.18368744850159,23.410482704639435 96.18368744850159,23.410482704639435 94.22285556793213,25.390711426734924 94.22285556793213,25.390711426734924 91.9486939907074,27.035149931907654 91.9486939907074,27.035149931907654 91.9508695602417,50.80578327178955 91.9508695602417,50.80578327178955 91.62529110908508,53.15486192703247 91.62529110908508,53.15486192703247 90.7081663608551,55.265504121780396 90.7081663608551,55.265504121780396 89.2863392829895,57.05360770225525 89.2863392829895,57.05360770225525 87.44637370109558,58.43499302864075 87.44637370109558,58.43499302864075 85.27483940124512,59.32554006576538 85.27483940124512,59.32554006576538 82.85857439041138,59.641098976135254 82.85857439041138,59.641098976135254 81.60198926925659,59.55728888511658 81.60198926925659,59.55728888511658 80.39807677268982,59.31330919265747 80.39807677268982,59.31330919265747 79.25840616226196,58.920252323150635 79.25840616226196,58.920252323150635 78.19387316703796,58.38925838470459 78.19387316703796,58.38925838470459 77.21604704856873,57.73146152496338 77.21604704856873,57.73146152496338 76.33607983589172,56.95805549621582 76.33607983589172,56.95805549621582 75.59372186660767,56.118059158325195 75.59372186660767,56.118059158325195 74.96325373649597,55.19024729728699 74.96325373649597,55.19024729728699 74.4550108909607,54.18490767478943 74.4550108909607,54.18490767478943 74.07920360565186,53.1122088432312 74.07920360565186,53.1122088432312 73.84604215621948,51.98242664337158 73.84604215621948,51.98242664337158 73.76627922058105,50.80578327178955 73.76627922058105,50.80578327178955 73.76627922058105,26.934972405433655 73.76627922058105,26.934972405433655 73.21638464927673,26.57862901687622 73.21638464927673,26.57862901687622 72.68159985542297,26.20234787464142 72.68159985542297,26.20234787464142 72.16287851333618,25.806602835655212 72.16287851333618,25.806602835655212 71.6600775718689,25.391781330108643 71.6600775718689,25.391781330108643 71.17470502853394,24.958349764347076 71.17470502853394,24.958349764347076 70.70648074150085,24.5067298412323 70.70648074150085,24.5067298412323 69.31405067443848,22.928917407989502 69.31405067443848,22.928917407989502 68.13082695007324,21.1891308426857 68.13082695007324,21.1891308426857 67.17654466629028,19.30588334798813 67.17654466629028,19.30588334798813 66.47039651870728,17.297564446926117 66.47039651870728,17.297564446926117 66.03279113769531,15.1826873421669 66.03279113769531,15.1826873421669 65.88265895843506,12.97965943813324 65.88265895843506,12.97965943813324 66.34870767593384,8.859066665172577 66.34870767593384,8.859066665172577 67.51328706741333,5.5930547416210175 67.51328706741333,5.5930547416210175 69.02740001678467,3.13466414809227 69.02740001678467,3.13466414809227 70.54123878479004,1.4368514530360699 70.54123878479004,1.4368514530360699 71.706223487854,0.4526411183178425 71.706223487854,0.4526411183178425 72.1721351146698,0.13502330984920263 72.1721351146698,0.13502330984920263 72.1721351146698,14.395226538181305 72.1721351146698,14.395226538181305 82.85857439041138,20.392875373363495 82.85857439041138,20.392875373363495 93.54501962661743,14.395226538181305 93.54501962661743,14.395226538181305 93.54501962661743,0.0 93.54501962661743,0.0 93.61361861228943,0.042637146543711424 93.61361861228943,0.042637146543711424 93.807852268219,0.17197777051478624 93.807852268219,0.17197777051478624 94.11069750785828,0.3900975687429309 94.11069750785828,0.3900975687429309 94.50420141220093,0.6991403177380562 94.50420141220093,0.6991403177380562 94.97215151786804,1.101232785731554 94.97215151786804,1.101232785731554 95.4963207244873,1.5985017642378807 95.4963207244873,1.5985017642378807 96.48939371109009,2.697131410241127 96.48939371109009,2.697131410241127 97.50792384147644,4.101026803255081 97.50792384147644,4.101026803255081 98.46029877662659,5.820702388882637 98.46029877662659,5.820702388882637 99.25410747528076,7.866673171520233 99.25410747528076,7.866673171520233 99.79814887046814,10.249470174312592 99.79814887046814,10.249470174312592" stroke="white" stroke-width="0.1" /><polygon points="82.85857439041138,56.05862736701965 82.85857439041138,56.05862736701965 84.29469466209412,55.87143898010254 84.29469466209412,55.87143898010254 85.58476567268372,55.342864990234375 85.58476567268372,55.342864990234375 86.67788505554199,54.5224666595459 86.67788505554199,54.5224666595459 87.5220537185669,53.45976948738098 87.5220537185669,53.45976948738098 88.06636333465576,52.204352617263794 88.06636333465576,52.204352617263794 88.25950622558594,50.80578327178955 88.25950622558594,50.80578327178955 88.21213841438293,50.106626749038696 88.21213841438293,50.106626749038696 88.07344436645508,49.435219168663025 88.07344436645508,49.435219168663025 87.85008192062378,48.79758656024933 87.85008192062378,48.79758656024933 87.54723072052002,48.19968044757843 87.54723072052002,48.19968044757843 87.17142939567566,47.64752388000488 87.17142939567566,47.64752388000488 86.72851920127869,47.14708924293518 86.72851920127869,47.14708924293518 86.2077534198761,46.68920934200287 86.2077534198761,46.68920934200287 85.62791347503662,46.29984200000763 85.62791347503662,46.29984200000763 84.99608039855957,45.98550796508789 84.99608039855957,45.98550796508789 84.31892395019531,45.75263559818268 84.31892395019531,45.75263559818268 83.60419869422913,45.60772776603699 83.60419869422913,45.60772776603699 82.85857439041138,45.55729925632477 82.85857439041138,45.55729925632477 81.42095804214478,45.74492871761322 81.42095804214478,45.74492871761322 80.1295280456543,46.27435505390167 80.1295280456543,46.27435505390167 79.03600335121155,47.095367312431335 79.03600335121155,47.095367312431335 78.19074392318726,48.157721757888794 78.19074392318726,48.157721757888794 77.64548063278198,49.41128194332123 77.64548063278198,49.41128194332123 77.45110988616943,50.80578327178955 77.45110988616943,50.80578327178955 77.4987518787384,51.50662660598755 77.4987518787384,51.50662660598755 77.63744592666626,52.17885375022888 77.63744592666626,52.17885375022888 77.86108255386353,52.81670689582825 77.86108255386353,52.81670689582825 78.16324830055237,53.414446115493774 78.16324830055237,53.414446115493774 78.53837609291077,53.96634340286255 78.53837609291077,53.96634340286255 78.97992134094238,54.4666588306427 78.97992134094238,54.4666588306427 79.5034110546112,54.92563247680664 79.5034110546112,54.92563247680664 80.08474707603455,55.31591176986694 80.08474707603455,55.31591176986694 80.717533826828,55.630964040756226 80.717533826828,55.630964040756226 81.39509558677673,55.8641254901886 81.39509558677673,55.8641254901886 82.11091160774231,56.00889325141907 82.11091160774231,56.00889325141907" stroke="white" stroke-width="0.1" /><polygon points="12.271875888109207,23.354676365852356 12.271875888109207,23.354676365852356 12.271875888109207,49.76262152194977 12.271875888109207,49.76262152194977 12.278817594051361,50.37083625793457 12.278817594051361,50.37083625793457 12.298009544610977,50.972503423690796 12.298009544610977,50.972503423690796 12.326593697071075,51.56910419464111 12.326593697071075,51.56910419464111 12.361574172973633,52.16205716133118 12.361574172973633,52.16205716133118 12.400910258293152,52.75285243988037 12.400910258293152,52.75285243988037 12.441743910312653,53.34291458129883 12.441743910312653,53.34291458129883 5.320353806018829,53.34291458129883 5.320353806018829,53.34291458129883 4.601545259356499,53.293949365615845 4.601545259356499,53.293949365615845 3.9109118282794952,53.151506185531616 3.9109118282794952,53.151506185531616 3.2549872994422913,52.92233228683472 3.2549872994422913,52.92233228683472 2.640576660633087,52.61309742927551 2.640576660633087,52.61309742927551 2.074486017227173,52.230554819107056 2.074486017227173,52.230554819107056 1.5636570751667023,51.781439781188965 1.5636570751667023,51.781439781188965 1.1131255887448788,51.26965641975403 1.1131255887448788,51.26965641975403 0.7299697492271662,50.7032573223114 0.7299697492271662,50.7032573223114 0.42085894383490086,50.08874535560608 0.42085894383490086,50.08874535560608 0.19178208895027637,49.43244755268097 0.19178208895027637,49.43244755268097 0.04940872895531356,48.74087870121002 0.04940872895531356,48.74087870121002 0.0,48.020386695861816 0.0,48.020386695861816 0.0,11.633782088756561 0.0,11.633782088756561 0.1911015366204083,10.225054621696472 0.1911015366204083,10.225054621696472 0.7291530724614859,8.95606353878975 0.7291530724614859,8.95606353878975 1.563112623989582,7.87871852517128 1.563112623989582,7.87871852517128 2.6401683688163757,7.044929265975952 2.6401683688163757,7.044929265975952 3.9092786610126495,6.506571918725967 3.9092786610126495,6.506571918725967 5.3181760013103485,6.315606087446213 5.3181760013103485,6.315606087446213 61.99529767036438,6.315606087446213 61.99529767036438,6.315606087446213 61.70347332954407,7.322904467582703 61.70347332954407,7.322904467582703 61.4554762840271,8.371938019990921 61.4554762840271,8.371938019990921 61.25566363334656,9.46306511759758 61.25566363334656,9.46306511759758 61.1075758934021,10.596658289432526 61.1075758934021,10.596658289432526 61.016106605529785,11.77307590842247 61.016106605529785,11.77307590842247 60.98480224609375,12.992726266384125 60.98480224609375,12.992726266384125 61.17154359817505,15.80033004283905 61.17154359817505,15.80033004283905 61.719125509262085,18.520447611808777 61.719125509262085,18.520447611808777 62.61243224143982,21.125158667564392 62.61243224143982,21.125158667564392 63.83553147315979,23.58647584915161 63.83553147315979,23.58647584915161 65.37359952926636,25.876495242118835 65.37359952926636,25.876495242118835 67.21111536026001,27.967247366905212 67.21111536026001,27.967247366905212 67.47490167617798,28.225842118263245 67.47490167617798,28.225842118263245 67.74386167526245,28.480949997901917 67.74386167526245,28.480949997901917 68.01771521568298,28.73246967792511 68.01771521568298,28.73246967792511 68.29620599746704,28.980126976966858 68.29620599746704,28.980126976966858 68.57985854148865,29.22385036945343 68.57985854148865,29.22385036945343 68.86841654777527,29.46339249610901 68.86841654777527,29.46339249610901 68.86624097824097,50.812315940856934 68.86624097824097,50.812315940856934 68.8741385936737,51.24357342720032 68.8741385936737,51.24357342720032 68.89686584472656,51.67069435119629 68.89686584472656,51.67069435119629 68.93375515937805,52.093952894210815 68.93375515937805,52.093952894210815 68.98357272148132,52.51355171203613 68.98357272148132,52.51355171203613 69.04550194740295,52.929818630218506 69.04550194740295,52.929818630218506 69.1188633441925,53.34291458129883 69.1188633441925,53.34291458129883 57.672375440597534,53.34291458129883 57.672375440597534,53.34291458129883 49.05919432640076,44.72755789756775 49.05919432640076,44.72755789756775 48.50970804691315,44.24711763858795 48.50970804691315,44.24711763858795 47.91067838668823,43.85006129741669 47.91067838668823,43.85006129741669 47.27122485637665,43.53820979595184 47.27122485637665,43.53820979595184 46.60046398639679,43.313267827034 46.60046398639679,43.313267827034 45.90778648853302,43.177035450935364 45.90778648853302,43.177035450935364 45.20231783390045,43.131235241889954 45.20231783390045,43.131235241889954 44.85114812850952,43.14254820346832 44.85114812850952,43.14254820346832 44.49970722198486,43.17662715911865 44.49970722198486,43.17662715911865 44.149354100227356,43.23386251926422 44.149354100227356,43.23386251926422 43.80090832710266,43.3144748210907 43.80090832710266,43.3144748210907 43.456000089645386,43.418821692466736 43.456000089645386,43.418821692466736 43.11599135398865,43.54719519615173 43.11599135398865,43.54719519615173 43.07815134525299,43.56186091899872 43.07815134525299,43.56186091899872 43.040311336517334,43.57742667198181 43.040311336517334,43.57742667198181 43.00301671028137,43.593743443489075 43.00301671028137,43.593743443489075 42.96545088291168,43.61056983470917 42.96545088291168,43.61056983470917 42.92856454849243,43.62778961658478 42.92856454849243,43.62778961658478 42.89167821407318,43.64519417285919 42.89167821407318,43.64519417285919 42.89167821407318,38.935694098472595 42.89167821407318,38.935694098472595 42.89167821407318,34.35963690280914 42.89167821407318,34.35963690280914 42.89222061634064,30.218541622161865 42.89222061634064,30.218541622161865 42.89262890815735,26.81388258934021 42.89262890815735,26.81388258934021 42.89412796497345,24.447214603424072 42.89412796497345,24.447214603424072 42.89603233337402,23.42001050710678 42.89603233337402,23.42001050710678 42.853567004203796,22.69783318042755 42.853567004203796,22.69783318042755 42.71799921989441,21.992261707782745 42.71799921989441,21.992261707782745 42.49259531497955,21.312721073627472 42.49259531497955,21.312721073627472 42.180898785591125,20.668552815914154 42.180898785591125,20.668552815914154 41.78726375102997,20.06918340921402 41.78726375102997,20.06918340921402 41.314953565597534,19.52393501996994 41.314953565597534,19.52393501996994 40.77281951904297,19.044411182403564 40.77281951904297,19.044411182403564 40.17800986766815,18.642982840538025 40.17800986766815,18.642982840538025 39.53896164894104,18.32369714975357 39.53896164894104,18.32369714975357 38.86425495147705,18.090622127056122 38.86425495147705,18.090622127056122 38.16259503364563,17.947788536548615 38.16259503364563,17.947788536548615 37.44283318519592,17.899298667907715 37.44283318519592,17.899298667907715 17.72725284099579,17.899298667907715 17.72725284099579,17.899298667907715 16.276569664478302,18.09409260749817 16.276569664478302,18.09409260749817 14.973294734954834,18.64386647939682 14.973294734954834,18.64386647939682 13.869288563728333,19.4967120885849 13.869288563728333,19.4967120885849 13.016274571418762,20.6007182598114 13.016274571418762,20.6007182598114 12.466516345739365,21.904009580612183 12.466516345739365,21.904009580612183" stroke="white" stroke-width="0.1" /><polygon points="5.906180664896965,50.84716081619263 5.906180664896965,50.84716081619263 6.558158248662949,50.75974464416504 6.558158248662949,50.75974464416504 7.143984735012054,50.51283836364746 7.143984735012054,50.51283836364746 7.640250027179718,50.1295804977417 7.640250027179718,50.1295804977417 8.023405820131302,49.6330589056015 8.023405820131302,49.6330589056015 8.27072188258171,49.046432971954346 8.27072188258171,49.046432971954346 8.35837796330452,48.39278757572174 8.35837796330452,48.39278757572174 8.335783332586288,48.0606734752655 8.335783332586288,48.0606734752655 8.270177245140076,47.74145781993866 8.270177245140076,47.74145781993866 8.164554089307785,47.4383682012558 8.164554089307785,47.4383682012558 8.021772652864456,47.154489159584045 8.021772652864456,47.154489159584045 7.8450992703437805,46.8930184841156 7.8450992703437805,46.8930184841156 7.637527585029602,46.65708541870117 7.637527585029602,46.65708541870117 7.402870804071426,46.45051956176758 7.402870804071426,46.45051956176758 7.142624258995056,46.27484977245331 7.142624258995056,46.27484977245331 6.859783083200455,46.13305330276489 6.859783083200455,46.13305330276489 6.556933373212814,46.028077602386475 6.556933373212814,46.028077602386475 6.237341836094856,45.962947607040405 6.237341836094856,45.962947607040405 5.904002860188484,45.940589904785156 5.904002860188484,45.940589904785156 5.251481011509895,46.02817893028259 5.251481011509895,46.02817893028259 4.665926471352577,46.27532362937927 4.665926471352577,46.27532362937927 4.170205816626549,46.65871858596802 4.170205816626549,46.65871858596802 3.7874583154916763,47.15498387813568 3.7874583154916763,47.15498387813568 3.541095182299614,47.74077534675598 3.541095182299614,47.74077534675598 3.4539833664894104,48.39278757572174 3.4539833664894104,48.39278757572174 3.476441651582718,48.725685477256775 3.476441651582718,48.725685477256775 3.5416394472122192,49.04507100582123 3.5416394472122192,49.04507100582123 3.6467179656028748,49.348023533821106 3.6467179656028748,49.348023533821106 3.7886831909418106,49.631527066230774 3.7886831909418106,49.631527066230774 3.9649486541748047,49.89267587661743 3.9649486541748047,49.89267587661743 4.172655567526817,50.12848973274231 4.172655567526817,50.12848973274231 4.407313093543053,50.33599138259888 4.407313093543053,50.33599138259888 4.667559638619423,50.51226019859314 4.667559638619423,50.51226019859314 4.950400814414024,50.6544291973114 4.950400814414024,50.6544291973114 5.252842232584953,50.7595419883728 5.252842232584953,50.7595419883728 5.572569742798805,50.82477331161499 5.572569742798805,50.82477331161499" stroke="white" stroke-width="0.1" /><polygon points="5.904002860188484,13.715754449367523 5.904002860188484,13.715754449367523 6.556933373212814,13.626362383365631 6.556933373212814,13.626362383365631 7.143440842628479,13.378110527992249 7.143440842628479,13.378110527992249 7.63997808098793,12.99435943365097 7.63997808098793,12.99435943365097 8.023405820131302,12.498434633016586 8.023405820131302,12.498434633016586 8.27072188258171,11.913730949163437 8.27072188258171,11.913730949163437 8.35837796330452,11.263556778430939 8.35837796330452,11.263556778430939 8.335783332586288,10.929741710424423 8.335783332586288,10.929741710424423 8.270177245140076,10.60972511768341 8.270177245140076,10.60972511768341 8.164826780557632,10.30641570687294 8.164826780557632,10.30641570687294 8.022317290306091,10.022690147161484 8.022317290306091,10.022690147161484 7.846324145793915,9.761490672826767 7.846324145793915,9.761490672826767 7.639705389738083,9.52567607164383 7.639705389738083,9.52567607164383 7.404231280088425,9.319092333316803 7.404231280088425,9.319092333316803 7.14384913444519,9.143439680337906 7.14384913444519,9.143439680337906 6.861144304275513,9.00164470076561 6.861144304275513,9.00164470076561 6.558702886104584,8.896701782941818 6.558702886104584,8.896701782941818 6.239519640803337,8.831538259983063 6.239519640803337,8.831538259983063 5.906180664896965,8.809182047843933 5.906180664896965,8.809182047843933 5.2542030811309814,8.89677032828331 5.2542030811309814,8.89677032828331 4.668376222252846,9.144000709056854 4.668376222252846,9.144000709056854 4.172111302614212,9.527581930160522 4.172111302614212,9.527581930160522 3.7885472178459167,10.024221241474152 3.7885472178459167,10.024221241474152 3.5415034741163254,10.610660910606384 3.5415034741163254,10.610660910606384 3.4539833664894104,11.263556778430939 3.4539833664894104,11.263556778430939 3.4760333597660065,11.596300452947617 3.4760333597660065,11.596300452947617 3.540550544857979,11.915364116430283 3.540550544857979,11.915364116430283 3.6448124796152115,12.217976152896881 3.6448124796152115,12.217976152896881 3.7860970944166183,12.501327693462372 3.7860970944166183,12.501327693462372 3.9622262120246887,12.762697041034698 3.9622262120246887,12.762697041034698 4.1704777628183365,12.999260425567627 4.1704777628183365,12.999260425567627 4.405407607555389,13.205844163894653 4.405407607555389,13.205844163894653 4.665926471352577,13.38149756193161 4.665926471352577,13.38149756193161 4.949039593338966,13.523292541503906 4.949039593338966,13.523292541503906 5.251481011509895,13.628233969211578 5.251481011509895,13.628233969211578 5.571072548627853,13.693380355834961 5.571072548627853,13.693380355834961" stroke="white" stroke-width="0.1" /><polygon points="45.20231783390045,93.43395233154297 45.20231783390045,93.43395233154297 45.20231783390045,81.74571990966797 45.20231783390045,81.74571990966797 42.95428991317749,81.46968483924866 42.95428991317749,81.46968483924866 40.551772713661194,81.01282715797424 40.551772713661194,81.01282715797424 38.02838921546936,80.33069968223572 38.02838921546936,80.33069968223572 35.41639447212219,79.37886714935303 35.41639447212219,79.37886714935303 32.75022804737091,78.1129539012909 32.75022804737091,78.1129539012909 30.06228506565094,76.48852467536926 30.06228506565094,76.48852467536926 28.33080291748047,75.19205808639526 28.33080291748047,75.19205808639526 26.659753918647766,73.70373606681824 26.659753918647766,73.70373606681824 25.073501467704773,72.02839851379395 25.073501467704773,72.02839851379395 23.596274852752686,70.17080783843994 23.596274852752686,70.17080783843994 22.25298434495926,68.13586354255676 22.25298434495926,68.13586354255676 21.067991852760315,65.92839360237122 21.067991852760315,65.92839360237122 20.051096379756927,63.56654167175293 20.051096379756927,63.56654167175293 19.21645700931549,61.067456007003784 19.21645700931549,61.067456007003784 18.565432727336884,58.43433141708374 18.565432727336884,58.43433141708374 18.09924840927124,55.67033290863037 18.09924840927124,55.67033290863037 17.819401621818542,52.77869701385498 17.819401621818542,52.77869701385498 17.72725284099579,49.76262152194977 17.72725284099579,49.76262152194977 17.72725284099579,23.354676365852356 17.72725284099579,23.354676365852356 37.44283318519592,23.354676365852356 37.44283318519592,23.354676365852356 37.43983805179596,24.52891618013382 37.43983805179596,24.52891618013382 37.437933683395386,27.699121832847595 37.437933683395386,27.699121832847595 37.43711709976196,32.33644962310791 37.43711709976196,32.33644962310791 37.43657171726227,37.91202902793884 37.43657171726227,37.91202902793884 37.43630051612854,43.89703571796417 37.43630051612854,43.89703571796417 37.43630051612854,49.76262152194977 37.43630051612854,49.76262152194977 37.49278783798218,51.543647050857544 37.49278783798218,51.543647050857544 37.64223754405975,53.09573411941528 37.64223754405975,53.09573411941528 37.867504358291626,54.43617105484009 37.867504358291626,54.43617105484009 38.150617480278015,55.58199882507324 38.150617480278015,55.58199882507324 38.47442865371704,56.55050277709961 38.47442865371704,56.55050277709961 38.82137835025787,57.358771562576294 38.82137835025787,57.358771562576294 39.37222361564636,58.3218514919281 39.37222361564636,58.3218514919281 39.950427412986755,59.10371541976929 39.950427412986755,59.10371541976929 40.57531952857971,59.74127650260925 40.57531952857971,59.74127650260925 41.26513600349426,60.27137041091919 41.26513600349426,60.27137041091919 42.03906953334808,60.730916261672974 42.03906953334808,60.730916261672974 42.91563332080841,61.15684509277344 42.91563332080841,61.15684509277344 43.26952397823334,61.2967848777771 43.26952397823334,61.2967848777771 43.63757371902466,61.423492431640625 43.63757371902466,61.423492431640625 44.01732683181763,61.53823137283325 44.01732683181763,61.53823137283325 44.40619647502899,61.642253398895264 44.40619647502899,61.642253398895264 44.80214715003967,61.736851930618286 44.80214715003967,61.736851930618286 45.20231783390045,61.823248863220215 45.20231783390045,61.823248863220215 45.20231783390045,48.586612939834595 45.20231783390045,48.586612939834595 67.62925386428833,71.00919485092163 67.62925386428833,71.00919485092163" stroke="white" stroke-width="0.1" /></svg>