<?xml version="1.0" encoding="utf-8" ?>
<svg baseProfile="full" height="75.06313920021057" version="1.1" width="99.99739527702332" xmlns="http://www.w3.org/2000/svg" xmlns:ev="http://www.w3.org/2001/xml-events" xmlns:xlink="http://www.w3.org/1999/xlink"><defs><clipPath /></defs><polygon points="6.501597911119461,27.267986536026 6.501597911119461,27.267986536026 6.501597911119461,27.267986536026 6.501597911119461,27.267986536026 5.9941548854112625,27.01728045940399 5.9941548854112625,27.01728045940399 5.292457714676857,26.627415418624878 5.292457714676857,26.627415418624878 4.54404391348362,26.1305034160614 4.54404391348362,26.1305034160614 3.8963355123996735,25.558191537857056 3.8963355123996735,25.558191537857056 3.4968700259923935,24.942520260810852 3.4968700259923935,24.942520260810852 3.493127226829529,24.31536763906479 3.493127226829529,24.31536763906479 4.173259809613228,23.364128172397614 4.173259809613228,23.364128172397614 5.295967683196068,22.544291615486145 5.295967683196068,22.544291615486145 6.687454879283905,21.842749416828156 6.687454879283905,21.842749416828156 8.173888176679611,21.24592661857605 8.173888176679611,21.24592661857605 9.581432491540909,20.740792155265808 9.581432491540909,20.740792155265808 10.736293345689774,20.31400203704834 10.736293345689774,20.31400203704834 23.611652851104736,15.111234784126282 23.611652851104736,15.111234784126282 53.592103719711304,2.9991621151566505 53.592103719711304,2.9991621151566505 54.63392734527588,2.5706660002470016 54.63392734527588,2.5706660002470016 55.67551851272583,2.1334046497941017 55.67551851272583,2.1334046497941017 56.71879053115845,1.6964534297585487 56.71879053115845,1.6964534297585487 57.76553750038147,1.2684227898716927 57.76553750038147,1.2684227898716927 58.8176965713501,0.8582332171499729 58.8176965713501,0.8582332171499729 59.87712740898132,0.47472771257162094 59.87712740898132,0.47472771257162094 60.55539846420288,0.2601694082841277 60.55539846420288,0.2601694082841277 61.34909391403198,0.07493250886909664 61.34909391403198,0.07493250886909664 62.157684564590454,-0.00015513977587033878 62.157684564590454,-0.00015513977587033878 62.880611419677734,0.11573426891118288 62.880611419677734,0.11573426891118288 63.41739892959595,0.5036612972617149 63.41739892959595,0.5036612972617149 63.667500019073486,1.2442209757864475 63.667500019073486,1.2442209757864475 63.67716193199158,1.8033446744084358 63.67716193199158,1.8033446744084358 63.62631320953369,2.3603741079568863 63.62631320953369,2.3603741079568863 63.52570652961731,2.9132146388292313 63.52570652961731,2.9132146388292313 63.38598132133484,3.4591514617204666 63.38598132133484,3.4591514617204666 63.21789026260376,3.995779901742935 63.21789026260376,3.995779901742935 63.03204894065857,4.520773142576218 63.03204894065857,4.520773142576218 62.829554080963135,5.071829631924629 62.829554080963135,5.071829631924629 62.626707553863525,5.622808635234833 62.626707553863525,5.622808635234833 62.42359280586243,6.173942610621452 62.42359280586243,6.173942610621452 62.220221757888794,6.724844127893448 62.220221757888794,6.724844127893448 62.01677918434143,7.275977730751038 62.01677918434143,7.275977730751038 61.813271045684814,7.827112078666687 61.813271045684814,7.827112078666687 51.368021965026855,36.13329529762268 51.368021965026855,36.13329529762268 51.158565282821655,36.71212196350098 51.158565282821655,36.71212196350098 50.94916224479675,37.29536831378937 50.94916224479675,37.29536831378937 50.731635093688965,37.877219915390015 50.731635093688965,37.877219915390015 50.49774646759033,38.45154941082001 50.49774646759033,38.45154941082001 50.23934245109558,39.01292085647583 50.23934245109558,39.01292085647583 49.948182702064514,39.555057883262634 49.948182702064514,39.555057883262634 48.608800768852234,41.287970542907715 48.608800768852234,41.287970542907715 46.93464934825897,42.57190525531769 46.93464934825897,42.57190525531769 45.02001106739044,43.387630581855774 45.02001106739044,43.387630581855774 42.959097027778625,43.715983629226685 42.959097027778625,43.715983629226685 40.84622859954834,43.53780746459961 40.84622859954834,43.53780746459961 38.775634765625,42.83409118652344 38.775634765625,42.83409118652344 30.040645599365234,38.62049579620361 30.040645599365234,38.62049579620361" stroke="white" stroke-width="0.1" /><polygon points="75.29926300048828,30.816343426704407 75.29926300048828,30.816343426704407 75.29926300048828,30.816343426704407 75.29926300048828,30.816343426704407 72.41637706756592,31.213968992233276 72.41637706756592,31.213968992233276 69.80698704719543,32.3320597410202 69.80698704719543,32.3320597410202 67.58291721343994,34.059077501297 67.58291721343994,34.059077501297 65.85588455200195,36.28308176994324 65.85588455200195,36.28308176994324 64.73773121833801,38.89237940311432 64.73773121833801,38.89237940311432 64.34018611907959,41.77541732788086 64.34018611907959,41.77541732788086 64.37090635299683,42.32957661151886 64.37090635299683,42.32957661151886 64.44277167320251,42.883580923080444 64.44277167320251,42.883580923080444 64.52542543411255,43.43572556972504 64.52542543411255,43.43572556972504 64.58839178085327,43.98367702960968 64.58839178085327,43.98367702960968 64.60132598876953,44.52604651451111 64.60132598876953,44.52604651451111 64.53379988670349,45.06065845489502 64.53379988670349,45.06065845489502 64.47465419769287,45.356354117393494 64.47465419769287,45.356354117393494 64.42623138427734,45.65360248088837 64.42623138427734,45.65360248088837 64.38859105110168,45.952245593070984 64.38859105110168,45.952245593070984 64.36167359352112,46.25197649002075 64.36167359352112,46.25197649002075 64.34556245803833,46.552714705467224 64.34556245803833,46.552714705467224 64.34018611907959,46.85407280921936 64.34018611907959,46.85407280921936 64.34018611907959,48.169660568237305 64.34018611907959,48.169660568237305 64.34018611907959,54.00415658950806 64.34018611907959,54.00415658950806 64.35337662696838,54.48307394981384 64.35337662696838,54.48307394981384 64.38359022140503,55.42213320732117 64.38359022140503,55.42213320732117 64.41682577133179,56.57947659492493 64.41682577133179,56.57947659492493 64.4390881061554,57.713162899017334 64.4390881061554,57.713162899017334 64.43643569946289,58.58147740364075 64.43643569946289,58.58147740364075 64.3947958946228,58.94256830215454 64.3947958946228,58.94256830215454 63.912004232406616,59.13757681846619 63.912004232406616,59.13757681846619 63.42920660972595,59.33258533477783 63.42920660972595,59.33258533477783 62.946414947509766,59.52775478363037 62.946414947509766,59.52775478363037 62.463581562042236,59.722840785980225 62.463581562042236,59.722840785980225 61.980801820755005,59.91792678833008 61.980801820755005,59.91792678833008 61.49802803993225,60.1129412651062 61.49802803993225,60.1129412651062 47.766295075416565,65.66073894500732 47.766295075416565,65.66073894500732 32.33174979686737,71.89735770225525 32.33174979686737,71.89735770225525 30.99879026412964,72.47013449668884 30.99879026412964,72.47013449668884 29.62196171283722,73.09573292732239 29.62196171283722,73.09573292732239 28.21371853351593,73.71947169303894 28.21371853351593,73.71947169303894 26.78641378879547,74.28650856018066 26.78641378879547,74.28650856018066 25.352516770362854,74.74238872528076 25.352516770362854,74.74238872528076 23.924414813518524,75.03241896629333 23.924414813518524,75.03241896629333 22.188982367515564,75.06313920021057 22.188982367515564,75.06313920021057 20.515024662017822,74.71392154693604 20.515024662017822,74.71392154693604 18.962424993515015,74.01951551437378 18.962424993515015,74.01951551437378 17.591027915477753,73.0141282081604 17.591027915477753,73.0141282081604 16.460679471492767,71.73259854316711 16.460679471492767,71.73259854316711 15.631262958049774,70.20943760871887 15.631262958049774,70.20943760871887 15.452736616134644,69.76822018623352 15.452736616134644,69.76822018623352 15.27446061372757,69.32700276374817 15.27446061372757,69.32700276374817 15.096341073513031,68.88578534126282 15.096341073513031,68.88578534126282 14.91820216178894,68.44449043273926 14.91820216178894,68.44449043273926 14.739947021007538,68.00335049629211 14.739947021007538,68.00335049629211 14.561419188976288,67.56213307380676 14.561419188976288,67.56213307380676 9.080641716718674,53.99422645568848 9.080641716718674,53.99422645568848 2.919730544090271,38.74336779117584 2.919730544090271,38.74336779117584 2.2560037672519684,37.200579047203064 2.2560037672519684,37.200579047203064 1.5351856127381325,35.569825768470764 1.5351856127381325,35.569825768470764 0.8569921366870403,33.881595730781555 0.8569921366870403,33.881595730781555 0.32110055908560753,32.16613829135895 0.32110055908560753,32.16613829135895 0.027227032114751637,30.45417070388794 0.027227032114751637,30.45417070388794 0.0750876497477293,28.77594530582428 0.0750876497477293,28.77594530582428 1.1670195497572422,29.860219359397888 1.1670195497572422,29.860219359397888 2.4096697568893433,30.786246061325073 2.4096697568893433,30.786246061325073 3.758106008172035,31.590181589126587 3.758106008172035,31.590181589126587 5.167337507009506,32.30793476104736 5.167337507009506,32.30793476104736 6.592432409524918,32.97596871852875 6.592432409524918,32.97596871852875 7.988457381725311,33.62995982170105 7.988457381725311,33.62995982170105 19.48617696762085,39.17403519153595 19.48617696762085,39.17403519153595 31.5399169921875,44.986191391944885 31.5399169921875,44.986191391944885 32.65087306499481,45.53647041320801 32.65087306499481,45.53647041320801 33.76849889755249,46.1047500371933 33.76849889755249,46.1047500371933 34.894970059394836,46.669769287109375 34.894970059394836,46.669769287109375 36.0323965549469,47.210198640823364 36.0323965549469,47.210198640823364 37.18291223049164,47.70532548427582 37.18291223049164,47.70532548427582 38.348689675331116,48.133668303489685 38.348689675331116,48.133668303489685 42.02183783054352,48.82248640060425 42.02183783054352,48.82248640060425 45.54182291030884,48.505768179893494 45.54182291030884,48.505768179893494 48.78494441509247,47.28955030441284 48.78494441509247,47.28955030441284 51.62733793258667,45.279714465141296 51.62733793258667,45.279714465141296 53.9453387260437,42.58222281932831 53.9453387260437,42.58222281932831 55.615127086639404,39.3031120300293 55.615127086639404,39.3031120300293 56.31635785102844,37.4031126499176 56.31635785102844,37.4031126499176 57.01758861541748,35.50311625003815 57.01758861541748,35.50311625003815 57.718825340270996,33.60342979431152 57.718825340270996,33.60342979431152 58.42001438140869,31.703665852546692 58.42001438140869,31.703665852546692 59.12126898765564,29.804134368896484 59.12126898765564,29.804134368896484 59.82251763343811,27.904680371284485 59.82251763343811,27.904680371284485 65.61853885650635,12.195847928524017 65.61853885650635,12.195847928524017 66.30095839500427,10.444319993257523 66.30095839500427,10.444319993257523 67.0358955860138,8.607465028762817 67.0358955860138,8.607465028762817 67.73526668548584,6.716465950012207 67.73526668548584,6.716465950012207 68.31091046333313,4.802274331450462 68.31091046333313,4.802274331450462 68.67477297782898,2.896304428577423 68.67477297782898,2.896304428577423 68.73871088027954,1.0295075364410877 68.73871088027954,1.0295075364410877 69.73878145217896,1.9597256556153297 69.73878145217896,1.9597256556153297 70.54356932640076,3.035542368888855 70.54356932640076,3.035542368888855 71.1998462677002,4.2174749076366425 71.1998462677002,4.2174749076366425 71.75431847572327,5.465652048587799 71.75431847572327,5.465652048587799 72.25382924079895,6.740512698888779 72.25382924079895,6.740512698888779 72.7450430393219,8.002109825611115 72.7450430393219,8.002109825611115 77.08895206451416,18.757639825344086 77.08895206451416,18.757639825344086 81.29634261131287,29.170620441436768 81.29634261131287,29.170620441436768 82.22718238830566,31.47910237312317 82.22718238830566,31.47910237312317 82.23416805267334,31.493529677391052 82.23416805267334,31.493529677391052 82.24564790725708,31.51586949825287 82.24564790725708,31.51586949825287 82.2588324546814,31.542089581489563 82.2588324546814,31.542089581489563 82.27069973945618,31.568461656570435 82.27069973945618,31.568461656570435 82.27853775024414,31.591421365737915 82.27853775024414,31.591421365737915 82.27931261062622,31.60693645477295 82.27931261062622,31.60693645477295 81.91783428192139,31.774798035621643 81.91783428192139,31.774798035621643 81.59514665603638,31.945839524269104 81.59514665603638,31.945839524269104 81.29200339317322,32.08911120891571 81.29200339317322,32.08911120891571 80.9892475605011,32.17304050922394 80.9892475605011,32.17304050922394 80.66779375076294,32.16675817966461 80.66779375076294,32.16675817966461 80.3084135055542,32.03884661197662 80.3084135055542,32.03884661197662 79.52195405960083,31.67116343975067 79.52195405960083,31.67116343975067 78.7096619606018,31.367245316505432 78.7096619606018,31.367245316505432 77.87644267082214,31.128332018852234 77.87644267082214,31.128332018852234 77.02705264091492,30.95589280128479 77.02705264091492,30.95589280128479 76.16639733314514,30.851328372955322 76.16639733314514,30.851328372955322" stroke="white" stroke-width="0.1" /><polygon points="98.69434237480164,45.18973529338837 98.69434237480164,45.18973529338837 98.69434237480164,45.18973529338837 98.69434237480164,45.18973529338837 99.39662218093872,45.47480344772339 99.39662218093872,45.47480344772339 99.79567527770996,46.21001183986664 99.79567527770996,46.21001183986664 99.96989965438843,47.21570611000061 99.96989965438843,47.21570611000061 99.99739527702332,48.311689496040344 99.99739527702332,48.311689496040344 99.95651841163635,49.31854605674744 99.95651841163635,49.31854605674744 99.92552995681763,50.05615949630737 99.92552995681763,50.05615949630737 99.92552995681763,56.73461556434631 99.92552995681763,56.73461556434631 99.9243676662445,57.15690851211548 99.9243676662445,57.15690851211548 99.90226030349731,57.60456323623657 99.90226030349731,57.60456323623657 99.83120560646057,58.044153451919556 99.83120560646057,58.044153451919556 99.68315958976746,58.441853523254395 99.68315958976746,58.441853523254395 99.43020939826965,58.76461863517761 99.43020939826965,58.76461863517761 99.04433488845825,58.97855758666992 99.04433488845825,58.97855758666992 98.59776496887207,59.03409719467163 98.59776496887207,59.03409719467163 98.16004037857056,58.94039273262024 98.16004037857056,58.94039273262024 97.73619771003723,58.73948931694031 97.73619771003723,58.73948931694031 97.33139872550964,58.47295522689819 97.33139872550964,58.47295522689819 96.95072174072266,58.18292498588562 96.95072174072266,58.18292498588562 96.5993344783783,57.91119337081909 96.5993344783783,57.91119337081909 95.8656370639801,57.36510157585144 95.8656370639801,57.36510157585144 95.13159394264221,56.81900978088379 95.13159394264221,56.81900978088379 94.39727663993835,56.27291798591614 94.39727663993835,56.27291798591614 93.66273283958435,55.72667121887207 93.66273283958435,55.72667121887207 92.92810559272766,55.18065690994263 92.92810559272766,55.18065690994263 92.1933650970459,54.634642601013184 92.1933650970459,54.634642601013184 92.19266772270203,55.91889023780823 92.19266772270203,55.91889023780823 92.11905002593994,57.256972789764404 92.11905002593994,57.256972789764404 91.86539649963379,58.521050214767456 91.86539649963379,58.521050214767456 91.32438898086548,59.58251953125 91.32438898086548,59.58251953125 90.38885235786438,60.31361222267151 90.38885235786438,60.31361222267151 88.95156383514404,60.585808753967285 88.95156383514404,60.585808753967285 83.7736189365387,60.585808753967285 83.7736189365387,60.585808753967285 75.66911578178406,60.585808753967285 75.66911578178406,60.585808753967285 74.81859922409058,60.606902837753296 74.81859922409058,60.606902837753296 73.91049265861511,60.63568592071533 73.91049265861511,60.63568592071533 72.98612594604492,60.620713233947754 72.98612594604492,60.620713233947754 72.08676338195801,60.510098934173584 72.08676338195801,60.510098934173584 71.25375866889954,60.252565145492554 71.25375866889954,60.252565145492554 70.5284059047699,59.79645252227783 70.5284059047699,59.79645252227783 69.90101933479309,59.00508761405945 69.90101933479309,59.00508761405945 69.5436954498291,58.04259777069092 69.5436954498291,58.04259777069092 69.386887550354,56.97321891784668 69.386887550354,56.97321891784668 69.36097741127014,55.86087107658386 69.36097741127014,55.86087107658386 69.39650177955627,54.770004749298096 69.39650177955627,54.770004749298096 69.42380666732788,53.76461744308472 69.42380666732788,53.76461744308472 69.42380666732788,46.979427337646484 69.42380666732788,46.979427337646484 69.4351315498352,46.66309654712677 69.4351315498352,46.66309654712677 69.47041153907776,46.35242819786072 69.47041153907776,46.35242819786072 69.53178644180298,46.04843258857727 69.53178644180298,46.04843258857727 69.6212649345398,45.751652121543884 69.6212649345398,45.751652121543884 69.74095106124878,45.463091135025024 69.74095106124878,45.463091135025024 69.8929488658905,45.18352746963501 69.8929488658905,45.18352746963501 70.03622055053711,44.762635231018066 70.03622055053711,44.762635231018066 70.01549005508423,44.307222962379456 70.01549005508423,44.307222962379456 69.88860964775085,43.825745582580566 69.88860964775085,43.825745582580566 69.71328258514404,43.326351046562195 69.71328258514404,43.326351046562195 69.54735517501831,42.81764626502991 69.54735517501831,42.81764626502991 69.44863200187683,42.30785667896271 69.44863200187683,42.30785667896271 69.4397509098053,41.37050211429596 69.4397509098053,41.37050211429596 69.57945227622986,40.45068025588989 69.57945227622986,40.45068025588989 69.86036896705627,39.56684768199921 69.86036896705627,39.56684768199921 70.27509808540344,38.737159967422485 70.27509808540344,38.737159967422485 70.81632614135742,37.9800021648407 70.81632614135742,37.9800021648407 71.47662043571472,37.31359839439392 71.47662043571472,37.31359839439392 73.13207387924194,36.321014165878296 73.13207387924194,36.321014165878296 74.94438290596008,35.93968152999878 74.94438290596008,35.93968152999878 76.76595449447632,36.13065779209137 76.76595449447632,36.13065779209137 78.44908237457275,36.85469627380371 78.44908237457275,36.85469627380371 79.84625101089478,38.07285130023956 79.84625101089478,38.07285130023956 80.80982565879822,39.74618911743164 80.80982565879822,39.74618911743164 82.04613327980042,37.758538126945496 82.04613327980042,37.758538126945496 83.85103344917297,36.50159537792206 83.85103344917297,36.50159537792206 85.96357107162476,35.99010109901428 85.96357107162476,35.99010109901428 88.12284469604492,36.23855710029602 88.12284469604492,36.23855710029602 90.0679886341095,37.26193606853485 90.0679886341095,37.26193606853485 91.53805375099182,39.074745774269104 91.53805375099182,39.074745774269104 91.77025556564331,39.581042528152466 91.77025556564331,39.581042528152466 91.95258617401123,40.10626971721649 91.95258617401123,40.10626971721649 92.0844554901123,40.646156668663025 92.0844554901123,40.646156668663025 92.165207862854,41.1959707736969 92.165207862854,41.1959707736969 92.1942949295044,41.75129532814026 92.1942949295044,41.75129532814026 92.17102527618408,42.30785667896271 92.17102527618408,42.30785667896271 92.12990999221802,42.648544907569885 92.12990999221802,42.648544907569885 92.06878542900085,42.986127734184265 92.06878542900085,42.986127734184265 91.98795557022095,43.319523334503174 91.98795557022095,43.319523334503174 91.8876588344574,43.647488951683044 91.8876588344574,43.647488951683044 91.76820516586304,43.9692497253418 91.76820516586304,43.9692497253418 91.62989258766174,44.28371787071228 91.62989258766174,44.28371787071228 91.51881337165833,44.588878750801086 91.51881337165833,44.588878750801086 91.50881171226501,44.81251239776611 91.50881171226501,44.81251239776611 91.57497882843018,44.99472379684448 91.57497882843018,44.99472379684448 91.6921854019165,45.1754629611969 91.6921854019165,45.1754629611969 91.83553457260132,45.39506137371063 91.83553457260132,45.39506137371063 91.97989106178284,45.69362699985504 91.97989106178284,45.69362699985504 92.15085506439209,46.29844129085541 92.15085506439209,46.29844129085541 92.23381876945496,46.94591760635376 92.23381876945496,46.94591760635376 92.25417971611023,47.61720597743988 92.25417971611023,47.61720597743988 92.23726987838745,48.29322695732117 92.23726987838745,48.29322695732117 92.20856428146362,48.95528852939606 92.20856428146362,48.95528852939606 92.1933650970459,49.584534764289856 92.1933650970459,49.584534764289856 92.72188544273376,49.19234216213226 92.72188544273376,49.19234216213226 93.25006008148193,48.7998366355896 93.25006008148193,48.7998366355896 93.77796053886414,48.407334089279175 93.77796053886414,48.407334089279175 94.30562853813171,48.014673590660095 94.30562853813171,48.014673590660095 94.83314156532288,47.622403502464294 94.83314156532288,47.622403502464294 95.36069631576538,47.230133414268494 95.36069631576538,47.230133414268494 95.81948518753052,46.86353802680969 95.81948518753052,46.86353802680969 96.34687900543213,46.42534554004669 96.34687900543213,46.42534554004669 96.92047238349915,45.97722291946411 96.92047238349915,45.97722291946411 97.51783609390259,45.58068811893463 97.51783609390259,45.58068811893463 98.11660051345825,45.29763460159302 98.11660051345825,45.29763460159302" stroke="white" stroke-width="0.1" /></svg>