<?xml version="1.0" encoding="utf-8" ?>
<svg baseProfile="full" height="99.99999403953552" version="1.1" width="99.99911189079285" xmlns="http://www.w3.org/2000/svg" xmlns:ev="http://www.w3.org/2001/xml-events" xmlns:xlink="http://www.w3.org/1999/xlink"><defs><clipPath /></defs><polygon points="99.99911189079285,49.99999701976776 99.99911189079285,49.99999701976776 98.21299910545349,63.29190135002136 98.21299910545349,63.29190135002136 93.17260384559631,75.23592710494995 93.17260384559631,75.23592710494995 85.3546679019928,85.35544276237488 85.3546679019928,85.35544276237488 75.23537278175354,93.17360520362854 75.23537278175354,93.17360520362854 63.29178810119629,98.21399450302124 63.29178810119629,98.21399450302124 49.99999701976776,99.99999403953552 49.99999701976776,99.99999403953552 36.7080956697464,98.21388721466064 36.7080956697464,98.21388721466064 24.764181673526764,93.1733787059784 24.764181673526764,93.1733787059784 14.644886553287506,85.35544276237488 14.644886553287506,85.35544276237488 6.826615333557129,75.23614764213562 6.826615333557129,75.23614764213562 1.7861105501651764,63.29212188720703 1.7861105501651764,63.29212188720703 0.0,49.99999701976776 0.0,49.99999701976776 1.7859995365142822,36.70787215232849 1.7859995365142822,36.70787215232849 6.826504319906235,24.763737618923187 6.826504319906235,24.763737618923187 14.644886553287506,14.644552767276764 14.644886553287506,14.644552767276764 24.7642919421196,6.826393306255341 24.7642919421196,6.826393306255341 36.70831620693207,1.7859995365142822 36.70831620693207,1.7859995365142822 49.99999701976776,0.0 49.99999701976776,0.0 63.29168081283569,1.785888522863388 63.29168081283569,1.785888522863388 75.23525953292847,6.826282292604446 75.23525953292847,6.826282292604446 85.3546679019928,14.644552767276764 85.3546679019928,14.644552767276764 93.17271709442139,24.76384937763214 93.17271709442139,24.76384937763214 98.21311235427856,36.707985401153564 98.21311235427856,36.707985401153564" stroke="white" stroke-width="0.1" /><polygon points="49.99999701976776,11.7649145424366 49.99999701976776,11.7649145424366 60.16390323638916,13.13077062368393 60.16390323638916,13.13077062368393 69.29720640182495,16.98497384786606 69.29720640182495,16.98497384786606 77.03568935394287,22.963644564151764 77.03568935394287,22.963644564151764 83.01435708999634,30.701792240142822 83.01435708999634,30.701792240142822 86.86922788619995,39.83553647994995 86.86922788619995,39.83553647994995 88.23508024215698,49.99999701976776 88.23508024215698,49.99999701976776 86.86922788619995,60.164570808410645 86.86922788619995,60.164570808410645 83.01447033882141,69.2982017993927 83.01447033882141,69.2982017993927 77.03568935394287,77.0367980003357 77.03568935394287,77.0367980003357 69.29709315299988,83.01546573638916 69.29709315299988,83.01546573638916 60.163795948028564,86.87000274658203 60.163795948028564,86.87000274658203 49.99999701976776,88.23596835136414 49.99999701976776,88.23596835136414 39.83498215675354,86.8702232837677 39.83498215675354,86.8702232837677 30.701127648353577,83.01546573638916 30.701127648353577,83.01546573638916 22.9629784822464,77.0367980003357 22.9629784822464,77.0367980003357 16.98452979326248,69.2980945110321 16.98452979326248,69.2980945110321 13.130548596382141,60.16445755958557 13.130548596382141,60.16445755958557 11.7649145424366,49.99999701976776 11.7649145424366,49.99999701976776 13.130548596382141,39.83553647994995 13.130548596382141,39.83553647994995 16.984640061855316,30.70201575756073 16.984640061855316,30.70201575756073 22.9629784822464,22.963644564151764 22.9629784822464,22.963644564151764 30.701014399528503,16.985084116458893 30.701014399528503,16.985084116458893 39.834871888160706,13.130658864974976 39.834871888160706,13.130658864974976" stroke="white" stroke-width="0.1" /><polygon points="65.87357521057129,61.159443855285645 65.87357521057129,61.159443855285645 65.63887000083923,60.92451214790344 65.63887000083923,60.92451214790344 65.40393829345703,60.69113612174988 65.40393829345703,60.69113612174988 65.1691198348999,60.45975685119629 65.1691198348999,60.45975685119629 64.93441462516785,60.22993326187134 64.93441462516785,60.22993326187134 64.70048427581787,60.00177264213562 64.70048427581787,60.00177264213562 64.46732878684998,59.77538824081421 64.46732878684998,59.77538824081421 59.77272391319275,64.46732878684998 59.77272391319275,64.46732878684998 59.999001026153564,64.70103859901428 59.999001026153564,64.70103859901428 60.22716164588928,64.93518948554993 60.22716164588928,64.93518948554993 60.4572057723999,65.17012119293213 60.4572057723999,65.17012119293213 60.68891882896423,65.4052734375 60.68891882896423,65.4052734375 60.92240810394287,65.64075350761414 60.92240810394287,65.64075350761414 61.15766763687134,65.87623953819275 61.15766763687134,65.87623953819275 62.65980005264282,67.46060252189636 62.65980005264282,67.46060252189636 64.04385566711426,69.0601646900177 64.04385566711426,69.0601646900177 65.32448530197144,70.64253091812134 65.32448530197144,70.64253091812134 66.51588678359985,72.17384576797485 66.51588678359985,72.17384576797485 67.63294339179993,73.62149357795715 67.63294339179993,73.62149357795715 68.689626455307,74.95205998420715 68.689626455307,74.95205998420715 68.83456110954285,75.12794733047485 68.83456110954285,75.12794733047485 68.97838115692139,75.30084252357483 68.97838115692139,75.30084252357483 69.12153363227844,75.47052502632141 69.12153363227844,75.47052502632141 69.26358342170715,75.63698291778564 69.26358342170715,75.63698291778564 69.4049596786499,75.80011487007141 69.4049596786499,75.80011487007141 69.54545378684998,75.95969438552856 69.54545378684998,75.95969438552856 69.58817839622498,75.9278416633606 69.58817839622498,75.9278416633606 69.63145732879639,75.89621543884277 69.63145732879639,75.89621543884277 69.67507004737854,75.8649230003357 69.67507004737854,75.8649230003357 69.71856951713562,75.83340406417847 69.71856951713562,75.83340406417847 69.76184844970703,75.8014440536499 69.76184844970703,75.8014440536499 69.8046863079071,75.76881647109985 69.8046863079071,75.76881647109985 70.94359993934631,74.85018372535706 70.94359993934631,74.85018372535706 72.04034924507141,73.88272285461426 72.04034924507141,73.88272285461426 73.09303879737854,72.86787033081055 73.09303879737854,72.86787033081055 74.09945130348206,71.80697321891785 74.09945130348206,71.80697321891785 75.05770325660706,70.70178985595703 75.05770325660706,70.70178985595703 75.96590518951416,69.55344080924988 75.96590518951416,69.55344080924988 75.8045494556427,69.41128373146057 75.8045494556427,69.41128373146057 75.64008831977844,69.26846504211426 75.64008831977844,69.26846504211426 75.47274231910706,69.12519931793213 75.47274231910706,69.12519931793213 75.30195713043213,68.9808189868927 75.30195713043213,68.9808189868927 75.12794733047485,68.83566975593567 75.12794733047485,68.83566975593567 74.95028376579285,68.689626455307 74.95028376579285,68.689626455307 73.61993789672852,67.63327717781067 73.61993789672852,67.63327717781067 72.17240333557129,66.516774892807 72.17240333557129,66.516774892807 70.6409752368927,65.32570123672485 70.6409752368927,65.32570123672485 69.05850172042847,64.04529809951782 69.05850172042847,64.04529809951782 67.45838522911072,62.66135573387146 67.45838522911072,62.66135573387146" stroke="white" stroke-width="0.1" /><polygon points="34.12286937236786,38.84055316448212 34.12286937236786,38.84055316448212 34.35857594013214,39.07526135444641 34.35857594013214,39.07526135444641 34.59394872188568,39.30852711200714 34.59394872188568,39.30852711200714 34.82910096645355,39.5401269197464 34.82910096645355,39.5401269197464 35.06380915641785,39.769840240478516 35.06380915641785,39.769840240478516 35.29829382896423,39.997780323028564 35.29829382896423,39.997780323028564 35.532668232917786,40.2237206697464 35.532668232917786,40.2237206697464 40.2237206697464,35.532668232917786 40.2237206697464,35.532668232917786 39.997223019599915,35.298848152160645 39.997223019599915,35.298848152160645 39.76895213127136,35.06447374820709 39.76895213127136,35.06447374820709 39.539238810539246,34.82987582683563 39.539238810539246,34.82987582683563 39.307525753974915,34.5947265625 39.307525753974915,34.5947265625 39.074039459228516,34.359464049339294 39.074039459228516,34.359464049339294 38.83877694606781,34.12375748157501 38.83877694606781,34.12375748157501 37.33775615692139,32.539284229278564 37.33775615692139,32.539284229278564 35.95414459705353,30.939608812332153 35.95414459705353,30.939608812332153 34.67373847961426,29.357686638832092 34.67373847961426,29.357686638832092 33.48233103752136,27.82648205757141 33.48233103752136,27.82648205757141 32.36594498157501,26.37961506843567 32.36594498157501,26.37961506843567 31.310367584228516,25.049716234207153 31.310367584228516,25.049716234207153 31.164994835853577,24.873268604278564 31.164994835853577,24.873268604278564 31.020396947860718,24.700039625167847 31.020396947860718,24.700039625167847 30.876687169075012,24.530471861362457 30.876687169075012,24.530471861362457 30.733752250671387,24.364012479782104 30.733752250671387,24.364012479782104 30.591928958892822,24.20099377632141 30.591928958892822,24.20099377632141 30.45099377632141,24.04119223356247 30.45099377632141,24.04119223356247 30.402719974517822,24.07725900411606 30.402719974517822,24.07725900411606 30.35411536693573,24.112991988658905 30.35411536693573,24.112991988658905 30.305397510528564,24.148836731910706 30.305397510528564,24.148836731910706 30.256569385528564,24.184569716453552 30.256569385528564,24.184569716453552 30.208072066307068,24.220968782901764 30.208072066307068,24.220968782901764 30.159801244735718,24.257811903953552 30.159801244735718,24.257811903953552 29.027432203292847,25.173228979110718 29.027432203292847,25.173228979110718 27.936899662017822,26.137030124664307 27.936899662017822,26.137030124664307 26.890090107917786,27.147769927978516 26.890090107917786,27.147769927978516 25.888672471046448,28.20379137992859 25.888672471046448,28.20379137992859 24.93496835231781,29.303976893424988 24.93496835231781,29.303976893424988 24.030539393424988,30.446553230285645 24.030539393424988,30.446553230285645 24.192115664482117,30.588489770889282 24.192115664482117,30.588489770889282 24.356910586357117,30.731087923049927 24.356910586357117,30.731087923049927 24.525034427642822,30.87480068206787 24.525034427642822,30.87480068206787 24.696044623851776,31.019175052642822 24.696044623851776,31.019175052642822 24.86993819475174,31.164327263832092 24.86993819475174,31.164327263832092 25.04616379737854,31.310367584228516 25.04616379737854,31.310367584228516 26.377728581428528,32.36671984195709 26.377728581428528,32.36671984195709 27.82537341117859,33.483219146728516 27.82537341117859,33.483219146728516 29.35679852962494,34.67462658882141 29.35679852962494,34.67462658882141 30.938607454299927,35.95492243766785 30.938607454299927,35.95492243766785 32.53839612007141,37.33886480331421 32.53839612007141,37.33886480331421" stroke="white" stroke-width="0.1" /><polygon points="35.52911877632141,59.77627635002136 35.52911877632141,59.77627635002136 35.29618680477142,60.00210642814636 35.29618680477142,60.00210642814636 35.06258726119995,60.22993326187134 35.06258726119995,60.22993326187134 34.828656911849976,60.45987010002136 34.828656911849976,60.45987010002136 34.59394872188568,60.691362619400024 34.59394872188568,60.691362619400024 34.35879647731781,60.924625396728516 34.35879647731781,60.924625396728516 34.12286937236786,61.159443855285645 34.12286937236786,61.159443855285645 32.53828585147858,62.66112923622131 32.53828585147858,62.66112923622131 30.938607454299927,64.044851064682 30.938607454299927,64.044851064682 29.35679852962494,65.32537341117859 29.35679852962494,65.32537341117859 27.825483679771423,66.51655435562134 27.825483679771423,66.51655435562134 26.377728581428528,67.63327717781067 26.377728581428528,67.63327717781067 25.04616379737854,68.689626455307 25.04616379737854,68.689626455307 24.86971616744995,68.83544921875 24.86971616744995,68.83544921875 24.695932865142822,68.9807116985321 24.695932865142822,68.9807116985321 24.525034427642822,69.12519931793213 24.525034427642822,69.12519931793213 24.356910586357117,69.268798828125 24.356910586357117,69.268798828125 24.192115664482117,69.41151022911072 24.192115664482117,69.41151022911072 24.030539393424988,69.55344080924988 24.030539393424988,69.55344080924988 24.973587691783905,70.74296474456787 24.973587691783905,70.74296474456787 25.96934735774994,71.88653945922852 25.96934735774994,71.88653945922852 27.016156911849976,72.9828417301178 27.016156911849976,72.9828417301178 28.111904859542847,74.02942776679993 28.111904859542847,74.02942776679993 29.255148768424988,75.02485513687134 29.255148768424988,75.02485513687134 30.443891882896423,75.96679329872131 30.443891882896423,75.96679329872131 30.586159229278564,75.80588459968567 30.586159229278564,75.80588459968567 30.72909116744995,75.641530752182 30.72909116744995,75.641530752182 30.8731347322464,75.47396421432495 30.8731347322464,75.47396421432495 31.017842888832092,75.30284523963928 31.017842888832092,75.30284523963928 31.163662672042847,75.12850165367126 31.163662672042847,75.12850165367126 31.310367584228516,74.951171875 31.310367584228516,74.951171875 32.36583173274994,73.62082600593567 32.36583173274994,73.62082600593567 33.48211050033569,72.17340469360352 33.48211050033569,72.17340469360352 34.67373847961426,70.64241766929626 34.67373847961426,70.64241766929626 35.95414459705353,69.06027793884277 35.95414459705353,69.06027793884277 37.33786642551422,67.46071577072144 37.33786642551422,67.46071577072144 38.83877694606781,65.87623953819275 38.83877694606781,65.87623953819275 39.07392919063568,65.64053297042847 39.07392919063568,65.64053297042847 39.307305216789246,65.40504693984985 39.307305216789246,65.40504693984985 39.539238810539246,65.17012119293213 39.539238810539246,65.17012119293213 39.76917564868927,64.9354100227356 39.76917564868927,64.9354100227356 39.99733626842499,64.70114588737488 39.99733626842499,64.70114588737488 40.2237206697464,64.46732878684998 40.2237206697464,64.46732878684998" stroke="white" stroke-width="0.1" /><polygon points="54.73366379737854,38.57155442237854 54.73366379737854,38.57155442237854 45.26633322238922,38.57155442237854 45.26633322238922,38.57155442237854 38.56889009475708,45.267221331596375 38.56889009475708,45.267221331596375 38.56889009475708,54.73277568817139 38.56889009475708,54.73277568817139 45.26633322238922,61.42844557762146 45.26633322238922,61.42844557762146 54.73366379737854,61.42844557762146 54.73366379737854,61.42844557762146 61.42755746841431,54.73277568817139 61.42755746841431,54.73277568817139 61.42755746841431,45.267221331596375 61.42755746841431,45.267221331596375" stroke="white" stroke-width="0.1" /><polygon points="64.46732878684998,40.22460877895355 64.46732878684998,40.22460877895355 64.7003710269928,39.99811112880707 64.7003710269928,39.99811112880707 64.93441462516785,39.76995050907135 64.93441462516785,39.76995050907135 65.1691198348999,39.54023718833923 65.1691198348999,39.54023718833923 65.40393829345703,39.30874764919281 65.40393829345703,39.30874764919281 65.6389832496643,39.07548189163208 65.6389832496643,39.07548189163208 65.87357521057129,38.84055316448212 65.87357521057129,38.84055316448212 67.45838522911072,37.338533997535706 67.45838522911072,37.338533997535706 69.05839443206787,35.954588651657104 69.05839443206787,35.954588651657104 70.6409752368927,34.67429280281067 70.6409752368927,34.67429280281067 72.17240333557129,33.48299860954285 72.17240333557129,33.48299860954285 73.62015843391418,32.36660957336426 73.62015843391418,32.36660957336426 74.95028376579285,31.310367584228516 74.95028376579285,31.310367584228516 75.12772679328918,31.164216995239258 75.12772679328918,31.164216995239258 75.30184388160706,31.018954515457153 75.30184388160706,31.018954515457153 75.47274231910706,30.87480068206787 75.47274231910706,30.87480068206787 75.64020156860352,30.731311440467834 75.64020156860352,30.731311440467834 75.80466270446777,30.588600039482117 75.80466270446777,30.588600039482117 75.96590518951416,30.446553230285645 75.96590518951416,30.446553230285645 75.02396702766418,29.256480932235718 75.02396702766418,29.256480932235718 74.02853965759277,28.112679719924927 74.02853965759277,28.112679719924927 72.9816198348999,27.01682150363922 72.9816198348999,27.01682150363922 71.88531756401062,25.970345735549927 71.88531756401062,25.970345735549927 70.7416296005249,24.97536391019821 70.7416296005249,24.97536391019821 69.55255270004272,24.03320223093033 69.55255270004272,24.03320223093033 69.41017508506775,24.193891882896423 69.41017508506775,24.193891882896423 69.26724314689636,24.358130991458893 69.26724314689636,24.358130991458893 69.12375688552856,24.52603280544281 69.12375688552856,24.52603280544281 68.97960305213928,24.697043001651764 68.97960305213928,24.697043001651764 68.83500218391418,24.871492385864258 68.83500218391418,24.871492385864258 68.689626455307,25.048828125 68.689626455307,25.048828125 67.63272285461426,26.378950476646423 67.63272285461426,26.378950476646423 66.51588678359985,27.82614827156067 66.51588678359985,27.82614827156067 65.32448530197144,29.357576370239258 65.32448530197144,29.357576370239258 64.04396295547485,30.939608812332153 64.04396295547485,30.939608812332153 62.65990734100342,32.53950476646423 62.65990734100342,32.53950476646423 61.15766763687134,34.12375748157501 61.15766763687134,34.12375748157501 60.92240810394287,34.35924053192139 60.92240810394287,34.35924053192139 60.68880558013916,34.59461331367493 60.68880558013916,34.59461331367493 60.4572057723999,34.82987582683563 60.4572057723999,34.82987582683563 60.22726893424988,35.06458401679993 60.22726893424988,35.06458401679993 59.99922156333923,35.29896140098572 59.99922156333923,35.29896140098572 59.77272391319275,35.532668232917786 59.77272391319275,35.532668232917786" stroke="white" stroke-width="0.1" /><polygon points="67.14133024215698,57.09960460662842 67.14133024215698,57.09960460662842 66.3103699684143,57.92880058288574 66.3103699684143,57.92880058288574 66.77112579345703,57.95543193817139 66.77112579345703,57.95543193817139 67.23410487174988,57.978737354278564 67.23410487174988,57.978737354278564 67.69974827766418,57.99804329872131 67.69974827766418,57.99804329872131 68.16827654838562,58.012473583221436 68.16827654838562,58.012473583221436 68.64013671875,58.02156925201416 68.64013671875,58.02156925201416 69.11576390266418,58.024680614471436 69.11576390266418,58.024680614471436 70.99376320838928,58.129435777664185 70.99376320838928,58.129435777664185 72.8192687034607,58.410197496414185 72.8192687034607,58.410197496414185 74.58451390266418,58.815693855285645 74.58451390266418,58.815693855285645 76.28085017204285,59.294432401657104 76.28085017204285,59.294432401657104 77.90061235427856,59.79536175727844 77.90061235427856,59.79536175727844 79.43536639213562,60.26722192764282 79.43536639213562,60.26722192764282 79.65631484985352,60.33191680908203 79.65631484985352,60.33191680908203 79.87537384033203,60.39450764656067 79.87537384033203,60.39450764656067 80.09232878684998,60.45509576797485 80.09232878684998,60.45509576797485 80.30672669410706,60.513246059417725 80.30672669410706,60.513246059417725 80.51890730857849,60.56917905807495 80.51890730857849,60.56917905807495 80.72798252105713,60.622334480285645 80.72798252105713,60.622334480285645 81.26142621040344,58.93676280975342 81.26142621040344,58.93676280975342 81.70576095581055,57.213908433914185 81.70576095581055,57.213908433914185 82.05743432044983,55.45631647109985 82.05743432044983,55.45631647109985 82.31289982795715,53.66632342338562 82.31289982795715,53.66632342338562 82.46870040893555,51.84681415557861 82.46870040893555,51.84681415557861 82.52130150794983,49.99999701976776 82.52130150794983,49.99999701976776 82.46847987174988,48.15318584442139 82.46847987174988,48.15318584442139 82.31278657913208,46.33345007896423 82.31278657913208,46.33345007896423 82.05743432044983,44.54367756843567 82.05743432044983,44.54367756843567 81.70587420463562,42.7859753370285 81.70587420463562,42.7859753370285 81.26153945922852,41.06312096118927 81.26153945922852,41.06312096118927 80.72798252105713,39.37766253948212 80.72798252105713,39.37766253948212 80.51868677139282,39.430707693099976 80.51868677139282,39.430707693099976 80.30661344528198,39.48652744293213 80.30661344528198,39.48652744293213 80.09232878684998,39.54489827156067 80.09232878684998,39.54489827156067 79.87537384033203,39.60537910461426 79.87537384033203,39.60537910461426 79.65642213821411,39.668190479278564 79.65642213821411,39.668190479278564 79.43536639213562,39.73277509212494 79.43536639213562,39.73277509212494 77.90038585662842,40.204522013664246 77.90038585662842,40.204522013664246 76.28085017204285,40.705230832099915 76.28085017204285,40.705230832099915 74.58451390266418,41.18430316448212 74.58451390266418,41.18430316448212 72.81948924064636,41.58957600593567 72.81948924064636,41.58957600593567 70.99387049674988,41.87033772468567 70.99387049674988,41.87033772468567 69.11576390266418,41.975319385528564 69.11576390266418,41.975319385528564 68.64002346992493,41.97831451892853 68.64002346992493,41.97831451892853 68.16816926002502,41.98741316795349 68.16816926002502,41.98741316795349 67.69974827766418,42.00195074081421 67.69974827766418,42.00195074081421 67.23421812057495,42.02103912830353 67.23421812057495,42.02103912830353 66.7713463306427,42.044344544410706 66.7713463306427,42.044344544410706 66.3103699684143,42.07119941711426 66.3103699684143,42.07119941711426 67.14133024215698,42.900389432907104 67.14133024215698,42.900389432907104" stroke="white" stroke-width="0.1" /><polygon points="42.897725105285645,67.14310646057129 42.897725105285645,67.14310646057129 42.070311307907104,66.31214022636414 42.070311307907104,66.31214022636414 42.04334616661072,66.77278876304626 42.04334616661072,66.77278876304626 42.02004075050354,67.23588109016418 42.02004075050354,67.23588109016418 42.001062631607056,67.70152449607849 42.001062631607056,67.70152449607849 41.98663830757141,68.17005276679993 41.98663830757141,68.17005276679993 41.97764992713928,68.6420202255249 41.97764992713928,68.6420202255249 41.97443127632141,69.11754012107849 41.97443127632141,69.11754012107849 41.86922907829285,70.99542617797852 41.86922907829285,70.99542617797852 41.58824384212494,72.821044921875 41.58824384212494,72.821044921875 41.18252694606781,74.58629012107849 41.18252694606781,74.58629012107849 40.70334434509277,76.28273367881775 40.70334434509277,76.28273367881775 40.20219147205353,77.90238857269287 40.20219147205353,77.90238857269287 39.73011374473572,79.43714261054993 39.73011374473572,79.43714261054993 39.665526151657104,79.65819835662842 39.665526151657104,79.65819835662842 39.60326910018921,79.87703680992126 39.60326910018921,79.87703680992126 39.543235301971436,80.09410500526428 39.543235301971436,80.09410500526428 39.4851952791214,80.30872344970703 39.4851952791214,80.30872344970703 39.42926526069641,80.5206835269928 39.42926526069641,80.5206835269928 39.37499821186066,80.72975873947144 39.37499821186066,80.72975873947144 41.06123447418213,81.26320242881775 41.06123447418213,81.26320242881775 42.784422636032104,81.70742988586426 42.784422636032104,81.70742988586426 44.54234540462494,82.05921053886414 44.54234540462494,82.05921053886414 46.33234143257141,82.31467008590698 46.33234143257141,82.31467008590698 48.15229773521423,82.47047662734985 48.15229773521423,82.47047662734985 49.99999701976776,82.52307772636414 49.99999701976776,82.52307772636414 51.8463671207428,82.47025609016418 51.8463671207428,82.47025609016418 53.66588234901428,82.31456279754639 53.66588234901428,82.31456279754639 55.455875396728516,82.05921053886414 55.455875396728516,82.05921053886414 57.21346735954285,81.70765042304993 57.21346735954285,81.70765042304993 58.93632173538208,81.26342296600342 58.93632173538208,81.26342296600342 60.62144637107849,80.72975873947144 60.62144637107849,80.72975873947144 60.56840419769287,80.52046298980713 60.56840419769287,80.52046298980713 60.51269173622131,80.30838966369629 60.51269173622131,80.30838966369629 60.45454144477844,80.09410500526428 60.45454144477844,80.09410500526428 60.393840074539185,79.87726330757141 60.393840074539185,79.87726330757141 60.33114194869995,79.65819835662842 60.33114194869995,79.65819835662842 60.26633381843567,79.43714261054993 60.26633381843567,79.43714261054993 59.79425311088562,77.90216207504272 59.79425311088562,77.90216207504272 59.29287672042847,76.282399892807 59.29287672042847,76.282399892807 58.81391763687134,74.58629012107849 58.81391763687134,74.58629012107849 58.40820074081421,72.82126545906067 58.40820074081421,72.82126545906067 58.12721848487854,70.99564671516418 58.12721848487854,70.99564671516418 58.022016286849976,69.11754012107849 58.022016286849976,69.11754012107849 58.018797636032104,68.64179968833923 58.018797636032104,68.64179968833923 58.00958871841431,68.16983222961426 58.00958871841431,68.16983222961426 57.99537897109985,67.70152449607849 57.99537897109985,67.70152449607849 57.97618627548218,67.23599433898926 57.97618627548218,67.23599433898926 57.952988147735596,66.773122549057 57.952988147735596,66.773122549057 57.92613625526428,66.31214022636414 57.92613625526428,66.31214022636414 57.09872245788574,67.14310646057129 57.09872245788574,67.14310646057129" stroke="white" stroke-width="0.1" /><polygon points="32.85511136054993,42.900389432907104 32.85511136054993,42.900389432907104 33.68607759475708,42.072975635528564 33.68607759475708,42.072975635528564 33.22520852088928,42.04600751399994 33.22520852088928,42.04600751399994 32.76211619377136,42.022705078125 32.76211619377136,42.022705078125 32.29669630527496,42.003726959228516 32.29669630527496,42.003726959228516 31.828168034553528,41.98929965496063 31.828168034553528,41.98929965496063 31.356310844421387,41.9803112745285 31.356310844421387,41.9803112745285 30.880680680274963,41.97709262371063 30.880680680274963,41.97709262371063 29.00257408618927,41.87189042568207 29.00257408618927,41.87189042568207 27.17684507369995,41.59068465232849 27.17684507369995,41.59068465232849 25.411930680274963,41.18519127368927 25.411930680274963,41.18519127368927 23.71559739112854,40.70600867271423 23.71559739112854,40.70600867271423 22.095946967601776,40.20485579967499 22.095946967601776,40.20485579967499 20.561078190803528,39.73277509212494 20.561078190803528,39.73277509212494 20.339909195899963,39.66807723045349 20.339909195899963,39.66807723045349 20.12084871530533,39.60537910461426 20.12084871530533,39.60537910461426 19.90411877632141,39.54523205757141 19.90411877632141,39.54523205757141 19.689497351646423,39.48708176612854 19.689497351646423,39.48708176612854 19.477760791778564,39.43126201629639 19.477760791778564,39.43126201629639 19.268465042114258,39.37766253948212 19.268465042114258,39.37766253948212 18.734796345233917,41.06334149837494 18.734796345233917,41.06334149837494 18.290460109710693,42.786309123039246 18.290460109710693,42.786309123039246 17.9390087723732,44.544121623039246 17.9390087723732,44.544121623039246 17.683549225330353,46.33411467075348 17.683549225330353,46.33411467075348 17.527852952480316,48.15385043621063 17.527852952480316,48.15385043621063 17.4751415848732,50.00088810920715 17.4751415848732,50.00088810920715 17.527852952480316,51.84780955314636 17.527852952480316,51.84780955314636 17.683549225330353,53.667545318603516 17.683549225330353,53.667545318603516 17.9390087723732,55.45765161514282 17.9390087723732,55.45765161514282 18.290571868419647,57.21535086631775 18.290571868419647,57.21535086631775 18.73490661382675,58.938318490982056 18.73490661382675,58.938318490982056 19.268465042114258,60.62411069869995 19.268465042114258,60.62411069869995 19.477538764476776,60.57040095329285 19.477538764476776,60.57040095329285 19.689497351646423,60.51458120346069 19.689497351646423,60.51458120346069 19.90411877632141,60.45653820037842 19.90411877632141,60.45653820037842 20.120960474014282,60.3961706161499 20.120960474014282,60.3961706161499 20.340020954608917,60.33380627632141 20.340020954608917,60.33380627632141 20.561078190803528,60.26899814605713 20.561078190803528,60.26899814605713 22.095835208892822,59.79680418968201 22.095835208892822,59.79680418968201 23.71537536382675,59.295654296875 23.71537536382675,59.295654296875 25.411930680274963,58.8165819644928 25.411930680274963,58.8165819644928 27.176955342292786,58.41086506843567 27.176955342292786,58.41086506843567 29.002684354782104,58.1298828125 29.002684354782104,58.1298828125 30.880680680274963,58.024680614471436 30.880680680274963,58.024680614471436 31.356200575828552,58.02134871482849 31.356200575828552,58.02134871482849 31.82794749736786,58.01236033439636 31.82794749736786,58.01236033439636 32.29669630527496,57.99804329872131 32.29669630527496,57.99804329872131 32.762229442596436,57.97884464263916 32.762229442596436,57.97884464263916 33.22531878948212,57.955652475357056 33.22531878948212,57.955652475357056 33.68607759475708,57.92880058288574 33.68607759475708,57.92880058288574 32.85511136054993,57.101380825042725 32.85511136054993,57.101380825042725" stroke="white" stroke-width="0.1" /><polygon points="57.09872245788574,32.85688757896423 57.09872245788574,32.85688757896423 57.92613625526428,33.68785381317139 57.92613625526428,33.68785381317139 57.952880859375,33.226871490478516 57.952880859375,33.226871490478516 57.976073026657104,32.76389241218567 57.976073026657104,32.76389241218567 57.99537897109985,32.29847252368927 57.99537897109985,32.29847252368927 58.009809255599976,31.829944252967834 58.009809255599976,31.829944252967834 58.01891088485718,31.358087062835693 58.01891088485718,31.358087062835693 58.022016286849976,30.88245689868927 58.022016286849976,30.88245689868927 58.12699794769287,29.004237055778503 58.12699794769287,29.004237055778503 58.408087491989136,27.178511023521423 58.408087491989136,27.178511023521423 58.81391763687134,25.41370689868927 58.81391763687134,25.41370689868927 59.29298996925354,23.717261850833893 59.29298996925354,23.717261850833893 59.79436635971069,22.097721695899963 59.79436635971069,22.097721695899963 60.26633381843567,20.562854409217834 60.26633381843567,20.562854409217834 60.33114194869995,20.341795682907104 60.33114194869995,20.341795682907104 60.393840074539185,20.12273520231247 60.393840074539185,20.12273520231247 60.45454144477844,19.905894994735718 60.45454144477844,19.905894994735718 60.51280498504639,19.6914941072464 60.51280498504639,19.6914941072464 60.56862473487854,19.47953552007675 60.56862473487854,19.47953552007675 60.62144637107849,19.270241260528564 60.62144637107849,19.270241260528564 58.93620848655701,18.73646080493927 58.93620848655701,18.73646080493927 57.21335411071777,18.292236328125 57.21335411071777,18.292236328125 55.455875396728516,17.940783500671387 55.455875396728516,17.940783500671387 53.66588234901428,17.68532395362854 53.66588234901428,17.68532395362854 51.84658765792847,17.529629170894623 51.84658765792847,17.529629170894623 49.99999701976776,17.476917803287506 49.99999701976776,17.476917803287506 48.1521874666214,17.52951890230179 48.1521874666214,17.52951890230179 46.33222818374634,17.68532395362854 46.33222818374634,17.68532395362854 44.54234540462494,17.940783500671387 44.54234540462494,17.940783500671387 42.78453290462494,18.292346596717834 42.78453290462494,18.292346596717834 41.06156527996063,18.73668283224106 41.06156527996063,18.73668283224106 39.37499821186066,19.270241260528564 39.37499821186066,19.270241260528564 39.42893147468567,19.479425251483917 39.42893147468567,19.479425251483917 39.485085010528564,19.691161811351776 39.485085010528564,19.691161811351776 39.543235301971436,19.905894994735718 39.543235301971436,19.905894994735718 39.60338234901428,20.122846961021423 39.60338234901428,20.122846961021423 39.665526151657104,20.341795682907104 39.665526151657104,20.341795682907104 39.73011374473572,20.562854409217834 39.73011374473572,20.562854409217834 40.20208120346069,22.097499668598175 40.20208120346069,22.097499668598175 40.70323407649994,23.71715158224106 40.70323407649994,23.71715158224106 41.18252694606781,25.41370689868927 41.18252694606781,25.41370689868927 41.58824384212494,27.178731560707092 41.58824384212494,27.178731560707092 41.869449615478516,29.004350304603577 41.869449615478516,29.004350304603577 41.97443127632141,30.88245689868927 41.97443127632141,30.88245689868927 41.97753667831421,31.35797679424286 41.97753667831421,31.35797679424286 41.98663830757141,31.829833984375 41.98663830757141,31.829833984375 42.001062631607056,32.29847252368927 42.001062631607056,32.29847252368927 42.020151019096375,32.7640026807785 42.020151019096375,32.7640026807785 42.04356670379639,33.22709500789642 42.04356670379639,33.22709500789642 42.070311307907104,33.68785381317139 42.070311307907104,33.68785381317139 42.897725105285645,32.85688757896423 42.897725105285645,32.85688757896423" stroke="white" stroke-width="0.1" /></svg>