<?xml version="1.0" encoding="utf-8" ?>
<svg baseProfile="full" height="99.99275207519531" version="1.1" width="100.0" xmlns="http://www.w3.org/2000/svg" xmlns:ev="http://www.w3.org/2001/xml-events" xmlns:xlink="http://www.w3.org/1999/xlink"><defs><clipPath /></defs><polygon points="89.09912109375,80.11322021484375 89.21985626220703,80.90171813964844 89.14108276367188,81.37578964233398 88.91105651855469,81.60591125488281 88.57898712158203,81.6629409790039 88.19351196289062,81.61725997924805 87.80326843261719,81.53953552246094 87.457275390625,81.50033950805664 87.2039794921875,81.5704345703125 88.58604431152344,82.57436752319336 90.01007080078125,83.73832702636719 91.46060943603516,84.9431037902832 92.92240142822266,86.06910705566406 94.38018798828125,86.99703216552734 95.819091796875,87.60738372802734 97.22328186035156,87.78076171875 98.577880859375,87.39776611328125 98.29025268554688,88.89532089233398 98.236083984375,89.78500366210938 98.36540222167969,90.18268585205078 98.62747192382812,90.20442962646484 98.97232055664062,89.96639251708984 99.34959411621094,89.58454132080078 99.70893859863281,89.17484283447266 100.0,88.85345458984375 99.19509887695312,90.66162109375 98.284912109375,91.3919448852539 97.29690551757812,91.29905700683594 96.25988006591797,90.63758850097656 95.20149230957031,89.66217041015625 94.14997100830078,88.62724304199219 93.13335418701172,87.78762817382812 92.17987060546875,87.39776611328125 92.21000671386719,87.94078826904297 92.2677993774414,88.31291198730469 92.34809875488281,88.54808807373047 92.44499206542969,88.6800765991211 92.55332946777344,88.74273300170898 92.66738891601562,88.76991271972656 92.78182983398438,88.79556655883789 92.89093017578125,88.85345458984375 90.91796875,89.05086517333984 89.02530670166016,88.59844207763672 87.18814849853516,87.71514892578125 85.38169860839844,86.61918640136719 83.58078002929688,85.5295181274414 81.76040649414062,84.66453552246094 79.89578247070312,84.24291610717773 77.96173095703125,84.48333740234375 78.48625183105469,87.63160705566406 79.23393249511719,89.40887451171875 80.14488220214844,90.18087387084961 81.16035461425781,90.31352996826172 82.22007751464844,90.17257690429688 83.26492309570312,90.12393951416016 84.23480987548828,90.53325653076172 85.07080078125,91.766357421875 86.28425598144531,91.80755615234375 86.93523406982422,92.03948974609375 87.10556030273438,92.38729476928711 86.87858581542969,92.77534484863281 86.33670806884766,93.1283950805664 85.56251525878906,93.37100982666016 84.63897705078125,93.42784881591797 83.648681640625,93.22357177734375 83.69598388671875,93.8436508178711 83.77799987792969,94.25029754638672 83.88748168945312,94.48776245117188 84.01737213134766,94.59991455078125 84.16061401367188,94.63119506835938 84.30976867675781,94.62566375732422 84.45796966552734,94.62738037109375 84.5977783203125,94.6807861328125 84.51728820800781,95.64266204833984 84.36431884765625,96.16031646728516 84.15718078613281,96.34418487548828 83.91361236572266,96.3052749633789 83.65192413330078,96.15421295166016 83.39004516601562,96.00191116333008 83.14590454101562,95.95909118652344 82.9376220703125,96.136474609375 83.10470581054688,97.11532592773438 83.3456039428711,97.6369857788086 83.642578125,97.81627655029297 83.9761734008789,97.76802062988281 84.3282699584961,97.60684967041016 84.68017578125,97.44758605957031 85.01319885253906,97.40486145019531 85.308837890625,97.59368896484375 86.492919921875,97.59368896484375 86.67755126953125,97.6165771484375 86.79676055908203,97.78919219970703 86.85646057128906,98.05917739868164 86.86370849609375,98.37474822998047 86.82441711425781,98.68364334106445 86.74545288085938,98.93369674682617 86.63253784179688,99.07302856445312 86.492919921875,99.04937744140625 84.6588134765625,99.99275207519531 82.9061508178711,99.4903564453125 81.22730255126953,98.05231094360352 79.61540222167969,96.18873596191406 78.06339263916016,94.4096565246582 76.56440734863281,93.22538375854492 75.11119842529297,93.14565658569336 73.6968994140625,94.6807861328125 72.61505126953125,92.4281120300293 71.50230407714844,91.64037704467773 70.36781311035156,91.77684783935547 69.22054290771484,92.29698181152344 68.07022094726562,92.65985488891602 66.9260025024414,92.32473373413086 65.79704284667969,90.75098037719727 64.69268798828125,87.39776611328125 64.67018127441406,88.75885009765625 64.59007263183594,89.43243026733398 64.46342468261719,89.64567184448242 64.30072784423828,89.6261215209961 64.11304473876953,89.60103988647461 63.91105651855469,89.79778289794922 63.7054443359375,90.44380187988281 63.507080078125,91.766357421875 60.81428527832031,89.08462524414062 57.871437072753906,87.74280548095703 54.773521423339844,87.40215301513672 51.61552429199219,87.72354125976562 48.49262237548828,88.36832046508789 45.49980163574219,88.9974594116211 42.73204803466797,89.2721176147461 40.28472900390625,88.85345458984375 40.05088806152344,89.01605606079102 39.90287780761719,88.65089416503906 39.81456756591797,87.92057037353516 39.758872985839844,86.98768615722656 39.70985412597656,86.01493835449219 39.64080810546875,85.16483306884766 39.525413513183594,84.60006713867188 39.337158203125,84.48333740234375 39.2486572265625,84.66835021972656 39.18800354003906,85.02426147460938 39.14985656738281,85.51750183105469 39.12830352783203,86.11392974853516 39.11781311035156,86.77959442138672 39.113426208496094,87.4807357788086 39.109039306640625,88.18330764770508 39.09912109375,88.85345458984375 37.94746398925781,88.80395889282227 36.685752868652344,89.14203643798828 35.34259796142578,89.65492248535156 33.94794464111328,90.13004302978516 32.53059387207031,90.35453796386719 31.12010955810547,90.1158332824707 29.7454833984375,89.20116424560547 28.436279296875,87.39776611328125 27.776527404785156,88.6800765991211 26.94244384765625,89.58625793457031 25.983619689941406,90.17314910888672 24.951171875,90.49758911132812 23.895263671875,90.61660766601562 22.866249084472656,90.58723449707031 21.9146728515625,90.46630859375 21.0906982421875,90.3106689453125 20.940017700195312,91.02287292480469 20.860671997070312,92.17453002929688 20.821762084960938,93.57433319091797 20.792007446289062,95.0307846069336 20.740509033203125,96.35238647460938 20.63579559326172,97.34764099121094 20.447158813476562,97.82524108886719 20.14312744140625,97.59368896484375 20.222854614257812,96.80976867675781 20.2850341796875,95.91751098632812 20.33519744873047,94.95296478271484 20.379638671875,93.95217895507812 20.42407989501953,92.9513931274414 20.47443389892578,91.98684692382812 20.53661346435547,91.0944938659668 20.61614990234375,90.3106689453125 18.707656860351562,89.84336853027344 16.796493530273438,89.3899917602539 14.90325927734375,88.82827758789062 13.047599792480469,88.03577423095703 11.249351501464844,86.89031600952148 9.528350830078125,85.26954650878906 7.904529571533203,83.05130004882812 6.39801025390625,80.11322021484375 6.504154205322266,79.16030883789062 6.648349761962891,78.87449264526367 6.825828552246094,79.05817031860352 7.032203674316406,79.51412200927734 7.262992858886719,80.04493713378906 7.513618469238281,80.45330047607422 7.779693603515625,80.54180145263672 8.056640625,80.11322021484375 7.313346862792969,78.5726547241211 6.5433502197265625,77.20832824707031 5.785560607910156,75.89216232299805 5.07965087890625,74.49588775634766 4.4643402099609375,72.89142608642578 3.978729248046875,70.95060348510742 3.6623001098632812,68.54524612426758 3.55377197265625,65.54718017578125 3.2075881958007812,65.60173034667969 2.8924942016601562,65.84959030151367 2.5960922241210938,66.21208190917969 2.30560302734375,66.61109924316406 2.0082473754882812,66.96815490722656 1.6912460327148438,67.20495223999023 1.3419151306152344,67.24319458007812 0.94757080078125,67.00439453125 0.8601188659667969,65.90213775634766 0.7742881774902344,64.7918701171875 0.6844520568847656,63.704872131347656 0.5859375,62.67280578613281 0.4734039306640625,61.726951599121094 0.34160614013671875,60.898780822753906 0.18558502197265625,60.2198600769043 0.0,59.72137451171875 0.3201484680175781,58.2301139831543 0.5855560302734375,56.40230178833008 0.7991790771484375,54.255104064941406 0.9634017944335938,51.80549621582031 1.0813713073730469,49.07083511352539 1.1555671691894531,46.06828689575195 1.1887550354003906,42.81492233276367 1.18408203125,39.3280029296875 4.016971588134766,35.710811614990234 6.741142272949219,31.082916259765625 9.399795532226562,25.764083862304688 12.0361328125,20.07427215576172 14.693355560302734,14.333057403564453 17.41466522216797,8.860492706298828 20.243263244628906,3.976154327392578 23.22235107421875,0.0 23.12469482421875,1.5777587890625 23.186492919921875,2.9371261596679688 23.379898071289062,4.0660858154296875 23.67725372314453,4.952239990234375 24.051284790039062,5.583477020263672 24.473953247070312,5.947685241699219 24.917984008789062,6.032466888427734 25.35552978515625,5.8258056640625 25.249099731445312,7.174491882324219 25.07152557373047,8.086013793945312 24.848175048828125,8.716201782226562 24.604415893554688,9.221267700195312 24.365615844726562,9.757041931152344 24.157333374023438,10.479545593261719 24.004745483398438,11.5447998046875 23.93341064453125,13.10882568359375 24.320030212402344,13.118553161621094 24.662017822265625,12.852764129638672 24.9725341796875,12.395858764648438 25.265884399414062,11.832046508789062 25.55561065673828,11.24582290649414 25.855636596679688,10.721492767333984 26.17950439453125,10.343360900878906 26.5411376953125,10.1959228515625 26.497650146484375,10.839080810546875 26.4434814453125,11.418628692626953 26.37786865234375,11.926460266113281 26.299285888671875,12.354469299316406 26.206398010253906,12.694740295410156 26.097869873046875,12.939262390136719 25.972366333007812,13.080024719238281 25.82855224609375,13.10882568359375 26.708602905273438,14.570426940917969 27.740859985351562,14.620018005371094 28.905677795410156,13.650894165039062 30.183029174804688,12.056159973144531 31.552886962890625,10.228919982910156 32.99541473388672,8.562183380126953 34.49058532714844,7.449150085449219 36.01837158203125,7.28302001953125 35.898590087890625,8.001136779785156 35.75859069824219,8.597087860107422 35.60066223144531,9.081363677978516 35.42594909667969,9.464454650878906 35.23674011230469,9.756946563720703 35.0341796875,9.969329833984375 34.82093811035156,10.112190246582031 34.5977783203125,10.1959228515625 35.198974609375,11.232471466064453 35.89668273925781,11.67745590209961 36.64970397949219,11.782646179199219 37.416839599609375,11.799812316894531 38.15746307373047,11.980724334716797 38.83056640625,12.577056884765625 39.3951416015625,13.840675354003906 39.8101806640625,16.02325439453125 39.141845703125,17.641353607177734 38.40446472167969,18.31493377685547 37.613677978515625,18.363189697265625 36.785125732421875,18.105125427246094 35.93482971191406,17.859840393066406 35.07881164550781,17.946529388427734 34.23271179199219,18.684101104736328 33.41217041015625,20.391845703125 33.516693115234375,22.372913360595703 33.76483917236328,23.448944091796875 34.12513732910156,23.815345764160156 34.56573486328125,23.66790771484375 35.054779052734375,23.201942443847656 35.56022644042969,22.613143920898438 36.05003356933594,22.097015380859375 36.492919921875,21.84906005859375 36.956787109375,21.862220764160156 37.36000061035156,21.992874145507812 37.67127990722656,22.206497192382812 37.85820007324219,22.46837615966797 37.88948059082031,22.743988037109375 37.73307800292969,22.998523712158203 37.357521057128906,23.197555541992188 36.73095703125,23.3062744140625 35.61897277832031,25.360679626464844 34.48829650878906,27.59876251220703 33.34636688232422,29.895305633544922 32.20062255859375,32.125091552734375 31.058311462402344,34.16290283203125 29.926681518554688,35.883426666259766 28.81317138671875,37.16163635253906 27.7252197265625,37.872314453125 27.94036865234375,39.46113586425781 28.27434539794922,40.322113037109375 28.687286376953125,40.69633483886719 29.140472412109375,40.82469940185547 29.59442138671875,40.94810485839844 30.010032653808594,41.30744934082031 30.34820556640625,42.143821716308594 30.5694580078125,43.6981201171875 30.486297607421875,44.6446418762207 30.327987670898438,45.12939453125 30.118560791015625,45.29991149902344 29.882431030273438,45.303916931152344 29.64324951171875,45.28923034667969 29.42485809326172,45.40386199951172 29.251670837402344,45.7951545715332 29.1473388671875,46.61102294921875 33.606719970703125,50.423336029052734 38.065147399902344,53.06243896484375 42.516326904296875,54.88252639770508 46.954345703125,56.23760223388672 51.373291015625,57.481956481933594 55.766868591308594,58.96949768066406 60.129356384277344,61.05470657348633 64.45465087890625,64.09149169921875 67.58480072021484,66.7306900024414 70.70655822753906,69.32029724121094 73.81725311279297,71.79412841796875 76.91364288330078,74.08618927001953 79.99286651611328,76.13029479980469 83.05225372314453,77.86026000976562 86.08856201171875,79.20989990234375 89.09912109375,80.11322021484375 89.09912109375,80.11322021484375 89.21985626220703,80.90171813964844 89.21985626220703,80.90171813964844 89.14108276367188,81.37578964233398 89.14108276367188,81.37578964233398 88.91105651855469,81.60591125488281 88.91105651855469,81.60591125488281 88.57898712158203,81.6629409790039 88.57898712158203,81.6629409790039 88.19351196289062,81.61725997924805 88.19351196289062,81.61725997924805 87.80326843261719,81.53953552246094 87.80326843261719,81.53953552246094 87.457275390625,81.50033950805664 87.457275390625,81.50033950805664 87.2039794921875,81.5704345703125 87.2039794921875,81.5704345703125 88.58604431152344,82.57436752319336 88.58604431152344,82.57436752319336 90.01007080078125,83.73832702636719 90.01007080078125,83.73832702636719 91.46060943603516,84.9431037902832 91.46060943603516,84.9431037902832 92.92240142822266,86.06910705566406 92.92240142822266,86.06910705566406 94.38018798828125,86.99703216552734 94.38018798828125,86.99703216552734 95.819091796875,87.60738372802734 95.819091796875,87.60738372802734 97.22328186035156,87.78076171875 97.22328186035156,87.78076171875 98.577880859375,87.39776611328125 98.577880859375,87.39776611328125 98.29025268554688,88.89532089233398 98.29025268554688,88.89532089233398 98.236083984375,89.78500366210938 98.236083984375,89.78500366210938 98.36540222167969,90.18268585205078 98.36540222167969,90.18268585205078 98.62747192382812,90.20442962646484 98.62747192382812,90.20442962646484 98.97232055664062,89.96639251708984 98.97232055664062,89.96639251708984 99.34959411621094,89.58454132080078 99.34959411621094,89.58454132080078 99.70893859863281,89.17484283447266 99.70893859863281,89.17484283447266 100.0,88.85345458984375 100.0,88.85345458984375 99.19509887695312,90.66162109375 99.19509887695312,90.66162109375 98.284912109375,91.3919448852539 98.284912109375,91.3919448852539 97.29690551757812,91.29905700683594 97.29690551757812,91.29905700683594 96.25988006591797,90.63758850097656 96.25988006591797,90.63758850097656 95.20149230957031,89.66217041015625 95.20149230957031,89.66217041015625 94.14997100830078,88.62724304199219 94.14997100830078,88.62724304199219 93.13335418701172,87.78762817382812 93.13335418701172,87.78762817382812 92.17987060546875,87.39776611328125 92.17987060546875,87.39776611328125 92.21000671386719,87.94078826904297 92.21000671386719,87.94078826904297 92.2677993774414,88.31291198730469 92.2677993774414,88.31291198730469 92.34809875488281,88.54808807373047 92.34809875488281,88.54808807373047 92.44499206542969,88.6800765991211 92.44499206542969,88.6800765991211 92.55332946777344,88.74273300170898 92.55332946777344,88.74273300170898 92.66738891601562,88.76991271972656 92.66738891601562,88.76991271972656 92.78182983398438,88.79556655883789 92.78182983398438,88.79556655883789 92.89093017578125,88.85345458984375 92.89093017578125,88.85345458984375 90.91796875,89.05086517333984 90.91796875,89.05086517333984 89.02530670166016,88.59844207763672 89.02530670166016,88.59844207763672 87.18814849853516,87.71514892578125 87.18814849853516,87.71514892578125 85.38169860839844,86.61918640136719 85.38169860839844,86.61918640136719 83.58078002929688,85.5295181274414 83.58078002929688,85.5295181274414 81.76040649414062,84.66453552246094 81.76040649414062,84.66453552246094 79.89578247070312,84.24291610717773 79.89578247070312,84.24291610717773 77.96173095703125,84.48333740234375 77.96173095703125,84.48333740234375 78.48625183105469,87.63160705566406 78.48625183105469,87.63160705566406 79.23393249511719,89.40887451171875 79.23393249511719,89.40887451171875 80.14488220214844,90.18087387084961 80.14488220214844,90.18087387084961 81.16035461425781,90.31352996826172 81.16035461425781,90.31352996826172 82.22007751464844,90.17257690429688 82.22007751464844,90.17257690429688 83.26492309570312,90.12393951416016 83.26492309570312,90.12393951416016 84.23480987548828,90.53325653076172 84.23480987548828,90.53325653076172 85.07080078125,91.766357421875 85.07080078125,91.766357421875 86.28425598144531,91.80755615234375 86.28425598144531,91.80755615234375 86.93523406982422,92.03948974609375 86.93523406982422,92.03948974609375 87.10556030273438,92.38729476928711 87.10556030273438,92.38729476928711 86.87858581542969,92.77534484863281 86.87858581542969,92.77534484863281 86.33670806884766,93.1283950805664 86.33670806884766,93.1283950805664 85.56251525878906,93.37100982666016 85.56251525878906,93.37100982666016 84.63897705078125,93.42784881591797 84.63897705078125,93.42784881591797 83.648681640625,93.22357177734375 83.648681640625,93.22357177734375 83.69598388671875,93.8436508178711 83.69598388671875,93.8436508178711 83.77799987792969,94.25029754638672 83.77799987792969,94.25029754638672 83.88748168945312,94.48776245117188 83.88748168945312,94.48776245117188 84.01737213134766,94.59991455078125 84.01737213134766,94.59991455078125 84.16061401367188,94.63119506835938 84.16061401367188,94.63119506835938 84.30976867675781,94.62566375732422 84.30976867675781,94.62566375732422 84.45796966552734,94.62738037109375 84.45796966552734,94.62738037109375 84.5977783203125,94.6807861328125 84.5977783203125,94.6807861328125 84.51728820800781,95.64266204833984 84.51728820800781,95.64266204833984 84.36431884765625,96.16031646728516 84.36431884765625,96.16031646728516 84.15718078613281,96.34418487548828 84.15718078613281,96.34418487548828 83.91361236572266,96.3052749633789 83.91361236572266,96.3052749633789 83.65192413330078,96.15421295166016 83.65192413330078,96.15421295166016 83.39004516601562,96.00191116333008 83.39004516601562,96.00191116333008 83.14590454101562,95.95909118652344 83.14590454101562,95.95909118652344 82.9376220703125,96.136474609375 82.9376220703125,96.136474609375 83.10470581054688,97.11532592773438 83.10470581054688,97.11532592773438 83.3456039428711,97.6369857788086 83.3456039428711,97.6369857788086 83.642578125,97.81627655029297 83.642578125,97.81627655029297 83.9761734008789,97.76802062988281 83.9761734008789,97.76802062988281 84.3282699584961,97.60684967041016 84.3282699584961,97.60684967041016 84.68017578125,97.44758605957031 84.68017578125,97.44758605957031 85.01319885253906,97.40486145019531 85.01319885253906,97.40486145019531 85.308837890625,97.59368896484375 85.308837890625,97.59368896484375 86.492919921875,97.59368896484375 86.492919921875,97.59368896484375 86.67755126953125,97.6165771484375 86.67755126953125,97.6165771484375 86.79676055908203,97.78919219970703 86.79676055908203,97.78919219970703 86.85646057128906,98.05917739868164 86.85646057128906,98.05917739868164 86.86370849609375,98.37474822998047 86.86370849609375,98.37474822998047 86.82441711425781,98.68364334106445 86.82441711425781,98.68364334106445 86.74545288085938,98.93369674682617 86.74545288085938,98.93369674682617 86.63253784179688,99.07302856445312 86.63253784179688,99.07302856445312 86.492919921875,99.04937744140625 86.492919921875,99.04937744140625 84.6588134765625,99.99275207519531 84.6588134765625,99.99275207519531 82.9061508178711,99.4903564453125 82.9061508178711,99.4903564453125 81.22730255126953,98.05231094360352 81.22730255126953,98.05231094360352 79.61540222167969,96.18873596191406 79.61540222167969,96.18873596191406 78.06339263916016,94.4096565246582 78.06339263916016,94.4096565246582 76.56440734863281,93.22538375854492 76.56440734863281,93.22538375854492 75.11119842529297,93.14565658569336 75.11119842529297,93.14565658569336 73.6968994140625,94.6807861328125 73.6968994140625,94.6807861328125 72.61505126953125,92.4281120300293 72.61505126953125,92.4281120300293 71.50230407714844,91.64037704467773 71.50230407714844,91.64037704467773 70.36781311035156,91.77684783935547 70.36781311035156,91.77684783935547 69.22054290771484,92.29698181152344 69.22054290771484,92.29698181152344 68.07022094726562,92.65985488891602 68.07022094726562,92.65985488891602 66.9260025024414,92.32473373413086 66.9260025024414,92.32473373413086 65.79704284667969,90.75098037719727 65.79704284667969,90.75098037719727 64.69268798828125,87.39776611328125 64.69268798828125,87.39776611328125 64.67018127441406,88.75885009765625 64.67018127441406,88.75885009765625 64.59007263183594,89.43243026733398 64.59007263183594,89.43243026733398 64.46342468261719,89.64567184448242 64.46342468261719,89.64567184448242 64.30072784423828,89.6261215209961 64.30072784423828,89.6261215209961 64.11304473876953,89.60103988647461 64.11304473876953,89.60103988647461 63.91105651855469,89.79778289794922 63.91105651855469,89.79778289794922 63.7054443359375,90.44380187988281 63.7054443359375,90.44380187988281 63.507080078125,91.766357421875 63.507080078125,91.766357421875 60.81428527832031,89.08462524414062 60.81428527832031,89.08462524414062 57.871437072753906,87.74280548095703 57.871437072753906,87.74280548095703 54.773521423339844,87.40215301513672 54.773521423339844,87.40215301513672 51.61552429199219,87.72354125976562 51.61552429199219,87.72354125976562 48.49262237548828,88.36832046508789 48.49262237548828,88.36832046508789 45.49980163574219,88.9974594116211 45.49980163574219,88.9974594116211 42.73204803466797,89.2721176147461 42.73204803466797,89.2721176147461 40.28472900390625,88.85345458984375 40.28472900390625,88.85345458984375 40.05088806152344,89.01605606079102 40.05088806152344,89.01605606079102 39.90287780761719,88.65089416503906 39.90287780761719,88.65089416503906 39.81456756591797,87.92057037353516 39.81456756591797,87.92057037353516 39.758872985839844,86.98768615722656 39.758872985839844,86.98768615722656 39.70985412597656,86.01493835449219 39.70985412597656,86.01493835449219 39.64080810546875,85.16483306884766 39.64080810546875,85.16483306884766 39.525413513183594,84.60006713867188 39.525413513183594,84.60006713867188 39.337158203125,84.48333740234375 39.337158203125,84.48333740234375 39.2486572265625,84.66835021972656 39.2486572265625,84.66835021972656 39.18800354003906,85.02426147460938 39.18800354003906,85.02426147460938 39.14985656738281,85.51750183105469 39.14985656738281,85.51750183105469 39.12830352783203,86.11392974853516 39.12830352783203,86.11392974853516 39.11781311035156,86.77959442138672 39.11781311035156,86.77959442138672 39.113426208496094,87.4807357788086 39.113426208496094,87.4807357788086 39.109039306640625,88.18330764770508 39.109039306640625,88.18330764770508 39.09912109375,88.85345458984375 39.09912109375,88.85345458984375 37.94746398925781,88.80395889282227 37.94746398925781,88.80395889282227 36.685752868652344,89.14203643798828 36.685752868652344,89.14203643798828 35.34259796142578,89.65492248535156 35.34259796142578,89.65492248535156 33.94794464111328,90.13004302978516 33.94794464111328,90.13004302978516 32.53059387207031,90.35453796386719 32.53059387207031,90.35453796386719 31.12010955810547,90.1158332824707 31.12010955810547,90.1158332824707 29.7454833984375,89.20116424560547 29.7454833984375,89.20116424560547 28.436279296875,87.39776611328125 28.436279296875,87.39776611328125 27.776527404785156,88.6800765991211 27.776527404785156,88.6800765991211 26.94244384765625,89.58625793457031 26.94244384765625,89.58625793457031 25.983619689941406,90.17314910888672 25.983619689941406,90.17314910888672 24.951171875,90.49758911132812 24.951171875,90.49758911132812 23.895263671875,90.61660766601562 23.895263671875,90.61660766601562 22.866249084472656,90.58723449707031 22.866249084472656,90.58723449707031 21.9146728515625,90.46630859375 21.9146728515625,90.46630859375 21.0906982421875,90.3106689453125 21.0906982421875,90.3106689453125 20.940017700195312,91.02287292480469 20.940017700195312,91.02287292480469 20.860671997070312,92.17453002929688 20.860671997070312,92.17453002929688 20.821762084960938,93.57433319091797 20.821762084960938,93.57433319091797 20.792007446289062,95.0307846069336 20.792007446289062,95.0307846069336 20.740509033203125,96.35238647460938 20.740509033203125,96.35238647460938 20.63579559326172,97.34764099121094 20.63579559326172,97.34764099121094 20.447158813476562,97.82524108886719 20.447158813476562,97.82524108886719 20.14312744140625,97.59368896484375 20.14312744140625,97.59368896484375 20.222854614257812,96.80976867675781 20.222854614257812,96.80976867675781 20.2850341796875,95.91751098632812 20.2850341796875,95.91751098632812 20.33519744873047,94.95296478271484 20.33519744873047,94.95296478271484 20.379638671875,93.95217895507812 20.379638671875,93.95217895507812 20.42407989501953,92.9513931274414 20.42407989501953,92.9513931274414 20.47443389892578,91.98684692382812 20.47443389892578,91.98684692382812 20.53661346435547,91.0944938659668 20.53661346435547,91.0944938659668 20.61614990234375,90.3106689453125 20.61614990234375,90.3106689453125 18.707656860351562,89.84336853027344 18.707656860351562,89.84336853027344 16.796493530273438,89.3899917602539 16.796493530273438,89.3899917602539 14.90325927734375,88.82827758789062 14.90325927734375,88.82827758789062 13.047599792480469,88.03577423095703 13.047599792480469,88.03577423095703 11.249351501464844,86.89031600952148 11.249351501464844,86.89031600952148 9.528350830078125,85.26954650878906 9.528350830078125,85.26954650878906 7.904529571533203,83.05130004882812 7.904529571533203,83.05130004882812 6.39801025390625,80.11322021484375 6.39801025390625,80.11322021484375 6.504154205322266,79.16030883789062 6.504154205322266,79.16030883789062 6.648349761962891,78.87449264526367 6.648349761962891,78.87449264526367 6.825828552246094,79.05817031860352 6.825828552246094,79.05817031860352 7.032203674316406,79.51412200927734 7.032203674316406,79.51412200927734 7.262992858886719,80.04493713378906 7.262992858886719,80.04493713378906 7.513618469238281,80.45330047607422 7.513618469238281,80.45330047607422 7.779693603515625,80.54180145263672 7.779693603515625,80.54180145263672 8.056640625,80.11322021484375 8.056640625,80.11322021484375 7.313346862792969,78.5726547241211 7.313346862792969,78.5726547241211 6.5433502197265625,77.20832824707031 6.5433502197265625,77.20832824707031 5.785560607910156,75.89216232299805 5.785560607910156,75.89216232299805 5.07965087890625,74.49588775634766 5.07965087890625,74.49588775634766 4.4643402099609375,72.89142608642578 4.4643402099609375,72.89142608642578 3.978729248046875,70.95060348510742 3.978729248046875,70.95060348510742 3.6623001098632812,68.54524612426758 3.6623001098632812,68.54524612426758 3.55377197265625,65.54718017578125 3.55377197265625,65.54718017578125 3.2075881958007812,65.60173034667969 3.2075881958007812,65.60173034667969 2.8924942016601562,65.84959030151367 2.8924942016601562,65.84959030151367 2.5960922241210938,66.21208190917969 2.5960922241210938,66.21208190917969 2.30560302734375,66.61109924316406 2.30560302734375,66.61109924316406 2.0082473754882812,66.96815490722656 2.0082473754882812,66.96815490722656 1.6912460327148438,67.20495223999023 1.6912460327148438,67.20495223999023 1.3419151306152344,67.24319458007812 1.3419151306152344,67.24319458007812 0.94757080078125,67.00439453125 0.94757080078125,67.00439453125 0.8601188659667969,65.90213775634766 0.8601188659667969,65.90213775634766 0.7742881774902344,64.7918701171875 0.7742881774902344,64.7918701171875 0.6844520568847656,63.704872131347656 0.6844520568847656,63.704872131347656 0.5859375,62.67280578613281 0.5859375,62.67280578613281 0.4734039306640625,61.726951599121094 0.4734039306640625,61.726951599121094 0.34160614013671875,60.898780822753906 0.34160614013671875,60.898780822753906 0.18558502197265625,60.2198600769043 0.18558502197265625,60.2198600769043 0.0,59.72137451171875 0.0,59.72137451171875 0.3201484680175781,58.2301139831543 0.3201484680175781,58.2301139831543 0.5855560302734375,56.40230178833008 0.5855560302734375,56.40230178833008 0.7991790771484375,54.255104064941406 0.7991790771484375,54.255104064941406 0.9634017944335938,51.80549621582031 0.9634017944335938,51.80549621582031 1.0813713073730469,49.07083511352539 1.0813713073730469,49.07083511352539 1.1555671691894531,46.06828689575195 1.1555671691894531,46.06828689575195 1.1887550354003906,42.81492233276367 1.1887550354003906,42.81492233276367 1.18408203125,39.3280029296875 1.18408203125,39.3280029296875 4.016971588134766,35.710811614990234 4.016971588134766,35.710811614990234 6.741142272949219,31.082916259765625 6.741142272949219,31.082916259765625 9.399795532226562,25.764083862304688 9.399795532226562,25.764083862304688 12.0361328125,20.07427215576172 12.0361328125,20.07427215576172 14.693355560302734,14.333057403564453 14.693355560302734,14.333057403564453 17.41466522216797,8.860492706298828 17.41466522216797,8.860492706298828 20.243263244628906,3.976154327392578 20.243263244628906,3.976154327392578 23.22235107421875,0.0 23.22235107421875,0.0 23.12469482421875,1.5777587890625 23.12469482421875,1.5777587890625 23.186492919921875,2.9371261596679688 23.186492919921875,2.9371261596679688 23.379898071289062,4.0660858154296875 23.379898071289062,4.0660858154296875 23.67725372314453,4.952239990234375 23.67725372314453,4.952239990234375 24.051284790039062,5.583477020263672 24.051284790039062,5.583477020263672 24.473953247070312,5.947685241699219 24.473953247070312,5.947685241699219 24.917984008789062,6.032466888427734 24.917984008789062,6.032466888427734 25.35552978515625,5.8258056640625 25.35552978515625,5.8258056640625 25.249099731445312,7.174491882324219 25.249099731445312,7.174491882324219 25.07152557373047,8.086013793945312 25.07152557373047,8.086013793945312 24.848175048828125,8.716201782226562 24.848175048828125,8.716201782226562 24.604415893554688,9.221267700195312 24.604415893554688,9.221267700195312 24.365615844726562,9.757041931152344 24.365615844726562,9.757041931152344 24.157333374023438,10.479545593261719 24.157333374023438,10.479545593261719 24.004745483398438,11.5447998046875 24.004745483398438,11.5447998046875 23.93341064453125,13.10882568359375 23.93341064453125,13.10882568359375 24.320030212402344,13.118553161621094 24.320030212402344,13.118553161621094 24.662017822265625,12.852764129638672 24.662017822265625,12.852764129638672 24.9725341796875,12.395858764648438 24.9725341796875,12.395858764648438 25.265884399414062,11.832046508789062 25.265884399414062,11.832046508789062 25.55561065673828,11.24582290649414 25.55561065673828,11.24582290649414 25.855636596679688,10.721492767333984 25.855636596679688,10.721492767333984 26.17950439453125,10.343360900878906 26.17950439453125,10.343360900878906 26.5411376953125,10.1959228515625 26.5411376953125,10.1959228515625 26.497650146484375,10.839080810546875 26.497650146484375,10.839080810546875 26.4434814453125,11.418628692626953 26.4434814453125,11.418628692626953 26.37786865234375,11.926460266113281 26.37786865234375,11.926460266113281 26.299285888671875,12.354469299316406 26.299285888671875,12.354469299316406 26.206398010253906,12.694740295410156 26.206398010253906,12.694740295410156 26.097869873046875,12.939262390136719 26.097869873046875,12.939262390136719 25.972366333007812,13.080024719238281 25.972366333007812,13.080024719238281 25.82855224609375,13.10882568359375 25.82855224609375,13.10882568359375 26.708602905273438,14.570426940917969 26.708602905273438,14.570426940917969 27.740859985351562,14.620018005371094 27.740859985351562,14.620018005371094 28.905677795410156,13.650894165039062 28.905677795410156,13.650894165039062 30.183029174804688,12.056159973144531 30.183029174804688,12.056159973144531 31.552886962890625,10.228919982910156 31.552886962890625,10.228919982910156 32.99541473388672,8.562183380126953 32.99541473388672,8.562183380126953 34.49058532714844,7.449150085449219 34.49058532714844,7.449150085449219 36.01837158203125,7.28302001953125 36.01837158203125,7.28302001953125 35.898590087890625,8.001136779785156 35.898590087890625,8.001136779785156 35.75859069824219,8.597087860107422 35.75859069824219,8.597087860107422 35.60066223144531,9.081363677978516 35.60066223144531,9.081363677978516 35.42594909667969,9.464454650878906 35.42594909667969,9.464454650878906 35.23674011230469,9.756946563720703 35.23674011230469,9.756946563720703 35.0341796875,9.969329833984375 35.0341796875,9.969329833984375 34.82093811035156,10.112190246582031 34.82093811035156,10.112190246582031 34.5977783203125,10.1959228515625 34.5977783203125,10.1959228515625 35.198974609375,11.232471466064453 35.198974609375,11.232471466064453 35.89668273925781,11.67745590209961 35.89668273925781,11.67745590209961 36.64970397949219,11.782646179199219 36.64970397949219,11.782646179199219 37.416839599609375,11.799812316894531 37.416839599609375,11.799812316894531 38.15746307373047,11.980724334716797 38.15746307373047,11.980724334716797 38.83056640625,12.577056884765625 38.83056640625,12.577056884765625 39.3951416015625,13.840675354003906 39.3951416015625,13.840675354003906 39.8101806640625,16.02325439453125 39.8101806640625,16.02325439453125 39.141845703125,17.641353607177734 39.141845703125,17.641353607177734 38.40446472167969,18.31493377685547 38.40446472167969,18.31493377685547 37.613677978515625,18.363189697265625 37.613677978515625,18.363189697265625 36.785125732421875,18.105125427246094 36.785125732421875,18.105125427246094 35.93482971191406,17.859840393066406 35.93482971191406,17.859840393066406 35.07881164550781,17.946529388427734 35.07881164550781,17.946529388427734 34.23271179199219,18.684101104736328 34.23271179199219,18.684101104736328 33.41217041015625,20.391845703125 33.41217041015625,20.391845703125 33.516693115234375,22.372913360595703 33.516693115234375,22.372913360595703 33.76483917236328,23.448944091796875 33.76483917236328,23.448944091796875 34.12513732910156,23.815345764160156 34.12513732910156,23.815345764160156 34.56573486328125,23.66790771484375 34.56573486328125,23.66790771484375 35.054779052734375,23.201942443847656 35.054779052734375,23.201942443847656 35.56022644042969,22.613143920898438 35.56022644042969,22.613143920898438 36.05003356933594,22.097015380859375 36.05003356933594,22.097015380859375 36.492919921875,21.84906005859375 36.492919921875,21.84906005859375 36.956787109375,21.862220764160156 36.956787109375,21.862220764160156 37.36000061035156,21.992874145507812 37.36000061035156,21.992874145507812 37.67127990722656,22.206497192382812 37.67127990722656,22.206497192382812 37.85820007324219,22.46837615966797 37.85820007324219,22.46837615966797 37.88948059082031,22.743988037109375 37.88948059082031,22.743988037109375 37.73307800292969,22.998523712158203 37.73307800292969,22.998523712158203 37.357521057128906,23.197555541992188 37.357521057128906,23.197555541992188 36.73095703125,23.3062744140625 36.73095703125,23.3062744140625 35.61897277832031,25.360679626464844 35.61897277832031,25.360679626464844 34.48829650878906,27.59876251220703 34.48829650878906,27.59876251220703 33.34636688232422,29.895305633544922 33.34636688232422,29.895305633544922 32.20062255859375,32.125091552734375 32.20062255859375,32.125091552734375 31.058311462402344,34.16290283203125 31.058311462402344,34.16290283203125 29.926681518554688,35.883426666259766 29.926681518554688,35.883426666259766 28.81317138671875,37.16163635253906 28.81317138671875,37.16163635253906 27.7252197265625,37.872314453125 27.7252197265625,37.872314453125 27.94036865234375,39.46113586425781 27.94036865234375,39.46113586425781 28.27434539794922,40.322113037109375 28.27434539794922,40.322113037109375 28.687286376953125,40.69633483886719 28.687286376953125,40.69633483886719 29.140472412109375,40.82469940185547 29.140472412109375,40.82469940185547 29.59442138671875,40.94810485839844 29.59442138671875,40.94810485839844 30.010032653808594,41.30744934082031 30.010032653808594,41.30744934082031 30.34820556640625,42.143821716308594 30.34820556640625,42.143821716308594 30.5694580078125,43.6981201171875 30.5694580078125,43.6981201171875 30.486297607421875,44.6446418762207 30.486297607421875,44.6446418762207 30.327987670898438,45.12939453125 30.327987670898438,45.12939453125 30.118560791015625,45.29991149902344 30.118560791015625,45.29991149902344 29.882431030273438,45.303916931152344 29.882431030273438,45.303916931152344 29.64324951171875,45.28923034667969 29.64324951171875,45.28923034667969 29.42485809326172,45.40386199951172 29.42485809326172,45.40386199951172 29.251670837402344,45.7951545715332 29.251670837402344,45.7951545715332 29.1473388671875,46.61102294921875 29.1473388671875,46.61102294921875 33.606719970703125,50.423336029052734 33.606719970703125,50.423336029052734 38.065147399902344,53.06243896484375 38.065147399902344,53.06243896484375 42.516326904296875,54.88252639770508 42.516326904296875,54.88252639770508 46.954345703125,56.23760223388672 46.954345703125,56.23760223388672 51.373291015625,57.481956481933594 51.373291015625,57.481956481933594 55.766868591308594,58.96949768066406 55.766868591308594,58.96949768066406 60.129356384277344,61.05470657348633 60.129356384277344,61.05470657348633 64.45465087890625,64.09149169921875 64.45465087890625,64.09149169921875 67.58480072021484,66.7306900024414 67.58480072021484,66.7306900024414 70.70655822753906,69.32029724121094 70.70655822753906,69.32029724121094 73.81725311279297,71.79412841796875 73.81725311279297,71.79412841796875 76.91364288330078,74.08618927001953 76.91364288330078,74.08618927001953 79.99286651611328,76.13029479980469 79.99286651611328,76.13029479980469 83.05225372314453,77.86026000976562 83.05225372314453,77.86026000976562 86.08856201171875,79.20989990234375 86.08856201171875,79.20989990234375" stroke="white" stroke-width="0.1" /></svg>