<?xml version="1.0" encoding="utf-8" ?>
<svg baseProfile="full" height="99.99608993530273" version="1.1" width="100.0" xmlns="http://www.w3.org/2000/svg" xmlns:ev="http://www.w3.org/2001/xml-events" xmlns:xlink="http://www.w3.org/1999/xlink"><defs><clipPath /></defs><polygon points="45.6939697265625,27.988433837890625 45.6939697265625,27.988433837890625 45.83396911621094,28.253746032714844 45.83396911621094,28.253746032714844 45.86029052734375,28.619670867919922 45.86029052734375,28.619670867919922 45.801544189453125,29.06036376953125 45.801544189453125,29.06036376953125 45.685577392578125,29.5501708984375 45.685577392578125,29.5501708984375 45.540809631347656,30.063438415527344 45.540809631347656,30.063438415527344 45.39527893066406,30.574512481689453 45.39527893066406,30.574512481689453 45.27721405029297,31.05764389038086 45.27721405029297,31.05764389038086 45.21484375,31.487274169921875 45.21484375,31.487274169921875 47.339439392089844,27.1148681640625 47.339439392089844,27.1148681640625 49.488067626953125,22.35889434814453 49.488067626953125,22.35889434814453 51.708221435546875,17.473983764648438 51.708221435546875,17.473983764648438 54.047584533691406,12.71352767944336 54.047584533691406,12.71352767944336 56.55384063720703,8.331871032714844 56.55384063720703,8.331871032714844 59.27467346191406,4.583168029785156 59.27467346191406,4.583168029785156 62.25738525390625,1.7210960388183594 62.25738525390625,1.7210960388183594 65.55023193359375,0.0 65.55023193359375,0.0 65.08941650390625,0.665283203125 65.08941650390625,0.665283203125 64.57939147949219,1.1852264404296875 64.57939147949219,1.1852264404296875 64.03770446777344,1.6122817993164062 64.03770446777344,1.6122817993164062 63.482093811035156,1.9991874694824219 63.482093811035156,1.9991874694824219 62.931060791015625,2.398681640625 62.931060791015625,2.398681640625 62.40215301513672,2.8634071350097656 62.40215301513672,2.8634071350097656 61.91387176513672,3.4460067749023438 61.91387176513672,3.4460067749023438 61.4837646484375,4.19921875 61.4837646484375,4.19921875 62.13722229003906,4.443931579589844 62.13722229003906,4.443931579589844 62.83550262451172,4.368019104003906 62.83550262451172,4.368019104003906 63.57402801513672,4.071617126464844 63.57402801513672,4.071617126464844 64.34803009033203,3.655242919921875 64.34803009033203,3.655242919921875 65.15274047851562,3.2192230224609375 65.15274047851562,3.2192230224609375 65.98320007324219,2.86407470703125 65.98320007324219,2.86407470703125 66.83502197265625,2.69012451171875 66.83502197265625,2.69012451171875 67.7032470703125,2.797698974609375 67.7032470703125,2.797698974609375 67.65422821044922,3.6039352416992188 67.65422821044922,3.6039352416992188 67.97370910644531,4.139804840087891 67.97370910644531,4.139804840087891 68.56975555419922,4.47540283203125 68.56975555419922,4.47540283203125 69.35081481933594,4.680728912353516 69.35081481933594,4.680728912353516 70.22476196289062,4.825592041015625 70.22476196289062,4.825592041015625 71.10042572021484,4.980278015136719 71.10042572021484,4.980278015136719 71.88549041748047,5.214500427246094 71.88549041748047,5.214500427246094 72.4884033203125,5.59844970703125 72.4884033203125,5.59844970703125 72.23529815673828,5.972862243652344 72.23529815673828,5.972862243652344 71.82559967041016,6.378841400146484 71.82559967041016,6.378841400146484 71.32644653320312,6.7470550537109375 71.32644653320312,6.7470550537109375 70.80554962158203,7.00836181640625 70.80554962158203,7.00836181640625 70.33061981201172,7.093334197998047 70.33061981201172,7.093334197998047 69.96917724609375,6.932926177978516 69.96917724609375,6.932926177978516 69.78836059570312,6.457710266113281 69.78836059570312,6.457710266113281 69.85626220703125,5.59844970703125 69.85626220703125,5.59844970703125 69.66686248779297,5.5694580078125 69.66686248779297,5.5694580078125 69.5211410522461,5.667209625244141 69.5211410522461,5.667209625244141 69.40250396728516,5.845069885253906 69.40250396728516,5.845069885253906 69.2953109741211,6.05621337890625 69.2953109741211,6.05621337890625 69.18354034423828,6.253814697265625 69.18354034423828,6.253814697265625 69.05097961425781,6.390953063964844 69.05097961425781,6.390953063964844 68.88179779052734,6.420707702636719 68.88179779052734,6.420707702636719 68.65997314453125,6.296539306640625 68.65997314453125,6.296539306640625 68.72806549072266,6.622600555419922 68.72806549072266,6.622600555419922 68.8131332397461,6.898212432861328 68.8131332397461,6.898212432861328 68.91422271728516,7.127094268798828 68.91422271728516,7.127094268798828 69.03018951416016,7.312870025634766 69.03018951416016,7.312870025634766 69.15969848632812,7.459163665771484 69.15969848632812,7.459163665771484 69.30122375488281,7.569694519042969 69.30122375488281,7.569694519042969 69.4540023803711,7.6480865478515625 69.4540023803711,7.6480865478515625 69.61669921875,7.69805908203125 69.61669921875,7.69805908203125 69.56920623779297,7.995510101318359 69.56920623779297,7.995510101318359 69.48680877685547,8.190631866455078 69.48680877685547,8.190631866455078 69.37637329101562,8.304500579833984 69.37637329101562,8.304500579833984 69.2453384399414,8.358383178710938 69.2453384399414,8.358383178710938 69.1009521484375,8.373355865478516 69.1009521484375,8.373355865478516 68.9504623413086,8.370590209960938 68.9504623413086,8.370590209960938 68.80111694335938,8.37106704711914 68.80111694335938,8.37106704711914 68.65997314453125,8.396148681640625 68.65997314453125,8.396148681640625 69.45209503173828,9.49087142944336 69.45209503173828,9.49087142944336 70.47309875488281,9.91506576538086 70.47309875488281,9.91506576538086 71.636962890625,9.922599792480469 71.636962890625,9.922599792480469 72.85633087158203,9.76715087890625 72.85633087158203,9.76715087890625 74.04460906982422,9.702682495117188 74.04460906982422,9.702682495117188 75.11520385742188,9.983158111572266 75.11520385742188,9.983158111572266 75.98075866699219,10.862255096435547 75.98075866699219,10.862255096435547 76.55487060546875,12.593841552734375 76.55487060546875,12.593841552734375 75.84114074707031,13.207244873046875 75.84114074707031,13.207244873046875 75.05168914794922,13.4368896484375 75.05168914794922,13.4368896484375 74.2156982421875,13.399505615234375 74.2156982421875,13.399505615234375 73.36158752441406,13.211822509765625 73.36158752441406,13.211822509765625 72.5179672241211,12.990665435791016 72.5179672241211,12.990665435791016 71.7132568359375,12.852859497070312 71.7132568359375,12.852859497070312 70.97606658935547,12.91513442993164 70.97606658935547,12.91513442993164 70.33538818359375,13.294219970703125 70.33538818359375,13.294219970703125 70.7672119140625,13.517951965332031 70.7672119140625,13.517951965332031 71.1233139038086,13.962078094482422 71.1233139038086,13.962078094482422 71.43173217773438,14.546871185302734 71.43173217773438,14.546871185302734 71.71897888183594,15.192699432373047 71.71897888183594,15.192699432373047 72.01271057128906,15.819931030273438 72.01271057128906,15.819931030273438 72.34039306640625,16.348838806152344 72.34039306640625,16.348838806152344 72.72891998291016,16.699790954589844 72.72891998291016,16.699790954589844 73.20556640625,16.793060302734375 73.20556640625,16.793060302734375 72.97096252441406,17.37384796142578 72.97096252441406,17.37384796142578 72.71366119384766,17.578887939453125 72.71366119384766,17.578887939453125 72.43595123291016,17.513465881347656 72.43595123291016,17.513465881347656 72.13973999023438,17.28200912475586 72.13973999023438,17.28200912475586 71.82731628417969,16.989421844482422 71.82731628417969,16.989421844482422 71.5005874633789,16.74060821533203 71.5005874633789,16.74060821533203 71.16165161132812,16.640186309814453 71.16165161132812,16.640186309814453 70.81298828125,16.793060302734375 70.81298828125,16.793060302734375 71.17424011230469,17.384719848632812 71.17424011230469,17.384719848632812 71.5108871459961,18.008136749267578 71.5108871459961,18.008136749267578 71.8435287475586,18.637847900390625 71.8435287475586,18.637847900390625 72.1923828125,19.248390197753906 72.1923828125,19.248390197753906 72.57804870605469,19.814395904541016 72.57804870605469,19.814395904541016 73.02131652832031,20.310401916503906 73.02131652832031,20.310401916503906 73.54259490966797,20.71094512939453 73.54259490966797,20.71094512939453 74.16229248046875,20.990753173828125 74.16229248046875,20.990753173828125 73.9736557006836,21.436309814453125 73.9736557006836,21.436309814453125 73.74114990234375,21.56839370727539 73.74114990234375,21.56839370727539 73.47126007080078,21.47998809814453 73.47126007080078,21.47998809814453 73.16970825195312,21.264266967773438 73.16970825195312,21.264266967773438 72.84278869628906,21.014404296875 72.84278869628906,21.014404296875 72.49622344970703,20.823383331298828 72.49622344970703,20.823383331298828 72.13668823242188,20.784473419189453 72.13668823242188,20.784473419189453 71.76971435546875,20.990753173828125 71.76971435546875,20.990753173828125 71.67339324951172,21.11492156982422 71.67339324951172,21.11492156982422 71.62971496582031,21.290111541748047 71.62971496582031,21.290111541748047 71.63028717041016,21.497821807861328 71.63028717041016,21.497821807861328 71.66690826416016,21.720027923583984 71.66690826416016,21.720027923583984 71.73137664794922,21.938514709472656 71.73137664794922,21.938514709472656 71.81549072265625,22.134971618652344 71.81549072265625,22.134971618652344 71.91085815429688,22.291278839111328 71.91085815429688,22.291278839111328 72.00927734375,22.38922119140625 72.00927734375,22.38922119140625 71.07372283935547,22.807788848876953 71.07372283935547,22.807788848876953 70.12062072753906,23.016834259033203 70.12062072753906,23.016834259033203 69.1598892211914,23.136329650878906 69.1598892211914,23.136329650878906 68.20182800292969,23.286151885986328 68.20182800292969,23.286151885986328 67.25616455078125,23.586463928222656 67.25616455078125,23.586463928222656 66.3330078125,24.156951904296875 66.3330078125,24.156951904296875 65.44189453125,25.117969512939453 65.44189453125,25.117969512939453 64.593505859375,26.589202880859375 64.593505859375,26.589202880859375 64.79263305664062,26.809310913085938 64.79263305664062,26.809310913085938 65.0533676147461,26.76372528076172 65.0533676147461,26.76372528076172 65.36369323730469,26.52912139892578 65.36369323730469,26.52912139892578 65.71102142333984,26.181697845458984 65.71102142333984,26.181697845458984 66.08314514160156,25.797653198242188 66.08314514160156,25.797653198242188 66.46785736083984,25.453567504882812 66.46785736083984,25.453567504882812 66.8527603149414,25.225543975830078 66.8527603149414,25.225543975830078 67.22564697265625,25.189971923828125 67.22564697265625,25.189971923828125 67.19017028808594,25.611114501953125 67.19017028808594,25.611114501953125 67.12837219238281,25.954723358154297 67.12837219238281,25.954723358154297 67.041015625,26.224231719970703 67.041015625,26.224231719970703 66.92962646484375,26.42345428466797 66.92962646484375,26.42345428466797 66.79534912109375,26.556015014648438 66.79534912109375,26.556015014648438 66.63932800292969,26.62525177001953 66.63932800292969,26.62525177001953 66.46308898925781,26.635169982910156 66.46308898925781,26.635169982910156 66.26739501953125,26.589202880859375 66.26739501953125,26.589202880859375 66.64085388183594,27.05821990966797 66.64085388183594,27.05821990966797 67.02823638916016,27.120494842529297 67.02823638916016,27.120494842529297 67.42916107177734,26.88741683959961 67.42916107177734,26.88741683959961 67.84305572509766,26.470375061035156 67.84305572509766,26.470375061035156 68.26934814453125,25.980758666992188 68.26934814453125,25.980758666992188 68.707275390625,25.529861450195312 68.707275390625,25.529861450195312 69.15664672851562,25.229167938232422 69.15664672851562,25.229167938232422 69.61669921875,25.189971923828125 69.61669921875,25.189971923828125 69.44465637207031,25.724220275878906 69.44465637207031,25.724220275878906 69.19975280761719,26.183223724365234 69.19975280761719,26.183223724365234 68.92166137695312,26.603317260742188 68.92166137695312,26.603317260742188 68.65005493164062,27.020645141601562 68.65005493164062,27.020645141601562 68.42460632324219,27.471351623535156 68.42460632324219,27.471351623535156 68.28460693359375,27.991962432861328 68.28460693359375,27.991962432861328 68.27011108398438,28.618335723876953 68.27011108398438,28.618335723876953 68.42041015625,29.38690185546875 68.42041015625,29.38690185546875 68.6471939086914,30.028152465820312 68.6471939086914,30.028152465820312 68.84956359863281,30.15918731689453 68.84956359863281,30.15918731689453 69.03743743896484,29.918670654296875 69.03743743896484,29.918670654296875 69.22035217285156,29.44498062133789 69.22035217285156,29.44498062133789 69.40803527832031,28.876686096191406 69.40803527832031,28.876686096191406 69.61002349853516,28.35216522216797 69.61002349853516,28.35216522216797 69.83604431152344,28.009891510009766 69.83604431152344,28.009891510009766 70.0958251953125,27.988433837890625 70.0958251953125,27.988433837890625 70.04776000976562,28.459644317626953 70.04776000976562,28.459644317626953 69.96383666992188,28.82671356201172 69.96383666992188,28.82671356201172 69.85645294189453,29.12435531616211 69.85645294189453,29.12435531616211 69.73724365234375,29.387283325195312 69.73724365234375,29.387283325195312 69.61784362792969,29.650306701660156 69.61784362792969,29.650306701660156 69.51045989990234,29.947948455810547 69.51045989990234,29.947948455810547 69.42672729492188,30.315017700195312 69.42672729492188,30.315017700195312 69.378662109375,30.7861328125 69.378662109375,30.7861328125 69.9789047241211,32.265281677246094 69.9789047241211,32.265281677246094 70.56045532226562,33.80012512207031 70.56045532226562,33.80012512207031 71.13227844238281,35.36376953125 71.13227844238281,35.36376953125 71.70352935791016,36.92970275878906 71.70352935791016,36.92970275878906 72.28317260742188,38.471126556396484 72.28317260742188,38.471126556396484 72.87979125976562,39.96143341064453 72.87979125976562,39.96143341064453 73.50330352783203,41.37392044067383 73.50330352783203,41.37392044067383 74.16229248046875,42.681884765625 74.16229248046875,42.681884765625 74.13101196289062,41.09764099121094 74.13101196289062,41.09764099121094 74.02191162109375,39.2664909362793 74.02191162109375,39.2664909362793 73.85711669921875,37.27579116821289 73.85711669921875,37.27579116821289 73.65856170654297,35.21299362182617 73.65856170654297,35.21299362182617 73.44818115234375,33.16545486450195 73.44818115234375,33.16545486450195 73.24790954589844,31.220626831054688 73.24790954589844,31.220626831054688 73.07987213134766,29.465770721435547 73.07987213134766,29.465770721435547 72.96600341796875,27.988433837890625 72.96600341796875,27.988433837890625 73.24256896972656,28.23629379272461 73.24256896972656,28.23629379272461 73.49910736083984,28.993606567382812 73.49910736083984,28.993606567382812 73.74000549316406,30.132579803466797 73.74000549316406,30.132579803466797 73.97041320800781,31.525707244873047 73.97041320800781,31.525707244873047 74.19490814208984,33.045005798339844 74.19490814208984,33.045005798339844 74.41825866699219,34.56296920776367 74.41825866699219,34.56296920776367 74.64542388916016,35.95161437988281 74.64542388916016,35.95161437988281 74.8809814453125,37.08343505859375 74.8809814453125,37.08343505859375 74.9603271484375,36.829566955566406 74.9603271484375,36.829566955566406 74.98607635498047,36.292266845703125 74.98607635498047,36.292266845703125 74.9654769897461,35.5621337890625 74.9654769897461,35.5621337890625 74.90520477294922,34.729671478271484 74.90520477294922,34.729671478271484 74.81193542480469,33.88528823852539 74.81193542480469,33.88528823852539 74.69234466552734,33.11948776245117 74.69234466552734,33.11948776245117 74.55329895019531,32.52267837524414 74.55329895019531,32.52267837524414 74.40185546875,32.18536376953125 74.40185546875,32.18536376953125 74.74861145019531,32.22856521606445 74.74861145019531,32.22856521606445 75.05378723144531,32.843780517578125 75.05378723144531,32.843780517578125 75.32272338867188,33.901309967041016 75.32272338867188,33.901309967041016 75.5605697631836,35.271453857421875 75.5605697631836,35.271453857421875 75.77323913574219,36.82441711425781 75.77323913574219,36.82441711425781 75.96626281738281,38.43040466308594 75.96626281738281,38.43040466308594 76.14517211914062,39.959716796875 76.14517211914062,39.959716796875 76.3153076171875,41.28265380859375 76.3153076171875,41.28265380859375 76.82209014892578,41.812896728515625 76.82209014892578,41.812896728515625 77.27108001708984,42.511749267578125 77.27108001708984,42.511749267578125 77.68306732177734,43.319129943847656 77.68306732177734,43.319129943847656 78.0782699584961,44.174861907958984 78.0782699584961,44.174861907958984 78.47747802734375,45.0190544128418 78.47747802734375,45.0190544128418 78.9011001586914,45.79143524169922 78.9011001586914,45.79143524169922 79.36973571777344,46.43211364746094 79.36973571777344,46.43211364746094 79.9041748046875,46.881103515625 79.9041748046875,46.881103515625 80.03730773925781,47.30987548828125 80.03730773925781,47.30987548828125 80.03406524658203,47.464561462402344 80.03406524658203,47.464561462402344 79.92210388183594,47.42097854614258 79.92210388183594,47.42097854614258 79.72946166992188,47.25475311279297 79.72946166992188,47.25475311279297 79.48379516601562,47.041988372802734 79.48379516601562,47.041988372802734 79.21314239501953,46.85821533203125 79.21314239501953,46.85821533203125 78.94535064697266,46.77925109863281 78.94535064697266,46.77925109863281 78.7078857421875,46.881103515625 78.7078857421875,46.881103515625 79.2409896850586,47.50967025756836 79.2409896850586,47.50967025756836 79.8330307006836,47.96485900878906 79.8330307006836,47.96485900878906 80.47237396240234,48.281097412109375 80.47237396240234,48.281097412109375 81.14757537841797,48.49262237548828 81.14757537841797,48.49262237548828 81.84680938720703,48.63386154174805 81.84680938720703,48.63386154174805 82.55805969238281,48.7391471862793 82.55805969238281,48.7391471862793 83.26988220214844,48.842811584472656 83.26988220214844,48.842811584472656 83.97064208984375,48.97918701171875 83.97064208984375,48.97918701171875 83.90274047851562,49.30438995361328 83.90274047851562,49.30438995361328 83.81767272949219,49.579620361328125 83.81767272949219,49.579620361328125 83.71620178222656,49.808311462402344 83.71620178222656,49.808311462402344 83.60042572021484,49.99427795410156 83.60042572021484,49.99427795410156 83.47091674804688,50.1408576965332 83.47091674804688,50.1408576965332 83.32939147949219,50.25157928466797 83.32939147949219,50.25157928466797 83.17642211914062,50.330162048339844 83.17642211914062,50.330162048339844 83.013916015625,50.37994384765625 83.013916015625,50.37994384765625 84.83409881591797,50.46672821044922 84.83409881591797,50.46672821044922 86.51199340820312,50.667476654052734 86.51199340820312,50.667476654052734 88.0889892578125,50.88787078857422 88.0889892578125,50.88787078857422 89.60762023925781,51.03340148925781 89.60762023925781,51.03340148925781 91.10946655273438,51.00975036621094 91.10946655273438,51.00975036621094 92.63648986816406,50.722408294677734 92.63648986816406,50.722408294677734 94.23046112060547,50.077056884765625 94.23046112060547,50.077056884765625 95.93353271484375,48.97918701171875 95.93353271484375,48.97918701171875 95.83606719970703,49.88431930541992 95.83606719970703,49.88431930541992 95.93276977539062,50.604820251464844 95.93276977539062,50.604820251464844 96.18339538574219,51.16605758666992 96.18339538574219,51.16605758666992 96.54731750488281,51.593780517578125 96.54731750488281,51.593780517578125 96.98410034179688,51.91335678100586 96.98410034179688,51.91335678100586 97.45330810546875,52.15015411376953 97.45330810546875,52.15015411376953 97.91412353515625,52.32992172241211 97.91412353515625,52.32992172241211 98.32611083984375,52.47802734375 98.32611083984375,52.47802734375 98.20232391357422,53.16658020019531 98.20232391357422,53.16658020019531 98.03714752197266,53.73411178588867 98.03714752197266,53.73411178588867 97.83477783203125,54.19282913208008 97.83477783203125,54.19282913208008 97.59979248046875,54.55474853515625 97.59979248046875,54.55474853515625 97.33562469482422,54.83198165893555 97.33562469482422,54.83198165893555 97.0468521118164,55.03664016723633 97.0468521118164,55.03664016723633 96.73728942871094,55.18074035644531 96.73728942871094,55.18074035644531 96.4111328125,55.2764892578125 96.4111328125,55.2764892578125 96.39453887939453,55.76286315917969 96.39453887939453,55.76286315917969 96.42333984375,56.11610412597656 96.42333984375,56.11610412597656 96.49028778076172,56.35852813720703 96.49028778076172,56.35852813720703 96.58737182617188,56.511878967285156 96.58737182617188,56.511878967285156 96.70753479003906,56.5983772277832 96.70753479003906,56.5983772277832 96.84295654296875,56.640052795410156 96.84295654296875,56.640052795410156 96.98619842529297,56.65903091430664 96.98619842529297,56.65903091430664 97.12982177734375,56.67724609375 97.12982177734375,56.67724609375 96.85554504394531,57.09867477416992 96.85554504394531,57.09867477416992 96.53244018554688,57.37781524658203 96.53244018554688,57.37781524658203 96.1771011352539,57.563114166259766 96.1771011352539,57.563114166259766 95.80631256103516,57.70282745361328 95.80631256103516,57.70282745361328 95.43647766113281,57.8455924987793 95.43647766113281,57.8455924987793 95.08380889892578,58.03956985473633 95.08380889892578,58.03956985473633 94.76547241210938,58.333396911621094 94.76547241210938,58.333396911621094 94.4976806640625,58.77532958984375 94.4976806640625,58.77532958984375 94.58236694335938,59.08393859863281 94.58236694335938,59.08393859863281 94.63577270507812,59.362220764160156 94.63577270507812,59.362220764160156 94.65694427490234,59.605979919433594 94.65694427490234,59.605979919433594 94.64569091796875,59.81159210205078 94.64569091796875,59.81159210205078 94.60086822509766,59.975242614746094 94.60086822509766,59.975242614746094 94.52171325683594,60.093021392822266 94.52171325683594,60.093021392822266 94.40765380859375,60.16120910644531 94.40765380859375,60.16120910644531 94.25811767578125,60.17608642578125 94.25811767578125,60.17608642578125 94.52095031738281,60.357666015625 94.52095031738281,60.357666015625 94.82555389404297,60.50243377685547 94.82555389404297,60.50243377685547 95.16429901123047,60.60295104980469 95.16429901123047,60.60295104980469 95.53089141845703,60.651588439941406 95.53089141845703,60.651588439941406 95.9177017211914,60.640811920166016 95.9177017211914,60.640811920166016 96.31767272949219,60.562992095947266 96.31767272949219,60.562992095947266 96.72431945800781,60.41059494018555 96.72431945800781,60.41059494018555 97.12982177734375,60.17608642578125 97.12982177734375,60.17608642578125 96.56925201416016,61.161041259765625 96.56925201416016,61.161041259765625 95.95699310302734,61.99493408203125 95.95699310302734,61.99493408203125 95.3094482421875,62.725067138671875 95.3094482421875,62.725067138671875 94.64263916015625,63.39855194091797 94.64263916015625,63.39855194091797 93.97239685058594,64.06288146972656 93.97239685058594,64.06288146972656 93.31550598144531,64.76516723632812 93.31550598144531,64.76516723632812 92.68760681152344,65.55299758911133 92.68760681152344,65.55299758911133 92.1051025390625,66.473388671875 92.1051025390625,66.473388671875 93.05877685546875,67.27018356323242 93.05877685546875,67.27018356323242 94.01283264160156,68.0654525756836 94.01283264160156,68.0654525756836 94.97203826904297,68.84613037109375 94.97203826904297,68.84613037109375 95.94039916992188,69.59896087646484 95.94039916992188,69.59896087646484 96.9228744506836,70.31078338623047 96.9228744506836,70.31078338623047 97.92404174804688,70.96853256225586 97.92404174804688,70.96853256225586 98.9480972290039,71.55895233154297 98.9480972290039,71.55895233154297 100.0,72.06878662109375 100.0,72.06878662109375 98.81706237792969,72.63240814208984 98.81706237792969,72.63240814208984 97.53684997558594,72.91116714477539 97.53684997558594,72.91116714477539 96.197509765625,73.01702499389648 96.197509765625,73.01702499389648 94.83699798583984,73.06175231933594 94.83699798583984,73.06175231933594 93.49403381347656,73.15731048583984 93.49403381347656,73.15731048583984 92.2067642211914,73.41547012329102 92.2067642211914,73.41547012329102 91.01333618164062,73.94819259643555 91.01333618164062,73.94819259643555 89.95208740234375,74.86724853515625 89.95208740234375,74.86724853515625 90.21854400634766,75.98438262939453 90.21854400634766,75.98438262939453 90.56262969970703,76.58252716064453 90.56262969970703,76.58252716064453 90.97175598144531,76.79891586303711 90.97175598144531,76.79891586303711 91.43295288085938,76.77116394042969 91.43295288085938,76.77116394042969 91.9332504272461,76.63650512695312 91.9332504272461,76.63650512695312 92.4600601196289,76.53236389160156 92.4600601196289,76.53236389160156 93.0002212524414,76.59616470336914 93.0002212524414,76.59616470336914 93.54095458984375,76.96533203125 93.54095458984375,76.96533203125 92.9849624633789,78.13224792480469 92.9849624633789,78.13224792480469 92.2231674194336,78.98635864257812 92.2231674194336,78.98635864257812 91.27998352050781,79.57992553710938 91.27998352050781,79.57992553710938 90.179443359375,79.96501922607422 90.179443359375,79.96501922607422 88.94596099853516,80.19390106201172 88.94596099853516,80.19390106201172 87.60356903076172,80.31854629516602 87.60356903076172,80.31854629516602 86.17668151855469,80.39121627807617 86.17668151855469,80.39121627807617 84.6893310546875,80.46417236328125 84.6893310546875,80.46417236328125 85.2010726928711,81.3283920288086 85.2010726928711,81.3283920288086 85.8438491821289,81.81085586547852 85.8438491821289,81.81085586547852 86.5854263305664,82.00387954711914 86.5854263305664,82.00387954711914 87.39433288574219,81.99996948242188 87.39433288574219,81.99996948242188 88.23890686035156,81.89163208007812 88.23890686035156,81.89163208007812 89.08729553222656,81.7713737487793 89.08729553222656,81.7713737487793 89.9078369140625,81.73160552978516 89.9078369140625,81.73160552978516 90.66925048828125,81.86492919921875 90.66925048828125,81.86492919921875 90.40508270263672,82.75413513183594 90.40508270263672,82.75413513183594 89.98737335205078,83.19463729858398 89.98737335205078,83.19463729858398 89.47086334228516,83.34627151489258 89.47086334228516,83.34627151489258 88.91048431396484,83.3688735961914 88.91048431396484,83.3688735961914 88.360595703125,83.42208862304688 88.360595703125,83.42208862304688 87.87574768066406,83.66584777832031 87.87574768066406,83.66584777832031 87.51068115234375,84.25979614257812 87.51068115234375,84.25979614257812 87.3199462890625,85.36376953125 87.3199462890625,85.36376953125 86.44638061523438,85.47000885009766 86.44638061523438,85.47000885009766 85.614013671875,85.45541763305664 85.614013671875,85.45541763305664 84.82894897460938,85.30292510986328 84.82894897460938,85.30292510986328 84.09671783447266,84.99507904052734 84.09671783447266,84.99507904052734 83.42361450195312,84.51461791992188 83.42361450195312,84.51461791992188 82.81536102294922,83.84437561035156 82.81536102294922,83.84437561035156 82.27806091308594,82.96689987182617 82.27806091308594,82.96689987182617 81.817626953125,81.86492919921875 81.817626953125,81.86492919921875 80.68580627441406,81.61725997924805 80.68580627441406,81.61725997924805 79.4546127319336,81.23922348022461 79.4546127319336,81.23922348022461 78.15666198730469,80.80644607543945 78.15666198730469,80.80644607543945 76.8228530883789,80.39436340332031 76.8228530883789,80.39436340332031 75.48561096191406,80.0786018371582 75.48561096191406,80.0786018371582 74.17640686035156,79.93459701538086 74.17640686035156,79.93459701538086 72.92709350585938,80.0379753112793 72.92709350585938,80.0379753112793 71.76971435546875,80.46417236328125 71.76971435546875,80.46417236328125 71.78497314453125,80.68370819091797 71.78497314453125,80.68370819091797 71.82159423828125,80.83953857421875 71.82159423828125,80.83953857421875 71.87557220458984,80.94444274902344 71.87557220458984,80.94444274902344 71.94232940673828,81.01177215576172 71.94232940673828,81.01177215576172 72.0174789428711,81.05440139770508 72.0174789428711,81.05440139770508 72.09663391113281,81.08539581298828 72.09663391113281,81.08539581298828 72.17521667480469,81.11772537231445 72.17521667480469,81.11772537231445 72.24884033203125,81.16455078125 72.24884033203125,81.16455078125 71.17061614990234,82.87792205810547 71.17061614990234,82.87792205810547 69.98939514160156,83.5855484008789 69.98939514160156,83.5855484008789 68.73512268066406,83.6080551147461 68.73512268066406,83.6080551147461 67.43850708007812,83.26587677001953 67.43850708007812,83.26587677001953 66.13025665283203,82.87982940673828 66.13025665283203,82.87982940673828 64.8406982421875,82.7702522277832 64.8406982421875,82.7702522277832 63.600730895996094,83.25786590576172 63.600730895996094,83.25786590576172 62.44049072265625,84.66339111328125 62.44049072265625,84.66339111328125 62.22724914550781,84.49907302856445 62.22724914550781,84.49907302856445 62.01496124267578,84.332275390625 62.01496124267578,84.332275390625 61.79943084716797,84.17530059814453 61.79943084716797,84.17530059814453 61.57646179199219,84.0402603149414 61.57646179199219,84.0402603149414 61.34185791015625,83.93936157226562 61.34185791015625,83.93936157226562 61.09161376953125,83.88471603393555 61.09161376953125,83.88471603393555 60.821533203125,83.88853073120117 60.821533203125,83.88853073120117 60.52703857421875,83.9630126953125 60.52703857421875,83.9630126953125 60.30597686767578,84.28802490234375 60.30597686767578,84.28802490234375 60.186004638671875,84.60149765014648 60.186004638671875,84.60149765014648 60.140037536621094,84.9252700805664 60.140037536621094,84.9252700805664 60.13984680175781,85.28099060058594 60.13984680175781,85.28099060058594 60.15815734863281,85.69068908691406 60.15815734863281,85.69068908691406 60.16731262207031,86.17620468139648 60.16731262207031,86.17620468139648 60.13984680175781,86.75918579101562 60.13984680175781,86.75918579101562 60.04791259765625,87.46185302734375 60.04791259765625,87.46185302734375 59.692955017089844,86.15617752075195 59.692955017089844,86.15617752075195 59.36241149902344,85.80360412597656 59.36241149902344,85.80360412597656 59.03491973876953,86.17639541625977 59.03491973876953,86.17639541625977 58.689117431640625,87.04719543457031 58.689117431640625,87.04719543457031 58.3038330078125,88.18855285644531 58.3038330078125,88.18855285644531 57.85789489746094,89.3728256225586 57.85789489746094,89.3728256225586 57.32994079589844,90.37275314331055 57.32994079589844,90.37275314331055 56.6986083984375,90.960693359375 56.6986083984375,90.960693359375 56.54125213623047,90.96908569335938 56.54125213623047,90.96908569335938 56.365394592285156,90.88497161865234 56.365394592285156,90.88497161865234 56.177711486816406,90.74115753173828 56.177711486816406,90.74115753173828 55.983543395996094,90.56987762451172 55.983543395996094,90.56987762451172 55.7891845703125,90.40374755859375 55.7891845703125,90.40374755859375 55.60035705566406,90.27509689331055 55.60035705566406,90.27509689331055 55.42278289794922,90.2165412902832 55.42278289794922,90.2165412902832 55.26275634765625,90.26031494140625 55.26275634765625,90.26031494140625 54.937171936035156,90.62652587890625 54.937171936035156,90.62652587890625 54.64801788330078,91.16201400756836 54.64801788330078,91.16201400756836 54.38957214355469,91.75472259521484 54.38957214355469,91.75472259521484 54.155540466308594,92.29278564453125 54.155540466308594,92.29278564453125 53.940391540527344,92.66433715820312 53.940391540527344,92.66433715820312 53.73821258544922,92.75760650634766 53.73821258544922,92.75760650634766 53.5430908203125,92.46044158935547 53.5430908203125,92.46044158935547 53.34930419921875,91.66107177734375 53.34930419921875,91.66107177734375 53.043365478515625,92.16556549072266 53.043365478515625,92.16556549072266 52.805137634277344,92.80252456665039 52.805137634277344,92.80252456665039 52.63175964355469,93.5586929321289 52.63175964355469,93.5586929321289 52.52037048339844,94.42062377929688 52.52037048339844,94.42062377929688 52.46772766113281,95.37506103515625 52.46772766113281,95.37506103515625 52.47077941894531,96.40836715698242 52.47077941894531,96.40836715698242 52.52666473388672,97.50747680664062 52.52666473388672,97.50747680664062 52.63214111328125,98.65875244140625 52.63214111328125,98.65875244140625 51.909446716308594,99.72467422485352 51.909446716308594,99.72467422485352 51.191139221191406,99.99608993530273 51.191139221191406,99.99608993530273 50.484657287597656,99.6429443359375 50.484657287597656,99.6429443359375 49.796295166015625,98.83537292480469 49.796295166015625,98.83537292480469 49.13349151611328,97.74322509765625 49.13349151611328,97.74322509765625 48.50311279296875,96.53654098510742 48.50311279296875,96.53654098510742 47.91221618652344,95.38536071777344 47.91221618652344,95.38536071777344 47.36785888671875,94.45953369140625 47.36785888671875,94.45953369140625 47.22614288330078,94.9188232421875 47.22614288330078,94.9188232421875 47.15290069580078,95.5789566040039 47.15290069580078,95.5789566040039 47.113037109375,96.33617401123047 47.113037109375,96.33617401123047 47.07069396972656,97.08728790283203 47.07069396972656,97.08728790283203 46.99077606201172,97.7285385131836 46.99077606201172,97.7285385131836 46.837806701660156,98.15645217895508 46.837806701660156,98.15645217895508 46.576690673828125,98.2675552368164 46.576690673828125,98.2675552368164 46.17156982421875,97.9583740234375 46.17156982421875,97.9583740234375 46.278953552246094,97.07908630371094 46.278953552246094,97.07908630371094 46.40178680419922,96.08650207519531 46.40178680419922,96.08650207519531 46.521568298339844,95.01314163208008 46.521568298339844,95.01314163208008 46.619224548339844,93.89114379882812 46.619224548339844,93.89114379882812 46.675872802734375,92.75283813476562 46.675872802734375,92.75283813476562 46.672630310058594,91.63055419921875 46.672630310058594,91.63055419921875 46.590614318847656,90.55643081665039 46.590614318847656,90.55643081665039 46.4111328125,89.56298828125 46.4111328125,89.56298828125 46.16584777832031,89.80693817138672 46.16584777832031,89.80693817138672 45.95756530761719,90.15893936157227 45.95756530761719,90.15893936157227 45.7855224609375,90.61765670776367 45.7855224609375,90.61765670776367 45.64952850341797,91.18156433105469 45.64952850341797,91.18156433105469 45.54882049560547,91.84913635253906 45.54882049560547,91.84913635253906 45.48301696777344,92.61894226074219 45.48301696777344,92.61894226074219 45.45173645019531,93.4896469116211 45.45173645019531,93.4896469116211 45.45440673828125,94.45953369140625 45.45440673828125,94.45953369140625 45.25260925292969,94.1741943359375 45.25260925292969,94.1741943359375 45.1080322265625,93.72272491455078 45.1080322265625,93.72272491455078 45.003318786621094,93.1539535522461 45.003318786621094,93.1539535522461 44.92225646972656,92.51670837402344 44.92225646972656,92.51670837402344 44.847869873046875,91.85981750488281 44.847869873046875,91.85981750488281 44.76356506347656,91.2322998046875 44.76356506347656,91.2322998046875 44.65217590332031,90.68279266357422 44.65217590332031,90.68279266357422 44.4976806640625,90.26031494140625 44.4976806640625,90.26031494140625 44.13585662841797,89.90745544433594 44.13585662841797,89.90745544433594 43.755531311035156,89.7740364074707 43.755531311035156,89.7740364074707 43.366050720214844,89.80083465576172 43.366050720214844,89.80083465576172 42.977333068847656,89.92843627929688 42.977333068847656,89.92843627929688 42.59929656982422,90.0975227355957 42.59929656982422,90.0975227355957 42.241859436035156,90.2486801147461 42.241859436035156,90.2486801147461 41.91455841064453,90.32278060913086 41.91455841064453,90.32278060913086 41.62750244140625,90.26031494140625 41.62750244140625,90.26031494140625 41.271209716796875,89.88456726074219 41.271209716796875,89.88456726074219 41.010093688964844,89.25800323486328 41.010093688964844,89.25800323486328 40.808677673339844,88.4221076965332 40.808677673339844,88.4221076965332 40.632057189941406,87.41874694824219 40.632057189941406,87.41874694824219 40.44532775878906,86.28959655761719 40.44532775878906,86.28959655761719 40.21320343017578,85.07652282714844 40.21320343017578,85.07652282714844 39.900970458984375,83.82120132446289 39.900970458984375,83.82120132446289 39.47296142578125,82.5653076171875 39.47296142578125,82.5653076171875 38.661766052246094,80.85136413574219 38.661766052246094,80.85136413574219 37.740135192871094,79.47654724121094 37.740135192871094,79.47654724121094 36.71283721923828,78.42864990234375 36.71283721923828,78.42864990234375 35.584259033203125,77.6956558227539 35.584259033203125,77.6956558227539 34.35859680175781,77.26507186889648 34.35859680175781,77.26507186889648 33.04023742675781,77.12469100952148 33.04023742675781,77.12469100952148 31.633949279785156,77.2623062133789 31.633949279785156,77.2623062133789 30.14373779296875,77.66571044921875 30.14373779296875,77.66571044921875 30.53569793701172,78.55873107910156 30.53569793701172,78.55873107910156 31.52599334716797,79.23851013183594 31.52599334716797,79.23851013183594 32.819366455078125,79.73403930664062 32.819366455078125,79.73403930664062 34.12036895751953,80.07431030273438 34.12036895751953,80.07431030273438 35.13374328613281,80.28841018676758 35.13374328613281,80.28841018676758 35.56365966796875,80.40542602539062 35.56365966796875,80.40542602539062 35.11543273925781,80.45434951782227 35.11543273925781,80.45434951782227 33.4930419921875,80.46417236328125 33.4930419921875,80.46417236328125 31.34002685546875,80.46417236328125 31.34002685546875,80.46417236328125 30.390548706054688,79.83036041259766 30.390548706054688,79.83036041259766 29.483795166015625,79.0715217590332 29.483795166015625,79.0715217590332 28.614425659179688,78.20320129394531 28.614425659179688,78.20320129394531 27.77729034423828,77.24113464355469 27.77729034423828,77.24113464355469 26.96666717529297,76.20115280151367 26.96666717529297,76.20115280151367 26.177597045898438,75.09889602661133 26.177597045898438,75.09889602661133 25.40416717529297,73.9501953125 25.40416717529297,73.9501953125 24.64141845703125,72.77069091796875 24.64141845703125,72.77069091796875 22.622108459472656,75.13561248779297 22.622108459472656,75.13561248779297 20.842361450195312,77.61268615722656 20.842361450195312,77.61268615722656 19.210433959960938,80.13277053833008 19.210433959960938,80.13277053833008 17.634201049804688,82.62672424316406 17.634201049804688,82.62672424316406 16.021728515625,85.02559661865234 16.021728515625,85.02559661865234 14.281082153320312,87.26024627685547 14.281082153320312,87.26024627685547 12.320518493652344,89.26162719726562 12.320518493652344,89.26162719726562 10.04791259765625,90.960693359375 10.04791259765625,90.960693359375 10.144424438476562,89.50653076171875 10.144424438476562,89.50653076171875 10.377693176269531,88.6087417602539 10.377693176269531,88.6087417602539 10.721588134765625,88.12179565429688 10.721588134765625,88.12179565429688 11.149024963378906,87.90035247802734 11.149024963378906,87.90035247802734 11.633110046386719,87.79897689819336 11.633110046386719,87.79897689819336 12.147140502929688,87.67223358154297 12.147140502929688,87.67223358154297 12.664222717285156,87.37497329711914 12.664222717285156,87.37497329711914 13.15765380859375,86.761474609375 13.15765380859375,86.761474609375 13.127326965332031,86.5015983581543 13.127326965332031,86.5015983581543 13.068962097167969,86.32335662841797 13.068962097167969,86.32335662841797 12.988090515136719,86.21063232421875 12.988090515136719,86.21063232421875 12.890052795410156,86.14730834960938 12.890052795410156,86.14730834960938 12.78076171875,86.11717224121094 12.78076171875,86.11717224121094 12.665557861328125,86.10401153564453 12.665557861328125,86.10401153564453 12.55035400390625,86.09180450439453 12.55035400390625,86.09180450439453 12.44049072265625,86.06414794921875 12.44049072265625,86.06414794921875 12.582206726074219,85.51807403564453 12.582206726074219,85.51807403564453 12.772560119628906,85.11266708374023 12.772560119628906,85.11266708374023 12.996482849121094,84.80567932128906 12.996482849121094,84.80567932128906 13.239669799804688,84.55467224121094 13.239669799804688,84.55467224121094 13.487625122070312,84.31720733642578 13.487625122070312,84.31720733642578 13.725852966308594,84.0510368347168 13.725852966308594,84.0510368347168 13.939666748046875,83.71353149414062 13.939666748046875,83.71353149414062 14.1143798828125,83.26263427734375 14.1143798828125,83.26263427734375 14.132118225097656,83.88423919677734 14.132118225097656,83.88423919677734 14.19830322265625,84.20934677124023 14.19830322265625,84.20934677124023 14.311981201171875,84.29737091064453 14.311981201171875,84.29737091064453 14.471817016601562,84.20791625976562 14.471817016601562,84.20791625976562 14.676666259765625,84.00020599365234 14.676666259765625,84.00020599365234 14.925384521484375,83.73384475708008 14.925384521484375,83.73384475708008 15.217018127441406,83.4681510925293 15.217018127441406,83.4681510925293 15.55023193359375,83.26263427734375 15.55023193359375,83.26263427734375 15.423393249511719,82.2880744934082 15.423393249511719,82.2880744934082 15.229225158691406,81.67610168457031 15.229225158691406,81.67610168457031 14.985466003417969,81.35967254638672 14.985466003417969,81.35967254638672 14.709663391113281,81.27174377441406 14.709663391113281,81.27174377441406 14.419364929199219,81.34527206420898 14.419364929199219,81.34527206420898 14.132118225097656,81.5134048461914 14.132118225097656,81.5134048461914 13.865470886230469,81.70890808105469 13.865470886230469,81.70890808105469 13.63677978515625,81.86492919921875 13.63677978515625,81.86492919921875 12.461280822753906,82.86466598510742 12.461280822753906,82.86466598510742 11.213111877441406,84.40847396850586 11.213111877441406,84.40847396850586 9.90447998046875,86.20634078979492 9.90447998046875,86.20634078979492 8.547019958496094,87.96844482421875 8.547019958496094,87.96844482421875 7.1529388427734375,89.40505981445312 7.1529388427734375,89.40505981445312 5.7342529296875,90.22607803344727 5.7342529296875,90.22607803344727 4.3025970458984375,90.14196395874023 4.3025970458984375,90.14196395874023 2.87017822265625,88.86260986328125 2.87017822265625,88.86260986328125 2.9905319213867188,88.4267807006836 2.9905319213867188,88.4267807006836 3.1740188598632812,88.1753921508789 3.1740188598632812,88.1753921508789 3.3971786499023438,88.04073333740234 3.3971786499023438,88.04073333740234 3.6373138427734375,87.9556655883789 3.6373138427734375,87.9556655883789 3.8713455200195312,87.85266876220703 3.8713455200195312,87.85266876220703 4.0760040283203125,87.66422271728516 4.0760040283203125,87.66422271728516 4.228782653808594,87.322998046875 4.228782653808594,87.322998046875 4.3060302734375,86.761474609375 4.3060302734375,86.761474609375 4.004859924316406,85.87617874145508 4.004859924316406,85.87617874145508 3.7815093994140625,84.56544876098633 3.7815093994140625,84.56544876098633 3.6314010620117188,82.9437255859375 3.6314010620117188,82.9437255859375 3.5505294799804688,81.12506866455078 3.5505294799804688,81.12506866455078 3.5341262817382812,79.22382354736328 3.5341262817382812,79.22382354736328 3.5779953002929688,77.35424041748047 3.5779953002929688,77.35424041748047 3.6775588989257812,75.63047409057617 3.6775588989257812,75.63047409057617 3.82843017578125,74.1668701171875 3.82843017578125,74.1668701171875 3.4994125366210938,74.42951202392578 3.4994125366210938,74.42951202392578 3.1497955322265625,74.63274002075195 3.1497955322265625,74.63274002075195 2.7860641479492188,74.79372024536133 2.7860641479492188,74.79372024536133 2.4137496948242188,74.92961883544922 2.4137496948242188,74.92961883544922 2.0387649536132812,75.05779266357422 2.0387649536132812,75.05779266357422 1.667022705078125,75.1953125 1.667022705078125,75.1953125 1.3044357299804688,75.35953521728516 1.3044357299804688,75.35953521728516 0.95672607421875,75.567626953125 0.95672607421875,75.567626953125 1.1861801147460938,74.75090026855469 1.1861801147460938,74.75090026855469 1.517486572265625,74.23324584960938 1.517486572265625,74.23324584960938 1.9227981567382812,73.931884765625 1.9227981567382812,73.931884765625 2.3736953735351562,73.7640380859375 2.3736953735351562,73.7640380859375 2.8417587280273438,73.64683151245117 2.8417587280273438,73.64683151245117 3.2989501953125,73.49739074707031 3.2989501953125,73.49739074707031 3.7164688110351562,73.23293685913086 3.7164688110351562,73.23293685913086 4.06646728515625,72.77069091796875 4.06646728515625,72.77069091796875 3.82537841796875,72.73149490356445 3.82537841796875,72.73149490356445 3.4626007080078125,72.66473770141602 3.4626007080078125,72.66473770141602 3.0179977416992188,72.58968353271484 3.0179977416992188,72.58968353271484 2.5310516357421875,72.52578735351562 2.5310516357421875,72.52578735351562 2.0416259765625,72.49259948730469 2.0416259765625,72.49259948730469 1.5897750854492188,72.50938415527344 1.5897750854492188,72.50938415527344 1.2149810791015625,72.59559631347656 1.2149810791015625,72.59559631347656 0.95672607421875,72.77069091796875 0.95672607421875,72.77069091796875 0.7616043090820312,72.50099182128906 0.7616043090820312,72.50099182128906 0.681304931640625,72.1487045288086 0.681304931640625,72.1487045288086 0.6868362426757812,71.7310905456543 0.6868362426757812,71.7310905456543 0.7478713989257812,71.2656021118164 0.7478713989257812,71.2656021118164 0.8350372314453125,70.76959609985352 0.8350372314453125,70.76959609985352 0.9187698364257812,70.26033401489258 0.9187698364257812,70.26033401489258 0.9691238403320312,69.75536346435547 0.9691238403320312,69.75536346435547 0.95672607421875,69.2718505859375 0.95672607421875,69.2718505859375 0.7421493530273438,69.18716430664062 0.7421493530273438,69.18716430664062 0.5544662475585938,69.41051483154297 0.5544662475585938,69.41051483154297 0.3940582275390625,69.79999542236328 0.3940582275390625,69.79999542236328 0.26092529296875,70.21369934082031 0.26092529296875,70.21369934082031 0.154876708984375,70.50971984863281 0.154876708984375,70.50971984863281 0.07610321044921875,70.54595947265625 0.07610321044921875,70.54595947265625 0.0244140625,70.18070220947266 0.0244140625,70.18070220947266 0.0,69.2718505859375 0.0,69.2718505859375 0.2227783203125,68.41096878051758 0.2227783203125,68.41096878051758 0.47817230224609375,67.5450325012207 0.47817230224609375,67.5450325012207 0.7387161254882812,66.66202545166016 0.7387161254882812,66.66202545166016 0.9786605834960938,65.74993133544922 0.9786605834960938,65.74993133544922 1.1709213256835938,64.79692459106445 1.1709213256835938,64.79692459106445 1.2889862060546875,63.7908935546875 1.2889862060546875,63.7908935546875 1.3063430786132812,62.72001266479492 1.3063430786132812,62.72001266479492 1.1962890625,61.572265625 1.1962890625,61.572265625 1.6557693481445312,61.43054962158203 1.6557693481445312,61.43054962158203 2.0868301391601562,61.20500564575195 2.0868301391601562,61.20500564575195 2.4974822998046875,60.92023849487305 2.4974822998046875,60.92023849487305 2.8966903686523438,60.601234436035156 2.8966903686523438,60.601234436035156 3.2926559448242188,60.27250289916992 3.2926559448242188,60.27250289916992 3.6937713623046875,59.958839416503906 3.6937713623046875,59.958839416503906 4.108619689941406,59.68494415283203 4.108619689941406,59.68494415283203 4.54559326171875,59.4757080078125 4.54559326171875,59.4757080078125 4.510688781738281,58.965110778808594 4.510688781738281,58.965110778808594 4.3743133544921875,58.75110626220703 4.3743133544921875,58.75110626220703 4.175376892089844,58.72058868408203 4.175376892089844,58.72058868408203 3.9522171020507812,58.760833740234375 3.9522171020507812,58.760833740234375 3.7433624267578125,58.7590217590332 3.7433624267578125,58.7590217590332 3.5875320434570312,58.602333068847656 3.5875320434570312,58.602333068847656 3.52325439453125,58.177947998046875 3.52325439453125,58.177947998046875 3.5888671875,57.373046875 3.5888671875,57.373046875 4.390716552734375,56.5704345703125 4.390716552734375,56.5704345703125 5.2028656005859375,55.67207336425781 5.2028656005859375,55.67207336425781 5.999565124511719,54.67805862426758 5.999565124511719,54.67805862426758 6.755256652832031,53.58867645263672 6.755256652832031,53.58867645263672 7.444000244140625,52.403926849365234 7.444000244140625,52.403926849365234 8.040237426757812,51.124000549316406 8.040237426757812,51.124000549316406 8.518028259277344,49.748802185058594 8.518028259277344,49.748802185058594 8.85162353515625,48.27880859375 8.85162353515625,48.27880859375 8.950614929199219,48.39620590209961 8.950614929199219,48.39620590209961 8.99505615234375,48.51846694946289 8.99505615234375,48.51846694946289 8.99810791015625,48.6515998840332 8.99810791015625,48.6515998840332 8.972930908203125,48.801231384277344 8.972930908203125,48.801231384277344 8.9324951171875,48.97308349609375 8.9324951171875,48.97308349609375 8.890151977539062,49.1729736328125 8.890151977539062,49.1729736328125 8.858871459960938,49.40652847290039 8.858871459960938,49.40652847290039 8.85162353515625,49.6795654296875 8.85162353515625,49.6795654296875 9.895896911621094,48.310184478759766 9.895896911621094,48.310184478759766 11.018180847167969,46.69189453125 11.018180847167969,46.69189453125 12.214279174804688,44.969749450683594 12.214279174804688,44.969749450683594 13.479232788085938,43.28889846801758 13.479232788085938,43.28889846801758 14.808845520019531,41.794681549072266 14.808845520019531,41.794681549072266 16.198348999023438,40.63224792480469 16.198348999023438,40.63224792480469 17.643356323242188,39.946746826171875 17.643356323242188,39.946746826171875 19.13909912109375,39.8834228515625 19.13909912109375,39.8834228515625 19.055557250976562,39.19334411621094 19.055557250976562,39.19334411621094 18.96495819091797,38.83256912231445 18.96495819091797,38.83256912231445 18.861961364746094,38.72241973876953 18.861961364746094,38.72241973876953 18.740081787109375,38.78450393676758 18.740081787109375,38.78450393676758 18.593215942382812,38.94014358520508 18.593215942382812,38.94014358520508 18.415451049804688,39.1108512878418 18.415451049804688,39.1108512878418 18.20068359375,39.21794891357422 18.20068359375,39.21794891357422 17.94281005859375,39.18304443359375 17.94281005859375,39.18304443359375 18.07537078857422,38.355255126953125 18.07537078857422,38.355255126953125 18.280982971191406,37.90388107299805 18.280982971191406,37.90388107299805 18.54248046875,37.746429443359375 18.54248046875,37.746429443359375 18.84307861328125,37.80059814453125 18.84307861328125,37.80059814453125 19.165802001953125,37.98389434814453 19.165802001953125,37.98389434814453 19.49329376220703,38.21401596069336 19.49329376220703,38.21401596069336 19.8089599609375,38.408470153808594 19.8089599609375,38.408470153808594 20.0958251953125,38.484954833984375 20.0958251953125,38.484954833984375 19.81830596923828,37.726783752441406 19.81830596923828,37.726783752441406 19.758033752441406,37.31508255004883 19.758033752441406,37.31508255004883 19.87152099609375,37.172508239746094 19.87152099609375,37.172508239746094 20.11566162109375,37.221431732177734 20.11566162109375,37.221431732177734 20.447158813476562,37.3845100402832 20.447158813476562,37.3845100402832 20.82233428955078,37.58430480957031 20.82233428955078,37.58430480957031 21.198463439941406,37.743186950683594 21.198463439941406,37.743186950683594 21.53167724609375,37.7838134765625 21.53167724609375,37.7838134765625 21.0113525390625,36.821651458740234 21.0113525390625,36.821651458740234 20.401954650878906,36.35368347167969 20.401954650878906,36.35368347167969 19.73285675048828,36.2828254699707 19.73285675048828,36.2828254699707 19.033050537109375,36.511898040771484 19.033050537109375,36.511898040771484 18.331527709960938,36.943817138671875 18.331527709960938,36.943817138671875 17.65727996826172,37.48130798339844 17.65727996826172,37.48130798339844 17.03948974609375,38.0274772644043 17.03948974609375,38.0274772644043 16.5069580078125,38.484954833984375 16.5069580078125,38.484954833984375 17.0623779296875,36.76605224609375 17.0623779296875,36.76605224609375 17.845916748046875,35.64414978027344 17.845916748046875,35.64414978027344 18.78376007080078,35.06631851196289 18.78376007080078,35.06631851196289 19.802474975585938,34.97962951660156 19.802474975585938,34.97962951660156 20.827865600585938,35.331058502197266 20.827865600585938,35.331058502197266 21.785926818847656,36.067771911621094 21.785926818847656,36.067771911621094 22.603225708007812,37.13665008544922 22.603225708007812,37.13665008544922 23.20556640625,38.484954833984375 23.20556640625,38.484954833984375 24.535560607910156,37.47587203979492 24.535560607910156,37.47587203979492 25.965118408203125,36.759185791015625 25.965118408203125,36.759185791015625 27.46429443359375,36.24534606933594 27.46429443359375,36.24534606933594 29.001998901367188,35.84480285644531 29.001998901367188,35.84480285644531 30.54790496826172,35.468101501464844 30.54790496826172,35.468101501464844 32.07130432128906,35.025978088378906 32.07130432128906,35.025978088378906 33.5418701171875,34.42869186401367 33.5418701171875,34.42869186401367 34.92889404296875,33.586883544921875 34.92889404296875,33.586883544921875 34.31129455566406,34.49268341064453 34.31129455566406,34.49268341064453 33.661651611328125,35.30387878417969 33.661651611328125,35.30387878417969 32.981300354003906,36.0260009765625 32.981300354003906,36.0260009765625 32.27252960205078,36.66419982910156 32.27252960205078,36.66419982910156 31.536865234375,37.22400665283203 31.536865234375,37.22400665283203 30.776214599609375,37.71038055419922 30.776214599609375,37.71038055419922 29.992294311523438,38.12894821166992 29.992294311523438,38.12894821166992 29.18701171875,38.484954833984375 29.18701171875,38.484954833984375 31.34021759033203,37.76674270629883 31.34021759033203,37.76674270629883 33.70838165283203,37.27607727050781 33.70838165283203,37.27607727050781 36.17115020751953,36.814212799072266 36.17115020751953,36.814212799072266 38.608360290527344,36.18268966674805 38.608360290527344,36.18268966674805 40.899658203125,35.182952880859375 40.899658203125,35.182952880859375 42.92449951171875,33.61635208129883 42.92449951171875,33.61635208129883 44.562721252441406,31.284332275390625 44.562721252441406,31.284332275390625" stroke="white" stroke-width="0.1" /><polygon points="66.26739501953125,7.69805908203125 66.26739501953125,7.69805908203125 67.30670928955078,7.675361633300781 67.30670928955078,7.675361633300781 67.86060333251953,7.476997375488281 67.86060333251953,7.476997375488281 68.01033020019531,7.206535339355469 68.01033020019531,7.206535339355469 67.83771514892578,6.967639923095703 67.83771514892578,6.967639923095703 67.42401123046875,6.863594055175781 67.42401123046875,6.863594055175781 66.85028076171875,6.9980621337890625 66.85028076171875,6.9980621337890625 66.19873046875,7.474327087402344 66.19873046875,7.474327087402344 65.55023193359375,8.396148681640625 65.55023193359375,8.396148681640625 65.66696166992188,8.459091186523438 65.66696166992188,8.459091186523438 65.7735824584961,8.422374725341797 65.7735824584961,8.422374725341797 65.87085723876953,8.314323425292969 65.87085723876953,8.314323425292969 65.96031188964844,8.16354751586914 65.96031188964844,8.16354751586914 66.04347229003906,7.998085021972656 66.04347229003906,7.998085021972656 66.1214828491211,7.846546173095703 66.1214828491211,7.846546173095703 66.1956787109375,7.737064361572266 66.1956787109375,7.737064361572266" stroke="white" stroke-width="0.1" /><polygon points="45.6939697265625,27.988433837890625 45.83396911621094,28.253746032714844 45.86029052734375,28.619670867919922 45.801544189453125,29.06036376953125 45.685577392578125,29.5501708984375 45.540809631347656,30.063438415527344 45.39527893066406,30.574512481689453 45.27721405029297,31.05764389038086 45.21484375,31.487274169921875 47.339439392089844,27.1148681640625 49.488067626953125,22.35889434814453 51.708221435546875,17.473983764648438 54.047584533691406,12.71352767944336 56.55384063720703,8.331871032714844 59.27467346191406,4.583168029785156 62.25738525390625,1.7210960388183594 65.55023193359375,0.0 65.08941650390625,0.665283203125 64.57939147949219,1.1852264404296875 64.03770446777344,1.6122817993164062 63.482093811035156,1.9991874694824219 62.931060791015625,2.398681640625 62.40215301513672,2.8634071350097656 61.91387176513672,3.4460067749023438 61.4837646484375,4.19921875 62.13722229003906,4.443931579589844 62.83550262451172,4.368019104003906 63.57402801513672,4.071617126464844 64.34803009033203,3.655242919921875 65.15274047851562,3.2192230224609375 65.98320007324219,2.86407470703125 66.83502197265625,2.69012451171875 67.7032470703125,2.797698974609375 67.65422821044922,3.6039352416992188 67.97370910644531,4.139804840087891 68.56975555419922,4.47540283203125 69.35081481933594,4.680728912353516 70.22476196289062,4.825592041015625 71.10042572021484,4.980278015136719 71.88549041748047,5.214500427246094 72.4884033203125,5.59844970703125 72.23529815673828,5.972862243652344 71.82559967041016,6.378841400146484 71.32644653320312,6.7470550537109375 70.80554962158203,7.00836181640625 70.33061981201172,7.093334197998047 69.96917724609375,6.932926177978516 69.78836059570312,6.457710266113281 69.85626220703125,5.59844970703125 69.66686248779297,5.5694580078125 69.5211410522461,5.667209625244141 69.40250396728516,5.845069885253906 69.2953109741211,6.05621337890625 69.18354034423828,6.253814697265625 69.05097961425781,6.390953063964844 68.88179779052734,6.420707702636719 68.65997314453125,6.296539306640625 68.72806549072266,6.622600555419922 68.8131332397461,6.898212432861328 68.91422271728516,7.127094268798828 69.03018951416016,7.312870025634766 69.15969848632812,7.459163665771484 69.30122375488281,7.569694519042969 69.4540023803711,7.6480865478515625 69.61669921875,7.69805908203125 66.26739501953125,7.69805908203125 67.30670928955078,7.675361633300781 67.86060333251953,7.476997375488281 68.01033020019531,7.206535339355469 67.83771514892578,6.967639923095703 67.42401123046875,6.863594055175781 66.85028076171875,6.9980621337890625 66.19873046875,7.474327087402344 65.55023193359375,8.396148681640625 65.66696166992188,8.459091186523438 65.7735824584961,8.422374725341797 65.87085723876953,8.314323425292969 65.96031188964844,8.16354751586914 66.04347229003906,7.998085021972656 66.1214828491211,7.846546173095703 66.1956787109375,7.737064361572266 66.26739501953125,7.69805908203125 69.61669921875,7.69805908203125 69.56920623779297,7.995510101318359 69.48680877685547,8.190631866455078 69.37637329101562,8.304500579833984 69.2453384399414,8.358383178710938 69.1009521484375,8.373355865478516 68.9504623413086,8.370590209960938 68.80111694335938,8.37106704711914 68.65997314453125,8.396148681640625 69.45209503173828,9.49087142944336 70.47309875488281,9.91506576538086 71.636962890625,9.922599792480469 72.85633087158203,9.76715087890625 74.04460906982422,9.702682495117188 75.11520385742188,9.983158111572266 75.98075866699219,10.862255096435547 76.55487060546875,12.593841552734375 75.84114074707031,13.207244873046875 75.05168914794922,13.4368896484375 74.2156982421875,13.399505615234375 73.36158752441406,13.211822509765625 72.5179672241211,12.990665435791016 71.7132568359375,12.852859497070312 70.97606658935547,12.91513442993164 70.33538818359375,13.294219970703125 70.7672119140625,13.517951965332031 71.1233139038086,13.962078094482422 71.43173217773438,14.546871185302734 71.71897888183594,15.192699432373047 72.01271057128906,15.819931030273438 72.34039306640625,16.348838806152344 72.72891998291016,16.699790954589844 73.20556640625,16.793060302734375 72.97096252441406,17.37384796142578 72.71366119384766,17.578887939453125 72.43595123291016,17.513465881347656 72.13973999023438,17.28200912475586 71.82731628417969,16.989421844482422 71.5005874633789,16.74060821533203 71.16165161132812,16.640186309814453 70.81298828125,16.793060302734375 71.17424011230469,17.384719848632812 71.5108871459961,18.008136749267578 71.8435287475586,18.637847900390625 72.1923828125,19.248390197753906 72.57804870605469,19.814395904541016 73.02131652832031,20.310401916503906 73.54259490966797,20.71094512939453 74.16229248046875,20.990753173828125 73.9736557006836,21.436309814453125 73.74114990234375,21.56839370727539 73.47126007080078,21.47998809814453 73.16970825195312,21.264266967773438 72.84278869628906,21.014404296875 72.49622344970703,20.823383331298828 72.13668823242188,20.784473419189453 71.76971435546875,20.990753173828125 71.67339324951172,21.11492156982422 71.62971496582031,21.290111541748047 71.63028717041016,21.497821807861328 71.66690826416016,21.720027923583984 71.73137664794922,21.938514709472656 71.81549072265625,22.134971618652344 71.91085815429688,22.291278839111328 72.00927734375,22.38922119140625 71.07372283935547,22.807788848876953 70.12062072753906,23.016834259033203 69.1598892211914,23.136329650878906 68.20182800292969,23.286151885986328 67.25616455078125,23.586463928222656 66.3330078125,24.156951904296875 65.44189453125,25.117969512939453 64.593505859375,26.589202880859375 64.79263305664062,26.809310913085938 65.0533676147461,26.76372528076172 65.36369323730469,26.52912139892578 65.71102142333984,26.181697845458984 66.08314514160156,25.797653198242188 66.46785736083984,25.453567504882812 66.8527603149414,25.225543975830078 67.22564697265625,25.189971923828125 67.19017028808594,25.611114501953125 67.12837219238281,25.954723358154297 67.041015625,26.224231719970703 66.92962646484375,26.42345428466797 66.79534912109375,26.556015014648438 66.63932800292969,26.62525177001953 66.46308898925781,26.635169982910156 66.26739501953125,26.589202880859375 66.64085388183594,27.05821990966797 67.02823638916016,27.120494842529297 67.42916107177734,26.88741683959961 67.84305572509766,26.470375061035156 68.26934814453125,25.980758666992188 68.707275390625,25.529861450195312 69.15664672851562,25.229167938232422 69.61669921875,25.189971923828125 69.44465637207031,25.724220275878906 69.19975280761719,26.183223724365234 68.92166137695312,26.603317260742188 68.65005493164062,27.020645141601562 68.42460632324219,27.471351623535156 68.28460693359375,27.991962432861328 68.27011108398438,28.618335723876953 68.42041015625,29.38690185546875 68.6471939086914,30.028152465820312 68.84956359863281,30.15918731689453 69.03743743896484,29.918670654296875 69.22035217285156,29.44498062133789 69.40803527832031,28.876686096191406 69.61002349853516,28.35216522216797 69.83604431152344,28.009891510009766 70.0958251953125,27.988433837890625 70.04776000976562,28.459644317626953 69.96383666992188,28.82671356201172 69.85645294189453,29.12435531616211 69.73724365234375,29.387283325195312 69.61784362792969,29.650306701660156 69.51045989990234,29.947948455810547 69.42672729492188,30.315017700195312 69.378662109375,30.7861328125 69.9789047241211,32.265281677246094 70.56045532226562,33.80012512207031 71.13227844238281,35.36376953125 71.70352935791016,36.92970275878906 72.28317260742188,38.471126556396484 72.87979125976562,39.96143341064453 73.50330352783203,41.37392044067383 74.16229248046875,42.681884765625 74.13101196289062,41.09764099121094 74.02191162109375,39.2664909362793 73.85711669921875,37.27579116821289 73.65856170654297,35.21299362182617 73.44818115234375,33.16545486450195 73.24790954589844,31.220626831054688 73.07987213134766,29.465770721435547 72.96600341796875,27.988433837890625 73.24256896972656,28.23629379272461 73.49910736083984,28.993606567382812 73.74000549316406,30.132579803466797 73.97041320800781,31.525707244873047 74.19490814208984,33.045005798339844 74.41825866699219,34.56296920776367 74.64542388916016,35.95161437988281 74.8809814453125,37.08343505859375 74.9603271484375,36.829566955566406 74.98607635498047,36.292266845703125 74.9654769897461,35.5621337890625 74.90520477294922,34.729671478271484 74.81193542480469,33.88528823852539 74.69234466552734,33.11948776245117 74.55329895019531,32.52267837524414 74.40185546875,32.18536376953125 74.74861145019531,32.22856521606445 75.05378723144531,32.843780517578125 75.32272338867188,33.901309967041016 75.5605697631836,35.271453857421875 75.77323913574219,36.82441711425781 75.96626281738281,38.43040466308594 76.14517211914062,39.959716796875 76.3153076171875,41.28265380859375 76.82209014892578,41.812896728515625 77.27108001708984,42.511749267578125 77.68306732177734,43.319129943847656 78.0782699584961,44.174861907958984 78.47747802734375,45.0190544128418 78.9011001586914,45.79143524169922 79.36973571777344,46.43211364746094 79.9041748046875,46.881103515625 80.03730773925781,47.30987548828125 80.03406524658203,47.464561462402344 79.92210388183594,47.42097854614258 79.72946166992188,47.25475311279297 79.48379516601562,47.041988372802734 79.21314239501953,46.85821533203125 78.94535064697266,46.77925109863281 78.7078857421875,46.881103515625 79.2409896850586,47.50967025756836 79.8330307006836,47.96485900878906 80.47237396240234,48.281097412109375 81.14757537841797,48.49262237548828 81.84680938720703,48.63386154174805 82.55805969238281,48.7391471862793 83.26988220214844,48.842811584472656 83.97064208984375,48.97918701171875 83.90274047851562,49.30438995361328 83.81767272949219,49.579620361328125 83.71620178222656,49.808311462402344 83.60042572021484,49.99427795410156 83.47091674804688,50.1408576965332 83.32939147949219,50.25157928466797 83.17642211914062,50.330162048339844 83.013916015625,50.37994384765625 84.83409881591797,50.46672821044922 86.51199340820312,50.667476654052734 88.0889892578125,50.88787078857422 89.60762023925781,51.03340148925781 91.10946655273438,51.00975036621094 92.63648986816406,50.722408294677734 94.23046112060547,50.077056884765625 95.93353271484375,48.97918701171875 95.83606719970703,49.88431930541992 95.93276977539062,50.604820251464844 96.18339538574219,51.16605758666992 96.54731750488281,51.593780517578125 96.98410034179688,51.91335678100586 97.45330810546875,52.15015411376953 97.91412353515625,52.32992172241211 98.32611083984375,52.47802734375 98.20232391357422,53.16658020019531 98.03714752197266,53.73411178588867 97.83477783203125,54.19282913208008 97.59979248046875,54.55474853515625 97.33562469482422,54.83198165893555 97.0468521118164,55.03664016723633 96.73728942871094,55.18074035644531 96.4111328125,55.2764892578125 96.39453887939453,55.76286315917969 96.42333984375,56.11610412597656 96.49028778076172,56.35852813720703 96.58737182617188,56.511878967285156 96.70753479003906,56.5983772277832 96.84295654296875,56.640052795410156 96.98619842529297,56.65903091430664 97.12982177734375,56.67724609375 96.85554504394531,57.09867477416992 96.53244018554688,57.37781524658203 96.1771011352539,57.563114166259766 95.80631256103516,57.70282745361328 95.43647766113281,57.8455924987793 95.08380889892578,58.03956985473633 94.76547241210938,58.333396911621094 94.4976806640625,58.77532958984375 94.58236694335938,59.08393859863281 94.63577270507812,59.362220764160156 94.65694427490234,59.605979919433594 94.64569091796875,59.81159210205078 94.60086822509766,59.975242614746094 94.52171325683594,60.093021392822266 94.40765380859375,60.16120910644531 94.25811767578125,60.17608642578125 94.52095031738281,60.357666015625 94.82555389404297,60.50243377685547 95.16429901123047,60.60295104980469 95.53089141845703,60.651588439941406 95.9177017211914,60.640811920166016 96.31767272949219,60.562992095947266 96.72431945800781,60.41059494018555 97.12982177734375,60.17608642578125 96.56925201416016,61.161041259765625 95.95699310302734,61.99493408203125 95.3094482421875,62.725067138671875 94.64263916015625,63.39855194091797 93.97239685058594,64.06288146972656 93.31550598144531,64.76516723632812 92.68760681152344,65.55299758911133 92.1051025390625,66.473388671875 93.05877685546875,67.27018356323242 94.01283264160156,68.0654525756836 94.97203826904297,68.84613037109375 95.94039916992188,69.59896087646484 96.9228744506836,70.31078338623047 97.92404174804688,70.96853256225586 98.9480972290039,71.55895233154297 100.0,72.06878662109375 98.81706237792969,72.63240814208984 97.53684997558594,72.91116714477539 96.197509765625,73.01702499389648 94.83699798583984,73.06175231933594 93.49403381347656,73.15731048583984 92.2067642211914,73.41547012329102 91.01333618164062,73.94819259643555 89.95208740234375,74.86724853515625 90.21854400634766,75.98438262939453 90.56262969970703,76.58252716064453 90.97175598144531,76.79891586303711 91.43295288085938,76.77116394042969 91.9332504272461,76.63650512695312 92.4600601196289,76.53236389160156 93.0002212524414,76.59616470336914 93.54095458984375,76.96533203125 92.9849624633789,78.13224792480469 92.2231674194336,78.98635864257812 91.27998352050781,79.57992553710938 90.179443359375,79.96501922607422 88.94596099853516,80.19390106201172 87.60356903076172,80.31854629516602 86.17668151855469,80.39121627807617 84.6893310546875,80.46417236328125 85.2010726928711,81.3283920288086 85.8438491821289,81.81085586547852 86.5854263305664,82.00387954711914 87.39433288574219,81.99996948242188 88.23890686035156,81.89163208007812 89.08729553222656,81.7713737487793 89.9078369140625,81.73160552978516 90.66925048828125,81.86492919921875 90.40508270263672,82.75413513183594 89.98737335205078,83.19463729858398 89.47086334228516,83.34627151489258 88.91048431396484,83.3688735961914 88.360595703125,83.42208862304688 87.87574768066406,83.66584777832031 87.51068115234375,84.25979614257812 87.3199462890625,85.36376953125 86.44638061523438,85.47000885009766 85.614013671875,85.45541763305664 84.82894897460938,85.30292510986328 84.09671783447266,84.99507904052734 83.42361450195312,84.51461791992188 82.81536102294922,83.84437561035156 82.27806091308594,82.96689987182617 81.817626953125,81.86492919921875 80.68580627441406,81.61725997924805 79.4546127319336,81.23922348022461 78.15666198730469,80.80644607543945 76.8228530883789,80.39436340332031 75.48561096191406,80.0786018371582 74.17640686035156,79.93459701538086 72.92709350585938,80.0379753112793 71.76971435546875,80.46417236328125 71.78497314453125,80.68370819091797 71.82159423828125,80.83953857421875 71.87557220458984,80.94444274902344 71.94232940673828,81.01177215576172 72.0174789428711,81.05440139770508 72.09663391113281,81.08539581298828 72.17521667480469,81.11772537231445 72.24884033203125,81.16455078125 71.17061614990234,82.87792205810547 69.98939514160156,83.5855484008789 68.73512268066406,83.6080551147461 67.43850708007812,83.26587677001953 66.13025665283203,82.87982940673828 64.8406982421875,82.7702522277832 63.600730895996094,83.25786590576172 62.44049072265625,84.66339111328125 62.22724914550781,84.49907302856445 62.01496124267578,84.332275390625 61.79943084716797,84.17530059814453 61.57646179199219,84.0402603149414 61.34185791015625,83.93936157226562 61.09161376953125,83.88471603393555 60.821533203125,83.88853073120117 60.52703857421875,83.9630126953125 60.30597686767578,84.28802490234375 60.186004638671875,84.60149765014648 60.140037536621094,84.9252700805664 60.13984680175781,85.28099060058594 60.15815734863281,85.69068908691406 60.16731262207031,86.17620468139648 60.13984680175781,86.75918579101562 60.04791259765625,87.46185302734375 59.692955017089844,86.15617752075195 59.36241149902344,85.80360412597656 59.03491973876953,86.17639541625977 58.689117431640625,87.04719543457031 58.3038330078125,88.18855285644531 57.85789489746094,89.3728256225586 57.32994079589844,90.37275314331055 56.6986083984375,90.960693359375 56.54125213623047,90.96908569335938 56.365394592285156,90.88497161865234 56.177711486816406,90.74115753173828 55.983543395996094,90.56987762451172 55.7891845703125,90.40374755859375 55.60035705566406,90.27509689331055 55.42278289794922,90.2165412902832 55.26275634765625,90.26031494140625 54.937171936035156,90.62652587890625 54.64801788330078,91.16201400756836 54.38957214355469,91.75472259521484 54.155540466308594,92.29278564453125 53.940391540527344,92.66433715820312 53.73821258544922,92.75760650634766 53.5430908203125,92.46044158935547 53.34930419921875,91.66107177734375 53.043365478515625,92.16556549072266 52.805137634277344,92.80252456665039 52.63175964355469,93.5586929321289 52.52037048339844,94.42062377929688 52.46772766113281,95.37506103515625 52.47077941894531,96.40836715698242 52.52666473388672,97.50747680664062 52.63214111328125,98.65875244140625 51.909446716308594,99.72467422485352 51.191139221191406,99.99608993530273 50.484657287597656,99.6429443359375 49.796295166015625,98.83537292480469 49.13349151611328,97.74322509765625 48.50311279296875,96.53654098510742 47.91221618652344,95.38536071777344 47.36785888671875,94.45953369140625 47.22614288330078,94.9188232421875 47.15290069580078,95.5789566040039 47.113037109375,96.33617401123047 47.07069396972656,97.08728790283203 46.99077606201172,97.7285385131836 46.837806701660156,98.15645217895508 46.576690673828125,98.2675552368164 46.17156982421875,97.9583740234375 46.278953552246094,97.07908630371094 46.40178680419922,96.08650207519531 46.521568298339844,95.01314163208008 46.619224548339844,93.89114379882812 46.675872802734375,92.75283813476562 46.672630310058594,91.63055419921875 46.590614318847656,90.55643081665039 46.4111328125,89.56298828125 46.16584777832031,89.80693817138672 45.95756530761719,90.15893936157227 45.7855224609375,90.61765670776367 45.64952850341797,91.18156433105469 45.54882049560547,91.84913635253906 45.48301696777344,92.61894226074219 45.45173645019531,93.4896469116211 45.45440673828125,94.45953369140625 45.25260925292969,94.1741943359375 45.1080322265625,93.72272491455078 45.003318786621094,93.1539535522461 44.92225646972656,92.51670837402344 44.847869873046875,91.85981750488281 44.76356506347656,91.2322998046875 44.65217590332031,90.68279266357422 44.4976806640625,90.26031494140625 44.13585662841797,89.90745544433594 43.755531311035156,89.7740364074707 43.366050720214844,89.80083465576172 42.977333068847656,89.92843627929688 42.59929656982422,90.0975227355957 42.241859436035156,90.2486801147461 41.91455841064453,90.32278060913086 41.62750244140625,90.26031494140625 41.271209716796875,89.88456726074219 41.010093688964844,89.25800323486328 40.808677673339844,88.4221076965332 40.632057189941406,87.41874694824219 40.44532775878906,86.28959655761719 40.21320343017578,85.07652282714844 39.900970458984375,83.82120132446289 39.47296142578125,82.5653076171875 38.661766052246094,80.85136413574219 37.740135192871094,79.47654724121094 36.71283721923828,78.42864990234375 35.584259033203125,77.6956558227539 34.35859680175781,77.26507186889648 33.04023742675781,77.12469100952148 31.633949279785156,77.2623062133789 30.14373779296875,77.66571044921875 30.53569793701172,78.55873107910156 31.52599334716797,79.23851013183594 32.819366455078125,79.73403930664062 34.12036895751953,80.07431030273438 35.13374328613281,80.28841018676758 35.56365966796875,80.40542602539062 35.11543273925781,80.45434951782227 33.4930419921875,80.46417236328125 31.34002685546875,80.46417236328125 30.390548706054688,79.83036041259766 29.483795166015625,79.0715217590332 28.614425659179688,78.20320129394531 27.77729034423828,77.24113464355469 26.96666717529297,76.20115280151367 26.177597045898438,75.09889602661133 25.40416717529297,73.9501953125 24.64141845703125,72.77069091796875 22.622108459472656,75.13561248779297 20.842361450195312,77.61268615722656 19.210433959960938,80.13277053833008 17.634201049804688,82.62672424316406 16.021728515625,85.02559661865234 14.281082153320312,87.26024627685547 12.320518493652344,89.26162719726562 10.04791259765625,90.960693359375 10.144424438476562,89.50653076171875 10.377693176269531,88.6087417602539 10.721588134765625,88.12179565429688 11.149024963378906,87.90035247802734 11.633110046386719,87.79897689819336 12.147140502929688,87.67223358154297 12.664222717285156,87.37497329711914 13.15765380859375,86.761474609375 13.127326965332031,86.5015983581543 13.068962097167969,86.32335662841797 12.988090515136719,86.21063232421875 12.890052795410156,86.14730834960938 12.78076171875,86.11717224121094 12.665557861328125,86.10401153564453 12.55035400390625,86.09180450439453 12.44049072265625,86.06414794921875 12.582206726074219,85.51807403564453 12.772560119628906,85.11266708374023 12.996482849121094,84.80567932128906 13.239669799804688,84.55467224121094 13.487625122070312,84.31720733642578 13.725852966308594,84.0510368347168 13.939666748046875,83.71353149414062 14.1143798828125,83.26263427734375 14.132118225097656,83.88423919677734 14.19830322265625,84.20934677124023 14.311981201171875,84.29737091064453 14.471817016601562,84.20791625976562 14.676666259765625,84.00020599365234 14.925384521484375,83.73384475708008 15.217018127441406,83.4681510925293 15.55023193359375,83.26263427734375 15.423393249511719,82.2880744934082 15.229225158691406,81.67610168457031 14.985466003417969,81.35967254638672 14.709663391113281,81.27174377441406 14.419364929199219,81.34527206420898 14.132118225097656,81.5134048461914 13.865470886230469,81.70890808105469 13.63677978515625,81.86492919921875 12.461280822753906,82.86466598510742 11.213111877441406,84.40847396850586 9.90447998046875,86.20634078979492 8.547019958496094,87.96844482421875 7.1529388427734375,89.40505981445312 5.7342529296875,90.22607803344727 4.3025970458984375,90.14196395874023 2.87017822265625,88.86260986328125 2.9905319213867188,88.4267807006836 3.1740188598632812,88.1753921508789 3.3971786499023438,88.04073333740234 3.6373138427734375,87.9556655883789 3.8713455200195312,87.85266876220703 4.0760040283203125,87.66422271728516 4.228782653808594,87.322998046875 4.3060302734375,86.761474609375 4.004859924316406,85.87617874145508 3.7815093994140625,84.56544876098633 3.6314010620117188,82.9437255859375 3.5505294799804688,81.12506866455078 3.5341262817382812,79.22382354736328 3.5779953002929688,77.35424041748047 3.6775588989257812,75.63047409057617 3.82843017578125,74.1668701171875 3.4994125366210938,74.42951202392578 3.1497955322265625,74.63274002075195 2.7860641479492188,74.79372024536133 2.4137496948242188,74.92961883544922 2.0387649536132812,75.05779266357422 1.667022705078125,75.1953125 1.3044357299804688,75.35953521728516 0.95672607421875,75.567626953125 1.1861801147460938,74.75090026855469 1.517486572265625,74.23324584960938 1.9227981567382812,73.931884765625 2.3736953735351562,73.7640380859375 2.8417587280273438,73.64683151245117 3.2989501953125,73.49739074707031 3.7164688110351562,73.23293685913086 4.06646728515625,72.77069091796875 3.82537841796875,72.73149490356445 3.4626007080078125,72.66473770141602 3.0179977416992188,72.58968353271484 2.5310516357421875,72.52578735351562 2.0416259765625,72.49259948730469 1.5897750854492188,72.50938415527344 1.2149810791015625,72.59559631347656 0.95672607421875,72.77069091796875 0.7616043090820312,72.50099182128906 0.681304931640625,72.1487045288086 0.6868362426757812,71.7310905456543 0.7478713989257812,71.2656021118164 0.8350372314453125,70.76959609985352 0.9187698364257812,70.26033401489258 0.9691238403320312,69.75536346435547 0.95672607421875,69.2718505859375 0.7421493530273438,69.18716430664062 0.5544662475585938,69.41051483154297 0.3940582275390625,69.79999542236328 0.26092529296875,70.21369934082031 0.154876708984375,70.50971984863281 0.07610321044921875,70.54595947265625 0.0244140625,70.18070220947266 0.0,69.2718505859375 0.2227783203125,68.41096878051758 0.47817230224609375,67.5450325012207 0.7387161254882812,66.66202545166016 0.9786605834960938,65.74993133544922 1.1709213256835938,64.79692459106445 1.2889862060546875,63.7908935546875 1.3063430786132812,62.72001266479492 1.1962890625,61.572265625 1.6557693481445312,61.43054962158203 2.0868301391601562,61.20500564575195 2.4974822998046875,60.92023849487305 2.8966903686523438,60.601234436035156 3.2926559448242188,60.27250289916992 3.6937713623046875,59.958839416503906 4.108619689941406,59.68494415283203 4.54559326171875,59.4757080078125 4.510688781738281,58.965110778808594 4.3743133544921875,58.75110626220703 4.175376892089844,58.72058868408203 3.9522171020507812,58.760833740234375 3.7433624267578125,58.7590217590332 3.5875320434570312,58.602333068847656 3.52325439453125,58.177947998046875 3.5888671875,57.373046875 4.390716552734375,56.5704345703125 5.2028656005859375,55.67207336425781 5.999565124511719,54.67805862426758 6.755256652832031,53.58867645263672 7.444000244140625,52.403926849365234 8.040237426757812,51.124000549316406 8.518028259277344,49.748802185058594 8.85162353515625,48.27880859375 8.950614929199219,48.39620590209961 8.99505615234375,48.51846694946289 8.99810791015625,48.6515998840332 8.972930908203125,48.801231384277344 8.9324951171875,48.97308349609375 8.890151977539062,49.1729736328125 8.858871459960938,49.40652847290039 8.85162353515625,49.6795654296875 9.895896911621094,48.310184478759766 11.018180847167969,46.69189453125 12.214279174804688,44.969749450683594 13.479232788085938,43.28889846801758 14.808845520019531,41.794681549072266 16.198348999023438,40.63224792480469 17.643356323242188,39.946746826171875 19.13909912109375,39.8834228515625 19.055557250976562,39.19334411621094 18.96495819091797,38.83256912231445 18.861961364746094,38.72241973876953 18.740081787109375,38.78450393676758 18.593215942382812,38.94014358520508 18.415451049804688,39.1108512878418 18.20068359375,39.21794891357422 17.94281005859375,39.18304443359375 18.07537078857422,38.355255126953125 18.280982971191406,37.90388107299805 18.54248046875,37.746429443359375 18.84307861328125,37.80059814453125 19.165802001953125,37.98389434814453 19.49329376220703,38.21401596069336 19.8089599609375,38.408470153808594 20.0958251953125,38.484954833984375 19.81830596923828,37.726783752441406 19.758033752441406,37.31508255004883 19.87152099609375,37.172508239746094 20.11566162109375,37.221431732177734 20.447158813476562,37.3845100402832 20.82233428955078,37.58430480957031 21.198463439941406,37.743186950683594 21.53167724609375,37.7838134765625 21.0113525390625,36.821651458740234 20.401954650878906,36.35368347167969 19.73285675048828,36.2828254699707 19.033050537109375,36.511898040771484 18.331527709960938,36.943817138671875 17.65727996826172,37.48130798339844 17.03948974609375,38.0274772644043 16.5069580078125,38.484954833984375 17.0623779296875,36.76605224609375 17.845916748046875,35.64414978027344 18.78376007080078,35.06631851196289 19.802474975585938,34.97962951660156 20.827865600585938,35.331058502197266 21.785926818847656,36.067771911621094 22.603225708007812,37.13665008544922 23.20556640625,38.484954833984375 24.535560607910156,37.47587203979492 25.965118408203125,36.759185791015625 27.46429443359375,36.24534606933594 29.001998901367188,35.84480285644531 30.54790496826172,35.468101501464844 32.07130432128906,35.025978088378906 33.5418701171875,34.42869186401367 34.92889404296875,33.586883544921875 34.31129455566406,34.49268341064453 33.661651611328125,35.30387878417969 32.981300354003906,36.0260009765625 32.27252960205078,36.66419982910156 31.536865234375,37.22400665283203 30.776214599609375,37.71038055419922 29.992294311523438,38.12894821166992 29.18701171875,38.484954833984375 31.34021759033203,37.76674270629883 33.70838165283203,37.27607727050781 36.17115020751953,36.814212799072266 38.608360290527344,36.18268966674805 40.899658203125,35.182952880859375 42.92449951171875,33.61635208129883 44.562721252441406,31.284332275390625" stroke="white" stroke-width="0.1" /></svg>