<?xml version="1.0" encoding="utf-8" ?>
<svg baseProfile="full" height="100.0" version="1.1" width="100.0" xmlns="http://www.w3.org/2000/svg" xmlns:ev="http://www.w3.org/2001/xml-events" xmlns:xlink="http://www.w3.org/1999/xlink"><defs><clipPath /></defs><polygon points="100.0,50.0 98.9842414855957,60.076904296875 96.07081413269043,69.46229934692383 91.46089553833008,77.95562744140625 85.35547256469727,85.35547256469727 77.95562744140625,91.46080017089844 69.46239471435547,96.07076644897461 60.07685661315918,98.9842414855957 50.0,100.0 39.923095703125,98.98433685302734 30.53760528564453,96.07076644897461 22.04437255859375,91.46080017089844 14.644527435302734,85.35547256469727 8.539104461669922,77.95562744140625 3.9291858673095703,69.46239471435547 1.0158061981201172,60.076904296875 0.0,50.0 1.0158538818359375,39.92319107055664 3.9291858673095703,30.53750991821289 8.539104461669922,22.04437255859375 14.644527435302734,14.644527435302734 22.04437255859375,8.539104461669922 30.53760528564453,3.92913818359375 39.92314338684082,1.0158538818359375 50.0,0.0 60.07680892944336,1.0159492492675781 69.46239471435547,3.92913818359375 77.95572280883789,8.539104461669922 85.35547256469727,14.644527435302734 91.46089553833008,22.04437255859375 96.07081413269043,30.53760528564453 98.9842414855957,39.92319107055664 100.0,50.0 100.0,50.0 98.9842414855957,60.076904296875 98.9842414855957,60.076904296875 96.07081413269043,69.46229934692383 96.07081413269043,69.46229934692383 91.46089553833008,77.95562744140625 91.46089553833008,77.95562744140625 85.35547256469727,85.35547256469727 85.35547256469727,85.35547256469727 77.95562744140625,91.46080017089844 77.95562744140625,91.46080017089844 69.46239471435547,96.07076644897461 69.46239471435547,96.07076644897461 60.07685661315918,98.9842414855957 60.07685661315918,98.9842414855957 50.0,100.0 50.0,100.0 39.923095703125,98.98433685302734 39.923095703125,98.98433685302734 30.53760528564453,96.07076644897461 30.53760528564453,96.07076644897461 22.04437255859375,91.46080017089844 22.04437255859375,91.46080017089844 14.644527435302734,85.35547256469727 14.644527435302734,85.35547256469727 8.539104461669922,77.95562744140625 8.539104461669922,77.95562744140625 3.9291858673095703,69.46239471435547 3.9291858673095703,69.46239471435547 1.0158061981201172,60.076904296875 1.0158061981201172,60.076904296875 0.0,50.0 0.0,50.0 1.0158538818359375,39.92319107055664 1.0158538818359375,39.92319107055664 3.9291858673095703,30.53750991821289 3.9291858673095703,30.53750991821289 8.539104461669922,22.04437255859375 8.539104461669922,22.04437255859375 14.644527435302734,14.644527435302734 14.644527435302734,14.644527435302734 22.04437255859375,8.539104461669922 22.04437255859375,8.539104461669922 30.53760528564453,3.92913818359375 30.53760528564453,3.92913818359375 39.92314338684082,1.0158538818359375 39.92314338684082,1.0158538818359375 50.0,0.0 50.0,0.0 60.07680892944336,1.0159492492675781 60.07680892944336,1.0159492492675781 69.46239471435547,3.92913818359375 69.46239471435547,3.92913818359375 77.95572280883789,8.539104461669922 77.95572280883789,8.539104461669922 85.35547256469727,14.644527435302734 85.35547256469727,14.644527435302734 91.46089553833008,22.04437255859375 91.46089553833008,22.04437255859375 96.07081413269043,30.53760528564453 96.07081413269043,30.53760528564453 98.9842414855957,39.92319107055664 98.9842414855957,39.92319107055664" stroke="white" stroke-width="0.1" /></svg>