<?xml version="1.0" encoding="utf-8" ?>
<svg baseProfile="full" height="50.0" version="1.1" width="100.0" xmlns="http://www.w3.org/2000/svg" xmlns:ev="http://www.w3.org/2001/xml-events" xmlns:xlink="http://www.w3.org/1999/xlink"><defs><clipPath /></defs><polygon points="100.0,50.0 100.0,50.0 76.5625,50.0 76.5625,50.0 76.02291107177734,44.646644592285156 76.02291107177734,44.646644592285156 74.47500228881836,39.66045379638672 74.47500228881836,39.66045379638672 72.02587127685547,35.14842987060547 72.02587127685547,35.14842987060547 68.78242492675781,31.217288970947266 68.78242492675781,31.217288970947266 64.85128402709961,27.97374725341797 64.85128402709961,27.97374725341797 60.33926010131836,25.52480697631836 60.33926010131836,25.52480697631836 55.35316467285156,23.977279663085938 55.35316467285156,23.977279663085938 50.0,23.4375 50.0,23.4375 44.64683532714844,23.977184295654297 44.64683532714844,23.977184295654297 39.66083526611328,25.52480697631836 39.66083526611328,25.52480697631836 35.14881134033203,27.97374725341797 35.14881134033203,27.97374725341797 31.217575073242188,31.217288970947266 31.217575073242188,31.217288970947266 27.97403335571289,35.14842987060547 27.97403335571289,35.14842987060547 25.52490234375,39.66035842895508 25.52490234375,39.66035842895508 23.977184295654297,44.646644592285156 23.977184295654297,44.646644592285156 23.4375,50.0 23.4375,50.0 0.0,50.0 0.0,50.0 1.0158538818359375,39.92319107055664 1.0158538818359375,39.92319107055664 3.9290428161621094,30.53760528564453 3.9290428161621094,30.53760528564453 8.53891372680664,22.04437255859375 8.53891372680664,22.04437255859375 14.644241333007812,14.644527435302734 14.644241333007812,14.644527435302734 22.044086456298828,8.539104461669922 22.044086456298828,8.539104461669922 30.53731918334961,3.92913818359375 30.53731918334961,3.92913818359375 39.92290496826172,1.0159492492675781 39.92290496826172,1.0159492492675781 50.0,0.0 50.0,0.0 60.07661819458008,1.0158538818359375 60.07661819458008,1.0158538818359375 69.4620132446289,3.92913818359375 69.4620132446289,3.92913818359375 77.95524597167969,8.539104461669922 77.95524597167969,8.539104461669922 85.35518646240234,14.644527435302734 85.35518646240234,14.644527435302734 91.4607048034668,22.04437255859375 91.4607048034668,22.04437255859375 96.07067108154297,30.53750991821289 96.07067108154297,30.53750991821289 98.98414611816406,39.92319107055664 98.98414611816406,39.92319107055664" stroke="white" stroke-width="0.1" /><polygon points="100.0,50.0 76.5625,50.0 76.02291107177734,44.646644592285156 74.47500228881836,39.66045379638672 72.02587127685547,35.14842987060547 68.78242492675781,31.217288970947266 64.85128402709961,27.97374725341797 60.33926010131836,25.52480697631836 55.35316467285156,23.977279663085938 50.0,23.4375 44.64683532714844,23.977184295654297 39.66083526611328,25.52480697631836 35.14881134033203,27.97374725341797 31.217575073242188,31.217288970947266 27.97403335571289,35.14842987060547 25.52490234375,39.66035842895508 23.977184295654297,44.646644592285156 23.4375,50.0 0.0,50.0 1.0158538818359375,39.92319107055664 3.9290428161621094,30.53760528564453 8.53891372680664,22.04437255859375 14.644241333007812,14.644527435302734 22.044086456298828,8.539104461669922 30.53731918334961,3.92913818359375 39.92290496826172,1.0159492492675781 50.0,0.0 60.07661819458008,1.0158538818359375 69.4620132446289,3.92913818359375 77.95524597167969,8.539104461669922 85.35518646240234,14.644527435302734 91.4607048034668,22.04437255859375 96.07067108154297,30.53750991821289 98.98414611816406,39.92319107055664" stroke="white" stroke-width="0.1" /></svg>