<?xml version="1.0" encoding="utf-8" ?>
<svg baseProfile="full" height="19.658203423023224" version="1.1" width="100.0" xmlns="http://www.w3.org/2000/svg" xmlns:ev="http://www.w3.org/2001/xml-events" xmlns:xlink="http://www.w3.org/1999/xlink"><defs><clipPath /></defs><polygon points="2.564453147351742,0.0 3.3507078886032104,3.089538589119911 5.214477702975273,5.299774184823036 7.886352390050888,6.766357272863388 11.096618324518204,7.6249390840530396 14.575867354869843,8.011169731616974 18.05456578731537,8.060730248689651 21.263183653354645,7.9092711210250854 23.93212914466858,7.692382484674454 33.02661180496216,6.636230647563934 42.530396580696106,5.230407789349556 52.298033237457275,3.7701722234487534 62.183958292007446,2.550598233938217 72.0426619052887,1.866912841796875 81.72857761383057,2.0143432542681694 91.09625220298767,3.287902846932411 100.0,5.982910096645355 88.24743628501892,5.752929672598839 76.4223039150238,6.995605677366257 64.45422172546387,9.251678735017776 52.27252244949341,12.061767280101776 39.80676233768463,14.966705441474915 26.98644995689392,17.507293820381165 13.741028308868408,19.22418177127838 0.0,19.658203423023224 2.564453147351742,0.0 2.564453147351742,0.0 3.3507078886032104,3.089538589119911 3.3507078886032104,3.089538589119911 5.214477702975273,5.299774184823036 5.214477702975273,5.299774184823036 7.886352390050888,6.766357272863388 7.886352390050888,6.766357272863388 11.096618324518204,7.6249390840530396 11.096618324518204,7.6249390840530396 14.575867354869843,8.011169731616974 14.575867354869843,8.011169731616974 18.05456578731537,8.060730248689651 18.05456578731537,8.060730248689651 21.263183653354645,7.9092711210250854 21.263183653354645,7.9092711210250854 23.93212914466858,7.692382484674454 23.93212914466858,7.692382484674454 33.02661180496216,6.636230647563934 33.02661180496216,6.636230647563934 42.530396580696106,5.230407789349556 42.530396580696106,5.230407789349556 52.298033237457275,3.7701722234487534 52.298033237457275,3.7701722234487534 62.183958292007446,2.550598233938217 62.183958292007446,2.550598233938217 72.0426619052887,1.866912841796875 72.0426619052887,1.866912841796875 81.72857761383057,2.0143432542681694 81.72857761383057,2.0143432542681694 91.09625220298767,3.287902846932411 91.09625220298767,3.287902846932411 100.0,5.982910096645355 100.0,5.982910096645355 88.24743628501892,5.752929672598839 88.24743628501892,5.752929672598839 76.4223039150238,6.995605677366257 76.4223039150238,6.995605677366257 64.45422172546387,9.251678735017776 64.45422172546387,9.251678735017776 52.27252244949341,12.061767280101776 52.27252244949341,12.061767280101776 39.80676233768463,14.966705441474915 39.80676233768463,14.966705441474915 26.98644995689392,17.507293820381165 26.98644995689392,17.507293820381165 13.741028308868408,19.22418177127838 13.741028308868408,19.22418177127838 0.0,19.658203423023224 0.0,19.658203423023224" stroke="white" stroke-width="0.1" /></svg>