<?xml version="1.0" encoding="utf-8" ?>
<svg baseProfile="full" height="57.21604824066162" version="1.1" width="100.0" xmlns="http://www.w3.org/2000/svg" xmlns:ev="http://www.w3.org/2001/xml-events" xmlns:xlink="http://www.w3.org/1999/xlink"><defs><clipPath /></defs><polygon points="100.0,46.388426423072815 99.69430565834045,46.85366451740265 98.7575352191925,48.080241680145264 97.1603274345398,49.814364314079285 94.87317204475403,51.8022358417511 91.86654090881348,53.79011034965515 88.11091184616089,55.52423596382141 83.57692360877991,56.75081014633179 78.23505997657776,57.21604824066162 74.56702589988708,56.96782469749451 71.04482054710388,56.244516372680664 67.69877672195435,55.07798790931702 64.55889344215393,53.50026488304138 61.65550351142883,51.54324173927307 59.01893377304077,49.23882484436035 56.67950510978699,46.61898910999298 54.66723442077637,43.71572136878967 14.803773164749146,43.71830224990845 11.821337789297104,43.406474590301514 9.043129533529282,42.51580238342285 6.528675556182861,41.10770225524902 4.337501898407936,39.243680238723755 2.5292951613664627,36.9850754737854 1.164066232740879,34.39339101314545 0.3010182408615947,31.53000771999359 0.0,28.456386923789978 0.3010182408615947,25.382643938064575 1.164066232740879,22.52143919467926 2.5292951613664627,19.933585822582245 4.337501898407936,17.6799014210701 6.528675556182861,15.82116186618805 9.043129533529282,14.41822499036789 11.821498721837997,13.531826436519623 14.803773164749146,13.222862780094147 54.82855439186096,13.222862780094147 56.84921145439148,10.375208407640457 59.186381101608276,7.807358354330063 61.81117296218872,5.550044029951096 64.69472050666809,3.6341581493616104 67.80782341957092,2.0904313772916794 71.12160921096802,0.9495947510004044 74.60703253746033,0.2425406826660037 78.23505997657776,0.0 83.55110883712769,0.45217261649668217 88.0515456199646,1.6442274674773216 91.76942706108093,3.3295907080173492 94.73750591278076,5.261527746915817 96.98868989944458,7.193464785814285 98.55604767799377,8.878827840089798 99.47217106819153,10.070882737636566 99.77028369903564,10.523055493831635 75.86304545402527,10.523055493831635 65.79813361167908,28.456386923789978 75.86304545402527,46.388426423072815 100.0,46.388426423072815 100.0,46.388426423072815 99.69430565834045,46.85366451740265 99.69430565834045,46.85366451740265 98.7575352191925,48.080241680145264 98.7575352191925,48.080241680145264 97.1603274345398,49.814364314079285 97.1603274345398,49.814364314079285 94.87317204475403,51.8022358417511 94.87317204475403,51.8022358417511 91.86654090881348,53.79011034965515 91.86654090881348,53.79011034965515 88.11091184616089,55.52423596382141 88.11091184616089,55.52423596382141 83.57692360877991,56.75081014633179 83.57692360877991,56.75081014633179 78.23505997657776,57.21604824066162 78.23505997657776,57.21604824066162 74.56702589988708,56.96782469749451 74.56702589988708,56.96782469749451 71.04482054710388,56.244516372680664 71.04482054710388,56.244516372680664 67.69877672195435,55.07798790931702 67.69877672195435,55.07798790931702 64.55889344215393,53.50026488304138 64.55889344215393,53.50026488304138 61.65550351142883,51.54324173927307 61.65550351142883,51.54324173927307 59.01893377304077,49.23882484436035 59.01893377304077,49.23882484436035 56.67950510978699,46.61898910999298 56.67950510978699,46.61898910999298 54.66723442077637,43.71572136878967 54.66723442077637,43.71572136878967 14.803773164749146,43.71830224990845 14.803773164749146,43.71830224990845 11.821337789297104,43.406474590301514 11.821337789297104,43.406474590301514 9.043129533529282,42.51580238342285 9.043129533529282,42.51580238342285 6.528675556182861,41.10770225524902 6.528675556182861,41.10770225524902 4.337501898407936,39.243680238723755 4.337501898407936,39.243680238723755 2.5292951613664627,36.9850754737854 2.5292951613664627,36.9850754737854 1.164066232740879,34.39339101314545 1.164066232740879,34.39339101314545 0.3010182408615947,31.53000771999359 0.3010182408615947,31.53000771999359 0.0,28.456386923789978 0.0,28.456386923789978 0.3010182408615947,25.382643938064575 0.3010182408615947,25.382643938064575 1.164066232740879,22.52143919467926 1.164066232740879,22.52143919467926 2.5292951613664627,19.933585822582245 2.5292951613664627,19.933585822582245 4.337501898407936,17.6799014210701 4.337501898407936,17.6799014210701 6.528675556182861,15.82116186618805 6.528675556182861,15.82116186618805 9.043129533529282,14.41822499036789 9.043129533529282,14.41822499036789 11.821498721837997,13.531826436519623 11.821498721837997,13.531826436519623 14.803773164749146,13.222862780094147 14.803773164749146,13.222862780094147 54.82855439186096,13.222862780094147 54.82855439186096,13.222862780094147 56.84921145439148,10.375208407640457 56.84921145439148,10.375208407640457 59.186381101608276,7.807358354330063 59.186381101608276,7.807358354330063 61.81117296218872,5.550044029951096 61.81117296218872,5.550044029951096 64.69472050666809,3.6341581493616104 64.69472050666809,3.6341581493616104 67.80782341957092,2.0904313772916794 67.80782341957092,2.0904313772916794 71.12160921096802,0.9495947510004044 71.12160921096802,0.9495947510004044 74.60703253746033,0.2425406826660037 74.60703253746033,0.2425406826660037 78.23505997657776,0.0 78.23505997657776,0.0 83.55110883712769,0.45217261649668217 83.55110883712769,0.45217261649668217 88.0515456199646,1.6442274674773216 88.0515456199646,1.6442274674773216 91.76942706108093,3.3295907080173492 91.76942706108093,3.3295907080173492 94.73750591278076,5.261527746915817 94.73750591278076,5.261527746915817 96.98868989944458,7.193464785814285 96.98868989944458,7.193464785814285 98.55604767799377,8.878827840089798 98.55604767799377,8.878827840089798 99.47217106819153,10.070882737636566 99.47217106819153,10.070882737636566 99.77028369903564,10.523055493831635 99.77028369903564,10.523055493831635 75.86304545402527,10.523055493831635 75.86304545402527,10.523055493831635 65.79813361167908,28.456386923789978 65.79813361167908,28.456386923789978 75.86304545402527,46.388426423072815 75.86304545402527,46.388426423072815" stroke="white" stroke-width="0.1" /></svg>