<?xml version="1.0" encoding="utf-8" ?>
<svg baseProfile="full" height="99.97062683105469" version="1.1" width="54.56695556640625" xmlns="http://www.w3.org/2000/svg" xmlns:ev="http://www.w3.org/2001/xml-events" xmlns:xlink="http://www.w3.org/1999/xlink"><defs><clipPath /></defs><polygon points="24.9114990234375,48.209381103515625 24.9114990234375,48.209381103515625 24.985027313232422,46.06761932373047 24.985027313232422,46.06761932373047 25.178146362304688,43.8262939453125 25.178146362304688,43.8262939453125 25.45175552368164,41.60423278808594 25.45175552368164,41.60423278808594 25.765228271484375,39.52007293701172 25.765228271484375,39.52007293701172 26.07870101928711,37.69245147705078 26.07870101928711,37.69245147705078 26.35211944580078,36.2401008605957 26.35211944580078,36.2401008605957 26.54552459716797,35.28156280517578 26.54552459716797,35.28156280517578 26.61895751953125,34.935760498046875 26.61895751953125,34.935760498046875 26.991939544677734,33.80146026611328 26.991939544677734,33.80146026611328 27.563858032226562,32.8150749206543 27.563858032226562,32.8150749206543 28.30667495727539,31.99319839477539 28.30667495727539,31.99319839477539 29.19158935546875,31.35223388671875 29.19158935546875,31.35223388671875 30.190086364746094,30.908679962158203 30.190086364746094,30.908679962158203 31.273555755615234,30.679035186767578 31.273555755615234,30.679035186767578 32.413673400878906,30.679702758789062 32.413673400878906,30.679702758789062 33.58154296875,30.927276611328125 33.58154296875,30.927276611328125 34.48333740234375,31.237030029296875 34.48333740234375,31.237030029296875 36.86065673828125,32.143592834472656 36.86065673828125,32.143592834472656 40.221309661865234,33.612918853759766 40.221309661865234,33.612918853759766 44.074249267578125,35.6109619140625 44.074249267578125,35.6109619140625 47.926998138427734,38.103675842285156 47.926998138427734,38.103675842285156 51.28803253173828,41.05701446533203 51.28803253173828,41.05701446533203 53.66535186767578,44.43693161010742 53.66535186767578,44.43693161010742 54.56695556640625,48.209381103515625 54.56695556640625,48.209381103515625 53.66525650024414,51.981353759765625 53.66525650024414,51.981353759765625 51.28793716430664,55.361080169677734 51.28793716430664,55.361080169677734 47.926998138427734,58.31441879272461 47.926998138427734,58.31441879272461 44.074249267578125,60.807228088378906 44.074249267578125,60.807228088378906 40.221405029296875,62.80546188354492 40.221405029296875,62.80546188354492 36.86056137084961,64.27497863769531 36.86056137084961,64.27497863769531 34.48333740234375,65.18163681030273 34.48333740234375,65.18163681030273 33.58154296875,65.49148559570312 33.58154296875,65.49148559570312 32.413578033447266,65.73867797851562 32.413578033447266,65.73867797851562 31.273651123046875,65.73905944824219 31.273651123046875,65.73905944824219 30.189990997314453,65.50941467285156 30.189990997314453,65.50941467285156 29.19158935546875,65.06595611572266 29.19158935546875,65.06595611572266 28.30667495727539,64.42508697509766 28.30667495727539,64.42508697509766 27.563858032226562,63.60340118408203 27.563858032226562,63.60340118408203 26.991844177246094,62.61720657348633 26.991844177246094,62.61720657348633 26.61895751953125,61.483001708984375 26.61895751953125,61.483001708984375 26.54571533203125,61.13710403442383 26.54571533203125,61.13710403442383 26.352214813232422,60.178470611572266 26.352214813232422,60.178470611572266 26.07860565185547,58.725929260253906 26.07860565185547,58.725929260253906 25.765228271484375,56.89811706542969 25.765228271484375,56.89811706542969 25.45175552368164,54.81386184692383 25.45175552368164,54.81386184692383 25.178241729736328,52.591800689697266 25.178241729736328,52.591800689697266 24.98493194580078,50.35076141357422 24.98493194580078,50.35076141357422" stroke="white" stroke-width="0.1" /><polygon points="1.708984375,30.832672119140625 1.708984375,30.832672119140625 1.6355514526367188,30.48686981201172 1.6355514526367188,30.48686981201172 1.44195556640625,29.528331756591797 1.44195556640625,29.528331756591797 1.1683464050292969,28.07598114013672 1.1683464050292969,28.07598114013672 0.8544921875,26.248550415039062 0.8544921875,26.248550415039062 0.5407333374023438,24.164581298828125 0.5407333374023438,24.164581298828125 0.26702880859375,21.942806243896484 0.26702880859375,21.942806243896484 0.0732421875,19.70195770263672 0.0732421875,19.70195770263672 0.0,17.560577392578125 0.0,17.560577392578125 0.07343292236328125,15.418815612792969 0.07343292236328125,15.418815612792969 0.26702880859375,13.177490234375 0.26702880859375,13.177490234375 0.5407333374023438,10.955429077148438 0.5407333374023438,10.955429077148438 0.8544921875,8.871269226074219 0.8544921875,8.871269226074219 1.1682510375976562,7.043600082397461 1.1682510375976562,7.043600082397461 1.44195556640625,5.591297149658203 1.44195556640625,5.591297149658203 1.6354560852050781,4.632806777954102 1.6354560852050781,4.632806777954102 1.708984375,4.286956787109375 1.708984375,4.286956787109375 2.081298828125,3.152179718017578 2.081298828125,3.152179718017578 2.6531219482421875,2.165651321411133 2.6531219482421875,2.165651321411133 3.3957481384277344,1.3436317443847656 3.3957481384277344,1.3436317443847656 4.2804718017578125,0.702667236328125 4.2804718017578125,0.702667236328125 5.279064178466797,0.2590656280517578 5.279064178466797,0.2590656280517578 6.362628936767578,0.029325485229492188 6.362628936767578,0.029325485229492188 7.503032684326172,0.029850006103515625 7.503032684326172,0.029850006103515625 8.67156982421875,0.276947021484375 8.67156982421875,0.276947021484375 9.573173522949219,0.5867958068847656 9.573173522949219,0.5867958068847656 11.950302124023438,1.4935016632080078 11.950302124023438,1.4935016632080078 15.310955047607422,2.9630661010742188 15.310955047607422,2.9630661010742188 19.16351318359375,4.961395263671875 19.16351318359375,4.961395263671875 23.016071319580078,7.454347610473633 23.016071319580078,7.454347610473633 26.376724243164062,10.40802001953125 26.376724243164062,10.40802001953125 28.75375747680664,13.788032531738281 28.75375747680664,13.788032531738281 29.65545654296875,17.560577392578125 29.65545654296875,17.560577392578125 28.75375747680664,21.332550048828125 28.75375747680664,21.332550048828125 26.376724243164062,24.712276458740234 26.376724243164062,24.712276458740234 23.016071319580078,27.66561508178711 23.016071319580078,27.66561508178711 19.16351318359375,30.158424377441406 19.16351318359375,30.158424377441406 15.310955047607422,32.15656280517578 15.310955047607422,32.15656280517578 11.950302124023438,33.62617492675781 11.950302124023438,33.62617492675781 9.57326889038086,34.532928466796875 9.57326889038086,34.532928466796875 8.67156982421875,34.842681884765625 8.67156982421875,34.842681884765625 7.5031280517578125,35.089874267578125 7.5031280517578125,35.089874267578125 6.362724304199219,35.09025573730469 6.362724304199219,35.09025573730469 5.279064178466797,34.86051559448242 5.279064178466797,34.86051559448242 4.2804718017578125,34.416961669921875 4.2804718017578125,34.416961669921875 3.395557403564453,33.775997161865234 3.395557403564453,33.775997161865234 2.6531219482421875,32.95402526855469 2.6531219482421875,32.95402526855469 2.0813941955566406,31.96735382080078 2.0813941955566406,31.96735382080078" stroke="white" stroke-width="0.1" /><polygon points="1.708984375,95.71304321289062 1.708984375,95.71304321289062 1.6355514526367188,95.36724090576172 1.6355514526367188,95.36724090576172 1.44195556640625,94.4087028503418 1.44195556640625,94.4087028503418 1.1683464050292969,92.95635223388672 1.1683464050292969,92.95635223388672 0.8544921875,91.12873077392578 0.8544921875,91.12873077392578 0.5407333374023438,89.04457092285156 0.5407333374023438,89.04457092285156 0.26702880859375,86.822509765625 0.26702880859375,86.822509765625 0.0732421875,84.58118438720703 0.0732421875,84.58118438720703 0.0,82.43942260742188 0.0,82.43942260742188 0.07343292236328125,80.29766082763672 0.07343292236328125,80.29766082763672 0.26702880859375,78.05633544921875 0.26702880859375,78.05633544921875 0.5407333374023438,75.83427429199219 0.5407333374023438,75.83427429199219 0.8544921875,73.75011444091797 0.8544921875,73.75011444091797 1.1682510375976562,71.92249298095703 1.1682510375976562,71.92249298095703 1.44195556640625,70.47014236450195 1.44195556640625,70.47014236450195 1.6354560852050781,69.51160430908203 1.6354560852050781,69.51160430908203 1.708984375,69.16580200195312 1.708984375,69.16580200195312 2.081298828125,68.03150177001953 2.081298828125,68.03150177001953 2.6531219482421875,67.04540252685547 2.6531219482421875,67.04540252685547 3.3957481384277344,66.22371673583984 3.3957481384277344,66.22371673583984 4.2804718017578125,65.58284759521484 4.2804718017578125,65.58284759521484 5.279064178466797,65.13938903808594 5.279064178466797,65.13938903808594 6.362628936767578,64.90964889526367 6.362628936767578,64.90964889526367 7.503032684326172,64.91012573242188 7.503032684326172,64.91012573242188 8.67156982421875,65.15731811523438 8.67156982421875,65.15731811523438 9.573173522949219,65.46707153320312 9.573173522949219,65.46707153320312 11.950302124023438,66.37382507324219 11.950302124023438,66.37382507324219 15.310955047607422,67.84334182739258 15.310955047607422,67.84334182739258 19.16351318359375,69.8415756225586 19.16351318359375,69.8415756225586 23.016071319580078,72.33438491821289 23.016071319580078,72.33438491821289 26.376724243164062,75.28772354125977 26.376724243164062,75.28772354125977 28.75375747680664,78.66744995117188 28.75375747680664,78.66744995117188 29.65545654296875,82.43942260742188 29.65545654296875,82.43942260742188 28.75375747680664,86.21196746826172 28.75375747680664,86.21196746826172 26.376724243164062,89.59197998046875 26.376724243164062,89.59197998046875 23.016071319580078,92.54560470581055 23.016071319580078,92.54560470581055 19.16351318359375,95.03860473632812 19.16351318359375,95.03860473632812 15.310955047607422,97.03693389892578 15.310955047607422,97.03693389892578 11.950302124023438,98.50654602050781 11.950302124023438,98.50654602050781 9.57326889038086,99.41329956054688 9.57326889038086,99.41329956054688 8.67156982421875,99.72305297851562 8.67156982421875,99.72305297851562 7.5031280517578125,99.97024536132812 7.5031280517578125,99.97024536132812 6.362724304199219,99.97062683105469 6.362724304199219,99.97062683105469 5.279064178466797,99.74098205566406 5.279064178466797,99.74098205566406 4.2804718017578125,99.29733276367188 4.2804718017578125,99.29733276367188 3.395557403564453,98.65636825561523 3.395557403564453,98.65636825561523 2.6531219482421875,97.83439636230469 2.6531219482421875,97.83439636230469 2.0813941955566406,96.84782028198242 2.0813941955566406,96.84782028198242" stroke="white" stroke-width="0.1" /><polygon points="24.9114990234375,48.209381103515625 24.985027313232422,46.06761932373047 25.178146362304688,43.8262939453125 25.45175552368164,41.60423278808594 25.765228271484375,39.52007293701172 26.07870101928711,37.69245147705078 26.35211944580078,36.2401008605957 26.54552459716797,35.28156280517578 26.61895751953125,34.935760498046875 26.991939544677734,33.80146026611328 27.563858032226562,32.8150749206543 28.30667495727539,31.99319839477539 29.19158935546875,31.35223388671875 30.190086364746094,30.908679962158203 31.273555755615234,30.679035186767578 32.413673400878906,30.679702758789062 33.58154296875,30.927276611328125 34.48333740234375,31.237030029296875 36.86065673828125,32.143592834472656 40.221309661865234,33.612918853759766 44.074249267578125,35.6109619140625 47.926998138427734,38.103675842285156 51.28803253173828,41.05701446533203 53.66535186767578,44.43693161010742 54.56695556640625,48.209381103515625 53.66525650024414,51.981353759765625 51.28793716430664,55.361080169677734 47.926998138427734,58.31441879272461 44.074249267578125,60.807228088378906 40.221405029296875,62.80546188354492 36.86056137084961,64.27497863769531 34.48333740234375,65.18163681030273 33.58154296875,65.49148559570312 32.413578033447266,65.73867797851562 31.273651123046875,65.73905944824219 30.189990997314453,65.50941467285156 29.19158935546875,65.06595611572266 28.30667495727539,64.42508697509766 27.563858032226562,63.60340118408203 26.991844177246094,62.61720657348633 26.61895751953125,61.483001708984375 26.54571533203125,61.13710403442383 26.352214813232422,60.178470611572266 26.07860565185547,58.725929260253906 25.765228271484375,56.89811706542969 25.45175552368164,54.81386184692383 25.178241729736328,52.591800689697266 24.98493194580078,50.35076141357422" stroke="white" stroke-width="0.1" /><polygon points="1.708984375,30.832672119140625 1.6355514526367188,30.48686981201172 1.44195556640625,29.528331756591797 1.1683464050292969,28.07598114013672 0.8544921875,26.248550415039062 0.5407333374023438,24.164581298828125 0.26702880859375,21.942806243896484 0.0732421875,19.70195770263672 0.0,17.560577392578125 0.07343292236328125,15.418815612792969 0.26702880859375,13.177490234375 0.5407333374023438,10.955429077148438 0.8544921875,8.871269226074219 1.1682510375976562,7.043600082397461 1.44195556640625,5.591297149658203 1.6354560852050781,4.632806777954102 1.708984375,4.286956787109375 2.081298828125,3.152179718017578 2.6531219482421875,2.165651321411133 3.3957481384277344,1.3436317443847656 4.2804718017578125,0.702667236328125 5.279064178466797,0.2590656280517578 6.362628936767578,0.029325485229492188 7.503032684326172,0.029850006103515625 8.67156982421875,0.276947021484375 9.573173522949219,0.5867958068847656 11.950302124023438,1.4935016632080078 15.310955047607422,2.9630661010742188 19.16351318359375,4.961395263671875 23.016071319580078,7.454347610473633 26.376724243164062,10.40802001953125 28.75375747680664,13.788032531738281 29.65545654296875,17.560577392578125 28.75375747680664,21.332550048828125 26.376724243164062,24.712276458740234 23.016071319580078,27.66561508178711 19.16351318359375,30.158424377441406 15.310955047607422,32.15656280517578 11.950302124023438,33.62617492675781 9.57326889038086,34.532928466796875 8.67156982421875,34.842681884765625 7.5031280517578125,35.089874267578125 6.362724304199219,35.09025573730469 5.279064178466797,34.86051559448242 4.2804718017578125,34.416961669921875 3.395557403564453,33.775997161865234 2.6531219482421875,32.95402526855469 2.0813941955566406,31.96735382080078" stroke="white" stroke-width="0.1" /><polygon points="1.708984375,95.71304321289062 1.6355514526367188,95.36724090576172 1.44195556640625,94.4087028503418 1.1683464050292969,92.95635223388672 0.8544921875,91.12873077392578 0.5407333374023438,89.04457092285156 0.26702880859375,86.822509765625 0.0732421875,84.58118438720703 0.0,82.43942260742188 0.07343292236328125,80.29766082763672 0.26702880859375,78.05633544921875 0.5407333374023438,75.83427429199219 0.8544921875,73.75011444091797 1.1682510375976562,71.92249298095703 1.44195556640625,70.47014236450195 1.6354560852050781,69.51160430908203 1.708984375,69.16580200195312 2.081298828125,68.03150177001953 2.6531219482421875,67.04540252685547 3.3957481384277344,66.22371673583984 4.2804718017578125,65.58284759521484 5.279064178466797,65.13938903808594 6.362628936767578,64.90964889526367 7.503032684326172,64.91012573242188 8.67156982421875,65.15731811523438 9.573173522949219,65.46707153320312 11.950302124023438,66.37382507324219 15.310955047607422,67.84334182739258 19.16351318359375,69.8415756225586 23.016071319580078,72.33438491821289 26.376724243164062,75.28772354125977 28.75375747680664,78.66744995117188 29.65545654296875,82.43942260742188 28.75375747680664,86.21196746826172 26.376724243164062,89.59197998046875 23.016071319580078,92.54560470581055 19.16351318359375,95.03860473632812 15.310955047607422,97.03693389892578 11.950302124023438,98.50654602050781 9.57326889038086,99.41329956054688 8.67156982421875,99.72305297851562 7.5031280517578125,99.97024536132812 6.362724304199219,99.97062683105469 5.279064178466797,99.74098205566406 4.2804718017578125,99.29733276367188 3.395557403564453,98.65636825561523 2.6531219482421875,97.83439636230469 2.0813941955566406,96.84782028198242" stroke="white" stroke-width="0.1" /></svg>