<?xml version="1.0" encoding="utf-8" ?>
<svg baseProfile="full" height="99.99960660934448" version="1.1" width="96.49534821510315" xmlns="http://www.w3.org/2000/svg" xmlns:ev="http://www.w3.org/2001/xml-events" xmlns:xlink="http://www.w3.org/1999/xlink"><defs><clipPath /></defs><polygon points="2.3917799815535545,55.102360248565674 2.3917799815535545,55.102360248565674 1.3621268793940544,53.87941598892212 1.3621268793940544,53.87941598892212 0.620067585259676,52.51845717430115 0.620067585259676,52.51845717430115 0.16604156699031591,51.063936948776245 0.16604156699031591,51.063936948776245 0.0007813720912963618,49.56008791923523 0.0007813720912963618,49.56008791923523 0.12472651433199644,48.05125892162323 0.12472651433199644,48.05125892162323 0.5383165553212166,46.58178985118866 0.5383165553212166,46.58178985118866 1.242235116660595,45.19597887992859 1.242235116660595,45.19597887992859 2.2370683029294014,43.93811523914337 2.2370683029294014,43.93811523914337 42.60587692260742,2.4160025641322136 42.60587692260742,2.4160025641322136 43.185362219810486,1.8670886754989624 43.185362219810486,1.8670886754989624 43.811288475990295,1.3844937086105347 43.811288475990295,1.3844937086105347 44.478532671928406,0.9702688083052635 44.478532671928406,0.9702688083052635 45.18166780471802,0.626660417765379 45.18166780471802,0.626660417765379 45.915424823760986,0.35571963526308537 45.915424823760986,0.35571963526308537 46.67452871799469,0.15949758235365152 46.67452871799469,0.15949758235365152 47.45360612869263,0.04024066147394478 47.45360612869263,0.04024066147394478 48.247382044792175,0.0 48.247382044792175,0.0 49.04008507728577,0.04024066147394478 49.04008507728577,0.04024066147394478 49.81847703456879,0.15949758235365152 49.81847703456879,0.15949758235365152 50.57762861251831,0.35571963526308537 50.57762861251831,0.35571963526308537 51.31211876869202,0.626660417765379 51.31211876869202,0.626660417765379 52.0172119140625,0.9703176096081734 52.0172119140625,0.9703176096081734 52.6877224445343,1.3844937086105347 52.6877224445343,1.3844937086105347 53.31848859786987,1.8670886754989624 53.31848859786987,1.8670886754989624 53.904515504837036,2.4160025641322136 53.904515504837036,2.4160025641322136 94.27645206451416,43.94124150276184 94.27645206451416,43.94124150276184 94.27801370620728,43.94124150276184 94.27801370620728,43.94124150276184 95.26634812355042,45.19895613193512 95.26634812355042,45.19895613193512 95.9649920463562,46.58447504043579 95.9649920463562,46.58447504043579 96.37452960014343,48.05355370044708 96.37452960014343,48.05355370044708 96.49534821510315,49.56203997135162 96.49534821510315,49.56203997135162 96.32813930511475,51.0656476020813 96.32813930511475,51.0656476020813 95.87327837944031,52.52026915550232 95.87327837944031,52.52026915550232 95.13136744499207,53.88160943984985 95.13136744499207,53.88160943984985 94.10298466682434,55.105483531951904 94.10298466682434,55.105483531951904 92.85688996315002,56.08835220336914 92.85688996315002,56.08835220336914 91.47865176200867,56.784069538116455 91.47865176200867,56.784069538116455 90.01386761665344,57.19233751296997 90.01386761665344,57.19233751296997 88.50777745246887,57.31286406517029 88.50777745246887,57.31286406517029 87.00587749481201,57.14535713195801 87.00587749481201,57.14535713195801 85.55360436439514,56.68952465057373 85.55360436439514,56.68952465057373 84.19635891914368,55.94506859779358 84.19635891914368,55.94506859779358 82.97936916351318,54.91170287132263 82.97936916351318,54.91170287132263 50.33521056175232,21.315830945968628 50.33521056175232,21.315830945968628 50.11730194091797,21.116288006305695 50.11730194091797,21.116288006305695 49.88416135311127,20.94135731458664 49.88416135311127,20.94135731458664 49.63729679584503,20.79153060913086 49.63729679584503,20.79153060913086 49.37802851200104,20.667487382888794 49.37802851200104,20.667487382888794 49.1079181432724,20.56991308927536 49.1079181432724,20.56991308927536 48.828527331352234,20.499394834041595 48.828527331352234,20.499394834041595 48.54117929935455,20.456662774086 48.54117929935455,20.456662774086 48.247382044792175,20.442256331443787 48.247382044792175,20.442256331443787 47.95353710651398,20.45661360025406 47.95353710651398,20.45661360025406 47.666335105895996,20.499394834041595 47.666335105895996,20.499394834041595 47.38743305206299,20.56991308927536 47.38743305206299,20.56991308927536 47.118690609931946,20.667487382888794 47.118690609931946,20.667487382888794 46.861764788627625,20.79153060913086 46.861764788627625,20.79153060913086 46.61851525306702,20.94135731458664 46.61851525306702,20.94135731458664 46.3906466960907,21.116288006305695 46.3906466960907,21.116288006305695 46.17987275123596,21.315830945968628 46.17987275123596,21.315830945968628 13.509142398834229,54.961711168289185 13.509142398834229,54.961711168289185 12.908755242824554,55.50686717033386 12.908755242824554,55.50686717033386 12.267199903726578,55.982476472854614 12.267199903726578,55.982476472854614 11.59023866057396,56.38751983642578 11.59023866057396,56.38751983642578 10.88373214006424,56.721168756484985 10.88373214006424,56.721168756484985 10.15344187617302,56.982338428497314 10.15344187617302,56.982338428497314 9.405326843261719,57.17006325721741 9.405326843261719,57.17006325721741 8.645100891590118,57.28346109390259 8.645100891590118,57.28346109390259 7.878574728965759,57.3214590549469 7.878574728965759,57.3214590549469 7.137492299079895,57.286882400512695 7.137492299079895,57.286882400512695 6.401586532592773,57.18305706977844 6.401586532592773,57.18305706977844 5.676082149147987,57.00998306274414 5.676082149147987,57.00998306274414 4.966400936245918,56.76746368408203 4.966400936245918,56.76746368408203 4.2778655886650085,56.455498933792114 4.2778655886650085,56.455498933792114 3.615652769804001,56.07409477233887 3.615652769804001,56.07409477233887 2.985232137143612,55.623048543930054 2.985232137143612,55.623048543930054" stroke="white" stroke-width="0.1" /><polygon points="73.74042868614197,78.99359464645386 73.74042868614197,78.99359464645386 55.90482950210571,96.86669707298279 55.90482950210571,96.86669707298279 54.209738969802856,98.23732376098633 54.209738969802856,98.23732376098633 52.327316999435425,99.21638369560242 52.327316999435425,99.21638369560242 50.31977891921997,99.80382919311523 50.31977891921997,99.80382919311523 48.24992120265961,99.99960660934448 48.24992120265961,99.99960660934448 46.18011713027954,99.80382919311523 46.18011713027954,99.80382919311523 44.17286813259125,99.21638369560242 44.17286813259125,99.21638369560242 42.290788888931274,98.23727607727051 42.290788888931274,98.23727607727051 40.596187114715576,96.86669707298279 40.596187114715576,96.86669707298279 22.757461667060852,78.99359464645386 22.757461667060852,78.99359464645386 21.374531090259552,77.30836868286133 21.374531090259552,77.30836868286133 20.386680960655212,75.430828332901 20.386680960655212,75.430828332901 19.794011116027832,73.42504858970642 19.794011116027832,73.42504858970642 19.596421718597412,71.35528922080994 19.596421718597412,71.35528922080994 19.793961942195892,69.28563117980957 19.793961942195892,69.28563117980957 20.386680960655212,67.28033423423767 20.386680960655212,67.28033423423767 21.374481916427612,65.40347933769226 21.374481916427612,65.40347933769226 22.757461667060852,63.719332218170166 22.757461667060852,63.719332218170166 40.596187114715576,45.84466218948364 40.596187114715576,45.84466218948364 42.290738224983215,44.46222186088562 42.290738224983215,44.46222186088562 44.17286813259125,43.47476065158844 44.17286813259125,43.47476065158844 46.18011713027954,42.88228750228882 46.18011713027954,42.88228750228882 48.24992120265961,42.68479347229004 48.24992120265961,42.68479347229004 50.31977891921997,42.88228750228882 50.31977891921997,42.88228750228882 52.327221632003784,43.47476065158844 52.327221632003784,43.47476065158844 54.209840297698975,44.46222186088562 54.209840297698975,44.46222186088562 55.90482950210571,45.84466218948364 55.90482950210571,45.84466218948364 73.74042868614197,63.719332218170166 73.74042868614197,63.719332218170166 75.12335777282715,65.40406942367554 75.12335777282715,65.40406942367554 76.11120939254761,67.2814130783081 76.11120939254761,67.2814130783081 76.70388221740723,69.28719282150269 76.70388221740723,69.28719282150269 76.90147161483765,71.35704755783081 76.90147161483765,71.35704755783081 76.70388221740723,73.42685461044312 76.70388221740723,73.42685461044312 76.11120939254761,75.43238997459412 76.11120939254761,75.43238997459412 75.12335777282715,77.30934619903564 75.12335777282715,77.30934619903564" stroke="white" stroke-width="0.1" /><polygon points="2.3917799815535545,55.102360248565674 1.3621268793940544,53.87941598892212 0.620067585259676,52.51845717430115 0.16604156699031591,51.063936948776245 0.0007813720912963618,49.56008791923523 0.12472651433199644,48.05125892162323 0.5383165553212166,46.58178985118866 1.242235116660595,45.19597887992859 2.2370683029294014,43.93811523914337 42.60587692260742,2.4160025641322136 43.185362219810486,1.8670886754989624 43.811288475990295,1.3844937086105347 44.478532671928406,0.9702688083052635 45.18166780471802,0.626660417765379 45.915424823760986,0.35571963526308537 46.67452871799469,0.15949758235365152 47.45360612869263,0.04024066147394478 48.247382044792175,0.0 49.04008507728577,0.04024066147394478 49.81847703456879,0.15949758235365152 50.57762861251831,0.35571963526308537 51.31211876869202,0.626660417765379 52.0172119140625,0.9703176096081734 52.6877224445343,1.3844937086105347 53.31848859786987,1.8670886754989624 53.904515504837036,2.4160025641322136 94.27645206451416,43.94124150276184 94.27801370620728,43.94124150276184 95.26634812355042,45.19895613193512 95.9649920463562,46.58447504043579 96.37452960014343,48.05355370044708 96.49534821510315,49.56203997135162 96.32813930511475,51.0656476020813 95.87327837944031,52.52026915550232 95.13136744499207,53.88160943984985 94.10298466682434,55.105483531951904 92.85688996315002,56.08835220336914 91.47865176200867,56.784069538116455 90.01386761665344,57.19233751296997 88.50777745246887,57.31286406517029 87.00587749481201,57.14535713195801 85.55360436439514,56.68952465057373 84.19635891914368,55.94506859779358 82.97936916351318,54.91170287132263 50.33521056175232,21.315830945968628 50.11730194091797,21.116288006305695 49.88416135311127,20.94135731458664 49.63729679584503,20.79153060913086 49.37802851200104,20.667487382888794 49.1079181432724,20.56991308927536 48.828527331352234,20.499394834041595 48.54117929935455,20.456662774086 48.247382044792175,20.442256331443787 47.95353710651398,20.45661360025406 47.666335105895996,20.499394834041595 47.38743305206299,20.56991308927536 47.118690609931946,20.667487382888794 46.861764788627625,20.79153060913086 46.61851525306702,20.94135731458664 46.3906466960907,21.116288006305695 46.17987275123596,21.315830945968628 13.509142398834229,54.961711168289185 12.908755242824554,55.50686717033386 12.267199903726578,55.982476472854614 11.59023866057396,56.38751983642578 10.88373214006424,56.721168756484985 10.15344187617302,56.982338428497314 9.405326843261719,57.17006325721741 8.645100891590118,57.28346109390259 7.878574728965759,57.3214590549469 7.137492299079895,57.286882400512695 6.401586532592773,57.18305706977844 5.676082149147987,57.00998306274414 4.966400936245918,56.76746368408203 4.2778655886650085,56.455498933792114 3.615652769804001,56.07409477233887 2.985232137143612,55.623048543930054" stroke="white" stroke-width="0.1" /><polygon points="73.74042868614197,78.99359464645386 55.90482950210571,96.86669707298279 54.209738969802856,98.23732376098633 52.327316999435425,99.21638369560242 50.31977891921997,99.80382919311523 48.24992120265961,99.99960660934448 46.18011713027954,99.80382919311523 44.17286813259125,99.21638369560242 42.290788888931274,98.23727607727051 40.596187114715576,96.86669707298279 22.757461667060852,78.99359464645386 21.374531090259552,77.30836868286133 20.386680960655212,75.430828332901 19.794011116027832,73.42504858970642 19.596421718597412,71.35528922080994 19.793961942195892,69.28563117980957 20.386680960655212,67.28033423423767 21.374481916427612,65.40347933769226 22.757461667060852,63.719332218170166 40.596187114715576,45.84466218948364 42.290738224983215,44.46222186088562 44.17286813259125,43.47476065158844 46.18011713027954,42.88228750228882 48.24992120265961,42.68479347229004 50.31977891921997,42.88228750228882 52.327221632003784,43.47476065158844 54.209840297698975,44.46222186088562 55.90482950210571,45.84466218948364 73.74042868614197,63.719332218170166 75.12335777282715,65.40406942367554 76.11120939254761,67.2814130783081 76.70388221740723,69.28719282150269 76.90147161483765,71.35704755783081 76.70388221740723,73.42685461044312 76.11120939254761,75.43238997459412 75.12335777282715,77.30934619903564" stroke="white" stroke-width="0.1" /></svg>