<?xml version="1.0" encoding="utf-8" ?>
<svg baseProfile="full" height="100.0" version="1.1" width="66.66598916053772" xmlns="http://www.w3.org/2000/svg" xmlns:ev="http://www.w3.org/2001/xml-events" xmlns:xlink="http://www.w3.org/1999/xlink"><defs><clipPath /></defs><polygon points="66.66598916053772,83.33350419998169 66.66598916053772,83.33350419998169 0.0,83.33350419998169 0.0,83.33350419998169 0.0,16.66649729013443 0.0,16.66649729013443 66.66598916053772,16.66649729013443 66.66598916053772,16.66649729013443" stroke="white" stroke-width="0.1" /><polygon points="66.66598916053772,0.0 66.66598916053772,0.0 66.66598916053772,8.333248645067215 66.66598916053772,8.333248645067215 0.0,8.333248645067215 0.0,8.333248645067215 0.0,0.0 0.0,0.0" stroke="white" stroke-width="0.1" /><polygon points="66.66598916053772,91.66675209999084 66.66598916053772,91.66675209999084 66.66598916053772,100.0 66.66598916053772,100.0 0.0,100.0 0.0,100.0 0.0,91.66675209999084 0.0,91.66675209999084" stroke="white" stroke-width="0.1" /><polygon points="66.66598916053772,83.33350419998169 0.0,83.33350419998169 0.0,16.66649729013443 66.66598916053772,16.66649729013443" stroke="white" stroke-width="0.1" /><polygon points="66.66598916053772,0.0 66.66598916053772,8.333248645067215 0.0,8.333248645067215 0.0,0.0" stroke="white" stroke-width="0.1" /><polygon points="66.66598916053772,91.66675209999084 66.66598916053772,100.0 0.0,100.0 0.0,91.66675209999084" stroke="white" stroke-width="0.1" /></svg>