<?xml version="1.0" encoding="utf-8" ?>
<svg baseProfile="full" height="100.0" version="1.1" width="38.85955810546875" xmlns="http://www.w3.org/2000/svg" xmlns:ev="http://www.w3.org/2001/xml-events" xmlns:xlink="http://www.w3.org/1999/xlink"><defs><clipPath /></defs><polygon points="38.85955810546875,78.88412475585938 38.434600830078125,78.32574844360352 37.631988525390625,77.23588943481445 36.51008605957031,75.65832138061523 35.12687683105469,73.63624572753906 33.54034423828125,71.21353149414062 31.8084716796875,68.43376159667969 29.9896240234375,65.34051895141602 28.14178466796875,61.977386474609375 27.224349975585938,60.21127700805664 26.32122039794922,58.39548110961914 25.439453125,56.53657913208008 24.585723876953125,54.641151428222656 23.76689910888672,52.7155876159668 22.989845275878906,50.76637268066406 22.26123809814453,48.800086975097656 21.588134765625,46.8231201171875 20.9747314453125,44.843101501464844 20.42980194091797,42.867469787597656 19.958114624023438,40.903282165527344 19.56310272216797,38.957881927490234 19.249534606933594,37.038326263427734 19.021224975585938,35.15176773071289 18.882369995117188,33.30535888671875 18.83697509765625,31.50634765625 18.853759765625,30.846786499023438 18.902969360351562,30.199718475341797 18.98326873779297,29.565048217773438 19.094276428222656,28.94277572631836 19.23503875732422,28.332901000976562 19.404983520507812,27.735519409179688 19.60315704345703,27.150440216064453 19.82879638671875,26.5777587890625 20.217514038085938,25.744915008544922 20.665740966796875,24.944305419921875 21.1700439453125,24.178791046142578 21.727371215820312,23.451900482177734 22.335052490234375,22.766876220703125 22.989845275878906,22.127151489257812 23.68907928466797,21.535778045654297 24.4293212890625,20.99609375 25.207901000976562,20.51076889038086 26.018905639648438,20.08228302001953 26.861190795898438,19.71302032470703 27.733612060546875,19.405364990234375 28.635025024414062,19.161605834960938 29.565048217773438,18.984222412109375 30.521774291992188,18.875503540039062 31.50482177734375,18.837738037109375 31.50482177734375,0.0 29.891014099121094,0.0408172607421875 28.294754028320312,0.162506103515625 26.718521118164062,0.36296844482421875 25.165557861328125,0.6404876708984375 23.638153076171875,0.9929656982421875 22.139358520507812,1.418304443359375 20.671844482421875,1.9147872924804688 19.23828125,2.480316162109375 17.15564727783203,3.4529685974121094 15.1611328125,4.567623138427734 13.260841369628906,5.81817626953125 11.46087646484375,7.198047637939453 9.767341613769531,8.700942993164062 8.18624496459961,10.320663452148438 6.723976135253906,12.050628662109375 5.3863525390625,13.884735107421875 4.179477691650391,15.816020965576172 3.1113624572753906,17.841720581054688 2.1884918212890625,19.953155517578125 1.418304443359375,22.14221954345703 0.8073806762695312,24.40042495727539 0.3626823425292969,26.71947479248047 0.09126663208007812,29.09088134765625 0.0,31.50634765625 0.07801055908203125,34.3724250793457 0.29697418212890625,37.20989227294922 0.6459236145019531,40.015602111816406 1.1133193969726562,42.78602600097656 1.6879081726074219,45.51820755004883 2.357959747314453,48.20880889892578 3.1124114990234375,50.8544921875 3.9398193359375,53.452301025390625 5.303287506103516,57.2504997253418 6.781959533691406,60.924339294433594 8.347892761230469,64.45884704589844 9.973335266113281,67.83924102783203 11.6302490234375,71.05064392089844 13.290786743164062,74.07808303833008 14.927291870117188,76.90677642822266 16.51153564453125,79.52194213867188 18.017959594726562,81.90317153930664 19.419097900390625,84.0353012084961 20.688247680664062,85.90068817138672 21.797752380371094,87.48111724853516 22.721099853515625,88.75865936279297 23.431015014648438,89.71519470214844 23.900604248046875,90.33288955688477 24.102783203125,90.59371948242188 31.50482177734375,100.0 38.85955810546875,78.88412475585938 38.85955810546875,78.88412475585938 31.50482177734375,100.0 31.50482177734375,100.0 24.102783203125,90.59371948242188 24.102783203125,90.59371948242188 23.900604248046875,90.33288955688477 23.900604248046875,90.33288955688477 23.431015014648438,89.71519470214844 23.431015014648438,89.71519470214844 22.721099853515625,88.75865936279297 22.721099853515625,88.75865936279297 21.797752380371094,87.48111724853516 21.797752380371094,87.48111724853516 20.688247680664062,85.90068817138672 20.688247680664062,85.90068817138672 19.419097900390625,84.0353012084961 19.419097900390625,84.0353012084961 18.017959594726562,81.90317153930664 18.017959594726562,81.90317153930664 16.51153564453125,79.52194213867188 16.51153564453125,79.52194213867188 14.927291870117188,76.90677642822266 14.927291870117188,76.90677642822266 13.290786743164062,74.07808303833008 13.290786743164062,74.07808303833008 11.6302490234375,71.05064392089844 11.6302490234375,71.05064392089844 9.973335266113281,67.83924102783203 9.973335266113281,67.83924102783203 8.347892761230469,64.45884704589844 8.347892761230469,64.45884704589844 6.781959533691406,60.924339294433594 6.781959533691406,60.924339294433594 5.303287506103516,57.2504997253418 5.303287506103516,57.2504997253418 3.9398193359375,53.452301025390625 3.9398193359375,53.452301025390625 3.1124114990234375,50.8544921875 3.1124114990234375,50.8544921875 2.357959747314453,48.20880889892578 2.357959747314453,48.20880889892578 1.6879081726074219,45.51820755004883 1.6879081726074219,45.51820755004883 1.1133193969726562,42.78602600097656 1.1133193969726562,42.78602600097656 0.6459236145019531,40.015602111816406 0.6459236145019531,40.015602111816406 0.29697418212890625,37.20989227294922 0.29697418212890625,37.20989227294922 0.07801055908203125,34.3724250793457 0.07801055908203125,34.3724250793457 0.0,31.50634765625 0.0,31.50634765625 0.09126663208007812,29.09088134765625 0.09126663208007812,29.09088134765625 0.3626823425292969,26.71947479248047 0.3626823425292969,26.71947479248047 0.8073806762695312,24.40042495727539 0.8073806762695312,24.40042495727539 1.418304443359375,22.14221954345703 1.418304443359375,22.14221954345703 2.1884918212890625,19.953155517578125 2.1884918212890625,19.953155517578125 3.1113624572753906,17.841720581054688 3.1113624572753906,17.841720581054688 4.179477691650391,15.816020965576172 4.179477691650391,15.816020965576172 5.3863525390625,13.884735107421875 5.3863525390625,13.884735107421875 6.723976135253906,12.050628662109375 6.723976135253906,12.050628662109375 8.18624496459961,10.320663452148438 8.18624496459961,10.320663452148438 9.767341613769531,8.700942993164062 9.767341613769531,8.700942993164062 11.46087646484375,7.198047637939453 11.46087646484375,7.198047637939453 13.260841369628906,5.81817626953125 13.260841369628906,5.81817626953125 15.1611328125,4.567623138427734 15.1611328125,4.567623138427734 17.15564727783203,3.4529685974121094 17.15564727783203,3.4529685974121094 19.23828125,2.480316162109375 19.23828125,2.480316162109375 20.671844482421875,1.9147872924804688 20.671844482421875,1.9147872924804688 22.139358520507812,1.418304443359375 22.139358520507812,1.418304443359375 23.638153076171875,0.9929656982421875 23.638153076171875,0.9929656982421875 25.165557861328125,0.6404876708984375 25.165557861328125,0.6404876708984375 26.718521118164062,0.36296844482421875 26.718521118164062,0.36296844482421875 28.294754028320312,0.162506103515625 28.294754028320312,0.162506103515625 29.891014099121094,0.0408172607421875 29.891014099121094,0.0408172607421875 31.50482177734375,0.0 31.50482177734375,0.0 31.50482177734375,18.837738037109375 31.50482177734375,18.837738037109375 30.521774291992188,18.875503540039062 30.521774291992188,18.875503540039062 29.565048217773438,18.984222412109375 29.565048217773438,18.984222412109375 28.635025024414062,19.161605834960938 28.635025024414062,19.161605834960938 27.733612060546875,19.405364990234375 27.733612060546875,19.405364990234375 26.861190795898438,19.71302032470703 26.861190795898438,19.71302032470703 26.018905639648438,20.08228302001953 26.018905639648438,20.08228302001953 25.207901000976562,20.51076889038086 25.207901000976562,20.51076889038086 24.4293212890625,20.99609375 24.4293212890625,20.99609375 23.68907928466797,21.535778045654297 23.68907928466797,21.535778045654297 22.989845275878906,22.127151489257812 22.989845275878906,22.127151489257812 22.335052490234375,22.766876220703125 22.335052490234375,22.766876220703125 21.727371215820312,23.451900482177734 21.727371215820312,23.451900482177734 21.1700439453125,24.178791046142578 21.1700439453125,24.178791046142578 20.665740966796875,24.944305419921875 20.665740966796875,24.944305419921875 20.217514038085938,25.744915008544922 20.217514038085938,25.744915008544922 19.82879638671875,26.5777587890625 19.82879638671875,26.5777587890625 19.60315704345703,27.150440216064453 19.60315704345703,27.150440216064453 19.404983520507812,27.735519409179688 19.404983520507812,27.735519409179688 19.23503875732422,28.332901000976562 19.23503875732422,28.332901000976562 19.094276428222656,28.94277572631836 19.094276428222656,28.94277572631836 18.98326873779297,29.565048217773438 18.98326873779297,29.565048217773438 18.902969360351562,30.199718475341797 18.902969360351562,30.199718475341797 18.853759765625,30.846786499023438 18.853759765625,30.846786499023438 18.83697509765625,31.50634765625 18.83697509765625,31.50634765625 18.882369995117188,33.30535888671875 18.882369995117188,33.30535888671875 19.021224975585938,35.15176773071289 19.021224975585938,35.15176773071289 19.249534606933594,37.038326263427734 19.249534606933594,37.038326263427734 19.56310272216797,38.957881927490234 19.56310272216797,38.957881927490234 19.958114624023438,40.903282165527344 19.958114624023438,40.903282165527344 20.42980194091797,42.867469787597656 20.42980194091797,42.867469787597656 20.9747314453125,44.843101501464844 20.9747314453125,44.843101501464844 21.588134765625,46.8231201171875 21.588134765625,46.8231201171875 22.26123809814453,48.800086975097656 22.26123809814453,48.800086975097656 22.989845275878906,50.76637268066406 22.989845275878906,50.76637268066406 23.76689910888672,52.7155876159668 23.76689910888672,52.7155876159668 24.585723876953125,54.641151428222656 24.585723876953125,54.641151428222656 25.439453125,56.53657913208008 25.439453125,56.53657913208008 26.32122039794922,58.39548110961914 26.32122039794922,58.39548110961914 27.224349975585938,60.21127700805664 27.224349975585938,60.21127700805664 28.14178466796875,61.977386474609375 28.14178466796875,61.977386474609375 29.9896240234375,65.34051895141602 29.9896240234375,65.34051895141602 31.8084716796875,68.43376159667969 31.8084716796875,68.43376159667969 33.54034423828125,71.21353149414062 33.54034423828125,71.21353149414062 35.12687683105469,73.63624572753906 35.12687683105469,73.63624572753906 36.51008605957031,75.65832138061523 36.51008605957031,75.65832138061523 37.631988525390625,77.23588943481445 37.631988525390625,77.23588943481445 38.434600830078125,78.32574844360352 38.434600830078125,78.32574844360352" stroke="white" stroke-width="0.1" /></svg>