<?xml version="1.0" encoding="utf-8" ?>
<svg baseProfile="full" height="100.0" version="1.1" width="58.624267578125" xmlns="http://www.w3.org/2000/svg" xmlns:ev="http://www.w3.org/2001/xml-events" xmlns:xlink="http://www.w3.org/1999/xlink"><defs><clipPath /></defs><polygon points="29.3121337890625,100.0 30.571556091308594,98.33412170410156 33.892059326171875,93.65711212158203 38.58671188354492,86.45029067993164 43.96820068359375,77.19488143920898 49.34978485107422,66.3722038269043 54.044342041015625,54.46348190307617 57.364845275878906,41.9499397277832 58.624267578125,29.312896728515625 58.02879333496094,23.40545654296875 56.320953369140625,17.90304183959961 53.618431091308594,12.923908233642578 50.03929138183594,8.585643768310547 45.70121765136719,5.006217956542969 40.722084045410156,2.303600311279297 35.219764709472656,0.5955696105957031 29.3121337890625,0.0 23.404884338378906,0.5955696105957031 17.902755737304688,2.303600311279297 12.923622131347656,5.006313323974609 8.585548400878906,8.585643768310547 5.006217956542969,12.923812866210938 2.303600311279297,17.90313720703125 0.5954742431640625,23.40536117553711 0.0,29.312896728515625 1.2595176696777344,41.950035095214844 4.580116271972656,54.46348190307617 9.274578094482422,66.37229919433594 14.65606689453125,77.19488143920898 20.03765106201172,86.45029067993164 24.732017517089844,93.65701675415039 28.052520751953125,98.33402633666992 29.3121337890625,100.0 29.3121337890625,100.0 28.052520751953125,98.33402633666992 28.052520751953125,98.33402633666992 24.732017517089844,93.65701675415039 24.732017517089844,93.65701675415039 20.03765106201172,86.45029067993164 20.03765106201172,86.45029067993164 14.65606689453125,77.19488143920898 14.65606689453125,77.19488143920898 9.274578094482422,66.37229919433594 9.274578094482422,66.37229919433594 4.580116271972656,54.46348190307617 4.580116271972656,54.46348190307617 1.2595176696777344,41.950035095214844 1.2595176696777344,41.950035095214844 0.0,29.312896728515625 0.0,29.312896728515625 0.5954742431640625,23.40536117553711 0.5954742431640625,23.40536117553711 2.303600311279297,17.90313720703125 2.303600311279297,17.90313720703125 5.006217956542969,12.923812866210938 5.006217956542969,12.923812866210938 8.585548400878906,8.585643768310547 8.585548400878906,8.585643768310547 12.923622131347656,5.006313323974609 12.923622131347656,5.006313323974609 17.902755737304688,2.303600311279297 17.902755737304688,2.303600311279297 23.404884338378906,0.5955696105957031 23.404884338378906,0.5955696105957031 29.3121337890625,0.0 29.3121337890625,0.0 35.219764709472656,0.5955696105957031 35.219764709472656,0.5955696105957031 40.722084045410156,2.303600311279297 40.722084045410156,2.303600311279297 45.70121765136719,5.006217956542969 45.70121765136719,5.006217956542969 50.03929138183594,8.585643768310547 50.03929138183594,8.585643768310547 53.618431091308594,12.923908233642578 53.618431091308594,12.923908233642578 56.320953369140625,17.90304183959961 56.320953369140625,17.90304183959961 58.02879333496094,23.40545654296875 58.02879333496094,23.40545654296875 58.624267578125,29.312896728515625 58.624267578125,29.312896728515625 57.364845275878906,41.9499397277832 57.364845275878906,41.9499397277832 54.044342041015625,54.46348190307617 54.044342041015625,54.46348190307617 49.34978485107422,66.3722038269043 49.34978485107422,66.3722038269043 43.96820068359375,77.19488143920898 43.96820068359375,77.19488143920898 38.58671188354492,86.45029067993164 38.58671188354492,86.45029067993164 33.892059326171875,93.65711212158203 33.892059326171875,93.65711212158203 30.571556091308594,98.33412170410156 30.571556091308594,98.33412170410156" stroke="white" stroke-width="0.1" /></svg>