<?xml version="1.0" encoding="utf-8" ?>
<svg baseProfile="full" height="82.91077017784119" version="1.1" width="82.91077017784119" xmlns="http://www.w3.org/2000/svg" xmlns:ev="http://www.w3.org/2001/xml-events" xmlns:xlink="http://www.w3.org/1999/xlink"><defs><clipPath /></defs><polygon points="54.449462890625,50.00061392784119 54.449462890625,50.00061392784119 54.391175508499146,50.72219967842102 54.391175508499146,50.72219967842102 54.22264337539673,51.40693783760071 54.22264337539673,51.40693783760071 53.952789306640625,52.04536318778992 53.952789306640625,52.04536318778992 53.59100699424744,52.628326416015625 53.59100699424744,52.628326416015625 53.14621329307556,53.14682126045227 53.14621329307556,53.14682126045227 52.627718448638916,53.591614961624146 52.627718448638916,53.591614961624146 52.04475522041321,53.95340323448181 52.04475522041321,53.95340323448181 51.406329870224,54.22317385673523 51.406329870224,54.22317385673523 50.72174072265625,54.391783475875854 50.72174072265625,54.391783475875854 50.0,54.45007681846619 50.0,54.45007681846619 49.27825927734375,54.39186096191406 49.27825927734375,54.39186096191406 48.59367311000824,54.22325134277344 48.59367311000824,54.22325134277344 47.95517027378082,53.95340323448181 47.95517027378082,53.95340323448181 47.37228453159332,53.59169244766235 47.37228453159332,53.59169244766235 46.85378968715668,53.14682126045227 46.85378968715668,53.14682126045227 46.40907347202301,52.628326416015625 46.40907347202301,52.628326416015625 46.047210693359375,52.045440673828125 46.047210693359375,52.045440673828125 45.77743709087372,51.40693783760071 45.77743709087372,51.40693783760071 45.608749985694885,50.72227716445923 45.608749985694885,50.72227716445923 45.550537109375,50.00061392784119 45.550537109375,50.00061392784119 45.60867249965668,49.2788702249527 45.60867249965668,49.2788702249527 45.77743709087372,48.59428405761719 45.77743709087372,48.59428405761719 46.047210693359375,47.95593321323395 46.047210693359375,47.95593321323395 46.40915095806122,47.37289547920227 46.40915095806122,47.37289547920227 46.85378968715668,46.854400634765625 46.85378968715668,46.854400634765625 47.37228453159332,46.40968441963196 47.37228453159332,46.40968441963196 47.955322265625,46.04782164096832 47.955322265625,46.04782164096832 48.59367311000824,45.77804505825043 48.59367311000824,45.77804505825043 49.27825927734375,45.60936093330383 49.27825927734375,45.60936093330383 50.0,45.55114805698395 50.0,45.55114805698395 50.72159171104431,45.60936093330383 50.72159171104431,45.60936093330383 51.40640139579773,45.77804505825043 51.40640139579773,45.77804505825043 52.04475522041321,46.04782164096832 52.04475522041321,46.04782164096832 52.627795934677124,46.40975892543793 52.627795934677124,46.40975892543793 53.14621329307556,46.854400634765625 53.14621329307556,46.854400634765625 53.59092950820923,47.37281799316406 53.59092950820923,47.37281799316406 53.952789306640625,47.95593321323395 53.952789306640625,47.95593321323395 54.22264337539673,48.59428405761719 54.22264337539673,48.59428405761719 54.391175508499146,49.2788702249527 54.391175508499146,49.2788702249527" stroke="white" stroke-width="0.1" /><polygon points="55.6243896484375,33.24157893657684 55.6243896484375,33.24157893657684 55.6243896484375,26.625367999076843 55.6243896484375,26.625367999076843 55.62988519668579,26.507797837257385 55.62988519668579,26.507797837257385 55.64621090888977,26.392516493797302 55.64621090888977,26.392516493797302 55.67306876182556,26.279830932617188 55.67306876182556,26.279830932617188 55.70991635322571,26.170656085014343 55.70991635322571,26.170656085014343 55.75653314590454,26.065370440483093 55.75653314590454,26.065370440483093 55.81268668174744,25.964966416358948 55.81268668174744,25.964966416358948 55.877918004989624,25.869980454444885 55.877918004989624,25.869980454444885 55.95184564590454,25.781098008155823 55.95184564590454,25.781098008155823 56.03432059288025,25.699004530906677 56.03432059288025,25.699004530906677 56.1248779296875,25.624391436576843 56.1248779296875,25.624391436576843 56.20574951171875,25.578004121780396 56.20574951171875,25.578004121780396 56.31248354911804,25.53756833076477 56.31248354911804,25.53756833076477 56.43753409385681,25.502777099609375 56.43753409385681,25.502777099609375 56.57394528388977,25.473937392234802 56.57394528388977,25.473937392234802 56.71440362930298,25.450745224952698 56.71440362930298,25.450745224952698 56.85181021690369,25.433579087257385 56.85181021690369,25.433579087257385 56.97891116142273,25.422438979148865 56.97891116142273,25.422438979148865 57.088470458984375,25.417327880859375 57.088470458984375,25.417327880859375 57.173460721969604,25.418242812156677 57.173460721969604,25.418242812156677 57.2265625,25.425416231155396 57.2265625,25.425416231155396 59.68567132949829,26.283571124076843 59.68567132949829,26.283571124076843 62.01767325401306,27.370452880859375 62.01767325401306,27.370452880859375 64.20966982841492,28.673097491264343 64.20966982841492,28.673097491264343 66.24923944473267,30.178984999656677 66.24923944473267,30.178984999656677 68.12332272529602,31.875458359718323 68.12332272529602,31.875458359718323 69.81964111328125,33.74992311000824 69.81964111328125,33.74992311000824 71.32553458213806,35.78964173793793 71.32553458213806,35.78964173793793 72.62817621231079,37.981948256492615 72.62817621231079,37.981948256492615 73.71498346328735,40.31433165073395 73.71498346328735,40.31433165073395 74.57336783409119,42.77404844760895 74.57336783409119,42.77404844760895 74.60113763809204,42.88795590400696 74.60113763809204,42.88795590400696 74.61807131767273,43.0032342672348 74.61807131767273,43.0032342672348 74.62417483329773,43.11874508857727 74.62417483329773,43.11874508857727 74.61959719657898,43.23387145996094 74.61959719657898,43.23387145996094 74.60441589355469,43.347930908203125 74.60441589355469,43.347930908203125 74.578857421875,43.4600830078125 74.578857421875,43.4600830078125 74.54299926757812,43.569642305374146 74.54299926757812,43.569642305374146 74.49699640274048,43.675920367240906 74.49699640274048,43.675920367240906 74.44092035293579,43.77792477607727 74.44092035293579,43.77792477607727 74.37500357627869,43.8751220703125 74.37500357627869,43.8751220703125 74.30015802383423,43.96560788154602 74.30015802383423,43.96560788154602 74.21798706054688,44.0481573343277 74.21798706054688,44.0481573343277 74.1290271282196,44.12216246128082 74.1290271282196,44.12216246128082 74.03404116630554,44.18739378452301 74.03404116630554,44.18739378452301 73.93356561660767,44.2434698343277 73.93356561660767,44.2434698343277 73.82842898368835,44.2901611328125 73.82842898368835,44.2901611328125 73.71917963027954,44.327011704444885 73.71917963027954,44.327011704444885 73.6065685749054,44.35379207134247 73.6065685749054,44.35379207134247 73.49136471748352,44.37011778354645 73.49136471748352,44.37011778354645 73.37402701377869,44.3756103515625 73.37402701377869,44.3756103515625 66.7572021484375,44.3756103515625 66.7572021484375,44.3756103515625 66.60690307617188,44.36660706996918 66.60690307617188,44.36660706996918 66.46103262901306,44.34013366699219 66.46103262901306,44.34013366699219 66.32057428359985,44.297027587890625 66.32057428359985,44.297027587890625 66.18698239326477,44.23828125 66.18698239326477,44.23828125 66.06155633926392,44.16442811489105 66.06155633926392,44.16442811489105 65.94558954238892,44.0765380859375 65.94558954238892,44.0765380859375 65.84014892578125,43.975600600242615 65.84014892578125,43.975600600242615 65.74684381484985,43.862152099609375 65.74684381484985,43.862152099609375 65.66673517227173,43.73725950717926 65.66673517227173,43.73725950717926 65.60119986534119,43.601685762405396 65.60119986534119,43.601685762405396 65.04104733467102,42.38288998603821 65.04104733467102,42.38288998603821 64.38736319541931,41.216737031936646 64.38736319541931,41.216737031936646 63.64479064941406,40.10826051235199 63.64479064941406,40.10826051235199 62.81883120536804,39.062729477882385 62.81883120536804,39.062729477882385 61.91444396972656,38.0850225687027 61.91444396972656,38.0850225687027 60.9369695186615,37.18063533306122 60.9369695186615,37.18063533306122 59.891510009765625,36.35444641113281 59.891510009765625,36.35444641113281 58.783262968063354,35.611724853515625 58.783262968063354,35.611724853515625 57.617342472076416,34.95781123638153 57.617342472076416,34.95781123638153 56.39892816543579,34.397584199905396 56.39892816543579,34.397584199905396 56.26327395439148,34.331971406936646 56.26327395439148,34.331971406936646 56.13846182823181,34.25193727016449 56.13846182823181,34.25193727016449 56.024932861328125,34.158554673194885 56.024932861328125,34.158554673194885 55.92384338378906,34.053269028663635 55.92384338378906,34.053269028663635 55.83587884902954,33.93722474575043 55.83587884902954,33.93722474575043 55.762022733688354,33.81179869174957 55.762022733688354,33.81179869174957 55.70312738418579,33.67820680141449 55.70312738418579,33.67820680141449 55.65994381904602,33.53782594203949 55.65994381904602,33.53782594203949 55.63339591026306,33.39180052280426 55.63339591026306,33.39180052280426" stroke="white" stroke-width="0.1" /><polygon points="43.8751220703125,25.624391436576843 43.8751220703125,25.624391436576843 43.96560788154602,25.698930025100708 43.96560788154602,25.698930025100708 44.0481573343277,25.78117549419403 44.0481573343277,25.78117549419403 44.12216246128082,25.870057940483093 44.12216246128082,25.870057940483093 44.18747127056122,25.965043902397156 44.18747127056122,25.965043902397156 44.2434698343277,26.065370440483093 44.2434698343277,26.065370440483093 44.2901611328125,26.170501112937927 44.2901611328125,26.170501112937927 44.327011704444885,26.279830932617188 44.327011704444885,26.279830932617188 44.35379207134247,26.392441987991333 44.35379207134247,26.392441987991333 44.37011778354645,26.507875323295593 44.37011778354645,26.507875323295593 44.3756103515625,26.625367999076843 44.3756103515625,26.625367999076843 44.3756103515625,33.24157893657684 44.3756103515625,33.24157893657684 44.36653256416321,33.39172303676605 44.36653256416321,33.39172303676605 44.34005916118622,33.53782594203949 44.34005916118622,33.53782594203949 44.29687559604645,33.67813229560852 44.29687559604645,33.67813229560852 44.237977266311646,33.81187617778778 44.237977266311646,33.81187617778778 44.1641241312027,33.93722474575043 44.1641241312027,33.93722474575043 44.076234102249146,34.053269028663635 44.076234102249146,34.053269028663635 43.975067138671875,34.158554673194885 43.975067138671875,34.158554673194885 43.861618638038635,34.25186276435852 43.861618638038635,34.25186276435852 43.73672604560852,34.331971406936646 43.73672604560852,34.331971406936646 43.60107481479645,34.397584199905396 43.60107481479645,34.397584199905396 42.38227903842926,34.95773375034332 42.38227903842926,34.95773375034332 41.216203570365906,35.61180233955383 41.216203570365906,35.61180233955383 40.10772705078125,36.35452389717102 40.10772705078125,36.35452389717102 39.06204402446747,37.18063533306122 39.06204402446747,37.18063533306122 38.08448910713196,38.0850225687027 38.08448910713196,38.0850225687027 37.18009889125824,39.06265199184418 37.18009889125824,39.06265199184418 36.35406494140625,40.1083379983902 36.35406494140625,40.1083379983902 35.61149537563324,41.216737031936646 35.61149537563324,41.216737031936646 34.957581758499146,42.38296449184418 34.957581758499146,42.38296449184418 34.397584199905396,43.601685762405396 34.397584199905396,43.601685762405396 34.331971406936646,43.73725950717926 34.331971406936646,43.73725950717926 34.25193727016449,43.862152099609375 34.25193727016449,43.862152099609375 34.158554673194885,43.975600600242615 34.158554673194885,43.975600600242615 34.05334651470184,44.07661557197571 34.05334651470184,44.07661557197571 33.93722474575043,44.16442811489105 33.93722474575043,44.16442811489105 33.81179869174957,44.23812925815582 33.81179869174957,44.23812925815582 33.67820680141449,44.297027587890625 33.67820680141449,44.297027587890625 33.53782594203949,44.34013366699219 33.53782594203949,44.34013366699219 33.39180052280426,44.36660706996918 33.39180052280426,44.36660706996918 33.24157893657684,44.3756103515625 33.24157893657684,44.3756103515625 26.625975966453552,44.3756103515625 26.625975966453552,44.3756103515625 26.50863826274872,44.37004029750824 26.50863826274872,44.37004029750824 26.393434405326843,44.35379207134247 26.393434405326843,44.35379207134247 26.280823349952698,44.32708919048309 26.280823349952698,44.32708919048309 26.171571016311646,44.2901611328125 26.171571016311646,44.2901611328125 26.066437363624573,44.2434698343277 26.066437363624573,44.2434698343277 25.966033339500427,44.1873162984848 25.966033339500427,44.1873162984848 25.870972871780396,44.122084975242615 25.870972871780396,44.122084975242615 25.782012939453125,44.0481573343277 25.782012939453125,44.0481573343277 25.699767470359802,43.96560788154602 25.699767470359802,43.96560788154602 25.624999403953552,43.8751220703125 25.624999403953552,43.8751220703125 25.55893063545227,43.77784729003906 25.55893063545227,43.77784729003906 25.50300657749176,43.6758428812027 25.50300657749176,43.6758428812027 25.457000732421875,43.569716811180115 25.457000732421875,43.569716811180115 25.421142578125,43.46023499965668 25.421142578125,43.46023499965668 25.395584106445312,43.347930908203125 25.395584106445312,43.347930908203125 25.38047730922699,43.23387145996094 25.38047730922699,43.23387145996094 25.37582516670227,43.11866760253906 25.37582516670227,43.11866760253906 25.38192868232727,43.00315976142883 25.38192868232727,43.00315976142883 25.39878785610199,42.88803040981293 25.39878785610199,42.88803040981293 25.426635146141052,42.77404844760895 25.426635146141052,42.77404844760895 26.284942030906677,40.31417965888977 26.284942030906677,40.31417965888977 27.371826767921448,37.98202574253082 27.371826767921448,37.98202574253082 28.674545884132385,35.78956723213196 28.674545884132385,35.78956723213196 30.18035888671875,33.75000059604645 30.18035888671875,33.75000059604645 31.87668025493622,31.875458359718323 31.87668025493622,31.875458359718323 33.75091552734375,30.178984999656677 33.75091552734375,30.178984999656677 35.79033017158508,28.673097491264343 35.79033017158508,28.673097491264343 37.98232972621918,27.370452880859375 37.98232972621918,27.370452880859375 40.31417965888977,26.283645629882812 40.31417965888977,26.283645629882812 42.7734375,25.425416231155396 42.7734375,25.425416231155396 42.82638728618622,25.418242812156677 42.82638728618622,25.418242812156677 42.91137754917145,25.417327880859375 42.91137754917145,25.417327880859375 43.020859360694885,25.422438979148865 43.020859360694885,25.422438979148865 43.147966265678406,25.433656573295593 43.147966265678406,25.433656573295593 43.285369873046875,25.450745224952698 43.285369873046875,25.450745224952698 43.42590272426605,25.473785400390625 43.42590272426605,25.473785400390625 43.56231689453125,25.502777099609375 43.56231689453125,25.502777099609375 43.68743896484375,25.53756833076477 43.68743896484375,25.53756833076477 43.79409849643707,25.578078627586365 43.79409849643707,25.578078627586365" stroke="white" stroke-width="0.1" /><polygon points="74.37500357627869,56.1248779296875 74.37500357627869,56.1248779296875 74.44076538085938,56.222003698349 74.44076538085938,56.222003698349 74.49676394462585,56.32416009902954 74.49676394462585,56.32416009902954 74.54277276992798,56.430357694625854 74.54277276992798,56.430357694625854 74.57863092422485,56.53999447822571 74.57863092422485,56.53999447822571 74.60418939590454,56.652069091796875 74.60418939590454,56.652069091796875 74.61937069892883,56.76612854003906 74.61937069892883,56.76612854003906 74.62402582168579,56.88125491142273 74.62402582168579,56.88125491142273 74.617999792099,56.996917724609375 74.617999792099,56.996917724609375 74.60113763809204,57.11197257041931 74.60113763809204,57.11197257041931 74.57336783409119,57.22595453262329 74.57336783409119,57.22595453262329 73.71528744697571,59.68528985977173 73.71528744697571,59.68528985977173 72.6287841796875,62.017518281936646 72.6287841796875,62.017518281936646 71.32629752159119,64.20966982841492 71.32629752159119,64.20966982841492 69.82055902481079,66.24931693077087 69.82055902481079,66.24931693077087 68.12431216239929,68.12362670898438 68.12431216239929,68.12362670898438 66.25015139579773,69.82017755508423 66.25015139579773,69.82017755508423 64.21066522598267,71.32614254951477 64.21066522598267,71.32614254951477 62.018585205078125,72.62901663780212 62.018585205078125,72.62901663780212 59.686511754989624,73.71597290039062 59.686511754989624,73.71597290039062 57.22717642784119,74.5745837688446 57.22717642784119,74.5745837688446 57.21039175987244,74.57923889160156 57.21039175987244,74.57923889160156 57.162630558013916,74.5905339717865 57.162630558013916,74.5905339717865 57.08755850791931,74.60373044013977 57.08755850791931,74.60373044013977 56.98936581611633,74.61441159248352 56.98936581611633,74.61441159248352 56.87156915664673,74.61807131767273 56.87156915664673,74.61807131767273 56.73820376396179,74.61044192314148 56.73820376396179,74.61044192314148 56.593018770217896,74.58694577217102 56.593018770217896,74.58694577217102 56.439971923828125,74.54315423965454 56.439971923828125,74.54315423965454 56.282806396484375,74.4745671749115 56.282806396484375,74.4745671749115 56.12549185752869,74.37683343887329 56.12549185752869,74.37683343887329 55.98495602607727,74.25651550292969 55.98495602607727,74.25651550292969 55.87348937988281,74.12697076797485 55.87348937988281,74.12697076797485 55.78765869140625,73.99330139160156 55.78765869140625,73.99330139160156 55.72425723075867,73.86054992675781 55.72425723075867,73.86054992675781 55.67970275878906,73.73397946357727 55.67970275878906,73.73397946357727 55.65078854560852,73.6188530921936 55.65078854560852,73.6188530921936 55.63415884971619,73.52035641670227 55.63415884971619,73.52035641670227 55.62652945518494,73.44352602958679 55.62652945518494,73.44352602958679 55.6243896484375,73.39363098144531 55.6243896484375,73.39363098144531 55.6243896484375,73.37585687637329 55.6243896484375,73.37585687637329 55.6243896484375,66.7584240436554 55.6243896484375,66.7584240436554 55.63339591026306,66.60804748535156 55.63339591026306,66.60804748535156 55.65994381904602,66.46217703819275 55.65994381904602,66.46217703819275 55.70312738418579,66.32186770439148 55.70312738418579,66.32186770439148 55.76210021972656,66.1883533000946 55.76210021972656,66.1883533000946 55.83587884902954,66.06277823448181 55.83587884902954,66.06277823448181 55.923765897750854,65.94681143760681 55.923765897750854,65.94681143760681 56.024932861328125,65.84144830703735 56.024932861328125,65.84144830703735 56.1383843421936,65.74813723564148 56.1383843421936,65.74813723564148 56.26327395439148,65.66795706748962 56.26327395439148,65.66795706748962 56.39892816543579,65.6024158000946 56.39892816543579,65.6024158000946 57.617491483688354,65.0421142578125 57.617491483688354,65.0421142578125 58.78357291221619,64.38827514648438 58.78357291221619,64.38827514648438 59.89189147949219,63.64555358886719 59.89189147949219,63.64555358886719 60.93742251396179,62.81959414482117 60.93742251396179,62.81959414482117 61.91490292549133,61.91498041152954 61.91490292549133,61.91498041152954 62.819212675094604,60.93735098838806 62.819212675094604,60.93735098838806 63.645172119140625,59.89174246788025 63.645172119140625,59.89174246788025 64.38758969306946,58.783262968063354 64.38758969306946,58.783262968063354 65.04135131835938,57.61703848838806 65.04135131835938,57.61703848838806 65.60119986534119,56.398314237594604 65.60119986534119,56.398314237594604 65.66673517227173,56.26266598701477 65.66673517227173,56.26266598701477 65.74684381484985,56.13792538642883 65.74684381484985,56.13792538642883 65.84022641181946,56.024324893951416 65.84022641181946,56.024324893951416 65.94558954238892,55.92338442802429 65.94558954238892,55.92338442802429 66.06155633926392,55.83557486534119 66.06155633926392,55.83557486534119 66.18698239326477,55.76179623603821 66.18698239326477,55.76179623603821 66.32049679756165,55.702972412109375 66.32049679756165,55.702972412109375 66.46095514297485,55.65986633300781 66.46095514297485,55.65986633300781 66.60690307617188,55.63339591026306 66.60690307617188,55.63339591026306 66.7572021484375,55.6243896484375 66.7572021484375,55.6243896484375 73.37402701377869,55.6243896484375 73.37402701377869,55.6243896484375 73.49128723144531,55.62980771064758 73.49128723144531,55.62980771064758 73.60672354698181,55.64628839492798 73.60672354698181,55.64628839492798 73.71917963027954,55.67299127578735 73.71917963027954,55.67299127578735 73.82842898368835,55.70991635322571 73.82842898368835,55.70991635322571 73.93356561660767,55.75653314590454 73.93356561660767,55.75653314590454 74.03396964073181,55.81260919570923 74.03396964073181,55.81260919570923 74.1290271282196,55.877840518951416 74.1290271282196,55.877840518951416 74.21798706054688,55.95184564590454 74.21798706054688,55.95184564590454 74.30023550987244,56.03432059288025 74.30023550987244,56.03432059288025" stroke="white" stroke-width="0.1" /><polygon points="44.3756103515625,66.7584240436554 44.3756103515625,66.7584240436554 44.3756103515625,73.37585687637329 44.3756103515625,73.37585687637329 44.37011778354645,73.49296808242798 44.37011778354645,73.49296808242798 44.35379207134247,73.60817193984985 44.35379207134247,73.60817193984985 44.327011704444885,73.72070550918579 44.327011704444885,73.72070550918579 44.2901611328125,73.82980585098267 44.2901611328125,73.82980585098267 44.24339234828949,73.9349365234375 44.24339234828949,73.9349365234375 44.18724179267883,74.03541803359985 44.18724179267883,74.03541803359985 44.12193298339844,74.13048148155212 44.12193298339844,74.13048148155212 44.047775864601135,74.21951293945312 44.047775864601135,74.21951293945312 43.96514892578125,74.30183291435242 43.96514892578125,74.30183291435242 43.87451112270355,74.37683343887329 43.87451112270355,74.37683343887329 43.7936395406723,74.42299127578735 43.7936395406723,74.42299127578735 43.687209486961365,74.46350455284119 43.687209486961365,74.46350455284119 43.56216490268707,74.49814081192017 43.56216490268707,74.49814081192017 43.42582821846008,74.52705502510071 43.42582821846008,74.52705502510071 43.285295367240906,74.54986572265625 43.285295367240906,74.54986572265625 43.1478887796402,74.56688284873962 43.1478887796402,74.56688284873962 43.020859360694885,74.57786798477173 43.020859360694885,74.57786798477173 42.91130006313324,74.58282709121704 42.91130006313324,74.58282709121704 42.82638728618622,74.58176016807556 42.82638728618622,74.58176016807556 42.7734375,74.5745837688446 42.7734375,74.5745837688446 40.31387269496918,73.71597290039062 40.31387269496918,73.71597290039062 37.98179626464844,72.62908816337585 37.98179626464844,72.62908816337585 35.78956723213196,71.32622003555298 35.78956723213196,71.32622003555298 33.750078082084656,69.82025504112244 33.750078082084656,69.82025504112244 31.875762343406677,68.12362670898438 31.875762343406677,68.12362670898438 30.179443955421448,66.24923944473267 30.179443955421448,66.24923944473267 28.673705458641052,64.20959830284119 28.673705458641052,64.20959830284119 27.3712158203125,62.017518281936646 27.3712158203125,62.017518281936646 26.284638047218323,59.68528985977173 26.284638047218323,59.68528985977173 25.426635146141052,57.22595453262329 25.426635146141052,57.22595453262329 25.39871335029602,57.1118950843811 25.39871335029602,57.1118950843811 25.38192868232727,56.99684023857117 25.38192868232727,56.99684023857117 25.375977158546448,56.881409883499146 25.375977158546448,56.881409883499146 25.380706787109375,56.76612854003906 25.380706787109375,56.76612854003906 25.395813584327698,56.652069091796875 25.395813584327698,56.652069091796875 25.421449542045593,56.5399169921875 25.421449542045593,56.5399169921875 25.45723021030426,56.430286169052124 25.45723021030426,56.430286169052124 25.503236055374146,56.32416009902954 25.503236055374146,56.32416009902954 25.559160113334656,56.22207522392273 25.559160113334656,56.22207522392273 25.624999403953552,56.1248779296875 25.624999403953552,56.1248779296875 25.699767470359802,56.03424310684204 25.699767470359802,56.03424310684204 25.782012939453125,55.95192313194275 25.782012939453125,55.95192313194275 25.870972871780396,55.877840518951416 25.870972871780396,55.877840518951416 25.966033339500427,55.81275820732117 25.966033339500427,55.81275820732117 26.066437363624573,55.75653314590454 26.066437363624573,55.75653314590454 26.171571016311646,55.7098388671875 26.171571016311646,55.7098388671875 26.280823349952698,55.67299127578735 26.280823349952698,55.67299127578735 26.393434405326843,55.64621090888977 26.393434405326843,55.64621090888977 26.50863826274872,55.62988519668579 26.50863826274872,55.62988519668579 26.625975966453552,55.6243896484375 26.625975966453552,55.6243896484375 33.240967988967896,55.6243896484375 33.240967988967896,55.6243896484375 33.39118957519531,55.633240938186646 33.39118957519531,55.633240938186646 33.53721797466278,55.65994381904602 33.53721797466278,55.65994381904602 33.67767333984375,55.702972412109375 33.67767333984375,55.702972412109375 33.811187744140625,55.761951208114624 33.811187744140625,55.761951208114624 33.93661677837372,55.83557486534119 33.93661677837372,55.83557486534119 34.05265808105469,55.92338442802429 34.05265808105469,55.92338442802429 34.158021211624146,56.024473905563354 34.158021211624146,56.024473905563354 34.25132930278778,56.137847900390625 34.25132930278778,56.137847900390625 34.3313604593277,56.26274347305298 34.3313604593277,56.26274347305298 34.39697325229645,56.398314237594604 34.39697325229645,56.398314237594604 34.9569708108902,57.61696100234985 34.9569708108902,57.61696100234985 35.6109619140625,58.78334045410156 35.6109619140625,58.78334045410156 36.35360896587372,59.89174246788025 36.35360896587372,59.89174246788025 37.17971742153168,60.9375 37.17971742153168,60.9375 38.084182143211365,61.91498041152954 38.084182143211365,61.91498041152954 39.06188905239105,62.81936764717102 39.06188905239105,62.81936764717102 40.10757505893707,63.64555358886719 40.10757505893707,63.64555358886719 41.2161260843277,64.38819766044617 41.2161260843277,64.38819766044617 42.38235652446747,65.04219174385071 42.38235652446747,65.04219174385071 43.60107481479645,65.6024158000946 43.60107481479645,65.6024158000946 43.73657405376434,65.66780209541321 43.73657405376434,65.66780209541321 43.861618638038635,65.74806571006775 43.861618638038635,65.74806571006775 43.975067138671875,65.84144830703735 43.975067138671875,65.84144830703735 44.076234102249146,65.94681143760681 44.076234102249146,65.94681143760681 44.1641241312027,66.06277823448181 44.1641241312027,66.06277823448181 44.237977266311646,66.18820428848267 44.237977266311646,66.18820428848267 44.296953082084656,66.32179617881775 44.296953082084656,66.32179617881775 44.34005916118622,66.46217703819275 44.34005916118622,66.46217703819275 44.36653256416321,66.60812497138977 44.36653256416321,66.60812497138977" stroke="white" stroke-width="0.1" /><polygon points="38.432008028030396,53.12439203262329 38.432008028030396,53.12439203262329 20.215454697608948,53.12439203262329 20.215454697608948,53.12439203262329 19.708481431007385,53.083497285842896 19.708481431007385,53.083497285842896 19.22752410173416,52.96524167060852 19.22752410173416,52.96524167060852 18.77899169921875,52.775877714157104 18.77899169921875,52.775877714157104 18.369369208812714,52.52189636230469 18.369369208812714,52.52189636230469 18.005065619945526,52.209776639938354 18.005065619945526,52.209776639938354 17.69256591796875,51.84585452079773 17.69256591796875,51.84585452079773 17.438316345214844,51.43653750419617 17.438316345214844,51.43653750419617 17.248688638210297,50.98831057548523 17.248688638210297,50.98831057548523 17.130088806152344,50.50743222236633 17.130088806152344,50.50743222236633 17.08923429250717,50.00061392784119 17.08923429250717,50.00061392784119 17.130127549171448,49.49348568916321 17.130127549171448,49.49348568916321 17.248649895191193,49.01260435581207 17.248649895191193,49.01260435581207 17.43827909231186,48.56429994106293 17.43827909231186,48.56429994106293 17.692528665065765,48.154908418655396 17.692528665065765,48.154908418655396 18.005065619945526,47.79090881347656 18.005065619945526,47.79090881347656 18.369407951831818,47.47879207134247 18.369407951831818,47.47879207134247 18.77899169921875,47.22473323345184 18.77899169921875,47.22473323345184 19.227562844753265,47.03536927700043 19.227562844753265,47.03536927700043 19.70844268798828,46.91703915596008 19.70844268798828,46.91703915596008 20.215454697608948,46.876221895217896 20.215454697608948,46.876221895217896 38.432008028030396,46.876221895217896 38.432008028030396,46.876221895217896 38.93890380859375,46.91703915596008 38.93890380859375,46.91703915596008 39.41986262798309,47.03536927700043 39.41986262798309,47.03536927700043 39.8681640625,47.22473323345184 39.8681640625,47.22473323345184 40.27763307094574,47.47871458530426 40.27763307094574,47.47871458530426 40.64178466796875,47.79090881347656 40.64178466796875,47.79090881347656 40.95413386821747,48.154982924461365 40.95413386821747,48.154982924461365 41.20826721191406,48.564377427101135 41.20826721191406,48.564377427101135 41.39770567417145,49.01260435581207 41.39770567417145,49.01260435581207 41.51603877544403,49.49348568916321 41.51603877544403,49.49348568916321 41.557008028030396,50.00061392784119 41.557008028030396,50.00061392784119 41.51611328125,50.50750970840454 41.51611328125,50.50750970840454 41.39770567417145,50.98831057548523 41.39770567417145,50.98831057548523 41.20826721191406,51.43653750419617 41.20826721191406,51.43653750419617 40.95413386821747,51.845782995224 40.95413386821747,51.845782995224 40.64178466796875,52.209776639938354 40.64178466796875,52.209776639938354 40.27771055698395,52.5220513343811 40.27771055698395,52.5220513343811 39.86824154853821,52.775877714157104 39.86824154853821,52.775877714157104 39.41986262798309,52.96531915664673 39.41986262798309,52.96531915664673 38.93890380859375,53.083497285842896 38.93890380859375,53.083497285842896" stroke="white" stroke-width="0.1" /><polygon points="79.78577017784119,46.876221895217896 79.78577017784119,46.876221895217896 80.29266595840454,46.91703915596008 80.29266595840454,46.91703915596008 80.77362179756165,47.03536927700043 80.77362179756165,47.03536927700043 81.222003698349,47.22473323345184 81.222003698349,47.22473323345184 81.6314697265625,47.47871458530426 81.6314697265625,47.47871458530426 81.99554681777954,47.79090881347656 81.99554681777954,47.79090881347656 82.30789303779602,48.154982924461365 82.30789303779602,48.154982924461365 82.56202936172485,48.564377427101135 82.56202936172485,48.564377427101135 82.75146484375,49.01260435581207 82.75146484375,49.01260435581207 82.86979794502258,49.49348568916321 82.86979794502258,49.49348568916321 82.91077017784119,50.00061392784119 82.91077017784119,50.00061392784119 82.86987543106079,50.50750970840454 82.86987543106079,50.50750970840454 82.75146484375,50.98831057548523 82.75146484375,50.98831057548523 82.56202936172485,51.43653750419617 82.56202936172485,51.43653750419617 82.30789303779602,51.845782995224 82.30789303779602,51.845782995224 81.99554681777954,52.209776639938354 81.99554681777954,52.209776639938354 81.6314697265625,52.5220513343811 81.6314697265625,52.5220513343811 81.222003698349,52.775877714157104 81.222003698349,52.775877714157104 80.77362179756165,52.96531915664673 80.77362179756165,52.96531915664673 80.29266595840454,53.083497285842896 80.29266595840454,53.083497285842896 79.78577017784119,53.12439203262329 79.78577017784119,53.12439203262329 61.5692138671875,53.12439203262329 61.5692138671875,53.12439203262329 61.06216311454773,53.083497285842896 61.06216311454773,53.083497285842896 60.58128476142883,52.96524167060852 60.58128476142883,52.96524167060852 60.13275384902954,52.775877714157104 60.13275384902954,52.775877714157104 59.723055362701416,52.52189636230469 59.723055362701416,52.52189636230469 59.35882925987244,52.209776639938354 59.35882925987244,52.209776639938354 59.04640555381775,51.84585452079773 59.04640555381775,51.84585452079773 58.79203677177429,51.43653750419617 58.79203677177429,51.43653750419617 58.60244631767273,50.98831057548523 58.60244631767273,50.98831057548523 58.48388671875,50.50743222236633 58.48388671875,50.50743222236633 58.442991971969604,50.00061392784119 58.442991971969604,50.00061392784119 58.48388671875,49.49348568916321 58.48388671875,49.49348568916321 58.60244631767273,49.01260435581207 58.60244631767273,49.01260435581207 58.79203677177429,48.56429994106293 58.79203677177429,48.56429994106293 59.04632806777954,48.154908418655396 59.04632806777954,48.154908418655396 59.35882925987244,47.79090881347656 59.35882925987244,47.79090881347656 59.723204374313354,47.47879207134247 59.723204374313354,47.47879207134247 60.13275384902954,47.22473323345184 60.13275384902954,47.22473323345184 60.58128476142883,47.03536927700043 60.58128476142883,47.03536927700043 61.06224060058594,46.91703915596008 61.06224060058594,46.91703915596008 61.5692138671875,46.876221895217896 61.5692138671875,46.876221895217896" stroke="white" stroke-width="0.1" /><polygon points="46.87561094760895,38.43261897563934 46.87561094760895,38.43261897563934 46.87561094760895,20.216064155101776 46.87561094760895,20.216064155101776 46.91650569438934,19.709090888500214 46.91650569438934,19.709090888500214 47.03476130962372,19.22813504934311 47.03476130962372,19.22813504934311 47.224122285842896,18.779602646827698 47.224122285842896,18.779602646827698 47.47802913188934,18.36998015642166 47.47802913188934,18.36998015642166 47.790223360061646,18.005676567554474 47.790223360061646,18.005676567554474 48.15421998500824,17.693252861499786 48.15421998500824,17.693252861499786 48.56346249580383,17.438888549804688 48.56346249580383,17.438888549804688 49.01176393032074,17.249298095703125 49.01176393032074,17.249298095703125 49.49241578578949,17.130737006664276 49.49241578578949,17.130737006664276 49.99938905239105,17.08984375 49.99938905239105,17.08984375 50.506591796875,17.130737006664276 50.506591796875,17.130737006664276 50.98770260810852,17.249298095703125 50.98770260810852,17.249298095703125 51.436156034469604,17.438888549804688 51.436156034469604,17.438888549804688 51.845550537109375,17.693176865577698 51.845550537109375,17.693176865577698 52.209627628326416,18.005676567554474 52.209627628326416,18.005676567554474 52.521973848342896,18.37005615234375 52.521973848342896,18.37005615234375 52.775877714157104,18.77952665090561 52.775877714157104,18.77952665090561 52.96524167060852,19.22813504934311 52.96524167060852,19.22813504934311 53.083497285842896,19.709014892578125 53.083497285842896,19.709014892578125 53.12439203262329,20.216064155101776 53.12439203262329,20.216064155101776 53.12439203262329,38.43261897563934 53.12439203262329,38.43261897563934 53.083497285842896,38.9395147562027 53.083497285842896,38.9395147562027 52.96524167060852,39.42039608955383 52.96524167060852,39.42039608955383 52.775877714157104,39.86869752407074 52.775877714157104,39.86869752407074 52.52181887626648,40.27816951274872 52.52181887626648,40.27816951274872 52.209627628326416,40.64209163188934 52.209627628326416,40.64209163188934 51.84562802314758,40.954360365867615 51.84562802314758,40.954360365867615 51.436156034469604,41.20834469795227 51.436156034469604,41.20834469795227 50.98770260810852,41.397783160209656 50.98770260810852,41.397783160209656 50.506591796875,41.51603877544403 50.506591796875,41.51603877544403 49.99938905239105,41.557008028030396 49.99938905239105,41.557008028030396 49.4924932718277,41.51611328125 49.4924932718277,41.51611328125 49.01168942451477,41.397783160209656 49.01168942451477,41.397783160209656 48.56346249580383,41.20834469795227 48.56346249580383,41.20834469795227 48.15414547920227,40.954360365867615 48.15414547920227,40.954360365867615 47.790223360061646,40.64209163188934 47.790223360061646,40.64209163188934 47.47818112373352,40.27816951274872 47.47818112373352,40.27816951274872 47.224122285842896,39.86869752407074 47.224122285842896,39.86869752407074 47.03483581542969,39.42039608955383 47.03483581542969,39.42039608955383 46.91635072231293,38.93943727016449 46.91635072231293,38.93943727016449" stroke="white" stroke-width="0.1" /><polygon points="53.12439203262329,61.56982779502869 53.12439203262329,61.56982779502869 53.12439203262329,79.7863781452179 53.12439203262329,79.7863781452179 53.083497285842896,80.29327392578125 53.083497285842896,80.29327392578125 52.96524167060852,80.77408075332642 52.96524167060852,80.77408075332642 52.775877714157104,81.22245669364929 52.775877714157104,81.22245669364929 52.52181887626648,81.63177371025085 52.52181887626648,81.63177371025085 52.209627628326416,81.9958508014679 52.209627628326416,81.9958508014679 51.84562802314758,82.30819702148438 51.84562802314758,82.30819702148438 51.436156034469604,82.56210684776306 51.436156034469604,82.56210684776306 50.98770260810852,82.75154232978821 50.98770260810852,82.75154232978821 50.506591796875,82.86979794502258 50.506591796875,82.86979794502258 49.99938905239105,82.91077017784119 49.99938905239105,82.91077017784119 49.4924932718277,82.86987543106079 49.4924932718277,82.86987543106079 49.01168942451477,82.75154232978821 49.01168942451477,82.75154232978821 48.56346249580383,82.56210684776306 48.56346249580383,82.56210684776306 48.15414547920227,82.30804800987244 48.15414547920227,82.30804800987244 47.790223360061646,81.9958508014679 47.790223360061646,81.9958508014679 47.47818112373352,81.63192868232727 47.47818112373352,81.63192868232727 47.224122285842896,81.22238516807556 47.224122285842896,81.22238516807556 47.03483581542969,80.77415823936462 47.03483581542969,80.77415823936462 46.91635072231293,80.29319643974304 46.91635072231293,80.29319643974304 46.87561094760895,79.7863781452179 46.87561094760895,79.7863781452179 46.87561094760895,61.56982779502869 46.87561094760895,61.56982779502869 46.91650569438934,61.062777042388916 46.91650569438934,61.062777042388916 47.03476130962372,60.58189272880554 47.03476130962372,60.58189272880554 47.224122285842896,60.13336181640625 47.224122285842896,60.13336181640625 47.47802913188934,59.723663330078125 47.47802913188934,59.723663330078125 47.790223360061646,59.359437227249146 47.790223360061646,59.359437227249146 48.15421998500824,59.04701352119446 48.15421998500824,59.04701352119446 48.56346249580383,58.79265069961548 48.56346249580383,58.79265069961548 49.01176393032074,58.60298275947571 49.01176393032074,58.60298275947571 49.49241578578949,58.48450064659119 49.49241578578949,58.48450064659119 49.99938905239105,58.44360589981079 49.99938905239105,58.44360589981079 50.506591796875,58.48450064659119 50.506591796875,58.48450064659119 50.98770260810852,58.603060245513916 50.98770260810852,58.603060245513916 51.436156034469604,58.79265069961548 51.436156034469604,58.79265069961548 51.845550537109375,59.04693603515625 51.845550537109375,59.04693603515625 52.209627628326416,59.359437227249146 52.209627628326416,59.359437227249146 52.521973848342896,59.72381830215454 52.521973848342896,59.72381830215454 52.775877714157104,60.13328433036804 52.775877714157104,60.13328433036804 52.96524167060852,60.58197021484375 52.96524167060852,60.58197021484375 53.083497285842896,61.06269955635071 53.083497285842896,61.06269955635071" stroke="white" stroke-width="0.1" /></svg>