<?xml version="1.0" encoding="utf-8" ?>
<svg baseProfile="full" height="65.7916247844696" version="1.1" width="33.74389708042145" xmlns="http://www.w3.org/2000/svg" xmlns:ev="http://www.w3.org/2001/xml-events" xmlns:xlink="http://www.w3.org/1999/xlink"><defs><clipPath /></defs><polygon points="28.8787841796875,55.091553926467896 28.8787841796875,55.091553926467896 29.69818115234375,55.234527587890625 29.69818115234375,55.234527587890625 30.47027587890625,55.49880862236023 30.47027587890625,55.49880862236023 31.185075640678406,55.873340368270874 31.185075640678406,55.873340368270874 31.832504272460938,56.34681582450867 31.832504272460938,56.34681582450867 32.4026495218277,56.907886266708374 32.4026495218277,56.907886266708374 32.88559019565582,57.545626163482666 32.88559019565582,57.545626163482666 33.271026611328125,58.24851989746094 33.271026611328125,58.24851989746094 33.54934751987457,59.00565981864929 33.54934751987457,59.00565981864929 33.71017575263977,59.805452823638916 33.71017575263977,59.805452823638916 33.74389708042145,60.637205839157104 33.74389708042145,60.637205839157104 33.625489473342896,61.555635929107666 33.625489473342896,61.555635929107666 33.35525691509247,62.417906522750854 33.35525691509247,62.417906522750854 32.94876217842102,63.2110595703125 32.94876217842102,63.2110595703125 32.421645522117615,63.92204165458679 32.421645522117615,63.92204165458679 31.789398193359375,64.53796625137329 31.789398193359375,64.53796625137329 31.067657470703125,65.04585146903992 31.067657470703125,65.04585146903992 30.27191162109375,65.4327392578125 30.27191162109375,65.4327392578125 29.417726397514343,65.68565368652344 29.417726397514343,65.68565368652344 28.52066159248352,65.7916247844696 28.52066159248352,65.7916247844696 27.596434950828552,65.7379150390625 27.596434950828552,65.7379150390625 26.75834596157074,65.54115414619446 26.75834596157074,65.54115414619446 25.979310274124146,65.21690487861633 25.979310274124146,65.21690487861633 25.269395112991333,64.77859616279602 25.269395112991333,64.77859616279602 24.638672173023224,64.23965692520142 24.638672173023224,64.23965692520142 24.09713715314865,63.613587617874146 24.09713715314865,63.613587617874146 23.654937744140625,62.913745641708374 23.654937744140625,62.913745641708374 23.321953415870667,62.15354800224304 23.321953415870667,62.15354800224304 23.10844510793686,61.346435546875 23.10844510793686,61.346435546875 23.024331033229828,60.505831241607666 23.024331033229828,60.505831241607666 23.07983487844467,59.645384550094604 23.07983487844467,59.645384550094604 23.266907036304474,58.83567929267883 23.266907036304474,58.83567929267883 23.57269376516342,58.079832792282104 23.57269376516342,58.079832792282104 23.98536652326584,57.38716125488281 23.98536652326584,57.38716125488281 24.493180215358734,56.766968965530396 24.493180215358734,56.766968965530396 25.08438229560852,56.2286376953125 25.08438229560852,56.2286376953125 25.74722468852997,55.78155517578125 25.74722468852997,55.78155517578125 26.46988034248352,55.434876680374146 26.46988034248352,55.434876680374146 27.24044919013977,55.19813895225525 27.24044919013977,55.19813895225525 28.047332167625427,55.08056879043579 28.047332167625427,55.08056879043579" stroke="white" stroke-width="0.1" /></svg>