<?xml version="1.0" encoding="utf-8" ?>
<svg baseProfile="full" height="75.0" version="1.1" width="77.13867425918579" xmlns="http://www.w3.org/2000/svg" xmlns:ev="http://www.w3.org/2001/xml-events" xmlns:xlink="http://www.w3.org/1999/xlink"><defs><clipPath /></defs><polygon points="58.601075410842896,59.088134765625 58.601075410842896,59.088134765625 58.646851778030396,59.32701230049133 58.646851778030396,59.32701230049133 58.687591552734375,59.56680178642273 58.687591552734375,59.56680178642273 58.72330069541931,59.80743765830994 58.72330069541931,59.80743765830994 58.75396728515625,60.048675537109375 58.75396728515625,60.048675537109375 58.7799072265625,60.29037833213806 58.7799072265625,60.29037833213806 58.800965547561646,60.53261160850525 58.800965547561646,60.53261160850525 58.81721377372742,60.774993896484375 58.81721377372742,60.774993896484375 58.82881283760071,61.01753115653992 58.82881283760071,61.01753115653992 58.83552432060242,61.26007437705994 58.83552432060242,61.26007437705994 58.837890625,61.50268912315369 58.837890625,61.50268912315369 58.80233645439148,62.44499087333679 58.80233645439148,62.44499087333679 58.69644284248352,63.381195068359375 58.69644284248352,63.381195068359375 58.52119326591492,64.30625915527344 58.52119326591492,64.30625915527344 58.27736258506775,65.21515250205994 58.27736258506775,65.21515250205994 57.96600580215454,66.10305905342102 57.96600580215454,66.10305905342102 57.58811831474304,66.96495413780212 57.58811831474304,66.96495413780212 57.144469022750854,67.79579520225525 57.144469022750854,67.79579520225525 56.636351346969604,68.59062314033508 56.636351346969604,68.59062314033508 56.06422424316406,69.34440732002258 56.06422424316406,69.34440732002258 55.42969107627869,70.05249261856079 55.42969107627869,70.05249261856079 55.76309561729431,70.08773684501648 55.76309561729431,70.08773684501648 56.092071533203125,70.12740969657898 56.092071533203125,70.12740969657898 56.41624331474304,70.17112970352173 56.41624331474304,70.17112970352173 56.73500299453735,70.21881341934204 56.73500299453735,70.21881341934204 57.04803466796875,70.27038931846619 57.04803466796875,70.27038931846619 57.354891300201416,70.32554745674133 57.354891300201416,70.32554745674133 57.65495300292969,70.38368582725525 57.65495300292969,70.38368582725525 57.947999238967896,70.44517397880554 57.947999238967896,70.44517397880554 58.23326110839844,70.50918936729431 58.23326110839844,70.50918936729431 58.51074457168579,70.5761730670929 58.51074457168579,70.5761730670929 58.93508791923523,70.6927478313446 58.93508791923523,70.6927478313446 59.33639407157898,70.81153988838196 59.33639407157898,70.81153988838196 59.714508056640625,70.93437314033508 59.714508056640625,70.93437314033508 60.06927490234375,71.06315493583679 60.06927490234375,71.06315493583679 60.400390625,71.19964957237244 60.400390625,71.19964957237244 60.70793271064758,71.3458240032196 60.70793271064758,71.3458240032196 60.99136471748352,71.50329947471619 60.99136471748352,71.50329947471619 61.25084161758423,71.67419791221619 61.25084161758423,71.67419791221619 61.48590445518494,71.85997366905212 61.48590445518494,71.85997366905212 61.69677972793579,72.0629870891571 61.69677972793579,72.0629870891571 61.75140738487244,72.12859988212585 61.75140738487244,72.12859988212585 61.80465817451477,72.19948172569275 61.80465817451477,72.19948172569275 61.85562014579773,72.27569818496704 61.85562014579773,72.27569818496704 61.90323233604431,72.35710024833679 61.90323233604431,72.35710024833679 61.946409940719604,72.4438488483429 61.946409940719604,72.4438488483429 61.98417544364929,72.53593802452087 61.98417544364929,72.53593802452087 62.01545596122742,72.6330578327179 62.01545596122742,72.6330578327179 62.039339542388916,72.73575067520142 62.039339542388916,72.73575067520142 62.054598331451416,72.84340262413025 62.054598331451416,72.84340262413025 62.060546875,72.9565441608429 62.060546875,72.9565441608429 62.05276846885681,73.09455871582031 62.05276846885681,73.09455871582031 62.02918887138367,73.22654724121094 62.02918887138367,73.22654724121094 61.991578340530396,73.35190176963806 61.991578340530396,73.35190176963806 61.941683292388916,73.47030639648438 61.941683292388916,73.47030639648438 61.88110709190369,73.58123660087585 61.88110709190369,73.58123660087585 61.81182861328125,73.68446588516235 61.81182861328125,73.68446588516235 61.73553466796875,73.77921938896179 61.73553466796875,73.77921938896179 61.653900146484375,73.86543154716492 61.653900146484375,73.86543154716492 61.56875491142273,73.94241690635681 61.56875491142273,73.94241690635681 61.481934785842896,74.0100085735321 61.481934785842896,74.0100085735321 61.39114499092102,74.07295107841492 61.39114499092102,74.07295107841492 61.297303438186646,74.13177490234375 61.297303438186646,74.13177490234375 61.200183629989624,74.18686151504517 61.200183629989624,74.18686151504517 61.099547147750854,74.23843741416931 61.099547147750854,74.23843741416931 60.995179414749146,74.28695559501648 60.995179414749146,74.28695559501648 60.886842012405396,74.3328869342804 60.886842012405396,74.3328869342804 60.7740044593811,74.37645196914673 60.7740044593811,74.37645196914673 60.656893253326416,74.41810965538025 60.656893253326416,74.41810965538025 60.53466796875,74.4580864906311 60.53466796875,74.4580864906311 60.407716035842896,74.49707388877869 60.407716035842896,74.49707388877869 60.14053225517273,74.5684802532196 60.14053225517273,74.5684802532196 59.85107421875,74.63470697402954 59.85107421875,74.63470697402954 59.538501501083374,74.69574213027954 59.538501501083374,74.69574213027954 59.201812744140625,74.75174069404602 59.201812744140625,74.75174069404602 58.84033441543579,74.80270266532898 58.84033441543579,74.80270266532898 58.453065156936646,74.8487114906311 58.453065156936646,74.8487114906311 58.039093017578125,74.8896062374115 58.039093017578125,74.8896062374115 57.597583532333374,74.92569088935852 57.597583532333374,74.92569088935852 57.127612829208374,74.95666742324829 57.127612829208374,74.95666742324829 56.62841796875,74.9829113483429 56.62841796875,74.9829113483429 56.53465390205383,74.98634457588196 56.53465390205383,74.98634457588196 56.440889835357666,74.98931884765625 56.440889835357666,74.98931884765625 56.34719729423523,74.99198913574219 56.34719729423523,74.99198913574219 56.25366568565369,74.99420046806335 56.25366568565369,74.99420046806335 56.15997314453125,74.99603629112244 56.15997314453125,74.99603629112244 56.06651306152344,74.99756217002869 56.06651306152344,74.99756217002869 55.973052978515625,74.99855160713196 55.973052978515625,74.99855160713196 55.87974786758423,74.99939203262329 55.87974786758423,74.99939203262329 55.786287784576416,74.99985098838806 55.786287784576416,74.99985098838806 55.693358182907104,75.0 55.693358182907104,75.0 54.479217529296875,74.969482421875 54.479217529296875,74.969482421875 53.25973629951477,74.89005923271179 53.25973629951477,74.89005923271179 52.03704833984375,74.77386593818665 52.03704833984375,74.77386593818665 50.81337094306946,74.63333010673523 50.81337094306946,74.63333010673523 49.591064453125,74.48089718818665 49.591064453125,74.48089718818665 48.37226867675781,74.32884573936462 48.37226867675781,74.32884573936462 47.15919494628906,74.18937683105469 47.15919494628906,74.18937683105469 45.954132080078125,74.07516837120056 45.954132080078125,74.07516837120056 44.75906491279602,73.99803400039673 44.75906491279602,73.99803400039673 43.57666075229645,73.97094964981079 43.57666075229645,73.97094964981079 43.3786004781723,73.96957278251648 43.3786004781723,73.96957278251648 42.98965632915497,73.96087646484375 42.98965632915497,73.96087646484375 42.44720637798309,73.93776178359985 42.44720637798309,73.93776178359985 41.78878962993622,73.8934338092804 41.78878962993622,73.8934338092804 41.05163514614105,73.82095456123352 41.05163514614105,73.82095456123352 40.27343690395355,73.7134575843811 40.27343690395355,73.7134575843811 39.49142396450043,73.56368899345398 39.49142396450043,73.56368899345398 38.74320983886719,73.36502075195312 38.74320983886719,73.36502075195312 38.06594908237457,73.11035394668579 38.06594908237457,73.11035394668579 37.49755918979645,72.79297113418579 37.49755918979645,72.79297113418579 37.386322021484375,72.71537780761719 37.386322021484375,72.71537780761719 37.27562129497528,72.63427972793579 37.27562129497528,72.63427972793579 37.1652215719223,72.54974246025085 37.1652215719223,72.54974246025085 37.0553582906723,72.46177792549133 37.0553582906723,72.46177792549133 36.94610595703125,72.3706066608429 36.94610595703125,72.3706066608429 36.83761656284332,72.27622866630554 36.83761656284332,72.27622866630554 36.72958314418793,72.17850089073181 36.72958314418793,72.17850089073181 36.62261962890625,72.07794189453125 36.62261962890625,72.07794189453125 36.51634156703949,71.97418212890625 36.51634156703949,71.97418212890625 36.41113340854645,71.8676745891571 36.41113340854645,71.8676745891571 35.94909608364105,71.49521112442017 35.94909608364105,71.49521112442017 35.50376892089844,71.10504508018494 35.50376892089844,71.10504508018494 35.07499694824219,70.69786190986633 35.07499694824219,70.69786190986633 34.66239869594574,70.27473449707031 34.66239869594574,70.27473449707031 34.26567018032074,69.83650326728821 34.26567018032074,69.83650326728821 33.8845819234848,69.38400268554688 33.8845819234848,69.38400268554688 33.518677949905396,68.91807913780212 33.518677949905396,68.91807913780212 33.16787779331207,68.43963861465454 33.16787779331207,68.43963861465454 32.831498980522156,67.94945001602173 32.831498980522156,67.94945001602173 32.50976502895355,67.4487292766571 32.50976502895355,67.4487292766571 32.25448727607727,66.8383777141571 32.25448727607727,66.8383777141571 32.01431334018707,66.1939263343811 32.01431334018707,66.1939263343811 31.791535019874573,65.51505923271179 31.791535019874573,65.51505923271179 31.588897109031677,64.801025390625 31.588897109031677,64.801025390625 31.408920884132385,64.05181884765625 31.408920884132385,64.05181884765625 31.254273653030396,63.26667666435242 31.254273653030396,63.26667666435242 31.127318739891052,62.445372343063354 31.127318739891052,62.445372343063354 31.030884385108948,61.58737540245056 31.030884385108948,61.58737540245056 30.96717894077301,60.692137479782104 30.96717894077301,60.692137479782104 30.939331650733948,59.759521484375 30.939331650733948,59.759521484375 30.939331650733948,59.56665277481079 30.939331650733948,59.56665277481079 31.08772337436676,57.25311636924744 31.08772337436676,57.25311636924744 31.49261474609375,55.160218477249146 31.49261474609375,55.160218477249146 32.12379515171051,53.271180391311646 32.12379515171051,53.271180391311646 32.95097351074219,51.56928896903992 32.95097351074219,51.56928896903992 33.94409120082855,50.0379204750061 33.94409120082855,50.0379204750061 35.0729376077652,48.660507798194885 35.0729376077652,48.660507798194885 36.306992173194885,47.4203497171402 36.306992173194885,47.4203497171402 37.61642575263977,46.30073606967926 37.61642575263977,46.30073606967926 38.970717787742615,45.28495967388153 38.970717787742615,45.28495967388153 40.33996760845184,44.35668885707855 40.33996760845184,44.35668885707855 40.39970338344574,44.31709349155426 40.39970338344574,44.31709349155426 40.566253662109375,44.2068487405777 40.566253662109375,44.2068487405777 40.82061946392059,44.03839111328125 40.82061946392059,44.03839111328125 41.143798828125,43.8241571187973 41.143798828125,43.8241571187973 41.516801714897156,43.5769647359848 41.516801714897156,43.5769647359848 41.92077815532684,43.309250473976135 41.92077815532684,43.309250473976135 42.33642518520355,43.03321838378906 42.33642518520355,43.03321838378906 42.745134234428406,42.76184141635895 42.745134234428406,42.76184141635895 43.12744140625,42.50747859477997 43.12744140625,42.50747859477997 43.46496760845184,42.28271543979645 43.46496760845184,42.28271543979645 44.27078366279602,42.143478989601135 44.27078366279602,42.143478989601135 45.10536193847656,42.02171266078949 45.10536193847656,42.02171266078949 45.96672058105469,41.91955626010895 45.96672058105469,41.91955626010895 46.852874755859375,41.83898866176605 46.852874755859375,41.83898866176605 47.76191711425781,41.78222715854645 47.76191711425781,41.78222715854645 48.69194030761719,41.75155758857727 48.69194030761719,41.75155758857727 49.64103698730469,41.74865782260895 49.64103698730469,41.74865782260895 50.60715079307556,41.77612364292145 50.60715079307556,41.77612364292145 51.58843994140625,41.8356329202652 51.58843994140625,41.8356329202652 52.583009004592896,41.92993342876434 52.583009004592896,41.92993342876434 53.626251220703125,41.99112057685852 53.626251220703125,41.99112057685852 54.57069277763367,41.93603694438934 54.57069277763367,41.93603694438934 55.42762875556946,41.77536070346832 55.42762875556946,41.77536070346832 56.20841979980469,41.51977598667145 56.20841979980469,41.51977598667145 56.9244384765625,41.17988646030426 56.9244384765625,41.17988646030426 57.58705139160156,40.766602754592896 57.58705139160156,40.766602754592896 58.207398653030396,40.290069580078125 58.207398653030396,40.290069580078125 58.79707336425781,39.76150453090668 58.79707336425781,39.76150453090668 59.367066621780396,39.19120728969574 59.367066621780396,39.19120728969574 59.929198026657104,38.59008848667145 59.929198026657104,38.59008848667145 60.46997308731079,37.95723021030426 60.46997308731079,37.95723021030426 60.964202880859375,37.28340268135071 60.964202880859375,37.28340268135071 61.40945553779602,36.572495102882385 61.40945553779602,36.572495102882385 61.80313229560852,35.82801818847656 61.80313229560852,35.82801818847656 62.1429443359375,35.05386412143707 62.1429443359375,35.05386412143707 62.426453828811646,34.253692626953125 62.426453828811646,34.253692626953125 62.65098452568054,33.4310919046402 62.65098452568054,33.4310919046402 62.81418204307556,32.589951157569885 62.81418204307556,32.589951157569885 62.91351318359375,31.733855605125427 62.91351318359375,31.733855605125427 62.946778535842896,30.866700410842896 62.946778535842896,30.866700410842896 62.945711612701416,30.70877194404602 62.945711612701416,30.70877194404602 62.94235587120056,30.550843477249146 62.94235587120056,30.550843477249146 62.93686032295227,30.392837524414062 62.93686032295227,30.392837524414062 62.929004430770874,30.234605073928833 62.929004430770874,30.234605073928833 62.91900873184204,30.076295137405396 62.91900873184204,30.076295137405396 62.90680170059204,29.91790771484375 62.90680170059204,29.91790771484375 62.89207339286804,29.75921630859375 62.89207339286804,29.75921630859375 62.87521719932556,29.60045039653778 62.87521719932556,29.60045039653778 62.85591125488281,29.441452026367188 62.85591125488281,29.441452026367188 62.834471464157104,29.282227158546448 62.834471464157104,29.282227158546448 62.82638907432556,29.175493121147156 62.82638907432556,29.175493121147156 62.83241510391235,29.070740938186646 62.83241510391235,29.070740938186646 62.85201907157898,28.969117999076843 62.85201907157898,28.969117999076843 62.88444399833679,28.871536254882812 62.88444399833679,28.871536254882812 62.929075956344604,28.779450058937073 62.929075956344604,28.779450058937073 62.985384464263916,28.693923354148865 62.985384464263916,28.693923354148865 63.052523136138916,28.61579954624176 63.052523136138916,28.61579954624176 63.12980651855469,28.546524047851562 63.12980651855469,28.546524047851562 63.21693658828735,28.48709225654602 63.21693658828735,28.48709225654602 63.312989473342896,28.438720107078552 63.312989473342896,28.438720107078552 63.41385245323181,28.404465317726135 63.41385245323181,28.404465317726135 63.516390323638916,28.3843994140625 63.516390323638916,28.3843994140625 63.61938714981079,28.377991914749146 63.61938714981079,28.377991914749146 63.72162103652954,28.385010361671448 63.72162103652954,28.385010361671448 63.821715116500854,28.405150771141052 63.821715116500854,28.405150771141052 63.918536901474,28.438034653663635 63.918536901474,28.438034653663635 64.01085257530212,28.483352065086365 64.01085257530212,28.483352065086365 64.0973687171936,28.540650010108948 64.0973687171936,28.540650010108948 64.17679190635681,28.609618544578552 64.17679190635681,28.609618544578552 64.24804925918579,28.690186142921448 64.24804925918579,28.690186142921448 64.9066150188446,29.57046627998352 64.9066150188446,29.57046627998352 65.55396914482117,30.48194944858551 65.55396914482117,30.48194944858551 66.17912650108337,31.424790620803833 66.17912650108337,31.424790620803833 66.77116751670837,32.39883482456207 66.77116751670837,32.39883482456207 67.31933951377869,33.40408504009247 67.31933951377869,33.40408504009247 67.81280636787415,34.44069027900696 67.81280636787415,34.44069027900696 68.24051141738892,35.508424043655396 68.24051141738892,35.508424043655396 68.59169006347656,36.60736083984375 68.59169006347656,36.60736083984375 68.85528564453125,37.73750364780426 68.85528564453125,37.73750364780426 69.02099847793579,38.898926973342896 69.02099847793579,38.898926973342896 70.07858157157898,39.39201533794403 70.07858157157898,39.39201533794403 71.08444571495056,39.99786376953125 71.08444571495056,39.99786376953125 72.02461361885071,40.70701599121094 72.02461361885071,40.70701599121094 72.88536429405212,41.510009765625 72.88536429405212,41.510009765625 73.6529529094696,42.39746034145355 73.6529529094696,42.39746034145355 74.31343197822571,43.35998594760895 74.31343197822571,43.35998594760895 74.85290765762329,44.38789486885071 74.85290765762329,44.38789486885071 75.25779604911804,45.4721063375473 75.25779604911804,45.4721063375473 75.5139946937561,46.60278260707855 75.5139946937561,46.60278260707855 75.60791373252869,47.77099788188934 75.60791373252869,47.77099788188934 75.6024181842804,48.05717468261719 75.6024181842804,48.05717468261719 75.58601498603821,48.34426939487457 75.58601498603821,48.34426939487457 75.55832266807556,48.63212704658508 75.55832266807556,48.63212704658508 75.51925778388977,48.92028868198395 75.51925778388977,48.92028868198395 75.4687488079071,49.2086797952652 75.4687488079071,49.2086797952652 75.40656924247742,49.49707090854645 75.40656924247742,49.49707090854645 75.33226013183594,49.78492856025696 75.33226013183594,49.78492856025696 75.24604797363281,50.07240176200867 75.24604797363281,50.07240176200867 75.14740228652954,50.358885526657104 75.14740228652954,50.358885526657104 75.03662109375,50.64453482627869 75.03662109375,50.64453482627869 74.99786615371704,50.72525143623352 74.99786615371704,50.72525143623352 74.95102286338806,50.80017447471619 74.95102286338806,50.80017447471619 74.89669919013977,50.86883902549744 74.89669919013977,50.86883902549744 74.83543753623962,50.93063712120056 74.83543753623962,50.93063712120056 74.76806640625,50.98525881767273 74.76806640625,50.98525881767273 74.69512820243835,51.032257080078125 74.69512820243835,51.032257080078125 74.61723685264587,51.070863008499146 74.61723685264587,51.070863008499146 74.53498840332031,51.10077261924744 74.53498840332031,51.10077261924744 74.44915771484375,51.12152099609375 74.44915771484375,51.12152099609375 74.3603527545929,51.13281607627869 74.3603527545929,51.13281607627869 73.88717532157898,51.16813778877258 73.88717532157898,51.16813778877258 73.41102957725525,51.20483636856079 73.41102957725525,51.20483636856079 72.9321300983429,51.242297887802124 72.9321300983429,51.242297887802124 72.4505603313446,51.2799859046936 72.4505603313446,51.2799859046936 71.966552734375,51.31729245185852 71.966552734375,51.31729245185852 71.48025631904602,51.353758573532104 71.48025631904602,51.353758573532104 70.99159359931946,51.38832330703735 70.99159359931946,51.38832330703735 70.50102353096008,51.42097473144531 70.50102353096008,51.42097473144531 70.00839114189148,51.45058035850525 70.00839114189148,51.45058035850525 69.5141613483429,51.47705078125 69.5141613483429,51.47705078125 69.93980407714844,51.58432126045227 69.93980407714844,51.58432126045227 70.37574648857117,51.69281363487244 70.37574648857117,51.69281363487244 70.81924676895142,51.803058385849 70.81924676895142,51.803058385849 71.26755118370056,51.9159734249115 71.26755118370056,51.9159734249115 71.7181384563446,52.03232169151306 71.7181384563446,52.03232169151306 72.16835021972656,52.152711153030396 72.16835021972656,52.152711153030396 72.6153552532196,52.27775573730469 72.6153552532196,52.27775573730469 73.05664420127869,52.40845084190369 73.05664420127869,52.40845084190369 73.48930239677429,52.54524350166321 73.48930239677429,52.54524350166321 73.91113638877869,52.68921256065369 73.91113638877869,52.68921256065369 74.21798706054688,52.803802490234375 74.21798706054688,52.803802490234375 74.51691031455994,52.922213077545166 74.51691031455994,52.922213077545166 74.80689883232117,53.045809268951416 74.80689883232117,53.045809268951416 75.08697509765625,53.17596793174744 75.08697509765625,53.17596793174744 75.35644769668579,53.31405997276306 75.35644769668579,53.31405997276306 75.61416625976562,53.46153378486633 75.61416625976562,53.46153378486633 75.85914731025696,53.619688749313354 75.85914731025696,53.619688749313354 76.09054446220398,53.789979219436646 76.09054446220398,53.789979219436646 76.30729675292969,53.973621129989624 76.30729675292969,53.973621129989624 76.5087902545929,54.17236685752869 76.5087902545929,54.17236685752869 76.61491632461548,54.2938232421875 76.61491632461548,54.2938232421875 76.71447992324829,54.42352294921875 76.71447992324829,54.42352294921875 76.80618166923523,54.56092953681946 76.80618166923523,54.56092953681946 76.88911557197571,54.705506563186646 76.88911557197571,54.705506563186646 76.96197628974915,54.85687255859375 76.96197628974915,54.85687255859375 77.02392935752869,55.01441955566406 77.02392935752869,55.01441955566406 77.07352042198181,55.17776608467102 77.07352042198181,55.17776608467102 77.1099865436554,55.346375703811646 77.1099865436554,55.346375703811646 77.1319568157196,55.519407987594604 77.1319568157196,55.519407987594604 77.13867425918579,55.69702386856079 77.13867425918579,55.69702386856079 77.130126953125,55.88966608047485 77.130126953125,55.88966608047485 77.10494995117188,56.080323457717896 77.10494995117188,56.080323457717896 77.06367373466492,56.26922845840454 77.06367373466492,56.26922845840454 77.00691223144531,56.456148624420166 77.00691223144531,56.456148624420166 76.93542838096619,56.641387939453125 76.93542838096619,56.641387939453125 76.84974670410156,56.82510733604431 76.84974670410156,56.82510733604431 76.75033807754517,57.00737237930298 76.75033807754517,57.00737237930298 76.63803100585938,57.18833804130554 76.63803100585938,57.18833804130554 76.51329040527344,57.36778378486633 76.51329040527344,57.36778378486633 76.37695670127869,57.54638910293579 76.37695670127869,57.54638910293579 76.22634768486023,57.72491693496704 76.22634768486023,57.72491693496704 76.06307864189148,57.90413022041321 76.06307864189148,57.90413022041321 75.88676810264587,58.084410429000854 75.88676810264587,58.084410429000854 75.6970226764679,58.265990018844604 75.6970226764679,58.265990018844604 75.49377679824829,58.44940543174744 75.49377679824829,58.44940543174744 75.27664303779602,58.63494873046875 75.27664303779602,58.63494873046875 75.04516839981079,58.82301330566406 75.04516839981079,58.82301330566406 74.79934692382812,59.01374816894531 74.79934692382812,59.01374816894531 74.53842163085938,59.20776724815369 74.53842163085938,59.20776724815369 74.2626965045929,59.405517578125 74.2626965045929,59.405517578125 74.19418692588806,59.44763422012329 74.19418692588806,59.44763422012329 74.12261962890625,59.48234796524048 74.12261962890625,59.48234796524048 74.04838800430298,59.509581327438354 74.04838800430298,59.509581327438354 73.97217154502869,59.52919125556946 73.97217154502869,59.52919125556946 73.89465570449829,59.54132080078125 73.89465570449829,59.54132080078125 73.81637692451477,59.54582095146179 73.81637692451477,59.54582095146179 73.73802065849304,59.542316198349 73.73802065849304,59.542316198349 73.66020083427429,59.53109860420227 73.66020083427429,59.53109860420227 73.58329892158508,59.51194763183594 73.58329892158508,59.51194763183594 73.50830435752869,59.48486328125 73.50830435752869,59.48486328125 73.4296441078186,59.43191647529602 73.4296441078186,59.43191647529602 73.34579825401306,59.341663122177124 73.34579825401306,59.341663122177124 73.2586681842804,59.22325253486633 73.2586681842804,59.22325253486633 73.16994071006775,59.08607840538025 73.16994071006775,59.08607840538025 73.0816662311554,58.93921256065369 73.0816662311554,58.93921256065369 72.99568057060242,58.792269229888916 72.99568057060242,58.792269229888916 72.91343808174133,58.654022216796875 72.91343808174133,58.654022216796875 72.83737063407898,58.53416323661804 72.83737063407898,58.53416323661804 72.76878356933594,58.44169855117798 72.76878356933594,58.44169855117798 72.7099597454071,58.38623046875 72.7099597454071,58.38623046875 72.65076041221619,58.353424072265625 72.65076041221619,58.353424072265625 72.58049249649048,58.32282900810242 72.58049249649048,58.32282900810242 72.49916195869446,58.294677734375 72.49916195869446,58.294677734375 72.40700125694275,58.26919674873352 72.40700125694275,58.26919674873352 72.30438590049744,58.24691653251648 72.30438590049744,58.24691653251648 72.19147086143494,58.22815299034119 72.19147086143494,58.22815299034119 72.06832766532898,58.21312069892883 72.06832766532898,58.21312069892883 71.93542718887329,58.20243954658508 71.93542718887329,58.20243954658508 71.7926025390625,58.19587707519531 71.7926025390625,58.19587707519531 71.64062857627869,58.19458365440369 71.64062857627869,58.19458365440369 70.94970941543579,58.225250244140625 70.94970941543579,58.225250244140625 70.15998959541321,58.32260251045227 70.15998959541321,58.32260251045227 69.2840576171875,58.47015380859375 69.2840576171875,58.47015380859375 68.33473443984985,58.65165591239929 68.33473443984985,58.65165591239929 67.3248291015625,58.85055661201477 67.3248291015625,58.85055661201477 66.2670910358429,59.05067324638367 66.2670910358429,59.05067324638367 65.17402529716492,59.23553705215454 65.17402529716492,59.23553705215454 64.05868530273438,59.38873291015625 64.05868530273438,59.38873291015625 62.93342709541321,59.49394106864929 62.93342709541321,59.49394106864929 61.811524629592896,59.534913301467896 61.811524629592896,59.534913301467896 61.75804138183594,59.53460931777954 61.75804138183594,59.53460931777954 61.70455813407898,59.533995389938354 61.70455813407898,59.533995389938354 61.65115237236023,59.532928466796875 61.65115237236023,59.532928466796875 61.59759759902954,59.53148007392883 61.59759759902954,59.53148007392883 61.54419183731079,59.52979922294617 61.54419183731079,59.52979922294617 61.49086356163025,59.52804684638977 61.49086356163025,59.52804684638977 61.43730282783508,59.52591300010681 61.43730282783508,59.52591300010681 61.383819580078125,59.52392816543579 61.383819580078125,59.52392816543579 61.33026480674744,59.52156186103821 61.33026480674744,59.52156186103821 61.27685904502869,59.519654512405396 61.27685904502869,59.519654512405396 60.984957218170166,58.04992914199829 60.984957218170166,58.04992914199829 60.49026846885681,56.66458010673523 60.49026846885681,56.66458010673523 59.809112548828125,55.38010001182556 59.809112548828125,55.38010001182556 58.958131074905396,54.213106632232666 58.958131074905396,54.213106632232666 57.95333981513977,53.180164098739624 57.95333981513977,53.180164098739624 56.8115234375,52.29789614677429 56.8115234375,52.29789614677429 55.54901361465454,51.582491397857666 55.54901361465454,51.582491397857666 54.18205261230469,51.05087161064148 54.18205261230469,51.05087161064148 52.72720456123352,50.71937441825867 52.72720456123352,50.71937441825867 51.201170682907104,50.60486197471619 51.201170682907104,50.60486197471619 49.55383241176605,50.73837637901306 49.55383241176605,50.73837637901306 47.991180419921875,51.12373232841492 47.991180419921875,51.12373232841492 46.5341180562973,51.739805936813354 46.5341180562973,51.739805936813354 45.2035516500473,52.56592035293579 45.2035516500473,52.56592035293579 44.02023255825043,53.5810112953186 44.02023255825043,53.5810112953186 43.00521910190582,54.76447939872742 43.00521910190582,54.76447939872742 42.179107666015625,56.09497427940369 42.179107666015625,56.09497427940369 41.563186049461365,57.55203366279602 41.563186049461365,57.55203366279602 41.17782711982727,59.11445617675781 41.17782711982727,59.11445617675781 41.044312715530396,60.761719942092896 41.044312715530396,60.761719942092896 41.06071591377258,60.96428036689758 41.06071591377258,60.96428036689758 41.10824763774872,61.15661859512329 41.10824763774872,61.15661859512329 41.184234619140625,61.336058378219604 41.184234619140625,61.336058378219604 41.28601253032684,61.49986386299133 41.28601253032684,61.49986386299133 41.41128659248352,61.645662784576416 41.41128659248352,61.645662784576416 41.55723750591278,61.770862340927124 41.55723750591278,61.770862340927124 41.72104001045227,61.8726372718811 41.72104001045227,61.8726372718811 41.900634765625,61.94854974746704 41.900634765625,61.94854974746704 42.09282100200653,61.995929479599 42.09282100200653,61.995929479599 42.295533418655396,62.01233267784119 42.295533418655396,62.01233267784119 42.49809384346008,61.995929479599 42.49809384346008,61.995929479599 42.69042909145355,61.94847226142883 42.69042909145355,61.94847226142883 42.869797348976135,61.872559785842896 42.869797348976135,61.872559785842896 43.03367733955383,61.77070736885071 43.03367733955383,61.77070736885071 43.17947328090668,61.645662784576416 43.17947328090668,61.645662784576416 43.30459535121918,61.49994134902954 43.30459535121918,61.49994134902954 43.406373262405396,61.335986852645874 43.406373262405396,61.335986852645874 43.48228573799133,61.1566960811615 43.48228573799133,61.1566960811615 43.52973997592926,60.96428036689758 43.52973997592926,60.96428036689758 43.54614317417145,60.761719942092896 43.54614317417145,60.761719942092896 43.64822506904602,59.51980948448181 43.64822506904602,59.51980948448181 43.93928647041321,58.342134952545166 43.93928647041321,58.342134952545166 44.403764605522156,57.244110107421875 44.403764605522156,57.244110107421875 45.02594172954559,56.24153017997742 45.02594172954559,56.24153017997742 45.79048156738281,55.35011291503906 45.79048156738281,55.35011291503906 46.68167233467102,54.585498571395874 46.68167233467102,54.585498571395874 47.683945298194885,53.963011503219604 47.683945298194885,53.963011503219604 48.781585693359375,53.49876284599304 48.781585693359375,53.49876284599304 49.95918273925781,53.20801138877869 49.95918273925781,53.20801138877869 51.201170682907104,53.106689453125 51.201170682907104,53.106689453125 52.27714776992798,53.18252444267273 52.27714776992798,53.18252444267273 53.30306887626648,53.40103507041931 53.30306887626648,53.40103507041931 54.269713163375854,53.75213623046875 54.269713163375854,53.75213623046875 55.167847871780396,54.225921630859375 55.167847871780396,54.225921630859375 55.988311767578125,54.81247305870056 55.988311767578125,54.81247305870056 56.721800565719604,55.50186038017273 56.721800565719604,55.50186038017273 57.359009981155396,56.28402829170227 57.359009981155396,56.28402829170227 57.89085626602173,57.149046659469604 57.89085626602173,57.149046659469604 58.30780267715454,58.08700919151306 58.30780267715454,58.08700919151306" stroke="white" stroke-width="0.1" /><polygon points="67.3510730266571,44.403076171875 67.3510730266571,44.403076171875 67.38387942314148,44.810181856155396 67.38387942314148,44.810181856155396 67.47894287109375,45.19607722759247 67.47894287109375,45.19607722759247 67.63092279434204,45.5557256937027 67.63092279434204,45.5557256937027 67.83462762832642,45.883867144584656 67.83462762832642,45.883867144584656 68.08502078056335,46.17553651332855 68.08502078056335,46.17553651332855 68.37684512138367,46.425628662109375 68.37684512138367,46.425628662109375 68.70468258857727,46.629029512405396 68.70468258857727,46.629029512405396 69.06364560127258,46.78054749965668 69.06364560127258,46.78054749965668 69.44816708564758,46.87515199184418 69.44816708564758,46.87515199184418 69.8535144329071,46.90795838832855 69.8535144329071,46.90795838832855 70.25810480117798,46.87530696392059 70.25810480117798,46.87530696392059 70.64224481582642,46.780624985694885 70.64224481582642,46.780624985694885 71.00074887275696,46.629029512405396 71.00074887275696,46.629029512405396 71.32835388183594,46.425628662109375 71.32835388183594,46.425628662109375 71.6198742389679,46.17553651332855 71.6198742389679,46.17553651332855 71.8701958656311,45.883941650390625 71.8701958656311,45.883941650390625 72.07382321357727,45.5557256937027 72.07382321357727,45.5557256937027 72.22564816474915,45.19607722759247 72.22564816474915,45.19607722759247 72.32063412666321,44.81010437011719 72.32063412666321,44.81010437011719 72.35351800918579,44.403076171875 72.35351800918579,44.403076171875 72.32063412666321,43.999481201171875 72.32063412666321,43.999481201171875 72.22572565078735,43.61618161201477 72.22572565078735,43.61618161201477 72.07382321357727,43.25851500034332 72.07382321357727,43.25851500034332 71.8701183795929,42.93151795864105 71.8701183795929,42.93151795864105 71.6198742389679,42.64053404331207 71.6198742389679,42.64053404331207 71.32843136787415,42.39074885845184 71.32843136787415,42.39074885845184 71.00074887275696,42.187270522117615 71.00074887275696,42.187270522117615 70.64232230186462,42.035600543022156 70.64232230186462,42.035600543022156 70.25810480117798,41.94061458110809 70.25810480117798,41.94061458110809 69.8535144329071,41.907960176467896 69.8535144329071,41.907960176467896 69.44824457168579,41.94076657295227 69.44824457168579,41.94076657295227 69.06356811523438,42.035600543022156 69.06356811523438,42.035600543022156 68.70468258857727,42.18734800815582 68.70468258857727,42.18734800815582 68.37684512138367,42.39074885845184 68.37684512138367,42.39074885845184 68.08502078056335,42.64053404331207 68.08502078056335,42.64053404331207 67.83477663993835,42.93159544467926 67.83477663993835,42.93159544467926 67.63100028038025,43.258437514305115 67.63100028038025,43.258437514305115 67.47894287109375,43.61633360385895 67.47894287109375,43.61633360385895 67.38387942314148,43.9993292093277 67.38387942314148,43.9993292093277" stroke="white" stroke-width="0.1" /><polygon points="28.439942002296448,59.782713651657104 28.439942002296448,59.782713651657104 28.492125868797302,61.19453310966492 28.492125868797302,61.19453310966492 28.617477416992188,62.53265738487244 28.617477416992188,62.53265738487244 28.808823227882385,63.797760009765625 28.808823227882385,63.797760009765625 29.058989882469177,64.99091982841492 29.058989882469177,64.99091982841492 29.36050593852997,66.11282229423523 29.36050593852997,66.11282229423523 29.706498980522156,67.16461181640625 29.706498980522156,67.16461181640625 30.089646577835083,68.14712882041931 30.089646577835083,68.14712882041931 30.502700805664062,69.06113028526306 30.502700805664062,69.06113028526306 30.938416719436646,69.9078381061554 30.938416719436646,69.9078381061554 31.389769911766052,70.6878662109375 31.389769911766052,70.6878662109375 29.790496826171875,69.7888195514679 29.790496826171875,69.7888195514679 28.13262939453125,68.74451041221619 28.13262939453125,68.74451041221619 26.470032334327698,67.55782961845398 26.470032334327698,67.55782961845398 24.8565673828125,66.23222231864929 24.8565673828125,66.23222231864929 23.34587126970291,64.77074027061462 23.34587126970291,64.77074027061462 21.9920352101326,63.17688226699829 21.9920352101326,63.17688226699829 20.848846435546875,61.45386099815369 20.848846435546875,61.45386099815369 19.97024565935135,59.60502624511719 19.97024565935135,59.60502624511719 19.409866631031036,57.63344168663025 19.409866631031036,57.63344168663025 19.221802055835724,55.54260611534119 19.221802055835724,55.54260611534119 19.2210391163826,55.51956295967102 19.2210391163826,55.51956295967102 19.220657646656036,55.49827814102173 19.220657646656036,55.49827814102173 19.220200181007385,55.47844171524048 19.220200181007385,55.47844171524048 19.219970703125,55.459827184677124 19.219970703125,55.459827184677124 19.219665229320526,55.442047119140625 19.219665229320526,55.442047119140625 19.21951323747635,55.42495846748352 19.21951323747635,55.42495846748352 19.21951323747635,55.40809631347656 19.21951323747635,55.40809631347656 19.21936124563217,55.39146661758423 19.21936124563217,55.39146661758423 19.21936124563217,55.374449491500854 19.21936124563217,55.374449491500854 19.21936124563217,55.357056856155396 19.21936124563217,55.357056856155396 19.350890815258026,52.98759341239929 19.350890815258026,52.98759341239929 19.714508950710297,50.83664059638977 19.714508950710297,50.83664059638977 20.286254584789276,48.8851934671402 20.286254584789276,48.8851934671402 21.042557060718536,47.1151739358902 21.042557060718536,47.1151739358902 21.959686279296875,45.507583022117615 21.959686279296875,45.507583022117615 23.013992607593536,44.044190645217896 23.013992607593536,44.044190645217896 24.181823432445526,42.706298828125 24.181823432445526,42.706298828125 25.439223647117615,41.47537350654602 25.439223647117615,41.47537350654602 26.762771606445312,40.33287167549133 26.762771606445312,40.33287167549133 28.128662705421448,39.26025331020355 28.128662705421448,39.26025331020355 28.818589448928833,38.752442598342896 28.818589448928833,38.752442598342896 29.508590698242188,38.25973570346832 29.508590698242188,38.25973570346832 30.195236206054688,37.77923583984375 30.195236206054688,37.77923583984375 30.875396728515625,37.308961153030396 30.875396728515625,37.308961153030396 31.5460205078125,36.84623837471008 31.5460205078125,36.84623837471008 32.203903794288635,36.388930678367615 32.203903794288635,36.388930678367615 32.84591734409332,35.93460023403168 32.84591734409332,35.93460023403168 33.46877992153168,35.48080623149872 33.46877992153168,35.48080623149872 34.06944274902344,35.02517640590668 34.06944274902344,35.02517640590668 34.644776582717896,34.565430879592896 34.644776582717896,34.565430879592896 35.187456011772156,34.10186767578125 35.187456011772156,34.10186767578125 35.704728960990906,33.62060487270355 35.704728960990906,33.62060487270355 36.18873655796051,33.11882019042969 36.18873655796051,33.11882019042969 36.63268983364105,32.59445130825043 36.63268983364105,32.59445130825043 37.02881038188934,32.04506039619446 37.02881038188934,32.04506039619446 37.37022578716278,31.468507647514343 37.37022578716278,31.468507647514343 37.64946162700653,30.862504243850708 37.64946162700653,30.862504243850708 37.859344482421875,30.22453486919403 37.859344482421875,30.22453486919403 37.99232542514801,29.552459716796875 37.99232542514801,29.552459716796875 38.041383028030396,28.843995928764343 38.041383028030396,28.843995928764343 38.029175996780396,28.477784991264343 38.029175996780396,28.477784991264343 37.99293637275696,28.10928523540497 37.99293637275696,28.10928523540497 37.932586669921875,27.73796021938324 37.932586669921875,27.73796021938324 37.84874081611633,27.364349365234375 37.84874081611633,27.364349365234375 37.7410888671875,26.987990736961365 37.7410888671875,26.987990736961365 37.61024475097656,26.609039306640625 37.61024475097656,26.609039306640625 37.4563604593277,26.227495074272156 37.4563604593277,26.227495074272156 37.27966248989105,25.843200087547302 37.27966248989105,25.843200087547302 37.08023130893707,25.45623779296875 37.08023130893707,25.45623779296875 36.85851991176605,25.066527724266052 36.85851991176605,25.066527724266052 36.641618609428406,24.69230741262436 36.641618609428406,24.69230741262436 36.454468965530396,24.3388369679451 36.454468965530396,24.3388369679451 36.295318603515625,24.00611937046051 36.295318603515625,24.00611937046051 36.16271913051605,23.69484007358551 36.16271913051605,23.69484007358551 36.05507016181946,23.405610024929047 36.05507016181946,23.405610024929047 35.97091734409332,23.13888520002365 35.97091734409332,23.13888520002365 35.90866029262543,22.89527952671051 35.90866029262543,22.89527952671051 35.86677610874176,22.675171494483948 35.86677610874176,22.675171494483948 35.84373593330383,22.479096055030823 35.84373593330383,22.479096055030823 35.838013887405396,22.30774015188217 35.838013887405396,22.30774015188217 35.84640622138977,22.1690371632576 35.84640622138977,22.1690371632576 35.86006164550781,22.0509335398674 35.86006164550781,22.0509335398674 35.87890565395355,21.950379014015198 35.87890565395355,21.950379014015198 35.90331971645355,21.86485379934311 35.90331971645355,21.86485379934311 35.93330383300781,21.791306138038635 35.93330383300781,21.791306138038635 35.969313979148865,21.727371215820312 35.969313979148865,21.727371215820312 36.01158261299133,21.66992276906967 36.01158261299133,21.66992276906967 36.06010377407074,21.6166689991951 36.06010377407074,21.6166689991951 36.115264892578125,21.564407646656036 36.115264892578125,21.564407646656036 36.17736995220184,21.510620415210724 36.17736995220184,21.510620415210724 36.25343441963196,21.458740532398224 36.25343441963196,21.458740532398224 36.3455206155777,21.408234536647797 36.3455206155777,21.408234536647797 36.452943086624146,21.359939873218536 36.452943086624146,21.359939873218536 36.57569885253906,21.31492644548416 36.57569885253906,21.31492644548416 36.713409423828125,21.274185180664062 36.713409423828125,21.274185180664062 36.86584532260895,21.23863250017166 36.86584532260895,21.23863250017166 37.03262507915497,21.209335327148438 37.03262507915497,21.209335327148438 37.21359372138977,21.187134087085724 37.21359372138977,21.187134087085724 37.40829527378082,21.173095703125 37.40829527378082,21.173095703125 37.61657774448395,21.168212592601776 37.61657774448395,21.168212592601776 37.632447481155396,21.168212592601776 37.632447481155396,21.168212592601776 38.19877803325653,21.1944580078125 38.19877803325653,21.1944580078125 38.81881833076477,21.28341645002365 38.81881833076477,21.28341645002365 39.48242366313934,21.433715522289276 39.48242366313934,21.433715522289276 40.17990231513977,21.644286811351776 40.17990231513977,21.644286811351776 40.90072810649872,21.913757920265198 40.90072810649872,21.913757920265198 41.63528382778168,22.2412109375 41.63528382778168,22.2412109375 42.373353242874146,22.625580430030823 42.373353242874146,22.625580430030823 43.10501217842102,23.065491020679474 43.10501217842102,23.065491020679474 43.82003843784332,23.559875786304474 43.82003843784332,23.559875786304474 44.50866878032684,24.107666313648224 44.50866878032684,24.107666313648224 45.16792297363281,24.706116318702698 45.16792297363281,24.706116318702698 45.78544795513153,25.349044799804688 45.78544795513153,25.349044799804688 46.35452330112457,26.03507936000824 46.35452330112457,26.03507936000824 46.86897397041321,26.763612031936646 46.86897397041321,26.763612031936646 47.321853041648865,27.533569931983948 47.321853041648865,27.533569931983948 47.70706295967102,28.34427058696747 47.70706295967102,28.34427058696747 48.01803529262543,29.19464111328125 48.01803529262543,29.19464111328125 48.247987031936646,30.083924531936646 48.247987031936646,30.083924531936646 48.390886187553406,31.011199951171875 48.390886187553406,31.011199951171875 48.43994081020355,31.975707411766052 48.43994081020355,31.975707411766052 48.43994081020355,32.114869356155396 48.43994081020355,32.114869356155396 48.39920103549957,32.75962769985199 48.39920103549957,32.75962769985199 48.30284118652344,33.37036073207855 48.30284118652344,33.37036073207855 48.15170466899872,33.95073115825653 48.15170466899872,33.95073115825653 47.94731140136719,34.50515866279602 47.94731140136719,34.50515866279602 47.69043028354645,35.037460923194885 47.69043028354645,35.037460923194885 47.3825067281723,35.55198609828949 47.3825067281723,35.55198609828949 47.02461361885071,36.05293333530426 47.02461361885071,36.05293333530426 46.61804139614105,36.54426634311676 46.61804139614105,36.54426634311676 46.163636445999146,37.03010678291321 46.163636445999146,37.03010678291321 45.66284120082855,37.51464784145355 45.66284120082855,37.51464784145355 44.83482539653778,38.22639584541321 44.83482539653778,38.22639584541321 43.92273128032684,38.92662227153778 43.92273128032684,38.92662227153778 42.93907284736633,39.62341248989105 42.93907284736633,39.62341248989105 41.89750850200653,40.32554626464844 41.89750850200653,40.32554626464844 40.810853242874146,41.041335463523865 40.810853242874146,41.041335463523865 39.692458510398865,41.779327392578125 39.692458510398865,41.779327392578125 38.55545222759247,42.54814088344574 38.55545222759247,42.54814088344574 37.41302490234375,43.356019258499146 37.41302490234375,43.356019258499146 36.27815246582031,44.211578369140625 36.27815246582031,44.211578369140625 35.16418635845184,45.123291015625 35.16418635845184,45.123291015625 34.08340513706207,46.10283076763153 34.08340513706207,46.10283076763153 33.05313289165497,47.16842770576477 33.05313289165497,47.16842770576477 32.08816647529602,48.32656979560852 32.08816647529602,48.32656979560852 31.203919649124146,49.58343505859375 31.203919649124146,49.58343505859375 30.415192246437073,50.94581842422485 30.415192246437073,50.94581842422485 29.73739802837372,52.42012143135071 29.73739802837372,52.42012143135071 29.185637831687927,54.01291251182556 29.185637831687927,54.01291251182556 28.7750244140625,55.73059320449829 28.7750244140625,55.73059320449829 28.520509600639343,57.57965445518494 28.520509600639343,57.57965445518494 28.437501192092896,59.56665277481079 28.437501192092896,59.56665277481079 28.438112139701843,59.59098935127258 28.438112139701843,59.59098935127258 28.438720107078552,59.614866971969604 28.438720107078552,59.614866971969604 28.439179062843323,59.63798761367798 28.439179062843323,59.63798761367798 28.439483046531677,59.660643339157104 28.439483046531677,59.660643339157104 28.439638018608093,59.682464599609375 28.439638018608093,59.682464599609375 28.43979001045227,59.70374941825867 28.43979001045227,59.70374941825867 28.43986451625824,59.72442626953125 28.43986451625824,59.72442626953125 28.439942002296448,59.744495153427124 28.439942002296448,59.744495153427124 28.439942002296448,59.7638726234436 28.439942002296448,59.7638726234436" stroke="white" stroke-width="0.1" /></svg>