<?xml version="1.0" encoding="utf-8" ?>
<svg baseProfile="full" height="100.0" version="1.1" width="100.0" xmlns="http://www.w3.org/2000/svg" xmlns:ev="http://www.w3.org/2001/xml-events" xmlns:xlink="http://www.w3.org/1999/xlink"><defs><clipPath /></defs><polygon points="50.0,10.000000149011612 50.0,10.000000149011612 43.51158142089844,10.523529350757599 43.51158142089844,10.523529350757599 37.3565673828125,12.039108574390411 37.3565673828125,12.039108574390411 31.617316603660583,14.464569091796875 31.617316603660583,14.464569091796875 26.376134157180786,17.717285454273224 26.376134157180786,17.717285454273224 21.715393662452698,21.7152401804924 21.715393662452698,21.7152401804924 17.7174374461174,26.375961303710938 17.7174374461174,26.375961303710938 14.464569091796875,31.616899371147156 14.464569091796875,31.616899371147156 12.039146572351456,37.35595643520355 12.039146572351456,37.35595643520355 10.523491352796555,43.51058900356293 10.523491352796555,43.51058900356293 10.000000149011612,49.99878108501434 10.000000149011612,49.99878108501434 10.523509979248047,56.4875066280365 10.523509979248047,56.4875066280365 12.039146572351456,62.64282464981079 12.039146572351456,62.64282464981079 14.464569091796875,68.38226318359375 14.464569091796875,68.38226318359375 17.71741956472397,73.62357974052429 17.71741956472397,73.62357974052429 21.715393662452698,78.28445434570312 21.715393662452698,78.28445434570312 26.37615203857422,82.28256106376648 26.37615203857422,82.28256106376648 31.617316603660583,85.53550839424133 31.617316603660583,85.53550839424133 37.3565673828125,87.9608154296875 37.3565673828125,87.9608154296875 43.511563539505005,89.47639465332031 43.511563539505005,89.47639465332031 50.0,90.00000357627869 50.0,90.00000357627869 56.48841857910156,89.47647213935852 56.48841857910156,89.47647213935852 62.6434326171875,87.9608154296875 62.6434326171875,87.9608154296875 68.38268637657166,85.53543090820312 68.38268637657166,85.53543090820312 73.62388968467712,82.28256106376648 73.62388968467712,82.28256106376648 78.28460931777954,78.28445434570312 78.28460931777954,78.28445434570312 82.28260278701782,73.6236572265625 82.28260278701782,73.6236572265625 85.53543090820312,68.38234066963196 85.53543090820312,68.38234066963196 87.96089291572571,62.64282464981079 87.96089291572571,62.64282464981079 89.47647213935852,56.4875066280365 89.47647213935852,56.4875066280365 90.00000357627869,49.99878108501434 90.00000357627869,49.99878108501434 89.47647213935852,43.510666489601135 89.47647213935852,43.510666489601135 87.96085715293884,37.35595643520355 87.96085715293884,37.35595643520355 85.53543090820312,31.616899371147156 85.53543090820312,31.616899371147156 82.28256106376648,26.37588679790497 82.28256106376648,26.37588679790497 78.28460931777954,21.7152401804924 78.28460931777954,21.7152401804924 73.62388968467712,17.7174374461174 73.62388968467712,17.7174374461174 68.38272213935852,14.464569091796875 68.38272213935852,14.464569091796875 62.64345049858093,12.0391845703125 62.64345049858093,12.0391845703125 56.48840069770813,10.52345260977745 56.48840069770813,10.52345260977745" stroke="white" stroke-width="0.1" /><polygon points="50.0,0.0 50.0,0.0 58.09955596923828,0.6555175874382257 58.09955596923828,0.6555175874382257 65.78693389892578,2.553253248333931 65.78693389892578,2.553253248333931 72.95845150947571,5.589142069220543 72.95845150947571,5.589142069220543 79.51030731201172,9.659500420093536 79.51030731201172,9.659500420093536 85.3388249874115,14.660798013210297 85.3388249874115,14.660798013210297 90.34019708633423,20.489196479320526 90.34019708633423,20.489196479320526 94.41078305244446,27.040788531303406 94.41078305244446,27.040788531303406 97.44674563407898,34.21218991279602 97.44674563407898,34.21218991279602 99.34436678886414,41.89926087856293 99.34436678886414,41.89926087856293 100.0,49.99878108501434 100.0,49.99878108501434 99.34440851211548,58.09845328330994 99.34440851211548,58.09845328330994 97.44674563407898,65.78613519668579 97.44674563407898,65.78613519668579 94.41078305244446,72.95776605606079 94.41078305244446,72.95776605606079 90.34019708633423,79.50973510742188 90.34019708633423,79.50973510742188 85.3388249874115,85.33844351768494 85.3388249874115,85.33844351768494 79.51034903526306,90.34004211425781 79.51034903526306,90.34004211425781 72.95845150947571,94.41062808036804 72.95845150947571,94.41062808036804 65.78699350357056,97.44674563407898 65.78699350357056,97.44674563407898 58.09953808784485,99.34433102607727 58.09953808784485,99.34433102607727 50.0,100.0 50.0,100.0 41.90044403076172,99.34433102607727 41.90044403076172,99.34433102607727 34.21306610107422,97.44674563407898 34.21306610107422,97.44674563407898 27.04155147075653,94.41062808036804 27.04155147075653,94.41062808036804 20.48967331647873,90.33989310264587 20.48967331647873,90.33989310264587 14.66117948293686,85.33844351768494 14.66117948293686,85.33844351768494 9.65980514883995,79.50981259346008 9.65980514883995,79.50981259346008 5.5892374366521835,72.957843542099 5.5892374366521835,72.957843542099 2.553253248333931,65.78605771064758 2.553253248333931,65.78605771064758 0.6555938627570868,58.09845328330994 0.6555938627570868,58.09845328330994 0.0,49.99878108501434 0.0,49.99878108501434 0.6555938627570868,41.89941585063934 0.6555938627570868,41.89941585063934 2.553253248333931,34.21218991279602 2.553253248333931,34.21218991279602 5.5892374366521835,27.040863037109375 5.5892374366521835,27.040863037109375 9.659767150878906,20.489120483398438 9.659767150878906,20.489120483398438 14.66117948293686,14.660798013210297 14.66117948293686,14.660798013210297 20.48969268798828,9.659576416015625 20.48969268798828,9.659576416015625 27.04155147075653,5.589065700769424 27.04155147075653,5.589065700769424 34.213048219680786,2.553253248333931 34.213048219680786,2.553253248333931 41.900426149368286,0.6555938627570868 41.900426149368286,0.6555938627570868" stroke="white" stroke-width="0.1" /></svg>