<?xml version="1.0" encoding="utf-8" ?>
<svg baseProfile="full" height="50.67138671875" version="1.1" width="57.49145746231079" xmlns="http://www.w3.org/2000/svg" xmlns:ev="http://www.w3.org/2001/xml-events" xmlns:xlink="http://www.w3.org/1999/xlink"><defs><clipPath /></defs><polygon points="57.12524652481079,45.02929747104645 57.12524652481079,45.02929747104645 56.608277559280396,45.071107149124146 56.608277559280396,45.071107149124146 56.11786246299744,45.19203305244446 56.11786246299744,45.19203305244446 55.66055178642273,45.385512709617615 55.66055178642273,45.385512709617615 55.242919921875,45.644837617874146 55.242919921875,45.644837617874146 54.87152338027954,45.96359431743622 54.87152338027954,45.96359431743622 54.55299615859985,46.335068345069885 54.55299615859985,46.335068345069885 54.29374575614929,46.75247371196747 54.29374575614929,46.75247371196747 54.10049557685852,47.20947444438934 54.10049557685852,47.20947444438934 53.979647159576416,47.69912660121918 53.979647159576416,47.69912660121918 53.937989473342896,48.21533262729645 53.937989473342896,48.21533262729645 53.94050478935242,48.34030270576477 53.94050478935242,48.34030270576477 53.94806265830994,48.46389889717102 53.94806265830994,48.46389889717102 53.960418701171875,48.58596920967102 53.960418701171875,48.58596920967102 53.97743582725525,48.70666563510895 53.97743582725525,48.70666563510895 53.999024629592896,48.825836181640625 53.999024629592896,48.825836181640625 54.02504205703735,48.94348084926605 54.02504205703735,48.94348084926605 54.055255651474,49.05944764614105 54.055255651474,49.05944764614105 54.089587926864624,49.173662066459656 54.089587926864624,49.173662066459656 54.127806425094604,49.286118149757385 54.127806425094604,49.286118149757385 54.169923067092896,49.396973848342896 54.169923067092896,49.396973848342896 53.80531549453735,49.627381563186646 53.80531549453735,49.627381563186646 53.42697501182556,49.83711242675781 53.42697501182556,49.83711242675781 53.035736083984375,50.02525448799133 53.035736083984375,50.02525448799133 52.63214111328125,50.190967321395874 52.63214111328125,50.190967321395874 52.217257022857666,50.33355951309204 52.217257022857666,50.33355951309204 51.79184079170227,50.45227408409119 51.79184079170227,50.45227408409119 51.35650634765625,50.54611563682556 51.35650634765625,50.54611563682556 50.91224908828735,50.61447024345398 50.91224908828735,50.61447024345398 50.45974850654602,50.656431913375854 50.45974850654602,50.656431913375854 50.0,50.67138671875 50.0,50.67138671875 48.78486692905426,50.57151913642883 48.78486692905426,50.57151913642883 47.632524371147156,50.286561250686646 47.632524371147156,50.286561250686646 46.558380126953125,49.831849336624146 46.558380126953125,49.831849336624146 45.57746946811676,49.222490191459656 45.57746946811676,49.222490191459656 44.70535218715668,48.47396910190582 44.70535218715668,48.47396910190582 43.957215547561646,47.601547837257385 43.957215547561646,47.601547837257385 43.34823787212372,46.62025570869446 43.34823787212372,46.62025570869446 42.89390742778778,45.545729994773865 42.89390742778778,45.545729994773865 42.60917603969574,44.39285397529602 42.60917603969574,44.39285397529602 42.50976741313934,43.177491426467896 42.50976741313934,43.177491426467896 42.60925352573395,41.96266233921051 42.60925352573395,41.96266233921051 42.89382994174957,40.81062376499176 42.89382994174957,40.81062376499176 43.34823787212372,39.736634492874146 43.34823787212372,39.736634492874146 43.95713806152344,38.756027817726135 43.95713806152344,38.756027817726135 44.70535218715668,37.88406550884247 44.70535218715668,37.88406550884247 45.57754695415497,37.13615536689758 45.57754695415497,37.13615536689758 46.558380126953125,36.52732968330383 46.558380126953125,36.52732968330383 47.632598876953125,36.07322871685028 47.632598876953125,36.07322871685028 48.78478944301605,35.78880429267883 48.78478944301605,35.78880429267883 50.0,35.68969666957855 50.0,35.68969666957855 51.21452212333679,35.78880429267883 51.21452212333679,35.78880429267883 52.3664116859436,36.07315123081207 52.3664116859436,36.07315123081207 53.44039797782898,36.52732968330383 53.44039797782898,36.52732968330383 54.42115664482117,37.136077880859375 54.42115664482117,37.136077880859375 55.293428897857666,37.88406550884247 55.293428897857666,37.88406550884247 56.0419499874115,38.75610530376434 56.0419499874115,38.75610530376434 56.65122866630554,39.736634492874146 56.65122866630554,39.736634492874146 57.10609555244446,40.81070125102997 57.10609555244446,40.81070125102997 57.39120841026306,41.96266233921051 57.39120841026306,41.96266233921051 57.49145746231079,43.177491426467896 57.49145746231079,43.177491426467896 57.48840570449829,43.37051510810852 57.48840570449829,43.37051510810852 57.48023986816406,43.562012910842896 57.48023986816406,43.562012910842896 57.46696591377258,43.7521368265152 57.46696591377258,43.7521368265152 57.44888186454773,43.94066035747528 57.44888186454773,43.94066035747528 57.42599368095398,44.12780702114105 57.42599368095398,44.12780702114105 57.39860534667969,44.31358277797699 57.39860534667969,44.31358277797699 57.366639375686646,44.49775815010071 57.366639375686646,44.49775815010071 57.330626249313354,44.680482149124146 57.330626249313354,44.680482149124146 57.29019045829773,44.861602783203125 57.29019045829773,44.861602783203125 57.246094942092896,45.04150450229645 57.246094942092896,45.04150450229645 57.23404288291931,45.040589570999146 57.23404288291931,45.040589570999146 57.22206234931946,45.03936767578125 57.22206234931946,45.03936767578125 57.210081815719604,45.037841796875 57.210081815719604,45.037841796875 57.19810724258423,45.03616392612457 57.19810724258423,45.03616392612457 57.186126708984375,45.034486055374146 57.186126708984375,45.034486055374146 57.174152135849,45.032960176467896 57.174152135849,45.032960176467896 57.16201663017273,45.031434297561646 57.16201663017273,45.031434297561646 57.149964570999146,45.03036439418793 57.149964570999146,45.03036439418793 57.137531042099,45.02952694892883 57.137531042099,45.02952694892883" stroke="white" stroke-width="0.1" /><polygon points="50.0,45.96801698207855 50.0,45.96801698207855 50.452423095703125,45.93155086040497 50.452423095703125,45.93155086040497 50.88149905204773,45.8261102437973 50.88149905204773,45.8261102437973 51.28158926963806,45.65719664096832 51.28158926963806,45.65719664096832 51.64695978164673,45.4306036233902 51.64695978164673,45.4306036233902 51.971739530563354,45.15213072299957 51.971739530563354,45.15213072299957 52.2504448890686,44.82742249965668 52.2504448890686,44.82742249965668 52.47703790664673,44.46205198764801 52.47703790664673,44.46205198764801 52.646028995513916,44.06189024448395 52.646028995513916,44.06189024448395 52.75154113769531,43.63258481025696 52.75154113769531,43.63258481025696 52.788084745407104,43.17993223667145 52.788084745407104,43.17993223667145 52.75161862373352,42.72750914096832 52.75161862373352,42.72750914096832 52.646028995513916,42.29850769042969 52.646028995513916,42.29850769042969 52.47703790664673,41.89865291118622 52.47703790664673,41.89865291118622 52.250367403030396,41.53335690498352 52.250367403030396,41.53335690498352 51.971739530563354,41.2088006734848 51.971739530563354,41.2088006734848 51.64703726768494,40.93048274517059 51.64703726768494,40.93048274517059 51.28158926963806,40.70396423339844 51.28158926963806,40.70396423339844 50.88149905204773,40.53505063056946 50.88149905204773,40.53505063056946 50.45234560966492,40.429458022117615 50.45234560966492,40.429458022117615 50.0,40.39306640625 50.0,40.39306640625 49.547576904296875,40.429458022117615 49.547576904296875,40.429458022117615 49.11850094795227,40.53505063056946 49.11850094795227,40.53505063056946 48.71841371059418,40.70388972759247 48.71841371059418,40.70388972759247 48.35312068462372,40.93032777309418 48.35312068462372,40.93032777309418 48.028260469436646,41.2088006734848 48.028260469436646,41.2088006734848 47.74971008300781,41.5335088968277 47.74971008300781,41.5335088968277 47.52296507358551,41.89857542514801 47.52296507358551,41.89857542514801 47.35397398471832,42.298585176467896 47.35397398471832,42.298585176467896 47.24830687046051,42.727431654930115 47.24830687046051,42.727431654930115 47.211915254592896,43.17993223667145 47.211915254592896,43.17993223667145 47.24838435649872,43.63265931606293 47.24838435649872,43.63265931606293 47.35397398471832,44.06189024448395 47.35397398471832,44.06189024448395 47.52296507358551,44.46212947368622 47.52296507358551,44.46212947368622 47.74963557720184,44.82734799385071 47.74963557720184,44.82734799385071 48.028260469436646,45.15213072299957 48.028260469436646,45.15213072299957 48.35312068462372,45.430681109428406 48.35312068462372,45.430681109428406 48.718491196632385,45.65719664096832 48.718491196632385,45.65719664096832 49.11850094795227,45.8261102437973 49.11850094795227,45.8261102437973 49.547576904296875,45.93147337436676 49.547576904296875,45.93147337436676" stroke="white" stroke-width="0.1" /></svg>