<?xml version="1.0" encoding="utf-8" ?>
<svg baseProfile="full" height="69.14411783218384" version="1.1" width="100.0" xmlns="http://www.w3.org/2000/svg" xmlns:ev="http://www.w3.org/2001/xml-events" xmlns:xlink="http://www.w3.org/1999/xlink"><defs><clipPath /></defs><polygon points="28.83824110031128,61.2130343914032 28.83824110031128,61.2130343914032 28.81034016609192,61.20256781578064 28.81034016609192,61.20256781578064 28.79289984703064,61.20256781578064 28.79289984703064,61.20256781578064 28.800025582313538,61.202841997146606 28.800025582313538,61.202841997146606 28.80738377571106,61.20371222496033 28.80738377571106,61.20371222496033 28.81491780281067,61.20518445968628 28.81491780281067,61.20518445968628 28.822612762451172,61.207228899002075 28.822612762451172,61.207228899002075 28.830406069755554,61.20983362197876 28.830406069755554,61.20983362197876" stroke="white" stroke-width="0.1" /><polygon points="80.09033799171448,35.1841539144516 80.09033799171448,35.1841539144516 81.06352090835571,35.86899936199188 81.06352090835571,35.86899936199188 83.64697694778442,37.86569535732269 83.64697694778442,37.86569535732269 87.33651638031006,41.08756184577942 87.33651638031006,41.08756184577942 91.62799119949341,45.44786810874939 91.62799119949341,45.44786810874939 96.01720571517944,50.859928131103516 96.01720571517944,50.859928131103516 100.0,57.23702907562256 100.0,57.23702907562256 84.97140407562256,69.14411783218384 84.97140407562256,69.14411783218384 71.3082492351532,69.14411783218384 71.3082492351532,69.14411783218384 70.5686867237091,68.14886331558228 70.5686867237091,68.14886331558228 68.48190426826477,65.898597240448 68.48190426826477,65.898597240448 65.24571180343628,63.49661946296692 65.24571180343628,63.49661946296692 61.05796694755554,62.04618811607361 61.05796694755554,62.04618811607361 56.11647367477417,62.65064477920532 56.11647367477417,62.65064477920532 50.61907172203064,66.4132297039032 50.61907172203064,66.4132297039032 50.12226104736328,66.22794270515442 50.12226104736328,66.22794270515442 48.783114552497864,65.67614674568176 48.783114552497864,65.67614674568176 46.82857096195221,64.76396918296814 46.82857096195221,64.76396918296814 44.485604763031006,63.49748969078064 44.485604763031006,63.49748969078064 41.981106996536255,61.88281178474426 41.981106996536255,61.88281178474426 39.5420640707016,59.92606282234192 39.5420640707016,59.92606282234192 39.11997973918915,60.14374494552612 39.11997973918915,60.14374494552612 38.69105875492096,60.346782207489014 38.69105875492096,60.346782207489014 38.25574815273285,60.53510904312134 38.25574815273285,60.53510904312134 37.814489006996155,60.70859432220459 37.814489006996155,60.70859432220459 37.367698550224304,60.867178440093994 37.367698550224304,60.867178440093994 36.91580891609192,61.0107421875 36.91580891609192,61.0107421875 36.18038296699524,61.21424436569214 36.18038296699524,61.21424436569214 35.44728457927704,61.37617826461792 35.44728457927704,61.37617826461792 34.71854329109192,61.49858832359314 34.71854329109192,61.49858832359314 33.996203541755676,61.583495140075684 33.996203541755676,61.583495140075684 33.28227996826172,61.63296103477478 33.28227996826172,61.63296103477478 32.57882297039032,61.64900064468384 32.57882297039032,61.64900064468384 31.92935883998871,61.63583993911743 31.92935883998871,61.63583993911743 31.291145086288452,61.597198247909546 31.291145086288452,61.597198247909546 30.66493570804596,61.53433918952942 30.66493570804596,61.53433918952942 30.05153238773346,61.448508501052856 30.05153238773346,61.448508501052856 29.45166528224945,61.34098768234253 29.45166528224945,61.34098768234253 28.86614203453064,61.2130343914032 28.86614203453064,61.2130343914032 28.81034016609192,61.20256781578064 28.81034016609192,61.20256781578064 28.78941297531128,61.19559407234192 28.78941297531128,61.19559407234192 28.79289984703064,61.20256781578064 28.79289984703064,61.20256781578064 26.555266976356506,60.52047610282898 26.555266976356506,60.52047610282898 24.49861317873001,59.6474289894104 24.49861317873001,59.6474289894104 22.6152703166008,58.63255262374878 22.6152703166008,58.63255262374878 20.897620916366577,57.524943351745605 20.897620916366577,57.524943351745605 19.337941706180573,56.37376308441162 19.337941706180573,56.37376308441162 17.92864203453064,55.22810220718384 17.92864203453064,55.22810220718384 17.92515367269516,55.22810220718384 17.92515367269516,55.22810220718384 17.90771633386612,55.21066188812256 17.90771633386612,55.21066188812256 17.40778535604477,54.77701425552368 17.40778535604477,54.77701425552368 16.926370561122894,54.345571994781494 16.926370561122894,54.345571994781494 16.46336168050766,53.91802191734314 16.46336168050766,53.91802191734314 16.0186767578125,53.49597930908203 16.0186767578125,53.49597930908203 15.59218019247055,53.08113098144531 15.59218019247055,53.08113098144531 15.18380343914032,52.67508625984192 15.18380343914032,52.67508625984192 1.62353515625,52.67508625984192 1.62353515625,52.67508625984192 1.191439013928175,52.38853693008423 1.191439013928175,52.38853693008423 0.8034706115722656,51.58007740974426 0.8034706115722656,51.58007740974426 0.47498433850705624,50.3265380859375 0.47498433850705624,50.3265380859375 0.22134780883789062,48.70474934577942 0.22134780883789062,48.70474934577942 0.05791528383269906,46.79156839847565 0.05791528383269906,46.79156839847565 0.0,44.66378688812256 0.0,44.66378688812256 0.0,17.18750149011612 0.0,17.18750149011612 0.057888031005859375,15.057550370693207 0.057888031005859375,15.057550370693207 0.22134780883789062,13.14433068037033 0.22134780883789062,13.14433068037033 0.47498433850705624,11.52387410402298 0.47498433850705624,11.52387410402298 0.8034706115722656,10.272244364023209 0.8034706115722656,10.272244364023209 1.1914526112377644,9.465504437685013 1.1914526112377644,9.465504437685013 1.62353515625,9.17968824505806 1.62353515625,9.17968824505806 17.74030476808548,9.17968824505806 17.74030476808548,9.17968824505806 20.696178078651428,6.661149859428406 20.696178078651428,6.661149859428406 23.874828219413757,4.538945108652115 23.874828219413757,4.538945108652115 27.23628580570221,2.81764455139637 27.23628580570221,2.81764455139637 30.740615725517273,1.5017850324511528 30.740615725517273,1.5017850324511528 34.347814321517944,0.5959306843578815 34.347814321517944,0.5959306843578815 38.01792860031128,0.10463170474395156 38.01792860031128,0.10463170474395156 38.44881355762482,0.0738757022190839 38.44881355762482,0.0738757022190839 38.88005018234253,0.04805156495422125 38.88005018234253,0.04805156495422125 39.31165635585785,0.0274658203125 39.31165635585785,0.0274658203125 39.74372446537018,0.01239776611328125 39.74372446537018,0.01239776611328125 40.17625153064728,0.003147125244140625 40.17625153064728,0.003147125244140625 40.60930609703064,0.0 40.60930609703064,0.0 44.39520239830017,0.21820750553160906 44.39520239830017,0.21820750553160906 48.15247654914856,0.8737428113818169 48.15247654914856,0.8737428113818169 51.83824896812439,1.96794793009758 51.83824896812439,1.96794793009758 55.409663915634155,3.502185270190239 55.409663915634155,3.502185270190239 58.82382392883301,5.477823689579964 58.82382392883301,5.477823689579964 62.03787922859192,7.89620578289032 62.03787922859192,7.89620578289032 62.03787922859192,7.89969339966774 62.03787922859192,7.89969339966774 62.22098469734192,8.04966539144516 62.22098469734192,8.04966539144516 62.24539875984192,8.07756707072258 62.24539875984192,8.07756707072258 64.39933776855469,10.116509348154068 64.39933776855469,10.116509348154068 66.33288264274597,12.30534166097641 66.33288264274597,12.30534166097641 68.04417371749878,14.6270751953125 68.04417371749878,14.6270751953125 69.53139901161194,17.06477701663971 69.53139901161194,17.06477701663971 70.79266905784607,19.601495563983917 70.79266905784607,19.601495563983917 71.82617783546448,22.22028523683548 71.82617783546448,22.22028523683548 73.01819920539856,23.190036416053772 73.01819920539856,23.190036416053772 74.18407201766968,24.242129921913147 74.18407201766968,24.242129921913147 75.32087564468384,25.37929117679596 75.32087564468384,25.37929117679596 76.42571330070496,26.604217290878296 76.42571330070496,26.604217290878296 77.49566435813904,27.91963517665863 77.49566435813904,27.91963517665863 78.52783799171448,29.32826578617096 78.52783799171448,29.32826578617096" stroke="white" stroke-width="0.1" /><polygon points="66.8404757976532,31.8150132894516 66.8404757976532,31.8150132894516 66.34136438369751,26.094356179237366 66.34136438369751,26.094356179237366 63.882893323898315,19.163350760936737 63.882893323898315,19.163350760936737 59.40181612968445,12.26414293050766 59.40181612968445,12.26414293050766 52.834951877593994,6.638813018798828 52.834951877593994,6.638813018798828 44.119054079055786,3.5294942557811737 44.119054079055786,3.5294942557811737 33.19091796875,4.17829267680645 33.19091796875,4.17829267680645 23.060691356658936,8.40531811118126 23.060691356658936,8.40531811118126 16.39423370361328,14.603479206562042 16.39423370361328,14.603479206562042 12.60921061038971,21.86889797449112 12.60921061038971,21.86889797449112 11.123330891132355,29.297637939453125 11.123330891132355,29.297637939453125 11.354269832372665,35.98583936691284 11.354269832372665,35.98583936691284 12.7197265625,41.02957844734192 12.7197265625,41.02957844734192 15.097346901893616,45.360758900642395 15.097346901893616,45.360758900642395 18.66869330406189,50.01744031906128 18.66869330406189,50.01744031906128 23.31259697675705,54.2550265789032 23.31259697675705,54.2550265789032 28.907939791679382,57.328855991363525 28.907939791679382,57.328855991363525 35.33354103565216,58.49435329437256 35.33354103565216,58.49435329437256 42.46826469898224,57.0068359375 42.46826469898224,57.0068359375 47.895196080207825,53.12206149101257 47.895196080207825,53.12206149101257 49.978816509246826,48.133689165115356 49.978816509246826,48.133689165115356 49.77003037929535,42.84886121749878 49.77003037929535,42.84886121749878 48.31977188587189,38.0746990442276 48.31977188587189,38.0746990442276 46.67893350124359,34.61831212043762 46.67893350124359,34.61831212043762 45.89844048023224,33.28683078289032 45.89844048023224,33.28683078289032 45.52416205406189,32.72917866706848 45.52416205406189,32.72917866706848 44.43941414356232,31.406432390213013 44.43941414356232,31.406432390213013 42.70128607749939,29.84401285648346 42.70128607749939,29.84401285648346 40.366917848587036,28.56728732585907 40.366917848587036,28.56728732585907 37.493401765823364,28.10167670249939 37.493401765823364,28.10167670249939 34.13783609867096,28.97251844406128 34.13783609867096,28.97251844406128 31.34600818157196,30.616790056228638 31.34600818157196,30.616790056228638 29.881784319877625,32.0820152759552 29.881784319877625,32.0820152759552 29.37949299812317,33.31473469734192 29.37949299812317,33.31473469734192 29.47346866130829,34.2614471912384 29.47346866130829,34.2614471912384 29.798004031181335,34.86870527267456 29.798004031181335,34.86870527267456 29.98744547367096,35.08301079273224 29.98744547367096,35.08301079273224 30.09556531906128,35.195475816726685 30.09556531906128,35.195475816726685 30.437946319580078,35.438621044158936 30.437946319580078,35.438621044158936 31.04161024093628,35.67112684249878 31.04161024093628,35.67112684249878 31.933608651161194,35.75161695480347 31.933608651161194,35.75161695480347 33.14093351364136,35.53875684738159 33.14093351364136,35.53875684738159 34.69063937664032,34.8911851644516 34.69063937664032,34.8911851644516 36.47901117801666,34.66663658618927 36.47901117801666,34.66663658618927 38.137418031692505,35.546618700027466 38.137418031692505,35.546618700027466 39.30860459804535,37.1098130941391 39.30860459804535,37.1098130941391 39.635345339775085,38.934871554374695 39.635345339775085,38.934871554374695 38.76034319400787,40.600478649139404 38.76034319400787,40.600478649139404 36.32638156414032,41.68526828289032 36.32638156414032,41.68526828289032 33.317893743515015,41.72987341880798 33.317893743515015,41.72987341880798 30.924811959266663,40.72020649909973 30.924811959266663,40.72020649909973 29.09807562828064,38.89770805835724 29.09807562828064,38.89770805835724 27.788707613945007,36.50379478931427 27.788707613945007,36.50379478931427 26.947641372680664,33.77991020679474 26.947641372680664,33.77991020679474 26.52587890625,30.96749484539032 26.52587890625,30.96749484539032 26.764333248138428,28.110751509666443 26.764333248138428,28.110751509666443 27.89643406867981,25.263774394989014 27.89643406867981,25.263774394989014 29.85665500164032,22.68807590007782 29.85665500164032,22.68807590007782 32.57955312728882,20.645128190517426 32.57955312728882,20.645128190517426 35.99957823753357,19.396401941776276 35.99957823753357,19.396401941776276 40.05127251148224,19.2034050822258 40.05127251148224,19.2034050822258 43.94094944000244,20.2682226896286 43.94094944000244,20.2682226896286 46.95463478565216,22.328786551952362 46.95463478565216,22.328786551952362 49.14115071296692,24.96599555015564 49.14115071296692,24.96599555015564 50.54933428764343,27.7607262134552 50.54933428764343,27.7607262134552 51.2279748916626,30.29387593269348 51.2279748916626,30.29387593269348 51.22593641281128,32.14634656906128 51.22593641281128,32.14634656906128 51.085323095321655,33.37016999721527 51.085323095321655,33.37016999721527 51.23924016952515,34.31389927864075 51.23924016952515,34.31389927864075 51.56773328781128,35.00322699546814 51.56773328781128,35.00322699546814 51.95087194442749,35.46379804611206 51.95087194442749,35.46379804611206 52.26871967315674,35.72133183479309 52.26871967315674,35.72133183479309 52.40129828453064,35.80147922039032 52.40129828453064,35.80147922039032 52.75821089744568,36.108821630477905 52.75821089744568,36.108821630477905 53.71042490005493,36.93022131919861 53.71042490005493,36.93022131919861 55.08009195327759,38.11471164226532 55.08009195327759,38.11471164226532 56.689393520355225,39.51138257980347 56.689393520355225,39.51138257980347 58.36050510406494,40.969279408454895 58.36050510406494,40.969279408454895 59.91560220718384,42.3374742269516 59.91560220718384,42.3374742269516 61.238306760787964,43.280863761901855 61.238306760787964,43.280863761901855 62.3284637928009,43.67404878139496 62.3284637928009,43.67404878139496 63.18250894546509,43.68591606616974 63.18250894546509,43.68591606616974 63.79693150520325,43.48531663417816 63.79693150520325,43.48531663417816 64.16816115379333,43.241122364997864 64.16816115379333,43.241122364997864 64.29269313812256,43.12221109867096 64.29269313812256,43.12221109867096 64.41807150840759,42.93811321258545 64.41807150840759,42.93811321258545 64.7505521774292,42.28180646896362 64.7505521774292,42.28180646896362 65.22457003593445,40.99731743335724 65.22457003593445,40.99731743335724 65.77459573745728,38.9286607503891 65.77459573745728,38.9286607503891 66.3350760936737,35.91989874839783 66.3350760936737,35.91989874839783" stroke="white" stroke-width="0.1" /><polygon points="79.52183485031128,41.85965657234192 79.52183485031128,41.85965657234192 79.8786461353302,41.230857372283936 79.8786461353302,41.230857372283936 80.0523579120636,40.55407643318176 80.0523579120636,40.55407643318176 80.04761338233948,39.86511528491974 80.04761338233948,39.86511528491974 79.8690676689148,39.19968008995056 79.8690676689148,39.19968008995056 79.5213520526886,38.59353959560394 79.5213520526886,38.59353959560394 79.00913953781128,38.08245062828064 79.00913953781128,38.08245062828064 74.28850531578064,34.49358344078064 74.28850531578064,34.49358344078064 73.66103529930115,34.13556218147278 73.66103529930115,34.13556218147278 72.98493981361389,33.96151661872864 72.98493981361389,33.96151661872864 72.29614853858948,33.9665025472641 72.29614853858948,33.9665025472641 71.63060903549194,34.145575761795044 71.63060903549194,34.145575761795044 71.02426290512085,34.49383080005646 71.02426290512085,34.49383080005646 70.51304578781128,35.00627875328064 70.51304578781128,35.00627875328064 70.15635967254639,35.633864998817444 70.15635967254639,35.633864998817444 69.98298168182373,36.310169100761414 69.98298168182373,36.310169100761414 69.98814344406128,36.99907660484314 69.98814344406128,36.99907660484314 70.16712427139282,37.664443254470825 70.16712427139282,37.664443254470825 70.51514983177185,38.270121812820435 70.51514983177185,38.270121812820435 71.0274875164032,38.77999484539032 71.0274875164032,38.77999484539032 75.74637532234192,42.37583875656128 75.74637532234192,42.37583875656128 76.3745665550232,42.73239076137543 76.3745665550232,42.73239076137543 77.05110311508179,42.90545582771301 77.05110311508179,42.90545582771301 77.74004340171814,42.89987087249756 77.74004340171814,42.89987087249756 78.40544581413269,42.72046983242035 78.40544581413269,42.72046983242035 79.01135683059692,42.372119426727295 79.01135683059692,42.372119426727295" stroke="white" stroke-width="0.1" /><polygon points="95.4903781414032,58.44377875328064 95.4903781414032,58.44377875328064 96.00775837898254,58.03927183151245 96.00775837898254,58.03927183151245 96.42482995986938,57.6049268245697 96.42482995986938,57.6049268245697 96.72873616218567,57.16378688812256 96.72873616218567,57.16378688812256 96.90666198730469,56.73891305923462 96.90666198730469,56.73891305923462 96.94573879241943,56.35339617729187 96.94573879241943,56.35339617729187 96.8331515789032,56.0302734375 96.8331515789032,56.0302734375 96.57548666000366,55.80541491508484 96.57548666000366,55.80541491508484 96.20355367660522,55.69738745689392 96.20355367660522,55.69738745689392 95.74345350265503,55.70330023765564 95.74345350265503,55.70330023765564 95.22131085395813,55.820220708847046 95.22131085395813,55.820220708847046 94.66321468353271,56.04528784751892 94.66321468353271,56.04528784751892 94.09528970718384,56.37556314468384 94.09528970718384,56.37556314468384 93.5783863067627,56.77690505981445 93.5783863067627,56.77690505981445 93.16121935844421,57.20888376235962 93.16121935844421,57.20888376235962 92.85693168640137,57.6485812664032 92.85693168640137,57.6485812664032 92.67863035202026,58.07318091392517 92.67863035202026,58.07318091392517 92.6394522190094,58.45978856086731 92.6394522190094,58.45978856086731 92.75251626968384,58.78557562828064 92.75251626968384,58.78557562828064 93.01151037216187,59.01166796684265 93.01151037216187,59.01166796684265 93.38405132293701,59.120142459869385 93.38405132293701,59.120142459869385 93.84417533874512,59.11429524421692 93.84417533874512,59.11429524421692 94.36591267585754,58.997416496276855 94.36591267585754,58.997416496276855 94.92331147193909,58.77281427383423 94.92331147193909,58.77281427383423" stroke="white" stroke-width="0.1" /></svg>