<?xml version="1.0" encoding="utf-8" ?>
<svg baseProfile="full" height="53.45703363418579" version="1.1" width="99.99961256980896" xmlns="http://www.w3.org/2000/svg" xmlns:ev="http://www.w3.org/2001/xml-events" xmlns:xlink="http://www.w3.org/1999/xlink"><defs><clipPath /></defs><polygon points="30.41178584098816,29.856771230697632 30.41178584098816,29.856771230697632 7.387695461511612,52.22005248069763 7.387695461511612,52.22005248069763 6.954536586999893,52.58926749229431 6.954536586999893,52.58926749229431 6.483230739831924,52.8949499130249 6.483230739831924,52.8949499130249 5.980631709098816,53.13557982444763 5.980631709098816,53.13557982444763 5.453643947839737,53.30938100814819 5.453643947839737,53.30938100814819 4.909070581197739,53.4149706363678 4.909070581197739,53.4149706363678 4.35384139418602,53.45052480697632 4.35384139418602,53.45052480697632 4.111875221133232,53.44625115394592 4.111875221133232,53.44625115394592 3.871040418744087,53.42687368392944 3.871040418744087,53.42687368392944 3.631388396024704,53.392744064331055 3.631388396024704,53.392744064331055 3.3929698169231415,53.34386229515076 3.3929698169231415,53.34386229515076 3.1557973474264145,53.28059196472168 3.1557973474264145,53.28059196472168 2.919922024011612,53.20312976837158 2.919922024011612,53.20312976837158 2.672526240348816,53.10547351837158 2.672526240348816,53.10547351837158 2.1411897614598274,52.834779024124146 2.1411897614598274,52.834779024124146 1.6597367823123932,52.50193476676941 1.6597367823123932,52.50193476676941 1.231892965734005,52.113449573516846 1.231892965734005,52.113449573516846 0.8614476770162582,51.675522327423096 0.8614476770162582,51.675522327423096 0.5520884413272142,51.19466185569763 0.5520884413272142,51.19466185569763 0.30761719681322575,50.67708492279053 0.30761719681322575,50.67708492279053 0.218938197940588,50.42378902435303 0.218938197940588,50.42378902435303 0.14408112037926912,50.16540884971619 0.14408112037926912,50.16540884971619 0.08402506937272847,49.90234673023224 0.08402506937272847,49.90234673023224 0.039863589336164296,49.63490962982178 0.039863589336164296,49.63490962982178 0.0125885009765625,49.36355948448181 0.0125885009765625,49.36355948448181 0.0032552085031056777,49.08854365348816 0.0032552085031056777,49.08854365348816 0.0016276042515528388,45.787763595581055 0.0016276042515528388,45.787763595581055 0.0,40.94401299953461 0.0,40.94401299953461 0.0032552085031056777,30.065104365348816 0.0032552085031056777,30.065104365348816 0.0,23.47005307674408 0.0,23.47005307674408 0.0016276042515528388,4.355468973517418 0.0016276042515528388,4.355468973517418 0.009384155418956652,4.095255583524704 0.009384155418956652,4.095255583524704 0.033887228346429765,3.83605994284153 0.033887228346429765,3.83605994284153 0.07446289528161287,3.579101711511612 0.07446289528161287,3.579101711511612 0.13052623253315687,3.325297310948372 0.13052623253315687,3.325297310948372 0.201390590518713,3.075917810201645 0.201390590518713,3.075917810201645 0.2864583395421505,2.832031436264515 0.2864583395421505,2.832031436264515 0.5272547714412212,2.301991917192936 0.5272547714412212,2.301991917192936 0.8365250192582607,1.809895969927311 0.8365250192582607,1.809895969927311 1.209716871380806,1.362304762005806 1.209716871380806,1.362304762005806 1.6423290595412254,0.965677946805954 1.6423290595412254,0.965677946805954 2.129809185862541,0.6266276352107525 2.129809185862541,0.6266276352107525 2.667643316090107,0.3515625139698386 2.667643316090107,0.3515625139698386 2.9425304383039474,0.24871828500181437 2.9425304383039474,0.24871828500181437 3.2201260328292847,0.1620483468286693 3.2201260328292847,0.1620483468286693 3.500162810087204,0.09277344215661287 3.500162810087204,0.09277344215661287 3.78238707780838,0.04191080806776881 3.78238707780838,0.04191080806776881 4.066492989659309,0.010630290489643812 4.066492989659309,0.010630290489643812 4.352213814854622,0.0 4.352213814854622,0.0 4.598172754049301,0.007069906132528558 4.598172754049301,0.007069906132528558 4.842669516801834,0.027974447584711015 4.842669516801834,0.027974447584711015 5.08524589240551,0.06266276468522847 5.08524589240551,0.06266276468522847 5.325533822178841,0.11088054161518812 5.325533822178841,0.11088054161518812 5.56308776140213,0.17247518990188837 5.56308776140213,0.17247518990188837 5.797526240348816,0.24739585351198912 5.797526240348816,0.24739585351198912 6.086426228284836,0.3618367714807391 6.086426228284836,0.3618367714807391 6.367798149585724,0.49647013656795025 6.367798149585724,0.49647013656795025 6.640014797449112,0.6510416977107525 6.640014797449112,0.6510416977107525 6.901537626981735,0.8250935934484005 6.901537626981735,0.8250935934484005 7.150739431381226,1.018371619284153 7.150739431381226,1.018371619284153 7.386068254709244,1.230468787252903 7.386068254709244,1.230468787252903 30.41015863418579,23.593750596046448 30.41015863418579,23.593750596046448 30.805251002311707,24.028271436691284 30.805251002311707,24.028271436691284 31.131675839424133,24.506887793540955 31.131675839424133,24.506887793540955 31.38773739337921,25.022786855697632 31.38773739337921,25.022786855697632 31.571802496910095,25.569000840187073 31.571802496910095,25.569000840187073 31.6821426153183,26.13886594772339 31.6821426153183,26.13886594772339 31.717124581336975,26.72526240348816 31.717124581336975,26.72526240348816 31.681010127067566,27.31262445449829 31.681010127067566,27.31262445449829 31.570398807525635,27.879995107650757 31.570398807525635,27.879995107650757 31.38672113418579,28.422853350639343 31.38672113418579,28.422853350639343 31.13144040107727,28.93631160259247 31.13144040107727,28.93631160259247 30.80597221851349,29.41589653491974 30.80597221851349,29.41589653491974" stroke="white" stroke-width="0.1" /><polygon points="11.430664360523224,36.09375059604645 11.430664360523224,36.09375059604645 19.39941495656967,28.35286557674408 19.39941495656967,28.35286557674408 19.890952110290527,27.884116768836975 19.890952110290527,27.884116768836975 20.03674954175949,27.71962583065033 20.03674954175949,27.71962583065033 20.157815515995026,27.540233731269836 20.157815515995026,27.540233731269836 20.253297686576843,27.348634600639343 20.253297686576843,27.348634600639343 20.322343707084656,27.147167921066284 20.322343707084656,27.147167921066284 20.36406248807907,26.938578486442566 20.36406248807907,26.938578486442566 20.37760466337204,26.72526240348816 20.37760466337204,26.72526240348816 20.364825427532196,26.512452960014343 20.364825427532196,26.512452960014343 20.32371610403061,26.30518674850464 20.32371610403061,26.30518674850464 20.25492489337921,26.105958223342896 20.25492489337921,26.105958223342896 20.15916258096695,25.916901230812073 20.15916258096695,25.916901230812073 20.03706693649292,25.740712881088257 20.03706693649292,25.740712881088257 19.88932341337204,25.579428672790527 19.88932341337204,25.579428672790527 19.402670860290527,25.091147422790527 19.402670860290527,25.091147422790527 11.429037153720856,17.369791865348816 11.429037153720856,17.369791865348816 10.844726860523224,16.99218899011612 10.844726860523224,16.99218899011612 10.332031548023224,16.907553374767303 10.332031548023224,16.907553374767303 9.703776240348816,17.044271528720856 9.703776240348816,17.044271528720856 9.428660571575165,17.18943417072296 9.428660571575165,17.18943417072296 9.191323071718216,17.385204136371613 9.191323071718216,17.385204136371613 8.997192978858948,17.623698711395264 8.997192978858948,17.623698711395264 8.851776272058487,17.896831035614014 8.851776272058487,17.896831035614014 8.760491013526917,18.196819722652435 8.760491013526917,18.196819722652435 8.728841692209244,18.515625596046448 8.728841692209244,18.515625596046448 8.730468899011612,34.94140803813934 8.730468899011612,34.94140803813934 8.761419355869293,35.26245355606079 8.761419355869293,35.26245355606079 8.852247148752213,35.56305170059204 8.852247148752213,35.56305170059204 8.997396379709244,35.83577573299408 8.997396379709244,35.83577573299408 9.191399067640305,36.07315123081207 9.191399067640305,36.07315123081207 9.428685903549194,36.26800775527954 9.428685903549194,36.26800775527954 9.703776240348816,36.412763595581055 9.703776240348816,36.412763595581055 9.809570759534836,36.46484613418579 9.809570759534836,36.46484613418579 10.323894023895264,36.53646111488342 10.323894023895264,36.53646111488342 10.529188066720963,36.52852475643158 10.529188066720963,36.52852475643158 10.729828476905823,36.492565274238586 10.729828476905823,36.492565274238586 10.923055559396744,36.42985224723816 10.923055559396744,36.42985224723816 11.1061230301857,36.341604590415955 11.1061230301857,36.341604590415955 11.276233196258545,36.229148507118225 11.276233196258545,36.229148507118225" stroke="white" stroke-width="0.1" /><polygon points="99.90234971046448,29.615887999534607 99.90234971046448,29.615887999534607 99.77964162826538,31.234946846961975 99.77964162826538,31.234946846961975 99.59834814071655,32.85253047943115 99.59834814071655,32.85253047943115 99.35303330421448,34.46289300918579 99.35303330421448,34.46289300918579 99.0382730960846,36.06018126010895 99.0382730960846,36.06018126010895 98.64864945411682,37.63875663280487 98.64864945411682,37.63875663280487 98.17871451377869,39.19270932674408 98.17871451377869,39.19270932674408 97.51578569412231,40.759941935539246 97.51578569412231,40.759941935539246 96.72399759292603,41.95816218852997 96.72399759292603,41.95816218852997 95.81421613693237,42.923179268836975 95.81421613693237,42.923179268836975 94.797283411026,43.790438771247864 94.797283411026,43.790438771247864 93.68404746055603,44.695740938186646 93.68404746055603,44.695740938186646 92.48535633087158,45.77474296092987 92.48535633087158,45.77474296092987 92.0431911945343,46.21643424034119 92.0431911945343,46.21643424034119 91.619473695755,46.62567377090454 91.619473695755,46.62567377090454 91.18652939796448,46.98649346828461 91.18652939796448,46.98649346828461 90.71669578552246,47.28271663188934 90.71669578552246,47.28271663188934 90.18229842185974,47.498324513435364 90.18229842185974,47.498324513435364 89.55566883087158,47.61719107627869 89.55566883087158,47.61719107627869 89.21915292739868,48.01839590072632 89.21915292739868,48.01839590072632 89.01796340942383,48.48521053791046 89.01796340942383,48.48521053791046 88.86820673942566,48.97705316543579 88.86820673942566,48.97705316543579 88.68604898452759,49.45307672023773 88.68604898452759,49.45307672023773 88.3876085281372,49.87274408340454 88.3876085281372,49.87274408340454 87.88900375366211,50.1953125 87.88900375366211,50.1953125 87.35424280166626,50.36265254020691 87.35424280166626,50.36265254020691 86.79344654083252,50.43111443519592 86.79344654083252,50.43111443519592 86.21419668197632,50.4150390625 86.21419668197632,50.4150390625 85.62411069869995,50.32837390899658 85.62411069869995,50.32837390899658 85.03075242042542,50.18529295921326 85.03075242042542,50.18529295921326 84.44173336029053,50.0 84.44173336029053,50.0 84.02621150016785,49.84395503997803 84.02621150016785,49.84395503997803 83.61973762512207,49.67834651470184 83.61973762512207,49.67834651470184 83.22510123252869,49.50765371322632 83.22510123252869,49.50765371322632 82.84512162208557,49.336397647857666 82.84512162208557,49.336397647857666 82.48258829116821,49.169111251831055 82.48258829116821,49.169111251831055 82.14030265808105,49.010419845581055 82.14030265808105,49.010419845581055 81.70151114463806,48.81297051906586 81.70151114463806,48.81297051906586 81.26670122146606,48.62411618232727 81.26670122146606,48.62411618232727 80.83496689796448,48.44401180744171 80.83496689796448,48.44401180744171 80.40540218353271,48.272505402565 80.40540218353271,48.272505402565 79.97710108757019,48.1097936630249 79.97710108757019,48.1097936630249 79.54915761947632,47.95573055744171 79.54915761947632,47.95573055744171 77.96075344085693,47.45616018772125 77.96075344085693,47.45616018772125 76.37212872505188,47.0642626285553 76.37212872505188,47.0642626285553 74.76542592048645,46.77083492279053 74.76542592048645,46.77083492279053 73.12278151512146,46.56631648540497 73.12278151512146,46.56631648540497 71.42632603645325,46.441450715065 71.42632603645325,46.441450715065 69.65820789337158,46.38672173023224 69.65820789337158,46.38672173023224 68.49388480186462,46.44419550895691 68.49388480186462,46.44419550895691 67.75144338607788,46.644237637519836 67.75144338607788,46.644237637519836 67.25972890853882,46.98974788188934 67.25972890853882,46.98974788188934 66.84764623641968,47.48331904411316 66.84764623641968,47.48331904411316 66.34404063224792,48.12774956226349 66.34404063224792,48.12774956226349 65.57780504226685,48.92578423023224 65.57780504226685,48.92578423023224 65.22789597511292,49.216362833976746 65.22789597511292,49.216362833976746 64.89661931991577,49.42733943462372 64.89661931991577,49.42733943462372 64.58496451377869,49.563804268836975 64.58496451377869,49.563804268836975 64.29392695426941,49.63074028491974 64.29392695426941,49.63074028491974 64.02449607849121,49.633434414863586 64.02449607849121,49.633434414863586 63.77767324447632,49.57682490348816 63.77767324447632,49.57682490348816 63.371384143829346,49.32403862476349 63.371384143829346,49.32403862476349 63.064783811569214,48.91082942485809 63.064783811569214,48.91082942485809 62.866419553756714,48.37646782398224 62.866419553756714,48.37646782398224 62.78483271598816,47.76011407375336 62.78483271598816,47.76011407375336 62.828582525253296,47.10118770599365 62.828582525253296,47.10118770599365 63.00618648529053,46.438804268836975 63.00618648529053,46.438804268836975 59.84107255935669,46.47908806800842 59.84107255935669,46.47908806800842 56.67559504508972,46.54388725757599 56.67559504508972,46.54388725757599 53.50993275642395,46.6276079416275 53.50993275642395,46.6276079416275 50.344276428222656,46.724194288253784 50.344276428222656,46.724194288253784 47.17879891395569,46.82820737361908 47.17879891395569,46.82820737361908 44.013673067092896,46.93359732627869 44.013673067092896,46.93359732627869 42.74795651435852,47.07428216934204 42.74795651435852,47.07428216934204 41.52524471282959,47.359874844551086 41.52524471282959,47.359874844551086 40.32043814659119,47.72298336029053 40.32043814659119,47.72298336029053 39.10844326019287,48.0957567691803 39.10844326019287,48.0957567691803 37.86416053771973,48.410749435424805 37.86416053771973,48.410749435424805 36.56250238418579,48.60026240348816 36.56250238418579,48.60026240348816 52.06705927848816,33.541667461395264 52.06705927848816,33.541667461395264 52.9290497303009,32.56927728652954 52.9290497303009,32.56927728652954 53.642338514328,31.51545226573944 53.642338514328,31.51545226573944 54.20308709144592,30.392253398895264 54.20308709144592,30.392253398895264 54.60745692253113,29.211479425430298 54.60745692253113,29.211479425430298 54.85159158706665,27.98517942428589 54.85159158706665,27.98517942428589 54.931640625,26.72526240348816 54.931640625,26.72526240348816 54.848337173461914,25.466817617416382 54.848337173461914,25.466817617416382 54.599976539611816,24.235637485980988 54.599976539611816,24.235637485980988 54.19372916221619,23.04931730031967 54.19372916221619,23.04931730031967 53.63680720329285,21.92535549402237 53.63680720329285,21.92535549402237 52.936363220214844,20.881399512290955 52.936363220214844,20.881399512290955 52.099609375,19.934897124767303 52.099609375,19.934897124767303 37.535810470581055,5.79427108168602 37.535810470581055,5.79427108168602 38.12011778354645,5.820312723517418 38.12011778354645,5.820312723517418 39.289674162864685,6.039276346564293 39.289674162864685,6.039276346564293 40.41166603565216,6.356557458639145 40.41166603565216,6.356557458639145 41.51204526424408,6.712239980697632 41.51204526424408,6.712239980697632 42.616769671440125,7.046153396368027 42.616769671440125,7.046153396368027 43.75178813934326,7.298380881547928 43.75178813934326,7.298380881547928 44.9430376291275,7.408854365348816 44.9430376291275,7.408854365348816 47.917184233665466,7.467397302389145 47.917184233665466,7.467397302389145 50.892287492752075,7.523397356271744 50.892287492752075,7.523397356271744 53.868210315704346,7.573242485523224 53.868210315704346,7.573242485523224 56.84480667114258,7.613271474838257 56.84480667114258,7.613271474838257 59.82194542884827,7.639974355697632 59.82194542884827,7.639974355697632 62.79948353767395,7.64973983168602 62.79948353767395,7.64973983168602 62.57007718086243,6.740163266658783 62.57007718086243,6.740163266658783 62.59567737579346,5.906626582145691 62.59567737579346,5.906626582145691 62.838542461395264,5.209147557616234 62.838542461395264,5.209147557616234 63.26100826263428,4.707438498735428 63.26100826263428,4.707438498735428 63.8253390789032,4.461568593978882 63.8253390789032,4.461568593978882 64.49381709098816,4.531250149011612 64.49381709098816,4.531250149011612 64.68419432640076,4.610036313533783 64.68419432640076,4.610036313533783 64.87757563591003,4.716441035270691 64.87757563591003,4.716441035270691 65.07365107536316,4.851074516773224 65.07365107536316,4.851074516773224 65.27218222618103,5.014394223690033 65.27218222618103,5.014394223690033 65.47287106513977,5.207112804055214 65.47287106513977,5.207112804055214 65.67546129226685,5.429687723517418 65.67546129226685,5.429687723517418 65.85032343864441,5.71950301527977 65.85032343864441,5.71950301527977 66.03763103485107,6.127268821001053 66.03763103485107,6.127268821001053 66.24166369438171,6.585286557674408 66.24166369438171,6.585286557674408 66.46673083305359,7.025909423828125 66.46673083305359,7.025909423828125 66.71710014343262,7.381591945886612 66.71710014343262,7.381591945886612 66.99707508087158,7.58463591337204 66.99707508087158,7.58463591337204 67.03939437866211,7.58463591337204 67.03939437866211,7.58463591337204 67.48763918876648,7.662557065486908 67.48763918876648,7.662557065486908 67.96260476112366,7.691193372011185 67.96260476112366,7.691193372011185 68.45113635063171,7.685547322034836 68.45113635063171,7.685547322034836 68.94007921218872,7.660268247127533 68.94007921218872,7.660268247127533 69.41626071929932,7.63041228055954 69.41626071929932,7.63041228055954 69.86653804779053,7.610677182674408 69.86653804779053,7.610677182674408 71.08049988746643,7.580363005399704 71.08049988746643,7.580363005399704 72.28329181671143,7.52868726849556 72.28329181671143,7.52868726849556 73.4783947467804,7.44628980755806 73.4783947467804,7.44628980755806 74.66930747032166,7.32371062040329 74.66930747032166,7.32371062040329 75.85948705673218,7.151591032743454 75.85948705673218,7.151591032743454 77.05241441726685,6.920573115348816 77.05241441726685,6.920573115348816 77.10874080657959,5.617675930261612 77.10874080657959,5.617675930261612 77.51555442810059,4.516042396426201 77.51555442810059,4.516042396426201 78.21208238601685,3.66617850959301 78.21208238601685,3.66617850959301 79.13755774497986,3.118438832461834 79.13755774497986,3.118438832461834 80.23121953010559,2.923431620001793 80.23121953010559,2.923431620001793 81.43229484558105,3.131510689854622 81.43229484558105,3.131510689854622 81.61947131156921,3.209635615348816 81.61947131156921,3.209635615348816 83.01565647125244,3.76180037856102 83.01565647125244,3.76180037856102 84.4187080860138,4.295654594898224 84.4187080860138,4.295654594898224 85.82519888877869,4.816894605755806 85.82519888877869,4.816894605755806 87.23168969154358,5.331014096736908 87.23168969154358,5.331014096736908 88.63474726676941,5.843709781765938 88.63474726676941,5.843709781765938 90.03092646598816,6.360677629709244 90.03092646598816,6.360677629709244 90.63539505004883,6.655833125114441 90.63539505004883,6.655833125114441 91.1931574344635,7.041829824447632 91.1931574344635,7.041829824447632 91.72261953353882,7.48291090130806 91.72261953353882,7.48291090130806 92.24218130111694,7.942861318588257 92.24218130111694,7.942861318588257 92.77024269104004,8.385976403951645 92.77024269104004,8.385976403951645 93.32519769668579,8.776041865348816 93.32519769668579,8.776041865348816 93.99216175079346,9.170736372470856 93.99216175079346,9.170736372470856 94.64126825332642,9.555105119943619 94.64126825332642,9.555105119943619 95.25899887084961,9.960123896598816 95.25899887084961,9.960123896598816 95.83183526992798,10.41661649942398 95.83183526992798,10.41661649942398 96.34625911712646,10.955658555030823 96.34625911712646,10.955658555030823 96.78874015808105,11.608073860406876 96.78874015808105,11.608073860406876 98.07562232017517,14.343973994255066 98.07562232017517,14.343973994255066 98.99463057518005,17.286580801010132 98.99463057518005,17.286580801010132 99.59127306938171,20.360516011714935 99.59127306938171,20.360516011714935 99.9110996723175,23.490194976329803 99.9110996723175,23.490194976329803 99.99961256980896,26.600494980812073 99.99961256980896,26.600494980812073" stroke="white" stroke-width="0.1" /><polygon points="70.96354365348816,42.99479424953461 70.96354365348816,42.99479424953461 71.76474332809448,43.08583736419678 71.76474332809448,43.08583736419678 72.28094339370728,43.0154949426651 72.28094339370728,43.0154949426651 72.58382439613342,42.776694893836975 72.58382439613342,42.776694893836975 72.74511456489563,42.36201047897339 72.74511456489563,42.36201047897339 72.83650040626526,41.76437556743622 72.83650040626526,41.76437556743622 72.92969226837158,40.97656607627869 72.92969226837158,40.97656607627869 73.08852076530457,39.70215022563934 73.08852076530457,39.70215022563934 73.23519587516785,38.424479961395264 73.23519587516785,38.424479961395264 73.36812615394592,37.14355528354645 73.36812615394592,37.14355528354645 73.48573803901672,35.859325528144836 73.48573803901672,35.859325528144836 73.58642816543579,34.57194268703461 73.58642816543579,34.57194268703461 73.66862297058105,33.28125178813934 73.66862297058105,33.28125178813934 73.78248572349548,30.342307686805725 73.78248572349548,30.342307686805725 73.80697131156921,27.399903535842896 73.80697131156921,27.399903535842896 73.74736070632935,24.45719540119171 73.74736070632935,24.45719540119171 73.60894680023193,21.517080068588257 73.60894680023193,21.517080068588257 73.39702248573303,18.582917749881744 73.39702248573303,18.582917749881744 73.11686873435974,15.65755307674408 73.11686873435974,15.65755307674408 73.07400107383728,15.179139375686646 73.07400107383728,15.179139375686646 72.9817807674408,14.269359409809113 72.9817807674408,14.269359409809113 72.84098863601685,13.150228559970856 72.84098863601685,13.150228559970856 72.65246510505676,12.043457478284836 72.65246510505676,12.043457478284836 72.41699695587158,11.171214282512665 72.41699695587158,11.171214282512665 72.13541865348816,10.755208879709244 72.13541865348816,10.755208879709244 72.06380367279053,10.755208879709244 72.06380367279053,10.755208879709244 70.55145502090454,10.970205068588257 70.55145502090454,10.970205068588257 68.61955523490906,11.209717392921448 68.61955523490906,11.209717392921448 66.51367545127869,11.53971403837204 66.51367545127869,11.53971403837204 64.47941660881042,12.025859206914902 64.47941660881042,12.025859206914902 62.76236176490784,12.734222412109375 62.76236176490784,12.734222412109375 61.608076095581055,13.730469346046448 61.608076095581055,13.730469346046448 61.62131428718567,16.04914367198944 61.62131428718567,16.04914367198944 61.63477897644043,18.369244039058685 61.63477897644043,18.369244039058685 61.64815425872803,20.690105855464935 61.64815425872803,20.690105855464935 61.66113615036011,23.010864853858948 61.66113615036011,23.010864853858948 61.67337894439697,25.33106505870819 61.67337894439697,25.33106505870819 61.68457269668579,27.649742364883423 61.68457269668579,27.649742364883423 61.692434549331665,28.805339336395264 61.692434549331665,28.805339336395264 61.69970631599426,29.960685968399048 61.69970631599426,29.960685968399048 61.706340312957764,31.11572563648224 61.706340312957764,31.11572563648224 61.71230673789978,32.27020502090454 61.71230673789978,32.27020502090454 61.717551946640015,33.42392146587372 61.717551946640015,33.42392146587372 61.722010374069214,34.57682430744171 61.722010374069214,34.57682430744171 61.68113946914673,35.34301817417145 61.68113946914673,35.34301817417145 61.59470081329346,36.43351495265961 61.59470081329346,36.43351495265961 61.51692867279053,37.67659664154053 61.51692867279053,37.67659664154053 61.502110958099365,38.90065848827362 61.502110958099365,38.90065848827362 61.604464054107666,39.93418514728546 61.604464054107666,39.93418514728546 61.87825798988342,40.60547053813934 61.87825798988342,40.60547053813934 62.07967400550842,40.81299006938934 62.07967400550842,40.81299006938934 62.31228709220886,41.0004198551178 62.31228709220886,41.0004198551178 62.57283687591553,41.169434785842896 62.57283687591553,41.169434785842896 62.858086824417114,41.321566700935364 62.858086824417114,41.321566700935364 63.1647527217865,41.45858883857727 63.1647527217865,41.45858883857727 63.48958611488342,41.58203303813934 63.48958611488342,41.58203303813934 64.27918672561646,41.81813895702362 64.27918672561646,41.81813895702362 65.11345505714417,42.00180172920227 65.11345505714417,42.00180172920227 65.95622301101685,42.14681088924408 65.95622301101685,42.14681088924408 66.77132844924927,42.26674735546112 66.77132844924927,42.26674735546112 67.52257943153381,42.37564206123352 67.52257943153381,42.37564206123352 68.17383170127869,42.48698055744171 68.17383170127869,42.48698055744171 68.63795518875122,42.57436394691467 68.63795518875122,42.57436394691467 69.10253167152405,42.6605761051178 69.10253167152405,42.6605761051178 69.56746578216553,42.745769023895264 69.56746578216553,42.745769023895264 70.03268003463745,42.82979667186737 70.03268003463745,42.82979667186737 70.49806714057922,42.91280210018158 70.49806714057922,42.91280210018158" stroke="white" stroke-width="0.1" /><polygon points="25.476890802383423,52.21354365348816 25.476890802383423,52.21354365348816 25.03664791584015,52.592724561691284 25.03664791584015,52.592724561691284 24.5607390999794,52.90334224700928 24.5607390999794,52.90334224700928 24.056601524353027,53.14534902572632 24.056601524353027,53.14534902572632 23.531724512577057,53.31838130950928 23.531724512577057,53.31838130950928 22.993546724319458,53.422343730926514 22.993546724319458,53.422343730926514 22.449545562267303,53.45703363418579 22.449545562267303,53.45703363418579 22.20609188079834,53.447723388671875 22.20609188079834,53.447723388671875 21.962980926036835,53.42611074447632 21.962980926036835,53.42611074447632 21.720989048480988,53.39192748069763 21.720989048480988,53.39192748069763 21.48105800151825,53.34462523460388 21.48105800151825,53.34462523460388 21.244025230407715,53.28404903411865 21.244025230407715,53.28404903411865 21.01074308156967,53.209638595581055 21.01074308156967,53.209638595581055 20.704206824302673,53.086960315704346 20.704206824302673,53.086960315704346 20.405706763267517,52.94067859649658 20.405706763267517,52.94067859649658 20.116782188415527,52.77099609375 20.116782188415527,52.77099609375 19.83899474143982,52.57787108421326 19.83899474143982,52.57787108421326 19.573847949504852,52.36165523529053 19.573847949504852,52.36165523529053 19.322918355464935,52.12239623069763 19.322918355464935,52.12239623069763 18.62161159515381,51.18144154548645 18.62161159515381,51.18144154548645 18.20887327194214,50.128936767578125 18.20887327194214,50.128936767578125 18.082480132579803,49.022626876831055 18.082480132579803,49.022626876831055 18.240255117416382,47.92002737522125 18.240255117416382,47.92002737522125 18.679963052272797,46.87896966934204 18.679963052272797,46.87896966934204 19.39941495656967,45.95703482627869 19.39941495656967,45.95703482627869 38.00293207168579,27.877604961395264 38.00293207168579,27.877604961395264 38.14808130264282,27.7139812707901 38.14808130264282,27.7139812707901 38.268840312957764,27.536621689796448 38.268840312957764,27.536621689796448 38.36446404457092,27.347007393836975 38.36446404457092,27.347007393836975 38.434189558029175,27.146506309509277 38.434189558029175,27.146506309509277 38.4772390127182,26.936647295951843 38.4772390127182,26.936647295951843 38.49284052848816,26.718750596046448 38.49284052848816,26.718750596046448 38.47860395908356,26.508179306983948 38.47860395908356,26.508179306983948 38.43642771244049,26.30152404308319 38.43642771244049,26.30152404308319 38.36710751056671,26.101890206336975 38.36710751056671,26.101890206336975 38.27148675918579,25.91191828250885 38.27148675918579,25.91191828250885 38.15036416053772,25.734660029411316 38.15036416053772,25.734660029411316 38.00455927848816,25.572916865348816 38.00455927848816,25.572916865348816 19.394531846046448,7.493489980697632 19.394531846046448,7.493489980697632 18.991637229919434,7.040456682443619 18.991637229919434,7.040456682443619 18.663153052330017,6.55161589384079 18.663153052330017,6.55161589384079 18.40861141681671,6.033528968691826 18.40861141681671,6.033528968691826 18.22759062051773,5.492604896426201 18.22759062051773,5.492604896426201 18.119648098945618,4.935455694794655 18.119648098945618,4.935455694794655 18.084311485290527,4.368489980697632 18.084311485290527,4.368489980697632 18.117283284664154,3.822682797908783 18.117283284664154,3.822682797908783 18.2194784283638,3.283640742301941 18.2194784283638,3.283640742301941 18.39091032743454,2.757975459098816 18.39091032743454,2.757975459098816 18.631668388843536,2.252350002527237 18.631668388843536,2.252350002527237 18.94177794456482,1.773579977452755 18.94177794456482,1.773579977452755 19.321289658546448,1.328125037252903 19.321289658546448,1.328125037252903 19.767965376377106,0.924530066549778 19.767965376377106,0.924530066549778 20.254644751548767,0.5931600462645292 20.254644751548767,0.5931600462645292 20.77331691980362,0.3344726748764515 20.77331691980362,0.3344726748764515 21.316008269786835,0.14902751427143812 21.316008269786835,0.14902751427143812 21.874696016311646,0.037384036113508046 21.874696016311646,0.037384036113508046 22.441408038139343,0.0 22.441408038139343,0.0 22.68500179052353,0.006510417006211355 22.68500179052353,0.006510417006211355 22.92855679988861,0.026448568678461015 22.92855679988861,0.026448568678461015 23.171184957027435,0.06022135494276881 23.171184957027435,0.06022135494276881 23.412057757377625,0.10803223121911287 23.412057757377625,0.10803223121911287 23.650310933589935,0.17028809525072575 23.650310933589935,0.17028809525072575 23.88509213924408,0.24739585351198912 23.88509213924408,0.24739585351198912 24.170978367328644,0.358530692756176 24.170978367328644,0.358530692756176 24.450138211250305,0.490417517721653 24.450138211250305,0.490417517721653 24.721477925777435,0.6429036613553762 24.721477925777435,0.6429036613553762 24.984030425548553,0.8159383200109005 24.984030425548553,0.8159383200109005 25.236716866493225,1.0097249411046505 25.236716866493225,1.0097249411046505 25.47851800918579,1.2239583767950535 25.47851800918579,1.2239583767950535 48.49121272563934,23.593750596046448 48.49121272563934,23.593750596046448 48.88069927692413,24.030864238739014 48.88069927692413,24.030864238739014 49.20579493045807,24.510957300662994 49.20579493045807,24.510957300662994 49.46370720863342,25.02685785293579 49.46370720863342,25.02685785293579 49.65164363384247,25.571495294570923 49.65164363384247,25.571495294570923 49.766772985458374,26.13779902458191 49.766772985458374,26.13779902458191 49.80631768703461,26.718750596046448 49.80631768703461,26.718750596046448 49.76758658885956,27.30606198310852 49.76758658885956,27.30606198310852 49.65320825576782,27.87368893623352 49.65320825576782,27.87368893623352 49.46594536304474,28.417155146598816 49.46594536304474,28.417155146598816 49.208566546440125,28.931784629821777 49.208566546440125,28.931784629821777 48.883822560310364,29.413199424743652 48.883822560310364,29.413199424743652 48.49447011947632,29.856771230697632 48.49447011947632,29.856771230697632" stroke="white" stroke-width="0.1" /></svg>