<?xml version="1.0" encoding="utf-8" ?>
<svg baseProfile="full" height="64.2403781414032" version="1.1" width="99.97079372406006" xmlns="http://www.w3.org/2000/svg" xmlns:ev="http://www.w3.org/2001/xml-events" xmlns:xlink="http://www.w3.org/1999/xlink"><defs><clipPath /></defs><polygon points="35.7945054769516,64.2403781414032 35.7945054769516,64.2403781414032 28.14113199710846,58.12399983406067 28.14113199710846,58.12399983406067 24.50038492679596,53.090453147888184 24.50038492679596,53.090453147888184 23.85951578617096,49.12087917327881 23.85951578617096,49.12087917327881 25.205451250076294,46.19625806808472 25.205451250076294,46.19625806808472 27.525222301483154,44.29773688316345 27.525222301483154,44.29773688316345 29.80608344078064,43.40646266937256 29.80608344078064,43.40646266937256 29.98330295085907,43.371692299842834 29.98330295085907,43.371692299842834 30.159106850624084,43.34384500980377 30.159106850624084,43.34384500980377 30.33316731452942,43.32275688648224 30.33316731452942,43.32275688648224 30.50515353679657,43.3079868555069 30.50515353679657,43.3079868555069 30.67474365234375,43.29937696456909 30.67474365234375,43.29937696456909 30.84193766117096,43.29659938812256 30.84193766117096,43.29659938812256 31.98656439781189,43.42755079269409 31.98656439781189,43.42755079269409 33.01718831062317,43.773871660232544 33.01718831062317,43.773871660232544 33.9237779378891,44.26596760749817 33.9237779378891,44.26596760749817 34.69565510749817,44.83397603034973 34.69565510749817,44.83397603034973 35.322681069374084,45.40835916996002 35.322681069374084,45.40835916996002 35.7945054769516,45.91936469078064 35.7945054769516,45.91936469078064 36.266329884529114,45.40841579437256 36.266329884529114,45.40841579437256 36.893245577812195,44.83402967453003 36.893245577812195,44.83402967453003 37.6652330160141,44.26596760749817 37.6652330160141,44.26596760749817 38.571712374687195,43.773818016052246 38.571712374687195,43.773818016052246 39.60244357585907,43.42755079269409 39.60244357585907,43.42755079269409 40.74707329273224,43.29659938812256 40.74707329273224,43.29659938812256 40.91666340827942,43.29943060874939 40.91666340827942,43.29943060874939 41.08690619468689,43.308043479919434 41.08690619468689,43.308043479919434 41.25846028327942,43.32275688648224 41.25846028327942,43.32275688648224 41.43131971359253,43.34384500980377 41.43131971359253,43.34384500980377 41.606032848358154,43.37163865566254 41.606032848358154,43.37163865566254 41.78292453289032,43.40646266937256 41.78292453289032,43.40646266937256 44.06367838382721,44.29784715175629 44.06367838382721,44.29784715175629 46.38345241546631,46.196311712265015 46.38345241546631,46.196311712265015 47.72949516773224,49.12087917327881 47.72949516773224,49.12087917327881 47.08862602710724,53.090399503707886 47.08862602710724,53.090399503707886 43.44787895679474,58.12389254570007 43.44787895679474,58.12389254570007" stroke="white" stroke-width="0.1" /><polygon points="52.25656032562256,28.42494547367096 52.25656032562256,28.42494547367096 42.81180500984192,40.6651109457016 42.81180500984192,40.6651109457016 42.760688066482544,40.65110385417938 42.760688066482544,40.65110385417938 42.70891547203064,40.637099742889404 42.70891547203064,40.637099742889404 42.65703558921814,40.62303900718689 42.65703558921814,40.62303900718689 42.60537326335907,40.608760714530945 42.60537326335907,40.608760714530945 42.55458414554596,40.594375133514404 42.55458414554596,40.594375133514404 42.50488579273224,40.5796617269516 42.50488579273224,40.5796617269516 42.50488579273224,40.58489203453064 42.50488579273224,40.58489203453064 42.25442111492157,40.53322970867157 42.25442111492157,40.53322970867157 42.005378007888794,40.491488575935364 42.005378007888794,40.491488575935364 41.75851047039032,40.45955240726471 41.75851047039032,40.45955240726471 41.513827443122864,40.436938405036926 41.513827443122864,40.436938405036926 41.27197563648224,40.42364060878754 41.27197563648224,40.42364060878754 41.03306531906128,40.41922688484192 41.03306531906128,40.41922688484192 39.907512068748474,40.52276909351349 39.907512068748474,40.52276909351349 38.88070285320282,40.771812200546265 38.88070285320282,40.771812200546265 37.95166313648224,41.13660752773285 37.95166313648224,41.13660752773285 37.119075655937195,41.58717691898346 37.119075655937195,41.58717691898346 36.381858587265015,42.09398627281189 36.381858587265015,42.09398627281189 35.73870062828064,42.62695610523224 35.73870062828064,42.62695610523224 35.09696125984192,42.093878984451294 35.09696125984192,42.093878984451294 34.36083197593689,41.58712327480316 34.36083197593689,41.58712327480316 33.52922797203064,41.13660752773285 33.52922797203064,41.13660752773285 32.60105848312378,40.7718688249588 32.60105848312378,40.7718688249588 31.57545030117035,40.52282273769379 31.57545030117035,40.52282273769379 30.45131266117096,40.41922688484192 30.45131266117096,40.41922688484192 30.210986733436584,40.42358696460724 30.210986733436584,40.42358696460724 29.967719316482544,40.436938405036926 29.967719316482544,40.436938405036926 29.72237765789032,40.45955240726471 29.72237765789032,40.45955240726471 29.474422335624695,40.49154222011566 29.474422335624695,40.49154222011566 29.22450602054596,40.53322970867157 29.22450602054596,40.53322970867157 28.97251844406128,40.58489203453064 28.97251844406128,40.58489203453064 28.21895182132721,40.79214036464691 28.21895182132721,40.79214036464691 27.423205971717834,41.08864963054657 27.423205971717834,41.08864963054657 26.59999430179596,41.47840440273285 26.59999430179596,41.47840440273285 25.764575600624084,41.96494221687317 25.764575600624084,41.96494221687317 24.93220865726471,42.55234897136688 24.93220865726471,42.55234897136688 24.11760687828064,43.24428141117096 24.11760687828064,43.24428141117096 23.351070284843445,44.044333696365356 23.351070284843445,44.044333696365356 22.65516072511673,44.96770799160004 22.65516072511673,44.96770799160004 22.06115871667862,46.00982964038849 22.06115871667862,46.00982964038849 21.59925252199173,47.16562628746033 21.59925252199173,47.16562628746033 21.300289034843445,48.43047261238098 21.300289034843445,48.43047261238098 21.19489461183548,49.79945719242096 21.19489461183548,49.79945719242096 21.40197902917862,51.73596143722534 21.40197902917862,51.73596143722534 22.003501653671265,53.76777648925781 22.003501653671265,53.76777648925781 23.03772121667862,55.90188503265381 23.03772121667862,55.90188503265381 24.54223781824112,58.145034313201904 24.54223781824112,58.145034313201904 26.555633544921875,60.50437092781067 26.555633544921875,60.50437092781067 29.11551594734192,62.98654079437256 29.11551594734192,62.98654079437256 18.12569797039032,62.98654079437256 18.12569797039032,62.98654079437256 16.507068276405334,62.76572346687317 16.507068276405334,62.76572346687317 15.078626573085785,62.14311122894287 15.078626573085785,62.14311122894287 13.8963982462883,61.1785888671875 13.8963982462883,61.1785888671875 13.01596611738205,59.931784868240356 13.01596611738205,59.931784868240356 12.493570148944855,58.46263766288757 12.493570148944855,58.46263766288757 12.3849056661129,56.8307101726532 12.3849056661129,56.8307101726532 13.21149617433548,44.84514594078064 13.21149617433548,44.84514594078064 13.211604952812195,44.83364820480347 13.211604952812195,44.83364820480347 13.212259113788605,44.821932911872864 13.212259113788605,44.821932911872864 13.21323961019516,44.81027126312256 13.21323961019516,44.81027126312256 13.214111328125,44.79849934577942 13.214111328125,44.79849934577942 13.21476548910141,44.786837697029114 13.21476548910141,44.786837697029114 13.21498453617096,44.77539360523224 13.21498453617096,44.77539360523224 13.066211342811584,44.653159379959106 13.066211342811584,44.653159379959106 12.920816242694855,44.52520310878754 12.920816242694855,44.52520310878754 12.77989000082016,44.39087212085724 12.77989000082016,44.39087212085724 12.643977999687195,44.249510765075684 12.643977999687195,44.249510765075684 12.51438707113266,44.100627303123474 12.51438707113266,44.100627303123474 12.39188089966774,43.94357204437256 12.39188089966774,43.94357204437256 0.8510044775903225,28.2017320394516 0.8510044775903225,28.2017320394516 0.30332293827086687,27.21181809902191 0.30332293827086687,27.21181809902191 0.033351354068145156,26.16026997566223 0.033351354068145156,26.16026997566223 0.034005302586592734,25.10179877281189 0.034005302586592734,25.10179877281189 0.2978733740746975,24.090686440467834 0.2978733740746975,24.090686440467834 0.81787109375,23.18180799484253 0.81787109375,23.18180799484253 1.5869140625,22.42954969406128 1.5869140625,22.42954969406128 2.53546591848135,21.919959783554077 2.53546591848135,21.919959783554077 3.558894619345665,21.696092188358307 3.558894619345665,21.696092188358307 4.60335873067379,21.74813449382782 4.60335873067379,21.74813449382782 5.61349093914032,22.066062688827515 5.61349093914032,22.066062688827515 6.535230576992035,22.640065848827362 6.535230576992035,22.640065848827362 7.31375589966774,23.46017062664032 7.31375589966774,23.46017062664032 18.57910305261612,38.8218492269516 18.57910305261612,38.8218492269516 18.769510090351105,38.78697156906128 18.769510090351105,38.78697156906128 18.960462510585785,38.75759840011597 18.960462510585785,38.75759840011597 19.15239691734314,38.73400092124939 19.15239691734314,38.73400092124939 19.34509426355362,38.71628940105438 19.34509426355362,38.71628940105438 19.53888088464737,38.70484530925751 19.53888088464737,38.70484530925751 19.73353922367096,38.6997789144516 19.73353922367096,38.6997789144516 18.809619545936584,37.73416876792908 18.809619545936584,37.73416876792908 18.02150309085846,36.651450395584106 18.02150309085846,36.651450395584106 17.38368570804596,35.46535074710846 17.38368570804596,35.46535074710846 16.91022664308548,34.189388155937195 16.91022664308548,34.189388155937195 16.61573201417923,32.83729553222656 16.61573201417923,32.83729553222656 16.51436984539032,31.42264485359192 16.51436984539032,31.42264485359192 16.86684787273407,28.797370195388794 16.86684787273407,28.797370195388794 17.86172091960907,26.438850164413452 17.86172091960907,26.438850164413452 19.4048210978508,24.44109320640564 19.4048210978508,24.44109320640564 21.40175998210907,22.897884249687195 21.40175998210907,22.897884249687195 23.758698999881744,21.90312147140503 23.758698999881744,21.90312147140503 26.38114094734192,21.55064344406128 26.38114094734192,21.55064344406128 29.00608777999878,21.903011202812195 29.00608777999878,21.903011202812195 31.364333629608154,22.897830605506897 31.364333629608154,22.897830605506897 33.36181938648224,24.44109320640564 33.36181938648224,24.44109320640564 34.904590249061584,26.43890380859375 34.904590249061584,26.43890380859375 35.89913547039032,28.797370195388794 35.89913547039032,28.797370195388794 36.25139594078064,31.42264485359192 36.25139594078064,31.42264485359192 36.15025281906128,32.837241888046265 36.15025281906128,32.837241888046265 35.856303572654724,34.1893345117569 35.856303572654724,34.1893345117569 35.38382649421692,35.46535074710846 35.38382649421692,35.46535074710846 34.746772050857544,36.651504039764404 34.746772050857544,36.651504039764404 33.959418535232544,37.734225392341614 33.959418535232544,37.734225392341614 33.0357164144516,38.6997789144516 33.0357164144516,38.6997789144516 33.218494057655334,38.70473802089691 33.218494057655334,38.70473802089691 33.40040147304535,38.71590793132782 33.40040147304535,38.71590793132782 33.58154594898224,38.73291313648224 33.58154594898224,38.73291313648224 33.76137912273407,38.755038380622864 33.76137912273407,38.755038380622864 33.940017223358154,38.78201246261597 33.940017223358154,38.78201246261597 34.11690890789032,38.81312906742096 34.11690890789032,38.81312906742096 45.90890407562256,23.52643758058548 45.90890407562256,23.52643758058548 46.70846462249756,22.725459933280945 46.70846462249756,22.725459933280945 47.64491617679596,22.174564003944397 47.64491617679596,22.174564003944397 48.66333305835724,21.88197672367096 48.66333305835724,21.88197672367096 49.70899522304535,21.855546534061432 49.70899522304535,21.855546534061432 50.727301836013794,22.10344672203064 50.727301836013794,22.10344672203064 51.66364908218384,22.6335808634758 51.66364908218384,22.6335808634758 52.414268255233765,23.40284138917923 52.414268255233765,23.40284138917923 52.911704778671265,24.324090778827667 52.911704778671265,24.324090778827667 53.1502902507782,25.3422349691391 53.1502902507782,25.3422349691391 53.12435030937195,26.40184760093689 53.12435030937195,26.40184760093689 52.82832980155945,27.447837591171265 52.82832980155945,27.447837591171265" stroke="white" stroke-width="0.1" /><polygon points="35.7945054769516,61.53390407562256 35.7945054769516,61.53390407562256 39.85617756843567,58.412063121795654 39.85617756843567,58.412063121795654 42.62673556804657,55.7250440120697 42.62673556804657,55.7250440120697 44.34117078781128,53.47246527671814 44.34117078781128,53.47246527671814 45.233482122421265,51.65378451347351 45.233482122421265,51.65378451347351 45.538440346717834,50.2685546875 45.538440346717834,50.2685546875 45.49037516117096,49.31640923023224 45.49037516117096,49.31640923023224 45.1115220785141,48.28360676765442 45.1115220785141,48.28360676765442 44.471415877342224,47.41450846195221 44.471415877342224,47.41450846195221 43.67196559906006,46.71086072921753 43.67196559906006,46.71086072921753 42.814528942108154,46.17375135421753 42.814528942108154,46.17375135421753 42.00112521648407,45.80492377281189 42.00112521648407,45.80492377281189 41.33301079273224,45.60547173023224 41.33301079273224,45.60547173023224 41.235461831092834,45.58607041835785 41.235461831092834,45.58607041835785 41.13769829273224,45.56972086429596 41.13769829273224,45.56972086429596 41.04004204273224,45.55664360523224 41.04004204273224,45.55664360523224 40.942275524139404,45.54705023765564 40.942275524139404,45.54705023765564 40.844619274139404,45.54116725921631 40.844619274139404,45.54116725921631 40.74707329273224,45.53920328617096 40.74707329273224,45.53920328617096 40.01246988773346,45.637133717536926 40.01246988773346,45.637133717536926 39.33563530445099,45.893317461013794 39.33563530445099,45.893317461013794 38.73160481452942,46.25157117843628 38.73160481452942,46.25157117843628 38.214877247810364,46.6557115316391 38.214877247810364,46.6557115316391 37.800490856170654,47.049716114997864 37.800490856170654,47.049716114997864 37.5034898519516,47.37723469734192 37.5034898519516,47.37723469734192 35.7945054769516,49.37221109867096 35.7945054769516,49.37221109867096 34.08900797367096,47.37723469734192 34.08900797367096,47.37723469734192 33.79037082195282,47.04976975917816 33.79037082195282,47.04976975917816 33.37511420249939,46.655821800231934 33.37511420249939,46.655821800231934 32.85784125328064,46.25157117843628 32.85784125328064,46.25157117843628 32.253265380859375,45.89320719242096 32.253265380859375,45.89320719242096 31.5765380859375,45.63702344894409 31.5765380859375,45.63702344894409 30.84193766117096,45.53920328617096 30.84193766117096,45.53920328617096 30.74428141117096,45.541220903396606 30.74428141117096,45.541220903396606 30.64640760421753,45.54705023765564 30.64640760421753,45.54705023765564 30.5485337972641,45.55664360523224 30.5485337972641,45.55664360523224 30.45022189617157,45.569613575935364 30.45022189617157,45.569613575935364 30.351585149765015,45.58601677417755 30.351585149765015,45.58601677417755 30.2525132894516,45.60547173023224 30.2525132894516,45.60547173023224 29.58744764328003,45.80492377281189 29.58744764328003,45.80492377281189 28.77568006515503,46.17380499839783 28.77568006515503,46.17380499839783 27.91922688484192,46.71086072921753 27.91922688484192,46.71086072921753 27.119556069374084,47.41450846195221 27.119556069374084,47.41450846195221 26.478904485702515,48.283496499061584 26.478904485702515,48.283496499061584 26.0986328125,49.31640923023224 26.0986328125,49.31640923023224 26.050567626953125,50.26866793632507 26.050567626953125,50.26866793632507 26.3554185628891,51.65383815765381 26.3554185628891,51.65383815765381 27.24784016609192,53.47246527671814 27.24784016609192,53.47246527671814 28.96205484867096,55.724990367889404 28.96205484867096,55.724990367889404 31.73283338546753,58.412009477615356 31.73283338546753,58.412009477615356" stroke="white" stroke-width="0.1" /><polygon points="57.78111219406128,37.29771375656128 57.78111219406128,37.29771375656128 58.05293917655945,39.85596001148224 58.05293917655945,39.85596001148224 58.84574055671692,42.53910779953003 58.84574055671692,42.53910779953003 60.21031141281128,45.35675346851349 60.21031141281128,45.35675346851349 62.196677923202515,48.318374156951904 62.196677923202515,48.318374156951904 64.85563516616821,51.433563232421875 64.85563516616821,51.433563232421875 68.23731064796448,54.7119140625 68.23731064796448,54.7119140625 54.6456515789032,54.7119140625 54.6456515789032,54.7119140625 54.87169623374939,53.7017285823822 54.87169623374939,53.7017285823822 55.02973794937134,52.67159938812256 55.02973794937134,52.67159938812256 55.11431097984314,51.62200927734375 55.11431097984314,51.62200927734375 55.11943697929382,50.553297996520996 55.11943697929382,50.553297996520996 55.03954291343689,49.46610927581787 55.03954291343689,49.46610927581787 54.86886501312256,48.36077094078064 54.86886501312256,48.36077094078064 54.5806884765625,47.17124104499817 54.5806884765625,47.17124104499817 54.19551730155945,46.0393100976944 54.19551730155945,46.0393100976944 53.72140407562256,44.96612846851349 53.72140407562256,44.96612846851349 53.165656328201294,43.95267069339752 53.165656328201294,43.95267069339752 52.53645181655884,42.99992322921753 52.53645181655884,42.99992322921753 51.84152126312256,42.10902750492096 51.84152126312256,42.10902750492096 57.94852375984192,34.1953843832016 57.94852375984192,34.1953843832016 58.02939534187317,34.08786356449127 58.02939534187317,34.08786356449127 58.10830593109131,33.978381752967834 58.10830593109131,33.978381752967834 58.1856906414032,33.86775553226471 58.1856906414032,33.86775553226471 58.26176404953003,33.756640553474426 58.26176404953003,33.756640553474426 58.33718776702881,33.64590406417847 58.33718776702881,33.64590406417847 58.41239094734192,33.5362046957016 58.41239094734192,33.5362046957016 58.227431774139404,34.11734700202942 58.227431774139404,34.11734700202942 58.07124972343445,34.71679985523224 58.07124972343445,34.71679985523224 57.94634222984314,35.33456027507782 57.94634222984314,35.33456027507782 57.85478949546814,35.970526933670044 57.85478949546814,35.970526933670044 57.79898762702942,36.62496507167816 57.79898762702942,36.62496507167816" stroke="white" stroke-width="0.1" /><polygon points="31.8882554769516,1.15792416036129 31.8882554769516,1.15792416036129 33.14208984375,0.486700888723135 33.14208984375,0.486700888723135 34.494346380233765,0.19231524784117937 34.494346380233765,0.19231524784117937 35.87341606616974,0.26179724372923374 35.87341606616974,0.26179724372923374 37.20725178718567,0.68184994161129 37.20725178718567,0.68184994161129 38.424575328826904,1.439557783305645 38.424575328826904,1.439557783305645 39.45312798023224,2.52162404358387 39.45312798023224,2.52162404358387 48.58398735523224,14.98151570558548 48.58398735523224,14.98151570558548 46.77843451499939,15.14914482831955 46.77843451499939,15.14914482831955 45.027053356170654,15.584564208984375 45.027053356170654,15.584564208984375 43.36068630218506,16.27328097820282 43.36068630218506,16.27328097820282 41.810283064842224,17.20058023929596 41.810283064842224,17.20058023929596 40.406692028045654,18.351909518241882 40.406692028045654,18.351909518241882 39.18108344078064,19.71261203289032 39.18108344078064,19.71261203289032 39.05203938484192,19.87827867269516 39.05203938484192,19.87827867269516 30.91517984867096,8.78208726644516 30.91517984867096,8.78208726644516 30.19191324710846,7.47528076171875 30.19191324710846,7.47528076171875 29.83594834804535,6.086186319589615 29.83594834804535,6.086186319589615 29.8374742269516,4.68750037252903 29.8374742269516,4.68750037252903 30.186572670936584,3.3515386283397675 30.186572670936584,3.3515386283397675 30.873435735702515,2.1508898586034775 30.873435735702515,2.1508898586034775" stroke="white" stroke-width="0.1" /><polygon points="98.0050265789032,1.4299665577709675 98.0050265789032,1.4299665577709675 98.9968478679657,2.4469103664159775 98.9968478679657,2.4469103664159775 99.65472221374512,3.6634720861911774 99.65472221374512,3.6634720861911774 99.97079372406006,5.00706285238266 99.97079372406006,5.00706285238266 99.93711709976196,6.404931843280792 99.93711709976196,6.404931843280792 99.5460569858551,7.78459832072258 99.5460569858551,7.78459832072258 98.78976345062256,9.07331258058548 98.78976345062256,9.07331258058548 86.32115125656128,25.23716688156128 86.32115125656128,25.23716688156128 86.25292778015137,25.218039751052856 86.25292778015137,25.218039751052856 86.18447780609131,25.19901990890503 86.18447780609131,25.19901990890503 86.11624836921692,25.18027424812317 86.11624836921692,25.18027424812317 86.04846000671387,25.161907076835632 86.04846000671387,25.161907076835632 85.98175644874573,25.14425218105316 85.98175644874573,25.14425218105316 85.91657876968384,25.12730360031128 85.91657876968384,25.12730360031128 85.91657876968384,25.13253390789032 85.91657876968384,25.13253390789032 85.58480739593506,25.063762068748474 85.58480739593506,25.063762068748474 85.25521755218506,25.008556246757507 85.25521755218506,25.008556246757507 84.92867946624756,24.96664971113205 84.92867946624756,24.96664971113205 84.6047580242157,24.937276542186737 84.6047580242157,24.937276542186737 84.2842161655426,24.920165538787842 84.2842161655426,24.920165538787842 83.9669406414032,24.91455227136612 83.9669406414032,24.91455227136612 82.48335123062134,25.05057454109192 82.48335123062134,25.05057454109192 81.1288058757782,25.379619002342224 81.1288058757782,25.379619002342224 79.90243434906006,25.86234211921692 79.90243434906006,25.86234211921692 78.80293130874634,26.458904147148132 78.80293130874634,26.458904147148132 77.82952785491943,27.129855751991272 77.82952785491943,27.129855751991272 76.98103189468384,27.8355211019516 76.98103189468384,27.8355211019516 76.1330783367157,27.12990939617157 76.1330783367157,27.12990939617157 75.16087293624878,26.45896077156067 75.16087293624878,26.45896077156067 74.06311631202698,25.86234211921692 74.06311631202698,25.86234211921692 72.83827066421509,25.379619002342224 72.83827066421509,25.379619002342224 71.4851438999176,25.050517916679382 71.4851438999176,25.050517916679382 70.0020968914032,24.91455227136612 70.0020968914032,24.91455227136612 69.68449354171753,24.92021918296814 69.68449354171753,24.92021918296814 69.36308145523071,24.937331676483154 69.36308145523071,24.937331676483154 69.03817653656006,24.96664971113205 69.03817653656006,24.96664971113205 68.71000528335571,25.00850260257721 68.71000528335571,25.00850260257721 68.37899684906006,25.06365180015564 68.37899684906006,25.06365180015564 68.04548501968384,25.13253390789032 68.04548501968384,25.13253390789032 67.05170273780823,25.406157970428467 67.05170273780823,25.406157970428467 66.00145697593689,25.797709822654724 66.00145697593689,25.797709822654724 64.91525173187256,26.312255859375 64.91525173187256,26.312255859375 63.812583684921265,26.95465087890625 63.812583684921265,26.95465087890625 62.71373629570007,27.729853987693787 62.71373629570007,27.729853987693787 61.63853406906128,28.64292860031128 61.63853406906128,28.64292860031128 61.30741834640503,28.963908553123474 61.30741834640503,28.963908553123474 60.984039306640625,29.3034166097641 60.984039306640625,29.3034166097641 60.66938638687134,29.66025471687317 60.66938638687134,29.66025471687317 60.364317893981934,30.03316819667816 60.364317893981934,30.03316819667816 60.06971597671509,30.421122908592224 60.06971597671509,30.421122908592224 59.78655219078064,30.82275390625 59.78655219078064,30.82275390625 60.05576252937317,29.972457885742188 60.05576252937317,29.972457885742188 60.26241183280945,29.1046142578125 60.26241183280945,29.1046142578125 60.40518879890442,28.22243869304657 60.40518879890442,28.22243869304657 60.48246622085571,27.328982949256897 60.48246622085571,27.328982949256897 60.492926836013794,26.427623629570007 60.492926836013794,26.427623629570007 60.43527126312256,25.52141547203064 60.43527126312256,25.52141547203064 60.16409993171692,23.942840099334717 60.16409993171692,23.942840099334717 59.68584418296814,22.426334023475647 59.68584418296814,22.426334023475647 59.01228189468384,20.99304348230362 59.01228189468384,20.99304348230362 58.15495252609253,19.66400295495987 58.15495252609253,19.66400295495987 57.125747203826904,18.460628390312195 57.125747203826904,18.460628390312195 55.93611001968384,17.40373969078064 55.93611001968384,17.40373969078064 55.30461072921753,16.94968193769455 55.30461072921753,16.94968193769455 54.649245738983154,16.541345417499542 54.649245738983154,16.541345417499542 53.97208333015442,16.1791130900383 53.97208333015442,16.1791130900383 53.27475666999817,15.863037109375 53.27475666999817,15.863037109375 52.559447288513184,15.59339314699173 52.559447288513184,15.59339314699173 51.82756781578064,15.3703972697258 51.82756781578064,15.3703972697258 51.761192083358765,14.98936265707016 51.761192083358765,14.98936265707016 51.70528292655945,14.604896306991577 51.70528292655945,14.604896306991577 51.66059732437134,14.21705037355423 51.66059732437134,14.21705037355423 51.62779092788696,13.82577121257782 51.62779092788696,13.82577121257782 51.607733964920044,13.431331515312195 51.607733964920044,13.431331515312195 51.60086750984192,13.03362250328064 51.60086750984192,13.03362250328064 52.06626057624817,9.568024426698685 52.06626057624817,9.568024426698685 53.3791720867157,6.454358994960785 53.3791720867157,6.454358994960785 55.41599988937378,3.8166593760252 55.41599988937378,3.8166593760252 58.05228352546692,1.7789024859666824 58.05228352546692,1.7789024859666824 61.164093017578125,0.46539306640625 61.164093017578125,0.46539306640625 64.62751626968384,0.0 64.62751626968384,0.0 68.09256672859192,0.46544759534299374 68.09256672859192,0.46544759534299374 71.20601534843445,1.77895687520504 71.20601534843445,1.77895687520504 73.84382486343384,3.8166593760252 73.84382486343384,3.8166593760252 75.88163614273071,6.454304605722427 75.88163614273071,6.454304605722427 77.19552516937256,9.567969292402267 77.19552516937256,9.567969292402267 77.66113877296448,13.03362250328064 77.66113877296448,13.03362250328064 77.52718329429626,14.90325927734375 77.52718329429626,14.90325927734375 77.13797688484192,16.689519584178925 77.13797688484192,16.689519584178925 76.51280164718628,18.37441623210907 76.51280164718628,18.37441623210907 75.67073702812195,19.939641654491425 75.67073702812195,19.939641654491425 74.63106513023376,21.367210149765015 74.63106513023376,21.367210149765015 73.41309189796448,22.63881266117096 73.41309189796448,22.63881266117096 73.65341782569885,22.647149860858917 73.65341782569885,22.647149860858917 73.8929808139801,22.66300916671753 73.8929808139801,22.66300916671753 74.13156032562256,22.68589735031128 74.13156032562256,22.68589735031128 74.36883449554443,22.715051472187042 74.36883449554443,22.715051472187042 74.60501790046692,22.750146687030792 74.60501790046692,22.750146687030792 74.83956813812256,22.79052883386612 74.83956813812256,22.79052883386612 90.40876626968384,2.60707326233387 90.40876626968384,2.60707326233387 91.46488904953003,1.5502385795116425 91.46488904953003,1.5502385795116425 92.70129203796387,0.823102705180645 92.70129203796387,0.823102705180645 94.04602646827698,0.4366193898022175 94.04602646827698,0.4366193898022175 95.4261839389801,0.4015786573290825 95.4261839389801,0.4015786573290825 96.77015542984009,0.7290976587682962 96.77015542984009,0.7290976587682962" stroke="white" stroke-width="0.1" /><polygon points="84.96443033218384,28.85219156742096 84.96443033218384,28.85219156742096 87.9738986492157,30.030715465545654 87.9738986492157,30.030715465545654 91.03546738624573,32.53849744796753 91.03546738624573,32.53849744796753 92.81224012374878,36.40071451663971 92.81224012374878,36.40071451663971 91.96636080741882,41.64232611656189 91.96636080741882,41.64232611656189 87.16071248054504,48.28878343105316 87.16071248054504,48.28878343105316 77.0577609539032,56.36509656906128 77.0577609539032,56.36509656906128 66.95186495780945,48.288893699645996 66.95186495780945,48.288893699645996 62.14403510093689,41.642436385154724 62.14403510093689,41.642436385154724 61.29717230796814,36.40071451663971 61.29717230796814,36.40071451663971 63.073188066482544,32.53844380378723 63.073188066482544,32.53844380378723 66.13475680351257,30.030661821365356 66.13475680351257,30.030661821365356 69.14411783218384,28.85219156742096 69.14411783218384,28.85219156742096 69.37986612319946,28.81055772304535 69.37986612319946,28.81055772304535 69.61256265640259,28.776168823242188 69.61256265640259,28.776168823242188 69.84253525733948,28.74930500984192 69.84253525733948,28.74930500984192 70.0693428516388,28.729957342147827 70.0693428516388,28.729957342147827 70.29353976249695,28.718242049217224 70.29353976249695,28.718242049217224 70.5147922039032,28.7144273519516 70.5147922039032,28.7144273519516 72.02606797218323,28.887176513671875 72.02606797218323,28.887176513671875 73.38682413101196,29.344123601913452 73.38682413101196,29.344123601913452 74.58409070968628,29.99354898929596 74.58409070968628,29.99354898929596 75.60381293296814,30.743408203125 75.60381293296814,30.743408203125 76.43302083015442,31.502097845077515 76.43302083015442,31.502097845077515 77.0577609539032,32.177734375 77.0577609539032,32.177734375 77.67977118492126,31.50220811367035 77.67977118492126,31.50220811367035 78.5073459148407,30.743518471717834 78.5073459148407,30.743518471717834 79.5266330242157,29.99354898929596 79.5266330242157,29.99354898929596 80.72335720062256,29.344069957733154 80.72335720062256,29.344069957733154 82.0838987827301,28.887122869491577 82.0838987827301,28.887122869491577 83.59375596046448,28.7144273519516 83.59375596046448,28.7144273519516 83.81500840187073,28.71834933757782 83.81500840187073,28.71834933757782 84.03898477554321,28.730010986328125 84.03898477554321,28.730010986328125 84.2660129070282,28.74930500984192 84.2660129070282,28.74930500984192 84.49587225914001,28.77611517906189 84.49587225914001,28.77611517906189 84.72856879234314,28.810447454452515 84.72856879234314,28.810447454452515" stroke="white" stroke-width="0.1" /><polygon points="77.0577609539032,52.78843641281128 77.0577609539032,52.78843641281128 82.41751790046692,48.66949021816254 82.41751790046692,48.66949021816254 86.07352375984192,45.123839378356934 86.07352375984192,45.123839378356934 88.33618760108948,42.15088188648224 88.33618760108948,42.15088188648224 89.51449394226074,39.74980115890503 89.51449394226074,39.74980115890503 89.91852402687073,37.920162081718445 89.91852402687073,37.920162081718445 89.85770344734192,36.6612046957016 89.85770344734192,36.6612046957016 89.35547471046448,35.298267006874084 89.35547471046448,35.298267006874084 88.50958943367004,34.151023626327515 88.50958943367004,34.151023626327515 87.45422959327698,33.221435546875 87.45422959327698,33.221435546875 86.3228976726532,32.51152038574219 86.3228976726532,32.51152038574219 85.24954915046692,32.02340304851532 85.24954915046692,32.02340304851532 84.36802625656128,31.75920844078064 84.36802625656128,31.75920844078064 84.2375636100769,31.735122203826904 84.2375636100769,31.735122203826904 84.10764932632446,31.71517550945282 84.10764932632446,31.71517550945282 83.97827744483948,31.69948160648346 83.97827744483948,31.69948160648346 83.84934067726135,31.688091158866882 83.84934067726135,31.688091158866882 83.72116684913635,31.681281328201294 83.72116684913635,31.681281328201294 83.59375596046448,31.67899250984192 83.59375596046448,31.67899250984192 82.62460231781006,31.80760145187378 82.62460231781006,31.80760145187378 81.73142075538635,32.14422166347504 81.73142075538635,32.14422166347504 80.93392848968506,32.61544406414032 80.93392848968506,32.61544406414032 80.25109767913818,33.147650957107544 80.25109767913818,33.147650957107544 79.70243692398071,33.6674302816391 79.70243692398071,33.6674302816391 79.30734157562256,34.10121500492096 79.30734157562256,34.10121500492096 77.0577609539032,36.73793375492096 77.0577609539032,36.73793375492096 74.80120062828064,34.10121500492096 74.80120062828064,34.10121500492096 74.40599799156189,33.667537569999695 74.40599799156189,33.667537569999695 73.85733723640442,33.14770460128784 73.85733723640442,33.14770460128784 73.17461371421814,32.61544406414032 73.17461371421814,32.61544406414032 72.37702012062073,32.1441113948822 72.37702012062073,32.1441113948822 71.48393988609314,31.80754780769348 71.48393988609314,31.80754780769348 70.5147922039032,31.67899250984192 70.5147922039032,31.67899250984192 70.38727402687073,31.681334972381592 70.38727402687073,31.681334972381592 70.25898694992065,31.68814778327942 70.25898694992065,31.68814778327942 70.1302707195282,31.69948160648346 70.1302707195282,31.69948160648346 70.00078558921814,31.715121865272522 70.00078558921814,31.715121865272522 69.8709785938263,31.735068559646606 69.8709785938263,31.735068559646606 69.74051594734192,31.75920844078064 69.74051594734192,31.75920844078064 68.85921359062195,32.023513317108154 68.85921359062195,32.023513317108154 67.78630018234253,32.511577010154724 67.78630018234253,32.511577010154724 66.65562391281128,33.221435546875 66.65562391281128,33.221435546875 65.60037136077881,34.15096998214722 65.60037136077881,34.15096998214722 64.75427150726318,35.298267006874084 64.75427150726318,35.298267006874084 64.25083875656128,36.6612046957016 64.25083875656128,36.6612046957016 64.19002413749695,37.92027235031128 64.19002413749695,37.92027235031128 64.59416151046753,39.749911427497864 64.59416151046753,39.749911427497864 65.77323079109192,42.15088188648224 65.77323079109192,42.15088188648224 68.0368721485138,45.1237827539444 68.0368721485138,45.1237827539444 71.69505953788757,48.6693799495697 71.69505953788757,48.6693799495697" stroke="white" stroke-width="0.1" /></svg>