<?xml version="1.0" encoding="utf-8" ?>
<svg baseProfile="full" height="91.42194986343384" version="1.1" width="99.99606609344482" xmlns="http://www.w3.org/2000/svg" xmlns:ev="http://www.w3.org/2001/xml-events" xmlns:xlink="http://www.w3.org/1999/xlink"><defs><clipPath /></defs><polygon points="57.19866156578064,0.0 57.19866156578064,0.0 57.25221633911133,0.0019073486328125 57.25221633911133,0.0019073486328125 57.30498433113098,0.0069209512730594724 57.30498433113098,0.0069209512730594724 57.35735297203064,0.01373291015625 57.35735297203064,0.01373291015625 57.40973949432373,0.020926340948790312 57.40973949432373,0.020926340948790312 57.462501525878906,0.027247838443145156 57.462501525878906,0.027247838443145156 57.51604437828064,0.03138951142318547 57.51604437828064,0.03138951142318547 57.185524702072144,0.46811788342893124 57.185524702072144,0.46811788342893124 56.864434480667114,0.9125301614403725 56.864434480667114,0.9125301614403725 56.55409097671509,1.366097666323185 56.55409097671509,1.366097666323185 56.25581741333008,1.8299102783203125 56.25581741333008,1.8299102783203125 55.97090721130371,2.3053307086229324 55.97090721130371,2.3053307086229324 55.70068359375,2.79366634786129 55.70068359375,2.79366634786129 55.52530288696289,3.1341008841991425 55.52530288696289,3.1341008841991425 55.35670518875122,3.47704216837883 55.35670518875122,3.47704216837883 55.1949679851532,3.82254496216774 55.1949679851532,3.82254496216774 55.04021644592285,4.170281812548637 55.04021644592285,4.170281812548637 54.89252805709839,4.52030748128891 54.89252805709839,4.52030748128891 54.75202798843384,4.87234964966774 54.75202798843384,4.87234964966774 54.36905026435852,4.98744435608387 54.36905026435852,4.98744435608387 53.99125814437866,5.1200322806835175 53.99125814437866,5.1200322806835175 53.61917018890381,5.26973195374012 53.61917018890381,5.26973195374012 53.25334072113037,5.43605275452137 53.25334072113037,5.43605275452137 52.89428234100342,5.618831515312195 52.89428234100342,5.618831515312195 52.54255533218384,5.81752248108387 52.54255533218384,5.81752248108387 44.90443766117096,10.36551371216774 44.90443766117096,10.36551371216774 43.016305565834045,11.874499171972275 43.016305565834045,11.874499171972275 41.636645793914795,13.758087158203125 41.636645793914795,13.758087158203125 40.79437553882599,15.89878648519516 40.79437553882599,15.89878648519516 40.51843583583832,18.17888617515564 40.51843583583832,18.17888617515564 40.83772599697113,20.481055974960327 40.83772599697113,20.481055974960327 41.78118109703064,22.68764078617096 41.78118109703064,22.68764078617096 43.02804470062256,24.77504312992096 43.02804470062256,24.77504312992096 43.04401874542236,24.802890419960022 43.04401874542236,24.802890419960022 43.060413002967834,24.830737709999084 43.060413002967834,24.830737709999084 43.07709038257599,24.85874891281128 43.07709038257599,24.85874891281128 43.09392273426056,24.88664984703064 43.09392273426056,24.88664984703064 43.11075508594513,24.91455227136612 43.11075508594513,24.91455227136612 43.12744438648224,24.94245320558548 43.12744438648224,24.94245320558548 39.78219926357269,31.497356295585632 39.78219926357269,31.497356295585632 37.89463937282562,38.519179821014404 37.89463937282562,38.519179821014404 37.48169243335724,45.75369954109192 37.48169243335724,45.75369954109192 38.56033682823181,52.946966886520386 38.56033682823181,52.946966886520386 41.14752113819122,59.8449170589447 41.14752113819122,59.8449170589447 45.26018500328064,66.1935031414032 45.26018500328064,66.1935031414032 47.50702381134033,68.6898410320282 47.50702381134033,68.6898410320282 49.96229708194733,70.93549966812134 49.96229708194733,70.93549966812134 52.60685682296753,72.92284369468689 52.60685682296753,72.92284369468689 55.421608686447144,74.64436292648315 55.421608686447144,74.64436292648315 58.38739275932312,76.09264254570007 58.38739275932312,76.09264254570007 61.48507595062256,77.26004719734192 61.48507595062256,77.26004719734192 50.69580078125,88.08594346046448 50.69580078125,88.08594346046448 49.74355101585388,88.9809250831604 49.74355101585388,88.9809250831604 48.74069690704346,89.78005051612854 48.74069690704346,89.78005051612854 47.68480658531189,90.45367240905762 47.68480658531189,90.45367240905762 46.57357335090637,90.97170829772949 46.57357335090637,90.97170829772949 45.40459215641022,91.30445718765259 45.40459215641022,91.30445718765259 44.17550563812256,91.42194986343384 44.17550563812256,91.42194986343384 43.798306584358215,91.41094088554382 43.798306584358215,91.41094088554382 43.414998054504395,91.37780666351318 43.414998054504395,91.37780666351318 43.02586317062378,91.32145643234253 43.02586317062378,91.32145643234253 42.63121783733368,91.24113321304321 42.63121783733368,91.24113321304321 42.23133623600006,91.13595485687256 42.23133623600006,91.13595485687256 41.82652235031128,91.00516438484192 41.82652235031128,91.00516438484192 38.46854567527771,88.17918300628662 38.46854567527771,88.17918300628662 31.59387707710266,81.60597085952759 31.59387707710266,81.60597085952759 22.91477918624878,73.05712103843689 22.91477918624878,73.05712103843689 14.143562316894531,64.30402994155884 14.143562316894531,64.30402994155884 6.992476433515549,57.11833834648132 6.992476433515549,57.11833834648132 3.173828125,53.271484375 3.173828125,53.271484375 2.6104655116796494,52.699607610702515 2.6104655116796494,52.699607610702515 2.069718576967716,52.119773626327515 2.069718576967716,52.119773626327515 1.56489796936512,51.51737928390503 1.56489796936512,51.51737928390503 1.1093548499047756,50.877219438552856 1.1093548499047756,50.877219438552856 0.7163865491747856,50.18457770347595 0.7163865491747856,50.18457770347595 0.3993443213403225,49.42452907562256 0.3993443213403225,49.42452907562256 -0.00039509368434664793,47.027698159217834 -0.00039509368434664793,47.027698159217834 0.37521636113524437,44.725802540779114 0.37521636113524437,44.725802540779114 1.416451670229435,42.67076849937439 1.416451670229435,42.67076849937439 3.013719990849495,41.01459085941315 3.013719990849495,41.01459085941315 5.057307705283165,39.90941941738129 5.057307705283165,39.90941941738129 7.43757039308548,39.50718641281128 7.43757039308548,39.50718641281128 24.56752359867096,39.50718641281128 24.56752359867096,39.50718641281128 24.56752359867096,6.76443949341774 24.56752359867096,6.76443949341774 24.809476733207703,4.971804097294807 24.809476733207703,4.971804097294807 25.49164891242981,3.3574242144823074 25.49164891242981,3.3574242144823074 26.54854953289032,1.987348310649395 26.54854953289032,1.987348310649395 27.914702892303467,0.9271894581615925 27.914702892303467,0.9271894581615925 29.524612426757812,0.24277823977172375 29.524612426757812,0.24277823977172375 31.31278157234192,0.0 31.31278157234192,0.0" stroke="white" stroke-width="0.1" /><polygon points="91.29464626312256,23.97461086511612 91.29464626312256,23.97461086511612 94.39495801925659,27.433615922927856 94.39495801925659,27.433615922927856 96.84833288192749,31.328964233398438 96.84833288192749,31.328964233398438 98.62170219421387,35.55864691734314 98.62170219421387,35.55864691734314 99.68197345733643,40.02048075199127 99.68197345733643,40.02048075199127 99.99606609344482,44.612449407577515 99.99606609344482,44.612449407577515 99.5309054851532,49.23270344734192 99.5309054851532,49.23270344734192 98.48402142524719,53.14750671386719 98.48402142524719,53.14750671386719 96.87855839729309,56.84569478034973 96.87855839729309,56.84569478034973 94.75991725921631,60.26655435562134 94.75991725921631,60.26655435562134 92.1734869480133,63.349318504333496 92.1734869480133,63.349318504333496 89.16465640068054,66.03344678878784 89.16465640068054,66.03344678878784 85.77881455421448,68.25823187828064 85.77881455421448,68.25823187828064 83.67729783058167,69.30814981460571 83.67729783058167,69.30814981460571 81.51611089706421,70.16127705574036 81.51611089706421,70.16127705574036 79.30821180343628,70.82040309906006 79.30821180343628,70.82040309906006 77.06660628318787,71.28792405128479 77.06660628318787,71.28792405128479 74.80427026748657,71.56645059585571 74.80427026748657,71.56645059585571 72.53418564796448,71.65876626968384 72.53418564796448,71.65876626968384 68.47965121269226,71.3653028011322 68.47965121269226,71.3653028011322 64.51197862625122,70.49495577812195 64.51197862625122,70.49495577812195 60.70404052734375,69.06259059906006 60.70404052734375,69.06259059906006 57.12878108024597,67.08281636238098 57.12878108024597,67.08281636238098 53.85907292366028,64.57073092460632 53.85907292366028,64.57073092460632 50.96784830093384,61.54087781906128 50.96784830093384,61.54087781906128 47.29241132736206,55.59055209159851 47.29241132736206,55.59055209159851 45.28544545173645,49.05422925949097 45.28544545173645,49.05422925949097 44.92362141609192,42.27840006351471 44.92362141609192,42.27840006351471 46.183595061302185,35.60900092124939 46.183595061302185,35.60900092124939 49.04201030731201,29.39235270023346 49.04201030731201,29.39235270023346 53.47551703453064,23.97461086511612 53.47551703453064,23.97461086511612 51.91650390625,21.35881781578064 51.91650390625,21.35881781578064 51.70343518257141,21.499907970428467 51.70343518257141,21.499907970428467 51.4936625957489,21.612277626991272 51.4936625957489,21.612277626991272 51.287841796875,21.69734537601471 51.287841796875,21.69734537601471 51.08668804168701,21.756255626678467 51.08668804168701,21.756255626678467 50.890856981277466,21.79064154624939 50.890856981277466,21.79064154624939 50.70103406906128,21.80175930261612 50.70103406906128,21.80175930261612 50.416386127471924,21.77538275718689 50.416386127471924,21.77538275718689 50.151920318603516,21.699579060077667 50.151920318603516,21.699579060077667 49.91041123867035,21.57941609621048 49.91041123867035,21.57941609621048 49.69463646411896,21.41963541507721 49.69463646411896,21.41963541507721 49.50733482837677,21.225358545780182 49.50733482837677,21.225358545780182 49.35128688812256,21.00132554769516 49.35128688812256,21.00132554769516 48.10442328453064,18.91392320394516 48.10442328453064,18.91392320394516 47.933629155159,18.514524400234222 47.933629155159,18.514524400234222 47.876182198524475,18.09910386800766 47.876182198524475,18.09910386800766 47.92655110359192,17.68864244222641 47.92655110359192,17.68864244222641 48.07923436164856,17.30346828699112 48.07923436164856,17.30346828699112 48.32870066165924,16.96450412273407 48.32870066165924,16.96450412273407 48.66943657398224,16.69224351644516 48.66943657398224,16.69224351644516 56.32498860359192,12.13553324341774 56.32498860359192,12.13553324341774 56.45633935928345,12.065397202968597 56.45633935928345,12.065397202968597 56.59155249595642,12.00844943523407 56.59155249595642,12.00844943523407 56.72956705093384,11.96463480591774 56.72956705093384,11.96463480591774 56.86933398246765,11.933518201112747 56.86933398246765,11.933518201112747 57.00977444648743,11.914989352226257 57.00977444648743,11.914989352226257 57.14983344078064,11.9088314473629 57.14983344078064,11.9088314473629 57.42393732070923,11.932209879159927 57.42393732070923,11.932209879159927 57.68941044807434,12.001092731952667 57.68941044807434,12.001092731952667 57.94023871421814,12.11395338177681 57.94023871421814,12.11395338177681 58.17044377326965,12.268666177988052 58.17044377326965,12.268666177988052 58.37400555610657,12.463706731796265 58.37400555610657,12.463706731796265 58.544921875,12.6970574259758 58.544921875,12.6970574259758 59.78655219078064,14.78794664144516 59.78655219078064,14.78794664144516 59.98423099517822,15.333938598632812 59.98423099517822,15.333938598632812 59.99898910522461,15.8251091837883 59.99898910522461,15.8251091837883 59.86328125,16.26020222902298 59.86328125,16.26020222902298 59.609586000442505,16.63731187582016 59.609586000442505,16.63731187582016 59.270334243774414,16.95513129234314 59.270334243774414,16.95513129234314 58.87800455093384,17.21191555261612 58.87800455093384,17.21191555261612 60.14230251312256,19.33593899011612 60.14230251312256,19.33593899011612 60.57381629943848,19.127818942070007 60.57381629943848,19.127818942070007 61.008816957473755,18.925967812538147 61.008816957473755,18.925967812538147 61.44758462905884,18.73125433921814 61.44758462905884,18.73125433921814 61.89042925834656,18.544389307498932 61.89042925834656,18.544389307498932 62.33762502670288,18.366079032421112 62.33762502670288,18.366079032421112 62.78948187828064,18.19719672203064 62.78948187828064,18.19719672203064 61.06559634208679,14.209802448749542 61.06559634208679,14.209802448749542 60.936808586120605,10.100828111171722 60.936808586120605,10.100828111171722 62.20376491546631,6.24803826212883 62.20376491546631,6.24803826212883 64.6671712398529,3.0285973101854324 64.6671712398529,3.0285973101854324 68.12767386436462,0.820050947368145 68.12767386436462,0.820050947368145 72.38595485687256,0.0 72.38595485687256,0.0 76.63649320602417,0.820050947368145 76.63649320602417,0.820050947368145 80.09744882583618,3.0287062749266624 80.09744882583618,3.0287062749266624 82.56574869155884,6.24803826212883 82.56574869155884,6.24803826212883 83.8383436203003,10.100119560956955 83.8383436203003,10.100119560956955 83.71217250823975,14.20745849609375 83.71217250823975,14.20745849609375 81.98416829109192,18.19196492433548 81.98416829109192,18.19196492433548 82.43433237075806,18.362590670585632 82.43433237075806,18.362590670585632 82.88128972053528,18.541555106639862 82.88128972053528,18.541555106639862 83.32476019859314,18.72863918542862 83.32476019859314,18.72863918542862 83.7644636631012,18.923459947109222 83.7644636631012,18.923459947109222 84.20008420944214,19.12602037191391 84.20008420944214,19.12602037191391 84.63135361671448,19.33593899011612 84.63135361671448,19.33593899011612 85.8956515789032,17.21191555261612 85.8956515789032,17.21191555261612 85.38303971290588,16.882215440273285 85.38303971290588,16.882215440273285 85.02901792526245,16.49387925863266 85.02901792526245,16.49387925863266 84.82273817062378,16.06859564781189 84.82273817062378,16.06859564781189 84.75335836410522,15.627998113632202 84.75335836410522,15.627998113632202 84.81001257896423,15.193885564804077 84.81001257896423,15.193885564804077 84.98186469078064,14.78794664144516 84.98186469078064,14.78794664144516 86.22349500656128,12.6970574259758 86.22349500656128,12.6970574259758 86.39602661132812,12.46359720826149 86.39602661132812,12.46359720826149 86.60094738006592,12.268611788749695 86.60094738006592,12.268611788749695 86.83232069015503,12.11395338177681 86.83232069015503,12.11395338177681 87.08418607711792,12.001201510429382 87.08418607711792,12.001201510429382 87.35058903694153,11.932264268398285 87.35058903694153,11.932264268398285 87.62556314468384,11.9088314473629 87.62556314468384,11.9088314473629 87.76598572731018,11.9149349629879 87.76598572731018,11.9149349629879 87.90600895881653,11.933408677577972 87.90600895881653,11.933408677577972 88.04495930671692,11.96463480591774 88.04495930671692,11.96463480591774 88.18217515945435,12.008503824472427 88.18217515945435,12.008503824472427 88.31697106361389,12.065452337265015 88.31697106361389,12.065452337265015 88.44866752624512,12.13553324341774 88.44866752624512,12.13553324341774 96.10247611999512,16.69224351644516 96.10247611999512,16.69224351644516 96.44381999969482,16.964395344257355 96.44381999969482,16.964395344257355 96.69352173805237,17.30346828699112 96.69352173805237,17.30346828699112 96.84622883796692,17.68864244222641 96.84622883796692,17.68864244222641 96.89663648605347,18.099214136600494 96.89663648605347,18.099214136600494 96.83941602706909,18.51457953453064 96.83941602706909,18.51457953453064 96.66922688484192,18.91392320394516 96.66922688484192,18.91392320394516 95.42236924171448,21.00132554769516 95.42236924171448,21.00132554769516 95.2655017375946,21.221216022968292 95.2655017375946,21.221216022968292 95.07482647895813,21.409498155117035 95.07482647895813,21.409498155117035 94.85430717468262,21.56263142824173 94.85430717468262,21.56263142824173 94.60791349411011,21.676528453826904 94.60791349411011,21.676528453826904 94.33963298797607,21.747590601444244 94.33963298797607,21.747590601444244 94.05343532562256,21.77211344242096 94.05343532562256,21.77211344242096 93.8615083694458,21.761541068553925 93.8615083694458,21.761541068553925 93.66489052772522,21.729224920272827 93.66489052772522,21.729224920272827 93.46466660499573,21.67402058839798 93.46466660499573,21.67402058839798 93.26198101043701,21.594621241092682 93.26198101043701,21.594621241092682 93.05793642997742,21.489934623241425 93.05793642997742,21.489934623241425 92.8536593914032,21.35881781578064 92.8536593914032,21.35881781578064" stroke="white" stroke-width="0.1" /><polygon points="64.63449001312256,11.63155734539032 64.63449001312256,11.63155734539032 64.70279097557068,12.665776908397675 64.70279097557068,12.665776908397675 64.90182876586914,13.65792453289032 64.90182876586914,13.65792453289032 65.22282361984253,14.599609375 65.22282361984253,14.599609375 65.65703749656677,15.481840074062347 65.65703749656677,15.481840074062347 66.1956787109375,16.296277940273285 66.1956787109375,16.296277940273285 66.83000922203064,17.03404039144516 66.83000922203064,17.03404039144516 67.44036078453064,16.92940890789032 67.44036078453064,16.92940890789032 67.5509512424469,16.621890664100647 67.5509512424469,16.621890664100647 67.90410876274109,15.85322916507721 67.90410876274109,15.85322916507721 68.53201985359192,14.85421359539032 68.53201985359192,14.85421359539032 69.46685910224915,13.855035603046417 69.46685910224915,13.855035603046417 70.74078321456909,13.086482882499695 70.74078321456909,13.086482882499695 72.38595485687256,12.77901828289032 72.38595485687256,12.77901828289032 74.02870655059814,13.08637410402298 74.02870655059814,13.08637410402298 75.30195713043213,13.854926824569702 75.30195713043213,13.854926824569702 76.23727321624756,14.85421359539032 76.23727321624756,14.85421359539032 76.86626315116882,15.853391587734222 76.86626315116882,15.853391587734222 77.22048163414001,16.621999442577362 77.22048163414001,16.621999442577362 77.33154892921448,16.92940890789032 77.33154892921448,16.92940890789032 77.93840765953064,17.03404039144516 77.93840765953064,17.03404039144516 78.61538529396057,16.237913072109222 78.61538529396057,16.237913072109222 79.16080355644226,15.383748710155487 79.16080355644226,15.383748710155487 79.57764267921448,14.48386162519455 79.57764267921448,14.48386162519455 79.86893057823181,13.550296425819397 79.86893057823181,13.550296425819397 80.03765940666199,12.59547770023346 80.03765940666199,12.59547770023346 80.08684515953064,11.63155734539032 80.08684515953064,11.63155734539032 79.94935512542725,10.522570461034775 79.94935512542725,10.522570461034775 79.4861912727356,8.938489854335785 79.4861912727356,8.938489854335785 78.59780788421631,7.18122273683548 78.59780788421631,7.18122273683548 77.18467116355896,5.552346631884575 77.18467116355896,5.552346631884575 75.14723539352417,4.353714361786842 75.14723539352417,4.353714361786842 72.38595485687256,3.88706773519516 72.38595485687256,3.88706773519516 69.86386179924011,4.276548326015472 69.86386179924011,4.276548326015472 67.88298487663269,5.305753648281097 67.88298487663269,5.305753648281097 66.40647053718567,6.76531121134758 66.40647053718567,6.76531121134758 65.39746522903442,8.445630967617035 65.39746522903442,8.445630967617035 64.81908559799194,10.137558728456497 64.81908559799194,10.137558728456497" stroke="white" stroke-width="0.1" /><polygon points="66.73409938812256,44.09703016281128 66.73409938812256,44.09703016281128 66.95072054862976,45.62895894050598 66.95072054862976,45.62895894050598 67.55436062812805,46.98557257652283 67.55436062812805,46.98557257652283 68.47578287124634,48.12099039554596 68.47578287124634,48.12099039554596 69.64570879936218,48.988890647888184 69.64570879936218,48.988890647888184 70.9948480129242,49.543383717536926 70.9948480129242,49.543383717536926 72.45396375656128,49.73842203617096 72.45396375656128,49.73842203617096 72.80911207199097,49.72681403160095 72.80911207199097,49.72681403160095 73.16585779190063,49.691665172576904 73.16585779190063,49.691665172576904 73.52316975593567,49.63248372077942 73.52316975593567,49.63248372077942 73.88006448745728,49.54856038093567 73.88006448745728,49.54856038093567 74.23548102378845,49.43934977054596 74.23548102378845,49.43934977054596 74.58845376968384,49.30420219898224 74.58845376968384,49.30420219898224 75.85219740867615,48.54671061038971 75.85219740867615,48.54671061038971 76.88300013542175,47.48142957687378 76.88300013542175,47.48142957687378 77.62604355812073,46.19467854499817 77.62604355812073,46.19467854499817 78.02656888961792,44.7728306055069 78.02656888961792,44.7728306055069 78.02978754043579,43.302592635154724 78.02978754043579,43.302592635154724 77.58091688156128,41.87012016773224 77.58091688156128,41.87012016773224 77.43001580238342,41.542819142341614 77.43001580238342,41.542819142341614 77.25598216056824,41.226306557655334 77.25598216056824,41.226306557655334 77.06102728843689,40.92167615890503 77.06102728843689,40.92167615890503 76.84733271598816,40.629905462265015 76.84733271598816,40.629905462265015 76.61706805229187,40.352195501327515 76.61706805229187,40.352195501327515 76.37242078781128,40.08963704109192 76.37242078781128,40.08963704109192 76.2110948562622,39.91394340991974 76.2110948562622,39.91394340991974 76.02578997612,39.75312411785126 76.02578997612,39.75312411785126 75.82506537437439,39.60440754890442 75.82506537437439,39.60440754890442 75.61752200126648,39.46451544761658 75.61752200126648,39.46451544761658 75.41171908378601,39.33083713054657 75.41171908378601,39.33083713054657 75.21623969078064,39.2002671957016 75.21623969078064,39.2002671957016 73.71826767921448,18.63839328289032 73.71826767921448,18.63839328289032 73.6323893070221,18.085099756717682 73.6323893070221,18.085099756717682 73.47186803817749,17.63240396976471 73.47186803817749,17.63240396976471 73.25156331062317,17.28036105632782 73.25156331062317,17.28036105632782 72.98635840415955,17.029136419296265 72.98635840415955,17.029136419296265 72.6911187171936,16.878946125507355 72.6911187171936,16.878946125507355 72.38072156906128,16.83000922203064 72.38072156906128,16.83000922203064 72.07195162773132,16.880090534687042 72.07195162773132,16.880090534687042 71.77819013595581,17.030607163906097 71.77819013595581,17.030607163906097 71.51445746421814,17.28166937828064 71.51445746421814,17.28166937828064 71.29577994346619,17.63327568769455 71.29577994346619,17.63327568769455 71.1371660232544,18.085481226444244 71.1371660232544,18.085481226444244 71.05364203453064,18.63839328289032 71.05364203453064,18.63839328289032 69.5626437664032,39.2002671957016 69.5626437664032,39.2002671957016 69.0518319606781,39.52653110027313 69.0518319606781,39.52653110027313 68.58078837394714,39.912253618240356 68.58078837394714,39.912253618240356 68.15382242202759,40.34925401210785 68.15382242202759,40.34925401210785 67.77525544166565,40.82903265953064 67.77525544166565,40.82903265953064 67.44938492774963,41.34341776371002 67.44938492774963,41.34341776371002 67.18052625656128,41.88407063484192 67.18052625656128,41.88407063484192 67.18052625656128,41.8858140707016 67.18052625656128,41.8858140707016 67.04514026641846,42.288100719451904 67.04514026641846,42.288100719451904 66.93381071090698,42.76433885097504 66.93381071090698,42.76433885097504 66.84679388999939,43.24907660484314 66.84679388999939,43.24907660484314 66.78435206413269,43.676432967185974 66.78435206413269,43.676432967185974 66.74669981002808,43.980956077575684 66.74669981002808,43.980956077575684" stroke="white" stroke-width="0.1" /></svg>