<?xml version="1.0" encoding="utf-8" ?>
<svg baseProfile="full" height="72.81668782234192" version="1.1" width="100.0" xmlns="http://www.w3.org/2000/svg" xmlns:ev="http://www.w3.org/2001/xml-events" xmlns:xlink="http://www.w3.org/1999/xlink"><defs><clipPath /></defs><polygon points="32.06961750984192,56.82199001312256 32.06961750984192,56.82199001312256 29.69447672367096,56.82199001312256 29.69447672367096,56.82199001312256 24.09668117761612,56.82199001312256 24.09668117761612,56.82199001312256 15.26576578617096,56.82199001312256 15.26576578617096,56.82199001312256 14.45465087890625,56.715285778045654 14.45465087890625,56.715285778045654 13.72571736574173,56.40785098075867 13.72571736574173,56.40785098075867 13.10817301273346,55.92913031578064 13.10817301273346,55.92913031578064 12.63079047203064,55.30857443809509 12.63079047203064,55.30857443809509 12.323107570409775,54.57563400268555 12.323107570409775,54.57563400268555 12.2140072286129,53.759765625 12.2140072286129,53.759765625 12.242235988378525,53.34877371788025 12.242235988378525,53.34877371788025 12.324633449316025,52.95513868331909 12.324633449316025,52.95513868331909 12.45684027671814,52.58222818374634 12.45684027671814,52.58222818374634 12.634605169296265,52.233439683914185 12.634605169296265,52.233439683914185 12.853895127773285,51.912158727645874 12.853895127773285,51.912158727645874 13.1103515625,51.62179470062256 13.1103515625,51.62179470062256 13.40441107749939,51.36232376098633 13.40441107749939,51.36232376098633 13.729532063007355,51.14113092422485 13.729532063007355,51.14113092422485 14.08211886882782,50.9621798992157 14.08211886882782,50.9621798992157 14.45813924074173,50.82942843437195 14.45813924074173,50.82942843437195 14.85399603843689,50.74686408042908 14.85399603843689,50.74686408042908 15.26576578617096,50.71847438812256 15.26576578617096,50.71847438812256 24.06529188156128,50.71847438812256 24.06529188156128,50.71847438812256 29.65959906578064,50.71847438812256 29.65959906578064,50.71847438812256 32.00334906578064,50.71847438812256 32.00334906578064,50.71847438812256 32.042694091796875,50.45022964477539 32.042694091796875,50.45022964477539 32.08727240562439,50.18278360366821 32.08727240562439,50.18278360366821 32.13675618171692,49.91629719734192 32.13675618171692,49.91629719734192 32.190051674842834,49.650970101356506 32.190051674842834,49.650970101356506 32.24705457687378,49.38700795173645 32.24705457687378,49.38700795173645 32.30678141117096,49.1245836019516 32.30678141117096,49.1245836019516 32.431575655937195,48.66436719894409 32.431575655937195,48.66436719894409 32.56552815437317,48.20859432220459 32.56552815437317,48.20859432220459 32.70961344242096,47.75826930999756 32.70961344242096,47.75826930999756 32.864055037498474,47.314319014549255 32.864055037498474,47.314319014549255 33.029502630233765,46.87775373458862 33.029502630233765,46.87775373458862 33.2066148519516,46.44950032234192 33.2066148519516,46.44950032234192 33.38579535484314,46.04159891605377 33.38579535484314,46.04159891605377 33.57456922531128,45.63814103603363 33.57456922531128,45.63814103603363 33.77293348312378,45.24013102054596 33.77293348312378,45.24013102054596 33.980125188827515,44.848498702049255 33.980125188827515,44.848498702049255 34.19603705406189,44.46424841880798 34.19603705406189,44.46424841880798 34.42034125328064,44.08831000328064 34.42034125328064,44.08831000328064 27.20424234867096,36.87569797039032 27.20424234867096,36.87569797039032 21.79827094078064,31.47670328617096 21.79827094078064,31.47670328617096 13.48005086183548,23.14453274011612 13.48005086183548,23.14453274011612 13.105884194374084,22.716495394706726 13.105884194374084,22.716495394706726 12.799835205078125,22.255803644657135 12.799835205078125,22.255803644657135 12.56190836429596,21.76818996667862 12.56190836429596,21.76818996667862 12.39188089966774,21.259349584579468 12.39188089966774,21.259349584579468 12.28986531496048,20.73501944541931 12.28986531496048,20.73501944541931 12.25586012005806,20.20089328289032 12.25586012005806,20.20089328289032 12.289756536483765,19.664962589740753 12.289756536483765,19.664962589740753 12.391772121191025,19.136102497577667 12.391772121191025,19.136102497577667 12.56190836429596,18.62139105796814 12.56190836429596,18.62139105796814 12.79994547367096,18.127891421318054 12.79994547367096,18.127891421318054 13.1059929728508,17.662689089775085 13.1059929728508,17.662689089775085 13.48005086183548,17.23284125328064 13.48005086183548,17.23284125328064 14.371272921562195,16.56145453453064 14.371272921562195,16.56145453453064 15.37519246339798,16.15862250328064 15.37519246339798,16.15862250328064 16.4354607462883,16.02434515953064 16.4354607462883,16.02434515953064 17.49529242515564,16.15862250328064 17.49529242515564,16.15862250328064 18.4984490275383,16.56145453453064 18.4984490275383,16.56145453453064 19.38825398683548,17.23284125328064 19.38825398683548,17.23284125328064 27.67857313156128,25.52315890789032 27.67857313156128,25.52315890789032 33.07756781578064,30.93959391117096 33.07756781578064,30.93959391117096 40.26925265789032,38.1382554769516 40.26925265789032,38.1382554769516 40.648216009140015,37.90963292121887 40.648216009140015,37.90963292121887 41.031429171562195,37.68806755542755 41.031429171562195,37.68806755542755 41.4188951253891,37.47428059577942 41.4188951253891,37.47428059577942 41.80995523929596,37.26891279220581 41.80995523929596,37.26891279220581 42.20472276210785,37.072646617889404 42.20472276210785,37.072646617889404 42.60254204273224,36.88616156578064 42.60254204273224,36.88616156578064 43.03153157234192,36.704814434051514 43.03153157234192,36.704814434051514 43.464335799217224,36.53170168399811 43.464335799217224,36.53170168399811 43.90171766281128,36.36867105960846 43.90171766281128,36.36867105960846 44.34356987476349,36.21755540370941 44.34356987476349,36.21755540370941 44.79043483734131,36.080190539360046 44.79043483734131,36.080190539360046 45.2427476644516,35.95842719078064 45.2427476644516,35.95842719078064 45.526450872421265,35.88115870952606 45.526450872421265,35.88115870952606 45.80972194671631,35.8123242855072 45.80972194671631,35.8123242855072 46.09331488609314,35.75047254562378 46.09331488609314,35.75047254562378 46.377673745155334,35.69413721561432 46.377673745155334,35.69413721561432 46.663668751716614,35.64186990261078 46.663668751716614,35.64186990261078 46.9517320394516,35.59221625328064 46.9517320394516,35.59221625328064 46.9517320394516,33.23800265789032 46.9517320394516,33.23800265789032 46.9517320394516,27.65067219734192 46.9517320394516,27.65067219734192 46.9517320394516,19.0325066447258 46.9517320394516,19.0325066447258 46.979308128356934,18.62066239118576 46.979308128356934,18.62066239118576 47.05985188484192,18.22219043970108 47.05985188484192,18.22219043970108 47.19020426273346,17.8423210978508 47.19020426273346,17.8423210978508 47.36655354499817,17.4862802028656 47.36655354499817,17.4862802028656 47.585952281951904,17.159312963485718 47.585952281951904,17.159312963485718 47.84458875656128,16.86663031578064 47.84458875656128,16.86663031578064 48.14060926437378,16.610704362392426 48.14060926437378,16.610704362392426 48.465514183044434,16.395658254623413 48.465514183044434,16.395658254623413 48.81722927093506,16.22401773929596 48.81722927093506,16.22401773929596 49.19281303882599,16.098295152187347 49.19281303882599,16.098295152187347 49.59041178226471,16.021020710468292 49.59041178226471,16.021020710468292 50.0069797039032,15.99469929933548 50.0069797039032,15.99469929933548 50.82027316093445,16.103219985961914 50.82027316093445,16.103219985961914 51.549750566482544,16.409479081630707 51.549750566482544,16.409479081630707 52.16718912124634,16.88450425863266 52.16718912124634,16.88450425863266 52.643370628356934,17.49933212995529 52.643370628356934,17.49933212995529 52.95017957687378,18.224988877773285 52.95017957687378,18.224988877773285 53.0587375164032,19.0325066447258 53.0587375164032,19.0325066447258 53.0587375164032,27.60533094406128 53.0587375164032,27.60533094406128 53.0587375164032,33.21358859539032 53.0587375164032,33.21358859539032 53.0587375164032,35.59221625328064 53.0587375164032,35.59221625328064 53.34734320640564,35.6418639421463 53.34734320640564,35.6418639421463 53.634101152420044,35.69413721561432 53.634101152420044,35.69413721561432 53.9193332195282,35.75047254562378 53.9193332195282,35.75047254562378 54.202598333358765,35.81233322620392 54.202598333358765,35.81233322620392 54.48434352874756,35.88116765022278 54.48434352874756,35.88116765022278 54.76423501968384,35.95842719078064 54.76423501968384,35.95842719078064 55.215781927108765,36.08018457889557 55.215781927108765,36.08018457889557 55.66319227218628,36.217549443244934 55.66319227218628,36.217549443244934 56.10613226890564,36.36867105960846 56.10613226890564,36.36867105960846 56.54362440109253,36.531707644462585 56.54362440109253,36.531707644462585 56.975555419921875,36.704814434051514 56.975555419921875,36.704814434051514 57.40095376968384,36.88616156578064 57.40095376968384,36.88616156578064 57.80454874038696,37.07263171672821 57.80454874038696,37.07263171672821 58.20291042327881,37.26891279220581 58.20291042327881,37.26891279220581 58.59636664390564,37.47428059577942 58.59636664390564,37.47428059577942 58.984375,37.688079476356506 58.984375,37.688079476356506 59.36715602874756,37.90963292121887 59.36715602874756,37.90963292121887 59.74470376968384,38.1382554769516 59.74470376968384,38.1382554769516 66.93638563156128,30.94657063484192 66.93638563156128,30.94657063484192 72.33538031578064,25.52315890789032 72.33538031578064,25.52315890789032 80.62918782234192,17.23981648683548 80.62918782234192,17.23981648683548 81.51866793632507,16.56552106142044 81.51866793632507,16.56552106142044 82.52084255218506,16.16094559431076 82.52084255218506,16.16094559431076 83.57980251312256,16.02608859539032 83.57980251312256,16.02608859539032 84.6384346485138,16.16094559431076 84.6384346485138,16.16094559431076 85.64093708992004,16.565528512001038 85.64093708992004,16.565528512001038 86.5304172039032,17.23981648683548 86.5304172039032,17.23981648683548 86.9058907032013,17.66672283411026 86.9058907032013,17.66672283411026 87.21292018890381,18.129955232143402 87.21292018890381,18.129955232143402 87.45161294937134,18.62226277589798 87.45161294937134,18.62226277589798 87.6219630241394,19.13636177778244 87.6219630241394,19.13636177778244 87.72408962249756,19.6649968624115 87.72408962249756,19.6649968624115 87.75809407234192,20.20089328289032 87.75809407234192,20.20089328289032 87.72398233413696,20.734985172748566 87.72398233413696,20.734985172748566 87.62185573577881,21.259090304374695 87.62185573577881,21.259090304374695 87.45161294937134,21.76731824874878 87.45161294937134,21.76731824874878 87.2130274772644,22.253745794296265 87.2130274772644,22.253745794296265 86.90600395202637,22.71246314048767 86.90600395202637,22.71246314048767 86.5304172039032,23.13755750656128 86.5304172039032,23.13755750656128 78.20870876312256,31.47670328617096 78.20870876312256,31.47670328617096 72.79924750328064,36.87569797039032 72.79924750328064,36.87569797039032 65.59012532234192,44.08831000328064 65.59012532234192,44.08831000328064 65.81671833992004,44.46423649787903 65.81671833992004,44.46423649787903 66.03361368179321,44.848498702049255 66.03361368179321,44.848498702049255 66.24101996421814,45.24013102054596 66.24101996421814,45.24013102054596 66.43938422203064,45.638155937194824 66.43938422203064,45.638155937194824 66.62914156913757,46.04159891605377 66.62914156913757,46.04159891605377 66.81082844734192,46.44950032234192 66.81082844734192,46.44950032234192 66.98739528656006,46.87774181365967 66.98739528656006,46.87774181365967 67.15120673179626,47.314319014549255 67.15120673179626,47.314319014549255 67.30347275733948,47.75826930999756 67.30347275733948,47.75826930999756 67.4446165561676,48.208606243133545 67.4446165561676,48.208606243133545 67.57551431655884,48.66436719894409 67.57551431655884,48.66436719894409 67.69670844078064,49.1245836019516 67.69670844078064,49.1245836019516 67.75720119476318,49.38700795173645 67.75720119476318,49.38700795173645 67.81376600265503,49.65095818042755 67.81376600265503,49.65095818042755 67.86717176437378,49.91629719734192 67.86717176437378,49.91629719734192 67.9177463054657,50.18278360366821 67.9177463054657,50.18278360366821 67.9666817188263,50.45024752616882 67.9666817188263,50.45024752616882 68.01409125328064,50.71847438812256 68.01409125328064,50.71847438812256 70.5636203289032,50.71847438812256 70.5636203289032,50.71847438812256 76.15792751312256,50.71847438812256 76.15792751312256,50.71847438812256 84.73772406578064,50.71847438812256 84.73772406578064,50.71847438812256 85.54872870445251,50.82749128341675 85.54872870445251,50.82749128341675 86.27744913101196,51.13493204116821 86.27744913101196,51.13493204116821 86.89532279968262,51.611328125 86.89532279968262,51.611328125 87.3725950717926,52.227240800857544 87.3725950717926,52.227240800857544 87.68049478530884,52.95320749282837 87.68049478530884,52.95320749282837 87.78948783874512,53.759765625 87.78948783874512,53.759765625 87.76202201843262,54.18007969856262 87.76202201843262,54.18007969856262 87.68202066421509,54.580920934677124 87.68202066421509,54.580920934677124 87.5527560710907,54.9591064453125 87.5527560710907,54.9591064453125 87.37717270851135,55.311423540115356 87.37717270851135,55.311423540115356 87.15864419937134,55.63466548919678 87.15864419937134,55.63466548919678 86.90011501312256,55.92564344406128 86.90011501312256,55.92564344406128 86.60736680030823,56.183379888534546 86.60736680030823,56.183379888534546 86.28268241882324,56.40294551849365 86.28268241882324,56.40294551849365 85.93009114265442,56.5804660320282 85.93009114265442,56.5804660320282 85.55254340171814,56.71205520629883 85.55254340171814,56.71205520629883 85.1539671421051,56.79386854171753 85.1539671421051,56.79386854171753 84.73772406578064,56.82199001312256 84.73772406578064,56.82199001312256 76.14048719406128,56.82199001312256 76.14048719406128,56.82199001312256 70.5392062664032,56.82199001312256 70.5392062664032,56.82199001312256 67.94434189796448,56.82199001312256 67.94434189796448,56.82199001312256" stroke="white" stroke-width="0.1" /><polygon points="23.90485554933548,40.17159640789032 23.90485554933548,40.17159640789032 28.74930500984192,45.00907063484192 28.74930500984192,45.00907063484192 28.67911458015442,45.18318474292755 28.67911458015442,45.18318474292755 28.611648082733154,45.35694420337677 28.611648082733154,45.35694420337677 28.5465806722641,45.53048610687256 28.5465806722641,45.53048610687256 28.48336398601532,45.70402503013611 28.48336398601532,45.70402503013611 28.42211127281189,45.87777256965637 28.42211127281189,45.87777256965637 28.36216688156128,46.05189859867096 28.36216688156128,46.05189859867096 25.09068250656128,46.0484117269516 25.09068250656128,46.0484117269516 24.71923977136612,45.02781629562378 24.71923977136612,45.02781629562378 24.39270168542862,43.99645924568176 24.39270168542862,43.99645924568176 24.11019504070282,42.95523762702942 24.11019504070282,42.95523762702942 23.87019693851471,41.90499484539032 23.87019693851471,41.90499484539032 23.671941459178925,40.84662199020386 23.671941459178925,40.84662199020386 23.51423054933548,39.78097140789032 23.51423054933548,39.78097140789032" stroke="white" stroke-width="0.1" /><polygon points="68.89649033546448,17.50837117433548 68.89649033546448,17.50837117433548 69.30269598960876,17.92440563440323 69.30269598960876,17.92440563440323 69.69517469406128,18.348783254623413 69.69517469406128,18.348783254623413 70.0753390789032,18.78051906824112 70.0753390789032,18.78051906824112 70.44373154640198,19.218650460243225 70.44373154640198,19.218650460243225 70.8015501499176,19.662204384803772 70.8015501499176,19.662204384803772 71.1495578289032,20.11021226644516 71.1495578289032,20.11021226644516 69.03948187828064,22.22726047039032 69.03948187828064,22.22726047039032 66.46903157234192,24.79771375656128 66.46903157234192,24.79771375656128 66.1356270313263,24.339301884174347 66.1356270313263,24.339301884174347 65.79045057296753,23.885734379291534 65.79045057296753,23.885734379291534 65.43230414390564,23.43837320804596 65.43230414390564,23.43837320804596 65.05944728851318,22.998565435409546 65.05944728851318,22.998565435409546 64.6707832813263,22.567668557167053 64.6707832813263,22.567668557167053 64.2647922039032,22.14704304933548 64.2647922039032,22.14704304933548 63.7298583984375,21.447885036468506 63.7298583984375,21.447885036468506 63.40898871421814,20.659978687763214 63.40898871421814,20.659978687763214 63.30217719078064,19.82770711183548 63.30217719078064,19.82770711183548 63.40910196304321,18.995435535907745 63.40910196304321,18.995435535907745 63.73007893562317,18.207530677318573 63.73007893562317,18.207530677318573 64.2647922039032,17.50837117433548 64.2647922039032,17.50837117433548 64.96211886405945,16.9735848903656 64.96211886405945,16.9735848903656 65.74838161468506,16.65271371603012 65.74838161468506,16.65271371603012 66.57932996749878,16.54575914144516 66.57932996749878,16.54575914144516 67.41039156913757,16.65271371603012 67.41039156913757,16.65271371603012 68.19763779640198,16.973592340946198 68.19763779640198,16.973592340946198" stroke="white" stroke-width="0.1" /><polygon points="71.65178656578064,46.0484117269516 71.65178656578064,46.0484117269516 71.59010171890259,45.87450325489044 71.59010171890259,45.87450325489044 71.52721285820007,45.70119380950928 71.52721285820007,45.70119380950928 71.46301865577698,45.52786946296692 71.46301865577698,45.52786946296692 71.39729261398315,45.35397291183472 71.39729261398315,45.35397291183472 71.33004665374756,45.17890512943268 71.33004665374756,45.17890512943268 71.26116156578064,45.00209391117096 71.26116156578064,45.00209391117096 76.09863877296448,40.17159640789032 76.09863877296448,40.17159640789032 76.48926377296448,39.77748453617096 76.48926377296448,39.77748453617096 76.33394598960876,40.84218144416809 76.33394598960876,40.84218144416809 76.1361300945282,41.90085530281067 76.1361300945282,41.90085530281067 75.89591145515442,42.95218586921692 75.89591145515442,42.95218586921692 75.61209797859192,43.99479627609253 75.61209797859192,43.99479627609253 75.2846896648407,45.02732753753662 75.2846896648407,45.02732753753662 74.91281032562256,46.0484117269516 74.91281032562256,46.0484117269516" stroke="white" stroke-width="0.1" /><polygon points="18.2024285197258,34.46916937828064 18.2024285197258,34.46916937828064 18.18346381187439,34.79003310203552 18.18346381187439,34.79003310203552 18.163301050662994,35.1109117269516 18.163301050662994,35.1109117269516 18.14400851726532,35.43178141117096 18.14400851726532,35.43178141117096 18.12744289636612,35.75265109539032 18.12744289636612,35.75265109539032 18.11610758304596,36.07352375984192 18.11610758304596,36.07352375984192 18.11174750328064,36.39439344406128 18.11174750328064,36.39439344406128 18.15468966960907,38.0252867937088 18.15468966960907,38.0252867937088 18.283191323280334,39.65153098106384 18.283191323280334,39.65153098106384 18.49583238363266,41.27022922039032 18.49583238363266,41.27022922039032 18.79120022058487,42.87845194339752 18.79120022058487,42.87845194339752 19.168201088905334,44.47332322597504 19.168201088905334,44.47332322597504 19.62541937828064,46.05189859867096 19.62541937828064,46.05189859867096 15.26576578617096,46.05189859867096 15.26576578617096,46.05189859867096 14.854104816913605,46.065688133239746 14.854104816913605,46.065688133239746 14.44942057132721,46.10525071620941 14.44942057132721,46.10525071620941 14.05160129070282,46.16786539554596 14.05160129070282,46.16786539554596 13.66032212972641,46.2508350610733 13.66032212972641,46.2508350610733 13.27580064535141,46.35143578052521 13.27580064535141,46.35143578052521 12.89760172367096,46.46693766117096 12.89760172367096,46.46693766117096 12.487466633319855,44.81159150600433 12.487466633319855,44.81159150600433 12.15079203248024,43.14326047897339 12.15079203248024,43.14326047897339 11.88834086060524,41.4646714925766 11.88834086060524,41.4646714925766 11.700330674648285,39.77852165699005 11.700330674648285,39.77852165699005 11.587852239608765,38.08752000331879 11.587852239608765,38.08752000331879 11.55133992433548,36.39439344406128 11.55133992433548,36.39439344406128 11.57270222902298,35.090434551239014 11.57270222902298,35.090434551239014 11.639732122421265,33.78802835941315 11.639732122421265,33.78802835941315 11.75188422203064,32.48814344406128 11.75188422203064,32.48814344406128 11.90817728638649,31.191745400428772 11.90817728638649,31.191745400428772 12.10784986615181,29.899802803993225 12.10784986615181,29.899802803993225 12.35002875328064,28.61328125 12.35002875328064,28.61328125" stroke="white" stroke-width="0.1" /><polygon points="80.29785752296448,46.0484117269516 80.29785752296448,46.0484117269516 80.75321912765503,44.471293687820435 80.75321912765503,44.471293687820435 81.12847805023193,42.87741780281067 81.12847805023193,42.87741780281067 81.42264485359192,41.26979410648346 81.42264485359192,41.26979410648346 81.63397908210754,39.65140879154205 81.63397908210754,39.65140879154205 81.76171779632568,38.02527189254761 81.76171779632568,38.02527189254761 81.80454969406128,36.39439344406128 81.80454969406128,36.39439344406128 81.80062770843506,36.089202761650085 81.80062770843506,36.089202761650085 81.79038166999817,35.783904790878296 81.79038166999817,35.783904790878296 81.7757785320282,35.47843098640442 81.7757785320282,35.47843098640442 81.75801038742065,35.172656178474426 81.75801038742065,35.172656178474426 81.7391574382782,34.86649692058563 81.7391574382782,34.86649692058563 81.7208468914032,34.55985188484192 81.7208468914032,34.55985188484192 87.58370876312256,28.69350016117096 87.58370876312256,28.69350016117096 87.82098293304443,29.966560006141663 87.82098293304443,29.966560006141663 88.01640272140503,31.24573826789856 88.01640272140503,31.24573826789856 88.16964626312256,32.52955973148346 88.16964626312256,32.52955973148346 88.27973008155823,33.81657898426056 88.27973008155823,33.81657898426056 88.3462131023407,35.10534465312958 88.3462131023407,35.10534465312958 88.36844563484192,36.39439344406128 88.36844563484192,36.39439344406128 88.33051919937134,38.08206915855408 88.33051919937134,38.08206915855408 88.2170557975769,39.7674024105072 88.2170557975769,39.7674024105072 88.02926540374756,41.44810438156128 88.02926540374756,41.44810438156128 87.76746988296509,43.1218296289444 87.76746988296509,43.1218296289444 87.43286728858948,44.78623867034912 87.43286728858948,44.78623867034912 87.02567219734192,46.4390367269516 87.02567219734192,46.4390367269516 86.65957450866699,46.331626176834106 86.65957450866699,46.331626176834106 86.28747463226318,46.23776972293854 86.28747463226318,46.23776972293854 85.90916395187378,46.16001844406128 85.90916395187378,46.16001844406128 85.52464246749878,46.10086381435394 85.52464246749878,46.10086381435394 85.13423800468445,46.06282711029053 85.13423800468445,46.06282711029053 84.73772406578064,46.0484117269516 84.73772406578064,46.0484117269516" stroke="white" stroke-width="0.1" /><polygon points="72.46443033218384,13.86370062828064 72.46443033218384,13.86370062828064 71.93254828453064,13.163314759731293 71.93254828453064,13.163314759731293 71.61320447921753,12.374959886074066 71.61320447921753,12.374959886074066 71.50704860687256,11.5426205098629 71.50704860687256,11.5426205098629 71.6134250164032,10.710280388593674 71.6134250164032,10.710280388593674 71.93254828453064,9.921925514936447 71.93254828453064,9.921925514936447 72.46443033218384,9.22154039144516 72.46443033218384,9.22154039144516 73.16349744796753,8.68675410747528 73.16349744796753,8.68675410747528 73.95139932632446,8.36588367819786 73.95139932632446,8.36588367819786 74.78376626968384,8.2589291036129 74.78376626968384,8.2589291036129 75.61601996421814,8.36588367819786 75.61601996421814,8.36588367819786 76.40402913093567,8.68675410747528 76.40402913093567,8.68675410747528 77.10310220718384,9.22154039144516 77.10310220718384,9.22154039144516 77.58091688156128,9.708009660243988 77.58091688156128,9.708009660243988 78.04827094078064,10.201073437929153 78.04827094078064,10.201073437929153 78.50559949874878,10.7003353536129 78.50559949874878,10.7003353536129 78.95257472991943,11.205407977104187 78.95257472991943,11.205407977104187 79.38951849937439,11.715909838676453 79.38951849937439,11.715909838676453 79.8165500164032,12.23144605755806 79.8165500164032,12.23144605755806 79.3741524219513,12.44995966553688 79.3741524219513,12.44995966553688 78.94145846366882,12.69143670797348 78.94145846366882,12.69143670797348 78.52042317390442,12.95732855796814 78.52042317390442,12.95732855796814 78.11301350593567,13.24908435344696 78.11301350593567,13.24908435344696 77.72129774093628,13.568170368671417 77.72129774093628,13.568170368671417 77.34724283218384,13.916015625 77.34724283218384,13.916015625 74.79074001312256,16.4690300822258 74.79074001312256,16.4690300822258 74.42583441734314,16.0226970911026 74.42583441734314,16.0226970911026 74.05264973640442,15.580430626869202 74.05264973640442,15.580430626869202 73.67074489593506,15.142822265625 73.67074489593506,15.142822265625 73.27913641929626,14.7104412317276 73.27913641929626,14.7104412317276 72.87728786468506,14.283876121044159 72.87728786468506,14.283876121044159 72.46443033218384,13.86370062828064 72.46443033218384,13.86370062828064 72.46431708335876,13.86370062828064 72.46431708335876,13.86370062828064 72.46420979499817,13.86370062828064 72.46420979499817,13.86370062828064 72.46443033218384,13.86370062828064 72.46443033218384,13.86370062828064 72.46443033218384,13.86370062828064 72.46443033218384,13.86370062828064 72.46443033218384,13.86370062828064 72.46443033218384,13.86370062828064" stroke="white" stroke-width="0.1" /><polygon points="76.14048719406128,61.4815890789032 76.14048719406128,61.4815890789032 79.04576063156128,61.4815890789032 79.04576063156128,61.4815890789032 78.73350381851196,61.841338872909546 78.73350381851196,61.841338872909546 78.41721177101135,62.19850778579712 78.41721177101135,62.19850778579712 78.09666395187378,62.5527560710907 78.09666395187378,62.5527560710907 77.77100205421448,62.90380358695984 77.77100205421448,62.90380358695984 77.44010090827942,63.25136423110962 77.44010090827942,63.25136423110962 77.10310220718384,63.59514594078064 77.10310220718384,63.59514594078064 76.76762342453003,63.88901472091675 76.76762342453003,63.88901472091675 76.40402913093567,64.12901282310486 76.40402913093567,64.12901282310486 76.01798176765442,64.31536078453064 76.01798176765442,64.31536078453064 75.61525702476501,64.44822549819946 75.61525702476501,64.44822549819946 75.20185708999634,64.52779769897461 75.20185708999634,64.52779769897461 74.78376626968384,64.55427408218384 74.78376626968384,64.55427408218384 74.36458468437195,64.52778577804565 74.36458468437195,64.52778577804565 73.95128607749939,64.44820761680603 73.95128607749939,64.44820761680603 73.54954481124878,64.31536078453064 73.54954481124878,64.31536078453064 73.16415309906006,64.12903070449829 73.16415309906006,64.12903070449829 72.80077338218689,63.8890266418457 72.80077338218689,63.8890266418457 72.46443033218384,63.59514594078064 72.46443033218384,63.59514594078064 72.19456434249878,63.28866481781006 72.19456434249878,63.28866481781006 71.97069525718689,62.95803785324097 71.97069525718689,62.95803785324097 71.79216742515564,62.6076877117157 71.79216742515564,62.6076877117157 71.65833115577698,62.24191188812256 71.65833115577698,62.24191188812256 71.56873941421509,61.865103244781494 71.56873941421509,61.865103244781494 71.52274250984192,61.4815890789032 71.52274250984192,61.4815890789032" stroke="white" stroke-width="0.1" /><polygon points="24.09668117761612,61.48856282234192 24.09668117761612,61.48856282234192 28.3935546875,61.48856282234192 28.3935546875,61.48856282234192 28.3477783203125,61.86913251876831 28.3477783203125,61.86913251876831 28.258734941482544,62.24396824836731 28.258734941482544,62.24396824836731 28.12587320804596,62.60855793952942 28.12587320804596,62.60855793952942 27.948108315467834,62.958312034606934 27.948108315467834,62.958312034606934 27.72500216960907,63.2887065410614 27.72500216960907,63.2887065410614 27.45535969734192,63.59514594078064 27.45535969734192,63.59514594078064 27.11901068687439,63.88901472091675 27.11901068687439,63.88901472091675 26.755306124687195,64.12901282310486 26.755306124687195,64.12901282310486 26.36980414390564,64.31536078453064 26.36980414390564,64.31536078453064 25.96718966960907,64.44822549819946 25.96718966960907,64.44822549819946 25.553131103515625,64.52779769897461 25.553131103515625,64.52779769897461 25.13253390789032,64.55427408218384 25.13253390789032,64.55427408218384 24.71509724855423,64.52778577804565 24.71509724855423,64.52778577804565 24.30310994386673,64.44820761680603 24.30310994386673,64.44820761680603 23.90224039554596,64.31536078453064 23.90224039554596,64.31536078453064 23.51684719324112,64.12903070449829 23.51684719324112,64.12903070449829 23.15216213464737,63.8890266418457 23.15216213464737,63.8890266418457 22.81319797039032,63.59514594078064 22.81319797039032,63.59514594078064 22.475215792655945,63.25138807296753 22.475215792655945,63.25138807296753 22.144319117069244,62.90404796600342 22.144319117069244,62.90404796600342 21.81963324546814,62.55362629890442 21.81963324546814,62.55362629890442 21.49963527917862,62.200576066970825 21.49963527917862,62.200576066970825 21.18377834558487,61.84539794921875 21.18377834558487,61.84539794921875 20.87053656578064,61.48856282234192 20.87053656578064,61.48856282234192" stroke="white" stroke-width="0.1" /><polygon points="100.0,36.37346625328064 100.0,36.37346625328064 99.59226846694946,42.774203419685364 99.59226846694946,42.774203419685364 98.36949110031128,49.094611406326294 98.36949110031128,49.094611406326294 96.33091688156128,55.24858832359314 96.33091688156128,55.24858832359314 93.4761106967926,61.149996519088745 93.4761106967926,61.149996519088745 89.8049533367157,66.71270728111267 89.8049533367157,66.71270728111267 85.31668782234192,71.85059189796448 85.31668782234192,71.85059189796448 84.9801242351532,72.14497327804565 84.9801242351532,72.14497327804565 84.61609482765198,72.38627076148987 84.61609482765198,72.38627076148987 84.23026204109192,72.57429361343384 84.23026204109192,72.57429361343384 83.82808566093445,72.70881533622742 83.82808566093445,72.70881533622742 83.41522812843323,72.78969883918762 83.41522812843323,72.78969883918762 82.99735188484192,72.81668782234192 82.99735188484192,72.81668782234192 82.57664442062378,72.78968691825867 82.57664442062378,72.78968691825867 82.16269612312317,72.70881533622742 82.16269612312317,72.70881533622742 81.7605197429657,72.57429361343384 81.7605197429657,72.57429361343384 81.37534260749817,72.38628268241882 81.37534260749817,72.38628268241882 81.0128390789032,72.14497327804565 81.0128390789032,72.14497327804565 80.67801594734192,71.85059189796448 80.67801594734192,71.85059189796448 80.1430881023407,71.15309834480286 80.1430881023407,71.15309834480286 79.82221841812134,70.36649584770203 79.82221841812134,70.36649584770203 79.71540689468384,69.53474283218384 79.71540689468384,69.53474283218384 79.82232570648193,68.70182752609253 79.82232570648193,68.70182752609253 80.14330267906189,67.91172623634338 80.14330267906189,67.91172623634338 80.67801594734192,67.20842719078064 80.67801594734192,67.20842719078064 81.56084418296814,66.30125045776367 81.56084418296814,66.30125045776367 82.40988850593567,65.37335515022278 82.40988850593567,65.37335515022278 83.22666883468628,64.42610025405884 83.22666883468628,64.42610025405884 84.01119112968445,63.46080303192139 84.01119112968445,63.46080303192139 84.76475477218628,62.47885823249817 84.76475477218628,62.47885823249817 85.48758625984192,61.4815890789032 85.48758625984192,61.4815890789032 90.24484157562256,61.4815890789032 90.24484157562256,61.4815890789032 89.91001844406128,59.4970703125 89.91001844406128,59.4970703125 89.95873928070068,59.452223777770996 89.95873928070068,59.452223777770996 90.00723958015442,59.4079315662384 90.00723958015442,59.4079315662384 90.05563259124756,59.3636691570282 90.05563259124756,59.3636691570282 90.10326266288757,59.31881666183472 90.10326266288757,59.31881666183472 90.15023708343506,59.27279591560364 90.15023708343506,59.27279591560364 90.19601345062256,59.22502875328064 90.19601345062256,59.22502875328064 90.8515989780426,58.48522186279297 90.8515989780426,58.48522186279297 91.40734672546387,57.65697360038757 91.40734672546387,57.65697360038757 91.85442924499512,56.75528645515442 91.85442924499512,56.75528645515442 92.18401908874512,55.795180797576904 92.18401908874512,55.795180797576904 92.38761067390442,54.79167103767395 92.38761067390442,54.79167103767395 92.45606064796448,53.759765625 92.45606064796448,53.759765625 92.41802096366882,53.04219722747803 92.41802096366882,53.04219722747803 92.31415390968323,52.345168590545654 92.31415390968323,52.345168590545654 92.1487033367157,51.67062282562256 92.1487033367157,51.67062282562256 91.9259250164032,51.02049112319946 91.9259250164032,51.02049112319946 91.65039658546448,50.39670467376709 91.65039658546448,50.39670467376709 91.32603406906128,49.80120062828064 91.32603406906128,49.80120062828064 91.96788668632507,47.60788679122925 91.96788668632507,47.60788679122925 92.49453544616699,45.390647649765015 92.49453544616699,45.390647649765015 92.9055392742157,43.15403699874878 92.9055392742157,43.15403699874878 93.19981336593628,40.902602672576904 93.19981336593628,40.902602672576904 93.37703585624695,38.64089548587799 93.37703585624695,38.64089548587799 93.43611001968384,36.37346625328064 93.43611001968384,36.37346625328064 93.3847725391388,34.26259160041809 93.3847725391388,34.26259160041809 93.23164224624634,32.15615451335907 93.23164224624634,32.15615451335907 92.97659993171692,30.05807101726532 92.97659993171692,30.05807101726532 92.61976480484009,27.972182631492615 92.61976480484009,27.972182631492615 92.16134548187256,25.902381539344788 92.16134548187256,25.902381539344788 91.60156846046448,23.85254055261612 91.60156846046448,23.85254055261612 91.84701442718506,23.262304067611694 91.84701442718506,23.262304067611694 92.05203056335449,22.661414742469788 92.05203056335449,22.661414742469788 92.21453666687012,22.05200344324112 92.21453666687012,22.05200344324112 92.33224391937256,21.436195075511932 92.33224391937256,21.436195075511932 92.40298271179199,20.816121995449066 92.40298271179199,20.816121995449066 92.42466688156128,20.19391804933548 92.42466688156128,20.19391804933548 92.35469698905945,19.069673120975494 92.35469698905945,19.069673120975494 92.13824272155762,17.954541742801666 92.13824272155762,17.954541742801666 91.7763888835907,16.8657585978508 91.7763888835907,16.8657585978508 91.26925468444824,15.820571780204773 91.26925468444824,15.820571780204773 90.61802625656128,14.836230874061584 90.61802625656128,14.836230874061584 89.82282876968384,13.9299675822258 89.82282876968384,13.9299675822258 89.2129123210907,13.381488621234894 89.2129123210907,13.381488621234894 88.5660469532013,12.903152406215668 88.5660469532013,12.903152406215668 87.88757920265198,12.49302476644516 87.88757920265198,12.49302476644516 87.18240261077881,12.149157375097275 87.18240261077881,12.149157375097275 86.45630478858948,11.869628727436066 86.45630478858948,11.869628727436066 85.71429252624512,11.6524837911129 85.71429252624512,11.6524837911129 84.96126532554626,10.598251223564148 84.96126532554626,10.598251223564148 84.1744601726532,9.560490399599075 84.1744601726532,9.560490399599075 83.35310220718384,8.54056254029274 83.35310220718384,8.54056254029274 82.49675631523132,7.539810985326767 82.49675631523132,7.539810985326767 81.60531520843506,6.559603661298752 81.60531520843506,6.559603661298752 80.67801594734192,5.60128390789032 80.67801594734192,5.60128390789032 80.67801594734192,5.60825914144516 80.67801594734192,5.60825914144516 80.1430881023407,4.904931038618088 80.1430881023407,4.904931038618088 79.82221841812134,4.114607721567154 79.82221841812134,4.114607721567154 79.71540689468384,3.28107587993145 79.71540689468384,3.28107587993145 79.82232570648193,2.448122948408127 79.82232570648193,2.448122948408127 80.14330267906189,1.659543253481388 80.14330267906189,1.659543253481388 80.67801594734192,0.9591239504516125 80.67801594734192,0.9591239504516125 81.37676119804382,0.42724609375 81.37676119804382,0.42724609375 82.16389417648315,0.10811942629516125 82.16389417648315,0.10811942629516125 82.99517035484314,0.0017438616850995459 82.99517035484314,0.0017438616850995459 83.82601141929626,0.10811942629516125 83.82601141929626,0.10811942629516125 84.61238741874695,0.42724609375 84.61238741874695,0.42724609375 85.3097140789032,0.9591239504516125 85.3097140789032,0.9591239504516125 89.79231119155884,6.087269261479378 89.79231119155884,6.087269261479378 93.46314072608948,11.638791859149933 93.46314072608948,11.638791859149933 96.32089138031006,17.52842515707016 96.32089138031006,17.52842515707016 98.36382865905762,23.670919239521027 98.36382865905762,23.670919239521027 99.59084987640381,29.98102307319641 99.59084987640381,29.98102307319641" stroke="white" stroke-width="0.1" /><polygon points="19.3254753947258,67.20842719078064 19.3254753947258,67.20842719078064 19.859641790390015,67.90880560874939 19.859641790390015,67.90880560874939 20.179422199726105,68.69715452194214 20.179422199726105,68.69715452194214 20.28547078371048,69.52950954437256 20.28547078371048,69.52950954437256 20.17800509929657,70.36184668540955 20.17800509929657,70.36184668540955 19.857898354530334,71.15021347999573 19.857898354530334,71.15021347999573 19.3254753947258,71.85059189796448 19.3254753947258,71.85059189796448 18.990108370780945,72.14497327804565 18.990108370780945,72.14497327804565 18.626514077186584,72.38627076148987 18.626514077186584,72.38627076148987 18.24035793542862,72.57429361343384 18.24035793542862,72.57429361343384 17.837634682655334,72.70881533622742 17.837634682655334,72.70881533622742 17.424339056015015,72.78969883918762 17.424339056015015,72.78969883918762 17.0061394572258,72.81668782234192 17.0061394572258,72.81668782234192 16.588157415390015,72.78968691825867 16.588157415390015,72.78968691825867 16.175298392772675,72.70881533622742 16.175298392772675,72.70881533622742 15.7732293009758,72.57429361343384 15.7732293009758,72.57429361343384 15.387290716171265,72.38628268241882 15.387290716171265,72.38628268241882 15.02336859703064,72.14497327804565 15.02336859703064,72.14497327804565 14.6868035197258,71.85059189796448 14.6868035197258,71.85059189796448 10.20398885011673,66.72535538673401 10.20398885011673,66.72535538673401 6.533268839120865,61.17556691169739 6.533268839120865,61.17556691169739 3.67606058716774,55.2865207195282 3.67606058716774,55.2865207195282 1.63356252014637,49.143439531326294 1.63356252014637,49.143439531326294 0.40784566663205624,42.831599712371826 0.40784566663205624,42.831599712371826 0.0,36.43624484539032 0.0,36.43624484539032 0.406537763774395,30.035272240638733 0.406537763774395,30.035272240638733 1.629965752363205,23.714318871498108 1.629965752363205,23.714318871498108 3.67039293050766,17.55981594324112 3.67039293050766,17.55981594324112 6.5277099609375,11.658164858818054 6.5277099609375,11.658164858818054 10.20224466919899,6.0957979410886765 10.20224466919899,6.0957979410886765 14.69377875328064,0.9591239504516125 14.69377875328064,0.9591239504516125 15.39110541343689,0.42724609375 15.39110541343689,0.42724609375 16.1773681640625,0.10811942629516125 16.1773681640625,0.10811942629516125 17.00831949710846,0.0017438616850995459 17.00831949710846,0.0017438616850995459 17.839378118515015,0.10811942629516125 17.839378118515015,0.10811942629516125 18.6266228556633,0.42724609375 18.6266228556633,0.42724609375 19.3254753947258,0.9591239504516125 19.3254753947258,0.9591239504516125 19.857244193553925,1.659543253481388 19.857244193553925,1.659543253481388 20.176370441913605,2.448122948408127 20.176370441913605,2.448122948408127 20.28285562992096,3.28107587993145 20.28285562992096,3.28107587993145 20.17647922039032,4.114607721567154 20.17647922039032,4.114607721567154 19.857461750507355,4.904938116669655 19.857461750507355,4.904938116669655 19.3254753947258,5.60825914144516 19.3254753947258,5.60825914144516 18.395452201366425,6.564848870038986 18.395452201366425,6.564848870038986 17.502376437187195,7.5434282422065735 17.502376437187195,7.5434282422065735 16.64559543132782,8.5427425801754 16.64559543132782,8.5427425801754 15.82380086183548,9.561525285243988 15.82380086183548,9.561525285243988 15.036338567733765,10.598530620336533 15.036338567733765,10.598530620336533 14.2822265625,11.6524837911129 14.2822265625,11.6524837911129 13.544900715351105,11.87051385641098 13.544900715351105,11.87051385641098 12.822505831718445,12.149287015199661 12.822505831718445,12.149287015199661 12.12114691734314,12.49084547162056 12.12114691734314,12.49084547162056 11.44605427980423,12.8972128033638 11.44605427980423,12.8972128033638 10.80322340130806,13.370433449745178 10.80322340130806,13.370433449745178 10.19810289144516,13.91252875328064 10.19810289144516,13.91252875328064 9.4002865254879,14.826135337352753 9.4002865254879,14.826135337352753 8.74742791056633,15.815401077270508 8.74742791056633,15.815401077270508 8.24018269777298,16.86357855796814 8.24018269777298,16.86357855796814 7.87833109498024,17.953893542289734 7.87833109498024,17.953893542289734 7.66252800822258,19.069597125053406 7.66252800822258,19.069597125053406 7.5927734375,20.19391804933548 7.5927734375,20.19391804933548 7.6141357421875,20.813390612602234 7.6141357421875,20.813390612602234 7.68410861492157,21.431800723075867 7.68410861492157,21.431800723075867 7.80072957277298,22.04633504152298 7.80072957277298,22.04633504152298 7.961709797382355,22.654180228710175 7.961709797382355,22.654180228710175 8.16519632935524,23.252542316913605 8.16519632935524,23.252542316913605 8.40890109539032,23.83858859539032 8.40890109539032,23.83858859539032 7.84432590007782,25.90186297893524 7.84432590007782,25.90186297893524 7.382311671972275,27.9843270778656 7.382311671972275,27.9843270778656 7.0229671895504,30.08248507976532 7.0229671895504,30.08248507976532 6.766074150800705,32.19285011291504 6.766074150800705,32.19285011291504 6.61185160279274,34.3119353055954 6.61185160279274,34.3119353055954 6.56040757894516,36.43624484539032 6.56040757894516,36.43624484539032 6.619808077812195,38.69644105434418 6.619808077812195,38.69644105434418 6.79757297039032,40.95051884651184 6.79757297039032,40.95051884651184 7.0931576192379,43.19414496421814 7.0931576192379,43.19414496421814 7.50536248087883,45.42295038700104 7.50536248087883,45.42295038700104 8.033861964941025,47.632575035095215 8.033861964941025,47.632575035095215 8.67745578289032,49.81864094734192 8.67745578289032,49.81864094734192 8.353860676288605,50.40678381919861 8.353860676288605,50.40678381919861 8.077458292245865,51.02565288543701 8.077458292245865,51.02565288543701 7.85348117351532,51.67280435562134 7.85348117351532,51.67280435562134 7.68694207072258,52.345824241638184 7.68694207072258,52.345824241638184 7.58318230509758,53.04228067398071 7.58318230509758,53.04228067398071 7.54743367433548,53.759765625 7.54743367433548,53.759765625 7.79288187623024,55.676352977752686 7.79288187623024,55.676352977752686 8.47974568605423,57.41438269615173 8.47974568605423,57.41438269615173 9.54851433634758,58.9150607585907 9.54851433634758,58.9150607585907 10.93989834189415,60.1195752620697 10.93989834189415,60.1195752620697 12.594495713710785,60.96910834312439 12.594495713710785,60.96910834312439 14.453125,61.40486001968384 14.453125,61.40486001968384 15.18620103597641,62.41577863693237 15.18620103597641,62.41577863693237 15.949468314647675,63.410937786102295 15.949468314647675,63.410937786102295 16.74412339925766,64.3890380859375 16.74412339925766,64.3890380859375 17.570823431015015,65.34881591796875 17.570823431015015,65.34881591796875 18.43109279870987,66.28904342651367 18.43109279870987,66.28904342651367" stroke="white" stroke-width="0.1" /><polygon points="20.12765109539032,12.20005601644516 20.12765109539032,12.20005601644516 20.551082491874695,11.688777804374695 20.551082491874695,11.688777804374695 20.98454087972641,11.183705180883408 20.98454087972641,11.183705180883408 21.4281365275383,10.68464070558548 21.4281365275383,10.68464070558548 21.88175916671753,10.191386193037033 21.88175916671753,10.191386193037033 22.34584391117096,9.703752398490906 22.34584391117096,9.703752398490906 22.82017469406128,9.22154039144516 22.82017469406128,9.22154039144516 23.51924479007721,8.687271922826767 23.51924479007721,8.687271922826767 24.30703341960907,8.367688953876495 24.30703341960907,8.367688953876495 25.13907551765442,8.26241672039032 25.13907551765442,8.26241672039032 25.97067952156067,8.371053636074066 25.97067952156067,8.371053636074066 26.757705211639404,8.693218976259232 26.757705211639404,8.693218976259232 27.45535969734192,9.22851637005806 27.45535969734192,9.22851637005806 27.988433837890625,9.9259652197361 27.988433837890625,9.9259652197361 28.307780623435974,10.712344944477081 28.307780623435974,10.712344944477081 28.41404676437378,11.54349222779274 28.41404676437378,11.54349222779274 28.30701768398285,12.375219166278839 28.30701768398285,12.375219166278839 27.987563610076904,13.163349032402039 27.987563610076904,13.163349032402039 27.45535969734192,13.86370062828064 27.45535969734192,13.86370062828064 27.050673961639404,14.274638891220093 27.050673961639404,14.274638891220093 26.655906438827515,14.691190421581268 26.655906438827515,14.691190421581268 26.27127766609192,15.11317789554596 26.27127766609192,15.11317789554596 25.89569091796875,15.540389716625214 25.89569091796875,15.540389716625214 25.52904486656189,15.972642600536346 25.52904486656189,15.972642600536346 25.1708984375,16.40973836183548 25.1708984375,16.40973836183548 22.68415242433548,13.9299675822258 22.68415242433548,13.9299675822258 22.294509410858154,13.570758700370789 22.294509410858154,13.570758700370789 21.88786268234253,13.241979479789734 21.88786268234253,13.241979479789734 21.46606594324112,12.94206976890564 21.46606594324112,12.94206976890564 21.030645072460175,12.669475376605988 21.030645072460175,12.669475376605988 20.58388888835907,12.422657757997513 20.58388888835907,12.422657757997513" stroke="white" stroke-width="0.1" /><polygon points="35.7456773519516,17.50837117433548 35.7456773519516,17.50837117433548 36.280497908592224,18.207530677318573 36.280497908592224,18.207530677318573 36.60126030445099,18.995429575443268 36.60126030445099,18.995429575443268 36.70828938484192,19.82770711183548 36.70828938484192,19.82770711183548 36.601367592811584,20.659978687763214 36.601367592811584,20.659978687763214 36.280497908592224,21.447885036468506 36.280497908592224,21.447885036468506 35.7456773519516,22.14704304933548 35.7456773519516,22.14704304933548 35.33913791179657,22.567149996757507 35.33913791179657,22.567149996757507 34.949058294296265,22.996753454208374 34.949058294296265,22.996753454208374 34.57467257976532,23.43488484621048 34.57467257976532,23.43488484621048 34.214675426483154,23.880571126937866 34.214675426483154,23.880571126937866 33.868300914764404,24.332845211029053 33.868300914764404,24.332845211029053 33.53446125984192,24.79073703289032 33.53446125984192,24.79073703289032 30.9849351644516,22.22726047039032 30.9849351644516,22.22726047039032 28.857421875,20.10323703289032 28.857421875,20.10323703289032 29.20684814453125,19.65573877096176 29.20684814453125,19.65573877096176 29.565322399139404,19.213472306728363 29.565322399139404,19.213472306728363 29.93382215499878,18.77703070640564 29.93382215499878,18.77703070640564 30.31289279460907,18.346978724002838 30.31289279460907,18.346978724002838 30.7037353515625,17.92389452457428 30.7037353515625,17.92389452457428 31.1070054769516,17.50837117433548 31.1070054769516,17.50837117433548 31.8058580160141,16.97649359703064 31.8058580160141,16.97649359703064 32.5932115316391,16.65736734867096 32.5932115316391,16.65736734867096 33.42503309249878,16.55099093914032 33.42503309249878,16.55099093914032 34.25707221031189,16.65736734867096 34.25707221031189,16.65736734867096 35.04529893398285,16.97649359703064 35.04529893398285,16.97649359703064" stroke="white" stroke-width="0.1" /></svg>