<?xml version="1.0" encoding="utf-8" ?>
<svg baseProfile="full" height="72.81668782234192" version="1.1" width="100.0" xmlns="http://www.w3.org/2000/svg" xmlns:ev="http://www.w3.org/2001/xml-events" xmlns:xlink="http://www.w3.org/1999/xlink"><defs><clipPath /></defs><polygon points="19.3254753947258,67.20842719078064 19.3254753947258,67.20842719078064 19.85996812582016,67.90924668312073 19.85996812582016,67.90924668312073 20.180293917655945,68.69741678237915 20.180293917655945,68.69741678237915 20.2867791056633,69.52950954437256 20.2867791056633,69.52950954437256 20.179586112499237,70.36144137382507 20.179586112499237,70.36144137382507 19.85909640789032,71.14977240562439 19.85909640789032,71.14977240562439 19.3254753947258,71.85059189796448 19.3254753947258,71.85059189796448 18.990381062030792,72.14208841323853 18.990381062030792,72.14208841323853 18.62705796957016,72.38170504570007 18.62705796957016,72.38170504570007 18.24122965335846,72.56906032562256 18.24122965335846,72.56906032562256 17.838124930858612,72.70339131355286 17.838124930858612,72.70339131355286 17.423467338085175,72.7843701839447 17.423467338085175,72.7843701839447 17.00265109539032,72.81145453453064 17.00265109539032,72.81145453453064 16.583307087421417,72.7843165397644 16.583307087421417,72.7843165397644 16.16952121257782,72.70328402519226 16.16952121257782,72.70328402519226 15.7671257853508,72.56906032562256 15.7671257853508,72.56906032562256 15.38151353597641,72.38181233406067 15.38151353597641,72.38181233406067 15.018409490585327,72.14219570159912 15.018409490585327,72.14219570159912 14.68331515789032,71.85059189796448 14.68331515789032,71.85059189796448 10.200882703065872,66.72510504722595 10.200882703065872,66.72510504722595 6.53076171875,61.17483377456665 6.53076171875,61.17483377456665 3.67431640625,55.28564453125 3.67431640625,55.28564453125 1.632799580693245,49.1429477930069 1.632799580693245,49.1429477930069 0.40757316164672375,42.832404375076294 0.40757316164672375,42.832404375076294 0.0,36.43973469734192 0.0,36.43973469734192 0.40659224614501,30.037853121757507 0.40659224614501,30.037853121757507 1.629747822880745,23.715919256210327 1.629747822880745,23.715919256210327 3.66952084004879,17.56068766117096 3.66952084004879,17.56068766117096 6.525639444589615,11.65815144777298 6.525639444589615,11.65815144777298 10.198157280683517,6.094905734062195 10.198157280683517,6.094905734062195 14.6868035197258,0.957380048930645 14.6868035197258,0.957380048930645 15.384729206562042,0.42473929934203625 15.384729206562042,0.42473929934203625 16.172246634960175,0.10555812623351812 16.172246634960175,0.10555812623351812 17.00483113527298,0.00021798271063744323 17.00483113527298,0.00021798271063744323 17.837634682655334,0.10877337772399187 17.837634682655334,0.10877337772399187 18.626077473163605,0.43187825940549374 18.626077473163605,0.43187825940549374 19.3254753947258,0.969587080180645 19.3254753947258,0.969587080180645 19.858714938163757,1.6636986285448074 19.858714938163757,1.6636986285448074 20.178714394569397,2.4485452100634575 20.178714394569397,2.4485452100634575 20.28547078371048,3.27976793050766 20.28547078371048,3.27976793050766 20.178823173046112,4.112298414111137 20.178823173046112,4.112298414111137 19.858823716640472,4.901668056845665 19.858823716640472,4.901668056845665 19.3254753947258,5.60302771627903 19.3254753947258,5.60302771627903 15.418680012226105,10.071346163749695 15.418680012226105,10.071346163749695 12.22490668296814,14.903205633163452 12.22490668296814,14.903205633163452 9.74295511841774,20.0273796916008 9.74295511841774,20.0273796916008 7.971246540546417,25.372371077537537 7.971246540546417,25.372371077537537 6.908580660820007,30.866950750350952 6.908580660820007,30.866950750350952 6.55343234539032,36.43973469734192 6.55343234539032,36.43973469734192 6.909725069999695,41.997912526130676 6.909725069999695,41.997912526130676 7.975061237812042,47.480884194374084 7.975061237812042,47.480884194374084 9.74949449300766,52.81612277030945 9.74949449300766,52.81612277030945 12.232699245214462,57.93081521987915 12.232699245214462,57.93081521987915 15.424783527851105,62.75242567062378 15.424783527851105,62.75242567062378" stroke="white" stroke-width="0.1" /><polygon points="24.5256707072258,58.70710611343384 24.5256707072258,58.70710611343384 24.86833930015564,58.743178844451904 24.86833930015564,58.743178844451904 25.22038221359253,58.77271890640259 25.22038221359253,58.77271890640259 25.5833238363266,58.79582166671753 25.5833238363266,58.79582166671753 25.958415865898132,58.81233215332031 25.958415865898132,58.81233215332031 26.347190141677856,58.82225036621094 26.347190141677856,58.82225036621094 26.75083875656128,58.82568359375 26.75083875656128,58.82568359375 26.8467515707016,58.824920654296875 26.8467515707016,58.824920654296875 26.942500472068787,58.82285237312317 26.942500472068787,58.82285237312317 27.03813910484314,58.82023572921753 27.03813910484314,58.82023572921753 27.13339924812317,58.8173508644104 27.13339924812317,58.8173508644104 27.228328585624695,58.814895153045654 27.228328585624695,58.814895153045654 27.3228257894516,58.8134765625 27.3228257894516,58.8134765625 27.346202731132507,58.83658528327942 27.346202731132507,58.83658528327942 27.368003129959106,58.8601291179657 27.368003129959106,58.8601291179657 27.38909125328064,58.88410806655884 27.38909125328064,58.88410806655884 27.410072088241577,58.907920122146606 27.410072088241577,58.907920122146606 27.431926131248474,58.93157124519348 27.431926131248474,58.93157124519348 27.45535969734192,58.9547336101532 27.45535969734192,58.9547336101532 27.988708019256592,59.653693437576294 27.988708019256592,59.653693437576294 28.30870747566223,60.4409396648407 28.30870747566223,60.4409396648407 28.4153550863266,61.27254366874695 28.4153550863266,61.27254366874695 28.308597207069397,62.104201316833496 28.308597207069397,62.104201316833496 27.988654375076294,62.891989946365356 27.988654375076294,62.891989946365356 27.45535969734192,63.59165906906128 27.45535969734192,63.59165906906128 27.118846774101257,63.88506293296814 27.118846774101257,63.88506293296814 26.754599809646606,64.12517428398132 26.754599809646606,64.12517428398132 26.36806070804596,64.31209444999695 26.36806070804596,64.31209444999695 25.964629650115967,64.44555521011353 25.964629650115967,64.44555521011353 25.549861788749695,64.52571749687195 25.549861788749695,64.52571749687195 25.12904703617096,64.55252766609192 25.12904703617096,64.55252766609192 24.71073865890503,64.52571749687195 24.71073865890503,64.52571749687195 24.299350380897522,64.44528102874756 24.299350380897522,64.44528102874756 23.89962375164032,64.31143879890442 23.89962375164032,64.31143879890442 23.516084253787994,64.1243577003479 23.516084253787994,64.1243577003479 23.153579235076904,63.88435363769531 23.153579235076904,63.88435363769531 22.8166863322258,63.59165906906128 22.8166863322258,63.59165906906128 19.374412298202515,59.65554714202881 19.374412298202515,59.65554714202881 16.556985676288605,55.39202094078064 16.556985676288605,55.39202094078064 14.36506062746048,50.86778998374939 14.36506062746048,50.86778998374939 12.799127399921417,46.149447560310364 12.799127399921417,46.149447560310364 11.859840154647827,41.30396246910095 11.859840154647827,41.30396246910095 11.54785230755806,36.39788031578064 11.54785230755806,36.39788031578064 11.859894543886185,31.49261474609375 11.859894543886185,31.49261474609375 12.799182534217834,26.649314165115356 12.799182534217834,26.649314165115356 14.36506062746048,21.93451076745987 14.36506062746048,21.93451076745987 16.556930541992188,17.414529621601105 16.556930541992188,17.414529621601105 19.374357163906097,13.15591037273407 19.374357163906097,13.15591037273407 22.8166863322258,9.22502800822258 22.8166863322258,9.22502800822258 23.51706475019455,8.689771592617035 23.51706475019455,8.689771592617035 24.30528998374939,8.36900994181633 24.30528998374939,8.36900994181633 25.1373291015625,8.26241672039032 25.1373291015625,8.26241672039032 25.968989729881287,8.36966410279274 25.968989729881287,8.36966410279274 26.756396889686584,8.690698444843292 26.756396889686584,8.690698444843292 27.45535969734192,9.22502800822258 27.45535969734192,9.22502800822258 27.98849046230316,9.92409884929657 27.98849046230316,9.92409884929657 28.30788791179657,10.711615532636642 28.30788791179657,10.711615532636642 28.41404676437378,11.54349222779274 28.41404676437378,11.54349222779274 28.307071328163147,12.375260144472122 28.307071328163147,12.375260144472122 27.98745334148407,13.16288560628891 27.98745334148407,13.16288560628891 27.45535969734192,13.86195719242096 27.45535969734192,13.86195719242096 26.96097493171692,14.368438720703125 26.96097493171692,14.368438720703125 26.484191417694092,14.884404838085175 26.484191417694092,14.884404838085175 26.02321207523346,15.40897935628891 26.02321207523346,15.40897935628891 25.575748085975647,15.941184759140015 25.575748085975647,15.941184759140015 25.14016330242157,16.480310261249542 25.14016330242157,16.480310261249542 24.71400797367096,17.02532172203064 24.71400797367096,17.02532172203064 22.34627902507782,17.677634954452515 22.34627902507782,17.677634954452515 20.56078314781189,18.70749443769455 20.56078314781189,18.70749443769455 19.27795559167862,19.94868814945221 19.27795559167862,19.94868814945221 18.417958915233612,21.23500406742096 18.417958915233612,21.23500406742096 17.901231348514557,22.400447726249695 17.901231348514557,22.400447726249695 17.64788031578064,23.27881008386612 17.64788031578064,23.27881008386612 17.494365572929382,24.238969385623932 17.494365572929382,24.238969385623932 17.454257607460022,25.198855996131897 17.454257607460022,25.198855996131897 17.52537339925766,26.14986002445221 17.52537339925766,26.14986002445221 17.70542711019516,27.083152532577515 17.70542711019516,27.083152532577515 17.99229234457016,27.990341186523438 17.99229234457016,27.990341186523438 18.38379055261612,28.86265516281128 18.38379055261612,28.86265516281128 18.299539387226105,29.17371690273285 18.299539387226105,29.17371690273285 18.231746554374695,29.491207003593445 18.231746554374695,29.491207003593445 18.18062961101532,29.81545627117157 18.18062961101532,29.81545627117157 18.146297335624695,30.146408081054688 18.146297335624695,30.146408081054688 18.129131197929382,30.484500527381897 18.129131197929382,30.484500527381897 18.1291863322258,30.82973062992096 18.1291863322258,30.82973062992096 18.14662516117096,31.62318766117096 18.14662516117096,31.62318766117096 18.17103922367096,32.66776204109192 18.17103922367096,32.66776204109192 18.076761066913605,32.95658826828003 18.076761066913605,32.95658826828003 17.98052191734314,33.28873813152313 17.98052191734314,33.28873813152313 17.89027750492096,33.66110920906067 17.89027750492096,33.66110920906067 17.813928425312042,34.070152044296265 17.813928425312042,34.070152044296265 17.759595811367035,34.5127135515213 17.759595811367035,34.5127135515213 17.73507297039032,34.98535454273224 17.73507297039032,34.98535454273224 17.702266573905945,36.69586479663849 17.702266573905945,36.69586479663849 17.669950425624847,38.40893507003784 17.669950425624847,38.40893507003784 17.63828843832016,40.12407660484314 17.63828843832016,40.12407660484314 17.60711818933487,41.840583086013794 17.60711818933487,41.840583086013794 17.57660061120987,43.558067083358765 17.57660061120987,43.558067083358765 17.54673570394516,45.27588188648224 17.54673570394516,45.27588188648224 17.541614174842834,45.44040262699127 17.541614174842834,45.44040262699127 17.533548176288605,45.614299178123474 17.533548176288605,45.614299178123474 17.52319484949112,45.79685926437378 17.52319484949112,45.79685926437378 17.511041462421417,45.98715901374817 17.511041462421417,45.98715901374817 17.497798800468445,46.18459641933441 17.497798800468445,46.18459641933441 17.48395711183548,46.38846516609192 17.48395711183548,46.38846516609192 17.45431125164032,49.883925914764404 17.45431125164032,49.883925914764404 17.908315360546112,52.80674695968628 17.908315360546112,52.80674695968628 18.84416937828064,55.15376925468445 18.84416937828064,55.15376925468445 20.26018500328064,56.92160725593567 20.26018500328064,56.92160725593567 22.154510021209717,58.10716152191162 22.154510021209717,58.10716152191162" stroke="white" stroke-width="0.1" /><polygon points="77.09961533546448,9.22502800822258 77.09961533546448,9.22502800822258 80.53948879241943,13.157163560390472 80.53948879241943,13.157163560390472 83.35620760917664,17.416110634803772 83.35620760917664,17.416110634803772 85.54862141609192,21.93581759929657 85.54862141609192,21.93581759929657 87.11548447608948,26.649966835975647 87.11548447608948,26.649966835975647 88.05591464042664,31.492778658866882 88.05591464042664,31.492778658866882 88.36844563484192,36.39788031578064 88.36844563484192,36.39788031578064 88.0564033985138,41.30401909351349 88.0564033985138,41.30401909351349 87.11711764335632,46.14950120449066 87.11711764335632,46.14950120449066 85.55123805999756,50.86778998374939 85.55123805999756,50.86778998374939 83.35920572280884,55.39196729660034 83.35920572280884,55.39196729660034 80.5418312549591,59.65549349784851 80.5418312549591,59.65549349784851 77.09961533546448,63.59165906906128 77.09961533546448,63.59165906906128 76.76462531089783,63.884466886520386 76.76462531089783,63.884466886520386 76.401686668396,64.1244113445282 76.401686668396,64.1244113445282 76.01667642593384,64.31143879890442 76.01667642593384,64.31143879890442 75.61531662940979,64.44517374038696 75.61531662940979,64.44517374038696 75.20359754562378,64.52560424804688 75.20359754562378,64.52560424804688 74.7872531414032,64.55252766609192 74.7872531414032,64.55252766609192 74.36676621437073,64.52582478523254 74.36676621437073,64.52582478523254 73.95265102386475,64.44566249847412 73.95265102386475,64.44566249847412 73.55042099952698,64.31209444999695 73.55042099952698,64.31209444999695 73.16529750823975,64.12512063980103 73.16529750823975,64.12512063980103 72.8026807308197,63.88500928878784 72.8026807308197,63.88500928878784 72.4679172039032,63.59165906906128 72.4679172039032,63.59165906906128 71.93456888198853,62.892043590545654 71.93456888198853,62.892043590545654 71.61429524421692,62.104254961013794 71.61429524421692,62.104254961013794 71.50704860687256,61.27254366874695 71.50704860687256,61.27254366874695 71.6124415397644,60.440826416015625 71.6124415397644,60.440826416015625 71.93048000335693,59.6535325050354 71.93048000335693,59.6535325050354 72.46094346046448,58.9547336101532 72.46094346046448,58.9547336101532 72.49276638031006,58.92285108566284 72.49276638031006,58.92285108566284 72.52252101898193,58.890098333358765 72.52252101898193,58.890098333358765 72.55118489265442,58.8570773601532 72.55118489265442,58.8570773601532 72.57946729660034,58.82388949394226 72.57946729660034,58.82388949394226 72.6084053516388,58.79124402999878 72.6084053516388,58.79124402999878 72.6388156414032,58.7594211101532 72.6388156414032,58.7594211101532 72.83064126968384,58.7594211101532 72.83064126968384,58.7594211101532 73.30148220062256,58.76639485359192 73.30148220062256,58.76639485359192 73.41886758804321,58.76901149749756 73.41886758804321,58.76901149749756 73.53706955909729,58.77146124839783 73.53706955909729,58.77146124839783 73.65592122077942,58.77358913421631 73.65592122077942,58.77358913421631 73.77499341964722,58.775222301483154 73.77499341964722,58.775222301483154 73.89406561851501,58.776313066482544 73.89406561851501,58.776313066482544 74.01297688484192,58.77685546875 74.01297688484192,58.77685546875 74.79798793792725,58.75614881515503 74.79798793792725,58.75614881515503 75.67509412765503,58.67179036140442 75.67509412765503,58.67179036140442 76.61961317062378,58.49021077156067 76.61961317062378,58.49021077156067 77.60685682296753,58.177947998046875 77.60685682296753,58.177947998046875 78.61214280128479,57.701605558395386 78.61214280128479,57.701605558395386 79.61077094078064,57.02776312828064 79.61077094078064,57.02776312828064 80.55147528648376,56.15354776382446 80.55147528648376,56.15354776382446 81.31883144378662,55.1574170589447 81.31883144378662,55.1574170589447 81.91223740577698,54.0414035320282 81.91223740577698,54.0414035320282 82.33087062835693,52.80723571777344 82.33087062835693,52.80723571777344 82.57419466972351,51.45721435546875 82.57419466972351,51.45721435546875 82.64160752296448,49.99302625656128 82.64160752296448,49.99302625656128 82.46721625328064,40.9092515707016 82.46721625328064,40.9092515707016 82.3556125164032,34.70982313156128 82.3556125164032,34.70982313156128 82.3250949382782,34.18835401535034 82.3250949382782,34.18835401535034 82.2670042514801,33.71293246746063 82.2670042514801,33.71293246746063 82.18994736671448,33.28486979007721 82.18994736671448,33.28486979007721 82.1023166179657,32.905417680740356 82.1023166179657,32.905417680740356 82.01299905776978,32.576099038124084 82.01299905776978,32.576099038124084 81.93010687828064,32.29806125164032 81.93010687828064,32.29806125164032 81.97196125984192,30.37981390953064 81.97196125984192,30.37981390953064 81.97272419929504,30.07463812828064 81.97272419929504,30.07463812828064 81.95801377296448,29.77970838546753 81.95801377296448,29.77970838546753 81.92880153656006,29.49502170085907 81.92880153656006,29.49502170085907 81.88585638999939,29.220309853553772 81.88585638999939,29.220309853553772 81.83027505874634,28.9555162191391 81.83027505874634,28.9555162191391 81.76270127296448,28.70047688484192 81.76270127296448,28.70047688484192 81.8144679069519,28.590285778045654 81.8144679069519,28.590285778045654 81.86498880386353,28.4794420003891 81.86498880386353,28.4794420003891 81.91441297531128,28.36761474609375 81.91441297531128,28.36761474609375 81.96259140968323,28.25469970703125 81.96259140968323,28.25469970703125 82.00967311859131,28.140804171562195 82.00967311859131,28.140804171562195 82.05567002296448,28.02560031414032 82.05567002296448,28.02560031414032 82.5041651725769,26.392146944999695 82.5041651725769,26.392146944999695 82.6180636882782,24.747468531131744 82.6180636882782,24.747468531131744 82.40792751312256,23.13668429851532 82.40792751312256,23.13668429851532 81.88378810882568,21.604211628437042 81.88378810882568,21.604211628437042 81.05610609054565,20.195117592811584 81.05610609054565,20.195117592811584 79.93513345718384,18.95403265953064 79.93513345718384,18.95403265953064 79.09971475601196,18.29419881105423 79.09971475601196,18.29419881105423 78.25186848640442,17.78847873210907 78.25186848640442,17.78847873210907 77.41001844406128,17.41638332605362 77.41001844406128,17.41638332605362 76.59252882003784,17.15720146894455 76.59252882003784,17.15720146894455 75.81798434257507,16.990771889686584 75.81798434257507,16.990771889686584 75.1046359539032,16.8962761759758 75.1046359539032,16.8962761759758 74.69373941421509,16.37507975101471 74.69373941421509,16.37507975101471 74.27270412445068,15.85845947265625 74.27270412445068,15.85845947265625 73.84033799171448,15.34772664308548 73.84033799171448,15.34772664308548 73.39510321617126,14.843860268592834 73.39510321617126,14.843860268592834 72.93576002120972,14.34827595949173 72.93576002120972,14.34827595949173 72.46094346046448,13.86195719242096 72.46094346046448,13.86195719242096 72.4679172039032,13.86195719242096 72.4679172039032,13.86195719242096 71.93456888198853,13.162940740585327 71.93456888198853,13.162940740585327 71.61429524421692,12.375368922948837 71.61429524421692,12.375368922948837 71.50704860687256,11.54349222779274 71.50704860687256,11.54349222779274 71.6124415397644,10.711561143398285 71.6124415397644,10.711561143398285 71.93048000335693,9.923990070819855 71.93048000335693,9.923990070819855 72.46094346046448,9.22502800822258 72.46094346046448,9.22502800822258 73.16132187843323,8.689554035663605 73.16132187843323,8.689554035663605 73.94954562187195,8.368192613124847 73.94954562187195,8.368192613124847 74.78158473968506,8.2611083984375 74.78158473968506,8.2611083984375 75.6132960319519,8.368083834648132 75.6132960319519,8.368083834648132 76.4006495475769,8.689499646425247 76.4006495475769,8.689499646425247" stroke="white" stroke-width="0.1" /><polygon points="85.31668782234192,0.969587080180645 85.31668782234192,0.969587080180645 89.79907035827637,6.093597784638405 89.79907035827637,6.093597784638405 93.4691309928894,11.642783880233765 93.4691309928894,11.642783880233765 96.32568955421448,17.53147691488266 96.32568955421448,17.53147691488266 98.3671486377716,23.67379367351532 98.3671486377716,23.67379367351532 99.59237575531006,29.984229803085327 99.59237575531006,29.984229803085327 100.0,36.37695610523224 100.0,36.37695610523224 99.59324598312378,42.77758002281189 99.59324598312378,42.77758002281189 98.36949110031128,49.09755289554596 98.36949110031128,49.09755289554596 96.3296115398407,55.25099039077759 96.3296115398407,55.25099039077759 93.47370862960815,61.15156412124634 93.47370862960815,61.15156412124634 89.80266451835632,66.71355366706848 89.80266451835632,66.71355366706848 85.31668782234192,71.85059189796448 85.31668782234192,71.85059189796448 84.98165011405945,72.14497327804565 84.98165011405945,72.14497327804565 84.61849093437195,72.38628268241882 84.61849093437195,72.38628268241882 84.23287868499756,72.57429361343384 84.23287868499756,72.57429361343384 83.83032083511353,72.70867824554443 83.83032083511353,72.70867824554443 83.4165871143341,72.78965711593628 83.4165871143341,72.78965711593628 82.99735188484192,72.81668782234192 82.99735188484192,72.81668782234192 82.57659077644348,72.78965711593628 82.57659077644348,72.78965711593628 82.16182589530945,72.70878553390503 82.16182589530945,72.70878553390503 81.75877332687378,72.57429361343384 81.75877332687378,72.57429361343384 81.3728392124176,72.38617539405823 81.3728392124176,72.38617539405823 81.00956678390503,72.14491963386536 81.00956678390503,72.14491963386536 80.67452907562256,71.85059189796448 80.67452907562256,71.85059189796448 80.13981580734253,71.15217447280884 80.13981580734253,71.15217447280884 79.81889247894287,70.36460041999817 79.81889247894287,70.36460041999817 79.71192002296448,69.53234076499939 79.71192002296448,69.53234076499939 79.81883883476257,68.69948506355286 79.81883883476257,68.69948506355286 80.13976216316223,67.91077256202698 80.13976216316223,67.91077256202698 80.67452907562256,67.21017360687256 80.67452907562256,67.21017360687256 84.57816243171692,62.742674350738525 84.57816243171692,62.742674350738525 87.7694308757782,57.911574840545654 87.7694308757782,57.911574840545654 90.25007486343384,52.78822183609009 90.25007486343384,52.78822183609009 92.02145338058472,47.44371771812439 92.02145338058472,47.44371771812439 93.08526515960693,41.949573159217834 93.08526515960693,41.949573159217834 93.44308376312256,36.37695610523224 93.44308376312256,36.37695610523224 93.0846095085144,30.818340182304382 93.0846095085144,30.818340182304382 92.01916456222534,25.335368514060974 92.01916456222534,25.335368514060974 90.24615287780762,19.9999138712883 90.24615287780762,19.9999138712883 87.76474595069885,14.883804321289062 87.76474595069885,14.883804321289062 84.57445502281189,10.059139132499695 84.57445502281189,10.059139132499695 80.67452907562256,5.59779591858387 80.67452907562256,5.59779591858387 80.67452907562256,5.60825914144516 80.67452907562256,5.60825914144516 80.13981580734253,4.904665425419807 80.13981580734253,4.904665425419807 79.81889247894287,4.113824293017387 79.81889247894287,4.113824293017387 79.71192002296448,3.28042171895504 79.71192002296448,3.28042171895504 79.81883883476257,2.4487633258104324 79.81883883476257,2.4487633258104324 80.13976216316223,1.6636986285448074 80.13976216316223,1.6636986285448074 80.67452907562256,0.969587080180645 80.67452907562256,0.969587080180645 81.37398362159729,0.43182373046875 81.37398362159729,0.43182373046875 82.16248154640198,0.10888236574828625 82.16248154640198,0.10888236574828625 82.99561142921448,0.0010899135304498486 82.99561142921448,0.0010899135304498486 83.8286280632019,0.10839190799742937 83.8286280632019,0.10839190799742937 84.61723923683167,0.43116980232298374 84.61723923683167,0.43116980232298374" stroke="white" stroke-width="0.1" /><polygon points="76.48577094078064,53.09709906578064 76.48577094078064,53.09709906578064 76.11558437347412,53.34314703941345 76.11558437347412,53.34314703941345 75.72294473648071,53.52014899253845 75.72294473648071,53.52014899253845 75.3121554851532,53.63900661468506 75.3121554851532,53.63900661468506 74.88730549812317,53.710395097732544 74.88730549812317,53.710395097732544 74.45286512374878,53.7453293800354 74.45286512374878,53.7453293800354 74.01297688484192,53.7545382976532 74.01297688484192,53.7545382976532 73.81412386894226,53.75317335128784 73.81412386894226,53.75317335128784 73.61570596694946,53.74996066093445 73.61570596694946,53.74996066093445 73.41788411140442,53.74581813812256 73.41788411140442,53.74581813812256 73.22083115577698,53.74167561531067 73.22083115577698,53.74167561531067 73.02507758140564,53.7384033203125 73.02507758140564,53.7384033203125 72.83064126968384,53.73709797859192 72.83064126968384,53.73709797859192 68.10128688812256,53.73709797859192 68.10128688812256,53.73709797859192 67.36352443695068,53.717803955078125 67.36352443695068,53.717803955078125 66.64859652519226,53.63840460777283 66.64859652519226,53.63840460777283 65.97551703453064,53.46636176109314 65.97551703453064,53.46636176109314 65.36276936531067,53.16898226737976 65.36276936531067,53.16898226737976 64.8293137550354,52.713775634765625 64.8293137550354,52.713775634765625 64.39383625984192,52.06822156906128 64.39383625984192,52.06822156906128 64.22064900398254,51.63830518722534 64.22064900398254,51.63830518722534 64.1153633594513,51.1910080909729 64.1153633594513,51.1910080909729 64.06119465827942,50.732421875 64.06119465827942,50.732421875 64.04092311859131,50.26790499687195 64.04092311859131,50.26790499687195 64.03776407241821,49.80332851409912 64.03776407241821,49.80332851409912 64.03459906578064,49.3443101644516 64.03459906578064,49.3443101644516 64.02866244316101,49.2217481136322 64.02866244316101,49.2217481136322 64.01634216308594,49.1332471370697 64.01634216308594,49.1332471370697 63.995361328125,49.07357692718506 63.995361328125,49.07357692718506 63.96326422691345,49.03739094734192 63.96326422691345,49.03739094734192 63.917869329452515,49.01951551437378 63.917869329452515,49.01951551437378 63.85672688484192,49.0147203207016 63.85672688484192,49.0147203207016 63.8183057308197,49.01553690433502 63.8183057308197,49.01553690433502 63.77580165863037,49.0178257226944 63.77580165863037,49.0178257226944 63.72898817062378,49.0208238363266 63.72898817062378,49.0208238363266 63.67716193199158,49.023765325546265 63.67716193199158,49.023765325546265 63.6199414730072,49.02605414390564 63.6199414730072,49.02605414390564 63.5567843914032,49.0269273519516 63.5567843914032,49.0269273519516 36.21651828289032,49.0269273519516 36.21651828289032,49.0269273519516 36.08022630214691,49.11079704761505 36.08022630214691,49.11079704761505 36.013686656951904,49.326545000076294 36.013686656951904,49.326545000076294 35.99635660648346,49.62071180343628 35.99635660648346,49.62071180343628 36.00774705410004,49.93918538093567 36.00774705410004,49.93918538093567 36.02752983570099,50.22823214530945 36.02752983570099,50.22823214530945 36.03515923023224,50.4342257976532 36.03515923023224,50.4342257976532 35.991889238357544,51.00005269050598 35.991889238357544,51.00005269050598 35.87881028652191,51.540595293045044 35.87881028652191,51.540595293045044 35.68943738937378,52.04707980155945 35.68943738937378,52.04707980155945 35.41717827320099,52.51029133796692 35.41717827320099,52.51029133796692 35.055652260780334,52.921462059020996 35.055652260780334,52.921462059020996 34.5982164144516,53.271484375 34.5982164144516,53.271484375 34.231188893318176,53.46418619155884 34.231188893318176,53.46418619155884 33.83184373378754,53.60729098320007 33.83184373378754,53.60729098320007 33.40628743171692,53.70745062828064 33.40628743171692,53.70745062828064 32.96029269695282,53.77088785171509 32.96029269695282,53.77088785171509 32.49991536140442,53.80418300628662 32.49991536140442,53.80418300628662 32.03125,53.81382703781128 32.03125,53.81382703781128 31.627002358436584,53.80810499191284 31.627002358436584,53.80810499191284 31.22618794441223,53.793829679489136 31.22618794441223,53.793829679489136 30.83278238773346,53.77546548843384 30.83278238773346,53.77546548843384 30.45065999031067,53.75693440437317 30.45065999031067,53.75693440437317 30.083903670310974,53.74276638031006 30.083903670310974,53.74276638031006 29.736328125,53.73709797859192 29.736328125,53.73709797859192 29.245376586914062,53.741949796676636 29.245376586914062,53.741949796676636 28.74990403652191,53.754210472106934 28.74990403652191,53.754210472106934 28.25143039226532,53.77023220062256 28.25143039226532,53.77023220062256 27.75115966796875,53.78614664077759 27.75115966796875,53.78614664077759 27.250564098358154,53.798460960388184 27.250564098358154,53.798460960388184 26.75083875656128,53.8033664226532 26.75083875656128,53.8033664226532 26.47530734539032,53.80162000656128 26.47530734539032,53.80162000656128 26.20021402835846,53.79589796066284 26.20021402835846,53.79589796066284 25.92599093914032,53.78570556640625 25.92599093914032,53.78570556640625 25.65285861492157,53.77006530761719 25.65285861492157,53.77006530761719 25.38125216960907,53.748321533203125 25.38125216960907,53.748321533203125 25.11160969734192,53.71965765953064 25.11160969734192,53.71965765953064 23.64218682050705,53.12478542327881 23.64218682050705,53.12478542327881 22.80622273683548,51.91781520843506 22.80622273683548,51.91781520843506 22.44219183921814,50.31869411468506 22.44219183921814,50.31869411468506 22.388894855976105,48.54714870452881 22.388894855976105,48.54714870452881 22.48491644859314,46.8230664730072 22.48491644859314,46.8230664730072 22.56905734539032,45.36656141281128 22.56905734539032,45.36656141281128 22.59892225265503,43.648749589920044 22.59892225265503,43.648749589920044 22.629493474960327,41.9310986995697 22.629493474960327,41.9310986995697 22.66061007976532,40.2134507894516 22.66061007976532,40.2134507894516 22.692272067070007,38.49574625492096 22.692272067070007,38.49574625492096 22.724588215351105,36.77804172039032 22.724588215351105,36.77804172039032 22.75739461183548,35.06034016609192 22.75739461183548,35.06034016609192 22.7953240275383,34.73963141441345 22.7953240275383,34.73963141441345 22.881700098514557,34.41947102546692 22.881700098514557,34.41947102546692 22.99150824546814,34.10295844078064 22.99150824546814,34.10295844078064 23.09919148683548,33.79271626472473 23.09919148683548,33.79271626472473 23.179572820663452,33.491843938827515 23.179572820663452,33.491843938827515 23.2073113322258,33.203125 23.2073113322258,33.203125 23.197120428085327,32.78716206550598 23.197120428085327,32.78716206550598 23.187202215194702,32.37113952636719 23.187202215194702,32.37113952636719 23.17766547203064,31.95517659187317 23.17766547203064,31.95517659187317 23.16807508468628,31.538936495780945 23.16807508468628,31.538936495780945 23.15826565027237,31.122589111328125 23.15826565027237,31.122589111328125 23.14801961183548,30.70591688156128 23.14801961183548,30.70591688156128 23.28578531742096,30.141940712928772 23.28578531742096,30.141940712928772 23.666492104530334,29.72521185874939 23.666492104530334,29.72521185874939 24.19433742761612,29.39344346523285 24.19433742761612,29.39344346523285 24.77329969406128,29.08412516117096 24.77329969406128,29.08412516117096 25.30752122402191,28.734970092773438 25.30752122402191,28.734970092773438 25.70103406906128,28.28369140625 25.70103406906128,28.28369140625 25.65220594406128,28.28369140625 25.65220594406128,28.28369140625 24.683763086795807,28.129959106445312 24.683763086795807,28.129959106445312 23.844583332538605,27.704566717147827 23.844583332538605,27.704566717147827 23.17330539226532,27.06124484539032 23.17330539226532,27.06124484539032 22.708293795585632,26.25334858894348 22.708293795585632,26.25334858894348 22.488296031951904,25.334495306015015 22.488296031951904,25.334495306015015 22.55162000656128,24.35826063156128 22.55162000656128,24.35826063156128 22.884370386600494,23.461860418319702 22.884370386600494,23.461860418319702 23.406819999217987,22.80055582523346 23.406819999217987,22.80055582523346 24.08055067062378,22.34213799238205 24.08055067062378,22.34213799238205 24.866704642772675,22.054454684257507 24.866704642772675,22.054454684257507 25.726646184921265,21.905410289764404 25.726646184921265,21.905410289764404 26.62179172039032,21.86279445886612 26.62179172039032,21.86279445886612 27.03334391117096,21.86279445886612 27.03334391117096,21.86279445886612 27.372142672538757,21.866118907928467 27.372142672538757,21.866118907928467 27.708110213279724,21.881486475467682 27.708110213279724,21.881486475467682 28.04085910320282,21.9164177775383 28.04085910320282,21.9164177775383 28.36974263191223,21.97832465171814 28.36974263191223,21.97832465171814 28.694480657577515,22.074727714061737 28.694480657577515,22.074727714061737 29.01436984539032,22.21331000328064 29.01436984539032,22.21331000328064 29.312843084335327,21.66508436203003 29.312843084335327,21.66508436203003 29.611751437187195,21.117402613162994 29.611751437187195,21.117402613162994 29.91115152835846,20.57037502527237 29.91115152835846,20.57037502527237 30.210769176483154,20.02367377281189 30.210769176483154,20.02367377281189 30.510658025741577,19.47740912437439 30.510658025741577,19.47740912437439 30.810546875,18.93136203289032 30.810546875,18.93136203289032 31.07665181159973,18.425151705741882 31.07665181159973,18.425151705741882 31.34591281414032,17.89376437664032 31.34591281414032,17.89376437664032 31.63016438484192,17.35883504152298 31.63016438484192,17.35883504152298 31.941062211990356,16.84156209230423 31.941062211990356,16.84156209230423 32.2905957698822,16.363416612148285 32.2905957698822,16.363416612148285 32.6904296875,15.94587117433548 32.6904296875,15.94587117433548 33.30034613609314,15.520095825195312 33.30034613609314,15.520095825195312 33.99129807949066,15.21061509847641 33.99129807949066,15.21061509847641 34.73467230796814,14.99372273683548 34.73467230796814,14.99372273683548 35.5015367269516,14.84527587890625 35.5015367269516,14.84527587890625 36.26316785812378,14.741680026054382 36.26316785812378,14.741680026054382 36.9907945394516,14.65890109539032 36.9907945394516,14.65890109539032 38.748008012771606,14.480972290039062 38.748008012771606,14.480972290039062 40.50985276699066,14.344678819179535 40.50985276699066,14.344678819179535 42.27469563484192,14.24146443605423 42.27469563484192,14.24146443605423 44.04062628746033,14.16277289390564 44.04062628746033,14.16277289390564 45.80601453781128,14.100103080272675 45.80601453781128,14.100103080272675 47.56906032562256,14.04506266117096 47.56906032562256,14.04506266117096 48.18545877933502,14.027133584022522 48.18545877933502,14.027133584022522 48.80327582359314,14.012092351913452 48.80327582359314,14.012092351913452 49.42234754562378,14.0001580119133 49.42234754562378,14.0001580119133 50.04223585128784,13.991329073905945 50.04223585128784,13.991329073905945 50.662726163864136,13.985934853553772 50.662726163864136,13.985934853553772 51.28348469734192,13.98402750492096 51.28348469734192,13.98402750492096 53.30789089202881,14.002609252929688 53.30789089202881,14.002609252929688 55.333274602890015,14.059503376483917 55.333274602890015,14.059503376483917 57.35691785812378,14.15601521730423 57.35691785812378,14.15601521730423 59.375494718551636,14.293235540390015 59.375494718551636,14.293235540390015 61.38622164726257,14.47274386882782 61.38622164726257,14.47274386882782 63.3858859539032,14.69552218914032 63.3858859539032,14.69552218914032 64.08805847167969,14.78358805179596 64.08805847167969,14.78358805179596 64.81950283050537,14.894267916679382 64.81950283050537,14.894267916679382 65.5526340007782,15.05061686038971 65.5526340007782,15.05061686038971 66.25949740409851,15.275628864765167 66.25949740409851,15.275628864765167 66.91251993179321,15.59252142906189 66.91251993179321,15.59252142906189 67.48396158218384,16.02434515953064 67.48396158218384,16.02434515953064 67.68935322761536,16.243036091327667 67.68935322761536,16.243036091327667 67.87289381027222,16.478130221366882 67.87289381027222,16.478130221366882 68.03938150405884,16.72581285238266 68.03938150405884,16.72581285238266 68.19365620613098,16.981779038906097 68.19365620613098,16.981779038906097 68.34062933921814,17.24221408367157 68.34062933921814,17.24221408367157 68.48493814468384,17.50313937664032 68.48493814468384,17.50313937664032 68.85354518890381,18.163354694843292 68.85354518890381,18.163354694843292 69.22029852867126,18.825259804725647 69.22029852867126,18.825259804725647 69.58574652671814,19.48852688074112 69.58574652671814,19.48852688074112 69.9503242969513,20.152229070663452 69.9503242969513,20.152229070663452 70.31446695327759,20.81604152917862 70.31446695327759,20.81604152917862 70.67871689796448,21.47914469242096 70.67871689796448,21.47914469242096 70.79097628593445,21.68622761964798 70.79097628593445,21.68622761964798 70.87914943695068,21.84513807296753 70.87914943695068,21.84513807296753 70.95249891281128,21.96066826581955 70.95249891281128,21.96066826581955 71.01996541023254,22.037288546562195 71.01996541023254,22.037288546562195 71.09081149101257,22.07990437746048 71.09081149101257,22.07990437746048 71.1739718914032,22.09298312664032 71.1739718914032,22.09298312664032 71.23615145683289,22.08818793296814 71.23615145683289,22.08818793296814 71.30950093269348,22.07467257976532 71.30950093269348,22.07467257976532 71.39631509780884,22.0537468791008 71.39631509780884,22.0537468791008 71.49876356124878,22.026336193084717 71.49876356124878,22.026336193084717 71.61914706230164,21.993692219257355 71.61914706230164,21.993692219257355 71.7599093914032,21.95696234703064 71.7599093914032,21.95696234703064 71.88742756843567,21.92688137292862 71.88742756843567,21.92688137292862 72.01576828956604,21.903011202812195 72.01576828956604,21.903011202812195 72.14486598968506,21.88502848148346 72.14486598968506,21.88502848148346 72.27478623390198,21.872493624687195 72.27478623390198,21.872493624687195 72.40573763847351,21.86519205570221 72.40573763847351,21.86519205570221 72.53767251968384,21.86279445886612 72.53767251968384,21.86279445886612 73.7130343914032,21.86279445886612 73.7130343914032,21.86279445886612 74.23145174980164,21.871240437030792 74.23145174980164,21.871240437030792 74.73564743995667,21.90813422203064 74.73564743995667,21.90813422203064 75.2236545085907,21.99053168296814 75.2236545085907,21.99053168296814 75.69324374198914,22.135381400585175 75.69324374198914,22.135381400585175 76.14256143569946,22.359685599803925 76.14256143569946,22.359685599803925 76.5694797039032,22.68066555261612 76.5694797039032,22.68066555261612 77.34827399253845,23.761750757694244 77.34827399253845,23.761750757694244 77.59824991226196,24.98583197593689 77.59824991226196,24.98583197593689 77.37644910812378,26.20152235031128 77.37644910812378,26.20152235031128 76.73918008804321,27.257320284843445 76.73918008804321,27.257320284843445 75.74332356452942,28.00184190273285 75.74332356452942,28.00184190273285 74.4454562664032,28.28369140625 74.4454562664032,28.28369140625 74.39314126968384,28.28369140625 74.39314126968384,28.28369140625 74.70986843109131,28.613609075546265 74.70986843109131,28.613609075546265 75.22185444831848,28.945434093475342 75.22185444831848,28.945434093475342 75.8156955242157,29.27791178226471 75.8156955242157,29.27791178226471 76.37776136398315,29.609954357147217 76.37776136398315,29.609954357147217 76.79476141929626,29.94036078453064 76.79476141929626,29.94036078453064 76.95313096046448,30.26820719242096 76.95313096046448,30.26820719242096 76.90081000328064,32.5596421957016 76.90081000328064,32.5596421957016 76.92413926124573,32.956042885780334 76.92413926124573,32.956042885780334 76.99890732765198,33.325958251953125 76.99890732765198,33.325958251953125 77.10135579109192,33.6826890707016 77.10135579109192,33.6826890707016 77.2071897983551,34.03930962085724 77.2071897983551,34.03930962085724 77.29252576828003,34.40927863121033 77.29252576828003,34.40927863121033 77.33328938484192,34.8057359457016 77.33328938484192,34.8057359457016 77.38152146339417,37.34975755214691 77.38152146339417,37.34975755214691 77.4290919303894,39.893344044685364 77.4290919303894,39.893344044685364 77.47628688812256,42.43709146976471 77.47628688812256,42.43709146976471 77.52342820167542,44.980841875076294 77.52342820167542,44.980841875076294 77.57099866867065,47.52502739429474 77.57099866867065,47.52502739429474 77.6192843914032,50.06975531578064 77.6192843914032,50.06975531578064 77.610182762146,50.639671087265015 77.610182762146,50.639671087265015 77.55323648452759,51.192474365234375 77.55323648452759,51.192474365234375 77.43051052093506,51.72141194343567 77.43051052093506,51.72141194343567 77.22375392913818,52.219611406326294 77.22375392913818,52.219611406326294 76.91492438316345,52.680426836013794 76.91492438316345,52.680426836013794" stroke="white" stroke-width="0.1" /><polygon points="67.43164658546448,30.0572007894516 67.43164658546448,30.0572007894516 67.43164658546448,36.02992594242096 67.43164658546448,36.02992594242096 73.55957627296448,36.02992594242096 73.55957627296448,36.02992594242096 73.55957627296448,30.0572007894516 73.55957627296448,30.0572007894516" stroke="white" stroke-width="0.1" /><polygon points="31.31278157234192,24.86572414636612 31.31278157234192,24.86572414636612 31.845638155937195,24.78463351726532 31.845638155937195,24.78463351726532 33.43309760093689,24.582183361053467 33.43309760093689,24.582183361053467 36.05870008468628,24.31902289390564 36.05870008468628,24.31902289390564 39.70555067062378,24.055808782577515 39.70555067062378,24.055808782577515 44.35708522796631,23.853357136249542 44.35708522796631,23.853357136249542 49.99651312828064,23.77232313156128 49.99651312828064,23.77232313156128 55.638885498046875,23.853248357772827 55.638885498046875,23.853248357772827 60.29232740402222,24.055755138397217 60.29232740402222,24.055755138397217 63.9404296875,24.31902289390564 63.9404296875,24.31902289390564 66.56658053398132,24.582237005233765 66.56658053398132,24.582237005233765 68.15436482429504,24.784743785858154 68.15436482429504,24.784743785858154 68.68722438812256,24.86572414636612 68.68722438812256,24.86572414636612 68.50689649581909,23.394067585468292 68.50689649581909,23.394067585468292 68.02063584327698,21.94148600101471 68.02063584327698,21.94148600101471 67.31001138687134,20.54944783449173 67.31001138687134,20.54944783449173 66.45660400390625,19.258882105350494 66.45660400390625,19.258882105350494 65.54228067398071,18.111148476600647 65.54228067398071,18.111148476600647 64.6484375,17.14739203453064 64.6484375,17.14739203453064 63.93928527832031,16.817256808280945 63.93928527832031,16.817256808280945 62.58659362792969,16.532354056835175 62.58659362792969,16.532354056835175 60.69554090499878,16.2994384765625 60.69554090499878,16.2994384765625 58.371031284332275,16.12483561038971 58.371031284332275,16.12483561038971 55.71834444999695,16.015298664569855 55.71834444999695,16.015298664569855 52.84249782562256,15.97726047039032 52.84249782562256,15.97726047039032 52.373504638671875,15.97813218832016 52.373504638671875,15.97813218832016 51.90151929855347,15.981239080429077 51.90151929855347,15.981239080429077 51.42735242843628,15.98641574382782 51.42735242843628,15.98641574382782 50.951385498046875,15.993554890155792 50.951385498046875,15.993554890155792 50.47428011894226,16.002710163593292 50.47428011894226,16.002710163593292 49.99651312828064,16.01388156414032 49.99651312828064,16.01388156414032 49.519023299217224,16.002655029296875 49.519023299217224,16.002655029296875 49.04245734214783,15.99339097738266 49.04245734214783,15.99339097738266 48.56742024421692,15.98641574382782 48.56742024421692,15.98641574382782 48.094016313552856,15.981347858905792 48.094016313552856,15.981347858905792 47.622790932655334,15.97835123538971 47.622790932655334,15.97835123538971 47.15402126312256,15.97726047039032 47.15402126312256,15.97726047039032 44.279101490974426,16.01518988609314 44.279101490974426,16.01518988609314 41.626304388046265,16.124725341796875 41.626304388046265,16.124725341796875 39.30141031742096,16.2994384765625 39.30141031742096,16.2994384765625 37.410083413124084,16.53246283531189 37.410083413124084,16.53246283531189 36.05826497077942,16.817311942577362 36.05826497077942,16.817311942577362 35.35156548023224,17.14739203453064 35.35156548023224,17.14739203453064 34.45652723312378,18.11109334230423 34.45652723312378,18.11109334230423 33.541762828826904,19.258826971054077 33.541762828826904,19.258826971054077 32.68868625164032,20.54944783449173 32.68868625164032,20.54944783449173 31.978553533554077,21.941594779491425 31.978553533554077,21.941594779491425 31.49283528327942,23.39412271976471 31.49283528327942,23.39412271976471" stroke="white" stroke-width="0.1" /><polygon points="32.568359375,36.02992594242096 32.568359375,36.02992594242096 32.568359375,30.0572007894516 32.568359375,30.0572007894516 26.4404296875,30.0572007894516 26.4404296875,30.0572007894516 26.4404296875,36.02992594242096 26.4404296875,36.02992594242096" stroke="white" stroke-width="0.1" /><polygon points="36.54785454273224,30.0537109375 36.54785454273224,30.0537109375 34.40639078617096,30.0537109375 34.40639078617096,30.0537109375 34.40639078617096,36.02992594242096 34.40639078617096,36.02992594242096 36.54785454273224,36.02992594242096 36.54785454273224,36.02992594242096" stroke="white" stroke-width="0.1" /><polygon points="49.99651312828064,27.05950140953064 49.99651312828064,27.05950140953064 49.232104420661926,27.263861894607544 49.232104420661926,27.263861894607544 48.77341389656067,27.77464985847473 48.77341389656067,27.77464985847473 48.62060844898224,28.43889594078064 48.62060844898224,28.43889594078064 48.77341389656067,29.10308837890625 48.77341389656067,29.10308837890625 49.232158064842224,29.613932967185974 49.232158064842224,29.613932967185974 49.99651312828064,29.81829047203064 49.99651312828064,29.81829047203064 50.7637619972229,29.613876342773438 50.7637619972229,29.613876342773438 51.22413635253906,29.102981090545654 51.22413635253906,29.102981090545654 51.37765407562256,28.43889594078064 51.37765407562256,28.43889594078064 51.22419595718384,27.77470350265503 51.22419595718384,27.77470350265503 50.7638156414032,27.263861894607544 50.7638156414032,27.263861894607544" stroke="white" stroke-width="0.1" /><polygon points="65.59012532234192,36.02992594242096 65.59012532234192,36.02992594242096 65.59012532234192,30.0537109375 65.59012532234192,30.0537109375 63.44517469406128,30.0537109375 63.44517469406128,30.0537109375 63.44517469406128,36.02992594242096 63.44517469406128,36.02992594242096" stroke="white" stroke-width="0.1" /></svg>