<?xml version="1.0" encoding="utf-8" ?>
<svg baseProfile="full" height="63.19754719734192" version="1.1" width="100.0" xmlns="http://www.w3.org/2000/svg" xmlns:ev="http://www.w3.org/2001/xml-events" xmlns:xlink="http://www.w3.org/1999/xlink"><defs><clipPath /></defs><polygon points="37.77901828289032,54.3038547039032 37.77901828289032,54.3038547039032 37.690192461013794,56.5865695476532 37.690192461013794,56.5865695476532 36.98049485683441,58.688247203826904 36.98049485683441,58.688247203826904 35.74349582195282,60.50459146499634 35.74349582195282,60.50459146499634 34.07244086265564,61.93112134933472 34.07244086265564,61.93112134933472 32.06106126308441,62.86354064941406 32.06106126308441,62.86354064941406 29.80259656906128,63.19754719734192 29.80259656906128,63.19754719734192 27.695846557617188,62.90653944015503 27.695846557617188,62.90653944015503 25.78670084476471,62.08828687667847 25.78670084476471,62.08828687667847 24.15815144777298,60.8245849609375 24.15815144777298,60.8245849609375 22.89254367351532,59.197235107421875 22.89254367351532,59.197235107421875 22.072602808475494,57.28819966316223 22.072602808475494,57.28819966316223 21.78083211183548,55.17927408218384 21.78083211183548,55.17927408218384 22.050803899765015,53.14178466796875 22.050803899765015,53.14178466796875 22.81341701745987,51.28304958343506 22.81341701745987,51.28304958343506 23.99728000164032,49.67956840991974 23.99728000164032,49.67956840991974 25.531005859375,48.40763807296753 25.531005859375,48.40763807296753 27.343425154685974,47.5438266992569 27.343425154685974,47.5438266992569 29.36314344406128,47.16448187828064 29.36314344406128,47.16448187828064 31.413325667381287,47.32246696949005 31.413325667381287,47.32246696949005 33.311301469802856,47.982245683670044 33.311301469802856,47.982245683670044 34.97706949710846,49.07706379890442 34.97706949710846,49.07706379890442 36.33030652999878,50.540053844451904 36.33030652999878,50.540053844451904 37.291064858436584,52.304625511169434 37.291064858436584,52.304625511169434" stroke="white" stroke-width="0.1" /><polygon points="83.70535969734192,24.85002875328064 83.70535969734192,24.85002875328064 84.39876437187195,25.57830810546875 84.39876437187195,25.57830810546875 85.07440090179443,26.3249009847641 85.07440090179443,26.3249009847641 85.7339084148407,27.0878404378891 85.7339084148407,27.0878404378891 86.37848496437073,27.86494791507721 86.37848496437073,27.86494791507721 87.00976371765137,28.654319047927856 87.00976371765137,28.654319047927856 87.6290500164032,29.45382297039032 87.6290500164032,29.45382297039032 81.0616672039032,29.45382297039032 81.0616672039032,29.45382297039032 80.95627427101135,29.34047281742096 80.95627427101135,29.34047281742096 80.85234761238098,29.227229952812195 80.85234761238098,29.227229952812195 80.74907660484314,29.1142076253891 80.74907660484314,29.1142076253891 80.64548373222351,29.001399874687195 80.64548373222351,29.001399874687195 80.54068684577942,28.889083862304688 80.54068684577942,28.889083862304688 80.43387532234192,28.77720594406128 80.43387532234192,28.77720594406128 76.26010775566101,25.02397894859314 76.26010775566101,25.02397894859314 71.63118720054626,21.829715371131897 71.63118720054626,21.829715371131897 66.59895181655884,19.24961656332016 66.59895181655884,19.24961656332016 61.21494174003601,17.338508367538452 61.21494174003601,17.338508367538452 55.53109645843506,16.151483356952667 55.53109645843506,16.151483356952667 49.59891438484192,15.74358344078064 49.59891438484192,15.74358344078064 43.66820454597473,16.15145653486252 43.66820454597473,16.15145653486252 37.985122203826904,17.338481545448303 37.985122203826904,17.338481545448303 32.60149359703064,19.24961656332016 32.60149359703064,19.24961656332016 27.56892740726471,21.829769015312195 27.56892740726471,21.829769015312195 22.93919324874878,25.02397894859314 22.93919324874878,25.02397894859314 18.7639519572258,28.77720594406128 18.7639519572258,28.77720594406128 18.696431815624237,28.847724199295044 18.696431815624237,28.847724199295044 18.6296746134758,28.919494152069092 18.6296746134758,28.919494152069092 18.56340765953064,28.9921373128891 18.56340765953064,28.9921373128891 18.497087061405182,29.064998030662537 18.497087061405182,29.064998030662537 18.430383503437042,29.137694835662842 18.430383503437042,29.137694835662842 18.36286336183548,29.20968234539032 18.36286336183548,29.20968234539032 18.286624550819397,29.250991344451904 18.286624550819397,29.250991344451904 18.211038410663605,29.291534423828125 18.211038410663605,29.291534423828125 18.13572496175766,29.33175265789032 18.13572496175766,29.33175265789032 18.06008517742157,29.371970891952515 18.06008517742157,29.371970891952515 17.983682453632355,29.412516951560974 17.983682453632355,29.412516951560974 17.90597140789032,29.45382297039032 17.90597140789032,29.45382297039032 11.57575398683548,29.45382297039032 11.57575398683548,29.45382297039032 12.193571031093597,28.65426242351532 12.193571031093597,28.65426242351532 12.823650240898132,27.86494791507721 12.823650240898132,27.86494791507721 13.4674072265625,27.0878404378891 13.4674072265625,27.0878404378891 14.125879108905792,26.324954628944397 14.125879108905792,26.324954628944397 14.80059027671814,25.57830810546875 14.80059027671814,25.57830810546875 15.4924675822258,24.85002875328064 15.4924675822258,24.85002875328064 20.137134194374084,20.673643052577972 20.137134194374084,20.673643052577972 25.274986028671265,17.128673195838928 25.274986028671265,17.128673195838928 30.84804117679596,14.27219957113266 30.84804117679596,14.27219957113266 36.79831624031067,12.161201238632202 36.79831624031067,12.161201238632202 43.06798875331879,10.85270494222641 43.06798875331879,10.85270494222641 49.59891438484192,10.40387898683548 49.59891438484192,10.40387898683548 56.12989664077759,10.852678120136261 56.12989664077759,10.852678120136261 62.39940524101257,12.161146104335785 62.39940524101257,12.161146104335785 68.34978461265564,14.27219957113266 68.34978461265564,14.27219957113266 73.92278909683228,17.128700017929077 73.92278909683228,17.128700017929077 79.06069159507751,20.67369818687439 79.06069159507751,20.67369818687439" stroke="white" stroke-width="0.1" /><polygon points="14.52985554933548,19.30803656578064 14.52985554933548,19.30803656578064 12.963813543319702,20.846231281757355 12.963813543319702,20.846231281757355 11.475536227226257,22.44916707277298 11.475536227226257,22.44916707277298 10.06687730550766,24.11412000656128 10.06687730550766,24.11412000656128 8.73914510011673,25.83836317062378 8.73914510011673,25.83836317062378 7.4942998588085175,27.619171142578125 7.4942998588085175,27.619171142578125 6.33370578289032,29.45382297039032 6.33370578289032,29.45382297039032 0.0,29.45382297039032 0.0,29.45382297039032 5.323301255702972,21.208246052265167 5.323301255702972,21.208246052265167 12.114334851503372,14.060130715370178 12.114334851503372,14.060130715370178 20.17560750246048,8.18743035197258 20.17560750246048,8.18743035197258 29.30930256843567,3.7678856402635574 29.30930256843567,3.7678856402635574 39.31781351566315,0.979450810700655 39.31781351566315,0.979450810700655 50.00349283218384,0.0 50.00349283218384,0.0 60.68595051765442,0.9794235229492188 60.68595051765442,0.9794235229492188 70.69195508956909,3.7678856402635574 70.69195508956909,3.7678856402635574 79.82395887374878,8.18743035197258 79.82395887374878,8.18743035197258 87.88430690765381,14.060184359550476 87.88430690765381,14.060184359550476 94.6755051612854,21.208246052265167 94.6755051612854,21.208246052265167 100.0,29.45382297039032 100.0,29.45382297039032 93.67676377296448,29.45382297039032 93.67676377296448,29.45382297039032 92.51562356948853,27.619117498397827 92.51562356948853,27.619117498397827 91.26936197280884,25.83830952644348 91.26936197280884,25.83830952644348 89.94010090827942,24.11412000656128 89.94010090827942,24.11412000656128 88.52964639663696,22.44916707277298 88.52964639663696,22.44916707277298 87.0401680469513,20.846231281757355 87.0401680469513,20.846231281757355 85.47363877296448,19.30803656578064 85.47363877296448,19.30803656578064 80.66782355308533,15.33922553062439 80.66782355308533,15.33922553062439 75.34054517745972,11.963626742362976 75.34054517745972,11.963626742362976 69.55130696296692,9.2385433614254 69.55130696296692,9.2385433614254 63.359129428863525,7.2211407124996185 63.359129428863525,7.2211407124996185 56.82346224784851,5.968693643808365 56.82346224784851,5.968693643808365 50.00349283218384,5.53850457072258 50.00349283218384,5.53850457072258 43.18079352378845,5.968666449189186 43.18079352378845,5.968666449189186 36.64371073246002,7.22111314535141 36.64371073246002,7.22111314535141 30.45131266117096,9.2385433614254 30.45131266117096,9.2385433614254 24.662181735038757,11.963654309511185 24.662181735038757,11.963654309511185 19.335447251796722,15.339279174804688 19.335447251796722,15.339279174804688" stroke="white" stroke-width="0.1" /><polygon points="84.29129719734192,53.87486219406128 84.29129719734192,53.87486219406128 84.3269944190979,56.151580810546875 84.3269944190979,56.151580810546875 83.73544216156006,58.28410983085632 83.73544216156006,58.28410983085632 82.60411024093628,60.1632297039032 82.60411024093628,60.1632297039032 81.01981282234192,61.679625511169434 81.01981282234192,61.679625511169434 79.06990647315979,62.72398233413696 79.06990647315979,62.72398233413696 76.84152126312256,63.18708658218384 76.84152126312256,63.18708658218384 74.63809847831726,63.00174593925476 74.63809847831726,63.00174593925476 72.62459397315979,62.239402532577515 72.62459397315979,62.239402532577515 70.89495062828064,60.98807454109192 70.89495062828064,60.98807454109192 69.54313516616821,59.33560132980347 69.54313516616821,59.33560132980347 68.66313815116882,57.3699951171875 68.66313815116882,57.3699951171875 68.34891438484192,55.17927408218384 68.34891438484192,55.17927408218384 68.61894130706787,53.14178466796875 68.61894130706787,53.14178466796875 69.3816065788269,51.28304958343506 69.3816065788269,51.28304958343506 70.56580185890198,49.67956840991974 70.56580185890198,49.67956840991974 72.10018038749695,48.40763807296753 72.10018038749695,48.40763807296753 73.91358017921448,47.5438266992569 73.91358017921448,47.5438266992569 75.9347140789032,47.16448187828064 75.9347140789032,47.16448187828064 77.90974378585815,47.30791449546814 77.90974378585815,47.30791449546814 79.75050210952759,47.9190856218338 79.75050210952759,47.9190856218338 81.38297200202942,48.93973469734192 81.38297200202942,48.93973469734192 82.73316025733948,50.31144618988037 82.73316025733948,50.31144618988037 83.72732400894165,51.975905895233154 83.72732400894165,51.975905895233154" stroke="white" stroke-width="0.1" /><polygon points="94.4405734539032,49.95117485523224 94.4405734539032,49.95117485523224 94.53043937683105,50.25951266288757 94.53043937683105,50.25951266288757 94.52536702156067,50.70921182632446 94.52536702156067,50.70921182632446 94.45757865905762,51.2307345867157 94.45757865905762,51.2307345867157 94.35915946960449,51.754218339920044 94.35915946960449,51.754218339920044 94.2625880241394,52.21007466316223 94.2625880241394,52.21007466316223 94.19991970062256,52.52860188484192 94.19991970062256,52.52860188484192 94.08384561538696,53.35584878921509 94.08384561538696,53.35584878921509 93.95310878753662,54.21377420425415 93.95310878753662,54.21377420425415 93.77790689468384,55.07333278656006 93.77790689468384,55.07333278656006 93.5282051563263,55.90526461601257 93.5282051563263,55.90526461601257 93.17431449890137,56.680357456207275 93.17431449890137,56.680357456207275 92.68624782562256,57.36956000328064 92.68624782562256,57.36956000328064 91.97638630867004,57.999151945114136 91.97638630867004,57.999151945114136 91.19072556495667,58.431464433670044 91.19072556495667,58.431464433670044 90.34641981124878,58.7105929851532 90.34641981124878,58.7105929851532 89.46048617362976,58.88040065765381 89.46048617362976,58.88040065765381 88.55019211769104,58.984923362731934 88.55019211769104,58.984923362731934 87.63253688812256,59.06808376312256 87.63253688812256,59.06808376312256 88.27248215675354,55.17224073410034 88.27248215675354,55.17224073410034 87.62332797050476,51.44479274749756 87.62332797050476,51.44479274749756 85.87515950202942,48.13843071460724 85.87515950202942,48.13843071460724 83.21811556816101,45.505744218826294 83.21811556816101,45.505744218826294 79.84243631362915,43.79948377609253 79.84243631362915,43.79948377609253 75.93820095062256,43.27218532562256 75.93820095062256,43.27218532562256 72.10960984230042,44.068148732185364 72.10960984230042,44.068148732185364 68.88079047203064,45.98955512046814 68.88079047203064,45.98955512046814 66.4215087890625,48.77624809741974 66.4215087890625,48.77624809741974 64.90124464035034,52.167677879333496 64.90124464035034,52.167677879333496 64.4896924495697,55.90362548828125 64.4896924495697,55.90362548828125 65.3564453125,59.7237765789032 65.3564453125,59.7237765789032 61.296576261520386,59.43173170089722 61.296576261520386,59.43173170089722 57.24372863769531,59.21037197113037 57.24372863769531,59.21037197113037 53.19344997406006,59.06895399093628 53.19344997406006,59.06895399093628 49.14109706878662,59.01641845703125 49.14109706878662,59.01641845703125 45.082202553749084,59.06192660331726 45.082202553749084,59.06192660331726 41.01213812828064,59.21456813812256 41.01213812828064,59.21456813812256 41.69834852218628,55.615997314453125 41.69834852218628,55.615997314453125 41.264888644218445,52.105772495269775 41.264888644218445,52.105772495269775 39.84985649585724,48.90311360359192 39.84985649585724,48.90311360359192 37.59133517742157,46.227049827575684 37.59133517742157,46.227049827575684 34.627535939216614,44.296813011169434 34.627535939216614,44.296813011169434 31.09654188156128,43.33147406578064 31.09654188156128,43.33147406578064 27.49655842781067,43.50346326828003 27.49655842781067,43.50346326828003 24.227851629257202,44.70623731613159 24.227851629257202,44.70623731613159 21.4647576212883,46.76688313484192 21.4647576212883,46.76688313484192 19.381387531757355,49.512267112731934 19.381387531757355,49.512267112731934 18.152183294296265,52.769309282302856 18.152183294296265,52.769309282302856 17.95131266117096,56.36509656906128 17.95131266117096,56.36509656906128 17.190498113632202,55.97545504570007 17.190498113632202,55.97545504570007 16.428157687187195,55.586135387420654 16.428157687187195,55.586135387420654 15.6633660197258,55.19976019859314 15.6633660197258,55.19976019859314 14.895030856132507,54.81889247894287 14.895030856132507,54.81889247894287 14.122281968593597,54.44614291191101 14.122281968593597,54.44614291191101 13.3440300822258,54.0841281414032 13.3440300822258,54.0841281414032 13.026157021522522,53.95965576171875 13.026157021522522,53.95965576171875 12.683923542499542,53.843146562576294 12.683923542499542,53.843146562576294 12.3391292989254,53.717041015625 12.3391292989254,53.717041015625 12.013790011405945,53.56352925300598 12.013790011405945,53.56352925300598 11.729922145605087,53.365111351013184 11.729922145605087,53.365111351013184 11.50948703289032,53.10407876968384 11.50948703289032,53.10407876968384 11.075974255800247,52.1981418132782 11.075974255800247,52.1981418132782 10.788890719413757,51.189208030700684 10.788890719413757,51.189208030700684 10.61445027589798,50.11945962905884 10.61445027589798,50.11945962905884 10.518701374530792,49.03041422367096 10.518701374530792,49.03041422367096 10.46796590089798,47.96404242515564 10.46796590089798,47.96404242515564 10.42829304933548,46.96219563484192 10.42829304933548,46.96219563484192 10.490363091230392,46.26988172531128 10.490363091230392,46.26988172531128 10.71821004152298,45.740512013435364 10.71821004152298,45.740512013435364 11.05390340089798,45.3098863363266 11.05390340089798,45.3098863363266 11.439187824726105,44.913485646247864 11.439187824726105,44.913485646247864 11.816243082284927,44.48705613613129 11.816243082284927,44.48705613613129 12.12681382894516,43.96623969078064 12.12681382894516,43.96623969078064 12.291554361581802,43.478068709373474 12.291554361581802,43.478068709373474 12.399564683437347,42.954909801483154 12.399564683437347,42.954909801483154 12.46817484498024,42.41158664226532 12.46817484498024,42.41158664226532 12.514333426952362,41.863033175468445 12.514333426952362,41.863033175468445 12.555313110351562,41.32412672042847 12.555313110351562,41.32412672042847 12.60811984539032,40.80985188484192 12.60811984539032,40.80985188484192 12.71253377199173,39.912089705467224 12.71253377199173,39.912089705467224 12.86686509847641,38.84233832359314 12.86686509847641,38.84233832359314 13.12081515789032,37.74414360523224 13.12081515789032,37.74414360523224 13.52342963218689,36.76098585128784 13.52342963218689,36.76098585128784 14.124298095703125,36.036521196365356 14.124298095703125,36.036521196365356 14.97279703617096,35.71428656578064 14.97279703617096,35.71428656578064 16.330337524414062,35.64366102218628 16.330337524414062,35.64366102218628 17.677798867225647,35.59139966964722 17.677798867225647,35.59139966964722 19.0080925822258,35.50371527671814 19.0080925822258,35.50371527671814 20.313917100429535,35.326769948005676 20.313917100429535,35.326769948005676 21.588189899921417,35.006824135780334 21.588189899921417,35.006824135780334 22.82366156578064,34.49009656906128 22.82366156578064,34.49009656906128 24.252265691757202,33.74203443527222 24.252265691757202,33.74203443527222 25.68468451499939,32.985034584999084 25.68468451499939,32.985034584999084 27.12533175945282,32.23702609539032 27.12533175945282,32.23702609539032 28.57840657234192,31.51572346687317 28.57840657234192,31.51572346687317 30.048370361328125,30.838996171951294 30.048370361328125,30.838996171951294 31.53948187828064,30.224609375 31.53948187828064,30.224609375 33.29184651374817,29.59987223148346 33.29184651374817,29.59987223148346 35.07467210292816,29.064559936523438 35.07467210292816,29.064559936523438 36.88180148601532,28.61284613609314 36.88180148601532,28.61284613609314 38.706862926483154,28.238677978515625 38.706862926483154,28.238677978515625 40.543803572654724,27.9362291097641 40.543803572654724,27.9362291097641 42.3863023519516,27.69950032234192 42.3863023519516,27.69950032234192 44.18787360191345,27.51421332359314 44.18787360191345,27.51421332359314 46.033862233161926,27.36724019050598 46.033862233161926,27.36724019050598 47.90126383304596,27.2857666015625 47.90126383304596,27.2857666015625 49.76681470870972,27.296993136405945 49.76681470870972,27.296993136405945 51.60762667655945,27.428165078163147 51.60762667655945,27.428165078163147 53.4005343914032,27.70647406578064 53.4005343914032,27.70647406578064 54.77709174156189,28.054702281951904 54.77709174156189,28.054702281951904 56.12313747406006,28.51802408695221 56.12313747406006,28.51802408695221 57.43757486343384,29.0775865316391 57.43757486343384,29.0775865316391 58.719420433044434,29.71409559249878 58.719420433044434,29.71409559249878 59.967803955078125,30.40858805179596 59.967803955078125,30.40858805179596 61.181640625,31.14188313484192 61.181640625,31.14188313484192 62.375426292419434,31.910163164138794 62.375426292419434,31.910163164138794 63.54702711105347,32.713210582733154 63.54702711105347,32.713210582733154 64.697265625,33.5484117269516 64.697265625,33.5484117269516 65.82652926445007,34.412604570388794 65.82652926445007,34.412604570388794 66.93540811538696,35.30295491218567 66.93540811538696,35.30295491218567 68.0245578289032,36.21651828289032 68.0245578289032,36.21651828289032 68.50891709327698,36.6424024105072 68.50891709327698,36.6424024105072 68.90755295753479,36.98752522468567 68.90755295753479,36.98752522468567 69.2757785320282,37.25978434085846 69.2757785320282,37.25978434085846 69.66890692710876,37.467196583747864 69.66890692710876,37.467196583747864 70.1425850391388,37.617820501327515 70.1425850391388,37.617820501327515 70.75195908546448,37.71972954273224 70.75195908546448,37.71972954273224 74.24071431159973,38.1438672542572 74.24071431159973,38.1438672542572 77.7658224105835,38.647300004959106 77.7658224105835,38.647300004959106 81.28488063812256,39.28484320640564 81.28488063812256,39.28484320640564 84.75505709648132,40.11127054691315 84.75505709648132,40.11127054691315 88.13378810882568,41.18145704269409 88.13378810882568,41.18145704269409 91.37835502624512,42.55022406578064 91.37835502624512,42.55022406578064 91.7061984539032,42.70782768726349 91.7061984539032,42.70782768726349 92.19229817390442,42.95654594898224 92.19229817390442,42.95654594898224 92.70281791687012,43.26390027999878 92.70281791687012,43.26390027999878 93.10336112976074,43.597087264060974 93.10336112976074,43.597087264060974 93.25997829437256,43.923407793045044 93.25997829437256,43.923407793045044 93.03851127624512,44.21038031578064 93.03851127624512,44.21038031578064 92.930006980896,44.39310431480408 92.930006980896,44.39310431480408 92.85436868667603,44.74809169769287 92.85436868667603,44.74809169769287 92.80439615249634,45.19479274749756 92.80439615249634,45.19479274749756 92.77268052101135,45.65249979496002 92.77268052101135,45.65249979496002 92.7519679069519,46.040672063827515 92.7519679069519,46.040672063827515 92.73507595062256,46.27860188484192 92.73507595062256,46.27860188484192 92.66902804374695,46.768298745155334 92.66902804374695,46.768298745155334 92.6034688949585,47.257670760154724 92.6034688949585,47.257670760154724 92.53845810890198,47.74693250656128 92.53845810890198,47.74693250656128 92.47360825538635,48.23608696460724 92.47360825538635,48.23608696460724 92.40897297859192,48.725512623786926 92.40897297859192,48.725512623786926 92.34445095062256,49.21526312828064 92.34445095062256,49.21526312828064 92.47600436210632,49.333956837654114 92.47600436210632,49.333956837654114 92.83507466316223,49.45564568042755 92.83507466316223,49.45564568042755 93.31665635108948,49.5792955160141 93.31665635108948,49.5792955160141 93.8149631023407,49.703818559646606 93.8149631023407,49.703818559646606 94.22476887702942,49.828124046325684 94.22476887702942,49.828124046325684" stroke="white" stroke-width="0.1" /><polygon points="38.26729953289032,34.33663547039032 38.26729953289032,34.33663547039032 38.16501200199127,33.771517872810364 38.16501200199127,33.771517872810364 38.02490532398224,33.206287026405334 38.02490532398224,33.206287026405334 37.85095512866974,32.64596164226532 37.85095512866974,32.64596164226532 37.6469761133194,32.095447182655334 37.6469761133194,32.095447182655334 37.417060136795044,31.559863686561584 37.417060136795044,31.559863686561584 37.16517984867096,31.04422688484192 37.16517984867096,31.04422688484192 36.955371499061584,30.852729082107544 36.955371499061584,30.852729082107544 36.634448170661926,30.781936645507812 36.634448170661926,30.781936645507812 36.25183403491974,30.79746961593628 36.25183403491974,30.79746961593628 35.85663139820099,30.864661931991577 35.85663139820099,30.864661931991577 35.49826741218567,30.949130654335022 35.49826741218567,30.949130654335022 35.22600531578064,31.01632297039032 35.22600531578064,31.01632297039032 34.15533006191254,31.27027451992035 34.15533006191254,31.27027451992035 32.935553789138794,31.62841796875 32.935553789138794,31.62841796875 31.68770968914032,32.1079820394516 31.68770968914032,32.1079820394516 30.5328369140625,32.725852727890015 30.5328369140625,32.725852727890015 29.592078924179077,33.499038219451904 29.592078924179077,33.499038219451904 28.98646891117096,34.44475531578064 28.98646891117096,34.44475531578064 29.0409654378891,35.239630937576294 29.0409654378891,35.239630937576294 29.749679565429688,35.769763588905334 29.749679565429688,35.769763588905334 30.85240125656128,36.08921766281128 30.85240125656128,36.08921766281128 32.08874464035034,36.25161349773407 32.08874464035034,36.25161349773407 33.19854736328125,36.311015486717224 33.19854736328125,36.311015486717224 33.92159640789032,36.32115125656128 33.92159640789032,36.32115125656128 34.850966930389404,36.345893144607544 34.850966930389404,36.345893144607544 35.87363362312317,36.349162459373474 35.87363362312317,36.349162459373474 36.85826063156128,36.24049723148346 36.85826063156128,36.24049723148346 37.67307996749878,35.92921793460846 37.67307996749878,35.92921793460846 38.18664848804474,35.32480597496033 38.18664848804474,35.32480597496033" stroke="white" stroke-width="0.1" /><polygon points="60.05510687828064,34.26688313484192 60.05510687828064,34.26688313484192 59.341490268707275,33.3927720785141 59.341490268707275,33.3927720785141 58.48563313484192,32.65331983566284 58.48563313484192,32.65331983566284 57.525634765625,32.02689290046692 57.525634765625,32.02689290046692 56.49997591972351,31.49169087409973 56.49997591972351,31.49169087409973 55.44700622558594,31.026023626327515 55.44700622558594,31.026023626327515 54.40499782562256,30.60826063156128 54.40499782562256,30.60826063156128 53.25693488121033,30.227279663085938 53.25693488121033,30.227279663085938 52.089422941207886,29.956817626953125 52.089422941207886,29.956817626953125 50.9063720703125,29.78166937828064 50.9063720703125,29.78166937828064 49.711284041404724,29.686737060546875 49.711284041404724,29.686737060546875 48.5081285238266,29.656875133514404 48.5081285238266,29.656875133514404 47.30050563812256,29.67703938484192 47.30050563812256,29.67703938484192 46.424105763435364,29.695510864257812 46.424105763435364,29.695510864257812 45.38748860359192,29.741451144218445 45.38748860359192,29.741451144218445 44.30367946624756,29.8736572265625 44.30367946624756,29.8736572265625 43.28548014163971,30.150824785232544 43.28548014163971,30.150824785232544 42.44597554206848,30.631911754608154 42.44597554206848,30.631911754608154 41.8980211019516,31.3755601644516 41.8980211019516,31.3755601644516 41.704943776130676,32.242584228515625 41.704943776130676,32.242584228515625 41.73736870288849,33.20721387863159 41.73736870288849,33.20721387863159 41.93420708179474,34.21587347984314 41.93420708179474,34.21587347984314 42.23409593105316,35.21488904953003 42.23409593105316,35.21488904953003 42.57611036300659,36.150744557380676 42.57611036300659,36.150744557380676 42.8989976644516,36.96986734867096 42.8989976644516,36.96986734867096 43.042758107185364,37.19896674156189 43.042758107185364,37.19896674156189 43.236544728279114,37.32910454273224 43.236544728279114,37.32910454273224 43.4696763753891,37.38708794116974 43.4696763753891,37.38708794116974 43.73081922531128,37.40000128746033 43.73081922531128,37.40000128746033 44.0093457698822,37.39493489265442 44.0093457698822,37.39493489265442 44.29408609867096,37.39885687828064 44.29408609867096,37.39885687828064 45.36154866218567,37.46839463710785 45.36154866218567,37.46839463710785 46.42966389656067,37.5309556722641 46.42966389656067,37.5309556722641 47.49843180179596,37.58719563484192 47.49843180179596,37.58719563484192 48.567748069763184,37.63754963874817 48.567748069763184,37.63754963874817 49.637606739997864,37.682726979255676 49.637606739997864,37.682726979255676 50.7080078125,37.7232164144516 50.7080078125,37.7232164144516 51.57792568206787,37.7562940120697 51.57792568206787,37.7562940120697 52.447569370269775,37.78594136238098 52.447569370269775,37.78594136238098 53.3172607421875,37.81215250492096 53.3172607421875,37.81215250492096 54.18723225593567,37.83482313156128 54.18723225593567,37.83482313156128 55.057746171951294,37.85400688648224 55.057746171951294,37.85400688648224 55.92913031578064,37.8697007894516 55.92913031578064,37.8697007894516 56.42961859703064,37.879836559295654 56.42961859703064,37.879836559295654 56.93016052246094,37.88915574550629 56.93016052246094,37.88915574550629 57.4310302734375,37.89760172367096 57.4310302734375,37.89760172367096 57.93212056159973,37.90479600429535 57.93212056159973,37.90479600429535 58.43364596366882,37.91068196296692 58.43364596366882,37.91068196296692 58.935546875,37.91504204273224 58.935546875,37.91504204273224 58.955931663513184,37.8570020198822 58.955931663513184,37.8570020198822 58.96404981613159,37.761253118515015 58.96404981613159,37.761253118515015 58.9638888835907,37.64604926109314 58.9638888835907,37.64604926109314 58.95931124687195,37.529319524765015 58.95931124687195,37.529319524765015 58.954405784606934,37.429267168045044 58.954405784606934,37.429267168045044 58.95298719406128,37.36397922039032 58.95298719406128,37.36397922039032 58.962470293045044,37.065234780311584 58.962470293045044,37.065234780311584 58.98590087890625,36.61679029464722 58.98590087890625,36.61679029464722 59.04192328453064,36.10970675945282 59.04192328453064,36.10970675945282 59.149062633514404,35.634833574295044 59.149062633514404,35.634833574295044 59.32595729827881,35.283225774765015 59.32595729827881,35.283225774765015 59.59123969078064,35.14578938484192 59.59123969078064,35.14578938484192 59.918105602264404,35.112109780311584 59.918105602264404,35.112109780311584 60.12682318687439,35.01864969730377 60.12682318687439,35.01864969730377 60.23123860359192,34.87636148929596 60.23123860359192,34.87636148929596 60.24486422538757,34.69625413417816 60.24486422538757,34.69625413417816 60.181593894958496,34.48944389820099 60.181593894958496,34.48944389820099" stroke="white" stroke-width="0.1" /></svg>