<?xml version="1.0" encoding="utf-8" ?>
<svg baseProfile="full" height="100.0" version="1.1" width="82.0748507976532" xmlns="http://www.w3.org/2000/svg" xmlns:ev="http://www.w3.org/2001/xml-events" xmlns:xlink="http://www.w3.org/1999/xlink"><defs><clipPath /></defs><polygon points="9.4430111348629,28.03432047367096 9.4430111348629,28.03432047367096 4.39976304769516,22.49232828617096 4.39976304769516,22.49232828617096 4.0615081787109375,22.022956609725952 4.0615081787109375,22.022956609725952 3.8427628576755524,21.50399386882782 3.8427628576755524,21.50399386882782 3.74472513794899,20.95642238855362 3.74472513794899,20.95642238855362 3.7686213850975037,20.400947332382202 3.7686213850975037,20.400947332382202 3.9156369864940643,19.858524203300476 3.9156369864940643,19.858524203300476 4.18701209127903,19.3498894572258 4.18701209127903,19.3498894572258 4.453904554247856,19.023896753787994 4.453904554247856,19.023896753787994 4.7631945461034775,18.75193566083908 4.7631945461034775,18.75193566083908 5.1075529307127,18.53637844324112 5.1075529307127,18.53637844324112 5.479676648974419,18.379512429237366 5.479676648974419,18.379512429237366 5.87223619222641,18.283681571483612 5.87223619222641,18.283681571483612 6.27790242433548,18.2512566447258 6.27790242433548,18.2512566447258 6.432601809501648,18.256215751171112 6.432601809501648,18.256215751171112 6.587791442871094,18.271011114120483 6.587791442871094,18.271011114120483 6.74307718873024,18.29572468996048 6.74307718873024,18.29572468996048 6.898076832294464,18.330274522304535 6.898076832294464,18.330274522304535 7.05239474773407,18.374744057655334 7.05239474773407,18.374744057655334 7.20563679933548,18.42913031578064 7.20563679933548,18.42913031578064 23.32763820886612,24.79073703289032 23.32763820886612,24.79073703289032 23.20382297039032,13.52887898683548 23.20382297039032,13.52887898683548 23.123033344745636,12.956047058105469 23.123033344745636,12.956047058105469 23.171336948871613,12.394333630800247 23.171336948871613,12.394333630800247 23.34006279706955,11.8630550801754 23.34006279706955,11.8630550801754 23.620545864105225,11.381449550390244 23.620545864105225,11.381449550390244 24.00411367416382,10.968862473964691 24.00411367416382,10.968862473964691 24.48207437992096,10.64453199505806 24.48207437992096,10.64453199505806 24.67038333415985,10.55406853556633 24.67038333415985,10.55406853556633 24.863141775131226,10.481126606464386 24.863141775131226,10.481126606464386 25.05929172039032,10.42524129152298 25.05929172039032,10.42524129152298 25.257772207260132,10.385922342538834 25.257772207260132,10.385922342538834 25.45751929283142,10.36268025636673 25.45751929283142,10.36268025636673 25.65743625164032,10.35505086183548 25.65743625164032,10.35505086183548 26.01548731327057,10.380173474550247 26.01548731327057,10.380173474550247 26.365825533866882,10.45488640666008 26.365825533866882,10.45488640666008 26.70310139656067,10.5782650411129 26.70310139656067,10.5782650411129 27.021920680999756,10.749245434999466 27.021920680999756,10.749245434999466 27.31689214706421,10.967010259628296 27.31689214706421,10.967010259628296 27.58266031742096,11.23046949505806 27.58266031742096,11.23046949505806 34.65401828289032,18.84416937828064 34.65401828289032,18.84416937828064 38.58642876148224,1.96010060608387 38.58642876148224,1.96010060608387 38.77926170825958,1.4152799732983112 38.77926170825958,1.4152799732983112 39.081624150276184,0.940377451479435 39.081624150276184,0.940377451479435 39.47688639163971,0.548444502055645 39.47688639163971,0.548444502055645 39.948466420173645,0.2523694885894656 39.948466420173645,0.2523694885894656 40.47969579696655,0.06523132906295359 40.47969579696655,0.06523132906295359 41.05399250984192,0.0 41.05399250984192,0.0 41.62830710411072,0.06528582307510078 41.62830710411072,0.06528582307510078 42.15966761112213,0.2524239709600806 42.15966761112213,0.2524239709600806 42.63153374195099,0.548444502055645 42.63153374195099,0.548444502055645 43.0274099111557,0.9403501637279987 43.0274099111557,0.9403501637279987 43.33074688911438,1.4152527786791325 43.33074688911438,1.4152527786791325 43.52504312992096,1.96010060608387 43.52504312992096,1.96010060608387 47.45047688484192,18.84416937828064 47.45047688484192,18.84416937828064 56.62841796875,11.66992262005806 56.62841796875,11.66992262005806 56.89343214035034,11.405972391366959 56.89343214035034,11.405972391366959 57.18781352043152,11.186927556991577 57.18781352043152,11.186927556991577 57.50601887702942,11.01423054933548 57.50601887702942,11.01423054933548 57.8425407409668,10.889190435409546 57.8425407409668,10.889190435409546 58.19184184074402,10.813141614198685 58.19184184074402,10.813141614198685 58.54841470718384,10.78752875328064 58.54841470718384,10.78752875328064 58.74980092048645,10.795430094003677 58.74980092048645,10.795430094003677 58.95046591758728,10.819299519062042 58.95046591758728,10.819299519062042 59.14939045906067,10.85946261882782 59.14939045906067,10.85946261882782 59.345561265945435,10.916165262460709 59.345561265945435,10.916165262460709 59.53793525695801,10.989734530448914 59.53793525695801,10.989734530448914 59.72551703453064,11.08049750328064 59.72551703453064,11.08049750328064 60.204219818115234,11.40485554933548 60.204219818115234,11.40485554933548 60.588276386260986,11.817333102226257 60.588276386260986,11.817333102226257 60.86905598640442,12.29858472943306 60.86905598640442,12.29858472943306 61.03794574737549,12.829236686229706 61.03794574737549,12.829236686229706 61.08630299568176,13.389968872070312 61.08630299568176,13.389968872070312 61.0055148601532,13.96135687828064 61.0055148601532,13.96135687828064 58.77685546875,24.79073703289032 58.77685546875,24.79073703289032 74.90234971046448,18.42913031578064 74.90234971046448,18.42913031578064 75.05584359169006,18.374797701835632 75.05584359169006,18.374797701835632 75.21069049835205,18.330329656600952 75.21069049835205,18.330329656600952 75.36621689796448,18.29572468996048 75.36621689796448,18.29572468996048 75.5217432975769,18.270984292030334 75.5217432975769,18.270984292030334 75.67659616470337,18.256188929080963 75.67659616470337,18.256188929080963 75.83008408546448,18.2512566447258 75.83008408546448,18.2512566447258 76.2341856956482,18.28370839357376 76.2341856956482,18.28370839357376 76.62676572799683,18.379539251327515 76.62676572799683,18.379539251327515 76.9997775554657,18.53637844324112 76.9997775554657,18.53637844324112 77.34518647193909,18.751908838748932 77.34518647193909,18.751908838748932 77.6549220085144,19.023841619491577 77.6549220085144,19.023841619491577 77.92097330093384,19.3498894572258 77.92097330093384,19.3498894572258 78.19331884384155,19.858552515506744 78.19331884384155,19.858552515506744 78.34020853042603,20.40097415447235 78.34020853042603,20.40097415447235 78.36347818374634,20.95642238855362 78.36347818374634,20.95642238855362 78.26497554779053,21.50399386882782 78.26497554779053,21.50399386882782 78.04651856422424,22.022929787635803 78.04651856422424,22.022929787635803 77.70996689796448,22.49232828617096 77.70996689796448,22.49232828617096 72.37898111343384,28.35519015789032 72.37898111343384,28.35519015789032 71.41782641410828,28.755134344100952 71.41782641410828,28.755134344100952 70.49219012260437,29.245704412460327 70.49219012260437,29.245704412460327 69.60907578468323,29.8252671957016 69.60907578468323,29.8252671957016 68.7755286693573,30.491966009140015 68.7755286693573,30.491966009140015 67.99853444099426,31.244170665740967 67.99853444099426,31.244170665740967 67.28516221046448,32.080078125 67.28516221046448,32.080078125 59.82317328453064,41.75502359867096 59.82317328453064,41.75502359867096 58.2369327545166,37.77705729007721 58.2369327545166,37.77705729007721 55.8682918548584,34.27889943122864 55.8682918548584,34.27889943122864 52.825927734375,31.3690185546875 52.825927734375,31.3690185546875 49.218568205833435,29.15578782558441 49.218568205833435,29.15578782558441 45.154887437820435,27.74767279624939 45.154887437820435,27.74767279624939 40.74358344078064,27.25307047367096 40.74358344078064,27.25307047367096 36.399924755096436,27.732276916503906 36.399924755096436,27.732276916503906 32.39229917526245,29.09742295742035 32.39229917526245,29.09742295742035 28.82363498210907,31.24520480632782 28.82363498210907,31.24520480632782 25.796890258789062,34.07216966152191 25.796890258789062,34.07216966152191 23.414981365203857,37.47509717941284 23.414981365203857,37.47509717941284 21.78083211183548,41.35044813156128 21.78083211183548,41.35044813156128 14.97802734375,32.06961750984192 14.97802734375,32.06961750984192 14.219257235527039,31.14316165447235 14.219257235527039,31.14316165447235 13.382585346698761,30.315017700195312 13.382585346698761,30.315017700195312 12.47733011841774,29.58766520023346 12.47733011841774,29.58766520023346 11.512798070907593,28.963443636894226 11.512798070907593,28.963443636894226 10.498251765966415,28.444835543632507 10.498251765966415,28.444835543632507" stroke="white" stroke-width="0.1" /><polygon points="64.52288031578064,67.82227158546448 64.52288031578064,67.82227158546448 68.04226040840149,69.20019388198853 68.04226040840149,69.20019388198853 71.62311673164368,72.13281989097595 71.62311673164368,72.13281989097595 73.70104193687439,76.64969563484192 73.70104193687439,76.64969563484192 72.71168231964111,82.78015851974487 72.71168231964111,82.78015851974487 67.09060072898865,90.55377840995789 67.09060072898865,90.55377840995789 55.2734375,100.0 55.2734375,100.0 43.45567226409912,90.55383205413818 43.45567226409912,90.55383205413818 37.834373116493225,82.78018832206726 37.834373116493225,82.78018832206726 36.84496283531189,76.64969563484192 36.84496283531189,76.64969563484192 38.92287015914917,72.13279604911804 38.92287015914917,72.13279604911804 42.50349402427673,69.20016407966614 42.50349402427673,69.20016407966614 46.02225422859192,67.82227158546448 46.02225422859192,67.82227158546448 46.29863500595093,67.7713692188263 46.29863500595093,67.7713692188263 46.57143950462341,67.73017048835754 46.57143950462341,67.73017048835754 46.84056043624878,67.69845485687256 46.84056043624878,67.69845485687256 47.10591435432434,67.67600178718567 47.10591435432434,67.67600178718567 47.36737012863159,67.66273379325867 47.36737012863159,67.66273379325867 47.62486219406128,67.6583468914032 47.62486219406128,67.6583468914032 49.39141571521759,67.86019802093506 49.39141571521759,67.86019802093506 50.98315477371216,68.39411854743958 50.98315477371216,68.39411854743958 52.38364338874817,69.15283799171448 52.38364338874817,69.15283799171448 53.576481342315674,70.02890706062317 53.576481342315674,70.02890706062317 54.54521179199219,70.91514468193054 54.54521179199219,70.91514468193054 55.2734375,71.70410752296448 55.2734375,71.70410752296448 56.00118637084961,70.91516852378845 56.00118637084961,70.91516852378845 56.97009563446045,70.02896070480347 56.97009563446045,70.02896070480347 58.1634521484375,69.15283799171448 58.1634521484375,69.15283799171448 59.56463813781738,68.39406490325928 59.56463813781738,68.39406490325928 61.15695834159851,67.86014437675476 61.15695834159851,67.86014437675476 62.92375922203064,67.6583468914032 62.92375922203064,67.6583468914032 63.182443380355835,67.66275763511658 63.182443380355835,67.66275763511658 63.44413757324219,67.67605543136597 63.44413757324219,67.67605543136597 63.70893716812134,67.69845485687256 63.70893716812134,67.69845485687256 63.97693157196045,67.73011684417725 63.97693157196045,67.73011684417725 64.24821615219116,67.77134537696838 64.24821615219116,67.77134537696838" stroke="white" stroke-width="0.1" /><polygon points="55.2734375,95.81473469734192 55.2734375,95.81473469734192 61.54293417930603,90.99671840667725 61.54293417930603,90.99671840667725 65.82050323486328,86.84856295585632 65.82050323486328,86.84856295585632 68.46815347671509,83.37010145187378 68.46815347671509,83.37010145187378 69.8478639125824,80.56095838546753 69.8478639125824,80.56095838546753 70.32163739204407,78.4209132194519 70.32163739204407,78.4209132194519 70.25147080421448,76.94963812828064 70.25147080421448,76.94963812828064 69.66284513473511,75.3548800945282 69.66284513473511,75.3548800945282 68.67275834083557,74.01401400566101 68.67275834083557,74.01401400566101 67.43775010108948,72.9287326335907 67.43775010108948,72.9287326335907 66.11438989639282,72.1006453037262 66.11438989639282,72.1006453037262 64.85922336578369,71.53146266937256 64.85922336578369,71.53146266937256 63.82882595062256,71.2228000164032 63.82882595062256,71.2228000164032 63.67676854133606,71.19402289390564 63.67676854133606,71.19402289390564 63.52442502975464,71.17048501968384 63.52442502975464,71.17048501968384 63.37236762046814,71.15217447280884 63.37236762046814,71.15217447280884 63.221198320388794,71.13906741142273 63.221198320388794,71.13906741142273 63.071465492248535,71.1312472820282 63.071465492248535,71.1312472820282 62.92375922203064,71.12863063812256 62.92375922203064,71.12863063812256 61.78920269012451,71.27882242202759 61.78920269012451,71.27882242202759 60.744261741638184,71.67206406593323 60.744261741638184,71.67206406593323 59.8114013671875,72.22246527671814 59.8114013671875,72.22246527671814 59.01312828063965,72.84404635429382 59.01312828063965,72.84404635429382 58.37188959121704,73.45096468925476 58.37188959121704,73.45096468925476 57.91015625,73.9571750164032 57.91015625,73.9571750164032 55.2734375,77.04032063484192 55.2734375,77.04032063484192 52.64021158218384,73.9571750164032 52.64021158218384,73.9571750164032 52.177512645721436,73.45096468925476 52.177512645721436,73.45096468925476 51.53524875640869,72.84407019615173 51.53524875640869,72.84407019615173 50.73612928390503,72.22246527671814 50.73612928390503,72.22246527671814 49.80289936065674,71.67206406593323 49.80289936065674,71.67206406593323 48.75822961330414,71.2787926197052 48.75822961330414,71.2787926197052 47.62486219406128,71.12863063812256 47.62486219406128,71.12863063812256 47.47582972049713,71.1312472820282 47.47582972049713,71.1312472820282 47.32550382614136,71.13909125328064 47.32550382614136,71.13909125328064 47.17429280281067,71.15217447280884 47.17429280281067,71.15217447280884 47.022658586502075,71.17045521736145 47.022658586502075,71.17045521736145 46.871018409729004,71.19402289390564 46.871018409729004,71.19402289390564 46.7197984457016,71.2228000164032 46.7197984457016,71.2228000164032 45.69061994552612,71.53149247169495 45.69061994552612,71.53149247169495 44.43591833114624,72.1006691455841 44.43591833114624,72.1006691455841 43.1126207113266,72.9287326335907 43.1126207113266,72.9287326335907 41.877681016922,74.01398420333862 41.877681016922,74.01398420333862 40.88803827762604,75.35485029220581 40.88803827762604,75.35485029220581 40.30064344406128,76.94963812828064 40.30064344406128,76.94963812828064 40.23008644580841,78.4209132194519 40.23008644580841,78.4209132194519 40.702903270721436,80.56098818778992 40.702903270721436,80.56098818778992 42.08134412765503,83.37010145187378 42.08134412765503,83.37010145187378 44.727736711502075,86.84853315353394 44.727736711502075,86.84853315353394 49.004340171813965,90.99666476249695 49.004340171813965,90.99666476249695" stroke="white" stroke-width="0.1" /><polygon points="79.77818250656128,35.75265109539032 79.77818250656128,35.75265109539032 80.93785047531128,36.94087564945221 80.93785047531128,36.94087564945221 81.70631527900696,38.36315870285034 81.70631527900696,38.36315870285034 82.0748507976532,39.93443250656128 82.0748507976532,39.93443250656128 82.03474879264832,41.569602489471436 82.03474879264832,41.569602489471436 81.57727718353271,43.183737993240356 81.57727718353271,43.183737993240356 80.69370985031128,44.69168782234192 80.69370985031128,44.69168782234192 66.11154079437256,63.59165906906128 66.11154079437256,63.59165906906128 66.03185534477234,63.56931924819946 66.03185534477234,63.56931924819946 65.9518837928772,63.54746222496033 65.9518837928772,63.54746222496033 65.8721923828125,63.5262668132782 65.8721923828125,63.5262668132782 65.79338908195496,63.50558400154114 65.79338908195496,63.50558400154114 65.7160222530365,63.48552703857422 65.7160222530365,63.48552703857422 65.64069986343384,63.46610188484192 65.64069986343384,63.46610188484192 65.64069986343384,63.47307562828064 65.64069986343384,63.47307562828064 65.2514398097992,63.392478227615356 65.2514398097992,63.392478227615356 64.86519575119019,63.328009843826294 64.86519575119019,63.328009843826294 64.48233723640442,63.2790744304657 64.48233723640442,63.2790744304657 64.10325765609741,63.244932889938354 64.10325765609741,63.244932889938354 63.72835040092468,63.22495937347412 63.72835040092468,63.22495937347412 63.35798501968384,63.21847438812256 63.35798501968384,63.21847438812256 61.622554063797,63.37621212005615 61.622554063797,63.37621212005615 60.03890037536621,63.759422302246094 60.03890037536621,63.759422302246094 58.60530734062195,64.32234048843384 58.60530734062195,64.32234048843384 57.32010006904602,65.01887440681458 57.32010006904602,65.01887440681458 56.18155598640442,65.80325961112976 56.18155598640442,65.80325961112976 55.18798828125,66.62946939468384 55.18798828125,66.62946939468384 54.19529676437378,65.80328345298767 54.19529676437378,65.80328345298767 53.05757522583008,65.01890420913696 53.05757522583008,65.01890420913696 51.7730712890625,64.32234048843384 51.7730712890625,64.32234048843384 50.340062379837036,63.759422302246094 50.340062379837036,63.759422302246094 48.75677824020386,63.376182317733765 48.75677824020386,63.376182317733765 47.02148735523224,63.21847438812256 47.02148735523224,63.21847438812256 46.65137231349945,63.22501301765442 46.65137231349945,63.22501301765442 46.27704918384552,63.244932889938354 46.27704918384552,63.244932889938354 45.89865803718567,63.2790744304657 45.89865803718567,63.2790744304657 45.516350865364075,63.327956199645996 45.516350865364075,63.327956199645996 45.13024687767029,63.39244842529297 45.13024687767029,63.39244842529297 44.74051594734192,63.47307562828064 44.74051594734192,63.47307562828064 43.57629120349884,63.7917160987854 43.57629120349884,63.7917160987854 42.34696924686432,64.24901485443115 42.34696924686432,64.24901485443115 41.07578992843628,64.8507297039032 41.07578992843628,64.8507297039032 39.78602588176727,65.6023621559143 39.78602588176727,65.6023621559143 38.500890135765076,66.50962829589844 38.500890135765076,66.50962829589844 37.24365532398224,67.57813096046448 37.24365532398224,67.57813096046448 36.05981767177582,68.81155371665955 36.05981767177582,68.81155371665955 34.98503267765045,70.23628950119019 34.98503267765045,70.23628950119019 34.06699299812317,71.84492349624634 34.06699299812317,71.84492349624634 33.35343897342682,73.62992763519287 33.35343897342682,73.62992763519287 32.89203643798828,75.58397650718689 32.89203643798828,75.58397650718689 32.7305406332016,77.69950032234192 32.7305406332016,77.69950032234192 33.0497145652771,80.69027662277222 33.0497145652771,80.69027662277222 33.97836983203888,83.82784128189087 33.97836983203888,83.82784128189087 35.57521402835846,87.12289333343506 35.57521402835846,87.12289333343506 37.89896368980408,90.5862033367157 37.89896368980408,90.5862033367157 41.00831747055054,94.22861337661743 41.00831747055054,94.22861337661743 44.9619859457016,98.06082844734192 44.9619859457016,98.06082844734192 27.99246907234192,98.06082844734192 27.99246907234192,98.06082844734192 25.492191314697266,97.7201759815216 25.492191314697266,97.7201759815216 23.28566312789917,96.75949811935425 23.28566312789917,96.75949811935425 21.45909070968628,95.27108669281006 21.45909070968628,95.27108669281006 20.09872794151306,93.3469295501709 20.09872794151306,93.3469295501709 19.290761649608612,91.07933640480042 19.290761649608612,91.07933640480042 19.12144273519516,88.56027126312256 19.12144273519516,88.56027126312256 20.39620578289032,70.0509250164032 20.39620578289032,70.0509250164032 20.3968808054924,70.03176808357239 20.3968808054924,70.03176808357239 20.39872705936432,70.01269459724426 20.39872705936432,70.01269459724426 20.40143758058548,69.99381184577942 20.40143758058548,69.99381184577942 20.404748618602753,69.97517347335815 20.404748618602753,69.97517347335815 20.408330857753754,69.95697617530823 20.408330857753754,69.95697617530823 20.4119011759758,69.93931531906128 20.4119011759758,69.93931531906128 20.181111991405487,69.7519600391388 20.181111991405487,69.7519600391388 19.95663046836853,69.55528855323792 19.95663046836853,69.55528855323792 19.73920613527298,69.34815049171448 19.73920613527298,69.34815049171448 19.529643654823303,69.1293478012085 19.529643654823303,69.1293478012085 19.328691065311432,68.89782547950745 19.328691065311432,68.89782547950745 19.13713812828064,68.65234971046448 19.13713812828064,68.65234971046448 1.3131278567016125,44.35337781906128 1.3131278567016125,44.35337781906128 0.4676682874560356,42.823031544685364 0.4676682874560356,42.823031544685364 0.05134855164214969,41.1971241235733 0.05134855164214969,41.1971241235733 0.05296979798004031,39.5603746175766 0.05296979798004031,39.5603746175766 0.46136039309203625,37.99740970134735 0.46136039309203625,37.99740970134735 1.2653078883886337,36.59302890300751 1.2653078883886337,36.59302890300751 2.453613467514515,35.43178141117096 2.453613467514515,35.43178141117096 3.918825089931488,34.64742600917816 3.918825089931488,34.64742600917816 5.499690026044846,34.30372178554535 5.499690026044846,34.30372178554535 7.11212158203125,34.38546359539032 7.11212158203125,34.38546359539032 8.672115206718445,34.87758934497833 8.672115206718445,34.87758934497833 10.095569491386414,35.76502203941345 10.095569491386414,35.76502203941345 11.2984798848629,37.03264594078064 11.2984798848629,37.03264594078064 28.6900132894516,60.7491672039032 28.6900132894516,60.7491672039032 28.982967138290405,60.69309115409851 28.982967138290405,60.69309115409851 29.277625679969788,60.64674258232117 29.277625679969788,60.64674258232117 29.57393229007721,60.61009168624878 29.57393229007721,60.61009168624878 29.871845245361328,60.58298349380493 29.871845245361328,60.58298349380493 30.171293020248413,60.56545972824097 30.171293020248413,60.56545972824097 30.4722398519516,60.55734157562256 30.4722398519516,60.55734157562256 29.045793414115906,59.06808376312256 29.045793414115906,59.06808376312256 27.82939076423645,57.3974609375 27.82939076423645,57.3974609375 26.84500813484192,55.56640625 26.84500813484192,55.56640625 26.114654541015625,53.59581708908081 26.114654541015625,53.59581708908081 25.66031813621521,51.50664448738098 25.66031813621521,51.50664448738098 25.5039781332016,49.3198961019516 25.5039781332016,49.3198961019516 26.048266887664795,45.26754319667816 26.048266887664795,45.26754319667816 27.584335207939148,41.6264683008194 27.584335207939148,41.6264683008194 29.96695637702942,38.54195773601532 29.96695637702942,38.54195773601532 33.05090069770813,36.15899980068207 33.05090069770813,36.15899980068207 36.6909384727478,34.62282121181488 36.6909384727478,34.62282121181488 40.74184000492096,34.07854437828064 40.74184000492096,34.07854437828064 44.79421377182007,34.62287485599518 44.79421377182007,34.62287485599518 48.43524694442749,36.15902662277222 48.43524694442749,36.15902662277222 51.519775390625,38.54195773601532 51.519775390625,38.54195773601532 53.90271544456482,41.6264683008194 53.90271544456482,41.6264683008194 55.43888211250305,45.267462730407715 55.43888211250305,45.267462730407715 55.98319172859192,49.3198961019516 55.98319172859192,49.3198961019516 55.82661032676697,51.50669813156128 55.82661032676697,51.50669813156128 55.37174344062805,53.5958468914032 55.37174344062805,53.5958468914032 54.64085340499878,55.56640625 54.64085340499878,55.56640625 53.6562442779541,57.3974072933197 53.6562442779541,57.3974072933197 52.44017839431763,59.06808376312256 52.44017839431763,59.06808376312256 51.01493000984192,60.55734157562256 51.01493000984192,60.55734157562256 51.295626163482666,60.56545972824097 51.295626163482666,60.56545972824097 51.57593488693237,60.582518577575684 51.57593488693237,60.582518577575684 51.85546875,60.60835123062134 51.85546875,60.60835123062134 52.13385820388794,60.64257025718689 52.13385820388794,60.64257025718689 52.41066813468933,60.68491339683533 52.41066813468933,60.68491339683533 52.685546875,60.73521375656128 52.685546875,60.73521375656128 70.88972330093384,37.13030219078064 70.88972330093384,37.13030219078064 72.12541699409485,35.893794894218445 72.12541699409485,35.893794894218445 73.57197999954224,35.04243791103363 73.57197999954224,35.04243791103363 75.14496445655823,34.58949625492096 75.14496445655823,34.58949625492096 76.75995230674744,34.54807996749878 76.75995230674744,34.54807996749878 78.33250761032104,34.931403398513794 78.33250761032104,34.931403398513794" stroke="white" stroke-width="0.1" /></svg>