<?xml version="1.0" encoding="utf-8" ?>
<svg baseProfile="full" height="16.31457209587097" version="1.1" width="58.5710883140564" xmlns="http://www.w3.org/2000/svg" xmlns:ev="http://www.w3.org/2001/xml-events" xmlns:xlink="http://www.w3.org/1999/xlink"><defs><clipPath /></defs><polygon points="40.74411392211914,15.757949650287628 40.74411392211914,15.757949650287628 40.55511653423309,15.752202272415161 40.55511653423309,15.752202272415161 40.37771224975586,15.729264914989471 40.37771224975586,15.729264914989471 40.215566754341125,15.680640935897827 40.215566754341125,15.680640935897827 40.07193744182587,15.597788989543915 40.07193744182587,15.597788989543915 39.95078504085541,15.472365915775299 39.95078504085541,15.472365915775299 39.85547125339508,15.29572606086731 39.85547125339508,15.29572606086731 39.504632353782654,14.411507546901703 39.504632353782654,14.411507546901703 39.13385570049286,13.40186595916748 39.13385570049286,13.40186595916748 38.809365034103394,12.324224412441254 38.809365034103394,12.324224412441254 38.59676420688629,11.235976964235306 38.59676420688629,11.235976964235306 38.56217861175537,10.194598883390427 38.56217861175537,10.194598883390427 38.7715220451355,9.257511049509048 38.7715220451355,9.257511049509048 39.363545179367065,8.455611020326614 39.363545179367065,8.455611020326614 40.270090103149414,7.937516272068024 40.270090103149414,7.937516272068024 41.369909048080444,7.639317959547043 41.369909048080444,7.639317959547043 42.540523409843445,7.497085630893707 42.540523409843445,7.497085630893707 43.6605840921402,7.446911185979843 43.6605840921402,7.446911185979843 44.607922434806824,7.424888014793396 44.607922434806824,7.424888014793396 44.81767117977142,7.418683171272278 44.81767117977142,7.418683171272278 45.026811957359314,7.413190603256226 45.026811957359314,7.413190603256226 45.23575007915497,7.408612966537476 45.23575007915497,7.408612966537476 45.44427990913391,7.405077666044235 45.44427990913391,7.405077666044235 45.652708411216736,7.4028655886650085 45.652708411216736,7.4028655886650085 45.86113691329956,7.4021026492118835 45.86113691329956,7.4021026492118835 46.95118963718414,7.422955334186554 46.95118963718414,7.422955334186554 48.0355441570282,7.491669058799744 48.0355441570282,7.491669058799744 49.11176264286041,7.6177529990673065 49.11176264286041,7.6177529990673065 50.17729997634888,7.810541987419128 50.17729997634888,7.810541987419128 51.229918003082275,8.079469203948975 51.229918003082275,8.079469203948975 52.267175912857056,8.43397006392479 52.267175912857056,8.43397006392479 53.392016887664795,8.882410824298859 53.392016887664795,8.882410824298859 54.52876091003418,9.383594989776611 54.52876091003418,9.383594989776611 55.63620924949646,9.960612654685974 55.63620924949646,9.960612654685974 56.67306184768677,10.636326670646667 56.67306184768677,10.636326670646667 57.59822130203247,11.4337757229805 57.59822130203247,11.4337757229805 58.3704948425293,12.375898659229279 58.3704948425293,12.375898659229279 58.50456357002258,12.617869675159454 58.50456357002258,12.617869675159454 58.5710883140564,12.841378152370453 58.5710883140564,12.841378152370453 58.55562686920166,13.035057485103607 58.55562686920166,13.035057485103607 58.44322443008423,13.187487423419952 58.44322443008423,13.187487423419952 58.21923613548279,13.287301361560822 58.21923613548279,13.287301361560822 57.86920785903931,13.323134183883667 57.86920785903931,13.323134183883667 57.58306384086609,13.471901416778564 57.58306384086609,13.471901416778564 57.39142298698425,13.852520287036896 57.39142298698425,13.852520287036896 57.274746894836426,14.366394281387329 57.274746894836426,14.366394281387329 57.2130024433136,14.914955198764801 57.2130024433136,14.914955198764801 57.186758518218994,15.399736166000366 57.186758518218994,15.399736166000366 57.17586874961853,15.722143650054932 57.17586874961853,15.722143650054932 57.15959668159485,16.31457209587097 57.15959668159485,16.31457209587097 55.56846261024475,16.269966959953308 55.56846261024475,16.269966959953308 52.423423528671265,16.165906190872192 52.423423528671265,16.165906190872192 48.5465943813324,16.032598912715912 48.5465943813324,16.032598912715912 44.75969076156616,15.900056064128876 44.75969076156616,15.900056064128876 41.884925961494446,15.798486769199371 41.884925961494446,15.798486769199371" stroke="white" stroke-width="0.1" /></svg>