<?xml version="1.0" encoding="utf-8" ?>
<svg baseProfile="full" height="14.634940028190613" version="1.1" width="34.85889136791229" xmlns="http://www.w3.org/2000/svg" xmlns:ev="http://www.w3.org/2001/xml-events" xmlns:xlink="http://www.w3.org/1999/xlink"><defs><clipPath /></defs><polygon points="31.834900379180908,14.634940028190613 31.834900379180908,14.634940028190613 31.538277864456177,14.632295072078705 31.538277864456177,14.632295072078705 31.245726346969604,14.625529944896698 31.245726346969604,14.625529944896698 30.960091948509216,14.616629481315613 30.960091948509216,14.616629481315613 30.683407187461853,14.607423543930054 30.683407187461853,14.607423543930054 30.418726801872253,14.599896967411041 30.418726801872253,14.599896967411041 30.168288946151733,14.59587812423706 30.168288946151733,14.59587812423706 29.38868999481201,14.584256708621979 29.38868999481201,14.584256708621979 28.191018104553223,14.520145952701569 28.191018104553223,14.520145952701569 26.85662806034088,14.345236122608185 26.85662806034088,14.345236122608185 25.66668391227722,14.001008868217468 25.66668391227722,14.001008868217468 24.902956187725067,13.429152965545654 24.902956187725067,13.429152965545654 24.846196174621582,12.571205198764801 24.846196174621582,12.571205198764801 25.497418642044067,11.550857871770859 25.497418642044067,11.550857871770859 26.510977745056152,10.716763138771057 26.510977745056152,10.716763138771057 27.756255865097046,10.050128400325775 27.756255865097046,10.050128400325775 29.102343320846558,9.532108902931213 29.102343320846558,9.532108902931213 30.418726801872253,9.143989533185959 30.418726801872253,9.143989533185959 31.574490666389465,8.866898715496063 31.574490666389465,8.866898715496063 31.74111247062683,8.825498074293137 31.74111247062683,8.825498074293137 31.952083110809326,8.772144466638565 31.952083110809326,8.772144466638565 32.19458758831024,8.715536445379257 32.19458758831024,8.715536445379257 32.455405592918396,8.664319664239883 32.455405592918396,8.664319664239883 32.72181451320648,8.627267181873322 32.72181451320648,8.627267181873322 32.980695366859436,8.613000810146332 32.980695366859436,8.613000810146332 33.130836486816406,8.619307726621628 33.130836486816406,8.619307726621628 33.26999247074127,8.63952487707138 33.26999247074127,8.63952487707138 33.39572250843048,8.67566168308258 33.39572250843048,8.67566168308258 33.504971861839294,8.729701489210129 33.504971861839294,8.729701489210129 33.5955023765564,8.803627640008926 33.5955023765564,8.803627640008926 33.664268255233765,8.899449557065964 33.664268255233765,8.899449557065964 33.937084674835205,9.455715864896774 33.937084674835205,9.455715864896774 34.185898303985596,10.03354787826538 34.185898303985596,10.03354787826538 34.406837821006775,10.627502202987671 34.406837821006775,10.627502202987671 34.59532856941223,11.231984943151474 34.59532856941223,11.231984943151474 34.74750518798828,11.841604113578796 34.74750518798828,11.841604113578796 34.85889136791229,12.450766563415527 34.85889136791229,12.450766563415527 34.84627604484558,13.278274238109589 34.84627604484558,13.278274238109589 34.5624715089798,13.86912614107132 34.5624715089798,13.86912614107132 34.06342566013336,14.261823892593384 34.06342566013336,14.261823892593384 33.40508043766022,14.494690299034119 33.40508043766022,14.494690299034119 32.64348804950714,14.606279134750366 32.64348804950714,14.606279134750366" stroke="white" stroke-width="0.1" /></svg>