<?xml version="1.0" encoding="utf-8" ?>
<svg baseProfile="full" height="71.0519015789032" version="1.1" width="100.0" xmlns="http://www.w3.org/2000/svg" xmlns:ev="http://www.w3.org/2001/xml-events" xmlns:xlink="http://www.w3.org/1999/xlink"><defs><clipPath /></defs><polygon points="16.09235554933548,57.4288547039032 16.09235554933548,57.4288547039032 17.83444583415985,57.56326913833618 17.83444583415985,57.56326913833618 19.447408616542816,58.12405347824097 19.447408616542816,58.12405347824097 20.86312472820282,59.0545654296875 20.86312472820282,59.0545654296875 22.01348841190338,60.298049449920654 22.01348841190338,60.298049449920654 22.830364108085632,61.797934770584106 22.830364108085632,61.797934770584106 23.24567586183548,63.49748969078064 23.24567586183548,63.49748969078064 23.169368505477905,65.43399691581726 23.169368505477905,65.43399691581726 22.566087543964386,67.21851229667664 22.566087543964386,67.21851229667664 21.51511162519455,68.76177191734314 21.51511162519455,68.76177191734314 20.095758140087128,69.9745774269104 20.095758140087128,69.9745774269104 18.38730424642563,70.76767683029175 18.38730424642563,70.76767683029175 16.4690300822258,71.0519015789032 16.4690300822258,71.0519015789032 14.677238464355469,70.80454230308533 14.677238464355469,70.80454230308533 13.05430382490158,70.1088011264801 13.05430382490158,70.1088011264801 11.67014017701149,69.03425455093384 11.67014017701149,69.03425455093384 10.594817996025085,67.65044331550598 10.594817996025085,67.65044331550598 9.898281842470169,66.02696180343628 9.898281842470169,66.02696180343628 9.6505306661129,64.2333984375 9.6505306661129,64.2333984375 9.880039095878601,62.50476837158203 9.880039095878601,62.50476837158203 10.528156161308289,60.926902294158936 10.528156161308289,60.926902294158936 11.53411939740181,59.5650851726532 11.53411939740181,59.5650851726532 12.837301194667816,58.48454236984253 12.837301194667816,58.48454236984253 14.37692642211914,57.75076150894165 14.37692642211914,57.75076150894165" stroke="white" stroke-width="0.1" /><polygon points="55.6588351726532,57.4288547039032 55.6588351726532,57.4288547039032 57.33734369277954,57.55116939544678 57.33734369277954,57.55116939544678 58.90106558799744,58.070212602615356 58.90106558799744,58.070212602615356 60.2874755859375,58.93685817718506 60.2874755859375,58.93685817718506 61.43411993980408,60.10197401046753 61.43411993980408,60.10197401046753 62.27848529815674,61.51651740074158 62.27848529815674,61.51651740074158 62.75809407234192,63.13127875328064 62.75809407234192,63.13127875328064 62.7882719039917,65.06484150886536 62.7882719039917,65.06484150886536 62.28628158569336,66.87633395195007 62.28628158569336,66.87633395195007 61.3259494304657,68.47273111343384 61.3259494304657,68.47273111343384 59.981101751327515,69.76103186607361 59.981101751327515,69.76103186607361 58.325546979904175,70.64827680587769 58.325546979904175,70.64827680587769 56.43310546875,71.04143500328064 56.43310546875,71.04143500328064 54.559069871902466,70.88178992271423 54.559069871902466,70.88178992271423 52.84740924835205,70.23277878761292 52.84740924835205,70.23277878761292 51.37765407562256,69.1689670085907 51.37765407562256,69.1689670085907 50.2293586730957,67.76477694511414 50.2293586730957,67.76477694511414 49.48205351829529,66.09475612640381 49.48205351829529,66.09475612640381 49.21526312828064,64.2333984375 49.21526312828064,64.2333984375 49.44454729557037,62.50476837158203 49.44454729557037,62.50476837158203 50.09216666221619,60.926902294158936 50.09216666221619,60.926902294158936 51.09776258468628,59.5650851726532 51.09776258468628,59.5650851726532 52.40098834037781,58.48454236984253 52.40098834037781,58.48454236984253 53.94145846366882,57.75076150894165 53.94145846366882,57.75076150894165" stroke="white" stroke-width="0.1" /><polygon points="89.65367078781128,18.74302476644516 89.65367078781128,18.74302476644516 92.43822693824768,19.391877949237823 92.43822693824768,19.391877949237823 94.9193000793457,20.668111741542816 94.9193000793457,20.668111741542816 97.00644612312317,22.48186469078064 97.00644612312317,22.48186469078064 98.60924482345581,24.743163585662842 98.60924482345581,24.743163585662842 99.6372401714325,27.362224459648132 99.6372401714325,27.362224459648132 100.0,30.2490234375 100.0,30.2490234375 99.59604144096375,33.28838348388672 99.59604144096375,33.28838348388672 98.45520257949829,36.02314293384552 98.45520257949829,36.02314293384552 96.68405055999756,38.34751844406128 96.68405055999756,38.34751844406128 94.3891704082489,40.15568494796753 94.3891704082489,40.15568494796753 91.67710542678833,41.34189188480377 91.67710542678833,41.34189188480377 88.6544406414032,41.8003648519516 88.6544406414032,41.8003648519516 76.85372829437256,54.66657876968384 76.85372829437256,54.66657876968384 76.72626376152039,54.79856729507446 76.72626376152039,54.79856729507446 76.59202218055725,54.91911172866821 76.59202218055725,54.91911172866821 76.45176649093628,55.02842664718628 76.45176649093628,55.02842664718628 76.30628943443298,55.12668490409851 76.30628943443298,55.12668490409851 76.15635395050049,55.21409511566162 76.15635395050049,55.21409511566162 76.00272297859192,55.29087781906128 76.00272297859192,55.29087781906128 76.00272297859192,68.70466470718384 76.00272297859192,68.70466470718384 75.91843008995056,69.32901740074158 75.91843008995056,69.32901740074158 75.68069696426392,69.88983750343323 75.68069696426392,69.88983750343323 75.3121554851532,70.36482095718384 75.3121554851532,70.36482095718384 74.83550906181335,70.73165774345398 74.83550906181335,70.73165774345398 74.27340745925903,70.96813917160034 74.27340745925903,70.96813917160034 73.64851236343384,71.0519015789032 73.64851236343384,71.0519015789032 70.11719346046448,71.0519015789032 70.11719346046448,71.0519015789032 69.4925606250763,70.96813917160034 69.4925606250763,70.96813917160034 68.93110871315002,70.73165774345398 68.93110871315002,70.73165774345398 68.45529079437256,70.36482095718384 68.45529079437256,70.36482095718384 68.08760166168213,69.88983750343323 68.08760166168213,69.88983750343323 67.8505003452301,69.32901740074158 67.8505003452301,69.32901740074158 67.76646375656128,68.70466470718384 67.76646375656128,68.70466470718384 67.76646375656128,67.26074814796448 67.76646375656128,67.26074814796448 67.41369962692261,67.33229756355286 67.41369962692261,67.33229756355286 67.05561876296997,67.38902926445007 67.05561876296997,67.38902926445007 66.69355630874634,67.43469834327698 66.69355630874634,67.43469834327698 66.32888913154602,67.47305989265442 66.32888913154602,67.47305989265442 65.96294641494751,67.50801801681519 65.96294641494751,67.50801801681519 65.59709906578064,67.54325032234192 65.59709906578064,67.54325032234192 66.14233255386353,64.23195600509644 66.14233255386353,64.23195600509644 65.59231877326965,61.064231395721436 65.59231877326965,61.064231395721436 64.1082763671875,58.25456976890564 64.1082763671875,58.25456976890564 61.85142397880554,56.017470359802246 61.85142397880554,56.017470359802246 58.98294448852539,54.567450284957886 58.98294448852539,54.567450284957886 55.6640625,54.11900281906128 55.6640625,54.11900281906128 52.41120457649231,54.795241355895996 52.41120457649231,54.795241355895996 49.66827929019928,56.428396701812744 49.66827929019928,56.428396701812744 47.57930338382721,58.79647731781006 47.57930338382721,58.79647731781006 46.288302540779114,61.67749762535095 46.288302540779114,61.67749762535095 45.939257740974426,64.84963893890381 45.939257740974426,64.84963893890381 46.67620062828064,68.09082627296448 46.67620062828064,68.09082627296448 43.22653114795685,67.84690022468567 43.22653114795685,67.84690022468567 39.78252708911896,67.66131520271301 39.78252708911896,67.66131520271301 36.34055256843567,67.5423800945282 36.34055256843567,67.5423800945282 32.896989583969116,67.49840378761292 32.896989583969116,67.49840378761292 29.448196291923523,67.53777265548706 29.448196291923523,67.53777265548706 25.99051594734192,67.66880750656128 25.99051594734192,67.66880750656128 26.573508977890015,64.61002230644226 26.573508977890015,64.61002230644226 26.205268502235413,61.62651777267456 26.205268502235413,61.62651777267456 25.00327229499817,58.90459418296814 25.00327229499817,58.90459418296814 23.0849951505661,56.630516052246094 23.0849951505661,56.630516052246094 20.56788057088852,54.99069094657898 20.56788057088852,54.99069094657898 17.56940633058548,54.17131781578064 17.56940633058548,54.17131781578064 14.5090252161026,54.3170690536499 14.5090252161026,54.3170690536499 11.73064410686493,55.339598655700684 11.73064410686493,55.339598655700684 9.38219353556633,57.09141492843628 9.38219353556633,57.09141492843628 7.611711323261261,59.42508578300476 7.611711323261261,59.42508578300476 6.567137688398361,62.19324469566345 6.567137688398361,62.19324469566345 6.396484375,65.24832844734192 6.396484375,65.24832844734192 5.749484896659851,64.91525173187256 5.749484896659851,64.91525173187256 5.101830884814262,64.58345651626587 5.101830884814262,64.58345651626587 4.45251502096653,64.2547607421875 4.45251502096653,64.2547607421875 3.800596669316292,63.93097639083862 3.800596669316292,63.93097639083862 3.145095333456993,63.61400485038757 3.145095333456993,63.61400485038757 2.48500294983387,63.3056640625 2.48500294983387,63.3056640625 2.2140230983495712,63.20032477378845 2.2140230983495712,63.20032477378845 1.922716572880745,63.10117244720459 1.922716572880745,63.10117244720459 1.629638671875,62.99351453781128 1.629638671875,62.99351453781128 1.3534546829760075,62.862563133239746 1.3534546829760075,62.862563133239746 1.112679112702608,62.693679332733154 1.112679112702608,62.693679332733154 0.92599056661129,62.47209906578064 0.92599056661129,62.47209906578064 0.5575725343078375,61.70169711112976 0.5575725343078375,61.70169711112976 0.3136498620733619,60.84409952163696 0.3136498620733619,60.84409952163696 0.16523089725524187,59.93478298187256 0.16523089725524187,59.93478298187256 0.08340563508681953,59.00917053222656 0.08340563508681953,59.00917053222656 0.03914152039214969,58.102744817733765 0.03914152039214969,58.102744817733765 0.0034877233701990917,57.2509765625 0.0034877233701990917,57.2509765625 0.0573975732550025,56.66376352310181 0.0573975732550025,56.66376352310181 0.25234222412109375,56.2152624130249 0.25234222412109375,56.2152624130249 0.5386353004723787,55.85066080093384 0.5386353004723787,55.85066080093384 0.8666584268212318,55.51512837409973 0.8666584268212318,55.51512837409973 1.1866978369653225,55.15379309654236 1.1866978369653225,55.15379309654236 1.44914910197258,54.7119140625 1.44914910197258,54.7119140625 1.5894481912255287,54.29646968841553 1.5894481912255287,54.29646968841553 1.6816003248095512,53.850555419921875 1.6816003248095512,53.850555419921875 1.739937998354435,53.387451171875 1.739937998354435,53.387451171875 1.7788207158446312,52.92021036148071 1.7788207158446312,52.92021036148071 1.8125398084521294,52.462172508239746 1.8125398084521294,52.462172508239746 1.85546875,52.0263671875 1.85546875,52.0263671875 1.9451823085546494,51.263999938964844 1.9451823085546494,51.263999938964844 2.0768165588378906,50.355613231658936 2.0768165588378906,50.355613231658936 2.292524091899395,49.42322075366974 2.292524091899395,49.42322075366974 2.63453908264637,48.58872890472412 2.63453908264637,48.58872890472412 3.1449999660253525,47.97423481941223 3.1449999660253525,47.97423481941223 3.86614128947258,47.70159125328064 3.86614128947258,47.70159125328064 5.01926988363266,47.640830278396606 5.01926988363266,47.640830278396606 6.163978949189186,47.59567975997925 6.163978949189186,47.59567975997925 7.29413777589798,47.52066731452942 7.29413777589798,47.52066731452942 8.403696864843369,47.370368242263794 8.403696864843369,47.370368242263794 9.486471116542816,47.09936082363129 9.486471116542816,47.09936082363129 10.53641214966774,46.66225016117096 10.53641214966774,46.66225016117096 11.750943958759308,46.02347910404205 11.750943958759308,46.02347910404205 12.968063354492188,45.379287004470825 12.968063354492188,45.379287004470825 14.19176459312439,44.74400281906128 14.19176459312439,44.74400281906128 15.42607843875885,44.1319614648819 15.42607843875885,44.1319614648819 16.675010323524475,43.55752468109131 16.675010323524475,43.55752468109131 17.94259250164032,43.03501844406128 17.94259250164032,43.03501844406128 19.430379569530487,42.50580966472626 19.430379569530487,42.50580966472626 20.94474583864212,42.05197095870972 20.94474583864212,42.05197095870972 22.48033881187439,41.66870415210724 22.48033881187439,41.66870415210724 24.031776189804077,41.35104715824127 24.031776189804077,41.35104715824127 25.593677163124084,41.09431803226471 25.593677163124084,41.09431803226471 27.16064453125,40.89355766773224 27.16064453125,40.89355766773224 28.69010865688324,40.73396623134613 28.69010865688324,40.73396623134613 30.257362127304077,40.60846269130707 30.257362127304077,40.60846269130707 31.84291422367096,40.53955376148224 31.84291422367096,40.53955376148224 33.427321910858154,40.549689531326294 33.427321910858154,40.549689531326294 34.991076588630676,40.66134989261627 34.991076588630676,40.66134989261627 36.5147203207016,40.8970445394516 36.5147203207016,40.8970445394516 37.68476843833923,41.19344651699066 37.68476843833923,41.19344651699066 38.82817625999451,41.58723056316376 38.82817625999451,41.58723056316376 39.94446098804474,42.06238090991974 39.94446098804474,42.06238090991974 41.033145785331726,42.6029235124588 41.033145785331726,42.6029235124588 42.093709111213684,43.19286644458771 42.093709111213684,43.19286644458771 43.12570095062256,43.81626844406128 43.12570095062256,43.81626844406128 44.14006769657135,44.469836354255676 44.14006769657135,44.469836354255676 45.13598382472992,45.15244960784912 45.13598382472992,45.15244960784912 46.11358940601349,45.86181938648224 46.11358940601349,45.86181938648224 47.073039412498474,46.59557640552521 47.073039412498474,46.59557640552521 48.014453053474426,47.3514586687088 48.014453053474426,47.3514586687088 48.93799126148224,48.12709391117096 48.93799126148224,48.12709391117096 49.350059032440186,48.48712086677551 49.350059032440186,48.48712086677551 49.68966245651245,48.7797886133194 49.68966245651245,48.7797886133194 50.00349283218384,49.0116685628891 50.00349283218384,49.0116685628891 50.33826231956482,49.189162254333496 50.33826231956482,49.189162254333496 50.74063539505005,49.31880533695221 50.74063539505005,49.31880533695221 51.25732421875,49.40708875656128 51.25732421875,49.40708875656128 54.03589606285095,49.74370896816254 54.03589606285095,49.74370896816254 56.84305429458618,50.140029191970825 56.84305429458618,50.140029191970825 59.64922308921814,50.63302516937256 59.64922308921814,50.63302516937256 62.42489814758301,51.25969648361206 62.42489814758301,51.25969648361206 65.1404857635498,52.05710530281067 65.1404857635498,52.05710530281067 67.76646375656128,53.06222438812256 67.76646375656128,53.06222438812256 67.76646375656128,41.04701578617096 67.76646375656128,41.04701578617096 63.41860890388489,40.36957919597626 63.41860890388489,40.36957919597626 59.5187783241272,38.6478453874588 59.5187783241272,38.6478453874588 56.21970295906067,36.03385090827942 56.21970295906067,36.03385090827942 53.674137592315674,32.67955780029297 53.674137592315674,32.67955780029297 52.03477740287781,28.737041354179382 52.03477740287781,28.737041354179382 51.45438313484192,24.35826063156128 51.45438313484192,24.35826063156128 52.01011896133423,20.070920884609222 52.01011896133423,20.070920884609222 53.58209013938904,16.199956834316254 53.58209013938904,16.199956834316254 56.02744221687317,12.8862664103508 56.02744221687317,12.8862664103508 59.2033326625824,10.270677506923676 59.2033326625824,10.270677506923676 62.96690106391907,8.494118601083755 62.96690106391907,8.494118601083755 67.17529892921448,7.6974056661129 67.17529892921448,7.6974056661129 68.32969188690186,5.556542798876762 68.32969188690186,5.556542798876762 69.86175179481506,3.6913055926561356 69.86175179481506,3.6913055926561356 71.72067165374756,2.15236134827137 71.72067165374756,2.15236134827137 73.85571599006653,0.9903635829687119 73.85571599006653,0.9903635829687119 76.21609568595886,0.2560343127697706 76.21609568595886,0.2560343127697706 78.75105142593384,0.0 78.75105142593384,0.0 82.08540678024292,0.4482950549572706 82.08540678024292,0.4482950549572706 85.08204221725464,1.7133712768554688 85.08204221725464,1.7133712768554688 87.62120008468628,3.67562435567379 87.62120008468628,3.67562435567379 89.58314657211304,6.215368211269379 89.58314657211304,6.215368211269379 90.8481240272522,9.212984889745712 90.8481240272522,9.212984889745712 91.29639267921448,12.548828125 91.29639267921448,12.548828125 91.24712944030762,13.664518296718597 91.24712944030762,13.664518296718597 91.10223650932312,14.752307534217834 91.10223650932312,14.752307534217834 90.86609482765198,15.80810546875 90.86609482765198,15.80810546875 90.54304957389832,16.827884316444397 90.54304957389832,16.827884316444397 90.13745784759521,17.807552218437195 90.13745784759521,17.807552218437195" stroke="white" stroke-width="0.1" /><polygon points="19.96547281742096,48.21428656578064 19.96547281742096,48.21428656578064 20.755550265312195,48.23477864265442 20.755550265312195,48.23477864265442 21.62478417158127,48.23766648769379 21.62478417158127,48.23766648769379 22.46137410402298,48.14540445804596 22.46137410402298,48.14540445804596 23.153524100780487,47.88050055503845 23.153524100780487,47.88050055503845 23.58940839767456,47.36543595790863 23.58940839767456,47.36543595790863 23.65722805261612,46.52274250984192 23.65722805261612,46.52274250984192 23.570525646209717,46.04505896568298 23.570525646209717,46.04505896568298 23.451969027519226,45.566970109939575 23.451969027519226,45.566970109939575 23.30453097820282,45.09277641773224 23.30453097820282,45.09277641773224 23.13123494386673,44.62667405605316 23.13123494386673,44.62667405605316 22.935064136981964,44.17305290699005 22.935064136981964,44.17305290699005 22.7190300822258,43.73605251312256 22.7190300822258,43.73605251312256 22.541019320487976,43.57218146324158 22.541019320487976,43.57218146324158 22.268664836883545,43.510901927948 22.268664836883545,43.510901927948 21.9438835978508,43.52286458015442 21.9438835978508,43.52286458015442 21.608653664588928,43.578723073005676 21.608653664588928,43.578723073005676 21.304894983768463,43.64907741546631 21.304894983768463,43.64907741546631 21.07456773519516,43.7046617269516 21.07456773519516,43.7046617269516 20.164422690868378,43.92329752445221 20.164422690868378,43.92329752445221 19.127900898456573,44.2296177148819 19.127900898456573,44.2296177148819 18.06793361902237,44.63806450366974 18.06793361902237,44.63806450366974 17.087461054325104,45.16302049160004 17.087461054325104,45.16302049160004 16.28941148519516,45.818984508514404 16.28941148519516,45.818984508514404 15.77671617269516,46.62039875984192 15.77671617269516,46.62039875984192 15.822505950927734,47.29650020599365 15.822505950927734,47.29650020599365 16.42441153526306,47.747451066970825 16.42441153526306,47.747451066970825 17.36101508140564,48.01897406578064 17.36101508140564,48.01897406578064 18.410997092723846,48.15679490566254 18.410997092723846,48.15679490566254 19.3529412150383,48.20665717124939 19.3529412150383,48.20665717124939" stroke="white" stroke-width="0.1" /><polygon points="41.77769422531128,47.21679985523224 41.77769422531128,47.21679985523224 42.05332100391388,47.18838036060333 42.05332100391388,47.18838036060333 42.22897291183472,47.109198570251465 42.22897291183472,47.109198570251465 42.31654703617096,46.9883531332016 42.31654703617096,46.9883531332016 42.32799708843231,46.834948658943176 42.32799708843231,46.834948658943176 42.27518439292908,46.65811061859131 42.27518439292908,46.65811061859131 42.17006266117096,46.46693766117096 42.17006266117096,46.46693766117096 41.56206250190735,45.72595953941345 41.56206250190735,45.72595953941345 40.833884477615356,45.098716020584106 40.833884477615356,45.098716020584106 40.01792073249817,44.56700086593628 40.01792073249817,44.56700086593628 39.146602153778076,44.112563133239746 39.146602153778076,44.112563133239746 38.252320885658264,43.71727705001831 38.252320885658264,43.71727705001831 37.36746907234192,43.3628648519516 37.36746907234192,43.3628648519516 36.393365263938904,43.039241433143616 36.393365263938904,43.039241433143616 35.40206849575043,42.80959665775299 35.40206849575043,42.80959665775299 34.39701795578003,42.6609605550766 34.39701795578003,42.6609605550766 33.381661772727966,42.58030652999878 33.381661772727966,42.58030652999878 32.35940337181091,42.554694414138794 32.35940337181091,42.554694414138794 31.33370578289032,42.57115125656128 31.33370578289032,42.57115125656128 30.588504672050476,42.58731007575989 30.588504672050476,42.58731007575989 29.70733642578125,42.627063393592834 29.70733642578125,42.627063393592834 28.78614366054535,42.7403062582016 28.78614366054535,42.7403062582016 27.92092263698578,42.97676384449005 27.92092263698578,42.97676384449005 27.20758020877838,43.386244773864746 27.20758020877838,43.386244773864746 26.74211859703064,44.01855766773224 26.74211859703064,44.01855766773224 26.57785415649414,44.75381374359131 26.57785415649414,44.75381374359131 26.60512924194336,45.5723911523819 26.60512924194336,45.5723911523819 26.77220106124878,46.42857313156128 26.77220106124878,46.42857313156128 27.02735662460327,47.27658033370972 27.02735662460327,47.27658033370972 27.318820357322693,48.070746660232544 27.318820357322693,48.070746660232544 27.59486734867096,48.76534938812256 27.59486734867096,48.76534938812256 27.716726064682007,48.9598423242569 27.716726064682007,48.9598423242569 27.88092792034149,49.07030463218689 27.88092792034149,49.07030463218689 28.07835340499878,49.11978840827942 28.07835340499878,49.11978840827942 28.2999187707901,49.13114905357361 28.2999187707901,49.13114905357361 28.536471724510193,49.12741780281067 28.536471724510193,49.12741780281067 28.77894937992096,49.13156032562256 28.77894937992096,49.13156032562256 29.686138033866882,49.18976128101349 29.686138033866882,49.18976128101349 30.593928694725037,49.24264848232269 30.593928694725037,49.24264848232269 31.50199055671692,49.29068684577942 31.50199055671692,49.29068684577942 32.410070300102234,49.334338307380676 32.410070300102234,49.334338307380676 33.31784009933472,49.37417507171631 33.31784009933472,49.37417507171631 34.22502875328064,49.41057562828064 34.22502875328064,49.41057562828064 34.96502637863159,49.4358628988266 34.96502637863159,49.4358628988266 35.70453226566315,49.459269642829895 35.70453226566315,49.459269642829895 36.44365668296814,49.48076605796814 36.44365668296814,49.48076605796814 37.18250393867493,49.50016736984253 37.18250393867493,49.50016736984253 37.92113661766052,49.51752424240112 37.92113661766052,49.51752424240112 38.65967094898224,49.53264594078064 38.65967094898224,49.53264594078064 39.08688724040985,49.53984022140503 39.08688724040985,49.53984022140503 39.51397240161896,49.54725205898285 39.51397240161896,49.54725205898285 39.94075357913971,49.55444633960724 39.94075357913971,49.55444633960724 40.367114543914795,49.5610386133194 40.367114543914795,49.5610386133194 40.79287648200989,49.56670701503754 40.79287648200989,49.56670701503754 41.21791422367096,49.57101345062256 41.21791422367096,49.57101345062256 41.236135363578796,49.52038526535034 41.236135363578796,49.52038526535034 41.242778301239014,49.438098073005676 41.242778301239014,49.438098073005676 41.24167561531067,49.33951497077942 41.24167561531067,49.33951497077942 41.23665392398834,49.24003183841705 41.23665392398834,49.24003183841705 41.23152494430542,49.1551548242569 41.23152494430542,49.1551548242569 41.23012125492096,49.1001695394516 41.23012125492096,49.1001695394516 41.23956263065338,48.8468199968338 41.23956263065338,48.8468199968338 41.26087129116058,48.466166853904724 41.26087129116058,48.466166853904724 41.30968451499939,48.03554117679596 41.30968451499939,48.03554117679596 41.40167534351349,47.6322203874588 41.40167534351349,47.6322203874588 41.55246317386627,47.333529591560364 41.55246317386627,47.333529591560364" stroke="white" stroke-width="0.1" /><polygon points="76.00272297859192,45.15904188156128 76.00272297859192,45.15904188156128 81.32324814796448,39.3589586019516 81.32324814796448,39.3589586019516 80.90174794197083,39.01165723800659 80.90174794197083,39.01165723800659 80.49736618995667,38.64642679691315 80.49736618995667,38.64642679691315 80.11060953140259,38.2633775472641 80.11060953140259,38.2633775472641 79.74202036857605,37.86256015300751 79.74202036857605,37.86256015300751 79.39212322235107,37.44414448738098 79.39212322235107,37.44414448738098 79.06145453453064,37.00823187828064 79.06145453453064,37.00823187828064 78.586745262146,37.40452527999878 78.586745262146,37.40452527999878 78.09755802154541,37.783652544021606 78.09755802154541,37.783652544021606 77.59421467781067,38.14479410648346 77.59421467781067,38.14479410648346 77.0770788192749,38.48702609539032 77.0770788192749,38.48702609539032 76.54646635055542,38.80947828292847 76.54646635055542,38.80947828292847 76.00272297859192,39.11133110523224 76.00272297859192,39.11133110523224" stroke="white" stroke-width="0.1" /><polygon points="2.455357275903225,32.6416015625 2.455357275903225,32.6416015625 1.8359322100877762,31.99179768562317 1.8359322100877762,31.99179768562317 1.537581905722618,31.414443254470825 1.537581905722618,31.414443254470825 1.5511649660766125,30.9326171875 1.5511649660766125,30.9326171875 1.8676213920116425,30.569350719451904 1.8676213920116425,30.569350719451904 2.47780941426754,30.34777045249939 2.47780941426754,30.34777045249939 3.37262861430645,30.29087781906128 3.37262861430645,30.29087781906128 18.1902214884758,30.7407945394516 18.1902214884758,30.7407945394516 16.63469672203064,25.50572156906128 16.63469672203064,25.50572156906128 16.47476553916931,24.599458277225494 16.47476553916931,24.599458277225494 16.569001972675323,23.88586401939392 16.569001972675323,23.88586401939392 16.89431369304657,23.38562160730362 16.89431369304657,23.38562160730362 17.427581548690796,23.119327425956726 17.427581548690796,23.119327425956726 18.145698308944702,23.107638955116272 18.145698308944702,23.107638955116272 19.02553141117096,23.37123453617096 19.02553141117096,23.37123453617096 24.0618035197258,25.51967203617096 24.0618035197258,25.51967203617096 26.64446234703064,17.39327609539032 26.64446234703064,17.39327609539032 27.032560110092163,16.54535084962845 27.032560110092163,16.54535084962845 27.54616141319275,15.983200073242188 27.54616141319275,15.983200073242188 28.15093994140625,15.71306586265564 28.15093994140625,15.71306586265564 28.81254553794861,15.741103887557983 28.81254553794861,15.741103887557983 29.496604204177856,16.07358157634735 29.496604204177856,16.07358157634735 30.16880750656128,16.71665757894516 30.16880750656128,16.71665757894516 35.57303547859192,23.31891804933548 35.57303547859192,23.31891804933548 39.45835828781128,19.46149617433548 39.45835828781128,19.46149617433548 40.179526805877686,18.892070651054382 40.179526805877686,18.892070651054382 40.85177183151245,18.638011813163757 40.85177183151245,18.638011813163757 41.44592583179474,18.68852972984314 41.44592583179474,18.68852972984314 41.93284213542938,19.032888114452362 41.93284213542938,19.032888114452362 42.28333830833435,19.66032385826111 42.28333830833435,19.66032385826111 42.46826469898224,20.56012898683548 42.46826469898224,20.56012898683548 42.95480251312256,26.00795328617096 42.95480251312256,26.00795328617096 44.88700032234192,25.1708984375 44.88700032234192,25.1708984375 45.26299238204956,27.64260470867157 45.26299238204956,27.64260470867157 45.91220021247864,30.01600205898285 45.91220021247864,30.01600205898285 46.8174546957016,32.2723388671875 46.8174546957016,32.2723388671875 47.961631417274475,34.392932057380676 47.961631417274475,34.392932057380676 49.327558279037476,36.3591343164444 49.327558279037476,36.3591343164444 50.8980929851532,38.15220594406128 50.8980929851532,38.15220594406128 52.33023762702942,39.484789967536926 52.33023762702942,39.484789967536926 53.88364791870117,40.682876110076904 53.88364791870117,40.682876110076904 55.54788112640381,41.73758625984192 55.54788112640381,41.73758625984192 57.31254816055298,42.63997972011566 57.31254816055298,42.63997972011566 59.1671884059906,43.3811753988266 59.1671884059906,43.3811753988266 61.10142469406128,43.95228922367096 61.10142469406128,43.95228922367096 61.10142469406128,45.39271891117096 61.10142469406128,45.39271891117096 59.25382375717163,44.9741929769516 59.25382375717163,44.9741929769516 57.41742253303528,44.61844563484192 57.41742253303528,44.61844563484192 55.59844970703125,44.3150132894516 55.59844970703125,44.3150132894516 53.803181648254395,44.05340552330017 53.803181648254395,44.05340552330017 52.03782916069031,43.82321834564209 52.03782916069031,43.82321834564209 50.30866861343384,43.61398220062256 50.30866861343384,43.61398220062256 50.26768445968628,43.576815724372864 50.26768445968628,43.576815724372864 50.22495985031128,43.53855848312378 50.22495985031128,43.53855848312378 50.18049478530884,43.49932074546814 50.18049478530884,43.49932074546814 50.13429522514343,43.45921277999878 50.13429522514343,43.45921277999878 50.0863254070282,43.418341875076294 50.0863254070282,43.418341875076294 50.03662109375,43.37681531906128 50.03662109375,43.37681531906128 49.98953938484192,43.33496391773224 49.98953938484192,43.33496391773224 50.03662109375,43.37681531906128 50.03662109375,43.37681531906128 49.0384042263031,42.539435625076294 49.0384042263031,42.539435625076294 48.01548719406128,41.717422008514404 48.01548719406128,41.717422008514404 46.9669908285141,40.91404676437378 46.9669908285141,40.91404676437378 45.892056822776794,40.13241529464722 45.892056822776794,40.13241529464722 44.78978514671326,39.375850558280945 44.78978514671326,39.375850558280945 43.65932047367096,38.64746391773224 43.65932047367096,38.64746391773224 43.68199110031128,38.66141438484192 43.68199110031128,38.66141438484192 43.6558336019516,38.64397406578064 43.6558336019516,38.64397406578064 42.50186085700989,37.94969916343689 42.50186085700989,37.94969916343689 41.272225975990295,37.26452589035034 41.272225975990295,37.26452589035034 39.96189832687378,36.61324679851532 39.96189832687378,36.61324679851532 38.56583535671234,36.020663380622864 38.56583535671234,36.020663380622864 37.07898259162903,35.511618852615356 37.07898259162903,35.511618852615356 35.49630343914032,35.1109117269516 35.49630343914032,35.1109117269516 35.49630343914032,35.11439859867096 35.49630343914032,35.11439859867096 34.64587926864624,34.95919406414032 34.64587926864624,34.95919406414032 33.80242884159088,34.83990430831909 33.80242884159088,34.83990430831909 32.96683430671692,34.75298285484314 32.96683430671692,34.75298285484314 32.13995695114136,34.69483554363251 32.13995695114136,34.69483554363251 31.322669982910156,34.66186821460724 31.322669982910156,34.66186821460724 30.51583468914032,34.65053141117096 30.51583468914032,34.65053141117096 29.479429125785828,34.66688096523285 29.479429125785828,34.66688096523285 28.46474051475525,34.709060192108154 28.46474051475525,34.709060192108154 27.47454047203064,34.7721666097641 27.47454047203064,34.7721666097641 26.51168406009674,34.85123813152313 26.51168406009674,34.85123813152313 25.57893693447113,34.941402077674866 25.57893693447113,34.941402077674866 24.67913031578064,35.0376695394516 24.67913031578064,35.0376695394516 24.6721550822258,35.0376695394516 24.6721550822258,35.0376695394516 23.08199852705002,35.24216413497925 23.08199852705002,35.24216413497925 21.4828222990036,35.502952337265015 21.4828222990036,35.502952337265015 19.87871527671814,35.82458794116974 19.87871527671814,35.82458794116974 18.273749947547913,36.211615800857544 18.273749947547913,36.211615800857544 16.671958565711975,36.66855990886688 16.671958565711975,36.66855990886688 15.0774285197258,37.20005750656128 15.0774285197258,37.20005750656128 12.729986011981964,36.35335862636566 12.729986011981964,36.35335862636566 10.146495699882507,35.44987440109253 10.146495699882507,35.44987440109253 7.57773295044899,34.55897867679596 7.57773295044899,34.55897867679596 5.274486914277077,33.75004529953003 5.274486914277077,33.75004529953003 3.4874916076660156,33.09244513511658 3.4874916076660156,33.09244513511658 2.467564307153225,32.65555500984192 2.467564307153225,32.65555500984192" stroke="white" stroke-width="0.1" /></svg>