<?xml version="1.0" encoding="utf-8" ?>
<svg baseProfile="full" height="100.0" version="1.1" width="71.99957966804504" xmlns="http://www.w3.org/2000/svg" xmlns:ev="http://www.w3.org/2001/xml-events" xmlns:xlink="http://www.w3.org/1999/xlink"><defs><clipPath /></defs><polygon points="71.99957966804504,39.848628640174866 71.99957966804504,39.848628640174866 71.99055552482605,40.51654934883118 71.99055552482605,40.51654934883118 71.96457386016846,41.18098318576813 71.96457386016846,41.18098318576813 71.92328572273254,41.84193015098572 71.92328572273254,41.84193015098572 71.86833620071411,42.49939024448395 71.86833620071411,42.49939024448395 71.80137634277344,43.15336048603058 71.80137634277344,43.15336048603058 71.72403931617737,43.80384385585785 71.72403931617737,43.80384385585785 71.80500626564026,44.165053963661194 71.80500626564026,44.165053963661194 71.87298536300659,44.52986121177673 71.87298536300659,44.52986121177673 71.92720770835876,44.89772021770477 71.92720770835876,44.89772021770477 71.96690440177917,45.26819288730621 71.96690440177917,45.26819288730621 71.99128866195679,45.64084708690643 71.99128866195679,45.64084708690643 71.99957966804504,46.01513743400574 71.99957966804504,46.01513743400574 67.57176518440247,81.49001002311707 67.57176518440247,81.49001002311707 66.18949174880981,84.82547998428345 66.18949174880981,84.82547998428345 62.60688304901123,88.80320191383362 62.60688304901123,88.80320191383362 57.67020583152771,92.86648631095886 57.67020583152771,92.86648631095886 52.22577452659607,96.45825624465942 52.22577452659607,96.45825624465942 47.11983799934387,99.02176856994629 47.11983799934387,99.02176856994629 43.19870173931122,100.0 43.19870173931122,100.0 42.99291968345642,100.0 42.99291968345642,100.0 42.99291968345642,66.07024669647217 42.99291968345642,66.07024669647217 43.379831314086914,63.27027082443237 43.379831314086914,63.27027082443237 44.47105824947357,60.60762405395508 44.47105824947357,60.60762405395508 46.162280440330505,58.20210576057434 46.162280440330505,58.20210576057434 48.349228501319885,56.17348551750183 48.349228501319885,56.17348551750183 50.92756748199463,54.6417772769928 50.92756748199463,54.6417772769928 53.793030977249146,53.726762533187866 53.793030977249146,53.726762533187866 56.65377974510193,52.9502809047699 56.65377974510193,52.9502809047699 59.231096506118774,51.802778244018555 59.231096506118774,51.802778244018555 61.419421434402466,50.367093086242676 61.419421434402466,50.367093086242676 63.113200664520264,48.72617423534393 63.113200664520264,48.72617423534393 64.20688033103943,46.96306884288788 64.20688033103943,46.96306884288788 64.59488868713379,45.16061544418335 64.59488868713379,45.16061544418335 64.21461701393127,43.54884922504425 64.21461701393127,43.54884922504425 63.14258575439453,42.30445325374603 63.14258575439453,42.30445325374603 61.48198843002319,41.46175682544708 61.48198843002319,41.46175682544708 59.33600068092346,41.05498492717743 59.33600068092346,41.05498492717743 56.80779218673706,41.11852943897247 56.80779218673706,41.11852943897247 54.00055646896362,41.68672263622284 54.00055646896362,41.68672263622284 46.37961685657501,43.86662542819977 46.37961685657501,43.86662542819977 43.192026019096375,44.55694556236267 43.192026019096375,44.55694556236267 39.59292471408844,44.97107267379761 39.59292471408844,44.97107267379761 35.788121819496155,45.10917067527771 35.788121819496155,45.10917067527771 31.983482837677002,44.97107267379761 31.983482837677002,44.97107267379761 28.384804725646973,44.55689191818237 28.384804725646973,44.55689191818237 25.197935104370117,43.86662542819977 25.197935104370117,43.86662542819977 17.573507130146027,41.68672263622284 17.573507130146027,41.68672263622284 14.767180383205414,41.11858606338501 14.767180383205414,41.11858606338501 12.241245806217194,41.055041551589966 12.241245806217194,41.055041551589966 10.098183155059814,41.46175682544708 10.098183155059814,41.46175682544708 8.44053030014038,42.304396629333496 8.44053030014038,42.304396629333496 7.370756566524506,43.54879558086395 7.370756566524506,43.54879558086395 6.991384923458099,45.16061544418335 6.991384923458099,45.16061544418335 7.3783040046691895,46.96306884288788 7.3783040046691895,46.96306884288788 8.469591289758682,48.72622787952423 8.469591289758682,48.72622787952423 10.160963982343674,50.367093086242676 10.160963982343674,50.367093086242676 12.348217517137527,51.80272459983826 12.348217517137527,51.80272459983826 14.927048981189728,52.9502272605896 14.927048981189728,52.9502272605896 17.793241143226624,53.726762533187866 17.793241143226624,53.726762533187866 20.653259754180908,54.641830921173096 20.653259754180908,54.641830921173096 23.230081796646118,56.17353916168213 23.230081796646118,56.17353916168213 25.418105721473694,58.20210576057434 25.418105721473694,58.20210576057434 27.111738920211792,60.60757040977478 27.111738920211792,60.60757040977478 28.205350041389465,63.27027082443237 28.205350041389465,63.27027082443237 28.593352437019348,66.07024669647217 28.593352437019348,66.07024669647217 28.593352437019348,99.97907280921936 28.593352437019348,99.97907280921936 24.624021351337433,98.90912175178528 24.624021351337433,98.90912175178528 19.538716971874237,96.31640315055847 19.538716971874237,96.31640315055847 14.156945049762726,92.73961782455444 14.156945049762726,92.73961782455444 9.298212826251984,88.71715068817139 9.298212826251984,88.71715068817139 5.782002210617065,84.78776216506958 5.782002210617065,84.78776216506958 4.427818953990936,81.49001002311707 4.427818953990936,81.49001002311707 0.0,46.01513743400574 0.0,46.01513743400574 0.008283631905214861,45.64084708690643 0.008283631905214861,45.64084708690643 0.03268492000643164,45.26824951171875 0.03268492000643164,45.26824951171875 0.07237278041429818,44.89772021770477 0.07237278041429818,44.89772021770477 0.126611499581486,44.5298045873642 0.126611499581486,44.5298045873642 0.19459722097963095,44.165053963661194 0.19459722097963095,44.165053963661194 0.2755397465080023,43.80384385585785 0.2755397465080023,43.80384385585785 0.19456996815279126,43.15336048603058 0.19456996815279126,43.15336048603058 0.12659786734730005,42.49939024448395 0.12659786734730005,42.49939024448395 0.07237278041429818,41.84193015098572 0.07237278041429818,41.84193015098572 0.03269854641985148,41.18098318576813 0.03269854641985148,41.18098318576813 0.00829725613584742,40.51654934883118 0.00829725613584742,40.51654934883118 0.0,39.848628640174866 0.0,39.848628640174866 1.0387510061264038,31.85105323791504 1.0387510061264038,31.85105323791504 3.9898358285427094,24.55584555864334 3.9898358285427094,24.55584555864334 8.605385571718216,18.189983069896698 8.605385571718216,18.189983069896698 14.637599885463715,12.980341911315918 14.637599885463715,12.980341911315918 21.83859646320343,9.15379449725151 21.83859646320343,9.15379449725151 29.96058762073517,6.93732351064682 29.96058762073517,6.93732351064682 30.583304166793823,5.004076287150383 30.583304166793823,5.004076287150383 31.37485384941101,3.321954235434532 31.37485384941101,3.321954235434532 32.313355803489685,1.935753971338272 32.313355803489685,1.935753971338272 33.37700664997101,0.8901361376047134 33.37700664997101,0.8901361376047134 34.543922543525696,0.22995253093540668 34.543922543525696,0.22995253093540668 35.792264342308044,0.0 35.792264342308044,0.0 37.03106343746185,0.22826308850198984 37.03106343746185,0.22826308850198984 38.19041550159454,0.8832150138914585 38.19041550159454,0.8832150138914585 39.248719811439514,1.9200585782527924 39.248719811439514,1.9200585782527924 40.184372663497925,3.2940514385700226 40.184372663497925,3.2940514385700226 40.9757524728775,4.9604784697294235 40.9757524728775,4.9604784697294235 41.6012704372406,6.874541938304901 41.6012704372406,6.874541938304901 49.82834756374359,9.026651829481125 49.82834756374359,9.026651829481125 57.130759954452515,12.8268763422966 57.130759954452515,12.8268763422966 63.25380802154541,18.04218590259552 63.25380802154541,18.04218590259552 67.94276833534241,24.43954646587372 67.94276833534241,24.43954646587372 70.94293236732483,31.78603947162628 70.94293236732483,31.78603947162628" stroke="white" stroke-width="0.1" /></svg>