<?xml version="1.0" encoding="utf-8" ?>
<svg baseProfile="full" height="97.831130027771" version="1.1" width="99.99642372131348" xmlns="http://www.w3.org/2000/svg" xmlns:ev="http://www.w3.org/2001/xml-events" xmlns:xlink="http://www.w3.org/1999/xlink"><defs><clipPath /></defs><polygon points="55.00417351722717,81.98188543319702 55.00417351722717,81.98188543319702 55.291199684143066,82.69309997558594 55.291199684143066,82.69309997558594 55.578380823135376,83.40447545051575 55.578380823135376,83.40447545051575 55.86561560630798,84.11600589752197 55.86561560630798,84.11600589752197 56.15290403366089,84.8275899887085 56.15290403366089,84.8275899887085 56.44024610519409,85.53934097290039 56.44024610519409,85.53934097290039 56.72769546508789,86.2511396408081 56.72769546508789,86.2511396408081 57.01513886451721,86.96288466453552 57.01513886451721,86.96288466453552 57.30264186859131,87.67473697662354 57.30264186859131,87.67473697662354 57.59003758430481,88.38632106781006 57.59003758430481,88.38632106781006 57.877594232559204,89.09806609153748 57.877594232559204,89.09806609153748 58.03767442703247,89.49396014213562 58.03767442703247,89.49396014213562 58.19765329360962,89.88985419273376 58.19765329360962,89.88985419273376 58.35763216018677,90.2854859828949 58.35763216018677,90.2854859828949 58.51750373840332,90.68111181259155 58.51750373840332,90.68111181259155 58.67737531661987,91.07663035392761 58.67737531661987,91.07663035392761 58.837300539016724,91.47210121154785 58.837300539016724,91.47210121154785 58.997172117233276,91.8673574924469 58.997172117233276,91.8673574924469 59.15709137916565,92.26255416870117 59.15709137916565,92.26255416870117 59.3170166015625,92.65754222869873 59.3170166015625,92.65754222869873 59.47715640068054,93.05263757705688 59.47715640068054,93.05263757705688 58.346229791641235,93.3378517627716 58.346229791641235,93.3378517627716 57.204532623291016,93.59566569328308 57.204532623291016,93.59566569328308 56.052613258361816,93.82577538490295 56.052613258361816,93.82577538490295 54.890722036361694,94.02774572372437 54.890722036361694,94.02774572372437 53.71924042701721,94.2013680934906 53.71924042701721,94.2013680934906 52.53864526748657,94.3462073802948 52.53864526748657,94.3462073802948 51.34904384613037,94.46174502372742 51.34904384613037,94.46174502372742 50.151026248931885,94.5478618144989 50.151026248931885,94.5478618144989 48.94484877586365,94.60397362709045 48.94484877586365,94.60397362709045 47.73110747337341,94.63003277778625 47.73110747337341,94.63003277778625 47.30478525161743,94.63003277778625 47.30478525161743,94.63003277778625 39.68367874622345,94.01847124099731 39.68367874622345,94.01847124099731 32.447218894958496,92.24710464477539 32.447218894958496,92.24710464477539 25.692081451416016,89.41104412078857 25.692081451416016,89.41104412078857 19.51492875814438,85.6052041053772 19.51492875814438,85.6052041053772 14.012379944324493,80.92482089996338 14.012379944324493,80.92482089996338 9.281101822853088,75.4647970199585 9.281101822853088,75.4647970199585 5.417764186859131,69.3202018737793 5.417764186859131,69.3202018737793 2.519035153090954,62.586116790771484 2.519035153090954,62.586116790771484 0.6813705433160067,55.35743832588196 0.6813705433160067,55.35743832588196 0.0017052914699888788,47.72940278053284 0.0017052914699888788,47.72940278053284 0.0012256782611075323,47.68783748149872 0.0012256782611075323,47.68783748149872 0.0008526457349944394,47.646111249923706 0.0008526457349944394,47.646111249923706 0.0005861939371243352,47.6042777299881 0.0005861939371243352,47.6042777299881 0.00037303250337572535,47.5622832775116 0.00037303250337572535,47.5622832775116 0.00021316143374860985,47.52007722854614 0.00021316143374860985,47.52007722854614 0.0001598710696271155,47.47787117958069 0.0001598710696271155,47.47787117958069 5.329035843715246e-05,47.43550717830658 5.329035843715246e-05,47.43550717830658 5.329035843715246e-05,47.39314019680023 5.329035843715246e-05,47.39314019680023 -5.329035843715246e-05,47.35061526298523 -5.329035843715246e-05,47.35061526298523 0.0,47.308194637298584 0.0,47.308194637298584 0.6115601398050785,39.68612849712372 0.6115601398050785,39.68612849712372 2.382771857082844,32.44892656803131 2.382771857082844,32.44892656803131 5.21872490644455,25.693252682685852 5.21872490644455,25.693252682685852 9.024402499198914,19.515621662139893 9.024402499198914,19.515621662139893 13.70478868484497,14.012806117534637 13.70478868484497,14.012806117534637 19.164972007274628,9.28131490945816 19.164972007274628,9.28131490945816 25.309723615646362,5.417817458510399 25.309723615646362,5.417817458510399 32.04418420791626,2.519035153090954 32.04418420791626,2.519035153090954 39.27334249019623,0.6813705433160067 39.27334249019623,0.6813705433160067 46.90233767032623,0.0017052914699888788 46.90233767032623,0.0017052914699888788 46.94480895996094,0.0012256782611075323 46.94480895996094,0.0012256782611075323 46.98728024959564,0.0008526457349944394 46.98728024959564,0.0008526457349944394 47.029754519462585,0.0005861939371243352 47.029754519462585,0.0005861939371243352 47.07217216491699,0.000319742139254231 47.07217216491699,0.000319742139254231 47.114646434783936,0.00021316143374860985 47.114646434783936,0.00021316143374860985 47.15717136859894,0.0001598710696271155 47.15717136859894,0.0001598710696271155 47.199589014053345,0.0 47.199589014053345,0.0 47.24200963973999,0.0 47.24200963973999,0.0 47.2844272851944,-5.329035843715246e-05 47.2844272851944,-5.329035843715246e-05 47.32695519924164,0.0 47.32695519924164,0.0 54.94763255119324,0.6115068681538105 54.94763255119324,0.6115068681538105 62.18388080596924,2.382825128734112 62.18388080596924,2.382825128734112 68.93891096115112,5.21872490644455 68.93891096115112,5.21872490644455 75.11606216430664,9.024348855018616 75.11606216430664,9.024348855018616 80.61872124671936,13.70478868484497 80.61872124671936,13.70478868484497 85.3502094745636,19.16491836309433 85.3502094745636,19.16491836309433 89.21365737915039,25.309669971466064 89.21365737915039,25.309669971466064 92.11264848709106,32.04418420791626 92.11264848709106,32.04418420791626 93.95021200180054,39.27334249019623 93.95021200180054,39.27334249019623 94.63003277778625,46.90233767032623 94.63003277778625,46.90233767032623 94.63003277778625,47.32524752616882 94.63003277778625,47.32524752616882 94.61750984191895,48.40736389160156 94.61750984191895,48.40736389160156 94.5802628993988,49.48340058326721 94.5802628993988,49.48340058326721 94.51860189437866,50.55325627326965 94.51860189437866,50.55325627326965 94.43302154541016,51.61661505699158 94.43302154541016,51.61661505699158 94.32393312454224,52.673256397247314 94.32393312454224,52.673256397247314 94.19171810150146,53.72302532196045 94.19171810150146,53.72302532196045 94.03675198554993,54.76559400558472 94.03675198554993,54.76559400558472 93.85951161384583,55.800920724868774 93.85951161384583,55.800920724868774 93.66030693054199,56.82857036590576 93.66030693054199,56.82857036590576 93.43973994255066,57.848602533340454 93.43973994255066,57.848602533340454 93.2540774345398,57.73818492889404 93.2540774345398,57.73818492889404 93.0646300315857,57.6372504234314 93.0646300315857,57.6372504234314 92.87171959877014,57.54585862159729 92.87171959877014,57.54585862159729 92.67566204071045,57.46416449546814 92.67566204071045,57.46416449546814 92.47667789459229,57.392436265945435 92.47667789459229,57.392436265945435 92.27523803710938,57.33078122138977 92.27523803710938,57.33078122138977 92.0714020729065,57.27913975715637 92.0714020729065,57.27913975715637 91.86575412750244,57.2380006313324 91.86575412750244,57.2380006313324 91.6582465171814,57.20709562301636 91.6582465171814,57.20709562301636 91.4496660232544,57.186949253082275 91.4496660232544,57.186949253082275 91.29741787910461,56.973522901535034 91.29741787910461,56.973522901535034 91.14324450492859,56.77831768989563 91.14324450492859,56.77831768989563 90.98801016807556,56.599634885787964 90.98801016807556,56.599634885787964 90.83277583122253,56.43576979637146 90.83277583122253,56.43576979637146 90.67866206169128,56.28506541252136 90.67866206169128,56.28506541252136 90.52656888961792,56.14597797393799 90.52656888961792,56.14597797393799 90.37725329399109,56.01658821105957 90.37725329399109,56.01658821105957 90.23208618164062,55.895406007766724 90.23208618164062,55.895406007766724 90.09172320365906,55.780720710754395 90.09172320365906,55.780720710754395 89.95753526687622,55.67094683647156 89.95753526687622,55.67094683647156 89.65287208557129,55.455708503723145 89.65287208557129,55.455708503723145 89.35577869415283,55.25997281074524 89.35577869415283,55.25997281074524 89.06625509262085,55.08187413215637 89.06625509262085,55.08187413215637 88.78408074378967,54.91933822631836 88.78408074378967,54.91933822631836 88.50931525230408,54.77076172828674 88.50931525230408,54.77076172828674 88.24190497398376,54.634130001068115 88.24190497398376,54.634130001068115 87.98147439956665,54.507458209991455 87.98147439956665,54.507458209991455 87.72823810577393,54.38888669013977 87.72823810577393,54.38888669013977 87.48193383216858,54.27654981613159 87.48193383216858,54.27654981613159 87.24271059036255,54.16858196258545 87.24271059036255,54.16858196258545 87.01888918876648,54.072391986846924 87.01888918876648,54.072391986846924 86.8013083934784,53.98014783859253 86.8013083934784,53.98014783859253 86.59384846687317,53.893232345581055 86.59384846687317,53.893232345581055 86.40019297599792,53.81276607513428 86.40019297599792,53.81276607513428 86.22443675994873,53.740131855010986 86.22443675994873,53.740131855010986 86.07032299041748,53.67671251296997 86.07032299041748,53.67671251296997 85.94162464141846,53.62347364425659 85.94162464141846,53.62347364425659 85.84229350090027,53.58201861381531 85.84229350090027,53.58201861381531 85.77616214752197,53.55350375175476 85.77616214752197,53.55350375175476 85.74717044830322,53.53932976722717 85.74717044830322,53.53932976722717 84.46255326271057,52.918922901153564 84.46255326271057,52.918922901153564 83.17798972129822,52.298784255981445 83.17798972129822,52.298784255981445 81.89342617988586,51.67896747589111 81.89342617988586,51.67896747589111 80.60891628265381,51.0591983795166 80.60891628265381,51.0591983795166 79.32440638542175,50.43975114822388 79.32440638542175,50.43975114822388 78.03999781608582,49.82046186923981 78.03999781608582,49.82046186923981 76.75559520721436,49.20128285884857 76.75559520721436,49.20128285884857 75.47129988670349,48.5821008682251 75.47129988670349,48.5821008682251 74.18699860572815,47.96292185783386 74.18699860572815,47.96292185783386 72.90291786193848,47.34400808811188 72.90291786193848,47.34400808811188 72.51933217048645,47.16846942901611 72.51933217048645,47.16846942901611 72.12945818901062,47.00945019721985 72.12945818901062,47.00945019721985 71.73361778259277,46.867430210113525 71.73361778259277,46.867430210113525 71.3326632976532,46.742892265319824 71.3326632976532,46.742892265319824 70.9271252155304,46.63631021976471 70.9271252155304,46.63631021976471 70.51769495010376,46.5481698513031 70.51769495010376,46.5481698513031 70.1048493385315,46.478891372680664 70.1048493385315,46.478891372680664 69.68945264816284,46.42895758152008 69.68945264816284,46.42895758152008 69.27171349525452,46.398794651031494 69.27171349525452,46.398794651031494 68.85284781455994,46.38904333114624 68.85284781455994,46.38904333114624 67.77777075767517,46.44446671009064 67.77777075767517,46.44446671009064 66.73146486282349,46.64744734764099 66.73146486282349,46.64744734764099 65.72507619857788,46.98674976825714 65.72507619857788,46.98674976825714 64.77016806602478,47.451335191726685 64.77016806602478,47.451335191726685 63.87808918952942,48.030173778533936 63.87808918952942,48.030173778533936 63.06024193763733,48.71213138103485 63.06024193763733,48.71213138103485 62.32781410217285,49.485960602760315 62.32781410217285,49.485960602760315 61.692434549331665,50.340735912323 61.692434549331665,50.340735912323 61.165183782577515,51.265162229537964 61.165183782577515,51.265162229537964 60.75782775878906,52.24842429161072 60.75782775878906,52.24842429161072 60.548025369644165,52.818793058395386 60.548025369644165,52.818793058395386 60.33811569213867,53.38905453681946 60.33811569213867,53.38905453681946 60.12815237045288,53.959256410598755 60.12815237045288,53.959256410598755 59.918081760406494,54.52941060066223 59.918081760406494,54.52941060066223 59.70801115036011,55.09945750236511 59.70801115036011,55.09945750236511 59.49794054031372,55.66955804824829 59.49794054031372,55.66955804824829 59.28765535354614,56.23944401741028 59.28765535354614,56.23944401741028 59.07742381095886,56.80938959121704 59.07742381095886,56.80938959121704 58.867138624191284,57.37927556037903 58.867138624191284,57.37927556037903 58.65691304206848,57.94921517372131 58.65691304206848,57.94921517372131 55.822718143463135,65.62984585762024 55.822718143463135,65.62984585762024 55.80853819847107,65.66891074180603 55.80853819847107,65.66891074180603 55.77390193939209,65.75145721435547 55.77390193939209,65.75145721435547 55.721038579940796,65.87311625480652 55.721038579940796,65.87311625480652 55.652666091918945,66.02947115898132 55.652666091918945,66.02947115898132 55.571186542510986,66.21603965759277 55.571186542510986,66.21603965759277 55.47909736633301,66.4285659790039 55.47909736633301,66.4285659790039 55.378806591033936,66.66250824928284 55.378806591033936,66.66250824928284 55.27281165122986,66.9136106967926 55.27281165122986,66.9136106967926 55.163514614105225,67.17729568481445 55.163514614105225,67.17729568481445 55.053627490997314,67.44939088821411 55.053627490997314,67.44939088821411 54.94433045387268,67.74718165397644 54.94433045387268,67.74718165397644 54.8314094543457,68.0511474609375 54.8314094543457,68.0511474609375 54.71784472465515,68.36588382720947 54.71784472465515,68.36588382720947 54.60711121559143,68.69590878486633 54.60711121559143,68.69590878486633 54.50218319892883,69.04575824737549 54.50218319892883,69.04575824737549 54.406362771987915,69.42006945610046 54.406362771987915,69.42006945610046 54.32270169258118,69.8232114315033 54.32270169258118,69.8232114315033 54.25454378128052,70.2600359916687 54.25454378128052,70.2600359916687 54.20482158660889,70.73469161987305 54.20482158660889,70.73469161987305 54.17711138725281,71.25219106674194 54.17711138725281,71.25219106674194 54.178547859191895,71.3396966457367 54.178547859191895,71.3396966457367 54.18099761009216,71.42933011054993 54.18099761009216,71.42933011054993 54.18456792831421,71.52109742164612 54.18456792831421,71.52109742164612 54.18936610221863,71.6148853302002 54.18936610221863,71.6148853302002 54.19565439224243,71.71070575714111 54.19565439224243,71.71070575714111 54.203593730926514,71.80854678153992 54.203593730926514,71.80854678153992 54.213136434555054,71.90830707550049 54.213136434555054,71.90830707550049 54.22464609146118,72.01003432273865 54.22464609146118,72.01003432273865 54.23807501792908,72.11352586746216 54.23807501792908,72.11352586746216 54.253846406936646,72.21909165382385 54.253846406936646,72.21909165382385 54.19139266014099,72.29151725769043 54.19139266014099,72.29151725769043 54.13095951080322,72.36553430557251 54.13095951080322,72.36553430557251 54.072338342666626,72.44088649749756 54.072338342666626,72.44088649749756 54.015642404556274,72.51757383346558 54.015642404556274,72.51757383346558 53.960537910461426,72.59553670883179 53.960537910461426,72.59553670883179 53.90719175338745,72.67472743988037 53.90719175338745,72.67472743988037 53.85523438453674,72.75471687316895 53.85523438453674,72.75471687316895 53.804874420166016,72.83571362495422 53.804874420166016,72.83571362495422 53.75579595565796,72.91751503944397 53.75579595565796,72.91751503944397 53.70815396308899,73.0001151561737 53.70815396308899,73.0001151561737 53.48880887031555,72.69678711891174 53.48880887031555,72.69678711891174 53.2819390296936,72.38397598266602 53.2819390296936,72.38397598266602 53.08700203895569,72.06263542175293 53.08700203895569,72.06263542175293 52.903950214385986,71.73361778259277 52.903950214385986,71.73361778259277 52.732300758361816,71.3979959487915 52.732300758361816,71.3979959487915 52.571845054626465,71.05666995048523 52.571845054626465,71.05666995048523 52.42215394973755,70.71049809455872 52.42215394973755,70.71049809455872 52.283066511154175,70.36043405532837 52.283066511154175,70.36043405532837 52.15415358543396,70.00743746757507 52.15415358543396,70.00743746757507 52.035266160964966,69.6526288986206 52.035266160964966,69.6526288986206 51.93433165550232,69.32521462440491 51.93433165550232,69.32521462440491 51.84011459350586,68.99577379226685 51.84011459350586,68.99577379226685 51.7523467540741,68.66452097892761 51.7523467540741,68.66452097892761 51.670706272125244,68.3316171169281 51.670706272125244,68.3316171169281 51.595085859298706,67.99721717834473 51.595085859298706,67.99721717834473 51.525115966796875,67.66154170036316 51.525115966796875,67.66154170036316 51.46063566207886,67.32458472251892 51.46063566207886,67.32458472251892 51.40121579170227,66.98672771453857 51.40121579170227,66.98672771453857 51.3466477394104,66.64785146713257 51.3466477394104,66.64785146713257 51.29687190055847,66.30855202674866 51.29687190055847,66.30855202674866 51.23628377914429,65.91638922691345 51.23628377914429,65.91638922691345 51.17270350456238,65.53621888160706 51.17270350456238,65.53621888160706 51.11621618270874,65.1683509349823 51.11621618270874,65.1683509349823 51.07678174972534,64.81322646141052 51.07678174972534,64.81322646141052 51.06452703475952,64.47131633758545 51.06452703475952,64.47131633758545 51.089465618133545,64.14299607276917 51.089465618133545,64.14299607276917 51.16140842437744,63.82852792739868 51.16140842437744,63.82852792739868 51.29058361053467,63.528501987457275 51.29058361053467,63.528501987457275 51.48695707321167,63.24307918548584 51.48695707321167,63.24307918548584 51.760709285736084,62.97300457954407 51.760709285736084,62.97300457954407 52.916741371154785,61.87490224838257 52.916741371154785,61.87490224838257 53.89568209648132,60.67970395088196 53.89568209648132,60.67970395088196 54.73308563232422,59.406495094299316 54.73308563232422,59.406495094299316 55.46460747718811,58.074551820755005 55.46460747718811,58.074551820755005 56.125831604003906,56.70307278633118 56.125831604003906,56.70307278633118 56.75247311592102,55.311232805252075 56.75247311592102,55.311232805252075 57.37985968589783,53.918224573135376 57.37985968589783,53.918224573135376 58.043861389160156,52.5431752204895 58.043861389160156,52.5431752204895 58.7799072265625,51.20537281036377 58.7799072265625,51.20537281036377 59.62381362915039,49.92411434650421 59.62381362915039,49.92411434650421 60.43211817741394,48.828089237213135 60.43211817741394,48.828089237213135 61.25524044036865,47.73920774459839 61.25524044036865,47.73920774459839 62.0954155921936,46.660879254341125 62.0954155921936,46.660879254341125 62.95477747917175,45.596668124198914 62.95477747917175,45.596668124198914 63.83566856384277,44.55009996891022 63.83566856384277,44.55009996891022 64.74027037620544,43.524688482284546 64.74027037620544,43.524688482284546 65.6706690788269,42.52384006977081 65.6706690788269,42.52384006977081 66.62930846214294,41.55123829841614 66.62930846214294,41.55123829841614 67.61811375617981,40.61007797718048 67.61811375617981,40.61007797718048 68.63968968391418,39.704301953315735 68.63968968391418,39.704301953315735 69.02444362640381,39.384397864341736 69.02444362640381,39.384397864341736 69.4169819355011,39.07366394996643 69.4169819355011,39.07366394996643 69.81516480445862,38.76969516277313 69.81516480445862,38.76969516277313 70.21665573120117,38.46977651119232 70.21665573120117,38.46977651119232 70.61931490898132,38.17145824432373 70.61931490898132,38.17145824432373 71.02096676826477,37.87217736244202 71.02096676826477,37.87217736244202 71.41914963722229,37.569329142570496 71.41914963722229,37.569329142570496 71.81200981140137,37.26051151752472 71.81200981140137,37.26051151752472 72.19692468643188,36.94290220737457 72.19692468643188,36.94290220737457 72.57208824157715,36.6143137216568 72.57208824157715,36.6143137216568 73.13153147697449,36.040374636650085 73.13153147697449,36.040374636650085 73.58806729316711,35.432758927345276 73.58806729316711,35.432758927345276 73.95102977752686,34.794339537620544 73.95102977752686,34.794339537620544 74.2294192314148,34.12773311138153 74.2294192314148,34.12773311138153 74.43256378173828,33.43586325645447 74.43256378173828,33.43586325645447 74.56962466239929,32.72155821323395 74.56962466239929,32.72155821323395 74.64977502822876,31.987538933753967 74.64977502822876,31.987538933753967 74.68217611312866,31.236782670021057 74.68217611312866,31.236782670021057 74.67604279518127,30.47185242176056 74.67604279518127,30.47185242176056 74.6406078338623,29.695945978164673 74.6406078338623,29.695945978164673 74.5559811592102,28.399285674095154 74.5559811592102,28.399285674095154 74.42488670349121,26.92660689353943 74.42488670349121,26.92660689353943 74.2161512374878,25.358110666275024 74.2161512374878,25.358110666275024 73.89880418777466,23.774321377277374 73.89880418777466,23.774321377277374 73.44178557395935,22.25554585456848 73.44178557395935,22.25554585456848 72.81418442726135,20.88230699300766 72.81418442726135,20.88230699300766 71.98477387428284,19.73475217819214 71.98477387428284,19.73475217819214 70.92280387878418,18.893563747406006 70.92280387878418,18.893563747406006 69.59683299064636,18.438783288002014 69.59683299064636,18.438783288002014 67.97632575035095,18.451254069805145 67.97632575035095,18.451254069805145 67.29069352149963,18.59513819217682 67.29069352149963,18.59513819217682 66.63165092468262,18.806061148643494 66.63165092468262,18.806061148643494 65.99786877632141,19.076722860336304 65.99786877632141,19.076722860336304 65.38812518119812,19.39966231584549 65.38812518119812,19.39966231584549 64.80107307434082,19.767525792121887 64.80107307434082,19.767525792121887 64.23560976982117,20.17306536436081 64.23560976982117,20.17306536436081 63.6902391910553,20.608767867088318 63.6902391910553,20.608767867088318 63.163942098617554,21.067383885383606 63.163942098617554,21.067383885383606 62.65518069267273,21.541455388069153 62.65518069267273,21.541455388069153 62.162989377975464,22.023838758468628 62.162989377975464,22.023838758468628 61.78196668624878,21.7691108584404 61.78196668624878,21.7691108584404 61.39528751373291,21.52259051799774 61.39528751373291,21.52259051799774 61.003392934799194,21.28416895866394 61.003392934799194,21.28416895866394 60.606592893600464,21.05342149734497 60.606592893600464,21.05342149734497 60.2053165435791,20.830348134040833 60.2053165435791,20.830348134040833 59.799933433532715,20.614735782146454 59.799933433532715,20.614735782146454 59.390878677368164,20.406264066696167 59.390878677368164,20.406264066696167 58.97851586341858,20.204879343509674 58.97851586341858,20.204879343509674 58.56311917304993,20.01015692949295 58.56311917304993,20.01015692949295 58.145320415496826,19.82230842113495 58.145320415496826,19.82230842113495 56.65820240974426,19.219593703746796 56.65820240974426,19.219593703746796 55.14155626296997,18.705661594867706 55.14155626296997,18.705661594867706 53.59997749328613,18.28189641237259 53.59997749328613,18.28189641237259 52.03808546066284,17.94968545436859 52.03808546066284,17.94968545436859 50.46064257621765,17.71051734685898 50.46064257621765,17.71051734685898 48.872214555740356,17.56572723388672 48.872214555740356,17.56572723388672 47.277286648750305,17.51670092344284 47.277286648750305,17.51670092344284 45.68076133728027,17.56487488746643 45.68076133728027,17.56487488746643 44.0870076417923,17.711584270000458 44.0870076417923,17.711584270000458 42.50097870826721,17.958424985408783 42.50097870826721,17.958424985408783 41.83650314807892,18.092183768749237 41.83650314807892,18.092183768749237 41.17543399333954,18.242569267749786 41.17543399333954,18.242569267749786 40.51836431026459,18.409527838230133 40.51836431026459,18.409527838230133 39.86545205116272,18.592633306980133 39.86545205116272,18.592633306980133 39.21722769737244,18.791885673999786 39.21722769737244,18.791885673999786 38.57412040233612,19.006966054439545 38.57412040233612,19.006966054439545 37.93644607067108,19.237713515758514 37.93644607067108,19.237713515758514 37.30458319187164,19.483967125415802 37.30458319187164,19.483967125415802 36.67900860309601,19.745303690433502 36.67900860309601,19.745303690433502 36.06009483337402,20.021827518939972 36.06009483337402,20.021827518939972 35.871127247810364,20.120680332183838 35.871127247810364,20.120680332183838 35.55138409137726,20.300854742527008 35.55138409137726,20.300854742527008 35.135239362716675,20.53975611925125 35.135239362716675,20.53975611925125 34.65706408023834,20.814627408981323 34.65706408023834,20.814627408981323 34.15123224258423,21.10298126935959 34.15123224258423,21.10298126935959 33.652275800704956,21.38211727142334 33.652275800704956,21.38211727142334 33.19445848464966,21.629437804222107 33.19445848464966,21.629437804222107 32.81231224536896,21.822242438793182 32.81231224536896,21.822242438793182 32.540106773376465,21.937881410121918 32.540106773376465,21.937881410121918 32.41247534751892,21.953922510147095 32.41247534751892,21.953922510147095 31.908240914344788,21.481023728847504 31.908240914344788,21.481023728847504 31.396228075027466,21.01483941078186 31.396228075027466,21.01483941078186 30.873024463653564,20.56293785572052 30.873024463653564,20.56293785572052 30.335375666618347,20.133043825626373 30.335375666618347,20.133043825626373 29.78014349937439,19.732780754566193 29.78014349937439,19.732780754566193 29.2039692401886,19.36981976032257 29.2039692401886,19.36981976032257 28.603598475456238,19.051623344421387 28.603598475456238,19.051623344421387 27.97573208808899,18.78596991300583 27.97573208808899,18.78596991300583 27.317169308662415,18.580323457717896 27.317169308662415,18.580323457717896 26.624715328216553,18.442727625370026 26.624715328216553,18.442727625370026 25.874599814414978,18.395619094371796 25.874599814414978,18.395619094371796 25.164666771888733,18.466654419898987 25.164666771888733,18.466654419898987 24.497364461421967,18.646030128002167 24.497364461421967,18.646030128002167 23.875093460083008,18.92383247613907 23.875093460083008,18.92383247613907 23.3004629611969,19.29025650024414 23.3004629611969,19.29025650024414 22.775819897651672,19.73555088043213 22.775819897651672,19.73555088043213 22.303506731987,20.24969607591629 22.303506731987,20.24969607591629 21.886083483695984,20.82299441099167 21.886083483695984,20.82299441099167 21.526053547859192,21.445372700691223 21.526053547859192,21.445372700691223 21.225762367248535,22.107398509979248 21.225762367248535,22.107398509979248 20.967625081539154,22.827351093292236 20.967625081539154,22.827351093292236 20.752811431884766,23.563984036445618 20.752811431884766,23.563984036445618 20.57625949382782,24.314258992671967 20.57625949382782,24.314258992671967 20.432962477207184,25.0750333070755 20.432962477207184,25.0750333070755 20.31812220811844,25.843265652656555 20.31812220811844,25.843265652656555 20.226728916168213,26.615923643112183 20.226728916168213,26.615923643112183 20.153774321079254,27.3899108171463 20.153774321079254,27.3899108171463 20.094355940818787,28.162142634391785 20.094355940818787,28.162142634391785 20.04341036081314,28.929468989372253 20.04341036081314,28.929468989372253 19.996248185634613,29.68912422657013 19.996248185634613,29.68912422657013 19.96091604232788,30.43913245201111 19.96091604232788,30.43913245201111 19.95212286710739,31.181147694587708 19.95212286710739,31.181147694587708 19.978608191013336,31.91186487674713 19.978608191013336,31.91186487674713 20.04932463169098,32.62840807437897 20.04932463169098,32.62840807437897 20.173384249210358,33.32757651805878 20.173384249210358,33.32757651805878 20.35958170890808,34.00638997554779 20.35958170890808,34.00638997554779 20.616814494132996,34.66164767742157 20.616814494132996,34.66164767742157 20.954088866710663,35.290420055389404 20.954088866710663,35.290420055389404 21.38025164604187,35.88929772377014 21.38025164604187,35.88929772377014 21.904468536376953,36.45572066307068 21.904468536376953,36.45572066307068 22.37001359462738,36.88156306743622 22.37001359462738,36.88156306743622 22.85069227218628,37.290140986442566 22.85069227218628,37.290140986442566 23.34298938512802,37.68550157546997 23.34298938512802,37.68550157546997 23.84338527917862,38.07164430618286 23.84338527917862,38.07164430618286 24.348364770412445,38.45283091068268 24.348364770412445,38.45283091068268 24.85446333885193,38.83305788040161 24.85446333885193,38.83305788040161 25.358057022094727,39.21626806259155 25.358057022094727,39.21626806259155 25.855734944343567,39.60677981376648 25.855734944343567,39.60677981376648 26.343822479248047,40.00842869281769 26.343822479248047,40.00842869281769 26.819118857383728,40.42564034461975 26.819118857383728,40.42564034461975 27.221515774726868,40.79696536064148 27.221515774726868,40.79696536064148 27.618473768234253,41.17399752140045 27.618473768234253,41.17399752140045 28.010264039039612,41.55645966529846 28.010264039039612,41.55645966529846 28.39699387550354,41.94398820400238 28.39699387550354,41.94398820400238 28.77892553806305,42.336419224739075 28.77892553806305,42.336419224739075 29.15632724761963,42.73337721824646 29.15632724761963,42.73337721824646 29.529252648353577,43.134334683418274 29.529252648353577,43.134334683418274 29.89802360534668,43.53939592838287 29.89802360534668,43.53939592838287 30.2625834941864,43.947866559028625 30.2625834941864,43.947866559028625 30.623623728752136,44.35974657535553 30.623623728752136,44.35974657535553 31.11453354358673,44.93149816989899 31.11453354358673,44.93149816989899 31.599104404449463,45.508792996406555 31.599104404449463,45.508792996406555 32.077598571777344,46.09115123748779 32.077598571777344,46.09115123748779 32.550230622291565,46.67841196060181 32.550230622291565,46.67841196060181 33.01742672920227,47.27025330066681 33.01742672920227,47.27025330066681 33.47945511341095,47.86630570888519 33.47945511341095,47.86630570888519 33.93642008304596,48.466143012046814 33.93642008304596,48.466143012046814 34.38885509967804,49.06954765319824 34.38885509967804,49.06954765319824 34.83681380748749,49.67609941959381 34.83681380748749,49.67609941959381 35.280776023864746,50.28563737869263 35.280776023864746,50.28563737869263 35.77509522438049,51.03132724761963 35.77509522438049,51.03132724761963 36.217087507247925,51.811766624450684 36.217087507247925,51.811766624450684 36.61799132823944,52.61954069137573 36.61799132823944,52.61954069137573 36.98931634426117,53.447508811950684 36.98931634426117,53.447508811950684 37.34247386455536,54.28838133811951 37.34247386455536,54.28838133811951 37.68891394138336,55.13489842414856 37.68891394138336,55.13489842414856 38.03993761539459,55.979710817337036 38.03993761539459,55.979710817337036 38.407161831855774,56.81577920913696 38.407161831855774,56.81577920913696 38.80167007446289,57.635438442230225 38.80167007446289,57.635438442230225 39.235347509384155,58.43181014060974 39.235347509384155,58.43181014060974 39.557912945747375,58.96972417831421 39.557912945747375,58.96972417831421 39.89502787590027,59.50241684913635 39.89502787590027,59.50241684913635 40.247756242752075,60.02716422080994 40.247756242752075,60.02716422080994 40.61700403690338,60.541361570358276 40.61700403690338,60.541361570358276 41.00394546985626,61.04239821434021 41.00394546985626,61.04239821434021 41.4095938205719,61.527663469314575 41.4095938205719,61.527663469314575 41.8348491191864,61.99437975883484 41.8348491191864,61.99437975883484 42.28089153766632,62.44009733200073 42.28089153766632,62.44009733200073 42.74861812591553,62.86205053329468 42.74861812591553,62.86205053329468 43.23936998844147,63.257789611816406 43.23936998844147,63.257789611816406 43.51797103881836,63.63689303398132 43.51797103881836,63.63689303398132 43.655940890312195,64.20283913612366 43.655940890312195,64.20283913612366 43.67592632770538,64.91149067878723 43.67592632770538,64.91149067878723 43.60078573226929,65.71910977363586 43.60078573226929,65.71910977363586 43.453383445739746,66.58182740211487 43.453383445739746,66.58182740211487 43.256476521492004,67.45567917823792 43.256476521492004,67.45567917823792 43.03276240825653,68.29681396484375 43.03276240825653,68.29681396484375 42.8051620721817,69.06126737594604 42.8051620721817,69.06126737594604 42.59631633758545,69.705069065094 42.59631633758545,69.705069065094 42.4293577671051,70.18468379974365 42.4293577671051,70.18468379974365 42.171645164489746,70.83269357681274 42.171645164489746,70.83269357681274 41.88462197780609,71.4379608631134 41.88462197780609,71.4379608631134 41.5672242641449,72.00412154197693 41.5672242641449,72.00412154197693 41.218119859695435,72.53478765487671 41.218119859695435,72.53478765487671 40.836188197135925,73.03401231765747 40.836188197135925,73.03401231765747 40.420204401016235,73.50531220436096 40.420204401016235,73.50531220436096 39.968886971473694,73.95247220993042 39.968886971473694,73.95247220993042 39.481121301651,74.3792176246643 39.481121301651,74.3792176246643 38.95551860332489,74.78913068771362 38.95551860332489,74.78913068771362 38.39122653007507,75.18630027770996 38.39122653007507,75.18630027770996 37.89653182029724,75.52938461303711 37.89653182029724,75.52938461303711 37.401679158210754,75.89809894561768 37.401679158210754,75.89809894561768 36.9156688451767,76.29287242889404 36.9156688451767,76.29287242889404 36.44740879535675,76.71434879302979 36.44740879535675,76.71434879302979 36.00594997406006,77.16294527053833 36.00594997406006,77.16294527053833 35.600197315216064,77.63925790786743 35.600197315216064,77.63925790786743 35.23910343647003,78.14370393753052 35.23910343647003,78.14370393753052 34.93156433105469,78.67687344551086 34.93156433105469,78.67687344551086 34.68658626079559,79.23924326896667 34.68658626079559,79.23924326896667 34.51339304447174,79.8315167427063 34.51339304447174,79.8315167427063 34.433192014694214,80.24142384529114 34.433192014694214,80.24142384529114 34.38485860824585,80.60784935951233 34.38485860824585,80.60784935951233 34.372761845588684,80.9307336807251 34.372761845588684,80.9307336807251 34.40132439136505,81.21024370193481 34.40132439136505,81.21024370193481 34.47502553462982,81.4464271068573 34.47502553462982,81.4464271068573 34.59828495979309,81.63949847221375 34.59828495979309,81.63949847221375 34.775370359420776,81.78940415382385 34.775370359420776,81.78940415382385 35.010913014411926,81.89646005630493 35.010913014411926,81.89646005630493 35.30912697315216,81.96046352386475 35.30912697315216,81.96046352386475 35.674697160720825,81.98188543319702 35.674697160720825,81.98188543319702" stroke="white" stroke-width="0.1" /><polygon points="32.1293979883194,28.68811786174774 32.1293979883194,28.68811786174774 32.18609690666199,28.889235854148865 32.18609690666199,28.889235854148865 32.2271853685379,29.10383641719818 32.2271853685379,29.10383641719818 32.255321741104126,29.328668117523193 32.255321741104126,29.328668117523193 32.27322697639465,29.560640454292297 32.27322697639465,29.560640454292297 32.28372633457184,29.796558618545532 32.28372633457184,29.796558618545532 32.2895884513855,30.033326148986816 32.2895884513855,30.033326148986816 32.2933167219162,30.267751216888428 32.2933167219162,30.267751216888428 32.297953963279724,30.496686697006226 32.297953963279724,30.496686697006226 32.3060005903244,30.716881155967712 32.3060005903244,30.716881155967712 32.32038915157318,30.925461649894714 32.32038915157318,30.925461649894714 32.41012990474701,31.92518651485443 32.41012990474701,31.92518651485443 32.501521706581116,32.92587399482727 32.501521706581116,32.92587399482727 32.596221566200256,33.92704129219055 32.596221566200256,33.92704129219055 32.69587457180023,34.928098320961 32.69587457180023,34.928098320961 32.80234634876251,35.928574204444885 32.80234634876251,35.928574204444885 32.917240262031555,36.927980184555054 32.917240262031555,36.927980184555054 33.04226100444794,37.92578876018524 33.04226100444794,37.92578876018524 33.17916393280029,38.921573758125305 33.17916393280029,38.921573758125305 33.32954943180084,39.91469144821167 33.32954943180084,39.91469144821167 33.495333790779114,40.904825925827026 33.495333790779114,40.904825925827026 32.90573060512543,40.251752734184265 32.90573060512543,40.251752734184265 32.30621516704559,39.607951045036316 32.30621516704559,39.607951045036316 31.696200370788574,38.974276185035706 31.696200370788574,38.974276185035706 31.075313687324524,38.35157752037048 31.075313687324524,38.35157752037048 30.443075299263,37.74065673351288 30.443075299263,37.74065673351288 29.7990083694458,37.14252710342407 29.7990083694458,37.14252710342407 29.142683744430542,36.55782639980316 29.142683744430542,36.55782639980316 28.47362458705902,35.98756492137909 28.47362458705902,35.98756492137909 27.79129445552826,35.43254733085632 27.79129445552826,35.43254733085632 27.095377445220947,34.89367365837097 27.095377445220947,34.89367365837097 26.852798461914062,34.7221314907074 26.852798461914062,34.7221314907074 26.581817865371704,34.542810916900635 26.581817865371704,34.542810916900635 26.29207670688629,34.354907274246216 26.29207670688629,34.354907274246216 25.99322497844696,34.15762782096863 25.99322497844696,34.15762782096863 25.695118308067322,33.95043611526489 25.695118308067322,33.95043611526489 25.407403707504272,33.73258411884308 25.407403707504272,33.73258411884308 25.13977885246277,33.50322246551514 25.13977885246277,33.50322246551514 24.901944398880005,33.261871337890625 24.901944398880005,33.261871337890625 24.70354437828064,33.00756812095642 24.70354437828064,33.00756812095642 24.55449253320694,32.73988962173462 24.55449253320694,32.73988962173462 24.420946836471558,32.35023319721222 24.420946836471558,32.35023319721222 24.337653815746307,31.924813985824585 24.337653815746307,31.924813985824585 24.29688572883606,31.472060084342957 24.29688572883606,31.472060084342957 24.290917813777924,31.000599265098572 24.290917813777924,31.000599265098572 24.31234121322632,30.51896095275879 24.31234121322632,30.51896095275879 24.353426694869995,30.035778880119324 24.353426694869995,30.035778880119324 24.406397342681885,29.55952286720276 24.406397342681885,29.55952286720276 24.463951587677002,29.098933935165405 24.463951587677002,29.098933935165405 24.51798766851425,28.662219643592834 24.51798766851425,28.662219643592834 24.561312794685364,28.258386254310608 24.561312794685364,28.258386254310608 24.60266649723053,27.761399745941162 24.60266649723053,27.761399745941162 24.641355872154236,27.240538597106934 24.641355872154236,27.240538597106934 24.68388080596924,26.7033189535141 24.68388080596924,26.7033189535141 24.737223982810974,26.157093048095703 24.737223982810974,26.157093048095703 24.807940423488617,25.609642267227173 24.807940423488617,25.609642267227173 24.902957677841187,25.06842315196991 24.902957677841187,25.06842315196991 25.028830766677856,24.541009962558746 25.028830766677856,24.541009962558746 25.19243061542511,24.034911394119263 25.19243061542511,24.034911394119263 25.40031671524048,23.557642102241516 25.40031671524048,23.557642102241516 25.65951943397522,23.116931319236755 25.65951943397522,23.116931319236755 25.917232036590576,22.896522283554077 25.917232036590576,22.896522283554077 26.257172226905823,22.85836637020111 26.257172226905823,22.85836637020111 26.656901836395264,22.968730330467224 26.656901836395264,22.968730330467224 27.094095945358276,23.1939896941185 27.094095945358276,23.1939896941185 27.546426653862,23.500408232212067 27.546426653862,23.500408232212067 27.991721034049988,23.85425716638565 27.991721034049988,23.85425716638565 28.40733230113983,24.221746623516083 28.40733230113983,24.221746623516083 28.77119779586792,24.56935942173004 28.77119779586792,24.56935942173004 29.06098961830139,24.863097071647644 29.06098961830139,24.863097071647644 29.25427556037903,25.06949007511139 29.25427556037903,25.06949007511139 29.40439283847809,25.249558687210083 29.40439283847809,25.249558687210083 29.647770524024963,25.570204854011536 29.647770524024963,25.570204854011536 29.96079921722412,25.99402368068695 29.96079921722412,25.99402368068695 30.320081114768982,26.48322880268097 30.320081114768982,26.48322880268097 30.70206642150879,27.00030505657196 30.70206642150879,27.00030505657196 31.083253026008606,27.507737278938293 31.083253026008606,27.507737278938293 31.4400315284729,27.96773910522461 31.4400315284729,27.96773910522461 31.74901008605957,28.342849016189575 31.74901008605957,28.342849016189575 31.986579298973083,28.5955011844635 31.986579298973083,28.5955011844635" stroke="white" stroke-width="0.1" /><polygon points="69.8555588722229,33.09118151664734 69.8555588722229,33.09118151664734 69.55041885375977,33.415186405181885 69.55041885375977,33.415186405181885 69.21788454055786,33.723098039627075 69.21788454055786,33.723098039627075 68.86345148086548,34.01741981506348 68.86345148086548,34.01741981506348 68.49281787872314,34.30108428001404 68.49281787872314,34.30108428001404 68.11168789863586,34.57670211791992 68.11168789863586,34.57670211791992 67.72565245628357,34.84709858894348 67.72565245628357,34.84709858894348 67.34009385108948,35.11488139629364 67.34009385108948,35.11488139629364 66.96088314056396,35.38293242454529 66.96088314056396,35.38293242454529 66.59349799156189,35.65386235713959 66.59349799156189,35.65386235713959 66.24374985694885,35.930490493774414 66.24374985694885,35.930490493774414 65.6979501247406,36.38889491558075 65.6979501247406,36.38889491558075 65.1613175868988,36.857423186302185 65.1613175868988,36.857423186302185 64.63347673416138,37.33533024787903 64.63347673416138,37.33533024787903 64.11395072937012,37.822192907333374 64.11395072937012,37.822192907333374 63.602471351623535,38.317471742630005 63.602471351623535,38.317471742630005 63.098663091659546,38.82063925266266 63.098663091659546,38.82063925266266 62.60194182395935,39.331161975860596 62.60194182395935,39.331161975860596 62.11225986480713,39.848506450653076 62.11225986480713,39.848506450653076 61.62886023521423,40.37197530269623 61.62886023521423,40.37197530269623 61.15175485610962,40.901416540145874 61.15175485610962,40.901416540145874 61.21527552604675,40.53392708301544 61.21527552604675,40.53392708301544 61.27709150314331,40.16622304916382 61.27709150314331,40.16622304916382 61.337095499038696,39.79820013046265 61.337095499038696,39.79820013046265 61.3955557346344,39.429908990859985 61.3955557346344,39.429908990859985 61.452311277389526,39.06140625476837 61.452311277389526,39.06140625476837 61.50762438774109,38.692742586135864 61.50762438774109,38.692742586135864 61.56139373779297,38.323813676834106 61.56139373779297,38.323813676834106 61.61378026008606,37.95488476753235 61.61378026008606,37.95488476753235 61.66467070579529,37.58552968502045 61.66467070579529,37.58552968502045 61.714500188827515,37.21628189086914 61.714500188827515,37.21628189086914 61.84186339378357,36.29249334335327 61.84186339378357,36.29249334335327 61.97295784950256,35.36902368068695 61.97295784950256,35.36902368068695 62.107354402542114,34.44587588310242 62.107354402542114,34.44587588310242 62.244629859924316,33.52304697036743 62.244629859924316,33.52304697036743 62.38425374031067,32.6004832983017 62.38425374031067,32.6004832983017 62.52589821815491,31.67824149131775 62.52589821815491,31.67824149131775 62.66893148422241,30.75631856918335 62.66893148422241,30.75631856918335 62.81307935714722,29.834768176078796 62.81307935714722,29.834768176078796 62.957656383514404,28.9133220911026 62.957656383514404,28.9133220911026 63.1026029586792,27.992358803749084 63.1026029586792,27.992358803749084 63.30137848854065,27.454978227615356 63.30137848854065,27.454978227615356 63.72855305671692,26.753997802734375 63.72855305671692,26.753997802734375 64.33286666870117,25.95895826816559 64.33286666870117,25.95895826816559 65.06326198577881,25.139406323432922 65.06326198577881,25.139406323432922 65.86858630180359,24.36499148607254 65.86858630180359,24.36499148607254 66.6976809501648,23.705416917800903 66.6976809501648,23.705416917800903 67.49927401542664,23.230013251304626 67.49927401542664,23.230013251304626 68.22231411933899,23.00875186920166 68.22231411933899,23.00875186920166 68.8155472278595,23.110856115818024 68.8155472278595,23.110856115818024 69.2280113697052,23.606349527835846 69.2280113697052,23.606349527835846 69.44810152053833,24.17362630367279 69.44810152053833,24.17362630367279 69.6262001991272,24.759872257709503 69.6262001991272,24.759872257709503 69.76763010025024,25.36120116710663 69.76763010025024,25.36120116710663 69.87794041633606,25.974041223526 69.87794041633606,25.974041223526 69.96256709098816,26.594659686088562 69.96256709098816,26.594659686088562 70.02710103988647,27.21932828426361 70.02710103988647,27.21932828426361 70.0768768787384,27.844318747520447 70.0768768787384,27.844318747520447 70.11758685112,28.465843200683594 70.11758685112,28.465843200683594 70.15441060066223,29.080280661582947 70.15441060066223,29.080280661582947 70.19320726394653,29.684007167816162 70.19320726394653,29.684007167816162 70.21819949150085,29.994797706604004 70.21819949150085,29.994797706604004 70.25023102760315,30.335164070129395 70.25023102760315,30.335164070129395 70.28188109397888,30.696526169776917 70.28188109397888,30.696526169776917 70.30543684959412,31.070196628570557 70.30543684959412,31.070196628570557 70.3134298324585,31.447705626487732 70.3134298324585,31.447705626487732 70.29834985733032,31.820419430732727 70.29834985733032,31.820419430732727 70.25246620178223,32.17965066432953 70.25246620178223,32.17965066432953 70.168536901474,32.51703083515167 70.168536901474,32.51703083515167 70.0386106967926,32.82361030578613 70.0386106967926,32.82361030578613" stroke="white" stroke-width="0.1" /><polygon points="84.99513864517212,57.90829062461853 84.99513864517212,57.90829062461853 85.36662459373474,58.06533694267273 85.36662459373474,58.06533694267273 85.74994206428528,58.234161138534546 85.74994206428528,58.234161138534546 86.13517880439758,58.41401219367981 86.13517880439758,58.41401219367981 86.51210069656372,58.6043119430542 86.51210069656372,58.6043119430542 86.87095642089844,58.80420804023743 86.87095642089844,58.80420804023743 87.20157146453857,59.01310443878174 87.20157146453857,59.01310443878174 87.49381303787231,59.23015475273132 87.49381303787231,59.23015475273132 87.73783445358276,59.45482850074768 87.73783445358276,59.45482850074768 87.92344331741333,59.68632102012634 87.92344331741333,59.68632102012634 88.04078698158264,59.923940896987915 88.04078698158264,59.923940896987915 88.03433775901794,60.218262672424316 88.03433775901794,60.218262672424316 87.87121772766113,60.501182079315186 87.87121772766113,60.501182079315186 87.58270144462585,60.77040433883667 87.58270144462585,60.77040433883667 87.20018863677979,61.0235869884491 87.20018863677979,61.0235869884491 86.75499558448792,61.25854849815369 86.75499558448792,61.25854849815369 86.2785816192627,61.472880840301514 86.2785816192627,61.472880840301514 85.80200672149658,61.664193868637085 85.80200672149658,61.664193868637085 85.35703420639038,61.830300092697144 85.35703420639038,61.830300092697144 84.97462272644043,61.96890473365784 84.97462272644043,61.96890473365784 84.68648195266724,62.07772493362427 84.68648195266724,62.07772493362427 60.698145627975464,71.76889777183533 60.698145627975464,71.76889777183533 60.533106327056885,71.83428406715393 60.533106327056885,71.83428406715393 60.33129096031189,71.90905213356018 60.33129096031189,71.90905213356018 60.10273098945618,71.98472023010254 60.10273098945618,71.98472023010254 59.85775589942932,72.05250859260559 59.85775589942932,72.05250859260559 59.60633158683777,72.1039891242981 59.60633158683777,72.1039891242981 59.35874581336975,72.1305251121521 59.35874581336975,72.1305251121521 59.12506580352783,72.1234917640686 59.12506580352783,72.1234917640686 58.915531635284424,72.07430601119995 58.915531635284424,72.07430601119995 58.74009728431702,71.9741702079773 58.74009728431702,71.9741702079773 58.609163761138916,71.81494235992432 58.609163761138916,71.81494235992432 58.52816104888916,71.55984044075012 58.52816104888916,71.55984044075012 58.501726388931274,71.2611436843872 58.501726388931274,71.2611436843872 58.52267146110535,70.92648148536682 58.52267146110535,70.92648148536682 58.58427882194519,70.56347131729126 58.58427882194519,70.56347131729126 58.679503202438354,70.17977833747864 58.679503202438354,70.17977833747864 58.80149006843567,69.7830319404602 58.80149006843567,69.7830319404602 58.94308090209961,69.38090324401855 58.94308090209961,69.38090324401855 59.09767746925354,68.98106336593628 59.09767746925354,68.98106336593628 59.258079528808594,68.59087347984314 59.258079528808594,68.59087347984314 59.417468309402466,68.21848154067993 59.417468309402466,68.21848154067993 59.47374701499939,68.08770298957825 59.47374701499939,68.08770298957825 59.528738260269165,67.96055436134338 59.528738260269165,67.96055436134338 59.58208441734314,67.83756017684937 59.58208441734314,67.83756017684937 59.63345766067505,67.71893501281738 59.63345766067505,67.71893501281738 59.68242883682251,67.60521531105042 59.68242883682251,67.60521531105042 59.728795289993286,67.49682426452637 59.728795289993286,67.49682426452637 59.772008657455444,67.39402413368225 59.772008657455444,67.39402413368225 59.81171131134033,67.29735732078552 59.81171131134033,67.29735732078552 59.84768271446228,67.20697283744812 59.84768271446228,67.20697283744812 59.87960696220398,67.12368130683899 59.87960696220398,67.12368130683899 60.16257405281067,66.35587811470032 60.16257405281067,66.35587811470032 60.445600748062134,65.58806896209717 60.445600748062134,65.58806896209717 60.728734731674194,64.82042074203491 60.728734731674194,64.82042074203491 61.01180911064148,64.05277252197266 61.01180911064148,64.05277252197266 61.29499673843384,63.285285234451294 61.29499673843384,63.285285234451294 61.578184366226196,62.51785159111023 61.578184366226196,62.51785159111023 61.86131238937378,61.75036430358887 61.86131238937378,61.75036430358887 62.14444637298584,60.9829843044281 62.14444637298584,60.9829843044281 62.42741942405701,60.21549105644226 62.42741942405701,60.21549105644226 62.710386514663696,59.44816470146179 62.710386514663696,59.44816470146179 62.920671701431274,58.8778018951416 62.920671701431274,58.8778018951416 63.13106417655945,58.30754041671753 63.13106417655945,58.30754041671753 63.34155797958374,57.73727893829346 63.34155797958374,57.73727893829346 63.55200409889221,57.16707110404968 63.55200409889221,57.16707110404968 63.7625515460968,56.596916913986206 63.7625515460968,56.596916913986206 63.97310495376587,56.02681636810303 63.97310495376587,56.02681636810303 64.18354511260986,55.45656085014343 64.18354511260986,55.45656085014343 64.39409852027893,54.88635301589966 64.39409852027893,54.88635301589966 64.60433006286621,54.31598424911499 64.60433006286621,54.31598424911499 64.81471657752991,53.74566912651062 64.81471657752991,53.74566912651062 65.1613175868988,52.98340320587158 65.1613175868988,52.98340320587158 65.59488773345947,52.32425928115845 65.59488773345947,52.32425928115845 66.10578298568726,51.7720103263855 66.10578298568726,51.7720103263855 66.6842520236969,51.33076310157776 66.6842520236969,51.33076310157776 67.32043027877808,51.00441575050354 67.32043027877808,51.00441575050354 68.0047333240509,50.79700946807861 68.0047333240509,50.79700946807861 68.72724294662476,50.712382793426514 68.72724294662476,50.712382793426514 69.47836875915527,50.754642486572266 69.47836875915527,50.754642486572266 70.24815082550049,50.92762112617493 70.24815082550049,50.92762112617493 71.02709412574768,51.2354850769043 71.02709412574768,51.2354850769043 83.8713526725769,57.43080377578735 83.8713526725769,57.43080377578735 83.95384550094604,57.469284534454346 83.95384550094604,57.469284534454346 84.04454588890076,57.50999450683594 84.04454588890076,57.50999450683594 84.14275646209717,57.55273699760437 84.14275646209717,57.55273699760437 84.24800634384155,57.59766101837158 84.24800634384155,57.59766101837158 84.35970544815063,57.64460563659668 84.35970544815063,57.64460563659668 84.47731733322144,57.69358277320862 84.47731733322144,57.69358277320862 84.60020422935486,57.74441957473755 84.60020422935486,57.74441957473755 84.72788333892822,57.797229290008545 84.72788333892822,57.797229290008545 84.85962152481079,57.851797342300415 84.85962152481079,57.851797342300415" stroke="white" stroke-width="0.1" /><polygon points="99.6470034122467,81.09172582626343 99.6470034122467,81.09172582626343 99.85792636871338,81.73525929450989 99.85792636871338,81.73525929450989 99.97420310974121,82.38145709037781 99.97420310974121,82.38145709037781 99.99642372131348,83.02046060562134 99.99642372131348,83.02046060562134 99.92485642433167,83.64230990409851 99.92485642433167,83.64230990409851 99.76019263267517,84.23713445663452 99.76019263267517,84.23713445663452 99.50274229049683,84.79519486427307 99.50274229049683,84.79519486427307 99.15305376052856,85.30645966529846 99.15305376052856,85.30645966529846 98.71143698692322,85.76129078865051 98.71143698692322,85.76129078865051 98.17842841148376,86.14951372146606 98.17842841148376,86.14951372146606 97.55460619926453,86.4616870880127 97.55460619926453,86.4616870880127 96.48837447166443,86.89664602279663 96.48837447166443,86.89664602279663 94.23264861106873,87.81888484954834 94.23264861106873,87.81888484954834 91.08563661575317,89.10382390022278 91.08563661575317,89.10382390022278 87.34577298164368,90.62707424163818 87.34577298164368,90.62707424163818 83.31158757209778,92.26415753364563 83.31158757209778,92.26415753364563 79.28139567375183,93.89079213142395 79.28139567375183,93.89079213142395 75.55352449417114,95.38217186927795 75.55352449417114,95.38217186927795 72.42644429206848,96.6141939163208 72.42644429206848,96.6141939163208 70.19858956336975,97.46220111846924 70.19858956336975,97.46220111846924 69.1683292388916,97.80187606811523 69.1683292388916,97.80187606811523 69.01906132698059,97.81796932220459 69.01906132698059,97.81796932220459 68.87011528015137,97.82766699790955 68.87011528015137,97.82766699790955 68.72164607048035,97.831130027771 68.72164607048035,97.831130027771 68.5737669467926,97.82841205596924 68.5737669467926,97.82841205596924 68.42652559280396,97.81978130340576 68.42652559280396,97.81978130340576 68.28024387359619,97.80550003051758 68.28024387359619,97.80550003051758 68.13470721244812,97.78562188148499 68.13470721244812,97.78562188148499 67.99029111862183,97.76030778884888 67.99029111862183,97.76030778884888 67.84704327583313,97.72977232933044 67.84704327583313,97.72977232933044 67.70519018173218,97.69444465637207 67.70519018173218,97.69444465637207 67.36530065536499,97.5881278514862 67.36530065536499,97.5881278514862 67.03692674636841,97.45208024978638 67.03692674636841,97.45208024978638 66.72219038009644,97.287517786026 66.72219038009644,97.287517786026 66.4235532283783,97.09551334381104 66.4235532283783,97.09551334381104 66.14335179328918,96.87739610671997 66.14335179328918,96.87739610671997 65.88388085365295,96.63434028625488 65.88388085365295,96.63434028625488 65.64738154411316,96.36719226837158 65.64738154411316,96.36719226837158 65.43629765510559,96.0776150226593 65.43629765510559,96.0776150226593 65.2528703212738,95.76629400253296 65.2528703212738,95.76629400253296 65.09950160980225,95.43493390083313 65.09950160980225,95.43493390083313 65.04727602005005,95.30538320541382 65.04727602005005,95.30538320541382 64.99494910240173,95.17572522163391 64.99494910240173,95.17572522163391 64.94250893592834,95.04591226577759 64.94250893592834,95.04591226577759 64.89006876945496,94.91599202156067 64.89006876945496,94.91599202156067 64.83752727508545,94.78606581687927 64.83752727508545,94.78606581687927 64.78497982025146,94.65619921684265 64.78497982025146,94.65619921684265 64.73233103752136,94.52622532844543 64.73233103752136,94.52622532844543 64.67968225479126,94.39640641212463 64.67968225479126,94.39640641212463 64.62692022323608,94.2667007446289 64.62692022323608,94.2667007446289 64.57427144050598,94.13720369338989 64.57427144050598,94.13720369338989 64.30169343948364,93.47416758537292 64.30169343948364,93.47416758537292 63.727378845214844,92.08248853683472 63.727378845214844,92.08248853683472 62.928080558776855,90.14031887054443 62.928080558776855,90.14031887054443 61.980366706848145,87.82560229301453 61.980366706848145,87.82560229301453 60.96097230911255,85.3165864944458 60.96097230911255,85.3165864944458 59.94659066200256,82.79120922088623 59.94659066200256,82.79120922088623 59.013742208480835,80.42735457420349 59.013742208480835,80.42735457420349 58.23916792869568,78.40338945388794 58.23916792869568,78.40338945388794 57.69960284233093,76.8970251083374 57.69960284233093,76.8970251083374 57.471734285354614,76.08669400215149 57.471734285354614,76.08669400215149 57.460808753967285,75.9880006313324 57.460808753967285,75.9880006313324 57.451802492141724,75.8895218372345 57.451802492141724,75.8895218372345 57.44471549987793,75.79119801521301 57.44471549987793,75.79119801521301 57.43997097015381,75.6930947303772 57.43997097015381,75.6930947303772 57.437628507614136,75.59535503387451 57.437628507614136,75.59535503387451 57.43799805641174,75.49794316291809 57.43799805641174,75.49794316291809 57.441145181655884,75.40095448493958 57.441145181655884,75.40095448493958 57.44743347167969,75.30444860458374 57.44743347167969,75.30444860458374 57.45697021484375,75.20841360092163 57.45697021484375,75.20841360092163 57.47002959251404,75.11297464370728 57.47002959251404,75.11297464370728 57.52028226852417,75.1707375049591 57.52028226852417,75.1707375049591 57.57186412811279,75.22743940353394 57.57186412811279,75.22743940353394 57.62457251548767,75.28307437896729 57.62457251548767,75.28307437896729 57.67839550971985,75.33774971961975 57.67839550971985,75.33774971961975 57.73327946662903,75.39157271385193 57.73327946662903,75.39157271385193 57.78918266296387,75.44454336166382 57.78918266296387,75.44454336166382 57.845884561538696,75.49660801887512 57.845884561538696,75.49660801887512 57.90349245071411,75.54798126220703 57.90349245071411,75.54798126220703 57.96173810958862,75.59850215911865 57.96173810958862,75.59850215911865 58.02083611488342,75.648432970047 58.02083611488342,75.648432970047 58.10497999191284,75.71834921836853 58.10497999191284,75.71834921836853 58.19061994552612,75.78698992729187 58.19061994552612,75.78698992729187 58.27764272689819,75.85429549217224 58.27764272689819,75.85429549217224 58.36600065231323,75.92031955718994 58.36600065231323,75.92031955718994 58.45568776130676,75.98501443862915 58.45568776130676,75.98501443862915 58.546650409698486,76.04848742485046 58.546650409698486,76.04848742485046 58.63868594169617,76.11061930656433 58.63868594169617,76.11061930656433 58.731889724731445,76.17153525352478 58.731889724731445,76.17153525352478 58.82594585418701,76.23116374015808 58.82594585418701,76.23116374015808 58.92122983932495,76.28962397575378 58.92122983932495,76.28962397575378 59.575849771499634,76.63207054138184 59.575849771499634,76.63207054138184 60.93677878379822,77.31109261512756 60.93677878379822,77.31109261512756 62.82997131347656,78.24149131774902 62.82997131347656,78.24149131774902 65.08148908615112,79.33825850486755 65.08148908615112,79.33825850486755 67.51739382743835,80.51618933677673 67.51739382743835,80.51618933677673 69.96374130249023,81.69028162956238 69.96374130249023,81.69028162956238 72.24632501602173,82.77537822723389 72.24632501602173,82.77537822723389 74.19158220291138,83.68638157844543 74.19158220291138,83.68638157844543 75.62503814697266,84.33806896209717 75.62503814697266,84.33806896209717 76.3731837272644,84.64555144309998 76.3731837272644,84.64555144309998 76.37824416160583,84.64714884757996 76.37824416160583,84.64714884757996 76.38325691223145,84.64896082878113 76.38325691223145,84.64896082878113 76.38821005821228,84.6509337425232 76.38821005821228,84.6509337425232 76.39316916465759,84.65285301208496 76.39316916465759,84.65285301208496 76.39812231063843,84.65493321418762 76.39812231063843,84.65493321418762 76.40313506126404,84.6570074558258 76.40313506126404,84.6570074558258 76.40824913978577,84.65892672538757 76.40824913978577,84.65892672538757 76.41352415084839,84.66089963912964 76.41352415084839,84.66089963912964 76.41874551773071,84.66265797615051 76.41874551773071,84.66265797615051 76.42434239387512,84.66430902481079 76.42434239387512,84.66430902481079 77.49441266059875,84.89559292793274 77.49441266059875,84.89559292793274 78.54369878768921,84.94909405708313 78.54369878768921,84.94909405708313 79.55994606018066,84.83553528785706 79.55994606018066,84.83553528785706 80.5307924747467,84.56583023071289 80.5307924747467,84.56583023071289 81.44387006759644,84.15080308914185 81.44387006759644,84.15080308914185 82.28707909584045,83.60132575035095 82.28707909584045,83.60132575035095 83.0479085445404,82.92805552482605 83.0479085445404,82.92805552482605 83.71419906616211,82.14202523231506 83.71419906616211,82.14202523231506 84.27348136901855,81.25399351119995 84.27348136901855,81.25399351119995 84.71376299858093,80.27489185333252 84.71376299858093,80.27489185333252 85.06409525871277,79.34529185295105 85.06409525871277,79.34529185295105 85.65806746482849,77.78005003929138 85.65806746482849,77.78005003929138 86.42886281013489,75.73860287666321 86.42886281013489,75.73860287666321 87.30943202972412,73.38023781776428 87.30943202972412,73.38023781776428 88.2328450679779,70.86445093154907 88.2328450679779,70.86445093154907 89.13217186927795,68.35053563117981 89.13217186927795,68.35053563117981 89.94042873382568,65.99786877632141 89.94042873382568,65.99786877632141 90.59078693389893,63.96591067314148 90.59078693389893,63.96591067314148 91.01604223251343,62.41382956504822 91.01604223251343,62.41382956504822 91.14953279495239,61.501336097717285 91.14953279495239,61.501336097717285 91.26277565956116,61.59086227416992 91.26277565956116,61.59086227416992 91.37228727340698,61.68454885482788 91.37228727340698,61.68454885482788 91.47796034812927,61.7820680141449 91.47796034812927,61.7820680141449 91.5797472000122,61.88343167304993 91.5797472000122,61.88343167304993 91.67753458023071,61.98841333389282 91.67753458023071,61.98841333389282 91.77127480506897,62.09701895713806 91.77127480506897,62.09701895713806 91.8609619140625,62.20887303352356 91.8609619140625,62.20887303352356 91.94644093513489,62.32408881187439 91.94644093513489,62.32408881187439 92.02754497528076,62.44228482246399 92.02754497528076,62.44228482246399 92.10450053215027,62.563735246658325 92.10450053215027,62.563735246658325 92.29239821434021,63.0047082901001 92.29239821434021,63.0047082901001 92.75709390640259,64.13227915763855 92.75709390640259,64.13227915763855 93.44198107719421,65.80655574798584 93.44198107719421,65.80655574798584 94.29041743278503,67.8877055644989 94.29041743278503,67.8877055644989 95.24585604667664,70.23605108261108 95.24585604667664,70.23605108261108 96.25176787376404,72.7117657661438 96.25176787376404,72.7117657661438 97.25127816200256,75.17495155334473 97.25127816200256,75.17495155334473 98.18807244300842,77.48588919639587 98.18807244300842,77.48588919639587 99.00543689727783,79.5046329498291 99.00543689727783,79.5046329498291" stroke="white" stroke-width="0.1" /></svg>