<?xml version="1.0" encoding="utf-8" ?>
<svg baseProfile="full" height="93.3598518371582" version="1.1" width="99.99988675117493" xmlns="http://www.w3.org/2000/svg" xmlns:ev="http://www.w3.org/2001/xml-events" xmlns:xlink="http://www.w3.org/1999/xlink"><defs><clipPath /></defs><polygon points="78.27394604682922,39.51738476753235 78.27394604682922,39.51738476753235 78.0515730381012,38.303640484809875 78.0515730381012,38.303640484809875 77.76435613632202,37.10980415344238 77.76435613632202,37.10980415344238 77.4034857749939,35.93701422214508 77.4034857749939,35.93701422214508 76.95987224578857,34.78637635707855 76.95987224578857,34.78637635707855 76.42467617988586,33.659037947654724 76.42467617988586,33.659037947654724 75.78898072242737,32.55613148212433 75.78898072242737,32.55613148212433 75.36382675170898,31.962430477142334 75.36382675170898,31.962430477142334 74.90504384040833,31.396231055259705 74.90504384040833,31.396231055259705 74.46562647819519,30.8322936296463 74.46562647819519,30.8322936296463 74.09842610359192,30.2453875541687 74.09842610359192,30.2453875541687 73.85655045509338,29.610294103622437 73.85655045509338,29.610294103622437 73.79286289215088,28.901776671409607 73.79286289215088,28.901776671409607 73.84251356124878,28.33171784877777 73.84251356124878,28.33171784877777 73.92424941062927,27.765649557113647 73.92424941062927,27.765649557113647 74.03788566589355,27.205196022987366 74.03788566589355,27.205196022987366 74.18301105499268,26.651912927627563 74.18301105499268,26.651912927627563 74.35944080352783,26.10742747783661 74.35944080352783,26.10742747783661 74.56686496734619,25.573313236236572 74.56686496734619,25.573313236236572 75.05545020103455,24.576781690120697 75.05545020103455,24.576781690120697 75.650554895401,23.64215850830078 75.650554895401,23.64215850830078 76.3437271118164,22.778628766536713 76.3437271118164,22.778628766536713 77.1263062953949,21.99537605047226 77.1263062953949,21.99537605047226 77.98983454704285,21.301572024822235 77.98983454704285,21.301572024822235 78.92573475837708,20.706428587436676 78.92573475837708,20.706428587436676 81.13493919372559,19.799691438674927 81.13493919372559,19.799691438674927 83.44998955726624,19.44970041513443 83.44998955726624,19.44970041513443 85.76807379722595,19.635282456874847 85.76807379722595,19.635282456874847 87.98603415489197,20.33526450395584 87.98603415489197,20.33526450395584 90.00106453895569,21.528491377830505 90.00106453895569,21.528491377830505 91.71000123023987,23.193788528442383 91.71000123023987,23.193788528442383 93.03908348083496,25.385400652885437 93.03908348083496,25.385400652885437 93.75059604644775,27.78508961200714 93.75059604644775,27.78508961200714 93.85528564453125,30.265867710113525 93.85528564453125,30.265867710113525 93.36363077163696,32.70070552825928 93.36363077163696,32.70070552825928 92.28630661964417,34.962618350982666 92.28630661964417,34.962618350982666 90.63405990600586,36.924588680267334 90.63405990600586,36.924588680267334 92.09920763969421,37.11223006248474 92.09920763969421,37.11223006248474 93.47273707389832,37.617456912994385 93.47273707389832,37.617456912994385 94.70717310905457,38.40040862560272 94.70717310905457,38.40040862560272 95.75506448745728,39.42117691040039 95.75506448745728,39.42117691040039 96.56901955604553,40.63990116119385 96.56901955604553,40.63990116119385 97.10167646408081,42.01672673225403 97.10167646408081,42.01672673225403 97.23620414733887,42.64114797115326 97.23620414733887,42.64114797115326 97.32490181922913,43.28266382217407 97.32490181922913,43.28266382217407 97.38084077835083,43.934065103530884 97.38084077835083,43.934065103530884 97.41671085357666,44.58802938461304 97.41671085357666,44.58802938461304 97.44561910629272,45.237353444099426 97.44561910629272,45.237353444099426 97.48029112815857,45.87476849555969 97.48029112815857,45.87476849555969 97.52237200737,46.48904502391815 97.52237200737,46.48904502391815 97.56475687026978,47.10272252559662 97.56475687026978,47.10272252559662 97.6072907447815,47.716024518013 97.6072907447815,47.716024518013 97.64978885650635,48.329102993011475 97.64978885650635,48.329102993011475 97.692209482193,48.94220232963562 97.692209482193,48.94220232963562 97.7342963218689,49.55548644065857 97.7342963218689,49.55548644065857 95.10776400566101,46.90004885196686 95.10776400566101,46.90004885196686 92.17990040779114,44.60356831550598 92.17990040779114,44.60356831550598 88.99169564247131,42.691582441329956 88.99169564247131,42.691582441329956 85.58396697044373,41.18955135345459 85.58396697044373,41.18955135345459 81.99779391288757,40.12299180030823 81.99779391288757,40.12299180030823" stroke="white" stroke-width="0.1" /><polygon points="47.228679060935974,60.39395332336426 47.228679060935974,60.39395332336426 46.680748462677,62.521904706954956 46.680748462677,62.521904706954956 46.300411224365234,64.66352343559265 46.300411224365234,64.66352343559265 46.08354568481445,66.81064367294312 46.08354568481445,66.81064367294312 46.025773882865906,68.95495653152466 46.025773882865906,68.95495653152466 46.122974157333374,71.08820676803589 46.122974157333374,71.08820676803589 46.37080430984497,73.20217490196228 46.37080430984497,73.20217490196228 37.69260346889496,73.20217490196228 37.69260346889496,73.20217490196228 36.749207973480225,73.21131229400635 36.749207973480225,73.21131229400635 35.79331040382385,73.22490215301514 35.79331040382385,73.22490215301514 34.832918643951416,73.22224378585815 34.832918643951416,73.22224378585815 33.87582004070282,73.18263053894043 33.87582004070282,73.18263053894043 32.9302191734314,73.08540940284729 32.9302191734314,73.08540940284729 32.00378715991974,72.90982604026794 32.00378715991974,72.90982604026794 29.647886753082275,72.01810479164124 29.647886753082275,72.01810479164124 27.686813473701477,70.630943775177 27.686813473701477,70.630943775177 26.149624586105347,68.83641481399536 26.149624586105347,68.83641481399536 25.065261125564575,66.72257781028748 25.065261125564575,66.72257781028748 24.46296662092209,64.37749862670898 24.46296662092209,64.37749862670898 24.371570348739624,61.88924312591553 24.371570348739624,61.88924312591553 25.43792426586151,46.41872942447662 25.43792426586151,46.41872942447662 25.497829914093018,45.4402893781662 25.497829914093018,45.4402893781662 25.549539923667908,44.457319378852844 25.549539923667908,44.457319378852844 25.602668523788452,43.47247779369354 25.602668523788452,43.47247779369354 25.66646933555603,42.48844087123871 25.66646933555603,42.48844087123871 25.750604271888733,41.50784909725189 25.750604271888733,41.50784909725189 25.864464044570923,40.53341448307037 25.864464044570923,40.53341448307037 26.58020853996277,37.82645761966705 26.58020853996277,37.82645761966705 27.90476381778717,35.393089056015015 27.90476381778717,35.393089056015015 29.74018156528473,33.3283394575119 29.74018156528473,33.3283394575119 31.98828399181366,31.727275252342224 31.98828399181366,31.727275252342224 34.551164507865906,30.684950947761536 34.551164507865906,30.684950947761536 37.330761551856995,30.29642105102539 37.330761551856995,30.29642105102539 34.886085987091064,27.51772403717041 34.886085987091064,27.51772403717041 33.10874104499817,24.333715438842773 33.10874104499817,24.333715438842773 32.02714920043945,20.873869955539703 32.02714920043945,20.873869955539703 31.66961371898651,17.26764440536499 31.66961371898651,17.26764440536499 32.064518332481384,13.644523918628693 32.064518332481384,13.644523918628693 33.2402765750885,10.133953392505646 33.2402765750885,10.133953392505646 34.92745757102966,7.259909063577652 34.92745757102966,7.259909063577652 37.10603415966034,4.788696765899658 37.10603415966034,4.788696765899658 39.69321250915527,2.7737174183130264 39.69321250915527,2.7737174183130264 42.6060289144516,1.2683541513979435 42.6060289144516,1.2683541513979435 45.7617312669754,0.3259810619056225 45.7617312669754,0.3259810619056225 49.07742440700531,0.0 49.07742440700531,0.0 52.39326357841492,0.3261588979512453 52.39326357841492,0.3261588979512453 55.54919242858887,1.2688877061009407 55.54919242858887,1.2688877061009407 58.4622323513031,2.7746159583330154 58.4622323513031,2.7746159583330154 61.0491156578064,4.7897543758153915 61.0491156578064,4.7897543758153915 63.226789236068726,7.260733097791672 63.226789236068726,7.260733097791672 64.91217613220215,10.133953392505646 64.91217613220215,10.133953392505646 66.08905792236328,13.644523918628693 66.08905792236328,13.644523918628693 66.484934091568,17.26764440536499 66.484934091568,17.26764440536499 66.12799763679504,20.873869955539703 66.12799763679504,20.873869955539703 65.04632830619812,24.333715438842773 65.04632830619812,24.333715438842773 63.268160820007324,27.517715096473694 63.268160820007324,27.517715096473694 60.821688175201416,30.29642105102539 60.821688175201416,30.29642105102539 63.44563961029053,30.64734935760498 63.44563961029053,30.64734935760498 65.87960720062256,31.586164236068726 65.87960720062256,31.586164236068726 68.04203987121582,33.03179740905762 68.04203987121582,33.03179740905762 69.85117197036743,34.90316867828369 69.85117197036743,34.90316867828369 71.22541666030884,37.119221687316895 71.22541666030884,37.119221687316895 72.0831036567688,39.59885835647583 72.0831036567688,39.59885835647583 71.64360880851746,39.65494632720947 71.64360880851746,39.65494632720947 71.20317220687866,39.7160142660141 71.20317220687866,39.7160142660141 70.76184153556824,39.78307545185089 70.76184153556824,39.78307545185089 70.31946182250977,39.85711634159088 70.31946182250977,39.85711634159088 69.87607479095459,39.93917107582092 69.87607479095459,39.93917107582092 69.43159699440002,40.03019332885742 69.43159699440002,40.03019332885742 64.31373357772827,41.6098415851593 64.31373357772827,41.6098415851593 59.63963866233826,44.02793347835541 59.63963866233826,44.02793347835541 55.501753091812134,47.19992280006409 55.501753091812134,47.19992280006409 51.99233293533325,51.041269302368164 51.99233293533325,51.041269302368164 49.203866720199585,55.467456579208374 49.203866720199585,55.467456579208374" stroke="white" stroke-width="0.1" /><polygon points="19.226713478565216,20.706428587436676 19.226713478565216,20.706428587436676 20.16351670026779,21.301572024822235 20.16351670026779,21.301572024822235 21.027308702468872,21.99537605047226 21.027308702468872,21.99537605047226 21.809925138950348,22.778628766536713 21.809925138950348,22.778628766536713 22.503016889095306,23.64215850830078 22.503016889095306,23.64215850830078 23.09846132993698,24.576781690120697 23.09846132993698,24.576781690120697 23.58797937631607,25.573313236236572 23.58797937631607,25.573313236236572 23.795409500598907,26.10742747783661 23.795409500598907,26.10742747783661 23.97179901599884,26.651912927627563 23.97179901599884,26.651912927627563 24.116963148117065,27.205196022987366 24.116963148117065,27.205196022987366 24.230487644672394,27.765649557113647 24.230487644672394,27.765649557113647 24.31226223707199,28.33171784877777 24.31226223707199,28.33171784877777 24.361984431743622,28.901776671409607 24.361984431743622,28.901776671409607 24.298332631587982,29.610294103622437 24.298332631587982,29.610294103622437 24.05638098716736,30.2453875541687 24.05638098716736,30.2453875541687 23.68922382593155,30.8322936296463 23.68922382593155,30.8322936296463 23.249690234661102,31.396231055259705 23.249690234661102,31.396231055259705 22.790910303592682,31.962430477142334 22.790910303592682,31.962430477142334 22.365866601467133,32.55613148212433 22.365866601467133,32.55613148212433 21.525102853775024,34.06358361244202 21.525102853775024,34.06358361244202 20.862674713134766,35.61522662639618 20.862674713134766,35.61522662639618 20.35776674747467,37.208548188209534 20.35776674747467,37.208548188209534 19.989411532878876,38.840991258621216 19.989411532878876,38.840991258621216 19.736789166927338,40.51007032394409 19.736789166927338,40.51007032394409 19.578969478607178,42.21322238445282 19.578969478607178,42.21322238445282 18.337686359882355,60.23579239845276 18.337686359882355,60.23579239845276 18.336226046085358,60.41120886802673 18.336226046085358,60.41120886802673 18.34184229373932,60.68131923675537 18.34184229373932,60.68131923675537 18.34457516670227,60.996317863464355 18.34457516670227,60.996317863464355 18.334241211414337,61.30630373954773 18.334241211414337,61.30630373954773 18.30095499753952,61.56147122383118 18.30095499753952,61.56147122383118 18.234644830226898,61.71191334724426 18.234644830226898,61.71191334724426 17.966708540916443,61.80844306945801 17.966708540916443,61.80844306945801 17.515942454338074,61.835455894470215 17.515942454338074,61.835455894470215 16.96999818086624,61.81615591049194 16.96999818086624,61.81615591049194 16.416415572166443,61.77367568016052 16.416415572166443,61.77367568016052 15.942959487438202,61.73121929168701 15.942959487438202,61.73121929168701 15.637056529521942,61.71191334724426 15.637056529521942,61.71191334724426 6.504756212234497,61.71191334724426 6.504756212234497,61.71191334724426 4.755682125687599,61.51658296585083 4.755682125687599,61.51658296585083 3.1630411744117737,60.94723343849182 3.1630411744117737,60.94723343849182 1.8098056316375732,60.028815269470215 1.8098056316375732,60.028815269470215 0.7787975482642651,58.78629684448242 0.7787975482642651,58.78629684448242 0.1530636684037745,57.24465250968933 0.1530636684037745,57.24465250968933 0.015575950965285301,55.42881488800049 0.015575950965285301,55.42881488800049 0.12565598590299487,53.8374662399292 0.12565598590299487,53.8374662399292 0.2353241667151451,52.24572420120239 0.2353241667151451,52.24572420120239 0.34476767759770155,50.65358877182007 0.34476767759770155,50.65358877182007 0.4539491143077612,49.061042070388794 0.4539491143077612,49.061042070388794 0.5630930885672569,47.468101978302 0.5630930885672569,47.468101978302 0.6721621844917536,45.87476849555969 0.6721621844917536,45.87476849555969 0.7087057456374168,45.237353444099426 0.7087057456374168,45.237353444099426 0.7383599411696196,44.58802938461304 0.7383599411696196,44.58802938461304 0.7743044756352901,43.934065103530884 0.7743044756352901,43.934065103530884 0.8295691572129726,43.28266382217407 0.8295691572129726,43.28266382217407 0.9173710830509663,42.64114797115326 0.9173710830509663,42.64114797115326 1.0507775470614433,42.01672673225403 1.0507775470614433,42.01672673225403 1.5851525589823723,40.63990116119385 1.5851525589823723,40.63990116119385 2.399595081806183,39.42117691040039 2.399595081806183,39.42117691040039 3.447377309203148,38.40040862560272 3.447377309203148,38.40040862560272 4.68139685690403,37.617456912994385 4.68139685690403,37.617456912994385 6.0548510402441025,37.11223006248474 6.0548510402441025,37.11223006248474 7.520788162946701,36.924588680267334 7.520788162946701,36.924588680267334 5.8685388416051865,34.962618350982666 5.8685388416051865,34.962618350982666 4.791289567947388,32.70070552825928 4.791289567947388,32.70070552825928 4.299860820174217,30.265867710113525 4.299860820174217,30.265867710113525 4.4048115611076355,27.78508961200714 4.4048115611076355,27.78508961200714 5.117074027657509,25.385400652885437 5.117074027657509,25.385400652885437 6.447245180606842,23.193788528442383 6.447245180606842,23.193788528442383 8.155058324337006,21.528491377830505 8.155058324337006,21.528491377830505 10.168848931789398,20.33526450395584 10.168848931789398,20.33526450395584 12.38587573170662,19.635282456874847 12.38587573170662,19.635282456874847 14.703060686588287,19.44970041513443 14.703060686588287,19.44970041513443 17.017662525177002,19.799691438674927 17.017662525177002,19.799691438674927" stroke="white" stroke-width="0.1" /><polygon points="91.71479344367981,87.26605772972107 91.71479344367981,87.26605772972107 89.48997855186462,89.00637030601501 89.48997855186462,89.00637030601501 87.1052086353302,90.45482277870178 87.1052086353302,90.45482277870178 84.5893919467926,91.61025285720825 84.5893919467926,91.61025285720825 81.97128772735596,92.47153401374817 81.97128772735596,92.47153401374817 79.27979230880737,93.03755164146423 79.27979230880737,93.03755164146423 76.54381394386292,93.30713152885437 76.54381394386292,93.30713152885437 76.35499238967896,93.31686496734619 76.35499238967896,93.31686496734619 76.16703510284424,93.32823157310486 76.16703510284424,93.32823157310486 75.97948908805847,93.33978295326233 75.97948908805847,93.33978295326233 75.79190135002136,93.34990978240967 75.79190135002136,93.34990978240967 75.60394406318665,93.35711598396301 75.60394406318665,93.35711598396301 75.41515827178955,93.3598518371582 75.41515827178955,93.3598518371582 73.11519384384155,93.25366616249084 73.11519384384155,93.25366616249084 70.83036303520203,92.93452501296997 70.83036303520203,92.93452501296997 68.57821345329285,92.40162968635559 68.57821345329285,92.40162968635559 66.37612581253052,91.65403842926025 66.37612581253052,91.65403842926025 64.24173712730408,90.6909167766571 64.24173712730408,90.6909167766571 62.19237446784973,89.51139450073242 62.19237446784973,89.51139450073242 58.055609464645386,86.14541292190552 58.055609464645386,86.14541292190552 54.79593276977539,82.03040361404419 54.79593276977539,82.03040361404419 52.483463287353516,77.3522675037384 52.483463287353516,77.3522675037384 51.188379526138306,72.29689955711365 51.188379526138306,72.29689955711365 50.980985164642334,67.05023646354675 50.980985164642334,67.05023646354675 51.9314169883728,61.79818511009216 51.9314169883728,61.79818511009216 53.60085368156433,57.66535401344299 53.60085368156433,57.66535401344299 55.963414907455444,53.96316051483154 55.963414907455444,53.96316051483154 58.925020694732666,50.759923458099365 58.925020694732666,50.759923458099365 62.39134073257446,48.12401533126831 62.39134073257446,48.12401533126831 66.26840829849243,46.12377882003784 66.26840829849243,46.12377882003784 70.46200633049011,44.82758641242981 70.46200633049011,44.82758641242981 71.28142714500427,44.66508626937866 71.28142714500427,44.66508626937866 72.10773825645447,44.528570771217346 72.10773825645447,44.528570771217346 72.94067740440369,44.41961646080017 72.94067740440369,44.41961646080017 73.7797200679779,44.33980882167816 73.7797200679779,44.33980882167816 74.62467551231384,44.29073929786682 74.62467551231384,44.29073929786682 75.4750669002533,44.274041056632996 75.4750669002533,44.274041056632996 80.09689450263977,44.72343921661377 80.09689450263977,44.72343921661377 84.5004677772522,46.02333903312683 84.5004677772522,46.02333903312683 88.5720431804657,48.10123145580292 88.5720431804657,48.10123145580292 92.19787120819092,50.88462829589844 92.19787120819092,50.88462829589844 95.2643096446991,54.30105924606323 95.2643096446991,54.30105924606323 97.65761494636536,58.27801823616028 97.65761494636536,58.27801823616028 99.40429329872131,63.329118490219116 99.40429329872131,63.329118490219116 99.99988675117493,68.55503916740417 99.99988675117493,68.55503916740417 99.4865894317627,73.75871539115906 99.4865894317627,73.75871539115906 97.906494140625,78.74312996864319 97.906494140625,78.74312996864319 95.30182480812073,83.31126570701599 95.30182480812073,83.31126570701599" stroke="white" stroke-width="0.1" /><polygon points="87.52126693725586,60.82528233528137 87.52126693725586,60.82528233528137 87.55443692207336,60.835784673690796 87.55443692207336,60.835784673690796 87.5872015953064,60.845428705215454 87.5872015953064,60.845428705215454 87.61981129646301,60.85374355316162 87.61981129646301,60.85374355316162 87.65261173248291,60.86025834083557 87.65261173248291,60.86025834083557 87.6859724521637,60.86450815200806 87.6859724521637,60.86450815200806 87.72016167640686,60.86602210998535 87.72016167640686,60.86602210998535 88.02913427352905,60.79035401344299 88.02913427352905,60.79035401344299 88.32514882087708,60.59142351150513 88.32514882087708,60.59142351150513 88.59660625457764,60.31127572059631 88.59660625457764,60.31127572059631 88.83170485496521,59.99199151992798 88.83170485496521,59.99199151992798 89.01872634887695,59.67563986778259 89.01872634887695,59.67563986778259 89.1459584236145,59.40427780151367 89.1459584236145,59.40427780151367 89.19444680213928,59.08519625663757 89.19444680213928,59.08519625663757 89.13382887840271,58.70482325553894 89.13382887840271,58.70482325553894 88.98570537567139,58.31246376037598 88.98570537567139,58.31246376037598 88.77142071723938,57.95744061470032 88.77142071723938,57.95744061470032 88.51258754730225,57.689088582992554 88.51258754730225,57.689088582992554 88.23056817054749,57.55673050880432 88.23056817054749,57.55673050880432 87.84469366073608,57.9081654548645 87.84469366073608,57.9081654548645 87.46405243873596,58.48398804664612 87.46405243873596,58.48398804664612 87.16511726379395,59.173935651779175 87.16511726379395,59.173935651779175 87.0241105556488,59.86764430999756 87.0241105556488,59.86764430999756 87.11733818054199,60.45486927032471 87.11733818054199,60.45486927032471" stroke="white" stroke-width="0.1" /><polygon points="86.3135278224945,57.918572425842285 86.3135278224945,57.918572425842285 86.15803122520447,58.13809633255005 86.15803122520447,58.13809633255005 85.9515368938446,58.406442403793335 85.9515368938446,58.406442403793335 85.75339317321777,58.69886875152588 85.75339317321777,58.69886875152588 85.62265038490295,58.99069309234619 85.62265038490295,58.99069309234619 85.61875224113464,59.25724506378174 85.61875224113464,59.25724506378174 85.80072522163391,59.4737708568573 85.80072522163391,59.4737708568573 85.84378361701965,59.50601100921631 85.84378361701965,59.50601100921631 85.88672876358032,59.531170129776 85.88672876358032,59.531170129776 85.92952489852905,59.549856185913086 85.92952489852905,59.549856185913086 85.97183227539062,59.5625102519989 85.97183227539062,59.5625102519989 86.01362109184265,59.56973433494568 86.01362109184265,59.56973433494568 86.05473041534424,59.572017192840576 86.05473041534424,59.572017192840576 86.28751039505005,59.47616696357727 86.28751039505005,59.47616696357727 86.46363615989685,59.22854542732239 86.46363615989685,59.22854542732239 86.5687370300293,58.88907313346863 86.5687370300293,58.88907313346863 86.58828139305115,58.51764678955078 86.58828139305115,58.51764678955078 86.50807738304138,58.174192905426025 86.50807738304138,58.174192905426025" stroke="white" stroke-width="0.1" /><polygon points="85.04348993301392,53.916752338409424 85.04348993301392,53.916752338409424 84.6871554851532,53.9292573928833 84.6871554851532,53.9292573928833 84.327632188797,53.96883487701416 84.327632188797,53.96883487701416 83.97923707962036,54.03866171836853 83.97923707962036,54.03866171836853 83.65610837936401,54.1418194770813 83.65610837936401,54.1418194770813 83.3726704120636,54.28147315979004 83.3726704120636,54.28147315979004 83.14322829246521,54.460710287094116 83.14322829246521,54.460710287094116 82.9541027545929,54.83764410018921 82.9541027545929,54.83764410018921 83.0434799194336,55.187052488327026 83.0434799194336,55.187052488327026 83.31815600395203,55.51208853721619 83.31815600395203,55.51208853721619 83.68459939956665,55.81595301628113 83.68459939956665,55.81595301628113 84.04962420463562,56.10184073448181 84.04962420463562,56.10184073448181 84.31980609893799,56.37295842170715 84.31980609893799,56.37295842170715 84.36417579650879,56.391340494155884 84.36417579650879,56.391340494155884 84.40675139427185,56.405967473983765 84.40675139427185,56.405967473983765 84.44800972938538,56.41699433326721 84.44800972938538,56.41699433326721 84.48845148086548,56.42461180686951 84.48845148086548,56.42461180686951 84.52858924865723,56.429046392440796 84.52858924865723,56.429046392440796 84.56902503967285,56.43047094345093 84.56902503967285,56.43047094345093 84.80827808380127,56.373220682144165 84.80827808380127,56.373220682144165 85.02960205078125,56.22161626815796 85.02960205078125,56.22161626815796 85.23579239845276,56.00602626800537 85.23579239845276,56.00602626800537 85.42951941490173,55.75665831565857 85.42951941490173,55.75665831565857 85.6137752532959,55.50385117530823 85.6137752532959,55.50385117530823 85.79113483428955,55.27784824371338 85.79113483428955,55.27784824371338 85.9734833240509,55.05203604698181 85.9734833240509,55.05203604698181 86.14384531974792,54.799824953079224 86.14384531974792,54.799824953079224 86.25841736793518,54.54428195953369 86.25841736793518,54.54428195953369 86.27305626869202,54.308509826660156 86.27305626869202,54.308509826660156 86.14391684532166,54.11558747291565 86.14391684532166,54.11558747291565 85.82708239555359,53.98864150047302 85.82708239555359,53.98864150047302 85.71438193321228,53.96832823753357 85.71438193321228,53.96832823753357 85.59299111366272,53.95082235336304 85.59299111366272,53.95082235336304 85.46404242515564,53.93652319908142 85.46404242515564,53.93652319908142 85.32865047454834,53.92581224441528 85.32865047454834,53.92581224441528 85.18809080123901,53.91907095909119 85.18809080123901,53.91907095909119" stroke="white" stroke-width="0.1" /><polygon points="64.55512642860413,49.93889331817627 64.55512642860413,49.93889331817627 64.59593772888184,49.93750751018524 64.59593772888184,49.93750751018524 64.63682651519775,49.93338882923126 64.63682651519775,49.93338882923126 64.67733979225159,49.9266117811203 64.67733979225159,49.9266117811203 64.71698880195618,49.91723299026489 64.71698880195618,49.91723299026489 64.75551724433899,49.90534484386444 64.75551724433899,49.90534484386444 64.79235887527466,49.89096820354462 64.79235887527466,49.89096820354462 64.97556567192078,49.794405698776245 64.97556567192078,49.794405698776245 65.14394283294678,49.67449605464935 65.14394283294678,49.67449605464935 65.30067324638367,49.537813663482666 65.30067324638367,49.537813663482666 65.44879674911499,49.39092695713043 65.44879674911499,49.39092695713043 65.59141278266907,49.240484833717346 65.59141278266907,49.240484833717346 65.73171019554138,49.09299910068512 65.73171019554138,49.09299910068512 65.84901809692383,48.977264761924744 65.84901809692383,48.977264761924744 65.97759127616882,48.85975420475006 65.97759127616882,48.85975420475006 66.1169171333313,48.75062704086304 66.1169171333313,48.75062704086304 66.2661612033844,48.66005480289459 66.2661612033844,48.66005480289459 66.42476320266724,48.5982745885849 66.42476320266724,48.5982745885849 66.59197807312012,48.575398325920105 66.59197807312012,48.575398325920105 66.67824983596802,48.575398325920105 66.67824983596802,48.575398325920105 66.8677806854248,48.65384101867676 66.8677806854248,48.65384101867676 66.98384881019592,48.803478479385376 66.98384881019592,48.803478479385376 67.04847812652588,49.00014400482178 67.04847812652588,49.00014400482178 67.0834481716156,49.21955466270447 67.0834481716156,49.21955466270447 67.11093187332153,49.43750500679016 67.11093187332153,49.43750500679016 67.15271472930908,49.62977170944214 67.15271472930908,49.62977170944214 67.16057658195496,49.64512288570404 67.16057658195496,49.64512288570404 67.16960072517395,49.65834021568298 67.16960072517395,49.65834021568298 67.17937588691711,49.67050850391388 67.17937588691711,49.67050850391388 67.18929409980774,49.68265891075134 67.18929409980774,49.68265891075134 67.19892024993896,49.69589412212372 67.19892024993896,49.69589412212372 67.20783114433289,49.71124529838562 67.20783114433289,49.71124529838562 67.505943775177,49.98592138290405 67.505943775177,49.98592138290405 67.91874766349792,50.095534324645996 67.91874766349792,50.095534324645996 68.33139657974243,50.154560804367065 68.33139657974243,50.154560804367065 68.62872242927551,50.27748346328735 68.62872242927551,50.27748346328735 68.69593262672424,50.57879686355591 68.69593262672424,50.57879686355591 68.41796040534973,51.1729896068573 68.41796040534973,51.1729896068573 68.29047203063965,51.58354043960571 68.29047203063965,51.58354043960571 68.41608881950378,51.92692279815674 68.41608881950378,51.92692279815674 68.71539950370789,52.21148729324341 68.71539950370789,52.21148729324341 69.10914182662964,52.4455189704895 69.10914182662964,52.4455189704895 69.51812505722046,52.63735055923462 69.51812505722046,52.63735055923462 69.86293196678162,52.79528498649597 69.86293196678162,52.79528498649597 70.42459845542908,53.23949456214905 70.42459845542908,53.23949456214905 70.74618935585022,53.79921793937683 70.74618935585022,53.79921793937683 70.9391713142395,54.41877841949463 70.9391713142395,54.41877841949463 71.11469507217407,55.04230260848999 71.11469507217407,55.04230260848999 71.38420939445496,55.61404228210449 71.38420939445496,55.61404228210449 71.8590497970581,56.07821345329285 71.8590497970581,56.07821345329285 71.9691276550293,56.150251626968384 71.9691276550293,56.150251626968384 72.11477756500244,56.22873306274414 72.11477756500244,56.22873306274414 72.28559255599976,56.30496144294739 72.28559255599976,56.30496144294739 72.47074246406555,56.37020468711853 72.47074246406555,56.37020468711853 72.65963554382324,56.415754556655884 72.65963554382324,56.415754556655884 72.8415310382843,56.4328670501709 72.8415310382843,56.4328670501709 72.96175956726074,56.42331838607788 72.96175956726074,56.42331838607788 73.06865453720093,56.39238953590393 73.06865453720093,56.39238953590393 73.15903902053833,56.33671283721924 73.15903902053833,56.33671283721924 73.2293963432312,56.25288486480713 73.2293963432312,56.25288486480713 73.27642440795898,56.137484312057495 73.27642440795898,56.137484312057495 73.2968270778656,55.98715543746948 73.2968270778656,55.98715543746948 73.28305244445801,55.82246780395508 73.28305244445801,55.82246780395508 73.24373722076416,55.62583804130554 73.24373722076416,55.62583804130554 73.18869829177856,55.41204214096069 73.18869829177856,55.41204214096069 73.12785387039185,55.195850133895874 73.12785387039185,55.195850133895874 73.0711281299591,54.9920380115509 73.0711281299591,54.9920380115509 73.02844524383545,54.81536388397217 73.02844524383545,54.81536388397217 73.09669852256775,54.46237921714783 73.09669852256775,54.46237921714783 73.40222597122192,54.242461919784546 73.40222597122192,54.242461919784546 73.83360266685486,54.08419370651245 73.83360266685486,54.08419370651245 74.27931427955627,53.91613245010376 74.27931427955627,53.91613245010376 74.62797164916992,53.6668598651886 74.62797164916992,53.6668598651886 74.76815581321716,53.264957666397095 74.76815581321716,53.264957666397095 74.6516764163971,52.83048152923584 74.6516764163971,52.83048152923584 74.35060143470764,52.480995655059814 74.35060143470764,52.480995655059814 73.92975091934204,52.19890475273132 73.92975091934204,52.19890475273132 73.45393896102905,51.96651816368103 73.45393896102905,51.96651816368103 72.98808097839355,51.76622271537781 72.98808097839355,51.76622271537781 72.59711027145386,51.58035755157471 72.59711027145386,51.58035755157471 72.13499546051025,51.319777965545654 72.13499546051025,51.319777965545654 71.70901894569397,50.978249311447144 71.70901894569397,50.978249311447144 71.36481404304504,50.56912302970886 71.36481404304504,50.56912302970886 71.14798426628113,50.105661153793335 71.14798426628113,50.105661153793335 71.10421657562256,49.601203203201294 71.10421657562256,49.601203203201294 71.27914428710938,49.06903803348541 71.27914428710938,49.06903803348541 71.51289582252502,48.7504780292511 71.51289582252502,48.7504780292511 71.83467149734497,48.45283329486847 71.83467149734497,48.45283329486847 72.22148776054382,48.1925904750824 72.22148776054382,48.1925904750824 72.65016436576843,47.986266016960144 72.65016436576843,47.986266016960144 73.09778332710266,47.85036742687225 73.09778332710266,47.85036742687225 73.54125380516052,47.801393270492554 73.54125380516052,47.801393270492554 73.66552352905273,47.80568182468414 73.66552352905273,47.80568182468414 73.78668189048767,47.81895577907562 73.78668189048767,47.81895577907562 73.904287815094,47.84183204174042 73.904287815094,47.84183204174042 74.01785254478455,47.874873876571655 74.01785254478455,47.874873876571655 74.12699460983276,47.918701171875 74.12699460983276,47.918701171875 74.23138618469238,47.97392785549164 74.23138618469238,47.97392785549164 74.4122326374054,48.15782606601715 74.4122326374054,48.15782606601715 74.38538670539856,48.34606647491455 74.38538670539856,48.34606647491455 74.21311140060425,48.5217809677124 74.21311140060425,48.5217809677124 73.95749688148499,48.66814315319061 73.95749688148499,48.66814315319061 73.68083596229553,48.76829981803894 73.68083596229553,48.76829981803894 73.44539761543274,48.805442452430725 73.44539761543274,48.805442452430725 73.40945601463318,48.805442452430725 73.40945601463318,48.805442452430725 73.37684035301208,48.80038797855377 73.37684035301208,48.80038797855377 73.34400415420532,48.79699945449829 73.34400415420532,48.79699945449829 73.31090569496155,48.79496097564697 73.31090569496155,48.79496097564697 73.27754497528076,48.793911933898926 73.27754497528076,48.793911933898926 73.24411273002625,48.79351854324341 73.24411273002625,48.79351854324341 73.21056127548218,48.79346191883087 73.21056127548218,48.79346191883087 72.97332882881165,48.809149861335754 72.97332882881165,48.809149861335754 72.74766564369202,48.861533403396606 72.74766564369202,48.861533403396606 72.55787253379822,48.95850718021393 72.55787253379822,48.95850718021393 72.42813110351562,49.10799562931061 72.42813110351562,49.10799562931061 72.38278985023499,49.31793510913849 72.38278985023499,49.31793510913849 72.44614362716675,49.59622323513031 72.44614362716675,49.59622323513031 72.85909056663513,50.14679431915283 72.85909056663513,50.14679431915283 73.43824505805969,50.36799907684326 73.43824505805969,50.36799907684326 74.10348057746887,50.41455626487732 74.10348057746887,50.41455626487732 74.77445006370544,50.44114589691162 74.77445006370544,50.44114589691162 75.37105083465576,50.602442026138306 75.37105083465576,50.602442026138306 75.81294178962708,51.05317234992981 75.81294178962708,51.05317234992981 76.16456151008606,51.88727378845215 76.16456151008606,51.88727378845215 76.40726566314697,52.76963710784912 76.40726566314697,52.76963710784912 76.59503817558289,53.67861986160278 76.59503817558289,53.67861986160278 76.78176164627075,54.59258556365967 76.78176164627075,54.59258556365967 77.02150344848633,55.48993945121765 77.02150344848633,55.48993945121765 77.36814022064209,56.348997354507446 77.36814022064209,56.348997354507446 77.50799059867859,56.60742521286011 77.50799059867859,56.60742521286011 77.67969965934753,56.87483549118042 77.67969965934753,56.87483549118042 77.8815507888794,57.12629556655884 77.8815507888794,57.12629556655884 78.11170816421509,57.33679533004761 78.11170816421509,57.33679533004761 78.36852073669434,57.48141407966614 78.36852073669434,57.48141407966614 78.65016460418701,57.535165548324585 78.65016460418701,57.535165548324585 78.71838212013245,57.531869411468506 78.71838212013245,57.531869411468506 78.78881096839905,57.5217604637146 78.78881096839905,57.5217604637146 78.86133790016174,57.50431418418884 78.86133790016174,57.50431418418884 78.93558740615845,57.47907757759094 78.93558740615845,57.47907757759094 79.01144027709961,57.44558572769165 79.01144027709961,57.44558572769165 79.08868789672852,57.40336775779724 79.08868789672852,57.40336775779724 79.31090593338013,57.16860294342041 79.31090593338013,57.16860294342041 79.44884300231934,56.7834198474884 79.44884300231934,56.7834198474884 79.53619360923767,56.31304979324341 79.53619360923767,56.31304979324341 79.60628867149353,55.82268834114075 79.60628867149353,55.82268834114075 79.6927809715271,55.37761449813843 79.6927809715271,55.37761449813843 79.82914447784424,55.04301190376282 79.82914447784424,55.04301190376282 80.44102191925049,54.25511598587036 80.44102191925049,54.25511598587036 81.2571108341217,53.693968057632446 81.2571108341217,53.693968057632446 82.16044306755066,53.23081016540527 82.16044306755066,53.23081016540527 83.03396701812744,52.73687243461609 83.03396701812744,52.73687243461609 83.76079797744751,52.083468437194824 83.76079797744751,52.083468437194824 84.22395586967468,51.1418342590332 84.22395586967468,51.1418342590332 84.324711561203,50.61066150665283 84.324711561203,50.61066150665283 84.37368869781494,50.073254108428955 84.37368869781494,50.073254108428955 84.3934953212738,49.532121419906616 84.3934953212738,49.532121419906616 84.4064474105835,48.98977279663086 84.4064474105835,48.98977279663086 84.43509340286255,48.44876825809479 84.43509340286255,48.44876825809479 84.5019280910492,47.91162312030792 84.5019280910492,47.91162312030792 83.86091589927673,47.64702022075653 83.86091589927673,47.64702022075653 83.21301937103271,47.401922941207886 83.21301937103271,47.401922941207886 82.55853056907654,47.17625975608826 82.55853056907654,47.17625975608826 81.89759850502014,46.96997106075287 81.89759850502014,46.96997106075287 81.23052716255188,46.78296744823456 81.23052716255188,46.78296744823456 80.55762052536011,46.615225076675415 80.55762052536011,46.615225076675415 79.72497940063477,46.4412122964859 79.72497940063477,46.4412122964859 78.88821959495544,46.29988670349121 78.88821959495544,46.29988670349121 78.04809212684631,46.19078040122986 78.04809212684631,46.19078040122986 77.2051215171814,46.113425493240356 77.2051215171814,46.113425493240356 76.36001110076904,46.06735408306122 76.36001110076904,46.06735408306122 75.51340460777283,46.05209529399872 75.51340460777283,46.05209529399872 74.32914972305298,46.08577489852905 74.32914972305298,46.08577489852905 73.15016984939575,46.18493914604187 73.15016984939575,46.18493914604187 71.97856307029724,46.346840262413025 71.97856307029724,46.346840262413025 70.81628441810608,46.56862914562225 70.81628441810608,46.56862914562225 69.66553330421448,46.8475341796875 69.66553330421448,46.8475341796875 68.52819323539734,47.18075096607208 68.52819323539734,47.18075096607208 67.7636206150055,47.436726093292236 67.7636206150055,47.436726093292236 67.00702905654907,47.71484732627869 67.00702905654907,47.71484732627869 66.26009345054626,48.017361760139465 66.26009345054626,48.017361760139465 65.52428007125854,48.346421122550964 65.52428007125854,48.346421122550964 64.80130553245544,48.70423674583435 64.80130553245544,48.70423674583435 64.09264206886292,49.09299910068512 64.09264206886292,49.09299910068512 63.88835310935974,49.27380681037903 63.88835310935974,49.27380681037903 63.84080648422241,49.4635283946991 63.84080648422241,49.4635283946991 63.91681432723999,49.64354932308197 63.91681432723999,49.64354932308197 64.08324241638184,49.79518949985504 64.08324241638184,49.79518949985504 64.30703401565552,49.899861216545105 64.30703401565552,49.899861216545105" stroke="white" stroke-width="0.1" /><polygon points="68.67676377296448,71.86504006385803 68.67676377296448,71.86504006385803 68.5213029384613,71.56307101249695 68.5213029384613,71.56307101249695 68.34966540336609,71.22511267662048 68.34966540336609,71.22511267662048 68.15796494483948,70.87985873222351 68.15796494483948,70.87985873222351 67.94221997261047,70.5559492111206 67.94221997261047,70.5559492111206 67.698734998703,70.28209567070007 67.698734998703,70.28209567070007 67.42349863052368,70.08698582649231 67.42349863052368,70.08698582649231 67.32547283172607,70.04261612892151 67.32547283172607,70.04261612892151 67.22580194473267,70.00932693481445 67.22580194473267,70.00932693481445 67.12485551834106,69.98574137687683 67.12485551834106,69.98574137687683 67.0228660106659,69.9705421924591 67.0228660106659,69.9705421924591 66.92023873329163,69.96241211891174 66.92023873329163,69.96241211891174 66.81723594665527,69.95998024940491 66.81723594665527,69.95998024940491 66.75253510475159,69.96055841445923 66.75253510475159,69.96055841445923 66.68775677680969,69.9622631072998 66.68775677680969,69.9622631072998 66.62313342094421,69.96507048606873 66.62313342094421,69.96507048606873 66.55843257904053,69.96885538101196 66.55843257904053,69.96885538101196 66.49373173713684,69.9735701084137 66.49373173713684,69.9735701084137 66.42903089523315,69.97914910316467 66.42903089523315,69.97914910316467 66.36343598365784,69.98472809791565 66.36343598365784,69.98472809791565 66.29843711853027,69.98944878578186 66.29843711853027,69.98944878578186 66.23373627662659,69.99322772026062 66.23373627662659,69.99322772026062 66.16899371147156,69.99601721763611 66.16899371147156,69.99601721763611 66.103994846344,69.99773979187012 66.103994846344,69.99773979187012 66.03843569755554,69.99832391738892 66.03843569755554,69.99832391738892 65.92258810997009,69.99502778053284 65.92258810997009,69.99502778053284 65.80783128738403,69.98411417007446 65.80783128738403,69.98411417007446 65.69426655769348,69.96387243270874 65.69426655769348,69.96387243270874 65.58205485343933,69.93264555931091 65.58205485343933,69.93264555931091 65.47148823738098,69.88876461982727 65.47148823738098,69.88876461982727 65.3626799583435,69.83057856559753 65.3626799583435,69.83057856559753 65.31609892845154,69.79785561561584 65.31609892845154,69.79785561561584 65.27379155158997,69.76062059402466 65.27379155158997,69.76062059402466 65.23447632789612,69.7203516960144 65.23447632789612,69.7203516960144 65.19669890403748,69.67845559120178 65.19669890403748,69.67845559120178 65.15921950340271,69.63644027709961 65.15921950340271,69.63644027709961 65.12065529823303,69.59574222564697 65.12065529823303,69.59574222564697 64.92048501968384,69.32567358016968 64.92048501968384,69.32567358016968 64.79284763336182,69.0224826335907 64.79284763336182,69.0224826335907 64.74233865737915,68.7025249004364 64.74233865737915,68.7025249004364 64.7734522819519,68.38214993476868 64.7734522819519,68.38214993476868 64.89086747169495,68.07776093482971 64.89086747169495,68.07776093482971 65.09908437728882,67.8057074546814 65.09908437728882,67.8057074546814 65.12121558189392,67.78848171234131 65.12121558189392,67.78848171234131 65.14626145362854,67.77410507202148 65.14626145362854,67.77410507202148 65.17307162284851,67.76107549667358 65.17307162284851,67.76107549667358 65.20044207572937,67.74783730506897 65.20044207572937,67.74783730506897 65.2272880077362,67.73288249969482 65.2272880077362,67.73288249969482 65.2524471282959,67.71464943885803 65.2524471282959,67.71464943885803 65.43752551078796,67.58397221565247 65.43752551078796,67.58397221565247 65.63252210617065,67.47527718544006 65.63252210617065,67.47527718544006 65.83625078201294,67.38935112953186 65.83625078201294,67.38935112953186 66.0473108291626,67.32696890830994 66.0473108291626,67.32696890830994 66.26451015472412,67.28896498680115 66.26451015472412,67.28896498680115 66.48654341697693,67.27612614631653 66.48654341697693,67.27612614631653 66.93094372749329,67.31592416763306 66.93094372749329,67.31592416763306 67.36778020858765,67.43080019950867 67.36778020858765,67.43080019950867 67.78234243392944,67.61400103569031 67.78234243392944,67.61400103569031 68.15968751907349,67.85869002342224 68.15968751907349,67.85869002342224 68.4851348400116,68.15811395645142 68.4851348400116,68.15811395645142 68.74386072158813,68.50542426109314 68.74386072158813,68.50542426109314 68.81245374679565,68.61636638641357 68.81245374679565,68.61636638641357 68.87921094894409,68.70536804199219 68.87921094894409,68.70536804199219 68.94394755363464,68.77321600914001 68.94394755363464,68.77321600914001 69.00618076324463,68.82067322731018 69.00618076324463,68.82067322731018 69.06582117080688,68.84856820106506 69.06582117080688,68.84856820106506 69.1224753856659,68.85768175125122 69.1224753856659,68.85768175125122 69.19346451759338,68.84126663208008 69.19346451759338,68.84126663208008 69.25764083862305,68.7934160232544 69.25764083862305,68.7934160232544 69.31477785110474,68.716299533844 69.31477785110474,68.716299533844 69.36423778533936,68.61202716827393 69.36423778533936,68.61202716827393 69.40568685531616,68.4827208518982 69.40568685531616,68.4827208518982 69.43878531455994,68.33049654960632 69.43878531455994,68.33049654960632 69.49318647384644,68.08103919029236 69.49318647384644,68.08103919029236 69.56017017364502,67.8341805934906 69.56017017364502,67.8341805934906 69.6391761302948,67.59093999862671 69.6391761302948,67.59093999862671 69.7295606136322,67.35226511955261 69.7295606136322,67.35226511955261 69.83072757720947,67.11920499801636 69.83072757720947,67.11920499801636 69.94200944900513,66.89271926879883 69.94200944900513,66.89271926879883 70.28422951698303,66.34942889213562 70.28422951698303,66.34942889213562 70.68179249763489,65.90356826782227 70.68179249763489,65.90356826782227 71.12517952919006,65.52682518959045 71.12517952919006,65.52682518959045 71.6048538684845,65.19079804420471 71.6048538684845,65.19079804420471 72.11148142814636,64.86718654632568 72.11148142814636,64.86718654632568 72.63544797897339,64.52757120132446 72.63544797897339,64.52757120132446 73.04379343986511,64.19159770011902 73.04379343986511,64.19159770011902 73.3080267906189,63.830411434173584 73.3080267906189,63.830411434173584 73.42473268508911,63.450729846954346 73.42473268508911,63.450729846954346 73.3902096748352,63.05925250053406 73.3902096748352,63.05925250053406 73.2009768486023,62.662720680236816 73.2009768486023,62.662720680236816 72.85351157188416,62.267857789993286 72.85351157188416,62.267857789993286 72.53933548927307,61.89497113227844 72.53933548927307,61.89497113227844 72.4771797657013,61.60932183265686 72.4771797657013,61.60932183265686 72.61418104171753,61.40219569206238 72.61418104171753,61.40219569206238 72.89754748344421,61.264967918395996 72.89754748344421,61.264967918395996 73.2745110988617,61.18897795677185 73.2745110988617,61.18897795677185 73.69222044944763,61.1655592918396 73.69222044944763,61.1655592918396 73.76380562782288,61.16582155227661 73.76380562782288,61.16582155227661 73.83472323417664,61.16687059402466 73.83472323417664,61.16687059402466 73.90459179878235,61.169153451919556 73.90459179878235,61.169153451919556 73.97303581237793,61.17300987243652 73.97303581237793,61.17300987243652 74.0397572517395,61.17888689041138 74.0397572517395,61.17888689041138 74.10438060760498,61.187124252319336 74.10438060760498,61.187124252319336 74.14129972457886,61.18847131729126 74.14129972457886,61.18847131729126 74.17780756950378,61.19004487991333 74.17780756950378,61.19004487991333 74.21401143074036,61.1916184425354 74.21401143074036,61.1916184425354 74.24976825714111,61.19298338890076 74.24976825714111,61.19298338890076 74.28515553474426,61.19394302368164 74.28515553474426,61.19394302368164 74.32004809379578,61.19431257247925 74.32004809379578,61.19431257247925 74.78800415992737,61.09849810600281 74.78800415992737,61.09849810600281 75.02609491348267,60.8487069606781 75.02609491348267,60.8487069606781 75.06499886512756,60.50148606300354 75.06499886512756,60.50148606300354 74.93507266044617,60.113322734832764 74.93507266044617,60.113322734832764 74.66702461242676,59.7407341003418 74.66702461242676,59.7407341003418 74.29129481315613,59.44022536277771 74.29129481315613,59.44022536277771 74.0182638168335,59.28270220756531 74.0182638168335,59.28270220756531 73.74789714813232,59.12842154502869 73.74789714813232,59.12842154502869 73.4873354434967,58.96575450897217 73.4873354434967,58.96575450897217 73.24347496032715,58.783113956451416 73.24347496032715,58.783113956451416 73.02349805831909,58.56890678405762 73.02349805831909,58.56890678405762 72.83434271812439,58.31156373023987 72.83434271812439,58.31156373023987 72.69015312194824,58.05089473724365 72.69015312194824,58.05089473724365 72.55569696426392,57.7797532081604 72.55569696426392,57.7797532081604 72.4143922328949,57.513296604156494 72.4143922328949,57.513296604156494 72.24946022033691,57.26659297943115 72.24946022033691,57.26659297943115 72.0443844795227,57.054781913757324 72.0443844795227,57.054781913757324 71.78236842155457,56.89295530319214 71.78236842155457,56.89295530319214 71.75780534744263,56.885695457458496 71.75780534744263,56.885695457458496 71.73230648040771,56.88052773475647 71.73230648040771,56.88052773475647 71.70628309249878,56.87708258628845 71.70628309249878,56.87708258628845 71.67977690696716,56.875020265579224 71.67977690696716,56.875020265579224 71.653151512146,56.874048709869385 71.653151512146,56.874048709869385 71.62660956382751,56.87378644943237 71.62660956382751,56.87378644943237 71.56565189361572,56.87661170959473 71.56565189361572,56.87661170959473 71.50514721870422,56.8844199180603 71.50514721870422,56.8844199180603 71.44508957862854,56.89625144004822 71.44508957862854,56.89625144004822 71.3853657245636,56.911057233810425 71.3853657245636,56.911057233810425 71.32609486579895,56.92787170410156 71.32609486579895,56.92787170410156 71.26716375350952,56.94567561149597 71.26716375350952,56.94567561149597 71.21021151542664,56.96446895599365 71.21021151542664,56.96446895599365 71.15442156791687,56.98195695877075 71.15442156791687,56.98195695877075 71.0997223854065,56.99719786643982 71.0997223854065,56.99719786643982 71.04598879814148,57.00921416282654 71.04598879814148,57.00921416282654 70.99323272705078,57.017117738723755 70.99323272705078,57.017117738723755 70.94126343727112,57.01996088027954 70.94126343727112,57.01996088027954 70.86226344108582,57.01209902763367 70.86226344108582,57.01209902763367 70.785653591156,56.985777616500854 70.785653591156,56.985777616500854 70.71092128753662,56.9369912147522 70.71092128753662,56.9369912147522 70.63757181167603,56.86161518096924 70.63757181167603,56.86161518096924 70.5651581287384,56.755656003952026 70.5651581287384,56.755656003952026 70.49315571784973,56.61498308181763 70.49315571784973,56.61498308181763 70.39625644683838,56.36981129646301 70.39625644683838,56.36981129646301 70.3165054321289,56.14734888076782 70.3165054321289,56.14734888076782 70.23585438728333,55.94072937965393 70.23585438728333,55.94072937965393 70.13618350028992,55.74308633804321 70.13618350028992,55.74308633804321 69.99955773353577,55.54758310317993 69.99955773353577,55.54758310317993 69.80781555175781,55.34734129905701 69.80781555175781,55.34734129905701 69.71469521522522,55.26796579360962 69.71469521522522,55.26796579360962 69.62723135948181,55.204349756240845 69.62723135948181,55.204349756240845 69.54541802406311,55.15593886375427 69.54541802406311,55.15593886375427 69.46911215782166,55.12208938598633 69.46911215782166,55.12208938598633 69.39849853515625,55.10222911834717 69.39849853515625,55.10222911834717 69.33335065841675,55.09573221206665 69.33335065841675,55.09573221206665 69.06102895736694,55.28923273086548 69.06102895736694,55.28923273086548 68.9315915107727,55.78275918960571 68.9315915107727,55.78275918960571 68.90500783920288,56.44574761390686 68.90500783920288,56.44574761390686 68.94110441207886,57.14767575263977 68.94110441207886,57.14767575263977 68.99973750114441,57.75802135467529 68.99973750114441,57.75802135467529 69.04100179672241,58.146220445632935 69.04100179672241,58.146220445632935 69.03605461120605,58.63413214683533 69.03605461120605,58.63413214683533 68.939608335495,59.018999338150024 68.939608335495,59.018999338150024 68.76542568206787,59.30722951889038 68.76542568206787,59.30722951889038 68.52729320526123,59.50518846511841 68.52729320526123,59.50518846511841 68.23914051055908,59.61928963661194 68.23914051055908,59.61928963661194 67.91473627090454,59.655892848968506 67.91473627090454,59.655892848968506 67.53975749015808,59.61490869522095 67.53975749015808,59.61490869522095 67.15664863586426,59.497469663619995 67.15664863586426,59.497469663619995 66.78158640861511,59.311723709106445 66.78158640861511,59.311723709106445 66.43060445785522,59.06587839126587 66.43060445785522,59.06587839126587 66.12005829811096,58.768099546432495 66.12005829811096,58.768099546432495 65.8659040927887,58.42658877372742 65.8659040927887,58.42658877372742 65.85298180580139,58.408111333847046 65.85298180580139,58.408111333847046 65.83898067474365,58.39064121246338 65.83898067474365,58.39064121246338 65.82456827163696,58.37357044219971 65.82456827163696,58.37357044219971 65.81052541732788,58.356308937072754 65.81052541732788,58.356308937072754 65.79768061637878,58.3382248878479 65.79768061637878,58.3382248878479 65.78682661056519,58.31875205039978 65.78682661056519,58.31875205039978 65.62380194664001,57.93139934539795 65.62380194664001,57.93139934539795 65.5522882938385,57.581931352615356 65.5522882938385,57.581931352615356 65.56246876716614,57.26708173751831 65.56246876716614,57.26708173751831 65.64428210258484,56.98356628417969 65.64428210258484,56.98356628417969 65.7879114151001,56.728172302246094 65.7879114151001,56.728172302246094 65.98331928253174,56.497567892074585 65.98331928253174,56.497567892074585 66.36103987693787,56.182265281677246 66.36103987693787,56.182265281677246 66.80685877799988,55.905044078826904 66.80685877799988,55.905044078826904 67.28930473327637,55.65526485443115 67.28930473327637,55.65526485443115 67.77646541595459,55.42224645614624 67.77646541595459,55.42224645614624 68.23674440383911,55.19536733627319 68.23674440383911,55.19536733627319 68.63842010498047,54.96393442153931 68.63842010498047,54.96393442153931 68.97450089454651,54.67656850814819 68.97450089454651,54.67656850814819 69.24187541007996,54.309654235839844 69.24187541007996,54.309654235839844 69.40733194351196,53.897881507873535 69.40733194351196,53.897881507873535 69.43755149841309,53.47590446472168 69.43755149841309,53.47590446472168 69.29935216903687,53.078460693359375 69.29935216903687,53.078460693359375 68.95952820777893,52.74016857147217 68.95952820777893,52.74016857147217 68.5794472694397,52.56688594818115 68.5794472694397,52.56688594818115 68.11879873275757,52.442580461502075 68.11879873275757,52.442580461502075 67.6337718963623,52.324408292770386 67.6337718963623,52.324408292770386 67.18019843101501,52.169495820999146 67.18019843101501,52.169495820999146 66.81431531906128,51.934975385665894 66.81431531906128,51.934975385665894 66.59197807312012,51.577961444854736 66.59197807312012,51.577961444854736 66.58838391304016,51.570284366607666 66.58838391304016,51.570284366607666 66.58483147621155,51.56375169754028 66.58483147621155,51.56375169754028 66.5814995765686,51.55789256095886 66.5814995765686,51.55789256095886 66.57827496528625,51.55222415924072 66.57827496528625,51.55222415924072 66.57543182373047,51.546287536621094 66.57543182373047,51.546287536621094 66.57280921936035,51.539623737335205 66.57280921936035,51.539623737335205 66.44801497459412,51.18429660797119 66.44801497459412,51.18429660797119 66.27046465873718,50.89447498321533 66.27046465873718,50.89447498321533 66.04772210121155,50.66976547241211 66.04772210121155,50.66976547241211 65.78716039657593,50.50973892211914 65.78716039657593,50.50973892211914 65.49646258354187,50.41403770446777 65.49646258354187,50.41403770446777 65.18295407295227,50.382208824157715 65.18295407295227,50.382208824157715 64.99825716018677,50.3925621509552 64.99825716018677,50.3925621509552 64.80950713157654,50.42354464530945 64.80950713157654,50.42354464530945 64.61833119392395,50.475066900253296 64.61833119392395,50.475066900253296 64.42610025405884,50.54692029953003 64.42610025405884,50.54692029953003 64.23435807228088,50.63902735710144 64.23435807228088,50.63902735710144 64.04471397399902,50.75123906135559 64.04471397399902,50.75123906135559 64.00663256645203,50.773853063583374 64.00663256645203,50.773853063583374 63.967061042785645,50.791603326797485 63.967061042785645,50.791603326797485 63.92669677734375,50.80485939979553 63.92669677734375,50.80485939979553 63.885849714279175,50.81390142440796 63.885849714279175,50.81390142440796 63.84514570236206,50.81908702850342 63.84514570236206,50.81908702850342 63.80508542060852,50.82073211669922 63.80508542060852,50.82073211669922 63.66018056869507,50.80152153968811 63.66018056869507,50.80152153968811 63.51498365402222,50.75015425682068 63.51498365402222,50.75015425682068 63.37255239486694,50.67605376243591 63.37255239486694,50.67605376243591 63.23566436767578,50.58855414390564 63.23566436767578,50.58855414390564 63.107311725616455,50.497061014175415 63.107311725616455,50.497061014175415 62.99034357070923,50.41096210479736 62.99034357070923,50.41096210479736 62.885016202926636,50.322937965393066 62.885016202926636,50.322937965393066 62.80608773231506,50.245076417922974 62.80608773231506,50.245076417922974 62.74622082710266,50.18002390861511 62.74622082710266,50.18002390861511 62.69761919975281,50.13033747673035 62.69761919975281,50.13033747673035 62.652915716171265,50.09862184524536 62.652915716171265,50.09862184524536 62.60454058647156,50.08746385574341 62.60454058647156,50.08746385574341 62.56750822067261,50.09255409240723 62.56750822067261,50.09255409240723 62.524598836898804,50.10831952095032 62.524598836898804,50.10831952095032 62.47333884239197,50.1353919506073 62.47333884239197,50.1353919506073 62.41118907928467,50.174444913864136 62.41118907928467,50.174444913864136 62.33600378036499,50.22615194320679 62.33600378036499,50.22615194320679 62.245094776153564,50.29115080833435 62.245094776153564,50.29115080833435 62.069714069366455,50.41403770446777 62.069714069366455,50.41403770446777 61.89594268798828,50.54017901420593 61.89594268798828,50.54017901420593 61.723899841308594,50.668865442276 61.723899841308594,50.668865442276 61.55334711074829,50.799351930618286 61.55334711074829,50.799351930618286 61.38444542884827,50.93088746070862 61.38444542884827,50.93088746070862 61.21708154678345,51.06275677680969 61.21708154678345,51.06275677680969 61.59367561340332,51.52515172958374 61.59367561340332,51.52515172958374 61.901748180389404,52.05499529838562 61.901748180389404,52.05499529838562 62.09113001823425,52.584707736968994 62.09113001823425,52.584707736968994 62.11153864860535,53.046709299087524 62.11153864860535,53.046709299087524 61.912792921066284,53.37346792221069 61.912792921066284,53.37346792221069 61.4447295665741,53.497397899627686 61.4447295665741,53.497397899627686 61.34999990463257,53.49472165107727 61.34999990463257,53.49472165107727 61.24793291091919,53.48638892173767 61.24793291091919,53.48638892173767 61.13830208778381,53.471940755844116 61.13830208778381,53.471940755844116 61.020880937576294,53.450894355773926 61.020880937576294,53.450894355773926 60.89544892311096,53.42279672622681 60.89544892311096,53.42279672622681 60.76178550720215,53.387171030044556 60.76178550720215,53.387171030044556 60.53668260574341,53.30519080162048 60.53668260574341,53.30519080162048 60.31079292297363,53.20184826850891 60.31079292297363,53.20184826850891 60.08632779121399,53.09332609176636 60.08632779121399,53.09332609176636 59.865230321884155,52.995765209198 59.865230321884155,52.995765209198 59.64956283569336,52.92539596557617 59.64956283569336,52.92539596557617 59.441423416137695,52.89832353591919 59.441423416137695,52.89832353591919 59.36552882194519,52.90285348892212 59.36552882194519,52.90285348892212 59.29131507873535,52.91704535484314 59.29131507873535,52.91704535484314 59.218865633010864,52.94175744056702 59.218865633010864,52.94175744056702 59.14817452430725,52.97785401344299 59.14817452430725,52.97785401344299 59.07939076423645,53.02618741989136 59.07939076423645,53.02618741989136 59.012484550476074,53.08763384819031 59.012484550476074,53.08763384819031 58.775848150253296,53.33662033081055 58.775848150253296,53.33662033081055 58.54303240776062,53.58976721763611 58.54303240776062,53.58976721763611 58.31426382064819,53.84696125984192 58.31426382064819,53.84696125984192 58.08960795402527,54.10793423652649 58.08960795402527,54.10793423652649 57.86944627761841,54.372477531433105 57.86944627761841,54.372477531433105 57.65377879142761,54.64043617248535 57.65377879142761,54.64043617248535 57.230836153030396,55.187803506851196 57.230836153030396,55.187803506851196 56.82477355003357,55.746811628341675 56.82477355003357,55.746811628341675 56.4358651638031,56.31754398345947 56.4358651638031,56.31754398345947 56.06406331062317,56.90005421638489 56.06406331062317,56.90005421638489 55.709558725357056,57.494425773620605 55.709558725357056,57.494425773620605 55.37250638008118,58.10069441795349 55.37250638008118,58.10069441795349 56.281113624572754,58.70380997657776 56.281113624572754,58.70380997657776 56.887078285217285,59.43896770477295 56.887078285217285,59.43896770477295 57.25300312042236,60.28372049331665 57.25300312042236,60.28372049331665 57.44110941886902,61.21552586555481 57.44110941886902,61.21552586555481 57.513970136642456,62.21190094947815 57.513970136642456,62.21190094947815 57.5339674949646,63.25033903121948 57.5339674949646,63.25033903121948 57.59316086769104,64.13244009017944 57.59316086769104,64.13244009017944 57.73926377296448,64.99627232551575 57.73926377296448,64.99627232551575 57.968294620513916,65.83864688873291 57.968294620513916,65.83864688873291 58.275920152664185,66.65645837783813 58.275920152664185,66.65645837783813 58.6581289768219,67.44660139083862 58.6581289768219,67.44660139083862 59.11073088645935,68.20588707923889 59.11073088645935,68.20588707923889 59.6190869808197,68.91195774078369 59.6190869808197,68.91195774078369 60.19389629364014,69.5794939994812 60.19389629364014,69.5794939994812 60.83277463912964,70.18912434577942 60.83277463912964,70.18912434577942 61.53327822685242,70.72147727012634 61.53327822685242,70.72147727012634 62.293243408203125,71.1571753025055 62.293243408203125,71.1571753025055 63.11015486717224,71.47684097290039 63.11015486717224,71.47684097290039 63.42163681983948,71.55870795249939 63.42163681983948,71.55870795249939 63.732898235321045,71.62619829177856 63.732898235321045,71.62619829177856 64.04381394386292,71.68172001838684 64.04381394386292,71.68172001838684 64.3540620803833,71.72764539718628 64.3540620803833,71.72764539718628 64.66359496116638,71.76640033721924 64.66359496116638,71.76640033721924 64.9720847606659,71.80033922195435 64.9720847606659,71.80033922195435 65.57531356811523,71.86533808708191 65.57531356811523,71.86533808708191 66.17408990859985,71.94101214408875 66.17408990859985,71.94101214408875 66.76720976829529,72.04595804214478 66.76720976829529,72.04595804214478 67.35329031944275,72.19883799552917 67.35329031944275,72.19883799552917 67.93113946914673,72.41828441619873 67.93113946914673,72.41828441619873 68.49943399429321,72.7229118347168 68.49943399429321,72.7229118347168 68.584543466568,72.77728319168091 68.584543466568,72.77728319168091 68.66055130958557,72.8208839893341 68.66055130958557,72.8208839893341 68.72798204421997,72.85411357879639 68.72798204421997,72.85411357879639 68.78713965415955,72.87734746932983 68.78713965415955,72.87734746932983 68.8386619091034,72.89099097251892 68.8386619091034,72.89099097251892 68.88284683227539,72.89544939994812 68.88284683227539,72.89544939994812 68.98168921470642,72.83875942230225 68.98168921470642,72.83875942230225 68.99498105049133,72.69112467765808 68.99498105049133,72.69112467765808 68.94694566726685,72.4862813949585 68.94694566726685,72.4862813949585 68.86168718338013,72.25784659385681 68.86168718338013,72.25784659385681 68.76362562179565,72.0395565032959 68.76362562179565,72.0395565032959" stroke="white" stroke-width="0.1" /><polygon points="79.63264584541321,78.21763157844543 79.63264584541321,78.21763157844543 79.61223721504211,77.91944146156311 79.61223721504211,77.91944146156311 79.63904738426208,77.62537002563477 79.63904738426208,77.62537002563477 79.69405055046082,77.33399271965027 79.69405055046082,77.33399271965027 79.7579288482666,77.0438015460968 79.7579288482666,77.0438015460968 79.81176972389221,76.75334215164185 79.81176972389221,76.75334215164185 79.83633279800415,76.46114230155945 79.83633279800415,76.46114230155945 79.75317239761353,75.85166096687317 79.75317239761353,75.85166096687317 79.50762510299683,75.38580298423767 79.50762510299683,75.38580298423767 79.13421392440796,75.0407338142395 79.13421392440796,75.0407338142395 78.66727113723755,74.79350566864014 78.66727113723755,74.79350566864014 78.14139723777771,74.62121248245239 78.14139723777771,74.62121248245239 77.5909960269928,74.500972032547 77.5909960269928,74.500972032547 76.96537971496582,74.33517575263977 76.96537971496582,74.33517575263977 76.39524340629578,74.0940272808075 76.39524340629578,74.0940272808075 75.86296796798706,73.79525899887085 75.86296796798706,73.79525899887085 75.3512442111969,73.45653772354126 75.3512442111969,73.45653772354126 74.84273910522461,73.09557795524597 74.84273910522461,73.09557795524597 74.32004809379578,72.73010611534119 74.32004809379578,72.73010611534119 73.84209632873535,72.47676849365234 73.84209632873535,72.47676849365234 73.35774898529053,72.31854200363159 73.35774898529053,72.31854200363159 72.87148833274841,72.21280336380005 72.87148833274841,72.21280336380005 72.38754630088806,72.11682200431824 72.38754630088806,72.11682200431824 71.91045880317688,71.98798060417175 71.91045880317688,71.98798060417175 71.44448757171631,71.78356647491455 71.44448757171631,71.78356647491455 71.39420509338379,71.7585563659668 71.39420509338379,71.7585563659668 71.34432792663574,71.73855900764465 71.34432792663574,71.73855900764465 71.29532098770142,71.72335982322693 71.29532098770142,71.72335982322693 71.24747037887573,71.71274423599243 71.24747037887573,71.71274423599243 71.20118737220764,71.70652747154236 71.20118737220764,71.70652747154236 71.15693092346191,71.70448899269104 71.15693092346191,71.70448899269104 70.91771364212036,71.76494002342224 70.91771364212036,71.76494002342224 70.70990800857544,71.92618250846863 70.70990800857544,71.92618250846863 70.53269743919373,72.15798497200012 70.53269743919373,72.15798497200012 70.38494944572449,72.43011593818665 70.38494944572449,72.43011593818665 70.26588320732117,72.71237373352051 70.26588320732117,72.71237373352051 70.17444968223572,72.97452688217163 70.17444968223572,72.97452688217163 70.07740139961243,73.32528233528137 70.07740139961243,73.32528233528137 70.00543475151062,73.67901802062988 70.00543475151062,73.67901802062988 69.94560360908508,74.03398752212524 69.94560360908508,74.03398752212524 69.88494396209717,74.38834309577942 69.88494396209717,74.38834309577942 69.81058716773987,74.74030256271362 69.81058716773987,74.74030256271362 69.70956921577454,75.08806586265564 69.70956921577454,75.08806586265564 69.61034536361694,75.36092400550842 69.61034536361694,75.36092400550842 69.50228810310364,75.63191056251526 69.50228810310364,75.63191056251526 69.39295530319214,75.90280771255493 69.39295530319214,75.90280771255493 69.28976774215698,76.1752724647522 69.28976774215698,76.1752724647522 69.20031905174255,76.45106911659241 69.20031905174255,76.45106911659241 69.13205981254578,76.73192620277405 69.13205981254578,76.73192620277405 69.13688778877258,77.5398313999176 69.13688778877258,77.5398313999176 69.43714022636414,78.18539142608643 69.43714022636414,78.18539142608643 69.92553472518921,78.73313426971436 69.92553472518921,78.73313426971436 70.4947292804718,79.2475163936615 70.4947292804718,79.2475163936615 71.03764414787292,79.79303002357483 71.03764414787292,79.79303002357483 71.44688367843628,80.43420910835266 71.44688367843628,80.43420910835266 71.64967060089111,81.5338671207428 71.64967060089111,81.5338671207428 71.37192487716675,82.5354814529419 71.37192487716675,82.5354814529419 70.81935405731201,83.48320126533508 70.81935405731201,83.48320126533508 70.19740343093872,84.42112803459167 70.19740343093872,84.42112803459167 69.7118878364563,85.39338707923889 69.7118878364563,85.39338707923889 69.56818699836731,86.44412755966187 69.56818699836731,86.44412755966187 69.61981654167175,86.74291968345642 69.61981654167175,86.74291968345642 69.70837116241455,87.03084588050842 69.70837116241455,87.03084588050842 69.8203980922699,87.31188774108887 69.8203980922699,87.31188774108887 69.94234323501587,87.58989572525024 69.94234323501587,87.58989572525024 70.0608491897583,87.86888122558594 70.0608491897583,87.86888122558594 70.16246914863586,88.15268874168396 70.16246914863586,88.15268874168396 70.21874189376831,88.42294812202454 70.21874189376831,88.42294812202454 70.23263573646545,88.69086503982544 70.23263573646545,88.69086503982544 70.21608352661133,88.95815014839172 70.21608352661133,88.95815014839172 70.1809287071228,89.22640085220337 70.1809287071228,89.22640085220337 70.13913989067078,89.49735164642334 70.13913989067078,89.49735164642334 70.10256052017212,89.77258801460266 70.10256052017212,89.77258801460266 70.09132504463196,90.02596139907837 70.09132504463196,90.02596139907837 70.11120915412903,90.30357599258423 70.11120915412903,90.30357599258423 70.17055749893188,90.57894349098206 70.17055749893188,90.57894349098206 70.27752995491028,90.8255398273468 70.27752995491028,90.8255398273468 70.44066190719604,91.01690649986267 70.44066190719604,91.01690649986267 70.66808938980103,91.12650156021118 70.66808938980103,91.12650156021118 70.88978290557861,91.07033610343933 70.88978290557861,91.07033610343933 71.06583714485168,90.95759987831116 71.06583714485168,90.95759987831116 71.1955726146698,90.80000519752502 71.1955726146698,90.80000519752502 71.27832174301147,90.60925245285034 71.27832174301147,90.60925245285034 71.31358981132507,90.3970718383789 71.31358981132507,90.3970718383789 71.30070924758911,90.1751697063446 71.30070924758911,90.1751697063446 71.34560346603394,89.66681361198425 71.34560346603394,89.66681361198425 71.39251828193665,89.1812264919281 71.39251828193665,89.1812264919281 71.47144675254822,88.71762156486511 71.47144675254822,88.71762156486511 71.61222696304321,88.27516436576843 71.61222696304321,88.27516436576843 71.84489369392395,87.85309791564941 71.84489369392395,87.85309791564941 72.19932079315186,87.45057582855225 72.19932079315186,87.45057582855225 72.66375422477722,87.06357479095459 72.66375422477722,87.06357479095459 73.15780520439148,86.70858144760132 73.15780520439148,86.70858144760132 73.66945147514343,86.37254238128662 73.66945147514343,86.37254238128662 74.18667674064636,86.04226112365723 74.18667674064636,86.04226112365723 74.69746470451355,85.70466637611389 74.69746470451355,85.70466637611389 75.18990635871887,85.34662127494812 75.18990635871887,85.34662127494812 75.67721605300903,84.94982719421387 75.67721605300903,84.94982719421387 76.14022493362427,84.53115224838257 76.14022493362427,84.53115224838257 76.5794575214386,84.09066200256348 76.5794575214386,84.09066200256348 76.99529528617859,83.6283802986145 76.99529528617859,83.6283802986145 77.3882508277893,83.1444263458252 77.3882508277893,83.1444263458252 77.75874137878418,82.63880610466003 77.75874137878418,82.63880610466003 78.08849215507507,82.21814036369324 78.08849215507507,82.21814036369324 78.48287224769592,81.83594942092896 78.48287224769592,81.83594942092896 78.90177369117737,81.46761059761047 78.90177369117737,81.46761059761047 79.30457592010498,81.08847141265869 79.30457592010498,81.08847141265869 79.65118288993835,80.67395091056824 79.65118288993835,80.67395091056824 79.90103363990784,80.1993727684021 79.90103363990784,80.1993727684021 79.9631118774414,79.8750102519989 79.9631118774414,79.8750102519989 79.95019555091858,79.54233288764954 79.95019555091858,79.54233288764954 79.88635301589966,79.20580506324768 79.88635301589966,79.20580506324768 79.79596853256226,78.86987328529358 79.79596853256226,78.86987328529358 79.70330119132996,78.53899598121643 79.70330119132996,78.53899598121643" stroke="white" stroke-width="0.1" /><polygon points="97.51383662223816,71.14854454994202 97.51383662223816,71.14854454994202 97.35451936721802,70.8940863609314 97.35451936721802,70.8940863609314 97.19040989875793,70.64183950424194 97.19040989875793,70.64183950424194 97.02079892158508,70.39281129837036 97.02079892158508,70.39281129837036 96.84519171714783,70.14796137809753 96.84519171714783,70.14796137809753 96.6630756855011,69.90829110145569 96.6630756855011,69.90829110145569 96.47384285926819,69.67481970787048 96.47384285926819,69.67481970787048 96.00371718406677,69.177907705307 96.00371718406677,69.177907705307 95.54172158241272,68.82031559944153 95.54172158241272,68.82031559944153 95.06511688232422,68.57282519340515 95.06511688232422,68.57282519340515 94.55111026763916,68.40620636940002 94.55111026763916,68.40620636940002 93.97712349891663,68.29124093055725 93.97712349891663,68.29124093055725 93.32031011581421,68.19869875907898 93.32031011581421,68.19869875907898 92.79589653015137,68.04162859916687 92.79589653015137,68.04162859916687 92.40005612373352,67.75935292243958 92.40005612373352,67.75935292243958 92.08382368087769,67.39444136619568 92.08382368087769,67.39444136619568 91.79784059524536,66.9893741607666 91.79784059524536,66.9893741607666 91.49313569068909,66.5867030620575 91.49313569068909,66.5867030620575 91.12051129341125,66.22894406318665 91.12051129341125,66.22894406318665 90.9569263458252,66.11886024475098 90.9569263458252,66.11886024475098 90.78315496444702,66.03206992149353 90.78315496444702,66.03206992149353 90.60051441192627,65.96714854240417 90.60051441192627,65.96714854240417 90.40977954864502,65.92257022857666 90.40977954864502,65.92257022857666 90.21216034889221,65.89690446853638 90.21216034889221,65.89690446853638 90.00862836837769,65.88866710662842 90.00862836837769,65.88866710662842 89.45568203926086,65.93876481056213 89.45568203926086,65.93876481056213 88.88816833496094,66.07228517532349 88.88816833496094,66.07228517532349 88.32552433013916,66.2639856338501 88.32552433013916,66.2639856338501 87.78695464134216,66.48864150047302 87.78695464134216,66.48864150047302 87.29200959205627,66.7210042476654 87.29200959205627,66.7210042476654 86.85988783836365,66.9358491897583 86.85988783836365,66.9358491897583 86.44443154335022,67.17643737792969 86.44443154335022,67.17643737792969 86.14680171012878,67.4140214920044 86.14680171012878,67.4140214920044 85.93072295188904,67.67001748085022 85.93072295188904,67.67001748085022 85.75968742370605,67.96573400497437 85.75968742370605,67.96573400497437 85.59752106666565,68.32253932952881 85.59752106666565,68.32253932952881 85.40772795677185,68.76183152198792 85.40772795677185,68.76183152198792 85.25687456130981,69.11394000053406 85.25687456130981,69.11394000053406 85.11167168617249,69.46845650672913 85.11167168617249,69.46845650672913 84.97310280799866,69.82578635215759 84.97310280799866,69.82578635215759 84.84182953834534,70.18629908561707 84.84182953834534,70.18629908561707 84.7188651561737,70.5504059791565 84.7188651561737,70.5504059791565 84.60496664047241,70.9185004234314 84.60496664047241,70.9185004234314 84.41779613494873,71.78592681884766 84.41779613494873,71.78592681884766 84.37159061431885,72.67809510231018 84.37159061431885,72.67809510231018 84.50222611427307,73.53136539459229 84.50222611427307,73.53136539459229 84.84549522399902,74.28219318389893 84.84549522399902,74.28219318389893 85.43730974197388,74.8670220375061 85.43730974197388,74.8670220375061 86.3135278224945,75.22225379943848 86.3135278224945,75.22225379943848 86.4930272102356,75.25966167449951 86.4930272102356,75.25966167449951 86.67649626731873,75.28667449951172 86.67649626731873,75.28667449951172 86.86287999153137,75.30492544174194 86.86287999153137,75.30492544174194 87.05121874809265,75.3159761428833 87.05121874809265,75.3159761428833 87.24067211151123,75.3214418888092 87.24067211151123,75.3214418888092 87.4302089214325,75.3229022026062 87.4302089214325,75.3229022026062 87.53994703292847,75.32233595848083 87.53994703292847,75.32233595848083 87.65096664428711,75.32083988189697 87.65096664428711,75.32083988189697 87.76299357414246,75.31870603561401 87.76299357414246,75.31870603561401 87.87558078765869,75.3161609172821 87.87558078765869,75.3161609172821 87.98843026161194,75.31346678733826 87.98843026161194,75.31346678733826 88.10117244720459,75.31092166900635 88.10117244720459,75.31092166900635 88.21218609809875,75.30900835990906 88.21218609809875,75.30900835990906 88.32263946533203,75.30612349510193 88.32263946533203,75.30612349510193 88.43275904655457,75.30283331871033 88.43275904655457,75.30283331871033 88.54265213012695,75.29972195625305 88.54265213012695,75.29972195625305 88.65250945091248,75.29743909835815 88.65250945091248,75.29743909835815 88.7625515460968,75.29653906822205 88.7625515460968,75.29653906822205 89.28804993629456,75.31499862670898 89.28804993629456,75.31499862670898 89.79108333587646,75.38591623306274 89.79108333587646,75.38591623306274 90.26442766189575,75.53257942199707 90.26442766189575,75.53257942199707 90.70055484771729,75.77829360961914 90.70055484771729,75.77829360961914 91.09220504760742,76.1463463306427 91.09220504760742,76.1463463306427 91.43202900886536,76.66003704071045 91.43202900886536,76.66003704071045 91.64204001426697,77.18695998191833 91.64204001426697,77.18695998191833 91.74950122833252,77.71642804145813 91.74950122833252,77.71642804145813 91.77589416503906,78.24938297271729 91.77589416503906,78.24938297271729 91.74227118492126,78.78669500350952 91.74227118492126,78.78669500350952 91.670161485672,79.32936549186707 91.670161485672,79.32936549186707 91.5805995464325,79.87826466560364 91.5805995464325,79.87826466560364 91.55023097991943,80.58987259864807 91.55023097991943,80.58987259864807 91.67566299438477,81.21716380119324 91.67566299438477,81.21716380119324 91.91518425941467,81.79201483726501 91.91518425941467,81.79201483726501 92.22670197486877,82.34626650810242 92.22670197486877,82.34626650810242 92.56847500801086,82.91187286376953 92.56847500801086,82.91187286376953 92.89856553077698,83.52064490318298 92.89856553077698,83.52064490318298 93.73198747634888,82.47132301330566 93.73198747634888,82.47132301330566 94.50277090072632,81.37497901916504 94.50277090072632,81.37497901916504 95.20829916000366,80.23561239242554 95.20829916000366,80.23561239242554 95.84567546844482,79.05731201171875 95.84567546844482,79.05731201171875 96.41221165657043,77.84414291381836 96.41221165657043,77.84414291381836 96.90517783164978,76.6001284122467 96.90517783164978,76.6001284122467 97.11915850639343,75.98289251327515 97.11915850639343,75.98289251327515 97.31524586677551,75.36060214042664 97.31524586677551,75.36060214042664 97.49317169189453,74.73341226577759 97.49317169189453,74.73341226577759 97.65244722366333,74.10140633583069 97.65244722366333,74.10140633583069 97.79289364814758,73.46475720405579 97.79289364814758,73.46475720405579 97.91402220726013,72.82356023788452 97.91402220726013,72.82356023788452 97.96156883239746,72.4773108959198 97.96156883239746,72.4773108959198 97.9630708694458,72.19278812408447 97.9630708694458,72.19278812408447 97.91881442070007,71.94381952285767 97.91881442070007,71.94381952285767 97.82902598381042,71.70422673225403 97.82902598381042,71.70422673225403 97.693932056427,71.4478611946106 97.693932056427,71.4478611946106" stroke="white" stroke-width="0.1" /><polygon points="98.20636510848999,70.51113247871399 98.20636510848999,70.51113247871399 98.21827411651611,67.42128729820251 98.21827411651611,67.42128729820251 97.81374931335449,64.37588930130005 97.81374931335449,64.37588930130005 97.008216381073,61.41926646232605 97.008216381073,61.41926646232605 95.8168089389801,58.595824241638184 95.8168089389801,58.595824241638184 94.2549467086792,55.95000982284546 94.2549467086792,55.95000982284546 92.33782887458801,53.52615714073181 92.33782887458801,53.52615714073181 91.84771180152893,54.01268005371094 91.84771180152893,54.01268005371094 91.36298298835754,54.526835680007935 91.36298298835754,54.526835680007935 90.90274572372437,55.0702691078186 90.90274572372437,55.0702691078186 90.48575162887573,55.64465522766113 90.48575162887573,55.64465522766113 90.13106226921082,56.25166296958923 90.13106226921082,56.25166296958923 89.8576557636261,56.89295530319214 89.8576557636261,56.89295530319214 89.75967168807983,57.277750968933105 89.75967168807983,57.277750968933105 89.73499536514282,57.670778036117554 89.73499536514282,57.670778036117554 89.79625105857849,58.03719162940979 89.79625105857849,58.03719162940979 89.95545506477356,58.34208130836487 89.95545506477356,58.34208130836487 90.22504091262817,58.55063199996948 90.22504091262817,58.55063199996948 90.61728715896606,58.62787961959839 90.61728715896606,58.62787961959839 90.6434178352356,58.627671003341675 90.6434178352356,58.627671003341675 90.66922068595886,58.62705111503601 90.66922068595886,58.62705111503601 90.69486856460571,58.62607955932617 90.69486856460571,58.62607955932617 90.72025418281555,58.62469673156738 90.72025418281555,58.62469673156738 90.74548482894897,58.622896671295166 90.74548482894897,58.622896671295166 90.77064990997314,58.62069129943848 90.77064990997314,58.62069129943848 91.2293553352356,58.51641297340393 91.2293553352356,58.51641297340393 91.65911674499512,58.328866958618164 91.65911674499512,58.328866958618164 92.05656051635742,58.07343125343323 92.05656051635742,58.07343125343323 92.41825342178345,57.76547193527222 92.41825342178345,57.76547193527222 92.74078011512756,57.42036700248718 92.74078011512756,57.42036700248718 93.02077293395996,57.05350637435913 93.02077293395996,57.05350637435913 93.13826560974121,56.88859224319458 93.13826560974121,56.88859224319458 93.25845837593079,56.74782991409302 93.25845837593079,56.74782991409302 93.38111877441406,56.633853912353516 93.38111877441406,56.633853912353516 93.50587725639343,56.54922127723694 93.50587725639343,56.54922127723694 93.63265633583069,56.49653673171997 93.63265633583069,56.49653673171997 93.76122951507568,56.47839903831482 93.76122951507568,56.47839903831482 93.86397004127502,56.49127960205078 93.86397004127502,56.49127960205078 93.96626353263855,56.53119087219238 93.96626353263855,56.53119087219238 94.06795501708984,56.60001039505005 94.06795501708984,56.60001039505005 94.16878819465637,56.699568033218384 94.16878819465637,56.699568033218384 94.26868557929993,56.83174133300781 94.26868557929993,56.83174133300781 94.36749815940857,56.998395919799805 94.36749815940857,56.998395919799805 94.50775384902954,57.29957818984985 94.50775384902954,57.29957818984985 94.66804265975952,57.74957537651062 94.66804265975952,57.74957537651062 94.78804469108582,58.25765132904053 94.78804469108582,58.25765132904053 94.80732679367065,58.732956647872925 94.80732679367065,58.732956647872925 94.66572403907776,59.08474922180176 94.66572403907776,59.08474922180176 94.30279731750488,59.22216176986694 94.30279731750488,59.22216176986694 94.29081082344055,59.22216176986694 94.29081082344055,59.22216176986694 94.00613903999329,59.170979261398315 94.00613903999329,59.170979261398315 93.74191164970398,59.05165076255798 93.74191164970398,59.05165076255798 93.48805546760559,58.897459506988525 93.48805546760559,58.897459506988525 93.234121799469,58.74166488647461 93.234121799469,58.74166488647461 92.97000169754028,58.617544174194336 92.97000169754028,58.617544174194336 92.68529415130615,58.55838656425476 92.68529415130615,58.55838656425476 92.61580109596252,58.55838656425476 92.61580109596252,58.55838656425476 92.28147864341736,58.58309864997864 92.28147864341736,58.58309864997864 91.88417792320251,58.65865349769592 91.88417792320251,58.65865349769592 91.47666096687317,58.787232637405396 91.47666096687317,58.787232637405396 91.11167192459106,58.97090435028076 91.11167192459106,58.97090435028076 90.84193706512451,59.21182632446289 90.84193706512451,59.21182632446289 90.72032570838928,59.51211452484131 90.72032570838928,59.51211452484131 90.71785807609558,59.84460115432739 90.71785807609558,59.84460115432739 90.76465964317322,60.162389278411865 90.76465964317322,60.162389278411865 90.83415269851685,60.46673655509949 90.83415269851685,60.46673655509949 90.89959859848022,60.75890064239502 90.89959859848022,60.75890064239502 90.93446135520935,61.0401451587677 90.93446135520935,61.0401451587677 90.91203212738037,61.31173372268677 90.91203212738037,61.31173372268677 90.85601568222046,61.48639917373657 90.85601568222046,61.48639917373657 90.77431559562683,61.621999740600586 90.77431559562683,61.621999740600586 90.67030549049377,61.7218017578125 90.67030549049377,61.7218017578125 90.54726958274841,61.789047718048096 90.54726958274841,61.789047718048096 90.40865898132324,61.82699203491211 90.40865898132324,61.82699203491211 90.25784134864807,61.838918924331665 90.25784134864807,61.838918924331665 90.04842638969421,61.82083487510681 90.04842638969421,61.82083487510681 89.83320593833923,61.77182197570801 89.83320593833923,61.77182197570801 89.6210253238678,61.69963479042053 89.6210253238678,61.69963479042053 89.42040801048279,61.61205768585205 89.42040801048279,61.61205768585205 89.24001455307007,61.51691675186157 89.24001455307007,61.51691675186157 89.08844590187073,61.421966552734375 89.08844590187073,61.421966552734375 89.01992440223694,61.380571126937866 89.01992440223694,61.380571126937866 88.94889950752258,61.34730577468872 88.94889950752258,61.34730577468872 88.87547254562378,61.32192015647888 88.87547254562378,61.32192015647888 88.79984021186829,61.30409836769104 88.79984021186829,61.30409836769104 88.72218728065491,61.29361391067505 88.72218728065491,61.29361391067505 88.64273428916931,61.29016876220703 88.64273428916931,61.29016876220703 88.35645318031311,61.3300621509552 88.35645318031311,61.3300621509552 88.0755603313446,61.44087314605713 88.0755603313446,61.44087314605713 87.81870603561401,61.60917282104492 87.81870603561401,61.60917282104492 87.60431408882141,61.82162165641785 87.60431408882141,61.82162165641785 87.45110034942627,62.06480860710144 87.45110034942627,62.06480860710144 87.37748861312866,62.32537031173706 87.37748861312866,62.32537031173706 87.17095851898193,62.92539834976196 87.17095851898193,62.92539834976196 86.76448464393616,63.74210715293884 86.76448464393616,63.74210715293884 86.34498119354248,64.63390588760376 86.34498119354248,64.63390588760376 86.09890937805176,65.45920372009277 86.09890937805176,65.45920372009277 86.2131118774414,66.07640385627747 86.2131118774414,66.07640385627747 86.87426447868347,66.34396314620972 86.87426447868347,66.34396314620972 86.88842058181763,66.34699702262878 86.88842058181763,66.34699702262878 86.90212368965149,66.34899973869324 86.90212368965149,66.34899973869324 86.9156002998352,66.35025143623352 86.9156002998352,66.35025143623352 86.92855834960938,66.35088920593262 86.92855834960938,66.35088920593262 86.94121241569519,66.35111570358276 86.94121241569519,66.35111570358276 86.95334196090698,66.35115146636963 86.95334196090698,66.35115146636963 87.41785287857056,66.28016233444214 87.41785287857056,66.28016233444214 87.80204653739929,66.0931408405304 87.80204653739929,66.0931408405304 88.13741207122803,65.82905650138855 88.13741207122803,65.82905650138855 88.45537304878235,65.52682518959045 88.45537304878235,65.52682518959045 88.78748416900635,65.22539854049683 88.78748416900635,65.22539854049683 89.16512727737427,64.96369242668152 89.16512727737427,64.96369242668152 89.34900760650635,64.8752212524414 89.34900760650635,64.8752212524414 89.54055905342102,64.80551958084106 89.54055905342102,64.80551958084106 89.7387444972992,64.7534191608429 89.7387444972992,64.7534191608429 89.94224071502686,64.71766233444214 89.94224071502686,64.71766233444214 90.15000462532043,64.6971046924591 90.15000462532043,64.6971046924591 90.36087989807129,64.69051837921143 90.36087989807129,64.69051837921143 90.74829816818237,64.71099853515625 90.74829816818237,64.71099853515625 91.13784432411194,64.76736664772034 91.13784432411194,64.76736664772034 91.52398705482483,64.85196948051453 91.52398705482483,64.85196948051453 91.90106391906738,64.95712399482727 91.90106391906738,64.95712399482727 92.26369261741638,65.07520079612732 92.26369261741638,65.07520079612732 92.60621666908264,65.19853472709656 92.60621666908264,65.19853472709656 93.14141273498535,65.40517807006836 93.14141273498535,65.40517807006836 93.68234276771545,65.61442017555237 93.68234276771545,65.61442017555237 94.224613904953,65.8284604549408 94.224613904953,65.8284604549408 94.76341009140015,66.04948043823242 94.76341009140015,66.04948043823242 95.29426693916321,66.27969741821289 95.29426693916321,66.27969741821289 95.81246376037598,66.52129292488098 95.81246376037598,66.52129292488098 96.32905125617981,66.86156392097473 96.32905125617981,66.86156392097473 96.63458466529846,67.26405024528503 96.63458466529846,67.26405024528503 96.80004119873047,67.71793961524963 96.80004119873047,67.71793961524963 96.89615368843079,68.21236610412598 96.89615368843079,68.21236610412598 96.99383974075317,68.73648166656494 96.99383974075317,68.73648166656494 97.16397523880005,69.27943229675293 97.16397523880005,69.27943229675293 97.28027582168579,69.53374147415161 97.28027582168579,69.53374147415161 97.41869568824768,69.770747423172 97.41869568824768,69.770747423172 97.58003354072571,69.98873353004456 97.58003354072571,69.98873353004456 97.76462316513062,70.18594145774841 97.76462316513062,70.18594145774841 97.97325134277344,70.36064863204956 97.97325134277344,70.36064863204956" stroke="white" stroke-width="0.1" /></svg>