<?xml version="1.0" encoding="utf-8" ?>
<svg baseProfile="full" height="94.5469617843628" version="1.1" width="99.9788224697113" xmlns="http://www.w3.org/2000/svg" xmlns:ev="http://www.w3.org/2001/xml-events" xmlns:xlink="http://www.w3.org/1999/xlink"><defs><clipPath /></defs><polygon points="97.3432183265686,63.087403774261475 97.3432183265686,63.087403774261475 96.25197649002075,64.09536600112915 96.25197649002075,64.09536600112915 95.02097964286804,64.93973135948181 95.02097964286804,64.93973135948181 93.67184042930603,65.61192870140076 93.67184042930603,65.61192870140076 92.22559332847595,66.10272526741028 92.22559332847595,66.10272526741028 90.70370197296143,66.40377640724182 90.70370197296143,66.40377640724182 89.1273558139801,66.50606989860535 89.1273558139801,66.50606989860535 82.92626738548279,66.50606989860535 82.92626738548279,66.50606989860535 82.9384446144104,66.37438535690308 82.9384446144104,66.37438535690308 82.94946551322937,66.24233722686768 82.94946551322937,66.24233722686768 82.9591155052185,66.11014604568481 82.9591155052185,66.11014604568481 82.96660780906677,65.97737669944763 82.96660780906677,65.97737669944763 82.97208547592163,65.84432125091553 82.97208547592163,65.84432125091553 82.97467827796936,65.71076512336731 82.97467827796936,65.71076512336731 82.95184373855591,65.03021121025085 82.95184373855591,65.03021121025085 82.8672707080841,64.33964967727661 82.8672707080841,64.33964967727661 82.72138833999634,63.64584565162659 82.72138833999634,63.64584565162659 82.5140655040741,62.955427169799805 82.5140655040741,62.955427169799805 82.24579095840454,62.27524280548096 82.24579095840454,62.27524280548096 81.91657662391663,61.61205172538757 81.91657662391663,61.61205172538757 89.1273558139801,61.61205172538757 89.1273558139801,61.61205172538757 90.73561429977417,61.43253445625305 90.73561429977417,61.43253445625305 92.19951629638672,60.909461975097656 92.19951629638672,60.909461975097656 93.44333410263062,60.06581783294678 93.44333410263062,60.06581783294678 94.39078569412231,58.924293518066406 94.39078569412231,58.924293518066406 94.96622681617737,57.50800967216492 94.96622681617737,57.50800967216492 95.0933039188385,55.839741230010986 95.0933039188385,55.839741230010986 94.992595911026,54.37678098678589 94.992595911026,54.37678098678589 94.89130973815918,52.9136061668396 94.89130973815918,52.9136061668396 94.79016661643982,51.45028233528137 94.79016661643982,51.45028233528137 94.68873739242554,49.98674690723419 94.68873739242554,49.98674690723419 94.58759427070618,48.52291941642761 94.58759427070618,48.52291941642761 94.48702931404114,47.05909490585327 94.48702931404114,47.05909490585327 94.45533156394958,46.4718371629715 94.45533156394958,46.4718371629715 94.42911148071289,45.874419808387756 94.42911148071289,45.874419808387756 94.3962574005127,45.27311325073242 94.3962574005127,45.27311325073242 94.34511065483093,44.67447102069855 94.34511065483093,44.67447102069855 94.2639946937561,44.085052609443665 94.2639946937561,44.085052609443665 94.14124488830566,43.51133704185486 94.14124488830566,43.51133704185486 93.65066289901733,42.246049642562866 93.65066289901733,42.246049642562866 92.90189146995544,41.12592041492462 92.90189146995544,41.12592041492462 91.93887710571289,40.187761187553406 91.93887710571289,40.187761187553406 90.8044159412384,39.46809470653534 90.8044159412384,39.46809470653534 89.54229950904846,39.0038788318634 89.54229950904846,39.0038788318634 88.1960391998291,38.83170783519745 88.1960391998291,38.83170783519745 89.71381783485413,37.02843487262726 89.71381783485413,37.02843487262726 90.7036304473877,34.94932949542999 90.7036304473877,34.94932949542999 91.15567207336426,32.7115923166275 91.15567207336426,32.7115923166275 91.05942845344543,30.43156862258911 91.05942845344543,30.43156862258911 90.40517807006836,28.226467967033386 90.40517807006836,28.226467967033386 89.18268084526062,26.212844252586365 89.18268084526062,26.212844252586365 88.21224570274353,25.180169939994812 88.21224570274353,25.180169939994812 87.11142539978027,24.32377338409424 87.11142539978027,24.32377338409424 85.90549826622009,23.649132251739502 85.90549826622009,23.649132251739502 84.61931943893433,23.16085398197174 84.61931943893433,23.16085398197174 83.2782506942749,22.864270210266113 83.2782506942749,22.864270210266113 81.90735578536987,22.764208912849426 81.90735578536987,22.764208912849426 81.13985657691956,22.795690596103668 81.13985657691956,22.795690596103668 80.37523627281189,22.89114147424698 80.37523627281189,22.89114147424698 79.61825132369995,23.05121123790741 79.61825132369995,23.05121123790741 78.87257933616638,23.276476562023163 78.87257933616638,23.276476562023163 78.14275622367859,23.567871749401093 78.14275622367859,23.567871749401093 77.4328887462616,23.92604798078537 77.4328887462616,23.92604798078537 76.57260298728943,24.47296530008316 76.57260298728943,24.47296530008316 75.77946186065674,25.110507011413574 75.77946186065674,25.110507011413574 75.06080269813538,25.83017349243164 75.06080269813538,25.83017349243164 74.42426681518555,26.62353515625 74.42426681518555,26.62353515625 73.87771010398865,27.482306957244873 73.87771010398865,27.482306957244873 73.42869639396667,28.39820683002472 73.42869639396667,28.39820683002472 73.23757410049438,28.889653086662292 73.23757410049438,28.889653086662292 73.07484149932861,29.39053773880005 73.07484149932861,29.39053773880005 72.94113636016846,29.899203777313232 72.94113636016846,29.899203777313232 72.8364646434784,30.41420876979828 72.8364646434784,30.41420876979828 72.761470079422,30.934038758277893 72.761470079422,30.934038758277893 72.71637916564941,31.45725429058075 72.71637916564941,31.45725429058075 72.77444005012512,32.10833966732025 72.77444005012512,32.10833966732025 72.99689650535583,32.69214332103729 72.99689650535583,32.69214332103729 73.33475351333618,33.23171138763428 73.33475351333618,33.23171138763428 73.73903393745422,33.749955892562866 73.73903393745422,33.749955892562866 74.160897731781,34.2703640460968 74.160897731781,34.2703640460968 74.55134391784668,34.81598496437073 74.55134391784668,34.81598496437073 75.32359957695007,36.20179295539856 75.32359957695007,36.20179295539856 75.93203783035278,37.62808442115784 75.93203783035278,37.62808442115784 76.3958215713501,39.09277617931366 76.3958215713501,39.09277617931366 76.7344057559967,40.59305191040039 76.7344057559967,40.59305191040039 76.96766257286072,42.12675392627716 76.96766257286072,42.12675392627716 77.11476683616638,43.69114637374878 77.11476683616638,43.69114637374878 77.27872729301453,46.08621299266815 77.27872729301453,46.08621299266815 77.44326591491699,48.481354117393494 77.44326591491699,48.481354117393494 77.6083767414093,50.876569747924805 77.6083767414093,50.876569747924805 77.77363061904907,53.27170491218567 77.77363061904907,53.27170491218567 77.93874740600586,55.66684603691101 77.93874740600586,55.66684603691101 78.10371518135071,58.06198716163635 78.10371518135071,58.06198716163635 77.97353863716125,58.00161957740784 77.97353863716125,58.00161957740784 77.84401178359985,57.94326663017273 77.84401178359985,57.94326663017273 77.71528363227844,57.88736939430237 77.71528363227844,57.88736939430237 77.5871992111206,57.83405900001526 77.5871992111206,57.83405900001526 77.45997905731201,57.78377652168274 77.45997905731201,57.78377652168274 77.33376622200012,57.73695111274719 77.33376622200012,57.73695111274719 77.1811842918396,57.68558382987976 77.1811842918396,57.68558382987976 77.0304799079895,57.63782262802124 77.0304799079895,57.63782262802124 76.88193917274475,57.59373903274536 76.88193917274475,57.59373903274536 76.7356276512146,57.55317807197571 76.7356276512146,57.55317807197571 76.59176588058472,57.51643776893616 76.59176588058472,57.51643776893616 76.4508605003357,57.48337507247925 76.4508605003357,57.48337507247925 75.97785592079163,57.38842487335205 75.97785592079163,57.38842487335205 75.53597092628479,57.319772243499756 75.53597092628479,57.319772243499756 75.12534856796265,57.27331042289734 75.12534856796265,57.27331042289734 74.74527359008789,57.244133949279785 74.74527359008789,57.244133949279785 74.39574003219604,57.22807049751282 74.39574003219604,57.22807049751282 74.07646775245667,57.22057819366455 74.07646775245667,57.22057819366455 73.92734289169312,56.949639320373535 73.92734289169312,56.949639320373535 73.7773597240448,56.67855739593506 73.7773597240448,56.67855739593506 73.6266553401947,56.40740394592285 73.6266553401947,56.40740394592285 73.47480058670044,56.1356782913208 73.47480058670044,56.1356782913208 73.32207560539246,55.86358308792114 73.32207560539246,55.86358308792114 73.16820025444031,55.59077262878418 73.16820025444031,55.59077262878418 73.08089137077332,55.441224575042725 73.08089137077332,55.441224575042725 72.96959161758423,55.235981941223145 72.96959161758423,55.235981941223145 72.82875776290894,54.98075485229492 72.82875776290894,54.98075485229492 72.6519763469696,54.68063950538635 72.6519763469696,54.68063950538635 72.43369817733765,54.3411910533905 72.43369817733765,54.3411910533905 72.1677303314209,53.96788716316223 72.1677303314209,53.96788716316223 71.84960842132568,49.362027645111084 71.84960842132568,49.362027645111084 71.77454233169556,48.26134741306305 71.77454233169556,48.26134741306305 71.69890403747559,47.161173820495605 71.69890403747559,47.161173820495605 71.62340879440308,46.061503887176514 71.62340879440308,46.061503887176514 71.54754996299744,44.96205151081085 71.54754996299744,44.96205151081085 71.47154808044434,43.86302828788757 71.47154808044434,43.86302828788757 71.3954746723175,42.764440178871155 71.3954746723175,42.764440178871155 70.85986733436584,40.140143036842346 70.85986733436584,40.140143036842346 69.693922996521,37.76467144489288 69.693922996521,37.76467144489288 68.000727891922,35.737502574920654 68.000727891922,35.737502574920654 65.8839464187622,34.15783941745758 65.8839464187622,34.15783941745758 63.447022438049316,33.125239610672 63.447022438049316,33.125239610672 60.793691873550415,32.7389657497406 60.793691873550415,32.7389657497406 63.042521476745605,30.185630917549133 63.042521476745605,30.185630917549133 64.67715501785278,27.2597074508667 64.67715501785278,27.2597074508667 65.67186117172241,24.08021092414856 65.67186117172241,24.08021092414856 66.00036025047302,20.76585739850998 66.00036025047302,20.76585739850998 65.63714146614075,17.436015605926514 65.63714146614075,17.436015605926514 64.55584168434143,14.209477603435516 64.55584168434143,14.209477603435516 63.006287813186646,11.567100137472153 63.006287813186646,11.567100137472153 61.004477739334106,9.295361489057541 61.004477739334106,9.295361489057541 58.626770973205566,7.443320006132126 58.626770973205566,7.443320006132126 55.949240922927856,6.059674173593521 55.949240922927856,6.059674173593521 53.04846167564392,5.193553492426872 53.04846167564392,5.193553492426872 50.00057816505432,4.894016683101654 50.00057816505432,4.894016683101654 46.953558921813965,5.193553492426872 46.953558921813965,5.193553492426872 44.05321180820465,6.059601902961731 44.05321180820465,6.059601902961731 41.376110911369324,7.443320006132126 41.376110911369324,7.443320006132126 38.99811506271362,9.295433759689331 38.99811506271362,9.295433759689331 36.995729804039,11.567243933677673 36.995729804039,11.567243933677673 35.44531464576721,14.209477603435516 35.44531464576721,14.209477603435516 34.364014863967896,17.435944080352783 34.364014863967896,17.435944080352783 34.00057852268219,20.76585739850998 34.00057852268219,20.76585739850998 34.32929217815399,24.08021092414856 34.32929217815399,24.08021092414856 35.3238582611084,27.2598534822464 35.3238582611084,27.2598534822464 36.95862889289856,30.185773968696594 36.95862889289856,30.185773968696594 39.20746147632599,32.7389657497406 39.20746147632599,32.7389657497406 36.65131330490112,33.09606313705444 36.65131330490112,33.09606313705444 34.29456949234009,34.05396044254303 34.29456949234009,34.05396044254303 32.227492332458496,35.52570939064026 32.227492332458496,35.52570939064026 30.540060997009277,37.42356896400452 30.540060997009277,37.42356896400452 29.322749376296997,39.660438895225525 29.322749376296997,39.660438895225525 28.665614128112793,42.1489417552948 28.665614128112793,42.1489417552948 28.561878204345703,43.04366111755371 28.561878204345703,43.04366111755371 28.48501205444336,43.94436180591583 28.48501205444336,43.94436180591583 28.4264475107193,44.84866261482239 28.4264475107193,44.84866261482239 28.377315402030945,45.753756165504456 28.377315402030945,45.753756165504456 28.329336643218994,46.65740728378296 28.329336643218994,46.65740728378296 28.273725509643555,47.55702614784241 28.273725509643555,47.55702614784241 27.824202179908752,54.092371463775635 27.824202179908752,54.092371463775635 27.329513430595398,54.7920823097229 27.329513430595398,54.7920823097229 26.94562077522278,55.42782545089722 26.94562077522278,55.42782545089722 26.652279496192932,55.98554611206055 26.652279496192932,55.98554611206055 26.428958773612976,56.45135045051575 26.428958773612976,56.45135045051575 26.255488395690918,56.81161284446716 26.255488395690918,56.81161284446716 26.111412048339844,57.05229640007019 26.111412048339844,57.05229640007019 26.094195246696472,57.08218812942505 26.094195246696472,57.08218812942505 26.077410578727722,57.112157344818115 26.077410578727722,57.112157344818115 26.060986518859863,57.14219808578491 26.060986518859863,57.14219808578491 26.044633984565735,57.17209577560425 26.044633984565735,57.17209577560425 26.028424501419067,57.202136516571045 26.028424501419067,57.202136516571045 26.01228654384613,57.23210573196411 26.01228654384613,57.23210573196411 25.514212250709534,57.2595477104187 25.514212250709534,57.2595477104187 24.990995228290558,57.30932950973511 24.990995228290558,57.30932950973511 24.443574249744415,57.387709617614746 24.443574249744415,57.387709617614746 23.872163891792297,57.50051736831665 23.872163891792297,57.50051736831665 23.277556896209717,57.65410661697388 23.277556896209717,57.65410661697388 22.660472989082336,57.85451531410217 22.660472989082336,57.85451531410217 22.534334659576416,57.90054798126221 22.534334659576416,57.90054798126221 22.407473623752594,57.94888734817505 22.407473623752594,57.94888734817505 22.27982133626938,57.99974799156189 22.27982133626938,57.99974799156189 22.15116024017334,58.05269479751587 22.15116024017334,58.05269479751587 22.021347284317017,58.10809135437012 22.021347284317017,58.10809135437012 21.89052402973175,58.16572308540344 21.89052402973175,58.16572308540344 22.88869172334671,43.69114637374878 22.88869172334671,43.69114637374878 23.033994436264038,42.1266108751297 23.033994436264038,42.1266108751297 23.266173899173737,40.59298038482666 23.266173899173737,40.59298038482666 23.604467511177063,39.09277617931366 23.604467511177063,39.09277617931366 24.067965149879456,37.62823045253754 24.067965149879456,37.62823045253754 24.675898253917694,36.20186448097229 24.675898253917694,36.20186448097229 25.447505712509155,34.81598496437073 25.447505712509155,34.81598496437073 25.83874762058258,34.27022099494934 25.83874762058258,34.27022099494934 26.260748505592346,33.749955892562866 26.260748505592346,33.749955892562866 26.66524648666382,33.23171138763428 26.66524648666382,33.23171138763428 27.003034949302673,32.69228637218475 27.003034949302673,32.69228637218475 27.22584903240204,32.10848569869995 27.22584903240204,32.10848569869995 27.28477716445923,31.45725429058075 27.28477716445923,31.45725429058075 27.239680290222168,30.933967232704163 27.239680290222168,30.933967232704163 27.16447412967682,30.41413724422455 27.16447412967682,30.41413724422455 27.060016989707947,29.899203777313232 27.060016989707947,29.899203777313232 26.92616879940033,29.39053773880005 26.92616879940033,29.39053773880005 26.76357924938202,28.889799118041992 26.76357924938202,28.889799118041992 26.572459936141968,28.39820683002472 26.572459936141968,28.39820683002472 26.122578978538513,27.482163906097412 26.122578978538513,27.482163906097412 25.575733184814453,26.62346363067627 25.575733184814453,26.62346363067627 24.939487874507904,25.83017349243164 24.939487874507904,25.83017349243164 24.221119284629822,25.110578536987305 24.221119284629822,25.110578536987305 23.428261280059814,24.47310984134674 23.428261280059814,24.47310984134674 22.568264603614807,23.92604798078537 22.568264603614807,23.92604798078537 21.858179569244385,23.567800223827362 21.858179569244385,23.567800223827362 21.12777978181839,23.276332020759583 21.12777978181839,23.276332020759583 20.38174718618393,23.05121123790741 20.38174718618393,23.05121123790741 19.624045491218567,22.89121299982071 19.624045491218567,22.89121299982071 18.85921061038971,22.79590666294098 18.85921061038971,22.79590666294098 18.09149533510208,22.764208912849426 18.09149533510208,22.764208912849426 16.721464693546295,22.864054143428802 16.721464693546295,22.864054143428802 15.381041169166565,23.16063791513443 15.381041169166565,23.16063791513443 14.09536749124527,23.649132251739502 14.09536749124527,23.649132251739502 12.889513373374939,24.323846399784088 12.889513373374939,24.323846399784088 11.788834631443024,25.180241465568542 11.788834631443024,25.180241465568542 10.818473994731903,26.212844252586365 10.818473994731903,26.212844252586365 9.595979005098343,28.226321935653687 9.595979005098343,28.226321935653687 8.941507339477539,30.43149709701538 8.941507339477539,30.43149709701538 8.845479786396027,32.7115923166275 8.845479786396027,32.7115923166275 9.297378361225128,34.949472546577454 9.297378361225128,34.949472546577454 10.287261754274368,37.02850639820099 10.287261754274368,37.02850639820099 11.805115640163422,38.83170783519745 11.805115640163422,38.83170783519745 10.45871302485466,39.00373578071594 10.45871302485466,39.00373578071594 9.196596592664719,39.46802318096161 9.196596592664719,39.46802318096161 8.062276244163513,40.187761187553406 8.062276244163513,40.187761187553406 7.098975777626038,41.12599194049835 7.098975777626038,41.12599194049835 6.350421905517578,42.2461211681366 6.350421905517578,42.2461211681366 5.859910696744919,43.51133704185486 5.859910696744919,43.51133704185486 5.7373009622097015,44.084909558296204 5.7373009622097015,44.084909558296204 5.656329542398453,44.67439949512482 5.656329542398453,44.67439949512482 5.605470389127731,45.27311325073242 5.605470389127731,45.27311325073242 5.572332814335823,45.87449133396149 5.572332814335823,45.87449133396149 5.545102059841156,46.47198021411896 5.545102059841156,46.47198021411896 5.511820316314697,47.05909490585327 5.511820316314697,47.05909490585327 5.411398410797119,48.52277636528015 5.411398410797119,48.52277636528015 5.311048403382301,49.98652935028076 5.311048403382301,49.98652935028076 5.210698768496513,51.45028233528137 5.210698768496513,51.45028233528137 5.109988525509834,52.91367769241333 5.109988525509834,52.91367769241333 5.009134486317635,54.37692403793335 5.009134486317635,54.37692403793335 4.907848313450813,55.839741230010986 4.907848313450813,55.839741230010986 5.034996569156647,57.507866621017456 5.034996569156647,57.507866621017456 5.610296875238419,58.924221992492676 5.610296875238419,58.924221992492676 6.557821482419968,60.06581783294678 6.557821482419968,60.06581783294678 7.801496237516403,60.90953350067139 7.801496237516403,60.90953350067139 9.265537559986115,61.43267750740051 9.265537559986115,61.43267750740051 10.87379977107048,61.61205172538757 10.87379977107048,61.61205172538757 18.17217767238617,61.61205172538757 18.17217767238617,61.61205172538757 17.975008487701416,61.97909116744995 17.975008487701416,61.97909116744995 17.795488238334656,62.35398054122925 17.795488238334656,62.35398054122925 17.635922133922577,62.73585557937622 17.635922133922577,62.73585557937622 17.498329281806946,63.123780488967896 17.498329281806946,63.123780488967896 17.385156452655792,63.51704001426697 17.385156452655792,63.51704001426697 17.298494279384613,63.914984464645386 17.298494279384613,63.914984464645386 17.237909138202667,64.21682834625244 17.237909138202667,64.21682834625244 17.18805879354477,64.52082991600037 17.18805879354477,64.52082991600037 17.1489417552948,64.82670307159424 17.1489417552948,64.82670307159424 17.12070256471634,65.13409614562988 17.12070256471634,65.13409614562988 17.10370182991028,65.44263362884521 17.10370182991028,65.44263362884521 17.097938060760498,65.75225591659546 17.097938060760498,65.75225591659546 17.099666595458984,65.87875485420227 17.099666595458984,65.87875485420227 17.10456609725952,66.00489616394043 17.10456609725952,66.00489616394043 17.112058401107788,66.13089442253113 17.112058401107788,66.13089442253113 17.12113469839096,66.25630855560303 17.12113469839096,66.25630855560303 17.131292819976807,66.38144254684448 17.131292819976807,66.38144254684448 17.141737043857574,66.50606989860535 17.141737043857574,66.50606989860535 10.87379977107048,66.50606989860535 10.87379977107048,66.50606989860535 9.296586364507675,66.40363335609436 9.296586364507675,66.40363335609436 7.774409651756287,66.10272526741028 7.774409651756287,66.10272526741028 6.32845014333725,65.61221480369568 6.32845014333725,65.61221480369568 4.979598894715309,64.94052410125732 4.979598894715309,64.94052410125732 3.7490345537662506,64.09680843353271 3.7490345537662506,64.09680843353271 2.657937631011009,63.08971047401428 2.657937631011009,63.08971047401428 1.7921051010489464,62.02231049537659 1.7921051010489464,62.02231049537659 1.0906649753451347,60.85773706436157 1.0906649753451347,60.85773706436157 0.5584435071796179,59.60995554924011 0.5584435071796179,59.60995554924011 0.20012333989143372,58.29207897186279 0.20012333989143372,58.29207897186279 0.02089120534947142,56.91787004470825 0.02089120534947142,56.91787004470825 0.02535759995225817,55.50087094306946 0.02535759995225817,55.50087094306946 0.11835948098450899,54.165130853652954 0.11835948098450899,54.165130853652954 0.2106409752741456,52.82960534095764 0.2106409752741456,52.82960534095764 0.3028504317626357,51.49437189102173 0.3028504317626357,51.49437189102173 0.3946996759623289,50.15906095504761 0.3946996759623289,50.15906095504761 0.4865489434450865,48.823609948158264 0.4865489434450865,48.823609948158264 0.5786143243312836,47.48786985874176 0.5786143243312836,47.48786985874176 0.6316347513347864,46.71561419963837 0.6316347513347864,46.71561419963837 0.6394869647920132,46.586811542510986 0.6394869647920132,46.586811542510986 0.6468349136412144,46.45678102970123 0.6468349136412144,46.45678102970123 0.6541108246892691,46.325743198394775 0.6541108246892691,46.325743198394775 0.6608104333281517,46.193623542785645 0.6608104333281517,46.193623542785645 0.6672218441963196,46.06078267097473 0.6672218441963196,46.06078267097473 0.6731290370225906,45.927223563194275 0.6731290370225906,45.927223563194275 0.697406055405736,45.391616225242615 0.697406055405736,45.391616225242615 0.7318404968827963,44.81934309005737 0.7318404968827963,44.81934309005737 0.7843567058444023,44.21587586402893 0.7843567058444023,44.21587586402893 0.8624465204775333,43.586257100105286 0.8624465204775333,43.586257100105286 0.9742504917085171,42.93617904186249 0.9742504917085171,42.93617904186249 1.1272605508565903,42.271119356155396 1.1272605508565903,42.271119356155396 1.4747750014066696,41.182687878608704 1.4747750014066696,41.182687878608704 1.9312117248773575,40.14612436294556 1.9312117248773575,40.14612436294556 2.488790825009346,39.16798233985901 2.488790825009346,39.16798233985901 3.1394436955451965,38.25395703315735 3.1394436955451965,38.25395703315735 3.8754627108573914,37.41067349910736 3.8754627108573914,37.41067349910736 4.688850790262222,36.64403855800629 4.688850790262222,36.64403855800629 4.105193912982941,34.36596095561981 4.105193912982941,34.36596095561981 3.903989866375923,32.02953040599823 3.903989866375923,32.02953040599823 4.089201241731644,29.687699675559998 4.089201241731644,29.687699675559998 4.6645015478134155,27.392330765724182 4.6645015478134155,27.392330765724182 5.633709579706192,25.19616186618805 5.633709579706192,25.19616186618805 7.001002877950668,23.151488602161407 7.001002877950668,23.151488602161407 8.444873243570328,21.61252796649933 8.444873243570328,21.61252796649933 10.100537538528442,20.313526690006256 10.100537538528442,20.313526690006256 11.93075105547905,19.272352755069733 11.93075105547905,19.272352755069733 13.897550106048584,18.50643754005432 13.897550106048584,18.50643754005432 15.963761508464813,18.034008145332336 15.963761508464813,18.034008145332336 18.09149533510208,17.87249743938446 18.09149533510208,17.87249743938446 19.29374784231186,17.923572659492493 19.29374784231186,17.923572659492493 20.482458174228668,18.075791001319885 20.482458174228668,18.075791001319885 21.650780737400055,18.327204883098602 21.650780737400055,18.327204883098602 22.791296243667603,18.675728142261505 22.791296243667603,18.675728142261505 23.897089064121246,19.119630753993988 23.897089064121246,19.119630753993988 24.96109902858734,19.656750559806824 24.96109902858734,19.656750559806824 25.78543722629547,20.15756368637085 25.78543722629547,20.15756368637085 26.572027802467346,20.71298062801361 26.572027802467346,20.71298062801361 27.318203449249268,21.319977939128876 27.318203449249268,21.319977939128876 28.021299839019775,21.975314617156982 28.021299839019775,21.975314617156982 28.67872416973114,22.67603427171707 28.67872416973114,22.67603427171707 29.288026690483093,23.41889590024948 29.288026690483093,23.41889590024948 29.137036204338074,21.519741415977478 29.137036204338074,21.519741415977478 29.156845808029175,19.611942768096924 29.156845808029175,19.611942768096924 29.350268840789795,17.708826065063477 29.350268840789795,17.708826065063477 29.720404744148254,15.823286771774292 29.720404744148254,15.823286771774292 30.270346999168396,13.968507945537567 30.270346999168396,13.968507945537567 31.00312352180481,12.15781643986702 31.00312352180481,12.15781643986702 33.0304354429245,8.69254246354103 33.0304354429245,8.69254246354103 35.63837707042694,5.723037570714951 35.63837707042694,5.723037570714951 38.73315751552582,3.309166803956032 38.73315751552582,3.309166803956032 42.220836877822876,1.51065019890666 42.220836877822876,1.51065019890666 46.00805044174194,0.3877119394019246 46.00805044174194,0.3877119394019246 50.00057816505432,0.0 50.00057816505432,0.0 53.99404168128967,0.3877119394019246 53.99404168128967,0.3877119394019246 57.78161287307739,1.5110824257135391 57.78161287307739,1.5110824257135391 61.26972436904907,3.310031443834305 61.26972436904907,3.310031443834305 64.36421871185303,5.724190175533295 64.36421871185303,5.724190175533295 66.97158217430115,8.693478256464005 66.97158217430115,8.693478256464005 68.99803280830383,12.15781643986702 68.99803280830383,12.15781643986702 69.7300136089325,13.968363404273987 69.7300136089325,13.968363404273987 70.27966976165771,15.822997689247131 70.27966976165771,15.822997689247131 70.65001726150513,17.708536982536316 70.65001726150513,17.708536982536316 70.84366083145142,19.611366093158722 70.84366083145142,19.611366093158722 70.86383104324341,21.518516540527344 70.86383104324341,21.518516540527344 70.71312665939331,23.416590690612793 70.71312665939331,23.416590690612793 71.32221460342407,22.674521803855896 71.32221460342407,22.674521803855896 71.97920680046082,21.97452187538147 71.97920680046082,21.97452187538147 72.68179655075073,21.319690346717834 72.68179655075073,21.319690346717834 73.42732548713684,20.71298062801361 73.42732548713684,20.71298062801361 74.21348094940186,20.15770673751831 74.21348094940186,20.15770673751831 75.03774762153625,19.656750559806824 75.03774762153625,19.656750559806824 76.10183358192444,19.119486212730408 76.10183358192444,19.119486212730408 77.20798254013062,18.675656616687775 77.20798254013062,18.675656616687775 78.34893465042114,18.327204883098602 78.34893465042114,18.327204883098602 79.51725721359253,18.075791001319885 79.51725721359253,18.075791001319885 80.70589303970337,17.923645675182343 80.70589303970337,17.923645675182343 81.90735578536987,17.87249743938446 81.90735578536987,17.87249743938446 84.03595089912415,18.033863604068756 84.03595089912415,18.033863604068756 86.10223531723022,18.50629299879074 86.10223531723022,18.50629299879074 88.06924819946289,19.272063672542572 88.06924819946289,19.272063672542572 89.8993194103241,20.313023030757904 89.8993194103241,20.313023030757904 91.55548810958862,21.611303091049194 91.55548810958862,21.611303091049194 93.00014972686768,23.14918339252472 93.00014972686768,23.14918339252472 94.36830878257751,25.194504857063293 94.36830878257751,25.194504857063293 95.33765912055969,27.391034364700317 95.33765912055969,27.391034364700317 95.91310620307922,29.686546325683594 95.91310620307922,29.686546325683594 96.0981011390686,32.028594613075256 96.0981011390686,32.028594613075256 95.89725732803345,34.3651682138443 95.89725732803345,34.3651682138443 95.31461000442505,36.64403855800629 95.31461000442505,36.64403855800629 96.12691402435303,37.41031289100647 96.12691402435303,37.41031289100647 96.86170816421509,38.253235816955566 96.86170816421509,38.253235816955566 97.51178622245789,39.166831970214844 97.51178622245789,39.166831970214844 98.06893467903137,40.14461040496826 98.06893467903137,40.14461040496826 98.52551221847534,41.180598735809326 98.52551221847534,41.180598735809326 98.87389540672302,42.26881563663483 98.87389540672302,42.26881563663483 99.02777075767517,42.93999671936035 99.02777075767517,42.93999671936035 99.14014935493469,43.59663128852844 99.14014935493469,43.59663128852844 99.21881556510925,44.23345327377319 99.21881556510925,44.23345327377319 99.27140474319458,44.84433829784393 99.27140474319458,44.84433829784393 99.30598139762878,45.42388916015625 99.30598139762878,45.42388916015625 99.33032989501953,45.966413617134094 99.33032989501953,45.966413617134094 99.33667182922363,46.09521925449371 99.33667182922363,46.09521925449371 99.34300780296326,46.22337520122528 99.34300780296326,46.22337520122528 99.34905767440796,46.350812911987305 99.34905767440796,46.350812911987305 99.3552565574646,46.477022767066956 99.3552565574646,46.477022767066956 99.36202764511108,46.60179316997528 99.36202764511108,46.60179316997528 99.36951994895935,46.72483503818512 99.36951994895935,46.72483503818512 99.70608353614807,51.61193609237671 99.70608353614807,51.61193609237671 99.97349381446838,55.50548434257507 99.97349381446838,55.50548434257507 99.9788224697113,56.92039132118225 99.9788224697113,56.92039132118225 99.80002045631409,58.293306827545166 99.80002045631409,58.293306827545166 99.44242238998413,59.610241651535034 99.44242238998413,59.610241651535034 98.91034364700317,60.85737347602844 98.91034364700317,60.85737347602844 98.20897579193115,62.02108860015869 98.20897579193115,62.02108860015869" stroke="white" stroke-width="0.1" /><polygon points="77.35220789909363,75.52876472473145 77.35220789909363,75.52876472473145 77.39917635917664,78.07281017303467 77.39917635917664,78.07281017303467 77.44607329368591,80.61742782592773 77.44607329368591,80.61742782592773 77.49311327934265,83.16226601600647 77.49311327934265,83.16226601600647 77.54022479057312,85.70681810379028 77.54022479057312,85.70681810379028 77.58769989013672,88.25085759162903 77.58769989013672,88.25085759162903 77.63575315475464,90.79403877258301 77.63575315475464,90.79403877258301 77.627032995224,91.36696457862854 77.627032995224,91.36696457862854 77.57062911987305,91.92166328430176 77.57062911987305,91.92166328430176 77.44845151901245,92.45207905769348 77.44845151901245,92.45207905769348 77.24191546440125,92.95130968093872 77.24191546440125,92.95130968093872 76.93322896957397,93.41278672218323 76.93322896957397,93.41278672218323 76.5038788318634,93.8300371170044 76.5038788318634,93.8300371170044 76.12906098365784,94.0774142742157 76.12906098365784,94.0774142742157 75.73184370994568,94.25556659698486 75.73184370994568,94.25556659698486 75.31668543815613,94.37522292137146 75.31668543815613,94.37522292137146 74.88747835159302,94.44711804389954 74.88747835159302,94.44711804389954 74.44876432418823,94.48227286338806 74.44876432418823,94.48227286338806 74.00500178337097,94.49163675308228 74.00500178337097,94.49163675308228 73.810213804245,94.48997974395752 73.810213804245,94.48997974395752 73.61570596694946,94.48623657226562 73.61570596694946,94.48623657226562 73.42206835746765,94.48126554489136 73.42206835746765,94.48126554489136 73.2292890548706,94.47629451751709 73.2292890548706,94.47629451751709 73.03774356842041,94.47247385978699 73.03774356842041,94.47247385978699 72.84777760505676,94.47089433670044 72.84777760505676,94.47089433670044 68.1128203868866,94.47089433670044 68.1128203868866,94.47089433670044 67.37629771232605,94.45143938064575 67.37629771232605,94.45143938064575 66.66188836097717,94.37162280082703 66.66188836097717,94.37162280082703 65.98854660987854,94.19944882392883 65.98854660987854,94.19944882392883 65.37506580352783,93.90228986740112 65.37506580352783,93.90228986740112 64.84046578407288,93.44794154167175 64.84046578407288,93.44794154167175 64.40369486808777,92.80420541763306 64.40369486808777,92.80420541763306 64.22950625419617,92.37125515937805 64.22950625419617,92.37125515937805 64.12432789802551,91.9222354888916 64.12432789802551,91.9222354888916 64.07087445259094,91.46255850791931 64.07087445259094,91.46255850791931 64.05113935470581,90.9974753856659 64.05113935470581,90.9974753856659 64.04825448989868,90.53224921226501 64.04825448989868,90.53224921226501 64.04407620429993,90.072500705719 64.04407620429993,90.072500705719 64.03903365135193,89.9513304233551 64.03903365135193,89.9513304233551 64.02736306190491,89.86358642578125 64.02736306190491,89.86358642578125 64.006906747818,89.80422616004944 64.006906747818,89.80422616004944 63.97549510002136,89.76806402206421 63.97549510002136,89.76806402206421 63.93097639083862,89.75005745887756 63.93097639083862,89.75005745887756 63.87118697166443,89.74515795707703 63.87118697166443,89.74515795707703 63.833075761795044,89.74609375 63.833075761795044,89.74609375 63.79050016403198,89.748615026474 63.79050016403198,89.748615026474 63.74295353889465,89.75207209587097 63.74295353889465,89.75207209587097 63.68964910507202,89.75545763969421 63.68964910507202,89.75545763969421 63.63036036491394,89.75797891616821 63.63036036491394,89.75797891616821 63.5645866394043,89.75898623466492 63.5645866394043,89.75898623466492 58.76278281211853,89.75898623466492 58.76278281211853,89.75898623466492 49.91528391838074,89.75898623466492 49.91528391838074,89.75898623466492 40.353164076805115,89.75898623466492 40.353164076805115,89.75898623466492 36.208346486091614,89.75898623466492 36.208346486091614,89.75898623466492 36.0721230506897,89.84248042106628 36.0721230506897,89.84248042106628 36.00541353225708,90.05773067474365 36.00541353225708,90.05773067474365 35.98819673061371,90.35086035728455 35.98819673061371,90.35086035728455 36.00001335144043,90.66811800003052 36.00001335144043,90.66811800003052 36.020901799201965,90.95591306686401 36.020901799201965,90.95591306686401 36.0308438539505,91.1605715751648 36.0308438539505,91.1605715751648 35.98668575286865,91.72801971435547 35.98668575286865,91.72801971435547 35.87300777435303,92.26996898651123 35.87300777435303,92.26996898651123 35.68361699581146,92.77769327163696 35.68361699581146,92.77769327163696 35.41167378425598,93.242347240448 35.41167378425598,93.242347240448 35.050830245018005,93.65512728691101 35.050830245018005,93.65512728691101 34.59468185901642,94.00753974914551 34.59468185901642,94.00753974914551 34.22260284423828,94.19944882392883 34.22260284423828,94.19944882392883 33.81832242012024,94.34194564819336 33.81832242012024,94.34194564819336 33.388179540634155,94.44149732589722 33.388179540634155,94.44149732589722 32.93808102607727,94.50446367263794 32.93808102607727,94.50446367263794 32.47458636760712,94.53745484352112 32.47458636760712,94.53745484352112 32.00359642505646,94.5469617843628 32.00359642505646,94.5469617843628 31.602412462234497,94.54141855239868 31.602412462234497,94.54141855239868 31.204399466514587,94.52765583992004 31.204399466514587,94.52765583992004 30.813229084014893,94.51007843017578 30.813229084014893,94.51007843017578 30.432939529418945,94.4922149181366 30.432939529418945,94.4922149181366 30.067703127861023,94.47867274284363 30.067703127861023,94.47867274284363 29.72141206264496,94.47319507598877 29.72141206264496,94.47319507598877 29.237744212150574,94.47795152664185 29.237744212150574,94.47795152664185 28.74889075756073,94.48983669281006 28.74889075756073,94.48983669281006 28.256723284721375,94.50547099113464 28.256723284721375,94.50547099113464 27.76224911212921,94.5210337638855 27.76224911212921,94.5210337638855 27.267271280288696,94.53299045562744 27.267271280288696,94.53299045562744 26.773014664649963,94.53774094581604 26.773014664649963,94.53774094581604 26.490768790245056,94.53586935997009 26.490768790245056,94.53586935997009 26.209312677383423,94.52996253967285 26.209312677383423,94.52996253967285 25.929009914398193,94.51959133148193 25.929009914398193,94.51959133148193 25.649860501289368,94.50395703315735 25.649860501289368,94.50395703315735 25.372585654258728,94.48256492614746 25.372585654258728,94.48256492614746 25.097107887268066,94.45475339889526 25.097107887268066,94.45475339889526 23.62608015537262,93.8585638999939 23.62608015537262,93.8585638999939 22.789134085178375,92.65011548995972 22.789134085178375,92.65011548995972 22.424763441085815,91.04963541030884 22.424763441085815,91.04963541030884 22.371166944503784,89.27661776542664 22.371166944503784,89.27661776542664 22.466689348220825,87.55143880844116 22.466689348220825,87.55143880844116 22.5498229265213,86.09366416931152 22.5498229265213,86.09366416931152 22.738851606845856,75.7846474647522 22.738851606845856,75.7846474647522 22.778184711933136,75.46234726905823 22.778184711933136,75.46234726905823 22.865568101406097,75.1408338546753 22.865568101406097,75.1408338546753 22.976002097129822,74.82336163520813 22.976002097129822,74.82336163520813 23.083773255348206,74.51266050338745 23.083773255348206,74.51266050338745 23.16380739212036,74.21197295188904 23.16380739212036,74.21197295188904 23.190678656101227,73.924320936203 23.190678656101227,73.924320936203 23.181168735027313,73.5072135925293 23.181168735027313,73.5072135925293 23.17144423723221,73.09025526046753 23.17144423723221,73.09025526046753 23.161573708057404,72.67373204231262 23.161573708057404,72.67373204231262 23.151345551013947,72.25698828697205 23.151345551013947,72.25698828697205 23.14111590385437,71.84024453163147 23.14111590385437,71.84024453163147 23.130741715431213,71.42313718795776 23.130741715431213,71.42313718795776 23.268911242485046,70.8590030670166 23.268911242485046,70.8590030670166 23.650068044662476,70.4419732093811 23.650068044662476,70.4419732093811 24.17847216129303,70.1097309589386 24.17847216129303,70.1097309589386 24.758239090442657,69.80003714561462 24.758239090442657,69.80003714561462 25.293919444084167,69.45101022720337 25.293919444084167,69.45101022720337 25.68955421447754,69.00033354759216 25.68955421447754,69.00033354759216 25.641143321990967,69.00033354759216 25.641143321990967,69.00033354759216 24.67179298400879,68.84631514549255 24.67179298400879,68.84631514549255 23.831821978092194,68.42020750045776 23.831821978092194,68.42020750045776 23.159845173358917,67.77596473693848 23.159845173358917,67.77596473693848 22.693899273872375,66.96690320968628 22.693899273872375,66.96690320968628 22.472308576107025,66.04703664779663 22.472308576107025,66.04703664779663 22.533684968948364,65.06990790367126 22.533684968948364,65.06990790367126 22.86643236875534,64.17281031608582 22.86643236875534,64.17281031608582 23.389360308647156,63.51192593574524 23.389360308647156,63.51192593574524 24.0637868642807,63.05455565452576 24.0637868642807,63.05455565452576 24.850736558437347,62.76805400848389 24.850736558437347,62.76805400848389 25.711381435394287,62.62009143829346 25.711381435394287,62.62009143829346 26.60703957080841,62.57794499397278 26.60703957080841,62.57794499397278 26.681309938430786,62.577658891677856 26.681309938430786,62.577658891677856 26.754790544509888,62.577152252197266 26.754790544509888,62.577152252197266 26.8277645111084,62.57679462432861 26.8277645111084,62.57679462432861 26.900234818458557,62.57621645927429 26.900234818458557,62.57621645927429 26.972562074661255,62.57578730583191 26.972562074661255,62.57578730583191 27.045032382011414,62.57564425468445 27.045032382011414,62.57564425468445 27.38080620765686,62.57895231246948 27.38080620765686,62.57895231246948 27.712616324424744,62.594157457351685 27.712616324424744,62.594157457351685 28.040894865989685,62.62894868850708 28.040894865989685,62.62894868850708 28.36506962776184,62.69075870513916 28.36506962776184,62.69075870513916 28.685569763183594,62.787288427352905 28.685569763183594,62.787288427352905 29.002177715301514,62.92603611946106 29.002177715301514,62.92603611946106 29.30099368095398,62.37753629684448 29.30099368095398,62.37753629684448 29.600459337234497,61.82953715324402 29.600459337234497,61.82953715324402 29.900646209716797,61.282116174697876 29.900646209716797,61.282116174697876 30.20104467868805,60.73519587516785 30.20104467868805,60.73519587516785 30.5017352104187,60.18893122673035 30.5017352104187,60.18893122673035 30.802568793296814,59.64338183403015 30.802568793296814,59.64338183403015 31.068462133407593,59.137022495269775 31.068462133407593,59.137022495269775 31.33716583251953,58.60537886619568 31.33716583251953,58.60537886619568 31.620928645133972,58.07005763053894 31.620928645133972,58.07005763053894 31.93141520023346,57.552242279052734 31.93141520023346,57.552242279052734 32.280945777893066,57.07368850708008 32.280945777893066,57.07368850708008 32.681336998939514,56.65579438209534 32.681336998939514,56.65579438209534 33.29136073589325,56.229472160339355 33.29136073589325,56.229472160339355 33.982497453689575,55.91941475868225 33.982497453689575,55.91941475868225 34.72608029842377,55.702000856399536 34.72608029842377,55.702000856399536 35.49336493015289,55.553245544433594 35.49336493015289,55.553245544433594 36.25596463680267,55.449509620666504 36.25596463680267,55.449509620666504 36.985212564468384,55.3671658039093 36.985212564468384,55.3671658039093 38.74273896217346,55.18908500671387 38.74273896217346,55.18908500671387 40.50552546977997,55.05279302597046 40.50552546977997,55.05279302597046 42.27169454097748,54.94962930679321 42.27169454097748,54.94962930679321 44.0389484167099,54.87074851989746 44.0389484167099,54.87074851989746 45.80526351928711,54.807716608047485 45.80526351928711,54.807716608047485 47.56855368614197,54.751670360565186 47.56855368614197,54.751670360565186 48.184555768966675,54.73372936248779 48.184555768966675,54.73372936248779 48.801636695861816,54.71917986869812 48.801636695861816,54.71917986869812 49.41994547843933,54.70815896987915 49.41994547843933,54.70815896987915 50.03904700279236,54.70023155212402 50.03904700279236,54.70023155212402 50.65908432006836,54.695624113082886 50.65908432006836,54.695624113082886 51.2799859046936,54.69403862953186 51.2799859046936,54.69403862953186 53.30606698989868,54.712045192718506 53.30606698989868,54.712045192718506 55.33403158187866,54.76759076118469 55.33403158187866,54.76759076118469 57.36061930656433,54.86260652542114 57.36061930656433,54.86260652542114 59.38217043876648,54.998332262039185 59.38217043876648,54.998332262039185 61.39521598815918,55.17669916152954 61.39521598815918,55.17669916152954 63.39630484580994,55.399441719055176 63.39630484580994,55.399441719055176 64.09897208213806,55.48833608627319 64.09897208213806,55.48833608627319 64.83080983161926,55.59985041618347 64.83080983161926,55.59985041618347 65.56438207626343,55.75703978538513 65.56438207626343,55.75703978538513 66.27165675163269,55.982738733291626 66.27165675163269,55.982738733291626 66.92526340484619,56.30006790161133 66.92526340484619,56.30006790161133 67.497318983078,56.73186779022217 67.497318983078,56.73186779022217 67.70342588424683,56.949639320373535 67.70342588424683,56.949639320373535 67.88719296455383,57.1851372718811 67.88719296455383,57.1851372718811 68.0537462234497,57.43381381034851 68.0537462234497,57.43381381034851 68.20769309997559,57.6907753944397 68.20769309997559,57.6907753944397 68.35400462150574,57.95177221298218 68.35400462150574,57.95177221298218 68.49779486656189,58.21182727813721 68.49779486656189,58.21182727813721 68.86655688285828,58.87271165847778 68.86655688285828,58.87271165847778 69.2331612110138,59.534674882888794 69.2331612110138,59.534674882888794 69.59882974624634,60.19750237464905 69.59882974624634,60.19750237464905 69.96370553970337,60.86083650588989 69.96370553970337,60.86083650588989 70.32880187034607,61.52445077896118 70.32880187034607,61.52445077896118 70.6946849822998,62.18836307525635 70.6946849822998,62.18836307525635 70.80634236335754,62.39633560180664 70.80634236335754,62.39633560180664 70.89415788650513,62.55583167076111 70.89415788650513,62.55583167076111 70.96698880195618,62.67159581184387 70.96698880195618,62.67159581184387 71.03384137153625,62.748247385025024 71.03384137153625,62.748247385025024 71.10372185707092,62.790751457214355 71.10372185707092,62.790751457214355 71.185702085495,62.803858518600464 71.185702085495,62.803858518600464 71.24916315078735,62.799179553985596 71.24916315078735,62.799179553985596 71.32372260093689,62.78585195541382 71.32372260093689,62.78585195541382 71.41132354736328,62.765246629714966 71.41132354736328,62.765246629714966 71.51405215263367,62.73794174194336 71.51405215263367,62.73794174194336 71.63406610488892,62.70516514778137 71.63406610488892,62.70516514778137 71.77353501319885,62.66785264015198 71.77353501319885,62.66785264015198 71.90226912498474,62.63788342475891 71.90226912498474,62.63788342475891 72.03071117401123,62.61475682258606 72.03071117401123,62.61475682258606 72.15937376022339,62.59782910346985 72.15937376022339,62.59782910346985 72.28860855102539,62.58637309074402 72.28860855102539,62.58637309074402 72.41871356964111,62.579965591430664 72.41871356964111,62.579965591430664 72.55039811134338,62.57794499397278 72.55039811134338,62.57794499397278 73.73067736625671,62.57794499397278 73.73067736625671,62.57794499397278 74.2497205734253,62.58644461631775 74.2497205734253,62.58644461631775 74.75442290306091,62.6234769821167 74.75442290306091,62.6234769821167 75.24291276931763,62.706172466278076 75.24291276931763,62.706172466278076 75.71282386779785,62.85111904144287 75.71282386779785,62.85111904144287 76.16227269172668,63.07559013366699 76.16227269172668,63.07559013366699 76.58917307853699,63.39630484580994 76.58917307853699,63.39630484580994 77.36762166023254,64.47731852531433 77.36762166023254,64.47731852531433 77.6171624660492,65.70154428482056 77.6171624660492,65.70154428482056 77.39485502243042,66.91755652427673 77.39485502243042,66.91755652427673 76.75666213035583,67.97363758087158 76.75666213035583,67.97363758087158 75.75928568840027,68.71844530105591 75.75928568840027,68.71844530105591 74.45913553237915,69.00033354759216 74.45913553237915,69.00033354759216 74.40611720085144,69.00033354759216 74.40611720085144,69.00033354759216 74.72452521324158,69.32948231697083 74.72452521324158,69.32948231697083 75.23772716522217,69.6613609790802 75.23772716522217,69.6613609790802 75.83248019218445,69.99446749687195 75.83248019218445,69.99446749687195 76.3953149318695,70.32714486122131 76.3953149318695,70.32714486122131 76.8128514289856,70.6578016281128 76.8128514289856,70.6578016281128 76.97184085845947,70.98514437675476 76.97184085845947,70.98514437675476 76.96341276168823,71.36666178703308 76.96341276168823,71.36666178703308 76.95433497428894,71.74867987632751 76.95433497428894,71.74867987632751 76.94533467292786,72.13113307952881 76.94533467292786,72.13113307952881 76.9361138343811,72.5135862827301 76.9361138343811,72.5135862827301 76.92717909812927,72.89618253707886 76.92717909812927,72.89618253707886 76.91882252693176,73.27885627746582 76.91882252693176,73.27885627746582 76.94202065467834,73.67679476737976 76.94202065467834,73.67679476737976 77.01672315597534,74.0475058555603 77.01672315597534,74.0475058555603 77.1190881729126,74.40467476844788 77.1190881729126,74.40467476844788 77.22498774528503,74.76155161857605 77.22498774528503,74.76155161857605 77.310711145401,75.13169050216675 77.310711145401,75.13169050216675" stroke="white" stroke-width="0.1" /><polygon points="60.6161892414093,72.17695116996765 60.6161892414093,72.17695116996765 57.1053147315979,72.17695116996765 57.1053147315979,72.17695116996765 43.36841106414795,72.17695116996765 43.36841106414795,72.17695116996765 40.016597509384155,72.17695116996765 40.016597509384155,72.17695116996765 39.163950085639954,72.30662107467651 39.163950085639954,72.30662107467651 38.516536355018616,72.66227602958679 38.516536355018616,72.66227602958679 38.03092539310455,73.19356203079224 38.03092539310455,73.19356203079224 37.663671374320984,73.85004758834839 37.663671374320984,73.85004758834839 37.37184405326843,74.5814561843872 37.37184405326843,74.5814561843872 37.112000584602356,75.33742785453796 37.112000584602356,75.33742785453796 37.00883984565735,75.97043514251709 37.00883984565735,75.97043514251709 37.16653287410736,76.4069139957428 37.16653287410736,76.4069139957428 37.51772344112396,76.6834020614624 37.51772344112396,76.6834020614624 37.994834780693054,76.83583498001099 37.994834780693054,76.83583498001099 38.530585169792175,76.90066695213318 38.530585169792175,76.90066695213318 39.057621359825134,76.91420912742615 39.057621359825134,76.91420912742615 43.12175214290619,76.91420912742615 43.12175214290619,76.91420912742615 62.27595806121826,76.91420912742615 62.27595806121826,76.91420912742615 62.9458487033844,76.77993178367615 62.9458487033844,76.77993178367615 63.291919231414795,76.42471194267273 63.291919231414795,76.42471194267273 63.39111924171448,75.91978907585144 63.39111924171448,75.91978907585144 63.319945335388184,75.33569931983948 63.319945335388184,75.33569931983948 63.15547823905945,74.74368810653687 63.15547823905945,74.74368810653687 62.97444701194763,74.21478033065796 62.97444701194763,74.21478033065796 62.759482860565186,73.68911504745483 62.759482860565186,73.68911504745483 62.48018741607666,73.20688962936401 62.48018741607666,73.20688962936401 62.131595611572266,72.7912962436676 62.131595611572266,72.7912962436676 61.708152294158936,72.46553897857666 61.708152294158936,72.46553897857666 61.20467185974121,72.25302457809448 61.20467185974121,72.25302457809448" stroke="white" stroke-width="0.1" /><polygon points="30.247005820274353,67.42124557495117 30.247005820274353,67.42124557495117 33.40071439743042,66.76029562950134 33.40071439743042,66.76029562950134 36.573296785354614,66.24550819396973 36.573296785354614,66.24550819396973 39.761582016944885,65.8652126789093 39.761582016944885,65.8652126789093 42.96182692050934,65.607750415802 42.96182692050934,65.607750415802 46.170786023139954,65.4617965221405 46.170786023139954,65.4617965221405 49.385079741477966,65.41569232940674 49.385079741477966,65.41569232940674 51.005733013153076,65.42685627937317 51.005733013153076,65.42685627937317 52.62631177902222,65.4592752456665 52.62631177902222,65.4592752456665 54.246824979782104,65.51107168197632 54.246824979782104,65.51107168197632 55.86639642715454,65.58030247688293 55.86639642715454,65.58030247688293 57.48481750488281,65.66523313522339 57.48481750488281,65.66523313522339 59.10165309906006,65.76378345489502 59.10165309906006,65.76378345489502 60.91126203536987,65.91311693191528 60.91126203536987,65.91311693191528 62.7140998840332,66.11713171005249 62.7140998840332,66.11713171005249 64.51002359390259,66.37294292449951 64.51002359390259,66.37294292449951 66.29831194877625,66.67752265930176 66.29831194877625,66.67752265930176 68.07867288589478,67.02791452407837 68.07867288589478,67.02791452407837 69.8509693145752,67.42124557495117 69.8509693145752,67.42124557495117 69.25988793373108,66.34348034858704 69.25988793373108,66.34348034858704 68.66931915283203,65.26599526405334 68.66931915283203,65.26599526405334 68.07881593704224,64.18901681900024 68.07881593704224,64.18901681900024 67.48781204223633,63.112473487854004 67.48781204223633,63.112473487854004 66.89615845680237,62.03679442405701 66.89615845680237,62.03679442405701 66.30321145057678,60.961973667144775 66.30321145057678,60.961973667144775 66.15869998931885,60.66287159919739 66.15869998931885,60.66287159919739 65.99531769752502,60.294175148010254 65.99531769752502,60.294175148010254 65.80960154533386,59.90127921104431 65.80960154533386,59.90127921104431 65.59838056564331,59.529703855514526 65.59838056564331,59.529703855514526 65.3582751750946,59.22483801841736 65.3582751750946,59.22483801841736 65.08604288101196,59.03249382972717 65.08604288101196,59.03249382972717 64.66187834739685,58.88546109199524 64.66187834739685,58.88546109199524 64.2159640789032,58.77920389175415 64.2159640789032,58.77920389175415 63.75707387924194,58.70370864868164 63.75707387924194,58.70370864868164 63.29343318939209,58.648669719696045 63.29343318939209,58.648669719696045 62.83382773399353,58.604007959365845 62.83382773399353,58.604007959365845 62.386614084243774,58.55991840362549 62.386614084243774,58.55991840362549 60.43667197227478,58.37434530258179 60.43667197227478,58.37434530258179 58.48528742790222,58.22674036026001 58.48528742790222,58.22674036026001 56.5327525138855,58.115583658218384 56.5327525138855,58.115583658218384 54.57863211631775,58.03835988044739 54.57863211631775,58.03835988044739 52.623361349105835,57.99354910850525 52.623361349105835,57.99354910850525 50.66679120063782,57.978999614715576 50.66679120063782,57.978999614715576 49.5853453874588,57.98354148864746 49.5853453874588,57.98354148864746 48.50375950336456,57.9967200756073 48.50375950336456,57.9967200756073 47.422170639038086,58.01876783370972 47.422170639038086,58.01876783370972 46.34043872356415,58.048659563064575 46.34043872356415,58.048659563064575 45.2589213848114,58.08626413345337 45.2589213848114,58.08626413345337 44.177550077438354,58.13114643096924 44.177550077438354,58.13114643096924 43.134286999702454,58.17970037460327 43.134286999702454,58.17970037460327 42.09087789058685,58.23271870613098 42.09087789058685,58.23271870613098 41.04790389537811,58.2930862903595 41.04790389537811,58.2930862903595 40.005359053611755,58.362895250320435 40.005359053611755,58.362895250320435 38.96382451057434,58.44487547874451 38.96382451057434,58.44487547874451 37.92344331741333,58.54147672653198 37.92344331741333,58.54147672653198 37.49092221260071,58.56611728668213 37.49092221260071,58.56611728668213 36.90063953399658,58.595722913742065 36.90063953399658,58.595722913742065 36.24206185340881,58.6541473865509 36.24206185340881,58.6541473865509 35.60437560081482,58.76451134681702 35.60437560081482,58.76451134681702 35.07698178291321,58.95037055015564 35.07698178291321,58.95037055015564 34.74913239479065,59.23535227775574 34.74913239479065,59.23535227775574 33.9805543422699,60.589390993118286 33.9805543422699,60.589390993118286 33.22421908378601,61.95070743560791 33.22421908378601,61.95070743560791 32.476457953453064,63.317060470581055 32.476457953453064,63.317060470581055 31.733307242393494,64.68579769134521 31.733307242393494,64.68579769134521 30.991452932357788,66.05467796325684 30.991452932357788,66.05467796325684" stroke="white" stroke-width="0.1" /><polygon points="30.671170353889465,79.02811169624329 30.671170353889465,79.02811169624329 32.852354645729065,78.42680811882019 32.852354645729065,78.42680811882019 34.16115343570709,76.92365050315857 34.16115343570709,76.92365050315857 34.59756374359131,74.96974468231201 34.59756374359131,74.96974468231201 34.16129648685455,73.01562428474426 34.16129648685455,73.01562428474426 32.852500677108765,71.5126097202301 32.852500677108765,71.5126097202301 30.671170353889465,70.91137766838074 30.671170353889465,70.91137766838074 28.488686680793762,71.51253819465637 28.488686680793762,71.51253819465637 27.179312705993652,73.01555275917053 27.179312705993652,73.01555275917053 26.743048429489136,74.96974468231201 26.743048429489136,74.96974468231201 27.179458737373352,76.92379355430603 27.179458737373352,76.92379355430603 28.488904237747192,78.42687964439392 28.488904237747192,78.42687964439392" stroke="white" stroke-width="0.1" /><polygon points="69.42911148071289,70.91137766838074 69.42911148071289,70.91137766838074 67.24677085876465,71.51253819465637 67.24677085876465,71.51253819465637 65.93732237815857,73.01555275917053 65.93732237815857,73.01555275917053 65.50098657608032,74.96974468231201 65.50098657608032,74.96974468231201 65.9373939037323,76.92379355430603 65.9373939037323,76.92379355430603 67.24684238433838,78.42687964439392 67.24684238433838,78.42687964439392 69.42911148071289,79.02811169624329 69.42911148071289,79.02811169624329 71.60935997962952,78.42680811882019 71.60935997962952,78.42680811882019 72.91750907897949,76.92365050315857 72.91750907897949,76.92365050315857 73.35377335548401,74.96974468231201 73.35377335548401,74.96974468231201 72.91779518127441,73.01562428474426 72.91779518127441,73.01562428474426 71.60950303077698,71.5126097202301 71.60950303077698,71.5126097202301" stroke="white" stroke-width="0.1" /></svg>