<?xml version="1.0" encoding="utf-8" ?>
<svg baseProfile="full" height="99.9743640422821" version="1.1" width="75.31043887138367" xmlns="http://www.w3.org/2000/svg" xmlns:ev="http://www.w3.org/2001/xml-events" xmlns:xlink="http://www.w3.org/1999/xlink"><defs><clipPath /></defs><polygon points="6.328006088733673,55.97958564758301 6.328006088733673,55.97958564758301 20.906056463718414,55.97958564758301 20.906056463718414,55.97958564758301 20.906056463718414,43.78322660923004 20.906056463718414,43.78322660923004 23.397716879844666,45.359936356544495 23.397716879844666,45.359936356544495 26.036572456359863,46.681568026542664 26.036572456359863,46.681568026542664 28.80195677280426,47.73403704166412 28.80195677280426,47.73403704166412 31.67310357093811,48.503223061561584 31.67310357093811,48.503223061561584 34.62933599948883,48.975083231925964 34.62933599948883,48.975083231925964 37.64987885951996,49.135491251945496 37.64987885951996,49.135491251945496 40.68613648414612,48.97239804267883 40.68613648414612,48.97239804267883 43.65108609199524,48.493778705596924 43.65108609199524,48.493778705596924 46.525198221206665,47.71563410758972 46.525198221206665,47.71563410758972 49.28884506225586,46.65396511554718 49.28884506225586,46.65396511554718 51.922571659088135,45.324742794036865 51.922571659088135,45.324742794036865 54.40678596496582,43.74396800994873 54.40678596496582,43.74396800994873 54.40678596496582,55.97958564758301 54.40678596496582,55.97958564758301 69.0273642539978,55.97958564758301 69.0273642539978,55.97958564758301 71.5516746044159,56.509578227996826 71.5516746044159,56.509578227996826 73.51639866828918,57.916343212127686 73.51639866828918,57.916343212127686 74.80738759040833,59.925079345703125 74.80738759040833,59.925079345703125 75.31043887138367,62.26097345352173 75.31043887138367,62.26097345352173 74.91146326065063,64.6492063999176 74.91146326065063,64.6492063999176 73.49631190299988,66.81497693061829 73.49631190299988,66.81497693061829 73.00394177436829,67.30594038963318 73.00394177436829,67.30594038963318 72.51167297363281,67.79728531837463 72.51167297363281,67.79728531837463 72.01961278915405,68.28880906105042 72.01961278915405,68.28880906105042 71.52780294418335,68.78033876419067 71.52780294418335,68.78033876419067 71.03635668754578,69.27167177200317 71.03635668754578,69.27167177200317 70.54536938667297,69.76264715194702 70.54536938667297,69.76264715194702 55.8560848236084,84.4519317150116 55.8560848236084,84.4519317150116 43.13627481460571,97.16846942901611 43.13627481460571,97.16846942901611 42.07736551761627,98.13822507858276 42.07736551761627,98.13822507858276 40.945279598236084,98.95920753479004 40.945279598236084,98.95920753479004 39.735084772109985,99.57592487335205 39.735084772109985,99.57592487335205 38.44170868396759,99.93280172348022 38.44170868396759,99.93280172348022 37.06020414829254,99.9743640422821 37.06020414829254,99.9743640422821 35.5855256319046,99.64503645896912 35.5855256319046,99.64503645896912 34.753209352493286,99.27259087562561 34.753209352493286,99.27259087562561 33.9925080537796,98.78653287887573 33.9925080537796,98.78653287887573 33.287256956100464,98.2161819934845 33.287256956100464,98.2161819934845 32.62125253677368,97.59075045585632 32.62125253677368,97.59075045585632 31.978341937065125,96.9395101070404 31.978341937065125,96.9395101070404 31.342318654060364,96.2916910648346 31.342318654060364,96.2916910648346 10.770778357982635,75.71687698364258 10.770778357982635,75.71687698364258 9.426143765449524,74.37225580215454 9.426143765449524,74.37225580215454 8.081431686878204,73.02764654159546 8.081431686878204,73.02764654159546 6.736541539430618,71.68304920196533 6.736541539430618,71.68304920196533 5.3913697600364685,70.33843994140625 5.3913697600364685,70.33843994140625 4.045840725302696,68.99383068084717 4.045840725302696,68.99383068084717 2.699851058423519,67.64922142028809 2.699851058423519,67.64922142028809 2.2202104330062866,67.16428995132446 2.2202104330062866,67.16428995132446 1.7604291439056396,66.67271256446838 1.7604291439056396,66.67271256446838 1.331523060798645,66.16188883781433 1.331523060798645,66.16188883781433 0.9446104988455772,65.61915874481201 0.9446104988455772,65.61915874481201 0.6107456982135773,65.03190398216248 0.6107456982135773,65.03190398216248 0.3410596400499344,64.38748240470886 0.3410596400499344,64.38748240470886 0.00026836978577193804,62.35495209693909 0.00026836978577193804,62.35495209693909 0.3192322328686714,60.40321588516235 0.3192322328686714,60.40321588516235 1.2047503143548965,58.66103172302246 1.2047503143548965,58.66103172302246 2.563532069325447,57.25719332695007 2.563532069325447,57.25719332695007 4.3023765087127686,56.32045269012451 4.3023765087127686,56.32045269012451" stroke="white" stroke-width="0.1" /><polygon points="55.83318471908569,11.470073461532593 55.83318471908569,11.470073461532593 57.26284980773926,15.60649424791336 57.26284980773926,15.60649424791336 57.750314474105835,19.886328279972076 57.750314474105835,19.886328279972076 57.32991695404053,24.148167669773102 57.32991695404053,24.148167669773102 56.03599548339844,28.230610489845276 56.03599548339844,28.230610489845276 53.902965784072876,31.97227120399475 53.902965784072876,31.97227120399475 50.96510648727417,35.211750864982605 50.96510648727417,35.211750864982605 49.143004417419434,36.635977029800415 49.143004417419434,36.635977029800415 47.189733386039734,37.82135248184204 47.189733386039734,37.82135248184204 45.12906074523926,38.76711428165436 45.12906074523926,38.76711428165436 42.98465847969055,39.47240114212036 42.98465847969055,39.47240114212036 40.7803475856781,39.93641436100006 40.7803475856781,39.93641436100006 38.539740443229675,40.15834331512451 38.539740443229675,40.15834331512451 38.384827971458435,40.166035294532776 38.384827971458435,40.166035294532776 38.230642676353455,40.1751846075058 38.230642676353455,40.1751846075058 38.07681500911713,40.184515714645386 38.07681500911713,40.184515714645386 37.92297542095184,40.19274413585663 37.92297542095184,40.19274413585663 37.76879012584686,40.19862413406372 37.76879012584686,40.19862413406372 37.61388957500458,40.20087122917175 37.61388957500458,40.20087122917175 35.73077917098999,40.114036202430725 35.73077917098999,40.114036202430725 33.85983109474182,39.85293805599213 33.85983109474182,39.85293805599213 32.01543986797333,39.41672146320343 32.01543986797333,39.41672146320343 30.21191954612732,38.8045072555542 30.21191954612732,38.8045072555542 28.463655710220337,38.01547288894653 28.463655710220337,38.01547288894653 26.785042881965637,37.04873025417328 26.785042881965637,37.04873025417328 23.397116363048553,34.29221510887146 23.397116363048553,34.29221510887146 20.727449655532837,30.922013521194458 20.727449655532837,30.922013521194458 18.833526968955994,27.09052264690399 18.833526968955994,27.09052264690399 17.77273714542389,22.95013964176178 17.77273714542389,22.95013964176178 17.60256588459015,18.653272092342377 17.60256588459015,18.653272092342377 18.380415439605713,14.352314174175262 18.380415439605713,14.352314174175262 19.748182594776154,10.96709743142128 19.748182594776154,10.96709743142128 21.683357656002045,7.934851199388504 21.683357656002045,7.934851199388504 24.10890907049179,5.311370268464088 24.10890907049179,5.311370268464088 26.9477516412735,3.1524501740932465 26.9477516412735,3.1524501740932465 30.122873187065125,1.513873878866434 30.122873187065125,1.513873878866434 33.55716168880463,0.4514746367931366 33.55716168880463,0.4514746367931366 34.22890305519104,0.3192066913470626 34.22890305519104,0.3192066913470626 34.90588665008545,0.20792267750948668 34.90588665008545,0.20792267750948668 35.58797836303711,0.11900282697752118 35.58797836303711,0.11900282697752118 36.27495467662811,0.05380174843594432 36.27495467662811,0.05380174843594432 36.966684460639954,0.013674079673364758 36.966684460639954,0.013674079673364758 37.662965059280396,0.0 37.662965059280396,0.0 41.44871532917023,0.36799886729568243 41.44871532917023,0.36799886729568243 45.05570828914642,1.4324556104838848 45.05570828914642,1.4324556104838848 48.39080274105072,3.134150058031082 48.39080274105072,3.134150058031082 51.36080980300903,5.413810908794403 51.36080980300903,5.413810908794403 53.87267470359802,8.212205022573471 53.87267470359802,8.212205022573471" stroke="white" stroke-width="0.1" /><polygon points="48.11231195926666,10.877921432256699 48.11231195926666,10.877921432256699 47.795891761779785,11.165434867143631 47.795891761779785,11.165434867143631 47.48368859291077,11.637165397405624 47.48368859291077,11.637165397405624 47.2383975982666,12.202492356300354 47.2383975982666,12.202492356300354 47.122588753700256,12.770810723304749 47.122588753700256,12.770810723304749 47.198933362960815,13.251537084579468 47.198933362960815,13.251537084579468 47.529974579811096,13.554054498672485 47.529974579811096,13.554054498672485 47.55755364894867,13.563293218612671 47.55755364894867,13.563293218612671 47.58472144603729,13.571254909038544 47.58472144603729,13.571254909038544 47.61176407337189,13.577772676944733 47.61176407337189,13.577772676944733 47.638753056526184,13.582642376422882 47.638753056526184,13.582642376422882 47.666001319885254,13.585709035396576 47.666001319885254,13.585709035396576 47.69355356693268,13.586769998073578 47.69355356693268,13.586769998073578 47.94661104679108,13.524891436100006 47.94661104679108,13.524891436100006 48.188987374305725,13.362246751785278 48.188987374305725,13.362246751785278 48.41125011444092,13.133250176906586 48.41125011444092,13.133250176906586 48.603761196136475,12.872356176376343 48.603761196136475,12.872356176376343 48.75701367855072,12.614019215106964 48.75701367855072,12.614019215106964 48.86149764060974,12.392652034759521 48.86149764060974,12.392652034759521 48.90096187591553,12.13027536869049 48.90096187591553,12.13027536869049 48.851171135902405,11.818186938762665 48.851171135902405,11.818186938762665 48.72981905937195,11.496654897928238 48.72981905937195,11.496654897928238 48.55443239212036,11.205920577049255 48.55443239212036,11.205920577049255 48.34272563457489,10.986266285181046 48.34272563457489,10.986266285181046" stroke="white" stroke-width="0.1" /><polygon points="46.32931351661682,12.53005713224411 46.32931351661682,12.53005713224411 46.5195506811142,12.451539933681488 46.5195506811142,12.451539933681488 46.66362702846527,12.248703092336655 46.66362702846527,12.248703092336655 46.74970805644989,11.970621347427368 46.74970805644989,11.970621347427368 46.76598906517029,11.666366457939148 46.76598906517029,11.666366457939148 46.70068621635437,11.385012418031693 46.70068621635437,11.385012418031693 46.54196500778198,11.1756332218647 46.54196500778198,11.1756332218647 46.41483426094055,11.354635655879974 46.41483426094055,11.354635655879974 46.24570906162262,11.573855578899384 46.24570906162262,11.573855578899384 46.083128452301025,11.812973022460938 46.083128452301025,11.812973022460938 45.97562849521637,12.05168142914772 45.97562849521637,12.05168142914772 45.971691608428955,12.269661575555801 45.971691608428955,12.269661575555801 46.11993432044983,12.446632236242294 46.11993432044983,12.446632236242294 46.15589678287506,12.473265081644058 46.15589678287506,12.473265081644058 46.19165360927582,12.49442771077156 46.19165360927582,12.49442771077156 46.22707664966583,12.510427832603455 46.22707664966583,12.510427832603455 46.26193940639496,12.5215083360672 46.26193940639496,12.5215083360672 46.29608690738678,12.527962028980255 46.29608690738678,12.527962028980255" stroke="white" stroke-width="0.1" /><polygon points="32.26489722728729,23.44069480895996 32.26489722728729,23.44069480895996 32.345905900001526,23.394304513931274 32.345905900001526,23.394304513931274 32.35673010349274,23.273487389087677 32.35673010349274,23.273487389087677 32.31724202632904,23.105768859386444 32.31724202632904,23.105768859386444 32.24719762802124,22.91870266199112 32.24719762802124,22.91870266199112 32.16643035411835,22.739802300930023 32.16643035411835,22.739802300930023 32.09477663040161,22.596633434295654 32.09477663040161,22.596633434295654 31.968042254447937,22.349758446216583 31.968042254447937,22.349758446216583 31.827837228775024,22.073055803775787 31.827837228775024,22.073055803775787 31.671109795570374,21.790194511413574 31.671109795570374,21.790194511413574 31.494739651679993,21.524764597415924 31.494739651679993,21.524764597415924 31.295660138130188,21.30042016506195 31.295660138130188,21.30042016506195 31.070780754089355,21.140791475772858 31.070780754089355,21.140791475772858 30.98987340927124,21.104638278484344 30.98987340927124,21.104638278484344 30.907687544822693,21.07730209827423 30.907687544822693,21.07730209827423 30.82459568977356,21.057775616645813 30.82459568977356,21.057775616645813 30.7409405708313,21.045058965682983 30.7409405708313,21.045058965682983 30.65713346004486,21.038171648979187 30.65713346004486,21.038171648979187 30.57350218296051,21.03610187768936 30.57350218296051,21.03610187768936 30.519777536392212,21.036624908447266 30.519777536392212,21.036624908447266 30.466511845588684,21.03809416294098 30.466511845588684,21.03809416294098 30.413606762886047,21.04039490222931 30.413606762886047,21.04039490222931 30.36096692085266,21.043360233306885 30.36096692085266,21.043360233306885 30.308520793914795,21.04688733816147 30.308520793914795,21.04688733816147 30.256161093711853,21.050822734832764 30.256161093711853,21.050822734832764 30.2024245262146,21.05613946914673 30.2024245262146,21.05613946914673 30.149045586586,21.060587465763092 30.149045586586,21.060587465763092 30.09585738182068,21.064114570617676 30.09585738182068,21.064114570617676 30.04264235496521,21.06669545173645 30.04264235496521,21.06669545173645 29.989275336265564,21.068279445171356 29.989275336265564,21.068279445171356 29.935550689697266,21.068817377090454 29.935550689697266,21.068817377090454 29.84098196029663,21.066133677959442 29.84098196029663,21.066133677959442 29.7471284866333,21.057187020778656 29.7471284866333,21.057187020778656 29.65419590473175,21.040599048137665 29.65419590473175,21.040599048137665 29.562336206436157,21.015015244483948 29.562336206436157,21.015015244483948 29.47176992893219,20.97906619310379 29.47176992893219,20.97906619310379 29.382658004760742,20.931410789489746 29.382658004760742,20.931410789489746 29.344025254249573,20.90461254119873 29.344025254249573,20.90461254119873 29.309096932411194,20.874030888080597 29.309096932411194,20.874030888080597 29.276740550994873,20.840829610824585 29.276740550994873,20.840829610824585 29.245710372924805,20.806121826171875 29.245710372924805,20.806121826171875 29.21491265296936,20.771053433418274 29.21491265296936,20.771053433418274 29.183092713356018,20.736753940582275 29.183092713356018,20.736753940582275 29.019898176193237,20.51640897989273 29.019898176193237,20.51640897989273 28.91566753387451,20.268486440181732 28.91566753387451,20.268486440181732 28.874337673187256,20.006583631038666 28.874337673187256,20.006583631038666 28.89978289604187,19.744259119033813 28.89978289604187,19.744259119033813 28.995949029922485,19.495108723640442 28.995949029922485,19.495108723640442 29.166734218597412,19.272732734680176 29.166734218597412,19.272732734680176 29.18458580970764,19.257959723472595 29.18458580970764,19.257959723472595 29.204779863357544,19.245538115501404 29.204779863357544,19.245538115501404 29.22644019126892,19.234292209148407 29.22644019126892,19.234292209148407 29.248636960983276,19.22304630279541 29.248636960983276,19.22304630279541 29.270464181900024,19.21062469482422 29.270464181900024,19.21062469482422 29.291054606437683,19.195851683616638 29.291054606437683,19.195851683616638 29.44273352622986,19.08923238515854 29.44273352622986,19.08923238515854 29.602578282356262,19.00046467781067 29.602578282356262,19.00046467781067 29.769518971443176,18.930241465568542 29.769518971443176,18.930241465568542 29.942449927330017,18.879225850105286 29.942449927330017,18.879225850105286 30.12028932571411,18.848133087158203 30.12028932571411,18.848133087158203 30.301964282989502,18.837615847587585 30.301964282989502,18.837615847587585 30.666077136993408,18.87023001909256 30.666077136993408,18.87023001909256 31.024006009101868,18.964363634586334 31.024006009101868,18.964363634586334 31.363582611083984,19.114471971988678 31.363582611083984,19.114471971988678 31.67261779308319,19.31500732898712 31.67261779308319,19.31500732898712 31.938955187797546,19.56046372652054 31.938955187797546,19.56046372652054 32.15039372444153,19.845254719257355 32.15039372444153,19.845254719257355 32.20682740211487,19.93587464094162 32.20682740211487,19.93587464094162 32.261496782302856,20.008589327335358 32.261496782302856,20.008589327335358 32.31437802314758,20.064041018486023 32.31437802314758,20.064041018486023 32.365331053733826,20.1028510928154 32.365331053733826,20.1028510928154 32.41430222988129,20.12568861246109 32.41430222988129,20.12568861246109 32.46119022369385,20.13315260410309 32.46119022369385,20.13315260410309 32.519182562828064,20.11968195438385 32.519182562828064,20.11968195438385 32.571810483932495,20.08044868707657 32.571810483932495,20.08044868707657 32.6186329126358,20.017215609550476 32.6186329126358,20.017215609550476 32.659170031547546,19.931772351264954 32.659170031547546,19.931772351264954 32.69299864768982,19.82586830854416 32.69299864768982,19.82586830854416 32.71964490413666,19.701306521892548 32.71964490413666,19.701306521892548 32.76427090167999,19.49751228094101 32.76427090167999,19.49751228094101 32.819247245788574,19.295570254325867 32.819247245788574,19.295570254325867 32.88404047489166,19.096273183822632 32.88404047489166,19.096273183822632 32.95808434486389,18.900376558303833 32.95808434486389,18.900376558303833 33.04086923599243,18.708670139312744 33.04086923599243,18.708670139312744 33.131858706474304,18.521910905838013 33.131858706474304,18.521910905838013 33.41220319271088,18.077310919761658 33.41220319271088,18.077310919761658 33.73769819736481,17.712686955928802 33.73769819736481,17.712686955928802 34.10064876079559,17.404673993587494 34.10064876079559,17.404673993587494 34.49330031871796,17.129914462566376 34.49330031871796,17.129914462566376 34.907954931259155,16.865073144435883 34.907954931259155,16.865073144435883 35.3368878364563,16.58678650856018 35.3368878364563,16.58678650856018 35.67148149013519,16.310927271842957 35.67148149013519,16.310927271842957 35.888081789016724,16.015106439590454 35.888081789016724,16.015106439590454 35.98383665084839,15.704488754272461 35.98383665084839,15.704488754272461 35.95581352710724,15.384182333946228 35.95581352710724,15.384182333946228 35.80111563205719,15.059340000152588 35.80111563205719,15.059340000152588 35.51682233810425,14.735084772109985 35.51682233810425,14.735084772109985 35.25964915752411,14.430779218673706 35.25964915752411,14.430779218673706 35.2085679769516,14.19709324836731 35.2085679769516,14.19709324836731 35.32052934169769,14.027202129364014 35.32052934169769,14.027202129364014 35.55242717266083,13.914282619953156 35.55242717266083,13.914282619953156 35.86122989654541,13.851535320281982 35.86122989654541,13.851535320281982 36.20384931564331,13.832135498523712 36.20384931564331,13.832135498523712 36.2624317407608,13.832442462444305 36.2624317407608,13.832442462444305 36.3202840089798,13.833528757095337 36.3202840089798,13.833528757095337 36.37724220752716,13.835611939430237 36.37724220752716,13.835611939430237 36.43307685852051,13.838909566402435 36.43307685852051,13.838909566402435 36.48768365383148,13.843688368797302 36.48768365383148,13.843688368797302 36.54082119464874,13.850130140781403 36.54082119464874,13.850130140781403 36.57163083553314,13.852442800998688 36.57163083553314,13.852442800998688 36.60188019275665,13.85442316532135 36.60188019275665,13.85442316532135 36.63160502910614,13.856059312820435 36.63160502910614,13.856059312820435 36.660754680633545,13.857273757457733 36.660754680633545,13.857273757457733 36.68939471244812,13.858039677143097 36.68939471244812,13.858039677143097 36.71748340129852,13.858309388160706 36.71748340129852,13.858309388160706 37.10088133811951,13.779842853546143 37.10088133811951,13.779842853546143 37.296062707901,13.575191795825958 37.296062707901,13.575191795825958 37.32803761959076,13.290488719940186 37.32803761959076,13.290488719940186 37.22176253795624,12.971831858158112 37.22176253795624,12.971831858158112 37.00230121612549,12.665367126464844 37.00230121612549,12.665367126464844 36.69458329677582,12.417188286781311 36.69458329677582,12.417188286781311 36.471185088157654,12.289789319038391 36.471185088157654,12.289789319038391 36.24976575374603,12.164614349603653 36.24976575374603,12.164614349603653 36.03618144989014,12.032167613506317 36.03618144989014,12.032167613506317 35.8362078666687,11.882954090833664 35.8362078666687,11.882954090833664 35.65569818019867,11.707478016614914 35.65569818019867,11.707478016614914 35.50046682357788,11.496245861053467 35.50046682357788,11.496245861053467 35.382893681526184,11.281498521566391 35.382893681526184,11.281498521566391 35.273027420043945,11.05913519859314 35.273027420043945,11.05913519859314 35.15736162662506,10.841117054224014 35.15736162662506,10.841117054224014 35.022321343421936,10.639455914497375 35.022321343421936,10.639455914497375 34.85439717769623,10.466153174638748 34.85439717769623,10.466153174638748 34.64004695415497,10.333207994699478 34.64004695415497,10.333207994699478 34.619930386543274,10.328146815299988 34.619930386543274,10.328146815299988 34.59896147251129,10.324300080537796 34.59896147251129,10.324300080537796 34.577476978302,10.32155305147171 34.577476978302,10.32155305147171 34.55568850040436,10.319750756025314 34.55568850040436,10.319750756025314 34.53393876552582,10.318779945373535 34.53393876552582,10.318779945373535 34.51245725154877,10.318485647439957 34.51245725154877,10.318485647439957 34.46202874183655,10.320811718702316 34.46202874183655,10.320811718702316 34.41212475299835,10.327201336622238 34.41212475299835,10.327201336622238 34.362781047821045,10.336888581514359 34.362781047821045,10.336888581514359 34.31396484375,10.349015891551971 34.31396484375,10.349015891551971 34.2657208442688,10.362779349088669 34.2657208442688,10.362779349088669 34.218016266822815,10.377373546361923 34.218016266822815,10.377373546361923 34.1711163520813,10.393335670232773 34.1711163520813,10.393335670232773 34.12519693374634,10.408031940460205 34.12519693374634,10.408031940460205 34.080201387405396,10.420721769332886 34.080201387405396,10.420721769332886 34.03601050376892,10.43068990111351 34.03601050376892,10.43068990111351 33.992546796798706,10.437194257974625 33.992546796798706,10.437194257974625 33.94974768161774,10.439532995223999 33.94974768161774,10.439532995223999 33.885350823402405,10.432875156402588 33.885350823402405,10.432875156402588 33.82275700569153,10.410817712545395 33.82275700569153,10.410817712545395 33.761632442474365,10.370217263698578 33.761632442474365,10.370217263698578 33.7015837430954,10.30794233083725 33.7015837430954,10.30794233083725 33.642274141311646,10.220862925052643 33.642274141311646,10.220862925052643 33.5833340883255,10.105834901332855 33.5833340883255,10.105834901332855 33.50372910499573,9.905081242322922 33.50372910499573,9.905081242322922 33.43829810619354,9.722819924354553 33.43829810619354,9.722819924354553 33.372318744659424,9.553555399179459 33.372318744659424,9.553555399179459 33.29106569290161,9.391792118549347 33.29106569290161,9.391792118549347 33.17981958389282,9.232022613286972 33.17981958389282,9.232022613286972 33.02389681339264,9.068751335144043 33.02389681339264,9.068751335144043 32.94757902622223,9.002937376499176 32.94757902622223,9.002937376499176 32.87570774555206,8.950617909431458 32.87570774555206,8.950617909431458 32.80838429927826,8.911103755235672 32.80838429927826,8.911103755235672 32.74567425251007,8.883729577064514 32.74567425251007,8.883729577064514 32.68772065639496,8.867793530225754 32.68772065639496,8.867793530225754 32.6345831155777,8.86264368891716 32.6345831155777,8.86264368891716 32.41129815578461,9.021186083555222 32.41129815578461,9.021186083555222 32.30512738227844,9.425479173660278 32.30512738227844,9.425479173660278 32.283300161361694,9.968429058790207 32.283300161361694,9.968429058790207 32.31298625469208,10.543008893728256 32.31298625469208,10.543008893728256 32.361409068107605,11.042164266109467 32.361409068107605,11.042164266109467 32.39575922489166,11.358840018510818 32.39575922489166,11.358840018510818 32.390815019607544,11.759670078754425 32.390815019607544,11.759670078754425 32.311415672302246,12.075796723365784 32.311415672302246,12.075796723365784 32.16879665851593,12.312498688697815 32.16879665851593,12.312498688697815 31.97408616542816,12.475041300058365 31.97408616542816,12.475041300058365 31.738483905792236,12.568701803684235 31.738483905792236,12.568701803684235 31.473180651664734,12.598760426044464 31.473180651664734,12.598760426044464 31.165987253189087,12.565021216869354 31.165987253189087,12.565021216869354 30.85194230079651,12.468383461236954 30.85194230079651,12.468383461236954 30.544468760490417,12.315770238637924 30.544468760490417,12.315770238637924 30.256879329681396,12.114083766937256 30.256879329681396,12.114083766937256 30.002552270889282,11.87022551894188 30.002552270889282,11.87022551894188 29.79487180709839,11.591120809316635 29.79487180709839,11.591120809316635 29.78435456752777,11.575376242399216 29.78435456752777,11.575376242399216 29.772815108299255,11.560577899217606 29.772815108299255,11.560577899217606 29.760929942131042,11.546341329813004 29.760929942131042,11.546341329813004 29.74928915500641,11.532232910394669 29.74928915500641,11.532232910394669 29.73860502243042,11.51784285902977 29.73860502243042,11.51784285902977 29.729440808296204,11.502788960933685 29.729440808296204,11.502788960933685 29.596152901649475,11.185537278652191 29.596152901649475,11.185537278652191 29.53762114048004,10.899314284324646 29.53762114048004,10.899314284324646 29.545825719833374,10.641347616910934 29.545825719833374,10.641347616910934 29.612624645233154,10.408875346183777 29.612624645233154,10.408875346183777 29.729953408241272,10.199125111103058 29.729953408241272,10.199125111103058 29.889747500419617,10.009323805570602 29.889747500419617,10.009323805570602 30.199497938156128,9.752020984888077 30.199497938156128,9.752020984888077 30.565017461776733,9.52555537223816 30.565017461776733,9.52555537223816 30.960363149642944,9.321274608373642 30.960363149642944,9.321274608373642 31.359505653381348,9.130476415157318 31.359505653381348,9.130476415157318 31.736502051353455,8.94450917840004 31.736502051353455,8.94450917840004 32.06533193588257,8.754682540893555 32.06533193588257,8.754682540893555 32.3405385017395,8.519411087036133 32.3405385017395,8.519411087036133 32.55921006202698,8.218760788440704 32.55921006202698,8.218760788440704 32.69428908824921,7.8813813626766205 32.69428908824921,7.8813813626766205 32.718658447265625,7.535964250564575 32.718658447265625,7.535964250564575 32.60526657104492,7.211172580718994 32.60526657104492,7.211172580718994 32.32705593109131,6.935697793960571 32.32705593109131,6.935697793960571 32.01546669006348,6.792566925287247 32.01546669006348,6.792566925287247 31.63796067237854,6.689780950546265 31.63796067237854,6.689780950546265 31.240490078926086,6.59218430519104 31.240490078926086,6.59218430519104 30.868902802467346,6.4645931124687195 30.868902802467346,6.4645931124687195 30.56911826133728,6.271839886903763 30.56911826133728,6.271839886903763 30.387023091316223,5.978767573833466 30.387023091316223,5.978767573833466 30.385157465934753,5.973400175571442 30.385157465934753,5.973400175571442 30.38291037082672,5.968594923615456 30.38291037082672,5.968594923615456 30.380481481552124,5.964045599102974 30.380481481552124,5.964045599102974 30.378040671348572,5.959495902061462 30.378040671348572,5.959495902061462 30.3757905960083,5.954691022634506 30.3757905960083,5.954691022634506 30.373936891555786,5.949323624372482 30.373936891555786,5.949323624372482 30.271652340888977,5.658231675624847 30.271652340888977,5.658231675624847 30.12602925300598,5.420967191457748 30.12602925300598,5.420967191457748 29.943320155143738,5.237146839499474 29.943320155143738,5.237146839499474 29.7297865152359,5.106348544359207 29.7297865152359,5.106348544359207 29.491743445396423,5.028176307678223 29.491743445396423,5.028176307678223 29.235437512397766,5.002208054065704 29.235437512397766,5.002208054065704 29.084357619285583,5.010540410876274 29.084357619285583,5.010540410876274 28.929725289344788,5.0355371087789536 28.929725289344788,5.0355371087789536 28.77292037010193,5.0772495567798615 28.77292037010193,5.0772495567798615 28.615286946296692,5.135728418827057 28.615286946296692,5.135728418827057 28.458213806152344,5.2110254764556885 28.458213806152344,5.2110254764556885 28.30304503440857,5.303191393613815 28.30304503440857,5.303191393613815 28.271478414535522,5.321631953120232 28.271478414535522,5.321631953120232 28.23905646800995,5.336213484406471 28.23905646800995,5.336213484406471 28.206124901771545,5.347152799367905 28.206124901771545,5.347152799367905 28.172898292541504,5.354692786931992 28.172898292541504,5.354692786931992 28.139683604240417,5.359037593007088 28.139683604240417,5.359037593007088 28.106749057769775,5.360443517565727 28.106749057769775,5.360443517565727 27.988028526306152,5.344699323177338 27.988028526306152,5.344699323177338 27.86901295185089,5.302577838301659 27.86901295185089,5.302577838301659 27.752196788787842,5.241849645972252 27.752196788787842,5.241849645972252 27.63999104499817,5.170207843184471 27.63999104499817,5.170207843184471 27.53489315509796,5.095383524894714 27.53489315509796,5.095383524894714 27.439352869987488,5.025108903646469 27.439352869987488,5.025108903646469 27.352693676948547,4.953224211931229 27.352693676948547,4.953224211931229 27.288004755973816,4.889518395066261 27.288004755973816,4.889518395066261 27.23897099494934,4.836176708340645 27.23897099494934,4.836176708340645 27.19917595386505,4.795371741056442 27.19917595386505,4.795371741056442 27.162331342697144,4.769288748502731 27.162331342697144,4.769288748502731 27.12201178073883,4.76011298596859 27.12201178073883,4.76011298596859 27.09224820137024,4.764292016625404 27.09224820137024,4.764292016625404 27.057310938835144,4.777199402451515 27.057310938835144,4.777199402451515 27.01527774333954,4.799371585249901 27.01527774333954,4.799371585249901 26.964235305786133,4.831358790397644 26.964235305786133,4.831358790397644 26.902320981025696,4.873710125684738 26.902320981025696,4.873710125684738 26.82757079601288,4.9269624054431915 26.82757079601288,4.9269624054431915 26.6841858625412,5.028048530220985 26.6841858625412,5.028048530220985 26.541975140571594,5.131485685706139 26.541975140571594,5.131485685706139 26.401042938232422,5.236942321062088 26.401042938232422,5.236942321062088 26.261451840400696,5.344021692872047 26.261451840400696,5.344021692872047 26.123344898223877,5.452379211783409 26.123344898223877,5.452379211783409 25.98678171634674,5.561644211411476 25.98678171634674,5.561644211411476 26.29481852054596,5.939828231930733 26.29481852054596,5.939828231930733 26.546946167945862,6.373348087072372 26.546946167945862,6.373348087072372 26.702025532722473,6.806880235671997 26.702025532722473,6.806880235671997 26.718869805336,7.185051590204239 26.718869805336,7.185051590204239 26.55632793903351,7.452552020549774 26.55632793903351,7.452552020549774 26.173260807991028,7.55402147769928 26.173260807991028,7.55402147769928 26.095256209373474,7.551784813404083 26.095256209373474,7.551784813404083 26.011496782302856,7.544807344675064 26.011496782302856,7.544807344675064 25.921759009361267,7.53275603055954 25.921759009361267,7.53275603055954 25.825735926628113,7.515248656272888 25.825735926628113,7.515248656272888 25.72319209575653,7.491912692785263 25.72319209575653,7.491912692785263 25.613826513290405,7.462418079376221 25.613826513290405,7.462418079376221 25.42957067489624,7.395376265048981 25.42957067489624,7.395376265048981 25.244370102882385,7.310955226421356 25.244370102882385,7.310955226421356 25.06011426448822,7.222367823123932 25.06011426448822,7.222367823123932 24.87855553627014,7.142776995897293 24.87855553627014,7.142776995897293 24.70155954360962,7.085345685482025 24.70155954360962,7.085345685482025 24.530939757823944,7.063288241624832 24.530939757823944,7.063288241624832 24.469342827796936,7.066840678453445 24.469342827796936,7.066840678453445 24.408921599388123,7.078009843826294 24.408921599388123,7.078009843826294 24.349777400493622,7.0976391434669495 24.349777400493622,7.0976391434669495 24.291975796222687,7.1265339851379395 24.291975796222687,7.1265339851379395 24.23565685749054,7.165524363517761 24.23565685749054,7.165524363517761 24.180883169174194,7.215415686368942 24.180883169174194,7.215415686368942 23.987631499767303,7.420565187931061 23.987631499767303,7.420565187931061 23.79726767539978,7.628653943538666 23.79726767539978,7.628653943538666 23.6099973320961,7.839669287204742 23.6099973320961,7.839669287204742 23.425985872745514,8.053534477949142 23.425985872745514,8.053534477949142 23.245449364185333,8.270223438739777 23.245449364185333,8.270223438739777 23.06855469942093,8.489686250686646 23.06855469942093,8.489686250686646 22.72207736968994,8.937301486730576 22.72207736968994,8.937301486730576 22.389400005340576,9.394999593496323 22.389400005340576,9.394999593496323 22.070731222629547,9.862512350082397 22.070731222629547,9.862512350082397 21.766208112239838,10.33957228064537 21.766208112239838,10.33957228064537 21.476086974143982,10.825896263122559 21.476086974143982,10.825896263122559 21.200497448444366,11.321217566728592 21.200497448444366,11.321217566728592 21.944570541381836,11.815145611763 21.944570541381836,11.815145611763 22.440901398658752,12.417609989643097 22.440901398658752,12.417609989643097 22.74058163166046,13.110144436359406 22.74058163166046,13.110144436359406 22.894664108753204,13.874231278896332 22.894664108753204,13.874231278896332 22.95425534248352,14.69140499830246 22.95425534248352,14.69140499830246 22.97040820121765,15.54315984249115 22.97040820121765,15.54315984249115 23.018650710582733,16.264525055885315 23.018650710582733,16.264525055885315 23.138216137886047,16.97106510400772 23.138216137886047,16.97106510400772 23.325781524181366,17.660264670848846 23.325781524181366,17.660264670848846 23.57793301343918,18.329553306102753 23.57793301343918,18.329553306102753 23.891350626945496,18.976400792598724 23.891350626945496,18.976400792598724 24.262672662734985,19.598253071308136 24.262672662734985,19.598253071308136 24.67837780714035,20.17727941274643 24.67837780714035,20.17727941274643 25.148779153823853,20.72446048259735 25.148779153823853,20.72446048259735 25.67189633846283,21.224011480808258 25.67189633846283,21.224011480808258 26.245707273483276,21.660175919532776 26.245707273483276,21.660175919532776 26.868247985839844,22.017183899879456 26.868247985839844,22.017183899879456 27.537500858306885,22.279292345046997 27.537500858306885,22.279292345046997 27.792656421661377,22.345834970474243 27.792656421661377,22.345834970474243 28.047606348991394,22.40106761455536 28.047606348991394,22.40106761455536 28.302225470542908,22.446754574775696 28.302225470542908,22.446754574775696 28.55626940727234,22.484658658504486 28.55626940727234,22.484658658504486 28.80961000919342,22.516582906246185 28.80961000919342,22.516582906246185 29.062044620513916,22.544288635253906 29.062044620513916,22.544288635253906 29.55615222454071,22.596977651119232 29.55615222454071,22.596977651119232 30.046525597572327,22.65879213809967 30.046525597572327,22.65879213809967 30.532199144363403,22.74487614631653 30.532199144363403,22.74487614631653 31.012120842933655,22.870345413684845 31.012120842933655,22.870345413684845 31.485334038734436,23.050357401371002 31.485334038734436,23.050357401371002 31.950828433036804,23.300017416477203 31.950828433036804,23.300017416477203 32.02068209648132,23.34451526403427 32.02068209648132,23.34451526403427 32.08314776420593,23.380106687545776 32.08314776420593,23.380106687545776 32.138532400131226,23.407161235809326 32.138532400131226,23.407161235809326 32.18708336353302,23.4260231256485 32.18708336353302,23.4260231256485 32.22912847995758,23.43709021806717 32.22912847995758,23.43709021806717" stroke="white" stroke-width="0.1" /><polygon points="41.287848353385925,29.42436933517456 41.287848353385925,29.42436933517456 41.33886396884918,29.157966375350952 41.33886396884918,29.157966375350952 41.32843613624573,28.884679079055786 41.32843613624573,28.884679079055786 41.276395320892334,28.60831916332245 41.276395320892334,28.60831916332245 41.20253026485443,28.33264172077179 41.20253026485443,28.33264172077179 41.12667143344879,28.061407804489136 41.12667143344879,28.061407804489136 41.068652272224426,27.798405289649963 41.068652272224426,27.798405289649963 41.05216860771179,27.55502164363861 41.05216860771179,27.55502164363861 41.07412099838257,27.314752340316772 41.07412099838257,27.314752340316772 41.11895263195038,27.076414227485657 41.11895263195038,27.076414227485657 41.17114543914795,26.838740706443787 41.17114543914795,26.838740706443787 41.21518135070801,26.600530743598938 41.21518135070801,26.600530743598938 41.23550355434418,26.360556483268738 41.23550355434418,26.360556483268738 41.167694330215454,25.861263275146484 41.167694330215454,25.861263275146484 40.96674919128418,25.479602813720703 40.96674919128418,25.479602813720703 40.66093564033508,25.19690692424774 40.66093564033508,25.19690692424774 40.278494358062744,24.994491040706635 40.278494358062744,24.994491040706635 39.84772264957428,24.853698909282684 39.84772264957428,24.853698909282684 39.39688801765442,24.755859375 39.39688801765442,24.755859375 38.88442814350128,24.620218575000763 38.88442814350128,24.620218575000763 38.417235016822815,24.422647058963776 38.417235016822815,24.422647058963776 37.981122732162476,24.1778165102005 37.981122732162476,24.1778165102005 37.56189048290253,23.9003986120224 37.56189048290253,23.9003986120224 37.145406007766724,23.605090379714966 37.145406007766724,23.605090379714966 36.71748340129852,23.306560516357422 36.71748340129852,23.306560516357422 36.32604777812958,23.09872806072235 36.32604777812958,23.09872806072235 35.929396748542786,22.96886146068573 35.929396748542786,22.96886146068573 35.53113639354706,22.882075607776642 35.53113639354706,22.882075607776642 35.13476550579071,22.8034570813179 35.13476550579071,22.8034570813179 34.74388122558594,22.698140144348145 34.74388122558594,22.698140144348145 34.36196446418762,22.53120243549347 34.36196446418762,22.53120243549347 34.321120381355286,22.510448098182678 34.321120381355286,22.510448098182678 34.28053259849548,22.493885457515717 34.28053259849548,22.493885457515717 34.24050807952881,22.48131036758423 34.24050807952881,22.48131036758423 34.20127332210541,22.472544014453888 34.20127332210541,22.472544014453888 34.16315317153931,22.467432916164398 34.16315317153931,22.467432916164398 34.126412868499756,22.465771436691284 34.126412868499756,22.465771436691284 33.931395411491394,22.515343129634857 33.931395411491394,22.515343129634857 33.761441707611084,22.647520899772644 33.761441707611084,22.647520899772644 33.61605107784271,22.837501764297485 33.61605107784271,22.837501764297485 33.494630455970764,23.06046485900879 33.494630455970764,23.06046485900879 33.39665234088898,23.291608691215515 33.39665234088898,23.291608691215515 33.32161009311676,23.506125807762146 33.32161009311676,23.506125807762146 33.2421600818634,23.79210591316223 33.2421600818634,23.79210591316223 33.18323194980621,24.081306159496307 33.18323194980621,24.081306159496307 33.13431441783905,24.37206506729126 33.13431441783905,24.37206506729126 33.08483064174652,24.662671983242035 33.08483064174652,24.662671983242035 33.02428126335144,24.951475858688354 33.02428126335144,24.951475858688354 32.94211030006409,25.23677945137024 32.94211030006409,25.23677945137024 32.86108672618866,25.459742546081543 32.86108672618866,25.459742546081543 32.7725887298584,25.681352615356445 32.7725887298584,25.681352615356445 32.682839035987854,25.902947783470154 32.682839035987854,25.902947783470154 32.597970962524414,26.125913858413696 32.597970962524414,26.125913858413696 32.524219155311584,26.351597905158997 32.524219155311584,26.351597905158997 32.467734813690186,26.58138871192932 32.467734813690186,26.58138871192932 32.47220516204834,27.24337875843048 32.47220516204834,27.24337875843048 32.71831572055817,27.77259051799774 32.71831572055817,27.77259051799774 33.118364214897156,28.22166383266449 33.118364214897156,28.22166383266449 33.58466327190399,28.643181920051575 33.58466327190399,28.643181920051575 34.02951657772064,29.089802503585815 34.02951657772064,29.089802503585815 34.36523675918579,29.614120721817017 34.36523675918579,29.614120721817017 34.53124165534973,30.515354871749878 34.53124165534973,30.515354871749878 34.30391848087311,31.335929036140442 34.30391848087311,31.335929036140442 33.85160267353058,32.112157344818115 33.85160267353058,32.112157344818115 33.34255516529083,32.88033306598663 33.34255516529083,32.88033306598663 32.94513821601868,33.676791191101074 32.94513821601868,33.676791191101074 32.827603816986084,34.53781008720398 32.827603816986084,34.53781008720398 32.869380712509155,34.78225767612457 32.869380712509155,34.78225767612457 32.9414963722229,35.01740097999573 32.9414963722229,35.01740097999573 33.032894134521484,35.24671494960785 33.032894134521484,35.24671494960785 33.13244581222534,35.47370433807373 33.13244581222534,35.47370433807373 33.22911262512207,35.701894760131836 33.22911262512207,35.701894760131836 33.31179618835449,35.93476414680481 33.31179618835449,35.93476414680481 33.358144760131836,36.156630516052246 33.358144760131836,36.156630516052246 33.36958289146423,36.376550793647766 33.36958289146423,36.376550793647766 33.35596024990082,36.59582436084747 33.35596024990082,36.59582436084747 33.32705497741699,36.81577146053314 33.32705497741699,36.81577146053314 33.292701840400696,37.0377391576767 33.292701840400696,37.0377391576767 33.262720704078674,37.263014912605286 33.262720704078674,37.263014912605286 33.25375020503998,37.47127056121826 33.25375020503998,37.47127056121826 33.27047824859619,37.698861956596375 33.27047824859619,37.698861956596375 33.319565653800964,37.924277782440186 33.319565653800964,37.924277782440186 33.407628536224365,38.125964999198914 33.407628536224365,38.125964999198914 33.54131579399109,38.28241229057312 33.54131579399109,38.28241229057312 33.72728228569031,38.3720725774765 33.72728228569031,38.3720725774765 33.908483386039734,38.32610547542572 33.908483386039734,38.32610547542572 34.052494168281555,38.23382556438446 34.052494168281555,38.23382556438446 34.15871858596802,38.10482919216156 34.15871858596802,38.10482919216156 34.22647714614868,37.94871270656586 34.22647714614868,37.94871270656586 34.25517976284027,37.77503967285156 34.25517976284027,37.77503967285156 34.24418866634369,37.59344220161438 34.24418866634369,37.59344220161438 34.28100645542145,37.17677891254425 34.28100645542145,37.17677891254425 34.31943356990814,36.77869737148285 34.31943356990814,36.77869737148285 34.384047985076904,36.398711800575256 34.384047985076904,36.398711800575256 34.499356150627136,36.03629767894745 34.499356150627136,36.03629767894745 34.68993902206421,35.69098114967346 34.68993902206421,35.69098114967346 34.98028814792633,35.36224365234375 34.98028814792633,35.36224365234375 35.360607504844666,35.04505455493927 35.360607504844666,35.04505455493927 35.76533496379852,34.75386202335358 35.76533496379852,34.75386202335358 36.184629797935486,34.47810411453247 36.184629797935486,34.47810411453247 36.608538031578064,34.20725464820862 36.608538031578064,34.20725464820862 37.02719509601593,33.930784463882446 37.02719509601593,33.930784463882446 37.43068277835846,33.638131618499756 37.43068277835846,33.638131618499756 37.82960772514343,33.313316106796265 37.82960772514343,33.313316106796265 38.208699226379395,32.97031223773956 38.208699226379395,32.97031223773956 38.56836557388306,32.60922729969025 38.56836557388306,32.60922729969025 38.908928632736206,32.230135798454285 38.908928632736206,32.230135798454285 39.23077881336212,31.833180785179138 39.23077881336212,31.833180785179138 39.53429460525513,31.41838312149048 39.53429460525513,31.41838312149048 39.80414569377899,31.074383854866028 39.80414569377899,31.074383854866028 40.12705683708191,30.761823058128357 40.12705683708191,30.761823058128357 40.46995937824249,30.46063482761383 40.46995937824249,30.46063482761383 40.7997727394104,30.150705575942993 40.7997727394104,30.150705575942993 41.08342528343201,29.811984300613403 41.08342528343201,29.811984300613403" stroke="white" stroke-width="0.1" /><polygon points="41.22895896434784,8.82011353969574 41.22895896434784,8.82011353969574 41.730478405952454,8.174415677785873 41.730478405952454,8.174415677785873 42.399075627326965,7.7144555747509 42.399075627326965,7.7144555747509 43.13913881778717,7.3348268866539 43.13913881778717,7.3348268866539 43.85489225387573,6.930125504732132 43.85489225387573,6.930125504732132 44.450750946998596,6.394919753074646 44.450750946998596,6.394919753074646 44.830942153930664,5.623803660273552 44.830942153930664,5.623803660273552 44.91308927536011,5.188635736703873 44.91308927536011,5.188635736703873 44.95270550251007,4.748304933309555 44.95270550251007,4.748304933309555 44.96834576129913,4.304958134889603 44.96834576129913,4.304958134889603 44.97852027416229,3.860793262720108 44.97852027416229,3.860793262720108 45.00177800655365,3.4180086106061935 45.00177800655365,3.4180086106061935 45.05667984485626,2.9787512496113777 45.05667984485626,2.9787512496113777 44.5319265127182,2.7617551386356354 44.5319265127182,2.7617551386356354 44.00142431259155,2.5606567040085793 44.00142431259155,2.5606567040085793 43.46547722816467,2.375558204948902 43.46547722816467,2.375558204948902 42.924341559410095,2.2065363824367523 42.924341559410095,2.2065363824367523 42.37832427024841,2.0536933094263077 42.37832427024841,2.0536933094263077 41.82765483856201,1.917131431400776 41.82765483856201,1.917131431400776 41.14535450935364,1.7749210819602013 41.14535450935364,1.7749210819602013 40.45978486537933,1.6589852049946785 40.45978486537933,1.6589852049946785 39.77148234844208,1.5691198408603668 39.77148234844208,1.5691198408603668 39.08097743988037,1.50515828281641 39.08097743988037,1.50515828281641 38.38886618614197,1.4669092372059822 38.38886618614197,1.4669092372059822 37.69567906856537,1.454206369817257 37.69567906856537,1.454206369817257 36.725664138793945,1.481899619102478 36.725664138793945,1.481899619102478 35.76001822948456,1.5634456649422646 35.76001822948456,1.5634456649422646 34.80035364627838,1.696505956351757 34.80035364627838,1.696505956351757 33.848318457603455,1.8787801265716553 33.848318457603455,1.8787801265716553 32.90556073188782,2.1079422906041145 32.90556073188782,2.1079422906041145 31.97372853755951,2.3816922679543495 31.97372853755951,2.3816922679543495 31.348273158073425,2.59068850427866 31.348273158073425,2.59068850427866 30.729082226753235,2.8180232271552086 30.729082226753235,2.8180232271552086 30.11752963066101,3.065447323024273 30.11752963066101,3.065447323024273 29.514962434768677,3.3346861600875854 29.514962434768677,3.3346861600875854 28.922760486602783,3.6274518817663193 28.922760486602783,3.6274518817663193 28.34230363368988,3.9454959332942963 28.34230363368988,3.9454959332942963 28.175032138824463,4.09444086253643 28.175032138824463,4.09444086253643 28.13606560230255,4.249929264187813 28.13606560230255,4.249929264187813 28.198352456092834,4.396970570087433 28.198352456092834,4.396970570087433 28.33477556705475,4.520561173558235 28.33477556705475,4.520561173558235 28.518301248550415,4.605710878968239 28.518301248550415,4.605710878968239 28.721803426742554,4.637429863214493 28.721803426742554,4.637429863214493 28.754734992980957,4.636458680033684 28.754734992980957,4.636458680033684 28.78783345222473,4.633493721485138 28.78783345222473,4.633493721485138 28.820767998695374,4.628432914614677 28.820767998695374,4.628432914614677 28.85313630104065,4.621186852455139 28.85313630104065,4.621186852455139 28.884613513946533,4.611679166555405 28.884613513946533,4.611679166555405 28.91482412815094,4.599807038903236 28.91482412815094,4.599807038903236 29.064932465553284,4.521123319864273 29.064932465553284,4.521123319864273 29.202836751937866,4.422900080680847 29.202836751937866,4.422900080680847 29.331129789352417,4.310683161020279 29.331129789352417,4.310683161020279 29.45231795310974,4.190006107091904 29.45231795310974,4.190006107091904 29.568982124328613,4.066441208124161 29.568982124328613,4.066441208124161 29.683640599250793,3.9454959332942963 29.683640599250793,3.9454959332942963 29.78004813194275,3.851643204689026 29.78004813194275,3.851643204689026 29.885631799697876,3.755681589245796 29.885631799697876,3.755681589245796 29.999753832817078,3.6661867052316666 29.999753832817078,3.6661867052316666 30.12177348136902,3.5916823893785477 30.12177348136902,3.5916823893785477 30.251088738441467,3.54071743786335 30.251088738441467,3.54071743786335 30.387023091316223,3.5218294709920883 30.387023091316223,3.5218294709920883 30.398499965667725,3.521842136979103 30.398499965667725,3.521842136979103 30.410054326057434,3.5218805074691772 30.410054326057434,3.5218805074691772 30.42178452014923,3.522033989429474 30.42178452014923,3.522033989429474 30.433785915374756,3.522314876317978 30.433785915374756,3.522314876317978 30.44615387916565,3.522774949669838 30.44615387916565,3.522774949669838 30.458998680114746,3.523465245962143 30.458998680114746,3.523465245962143 30.614396929740906,3.5872094333171844 30.614396929740906,3.5872094333171844 30.70969581604004,3.7095222622156143 30.70969581604004,3.7095222622156143 30.762845277786255,3.870454430580139 30.762845277786255,3.870454430580139 30.791711807250977,4.050057753920555 30.791711807250977,4.050057753920555 30.81423044204712,4.228408634662628 30.81423044204712,4.228408634662628 30.848312377929688,4.3855201452970505 30.848312377929688,4.3855201452970505 30.853986740112305,4.397749900817871 30.853986740112305,4.397749900817871 30.860915780067444,4.408663883805275 30.860915780067444,4.408663883805275 30.868759751319885,4.41884882748127 30.868759751319885,4.41884882748127 30.877143144607544,4.4288937002420425 30.877143144607544,4.4288937002420425 30.885720252990723,4.4393982738256454 30.885720252990723,4.4393982738256454 30.894115567207336,4.4509511440992355 30.894115567207336,4.4509511440992355 31.137719750404358,4.676637426018715 31.137719750404358,4.676637426018715 31.475353240966797,4.766835272312164 31.475353240966797,4.766835272312164 31.813013553619385,4.815320670604706 31.813013553619385,4.815320670604706 32.05659091472626,4.915869981050491 32.05659091472626,4.915869981050491 32.11206793785095,5.1622845232486725 32.11206793785095,5.1622845232486725 31.88539743423462,5.648340284824371 31.88539743423462,5.648340284824371 31.780222058296204,5.98551519215107 31.780222058296204,5.98551519215107 31.88261091709137,6.267201155424118 31.88261091709137,6.267201155424118 32.127490639686584,6.5003760159015656 32.127490639686584,6.5003760159015656 32.449790835380554,6.691966205835342 32.449790835380554,6.691966205835342 32.78444707393646,6.848924607038498 32.78444707393646,6.848924607038498 33.06642770767212,6.978227943181992 33.06642770767212,6.978227943181992 33.52656662464142,7.341805100440979 33.52656662464142,7.341805100440979 33.790042996406555,7.800116389989853 33.790042996406555,7.800116389989853 33.94811153411865,8.307501673698425 33.94811153411865,8.307501673698425 34.091997146606445,8.818298578262329 34.091997146606445,8.818298578262329 34.31293070316315,9.286834299564362 34.31293070316315,9.286834299564362 34.702205657958984,9.667446464300156 34.702205657958984,9.667446464300156 34.79181528091431,9.726500511169434 34.79181528091431,9.726500511169434 34.91085767745972,9.790921956300735 34.91085767745972,9.790921956300735 35.05062758922577,9.853515774011612 35.05062758922577,9.853515774011612 35.20236909389496,9.907113015651703 35.20236909389496,9.907113015651703 35.357412695884705,9.944544732570648 35.357412695884705,9.944544732570648 35.50700843334198,9.95861440896988 35.50700843334198,9.95861440896988 35.605525970458984,9.950793534517288 35.605525970458984,9.950793534517288 35.69311797618866,9.925413131713867 35.69311797618866,9.925413131713867 35.767096281051636,9.879688173532486 35.767096281051636,9.879688173532486 35.82470715045929,9.810781478881836 35.82470715045929,9.810781478881836 35.86322367191315,9.715893119573593 35.86322367191315,9.715893119573593 35.879966616630554,9.592200070619583 35.879966616630554,9.592200070619583 35.8685165643692,9.456674009561539 35.8685165643692,9.456674009561539 35.836222767829895,9.295332431793213 35.836222767829895,9.295332431793213 35.791224241256714,9.120278805494308 35.791224241256714,9.120278805494308 35.74157655239105,8.943576365709305 35.74157655239105,8.943576365709305 35.69539189338684,8.77734050154686 35.69539189338684,8.77734050154686 35.660770535469055,8.633634448051453 35.660770535469055,8.633634448051453 35.71643829345703,8.343871682882309 35.71643829345703,8.343871682882309 35.966482758522034,8.163437992334366 35.966482758522034,8.163437992334366 36.31958067417145,8.033712953329086 36.31958067417145,8.033712953329086 36.68438494205475,7.896077632904053 36.68438494205475,7.896077632904053 36.969611048698425,7.691925019025803 36.969611048698425,7.691925019025803 37.08389699459076,7.362635433673859 37.08389699459076,7.362635433673859 36.9888961315155,7.00649619102478 36.9888961315155,7.00649619102478 36.742570996284485,6.720132380723953 36.742570996284485,6.720132380723953 36.39809787273407,6.489130109548569 36.39809787273407,6.489130109548569 36.00862920284271,6.299009174108505 36.00862920284271,6.299009174108505 35.62735319137573,6.1353422701358795 35.62735319137573,6.1353422701358795 35.307443141937256,5.9836748987436295 35.307443141937256,5.9836748987436295 34.92872416973114,5.769797042012215 34.92872416973114,5.769797042012215 34.579700231552124,5.490155518054962 34.579700231552124,5.490155518054962 34.29776132106781,5.155357718467712 34.29776132106781,5.155357718467712 34.120213985443115,4.7759853303432465 34.120213985443115,4.7759853303432465 34.08445715904236,4.362619295716286 34.08445715904236,4.362619295716286 34.22783017158508,3.9258666336536407 34.22783017158508,3.9258666336536407 34.41906273365021,3.6650236696004868 34.41906273365021,3.6650236696004868 34.68244969844818,3.4214336425065994 34.68244969844818,3.4214336425065994 34.999099373817444,3.2085780054330826 34.999099373817444,3.2085780054330826 35.35009026527405,3.039875626564026 35.35009026527405,3.039875626564026 35.716527700424194,2.928796038031578 35.716527700424194,2.928796038031578 36.07953190803528,2.8887834399938583 36.07953190803528,2.8887834399938583 36.181434988975525,2.8923872858285904 36.181434988975525,2.8923872858285904 36.2807959318161,2.9034415259957314 36.2807959318161,2.9034415259957314 36.37724220752716,2.922316826879978 36.37724220752716,2.922316826879978 36.470404267311096,2.9493583366274834 36.470404267311096,2.9493583366274834 36.559951305389404,2.9849620535969734 36.559951305389404,2.9849620535969734 36.64551079273224,3.029460273683071 36.64551079273224,3.029460273683071 36.79361045360565,3.179708868265152 36.79361045360565,3.179708868265152 36.77140176296234,3.333408385515213 36.77140176296234,3.333408385515213 36.629968881607056,3.476845473051071 36.629968881607056,3.476845473051071 36.42036020755768,3.5962827503681183 36.42036020755768,3.5962827503681183 36.193689703941345,3.6780204623937607 36.193689703941345,3.6780204623937607 36.001014709472656,3.7083081901073456 36.001014709472656,3.7083081901073456 35.97157001495361,3.7083081901073456 35.97157001495361,3.7083081901073456 35.945141315460205,3.7048574537038803 35.945141315460205,3.7048574537038803 35.918253660202026,3.70255708694458 35.918253660202026,3.70255708694458 35.891008377075195,3.7011515349149704 35.891008377075195,3.7011515349149704 35.863468050956726,3.700435906648636 35.863468050956726,3.700435906648636 35.83577573299408,3.7001673132181168 35.83577573299408,3.7001673132181168 35.80799102783203,3.7001293152570724 35.80799102783203,3.7001293152570724 35.614484548568726,3.713062033057213 35.614484548568726,3.713062033057213 35.43006181716919,3.756103292107582 35.43006181716919,3.756103292107582 35.27472913265228,3.835694119334221 35.27472913265228,3.835694119334221 35.168442130088806,3.9582114666700363 35.168442130088806,3.9582114666700363 35.1312518119812,4.130082949995995 35.1312518119812,4.130082949995995 35.183125734329224,4.357711970806122 35.183125734329224,4.357711970806122 35.5216920375824,4.80864979326725 35.5216920375824,4.80864979326725 35.99628508090973,4.989658668637276 35.99628508090973,4.989658668637276 36.541229486465454,5.027562752366066 36.541229486465454,5.027562752366066 37.090787291526794,5.049096420407295 37.090787291526794,5.049096420407295 37.579309940338135,5.181044712662697 37.579309940338135,5.181044712662697 37.9410445690155,5.550193786621094 37.9410445690155,5.550193786621094 38.22866082191467,6.2340255826711655 38.22866082191467,6.2340255826711655 38.42729330062866,6.956962496042252 38.42729330062866,6.956962496042252 38.58104348182678,7.701446115970612 38.58104348182678,7.701446115970612 38.73395025730133,8.449877798557281 38.73395025730133,8.449877798557281 38.93015384674072,9.184687584638596 38.93015384674072,9.184687584638596 39.2136812210083,9.88827645778656 39.2136812210083,9.88827645778656 39.32851850986481,10.100671648979187 39.32851850986481,10.100671648979187 39.469221234321594,10.3201724588871 39.469221234321594,10.3201724588871 39.63448405265808,10.52643433213234 39.63448405265808,10.52643433213234 39.822906255722046,10.699008405208588 39.822906255722046,10.699008405208588 40.033140778541565,10.817525535821915 40.033140778541565,10.817525535821915 40.26384949684143,10.861563682556152 40.26384949684143,10.861563682556152 40.32028317451477,10.858790576457977 40.32028317451477,10.858790576457977 40.37822782993317,10.850292444229126 40.37822782993317,10.850292444229126 40.43765068054199,10.83580031991005 40.43765068054199,10.83580031991005 40.49842953681946,10.815034061670303 40.49842953681946,10.815034061670303 40.560486912727356,10.787723958492279 40.560486912727356,10.787723958492279 40.62372148036957,10.753602534532547 40.62372148036957,10.753602534532547 40.80577790737152,10.56130900979042 40.80577790737152,10.56130900979042 40.91877341270447,10.245782881975174 40.91877341270447,10.245782881975174 40.990135073661804,9.860467910766602 40.990135073661804,9.860467910766602 41.0473108291626,9.458782523870468 41.0473108291626,9.458782523870468 41.1177784204483,9.094195812940598 41.1177784204483,9.094195812940598" stroke="white" stroke-width="0.1" /><polygon points="43.94434988498688,8.34246650338173 43.94434988498688,8.34246650338173 43.789565563201904,8.650976419448853 43.789565563201904,8.650976419448853 43.863046169281006,8.937045931816101 43.863046169281006,8.937045931816101 44.088298082351685,9.203293919563293 44.088298082351685,9.203293919563293 44.388771057128906,9.452366828918457 44.388771057128906,9.452366828918457 44.688016176223755,9.6869096159935 44.688016176223755,9.6869096159935 44.909459352493286,9.90954115986824 44.909459352493286,9.90954115986824 44.9449360370636,9.924288839101791 44.9449360370636,9.924288839101791 44.97949182987213,9.935956448316574 44.97949182987213,9.935956448316574 45.01332938671112,9.94471088051796 45.01332938671112,9.94471088051796 45.04660964012146,9.950729459524155 45.04660964012146,9.950729459524155 45.07952928543091,9.954218566417694 45.07952928543091,9.954218566417694 45.11229395866394,9.95534285902977 45.11229395866394,9.95534285902977 45.30846178531647,9.908365458250046 45.30846178531647,9.908365458250046 45.48959732055664,9.78400781750679 45.48959732055664,9.78400781750679 45.65823674201965,9.60712656378746 45.65823674201965,9.60712656378746 45.816752314567566,9.402564913034439 45.816752314567566,9.402564913034439 45.96765339374542,9.195192158222198 45.96765339374542,9.195192158222198 46.11338973045349,9.009863436222076 46.11338973045349,9.009863436222076 46.26280963420868,8.825046569108963 46.26280963420868,8.825046569108963 46.4023619890213,8.618555217981339 46.4023619890213,8.618555217981339 46.49616181850433,8.409328758716583 46.49616181850433,8.409328758716583 46.5081512928009,8.216332644224167 46.5081512928009,8.216332644224167 46.4023619890213,8.058492839336395 46.4023619890213,8.058492839336395 46.142834424972534,7.954786717891693 46.142834424972534,7.954786717891693 46.05059325695038,7.9386211931705475 46.05059325695038,7.9386211931705475 45.95114290714264,7.924678176641464 45.95114290714264,7.924678176641464 45.84553241729736,7.913278788328171 45.84553241729736,7.913278788328171 45.73470950126648,7.904742658138275 45.73470950126648,7.904742658138275 45.619744062423706,7.899387925863266 45.619744062423706,7.899387925863266 45.50161063671112,7.897534966468811 45.50161063671112,7.897534966468811 45.20995616912842,7.907771319150925 45.20995616912842,7.907771319150925 44.9153870344162,7.940192520618439 44.9153870344162,7.940192520618439 44.629740715026855,7.997316867113113 44.629740715026855,7.997316867113113 44.364795088768005,8.081713318824768 44.364795088768005,8.081713318824768 44.13238763809204,8.195910602807999 44.13238763809204,8.195910602807999" stroke="white" stroke-width="0.1" /><polygon points="56.042563915252686,23.381806910037994 56.042563915252686,23.381806910037994 56.081026792526245,23.098279535770416 56.081026792526245,23.098279535770416 56.08207583427429,22.864964604377747 56.08207583427429,22.864964604377747 56.045836210250854,22.66063243150711 56.045836210250854,22.66063243150711 55.97250461578369,22.464071214199066 55.97250461578369,22.464071214199066 55.862319469451904,22.254066169261932 55.862319469451904,22.254066169261932 55.71540594100952,22.009389102458954 55.71540594100952,22.009389102458954 55.58446645736694,21.801376342773438 55.58446645736694,21.801376342773438 55.44969439506531,21.595051884651184 55.44969439506531,21.595051884651184 55.310553312301636,21.3912695646286 55.310553312301636,21.3912695646286 55.16650080680847,21.190886199474335 55.16650080680847,21.190886199474335 55.017006397247314,20.99478542804718 55.017006397247314,20.99478542804718 54.86152768135071,20.803821086883545 54.86152768135071,20.803821086883545 54.47676181793213,20.39574533700943 54.47676181793213,20.39574533700943 54.09854054450989,20.102493464946747 54.09854054450989,20.102493464946747 53.708308935165405,19.899849593639374 53.708308935165405,19.899849593639374 53.287529945373535,19.76359337568283 53.287529945373535,19.76359337568283 52.817702293395996,19.669485092163086 52.817702293395996,19.669485092163086 52.28027105331421,19.593344628810883 52.28027105331421,19.593344628810883 51.850730180740356,19.465012848377228 51.850730180740356,19.465012848377228 51.52648687362671,19.234010577201843 51.52648687362671,19.234010577201843 51.26731991767883,18.935149908065796 51.26731991767883,18.935149908065796 51.03294253349304,18.60315054655075 51.03294253349304,18.60315054655075 50.783151388168335,18.27278733253479 50.783151388168335,18.27278733253479 50.47764778137207,17.978832125663757 50.47764778137207,17.978832125663757 50.34394860267639,17.889632284641266 50.34394860267639,17.889632284641266 50.201863050460815,17.81919151544571 50.201863050460815,17.81919151544571 50.05234479904175,17.76638627052307 50.05234479904175,17.76638627052307 49.896255135536194,17.730066180229187 49.896255135536194,17.730066180229187 49.73456859588623,17.709121108055115 49.73456859588623,17.709121108055115 49.56815242767334,17.702385783195496 49.56815242767334,17.702385783195496 49.115246534347534,17.743268609046936 49.115246534347534,17.743268609046936 48.650431632995605,17.852213978767395 48.650431632995605,17.852213978767395 48.18960130214691,18.00868511199951 48.18960130214691,18.00868511199951 47.74865806102753,18.192148208618164 47.74865806102753,18.192148208618164 47.34354615211487,18.382064998149872 47.34354615211487,18.382064998149872 46.99016809463501,18.557898700237274 46.99016809463501,18.557898700237274 46.64931297302246,18.755890429019928 46.64931297302246,18.755890429019928 46.40517234802246,18.951034545898438 46.40517234802246,18.951034545898438 46.227896213531494,19.160886108875275 46.227896213531494,19.160886108875275 46.08767926692963,19.403044879436493 46.08767926692963,19.403044879436493 45.95477283000946,19.695095717906952 45.95477283000946,19.695095717906952 45.799320936203,20.054633915424347 45.799320936203,20.054633915424347 45.67564129829407,20.343400537967682 45.67564129829407,20.343400537967682 45.556870102882385,20.634058117866516 45.556870102882385,20.634058117866516 45.443540811538696,20.926913619041443 45.443540811538696,20.926913619041443 45.33619284629822,21.222209930419922 45.33619284629822,21.222209930419922 45.235440135002136,21.520240604877472 45.235440135002136,21.520240604877472 45.14173865318298,21.821273863315582 45.14173865318298,21.821273863315582 44.98851299285889,22.532352805137634 44.98851299285889,22.532352805137634 44.95076239109039,23.263417184352875 44.95076239109039,23.263417184352875 45.0579047203064,23.962508141994476 45.0579047203064,23.962508141994476 45.33920884132385,24.577611684799194 45.33920884132385,24.577611684799194 45.824140310287476,25.056779384613037 45.824140310287476,25.056779384613037 46.54196500778198,25.348010659217834 46.54196500778198,25.348010659217834 46.689337491989136,25.377929210662842 46.689337491989136,25.377929210662842 46.839675307273865,25.399741530418396 46.839675307273865,25.399741530418396 46.992212533950806,25.414669513702393 46.992212533950806,25.414669513702393 47.14607894420624,25.42385756969452 47.14607894420624,25.42385756969452 47.30055630207062,25.42850971221924 47.30055630207062,25.42850971221924 47.45472967624664,25.429800152778625 47.45472967624664,25.429800152778625 47.54520654678345,25.42930245399475 47.54520654678345,25.42930245399475 47.636479139328,25.427985191345215 47.636479139328,25.427985191345215 47.72831201553345,25.426119565963745 47.72831201553345,25.426119565963745 47.820401191711426,25.42397379875183 47.820401191711426,25.42397379875183 47.91251718997955,25.421851873397827 47.91251718997955,25.421851873397827 48.004350066185,25.419986248016357 48.004350066185,25.419986248016357 48.09569716453552,25.417888164520264 48.09569716453552,25.417888164520264 48.18658530712128,25.415128469467163 48.18658530712128,25.415128469467163 48.27711582183838,25.412216782569885 48.27711582183838,25.412216782569885 48.36733937263489,25.409558415412903 48.36733937263489,25.409558415412903 48.45743477344513,25.407639145851135 48.45743477344513,25.407639145851135 48.54742884635925,25.40690004825592 48.54742884635925,25.40690004825592 48.97717833518982,25.4219651222229 48.97717833518982,25.4219651222229 49.38883185386658,25.479960441589355 49.38883185386658,25.479960441589355 49.7763067483902,25.60012638568878 49.7763067483902,25.60012638568878 50.13352036476135,25.801658630371094 50.13352036476135,25.801658630371094 50.45439004898071,26.103803515434265 50.45439004898071,26.103803515434265 50.73282718658447,26.525771617889404 50.73282718658447,26.525771617889404 50.905609130859375,26.95622444152832 50.905609130859375,26.95622444152832 50.993937253952026,27.389153838157654 50.993937253952026,27.389153838157654 51.01540684700012,27.825191617012024 51.01540684700012,27.825191617012024 50.987499952316284,28.26489806175232 50.987499952316284,28.26489806175232 50.927817821502686,28.708884119987488 50.927817821502686,28.708884119987488 50.853872299194336,29.157736897468567 50.853872299194336,29.157736897468567 50.829339027404785,29.74158227443695 50.829339027404785,29.74158227443695 50.93238949775696,30.255892872810364 50.93238949775696,30.255892872810364 51.12868547439575,30.726855993270874 51.12868547439575,30.726855993270874 51.383841037750244,31.180644035339355 51.383841037750244,31.180644035339355 51.663583517074585,31.643429398536682 51.663583517074585,31.643429398536682 51.933491230010986,32.14139640331268 51.933491230010986,32.14139640331268 52.61663198471069,31.281936168670654 52.61663198471069,31.281936168670654 53.24804186820984,30.384021997451782 53.24804186820984,30.384021997451782 53.82567644119263,29.450950026512146 53.82567644119263,29.450950026512146 54.347383975982666,28.485968708992004 54.347383975982666,28.485968708992004 54.811155796051025,27.492374181747437 54.811155796051025,27.492374181747437 55.214858055114746,26.473426818847656 55.214858055114746,26.473426818847656 55.39067983627319,25.968265533447266 55.39067983627319,25.968265533447266 55.551570653915405,25.458887219429016 55.551570653915405,25.458887219429016 55.69741129875183,24.94540512561798 55.69741129875183,24.94540512561798 55.82796931266785,24.42796230316162 55.82796931266785,24.42796230316162 55.94308376312256,23.906737565994263 55.94308376312256,23.906737565994263" stroke="white" stroke-width="0.1" /><polygon points="55.42750954627991,20.47993689775467 55.42750954627991,20.47993689775467 55.52302598953247,20.6871435046196 55.52302598953247,20.6871435046196 55.63653111457825,20.880702137947083 55.63653111457825,20.880702137947083 55.76856732368469,21.059001982212067 55.76856732368469,21.059001982212067 55.91967701911926,21.22039496898651 55.91967701911926,21.22039496898651 56.09046220779419,21.363256871700287 56.09046220779419,21.363256871700287 56.28138780593872,21.485939621925354 56.28138780593872,21.485939621925354 56.291407346725464,18.955162167549133 56.291407346725464,18.955162167549133 55.96016049385071,16.461138427257538 55.96016049385071,16.461138427257538 55.30032515525818,14.040084183216095 55.30032515525818,14.040084183216095 54.32448387145996,11.72821968793869 54.32448387145996,11.72821968793869 53.04533243179321,9.561759978532791 53.04533243179321,9.561759978532791 51.47547125816345,7.5769223272800446 51.47547125816345,7.5769223272800446 51.073479652404785,7.974889129400253 51.073479652404785,7.974889129400253 50.67611336708069,8.395833522081375 50.67611336708069,8.395833522081375 50.29893517494202,8.840969204902649 50.29893517494202,8.840969204902649 49.95746910572052,9.3114472925663 49.95746910572052,9.3114472925663 49.66724514961243,9.808468073606491 49.66724514961243,9.808468073606491 49.44383502006531,10.333207994699478 49.44383502006531,10.333207994699478 49.364012479782104,10.64852923154831 49.364012479782104,10.64852923154831 49.34400022029877,10.97031757235527 49.34400022029877,10.97031757235527 49.39394295215607,11.270099133253098 49.39394295215607,11.270099133253098 49.52403903007507,11.519452929496765 49.52403903007507,11.519452929496765 49.74445998668671,11.689906567335129 49.74445998668671,11.689906567335129 50.065428018569946,11.753062903881073 50.065428018569946,11.753062903881073 50.086694955825806,11.752922087907791 50.086694955825806,11.752922087907791 50.107961893081665,11.752448976039886 50.107961893081665,11.752448976039886 50.12922286987305,11.751631647348404 50.12922286987305,11.751631647348404 50.150465965270996,11.750391870737076 50.150465965270996,11.750391870737076 50.171756744384766,11.748705059289932 50.171756744384766,11.748705059289932 50.193023681640625,11.746519804000854 50.193023681640625,11.746519804000854 50.56822896003723,11.662890762090683 50.56822896003723,11.662890762090683 50.919920206069946,11.510354280471802 50.919920206069946,11.510354280471802 51.24523639678955,11.301588267087936 51.24523639678955,11.301588267087936 51.54136419296265,11.049192398786545 51.54136419296265,11.049192398786545 51.805537939071655,10.765807330608368 51.805537939071655,10.765807330608368 52.03490853309631,10.464069992303848 52.03490853309631,10.464069992303848 52.131086587905884,10.329897701740265 52.131086587905884,10.329897701740265 52.229613065719604,10.215125232934952 52.229613065719604,10.215125232934952 52.33016610145569,10.121987760066986 52.33016610145569,10.121987760066986 52.43232250213623,10.052697360515594 52.43232250213623,10.052697360515594 52.53578424453735,10.009502619504929 52.53578424453735,10.009502619504929 52.640146017074585,9.994601458311081 52.640146017074585,9.994601458311081 52.72492170333862,10.005208849906921 52.72492170333862,10.005208849906921 52.809035778045654,10.037975758314133 52.809035778045654,10.037975758314133 52.89246439933777,10.094384104013443 52.89246439933777,10.094384104013443 52.975016832351685,10.17586663365364 52.975016832351685,10.17586663365364 53.05672883987427,10.28389185667038 53.05672883987427,10.28389185667038 53.13742160797119,10.419903695583344 53.13742160797119,10.419903695583344 53.25213074684143,10.66722571849823 53.25213074684143,10.66722571849823 53.38339805603027,11.035864055156708 53.38339805603027,11.035864055156708 53.481751680374146,11.451670527458191 53.481751680374146,11.451670527458191 53.49774956703186,11.840487271547318 53.49774956703186,11.840487271547318 53.38202118873596,12.128154188394547 53.38202118873596,12.128154188394547 53.08507680892944,12.240524590015411 53.08507680892944,12.240524590015411 53.07525992393494,12.240524590015411 53.07525992393494,12.240524590015411 52.84244418144226,12.199284881353378 52.84244418144226,12.199284881353378 52.62596011161804,12.101969122886658 52.62596011161804,12.101969122886658 52.41767764091492,11.975937336683273 52.41767764091492,11.975937336683273 52.20937132835388,11.848538368940353 52.20937132835388,11.848538368940353 51.99291110038757,11.747132986783981 51.99291110038757,11.747132986783981 51.7600953578949,11.69908195734024 51.7600953578949,11.69908195734024 51.70447826385498,11.69908195734024 51.70447826385498,11.69908195734024 51.43033266067505,11.719171702861786 51.43033266067505,11.719171702861786 51.104557514190674,11.780691891908646 51.104557514190674,11.780691891908646 50.7704496383667,11.885561048984528 50.7704496383667,11.885561048984528 50.47120451927185,12.0356947183609 50.47120451927185,12.0356947183609 50.25011897087097,12.232984602451324 50.25011897087097,12.232984602451324 50.150489807128906,12.479347735643387 50.150489807128906,12.479347735643387 50.14849901199341,12.751653790473938 50.14849901199341,12.751653790473938 50.18683671951294,13.011576235294342 50.18683671951294,13.011576235294342 50.24372935295105,13.260431587696075 50.24372935295105,13.260431587696075 50.29732584953308,13.499459624290466 50.29732584953308,13.499459624290466 50.32587647438049,13.729950785636902 50.32587647438049,13.729950785636902 50.30752420425415,13.953183591365814 50.30752420425415,13.953183591365814 50.26164650917053,14.096492528915405 50.26164650917053,14.096492528915405 50.19460320472717,14.207637310028076 50.19460320472717,14.207637310028076 50.10918974876404,14.289335906505585 50.10918974876404,14.289335906505585 50.00823140144348,14.344313740730286 50.00823140144348,14.344313740730286 49.8945415019989,14.37530368566513 49.8945415019989,14.37530368566513 49.77099001407623,14.385029673576355 49.77099001407623,14.385029673576355 49.59956705570221,14.37026858329773 49.59956705570221,14.37026858329773 49.423593282699585,14.33020532131195 49.423593282699585,14.33020532131195 49.24999475479126,14.271138608455658 49.24999475479126,14.271138608455658 49.085649847984314,14.19939398765564 49.085649847984314,14.19939398765564 48.9375114440918,14.121298491954803 48.9375114440918,14.121298491954803 48.81242513656616,14.043150842189789 48.81242513656616,14.043150842189789 48.75713884830475,14.009720087051392 48.75713884830475,14.009720087051392 48.69935214519501,13.982871174812317 48.69935214519501,13.982871174812317 48.63944053649902,13.962385058403015 48.63944053649902,13.962385058403015 48.5775887966156,13.94803375005722 48.5775887966156,13.94803375005722 48.51410090923309,13.939586281776428 48.51410090923309,13.939586281776428 48.449280858039856,13.936826586723328 48.449280858039856,13.936826586723328 48.214343190193176,13.969363272190094 48.214343190193176,13.969363272190094 47.984108328819275,14.059752225875854 47.984108328819275,14.059752225875854 47.773706912994385,14.197118580341339 47.773706912994385,14.197118580341339 47.59819209575653,14.370614290237427 47.59819209575653,14.370614290237427 47.472670674324036,14.569361507892609 47.472670674324036,14.569361507892609 47.41219878196716,14.7825226187706 47.41219878196716,14.7825226187706 47.243306040763855,15.273843705654144 47.243306040763855,15.273843705654144 46.91055119037628,15.942646563053131 46.91055119037628,15.942646563053131 46.56690955162048,16.673073172569275 46.56690955162048,16.673073172569275 46.36529982089996,17.349237203598022 46.36529982089996,17.349237203598022 46.458667516708374,17.85528063774109 46.458667516708374,17.85528063774109 46.99998199939728,18.07534396648407 46.99998199939728,18.07534396648407 47.01143205165863,18.077413737773895 47.01143205165863,18.077413737773895 47.022756934165955,18.078793585300446 47.022756934165955,18.078793585300446 47.033923864364624,18.079636991024017 47.033923864364624,18.079636991024017 47.04478681087494,18.080072104930878 47.04478681087494,18.080072104930878 47.05534279346466,18.080225586891174 47.05534279346466,18.080225586891174 47.06541299819946,18.080250918865204 47.06541299819946,18.080250918865204 47.44593799114227,18.02218109369278 47.44593799114227,18.02218109369278 47.76067137718201,17.869235575199127 47.76067137718201,17.869235575199127 48.035430908203125,17.653313279151917 48.035430908203125,17.653313279151917 48.29597771167755,17.40631014108658 48.29597771167755,17.40631014108658 48.568183183670044,17.160126566886902 48.568183183670044,17.160126566886902 48.87785613536835,16.9466570019722 48.87785613536835,16.9466570019722 49.02847409248352,16.8724462389946 49.02847409248352,16.8724462389946 49.18525516986847,16.81428700685501 49.18525516986847,16.81428700685501 49.347323179244995,16.771015524864197 49.347323179244995,16.771015524864197 49.51371252536774,16.741520166397095 49.51371252536774,16.741520166397095 49.68363046646118,16.72465056180954 49.68363046646118,16.72465056180954 49.85605180263519,16.719283163547516 49.85605180263519,16.719283163547516 50.1740038394928,16.73610210418701 50.1740038394928,16.73610210418701 50.49338936805725,16.782350838184357 50.49338936805725,16.782350838184357 50.80971121788025,16.85178130865097 50.80971121788025,16.85178130865097 51.118361949920654,16.938108205795288 51.118361949920654,16.938108205795288 51.41487121582031,17.03507900238037 51.41487121582031,17.03507900238037 51.69466733932495,17.136406898498535 51.69466733932495,17.136406898498535 52.13325619697571,17.30489283800125 52.13325619697571,17.30489283800125 52.576398849487305,17.47603565454483 52.576398849487305,17.47603565454483 53.02046537399292,17.651472985744476 53.02046537399292,17.651472985744476 53.46176624298096,17.832763493061066 53.46176624298096,17.832763493061066 53.89675498008728,18.02150309085846 53.89675498008728,18.02150309085846 54.32172417640686,18.219292163848877 54.32172417640686,18.219292163848877 54.74441647529602,18.49796175956726 54.74441647529602,18.49796175956726 54.99444007873535,18.827559053897858 54.99444007873535,18.827559053897858 55.129796266555786,19.199326634407043 55.129796266555786,19.199326634407043 55.208414793014526,19.60448920726776 55.208414793014526,19.60448920726776 55.28833866119385,20.034289360046387 55.28833866119385,20.034289360046387" stroke="white" stroke-width="0.1" /></svg>