<?xml version="1.0" encoding="utf-8" ?>
<svg baseProfile="full" height="100.0" version="1.1" width="64.3585205078125" xmlns="http://www.w3.org/2000/svg" xmlns:ev="http://www.w3.org/2001/xml-events" xmlns:xlink="http://www.w3.org/1999/xlink"><defs><clipPath /></defs><polygon points="60.07487177848816,76.5869140625 60.07487177848816,76.5869140625 62.48372793197632,81.04451894760132 62.48372793197632,81.04451894760132 63.49729299545288,83.29145312309265 63.49729299545288,83.29145312309265 64.12214040756226,85.55018305778503 64.12214040756226,85.55018305778503 64.35801386833191,87.78712153434753 64.35801386833191,87.78712153434753 64.2041563987732,89.96858596801758 64.2041563987732,89.96858596801758 63.6603057384491,92.06103086471558 63.6603057384491,92.06103086471558 62.725830078125,94.03076171875 62.725830078125,94.03076171875 61.43850088119507,95.79042196273804 61.43850088119507,95.79042196273804 59.85667109489441,97.26471900939941 59.85667109489441,97.26471900939941 58.0108642578125,98.43826293945312 58.0108642578125,98.43826293945312 55.93084096908569,99.29560422897339 55.93084096908569,99.29560422897339 53.64723205566406,99.82132911682129 53.64723205566406,99.82132911682129 51.190185546875,100.0 51.190185546875,100.0 13.16731870174408,100.0 13.16731870174408,100.0 10.711034387350082,99.82134699821472 10.711034387350082,99.82134699821472 8.42793807387352,99.29561614990234 8.42793807387352,99.29561614990234 6.34867399930954,98.43826293945312 6.34867399930954,98.43826293945312 4.503123089671135,97.26470708847046 4.503123089671135,97.26470708847046 2.9221853241324425,95.79042196273804 2.9221853241324425,95.79042196273804 1.6357421875,94.03076171875 1.6357421875,94.03076171875 0.7005055900663137,92.06104278564453 0.7005055900663137,92.06104278564453 0.15614827862009406,89.96860384941101 0.15614827862009406,89.96860384941101 0.002288818359375,87.78712153434753 0.002288818359375,87.78712153434753 0.2376556396484375,85.55018305778503 0.2376556396484375,85.55018305778503 0.8617401123046875,83.29143524169922 0.8617401123046875,83.29143524169922 1.873779296875,81.04451894760132 1.873779296875,81.04451894760132 4.28466796875,76.58488154411316 4.28466796875,76.58488154411316 4.28466796875,23.41512143611908 4.28466796875,23.41512143611908 1.873779296875,18.95548552274704 1.873779296875,18.95548552274704 0.861994456499815,16.70856475830078 0.861994456499815,16.70856475830078 0.23778281174600124,14.449803531169891 0.23778281174600124,14.449803531169891 0.002288818359375,12.212880700826645 0.002288818359375,12.212880700826645 0.1560211181640625,10.031382739543915 0.1560211181640625,10.031382739543915 0.70037841796875,7.938957214355469 0.70037841796875,7.938957214355469 1.6357421875,5.96923828125 1.6357421875,5.96923828125 2.922312542796135,4.209582135081291 2.922312542796135,4.209582135081291 4.5032501220703125,2.735280990600586 4.5032501220703125,2.735280990600586 6.34867399930954,1.561737060546875 6.34867399930954,1.561737060546875 8.427684009075165,0.7043838500976562 8.427684009075165,0.7043838500976562 10.710906982421875,0.17865499248728156 10.710906982421875,0.17865499248728156 13.16731870174408,0.0 13.16731870174408,0.0 51.190185546875,0.0 51.190185546875,0.0 53.64736318588257,0.17867088317871094 53.64736318588257,0.17867088317871094 55.93096613883972,0.7043838500976562 55.93096613883972,0.7043838500976562 58.0108642578125,1.561737060546875 58.0108642578125,1.561737060546875 59.85654592514038,2.7352651581168175 59.85654592514038,2.7352651581168175 61.438244581222534,4.209582135081291 61.438244581222534,4.209582135081291 62.725830078125,5.96923828125 62.725830078125,5.96923828125 63.660430908203125,7.938973605632782 63.660430908203125,7.938973605632782 64.20440673828125,10.031382739543915 64.20440673828125,10.031382739543915 64.3585205078125,12.212880700826645 64.3585205078125,12.212880700826645 64.12302851676941,14.449803531169891 64.12302851676941,14.449803531169891 63.49932551383972,16.708549857139587 63.49932551383972,16.708549857139587 62.48779296875,18.95548552274704 62.48779296875,18.95548552274704 60.07487177848816,23.419189453125 60.07487177848816,23.419189453125" stroke="white" stroke-width="0.1" /><polygon points="52.581787109375,62.738037109375 52.581787109375,62.738037109375 52.581787109375,37.26603388786316 52.581787109375,37.26603388786316 48.175048828125,45.41219174861908 48.175048828125,45.41219174861908 47.66222834587097,46.722573041915894 47.66222834587097,46.722573041915894 47.354382276535034,48.29568862915039 47.354382276535034,48.29568862915039 47.25189208984375,50.000256299972534 47.25189208984375,50.000256299972534 47.354382276535034,51.704978942871094 47.354382276535034,51.704978942871094 47.66197204589844,53.27860713005066 47.66197204589844,53.27860713005066 48.175048828125,54.58984375 48.175048828125,54.58984375" stroke="white" stroke-width="0.1" /><polygon points="11.77571639418602,37.261962890625 11.77571639418602,37.261962890625 11.77571639418602,62.74210810661316 11.77571639418602,62.74210810661316 16.1865234375,54.58781123161316 16.1865234375,54.58781123161316 16.69769287109375,53.277432918548584 16.69769287109375,53.277432918548584 17.004141211509705,51.70431137084961 17.004141211509705,51.70431137084961 17.10612028837204,49.999746680259705 17.10612028837204,49.999746680259705 17.002996802330017,48.29499125480652 17.002996802330017,48.29499125480652 16.69515073299408,46.72139585018158 16.69515073299408,46.72139585018158 16.18245542049408,45.41015625 16.18245542049408,45.41015625" stroke="white" stroke-width="0.1" /><polygon points="36.663818359375,64.788818359375 36.663818359375,64.788818359375 55.52978515625,83.65275263786316 55.52978515625,83.65275263786316 41.705322265625,58.09122920036316 41.705322265625,58.09122920036316 40.702566504478455,55.6571364402771 40.702566504478455,55.6571364402771 40.1007354259491,52.90745496749878 40.1007354259491,52.90745496749878 39.90020751953125,50.0 39.90020751953125,50.0 40.10047912597656,47.092533111572266 40.10047912597656,47.092533111572266 40.70231318473816,44.34286952018738 40.70231318473816,44.34286952018738 41.705322265625,41.90877377986908 41.705322265625,41.90877377986908 56.01400136947632,15.447998046875 56.01400136947632,15.447998046875 56.84306025505066,13.304710388183594 56.84306025505066,13.304710388183594 56.95648193359375,11.374696344137192 56.95648193359375,11.374696344137192 56.401318311691284,9.73663330078125 56.401318311691284,9.73663330078125 55.223846435546875,8.46918448805809 55.223846435546875,8.46918448805809 53.47124934196472,7.651042938232422 53.47124934196472,7.651042938232422 51.190185546875,7.36083984375 51.190185546875,7.36083984375 13.16731870174408,7.36083984375 13.16731870174408,7.36083984375 10.886891931295395,7.651042938232422 10.886891931295395,7.651042938232422 9.13442000746727,8.469200134277344 9.13442000746727,8.469200134277344 7.95695036649704,9.73663330078125 7.95695036649704,9.73663330078125 7.401148974895477,11.374680697917938 7.401148974895477,11.374680697917938 7.51444548368454,13.3046954870224 7.51444548368454,13.3046954870224 8.343505859375,15.447998046875 8.343505859375,15.447998046875 22.65625,41.90877377986908 22.65625,41.90877377986908 23.660025000572205,44.34286952018738 23.660025000572205,44.34286952018738 24.262110888957977,47.092533111572266 24.262110888957977,47.092533111572266 24.462890625,50.0 24.462890625,50.0 24.26198422908783,52.90745496749878 24.26198422908783,52.90745496749878 23.65977019071579,55.65711855888367 23.65977019071579,55.65711855888367 22.65625,58.09122920036316 22.65625,58.09122920036316 8.83382186293602,83.64461660385132 8.83382186293602,83.64461660385132 27.691650390625,64.788818359375 27.691650390625,64.788818359375 29.04103696346283,63.76139521598816 29.04103696346283,63.76139521598816 30.565261840820312,63.14494013786316 30.565261840820312,63.14494013786316 32.176971435546875,62.939453125 32.176971435546875,62.939453125 33.78868103027344,63.14492225646973 33.78868103027344,63.14492225646973 35.31341552734375,63.76139521598816 35.31341552734375,63.76139521598816" stroke="white" stroke-width="0.1" /></svg>