<?xml version="1.0" encoding="utf-8" ?>
<svg baseProfile="full" height="100.0" version="1.1" width="80.89436888694763" xmlns="http://www.w3.org/2000/svg" xmlns:ev="http://www.w3.org/2001/xml-events" xmlns:xlink="http://www.w3.org/1999/xlink"><defs><clipPath /></defs><polygon points="0.0,39.00981247425079 0.0,39.00981247425079 0.267225643619895,37.036705017089844 0.267225643619895,37.036705017089844 1.0204198770225048,35.2607399225235 1.0204198770225048,35.2607399225235 2.187143638730049,33.7539941072464 2.187143638730049,33.7539941072464 3.6946728825569153,32.58848190307617 3.6946728825569153,32.58848190307617 5.470568314194679,31.83639347553253 5.470568314194679,31.83639347553253 7.442391663789749,31.569701433181763 7.442391663789749,31.569701433181763 33.97444784641266,31.569701433181763 33.97444784641266,31.569701433181763 33.97444784641266,52.327173948287964 33.97444784641266,52.327173948287964 0.0,52.327173948287964 0.0,52.327173948287964" stroke="white" stroke-width="0.1" /><polygon points="0.0,92.55761504173279 0.0,92.55761504173279 0.0,65.2772068977356 0.0,65.2772068977356 33.97444784641266,65.2772068977356 33.97444784641266,65.2772068977356 33.97444784641266,100.0 33.97444784641266,100.0 7.442391663789749,100.0 7.442391663789749,100.0 5.47071099281311,99.73278045654297 5.47071099281311,99.73278045654297 3.6946728825569153,98.97955060005188 3.6946728825569153,98.97955060005188 2.187143638730049,97.81286120414734 2.187143638730049,97.81286120414734 1.0202771984040737,96.30518555641174 1.0202771984040737,96.30518555641174 0.26708305813372135,94.52929496765137 0.26708305813372135,94.52929496765137" stroke="white" stroke-width="0.1" /><polygon points="73.45197796821594,31.569701433181763 73.45197796821594,31.569701433181763 75.42365789413452,31.836429238319397 75.42365789413452,31.836429238319397 77.19969749450684,32.5885534286499 77.19969749450684,32.5885534286499 78.7072241306305,33.7539941072464 78.7072241306305,33.7539941072464 79.87366318702698,35.26070415973663 79.87366318702698,35.26070415973663 80.62700033187866,37.03666925430298 80.62700033187866,37.03666925430298 80.89436888694763,39.00981247425079 80.89436888694763,39.00981247425079 80.89436888694763,52.327173948287964 80.89436888694763,52.327173948287964 46.919918060302734,52.327173948287964 46.919918060302734,52.327173948287964 46.919918060302734,31.569701433181763 46.919918060302734,31.569701433181763" stroke="white" stroke-width="0.1" /><polygon points="46.919918060302734,100.0 46.919918060302734,100.0 46.919918060302734,65.2772068977356 46.919918060302734,65.2772068977356 80.89436888694763,65.2772068977356 80.89436888694763,65.2772068977356 80.89436888694763,92.55761504173279 80.89436888694763,92.55761504173279 80.62728643417358,94.52933073043823 80.62728643417358,94.52933073043823 79.8739492893219,96.30525708198547 79.8739492893219,96.30525708198547 78.7072241306305,97.81286120414734 78.7072241306305,97.81286120414734 77.19941139221191,98.97951483726501 77.19941139221191,98.97951483726501 75.42351484298706,99.73278045654297 75.42351484298706,99.73278045654297 73.45197796821594,100.0 73.45197796821594,100.0" stroke="white" stroke-width="0.1" /><polygon points="70.77116370201111,9.776408970355988 70.77116370201111,9.776408970355988 70.96680402755737,13.370515406131744 70.96680402755737,13.370515406131744 70.02695202827454,16.82334542274475 70.02695202827454,16.82334542274475 68.070387840271,19.98944878578186 68.070387840271,19.98944878578186 65.21589159965515,22.723378241062164 65.21589159965515,22.723378241062164 61.58267855644226,24.8797208070755 61.58267855644226,24.8797208070755 57.28952884674072,26.31302773952484 57.28952884674072,26.31302773952484 46.76249325275421,28.65617275238037 46.76249325275421,28.65617275238037 40.92402458190918,29.945245385169983 40.92402458190918,29.945245385169983 35.09240448474884,28.65617275238037 35.09240448474884,28.65617275238037 24.5767742395401,26.31302773952484 24.5767742395401,26.31302773952484 20.278063416481018,24.879756569862366 20.278063416481018,24.879756569862366 16.641855239868164,22.723378241062164 16.641855239868164,22.723378241062164 13.786505162715912,19.98944878578186 13.786505162715912,19.98944878578186 11.829940229654312,16.823309659957886 11.829940229654312,16.823309659957886 10.891228169202805,13.37047964334488 10.891228169202805,13.37047964334488 11.08829602599144,9.776408970355988 11.08829602599144,9.776408970355988 12.433408200740814,6.43819198012352 12.433408200740814,6.43819198012352 14.749030768871307,3.710215911269188 14.749030768871307,3.710215911269188 17.864762246608734,1.6737965866923332 17.864762246608734,1.6737965866923332 21.61019891500473,0.4102320410311222 21.61019891500473,0.4102320410311222 25.815510749816895,0.000891227500687819 25.815510749816895,0.000891227500687819 30.310291051864624,0.5270362831652164 30.310291051864624,0.5270362831652164 32.85349905490875,1.4184064231812954 32.85349905490875,1.4184064231812954 35.071584582328796,2.832481451332569 35.071584582328796,2.832481451332569 36.97667121887207,4.676021263003349 36.97667121887207,4.676021263003349 38.57931196689606,6.855678558349609 38.57931196689606,6.855678558349609 39.89134430885315,9.278213232755661 39.89134430885315,9.278213232755661 40.92402458190918,11.850330978631973 40.92402458190918,11.850330978631973 41.96098744869232,9.278248995542526 41.96098744869232,9.278248995542526 43.27487051486969,6.855678558349609 43.27487051486969,6.855678558349609 44.87822353839874,4.676021263003349 44.87822353839874,4.676021263003349 46.78259789943695,2.832481451332569 46.78259789943695,2.832481451332569 49.000829458236694,1.4183707535266876 49.000829458236694,1.4183707535266876 51.54460668563843,0.5270362831652164 51.54460668563843,0.5270362831652164 56.04010224342346,0.0009090520507015754 56.04010224342346,0.0009090520507015754 60.24555563926697,0.41024982929229736 60.24555563926697,0.41024982929229736 63.99155855178833,1.6737965866923332 63.99155855178833,1.6737965866923332 67.10757613182068,3.7101980298757553 67.10757613182068,3.7101980298757553 69.4242000579834,6.438156217336655 69.4242000579834,6.438156217336655" stroke="white" stroke-width="0.1" /><polygon points="36.39516532421112,22.808580100536346 36.39516532421112,22.808580100536346 36.55116558074951,20.327188074588776 36.55116558074951,20.327188074588776 36.155033111572266,17.100517451763153 36.155033111572266,17.100517451763153 35.20505428314209,13.609685003757477 35.20505428314209,13.609685003757477 33.6988091468811,10.335779190063477 33.6988091468811,10.335779190063477 31.634297966957092,7.759953290224075 31.634297966957092,7.759953290224075 29.00981307029724,6.363222002983093 29.00981307029724,6.363222002983093 26.161307096481323,5.9916868805885315 26.161307096481323,5.9916868805885315 23.49218726158142,6.142981722950935 23.49218726158142,6.142981722950935 21.118812263011932,6.772473454475403 21.118812263011932,6.772473454475403 19.156257808208466,7.835208624601364 19.156257808208466,7.835208624601364 17.72116720676422,9.286483377218246 17.72116720676422,9.286483377218246 16.92904531955719,11.081451177597046 16.92904531955719,11.081451177597046 16.885553300380707,13.039834797382355 16.885553300380707,13.039834797382355 17.569302022457123,14.960500597953796 17.569302022457123,14.960500597953796 18.894878029823303,16.753651201725006 18.894878029823303,16.753651201725006 20.77643871307373,18.32948327064514 20.77643871307373,18.32948327064514 23.12842309474945,19.598199427127838 23.12842309474945,19.598199427127838 25.865846872329712,20.469997823238373 25.865846872329712,20.469997823238373 28.665298223495483,21.092431247234344 28.665298223495483,21.092431247234344 31.18041455745697,21.65123075246811 31.18041455745697,21.65123075246811 33.311375975608826,22.124402225017548 33.311375975608826,22.124402225017548 34.957507252693176,22.48973399400711 34.957507252693176,22.48973399400711 36.01885139942169,22.72516041994095 36.01885139942169,22.72516041994095" stroke="white" stroke-width="0.1" /><polygon points="45.46885788440704,22.808580100536346 45.46885788440704,22.808580100536346 55.984485149383545,20.469997823238373 55.984485149383545,20.469997823238373 58.72234106063843,19.598235189914703 58.72234106063843,19.598235189914703 61.07489466667175,18.32948327064514 61.07489466667175,18.32948327064514 62.9565954208374,16.753651201725006 62.9565954208374,16.753651201725006 64.28188681602478,14.96046632528305 64.28188681602478,14.96046632528305 64.96606469154358,13.03979903459549 64.96606469154358,13.03979903459549 64.9235725402832,11.081451177597046 64.9235725402832,11.081451177597046 64.13301825523376,9.286519140005112 64.13301825523376,9.286519140005112 62.70020604133606,7.835244387388229 62.70020604133606,7.835244387388229 60.74036359786987,6.772473454475403 60.74036359786987,6.772473454475403 58.36798548698425,6.142981722950935 58.36798548698425,6.142981722950935 55.69886565208435,5.991651117801666 55.69886565208435,5.991651117801666 52.84736752510071,6.363222002983093 52.84736752510071,6.363222002983093 50.22273659706116,7.759953290224075 50.22273659706116,7.759953290224075 48.15851151943207,10.335814952850342 48.15851151943207,10.335814952850342 46.65297865867615,13.609685003757477 46.65297865867615,13.609685003757477 45.7040011882782,17.100481688976288 45.7040011882782,17.100481688976288 45.30986249446869,20.32715231180191 45.30986249446869,20.32715231180191" stroke="white" stroke-width="0.1" /></svg>