<?xml version="1.0" encoding="utf-8" ?>
<svg baseProfile="full" height="100.0" version="1.1" width="92.3261821269989" xmlns="http://www.w3.org/2000/svg" xmlns:ev="http://www.w3.org/2001/xml-events" xmlns:xlink="http://www.w3.org/1999/xlink"><defs><clipPath /></defs><polygon points="19.810955226421356,59.97608304023743 19.810955226421356,59.97608304023743 18.92552077770233,60.36897897720337 18.92552077770233,60.36897897720337 18.05688440799713,60.77033877372742 18.05688440799713,60.77033877372742 17.205186188220978,61.1785352230072 17.205186188220978,61.1785352230072 16.369006037712097,61.59178614616394 16.369006037712097,61.59178614616394 15.548200905323029,62.00888156890869 15.548200905323029,62.00888156890869 14.742057025432587,62.42796778678894 14.742057025432587,62.42796778678894 12.234226614236832,58.98445248603821 12.234226614236832,58.98445248603821 10.114593803882599,55.26769161224365 10.114593803882599,55.26769161224365 8.41347798705101,51.30751132965088 8.41347798705101,51.30751132965088 7.160773128271103,47.13365435600281 7.160773128271103,47.13365435600281 6.387085467576981,42.77602136135101 6.387085467576981,42.77602136135101 6.1223093420267105,38.26443254947662 6.1223093420267105,38.26443254947662 7.49145895242691,28.104358911514282 7.49145895242691,28.104358911514282 11.354344338178635,18.9671590924263 11.354344338178635,18.9671590924263 17.343410849571228,11.220532655715942 17.343410849571228,11.220532655715942 25.090819597244263,5.2319638431072235 25.090819597244263,5.2319638431072235 34.22944247722626,1.3692916370928288 34.22944247722626,1.3692916370928288 44.39129829406738,0.0 44.39129829406738,0.0 54.55172657966614,1.3692204840481281 54.55172657966614,1.3692204840481281 63.6890709400177,5.231892690062523 63.6890709400177,5.231892690062523 71.43619656562805,11.220532655715942 71.43619656562805,11.220532655715942 77.42483615875244,18.9671590924263 77.42483615875244,18.9671590924263 81.28772377967834,28.104430437088013 81.28772377967834,28.104430437088013 82.65687227249146,38.26443254947662 82.65687227249146,38.26443254947662 82.2261095046997,44.00929510593414 82.2261095046997,44.00929510593414 80.9761106967926,49.488455057144165 80.9761106967926,49.488455057144165 78.97036075592041,54.63955998420715 78.97036075592041,54.63955998420715 76.27149224281311,59.399980306625366 76.27149224281311,59.399980306625366 72.94300198554993,63.70729207992554 72.94300198554993,63.70729207992554 69.04793977737427,67.49914288520813 69.04793977737427,67.49914288520813 68.70430111885071,67.45693683624268 68.70430111885071,67.45693683624268 68.36109161376953,67.41487383842468 68.36109161376953,67.41487383842468 68.01859140396118,67.37316250801086 68.01859140396118,67.37316250801086 67.67722964286804,67.3315942287445 67.67722964286804,67.3315942287445 67.33771562576294,67.29045510292053 67.33771562576294,67.29045510292053 67.00034141540527,67.24973917007446 67.00034141540527,67.24973917007446 66.91805720329285,67.1770691871643 66.91805720329285,67.1770691871643 66.8263852596283,67.09614396095276 66.8263852596283,67.09614396095276 66.72588586807251,67.00774431228638 66.72588586807251,67.00774431228638 66.61655902862549,66.91193580627441 66.61655902862549,66.91193580627441 66.49882793426514,66.80958867073059 66.49882793426514,66.80958867073059 66.37284755706787,66.70082807540894 66.37284755706787,66.70082807540894 65.9635841846466,66.35420322418213 65.9635841846466,66.35420322418213 65.55090546607971,66.01027846336365 65.55090546607971,66.01027846336365 65.13480544090271,65.66891670227051 65.13480544090271,65.66891670227051 64.71543312072754,65.3296172618866 64.71543312072754,65.3296172618866 64.29336071014404,64.99223709106445 64.29336071014404,64.99223709106445 63.86857628822327,64.65664505958557 63.86857628822327,64.65664505958557 67.66085624694824,61.378759145736694 67.66085624694824,61.378759145736694 70.91333270072937,57.56412744522095 70.91333270072937,57.56412744522095 73.55952858924866,53.278952836990356 73.55952858924866,53.278952836990356 75.53225755691528,48.589637875556946 75.53225755691528,48.589637875556946 76.76488757133484,43.56266260147095 76.76488757133484,43.56266260147095 77.1905243396759,38.26443254947662 77.1905243396759,38.26443254947662 76.01881623268127,29.545608162879944 76.01881623268127,29.545608162879944 72.71238565444946,21.710938215255737 72.71238565444946,21.710938215255737 67.58412718772888,15.073026716709137 67.58412718772888,15.073026716709137 60.94593405723572,9.944482147693634 60.94593405723572,9.944482147693634 53.11097502708435,6.638053804636002 53.11097502708435,6.638053804636002 44.39129829406738,5.466347560286522 44.39129829406738,5.466347560286522 35.67104935646057,6.637982279062271 35.67104935646057,6.637982279062271 27.835240960121155,9.944410622119904 27.835240960121155,9.944410622119904 21.19690179824829,15.073026716709137 21.19690179824829,15.073026716709137 16.067931056022644,21.71100825071335 16.067931056022644,21.71100825071335 12.761501967906952,29.545751214027405 12.761501967906952,29.545751214027405 11.589796096086502,38.26443254947662 11.589796096086502,38.26443254947662 11.843753606081009,42.3630565404892 11.843753606081009,42.3630565404892 12.584984302520752,46.3097870349884 12.584984302520752,46.3097870349884 13.783310353755951,50.074732303619385 13.783310353755951,50.074732303619385 15.407413244247437,53.62743139266968 15.407413244247437,53.62743139266968 17.42711514234543,56.93784952163696 17.42711514234543,56.93784952163696" stroke="white" stroke-width="0.1" /><polygon points="92.22867488861084,85.45040488243103 92.22867488861084,85.45040488243103 92.3261821269989,85.7889175415039 92.3261821269989,85.7889175415039 92.32034683227539,86.28323674201965 92.32034683227539,86.28323674201965 92.2464668750763,86.85641884803772 92.2464668750763,86.85641884803772 92.13955998420715,87.43152618408203 92.13955998420715,87.43152618408203 92.0350730419159,87.93182373046875 92.0350730419159,87.93182373046875 91.9678807258606,88.2803738117218 91.9678807258606,88.2803738117218 91.83834195137024,89.18837308883667 91.83834195137024,89.18837308883667 91.69371128082275,90.13046622276306 91.69371128082275,90.13046622276306 91.50068163871765,91.0741925239563 91.50068163871765,91.0741925239563 91.22608304023743,91.98688864707947 91.22608304023743,91.98688864707947 90.83717465400696,92.83609390258789 90.83717465400696,92.83609390258789 90.30064940452576,93.58956813812256 90.30064940452576,93.58956813812256 89.52140808105469,94.28389072418213 89.52140808105469,94.28389072418213 88.658607006073,94.76091861724854 88.658607006073,94.76091861724854 87.7317488193512,95.06875276565552 87.7317488193512,95.06875276565552 86.7591917514801,95.25566101074219 86.7591917514801,95.25566101074219 85.76073050498962,95.37025690078735 85.76073050498962,95.37025690078735 84.75458025932312,95.46065330505371 84.75458025932312,95.46065330505371 85.45709252357483,91.1839485168457 85.45709252357483,91.1839485168457 84.74518656730652,87.09158897399902 84.74518656730652,87.09158897399902 82.82684087753296,83.46145153045654 82.82684087753296,83.46145153045654 79.9101710319519,80.57111501693726 79.9101710319519,80.57111501693726 76.20387673377991,78.69832515716553 76.20387673377991,78.69832515716553 71.9154953956604,78.1209409236908 71.9154953956604,78.1209409236908 67.71481037139893,78.99534106254578 67.71481037139893,78.99534106254578 64.17207717895508,81.1048686504364 64.17207717895508,81.1048686504364 61.473774909973145,84.16367769241333 61.473774909973145,84.16367769241333 59.80611443519592,87.88563013076782 59.80611443519592,87.88563013076782 59.355711936950684,91.98496341705322 59.355711936950684,91.98496341705322 60.30861735343933,96.17583155632019 60.30861735343933,96.17583155632019 55.849844217300415,95.8583116531372 55.849844217300415,95.8583116531372 51.39904022216797,95.61752676963806 51.39904022216797,95.61752676963806 46.95165455341339,95.46378254890442 46.95165455341339,95.46378254890442 42.50227510929108,95.40691375732422 42.50227510929108,95.40691375732422 38.04649114608765,95.4572319984436 38.04649114608765,95.4572319984436 33.57931673526764,95.62464356422424 33.57931673526764,95.62464356422424 34.332647919654846,91.67364239692688 34.332647919654846,91.67364239692688 33.85690748691559,87.81979084014893 33.85690748691559,87.81979084014893 32.30412304401398,84.3037486076355 32.30412304401398,84.3037486076355 29.825475811958313,81.3657283782959 29.825475811958313,81.3657283782959 26.572996377944946,79.24673557281494 26.572996377944946,79.24673557281494 22.697870433330536,78.18699479103088 22.697870433330536,78.18699479103088 18.745729327201843,78.37404608726501 18.745729327201843,78.37404608726501 15.156587958335876,79.69358563423157 15.156587958335876,79.69358563423157 12.122337520122528,81.95592761039734 12.122337520122528,81.95592761039734 9.834300726652145,84.97088551521301 9.834300726652145,84.97088551521301 8.484511822462082,88.5488510131836 8.484511822462082,88.5488510131836 8.264434337615967,92.49971508979797 8.264434337615967,92.49971508979797 7.428823411464691,92.06966757774353 7.428823411464691,92.06966757774353 6.591788679361343,91.64125323295593 6.591788679361343,91.64125323295593 5.752761662006378,91.21725559234619 5.752761662006378,91.21725559234619 4.910175129771233,90.799880027771 4.910175129771233,90.799880027771 4.063033685088158,90.39175510406494 4.063033685088158,90.39175510406494 3.210340440273285,89.99544382095337 3.210340440273285,89.99544382095337 2.8607219457626343,89.85679149627686 2.8607219457626343,89.85679149627686 2.4844834581017494,89.72703814506531 2.4844834581017494,89.72703814506531 2.1058250218629837,89.58703279495239 2.1058250218629837,89.58703279495239 1.7482347786426544,89.41763043403625 1.7482347786426544,89.41763043403625 1.4361974783241749,89.19983506202698 1.4361974783241749,89.19983506202698 1.1934858746826649,88.91469836235046 1.1934858746826649,88.91469836235046 0.718454597517848,87.91808485984802 0.718454597517848,87.91808485984802 0.40399725548923016,86.80944442749023 0.40399725548923016,86.80944442749023 0.21281742956489325,85.63446402549744 0.21281742956489325,85.63446402549744 0.10719166602939367,84.43869948387146 0.10719166602939367,84.43869948387146 0.04996583447791636,83.2676351070404 0.04996583447791636,83.2676351070404 0.0034164673706982285,82.16717839241028 0.0034164673706982285,82.16717839241028 0.003274114351370372,82.16717839241028 0.003274114351370372,82.16717839241028 0.003274114351370372,82.16710686683655 0.003274114351370372,82.16710686683655 0.0034164673706982285,82.16717839241028 0.0034164673706982285,82.16717839241028 0.0034164673706982285,82.16717839241028 0.0034164673706982285,82.16717839241028 0.0034164673706982285,82.16717839241028 0.0034164673706982285,82.16717839241028 0.0034164673706982285,82.16717839241028 0.0034164673706982285,82.16717839241028 0.0034164673706982285,82.16603994369507 0.0034164673706982285,82.16603994369507 0.07359639857895672,81.40814900398254 0.07359639857895672,81.40814900398254 0.32556087244302034,80.82870244979858 0.32556087244302034,80.82870244979858 0.695251114666462,80.35715818405151 0.695251114666462,80.35715818405151 1.11860828474164,79.92241382598877 1.11860828474164,79.92241382598877 1.5322855673730373,79.4537901878357 1.5322855673730373,79.4537901878357 1.8722239881753922,78.8805365562439 1.8722239881753922,78.8805365562439 2.053581550717354,78.34521532058716 2.053581550717354,78.34521532058716 2.1724460646510124,77.7711808681488 2.1724460646510124,77.7711808681488 2.2476084530353546,77.17528939247131 2.2476084530353546,77.17528939247131 2.297574281692505,76.57406330108643 2.297574281692505,76.57406330108643 2.341703698039055,75.9843647480011 2.341703698039055,75.9843647480011 2.398359961807728,75.42306780815125 2.398359961807728,75.42306780815125 2.515231631696224,74.43642616271973 2.515231631696224,74.43642616271973 2.6857703924179077,73.26030731201172 2.6857703924179077,73.26030731201172 2.9649242758750916,72.05329537391663 2.9649242758750916,72.05329537391663 3.4066449850797653,70.97283601760864 3.4066449850797653,70.97283601760864 4.066165536642075,70.17737030982971 4.066165536642075,70.17737030982971 4.9971528351306915,69.82461810112 4.9971528351306915,69.82461810112 6.485878676176071,69.74653601646423 6.485878676176071,69.74653601646423 7.96407014131546,69.68852877616882 7.96407014131546,69.68852877616882 9.424040466547012,69.59215998649597 9.424040466547012,69.59215998649597 10.857532918453217,69.39841508865356 10.857532918453217,69.39841508865356 12.256718426942825,69.04865503311157 12.256718426942825,69.04865503311157 13.613483309745789,68.48422288894653 13.613483309745789,68.48422288894653 15.182353556156158,67.66014695167542 15.182353556156158,67.66014695167542 16.755209863185883,66.8281614780426 16.755209863185883,66.8281614780426 18.336892127990723,66.007000207901 18.336892127990723,66.007000207901 19.931669533252716,65.21509289741516 19.931669533252716,65.21509289741516 21.544812619686127,64.47144150733948 21.544812619686127,64.47144150733948 23.180730640888214,63.79455327987671 23.180730640888214,63.79455327987671 25.103917717933655,63.11083436012268 25.103917717933655,63.11083436012268 27.060699462890625,62.52448558807373 27.060699462890625,62.52448558807373 29.043957591056824,62.02966570854187 29.043957591056824,62.02966570854187 31.047287583351135,61.61947250366211 31.047287583351135,61.61947250366211 33.064284920692444,61.287862062454224 33.064284920692444,61.287862062454224 35.08825898170471,61.02835536003113 35.08825898170471,61.02835536003113 37.06667721271515,60.82272529602051 37.06667721271515,60.82272529602051 39.09321129322052,60.66066026687622 39.09321129322052,60.66066026687622 41.14266633987427,60.571545362472534 41.14266633987427,60.571545362472534 43.18998157978058,60.584282875061035 43.18998157978058,60.584282875061035 45.21068036556244,60.728347301483154 45.21068036556244,60.728347301483154 47.17913568019867,61.03290915489197 47.17913568019867,61.03290915489197 48.690780997276306,61.41505837440491 48.690780997276306,61.41505837440491 50.16811490058899,61.92353963851929 50.16811490058899,61.92353963851929 51.61043405532837,62.537723779678345 51.61043405532837,62.537723779678345 53.016453981399536,63.23639154434204 53.016453981399536,63.23639154434204 54.38603162765503,63.998544216156006 54.38603162765503,63.998544216156006 55.71802854537964,64.80355262756348 55.71802854537964,64.80355262756348 57.02895522117615,65.64841270446777 57.02895522117615,65.64841270446777 58.31568241119385,66.53093099594116 58.31568241119385,66.53093099594116 59.57906246185303,67.44818091392517 59.57906246185303,67.44818091392517 60.818952322006226,68.39653849601746 60.818952322006226,68.39653849601746 62.03621029853821,69.37314867973328 62.03621029853821,69.37314867973328 63.230836391448975,70.37467360496521 63.230836391448975,70.37467360496521 63.76380920410156,70.84165811538696 63.76380920410156,70.84165811538696 64.2021119594574,71.22024893760681 64.2021119594574,71.22024893760681 64.60682153701782,71.51947021484375 64.60682153701782,71.51947021484375 65.03843069076538,71.74773216247559 65.03843069076538,71.74773216247559 65.55830836296082,71.91407680511475 65.55830836296082,71.91407680511475 66.22707843780518,72.02709913253784 66.22707843780518,72.02709913253784 70.05622982978821,72.49287962913513 70.05622982978821,72.49287962913513 73.92609119415283,73.04563522338867 73.92609119415283,73.04563522338867 77.78911590576172,73.74558448791504 77.78911590576172,73.74558448791504 81.59833550453186,74.65272545814514 81.59833550453186,74.65272545814514 85.30662655830383,75.82735419273376 85.30662655830383,75.82735419273376 88.86687159538269,77.32945680618286 88.86687159538269,77.32945680618286 89.22787308692932,77.5022029876709 89.22787308692932,77.5022029876709 89.76155519485474,77.77552008628845 89.76155519485474,77.77552008628845 90.32100439071655,78.11353802680969 90.32100439071655,78.11353802680969 90.75959324836731,78.47995162010193 90.75959324836731,78.47995162010193 90.93070030212402,78.83868217468262 90.93070030212402,78.83868217468262 90.68784713745117,79.15385365486145 90.68784713745117,79.15385365486145 90.57083129882812,79.35229539871216 90.57083129882812,79.35229539871216 90.48855304718018,79.74005937576294 90.48855304718018,79.74005937576294 90.43346047401428,80.22918701171875 90.43346047401428,80.22918701171875 90.39759039878845,80.73176145553589 90.39759039878845,80.73176145553589 90.37381410598755,81.1599612236023 90.37381410598755,81.1599612236023 90.35416841506958,81.42580389976501 90.35416841506958,81.42580389976501 90.28313755989075,81.9614052772522 90.28313755989075,81.9614052772522 90.21153450012207,82.49679207801819 90.21153450012207,82.49679207801819 90.14007449150085,83.03239941596985 90.14007449150085,83.03239941596985 90.06832838058472,83.56807231903076 90.06832838058472,83.56807231903076 89.99700546264648,84.10410284996033 89.99700546264648,84.10410284996033 89.92597460746765,84.64069962501526 89.92597460746765,84.64069962501526 90.07131457328796,84.77102518081665 90.07131457328796,84.77102518081665 90.4662013053894,84.90518927574158 90.4662013053894,84.90518927574158 90.9949004650116,85.04170775413513 90.9949004650116,85.04170775413513 91.54167771339417,85.17900705337524 91.54167771339417,85.17900705337524 91.9916570186615,85.31573414802551 91.9916570186615,85.31573414802551" stroke="white" stroke-width="0.1" /><polygon points="35.653114318847656,71.20259404182434 35.653114318847656,71.20259404182434 35.80998778343201,71.4535653591156 35.80998778343201,71.4535653591156 36.02195084095001,71.59570455551147 36.02195084095001,71.59570455551147 36.27747297286987,71.65897488594055 36.27747297286987,71.65897488594055 36.5641713142395,71.67292833328247 36.5641713142395,71.67292833328247 36.87037229537964,71.66765928268433 36.87037229537964,71.66765928268433 37.18369007110596,71.67292833328247 37.18369007110596,71.67292833328247 38.35610747337341,71.74859046936035 38.35610747337341,71.74859046936035 39.52866792678833,71.81748747825623 39.52866792678833,71.81748747825623 40.70194065570831,71.88019156455994 40.70194065570831,71.88019156455994 41.875213384628296,71.93670868873596 41.875213384628296,71.93670868873596 43.04891228675842,71.98752760887146 43.04891228675842,71.98752760887146 44.22275125980377,72.03279733657837 44.22275125980377,72.03279733657837 45.176658034324646,72.06710577011108 45.176658034324646,72.06710577011108 46.131134033203125,72.09877371788025 46.131134033203125,72.09877371788025 47.08617925643921,72.12746143341064 47.08617925643921,72.12746143341064 48.041367530822754,72.15322852134705 48.041367530822754,72.15322852134705 48.99683892726898,72.17593193054199 48.99683892726898,72.17593193054199 49.95216727256775,72.19564914703369 49.95216727256775,72.19564914703369 50.50193667411804,72.20625281333923 50.50193667411804,72.20625281333923 51.05212926864624,72.2157895565033 51.05212926864624,72.2157895565033 51.603031158447266,72.22397327423096 51.603031158447266,72.22397327423096 52.15379595756531,72.23088145256042 52.15379595756531,72.23088145256042 52.70441770553589,72.2366452217102 52.70441770553589,72.2366452217102 53.25475335121155,72.24119901657104 53.25475335121155,72.24119901657104 53.27696204185486,72.17600345611572 53.27696204185486,72.17600345611572 53.28536033630371,72.06994891166687 53.28536033630371,72.06994891166687 53.284502029418945,71.9432532787323 53.284502029418945,71.9432532787323 53.278666734695435,71.81556820869446 53.278666734695435,71.81556820869446 53.27268838882446,71.70709371566772 53.27268838882446,71.70709371566772 53.270697593688965,71.637624502182 53.270697593688965,71.637624502182 53.282368183135986,71.30935788154602 53.282368183135986,71.30935788154602 53.30955982208252,70.81624865531921 53.30955982208252,70.81624865531921 53.37233543395996,70.25865316390991 53.37233543395996,70.25865316390991 53.49063277244568,69.73636150360107 53.49063277244568,69.73636150360107 53.68465781211853,69.3494439125061 53.68465781211853,69.3494439125061 53.974491357803345,69.19826865196228 53.974491357803345,69.19826865196228 54.3310821056366,69.16154026985168 54.3310821056366,69.16154026985168 54.55899238586426,69.05975937843323 54.55899238586426,69.05975937843323 54.673582315444946,68.90445351600647 54.673582315444946,68.90445351600647 54.68909740447998,68.70729327201843 54.68909740447998,68.70729327201843 54.62091565132141,68.48024129867554 54.62091565132141,68.48024129867554 54.48354482650757,68.23482513427734 54.48354482650757,68.23482513427734 53.699034452438354,67.2762930393219 53.699034452438354,67.2762930393219 52.75837182998657,66.46466851234436 52.75837182998657,66.46466851234436 51.704102754592896,65.77696204185486 51.704102754592896,65.77696204185486 50.57780742645264,65.18954038619995 50.57780742645264,65.18954038619995 49.42176043987274,64.67927694320679 49.42176043987274,64.67927694320679 48.27809929847717,64.22275304794312 48.27809929847717,64.22275304794312 47.019416093826294,63.803595304489136 47.019416093826294,63.803595304489136 45.73895335197449,63.50564956665039 45.73895335197449,63.50564956665039 44.441547989845276,63.31269145011902 44.441547989845276,63.31269145011902 43.13062131404877,63.20841908454895 43.13062131404877,63.20841908454895 41.811010241508484,63.17674517631531 41.811010241508484,63.17674517631531 40.486276149749756,63.20123076438904 40.486276149749756,63.20123076438904 39.522263407707214,63.221657276153564 39.522263407707214,63.221657276153564 38.38286995887756,63.27183246612549 38.38286995887756,63.27183246612549 37.19223141670227,63.41632604598999 37.19223141670227,63.41632604598999 36.07376515865326,63.71967792510986 36.07376515865326,63.71967792510986 35.15203297138214,64.246666431427 35.15203297138214,64.246666431427 34.550732374191284,65.06206393241882 34.550732374191284,65.06206393241882 34.33862924575806,66.01497530937195 34.33862924575806,66.01497530937195 34.374359250068665,67.07400679588318 34.374359250068665,67.07400679588318 34.59073603153229,68.18101406097412 34.59073603153229,68.18101406097412 34.92056727409363,69.27706003189087 34.92056727409363,69.27706003189087 35.29723286628723,70.30377984046936 35.29723286628723,70.30377984046936" stroke="white" stroke-width="0.1" /><polygon points="25.79774558544159,70.4919695854187 25.79774558544159,70.4919695854187 26.81741714477539,70.5197274684906 26.81741714477539,70.5197274684906 27.939867973327637,70.52357196807861 27.939867973327637,70.52357196807861 29.021039605140686,70.40385007858276 29.021039605140686,70.40385007858276 29.916012287139893,70.06092667579651 29.916012287139893,70.06092667579651 30.480298399925232,69.39535737037659 30.480298399925232,69.39535737037659 30.56941032409668,68.30770969390869 30.56941032409668,68.30770969390869 30.4558128118515,67.68832802772522 30.4558128118515,67.68832802772522 30.30121624469757,67.06873774528503 30.30121624469757,67.06873774528503 30.110037326812744,66.45427346229553 30.110037326812744,66.45427346229553 29.88554835319519,65.85041284561157 29.88554835319519,65.85041284561157 29.63244318962097,65.26263952255249 29.63244318962097,65.26263952255249 29.354286193847656,64.69650268554688 29.354286193847656,64.69650268554688 29.12495732307434,64.4867479801178 29.12495732307434,64.4867479801178 28.77306044101715,64.40902352333069 28.77306044101715,64.40902352333069 28.353261947631836,64.42546248435974 28.353261947631836,64.42546248435974 27.9196560382843,64.49834704399109 27.9196560382843,64.49834704399109 27.52676010131836,64.59030508995056 27.52676010131836,64.59030508995056 27.229243516921997,64.66347575187683 27.229243516921997,64.66347575187683 26.053836941719055,64.94583487510681 26.053836941719055,64.94583487510681 24.715009331703186,65.34121632575989 24.715009331703186,65.34121632575989 23.34628701210022,65.86863398551941 23.34628701210022,65.86863398551941 22.079631686210632,66.54680371284485 22.079631686210632,66.54680371284485 21.04828506708145,67.39494204521179 21.04828506708145,67.39494204521179 20.38492113351822,68.43184232711792 20.38492113351822,68.43184232711792 20.443713665008545,69.30467486381531 20.443713665008545,69.30467486381531 21.22124433517456,69.88668441772461 21.22124433517456,69.88668441772461 22.431527078151703,70.23743987083435 22.431527078151703,70.23743987083435 23.788292706012726,70.41566967964172 23.788292706012726,70.41566967964172 25.00583529472351,70.48072218894958 25.00583529472351,70.48072218894958" stroke="white" stroke-width="0.1" /><polygon points="20.79148143529892,82.39607810974121 20.79148143529892,82.39607810974121 23.041793704032898,82.57032036781311 23.041793704032898,82.57032036781311 25.124984979629517,83.29503536224365 25.124984979629517,83.29503536224365 26.9533634185791,84.4967782497406 26.9533634185791,84.4967782497406 28.438958525657654,86.10244989395142 28.438958525657654,86.10244989395142 29.494646191596985,88.03915977478027 29.494646191596985,88.03915977478027 30.03188669681549,90.23345708847046 30.03188669681549,90.23345708847046 29.934802651405334,92.73829460144043 29.934802651405334,92.73829460144043 29.15613055229187,95.04569172859192 29.15613055229187,95.04569172859192 27.79851257801056,97.04062342643738 27.79851257801056,97.04062342643738 25.964155793190002,98.60785603523254 25.964155793190002,98.60785603523254 23.75612109899521,99.632728099823 23.75612109899521,99.632728099823 21.276620030403137,100.0 21.276620030403137,100.0 18.962673842906952,99.68041777610779 18.962673842906952,99.68041777610779 16.86624437570572,98.78138899803162 16.86624437570572,98.78138899803162 15.078294277191162,97.39308953285217 15.078294277191162,97.39308953285217 13.688787817955017,95.60521245002747 13.688787817955017,95.60521245002747 12.788975238800049,93.50799918174744 12.788975238800049,93.50799918174744 12.468966841697693,91.19120836257935 12.468966841697693,91.19120836257935 12.765344977378845,88.95441889762878 12.765344977378845,88.95441889762878 13.602237403392792,86.91499829292297 13.602237403392792,86.91499829292297 14.90149199962616,85.1563036441803 14.90149199962616,85.1563036441803 16.584813594818115,83.76124501228333 16.584813594818115,83.76124501228333 18.574193120002747,82.81360268592834 18.574193120002747,82.81360268592834" stroke="white" stroke-width="0.1" /><polygon points="71.91094160079956,82.39607810974121 71.91094160079956,82.39607810974121 74.07940030097961,82.5528085231781 74.07940030097961,82.5528085231781 76.1003851890564,83.22315216064453 76.1003851890564,83.22315216064453 77.89289355278015,84.3431830406189 77.89289355278015,84.3431830406189 79.3756365776062,85.84898710250854 79.3756365776062,85.84898710250854 80.46805262565613,87.67694234848022 80.46805262565613,87.67694234848022 81.0887098312378,89.76312279701233 81.0887098312378,89.76312279701233 81.12714886665344,92.26269721984863 81.12714886665344,92.26269721984863 80.47801852226257,94.60354447364807 80.47801852226257,94.60354447364807 79.2368471622467,96.66595458984375 79.2368471622467,96.66595458984375 77.49828696250916,98.32991361618042 77.49828696250916,98.32991361618042 75.35858750343323,99.47592616081238 75.35858750343323,99.47592616081238 72.91196584701538,99.98405575752258 72.91196584701538,99.98405575752258 70.49225568771362,99.77992177009583 70.49225568771362,99.77992177009583 68.28137040138245,98.94274473190308 68.28137040138245,98.94274473190308 66.38267040252686,97.5687563419342 66.38267040252686,97.5687563419342 64.89878296852112,95.75453996658325 64.89878296852112,95.75453996658325 63.93306255340576,93.59647035598755 63.93306255340576,93.59647035598755 63.58842849731445,91.19120836257935 63.58842849731445,91.19120836257935 63.884949684143066,88.95441889762878 63.884949684143066,88.95441889762878 64.7218406200409,86.91499829292297 64.7218406200409,86.91499829292297 66.02137684822083,85.1563036441803 66.02137684822083,85.1563036441803 67.70470142364502,83.76124501228333 67.70470142364502,83.76124501228333 69.69408392906189,82.81360268592834 69.69408392906189,82.81360268592834" stroke="white" stroke-width="0.1" /><polygon points="65.00398516654968,22.159206867218018 65.00398516654968,22.159206867218018 48.89875650405884,38.26557099819183 48.89875650405884,38.26557099819183 65.00398516654968,54.37307953834534 65.00398516654968,54.37307953834534 60.49538850784302,58.881676197052 60.49538850784302,58.881676197052 44.38902139663696,42.77530908584595 44.38902139663696,42.77530908584595 28.283792734146118,58.881676197052 28.283792734146118,58.881676197052 23.772917687892914,54.37307953834534 23.772917687892914,54.37307953834534 39.87928330898285,38.26557099819183 39.87928330898285,38.26557099819183 23.772917687892914,22.159206867218018 23.772917687892914,22.159206867218018 28.283792734146118,17.650608718395233 28.283792734146118,17.650608718395233 44.38902139663696,33.75583589076996 44.38902139663696,33.75583589076996 60.49538850784302,17.650608718395233 60.49538850784302,17.650608718395233" stroke="white" stroke-width="0.1" /></svg>