<?xml version="1.0" encoding="utf-8" ?>
<svg baseProfile="full" height="100.0" version="1.1" width="95.38671374320984" xmlns="http://www.w3.org/2000/svg" xmlns:ev="http://www.w3.org/2001/xml-events" xmlns:xlink="http://www.w3.org/1999/xlink"><defs><clipPath /></defs><polygon points="95.38671374320984,74.34179782867432 95.38671374320984,74.34179782867432 93.682861328125,81.16198778152466 93.682861328125,81.16198778152466 88.87426853179932,87.29101419448853 88.87426853179932,87.29101419448853 81.41674399375916,92.48425364494324 81.41674399375916,92.48425364494324 71.76415920257568,96.49645686149597 71.76415920257568,96.49645686149597 60.371577739715576,99.08349514007568 60.371577739715576,99.08349514007568 47.69335687160492,100.0 47.69335687160492,100.0 35.01538038253784,99.08312559127808 35.01538038253784,99.08312559127808 23.622557520866394,96.49633765220642 23.622557520866394,96.49633765220642 13.969969749450684,92.48425364494324 13.969969749450684,92.48425364494324 6.512206792831421,87.29113340377808 6.512206792831421,87.29113340377808 1.704101450741291,81.16223216056824 1.704101450741291,81.16223216056824 0.0,74.34179782867432 0.0,74.34179782867432 0.44580078683793545,70.82226276397705 0.44580078683793545,70.82226276397705 1.7446288838982582,67.44958162307739 1.7446288838982582,67.44958162307739 3.836669772863388,64.25512433052063 3.836669772863388,64.25512433052063 6.6621094942092896,61.26965284347534 6.6621094942092896,61.26965284347534 10.161621123552322,58.524537086486816 10.161621123552322,58.524537086486816 14.275389909744263,56.050777435302734 14.275389909744263,56.050777435302734 15.619140863418579,57.39550590515137 15.619140863418579,57.39550590515137 21.400390565395355,63.175779581069946 21.400390565395355,63.175779581069946 20.293211936950684,64.36218023300171 20.293211936950684,64.36218023300171 19.365721940994263,65.60156345367432 19.365721940994263,65.60156345367432 18.627440929412842,66.88854694366455 18.627440929412842,66.88854694366455 18.08789074420929,68.21838021278381 18.08789074420929,68.21838021278381 17.757079005241394,69.586181640625 17.757079005241394,69.586181640625 17.644530534744263,70.98730206489563 17.644530534744263,70.98730206489563 18.719482421875,75.27929544448853 18.719482421875,75.27929544448853 21.751952171325684,79.13916110992432 21.751952171325684,79.13916110992432 26.454344391822815,82.41174221038818 26.454344391822815,82.41174221038818 32.53735303878784,84.9414050579071 32.53735303878784,84.9414050579071 39.71337676048279,86.57299876213074 39.71337676048279,86.57299876213074 47.69335687160492,87.15136647224426 47.69335687160492,87.15136647224426 55.67333698272705,86.57299876213074 55.67333698272705,86.57299876213074 62.849122285842896,84.94127988815308 62.849122285842896,84.94127988815308 68.93237233161926,82.41174221038818 68.93237233161926,82.41174221038818 73.63451719284058,79.13928031921387 73.63451719284058,79.13928031921387 76.66723728179932,75.2795398235321 76.66723728179932,75.2795398235321 77.74218320846558,70.98730206489563 77.74218320846558,70.98730206489563 77.63037085533142,69.5904552936554 77.63037085533142,69.5904552936554 77.3022472858429,68.22668313980103 77.3022472858429,68.22668313980103 76.76684260368347,66.90099835395813 76.76684260368347,66.90099835395813 76.03344321250916,65.61779379844666 76.03344321250916,65.61779379844666 75.11205673217773,64.38232064247131 75.11205673217773,64.38232064247131 74.01171922683716,63.19921612739563 74.01171922683716,63.19921612739563 78.47656011581421,58.73437523841858 78.47656011581421,58.73437523841858 81.14452958106995,56.06640577316284 81.14452958106995,56.06640577316284 85.24901866912842,58.53906273841858 85.24901866912842,58.53906273841858 88.740473985672,61.28259301185608 88.740473985672,61.28259301185608 91.55932664871216,64.26586508750916 91.55932664871216,64.26586508750916 93.64599585533142,67.45739579200745 93.64599585533142,67.45739579200745 94.941645860672,70.82653641700745 94.941645860672,70.82653641700745" stroke="white" stroke-width="0.1" /><polygon points="41.62695109844208,70.93163728713989 41.62695109844208,70.93163728713989 21.857421100139618,51.15917921066284 21.857421100139618,51.15917921066284 14.103515446186066,43.407225608825684 14.103515446186066,43.407225608825684 13.642577826976776,42.94140636920929 13.642577826976776,42.94140636920929 13.199950754642487,42.4689918756485 13.199950754642487,42.4689918756485 12.787109613418579,41.978269815444946 12.787109613418579,41.978269815444946 12.414306402206421,41.456541419029236 12.414306402206421,41.456541419029236 12.093017250299454,40.891966223716736 12.093017250299454,40.891966223716736 11.833984404802322,40.272459387779236 11.833984404802322,40.272459387779236 11.507079750299454,38.319700956344604 11.507079750299454,38.319700956344604 11.813964694738388,36.444091796875 11.813964694738388,36.444091796875 12.665526568889618,34.76977348327637 12.665526568889618,34.76977348327637 13.971434533596039,33.42028856277466 13.971434533596039,33.42028856277466 15.642821788787842,32.51989781856537 15.642821788787842,32.51989781856537 17.589843273162842,32.19238221645355 17.589843273162842,32.19238221645355 31.595700979232788,32.19238221645355 31.595700979232788,32.19238221645355 31.595700979232788,5.512695014476776 31.595700979232788,5.512695014476776 31.79345726966858,4.051513597369194 31.79345726966858,4.051513597369194 32.35107362270355,2.7358397841453552 32.35107362270355,2.7358397841453552 33.21508765220642,1.619262620806694 33.21508765220642,1.619262620806694 34.33154225349426,0.755249010398984 34.33154225349426,0.755249010398984 35.64770519733429,0.19775389228016138 35.64770519733429,0.19775389228016138 37.109375,0.0 37.109375,0.0 58.275389671325684,0.0 58.275389671325684,0.0 59.737056493759155,0.1978759653866291 59.737056493759155,0.1978759653866291 61.05297803878784,0.7553710602223873 61.05297803878784,0.7553710602223873 62.16967701911926,1.619262620806694 62.16967701911926,1.619262620806694 63.03344368934631,2.7357177808880806 63.03344368934631,2.7357177808880806 63.591307401657104,4.051513597369194 63.591307401657104,4.051513597369194 63.789063692092896,5.512695014476776 63.789063692092896,5.512695014476776 63.789063692092896,32.19238221645355 63.789063692092896,32.19238221645355 77.83789038658142,32.19238221645355 77.83789038658142,32.19238221645355 80.26513457298279,32.70190358161926 80.26513457298279,32.70190358161926 82.15356469154358,34.05395448207855 82.15356469154358,34.05395448207855 83.39428305625916,35.98449528217316 83.39428305625916,35.98449528217316 83.87719392776489,38.22912573814392 83.87719392776489,38.22912573814392 83.49413871765137,40.52392542362213 83.49413871765137,40.52392542362213 82.13476538658142,42.604491114616394 82.13476538658142,42.604491114616394 81.66064023971558,43.07616949081421 81.66064023971558,43.07616949081421 81.18725419044495,43.548583984375 81.18725419044495,43.548583984375 80.71459531784058,44.02148425579071 80.71459531784058,44.02148425579071 80.24218678474426,44.49414014816284 80.24218678474426,44.49414014816284 79.77050542831421,44.966673851013184 79.77050542831421,44.966673851013184 79.29882407188416,45.43847441673279 79.29882407188416,45.43847441673279 65.18163681030273,59.553706645965576 65.18163681030273,59.553706645965576 63.145262002944946,61.590576171875 63.145262002944946,61.590576171875 61.10815405845642,63.62695097923279 61.10815405845642,63.62695097923279 59.071046113967896,65.66320657730103 59.071046113967896,65.66320657730103 57.033199071884155,67.69946217536926 57.033199071884155,67.69946217536926 54.99609112739563,69.73608136177063 54.99609112739563,69.73608136177063 52.958983182907104,71.77343368530273 52.958983182907104,71.77343368530273 52.180421352386475,72.50255942344666 52.180421352386475,72.50255942344666 51.36035084724426,73.15393090248108 51.36035084724426,73.15393090248108 50.49731135368347,73.70312213897705 50.49731135368347,73.70312213897705 49.58837926387787,74.12548661231995 49.58837926387787,74.12548661231995 48.63256812095642,74.39709305763245 48.63256812095642,74.39709305763245 47.62695133686066,74.49316382408142 47.62695133686066,74.49316382408142 47.318845987319946,74.4842529296875 47.318845987319946,74.4842529296875 47.00537025928497,74.45690631866455 47.00537025928497,74.45690631866455 46.687254309654236,74.41064119338989 46.687254309654236,74.41064119338989 46.364012360572815,74.34460520744324 46.364012360572815,74.34460520744324 46.03686332702637,74.25891160964966 46.03686332702637,74.25891160964966 45.705077052116394,74.15234446525574 45.705077052116394,74.15234446525574 44.9042946100235,73.79467487335205 44.9042946100235,73.79467487335205 44.17236149311066,73.32775592803955 44.17236149311066,73.32775592803955 43.49462687969208,72.78002500534058 43.49462687969208,72.78002500534058 42.854490876197815,72.17919826507568 42.854490876197815,72.17919826507568 42.23730266094208,71.55395150184631 42.23730266094208,71.55395150184631" stroke="white" stroke-width="0.1" /></svg>