<?xml version="1.0" encoding="utf-8" ?>
<svg baseProfile="full" height="99.9682068824768" version="1.1" width="92.69325137138367" xmlns="http://www.w3.org/2000/svg" xmlns:ev="http://www.w3.org/2001/xml-events" xmlns:xlink="http://www.w3.org/1999/xlink"><defs><clipPath /></defs><polygon points="92.69325137138367,77.00517177581787 92.69325137138367,77.00517177581787 92.69325137138367,77.00517177581787 92.69325137138367,77.00517177581787 92.44231581687927,80.52382469177246 92.44231581687927,80.52382469177246 91.27734899520874,83.71782302856445 91.27734899520874,83.71782302856445 89.33151960372925,86.44681572914124 89.33151960372925,86.44681572914124 86.73707842826843,88.57003450393677 86.73707842826843,88.57003450393677 83.62754583358765,89.94706869125366 83.62754583358765,89.94706869125366 80.13505935668945,90.43737649917603 80.13505935668945,90.43737649917603 69.57330107688904,90.43737649917603 69.57330107688904,90.43737649917603 58.09520483016968,90.43737649917603 58.09520483016968,90.43737649917603 57.57102370262146,89.87427353858948 57.57102370262146,89.87427353858948 56.8952739238739,88.44330310821533 56.8952739238739,88.44330310821533 56.15995526313782,86.53237819671631 56.15995526313782,86.53237819671631 55.457526445388794,84.5291018486023 55.457526445388794,84.5291018486023 54.88010048866272,82.82127380371094 54.88010048866272,82.82127380371094 54.520028829574585,81.79660439491272 54.520028829574585,81.79660439491272 57.668548822402954,80.37058115005493 57.668548822402954,80.37058115005493 60.474592447280884,78.05479168891907 60.474592447280884,78.05479168891907 62.92642951011658,75.12144446372986 62.92642951011658,75.12144446372986 65.01209735870361,71.84239625930786 65.01209735870361,71.84239625930786 66.72022342681885,68.48986744880676 66.72022342681885,68.48986744880676 68.03871393203735,65.33571481704712 68.03871393203735,65.33571481704712 69.18643116950989,61.77658438682556 69.18643116950989,61.77658438682556 69.98477578163147,58.1244170665741 69.98477578163147,58.1244170665741 70.43282389640808,54.41284775733948 70.43282389640808,54.41284775733948 70.529305934906,50.67511796951294 70.529305934906,50.67511796951294 70.27400732040405,46.944865584373474 70.27400732040405,46.944865584373474 69.66530084609985,43.25537979602814 69.66530084609985,43.25537979602814 68.70549321174622,39.65553641319275 68.70549321174622,39.65553641319275 67.40447878837585,36.17385923862457 67.40447878837585,36.17385923862457 65.7787024974823,32.83529877662659 65.7787024974823,32.83529877662659 63.84391188621521,29.66475784778595 63.84391188621521,29.66475784778595 61.61644458770752,26.687249541282654 61.61644458770752,26.687249541282654 59.11273956298828,23.927724361419678 59.11273956298828,23.927724361419678 57.655900716781616,22.724230587482452 57.655900716781616,22.724230587482452 56.020110845565796,21.81933969259262 56.020110845565796,21.81933969259262 54.25598621368408,21.225182712078094 54.25598621368408,21.225182712078094 52.41377353668213,20.953893661499023 52.41377353668213,20.953893661499023 50.54441690444946,21.017777919769287 50.54441690444946,21.017777919769287 48.69818091392517,21.428966522216797 48.69818091392517,21.428966522216797 47.81347215175629,21.763160824775696 47.81347215175629,21.763160824775696 46.96464538574219,22.1778005361557 46.96464538574219,22.1778005361557 46.15848362445831,22.668685019016266 46.15848362445831,22.668685019016266 45.40073573589325,23.231618106365204 45.40073573589325,23.231618106365204 44.6984201669693,23.862460255622864 44.6984201669693,23.862460255622864 44.057631492614746,24.55701380968094 44.057631492614746,24.55701380968094 43.69445443153381,25.11143684387207 43.69445443153381,25.11143684387207 43.32093000411987,25.84296464920044 43.32093000411987,25.84296464920044 42.9356724023819,26.640844345092773 42.9356724023819,26.640844345092773 42.53638684749603,27.393877506256104 42.53638684749603,27.393877506256104 42.12169051170349,27.991196513175964 42.12169051170349,27.991196513175964 41.689515113830566,28.321710228919983 41.689515113830566,28.321710228919983 40.63057899475098,20.52401751279831 40.63057899475098,20.52401751279831 42.37641990184784,13.26533704996109 42.37641990184784,13.26533704996109 46.41539752483368,7.094228267669678 46.41539752483368,7.094228267669678 52.23517417907715,2.5587890297174454 52.23517417907715,2.5587890297174454 59.32411551475525,0.20757815800607204 59.32411551475525,0.20757815800607204 67.17022061347961,0.5888089537620544 67.17022061347961,0.5888089537620544 74.46087598800659,3.8922343403100967 74.46087598800659,3.8922343403100967 79.73071336746216,9.348377585411072 79.73071336746216,9.348377585411072 82.78194069862366,16.193626821041107 82.78194069862366,16.193626821041107 83.41628909111023,23.664025962352753 83.41628909111023,23.664025962352753 81.43653273582458,30.99619150161743 81.43653273582458,30.99619150161743 76.64452791213989,37.42617070674896 76.64452791213989,37.42617070674896 79.84042763710022,37.84431517124176 79.84042763710022,37.84431517124176 82.82828330993652,38.967710733413696 82.82828330993652,38.967710733413696 85.50173044204712,40.70509970188141 85.50173044204712,40.70509970188141 87.7536952495575,42.96499788761139 87.7536952495575,42.96499788761139 89.47814702987671,45.65621316432953 89.47814702987671,45.65621316432953 90.56801795959473,48.68714213371277 90.56801795959473,48.68714213371277 90.81768989562988,49.99396502971649 90.81768989562988,49.99396502971649 90.98294377326965,51.329994201660156 90.98294377326965,51.329994201660156 91.0889744758606,52.68276333808899 91.0889744758606,52.68276333808899 91.1599338054657,54.03984189033508 91.1599338054657,54.03984189033508 91.22099876403809,55.38869500160217 91.22099876403809,55.38869500160217 91.29667282104492,56.717026233673096 91.29667282104492,56.717026233673096" stroke="white" stroke-width="0.1" /><polygon points="13.02923858165741,70.00570297241211 13.02923858165741,70.00570297241211 13.02923858165741,70.00570297241211 13.02923858165741,70.00570297241211 13.626328110694885,70.92146277427673 13.626328110694885,70.92146277427673 13.79365473985672,71.9342827796936 13.79365473985672,71.9342827796936 13.579407334327698,72.92674779891968 13.579407334327698,72.92674779891968 13.031308352947235,73.78109693527222 13.031308352947235,73.78109693527222 12.197660654783249,74.38002824783325 12.197660654783249,74.38002824783325 11.126649379730225,74.60577487945557 11.126649379730225,74.60577487945557 10.128894448280334,74.40061569213867 10.128894448280334,74.40061569213867 9.203935414552689,73.85722994804382 9.203935414552689,73.85722994804382 8.35602730512619,73.08407425880432 8.35602730512619,73.08407425880432 7.588620483875275,72.18941450119019 7.588620483875275,72.18941450119019 6.905855238437653,71.28182053565979 6.905855238437653,71.28182053565979 6.311295926570892,70.46939134597778 6.311295926570892,70.46939134597778 5.009936168789864,68.60406398773193 5.009936168789864,68.60406398773193 3.8485337048768997,66.65070056915283 3.8485337048768997,66.65070056915283 2.831573039293289,64.61948156356812 2.831573039293289,64.61948156356812 1.9633099436759949,62.520354986190796 1.9633099436759949,62.520354986190796 1.2486889958381653,60.36378741264343 1.2486889958381653,60.36378741264343 0.6918505299836397,58.15960764884949 0.6918505299836397,58.15960764884949 0.06877104751765728,53.6906361579895 0.06877104751765728,53.6906361579895 0.09131138795055449,49.20085370540619 0.09131138795055449,49.20085370540619 0.7433713413774967,44.76834237575531 0.7433713413774967,44.76834237575531 2.0087355747818947,40.47101438045502 2.0087355747818947,40.47101438045502 3.871189057826996,36.387014389038086 3.871189057826996,36.387014389038086 6.314976513385773,32.59425759315491 6.314976513385773,32.59425759315491 6.977386027574539,31.69114887714386 6.977386027574539,31.69114887714386 7.74456262588501,30.69155216217041 7.74456262588501,30.69155216217041 8.613861352205276,29.73715364933014 8.613861352205276,29.73715364933014 9.582176059484482,28.969457745552063 9.582176059484482,28.969457745552063 10.64697727560997,28.530266880989075 10.64697727560997,28.530266880989075 11.805620044469833,28.56091558933258 11.805620044469833,28.56091558933258 12.682507932186127,28.970205783843994 12.682507932186127,28.970205783843994 13.321112096309662,29.631927609443665 13.321112096309662,29.631927609443665 13.698548078536987,30.458903312683105 13.698548078536987,30.458903312683105 13.790780305862427,31.363680958747864 13.790780305862427,31.363680958747864 13.57492208480835,32.259199023246765 13.57492208480835,32.259199023246765 13.02739828824997,33.05794298648834 13.02739828824997,33.05794298648834 11.46935448050499,34.75807309150696 11.46935448050499,34.75807309150696 10.06840318441391,36.58522069454193 10.06840318441391,36.58522069454193 8.833974599838257,38.52604627609253 8.833974599838257,38.52604627609253 7.774003595113754,40.56709706783295 7.774003595113754,40.56709706783295 6.897690147161484,42.695146799087524 6.897690147161484,42.695146799087524 6.213774532079697,44.89668309688568 6.213774532079697,44.89668309688568 5.455223098397255,49.40061271190643 5.455223098397255,49.40061271190643 5.494323745369911,53.92276644706726 5.494323745369911,53.92276644706726 6.301175802946091,58.35372805595398 6.301175802946091,58.35372805595398 7.845764607191086,62.58406639099121 7.845764607191086,62.58406639099121 10.09853407740593,66.50453805923462 10.09853407740593,66.50453805923462" stroke="white" stroke-width="0.1" /><polygon points="16.01744443178177,67.02486276626587 16.01744443178177,67.02486276626587 16.01744443178177,67.02486276626587 16.01744443178177,67.02486276626587 13.801589608192444,64.42312002182007 13.801589608192444,64.42312002182007 12.031137943267822,61.52714490890503 12.031137943267822,61.52714490890503 10.728053003549576,58.40340852737427 10.728053003549576,58.40340852737427 9.913381189107895,55.118268728256226 9.913381189107895,55.118268728256226 9.609316289424896,51.738423109054565 9.609316289424896,51.738423109054565 9.836789965629578,48.33017587661743 9.836789965629578,48.33017587661743 10.133494436740875,46.73130512237549 10.133494436740875,46.73130512237549 10.548420250415802,45.15998065471649 10.548420250415802,45.15998065471649 11.078808456659317,43.624305725097656 11.078808456659317,43.624305725097656 11.721208691596985,42.13204085826874 11.721208691596985,42.13204085826874 12.472975254058838,40.69141447544098 12.472975254058838,40.69141447544098 13.331003487110138,39.310359954833984 13.331003487110138,39.310359954833984 14.139465987682343,38.197025656700134 14.139465987682343,38.197025656700134 15.221746265888214,36.946555972099304 15.221746265888214,36.946555972099304 16.475841403007507,35.86168587207794 16.475841403007507,35.86168587207794 17.799855768680573,35.245105624198914 17.799855768680573,35.245105624198914 19.092360138893127,35.39949357509613 19.092360138893127,35.39949357509613 20.251348614692688,36.627596616744995 20.251348614692688,36.627596616744995 20.582322776317596,37.520354986190796 20.582322776317596,37.520354986190796 20.561392605304718,38.330256938934326 20.561392605304718,38.330256938934326 20.275038480758667,39.07575607299805 20.275038480758667,39.07575607299805 19.808591902256012,39.77525234222412 19.808591902256012,39.77525234222412 19.24818754196167,40.44715166091919 19.24818754196167,40.44715166091919 18.679964542388916,41.109904646873474 18.679964542388916,41.109904646873474 18.17821115255356,41.75552725791931 18.17821115255356,41.75552725791931 17.709119617938995,42.425066232681274 17.709119617938995,42.425066232681274 17.27418303489685,43.116915225982666 17.27418303489685,43.116915225982666 16.873976588249207,43.82929503917694 16.873976588249207,43.82929503917694 16.509996354579926,44.56047713756561 16.509996354579926,44.56047713756561 16.183046996593475,45.30884921550751 16.183046996593475,45.30884921550751 15.656799077987671,46.812036633491516 15.656799077987671,46.812036633491516 15.279707312583923,48.35714399814606 15.279707312583923,48.35714399814606 15.05257934331894,49.930539727211 15.05257934331894,49.930539727211 14.975757896900177,51.51825547218323 14.975757896900177,51.51825547218323 15.049934387207031,53.10665965080261 15.049934387207031,53.10665965080261 15.27591198682785,54.68195080757141 15.27591198682785,54.68195080757141 15.666918456554413,56.27351999282837 15.666918456554413,56.27351999282837 16.213637590408325,57.81298875808716 16.213637590408325,57.81298875808716 16.908706724643707,59.28892493247986 16.908706724643707,59.28892493247986 17.745114862918854,60.68964600563049 17.745114862918854,60.68964600563049 18.71630549430847,62.00376749038696 18.71630549430847,62.00376749038696 19.815261662006378,63.2196843624115 19.815261662006378,63.2196843624115 20.554722845554352,64.52202200889587 20.554722845554352,64.52202200889587 20.461685955524445,65.84011316299438 20.461685955524445,65.84011316299438 19.749020040035248,66.96183681488037 19.749020040035248,66.96183681488037 18.628787994384766,67.67467856407166 18.628787994384766,67.67467856407166 17.314203083515167,67.76645183563232 17.314203083515167,67.76645183563232" stroke="white" stroke-width="0.1" /><polygon points="49.842679500579834,90.43737649917603 49.842679500579834,90.43737649917603 49.842679500579834,90.43737649917603 49.842679500579834,90.43737649917603 50.235527753829956,91.37901067733765 50.235527753829956,91.37901067733765 50.65068006515503,92.3481285572052 50.65068006515503,92.3481285572052 51.04766488075256,93.33817958831787 51.04766488075256,93.33817958831787 51.385313272476196,94.34226155281067 51.385313272476196,94.34226155281067 51.623594760894775,95.3538179397583 51.623594760894775,95.3538179397583 51.721346378326416,96.36594653129578 51.721346378326416,96.36594653129578 51.460522413253784,97.79852628707886 51.460522413253784,97.79852628707886 50.78638195991516,98.88718724250793 50.78638195991516,98.88718724250793 49.79828894138336,99.61589574813843 49.79828894138336,99.61589574813843 48.595255613327026,99.9682068824768 48.595255613327026,99.9682068824768 47.27664589881897,99.92818236351013 47.27664589881897,99.92818236351013 45.94182074069977,99.47927594184875 45.94182074069977,99.47927594184875 44.52039897441864,98.69030714035034 44.52039897441864,98.69030714035034 43.13589036464691,97.79691696166992 43.13589036464691,97.79691696166992 41.78059697151184,96.83469533920288 41.78059697151184,96.83469533920288 40.44657647609711,95.83895206451416 40.44657647609711,95.83895206451416 39.1265869140625,94.84533667564392 39.1265869140625,94.84533667564392 37.812575697898865,93.88927221298218 37.812575697898865,93.88927221298218 36.45245134830475,92.90899634361267 36.45245134830475,92.90899634361267 35.00124216079712,91.92532896995544 35.00124216079712,91.92532896995544 33.475399017333984,91.1140501499176 33.475399017333984,91.1140501499176 31.890904903411865,90.65076112747192 31.890904903411865,90.65076112747192 30.26455044746399,90.71136713027954 30.26455044746399,90.71136713027954 28.61243486404419,91.47147536277771 28.61243486404419,91.47147536277771 27.283936738967896,92.40781664848328 27.283936738967896,92.40781664848328 25.95474421977997,93.34364533424377 25.95474421977997,93.34364533424377 24.625785648822784,94.27935481071472 24.625785648822784,94.27935481071472 23.29636514186859,95.21501064300537 23.29636514186859,95.21501064300537 21.96705937385559,96.15089297294617 21.96705937385559,96.15089297294617 20.63775360584259,97.08724021911621 20.63775360584259,97.08724021911621 20.057915151119232,97.50388860702515 20.057915151119232,97.50388860702515 19.47520226240158,97.92899489402771 19.47520226240158,97.92899489402771 18.88650804758072,98.35087656974792 18.88650804758072,98.35087656974792 18.288038671016693,98.75763654708862 18.288038671016693,98.75763654708862 17.677034437656403,99.13771748542786 17.677034437656403,99.13771748542786 17.049700021743774,99.47927594184875 17.049700021743774,99.47927594184875 15.719819068908691,99.92335438728333 15.719819068908691,99.92335438728333 14.397759735584259,99.96256828308105 14.397759735584259,99.96256828308105 13.187481462955475,99.61175918579102 13.187481462955475,99.61175918579102 12.193060666322708,98.88546466827393 12.193060666322708,98.88546466827393 11.518575251102448,97.7986991405487 11.518575251102448,97.7986991405487 11.268331855535507,96.36594653129578 11.268331855535507,96.36594653129578 11.380112916231155,95.27837634086609 11.380112916231155,95.27837634086609 11.65381744503975,94.16648149490356 11.65381744503975,94.16648149490356 12.040453404188156,93.04975867271423 12.040453404188156,93.04975867271423 12.48953491449356,91.94735288619995 12.48953491449356,91.94735288619995 12.951841950416565,90.87875485420227 12.951841950416565,90.87875485420227 13.377003371715546,89.86328840255737 13.377003371715546,89.86328840255737 14.823265373706818,86.22348308563232 14.823265373706818,86.22348308563232 16.269412636756897,82.58304595947266 16.269412636756897,82.58304595947266 17.71578937768936,78.94226312637329 17.71578937768936,78.94226312637329 19.16182190179825,75.30107498168945 19.16182190179825,75.30107498168945 20.60808390378952,71.65983319282532 20.60808390378952,71.65983319282532 22.054575383663177,68.01847815513611 22.054575383663177,68.01847815513611 24.649015069007874,61.49005889892578 24.649015069007874,61.49005889892578 24.597150087356567,61.26281023025513 24.597150087356567,61.26281023025513 24.34748113155365,60.97496151924133 24.34748113155365,60.97496151924133 23.980624973773956,60.65974235534668 23.980624973773956,60.65974235534668 23.576393723487854,60.35027503967285 23.576393723487854,60.35027503967285 23.215633630752563,60.07996201515198 23.215633630752563,60.07996201515198 22.978270053863525,59.881871938705444 22.978270053863525,59.881871938705444 22.4643275141716,59.326010942459106 22.4643275141716,59.326010942459106 21.986955404281616,58.7382972240448 21.986955404281616,58.7382972240448 21.5478777885437,58.12142491340637 21.5478777885437,58.12142491340637 21.14870697259903,57.477760314941406 21.14870697259903,57.477760314941406 20.791396498680115,56.8101167678833 20.791396498680115,56.8101167678833 20.477671921253204,56.12085461616516 20.477671921253204,56.12085461616516 19.991444051265717,54.708290100097656 19.991444051265717,54.708290100097656 19.68841552734375,53.248512744903564 19.68841552734375,53.248512744903564 19.56869810819626,51.76320672035217 19.56869810819626,51.76320672035217 19.63217854499817,50.27387738227844 19.63217854499817,50.27387738227844 19.87931728363037,48.802199959754944 19.87931728363037,48.802199959754944 20.310229063034058,47.36967980861664 20.310229063034058,47.36967980861664 21.725785732269287,44.69761550426483 21.725785732269287,44.69761550426483 23.725780844688416,42.516377568244934 23.725780844688416,42.516377568244934 26.175779104232788,40.89554250240326 26.175779104232788,40.89554250240326 28.940534591674805,39.90457355976105 28.940534591674805,39.90457355976105 31.88561499118805,39.61304426193237 31.88561499118805,39.61304426193237 34.875890612602234,40.09053111076355 34.875890612602234,40.09053111076355 37.83672749996185,41.4479523897171 37.83672749996185,41.4479523897171 40.25716781616211,43.50113868713379 40.25716781616211,43.50113868713379 42.050158977508545,46.08672261238098 42.050158977508545,46.08672261238098 43.12772750854492,49.04123246669769 43.12772750854492,49.04123246669769 43.40292513370514,52.2011935710907 43.40292513370514,52.2011935710907 42.78801083564758,55.403244495391846 42.78801083564758,55.403244495391846 42.46876537799835,56.22820854187012 42.46876537799835,56.22820854187012 42.08868443965912,57.02614784240723 42.08868443965912,57.02614784240723 41.65041446685791,57.79343843460083 41.65041446685791,57.79343843460083 41.15636646747589,58.52634906768799 41.15636646747589,58.52634906768799 40.60976207256317,59.22130346298218 40.60976207256317,59.22130346298218 40.01325070858002,59.874510765075684 40.01325070858002,59.874510765075684 39.80647623538971,60.054486989974976 39.80647623538971,60.054486989974976 39.45986032485962,60.335326194763184 39.45986032485962,60.335326194763184 39.05574381351471,60.66526174545288 39.05574381351471,60.66526174545288 38.67600858211517,60.99238395690918 38.67600858211517,60.99238395690918 38.40368390083313,61.264997720718384 38.40368390083313,61.264997720718384 38.32042217254639,61.43117547035217 38.32042217254639,61.43117547035217 38.45658600330353,61.773765087127686 38.45658600330353,61.773765087127686 38.59274685382843,62.11676001548767 38.59274685382843,62.11676001548767 38.72891068458557,62.46021389961243 38.72891068458557,62.46021389961243 38.86495530605316,62.80389428138733 38.86495530605316,62.80389428138733 39.0011191368103,63.14786672592163 39.0011191368103,63.14786672592163 39.13739621639252,63.492006063461304 39.13739621639252,63.492006063461304 39.79819715023041,65.1551604270935 39.79819715023041,65.1551604270935 40.45899510383606,66.81785583496094 40.45899510383606,66.81785583496094 41.120025515556335,68.48032474517822 41.120025515556335,68.48032474517822 41.780826449394226,70.14278769493103 41.780826449394226,70.14278769493103 42.441970109939575,71.80542349815369 42.441970109939575,71.80542349815369 43.102654814720154,73.46863746643066 43.102654814720154,73.46863746643066" stroke="white" stroke-width="0.1" /><polygon points="53.778499364852905,29.252764582633972 53.778499364852905,29.252764582633972 53.778499364852905,29.252764582633972 53.778499364852905,29.252764582633972 56.58476948738098,32.480403780937195 56.58476948738098,32.480403780937195 58.9148223400116,36.039307713508606 58.9148223400116,36.039307713508606 60.74461340904236,39.868345856666565 60.74461340904236,39.868345856666565 62.04977035522461,43.9061164855957 62.04977035522461,43.9061164855957 62.80636787414551,48.09160530567169 62.80636787414551,48.09160530567169 62.98968195915222,52.36351490020752 62.98968195915222,52.36351490020752 62.86547780036926,54.458850622177124 62.86547780036926,54.458850622177124 62.6020073890686,56.540149450302124 62.6020073890686,56.540149450302124 62.2014582157135,58.59891176223755 62.2014582157135,58.59891176223755 61.66532039642334,60.62667965888977 61.66532039642334,60.62667965888977 60.99600791931152,62.615060806274414 60.99600791931152,62.615060806274414 60.194677114486694,64.55554366111755 60.194677114486694,64.55554366111755 59.701091051101685,65.59193730354309 59.701091051101685,65.59193730354309 59.169548749923706,66.60970449447632 59.169548749923706,66.60970449447632 58.6014449596405,67.6076889038086 58.6014449596405,67.6076889038086 57.99710750579834,68.58445405960083 57.99710750579834,68.58445405960083 57.35769867897034,69.53879594802856 57.35769867897034,69.53879594802856 56.68390393257141,70.46939134597778 56.68390393257141,70.46939134597778 56.14822506904602,71.2004005908966 56.14822506904602,71.2004005908966 55.54618835449219,72.01035618782043 55.54618835449219,72.01035618782043 54.88205552101135,72.82325029373169 54.88205552101135,72.82325029373169 54.15915250778198,73.56276512145996 54.15915250778198,73.56276512145996 53.381627798080444,74.15289878845215 53.381627798080444,74.15289878845215 52.55303978919983,74.51745271682739 52.55303978919983,74.51745271682739 51.59507393836975,74.58789348602295 51.59507393836975,74.58789348602295 50.71830153465271,74.326092004776 50.71830153465271,74.326092004776 49.98505115509033,73.79570603370667 49.98505115509033,73.79570603370667 49.456846714019775,73.06009531021118 49.456846714019775,73.06009531021118 49.19625520706177,72.18286395072937 49.19625520706177,72.18286395072937 49.2649108171463,71.22748494148254 49.2649108171463,71.22748494148254 49.61106479167938,70.39809226989746 49.61106479167938,70.39809226989746 50.15939474105835,69.5972204208374 50.15939474105835,69.5972204208374 50.83284378051758,68.82210969924927 50.83284378051758,68.82210969924927 51.55344605445862,68.06994080543518 51.55344605445862,68.06994080543518 52.244144678115845,67.33806729316711 52.244144678115845,67.33806729316711 52.82720327377319,66.62373542785645 52.82720327377319,66.62373542785645 53.984928131103516,64.84126448631287 53.984928131103516,64.84126448631287 54.991304874420166,62.97202706336975 54.991304874420166,62.97202706336975 55.84186315536499,61.02820634841919 55.84186315536499,61.02820634841919 56.531983613967896,59.02177095413208 56.531983613967896,59.02177095413208 57.057660818099976,56.964850425720215 57.057660818099976,56.964850425720215 57.41439461708069,54.86963391304016 57.41439461708069,54.86963391304016 57.613348960876465,50.88212490081787 57.613348960876465,50.88212490081787 57.20440149307251,46.931466460227966 57.20440149307251,46.931466460227966 56.21124505996704,43.0957555770874 56.21124505996704,43.0957555770874 54.657572507858276,39.452844858169556 54.657572507858276,39.452844858169556 52.56741642951965,36.080995202064514 52.56741642951965,36.080995202064514 49.964120984077454,33.05794298648834 49.964120984077454,33.05794298648834 49.2240846157074,31.75232708454132 49.2240846157074,31.75232708454132 49.31700527667999,30.434179306030273 49.31700527667999,30.434179306030273 50.03105401992798,29.31440770626068 50.03105401992798,29.31440770626068 51.15381479263306,28.603637218475342 51.15381479263306,28.603637218475342 52.47357487678528,28.512844443321228 52.47357487678528,28.512844443321228" stroke="white" stroke-width="0.1" /><polygon points="48.01921248435974,51.53918266296387 48.01921248435974,51.53918266296387 48.01921248435974,51.53918266296387 48.01921248435974,51.53918266296387 47.92605936527252,49.797311425209045 47.92605936527252,49.797311425209045 47.65097498893738,48.07872474193573 47.65097498893738,48.07872474193573 47.19901978969574,46.399986743927 47.19901978969574,46.399986743927 46.57421410083771,44.777655601501465 46.57421410083771,44.777655601501465 45.78127562999725,43.228352069854736 45.78127562999725,43.228352069854736 44.82492208480835,41.76863729953766 44.82492208480835,41.76863729953766 44.327884912490845,41.1639004945755 44.327884912490845,41.1639004945755 43.79048049449921,40.57273268699646 43.79048049449921,40.57273268699646 43.273088335990906,39.9695485830307 43.273088335990906,39.9695485830307 42.83458590507507,39.3285870552063 42.83458590507507,39.3285870552063 42.53535270690918,38.62425684928894 42.53535270690918,38.62425684928894 42.43472516536713,37.83097565174103 42.43472516536713,37.83097565174103 42.54213869571686,37.14648485183716 42.54213869571686,37.14648485183716 42.817336320877075,36.53301000595093 42.817336320877075,36.53301000595093 43.234679102897644,36.01440787315369 43.234679102897644,36.01440787315369 43.76794099807739,35.61443090438843 43.76794099807739,35.61443090438843 44.39205527305603,35.357001423835754 44.39205527305603,35.357001423835754 45.08068561553955,35.26597619056702 45.08068561553955,35.26597619056702 46.45093083381653,35.628461837768555 46.45093083381653,35.628461837768555 47.72181808948517,36.57935559749603 47.72181808948517,36.57935559749603 48.86792302131653,37.91423738002777 48.86792302131653,37.91423738002777 49.86315071582794,39.42846655845642 49.86315071582794,39.42846655845642 50.682538747787476,40.9176230430603 50.682538747787476,40.9176230430603 51.29998326301575,42.177122831344604 51.29998326301575,42.177122831344604 51.93145275115967,43.659839034080505 51.93145275115967,43.659839034080505 52.45183706283569,45.18412947654724 52.45183706283569,45.18412947654724 52.85963416099548,46.74223065376282 52.85963416099548,46.74223065376282 53.15254330635071,48.32603633403778 53.15254330635071,48.32603633403778 53.32953333854675,49.92772340774536 53.32953333854675,49.92772340774536 53.388410806655884,51.53918266296387 53.388410806655884,51.53918266296387 53.31918001174927,53.286176919937134 53.31918001174927,53.286176919937134 53.11114192008972,55.02063035964966 53.11114192008972,55.02063035964966 52.7664840221405,56.73266649246216 52.7664840221405,56.73266649246216 52.28738784790039,58.41209292411804 52.28738784790039,58.41209292411804 51.67626738548279,60.049086809158325 51.67626738548279,60.049086809158325 50.93565583229065,61.633580923080444 50.93565583229065,61.633580923080444 50.27726888656616,62.869274616241455 50.27726888656616,62.869274616241455 49.41199719905853,64.31726217269897 49.41199719905853,64.31726217269897 48.36582541465759,65.75202345848083 48.36582541465759,65.75202345848083 47.164058685302734,66.94781184196472 47.164058685302734,66.94781184196472 45.83291411399841,67.67922043800354 45.83291411399841,67.67922043800354 44.39803659915924,67.7203893661499 44.39803659915924,67.7203893661499 42.83228814601898,66.9165313243866 42.83228814601898,66.9165313243866 42.386770248413086,65.75811505317688 42.386770248413086,65.75811505317688 42.736491560935974,64.39729928970337 42.736491560935974,64.39729928970337 43.5550719499588,62.986111640930176 43.5550719499588,62.986111640930176 44.51752305030823,61.676931381225586 44.51752305030823,61.676931381225586 45.297810435295105,60.62156558036804 45.297810435295105,60.62156558036804 46.11455202102661,59.240394830703735 46.11455202102661,59.240394830703735 46.790531277656555,57.78849720954895 46.790531277656555,57.78849720954895 47.32230007648468,56.279098987579346 47.32230007648468,56.279098987579346 47.70640730857849,54.725539684295654 47.70640730857849,54.725539684295654 47.93997406959534,53.14115881919861 47.93997406959534,53.14115881919861" stroke="white" stroke-width="0.1" /></svg>