<?xml version="1.0" encoding="utf-8" ?>
<svg baseProfile="full" height="97.60954976081848" version="1.1" width="99.99297261238098" xmlns="http://www.w3.org/2000/svg" xmlns:ev="http://www.w3.org/2001/xml-events" xmlns:xlink="http://www.w3.org/1999/xlink"><defs><clipPath /></defs><polygon points="67.23864674568176,26.068687438964844 67.23864674568176,26.068687438964844 67.23864674568176,26.068687438964844 67.23864674568176,26.068687438964844 63.95605206489563,26.31620168685913 63.95605206489563,26.31620168685913 60.765135288238525,27.041345834732056 60.765135288238525,27.041345834732056 57.7203631401062,28.217804431915283 57.7203631401062,28.217804431915283 54.876238107681274,29.819419980049133 54.876238107681274,29.819419980049133 52.28726267814636,31.82014524936676 52.28726267814636,31.82014524936676 50.00796914100647,34.193816781044006 50.00796914100647,34.193816781044006 47.28356599807739,31.433093547821045 47.28356599807739,31.433093547821045 44.1471129655838,29.204091429710388 44.1471129655838,29.204091429710388 40.690022706985474,27.544134855270386 40.690022706985474,27.544134855270386 37.003448605537415,26.490280032157898 37.003448605537415,26.490280032157898 33.17893743515015,26.08000934123993 33.17893743515015,26.08000934123993 29.307669401168823,26.350483298301697 29.307669401168823,26.350483298301697 27.334150671958923,26.76064968109131 27.334150671958923,26.76064968109131 25.40796399116516,27.34484374523163 25.40796399116516,27.34484374523163 23.54268878698349,28.097453713417053 23.54268878698349,28.097453713417053 21.75179272890091,29.012662172317505 21.75179272890091,29.012662172317505 20.04895806312561,30.085021257400513 20.04895806312561,30.085021257400513 18.447603285312653,31.30875825881958 18.447603285312653,31.30875825881958 17.729850113391876,32.04459547996521 17.729850113391876,32.04459547996521 16.509361565113068,33.415576815605164 16.509361565113068,33.415576815605164 15.087012946605682,35.088059306144714 15.087012946605682,35.088059306144714 13.763575255870819,36.72820329666138 13.763575255870819,36.72820329666138 12.8400057554245,38.002315163612366 12.8400057554245,38.002315163612366 12.617100775241852,38.57675790786743 12.617100775241852,38.57675790786743 11.126713454723358,37.85245418548584 11.126713454723358,37.85245418548584 9.618767350912094,37.14115023612976 9.618767350912094,37.14115023612976 8.107518404722214,36.42617464065552 8.107518404722214,36.42617464065552 6.6071465611457825,35.69091558456421 6.6071465611457825,35.69091558456421 5.131961032748222,34.91875231266022 5.131961032748222,34.91875231266022 3.6960624158382416,34.093177318573 3.6960624158382416,34.093177318573 2.6294711977243423,33.22378098964691 2.6294711977243423,33.22378098964691 2.3820867761969566,32.489410042762756 2.3820867761969566,32.489410042762756 2.760619670152664,31.89101219177246 2.760619670152664,31.89101219177246 3.571649268269539,31.42905831336975 3.571649268269539,31.42905831336975 4.621938616037369,31.10448718070984 4.621938616037369,31.10448718070984 5.718119442462921,30.917933583259583 5.718119442462921,30.917933583259583 6.53253048658371,30.827251076698303 6.53253048658371,30.827251076698303 7.347045838832855,30.73635995388031 7.347045838832855,30.73635995388031 8.16161334514618,30.64536452293396 8.16161334514618,30.64536452293396 8.976128697395325,30.554208159446716 8.976128697395325,30.554208159446716 9.79067087173462,30.46342134475708 9.79067087173462,30.46342134475708 10.605107247829437,30.3727924823761 10.605107247829437,30.3727924823761 3.046085312962532,20.785003900527954 3.046085312962532,20.785003900527954 2.5409379974007607,20.173606276512146 2.5409379974007607,20.173606276512146 1.9355159252882004,19.41753625869751 1.9355159252882004,19.41753625869751 1.3720802962779999,18.582211434841156 1.3720802962779999,18.582211434841156 0.9928397834300995,17.732523381710052 0.9928397834300995,17.732523381710052 0.9401077404618263,16.933785378932953 0.9401077404618263,16.933785378932953 1.356145367026329,16.251100599765778 1.356145367026329,16.251100599765778 1.9356731325387955,15.919297933578491 1.9356731325387955,15.919297933578491 2.60192584246397,15.792447328567505 2.60192584246397,15.792447328567505 3.3191803842782974,15.817083418369293 3.3191803842782974,15.817083418369293 4.051584005355835,15.93979299068451 4.051584005355835,15.93979299068451 4.7633349895477295,16.10731929540634 4.7633349895477295,16.10731929540634 5.41871078312397,16.266196966171265 5.41871078312397,16.266196966171265 9.23134982585907,17.117351293563843 9.23134982585907,17.117351293563843 13.04398775100708,17.96824485063553 13.04398775100708,17.96824485063553 16.85662716627121,18.819138407707214 16.85662716627121,18.819138407707214 20.66923975944519,19.669926166534424 20.66923975944519,19.669926166534424 24.48190450668335,20.520871877670288 24.48190450668335,20.520871877670288 28.29454243183136,21.372079849243164 28.29454243183136,21.372079849243164 27.682307362556458,15.261457860469818 27.682307362556458,15.261457860469818 27.55139470100403,14.260807633399963 27.55139470100403,14.260807633399963 27.39836275577545,13.096405565738678 27.39836275577545,13.096405565738678 27.318739891052246,11.877594143152237 27.318739891052246,11.877594143152237 27.407953143119812,10.71355938911438 27.407953143119812,10.71355938911438 27.761510014533997,9.714062511920929 27.761510014533997,9.714062511920929 28.47486138343811,8.988132327795029 28.47486138343811,8.988132327795029 29.451870918273926,8.704081922769547 29.451870918273926,8.704081922769547 30.50016760826111,8.866629004478455 30.50016760826111,8.866629004478455 31.56833052635193,9.339749068021774 31.56833052635193,9.339749068021774 32.6048880815506,9.987419843673706 32.6048880815506,9.987419843673706 33.55838656425476,10.67366972565651 33.55838656425476,10.67366972565651 34.37748849391937,11.26263216137886 34.37748849391937,11.26263216137886 35.227859020233154,11.83534562587738 35.227859020233154,11.83534562587738 36.07809543609619,12.407849729061127 36.07809543609619,12.407849729061127 36.92833483219147,12.980249524116516 36.92833483219147,12.980249524116516 37.778493762016296,13.55254352092743 37.778493762016296,13.55254352092743 38.62878382205963,14.125099778175354 38.62878382205963,14.125099778175354 39.47917819023132,14.697864651679993 39.47917819023132,14.697864651679993 43.62896680831909,7.040717452764511 43.62896680831909,7.040717452764511 44.23323571681976,5.814462900161743 44.23323571681976,5.814462900161743 44.97945010662079,4.274436831474304 44.97945010662079,4.274436831474304 45.870548486709595,2.672453410923481 45.870548486709595,2.672453410923481 46.909359097480774,1.260168943554163 46.909359097480774,1.260168943554163 48.098841309547424,0.28960665222257376 48.098841309547424,0.28960665222257376 49.441856145858765,0.012580199108924717 49.441856145858765,0.012580199108924717 50.69416165351868,0.5244894418865442 50.69416165351868,0.5244894418865442 51.812124252319336,1.626829244196415 51.812124252319336,1.626829244196415 52.797627449035645,3.095148131251335 52.797627449035645,3.095148131251335 53.65234613418579,4.704470187425613 53.65234613418579,4.704470187425613 54.37827706336975,6.2304481863975525 54.37827706336975,6.2304481863975525 54.97714281082153,7.448316365480423 54.97714281082153,7.448316365480423 58.90635848045349,14.697864651679993 58.90635848045349,14.697864651679993 59.756726026535034,14.125151932239532 59.756726026535034,14.125151932239532 60.60696840286255,13.552647829055786 60.60696840286255,13.552647829055786 61.457204818725586,12.980249524116516 61.457204818725586,12.980249524116516 62.307363748550415,12.40774467587471 62.307363748550415,12.40774467587471 63.15762996673584,11.835241317749023 63.15762996673584,11.835241317749023 64.00805115699768,11.26263216137886 64.00805115699768,11.26263216137886 64.82712626457214,10.673774033784866 64.82712626457214,10.673774033784866 65.78065156936646,9.987471997737885 65.78065156936646,9.987471997737885 66.81720614433289,9.339749068021774 66.81720614433289,9.339749068021774 67.88532137870789,8.866523951292038 67.88532137870789,8.866523951292038 68.93364191055298,8.704029768705368 68.93364191055298,8.704029768705368 69.91068124771118,8.988132327795029 69.91068124771118,8.988132327795029 70.62405347824097,9.714114665985107 70.62405347824097,9.714114665985107 70.97758650779724,10.713663697242737 70.97758650779724,10.713663697242737 71.06679677963257,11.877594143152237 71.06679677963257,11.877594143152237 70.9871232509613,13.0963534116745 70.9871232509613,13.0963534116745 70.83417177200317,14.260755479335785 70.83417177200317,14.260755479335785 70.7032322883606,15.261457860469818 70.7032322883606,15.261457860469818 70.0909972190857,21.372079849243164 70.0909972190857,21.372079849243164 73.90363216400146,20.520924031734467 73.90363216400146,20.520924031734467 77.71627306938171,19.669978320598602 77.71627306938171,19.669978320598602 81.52891397476196,18.819138407707214 81.52891397476196,18.819138407707214 85.34154891967773,17.96819269657135 85.34154891967773,17.96819269657135 89.15418982505798,17.117299139499664 89.15418982505798,17.117299139499664 92.96683073043823,16.266196966171265 92.96683073043823,16.266196966171265 93.6587393283844,16.097673773765564 93.6587393283844,16.097673773765564 94.44730877876282,15.916624665260315 94.44730877876282,15.916624665260315 95.26638388633728,15.794648230075836 95.26638388633728,15.794648230075836 96.04949951171875,15.803298354148865 96.04949951171875,15.803298354148865 96.7306137084961,16.014330089092255 96.7306137084961,16.014330089092255 97.2432553768158,16.49934947490692 97.2432553768158,16.49934947490692 97.45423793792725,17.251907289028168 97.45423793792725,17.251907289028168 97.2794234752655,18.066999316215515 97.2794234752655,18.066999316215515 96.83943390846252,18.899232149124146 96.83943390846252,18.899232149124146 96.25487327575684,19.703158736228943 96.25487327575684,19.703158736228943 95.64651250839233,20.433545112609863 95.64651250839233,20.433545112609863 95.13481259346008,21.04499489068985 95.13481259346008,21.04499489068985 87.78043389320374,30.3727924823761 87.78043389320374,30.3727924823761 88.98314833641052,30.45865297317505 88.98314833641052,30.45865297317505 90.39512276649475,30.519771575927734 90.39512276649475,30.519771575927734 91.89625382423401,30.616849660873413 91.89625382423401,30.616849660873413 93.3663547039032,30.809953808784485 93.3663547039032,30.809953808784485 94.68523263931274,31.15968406200409 94.68523263931274,31.15968406200409 95.73279619216919,31.726422905921936 95.73279619216919,31.726422905921936 96.06401920318604,32.569295167922974 96.06401920318604,32.569295167922974 95.38474082946777,33.49938988685608 95.38474082946777,33.49938988685608 94.08038258552551,34.42864716053009 94.08038258552551,34.42864716053009 92.53627061843872,35.26895344257355 92.53627061843872,35.26895344257355 91.13787412643433,35.932350158691406 91.13787412643433,35.932350158691406 90.27047157287598,36.330774426460266 90.27047157287598,36.330774426460266 89.72611427307129,36.602506041526794 89.72611427307129,36.602506041526794 89.18165564537048,36.874133348464966 89.18165564537048,36.874133348464966 88.63714337348938,37.14576065540314 88.63714337348938,37.14576065540314 88.09263110160828,37.41707503795624 88.09263110160828,37.41707503795624 87.54817247390747,37.6883864402771 87.54817247390747,37.6883864402771 87.00381517410278,37.959492206573486 87.00381517410278,37.959492206573486 86.81385517120361,37.511634826660156 86.81385517120361,37.511634826660156 86.09426617622375,36.49830222129822 86.09426617622375,36.49830222129822 85.07600426673889,35.18870174884796 85.07600426673889,35.18870174884796 83.99001955986023,33.8517427444458 83.99001955986023,33.8517427444458 83.06726217269897,32.75673985481262 83.06726217269897,32.75673985481262 82.53868222236633,32.1725994348526 82.53868222236633,32.1725994348526 80.37127256393433,30.37625253200531 80.37127256393433,30.37625253200531 78.00152897834778,28.869512677192688 78.00152897834778,28.869512677192688 75.46640634536743,27.66888737678528 75.46640634536743,27.66888737678528 72.8028655052185,26.790791749954224 72.8028655052185,26.790791749954224 70.04798650741577,26.251938939094543 70.04798650741577,26.251938939094543" stroke="white" stroke-width="0.1" /><polygon points="92.11975932121277,61.460137367248535 92.11975932121277,61.460137367248535 92.11975932121277,61.460137367248535 92.11975932121277,61.460137367248535 96.400386095047,74.96288418769836 96.400386095047,74.96288418769836 96.84236645698547,76.35656595230103 96.84236645698547,76.35656595230103 97.28435277938843,77.7498185634613 97.28435277938843,77.7498185634613 97.72623181343079,79.14286851882935 97.72623181343079,79.14286851882935 98.16800355911255,80.53591251373291 98.16800355911255,80.53591251373291 98.60978126525879,81.92917108535767 98.60978126525879,81.92917108535767 99.05145168304443,83.32284688949585 99.05145168304443,83.32284688949585 99.38498139381409,84.40579175949097 99.38498139381409,84.40579175949097 99.67291355133057,85.478675365448 99.67291355133057,85.478675365448 99.88551735877991,86.5530252456665 99.88551735877991,86.5530252456665 99.99297261238098,87.64037489891052 99.99297261238098,87.64037489891052 99.96561408042908,88.75266909599304 99.96561408042908,88.75266909599304 99.77355599403381,89.90145325660706 99.77355599403381,89.90145325660706 99.18291568756104,91.58405661582947 99.18291568756104,91.58405661582947 98.2391357421875,93.28972101211548 98.2391357421875,93.28972101211548 97.00046181678772,94.87189054489136 97.00046181678772,94.87189054489136 95.52522301673889,96.18368744850159 95.52522301673889,96.18368744850159 93.87192130088806,97.0783531665802 93.87192130088806,97.0783531665802 92.09879636764526,97.40931391716003 92.09879636764526,97.40931391716003 83.0335021018982,97.40931391716003 83.0335021018982,97.40931391716003 80.14661073684692,97.4424421787262 80.14661073684692,97.4424421787262 77.23534107208252,97.51425385475159 77.23534107208252,97.51425385475159 74.31259751319885,97.58375883102417 74.31259751319885,97.58375883102417 71.39126062393188,97.60954976081848 71.39126062393188,97.60954976081848 68.48440170288086,97.55063056945801 68.48440170288086,97.55063056945801 65.60489535331726,97.36570119857788 65.60489535331726,97.36570119857788 63.27043175697327,96.91428542137146 63.27043175697327,96.91428542137146 61.104774475097656,96.02004289627075 61.104774475097656,96.02004289627075 59.193819761276245,94.71883177757263 59.193819761276245,94.71883177757263 57.623493671417236,93.04618835449219 57.623493671417236,93.04618835449219 56.47976994514465,91.03828072547913 56.47976994514465,91.03828072547913 55.848532915115356,88.73065710067749 55.848532915115356,88.73065710067749 54.53935265541077,79.48504686355591 54.53935265541077,79.48504686355591 53.98404002189636,76.00033283233643 53.98404002189636,76.00033283233643 53.49414944648743,72.28446006774902 53.49414944648743,72.28446006774902 53.44634652137756,68.64259243011475 53.44634652137756,68.64259243011475 54.21719551086426,65.37970900535583 54.21719551086426,65.37970900535583 56.183403730392456,62.80113458633423 56.183403730392456,62.80113458633423 59.721559286117554,61.21188998222351 59.721559286117554,61.21188998222351 55.18084168434143,57.040613889694214 55.18084168434143,57.040613889694214 52.91019082069397,51.7475962638855 52.91019082069397,51.7475962638855 52.790284156799316,46.05967104434967 52.790284156799316,46.05967104434967 54.70161437988281,40.70365130901337 54.70161437988281,40.70365130901337 58.52484107017517,36.40662133693695 58.52484107017517,36.40662133693695 64.14056420326233,33.89524817466736 64.14056420326233,33.89524817466736 70.29259204864502,33.90478789806366 70.29259204864502,33.90478789806366 75.53926706314087,36.27070486545563 75.53926706314087,36.27070486545563 79.47152256965637,40.38086533546448 79.47152256965637,40.38086533546448 81.6801905632019,45.62266767024994 81.6801905632019,45.62266767024994 81.756192445755,51.38387084007263 81.756192445755,51.38387084007263 79.29047346115112,57.052040100097656 79.29047346115112,57.052040100097656 81.6272497177124,56.715309619903564 81.6272497177124,56.715309619903564 84.19161438941956,56.64721727371216 84.19161438941956,56.64721727371216 86.75336241722107,56.967753171920776 86.75336241722107,56.967753171920776 89.08211588859558,57.79668092727661 89.08211588859558,57.79668092727661 90.94770550727844,59.25420522689819 90.94770550727844,59.25420522689819" stroke="white" stroke-width="0.1" /><polygon points="35.87956428527832,33.89524817466736 35.87956428527832,33.89524817466736 35.88207960128784,33.89524817466736 35.88207960128784,33.89524817466736 41.49720072746277,36.404210329055786 41.49720072746277,36.404210329055786 45.321449637413025,40.70155620574951 45.321449637413025,40.70155620574951 47.23455607891083,46.05904221534729 47.23455607891083,46.05904221534729 47.11614549160004,51.74859166145325 47.11614549160004,51.74859166145325 44.84591782093048,57.0422887802124 44.84591782093048,57.0422887802124 40.30359983444214,61.21188998222351 40.30359983444214,61.21188998222351 43.95275115966797,62.91598081588745 43.95275115966797,62.91598081588745 45.92115879058838,65.7287061214447 45.92115879058838,65.7287061214447 46.62389159202576,69.29047703742981 46.62389159202576,69.29047703742981 46.47586643695831,73.2416033744812 46.47586643695831,73.2416033744812 45.892223715782166,77.22260355949402 45.892223715782166,77.22260355949402 45.28787434101105,80.87390065193176 45.28787434101105,80.87390065193176 45.094168186187744,82.41162300109863 45.094168186187744,82.41162300109863 44.92291808128357,83.97754430770874 44.92291808128357,83.97754430770874 44.744935631752014,85.55415868759155 44.744935631752014,85.55415868759155 44.53091621398926,87.12416291236877 44.53091621398926,87.12416291236877 44.251713156700134,88.67079615592957 44.251713156700134,88.67079615592957 43.87805461883545,90.17654061317444 43.87805461883545,90.17654061317444 42.97199249267578,92.25457906723022 42.97199249267578,92.25457906723022 41.61005616188049,94.02576684951782 41.61005616188049,94.02576684951782 39.88688290119171,95.45854330062866 39.88688290119171,95.45854330062866 37.89706230163574,96.52115106582642 37.89706230163574,96.52115106582642 35.73525846004486,97.1819281578064 35.73525846004486,97.1819281578064 33.49603712558746,97.40931391716003 33.49603712558746,97.40931391716003 14.276009798049927,97.40931391716003 14.276009798049927,97.40931391716003 7.048265635967255,97.40931391716003 7.048265635967255,97.40931391716003 6.121576949954033,97.20677137374878 6.121576949954033,97.20677137374878 5.148288980126381,96.67316675186157 5.148288980126381,96.67316675186157 4.185641556978226,95.91981768608093 4.185641556978226,95.91981768608093 3.290744125843048,95.05786895751953 3.290744125843048,95.05786895751953 2.5208882987499237,94.1989541053772 2.5208882987499237,94.1989541053772 1.9331572577357292,93.45409870147705 1.9331572577357292,93.45409870147705 1.2184446677565575,92.33708381652832 1.2184446677565575,92.33708381652832 0.6576560903340578,91.14479422569275 0.6576560903340578,91.14479422569275 0.2620874671265483,89.89474177360535 0.2620874671265483,89.89474177360535 0.04285130125936121,88.60433101654053 0.04285130125936121,88.60433101654053 0.011322178761474788,87.29127049446106 0.011322178761474788,87.29127049446106 0.1786388223990798,85.97307801246643 0.1786388223990798,85.97307801246643 0.8541430346667767,83.14116597175598 0.8541430346667767,83.14116597175598 1.6786964610219002,80.31911849975586 1.6786964610219002,80.31911849975586 2.6020044460892677,77.50869989395142 2.6020044460892677,77.50869989395142 3.5736676305532455,74.71128106117249 3.5736676305532455,74.71128106117249 4.5432861894369125,71.92875146865845 4.5432861894369125,71.92875146865845 5.460644885897636,69.16257739067078 5.460644885897636,69.16257739067078 7.815658301115036,61.73522472381592 7.815658301115036,61.73522472381592 9.038610756397247,59.4551682472229 9.038610756397247,59.4551682472229 10.879433900117874,57.920074462890625 10.879433900117874,57.920074462890625 13.153751194477081,57.02100992202759 13.153751194477081,57.02100992202759 15.67702442407608,56.64910674095154 15.67702442407608,56.64910674095154 18.264928460121155,56.69580698013306 18.264928460121155,56.69580698013306 20.733006298542023,57.052040100097656 20.733006298542023,57.052040100097656 18.26671063899994,51.389479637145996 18.26671063899994,51.389479637145996 18.343135714530945,45.62942683696747 18.343135714530945,45.62942683696747 20.552480220794678,40.38589596748352 20.552480220794678,40.38589596748352 24.484866857528687,36.27285361289978 24.484866857528687,36.27285361289978 29.730495810508728,33.9046835899353 29.730495810508728,33.9046835899353" stroke="white" stroke-width="0.1" /></svg>