<?xml version="1.0" encoding="utf-8" ?>
<svg baseProfile="full" height="68.01983118057251" version="1.1" width="100.0" xmlns="http://www.w3.org/2000/svg" xmlns:ev="http://www.w3.org/2001/xml-events" xmlns:xlink="http://www.w3.org/1999/xlink"><defs><clipPath /></defs><polygon points="66.18689894676208,12.848557531833649 66.18689894676208,12.848557531833649 68.8624918460846,13.29345703125 68.8624918460846,13.29345703125 70.82585096359253,13.781596720218658 70.82585096359253,13.781596720218658 72.17764258384705,14.314152300357819 72.17764258384705,14.314152300357819 73.01851511001587,14.892248809337616 73.01851511001587,14.892248809337616 73.44925999641418,15.517108142375946 73.44925999641418,15.517108142375946 73.57046008110046,16.189904510974884 73.57046008110046,16.189904510974884 73.44925999641418,16.863544285297394 73.44925999641418,16.863544285297394 73.01853895187378,17.48807430267334 73.01853895187378,17.48807430267334 72.17764258384705,18.065279722213745 72.17764258384705,18.065279722213745 70.82582712173462,18.59656721353531 70.82582712173462,18.59656721353531 68.8624918460846,19.083768129348755 68.8624918460846,19.083768129348755 66.18689894676208,19.52824592590332 66.18689894676208,19.52824592590332 64.80072140693665,19.698157906532288 64.80072140693665,19.698157906532288 63.254231214523315,19.85553503036499 63.254231214523315,19.85553503036499 61.56005859375,19.99962478876114 61.56005859375,19.99962478876114 59.730786085128784,20.12939453125 59.730786085128784,20.12939453125 57.77902603149414,20.244047045707703 57.77902603149414,20.244047045707703 55.71739673614502,20.342548191547394 55.71739673614502,20.342548191547394 55.71739673614502,25.282451510429382 55.71739673614502,25.282451510429382 59.942156076431274,25.282451510429382 59.942156076431274,25.282451510429382 60.741132497787476,25.389403104782104 60.741132497787476,25.389403104782104 61.458832025527954,25.69129467010498 61.458832025527954,25.69129467010498 62.06674575805664,26.159855723381042 62.06674575805664,26.159855723381042 62.536293268203735,26.766544580459595 62.536293268203735,26.766544580459595 62.838977575302124,27.483192086219788 62.838977575302124,27.483192086219788 62.94621229171753,28.281250596046448 62.94621229171753,28.281250596046448 62.94621229171753,31.15084171295166 62.94621229171753,31.15084171295166 65.68208932876587,31.15084171295166 65.68208932876587,31.15084171295166 66.70016050338745,31.287512183189392 66.70016050338745,31.287512183189392 67.61474609375,31.673303246498108 67.61474609375,31.673303246498108 68.38942170143127,32.272011041641235 68.38942170143127,32.272011041641235 68.98780465126038,33.047157526016235 68.98780465126038,33.047157526016235 69.3735420703888,33.962637186050415 69.3735420703888,33.962637186050415 69.51021552085876,34.981971979141235 69.51021552085876,34.981971979141235 69.51021552085876,64.1947090625763 69.51021552085876,64.1947090625763 69.3735420703888,65.21155834197998 69.3735420703888,65.21155834197998 68.98782849311829,66.12525582313538 68.98782849311829,66.12525582313538 68.38942170143127,66.8994128704071 68.38942170143127,66.8994128704071 67.61472225189209,67.49746203422546 67.61472225189209,67.49746203422546 66.70016050338745,67.88315773010254 66.70016050338745,67.88315773010254 65.68208932876587,68.01983118057251 65.68208932876587,68.01983118057251 35.79176664352417,68.01983118057251 35.79176664352417,68.01983118057251 34.77238714694977,67.88320541381836 34.77238714694977,67.88320541381836 33.85744392871857,67.49750971794128 33.85744392871857,67.49750971794128 33.083027601242065,66.8994128704071 33.083027601242065,66.8994128704071 32.48518705368042,66.12520813941956 32.48518705368042,66.12520813941956 32.10003077983856,65.21146297454834 32.10003077983856,65.21146297454834 31.963640451431274,64.1947090625763 31.963640451431274,64.1947090625763 31.963640451431274,34.981971979141235 31.963640451431274,34.981971979141235 32.10005462169647,33.962637186050415 32.10005462169647,33.962637186050415 32.485198974609375,33.04720222949982 32.485198974609375,33.04720222949982 33.083027601242065,32.272011041641235 33.083027601242065,32.272011041641235 33.85744392871857,31.673255562782288 33.85744392871857,31.673255562782288 34.77238714694977,31.287512183189392 34.77238714694977,31.287512183189392 35.79176664352417,31.15084171295166 35.79176664352417,31.15084171295166 38.51938247680664,31.15084171295166 38.51938247680664,31.15084171295166 38.51938247680664,28.281250596046448 38.51938247680664,28.281250596046448 38.626837730407715,27.483239769935608 38.626837730407715,27.483239769935608 38.93006443977356,26.766592264175415 38.93006443977356,26.766592264175415 39.40035402774811,26.159855723381042 39.40035402774811,26.159855723381042 40.008991956710815,25.69129467010498 40.008991956710815,25.69129467010498 40.72725772857666,25.389403104782104 40.72725772857666,25.389403104782104 41.526442766189575,25.282451510429382 41.526442766189575,25.282451510429382 45.75345516204834,25.282451510429382 45.75345516204834,25.282451510429382 45.75345516204834,20.585937798023224 45.75345516204834,20.585937798023224 45.37339508533478,20.589177310466766 45.37339508533478,20.589177310466766 44.993191957473755,20.59251070022583 44.993191957473755,20.59251070022583 44.61238086223602,20.595702528953552 44.61238086223602,20.595702528953552 44.23058032989502,20.598378777503967 44.23058032989502,20.598378777503967 43.847328424453735,20.60021013021469 43.847328424453735,20.60021013021469 43.46228837966919,20.60096114873886 43.46228837966919,20.60096114873886 40.35344123840332,20.58631330728531 40.35344123840332,20.58631330728531 37.28543817996979,20.54283767938614 37.28543817996979,20.54283767938614 34.27668511867523,20.471379160881042 34.27668511867523,20.471379160881042 31.345614790916443,20.372548699378967 31.345614790916443,20.372548699378967 28.510671854019165,20.247238874435425 28.510671854019165,20.247238874435425 25.790265202522278,20.096154510974884 25.790265202522278,20.096154510974884 11.42578125,18.972355127334595 11.42578125,18.972355127334595 6.796815991401672,18.623515963554382 6.796815991401672,18.623515963554382 3.6217909306287766,18.24495792388916 3.6217909306287766,18.24495792388916 1.6276666894555092,17.82451868057251 1.6276666894555092,17.82451868057251 0.5413583479821682,17.34994798898697 0.5413583479821682,17.34994798898697 0.08982731960713863,16.80917590856552 0.08982731960713863,16.80917590856552 0.0,16.189904510974884 0.0,16.189904510974884 0.08983905427157879,15.570443868637085 0.08983905427157879,15.570443868637085 0.5413583479821682,15.029014647006989 0.5413583479821682,15.029014647006989 1.6276666894555092,14.553786814212799 1.6276666894555092,14.553786814212799 3.6217909306287766,14.132548868656158 3.6217909306287766,14.132548868656158 6.796804815530777,13.75347375869751 6.796804815530777,13.75347375869751 11.42578125,13.404446840286255 11.42578125,13.404446840286255 25.790265202522278,12.283653765916824 25.790265202522278,12.283653765916824 28.510671854019165,12.131253629922867 28.510671854019165,12.131253629922867 31.345626711845398,12.005051970481873 31.345626711845398,12.005051970481873 34.27668511867523,11.905799061059952 34.27668511867523,11.905799061059952 37.28541433811188,11.83396577835083 37.28541433811188,11.83396577835083 40.35344123840332,11.79049015045166 40.35344123840332,11.79049015045166 43.46228837966919,11.775841563940048 43.46228837966919,11.775841563940048 43.847352266311646,11.776592582464218 43.847352266311646,11.776592582464218 44.23058032989502,11.778517812490463 44.23058032989502,11.778517812490463 44.61238086223602,11.781475692987442 44.61238086223602,11.781475692987442 44.993191957473755,11.78513765335083 44.993191957473755,11.78513765335083 45.37339508533478,11.789362877607346 45.37339508533478,11.789362877607346 45.75345516204834,11.793870478868484 45.75345516204834,11.793870478868484 45.75345516204834,10.000000149011612 45.75345516204834,10.000000149011612 45.84209620952606,9.337440133094788 45.84209620952606,9.337440133094788 46.09248340129852,8.7417371571064 46.09248340129852,8.7417371571064 46.48127555847168,8.236929029226303 46.48127555847168,8.236929029226303 46.985191106796265,7.846726477146149 46.985191106796265,7.846726477146149 47.58094251155853,7.595121115446091 47.58094251155853,7.595121115446091 48.24519157409668,7.506009936332703 48.24519157409668,7.506009936332703 53.22490930557251,7.506009936332703 53.22490930557251,7.506009936332703 53.888171911239624,7.595168054103851 53.888171911239624,7.595168054103851 54.48375940322876,7.846773415803909 54.48375940322876,7.846773415803909 54.98807430267334,8.236929029226303 54.98807430267334,8.236929029226303 55.377525091171265,8.7417371571064 55.377525091171265,8.7417371571064 55.628472566604614,9.337346255779266 55.628472566604614,9.337346255779266 55.71739673614502,10.000000149011612 55.71739673614502,10.000000149011612 55.71739673614502,12.028244882822037 55.71739673614502,12.028244882822037 57.77904987335205,12.12928220629692 57.77904987335205,12.12928220629692 59.730786085128784,12.245577573776245 59.730786085128784,12.245577573776245 61.56005859375,12.37642765045166 61.56005859375,12.37642765045166 63.254231214523315,12.520986795425415 63.254231214523315,12.520986795425415 64.80069756507874,12.678645551204681 64.80069756507874,12.678645551204681" stroke="white" stroke-width="0.1" /><polygon points="55.99684715270996,29.233774542808533 55.99684715270996,29.233774542808533 45.47025263309479,29.233774542808533 45.47025263309479,29.233774542808533 44.9759840965271,29.29997444152832 44.9759840965271,29.29997444152832 44.53183710575104,29.48683500289917 44.53183710575104,29.48683500289917 44.155555963516235,29.776892066001892 44.155555963516235,29.776892066001892 43.864840269088745,30.152541399002075 43.864840269088745,30.152541399002075 43.67741644382477,30.596360564231873 43.67741644382477,30.596360564231873 43.61102879047394,31.090745329856873 43.61102879047394,31.090745329856873 43.61102879047394,31.15084171295166 43.61102879047394,31.15084171295166 43.61102879047394,35.99759638309479 43.61102879047394,35.99759638309479 39.25255537033081,35.99759638309479 39.25255537033081,35.99759638309479 39.12588357925415,36.00369989871979 39.12588357925415,36.00369989871979 39.002203941345215,36.020272970199585 39.002203941345215,36.020272970199585 38.880616426467896,36.04492247104645 38.880616426467896,36.04492247104645 38.76021206378937,36.07501685619354 38.76021206378937,36.07501685619354 38.64009082317352,36.10816299915314 38.64009082317352,36.10816299915314 38.51938247680664,36.14182770252228 38.51938247680664,36.14182770252228 37.97090947628021,36.36108338832855 37.97090947628021,36.36108338832855 37.486279010772705,36.68278753757477 37.486279010772705,36.68278753757477 37.081485986709595,37.09435164928436 37.081485986709595,37.09435164928436 36.77251935005188,37.58296072483063 36.77251935005188,37.58296072483063 36.57541275024414,38.1360799074173 36.57541275024414,38.1360799074173 36.50616109371185,38.740986585617065 36.50616109371185,38.740986585617065 36.50616109371185,50.222355127334595 36.50616109371185,50.222355127334595 36.57542169094086,50.82932710647583 36.57542169094086,50.82932710647583 36.772531270980835,51.382964849472046 36.772531270980835,51.382964849472046 37.081485986709595,51.871246099472046 37.081485986709595,51.871246099472046 37.486279010772705,52.28182077407837 37.486279010772705,52.28182077407837 37.97090947628021,52.602678537368774 37.97090947628021,52.602678537368774 38.51938247680664,52.82151699066162 38.51938247680664,52.82151699066162 40.39663374423981,52.849072217941284 40.39663374423981,52.849072217941284 44.907695055007935,52.8656005859375 44.907695055007935,52.8656005859375 50.73533058166504,52.87109613418579 50.73533058166504,52.87109613418579 56.562405824661255,52.86555290222168 56.562405824661255,52.86555290222168 61.07175350189209,52.849072217941284 61.07175350189209,52.849072217941284 62.94621229171753,52.82151699066162 62.94621229171753,52.82151699066162 63.4973406791687,52.602726221084595 63.4973406791687,52.602726221084595 63.982826471328735,52.28186845779419 63.982826471328735,52.28186845779419 64.38730359077454,51.871246099472046 64.38730359077454,51.871246099472046 64.69529271125793,51.382964849472046 64.69529271125793,51.382964849472046 64.89138007164001,50.82927942276001 64.89138007164001,50.82927942276001 64.96018767356873,50.222355127334595 64.96018767356873,50.222355127334595 64.96018767356873,38.740986585617065 64.96018767356873,38.740986585617065 64.89140391349792,38.13617527484894 64.89140391349792,38.13617527484894 64.69529271125793,37.58300840854645 64.69529271125793,37.58300840854645 64.38730359077454,37.09435164928436 64.38730359077454,37.09435164928436 63.982826471328735,36.68273985385895 63.982826471328735,36.68273985385895 63.49731683731079,36.36099100112915 63.49731683731079,36.36099100112915 62.94621229171753,36.14182770252228 62.94621229171753,36.14182770252228 62.828272581100464,36.10821068286896 62.828272581100464,36.10821068286896 62.70979642868042,36.07506453990936 62.70979642868042,36.07506453990936 62.59005069732666,36.04492247104645 62.59005069732666,36.04492247104645 62.468212842941284,36.020225286483765 62.468212842941284,36.020225286483765 62.34356164932251,36.00365221500397 62.34356164932251,36.00365221500397 62.21529245376587,35.99759638309479 62.21529245376587,35.99759638309479 57.85832405090332,35.99759638309479 57.85832405090332,35.99759638309479 57.85832405090332,31.15084171295166 57.85832405090332,31.15084171295166 57.85832405090332,31.090745329856873 57.85832405090332,31.090745329856873 57.79203176498413,30.596360564231873 57.79203176498413,30.596360564231873 57.604748010635376,30.152589082717896 57.604748010635376,30.152589082717896 57.314079999923706,29.776892066001892 57.314079999923706,29.776892066001892 56.93749189376831,29.48683500289917 56.93749189376831,29.48683500289917 56.49259090423584,29.2999267578125 56.49259090423584,29.2999267578125" stroke="white" stroke-width="0.1" /><polygon points="98.71469140052795,0.4356971010565758 98.71469140052795,0.4356971010565758 99.08900260925293,0.7268817629665136 99.08900260925293,0.7268817629665136 99.40513968467712,1.0745004750788212 99.40513968467712,1.0745004750788212 99.65876936912537,1.469350978732109 99.65876936912537,1.469350978732109 99.84539151191711,1.902231015264988 99.84539151191711,1.902231015264988 99.96060729026794,2.364032529294491 99.96060729026794,2.364032529294491 100.0,2.845552936196327 100.0,2.845552936196327 100.0,29.531249403953552 100.0,29.531249403953552 99.96060729026794,30.013802647590637 99.96060729026794,30.013802647590637 99.84539151191711,30.475839972496033 99.84539151191711,30.475839972496033 99.65876936912537,30.908578634262085 99.65876936912537,30.908578634262085 99.40513968467712,31.302914023399353 99.40513968467712,31.302914023399353 99.08897876739502,31.650108098983765 99.08897876739502,31.650108098983765 98.71469140052795,31.941106915473938 98.71469140052795,31.941106915473938 98.48787784576416,32.07463324069977 98.48787784576416,32.07463324069977 98.25186133384705,32.18360245227814 98.25186133384705,32.18360245227814 98.00837635993958,32.26825296878815 98.00837635993958,32.26825296878815 97.75925874710083,32.3285847902298 97.75925874710083,32.3285847902298 97.50633835792542,32.36478269100189 97.50633835792542,32.36478269100189 97.2513496875763,32.37680196762085 97.2513496875763,32.37680196762085 97.0473051071167,32.36929178237915 97.0473051071167,32.36929178237915 96.8442976474762,32.34651982784271 96.8442976474762,32.34651982784271 96.64325714111328,32.30844438076019 96.64325714111328,32.30844438076019 96.44493460655212,32.25477933883667 96.44493460655212,32.25477933883667 96.25023603439331,32.18552768230438 96.25023603439331,32.18552768230438 96.05994820594788,32.100361585617065 96.05994820594788,32.100361585617065 80.38987517356873,18.75901371240616 80.38987517356873,18.75901371240616 79.9430251121521,18.480882048606873 79.9430251121521,18.480882048606873 79.56068515777588,18.126314878463745 79.56068515777588,18.126314878463745 79.25039529800415,17.70770698785782 79.25039529800415,17.70770698785782 79.01949286460876,17.23722070455551 79.01949286460876,17.23722070455551 78.87549996376038,16.727201640605927 78.87549996376038,16.727201640605927 78.82587313652039,16.189904510974884 78.82587313652039,16.189904510974884 78.87552380561829,15.651339292526245 78.87552380561829,15.651339292526245 79.01951670646667,15.140475332736969 79.01951670646667,15.140475332736969 79.25039529800415,14.669470489025116 79.25039529800415,14.669470489025116 79.56068515777588,14.250534772872925 79.56068515777588,14.250534772872925 79.9430251121521,13.895921409130096 79.9430251121521,13.895921409130096 80.38987517356873,13.617788255214691 80.38987517356873,13.617788255214691 96.05994820594788,0.2794471103698015 96.05994820594788,0.2794471103698015 96.25023603439331,0.19197904039174318 96.25023603439331,0.19197904039174318 96.44493460655212,0.12150690890848637 96.44493460655212,0.12150690890848637 96.64325714111328,0.06760817486792803 96.64325714111328,0.06760817486792803 96.8442976474762,0.029672475648112595 96.8442976474762,0.029672475648112595 97.04725742340088,0.007324219041038305 97.04725742340088,0.007324219041038305 97.2513496875763,0.0 97.2513496875763,0.0 97.50633835792542,0.01220703125 97.50633835792542,0.01220703125 97.75928258895874,0.048828125 97.75928258895874,0.048828125 98.00837635993958,0.10967548005282879 98.00837635993958,0.10967548005282879 98.25181365013123,0.19446739461272955 98.25181365013123,0.19446739461272955 98.48787784576416,0.3032038686797023 98.48787784576416,0.3032038686797023" stroke="white" stroke-width="0.1" /></svg>