<?xml version="1.0" encoding="utf-8" ?>
<svg baseProfile="full" height="86.30869388580322" version="1.1" width="99.88366961479187" xmlns="http://www.w3.org/2000/svg" xmlns:ev="http://www.w3.org/2001/xml-events" xmlns:xlink="http://www.w3.org/1999/xlink"><defs><clipPath /></defs><polygon points="22.344422340393066,24.225090444087982 22.344422340393066,24.225090444087982 22.540774941444397,24.73101019859314 22.540774941444397,24.73101019859314 22.707901895046234,25.246790051460266 22.707901895046234,25.246790051460266 22.845518589019775,25.770938396453857 22.845518589019775,25.770938396453857 22.953057289123535,26.301828026771545 22.953057289123535,26.301828026771545 23.030520975589752,26.838070154190063 23.030520975589752,26.838070154190063 23.077622056007385,27.378076314926147 23.077622056007385,27.378076314926147 23.0173259973526,28.049203753471375 23.0173259973526,28.049203753471375 22.7880597114563,28.650817275047302 22.7880597114563,28.650817275047302 22.44032919406891,29.206818342208862 22.44032919406891,29.206818342208862 22.02393114566803,29.741039872169495 22.02393114566803,29.741039872169495 21.58951610326767,30.277392268180847 21.58951610326767,30.277392268180847 21.186739206314087,30.839774012565613 21.186739206314087,30.839774012565613 20.39012312889099,32.267725467681885 20.39012312889099,32.267725467681885 19.762760400772095,33.737531304359436 19.762760400772095,33.737531304359436 19.284506142139435,35.246917605400085 19.284506142139435,35.246917605400085 18.935641646385193,36.79329752922058 18.935641646385193,36.79329752922058 18.69630217552185,38.374364376068115 18.69630217552185,38.374364376068115 18.54676753282547,39.98774290084839 18.54676753282547,39.98774290084839 17.37092435359955,57.06016421318054 17.37092435359955,57.06016421318054 17.369364202022552,57.22630023956299 17.369364202022552,57.22630023956299 17.374755442142487,57.482171058654785 17.374755442142487,57.482171058654785 17.377451062202454,57.78059959411621 17.377451062202454,57.78059959411621 17.367660999298096,58.07427763938904 17.367660999298096,58.07427763938904 17.33630746603012,58.315956592559814 17.33630746603012,58.315956592559814 17.27331578731537,58.458465337753296 17.27331578731537,58.458465337753296 17.01950579881668,58.54986906051636 17.01950579881668,58.54986906051636 16.592325270175934,58.575475215911865 16.592325270175934,58.575475215911865 16.075341403484344,58.557212352752686 16.075341403484344,58.557212352752686 15.550978481769562,58.51699113845825 15.550978481769562,58.51699113845825 15.10251760482788,58.47673416137695 15.10251760482788,58.47673416137695 14.812670648097992,58.458465337753296 14.812670648097992,58.458465337753296 6.161826103925705,58.458465337753296 6.161826103925705,58.458465337753296 4.504891857504845,58.27339291572571 4.504891857504845,58.27339291572571 2.9962148517370224,57.73406624794006 2.9962148517370224,57.73406624794006 1.714392751455307,56.86410069465637 1.714392751455307,56.86410069465637 0.7377393543720245,55.68708777427673 0.7377393543720245,55.68708777427673 0.14513602945953608,54.22671437263489 0.14513602945953608,54.22671437263489 0.014754787844140083,52.50661373138428 0.014754787844140083,52.50661373138428 0.11888953158631921,50.99914073944092 0.11888953158631921,50.99914073944092 0.22274053189903498,49.491316080093384 0.22274053189903498,49.491316080093384 0.32659154385328293,47.983136773109436 0.32659154385328293,47.983136773109436 0.43001691810786724,46.474528312683105 0.43001691810786724,46.474528312683105 0.5334422923624516,44.965603947639465 0.5334422923624516,44.965603947639465 0.6367258261889219,43.45625340938568 0.6367258261889219,43.45625340938568 0.6713428068906069,42.85244345664978 0.6713428068906069,42.85244345664978 0.6992917973548174,42.2373503446579 0.6992917973548174,42.2373503446579 0.7334831636399031,41.61786437034607 0.7334831636399031,41.61786437034607 0.7858342491090298,41.00082218647003 0.7858342491090298,41.00082218647003 0.8691136725246906,40.39311110973358 0.8691136725246906,40.39311110973358 0.9953806176781654,39.80160653591156 0.9953806176781654,39.80160653591156 1.501583307981491,38.49736750125885 1.501583307981491,38.49736750125885 2.272946573793888,37.34287619590759 2.272946573793888,37.34287619590759 3.2656315714120865,36.37594282627106 3.2656315714120865,36.37594282627106 4.434522986412048,35.634300112724304 4.434522986412048,35.634300112724304 5.735639855265617,35.15569269657135 5.735639855265617,35.15569269657135 7.124292105436325,34.977924823760986 7.124292105436325,34.977924823760986 5.559149757027626,33.11935365200043 5.559149757027626,33.11935365200043 4.538515955209732,30.97671866416931 4.538515955209732,30.97671866416931 4.073172435164452,28.670254349708557 4.073172435164452,28.670254349708557 4.172767326235771,26.32026970386505 4.172767326235771,26.32026970386505 4.8475150018930435,24.0470752120018 4.8475150018930435,24.0470752120018 6.107347086071968,21.97101265192032 6.107347086071968,21.97101265192032 7.7251240611076355,20.39349228143692 7.7251240611076355,20.39349228143692 9.63260605931282,19.26315426826477 9.63260605931282,19.26315426826477 11.73289343714714,18.600112199783325 11.73289343714714,18.600112199783325 13.927951455116272,18.424296379089355 13.927951455116272,18.424296379089355 16.12059772014618,18.755853176116943 16.12059772014618,18.755853176116943 18.2130828499794,19.61478739976883 18.2130828499794,19.61478739976883 19.100356101989746,20.178519189357758 19.100356101989746,20.178519189357758 19.918537139892578,20.835745334625244 19.918537139892578,20.835745334625244 20.66010683774948,21.57774120569229 20.66010683774948,21.57774120569229 21.31669521331787,22.395744919776917 21.31669521331787,22.395744919776917 21.880781650543213,23.281103372573853 21.880781650543213,23.281103372573853" stroke="white" stroke-width="0.1" /><polygon points="87.33358383178711,33.18919241428375 87.33358383178711,33.18919241428375 86.69543862342834,33.750370144844055 86.69543862342834,33.750370144844055 86.04651689529419,34.334248304367065 86.04651689529419,34.334248304367065 85.389643907547,34.9393367767334 85.389643907547,34.9393367767334 84.7266674041748,35.56407392024994 84.7266674041748,35.56407392024994 84.06029343605042,36.2069696187973 84.06029343605042,36.2069696187973 83.39292407035828,36.86653971672058 83.39292407035828,36.86653971672058 82.14046955108643,38.14878463745117 82.14046955108643,38.14878463745117 80.76997399330139,39.62000906467438 80.76997399330139,39.62000906467438 79.32230234146118,41.25807285308838 79.32230234146118,41.25807285308838 77.83689498901367,43.04084777832031 77.83689498901367,43.04084777832031 76.35446190834045,44.94616687297821 76.35446190834045,44.94616687297821 74.91459250450134,46.95200324058533 74.91459250450134,46.95200324058533 74.83429312705994,45.79109251499176 74.83429312705994,45.79109251499176 74.75413680076599,44.630393385887146 74.75413680076599,44.630393385887146 74.67426061630249,43.46987307071686 74.67426061630249,43.46987307071686 74.59452748298645,42.30928122997284 74.59452748298645,42.30928122997284 74.51493740081787,41.14861786365509 74.51493740081787,41.14861786365509 74.43563342094421,39.98774290084839 74.43563342094421,39.98774290084839 74.28467869758606,38.374364376068115 74.28467869758606,38.374364376068115 74.04462695121765,36.79329752922058 74.04462695121765,36.79329752922058 73.69590401649475,35.246917605400085 73.69590401649475,35.246917605400085 73.21779131889343,33.737531304359436 73.21779131889343,33.737531304359436 72.59043455123901,32.267725467681885 72.59043455123901,32.267725467681885 71.79338932037354,30.839774012565613 71.79338932037354,30.839774012565613 71.3907539844513,30.277392268180847 71.3907539844513,30.277392268180847 70.95605731010437,29.741039872169495 70.95605731010437,29.741039872169495 70.53980231285095,29.206818342208862 70.53980231285095,29.206818342208862 70.19178867340088,28.650817275047302 70.19178867340088,28.650817275047302 69.9626624584198,28.049203753471375 69.9626624584198,28.049203753471375 69.90250945091248,27.378076314926147 69.90250945091248,27.378076314926147 69.94960904121399,26.838070154190063 69.94960904121399,26.838070154190063 70.02692818641663,26.301828026771545 70.02692818641663,26.301828026771545 70.13460993766785,25.770938396453857 70.13460993766785,25.770938396453857 70.27194499969482,25.246790051460266 70.27194499969482,25.246790051460266 70.43907046318054,24.73101019859314 70.43907046318054,24.73101019859314 70.63570618629456,24.225090444087982 70.63570618629456,24.225090444087982 71.09863758087158,23.281103372573853 71.09863758087158,23.281103372573853 71.66230082511902,22.395744919776917 71.66230082511902,22.395744919776917 72.31888771057129,21.57774120569229 72.31888771057129,21.57774120569229 73.06002974510193,20.835745334625244 73.06002974510193,20.835745334625244 73.87807369232178,20.178519189357758 73.87807369232178,20.178519189357758 74.7647762298584,19.61478739976883 74.7647762298584,19.61478739976883 76.85768604278564,18.755853176116943 76.85768604278564,18.755853176116943 79.05047535896301,18.424296379089355 79.05047535896301,18.424296379089355 81.24638199806213,18.600112199783325 81.24638199806213,18.600112199783325 83.34723711013794,19.26315426826477 83.34723711013794,19.26315426826477 85.25599837303162,20.39349228143692 85.25599837303162,20.39349228143692 86.8750512599945,21.97101265192032 86.8750512599945,21.97101265192032 87.97003030776978,23.698635399341583 87.97003030776978,23.698635399341583 88.64747285842896,25.577068328857422 88.64747285842896,25.577068328857422 88.9149010181427,27.53583788871765 88.9149010181427,27.53583788871765 88.7796938419342,29.504430294036865 88.7796938419342,29.504430294036865 88.25022578239441,31.41237497329712 88.25022578239441,31.41237497329712" stroke="white" stroke-width="0.1" /><polygon points="52.805113792419434,64.88020420074463 52.805113792419434,64.88020420074463 51.923513412475586,65.32206535339355 51.923513412475586,65.32206535339355 51.17499232292175,65.92119932174683 51.17499232292175,65.92119932174683 50.57373642921448,66.65021181106567 50.57373642921448,66.65021181106567 50.13350248336792,67.48172640800476 50.13350248336792,67.48172640800476 49.8686283826828,68.38843822479248 49.8686283826828,68.38843822479248 49.79286789894104,69.34295892715454 49.79286789894104,69.34295892715454 35.70545017719269,69.34295892715454 35.70545017719269,69.34295892715454 34.81193482875824,69.35161352157593 34.81193482875824,69.35161352157593 33.90621840953827,69.36445236206055 33.90621840953827,69.36445236206055 32.99652934074402,69.36197280883789 32.99652934074402,69.36197280883789 32.0898175239563,69.3244457244873 32.0898175239563,69.3244457244873 31.194031238555908,69.23233270645142 31.194031238555908,69.23233270645142 30.3165465593338,69.06602382659912 30.3165465593338,69.06602382659912 28.084886074066162,68.22131276130676 28.084886074066162,68.22131276130676 26.227203011512756,66.90728664398193 26.227203011512756,66.90728664398193 24.7710183262825,65.2073621749878 24.7710183262825,65.2073621749878 23.74371588230133,63.20493221282959 23.74371588230133,63.20493221282959 23.173244297504425,60.98352074623108 23.173244297504425,60.98352074623108 23.086701333522797,58.6264431476593 23.086701333522797,58.6264431476593 24.096837639808655,43.97153556346893 24.096837639808655,43.97153556346893 24.153587222099304,43.04468035697937 24.153587222099304,43.04468035697937 24.202533066272736,42.11353361606598 24.202533066272736,42.11353361606598 24.25289750099182,41.18061065673828 24.25289750099182,41.18061065673828 24.313193559646606,40.248435735702515 24.313193559646606,40.248435735702515 24.393068253993988,39.31952118873596 24.393068253993988,39.31952118873596 24.50089156627655,38.39649558067322 24.50089156627655,38.39649558067322 25.179043412208557,35.83228588104248 25.179043412208557,35.83228588104248 26.43362581729889,33.52716863155365 26.43362581729889,33.52716863155365 28.17228138446808,31.571272015571594 28.17228138446808,31.571272015571594 30.301794409751892,30.054578185081482 30.301794409751892,30.054578185081482 32.7296644449234,29.06721532344818 32.7296644449234,29.06721532344818 35.36268472671509,28.699195384979248 35.36268472671509,28.699195384979248 33.046892285346985,26.066991686820984 33.046892285346985,26.066991686820984 31.363144516944885,23.05084317922592 31.363144516944885,23.05084317922592 30.338680744171143,19.77340131998062 30.338680744171143,19.77340131998062 29.999887943267822,16.35727733373642 29.999887943267822,16.35727733373642 30.374005436897278,12.925158441066742 30.374005436897278,12.925158441066742 31.487852334976196,9.59969162940979 31.487852334976196,9.59969162940979 33.08619260787964,6.8771496415138245 33.08619260787964,6.8771496415138245 35.14987528324127,4.536245763301849 35.14987528324127,4.536245763301849 37.60058879852295,2.6274871081113815 37.60058879852295,2.6274871081113815 40.3597354888916,1.2014511041343212 40.3597354888916,1.2014511041343212 43.34913790225983,0.30878649558871984 43.34913790225983,0.30878649558871984 46.49006426334381,0.0 46.49006426334381,0.0 49.63113069534302,0.30896381940692663 49.63113069534302,0.30896381940692663 52.62067914009094,1.201983168721199 52.62067914009094,1.201983168721199 55.38010597229004,2.62833833694458 55.38010597229004,2.62833833694458 57.83053636550903,4.537238925695419 57.83053636550903,4.537238925695419 59.89336967468262,6.877929717302322 59.89336967468262,6.877929717302322 61.49000525474548,9.59969162940979 61.49000525474548,9.59969162940979 62.60498762130737,12.925194203853607 62.60498762130737,12.925194203853607 62.979817390441895,16.357313096523285 62.979817390441895,16.357313096523285 62.6417338848114,19.77340131998062 62.6417338848114,19.77340131998062 61.616843938827515,23.050808906555176 61.616843938827515,23.050808906555176 59.93266701698303,26.06695592403412 59.93266701698303,26.06695592403412 57.61517286300659,28.699195384979248 57.61517286300659,28.699195384979248 60.349494218826294,29.096972942352295 60.349494218826294,29.096972942352295 62.86050081253052,30.160877108573914 62.86050081253052,30.160877108573914 65.04194140434265,31.788620352745056 65.04194140434265,31.788620352745056 66.78711771965027,33.87787938117981 66.78711771965027,33.87787938117981 67.98949241638184,36.32649779319763 67.98949241638184,36.32649779319763 68.54279637336731,39.03208673000336 68.54279637336731,39.03208673000336 68.6211109161377,40.164801478385925 68.6211109161377,40.164801478385925 68.69942545890808,41.297584772109985 68.69942545890808,41.297584772109985 68.77745389938354,42.430511116981506 68.77745389938354,42.430511116981506 68.85520219802856,43.56358051300049 68.85520219802856,43.56358051300049 68.9329445362091,44.69693303108215 68.9329445362091,44.69693303108215 69.01041269302368,45.83064019680023 69.01041269302368,45.83064019680023 69.71409916877747,56.05683922767639 69.71409916877747,56.05683922767639 69.73367929458618,56.33001923561096 69.73367929458618,56.33001923561096 69.75311636924744,56.60262703895569 69.75311636924744,56.60262703895569 69.77255344390869,56.87488317489624 69.77255344390869,56.87488317489624 69.7914183139801,57.1469247341156 69.7914183139801,57.1469247341156 69.80986595153809,57.41896629333496 69.80986595153809,57.41896629333496 69.82759833335876,57.691216468811035 69.82759833335876,57.691216468811035 69.6803331375122,58.44048261642456 69.6803331375122,58.44048261642456 69.56513524055481,59.17407274246216 69.56513524055481,59.17407274246216 69.48142647743225,59.89195108413696 69.48142647743225,59.89195108413696 69.42865252494812,60.59386730194092 69.42865252494812,60.59386730194092 69.40652132034302,61.27982139587402 69.40652132034302,61.27982139587402 69.41446661949158,61.949676275253296 69.41446661949158,61.949676275253296 69.36225295066833,61.94871664047241 69.36225295066833,61.94871664047241 69.3094789981842,61.94804310798645 69.3094789981842,61.94804310798645 69.2566990852356,61.947691440582275 69.2566990852356,61.947691440582275 69.203782081604,61.94744110107422 69.203782081604,61.94744110107422 69.15114521980286,61.94740533828735 69.15114521980286,61.94740533828735 69.09893751144409,61.94740533828735 69.09893751144409,61.94740533828735 65.95233678817749,62.08282709121704 65.95233678817749,62.08282709121704 62.8109872341156,62.445950508117676 62.8109872341156,62.445950508117676 59.80030298233032,62.972015142440796 59.80030298233032,62.972015142440796 57.04541206359863,63.59618306159973 57.04541206359863,63.59618306159973 54.67202067375183,64.25390839576721 54.67202067375183,64.25390839576721" stroke="white" stroke-width="0.1" /><polygon points="67.72787570953369,83.4235668182373 67.72787570953369,83.4235668182373 65.32384157180786,82.04832077026367 65.32384157180786,82.04832077026367 63.02294731140137,79.65145111083984 63.02294731140137,79.65145111083984 60.80859303474426,76.75269842147827 60.80859303474426,76.75269842147827 58.66432189941406,73.87168407440186 58.66432189941406,73.87168407440186 56.57368302345276,71.528160572052 56.57368302345276,71.528160572052 54.520076513290405,70.24186849594116 54.520076513290405,70.24186849594116 54.965269565582275,70.18905282020569 54.965269565582275,70.18905282020569 55.409759283065796,70.146244764328 55.409759283065796,70.146244764328 55.85339665412903,70.11333107948303 55.85339665412903,70.11333107948303 56.29589557647705,70.08998990058899 56.29589557647705,70.08998990058899 56.73754811286926,70.0761616230011 56.73754811286926,70.0761616230011 57.178205251693726,70.07161974906921 57.178205251693726,70.07161974906921 61.34827733039856,70.46074271202087 61.34827733039856,70.46074271202087 65.41889309883118,71.53280377388 65.41889309883118,71.53280377388 69.37757730484009,73.14487099647522 69.37757730484009,73.14487099647522 73.211270570755,75.15393495559692 73.211270570755,75.15393495559692 76.90748572349548,77.4172306060791 76.90748572349548,77.4172306060791 80.45331239700317,79.79161739349365 80.45331239700317,79.79161739349365 80.45530319213867,80.0285816192627 80.45530319213867,80.0285816192627 80.45260310173035,80.26235103607178 80.45260310173035,80.26235103607178 80.44593930244446,80.4924726486206 80.44593930244446,80.4924726486206 80.4355800151825,80.71840405464172 80.4355800151825,80.71840405464172 80.42295575141907,80.9397280216217 80.42295575141907,80.9397280216217 80.40791749954224,81.1558723449707 80.40791749954224,81.1558723449707 79.29151654243469,81.57740831375122 79.29151654243469,81.57740831375122 77.91861295700073,82.13252425193787 77.91861295700073,82.13252425193787 76.33020281791687,82.72753953933716 76.33020281791687,82.72753953933716 74.56615567207336,83.26860666275024 74.56615567207336,83.26860666275024 72.66746759414673,83.66202116012573 72.66746759414673,83.66202116012573 70.67429423332214,83.81400108337402 70.67429423332214,83.81400108337402 70.18823623657227,83.80417823791504 70.18823623657227,83.80417823791504 69.69906091690063,83.77381563186646 69.69906091690063,83.77381563186646 69.2078948020935,83.72178673744202 69.2078948020935,83.72178673744202 68.71502995491028,83.64680409431458 68.71502995491028,83.64680409431458 68.22145581245422,83.54784846305847 68.22145581245422,83.54784846305847" stroke="white" stroke-width="0.1" /><polygon points="80.1196277141571,77.3241639137268 80.1196277141571,77.3241639137268 78.2175362110138,76.13718509674072 78.2175362110138,76.13718509674072 76.28480195999146,75.00216364860535 76.28480195999146,75.00216364860535 74.3201494216919,73.92488718032837 74.3201494216919,73.92488718032837 72.32143878936768,72.911137342453 72.32143878936768,72.911137342453 70.28740644454956,71.96682691574097 70.28740644454956,71.96682691574097 68.21591854095459,71.09764218330383 68.21591854095459,71.09764218330383 66.56423807144165,70.48262357711792 66.56423807144165,70.48262357711792 64.8729681968689,69.95989680290222 64.8729681968689,69.95989680290222 63.15006613731384,69.5381760597229 63.15006613731384,69.5381760597229 61.40317916870117,69.2261278629303 61.40317916870117,69.2261278629303 59.64083671569824,69.03257966041565 59.64083671569824,69.03257966041565 57.870543003082275,68.966144323349 57.870543003082275,68.966144323349 57.296955585479736,68.97352337837219 57.296955585479736,68.97352337837219 56.72336220741272,68.99572610855103 56.72336220741272,68.99572610855103 56.15047812461853,69.03282403945923 56.15047812461853,69.03282403945923 55.578023195266724,69.08482313156128 55.578023195266724,69.08482313156128 55.006980895996094,69.15185451507568 55.006980895996094,69.15185451507568 54.437220096588135,69.23400163650513 54.437220096588135,69.23400163650513 56.116288900375366,68.67289543151855 56.116288900375366,68.67289543151855 58.26353430747986,68.08202862739563 58.26353430747986,68.08202862739563 60.75766086578369,67.52017736434937 60.75766086578369,67.52017736434937 63.4760856628418,67.04603433609009 63.4760856628418,67.04603433609009 66.29723310470581,66.71852469444275 66.29723310470581,66.71852469444275 69.09893751144409,66.59629940986633 69.09893751144409,66.59629940986633 69.94535326957703,66.60928130149841 69.94535326957703,66.60928130149841 70.77445983886719,66.64935946464539 70.77445983886719,66.64935946464539 71.58284783363342,66.71831011772156 71.58284783363342,66.71831011772156 72.36655354499817,66.81786775588989 72.36655354499817,66.81786775588989 73.12203049659729,66.9499158859253 73.12203049659729,66.9499158859253 73.84544014930725,67.11612343788147 73.84544014930725,67.11612343788147 74.32312369346619,68.07199120521545 74.32312369346619,68.07199120521545 74.84692335128784,68.99033188819885 74.84692335128784,68.99033188819885 75.40547251701355,69.87583637237549 75.40547251701355,69.87583637237549 75.98701119422913,70.73289155960083 75.98701119422913,70.73289155960083 76.58018469810486,71.56618237495422 76.58018469810486,71.56618237495422 77.17320919036865,72.38017320632935 77.17320919036865,72.38017320632935 77.63671278953552,73.0109453201294 77.63671278953552,73.0109453201294 78.08616161346436,73.633873462677 78.08616161346436,73.633873462677 78.51731777191162,74.25176501274109 78.51731777191162,74.25176501274109 78.92491817474365,74.86734986305237 78.92491817474365,74.86734986305237 79.30485606193542,75.48350691795349 79.30485606193542,75.48350691795349 79.65201735496521,76.10292434692383 79.65201735496521,76.10292434692383 79.74678874015808,76.2941300868988 79.74678874015808,76.2941300868988 79.83375787734985,76.49065852165222 79.83375787734985,76.49065852165222 79.9139142036438,76.6922652721405 79.9139142036438,76.6922652721405 79.9876868724823,76.89854502677917 79.9876868724823,76.89854502677917 80.05592823028564,77.10930109024048 80.05592823028564,77.10930109024048" stroke="white" stroke-width="0.1" /><polygon points="87.07253932952881,80.75862526893616 87.07253932952881,80.75862526893616 87.50156164169312,80.8750331401825 87.50156164169312,80.8750331401825 87.80616521835327,81.16838932037354 87.80616521835327,81.16838932037354 87.97059655189514,81.55850768089294 87.97059655189514,81.55850768089294 87.97839879989624,81.9650411605835 87.97839879989624,81.9650411605835 87.81382441520691,82.30780959129333 87.81382441520691,82.30780959129333 87.46070265769958,82.5065016746521 87.46070265769958,82.5065016746521 87.44197487831116,82.50969052314758 87.44197487831116,82.50969052314758 87.42225766181946,82.51245617866516 87.42225766181946,82.51245617866516 87.401682138443,82.5147271156311 87.401682138443,82.5147271156311 87.38011717796326,82.51636028289795 87.38011717796326,82.51636028289795 87.35827207565308,82.51749277114868 87.35827207565308,82.51749277114868 87.33585476875305,82.51785039901733 87.33585476875305,82.51785039901733 87.14745044708252,82.50117897987366 87.14745044708252,82.50117897987366 86.92172765731812,82.45379328727722 86.92172765731812,82.45379328727722 86.6628110408783,82.37994909286499 86.6628110408783,82.37994909286499 86.37353181838989,82.28375911712646 86.37353181838989,82.28375911712646 86.0571563243866,82.16944336891174 86.0571563243866,82.16944336891174 85.71736812591553,82.04115629196167 85.71736812591553,82.04115629196167 85.77582240104675,81.7896842956543 85.77582240104675,81.7896842956543 85.83739399909973,81.53729438781738 85.83739399909973,81.53729438781738 85.90236902236938,81.28468990325928 85.90236902236938,81.28468990325928 85.97004413604736,81.03240728378296 85.97004413604736,81.03240728378296 86.0408365726471,80.78118562698364 86.0408365726471,80.78118562698364 86.11461520195007,80.53162693977356 86.11461520195007,80.53162693977356 86.3062858581543,80.59873580932617 86.3062858581543,80.59873580932617 86.48703098297119,80.6545615196228 86.48703098297119,80.6545615196228 86.65571808815002,80.69875240325928 86.65571808815002,80.69875240325928 86.81049942970276,80.73099851608276 86.81049942970276,80.73099851608276 86.94981932640076,80.75107336044312 86.94981932640076,80.75107336044312" stroke="white" stroke-width="0.1" /><polygon points="93.76667141914368,35.87229251861572 93.76667141914368,35.87229251861572 93.80043745040894,39.432063698768616 93.80043745040894,39.432063698768616 95.0700581073761,43.84271502494812 95.0700581073761,43.84271502494812 96.93441390991211,48.724564909935 96.93441390991211,48.724564909935 98.75251650810242,53.69770526885986 98.75251650810242,53.69770526885986 99.88366961479187,58.38252902030945 99.88366961479187,58.38252902030945 99.68674778938293,62.399131059646606 99.68674778938293,62.399131059646606 99.15387034416199,63.87684345245361 99.15387034416199,63.87684345245361 98.4891951084137,65.26347398757935 98.4891951084137,65.26347398757935 97.71272540092468,66.56224727630615 97.71272540092468,66.56224727630615 96.84361219406128,67.77622103691101 96.84361219406128,67.77622103691101 95.90157866477966,68.90868544578552 95.90157866477966,68.90868544578552 94.90619897842407,69.9626624584198 94.90619897842407,69.9626624584198 93.34261417388916,71.41497731208801 93.34261417388916,71.41497731208801 91.76725745201111,72.70563244819641 91.76725745201111,72.70563244819641 90.24737477302551,73.84544014930725 90.24737477302551,73.84544014930725 88.84921669960022,74.84525442123413 88.84921669960022,74.84525442123413 87.64017224311829,75.71596503257751 87.64017224311829,75.71596503257751 86.68664693832397,76.46838426589966 86.68664693832397,76.46838426589966 86.65032386779785,76.50023698806763 86.65032386779785,76.50023698806763 86.61357760429382,76.53229832649231 86.61357760429382,76.53229832649231 86.57711744308472,76.5648603439331 86.57711744308472,76.5648603439331 86.54094338417053,76.5981674194336 86.54094338417053,76.5981674194336 86.5054726600647,76.63253545761108 86.5054726600647,76.63253545761108 86.47099733352661,76.6681432723999 86.47099733352661,76.6681432723999 85.4302167892456,78.14798355102539 85.4302167892456,78.14798355102539 84.7016990184784,79.97548580169678 84.7016990184784,79.97548580169678 84.19336676597595,81.91347122192383 84.19336676597595,81.91347122192383 83.81215929985046,83.72468948364258 83.81215929985046,83.72468948364258 83.46570134162903,85.17200946807861 83.46570134162903,85.17200946807861 83.06150436401367,86.01813912391663 83.06150436401367,86.01813912391663 82.95694589614868,86.11063957214355 82.95694589614868,86.11063957214355 82.84770250320435,86.18427515029907 82.84770250320435,86.18427515029907 82.7351987361908,86.24002933502197 82.7351987361908,86.24002933502197 82.61985778808594,86.27872467041016 82.61985778808594,86.27872467041016 82.50295519828796,86.3013207912445 82.50295519828796,86.3013207912445 82.38505721092224,86.30869388580322 82.38505721092224,86.30869388580322 81.95262551307678,86.21587753295898 81.95262551307678,86.21587753295898 81.55907392501831,85.96408367156982 81.55907392501831,85.96408367156982 81.24666810035706,85.59337258338928 81.24666810035706,85.59337258338928 81.05655908584595,85.14377474784851 81.05655908584595,85.14377474784851 81.03101849555969,84.6553087234497 81.03101849555969,84.6553087234497 81.21148347854614,84.1681182384491 81.21148347854614,84.1681182384491 81.56474828720093,83.30308198928833 81.56474828720093,83.30308198928833 81.8311870098114,82.00558423995972 81.8311870098114,82.00558423995972 81.95887207984924,80.42096495628357 81.95887207984924,80.42096495628357 81.89545273780823,78.69444489479065 81.89545273780823,78.69444489479065 81.58872127532959,76.97136402130127 81.58872127532959,76.97136402130127 80.98675608634949,75.39696097373962 80.98675608634949,75.39696097373962 79.45793271064758,72.95788526535034 79.45793271064758,72.95788526535034 77.70594358444214,70.5436646938324 77.70594358444214,70.5436646938324 76.02801322937012,68.02155375480652 76.02801322937012,68.02155375480652 74.71980452537537,65.25858044624329 74.71980452537537,65.25858044624329 74.07825589179993,62.121981382369995 74.07825589179993,62.121981382369995 74.39931035041809,58.4788978099823 74.39931035041809,58.4788978099823 75.4400908946991,55.362868309020996 75.4400908946991,55.362868309020996 77.07517743110657,52.15299725532532 77.07517743110657,52.15299725532532 79.16057109832764,48.93822371959686 79.16057109832764,48.93822371959686 81.55211806297302,45.807406306266785 81.55211806297302,45.807406306266785 84.1066837310791,42.849498987197876 84.1066837310791,42.849498987197876 86.67983412742615,40.15344977378845 86.67983412742615,40.15344977378845 87.71635890007019,39.1356885433197 87.71635890007019,39.1356885433197 88.72110247612,38.18421959877014 88.72110247612,38.18421959877014 89.6844208240509,37.30549216270447 89.6844208240509,37.30549216270447 90.59552550315857,36.5060031414032 90.59552550315857,36.5060031414032 91.44435524940491,35.792276263237 91.44435524940491,35.792276263237 92.22082495689392,35.17087399959564 92.22082495689392,35.17087399959564 90.50955176353455,37.311309576034546 90.50955176353455,37.311309576034546 88.91348242759705,39.541056752204895 88.91348242759705,39.541056752204895 87.43431568145752,41.85138642787933 87.43431568145752,41.85138642787933 86.07361316680908,44.23357546329498 86.07361316680908,44.23357546329498 84.83350276947021,46.67896926403046 84.83350276947021,46.67896926403046 83.71526002883911,49.17884171009064 83.71526002883911,49.17884171009064 82.95524716377258,51.037728786468506 82.95524716377258,51.037728786468506 82.24800825119019,52.960360050201416 82.24800825119019,52.960360050201416 81.63114190101624,54.937463998794556 81.63114190101624,54.937463998794556 81.14182353019714,56.95975422859192 81.14182353019714,56.95975422859192 80.81778883934021,59.01801586151123 80.81778883934021,59.01801586151123 80.69620132446289,61.10298037528992 80.69620132446289,61.10298037528992 80.68627119064331,63.168078660964966 80.68627119064331,63.168078660964966 80.77820539474487,65.22219181060791 80.77820539474487,65.22219181060791 80.96433877944946,67.26423501968384 80.96433877944946,67.26423501968384 81.23673796653748,69.29298639297485 81.23673796653748,69.29298639297485 81.58829808235168,71.30740284919739 81.58829808235168,71.30740284919739 82.01051354408264,73.30632209777832 82.01051354408264,73.30632209777832 82.21097588539124,73.93701672554016 82.21097588539124,73.93701672554016 82.47812390327454,74.48837161064148 82.47812390327454,74.48837161064148 82.79478549957275,74.944669008255 82.79478549957275,74.944669008255 83.14294219017029,75.29006004333496 83.14294219017029,75.29006004333496 83.50557088851929,75.50889849662781 83.50557088851929,75.50889849662781 83.86507630348206,75.58537125587463 83.86507630348206,75.58537125587463 83.90480279922485,75.58441162109375 83.90480279922485,75.58441162109375 83.94424319267273,75.58139562606812 83.94424319267273,75.58139562606812 83.9836835861206,75.57628750801086 83.9836835861206,75.57628750801086 84.02241468429565,75.56884288787842 84.02241468429565,75.56884288787842 84.06100273132324,75.55904984474182 84.06100273132324,75.55904984474182 84.098881483078,75.54678320884705 84.098881483078,75.54678320884705 84.42930579185486,75.34081935882568 84.42930579185486,75.34081935882568 84.6758782863617,74.98921751976013 84.6758782863617,74.98921751976013 84.83576774597168,74.51706528663635 84.83576774597168,74.51706528663635 84.90557074546814,73.94936084747314 84.90557074546814,73.94936084747314 84.88301634788513,73.31121563911438 84.88301634788513,73.31121563911438 84.7639799118042,72.62760400772095 84.7639799118042,72.62760400772095 83.89827609062195,68.82175207138062 83.89827609062195,68.82175207138062 83.35490226745605,64.99848961830139 83.35490226745605,64.99848961830139 83.19798707962036,61.18015646934509 83.19798707962036,61.18015646934509 83.49124193191528,57.38902688026428 83.49124193191528,57.38902688026428 84.29906368255615,53.64748239517212 84.29906368255615,53.64748239517212 85.68558692932129,49.9778687953949 85.68558692932129,49.9778687953949 86.72325015068054,47.464483976364136 86.72325015068054,47.464483976364136 87.88561224937439,45.00529170036316 87.88561224937439,45.00529170036316 89.17197585105896,42.60841906070709 89.17197585105896,42.60841906070709 90.58133959770203,40.281882882118225 90.58133959770203,40.281882882118225 92.1131432056427,38.03379833698273 92.1131432056427,38.03379833698273" stroke="white" stroke-width="0.1" /></svg>