<?xml version="1.0" encoding="utf-8" ?>
<svg baseProfile="full" height="79.33432459831238" version="1.1" width="100.00014305114746" xmlns="http://www.w3.org/2000/svg" xmlns:ev="http://www.w3.org/2001/xml-events" xmlns:xlink="http://www.w3.org/1999/xlink"><defs><clipPath /></defs><polygon points="22.51744270324707,24.412673711776733 22.51744270324707,24.412673711776733 22.715315222740173,24.922509491443634 22.715315222740173,24.922509491443634 22.883735597133636,25.442281365394592 22.883735597133636,25.442281365394592 23.022417724132538,25.970491766929626 23.022417724132538,25.970491766929626 23.130790889263153,26.505526900291443 23.130790889263153,26.505526900291443 23.208853602409363,27.04588770866394 23.208853602409363,27.04588770866394 23.256319761276245,27.59007215499878 23.256319761276245,27.59007215499878 23.19541424512863,28.26640009880066 23.19541424512863,28.26640009880066 22.964443266391754,28.872668743133545 22.964443266391754,28.872668743133545 22.614091634750366,29.432976245880127 22.614091634750366,29.432976245880127 22.194470465183258,29.97133433818817 22.194470465183258,29.97133433818817 21.756619215011597,30.51183819770813 21.756619215011597,30.51183819770813 21.350795030593872,31.078577041625977 21.350795030593872,31.078577041625977 20.548081398010254,32.51758515834808 20.548081398010254,32.51758515834808 19.915717840194702,33.99880528450012 19.915717840194702,33.99880528450012 19.43383365869522,35.51984429359436 19.43383365869522,35.51984429359436 19.082194566726685,37.07819879055023 19.082194566726685,37.07819879055023 18.841072916984558,38.6715441942215 18.841072916984558,38.6715441942215 18.690380454063416,40.29738008975983 18.690380454063416,40.29738008975983 17.505432665348053,57.50200152397156 17.505432665348053,57.50200152397156 17.503932118415833,57.669419050216675 17.503932118415833,57.669419050216675 17.50929355621338,57.927268743515015 17.50929355621338,57.927268743515015 17.512010037899017,58.228009939193726 17.512010037899017,58.228009939193726 17.5022155046463,58.52392911911011 17.5022155046463,58.52392911911011 17.470404505729675,58.767515420913696 17.470404505729675,58.767515420913696 17.407068610191345,58.91112685203552 17.407068610191345,58.91112685203552 17.151078581809998,59.00323987007141 17.151078581809998,59.00323987007141 16.720876097679138,59.02904272079468 16.720876097679138,59.02904272079468 16.19981676340103,59.01063680648804 16.19981676340103,59.01063680648804 15.671394765377045,58.97010564804077 15.671394765377045,58.97010564804077 15.219461917877197,58.929574489593506 15.219461917877197,58.929574489593506 14.927370846271515,58.91112685203552 14.927370846271515,58.91112685203552 6.209539249539375,58.91112685203552 6.209539249539375,58.91112685203552 4.539774730801582,58.72465968132019 4.539774730801582,58.72465968132019 3.019487112760544,58.181118965148926 3.019487112760544,58.181118965148926 1.727667823433876,57.304418087005615 1.727667823433876,57.304418087005615 0.743451900780201,56.11828565597534 0.743451900780201,56.11828565597534 0.14618837740272284,54.64661121368408 0.14618837740272284,54.64661121368408 0.014869037840981036,52.91318893432617 0.014869037840981036,52.91318893432617 0.11988162295892835,51.39404535293579 0.11988162295892835,51.39404535293579 0.2246082527562976,49.87454414367676 0.2246082527562976,49.87454414367676 0.32912043388932943,48.35468530654907 0.32912043388932943,48.35468530654907 0.43334667570888996,46.83443307876587 0.43334667570888996,46.83443307876587 0.5375729408115149,45.31378746032715 0.5375729408115149,45.31378746032715 0.6416562013328075,43.79274845123291 0.6416562013328075,43.79274845123291 0.6765412166714668,43.184226751327515 0.6765412166714668,43.184226751327515 0.7047781255096197,42.56440997123718 0.7047781255096197,42.56440997123718 0.7391627877950668,41.940122842788696 0.7391627877950668,41.940122842788696 0.7919192314147949,41.31830632686615 0.7919192314147949,41.31830632686615 0.8757720701396465,40.705886483192444 0.8757720701396465,40.705886483192444 1.0030881501734257,40.109801292419434 1.0030881501734257,40.109801292419434 1.5130676329135895,38.79546523094177 1.5130676329135895,38.79546523094177 2.290618233382702,37.63203322887421 2.290618233382702,37.63203322887421 3.290918469429016,36.65761351585388 3.290918469429016,36.65761351585388 4.469003900885582,35.910192131996155 4.469003900885582,35.910192131996155 5.780124291777611,35.42791306972504 5.780124291777611,35.42791306972504 7.1794576942920685,35.2487713098526 7.1794576942920685,35.2487713098526 5.602124705910683,33.37577283382416 5.602124705910683,33.37577283382416 4.573730379343033,31.216543912887573 4.573730379343033,31.216543912887573 4.1047122329473495,28.892257809638977 4.1047122329473495,28.892257809638977 4.20493558049202,26.524075865745544 4.20493558049202,26.524075865745544 4.884836450219154,24.23328012228012 4.884836450219154,24.23328012228012 6.154638156294823,22.141142189502716 6.154638156294823,22.141142189502716 7.784871011972427,20.5514058470726 7.784871011972427,20.5514058470726 9.707194566726685,19.412316381931305 9.707194566726685,19.412316381931305 11.82374507188797,18.74413788318634 11.82374507188797,18.74413788318634 14.035800099372864,18.566961586475372 14.035800099372864,18.566961586475372 16.24542474746704,18.90108585357666 16.24542474746704,18.90108585357666 18.354111909866333,19.76667046546936 18.354111909866333,19.76667046546936 19.24825608730316,20.33480405807495 19.24825608730316,20.33480405807495 20.072844624519348,20.99708318710327 20.072844624519348,20.99708318710327 20.82008421421051,21.744824945926666 20.82008421421051,21.744824945926666 21.48175686597824,22.569163143634796 21.48175686597824,22.569163143634796 22.05014079809189,23.461376130580902 22.05014079809189,23.461376130580902" stroke="white" stroke-width="0.1" /><polygon points="39.234817028045654,57.62781500816345 39.234817028045654,57.62781500816345 39.292290806770325,57.89971351623535 39.292290806770325,57.89971351623535 39.3569141626358,58.16435217857361 39.3569141626358,58.16435217857361 39.42897319793701,58.42216610908508 39.42897319793701,58.42216610908508 39.50839340686798,58.6734414100647 39.50839340686798,58.6734414100647 39.59539234638214,58.91870856285095 39.59539234638214,58.91870856285095 39.690038561820984,59.15818214416504 39.690038561820984,59.15818214416504 44.11414861679077,69.87990736961365 44.11414861679077,69.87990736961365 35.981929302215576,69.87990736961365 35.981929302215576,69.87990736961365 35.081350803375244,69.88862752914429 35.081350803375244,69.88862752914429 34.16890799999237,69.90156173706055 34.16890799999237,69.90156173706055 33.25203061103821,69.89906430244446 33.25203061103821,69.89906430244446 32.33837187290192,69.86120939254761 32.33837187290192,69.86120939254761 31.43564760684967,69.76842284202576 31.43564760684967,69.76842284202576 30.551299452781677,69.60082650184631 30.551299452781677,69.60082650184631 28.302356600761414,68.74957084655762 28.302356600761414,68.74957084655762 26.430144906044006,67.42537021636963 26.430144906044006,67.42537021636963 24.962827563285828,65.71228504180908 24.962827563285828,65.71228504180908 23.927713930606842,63.69434595108032 23.927713930606842,63.69434595108032 23.35268259048462,61.45573854446411 23.35268259048462,61.45573854446411 23.265469074249268,59.08041000366211 23.265469074249268,59.08041000366211 24.283427000045776,44.312021136283875 24.283427000045776,44.312021136283875 24.340616166591644,43.377989530563354 24.340616166591644,43.377989530563354 24.39008355140686,42.43963062763214 24.39008355140686,42.43963062763214 24.440695345401764,41.499486565589905 24.440695345401764,41.499486565589905 24.501600861549377,40.5600905418396 24.501600861549377,40.5600905418396 24.581879377365112,39.62402045726776 24.581879377365112,39.62402045726776 24.69061017036438,38.69381248950958 24.69061017036438,38.69381248950958 25.373870134353638,36.109745502471924 25.373870134353638,36.109745502471924 26.63831114768982,33.7867796421051 26.63831114768982,33.7867796421051 28.390425443649292,31.81573748588562 28.390425443649292,31.81573748588562 30.536428093910217,30.287301540374756 30.536428093910217,30.287301540374756 32.98302888870239,29.292291402816772 32.98302888870239,29.292291402816772 35.63650846481323,28.921422362327576 35.63650846481323,28.921422362327576 33.30278396606445,26.268836855888367 33.30278396606445,26.268836855888367 31.606072187423706,23.229333758354187 31.606072187423706,23.229333758354187 30.57360053062439,19.926512241363525 30.57360053062439,19.926512241363525 30.232185125350952,16.483937203884125 30.232185125350952,16.483937203884125 30.60920238494873,13.025277853012085 30.60920238494873,13.025277853012085 31.73167109489441,9.67402532696724 31.73167109489441,9.67402532696724 33.342245221138,6.930436939001083 33.342245221138,6.930436939001083 35.42197942733765,4.571371525526047 35.42197942733765,4.571371525526047 37.89174258708954,2.6478325948119164 37.89174258708954,2.6478325948119164 40.67225158214569,1.2107543647289276 40.67225158214569,1.2107543647289276 43.68480443954468,0.3111775266006589 43.68480443954468,0.3111775266006589 46.85005247592926,0.0 46.85005247592926,0.0 50.01537203788757,0.31135622411966324 50.01537203788757,0.31135622411966324 53.02813649177551,1.2112904340028763 53.02813649177551,1.2112904340028763 55.80893158912659,2.648690342903137 55.80893158912659,2.648690342903137 58.278340101242065,4.572372138500214 58.278340101242065,4.572372138500214 60.35721302032471,6.931187957525253 60.35721302032471,6.931187957525253 61.966145038604736,9.67402532696724 61.966145038604736,9.67402532696724 63.08961510658264,13.025277853012085 63.08961510658264,13.025277853012085 63.467562198638916,16.483937203884125 63.467562198638916,16.483937203884125 63.12679052352905,19.926512241363525 63.12679052352905,19.926512241363525 62.094104290008545,23.229297995567322 62.094104290008545,23.229297995567322 60.396820306777954,26.2688010931015 60.396820306777954,26.2688010931015 58.06130766868591,28.921422362327576 58.06130766868591,28.921422362327576 60.816651582717896,29.322314262390137 60.816651582717896,29.322314262390137 63.34717869758606,30.394423007965088 63.34717869758606,30.394423007965088 65.54558277130127,32.03476965427399 65.54558277130127,32.03476965427399 67.304128408432,34.14024114608765 67.304128408432,34.14024114608765 68.51609945297241,36.607787013053894 68.51609945297241,36.607787013053894 69.07354593276978,39.33432400226593 69.07354593276978,39.33432400226593 69.20393705368042,41.228410601615906 69.20393705368042,41.228410601615906 68.8377857208252,40.55980443954468 68.8377857208252,40.55980443954468 68.40072274208069,39.94838893413544 68.40072274208069,39.94838893413544 67.89660453796387,39.39951956272125 67.89660453796387,39.39951956272125 67.32900738716125,38.91849219799042 67.32900738716125,38.91849219799042 66.70207381248474,38.51066529750824 66.70207381248474,38.51066529750824 66.01967215538025,38.181403279304504 66.01967215538025,38.181403279304504 65.66510200500488,38.04618716239929 65.66510200500488,38.04618716239929 65.29602408409119,37.933847308158875 65.29602408409119,37.933847308158875 64.91478681564331,37.84513473510742 64.91478681564331,37.84513473510742 64.5234763622284,37.780797481536865 64.5234763622284,37.780797481536865 64.12472724914551,37.74169385433197 64.12472724914551,37.74169385433197 63.720691204071045,37.72846758365631 63.720691204071045,37.72846758365631 63.319939374923706,37.74140775203705 63.319939374923706,37.74140775203705 62.92305588722229,37.78029680252075 62.92305588722229,37.78029680252075 62.53088116645813,37.84513473510742 62.53088116645813,37.84513473510742 62.14364171028137,37.93585002422333 62.14364171028137,37.93585002422333 61.76233887672424,38.0525141954422 61.76233887672424,38.0525141954422 61.38739585876465,38.19512724876404 61.38739585876465,38.19512724876404 58.16653370857239,39.526477456092834 58.16653370857239,39.526477456092834 57.1652352809906,40.053579211235046 57.1652352809906,40.053579211235046 56.302398443222046,40.73726832866669 56.302398443222046,40.73726832866669 55.58875799179077,41.552385687828064 55.58875799179077,41.552385687828064 55.03445863723755,42.473623156547546 55.03445863723755,42.473623156547546 54.65050935745239,43.47592294216156 54.65050935745239,43.47592294216156 54.44698929786682,44.53391432762146 54.44698929786682,44.53391432762146 43.96317005157471,48.87338578701019 43.96317005157471,48.87338578701019 43.70239078998566,48.98897707462311 43.70239078998566,48.98897707462311 43.45247745513916,49.109432101249695 43.45247745513916,49.109432101249695 43.21228563785553,49.23510253429413 43.21228563785553,49.23510253429413 42.98081398010254,49.36628043651581 42.98081398010254,49.36628043651581 42.75713562965393,49.50331747531891 42.75713562965393,49.50331747531891 42.54031777381897,49.64657425880432 42.54031777381897,49.64657425880432 42.22492277622223,49.86771643161774 42.22492277622223,49.86771643161774 41.90981388092041,50.12027621269226 41.90981388092041,50.12027621269226 41.59784913063049,50.40203928947449 41.59784913063049,50.40203928947449 41.291818022727966,50.710856914520264 41.291818022727966,50.710856914520264 40.99508225917816,51.04461908340454 40.99508225917816,51.04461908340454 40.71028232574463,51.40112042427063 40.71028232574463,51.40112042427063 40.63250720500946,51.49948596954346 40.63250720500946,51.49948596954346 40.51584303379059,51.64588689804077 40.51584303379059,51.64588689804077 40.394601225852966,51.822030544281006 40.394601225852966,51.822030544281006 40.24648368358612,52.055931091308594 40.24648368358612,52.055931091308594 40.11480510234833,52.28268504142761 40.11480510234833,52.28268504142761 39.99828398227692,52.49999761581421 39.99828398227692,52.49999761581421 39.89591598510742,52.705663442611694 39.89591598510742,52.705663442611694 39.806416630744934,52.89753079414368 39.806416630744934,52.89753079414368 39.72892761230469,53.07331681251526 39.72892761230469,53.07331681251526 39.45656418800354,53.8332462310791 39.45656418800354,53.8332462310791 39.261266589164734,54.5951783657074 39.261266589164734,54.5951783657074 39.142170548439026,55.357426404953 39.142170548439026,55.357426404953 39.09849226474762,56.118106842041016 39.09849226474762,56.118106842041016 39.12966251373291,56.87546730041504 39.12966251373291,56.87546730041504" stroke="white" stroke-width="0.1" /><polygon points="77.69300937652588,38.20885419845581 77.69300937652588,38.20885419845581 77.12126970291138,38.51767182350159 77.12126970291138,38.51767182350159 76.52064561843872,38.95212709903717 76.52064561843872,38.95212709903717 75.95018744468689,39.42982852458954 75.95018744468689,39.42982852458954 75.46894550323486,39.8682177066803 75.46894550323486,39.8682177066803 75.13667941093445,40.18489718437195 75.13667941093445,40.18489718437195 75.01201033592224,40.29738008975983 75.01201033592224,40.29738008975983 74.85974431037903,38.6715441942215 74.85974431037903,38.6715441942215 74.61798191070557,37.07819879055023 74.61798191070557,37.07819879055023 74.26655888557434,35.51984429359436 74.26655888557434,35.51984429359436 73.78474473953247,33.99880528450012 73.78474473953247,33.99880528450012 73.15252423286438,32.51758515834808 73.15252423286438,32.51758515834808 72.34930992126465,31.078577041625977 72.34930992126465,31.078577041625977 71.94355726242065,30.51183819770813 71.94355726242065,30.51183819770813 71.50549292564392,29.97133433818817 71.50549292564392,29.97133433818817 71.08601331710815,29.432976245880127 71.08601331710815,29.432976245880127 70.73530554771423,28.872668743133545 70.73530554771423,28.872668743133545 70.50440311431885,28.26640009880066 70.50440311431885,28.26640009880066 70.44378519058228,27.59007215499878 70.44378519058228,27.59007215499878 70.49124836921692,27.04588770866394 70.49124836921692,27.04588770866394 70.56931257247925,26.505526900291443 70.56931257247925,26.505526900291443 70.67768573760986,25.970491766929626 70.67768573760986,25.970491766929626 70.81608176231384,25.442281365394592 70.81608176231384,25.442281365394592 70.98450064659119,24.922509491443634 70.98450064659119,24.922509491443634 71.18266224861145,24.412673711776733 71.18266224861145,24.412673711776733 71.64917588233948,23.461376130580902 71.64917588233948,23.461376130580902 72.21720218658447,22.569163143634796 72.21720218658447,22.569163143634796 72.87887334823608,21.744824945926666 72.87887334823608,21.744824945926666 73.62576127052307,20.99708318710327 73.62576127052307,20.99708318710327 74.45012927055359,20.33480405807495 74.45012927055359,20.33480405807495 75.34370422363281,19.76667046546936 75.34370422363281,19.76667046546936 77.45267748832703,18.90108585357666 77.45267748832703,18.90108585357666 79.66272830963135,18.566961586475372 79.66272830963135,18.566961586475372 81.8755030632019,18.74413788318634 81.8755030632019,18.74413788318634 83.99262428283691,19.412316381931305 83.99262428283691,19.412316381931305 85.91616153717041,20.5514058470726 85.91616153717041,20.5514058470726 87.54775524139404,22.141142189502716 87.54775524139404,22.141142189502716 88.81662487983704,24.23328012228012 88.81662487983704,24.23328012228012 89.4957423210144,26.524075865745544 89.4957423210144,26.524075865745544 89.59567546844482,28.892257809638977 89.59567546844482,28.892257809638977 89.12615776062012,31.216543912887573 89.12615776062012,31.216543912887573 88.09776306152344,33.37577283382416 88.09776306152344,33.37577283382416 86.52064800262451,35.2487713098526 86.52064800262451,35.2487713098526 87.9193365573883,35.42791306972504 87.9193365573883,35.42791306972504 89.23052549362183,35.910192131996155 89.23052549362183,35.910192131996155 90.40889739990234,36.65761351585388 90.40889739990234,36.65761351585388 91.40912890434265,37.63203322887421 91.40912890434265,37.63203322887421 92.18617677688599,38.79546523094177 92.18617677688599,38.79546523094177 92.6947295665741,40.109801292419434 92.6947295665741,40.109801292419434 92.82311797142029,40.705886483192444 92.82311797142029,40.705886483192444 92.9078996181488,41.31830632686615 92.9078996181488,41.31830632686615 92.96122789382935,41.940122842788696 92.96122789382935,41.940122842788696 92.99539923667908,42.56440997123718 92.99539923667908,42.56440997123718 93.0229902267456,43.184226751327515 93.0229902267456,43.184226751327515 93.05616021156311,43.79274845123291 93.05616021156311,43.79274845123291 93.08346509933472,44.183918833732605 93.08346509933472,44.183918833732605 93.11034679412842,44.5750892162323 93.11034679412842,44.5750892162323 93.1373655796051,44.966259598731995 93.1373655796051,44.966259598731995 93.1642472743988,45.357394218444824 93.1642472743988,45.357394218444824 93.19112300872803,45.74856460094452 93.19112300872803,45.74856460094452 93.21857690811157,46.13977074623108 93.21857690811157,46.13977074623108 89.33889865875244,44.53391432762146 89.33889865875244,44.53391432762146 89.30187225341797,44.240427017211914 89.30187225341797,44.240427017211914 89.25040364265442,43.94819438457489 89.25040364265442,43.94819438457489 89.18420672416687,43.657782673835754 89.18420672416687,43.657782673835754 89.10328149795532,43.36958825588226 89.10328149795532,43.36958825588226 89.00749087333679,43.08425486087799 89.00749087333679,43.08425486087799 88.89740705490112,42.80224144458771 88.89740705490112,42.80224144458771 88.54197859764099,42.083024978637695 88.54197859764099,42.083024978637695 88.10176849365234,41.425320506095886 88.10176849365234,41.425320506095886 87.5826358795166,40.834954380989075 87.5826358795166,40.834954380989075 86.99073791503906,40.317755937576294 86.99073791503906,40.317755937576294 86.33206486701965,39.87968862056732 86.33206486701965,39.87968862056732 85.61248779296875,39.526477456092834 85.61248779296875,39.526477456092834 82.38247632980347,38.19055259227753 82.38247632980347,38.19055259227753 82.01032280921936,38.04986774921417 82.01032280921936,38.04986774921417 81.63102269172668,37.93449103832245 81.63102269172668,37.93449103832245 81.24557137489319,37.84456253051758 81.24557137489319,37.84456253051758 80.85454106330872,37.780117988586426 80.85454106330872,37.780117988586426 80.45936822891235,37.74140775203705 80.45936822891235,37.74140775203705 80.06061911582947,37.72846758365631 80.06061911582947,37.72846758365631 79.65314984321594,37.741801142692566 79.65314984321594,37.741801142692566 79.24997210502625,37.78183162212372 79.24997210502625,37.78183162212372 78.85193824768066,37.848564982414246 78.85193824768066,37.848564982414246 78.45905423164368,37.94192671775818 78.45905423164368,37.94192671775818 78.07274460792542,38.062021136283875 78.07274460792542,38.062021136283875" stroke="white" stroke-width="0.1" /><polygon points="99.7632384300232,57.36932158470154 99.7632384300232,57.36932158470154 93.39471459388733,72.79423475265503 93.39471459388733,72.79423475265503 93.2074248790741,73.17575812339783 93.2074248790741,73.17575812339783 92.97495484352112,73.52460622787476 92.97495484352112,73.52460622787476 92.70073175430298,73.83792996406555 92.70073175430298,73.83792996406555 92.38762259483337,74.11271929740906 92.38762259483337,74.11271929740906 92.03920364379883,74.34608340263367 92.03920364379883,74.34608340263367 91.65847301483154,74.53505992889404 91.65847301483154,74.53505992889404 91.45459532737732,74.6114730834961 91.45459532737732,74.6114730834961 91.24871492385864,74.6738851070404 91.24871492385864,74.6738851070404 91.04140400886536,74.72234964370728 91.04140400886536,74.72234964370728 90.83266854286194,74.75687861442566 90.83266854286194,74.75687861442566 90.62349796295166,74.77753758430481 90.62349796295166,74.77753758430481 90.41404724121094,74.78439807891846 90.41404724121094,74.78439807891846 90.20602107048035,74.77771639823914 90.20602107048035,74.77771639823914 89.99900221824646,74.75748658180237 89.99900221824646,74.75748658180237 89.79326486587524,74.72378015518188 89.79326486587524,74.72378015518188 89.5891010761261,74.6762752532959 89.5891010761261,74.6762752532959 89.38722610473633,74.61497783660889 89.38722610473633,74.61497783660889 89.18792009353638,74.53963160514832 89.18792009353638,74.53963160514832 75.58847069740295,68.90541315078735 75.58847069740295,68.90541315078735 78.55541706085205,76.0928750038147 78.55541706085205,76.0928750038147 78.64992022514343,76.44776701927185 78.64992022514343,76.44776701927185 78.6474883556366,76.80333852767944 78.6474883556366,76.80333852767944 78.55541706085205,77.14228630065918 78.55541706085205,77.14228630065918 78.38013172149658,77.44727730751038 78.38013172149658,77.44727730751038 78.1285047531128,77.70105600357056 78.1285047531128,77.70105600357056 77.80739068984985,77.88630723953247 77.80739068984985,77.88630723953247 74.56822395324707,79.22680974006653 74.56822395324707,79.22680974006653 74.48158860206604,79.25937175750732 74.48158860206604,79.25937175750732 74.39380288124084,79.2861819267273 74.39380288124084,79.2861819267273 74.30515885353088,79.30716276168823 74.30515885353088,79.30716276168823 74.21565651893616,79.32220697402954 74.21565651893616,79.32220697402954 74.12558794021606,79.3313205242157 74.12558794021606,79.3313205242157 74.03522729873657,79.33432459831238 74.03522729873657,79.33432459831238 73.94458651542664,79.3312132358551 73.94458651542664,79.3312132358551 73.85408282279968,79.32209968566895 73.85408282279968,79.32209968566895 73.76387119293213,79.30687665939331 73.76387119293213,79.30687665939331 73.67408275604248,79.28550243377686 73.67408275604248,79.28550243377686 73.58529567718506,79.25808429718018 73.58529567718506,79.25808429718018 73.49765300750732,79.22452092170715 73.49765300750732,79.22452092170715 73.33323955535889,79.14313673973083 73.33323955535889,79.14313673973083 73.18168878555298,79.0418028831482 73.18168878555298,79.0418028831482 73.04529547691345,78.92199754714966 73.04529547691345,78.92199754714966 72.92505502700806,78.78495454788208 72.92505502700806,78.78495454788208 72.82297611236572,78.6322295665741 72.82297611236572,78.6322295665741 72.7404773235321,78.46505641937256 72.7404773235321,78.46505641937256 71.89180254936218,76.40627026557922 71.89180254936218,76.40627026557922 71.03854417800903,78.46505641937256 71.03854417800903,78.46505641937256 70.95690965652466,78.63215804100037 70.95690965652466,78.63215804100037 70.85539698600769,78.78491878509521 70.85539698600769,78.78491878509521 70.73573470115662,78.92199754714966 70.73573470115662,78.92199754714966 70.59933543205261,79.04183864593506 70.59933543205261,79.04183864593506 70.44807076454163,79.1431725025177 70.44807076454163,79.1431725025177 70.28365731239319,79.22452092170715 70.28365731239319,79.22452092170715 70.195871591568,79.25804853439331 70.195871591568,79.25804853439331 70.10694146156311,79.28550243377686 70.10694146156311,79.28550243377686 70.01744508743286,79.30687665939331 70.01744508743286,79.30687665939331 69.92708444595337,79.32209968566895 69.92708444595337,79.32209968566895 69.8365867137909,79.33128476142883 69.8365867137909,79.33128476142883 69.74608302116394,79.33432459831238 69.74608302116394,79.33432459831238 69.65658068656921,79.33124899864197 69.65658068656921,79.33124899864197 69.56722736358643,79.32217121124268 69.56722736358643,79.32217121124268 69.47815418243408,79.30716276168823 69.47815418243408,79.30716276168823 69.38951015472412,79.28621768951416 69.38951015472412,79.28621768951416 69.30187344551086,79.25940752029419 69.30187344551086,79.25940752029419 69.21537518501282,79.22680974006653 69.21537518501282,79.22680974006653 65.97391963005066,77.88630723953247 65.97391963005066,77.88630723953247 65.65366387367249,77.70102024078369 65.65366387367249,77.70102024078369 65.40225148200989,77.44724154472351 65.40225148200989,77.44724154472351 65.22703766822815,77.14228630065918 65.22703766822815,77.14228630065918 65.13482332229614,76.80337429046631 65.13482332229614,76.80337429046631 65.13282060623169,76.44780278205872 65.13282060623169,76.44780278205872 65.22818207740784,76.0928750038147 65.22818207740784,76.0928750038147 68.19283962249756,68.90541315078735 68.19283962249756,68.90541315078735 54.593390226364136,74.53963160514832 54.593390226364136,74.53963160514832 54.3939471244812,74.61494207382202 54.3939471244812,74.61494207382202 54.19199466705322,74.6762752532959 54.19199466705322,74.6762752532959 53.98804545402527,74.72378015518188 53.98804545402527,74.72378015518188 53.7822425365448,74.75752234458923 53.7822425365448,74.75752234458923 53.575146198272705,74.777752161026 53.575146198272705,74.777752161026 53.367263078689575,74.78439807891846 53.367263078689575,74.78439807891846 53.156667947769165,74.77753758430481 53.156667947769165,74.77753758430481 52.94643044471741,74.7568428516388 52.94643044471741,74.7568428516388 52.73733139038086,74.72234964370728 52.73733139038086,74.72234964370728 52.52981185913086,74.67392086982727 52.52981185913086,74.67392086982727 52.32471823692322,74.61154460906982 52.32471823692322,74.61154460906982 52.12284326553345,74.53505992889404 52.12284326553345,74.53505992889404 51.74275040626526,74.3460476398468 51.74275040626526,74.3460476398468 51.39440298080444,74.11264777183533 51.39440298080444,74.11264777183533 51.08115077018738,73.83792996406555 51.08115077018738,73.83792996406555 50.80600380897522,73.52464199066162 50.80600380897522,73.52464199066162 50.572675466537476,73.17579388618469 50.572675466537476,73.17579388618469 50.38430690765381,72.79423475265503 50.38430690765381,72.79423475265503 44.020360708236694,57.36932158470154 44.020360708236694,57.36932158470154 43.98097097873688,57.269102334976196 43.98097097873688,57.269102334976196 43.945372104644775,57.16755390167236 43.945372104644775,57.16755390167236 43.91341805458069,57.06508159637451 43.91341805458069,57.06508159637451 43.884751200675964,56.96178674697876 43.884751200675964,56.96178674697876 43.8595175743103,56.85802102088928 43.8595175743103,56.85802102088928 43.83735656738281,56.75397515296936 43.83735656738281,56.75397515296936 43.79446506500244,56.445515155792236 43.79446506500244,56.445515155792236 43.78202557563782,56.13705515861511 43.78202557563782,56.13705515861511 43.799325823783875,55.830949544906616 43.799325823783875,55.830949544906616 43.84536147117615,55.52935004234314 43.84536147117615,55.52935004234314 43.91934871673584,55.23465275764465 43.91934871673584,55.23465275764465 44.020360708236694,54.94910478591919 44.020360708236694,54.94910478591919 44.06103491783142,54.85745668411255 44.06103491783142,54.85745668411255 44.10335421562195,54.76595759391785 44.10335421562195,54.76595759391785 44.14789080619812,54.67516779899597 44.14789080619812,54.67516779899597 44.19507086277008,54.58545684814453 44.19507086277008,54.58545684814453 44.24539804458618,54.49742078781128 44.24539804458618,54.49742078781128 44.29943859577179,54.41153049468994 44.29943859577179,54.41153049468994 44.31774020195007,54.39094305038452 44.31774020195007,54.39094305038452 44.44126784801483,54.23310399055481 44.44126784801483,54.23310399055481 44.54813897609711,54.09770607948303 44.54813897609711,54.09770607948303 44.66158747673035,53.966885805130005 44.66158747673035,53.966885805130005 44.7818249464035,53.841644525527954 44.7818249464035,53.841644525527954 44.90949809551239,53.72304916381836 44.90949809551239,53.72304916381836 45.04510760307312,53.612250089645386 45.04510760307312,53.612250089645386 45.18929421901703,53.510236740112305 45.18929421901703,53.510236740112305 45.277294516563416,53.452086448669434 45.277294516563416,53.452086448669434 45.3677237033844,53.39657664299011 45.3677237033844,53.39657664299011 45.46065330505371,53.343820571899414 45.46065330505371,53.343820571899414 45.5560177564621,53.293704986572266 45.5560177564621,53.293704986572266 45.65387964248657,53.24624180793762 45.65387964248657,53.24624180793762 45.75431942939758,53.20141911506653 45.75431942939758,53.20141911506653 59.90278124809265,47.34530448913574 59.90278124809265,47.34530448913574 59.20279026031494,45.65252363681793 59.20279026031494,45.65252363681793 59.11021828651428,45.29738128185272 59.11021828651428,45.29738128185272 59.11414623260498,44.94138062000275 59.11414623260498,44.94138062000275 59.20765399932861,44.60196793079376 59.20765399932861,44.60196793079376 59.38364863395691,44.29643750190735 59.38364863395691,44.29643750190735 59.635138511657715,44.04223561286926 59.635138511657715,44.04223561286926 59.95539426803589,43.856799602508545 59.95539426803589,43.856799602508545 63.19226622581482,42.51858592033386 63.19226622581482,42.51858592033386 63.27769160270691,42.48613119125366 63.27769160270691,42.48613119125366 63.36469054222107,42.45975315570831 63.36469054222107,42.45975315570831 63.45304846763611,42.439380288124084 63.45304846763611,42.439380288124084 63.54197859764099,42.424869537353516 63.54197859764099,42.424869537353516 63.63133192062378,42.41621792316437 63.63133192062378,42.41621792316437 63.720691204071045,42.41335988044739 63.720691204071045,42.41335988044739 63.81105184555054,42.41621792316437 63.81105184555054,42.41621792316437 63.90154957771301,42.424941062927246 63.90154957771301,42.424941062927246 63.991767168045044,42.439666390419006 63.991767168045044,42.439666390419006 64.08112049102783,42.46046841144562 64.08112049102783,42.46046841144562 64.16933536529541,42.48749017715454 64.16933536529541,42.48749017715454 64.25597667694092,42.52087473869324 64.25597667694092,42.52087473869324 64.42111134529114,42.6012247800827 64.42111134529114,42.6012247800827 64.5727276802063,42.701804637908936 64.5727276802063,42.701804637908936 64.70919847488403,42.821115255355835 64.70919847488403,42.821115255355835 64.8290753364563,42.95750856399536 64.8290753364563,42.95750856399536 64.93087410926819,43.10959577560425 64.93087410926819,43.10959577560425 65.01315236091614,43.27576458454132 65.01315236091614,43.27576458454132 71.89180254936218,59.94510054588318 71.89180254936218,59.94510054588318 78.765869140625,43.27576458454132 78.765869140625,43.27576458454132 78.84907722473145,43.10956001281738 78.84907722473145,43.10956001281738 78.95144820213318,42.95750856399536 78.95144820213318,42.95750856399536 79.07183170318604,42.821115255355835 79.07183170318604,42.821115255355835 79.20851111412048,42.7018404006958 79.20851111412048,42.7018404006958 79.36006188392639,42.60126054286957 79.36006188392639,42.60126054286957 79.5253336429596,42.52087473869324 79.5253336429596,42.52087473869324 79.61183190345764,42.48749017715454 79.61183190345764,42.48749017715454 79.6997606754303,42.46043264865875 79.6997606754303,42.46043264865875 79.78869080543518,42.439666390419006 79.78869080543518,42.439666390419006 79.87861633300781,42.42497682571411 79.87861633300781,42.42497682571411 79.96940612792969,42.41621792316437 79.96940612792969,42.41621792316437 80.06061911582947,42.41335988044739 80.06061911582947,42.41335988044739 80.14983534812927,42.41621792316437 80.14983534812927,42.41621792316437 80.239337682724,42.424869537353516 80.239337682724,42.424869537353516 80.32854795455933,42.439380288124084 80.32854795455933,42.439380288124084 80.41719198226929,42.45978891849518 80.41719198226929,42.45978891849518 80.50483465194702,42.48616695404053 80.50483465194702,42.48616695404053 80.59133291244507,42.51858592033386 80.59133291244507,42.51858592033386 83.82591605186462,43.856799602508545 83.82591605186462,43.856799602508545 84.1461718082428,44.0421998500824 84.1461718082428,44.0421998500824 84.39751863479614,44.29643750190735 84.39751863479614,44.29643750190735 84.57337617874146,44.60196793079376 84.57337617874146,44.60196793079376 84.66630578041077,44.94141638278961 84.66630578041077,44.94141638278961 84.66959595680237,45.29741704463959 84.66959595680237,45.29741704463959 84.5762312412262,45.65252363681793 84.5762312412262,45.65252363681793 83.87853503227234,47.34530448913574 83.87853503227234,47.34530448913574 98.02699089050293,53.20141911506653 98.02699089050293,53.20141911506653 98.12821745872498,53.24620604515076 98.12821745872498,53.24620604515076 98.22686910629272,53.293633460998535 98.22686910629272,53.293633460998535 98.32265973091125,53.343820571899414 98.32265973091125,53.343820571899414 98.41573238372803,53.39664816856384 98.41573238372803,53.39664816856384 98.50623607635498,53.4521222114563 98.50623607635498,53.4521222114563 98.59430193901062,53.510236740112305 98.59430193901062,53.510236740112305 98.73756170272827,53.612250089645386 98.73756170272827,53.612250089645386 98.87252449989319,53.723013401031494 98.87252449989319,53.723013401031494 98.99977445602417,53.841644525527954 98.99977445602417,53.841644525527954 99.11972284317017,53.966885805130005 99.11972284317017,53.966885805130005 99.23310279846191,54.0977418422699 99.23310279846191,54.0977418422699 99.34004545211792,54.23310399055481 99.34004545211792,54.23310399055481 99.46357011795044,54.39094305038452 99.46357011795044,54.39094305038452 99.48187470436096,54.41153049468994 99.48187470436096,54.41153049468994 99.53591227531433,54.497385025024414 99.53591227531433,54.497385025024414 99.58667159080505,54.58545684814453 99.58667159080505,54.58545684814453 99.63427782058716,54.67516779899597 99.63427782058716,54.67516779899597 99.67888593673706,54.76599335670471 99.67888593673706,54.76599335670471 99.72106218338013,54.857492446899414 99.72106218338013,54.857492446899414 99.76094961166382,54.94910478591919 99.76094961166382,54.94910478591919 99.86217617988586,55.23465275764465 99.86217617988586,55.23465275764465 99.93637800216675,55.52935004234314 99.93637800216675,55.52935004234314 99.98284578323364,55.830949544906616 99.98284578323364,55.830949544906616 100.00014305114746,56.13709092140198 100.00014305114746,56.13709092140198 99.98770356178284,56.4455509185791 99.98770356178284,56.4455509185791 99.9439537525177,56.75397515296936 99.9439537525177,56.75397515296936 99.92179274559021,56.85798525810242 99.92179274559021,56.85798525810242 99.89649057388306,56.96178674697876 99.89649057388306,56.96178674697876 99.86817836761475,57.06508159637451 99.86817836761475,57.06508159637451 99.83643889427185,57.16758966445923 99.83643889427185,57.16758966445923 99.80155825614929,57.269102334976196 99.80155825614929,57.269102334976196" stroke="white" stroke-width="0.1" /><polygon points="58.49364995956421,69.44755911827087 58.49364995956421,69.44755911827087 56.37081265449524,64.31202292442322 56.37081265449524,64.31202292442322 61.510926485061646,62.18231916427612 61.510926485061646,62.18231916427612 63.63147497177124,67.32014417648315 63.63147497177124,67.32014417648315 68.76243948936462,65.1973009109497 68.76243948936462,65.1973009109497 66.6464626789093,60.0549042224884 66.6464626789093,60.0549042224884 61.510926485061646,62.18231916427612 61.510926485061646,62.18231916427612 59.38579440116882,57.04678297042847 59.38579440116882,57.04678297042847 64.5304799079895,54.921650886535645 64.5304799079895,54.921650886535645 62.40535378456116,49.7792512178421 62.40535378456116,49.7792512178421 57.267528772354126,51.91124081611633 57.267528772354126,51.91124081611633 59.38579440116882,57.04678297042847 59.38579440116882,57.04678297042847 54.25025820732117,59.17648673057556 54.25025820732117,59.17648673057556 52.13199257850647,54.031795263290405 52.13199257850647,54.031795263290405 46.99874222278595,56.1614990234375 46.99874222278595,56.1614990234375 49.112433195114136,61.30390167236328 49.112433195114136,61.30390167236328 54.25025820732117,59.17648673057556 54.25025820732117,59.17648673057556 56.37081265449524,64.31202292442322 56.37081265449524,64.31202292442322 51.23069882392883,66.43943786621094 51.23069882392883,66.43943786621094 53.34896445274353,71.57955169677734 53.34896445274353,71.57955169677734" stroke="white" stroke-width="0.1" /><polygon points="96.7825710773468,56.1614990234375 96.7825710773468,56.1614990234375 91.65160655975342,54.031795263290405 91.65160655975342,54.031795263290405 89.53105211257935,59.17648673057556 89.53105211257935,59.17648673057556 84.39551591873169,57.04678297042847 84.39551591873169,57.04678297042847 86.51378154754639,51.91124081611633 86.51378154754639,51.91124081611633 81.37595653533936,49.7792512178421 81.37595653533936,49.7792512178421 79.25083041191101,54.921650886535645 79.25083041191101,54.921650886535645 84.39551591873169,57.04678297042847 84.39551591873169,57.04678297042847 82.27038979530334,62.18231916427612 82.27038979530334,62.18231916427612 77.13713645935059,60.0549042224884 77.13713645935059,60.0549042224884 75.01658797264099,65.1973009109497 75.01658797264099,65.1973009109497 80.15212416648865,67.32014417648315 80.15212416648865,67.32014417648315 82.27038979530334,62.18231916427612 82.27038979530334,62.18231916427612 87.41049766540527,64.31202292442322 87.41049766540527,64.31202292442322 85.2876603603363,69.44755911827087 85.2876603603363,69.44755911827087 90.43234586715698,71.57955169677734 90.43234586715698,71.57955169677734 92.5483226776123,66.43943786621094 92.5483226776123,66.43943786621094 87.41049766540527,64.31202292442322 87.41049766540527,64.31202292442322 89.53105211257935,59.17648673057556 89.53105211257935,59.17648673057556 94.66887712478638,61.30390167236328 94.66887712478638,61.30390167236328" stroke="white" stroke-width="0.1" /></svg>