<?xml version="1.0" encoding="utf-8" ?>
<svg baseProfile="full" height="79.29548025131226" version="1.1" width="100.0" xmlns="http://www.w3.org/2000/svg" xmlns:ev="http://www.w3.org/2001/xml-events" xmlns:xlink="http://www.w3.org/1999/xlink"><defs><clipPath /></defs><polygon points="64.05159831047058,57.03742504119873 64.05159831047058,57.03742504119873 64.29961323738098,57.28543996810913 64.29961323738098,57.28543996810913 46.349528431892395,57.28543996810913 46.349528431892395,57.28543996810913 46.349528431892395,72.67959713935852 46.349528431892395,72.67959713935852 45.7913875579834,75.33789873123169 45.7913875579834,75.33789873123169 44.31018531322479,77.40673422813416 44.31018531322479,77.40673422813416 42.19527542591095,78.76608371734619 42.19527542591095,78.76608371734619 39.73579406738281,79.29548025131226 39.73579406738281,79.29548025131226 37.22119629383087,78.87523174285889 37.22119629383087,78.87523174285889 34.94083881378174,77.38499045372009 34.94083881378174,77.38499045372009 34.423816204071045,76.86656713485718 34.423816204071045,76.86656713485718 33.90636444091797,76.34836435317993 33.90636444091797,76.34836435317993 33.38901996612549,75.83080530166626 33.38901996612549,75.83080530166626 32.871460914611816,75.31313896179199 32.871460914611816,75.31313896179199 32.354119420051575,74.79547262191772 32.354119420051575,74.79547262191772 31.837204098701477,74.27791357040405 31.837204098701477,74.27791357040405 16.370713710784912,58.81142020225525 16.370713710784912,58.81142020225525 14.138685166835785,56.579822301864624 14.138685166835785,56.579822301864624 11.90708875656128,54.3481171131134 11.90708875656128,54.3481171131134 9.676030278205872,52.116525173187256 9.676030278205872,52.116525173187256 7.444756478071213,49.884602427482605 7.444756478071213,49.884602427482605 5.213266983628273,47.652468085289 5.213266983628273,47.652468085289 2.981347218155861,45.4203337430954 2.981347218155861,45.4203337430954 1.9602227956056595,44.30458843708038 1.9602227956056595,44.30458843708038 1.095614954829216,43.11209321022034 1.095614954829216,43.11209321022034 0.4465131554752588,41.837894916534424 0.4465131554752588,41.837894916534424 0.07072302978485823,40.476179122924805 0.07072302978485823,40.476179122924805 0.027018997934646904,39.02210593223572 0.027018997934646904,39.02210593223572 0.37374484818428755,37.470072507858276 0.37374484818428755,37.470072507858276 0.7657893933355808,36.59287095069885 0.7657893933355808,36.59287095069885 1.277428027242422,35.791558027267456 1.277428027242422,35.791558027267456 1.878197118639946,35.04891395568848 1.878197118639946,35.04891395568848 2.536771632730961,34.34782028198242 2.536771632730961,34.34782028198242 3.2224729657173157,33.67137610912323 3.2224729657173157,33.67137610912323 3.9045140147209167,33.00235867500305 3.9045140147209167,33.00235867500305 25.567936897277832,11.340659111738205 25.567936897277832,11.340659111738205 34.062451124191284,2.844422124326229 34.062451124191284,2.844422124326229 34.57290530204773,2.339242398738861 34.57290530204773,2.339242398738861 35.090357065200806,1.8546227365732193 35.090357065200806,1.8546227365732193 35.62847673892975,1.4028348959982395 35.62847673892975,1.4028348959982395 36.1998587846756,0.9950741194188595 36.1998587846756,0.9950741194188595 36.818280816078186,0.6431812886148691 36.818280816078186,0.6431812886148691 37.496769428253174,0.3591050626710057 37.496769428253174,0.3591050626710057 39.63654637336731,0.0003229362164347549 39.63654637336731,0.0003229362164347549 41.691604256629944,0.3364995354786515 41.691604256629944,0.3364995354786515 43.52620542049408,1.2693545781075954 43.52620542049408,1.2693545781075954 45.00439167022705,2.7003927156329155 45.00439167022705,2.7003927156329155 45.99063694477081,4.531656205654144 45.99063694477081,4.531656205654144 46.349528431892395,6.664542108774185 46.349528431892395,6.664542108774185 46.349528431892395,22.012193500995636 46.349528431892395,22.012193500995636 64.303058385849,22.012193500995636 64.303058385849,22.012193500995636 63.87936472892761,22.435885667800903 63.87936472892761,22.435885667800903 63.070088624954224,23.36098998785019 63.070088624954224,23.36098998785019 62.389880418777466,24.377593398094177 62.389880418777466,24.377593398094177 61.84573173522949,25.46890377998352 61.84573173522949,25.46890377998352 61.444103717803955,26.618126034736633 61.444103717803955,26.618126034736633 61.19210720062256,27.80868411064148 61.19210720062256,27.80868411064148 61.09609007835388,29.023784399032593 61.09609007835388,29.023784399032593 61.16207242012024,30.27484118938446 61.16207242012024,30.27484118938446 61.39340400695801,31.498983502388 61.39340400695801,31.498983502388 61.78372502326965,32.6789915561676 61.78372502326965,32.6789915561676 62.325721979141235,33.79774987697601 62.325721979141235,33.79774987697601 63.01271319389343,34.8385751247406 63.01271319389343,34.8385751247406 63.83802890777588,35.78391671180725 63.83802890777588,35.78391671180725 67.92339086532593,39.87099826335907 67.92339086532593,39.87099826335907 64.09982442855835,43.69628429412842 64.09982442855835,43.69628429412842 63.29571604728699,44.61245536804199 63.29571604728699,44.61245536804199 62.61776089668274,45.622384548187256 62.61776089668274,45.622384548187256 62.07350492477417,46.70906364917755 62.07350492477417,46.70906364917755 61.66962385177612,47.85505533218384 61.66962385177612,47.85505533218384 61.413854360580444,49.0432471036911 61.413854360580444,49.0432471036911 61.313098669052124,50.256627798080444 61.313098669052124,50.256627798080444 61.38468384742737,51.524150371551514 61.38468384742737,51.524150371551514 61.619460582733154,52.75852084159851 61.619460582733154,52.75852084159851 62.010639905929565,53.94347906112671 62.010639905929565,53.94347906112671 62.55091428756714,55.062347650527954 62.55091428756714,55.062347650527954 63.23349475860596,56.09918832778931 63.23349475860596,56.09918832778931" stroke="white" stroke-width="0.1" /><polygon points="90.34119248390198,39.521363377571106 90.34119248390198,39.521363377571106 99.32829141616821,48.51018786430359 99.32829141616821,48.51018786430359 99.53109622001648,48.74291718006134 99.53109622001648,48.74291718006134 99.69988465309143,49.00018870830536 99.69988465309143,49.00018870830536 99.83336329460144,49.27769899368286 99.83336329460144,49.27769899368286 99.92895126342773,49.570709466934204 99.92895126342773,49.570709466934204 99.98536109924316,49.8750239610672 99.98536109924316,49.8750239610672 100.0,50.18600821495056 100.0,50.18600821495056 99.97566938400269,50.49732327461243 99.97566938400269,50.49732327461243 99.9104380607605,50.80292820930481 99.9104380607605,50.80292820930481 99.80666637420654,51.09841227531433 99.80666637420654,51.09841227531433 99.66565370559692,51.379042863845825 99.66565370559692,51.379042863845825 99.48933124542236,51.64094567298889 99.48933124542236,51.64094567298889 99.28006529808044,51.8790602684021 99.28006529808044,51.8790602684021 97.65763282775879,53.503209352493286 97.65763282775879,53.503209352493286 96.30388617515564,54.85868453979492 96.30388617515564,54.85868453979492 96.06491327285767,55.06751537322998 96.06491327285767,55.06751537322998 95.80225944519043,55.24308681488037 95.80225944519043,55.24308681488037 95.52108645439148,55.38356304168701 95.52108645439148,55.38356304168701 95.22506594657898,55.486899614334106 95.22506594657898,55.486899614334106 94.91956830024719,55.55148720741272 94.91956830024719,55.55148720741272 94.60911750793457,55.57516813278198 94.60911750793457,55.57516813278198 94.55055594444275,55.57516813278198 94.55055594444275,55.57516813278198 94.25130486488342,55.55503964424133 94.25130486488342,55.55503964424133 93.95958185195923,55.495619773864746 93.95958185195923,55.495619773864746 93.67862939834595,55.399274826049805 93.67862939834595,55.399274826049805 93.41210126876831,55.267518758773804 93.41210126876831,55.267518758773804 93.16408634185791,55.10293245315552 93.16408634185791,55.10293245315552 92.93845891952515,54.90690469741821 92.93845891952515,54.90690469741821 92.93824434280396,54.90626096725464 92.93824434280396,54.90626096725464 92.93738603591919,54.905617237091064 92.93738603591919,54.905617237091064 92.93673634529114,54.905182123184204 92.93673634529114,54.905182123184204 92.93566346168518,54.90453839302063 92.93566346168518,54.90453839302063 92.93501377105713,54.90410923957825 92.93501377105713,54.90410923957825 92.93501377105713,54.90346550941467 92.93501377105713,54.90346550941467 87.21344470977783,49.183616042137146 87.21344470977783,49.183616042137146 83.9479148387909,45.9163635969162 83.9479148387909,45.9163635969162 82.76640176773071,47.0944344997406 82.76640176773071,47.0944344997406 75.13304948806763,54.729509353637695 75.13304948806763,54.729509353637695 74.89558458328247,54.93747591972351 74.89558458328247,54.93747591972351 74.63400363922119,55.111974477767944 74.63400363922119,55.111974477767944 74.3532657623291,55.252015590667725 74.3532657623291,55.252015590667725 74.05756115913391,55.3553581237793 74.05756115913391,55.3553581237793 73.75217080116272,55.42134642601013 73.75217080116272,55.42134642601013 73.44172596931458,55.447715520858765 73.44172596931458,55.447715520858765 73.41071963310242,55.447715520858765 73.41071963310242,55.447715520858765 73.10457825660706,55.42769432067871 73.10457825660706,55.42769432067871 72.80532121658325,55.36859631538391 72.80532121658325,55.36859631538391 72.51726388931274,55.272042751312256 72.51726388931274,55.272042751312256 72.24427461624146,55.139100551605225 72.24427461624146,55.139100551605225 71.99066281318665,54.97159957885742 71.99066281318665,54.97159957885742 71.7607319355011,54.77084517478943 71.7607319355011,54.77084517478943 69.03945803642273,52.04956531524658 69.03945803642273,52.04956531524658 68.83859038352966,51.818132400512695 68.83859038352966,51.818132400512695 68.67088079452515,51.56204104423523 68.67088079452515,51.56204104423523 68.5382604598999,51.28549933433533 68.5382604598999,51.28549933433533 68.44224333763123,50.99259614944458 68.44224333763123,50.99259614944458 68.38476061820984,50.687962770462036 68.38476061820984,50.687962770462036 68.36774945259094,50.37546753883362 68.36774945259094,50.37546753883362 68.3935821056366,50.063616037368774 68.3935821056366,50.063616037368774 68.45946311950684,49.757903814315796 68.45946311950684,49.757903814315796 68.56366395950317,49.462634325027466 68.56366395950317,49.462634325027466 68.70414018630981,49.18210804462433 68.70414018630981,49.18210804462433 68.87949705123901,48.9211767911911 68.87949705123901,48.9211767911911 69.0876841545105,48.68414103984833 69.0876841545105,48.68414103984833 77.90254950523376,39.87099826335907 77.90254950523376,39.87099826335907 68.82244348526001,30.792614817619324 68.82244348526001,30.792614817619324 68.61985325813293,30.56020736694336 68.61985325813293,30.56020736694336 68.45085024833679,30.303043127059937 68.45085024833679,30.303043127059937 68.31737160682678,30.025747418403625 68.31737160682678,30.025747418403625 68.2213544845581,29.732629656791687 68.2213544845581,29.732629656791687 68.16526651382446,29.428207874298096 68.16526651382446,29.428207874298096 68.15073490142822,29.116791486740112 68.15073490142822,29.116791486740112 68.17506551742554,28.8061261177063 68.17506551742554,28.8061261177063 68.23997497558594,28.50062847137451 68.23997497558594,28.50062847137451 68.3436393737793,28.205034136772156 68.3436393737793,28.205034136772156 68.48379373550415,27.923864126205444 68.48379373550415,27.923864126205444 68.65903735160828,27.661854028701782 68.65903735160828,27.661854028701782 68.86722445487976,27.423742413520813 68.86722445487976,27.423742413520813 71.84684872627258,24.44411814212799 71.84684872627258,24.44411814212799 72.08442091941833,24.235287308692932 72.08442091941833,24.235287308692932 72.34589457511902,24.059608578681946 72.34589457511902,24.059608578681946 72.62706160545349,23.91902506351471 72.62706160545349,23.91902506351471 72.92287349700928,23.815038800239563 72.92287349700928,23.815038800239563 73.22933673858643,23.75023663043976 73.22933673858643,23.75023663043976 73.54161739349365,23.725908994674683 73.54161739349365,23.725908994674683 73.58984351158142,23.725908994674683 73.58984351158142,23.725908994674683 73.89253973960876,23.74636083841324 73.89253973960876,23.74636083841324 74.18813705444336,23.80588948726654 74.18813705444336,23.80588948726654 74.47253465652466,23.903092741966248 74.47253465652466,23.903092741966248 74.74122047424316,24.035389721393585 74.74122047424316,24.035389721393585 74.99041557312012,24.201594293117523 74.99041557312012,24.201594293117523 75.2157211303711,24.39933866262436 75.2157211303711,24.39933866262436 80.96829056739807,30.150187015533447 80.96829056739807,30.150187015533447 84.29582715034485,33.47599804401398 84.29582715034485,33.47599804401398 86.52107119560242,31.25075399875641 86.52107119560242,31.25075399875641 89.43869471549988,28.334853053092957 89.43869471549988,28.334853053092957 93.1072473526001,24.66457635164261 93.1072473526001,24.66457635164261 93.34600567817688,24.45574402809143 93.34600567817688,24.45574402809143 93.60801577568054,24.27942156791687 93.60801577568054,24.27942156791687 93.88918280601501,24.13797527551651 93.88918280601501,24.13797527551651 94.1849946975708,24.032698571681976 94.1849946975708,24.032698571681976 94.4920003414154,23.965957760810852 94.4920003414154,23.965957760810852 94.80546116828918,23.939476907253265 94.80546116828918,23.939476907253265 95.11548280715942,23.959390819072723 95.11548280715942,23.959390819072723 95.41817903518677,24.01805818080902 95.41817903518677,24.01805818080902 95.71011066436768,24.114292860031128 95.71011066436768,24.114292860031128 95.98568677902222,24.246589839458466 95.98568677902222,24.246589839458466 96.24145030975342,24.413762986660004 96.24145030975342,24.413762986660004 96.47267460823059,24.61462914943695 96.47267460823059,24.61462914943695 99.19739365577698,27.337628602981567 99.19739365577698,27.337628602981567 99.40105676651001,27.571648359298706 99.40105676651001,27.571648359298706 99.57005977630615,27.829459309577942 99.57005977630615,27.829459309577942 99.70332980155945,28.10686230659485 99.70332980155945,28.10686230659485 99.79934692382812,28.39922606945038 99.79934692382812,28.39922606945038 99.85747337341309,28.702354431152344 99.85747337341309,28.702354431152344 99.8759925365448,29.01172935962677 99.8759925365448,29.01172935962677 99.84886646270752,29.324114322662354 99.84886646270752,29.324114322662354 99.7825562953949,29.63079810142517 99.7825562953949,29.63079810142517 99.67835545539856,29.927361011505127 99.67835545539856,29.927361011505127 99.53733682632446,30.209067463874817 99.53733682632446,30.209067463874817 99.36165809631348,30.471399426460266 99.36165809631348,30.471399426460266 99.15261268615723,30.709943175315857 99.15261268615723,30.709943175315857" stroke="white" stroke-width="0.1" /></svg>