<?xml version="1.0" encoding="utf-8" ?>
<svg baseProfile="full" height="98.58540296554565" version="1.1" width="99.95154738426208" xmlns="http://www.w3.org/2000/svg" xmlns:ev="http://www.w3.org/2001/xml-events" xmlns:xlink="http://www.w3.org/1999/xlink"><defs><clipPath /></defs><polygon points="23.48043918609619,25.458014011383057 23.48043918609619,25.458014011383057 23.687082529067993,25.988712906837463 23.687082529067993,25.988712906837463 23.863013088703156,26.53007209300995 23.863013088703156,26.53007209300995 24.00822937488556,27.08044946193695 24.00822937488556,27.08044946193695 24.121838808059692,27.638208866119385 24.121838808059692,27.638208866119385 24.203841388225555,28.20163369178772 24.203841388225555,28.20163369178772 24.25334006547928,28.769084811210632 24.25334006547928,28.769084811210632 24.189676344394684,29.4744074344635 24.189676344394684,29.4744074344635 23.948442935943604,30.106601119041443 23.948442935943604,30.106601119041443 23.582418262958527,30.69089949131012 23.582418262958527,30.69089949131012 23.14438223838806,31.252309679985046 23.14438223838806,31.252309679985046 22.687260806560516,31.81595802307129 22.687260806560516,31.81595802307129 22.26383537054062,32.406964898109436 22.26383537054062,32.406964898109436 21.42697423696518,33.90759229660034 21.42697423696518,33.90759229660034 20.767831802368164,35.452163219451904 20.767831802368164,35.452163219451904 20.265983045101166,37.038108706474304 20.265983045101166,37.038108706474304 19.89980936050415,38.662779331207275 19.89980936050415,38.662779331207275 19.64888423681259,40.32368361949921 19.64888423681259,40.32368361949921 19.49189007282257,42.01813042163849 19.49189007282257,42.01813042163849 19.284500181674957,45.0091689825058 19.284500181674957,45.0091689825058 19.078005850315094,47.99968600273132 19.078005850315094,47.99968600273132 18.872256577014923,50.98997950553894 18.872256577014923,50.98997950553894 18.66665631532669,53.98023724555969 18.66665631532669,53.98023724555969 18.461355566978455,56.97079300880432 18.461355566978455,56.97079300880432 18.256202340126038,59.96183156967163 18.256202340126038,59.96183156967163 18.253518640995026,60.13541221618652 18.253518640995026,60.13541221618652 18.258588016033173,60.403746366500854 18.258588016033173,60.403746366500854 18.26156973838806,60.71714162826538 18.26156973838806,60.71714162826538 18.251878023147583,61.0259473323822 18.251878023147583,61.0259473323822 18.220122158527374,61.280566453933716 18.220122158527374,61.280566453933716 18.156011402606964,61.4313006401062 18.156011402606964,61.4313006401062 17.888090014457703,61.52653098106384 17.888090014457703,61.52653098106384 17.438574135303497,61.55318021774292 17.438574135303497,61.55318021774292 16.89468026161194,61.53417229652405 16.89468026161194,61.53417229652405 16.34303480386734,61.492276191711426 16.34303480386734,61.492276191711426 15.87100476026535,61.45034432411194 15.87100476026535,61.45034432411194 15.565362572669983,61.4313006401062 15.565362572669983,61.4313006401062 6.476622074842453,61.4313006401062 6.476622074842453,61.4313006401062 4.7355081886053085,61.23688220977783 4.7355081886053085,61.23688220977783 3.14989872276783,60.67010164260864 3.14989872276783,60.67010164260864 1.8028387799859047,59.75608229637146 1.8028387799859047,59.75608229637146 0.7764790207147598,58.519577980041504 0.7764790207147598,58.519577980041504 0.1537154079414904,56.98555111885071 0.1537154079414904,56.98555111885071 0.016698474064469337,55.17891049385071 0.016698474064469337,55.17891049385071 0.12583492789417505,53.593748807907104 0.12583492789417505,53.593748807907104 0.23467319551855326,52.0085871219635 0.23467319551855326,52.0085871219635 0.3435114398598671,50.4234254360199 0.3435114398598671,50.4234254360199 0.45205154456198215,48.838263750076294 0.45205154456198215,48.838263750076294 0.5610388703644276,47.25310206413269 0.5610388703644276,47.25310206413269 0.6703244522213936,45.66794037818909 0.6703244522213936,45.66794037818909 0.7056595757603645,45.03239095211029 0.7056595757603645,45.03239095211029 0.735031021758914,44.38532590866089 0.735031021758914,44.38532590866089 0.7711116224527359,43.73389780521393 0.7711116224527359,43.73389780521393 0.8265743963420391,43.08522939682007 0.8265743963420391,43.08522939682007 0.9143904782831669,42.446550726890564 0.9143904782831669,42.446550726890564 1.0472328402101994,41.82490408420563 1.0472328402101994,41.82490408420563 1.5790494158864021,40.455108880996704 1.5790494158864021,40.455108880996704 2.390267141163349,39.242082834243774 2.390267141163349,39.242082834243774 3.4339219331741333,38.2257878780365 3.4339219331741333,38.2257878780365 4.662452265620232,37.446027994155884 4.662452265620232,37.446027994155884 6.029639765620232,36.94268763065338 6.029639765620232,36.94268763065338 7.4880726635456085,36.755725741386414 7.4880726635456085,36.755725741386414 5.843272805213928,34.802600741386414 5.843272805213928,34.802600741386414 4.771290719509125,32.55084156990051 4.771290719509125,32.55084156990051 4.2825620621442795,30.12702763080597 4.2825620621442795,30.12702763080597 4.387225583195686,27.657443284988403 4.387225583195686,27.657443284988403 5.0961654633283615,25.268593430519104 5.0961654633283615,25.268593430519104 6.419370323419571,23.086832463741302 6.419370323419571,23.086832463741302 8.118440210819244,21.42898738384247 8.118440210819244,21.42898738384247 10.123002529144287,20.241159200668335 10.123002529144287,20.241159200668335 12.330629676580429,19.544370472431183 12.330629676580429,19.544370472431183 14.638149738311768,19.359643757343292 14.638149738311768,19.359643757343292 16.94343388080597,19.70803737640381 16.94343388080597,19.70803737640381 19.14360672235489,20.610687136650085 19.14360672235489,20.610687136650085 20.075739920139313,21.20329588651657 20.075739920139313,21.20329588651657 20.934666693210602,21.894381940364838 20.934666693210602,21.894381940364838 21.712785959243774,22.674737870693207 21.712785959243774,22.674737870693207 22.40159809589386,23.534932732582092 22.40159809589386,23.534932732582092 22.993499040603638,24.46579784154892 22.993499040603638,24.46579784154892" stroke="white" stroke-width="0.1" /><polygon points="31.858301162719727,72.57872223854065 31.858301162719727,72.57872223854065 29.513955116271973,71.69035077095032 29.513955116271973,71.69035077095032 27.561873197555542,70.30959129333496 27.561873197555542,70.30959129333496 26.031726598739624,68.52367520332336 26.031726598739624,68.52367520332336 24.95228946208954,66.41989350318909 24.95228946208954,66.41989350318909 24.352934956550598,64.08545970916748 24.352934956550598,64.08545970916748 24.2628812789917,61.607825756073 24.2628812789917,61.607825756073 24.439407885074615,59.04102921485901 24.439407885074615,59.04102921485901 24.615785479545593,56.4742386341095 24.615785479545593,56.4742386341095 24.792462587356567,53.90744209289551 24.792462587356567,53.90744209289551 24.968691170215607,51.34060978889465 24.968691170215607,51.34060978889465 25.14536678791046,48.77381920814514 25.14536678791046,48.77381920814514 25.322040915489197,46.207061409950256 25.322040915489197,46.207061409950256 25.381678342819214,45.23221254348755 25.381678342819214,45.23221254348755 25.433117151260376,44.25341486930847 25.433117151260376,44.25341486930847 25.486046075820923,43.27319860458374 25.486046075820923,43.27319860458374 25.549259781837463,42.29395389556885 25.549259781837463,42.29395389556885 25.633201003074646,41.31813645362854 25.633201003074646,41.31813645362854 25.74666142463684,40.34828245639801 25.74666142463684,40.34828245639801 26.459327340126038,37.653565406799316 26.459327340126038,37.653565406799316 27.777910232543945,35.23109555244446 27.777910232543945,35.23109555244446 29.60520088672638,33.17569196224213 29.60520088672638,33.17569196224213 31.843391060829163,31.581807136535645 31.843391060829163,31.581807136535645 34.395575523376465,30.544191598892212 34.395575523376465,30.544191598892212 37.16364502906799,30.15744388103485 37.16364502906799,30.15744388103485 34.72894728183746,27.392131090164185 34.72894728183746,27.392131090164185 32.958462834358215,24.222739040851593 32.958462834358215,24.222739040851593 31.88096284866333,20.778566598892212 31.88096284866333,20.778566598892212 31.524333357810974,17.18861758708954 31.524333357810974,17.18861758708954 31.917640566825867,13.582120835781097 31.917640566825867,13.582120835781097 33.08921754360199,10.08826345205307 33.08921754360199,10.08826345205307 34.768906235694885,7.226338982582092 34.768906235694885,7.226338982582092 36.937618255615234,4.766072332859039 36.937618255615234,4.766072332859039 39.51335847377777,2.760317362844944 39.51335847377777,2.760317362844944 42.41337776184082,1.2620765715837479 42.41337776184082,1.2620765715837479 45.5556720495224,0.3243156708776951 45.5556720495224,0.3243156708776951 48.857346177101135,0.0 48.857346177101135,0.0 52.15708613395691,0.3245393047109246 52.15708613395691,0.3245393047109246 55.29773831367493,1.262598391622305 55.29773831367493,1.262598391622305 58.19715857505798,2.7612118050456047 58.19715857505798,2.7612118050456047 60.772156715393066,4.767078533768654 60.772156715393066,4.767078533768654 62.94102072715759,7.227158546447754 62.94102072715759,7.227158546447754 64.62070345878601,10.08826345205307 64.62070345878601,10.08826345205307 65.79034328460693,13.582195341587067 65.79034328460693,13.582195341587067 66.18305444717407,17.188654839992523 66.18305444717407,17.188654839992523 65.82717299461365,20.778566598892212 65.82717299461365,20.778566598892212 64.75026607513428,24.222739040851593 64.75026607513428,24.222739040851593 62.98052668571472,27.39209234714508 62.98052668571472,27.39209234714508 60.546278953552246,30.15744388103485 60.546278953552246,30.15744388103485 63.419610261917114,30.575501918792725 63.419610261917114,30.575501918792725 66.05856418609619,31.693515181541443 66.05856418609619,31.693515181541443 68.35102438926697,33.4041029214859 68.35102438926697,33.4041029214859 70.18487453460693,35.59972941875458 70.18487453460693,35.59972941875458 71.44859433174133,38.17293345928192 71.44859433174133,38.17293345928192 72.0300555229187,41.016221046447754 72.0300555229187,41.016221046447754 72.48807549476624,47.67175614833832 72.48807549476624,47.67175614833832 72.1578299999237,47.435107827186584 72.1578299999237,47.435107827186584 71.81581258773804,47.21471071243286 71.81581258773804,47.21471071243286 71.4629054069519,47.01127111911774 71.4629054069519,47.01127111911774 71.09897136688232,46.82550132274628 71.09897136688232,46.82550132274628 70.72474360466003,46.65818214416504 70.72474360466003,46.65818214416504 70.34112811088562,46.51001989841461 70.34112811088562,46.51001989841461 70.32487392425537,46.4693158864975 70.32487392425537,46.4693158864975 70.30892372131348,46.428316831588745 70.30892372131348,46.428316831588745 70.29341459274292,46.387165784835815 70.29341459274292,46.387165784835815 70.27761340141296,46.34597897529602 70.27761340141296,46.34597897529602 70.26195526123047,46.30501568317413 70.26195526123047,46.30501568317413 70.2457070350647,46.26431167125702 70.2457070350647,46.26431167125702 69.47444677352905,44.831523299217224 69.47444677352905,44.831523299217224 68.4531569480896,43.59397292137146 68.4531569480896,43.59397292137146 67.22447276115417,42.58081018924713 67.22447276115417,42.58081018924713 65.83119630813599,41.821104288101196 65.83119630813599,41.821104288101196 64.31610584259033,41.34393036365509 64.31610584259033,41.34393036365509 62.721848487854004,41.17843508720398 62.721848487854004,41.17843508720398 61.68326735496521,41.24750196933746 61.68326735496521,41.24750196933746 60.672712326049805,41.451871395111084 60.672712326049805,41.451871395111084 59.70062017440796,41.78733229637146 59.70062017440796,41.78733229637146 58.776986598968506,42.249596118927 58.776986598968506,42.249596118927 57.9120934009552,42.83445477485657 57.9120934009552,42.83445477485657 57.115936279296875,43.5376912355423 57.115936279296875,43.5376912355423 54.560768604278564,46.47386372089386 54.560768604278564,46.47386372089386 52.43932008743286,49.711430072784424 52.43932008743286,49.711430072784424 50.77349543571472,53.19567322731018 50.77349543571472,53.19567322731018 49.584925174713135,56.87171816825867 49.584925174713135,56.87171816825867 48.89611303806305,60.6847882270813 48.89611303806305,60.6847882270813 48.7285315990448,64.58015441894531 48.7285315990448,64.58015441894531 48.801884055137634,65.98573327064514 48.801884055137634,65.98573327064514 48.9445686340332,67.38717555999756 48.9445686340332,67.38717555999756 49.15553331375122,68.78041625022888 49.15553331375122,68.78041625022888 49.43299889564514,70.1613187789917 49.43299889564514,70.1613187789917 49.77621138095856,71.52578830718994 49.77621138095856,71.52578830718994 50.18368363380432,72.86975383758545 50.18368363380432,72.86975383758545 37.521469593048096,72.86975383758545 37.521469593048096,72.86975383758545 36.58247888088226,72.87884950637817 36.58247888088226,72.87884950637817 35.631263256073,72.89237976074219 35.631263256073,72.89237976074219 34.6755713224411,72.88973331451416 34.6755713224411,72.88973331451416 33.72286558151245,72.85029292106628 33.72286558151245,72.85029292106628 32.781338691711426,72.75345921516418 32.781338691711426,72.75345921516418" stroke="white" stroke-width="0.1" /><polygon points="84.52528715133667,46.39551639556885 84.52528715133667,46.39551639556885 83.7511956691742,46.70719504356384 83.7511956691742,46.70719504356384 83.01556706428528,47.10602164268494 83.01556706428528,47.10602164268494 82.32287764549255,47.5894570350647 82.32287764549255,47.5894570350647 81.6772997379303,48.15474450588226 81.6772997379303,48.15474450588226 81.0836136341095,48.79935085773468 81.0836136341095,48.79935085773468 80.54627776145935,49.52051639556885 80.54627776145935,49.52051639556885 80.24510741233826,49.457597732543945 80.24510741233826,49.457597732543945 79.94215488433838,49.402135610580444 79.94215488433838,49.402135610580444 79.63799834251404,49.35353100299835 79.63799834251404,49.35353100299835 79.33250665664673,49.311262369155884 79.33250665664673,49.311262369155884 79.02612090110779,49.274882674217224 79.02612090110779,49.274882674217224 78.71899008750916,49.24379885196686 78.71899008750916,49.24379885196686 78.6359429359436,48.040127754211426 78.6359429359436,48.040127754211426 78.5531997680664,46.83612287044525 78.5531997680664,46.83612287044525 78.47089767456055,45.631858706474304 78.47089767456055,45.631858706474304 78.38829755783081,44.427332282066345 78.38829755783081,44.427332282066345 78.30585241317749,43.22276711463928 78.30585241317749,43.22276711463928 78.22280526161194,42.01813042163849 78.22280526161194,42.01813042163849 78.06386947631836,40.32368361949921 78.06386947631836,40.32368361949921 77.81145572662354,38.662779331207275 77.81145572662354,38.662779331207275 77.44453549385071,37.038108706474304 77.44453549385071,37.038108706474304 76.94194316864014,35.452163219451904 76.94194316864014,35.452163219451904 76.282799243927,33.90759229660034 76.282799243927,33.90759229660034 75.4460871219635,32.406964898109436 75.4460871219635,32.406964898109436 75.02295970916748,31.81595802307129 75.02295970916748,31.81595802307129 74.56569075584412,31.252309679985046 74.56569075584412,31.252309679985046 74.12810325622559,30.69089949131012 74.12810325622559,30.69089949131012 73.7625241279602,30.106601119041443 73.7625241279602,30.106601119041443 73.52263331413269,29.4744074344635 73.52263331413269,29.4744074344635 73.46135377883911,28.769084811210632 73.46135377883911,28.769084811210632 73.50906729698181,28.20163369178772 73.50906729698181,28.20163369178772 73.58927726745605,27.638208866119385 73.58927726745605,27.638208866119385 73.7022876739502,27.08044946193695 73.7022876739502,27.08044946193695 73.84676337242126,26.53007209300995 73.84676337242126,26.53007209300995 74.02284145355225,25.988712906837463 74.02284145355225,25.988712906837463 74.22948479652405,25.458014011383057 74.22948479652405,25.458014011383057 74.71672296524048,24.46579784154892 74.71672296524048,24.46579784154892 75.30937194824219,23.534932732582092 75.30937194824219,23.534932732582092 75.99892616271973,22.674737870693207 75.99892616271973,22.674737870693207 76.77719593048096,21.894381940364838 76.77719593048096,21.894381940364838 77.63552665710449,21.20329588651657 77.63552665710449,21.20329588651657 78.56631875038147,20.610687136650085 78.56631875038147,20.610687136650085 80.76663613319397,19.70803737640381 80.76663613319397,19.70803737640381 83.07192325592041,19.359643757343292 83.07192325592041,19.359643757343292 85.37989258766174,19.544370472431183 85.37989258766174,19.544370472431183 87.58781552314758,20.241159200668335 87.58781552314758,20.241159200668335 89.59401845932007,21.42898738384247 89.59401845932007,21.42898738384247 91.295325756073,23.086832463741302 91.295325756073,23.086832463741302 92.6183819770813,25.268593430519104 92.6183819770813,25.268593430519104 93.32627654075623,27.657443284988403 93.32627654075623,27.657443284988403 93.43034625053406,30.12702763080597 93.43034625053406,30.12702763080597 92.94101595878601,32.55084156990051 92.94101595878601,32.55084156990051 91.86948537826538,34.802600741386414 91.86948537826538,34.802600741386414 90.22662043571472,36.755725741386414 90.22662043571472,36.755725741386414 91.68356657028198,36.94268763065338 91.68356657028198,36.94268763065338 93.04986000061035,37.446027994155884 93.04986000061035,37.446027994155884 94.27838921546936,38.2257878780365 94.27838921546936,38.2257878780365 95.32144665718079,39.242082834243774 95.32144665718079,39.242082834243774 96.1320698261261,40.455108880996704 96.1320698261261,40.455108880996704 96.66268825531006,41.82490408420563 96.66268825531006,41.82490408420563 96.70026302337646,41.98298156261444 96.70026302337646,41.98298156261444 96.72844409942627,42.144039273262024 96.72844409942627,42.144039273262024 96.75036072731018,42.30707287788391 96.75036072731018,42.30707287788391 96.76854610443115,42.4710750579834 96.76854610443115,42.4710750579834 96.78614139556885,42.63511598110199 96.78614139556885,42.63511598110199 96.80582284927368,42.79818832874298 96.80582284927368,42.79818832874298 96.14518880844116,42.36480891704559 96.14518880844116,42.36480891704559 95.43073177337646,41.97828471660614 95.43073177337646,41.97828471660614 94.66066360473633,41.652849316596985 94.66066360473633,41.652849316596985 93.83289813995361,41.40274524688721 93.83289813995361,41.40274524688721 92.9453432559967,41.24224781990051 92.9453432559967,41.24224781990051 91.99665784835815,41.185590624809265 91.99665784835815,41.185590624809265 91.66284203529358,41.19274914264679 91.66284203529358,41.19274914264679 91.3293182849884,41.21403098106384 91.3293182849884,41.21403098106384 90.99713563919067,41.2494033575058 90.99713563919067,41.2494033575058 90.66630005836487,41.298678517341614 90.66630005836487,41.298678517341614 90.33769965171814,41.361746191978455 90.33769965171814,41.361746191978455 90.01193046569824,41.438454389572144 90.01193046569824,41.438454389572144 88.78548741340637,41.87224209308624 88.78548741340637,41.87224209308624 87.66072392463684,42.486655712127686 87.66072392463684,42.486655712127686 86.65493726730347,43.26395392417908 86.65493726730347,43.26395392417908 85.78512668609619,44.18632090091705 85.78512668609619,44.18632090091705 85.06977558135986,45.23608982563019 85.06977558135986,45.23608982563019" stroke="white" stroke-width="0.1" /><polygon points="59.358298778533936,77.40458250045776 59.358298778533936,77.40458250045776 58.874642848968506,76.73973441123962 58.874642848968506,76.73973441123962 58.41558575630188,76.05774402618408 58.41558575630188,76.05774402618408 57.98187255859375,75.35931468009949 57.98187255859375,75.35931468009949 57.57335424423218,74.64515566825867 57.57335424423218,74.64515566825867 57.19093084335327,73.91608953475952 57.19093084335327,73.91608953475952 56.834447383880615,73.1727123260498 56.834447383880615,73.1727123260498 56.2613308429718,71.77942991256714 56.2613308429718,71.77942991256714 55.78259229660034,70.35186290740967 55.78259229660034,70.35186290740967 55.39957284927368,68.89641284942627 55.39957284927368,68.89641284942627 55.112266540527344,67.41918921470642 55.112266540527344,67.41918921470642 54.92262244224548,65.92668890953064 54.92262244224548,65.92668890953064 54.830628633499146,64.42509293556213 54.830628633499146,64.42509293556213 54.96302247047424,61.36055588722229 54.96302247047424,61.36055588722229 55.505722761154175,58.3579957485199 55.505722761154175,58.3579957485199 56.44203424453735,55.461591482162476 56.44203424453735,55.461591482162476 57.75420665740967,52.71543860435486 57.75420665740967,52.71543860435486 59.42539572715759,50.16378164291382 59.42539572715759,50.16378164291382 61.43845319747925,47.85066843032837 61.43845319747925,47.85066843032837 61.64092421531677,47.67048954963684 61.64092421531677,47.67048954963684 61.85069680213928,47.527024149894714 61.85069680213928,47.527024149894714 62.065839767456055,47.41859436035156 62.065839767456055,47.41859436035156 62.28381395339966,47.34330177307129 62.28381395339966,47.34330177307129 62.50327825546265,47.29950726032257 62.50327825546265,47.29950726032257 62.721848487854004,47.285306453704834 62.721848487854004,47.285306453704834 63.44107985496521,47.43525683879852 63.44107985496521,47.43525683879852 64.06279802322388,47.8384792804718 64.06279802322388,47.8384792804718 64.51753377914429,48.42497706413269 64.51753377914429,48.42497706413269 64.73461389541626,49.12474751472473 64.73461389541626,49.12474751472473 64.6445631980896,49.86790418624878 64.6445631980896,49.86790418624878 64.177006483078,50.584447383880615 64.177006483078,50.584447383880615 62.30885982513428,52.75278687477112 62.30885982513428,52.75278687477112 60.808831453323364,55.170267820358276 60.808831453323364,55.170267820358276 59.69465374946594,57.781487703323364 59.69465374946594,57.781487703323364 58.9824378490448,60.531073808670044 58.9824378490448,60.531073808670044 58.68976712226868,63.36362361907959 58.68976712226868,63.36362361907959 58.833491802215576,66.22375845909119 58.833491802215576,66.22375845909119 59.08844470977783,67.72423982620239 59.08844470977783,67.72423982620239 59.46430563926697,69.19899582862854 59.46430563926697,69.19899582862854 59.95885133743286,70.63841819763184 59.95885133743286,70.63841819763184 60.56894063949585,72.03266620635986 60.56894063949585,72.03266620635986 61.292046308517456,73.37212562561035 61.292046308517456,73.37212562561035 62.12548017501831,74.6469497680664 62.12548017501831,74.6469497680664 62.54085302352905,75.15889406204224 62.54085302352905,75.15889406204224 63.0343496799469,75.68426728248596 63.0343496799469,75.68426728248596 63.55021595954895,76.22465491294861 63.55021595954895,76.22465491294861 64.03297781944275,76.78144574165344 64.03297781944275,76.78144574165344 64.42733407020569,77.35642194747925 64.42733407020569,77.35642194747925 64.67795968055725,77.95085906982422 64.67795968055725,77.95085906982422 64.7340178489685,78.55927348136902 64.7340178489685,78.55927348136902 64.6023690700531,79.12776470184326 64.6023690700531,79.12776470184326 64.31357264518738,79.62487936019897 64.31357264518738,79.62487936019897 63.89760375022888,80.01893758773804 63.89760375022888,80.01893758773804 63.38576674461365,80.27858138084412 63.38576674461365,80.27858138084412 62.80772686004639,80.37213683128357 62.80772686004639,80.37213683128357 62.72870898246765,80.37034869194031 62.72870898246765,80.37034869194031 62.648797035217285,80.36497831344604 62.648797035217285,80.36497831344604 62.568581104278564,80.35603761672974 62.568581104278564,80.35603761672974 62.48747706413269,80.34343719482422 62.48747706413269,80.34343719482422 62.406814098358154,80.32737374305725 62.406814098358154,80.32737374305725 62.32585906982422,80.30772805213928 62.32585906982422,80.30772805213928 61.72844171524048,80.04879355430603 61.72844171524048,80.04879355430603 61.16829514503479,79.62611317634583 61.16829514503479,79.62611317634583 60.648852586746216,79.09500002861023 60.648852586746216,79.09500002861023 60.17190217971802,78.51077914237976 60.17190217971802,78.51077914237976 59.741026163101196,77.92890667915344 59.741026163101196,77.92890667915344" stroke="white" stroke-width="0.1" /><polygon points="88.39455842971802,59.36545729637146 88.39455842971802,59.36545729637146 88.15944194793701,58.83185267448425 88.15944194793701,58.83185267448425 87.89793252944946,58.3082377910614 87.89793252944946,58.3082377910614 87.61152029037476,57.796698808670044 87.61152029037476,57.796698808670044 87.30051517486572,57.29924440383911 87.30051517486572,57.29924440383911 86.96654438972473,56.8179726600647 86.96654438972473,56.8179726600647 86.61020994186401,56.35496377944946 86.61020994186401,56.35496377944946 86.20184063911438,55.88024854660034 86.20184063911438,55.88024854660034 85.7995867729187,55.39897680282593 85.7995867729187,55.39897680282593 85.46517491340637,54.8980176448822 85.46517491340637,54.8980176448822 85.25927662849426,54.36396598815918 85.25927662849426,54.36396598815918 85.2437674999237,53.783804178237915 85.2437674999237,53.783804178237915 85.47948598861694,53.14408540725708 85.47948598861694,53.14408540725708 85.69567203521729,52.810150384902954 85.69567203521729,52.810150384902954 85.92289090156555,52.547186613082886 85.92289090156555,52.547186613082886 86.15995049476624,52.35061049461365 86.15995049476624,52.35061049461365 86.40520572662354,52.21582651138306 86.40520572662354,52.21582651138306 86.65761947631836,52.13833451271057 86.65761947631836,52.13833451271057 86.91555261611938,52.113550901412964 86.91555261611938,52.113550901412964 87.6031756401062,52.26402282714844 87.6031756401062,52.26402282714844 88.28766345977783,52.66065001487732 88.28766345977783,52.66065001487732 88.9414370059967,53.22101712226868 88.9414370059967,53.22101712226868 89.53647017478943,53.86286377906799 89.53647017478943,53.86286377906799 90.04577398300171,54.50396537780762 90.04577398300171,54.50396537780762 90.44131636619568,55.06202578544617 90.44131636619568,55.06202578544617 91.05558395385742,56.05412721633911 91.05558395385742,56.05412721633911 91.59425497055054,57.08749294281006 91.59425497055054,57.08749294281006 92.0551061630249,58.15690755844116 92.0551061630249,58.15690755844116 92.43529438972473,59.25710201263428 92.43529438972473,59.25710201263428 92.7331805229187,60.38290858268738 92.7331805229187,60.38290858268738 92.9460883140564,61.52910590171814 92.9460883140564,61.52910590171814 93.1086003780365,63.9761745929718 93.1086003780365,63.9761745929718 92.89047718048096,66.400808095932 92.89047718048096,66.400808095932 92.30737090110779,68.7562644481659 92.30737090110779,68.7562644481659 91.37464165687561,70.99575996398926 91.37464165687561,70.99575996398926 90.10823965072632,73.07270765304565 90.10823965072632,73.07270765304565 88.52337598800659,74.94036555290222 88.52337598800659,74.94036555290222 88.31942081451416,75.12158751487732 88.31942081451416,75.12158751487732 88.10889720916748,75.26564598083496 88.10889720916748,75.26564598083496 87.89420127868652,75.37452578544617 87.89420127868652,75.37452578544617 87.67637610435486,75.44992566108704 87.67637610435486,75.44992566108704 87.4578058719635,75.49387216567993 87.4578058719635,75.49387216567993 87.23998069763184,75.50811171531677 87.23998069763184,75.50811171531677 86.52492761611938,75.35853385925293 86.52492761611938,75.35853385925293 85.9054446220398,74.95635151863098 85.9054446220398,74.95635151863098 85.45204997062683,74.37142133712769 85.45204997062683,74.37142133712769 85.23452281951904,73.67351651191711 85.23452281951904,73.67351651191711 85.32367944717407,72.93267250061035 85.32367944717407,72.93267250061035 85.78959703445435,72.21851348876953 85.78959703445435,72.21851348876953 86.58098578453064,71.34243845939636 86.58098578453064,71.34243845939636 87.27785348892212,70.39837837219238 87.27785348892212,70.39837837219238 87.87631392478943,69.39348578453064 87.87631392478943,69.39348578453064 88.37234377861023,68.33484768867493 88.37234377861023,68.33484768867493 88.76281976699829,67.22980737686157 88.76281976699829,67.22980737686157 89.04341459274292,66.08539819717407 89.04341459274292,66.08539819717407 89.20846581459045,64.95929956436157 89.20846581459045,64.95929956436157 89.26422595977783,63.82104158401489 89.26422595977783,63.82104158401489 89.21099901199341,62.68159747123718 89.21099901199341,62.68159747123718 89.04818892478943,61.55187487602234 89.04818892478943,61.55187487602234 88.77609372138977,60.44284701347351 88.77609372138977,60.44284701347351" stroke="white" stroke-width="0.1" /><polygon points="67.68368482589722,52.15887427330017 67.68368482589722,52.15887427330017 68.17509531974792,52.22492218017578 68.17509531974792,52.22492218017578 68.62073540687561,52.41113901138306 68.62073540687561,52.41113901138306 69.00166869163513,52.69978642463684 69.00166869163513,52.69978642463684 69.29896473884583,53.07311415672302 69.29896473884583,53.07311415672302 69.49397921562195,53.51338982582092 69.49397921562195,53.51338982582092 69.56822276115417,54.00286316871643 69.56822276115417,54.00286316871643 69.4984495639801,54.571354389190674 69.4984495639801,54.571354389190674 69.2843496799469,55.076855421066284 69.2843496799469,55.076855421066284 68.96946430206299,55.53703308105469 68.96946430206299,55.53703308105469 68.59732866287231,55.96955418586731 68.59732866287231,55.96955418586731 68.21132302284241,56.392163038253784 68.21132302284241,56.392163038253784 67.85544157028198,56.82252049446106 67.85544157028198,56.82252049446106 67.17318892478943,57.872474193573 67.17318892478943,57.872474193573 66.60693287849426,58.98467302322388 66.60693287849426,58.98467302322388 66.16054177284241,60.14789938926697 66.16054177284241,60.14789938926697 65.83731174468994,61.35086417198181 65.83731174468994,61.35086417198181 65.64110517501831,62.58237361907959 65.64110517501831,62.58237361907959 65.57490229606628,63.831108808517456 65.57490229606628,63.831108808517456 65.63066840171814,64.97946381568909 65.63066840171814,64.97946381568909 65.79645872116089,66.11589193344116 65.79645872116089,66.11589193344116 66.069895029068,67.23043918609619 66.069895029068,67.23043918609619 66.44918918609619,68.31315755844116 66.44918918609619,68.31315755844116 66.93210005760193,69.35420036315918 66.93210005760193,69.35420036315918 67.51669645309448,70.34351229667664 67.51669645309448,70.34351229667664 68.07699203491211,71.09963893890381 68.07699203491211,71.09963893890381 68.76729726791382,72.0382571220398 68.76729726791382,72.0382571220398 69.35412883758545,73.05045127868652 69.35412883758545,73.05045127868652 69.60400938987732,74.02724027633667 69.60400938987732,74.02724027633667 69.28420066833496,74.85970258712769 69.28420066833496,74.85970258712769 68.16078424453735,75.43892860412598 68.16078424453735,75.43892860412598 68.08251142501831,75.4574179649353 68.08251142501831,75.4574179649353 68.00482869148254,75.47240257263184 68.00482869148254,75.47240257263184 67.92819499969482,75.48395991325378 67.92819499969482,75.48395991325378 67.85200834274292,75.49208402633667 67.85200834274292,75.49208402633667 67.77701377868652,75.49692988395691 67.77701377868652,75.49692988395691 67.7027702331543,75.49856901168823 67.7027702331543,75.49856901168823 66.77585244178772,75.26803016662598 66.77585244178772,75.26803016662598 65.91781973838806,74.66256618499756 65.91781973838806,74.66256618499756 65.14432430267334,73.81142973899841 65.14432430267334,73.81142973899841 64.469975233078,72.84373641014099 64.469975233078,72.84373641014099 63.91042470932007,71.88879251480103 63.91042470932007,71.88879251480103 63.4804368019104,71.07585668563843 63.4804368019104,71.07585668563843 62.949663400650024,69.93637681007385 62.949663400650024,69.93637681007385 62.512075901031494,68.76025199890137 62.512075901031494,68.76025199890137 62.16961145401001,67.55456924438477 62.16961145401001,67.55456924438477 61.923009157180786,66.3263738155365 61.923009157180786,66.3263738155365 61.77436113357544,65.08289575576782 61.77436113357544,65.08289575576782 61.72471642494202,63.831108808517456 61.72471642494202,63.831108808517456 61.7667555809021,62.676674127578735 61.7667555809021,62.676674127578735 61.892592906951904,61.528730392456055 61.892592906951904,61.528730392456055 62.10162043571472,60.39301156997681 62.10162043571472,60.39301156997681 62.39309906959534,59.27510857582092 62.39309906959534,59.27510857582092 62.76702880859375,58.18087458610535 62.76702880859375,58.18087458610535 63.22280764579773,57.115936279296875 63.22280764579773,57.115936279296875 63.66233229637146,56.216973066329956 63.66233229637146,56.216973066329956 64.24782276153564,55.150097608566284 64.24782276153564,55.150097608566284 64.96123671531677,54.06309366226196 64.96123671531677,54.06309366226196 65.78378677368164,53.10367941856384 65.78378677368164,53.10367941856384 66.69757962226868,52.419716119766235 66.69757962226868,52.419716119766235" stroke="white" stroke-width="0.1" /><polygon points="69.31536197662354,66.61021113395691 69.31536197662354,66.61021113395691 68.87553930282593,64.3121600151062 68.87553930282593,64.3121600151062 69.07413005828857,62.04500198364258 69.07413005828857,62.04500198364258 69.84851956367493,59.92545485496521 69.84851956367493,59.92545485496521 71.13564610481262,58.07028412818909 71.13564610481262,58.07028412818909 72.87288308143616,56.5963089466095 72.87288308143616,56.5963089466095 74.99761581420898,55.62022924423218 74.99761581420898,55.62022924423218 75.39002895355225,55.51444888114929 75.39002895355225,55.51444888114929 75.78378319740295,55.42834401130676 75.78378319740295,55.42834401130676 76.17843747138977,55.3617000579834 76.17843747138977,55.3617000579834 76.5726387500763,55.31432628631592 76.5726387500763,55.31432628631592 76.96684002876282,55.28607368469238 76.96684002876282,55.28607368469238 77.35925316810608,55.27671575546265 77.35925316810608,55.27671575546265 79.08247709274292,55.45428991317749 79.08247709274292,55.45428991317749 80.72459697723389,55.968695878982544 80.72459697723389,55.968695878982544 82.23342299461365,56.79270029067993 82.23342299461365,56.79270029067993 83.55633020401001,57.89897441864014 83.55633020401001,57.89897441864014 84.64173078536987,59.26027297973633 84.64173078536987,59.26027297973633 85.43654680252075,60.8492374420166 85.43654680252075,60.8492374420166 85.74516773223877,61.87489032745361 85.74516773223877,61.87489032745361 85.92214584350586,62.928420305252075 85.92214584350586,62.928420305252075 85.96791625022888,63.994812965393066 85.96791625022888,63.994812965393066 85.88278293609619,65.0589644908905 85.88278293609619,65.0589644908905 85.66734194755554,66.10597372055054 85.66734194755554,66.10597372055054 85.32204031944275,67.1207070350647 85.32204031944275,67.1207070350647 85.0945234298706,67.61428117752075 85.0945234298706,67.61428117752075 84.83659625053406,68.09219717979431 84.83659625053406,68.09219717979431 84.54973697662354,68.55319738388062 84.54973697662354,68.55319738388062 84.23440456390381,68.99585723876953 84.23440456390381,68.99585723876953 83.89208912849426,69.41890716552734 83.89208912849426,69.41890716552734 83.52338075637817,69.82108950614929 83.52338075637817,69.82108950614929 83.35460424423218,69.96026635169983 83.35460424423218,69.96026635169983 83.09622406959534,70.15215158462524 83.09622406959534,70.15215158462524 82.80653357505798,70.37303447723389 82.80653357505798,70.37303447723389 82.54278898239136,70.59928178787231 82.54278898239136,70.59928178787231 82.36328363418579,70.8072304725647 82.36328363418579,70.8072304725647 82.32585787773132,70.97328305244446 82.32585787773132,70.97328305244446 82.63627290725708,71.75296545028687 82.63627290725708,71.75296545028687 82.94697999954224,72.53216505050659 82.94697999954224,72.53216505050659 83.257395029068,73.31106662750244 83.257395029068,73.31106662750244 83.56676697731018,74.08993244171143 83.56676697731018,74.08993244171143 83.87523889541626,74.86913204193115 83.87523889541626,74.86913204193115 84.18177366256714,75.6488561630249 84.18177366256714,75.6488561630249 85.2230429649353,78.25944423675537 85.2230429649353,78.25944423675537 86.26237511634827,80.87130188941956 86.26237511634827,80.87130188941956 87.30021715164185,83.48371982574463 87.30021715164185,83.48371982574463 88.33641409873962,86.09587550163269 88.33641409873962,86.09587550163269 89.372318983078,88.70717287063599 89.372318983078,88.70717287063599 90.40791988372803,91.3167953491211 90.40791988372803,91.3167953491211 90.71594476699829,92.04493165016174 90.71594476699829,92.04493165016174 91.0484254360199,92.81048774719238 91.0484254360199,92.81048774719238 91.37106537818909,93.6000108718872 91.37106537818909,93.6000108718872 91.64852499961853,94.40004825592041 91.64852499961853,94.40004825592041 91.8465256690979,95.1972484588623 91.8465256690979,95.1972484588623 91.92986488342285,95.97805142402649 91.92986488342285,95.97805142402649 91.82997345924377,96.75647020339966 91.82997345924377,96.75647020339966 91.55474901199341,97.40238189697266 91.55474901199341,97.40238189697266 91.13430380821228,97.91179895401001 91.13430380821228,97.91179895401001 90.59831500053406,98.28065633773804 90.59831500053406,98.28065633773804 89.97748494148254,98.5049307346344 89.97748494148254,98.5049307346344 89.30104970932007,98.58062863349915 89.30104970932007,98.58062863349915 89.04699683189392,98.57068061828613 89.04699683189392,98.57068061828613 88.79085183143616,98.540598154068 88.79085183143616,98.540598154068 88.5347068309784,98.49027991294861 88.5347068309784,98.49027991294861 88.27946186065674,98.41945767402649 88.27946186065674,98.41945767402649 88.02704811096191,98.32795262336731 88.02704811096191,98.32795262336731 87.77910470962524,98.215651512146 87.77910470962524,98.215651512146 87.32958436012268,97.96662330627441 87.32958436012268,97.96662330627441 86.8906557559967,97.69214391708374 86.8906557559967,97.69214391708374 86.46111488342285,97.39980697631836 86.46111488342285,97.39980697631836 86.03828549385071,97.09707498550415 86.03828549385071,97.09707498550415 85.6211245059967,96.7916190624237 85.6211245059967,96.7916190624237 85.20753979682922,96.49093747138977 85.20753979682922,96.49093747138977 84.25140380859375,95.81930637359619 84.25140380859375,95.81930637359619 83.29601287841797,95.1492428779602 83.29601287841797,95.1492428779602 82.34136700630188,94.47996020317078 82.34136700630188,94.47996020317078 81.38731718063354,93.81068348884583 81.38731718063354,93.81068348884583 80.43445944786072,93.14061999320984 80.43445944786072,93.14061999320984 79.48234677314758,92.46898889541626 79.48234677314758,92.46898889541626 79.16761040687561,92.26763844490051 79.16761040687561,92.26763844490051 78.85302305221558,92.10807085037231 78.85302305221558,92.10807085037231 78.53947877883911,91.98801517486572 78.53947877883911,91.98801517486572 78.22667956352234,91.90508127212524 78.22667956352234,91.90508127212524 77.91612148284912,91.85706973075867 77.91612148284912,91.85706973075867 77.60734558105469,91.84160232543945 77.60734558105469,91.84160232543945 76.76049470901489,91.94917678833008 76.76049470901489,91.94917678833008 75.93153715133667,92.23830103874207 75.93153715133667,92.23830103874207 75.12524127960205,92.658931016922 75.12524127960205,92.658931016922 74.346524477005,93.16082000732422 74.346524477005,93.16082000732422 73.60105514526367,93.69394183158875 73.60105514526367,93.69394183158875 72.89360761642456,94.20801401138306 72.89360761642456,94.20801401138306 71.94954752922058,94.89138722419739 71.94954752922058,94.89138722419739 71.00220918655396,95.6027090549469 71.00220918655396,95.6027090549469 70.04532217979431,96.31649851799011 70.04532217979431,96.31649851799011 69.07234191894531,97.00698256492615 69.07234191894531,97.00698256492615 68.07743906974792,97.64857292175293 68.07743906974792,97.64857292175293 67.0539140701294,98.215651512146 67.0539140701294,98.215651512146 66.80373549461365,98.32918643951416 66.80373549461365,98.32918643951416 66.55012369155884,98.42177033424377 66.55012369155884,98.42177033424377 66.29472970962524,98.49355816841125 66.29472970962524,98.49355816841125 66.03873372077942,98.54462146759033 66.03873372077942,98.54462146759033 65.78408479690552,98.57522249221802 65.78408479690552,98.57522249221802 65.53196310997009,98.58540296554565 65.53196310997009,98.58540296554565 64.85925316810608,98.50921630859375 64.85925316810608,98.50921630859375 64.24350142478943,98.28367233276367 64.24350142478943,98.28367233276367 63.713622093200684,97.9132890701294 63.713622093200684,97.9132890701294 63.29750418663025,97.40249514579773 63.29750418663025,97.40249514579773 63.024210929870605,96.75598740577698 63.024210929870605,96.75598740577698 62.92223334312439,95.97805142402649 62.92223334312439,95.97805142402649 62.989622354507446,95.25301456451416 62.989622354507446,95.25301456451416 63.15839886665344,94.52863931655884 63.15839886665344,94.52863931655884 63.39873671531677,93.80934238433838 63.39873671531677,93.80934238433838 63.68141770362854,93.09935569763184 63.68141770362854,93.09935569763184 63.977813720703125,92.40305423736572 63.977813720703125,92.40305423736572 64.25811052322388,91.72471165657043 64.25811052322388,91.72471165657043 65.06649851799011,89.69689607620239 65.06649851799011,89.69689607620239 65.87368845939636,87.668776512146 65.87368845939636,87.668776512146 66.68058037757874,85.64050793647766 66.68058037757874,85.64050793647766 67.48628616333008,83.61223936080933 67.48628616333008,83.61223936080933 68.29153895378113,81.58411979675293 68.29153895378113,81.58411979675293 69.09589767456055,79.55629825592041 69.09589767456055,79.55629825592041 69.57061290740967,78.3663809299469 69.57061290740967,78.3663809299469 70.04532217979431,77.17501521110535 70.04532217979431,77.17501521110535 70.52003741264343,75.98252892494202 70.52003741264343,75.98252892494202 70.99445462226868,74.78899359703064 70.99445462226868,74.78899359703064 71.46931886672974,73.59471917152405 71.46931886672974,73.59471917152405 71.94417715072632,72.39980697631836 71.94417715072632,72.39980697631836 72.0413863658905,72.15775847434998 72.0413863658905,72.15775847434998 72.13695645332336,71.91387414932251 72.13695645332336,71.91387414932251 72.23222851753235,71.66865468025208 72.23222851753235,71.66865468025208 72.32675552368164,71.42261266708374 72.32675552368164,71.42261266708374 72.42127656936646,71.17635011672974 72.42127656936646,71.17635011672974 72.51669764518738,70.93034386634827 72.51669764518738,70.93034386634827 72.46123552322388,70.80905437469482 72.46123552322388,70.80905437469482 72.26726412773132,70.61281204223633 72.26726412773132,70.61281204223633 71.99546694755554,70.37839889526367 71.99546694755554,70.37839889526367 71.7050313949585,70.14257311820984 71.7050313949585,70.14257311820984 71.45649194717407,69.94215250015259 71.45649194717407,69.94215250015259 71.30963802337646,69.81393098831177 71.30963802337646,69.81393098831177 70.8796501159668,69.34685707092285 70.8796501159668,69.34685707092285 70.48723697662354,68.84922385215759 70.48723697662354,68.84922385215759 70.13359069824219,68.32389235496521 70.13359069824219,68.32389235496521 69.81930136680603,67.77366399765015 69.81930136680603,67.77366399765015 69.5464551448822,67.2015130519867 69.5464551448822,67.2015130519867" stroke="white" stroke-width="0.1" /><polygon points="90.65601229667664,50.584447383880615 90.65601229667664,50.584447383880615 90.2671754360199,50.01073479652405 90.2671754360199,50.01073479652405 90.11510014533997,49.36847686767578 90.11510014533997,49.36847686767578 90.18308520317078,48.719584941864014 90.18308520317078,48.719584941864014 90.45398831367493,48.12597036361694 90.45398831367493,48.12597036361694 90.9117043018341,47.64946699142456 90.9117043018341,47.64946699142456 91.5386438369751,47.35209941864014 91.5386438369751,47.35209941864014 91.61497950553894,47.33361303806305 91.61497950553894,47.33361303806305 91.69131517410278,47.318628430366516 91.69131517410278,47.318628430366516 91.76765084266663,47.30707406997681 91.76765084266663,47.30707406997681 91.84368848800659,47.29887247085571 91.84368848800659,47.29887247085571 91.92017316818237,47.294026613235474 91.92017316818237,47.294026613235474 91.99665784835815,47.29246199131012 91.99665784835815,47.29246199131012 92.72095561027527,47.438350319862366 92.72095561027527,47.438350319862366 93.38934421539307,47.82494902610779 93.38934421539307,47.82494902610779 94.00047659873962,48.375776410102844 94.00047659873962,48.375776410102844 94.55257058143616,49.01419281959534 94.55257058143616,49.01419281959534 95.04457712173462,49.6638685464859 95.04457712173462,49.6638685464859 95.47471404075623,50.24809241294861 95.47471404075623,50.24809241294861 97.22790718078613,52.968454360961914 97.22790718078613,52.968454360961914 98.56289029121399,55.8968722820282 98.56289029121399,55.8968722820282 99.46922659873962,58.97781252861023 99.46922659873962,58.97781252861023 99.93544220924377,62.155741453170776 99.93544220924377,62.155741453170776 99.95154738426208,65.37519693374634 99.95154738426208,65.37519693374634 99.50620532035828,68.58062744140625 99.50620532035828,68.58062744140625 99.10603761672974,70.16329765319824 99.10603761672974,70.16329765319824 98.59374761581421,71.71013951301575 98.59374761581421,71.71013951301575 97.97292351722717,73.21445345878601 97.97292351722717,73.21445345878601 97.24564552307129,74.66946244239807 97.24564552307129,74.66946244239807 96.41519784927368,76.0684072971344 96.41519784927368,76.0684072971344 95.48425674438477,77.40458250045776 95.48425674438477,77.40458250045776 95.0554609298706,77.98872590065002 95.0554609298706,77.98872590065002 94.5633053779602,78.64186763763428 94.5633053779602,78.64186763763428 94.01121139526367,79.28584218025208 94.01121139526367,79.28584218025208 93.40246319770813,79.8425555229187 93.40246319770813,79.8425555229187 92.74093508720398,80.23385405540466 92.74093508720398,80.23385405540466 92.03006029129028,80.38167953491211 92.03006029129028,80.38167953491211 91.26014113426208,80.2189826965332 91.26014113426208,80.2189826965332 90.66122770309448,79.78768944740295 90.66122770309448,79.78768944740295 90.26777148246765,79.17312979698181 90.26777148246765,79.17312979698181 90.11301398277283,78.4605324268341 90.11301398277283,78.4605324268341 90.23109674453735,77.73523330688477 90.23109674453735,77.73523330688477 90.65601229667664,77.08253860473633 90.65601229667664,77.08253860473633 92.76151061058044,74.56740736961365 92.76151061058044,74.56740736961365 94.37828063964844,71.75405025482178 94.37828063964844,71.75405025482178 95.48604488372803,68.719881772995 95.48604488372803,68.719881772995 96.063631772995,65.5423641204834 96.063631772995,65.5423641204834 96.09076976776123,62.29902505874634 96.09076976776123,62.29902505874634 95.54628133773804,59.06727313995361 95.54628133773804,59.06727313995361 95.05367279052734,57.488369941711426 95.05367279052734,57.488369941711426 94.42375302314758,55.96206188201904 94.42375302314758,55.96206188201904 93.66292953491211,54.498451948165894 93.66292953491211,54.498451948165894 92.77716279029846,53.10755372047424 92.77716279029846,53.10755372047424 91.77272319793701,51.799559593200684 91.77272319793701,51.799559593200684" stroke="white" stroke-width="0.1" /></svg>