<?xml version="1.0" encoding="utf-8" ?>
<svg baseProfile="full" height="89.7243857383728" version="1.1" width="99.99681115150452" xmlns="http://www.w3.org/2000/svg" xmlns:ev="http://www.w3.org/2001/xml-events" xmlns:xlink="http://www.w3.org/1999/xlink"><defs><clipPath /></defs><polygon points="24.97211992740631,30.6364506483078 24.97211992740631,30.6364506483078 25.676974654197693,31.319698691368103 25.676974654197693,31.319698691368103 26.46467089653015,31.895211338996887 26.46467089653015,31.895211338996887 27.321767807006836,32.35442638397217 27.321767807006836,32.35442638397217 28.234228491783142,32.689180970191956 28.234228491783142,32.689180970191956 29.189100861549377,32.89150595664978 29.189100861549377,32.89150595664978 30.172055959701538,32.952842116355896 30.172055959701538,32.952842116355896 32.1740061044693,32.65751898288727 32.1740061044693,32.65751898288727 33.85942578315735,31.959933042526245 33.85942578315735,31.959933042526245 35.20730435848236,31.063205003738403 35.20730435848236,31.063205003738403 36.1961305141449,30.17086088657379 36.1961305141449,30.17086088657379 36.80509924888611,29.486218094825745 36.80509924888611,29.486218094825745 37.01290190219879,29.21299934387207 37.01290190219879,29.21299934387207 38.76772224903107,29.486119747161865 38.76772224903107,29.486119747161865 40.57391881942749,29.71264123916626 40.57391881942749,29.71264123916626 42.413970828056335,29.891368746757507 42.413970828056335,29.891368746757507 44.26955282688141,30.020609498023987 44.26955282688141,30.020609498023987 46.122947335243225,30.09936809539795 46.122947335243225,30.09936809539795 47.95602858066559,30.125856399536133 47.95602858066559,30.125856399536133 52.13318467140198,30.125856399536133 52.13318467140198,30.125856399536133 53.94396185874939,30.100762844085693 53.94396185874939,30.100762844085693 55.780625343322754,30.025887489318848 55.780625343322754,30.025887489318848 57.62485861778259,29.902121424674988 57.62485861778259,29.902121424674988 59.457939863204956,29.729965329170227 59.457939863204956,29.729965329170227 61.261749267578125,29.510313272476196 61.261749267578125,29.510313272476196 63.01736235618591,29.244065284729004 63.01736235618591,29.244065284729004 63.23362588882446,29.510414600372314 63.23362588882446,29.510414600372314 63.86072039604187,30.178827047348022 63.86072039604187,30.178827047348022 64.86597657203674,31.053447723388672 64.86597657203674,31.053447723388672 66.216641664505,31.93802535533905 66.216641664505,31.93802535533905 67.88055300712585,32.63680636882782 67.88055300712585,32.63680636882782 69.82475519180298,32.95363783836365 69.82475519180298,32.95363783836365 70.85052132606506,32.905346155166626 70.85052132606506,32.905346155166626 71.817547082901,32.70650804042816 71.817547082901,32.70650804042816 72.72283434867859,32.368266582489014 72.72283434867859,32.368266582489014 73.56270551681519,31.901782751083374 73.56270551681519,31.901782751083374 74.3343710899353,31.31840229034424 74.3343710899353,31.31840229034424 75.03424882888794,30.62928020954132 75.03424882888794,30.62928020954132 75.28595924377441,30.348891019821167 75.28595924377441,30.348891019821167 76.43231153488159,32.588016986846924 76.43231153488159,32.588016986846924 77.3943543434143,34.983471035957336 77.3943543434143,34.983471035957336 78.16094160079956,37.47241795063019 78.16094160079956,37.47241795063019 78.72042655944824,39.99163508415222 78.72042655944824,39.99163508415222 79.06154990196228,42.478591203689575 79.06154990196228,42.478591203689575 79.17317152023315,44.87015902996063 79.17317152023315,44.87015902996063 79.13134694099426,46.87868356704712 79.13134694099426,46.87868356704712 79.0379524230957,48.31905961036682 79.0379524230957,48.31905961036682 78.91926765441895,49.281901121139526 78.91926765441895,49.281901121139526 78.80167365074158,49.85741376876831 78.80167365074158,49.85741376876831 78.71186137199402,50.13660788536072 78.71186137199402,50.13660788536072 78.67611646652222,50.209492444992065 78.67611646652222,50.209492444992065 78.50117087364197,50.1863956451416 78.50117087364197,50.1863956451416 78.03787589073181,50.128740072250366 78.03787589073181,50.128740072250366 77.37911939620972,50.0537633895874 77.37911939620972,50.0537633895874 76.61770582199097,49.9786913394928 76.61770582199097,49.9786913394928 75.84664225578308,49.92114007472992 75.84664225578308,49.92114007472992 75.15851259231567,49.89803731441498 75.15851259231567,49.89803731441498 72.56033420562744,50.09438991546631 72.56033420562744,50.09438991546631 70.23886442184448,50.685638189315796 70.23886442184448,50.685638189315796 68.18822622299194,51.6757607460022 68.18822622299194,51.6757607460022 66.4021372795105,53.068143129348755 66.4021372795105,53.068143129348755 64.87493515014648,54.866671562194824 64.87493515014648,54.866671562194824 63.60044479370117,57.075035572052 63.60044479370117,57.075035572052 62.19431757926941,60.47185659408569 62.19431757926941,60.47185659408569 61.054837703704834,63.97502422332764 61.054837703704834,63.97502422332764 60.177433490753174,67.2617256641388 60.177433490753174,67.2617256641388 59.556710720062256,70.00895738601685 59.556710720062256,70.00895738601685 59.188103675842285,71.89421653747559 59.188103675842285,71.89421653747559 59.06643271446228,72.5943922996521 59.06643271446228,72.5943922996521 58.76134634017944,72.70182371139526 58.76134634017944,72.70182371139526 57.88871645927429,72.97016382217407 57.88871645927429,72.97016382217407 56.512463092803955,73.31925630569458 56.512463092803955,73.31925630569458 54.696112871170044,73.66815209388733 54.696112871170044,73.66815209388733 52.50418186187744,73.9366888999939 52.50418186187744,73.9366888999939 49.99999701976776,74.04412627220154 49.99999701976776,74.04412627220154 47.502586245536804,73.93907904624939 47.502586245536804,73.93907904624939 45.32718360424042,73.67631793022156 45.32718360424042,73.67631793022156 43.53293478488922,73.33478927612305 43.53293478488922,73.33478927612305 42.17838644981384,72.9931652545929 42.17838644981384,72.9931652545929 41.322484612464905,72.7304995059967 41.322484612464905,72.7304995059967 41.02437198162079,72.62545228004456 41.02437198162079,72.62545228004456 40.90309739112854,71.92428708076477 40.90309739112854,71.92428708076477 40.53518772125244,70.03594040870667 40.53518772125244,70.03594040870667 39.91536498069763,67.28383302688599 39.91536498069763,67.28383302688599 39.03765678405762,63.99075984954834 39.03765678405762,63.99075984954834 37.896883487701416,60.48022508621216 37.896883487701416,60.48022508621216 36.48717403411865,57.075035572052 36.48717403411865,57.075035572052 35.213276743888855,54.86677289009094 35.213276743888855,54.86677289009094 33.68637263774872,53.06824445724487 33.68637263774872,53.06824445724487 31.900587677955627,51.6757607460022 31.900587677955627,51.6757607460022 29.849648475646973,50.685638189315796 29.849648475646973,50.685638189315796 27.527877688407898,50.09438991546631 27.527877688407898,50.09438991546631 24.92910474538803,49.89803731441498 24.92910474538803,49.89803731441498 24.300619959831238,49.90889132022858 24.300619959831238,49.90889132022858 23.681196570396423,49.93985891342163 23.681196570396423,49.93985891342163 23.07252585887909,49.98904466629028 23.07252585887909,49.98904466629028 22.47600257396698,50.0541627407074 22.47600257396698,50.0541627407074 21.89381718635559,50.133419036865234 21.89381718635559,50.133419036865234 21.32706642150879,50.22462606430054 21.32706642150879,50.22462606430054 21.28743678331375,50.00985264778137 21.28743678331375,50.00985264778137 21.249401569366455,49.79458451271057 21.249401569366455,49.79458451271057 21.213357150554657,49.57911670207977 21.213357150554657,49.57911670207977 21.17890566587448,49.3629515171051 21.17890566587448,49.3629515171051 21.146148443222046,49.146485328674316 21.146148443222046,49.146485328674316 21.11518085002899,48.929423093795776 21.11518085002899,48.929423093795776 21.085509657859802,48.712560534477234 21.085509657859802,48.712560534477234 21.05703204870224,48.495396971702576 21.05703204870224,48.495396971702576 21.029949188232422,48.27783703804016 21.029949188232422,48.27783703804016 21.004459261894226,48.059579730033875 21.004459261894226,48.059579730033875 20.98066210746765,47.84092605113983 20.98066210746765,47.84092605113983 20.959055423736572,47.6214736700058 20.959055423736572,47.6214736700058 20.91982513666153,47.16763496398926 20.91982513666153,47.16763496398926 20.886768400669098,46.71180248260498 20.886768400669098,46.71180248260498 20.86048126220703,46.2541788816452 20.86048126220703,46.2541788816452 20.841065049171448,45.79456448554993 20.841065049171448,45.79456448554993 20.82921713590622,45.33315896987915 20.82921713590622,45.33315896987915 20.825234055519104,44.87015902996063 20.825234055519104,44.87015902996063 20.938146114349365,42.29578077793121 20.938146114349365,42.29578077793121 21.272601187229156,39.76680636405945 21.272601187229156,39.76680636405945 21.822525560855865,37.294983863830566 21.822525560855865,37.294983863830566 22.581547498703003,34.89146828651428 22.581547498703003,34.89146828651428 23.543789982795715,32.56840407848358 23.543789982795715,32.56840407848358 24.702882766723633,30.33694326877594 24.702882766723633,30.33694326877594" stroke="white" stroke-width="0.1" /><polygon points="49.99840557575226,32.90743827819824 49.99840557575226,32.90743827819824 46.64827883243561,33.35869014263153 46.64827883243561,33.35869014263153 43.63818168640137,34.629398584365845 43.63818168640137,34.629398584365845 41.0880982875824,36.59978806972504 41.0880982875824,36.59978806972504 39.117708802223206,39.149871468544006 39.117708802223206,39.149871468544006 37.84739673137665,42.160165309906006 37.84739673137665,42.160165309906006 37.39684522151947,45.51059305667877 37.39684522151947,45.51059305667877 37.847498059272766,48.8610178232193 37.847498059272766,48.8610178232193 39.117810130119324,51.87111496925354 39.117810130119324,51.87111496925354 41.0880982875824,54.42129969596863 41.0880982875824,54.42129969596863 43.63808035850525,56.391388177871704 43.63808035850525,56.391388177871704 46.64817750453949,57.66189694404602 46.64817750453949,57.66189694404602 49.99840557575226,58.11294913291931 49.99840557575226,58.11294913291931 53.3491313457489,57.66199827194214 53.3491313457489,57.66199827194214 56.35932683944702,56.39158487319946 56.35932683944702,56.39158487319946 58.90950560569763,54.42129969596863 58.90950560569763,54.42129969596863 60.879600048065186,51.87111496925354 60.879600048065186,51.87111496925354 62.15021014213562,48.86091947555542 62.15021014213562,48.86091947555542 62.60156035423279,45.51059305667877 62.60156035423279,45.51059305667877 62.1505081653595,42.160266637802124 62.1505081653595,42.160266637802124 60.879695415496826,39.149969816207886 60.879695415496826,39.149969816207886 58.90950560569763,36.59978806972504 58.90950560569763,36.59978806972504 56.3592255115509,34.629300236701965 56.3592255115509,34.629300236701965 53.348928689956665,33.35869014263153 53.348928689956665,33.35869014263153" stroke="white" stroke-width="0.1" /><polygon points="94.1070556640625,36.766767501831055 94.1070556640625,36.766767501831055 94.32939291000366,38.088059425354004 94.32939291000366,38.088059425354004 94.51439380645752,39.42159712314606 94.51439380645752,39.42159712314606 94.66106295585632,40.767085552215576 94.66106295585632,40.767085552215576 94.7674036026001,42.12382435798645 94.7674036026001,42.12382435798645 94.83231902122498,43.4917151927948 94.83231902122498,43.4917151927948 94.85422372817993,44.87015902996063 94.85422372817993,44.87015902996063 93.24916005134583,56.78030848503113 93.24916005134583,56.78030848503113 88.72151970863342,67.49103665351868 88.72151970863342,67.49103665351868 81.70204162597656,76.57190561294556 81.70204162597656,76.57190561294556 72.62137532234192,83.59158039093018 72.62137532234192,83.59158039093018 61.91054582595825,88.1193220615387 61.91054582595825,88.1193220615387 49.99999701976776,89.7243857383728 49.99999701976776,89.7243857383728 38.08945119380951,88.1193220615387 38.08945119380951,88.1193220615387 27.378523349761963,83.59147906303406 27.378523349761963,83.59147906303406 18.29795241355896,76.57190561294556 18.29795241355896,76.57190561294556 11.27837672829628,67.49123334884644 11.27837672829628,67.49123334884644 6.750836223363876,56.78030848503113 6.750836223363876,56.78030848503113 5.145769938826561,44.87015902996063 5.145769938826561,44.87015902996063 5.167077854275703,43.49948167800903 5.167077854275703,43.49948167800903 5.230902135372162,42.135971784591675 5.230902135372162,42.135971784591675 5.335948616266251,40.78032672405243 5.335948616266251,40.78032672405243 5.481121316552162,39.43284749984741 5.481121316552162,39.43284749984741 5.665624141693115,38.094329833984375 5.665624141693115,38.094329833984375 5.888162925839424,36.76517307758331 5.888162925839424,36.76517307758331 6.481101363897324,37.1270090341568 6.481101363897324,37.1270090341568 7.105305045843124,37.42910623550415 7.105305045843124,37.42910623550415 7.7564917504787445,37.6686692237854 7.7564917504787445,37.6686692237854 8.429384976625443,37.84291744232178 8.429384976625443,37.84291744232178 9.120000898838043,37.94945776462555 9.120000898838043,37.94945776462555 9.823163598775864,37.98550069332123 9.823163598775864,37.98550069332123 10.254102200269699,37.97215819358826 10.254102200269699,37.97215819358826 10.681355744600296,37.93262839317322 10.681355744600296,37.93262839317322 11.103831231594086,37.867411971092224 11.103831231594086,37.867411971092224 11.520232260227203,37.776702642440796 11.520232260227203,37.776702642440796 11.929663270711899,37.661102414131165 11.929663270711899,37.661102414131165 12.330731004476547,37.521106004714966 12.330731004476547,37.521106004714966 12.611517310142517,37.403616309165955 12.611517310142517,37.403616309165955 12.885533273220062,37.27128505706787 12.885533273220062,37.27128505706787 13.153177499771118,37.12571561336517 13.153177499771118,37.12571561336517 13.414648175239563,36.96819543838501 13.414648175239563,36.96819543838501 13.670343160629272,36.80022060871124 13.670343160629272,36.80022060871124 13.920661807060242,36.623385548591614 13.920661807060242,36.623385548591614 14.02043104171753,36.552491784095764 14.02043104171753,36.552491784095764 14.120697975158691,36.482593417167664 14.120697975158691,36.482593417167664 14.220567047595978,36.412397027015686 14.220567047595978,36.412397027015686 14.318941533565521,36.34020984172821 14.318941533565521,36.34020984172821 14.415225386619568,36.26503348350525 14.415225386619568,36.26503348350525 14.508523046970367,36.18527948856354 14.508523046970367,36.18527948856354 15.86267203092575,34.965747594833374 15.86267203092575,34.965747594833374 17.20089167356491,33.762145042419434 17.20089167356491,33.762145042419434 17.30324923992157,33.66476595401764 17.30324923992157,33.66476595401764 17.399930953979492,33.56390297412872 17.399930953979492,33.56390297412872 17.49263107776642,33.460649847984314 17.49263107776642,33.460649847984314 17.582641541957855,33.355700969696045 17.582641541957855,33.355700969696045 17.67185628414154,33.25005769729614 17.67185628414154,33.25005769729614 17.7616685628891,33.144813776016235 17.7616685628891,33.144813776016235 17.14702397584915,34.99780893325806 17.14702397584915,34.99780893325806 16.635732352733612,36.89560890197754 16.635732352733612,36.89560890197754 16.232076287269592,38.835132122039795 16.232076287269592,38.835132122039795 15.93894362449646,40.81268608570099 15.93894362449646,40.81268608570099 15.76051414012909,42.82549321651459 15.76051414012909,42.82549321651459 15.700174868106842,44.87015902996063 15.700174868106842,44.87015902996063 15.7075434923172,45.55918276309967 15.7075434923172,45.55918276309967 15.729548037052155,46.24452292919159 15.729548037052155,46.24452292919159 15.765492618083954,46.92617654800415 15.765492618083954,46.92617654800415 15.814580023288727,47.60414958000183 15.814580023288727,47.60414958000183 15.876512229442596,48.27853441238403 15.876512229442596,48.27853441238403 15.950293838977814,48.949337005615234 15.950293838977814,48.949337005615234 15.976779162883759,49.17297065258026 15.976779162883759,49.17297065258026 16.004261374473572,49.39640462398529 16.004261374473572,49.39640462398529 16.032937169075012,49.61974024772644 16.032937169075012,49.61974024772644 16.063007712364197,49.84237849712372 16.063007712364197,49.84237849712372 16.094869375228882,50.06452202796936 16.094869375228882,50.06452202796936 16.128723323345184,50.28596520423889 16.128723323345184,50.28596520423889 16.164468228816986,50.506412982940674 16.164468228816986,50.506412982940674 16.20180755853653,50.726258754730225 16.20180755853653,50.726258754730225 16.240639984607697,50.946009159088135 16.240639984607697,50.946009159088135 16.28066748380661,51.16516351699829 16.28066748380661,51.16516351699829 16.32208824157715,51.383817195892334 16.32208824157715,51.383817195892334 16.364504396915436,51.6018807888031 16.364504396915436,51.6018807888031 18.20654720067978,57.755690813064575 18.20654720067978,57.755690813064575 21.11259251832962,63.36386799812317 21.11259251832962,63.36386799812317 24.963755905628204,68.30790638923645 24.963755905628204,68.30790638923645 29.64085042476654,72.46893048286438 29.64085042476654,72.46893048286438 35.02508997917175,75.7285475730896 35.02508997917175,75.7285475730896 40.99729061126709,77.96797752380371 40.99729061126709,77.96797752380371 41.208675503730774,78.02433371543884 41.208675503730774,78.02433371543884 41.42085909843445,78.07929515838623 41.42085909843445,78.07929515838623 41.63393974304199,78.13296318054199 41.63393974304199,78.13296318054199 41.84751808643341,78.18523645401001 41.84751808643341,78.18523645401001 42.06179082393646,78.23641300201416 42.06179082393646,78.23641300201416 42.27656424045563,78.28660011291504 42.27656424045563,78.28660011291504 42.490240931510925,78.3349871635437 42.490240931510925,78.3349871635437 42.70451366901398,78.38248610496521 42.70451366901398,78.38248610496521 42.91958510875702,78.42888236045837 42.91958510875702,78.42888236045837 43.135154247283936,78.47388982772827 43.135154247283936,78.47388982772827 43.3515191078186,78.51759791374207 43.3515191078186,78.51759791374207 43.568581342697144,78.55981588363647 43.568581342697144,78.55981588363647 44.61565911769867,78.74222993850708 44.61565911769867,78.74222993850708 45.67338824272156,78.89377474784851 45.67338824272156,78.89377474784851 46.74127697944641,79.0134608745575 46.74127697944641,79.0134608745575 47.81852066516876,79.10018563270569 47.81852066516876,79.10018563270569 48.90492856502533,79.15295362472534 48.90492856502533,79.15295362472534 49.99999701976776,79.17078137397766 49.99999701976776,79.17078137397766 51.11050009727478,79.1524589061737 51.11050009727478,79.1524589061737 52.21184492111206,79.09849286079407 52.21184492111206,79.09849286079407 53.30372452735901,79.00967597961426 53.30372452735901,79.00967597961426 54.38565015792847,78.88700366020203 54.38565015792847,78.88700366020203 55.457621812820435,78.73137593269348 55.457621812820435,78.73137593269348 56.51903748512268,78.54388952255249 56.51903748512268,78.54388952255249 56.73510432243347,78.50106954574585 56.73510432243347,78.50106954574585 56.95067048072815,78.45686078071594 56.95067048072815,78.45686078071594 57.16584324836731,78.41125726699829 57.16584324836731,78.41125726699829 57.38021731376648,78.36416363716125 57.38021731376648,78.36416363716125 57.594192028045654,78.31597328186035 57.594192028045654,78.31597328186035 57.80786871910095,78.26668620109558 57.80786871910095,78.26668620109558 58.02273750305176,78.21620106697083 58.02273750305176,78.21620106697083 58.237212896347046,78.1643271446228 58.237212896347046,78.1643271446228 58.45128893852234,78.1112551689148 58.45128893852234,78.1112551689148 58.66456627845764,78.05679440498352 58.66456627845764,78.05679440498352 58.87714624404907,78.00073623657227 58.87714624404907,78.00073623657227 59.08873677253723,77.94328331947327 59.08873677253723,77.94328331947327 65.04490375518799,75.69310069084167 65.04490375518799,75.69310069084167 70.41311264038086,72.42751121520996 70.41311264038086,72.42751121520996 75.07527470588684,68.26439499855042 75.07527470588684,68.26439499855042 78.91289591789246,63.3217453956604 78.91289591789246,63.3217453956604 81.80798888206482,57.7176570892334 81.80798888206482,57.7176570892334 83.6418628692627,51.57001614570618 83.6418628692627,51.57001614570618 83.68358612060547,51.35215520858765 83.68358612060547,51.35215520858765 83.72470736503601,51.13369822502136 83.72470736503601,51.13369822502136 83.76493453979492,50.91474652290344 83.76493453979492,50.91474652290344 83.80366563796997,50.69509744644165 83.80366563796997,50.69509744644165 83.84080529212952,50.474947690963745 83.84080529212952,50.474947690963745 83.8760495185852,50.25410056114197 83.8760495185852,50.25410056114197 83.90990495681763,50.03305673599243 83.90990495681763,50.03305673599243 83.94166827201843,49.811214208602905 83.94166827201843,49.811214208602905 83.97184014320374,49.5890736579895 83.97184014320374,49.5890736579895 84.00041460990906,49.366334080696106 84.00041460990906,49.366334080696106 84.02799367904663,49.143198132514954 84.02799367904663,49.143198132514954 84.05448198318481,48.91986548900604 84.05448198318481,48.91986548900604 84.1262698173523,48.253342509269714 84.1262698173523,48.253342509269714 84.18670892715454,47.58363664150238 84.18670892715454,47.58363664150238 84.23510193824768,46.910545229911804 84.23510193824768,46.910545229911804 84.2705488204956,46.23386859893799 84.2705488204956,46.23386859893799 84.29245352745056,45.55380642414093 84.29245352745056,45.55380642414093 84.2998206615448,44.87015902996063 84.2998206615448,44.87015902996063 84.23988223075867,42.82808005809784 84.23988223075867,42.82808005809784 84.06254649162292,40.81786572933197 84.06254649162292,40.81786572933197 83.77130627632141,38.84249925613403 83.77130627632141,38.84249925613403 83.36924314498901,36.90526783466339 83.36924314498901,36.90526783466339 82.85984396934509,35.00945866107941 82.85984396934509,35.00945866107941 82.24629163742065,33.158355951309204 82.24629163742065,33.158355951309204 82.33461380004883,33.260712027549744 82.33461380004883,33.260712027549744 82.42233395576477,33.363667130470276 82.42233395576477,33.363667130470276 82.51075148582458,33.466124534606934 82.51075148582458,33.466124534606934 82.60126113891602,33.56679081916809 82.60126113891602,33.56679081916809 82.69535303115845,33.66476595401764 82.69535303115845,33.66476595401764 82.79432654380798,33.75895917415619 82.79432654380798,33.75895917415619 83.99235010147095,34.8359078168869 83.99235010147095,34.8359078168869 85.49306392669678,36.18687093257904 85.49306392669678,36.18687093257904 85.5679452419281,36.250895261764526 85.5679452419281,36.250895261764526 85.64570546150208,36.311134696006775 85.64570546150208,36.311134696006775 85.72565913200378,36.36878430843353 85.72565913200378,36.36878430843353 85.80641150474548,36.42524182796478 85.80641150474548,36.42524182796478 85.88756322860718,36.48209571838379 85.88756322860718,36.48209571838379 85.96781492233276,36.54054403305054 85.96781492233276,36.54054403305054 86.21574640274048,36.72245740890503 86.21574640274048,36.72245740890503 86.46934628486633,36.89431548118591 86.46934628486633,36.89431548118591 86.7291271686554,37.0551198720932 86.7291271686554,37.0551198720932 86.99488043785095,37.20397651195526 86.99488043785095,37.20397651195526 87.26739883422852,37.339890003204346 87.26739883422852,37.339890003204346 87.54659295082092,37.46216297149658 87.54659295082092,37.46216297149658 87.96558380126953,37.61748969554901 87.96558380126953,37.61748969554901 88.393634557724,37.747129797935486 88.393634557724,37.747129797935486 88.8298511505127,37.84988820552826 88.8298511505127,37.84988820552826 89.27273750305176,37.92456388473511 89.27273750305176,37.92456388473511 89.72159624099731,37.97006905078888 89.72159624099731,37.97006905078888 90.17524123191833,37.98550069332123 90.17524123191833,37.98550069332123 90.87770581245422,37.94945776462555 90.87770581245422,37.94945776462555 91.56762361526489,37.843117117881775 91.56762361526489,37.843117117881775 92.24031567573547,37.669166922569275 92.24031567573547,37.669166922569275 92.89080500602722,37.43000030517578 92.89080500602722,37.43000030517578 93.51471066474915,37.12840378284454 93.51471066474915,37.12840378284454" stroke="white" stroke-width="0.1" /><polygon points="37.55297064781189,6.015612185001373 37.55297064781189,6.015612185001373 34.61366891860962,2.7521107345819473 34.61366891860962,2.7521107345819473 37.08917200565338,1.9278714433312416 37.08917200565338,1.9278714433312416 39.609384536743164,1.2471124529838562 39.609384536743164,1.2471124529838562 42.16763377189636,0.7128206081688404 42.16763377189636,0.7128206081688404 44.75665092468262,0.3275350434705615 44.75665092468262,0.3275350434705615 47.369760274887085,0.09434243547730148 47.369760274887085,0.09434243547730148 49.99999701976776,0.01593117631273344 49.99999701976776,0.01593117631273344 52.684199810028076,0.09533813572488725 52.684199810028076,0.09533813572488725 55.32718300819397,0.33052212093025446 55.32718300819397,0.33052212093025446 57.92456269264221,0.7171020843088627 57.92456269264221,0.7171020843088627 60.471558570861816,1.2502986937761307 60.471558570861816,1.2502986937761307 62.96409368515015,1.925680972635746 62.96409368515015,1.925680972635746 65.39748311042786,2.7385693043470383 65.39748311042786,2.7385693043470383 62.44702339172363,6.015612185001373 62.44702339172363,6.015612185001373 62.10122108459473,6.42942488193512 62.10122108459473,6.42942488193512 61.79066300392151,6.864345818758011 61.79066300392151,6.864345818758011 61.51624917984009,7.318583130836487 61.51624917984009,7.318583130836487 61.277979612350464,7.790146023035049 61.277979612350464,7.790146023035049 61.07674837112427,8.277241885662079 61.07674837112427,8.277241885662079 60.912853479385376,8.778078109025955 60.912853479385376,8.778078109025955 60.41122078895569,8.993946015834808 60.41122078895569,8.993946015834808 59.92761254310608,9.248446673154831 59.92761254310608,9.248446673154831 59.464508295059204,9.540285915136337 59.464508295059204,9.540285915136337 59.023916721343994,9.868467599153519 59.023916721343994,9.868467599153519 58.608609437942505,10.231798142194748 58.608609437942505,10.231798142194748 58.22048783302307,10.629281401634216 58.22048783302307,10.629281401634216 57.52110481262207,11.40751913189888 57.52110481262207,11.40751913189888 56.30197525024414,11.157399415969849 56.30197525024414,11.157399415969849 55.068302154541016,10.949696600437164 55.068302154541016,10.949696600437164 53.82089018821716,10.785804688930511 53.82089018821716,10.785804688930511 52.5598406791687,10.667017847299576 52.5598406791687,10.667017847299576 51.2861430644989,10.594730079174042 51.2861430644989,10.594730079174042 49.99999701976776,10.570335388183594 49.99999701976776,10.570335388183594 48.715248703956604,10.596223920583725 48.715248703956604,10.596223920583725 47.44364023208618,10.672096163034439 47.44364023208618,10.672096163034439 46.185874938964844,10.795662552118301 46.185874938964844,10.795662552118301 44.94145214557648,10.964234173297882 44.94145214557648,10.964234173297882 43.711164593696594,11.175421625375748 43.711164593696594,11.175421625375748 42.494821548461914,11.426636576652527 42.494821548461914,11.426636576652527 41.77473187446594,10.626891255378723 41.77473187446594,10.626891255378723 41.38780236244202,10.229308903217316 41.38780236244202,10.229308903217316 40.972697734832764,9.865978360176086 40.972697734832764,9.865978360176086 40.532299876213074,9.537995606660843 40.532299876213074,9.537995606660843 40.068402886390686,9.246255457401276 40.068402886390686,9.246255457401276 39.58379626274109,8.992153406143188 39.58379626274109,8.992153406143188 39.08076882362366,8.776485174894333 39.08076882362366,8.776485174894333 38.92086148262024,8.283016830682755 38.92086148262024,8.283016830682755 38.723114132881165,7.799904048442841 38.723114132881165,7.799904048442841 38.48773241043091,7.329436391592026 38.48773241043091,7.329436391592026 38.21421265602112,6.873705238103867 38.21421265602112,6.873705238103867 37.90265917778015,6.435000896453857 37.90265917778015,6.435000896453857" stroke="white" stroke-width="0.1" /><polygon points="68.57097148895264,27.345865964889526 68.57097148895264,27.345865964889526 59.746694564819336,19.40018981695175 59.746694564819336,19.40018981695175 59.4753623008728,19.0945103764534 59.4753623008728,19.0945103764534 59.28518772125244,18.74920278787613 59.28518772125244,18.74920278787613 59.1757595539093,18.377408385276794 59.1757595539093,18.377408385276794 59.145987033843994,17.99207329750061 59.145987033843994,17.99207329750061 59.19547080993652,17.606140673160553 59.19547080993652,17.606140673160553 59.32292342185974,17.232753336429596 59.32292342185974,17.232753336429596 59.55004096031189,16.93912297487259 59.55004096031189,16.93912297487259 60.058945417404175,16.334833204746246 60.058945417404175,16.334833204746246 60.705751180648804,15.582184493541718 60.705751180648804,15.582184493541718 61.346083879470825,14.843475818634033 61.346083879470825,14.843475818634033 61.83596849441528,14.281204342842102 61.83596849441528,14.281204342842102 62.03122138977051,14.057670533657074 62.03122138977051,14.057670533657074 62.22767233848572,13.868686556816101 62.22767233848572,13.868686556816101 62.44354248046875,13.713756203651428 62.44354248046875,13.713756203651428 62.67504096031189,13.592977821826935 62.67504096031189,13.592977821826935 62.91828751564026,13.50645124912262 62.91828751564026,13.50645124912262 63.169705867767334,13.454475998878479 63.169705867767334,13.454475998878479 63.425201177597046,13.437150418758392 63.425201177597046,13.437150418758392 63.51093053817749,13.440635800361633 63.51093053817749,13.440635800361633 63.59615921974182,13.450294733047485 63.59615921974182,13.450294733047485 63.68109583854675,13.465328514575958 63.68109583854675,13.465328514575958 63.76553177833557,13.484148681163788 63.76553177833557,13.484148681163788 63.84966969490051,13.505655527114868 63.84966969490051,13.505655527114868 63.93340229988098,13.52875530719757 63.93340229988098,13.52875530719757 64.00320529937744,13.559821248054504 64.00320529937744,13.559821248054504 64.07260298728943,13.590887188911438 64.07260298728943,13.590887188911438 64.14190530776978,13.622251152992249 64.14190530776978,13.622251152992249 64.21100497245789,13.653714954853058 64.21100497245789,13.653714954853058 64.280104637146,13.685478270053864 64.280104637146,13.685478270053864 64.34921026229858,13.717539608478546 64.34921026229858,13.717539608478546 65.06611108779907,14.343038201332092 65.06611108779907,14.343038201332092 66.77274107933044,15.858092904090881 66.77274107933044,15.858092904090881 68.96964907646179,17.815038561820984 68.96964907646179,17.815038561820984 71.15709781646729,19.766607880592346 71.15709781646729,19.766607880592346 72.83594608306885,21.265631914138794 72.83594608306885,21.265631914138794 73.50645065307617,21.864743530750275 73.50645065307617,21.864743530750275 73.7800657749176,22.173011302947998 73.7800657749176,22.173011302947998 73.97054433822632,22.521108388900757 73.97054433822632,22.521108388900757 74.07917380332947,22.896088659763336 74.07917380332947,22.896088659763336 74.10635948181152,23.28431010246277 74.10635948181152,23.28431010246277 74.05328750610352,23.672732710838318 74.05328750610352,23.672732710838318 73.9206612110138,24.048110842704773 73.9206612110138,24.048110842704773 73.69384169578552,24.336466193199158 73.69384169578552,24.336466193199158 73.1860339641571,24.93637353181839 73.1860339641571,24.93637353181839 72.54102230072021,25.685736536979675 72.54102230072021,25.685736536979675 71.9022810459137,26.42185688018799 71.9022810459137,26.42185688018799 71.41358852386475,26.982635259628296 71.41358852386475,26.982635259628296 71.21873497962952,27.20566987991333 71.21873497962952,27.20566987991333 71.03960514068604,27.39574909210205 71.03960514068604,27.39574909210205 70.86107730865479,27.553167939186096 70.86107730865479,27.553167939186096 70.66691517829895,27.67673432826996 70.66691517829895,27.67673432826996 70.44029235839844,27.76445746421814 70.44029235839844,27.76445746421814 70.16518115997314,27.815136313438416 70.16518115997314,27.815136313438416 69.82475519180298,27.826985716819763 69.82475519180298,27.826985716819763 69.48223114013672,27.79751420021057 69.48223114013672,27.79751420021057 69.20533180236816,27.732792496681213 69.20533180236816,27.732792496681213 68.98518204689026,27.644076943397522 68.98518204689026,27.644076943397522 68.81203055381775,27.542415261268616 68.81203055381775,27.542415261268616 68.6772108078003,27.439260482788086 68.6772108078003,27.439260482788086" stroke="white" stroke-width="0.1" /><polygon points="99.51887726783752,23.41245710849762 99.51887726783752,23.41245710849762 96.54930233955383,26.70861780643463 96.54930233955383,26.70861780643463 94.62481737136841,28.844192624092102 94.62481737136841,28.844192624092102 92.65731573104858,31.02835714817047 92.65731573104858,31.02835714817047 91.5692150592804,32.23673701286316 91.5692150592804,32.23673701286316 91.3732647895813,32.42611885070801 91.3732647895813,32.42611885070801 91.15779399871826,32.58144557476044 91.15779399871826,32.58144557476044 90.926593542099,32.70292282104492 90.926593542099,32.70292282104492 90.68324565887451,32.78984725475311 90.68324565887451,32.78984725475311 90.43152928352356,32.84212052822113 90.43152928352356,32.84212052822113 90.17524123191833,32.859644293785095 90.17524123191833,32.859644293785095 89.95230197906494,32.846301794052124 89.95230197906494,32.846301794052124 89.73145484924316,32.80627429485321 89.73145484924316,32.80627429485321 89.51548933982849,32.73956477642059 89.51548933982849,32.73956477642059 89.30659294128418,32.64586925506592 89.30659294128418,32.64586925506592 89.1078531742096,32.524991035461426 89.1078531742096,32.524991035461426 88.921457529068,32.37693011760712 88.921457529068,32.37693011760712 86.22749447822571,29.95140850543976 86.22749447822571,29.95140850543976 85.90229749679565,29.568663239479065 85.90229749679565,29.568663239479065 85.69619059562683,29.128563404083252 85.69619059562683,29.128563404083252 85.61055660247803,28.656703233718872 85.61055660247803,28.656703233718872 85.64660549163818,28.178268671035767 85.64660549163818,28.178268671035767 85.80621480941772,27.718454599380493 85.80621480941772,27.718454599380493 86.090487241745,27.302849292755127 86.090487241745,27.302849292755127 89.45993185043335,23.560617864131927 89.45993185043335,23.560617864131927 91.26652479171753,21.55488133430481 91.26652479171753,21.55488133430481 93.0683434009552,19.553129374980927 93.0683434009552,19.553129374980927 94.03536319732666,18.477775156497955 94.03536319732666,18.477775156497955 94.23191547393799,18.28909069299698 94.23191547393799,18.28909069299698 94.44788098335266,18.134358525276184 94.44788098335266,18.134358525276184 94.6797788143158,18.01377981901169 94.6797788143158,18.01377981901169 94.92312669754028,17.927353084087372 94.92312669754028,17.927353084087372 95.174241065979,17.87537783384323 95.174241065979,17.87537783384323 95.4293429851532,17.858052253723145 95.4293429851532,17.858052253723145 95.65277695655823,17.871195077896118 95.65277695655823,17.871195077896118 95.87392210960388,17.911024391651154 95.87392210960388,17.911024391651154 96.09048366546631,17.97763556241989 96.09048366546631,17.97763556241989 96.29938006401062,18.07113140821457 96.29938006401062,18.07113140821457 96.49842381477356,18.191511929035187 96.49842381477356,18.191511929035187 96.68471813201904,18.3391734957695 96.68471813201904,18.3391734957695 99.38027262687683,20.76469510793686 99.38027262687683,20.76469510793686 99.70546960830688,21.148039400577545 99.70546960830688,21.148039400577545 99.91137981414795,21.58813774585724 99.91137981414795,21.58813774585724 99.99681115150452,22.05990105867386 99.99681115150452,22.05990105867386 99.96046423912048,22.53803461790085 99.96046423912048,22.53803461790085 99.80155229568481,22.99725115299225 99.80155229568481,22.99725115299225" stroke="white" stroke-width="0.1" /><polygon points="70.49067616462708,14.985661208629608 70.49067616462708,14.985661208629608 70.25798559188843,14.985661208629608 70.25798559188843,14.985661208629608 70.01015543937683,14.952006936073303 70.01015543937683,14.952006936073303 69.75864171981812,14.88688737154007 69.75864171981812,14.88688737154007 69.51369643211365,14.791898429393768 69.51369643211365,14.791898429393768 69.28687691688538,14.669129252433777 69.28687691688538,14.669129252433777 69.08873319625854,14.520470798015594 69.08873319625854,14.520470798015594 66.39477014541626,12.094152718782425 66.39477014541626,12.094152718782425 66.06848239898682,11.710410565137863 66.06848239898682,11.710410565137863 65.861976146698,11.269913613796234 65.861976146698,11.269913613796234 65.77644348144531,10.797952115535736 65.77644348144531,10.797952115535736 65.81268906593323,10.319718718528748 65.81268906593323,10.319718718528748 65.97229838371277,9.860502183437347 65.97229838371277,9.860502183437347 66.25617146492004,9.445594996213913 66.25617146492004,9.445594996213913 70.3377366065979,4.912378266453743 70.3377366065979,4.912378266453743 72.11247086524963,2.9416916891932487 72.11247086524963,2.9416916891932487 73.88242483139038,0.9765811264514923 73.88242483139038,0.9765811264514923 74.20423626899719,0.6205193232744932 74.20423626899719,0.6205193232744932 74.40009117126465,0.4314859863370657 74.40009117126465,0.4314859863370657 74.61535930633545,0.276555260643363 74.61535930633545,0.276555260643363 74.84666109085083,0.15582682099193335 74.84666109085083,0.15582682099193335 75.08971095085144,0.0693504058290273 75.08971095085144,0.0693504058290273 75.34112334251404,0.01737494021654129 75.34112334251404,0.01737494021654129 75.59661865234375,0.0 75.59661865234375,0.0 75.82005262374878,0.013242790009826422 75.82005262374878,0.013242790009826422 76.04119777679443,0.05312051507644355 76.04119777679443,0.05312051507644355 76.2575626373291,0.11988210026174784 76.2575626373291,0.11988210026174784 76.46626234054565,0.2133782021701336 76.46626234054565,0.2133782021701336 76.66470408439636,0.33375814091414213 76.66470408439636,0.33375814091414213 76.85040235519409,0.4811215214431286 76.85040235519409,0.4811215214431286 79.54595685005188,2.9066432267427444 79.54595685005188,2.9066432267427444 79.80513572692871,3.1934045255184174 79.80513572692871,3.1934045255184174 79.99352216720581,3.5169068723917007 79.99352216720581,3.5169068723917007 80.11131882667542,3.865998610854149 80.11131882667542,3.865998610854149 80.15811443328857,4.229229688644409 80.15811443328857,4.229229688644409 80.13441562652588,4.595547169446945 80.13441562652588,4.595547169446945 80.03982305526733,4.953799396753311 80.03982305526733,4.953799396753311 79.99700903892517,5.060140043497086 79.99700903892517,5.060140043497086 79.94831800460815,5.16468845307827 79.94831800460815,5.16468845307827 79.89325523376465,5.267046019434929 79.89325523376465,5.267046019434929 79.83112335205078,5.36651648581028 79.83112335205078,5.36651648581028 79.76182699203491,5.4628003388643265 79.76182699203491,5.4628003388643265 79.68456149101257,5.555201321840286 79.68456149101257,5.555201321840286 78.43236923217773,6.946789473295212 78.43236923217773,6.946789473295212 76.7102062702179,8.86012390255928 76.7102062702179,8.86012390255928 71.83685898780823,14.271944761276245 71.83685898780823,14.271944761276245 71.73808813095093,14.380276203155518 71.73808813095093,14.380276203155518 71.56095504760742,14.551736414432526 71.56095504760742,14.551736414432526 71.36778831481934,14.694319665431976 71.36778831481934,14.694319665431976 71.1615800857544,14.80872631072998 71.1615800857544,14.80872631072998 70.94471454620361,14.895053207874298 70.94471454620361,14.895053207874298 70.72018384933472,14.953897893428802 70.72018384933472,14.953897893428802" stroke="white" stroke-width="0.1" /><polygon points="85.9948992729187,14.052890241146088 85.9948992729187,14.052890241146088 87.39525079727173,12.497211247682571 87.39525079727173,12.497211247682571 87.45200634002686,12.437370419502258 87.45200634002686,12.437370419502258 87.51105070114136,12.381412088871002 87.51105070114136,12.381412088871002 87.57228255271912,12.328938394784927 87.57228255271912,12.328938394784927 87.63501048088074,12.279452383518219 87.63501048088074,12.279452383518219 87.69933581352234,12.232554703950882 87.69933581352234,12.232554703950882 87.76485323905945,12.188147008419037 87.76485323905945,12.188147008419037 87.92296648025513,12.095148116350174 87.92296648025513,12.095148116350174 88.08766007423401,12.018081545829773 88.08766007423401,12.018081545829773 88.25772404670715,11.957642436027527 88.25772404670715,11.957642436027527 88.4317696094513,11.913732439279556 88.4317696094513,11.913732439279556 88.60900402069092,11.887246370315552 88.60900402069092,11.887246370315552 88.78763318061829,11.878285557031631 88.78763318061829,11.878285557031631 89.01106715202332,11.891428381204605 89.01106715202332,11.891428381204605 89.23231363296509,11.931256204843521 89.23231363296509,11.931256204843521 89.44897651672363,11.997967958450317 89.44897651672363,11.997967958450317 89.65817093849182,12.091563642024994 89.65817093849182,12.091563642024994 89.85761404037476,12.212242931127548 89.85761404037476,12.212242931127548 90.04460573196411,12.360203266143799 90.04460573196411,12.360203266143799 92.73697137832642,14.785724878311157 92.73697137832642,14.785724878311157 93.06296706199646,15.168769657611847 93.06296706199646,15.168769657611847 93.26947331428528,15.608969330787659 93.26947331428528,15.608969330787659 93.35530400276184,16.08082950115204 93.35530400276184,16.08082950115204 93.31895709037781,16.558964550495148 93.31895709037781,16.558964550495148 93.15954446792603,17.01808124780655 93.15954446792603,17.01808124780655 92.87557601928711,17.432689666748047 92.87557601928711,17.432689666748047 92.21602082252502,18.165524303913116 92.21602082252502,18.165524303913116 90.43969511985779,20.13780325651169 90.43969511985779,20.13780325651169 88.64266276359558,22.134776413440704 88.64266276359558,22.134776413440704 84.92910265922546,26.25856101512909 84.92910265922546,26.25856101512909 84.74091291427612,26.451727747917175 84.74091291427612,26.451727747917175 84.54247117042542,26.616215705871582 84.54247117042542,26.616215705871582 84.32829976081848,26.74655318260193 84.32829976081848,26.74655318260193 84.09271836280823,26.837262511253357 84.09271836280823,26.837262511253357 83.83014798164368,26.883262395858765 83.83014798164368,26.883262395858765 83.53512287139893,26.87908113002777 83.53512287139893,26.87908113002777 83.22476744651794,26.82172954082489 83.22476744651794,26.82172954082489 82.93173313140869,26.726439595222473 82.93173313140869,26.726439595222473 82.67344832420349,26.614823937416077 82.67344832420349,26.614823937416077 82.46724009513855,26.508283615112305 82.46724009513855,26.508283615112305 82.33072757720947,26.428627967834473 82.33072757720947,26.428627967834473 82.28133916854858,26.397162675857544 82.28133916854858,26.397162675857544 79.58738207817078,23.972438275814056 79.58738207817078,23.972438275814056 79.29773330688477,23.640771210193634 79.29773330688477,23.640771210193634 79.10397052764893,23.264695703983307 79.10397052764893,23.264695703983307 79.00469899177551,22.860342264175415 79.00469899177551,22.860342264175415 78.99852395057678,22.443941235542297 78.99852395057678,22.443941235542297 79.08435463905334,22.031721472740173 79.08435463905334,22.031721472740173 79.26079034805298,21.6401144862175 79.26079034805298,21.6401144862175 79.29096221923828,21.58614695072174 79.29096221923828,21.58614695072174 79.31894063949585,21.53158336877823 79.31894063949585,21.53158336877823 79.34702038764954,21.477416157722473 79.34702038764954,21.477416157722473 79.37669157981873,21.424047648906708 79.37669157981873,21.424047648906708 79.41004633903503,21.372270584106445 79.41004633903503,21.372270584106445 79.44877743721008,21.323083341121674 79.44877743721008,21.323083341121674 84.26796197891235,15.972597897052765 84.26796197891235,15.972597897052765" stroke="white" stroke-width="0.1" /><polygon points="79.61286902427673,7.875577360391617 79.61286902427673,7.875577360391617 80.79974055290222,6.5580688416957855 80.79974055290222,6.5580688416957855 80.89991211891174,6.455312669277191 80.89991211891174,6.455312669277191 81.00585341453552,6.362314522266388 81.00585341453552,6.362314522266388 81.1173677444458,6.278874725103378 81.1173677444458,6.278874725103378 81.23326897621155,6.204595789313316 81.23326897621155,6.204595789313316 81.35334849357605,6.139477342367172 81.35334849357605,6.139477342367172 81.47681951522827,6.083319708704948 81.47681951522827,6.083319708704948 81.59182071685791,6.039907410740852 81.59182071685791,6.039907410740852 81.70881271362305,6.004062294960022 81.70881271362305,6.004062294960022 81.82770013809204,5.975983664393425 81.82770013809204,5.975983664393425 81.94777965545654,5.9556711465120316 81.94777965545654,5.9556711465120316 82.06886053085327,5.943324416875839 82.06886053085327,5.943324416875839 82.19053149223328,5.939142778515816 82.19053149223328,5.939142778515816 82.41387009620667,5.952285975217819 82.41387009620667,5.952285975217819 82.63521194458008,5.992113798856735 82.63521194458008,5.992113798856735 82.85167813301086,6.0588255524635315 82.85167813301086,6.0588255524635315 83.06057453155518,6.152421236038208 83.06057453155518,6.152421236038208 83.25961232185364,6.273099780082703 83.25961232185364,6.273099780082703 83.4459125995636,6.421060860157013 83.4459125995636,6.421060860157013 86.1398696899414,8.846582472324371 86.1398696899414,8.846582472324371 86.40144467353821,9.136131405830383 86.40144467353821,9.136131405830383 86.59072518348694,9.462422132492065 86.59072518348694,9.462422132492065 86.70801520347595,9.81450080871582 86.70801520347595,9.81450080871582 86.75302267074585,10.180619359016418 86.75302267074585,10.180619359016418 86.72614097595215,10.549525916576385 86.72614097595215,10.549525916576385 86.62736415863037,10.90966984629631 86.62736415863037,10.90966984629631 86.58435344696045,11.013222485780716 86.58435344696045,11.013222485780716 86.53655648231506,11.114982515573502 86.53655648231506,11.114982515573502 86.48318648338318,11.21465191245079 86.48318648338318,11.21465191245079 86.42324805259705,11.31153404712677 86.42324805259705,11.31153404712677 86.35643720626831,11.405129730701447 86.35643720626831,11.405129730701447 86.2816572189331,11.495140194892883 86.2816572189331,11.495140194892883 85.0023865699768,12.91620135307312 85.0023865699768,12.91620135307312 83.27704071998596,14.83033299446106 83.27704071998596,14.83033299446106 78.33359837532043,20.320215821266174 78.33359837532043,20.320215821266174 78.33170294761658,20.32240629196167 78.33170294761658,20.32240629196167 78.32951545715332,20.324496924877167 78.32951545715332,20.324496924877167 78.32722067832947,20.326589047908783 78.32722067832947,20.326589047908783 78.32483649253845,20.32857984304428 78.32483649253845,20.32857984304428 78.32274436950684,20.330770313739777 78.32274436950684,20.330770313739777 78.32084894180298,20.332960784435272 78.32084894180298,20.332960784435272 78.15068364143372,20.49565762281418 78.15068364143372,20.49565762281418 77.96558737754822,20.632268488407135 77.96558737754822,20.632268488407135 77.76803970336914,20.742890238761902 77.76803970336914,20.742890238761902 77.56023406982422,20.827822387218475 77.56023406982422,20.827822387218475 77.3448646068573,20.887266099452972 77.3448646068573,20.887266099452972 77.12441682815552,20.92161774635315 77.12441682815552,20.92161774635315 77.0934522151947,20.92520296573639 77.0934522151947,20.92520296573639 77.06258893013,20.929184556007385 77.06258893013,20.929184556007385 77.0320177078247,20.9331676363945 77.0320177078247,20.9331676363945 77.00135111808777,20.936553180217743 77.00135111808777,20.936553180217743 76.97058320045471,20.939043164253235 76.97058320045471,20.939043164253235 76.9396185874939,20.939938724040985 76.9396185874939,20.939938724040985 76.71598196029663,20.926696062088013 76.71598196029663,20.926696062088013 76.49474143981934,20.886768400669098 76.49474143981934,20.886768400669098 76.27847194671631,20.82035541534424 76.27847194671631,20.82035541534424 76.06947422027588,20.72695940732956 76.06947422027588,20.72695940732956 75.87063312530518,20.606479048728943 75.87063312530518,20.606479048728943 75.68424344062805,20.45881748199463 75.68424344062805,20.45881748199463 74.55631494522095,19.44161206483841 74.55631494522095,19.44161206483841 73.95889163017273,18.903137743473053 73.95889163017273,18.903137743473053 72.99187183380127,18.0324986577034 72.99187183380127,18.0324986577034 72.84420728683472,17.882148921489716 72.84420728683472,17.882148921489716 72.72074222564697,17.719052731990814 72.72074222564697,17.719052731990814 72.6196825504303,17.545004189014435 72.6196825504303,17.545004189014435 72.53902554512024,17.362095415592194 72.53902554512024,17.362095415592194 72.47729301452637,17.172613739967346 72.47729301452637,17.172613739967346 72.43268489837646,16.97865128517151 72.43268489837646,16.97865128517151 72.43229150772095,16.974668204784393 72.43229150772095,16.974668204784393 72.43168950080872,16.970686614513397 72.43168950080872,16.970686614513397 72.4308967590332,16.96670353412628 72.4308967590332,16.96670353412628 72.42980003356934,16.962720453739166 72.42980003356934,16.962720453739166 72.4289059638977,16.95873737335205 72.4289059638977,16.95873737335205 72.42791056632996,16.954754292964935 72.42791056632996,16.954754292964935 72.4027156829834,16.722656786441803 72.4027156829834,16.722656786441803 72.40709662437439,16.491256654262543 72.40709662437439,16.491256654262543 72.44105339050293,16.26264452934265 72.44105339050293,16.26264452934265 72.5043773651123,16.03851318359375 72.5043773651123,16.03851318359375 72.59717583656311,15.820853412151337 72.59717583656311,15.820853412151337 72.71944880485535,15.611755847930908 72.71944880485535,15.611755847930908 72.74224758148193,15.57392030954361 72.74224758148193,15.57392030954361 72.76256084442139,15.535087883472443 72.76256084442139,15.535087883472443 72.78217673301697,15.496155619621277 72.78217673301697,15.496155619621277 72.80259132385254,15.457622706890106 72.80259132385254,15.457622706890106 72.82578945159912,15.420183539390564 72.82578945159912,15.420183539390564 72.85327315330505,15.38473665714264 72.85327315330505,15.38473665714264 73.594069480896,14.561891555786133 73.594069480896,14.561891555786133 77.89389491081238,9.784132242202759 77.89389491081238,9.784132242202759" stroke="white" stroke-width="0.1" /><polygon points="7.122828811407089,17.432689666748047 7.122828811407089,17.432689666748047 6.838258355855942,17.017483711242676 6.838258355855942,17.017483711242676 6.678648293018341,16.558068990707397 6.678648293018341,16.558068990707397 6.642504036426544,16.080033779144287 6.642504036426544,16.080033779144287 6.728333234786987,15.608172118663788 6.728333234786987,15.608172118663788 6.9352395832538605,15.167774260044098 6.9352395832538605,15.167774260044098 7.261430472135544,14.784131944179535 7.261430472135544,14.784131944179535 9.953799098730087,12.359406799077988 9.953799098730087,12.359406799077988 10.140791535377502,12.211645394563675 10.140791535377502,12.211645394563675 10.340030491352081,12.09096685051918 10.340030491352081,12.09096685051918 10.549227148294449,11.997470259666443 10.549227148294449,11.997470259666443 10.765393078327179,11.930758506059647 10.765393078327179,11.930758506059647 10.986338555812836,11.890830844640732 10.986338555812836,11.890830844640732 11.209175735712051,11.87748908996582 11.209175735712051,11.87748908996582 11.38232797384262,11.886052042245865 11.38232797384262,11.886052042245865 11.554185301065445,11.91154196858406 11.554185301065445,11.91154196858406 11.723753064870834,11.953460425138474 11.723753064870834,11.953460425138474 11.889337748289108,12.01121136546135 11.889337748289108,12.01121136546135 12.050142884254456,12.084295600652695 12.050142884254456,12.084295600652695 12.20487430691719,12.172215431928635 12.20487430691719,12.172215431928635 12.275867909193039,12.21831664443016 12.275867909193039,12.21831664443016 12.345466762781143,12.267205119132996 12.345466762781143,12.267205119132996 12.413572520017624,12.319180369377136 12.413572520017624,12.319180369377136 12.47938871383667,12.374541163444519 12.47938871383667,12.374541163444519 12.542715668678284,12.433785200119019 12.542715668678284,12.433785200119019 12.60315328836441,12.497211247682571 12.60315328836441,12.497211247682571 13.987572491168976,14.034570753574371 13.987572491168976,14.034570753574371 15.71929156780243,15.958259999752045 15.71929156780243,15.958259999752045 20.549625158309937,21.323083341121674 20.549625158309937,21.323083341121674 20.58965116739273,21.373265981674194 20.58965116739273,21.373265981674194 20.62380462884903,21.425938606262207 20.62380462884903,21.425938606262207 20.65417319536209,21.480603516101837 20.65417319536209,21.480603516101837 20.682451128959656,21.536162495613098 20.682451128959656,21.536162495613098 20.71062922477722,21.59162312746048 20.71062922477722,21.59162312746048 20.740799605846405,21.646486222743988 20.740799605846405,21.646486222743988 20.915743708610535,22.037597000598907 20.915743708610535,22.037597000598907 21.000078320503235,22.448819875717163 21.000078320503235,22.448819875717163 20.992909371852875,22.863827645778656 20.992909371852875,22.863827645778656 20.89294195175171,23.266686499118805 20.89294195175171,23.266686499118805 20.699477195739746,23.641566932201385 20.699477195739746,23.641566932201385 20.411023497581482,23.972438275814056 20.411023497581482,23.972438275814056 17.717061936855316,26.397162675857544 17.717061936855316,26.397162675857544 17.66030639410019,26.44316554069519 17.66030639410019,26.44316554069519 17.60106235742569,26.483389735221863 17.60106235742569,26.483389735221863 17.54002571105957,26.519635319709778 17.54002571105957,26.519635319709778 17.477595806121826,26.553288102149963 17.477595806121826,26.553288102149963 17.414768040180206,26.586046814918518 17.414768040180206,26.586046814918518 17.352238297462463,26.619404554367065 17.352238297462463,26.619404554367065 17.210549116134644,26.692187786102295 17.210549116134644,26.692187786102295 17.066073417663574,26.75531506538391 17.066073417663574,26.75531506538391 16.919109225273132,26.807191967964172 16.919109225273132,26.807191967964172 16.7694553732872,26.84612274169922 16.7694553732872,26.84612274169922 16.617611050605774,26.870617270469666 16.617611050605774,26.870617270469666 16.463278234004974,26.87908113002777 16.463278234004974,26.87908113002777 16.207483410835266,26.861655712127686 16.207483410835266,26.861655712127686 15.955869853496552,26.809680461883545 15.955869853496552,26.809680461883545 15.712720155715942,26.72325372695923 15.712720155715942,26.72325372695923 15.481419861316681,26.602476835250854 15.481419861316681,26.602476835250854 15.26624858379364,26.44754648208618 15.26624858379364,26.44754648208618 15.070892870426178,26.25856101512909 15.070892870426178,26.25856101512909 11.34299784898758,22.119642794132233 11.34299784898758,22.119642794132233 9.54277515411377,20.121076703071594 9.54277515411377,20.121076703071594 7.760076224803925,18.14003437757492 7.760076224803925,18.14003437757492" stroke="white" stroke-width="0.1" /><polygon points="19.950611889362335,4.940257966518402 19.950611889362335,4.940257966518402 19.859208166599274,4.583797976374626 19.859208166599274,4.583797976374626 19.83809918165207,4.219770431518555 19.83809918165207,4.219770431518555 19.88728642463684,3.8592278957366943 19.88728642463684,3.8592278957366943 20.006172358989716,3.5128243267536163 20.006172358989716,3.5128243267536163 20.194758474826813,3.1916122883558273 20.194758474826813,3.1916122883558273 20.45244425535202,2.9066432267427444 20.45244425535202,2.9066432267427444 23.148000240325928,0.4811215214431286 23.148000240325928,0.4811215214431286 23.33359718322754,0.33370836172252893 23.33359718322754,0.33370836172252893 23.532040417194366,0.2133284229785204 23.532040417194366,0.2133284229785204 23.7408384680748,0.11988210026174784 23.7408384680748,0.11988210026174784 23.95700514316559,0.05322008510120213 23.95700514316559,0.05322008510120213 24.17834848165512,0.01329257502220571 24.17834848165512,0.01329257502220571 24.40178394317627,0.0 24.40178394317627,0.0 24.65737909078598,0.017325155204162 24.65737909078598,0.017325155204162 24.90849494934082,0.06925083580426872 24.90849494934082,0.06925083580426872 25.151744484901428,0.15582682099193335 25.151744484901428,0.15582682099193335 25.38294494152069,0.27660506311804056 25.38294494152069,0.27660506311804056 25.59841275215149,0.4315357655286789 25.59841275215149,0.4315357655286789 25.794169306755066,0.6205193232744932 25.794169306755066,0.6205193232744932 26.11757218837738,0.9789708070456982 26.11757218837738,0.9789708070456982 27.884337306022644,2.9408952221274376 27.884337306022644,2.9408952221274376 29.65429127216339,4.904412850737572 29.65429127216339,4.904412850737572 33.74382555484772,9.445594996213913 33.74382555484772,9.445594996213913 34.027400612831116,9.860402345657349 34.027400612831116,9.860402345657349 34.1864138841629,10.319618880748749 34.1864138841629,10.319618880748749 34.2223584651947,10.797753185033798 34.2223584651947,10.797753185033798 34.13642942905426,11.269515007734299 34.13642942905426,11.269515007734299 33.93022119998932,11.709514260292053 33.93022119998932,11.709514260292053 33.60522389411926,12.092559784650803 33.60522389411926,12.092559784650803 30.909669399261475,14.519675076007843 30.909669399261475,14.519675076007843 30.72267770767212,14.66703712940216 30.72267770767212,14.66703712940216 30.52363693714142,14.78731781244278 30.52363693714142,14.78731781244278 30.315038561820984,14.880913496017456 30.315038561820984,14.880913496017456 30.09917140007019,14.947625994682312 30.09917140007019,14.947625994682312 29.878723621368408,14.987453818321228 29.878723621368408,14.987453818321228 29.655885696411133,15.0007963180542 29.655885696411133,15.0007963180542 29.647919535636902,15.000396966934204 29.647919535636902,15.000396966934204 29.640254378318787,14.999401569366455 29.640254378318787,14.999401569366455 29.63278591632843,14.998306334018707 29.63278591632843,14.998306334018707 29.625219106674194,14.997012913227081 29.625219106674194,14.997012913227081 29.61764931678772,14.995917677879333 29.61764931678772,14.995917677879333 29.609686136245728,14.995220303535461 29.609686136245728,14.995220303535461 29.36205565929413,14.973314106464386 29.36205565929413,14.973314106464386 29.11880612373352,14.919248223304749 29.11880612373352,14.919248223304749 28.883621096611023,14.832821488380432 28.883621096611023,14.832821488380432 28.65968942642212,14.714035391807556 28.65968942642212,14.714035391807556 28.45079004764557,14.562888443470001 28.45079004764557,14.562888443470001 28.260314464569092,14.379480481147766 28.260314464569092,14.379480481147766 28.150388598442078,14.258402585983276 28.150388598442078,14.258402585983276 23.27704280614853,8.846582472324371 23.27704280614853,8.846582472324371 21.55647575855255,6.935637444257736 21.55647575855255,6.935637444257736 20.313844084739685,5.555201321840286 20.313844084739685,5.555201321840286 20.234884321689606,5.4609086364507675 20.234884321689606,5.4609086364507675 20.163990557193756,5.362732708454132 20.163990557193756,5.362732708454132 20.100565254688263,5.261171609163284 20.100565254688263,5.261171609163284 20.044109225273132,5.156523734331131 20.044109225273132,5.156523734331131 19.99422460794449,5.049386620521545 19.99422460794449,5.049386620521545" stroke="white" stroke-width="0.1" /><polygon points="27.5258868932724,17.131590843200684 27.5258868932724,17.131590843200684 27.477696537971497,17.297673225402832 27.477696537971497,17.297673225402832 27.41556465625763,17.45917499065399 27.41556465625763,17.45917499065399 27.33849585056305,17.614902555942535 27.33849585056305,17.614902555942535 27.24529802799225,17.763163149356842 27.24529802799225,17.763163149356842 27.134975790977478,17.902858555316925 27.134975790977478,17.902858555316925 27.00653076171875,18.0324986577034 27.00653076171875,18.0324986577034 24.314162135124207,20.45881748199463 24.314162135124207,20.45881748199463 24.127070605754852,20.606379210948944 24.127070605754852,20.606379210948944 23.927731812000275,20.72685956954956 23.927731812000275,20.72685956954956 23.718734085559845,20.82035541534424 23.718734085559845,20.82035541534424 23.502469062805176,20.886868238449097 23.502469062805176,20.886868238449097 23.2816219329834,20.926696062088013 23.2816219329834,20.926696062088013 23.058785498142242,20.939938724040985 23.058785498142242,20.939938724040985 22.825393080711365,20.90718001127243 22.825393080711365,20.90718001127243 22.579355537891388,20.84704041481018 22.579355537891388,20.84704041481018 22.331924736499786,20.76011598110199 22.331924736499786,20.76011598110199 22.094152867794037,20.646904408931732 22.094152867794037,20.646904408931732 21.87768816947937,20.508402585983276 21.87768816947937,20.508402585983276 21.693482995033264,20.3449085354805 21.693482995033264,20.3449085354805 21.6886043548584,20.34032940864563 21.6886043548584,20.34032940864563 21.68382555246353,20.336246490478516 21.68382555246353,20.336246490478516 21.67934477329254,20.332562923431396 21.67934477329254,20.332562923431396 21.674764156341553,20.32877951860428 21.674764156341553,20.32877951860428 21.67058289051056,20.324696600437164 21.67058289051056,20.324696600437164 21.666400134563446,20.320215821266174 21.666400134563446,20.320215821266174 13.716742396354675,11.493547260761261 13.716742396354675,11.493547260761261 13.640174269676208,11.401345580816269 13.640174269676208,11.401345580816269 13.571171462535858,11.305659264326096 13.571171462535858,11.305659264326096 13.509637117385864,11.20658740401268 13.509637117385864,11.20658740401268 13.454873859882355,11.104726791381836 13.454873859882355,11.104726791381836 13.406682014465332,11.000477522611618 13.406682014465332,11.000477522611618 13.36466372013092,10.894535481929779 13.36466372013092,10.894535481929779 13.268877565860748,10.536482185125351 13.268877565860748,10.536482185125351 13.244383037090302,10.170263797044754 13.244383037090302,10.170263797044754 13.2911816239357,9.806933999061584 13.2911816239357,9.806933999061584 13.408872485160828,9.457742422819138 13.408872485160828,9.457742422819138 13.597558438777924,9.133841097354889 13.597558438777924,9.133841097354889 13.856936991214752,8.846582472324371 13.856936991214752,8.846582472324371 16.55249297618866,6.421060860157013 16.55249297618866,6.421060860157013 16.73809140920639,6.272900849580765 16.73809140920639,6.272900849580765 16.9365331530571,6.152023002505302 16.9365331530571,6.152023002505302 17.14533120393753,6.058427318930626 17.14533120393753,6.058427318930626 17.36149787902832,5.991616100072861 17.36149787902832,5.991616100072861 17.582841217517853,5.951688438653946 17.582841217517853,5.951688438653946 17.806276679039,5.938345938920975 17.806276679039,5.938345938920975 17.92386770248413,5.94232901930809 17.92386770248413,5.94232901930809 18.04046481847763,5.954277142882347 18.04046481847763,5.954277142882347 18.156562745571136,5.973892658948898 18.156562745571136,5.973892658948898 18.27116757631302,6.00067675113678 18.27116757631302,6.00067675113678 18.384577333927155,6.034331396222115 18.384577333927155,6.034331396222115 18.49609613418579,6.074557825922966 18.49609613418579,6.074557825922966 18.624243140220642,6.130814552307129 18.624243140220642,6.130814552307129 18.748804926872253,6.196431070566177 18.748804926872253,6.196431070566177 18.86928379535675,6.271805614233017 18.86928379535675,6.271805614233017 18.984486162662506,6.356937438249588 18.984486162662506,6.356937438249588 19.094112515449524,6.452325731515884 19.094112515449524,6.452325731515884 19.197067618370056,6.5580688416957855 19.197067618370056,6.5580688416957855 19.792793691158295,7.224390655755997 19.792793691158295,7.224390655755997 21.283455193042755,8.892086148262024 21.283455193042755,8.892086148262024 23.223872482776642,11.063803732395172 23.223872482776642,11.063803732395172 25.16847252845764,13.242094218730927 25.16847252845764,13.242094218730927 26.672375202178955,14.929702877998352 26.672375202178955,14.929702877998352 27.29010581970215,15.629281103610992 27.29010581970215,15.629281103610992 27.41656005382538,15.860481560230255 27.41656005382538,15.860481560230255 27.50687003135681,16.106419265270233 27.50687003135681,16.106419265270233 27.562129497528076,16.361616551876068 27.562129497528076,16.361616551876068 27.583038806915283,16.620996594429016 27.583038806915283,16.620996594429016 27.5706946849823,16.879379749298096 27.5706946849823,16.879379749298096" stroke="white" stroke-width="0.1" /><polygon points="26.353353261947632,24.511708319187164 26.353353261947632,24.511708319187164 26.292017102241516,24.4368314743042 26.292017102241516,24.4368314743042 26.23785138130188,24.35857057571411 26.23785138130188,24.35857057571411 26.189661026000977,24.277818202972412 26.189661026000977,24.277818202972412 26.145848631858826,24.195076525211334 26.145848631858826,24.195076525211334 26.105323433876038,24.11103993654251 26.105323433876038,24.11103993654251 26.06659233570099,24.026603996753693 26.06659233570099,24.026603996753693 25.939738750457764,23.65381419658661 25.939738750457764,23.65381419658661 25.891050696372986,23.2688769698143 25.891050696372986,23.2688769698143 25.921618938446045,22.884736955165863 25.921618938446045,22.884736955165863 26.03164315223694,22.514137625694275 26.03164315223694,22.514137625694275 26.222118735313416,22.169825434684753 26.222118735313416,22.169825434684753 26.49354636669159,21.864743530750275 26.49354636669159,21.864743530750275 28.633102774620056,19.938664138317108 28.633102774620056,19.938664138317108 35.31782627105713,13.918273150920868 35.31782627105713,13.918273150920868 35.378265380859375,13.869084417819977 35.378265380859375,13.869084417819977 35.44149100780487,13.825871050357819 35.44149100780487,13.825871050357819 35.50680875778198,13.78713846206665 35.50680875778198,13.78713846206665 35.57312190532684,13.751193881034851 35.57312190532684,13.751193881034851 35.6400340795517,13.716544210910797 35.6400340795517,13.716544210910797 35.706546902656555,13.681694865226746 35.706546902656555,13.681694865226746 35.77007055282593,13.653615117073059 35.77007055282593,13.653615117073059 35.83439290523529,13.627129793167114 35.83439290523529,13.627129793167114 35.899513959884644,13.601739704608917 35.899513959884644,13.601739704608917 35.96463203430176,13.576249778270721 35.96463203430176,13.576249778270721 36.029550433158875,13.550062477588654 36.029550433158875,13.550062477588654 36.09367311000824,13.522382080554962 36.09367311000824,13.522382080554962 36.173030734062195,13.501672446727753 36.173030734062195,13.501672446727753 36.25209033489227,13.481558859348297 36.25209033489227,13.481558859348297 36.33144795894623,13.463835418224335 36.33144795894623,13.463835418224335 36.410802602767944,13.449497520923615 36.410802602767944,13.449497520923615 36.49085760116577,13.439840078353882 36.49085760116577,13.439840078353882 36.57160997390747,13.43635469675064 36.57160997390747,13.43635469675064 36.82710528373718,13.453680276870728 36.82710528373718,13.453680276870728 37.0784193277359,13.505655527114868 37.0784193277359,13.505655527114868 37.32176721096039,13.592280447483063 37.32176721096039,13.592280447483063 37.55316734313965,13.713158667087555 37.55316734313965,13.713158667087555 37.76903748512268,13.868388533592224 37.76903748512268,13.868388533592224 37.96558678150177,14.057670533657074 37.96558678150177,14.057670533657074 38.92464339733124,15.123465657234192 38.92464339733124,15.123465657234192 40.39031267166138,16.75163209438324 40.39031267166138,16.75163209438324 40.45035243034363,16.82411879301071 40.45035243034363,16.82411879301071 40.50282537937164,16.899792850017548 40.50282537937164,16.899792850017548 40.54942429065704,16.978353261947632 40.54942429065704,16.978353261947632 40.591442584991455,17.058706283569336 40.591442584991455,17.058706283569336 40.630874037742615,17.140352725982666 40.630874037742615,17.140352725982666 40.66910743713379,17.22239851951599 40.66910743713379,17.22239851951599 40.80004096031189,17.597179114818573 40.80004096031189,17.597179114818573 40.85181951522827,17.984506487846375 40.85181951522827,17.984506487846375 40.823641419410706,18.371734023094177 40.823641419410706,18.371734023094177 40.71471095085144,18.745219707489014 40.71471095085144,18.745219707489014 40.52433371543884,19.09192204475403 40.52433371543884,19.09192204475403 40.25171101093292,19.39859688282013 40.25171101093292,19.39859688282013 31.427431106567383,27.345067262649536 31.427431106567383,27.345067262649536 31.342798471450806,27.415961027145386 31.342798471450806,27.415961027145386 31.255176663398743,27.47998535633087 31.255176663398743,27.47998535633087 31.16496503353119,27.537935972213745 31.16496503353119,27.537935972213745 31.072166562080383,27.590009570121765 31.072166562080383,27.590009570121765 30.97747564315796,27.636808156967163 30.97747564315796,27.636808156967163 30.880993604660034,27.678826451301575 30.880993604660034,27.678826451301575 30.766087770462036,27.722138166427612 30.766087770462036,27.722138166427612 30.649691820144653,27.758482098579407 30.649691820144653,27.758482098579407 30.531901121139526,27.78785526752472 30.531901121139526,27.78785526752472 30.412814021110535,27.8092622756958 30.412814021110535,27.8092622756958 30.29293417930603,27.822506427764893 30.29293417930603,27.822506427764893 30.172055959701538,27.826985716819763 30.172055959701538,27.826985716819763 29.916957020759583,27.8094619512558 29.916957020759583,27.8094619512558 29.665842652320862,27.75728702545166 29.665842652320862,27.75728702545166 29.42289113998413,27.670761942863464 29.42289113998413,27.670761942863464 29.191690683364868,27.549782395362854 29.191690683364868,27.549782395362854 28.976619243621826,27.394655346870422 28.976619243621826,27.394655346870422 28.781265020370483,27.20566987991333 28.781265020370483,27.20566987991333 27.869999408721924,26.19563341140747 27.869999408721924,26.19563341140747 27.72662043571472,26.036322116851807 27.72662043571472,26.036322116851807 26.49514079093933,24.669426679611206 26.49514079093933,24.669426679611206" stroke="white" stroke-width="0.1" /><polygon points="5.367213487625122,28.839412331581116 5.367213487625122,28.839412331581116 3.437947854399681,26.695871353149414 3.437947854399681,26.695871353149414 0.4811215214431286,23.41245710849762 0.4811215214431286,23.41245710849762 0.19774571992456913,22.99725115299225 0.19774571992456913,22.99725115299225 0.03863310266751796,22.53783494234085 0.03863310266751796,22.53783494234085 0.0025888162781484425,22.05990105867386 0.0025888162781484425,22.05990105867386 0.08811932057142258,21.58813774585724 0.08811932057142258,21.58813774585724 0.2943284809589386,21.148039400577545 0.2943284809589386,21.148039400577545 0.6197227630764246,20.76469510793686 0.6197227630764246,20.76469510793686 3.3136848360300064,18.3391734957695 3.3136848360300064,18.3391734957695 3.4999798983335495,18.19111406803131 3.4999798983335495,18.19111406803131 3.6988209933042526,18.07013601064682 3.6988209933042526,18.07013601064682 3.9077185094356537,17.976540327072144 3.9077185094356537,17.976540327072144 4.123784974217415,17.909729480743408 4.123784974217415,17.909729480743408 4.344630986452103,17.869801819324493 4.344630986452103,17.869801819324493 4.567468538880348,17.856459319591522 4.567468538880348,17.856459319591522 4.823064059019089,17.87378489971161 4.823064059019089,17.87378489971161 5.074776709079742,17.925959825515747 5.074776709079742,17.925959825515747 5.318424105644226,18.01268458366394 5.318424105644226,18.01268458366394 5.550222843885422,18.133661150932312 5.550222843885422,18.133661150932312 5.766488611698151,18.288791179656982 5.766488611698151,18.288791179656982 5.963039398193359,18.477775156497955 5.963039398193359,18.477775156497955 6.91731721162796,19.536401331424713 6.91731721162796,19.536401331424713 8.715946972370148,21.535764634609222 8.715946972370148,21.535764634609222 10.52572876214981,23.545482754707336 10.52572876214981,23.545482754707336 13.909509778022766,27.302849292755127 13.909509778022766,27.302849292755127 14.19258713722229,27.718454599380493 14.19258713722229,27.718454599380493 14.3513023853302,28.17806899547577 14.3513023853302,28.17806899547577 14.387445151805878,28.656703233718872 14.387445151805878,28.656703233718872 14.301715791225433,29.128563404083252 14.301715791225433,29.128563404083252 14.095905423164368,29.568663239479065 14.095905423164368,29.568663239479065 13.770909607410431,29.95140850543976 13.770909607410431,29.95140850543976 11.076947301626205,32.37693011760712 11.076947301626205,32.37693011760712 10.890552401542664,32.52488970756531 10.890552401542664,32.52488970756531 10.691611468791962,32.64557123184204 10.691611468791962,32.64557123184204 10.482913255691528,32.7391654253006 10.482913255691528,32.7391654253006 10.266847163438797,32.805776596069336 10.266847163438797,32.805776596069336 10.046100616455078,32.84560441970825 10.046100616455078,32.84560441970825 9.823163598775864,32.858848571777344 9.823163598775864,32.858848571777344 9.567268937826157,32.84132480621338 9.567268937826157,32.84132480621338 9.315257519483566,32.78924822807312 9.315257519483566,32.78924822807312 9.071610122919083,32.702723145484924 9.071610122919083,32.702723145484924 8.839612454175949,32.58184492588043 8.839612454175949,32.58184492588043 8.623745292425156,32.42701292037964 8.623745292425156,32.42701292037964 8.427592366933823,32.23832845687866 8.427592366933823,32.23832845687866 7.336306571960449,31.025967001914978 7.336306571960449,31.025967001914978" stroke="white" stroke-width="0.1" /></svg>