<?xml version="1.0" encoding="utf-8" ?>
<svg baseProfile="full" height="52.986299991607666" version="1.1" width="57.47172236442566" xmlns="http://www.w3.org/2000/svg" xmlns:ev="http://www.w3.org/2001/xml-events" xmlns:xlink="http://www.w3.org/1999/xlink"><defs><clipPath /></defs><polygon points="49.99840557575226,52.986299991607666 49.99840557575226,52.986299991607666 48.01208674907684,52.71636247634888 48.01208674907684,52.71636247634888 46.22759521007538,51.96172595024109 46.22759521007538,51.96172595024109 44.71602439880371,50.79306960105896 44.71602439880371,50.79306960105896 43.54757368564606,49.281102418899536 43.54757368564606,49.281102418899536 42.79323220252991,47.49671220779419 42.79323220252991,47.49671220779419 42.523497343063354,45.51059305667877 42.523497343063354,45.51059305667877 42.79333055019379,43.524473905563354 42.79333055019379,43.524473905563354 43.54767203330994,41.73998236656189 43.54767203330994,41.73998236656189 44.71602439880371,40.228113532066345 44.71602439880371,40.228113532066345 46.22749388217926,39.059361815452576 46.22749388217926,39.059361815452576 48.011985421180725,38.30472230911255 48.011985421180725,38.30472230911255 49.99840557575226,38.03488910198212 49.99840557575226,38.03488910198212 51.98502540588379,38.30482065677643 51.98502540588379,38.30482065677643 53.769415616989136,39.059460163116455 53.769415616989136,39.059460163116455 55.28118014335632,40.228113532066345 55.28118014335632,40.228113532066345 56.44913911819458,41.73988103866577 56.44913911819458,41.73988103866577 57.202982902526855,43.524372577667236 57.202982902526855,43.524372577667236 57.47172236442566,45.51059305667877 57.47172236442566,45.51059305667877 57.203179597854614,47.49681055545807 57.203179597854614,47.49681055545807 56.44933581352234,49.281102418899536 56.44933581352234,49.281102418899536 55.28118014335632,50.79306960105896 55.28118014335632,50.79306960105896 53.76931428909302,51.96162462234497 53.76931428909302,51.96162462234497 51.98482275009155,52.71626114845276 51.98482275009155,52.71626114845276" stroke="white" stroke-width="0.1" /></svg>