<?xml version="1.0" encoding="utf-8" ?>
<svg baseProfile="full" height="90.63836932182312" version="1.1" width="99.99452233314514" xmlns="http://www.w3.org/2000/svg" xmlns:ev="http://www.w3.org/2001/xml-events" xmlns:xlink="http://www.w3.org/1999/xlink"><defs><clipPath /></defs><polygon points="98.58197569847107,79.26267385482788 98.58197569847107,79.26267385482788 99.36292171478271,80.93873262405396 99.36292171478271,80.93873262405396 99.85871315002441,82.7206015586853 99.85871315002441,82.7206015586853 99.99452233314514,84.51927304267883 99.99452233314514,84.51927304267883 99.69543814659119,86.24531030654907 99.69543814659119,86.24531030654907 98.88665080070496,87.80993819236755 98.88665080070496,87.80993819236755 97.49327898025513,89.12371397018433 97.49327898025513,89.12371397018433 96.59320116043091,89.64052200317383 96.59320116043091,89.64052200317383 95.64250111579895,90.02279043197632 95.64250111579895,90.02279043197632 94.6533739566803,90.28881788253784 94.6533739566803,90.28881788253784 93.63797903060913,90.45637249946594 93.63797903060913,90.45637249946594 92.60851740837097,90.54381847381592 92.60851740837097,90.54381847381592 91.57713055610657,90.56898951530457 91.57713055610657,90.56898951530457 13.411441445350647,90.56898951530457 13.411441445350647,90.56898951530457 11.369777470827103,90.6079351902008 11.369777470827103,90.6079351902008 9.194692224264145,90.63836932182312 9.194692224264145,90.63836932182312 6.99862614274025,90.53019285202026 6.99862614274025,90.53019285202026 4.893962666392326,90.1536226272583 4.893962666392326,90.1536226272583 2.9931334778666496,89.3790066242218 2.9931334778666496,89.3790066242218 1.408550888299942,88.07648420333862 1.408550888299942,88.07648420333862 0.2553757280111313,86.05339527130127 0.2553757280111313,86.05339527130127 0.013290310744196177,83.92205834388733 0.013290310744196177,83.92205834388733 0.4529811907559633,81.74718618392944 0.4529811907559633,81.74718618392944 1.3450979255139828,79.5928955078125 1.3450979255139828,79.5928955078125 2.460336498916149,77.52382755279541 2.460336498916149,77.52382755279541 3.569355607032776,75.60446858406067 3.569355607032776,75.60446858406067 24.322083592414856,38.83762061595917 24.322083592414856,38.83762061595917 42.917561531066895,5.899565294384956 42.917561531066895,5.899565294384956 43.34336817264557,5.146719142794609 43.34336817264557,5.146719142794609 43.77937614917755,4.401277005672455 43.77937614917755,4.401277005672455 44.239336252212524,3.6727163940668106 44.239336252212524,3.6727163940668106 44.73700225353241,2.9702920466661453 44.73700225353241,2.9702920466661453 45.28614282608032,2.3037033155560493 45.28614282608032,2.3037033155560493 45.90051472187042,1.6822053119540215 45.90051472187042,1.6822053119540215 47.86992371082306,0.4021892324090004 47.86992371082306,0.4021892324090004 49.858564138412476,0.0004442443696461851 49.858564138412476,0.0004442443696461851 51.788973808288574,0.3500645747408271 51.788973808288574,0.3500645747408271 53.583645820617676,1.3238482177257538 53.583645820617676,1.3238482177257538 55.165064334869385,2.7951857075095177 55.165064334869385,2.7951857075095177 56.455761194229126,4.636726528406143 56.455761194229126,4.636726528406143 57.268357276916504,6.076078489422798 57.268357276916504,6.076078489422798 58.080846071243286,7.515208423137665 58.080846071243286,7.515208423137665 58.89332890510559,8.954189717769623 58.89332890510559,8.954189717769623 59.705907106399536,10.392653197050095 59.705907106399536,10.392653197050095 60.51870584487915,11.83067187666893 60.51870584487915,11.83067187666893 61.33178472518921,13.26809823513031 61.33178472518921,13.26809823513031" stroke="white" stroke-width="0.1" /><polygon points="75.84495544433594,76.15178227424622 75.84495544433594,76.15178227424622 76.14845037460327,75.53753852844238 76.14845037460327,75.53753852844238 76.33947134017944,74.89116191864014 76.33947134017944,74.89116191864014 76.41758322715759,74.22701716423035 76.41758322715759,74.22701716423035 76.38223171234131,73.55894446372986 76.38223171234131,73.55894446372986 76.23299956321716,72.90146350860596 76.23299956321716,72.90146350860596 75.9693443775177,72.2684919834137 75.9693443775177,72.2684919834137 53.508347272872925,29.22772765159607 53.508347272872925,29.22772765159607 53.11267375946045,28.61540913581848 53.11267375946045,28.61540913581848 52.62143015861511,28.09438407421112 52.62143015861511,28.09438407421112 52.04944610595703,27.673760056495667 52.04944610595703,27.673760056495667 51.41151547431946,27.362194657325745 51.41151547431946,27.362194657325745 50.72243809700012,27.168801426887512 50.72243809700012,27.168801426887512 49.9970406293869,27.102461457252502 49.9970406293869,27.102461457252502 49.27156865596771,27.16895043849945 49.27156865596771,27.16895043849945 48.58234226703644,27.362269163131714 48.58234226703644,27.362269163131714 47.94433414936066,27.673760056495667 47.94433414936066,27.673760056495667 47.37244248390198,28.09430956840515 47.37244248390198,28.09430956840515 46.88166379928589,28.615260124206543 46.88166379928589,28.615260124206543 46.48691713809967,29.22772765159607 46.48691713809967,29.22772765159607 24.028290808200836,72.2684919834137 24.028290808200836,72.2684919834137 23.7640380859375,72.90154099464417 23.7640380859375,72.90154099464417 23.61432909965515,73.55917096138 23.61432909965515,73.55917096138 23.578715324401855,74.22731518745422 23.578715324401855,74.22731518745422 23.656827211380005,74.89190101623535 23.656827211380005,74.89190101623535 23.84827882051468,75.53879618644714 23.84827882051468,75.53879618644714 24.15267825126648,76.1541485786438 24.15267825126648,76.1541485786438 24.55664426088333,76.70745253562927 24.55664426088333,76.70745253562927 25.041258335113525,77.17553973197937 25.041258335113525,77.17553973197937 25.59410333633423,77.55174040794373 25.59410333633423,77.55174040794373 26.2028306722641,77.82887816429138 26.2028306722641,77.82887816429138 26.85505449771881,78.00028324127197 26.85505449771881,78.00028324127197 27.53841280937195,78.05907130241394 27.53841280937195,78.05907130241394 39.073365926742554,78.05907130241394 39.073365926742554,78.05907130241394 40.1250422000885,77.91750431060791 40.1250422000885,77.91750431060791 41.070374846458435,77.51812934875488 41.070374846458435,77.51812934875488 41.87151491641998,76.89899802207947 41.87151491641998,76.89899802207947 42.49058663845062,76.09780430793762 42.49058663845062,76.09780430793762 42.88979470729828,75.15304684638977 42.88979470729828,75.15304684638977 43.03128719329834,74.1023302078247 43.03128719329834,74.1023302078247 42.88981556892395,73.04895520210266 42.88981556892395,73.04895520210266 42.490604519844055,72.10293412208557 42.490604519844055,72.10293412208557 41.87151491641998,71.30181789398193 41.87151491641998,71.30181789398193 41.070374846458435,70.68305611610413 41.070374846458435,70.68305611610413 40.1250422000885,70.28442025184631 40.1250422000885,70.28442025184631 39.073365926742554,70.14322876930237 39.073365926742554,70.14322876930237 34.07058119773865,70.14085650444031 34.07058119773865,70.14085650444031 37.39234507083893,63.77453804016113 37.39234507083893,63.77453804016113 62.60291934013367,63.77453804016113 62.60291934013367,63.77453804016113 65.92468023300171,70.14085650444031 65.92468023300171,70.14085650444031 60.926634073257446,70.14085650444031 60.926634073257446,70.14085650444031 59.87396240234375,70.2822744846344 59.87396240234375,70.2822744846344 58.92794132232666,70.68142890930176 58.92794132232666,70.68142890930176 58.12641382217407,71.3006317615509 58.12641382217407,71.3006317615509 57.50710368156433,72.10212349891663 57.50710368156433,72.10212349891663 57.1078360080719,73.04865717887878 57.1078360080719,73.04865717887878 56.96634650230408,74.1023302078247 56.96634650230408,74.1023302078247 57.1078360080719,75.15415549278259 57.1078360080719,75.15415549278259 57.50710368156433,76.09965205192566 57.50710368156433,76.09965205192566 58.12641382217407,76.90107226371765 58.12641382217407,76.90107226371765 58.92794132232666,77.5202751159668 58.92794132232666,77.5202751159668 59.87394452095032,77.91979908943176 59.87394452095032,77.91979908943176 60.926634073257446,78.06143760681152 60.926634073257446,78.06143760681152 60.926634073257446,78.05907130241394 60.926634073257446,78.05907130241394 72.45803475379944,78.05907130241394 72.45803475379944,78.05907130241394 73.14181923866272,78.00042629241943 73.14181923866272,78.00042629241943 73.79419207572937,77.82880067825317 73.79419207572937,77.82880067825317 74.40294027328491,77.55144834518433 74.40294027328491,77.55144834518433 74.95579719543457,77.17480063438416 74.95579719543457,77.17480063438416 75.44054388999939,76.70597434043884 75.44054388999939,76.70597434043884" stroke="white" stroke-width="0.1" /></svg>