<?xml version="1.0" encoding="utf-8" ?>
<svg baseProfile="full" height="81.0305655002594" version="1.1" width="100.0" xmlns="http://www.w3.org/2000/svg" xmlns:ev="http://www.w3.org/2001/xml-events" xmlns:xlink="http://www.w3.org/1999/xlink"><defs><clipPath /></defs><polygon points="32.62229263782501,56.67381286621094 32.62229263782501,56.67381286621094 33.46424698829651,56.679487228393555 33.46424698829651,56.679487228393555 34.30664539337158,56.69683218002319 34.30664539337158,56.69683218002319 35.14949083328247,56.725966930389404 35.14949083328247,56.725966930389404 35.99144518375397,56.766992807388306 35.99144518375397,56.766992807388306 36.8322879076004,56.82014226913452 36.8322879076004,56.82014226913452 37.67135143280029,56.885528564453125 37.67135143280029,56.885528564453125 37.628984451293945,57.011228799819946 37.628984451293945,57.011228799819946 37.58973479270935,57.137709856033325 37.58973479270935,57.137709856033325 37.5534862279892,57.264918088912964 37.5534862279892,57.264918088912964 37.52046227455139,57.39256739616394 37.52046227455139,57.39256739616394 37.49099373817444,57.5208842754364 37.49099373817444,57.5208842754364 37.46497631072998,57.64964818954468 37.46497631072998,57.64964818954468 37.42872774600983,57.83211588859558 37.42872774600983,57.83211588859558 37.398260831832886,58.01563858985901 37.398260831832886,58.01563858985901 37.37335205078125,58.20038318634033 37.37335205078125,58.20038318634033 37.35378384590149,58.386021852493286 37.35378384590149,58.386021852493286 37.33932673931122,58.572548627853394 37.33932673931122,58.572548627853394 37.329766154289246,58.75979661941528 37.329766154289246,58.75979661941528 36.48669719696045,58.699530363082886 36.48669719696045,58.699530363082886 35.6438547372818,58.64838361740112 35.6438547372818,58.64838361740112 34.80123281478882,58.607351779937744 34.80123281478882,58.607351779937744 33.95816683769226,58.57699513435364 33.95816683769226,58.57699513435364 33.11465382575989,58.55809450149536 33.11465382575989,58.55809450149536 32.27003216743469,58.551645278930664 32.27003216743469,58.551645278930664 31.653133034706116,58.554089069366455 31.653133034706116,58.554089069366455 31.03545308113098,58.56165289878845 31.03545308113098,58.56165289878845 30.417552590370178,58.57410430908203 30.417552590370178,58.57410430908203 29.799097776412964,58.59100818634033 29.799097776412964,58.59100818634033 29.18086349964142,58.612412214279175 29.18086349964142,58.612412214279175 28.562405705451965,58.63792896270752 28.562405705451965,58.63792896270752 27.966299653053284,58.665841817855835 27.966299653053284,58.665841817855835 27.370303869247437,58.69636535644531 27.370303869247437,58.69636535644531 26.77486538887024,58.73110890388489 26.77486538887024,58.73110890388489 26.179426908493042,58.77125263214111 26.179426908493042,58.77125263214111 25.584542751312256,58.818286657333374 25.584542751312256,58.818286657333374 24.98999387025833,58.87365937232971 24.98999387025833,58.87365937232971 24.74203258752823,58.88711214065552 24.74203258752823,58.88711214065552 24.404339492321014,58.90384912490845 24.404339492321014,58.90384912490845 24.027951061725616,58.93715023994446 24.027951061725616,58.93715023994446 23.66356998682022,59.000253677368164 23.66356998682022,59.000253677368164 23.36234748363495,59.10661220550537 23.36234748363495,59.10661220550537 23.175321519374847,59.269505739212036 23.175321519374847,59.269505739212036 22.736330330371857,60.0428581237793 22.736330330371857,60.0428581237793 22.304345667362213,60.82048416137695 22.304345667362213,60.82048416137695 21.87725305557251,61.60122752189636 21.87725305557251,61.60122752189636 21.452827751636505,62.38352656364441 21.452827751636505,62.38352656364441 21.029405295848846,63.1660521030426 21.029405295848846,63.1660521030426 20.604535937309265,63.94762396812439 20.604535937309265,63.94762396812439 22.405976057052612,63.56973648071289 22.405976057052612,63.56973648071289 24.21853542327881,63.27529549598694 24.21853542327881,63.27529549598694 26.040545105934143,63.057637214660645 26.040545105934143,63.057637214660645 27.86945104598999,62.91019320487976 27.86945104598999,62.91019320487976 29.703694581985474,62.826573848724365 29.703694581985474,62.826573848724365 31.540605425834656,62.80011534690857 31.540605425834656,62.80011534690857 32.46539831161499,62.80650496482849 32.46539831161499,62.80650496482849 33.39108228683472,62.82496452331543 33.39108228683472,62.82496452331543 34.317320585250854,62.85470724105835 34.317320585250854,62.85470724105835 35.243114829063416,62.89429068565369 35.243114829063416,62.89429068565369 36.168017983436584,62.94293999671936 36.168017983436584,62.94293999671936 37.091365456581116,62.9993736743927 37.091365456581116,62.9993736743927 37.21601366996765,63.008713722229004 37.21601366996765,63.008713722229004 37.34077215194702,63.01954984664917 37.34077215194702,63.01954984664917 37.465864419937134,63.03150653839111 37.465864419937134,63.03150653839111 37.59084641933441,63.04373741149902 37.59084641933441,63.04373741149902 37.715715169906616,63.055747747421265 37.715715169906616,63.055747747421265 37.84036338329315,63.06697726249695 37.84036338329315,63.06697726249695 37.83769607543945,63.1122887134552 37.83769607543945,63.1122887134552 37.83402442932129,63.15776705741882 37.83402442932129,63.15776705741882 37.830135226249695,63.20318579673767 37.830135226249695,63.20318579673767 37.826353311538696,63.24833035469055 37.826353311538696,63.24833035469055 37.823686003685,63.29308748245239 37.823686003685,63.29308748245239 37.8225713968277,63.33739757537842 37.8225713968277,63.33739757537842 37.82246112823486,63.36764097213745 37.82246112823486,63.36764097213745 37.82268464565277,63.402169942855835 37.82268464565277,63.402169942855835 37.82346248626709,63.44080567359924 37.82346248626709,63.44080567359924 37.824684381484985,63.48305940628052 37.824684381484985,63.48305940628052 37.82679736614227,63.52876424789429 37.82679736614227,63.52876424789429 37.82968819141388,63.577574491500854 37.82968819141388,63.577574491500854 37.8617137670517,64.83628153800964 37.8617137670517,64.83628153800964 37.796664237976074,65.02280831336975 37.796664237976074,65.02280831336975 37.728169560432434,65.25219678878784 37.728169560432434,65.25219678878784 37.66178786754608,65.52712321281433 37.66178786754608,65.52712321281433 37.60240972042084,65.84980487823486 37.60240972042084,65.84980487823486 37.55593299865723,66.2226915359497 37.55593299865723,66.2226915359497 37.52724230289459,66.64828658103943 37.52724230289459,66.64828658103943 37.52724230289459,66.6642963886261 37.52724230289459,66.6642963886261 35.94919145107269,66.6642963886261 35.94919145107269,66.6642963886261 26.185542345046997,66.6642963886261 26.185542345046997,66.6642963886261 25.698071718215942,66.73834919929504 25.698071718215942,66.73834919929504 25.32813251018524,66.94161295890808 25.32813251018524,66.94161295890808 25.050705671310425,67.24539399147034 25.050705671310425,67.24539399147034 24.840883910655975,67.62067079544067 24.840883910655975,67.62067079544067 24.674205482006073,68.0387556552887 24.674205482006073,68.0387556552887 24.525651335716248,68.47096085548401 24.525651335716248,68.47096085548401 24.466830492019653,68.83256435394287 24.466830492019653,68.83256435394287 24.556784331798553,69.08186078071594 24.556784331798553,69.08186078071594 24.757377803325653,69.23964023590088 24.757377803325653,69.23964023590088 25.029799342155457,69.3265974521637 25.029799342155457,69.3265974521637 25.336137413978577,69.3635106086731 25.336137413978577,69.3635106086731 25.637581944465637,69.37118172645569 25.637581944465637,69.37118172645569 37.47742772102356,69.37118172645569 37.47742772102356,69.37118172645569 37.45307922363281,70.43635845184326 37.45307922363281,70.43635845184326 37.41449415683746,71.80197834968567 37.41449415683746,71.80197834968567 37.369126081466675,73.29018712043762 37.369126081466675,73.29018712043762 37.32309341430664,74.72296357154846 37.32309341430664,74.72296357154846 37.283506989479065,75.92245936393738 37.283506989479065,75.92245936393738 37.25682199001312,76.71082019805908 37.25682199001312,76.71082019805908 24.009715020656586,76.71082019805908 24.009715020656586,76.71082019805908 23.931100964546204,76.7586350440979 23.931100964546204,76.7586350440979 23.89218360185623,76.88172459602356 23.89218360185623,76.88172459602356 23.88206571340561,77.04962491989136 23.88206571340561,77.04962491989136 23.888513445854187,77.23120450973511 23.888513445854187,77.23120450973511 23.900634050369263,77.39599347114563 23.900634050369263,77.39599347114563 23.90652745962143,77.513188123703 23.90652745962143,77.513188123703 23.88150840997696,77.83676385879517 23.88150840997696,77.83676385879517 23.816683888435364,78.14593315124512 23.816683888435364,78.14593315124512 23.708604276180267,78.43598127365112 23.708604276180267,78.43598127365112 23.55315536260605,78.70145440101624 23.55315536260605,78.70145440101624 23.34711402654648,78.93763184547424 23.34711402654648,78.93763184547424 23.086366057395935,79.13928031921387 23.086366057395935,79.13928031921387 22.873876988887787,79.24869060516357 22.873876988887787,79.24869060516357 22.642706334590912,79.32986617088318 22.642706334590912,79.32986617088318 22.39696979522705,79.38646078109741 22.39696979522705,79.38646078109741 22.139668464660645,79.42215204238892 22.139668464660645,79.42215204238892 21.87502831220627,79.44083213806152 21.87502831220627,79.44083213806152 21.606163680553436,79.4461727142334 21.606163680553436,79.4461727142334 21.376772224903107,79.44311499595642 21.376772224903107,79.44311499595642 21.14882618188858,79.43549752235413 21.14882618188858,79.43549752235413 20.925216376781464,79.425710439682 20.925216376781464,79.425710439682 20.707611739635468,79.41581606864929 20.707611739635468,79.41581606864929 20.49867957830429,79.40825819969177 20.49867957830429,79.40825819969177 20.300310850143433,79.40525412559509 20.300310850143433,79.40525412559509 20.024996995925903,79.40797805786133 20.024996995925903,79.40797805786133 19.746458530426025,79.41486835479736 19.746458530426025,79.41486835479736 19.465473294258118,79.4239342212677 19.465473294258118,79.4239342212677 19.18282061815262,79.43294048309326 19.18282061815262,79.43294048309326 18.89994442462921,79.43983674049377 18.89994442462921,79.43983674049377 18.617291748523712,79.44261431694031 18.617291748523712,79.44261431694031 18.456172943115234,79.44139242172241 18.456172943115234,79.44139242172241 18.2953879237175,79.43777441978455 18.2953879237175,79.43777441978455 18.135158717632294,79.43149209022522 18.135158717632294,79.43149209022522 17.975373566150665,79.42221164703369 17.975373566150665,79.42221164703369 17.81647801399231,79.40970063209534 17.81647801399231,79.40970063209534 17.658361792564392,79.39369082450867 17.658361792564392,79.39369082450867 16.818520426750183,79.05282378196716 16.818520426750183,79.05282378196716 16.34061187505722,78.36231589317322 16.34061187505722,78.36231589317322 16.132569313049316,77.44780778884888 16.132569313049316,77.44780778884888 16.101880371570587,76.43483877182007 16.101880371570587,76.43483877182007 16.15636497735977,75.44900178909302 16.15636497735977,75.44900178909302 16.203954815864563,74.61594343185425 16.203954815864563,74.61594343185425 16.22130125761032,73.63466024398804 16.22130125761032,73.63466024398804 16.239315271377563,72.65326976776123 16.239315271377563,72.65326976776123 16.25743955373764,71.67177200317383 16.25743955373764,71.67177200317383 16.275563836097717,70.69010138511658 16.275563836097717,70.69010138511658 16.293799877166748,69.70826387405396 16.293799877166748,69.70826387405396 16.311590373516083,68.72626543045044 16.311590373516083,68.72626543045044 16.333940625190735,68.54184865951538 16.333940625190735,68.54184865951538 16.383865475654602,68.35804581642151 16.383865475654602,68.35804581642151 16.44691228866577,68.17663311958313 16.44691228866577,68.17663311958313 16.508401930332184,67.99905896186829 16.508401930332184,67.99905896186829 16.55421406030655,67.82715320587158 16.55421406030655,67.82715320587158 16.569559276103973,67.66236424446106 16.569559276103973,67.66236424446106 16.56455546617508,67.42408275604248 16.56455546617508,67.42408275604248 16.559328138828278,67.18590259552002 16.559328138828278,67.18590259552002 16.554102301597595,66.9479489326477 16.554102301597595,66.9479489326477 16.548432409763336,66.70982837677002 16.548432409763336,66.70982837677002 16.542761027812958,66.47154092788696 16.542761027812958,66.47154092788696 16.536645591259003,66.23286604881287 16.536645591259003,66.23286604881287 16.615259647369385,65.91085195541382 16.615259647369385,65.91085195541382 16.832752525806427,65.67267775535583 16.832752525806427,65.67267775535583 17.134642601013184,65.48309326171875 17.134642601013184,65.48309326171875 17.465774714946747,65.30618667602539 17.465774714946747,65.30618667602539 17.772001028060913,65.10664820671082 17.772001028060913,65.10664820671082 17.998167872428894,64.84873294830322 17.998167872428894,64.84873294830322 17.971481382846832,64.84873294830322 17.971481382846832,64.84873294830322 17.416849732398987,64.76083993911743 17.416849732398987,64.76083993911743 16.936495900154114,64.51759934425354 16.936495900154114,64.51759934425354 16.552546620368958,64.14977312088013 16.552546620368958,64.14977312088013 16.28623902797699,63.68765830993652 16.28623902797699,63.68765830993652 16.159923374652863,63.162100315093994 16.159923374652863,63.162100315093994 16.195060312747955,62.6035213470459 16.195060312747955,62.6035213470459 16.385310888290405,62.090981006622314 16.385310888290405,62.090981006622314 16.6841983795166,61.71342134475708 16.6841983795166,61.71342134475708 17.06981658935547,61.45222783088684 17.06981658935547,61.45222783088684 17.519593238830566,61.28866672515869 17.519593238830566,61.28866672515869 18.01140010356903,61.20426654815674 18.01140010356903,61.20426654815674 18.523000180721283,61.18025183677673 18.523000180721283,61.18025183677673 18.564696609973907,61.18008494377136 18.564696609973907,61.18008494377136 18.606506288051605,61.17969751358032 18.606506288051605,61.17969751358032 18.648426234722137,61.17936372756958 18.648426234722137,61.17936372756958 18.690234422683716,61.17897033691406 18.690234422683716,61.17897033691406 18.732042610645294,61.17858290672302 18.732042610645294,61.17858290672302 18.773852288722992,61.17846965789795 18.773852288722992,61.17846965789795 18.964992463588715,61.18035912513733 18.964992463588715,61.18035912513733 19.154243171215057,61.189091205596924 19.154243171215057,61.189091205596924 19.34182643890381,61.209046840667725 19.34182643890381,61.209046840667725 19.527074694633484,61.24424338340759 19.527074694633484,61.24424338340759 19.710320234298706,61.299002170562744 19.710320234298706,61.299002170562744 19.891120493412018,61.37772798538208 19.891120493412018,61.37772798538208 20.06191313266754,61.064612865448 20.06191313266754,61.064612865448 20.233149826526642,60.75171232223511 20.233149826526642,60.75171232223511 20.40483206510544,60.43914556503296 20.40483206510544,60.43914556503296 20.57662606239319,60.12669801712036 20.57662606239319,60.12669801712036 20.748864114284515,59.81451869010925 20.748864114284515,59.81451869010925 20.921213924884796,59.50256586074829 20.921213924884796,59.50256586074829 21.072658896446228,59.21313166618347 21.072658896446228,59.21313166618347 21.225661039352417,58.90929698944092 21.225661039352417,58.90929698944092 21.387557685375214,58.603352308273315 21.387557685375214,58.603352308273315 21.564799547195435,58.3075225353241 21.564799547195435,58.3075225353241 21.76472544670105,58.034151792526245 21.76472544670105,58.034151792526245 21.994005143642426,57.795530557632446 21.994005143642426,57.795530557632446 22.342485189437866,57.55174160003662 22.342485189437866,57.55174160003662 22.73721992969513,57.37455487251282 22.73721992969513,57.37455487251282 23.161977529525757,57.25046396255493 23.161977529525757,57.25046396255493 23.600079119205475,57.16550946235657 23.600079119205475,57.16550946235657 24.03595596551895,57.1062445640564 24.03595596551895,57.1062445640564 24.452708661556244,57.05899000167847 24.452708661556244,57.05899000167847 25.457003712654114,56.957244873046875 25.457003712654114,56.957244873046875 26.464414596557617,56.8792462348938 26.464414596557617,56.8792462348938 27.473825216293335,56.82014226913452 27.473825216293335,56.82014226913452 28.483903408050537,56.77494406700134 28.483903408050537,56.77494406700134 29.493537545204163,56.738752126693726 29.493537545204163,56.738752126693726 30.50161600112915,56.70672655105591 30.50161600112915,56.70672655105591 30.85387647151947,56.69683218002319 30.85387647151947,56.69683218002319 31.20635747909546,56.688547134399414 31.20635747909546,56.688547134399414 31.559285521507263,56.68226480484009 31.559285521507263,56.68226480484009 31.91276788711548,56.677597761154175 31.91276788711548,56.677597761154175 32.267141342163086,56.674814224243164 32.267141342163086,56.674814224243164" stroke="white" stroke-width="0.1" /><polygon points="20.8447128534317,70.58007717132568 20.8447128534317,70.58007717132568 22.091521322727203,70.23648619651794 22.091521322727203,70.23648619651794 22.839517891407013,69.37757730484009 22.839517891407013,69.37757730484009 23.089034855365753,68.26103329658508 23.089034855365753,68.26103329658508 22.839629650115967,67.1444296836853 22.839629650115967,67.1444296836853 22.091633081436157,66.28557443618774 22.091633081436157,66.28557443618774 20.8447128534317,65.94198346138 20.8447128534317,65.94198346138 19.597792625427246,66.28551483154297 19.597792625427246,66.28551483154297 18.849685788154602,67.144376039505 18.849685788154602,67.144376039505 18.60039085149765,68.26103329658508 18.60039085149765,68.26103329658508 18.849685788154602,69.37763094902039 18.849685788154602,69.37763094902039 19.598014652729034,70.23654580116272 19.598014652729034,70.23654580116272" stroke="white" stroke-width="0.1" /><polygon points="82.93496966362,64.79980945587158 82.93496966362,64.79980945587158 82.95276165008545,65.14095067977905 82.95276165008545,65.14095067977905 83.01113843917847,65.4769778251648 83.01113843917847,65.4769778251648 83.09152722358704,65.81100225448608 83.09152722358704,65.81100225448608 83.17392468452454,66.14563465118408 83.17392468452454,66.14563465118408 83.23985934257507,66.48394465446472 83.23985934257507,66.48394465446472 83.26943516731262,66.82886481285095 83.26943516731262,66.82886481285095 83.27711224555969,67.24855899810791 83.27711224555969,67.24855899810791 83.28467011451721,67.66825914382935 83.28467011451721,67.66825914382935 83.2923412322998,68.08790564537048 83.2923412322998,68.08790564537048 83.29957127571106,68.50732564926147 83.29957127571106,68.50732564926147 83.30679535865784,68.92685294151306 83.30679535865784,68.92685294151306 83.31391215324402,69.34627294540405 83.31391215324402,69.34627294540405 83.32981467247009,70.185786485672 83.32981467247009,70.185786485672 83.3456039428711,71.02496027946472 83.3456039428711,71.02496027946472 83.36150646209717,71.86413407325745 83.36150646209717,71.86413407325745 83.37684869766235,72.7031946182251 83.37684869766235,72.7031946182251 83.39197039604187,73.5424816608429 83.39197039604187,73.5424816608429 83.4064245223999,74.38198924064636 83.4064245223999,74.38198924064636 83.43878388404846,75.16056299209595 83.43878388404846,75.16056299209595 83.48848819732666,75.96327066421509 83.48848819732666,75.96327066421509 83.53318572044373,76.77686810493469 83.53318572044373,76.77686810493469 83.54953527450562,77.58813500404358 83.54953527450562,77.58813500404358 83.51495265960693,78.38416695594788 83.51495265960693,78.38416695594788 83.4064245223999,79.15173172950745 83.4064245223999,79.15173172950745 83.19805264472961,79.75378632545471 83.19805264472961,79.75378632545471 82.86369442939758,80.22218942642212 82.86369442939758,80.22218942642212 82.42592811584473,80.56789040565491 82.42592811584473,80.56789040565491 81.90654516220093,80.8013916015625 81.90654516220093,80.8013916015625 81.32822513580322,80.93366026878357 81.32822513580322,80.93366026878357 80.71288466453552,80.97530007362366 80.71288466453552,80.97530007362366 79.92764115333557,80.97585439682007 79.92764115333557,80.97585439682007 79.14283871650696,80.9767484664917 79.14283871650696,80.9767484664917 78.35870385169983,80.9767484664917 78.35870385169983,80.9767484664917 77.5745689868927,80.97435235977173 77.5745689868927,80.97435235977173 76.79088115692139,80.96840381622314 76.79088115692139,80.96840381622314 76.0071873664856,80.9575080871582 76.0071873664856,80.9575080871582 75.48457980155945,80.92737793922424 75.48457980155945,80.92737793922424 74.97665286064148,80.84492683410645 74.97665286064148,80.84492683410645 74.49852228164673,80.694979429245 74.49852228164673,80.694979429245 74.0646481513977,80.46214580535889 74.0646481513977,80.46214580535889 73.69025945663452,80.13128638267517 73.69025945663452,80.13128638267517 73.39015007019043,79.68723773956299 73.39015007019043,79.68723773956299 73.25738072395325,79.30929064750671 73.25738072395325,79.30929064750671 73.17554354667664,78.86101603507996 73.17554354667664,78.86101603507996 73.13262224197388,78.4045159816742 73.13262224197388,78.4045159816742 73.1166124343872,78.00155282020569 73.1166124343872,78.00155282020569 73.11572432518005,77.71439552307129 73.11572432518005,77.71439552307129 73.11794757843018,77.60481238365173 73.11794757843018,77.60481238365173 51.76886320114136,77.47582793235779 51.76886320114136,77.47582793235779 51.758188009262085,78.43564748764038 51.758188009262085,78.43564748764038 51.74717903137207,78.64691615104675 51.74717903137207,78.64691615104675 51.72427296638489,78.85768413543701 51.72427296638489,78.85768413543701 51.688581705093384,79.06655669212341 51.688581705093384,79.06655669212341 51.638323068618774,79.27226424217224 51.638323068618774,79.27226424217224 51.57238245010376,79.4736385345459 51.57238245010376,79.4736385345459 51.48954391479492,79.66944575309753 51.48954391479492,79.66944575309753 51.24080777168274,80.07686138153076 51.24080777168274,80.07686138153076 50.9246826171875,80.40081858634949 50.9246826171875,80.40081858634949 50.55307745933533,80.64839243888855 50.55307745933533,80.64839243888855 50.13754963874817,80.82619309425354 50.13754963874817,80.82619309425354 49.690330028533936,80.94116449356079 49.690330028533936,80.94116449356079 49.22298491001129,81.0002088546753 49.22298491001129,81.0002088546753 48.6135333776474,81.0265064239502 48.6135333776474,81.0265064239502 48.00097048282623,81.02800846099854 48.00097048282623,81.02800846099854 47.38696217536926,81.01521730422974 47.38696217536926,81.01521730422974 46.772176027297974,80.99842667579651 46.772176027297974,80.99842667579651 46.15805745124817,80.98819851875305 46.15805745124817,80.98819851875305 45.545604825019836,80.99486827850342 45.545604825019836,80.99486827850342 45.09560465812683,81.01321458816528 45.09560465812683,81.01321458816528 44.62703764438629,81.03000521659851 44.62703764438629,81.03000521659851 44.15079653263092,81.0305655002594 44.15079653263092,81.0305655002594 43.678003549575806,80.99998235702515 43.678003549575806,80.99998235702515 43.22011172771454,80.92365264892578 43.22011172771454,80.92365264892578 42.78801381587982,80.7867169380188 42.78801381587982,80.7867169380188 42.245057225227356,80.44602274894714 42.245057225227356,80.44602274894714 41.856104135513306,79.97022271156311 41.856104135513306,79.97022271156311 41.59602224826813,79.39913868904114 41.59602224826813,79.39913868904114 41.43957495689392,78.77228856086731 41.43957495689392,78.77228856086731 41.361960768699646,78.12953591346741 41.361960768699646,78.12953591346741 41.338056325912476,77.51052379608154 41.338056325912476,77.51052379608154 41.34150147438049,76.70759558677673 41.34150147438049,76.70759558677673 41.36674404144287,75.90327858924866 41.36674404144287,75.90327858924866 41.405659914016724,75.0981867313385 41.405659914016724,75.0981867313385 41.44847095012665,74.2928147315979 41.44847095012665,74.2928147315979 41.48649871349335,73.48788976669312 41.48649871349335,73.48788976669312 41.510626673698425,72.683846950531 41.510626673698425,72.683846950531 41.52319133281708,72.002512216568 41.52319133281708,72.002512216568 41.5358692407608,71.32145762443542 41.5358692407608,71.32145762443542 41.54887795448303,70.64067721366882 41.54887795448303,70.64067721366882 41.56177639961243,69.95983719825745 41.56177639961243,69.95983719825745 41.57456457614899,69.27900314331055 41.57456457614899,69.27900314331055 41.58712923526764,68.59816908836365 41.58712923526764,68.59816908836365 41.5923535823822,68.28337907791138 41.5923535823822,68.28337907791138 41.59780144691467,67.96876192092896 41.59780144691467,67.96876192092896 41.603586077690125,67.65435934066772 41.603586077690125,67.65435934066772 41.60947799682617,67.33990907669067 41.60947799682617,67.33990907669067 41.616037487983704,67.02533960342407 41.616037487983704,67.02533960342407 41.62271022796631,66.71055555343628 41.62271022796631,66.71055555343628 41.651397943496704,66.46759510040283 41.651397943496704,66.46759510040283 41.717445850372314,66.23209118843079 41.717445850372314,66.23209118843079 41.80150926113129,66.00036025047302 41.80150926113129,66.00036025047302 41.883569955825806,65.76858162879944 41.883569955825806,65.76858162879944 41.94450378417969,65.53335189819336 41.94450378417969,65.53335189819336 41.964295506477356,65.29083847999573 41.964295506477356,65.29083847999573 41.93560779094696,64.86157774925232 41.93560779094696,64.86157774925232 41.89023971557617,64.37844634056091 41.89023971557617,64.37844634056091 41.86688959598541,63.87791037559509 41.86688959598541,63.87791037559509 41.90413951873779,63.39638829231262 41.90413951873779,63.39638829231262 42.04124212265015,62.97040581703186 42.04124212265015,62.97040581703186 42.316555976867676,62.63643503189087 42.316555976867676,62.63643503189087 42.57919192314148,62.4631404876709 42.57919192314148,62.4631404876709 42.86540448665619,62.31008172035217 42.86540448665619,62.31008172035217 43.15650761127472,62.15919256210327 43.15650761127472,62.15919256210327 43.433380126953125,61.99190616607666 43.433380126953125,61.99190616607666 43.677449226379395,61.78997755050659 43.677449226379395,61.78997755050659 43.86970102787018,61.53517961502075 43.86970102787018,61.53517961502075 43.2030975818634,61.4412784576416 43.2030975818634,61.4412784576416 42.60454475879669,61.17769479751587 42.60454475879669,61.17769479751587 42.100173234939575,60.77161431312561 42.100173234939575,60.77161431312561 41.71522259712219,60.249894857406616 41.71522259712219,60.249894857406616 41.47593379020691,59.639668464660645 41.47593379020691,59.639668464660645 41.40743911266327,58.96795392036438 41.40743911266327,58.96795392036438 41.53531193733215,58.26365351676941 41.53531193733215,58.26365351676941 41.837313771247864,57.69584774971008 41.837313771247864,57.69584774971008 42.282307147979736,57.25768804550171 42.282307147979736,57.25768804550171 42.83827245235443,56.94212317466736 42.83827245235443,56.94212317466736 43.47407519817352,56.74242377281189 43.47407519817352,56.74242377281189 44.1579133272171,56.65157437324524 44.1579133272171,56.65157437324524 44.40654218196869,56.639403104782104 44.40654218196869,56.639403104782104 44.6588397026062,56.63117170333862 44.6588397026062,56.63117170333862 44.91269290447235,56.6290020942688 44.91269290447235,56.6290020942688 45.166102051734924,56.63478374481201 45.166102051734924,56.63478374481201 45.417508482933044,56.650906801223755 45.417508482933044,56.650906801223755 45.66480219364166,56.67915344238281 45.66480219364166,56.67915344238281 45.79133987426758,56.700557470321655 45.79133987426758,56.700557470321655 45.9166556596756,56.72796368598938 45.9166556596756,56.72796368598938 46.04063630104065,56.76187872886658 46.04063630104065,56.76187872886658 46.162280440330505,56.80246353149414 46.162280440330505,56.80246353149414 46.28148078918457,56.85039162635803 46.28148078918457,56.85039162635803 46.39778733253479,56.90598487854004 46.39778733253479,56.90598487854004 46.46472632884979,56.780171394348145 46.46472632884979,56.780171394348145 46.532219648361206,56.65457844734192 46.532219648361206,56.65457844734192 46.60038352012634,56.52926564216614 46.60038352012634,56.52926564216614 46.66887819766998,56.40383958816528 46.66887819766998,56.40383958816528 46.7378169298172,56.278300285339355 46.7378169298172,56.278300285339355 46.806979179382324,56.15254044532776 46.806979179382324,56.15254044532776 47.06450402736664,55.68074584007263 47.06450402736664,55.68074584007263 47.319579124450684,55.207788944244385 47.319579124450684,55.207788944244385 47.573322057724,54.73427176475525 47.573322057724,54.73427176475525 47.82606363296509,54.26048040390015 47.82606363296509,54.26048040390015 48.07869493961334,53.78684997558594 48.07869493961334,53.78684997558594 48.33166003227234,53.314000368118286 48.33166003227234,53.314000368118286 48.97391200065613,52.43641138076782 48.97391200065613,52.43641138076782 49.758824706077576,51.838135719299316 49.758824706077576,51.838135719299316 50.65603852272034,51.45818591117859 50.65603852272034,51.45818591117859 51.63565278053284,51.23513340950012 51.63565278053284,51.23513340950012 52.66774892807007,51.10793113708496 52.66774892807007,51.10793113708496 53.72230410575867,51.01541876792908 53.72230410575867,51.01541876792908 56.29953742027283,50.81437826156616 56.29953742027283,50.81437826156616 58.889561891555786,50.67822337150574 58.889561891555786,50.67822337150574 61.48625612258911,50.609785318374634 61.48625612258911,50.609785318374634 64.08350467681885,50.61156153678894 64.08350467681885,50.61156153678894 66.67530536651611,50.68628787994385 66.67530536651611,50.68628787994385 69.25554275512695,50.83661675453186 69.25554275512695,50.83661675453186 69.88867521286011,50.88593363761902 69.88867521286011,50.88593363761902 70.52147388458252,50.94080567359924 70.52147388458252,50.94080567359924 71.15449905395508,51.001518964767456 71.15449905395508,51.001518964767456 71.78707718849182,51.06801390647888 71.78707718849182,51.06801390647888 72.41965532302856,51.140451431274414 72.41965532302856,51.140451431274414 73.05212020874023,51.21912360191345 73.05212020874023,51.21912360191345 73.4914481639862,51.28011107444763 73.4914481639862,51.28011107444763 73.93555045127869,51.35733485221863 73.93555045127869,51.35733485221863 74.37576651573181,51.46141052246094 74.37576651573181,51.46141052246094 74.80274438858032,51.60262584686279 74.80274438858032,51.60262584686279 75.20782351493835,51.79176926612854 75.20782351493835,51.79176926612854 75.58198571205139,52.03928351402283 75.58198571205139,52.03928351402283 75.98239183425903,52.426183223724365 75.98239183425903,52.426183223724365 76.32931470870972,52.89068818092346 76.32931470870972,52.89068818092346 76.6352117061615,53.40473651885986 76.6352117061615,53.40473651885986 76.911860704422,53.940021991729736 76.911860704422,53.940021991729736 77.17171907424927,54.46851849555969 77.17171907424927,54.46851849555969 77.42690443992615,54.96233105659485 77.42690443992615,54.96233105659485 77.57412195205688,55.22964000701904 77.57412195205688,55.22964000701904 77.72067785263062,55.49711585044861 77.72067785263062,55.49711585044861 77.86722779273987,55.764585733413696 77.86722779273987,55.764585733413696 78.01355719566345,56.031954288482666 78.01355719566345,56.031954288482666 78.16033363342285,56.299203634262085 78.16033363342285,56.299203634262085 78.30755710601807,56.56617879867554 78.30755710601807,56.56617879867554 78.40173244476318,56.70022368431091 78.40173244476318,56.70022368431091 78.50025296211243,56.772440671920776 78.50025296211243,56.772440671920776 78.60666513442993,56.79612755775452 78.60666513442993,56.79612755775452 78.72430682182312,56.78445100784302 78.72430682182312,56.78445100784302 78.8571834564209,56.75086975097656 78.8571834564209,56.75086975097656 79.00851368904114,56.70850872993469 79.00851368904114,56.70850872993469 79.91229295730591,56.56801462173462 79.91229295730591,56.56801462173462 80.87044358253479,56.592923402786255 80.87044358253479,56.592923402786255 81.79345726966858,56.805914640426636 81.79345726966858,56.805914640426636 82.591712474823,57.229334115982056 82.591712474823,57.229334115982056 83.17581415176392,57.88593292236328 83.17581415176392,57.88593292236328 83.45624208450317,58.79805088043213 83.45624208450317,58.79805088043213 83.42310786247253,59.50112342834473 83.42310786247253,59.50112342834473 83.20727944374084,60.14804244041443 83.20727944374084,60.14804244041443 82.83400535583496,60.70701479911804 82.83400535583496,60.70701479911804 82.32796788215637,61.145782470703125 82.32796788215637,61.145782470703125 81.71473741531372,61.43249273300171 81.71473741531372,61.43249273300171 81.0188889503479,61.53517961502075 81.0188889503479,61.53517961502075 81.20524883270264,61.7729127407074 81.20524883270264,61.7729127407074 81.4587652683258,61.97255849838257 81.4587652683258,61.97255849838257 81.7534327507019,62.14507222175598 81.7534327507019,62.14507222175598 82.06254839897156,62.30124235153198 82.06254839897156,62.30124235153198 82.36032128334045,62.45219111442566 82.36032128334045,62.45219111442566 82.62007236480713,62.60886192321777 82.62007236480713,62.60886192321777 82.86736011505127,62.87916898727417 82.86736011505127,62.87916898727417 82.990562915802,63.22425603866577 82.990562915802,63.22425603866577 83.0243706703186,63.61660361289978 83.0243706703186,63.61660361289978 83.00312757492065,64.02835249900818 83.00312757492065,64.02835249900818 82.9618752002716,64.43198323249817 82.9618752002716,64.43198323249817 82.93496966362,64.79980945587158 82.93496966362,64.79980945587158" stroke="white" stroke-width="0.1" /><polygon points="77.21875309944153,62.99314498901367 77.21875309944153,62.99314498901367 75.55741667747498,63.45170736312866 75.55741667747498,63.45170736312866 74.5606780052185,64.59821462631226 74.5606780052185,64.59821462631226 74.2285430431366,66.0887598991394 74.2285430431366,66.0887598991394 74.56079125404358,67.57919192314148 74.56079125404358,67.57919192314148 75.55752396583557,68.72581839561462 75.55752396583557,68.72581839561462 77.21875309944153,69.18438076972961 77.21875309944153,69.18438076972961 78.88286709785461,68.72570514678955 78.88286709785461,68.72570514678955 79.88126873970032,67.57913827896118 79.88126873970032,67.57913827896118 80.21429181098938,66.0887598991394 80.21429181098938,66.0887598991394 79.88138198852539,64.59832787513733 79.88138198852539,64.59832787513733 78.88298034667969,63.45176100730896 78.88298034667969,63.45176100730896" stroke="white" stroke-width="0.1" /><polygon points="52.58190631866455,66.368967294693 52.58190631866455,66.368967294693 52.573347091674805,67.0392394065857 52.573347091674805,67.0392394065857 53.01422476768494,67.42469072341919 53.01422476768494,67.42469072341919 53.737425804138184,67.59809851646423 53.737425804138184,67.59809851646423 54.5749306678772,67.63178706169128 54.5749306678772,67.63178706169128 55.35929203033447,67.59876608848572 55.35929203033447,67.59876608848572 55.923038721084595,67.57163405418396 55.923038721084595,67.57163405418396 71.45627737045288,67.57163405418396 71.45627737045288,67.57163405418396 71.61539196968079,67.57330298423767 71.61539196968079,67.57330298423767 71.78029417991638,67.57307648658752 71.78029417991638,67.57307648658752 71.94575071334839,67.56318211555481 71.94575071334839,67.56318211555481 72.10642099380493,67.53538250923157 72.10642099380493,67.53538250923157 72.25753664970398,67.48189926147461 72.25753664970398,67.48189926147461 72.39385843276978,67.39461421966553 72.39385843276978,67.39461421966553 72.53907322883606,67.2140896320343 72.53907322883606,67.2140896320343 72.61046171188354,66.99726581573486 72.61046171188354,66.99726581573486 72.62469530105591,66.75925850868225 72.62469530105591,66.75925850868225 72.59745001792908,66.51440858840942 72.59745001792908,66.51440858840942 72.54530191421509,66.277676820755 72.54530191421509,66.277676820755 72.48458862304688,66.06385111808777 72.48458862304688,66.06385111808777 72.38418459892273,65.73867201805115 72.38418459892273,65.73867201805115 72.26865291595459,65.41348695755005 72.26865291595459,65.41348695755005 72.13077545166016,65.09736180305481 72.13077545166016,65.09736180305481 71.96264863014221,64.79920148849487 71.96264863014221,64.79920148849487 71.75694108009338,64.52827453613281 71.75694108009338,64.52827453613281 71.50608897209167,64.29365873336792 71.50608897209167,64.29365873336792 71.10390663146973,64.07238245010376 71.10390663146973,64.07238245010376 70.64801454544067,63.95546793937683 70.64801454544067,63.95546793937683 70.16043066978455,63.91426920890808 70.16043066978455,63.91426920890808 69.66206431388855,63.92016410827637 69.66206431388855,63.92016410827637 69.17492747306824,63.944679498672485 69.17492747306824,63.944679498672485 68.72003674507141,63.959187269210815 68.72003674507141,63.959187269210815 55.36262392997742,63.959187269210815 55.36262392997742,63.959187269210815 54.97311353683472,63.96363973617554 54.97311353683472,63.96363973617554 54.598838090896606,63.989436626434326 54.598838090896606,63.989436626434326 54.24402356147766,64.05436992645264 54.24402356147766,64.05436992645264 53.91177535057068,64.17657136917114 53.91177535057068,64.17657136917114 53.606218099594116,64.3739402294159 53.606218099594116,64.3739402294159 53.33090424537659,64.66460227966309 53.33090424537659,64.66460227966309 53.15888524055481,64.92317914962769 53.15888524055481,64.92317914962769 53.014445304870605,65.19810557365417 53.014445304870605,65.19810557365417 52.891021966934204,65.48476219177246 52.891021966934204,65.48476219177246 52.782052755355835,65.77842235565186 52.782052755355835,65.77842235565186 52.681201696395874,66.07469320297241 52.681201696395874,66.07469320297241 52.58190631866455,66.368967294693 52.58190631866455,66.368967294693" stroke="white" stroke-width="0.1" /><polygon points="50.7779061794281,54.090577363967896 50.7779061794281,54.090577363967896 50.19203424453735,55.123335123062134 50.19203424453735,55.123335123062134 49.61560666561127,56.16127252578735 49.61560666561127,56.16127252578735 49.04596507549286,57.202982902526855 49.04596507549286,57.202982902526855 48.479658365249634,58.246588706970215 48.479658365249634,58.246588706970215 47.91412949562073,59.29063558578491 47.91412949562073,59.29063558578491 47.34604358673096,60.33340096473694 47.34604358673096,60.33340096473694 49.84677731990814,59.8124623298645 49.84677731990814,59.8124623298645 52.36797332763672,59.41078066825867 52.36797332763672,59.41078066825867 54.90495562553406,59.11872982978821 54.90495562553406,59.11872982978821 57.451945543289185,58.9268684387207 57.451945543289185,58.9268684387207 60.00460386276245,58.825844526290894 60.00460386276245,58.825844526290894 62.557268142700195,58.806055784225464 62.557268142700195,58.806055784225464 65.07667899131775,58.85108709335327 65.07667899131775,58.85108709335327 67.59031414985657,58.96100401878357 67.59031414985657,58.96100401878357 70.09593844413757,59.15008783340454 70.09593844413757,59.15008783340454 72.59122729301453,59.43235158920288 72.59122729301453,59.43235158920288 75.07416605949402,59.82208251953125 75.07416605949402,59.82208251953125 77.54254341125488,60.33340096473694 77.54254341125488,60.33340096473694 77.16782689094543,59.64917540550232 77.16782689094543,59.64917540550232 76.79277062416077,58.96478295326233 76.79277062416077,58.96478295326233 76.41749382019043,58.28044414520264 76.41749382019043,58.28044414520264 76.04166269302368,57.59605169296265 76.04166269302368,57.59605169296265 75.66538453102112,56.9119930267334 75.66538453102112,56.9119930267334 75.28843879699707,56.22815489768982 75.28843879699707,56.22815489768982 75.0906229019165,55.819571018218994 75.0906229019165,55.819571018218994 74.88402724266052,55.350059270858765 74.88402724266052,55.350059270858765 74.65397119522095,54.86903786659241 74.65397119522095,54.86903786659241 74.38499331474304,54.42571043968201 74.38499331474304,54.42571043968201 74.06253218650818,54.069340229034424 74.06253218650818,54.069340229034424 73.67124557495117,53.84950637817383 73.67124557495117,53.84950637817383 73.03777933120728,53.68688702583313 73.03777933120728,53.68688702583313 72.37818241119385,53.577250242233276 72.37818241119385,53.577250242233276 71.7035710811615,53.50636839866638 71.7035710811615,53.50636839866638 71.02462649345398,53.45955491065979 71.02462649345398,53.45955491065979 70.3525722026825,53.42252850532532 70.3525722026825,53.42252850532532 69.69853639602661,53.38071584701538 69.69853639602661,53.38071584701538 68.98156404495239,53.32918167114258 68.98156404495239,53.32918167114258 68.26369762420654,53.284090757369995 68.26369762420654,53.284090757369995 67.54494905471802,53.24539542198181 67.54494905471802,53.24539542198181 66.82552695274353,53.212761878967285 66.82552695274353,53.212761878967285 66.1057710647583,53.18613052368164 66.1057710647583,53.18613052368164 65.38602113723755,53.16544771194458 65.38602113723755,53.16544771194458 63.90125751495361,53.13943028450012 63.90125751495361,53.13943028450012 62.416160106658936,53.136759996414185 62.416160106658936,53.136759996414185 60.93117594718933,53.155553340911865 60.93117594718933,53.155553340911865 59.44608449935913,53.19380164146423 59.44608449935913,53.19380164146423 57.96120762825012,53.24962139129639 57.96120762825012,53.24962139129639 56.47633671760559,53.32111716270447 56.47633671760559,53.32111716270447 55.87077736854553,53.35903763771057 55.87077736854553,53.35903763771057 55.26544451713562,53.40523719787598 55.26544451713562,53.40523719787598 54.660773277282715,53.455108404159546 54.660773277282715,53.455108404159546 54.055774211883545,53.504085540771484 54.055774211883545,53.504085540771484 53.4507691860199,53.5478413105011 53.4507691860199,53.5478413105011 52.84520983695984,53.581756353378296 52.84520983695984,53.581756353378296 52.5259792804718,53.588539361953735 52.5259792804718,53.588539361953735 52.13991403579712,53.59960198402405 52.13991403579712,53.59960198402405 51.72950029373169,53.635019063949585 51.72950029373169,53.635019063949585 51.337212324142456,53.71507406234741 51.337212324142456,53.71507406234741 51.00585222244263,53.860241174697876 51.00585222244263,53.860241174697876 50.7779061794281,54.090577363967896 50.7779061794281,54.090577363967896" stroke="white" stroke-width="0.1" /><polygon points="47.66983687877655,69.18438076972961 47.66983687877655,69.18438076972961 49.33306574821472,68.72570514678955 49.33306574821472,68.72570514678955 50.331246852874756,67.57913827896118 50.331246852874756,67.57913827896118 50.66404938697815,66.0887598991394 50.66404938697815,66.0887598991394 50.33136010169983,64.59832787513733 50.33136010169983,64.59832787513733 49.33328628540039,63.45176100730896 49.33328628540039,63.45176100730896 47.66983687877655,62.99314498901367 47.66983687877655,62.99314498901367 46.00560963153839,63.45170736312866 46.00560963153839,63.45170736312866 45.00698447227478,64.59821462631226 45.00698447227478,64.59821462631226 44.67429518699646,66.0887598991394 44.67429518699646,66.0887598991394 45.007094740867615,67.57919192314148 45.007094740867615,67.57919192314148 46.005722880363464,68.72581839561462 46.005722880363464,68.72581839561462" stroke="white" stroke-width="0.1" /><polygon points="62.90419101715088,39.12753462791443 62.90419101715088,39.12753462791443 56.842827796936035,45.19245624542236 56.842827796936035,45.19245624542236 56.579965353012085,45.031946897506714 56.579965353012085,45.031946897506714 56.31266236305237,44.8764443397522 56.31266236305237,44.8764443397522 56.04156851768494,44.72655653953552 56.04156851768494,44.72655653953552 55.76625466346741,44.58267092704773 55.76625466346741,44.58267092704773 55.48716187477112,44.44545805454254 55.48716187477112,44.44545805454254 55.20428419113159,44.315361976623535 55.20428419113159,44.315361976623535 54.906290769577026,44.18877065181732 54.906290769577026,44.18877065181732 54.603511095047,44.06784772872925 54.603511095047,44.06784772872925 54.29695248603821,43.95398497581482 54.29695248603821,43.95398497581482 53.98649573326111,43.84818375110626 53.98649573326111,43.84818375110626 53.673380613327026,43.751782178878784 53.673380613327026,43.751782178878784 53.35758924484253,43.6659961938858 53.35758924484253,43.6659961938858 53.16022038459778,43.612122535705566 53.16022038459778,43.612122535705566 52.9629647731781,43.56392025947571 52.9629647731781,43.56392025947571 52.76559591293335,43.52055490016937 52.76559591293335,43.52055490016937 52.567118406295776,43.4809684753418 52.567118406295776,43.4809684753418 52.367305755615234,43.4443861246109 52.367305755615234,43.4443861246109 52.165597677230835,43.40980648994446 52.165597677230835,43.40980648994446 52.165597677230835,24.811194837093353 52.165597677230835,24.811194837093353 52.089208364486694,24.245944619178772 52.089208364486694,24.245944619178772 51.874274015426636,23.738014698028564 51.874274015426636,23.738014698028564 51.54024958610535,23.307862877845764 51.54024958610535,23.307862877845764 51.10704302787781,22.97545224428177 51.10704302787781,22.97545224428177 50.594884157180786,22.76112735271454 50.594884157180786,22.76112735271454 50.02357363700867,22.685182094573975 50.02357363700867,22.685182094573975 49.73280429840088,22.703473269939423 49.73280429840088,22.703473269939423 49.45582151412964,22.75751233100891 49.45582151412964,22.75751233100891 49.19407367706299,22.845523059368134 49.19407367706299,22.845523059368134 48.948559165000916,22.965611517429352 48.948559165000916,22.965611517429352 48.72061312198639,23.11616688966751 48.72061312198639,23.11616688966751 48.51134717464447,23.295409977436066 48.51134717464447,23.295409977436066 48.330214619636536,23.500671982765198 48.330214619636536,23.500671982765198 48.17643463611603,23.729786276817322 48.17643463611603,23.729786276817322 48.05278778076172,23.979248106479645 48.05278778076172,23.979248106479645 47.96127676963806,24.244999885559082 47.96127676963806,24.244999885559082 47.90467917919159,24.523650109767914 47.90467917919159,24.523650109767914 47.88510799407959,24.811194837093353 47.88510799407959,24.811194837093353 47.88510799407959,43.40980648994446 47.88510799407959,43.40980648994446 47.68340289592743,43.444275856018066 47.68340289592743,43.444275856018066 47.48359024524689,43.48085820674896 47.48359024524689,43.48085820674896 47.28533327579498,43.52055490016937 47.28533327579498,43.52055490016937 47.08718657493591,43.56403052806854 47.08718657493591,43.56403052806854 46.88903987407684,43.6121791601181 46.88903987407684,43.6121791601181 46.689558029174805,43.6659961938858 46.689558029174805,43.6659961938858 46.37277126312256,43.751782178878784 46.37277126312256,43.751782178878784 46.059650182724,43.848130106925964 46.059650182724,43.848130106925964 45.7502007484436,43.95398497581482 45.7502007484436,43.95398497581482 45.444196462631226,44.06784772872925 45.444196462631226,44.06784772872925 45.14175057411194,44.18882429599762 45.14175057411194,44.18882429599762 44.84286308288574,44.315361976623535 44.84286308288574,44.315361976623535 44.56276893615723,44.445404410362244 44.56276893615723,44.445404410362244 44.2851185798645,44.58261728286743 44.2851185798645,44.58261728286743 44.010692834854126,44.72655653953552 44.010692834854126,44.72655653953552 43.73927116394043,44.876497983932495 43.73927116394043,44.876497983932495 43.47162842750549,45.03200352191925 43.47162842750549,45.03200352191925 43.20788085460663,45.19245624542236 43.20788085460663,45.19245624542236 39.325904846191406,41.30692183971405 39.325904846191406,41.30692183971405 40.041542053222656,41.183218359947205 40.041542053222656,41.183218359947205 40.79899191856384,40.98290503025055 40.79899191856384,40.98290503025055 41.57578647136688,40.687352418899536 41.57578647136688,40.687352418899536 42.349690198898315,40.277549624443054 42.349690198898315,40.277549624443054 43.09868812561035,39.73487317562103 43.09868812561035,39.73487317562103 43.800315260887146,39.04035985469818 43.800315260887146,39.04035985469818 44.89668011665344,37.27533519268036 44.89668011665344,37.27533519268036 45.29464244842529,35.51325798034668 45.29464244842529,35.51325798034668 45.17733156681061,33.82829129695892 45.17733156681061,33.82829129695892 44.72777843475342,32.294270396232605 44.72777843475342,32.294270396232605 44.129449129104614,30.985528230667114 44.129449129104614,30.985528230667114 43.565475940704346,29.97589409351349 43.565475940704346,29.97589409351349 43.524667620658875,29.90589737892151 43.524667620658875,29.90589737892151 43.484193086624146,29.836514592170715 43.484193086624146,29.836514592170715 43.444499373435974,29.76796329021454 43.444499373435974,29.76796329021454 43.40524673461914,29.700079560279846 43.40524673461914,29.700079560279846 43.36666464805603,29.632973670959473 43.36666464805603,29.632973670959473 43.328857421875,29.566702246665955 43.328857421875,29.566702246665955 42.34602153301239,27.826696634292603 42.34602153301239,27.826696634292603 41.363295912742615,26.08669102191925 41.363295912742615,26.08669102191925 40.38112759590149,24.34685230255127 40.38112759590149,24.34685230255127 39.39884603023529,22.606901824474335 39.39884603023529,22.606901824474335 38.416787981987,20.8669513463974 38.416787981987,20.8669513463974 37.43472993373871,19.127000868320465 37.43472993373871,19.127000868320465 39.44554924964905,18.56314092874527 39.44554924964905,18.56314092874527 41.49472713470459,18.09574067592621 41.49472713470459,18.09574067592621 43.57970952987671,17.727524042129517 43.57970952987671,17.727524042129517 45.69782614707947,17.461104691028595 45.69782614707947,17.461104691028595 47.84674644470215,17.299319803714752 47.84674644470215,17.299319803714752 50.02357363700867,17.244723439216614 50.02357363700867,17.244723439216614 51.590174436569214,17.273466289043427 51.590174436569214,17.273466289043427 53.14232110977173,17.358918488025665 53.14232110977173,17.358918488025665 54.67945337295532,17.49957799911499 54.67945337295532,17.49957799911499 56.20046257972717,17.693887650966644 56.20046257972717,17.693887650966644 57.70468711853027,17.940348386764526 57.70468711853027,17.940348386764526 59.191226959228516,18.237455189228058 59.191226959228516,18.237455189228058 59.191226959228516,31.859952211380005 59.191226959228516,31.859952211380005 59.31020379066467,33.32108557224274 59.31020379066467,33.32108557224274 59.65479016304016,34.70677435398102 59.65479016304016,34.70677435398102 60.20575165748596,35.99878251552582 60.20575165748596,35.99878251552582 60.94363331794739,37.1785432100296 60.94363331794739,37.1785432100296 61.84963583946228,38.22759389877319 61.84963583946228,38.22759389877319" stroke="white" stroke-width="0.1" /><polygon points="63.786619901657104,46.514320373535156 63.786619901657104,46.514320373535156 69.43700909614563,40.8603698015213 69.43700909614563,40.8603698015213 88.33094835281372,40.8603698015213 88.33094835281372,40.8603698015213 89.68350291252136,43.81749629974365 89.68350291252136,43.81749629974365 90.8143401145935,46.88948392868042 90.8143401145935,46.88948392868042 91.7127788066864,50.066494941711426 91.7127788066864,50.066494941711426 92.36770868301392,53.33840847015381 92.36770868301392,53.33840847015381 92.76878237724304,56.69555068016052 92.76878237724304,56.69555068016052 92.90499091148376,60.12791991233826 92.90499091148376,60.12791991233826 87.4876618385315,60.12791991233826 87.4876618385315,60.12791991233826 87.51634955406189,59.94333624839783 87.51634955406189,59.94333624839783 87.54136562347412,59.75770354270935 87.54136562347412,59.75770354270935 87.56238222122192,59.57106351852417 87.56238222122192,59.57106351852417 87.5783920288086,59.38303470611572 87.5783920288086,59.38303470611572 87.58940100669861,59.194010496139526 87.58940100669861,59.194010496139526 87.59440779685974,59.00353193283081 87.59440779685974,59.00353193283081 87.54258751869202,58.161354064941406 87.54258751869202,58.161354064941406 87.36935257911682,57.30728507041931 87.36935257911682,57.30728507041931 87.07491159439087,56.46299123764038 87.07491159439087,56.46299123764038 86.65938377380371,55.65006136894226 86.65938377380371,55.65006136894226 86.12321019172668,54.890334606170654 86.12321019172668,54.890334606170654 85.46661138534546,54.20532822608948 85.46661138534546,54.20532822608948 85.01684069633484,53.83194088935852 85.01684069633484,53.83194088935852 84.54026579856873,53.510093688964844 84.54026579856873,53.510093688964844 84.04957056045532,53.239279985427856 84.04957056045532,53.239279985427856 83.55687260627747,53.018784523010254 83.55687260627747,53.018784523010254 83.07518362998962,52.84821391105652 83.07518362998962,52.84821391105652 82.61651396751404,52.726900577545166 82.61651396751404,52.726900577545166 82.25657939910889,52.65457034111023 82.25657939910889,52.65457034111023 81.9202184677124,52.60247588157654 81.9202184677124,52.60247588157654 81.60732388496399,52.56723165512085 81.60732388496399,52.56723165512085 81.3177764415741,52.54521369934082 81.3177764415741,52.54521369934082 81.0516893863678,52.53314971923828 81.0516893863678,52.53314971923828 80.8089554309845,52.527642250061035 80.8089554309845,52.527642250061035 80.69509267807007,52.32037901878357 80.69509267807007,52.32037901878357 80.5808961391449,52.11300253868103 80.5808961391449,52.11300253868103 80.46625852584839,51.90540552139282 80.46625852584839,51.90540552139282 80.35072684288025,51.697421073913574 80.35072684288025,51.697421073913574 80.2345335483551,51.48921012878418 80.2345335483551,51.48921012878418 80.11689186096191,51.28050446510315 80.11689186096191,51.28050446510315 80.01459240913391,51.10059380531311 80.01459240913391,51.10059380531311 79.87059354782104,50.83717703819275 79.87059354782104,50.83717703819275 79.67122793197632,50.5023717880249 79.67122793197632,50.5023717880249 79.40236330032349,50.107693672180176 79.40236330032349,50.107693672180176 79.05032634735107,49.665144085884094 79.05032634735107,49.665144085884094 78.60110402107239,49.18651282787323 78.60110402107239,49.18651282787323 78.02979350090027,48.70493412017822 78.02979350090027,48.70493412017822 77.45581269264221,48.31731617450714 77.45581269264221,48.31731617450714 76.88939571380615,48.01097810268402 76.88939571380615,48.01097810268402 76.3404369354248,47.77308106422424 76.3404369354248,47.77308106422424 75.81949830055237,47.59094715118408 75.81949830055237,47.59094715118408 75.33647418022156,47.45189845561981 75.33647418022156,47.45189845561981 74.88558292388916,47.34593331813812 74.88558292388916,47.34593331813812 74.46660995483398,47.26342856884003 74.46660995483398,47.26342856884003 74.0828812122345,47.19993472099304 74.0828812122345,47.19993472099304 73.73673915863037,47.15106785297394 73.73673915863037,47.15106785297394 73.43140244483948,47.11264967918396 73.43140244483948,47.11264967918396 73.16954135894775,47.08006978034973 73.16954135894775,47.08006978034973 71.60661220550537,46.90560698509216 71.60661220550537,46.90560698509216 70.04112005233765,46.76533639431 70.04112005233765,46.76533639431 68.47474575042725,46.657758951187134 68.47474575042725,46.657758951187134 66.90891981124878,46.58103585243225 66.90891981124878,46.58103585243225 65.34577012062073,46.53383195400238 65.34577012062073,46.53383195400238" stroke="white" stroke-width="0.1" /><polygon points="7.140379399061203,60.12791991233826 7.140379399061203,60.12791991233826 7.268251478672028,56.79662823677063 7.268251478672028,56.79662823677063 7.644751667976379,53.535497188568115 7.644751667976379,53.535497188568115 8.260983973741531,50.353819131851196 8.260983973741531,50.353819131851196 9.10705253481865,47.26053476333618 9.10705253481865,47.26053476333618 10.17361730337143,44.26504969596863 10.17361730337143,44.26504969596863 11.45111545920372,41.376304626464844 11.45111545920372,41.376304626464844 31.129634380340576,41.376304626464844 31.129634380340576,41.376304626464844 39.11419212818146,49.35908317565918 39.11419212818146,49.35908317565918 38.95585238933563,49.6221125125885 38.95585238933563,49.6221125125885 38.80429565906525,49.891144037246704 38.80429565906525,49.891144037246704 38.659411668777466,50.16545653343201 38.659411668777466,50.16545653343201 38.520753383636475,50.444161891937256 38.520753383636475,50.444161891937256 38.38854730129242,50.72653889656067 38.38854730129242,50.72653889656067 38.262006640434265,51.011860370635986 38.262006640434265,51.011860370635986 38.136693835258484,51.31208300590515 38.136693835258484,51.31208300590515 38.02005052566528,51.618194580078125 38.02005052566528,51.618194580078125 37.9117488861084,51.929426193237305 37.9117488861084,51.929426193237305 37.811118364334106,52.244991064071655 37.811118364334106,52.244991064071655 37.718161940574646,52.56444811820984 37.718161940574646,52.56444811820984 37.632209062576294,52.887022495269775 37.632209062576294,52.887022495269775 37.59863078594208,53.03524136543274 37.59863078594208,53.03524136543274 37.56671845912933,53.18446159362793 37.56671845912933,53.18446159362793 37.536805868148804,53.33468317985535 37.536805868148804,53.33468317985535 37.50822842121124,53.48551869392395 37.50822842121124,53.48551869392395 37.4815434217453,53.637075424194336 37.4815434217453,53.637075424194336 37.45608031749725,53.78901958465576 37.45608031749725,53.78901958465576 36.654600501060486,53.7326455116272 36.654600501060486,53.7326455116272 35.85345447063446,53.68649959564209 35.85345447063446,53.68649959564209 35.05275249481201,53.650474548339844 35.05275249481201,53.650474548339844 34.25271511077881,53.62461805343628 34.25271511077881,53.62461805343628 33.453792333602905,53.60910892486572 33.453792333602905,53.60910892486572 32.656094431877136,53.603994846343994 32.656094431877136,53.603994846343994 32.2849303483963,53.60488295555115 32.2849303483963,53.60488295555115 31.91465735435486,53.60766649246216 31.91465735435486,53.60766649246216 31.545495986938477,53.612446784973145 31.545495986938477,53.612446784973145 31.177115440368652,53.61917018890381 31.177115440368652,53.61917018890381 30.809620022773743,53.62817645072937 30.809620022773743,53.62817645072937 30.44290542602539,53.6395788192749 30.44290542602539,53.6395788192749 29.431048035621643,53.6712110042572 29.431048035621643,53.6712110042572 28.402957320213318,53.70745658874512 28.402957320213318,53.70745658874512 27.359741926193237,53.75388264656067 27.359741926193237,53.75388264656067 26.302072405815125,53.81593108177185 26.302072405815125,53.81593108177185 25.231394171714783,53.8993775844574 25.231394171714783,53.8993775844574 24.14848357439041,54.00962829589844 24.14848357439041,54.00962829589844 23.720945417881012,54.06755805015564 23.720945417881012,54.06755805015564 23.165202140808105,54.1303813457489 23.165202140808105,54.1303813457489 22.499266266822815,54.25114035606384 22.499266266822815,54.25114035606384 21.740595996379852,54.482364654541016 21.740595996379852,54.482364654541016 20.90742588043213,54.87710237503052 20.90742588043213,54.87710237503052 20.017436146736145,55.48804998397827 20.017436146736145,55.48804998397827 19.463248550891876,56.0727596282959 19.463248550891876,56.0727596282959 19.051167368888855,56.615716218948364 19.051167368888855,56.615716218948364 18.7545046210289,57.09901452064514 18.7545046210289,57.09901452064514 18.546128273010254,57.50459432601929 18.546128273010254,57.50459432601929 18.39979737997055,57.8144907951355 18.39979737997055,57.8144907951355 18.288159370422363,58.01079869270325 18.288159370422363,58.01079869270325 18.279264867305756,58.02770256996155 18.279264867305756,58.02770256996155 18.27014684677124,58.04460644721985 18.27014684677124,58.04460644721985 18.261028826236725,58.06150436401367 18.261028826236725,58.06150436401367 18.25135499238968,58.0782949924469 18.25135499238968,58.0782949924469 18.24156939983368,58.0951988697052 18.24156939983368,58.0951988697052 18.23122948408127,58.1122100353241 18.23122948408127,58.1122100353241 17.87385493516922,58.13233256340027 17.87385493516922,58.13233256340027 17.49357432126999,58.173030614852905 17.49357432126999,58.173030614852905 17.09161102771759,58.242082595825195 17.09161102771759,58.242082595825195 16.667965054512024,58.34721326828003 16.667965054512024,58.34721326828003 16.223636269569397,58.496493101119995 16.223636269569397,58.496493101119995 15.759183466434479,58.69752764701843 15.759183466434479,58.69752764701843 15.456181764602661,58.851420879364014 15.456181764602661,58.851420879364014 15.156960487365723,59.04384255409241 15.156960487365723,59.04384255409241 14.86552357673645,59.27128791809082 14.86552357673645,59.27128791809082 14.585427939891815,59.530091285705566 14.585427939891815,59.530091285705566 14.320677518844604,59.81680154800415 14.320677518844604,59.81680154800415 14.075273275375366,60.12791991233826 14.075273275375366,60.12791991233826" stroke="white" stroke-width="0.1" /><polygon points="94.74990963935852,0.05159362335689366 94.74990963935852,0.05159362335689366 96.14582657814026,0.23912086617201567 96.14582657814026,0.23912086617201567 97.39986062049866,0.7682890631258488 97.39986062049866,0.7682890631258488 98.46242666244507,1.5891725197434425 98.46242666244507,1.5891725197434425 99.28314089775085,2.6515673846006393 99.28314089775085,2.6515673846006393 99.81241822242737,3.905770555138588 99.81241822242737,3.905770555138588 100.0,5.3016893565654755 100.0,5.3016893565654755 100.0,31.859952211380005 100.0,31.859952211380005 99.81253147125244,33.25520157814026 99.81253147125244,33.25520157814026 99.28325414657593,34.5091849565506 99.28325414657593,34.5091849565506 98.46242666244507,35.57180166244507 98.46242666244507,35.57180166244507 97.39975333213806,36.392852663993835 97.39975333213806,36.392852663993835 96.14560604095459,36.92235350608826 96.14560604095459,36.92235350608826 94.74990963935852,37.11004555225372 94.74990963935852,37.11004555225372 68.19164752960205,37.11004555225372 68.19164752960205,37.11004555225372 66.79583787918091,36.92246377468109 66.79583787918091,36.92246377468109 65.54169058799744,36.39296293258667 65.54169058799744,36.39296293258667 64.4791305065155,35.57180166244507 64.4791305065155,35.57180166244507 63.6580765247345,34.509071707725525 63.6580765247345,34.509071707725525 63.12901973724365,33.255091309547424 63.12901973724365,33.255091309547424 62.941551208496094,31.859952211380005 62.941551208496094,31.859952211380005 62.941551208496094,5.3016893565654755 62.941551208496094,5.3016893565654755 63.129132986068726,3.905937448143959 63.129132986068726,3.905937448143959 63.65818977355957,2.6516785845160484 63.65818977355957,2.6516785845160484 64.4791305065155,1.5891725197434425 64.4791305065155,1.5891725197434425 65.54147005081177,0.7682890631258488 65.54147005081177,0.7682890631258488 66.79572463035583,0.23906526621431112 66.79572463035583,0.23906526621431112 68.19164752960205,0.05159362335689366 68.19164752960205,0.05159362335689366" stroke="white" stroke-width="0.1" /><polygon points="90.36622643470764,26.529794931411743 90.36622643470764,26.529794931411743 88.59425783157349,26.529794931411743 88.59425783157349,26.529794931411743 89.50815200805664,25.23895502090454 89.50815200805664,25.23895502090454 90.3372049331665,23.86833280324936 90.3372049331665,23.86833280324936 91.0478413105011,22.426991164684296 91.0478413105011,22.426991164684296 91.60536527633667,20.923660695552826 91.60536527633667,20.923660695552826 91.97608232498169,19.367678463459015 91.97608232498169,19.367678463459015 92.1257495880127,17.767776548862457 92.1257495880127,17.767776548862457 91.74524545669556,14.935186505317688 91.74524545669556,14.935186505317688 90.6712293624878,12.390197068452835 90.6712293624878,12.390197068452835 89.00522589683533,10.234217345714569 89.00522589683533,10.234217345714569 86.84863448143005,8.568599820137024 86.84863448143005,8.568599820137024 84.30342078208923,7.494919002056122 84.30342078208923,7.494919002056122 81.47077560424805,7.114582508802414 81.47077560424805,7.114582508802414 78.63879799842834,7.495085895061493 78.63879799842834,7.495085895061493 76.09391808509827,8.568710833787918 76.09391808509827,8.568710833787918 73.93788695335388,10.234217345714569 73.93788695335388,10.234217345714569 72.27187752723694,12.390086054801941 72.27187752723694,12.390086054801941 71.19808793067932,14.935129880905151 71.19808793067932,14.935129880905151 70.81758379936218,17.767776548862457 70.81758379936218,17.767776548862457 70.96869349479675,19.367511570453644 70.96869349479675,19.367511570453644 71.34141325950623,20.92415988445282 71.34141325950623,20.92415988445282 71.90104722976685,22.428102791309357 71.90104722976685,22.428102791309357 72.61235117912292,23.86966645717621 72.61235117912292,23.86966645717621 73.44062924385071,25.23951232433319 73.44062924385071,25.23951232433319 74.35085773468018,26.528015732765198 74.35085773468018,26.528015732765198 72.57532477378845,26.528015732765198 72.57532477378845,26.528015732765198 72.10786938667297,26.590895652770996 72.10786938667297,26.590895652770996 71.68789505958557,26.768362522125244 71.68789505958557,26.768362522125244 71.332186460495,27.043509483337402 71.332186460495,27.043509483337402 71.05720639228821,27.399548888206482 71.05720639228821,27.399548888206482 70.88029384613037,27.819859981536865 70.88029384613037,27.819859981536865 70.81758379936218,28.28753888607025 70.81758379936218,28.28753888607025 70.88040709495544,28.754550218582153 70.88040709495544,28.754550218582153 71.05742692947388,29.17463779449463 71.05742692947388,29.17463779449463 71.332186460495,29.530900716781616 71.332186460495,29.530900716781616 71.6877818107605,29.806268215179443 71.6877818107605,29.806268215179443 72.1077561378479,29.98395562171936 72.1077561378479,29.98395562171936 72.57532477378845,30.047059059143066 72.57532477378845,30.047059059143066 72.57532477378845,30.04527986049652 72.57532477378845,30.04527986049652 78.19725275039673,30.04527986049652 78.19725275039673,30.04527986049652 78.54428291320801,30.010586977005005 78.54428291320801,30.010586977005005 78.87163758277893,29.91017997264862 78.87163758277893,29.91017997264862 79.17107939720154,29.7495037317276 79.17107939720154,29.7495037317276 79.43404912948608,29.53384518623352 79.43404912948608,29.53384518623352 79.65254783630371,29.268983006477356 79.65254783630371,29.268983006477356 79.81800436973572,28.960034251213074 79.81800436973572,28.960034251213074 79.91940975189209,28.625118732452393 79.91940975189209,28.625118732452393 79.95221018791199,28.28342318534851 79.95221018791199,28.28342318534851 79.9187421798706,27.944618463516235 79.9187421798706,27.944618463516235 79.82066869735718,27.618488669395447 79.82066869735718,27.618488669395447 79.66010570526123,27.315041422843933 79.66010570526123,27.315041422843933 79.43905591964722,27.04395353794098 79.43905591964722,27.04395353794098 78.2044768333435,25.72598159313202 78.2044768333435,25.72598159313202 77.00793147087097,24.20724928379059 77.00793147087097,24.20724928379059 75.93602538108826,22.569985687732697 75.93602538108826,22.569985687732697 75.07516741752625,20.89613974094391 75.07516741752625,20.89613974094391 74.51197504997253,19.26804929971695 74.51197504997253,19.26804929971695 74.33306574821472,17.767776548862457 74.33306574821472,17.767776548862457 74.5905876159668,15.869931876659393 74.5905876159668,15.869931876659393 75.31101107597351,14.165452122688293 75.31101107597351,14.165452122688293 76.42683386802673,12.721830606460571 76.42683386802673,12.721830606460571 77.87034511566162,11.606396734714508 77.87034511566162,11.606396734714508 79.57415580749512,10.886698961257935 79.57415580749512,10.886698961257935 81.47077560424805,10.630065202713013 81.47077560424805,10.630065202713013 83.36795568466187,10.886865854263306 83.36795568466187,10.886865854263306 85.07187962532043,11.606785655021667 85.07187962532043,11.606785655021667 86.51538491249084,12.722498178482056 86.51538491249084,12.722498178482056 87.63076663017273,14.166118204593658 87.63076663017273,14.166118204593658 88.3509635925293,15.870431065559387 88.3509635925293,15.870431065559387 88.60848546028137,17.767776548862457 88.60848546028137,17.767776548862457 88.43157887458801,19.267605245113373 88.43157887458801,19.267605245113373 87.87528276443481,20.888689160346985 87.87528276443481,20.888689160346985 87.02220916748047,22.553974390029907 87.02220916748047,22.553974390029907 85.95408201217651,24.186234176158905 85.95408201217651,24.186234176158905 84.75364446640015,25.70863366127014 84.75364446640015,25.70863366127014 83.50249528884888,27.04395353794098 83.50249528884888,27.04395353794098 83.28111171722412,27.315154671669006 83.28111171722412,27.315154671669006 83.11988115310669,27.618545293807983 83.11988115310669,27.618545293807983 83.02125334739685,27.944618463516235 83.02125334739685,27.944618463516235 82.98700451850891,28.283312916755676 82.98700451850891,28.283312916755676 83.01991820335388,28.625065088272095 83.01991820335388,28.625065088272095 83.12177062034607,28.960034251213074 83.12177062034607,28.960034251213074 83.28745365142822,29.269039630889893 83.28745365142822,29.269039630889893 83.50616693496704,29.533958435058594 83.50616693496704,29.533958435058594 83.77003073692322,29.7495037317276 83.77003073692322,29.7495037317276 84.07036066055298,29.910123348236084 84.07036066055298,29.910123348236084 84.39915776252747,30.01047670841217 84.39915776252747,30.01047670841217 84.74786281585693,30.04527986049652 84.74786281585693,30.04527986049652 90.36622643470764,30.04527986049652 90.36622643470764,30.04527986049652 90.83390831947327,29.98245358467102 90.83390831947327,29.98245358467102 91.25410914421082,29.80498969554901 91.25410914421082,29.80498969554901 91.61025881767273,29.530009627342224 91.61025881767273,29.530009627342224 91.88535213470459,29.17408049106598 91.88535213470459,29.17408049106598 92.06270575523376,28.754383325576782 92.06270575523376,28.754383325576782 92.1257495880127,28.28753888607025 92.1257495880127,28.28753888607025 92.06292629241943,27.820080518722534 92.06292629241943,27.820080518722534 91.88545942306519,27.400106191635132 91.88545942306519,27.400106191635132 91.61025881767273,27.044397592544556 91.61025881767273,27.044397592544556 91.25399589538574,26.769474148750305 91.25399589538574,26.769474148750305 90.8337950706482,26.592454314231873 90.8337950706482,26.592454314231873" stroke="white" stroke-width="0.1" /><polygon points="40.96088707447052,36.592331528663635 40.96088707447052,36.592331528663635 40.52367806434631,36.990514397621155 40.52367806434631,36.990514397621155 40.01741409301758,37.27694749832153 40.01741409301758,37.27694749832153 39.457112550735474,37.469202280044556 39.457112550735474,37.469202280044556 38.85789215564728,37.58473098278046 38.85789215564728,37.58473098278046 38.23498785495758,37.641215324401855 38.23498785495758,37.641215324401855 37.603744864463806,37.65622675418854 37.603744864463806,37.65622675418854 37.32087016105652,37.654003500938416 37.32087016105652,37.654003500938416 37.040552496910095,37.64844536781311 37.040552496910095,37.64844536781311 36.76445782184601,37.64110505580902 36.76445782184601,37.64110505580902 36.493927240371704,37.6336544752121 36.493927240371704,37.6336544752121 36.23062074184418,37.62809634208679 36.23062074184418,37.62809634208679 35.975876450538635,37.625983357429504 35.975876450538635,37.625983357429504 3.5003602504730225,37.625983357429504 3.5003602504730225,37.625983357429504 3.071710839867592,37.61558532714844 3.071710839867592,37.61558532714844 2.643728442490101,37.579336762428284 2.643728442490101,37.579336762428284 2.2216390818357468,37.509897351264954 2.2216390818357468,37.509897351264954 1.8103357404470444,37.39975988864899 1.8103357404470444,37.39975988864899 1.41548877581954,37.241700291633606 1.41548877581954,37.241700291633606 1.0416574776172638,37.02820837497711 1.0416574776172638,37.02820837497711 0.4627858754247427,36.48108243942261 0.4627858754247427,36.48108243942261 0.12664899695664644,35.830214619636536 0.12664899695664644,35.830214619636536 0.002335056160518434,35.1127952337265 0.002335056160518434,35.1127952337265 0.058487599017098546,34.36535596847534 0.058487599017098546,34.36535596847534 0.2644173102453351,33.62525403499603 0.2644173102453351,33.62525403499603 0.5888789426535368,32.92918503284454 0.5888789426535368,32.92918503284454 16.06607586145401,5.5134013295173645 16.06607586145401,5.5134013295173645 16.403324902057648,4.916127026081085 16.403324902057648,4.916127026081085 16.740573942661285,4.318185895681381 16.740573942661285,4.318185895681381 17.078156769275665,3.719855844974518 17.078156769275665,3.719855844974518 17.415738105773926,3.1213030219078064 17.415738105773926,3.1213030219078064 17.75343269109726,2.522972598671913 17.75343269109726,2.522972598671913 18.09156984090805,1.9249757751822472 18.09156984090805,1.9249757751822472 18.433822691440582,1.4012561179697514 18.433822691440582,1.4012561179697514 18.8338965177536,0.9380809962749481 18.8338965177536,0.9380809962749481 19.28256005048752,0.5508508533239365 19.28256005048752,0.5508508533239365 19.770142436027527,0.25507709942758083 19.770142436027527,0.25507709942758083 20.287635922431946,0.06632671575061977 20.287635922431946,0.06632671575061977 20.82514315843582,0.0 20.82514315843582,0.0 21.101124584674835,0.017735308210831136 21.101124584674835,0.017735308210831136 21.37799561023712,0.07216435624286532 21.37799561023712,0.07216435624286532 21.655310690402985,0.16545540420338511 21.655310690402985,0.16545540420338511 21.931292116642,0.2996099414303899 21.931292116642,0.2996099414303899 22.205272316932678,0.4768518265336752 22.205272316932678,0.4768518265336752 22.476138174533844,0.699182553216815 22.476138174533844,0.699182553216815 22.731882333755493,0.9571506641805172 22.731882333755493,0.9571506641805172 22.960051894187927,1.2336879968643188 22.960051894187927,1.2336879968643188 23.166871070861816,1.5253476798534393 23.166871070861816,1.5253476798534393 23.35778921842575,1.8279597163200378 23.35778921842575,1.8279597163200378 23.53903353214264,2.1380219608545303 23.53903353214264,2.1380219608545303 23.716165125370026,2.451586537063122 23.716165125370026,2.451586537063122 31.44097626209259,16.13457053899765 31.44097626209259,16.13457053899765 40.06422758102417,31.409841775894165 40.06422758102417,31.409841775894165 40.52434265613556,32.20698535442352 40.52434265613556,32.20698535442352 40.98735153675079,33.0665647983551 40.98735153675079,33.0665647983551 41.357848048210144,33.96172523498535 41.357848048210144,33.96172523498535 41.54031574726105,34.86555814743042 41.54031574726105,34.86555814743042 41.43979847431183,35.75132191181183 41.43979847431183,35.75132191181183" stroke="white" stroke-width="0.1" /><polygon points="30.104878544807434,32.42926001548767 30.104878544807434,32.42926001548767 30.388420820236206,32.40496516227722 30.388420820236206,32.40496516227722 30.659064650535583,32.33391344547272 30.659064650535583,32.33391344547272 30.911695957183838,32.21888244152069 30.911695957183838,32.21888244152069 31.141087412834167,32.06254541873932 31.141087412834167,32.06254541873932 31.342458724975586,31.867900490760803 31.342458724975586,31.867900490760803 31.510359048843384,31.637564301490784 31.510359048843384,31.637564301490784 31.636562943458557,31.382375955581665 31.636562943458557,31.382375955581665 31.715956330299377,31.113621592521667 31.715956330299377,31.113621592521667 31.748536229133606,30.837419629096985 31.748536229133606,30.837419629096985 31.7339688539505,30.55960237979889 31.7339688539505,30.55960237979889 31.672480702400208,30.286458134651184 31.672480702400208,30.286458134651184 31.563732028007507,30.023929476737976 31.563732028007507,30.023929476737976 22.23062366247177,12.14229241013527 22.23062366247177,12.14229241013527 22.066503763198853,11.887937784194946 22.066503763198853,11.887937784194946 21.862685680389404,11.671611666679382 21.862685680389404,11.671611666679382 21.625511348247528,11.496926844120026 21.625511348247528,11.496926844120026 21.360649168491364,11.367609351873398 21.360649168491364,11.367609351873398 21.074771881103516,11.287438869476318 21.074771881103516,11.287438869476318 20.773549377918243,11.259863525629044 20.773549377918243,11.259863525629044 20.472215116024017,11.287438869476318 20.472215116024017,11.287438869476318 20.18578201532364,11.367665231227875 20.18578201532364,11.367665231227875 19.920919835567474,11.496926844120026 19.920919835567474,11.496926844120026 19.683411717414856,11.671500653028488 19.683411717414856,11.671500653028488 19.47992742061615,11.887826770544052 19.47992742061615,11.887826770544052 19.316473603248596,12.14229241013527 19.316473603248596,12.14229241013527 9.98336598277092,30.023929476737976 9.98336598277092,30.023929476737976 9.873507171869278,30.28656840324402 9.873507171869278,30.28656840324402 9.811127930879593,30.559712648391724 9.811127930879593,30.559712648391724 9.796339273452759,30.837419629096985 9.796339273452759,30.837419629096985 9.828807413578033,31.113621592521667 9.828807413578033,31.113621592521667 9.908310323953629,31.382375955581665 9.908310323953629,31.382375955581665 10.034959763288498,31.637564301490784 10.034959763288498,31.637564301490784 10.202860832214355,31.86795711517334 10.202860832214355,31.86795711517334 10.40412038564682,32.06265568733215 10.40412038564682,32.06265568733215 10.633623600006104,32.21888244152069 10.633623600006104,32.21888244152069 10.886143147945404,32.333800196647644 10.886143147945404,32.333800196647644 11.156786978244781,32.40485191345215 11.156786978244781,32.40485191345215 11.440441012382507,32.42926001548767 11.440441012382507,32.42926001548767 16.233310103416443,32.42926001548767 16.233310103416443,32.42926001548767 16.670522093772888,32.37054944038391 16.670522093772888,32.37054944038391 17.06336736679077,32.2047621011734 17.06336736679077,32.2047621011734 17.396280169487,31.947794556617737 17.396280169487,31.947794556617737 17.653357982635498,31.61526918411255 17.653357982635498,31.61526918411255 17.819146811962128,31.223204731941223 17.819146811962128,31.223204731941223 17.878079414367676,30.787160992622375 17.878079414367676,30.787160992622375 17.819370329380035,30.348947644233704 17.819370329380035,30.348947644233704 17.653469741344452,29.955658316612244 17.653469741344452,29.955658316612244 17.396280169487,29.622745513916016 17.396280169487,29.622745513916016 17.063255608081818,29.36561107635498 17.063255608081818,29.36561107635498 16.670410335063934,29.20004427433014 16.670410335063934,29.20004427433014 16.233310103416443,29.14150059223175 16.233310103416443,29.14150059223175 16.233310103416443,29.139721393585205 16.233310103416443,29.139721393585205 14.152663946151733,29.139721393585205 14.152663946151733,29.139721393585205 15.534128248691559,26.494213938713074 15.534128248691559,26.494213938713074 26.011192798614502,26.494213938713074 26.011192798614502,26.494213938713074 27.391764521598816,29.139721393585205 27.391764521598816,29.139721393585205 25.313788652420044,29.139721393585205 25.313788652420044,29.139721393585205 24.875465035438538,29.1985422372818 24.875465035438538,29.1985422372818 24.481840431690216,29.364442825317383 24.481840431690216,29.364442825317383 24.14848357439041,29.621854424476624 24.14848357439041,29.621854424476624 23.890849947929382,29.955101013183594 23.890849947929382,29.955101013183594 23.7249493598938,30.348780751228333 23.7249493598938,30.348780751228333 23.666350543498993,30.787160992622375 23.666350543498993,30.787160992622375 23.725171387195587,31.223982572555542 23.725171387195587,31.223982572555542 23.890960216522217,31.616660952568054 23.890960216522217,31.616660952568054 24.14848357439041,31.949350237846375 24.14848357439041,31.949350237846375 24.481618404388428,32.206374406814575 24.481618404388428,32.206374406814575 24.875465035438538,32.37221837043762 24.875465035438538,32.37221837043762 25.313788652420044,32.431039214134216 25.313788652420044,32.431039214134216" stroke="white" stroke-width="0.1" /></svg>