<?xml version="1.0" encoding="utf-8" ?>
<svg baseProfile="full" height="100.0" version="1.1" width="81.73092007637024" xmlns="http://www.w3.org/2000/svg" xmlns:ev="http://www.w3.org/2001/xml-events" xmlns:xlink="http://www.w3.org/1999/xlink"><defs><clipPath /></defs><polygon points="43.50800812244415,81.31558299064636 43.50800812244415,81.31558299064636 43.753835558891296,81.72674775123596 43.753835558891296,81.72674775123596 44.000813364982605,82.12607502937317 44.000813364982605,82.12607502937317 44.24971044063568,82.51403570175171 44.24971044063568,82.51403570175171 44.499754905700684,82.89097547531128 44.499754905700684,82.89097547531128 44.75133717060089,83.25737118721008 44.75133717060089,83.25737118721008 45.00521719455719,83.61355066299438 45.00521719455719,83.61355066299438 43.7787652015686,83.69672298431396 43.7787652015686,83.69672298431396 42.54080653190613,83.73919725418091 42.54080653190613,83.73919725418091 41.29748046398163,83.75238180160522 41.29748046398163,83.75238180160522 40.05492031574249,83.74763131141663 40.05492031574249,83.74763131141663 38.82002830505371,83.7364137172699 38.82002830505371,83.7364137172699 37.59894669055939,83.73013734817505 37.59894669055939,83.73013734817505 15.269681811332703,83.73013734817505 15.269681811332703,83.73013734817505 14.188961684703827,83.74049067497253 14.188961684703827,83.74049067497253 13.094434142112732,83.75588059425354 13.094434142112732,83.75588059425354 11.99607327580452,83.75276327133179 11.99607327580452,83.75276327133179 10.901162773370743,83.70741605758667 10.901162773370743,83.70741605758667 9.819292277097702,83.59629511833191 9.819292277097702,83.59629511833191 8.759281039237976,83.39571952819824 8.759281039237976,83.39571952819824 6.06515035033226,82.37621784210205 6.06515035033226,82.37621784210205 3.822597861289978,80.78998923301697 3.822597861289978,80.78998923301697 2.0651808008551598,78.73765230178833 2.0651808008551598,78.73765230178833 0.8249217644333839,76.31964683532715 0.8249217644333839,76.31964683532715 0.13595294440165162,73.63663911819458 0.13595294440165162,73.63663911819458 0.030680495547130704,70.7891047000885 0.030680495547130704,70.7891047000885 0.23432227317243814,67.84042119979858 0.23432227317243814,67.84042119979858 0.4377723205834627,64.89149928092957 0.4377723205834627,64.89149928092957 0.6412223447114229,61.94238066673279 0.6412223447114229,61.94238066673279 0.8444805629551411,58.99322032928467 0.8444805629551411,58.99322032928467 1.0481223464012146,56.04429841041565 1.0481223464012146,56.04429841041565 1.2517641298472881,53.09566259384155 1.2517641298472881,53.09566259384155 1.3190695084631443,51.97572708129883 1.3190695084631443,51.97572708129883 1.3777459040284157,50.8513867855072 1.3777459040284157,50.8513867855072 1.439298689365387,49.72541034221649 1.439298689365387,49.72541034221649 1.5125483274459839,48.600396513938904 1.5125483274459839,48.600396513938904 1.6095753759145737,47.47916758060455 1.6095753759145737,47.47916758060455 1.739584095776081,46.36436402797699 1.739584095776081,46.36436402797699 2.5576027110219,43.267837166786194 2.5576027110219,43.267837166786194 4.0726438164711,40.48444628715515 4.0726438164711,40.48444628715515 6.172148510813713,38.122814893722534 6.172148510813713,38.122814893722534 8.743173629045486,36.29138171672821 8.743173629045486,36.29138171672821 11.673928052186966,35.09882092475891 11.673928052186966,35.09882092475891 14.852426946163177,34.653618931770325 14.852426946163177,34.653618931770325 12.05628365278244,31.475791335105896 12.05628365278244,31.475791335105896 10.023317486047745,27.83377468585968 10.023317486047745,27.83377468585968 8.786893635988235,23.875944316387177 8.786893635988235,23.875944316387177 8.378075808286667,19.75061595439911 8.378075808286667,19.75061595439911 8.830612897872925,15.606208145618439 8.830612897872925,15.606208145618439 10.176719725131989,11.591091006994247 10.176719725131989,11.591091006994247 12.105756253004074,8.303603529930115 12.105756253004074,8.303603529930115 14.597012102603912,5.476995557546616 14.597012102603912,5.476995557546616 17.556145787239075,3.172362968325615 17.556145787239075,3.172362968325615 20.887281000614166,1.4506121166050434 20.887281000614166,1.4506121166050434 24.497224390506744,0.37283990532159805 24.497224390506744,0.37283990532159805 28.290483355522156,0.0 28.290483355522156,0.0 32.08259344100952,0.37300768308341503 32.08259344100952,0.37300768308341503 35.691386461257935,1.4512592926621437 35.691386461257935,1.4512592926621437 39.02367055416107,3.17351371049881 39.02367055416107,3.17351371049881 41.98280572891235,5.478385835886002 41.98280572891235,5.478385835886002 44.474828243255615,8.30468237400055 44.474828243255615,8.30468237400055 46.40424847602844,11.591091006994247 46.40424847602844,11.591091006994247 47.74920344352722,15.606208145618439 47.74920344352722,15.606208145618439 48.200973868370056,19.7505921125412 48.200973868370056,19.7505921125412 47.79215753078461,23.875944316387177 47.79215753078461,23.875944316387177 46.554580330848694,27.83379852771759 46.554580330848694,27.83379852771759 44.52046453952789,31.475839018821716 44.52046453952789,31.475839018821716 41.72240495681763,34.653618931770325 41.72240495681763,34.653618931770325 42.56381690502167,34.69139337539673 42.56381690502167,34.69139337539673 43.39372515678406,34.78496968746185 43.39372515678406,34.78496968746185 44.210976362228394,34.93242561817169 44.210976362228394,34.93242561817169 45.01250386238098,35.13175547122955 45.01250386238098,35.13175547122955 45.79754173755646,35.38108170032501 45.79754173755646,35.38108170032501 46.56378626823425,35.67834794521332 46.56378626823425,35.67834794521332 46.02726101875305,35.86372435092926 46.02726101875305,35.86372435092926 45.491886138916016,36.05590760707855 45.491886138916016,36.05590760707855 44.95919644832611,36.2566739320755 44.95919644832611,36.2566739320755 44.42765712738037,36.46760284900665 44.42765712738037,36.46760284900665 43.899184465408325,36.6905152797699 43.899184465408325,36.6905152797699 43.37301552295685,36.92704141139984 43.37301552295685,36.92704141139984 42.63668358325958,36.484476923942566 42.63668358325958,36.484476923942566 41.85049533843994,36.07441186904907 41.85049533843994,36.07441186904907 41.012534499168396,35.70634126663208 41.012534499168396,35.70634126663208 40.120115876197815,35.38956642150879 40.120115876197815,35.38956642150879 39.172470569610596,35.1337194442749 39.172470569610596,35.1337194442749 38.16653490066528,34.94815230369568 38.16653490066528,34.94815230369568 37.93029487133026,34.91564989089966 37.93029487133026,34.91564989089966 37.68638372421265,34.88889932632446 37.68638372421265,34.88889932632446 37.436339259147644,34.86799895763397 37.436339259147644,34.86799895763397 37.18092441558838,34.85294580459595 37.18092441558838,34.85294580459595 36.92167401313782,34.84383821487427 36.92167401313782,34.84383821487427 36.660122871398926,34.840768575668335 36.660122871398926,34.840768575668335 34.473371505737305,35.071590542793274 34.473371505737305,35.071590542793274 32.42391347885132,35.74363887310028 32.42391347885132,35.74363887310028 30.554702877998352,36.826181411743164 30.554702877998352,36.826181411743164 28.907161951065063,38.28834593296051 28.907161951065063,38.28834593296051 27.523469924926758,40.099406242370605 27.523469924926758,40.099406242370605 26.446586847305298,42.2286331653595 26.446586847305298,42.2286331653595 25.91964900493622,43.77147853374481 25.91964900493622,43.77147853374481 25.5361407995224,45.306989550590515 25.5361407995224,45.306989550590515 25.269222259521484,46.816131472587585 25.269222259521484,46.816131472587585 25.09012520313263,48.27973544597626 25.09012520313263,48.27973544597626 24.9723881483078,49.67871904373169 24.9723881483078,49.67871904373169 24.888016283512115,50.9940505027771 24.888016283512115,50.9940505027771 24.878813326358795,51.19040608406067 24.878813326358795,51.19040608406067 24.82243776321411,52.43181586265564 24.82243776321411,52.43181586265564 24.862705171108246,54.092299938201904 24.862705171108246,54.092299938201904 25.128859281539917,56.04405999183655 25.128859281539917,56.04405999183655 25.749370455741882,58.15938115119934 25.749370455741882,58.15938115119934 26.854637265205383,60.31075716018677 26.854637265205383,60.31075716018677 28.572744131088257,62.37037777900696 28.572744131088257,62.37037777900696 29.077056050300598,62.83556818962097 29.077056050300598,62.83556818962097 29.5813649892807,63.27257752418518 29.5813649892807,63.27257752418518 30.082225799560547,63.68388533592224 30.082225799560547,63.68388533592224 30.574646592140198,64.07189965248108 30.574646592140198,64.07189965248108 31.054794788360596,64.43910598754883 31.054794788360596,64.43910598754883 31.51807188987732,64.78800177574158 31.51807188987732,64.78800177574158 31.832164525985718,65.02519845962524 31.832164525985718,65.02519845962524 32.13781714439392,65.25803208351135 32.13781714439392,65.25803208351135 32.431966066360474,65.48636555671692 32.431966066360474,65.48636555671692 32.71154165267944,65.7097578048706 32.71154165267944,65.7097578048706 32.973477244377136,65.92806577682495 32.973477244377136,65.92806577682495 33.21470320224762,66.14100933074951 33.21470320224762,66.14100933074951 33.698686957359314,66.58961772918701 33.698686957359314,66.58961772918701 34.18727517127991,67.06286072731018 34.18727517127991,67.06286072731018 34.681615233421326,67.56343245506287 34.681615233421326,67.56343245506287 35.18438935279846,68.0938720703125 35.18438935279846,68.0938720703125 35.69790422916412,68.65690350532532 35.69790422916412,68.65690350532532 36.22446060180664,69.2550778388977 36.22446060180664,69.2550778388977 36.86683177947998,70.00641822814941 36.86683177947998,70.00641822814941 37.51380741596222,70.78977227210999 37.51380741596222,70.78977227210999 38.16768527030945,71.60788774490356 38.16768527030945,71.60788774490356 38.830000162124634,72.4635899066925 38.830000162124634,72.4635899066925 39.50420320034027,73.35965037345886 39.50420320034027,73.35965037345886 40.191447734832764,74.29895401000977 40.191447734832764,74.29895401000977 40.42385220527649,74.65772032737732 40.42385220527649,74.65772032737732 40.65319001674652,75.07957816123962 40.65319001674652,75.07957816123962 40.88214039802551,75.55416822433472 40.88214039802551,75.55416822433472 41.11071228981018,76.07089281082153 41.11071228981018,76.07089281082153 41.34119749069214,76.61940455436707 41.34119749069214,76.61940455436707 41.57513678073883,77.18905806541443 41.57513678073883,77.18905806541443 41.83898866176605,77.83281803131104 41.83898866176605,77.83281803131104 42.119717597961426,78.50016951560974 42.119717597961426,78.50016951560974 42.421919107437134,79.18673753738403 42.421919107437134,79.18673753738403 42.750200629234314,79.88778948783875 42.750200629234314,79.88778948783875 43.110695481300354,80.59890270233154 43.110695481300354,80.59890270233154" stroke="white" stroke-width="0.1" /><polygon points="81.69295191764832,51.57697796821594 81.69295191764832,51.57697796821594 81.73092007637024,52.7641236782074 81.73092007637024,52.7641236782074 81.6787600517273,53.91857028007507 81.6787600517273,53.91857028007507 81.49659633636475,55.028533935546875 81.49659633636475,55.028533935546875 81.14415407180786,56.08221888542175 81.14415407180786,56.08221888542175 80.58270215988159,57.0679247379303 80.58270215988159,57.0679247379303 79.77235317230225,57.97386169433594 79.77235317230225,57.97386169433594 79.19018864631653,58.47395658493042 79.19018864631653,58.47395658493042 78.58578562736511,58.95026922225952 78.58578562736511,58.95026922225952 77.96987295150757,59.413546323776245 77.96987295150757,59.413546323776245 77.35012769699097,59.87423062324524 77.35012769699097,59.87423062324524 76.73728466033936,60.342925786972046 76.73728466033936,60.342925786972046 76.13978385925293,60.830217599868774 76.13978385925293,60.830217599868774 74.58581328392029,62.2456431388855 74.58581328392029,62.2456431388855 73.10893535614014,63.745296001434326 73.10893535614014,63.745296001434326 71.70107960700989,65.31416773796082 71.70107960700989,65.31416773796082 70.35267353057861,66.93721413612366 70.35267353057861,66.93721413612366 69.05565857887268,68.59947443008423 69.05565857887268,68.59947443008423 67.80082583427429,70.28594613075256 67.80082583427429,70.28594613075256 66.55749678611755,72.29129672050476 66.55749678611755,72.29129672050476 65.52931666374207,74.40844178199768 65.52931666374207,74.40844178199768 64.5655632019043,76.55550241470337 64.5655632019043,76.55550241470337 63.51245641708374,78.6503553390503 63.51245641708374,78.6503553390503 62.21774220466614,80.61107993125916 62.21774220466614,80.61107993125916 60.529547929763794,82.35564827919006 60.529547929763794,82.35564827919006 60.14680862426758,82.77904391288757 60.14680862426758,82.77904391288757 59.94585156440735,83.24106931686401 59.94585156440735,83.24106931686401 59.884488582611084,83.74010920524597 59.884488582611084,83.74010920524597 59.91823673248291,84.27442908287048 59.91823673248291,84.27442908287048 60.00452637672424,84.84235405921936 60.00452637672424,84.84235405921936 60.1000189781189,85.4421079158783 60.1000189781189,85.4421079158783 60.17671823501587,85.96434593200684 60.17671823501587,85.96434593200684 60.2664589881897,86.48452758789062 60.2664589881897,86.48452758789062 60.37154197692871,87.00221180915833 60.37154197692871,87.00221180915833 60.49119830131531,87.51677870750427 60.49119830131531,87.51677870750427 60.62734127044678,88.02780508995056 60.62734127044678,88.02780508995056 60.78112721443176,88.53470087051392 60.78112721443176,88.53470087051392 61.114394664764404,89.4563615322113 61.114394664764404,89.4563615322113 61.52513027191162,90.35400748252869 61.52513027191162,90.35400748252869 62.020617723464966,91.20620489120483 62.020617723464966,91.20620489120483 62.607765197753906,91.99134111404419 62.607765197753906,91.99134111404419 63.2946252822876,92.68807172775269 63.2946252822876,92.68807172775269 64.08848166465759,93.27483773231506 64.08848166465759,93.27483773231506 65.1392936706543,93.96917819976807 65.1392936706543,93.96917819976807 66.22154712677002,94.83005404472351 66.22154712677002,94.83005404472351 67.2048568725586,95.83742618560791 67.2048568725586,95.83742618560791 67.95576214790344,96.97107076644897 67.95576214790344,96.97107076644897 68.34386587142944,98.2108473777771 68.34386587142944,98.2108473777771 68.23648810386658,99.53672885894775 68.23648810386658,99.53672885894775 68.16515326499939,99.70206618309021 68.16515326499939,99.70206618309021 68.06544065475464,99.82454776763916 68.06544065475464,99.82454776763916 67.94118881225586,99.90987777709961 67.94118881225586,99.90987777709961 67.79545545578003,99.96376037597656 67.79545545578003,99.96376037597656 67.63284802436829,99.99189972877502 67.63284802436829,99.99189972877502 67.45720505714417,100.0 67.45720505714417,100.0 67.29459762573242,99.99492168426514 67.29459762573242,99.99492168426514 67.12892055511475,99.9824583530426 67.12892055511475,99.9824583530426 66.96248054504395,99.96625185012817 66.96248054504395,99.96625185012817 66.79719090461731,99.9500036239624 66.79719090461731,99.9500036239624 66.6361153125763,99.93749260902405 66.6361153125763,99.93749260902405 66.4815604686737,99.93250370025635 66.4815604686737,99.93250370025635 52.405351400375366,99.93250370025635 52.405351400375366,99.93250370025635 45.6495076417923,99.93250370025635 45.6495076417923,99.93250370025635 45.12103497982025,99.87785816192627 45.12103497982025,99.87785816192627 44.757089018821716,99.71361756324768 44.757089018821716,99.71361756324768 44.539639353752136,99.43893551826477 44.539639353752136,99.43893551826477 44.449132680892944,99.05303120613098 44.449132680892944,99.05303120613098 44.467541575431824,98.55509400367737 44.467541575431824,98.55509400367737 44.57569122314453,97.94440865516663 44.57569122314453,97.94440865516663 44.8786586523056,97.04757928848267 44.8786586523056,97.04757928848267 45.35190761089325,96.22668623924255 45.35190761089325,96.22668623924255 45.956310629844666,95.4792320728302 45.956310629844666,95.4792320728302 46.651992201805115,94.80224847793579 46.651992201805115,94.80224847793579 47.401362657547,94.1931426525116 47.401362657547,94.1931426525116 48.16530644893646,93.64914298057556 48.16530644893646,93.64914298057556 49.01362359523773,93.03131103515625 49.01362359523773,93.03131103515625 49.76452887058258,92.37321615219116 49.76452887058258,92.37321615219116 50.424158573150635,91.65912866592407 50.424158573150635,91.65912866592407 50.99558234214783,90.87312817573547 50.99558234214783,90.87312817573547 51.484936475753784,89.99950289726257 51.484936475753784,89.99950289726257 51.89605355262756,89.02252316474915 51.89605355262756,89.02252316474915 52.1767795085907,88.20004463195801 52.1767795085907,88.20004463195801 52.52500772476196,87.02751994132996 52.52500772476196,87.02751994132996 52.84331440925598,85.69406867027283 52.84331440925598,85.69406867027283 53.03429961204529,84.38842296600342 53.03429961204529,84.38842296600342 53.00055146217346,83.29955339431763 53.00055146217346,83.29955339431763 52.64465808868408,82.61643648147583 52.64465808868408,82.61643648147583 51.898354291915894,81.99323415756226 51.898354291915894,81.99323415756226 51.21034383773804,81.30633234977722 51.21034383773804,81.30633234977722 50.57526230812073,80.5673599243164 50.57526230812073,80.5673599243164 49.987730383872986,79.78769540786743 49.987730383872986,79.78769540786743 49.44391846656799,78.97887825965881 49.44391846656799,78.97887825965881 48.93845617771149,78.15242409706116 48.93845617771149,78.15242409706116 48.29186499118805,76.91268920898438 48.29186499118805,76.91268920898438 47.72580862045288,75.62555074691772 47.72580862045288,75.62555074691772 47.19120264053345,74.32196140289307 47.19120264053345,74.32196140289307 46.6389536857605,73.03261756896973 46.6389536857605,73.03261756896973 46.020740270614624,71.78851962089539 46.020740270614624,71.78851962089539 45.28747797012329,70.62036395072937 45.28747797012329,70.62036395072937 44.6010023355484,69.68096494674683 44.6010023355484,69.68096494674683 43.90302002429962,68.7502920627594 43.90302002429962,68.7502920627594 43.19276511669159,67.82958507537842 43.19276511669159,67.82958507537842 42.46870577335358,66.91981554031372 42.46870577335358,66.91981554031372 41.72930717468262,66.02221727371216 41.72930717468262,66.02221727371216 40.97380042076111,65.13775587081909 40.97380042076111,65.13775587081909 40.4169499874115,64.50496912002563 40.4169499874115,64.50496912002563 39.849358797073364,63.88096213340759 39.849358797073364,63.88096213340759 39.27103281021118,63.2673978805542 39.27103281021118,63.2673978805542 38.680049777030945,62.665772438049316 38.680049777030945,62.665772438049316 38.076409697532654,62.07785606384277 38.076409697532654,62.07785606384277 37.45781481266022,61.505186557769775 37.45781481266022,61.505186557769775 36.71841621398926,60.86808443069458 36.71841621398926,60.86808443069458 35.95140278339386,60.26425361633301 35.95140278339386,60.26425361633301 35.17288565635681,59.67586040496826 35.17288565635681,59.67586040496826 34.39666926860809,59.08483266830444 34.39666926860809,59.08483266830444 33.63771140575409,58.4733784198761 33.63771140575409,58.4733784198761 32.910966873168945,57.82352685928345 32.910966873168945,57.82352685928345 32.154691219329834,56.93446397781372 32.154691219329834,56.93446397781372 31.634658575057983,55.96649646759033 31.634658575057983,55.96649646759033 31.31251335144043,54.93304133415222 31.31251335144043,54.93304133415222 31.149905920028687,53.8470983505249 31.149905920028687,53.8470983505249 31.108102202415466,52.721983194351196 31.108102202415466,52.721983194351196 31.149905920028687,51.570844650268555 31.149905920028687,51.570844650268555 31.2227725982666,50.39482116699219 31.2227725982666,50.39482116699219 31.314045190811157,49.20432269573212 31.314045190811157,49.20432269573212 31.445971131324768,48.01228940486908 31.445971131324768,48.01228940486908 31.637725234031677,46.83171212673187 31.637725234031677,46.83171212673187 31.910398602485657,45.67573070526123 31.910398602485657,45.67573070526123 32.28508532047272,44.55728232860565 32.28508532047272,44.55728232860565 32.72995054721832,43.640318512916565 32.72995054721832,43.640318512916565 33.299073576927185,42.81904101371765 33.299073576927185,42.81904101371765 33.98478329181671,42.12508499622345 33.98478329181671,42.12508499622345 34.77863967418671,41.590094566345215 34.77863967418671,41.590094566345215 35.672977566719055,41.245946288108826 35.672977566719055,41.245946288108826 36.660122871398926,41.1241352558136 36.660122871398926,41.1241352558136 36.761367321014404,41.12519025802612 36.761367321014404,41.12519025802612 36.86414659023285,41.1284476518631 36.86414659023285,41.1284476518631 36.9676947593689,41.13410413265228 36.9676947593689,41.13410413265228 37.071239948272705,41.14230275154114 37.071239948272705,41.14230275154114 37.175554037094116,41.153281927108765 37.175554037094116,41.153281927108765 37.27986812591553,41.167086362838745 37.27986812591553,41.167086362838745 38.32952380180359,41.414785385131836 38.32952380180359,41.414785385131836 39.29672837257385,41.823264956474304 39.29672837257385,41.823264956474304 40.19758403301239,42.36017465591431 40.19758403301239,42.36017465591431 41.044747829437256,42.992910742759705 41.044747829437256,42.992910742759705 41.85318052768707,43.689072132110596 41.85318052768707,43.689072132110596 42.63668358325958,44.41615045070648 42.63668358325958,44.41615045070648 42.639365792274475,44.41768527030945 42.639365792274475,44.41768527030945 42.64243543148041,44.419074058532715 42.64243543148041,44.419074058532715 42.6458865404129,44.42037045955658 42.6458865404129,44.42037045955658 42.648956179618835,44.421377778053284 42.648956179618835,44.421377778053284 42.65202283859253,44.42209601402283 42.65202283859253,44.42209601402283 42.65508949756622,44.42228674888611 42.65508949756622,44.42228674888611 42.98260509967804,44.29994821548462 42.98260509967804,44.29994821548462 43.582409620285034,43.9910352230072 43.582409620285034,43.9910352230072 44.32027339935303,43.582409620285034 44.32027339935303,43.582409620285034 45.06120979785919,43.16093623638153 45.06120979785919,43.16093623638153 45.671749114990234,42.81371831893921 45.671749114990234,42.81371831893921 46.01767361164093,42.62747764587402 46.01767361164093,42.62747764587402 46.96953594684601,42.207443714141846 46.96953594684601,42.207443714141846 47.93903827667236,41.825902462005615 47.93903827667236,41.825902462005615 48.926183581352234,41.48463010787964 48.926183581352234,41.48463010787964 49.92675185203552,41.18530452251434 49.92675185203552,41.18530452251434 50.939977169036865,40.9295529127121 50.939977169036865,40.9295529127121 51.96355581283569,40.71915149688721 51.96355581283569,40.71915149688721 52.694517374038696,40.594080090522766 52.694517374038696,40.594080090522766 53.42701077461243,40.491971373558044 53.42701077461243,40.491971373558044 54.161810874938965,40.4127299785614 54.161810874938965,40.4127299785614 54.896992444992065,40.35625755786896 54.896992444992065,40.35625755786896 55.63294291496277,40.32236635684967 55.63294291496277,40.32236635684967 56.36926889419556,40.31110107898712 56.36926889419556,40.31110107898712 58.091217279434204,40.371838212013245 58.091217279434204,40.371838212013245 59.803950786590576,40.55266082286835 59.803950786590576,40.55266082286835 61.50211691856384,40.85146188735962 61.50211691856384,40.85146188735962 63.17727565765381,41.26608073711395 63.17727565765381,41.26608073711395 64.82290029525757,41.79435968399048 64.82290029525757,41.79435968399048 66.43247604370117,42.43419170379639 66.43247604370117,42.43419170379639 67.07599759101868,42.73145794868469 67.07599759101868,42.73145794868469 67.71261692047119,43.044254183769226 67.71261692047119,43.044254183769226 68.34003329277039,43.37378144264221 68.34003329277039,43.37378144264221 68.95632743835449,43.721190094947815 68.95632743835449,43.721190094947815 69.56073641777039,44.08767819404602 69.56073641777039,44.08767819404602 70.15094757080078,44.474443793296814 70.15094757080078,44.474443793296814 70.91681361198425,43.7360018491745 70.91681361198425,43.7360018491745 71.7271625995636,43.030256032943726 71.7271625995636,43.030256032943726 72.58774638175964,42.38932132720947 72.58774638175964,42.38932132720947 73.50394129753113,41.84522032737732 73.50394129753113,41.84522032737732 74.48149919509888,41.4301723241806 74.48149919509888,41.4301723241806 75.52617192268372,41.176292300224304 75.52617192268372,41.176292300224304 75.66576600074768,41.15653932094574 75.66576600074768,41.15653932094574 75.80382823944092,41.14043414592743 75.80382823944092,41.14043414592743 75.94035863876343,41.127970814704895 75.94035863876343,41.127970814704895 76.07420086860657,41.119006276130676 76.07420086860657,41.119006276130676 76.20651125907898,41.113683581352234 76.20651125907898,41.113683581352234 76.3361394405365,41.111862659454346 76.3361394405365,41.111862659454346 78.35414409637451,41.64694845676422 78.35414409637451,41.64694845676422 79.77120280265808,43.05662214756012 79.77120280265808,43.05662214756012 80.70120215415955,45.047786831855774 80.70120215415955,45.047786831855774 81.25575184822083,47.327059507369995 81.25575184822083,47.327059507369995 81.54875040054321,49.601203203201294 81.54875040054321,49.601203203201294" stroke="white" stroke-width="0.1" /><polygon points="43.63073110580444,61.94391846656799 43.63073110580444,61.94391846656799 43.386054039001465,60.41334271430969 43.386054039001465,60.41334271430969 43.175509572029114,58.87606143951416 43.175509572029114,58.87606143951416 42.993342876434326,57.33455419540405 42.993342876434326,57.33455419540405 42.831504344940186,55.79123497009277 42.831504344940186,55.79123497009277 42.68423616886139,54.2485773563385 42.68423616886139,54.2485773563385 42.544642090797424,52.70909070968628 42.544642090797424,52.70909070968628 42.526233196258545,52.382051944732666 42.526233196258545,52.382051944732666 42.52009689807892,52.02990174293518 42.52009689807892,52.02990174293518 42.51396059989929,51.66633725166321 42.51396059989929,51.66633725166321 42.49478578567505,51.305073499679565 42.49478578567505,51.305073499679565 42.452216148376465,50.95981955528259 42.452216148376465,50.95981955528259 42.37283170223236,50.64429044723511 42.37283170223236,50.64429044723511 42.10207462310791,50.417160987854004 42.10207462310791,50.417160987854004 41.62806272506714,49.84314739704132 41.62806272506714,49.84314739704132 41.05203449726105,49.08303916454315 41.05203449726105,49.08303916454315 40.47447443008423,48.297569155693054 40.47447443008423,48.297569155693054 39.997777342796326,47.64762222766876 39.997777342796326,47.64762222766876 39.722034335136414,47.29398190975189 39.722034335136414,47.29398190975189 39.44667875766754,47.007933259010315 39.44667875766754,47.007933259010315 39.01791870594025,46.59082293510437 39.01791870594025,46.59082293510437 38.49098086357117,46.12428843975067 38.49098086357117,46.12428843975067 37.91802227497101,45.68996727466583 37.91802227497101,45.68996727466583 37.353119254112244,45.369499921798706 37.353119254112244,45.369499921798706 36.85034215450287,45.244523882865906 36.85034215450287,45.244523882865906 36.75753176212311,45.25075554847717 36.75753176212311,45.25075554847717 36.67086064815521,45.269933342933655 36.67086064815521,45.269933342933655 36.58955693244934,45.30281722545624 36.58955693244934,45.30281722545624 36.514389514923096,45.34998834133148 36.514389514923096,45.34998834133148 36.44612729549408,45.41216492652893 36.44612729549408,45.41216492652893 36.38399839401245,45.48996984958649 36.38399839401245,45.48996984958649 36.01123094558716,46.18842899799347 36.01123094558716,46.18842899799347 35.75811684131622,46.96761667728424 35.75811684131622,46.96761667728424 35.597044229507446,47.7952241897583 35.597044229507446,47.7952241897583 35.497331619262695,48.63893687725067 35.497331619262695,48.63893687725067 35.43213605880737,49.46644902229309 35.43213605880737,49.46644902229309 35.37154197692871,50.24544596672058 35.37154197692871,50.24544596672058 35.29790937900543,50.88455677032471 35.29790937900543,50.88455677032471 35.21008491516113,51.59318447113037 35.21008491516113,51.59318447113037 35.14067232608795,52.33440399169922 35.14067232608795,52.33440399169922 35.12149453163147,53.07121276855469 35.12149453163147,53.07121276855469 35.18592417240143,53.766798973083496 35.18592417240143,53.766798973083496 35.365405678749084,54.38424348831177 35.365405678749084,54.38424348831177 35.62082052230835,54.793351888656616 35.62082052230835,54.793351888656616 35.98668575286865,55.167269706726074 35.98668575286865,55.167269706726074 36.42081320285797,55.50944805145264 36.42081320285797,55.50944805145264 36.88102066516876,55.823540687561035 36.88102066516876,55.823540687561035 37.32665479183197,56.11299276351929 37.32665479183197,56.11299276351929 37.71553039550781,56.38154149055481 37.71553039550781,56.38154149055481 38.78014385700226,57.221806049346924 38.78014385700226,57.221806049346924 39.810243248939514,58.10176134109497 39.810243248939514,58.10176134109497 40.808892250061035,59.017765522003174 40.808892250061035,59.017765522003174 41.77647829055786,59.965938329696655 41.77647829055786,59.965938329696655 42.71645247936249,60.94258427619934 42.71645247936249,60.94258427619934" stroke="white" stroke-width="0.1" /><polygon points="77.5756299495697,51.56470537185669 77.5756299495697,51.56470537185669 77.51656770706177,50.62713027000427 77.51656770706177,50.62713027000427 77.45214104652405,49.668604135513306 77.45214104652405,49.668604135513306 77.36009955406189,48.704516887664795 77.36009955406189,48.704516887664795 77.21589803695679,47.750067710876465 77.21589803695679,47.750067710876465 76.99730396270752,46.820735931396484 76.99730396270752,46.820735931396484 76.67976021766663,45.9317684173584 76.67976021766663,45.9317684173584 76.58464908599854,45.755305886268616 76.58464908599854,45.755305886268616 76.4738142490387,45.614609122276306 76.4738142490387,45.614609122276306 76.34764313697815,45.507994294166565 76.34764313697815,45.507994294166565 76.20574235916138,45.433834195137024 76.20574235916138,45.433834195137024 76.05080604553223,45.39054334163666 76.05080604553223,45.39054334163666 75.8820652961731,45.37644982337952 75.8820652961731,45.37644982337952 74.97085332870483,45.64284384250641 74.97085332870483,45.64284384250641 73.93845915794373,46.33166790008545 73.93845915794373,46.33166790008545 72.90682792663574,47.27749228477478 72.90682792663574,47.27749228477478 71.99561595916748,48.31449091434479 71.99561595916748,48.31449091434479 71.32754921913147,49.27718937397003 71.32754921913147,49.27718937397003 71.02227807044983,50.0 71.02227807044983,50.0 70.79562544822693,51.41945481300354 70.79562544822693,51.41945481300354 70.57204246520996,52.839577198028564 70.57204246520996,52.839577198028564 70.35267353057861,54.26037311553955 70.35267353057861,54.26037311553955 70.13867497444153,55.68135976791382 70.13867497444153,55.68135976791382 69.93158459663391,57.102346420288086 69.93158459663391,57.102346420288086 69.73369717597961,58.523041009902954 69.73369717597961,58.523041009902954 69.65546011924744,59.09575819969177 69.65546011924744,59.09575819969177 69.57377195358276,59.6668004989624 69.57377195358276,59.6668004989624 69.48978304862976,60.236549377441406 69.48978304862976,60.236549377441406 69.40234303474426,60.80523729324341 69.40234303474426,60.80523729324341 69.31183934211731,61.373209953308105 69.31183934211731,61.373209953308105 69.21826004981995,61.94084882736206 69.21826004981995,61.94084882736206 69.95344161987305,61.12714409828186 69.95344161987305,61.12714409828186 70.70703506469727,60.32916307449341 70.70703506469727,60.32916307449341 71.47941589355469,59.54930782318115 71.47941589355469,59.54930782318115 72.27212190628052,58.78986716270447 72.27212190628052,58.78986716270447 73.08707237243652,58.05324912071228 73.08707237243652,58.05324912071228 73.92464876174927,57.34184384346008 73.92464876174927,57.34184384346008 74.47421550750732,56.919121742248535 74.47421550750732,56.919121742248535 75.05829334259033,56.505513191223145 75.05829334259033,56.505513191223145 75.65349340438843,56.08969330787659 75.65349340438843,56.08969330787659 76.23488903045654,55.66036105155945 76.23488903045654,55.66036105155945 76.77947282791138,55.206096172332764 76.77947282791138,55.206096172332764 77.26268768310547,54.71559166908264 77.26268768310547,54.71559166908264 77.51771807670593,54.28232550621033 77.51771807670593,54.28232550621033 77.64887809753418,53.76229286193848 77.64887809753418,53.76229286193848 77.68837809562683,53.193074464797974 77.68837809562683,53.193074464797974 77.66767144203186,52.61206030845642 77.66767144203186,52.61206030845642 77.61934995651245,52.05674767494202 77.61934995651245,52.05674767494202" stroke="white" stroke-width="0.1" /></svg>