<?xml version="1.0" encoding="utf-8" ?>
<svg baseProfile="full" height="100.0" version="1.1" width="81.20263814926147" xmlns="http://www.w3.org/2000/svg" xmlns:ev="http://www.w3.org/2001/xml-events" xmlns:xlink="http://www.w3.org/1999/xlink"><defs><clipPath /></defs><polygon points="16.923360526561737,83.73013734817505 16.923360526561737,83.73013734817505 15.269681811332703,83.73013734817505 15.269681811332703,83.73013734817505 14.190304279327393,83.74049067497253 14.190304279327393,83.74049067497253 13.096736371517181,83.75588059425354 13.096736371517181,83.75588059425354 11.998757719993591,83.75276327133179 11.998757719993591,83.75276327133179 10.904039442539215,83.70741605758667 10.904039442539215,83.70741605758667 9.822551906108856,83.59629511833191 9.822551906108856,83.59629511833191 8.76234918832779,83.39571952819824 8.76234918832779,83.39571952819824 6.0670677572488785,82.37617015838623 6.0670677572488785,82.37617015838623 3.8233648985624313,80.78998923301697 3.8233648985624313,80.78998923301697 2.0655643194913864,78.73765230178833 2.0655643194913864,78.73765230178833 0.8249217644333839,76.31964683532715 0.8249217644333839,76.31964683532715 0.13595294440165162,73.63663911819458 0.13595294440165162,73.63663911819458 0.030680495547130704,70.7891047000885 0.030680495547130704,70.7891047000885 0.2356645418331027,67.8404688835144 0.2356645418331027,67.8404688835144 0.4396898206323385,64.89145159721375 0.4396898206323385,64.89145159721375 0.6435233633965254,61.94238066673279 0.6435233633965254,61.94238066673279 0.8463981561362743,58.99322032928467 0.8463981561362743,58.99322032928467 1.0492729023098946,56.04429841041565 1.0492729023098946,56.04429841041565 1.2517641298472881,53.09566259384155 1.2517641298472881,53.09566259384155 1.3200282119214535,51.97572708129883 1.3200282119214535,51.97572708129883 1.379088219255209,50.8513867855072 1.379088219255209,50.8513867855072 1.4404491521418095,49.72541034221649 1.4404491521418095,49.72541034221649 1.5133153647184372,48.600396513938904 1.5133153647184372,48.600396513938904 1.6097672283649445,47.47916758060455 1.6097672283649445,47.47916758060455 1.739584095776081,46.36436402797699 1.739584095776081,46.36436402797699 2.558944933116436,43.267837166786194 2.558944933116436,43.267837166786194 4.074753075838089,40.48444628715515 4.074753075838089,40.48444628715515 6.174832955002785,38.122814893722534 6.174832955002785,38.122814893722534 8.74643325805664,36.29138171672821 8.74643325805664,36.29138171672821 11.67737990617752,35.09882092475891 11.67737990617752,35.09882092475891 14.85549509525299,34.653618931770325 14.85549509525299,34.653618931770325 12.05858439207077,31.475791335105896 12.05858439207077,31.475791335105896 10.025426745414734,27.83377468585968 10.025426745414734,27.83377468585968 8.788427710533142,23.875944316387177 8.788427710533142,23.875944316387177 8.379609882831573,19.75061595439911 8.379609882831573,19.75061595439911 8.831571787595749,15.606231987476349 8.831571787595749,15.606231987476349 10.176719725131989,11.591091006994247 10.176719725131989,11.591091006994247 12.105756253004074,8.303579688072205 12.105756253004074,8.303579688072205 14.597970247268677,5.477019399404526 14.597970247268677,5.477019399404526 17.55729615688324,3.172362968325615 17.55729615688324,3.172362968325615 20.888814330101013,1.4506121166050434 20.888814330101013,1.4506121166050434 24.49837476015091,0.37283990532159805 24.49837476015091,0.37283990532159805 28.290483355522156,0.0 28.290483355522156,0.0 32.08259344100952,0.37300768308341503 32.08259344100952,0.37300768308341503 35.69196164608002,1.4512832276523113 35.69196164608002,1.4512832276523113 39.024439454078674,3.17351371049881 39.024439454078674,3.17351371049881 41.983187198638916,5.478385835886002 41.983187198638916,5.478385835886002 44.47405934333801,8.30468237400055 44.47405934333801,8.30468237400055 46.40117883682251,11.591091006994247 46.40117883682251,11.591091006994247 47.747477889060974,15.606208145618439 47.747477889060974,15.606208145618439 48.200589418411255,19.75056827068329 48.200589418411255,19.75056827068329 47.79330790042877,23.875944316387177 47.79330790042877,23.875944316387177 46.55649960041046,27.83379852771759 46.55649960041046,27.83379852771759 44.523340463638306,31.475839018821716 44.523340463638306,31.475839018821716 41.72547161579132,34.653618931770325 41.72547161579132,34.653618931770325 43.829768896102905,34.85625386238098 43.829768896102905,34.85625386238098 45.84605395793915,35.39742827415466 45.84605395793915,35.39742827415466 47.74153232574463,36.245936155319214 47.74153232574463,36.245936155319214 49.48418438434601,37.37056851387024 49.48418438434601,37.37056851387024 51.04237198829651,38.740068674087524 51.04237198829651,38.740068674087524 52.38387584686279,40.323373675346375 52.38387584686279,40.323373675346375 49.913519620895386,43.39477717876434 49.913519620895386,43.39477717876434 47.511813044548035,46.681904792785645 47.511813044548035,46.681904792785645 45.28095722198486,50.13461112976074 45.28095722198486,50.13461112976074 43.32239031791687,53.70256304740906 43.32239031791687,53.70256304740906 41.73908531665802,57.33560919761658 41.73908531665802,57.33560919761658 40.633246302604675,60.98361611366272 40.633246302604675,60.98361611366272 40.41081368923187,62.06002235412598 40.41081368923187,62.06002235412598 40.23919403553009,63.111406564712524 40.23919403553009,63.111406564712524 40.11704623699188,64.1383409500122 40.11704623699188,64.1383409500122 40.04072844982147,65.14111161231995 40.04072844982147,65.14111161231995 40.009281039237976,66.12049341201782 40.009281039237976,66.12049341201782 40.0196373462677,67.07676649093628 40.0196373462677,67.07676649093628 39.948880672454834,67.07541942596436 39.948880672454834,67.07541942596436 39.87812399864197,67.07456111907959 39.87812399864197,67.07456111907959 39.807942509651184,67.07407832145691 39.807942509651184,67.07407832145691 39.73718285560608,67.07379221916199 39.73718285560608,67.07379221916199 39.666810631752014,67.07369685173035 39.666810631752014,67.07369685173035 39.59624469280243,67.07369685173035 39.59624469280243,67.07369685173035 35.34182012081146,67.25672483444214 35.34182012081146,67.25672483444214 31.09506368637085,67.74746775627136 31.09506368637085,67.74746775627136 27.026063203811646,68.45853924751282 27.026063203811646,68.45853924751282 23.302985727787018,69.30224895477295 23.302985727787018,69.30224895477295 20.095723867416382,70.1911211013794 20.095723867416382,70.1911211013794 17.57378727197647,71.03761434555054 17.57378727197647,71.03761434555054 16.235734522342682,71.73036932945251 16.235734522342682,71.73036932945251 15.131619572639465,72.68985509872437 15.131619572639465,72.68985509872437 14.289440214633942,73.86214137077332 14.289440214633942,73.86214137077332 13.736040890216827,75.19309520721436 13.736040890216827,75.19309520721436 13.500376045703888,76.6289472579956 13.500376045703888,76.6289472579956 13.609866797924042,78.1156063079834 13.609866797924042,78.1156063079834 13.689827919006348,79.28290367126465 13.689827919006348,79.28290367126465 13.984552025794983,80.3845226764679 13.984552025794983,80.3845226764679 14.475056529045105,81.40033483505249 14.475056529045105,81.40033483505249 15.141016244888306,82.3099672794342 15.141016244888306,82.3099672794342 15.963828563690186,83.09332728385925 15.963828563690186,83.09332728385925" stroke="white" stroke-width="0.1" /><polygon points="72.9336678981781,31.831011176109314 72.9336678981781,31.831011176109314 72.98045754432678,36.64233684539795 72.98045754432678,36.64233684539795 74.69722628593445,42.60370135307312 74.69722628593445,42.60370135307312 77.21743583679199,49.20192360877991 77.21743583679199,49.20192360877991 79.67417240142822,55.92353940010071 79.67417240142822,55.92353940010071 81.20263814926147,62.25546598434448 81.20263814926147,62.25546598434448 80.93514442443848,67.68423914909363 80.93514442443848,67.68423914909363 80.21491765975952,69.68148946762085 80.21491765975952,69.68148946762085 79.31732535362244,71.55563831329346 79.31732535362244,71.55563831329346 78.26824188232422,73.31104278564453 78.26824188232422,73.31104278564453 77.09375619888306,74.95186924934387 77.09375619888306,74.95186924934387 75.82032084465027,76.48244500160217 75.82032084465027,76.48244500160217 74.47383403778076,77.90697813034058 74.47383403778076,77.90697813034058 72.36167192459106,79.86990809440613 72.36167192459106,79.86990809440613 70.23340463638306,81.61433339118958 70.23340463638306,81.61433339118958 68.17972660064697,83.15487504005432 68.17972660064697,83.15487504005432 66.29019379615784,84.50620770454407 66.29019379615784,84.50620770454407 64.65607285499573,85.68304777145386 64.65607285499573,85.68304777145386 63.36749196052551,86.70001029968262 63.36749196052551,86.70001029968262 63.31802010536194,86.74300909042358 63.31802010536194,86.74300909042358 63.2681667804718,86.78639531135559 63.2681667804718,86.78639531135559 63.217926025390625,86.83040142059326 63.217926025390625,86.83040142059326 63.16806674003601,86.87541484832764 63.16806674003601,86.87541484832764 63.11955451965332,86.9218647480011 63.11955451965332,86.9218647480011 63.0729615688324,86.96999549865723 63.0729615688324,86.96999549865723 61.66625618934631,88.9701247215271 61.66625618934631,88.9701247215271 60.682183504104614,91.44014716148376 60.682183504104614,91.44014716148376 59.995704889297485,94.05949115753174 59.995704889297485,94.05949115753174 59.48065519332886,96.50750756263733 59.48065519332886,96.50750756263733 59.01220440864563,98.46367835998535 59.01220440864563,98.46367835998535 58.46474766731262,99.60729479789734 58.46474766731262,99.60729479789734 58.32342505455017,99.7322678565979 58.32342505455017,99.7322678565979 58.17596912384033,99.83183741569519 58.17596912384033,99.83183741569519 58.023715019226074,99.90719556808472 58.023715019226074,99.90719556808472 57.86762833595276,99.95954036712646 57.86762833595276,99.95954036712646 57.709431648254395,99.99003410339355 57.709431648254395,99.99003410339355 57.550472021102905,100.0 57.550472021102905,100.0 56.96619749069214,99.87455010414124 56.96619749069214,99.87455010414124 56.4350426197052,99.53423142433167 56.4350426197052,99.53423142433167 56.01337552070618,99.03318285942078 56.01337552070618,99.03318285942078 55.75700402259827,98.42551946640015 55.75700402259827,98.42551946640015 55.72325587272644,97.76531457901001 55.72325587272644,97.76531457901001 55.9673547744751,97.10683226585388 55.9673547744751,97.10683226585388 56.4444363117218,95.93761563301086 56.4444363117218,95.93761563301086 56.80416822433472,94.1839873790741 56.80416822433472,94.1839873790741 56.97597861289978,92.04224944114685 56.97597861289978,92.04224944114685 56.889307498931885,89.70870971679688 56.889307498931885,89.70870971679688 56.47454261779785,87.37977147102356 56.47454261779785,87.37977147102356 55.66055178642273,85.25189161300659 55.66055178642273,85.25189161300659 53.59421968460083,81.95527195930481 53.59421968460083,81.95527195930481 51.226454973220825,78.69225740432739 51.226454973220825,78.69225740432739 48.95839989185333,75.2834141254425 48.95839989185333,75.2834141254425 47.19005227088928,71.54902219772339 47.19005227088928,71.54902219772339 46.32275104522705,67.30969548225403 46.32275104522705,67.30969548225403 46.75707221031189,62.385714054107666 46.75707221031189,62.385714054107666 48.16511571407318,58.174145221710205 48.16511571407318,58.174145221710205 50.375646352767944,53.835731744766235 50.375646352767944,53.835731744766235 53.1946063041687,49.490705132484436 53.1946063041687,49.490705132484436 56.426799297332764,45.25914490222931 56.426799297332764,45.25914490222931 59.87854599952698,41.26133322715759 59.87854599952698,41.26133322715759 63.35521936416626,37.61735260486603 63.35521936416626,37.61735260486603 64.75616693496704,36.24176383018494 64.75616693496704,36.24176383018494 66.11416339874268,34.95577275753021 66.11416339874268,34.95577275753021 67.41654872894287,33.768102526664734 67.41654872894287,33.768102526664734 68.64818334579468,32.68757462501526 68.64818334579468,32.68757462501526 69.79678273200989,31.722864508628845 69.79678273200989,31.722864508628845 70.84739804267883,30.882984399795532 70.84739804267883,30.882984399795532 68.53446960449219,33.77601206302643 68.53446960449219,33.77601206302643 66.3772463798523,36.789652705192566 66.3772463798523,36.789652705192566 64.37764763832092,39.912253618240356 64.37764763832092,39.912253618240356 62.53777742385864,43.131980299949646 62.53777742385864,43.131980299949646 60.86070537567139,46.437132358551025 60.86070537567139,46.437132358551025 59.348344802856445,49.815917015075684 59.348344802856445,49.815917015075684 58.3213210105896,52.32836604118347 58.3213210105896,52.32836604118347 57.36581087112427,54.926955699920654 57.36581087112427,54.926955699920654 56.5326452255249,57.59917497634888 56.5326452255249,57.59917497634888 55.87148070335388,60.33247113227844 55.87148070335388,60.33247113227844 55.43313026428223,63.114380836486816 55.43313026428223,63.114380836486816 55.26784062385559,65.93238115310669 55.26784062385559,65.93238115310669 55.25441765785217,68.7235414981842 55.25441765785217,68.7235414981842 55.37867546081543,71.49983644485474 55.37867546081543,71.49983644485474 55.63063621520996,74.25983548164368 55.63063621520996,74.25983548164368 55.999189615249634,77.00190544128418 55.999189615249634,77.00190544128418 56.47512078285217,79.72450852394104 56.47512078285217,79.72450852394104 57.04731345176697,82.42621421813965 57.04731345176697,82.42621421813965 57.31806755065918,83.27865600585938 57.31806755065918,83.27865600585938 57.67856240272522,84.02385711669922 57.67856240272522,84.02385711669922 58.10579061508179,84.64058041572571 58.10579061508179,84.64058041572571 58.57558250427246,85.10740399360657 58.57558250427246,85.10740399360657 59.0651273727417,85.40318012237549 59.0651273727417,85.40318012237549 59.55083966255188,85.50653457641602 59.55083966255188,85.50653457641602 59.605491161346436,85.50524115562439 59.605491161346436,85.50524115562439 59.65937376022339,85.50117015838623 59.65937376022339,85.50117015838623 59.71267819404602,85.49426198005676 59.71267819404602,85.49426198005676 59.764838218688965,85.48420071601868 59.764838218688965,85.48420071601868 59.817373752593994,85.47096848487854 59.817373752593994,85.47096848487854 59.8699152469635,85.45438051223755 59.8699152469635,85.45438051223755 60.31516790390015,85.17595529556274 60.31516790390015,85.17595529556274 60.647475719451904,84.70079302787781 60.647475719451904,84.70079302787781 60.863196849823,84.06263589859009 60.863196849823,84.06263589859009 60.957348346710205,83.29533338546753 60.957348346710205,83.29533338546753 60.92628240585327,82.43283033370972 60.92628240585327,82.43283033370972 60.76578497886658,81.508868932724 60.76578497886658,81.508868932724 59.595900774002075,76.36494636535645 59.595900774002075,76.36494636535645 58.86206030845642,71.19749188423157 58.86206030845642,71.19749188423157 58.650368452072144,66.0366952419281 58.650368452072144,66.0366952419281 59.04672145843506,60.91266870498657 59.04672145843506,60.91266870498657 60.138559341430664,55.85566163063049 60.138559341430664,55.85566163063049 62.011414766311646,50.895869731903076 62.011414766311646,50.895869731903076 63.41504454612732,47.49882221221924 63.41504454612732,47.49882221221924 64.98627066612244,44.17502284049988 64.98627066612244,44.17502284049988 66.72470569610596,40.93544781208038 66.72470569610596,40.93544781208038 68.62881183624268,37.79089152812958 68.62881183624268,37.79089152812958 70.69917321205139,34.75246727466583 70.69917321205139,34.75246727466583" stroke="white" stroke-width="0.1" /><polygon points="63.88906240463257,92.49862432479858 63.88906240463257,92.49862432479858 64.46892023086548,92.6559567451477 64.46892023086548,92.6559567451477 64.88080620765686,93.05245280265808 64.88080620765686,93.05245280265808 65.10247588157654,93.57972741127014 65.10247588157654,93.57972741127014 65.1122510433197,94.12919282913208 65.1122510433197,94.12919282913208 64.88905549049377,94.5924699306488 64.88905549049377,94.5924699306488 64.41062688827515,94.86101865768433 64.41062688827515,94.86101865768433 64.3855094909668,94.86533403396606 64.3855094909668,94.86533403396606 64.35962319374084,94.86907124519348 64.35962319374084,94.86907124519348 64.33239579200745,94.87214088439941 64.33239579200745,94.87214088439941 64.3040120601654,94.87439393997192 64.3040120601654,94.87439393997192 64.27467465400696,94.87587809562683 64.27467465400696,94.87587809562683 64.24495577812195,94.87636089324951 64.24495577812195,94.87636089324951 63.9889657497406,94.8537826538086 63.9889657497406,94.8537826538086 63.68388533592224,94.78978514671326 63.68388533592224,94.78978514671326 63.33374381065369,94.68997716903687 63.33374381065369,94.68997716903687 62.942373752593994,94.55996751785278 62.942373752593994,94.55996751785278 62.514764070510864,94.40546035766602 62.514764070510864,94.40546035766602 62.05436587333679,94.2320704460144 62.05436587333679,94.2320704460144 62.13356256484985,93.8921868801117 62.13356256484985,93.8921868801117 62.2173547744751,93.55105757713318 62.2173547744751,93.55105757713318 62.30594515800476,93.20964217185974 62.30594515800476,93.20964217185974 62.39818334579468,92.86865592002869 62.39818334579468,92.86865592002869 62.494438886642456,92.5291121006012 62.494438886642456,92.5291121006012 62.59434223175049,92.19181537628174 62.59434223175049,92.19181537628174 62.8522515296936,92.28251576423645 62.8522515296936,92.28251576423645 63.09635639190674,92.3579216003418 63.09635639190674,92.3579216003418 63.324540853500366,92.41769909858704 63.324540853500366,92.41769909858704 63.53412866592407,92.46132373809814 63.53412866592407,92.46132373809814 63.72300386428833,92.48840808868408 63.72300386428833,92.48840808868408" stroke="white" stroke-width="0.1" /><polygon points="54.94263172149658,91.19163155555725 54.94263172149658,91.19163155555725 54.945313930511475,91.51185750961304 54.945313930511475,91.51185750961304 54.94186282157898,91.8278694152832 54.94186282157898,91.8278694152832 54.93265986442566,92.13889241218567 54.93265986442566,92.13889241218567 54.91846799850464,92.44425892829895 54.91846799850464,92.44425892829895 54.901403188705444,92.7433967590332 54.901403188705444,92.7433967590332 54.88126873970032,93.03553104400635 54.88126873970032,93.03553104400635 53.371214866638184,93.60527396202087 53.371214866638184,93.60527396202087 51.515233516693115,94.35555934906006 51.515233516693115,94.35555934906006 49.36875104904175,95.15976905822754 49.36875104904175,95.15976905822754 46.984875202178955,95.89107036590576 46.984875202178955,95.89107036590576 44.419026374816895,96.42274975776672 44.419026374816895,96.42274975776672 41.72547161579132,96.62821888923645 41.72547161579132,96.62821888923645 41.06699228286743,96.6149389743805 41.06699228286743,96.6149389743805 40.40544331073761,96.57390117645264 40.40544331073761,96.57390117645264 39.741212129592896,96.50357365608215 39.741212129592896,96.50357365608215 39.075061678886414,96.40228152275085 39.075061678886414,96.40228152275085 38.40910196304321,96.26848697662354 38.40910196304321,96.26848697662354 37.74314522743225,96.10050916671753 37.74314522743225,96.10050916671753 34.49331223964691,94.24175024032593 34.49331223964691,94.24175024032593 31.382885575294495,91.00222587585449 31.382885575294495,91.00222587585449 28.389811515808105,87.08428144454956 28.389811515808105,87.08428144454956 25.491079688072205,83.19035172462463 25.491079688072205,83.19035172462463 22.66559898853302,80.02287745475769 22.66559898853302,80.02287745475769 19.890163838863373,78.28434705734253 19.890163838863373,78.28434705734253 20.492269098758698,78.21301817893982 20.492269098758698,78.21301817893982 21.092839539051056,78.15515398979187 21.092839539051056,78.15515398979187 21.69225960969925,78.11062335968018 21.69225960969925,78.11062335968018 22.289954125881195,78.07907462120056 22.289954125881195,78.07907462120056 22.88707345724106,78.060382604599 22.88707345724106,78.060382604599 23.482850193977356,78.05424332618713 23.482850193977356,78.05424332618713 29.11924123764038,78.58017683029175 29.11924123764038,78.58017683029175 34.621021151542664,80.02915978431702 34.621021151542664,80.02915978431702 39.972081780433655,82.20800161361694 39.972081780433655,82.20800161361694 45.15382647514343,84.92341637611389 45.15382647514343,84.92341637611389 50.14995336532593,87.98245191574097 50.14995336532593,87.98245191574097" stroke="white" stroke-width="0.1" /><polygon points="38.39970529079437,79.44100499153137 38.39970529079437,79.44100499153137 36.167892813682556,78.6097526550293 36.167892813682556,78.6097526550293 33.88238847255707,77.90324091911316 33.88238847255707,77.90324091911316 31.554120779037476,77.33325362205505 31.554120779037476,77.33325362205505 29.19306457042694,76.91149115562439 29.19306457042694,76.91149115562439 26.811107993125916,76.64989233016968 26.811107993125916,76.64989233016968 24.418605864048004,76.56010389328003 24.418605864048004,76.56010389328003 23.643922805786133,76.57007575035095 23.643922805786133,76.57007575035095 22.86885678768158,76.60008668899536 22.86885678768158,76.60008668899536 22.09417372941971,76.65022611618042 22.09417372941971,76.65022611618042 21.319875121116638,76.72050595283508 21.319875121116638,76.72050595283508 20.547494292259216,76.81111097335815 20.547494292259216,76.81111097335815 19.77664679288864,76.92213654518127 19.77664679288864,76.92213654518127 22.047002613544464,76.16375088691711 22.047002613544464,76.16375088691711 24.950335919857025,75.365149974823 24.950335919857025,75.365149974823 28.321930766105652,74.60575699806213 28.321930766105652,74.60575699806213 31.996113061904907,73.96491765975952 31.996113061904907,73.96491765975952 35.809314250946045,73.5222578048706 35.809314250946045,73.5222578048706 39.59624469280243,73.35706353187561 39.59624469280243,73.35706353187561 40.73986113071442,73.37460517883301 40.73986113071442,73.37460517883301 41.85989201068878,73.42877984046936 41.85989201068878,73.42877984046936 42.95192360877991,73.52197170257568 42.95192360877991,73.52197170257568 44.010210037231445,73.65652918815613 44.010210037231445,73.65652918815613 45.03071904182434,73.83500337600708 45.03071904182434,73.83500337600708 46.00846767425537,74.05964732170105 46.00846767425537,74.05964732170105 46.65544331073761,75.35153031349182 46.65544331073761,75.35153031349182 47.363778948783875,76.59284472465515 47.363778948783875,76.59284472465515 48.11928570270538,77.78962850570679 48.11928570270538,77.78962850570679 48.90489876270294,78.94800901412964 48.90489876270294,78.94800901412964 49.705660343170166,80.07426857948303 49.705660343170166,80.07426857948303 50.50622820854187,81.17445111274719 50.50622820854187,81.17445111274719 51.133644580841064,82.02698826789856 51.133644580841064,82.02698826789856 51.74150466918945,82.86892771720886 51.74150466918945,82.86892771720886 52.32405066490173,83.70406031608582 52.32405066490173,83.70406031608582 52.874189615249634,84.53607559204102 52.874189615249634,84.53607559204102 53.387320041656494,85.36885976791382 53.387320041656494,85.36885976791382 53.856539726257324,86.2060546875 53.856539726257324,86.2060546875 53.98558974266052,86.46448850631714 53.98558974266052,86.46448850631714 54.10351753234863,86.73011064529419 54.10351753234863,86.73011064529419 54.2116641998291,87.00259327888489 54.2116641998291,87.00259327888489 54.31060791015625,87.28140592575073 54.31060791015625,87.28140592575073 54.40284609794617,87.56625056266785 54.40284609794617,87.56625056266785 54.48855757713318,87.85666227340698 54.48855757713318,87.85666227340698 51.91887617111206,86.252361536026 51.91887617111206,86.252361536026 49.30700659751892,84.71828699111938 49.30700659751892,84.71828699111938 46.65122628211975,83.26225876808167 46.65122628211975,83.26225876808167 43.9490407705307,81.89208507537842 43.9490407705307,81.89208507537842 41.199302673339844,80.61577677726746 41.199302673339844,80.61577677726746" stroke="white" stroke-width="0.1" /></svg>