<?xml version="1.0" encoding="utf-8" ?>
<svg baseProfile="full" height="99.9982237815857" version="1.1" width="99.99999403953552" xmlns="http://www.w3.org/2000/svg" xmlns:ev="http://www.w3.org/2001/xml-events" xmlns:xlink="http://www.w3.org/1999/xlink"><defs><clipPath /></defs><polygon points="49.99999701976776,0.0 49.99999701976776,0.0 63.29190135002136,1.7859995365142822 63.29190135002136,1.7859995365142822 75.23570656776428,6.826116144657135 75.23570656776428,6.826116144657135 85.35510897636414,14.643998444080353 85.35510897636414,14.643998444080353 93.17315816879272,24.76290464401245 93.17315816879272,24.76290464401245 98.21377396583557,36.70654296875 98.21377396583557,36.70654296875 99.99999403953552,49.99822378158569 99.99999403953552,49.99822378158569 98.21399450302124,63.29001784324646 98.21399450302124,63.29001784324646 93.1733787059784,75.23393034934998 93.1733787059784,75.23393034934998 85.35510897636414,85.35333275794983 85.35510897636414,85.35333275794983 75.23548007011414,93.17154884338379 75.23548007011414,93.17154884338379 63.29168081283569,98.21205735206604 63.29168081283569,98.21205735206604 49.99999701976776,99.9982237815857 49.99999701976776,99.9982237815857 36.70765161514282,98.21216464042664 36.70765161514282,98.21216464042664 24.763405323028564,93.17160844802856 24.763405323028564,93.17160844802856 14.644220471382141,85.35333275794983 14.644220471382141,85.35333275794983 6.825949996709824,75.2338707447052 6.825949996709824,75.2338707447052 1.7857776954770088,63.289958238601685 1.7857776954770088,63.289958238601685 0.0,49.99822378158569 0.0,49.99822378158569 1.7859995365142822,36.7065966129303 1.7859995365142822,36.7065966129303 6.826172024011612,24.762961268424988 6.826172024011612,24.762961268424988 14.644220471382141,14.643998444080353 14.644220471382141,14.643998444080353 24.763183295726776,6.826061010360718 24.763183295726776,6.826061010360718 36.70743107795715,1.785888522863388 36.70743107795715,1.785888522863388" stroke="white" stroke-width="0.1" /><polygon points="63.30965757369995,86.44353151321411 63.30965757369995,86.44353151321411 74.37189221382141,77.60164737701416 74.37189221382141,77.60164737701416 79.63401079177856,70.32570242881775 79.63401079177856,70.32570242881775 80.56063055992126,64.588063955307 80.56063055992126,64.588063955307 78.61549854278564,60.3607714176178 78.61549854278564,60.3607714176178 75.26366710662842,57.61618614196777 75.26366710662842,57.61618614196777 71.96910381317139,56.3263475894928 71.96910381317139,56.3263475894928 71.7120885848999,56.279295682907104 71.7120885848999,56.279295682907104 71.45773768424988,56.24101161956787 71.45773768424988,56.24101161956787 71.20627164840698,56.211382150650024 71.20627164840698,56.211382150650024 70.95724940299988,56.19034767150879 70.95724940299988,56.19034767150879 70.71155905723572,56.17769956588745 70.71155905723572,56.17769956588745 70.46874761581421,56.173646450042725 70.46874761581421,56.173646450042725 68.8159167766571,56.36252760887146 68.8159167766571,56.36252760887146 67.32643842697144,56.862348318099976 67.32643842697144,56.862348318099976 66.015625,57.57235288619995 66.015625,57.57235288619995 64.8987889289856,58.392053842544556 64.8987889289856,58.392053842544556 63.99169564247131,59.2212438583374 63.99169564247131,59.2212438583374 63.30965757369995,59.95916128158569 63.30965757369995,59.95916128158569 62.62784004211426,59.22130346298218 62.62784004211426,59.22130346298218 61.720967292785645,58.39216709136963 61.720967292785645,58.39216709136963 60.60502529144287,57.57235288619995 60.60502529144287,57.57235288619995 59.294211864471436,56.86229467391968 59.294211864471436,56.86229467391968 57.80450701713562,56.362468004226685 57.80450701713562,56.362468004226685 56.15056753158569,56.173646450042725 56.15056753158569,56.173646450042725 55.90864419937134,56.177812814712524 55.90864419937134,56.177812814712524 55.663394927978516,56.190407276153564 55.663394927978516,56.190407276153564 55.415040254592896,56.211382150650024 55.415040254592896,56.211382150650024 55.163127183914185,56.240952014923096 55.163127183914185,56.240952014923096 54.90855574607849,56.279295682907104 54.90855574607849,56.279295682907104 54.650211334228516,56.3263475894928 54.650211334228516,56.3263475894928 51.35564208030701,57.61618614196777 51.35564208030701,57.61618614196777 48.00359308719635,60.360825061798096 48.00359308719635,60.360825061798096 46.0586816072464,64.588063955307 46.0586816072464,64.588063955307 46.98486328125,70.32564878463745 46.98486328125,70.32564878463745 52.24720239639282,77.60154008865356 52.24720239639282,77.60154008865356" stroke="white" stroke-width="0.1" /><polygon points="87.10582256317139,34.671518206596375 87.10582256317139,34.671518206596375 87.93323636054993,33.260831236839294 87.93323636054993,33.260831236839294 88.36115002632141,31.75032138824463 88.36115002632141,31.75032138824463 88.39799165725708,30.219724774360657 88.39799165725708,30.219724774360657 88.05197477340698,28.748556971549988 88.05197477340698,28.748556971549988 87.33198642730713,27.41660177707672 87.33198642730713,27.41660177707672 86.24644875526428,26.30326747894287 86.24644875526428,26.30326747894287 84.89457368850708,25.53538978099823 84.89457368850708,25.53538978099823 83.4228515625,25.176778435707092 83.4228515625,25.176778435707092 81.91183805465698,25.215286016464233 81.91183805465698,25.215286016464233 80.43944835662842,25.638705492019653 80.43944835662842,25.638705492019653 79.08669114112854,26.43510103225708 79.08669114112854,26.43510103225708 77.93145775794983,27.592328190803528 77.93145775794983,27.592328190803528 60.88600754737854,49.68927502632141 60.88600754737854,49.68927502632141 60.62943935394287,49.644386768341064 60.62943935394287,49.644386768341064 60.37064790725708,49.60587918758392 60.37064790725708,49.60587918758392 60.1105272769928,49.5743066072464 60.1105272769928,49.5743066072464 59.84840989112854,49.55000281333923 59.84840989112854,49.55000281333923 59.5856249332428,49.533745646476746 59.5856249332428,49.533745646476746 59.32173132896423,49.525922536849976 59.32173132896423,49.525922536849976 60.65651178359985,48.12999367713928 60.65651178359985,48.12999367713928 61.795538663864136,46.56521677970886 61.795538663864136,46.56521677970886 62.71795034408569,44.850850105285645 62.71795034408569,44.850850105285645 63.4022057056427,43.00620257854462 63.4022057056427,43.00620257854462 63.828569650650024,41.0508006811142 63.828569650650024,41.0508006811142 63.97549510002136,39.00390565395355 63.97549510002136,39.00390565395355 63.46590518951416,35.21073758602142 63.46590518951416,35.21073758602142 62.02681064605713,31.80197775363922 62.02681064605713,31.80197775363922 59.79536175727844,28.913795948028564 59.79536175727844,28.913795948028564 56.90695643424988,26.682183146476746 56.90695643424988,26.682183146476746 53.49830985069275,25.243473052978516 53.49830985069275,25.243473052978516 49.70525503158569,24.733664095401764 49.70525503158569,24.733664095401764 45.913973450660706,25.243529677391052 45.913973450660706,25.243529677391052 42.50665605068207,26.682239770889282 42.50665605068207,26.682239770889282 39.62002694606781,28.913795948028564 39.62002694606781,28.913795948028564 37.389469146728516,31.801924109458923 37.389469146728516,31.801924109458923 35.95148026943207,35.21068096160889 35.95148026943207,35.21068096160889 35.44211387634277,39.00390565395355 35.44211387634277,39.00390565395355 35.58859825134277,41.05085730552673 35.58859825134277,41.05085730552673 36.014071106910706,43.006256222724915 36.014071106910706,43.006256222724915 36.69810891151428,44.850850105285645 36.69810891151428,44.850850105285645 37.61985003948212,46.56510651111603 37.61985003948212,46.56510651111603 38.75865340232849,48.12988042831421 38.75865340232849,48.12988042831421 40.094104409217834,49.525922536849976 40.094104409217834,49.525922536849976 39.81311917304993,49.53391253948212 39.81311917304993,49.53391253948212 39.53213691711426,49.55066740512848 39.53213691711426,49.55066740512848 39.25270736217499,49.576082825660706 39.25270736217499,49.576082825660706 38.97416293621063,49.60998296737671 38.97416293621063,49.60998296737671 38.69761824607849,49.65254068374634 38.69761824607849,49.65254068374634 38.42329382896423,49.70347881317139 38.42329382896423,49.70347881317139 22.14488536119461,27.496448159217834 22.14488536119461,27.496448159217834 21.01917564868927,26.31247639656067 21.01917564868927,26.31247639656067 19.686168432235718,25.483453273773193 19.686168432235718,25.483453273773193 18.22531968355179,25.023746490478516 18.22531968355179,25.023746490478516 16.715198755264282,24.94795322418213 16.715198755264282,24.94795322418213 15.235041081905365,25.270771980285645 15.235041081905365,25.270771980285645 13.863636553287506,26.006746292114258 13.863636553287506,26.006746292114258 12.751908600330353,27.092617750167847 12.751908600330353,27.092617750167847 11.99951097369194,28.40631604194641 11.99951097369194,28.40631604194641 11.617542058229446,29.868605732917786 11.617542058229446,29.868605732917786 11.615988612174988,31.400033831596375 11.615988612174988,31.400033831596375 12.005282193422318,32.92158544063568 12.005282193422318,32.92158544063568 12.796519696712494,34.3536913394928 12.796519696712494,34.3536913394928 29.4815331697464,57.104045152664185 29.4815331697464,57.104045152664185 29.66064214706421,57.33209848403931 29.66064214706421,57.33209848403931 29.84885275363922,57.54793882369995 29.84885275363922,57.54793882369995 30.045276880264282,57.75257349014282 30.045276880264282,57.75257349014282 30.248579382896423,57.94677734375 30.248579382896423,57.94677734375 30.458316206932068,58.13154578208923 30.458316206932068,58.13154578208923 30.672940611839294,58.30788016319275 30.672940611839294,58.30788016319275 30.671608448028564,58.32541584968567 30.671608448028564,58.32541584968567 30.669832229614258,58.34255814552307 30.669832229614258,58.34255814552307 30.667835474014282,58.359819650650024 30.667835474014282,58.359819650650024 30.665835738182068,58.377182483673096 30.665835738182068,58.377182483673096 30.664506554603577,58.3953857421875 30.664506554603577,58.3953857421875 30.6640625,58.41441750526428 30.6640625,58.41441750526428 29.46910560131073,75.73685646057129 29.46910560131073,75.73685646057129 29.627129435539246,78.09520363807678 29.627129435539246,78.09520363807678 30.383077263832092,80.21894693374634 30.383077263832092,80.21894693374634 31.656381487846375,82.02148079872131 31.656381487846375,82.02148079872131 33.36603343486786,83.41618776321411 33.36603343486786,83.41618776321411 35.43212711811066,84.31656956672668 35.43212711811066,84.31656956672668 37.773436307907104,84.63600873947144 37.773436307907104,84.63600873947144 53.65589261054993,84.63600873947144 53.65589261054993,84.63600873947144 49.954721331596375,81.04647397994995 49.954721331596375,81.04647397994995 47.04412221908569,77.6354968547821 47.04412221908569,77.6354968547821 44.86949443817139,74.3927538394928 44.86949443817139,74.3927538394928 43.375131487846375,71.30731344223022 43.375131487846375,71.30731344223022 42.50665605068207,68.36869716644287 42.50665605068207,68.36869716644287 42.20880568027496,65.56640267372131 42.20880568027496,65.56640267372131 42.35883951187134,63.588422536849976 42.35883951187134,63.588422536849976 42.78986155986786,61.760807037353516 42.78986155986786,61.760807037353516 43.45725178718567,60.090553760528564 43.45725178718567,60.090553760528564 44.316405057907104,58.58476161956787 44.316405057907104,58.58476161956787 45.32315135002136,57.25075006484985 45.32315135002136,57.25075006484985 46.43288254737854,56.09552264213562 46.43288254737854,56.09552264213562 47.61008322238922,55.0952672958374 47.61008322238922,55.0952672958374 48.81280958652496,54.24610376358032 48.81280958652496,54.24610376358032 50.019752979278564,53.54270339012146 50.019752979278564,53.54270339012146 51.20915770530701,52.97912359237671 51.20915770530701,52.97912359237671 52.3590624332428,52.54999399185181 52.3590624332428,52.54999399185181 53.44815254211426,52.24964618682861 53.44815254211426,52.24964618682861 53.81280779838562,52.17534899711609 53.81280779838562,52.17534899711609 54.17457818984985,52.11530923843384 54.17457818984985,52.11530923843384 54.533469676971436,52.06942558288574 54.533469676971436,52.06942558288574 54.88880276679993,52.03701853752136 54.88880276679993,52.03701853752136 55.24125099182129,52.01793313026428 55.24125099182129,52.01793313026428 55.58948516845703,52.01171636581421 55.58948516845703,52.01171636581421 57.21302032470703,52.16141939163208 57.21302032470703,52.16141939163208 58.6945116519928,52.52152681350708 58.6945116519928,52.52152681350708 60.03550887107849,53.04909348487854 60.03550887107849,53.04909348487854 61.23734712600708,53.70122790336609 61.23734712600708,53.70122790336609 62.301576137542725,54.43509221076965 62.301576137542725,54.43509221076965 63.22975754737854,55.207741260528564 63.22975754737854,55.207741260528564 64.15882110595703,54.43514585494995 64.15882110595703,54.43514585494995 65.22416472434998,53.70128154754639 65.22416472434998,53.70128154754639 66.42755270004272,53.04909348487854 66.42755270004272,53.04909348487854 67.76966452598572,52.52141356468201 67.76966452598572,52.52141356468201 69.25248503684998,52.16136574745178 69.25248503684998,52.16136574745178 70.8771288394928,52.01171636581421 70.8771288394928,52.01171636581421 71.22447490692139,52.01804041862488 71.22447490692139,52.01804041862488 71.57559394836426,52.03707218170166 71.57559394836426,52.03707218170166 71.93025946617126,52.06942558288574 71.93025946617126,52.06942558288574 72.28781580924988,52.11530923843384 72.28781580924988,52.11530923843384 72.64825701713562,52.175235748291016 72.64825701713562,52.175235748291016 73.01136255264282,52.24964618682861 73.01136255264282,52.24964618682861 73.01136255264282,52.24609375 73.01136255264282,52.24609375 73.08282852172852,52.265626192092896 73.08282852172852,52.265626192092896 73.15607070922852,52.28526592254639 73.15607070922852,52.28526592254639 73.230642080307,52.305132150650024 73.230642080307,52.305132150650024 73.30566048622131,52.325159311294556 73.30566048622131,52.325159311294556 73.38089942932129,52.345746755599976 73.38089942932129,52.345746755599976 73.45525622367859,52.36682891845703 73.45525622367859,52.36682891845703" stroke="white" stroke-width="0.1" /></svg>