<?xml version="1.0" encoding="utf-8" ?>
<svg baseProfile="full" height="100.0" version="1.1" width="62.51976490020752" xmlns="http://www.w3.org/2000/svg" xmlns:ev="http://www.w3.org/2001/xml-events" xmlns:xlink="http://www.w3.org/1999/xlink"><defs><clipPath /></defs><polygon points="62.51976490020752,54.61094379425049 62.51976490020752,54.61094379425049 62.51976490020752,81.3786506652832 62.51976490020752,81.3786506652832 61.85161471366882,86.31396889686584 61.85161471366882,86.31396889686584 59.96784567832947,90.7580554485321 59.96784567832947,90.7580554485321 57.049596309661865,94.52983140945435 57.049596309661865,94.52983140945435 53.2778799533844,97.44813442230225 53.2778799533844,97.44813442230225 48.833805322647095,99.33187961578369 48.833805322647095,99.33187961578369 43.898412585258484,100.0 43.898412585258484,100.0 18.621350824832916,100.0 18.621350824832916,100.0 13.685958087444305,99.33177828788757 13.685958087444305,99.33177828788757 9.241872280836105,97.44803309440613 9.241872280836105,97.44803309440613 5.470167845487595,94.52983140945435 5.470167845487595,94.52983140945435 2.55189910531044,90.7580554485321 2.55189910531044,90.7580554485321 0.6681521888822317,86.31406426429749 0.6681521888822317,86.31406426429749 0.0,81.3786506652832 0.0,81.3786506652832 0.0,54.61094379425049 0.0,54.61094379425049 0.28377894777804613,51.37810707092285 0.28377894777804613,51.37810707092285 1.1022718623280525,48.32565486431122 1.1022718623280525,48.32565486431122 2.406231313943863,45.50100862979889 2.406231313943863,45.50100862979889 4.146385192871094,42.95186698436737 4.146385192871094,42.95186698436737 6.273479759693146,40.72602689266205 6.273479759693146,40.72602689266205 8.73824954032898,38.871192932128906 8.73824954032898,38.871192932128906 8.733053505420685,38.09841871261597 8.733053505420685,38.09841871261597 8.720069378614426,36.142826080322266 8.720069378614426,36.142826080322266 8.70320349931717,33.54880511760712 8.70320349931717,33.54880511760712 8.686324954032898,30.860155820846558 8.686324954032898,30.860155820846558 8.673352748155594,28.6211758852005 8.673352748155594,28.6211758852005 8.6681567132473,27.375954389572144 8.6681567132473,27.375954389572144 8.711270987987518,25.503793358802795 8.711270987987518,25.503793358802795 8.853428810834885,23.252350091934204 8.853428810834885,23.252350091934204 9.15471836924553,20.699410140514374 9.15471836924553,20.699410140514374 9.675243496894836,17.92285442352295 9.675243496894836,17.92285442352295 10.475105792284012,15.000467002391815 10.475105792284012,15.000467002391815 11.614395678043365,12.010031193494797 11.614395678043365,12.010031193494797 13.154493272304535,9.033223986625671 13.154493272304535,9.033223986625671 15.333214402198792,6.200886145234108 15.333214402198792,6.200886145234108 18.124859035015106,3.697401285171509 18.124859035015106,3.697401285171509 21.50372713804245,1.7071519047021866 21.50372713804245,1.7071519047021866 25.444117188453674,0.4145217128098011 25.444117188453674,0.4145217128098011 29.92032766342163,0.003894050678354688 29.92032766342163,0.003894050678354688 34.96828377246857,0.4359389655292034 34.96828377246857,0.4359389655292034 39.35976326465607,1.7883427441120148 39.35976326465607,1.7883427441120148 43.08290183544159,3.855888918042183 43.08290183544159,3.855888918042183 46.125808358192444,6.4333610236644745 46.125808358192444,6.4333610236644745 48.476624488830566,9.315250813961029 48.476624488830566,9.315250813961029 50.123441219329834,12.296633422374725 50.123441219329834,12.296633422374725 51.16041302680969,14.816862344741821 51.16041302680969,14.816862344741821 51.89652442932129,17.19048172235489 51.89652442932129,17.19048172235489 52.38393545150757,19.344475865364075 52.38393545150757,19.344475865364075 52.67482399940491,21.205247938632965 52.67482399940491,21.205247938632965 52.82137393951416,22.699590027332306 52.82137393951416,22.699590027332306 52.87575721740723,23.754487931728363 52.87575721740723,23.754487931728363 52.14055776596069,24.63902086019516 52.14055776596069,24.63902086019516 50.139039754867554,25.136485695838928 50.139039754867554,25.136485695838928 47.495055198669434,25.297701358795166 47.495055198669434,25.297701358795166 44.83243525028229,25.172895193099976 44.83243525028229,25.172895193099976 42.77505278587341,24.813085794448853 42.77505278587341,24.813085794448853 41.946715116500854,24.26850199699402 41.946715116500854,24.26850199699402 41.9402152299881,24.194905161857605 41.9402152299881,24.194905161857605 41.93112552165985,23.98141324520111 41.93112552165985,23.98141324520111 41.911667585372925,23.639029264450073 41.911667585372925,23.639029264450073 41.87401831150055,23.17865490913391 41.87401831150055,23.17865490913391 41.810423135757446,22.611194849014282 41.810423135757446,22.611194849014282 41.7130708694458,21.947649121284485 41.7130708694458,21.947649121284485 41.58225655555725,21.20291143655777 41.58225655555725,21.20291143655777 41.40906631946564,20.40492296218872 41.40906631946564,20.40492296218872 41.19058549404144,19.570136070251465 41.19058549404144,19.570136070251465 40.92388153076172,18.71461272239685 40.92388153076172,18.71461272239685 40.60602784156799,17.854708433151245 40.60602784156799,17.854708433151245 40.23410975933075,17.006877064704895 40.23410975933075,17.006877064704895 39.29131329059601,15.416546165943146 39.29131329059601,15.416546165943146 38.212281465530396,14.001351594924927 38.212281465530396,14.001351594924927 36.86634004116058,12.804612517356873 36.86634004116058,12.804612517356873 35.12280285358429,11.869066208600998 35.12280285358429,11.869066208600998 32.851025462150574,11.237841099500656 32.851025462150574,11.237841099500656 29.92032766342163,10.953964293003082 29.92032766342163,10.953964293003082 27.69545018672943,11.184103041887283 27.69545018672943,11.184103041887283 25.949600338935852,11.690329760313034 25.949600338935852,11.690329760313034 24.574866890907288,12.473812699317932 24.574866890907288,12.473812699317932 23.46329838037491,13.535816967487335 23.46329838037491,13.535816967487335 22.50698059797287,14.87760990858078 22.50698059797287,14.87760990858078 21.597962081432343,16.500650346279144 21.597962081432343,16.500650346279144 20.888295769691467,18.349739909172058 20.888295769691467,18.349739909172058 20.36040872335434,20.32528966665268 20.36040872335434,20.32528966665268 19.991861283779144,22.32147753238678 19.991861283779144,22.32147753238678 19.760262966156006,24.23248291015625 19.760262966156006,24.23248291015625 19.643186032772064,25.95248520374298 19.643186032772064,25.95248520374298 19.61822658777237,27.375954389572144 19.61822658777237,27.375954389572144 19.6229487657547,28.389284014701843 19.6229487657547,28.389284014701843 19.634777307510376,30.089524388313293 19.634777307510376,30.089524388313293 19.650158286094666,32.08814561367035 19.650158286094666,32.08814561367035 19.665540754795074,33.996620774269104 19.665540754795074,33.996620774269104 19.67736780643463,35.42661368846893 19.67736780643463,35.42661368846893 19.68208998441696,35.98959445953369 19.68208998441696,35.98959445953369 43.898412585258484,35.98959445953369 43.898412585258484,35.98959445953369 48.83379340171814,36.65781319141388 48.83379340171814,36.65781319141388 53.277868032455444,38.54136765003204 53.277868032455444,38.54136765003204 57.049596309661865,41.459763050079346 57.049596309661865,41.459763050079346 59.96785759925842,45.231443643569946 59.96785759925842,45.231443643569946 61.85160279273987,49.67562556266785 61.85160279273987,49.67562556266785" stroke="white" stroke-width="0.1" /><polygon points="39.38520848751068,59.6809983253479 39.38520848751068,59.6809983253479 39.09502625465393,57.91154503822327 39.09502625465393,57.91154503822327 38.27614486217499,56.32160305976868 38.27614486217499,56.32160305976868 37.006038427352905,54.97465133666992 37.006038427352905,54.97465133666992 35.36216616630554,53.93396615982056 35.36216616630554,53.93396615982056 33.421993255615234,53.263020515441895 33.421993255615234,53.263020515441895 31.262996792793274,53.02528738975525 31.262996792793274,53.02528738975525 29.10137176513672,53.263020515441895 29.10137176513672,53.263020515441895 27.15943455696106,53.93386483192444 27.15943455696106,53.93386483192444 25.514501333236694,54.97465133666992 25.514501333236694,54.97465133666992 24.243848025798798,56.32169842720032 24.243848025798798,56.32169842720032 23.42475950717926,57.91154503822327 23.42475950717926,57.91154503822327 23.13455492258072,59.6809983253479 23.13455492258072,59.6809983253479 23.267634212970734,60.877639055252075 23.267634212970734,60.877639055252075 23.65075945854187,62.00117468833923 23.65075945854187,62.00117468833923 24.259643256664276,63.034164905548096 24.259643256664276,63.034164905548096 25.0700443983078,63.95881175994873 25.0700443983078,63.95881175994873 26.057708263397217,64.75757360458374 26.057708263397217,64.75757360458374 27.198386192321777,65.41303992271423 27.198386192321777,65.41303992271423 23.285643756389618,83.0546498298645 23.285643756389618,83.0546498298645 39.23411965370178,83.0546498298645 39.23411965370178,83.0546498298645 35.3213757276535,65.41303992271423 35.3213757276535,65.41303992271423 36.462053656578064,64.75884318351746 36.462053656578064,64.75884318351746 37.449705600738525,63.96075487136841 37.449705600738525,63.96075487136841 38.260120153427124,63.03650140762329 38.260120153427124,63.03650140762329 38.86900246143341,62.00331449508667 38.86900246143341,62.00331449508667 39.25211727619171,60.87900400161743 39.25211727619171,60.87900400161743" stroke="white" stroke-width="0.1" /></svg>