<?xml version="1.0" encoding="utf-8" ?>
<svg baseProfile="full" height="62.70619034767151" version="1.1" width="100.0" xmlns="http://www.w3.org/2000/svg" xmlns:ev="http://www.w3.org/2001/xml-events" xmlns:xlink="http://www.w3.org/1999/xlink"><defs><clipPath /></defs><polygon points="15.667051076889038,37.026429176330566 15.667051076889038,37.026429176330566 17.437182366847992,36.996182799339294 17.437182366847992,36.996182799339294 19.080543518066406,36.51852607727051 19.080543518066406,36.51852607727051 20.527300238609314,35.64864099025726 20.527300238609314,35.64864099025726 21.70763909816742,34.44173038005829 21.70763909816742,34.44173038005829 22.551794350147247,32.953011989593506 22.551794350147247,32.953011989593506 22.98993319272995,31.23767077922821 22.98993319272995,31.23767077922821 22.959889471530914,29.467540979385376 22.959889471530914,29.467540979385376 22.48271405696869,27.82415747642517 22.48271405696869,27.82415747642517 21.61342203617096,26.377421617507935 21.61342203617096,26.377421617507935 20.406967401504517,25.197014212608337 20.406967401504517,25.197014212608337 18.918377161026,24.35290515422821 18.918377161026,24.35290515422821 17.20263510942459,23.914790153503418 17.20263510942459,23.914790153503418 15.431886911392212,23.94506186246872 15.431886911392212,23.94506186246872 13.788115978240967,24.42280799150467 13.788115978240967,24.42280799150467 12.341108173131943,25.29294490814209 12.341108173131943,25.29294490814209 11.160609871149063,26.500335335731506 11.160609871149063,26.500335335731506 10.316430777311325,27.98989713191986 10.316430777311325,27.98989713191986 9.878292679786682,29.706469178199768 9.878292679786682,29.706469178199768 9.908541291952133,31.475597620010376 9.908541291952133,31.475597620010376 10.386208444833755,33.11856985092163 10.386208444833755,33.11856985092163 11.256081610918045,34.56525802612305 11.256081610918045,34.56525802612305 12.462970614433289,35.74552834033966 12.462970614433289,35.74552834033966 13.951686024665833,36.58929765224457 13.951686024665833,36.58929765224457" stroke="white" stroke-width="0.1" /><polygon points="65.84311127662659,45.54446637630463 65.84311127662659,45.54446637630463 66.51042699813843,45.64464092254639 66.51042699813843,45.64464092254639 67.1028733253479,45.553985238075256 67.1028733253479,45.553985238075256 67.59694218635559,45.290607213974 67.59694218635559,45.290607213974 67.96910166740417,44.87255811691284 67.96910166740417,44.87255811691284 68.1959331035614,44.31803524494171 68.1959331035614,44.31803524494171 68.25387477874756,43.64507496356964 68.25387477874756,43.64507496356964 68.1179940700531,40.78722298145294 68.1179940700531,40.78722298145294 67.99469590187073,40.06216824054718 67.99469590187073,40.06216824054718 67.70917177200317,39.35829699039459 67.70917177200317,39.35829699039459 67.28719472885132,38.708487153053284 67.28719472885132,38.708487153053284 66.75454378128052,38.14561069011688 66.75454378128052,38.14561069011688 66.13696813583374,37.702518701553345 66.13696813583374,37.702518701553345 65.46030640602112,37.41215169429779 65.46030640602112,37.41215169429779 32.929590344429016,27.93857753276825 32.929590344429016,27.93857753276825 32.2040319442749,27.820366621017456 32.2040319442749,27.820366621017456 31.446057558059692,27.86259949207306 31.446057558059692,27.86259949207306 30.69506585597992,28.05144488811493 30.69506585597992,28.05144488811493 29.99044358730316,28.37299406528473 29.99044358730316,28.37299406528473 29.371657967567444,28.81339192390442 29.371657967567444,28.81339192390442 28.878045082092285,29.35873568058014 28.878045082092285,29.35873568058014 27.2314190864563,31.699368357658386 27.2314190864563,31.699368357658386 26.918727159500122,32.296377420425415 26.918727159500122,32.296377420425415 26.811450719833374,32.8851193189621 26.811450719833374,32.8851193189621 26.89993679523468,33.43731164932251 26.89993679523468,33.43731164932251 27.17457413673401,33.92471671104431 27.17457413673401,33.92471671104431 27.62581706047058,34.319114685058594 27.62581706047058,34.319114685058594 28.243941068649292,34.59228873252869 28.243941068649292,34.59228873252869" stroke="white" stroke-width="0.1" /><polygon points="64.0956699848175,20.978039503097534 64.0956699848175,20.978039503097534 67.17160940170288,21.601733565330505 67.17160940170288,21.601733565330505 70.0643002986908,22.28085696697235 70.0643002986908,22.28085696697235 72.72565960884094,22.98080176115036 72.72565960884094,22.98080176115036 75.10756850242615,23.66681843996048 75.10756850242615,23.66681843996048 77.16199159622192,24.30432438850403 77.16199159622192,24.30432438850403 78.84078621864319,24.858641624450684 78.84078621864319,24.858641624450684 79.1732907295227,24.975481629371643 79.1732907295227,24.975481629371643 79.64528799057007,25.143709778785706 79.64528799057007,25.143709778785706 80.16762137413025,25.330930948257446 80.16762137413025,25.330930948257446 80.65107464790344,25.50475299358368 80.65107464790344,25.50475299358368 81.00656867027283,25.63278079032898 81.00656867027283,25.63278079032898 81.14489316940308,25.682684779167175 81.14489316940308,25.682684779167175 80.74880838394165,24.703653156757355 80.74880838394165,24.703653156757355 79.74952459335327,22.23554104566574 79.74952459335327,22.23554104566574 78.43040823936462,18.981853127479553 78.43040823936462,18.981853127479553 77.07487940788269,15.64609408378601 77.07487940788269,15.64609408378601 75.96635818481445,12.931790947914124 75.96635818481445,12.931790947914124 75.38827657699585,11.54245138168335 75.38827657699585,11.54245138168335 73.3239471912384,10.603029280900955 73.3239471912384,10.603029280900955 68.72844696044922,9.529302269220352 68.72844696044922,9.529302269220352 62.89795637130737,8.457402139902115 62.89795637130737,8.457402139902115 57.128578424453735,7.523299008607864 57.128578424453735,7.523299008607864 52.71646976470947,6.863101571798325 52.71646976470947,6.863101571798325 50.95772743225098,6.612801551818848 50.95772743225098,6.612801551818848 49.188464879989624,6.450188905000687 49.188464879989624,6.450188905000687 44.74243223667145,6.073621287941933 44.74243223667145,6.073621287941933 38.912490010261536,5.649956688284874 38.912490010261536,5.649956688284874 32.99131989479065,5.346100032329559 32.99131989479065,5.346100032329559 28.27174663543701,5.328932404518127 28.27174663543701,5.328932404518127 26.04649066925049,5.765381455421448 26.04649066925049,5.765381455421448 25.16300082206726,6.983479857444763 25.16300082206726,6.983479857444763 23.45770299434662,9.368699043989182 23.45770299434662,9.368699043989182 21.368692815303802,12.301842123270035 21.368692815303802,12.301842123270035 19.334107637405396,15.163621306419373 19.334107637405396,15.163621306419373 17.7920863032341,17.334817349910736 17.7920863032341,17.334817349910736 17.1807199716568,18.196162581443787 17.1807199716568,18.196162581443787 17.326620221138,18.179497122764587 17.326620221138,18.179497122764587 17.701613903045654,18.136852979660034 17.701613903045654,18.136852979660034 18.211686611175537,18.079277873039246 18.211686611175537,18.079277873039246 18.762783706188202,18.01777482032776 18.762783706188202,18.01777482032776 19.260871410369873,17.96344220638275 19.260871410369873,17.96344220638275 19.611939787864685,17.927326261997223 19.611939787864685,17.927326261997223 21.37410342693329,17.77503192424774 21.37410342693329,17.77503192424774 23.520781099796295,17.628514766693115 23.520781099796295,17.628514766693115 25.997179746627808,17.510555684566498 25.997179746627808,17.510555684566498 28.748464584350586,17.443962395191193 28.748464584350586,17.443962395191193 31.719961762428284,17.451587319374084 31.719961762428284,17.451587319374084 34.85674262046814,17.556214332580566 34.85674262046814,17.556214332580566 39.264971017837524,17.801468074321747 39.264971017837524,17.801468074321747 42.91534125804901,18.047453463077545 42.91534125804901,18.047453463077545 45.788466930389404,18.273964524269104 45.788466930389404,18.273964524269104 47.86478281021118,18.460753560066223 47.86478281021118,18.460753560066223 49.124887585639954,18.587684631347656 49.124887585639954,18.587684631347656 49.54925775527954,18.634483218193054 49.54925775527954,18.634483218193054 49.97283220291138,18.6871275305748 49.97283220291138,18.6871275305748 51.227980852127075,18.855059146881104 51.227980852127075,18.855059146881104 53.29124331474304,19.153164327144623 53.29124331474304,19.153164327144623 56.139206886291504,19.596393406391144 56.139206886291504,19.596393406391144 59.74850654602051,20.199701189994812 59.74850654602051,20.199701189994812" stroke="white" stroke-width="0.1" /><polygon points="78.27096581459045,44.355157017707825 78.27096581459045,44.355157017707825 80.03936409950256,44.324907660484314 80.03936409950256,44.324907660484314 81.68174624443054,43.84725093841553 81.68174624443054,43.84725093841553 83.12811255455017,42.97736585140228 83.12811255455017,42.97736585140228 84.30842757225037,41.7704313993454 84.30842757225037,41.7704313993454 85.15269756317139,40.281739830970764 85.15269756317139,40.281739830970764 85.59092879295349,38.56639862060547 85.59092879295349,38.56639862060547 85.56129336357117,36.796265840530396 85.56129336357117,36.796265840530396 85.08405089378357,35.1529061794281 85.08405089378357,35.1529061794281 84.21441912651062,33.70614945888519 84.21441912651062,33.70614945888519 83.00762176513672,32.52578675746918 83.00762176513672,32.52578675746918 81.51897192001343,31.68165385723114 81.51897192001343,31.68165385723114 79.80363368988037,31.243515014648438 79.80363368988037,31.243515014648438 78.03238034248352,31.27376437187195 78.03238034248352,31.27376437187195 76.38847231864929,31.751421093940735 76.38847231864929,31.751421093940735 74.94155764579773,32.62130618095398 74.94155764579773,32.62130618095398 73.76128435134888,33.828192949295044 73.76128435134888,33.828192949295044 72.91733622550964,35.31691133975983 72.91733622550964,35.31691133975983 72.47928977012634,37.03227341175079 72.47928977012634,37.03227341175079 72.50946760177612,38.801196217536926 72.50946760177612,38.801196217536926 72.98696637153625,40.44382572174072 72.98696637153625,40.44382572174072 73.85689616203308,41.890332102775574 73.85689616203308,41.890332102775574 75.0641942024231,43.070897459983826 75.0641942024231,43.070897459983826 76.55389308929443,43.91578435897827 76.55389308929443,43.91578435897827" stroke="white" stroke-width="0.1" /><polygon points="96.2596595287323,46.96170389652252 96.2596595287323,46.96170389652252 97.25101590156555,47.0958948135376 97.25101590156555,47.0958948135376 98.14368486404419,47.47426509857178 98.14368486404419,47.47426509857178 98.90127182006836,48.060429096221924 98.90127182006836,48.060429096221924 99.48738813400269,48.817992210388184 99.48738813400269,48.817992210388184 99.86576437950134,49.71066117286682 99.86576437950134,49.71066117286682 100.0,50.70204138755798 100.0,50.70204138755798 100.0,58.965855836868286 100.0,58.965855836868286 99.86580610275269,59.95723605155945 99.86580610275269,59.95723605155945 99.4874358177185,60.849881172180176 99.4874358177185,60.849881172180176 98.90127182006836,61.607468128204346 98.90127182006836,61.607468128204346 98.14366102218628,62.19360828399658 98.14366102218628,62.19360828399658 97.25099802017212,62.57195472717285 97.25099802017212,62.57195472717285 96.2596595287323,62.70619034767151 96.2596595287323,62.70619034767151 69.32922005653381,62.70619034767151 69.32922005653381,62.70619034767151 68.58932971954346,62.63195276260376 68.58932971954346,62.63195276260376 67.89869666099548,62.419068813323975 67.89869666099548,62.419068813323975 67.27166771888733,62.08231449127197 67.27166771888733,62.08231449127197 66.72253608703613,61.636459827423096 66.72253608703613,61.636459827423096 66.26567840576172,61.096298694610596 66.26567840576172,61.096298694610596 65.91542959213257,60.476601123809814 65.91542959213257,60.476601123809814 22.339756786823273,55.3716242313385 22.339756786823273,55.3716242313385 21.96280062198639,58.14473032951355 21.96280062198639,58.14473032951355 21.60903960466385,59.415292739868164 21.60903960466385,59.415292739868164 20.96671611070633,60.51102876663208 20.96671611070633,60.51102876663208 20.083682239055634,61.39488220214844 20.083682239055634,61.39488220214844 19.007638096809387,62.02985644340515 19.007638096809387,62.02985644340515 17.786401510238647,62.37897872924805 17.786401510238647,62.37897872924805 16.46771728992462,62.405210733413696 16.46771728992462,62.405210733413696 4.31307777762413,60.98213195800781 4.31307777762413,60.98213195800781 3.0424267053604126,60.65695285797119 3.0424267053604126,60.65695285797119 1.9412137567996979,60.03156900405884 1.9412137567996979,60.03156900405884 1.0495959781110287,59.15798544883728 1.0495959781110287,59.15798544883728 0.4076841287314892,58.088117837905884 0.4076841287314892,58.088117837905884 0.05564620951190591,56.87394142150879 0.05564620951190591,56.87394142150879 0.03360460395924747,55.56740760803223 0.03360460395924747,55.56740760803223 0.03797639801632613,55.566126108169556 0.03797639801632613,55.566126108169556 0.04031639255117625,55.55800199508667 0.04031639255117625,55.55800199508667 0.04200575640425086,55.54110407829285 0.04200575640425086,55.54110407829285 0.0444256525952369,55.51350712776184 0.0444256525952369,55.51350712776184 0.048957252874970436,55.47323226928711 0.048957252874970436,55.47323226928711 0.05698172026313841,55.41837811470032 0.05698172026313841,55.41837811470032 3.5299446433782578,29.87595498561859 3.5299446433782578,29.87595498561859 3.614378347992897,29.435259103775024 3.614378347992897,29.435259103775024 3.735898435115814,29.013466835021973 3.735898435115814,29.013466835021973 3.8919247686862946,28.611034154891968 3.8919247686862946,28.611034154891968 4.079843312501907,28.228279948234558 4.079843312501907,28.228279948234558 4.297074675559998,27.865681052207947 4.297074675559998,27.865681052207947 4.5410048216581345,27.52363085746765 4.5410048216581345,27.52363085746765 5.012930557131767,22.447876632213593 5.012930557131767,22.447876632213593 9.3113973736763,20.17737329006195 9.3113973736763,20.17737329006195 9.517408162355423,19.88516002893448 9.517408162355423,19.88516002893448 9.429744631052017,19.873471558094025 9.429744631052017,19.873471558094025 8.090490847826004,19.531238079071045 8.090490847826004,19.531238079071045 6.927365809679031,18.87126863002777 6.927365809679031,18.87126863002777 5.983811244368553,17.948511242866516 5.983811244368553,17.948511242866516 5.303237959742546,16.817757487297058 5.303237959742546,16.817757487297058 4.929101467132568,15.533934533596039 4.929101467132568,15.533934533596039 4.904811084270477,14.15192186832428 4.904811084270477,14.15192186832428 4.919422045350075,14.023347198963165 4.919422045350075,14.023347198963165 5.262396484613419,12.684185802936554 5.262396484613419,12.684185802936554 5.923062562942505,11.521220207214355 5.923062562942505,11.521220207214355 6.846573203802109,10.57778000831604 6.846573203802109,10.57778000831604 7.9780347645282745,9.897058457136154 7.9780347645282745,9.897058457136154 9.262588620185852,9.522362053394318 9.262588620185852,9.522362053394318 10.64535453915596,9.496953338384628 10.64535453915596,9.496953338384628 13.795420527458191,9.868065267801285 13.795420527458191,9.868065267801285 14.200524985790253,9.932991862297058 14.200524985790253,9.932991862297058 14.592787623405457,10.029970109462738 14.592787623405457,10.029970109462738 14.971582591533661,10.156992077827454 14.971582591533661,10.156992077827454 15.336255729198456,10.312002152204514 15.336255729198456,10.312002152204514 15.686148405075073,10.492992401123047 15.686148405075073,10.492992401123047 16.020630300045013,10.697952657938004 16.020630300045013,10.697952657938004 17.209747433662415,9.022083133459091 17.209747433662415,9.022083133459091 18.410345911979675,7.33434185385704 18.410345911979675,7.33434185385704 19.548200070858,5.739812552928925 19.548200070858,5.739812552928925 20.54905593395233,4.343486577272415 20.54905593395233,4.343486577272415 21.33874148130417,3.2504238188266754 21.33874148130417,3.2504238188266754 21.842992305755615,2.5656385347247124 21.842992305755615,2.5656385347247124 22.8789821267128,1.470064464956522 22.8789821267128,1.470064464956522 24.266040325164795,0.6904924288392067 24.266040325164795,0.6904924288392067 26.30053460597992,0.20929824095219374 26.30053460597992,0.20929824095219374 29.278743267059326,0.008857735519995913 29.278743267059326,0.008857735519995913 33.49698781967163,0.07159241940826178 33.49698781967163,0.07159241940826178 39.25164043903351,0.3798781428486109 39.25164043903351,0.3798781428486109 42.258018255233765,0.5889709107577801 42.258018255233765,0.5889709107577801 45.0747549533844,0.8057571947574615 45.0747549533844,0.8057571947574615 47.55270779132843,1.01069500669837 47.55270779132843,1.01069500669837 49.542638659477234,1.184197049587965 49.542638659477234,1.184197049587965 50.89540481567383,1.3067442923784256 50.89540481567383,1.3067442923784256 51.46179795265198,1.3587948866188526 51.46179795265198,1.3587948866188526 51.569920778274536,1.3675613328814507 51.569920778274536,1.3675613328814507 51.67657732963562,1.3821720145642757 51.67657732963562,1.3821720145642757 52.24055051803589,1.4626906253397465 52.24055051803589,1.4626906253397465 53.5857617855072,1.6560997813940048 53.5857617855072,1.6560997813940048 55.562472343444824,1.9472407177090645 55.562472343444824,1.9472407177090645 58.020955324172974,2.3209093138575554 58.020955324172974,2.3209093138575554 60.81154942512512,2.7619926258921623 60.81154942512512,2.7619926258921623 63.784462213516235,3.2552633434534073 63.784462213516235,3.2552633434534073 69.45327520370483,4.282737895846367 69.45327520370483,4.282737895846367 73.571115732193,5.195335671305656 73.571115732193,5.195335671305656 76.42216682434082,6.078415364027023 76.42216682434082,6.078415364027023 78.2904863357544,7.017221301794052 78.2904863357544,7.017221301794052 79.46028113365173,8.097134530544281 79.46028113365173,8.097134530544281 80.21565079689026,9.403444826602936 80.21565079689026,9.403444826602936 80.5498719215393,10.183930397033691 80.5498719215393,10.183930397033691 81.06635808944702,11.428716033697128 81.06635808944702,11.428716033697128 81.7176342010498,13.018131256103516 81.7176342010498,13.018131256103516 82.45604038238525,14.832551777362823 82.45604038238525,14.832551777362823 83.23408365249634,16.752351820468903 83.23408365249634,16.752351820468903 84.00420546531677,18.657861649990082 84.00420546531677,18.657861649990082 88.34066390991211,29.431790113449097 88.34066390991211,29.431790113449097 91.99917912483215,32.6315313577652 91.99917912483215,32.6315313577652 91.28763675689697,37.672221660614014 91.28763675689697,37.672221660614014 91.4463460445404,38.0621463060379 91.4463460445404,38.0621463060379 91.57451391220093,38.465628027915955 91.57451391220093,38.465628027915955 91.6695237159729,38.8816237449646 91.6695237159729,38.8816237449646 91.7288601398468,39.30903077125549 91.7288601398468,39.30903077125549 91.75000190734863,39.74685072898865 91.75000190734863,39.74685072898865 91.73034429550171,40.19402861595154 91.73034429550171,40.19402861595154 91.11742377281189,46.96170389652252 91.11742377281189,46.96170389652252" stroke="white" stroke-width="0.1" /></svg>