<?xml version="1.0" encoding="utf-8" ?>
<svg baseProfile="full" height="69.14411783218384" version="1.1" width="100.0" xmlns="http://www.w3.org/2000/svg" xmlns:ev="http://www.w3.org/2001/xml-events" xmlns:xlink="http://www.w3.org/1999/xlink"><defs><clipPath /></defs><polygon points="28.83824110031128,61.2130343914032 28.83824110031128,61.2130343914032 28.81034016609192,61.20256781578064 28.81034016609192,61.20256781578064 28.79289984703064,61.20256781578064 28.79289984703064,61.20256781578064 28.798213601112366,61.20273470878601 28.798213601112366,61.20273470878601 28.803664445877075,61.20322346687317 28.803664445877075,61.20322346687317 28.809234499931335,61.20404005050659 28.809234499931335,61.20404005050659 28.81491780281067,61.20518445968628 28.81491780281067,61.20518445968628 28.82067859172821,61.20665669441223 28.82067859172821,61.20665669441223 28.82649600505829,61.20845675468445 28.82649600505829,61.20845675468445 28.83235514163971,61.21057868003845 28.83235514163971,61.21057868003845" stroke="white" stroke-width="0.1" /><polygon points="80.09033799171448,35.1841539144516 80.09033799171448,35.1841539144516 80.6495726108551,35.571399331092834 80.6495726108551,35.571399331092834 82.18547701835632,36.70877814292908 82.18547701835632,36.70877814292908 84.48535799980164,38.559696078300476 84.48535799980164,38.559696078300476 87.33651638031006,41.08756184577942 87.33651638031006,41.08756184577942 90.52625894546509,44.255805015563965 90.52625894546509,44.255805015563965 93.84188652038574,48.02785813808441 93.84188652038574,48.02785813808441 97.07069993019104,52.367132902145386 97.07069993019104,52.367132902145386 100.0,57.23702907562256 100.0,57.23702907562256 84.97140407562256,69.14411783218384 84.97140407562256,69.14411783218384 71.3082492351532,69.14411783218384 71.3082492351532,69.14411783218384 70.88760733604431,68.55842471122742 70.88760733604431,68.55842471122742 69.68133449554443,67.11164712905884 69.68133449554443,67.11164712905884 67.77288317680359,65.26922583580017 67.77288317680359,65.26922583580017 65.24571180343628,63.49661946296692 65.24571180343628,63.49661946296692 62.183284759521484,62.25926876068115 62.183284759521484,62.25926876068115 58.669066429138184,62.02262043952942 58.669066429138184,62.02262043952942 54.7865092754364,63.252127170562744 54.7865092754364,63.252127170562744 50.61907172203064,66.4132297039032 50.61907172203064,66.4132297039032 50.334298610687256,66.30886793136597 50.334298610687256,66.30886793136597 49.54379200935364,65.99748134613037 49.54379200935364,65.99748134613037 48.34330677986145,65.48165082931519 48.34330677986145,65.48165082931519 46.82857096195221,64.76396918296814 46.82857096195221,64.76396918296814 45.095351338386536,63.846999406814575 45.095351338386536,63.846999406814575 43.239349126815796,62.733298540115356 43.239349126815796,62.733298540115356 41.356346011161804,61.42545938491821 41.356346011161804,61.42545938491821 39.5420640707016,59.92606282234192 39.5420640707016,59.92606282234192 39.22615945339203,60.090696811676025 39.22615945339203,60.090696811676025 38.90634477138519,60.24709939956665 38.90634477138519,60.24709939956665 38.58281672000885,60.395240783691406 38.58281672000885,60.395240783691406 38.25574815273285,60.53510904312134 38.25574815273285,60.53510904312134 37.925341725349426,60.666632652282715 37.925341725349426,60.666632652282715 37.59174644947052,60.78976392745972 37.59174644947052,60.78976392745972 37.25516498088837,60.904479026794434 37.25516498088837,60.904479026794434 36.91580891609192,61.0107421875 36.91580891609192,61.0107421875 36.36409342288971,61.167335510253906 36.36409342288971,61.167335510253906 35.81341505050659,61.30027770996094 35.81341505050659,61.30027770996094 35.26461720466614,61.410415172576904 35.26461720466614,61.410415172576904 34.71854329109192,61.49858832359314 34.71854329109192,61.49858832359314 34.176066517829895,61.56567335128784 34.176066517829895,61.56567335128784 33.63805711269379,61.61254048347473 33.63805711269379,61.61254048347473 33.105361461639404,61.64003610610962 33.105361461639404,61.64003610610962 32.57882297039032,61.64900064468384 32.57882297039032,61.64900064468384 32.09070563316345,61.64156198501587 32.09070563316345,61.64156198501587 31.60880208015442,61.619627475738525 31.60880208015442,61.619627475738525 31.133434176445007,61.583709716796875 31.133434176445007,61.583709716796875 30.66493570804596,61.53433918952942 30.66493570804596,61.53433918952942 30.203628540039062,61.472052335739136 30.203628540039062,61.472052335739136 29.74984347820282,61.39739155769348 29.74984347820282,61.39739155769348 29.303905367851257,61.31088137626648 29.303905367851257,61.31088137626648 28.86614203453064,61.2130343914032 28.86614203453064,61.2130343914032 28.81034016609192,61.20256781578064 28.81034016609192,61.20256781578064 28.78941297531128,61.19559407234192 28.78941297531128,61.19559407234192 28.79289984703064,61.20256781578064 28.79289984703064,61.20256781578064 27.097415924072266,60.71082949638367 27.097415924072266,60.71082949638367 25.504794716835022,60.10475158691406 25.504794716835022,60.10475158691406 24.011817574501038,59.40508246421814 24.011817574501038,59.40508246421814 22.6152703166008,58.63255262374878 22.6152703166008,58.63255262374878 21.311910450458527,57.80786871910095 21.311910450458527,57.80786871910095 20.098496973514557,56.951743364334106 20.098496973514557,56.951743364334106 18.97181123495102,56.08490705490112 18.97181123495102,56.08490705490112 17.92864203453064,55.22810220718384 17.92864203453064,55.22810220718384 17.92515367269516,55.22810220718384 17.92515367269516,55.22810220718384 17.90771633386612,55.21066188812256 17.90771633386612,55.21066188812256 17.531028389930725,54.885268211364746 17.531028389930725,54.885268211364746 17.164775729179382,54.560911655426025 17.164775729179382,54.560911655426025 16.808906197547913,54.23826575279236 16.808906197547913,54.23826575279236 16.46336168050766,53.91802191734314 16.46336168050766,53.91802191734314 16.128118336200714,53.60088348388672 16.128118336200714,53.60088348388672 15.803146362304688,53.2875657081604 15.803146362304688,53.2875657081604 15.488393604755402,52.97873616218567 15.488393604755402,52.97873616218567 15.18380343914032,52.67508625984192 15.18380343914032,52.67508625984192 1.62353515625,52.67508625984192 1.62353515625,52.67508625984192 1.2959344312548637,52.512091398239136 1.2959344312548637,52.512091398239136 0.9909766726195812,52.044737339019775 0.9909766726195812,52.044737339019775 0.715174013748765,51.30541920661926 0.715174013748765,51.30541920661926 0.47498433850705624,50.3265380859375 0.47498433850705624,50.3265380859375 0.27689253911376,49.14052486419678 0.27689253911376,49.14052486419678 0.1273836474865675,47.77979254722595 0.1273836474865675,47.77979254722595 0.032929013832472265,46.276748180389404 0.032929013832472265,46.276748180389404 0.0,44.66378688812256 0.0,44.66378688812256 0.0,17.18750149011612 0.0,17.18750149011612 0.032929013832472265,15.57268500328064 0.032929013832472265,15.57268500328064 0.1273836474865675,14.069095253944397 0.1273836474865675,14.069095253944397 0.27689253911376,12.708801031112671 0.27689253911376,12.708801031112671 0.47498433850705624,11.52387410402298 0.47498433850705624,11.52387410402298 0.715174013748765,10.546412318944931 0.715174013748765,10.546412318944931 0.9909766726195812,9.808513522148132 0.9909766726195812,9.808513522148132 1.295907236635685,9.342248737812042 1.295907236635685,9.342248737812042 1.62353515625,9.17968824505806 1.62353515625,9.17968824505806 17.74030476808548,9.17968824505806 17.74030476808548,9.17968824505806 19.934764504432678,7.253804057836533 19.934764504432678,7.253804057836533 22.26014882326126,5.550221353769302 22.26014882326126,5.550221353769302 24.699607491493225,4.070861265063286 24.699607491493225,4.070861265063286 27.23628580570221,2.81764455139637 27.23628580570221,2.81764455139637 29.853317141532898,1.7924923449754715 29.853317141532898,1.7924923449754715 32.533836364746094,0.9973254054784775 32.533836364746094,0.9973254054784775 35.260993242263794,0.4340648651123047 35.260993242263794,0.4340648651123047 38.01792860031128,0.10463170474395156 38.01792860031128,0.10463170474395156 38.341060280799866,0.08111000643111765 38.341060280799866,0.08111000643111765 38.66438269615173,0.06032671662978828 38.66438269615173,0.06032671662978828 38.987910747528076,0.042404449777677655 38.987910747528076,0.042404449777677655 39.31165635585785,0.0274658203125 39.31165635585785,0.0274658203125 39.6356463432312,0.0156334470375441 39.6356463432312,0.0156334470375441 39.95991051197052,0.0070299422077368945 39.95991051197052,0.0070299422077368945 40.28445780277252,0.0017779215340851806 40.28445780277252,0.0017779215340851806 40.60930609703064,0.0 40.60930609703064,0.0 43.44974458217621,0.12271064333617687 43.44974458217621,0.12271064333617687 46.28010094165802,0.49122404307127 46.28010094165802,0.49122404307127 49.08229410648346,1.1061123572289944 49.08229410648346,1.1061123572289944 51.83824896812439,1.96794793009758 51.83824896812439,1.96794793009758 54.52987551689148,3.077302873134613 54.52987551689148,3.077302873134613 57.13907480239868,4.434749111533165 57.13907480239868,4.434749111533165 59.64776873588562,6.040859594941139 59.64776873588562,6.040859594941139 62.03787922859192,7.89620578289032 62.03787922859192,7.89620578289032 62.03787922859192,7.89969339966774 62.03787922859192,7.89969339966774 62.22098469734192,8.04966539144516 62.22098469734192,8.04966539144516 62.24539875984192,8.07756707072258 62.24539875984192,8.07756707072258 63.88144493103027,9.592057019472122 63.88144493103027,9.592057019472122 65.39377570152283,11.193248629570007 65.39377570152283,11.193248629570007 66.78161025047302,12.873977422714233 66.78161025047302,12.873977422714233 68.04417371749878,14.6270751953125 68.04417371749878,14.6270751953125 69.18069124221802,16.445405781269073 69.18069124221802,16.445405781269073 70.1903760433197,18.321828544139862 70.1903760433197,18.321828544139862 71.07246518135071,20.249177515506744 71.07246518135071,20.249177515506744 71.82617783546448,22.22028523683548 71.82617783546448,22.22028523683548 72.72253632545471,22.939983010292053 72.72253632545471,22.939983010292053 73.60458970069885,23.70561957359314 73.60458970069885,23.70561957359314 74.47111010551453,24.518340826034546 74.47111010551453,24.518340826034546 75.32087564468384,25.37929117679596 75.32087564468384,25.37929117679596 76.15265250205994,26.289615035057068 76.15265250205994,26.289615035057068 76.9652247428894,27.25045382976532 76.9652247428894,27.25045382976532 77.75737047195435,28.26295793056488 77.75737047195435,28.26295793056488 78.52783799171448,29.32826578617096 78.52783799171448,29.32826578617096" stroke="white" stroke-width="0.1" /><polygon points="66.8404757976532,31.8150132894516 66.8404757976532,31.8150132894516 66.64736866950989,27.686500549316406 66.64736866950989,27.686500549316406 65.36099910736084,22.702518105506897 65.36099910736084,22.702518105506897 62.954699993133545,17.387063801288605 62.954699993133545,17.387063801288605 59.40181612968445,12.26414293050766 59.40181612968445,12.26414293050766 54.67566251754761,7.85779282450676 54.67566251754761,7.85779282450676 48.74957203865051,4.6920232474803925 48.74957203865051,4.6920232474803925 41.596877574920654,3.290851041674614 41.596877574920654,3.290851041674614 33.19091796875,4.17829267680645 33.19091796875,4.17829267680645 25.245782732963562,7.1284569799900055 25.245782732963562,7.1284569799900055 19.33089792728424,11.314501613378525 19.33089792728424,11.314501613378525 15.20058810710907,16.3550928235054 15.20058810710907,16.3550928235054 12.60921061038971,21.86889797449112 12.60921061038971,21.86889797449112 11.311095952987671,27.474582195281982 11.311095952987671,27.474582195281982 11.060579121112823,32.790812849998474 11.060579121112823,32.790812849998474 11.612007021903992,37.43625581264496 11.612007021903992,37.43625581264496 12.7197265625,41.02957844734192 12.7197265625,41.02957844734192 14.38630074262619,44.21835243701935 14.38630074262619,44.21835243701935 16.741372644901276,47.694945335388184 16.741372644901276,47.694945335388184 19.733838737010956,51.14521384239197 19.733838737010956,51.14521384239197 23.31259697675705,54.2550265789032 23.31259697675705,54.2550265789032 27.426528930664062,56.7102313041687 27.426528930664062,56.7102313041687 32.02452063560486,58.19669961929321 32.02452063560486,58.19669961929321 37.0554655790329,58.40027928352356 37.0554655790329,58.40027928352356 42.46826469898224,57.0068359375 42.46826469898224,57.0068359375 46.89295291900635,54.22824025154114 46.89295291900635,54.22824025154114 49.289241433143616,50.71536898612976 49.289241433143616,50.71536898612976 50.10048151016235,46.80873453617096 50.10048151016235,46.80873453617096 49.77003037929535,42.84886121749878 49.77003037929535,42.84886121749878 48.74124825000763,39.17623460292816 48.74124825000763,39.17623460292816 47.45748043060303,36.13134324550629 47.45748043060303,36.13134324550629 46.36209011077881,34.05470252037048 46.36209011077881,34.05470252037048 45.89844048023224,33.28683078289032 45.89844048023224,33.28683078289032 45.686572790145874,32.960838079452515 45.686572790145874,32.960838079452515 45.06702721118927,32.13059604167938 45.06702721118927,32.13059604167938 44.063904881477356,31.017768383026123 44.063904881477356,31.017768383026123 42.70128607749939,29.84401285648346 42.70128607749939,29.84401285648346 41.003283858299255,28.830966353416443 41.003283858299255,28.830966353416443 38.99397253990173,28.200259804725647 38.99397253990173,28.200259804725647 36.69745624065399,28.173556923866272 36.69745624065399,28.173556923866272 34.13783609867096,28.97251844406128 34.13783609867096,28.97251844406128 31.905215978622437,30.220413208007812 31.905215978622437,30.220413208007812 30.470794439315796,31.3751220703125 30.470794439315796,31.3751220703125 29.680314660072327,32.414084672927856 29.680314660072327,32.414084672927856 29.37949299812317,33.31473469734192 29.37949299812317,33.31473469734192 29.414063692092896,34.0545117855072 29.414063692092896,34.0545117855072 29.629763960838318,34.61085855960846 29.629763960838318,34.61085855960846 29.872316122055054,34.96121168136597 29.872316122055054,34.96121168136597 29.98744547367096,35.08301079273224 29.98744547367096,35.08301079273224 30.04762828350067,35.149577260017395 30.04762828350067,35.149577260017395 30.235782265663147,35.30954718589783 30.235782265663147,35.30954718589783 30.56330680847168,35.50328016281128 30.56330680847168,35.50328016281128 31.04161024093628,35.67112684249878 31.04161024093628,35.67112684249878 31.68209195137024,35.75347065925598 31.68209195137024,35.75347065925598 32.49615430831909,35.6906920671463 32.49615430831909,35.6906920671463 33.49519670009613,35.423144698143005 33.49519670009613,35.423144698143005 34.69063937664032,34.8911851644516 34.69063937664032,34.8911851644516 36.03014349937439,34.6027672290802 36.03014349937439,34.6027672290802 37.34678626060486,34.9948912858963 37.34678626060486,34.9948912858963 38.489848375320435,35.889819264411926 38.489848375320435,35.889819264411926 39.30860459804535,37.1098130941391 39.30860459804535,37.1098130941391 39.652350544929504,38.477107882499695 39.652350544929504,38.477107882499695 39.370375871658325,39.81394171714783 39.370375871658325,39.81394171714783 38.31196129322052,40.94257652759552 38.31196129322052,40.94257652759552 36.32638156414032,41.68526828289032 36.32638156414032,41.68526828289032 34.01041328907013,41.82698428630829 34.01041328907013,41.82698428630829 32.047492265701294,41.34172797203064 32.047492265701294,41.34172797203064 30.41693866252899,40.33135175704956 30.41693866252899,40.33135175704956 29.09807562828064,38.89770805835724 29.09807562828064,38.89770805835724 28.070220351219177,37.14264631271362 28.070220351219177,37.14264631271362 27.312690019607544,35.16802191734314 27.312690019607544,35.16802191734314 26.80480182170868,33.075687289237976 26.80480182170868,33.075687289237976 26.52587890625,30.96749484539032 26.52587890625,30.96749484539032 26.618385314941406,28.834235668182373 26.618385314941406,28.834235668182373 27.22277045249939,26.669692993164062 27.22277045249939,26.669692993164062 28.311404585838318,24.584199488162994 28.311404585838318,24.584199488162994 29.85665500164032,22.68807590007782 29.85665500164032,22.68807590007782 31.83089792728424,21.091625094413757 31.83089792728424,21.091625094413757 34.20650064945221,19.905145466327667 34.20650064945221,19.905145466327667 36.95583641529083,19.238963723182678 36.95583641529083,19.238963723182678 40.05127251148224,19.2034050822258 40.05127251148224,19.2034050822258 43.052566051483154,19.892297685146332 43.052566051483154,19.892297685146332 45.55424451828003,21.200235188007355 45.55424451828003,21.200235188007355 47.57690727710724,22.95040488243103 47.57690727710724,22.95040488243103 49.14115071296692,24.96599555015564 49.14115071296692,24.96599555015564 50.267577171325684,27.070197463035583 50.267577171325684,27.070197463035583 50.97678303718567,29.086196422576904 50.97678303718567,29.086196422576904 51.28936767578125,30.837184190750122 51.28936767578125,30.837184190750122 51.22593641281128,32.14634656906128 51.22593641281128,32.14634656906128 51.088184118270874,33.09146463871002 51.088184118270874,33.09146463871002 51.132965087890625,33.87543857097626 51.132965087890625,33.87543857097626 51.3096809387207,34.50908958911896 51.3096809387207,34.50908958911896 51.56773328781128,35.00322699546814 51.56773328781128,35.00322699546814 51.85651779174805,35.368701815605164 51.85651779174805,35.368701815605164 52.125442028045654,35.61635911464691 52.125442028045654,35.61635911464691 52.32388973236084,35.75701117515564 52.32388973236084,35.75701117515564 52.40129828453064,35.80147922039032 52.40129828453064,35.80147922039032 52.60623097419739,35.97789704799652 52.60623097419739,35.97789704799652 53.17102670669556,36.464694142341614 53.17102670669556,36.464694142341614 54.020655155181885,37.19819188117981 54.020655155181885,37.19819188117981 55.08009195327759,38.11471164226532 55.08009195327759,38.11471164226532 56.27431869506836,39.15058076381683 56.27431869506836,39.15058076381683 57.528334856033325,40.242114663124084 57.528334856033325,40.242114663124084 58.767104148864746,41.32563769817352 58.767104148864746,41.32563769817352 59.91560220718384,42.3374742269516 59.91560220718384,42.3374742269516 60.929298400878906,43.10319423675537 60.929298400878906,43.10319423675537 61.81267499923706,43.53567063808441 61.81267499923706,43.53567063808441 62.564241886138916,43.7061607837677 62.564241886138916,43.7061607837677 63.18250894546509,43.68591606616974 63.18250894546509,43.68591606616974 63.665980100631714,43.54616105556488 63.665980100631714,43.54616105556488 64.01315927505493,43.35812330245972 64.01315927505493,43.35812330245972 64.22255635261536,43.19305717945099 64.22255635261536,43.19305717945099 64.29269313812256,43.12221109867096 64.29269313812256,43.12221109867096 64.36476111412048,43.02230775356293 64.36476111412048,43.02230775356293 64.56252932548523,42.678725719451904 64.56252932548523,42.678725719451904 64.85834121704102,42.0256644487381 64.85834121704102,42.0256644487381 65.22457003593445,40.99731743335724 65.22457003593445,40.99731743335724 65.63353538513184,39.527881145477295 65.63353538513184,39.527881145477295 66.05761647224426,37.551555037498474 66.05761647224426,37.551555037498474 66.46913886070251,35.002532601356506 66.46913886070251,35.002532601356506" stroke="white" stroke-width="0.1" /><polygon points="79.52183485031128,41.85965657234192 79.52183485031128,41.85965657234192 79.80679273605347,41.393935680389404 79.80679273605347,41.393935680389404 79.98810410499573,40.896227955818176 79.98810410499573,40.896227955818176 80.06771802902222,40.381595492362976 80.06771802902222,40.381595492362976 80.04761338233948,39.86511528491974 80.04761338233948,39.86511528491974 79.92973923683167,39.361873269081116 79.92973923683167,39.361873269081116 79.71605658531189,38.88697028160095 79.71605658531189,38.88697028160095 79.40853834152222,38.45547437667847 79.40853834152222,38.45547437667847 79.00913953781128,38.08245062828064 79.00913953781128,38.08245062828064 74.28850531578064,34.49358344078064 74.28850531578064,34.49358344078064 73.82386922836304,34.20761823654175 73.82386922836304,34.20761823654175 73.32682013511658,34.02584791183472 73.32682013511658,34.02584791183472 72.8125274181366,33.94617438316345 72.8125274181366,33.94617438316345 72.29614853858948,33.9665025472641 72.29614853858948,33.9665025472641 71.79284691810608,34.084758162498474 71.79284691810608,34.084758162498474 71.31778597831726,34.29886996746063 71.31778597831726,34.29886996746063 70.88612914085388,34.60674583911896 70.88612914085388,34.60674583911896 70.51304578781128,35.00627875328064 70.51304578781128,35.00627875328064 70.2281653881073,35.47099232673645 70.2281653881073,35.47099232673645 70.04705667495728,35.96818149089813 70.04705667495728,35.96818149089813 69.96771693229675,36.48262321949005 69.96771693229675,36.48262321949005 69.98814344406128,36.99907660484314 69.98814344406128,36.99907660484314 70.10634541511536,37.502291798591614 70.10634541511536,37.502291798591614 70.32029628753662,37.97700107097626 70.32029628753662,37.97700107097626 70.62800526618958,38.407981395721436 70.62800526618958,38.407981395721436 71.0274875164032,38.77999484539032 71.0274875164032,38.77999484539032 75.74637532234192,42.37583875656128 75.74637532234192,42.37583875656128 76.21158361434937,42.66064763069153 76.21158361434937,42.66064763069153 76.70904397964478,42.841559648513794 76.70904397964478,42.841559648513794 77.22358107566833,42.92061924934387 77.22358107566833,42.92061924934387 77.74004340171814,42.89987087249756 77.74004340171814,42.89987087249756 78.24326753616333,42.78135597705841 78.24326753616333,42.78135597705841 78.71807813644409,42.567119002342224 78.71807813644409,42.567119002342224 79.14932370185852,42.259204387664795 79.14932370185852,42.259204387664795" stroke="white" stroke-width="0.1" /><polygon points="95.4903781414032,58.44377875328064 95.4903781414032,58.44377875328064 95.88732719421387,58.14409255981445 95.88732719421387,58.14409255981445 96.22963666915894,57.82438516616821 96.22963666915894,57.82438516616821 96.51191234588623,57.49437212944031 96.51191234588623,57.49437212944031 96.72873616218567,57.16378688812256 96.72873616218567,57.16378688812256 96.87469005584717,56.84235692024231 96.87469005584717,56.84235692024231 96.94435000419617,56.539809703826904 96.94435000419617,56.539809703826904 96.93230390548706,56.26587271690369 96.93230390548706,56.26587271690369 96.8331515789032,56.0302734375 96.8331515789032,56.0302734375 96.6516375541687,55.8505654335022 96.6516375541687,55.8505654335022 96.40217423439026,55.73698282241821 96.40217423439026,55.73698282241821 96.09577059745789,55.68830370903015 96.09577059745789,55.68830370903015 95.74345350265503,55.70330023765564 95.74345350265503,55.70330023765564 95.35623788833618,55.78075647354126 95.35623788833618,55.78075647354126 94.9451208114624,55.919432640075684 94.9451208114624,55.919432640075684 94.52112913131714,56.118106842041016 94.52112913131714,56.118106842041016 94.09528970718384,56.37556314468384 94.09528970718384,56.37556314468384 93.69877576828003,56.67280554771423 93.69877576828003,56.67280554771423 93.35651993751526,56.99049234390259 93.35651993751526,56.99049234390259 93.07405352592468,57.31896162033081 93.07405352592468,57.31896162033081 92.85693168640137,57.6485812664032 92.85693168640137,57.6485812664032 92.71067380905151,57.96969532966614 92.71067380905151,57.96969532966614 92.64082908630371,58.27266573905945 92.64082908630371,58.27266573905945 92.65292286872864,58.547842502593994 92.65292286872864,58.547842502593994 92.75251626968384,58.78557562828064 92.75251626968384,58.78557562828064 92.93510317802429,58.966296911239624 92.93510317802429,58.966296911239624 93.18521022796631,59.080398082733154 93.18521022796631,59.080398082733154 93.49188804626465,59.1292679309845 93.49188804626465,59.1292679309845 93.84417533874512,59.11429524421692 93.84417533874512,59.11429524421692 94.231116771698,59.03686881065369 94.231116771698,59.03686881065369 94.64176893234253,58.898383378982544 94.64176893234253,58.898383378982544 95.065176486969,58.70022177696228 95.065176486969,58.70022177696228" stroke="white" stroke-width="0.1" /></svg>