<?xml version="1.0" encoding="utf-8" ?>
<svg baseProfile="full" height="61.88790798187256" version="1.1" width="82.1603000164032" xmlns="http://www.w3.org/2000/svg" xmlns:ev="http://www.w3.org/2001/xml-events" xmlns:xlink="http://www.w3.org/1999/xlink"><defs><clipPath /></defs><polygon points="53.1563937664032,45.90018391609192 53.1563937664032,45.90018391609192 53.38658094406128,45.923617482185364 53.38658094406128,45.923617482185364 53.60085964202881,45.99064588546753 53.60085964202881,45.99064588546753 53.79464626312256,46.096694469451904 53.79464626312256,46.096694469451904 53.96336317062378,46.23696804046631 53.96336317062378,46.23696804046631 54.1024386882782,46.40677571296692 54.1024386882782,46.40677571296692 54.207396507263184,46.601325273513794 54.207396507263184,46.601325273513794 54.27377223968506,46.81587517261505 54.27377223968506,46.81587517261505 54.296875,47.04590141773224 54.296875,47.04590141773224 54.278457164764404,47.79859483242035 54.278457164764404,47.79859483242035 54.22319769859314,48.543113470077515 54.22319769859314,48.543113470077515 54.13120985031128,49.27847981452942 54.13120985031128,49.27847981452942 54.00260090827942,50.00414252281189 54.00260090827942,50.00414252281189 53.83758544921875,50.719237327575684 53.83758544921875,50.719237327575684 53.63616943359375,51.4229953289032 53.63616943359375,51.4229953289032 53.398680686950684,52.114707231521606 53.398680686950684,52.114707231521606 53.125,52.79366970062256 53.125,52.79366970062256 52.822113037109375,53.45012545585632 52.822113037109375,53.45012545585632 52.49187350273132,54.088813066482544 52.49187350273132,54.088813066482544 52.13470458984375,54.70897555351257 52.13470458984375,54.70897555351257 51.75083875656128,55.30984401702881 51.75083875656128,55.30984401702881 51.34081244468689,55.890655517578125 51.34081244468689,55.890655517578125 50.90506672859192,56.45076632499695 50.90506672859192,56.45076632499695 50.44414401054382,56.989288330078125 50.44414401054382,56.989288330078125 49.95814859867096,57.50558376312256 49.95814859867096,57.50558376312256 49.446216225624084,58.00345540046692 49.446216225624084,58.00345540046692 48.910197615623474,58.474189043045044 48.910197615623474,58.474189043045044 48.35074543952942,58.917564153671265 48.35074543952942,58.917564153671265 47.76872992515564,59.33336615562439 47.76872992515564,59.33336615562439 47.164809703826904,59.72148776054382 47.164809703826904,59.72148776054382 46.53952717781067,60.08170247077942 46.53952717781067,60.08170247077942 45.894187688827515,60.41385531425476 45.894187688827515,60.41385531425476 45.22879719734192,60.7177734375 45.22879719734192,60.7177734375 44.5438951253891,60.990363359451294 44.5438951253891,60.990363359451294 43.847113847732544,61.227256059646606 43.847113847732544,61.227256059646606 43.139106035232544,61.428236961364746 43.139106035232544,61.428236961364746 42.42030680179596,61.59319281578064 42.42030680179596,61.59319281578064 41.691482067108154,61.7218017578125 41.691482067108154,61.7218017578125 40.95284640789032,61.813902854919434 40.95284640789032,61.813902854919434 40.205493569374084,61.86937689781189 40.205493569374084,61.86937689781189 39.44963812828064,61.88790798187256 39.44963812828064,61.88790798187256 32.62765109539032,61.88790798187256 32.62765109539032,61.88790798187256 31.873321533203125,61.86937689781189 31.873321533203125,61.86937689781189 31.12771213054657,61.81395649909973 31.12771213054657,61.81395649909973 30.39158582687378,61.7218017578125 30.39158582687378,61.7218017578125 29.66570258140564,61.59319281578064 29.66570258140564,61.59319281578064 28.950610756874084,61.428290605545044 28.950610756874084,61.428290605545044 28.24685275554657,61.227256059646606 28.24685275554657,61.227256059646606 27.55519449710846,60.990309715270996 27.55519449710846,60.990309715270996 26.87639594078064,60.7177734375 26.87639594078064,60.7177734375 26.218634843826294,60.411620140075684 26.218634843826294,60.411620140075684 25.579833984375,60.07804870605469 25.579833984375,60.07804870605469 24.96076375246048,59.71707105636597 24.96076375246048,59.71707105636597 24.36174750328064,59.32878851890564 24.36174750328064,59.32878851890564 23.783767223358154,58.91336798667908 23.783767223358154,58.91336798667908 23.22736531496048,58.47102999687195 23.22736531496048,58.47102999687195 22.693198919296265,58.0016553401947 22.693198919296265,58.0016553401947 22.1819207072258,57.50558376312256 22.1819207072258,57.50558376312256 21.69494777917862,56.987327337265015 21.69494777917862,56.987327337265015 21.23347818851471,56.447821855545044 21.23347818851471,56.447821855545044 20.797620713710785,55.887603759765625 20.797620713710785,55.887603759765625 20.38792222738266,55.30722737312317 20.38792222738266,55.30722737312317 20.00449150800705,54.70712184906006 20.00449150800705,54.70712184906006 19.64765340089798,54.08782958984375 19.64765340089798,54.08782958984375 19.31784600019455,53.44974398612976 19.31784600019455,53.44974398612976 19.01506781578064,52.79366970062256 19.01506781578064,52.79366970062256 18.74237209558487,52.114760875701904 18.74237209558487,52.114760875701904 18.505315482616425,51.4229953289032 18.505315482616425,51.4229953289032 18.30400824546814,50.719237327575684 18.30400824546814,50.719237327575684 18.13877671957016,50.00414252281189 18.13877671957016,50.00414252281189 18.009839951992035,49.27847981452942 18.009839951992035,49.27847981452942 17.91730672121048,48.54300618171692 17.91730672121048,48.54300618171692 17.86172091960907,47.79859483242035 17.86172091960907,47.79859483242035 17.84319281578064,47.04590141773224 17.84319281578064,47.04590141773224 17.86172091960907,46.290263533592224 17.86172091960907,46.290263533592224 17.917415499687195,45.543673634529114 17.917415499687195,45.543673634529114 18.009839951992035,44.80678141117096 18.009839951992035,44.80678141117096 18.13877671957016,44.08024549484253 18.13877671957016,44.08024549484253 18.30400824546814,43.364718556404114 18.30400824546814,43.364718556404114 18.50520670413971,42.6609605550766 18.50520670413971,42.6609605550766 18.74237209558487,41.96946322917938 18.74237209558487,41.96946322917938 19.01506781578064,41.29115641117096 19.01506781578064,41.29115641117096 19.3193718791008,40.63306748867035 19.3193718791008,40.63306748867035 19.65179592370987,39.99437689781189 19.65179592370987,39.99437689781189 20.01190334558487,39.375633001327515 20.01190334558487,39.375633001327515 20.3996941447258,38.77738118171692 20.3996941447258,38.77738118171692 20.814841985702515,38.200053572654724 20.814841985702515,38.200053572654724 21.25745564699173,37.64408826828003 21.25745564699173,37.64408826828003 21.727100014686584,37.11003065109253 21.727100014686584,37.11003065109253 22.22377359867096,36.59842610359192 22.22377359867096,36.59842610359192 22.73995578289032,36.11292243003845 22.73995578289032,36.11292243003845 23.27837347984314,35.652053356170654 23.27837347984314,35.652053356170654 23.83837103843689,35.216304659843445 23.83837103843689,35.216304659843445 24.41929578781128,34.80595350265503 24.41929578781128,34.80595350265503 25.02049207687378,34.421542286872864 25.02049207687378,34.421542286872864 25.6413072347641,34.06344950199127 25.6413072347641,34.06344950199127 26.28108561038971,33.732226490974426 26.28108561038971,33.732226490974426 26.93917453289032,33.42808485031128 26.93917453289032,33.42808485031128 27.48543918132782,33.20465087890625 27.48543918132782,33.20465087890625 28.03868055343628,33.00514221191406 28.03868055343628,33.00514221191406 28.598567843437195,32.829394936561584 28.598567843437195,32.829394936561584 29.16477918624878,32.67735242843628 29.16477918624878,32.67735242843628 29.73698377609253,32.548850774765015 29.73698377609253,32.548850774765015 30.31507432460785,32.4437290430069 30.31507432460785,32.4437290430069 30.89839518070221,32.36193060874939 30.89839518070221,32.36193060874939 31.48716688156128,32.3032945394516 31.48716688156128,32.3032945394516 31.48716688156128,26.57296359539032 31.48716688156128,26.57296359539032 31.510382890701294,26.343318819999695 31.510382890701294,26.343318819999695 31.577083468437195,26.129478216171265 31.577083468437195,26.129478216171265 31.68247938156128,25.93601942062378 31.68247938156128,25.93601942062378 31.82198703289032,25.76751708984375 31.82198703289032,25.76751708984375 31.99092447757721,25.628554821014404 31.99092447757721,25.628554821014404 32.18449354171753,25.52359700202942 32.18449354171753,25.52359700202942 32.398444414138794,25.45732855796814 32.398444414138794,25.45732855796814 32.62765109539032,25.43422281742096 32.62765109539032,25.43422281742096 39.44963812828064,25.43422281742096 39.44963812828064,25.43422281742096 39.68091905117035,25.45732855796814 39.68091905117035,25.45732855796814 39.89563286304474,25.52359700202942 39.89563286304474,25.52359700202942 40.08941948413849,25.628554821014404 40.08941948413849,25.628554821014404 40.25791883468628,25.76751708984375 40.25791883468628,25.76751708984375 40.3965562582016,25.93596577644348 40.3965562582016,25.93596577644348 40.50118625164032,26.129478216171265 40.50118625164032,26.129478216171265 40.56701958179474,26.343318819999695 40.56701958179474,26.343318819999695 40.59012532234192,26.57296359539032 40.59012532234192,26.57296359539032 40.59012532234192,40.22042453289032 40.59012532234192,40.22042453289032 40.567126870155334,40.45012593269348 40.567126870155334,40.45012593269348 40.50118625164032,40.663912892341614 40.50118625164032,40.663912892341614 40.396663546562195,40.8573716878891 40.396663546562195,40.8573716878891 40.25791883468628,41.02587103843689 40.25791883468628,41.02587103843689 40.08941948413849,41.16488993167877 40.08941948413849,41.16488993167877 39.89563286304474,41.26979410648346 39.89563286304474,41.26979410648346 39.68091905117035,41.33606255054474 39.68091905117035,41.33606255054474 39.44963812828064,41.35916829109192 39.44963812828064,41.35916829109192 32.62765109539032,41.35916829109192 32.62765109539032,41.35916829109192 32.331958413124084,41.366252303123474 32.331958413124084,41.366252303123474 32.04149603843689,41.387397050857544 32.04149603843689,41.387397050857544 31.75637423992157,41.42238199710846 31.75637423992157,41.42238199710846 31.47713840007782,41.47121012210846 31.47713840007782,41.47121012210846 31.203898787498474,41.53355360031128 31.203898787498474,41.53355360031128 30.93697726726532,41.609302163124084 30.93697726726532,41.609302163124084 30.6767076253891,41.698238253593445 30.6767076253891,41.698238253593445 30.4234117269516,41.8003648519516 30.4234117269516,41.8003648519516 30.1731675863266,41.918838024139404 30.1731675863266,41.918838024139404 29.92989718914032,42.04799234867096 29.92989718914032,42.04799234867096 29.6940416097641,42.1878844499588 29.6940416097641,42.1878844499588 29.46559488773346,42.33856499195099 29.46559488773346,42.33856499195099 29.244887828826904,42.50008761882782 29.244887828826904,42.50008761882782 29.03202772140503,42.672622203826904 29.03202772140503,42.672622203826904 28.827232122421265,42.856162786483765 28.827232122421265,42.856162786483765 28.63072156906128,43.05071234703064 28.63072156906128,43.05071234703064 28.43955159187317,43.255507946014404 28.43955159187317,43.255507946014404 28.25862467288971,43.46820414066315 28.25862467288971,43.46820414066315 28.08772623538971,43.68852972984314 28.08772623538971,43.68852972984314 27.9270738363266,43.91610622406006 27.9270738363266,43.91610622406006 27.776557207107544,44.150710105895996 27.776557207107544,44.150710105895996 27.63606607913971,44.39212381839752 27.63606607913971,44.39212381839752 27.505820989608765,44.64002549648285 27.505820989608765,44.64002549648285 27.38560438156128,44.89397406578064 27.38560438156128,44.89397406578064 27.282607555389404,45.14874219894409 27.282607555389404,45.14874219894409 27.19334363937378,45.40797770023346 27.19334363937378,45.40797770023346 27.117812633514404,45.671629905700684 27.117812633514404,45.671629905700684 27.05601453781128,45.93920111656189 27.05601453781128,45.93920111656189 27.007949352264404,46.210646629333496 27.007949352264404,46.210646629333496 26.97361707687378,46.485793590545654 26.97361707687378,46.485793590545654 26.95290744304657,46.76426649093628 26.95290744304657,46.76426649093628 26.94615125656128,47.04590141773224 26.94615125656128,47.04590141773224 26.953017711639404,47.33843207359314 26.953017711639404,47.33843207359314 26.97361707687378,47.627151012420654 26.97361707687378,47.627151012420654 27.007949352264404,47.911399602890015 27.007949352264404,47.911399602890015 27.05601453781128,48.1907457113266 27.05601453781128,48.1907457113266 27.117812633514404,48.464423418045044 27.117812633514404,48.464423418045044 27.19334363937378,48.732104897499084 27.19334363937378,48.732104897499084 27.28249728679657,48.99297654628754 27.28249728679657,48.99297654628754 27.38560438156128,49.2466539144516 27.38560438156128,49.2466539144516 27.50571370124817,49.500441551208496 27.50571370124817,49.500441551208496 27.63628363609314,49.747687578201294 27.63628363609314,49.747687578201294 27.77732014656067,49.988120794296265 27.77732014656067,49.988120794296265 27.92881727218628,50.22169351577759 27.92881727218628,50.22169351577759 28.091105818748474,50.44811964035034 28.091105818748474,50.44811964035034 28.26451063156128,50.66725015640259 28.26451063156128,50.66725015640259 28.4489244222641,50.87890625 28.4489244222641,50.87890625 28.64467203617096,51.08293890953064 28.64467203617096,51.08293890953064 28.85088324546814,51.280105113983154 28.85088324546814,51.280105113983154 29.06428873538971,51.46604776382446 29.06428873538971,51.46604776382446 29.28445041179657,51.640647649765015 29.28445041179657,51.640647649765015 29.5109361410141,51.80380940437317 29.5109361410141,51.80380940437317 29.74395751953125,51.95547342300415 29.74395751953125,51.95547342300415 29.983195662498474,52.095526456832886 29.983195662498474,52.095526456832886 30.22831678390503,52.22380757331848 30.22831678390503,52.22380757331848 30.47921359539032,52.34026312828064 30.47921359539032,52.34026312828064 30.73381781578064,52.44462490081787 30.73381781578064,52.44462490081787 30.99299967288971,52.53536105155945 30.99299967288971,52.53536105155945 31.256213784217834,52.612364292144775 31.256213784217834,52.612364292144775 31.52335286140442,52.67552137374878 31.52335286140442,52.67552137374878 31.79430365562439,52.72478461265564 31.79430365562439,52.72478461265564 32.06874430179596,52.76010036468506 32.06874430179596,52.76010036468506 32.34667181968689,52.78135538101196 32.34667181968689,52.78135538101196 32.62765109539032,52.78843641281128 32.62765109539032,52.78843641281128 39.44963812828064,52.78843641281128 39.44963812828064,52.78843641281128 39.74696695804596,52.78135538101196 39.74696695804596,52.78135538101196 40.03993570804596,52.76010036468506 40.03993570804596,52.76010036468506 40.32832682132721,52.72478461265564 40.32832682132721,52.72478461265564 40.61192274093628,52.67552137374878 40.61192274093628,52.67552137374878 40.89072346687317,52.612364292144775 40.89072346687317,52.612364292144775 41.16429090499878,52.53536105155945 41.16429090499878,52.53536105155945 41.43262803554535,52.44462490081787 41.43262803554535,52.44462490081787 41.69573187828064,52.34026312828064 41.69573187828064,52.34026312828064 41.95447862148285,52.22184658050537 41.95447862148285,52.22184658050537 42.20494031906128,52.09307074546814 42.20494031906128,52.09307074546814 42.44690239429474,51.954054832458496 42.44690239429474,51.954054832458496 42.68014132976532,51.80511474609375 42.68014132976532,51.80511474609375 42.904555797576904,51.646482944488525 42.904555797576904,51.646482944488525 43.12003254890442,51.47825479507446 43.12003254890442,51.47825479507446 43.326354026794434,51.300811767578125 43.326354026794434,51.300811767578125 43.52329969406128,51.11433267593384 43.52329969406128,51.11433267593384 43.71098279953003,50.9164035320282 43.71098279953003,50.9164035320282 43.88907551765442,50.70980787277222 43.88907551765442,50.70980787277222 44.05757486820221,50.494384765625 44.05757486820221,50.494384765625 44.21604871749878,50.27030110359192 44.21604871749878,50.27030110359192 44.36427652835846,50.03733038902283 44.36427652835846,50.03733038902283 44.50182318687439,49.7954785823822 44.50182318687439,49.7954785823822 44.62847113609314,49.544745683670044 44.62847113609314,49.544745683670044 44.74400281906128,49.28501844406128 44.74400281906128,49.28501844406128 44.84950602054596,49.02431070804596 44.84950602054596,49.02431070804596 44.94084119796753,48.757609724998474 44.94084119796753,48.757609724998474 45.01822590827942,48.48518669605255 45.01822590827942,48.48518669605255 45.08143961429596,48.20731282234192 45.08143961429596,48.20731282234192 45.130595564842224,47.924208641052246 45.130595564842224,47.924208641052246 45.16580104827881,47.636088728904724 45.16580104827881,47.636088728904724 45.186835527420044,47.343283891677856 45.186835527420044,47.343283891677856 45.1939195394516,47.04590141773224 45.1939195394516,47.04590141773224 45.19937038421631,46.9334214925766 45.19937038421631,46.9334214925766 45.21593451499939,46.82290554046631 45.21593451499939,46.82290554046631 45.24296522140503,46.71494960784912 45.24296522140503,46.71494960784912 45.28067708015442,46.61037027835846 45.28067708015442,46.61037027835846 45.32863199710846,46.50987982749939 45.32863199710846,46.50987982749939 45.38661539554596,46.41418755054474 45.38661539554596,46.41418755054474 45.454517006874084,46.324050426483154 45.454517006874084,46.324050426483154 45.53222954273224,46.24023735523224 45.53222954273224,46.24023735523224 45.61418890953064,46.164050698280334 45.61418890953064,46.164050698280334 45.70268988609314,46.09658718109131 45.70268988609314,46.09658718109131 45.79707682132721,46.03838324546814 45.79707682132721,46.03838324546814 45.89669704437256,45.98977565765381 45.89669704437256,45.98977565765381 46.00089192390442,45.95119059085846 46.00089192390442,45.95119059085846 46.10901176929474,45.923179388046265 46.10901176929474,45.923179388046265 46.22040092945099,45.90601325035095 46.22040092945099,45.90601325035095 46.33440375328064,45.90018391609192 46.33440375328064,45.90018391609192" stroke="white" stroke-width="0.1" /><polygon points="32.62765109539032,20.83740383386612 32.62765109539032,20.83740383386612 32.398444414138794,20.813970267772675 32.398444414138794,20.813970267772675 32.184600830078125,20.74694037437439 32.184600830078125,20.74694037437439 31.99092447757721,20.640891790390015 31.99092447757721,20.640891790390015 31.82198703289032,20.50061970949173 31.82198703289032,20.50061970949173 31.68247938156128,20.330865681171417 31.68247938156128,20.330865681171417 31.577083468437195,20.136262476444244 31.577083468437195,20.136262476444244 31.510382890701294,19.92165744304657 31.510382890701294,19.92165744304657 31.48716688156128,19.6916863322258 31.48716688156128,19.6916863322258 31.48716688156128,12.87493109703064 31.48716688156128,12.87493109703064 31.510382890701294,12.64299750328064 31.510382890701294,12.64299750328064 31.577083468437195,12.42741197347641 31.577083468437195,12.42741197347641 31.68247938156128,12.232699245214462 31.68247938156128,12.232699245214462 31.82198703289032,12.06338107585907 31.82198703289032,12.06338107585907 31.99092447757721,11.923927068710327 31.99092447757721,11.923927068710327 32.18449354171753,11.818750202655792 32.18449354171753,11.818750202655792 32.398444414138794,11.752374470233917 32.398444414138794,11.752374470233917 32.62765109539032,11.72921359539032 32.62765109539032,11.72921359539032 39.44963812828064,11.72921359539032 39.44963812828064,11.72921359539032 39.68091905117035,11.75232008099556 39.68091905117035,11.75232008099556 39.89563286304474,11.818695813417435 39.89563286304474,11.818695813417435 40.08941948413849,11.92387193441391 40.08941948413849,11.92387193441391 40.25791883468628,12.06338107585907 40.25791883468628,12.06338107585907 40.3965562582016,12.232699245214462 40.3965562582016,12.232699245214462 40.50118625164032,12.427303194999695 40.50118625164032,12.427303194999695 40.56701958179474,12.64299750328064 40.56701958179474,12.64299750328064 40.59012532234192,12.87493109703064 40.59012532234192,12.87493109703064 40.59012532234192,19.6916863322258 40.59012532234192,19.6916863322258 40.567126870155334,19.92165744304657 40.567126870155334,19.92165744304657 40.50118625164032,20.136262476444244 40.50118625164032,20.136262476444244 40.396663546562195,20.33081203699112 40.396663546562195,20.33081203699112 40.25791883468628,20.50061970949173 40.25791883468628,20.50061970949173 40.08941948413849,20.640891790390015 40.08941948413849,20.640891790390015 39.89563286304474,20.74694037437439 39.89563286304474,20.74694037437439 39.68091905117035,20.813970267772675 39.68091905117035,20.813970267772675 39.44963812828064,20.83740383386612 39.44963812828064,20.83740383386612" stroke="white" stroke-width="0.1" /><polygon points="77.82157063484192,14.99372273683548 77.82157063484192,14.99372273683548 78.30854654312134,15.511922538280487 78.30854654312134,15.511922538280487 78.77001166343689,16.051211953163147 78.77001166343689,16.051211953163147 79.20576333999634,16.611209511756897 79.20576333999634,16.611209511756897 79.61556911468506,17.19142496585846 79.61556911468506,17.19142496585846 79.99899983406067,17.791421711444855 79.99899983406067,17.791421711444855 80.3557276725769,18.410710990428925 80.3557276725769,18.410710990428925 80.68564534187317,19.049018621444702 80.68564534187317,19.049018621444702 80.9884250164032,19.70563679933548 80.9884250164032,19.70563679933548 81.2620997428894,20.38399875164032 81.2620997428894,20.38399875164032 81.49959444999695,21.07544094324112 81.49959444999695,21.07544094324112 81.70101046562195,21.779252588748932 81.70101046562195,21.779252588748932 81.86601996421814,22.49472588300705 81.86601996421814,22.49472588300705 81.99463486671448,23.22126179933548 81.99463486671448,23.22126179933548 82.08650946617126,23.958152532577515 82.08650946617126,23.958152532577515 82.14176893234253,24.704743921756744 82.14176893234253,24.704743921756744 82.1603000164032,25.46038031578064 82.1603000164032,25.46038031578064 82.14176893234253,26.21541917324066 82.14176893234253,26.21541917324066 82.08662271499634,26.961517333984375 82.08662271499634,26.961517333984375 81.99463486671448,27.697864174842834 81.99463486671448,27.697864174842834 81.86601996421814,28.42385470867157 81.86601996421814,28.42385470867157 81.70101046562195,29.1386216878891 81.70101046562195,29.1386216878891 81.49959444999695,29.84139621257782 81.49959444999695,29.84139621257782 81.2620997428894,30.53153157234192 81.2620997428894,30.53153157234192 80.9884250164032,31.20814859867096 80.9884250164032,31.20814859867096 80.68488240242004,31.868091225624084 80.68488240242004,31.868091225624084 80.3526759147644,32.50819742679596 80.3526759147644,32.50819742679596 79.99224066734314,33.128032088279724 79.99224066734314,33.128032088279724 79.60379719734192,33.72715711593628 79.60379719734192,33.72715711593628 79.1879951953888,34.30503010749817 79.1879951953888,34.30503010749817 78.74505519866943,34.86110270023346 78.74505519866943,34.86110270023346 78.2755196094513,35.39499640464783 78.2755196094513,35.39499640464783 77.77971625328064,35.90611219406128 77.77971625328064,35.90611219406128 77.26255655288696,36.393630504608154 77.26255655288696,36.393630504608154 76.72370076179504,36.85542643070221 76.72370076179504,36.85542643070221 76.16381049156189,37.29133903980255 76.16381049156189,37.29133903980255 75.58332681655884,37.70119845867157 75.58332681655884,37.70119845867157 74.98289346694946,38.08484971523285 74.98289346694946,38.08484971523285 74.3631660938263,38.442012667655945 74.3631660938263,38.442012667655945 73.72458577156067,38.77263963222504 73.72458577156067,38.77263963222504 73.06780219078064,39.07645344734192 73.06780219078064,39.07645344734192 72.52143025398254,39.29835855960846 72.52143025398254,39.29835855960846 71.96819186210632,39.497214555740356 71.96819186210632,39.497214555740356 71.40819430351257,39.67290818691254 71.40819430351257,39.67290818691254 70.84176540374756,39.82544243335724 70.84176540374756,39.82544243335724 70.26912569999695,39.954760670661926 70.26912569999695,39.954760670661926 69.69059705734253,40.0608628988266 69.69059705734253,40.0608628988266 69.10618543624878,40.143588185310364 69.10618543624878,40.143588185310364 68.51632595062256,40.20298719406128 68.51632595062256,40.20298719406128 68.51632595062256,45.9263414144516 68.51632595062256,45.9263414144516 68.49300265312195,46.157729625701904 68.49300265312195,46.157729625701904 68.4264063835144,46.372878551483154 68.4264063835144,46.372878551483154 68.32101345062256,46.567320823669434 68.32101345062256,46.567320823669434 68.18150281906128,46.73636555671692 68.18150281906128,46.73636555671692 68.01256537437439,46.87570929527283 68.01256537437439,46.87570929527283 67.81889200210571,46.980834007263184 67.81889200210571,46.980834007263184 67.60504841804504,47.04720973968506 67.60504841804504,47.04720973968506 67.37583875656128,47.07031548023224 67.37583875656128,47.07031548023224 60.5538547039032,47.07031548023224 60.5538547039032,47.07031548023224 60.32366156578064,47.04720973968506 60.32366156578064,47.04720973968506 60.10938882827759,46.980834007263184 60.10938882827759,46.980834007263184 59.91560220718384,46.875765919685364 59.91560220718384,46.875765919685364 59.74687933921814,46.73636555671692 59.74687933921814,46.73636555671692 59.6078097820282,46.5672641992569 59.6078097820282,46.5672641992569 59.50273871421814,46.372878551483154 59.50273871421814,46.372878551483154 59.436583518981934,46.157729625701904 59.436583518981934,46.157729625701904 59.41336750984192,45.9263414144516 59.41336750984192,45.9263414144516 59.41336750984192,32.28411078453064 59.41336750984192,32.28411078453064 59.43647623062134,32.05413818359375 59.43647623062134,32.05413818359375 59.50273871421814,31.839534640312195 59.50273871421814,31.839534640312195 59.607696533203125,31.644931435585022 59.607696533203125,31.644931435585022 59.74687933921814,31.47517740726471 59.74687933921814,31.47517740726471 59.91560220718384,31.334906816482544 59.91560220718384,31.334906816482544 60.10938882827759,31.22885823249817 60.10938882827759,31.22885823249817 60.323554277420044,31.161773204803467 60.323554277420044,31.161773204803467 60.5538547039032,31.13839328289032 60.5538547039032,31.13839328289032 67.37583875656128,31.13839328289032 67.37583875656128,31.13839328289032 67.67153143882751,31.13163709640503 67.67153143882751,31.13163709640503 67.96210408210754,31.11114501953125 67.96210408210754,31.11114501953125 68.2472288608551,31.077033281326294 68.2472288608551,31.077033281326294 68.52678656578064,31.02918565273285 68.52678656578064,31.02918565273285 68.80035996437073,30.96749484539032 68.80035996437073,30.96749484539032 69.06803846359253,30.891963839530945 69.06803846359253,30.891963839530945 69.32907700538635,30.802428722381592 69.32907700538635,30.802428722381592 69.58357095718384,30.69894015789032 69.58357095718384,30.69894015789032 69.83272433280945,30.582210421562195 69.83272433280945,30.582210421562195 70.07511854171753,30.45436441898346 70.07511854171753,30.45436441898346 70.31053900718689,30.31545579433441 70.31053900718689,30.31545579433441 70.53877115249634,30.16532063484192 70.53877115249634,30.16532063484192 70.75958847999573,30.004119873046875 70.75958847999573,30.004119873046875 70.97299098968506,29.83180582523346 70.97299098968506,29.83180582523346 71.17854952812195,29.648318886756897 71.17854952812195,29.648318886756897 71.37625813484192,29.45382297039032 71.37625813484192,29.45382297039032 71.56623005867004,29.249030351638794 71.56623005867004,29.249030351638794 71.74628376960754,29.036223888397217 71.74628376960754,29.036223888397217 71.91641926765442,28.815680742263794 71.91641926765442,28.815680742263794 72.07642197608948,28.58756184577942 72.07642197608948,28.58756184577942 72.22639322280884,28.352084755897522 72.22639322280884,28.352084755897522 72.36601114273071,28.10952365398407 72.36601114273071,28.10952365398407 72.4953830242157,27.859878540039062 72.4953830242157,27.859878540039062 72.6144015789032,27.6035875082016 72.6144015789032,27.6035875082016 72.71870374679565,27.34963595867157 72.71870374679565,27.34963595867157 72.80927896499634,27.091437578201294 72.80927896499634,27.091437578201294 72.8860080242157,26.828986406326294 72.8860080242157,26.828986406326294 72.94878363609314,26.56272053718567 72.94878363609314,26.56272053718567 72.99772500991821,26.292529702186584 72.99772500991821,26.292529702186584 73.03270697593689,26.01863443851471 73.03270697593689,26.01863443851471 73.0538547039032,25.741252303123474 73.0538547039032,25.741252303123474 73.06082844734192,25.46038031578064 73.06082844734192,25.46038031578064 73.0538547039032,25.165340304374695 73.0538547039032,25.165340304374695 73.03292751312256,24.875423312187195 73.03292751312256,24.875423312187195 72.99805283546448,24.590902030467987 72.99805283546448,24.590902030467987 72.94965982437134,24.3120476603508 72.94965982437134,24.3120476603508 72.88764119148254,24.039079248905182 72.88764119148254,24.039079248905182 72.81211018562317,23.772212862968445 72.81211018562317,23.772212862968445 72.72339463233948,23.511724174022675 72.72339463233948,23.511724174022675 72.62137532234192,23.25788289308548 72.62137532234192,23.25788289308548 72.50083088874817,23.00415188074112 72.50083088874817,23.00415188074112 72.36971259117126,22.757121920585632 72.36971259117126,22.757121920585632 72.22780585289001,22.516851127147675 72.22780585289001,22.516851127147675 72.07554578781128,22.28350043296814 72.07554578781128,22.28350043296814 71.91271185874939,22.057124972343445 71.91271185874939,22.057124972343445 71.73963785171509,21.838052570819855 71.73963785171509,21.838052570819855 71.55598402023315,21.626119315624237 71.55598402023315,21.626119315624237 71.36231064796448,21.42159640789032 71.36231064796448,21.42159640789032 71.15598917007446,21.224431693553925 71.15598917007446,21.224431693553925 70.94269394874573,21.038492023944855 70.94269394874573,21.038492023944855 70.7223117351532,20.863887667655945 70.7223117351532,20.863887667655945 70.49517035484314,20.70072740316391 70.49517035484314,20.70072740316391 70.26127576828003,20.549066364765167 70.26127576828003,20.549066364765167 70.02094984054565,20.40906697511673 70.02094984054565,20.40906697511673 69.77387070655823,20.280729234218597 69.77387070655823,20.280729234218597 69.52078938484192,20.16427218914032 69.52078938484192,20.16427218914032 69.26727890968323,20.058442652225494 69.26727890968323,20.058442652225494 69.00907754898071,19.96721625328064 69.00907754898071,19.96721625328064 68.74651312828064,19.89048570394516 68.74651312828064,19.89048570394516 68.47970485687256,19.82792466878891 68.47970485687256,19.82792466878891 68.20896863937378,19.779588282108307 68.20896863937378,19.779588282108307 67.93463826179504,19.745145738124847 67.93463826179504,19.745145738124847 67.65682101249695,19.72460150718689 67.65682101249695,19.72460150718689 67.37583875656128,19.71784383058548 67.37583875656128,19.71784383058548 60.5538547039032,19.71784383058548 60.5538547039032,19.71784383058548 60.25652289390564,19.724656641483307 60.25652289390564,19.724656641483307 59.96355414390564,19.745200872421265 59.96355414390564,19.745200872421265 59.67538356781006,19.77953314781189 59.67538356781006,19.77953314781189 59.39200520515442,19.82792466878891 59.39200520515442,19.82792466878891 59.11375284194946,19.89048570394516 59.11375284194946,19.89048570394516 58.84072780609131,19.96721625328064 58.84072780609131,19.96721625328064 58.573150634765625,20.058442652225494 58.573150634765625,20.058442652225494 58.31124782562256,20.16427218914032 58.31124782562256,20.16427218914032 58.05228352546692,20.28241902589798 58.05228352546692,20.28241902589798 57.80149698257446,20.410484075546265 57.80149698257446,20.410484075546265 57.55898952484131,20.548684895038605 57.55898952484131,20.548684895038605 57.3250949382782,20.69680392742157 57.3250949382782,20.69680392742157 57.09991455078125,20.85506021976471 57.09991455078125,20.85506021976471 56.88411593437195,21.023288369178772 56.88411593437195,21.023288369178772 56.67746663093567,21.20165228843689 56.67746663093567,21.20165228843689 56.48019313812256,21.39020711183548 56.48019313812256,21.39020711183548 56.292724609375,21.588189899921417 56.292724609375,21.588189899921417 56.11485242843628,21.79500162601471 56.11485242843628,21.79500162601471 55.94679117202759,22.010695934295654 55.94679117202759,22.010695934295654 55.78874945640564,22.23510891199112 55.78874945640564,22.23510891199112 55.64085245132446,22.468404471874237 55.64085245132446,22.468404471874237 55.5031955242157,22.71052896976471 55.5031955242157,22.71052896976471 55.375999212265015,22.961480915546417 55.375999212265015,22.961480915546417 55.25949001312256,23.22126179933548 55.25949001312256,23.22126179933548 55.15398383140564,23.481479287147522 55.15398383140564,23.481479287147522 55.06265163421631,23.74790906906128 55.06265163421631,23.74790906906128 54.98526692390442,24.020332098007202 54.98526692390442,24.020332098007202 54.92205023765564,24.29831475019455 54.92205023765564,24.29831475019455 54.872894287109375,24.581637978553772 54.872894287109375,24.581637978553772 54.83769178390503,24.869973957538605 54.83769178390503,24.869973957538605 54.8165500164032,25.162944197654724 54.8165500164032,25.162944197654724 54.8095703125,25.46038031578064 54.8095703125,25.46038031578064 54.804015159606934,25.57286024093628 54.804015159606934,25.57286024093628 54.787665605545044,25.68337619304657 54.787665605545044,25.68337619304657 54.7607421875,25.79122483730316 54.7607421875,25.79122483730316 54.72325086593628,25.89569091796875 54.72325086593628,25.89569091796875 54.675620794296265,25.996017456054688 54.675620794296265,25.996017456054688 54.618293046951294,26.091331243515015 54.618293046951294,26.091331243515015 54.55126166343689,26.181086897850037 54.55126166343689,26.181086897850037 54.4747531414032,26.26430094242096 54.4747531414032,26.26430094242096 54.39159274101257,26.3401597738266 54.39159274101257,26.3401597738266 54.30232882499695,26.4068603515625 54.30232882499695,26.4068603515625 54.20728921890259,26.46397352218628 54.20728921890259,26.46397352218628 54.10723090171814,26.51127576828003 54.10723090171814,26.51127576828003 54.00282144546509,26.54854953289032 54.00282144546509,26.54854953289032 53.89448404312134,26.575469970703125 53.89448404312134,26.575469970703125 53.783202171325684,26.591819524765015 53.783202171325684,26.591819524765015 53.6690890789032,26.59737765789032 53.6690890789032,26.59737765789032 46.84709906578064,26.59737765789032 46.84709906578064,26.59737765789032 46.617892384529114,26.57427191734314 46.617892384529114,26.57427191734314 46.404051780700684,26.5080064535141 46.404051780700684,26.5080064535141 46.21037244796753,26.40315592288971 46.21037244796753,26.40315592288971 46.04143500328064,26.26430094242096 46.04143500328064,26.26430094242096 45.9019273519516,26.0960191488266 45.9019273519516,26.0960191488266 45.79642415046692,25.90288519859314 45.79642415046692,25.90288519859314 45.729830861091614,25.689426064491272 45.729830861091614,25.689426064491272 45.7066148519516,25.46038031578064 45.7066148519516,25.46038031578064 45.725253224372864,24.70507025718689 45.725253224372864,24.70507025718689 45.780837535858154,23.95913302898407 45.780837535858154,23.95913302898407 45.87315320968628,23.223115503787994 45.87315320968628,23.223115503787994 46.00220024585724,22.49734103679657 46.00220024585724,22.49734103679657 46.1674302816391,21.782304346561432 46.1674302816391,21.782304346561432 46.368736028671265,21.078382432460785 46.368736028671265,21.078382432460785 46.605902910232544,20.38596123456955 46.605902910232544,20.38596123456955 46.8784898519516,19.70563679933548 46.8784898519516,19.70563679933548 47.181376814842224,19.048963487148285 47.181376814842224,19.048963487148285 47.511619329452515,18.410764634609222 47.511619329452515,18.410764634609222 47.86878526210785,17.791476845741272 47.86878526210785,17.791476845741272 48.25265407562256,17.19142496585846 48.25265407562256,17.19142496585846 48.662570118904114,16.611209511756897 48.662570118904114,16.611209511756897 49.098315834999084,16.051265597343445 49.098315834999084,16.051265597343445 49.559348821640015,15.51186740398407 49.559348821640015,15.51186740398407 50.04534125328064,14.99372273683548 50.04534125328064,14.99372273683548 50.55825710296631,14.4975945353508 50.55825710296631,14.4975945353508 51.094818115234375,14.028167724609375 51.094818115234375,14.028167724609375 51.65449380874634,13.585717976093292 51.65449380874634,13.585717976093292 52.23650336265564,13.17051500082016 52.23650336265564,13.17051500082016 52.84053683280945,12.78272420167923 52.84053683280945,12.78272420167923 53.465819358825684,12.422725558280945 53.465819358825684,12.422725558280945 54.11192178726196,12.09062933921814 54.11192178726196,12.09062933921814 54.77818250656128,11.7867611348629 54.77818250656128,11.7867611348629 55.46308755874634,11.514173448085785 55.46308755874634,11.514173448085785 56.15975856781006,11.277280747890472 56.15975856781006,11.277280747890472 56.86776638031006,11.076246201992035 56.86776638031006,11.076246201992035 57.58623480796814,10.91134250164032 57.58623480796814,10.91134250164032 58.31473469734192,10.782678425312042 58.31473469734192,10.782678425312042 59.05260443687439,10.690580308437347 59.05260443687439,10.690580308437347 59.799087047576904,10.63515841960907 59.799087047576904,10.63515841960907 60.5538547039032,10.61662957072258 60.5538547039032,10.61662957072258 67.37583875656128,10.61662957072258 67.37583875656128,10.61662957072258 68.1303858757019,10.63515841960907 68.1303858757019,10.63515841960907 68.87621283531189,10.690580308437347 68.87621283531189,10.690580308437347 69.61277723312378,10.7827328145504 69.61277723312378,10.7827328145504 70.33909559249878,10.91134250164032 70.33909559249878,10.91134250164032 71.05440497398376,11.076301336288452 71.05440497398376,11.076301336288452 71.75816297531128,11.27733588218689 71.75816297531128,11.27733588218689 72.44927883148193,11.514173448085785 72.44927883148193,11.514173448085785 73.1270968914032,11.7867611348629 73.1270968914032,11.7867611348629 73.78605604171753,12.090955674648285 73.78605604171753,12.090955674648285 74.42561984062195,12.42370679974556 74.42561984062195,12.42370679974556 75.04534125328064,12.784631550312042 75.04534125328064,12.784631550312042 75.64436197280884,13.1731316447258 75.64436197280884,13.1731316447258 76.22212171554565,13.588769733905792 76.22212171554565,13.588769733905792 76.77809000015259,14.031057059764862 76.77809000015259,14.031057059764862 77.31149196624756,14.499664306640625 77.31149196624756,14.499664306640625" stroke="white" stroke-width="0.1" /><polygon points="67.37583875656128,51.66887640953064 67.37583875656128,51.66887640953064 67.60504841804504,51.69219970703125 67.60504841804504,51.69219970703125 67.81889200210571,51.75901651382446 67.81889200210571,51.75901651382446 68.01256537437439,51.864516735076904 68.01256537437439,51.864516735076904 68.18150281906128,52.00392007827759 68.18150281906128,52.00392007827759 68.32101345062256,52.17258334159851 68.32101345062256,52.17258334159851 68.42651963233948,52.36555337905884 68.42651963233948,52.36555337905884 68.49310994148254,52.57824659347534 68.49310994148254,52.57824659347534 68.51632595062256,52.80587673187256 68.51632595062256,52.80587673187256 68.51632595062256,59.63134765625 68.51632595062256,59.63134765625 68.49300265312195,59.860724210739136 68.49300265312195,59.860724210739136 68.4264063835144,60.07494330406189 68.4264063835144,60.07494330406189 68.32101345062256,60.2691650390625 68.32101345062256,60.2691650390625 68.18150281906128,60.43875813484192 68.18150281906128,60.43875813484192 68.01256537437439,60.57886481285095 68.01256537437439,60.57886481285095 67.81889200210571,60.68485975265503 67.81889200210571,60.68485975265503 67.60504841804504,60.751891136169434 67.60504841804504,60.751891136169434 67.37583875656128,60.77532172203064 67.37583875656128,60.77532172203064 60.5538547039032,60.77532172203064 60.5538547039032,60.77532172203064 60.32366156578064,60.751891136169434 60.32366156578064,60.751891136169434 60.10938882827759,60.68485975265503 60.10938882827759,60.68485975265503 59.91560220718384,60.57886481285095 59.91560220718384,60.57886481285095 59.74687933921814,60.43875813484192 59.74687933921814,60.43875813484192 59.6078097820282,60.2691650390625 59.6078097820282,60.2691650390625 59.50273871421814,60.07494330406189 59.50273871421814,60.07494330406189 59.436583518981934,59.860724210739136 59.436583518981934,59.860724210739136 59.41336750984192,59.63134765625 59.41336750984192,59.63134765625 59.41336750984192,52.80587673187256 59.41336750984192,52.80587673187256 59.43647623062134,52.57824659347534 59.43647623062134,52.57824659347534 59.50273871421814,52.36555337905884 59.50273871421814,52.36555337905884 59.607696533203125,52.17252969741821 59.607696533203125,52.17252969741821 59.74687933921814,52.00392007827759 59.74687933921814,52.00392007827759 59.91560220718384,51.864463090896606 59.91560220718384,51.864463090896606 60.10938882827759,51.75901651382446 60.10938882827759,51.75901651382446 60.323554277420044,51.69219970703125 60.323554277420044,51.69219970703125 60.5538547039032,51.66887640953064 60.5538547039032,51.66887640953064" stroke="white" stroke-width="0.1" /></svg>