<?xml version="1.0" encoding="utf-8" ?>
<svg baseProfile="full" height="79.91071939468384" version="1.1" width="99.99741315841675" xmlns="http://www.w3.org/2000/svg" xmlns:ev="http://www.w3.org/2001/xml-events" xmlns:xlink="http://www.w3.org/1999/xlink"><defs><clipPath /></defs><polygon points="27.16239094734192,63.2638156414032 27.16239094734192,63.2638156414032 28.029116988182068,63.27798366546631 28.029116988182068,63.27798366546631 28.85608673095703,63.12376260757446 28.85608673095703,63.12376260757446 29.624170064926147,62.816405296325684 29.624170064926147,62.816405296325684 30.31420111656189,62.37095594406128 30.31420111656189,62.37095594406128 30.90704083442688,61.802566051483154 30.90704083442688,61.802566051483154 31.383544206619263,61.12638711929321 31.383544206619263,61.12638711929321 31.724557280540466,60.35745143890381 31.724557280540466,60.35745143890381 31.91092610359192,59.51102375984192 31.91092610359192,59.51102375984192 31.92462921142578,58.64432454109192 31.92462921142578,58.64432454109192 31.770381331443787,57.81751871109009 31.770381331443787,57.81751871109009 31.46318793296814,57.04967379570007 31.46318793296814,57.04967379570007 31.01806640625,56.35986328125 31.01806640625,56.35986328125 30.449992418289185,55.76717257499695 30.449992418289185,55.76717257499695 29.773986339569092,55.29066324234009 29.773986339569092,55.29066324234009 29.005038738250732,54.94930148124695 29.005038738250732,54.94930148124695 28.15813422203064,54.76248860359192 28.15813422203064,54.76248860359192 27.292129397392273,54.748427867889404 27.292129397392273,54.748427867889404 26.46593451499939,54.90286946296692 26.46593451499939,54.90286946296692 25.698596239089966,55.21044135093689 25.698596239089966,55.21044135093689 25.0091552734375,55.65621852874756 25.0091552734375,55.65621852874756 24.416665732860565,56.22493624687195 24.416665732860565,56.22493624687195 23.94016981124878,56.90133571624756 23.94016981124878,56.90133571624756 23.598712682724,57.67037868499756 23.598712682724,57.67037868499756 23.41134250164032,58.51702094078064 23.41134250164032,58.51702094078064 23.397283256053925,59.383177757263184 23.397283256053925,59.383177757263184 23.551614582538605,60.20965576171875 23.551614582538605,60.20965576171875 23.859134316444397,60.977500677108765 23.859134316444397,60.977500677108765 24.30463582277298,61.66731119155884 24.30463582277298,61.66731119155884 24.87291693687439,62.26000189781189 24.87291693687439,62.26000189781189 25.548774003982544,62.73651123046875 25.548774003982544,62.73651123046875 26.316997408866882,63.07743787765503 26.316997408866882,63.07743787765503" stroke="white" stroke-width="0.1" /><polygon points="59.6923828125,68.78662705421448 59.6923828125,68.78662705421448 60.020095109939575,68.84689927101135 60.020095109939575,68.84689927101135 60.32276153564453,68.83599758148193 60.32276153564453,68.83599758148193 60.5940043926239,68.75894069671631 60.5940043926239,68.75894069671631 60.82742214202881,68.62074136734009 60.82742214202881,68.62074136734009 61.01661920547485,68.42607855796814 61.01661920547485,68.42607855796814 61.15518808364868,68.1801974773407 61.15518808364868,68.1801974773407 61.23673915863037,67.88766384124756 61.23673915863037,67.88766384124756 61.2548828125,67.55371689796448 61.2548828125,67.55371689796448 61.16769313812256,65.69998860359192 61.16769313812256,65.69998860359192 61.117762327194214,65.34751057624817 61.117762327194214,65.34751057624817 61.0065758228302,64.99983072280884 61.0065758228302,64.99983072280884 60.84107756614685,64.66566324234009 60.84107756614685,64.66566324234009 60.62818765640259,64.35416340827942 60.62818765640259,64.35416340827942 60.374826192855835,64.07427191734314 60.374826192855835,64.07427191734314 60.0879430770874,63.83470892906189 60.0879430770874,63.83470892906189 59.77444648742676,63.644737005233765 59.77444648742676,63.644737005233765 59.44126844406128,63.51318359375 59.44126844406128,63.51318359375 38.35623860359192,57.37130641937256 38.35623860359192,57.37130641937256 38.00564110279083,57.3037326335907 38.00564110279083,57.3037326335907 37.639838457107544,57.295989990234375 37.639838457107544,57.295989990234375 37.26962208747864,57.34427571296692 37.26962208747864,57.34427571296692 36.90578043460846,57.44476318359375 36.90578043460846,57.44476318359375 36.55910789966583,57.593756914138794 36.55910789966583,57.593756914138794 36.240389943122864,57.78743624687195 36.240389943122864,57.78743624687195 35.96041798591614,58.022093772888184 35.96041798591614,58.022093772888184 35.72998344898224,58.29380750656128 35.72998344898224,58.29380750656128 34.6592515707016,59.8092257976532 34.6592515707016,59.8092257976532 34.49474275112152,60.099250078201294 34.49474275112152,60.099250078201294 34.40614640712738,60.38883924484253 34.40614640712738,60.38883924484253 34.3907505273819,60.67025661468506 34.3907505273819,60.67025661468506 34.44584608078003,60.93575954437256 34.44584608078003,60.93575954437256 34.5687061548233,61.17771863937378 34.5687061548233,61.17771863937378 34.75660681724548,61.38851046562195 34.75660681724548,61.38851046562195 35.00683903694153,61.56027913093567 35.00683903694153,61.56027913093567 35.31668782234192,61.68562173843384 35.31668782234192,61.68562173843384" stroke="white" stroke-width="0.1" /><polygon points="58.55538845062256,52.85993814468384 58.55538845062256,52.85993814468384 60.061800479888916,53.15922498703003 60.061800479888916,53.15922498703003 61.50534749031067,53.48162055015564 61.50534749031067,53.48162055015564 62.87304162979126,53.81796956062317 62.87304162979126,53.81796956062317 64.1518771648407,54.15867567062378 64.1518771648407,54.15867567062378 65.32886028289795,54.494261741638184 65.32886028289795,54.494261741638184 66.3909912109375,54.81545925140381 66.3909912109375,54.81545925140381 67.3252820968628,55.1125705242157 67.3252820968628,55.1125705242157 68.11872720718384,55.37632703781128 68.11872720718384,55.37632703781128 68.26948523521423,55.42929768562317 68.26948523521423,55.42929768562317 68.47923994064331,55.50384521484375 68.47923994064331,55.50384521484375 68.72361302375793,55.591148138046265 68.72361302375793,55.591148138046265 68.97823214530945,55.682373046875 68.97823214530945,55.682373046875 69.21870708465576,55.7686984539032 69.21870708465576,55.7686984539032 69.42065358161926,55.84128499031067 69.42065358161926,55.84128499031067 69.5596992969513,55.89120388031006 69.5596992969513,55.89120388031006 69.6114718914032,55.90994954109192 69.6114718914032,55.90994954109192 69.46269869804382,55.54221272468567 69.46269869804382,55.54221272468567 69.06806826591492,54.567283391952515 69.06806826591492,54.567283391952515 68.50508451461792,53.17753553390503 68.50508451461792,53.17753553390503 67.85126328468323,51.5655517578125 67.85126328468323,51.5655517578125 67.18410849571228,49.92370903491974 67.18410849571228,49.92370903491974 66.5811538696289,48.444151878356934 66.5811538696289,48.444151878356934 66.11990332603455,47.319579124450684 66.11990332603455,47.319579124450684 65.87786078453064,46.74246907234192 65.87786078453064,46.74246907234192 65.0613009929657,46.29778265953064 65.0613009929657,46.29778265953064 63.20365071296692,45.79162895679474 63.20365071296692,45.79162895679474 60.65935492515564,45.2610582113266 60.65935492515564,45.2610582113266 57.7828586101532,44.74356770515442 57.7828586101532,44.74356770515442 54.9285888671875,44.27621364593506 54.9285888671875,44.27621364593506 52.45100259780884,43.89626979827881 52.45100259780884,43.89626979827881 50.70452094078064,43.641120195388794 50.70452094078064,43.641120195388794 50.0436007976532,43.54771375656128 50.0436007976532,43.54771375656128 49.378764629364014,43.48580837249756 49.378764629364014,43.48580837249756 47.61998653411865,43.33060383796692 47.61998653411865,43.33060383796692 45.12081444263458,43.1278795003891 45.12081444263458,43.1278795003891 42.23480522632599,42.92319416999817 42.23480522632599,42.92319416999817 39.31552469730377,42.76210367679596 39.31552469730377,42.76210367679596 36.71654462814331,42.69060492515564 36.71654462814331,42.69060492515564 34.79141592979431,42.754146456718445 34.79141592979431,42.754146456718445 33.89369547367096,42.99839735031128 33.89369547367096,42.99839735031128 33.5250586271286,43.50389838218689 33.5250586271286,43.50389838218689 32.81683325767517,44.491469860076904 32.81683325767517,44.491469860076904 31.888848543167114,45.79184651374817 31.888848543167114,45.79184651374817 30.86090087890625,47.2355455160141 30.86090087890625,47.2355455160141 29.852819442749023,48.65330457687378 29.852819442749023,48.65330457687378 28.984424471855164,49.875643849372864 28.984424471855164,49.875643849372864 28.375524282455444,50.7332980632782 28.375524282455444,50.7332980632782 28.14592719078064,51.0567843914032 28.14592719078064,51.0567843914032 28.200578689575195,51.050567626953125 28.200578689575195,51.050567626953125 28.347396850585938,51.03367567062378 28.347396850585938,51.03367567062378 28.56067419052124,51.00948214530945 28.56067419052124,51.00948214530945 28.814697265625,50.98092555999756 28.814697265625,50.98092555999756 29.08376455307007,50.95106363296509 29.08376455307007,50.95106363296509 29.342162609100342,50.92294216156006 29.342162609100342,50.92294216156006 29.564177989959717,50.899505615234375 29.564177989959717,50.899505615234375 29.72412109375,50.88413953781128 29.72412109375,50.88413953781128 30.555236339569092,50.81002712249756 30.555236339569092,50.81002712249756 31.53185248374939,50.73591470718384 31.53185248374939,50.73591470718384 32.63893127441406,50.66789984703064 32.63893127441406,50.66789984703064 33.86143445968628,50.61231851577759 33.86143445968628,50.61231851577759 35.18431782722473,50.57547688484192 35.18431782722473,50.57547688484192 36.59254014492035,50.563597679138184 36.59254014492035,50.563597679138184 38.071075081825256,50.58299899101257 38.071075081825256,50.58299899101257 39.60484266281128,50.63999891281128 39.60484266281128,50.63999891281128 41.793033480644226,50.759124755859375 41.793033480644226,50.759124755859375 43.70703101158142,50.87999701499939 43.70703101158142,50.87999701499939 45.3414261341095,50.99705457687378 45.3414261341095,50.99705457687378 46.69080674648285,51.10517740249634 46.69080674648285,51.10517740249634 47.749751806259155,51.19869112968445 47.749751806259155,51.19869112968445 48.51284325122833,51.27214789390564 48.51284325122833,51.27214789390564 48.97466599941254,51.32032632827759 48.97466599941254,51.32032632827759 49.12981390953064,51.3375461101532 49.12981390953064,51.3375461101532 49.284547567367554,51.35661959648132 49.284547567367554,51.35661959648132 49.74449872970581,51.416563987731934 49.74449872970581,51.416563987731934 50.50325393676758,51.52130126953125 50.50325393676758,51.52130126953125 51.55443549156189,51.67497992515564 51.55443549156189,51.67497992515564 52.891623973846436,51.88162922859192 52.891623973846436,51.88162922859192 54.50845956802368,52.145278453826904 54.50845956802368,52.145278453826904 56.39851689338684,52.47018337249756 56.39851689338684,52.47018337249756" stroke="white" stroke-width="0.1" /><polygon points="67.74902939796448,68.01409125328064 67.74902939796448,68.01409125328064 68.6140239238739,68.02826523780823 68.6140239238739,68.02826523780823 69.43972706794739,67.8740382194519 69.43972706794739,67.8740382194519 70.20694613456726,67.56657361984253 70.20694613456726,67.56657361984253 70.89647650718689,67.1212375164032 70.89647650718689,67.1212375164032 71.48914933204651,66.55295491218567 71.48914933204651,66.55295491218567 71.96576595306396,65.87666273117065 71.96576595306396,65.87666273117065 72.30713963508606,65.10772705078125 72.30713963508606,65.10772705078125 72.49407172203064,64.26130533218384 72.49407172203064,64.26130533218384 72.50719666481018,63.3941650390625 72.50719666481018,63.3941650390625 72.35252261161804,62.567138671875 72.35252261161804,62.567138671875 72.04502820968628,61.79940700531006 72.04502820968628,61.79940700531006 71.59969210624695,61.10970973968506 71.59969210624695,61.10970973968506 71.0314929485321,60.51744818687439 71.0314929485321,60.51744818687439 70.35542130470276,60.04137396812439 70.35542130470276,60.04137396812439 69.58643198013306,59.70066785812378 69.58643198013306,59.70066785812378 68.73953938484192,59.51451063156128 68.73953938484192,59.51451063156128 67.87289381027222,59.50077772140503 67.87289381027222,59.50077772140503 67.0461118221283,59.65511202812195 67.0461118221283,59.65511202812195 66.27830862998962,59.96224880218506 66.27830862998962,59.96224880218506 65.58859944343567,60.4073703289032 65.58859944343567,60.4073703289032 64.99608159065247,60.97543239593506 64.99608159065247,60.97543239593506 64.51985836029053,61.65139675140381 64.51985836029053,61.65139675140381 64.1790509223938,62.42043972015381 64.1790509223938,62.42043972015381 63.99275064468384,63.26730251312256 63.99275064468384,63.26730251312256 63.979196548461914,64.13334608078003 63.979196548461914,64.13334608078003 64.13383483886719,64.95950222015381 64.13383483886719,64.95950222015381 64.441579580307,65.72679877281189 64.441579580307,65.72679877281189 64.8873507976532,66.4162814617157 64.8873507976532,66.4162814617157 65.45605659484863,67.00875759124756 65.45605659484863,67.00875759124756 66.13262891769409,67.48526692390442 66.13262891769409,67.48526692390442 66.90198183059692,67.82673597335815 66.90198183059692,67.82673597335815" stroke="white" stroke-width="0.1" /><polygon points="79.41023111343384,69.70389485359192 79.41023111343384,69.70389485359192 79.8969030380249,69.75337862968445 79.8969030380249,69.75337862968445 80.35104274749756,69.89506483078003 80.35104274749756,69.89506483078003 80.76267838478088,70.11915445327759 80.76267838478088,70.11915445327759 81.12183213233948,70.41582465171814 81.12183213233948,70.41582465171814 81.41853213310242,70.77506184577942 81.41853213310242,70.77506184577942 81.64280652999878,71.18704915046692 81.64280652999878,71.18704915046692 81.78468942642212,71.64186835289001 81.78468942642212,71.64186835289001 81.83419704437256,72.12960720062256 81.83419704437256,72.12960720062256 81.83419704437256,77.4850070476532 81.83419704437256,77.4850070476532 81.78468942642212,77.97273993492126 81.78468942642212,77.97273993492126 81.64280652999878,78.42756509780884 81.64280652999878,78.42756509780884 81.41853213310242,78.83955240249634 81.41853213310242,78.83955240249634 81.12183213233948,79.19878363609314 81.12183213233948,79.19878363609314 80.76267838478088,79.49545979499817 80.76267838478088,79.49545979499817 80.35104274749756,79.71954941749573 80.35104274749756,79.71954941749573 79.8969030380249,79.86123561859131 79.8969030380249,79.86123561859131 79.41023111343384,79.91071939468384 79.41023111343384,79.91071939468384 61.95243000984192,79.91071939468384 61.95243000984192,79.91071939468384 61.589980125427246,79.88346815109253 61.589980125427246,79.88346815109253 61.24417781829834,79.8043429851532 61.24417781829834,79.8043429851532 60.918933153152466,79.67725992202759 60.918933153152466,79.67725992202759 60.61815619468689,79.50636148452759 60.61815619468689,79.50636148452759 60.34574508666992,79.29556965827942 60.34574508666992,79.29556965827942 60.10559797286987,79.04924750328064 60.10559797286987,79.04924750328064 59.90161895751953,78.77110242843628 59.90161895751953,78.77110242843628 59.73772406578064,78.46505641937256 59.73772406578064,78.46505641937256 31.49239718914032,75.15695095062256 31.49239718914032,75.15695095062256 31.24825656414032,76.95487141609192 31.24825656414032,76.95487141609192 31.09431266784668,77.58244276046753 31.09431266784668,77.58244276046753 30.830848217010498,78.14909219741821 30.830848217010498,78.14909219741821 30.470973253250122,78.64511013031006 30.470973253250122,78.64511013031006 30.02777099609375,79.06036972999573 30.02777099609375,79.06036972999573 29.514354467391968,79.38505411148071 29.514354467391968,79.38505411148071 28.943824768066406,79.6090304851532 28.943824768066406,79.6090304851532 28.32927703857422,79.72238063812256 28.32927703857422,79.72238063812256 27.68380343914032,79.71540689468384 27.68380343914032,79.71540689468384 19.80503648519516,78.79289984703064 19.80503648519516,78.79289984703064 19.177846610546112,78.65448594093323 19.177846610546112,78.65448594093323 18.608884513378143,78.40183973312378 18.608884513378143,78.40183973312378 18.109117448329926,78.04914712905884 18.109117448329926,78.04914712905884 17.68951565027237,77.61056423187256 17.68951565027237,77.61056423187256 17.361055314540863,77.1003782749176 17.361055314540863,77.1003782749176 17.13472157716751,76.5328586101532 17.13472157716751,76.5328586101532 17.021480202674866,75.92207193374634 17.021480202674866,75.92207193374634 17.03229695558548,75.28250813484192 17.03229695558548,75.28250813484192 17.03382283449173,75.28218030929565 17.03382283449173,75.28218030929565 17.03466773033142,75.27956366539001 17.03466773033142,75.27956366539001 17.035144567489624,75.27411580085754 17.035144567489624,75.27411580085754 17.03556627035141,75.26528835296631 17.03556627035141,75.26528835296631 17.036233842372894,75.25264620780945 17.036233842372894,75.25264620780945 17.037446796894073,75.23564100265503 17.037446796894073,75.23564100265503 17.03951805830002,75.21384358406067 17.03951805830002,75.21384358406067 17.0427605509758,75.18659830093384 17.0427605509758,75.18659830093384 19.29582953453064,58.62688422203064 19.29582953453064,58.62688422203064 19.33494359254837,58.41228365898132 19.33494359254837,58.41228365898132 19.387763738632202,58.204108476638794 19.387763738632202,58.204108476638794 19.453580677509308,58.0025851726532 19.453580677509308,58.0025851726532 19.53168660402298,57.80792236328125 19.53168660402298,57.80792236328125 19.62140053510666,57.62035250663757 19.62140053510666,57.62035250663757 19.722039997577667,57.440185546875 19.722039997577667,57.440185546875 19.832898676395416,57.26754665374756 19.832898676395416,57.26754665374756 19.95326578617096,57.10275173187256 19.95326578617096,57.10275173187256 20.25844156742096,53.81382703781128 20.25844156742096,53.81382703781128 23.04164469242096,52.34026312828064 23.04164469242096,52.34026312828064 23.17766547203064,52.15193033218384 23.17766547203064,52.15193033218384 23.1218621134758,52.1432101726532 23.1218621134758,52.1432101726532 22.461238503456116,51.99737548828125 22.461238503456116,51.99737548828125 21.86061441898346,51.730674505233765 21.86061441898346,51.730674505233765 21.331924200057983,51.35814547538757 21.331924200057983,51.35814547538757 20.88710367679596,50.89482069015503 20.88710367679596,50.89482069015503 20.53808569908142,50.35575032234192 20.53808569908142,50.35575032234192 20.29680609703064,49.75586235523224 20.29680609703064,49.75586235523224 20.17519921064377,49.110305309295654 20.17519921064377,49.110305309295654 20.18519937992096,48.43401312828064 20.18519937992096,48.43401312828064 20.19740641117096,48.35205376148224 20.19740641117096,48.35205376148224 20.343345403671265,47.69156575202942 20.343345403671265,47.69156575202942 20.6102654337883,47.091132402420044 20.6102654337883,47.091132402420044 20.983125269412994,46.56263291835785 20.983125269412994,46.56263291835785 21.44688367843628,46.11816704273224 21.44688367843628,46.11816704273224 21.986499428749084,45.769503712654114 21.986499428749084,45.769503712654114 22.58693277835846,45.528414845466614 22.58693277835846,45.528414845466614 23.233142495155334,45.40710747241974 23.233142495155334,45.40710747241974 23.91008734703064,45.41713297367096 23.91008734703064,45.41713297367096 25.9521484375,45.6577867269516 25.9521484375,45.6577867269516 26.149451732635498,45.68743109703064 26.149451732635498,45.68743109703064 26.34231150150299,45.728957653045654 26.34231150150299,45.728957653045654 26.53055191040039,45.78181803226471 26.53055191040039,45.78181803226471 26.71400010585785,45.84546983242035 26.71400010585785,45.84546983242035 26.892459392547607,45.91936469078064 26.892459392547607,45.91936469078064 27.065742015838623,46.00285291671753 27.065742015838623,46.00285291671753 27.23366916179657,46.09549641609192 27.23366916179657,46.09549641609192 27.3960679769516,46.19663953781128 27.3960679769516,46.19663953781128 27.97069549560547,45.38487195968628 27.97069549560547,45.38487195968628 28.556308150291443,44.559264183044434 28.556308150291443,44.559264183044434 29.13264036178589,43.74825954437256 29.13264036178589,43.74825954437256 29.67943549156189,42.98096001148224 29.67943549156189,42.98096001148224 30.176448822021484,42.28581190109253 30.176448822021484,42.28581190109253 30.60343861579895,41.691699624061584 30.60343861579895,41.691699624061584 30.940139293670654,41.227397322654724 30.940139293670654,41.227397322654724 31.16629719734192,40.9214586019516 31.16629719734192,40.9214586019516 31.656551361083984,40.36996066570282 31.656551361083984,40.36996066570282 32.247599959373474,39.93508517742157 32.247599959373474,39.93508517742157 33.02060663700104,39.612144231796265 33.02060663700104,39.612144231796265 34.05674695968628,39.39623236656189 34.05674695968628,39.39623236656189 35.437190532684326,39.2826646566391 35.437190532684326,39.2826646566391 37.243109941482544,39.266425371170044 37.243109941482544,39.266425371170044 39.55567479133606,39.34282660484314 39.55567479133606,39.34282660484314 42.45605766773224,39.50718641281128 42.45605766773224,39.50718641281128 43.92455220222473,39.608004689216614 43.92455220222473,39.608004689216614 45.33781409263611,39.713290333747864 45.33781409263611,39.713290333747864 46.65499031543732,39.81759250164032 46.65499031543732,39.81759250164032 47.83521592617035,39.91590440273285 47.83521592617035,39.91590440273285 48.83764982223511,40.00266194343567 48.83764982223511,40.00266194343567 49.621447920799255,40.07241427898407 49.621447920799255,40.07241427898407 50.14575123786926,40.12015461921692 50.14575123786926,40.12015461921692 50.36970376968384,40.1402086019516 50.36970376968384,40.1402086019516 50.439453125,40.14718234539032 50.439453125,40.14718234539032 50.50920844078064,40.15590250492096 50.50920844078064,40.15590250492096 50.51109790802002,40.155357122421265 50.51109790802002,40.155357122421265 50.8849561214447,40.207019448280334 50.8849561214447,40.207019448280334 51.58473253250122,40.306636691093445 51.58473253250122,40.306636691093445 52.5643527507782,40.44974446296692 52.5643527507782,40.44974446296692 53.77776026725769,40.63219428062439 53.77776026725769,40.63219428062439 55.178892612457275,40.849414467811584 55.178892612457275,40.849414467811584 56.721681356430054,41.09736979007721 56.721681356430054,41.09736979007721 58.36007595062256,41.37137532234192 58.36007595062256,41.37137532234192 61.21622323989868,41.879600286483765 61.21622323989868,41.879600286483765 63.48133087158203,42.33834445476532 63.48133087158203,42.33834445476532 65.23305773735046,42.770713567733765 65.23305773735046,42.770713567733765 66.54903292655945,43.20024847984314 66.54903292655945,43.20024847984314 67.50689148902893,43.65016520023346 67.50689148902893,43.65016520023346 68.1842565536499,44.14389729499817 68.1842565536499,44.14389729499817 68.65877509117126,44.70476508140564 68.65877509117126,44.70476508140564 69.00809407234192,45.35609781742096 69.00809407234192,45.35609781742096 69.15887594223022,45.704326033592224 69.15887594223022,45.704326033592224 69.38024759292603,46.23282551765442 69.38024759292603,46.23282551765442 69.65924501419067,46.9090074300766 69.65924501419067,46.9090074300766 69.98291611671448,47.69984781742096 69.98291611671448,47.69984781742096 70.33830285072327,48.57286810874939 70.33830285072327,48.57286810874939 70.71244716644287,49.49515461921692 70.71244716644287,49.49515461921692 71.0923969745636,50.43400526046753 71.0923969745636,50.43400526046753 71.46519422531128,51.35672688484192 71.46519422531128,51.35672688484192 74.2745578289032,58.34089517593384 74.2745578289032,58.34089517593384 76.64795517921448,60.41259765625 76.64795517921448,60.41259765625 76.18582844734192,63.68234157562256 76.18582844734192,63.68234157562256 76.26492977142334,63.870787620544434 76.26492977142334,63.870787620544434 76.33305191993713,64.06446695327759 76.33305191993713,64.06446695327759 76.38952136039734,64.26304578781128 76.38952136039734,64.26304578781128 76.43367648124695,64.46598768234253 76.43367648124695,64.46598768234253 76.46482586860657,64.67317938804626 76.46482586860657,64.67317938804626 76.48231387138367,64.88418579101562 76.48231387138367,64.88418579101562 76.48545503616333,65.09879231452942 76.48545503616333,65.09879231452942 76.47356390953064,65.31633734703064 76.47356390953064,65.31633734703064 76.07596516609192,69.70389485359192 76.07596516609192,69.70389485359192" stroke="white" stroke-width="0.1" /><polygon points="71.29952907562256,19.48765367269516 71.29952907562256,19.48765367269516 71.89558148384094,19.817353785037994 71.89558148384094,19.817353785037994 72.41336703300476,20.235444605350494 72.41336703300476,20.235444605350494 72.84638285636902,20.728793740272522 72.84638285636902,20.728793740272522 73.1881320476532,21.28448635339737 73.1881320476532,21.28448635339737 73.43211770057678,21.889442205429077 73.43211770057678,21.889442205429077 73.57183694839478,22.53069281578064 73.57183694839478,22.53069281578064 73.60079288482666,23.195213079452515 73.60079288482666,23.195213079452515 73.51248860359192,23.86997938156128 73.51248860359192,23.86997938156128 70.16602158546448,38.95263969898224 70.16602158546448,38.95263969898224 70.09897828102112,38.91994059085846 70.09897828102112,38.91994059085846 69.90463137626648,38.831111788749695 69.90463137626648,38.831111788749695 69.59318518638611,38.700541853904724 69.59318518638611,38.700541853904724 69.17484998703003,38.54261338710785 69.17484998703003,38.54261338710785 68.65980625152588,38.37149739265442 68.65980625152588,38.37149739265442 68.05826425552368,38.201579451560974 68.05826425552368,38.201579451560974 67.38040447235107,38.04692029953003 67.38040447235107,38.04692029953003 66.63644313812256,37.92201578617096 66.63644313812256,37.92201578617096 64.2854392528534,37.58545219898224 64.2854392528534,37.58545219898224 62.16490864753723,37.25564181804657 62.16490864753723,37.25564181804657 60.20287871360779,36.93564534187317 60.20287871360779,36.93564534187317 58.32737684249878,36.62850558757782 58.32737684249878,36.62850558757782 56.46642446517944,36.33750081062317 56.46642446517944,36.33750081062317 54.548048973083496,36.0661119222641 54.548048973083496,36.0661119222641 52.500271797180176,35.81717610359192 52.500271797180176,35.81717610359192 50.2511203289032,35.59395968914032 50.2511203289032,35.59395968914032 47.80964255332947,35.408785939216614 47.80964255332947,35.408785939216614 45.4929918050766,35.28725802898407 45.4929918050766,35.28725802898407 43.283259868621826,35.217395424842834 43.283259868621826,35.217395424842834 41.1625474691391,35.1872056722641 41.1625474691391,35.1872056722641 39.11295235157013,35.18458902835846 39.11295235157013,35.18458902835846 37.11656928062439,35.19766926765442 37.11656928062439,35.19766926765442 35.15549600124359,35.21423637866974 35.15549600124359,35.21423637866974 33.21184515953064,35.22251844406128 33.21184515953064,35.22251844406128 32.39414393901825,35.27003824710846 32.39414393901825,35.27003824710846 31.64125382900238,35.39559543132782 31.64125382900238,35.39559543132782 30.96678853034973,35.57281792163849 30.96678853034973,35.57281792163849 30.38439154624939,35.7761949300766 30.38439154624939,35.7761949300766 29.907691478729248,35.97957193851471 29.907691478729248,35.97957193851471 29.550307989120483,36.15679144859314 29.550307989120483,36.15679144859314 29.325881600379944,36.28235161304474 29.325881600379944,36.28235161304474 29.248046875,36.32987141609192 29.248046875,36.32987141609192 26.48751437664032,23.86997938156128 26.48751437664032,23.86997938156128 26.39821171760559,23.195213079452515 26.39821171760559,23.195213079452515 26.42669677734375,22.53069281578064 26.42669677734375,22.53069281578064 26.566356420516968,21.889497339725494 26.566356420516968,21.889497339725494 26.81056559085846,21.28448635339737 26.81056559085846,21.28448635339737 27.15270221233368,20.728793740272522 27.15270221233368,20.728793740272522 27.58614718914032,20.235389471054077 27.58614718914032,20.235389471054077 28.104278445243835,19.817353785037994 28.104278445243835,19.817353785037994 28.70047688484192,19.48765367269516 28.70047688484192,19.48765367269516 28.891515731811523,19.407545030117035 28.891515731811523,19.407545030117035 29.085052013397217,19.338662922382355 29.085052013397217,19.338662922382355 29.280629754066467,19.280734658241272 29.280629754066467,19.280734658241272 29.47780191898346,19.23370510339737 29.47780191898346,19.23370510339737 29.67611849308014,19.197355210781097 29.67611849308014,19.197355210781097 29.875129461288452,19.17157918214798 29.875129461288452,19.17157918214798 30.074387788772583,19.156156480312347 30.074387788772583,19.156156480312347 30.2734375,19.15108859539032 30.2734375,19.15108859539032 30.730003118515015,19.178010523319244 30.730003118515015,19.178010523319244 31.178420782089233,19.25790011882782 31.178420782089233,19.25790011882782 31.61395788192749,19.389507174491882 31.61395788192749,19.389507174491882 32.03190565109253,19.57157701253891 32.03190565109253,19.57157701253891 32.42753744125366,19.802747666835785 32.42753744125366,19.802747666835785 32.7961266040802,20.081765949726105 32.7961266040802,20.081765949726105 33.13295543193817,20.407268404960632 33.13295543193817,20.407268404960632 33.43331515789032,20.7781121134758 33.43331515789032,20.7781121134758 42.9356187582016,34.09947156906128 42.9356187582016,34.09947156906128 46.19838297367096,3.104073740541935 46.19838297367096,3.104073740541935 46.39112055301666,2.4514880031347275 46.39112055301666,2.4514880031347275 46.68712913990021,1.8561773002147675 46.68712913990021,1.8561773002147675 47.075048089027405,1.32718775421381 47.075048089027405,1.32718775421381 47.54355549812317,0.8738926611840725 47.54355549812317,0.8738926611840725 48.08129668235779,0.5053384229540825 48.08129668235779,0.5053384229540825 48.676928877830505,0.23068019654601812 48.676928877830505,0.23068019654601812 49.3191123008728,0.05918230745010078 49.3191123008728,0.05918230745010078 49.99651312828064,0.0 49.99651312828064,0.0 50.67507028579712,0.05918230745010078 50.67507028579712,0.05918230745010078 51.31816864013672,0.23068019654601812 51.31816864013672,0.23068019654601812 51.91456079483032,0.5053384229540825 51.91456079483032,0.5053384229540825 52.45296359062195,0.8738926611840725 52.45296359062195,0.8738926611840725 52.92212963104248,1.327242236584425 52.92212963104248,1.327242236584425 53.310805559158325,1.856122724711895 53.310805559158325,1.856122724711895 53.607726097106934,2.4514880031347275 53.607726097106934,2.4514880031347275 53.80162000656128,3.104073740541935 53.80162000656128,3.104073740541935 57.0626437664032,34.09947156906128 57.0626437664032,34.09947156906128 66.56320095062256,20.7781121134758 66.56320095062256,20.7781121134758 66.86421036720276,20.407268404960632 66.86421036720276,20.407268404960632 67.2016441822052,20.081765949726105 67.2016441822052,20.081765949726105 67.57075786590576,19.802747666835785 67.57075786590576,19.802747666835785 67.96678900718689,19.57157701253891 67.96678900718689,19.57157701253891 68.38497519493103,19.389507174491882 68.38497519493103,19.389507174491882 68.82054805755615,19.25790011882782 68.82054805755615,19.25790011882782 69.26875710487366,19.178010523319244 69.26875710487366,19.178010523319244 69.72482204437256,19.15108859539032 69.72482204437256,19.15108859539032 69.92437839508057,19.156211614608765 69.92437839508057,19.156211614608765 70.12389302253723,19.17157918214798 70.12389302253723,19.17157918214798 70.32300233840942,19.197355210781097 70.32300233840942,19.197355210781097 70.52133083343506,19.23370510339737 70.52133083343506,19.23370510339737 70.71852087974548,19.28078830242157 70.71852087974548,19.28078830242157 70.91419100761414,19.338662922382355 70.91419100761414,19.338662922382355 71.10798954963684,19.407545030117035 71.10798954963684,19.407545030117035" stroke="white" stroke-width="0.1" /><polygon points="7.98863023519516,25.03139078617096 7.98863023519516,25.03139078617096 8.24180394411087,25.0396728515625 8.24180394411087,25.0396728515625 8.494595438241959,25.0645250082016 8.494595438241959,25.0645250082016 8.74612033367157,25.106269121170044 8.74612033367157,25.106269121170044 8.99549275636673,25.164794921875 8.99549275636673,25.164794921875 9.241840243339539,25.240325927734375 9.241840243339539,25.240325927734375 9.484291821718216,25.3330796957016 9.484291821718216,25.3330796957016 9.721947461366653,25.4429429769516 9.721947461366653,25.4429429769516 9.95396226644516,25.57024359703064 9.95396226644516,25.57024359703064 27.70298719406128,38.19231390953064 27.70298719406128,38.19231390953064 27.54310965538025,38.413241505622864 27.54310965538025,38.413241505622864 27.371543645858765,38.651278614997864 27.371543645858765,38.651278614997864 27.189350128173828,38.90489935874939 27.189350128173828,38.90489935874939 26.99759602546692,39.17258381843567 26.99759602546692,39.17258381843567 26.79733633995056,39.45268988609314 26.79733633995056,39.45268988609314 26.589640974998474,39.74391520023346 26.589640974998474,39.74391520023346 26.37556791305542,40.044406056404114 26.37556791305542,40.044406056404114 26.15618109703064,40.35295844078064 26.15618109703064,40.35295844078064 24.99825656414032,40.21693766117096 24.99825656414032,40.21693766117096 24.892494082450867,40.20516574382782 24.892494082450867,40.20516574382782 24.784524738788605,40.194812417030334 24.784524738788605,40.194812417030334 24.6744304895401,40.185874700546265 24.6744304895401,40.185874700546265 24.5622918009758,40.17835557460785 24.5622918009758,40.17835557460785 24.44819211959839,40.17246961593628 24.44819211959839,40.17246961593628 24.332210421562195,40.16810953617096 24.332210421562195,40.16810953617096 24.21441823244095,40.16549289226532 24.21441823244095,40.16549289226532 24.09493625164032,40.1646226644516 24.09493625164032,40.1646226644516 22.835704684257507,40.26816487312317 22.835704684257507,40.26816487312317 21.63628339767456,40.5674546957016 21.63628339767456,40.5674546957016 20.514966547489166,41.047778725624084 20.514966547489166,41.047778725624084 19.49005275964737,41.69442355632782 19.49005275964737,41.69442355632782 18.5798242688179,42.49267876148224 18.5798242688179,42.49267876148224 17.802566289901733,43.42760443687439 17.802566289901733,43.42760443687439 17.17657446861267,44.484713673591614 17.17657446861267,44.484713673591614 16.72014594078064,45.64906656742096 16.72014594078064,45.64906656742096 4.87060584127903,31.22035562992096 4.87060584127903,31.22035562992096 4.51507605612278,30.6396484375 4.51507605612278,30.6396484375 4.270744696259499,30.0205796957016 4.270744696259499,30.0205796957016 4.1369713842868805,29.377421736717224 4.1369713842868805,29.377421736717224 4.11311574280262,28.72510850429535 4.11311574280262,28.72510850429535 4.198537766933441,28.078025579452515 4.198537766933441,28.078025579452515 4.392651468515396,27.450889348983765 4.392651468515396,27.450889348983765 4.694788902997971,26.85830295085907 4.694788902997971,26.85830295085907 5.10428324341774,26.31487250328064 5.10428324341774,26.31487250328064 5.4015979170799255,26.01841688156128 5.4015979170799255,26.01841688156128 5.723680928349495,25.75967013835907 5.723680928349495,25.75967013835907 6.067181006073952,25.53950846195221 6.067181006073952,25.53950846195221 6.42874613404274,25.35792887210846 6.42874613404274,25.35792887210846 6.805025041103363,25.21580457687378 6.805025041103363,25.21580457687378 7.192666828632355,25.11378824710846 7.192666828632355,25.11378824710846 7.588318735361099,25.05210041999817 7.588318735361099,25.05210041999817" stroke="white" stroke-width="0.1" /><polygon points="99.80992078781128,51.1474609375 99.80992078781128,51.1474609375 99.96250867843628,51.8105685710907 99.96250867843628,51.8105685710907 99.99741315841675,52.47476100921631 99.99741315841675,52.47476100921631 99.91987943649292,53.12674641609192 99.91987943649292,53.12674641609192 99.73515272140503,53.75279188156128 99.73515272140503,53.75279188156128 99.44849610328674,54.33916449546814 99.44849610328674,54.33916449546814 99.06516075134277,54.87257242202759 99.06516075134277,54.87257242202759 98.59039187431335,55.33905029296875 98.59039187431335,55.33905029296875 98.0294406414032,55.72509765625 98.0294406414032,55.72509765625 91.5230929851532,59.4063937664032 91.5230929851532,59.4063937664032 90.5369758605957,60.26785969734192 90.5369758605957,60.26785969734192 89.55105543136597,61.10251545906067 89.55105543136597,61.10251545906067 88.56555223464966,61.91057562828064 88.56555223464966,61.91057562828064 87.58065700531006,62.6922607421875 87.58065700531006,62.6922607421875 86.59658432006836,63.44801187515259 86.59658432006836,63.44801187515259 85.61352491378784,64.17803168296814 85.61352491378784,64.17803168296814 84.63169932365417,64.88277316093445 84.63169932365417,64.88277316093445 83.65129828453064,65.56222438812256 83.65129828453064,65.56222438812256 83.3957314491272,65.4051661491394 83.3957314491272,65.4051661491394 83.1327497959137,65.25857448577881 83.1327497959137,65.25857448577881 82.86260962486267,65.12277126312256 82.86260962486267,65.12277126312256 82.58558511734009,64.99873995780945 82.58558511734009,64.99873995780945 82.30193257331848,64.88669514656067 82.30193257331848,64.88669514656067 82.0119321346283,64.78707790374756 82.0119321346283,64.78707790374756 81.71584606170654,64.70043063163757 81.71584606170654,64.70043063163757 81.41392469406128,64.62751626968384 81.41392469406128,64.62751626968384 81.41745328903198,64.56539034843445 81.41745328903198,64.56539034843445 81.42024874687195,64.50479030609131 81.42024874687195,64.50479030609131 81.42238855361938,64.44560885429382 81.42238855361938,64.44560885429382 81.42395615577698,64.38773274421692 81.42395615577698,64.38773274421692 81.42502903938293,64.33127522468567 81.42502903938293,64.33127522468567 81.42569661140442,64.27590847015381 81.42569661140442,64.27590847015381 81.42603635787964,64.22184705734253 81.42603635787964,64.22184705734253 81.42613172531128,64.16887640953064 81.42613172531128,64.16887640953064 81.42281174659729,63.94370198249817 81.42281174659729,63.94370198249817 81.41294717788696,63.72081637382507 81.41294717788696,63.72081637382507 81.39670491218567,63.50032687187195 81.39670491218567,63.50032687187195 81.37425184249878,63.28256130218506 81.37425184249878,63.28256130218506 81.34575486183167,63.067519664764404 81.34575486183167,63.067519664764404 81.31136298179626,62.855422496795654 81.31136298179626,62.855422496795654 81.2712550163269,62.646484375 81.2712550163269,62.646484375 81.22559189796448,62.44071125984192 81.22559189796448,62.44071125984192 81.87779188156128,57.81773328781128 81.87779188156128,57.81773328781128 78.5103976726532,54.8775851726532 78.5103976726532,54.8775851726532 76.08991861343384,48.86125922203064 76.08991861343384,48.86125922203064 75.71356296539307,47.92785942554474 75.71356296539307,47.92785942554474 75.33324360847473,46.98704481124878 75.33324360847473,46.98704481124878 74.95971322059631,46.06628715991974 74.95971322059631,46.06628715991974 74.60371255874634,45.19261121749878 74.60371255874634,45.19261121749878 74.27598834037781,44.393378496170044 74.27598834037781,44.393378496170044 73.98731112480164,43.69572401046753 73.98731112480164,43.69572401046753 73.74841570854187,43.126899003982544 73.74841570854187,43.126899003982544 73.57003688812256,42.71414875984192 73.57003688812256,42.71414875984192 73.43534827232361,42.417582869529724 73.43534827232361,42.417582869529724 73.27431440353394,42.100635170936584 73.27431440353394,42.100635170936584 73.08658957481384,41.768866777420044 73.08658957481384,41.768866777420044 72.87184000015259,41.42783284187317 72.87184000015259,41.42783284187317 72.62969613075256,41.083091497421265 72.62969613075256,41.083091497421265 72.35982418060303,40.74031412601471 72.35982418060303,40.74031412601471 72.06187844276428,40.404948592185974 72.06187844276428,40.404948592185974 71.7354953289032,40.08266031742096 71.7354953289032,40.08266031742096 71.6162919998169,39.976611733436584 71.6162919998169,39.976611733436584 71.49664163589478,39.87405002117157 71.49664163589478,39.87405002117157 71.37641310691833,39.774978160858154 71.37641310691833,39.774978160858154 71.25549912452698,39.67895805835724 71.25549912452698,39.67895805835724 71.13376259803772,39.58587944507599 71.13376259803772,39.58587944507599 71.01108431816101,39.495524764060974 71.01108431816101,39.495524764060974 70.8873450756073,39.4077867269516 70.8873450756073,39.4077867269516 70.76241970062256,39.3223375082016 70.76241970062256,39.3223375082016 93.24777126312256,24.47161078453064 93.24777126312256,24.47161078453064 93.48078966140747,24.34430867433548 93.48078966140747,24.34430867433548 93.71899366378784,24.234119057655334 93.71899366378784,24.234119057655334 93.96169781684875,24.1411492228508 93.96169781684875,24.1411492228508 94.20820474624634,24.06529188156128 94.20820474624634,24.06529188156128 94.45781707763672,24.00643527507782 94.45781707763672,24.00643527507782 94.70983743667603,23.964473605155945 94.70983743667603,23.964473605155945 94.96357440948486,23.93929660320282 94.96357440948486,23.93929660320282 95.21833658218384,23.93101453781128 95.21833658218384,23.93101453781128 95.61864733695984,23.95172268152237 95.61864733695984,23.95172268152237 96.0142970085144,24.01362955570221 96.0142970085144,24.01362955570221 96.40194177627563,24.11608099937439 96.40194177627563,24.11608099937439 96.7782199382782,24.25842434167862 96.7782199382782,24.25842434167862 97.1397876739502,24.4402214884758 97.1397876739502,24.4402214884758 97.4832832813263,24.66081976890564 97.4832832813263,24.66081976890564 97.80536890029907,24.91978406906128 97.80536890029907,24.91978406906128 98.1026828289032,25.21623969078064 98.1026828289032,25.21623969078064 98.51062297821045,25.75967013835907 98.51062297821045,25.75967013835907 98.81186485290527,26.3523668050766 98.81186485290527,26.3523668050766 99.00565147399902,26.97950303554535 99.00565147399902,26.97950303554535 99.09123182296753,27.62647569179535 99.09123182296753,27.62647569179535 99.06785488128662,28.278788924217224 99.06785488128662,28.278788924217224 98.9347517490387,28.9219468832016 98.9347517490387,28.9219468832016 98.69116544723511,29.541015625 98.69116544723511,29.541015625 98.33636283874512,30.12172281742096 98.33636283874512,30.12172281742096 79.4259250164032,50.34528970718384 79.4259250164032,50.34528970718384 95.68045735359192,48.49156141281128 95.68045735359192,48.49156141281128 95.73610424995422,48.486003279685974 95.73610424995422,48.486003279685974 95.79179286956787,48.48109781742096 95.79179286956787,48.48109781742096 95.84739804267883,48.47695827484131 95.84739804267883,48.47695827484131 95.90280055999756,48.47346842288971 95.90280055999756,48.47346842288971 95.95787525177002,48.470744490623474 95.95787525177002,48.470744490623474 96.01250290870667,48.468783497810364 96.01250290870667,48.468783497810364 96.06655240058899,48.46758246421814 96.06655240058899,48.46758246421814 96.11991047859192,48.46714735031128 96.11991047859192,48.46714735031128 96.73508405685425,48.51619303226471 96.73508405685425,48.51619303226471 97.32524752616882,48.659300804138184 97.32524752616882,48.659300804138184 97.8809118270874,48.89025092124939 97.8809118270874,48.89025092124939 98.3925998210907,49.20305609703064 98.3925998210907,49.20305609703064 98.85082840919495,49.59128499031067 98.85082840919495,49.59128499031067 99.2461085319519,50.04894137382507 99.2461085319519,50.04894137382507 99.56896901130676,50.56959390640259 99.56896901130676,50.56959390640259" stroke="white" stroke-width="0.1" /><polygon points="4.31605763733387,48.49156141281128 4.31605763733387,48.49156141281128 16.64167195558548,49.89537000656128 16.64167195558548,49.89537000656128 16.65089577436447,49.93220865726471 16.65089577436447,49.93220865726471 16.659164428710938,49.96948540210724 16.659164428710938,49.96948540210724 16.66686236858368,50.00675916671753 16.66686236858368,50.00675916671753 16.67436957359314,50.04425048828125 16.67436957359314,50.04425048828125 16.682039201259613,50.081634521484375 16.682039201259613,50.081634521484375 16.690227389335632,50.11880397796631 16.690227389335632,50.11880397796631 16.69931560754776,50.155532360076904 16.69931560754776,50.155532360076904 16.70968234539032,50.19182562828064 16.70968234539032,50.19182562828064 16.27546101808548,54.83921766281128 16.27546101808548,54.83921766281128 16.150665283203125,55.10275959968567 16.150665283203125,55.10275959968567 16.03439897298813,55.37393093109131 16.03439897298813,55.37393093109131 15.927329659461975,55.65229654312134 15.927329659461975,55.65229654312134 15.83012193441391,55.93763589859009 15.83012193441391,55.93763589859009 15.74346125125885,56.229400634765625 15.74346125125885,56.229400634765625 15.668025612831116,56.527167558670044 15.668025612831116,56.527167558670044 15.604482591152191,56.830596923828125 15.604482591152191,56.830596923828125 15.5535027384758,57.13937282562256 15.5535027384758,57.13937282562256 14.60832953453064,64.09214735031128 14.60832953453064,64.09214735031128 13.218335807323456,63.13030123710632 13.218335807323456,63.13030123710632 11.994989216327667,62.242454290390015 11.994989216327667,62.242454290390015 10.94404011964798,61.44540309906006 10.94404011964798,61.44540309906006 10.07123738527298,60.75592041015625 10.07123738527298,60.75592041015625 9.382370859384537,60.190582275390625 9.382370859384537,60.190582275390625 8.883176743984222,59.76606607437134 8.883176743984222,59.76606607437134 8.579431474208832,59.49903726577759 8.579431474208832,59.49903726577759 8.47691148519516,59.4063937664032 8.47691148519516,59.4063937664032 1.968819834291935,55.72509765625 1.968819834291935,55.72509765625 1.40795037150383,55.33905029296875 1.40795037150383,55.33905029296875 0.9333747439086437,54.87257242202759 0.9333747439086437,54.87257242202759 0.5503109656274319,54.33927774429321 0.5503109656274319,54.33927774429321 0.26397707406431437,53.75279188156128 0.26397707406431437,53.75279188156128 0.07956369081512094,53.12674641609192 0.07956369081512094,53.12674641609192 0.002316066274943296,52.47476100921631 0.002316066274943296,52.47476100921631 0.03742490662261844,51.8105685710907 0.03742490662261844,51.8105685710907 0.19008092349395156,51.1474609375 0.19008092349395156,51.1474609375 0.430951826274395,50.56959390640259 0.430951826274395,50.56959390640259 0.7535389624536037,50.048828125 0.7535389624536037,50.048828125 1.1483465321362019,49.59128499031067 1.1483465321362019,49.59128499031067 1.605878584086895,49.20305609703064 1.605878584086895,49.20305609703064 2.1166257560253143,48.890361189842224 2.1166257560253143,48.890361189842224 2.6710784062743187,48.65940809249878 2.6710784062743187,48.65940809249878 3.2597407698631287,48.51619303226471 3.2597407698631287,48.51619303226471 3.87311689555645,48.46714735031128 3.87311689555645,48.46714735031128 3.928770497441292,48.46758246421814 3.928770497441292,48.46758246421814 3.9845060557127,48.468783497810364 3.9845060557127,48.468783497810364 4.040241241455078,48.47063422203064 4.040241241455078,48.47063422203064 4.09589521586895,48.47346842288971 4.09589521586895,48.47346842288971 4.151385277509689,48.47695827484131 4.151385277509689,48.47695827484131 4.20663021504879,48.481208086013794 4.20663021504879,48.481208086013794 4.2615484446287155,48.486003279685974 4.2615484446287155,48.486003279685974" stroke="white" stroke-width="0.1" /></svg>