<?xml version="1.0" encoding="utf-8" ?>
<svg baseProfile="full" height="91.42194986343384" version="1.1" width="99.95413422584534" xmlns="http://www.w3.org/2000/svg" xmlns:ev="http://www.w3.org/2001/xml-events" xmlns:xlink="http://www.w3.org/1999/xlink"><defs><clipPath /></defs><polygon points="57.19866156578064,0.0 57.19866156578064,0.0 57.23890662193298,0.0011444092706369702 57.23890662193298,0.0011444092706369702 57.27866291999817,0.004196167355985381 57.27866291999817,0.004196167355985381 57.31809139251709,0.008501325646648183 57.31809139251709,0.008501325646648183 57.35735297203064,0.01373291015625 57.35735297203064,0.01373291015625 57.39662051200867,0.019182478717993945 57.39662051200867,0.019182478717993945 57.43604898452759,0.024305071565322578 57.43604898452759,0.024305071565322578 57.475799322128296,0.028555735480040312 57.475799322128296,0.028555735480040312 57.51604437828064,0.03138951142318547 57.51604437828064,0.03138951142318547 57.267314195632935,0.35830908454954624 57.267314195632935,0.35830908454954624 57.023704051971436,0.6893703248351812 57.023704051971436,0.6893703248351812 56.78577423095703,1.025118213146925 56.78577423095703,1.025118213146925 56.55409097671509,1.366097666323185 56.55409097671509,1.366097666323185 56.329184770584106,1.71290822327137 56.329184770584106,1.71290822327137 56.1116099357605,2.0660400390625 56.1116099357605,2.0660400390625 55.90192675590515,2.426147647202015 55.90192675590515,2.426147647202015 55.70068359375,2.79366634786129 55.70068359375,2.79366634786129 55.568522214889526,3.048815205693245 55.568522214889526,3.048815205693245 55.44013977050781,3.3053264021873474 55.44013977050781,3.3053264021873474 55.31560778617859,3.563254326581955 55.31560778617859,3.563254326581955 55.1949679851532,3.82254496216774 55.1949679851532,3.82254496216774 55.07825016975403,4.083143174648285 55.07825016975403,4.083143174648285 54.96548414230347,4.344994947314262 54.96548414230347,4.344994947314262 54.85672950744629,4.608045518398285 54.85672950744629,4.608045518398285 54.75202798843384,4.87234964966774 54.75202798843384,4.87234964966774 54.46432828903198,4.957035928964615 54.46432828903198,4.957035928964615 54.179465770721436,5.051640421152115 54.179465770721436,5.051640421152115 53.897666931152344,5.15594519674778 53.897666931152344,5.15594519674778 53.61917018890381,5.26973195374012 53.61917018890381,5.26973195374012 53.344184160232544,5.39289228618145 53.344184160232544,5.39289228618145 53.07292938232422,5.52542582154274 53.07292938232422,5.52542582154274 52.805644273757935,5.667005479335785 52.805644273757935,5.667005479335785 52.54255533218384,5.81752248108387 52.54255533218384,5.81752248108387 44.90443766117096,10.36551371216774 44.90443766117096,10.36551371216774 43.441787362098694,11.457552760839462 43.441787362098694,11.457552760839462 42.261096835136414,12.776893377304077 42.261096835136414,12.776893377304077 41.374561190605164,14.273834228515625 41.374561190605164,14.273834228515625 40.79437553882599,15.89878648519516 40.79437553882599,15.89878648519516 40.53274095058441,17.602212727069855 40.53274095058441,17.602212727069855 40.60186743736267,19.334575533866882 40.60186743736267,19.334575533866882 41.01395010948181,21.04623019695282 41.01395010948181,21.04623019695282 41.78118109703064,22.68764078617096 41.78118109703064,22.68764078617096 43.02804470062256,24.77504312992096 43.02804470062256,24.77504312992096 43.03996562957764,24.796023964881897 43.03996562957764,24.796023964881897 43.05215775966644,24.81689602136612 43.05215775966644,24.81689602136612 43.064555525779724,24.83782172203064 43.064555525779724,24.83782172203064 43.07709038257599,24.85874891281128 43.07709038257599,24.85874891281128 43.0897057056427,24.8796746134758 43.0897057056427,24.8796746134758 43.10234785079956,24.90060031414032 43.10234785079956,24.90060031414032 43.11495125293732,24.92152750492096 43.11495125293732,24.92152750492096 43.12744438648224,24.94245320558548 43.12744438648224,24.94245320558548 40.48251509666443,29.80499267578125 40.48251509666443,29.80499267578125 38.65514695644379,34.96578931808472 38.65514695644379,34.96578931808472 37.65248656272888,40.317755937576294 37.65248656272888,40.317755937576294 37.48169243335724,45.75369954109192 37.48169243335724,45.75369954109192 38.14991116523743,51.16637349128723 38.14991116523743,51.16637349128723 39.66429829597473,56.448692083358765 39.66429829597473,56.448692083358765 42.0320063829422,61.493468284606934 42.0320063829422,61.493468284606934 45.26018500328064,66.1935031414032 45.26018500328064,66.1935031414032 46.92501425743103,68.08907985687256 46.92501425743103,68.08907985687256 48.70978891849518,69.84449625015259 48.70978891849518,69.84449625015259 50.60642957687378,71.4568555355072 50.60642957687378,71.4568555355072 52.60685682296753,72.92284369468689 52.60685682296753,72.92284369468689 54.70300912857056,74.23935532569885 54.70300912857056,74.23935532569885 56.886810064315796,75.40315985679626 56.886810064315796,75.40315985679626 59.15019512176514,76.41111612319946 59.15019512176514,76.41111612319946 61.48507595062256,77.26004719734192 61.48507595062256,77.26004719734192 50.69580078125,88.08594346046448 50.69580078125,88.08594346046448 49.986276030540466,88.76501321792603 49.986276030540466,88.76501321792603 49.24858808517456,89.39438462257385 49.24858808517456,89.39438462257385 48.48177433013916,89.96146321296692 48.48177433013916,89.96146321296692 47.68480658531189,90.45367240905762 47.68480658531189,90.45367240905762 46.856698393821716,90.85841178894043 46.856698393821716,90.85841178894043 45.99645137786865,91.1630928516388 45.99645137786865,91.1630928516388 45.10304927825928,91.3551390171051 45.10304927825928,91.3551390171051 44.17550563812256,91.42194986343384 44.17550563812256,91.42194986343384 43.893176317214966,91.41589999198914 43.893176317214966,91.41589999198914 43.60738694667816,91.39726161956787 43.60738694667816,91.39726161956787 43.31824779510498,91.36592745780945 43.31824779510498,91.36592745780945 43.02586317062378,91.32145643234253 43.02586317062378,91.32145643234253 42.730388045310974,91.26347303390503 42.730388045310974,91.26347303390503 42.43191480636597,91.19164943695068 42.43191480636597,91.19164943695068 42.13058054447174,91.10565781593323 42.13058054447174,91.10565781593323 41.82652235031128,91.00516438484192 41.82652235031128,91.00516438484192 39.70460295677185,89.30615186691284 39.70460295677185,89.30615186691284 35.36377251148224,85.25031208992004 35.36377251148224,85.25031208992004 29.526370763778687,79.58483099937439 29.526370763778687,79.58483099937439 22.91477918624878,73.05712103843689 22.91477918624878,73.05712103843689 16.25135987997055,66.41458868980408 16.25135987997055,66.41458868980408 10.25848463177681,60.40453314781189 10.25848463177681,60.40453314781189 5.658517777919769,55.774420499801636 5.658517777919769,55.774420499801636 3.173828125,53.271484375 3.173828125,53.271484375 2.7496883645653725,52.84271240234375 2.7496883645653725,52.84271240234375 2.336420491337776,52.411651611328125 2.336420491337776,52.411651611328125 1.939610205590725,51.97203755378723 1.939610205590725,51.97203755378723 1.56489796936512,51.51737928390503 1.56489796936512,51.51737928390503 1.2178966775536537,51.041632890701294 1.2178966775536537,51.041632890701294 0.9042195044457912,50.53842067718506 0.9042195044457912,50.53842067718506 0.6294931750744581,50.00147223472595 0.6294931750744581,50.00147223472595 0.3993443213403225,49.42452907562256 0.3993443213403225,49.42452907562256 0.022547587286680937,47.624045610427856 0.022547587286680937,47.624045610427856 0.09732928010635078,45.85549831390381 0.09732928010635078,45.85549831390381 0.57738171890378,44.183024764060974 0.57738171890378,44.183024764060974 1.416451670229435,42.67076849937439 1.416451670229435,42.67076849937439 2.568272314965725,41.38292670249939 2.568272314965725,41.38292670249939 3.986576944589615,40.383586287498474 3.986576944589615,40.383586287498474 5.6250981986522675,39.73699510097504 5.6250981986522675,39.73699510097504 7.43757039308548,39.50718641281128 7.43757039308548,39.50718641281128 24.56752359867096,39.50718641281128 24.56752359867096,39.50718641281128 24.56752359867096,6.76443949341774 24.56752359867096,6.76443949341774 24.705152213573456,5.405862256884575 24.705152213573456,5.405862256884575 25.09962022304535,4.138292744755745 25.09962022304535,4.138292744755745 25.723296403884888,2.989523857831955 25.723296403884888,2.989523857831955 26.54854953289032,1.987348310649395 26.54854953289032,1.987348310649395 27.54775583744049,1.15955900400877 27.54775583744049,1.15955900400877 28.69328260421753,0.5338396411389112 28.69328260421753,0.5338396411389112 29.957500100135803,0.13809205265715718 29.957500100135803,0.13809205265715718 31.31278157234192,0.0 31.31278157234192,0.0" stroke="white" stroke-width="0.1" /><polygon points="91.29464626312256,23.97461086511612 91.29464626312256,23.97461086511612 93.6792254447937,26.524028182029724 93.6792254447937,26.524028182029724 95.70457339286804,29.333224892616272 95.70457339286804,29.333224892616272 97.35671877861023,32.35909640789032 97.35671877861023,32.35909640789032 98.62170219421387,35.55864691734314 98.62170219421387,35.55864691734314 99.48556423187256,38.888877630233765 99.48556423187256,38.888877630233765 99.93436336517334,42.30657517910004 99.93436336517334,42.30657517910004 99.95413422584534,45.76890468597412 99.95413422584534,45.76890468597412 99.5309054851532,49.23270344734192 99.5309054851532,49.23270344734192 98.79987239837646,52.18680500984192 98.79987239837646,52.18680500984192 97.74826765060425,55.02750277519226 97.74826765060425,55.02750277519226 96.3952362537384,57.729339599609375 96.3952362537384,57.729339599609375 94.75991725921631,60.26655435562134 94.75991725921631,60.26655435562134 92.86146759986877,62.613677978515625 92.86146759986877,62.613677978515625 90.71903824806213,64.74500894546509 90.71903824806213,64.74500894546509 88.35177421569824,66.6350781917572 88.35177421569824,66.6350781917572 85.77881455421448,68.25823187828064 85.77881455421448,68.25823187828064 84.20878052711487,69.0642237663269 84.20878052711487,69.0642237663269 82.60334730148315,69.75920796394348 82.60334730148315,69.75920796394348 80.96800446510315,70.34427523612976 80.96800446510315,70.34427523612976 79.30821180343628,70.82040309906006 79.30821180343628,70.82040309906006 77.62945890426636,71.18884921073914 77.62945890426636,71.18884921073914 75.93721747398376,71.4506447315216 75.93721747398376,71.4506447315216 74.23697113990784,71.60694003105164 74.23697113990784,71.60694003105164 72.53418564796448,71.65876626968384 72.53418564796448,71.65876626968384 69.48798298835754,71.4934229850769 69.48798298835754,71.4934229850769 66.48039221763611,71.00138068199158 66.48039221763611,71.00138068199158 63.542163372039795,70.18901705741882 63.542163372039795,70.18901705741882 60.70404052734375,69.06259059906006 60.70404052734375,69.06259059906006 57.99679160118103,67.62831807136536 57.99679160118103,67.62831807136536 55.451178550720215,65.89241027832031 55.451178550720215,65.89241027832031 53.09794545173645,63.86119723320007 53.09794545173645,63.86119723320007 50.96784830093384,61.54087781906128 50.96784830093384,61.54087781906128 48.053935170173645,57.14651346206665 48.053935170173645,57.14651346206665 46.08181715011597,52.37405300140381 46.08181715011597,52.37405300140381 45.041659474372864,47.3693311214447 45.041659474372864,47.3693311214447 44.92362141609192,42.27840006351471 44.92362141609192,42.27840006351471 45.717841386795044,37.24741339683533 45.717841386795044,37.24741339683533 47.41445481777191,32.422420382499695 47.41445481777191,32.422420382499695 50.003623962402344,27.94952392578125 50.003623962402344,27.94952392578125 53.47551703453064,23.97461086511612 53.47551703453064,23.97461086511612 51.91650390625,21.35881781578064 51.91650390625,21.35881781578064 51.756417751312256,21.467427909374237 51.756417751312256,21.467427909374237 51.598089933395386,21.559688448905945 51.598089933395386,21.559688448905945 51.441800594329834,21.636146306991577 51.441800594329834,21.636146306991577 51.287841796875,21.69734537601471 51.287841796875,21.69734537601471 51.13650560379028,21.743938326835632 51.13650560379028,21.743938326835632 50.98806619644165,21.77647352218628 50.98806619644165,21.77647352218628 50.84280967712402,21.795547008514404 50.84280967712402,21.795547008514404 50.70103406906128,21.80175930261612 50.70103406906128,21.80175930261612 50.485748052597046,21.786826848983765 50.485748052597046,21.786826848983765 50.28144717216492,21.743448078632355 50.28144717216492,21.743448078632355 50.08928179740906,21.673639118671417 50.08928179740906,21.673639118671417 49.91041123867035,21.57941609621048 49.91041123867035,21.57941609621048 49.74601864814758,21.46301418542862 49.74601864814758,21.46301418542862 49.597251415252686,21.326501667499542 49.597251415252686,21.326501667499542 49.46528971195221,21.171897649765015 49.46528971195221,21.171897649765015 49.35128688812256,21.00132554769516 49.35128688812256,21.00132554769516 48.10442328453064,18.91392320394516 48.10442328453064,18.91392320394516 47.96547293663025,18.616649508476257 47.96547293663025,18.616649508476257 47.891074419021606,18.307550251483917 47.891074419021606,18.307550251483917 47.87887930870056,17.995290458202362 47.87887930870056,17.995290458202362 47.92655110359192,17.68864244222641 47.92655110359192,17.68864244222641 48.03178310394287,17.396274209022522 48.03178310394287,17.396274209022522 48.19221794605255,17.12690144777298 48.19221794605255,17.12690144777298 48.405539989471436,16.889354586601257 48.405539989471436,16.889354586601257 48.66943657398224,16.69224351644516 48.66943657398224,16.69224351644516 56.32498860359192,12.13553324341774 56.32498860359192,12.13553324341774 56.42308592796326,12.081746011972427 56.42308592796326,12.081746011972427 56.52351379394531,12.035370618104935 56.52351379394531,12.035370618104935 56.62582516670227,11.996406316757202 56.62582516670227,11.996406316757202 56.72956705093384,11.96463480591774 56.72956705093384,11.96463480591774 56.83428645133972,11.940111964941025 56.83428645133972,11.940111964941025 56.939536333084106,11.922673135995865 56.939536333084106,11.922673135995865 57.04486966133118,11.91231906414032 57.04486966133118,11.91231906414032 57.14983344078064,11.9088314473629 57.14983344078064,11.9088314473629 57.35598802566528,11.922019720077515 57.35598802566528,11.922019720077515 57.55811929702759,11.96114718914032 57.55811929702759,11.96114718914032 57.75371789932251,12.025342881679535 57.75371789932251,12.025342881679535 57.94023871421814,12.11395338177681 57.94023871421814,12.11395338177681 58.11516046524048,12.226159870624542 58.11516046524048,12.226159870624542 58.27593207359314,12.361254543066025 58.27593207359314,12.361254543066025 58.420032262802124,12.518474459648132 58.420032262802124,12.518474459648132 58.544921875,12.6970574259758 58.544921875,12.6970574259758 59.78655219078064,14.78794664144516 59.78655219078064,14.78794664144516 59.95321273803711,15.202495455741882 59.95321273803711,15.202495455741882 60.01243591308594,15.586581826210022 60.01243591308594,15.586581826210022 59.977900981903076,15.9393310546875 59.977900981903076,15.9393310546875 59.86328125,16.26020222902298 59.86328125,16.26020222902298 59.682291746139526,16.54859334230423 59.682291746139526,16.54859334230423 59.44862365722656,16.803742945194244 59.44862365722656,16.803742945194244 59.17596220970154,17.02510416507721 59.17596220970154,17.02510416507721 58.87800455093384,17.21191555261612 58.87800455093384,17.21191555261612 60.14230251312256,19.33593899011612 60.14230251312256,19.33593899011612 60.46562194824219,19.179263710975647 60.46562194824219,19.179263710975647 60.790854692459106,19.026075303554535 60.790854692459106,19.026075303554535 61.1181378364563,18.876594305038452 61.1181378364563,18.876594305038452 61.44758462905884,18.73125433921814 61.44758462905884,18.73125433921814 61.77932024002075,18.590328097343445 61.77932024002075,18.590328097343445 62.11346387863159,18.454089760780334 62.11346387863159,18.454089760780334 62.45014667510986,18.322917819023132 62.45014667510986,18.322917819023132 62.78948187828064,18.19719672203064 62.78948187828064,18.19719672203064 61.339229345321655,15.232795476913452 61.339229345321655,15.232795476913452 60.8142614364624,12.146977335214615 60.8142614364624,12.146977335214615 61.13047003746033,9.09903421998024 61.13047003746033,9.09903421998024 62.20376491546631,6.24803826212883 62.20376491546631,6.24803826212883 63.95004987716675,3.7533897906541824 63.95004987716675,3.7533897906541824 66.28524661064148,1.77437923848629 66.28524661064148,1.77437923848629 69.12524700164795,0.47013419680297375 69.12524700164795,0.47013419680297375 72.38595485687256,0.0 72.38595485687256,0.0 75.63994526863098,0.4701887257397175 75.63994526863098,0.4701887257397175 78.47835421562195,1.77448820322752 78.47835421562195,1.77448820322752 80.81551194190979,3.7536077201366425 80.81551194190979,3.7536077201366425 82.56574869155884,6.24803826212883 82.56574869155884,6.24803826212883 83.6434006690979,9.098489582538605 83.6434006690979,9.098489582538605 83.96279811859131,12.14556097984314 83.96279811859131,12.14556097984314 83.43827724456787,15.22979736328125 83.43827724456787,15.22979736328125 81.98416829109192,18.19196492433548 81.98416829109192,18.19196492433548 82.32207894325256,18.319211900234222 82.32207894325256,18.319211900234222 82.65822529792786,18.45114678144455 82.65822529792786,18.45114678144455 82.99249410629272,18.587657809257507 82.99249410629272,18.587657809257507 83.32476019859314,18.72863918542862 83.32476019859314,18.72863918542862 83.65490436553955,18.87403279542923 83.65490436553955,18.87403279542923 83.98279547691345,19.02378648519516 83.98279547691345,19.02378648519516 84.30832028388977,19.177791476249695 84.30832028388977,19.177791476249695 84.63135361671448,19.33593899011612 84.63135361671448,19.33593899011612 85.8956515789032,17.21191555261612 85.8956515789032,17.21191555261612 85.49589514732361,16.971097886562347 85.49589514732361,16.971097886562347 85.18688082695007,16.694097220897675 85.18688082695007,16.694097220897675 84.96401906013489,16.390283405780792 84.96401906013489,16.390283405780792 84.82273817062378,16.06859564781189 84.82273817062378,16.06859564781189 84.758460521698,15.73835164308548 84.758460521698,15.73835164308548 84.7666084766388,15.40876179933548 84.7666084766388,15.40876179933548 84.84260439872742,15.088872611522675 84.84260439872742,15.088872611522675 84.98186469078064,14.78794664144516 84.98186469078064,14.78794664144516 86.22349500656128,12.6970574259758 86.22349500656128,12.6970574259758 86.34961247444153,12.518474459648132 86.34961247444153,12.518474459648132 86.4948034286499,12.361254543066025 86.4948034286499,12.361254543066025 86.6565465927124,12.2262142598629 86.6565465927124,12.2262142598629 86.83232069015503,12.11395338177681 86.83232069015503,12.11395338177681 87.01962232589722,12.025342881679535 87.01962232589722,12.025342881679535 87.2159481048584,11.96114718914032 87.2159481048584,11.96114718914032 87.41876482963562,11.922019720077515 87.41876482963562,11.922019720077515 87.62556314468384,11.9088314473629 87.62556314468384,11.9088314473629 87.73088455200195,11.912264674901962 87.73088455200195,11.912264674901962 87.83608078956604,11.922673135995865 87.83608078956604,11.922673135995865 87.94086575508118,11.940057575702667 87.94086575508118,11.940057575702667 88.04495930671692,11.96463480591774 88.04495930671692,11.96463480591774 88.14807534217834,11.996296793222427 88.14807534217834,11.996296793222427 88.24992179870605,12.035370618104935 88.24992179870605,12.035370618104935 88.35021257400513,12.081746011972427 88.35021257400513,12.081746011972427 88.44866752624512,12.13553324341774 88.44866752624512,12.13553324341774 96.10247611999512,16.69224351644516 96.10247611999512,16.69224351644516 96.36686444282532,16.889354586601257 96.36686444282532,16.889354586601257 96.58045768737793,17.126956582069397 96.58045768737793,17.126956582069397 96.74099087715149,17.396274209022522 96.74099087715149,17.396274209022522 96.84622883796692,17.68864244222641 96.84622883796692,17.68864244222641 96.89391851425171,17.99534410238266 96.89391851425171,17.99534410238266 96.8818187713623,18.307605385780334 96.8818187713623,18.307605385780334 96.80767059326172,18.616704642772675 96.80767059326172,18.616704642772675 96.66922688484192,18.91392320394516 96.66922688484192,18.91392320394516 95.42236924171448,21.00132554769516 95.42236924171448,21.00132554769516 95.3080415725708,21.169118583202362 95.3080415725708,21.169118583202362 95.17413973808289,21.31958156824112 95.17413973808289,21.31958156824112 95.02233266830444,21.451351046562195 95.02233266830444,21.451351046562195 94.85430717468262,21.56263142824173 94.85430717468262,21.56263142824173 94.67172622680664,21.651950478553772 94.67172622680664,21.651950478553772 94.47627067565918,21.71761691570282 94.47627067565918,21.71761691570282 94.26961541175842,21.758216619491577 94.26961541175842,21.758216619491577 94.05343532562256,21.77211344242096 94.05343532562256,21.77211344242096 93.90997886657715,21.76622748374939 93.90997886657715,21.76622748374939 93.76370906829834,21.748244762420654 93.76370906829834,21.748244762420654 93.61511468887329,21.71761691570282 93.61511468887329,21.71761691570282 93.46466660499573,21.67402058839798 93.46466660499573,21.67402058839798 93.31282377243042,21.616800129413605 93.31282377243042,21.616800129413605 93.16006302833557,21.545520424842834 93.16006302833557,21.545520424842834 93.00684928894043,21.459634602069855 93.00684928894043,21.459634602069855 92.8536593914032,21.35881781578064 92.8536593914032,21.35881781578064" stroke="white" stroke-width="0.1" /><polygon points="64.63449001312256,11.63155734539032 64.63449001312256,11.63155734539032 64.67311382293701,12.41084560751915 64.67311382293701,12.41084560751915 64.78650569915771,13.16768229007721 64.78650569915771,13.16768229007721 64.9709701538086,13.89857828617096 64.9709701538086,13.89857828617096 65.22282361984253,14.599609375 65.22282361984253,14.599609375 65.53835272789001,15.26729166507721 65.53835272789001,15.26729166507721 65.9138560295105,15.898078680038452 65.9138560295105,15.898078680038452 66.3456380367279,16.48821234703064 66.3456380367279,16.48821234703064 66.83000922203064,17.03404039144516 66.83000922203064,17.03404039144516 67.44036078453064,16.92940890789032 67.44036078453064,16.92940890789032 67.50180721282959,16.751044988632202 67.50180721282959,16.751044988632202 67.69518256187439,16.28091037273407 67.69518256187439,16.28091037273407 68.03406476974487,15.616226196289062 68.03406476974487,15.616226196289062 68.53201985359192,14.85421359539032 68.53201985359192,14.85421359539032 69.20261979103088,14.092254638671875 69.20261979103088,14.092254638671875 70.05942463874817,13.42751681804657 70.05942463874817,13.42751681804657 71.11601233482361,12.95732855796814 71.11601233482361,12.95732855796814 72.38595485687256,12.77901828289032 72.38595485687256,12.77901828289032 73.65389466285706,12.957382202148438 73.65389466285706,12.957382202148438 74.70954060554504,13.42751681804657 74.70954060554504,13.42751681804657 75.56622624397278,14.092200994491577 75.56622624397278,14.092200994491577 76.23727321624756,14.85421359539032 76.23727321624756,14.85421359539032 76.73600316047668,15.616226196289062 76.73600316047668,15.616226196289062 77.07574367523193,16.28091037273407 77.07574367523193,16.28091037273407 77.2698163986206,16.751044988632202 77.2698163986206,16.751044988632202 77.33154892921448,16.92940890789032 77.33154892921448,16.92940890789032 77.93840765953064,17.03404039144516 77.93840765953064,17.03404039144516 78.45858335494995,16.442926228046417 78.45858335494995,16.442926228046417 78.90434861183167,15.817424654960632 78.90434861183167,15.817424654960632 79.27693724632263,15.16265869140625 79.27693724632263,15.16265869140625 79.57764267921448,14.48386162519455 79.57764267921448,14.48386162519455 79.80771660804749,13.786207139492035 79.80771660804749,13.786207139492035 79.96842861175537,13.07482123374939 79.96842861175537,13.07482123374939 80.06104826927185,12.35482394695282 80.06104826927185,12.35482394695282 80.08684515953064,11.63155734539032 80.08684515953064,11.63155734539032 80.01036047935486,10.85619330406189 80.01036047935486,10.85619330406189 79.76469397544861,9.77107509970665 79.76469397544861,9.77107509970665 79.30784821510315,8.503668755292892 79.30784821510315,8.503668755292892 78.59780788421631,7.18122273683548 78.59780788421631,7.18122273683548 77.59259343147278,5.930982530117035 77.59259343147278,5.930982530117035 76.2502133846283,4.880360513925552 76.2502133846283,4.880360513925552 74.52867031097412,4.156603291630745 74.52867031097412,4.156603291630745 72.38595485687256,3.88706773519516 72.38595485687256,3.88706773519516 70.44220566749573,4.1110992431640625 70.44220566749573,4.1110992431640625 68.80806684494019,4.724393784999847 68.80806684494019,4.724393784999847 67.46801137924194,5.6385587900877 67.46801137924194,5.6385587900877 66.40647053718567,6.76531121134758 66.40647053718567,6.76531121134758 65.60790538787842,8.01631435751915 65.60790538787842,8.01631435751915 65.05674719810486,9.303229302167892 65.05674719810486,9.303229302167892 64.73745703697205,10.53772047162056 64.73745703697205,10.53772047162056" stroke="white" stroke-width="0.1" /><polygon points="66.73409938812256,44.09703016281128 66.73409938812256,44.09703016281128 66.8575644493103,45.26067674160004 66.8575644493103,45.26067674160004 67.20848679542542,46.3321715593338 67.20848679542542,46.3321715593338 67.75763034820557,47.29216694831848 67.75763034820557,47.29216694831848 68.47578287124634,48.12099039554596 68.47578287124634,48.12099039554596 69.33371424674988,48.799461126327515 69.33371424674988,48.799461126327515 70.30220627784729,49.308180809020996 70.30220627784729,49.308180809020996 71.35202884674072,49.627578258514404 71.35202884674072,49.627578258514404 72.45396375656128,49.73842203617096 72.45396375656128,49.73842203617096 72.72012829780579,49.7318834066391 72.72012829780579,49.7318834066391 72.98734188079834,49.71226453781128 72.98734188079834,49.71226453781128 73.25516939163208,49.679186940193176 73.25516939163208,49.679186940193176 73.52316975593567,49.63248372077942 73.52316975593567,49.63248372077942 73.79093766212463,49.57188367843628 73.79093766212463,49.57188367843628 74.05802011489868,49.49711561203003 74.05802011489868,49.49711561203003 74.32399988174438,49.40796196460724 74.32399988174438,49.40796196460724 74.58845376968384,49.30420219898224 74.58845376968384,49.30420219898224 75.55596232414246,48.76840114593506 75.55596232414246,48.76840114593506 76.40013098716736,48.047202825546265 76.40013098716736,48.047202825546265 77.09786295890808,47.17718064785004 77.09786295890808,47.17718064785004 77.62604355812073,46.19467854499817 77.62604355812073,46.19467854499817 77.96154618263245,45.136263966560364 77.96154618263245,45.136263966560364 78.0812680721283,44.03839409351349 78.0812680721283,44.03839409351349 77.96210050582886,42.937472462654114 77.96210050582886,42.937472462654114 77.58091688156128,41.87012016773224 77.58091688156128,41.87012016773224 77.46998071670532,41.62374436855316 77.46998071670532,41.62374436855316 77.3457407951355,41.38314425945282 77.3457407951355,41.38314425945282 77.20912098884583,41.14903211593628 77.20912098884583,41.14903211593628 77.06102728843689,40.92167615890503 77.06102728843689,40.92167615890503 76.90239548683167,40.701621770858765 76.90239548683167,40.701621770858765 76.73413753509521,40.48919975757599 76.73413753509521,40.48919975757599 76.55717730522156,40.28511345386505 76.55717730522156,40.28511345386505 76.37242078781128,40.08963704109192 76.37242078781128,40.08963704109192 76.25401020050049,39.95644748210907 76.25401020050049,39.95644748210907 76.12089514732361,39.8319810628891 76.12089514732361,39.8319810628891 75.97671151161194,39.715033769607544 75.97671151161194,39.715033769607544 75.82506537437439,39.60440754890442 75.82506537437439,39.60440754890442 75.6695806980133,39.4988477230072 75.6695806980133,39.4988477230072 75.51386952400208,39.39710557460785 75.51386952400208,39.39710557460785 75.36155581474304,39.298030734062195 75.36155581474304,39.298030734062195 75.21623969078064,39.2002671957016 75.21623969078064,39.2002671957016 73.71826767921448,18.63839328289032 73.71826767921448,18.63839328289032 73.66144061088562,18.214036524295807 73.66144061088562,18.214036524295807 73.56052994728088,17.84624457359314 73.56052994728088,17.84624457359314 73.42180609703064,17.53496527671814 73.42180609703064,17.53496527671814 73.25156331062317,17.28036105632782 73.25156331062317,17.28036105632782 73.05606007575989,17.0824334025383 73.05606007575989,17.0824334025383 72.84156680107117,16.94139838218689 72.84156680107117,16.94139838218689 72.61435985565186,16.857202351093292 72.61435985565186,16.857202351093292 72.38072156906128,16.83000922203064 72.38072156906128,16.83000922203064 72.14831113815308,16.858237981796265 72.14831113815308,16.858237981796265 71.92224860191345,16.942869126796722 71.92224860191345,16.942869126796722 71.70884609222412,17.084012925624847 71.70884609222412,17.084012925624847 71.51445746421814,17.28166937828064 71.51445746421814,17.28166937828064 71.34540677070618,17.535945773124695 71.34540677070618,17.535945773124695 71.20802998542786,17.846734821796417 71.20802998542786,17.846734821796417 71.1086630821228,18.21419894695282 71.1086630821228,18.21419894695282 71.05364203453064,18.63839328289032 71.05364203453064,18.63839328289032 69.5626437664032,39.2002671957016 69.5626437664032,39.2002671957016 69.17597651481628,39.43912088871002 69.17597651481628,39.43912088871002 68.81106495857239,39.71252739429474 68.81106495857239,39.71252739429474 68.46973896026611,40.01704752445221 68.46973896026611,40.01704752445221 68.15382242202759,40.34925401210785 68.15382242202759,40.34925401210785 67.86511540412903,40.705546736717224 67.86511540412903,40.705546736717224 67.605459690094,41.082438826560974 67.605459690094,41.082438826560974 67.3766553401947,41.47644340991974 67.3766553401947,41.47644340991974 67.18052625656128,41.88407063484192 67.18052625656128,41.88407063484192 67.18052625656128,41.8858140707016 67.18052625656128,41.8858140707016 67.07672476768494,42.17807352542877 67.07672476768494,42.17807352542877 66.98644161224365,42.52123236656189 66.98644161224365,42.52123236656189 66.90976023674011,42.88738965988159 66.90976023674011,42.88738965988159 66.84679388999939,43.24907660484314 66.84679388999939,43.24907660484314 66.7976438999176,43.578505516052246 66.7976438999176,43.578505516052246 66.76241159439087,43.8481479883194 66.76241159439087,43.8481479883194 66.74119830131531,44.030219316482544 66.74119830131531,44.030219316482544" stroke="white" stroke-width="0.1" /></svg>