<?xml version="1.0" encoding="utf-8" ?>
<svg baseProfile="full" height="69.99861001968384" version="1.1" width="100.0" xmlns="http://www.w3.org/2000/svg" xmlns:ev="http://www.w3.org/2001/xml-events" xmlns:xlink="http://www.w3.org/1999/xlink"><defs><clipPath /></defs><polygon points="22.83063679933548,51.11607313156128 22.83063679933548,51.11607313156128 24.74517971277237,51.17904543876648 24.74517971277237,51.17904543876648 26.5537828207016,51.60865783691406 26.5537828207016,51.60865783691406 28.21611762046814,52.369749546051025 28.21611762046814,52.369749546051025 29.69142496585846,53.4271240234375 29.69142496585846,53.4271240234375 30.93937635421753,54.74559664726257 30.93937635421753,54.74559664726257 31.91942572593689,56.28994703292847 31.91942572593689,56.28994703292847 32.590922713279724,58.0250084400177 32.590922713279724,58.0250084400177 32.9136461019516,59.91560220718384 32.9136461019516,59.91560220718384 32.9345703125,60.5965793132782 32.9345703125,60.5965793132782 32.90688693523407,61.26769185066223 32.90688693523407,61.26769185066223 32.83233642578125,61.92728281021118 32.83233642578125,61.92728281021118 32.71266520023346,62.57368326187134 32.71266520023346,62.57368326187134 32.549723982810974,63.20520639419556 32.549723982810974,63.20520639419556 32.345256209373474,63.82015943527222 32.345256209373474,63.82015943527222 32.10078775882721,64.41688537597656 32.10078775882721,64.41688537597656 31.81850016117096,64.99372720718384 31.81850016117096,64.99372720718384 31.200629472732544,65.9994125366211 31.200629472732544,65.9994125366211 30.465155839920044,66.91900491714478 30.465155839920044,66.91900491714478 29.621562361717224,67.74123311042786 29.621562361717224,67.74123311042786 28.67954969406128,68.4548556804657 28.67954969406128,68.4548556804657 27.64849066734314,69.04863715171814 27.64849066734314,69.04863715171814 26.538196206092834,69.51135993003845 26.538196206092834,69.51135993003845 25.358039140701294,69.83177065849304 25.358039140701294,69.83177065849304 24.11760687828064,69.99861001968384 24.11760687828064,69.99861001968384 22.726550698280334,69.99035477638245 22.726550698280334,69.99035477638245 21.385738253593445,69.78607773780823 21.385738253593445,69.78607773780823 20.11021226644516,69.3990170955658 20.11021226644516,69.3990170955658 18.91479641199112,68.8424289226532 18.91479641199112,68.8424289226532 17.814527451992035,68.12954545021057 17.814527451992035,68.12954545021057 16.824451088905334,67.27360486984253 16.824451088905334,67.27360486984253 15.959495306015015,66.28786325454712 15.959495306015015,66.28786325454712 15.234375,65.185546875 15.234375,65.185546875 14.994703233242035,64.73345160484314 14.994703233242035,64.73345160484314 14.778682589530945,64.2669141292572 14.778682589530945,64.2669141292572 14.58740234375,63.78656625747681 14.58740234375,63.78656625747681 14.42173570394516,63.29302191734314 14.42173570394516,63.29302191734314 14.28288072347641,62.786865234375 14.28288072347641,62.786865234375 14.17192816734314,62.26877570152283 14.17192816734314,62.26877570152283 14.090076088905334,61.739325523376465 14.090076088905334,61.739325523376465 14.0380859375,61.19908094406128 14.0380859375,61.19908094406128 14.09890353679657,59.283530712127686 14.09890353679657,59.283530712127686 14.527130126953125,57.47441053390503 14.527130126953125,57.47441053390503 15.28734564781189,55.81210255622864 15.28734564781189,55.81210255622864 16.34434312582016,54.33698892593384 16.34434312582016,54.33698892593384 17.66248494386673,53.08944582939148 17.66248494386673,53.08944582939148 19.206565618515015,52.10985541343689 19.206565618515015,52.10985541343689 20.941053330898285,51.43860578536987 20.941053330898285,51.43860578536987" stroke="white" stroke-width="0.1" /><polygon points="99.80469346046448,55.4269015789032 99.80469346046448,55.4269015789032 100.0,55.48619031906128 100.0,55.48619031906128 96.05887532234192,59.39244031906128 96.05887532234192,59.39244031906128 95.46105861663818,59.69369411468506 95.46105861663818,59.69369411468506 94.87217664718628,59.923774003982544 94.87217664718628,59.923774003982544 94.31425333023071,60.092222690582275 94.31425333023071,60.092222690582275 93.8088595867157,60.20857095718384 93.8088595867157,60.20857095718384 93.37779879570007,60.28240919113159 93.37779879570007,60.28240919113159 93.04308891296387,60.323333740234375 93.04308891296387,60.323333740234375 92.8261935710907,60.34085750579834 92.8261935710907,60.34085750579834 92.74902939796448,60.34458875656128 92.74902939796448,60.34458875656128 92.73245930671692,60.34717559814453 92.73245930671692,60.34717559814453 92.68363118171692,60.35483479499817 92.68363118171692,60.35483479499817 92.60407090187073,60.367393493652344 92.60407090187073,60.367393493652344 92.49529838562012,60.38469672203064 92.49529838562012,60.38469672203064 92.35873222351074,60.406577587127686 92.35873222351074,60.406577587127686 92.19578504562378,60.43287515640259 92.19578504562378,60.43287515640259 92.00810194015503,60.4634165763855 92.00810194015503,60.4634165763855 91.79688096046448,60.498046875 91.79688096046448,60.498046875 91.9350802898407,59.94341969490051 91.9350802898407,59.94341969490051 92.05126762390137,59.381103515625 92.05126762390137,59.381103515625 92.14478135108948,58.811599016189575 92.14478135108948,58.811599016189575 92.21540689468384,58.23538899421692 92.21540689468384,58.23538899421692 92.26238131523132,57.65296816825867 92.26238131523132,57.65296816825867 92.28537678718567,57.0648193359375 92.28537678718567,57.0648193359375 92.28385090827942,56.47144317626953 92.28385090827942,56.47144317626953 92.25726127624512,55.87332844734192 92.25726127624512,55.87332844734192 91.77966117858887,53.071653842926025 91.77966117858887,53.071653842926025 90.78260660171509,50.498366355895996 90.78260660171509,50.498366355895996 89.32659029960632,48.20638597011566 89.32659029960632,48.20638597011566 87.47254014015198,46.24851942062378 87.47254014015198,46.24851942062378 85.2812647819519,44.67765390872955 85.2812647819519,44.67765390872955 82.8133761882782,43.54656934738159 82.8133761882782,43.54656934738159 80.13001084327698,42.9081529378891 80.13001084327698,42.9081529378891 77.29143500328064,42.81529188156128 77.29143500328064,42.81529188156128 74.48959946632385,43.292564153671265 74.48959946632385,43.292564153671265 71.91598415374756,44.28901970386505 71.91598415374756,44.28901970386505 69.62335109710693,45.74413597583771 69.62335109710693,45.74413597583771 67.66488552093506,47.59739637374878 67.66488552093506,47.59739637374878 66.09333753585815,49.7882604598999 66.09333753585815,49.7882604598999 64.96168375015259,52.256178855895996 64.96168375015259,52.256178855895996 64.32299017906189,54.940634965896606 64.32299017906189,54.940634965896606 64.22991156578064,57.78111219406128 64.22991156578064,57.78111219406128 64.29563760757446,58.48563313484192 64.29563760757446,58.48563313484192 64.39536213874817,59.17838215827942 64.39536213874817,59.17838215827942 64.52811360359192,59.85870361328125 64.52811360359192,59.85870361328125 64.69290852546692,60.52595376968384 64.69290852546692,60.52595376968384 64.88876342773438,61.1794650554657 64.88876342773438,61.1794650554657 65.11470675468445,61.81858777999878 65.11470675468445,61.81858777999878 65.36974310874939,62.44267225265503 65.36974310874939,62.44267225265503 65.65290689468384,63.05106282234192 65.65290689468384,63.05106282234192 63.88658881187439,63.034987449645996 63.88658881187439,63.034987449645996 62.058478593826294,63.02446722984314 62.058478593826294,63.02446722984314 60.19527316093445,63.02114725112915 60.19527316093445,63.02114725112915 58.32345485687256,63.02664875984192 58.32345485687256,63.02664875984192 56.470054388046265,63.042616844177246 56.470054388046265,63.042616844177246 54.66156005859375,63.0706787109375 54.66156005859375,63.0706787109375 52.92510986328125,63.11247944831848 52.92510986328125,63.11247944831848 51.28697156906128,63.16964626312256 51.28697156906128,63.16964626312256 49.40927028656006,63.261497020721436 49.40927028656006,63.261497020721436 47.49930500984192,63.383811712265015 47.49930500984192,63.383811712265015 45.58585286140442,63.530486822128296 45.58585286140442,63.530486822128296 43.69812309741974,63.69541883468628 43.69812309741974,63.69541883468628 41.864779591560364,63.87242078781128 41.864779591560364,63.87242078781128 40.114814043045044,64.05541896820068 40.114814043045044,64.05541896820068 38.477107882499695,64.23825025558472 38.477107882499695,64.23825025558472 36.98033094406128,64.41476345062256 36.98033094406128,64.41476345062256 37.130847573280334,63.83787393569946 37.130847573280334,63.83787393569946 37.257495522499084,63.253188133239746 37.257495522499084,63.253188133239746 37.35983967781067,62.66103982925415 37.35983967781067,62.66103982925415 37.43722140789032,62.06185817718506 37.43722140789032,62.06185817718506 37.48910129070282,61.45597696304321 37.48910129070282,61.45597696304321 37.514933943748474,60.8437180519104 37.514933943748474,60.8437180519104 37.514060735702515,60.22551655769348 37.514060735702515,60.22551655769348 37.48604953289032,59.6017062664032 37.48604953289032,59.6017062664032 37.00954020023346,56.8001389503479 37.00954020023346,56.8001389503479 36.013251543045044,54.227179288864136 36.013251543045044,54.227179288864136 34.55767035484314,51.93547010421753 34.55767035484314,51.93547010421753 32.70350992679596,49.97776746749878 32.70350992679596,49.97776746749878 30.511474609375,48.40668439865112 30.511474609375,48.40668439865112 28.0426025390625,47.27494716644287 28.0426025390625,47.27494716644287 25.3574937582016,46.63522243499756 25.3574937582016,46.63522243499756 22.51674234867096,46.54017984867096 22.51674234867096,46.54017984867096 19.7161003947258,47.01775312423706 19.7161003947258,47.01775312423706 17.14325100183487,48.01505208015442 17.14325100183487,48.01505208015442 14.85137939453125,49.47142004966736 14.85137939453125,49.47142004966736 12.89324164390564,51.32620930671692 12.89324164390564,51.32620930671692 11.32202222943306,53.518760204315186 11.32202222943306,53.518760204315186 10.19047349691391,55.9884250164032 10.19047349691391,55.9884250164032 9.55178439617157,58.67454409599304 9.55178439617157,58.67454409599304 9.45870578289032,61.51646375656128 9.45870578289032,61.51646375656128 9.47178453207016,61.69283986091614 9.47178453207016,61.69283986091614 9.48726162314415,61.868780851364136 9.48726162314415,61.868780851364136 9.505245089530945,62.04414367675781 9.505245089530945,62.04414367675781 9.5254085958004,62.21880316734314 9.5254085958004,62.21880316734314 9.54764261841774,62.392646074295044 9.54764261841774,62.392646074295044 9.57205668091774,62.56555914878845 9.57205668091774,62.56555914878845 9.598105400800705,62.73741126060486 9.598105400800705,62.73741126060486 9.6261166036129,62.90806531906128 9.6261166036129,62.90806531906128 8.48999097943306,62.420654296875 8.48999097943306,62.420654296875 7.35626220703125,61.939841508865356 7.35626220703125,61.939841508865356 6.258828938007355,61.48197054862976 6.258828938007355,61.48197054862976 5.23158498108387,61.0634982585907 5.23158498108387,61.0634982585907 4.308319464325905,60.70077419281006 4.308319464325905,60.70077419281006 3.52281853556633,60.41014790534973 3.52281853556633,60.41014790534973 2.90897935628891,60.2080762386322 2.90897935628891,60.2080762386322 2.50069759786129,60.11091470718384 2.50069759786129,60.11091470718384 1.977975107729435,59.80982184410095 1.977975107729435,59.80982184410095 1.5222822315990925,59.12584662437439 1.5222822315990925,59.12584662437439 1.13045834004879,58.15642476081848 1.13045834004879,58.15642476081848 0.799560546875,56.99899196624756 0.799560546875,56.99899196624756 0.5265372339636087,55.75098395347595 0.5265372339636087,55.75098395347595 0.30833655036985874,54.50984835624695 0.30833655036985874,54.50984835624695 0.14201573794707656,53.3730149269104 0.14201573794707656,53.3730149269104 0.0244140625,52.43791937828064 0.0244140625,52.43791937828064 0.018746513524092734,51.69492959976196 0.018746513524092734,51.69492959976196 0.16174317570403218,51.05656385421753 0.16174317570403218,51.05656385421753 0.4115513525903225,50.51138997077942 0.4115513525903225,50.51138997077942 0.7258824072778225,50.04795789718628 0.7258824072778225,50.04795789718628 1.062556728720665,49.654826521873474 1.062556728720665,49.654826521873474 1.3796125538647175,49.32054877281189 1.3796125538647175,49.32054877281189 1.634543389081955,49.03368353843689 1.634543389081955,49.03368353843689 1.785714365541935,48.7827867269516 1.785714365541935,48.7827867269516 1.85677669942379,48.511481285095215 1.85677669942379,48.511481285095215 1.909092627465725,48.15891981124878 1.909092627465725,48.15891981124878 1.948983408510685,47.71480858325958 1.948983408510685,47.71480858325958 1.982770673930645,47.16884195804596 1.982770673930645,47.16884195804596 2.016448974609375,46.5107262134552 2.016448974609375,46.5107262134552 2.05644890666008,45.73015570640564 2.05644890666008,45.73015570640564 2.108873799443245,44.81683671474457 2.108873799443245,44.81683671474457 2.17982716858387,43.76046657562256 2.17982716858387,43.76046657562256 2.30385921895504,42.68967807292938 2.30385921895504,42.68967807292938 2.49437615275383,41.74150824546814 2.49437615275383,41.74150824546814 2.725546807050705,40.922167897224426 2.725546807050705,40.922167897224426 2.97197625041008,40.2378648519516 2.97197625041008,40.2378648519516 3.208160400390625,39.69481587409973 3.208160400390625,39.69481587409973 3.408486768603325,39.29923176765442 3.408486768603325,39.29923176765442 3.54745052754879,39.05732333660126 3.54745052754879,39.05732333660126 3.59933041036129,38.97530734539032 3.59933041036129,38.97530734539032 11.97684183716774,37.79297173023224 11.97684183716774,37.79297173023224 12.05400824546814,37.744033336639404 12.05400824546814,37.744033336639404 12.31820285320282,37.57874667644501 12.31820285320282,37.57874667644501 12.8191277384758,37.26934790611267 12.8191277384758,37.26934790611267 13.6064812541008,36.78807020187378 13.6064812541008,36.78807020187378 14.7295281291008,36.107173562049866 14.7295281291008,36.107173562049866 16.23796820640564,35.1989209651947 16.23796820640564,35.1989209651947 18.18128377199173,34.03552174568176 18.18128377199173,34.03552174568176 20.60895711183548,32.58928656578064 20.60895711183548,32.58928656578064 23.45232367515564,31.092864274978638 23.45232367515564,31.092864274978638 26.56729817390442,29.791423678398132 26.56729817390442,29.791423678398132 29.89022433757782,28.687724471092224 29.89022433757782,28.687724471092224 33.35745930671692,27.78451144695282 33.35745930671692,27.78451144695282 36.90556287765503,27.084514498710632 36.90556287765503,27.084514498710632 40.47066867351532,26.590457558631897 40.47066867351532,26.590457558631897 43.989455699920654,26.305091381072998 43.989455699920654,26.305091381072998 47.39816188812256,26.23116672039032 47.39816188812256,26.23116672039032 49.983543157577515,26.510649919509888 49.983543157577515,26.510649919509888 52.68206000328064,27.231109142303467 52.68206000328064,27.231109142303467 55.413275957107544,28.290054202079773 55.413275957107544,28.290054202079773 58.09675455093384,29.58504855632782 58.09675455093384,29.58504855632782 60.65194606781006,31.01361393928528 60.65194606781006,31.01361393928528 62.99874782562256,32.47326612472534 62.99874782562256,32.47326612472534 65.05650281906128,33.861544728279114 65.05650281906128,33.861544728279114 66.74456000328064,35.07603406906128 66.74456000328064,35.07603406906128 66.87012314796448,34.92363691329956 66.87012314796448,34.92363691329956 67.00570583343506,34.7808301448822 67.00570583343506,34.7808301448822 67.15131998062134,34.64840650558472 67.15131998062134,34.64840650558472 67.30652451515198,34.52715277671814 67.30652451515198,34.52715277671814 67.47099161148071,34.417834877967834 67.47099161148071,34.417834877967834 67.64461398124695,34.321215748786926 67.64461398124695,34.321215748786926 67.82695651054382,34.23808217048645 67.82695651054382,34.23808217048645 68.01758408546448,34.16922688484192 68.01758408546448,34.16922688484192 68.05757880210876,34.15028750896454 68.05757880210876,34.15028750896454 68.1040108203888,34.12753641605377 68.1040108203888,34.12753641605377 68.15654635429382,34.101107716560364 68.15654635429382,34.101107716560364 68.21463704109192,34.07113254070282 68.21463704109192,34.07113254070282 68.2779610157013,34.03772711753845 68.2779610157013,34.03772711753845 68.34629774093628,34.000998735427856 68.34629774093628,34.000998735427856 68.41877698898315,33.961108326911926 68.41877698898315,33.961108326911926 68.49539875984192,33.91810953617096 68.49539875984192,33.91810953617096 68.68003010749817,33.81914496421814 68.68003010749817,33.81914496421814 68.88253688812256,33.70841145515442 68.88253688812256,33.70841145515442 69.10204291343689,33.58655869960785 69.10204291343689,33.58655869960785 69.33768391609192,33.45424234867096 69.33768391609192,33.45424234867096 69.58836317062378,33.31211805343628 69.58836317062378,33.31211805343628 69.85299587249756,33.1608384847641 69.85299587249756,33.1608384847641 70.13070583343506,33.00105631351471 70.13070583343506,33.00105631351471 70.42062282562256,32.83342719078064 70.42062282562256,32.83342719078064 71.03468179702759,32.476806640625 71.03468179702759,32.476806640625 71.68808579444885,32.09468424320221 71.68808579444885,32.09468424320221 72.37505316734314,31.690654158592224 72.37505316734314,31.690654158592224 73.08960556983948,31.268310546875 73.08960556983948,31.268310546875 73.82616400718689,30.83125650882721 73.82616400718689,30.83125650882721 74.57864284515381,30.38308322429657 74.57864284515381,30.38308322429657 75.34158229827881,29.927390813827515 75.34158229827881,29.927390813827515 76.10909938812256,29.4677734375 76.10909938812256,29.4677734375 77.62778401374817,28.55355441570282 77.62778401374817,28.55355441570282 79.09284830093384,27.668708562850952 79.09284830093384,27.668708562850952 80.45872449874878,26.841670274734497 80.45872449874878,26.841670274734497 81.67942762374878,26.10081434249878 81.67942762374878,26.10081434249878 82.70939588546753,25.474563241004944 82.70939588546753,25.474563241004944 83.50285291671753,24.991336464881897 83.50285291671753,24.991336464881897 84.01391506195068,24.679525196552277 84.01391506195068,24.679525196552277 84.19712781906128,24.56752359867096 84.19712781906128,24.56752359867096 84.43167805671692,24.43888634443283 84.43167805671692,24.43888634443283 84.67636704444885,24.335643649101257 84.67636704444885,24.335643649101257 84.92911458015442,24.25798773765564 84.92911458015442,24.25798773765564 85.1876437664032,24.20610785484314 85.1876437664032,24.20610785484314 85.4502022266388,24.180223047733307 85.4502022266388,24.180223047733307 85.7146143913269,24.180549383163452 85.7146143913269,24.180549383163452 85.97891926765442,24.207252264022827 85.97891926765442,24.207252264022827 86.24093532562256,24.26060438156128 86.24093532562256,24.26060438156128 86.49488687515259,24.34144765138626 86.49488687515259,24.34144765138626 86.7378294467926,24.44697916507721 86.7378294467926,24.44697916507721 86.96812391281128,24.575725197792053 86.96812391281128,24.575725197792053 87.18436360359192,24.72621500492096 87.18436360359192,24.72621500492096 87.3849093914032,24.896976351737976 87.3849093914032,24.896976351737976 87.5681221485138,25.08653998374939 87.5681221485138,25.08653998374939 87.73258924484253,25.293433666229248 87.73258924484253,25.293433666229248 87.87667751312256,25.5161851644516 87.87667751312256,25.5161851644516 95.30901908874512,38.71721625328064 95.30901908874512,38.71721625328064 95.44394612312317,38.99533450603485 95.44394612312317,38.99533450603485 95.54302096366882,39.28113877773285 95.54302096366882,39.28113877773285 95.60743570327759,39.57184553146362 95.60743570327759,39.57184553146362 95.63773274421692,39.86467719078064 95.63773274421692,39.86467719078064 95.63511610031128,40.15682935714722 95.63511610031128,40.15682935714722 95.6002414226532,40.44560194015503 95.6002414226532,40.44560194015503 95.53440809249878,40.72816073894501 95.53440809249878,40.72816073894501 95.43806314468384,41.00167453289032 95.43806314468384,41.00167453289032 95.50421833992004,41.030123829841614 95.50421833992004,41.030123829841614 95.56950330734253,41.057971119880676 95.56950330734253,41.057971119880676 95.6338107585907,41.085246205329895 95.6338107585907,41.085246205329895 95.69702744483948,41.11197590827942 95.69702744483948,41.11197590827942 95.75936794281006,41.138213872909546 95.75936794281006,41.138213872909546 95.82062363624573,41.16401970386505 95.82062363624573,41.16401970386505 95.8808958530426,41.189414262771606 95.8808958530426,41.189414262771606 95.94029188156128,41.2144273519516 95.94029188156128,41.2144273519516 96.56045436859131,41.5237158536911 96.56045436859131,41.5237158536911 96.94344997406006,41.79878532886505 96.94344997406006,41.79878532886505 97.13702201843262,42.03747510910034 97.13702201843262,42.03747510910034 97.18846082687378,42.23763644695282 97.18846082687378,42.23763644695282 97.14562892913818,42.397090792655945 97.14562892913818,42.397090792655945 97.05615043640137,42.513659596443176 97.05615043640137,42.513659596443176 96.9674289226532,42.585211992263794 96.9674289226532,42.585211992263794 96.92732095718384,42.60951578617096 96.92732095718384,42.60951578617096 96.54366970062256,48.55608344078064 96.54366970062256,48.55608344078064 99.07227158546448,49.22921657562256 99.07227158546448,49.22921657562256 99.07793998718262,49.31469261646271 99.07793998718262,49.31469261646271 99.08883571624756,49.57166612148285 99.08883571624756,49.57166612148285 99.09493923187256,50.000953674316406 99.09493923187256,50.000953674316406 99.08665418624878,50.60337781906128 99.08665418624878,50.60337781906128 99.05439615249634,51.37975215911865 99.05439615249634,51.37975215911865 98.98856282234192,52.33089327812195 98.98856282234192,52.33089327812195 98.87902736663818,53.45761775970459 98.87902736663818,53.45761775970459 98.71652126312256,54.7607421875 98.71652126312256,54.7607421875 98.73047471046448,54.77611422538757 98.73047471046448,54.77611422538757 98.7436592578888,54.79093790054321 98.7436592578888,54.79093790054321 98.75630140304565,54.80526685714722 98.75630140304565,54.80526685714722 98.76883625984192,54.81916666030884 98.76883625984192,54.81916666030884 98.78137111663818,54.83273267745972 98.78137111663818,54.83273267745972 98.79390597343445,54.846084117889404 98.79390597343445,54.846084117889404 98.80720376968384,54.8592746257782 98.80720376968384,54.8592746257782 98.82115125656128,54.87235188484192 98.82115125656128,54.87235188484192 98.92774820327759,54.96227145195007 98.92774820327759,54.96227145195007 99.0385890007019,55.04630208015442 99.0385890007019,55.04630208015442 99.15379285812378,55.124449729919434 99.15379285812378,55.124449729919434 99.27368760108948,55.19670844078064 99.27368760108948,55.19670844078064 99.39848184585571,55.263084173202515 99.39848184585571,55.263084173202515 99.52850937843323,55.32357692718506 99.52850937843323,55.32357692718506 99.66365694999695,55.378180742263794 99.66365694999695,55.378180742263794" stroke="white" stroke-width="0.1" /><polygon points="31.29534125328064,37.37444281578064 31.29534125328064,37.37444281578064 31.73762857913971,36.96807026863098 31.73762857913971,36.96807026863098 31.873321533203125,36.28147840499878 31.873321533203125,36.28147840499878 31.77141547203064,35.40720343589783 31.77141547203064,35.40720343589783 31.50111734867096,34.43778157234192 31.50111734867096,34.43778157234192 31.131309270858765,33.46574008464813 31.131309270858765,33.46574008464813 30.731311440467834,32.5836181640625 30.731311440467834,32.5836181640625 30.37000596523285,31.883949041366577 30.37000596523285,31.883949041366577 30.11649250984192,31.45926594734192 30.11649250984192,31.45926594734192 29.61970865726471,31.351718306541443 29.61970865726471,31.351718306541443 28.593555092811584,31.519699096679688 28.593555092811584,31.519699096679688 27.20816731452942,31.926128268241882 27.20816731452942,31.926128268241882 25.63389539718628,32.53391981124878 25.63389539718628,32.53391981124878 24.040986597537994,33.30601453781128 24.040986597537994,33.30601453781128 22.599685192108154,34.20535624027252 22.599685192108154,34.20535624027252 21.48023396730423,35.1948618888855 21.48023396730423,35.1948618888855 20.85309773683548,36.23744547367096 20.85309773683548,36.23744547367096 20.985957980155945,37.1250182390213 20.985957980155945,37.1250182390213 21.88829779624939,37.69765794277191 21.88829779624939,37.69765794277191 23.34289699792862,38.00634741783142 23.34289699792862,38.00634741783142 25.13253390789032,38.10206949710846 25.13253390789032,38.10206949710846 27.03988254070282,38.03577721118927 27.03988254070282,38.03577721118927 28.84761393070221,37.858420610427856 28.84761393070221,37.858420610427856 30.338507890701294,37.621009349823 30.338507890701294,37.621009349823" stroke="white" stroke-width="0.1" /><polygon points="56.3546359539032,37.9185289144516 56.3546359539032,37.9185289144516 56.34657144546509,37.77831196784973 56.34657144546509,37.77831196784973 56.331855058670044,37.40817606449127 56.331855058670044,37.40817606449127 56.32476806640625,36.88395619392395 56.32476806640625,36.88395619392395 56.33981227874756,36.28147840499878 56.33981227874756,36.28147840499878 56.39103651046753,35.6765478849411 56.39103651046753,35.6765478849411 56.49305582046509,35.14496982097626 56.49305582046509,35.14496982097626 56.65959119796753,34.76257622241974 56.65959119796753,34.76257622241974 56.90569281578064,34.60519015789032 56.90569281578064,34.60519015789032 57.159316539764404,34.56573784351349 57.159316539764404,34.56573784351349 57.35277533531189,34.49429273605347 57.35277533531189,34.49429273605347 57.49403238296509,34.402331709861755 57.49403238296509,34.402331709861755 57.59146809577942,34.30132269859314 57.59146809577942,34.30132269859314 57.65293836593628,34.20276939868927 57.65293836593628,34.20276939868927 57.68694281578064,34.11816358566284 57.68694281578064,34.11816358566284 57.70133137702942,34.058982133865356 57.70133137702942,34.058982133865356 57.70438313484192,34.0366929769516 57.70438313484192,34.0366929769516 57.65599012374878,33.94887149333954 57.65599012374878,33.94887149333954 57.499152421951294,33.706286549568176 57.499152421951294,33.706286549568176 57.21697211265564,33.34018290042877 57.21697211265564,33.34018290042877 56.79234266281128,32.88182020187378 56.79234266281128,32.88182020187378 56.2081515789032,32.362475991249084 56.2081515789032,32.362475991249084 55.447280406951904,31.813430786132812 55.447280406951904,31.813430786132812 54.492735862731934,31.265941262245178 54.492735862731934,31.265941262245178 53.3272922039032,30.75125813484192 53.3272922039032,30.75125813484192 52.10680365562439,30.28138279914856 52.10680365562439,30.28138279914856 50.95803737640381,29.863739013671875 50.95803737640381,29.863739013671875 49.81776773929596,29.51100468635559 49.81776773929596,29.51100468635559 48.62191677093506,29.23583984375 48.62191677093506,29.23583984375 47.306933999061584,29.050922393798828 47.306933999061584,29.050922393798828 45.80906629562378,28.968921303749084 45.80906629562378,28.968921303749084 44.06455159187317,29.00250554084778 44.06455159187317,29.00250554084778 42.00962781906128,29.16434407234192 42.00962781906128,29.16434407234192 39.997974038124084,29.42028045654297 39.997974038124084,29.42028045654297 38.40462863445282,29.746955633163452 38.40462863445282,29.746955633163452 37.202563881874084,30.169352889060974 37.202563881874084,30.169352889060974 36.36431097984314,30.71245551109314 36.36431097984314,30.71245551109314 35.86273491382599,31.401225924491882 35.86273491382599,31.401225924491882 35.670363903045654,32.2606235742569 35.670363903045654,32.2606235742569 35.760173201560974,33.31563174724579 35.760173201560974,33.31563174724579 36.10491156578064,34.59123969078064 36.10491156578064,34.59123969078064 36.527472734451294,35.820773243904114 36.527472734451294,35.820773243904114 36.869052052497864,36.76000535488129 36.869052052497864,36.76000535488129 37.1372789144516,37.44787573814392 37.1372789144516,37.44787573814392 37.33956515789032,37.92332410812378 37.33956515789032,37.92332410812378 37.48365342617035,38.225311040878296 37.48365342617035,38.225311040878296 37.57716715335846,38.39280307292938 37.57716715335846,38.39280307292938 37.62795627117157,38.4647399187088 37.62795627117157,38.4647399187088 37.64299750328064,38.4800523519516 37.64299750328064,38.4800523519516 37.983378767967224,38.48337531089783 37.983378767967224,38.48337531089783 38.97705376148224,38.486483693122864 38.97705376148224,38.486483693122864 40.58293104171753,38.47896158695221 40.58293104171753,38.47896158695221 42.75992512702942,38.45040500164032 42.75992512702942,38.45040500164032 45.466724038124084,38.39046061038971 45.466724038124084,38.39046061038971 48.66224229335785,38.288772106170654 48.66224229335785,38.288772106170654 52.30528116226196,38.13492953777313 52.30528116226196,38.13492953777313" stroke="white" stroke-width="0.1" /><polygon points="82.86482095718384,37.88016438484192 82.86482095718384,37.88016438484192 83.84225368499756,38.017112016677856 83.84225368499756,38.017112016677856 84.77205634117126,38.158199191093445 84.77205634117126,38.158199191093445 85.65586805343628,38.3030503988266 85.65586805343628,38.3030503988266 86.49554252624512,38.45127820968628 86.49554252624512,38.45127820968628 87.29270100593567,38.602450489997864 87.29270100593567,38.602450489997864 88.04899454116821,38.756126165390015 88.04899454116821,38.756126165390015 88.76626491546631,38.91192972660065 88.76626491546631,38.91192972660065 89.44615125656128,39.06947672367096 89.44615125656128,39.06947672367096 84.61565375328064,30.4966539144516 84.61565375328064,30.4966539144516 83.48672389984131,31.182903051376343 83.48672389984131,31.182903051376343 82.21849799156189,31.951797008514404 82.21849799156189,31.951797008514404 80.84891438484192,32.7793687582016 80.84891438484192,32.7793687582016 79.4167697429657,33.64170789718628 79.4167697429657,33.64170789718628 77.96021103858948,34.514838457107544 77.96021103858948,34.514838457107544 76.5175998210907,35.374778509140015 76.5175998210907,35.374778509140015 75.12741684913635,36.19760870933533 75.12741684913635,36.19760870933533 73.82813096046448,36.95940375328064 73.82813096046448,36.95940375328064 74.78245496749878,37.03242838382721 74.78245496749878,37.03242838382721 75.79782009124756,37.116023898124695 75.79782009124756,37.116023898124695 76.8685519695282,37.21090257167816 76.8685519695282,37.21090257167816 77.98941731452942,37.31776773929596 77.98941731452942,37.31776773929596 79.15497422218323,37.43738532066345 79.15497422218323,37.43738532066345 80.35954236984253,37.570518255233765 80.35954236984253,37.570518255233765 81.59812092781067,37.717875838279724 81.59812092781067,37.717875838279724" stroke="white" stroke-width="0.1" /><polygon points="78.21568250656128,0.0 78.21568250656128,0.0 78.93709540367126,0.07279260316863656 78.93709540367126,0.07279260316863656 79.60859537124634,0.28152468148618937 79.60859537124634,0.28152468148618937 80.21610975265503,0.6117275916039944 80.21610975265503,0.6117275916039944 80.74515461921692,1.048932783305645 80.74515461921692,1.048932783305645 81.18166327476501,1.5786852687597275 81.18166327476501,1.5786852687597275 81.51158094406128,2.18647550791502 81.51158094406128,2.18647550791502 81.72041177749634,2.857862412929535 81.72041177749634,2.857862412929535 81.7940890789032,3.57840433716774 81.7940890789032,3.57840433716774 81.7940890789032,17.29213297367096 81.7940890789032,17.29213297367096 81.78514838218689,17.297254502773285 81.78514838218689,17.297254502773285 81.77654147148132,17.302323877811432 81.77654147148132,17.302323877811432 81.76771402359009,17.30763614177704 81.76771402359009,17.30763614177704 81.75833821296692,17.31349527835846 81.75833821296692,17.31349527835846 81.74787759780884,17.320170998573303 81.74787759780884,17.320170998573303 81.73632025718689,17.327935993671417 81.73632025718689,17.327935993671417 81.72258734703064,17.337118089199066 81.72258734703064,17.337118089199066 81.70689344406128,17.3479363322258 81.70689344406128,17.3479363322258 81.54885768890381,17.443794012069702 81.54885768890381,17.443794012069702 81.34874701499939,17.565427720546722 81.34874701499939,17.565427720546722 81.10896944999695,17.711177468299866 81.10896944999695,17.711177468299866 80.83235025405884,17.87937730550766 80.83235025405884,17.87937730550766 80.52128553390503,18.06834191083908 80.52128553390503,18.06834191083908 80.17861843109131,18.276378512382507 80.17861843109131,18.276378512382507 79.80673909187317,18.501827120780945 79.80673909187317,18.501827120780945 79.40848469734192,18.74302476644516 79.40848469734192,18.74302476644516 79.40848469734192,3.57840433716774 79.40848469734192,3.57840433716774 79.38341498374939,3.3378876745700836 79.38341498374939,3.3378876745700836 79.31388020515442,3.1139375641942024 79.31388020515442,3.1139375641942024 79.20423746109009,2.9113225638866425 79.20423746109009,2.9113225638866425 79.05927896499634,2.734811045229435 79.05927896499634,2.734811045229435 78.88336777687073,2.58919857442379 78.88336777687073,2.58919857442379 78.68107557296753,2.4792809039354324 78.68107557296753,2.4792809039354324 78.45720648765564,2.4098260328173637 78.45720648765564,2.4098260328173637 78.21568250656128,2.385602705180645 78.21568250656128,2.385602705180645 69.47893500328064,2.385602705180645 69.47893500328064,2.385602705180645 69.23850178718567,2.4098260328173637 69.23850178718567,2.4098260328173637 69.01441812515259,2.4792809039354324 69.01441812515259,2.4792809039354324 68.81169080734253,2.58919857442379 68.81169080734253,2.58919857442379 68.6349093914032,2.734811045229435 68.6349093914032,2.734811045229435 68.48886013031006,2.9113225638866425 68.48886013031006,2.9113225638866425 68.37823390960693,3.1139375641942024 68.37823390960693,3.1139375641942024 68.30804347991943,3.3378876745700836 68.30804347991943,3.3378876745700836 68.28264594078064,3.57840433716774 68.28264594078064,3.57840433716774 68.28264594078064,25.39760172367096 68.28264594078064,25.39760172367096 68.28003525733948,25.400054454803467 68.28003525733948,25.400054454803467 68.27741861343384,25.402233004570007 68.27741861343384,25.402233004570007 68.27501654624939,25.40416717529297 68.27501654624939,25.40416717529297 68.27262043952942,25.4058837890625 68.27262043952942,25.4058837890625 68.27043890953064,25.407439470291138 68.27043890953064,25.407439470291138 68.26847791671753,25.408881902694702 68.26847791671753,25.408881902694702 68.26662421226501,25.41024386882782 68.26662421226501,25.41024386882782 68.26521158218384,25.41155219078064 68.26521158218384,25.41155219078064 68.25125813484192,25.4185289144516 68.25125813484192,25.4185289144516 68.19011569023132,25.452670454978943 68.19011569023132,25.452670454978943 68.12962293624878,25.487029552459717 68.12962293624878,25.487029552459717 68.06957125663757,25.521469116210938 68.06957125663757,25.521469116210938 68.01016926765442,25.5558580160141 68.01016926765442,25.5558580160141 67.9512083530426,25.59008002281189 67.9512083530426,25.59008002281189 67.89278388023376,25.624030828475952 67.89278388023376,25.624030828475952 67.83469319343567,25.657573342323303 67.83469319343567,25.657573342323303 67.77693033218384,25.69057047367096 67.77693033218384,25.69057047367096 67.55382418632507,25.54330825805664 67.55382418632507,25.54330825805664 67.32679605484009,25.394660234451294 67.32679605484009,25.394660234451294 67.09616780281067,25.244876742362976 67.09616780281067,25.244876742362976 66.86227321624756,25.09416937828064 66.86227321624756,25.09416937828064 66.62532687187195,24.942807853221893 66.62532687187195,24.942807853221893 66.3858711719513,24.791064858436584 66.3858711719513,24.791064858436584 66.14423990249634,24.639157950878143 66.14423990249634,24.639157950878143 65.9005343914032,24.48730617761612 65.9005343914032,24.48730617761612 65.9005343914032,3.57840433716774 65.9005343914032,3.57840433716774 65.97301363945007,2.8578760102391243 65.97301363945007,2.8578760102391243 66.18107557296753,2.18647550791502 66.18107557296753,2.18647550791502 66.51045083999634,1.578671671450138 66.51045083999634,1.578671671450138 66.94685220718384,1.048932783305645 66.94685220718384,1.048932783305645 67.47611165046692,0.611713994294405 67.47611165046692,0.611713994294405 68.08406710624695,0.28152468148618937 68.08406710624695,0.28152468148618937 68.75654458999634,0.07280622376129031 68.75654458999634,0.07280622376129031 69.47893500328064,0.0 69.47893500328064,0.0" stroke="white" stroke-width="0.1" /><polygon points="15.9912109375,32.21958875656128 15.9912109375,32.21958875656128 15.9912109375,32.21610188484192 15.9912109375,32.21610188484192 15.9912109375,32.2265625 15.9912109375,32.2265625" stroke="white" stroke-width="0.1" /><polygon points="59.54241156578064,0.0 59.54241156578064,0.0 60.263824462890625,0.07279260316863656 60.263824462890625,0.07279260316863656 60.9353244304657,0.28152468148618937 60.9353244304657,0.28152468148618937 61.542731523513794,0.6117275916039944 61.542731523513794,0.6117275916039944 62.07188367843628,1.048932783305645 62.07188367843628,1.048932783305645 62.50850558280945,1.5786852687597275 62.50850558280945,1.5786852687597275 62.83831000328064,2.18647550791502 62.83831000328064,2.18647550791502 63.047248125076294,2.857862412929535 63.047248125076294,2.857862412929535 63.12081813812256,3.57840433716774 63.12081813812256,3.57840433716774 63.12081813812256,22.83412516117096 63.12081813812256,22.83412516117096 62.941527366638184,22.734588384628296 62.941527366638184,22.734588384628296 62.761688232421875,22.634834051132202 62.761688232421875,22.634834051132202 62.581419944763184,22.534997761249542 62.581419944763184,22.534997761249542 62.40060329437256,22.4352166056633 62.40060329437256,22.4352166056633 62.21923828125,22.33559787273407 62.21923828125,22.33559787273407 62.03678846359253,22.236253321170807 62.03678846359253,22.236253321170807 61.8539035320282,22.137315571308136 61.8539035320282,22.137315571308136 61.669921875,22.03892469406128 61.669921875,22.03892469406128 61.554503440856934,21.980232000350952 61.554503440856934,21.980232000350952 61.438536643981934,21.921813488006592 61.438536643981934,21.921813488006592 61.322021484375,21.86363935470581 61.322021484375,21.86363935470581 61.20518445968628,21.80568277835846 61.20518445968628,21.80568277835846 61.088019609451294,21.74789011478424 61.088019609451294,21.74789011478424 60.97063422203064,21.690206229686737 60.97063422203064,21.690206229686737 60.8529269695282,21.6326043009758 60.8529269695282,21.6326043009758 60.73521375656128,21.57505750656128 60.73521375656128,21.57505750656128 60.73521375656128,3.57840433716774 60.73521375656128,3.57840433716774 60.71102023124695,3.3378876745700836 60.71102023124695,3.3378876745700836 60.6414794921875,3.1139375641942024 60.6414794921875,3.1139375641942024 60.5316162109375,2.9113225638866425 60.5316162109375,2.9113225638866425 60.3860080242157,2.734811045229435 60.3860080242157,2.734811045229435 60.209548473358154,2.58919857442379 60.209548473358154,2.58919857442379 60.00693440437317,2.4792809039354324 60.00693440437317,2.4792809039354324 59.782958030700684,2.4098260328173637 59.782958030700684,2.4098260328173637 59.54241156578064,2.385602705180645 59.54241156578064,2.385602705180645 50.80217719078064,2.385602705180645 50.80217719078064,2.385602705180645 50.561851263046265,2.4098260328173637 50.561851263046265,2.4098260328173637 50.338202714920044,2.4792809039354324 50.338202714920044,2.4792809039354324 50.13602375984192,2.58919857442379 50.13602375984192,2.58919857442379 49.95989203453064,2.734811045229435 49.95989203453064,2.734811045229435 49.81449842453003,2.9113225638866425 49.81449842453003,2.9113225638866425 49.7044175863266,3.1139375641942024 49.7044175863266,3.1139375641942024 49.63466227054596,3.3378876745700836 49.63466227054596,3.3378876745700836 49.60937798023224,3.57840433716774 49.60937798023224,3.57840433716774 49.60937798023224,18.09430867433548 49.60937798023224,18.09430867433548 49.44349229335785,18.08098405599594 49.44349229335785,18.08098405599594 49.27760660648346,18.067552149295807 49.27760660648346,18.067552149295807 49.111613631248474,18.054527044296265 49.111613631248474,18.054527044296265 48.94540309906006,18.04242879152298 48.94540309906006,18.04242879152298 48.77864420413971,18.031802773475647 48.77864420413971,18.031802773475647 48.61123561859131,18.023191392421722 48.61123561859131,18.023191392421722 48.443061113357544,18.01711618900299 48.443061113357544,18.01711618900299 48.27357828617096,18.01409125328064 48.27357828617096,18.01409125328064 47.7085679769516,18.01409125328064 47.7085679769516,18.01409125328064 47.648295760154724,18.014390766620636 47.648295760154724,18.014390766620636 47.58780598640442,18.01518052816391 47.58780598640442,18.01518052816391 47.52720594406128,18.01629811525345 47.52720594406128,18.01629811525345 47.46660590171814,18.01757961511612 47.46660590171814,18.01757961511612 47.40622639656067,18.01885962486267 47.40622639656067,18.01885962486267 47.34606146812439,18.01997721195221 47.34606146812439,18.01997721195221 47.28633463382721,18.020766973495483 47.28633463382721,18.020766973495483 47.22726345062256,18.02106648683548 47.22726345062256,18.02106648683548 47.22726345062256,3.57840433716774 47.22726345062256,3.57840433716774 47.29984998703003,2.8578760102391243 47.29984998703003,2.8578760102391243 47.50824272632599,2.18647550791502 47.50824272632599,2.18647550791502 47.83783257007599,1.578671671450138 47.83783257007599,1.578671671450138 48.27445149421692,1.048932783305645 48.27445149421692,1.048932783305645 48.803603649139404,0.611713994294405 48.803603649139404,0.611713994294405 49.41079616546631,0.28152468148618937 49.41079616546631,0.28152468148618937 50.08174777030945,0.07280622376129031 50.08174777030945,0.07280622376129031 50.80217719078064,0.0 50.80217719078064,0.0" stroke="white" stroke-width="0.1" /><polygon points="22.19238430261612,0.0 22.19238430261612,0.0 22.91390597820282,0.07279260316863656 22.91390597820282,0.07279260316863656 23.5857293009758,0.28152468148618937 23.5857293009758,0.28152468148618937 24.193574488162994,0.6117275916039944 24.193574488162994,0.6117275916039944 24.72316324710846,1.048932783305645 24.72316324710846,1.048932783305645 25.15999972820282,1.5786852687597275 25.15999972820282,1.5786852687597275 25.48980712890625,2.18647550791502 25.48980712890625,2.18647550791502 25.698089599609375,2.857862412929535 25.698089599609375,2.857862412929535 25.77078938484192,3.57840433716774 25.77078938484192,3.57840433716774 25.77078938484192,21.79478406906128 25.77078938484192,21.79478406906128 24.80272650718689,22.156226634979248 24.80272650718689,22.156226634979248 23.845674097537994,22.534780204296112 23.845674097537994,22.534780204296112 22.900500893592834,22.931236028671265 22.900500893592834,22.931236028671265 21.9682976603508,23.34638386964798 21.9682976603508,23.34638386964798 21.05015367269516,23.780973255634308 21.05015367269516,23.780973255634308 20.147161185741425,24.235808849334717 20.147161185741425,24.235808849334717 19.26029771566391,24.711650609970093 19.26029771566391,24.711650609970093 18.39076578617096,25.20926594734192 18.39076578617096,25.20926594734192 16.88733845949173,26.10158920288086 16.88733845949173,26.10158920288086 15.56113213300705,26.891326904296875 15.56113213300705,26.891326904296875 14.401355385780334,27.58443057537079 14.401355385780334,27.58443057537079 13.397216796875,28.18690836429596 13.397216796875,28.18690836429596 12.537820637226105,28.704699873924255 12.537820637226105,28.704699873924255 11.81270107626915,29.143744707107544 11.81270107626915,29.143744707107544 11.210741847753525,29.51003611087799 11.210741847753525,29.51003611087799 10.72126179933548,29.8095703125 10.72126179933548,29.8095703125 9.87723246216774,29.92815375328064 9.87723246216774,29.92815375328064 9.87723246216774,3.57840433716774 9.87723246216774,3.57840433716774 9.949711710214615,2.8578760102391243 9.949711710214615,2.8578760102391243 10.15777662396431,2.18647550791502 10.15777662396431,2.18647550791502 10.48692986369133,1.578671671450138 10.48692986369133,1.578671671450138 10.9231136739254,1.048932783305645 10.9231136739254,1.048932783305645 11.45193949341774,0.611713994294405 11.45193949341774,0.611713994294405 12.05923929810524,0.28152468148618937 12.05923929810524,0.28152468148618937 12.73084431886673,0.07280622376129031 12.73084431886673,0.07280622376129031 13.4521484375,0.0 13.4521484375,0.0" stroke="white" stroke-width="0.1" /><polygon points="40.86914360523224,0.0 40.86914360523224,0.0 41.58935844898224,0.07279260316863656 41.58935844898224,0.07279260316863656 42.26008951663971,0.28152468148618937 42.26008951663971,0.28152468148618937 42.866843938827515,0.6117275916039944 42.866843938827515,0.6117275916039944 43.39556097984314,1.048932783305645 43.39556097984314,1.048932783305645 43.831855058670044,1.5786852687597275 43.831855058670044,1.5786852687597275 44.16155219078064,2.18647550791502 44.16155219078064,2.18647550791502 44.370490312576294,2.857862412929535 44.370490312576294,2.857862412929535 44.44406032562256,3.57840433716774 44.44406032562256,3.57840433716774 44.44406032562256,18.10825914144516 44.44406032562256,18.10825914144516 44.148147106170654,18.1253582239151 44.148147106170654,18.1253582239151 43.85158121585846,18.144990503787994 43.85158121585846,18.144990503787994 43.554580211639404,18.16674768924713 43.554580211639404,18.16674768924713 43.25692653656006,18.1902214884758 43.25692653656006,18.1902214884758 42.958834767341614,18.215017020702362 42.958834767341614,18.215017020702362 42.66030490398407,18.240684270858765 42.66030490398407,18.240684270858765 42.36123263835907,18.266841769218445 42.36123263835907,18.266841769218445 42.06194281578064,18.29310953617096 42.06194281578064,18.29310953617096 42.06194281578064,3.57840433716774 42.06194281578064,3.57840433716774 42.03556776046753,3.3378876745700836 42.03556776046753,3.3378876745700836 41.964831948280334,3.1139375641942024 41.964831948280334,3.1139375641942024 41.854315996170044,2.9113225638866425 41.854315996170044,2.9113225638866425 41.7088121175766,2.734811045229435 41.7088121175766,2.734811045229435 41.532790660858154,2.58919857442379 41.532790660858154,2.58919857442379 41.33104681968689,2.4792809039354324 41.33104681968689,2.4792809039354324 41.10826849937439,2.4098260328173637 41.10826849937439,2.4098260328173637 40.86914360523224,2.385602705180645 40.86914360523224,2.385602705180645 32.12541937828064,2.385602705180645 32.12541937828064,2.385602705180645 31.88607394695282,2.4098260328173637 31.88607394695282,2.4098260328173637 31.66286051273346,2.4792809039354324 31.66286051273346,2.4792809039354324 31.46079182624817,2.58919857442379 31.46079182624817,2.58919857442379 31.28444254398346,2.734811045229435 31.28444254398346,2.734811045229435 31.138721108436584,2.9113225638866425 31.138721108436584,2.9113225638866425 31.02831244468689,3.1139375641942024 31.02831244468689,3.1139375641942024 30.95790445804596,3.3378876745700836 30.95790445804596,3.3378876745700836 30.9326171875,3.57840433716774 30.9326171875,3.57840433716774 30.9326171875,20.21484524011612 30.9326171875,20.21484524011612 30.63420057296753,20.292936265468597 30.63420057296753,20.292936265468597 30.33534586429596,20.370647311210632 30.33534586429596,20.370647311210632 30.03627359867096,20.448604226112366 30.03627359867096,20.448604226112366 29.73763644695282,20.52743136882782 29.73763644695282,20.52743136882782 29.43943738937378,20.607730746269226 29.43943738937378,20.607730746269226 29.141998291015625,20.690101385116577 29.141998291015625,20.690101385116577 28.845542669296265,20.775169134140015 28.845542669296265,20.775169134140015 28.55050265789032,20.8635613322258 28.55050265789032,20.8635613322258 28.55050265789032,3.57840433716774 28.55050265789032,3.57840433716774 28.62309217453003,2.8578760102391243 28.62309217453003,2.8578760102391243 28.83148193359375,2.18647550791502 28.83148193359375,2.18647550791502 29.16107177734375,1.578671671450138 29.16107177734375,1.578671671450138 29.59769368171692,1.048932783305645 29.59769368171692,1.048932783305645 30.12673556804657,0.611713994294405 30.12673556804657,0.611713994294405 30.73403537273407,0.28152468148618937 30.73403537273407,0.28152468148618937 31.40498697757721,0.07280622376129031 31.40498697757721,0.07280622376129031 32.12541937828064,0.0 32.12541937828064,0.0" stroke="white" stroke-width="0.1" /></svg>