<?xml version="1.0" encoding="utf-8" ?>
<svg baseProfile="full" height="62.203967571258545" version="1.1" width="100.0" xmlns="http://www.w3.org/2000/svg" xmlns:ev="http://www.w3.org/2001/xml-events" xmlns:xlink="http://www.w3.org/1999/xlink"><defs><clipPath /></defs><polygon points="48.71821701526642,35.9282910823822 48.71821701526642,35.9282910823822 46.0094690322876,36.62155270576477 46.0094690322876,36.62155270576477 43.509721755981445,37.75951862335205 43.509721755981445,37.75951862335205 41.26594662666321,39.29683864116669 41.26594662666321,39.29683864116669 39.325013756752014,41.18817746639252 39.325013756752014,41.18817746639252 37.73379623889923,43.3883011341095 37.73379623889923,43.3883011341095 36.53915226459503,45.85186243057251 36.53915226459503,45.85186243057251 35.78801453113556,48.53368699550629 35.78801453113556,48.53368699550629 35.52718758583069,51.38816237449646 35.52718758583069,51.38816237449646 35.53928732872009,51.93341374397278 35.53928732872009,51.93341374397278 35.57449281215668,52.47195363044739 35.57449281215668,52.47195363044739 35.63095033168793,53.00423502922058 35.63095033168793,53.00423502922058 35.706812143325806,53.53057384490967 35.706812143325806,53.53057384490967 35.800328850746155,54.05140519142151 35.800328850746155,54.05140519142151 35.90975999832153,54.566895961761475 35.90975999832153,54.566895961761475 36.03319823741913,55.077701807022095 36.03319823741913,55.077701807022095 36.16895079612732,55.58403730392456 36.16895079612732,55.58403730392456 29.16187047958374,55.58403730392456 29.16187047958374,55.58403730392456 29.29762303829193,55.077701807022095 29.29762303829193,55.077701807022095 29.421061277389526,54.56694960594177 29.421061277389526,54.56694960594177 29.530438780784607,54.05135154724121 29.530438780784607,54.05135154724121 29.624009132385254,53.53057384490967 29.624009132385254,53.53057384490967 29.69992458820343,53.00418138504028 29.69992458820343,53.00418138504028 29.75633144378662,52.47201323509216 29.75633144378662,52.47201323509216 29.791536927223206,51.93341374397278 29.791536927223206,51.93341374397278 29.80363368988037,51.38816237449646 29.80363368988037,51.38816237449646 29.484006762504578,48.22545051574707 29.484006762504578,48.22545051574707 28.567412495613098,45.27745842933655 28.567412495613098,45.27745842933655 27.117502689361572,42.6080584526062 27.117502689361572,42.6080584526062 25.197935104370117,40.2811199426651 25.197935104370117,40.2811199426651 22.872251272201538,38.36019039154053 22.872251272201538,38.36019039154053 20.20399570465088,36.90924644470215 20.20399570465088,36.90924644470215 17.2568216919899,35.99194288253784 17.2568216919899,35.99194288253784 14.094381034374237,35.671934485435486 14.094381034374237,35.671934485435486 12.114810943603516,35.7962965965271 12.114810943603516,35.7962965965271 10.209303349256516,36.159032583236694 10.209303349256516,36.159032583236694 8.392626792192459,36.7451012134552 8.392626792192459,36.7451012134552 6.679658591747284,37.53902018070221 6.679658591747284,37.53902018070221 5.085223168134689,38.52559030056 5.085223168134689,38.52559030056 3.6241434514522552,39.68960344791412 3.6241434514522552,39.68960344791412 2.3112421855330467,41.01591110229492 2.3112421855330467,41.01591110229492 1.1614523828029633,42.48892664909363 1.1614523828029633,42.48892664909363 0.0,3.2855499535799026 0.0,3.2855499535799026 0.048012365004979074,2.625148184597492 0.048012365004979074,2.625148184597492 0.22251361515372992,2.009216696023941 0.22251361515372992,2.009216696023941 0.5104242824018002,1.451270468533039 0.5104242824018002,1.451270468533039 0.8985560387372971,0.9646071121096611 0.8985560387372971,0.9646071121096611 1.3738294132053852,0.5627964623272419 1.3738294132053852,0.5627964623272419 1.9231649115681648,0.25902697816491127 1.9231649115681648,0.25902697816491127 2.5333743542432785,0.06703201797790825 2.5333743542432785,0.06703201797790825 3.191377967596054,0.0 3.191377967596054,0.0 45.432665944099426,0.0 45.432665944099426,0.0 46.092578768730164,0.06714101182296872 46.092578768730164,0.06714101182296872 46.70823812484741,0.2595174591988325 46.70823812484741,0.2595174591988325 47.26618528366089,0.5636139307171106 47.26618528366089,0.5636139307171106 47.75295555591583,0.9659150615334511 47.75295555591583,0.9659150615334511 48.1549859046936,1.452796347439289 48.1549859046936,1.452796347439289 48.45891892910004,2.010742574930191 48.45891892910004,2.010742574930191 48.651185631752014,2.6261836290359497 48.651185631752014,2.6261836290359497 48.71821701526642,3.2855499535799026 48.71821701526642,3.2855499535799026" stroke="white" stroke-width="0.1" /><polygon points="13.665376603603363,29.991978406906128 13.665376603603363,29.991978406906128 35.851556062698364,29.991978406906128 35.851556062698364,29.991978406906128 36.458006501197815,29.93595600128174 36.458006501197815,29.93595600128174 36.96238100528717,29.77551519870758 36.96238100528717,29.77551519870758 37.35808730125427,29.521936178207397 37.35808730125427,29.521936178207397 37.6386433839798,29.18650507926941 37.6386433839798,29.18650507926941 37.797337770462036,28.78049612045288 37.797337770462036,28.78049612045288 37.82769441604614,28.315305709838867 37.82769441604614,28.315305709838867 37.723058462142944,27.802100777626038 37.723058462142944,27.802100777626038 37.47689425945282,27.252274751663208 37.47689425945282,27.252274751663208 26.31230056285858,7.5965262949466705 26.31230056285858,7.5965262949466705 25.96951127052307,7.101579010486603 25.96951127052307,7.101579010486603 25.587865710258484,6.747999042272568 25.587865710258484,6.747999042272568 25.180277228355408,6.535840034484863 25.180277228355408,6.535840034484863 24.759775400161743,6.465156376361847 24.759775400161743,6.465156376361847 24.338999390602112,6.535840034484863 24.338999390602112,6.535840034484863 23.931029438972473,6.74794465303421 23.931029438972473,6.74794465303421 23.548565804958344,7.101579010486603 23.548565804958344,7.101579010486603 23.204632103443146,7.5965262949466705 23.204632103443146,7.5965262949466705 12.047015875577927,27.252274751663208 12.047015875577927,27.252274751663208 11.79981529712677,27.802100777626038 11.79981529712677,27.802100777626038 11.694634705781937,28.315305709838867 11.694634705781937,28.315305709838867 11.724608391523361,28.78049612045288 11.724608391523361,28.78049612045288 11.883087456226349,29.18650507926941 11.883087456226349,29.18650507926941 12.163204699754715,29.521936178207397 12.163204699754715,29.521936178207397 12.558095157146454,29.77551519870758 12.558095157146454,29.77551519870758 13.061107695102692,29.936009645462036 13.061107695102692,29.936009645462036" stroke="white" stroke-width="0.1" /><polygon points="14.094381034374237,62.203967571258545 14.094381034374237,62.203967571258545 11.916276812553406,61.98379993438721 11.916276812553406,61.98379993438721 9.886787086725235,61.35249733924866 9.886787086725235,61.35249733924866 8.049673587083817,60.35394072532654 8.049673587083817,60.35394072532654 6.448589265346527,59.03199315071106 6.448589265346527,59.03199315071106 5.127241089940071,57.43052959442139 5.127241089940071,57.43052959442139 4.129336029291153,55.593520402908325 4.129336029291153,55.593520402908325 3.4985262900590897,53.56479287147522 3.4985262900590897,53.56479287147522 3.2785743474960327,51.38816237449646 3.2785743474960327,51.38816237449646 3.4985262900590897,49.21261966228485 3.4985262900590897,49.21261966228485 4.129336029291153,47.184547781944275 4.129336029291153,47.184547781944275 5.127241089940071,45.34781575202942 5.127241089940071,45.34781575202942 6.448589265346527,43.74651312828064 6.448589265346527,43.74651312828064 8.049673587083817,42.42445528507233 8.049673587083817,42.42445528507233 9.886787086725235,41.42578840255737 9.886787086725235,41.42578840255737 11.916276812553406,40.79437851905823 11.916276812553406,40.79437851905823 14.094381034374237,40.574100613594055 14.094381034374237,40.574100613594055 16.269052028656006,40.79437851905823 16.269052028656006,40.79437851905823 18.295925855636597,41.42578840255737 18.295925855636597,41.42578840255737 20.13118714094162,42.424508929252625 20.13118714094162,42.424508929252625 21.731017529964447,43.74651312828064 21.731017529964447,43.74651312828064 23.051603138446808,45.34775912761688 23.051603138446808,45.34775912761688 24.049127101898193,47.184547781944275 24.049127101898193,47.184547781944275 24.679772555828094,49.21261966228485 24.679772555828094,49.21261966228485 24.89972412586212,51.38816237449646 24.89972412586212,51.38816237449646 24.679772555828094,53.56473922729492 24.679772555828094,53.56473922729492 24.049127101898193,55.5936336517334 24.049127101898193,55.5936336517334 23.051603138446808,57.430583238601685 23.051603138446808,57.430583238601685 21.731017529964447,59.03199315071106 21.731017529964447,59.03199315071106 20.13118714094162,60.35388708114624 20.13118714094162,60.35388708114624 18.295925855636597,61.35249733924866 18.295925855636597,61.35249733924866 16.269052028656006,61.98379993438721 16.269052028656006,61.98379993438721" stroke="white" stroke-width="0.1" /><polygon points="62.055736780166626,51.38816237449646 62.055736780166626,51.38816237449646 61.83578372001648,53.56473922729492 61.83578372001648,53.56473922729492 61.204975843429565,55.5936336517334 61.204975843429565,55.5936336517334 60.2070689201355,57.430583238601685 60.2070689201355,57.430583238601685 58.88572335243225,59.03199315071106 58.88572335243225,59.03199315071106 57.28468894958496,60.35388708114624 57.28468894958496,60.35388708114624 55.44752478599548,61.35249733924866 55.44752478599548,61.35249733924866 53.41803431510925,61.98379993438721 53.41803431510925,61.98379993438721 51.23993158340454,62.203967571258545 51.23993158340454,62.203967571258545 49.064114689826965,61.98379993438721 49.064114689826965,61.98379993438721 47.036367654800415,61.35249733924866 47.036367654800415,61.35249733924866 45.20045220851898,60.35394072532654 45.20045220851898,60.35394072532654 43.60024034976959,59.03199315071106 43.60024034976959,59.03199315071106 42.2793835401535,57.43052959442139 42.2793835401535,57.43052959442139 41.2817507982254,55.593520402908325 41.2817507982254,55.593520402908325 40.651050209999084,53.56479287147522 40.651050209999084,53.56479287147522 40.43109714984894,51.38816237449646 40.43109714984894,51.38816237449646 40.651050209999084,49.21261966228485 40.651050209999084,49.21261966228485 41.2817507982254,47.184547781944275 41.2817507982254,47.184547781944275 42.279329895973206,45.34781575202942 42.279329895973206,45.34781575202942 43.60024034976959,43.74651312828064 43.60024034976959,43.74651312828064 45.20050883293152,42.42445528507233 45.20050883293152,42.42445528507233 47.036367654800415,41.42578840255737 47.036367654800415,41.42578840255737 49.064114689826965,40.79437851905823 49.064114689826965,40.79437851905823 51.23993158340454,40.574100613594055 51.23993158340454,40.574100613594055 53.41803431510925,40.79437851905823 53.41803431510925,40.79437851905823 55.44752478599548,41.42578840255737 55.44752478599548,41.42578840255737 57.28463530540466,42.424508929252625 57.28463530540466,42.424508929252625 58.88572335243225,43.74651312828064 58.88572335243225,43.74651312828064 60.2070689201355,45.34775912761688 60.2070689201355,45.34775912761688 61.204975843429565,47.184547781944275 61.204975843429565,47.184547781944275 61.83578372001648,49.21261966228485 61.83578372001648,49.21261966228485" stroke="white" stroke-width="0.1" /><polygon points="89.44229483604431,43.13766658306122 89.44229483604431,43.13766658306122 91.64040088653564,43.655720353126526 91.64040088653564,43.655720353126526 93.65517497062683,44.38522458076477 93.65517497062683,44.38522458076477 95.45283317565918,45.30546963214874 95.45283317565918,45.30546963214874 96.99957966804504,46.39553129673004 96.99957966804504,46.39553129673004 98.26147556304932,47.634804248809814 98.26147556304932,47.634804248809814 99.20477271080017,49.00258481502533 99.20477271080017,49.00258481502533 99.79557991027832,50.47794580459595 99.79557991027832,50.47794580459595 100.0,52.04039216041565 100.0,52.04039216041565 98.76704812049866,53.72098684310913 98.76704812049866,53.72098684310913 95.51648497581482,54.92146015167236 95.51648497581482,54.92146015167236 90.92092514038086,55.64169883728027 90.92092514038086,55.64169883728027 85.65275073051453,55.881816148757935 85.65275073051453,55.881816148757935 80.38463592529297,55.64175248146057 80.38463592529297,55.64175248146057 75.78901648521423,54.92146015167236 75.78901648521423,54.92146015167236 72.5384533405304,53.72098684310913 72.5384533405304,53.72098684310913 71.30550146102905,52.04039216041565 71.30550146102905,52.04039216041565 71.33656144142151,51.45334005355835 71.33656144142151,51.45334005355835 71.42751812934875,50.877684354782104 71.42751812934875,50.877684354782104 71.57531976699829,50.31379461288452 71.57531976699829,50.31379461288452 71.77679538726807,49.76239204406738 71.77679538726807,49.76239204406738 72.02884554862976,49.223846197128296 72.02884554862976,49.223846197128296 72.32815027236938,48.69881570339203 72.32815027236938,48.69881570339203 72.67175316810608,48.187628388404846 72.67175316810608,48.187628388404846 73.05639982223511,47.69104719161987 73.05639982223511,47.69104719161987 69.8371171951294,47.69104719161987 69.8371171951294,47.69104719161987 69.45127248764038,47.68189191818237 69.45127248764038,47.68189191818237 69.04205083847046,47.65540659427643 69.04205083847046,47.65540659427643 68.61342787742615,47.61262536048889 68.61342787742615,47.61262536048889 68.16949248313904,47.554802894592285 68.16949248313904,47.554802894592285 67.71422028541565,47.48319387435913 67.71422028541565,47.48319387435913 67.25180745124817,47.39893972873688 67.25180745124817,47.39893972873688 66.7861819267273,47.303298115730286 66.7861819267273,47.303298115730286 66.32137298583984,47.1975177526474 66.32137298583984,47.1975177526474 65.62281847000122,45.218926668167114 65.62281847000122,45.218926668167114 64.68045115470886,43.37211549282074 64.68045115470886,43.37211549282074 63.51327300071716,41.67691171169281 63.51327300071716,41.67691171169281 62.140315771102905,40.15316069126129 62.140315771102905,40.15316069126129 60.58070659637451,38.82080316543579 60.58070659637451,38.82080316543579 58.853352069854736,37.6996785402298 58.853352069854736,37.6996785402298 56.9774329662323,36.8096262216568 56.9774329662323,36.8096262216568 54.97192144393921,36.170694231987 54.97192144393921,36.170694231987 54.97192144393921,7.430853694677353 54.97192144393921,7.430853694677353 55.03917336463928,6.770942360162735 55.03917336463928,6.770942360162735 55.231767892837524,6.155283376574516 55.231767892837524,6.155283376574516 55.536192655563354,5.597336962819099 55.536192655563354,5.597336962819099 55.938929319381714,5.110564827919006 55.938929319381714,5.110564827919006 56.42635226249695,4.708535969257355 56.42635226249695,4.708535969257355 56.98484778404236,4.404602944850922 56.98484778404236,4.404602944850922 57.60088562965393,4.212335497140884 57.60088562965393,4.212335497140884 58.26095938682556,4.14530374109745 58.26095938682556,4.14530374109745 83.1781268119812,4.14530374109745 83.1781268119812,4.14530374109745 83.84321331977844,4.212226718664169 83.84321331977844,4.212226718664169 84.47380661964417,4.403949156403542 84.47380661964417,4.403949156403542 85.05523800849915,4.707064479589462 85.05523800849915,4.707064479589462 85.57296395301819,5.108166858553886 85.57296395301819,5.108166858553886 86.01238131523132,5.5936310440301895 86.01238131523132,5.5936310440301895 86.35887503623962,6.1501603573560715 86.35887503623962,6.1501603573560715 86.5978479385376,6.7641302943229675 86.5978479385376,6.7641302943229675 86.71479821205139,7.422133535146713 86.71479821205139,7.422133535146713" stroke="white" stroke-width="0.1" /><polygon points="72.0344603061676,34.83659327030182 72.0344603061676,34.83659327030182 79.94489073753357,34.83659327030182 79.94489073753357,34.83659327030182 80.59847950935364,34.76967215538025 80.59847950935364,34.76967215538025 81.19604587554932,34.57794785499573 81.19604587554932,34.57794785499573 81.7254364490509,34.274834394454956 81.7254364490509,34.274834394454956 82.1744978427887,33.87394845485687 82.1744978427887,33.87394845485687 82.5310230255127,33.38864743709564 82.5310230255127,33.38864743709564 82.78279900550842,32.83250033855438 82.78279900550842,32.83250033855438 82.91767835617065,32.21896588802338 82.91767835617065,32.21896588802338 82.92351365089417,31.561508774757385 82.92351365089417,31.561508774757385 81.45861625671387,15.627288818359375 81.45861625671387,15.627288818359375 81.3302755355835,14.969885349273682 81.3302755355835,14.969885349273682 81.08072876930237,14.356568455696106 81.08072876930237,14.356568455696106 80.7247519493103,13.800638914108276 80.7247519493103,13.800638914108276 80.27710914611816,13.315719366073608 80.27710914611816,13.315719366073608 79.75262403488159,12.915107607841492 79.75262403488159,12.915107607841492 79.16612029075623,12.612374126911163 79.16612029075623,12.612374126911163 78.53231430053711,12.420706450939178 78.53231430053711,12.420706450939178 77.86613702774048,12.353946268558502 77.86613702774048,12.353946268558502 64.82508778572083,12.353946268558502 64.82508778572083,12.353946268558502 64.1641914844513,12.421087920665741 64.1641914844513,12.421087920665741 63.54804039001465,12.613463401794434 63.54804039001465,12.613463401794434 62.990039587020874,12.917669117450714 62.990039587020874,12.917669117450714 62.50348687171936,13.319861888885498 62.50348687171936,13.319861888885498 62.10178732872009,13.806742429733276 62.10178732872009,13.806742429733276 61.79834604263306,14.364689588546753 61.79834604263306,14.364689588546753 61.60646080970764,14.980076253414154 61.60646080970764,14.980076253414154 61.53953671455383,15.639495849609375 61.53953671455383,15.639495849609375 61.53953671455383,28.766000270843506 61.53953671455383,28.766000270843506 61.602044105529785,29.449617862701416 61.602044105529785,29.449617862701416 61.781179904937744,30.13465404510498 61.781179904937744,30.13465404510498 62.064456939697266,30.802521109580994 62.064456939697266,30.802521109580994 62.43939995765686,31.434637308120728 62.43939995765686,31.434637308120728 62.893474102020264,32.01269507408142 62.893474102020264,32.01269507408142 63.41414451599121,32.51815736293793 63.41414451599121,32.51815736293793 63.98898363113403,32.93255865573883 63.98898363113403,32.93255865573883 64.60534930229187,33.23741853237152 64.60534930229187,33.23741853237152 65.67960977554321,33.652472496032715 65.67960977554321,33.652472496032715 66.36338829994202,33.89008045196533 66.36338829994202,33.89008045196533 67.13114976882935,34.11188721656799 67.13114976882935,34.11188721656799 67.95673370361328,34.312981367111206 67.95673370361328,34.312981367111206 68.81387233734131,34.488463401794434 68.81387233734131,34.488463401794434 69.67640519142151,34.63337421417236 69.67640519142151,34.63337421417236 70.51817178726196,34.74307656288147 70.51817178726196,34.74307656288147 71.31296396255493,34.81239676475525 71.31296396255493,34.81239676475525" stroke="white" stroke-width="0.1" /></svg>