<?xml version="1.0" encoding="utf-8" ?>
<svg baseProfile="full" height="27.7116060256958" version="1.1" width="23.81303757429123" xmlns="http://www.w3.org/2000/svg" xmlns:ev="http://www.w3.org/2001/xml-events" xmlns:xlink="http://www.w3.org/1999/xlink"><defs><clipPath /></defs><polygon points="23.81303757429123,25.665196776390076 23.81303757429123,25.665196776390076 21.451911330223083,27.7116060256958 21.451911330223083,27.7116060256958 20.003312826156616,26.034122705459595 20.003312826156616,26.034122705459595 20.04561722278595,26.02950930595398 20.04561722278595,26.02950930595398 20.088768005371094,26.024803519248962 20.088768005371094,26.024803519248962 20.132483541965485,26.019909977912903 20.132483541965485,26.019909977912903 20.17648220062256,26.01492404937744 20.17648220062256,26.01492404937744 20.220480859279633,26.0097473859787 20.220480859279633,26.0097473859787 20.264196395874023,26.004475355148315 20.264196395874023,26.004475355148315 20.307300984859467,25.99901854991913 20.307300984859467,25.99901854991913 20.3496515750885,25.993463397026062 20.3496515750885,25.993463397026062 20.782339572906494,25.944995880126953 20.782339572906494,25.944995880126953 21.21521532535553,25.898975133895874 21.21521532535553,25.898975133895874 21.648232638835907,25.855210423469543 21.648232638835907,25.855210423469543 22.081343829631805,25.813519954681396 22.081343829631805,25.813519954681396 22.514456510543823,25.773850083351135 22.514456510543823,25.773850083351135 22.9474738240242,25.735968351364136 22.9474738240242,25.735968351364136 23.380397260189056,25.699830055236816 23.380397260189056,25.699830055236816" stroke="white" stroke-width="0.1" /></svg>