<?xml version="1.0" encoding="utf-8" ?>
<svg baseProfile="full" height="93.17562580108643" version="1.1" width="47.82785475254059" xmlns="http://www.w3.org/2000/svg" xmlns:ev="http://www.w3.org/2001/xml-events" xmlns:xlink="http://www.w3.org/1999/xlink"><defs><clipPath /></defs><polygon points="46.734628081321716,80.54179549217224 46.734628081321716,80.54179549217224 47.21291661262512,81.13165497779846 47.21291661262512,81.13165497779846 47.55454957485199,81.78673386573792 47.55454957485199,81.78673386573792 47.75952696800232,82.48533606529236 47.75952696800232,82.48533606529236 47.82785475254059,83.2057774066925 47.82785475254059,83.2057774066925 47.75952696800232,83.92626643180847 47.75952696800232,83.92626643180847 47.55454957485199,84.62510704994202 47.55454957485199,84.62510704994202 47.21291661262512,85.28051376342773 47.21291661262512,85.28051376342773 46.734628081321716,85.8708918094635 46.734628081321716,85.8708918094635 40.51860570907593,92.07788109779358 40.51860570907593,92.07788109779358 39.93147611618042,92.55814552307129 39.93147611618042,92.55814552307129 39.277997612953186,92.9011881351471 39.277997612953186,92.9011881351471 38.580191135406494,93.10701489448547 38.580191135406494,93.10701489448547 37.86008059978485,93.17562580108643 37.86008059978485,93.17562580108643 37.139686942100525,93.10701489448547 37.139686942100525,93.10701489448547 36.441031098365784,92.9011881351471 36.441031098365784,92.9011881351471 35.78614294528961,92.55814552307129 35.78614294528961,92.55814552307129 35.1970374584198,92.07788109779358 35.1970374584198,92.07788109779358 28.987035155296326,85.8708918094635 28.987035155296326,85.8708918094635 28.506773710250854,85.28051376342773 28.506773710250854,85.28051376342773 28.16372811794281,84.6250593662262 28.16372811794281,84.6250593662262 27.95785367488861,83.92621874809265 27.95785367488861,83.92621874809265 27.889293432235718,83.2057774066925 27.889293432235718,83.2057774066925 27.95790135860443,82.48533606529236 27.95790135860443,82.48533606529236 28.16372811794281,81.78673386573792 28.16372811794281,81.78673386573792 28.506773710250854,81.13165497779846 28.506773710250854,81.13165497779846 28.987035155296326,80.54179549217224 28.987035155296326,80.54179549217224 35.1970374584198,74.33480620384216 35.1970374584198,74.33480620384216 35.78614294528961,73.85407090187073 35.78614294528961,73.85407090187073 36.441031098365784,73.51065278053284 36.441031098365784,73.51065278053284 37.139686942100525,73.30463528633118 37.139686942100525,73.30463528633118 37.86008059978485,73.23593497276306 37.86008059978485,73.23593497276306 38.580191135406494,73.30463528633118 38.580191135406494,73.30463528633118 39.277997612953186,73.51065278053284 39.277997612953186,73.51065278053284 39.93147611618042,73.85407090187073 39.93147611618042,73.85407090187073 40.51860570907593,74.33480620384216 40.51860570907593,74.33480620384216" stroke="white" stroke-width="0.1" /></svg>