<?xml version="1.0" encoding="utf-8" ?>
<svg baseProfile="full" height="99.99962449073792" version="1.1" width="32.974445819854736" xmlns="http://www.w3.org/2000/svg" xmlns:ev="http://www.w3.org/2001/xml-events" xmlns:xlink="http://www.w3.org/1999/xlink"><defs><clipPath /></defs><polygon points="32.974445819854736,97.25338220596313 32.974445819854736,97.25338220596313 32.96244740486145,97.51384258270264 32.96244740486145,97.51384258270264 32.92635381221771,97.77143597602844 32.92635381221771,97.77143597602844 32.86612033843994,98.02455306053162 32.86612033843994,98.02455306053162 32.781702280044556,98.2716977596283 32.781702280044556,98.2716977596283 32.673001289367676,98.51135611534119 32.673001289367676,98.51135611534119 32.53992199897766,98.74207377433777 32.53992199897766,98.74207377433777 32.38247036933899,98.9621639251709 32.38247036933899,98.9621639251709 32.20045566558838,99.17029142379761 32.20045566558838,99.17029142379761 31.774872541427612,99.52679872512817 31.774872541427612,99.52679872512817 31.301292777061462,99.7841477394104 31.301292777061462,99.7841477394104 30.79524338245392,99.941885471344 30.79524338245392,99.941885471344 30.27225136756897,99.99962449073792 30.27225136756897,99.99962449073792 29.747849702835083,99.9570369720459 29.747849702835083,99.9570369720459 29.237565398216248,99.81356263160706 29.237565398216248,99.81356263160706 28.756925463676453,99.56900477409363 28.756925463676453,99.56900477409363 28.321462869644165,99.22299981117249 28.321462869644165,99.22299981117249 13.868601620197296,85.16767621040344 13.868601620197296,85.16767621040344 13.67872804403305,84.96683239936829 13.67872804403305,84.96683239936829 13.511629402637482,84.74962115287781 13.511629402637482,84.74962115287781 13.3681058883667,84.51791405677795 13.3681058883667,84.51791405677795 13.248957693576813,84.27377939224243 13.248957693576813,84.27377939224243 13.154937326908112,84.01910662651062 13.154937326908112,84.01910662651062 13.086798787117004,83.75587463378906 13.086798787117004,83.75587463378906 13.0453422665596,83.48605036735535 13.0453422665596,83.48605036735535 13.031366467475891,83.21161270141602 13.031366467475891,83.21161270141602 13.0453422665596,82.9336941242218 13.0453422665596,82.9336941242218 13.086798787117004,82.66123533248901 13.086798787117004,82.66123533248901 13.154937326908112,82.39620923995972 13.154937326908112,82.39620923995972 13.248957693576813,82.14040994644165 13.248957693576813,82.14040994644165 13.3681520819664,81.89566731452942 13.3681520819664,81.89566731452942 13.511629402637482,81.66391253471375 13.511629402637482,81.66391253471375 13.67872804403305,81.44688606262207 13.67872804403305,81.44688606262207 13.868601620197296,81.24651908874512 13.868601620197296,81.24651908874512 28.321462869644165,67.18818545341492 28.321462869644165,67.18818545341492 28.757774829864502,66.845703125 28.757774829864502,66.845703125 29.238834977149963,66.60326719284058 29.238834977149963,66.60326719284058 29.74916696548462,66.46087169647217 29.74916696548462,66.46087169647217 30.273380875587463,66.41870737075806 30.273380875587463,66.41870737075806 30.79599440097809,66.4767324924469 30.79599440097809,66.4767324924469 31.301715970039368,66.63512587547302 31.301715970039368,66.63512587547302 31.775060296058655,66.89379215240479 31.775060296058655,66.89379215240479 32.20045566558838,67.25293397903442 32.20045566558838,67.25293397903442 32.54425227642059,67.68679618835449 32.54425227642059,67.68679618835449 32.787346839904785,68.16597580909729 32.787346839904785,68.16597580909729 32.929930090904236,68.67499351501465 32.929930090904236,68.67499351501465 32.97218680381775,69.19845342636108 32.97218680381775,69.19845342636108 32.914212346076965,69.72073912620544 32.914212346076965,69.72073912620544 32.756102085113525,70.22636532783508 32.756102085113525,70.22636532783508 32.49813616275787,70.69998979568481 32.49813616275787,70.69998979568481 32.14022219181061,71.12590074539185 32.14022219181061,71.12590074539185 20.449034869670868,82.49183297157288 20.449034869670868,82.49183297157288 20.379626750946045,82.56401419639587 20.379626750946045,82.56401419639587 20.318453013896942,82.64241218566895 20.318453013896942,82.64241218566895 20.265796780586243,82.72645473480225 20.265796780586243,82.72645473480225 20.22203356027603,82.81558156013489 20.22203356027603,82.81558156013489 20.18744647502899,82.9092264175415 20.18744647502899,82.9092264175415 20.162318646907806,83.00682306289673 20.162318646907806,83.00682306289673 20.14702409505844,83.10775756835938 20.14702409505844,83.10775756835938 20.141848921775818,83.21161270141602 20.141848921775818,83.21161270141602 20.14702409505844,83.31165909767151 20.14702409505844,83.31165909767151 20.162318646907806,83.41028690338135 20.162318646907806,83.41028690338135 20.18744647502899,83.5067093372345 20.18744647502899,83.5067093372345 20.22203356027603,83.60030055046082 20.22203356027603,83.60030055046082 20.265796780586243,83.69027376174927 20.265796780586243,83.69027376174927 20.318453013896942,83.77591967582703 20.318453013896942,83.77591967582703 20.379626750946045,83.85652899742126 20.379626750946045,83.85652899742126 20.449034869670868,83.93139243125916 20.449034869670868,83.93139243125916 32.152268290519714,95.30335068702698 32.152268290519714,95.30335068702698 32.3441207408905,95.50978541374207 32.3441207408905,95.50978541374207 32.510700821876526,95.7312822341919 32.510700821876526,95.7312822341919 32.65196681022644,95.96562385559082 32.65196681022644,95.96562385559082 32.76777267456055,96.21060490608215 32.76777267456055,96.21060490608215 32.85802900791168,96.46404981613159 32.85802900791168,96.46404981613159 32.92263746261597,96.72380685806274 32.92263746261597,96.72380685806274 32.96145796775818,96.98765277862549 32.96145796775818,96.98765277862549" stroke="white" stroke-width="0.1" /></svg>