<?xml version="1.0" encoding="utf-8" ?>
<svg baseProfile="full" height="100.0" version="1.1" width="79.72515821456909" xmlns="http://www.w3.org/2000/svg" xmlns:ev="http://www.w3.org/2001/xml-events" xmlns:xlink="http://www.w3.org/1999/xlink"><defs><clipPath /></defs><polygon points="70.56258916854858,0.0 70.56258916854858,0.0 72.4032998085022,0.1869811792857945 72.4032998085022,0.1869811792857945 74.12046194076538,0.7229103706777096 74.12046194076538,0.7229103706777096 75.67653059959412,1.5702113509178162 75.67653059959412,1.5702113509178162 77.03384757041931,2.6913082227110863 77.03384757041931,2.6913082227110863 78.15497517585754,4.048652201890945 78.15497517585754,4.048652201890945 79.00224924087524,5.604694411158562 79.00224924087524,5.604694411158562 79.5381247997284,7.3218584060668945 79.5381247997284,7.3218584060668945 79.72515821456909,9.162568300962448 79.72515821456909,9.162568300962448 79.72515821456909,90.83743095397949 79.72515821456909,90.83743095397949 79.53817844390869,92.6781415939331 79.53817844390869,92.6781415939331 79.00224924087524,94.39530372619629 79.00224924087524,94.39530372619629 78.15492153167725,95.95134854316711 78.15492153167725,95.95134854316711 77.03384757041931,97.30868935585022 77.03384757041931,97.30868935585022 75.67653059959412,98.42978715896606 75.67653059959412,98.42978715896606 74.12046194076538,99.27709102630615 74.12046194076538,99.27709102630615 72.4032998085022,99.8130202293396 72.4032998085022,99.8130202293396 70.56258916854858,100.0 70.56258916854858,100.0 68.958181142807,100.0 68.958181142807,100.0 67.1174705028534,99.8130202293396 67.1174705028534,99.8130202293396 65.40030837059021,99.27709102630615 65.40030837059021,99.27709102630615 63.844239711761475,98.42978715896606 63.844239711761475,98.42978715896606 62.48692274093628,97.30868935585022 62.48692274093628,97.30868935585022 61.365848779678345,95.95134854316711 61.365848779678345,95.95134854316711 60.51852107048035,94.39530372619629 60.51852107048035,94.39530372619629 59.9826455116272,92.6781415939331 59.9826455116272,92.6781415939331 59.7956120967865,90.83743095397949 59.7956120967865,90.83743095397949 59.7956120967865,79.72515821456909 59.7956120967865,79.72515821456909 19.929546117782593,79.72515821456909 19.929546117782593,79.72515821456909 19.929546117782593,90.83743095397949 19.929546117782593,90.83743095397949 19.742564857006073,92.6781415939331 19.742564857006073,92.6781415939331 19.206635653972626,94.39530372619629 19.206635653972626,94.39530372619629 18.35930645465851,95.95134854316711 18.35930645465851,95.95134854316711 17.238236963748932,97.30868935585022 17.238236963748932,97.30868935585022 15.880866348743439,98.42978715896606 15.880866348743439,98.42978715896606 14.324851334095001,99.27709102630615 14.324851334095001,99.27709102630615 12.607687711715698,99.8130202293396 12.607687711715698,99.8130202293396 10.766977071762085,100.0 10.766977071762085,100.0 9.162568300962448,100.0 9.162568300962448,100.0 7.3218584060668945,99.8130202293396 7.3218584060668945,99.8130202293396 5.604694411158562,99.27709102630615 5.604694411158562,99.27709102630615 4.048625007271767,98.42978715896606 4.048625007271767,98.42978715896606 2.6913082227110863,97.30868935585022 2.6913082227110863,97.30868935585022 1.5701841562986374,95.95134854316711 1.5701841562986374,95.95134854316711 0.7229103706777096,94.39530372619629 0.7229103706777096,94.39530372619629 0.18703568493947387,92.6781415939331 0.18703568493947387,92.6781415939331 0.0,90.83743095397949 0.0,90.83743095397949 0.0,9.162568300962448 0.0,9.162568300962448 0.1869811792857945,7.3218584060668945 0.1869811792857945,7.3218584060668945 0.7229103706777096,5.604694411158562 0.7229103706777096,5.604694411158562 1.5702387318015099,4.048652201890945 1.5702387318015099,4.048652201890945 2.6913082227110863,2.6913082227110863 2.6913082227110863,2.6913082227110863 4.048625007271767,1.5702113509178162 4.048625007271767,1.5702113509178162 5.604694411158562,0.7229103706777096 5.604694411158562,0.7229103706777096 7.3218584060668945,0.1869811792857945 7.3218584060668945,0.1869811792857945 9.162568300962448,0.0 9.162568300962448,0.0" stroke="white" stroke-width="0.1" /><polygon points="72.84712791442871,51.38641595840454 72.84712791442871,51.38641595840454 70.10219693183899,51.38641595840454 70.10219693183899,51.38641595840454 70.10219693183899,28.778207302093506 70.10219693183899,28.778207302093506 72.84712791442871,28.778207302093506 72.84712791442871,28.778207302093506 73.58758449554443,28.70381772518158 73.58758449554443,28.70381772518158 74.27681684494019,28.490516543388367 74.27681684494019,28.490516543388367 74.90016222000122,28.153038024902344 74.90016222000122,28.153038024902344 75.4429578781128,27.70613133907318 75.4429578781128,27.70613133907318 75.89060068130493,27.164563536643982 75.89060068130493,27.164563536643982 76.22848749160767,26.54309868812561 76.22848749160767,26.54309868812561 76.44189596176147,25.856482982635498 76.44189596176147,25.856482982635498 76.51634216308594,25.119459629058838 76.51634216308594,25.119459629058838 76.44194960594177,24.379844963550568 76.44194960594177,24.379844963550568 76.22848749160767,23.6906960606575 76.22848749160767,23.6906960606575 75.89060068130493,23.066861927509308 75.89060068130493,23.066861927509308 75.4429578781128,22.523194551467896 75.4429578781128,22.523194551467896 74.90016222000122,22.074516117572784 74.90016222000122,22.074516117572784 74.27681684494019,21.735650300979614 74.27681684494019,21.735650300979614 73.58764410018921,21.521447598934174 73.58764410018921,21.521447598934174 72.84712791442871,21.44675850868225 72.84712791442871,21.44675850868225 70.10219693183899,21.44675850868225 70.10219693183899,21.44675850868225 70.10219693183899,18.907606601715088 70.10219693183899,18.907606601715088 69.91379857063293,17.081528902053833 69.91379857063293,17.081528902053833 69.38315033912659,15.381178259849548 69.38315033912659,15.381178259849548 68.54628920555115,13.842684030532837 68.54628920555115,13.842684030532837 67.43922233581543,12.50218003988266 67.43922233581543,12.50218003988266 66.09804034233093,11.39579713344574 66.09804034233093,11.39579713344574 64.55880999565125,10.559668391942978 64.55880999565125,10.559668391942978 62.85755634307861,10.029924660921097 62.85755634307861,10.029924660921097 61.03031039237976,9.842698276042938 61.03031039237976,9.842698276042938 18.69136095046997,9.842698276042938 18.69136095046997,9.842698276042938 16.862857341766357,10.029924660921097 16.862857341766357,10.029924660921097 15.160462260246277,10.559668391942978 15.160462260246277,10.559668391942978 13.620415329933167,11.39579713344574 13.620415329933167,11.39579713344574 12.278957664966583,12.50218003988266 12.278957664966583,12.50218003988266 11.172275245189667,13.842684030532837 11.172275245189667,13.842684030532837 10.336555540561676,15.381178259849548 10.336555540561676,15.381178259849548 9.808037430047989,17.081528902053833 9.808037430047989,17.081528902053833 9.622964262962341,18.907606601715088 9.622964262962341,18.907606601715088 9.615988284349442,61.2535297870636 9.615988284349442,61.2535297870636 9.803351014852524,63.07960748672485 9.803351014852524,63.07960748672485 10.333612561225891,64.77996110916138 10.333612561225891,64.77996110916138 11.170586198568344,66.31845235824585 11.170586198568344,66.31845235824585 12.278085947036743,67.65896081924438 12.278085947036743,67.65896081924438 13.620088994503021,68.76534223556519 13.620088994503021,68.76534223556519 15.160353481769562,69.60147023200989 15.160353481769562,69.60147023200989 16.862857341766357,70.13121247291565 16.862857341766357,70.13121247291565 18.69136095046997,70.3184425830841 18.69136095046997,70.3184425830841 61.03031039237976,70.3184425830841 61.03031039237976,70.3184425830841 62.85755634307861,70.13121247291565 62.85755634307861,70.13121247291565 64.55875635147095,69.60147023200989 64.55875635147095,69.60147023200989 66.09781980514526,68.76534223556519 66.09781980514526,68.76534223556519 67.43878722190857,67.65896081924438 67.43878722190857,67.65896081924438 68.54541897773743,66.31845235824585 68.54541897773743,66.31845235824585 69.38168406486511,64.77996110916138 69.38168406486511,64.77996110916138 69.91150975227356,63.07960748672485 69.91150975227356,63.07960748672485 70.09870409965515,61.2535297870636 70.09870409965515,61.2535297870636 70.10219693183899,61.2535297870636 70.10219693183899,61.2535297870636 70.10219693183899,58.721357583999634 70.10219693183899,58.721357583999634 72.84712791442871,58.721357583999634 72.84712791442871,58.721357583999634 73.58758449554443,58.64651799201965 73.58758449554443,58.64651799201965 74.27681684494019,58.43197703361511 74.27681684494019,58.43197703361511 74.90016222000122,58.09268355369568 74.90016222000122,58.09268355369568 75.4429578781128,57.64361023902893 75.4429578781128,57.64361023902893 75.89060068130493,57.099711894989014 75.89060068130493,57.099711894989014 76.22848749160767,56.47594928741455 76.22848749160767,56.47594928741455 76.44189596176147,55.78727722167969 76.44189596176147,55.78727722167969 76.51634216308594,55.04865646362305 76.51634216308594,55.04865646362305 76.44194960594177,54.308485984802246 76.44194960594177,54.308485984802246 76.22848749160767,53.62005829811096 76.22848749160767,53.62005829811096 75.89060068130493,52.99784541130066 75.89060068130493,52.99784541130066 75.4429578781128,52.456313371658325 75.4429578781128,52.456313371658325 74.90016222000122,52.0099401473999 74.90016222000122,52.0099401473999 74.27681684494019,51.6731858253479 74.27681684494019,51.6731858253479 73.58764410018921,51.460522413253784 73.58764410018921,51.460522413253784" stroke="white" stroke-width="0.1" /></svg>