<?xml version="1.0" encoding="utf-8" ?>
<svg baseProfile="full" height="63.19754719734192" version="1.1" width="100.0" xmlns="http://www.w3.org/2000/svg" xmlns:ev="http://www.w3.org/2001/xml-events" xmlns:xlink="http://www.w3.org/1999/xlink"><defs><clipPath /></defs><polygon points="37.77901828289032,54.3038547039032 37.77901828289032,54.3038547039032 37.774279713630676,56.02886080741882 37.774279713630676,56.02886080741882 37.40719556808472,57.66661763191223 37.40719556808472,57.66661763191223 36.717116832733154,59.17320251464844 36.717116832733154,59.17320251464844 35.74349582195282,60.50459146499634 35.74349582195282,60.50459146499634 34.52579081058502,61.61673665046692 34.52579081058502,61.61673665046692 33.10345411300659,62.46561408042908 33.10345411300659,62.46561408042908 31.5159410238266,63.00724744796753 31.5159410238266,63.00724744796753 29.80259656906128,63.19754719734192 29.80259656906128,63.19754719734192 28.207236528396606,63.031989336013794 28.207236528396606,63.031989336013794 26.711437106132507,62.55825757980347 26.711437106132507,62.55825757980347 25.350135564804077,61.81095838546753 25.350135564804077,61.81095838546753 24.15815144777298,60.8245849609375 24.15815144777298,60.8245849609375 23.170363903045654,59.63369607925415 23.170363903045654,59.63369607925415 22.421647608280182,58.27282667160034 22.421647608280182,58.27282667160034 21.946826577186584,56.776487827301025 21.946826577186584,56.776487827301025 21.78083211183548,55.17927408218384 21.78083211183548,55.17927408218384 21.934346854686737,53.63742709159851 21.934346854686737,53.63742709159851 22.37505316734314,52.18533277511597 22.37505316734314,52.18533277511597 23.072652518749237,50.8553147315979 23.072652518749237,50.8553147315979 23.99728000164032,49.67956840991974 23.99728000164032,49.67956840991974 25.118693709373474,48.69036078453064 25.118693709373474,48.69036078453064 26.4068603515625,47.91995584964752 26.4068603515625,47.91995584964752 27.831706404685974,47.40055799484253 27.831706404685974,47.40055799484253 29.36314344406128,47.16448187828064 29.36314344406128,47.16448187828064 30.91191053390503,47.23336696624756 30.91191053390503,47.23336696624756 32.38639831542969,47.59385585784912 32.38639831542969,47.59385585784912 33.75271558761597,48.21777641773224 33.75271558761597,48.21777641773224 34.97706949710846,49.07706379890442 34.97706949710846,49.07706379890442 36.025676131248474,50.1434326171875 36.025676131248474,50.1434326171875 36.86474561691284,51.38882398605347 36.86474561691284,51.38882398605347 37.460437417030334,52.78500318527222 37.460437417030334,52.78500318527222" stroke="white" stroke-width="0.1" /><polygon points="83.70535969734192,24.85002875328064 83.70535969734192,24.85002875328064 84.22715663909912,25.394439697265625 84.22715663909912,25.394439697265625 84.73876118659973,25.949478149414062 84.73876118659973,25.949478149414062 85.24082899093628,26.514217257499695 85.24082899093628,26.514217257499695 85.7339084148407,27.0878404378891 85.7339084148407,27.0878404378891 86.21864914894104,27.669471502304077 86.21864914894104,27.669471502304077 86.69570088386536,28.258243203163147 86.69570088386536,28.258243203163147 87.16561794281006,28.85328233242035 87.16561794281006,28.85328233242035 87.6290500164032,29.45382297039032 87.6290500164032,29.45382297039032 81.0616672039032,29.45382297039032 81.0616672039032,29.45382297039032 80.98253607749939,29.36881184577942 80.98253607749939,29.36881184577942 80.90422749519348,29.283851385116577 80.90422749519348,29.283851385116577 80.82651495933533,29.198947548866272 80.82651495933533,29.198947548866272 80.74907660484314,29.1142076253891 80.74907660484314,29.1142076253891 80.67147731781006,29.02962863445282 80.67147731781006,29.02962863445282 80.59327602386475,28.94521653652191 80.59327602386475,28.94521653652191 80.51420450210571,28.861019015312195 80.51420450210571,28.861019015312195 80.43387532234192,28.77720594406128 80.43387532234192,28.77720594406128 77.34827399253845,25.91204047203064 77.34827399253845,25.91204047203064 73.99935126304626,23.35357815027237 73.99935126304626,23.35357815027237 70.40901780128479,21.125032007694244 70.40901780128479,21.125032007694244 66.59895181655884,19.24961656332016 66.59895181655884,19.24961656332016 62.59111762046814,17.75055080652237 62.59111762046814,17.75055080652237 58.40727090835571,16.65104478597641 58.40727090835571,16.65104478597641 54.06930446624756,15.974317491054535 54.06930446624756,15.974317491054535 49.59891438484192,15.74358344078064 49.59891438484192,15.74358344078064 45.129722356796265,15.974317491054535 45.129722356796265,15.974317491054535 40.792521834373474,16.65104478597641 40.792521834373474,16.65104478597641 36.609214544296265,17.75055080652237 36.609214544296265,17.75055080652237 32.60149359703064,19.24961656332016 32.60149359703064,19.24961656332016 28.791266679763794,21.125032007694244 28.791266679763794,21.125032007694244 25.200435519218445,23.35357815027237 25.200435519218445,23.35357815027237 21.850696206092834,25.91204047203064 21.850696206092834,25.91204047203064 18.7639519572258,28.77720594406128 18.7639519572258,28.77720594406128 18.713216483592987,28.8299560546875 18.713216483592987,28.8299560546875 18.66302639245987,28.883525729179382 18.66302639245987,28.883525729179382 18.61310750246048,28.93764078617096 18.61310750246048,28.93764078617096 18.56340765953064,28.9921373128891 18.56340765953064,28.9921373128891 18.5137078166008,29.046794772148132 18.5137078166008,29.046794772148132 18.46378892660141,29.101401567459106 18.46378892660141,29.101401567459106 18.413545191287994,29.15578782558441 18.413545191287994,29.15578782558441 18.36286336183548,29.20968234539032 18.36286336183548,29.20968234539032 18.305642902851105,29.240798950195312 18.305642902851105,29.240798950195312 18.248803913593292,29.27137315273285 18.248803913593292,29.27137315273285 18.19218248128891,29.30167317390442 18.19218248128891,29.30167317390442 18.13572496175766,29.33175265789032 18.13572496175766,29.33175265789032 18.07904988527298,29.36183512210846 18.07904988527298,29.36183512210846 18.021993339061737,29.39213514328003 18.021993339061737,29.39213514328003 17.964336276054382,29.422760009765625 17.964336276054382,29.422760009765625 17.90597140789032,29.45382297039032 17.90597140789032,29.45382297039032 11.57575398683548,29.45382297039032 11.57575398683548,29.45382297039032 12.037986516952515,28.85328233242035 12.037986516952515,28.85328233242035 12.507030367851257,28.258243203163147 12.507030367851257,28.258243203163147 12.983322143554688,27.669471502304077 12.983322143554688,27.669471502304077 13.4674072265625,27.0878404378891 13.4674072265625,27.0878404378891 13.95983099937439,26.514217257499695 13.95983099937439,26.514217257499695 14.461135864257812,25.949478149414062 14.461135864257812,25.949478149414062 14.971815049648285,25.394439697265625 14.971815049648285,25.394439697265625 15.4924675822258,24.85002875328064 15.4924675822258,24.85002875328064 18.927493691444397,21.660777926445007 18.927493691444397,21.660777926445007 22.648076713085175,18.818719685077667 22.648076713085175,18.818719685077667 26.629695296287537,16.34783148765564 26.629695296287537,16.34783148765564 30.84804117679596,14.27219957113266 30.84804117679596,14.27219957113266 35.27854084968567,12.615913152694702 35.27854084968567,12.615913152694702 39.896830916404724,11.403056979179382 39.896830916404724,11.403056979179382 44.67844367027283,10.657692700624466 44.67844367027283,10.657692700624466 49.59891438484192,10.40387898683548 49.59891438484192,10.40387898683548 54.51943874359131,10.657719522714615 54.51943874359131,10.657719522714615 59.300994873046875,11.403056979179382 59.300994873046875,11.403056979179382 63.91928791999817,12.615913152694702 63.91928791999817,12.615913152694702 68.34978461265564,14.27219957113266 68.34978461265564,14.27219957113266 72.56807684898376,16.34783148765564 72.56807684898376,16.34783148765564 76.54975056648254,18.818719685077667 76.54975056648254,18.818719685077667 80.2703320980072,21.660833060741425 80.2703320980072,21.660833060741425" stroke="white" stroke-width="0.1" /><polygon points="14.52985554933548,19.30803656578064 14.52985554933548,19.30803656578064 13.348117470741272,20.45549750328064 13.348117470741272,20.45549750328064 12.209919840097427,21.63979709148407 12.209919840097427,21.63979709148407 11.115919053554535,22.859737277030945 11.115919053554535,22.859737277030945 10.06687730550766,24.11412000656128 10.06687730550766,24.11412000656128 9.063394367694855,25.401851534843445 9.063394367694855,25.401851534843445 8.106286823749542,26.72184705734253 8.106286823749542,26.72184705734253 7.196154445409775,28.07290256023407 7.196154445409775,28.07290256023407 6.33370578289032,29.45382297039032 6.33370578289032,29.45382297039032 0.0,29.45382297039032 0.0,29.45382297039032 3.8471769541502,23.1737419962883 3.8471769541502,23.1737419962883 8.54775607585907,17.48591959476471 8.54775607585907,17.48591959476471 14.018359780311584,12.465477734804153 14.018359780311584,12.465477734804153 20.17560750246048,8.18743035197258 20.17560750246048,8.18743035197258 26.93612277507782,4.726818948984146 26.93612277507782,4.726818948984146 34.21652913093567,2.15868279337883 34.21652913093567,2.15868279337883 41.933444142341614,0.55806296877563 41.933444142341614,0.55806296877563 50.00349283218384,0.0 50.00349283218384,0.0 58.07108283042908,0.55806296877563 58.07108283042908,0.55806296877563 65.78592658042908,2.15868279337883 65.78592658042908,2.15868279337883 73.06469678878784,4.726818948984146 73.06469678878784,4.726818948984146 79.82395887374878,8.18743035197258 79.82395887374878,8.18743035197258 85.98044514656067,12.465477734804153 85.98044514656067,12.465477734804153 91.45088791847229,17.48591959476471 91.45088791847229,17.48591959476471 96.15184664726257,23.1737419962883 96.15184664726257,23.1737419962883 100.0,29.45382297039032 100.0,29.45382297039032 93.67676377296448,29.45382297039032 93.67676377296448,29.45382297039032 92.8139865398407,28.07290256023407 92.8139865398407,28.07290256023407 91.90309047698975,26.72184705734253 91.90309047698975,26.72184705734253 90.94478487968445,25.401851534843445 90.94478487968445,25.401851534843445 89.94010090827942,24.11412000656128 89.94010090827942,24.11412000656128 88.88975381851196,22.859737277030945 88.88975381851196,22.859737277030945 87.79466152191162,21.63979709148407 87.79466152191162,21.63979709148407 86.6556465625763,20.45552432537079 86.6556465625763,20.45552432537079 85.47363877296448,19.30803656578064 85.47363877296448,19.30803656578064 81.92046284675598,16.278076171875 81.92046284675598,16.278076171875 78.06571125984192,13.573728501796722 78.06571125984192,13.573728501796722 73.93428683280945,11.219161748886108 73.93428683280945,11.219161748886108 69.55130696296692,9.2385433614254 69.55130696296692,9.2385433614254 64.94173407554626,7.6560162007808685 64.94173407554626,7.6560162007808685 60.13053059577942,6.495721638202667 60.13053059577942,6.495721638202667 55.142760276794434,5.781827867031097 55.142760276794434,5.781827867031097 50.00349283218384,5.53850457072258 50.00349283218384,5.53850457072258 44.86209452152252,5.781827867031097 44.86209452152252,5.781827867031097 39.87296223640442,6.495721638202667 39.87296223640442,6.495721638202667 35.06104648113251,7.6560162007808685 35.06104648113251,7.6560162007808685 30.45131266117096,9.2385433614254 30.45131266117096,9.2385433614254 26.068443059921265,11.219188570976257 26.068443059921265,11.219188570976257 21.93734347820282,13.573728501796722 21.93734347820282,13.573728501796722 18.082864582538605,16.278076171875 18.082864582538605,16.278076171875" stroke="white" stroke-width="0.1" /><polygon points="84.29129719734192,53.87486219406128 84.29129719734192,53.87486219406128 84.38034653663635,55.5916428565979 84.38034653663635,55.5916428565979 84.1042697429657,57.2426974773407 84.1042697429657,57.2426974773407 83.4999680519104,58.781927824020386 83.4999680519104,58.781927824020386 82.60411024093628,60.1632297039032 82.60411024093628,60.1632297039032 81.45359754562378,61.34049892425537 81.45359754562378,61.34049892425537 80.0851047039032,62.26763129234314 80.0851047039032,62.26763129234314 78.53546738624573,62.89852857589722 78.53546738624573,62.89852857589722 76.84152126312256,63.18708658218384 76.84152126312256,63.18708658218384 75.1748263835907,63.105666637420654 75.1748263835907,63.105666637420654 73.60175251960754,62.68724799156189 73.60175251960754,62.68724799156189 72.16192483901978,61.968994140625 72.16192483901978,61.968994140625 70.89495062828064,60.98807454109192 70.89495062828064,60.98807454109192 69.84051465988159,59.78153944015503 69.84051465988159,59.78153944015503 69.03828382492065,58.38645100593567 69.03828382492065,58.38645100593567 68.52787733078003,56.839972734451294 68.52787733078003,56.839972734451294 68.34891438484192,55.17927408218384 68.34891438484192,55.17927408218384 68.50248575210571,53.63742709159851 68.50248575210571,53.63742709159851 68.943190574646,52.18533277511597 68.943190574646,52.18533277511597 69.6410059928894,50.8553147315979 69.6410059928894,50.8553147315979 70.56580185890198,49.67956840991974 70.56580185890198,49.67956840991974 71.68764472007751,48.69036078453064 71.68764472007751,48.69036078453064 72.97641634941101,47.91995584964752 72.97641634941101,47.91995584964752 74.40212965011597,47.40055799484253 74.40212965011597,47.40055799484253 75.9347140789032,47.16448187828064 75.9347140789032,47.16448187828064 77.42577195167542,47.2258985042572 77.42577195167542,47.2258985042572 78.85159254074097,47.558704018592834 78.85159254074097,47.558704018592834 80.18106818199158,48.13821315765381 80.18106818199158,48.13821315765381 81.38297200202942,48.93973469734192 81.38297200202942,48.93973469734192 82.42613077163696,49.938803911209106 82.42613077163696,49.938803911209106 83.2793653011322,51.110732555389404 83.2793653011322,51.110732555389404 83.91146063804626,52.43094563484192 83.91146063804626,52.43094563484192" stroke="white" stroke-width="0.1" /><polygon points="94.4405734539032,49.95117485523224 94.4405734539032,49.95117485523224 94.51817274093628,50.16648769378662 94.51817274093628,50.16648769378662 94.53784823417664,50.47111511230469 94.53784823417664,50.47111511230469 94.51305270195007,50.835639238357544 94.51305270195007,50.835639238357544 94.45757865905762,51.2307345867157 94.45757865905762,51.2307345867157 94.38487887382507,51.62696838378906 94.38487887382507,51.62696838378906 94.30863857269287,51.99492573738098 94.30863857269287,51.99492573738098 94.24242973327637,52.30528116226196 94.24242973327637,52.30528116226196 94.19991970062256,52.52860188484192 94.19991970062256,52.52860188484192 94.11316514015198,53.14505696296692 94.11316514015198,53.14505696296692 94.02226209640503,53.78282070159912 94.02226209640503,53.78282070159912 93.9146876335144,54.429686069488525 93.9146876335144,54.429686069488525 93.77790689468384,55.07333278656006 93.77790689468384,55.07333278656006 93.59927177429199,55.701446533203125 93.59927177429199,55.701446533203125 93.36613416671753,56.301718950271606 93.36613416671753,56.301718950271606 93.06597709655762,56.86187744140625 93.06597709655762,56.86187744140625 92.68624782562256,57.36956000328064 92.68624782562256,57.36956000328064 92.16172695159912,57.86198377609253 92.16172695159912,57.86198377609253 91.59203171730042,58.237242698669434 91.59203171730042,58.237242698669434 90.98451137542725,58.51391553878784 90.98451137542725,58.51391553878784 90.34641981124878,58.7105929851532 90.34641981124878,58.7105929851532 89.6849513053894,58.84579420089722 89.6849513053894,58.84579420089722 89.00730013847351,58.938056230545044 89.00730013847351,58.938056230545044 88.32070827484131,59.00595784187317 88.32070827484131,59.00595784187317 87.63253688812256,59.06808376312256 87.63253688812256,59.06808376312256 88.24082016944885,56.14030361175537 88.24082016944885,56.14030361175537 88.09722065925598,53.27170491218567 88.09722065925598,53.27170491218567 87.28191256523132,50.56888461112976 87.28191256523132,50.56888461112976 85.87515950202942,48.13843071460724 85.87515950202942,48.13843071460724 83.95718336105347,46.08694016933441 83.95718336105347,46.08694016933441 81.60820603370667,44.52100694179535 81.60820603370667,44.52100694179535 78.90843152999878,43.54722499847412 78.90843152999878,43.54722499847412 75.93820095062256,43.27218532562256 75.93820095062256,43.27218532562256 73.0171799659729,43.7534898519516 73.0171799659729,43.7534898519516 70.40966749191284,44.904494285583496 70.40966749191284,44.904494285583496 68.18722486495972,46.61538600921631 68.18722486495972,46.61538600921631 66.4215087890625,48.77624809741974 66.4215087890625,48.77624809741974 65.18402099609375,51.27738118171692 65.18402099609375,51.27738118171692 64.54626321792603,54.00886535644531 64.54626321792603,54.00886535644531 64.57988619804382,56.86095356941223 64.57988619804382,56.86095356941223 65.3564453125,59.7237765789032 65.3564453125,59.7237765789032 62.3107373714447,59.498488903045654 62.3107373714447,59.498488903045654 59.269553422927856,59.311676025390625 59.269553422927856,59.311676025390625 56.231147050857544,59.16726589202881 56.231147050857544,59.16726589202881 53.19344997406006,59.06895399093628 53.19344997406006,59.06895399093628 50.154662132263184,59.02067422866821 50.154662132263184,59.02067422866821 47.11276590824127,59.026336669921875 47.11276590824127,59.026336669921875 44.06591355800629,59.08966064453125 44.06591355800629,59.08966064453125 41.01213812828064,59.21456813812256 41.01213812828064,59.21456813812256 41.637203097343445,56.51594400405884 41.637203097343445,56.51594400405884 41.613009572029114,53.83617281913757 41.613009572029114,53.83617281913757 40.9977525472641,51.26773715019226 40.9977525472641,51.26773715019226 39.84985649585724,48.90311360359192 39.84985649585724,48.90311360359192 38.227465748786926,46.834731101989746 38.227465748786926,46.834731101989746 36.188945174217224,45.155009627342224 36.188945174217224,45.155009627342224 33.7925523519516,43.95643174648285 33.7925523519516,43.95643174648285 31.09654188156128,43.33147406578064 31.09654188156128,43.33147406578064 28.372356295585632,43.357089161872864 28.372356295585632,43.357089161872864 25.809970498085022,43.986839056015015 25.809970498085022,43.986839056015015 23.482896387577057,45.147815346717834 23.482896387577057,45.147815346717834 21.4647576212883,46.76688313484192 21.4647576212883,46.76688313484192 19.8290154337883,48.771125078201294 19.8290154337883,48.771125078201294 18.649129569530487,51.08762979507446 18.649129569530487,51.08762979507446 17.998723685741425,53.643256425857544 17.998723685741425,53.643256425857544 17.95131266117096,56.36509656906128 17.95131266117096,56.36509656906128 17.380796372890472,56.072998046875 17.380796372890472,56.072998046875 16.809627413749695,55.78063130378723 16.809627413749695,55.78063130378723 16.23731404542923,55.48918843269348 16.23731404542923,55.48918843269348 15.6633660197258,55.19976019859314 15.6633660197258,55.19976019859314 15.08745551109314,54.91344332695007 15.08745551109314,54.91344332695007 14.509256184101105,54.63131666183472 14.509256184101105,54.63131666183472 13.92822265625,54.35453653335571 13.92822265625,54.35453653335571 13.3440300822258,54.0841281414032 13.3440300822258,54.0841281414032 13.10882568359375,53.98935675621033 13.10882568359375,53.98935675621033 12.856784462928772,53.901565074920654 12.856784462928772,53.901565074920654 12.597112357616425,53.81328463554382 12.597112357616425,53.81328463554382 12.3391292989254,53.717041015625 12.3391292989254,53.717041015625 12.092045694589615,53.60543727874756 12.092045694589615,53.60543727874756 11.865289509296417,53.47105264663696 11.865289509296417,53.47105264663696 11.66796088218689,53.306418657302856 11.66796088218689,53.306418657302856 11.50948703289032,53.10407876968384 11.50948703289032,53.10407876968384 11.169379949569702,52.43590474128723 11.169379949569702,52.43590474128723 10.916301608085632,51.70397162437439 10.916301608085632,51.70397162437439 10.73608472943306,50.92594027519226 10.73608472943306,50.92594027519226 10.61445027589798,50.11945962905884 10.61445027589798,50.11945962905884 10.537120699882507,49.30218458175659 10.537120699882507,49.30218458175659 10.489818453788757,48.49177896976471 10.489818453788757,48.49177896976471 10.458265244960785,47.70589768886566 10.458265244960785,47.70589768886566 10.42829304933548,46.96219563484192 10.42829304933548,46.96219563484192 10.45706644654274,46.425193548202515 10.45706644654274,46.425193548202515 10.587256401777267,45.98890244960785 10.587256401777267,45.98890244960785 10.794395208358765,45.62617838382721 10.794395208358765,45.62617838382721 11.05390340089798,45.3098863363266 11.05390340089798,45.3098863363266 11.341367661952972,45.012885332107544 11.341367661952972,45.012885332107544 11.632374674081802,44.70803737640381 11.632374674081802,44.70803737640381 11.902346462011337,44.36820149421692 11.902346462011337,44.36820149421692 12.12681382894516,43.96623969078064 12.12681382894516,43.96623969078064 12.256350368261337,43.6040073633194 12.256350368261337,43.6040073633194 12.351609021425247,43.219977617263794 12.351609021425247,43.219977617263794 12.419837713241577,42.820414900779724 12.419837713241577,42.820414900779724 12.46817484498024,42.41158664226532 12.46817484498024,42.41158664226532 12.50392496585846,41.99981987476349 12.50392496585846,41.99981987476349 12.534387409687042,41.591426730155945 12.534387409687042,41.591426730155945 12.56670355796814,41.19268357753754 12.56670355796814,41.19268357753754 12.60811984539032,40.80985188484192 12.60811984539032,40.80985188484192 12.683705985546112,40.15830159187317 12.683705985546112,40.15830159187317 12.780435383319855,39.389804005622864 12.780435383319855,39.389804005622864 12.91918158531189,38.56484591960907 12.91918158531189,38.56484591960907 13.12081515789032,37.74414360523224 13.12081515789032,37.74414360523224 13.40615451335907,36.98812425136566 13.40615451335907,36.98812425136566 13.796016573905945,36.357444524765015 13.796016573905945,36.357444524765015 14.311328530311584,35.91265082359314 14.311328530311584,35.91265082359314 14.97279703617096,35.71428656578064 14.97279703617096,35.71428656578064 15.99164754152298,35.657504200935364 15.99164754152298,35.657504200935364 17.005811631679535,35.61864793300629 17.005811631679535,35.61864793300629 18.012292683124542,35.57494282722473 18.012292683124542,35.57494282722473 19.0080925822258,35.50371527671814 19.0080925822258,35.50371527671814 19.990159571170807,35.38230061531067 19.990159571170807,35.38230061531067 20.955440402030945,35.18802225589752 20.955440402030945,35.18802225589752 21.90094143152237,34.89815890789032 21.90094143152237,34.89815890789032 22.82366156578064,34.49009656906128 22.82366156578064,34.49009656906128 23.894937336444855,33.930590748786926 23.894937336444855,33.930590748786926 24.967794120311737,33.36356282234192 24.967794120311737,33.36356282234192 26.043975353240967,32.79653489589691 26.043975353240967,32.79653489589691 27.12533175945282,32.23702609539032 27.12533175945282,32.23702609539032 28.21372151374817,31.692561507225037 28.21372151374817,31.692561507225037 29.310989379882812,31.170654296875 29.310989379882812,31.170654296875 30.418941378593445,30.678832530975342 30.418941378593445,30.678832530975342 31.53948187828064,30.224609375 31.53948187828064,30.224609375 32.85070359706879,29.74744737148285 32.85070359706879,29.74744737148285 34.17990803718567,29.321452975273132 34.17990803718567,29.321452975273132 35.52447855472565,28.944072127342224 35.52447855472565,28.944072127342224 36.88180148601532,28.61284613609314 36.88180148601532,28.61284613609314 38.24926316738129,28.325271606445312 38.24926316738129,28.325271606445312 39.62424397468567,28.078842163085938 39.62424397468567,28.078842163085938 41.00412726402283,27.87105143070221 41.00412726402283,27.87105143070221 42.3863023519516,27.69950032234192 42.3863023519516,27.69950032234192 43.732455372810364,27.55802869796753 43.732455372810364,27.55802869796753 45.106834173202515,27.434268593788147 45.106834173202515,27.434268593788147 46.49969041347504,27.339664101600647 46.49969041347504,27.339664101600647 47.90126383304596,27.2857666015625 47.90126383304596,27.2857666015625 49.301913380622864,27.28402316570282 49.301913380622864,27.28402316570282 50.691771507263184,27.34587788581848 50.691771507263184,27.34587788581848 52.06124782562256,27.482879161834717 52.06124782562256,27.482879161834717 53.4005343914032,27.70647406578064 53.4005343914032,27.70647406578064 54.43584322929382,27.95606553554535 54.43584322929382,27.95606553554535 55.454039573669434,28.273174166679382 55.454039573669434,28.273174166679382 56.45474195480347,28.64968478679657 56.45474195480347,28.64968478679657 57.43757486343384,29.0775865316391 57.43757486343384,29.0775865316391 58.40209126472473,29.548808932304382 58.40209126472473,29.548808932304382 59.347862005233765,30.055293440818787 59.347862005233765,30.055293440818787 60.274505615234375,30.588969588279724 60.274505615234375,30.588969588279724 61.181640625,31.14188313484192 61.181640625,31.14188313484192 62.07902431488037,31.71468675136566 62.07902431488037,31.71468675136566 62.96398043632507,32.307544350624084 62.96398043632507,32.307544350624084 63.8366162776947,32.919204235076904 63.8366162776947,32.919204235076904 64.697265625,33.5484117269516 64.697265625,33.5484117269516 65.54614901542664,34.193965792655945 65.54614901542664,34.193965792655945 66.38347506523132,34.854671359062195 66.38347506523132,34.854671359062195 67.20951795578003,35.52927374839783 67.20951795578003,35.52927374839783 68.0245578289032,36.21651828289032 68.0245578289032,36.21651828289032 68.39812397956848,36.54387593269348 68.39812397956848,36.54387593269348 68.71556043624878,36.82463765144348 68.71556043624878,36.82463765144348 69.00030374526978,37.06212937831879 69.00030374526978,37.06212937831879 69.2757785320282,37.25978434085846 69.2757785320282,37.25978434085846 69.56531405448914,37.420982122421265 69.56531405448914,37.420982122421265 69.8922336101532,37.54910230636597 69.8922336101532,37.54910230636597 70.27996778488159,37.64757513999939 70.27996778488159,37.64757513999939 70.75195908546448,37.71972954273224 70.75195908546448,37.71972954273224 73.36338758468628,38.032642006874084 73.36338758468628,38.032642006874084 76.00141763687134,38.382285833358765 76.00141763687134,38.382285833358765 78.64788770675659,38.79198431968689 78.64788770675659,38.79198431968689 81.28488063812256,39.28484320640564 81.28488063812256,39.28484320640564 83.89440774917603,39.883968234062195 83.89440774917603,39.883968234062195 86.45848035812378,40.612468123435974 86.45848035812378,40.612468123435974 88.95912766456604,41.49349927902222 88.95912766456604,41.49349927902222 91.37835502624512,42.55022406578064 91.37835502624512,42.55022406578064 91.60418510437012,42.658618092536926 91.60418510437012,42.658618092536926 91.93791151046753,42.82286763191223 91.93791151046753,42.82286763191223 92.32298135757446,43.029242753982544 92.32298135757446,43.029242753982544 92.70281791687012,43.26390027999878 92.70281791687012,43.26390027999878 93.02085041999817,43.513163924217224 93.02085041999817,43.513163924217224 93.22052597999573,43.763136863708496 93.22052597999573,43.763136863708496 93.24526786804199,44.000136852264404 93.24526786804199,44.000136852264404 93.03851127624512,44.21038031578064 93.03851127624512,44.21038031578064 92.95382499694824,44.328147172927856 92.95382499694824,44.328147172927856 92.88859367370605,44.55414116382599 92.88859367370605,44.55414116382599 92.83981919288635,44.854357838630676 92.83981919288635,44.854357838630676 92.80439615249634,45.19479274749756 92.80439615249634,45.19479274749756 92.77927279472351,45.54143846035004 92.77927279472351,45.54143846035004 92.76139736175537,45.86029350757599 92.76139736175537,45.86029350757599 92.74771809577942,46.11734747886658 92.74771809577942,46.11734747886658 92.73507595062256,46.27860188484192 92.73507595062256,46.27860188484192 92.68553853034973,46.645957231521606 92.68553853034973,46.645957231521606 92.63627529144287,47.013095021247864 92.63627529144287,47.013095021247864 92.58728623390198,47.38006889820099 92.58728623390198,47.38006889820099 92.53845810890198,47.74693250656128 92.53845810890198,47.74693250656128 92.48979091644287,48.11379909515381 92.48979091644287,48.11379909515381 92.44129061698914,48.480772972106934 92.44129061698914,48.480772972106934 92.3928439617157,48.84790778160095 92.3928439617157,48.84790778160095 92.34445095062256,49.21526312828064 92.34445095062256,49.21526312828064 92.41763949394226,49.30398464202881 92.41763949394226,49.30398464202881 92.63371229171753,49.39450025558472 92.63371229171753,49.39450025558472 92.9482102394104,49.48643445968628 92.9482102394104,49.48643445968628 93.31665635108948,49.5792955160141 93.31665635108948,49.5792955160141 93.69457960128784,49.67264533042908 93.69457960128784,49.67264533042908 94.03752088546753,49.76605176925659 94.03752088546753,49.76605176925659 94.30100917816162,49.859076738357544 94.30100917816162,49.859076738357544" stroke="white" stroke-width="0.1" /><polygon points="38.26729953289032,34.33663547039032 38.26729953289032,34.33663547039032 38.194385170936584,33.91309678554535 38.194385170936584,33.91309678554535 38.099509477615356,33.48868489265442 38.099509477615356,33.48868489265442 37.984469532966614,33.06557834148407 37.984469532966614,33.06557834148407 37.85095512866974,32.64596164226532 37.85095512866974,32.64596164226532 37.70059943199158,32.231903076171875 37.70059943199158,32.231903076171875 37.53504157066345,31.82547688484192 37.53504157066345,31.82547688484192 37.356024980545044,31.428855657577515 37.356024980545044,31.428855657577515 37.16517984867096,31.04422688484192 37.16517984867096,31.04422688484192 37.02022135257721,30.88793158531189 37.02022135257721,30.88793158531189 36.80578172206879,30.804443359375 36.80578172206879,30.804443359375 36.542731523513794,30.77915906906128 36.542731523513794,30.77915906906128 36.25183403491974,30.79746961593628 36.25183403491974,30.79746961593628 35.953959822654724,30.844879150390625 35.953959822654724,30.844879150390625 35.66976487636566,30.90689778327942 35.66976487636566,30.90689778327942 35.42023003101349,30.968913435935974 35.42023003101349,30.968913435935974 35.22600531578064,31.01632297039032 35.22600531578064,31.01632297039032 34.441813826560974,31.19768500328064 34.441813826560974,31.19768500328064 33.556586503982544,31.43528699874878 33.556586503982544,31.43528699874878 32.62154757976532,31.73632025718689 32.62154757976532,31.73632025718689 31.68770968914032,32.1079820394516 31.68770968914032,32.1079820394516 30.80618977546692,32.55746066570282 30.80618977546692,32.55746066570282 30.028098821640015,33.09195637702942 30.028098821640015,33.09195637702942 29.404449462890625,33.71865451335907 29.404449462890625,33.71865451335907 28.98646891117096,34.44475531578064 28.98646891117096,34.44475531578064 28.95595133304596,35.067859292030334 28.95595133304596,35.067859292030334 29.329901933670044,35.53445041179657 29.329901933670044,35.53445041179657 29.998672008514404,35.86731255054474 29.998672008514404,35.86731255054474 30.85240125656128,36.08921766281128 30.85240125656128,36.08921766281128 31.781333684921265,36.22284233570099 31.781333684921265,36.22284233570099 32.675716280937195,36.29085123538971 32.675716280937195,36.29085123538971 33.42568576335907,36.316028237342834 33.42568576335907,36.316028237342834 33.92159640789032,36.32115125656128 33.92159640789032,36.32115125656128 34.60475504398346,36.33815348148346 34.60475504398346,36.33815348148346 35.358867049217224,36.35586500167847 35.358867049217224,36.35586500167847 36.128562688827515,36.33602857589722 36.128562688827515,36.33602857589722 36.85826063156128,36.24049723148346 36.85826063156128,36.24049723148346 37.492480874061584,36.03101670742035 37.492480874061584,36.03101670742035 37.975749373435974,35.6693297624588 37.975749373435974,35.6693297624588 38.25247883796692,35.11728644371033 38.25247883796692,35.11728644371033" stroke="white" stroke-width="0.1" /><polygon points="60.05510687828064,34.26688313484192 60.05510687828064,34.26688313484192 59.53478217124939,33.59783887863159 59.53478217124939,33.59783887863159 58.92900824546814,33.00759494304657 58.92900824546814,33.00759494304657 58.25392007827759,32.48699903488159 58.25392007827759,32.48699903488159 57.525634765625,32.02689290046692 57.525634765625,32.02689290046692 56.760406494140625,31.618118286132812 56.760406494140625,31.618118286132812 55.97447156906128,31.25152587890625 55.97447156906128,31.25152587890625 55.183959007263184,30.91796040534973 55.183959007263184,30.91796040534973 54.40499782562256,30.60826063156128 54.40499782562256,30.60826063156128 53.54592800140381,30.31158447265625 53.54592800140381,30.31158447265625 52.67546772956848,30.07921576499939 52.67546772956848,30.07921576499939 51.79508924484253,29.904720187187195 51.79508924484253,29.904720187187195 50.9063720703125,29.78166937828064 50.9063720703125,29.78166937828064 50.01095533370972,29.703742265701294 50.01095533370972,29.703742265701294 49.11046922206879,29.66461181640625 49.11046922206879,29.66461181640625 48.20643961429596,29.65785562992096 48.20643961429596,29.65785562992096 47.30050563812256,29.67703938484192 47.30050563812256,29.67703938484192 46.662741899490356,29.690662026405334 46.662741899490356,29.690662026405334 45.918822288513184,29.711425304412842 45.918822288513184,29.711425304412842 45.116591453552246,29.764121770858765 45.116591453552246,29.764121770858765 44.30367946624756,29.8736572265625 44.30367946624756,29.8736572265625 43.5277134180069,30.064719915390015 43.5277134180069,30.064719915390015 42.836326360702515,30.362212657928467 42.836326360702515,30.362212657928467 42.277202010154724,30.790874361991882 42.277202010154724,30.790874361991882 41.8980211019516,31.3755601644516 41.8980211019516,31.3755601644516 41.72973930835724,32.01462924480438 41.72973930835724,32.01462924480438 41.69687628746033,32.71609842777252 41.69687628746033,32.71609842777252 41.773661971092224,33.457404375076294 41.773661971092224,33.457404375076294 41.93420708179474,34.21587347984314 41.93420708179474,34.21587347984314 42.15284287929535,34.96900498867035 42.15284287929535,34.96900498867035 42.40368604660034,35.69406867027283 42.40368604660034,35.69406867027283 42.6610141992569,36.368563771247864 42.6610141992569,36.368563771247864 42.8989976644516,36.96986734867096 42.8989976644516,36.96986734867096 43.001776933670044,37.15210258960724 43.001776933670044,37.15210258960724 43.13414692878723,37.27477192878723 43.13414692878723,37.27477192878723 43.291693925857544,37.34932243824005 43.291693925857544,37.34932243824005 43.4696763753891,37.38708794116974 43.4696763753891,37.38708794116974 43.663573265075684,37.39951252937317 43.663573265075684,37.39951252937317 43.868640065193176,37.39804029464722 43.868640065193176,37.39804029464722 44.080355763435364,37.39400804042816 44.080355763435364,37.39400804042816 44.29408609867096,37.39885687828064 44.29408609867096,37.39885687828064 45.094627141952515,37.451717257499695 45.094627141952515,37.451717257499695 45.89560627937317,37.500545382499695 45.89560627937317,37.500545382499695 46.69685661792755,37.545669078826904 46.69685661792755,37.545669078826904 47.49843180179596,37.58719563484192 47.49843180179596,37.58719563484192 48.30033779144287,37.6255065202713 48.30033779144287,37.6255065202713 49.10256862640381,37.660762667655945 49.10256862640381,37.660762667655945 49.90512430667877,37.693244218826294 49.90512430667877,37.693244218826294 50.7080078125,37.7232164144516 50.7080078125,37.7232164144516 51.360541582107544,37.748393416404724 51.360541582107544,37.748393416404724 52.01280117034912,37.77160942554474 52.01280117034912,37.77160942554474 52.6650607585907,37.792861461639404 52.6650607585907,37.792861461639404 53.3172607421875,37.81215250492096 53.3172607421875,37.81215250492096 53.96968722343445,37.829482555389404 53.96968722343445,37.829482555389404 54.622381925582886,37.84485161304474 54.622381925582886,37.84485161304474 55.275511741638184,37.858256697654724 55.275511741638184,37.858256697654724 55.92913031578064,37.8697007894516 55.92913031578064,37.8697007894516 56.30444288253784,37.87738382816315 56.30444288253784,37.87738382816315 56.67991638183594,37.884631752967834 56.67991638183594,37.884631752967834 57.05544948577881,37.891390919685364 57.05544948577881,37.891390919685364 57.4310302734375,37.89760172367096 57.4310302734375,37.89760172367096 57.80677795410156,37.903159856796265 57.80677795410156,37.903159856796265 58.18279981613159,37.907955050468445 58.18279981613159,37.907955050468445 58.55903625488281,37.91199028491974 58.55903625488281,37.91199028491974 58.935546875,37.91504204273224 58.935546875,37.91504204273224 58.952224254608154,37.8758043050766 58.952224254608154,37.8758043050766 58.961325883865356,37.81275153160095 58.961325883865356,37.81275153160095 58.96465182304382,37.73362338542938 58.96465182304382,37.73362338542938 58.9638888835907,37.64604926109314 58.9638888835907,37.64604926109314 58.96067023277283,37.557658553123474 58.96067023277283,37.557658553123474 58.95664095878601,37.4760776758194 58.95664095878601,37.4760776758194 58.95353555679321,37.408992648124695 58.95353555679321,37.408992648124695 58.95298719406128,37.36397922039032 58.95298719406128,37.36397922039032 58.95952582359314,37.15755045413971 58.95952582359314,37.15755045413971 58.97129774093628,36.85406446456909 58.97129774093628,36.85406446456909 58.99614691734314,36.49199604988098 58.99614691734314,36.49199604988098 59.04192328453064,36.10970675945282 59.04192328453064,36.10970675945282 59.1164767742157,35.745567083358765 59.1164767742157,35.745567083358765 59.22764539718628,35.43793857097626 59.22764539718628,35.43793857097626 59.38328504562378,35.225242376327515 59.38328504562378,35.225242376327515 59.59123969078064,35.14578938484192 59.59123969078064,35.14578938484192 59.8480224609375,35.12660562992096 59.8480224609375,35.12660562992096 60.036468505859375,35.072219371795654 60.036468505859375,35.072219371795654 60.1622998714447,34.987205266952515 60.1622998714447,34.987205266952515 60.23123860359192,34.87636148929596 60.23123860359192,34.87636148929596 60.249221324920654,34.74426567554474 60.249221324920654,34.74426567554474 60.22197604179382,34.595492482185364 60.22197604179382,34.595492482185364 60.15532612800598,34.434837102890015 60.15532612800598,34.434837102890015" stroke="white" stroke-width="0.1" /></svg>