<?xml version="1.0" encoding="utf-8" ?>
<svg baseProfile="full" height="82.9130470752716" version="1.1" width="99.99280571937561" xmlns="http://www.w3.org/2000/svg" xmlns:ev="http://www.w3.org/2001/xml-events" xmlns:xlink="http://www.w3.org/1999/xlink"><defs><clipPath /></defs><polygon points="99.04084205627441,80.1018476486206 99.04084205627441,80.1018476486206 98.38992357254028,80.87443113327026 98.38992357254028,80.87443113327026 97.62041568756104,81.52161836624146 97.62041568756104,81.52161836624146 96.75314426422119,82.03702569007874 96.75314426422119,82.03702569007874 95.80848217010498,82.41428732872009 95.80848217010498,82.41428732872009 94.80725526809692,82.64701962471008 94.80725526809692,82.64701962471008 93.77016425132751,82.72884488105774 93.77016425132751,82.72884488105774 92.71792769432068,82.65339732170105 92.71792769432068,82.65339732170105 91.67102575302124,82.41428732872009 91.67102575302124,82.41428732872009 50.1168429851532,69.41857933998108 50.1168429851532,69.41857933998108 8.34641307592392,82.59565234184265 8.34641307592392,82.59565234184265 8.086895197629929,82.67138004302979 8.086895197629929,82.67138004302979 7.826179265975952,82.73647427558899 7.826179265975952,82.73647427558899 7.564808428287506,82.79110789299011 7.564808428287506,82.79110789299011 7.302675396203995,82.83544182777405 7.302675396203995,82.83544182777405 7.040214538574219,82.86964297294617 7.040214538574219,82.86964297294617 6.7778632044792175,82.89386630058289 6.7778632044792175,82.89386630058289 6.515621393918991,82.90827870368958 6.515621393918991,82.90827870368958 6.25370591878891,82.9130470752716 6.25370591878891,82.9130470752716 5.472755432128906,82.86885023117065 5.472755432128906,82.86885023117065 4.708045721054077,82.73822069168091 4.708045721054077,82.73822069168091 3.968513384461403,82.5238823890686 3.968513384461403,82.5238823890686 3.263314813375473,82.22855925559998 3.263314813375473,82.22855925559998 2.6014963164925575,81.85511231422424 2.6014963164925575,81.85511231422424 1.9919954240322113,81.4063012599945 1.9919954240322113,81.4063012599945 1.4437497593462467,80.88489174842834 1.4437497593462467,80.88489174842834 0.9661329910159111,80.29367923736572 0.9661329910159111,80.29367923736572 0.4697691183537245,79.43291664123535 0.4697691183537245,79.43291664123535 0.1512852730229497,78.5301923751831 0.1512852730229497,78.5301923751831 0.008283631905214861,77.60531306266785 0.008283631905214861,77.60531306266785 0.03793031210079789,76.67809128761292 0.03793031210079789,76.67809128761292 0.2382633974775672,75.76836347579956 0.2382633974775672,75.76836347579956 0.6066670175641775,74.89596605300903 0.6066670175641775,74.89596605300903 1.1407433077692986,74.08068180084229 1.1407433077692986,74.08068180084229 1.8380941823124886,73.34240078926086 1.8380941823124886,73.34240078926086 45.67332863807678,34.09368395805359 45.67332863807678,34.09368395805359 46.65777385234833,33.37496817111969 46.65777385234833,33.37496817111969 47.74816036224365,32.86160230636597 47.74816036224365,32.86160230636597 48.90928566455841,32.55358338356018 48.90928566455841,32.55358338356018 50.10550618171692,32.45090842247009 50.10550618171692,32.45090842247009 51.3014018535614,32.55358338356018 51.3014018535614,32.55358338356018 52.461546659469604,32.86160230636597 52.461546659469604,32.86160230636597 53.55041027069092,33.37496817111969 53.55041027069092,33.37496817111969 54.532456398010254,34.09368395805359 54.532456398010254,34.09368395805359 98.16539287567139,73.15754890441895 98.16539287567139,73.15754890441895 98.86056780815125,73.89552593231201 98.86056780815125,73.89552593231201 99.39355254173279,74.71001744270325 99.39355254173279,74.71001744270325 99.76140856742859,75.58130025863647 99.76140856742859,75.58130025863647 99.96206760406494,76.48974657058716 99.96206760406494,76.48974657058716 99.99280571937561,77.41568684577942 99.99280571937561,77.41568684577942 99.85111355781555,78.3394455909729 99.85111355781555,78.3394455909729 99.53458905220032,79.24138307571411 99.53458905220032,79.24138307571411" stroke="white" stroke-width="0.1" /><polygon points="81.5109372138977,31.020891666412354 81.5109372138977,31.020891666412354 81.44978880882263,32.97697305679321 81.44978880882263,32.97697305679321 81.26896619796753,34.90068316459656 81.26896619796753,34.90068316459656 80.97195625305176,36.78842484951019 80.97195625305176,36.78842484951019 80.56311011314392,38.636600971221924 80.56311011314392,38.636600971221924 80.04603981971741,40.441614389419556 80.04603981971741,40.441614389419556 79.42444086074829,42.19987094402313 79.42444086074829,42.19987094402313 78.70234847068787,43.90777051448822 78.70234847068787,43.90777051448822 77.88357734680176,45.56171894073486 77.88357734680176,45.56171894073486 72.3483681678772,40.608978271484375 72.3483681678772,40.608978271484375 72.80582189559937,39.49373960494995 72.80582189559937,39.49373960494995 73.20899367332458,38.35158050060272 73.20899367332458,38.35158050060272 73.55592250823975,37.184104323387146 73.55592250823975,37.184104323387146 73.84465336799622,35.9928160905838 73.84465336799622,35.9928160905838 74.07321333885193,34.779319167137146 74.07321333885193,34.779319167137146 74.23964738845825,33.54510962963104 74.23964738845825,33.54510962963104 74.34199452400208,32.291802763938904 74.34199452400208,32.291802763938904 74.37829375267029,31.020891666412354 74.37829375267029,31.020891666412354 74.38178062438965,31.020891666412354 74.38178062438965,31.020891666412354 73.88836145401001,26.209354400634766 73.88836145401001,26.209354400634766 72.49245643615723,21.728946268558502 72.49245643615723,21.728946268558502 70.28923034667969,17.675089836120605 70.28923034667969,17.675089836120605 67.37383008003235,14.143210649490356 67.37383008003235,14.143210649490356 63.841402530670166,11.228680610656738 63.841402530670166,11.228680610656738 59.78711247444153,9.026869386434555 59.78711247444153,9.026869386434555 55.306100845336914,7.6332032680511475 55.306100845336914,7.6332032680511475 50.49353241920471,7.143106311559677 50.49353241920471,7.143106311559677 45.67954242229462,7.6332032680511475 45.67954242229462,7.6332032680511475 41.19755029678345,9.026869386434555 41.19755029678345,9.026869386434555 37.142497301101685,11.228680610656738 37.142497301101685,11.228680610656738 33.609744906425476,14.143210649490356 33.609744906425476,14.143210649490356 30.694669485092163,17.675089836120605 30.694669485092163,17.675089836120605 28.49264144897461,21.728946268558502 28.49264144897461,21.728946268558502 27.09881067276001,26.209354400634766 27.09881067276001,26.209354400634766 26.608768105506897,31.020891666412354 26.608768105506897,31.020891666412354 26.64615511894226,32.31109380722046 26.64615511894226,32.31109380722046 26.751771569252014,33.58293175697327 26.751771569252014,33.58293175697327 26.923438906669617,34.83484983444214 26.923438906669617,34.83484983444214 27.15897560119629,36.06518805027008 27.15897560119629,36.06518805027008 27.456316351890564,37.27231025695801 27.456316351890564,37.27231025695801 27.81338393688202,38.454580307006836 27.81338393688202,38.454580307006836 28.227999806404114,39.61036503314972 28.227999806404114,39.61036503314972 28.697988390922546,40.73802828788757 28.697988390922546,40.73802828788757 23.162777721881866,45.69425582885742 23.162777721881866,45.69425582885742 22.32940047979355,44.02788281440735 22.32940047979355,44.02788281440735 21.594446897506714,42.30630397796631 21.594446897506714,42.30630397796631 20.96216529607773,40.533143281936646 20.96216529607773,40.533143281936646 20.436155796051025,38.71202766895294 20.436155796051025,38.71202766895294 20.02044767141342,36.84660196304321 20.02044767141342,36.84660196304321 19.71863955259323,34.94052290916443 19.71863955259323,34.94052290916443 19.53476518392563,32.997411489486694 19.53476518392563,32.997411489486694 19.47263777256012,31.020891666412354 19.47263777256012,31.020891666412354 20.10284811258316,24.770429730415344 20.10284811258316,24.770429730415344 21.910423040390015,18.948644399642944 21.910423040390015,18.948644399642944 24.77056533098221,13.680227100849152 24.77056533098221,13.680227100849152 28.55847477912903,9.089759737253189 28.55847477912903,9.089759737253189 33.14956724643707,5.301878601312637 33.14956724643707,5.301878601312637 38.41882944107056,2.4412188678979874 38.41882944107056,2.4412188678979874 44.24178600311279,0.6323898676782846 44.24178600311279,0.6323898676782846 50.49353241920471,0.0 50.49353241920471,0.0 56.74505829811096,0.6323898676782846 56.74505829811096,0.6323898676782846 62.56779432296753,2.4412188678979874 62.56779432296753,2.4412188678979874 67.83651113510132,5.301878601312637 67.83651113510132,5.301878601312637 72.42684364318848,9.089759737253189 72.42684364318848,9.089759737253189 76.21409893035889,13.680227100849152 76.21409893035889,13.680227100849152 79.07369136810303,18.948644399642944 79.07369136810303,18.948644399642944 80.88083267211914,24.770401418209076 80.88083267211914,24.770401418209076" stroke="white" stroke-width="0.1" /><polygon points="70.29751539230347,31.017404794692993 70.29751539230347,31.017404794692993 70.27767896652222,31.894269585609436 70.27767896652222,31.894269585609436 70.21859884262085,32.76121914386749 70.21859884262085,32.76121914386749 70.12181282043457,33.61753821372986 70.12181282043457,33.61753821372986 69.98840570449829,34.462523460388184 69.98840570449829,34.462523460388184 69.81946229934692,35.295408964157104 69.81946229934692,35.295408964157104 69.61629390716553,36.115434765815735 69.61629390716553,36.115434765815735 69.3798840045929,36.92188858985901 69.3798840045929,36.92188858985901 69.1116452217102,37.71406710147858 69.1116452217102,37.71406710147858 63.7159526348114,32.876425981521606 63.7159526348114,32.876425981521606 63.74810338020325,32.64750838279724 63.74810338020325,32.64750838279724 63.78069519996643,32.41820931434631 63.78069519996643,32.41820931434631 63.812410831451416,32.188284397125244 63.812410831451416,32.188284397125244 63.84150981903076,31.95737898349762 63.84150981903076,31.95737898349762 63.86680006980896,31.725165247917175 63.86680006980896,31.725165247917175 63.88663649559021,31.491315364837646 63.88663649559021,31.491315364837646 63.89971375465393,31.255504488945007 63.89971375465393,31.255504488945007 63.90429139137268,31.017404794692993 63.90429139137268,31.017404794692993 63.627880811691284,28.31549644470215 63.627880811691284,28.31549644470215 62.844640016555786,25.79909861087799 62.844640016555786,25.79909861087799 61.60809397697449,23.521971702575684 61.60809397697449,23.521971702575684 59.971314668655396,21.53787761926651 59.971314668655396,21.53787761926651 57.987821102142334,19.900552928447723 57.987821102142334,19.900552928447723 55.71091175079346,18.66372972726822 55.71091175079346,18.66372972726822 53.19377779960632,17.88117289543152 53.19377779960632,17.88117289543152 50.490039587020874,17.606641352176666 50.490039587020874,17.606641352176666 47.78620004653931,17.88117289543152 47.78620004653931,17.88117289543152 45.26863098144531,18.66372972726822 45.26863098144531,18.66372972726822 42.99117624759674,19.900552928447723 42.99117624759674,19.900552928447723 41.00702702999115,21.53787761926651 41.00702702999115,21.53787761926651 39.36970233917236,23.521971702575684 39.36970233917236,23.521971702575684 38.1323903799057,25.79909861087799 38.1323903799057,25.79909861087799 37.34882473945618,28.31549644470215 37.34882473945618,28.31549644470215 37.072303891181946,31.017404794692993 37.072303891181946,31.017404794692993 37.07677125930786,31.27874732017517 37.07677125930786,31.27874732017517 37.08985149860382,31.537312269210815 37.08985149860382,31.537312269210815 37.110015749931335,31.793585419654846 37.110015749931335,31.793585419654846 37.136393785476685,32.0480614900589 37.136393785476685,32.0480614900589 37.167781591415405,32.30123221874237 37.167781591415405,32.30123221874237 37.203314900398254,32.55358338356018 37.203314900398254,32.55358338356018 37.24157214164734,32.805606722831726 37.24157214164734,32.805606722831726 37.2815728187561,33.057793974876404 37.2815728187561,33.057793974876404 31.92075490951538,37.853580713272095 31.92075490951538,37.853580713272095 31.64118230342865,37.04668879508972 31.64118230342865,37.04668879508972 31.394746899604797,36.224812269210815 31.394746899604797,36.224812269210815 31.1824232339859,35.38860082626343 31.1824232339859,35.38860082626343 31.005632877349854,34.53882038593292 31.005632877349854,34.53882038593292 30.865684151649475,33.67609679698944 30.865684151649475,33.67609679698944 30.763664841651917,32.80116319656372 30.763664841651917,32.80116319656372 30.701100826263428,31.914708018302917 30.701100826263428,31.914708018302917 30.6790828704834,31.017404794692993 30.6790828704834,31.017404794692993 31.083455681800842,27.025920152664185 31.083455681800842,27.025920152664185 32.238805294036865,23.30806851387024 32.238805294036865,23.30806851387024 34.065455198287964,19.94352489709854 34.065455198287964,19.94352489709854 36.484163999557495,17.011962831020355 36.484163999557495,17.011962831020355 39.41526412963867,14.593115448951721 39.41526412963867,14.593115448951721 42.779725790023804,12.766711413860321 42.779725790023804,12.766711413860321 46.497657895088196,11.61242499947548 46.497657895088196,11.61242499947548 50.490039587020874,11.209933459758759 50.490039587020874,11.209933459758759 54.4843852519989,11.61242499947548 54.4843852519989,11.61242499947548 58.20384621620178,12.766711413860321 58.20384621620178,12.766711413860321 61.56852841377258,14.59314227104187 61.56852841377258,14.59314227104187 64.49940800666809,17.011962831020355 64.49940800666809,17.011962831020355 66.91702604293823,19.943496584892273 66.91702604293823,19.943496584892273 68.74215006828308,23.30806851387024 68.74215006828308,23.30806851387024 69.89554166793823,27.025946974754333 69.89554166793823,27.025946974754333" stroke="white" stroke-width="0.1" /></svg>