<?xml version="1.0" encoding="utf-8" ?>
<svg baseProfile="full" height="49.19259548187256" version="1.1" width="100.0" xmlns="http://www.w3.org/2000/svg" xmlns:ev="http://www.w3.org/2001/xml-events" xmlns:xlink="http://www.w3.org/1999/xlink"><defs><clipPath /></defs><polygon points="82.92062282562256,49.19259548187256 82.92062282562256,49.19259548187256 83.05103182792664,49.135810136795044 83.05103182792664,49.135810136795044 83.17795395851135,49.072813987731934 83.17795395851135,49.072813987731934 83.30110907554626,49.00387525558472 83.30110907554626,49.00387525558472 83.42024087905884,48.92905354499817 83.42024087905884,48.92905354499817 83.53511691093445,48.84856343269348 83.53511691093445,48.84856343269348 83.6455225944519,48.76273274421692 83.6455225944519,48.76273274421692 83.75118970870972,48.67156147956848 83.75118970870972,48.67156147956848 83.85184407234192,48.5752671957016 83.85184407234192,48.5752671957016 84.0309739112854,48.37864637374878 84.0309739112854,48.37864637374878 84.19069647789001,48.164916038513184 84.19069647789001,48.164916038513184 84.32966470718384,47.935324907302856 84.32966470718384,47.935324907302856 84.44650173187256,47.69113063812256 84.44650173187256,47.69113063812256 84.53980088233948,47.43352830410004 84.53980088233948,47.43352830410004 84.60813760757446,47.163718938827515 84.60813760757446,47.163718938827515 84.65015292167664,46.882957220077515 84.65015292167664,46.882957220077515 84.66448187828064,46.59249782562256 84.66448187828064,46.59249782562256 84.60764288902283,46.03091776371002 84.60764288902283,46.03091776371002 84.44459438323975,45.50737738609314 84.44459438323975,45.50737738609314 84.18644666671753,45.033156871795654 84.18644666671753,45.033156871795654 83.84443521499634,44.61975395679474 83.84443521499634,44.61975395679474 83.42966437339783,44.2783921957016 83.42966437339783,44.2783921957016 82.95326828956604,44.02051866054535 82.95326828956604,44.02051866054535 82.42645859718323,43.85746717453003 82.42645859718323,43.85746717453003 81.86035752296448,43.80057454109192 81.86035752296448,43.80057454109192 73.99553656578064,43.80057454109192 73.99553656578064,43.80057454109192 68.86509656906128,43.80057454109192 68.86509656906128,43.80057454109192 66.52134656906128,43.80057454109192 66.52134656906128,43.80057454109192 66.49088263511658,43.616271018981934 66.49088263511658,43.616271018981934 66.45944118499756,43.43218207359314 66.45944118499756,43.43218207359314 66.42663478851318,43.248313665390015 66.42663478851318,43.248313665390015 66.39230251312256,43.06488335132599 66.39230251312256,43.06488335132599 66.35595560073853,42.881885170936584 66.35595560073853,42.881885170936584 66.31731390953064,42.699214816093445 66.31731390953064,42.699214816093445 66.2760078907013,42.517200112342834 66.2760078907013,42.517200112342834 66.23186469078064,42.33573079109192 66.23186469078064,42.33573079109192 66.14946722984314,42.0200914144516 66.14946722984314,42.0200914144516 66.06172919273376,41.70641303062439 66.06172919273376,41.70641303062439 65.96859693527222,41.395026445388794 65.96859693527222,41.395026445388794 65.8700168132782,41.0862535238266 65.8700168132782,41.0862535238266 65.76582193374634,40.78042209148407 65.76582193374634,40.78042209148407 65.65606594085693,40.47786295413971 65.65606594085693,40.47786295413971 65.54058790206909,40.17895460128784 65.54058790206909,40.17895460128784 65.41922688484192,39.8838609457016 65.41922688484192,39.8838609457016 65.29617309570312,39.601901173591614 65.29617309570312,39.601901173591614 65.16778469085693,39.322444796562195 65.16778469085693,39.322444796562195 65.03432393074036,39.04571831226349 65.03432393074036,39.04571831226349 64.89607095718384,38.77193033695221 64.89607095718384,38.77193033695221 64.75323438644409,38.5013610124588 64.75323438644409,38.5013610124588 64.60604071617126,38.23422193527222 64.60604071617126,38.23422193527222 64.45481777191162,37.97062635421753 64.45481777191162,37.97062635421753 64.29966688156128,37.7110093832016 64.29966688156128,37.7110093832016 70.91587781906128,31.10002875328064 70.91587781906128,31.10002875328064 75.87891221046448,26.14571750164032 75.87891221046448,26.14571750164032 83.51004719734192,18.49888414144516 83.51004719734192,18.49888414144516 83.7737500667572,18.208585679531097 83.7737500667572,18.208585679531097 84.00241732597351,17.9003044962883 84.00241732597351,17.9003044962883 84.19603705406189,17.576272785663605 84.19603705406189,17.576272785663605 84.3545138835907,17.23872721195221 84.3545138835907,17.23872721195221 84.47788953781128,16.890063881874084 84.47788953781128,16.890063881874084 84.56600904464722,16.532354056835175 84.56600904464722,16.532354056835175 84.61892604827881,16.168104112148285 84.61892604827881,16.168104112148285 84.63658094406128,15.79938679933548 84.63658094406128,15.79938679933548 84.63549017906189,15.729305148124695 84.63549017906189,15.729305148124695 84.6323311328888,15.65922349691391 84.6323311328888,15.65922349691391 84.62742567062378,15.588979423046112 84.62742567062378,15.588979423046112 84.62088704109192,15.51884263753891 84.62088704109192,15.51884263753891 84.61304306983948,15.448760986328125 84.61304306983948,15.448760986328125 84.60420966148376,15.378789603710175 84.60420966148376,15.378789603710175 84.59451198577881,15.309034287929535 84.59451198577881,15.309034287929535 84.58426594734192,15.23960679769516 84.58426594734192,15.23960679769516 87.59057521820068,18.665750324726105 87.59057521820068,18.665750324726105 90.32467603683472,22.365352511405945 90.32467603683472,22.365352511405945 92.76853799819946,26.318469643592834 92.76853799819946,26.318469643592834 94.90400552749634,30.50537109375 94.90400552749634,30.50537109375 96.71304225921631,34.906116127967834 96.71304225921631,34.906116127967834 98.17739725112915,39.500755071640015 98.17739725112915,39.500755071640015 99.27913546562195,44.269564747810364 99.27913546562195,44.269564747810364 100.0,49.19259548187256 100.0,49.19259548187256" stroke="white" stroke-width="0.1" /><polygon points="70.4903781414032,20.68743109703064 70.4903781414032,20.68743109703064 65.53781032562256,25.65743625164032 65.53781032562256,25.65743625164032 58.935546875,32.26318359375 58.935546875,32.26318359375 58.67658853530884,32.10465610027313 58.67658853530884,32.10465610027313 58.41495394706726,31.94972574710846 58.41495394706726,31.94972574710846 58.15059542655945,31.79861009120941 58.15059542655945,31.79861009120941 57.8835666179657,31.65174424648285 57.8835666179657,31.65174424648285 57.61370062828064,31.509345769882202 57.61370062828064,31.509345769882202 57.341063022613525,31.371745467185974 57.341063022613525,31.371745467185974 57.06552863121033,31.239265203475952 57.06552863121033,31.239265203475952 56.787109375,31.11223578453064 56.787109375,31.11223578453064 56.495994329452515,30.985969305038452 56.495994329452515,30.985969305038452 56.20095729827881,30.86395263671875 56.20095729827881,30.86395263671875 55.90232014656067,30.746841430664062 55.90232014656067,30.746841430664062 55.60041666030884,30.63529133796692 55.60041666030884,30.63529133796692 55.2956223487854,30.529949069023132 55.2956223487854,30.529949069023132 54.98809814453125,30.43147623538971 54.98809814453125,30.43147623538971 54.6782910823822,30.340576171875 54.6782910823822,30.340576171875 54.36663031578064,30.25774359703064 54.36663031578064,30.25774359703064 54.175353050231934,30.204936861991882 54.175353050231934,30.204936861991882 53.98319959640503,30.156108736991882 53.98319959640503,30.156108736991882 53.79006862640381,30.11082410812378 53.79006862640381,30.11082410812378 53.5958468914032,30.06853461265564 53.5958468914032,30.06853461265564 53.40031385421753,30.02886176109314 53.40031385421753,30.02886176109314 53.20326089859009,29.991424083709717 53.20326089859009,29.991424083709717 53.00456881523132,29.95561957359314 53.00456881523132,29.95561957359314 52.80413031578064,29.92118000984192 52.80413031578064,29.92118000984192 52.80413031578064,27.73960828781128 52.80413031578064,27.73960828781128 52.80413031578064,22.5969597697258 52.80413031578064,22.5969597697258 52.80413031578064,14.73039984703064 52.80413031578064,14.73039984703064 52.74718403816223,14.16953057050705 52.74718403816223,14.16953057050705 52.583861351013184,13.64680826663971 52.583861351013184,13.64680826663971 52.32555270195007,13.17334920167923 52.32555270195007,13.17334920167923 51.983642578125,12.76049017906189 51.983642578125,12.76049017906189 51.5694797039032,12.419510632753372 51.5694797039032,12.419510632753372 51.094383001327515,12.161637097597122 51.094383001327515,12.161637097597122 50.56980848312378,11.998149752616882 50.56980848312378,11.998149752616882 50.0069797039032,11.94022074341774 50.0069797039032,11.94022074341774 49.718478322029114,11.95417195558548 49.718478322029114,11.95417195558548 49.439406394958496,11.99515238404274 49.439406394958496,11.99515238404274 49.170905351638794,12.06207349896431 49.170905351638794,12.06207349896431 48.9140123128891,12.15362623333931 48.9140123128891,12.15362623333931 48.66970777511597,12.268666177988052 48.66970777511597,12.268666177988052 48.43897223472595,12.405886501073837 48.43897223472595,12.405886501073837 48.22284281253815,12.564250826835632 48.22284281253815,12.564250826835632 48.02246391773224,12.74239718914032 48.02246391773224,12.74239718914032 47.84006476402283,12.941960990428925 47.84006476402283,12.941960990428925 47.6781040430069,13.15896213054657 47.6781040430069,13.15896213054657 47.53783345222473,13.391658663749695 47.53783345222473,13.391658663749695 47.42039442062378,13.6383056640625 47.42039442062378,13.6383056640625 47.326987981796265,13.897214829921722 47.326987981796265,13.897214829921722 47.25881516933441,14.16669636964798 47.25881516933441,14.16669636964798 47.21701741218567,14.445005357265472 47.21701741218567,14.445005357265472 47.20284938812256,14.73039984703064 47.20284938812256,14.73039984703064 47.20284938812256,22.63706922531128 47.20284938812256,22.63706922531128 47.20284938812256,27.7622789144516 47.20284938812256,27.7622789144516 47.20284938812256,29.92118000984192 47.20284938812256,29.92118000984192 47.0036119222641,29.955673217773438 47.0036119222641,29.955673217773438 46.806010603904724,29.991424083709717 46.806010603904724,29.991424083709717 46.60950005054474,30.028915405273438 46.60950005054474,30.028915405273438 46.41374945640564,30.06853461265564 46.41374945640564,30.06853461265564 46.218329668045044,30.11082410812378 46.218329668045044,30.11082410812378 46.022799611091614,30.156055092811584 46.022799611091614,30.156055092811584 45.82677781581879,30.20499348640442 45.82677781581879,30.20499348640442 45.62988579273224,30.25774359703064 45.62988579273224,30.25774359703064 45.319750905036926,30.340522527694702 45.319750905036926,30.340522527694702 45.01184821128845,30.43147623538971 45.01184821128845,30.43147623538971 44.706183671951294,30.529895424842834 44.706183671951294,30.529895424842834 44.40264105796814,30.63529133796692 44.40264105796814,30.63529133796692 44.101279973983765,30.746787786483765 44.101279973983765,30.746787786483765 43.80193650722504,30.86395263671875 43.80193650722504,30.86395263671875 43.504661321640015,30.985915660858154 43.504661321640015,30.985915660858154 43.20940375328064,31.11223578453064 43.20940375328064,31.11223578453064 42.935729026794434,31.239157915115356 42.935729026794434,31.239157915115356 42.6640123128891,31.371307373046875 42.6640123128891,31.371307373046875 42.394259572029114,31.508418917655945 42.394259572029114,31.508418917655945 42.12646782398224,31.65043592453003 42.12646782398224,31.65043592453003 41.860637068748474,31.79708421230316 41.860637068748474,31.79708421230316 41.59676730632782,31.94819986820221 41.59676730632782,31.94819986820221 41.33491814136505,32.10367560386658 41.33491814136505,32.10367560386658 41.07491672039032,32.26318359375 41.07491672039032,32.26318359375 34.47265923023224,25.65569281578064 34.47265923023224,25.65569281578064 29.52357828617096,20.68743109703064 29.52357828617096,20.68743109703064 21.9133660197258,13.08245062828064 21.9133660197258,13.08245062828064 21.578380465507507,12.788064777851105 21.578380465507507,12.788064777851105 21.219472587108612,12.540218234062195 21.219472587108612,12.540218234062195 20.840564370155334,12.338529527187347 20.840564370155334,12.338529527187347 20.4454705119133,12.18283548951149 20.4454705119133,12.18283548951149 20.038169622421265,12.072590738534927 20.038169622421265,12.072590738534927 19.622422754764557,12.00757771730423 19.622422754764557,12.00757771730423 19.202205538749695,11.987468600273132 19.202205538749695,11.987468600273132 18.78139078617096,12.01171949505806 18.78139078617096,12.01171949505806 22.135326266288757,9.314347058534622 22.135326266288757,9.314347058534622 25.688934326171875,6.92334920167923 25.688934326171875,6.92334920167923 29.426467418670654,4.856491461396217 29.426467418670654,4.856491461396217 33.33217203617096,3.13132181763649 33.33217203617096,3.13132181763649 37.39019334316254,1.7656054347753525 37.39019334316254,1.7656054347753525 41.584888100624084,0.7769993506371975 41.584888100624084,0.7769993506371975 45.90034782886505,0.18315997440367937 45.90034782886505,0.18315997440367937 50.32087564468384,0.0017438616850995459 50.32087564468384,0.0017438616850995459 54.65458631515503,0.23662024177610874 54.65458631515503,0.23662024177610874 58.88296365737915,0.867244228720665 58.88296365737915,0.867244228720665 62.991225719451904,1.8765587359666824 62.991225719451904,1.8765587359666824 66.96472764015198,3.24772447347641 66.96472764015198,3.24772447347641 70.78858017921448,4.963738843798637 70.78858017921448,4.963738843798637 74.44812655448914,7.0077084004879 74.44812655448914,7.0077084004879 77.92848944664001,9.362738579511642 77.92848944664001,9.362738579511642 81.21512532234192,12.01171949505806 81.21512532234192,12.01171949505806 80.79659938812256,11.98904886841774 80.79659938812256,11.98904886841774 80.3781270980835,12.010302394628525 80.3781270980835,12.010302394628525 79.96369004249573,12.07580640912056 79.96369004249573,12.07580640912056 79.5571506023407,12.18610554933548 79.5571506023407,12.18610554933548 79.1625440120697,12.341472506523132 79.1625440120697,12.341472506523132 78.78391146659851,12.542398273944855 78.78391146659851,12.542398273944855 78.42510938644409,12.78926432132721 78.42510938644409,12.78926432132721 78.09012532234192,13.08245062828064 78.09012532234192,13.08245062828064" stroke="white" stroke-width="0.1" /><polygon points="24.12807047367096,26.14571750164032 24.12807047367096,26.14571750164032 29.08412516117096,31.10002875328064 29.08412516117096,31.10002875328064 35.70731282234192,37.7110093832016 35.70731282234192,37.7110093832016 35.551345348358154,37.97067999839783 35.551345348358154,37.97067999839783 35.400012135505676,38.23416829109192 35.400012135505676,38.23416829109192 35.25330722332001,38.5013610124588 35.25330722332001,38.5013610124588 35.11134684085846,38.77193033695221 35.11134684085846,38.77193033695221 34.974128007888794,39.04566168785095 34.974128007888794,39.04566168785095 34.84164774417877,39.322444796562195 34.84164774417877,39.322444796562195 34.71401929855347,39.60184454917908 34.71401929855347,39.60184454917908 34.59123969078064,39.8838609457016 34.59123969078064,39.8838609457016 34.467753767967224,40.178900957107544 34.467753767967224,40.178900957107544 34.35080647468567,40.47786295413971 34.35080647468567,40.47786295413971 34.24006998538971,40.78042209148407 34.24006998538971,40.78042209148407 34.13521945476532,41.0862535238266 34.13521945476532,41.0862535238266 34.035930037498474,41.395026445388794 34.035930037498474,41.395026445388794 33.94187092781067,41.70641303062439 33.94187092781067,41.70641303062439 33.85271430015564,42.0200914144516 33.85271430015564,42.0200914144516 33.7681382894516,42.33573079109192 33.7681382894516,42.33573079109192 33.72780978679657,42.517200112342834 33.72780978679657,42.517200112342834 33.688193559646606,42.699214816093445 33.688193559646606,42.699214816093445 33.649665117263794,42.88183152675629 33.649665117263794,42.88183152675629 33.6124986410141,43.06488335132599 33.6124986410141,43.06488335132599 33.57718586921692,43.24837028980255 33.57718586921692,43.24837028980255 33.54399800300598,43.43218207359314 33.54399800300598,43.43218207359314 33.51337015628815,43.616271018981934 33.51337015628815,43.616271018981934 33.48563313484192,43.80057454109192 33.48563313484192,43.80057454109192 31.33370578289032,43.80057454109192 31.33370578289032,43.80057454109192 26.20326578617096,43.80057454109192 26.20326578617096,43.80057454109192 18.13616156578064,43.80057454109192 18.13616156578064,43.80057454109192 17.851640284061432,43.815287947654724 17.851640284061432,43.815287947654724 17.574529349803925,43.85834038257599 17.574529349803925,43.85834038257599 17.306409776210785,43.928202986717224 17.306409776210785,43.928202986717224 17.0488640666008,44.02335286140442 17.0488640666008,44.02335286140442 16.803361475467682,44.142261147499084 16.803361475467682,44.142261147499084 16.571590304374695,44.28318738937378 16.571590304374695,44.28318738937378 16.354970633983612,44.44471299648285 16.354970633983612,44.44471299648285 16.15513414144516,44.62541937828064 16.15513414144516,44.62541937828064 15.975570678710938,44.822531938552856 15.975570678710938,44.822531938552856 15.81464558839798,45.03626227378845 15.81464558839798,45.03626227378845 15.673992037773132,45.265308022499084 15.673992037773132,45.265308022499084 15.55524617433548,45.5082505941391 15.55524617433548,45.5082505941391 15.460042655467987,45.763835310935974 15.460042655467987,45.763835310935974 15.3900146484375,46.03053629398346 15.3900146484375,46.03053629398346 15.346799790859222,46.307265758514404 15.346799790859222,46.307265758514404 15.33203125,46.59249782562256 15.33203125,46.59249782562256 15.365056693553925,47.025519609451294 15.365056693553925,47.025519609451294 15.460805594921112,47.43723273277283 15.460805594921112,47.43723273277283 15.61431884765625,47.822898626327515 15.61431884765625,47.822898626327515 15.82074910402298,48.17766547203064 15.82074910402298,48.17766547203064 16.075025498867035,48.496848344802856 16.075025498867035,48.496848344802856 16.372299194335938,48.775485157966614 16.372299194335938,48.775485157966614 16.70750230550766,49.00905191898346 16.70750230550766,49.00905191898346 17.07589328289032,49.19259548187256 17.07589328289032,49.19259548187256 0.0,49.19259548187256 0.0,49.19259548187256 0.7213592994958162,44.26166117191315 0.7213592994958162,44.26166117191315 1.8242428079247475,39.487239718437195 1.8242428079247475,39.487239718437195 3.290339931845665,34.88900363445282 3.290339931845665,34.88900363445282 5.10123148560524,30.48640787601471 5.10123148560524,30.48640787601471 7.238606363534927,26.299014687538147 7.238606363534927,26.299014687538147 9.684154391288757,22.34649807214737 9.684154391288757,22.34649807214737 12.419510632753372,18.64820271730423 12.419510632753372,18.64820271730423 15.42620062828064,15.2239128947258 15.42620062828064,15.2239128947258 15.415792167186737,15.29628336429596 15.415792167186737,15.29628336429596 15.40571004152298,15.368270874023438 15.40571004152298,15.368270874023438 15.396282076835632,15.440042316913605 15.396282076835632,15.440042316913605 15.38783609867096,15.51164984703064 15.38783609867096,15.51164984703064 15.380696952342987,15.583257377147675 15.380696952342987,15.583257377147675 15.37519246339798,15.654973685741425 15.37519246339798,15.654973685741425 15.371595323085785,15.72701632976532 15.371595323085785,15.72701632976532 15.3703972697258,15.79938679933548 15.3703972697258,15.79938679933548 15.38805365562439,16.168104112148285 15.38805365562439,16.168104112148285 15.440914034843445,16.532407701015472 15.440914034843445,16.532407701015472 15.528979897499084,16.890117526054382 15.528979897499084,16.890117526054382 15.65203070640564,17.23894476890564 15.65203070640564,17.23894476890564 15.810123085975647,17.576654255390167 15.810123085975647,17.576654255390167 16.003091633319855,17.901067435741425 16.003091633319855,17.901067435741425 16.230884194374084,18.209730088710785 16.230884194374084,18.209730088710785 16.4934441447258,18.50062906742096 16.4934441447258,18.50062906742096" stroke="white" stroke-width="0.1" /></svg>