<?xml version="1.0" encoding="utf-8" ?>
<svg baseProfile="full" height="62.13735342025757" version="1.1" width="74.7749388217926" xmlns="http://www.w3.org/2000/svg" xmlns:ev="http://www.w3.org/2001/xml-events" xmlns:xlink="http://www.w3.org/1999/xlink"><defs><clipPath /></defs><polygon points="65.70121645927429,36.1736536026001 65.70121645927429,36.1736536026001 64.90893363952637,31.262829899787903 64.90893363952637,31.262829899787903 62.712132930755615,26.993361115455627 62.712132930755615,26.993361115455627 59.36340689659119,23.617032170295715 59.36340689659119,23.617032170295715 55.1153838634491,21.385523676872253 55.1153838634491,21.385523676872253 50.22062063217163,20.550823211669922 50.22062063217163,20.550823211669922 50.22062063217163,17.998740077018738 50.22062063217163,17.998740077018738 55.92278242111206,18.964459002017975 55.92278242111206,18.964459002017975 60.87070107460022,21.557655930519104 60.87070107460022,21.557655930519104 64.77097868919373,25.485384464263916 64.77097868919373,25.485384464263916 67.33018755912781,30.454444885253906 67.33018755912781,30.454444885253906 68.25491786003113,36.172035336494446 68.25491786003113,36.172035336494446 66.97806715965271,36.1736536026001 66.97806715965271,36.1736536026001 68.25491786003113,36.1736536026001 68.25491786003113,36.1736536026001 68.25461387634277,36.17516756057739 68.25461387634277,36.17516756057739 68.25398206710815,36.17870211601257 68.25398206710815,36.17870211601257 68.25352907180786,36.18314862251282 68.25352907180786,36.18314862251282 68.25368404388428,36.18673384189606 68.25368404388428,36.18673384189606 68.25491786003113,36.18819713592529 68.25491786003113,36.18819713592529 68.25391054153442,36.26754581928253 68.25391054153442,36.26754581928253 68.25150847434998,36.346593499183655 68.25150847434998,36.346593499183655 68.24864149093628,36.4254355430603 68.24864149093628,36.4254355430603 68.24623346328735,36.504027247428894 68.24623346328735,36.504027247428894 68.24522018432617,36.582568287849426 68.24522018432617,36.582568287849426 65.68828821182251,36.582568287849426 65.68828821182251,36.582568287849426 65.69212675094604,36.504581570625305 65.69212675094604,36.504581570625305 65.69562554359436,36.42604351043701 65.69562554359436,36.42604351043701 65.69854021072388,36.34709715843201 65.69854021072388,36.34709715843201 65.70050120353699,36.26774847507477 65.70050120353699,36.26774847507477 65.70121645927429,36.18819713592529 65.70121645927429,36.18819713592529" stroke="white" stroke-width="0.1" /><polygon points="41.602689027786255,36.605194211006165 41.602689027786255,36.605194211006165 41.990795731544495,34.204283356666565 41.990795731544495,34.204283356666565 43.06209087371826,32.11732804775238 43.06209087371826,32.11732804775238 44.694456458091736,30.465605854988098 44.694456458091736,30.465605854988098 46.76575064659119,29.370081424713135 46.76575064659119,29.370081424713135 49.15388524532318,28.95217537879944 49.15388524532318,28.95217537879944 49.15388524532318,37.437573075294495 49.15388524532318,37.437573075294495 56.87317252159119,37.437573075294495 56.87317252159119,37.437573075294495 56.30089044570923,39.62023854255676 56.30089044570923,39.62023854255676 55.152177810668945,41.49601757526398 55.152177810668945,41.49601757526398 53.52867841720581,42.96318292617798 53.52867841720581,42.96318292617798 51.531994342803955,43.91991198062897 51.531994342803955,43.91991198062897 49.263790249824524,44.26468014717102 49.263790249824524,44.26468014717102 46.84436619281769,43.87122094631195 46.84436619281769,43.87122094631195 44.743308424949646,42.78367459774017 44.743308424949646,42.78367459774017 43.085891008377075,41.127052903175354 43.085891008377075,41.127052903175354 41.997259855270386,39.02590870857239 41.997259855270386,39.02590870857239" stroke="white" stroke-width="0.1" /><polygon points="66.9263482093811,21.96020781993866 66.9263482093811,21.96020781993866 66.18643999099731,21.82701677083969 66.18643999099731,21.82701677083969 65.54396152496338,21.456235647201538 65.54396152496338,21.456235647201538 65.03741145133972,20.891299843788147 65.03741145133972,20.891299843788147 64.70527052879333,20.17529457807541 64.70527052879333,20.17529457807541 64.5859956741333,19.351553916931152 64.5859956741333,19.351553916931152 64.70527052879333,18.526045978069305 64.70527052879333,18.526045978069305 65.03741145133972,17.809736728668213 65.03741145133972,17.809736728668213 65.54397344589233,17.24550873041153 65.54397344589233,17.24550873041153 66.18642807006836,16.8756365776062 66.18642807006836,16.8756365776062 66.9263482093811,16.742901504039764 66.9263482093811,16.742901504039764 67.66625642776489,16.8756365776062 67.66625642776489,16.8756365776062 68.30873489379883,17.24545806646347 68.30873489379883,17.24545806646347 68.81528496742249,17.80983805656433 68.81528496742249,17.80983805656433 69.14743781089783,18.525995314121246 69.14743781089783,18.525995314121246 69.2667007446289,19.351553916931152 69.2667007446289,19.351553916931152 69.14743781089783,20.17524391412735 69.14743781089783,20.17524391412735 68.81528496742249,20.891200006008148 68.81528496742249,20.891200006008148 68.30873489379883,21.456286311149597 68.30873489379883,21.456286311149597 67.66626834869385,21.82706743478775 67.66626834869385,21.82706743478775" stroke="white" stroke-width="0.1" /><polygon points="49.276721477508545,54.79788780212402 49.276721477508545,54.79788780212402 54.87218499183655,53.91409397125244 54.87218499183655,53.91409397125244 59.760582447052,51.46130919456482 59.760582447052,51.46130919456482 63.66695761680603,47.71459996700287 63.66695761680603,47.71459996700287 66.31636023521423,42.94833242893219 66.31636023521423,42.94833242893219 67.43385791778564,37.437573075294495 67.43385791778564,37.437573075294495 74.7749388217926,37.437573075294495 74.7749388217926,37.437573075294495 73.28115105628967,45.271918177604675 73.28115105628967,45.271918177604675 69.58732604980469,52.055686712265015 69.58732604980469,52.055686712265015 64.08926844596863,57.39224553108215 64.08926844596863,57.39224553108215 57.18282461166382,60.88494658470154 57.18282461166382,60.88494658470154 49.263790249824524,62.13735342025757 49.263790249824524,62.13735342025757 41.19426608085632,60.83565354347229 41.19426608085632,60.83565354347229 34.18627679347992,57.21092224121094 34.18627679347992,57.21092224121094 28.660160303115845,51.683950424194336 28.660160303115845,51.683950424194336 25.036251544952393,44.67511177062988 25.036251544952393,44.67511177062988 23.734867572784424,36.605194211006165 23.734867572784424,36.605194211006165 25.029775500297546,28.554928302764893 25.029775500297546,28.554928302764893 28.636372089385986,21.559879183769226 28.636372089385986,21.559879183769226 34.137409925460815,16.03730022907257 34.137409925460815,16.03730022907257 41.11565053462982,12.404236197471619 41.11565053462982,12.404236197471619 49.15388524532318,11.077888309955597 49.15388524532318,11.077888309955597 49.15388524532318,18.41573566198349 49.15388524532318,18.41573566198349 43.43520700931549,19.36933398246765 43.43520700931549,19.36933398246765 38.470908999443054,21.961015462875366 38.470908999443054,21.961015462875366 34.55768823623657,25.894957780838013 34.55768823623657,25.894957780838013 31.992194056510925,30.87497651576996 31.992194056510925,30.87497651576996 31.071099638938904,36.605194211006165 31.071099638938904,36.605194211006165 31.071099638938904,36.6633802652359 31.071099638938904,36.6633802652359 32.012927532196045,42.39708483219147 32.012927532196045,42.39708483219147 34.60102379322052,47.37482964992523 34.60102379322052,47.37482964992523 38.53747844696045,51.29917860031128 38.53747844696045,51.29917860031128 43.52436661720276,53.87267470359802 43.52436661720276,53.87267470359802 49.263790249824524,54.79788780212402 49.263790249824524,54.79788780212402 49.265143275260925,54.796671867370605 49.265143275260925,54.796671867370605 49.268338084220886,54.79647517204285 49.268338084220886,54.79647517204285 49.27217662334442,54.79702949523926 49.27217662334442,54.79702949523926 49.27538335323334,54.79768514633179 49.27538335323334,54.79768514633179" stroke="white" stroke-width="0.1" /><polygon points="57.98516273498535,35.69038808345795 57.98516273498535,35.69038808345795 57.590895891189575,33.269524574279785 57.590895891189575,33.269524574279785 56.50290846824646,31.168177723884583 56.50290846824646,31.168177723884583 54.84594702720642,29.51125204563141 54.84594702720642,29.51125204563141 52.74474620819092,28.42385768890381 52.74474620819092,28.42385768890381 50.32406449317932,28.03090214729309 50.32406449317932,28.03090214729309 50.30461549758911,28.03145945072174 50.30461549758911,28.03145945072174 50.284868478775024,28.03272306919098 50.284868478775024,28.03272306919098 50.26448965072632,28.03443968296051 50.26448965072632,28.03443968296051 50.24317502975464,28.036054968833923 50.24317502975464,28.036054968833923 50.22062063217163,28.03736925125122 50.22062063217163,28.03736925125122 50.22062063217163,25.483667850494385 50.22062063217163,25.483667850494385 50.24317502975464,25.483164191246033 50.24317502975464,25.483164191246033 50.26448965072632,25.481951236724854 50.26448965072632,25.481951236724854 50.284868478775024,25.480586290359497 50.284868478775024,25.480586290359497 50.30461549758911,25.479325652122498 50.30461549758911,25.479325652122498 50.32406449317932,25.478819012641907 50.32406449317932,25.478819012641907 53.55212688446045,25.99925696849823 53.55212688446045,25.99925696849823 56.3553512096405,27.44874358177185 56.3553512096405,27.44874358177185 58.56570601463318,29.65914011001587 58.56570601463318,29.65914011001587 60.01514196395874,32.46240317821503 60.01514196395874,32.46240317821503 60.53563356399536,35.69038808345795 60.53563356399536,35.69038808345795 60.53343415260315,35.87055206298828 60.53343415260315,35.87055206298828 60.52734851837158,36.05010807514191 60.52734851837158,36.05010807514191 60.51818132400513,36.22880578041077 60.51818132400513,36.22880578041077 60.50666570663452,36.406394839286804 60.50666570663452,36.406394839286804 60.49360632896423,36.582568287849426 60.49360632896423,36.582568287849426 57.926976680755615,36.582568287849426 57.926976680755615,36.582568287849426 57.94513821601868,36.40659749507904 57.94513821601868,36.40659749507904 57.96049237251282,36.22966706752777 57.96049237251282,36.22966706752777 57.972609996795654,36.05152368545532 57.972609996795654,36.05152368545532 57.9809844493866,35.87176501750946 57.9809844493866,35.87176501750946" stroke="white" stroke-width="0.1" /><polygon points="33.62480103969574,36.605194211006165 33.62480103969574,36.605194211006165 34.415608644485474,31.68250322341919 34.415608644485474,31.68250322341919 36.61837875843048,27.40268111228943 36.61837875843048,27.40268111228943 39.978671073913574,24.020643532276154 39.978671073913574,24.020643532276154 44.24200356006622,21.791206300258636 44.24200356006622,21.791206300258636 49.15388524532318,20.969437062740326 49.15388524532318,20.969437062740326 49.15388524532318,26.398473978042603 49.15388524532318,26.398473978042603 45.95836400985718,26.943761110305786 45.95836400985718,26.943761110305786 43.185028433799744,28.4018874168396 43.185028433799744,28.4018874168396 40.99929332733154,30.60804009437561 40.99929332733154,30.60804009437561 39.566561579704285,33.397361636161804 39.566561579704285,33.397361636161804 39.052221179008484,36.605194211006165 39.052221179008484,36.605194211006165 39.573025703430176,39.83262479305267 39.573025703430176,39.83262479305267 41.0230815410614,42.63578653335571 41.0230815410614,42.63578653335571 43.2339072227478,44.84643638134003 43.2339072227478,44.84643638134003 46.03697955608368,46.296125650405884 46.03697955608368,46.296125650405884 49.263790249824524,46.816763281822205 49.263790249824524,46.816763281822205 52.33886241912842,46.34526968002319 52.33886241912842,46.34526968002319 55.0370454788208,45.02715468406677 55.0370454788208,45.02715468406677 57.214975357055664,43.00697147846222 57.214975357055664,43.00697147846222 58.72927904129028,40.428876876831055 58.72927904129028,40.428876876831055 59.43657159805298,37.437573075294495 59.43657159805298,37.437573075294495 64.88338708877563,37.437573075294495 64.88338708877563,37.437573075294495 63.89583349227905,42.141613364219666 63.89583349227905,42.141613364219666 61.608338356018066,46.20702862739563 61.608338356018066,46.20702862739563 58.25396776199341,49.401071667671204 58.25396776199341,49.401071667671204 54.065728187561035,51.49040222167969 54.065728187561035,51.49040222167969 49.276721477508545,52.242571115493774 49.276721477508545,52.242571115493774 49.263790249824524,52.242571115493774 49.263790249824524,52.242571115493774 44.32371258735657,51.4460563659668 44.32371258735657,51.4460563659668 40.032196044921875,49.22813177108765 40.032196044921875,49.22813177108765 36.64683997631073,45.84619700908661 36.64683997631073,45.84619700908661 34.4251811504364,41.55753552913666 34.4251811504364,41.55753552913666 33.62480103969574,36.6197407245636 33.62480103969574,36.6197407245636" stroke="white" stroke-width="0.1" /></svg>