<?xml version="1.0" encoding="utf-8" ?>
<svg baseProfile="full" height="57.04988241195679" version="1.1" width="80.17421364784241" xmlns="http://www.w3.org/2000/svg" xmlns:ev="http://www.w3.org/2001/xml-events" xmlns:xlink="http://www.w3.org/1999/xlink"><defs><clipPath /></defs><polygon points="39.21768367290497,28.66956889629364 39.21768367290497,28.66956889629364 45.77697515487671,28.66956889629364 45.77697515487671,28.66956889629364 36.085134744644165,42.83342957496643 36.085134744644165,42.83342957496643 42.79891550540924,57.04988241195679 42.79891550540924,57.04988241195679 36.234694719314575,57.04988241195679 36.234694719314575,57.04988241195679 32.208070158958435,48.55287969112396 32.208070158958435,48.55287969112396 26.39329433441162,57.04988241195679 26.39329433441162,57.04988241195679 19.83236074447632,57.04988241195679 19.83236074447632,57.04988241195679 29.52255606651306,42.83342957496643 29.52255606651306,42.83342957496643 24.404634535312653,32.03057050704956 24.404634535312653,32.03057050704956 22.81370609998703,28.66956889629364 22.81370609998703,28.66956889629364 29.376283288002014,28.66956889629364 29.376283288002014,28.66956889629364 33.40126574039459,37.17150092124939 33.40126574039459,37.17150092124939" stroke="white" stroke-width="0.1" /><polygon points="77.24381685256958,20.24652808904648 77.24381685256958,20.24652808904648 77.77482867240906,20.811590552330017 77.77482867240906,20.811590552330017 78.25579047203064,21.416611969470978 78.25579047203064,21.416611969470978 78.68728637695312,22.061796486377716 78.68728637695312,22.061796486377716 79.0696382522583,22.74760603904724 79.0696382522583,22.74760603904724 79.40340042114258,23.474402725696564 79.40340042114258,23.474402725696564 79.68049049377441,24.231448769569397 79.68049049377441,24.231448769569397 79.89625334739685,25.010991096496582 79.89625334739685,25.010991096496582 80.05061745643616,25.81251561641693 80.05061745643616,25.81251561641693 80.14329671859741,26.635044813156128 80.14329671859741,26.635044813156128 80.17421364784241,27.478018403053284 80.17421364784241,27.478018403053284 80.13258576393127,28.463616967201233 80.13258576393127,28.463616967201233 80.00752329826355,29.43057119846344 80.00752329826355,29.43057119846344 79.79900240898132,30.379241704940796 79.79900240898132,30.379241704940796 79.50671315193176,31.309935450553894 79.50671315193176,31.309935450553894 79.13057804107666,32.22286105155945 79.13057804107666,32.22286105155945 78.6864697933197,33.10620188713074 78.6864697933197,33.10620188713074 78.18637490272522,33.9455783367157 78.18637490272522,33.9455783367157 77.6305079460144,34.74093973636627 77.6305079460144,34.74093973636627 77.01877951622009,35.49197614192963 77.01877951622009,35.49197614192963 76.35138630867004,36.198535561561584 76.35138630867004,36.198535561561584 75.6312370300293,36.85918152332306 75.6312370300293,36.85918152332306 74.8687207698822,37.46497333049774 74.8687207698822,37.46497333049774 74.06331896781921,38.01678419113159 74.06331896781921,38.01678419113159 73.21441769599915,38.51528465747833 73.21441769599915,38.51528465747833 72.32147455215454,38.961294293403625 72.32147455215454,38.961294293403625 71.39930129051208,39.337095618247986 71.39930129051208,39.337095618247986 70.46105861663818,39.62851166725159 70.46105861663818,39.62851166725159 69.50704455375671,39.83621299266815 69.50704455375671,39.83621299266815 68.53729486465454,39.96040225028992 68.53729486465454,39.96040225028992 67.55197644233704,40.00164270401001 67.55197644233704,40.00164270401001 61.88182830810547,40.00164270401001 61.88182830810547,40.00164270401001 61.40931844711304,40.01992642879486 61.40931844711304,40.01992642879486 60.94433069229126,40.07441997528076 60.94433069229126,40.07441997528076 60.48704385757446,40.164607763290405 60.48704385757446,40.164607763290405 60.03749370574951,40.29008150100708 60.03749370574951,40.29008150100708 59.59569215774536,40.45032560825348 59.59569215774536,40.45032560825348 59.168583154678345,40.64261615276337 59.168583154678345,40.64261615276337 58.76116752624512,40.86069166660309 58.76116752624512,40.86069166660309 58.373939990997314,41.10449552536011 58.373939990997314,41.10449552536011 58.00715684890747,41.37418866157532 58.00715684890747,41.37418866157532 57.66127109527588,41.6698157787323 57.66127109527588,41.6698157787323 57.33356475830078,41.988351941108704 57.33356475830078,41.988351941108704 57.02725648880005,42.32866168022156 57.02725648880005,42.32866168022156 56.742823123931885,42.69085228443146 56.742823123931885,42.69085228443146 56.4806342124939,43.074873089790344 56.4806342124939,43.074873089790344 56.241267919540405,43.48097741603851 56.241267919540405,43.48097741603851 56.03190064430237,43.90289783477783 56.03190064430237,43.90289783477783 55.85969090461731,44.33257579803467 55.85969090461731,44.33257579803467 55.72512745857239,44.77052390575409 55.72512745857239,44.77052390575409 55.62864542007446,45.21678984165192 55.62864542007446,45.21678984165192 55.57070970535278,45.67178785800934 55.57070970535278,45.67178785800934 54.97246980667114,51.387953758239746 54.97246980667114,51.387953758239746 77.68756747245789,51.387953758239746 77.68756747245789,51.387953758239746 77.0958960056305,57.04988241195679 77.0958960056305,57.04988241195679 48.7090140581131,57.04988241195679 48.7090140581131,57.04988241195679 49.903854727745056,45.67178785800934 49.903854727745056,45.67178785800934 50.03754496574402,44.763949513435364 50.03754496574402,44.763949513435364 50.24118423461914,43.87470185756683 50.24118423461914,43.87470185756683 50.51460266113281,43.004098534584045 50.51460266113281,43.004098534584045 50.85745453834534,42.15177893638611 50.85745453834534,42.15177893638611 51.26962065696716,41.318103671073914 51.26962065696716,41.318103671073914 51.74182057380676,40.51277935504913 51.74182057380676,40.51277935504913 52.26128101348877,39.74751532077789 52.26128101348877,39.74751532077789 52.8283417224884,39.02200162410736 52.8283417224884,39.02200162410736 53.44322919845581,38.33593428134918 53.44322919845581,38.33593428134918 54.10633683204651,37.689208984375 54.10633683204651,37.689208984375 54.81009483337402,37.089839577674866 54.81009483337402,37.089839577674866 55.54895997047424,36.54429316520691 55.54895997047424,36.54429316520691 56.32334351539612,36.05246841907501 56.32334351539612,36.05246841907501 57.13357329368591,35.61452329158783 57.13357329368591,35.61452329158783 57.980114221572876,35.23050248622894 57.980114221572876,35.23050248622894 58.85169506072998,34.908270835876465 58.85169506072998,34.908270835876465 59.736984968185425,34.65747833251953 59.736984968185425,34.65747833251953 60.63634753227234,34.478336572647095 60.63634753227234,34.478336572647095 61.550045013427734,34.37068462371826 61.550045013427734,34.37068462371826 62.478429079055786,34.334784746170044 62.478429079055786,34.334784746170044 68.14364194869995,34.334784746170044 68.14364194869995,34.334784746170044 68.63749623298645,34.314242005348206 68.63749623298645,34.314242005348206 69.12313103675842,34.25219655036926 69.12313103675842,34.25219655036926 69.6007251739502,34.148502349853516 69.6007251739502,34.148502349853516 70.07020711898804,34.002381563186646 70.07020711898804,34.002381563186646 70.53167819976807,33.81378948688507 70.53167819976807,33.81378948688507 70.97743153572083,33.590167760849 70.97743153572083,33.590167760849 71.40153646469116,33.33927392959595 71.40153646469116,33.33927392959595 71.80412411689758,33.061209321022034 71.80412411689758,33.061209321022034 72.18526601791382,32.75592625141144 72.18526601791382,32.75592625141144 72.54499197006226,32.42337107658386 72.54499197006226,32.42337107658386 72.87636399269104,32.06380009651184 72.87636399269104,32.06380009651184 73.17956686019897,31.682860851287842 73.17956686019897,31.682860851287842 73.45370650291443,31.280353665351868 73.45370650291443,31.280353665351868 73.69773983955383,30.855605006217957 73.69773983955383,30.855605006217957 73.91075491905212,30.40841519832611 73.91075491905212,30.40841519832611 74.09082651138306,29.94863986968994 74.09082651138306,29.94863986968994 74.23073053359985,29.480338096618652 74.23073053359985,29.480338096618652 74.33062195777893,29.003357887268066 74.33062195777893,29.003357887268066 74.39048290252686,28.517338633537292 74.39048290252686,28.517338633537292 74.41038489341736,28.022024035453796 74.41038489341736,28.022024035453796 74.3941068649292,27.59116291999817 74.3941068649292,27.59116291999817 74.3456244468689,27.174273133277893 74.3456244468689,27.174273133277893 74.26557540893555,26.77176594734192 74.26557540893555,26.77176594734192 74.15438294410706,26.383689045906067 74.15438294410706,26.383689045906067 74.01265501976013,26.010355353355408 74.01265501976013,26.010355353355408 73.84054660797119,25.65237581729889 73.84054660797119,25.65237581729889 73.64537715911865,25.314271450042725 73.64537715911865,25.314271450042725 73.42645525932312,24.995993077754974 73.42645525932312,24.995993077754974 73.18313717842102,24.697694182395935 73.18313717842102,24.697694182395935 72.91478514671326,24.419426918029785 72.91478514671326,24.419426918029785 72.62860536575317,24.16190654039383 72.62860536575317,24.16190654039383 72.3241925239563,23.926113545894623 72.3241925239563,23.926113545894623 72.00152277946472,23.712456226348877 72.00152277946472,23.712456226348877 71.66044116020203,23.521190881729126 71.66044116020203,23.521190881729126 71.3008463382721,23.3527809381485 71.3008463382721,23.3527809381485 70.92840671539307,23.2094869017601 70.92840671539307,23.2094869017601 70.5463171005249,23.097316920757294 70.5463171005249,23.097316920757294 70.15407681465149,23.016732931137085 70.15407681465149,23.016732931137085 69.7511076927185,22.968095541000366 69.7511076927185,22.968095541000366 69.33683753013611,22.95176237821579 69.33683753013611,22.95176237821579 63.673269748687744,22.95176237821579 63.673269748687744,22.95176237821579 63.21703791618347,22.97004610300064 63.21703791618347,22.97004610300064 62.765198945999146,23.024488985538483 62.765198945999146,23.024488985538483 62.31754422187805,23.114779591560364 62.31754422187805,23.114779591560364 61.87361478805542,23.24025183916092 61.87361478805542,23.24025183916092 61.43314838409424,23.40044379234314 61.43314838409424,23.40044379234314 61.005985736846924,23.592273890972137 61.005985736846924,23.592273890972137 60.59623956680298,23.810501396656036 60.59623956680298,23.810501396656036 60.20402908325195,24.054820835590363 60.20402908325195,24.054820835590363 59.829384088516235,24.324770271778107 59.829384088516235,24.324770271778107 59.47242975234985,24.61993545293808 59.47242975234985,24.61993545293808 59.1363787651062,24.93990808725357 59.1363787651062,24.93990808725357 58.82447361946106,25.28078556060791 58.82447361946106,25.28078556060791 58.53680372238159,25.64297616481781 58.53680372238159,25.64297616481781 58.27338099479675,26.026788353919983 58.27338099479675,26.026788353919983 58.034348487854004,26.432737708091736 58.034348487854004,26.432737708091736 57.82274603843689,26.856252551078796 57.82274603843689,26.856252551078796 57.6494574546814,27.29111909866333 57.6494574546814,27.29111909866333 57.51463770866394,27.737900614738464 57.51463770866394,27.737900614738464 57.41828680038452,28.197160363197327 57.41828680038452,28.197160363197327 57.36050605773926,28.66956889629364 57.36050605773926,28.66956889629364 51.69035792350769,28.66956889629364 51.69035792350769,28.66956889629364 51.825666427612305,27.74621844291687 51.825666427612305,27.74621844291687 52.03046798706055,26.844236254692078 52.03046798706055,26.844236254692078 52.30490565299988,25.96392333507538 52.30490565299988,25.96392333507538 52.64894366264343,25.10564625263214 52.64894366264343,25.10564625263214 53.06270122528076,24.269865453243256 53.06270122528076,24.269865453243256 53.53202819824219,23.464541137218475 53.53202819824219,23.464541137218475 54.05014753341675,22.699224948883057 54.05014753341675,22.699224948883057 54.6166718006134,21.973817050457 54.6166718006134,21.973817050457 55.23107051849365,21.287749707698822 55.23107051849365,21.287749707698822 55.89284300804138,20.64097225666046 55.89284300804138,20.64097225666046 56.59693479537964,20.04149854183197 56.59693479537964,20.04149854183197 57.33652114868164,19.495387375354767 57.33652114868164,19.495387375354767 58.11159610748291,19.003205001354218 58.11159610748291,19.003205001354218 58.92218351364136,18.564847111701965 58.92218351364136,18.564847111701965 59.76826548576355,18.180622160434723 59.76826548576355,18.180622160434723 60.64097285270691,17.85900592803955 60.64097285270691,17.85900592803955 61.52726411819458,17.608267068862915 61.52726411819458,17.608267068862915 62.42714524269104,17.428918182849884 62.42714524269104,17.428918182849884 63.34027647972107,17.320959270000458 63.34027647972107,17.320959270000458 64.26658034324646,17.284904420375824 64.26658034324646,17.284904420375824 69.93672251701355,17.284904420375824 69.93672251701355,17.284904420375824 70.79792618751526,17.31700450181961 70.79792618751526,17.31700450181961 71.63391709327698,17.413149774074554 71.63391709327698,17.413149774074554 72.44424819946289,17.573291063308716 72.44424819946289,17.573291063308716 73.22854399681091,17.79675781726837 73.22854399681091,17.79675781726837 73.98635745048523,18.08365434408188 73.98635745048523,18.08365434408188 74.7145414352417,18.424274027347565 74.7145414352417,18.424274027347565 75.40420293807983,18.81091296672821 75.40420293807983,18.81091296672821 76.05557441711426,19.243620336055756 76.05557441711426,19.243620336055756 76.66870951652527,19.722142815589905 76.66870951652527,19.722142815589905" stroke="white" stroke-width="0.1" /></svg>