<?xml version="1.0" encoding="utf-8" ?>
<svg baseProfile="full" height="99.778813123703" version="1.1" width="81.27201199531555" xmlns="http://www.w3.org/2000/svg" xmlns:ev="http://www.w3.org/2001/xml-events" xmlns:xlink="http://www.w3.org/1999/xlink"><defs><clipPath /></defs><polygon points="68.429434299469,46.97427153587341 68.429434299469,46.97427153587341 68.429434299469,46.97427153587341 68.429434299469,46.97427153587341 69.10394430160522,47.98417389392853 69.10394430160522,47.98417389392853 69.7420060634613,49.01813566684723 69.7420060634613,49.01813566684723 70.34279108047485,50.07447600364685 70.34279108047485,50.07447600364685 70.90519070625305,51.15152597427368 70.90519070625305,51.15152597427368 71.4283287525177,52.247488498687744 71.4283287525177,52.247488498687744 74.22658205032349,62.62935400009155 74.22658205032349,62.62935400009155 73.6395537853241,73.08501601219177 73.6395537853241,73.08501601219177 69.97052431106567,82.82995223999023 69.97052431106567,82.82995223999023 63.52261304855347,91.07968807220459 63.52261304855347,91.07968807220459 54.59896922111511,97.04974293708801 54.59896922111511,97.04974293708801 44.74527835845947,99.778813123703 44.74527835845947,99.778813123703 34.75976586341858,99.44535493850708 34.75976586341858,99.44535493850708 25.33429265022278,96.28665447235107 25.33429265022278,96.28665447235107 17.160610854625702,90.53940773010254 17.160610854625702,90.53940773010254 10.930528491735458,82.44104385375977 10.930528491735458,82.44104385375977 7.4796997010707855,72.81293869018555 7.4796997010707855,72.81293869018555 7.07629919052124,62.828266620635986 7.07629919052124,62.828266620635986 9.53381285071373,53.19439172744751 9.53381285071373,53.19439172744751 14.665700495243073,44.61859464645386 14.665700495243073,44.61859464645386 22.285397350788116,37.808191776275635 22.285397350788116,37.808191776275635 27.055081725120544,35.25208830833435 27.055081725120544,35.25208830833435 32.15096294879913,33.5000604391098 32.15096294879913,33.5000604391098 37.45371699333191,32.57150053977966 37.45371699333191,32.57150053977966 42.84384846687317,32.4859619140625 42.84384846687317,32.4859619140625 48.20200502872467,33.262887597084045 48.20200502872467,33.262887597084045 49.752816557884216,33.65756273269653 49.752816557884216,33.65756273269653 51.28331780433655,34.12608802318573 51.28331780433655,34.12608802318573 52.79023051261902,34.66731011867523 52.79023051261902,34.66731011867523 54.27002310752869,35.279446840286255 54.27002310752869,35.279446840286255 55.71936368942261,35.96155643463135 55.71936368942261,35.96155643463135 56.36782646179199,36.294278502464294 56.36782646179199,36.294278502464294 57.00879096984863,36.640575528144836 57.00879096984863,36.640575528144836 57.642024755477905,37.00060248374939 57.642024755477905,37.00060248374939 58.26723575592041,37.374624609947205 58.26723575592041,37.374624609947205 58.8843047618866,37.76290416717529 58.8843047618866,37.76290416717529 59.254658222198486,38.02277147769928 59.254658222198486,38.02277147769928 59.5242440700531,38.21324110031128 59.5242440700531,38.21324110031128 59.76817607879639,38.311466574668884 59.76817607879639,38.311466574668884 60.061484575271606,38.294169306755066 60.061484575271606,38.294169306755066 60.47934889793396,38.138604164123535 60.47934889793396,38.138604164123535 60.831570625305176,37.985244393348694 60.831570625305176,37.985244393348694 61.19112968444824,37.84786760807037 61.19112968444824,37.84786760807037 61.556923389434814,37.727734446525574 61.556923389434814,37.727734446525574 61.92774772644043,37.625738978385925 61.92774772644043,37.625738978385925 62.30250597000122,37.54318654537201 62.30250597000122,37.54318654537201 65.33446907997131,37.67422139644623 65.33446907997131,37.67422139644623 67.60885119438171,39.08750116825104 67.60885119438171,39.08750116825104 68.98001432418823,41.37849509716034 68.98001432418823,41.37849509716034 69.30207014083862,44.142261147499084 69.30207014083862,44.142261147499084" stroke="white" stroke-width="0.1" /><polygon points="63.83046507835388,45.34064531326294 63.83046507835388,45.34064531326294 63.83046507835388,45.34064531326294 63.83046507835388,45.34064531326294 64.60193991661072,43.98910999298096 64.60193991661072,43.98910999298096 64.51637148857117,42.96547174453735 64.51637148857117,42.96547174453735 63.79607915878296,42.402446269989014 63.79607915878296,42.402446269989014 62.663137912750244,42.43268966674805 62.663137912750244,42.43268966674805 61.33977174758911,43.188753724098206 61.33977174758911,43.188753724098206 61.05773448944092,43.46759617328644 61.05773448944092,43.46759617328644 60.653942823410034,43.886274099349976 60.653942823410034,43.886274099349976 60.20297408103943,44.32827830314636 60.20297408103943,44.32827830314636 59.779393672943115,44.67693269252777 59.779393672943115,44.67693269252777 59.457916021347046,44.81567144393921 59.457916021347046,44.81567144393921 58.82151126861572,44.27895545959473 58.82151126861572,44.27895545959473 58.16718339920044,43.763625621795654 58.16718339920044,43.763625621795654 57.4962854385376,43.27009916305542 57.4962854385376,43.27009916305542 56.81014060974121,42.798274755477905 56.81014060974121,42.798274755477905 56.110161542892456,42.34846234321594 56.110161542892456,42.34846234321594 53.131234645843506,40.75823426246643 53.131234645843506,40.75823426246643 49.98238682746887,39.550626277923584 49.98238682746887,39.550626277923584 46.71099781990051,38.72673809528351 46.71099781990051,38.72673809528351 43.364498019218445,38.28756511211395 43.364498019218445,38.28756511211395 39.990270137786865,38.23420703411102 39.990270137786865,38.23420703411102 33.214956521987915,39.36162292957306 33.214956521987915,39.36162292957306 27.00062394142151,42.050543427467346 27.00062394142151,42.050543427467346 21.638168394565582,46.12186849117279 21.638168394565582,46.12186849117279 17.418381571769714,51.395875215530396 17.418381571769714,51.395875215530396 14.632181823253632,57.693469524383545 14.632181823253632,57.693469524383545 13.664445281028748,62.64182925224304 13.664445281028748,62.64182925224304 13.586768507957458,67.69344806671143 13.586768507957458,67.69344806671143 14.398889243602753,72.67676591873169 14.398889243602753,72.67676591873169 16.10041707754135,77.42008566856384 16.10041707754135,77.42008566856384 18.691086769104004,81.75169825553894 18.691086769104004,81.75169825553894 19.17111575603485,82.40896463394165 19.17111575603485,82.40896463394165 19.890256226062775,83.34072232246399 19.890256226062775,83.34072232246399 20.706020295619965,84.24946665763855 20.706020295619965,84.24946665763855 21.475844085216522,84.83707308769226 21.475844085216522,84.83707308769226 22.057293355464935,84.80594158172607 22.057293355464935,84.80594158172607 22.616808116436005,84.24558639526367 22.616808116436005,84.24558639526367 23.176349699497223,83.68555307388306 23.176349699497223,83.68555307388306 23.735889792442322,83.1258773803711 23.735889792442322,83.1258773803711 24.29540455341339,82.56620764732361 24.29540455341339,82.56620764732361 24.85491931438446,82.00663924217224 24.85491931438446,82.00663924217224 25.91996192932129,80.94159960746765 25.91996192932129,80.94159960746765 25.754648447036743,80.75563311576843 25.754648447036743,80.75563311576843 25.365111231803894,80.29606938362122 25.365111231803894,80.29606938362122 24.889878928661346,79.72838282585144 24.889878928661346,79.72838282585144 24.46734607219696,79.21802997589111 24.46734607219696,79.21802997589111 24.23601895570755,78.93059253692627 24.23601895570755,78.93059253692627 23.53498786687851,77.91822552680969 23.53498786687851,77.91822552680969 22.90170192718506,76.86266899108887 22.90170192718506,76.86266899108887 22.337181866168976,75.76874494552612 22.337181866168976,75.76874494552612 21.84239774942398,74.64112043380737 21.84239774942398,74.64112043380737 21.418267488479614,73.48461747169495 21.418267488479614,73.48461747169495 20.418138802051544,68.47875714302063 20.418138802051544,68.47875714302063 20.65444588661194,63.474416732788086 20.65444588661194,63.474416732788086 22.07029163837433,58.70400071144104 22.07029163837433,58.70400071144104 24.608705937862396,54.400062561035156 24.608705937862396,54.400062561035156 28.212741017341614,50.79500675201416 28.212741017341614,50.79500675201416 32.689276337623596,48.270824551582336 32.689276337623596,48.270824551582336 37.6747190952301,47.03695774078369 37.6747190952301,47.03695774078369 42.81735122203827,47.09780812263489 42.81735122203827,47.09780812263489 47.765347361564636,48.457521200180054 47.765347361564636,48.457521200180054 52.1669864654541,51.12038850784302 52.1669864654541,51.12038850784302 51.72718167304993,51.50080919265747 51.72718167304993,51.50080919265747 51.28732919692993,51.881223917007446 51.28732919692993,51.881223917007446 50.84733963012695,52.2616446018219 50.84733963012695,52.2616446018219 50.40706992149353,52.64195799827576 50.40706992149353,52.64195799827576 49.96645450592041,53.02237272262573 49.96645450592041,53.02237272262573 43.54432821273804,58.57401490211487 43.54432821273804,58.57401490211487 43.03523600101471,59.016019105911255 43.03523600101471,59.016019105911255 42.68527030944824,59.273576736450195 42.68527030944824,59.273576736450195 42.358604073524475,59.38674211502075 42.358604073524475,59.38674211502075 41.919273138046265,59.39522981643677 41.919273138046265,59.39522981643677 41.2314236164093,59.33883190155029 41.2314236164093,59.33883190155029 39.80244696140289,59.36409831047058 39.80244696140289,59.36409831047058 38.423553109169006,59.67931151390076 38.423553109169006,59.67931151390076 37.13957667350769,60.2634072303772 37.13957667350769,60.2634072303772 35.9953373670578,61.09505295753479 35.9953373670578,61.09505295753479 35.03572344779968,62.15323209762573 35.03572344779968,62.15323209762573 33.902910351753235,64.64224457740784 33.902910351753235,64.64224457740784 33.82678031921387,67.26795434951782 33.82678031921387,67.26795434951782 34.70061719417572,69.72693204879761 34.70061719417572,69.72693204879761 36.41779124736786,71.71576619148254 36.41779124736786,71.71576619148254 38.871556520462036,72.93112874031067 38.871556520462036,72.93112874031067 41.82000160217285,73.03789854049683 41.82000160217285,73.03789854049683 44.41488981246948,71.96268439292908 44.41488981246948,71.96268439292908 46.38016223907471,69.98507380485535 46.38016223907471,69.98507380485535 47.4393367767334,67.38462448120117 47.4393367767334,67.38462448120117 47.316426038742065,64.44097757339478 47.316426038742065,64.44097757339478 47.629621624946594,63.835179805755615 47.629621624946594,63.835179805755615 48.16104471683502,63.19018006324768 48.16104471683502,63.19018006324768 48.79372715950012,62.54974007606506 48.79372715950012,62.54974007606506 49.41045045852661,61.95752024650574 49.41045045852661,61.95752024650574 49.89433288574219,61.457180976867676 49.89433288574219,61.457180976867676 55.573445558547974,54.892486333847046 55.573445558547974,54.892486333847046" stroke="white" stroke-width="0.1" /><polygon points="0.2650028560310602,46.18093967437744 0.2650028560310602,46.18093967437744 0.5467780400067568,31.018751859664917 0.5467780400067568,31.018751859664917 0.6242190022021532,30.45022189617157 0.6242190022021532,30.45022189617157 0.7936195470392704,29.884731769561768 0.7936195470392704,29.884731769561768 0.9907206520438194,29.329881072044373 0.9907206520438194,29.329881072044373 1.1512109078466892,28.792956471443176 1.1512109078466892,28.792956471443176 1.2109623290598392,28.281506896018982 1.2109623290598392,28.281506896018982 1.1930369772017002,27.546247839927673 1.1930369772017002,27.546247839927673 1.175425946712494,26.81141197681427 1.175425946712494,26.81141197681427 1.1580770835280418,26.076781749725342 1.1580770835280418,26.076781749725342 1.1408854275941849,25.341996550559998 1.1408854275941849,25.341996550559998 1.1237462051212788,24.60668832063675 1.1237462051212788,24.60668832063675 1.414667535573244,23.638924956321716 1.414667535573244,23.638924956321716 2.1794335916638374,22.95691967010498 2.1794335916638374,22.95691967010498 3.1746618449687958,22.402122616767883 3.1746618449687958,22.402122616767883 4.156786575913429,21.81624323129654 4.156786575913429,21.81624323129654 4.88242581486702,21.040891110897064 4.88242581486702,21.040891110897064 3.1722508370876312,20.739932358264923 3.1722508370876312,20.739932358264923 1.753390021622181,19.871753454208374 1.753390021622181,19.871753454208374 0.7261109538376331,18.5761958360672 0.7261109538376331,18.5761958360672 0.19044459331780672,16.992783546447754 0.19044459331780672,16.992783546447754 0.2465532859787345,15.261144936084747 0.2465532859787345,15.261144936084747 0.867522694170475,13.722492754459381 0.867522694170475,13.722492754459381 1.8756445497274399,12.668509781360626 1.8756445497274399,12.668509781360626 3.1722508370876312,12.017323076725006 3.1722508370876312,12.017323076725006 4.658593982458115,11.686699092388153 4.658593982458115,11.686699092388153 6.23595304787159,11.594712734222412 6.23595304787159,11.594712734222412 6.961303949356079,11.592826247215271 6.961303949356079,11.592826247215271 7.67732560634613,11.609651148319244 7.67732560634613,11.609651148319244 8.382759243249893,11.678784340620041 8.382759243249893,11.678784340620041 9.076216071844101,11.833666265010834 9.076216071844101,11.833666265010834 9.756465256214142,12.10794672369957 9.756465256214142,12.10794672369957 10.284348577260971,11.141912639141083 10.284348577260971,11.141912639141083 10.81320121884346,10.17608791589737 10.81320121884346,10.17608791589737 11.342787742614746,9.210840612649918 11.342787742614746,9.210840612649918 11.872871965169907,8.24611708521843 11.872871965169907,8.24611708521843 12.403139472007751,7.282546162605286 12.403139472007751,7.282546162605286 12.87318468093872,6.382763385772705 12.87318468093872,6.382763385772705 13.353869318962097,5.438743159174919 13.353869318962097,5.438743159174919 13.875986635684967,4.505467787384987 13.875986635684967,4.505467787384987 14.470171928405762,3.637551888823509 14.470171928405762,3.637551888823509 15.167219936847687,2.8898727148771286 15.167219936847687,2.8898727148771286 16.25993698835373,2.1583370864391327 16.25993698835373,2.1583370864391327 17.51151978969574,1.6639726236462593 17.51151978969574,1.6639726236462593 18.84971559047699,1.3457699678838253 18.84971559047699,1.3457699678838253 20.20229995250702,1.142353005707264 20.20229995250702,1.142353005707264 21.497097611427307,0.992922019213438 21.497097611427307,0.992922019213438 24.598564207553864,0.6871414836496115 24.598564207553864,0.6871414836496115 27.71061658859253,0.4657466895878315 27.71061658859253,0.4657466895878315 30.828043818473816,0.3066191915422678 30.828043818473816,0.3066191915422678 33.945706486701965,0.18774529453366995 33.945706486701965,0.18774529453366995 37.05846667289734,0.08721612393856049 37.05846667289734,0.08721612393856049 41.71009063720703,0.0024634362489450723 41.71009063720703,0.0024634362489450723 46.382153034210205,0.046228739665821195 46.382153034210205,0.046228739665821195 51.05612874031067,0.22810371592640877 51.05612874031067,0.22810371592640877 55.71328401565552,0.5572607275098562 55.71328401565552,0.5572607275098562 60.33511161804199,1.0432390496134758 60.33511161804199,1.0432390496134758 61.5817666053772,1.2015803717076778 61.5817666053772,1.2015803717076778 62.87803053855896,1.4179958030581474 62.87803053855896,1.4179958030581474 64.15393352508545,1.7512936145067215 64.15393352508545,1.7512936145067215 65.33952951431274,2.2603338584303856 65.33952951431274,2.2603338584303856 66.36476516723633,3.003924712538719 66.36476516723633,3.003924712538719 66.72369241714478,3.39084155857563 66.72369241714478,3.39084155857563 67.03804135322571,3.811826929450035 67.03804135322571,3.811826929450035 67.32036471366882,4.2565032839775085 67.32036471366882,4.2565032839775085 67.583167552948,4.714178293943405 67.583167552948,4.714178293943405 67.83905029296875,5.174264311790466 67.83905029296875,5.174264311790466 68.48992109298706,6.341933459043503 68.48992109298706,6.341933459043503 69.13691759109497,7.5116463005542755 69.13691759109497,7.5116463005542755 69.78105306625366,8.682774007320404 69.78105306625366,8.682774007320404 70.42316794395447,9.854479134082794 70.42316794395447,9.854479134082794 71.06437087059021,11.026131361722946 71.06437087059021,11.026131361722946 71.35563492774963,11.558757722377777 71.35563492774963,11.558757722377777 71.55991196632385,11.843258142471313 71.55991196632385,11.843258142471313 71.77771925926208,11.932046711444855 71.77771925926208,11.932046711444855 72.10960388183594,11.877483874559402 72.10960388183594,11.877483874559402 72.6560652256012,11.732245981693268 72.6560652256012,11.732245981693268 72.88243770599365,11.679937690496445 72.88243770599365,11.679937690496445 73.10917973518372,11.641046404838562 73.10917973518372,11.641046404838562 73.33714962005615,11.614682525396347 73.33714962005615,11.614682525396347 73.56716990470886,11.599534749984741 73.56716990470886,11.599534749984741 73.79993796348572,11.594712734222412 73.79993796348572,11.594712734222412 75.5308449268341,11.594712734222412 75.5308449268341,11.594712734222412 76.444411277771,11.614210903644562 76.444411277771,11.614210903644562 77.32757925987244,11.701217293739319 77.32757925987244,11.701217293739319 78.17444801330566,11.899078637361526 78.17444801330566,11.899078637361526 78.97910475730896,12.250563502311707 78.97910475730896,12.250563502311707 79.735666513443,12.798966467380524 79.735666513443,12.798966467380524 81.01744055747986,14.752629399299622 81.01744055747986,14.752629399299622 81.19208216667175,16.945140063762665 81.19208216667175,16.945140063762665 80.40519952774048,18.985074758529663 80.40519952774048,18.985074758529663 78.80223393440247,20.480799674987793 78.80223393440247,20.480799674987793 76.52879357337952,21.040891110897064 76.52879357337952,21.040891110897064 77.12945342063904,21.622785925865173 77.12945342063904,21.622785925865173 78.09520363807678,22.208978235721588 78.09520363807678,22.208978235721588 79.13786172866821,22.796063125133514 79.13786172866821,22.796063125133514 79.96916770935059,23.38057905435562 79.96916770935059,23.38057905435562 80.30089139938354,23.95927608013153 80.30089139938354,23.95927608013153 80.28417229652405,24.634258449077606 80.28417229652405,24.634258449077606 80.26805520057678,25.308716297149658 80.26805520057678,25.308716297149658 80.25251626968384,25.983276963233948 80.25251626968384,25.983276963233948 80.23718595504761,26.658207178115845 80.23718595504761,26.658207178115845 80.22206425666809,27.33387053012848 80.22206425666809,27.33387053012848 80.27287721633911,28.030654788017273 80.27287721633911,28.030654788017273 80.42288422584534,28.674817085266113 80.42288422584534,28.674817085266113 80.61105012893677,29.30121123790741 80.61105012893677,29.30121123790741 80.7763397693634,29.944586753845215 80.7763397693634,29.944586753845215 80.85773587226868,30.63969612121582 80.85773587226868,30.63969612121582 81.27201199531555,53.094494342803955 81.27201199531555,53.094494342803955 81.25196099281311,54.09994125366211 81.25196099281311,54.09994125366211 81.1212956905365,55.06603121757507 81.1212956905365,55.06603121757507 80.83467483520508,55.97530007362366 80.83467483520508,55.97530007362366 80.3465187549591,56.81051015853882 80.3465187549591,56.81051015853882 79.6115517616272,57.55425691604614 79.6115517616272,57.55425691604614 79.60368990898132,57.558345794677734 79.60368990898132,57.558345794677734 79.59614396095276,57.562536001205444 79.59614396095276,57.562536001205444 79.58885431289673,57.56709575653076 79.58885431289673,57.56709575653076 79.58172559738159,57.572078704833984 79.58172559738159,57.572078704833984 79.57465052604675,57.57774114608765 79.57465052604675,57.57774114608765 79.1926622390747,55.98447322845459 79.1926622390747,55.98447322845459 78.74219417572021,54.40016984939575 78.74219417572021,54.40016984939575 78.22217345237732,52.82723903656006 78.22217345237732,52.82723903656006 77.63123512268066,51.26751661300659 77.63123512268066,51.26751661300659 76.96822881698608,49.72325563430786 76.96822881698608,49.72325563430786 76.63094997406006,49.00152087211609 76.63094997406006,49.00152087211609 76.27941370010376,48.28733503818512 76.27941370010376,48.28733503818512 75.9138822555542,47.58064150810242 75.9138822555542,47.58064150810242 75.534588098526,46.8813419342041 75.534588098526,46.8813419342041 75.14172196388245,46.18932604789734 75.14172196388245,46.18932604789734 75.24036765098572,45.65732777118683 75.24036765098572,45.65732777118683 75.31691789627075,45.12465000152588 75.31691789627075,45.12465000152588 75.37155747413635,44.592443108558655 75.37155747413635,44.592443108558655 75.4042387008667,44.06133592128754 75.4042387008667,44.06133592128754 75.41511058807373,43.532586097717285 75.41511058807373,43.532586097717285 75.29010772705078,41.740986704826355 75.29010772705078,41.740986704826355 74.9221920967102,39.99163508415222 74.9221920967102,39.99163508415222 74.31005239486694,38.30936849117279 74.31005239486694,38.30936849117279 73.45225214958191,36.718931794166565 73.45225214958191,36.718931794166565 72.34745621681213,35.24537980556488 72.34745621681213,35.24537980556488 71.72053456306458,34.57951545715332 71.72053456306458,34.57951545715332 71.02736830711365,33.961665630340576 71.02736830711365,33.961665630340576 70.27413249015808,33.39633345603943 70.27413249015808,33.39633345603943 69.46701407432556,32.88792371749878 69.46701407432556,32.88792371749878 68.61225366592407,32.441043853759766 68.61225366592407,32.441043853759766 75.30441880226135,32.441043853759766 75.30441880226135,32.441043853759766 75.30441880226135,23.64898771047592 75.30441880226135,23.64898771047592 66.28257632255554,23.64898771047592 66.28257632255554,23.64898771047592 66.28257632255554,31.630942225456238 66.28257632255554,31.630942225456238 65.7577633857727,31.519299745559692 65.7577633857727,31.519299745559692 65.22637009620667,31.431034207344055 65.22637009620667,31.431034207344055 64.68905210494995,31.367719173431396 64.68905210494995,31.367719173431396 64.1463577747345,31.330925226211548 64.1463577747345,31.330925226211548 63.599008321762085,31.322330236434937 63.599008321762085,31.322330236434937 63.578879833221436,31.322330236434937 63.578879833221436,31.322330236434937 63.578879833221436,23.647311329841614 63.578879833221436,23.647311329841614 60.422325134277344,23.647311329841614 60.422325134277344,23.647311329841614 60.422325134277344,31.58230185508728 60.422325134277344,31.58230185508728 60.030847787857056,31.36059045791626 60.030847787857056,31.36059045791626 59.637147188186646,31.142446398735046 59.637147188186646,31.142446398735046 59.24121141433716,30.928391218185425 59.24121141433716,30.928391218185425 58.84268879890442,30.718734860420227 58.84268879890442,30.718734860420227 58.441513776779175,30.513903498649597 58.441513776779175,30.513903498649597 56.72842860221863,29.708465933799744 56.72842860221863,29.708465933799744 54.980671405792236,28.985682129859924 54.980671405792236,28.985682129859924 53.20136547088623,28.346970677375793 53.20136547088623,28.346970677375793 51.393598318099976,27.793747186660767 51.393598318099976,27.793747186660767 49.56056475639343,27.32715904712677 49.56056475639343,27.32715904712677 47.798290848731995,26.96477472782135 47.798290848731995,26.96477472782135 46.02731466293335,26.684099435806274 46.02731466293335,26.684099435806274 44.250234961509705,26.484665274620056 44.250234961509705,26.484665274620056 42.4696147441864,26.36542320251465 42.4696147441864,26.36542320251465 40.68799912929535,26.325851678848267 40.68799912929535,26.325851678848267 36.55058145523071,26.542267203330994 36.55058145523071,26.542267203330994 32.46229887008667,27.181869745254517 32.46229887008667,27.181869745254517 28.4586101770401,28.239154815673828 28.4586101770401,28.239154815673828 24.574793875217438,29.708358645439148 24.574793875217438,29.708358645439148 20.846331119537354,31.583979725837708 20.846331119537354,31.583979725837708 20.846331119537354,23.647311329841614 20.846331119537354,23.647311329841614 17.688101530075073,23.647311329841614 17.688101530075073,23.647311329841614 17.688101530075073,32.441043853759766 17.688101530075073,32.441043853759766 19.40726488828659,32.441043853759766 19.40726488828659,32.441043853759766 19.321201741695404,32.493144273757935 19.321201741695404,32.493144273757935 19.23443228006363,32.54367113113403 19.23443228006363,32.54367113113403 19.147399067878723,32.59388208389282 19.147399067878723,32.59388208389282 19.06062811613083,32.64477550983429 19.06062811613083,32.64477550983429 18.974539637565613,32.697659730911255 18.974539637565613,32.697659730911255 13.931727409362793,36.579617857933044 13.931727409362793,36.579617857933044 9.668384492397308,41.118839383125305 9.668384492397308,41.118839383125305 6.209667772054672,46.20122313499451 6.209667772054672,46.20122313499451 3.5806309431791306,51.71213746070862 3.5806309431791306,51.71213746070862 1.8063802272081375,57.53748416900635 1.8063802272081375,57.53748416900635 0.6083639338612556,55.75112700462341 0.6083639338612556,55.75112700462341 0.08640371379442513,53.406405448913574 0.08640371379442513,53.406405448913574 0.00935581629164517,50.8192241191864 0.00935581629164517,50.8192241191864 0.14597170520573854,48.305416107177734 0.14597170520573854,48.305416107177734" stroke="white" stroke-width="0.1" /><polygon points="40.63432812690735,23.30012321472168 40.63432812690735,23.30012321472168 41.93292558193207,22.878193855285645 41.93292558193207,22.878193855285645 42.5821989774704,21.871960163116455 42.5821989774704,21.871960163116455 42.58222579956055,20.671112835407257 42.58222579956055,20.671112835407257 41.93292558193207,19.66487765312195 41.93292558193207,19.66487765312195 40.63432812690735,19.242896139621735 40.63432812690735,19.242896139621735 39.33573067188263,19.66482549905777 39.33573067188263,19.66482549905777 38.6864572763443,20.67106068134308 38.6864572763443,20.67106068134308 38.68648409843445,21.872064471244812 38.68648409843445,21.872064471244812 39.33575749397278,22.878193855285645 39.33575749397278,22.878193855285645" stroke="white" stroke-width="0.1" /><polygon points="19.080205261707306,4.652645066380501 19.080205261707306,4.652645066380501 17.49236285686493,6.388476490974426 17.49236285686493,6.388476490974426 15.896239876747131,8.49822610616684 15.896239876747131,8.49822610616684 14.49928730726242,10.876070708036423 14.49928730726242,10.876070708036423 13.508960604667664,13.416188955307007 13.508960604667664,13.416188955307007 13.132736086845398,16.01254492998123 13.132736086845398,16.01254492998123 14.261041581630707,15.845294296741486 14.261041581630707,15.845294296741486 17.617683112621307,15.44637382030487 17.617683112621307,15.44637382030487 23.160362243652344,14.97030258178711 23.160362243652344,14.97030258178711 30.846703052520752,14.571329951286316 30.846703052520752,14.571329951286316 40.63432812690735,14.40407931804657 40.63432812690735,14.40407931804657 50.423264503479004,14.571382105350494 50.423264503479004,14.571382105350494 58.10976028442383,14.970250427722931 58.10976028442383,14.970250427722931 63.65194320678711,15.446425974369049 63.65194320678711,15.446425974369049 67.00795292854309,15.845346450805664 67.00795292854309,15.845346450805664 68.13592314720154,16.01254492998123 68.13592314720154,16.01254492998123 67.75972247123718,13.41608315706253 67.75972247123718,13.41608315706253 66.76949858665466,10.876070708036423 66.76949858665466,10.876070708036423 65.37283658981323,8.49822610616684 65.37283658981323,8.49822610616684 63.77716064453125,6.388476490974426 63.77716064453125,6.388476490974426 62.1901273727417,4.652645066380501 62.1901273727417,4.652645066380501 60.475945472717285,3.995274379849434 60.475945472717285,3.995274379849434 57.046473026275635,3.473445028066635 57.046473026275635,3.473445028066635 52.318406105041504,3.1135737895965576 52.318406105041504,3.1135737895965576 46.70876860618591,2.941657416522503 46.70876860618591,2.941657416522503 40.63432812690735,2.983797900378704 40.63432812690735,2.983797900378704 34.56054329872131,2.941657416522503 34.56054329872131,2.941657416522503 28.951063752174377,3.1135737895965576 28.951063752174377,3.1135737895965576 24.223072826862335,3.4735500812530518 24.223072826862335,3.4735500812530518 20.79370766878128,3.995274379849434 20.79370766878128,3.995274379849434" stroke="white" stroke-width="0.1" /><polygon points="5.964241176843643,23.64898771047592 5.964241176843643,23.64898771047592 5.964241176843643,32.441043853759766 5.964241176843643,32.441043853759766 14.986078441143036,32.441043853759766 14.986078441143036,32.441043853759766 14.986078441143036,23.64898771047592 14.986078441143036,23.64898771047592" stroke="white" stroke-width="0.1" /></svg>