<?xml version="1.0" encoding="utf-8" ?>
<svg baseProfile="full" height="68.23420524597168" version="1.1" width="100.0" xmlns="http://www.w3.org/2000/svg" xmlns:ev="http://www.w3.org/2001/xml-events" xmlns:xlink="http://www.w3.org/1999/xlink"><defs><clipPath /></defs><polygon points="68.98173689842224,14.466674625873566 68.98173689842224,14.466674625873566 43.08877885341644,35.79971790313721 43.08877885341644,35.79971790313721 42.983001470565796,35.87943911552429 42.983001470565796,35.87943911552429 42.87036061286926,35.93992292881012 42.87036061286926,35.93992292881012 42.752137780189514,35.98192632198334 42.752137780189514,35.98192632198334 42.62970983982086,36.00647747516632 42.62970983982086,36.00647747516632 42.50434935092926,36.014461517333984 42.50434935092926,36.014461517333984 42.36935079097748,36.00354492664337 42.36935079097748,36.00354492664337 42.23651587963104,35.97133159637451 42.23651587963104,35.97133159637451 42.10792779922485,35.91876924037933 42.10792779922485,35.91876924037933 41.98583960533142,35.846757888793945 41.98583960533142,35.846757888793945 41.87234938144684,35.756224393844604 41.87234938144684,35.756224393844604 41.70498549938202,35.54689586162567 41.70498549938202,35.54689586162567 41.60846471786499,35.302719473838806 41.60846471786499,35.302719473838806 41.584426164627075,35.04168093204498 41.584426164627075,35.04168093204498 41.63471460342407,34.78180766105652 41.63471460342407,34.78180766105652 41.76090061664581,34.54115688800812 41.76090061664581,34.54115688800812 53.000980615615845,19.215504825115204 53.000980615615845,19.215504825115204 43.36196780204773,19.215504825115204 43.36196780204773,19.215504825115204 43.15973222255707,19.192463159561157 43.15973222255707,19.192463159561157 42.970237135887146,19.126205146312714 42.970237135887146,19.126205146312714 42.800259590148926,19.02116984128952 42.800259590148926,19.02116984128952 42.65674352645874,18.881836533546448 42.65674352645874,18.881836533546448 42.546483874320984,18.712623417377472 42.546483874320984,18.712623417377472 42.47311055660248,18.517503142356873 42.47311055660248,18.517503142356873 42.44465529918671,18.315669894218445 42.44465529918671,18.315669894218445 42.46009290218353,18.114517629146576 42.46009290218353,18.114517629146576 42.518386244773865,17.921775579452515 42.518386244773865,17.921775579452515 42.61851906776428,17.744916677474976 42.61851906776428,17.744916677474976 55.35364747047424,0.3778406186029315 55.35364747047424,0.3778406186029315 55.47155141830444,0.2487861318513751 55.47155141830444,0.2487861318513751 55.60891032218933,0.1438775914721191 55.60891032218933,0.1438775914721191 55.76162338256836,0.0656846328638494 55.76162338256836,0.0656846328638494 55.92572093009949,0.01686181640252471 55.92572093009949,0.01686181640252471 56.09709620475769,0.0 56.09709620475769,0.0 67.5546407699585,0.0 67.5546407699585,0.0 67.7565336227417,0.02333896263735369 67.7565336227417,0.02333896263735369 67.94664263725281,0.09012789814732969 67.94664263725281,0.09012789814732969 68.11802387237549,0.1955248648300767 68.11802387237549,0.1955248648300767 68.26372742652893,0.3347091842442751 68.26372742652893,0.3347091842442751 68.3769166469574,0.5028814077377319 68.3769166469574,0.5028814077377319 68.44648718833923,0.6977479439228773 68.44648718833923,0.6977479439228773 68.47280263900757,0.8991341106593609 68.47280263900757,0.8991341106593609 68.45628023147583,1.0997981764376163 68.45628023147583,1.0997981764376163 68.39743256568909,1.2927109375596046 68.39743256568909,1.2927109375596046 68.29673051834106,1.4705882407724857 68.29673051834106,1.4705882407724857 59.96112823486328,12.827552855014801 59.96112823486328,12.827552855014801 68.39050650596619,12.827552855014801 68.39050650596619,12.827552855014801 68.61761212348938,12.856732308864594 68.61761212348938,12.856732308864594 68.82683634757996,12.939341366291046 68.82683634757996,12.939341366291046 69.0097451210022,13.068290054798126 69.0097451210022,13.068290054798126 69.15795803070068,13.236378133296967 69.15795803070068,13.236378133296967 69.26307678222656,13.436447083950043 69.26307678222656,13.436447083950043 69.31015849113464,13.663381338119507 69.31015849113464,13.663381338119507 69.30302381515503,13.888360559940338 69.30302381515503,13.888360559940338 69.24417614936829,14.1028493642807 69.24417614936829,14.1028493642807 69.13625001907349,14.298480749130249 69.13625001907349,14.298480749130249" stroke="white" stroke-width="0.1" /><polygon points="36.64510250091553,39.466676115989685 36.64510250091553,39.466676115989685 36.49052083492279,41.756993532180786 36.49052083492279,41.756993532180786 35.60548722743988,43.80315542221069 35.60548722743988,43.80315542221069 34.126150608062744,45.45304477214813 34.126150608062744,45.45304477214813 32.18878209590912,46.55454158782959 32.18878209590912,46.55454158782959 29.929596185684204,46.95552885532379 29.929596185684204,46.95552885532379 27.818089723587036,46.605828404426575 27.818089723587036,46.605828404426575 25.96707046031952,45.63625156879425 25.96707046031952,45.63625156879425 24.496418237686157,44.16598379611969 24.496418237686157,44.16598379611969 23.52614253759384,42.31436848640442 23.52614253759384,42.31436848640442 23.176036775112152,40.20060896873474 23.176036775112152,40.20060896873474 23.50059449672699,38.15952241420746 23.50059449672699,38.15952241420746 24.404995143413544,36.35375797748566 24.404995143413544,36.35375797748566 25.785326957702637,34.89419221878052 25.785326957702637,34.89419221878052 27.537810802459717,33.8915079832077 27.537810802459717,33.8915079832077 29.55855131149292,33.45656394958496 29.55855131149292,33.45656394958496 31.22914731502533,33.579182624816895 31.22914731502533,33.579182624816895 32.781749963760376,34.09866988658905 32.781749963760376,34.09866988658905 34.15554165840149,34.96376276016235 34.15554165840149,34.96376276016235 35.28963625431061,36.123257875442505 35.28963625431061,36.123257875442505 36.12319231033325,37.52582371234894 36.12319231033325,37.52582371234894 36.17193102836609,37.698009610176086 36.17193102836609,37.698009610176086 36.22561693191528,37.868645787239075 36.22561693191528,37.868645787239075 36.284950375556946,38.037434220314026 36.284950375556946,38.037434220314026 36.35070025920868,38.204118609428406 36.35070025920868,38.204118609428406 36.423563957214355,38.3684903383255 36.423563957214355,38.3684903383255 36.48185729980469,38.583171367645264 36.48185729980469,38.583171367645264 36.53384447097778,38.8001024723053 36.53384447097778,38.8001024723053 36.578866839408875,39.01943266391754 36.578866839408875,39.01943266391754 36.61617934703827,39.24156725406647 36.61617934703827,39.24156725406647" stroke="white" stroke-width="0.1" /><polygon points="42.6932692527771,25.263673067092896 42.6932692527771,25.263673067092896 36.942753195762634,33.10590386390686 36.942753195762634,33.10590386390686 35.960158705711365,32.23607838153839 35.960158705711365,32.23607838153839 34.86681878566742,31.49687647819519 34.86681878566742,31.49687647819519 33.67270827293396,30.90469539165497 33.67270827293396,30.90469539165497 32.38791823387146,30.47599196434021 32.38791823387146,30.47599196434021 31.022346019744873,30.22724986076355 31.022346019744873,30.22724986076355 27.41391658782959,30.510246753692627 27.41391658782959,30.510246753692627 24.24890697002411,32.00071156024933 24.24890697002411,32.00071156024933 21.78121954202652,34.44724678993225 21.78121954202652,34.44724678993225 20.264802873134613,37.598708271980286 20.264802873134613,37.598708271980286 19.953517615795135,41.20365381240845 19.953517615795135,41.20365381240845 19.184818863868713,40.80859124660492 19.184818863868713,40.80859124660492 18.41420829296112,40.41524827480316 18.41420829296112,40.41524827480316 17.640455067157745,40.02721309661865 17.640455067157745,40.02721309661865 16.862347722053528,39.648184180259705 16.862347722053528,39.648184180259705 16.078612208366394,39.28183317184448 16.078612208366394,39.28183317184448 15.754012763500214,39.15702402591705 15.754012763500214,39.15702402591705 15.405011177062988,39.03678357601166 15.405011177062988,39.03678357601166 15.063633024692535,38.8962596654892 15.063633024692535,38.8962596654892 14.761926233768463,38.710781931877136 14.761926233768463,38.710781931877136 14.53191339969635,38.45547437667847 14.53191339969635,38.45547437667847 14.10956084728241,37.52709925174713 14.10956084728241,37.52709925174713 13.856568932533264,36.48495674133301 13.856568932533264,36.48495674133301 13.7234166264534,35.389384627342224 13.7234166264534,35.389384627342224 13.660576939582825,34.30088460445404 13.660576939582825,34.30088460445404 13.618572056293488,33.27987492084503 13.618572056293488,33.27987492084503 13.70152086019516,32.60111212730408 13.70152086019516,32.60111212730408 13.970673084259033,32.1038156747818 13.970673084259033,32.1038156747818 14.341442286968231,31.694182753562927 14.341442286968231,31.694182753562927 14.729328453540802,31.27845823764801 14.729328453540802,31.27845823764801 15.04974514245987,30.762749910354614 15.04974514245987,30.762749910354614 15.211163461208344,30.26479482650757 15.211163461208344,30.26479482650757 15.307492017745972,29.728296399116516 15.307492017745972,29.728296399116516 15.363769233226776,29.175487160682678 15.363769233226776,29.175487160682678 15.404990315437317,28.62856090068817 15.404990315437317,28.62856090068817 15.456126630306244,28.109711408615112 15.456126630306244,28.109711408615112 15.566663444042206,27.180036902427673 15.566663444042206,27.180036902427673 15.74895828962326,26.07673704624176 15.74895828962326,26.07673704624176 16.07506573200226,25.00896155834198 16.07506573200226,25.00896155834198 16.617150604724884,24.18617308139801 16.617150604724884,24.18617308139801 17.44726598262787,23.817549645900726 17.44726598262787,23.817549645900726 18.816131353378296,23.74880760908127 18.816131353378296,23.74880760908127 20.172211527824402,23.68938773870468 20.172211527824402,23.68938773870468 21.504634618759155,23.561373353004456 21.504634618759155,23.561373353004456 22.802655398845673,23.28667789697647 22.802655398845673,23.28667789697647 24.055399000644684,22.787322103977203 24.055399000644684,22.787322103977203 25.499123334884644,22.028158605098724 25.499123334884644,22.028158605098724 26.94794237613678,21.264280378818512 26.94794237613678,21.264280378818512 28.408509492874146,20.520342886447906 28.408509492874146,20.520342886447906 29.887655377388,19.82104480266571 29.887655377388,19.82104480266571 31.39203190803528,19.191041588783264 31.39203190803528,19.191041588783264 32.50981569290161,18.78795027732849 32.50981569290161,18.78795027732849 33.6434006690979,18.43090057373047 33.6434006690979,18.43090057373047 34.79023873806,18.116365373134613 34.79023873806,18.116365373134613 35.947948694229126,17.84086376428604 35.947948694229126,17.84086376428604 37.11400628089905,17.6008477807045 37.11400628089905,17.6008477807045 36.99756562709808,17.951251566410065 36.99756562709808,17.951251566410065 36.90510094165802,18.30662339925766 36.90510094165802,18.30662339925766 36.83765530586243,18.66533011198044 36.83765530586243,18.66533011198044 36.796391010284424,19.025905430316925 36.796391010284424,19.025905430316925 36.78237497806549,19.386756420135498 36.78237497806549,19.386756420135498 36.80586218833923,19.874028861522675 36.80586218833923,19.874028861522675 36.87560260295868,20.35766988992691 36.87560260295868,20.35766988992691 36.990535259246826,20.83328366279602 36.990535259246826,20.83328366279602 37.149620056152344,21.296687424182892 37.149620056152344,21.296687424182892 37.351855635643005,21.743503212928772 37.351855635643005,21.743503212928772 37.83942461013794,22.516895830631256 37.83942461013794,22.516895830631256 38.436490297317505,23.177947103977203 38.436490297317505,23.177947103977203 39.13160562515259,23.71867299079895 39.13160562515259,23.71867299079895 39.913299679756165,24.13114905357361 39.913299679756165,24.13114905357361 40.770089626312256,24.407416582107544 40.770089626312256,24.407416582107544 40.809035301208496,24.50455129146576 40.809035301208496,24.50455129146576 40.847304463386536,24.600009620189667 40.847304463386536,24.600009620189667 40.88457524776459,24.693365395069122 40.88457524776459,24.693365395069122 40.920570492744446,24.784237146377563 40.920570492744446,24.784237146377563 40.95493257045746,24.87224191427231 40.95493257045746,24.87224191427231 41.10511541366577,25.092527270317078 41.10511541366577,25.092527270317078 41.313424706459045,25.199156999588013 41.313424706459045,25.199156999588013 41.563910245895386,25.231775641441345 41.563910245895386,25.231775641441345 41.84070825576782,25.230097770690918 41.84070825576782,25.230097770690918 42.12786853313446,25.23377239704132 42.12786853313446,25.23377239704132 42.24110245704651,25.240802764892578 42.24110245704651,25.240802764892578 42.354121804237366,25.246280431747437 42.354121804237366,25.246280431747437 42.467036843299866,25.25118589401245 42.467036843299866,25.25118589401245 42.58005917072296,25.256642699241638 42.58005917072296,25.256642699241638" stroke="white" stroke-width="0.1" /><polygon points="37.056922912597656,22.654126584529877 37.056922912597656,22.654126584529877 36.94876432418823,22.084243595600128 36.94876432418823,22.084243595600128 36.79596781730652,21.51474356651306 36.79596781730652,21.51474356651306 36.6041362285614,20.953142642974854 36.6041362285614,20.953142642974854 36.37892305850983,20.40712982416153 36.37892305850983,20.40712982416153 36.12591028213501,19.884201884269714 36.12591028213501,19.884201884269714 35.90178191661835,19.703690707683563 35.90178191661835,19.703690707683563 35.5545848608017,19.66070830821991 35.5545848608017,19.66070830821991 35.156336426734924,19.70551759004593 35.156336426734924,19.70551759004593 34.7791314125061,19.78842467069626 34.7791314125061,19.78842467069626 34.49494540691376,19.859737157821655 34.49494540691376,19.859737157821655 33.39470028877258,20.129208266735077 33.39470028877258,20.129208266735077 32.14382529258728,20.5273300409317 32.14382529258728,20.5273300409317 30.9183269739151,21.07962816953659 30.9183269739151,21.07962816953659 29.894176125526428,21.81175798177719 29.894176125526428,21.81175798177719 29.247310757637024,22.749266028404236 29.247310757637024,22.749266028404236 29.373815655708313,23.52336049079895 29.373815655708313,23.52336049079895 30.231347680091858,23.98965060710907 30.231347680091858,23.98965060710907 31.440812349319458,24.22652244567871 31.440812349319458,24.22652244567871 32.6231986284256,24.312467873096466 32.6231986284256,24.312467873096466 33.39947760105133,24.325866997241974 33.39947760105133,24.325866997241974 34.35007035732269,24.3521586060524 34.35007035732269,24.3521586060524 35.382676124572754,24.330051243305206 35.382676124572754,24.330051243305206 36.30574345588684,24.127602577209473 36.30574345588684,24.127602577209473 36.92771792411804,23.612935841083527 36.92771792411804,23.612935841083527" stroke="white" stroke-width="0.1" /><polygon points="84.1374933719635,37.96618580818176 84.1374933719635,37.96618580818176 84.01848077774048,38.80725800991058 84.01848077774048,38.80725800991058 83.87517929077148,39.677637815475464 83.87517929077148,39.677637815475464 83.66374969482422,40.534958243370056 83.66374969482422,40.534958243370056 83.3404004573822,41.336849331855774 83.3404004573822,41.336849331855774 82.86126255989075,42.040884494781494 82.86126255989075,42.040884494781494 82.1359932422638,42.65827238559723 82.1359932422638,42.65827238559723 81.32254481315613,43.04620027542114 81.32254481315613,43.04620027542114 80.4463267326355,43.268612027168274 80.4463267326355,43.268612027168274 79.53273057937622,43.389660120010376 79.53273057937622,43.389660120010376 78.60715389251709,43.473416566848755 78.60715389251709,43.473416566848755 79.11882996559143,39.549052715301514 79.11882996559143,39.549052715301514 78.11416983604431,35.889145731925964 78.11416983604431,35.889145731925964 75.86917281150818,32.861897349357605 75.86917281150818,32.861897349357605 72.66009449958801,30.835548043251038 72.66009449958801,30.835548043251038 68.76291036605835,30.17832040786743 68.76291036605835,30.17832040786743 64.95324969291687,31.1032772064209 64.95324969291687,31.1032772064209 61.91089749336243,33.32882523536682 61.91089749336243,33.32882523536682 59.883105754852295,36.47625148296356 59.883105754852295,36.47625148296356 59.117192029953,40.167054533958435 59.117192029953,40.167054533958435 59.86055135726929,44.02250945568085 59.86055135726929,44.02250945568085 55.7594358921051,43.73706877231598 55.7594358921051,43.73706877231598 51.665520668029785,43.538761138916016 51.665520668029785,43.538761138916016 47.57251441478729,43.441030383110046 47.57251441478729,43.441030383110046 43.47434937953949,43.4573620557785 43.47434937953949,43.4573620557785 39.36474025249481,43.601176142692566 39.36474025249481,43.601176142692566 39.52365219593048,43.12375783920288 39.52365219593048,43.12375783920288 39.655256271362305,42.64436364173889 39.655256271362305,42.64436364173889 39.76067304611206,42.163631319999695 39.76067304611206,42.163631319999695 39.841073751449585,41.68228209018707 39.841073751449585,41.68228209018707 39.89752233028412,41.20093584060669 39.89752233028412,41.20093584060669 40.127554535865784,41.25286042690277 40.127554535865784,41.25286042690277 40.36126434803009,41.296371817588806 40.36126434803009,41.296371817588806 40.59896469116211,41.32971465587616 40.59896469116211,41.32971465587616 40.84114730358124,41.35107696056366 40.84114730358124,41.35107696056366 41.088128089904785,41.358596086502075 41.088128089904785,41.358596086502075 41.15472435951233,41.358596086502075 41.15472435951233,41.358596086502075 41.816943883895874,41.309285163879395 41.816943883895874,41.309285163879395 42.50154793262482,41.16107523441315 42.50154793262482,41.16107523441315 43.18324029445648,40.91354310512543 43.18324029445648,40.91354310512543 43.836817145347595,40.566325187683105 43.836817145347595,40.566325187683105 44.437044858932495,40.11906087398529 44.437044858932495,40.11906087398529 62.88735866546631,24.91845190525055 62.88735866546631,24.91845190525055 63.1273090839386,25.095394253730774 63.1273090839386,25.095394253730774 63.37692141532898,25.239846110343933 63.37692141532898,25.239846110343933 63.65768909454346,25.354501605033875 63.65768909454346,25.354501605033875 63.99114727973938,25.44218897819519 63.99114727973938,25.44218897819519 64.39871788024902,25.50559937953949 64.39871788024902,25.50559937953949 67.92823076248169,25.939971208572388 67.92823076248169,25.939971208572388 71.49145007133484,26.483988761901855 71.49145007133484,26.483988761901855 75.02620816230774,27.217116951942444 75.02620816230774,27.217116951942444 78.47034931182861,28.219100832939148 78.47034931182861,28.219100832939148 81.76171779632568,29.56942617893219 81.76171779632568,29.56942617893219 82.11228847503662,29.73957359790802 82.11228847503662,29.73957359790802 82.62150287628174,30.012503266334534 82.62150287628174,30.012503266334534 83.09494853019714,30.34035563468933 83.09494853019714,30.34035563468933 83.33802223205566,30.67525625228882 83.33802223205566,30.67525625228882 83.15619230270386,30.969339609146118 83.15619230270386,30.969339609146118 83.05239081382751,31.172743439674377 83.05239081382751,31.172743439674377 82.98536539077759,31.565088033676147 82.98536539077759,31.565088033676147 82.94472098350525,32.029932737350464 82.94472098350525,32.029932737350464 82.92038440704346,32.4509471654892 82.92038440704346,32.4509471654892 82.90203213691711,32.711753249168396 82.90203213691711,32.711753249168396 82.83599019050598,33.204612135887146 82.83599019050598,33.204612135887146 82.76994228363037,33.69783163070679 82.76994228363037,33.69783163070679 82.70385265350342,34.19117629528046 82.70385265350342,34.19117629528046 82.63781070709229,34.6843957901001 82.63781070709229,34.6843957901001 82.57176280021667,35.177233815193176 82.57176280021667,35.177233815193176 82.73205757141113,35.29730439186096 82.73205757141113,35.29730439186096 83.14183950424194,35.42141020298004 83.14183950424194,35.42141020298004 83.6482048034668,35.54772436618805 83.6482048034668,35.54772436618805 84.09811854362488,35.67444384098053 84.09811854362488,35.67444384098053 84.33864712715149,35.79971790313721 84.33864712715149,35.79971790313721 84.41874980926514,36.12786531448364 84.41874980926514,36.12786531448364 84.39177870750427,36.61048710346222 84.39177870750427,36.61048710346222 84.30458307266235,37.145647406578064 84.30458307266235,37.145647406578064 84.20421481132507,37.63153851032257 84.20421481132507,37.63153851032257" stroke="white" stroke-width="0.1" /><polygon points="75.79509615898132,39.10514414310455 75.79509615898132,39.10514414310455 75.7647693157196,41.394081711769104 75.7647693157196,41.394081711769104 74.99626278877258,43.48089098930359 74.99626278877258,43.48089098930359 73.6158013343811,45.2071875333786 73.6158013343811,45.2071875333786 71.7496395111084,46.41455113887787 71.7496395111084,46.41455113887787 69.5240318775177,46.94465696811676 69.5240318775177,46.94465696811676 67.31502413749695,46.695277094841 67.31502413749695,46.695277094841 65.35886526107788,45.76817452907562 65.35886526107788,45.76817452907562 63.792288303375244,44.29132044315338 63.792288303375244,44.29132044315338 62.75207996368408,42.39281713962555 62.75207996368408,42.39281713962555 62.374961376190186,40.20060896873474 62.374961376190186,40.20060896873474 62.69938945770264,38.15952241420746 62.69938945770264,38.15952241420746 63.60359787940979,36.35375797748566 63.60359787940979,36.35375797748566 64.98395204544067,34.89419221878052 64.98395204544067,34.89419221878052 66.73690676689148,33.8915079832077 66.73690676689148,33.8915079832077 68.75883340835571,33.45656394958496 68.75883340835571,33.45656394958496 70.74281573295593,33.65026116371155 70.74281573295593,33.65026116371155 72.54575490951538,34.396618604660034 72.54575490951538,34.396618604660034 74.06028509140015,35.61100959777832 74.06028509140015,35.61100959777832 75.17919540405273,37.208741903305054 75.17919540405273,37.208741903305054" stroke="white" stroke-width="0.1" /><polygon points="25.67005455493927,54.680877923965454 25.67005455493927,54.680877923965454 26.051995158195496,55.129945278167725 26.051995158195496,55.129945278167725 26.349520683288574,55.621910095214844 26.349520683288574,55.621910095214844 26.56233012676239,56.14619851112366 26.56233012676239,56.14619851112366 26.69021785259247,56.69231414794922 26.69021785259247,56.69231414794922 26.732903718948364,57.24964737892151 26.732903718948364,57.24964737892151 26.69021785259247,57.80354142189026 26.69021785259247,57.80354142189026 26.56233012676239,58.34847092628479 26.56233012676239,58.34847092628479 26.349496841430664,58.87271165847778 26.349496841430664,58.87271165847778 26.051974296569824,59.364765882492065 26.051974296569824,59.364765882492065 25.67005455493927,59.81298089027405 25.67005455493927,59.81298089027405 25.221773982048035,60.19490361213684 25.221773982048035,60.19490361213684 24.73074197769165,60.49246788024902 24.73074197769165,60.49246788024902 24.20804798603058,60.70525646209717 24.20804798603058,60.70525646209717 23.664838075637817,60.833144187927246 23.664838075637817,60.833144187927246 23.112156987190247,60.87583303451538 23.112156987190247,60.87583303451538 23.104001581668854,60.87583303451538 23.104001581668854,60.87583303451538 22.54900634288788,60.834503173828125 22.54900634288788,60.834503173828125 22.003544867038727,60.70742607116699 22.003544867038727,60.70742607116699 21.478386223316193,60.49497127532959 21.478386223316193,60.49497127532959 20.98444551229477,60.1976215839386 20.98444551229477,60.1976215839386 20.532511174678802,59.81570482254028 20.532511174678802,59.81570482254028 16.849011182785034,55.48446774482727 16.849011182785034,55.48446774482727 13.981759548187256,50.74200630187988 13.981759548187256,50.74200630187988 11.931858956813812,45.69361209869385 11.931858956813812,45.69361209869385 10.70047914981842,40.44487178325653 10.70047914981842,40.44487178325653 10.288681089878082,35.10112166404724 10.288681089878082,35.10112166404724 10.288681089878082,35.09568274021149 10.288681089878082,35.09568274021149 10.288681089878082,35.09024679660797 10.288681089878082,35.09024679660797 10.288681089878082,35.07122099399567 10.288681089878082,35.07122099399567 10.288681089878082,35.07124185562134 10.288681089878082,35.07124185562134 10.288702696561813,35.07124185562134 10.288702696561813,35.07124185562134 10.288681089878082,35.071197152137756 10.288681089878082,35.071197152137756 10.288681089878082,35.07122099399567 10.288681089878082,35.07122099399567 10.288681089878082,35.07122099399567 10.288681089878082,35.07122099399567 10.699862986803055,29.725810885429382 10.699862986803055,29.725810885429382 11.932050436735153,24.478240311145782 11.932050436735153,24.478240311145782 13.983309268951416,19.43351924419403 13.983309268951416,19.43351924419403 16.85168743133545,14.696751534938812 16.85168743133545,14.696751534938812 20.53522914648056,10.37294790148735 20.53522914648056,10.37294790148735 20.98582684993744,9.988396614789963 20.98582684993744,9.988396614789963 21.478918194770813,9.68925878405571 21.478918194770813,9.68925878405571 22.003397345542908,9.475597739219666 22.003397345542908,9.475597739219666 22.54832684993744,9.347392618656158 22.54832684993744,9.347392618656158 23.102642595767975,9.30466502904892 23.102642595767975,9.30466502904892 23.658381402492523,9.34794470667839 23.658381402492523,9.34794470667839 24.20409768819809,9.477190673351288 24.20409768819809,9.477190673351288 24.72834289073944,9.691594541072845 24.72834289073944,9.691594541072845 25.219884514808655,9.990456700325012 25.219884514808655,9.990456700325012 25.667336583137512,10.37294790148735 25.667336583137512,10.37294790148735 26.050445437431335,10.819828510284424 26.050445437431335,10.819828510284424 26.348456740379333,11.311114579439163 26.348456740379333,11.311114579439163 26.561269164085388,11.834956705570221 26.561269164085388,11.834956705570221 26.688984036445618,12.37967386841774 26.688984036445618,12.37967386841774 26.731544733047485,12.93356567621231 26.731544733047485,12.93356567621231 26.688984036445618,13.489878177642822 26.688984036445618,13.489878177642822 26.56145989894867,14.036040008068085 26.56145989894867,14.036040008068085 26.349031925201416,14.561134576797485 26.349031925201416,14.561134576797485 26.051846146583557,15.05441665649414 26.051846146583557,15.05441665649414 25.67005455493927,15.505056083202362 25.67005455493927,15.505056083202362 24.83554482460022,16.3753941655159 24.83554482460022,16.3753941655159 24.04739260673523,17.272552847862244 24.04739260673523,17.272552847862244 23.304836452007294,18.194791674613953 23.304836452007294,18.194791674613953 22.60732203722,19.140243530273438 22.60732203722,19.140243530273438 21.954169869422913,20.107100903987885 21.954169869422913,20.107100903987885 21.39286696910858,20.168261229991913 21.39286696910858,20.168261229991913 20.731475949287415,20.217934250831604 20.731475949287415,20.217934250831604 19.967469573020935,20.260916650295258 19.967469573020935,20.260916650295258 19.098280370235443,20.3021377325058 19.098280370235443,20.3021377325058 18.121398985385895,20.34630924463272 18.121398985385895,20.34630924463272 17.135365307331085,20.503395795822144 17.135365307331085,20.503395795822144 16.213294863700867,20.838317275047302 16.213294863700867,20.838317275047302 15.387724339962006,21.303163468837738 15.387724339962006,21.303163468837738 14.69137817621231,21.850110590457916 14.69137817621231,21.850110590457916 14.15679007768631,22.431227564811707 14.15679007768631,22.431227564811707 13.567434251308441,23.291584849357605 13.567434251308441,23.291584849357605 13.15574198961258,24.092307686805725 13.15574198961258,24.092307686805725 12.876991927623749,24.834440648555756 12.876991927623749,24.834440648555756 12.686499953269958,25.519022345542908 12.686499953269958,25.519022345542908 12.539415061473846,26.147112250328064 12.539415061473846,26.147112250328064 12.437118589878082,26.721498370170593 12.437118589878082,26.721498370170593 12.36000880599022,27.245211601257324 12.36000880599022,27.245211601257324 12.302903831005096,27.700334787368774 12.302903831005096,27.700334787368774 12.260664254426956,28.06878685951233 12.260664254426956,28.06878685951233 12.228172272443771,28.332608938217163 12.228172272443771,28.332608938217163 12.190689891576767,28.674200177192688 12.190689891576767,28.674200177192688 12.162891030311584,28.978368639945984 12.162891030311584,28.978368639945984 12.14195191860199,29.245442152023315 12.14195191860199,29.245442152023315 12.125217914581299,29.475855827331543 12.125217914581299,29.475855827331543 12.109927088022232,29.670003056526184 12.109927088022232,29.670003056526184 11.944366991519928,29.848918318748474 11.944366991519928,29.848918318748474 11.752749979496002,30.071160197257996 11.752749979496002,30.071160197257996 11.542635411024094,30.339547991752625 11.542635411024094,30.339547991752625 11.321669071912766,30.65703511238098 11.321669071912766,30.65703511238098 11.097368597984314,31.02642297744751 11.097368597984314,31.02642297744751 10.842742770910263,31.536078453063965 10.842742770910263,31.536078453063965 10.633604973554611,32.10196793079376 10.633604973554611,32.10196793079376 10.477537661790848,32.70332217216492 10.477537661790848,32.70332217216492 10.382228344678879,33.319416642189026 10.382228344678879,33.319416642189026 10.355278849601746,33.92954170703888 10.355278849601746,33.92954170703888 10.355215519666672,33.95642936229706 10.355215519666672,33.95642936229706 10.355427861213684,34.00368094444275 10.355427861213684,34.00368094444275 10.356447100639343,34.07004475593567 10.356447100639343,34.07004475593567 10.358931869268417,34.15448069572449 10.358931869268417,34.15448069572449 10.363434255123138,34.25573706626892 10.363434255123138,34.25573706626892 10.383184254169464,34.70966815948486 10.383184254169464,34.70966815948486 10.403571277856827,35.240304470062256 10.403571277856827,35.240304470062256 10.43241024017334,35.83887815475464 10.43241024017334,35.83887815475464 10.477601736783981,36.496701836586 10.477601736783981,36.496701836586 10.546917468309402,37.20506727695465 10.546917468309402,37.20506727695465 10.657283663749695,37.96045184135437 10.657283663749695,37.96045184135437 10.819509625434875,38.76752555370331 10.819509625434875,38.76752555370331 11.061649024486542,39.61983323097229 11.061649024486542,39.61983323097229 11.411754786968231,40.51100313663483 11.411754786968231,40.51100313663483 11.897901445627213,41.43470823764801 11.897901445627213,41.43470823764801 12.48551681637764,42.210352420806885 12.48551681637764,42.210352420806885 13.092096149921417,42.786115407943726 13.092096149921417,42.786115407943726 13.676270842552185,43.19693744182587 13.676270842552185,43.19693744182587 14.196737110614777,43.47781240940094 14.196737110614777,43.47781240940094 14.612102508544922,43.66369545459747 14.612102508544922,43.66369545459747 14.790447056293488,43.732693791389465 14.790447056293488,43.732693791389465 14.94666188955307,43.79037022590637 14.94666188955307,43.79037022590637 15.080155432224274,43.837687373161316 15.080155432224274,43.837687373161316 15.190373361110687,43.875762820243835 15.190373361110687,43.875762820243835 15.276721119880676,43.90562176704407 15.276721119880676,43.90562176704407 15.299996733665466,43.91341507434845 15.299996733665466,43.91341507434845 15.320722758769989,43.92044544219971 15.320722758769989,43.92044544219971 15.338647365570068,43.92656087875366 15.338647365570068,43.92656087875366 15.35351276397705,43.93163621425629 15.35351276397705,43.93163621425629 15.36506563425064,43.93552243709564 15.36506563425064,43.93552243709564 16.067060828208923,44.26390528678894 16.067060828208923,44.26390528678894 16.77946150302887,44.61103677749634 16.77946150302887,44.61103677749634 17.503458261489868,44.974181056022644 17.503458261489868,44.974181056022644 18.24028044939041,45.350685715675354 18.24028044939041,45.350685715675354 18.991246819496155,45.73774039745331 18.991246819496155,45.73774039745331 19.874687492847443,46.19441330432892 19.874687492847443,46.19441330432892 20.751161873340607,48.015403747558594 20.751161873340607,48.015403747558594 21.768073737621307,49.78330433368683 21.768073737621307,49.78330433368683 22.926294803619385,51.489317417144775 22.926294803619385,51.489317417144775 24.226650595664978,53.124743700027466 24.226650595664978,53.124743700027466" stroke="white" stroke-width="0.1" /><polygon points="66.37082695960999,22.113189101219177 66.37082695960999,22.113189101219177 66.19768738746643,21.772131323814392 66.19768738746643,21.772131323814392 66.06073379516602,21.419455111026764 66.06073379516602,21.419455111026764 65.96128344535828,21.05790376663208 65.96128344535828,21.05790376663208 65.90069532394409,20.69021314382553 65.90069532394409,20.69021314382553 65.8801794052124,20.319126546382904 65.8801794052124,20.319126546382904 65.92303514480591,19.76551115512848 65.92303514480591,19.76551115512848 66.0512626171112,19.22113299369812 66.0512626171112,19.22113299369812 66.26447439193726,18.697206676006317 66.26447439193726,18.697206676006317 66.56231880187988,18.205028772354126 66.56231880187988,18.205028772354126 66.94438457489014,17.755790054798126 66.94438457489014,17.755790054798126 67.39368438720703,17.372556030750275 67.39368438720703,17.372556030750275 67.88594722747803,17.07424521446228 67.88594722747803,17.07424521446228 68.41000318527222,16.860967874526978 68.41000318527222,16.860967874526978 68.95478367805481,16.73295348882675 68.95478367805481,16.73295348882675 69.50908303260803,16.690225899219513 69.50908303260803,16.690225899219513 70.06484270095825,16.73293262720108 70.06484270095825,16.73293262720108 70.6106185913086,16.86081886291504 70.6106185913086,16.86081886291504 71.13507986068726,17.073629796504974 71.13507986068726,17.073629796504974 71.62704467773438,17.371153831481934 71.62704467773438,17.371153831481934 72.07513451576233,17.75307208299637 72.07513451576233,17.75307208299637 73.12027215957642,18.862830102443695 73.12027215957642,18.862830102443695 74.08338785171509,20.02030611038208 74.08338785171509,20.02030611038208 74.9644935131073,21.221764385700226 74.9644935131073,21.221764385700226 75.76383948326111,22.46337980031967 75.76383948326111,22.46337980031967 76.48146152496338,23.74143749475479 76.48146152496338,23.74143749475479 74.40873384475708,23.2989102602005 74.40873384475708,23.2989102602005 72.35125303268433,22.929926216602325 72.35125303268433,22.929926216602325 70.31906247138977,22.61938452720642 70.31906247138977,22.61938452720642 68.32223534584045,22.352206707000732 68.32223534584045,22.352206707000732" stroke="white" stroke-width="0.1" /><polygon points="18.424487113952637,62.03925609588623 18.424487113952637,62.03925609588623 18.80759447813034,62.48725652694702 18.80759447813034,62.48725652694702 19.105499982833862,62.97892928123474 19.105499982833862,62.97892928123474 19.318120181560516,63.503217697143555 19.318120181560516,63.503217697143555 19.44541186094284,64.04903531074524 19.44541186094284,64.04903531074524 19.487333297729492,64.60530757904053 19.487333297729492,64.60530757904053 19.445475935935974,65.15894532203674 19.445475935935974,65.15894532203674 19.31833326816559,65.70332050323486 19.31833326816559,65.70332050323486 19.106094539165497,66.22722744941711 19.106094539165497,66.22722744941711 18.808995187282562,66.71940684318542 18.808995187282562,66.71940684318542 18.427205085754395,67.16864109039307 18.427205085754395,67.16864109039307 17.97890216112137,67.55192279815674 17.97890216112137,67.55192279815674 17.487911880016327,67.85025000572205 17.487911880016327,67.85025000572205 16.965195536613464,68.06346774101257 16.965195536613464,68.06346774101257 16.421987116336823,68.19148063659668 16.421987116336823,68.19148063659668 15.869306027889252,68.23420524597168 15.869306027889252,68.23420524597168 15.85979163646698,68.23420524597168 15.85979163646698,68.23420524597168 15.30522108078003,68.19177865982056 15.30522108078003,68.19177865982056 14.759950339794159,68.06444525718689 14.759950339794159,68.06444525718689 14.235450327396393,67.85199046134949 14.235450327396393,67.85199046134949 13.743315637111664,67.55434274673462 13.743315637111664,67.55434274673462 13.295096158981323,67.17135906219482 13.295096158981323,67.17135906219482 8.51634293794632,61.55709624290466 8.51634293794632,61.55709624290466 4.794681072235107,55.41154146194458 4.794681072235107,55.41154146194458 2.1328287199139595,48.86879324913025 2.1328287199139595,48.86879324913025 0.5336743779480457,42.06299185752869 0.5336743779480457,42.06299185752869 0.0,35.12830436229706 0.0,35.12830436229706 0.0,35.120147466659546 0.0,35.120147466659546 0.0,35.11199355125427 0.0,35.11199355125427 0.5318480543792248,28.16772758960724 0.5318480543792248,28.16772758960724 2.127370983362198,21.35028839111328 2.127370983362198,21.35028839111328 4.7864411026239395,14.794906973838806 4.7864411026239395,14.794906973838806 8.509037643671036,8.6370088160038 8.509037643671036,8.6370088160038 13.295096158981323,3.0118517577648163 13.295096158981323,3.0118517577648163 13.743315637111664,2.628616988658905 13.743315637111664,2.628616988658905 14.235387742519379,2.330307289958 14.235387742519379,2.330307289958 14.759653806686401,2.117028646171093 14.759653806686401,2.117028646171093 15.30454158782959,1.9889935851097107 15.30454158782959,1.9889935851097107 15.858432650566101,1.9462868571281433 15.858432650566101,1.9462868571281433 16.413705050945282,1.989014819264412 16.413705050945282,1.989014819264412 16.959547996520996,2.117049880325794 16.959547996520996,2.117049880325794 17.484642565250397,2.330286055803299 17.484642565250397,2.330286055803299 17.977648973464966,2.628595754504204 17.977648973464966,2.628595754504204 18.427205085754395,3.0118517577648163 18.427205085754395,3.0118517577648163 18.808336555957794,3.4597940742969513 18.808336555957794,3.4597940742969513 19.10509616136551,3.9513565599918365 19.10509616136551,3.9513565599918365 19.3173348903656,4.475219547748566 19.3173348903656,4.475219547748566 19.444796442985535,5.020234361290932 19.444796442985535,5.020234361290932 19.487333297729492,5.575187504291534 19.487333297729492,5.575187504291534 19.444945454597473,6.130162253975868 19.444945454597473,6.130162253975868 19.317738711833954,6.675495207309723 19.317738711833954,6.675495207309723 19.105690717697144,7.200208306312561 19.105690717697144,7.200208306312561 18.808846175670624,7.693362981081009 18.808846175670624,7.693362981081009 18.427205085754395,8.143959939479828 18.427205085754395,8.143959939479828 14.401371777057648,12.874804437160492 14.401371777057648,12.874804437160492 11.274396628141403,18.04513782262802 11.274396628141403,18.04513782262802 9.04349759221077,23.547591269016266 9.04349759221077,23.547591269016266 7.706020027399063,29.275023937225342 7.706020027399063,29.275023937225342 7.259161025285721,35.120147466659546 7.259161025285721,35.120147466659546 7.707443088293076,40.94892144203186 7.707443088293076,40.94892144203186 9.04763862490654,46.66284918785095 9.04763862490654,46.66284918785095 11.280237138271332,52.15427875518799 11.280237138271332,52.15427875518799 14.40572589635849,57.315653562545776 14.40572589635849,57.315653562545776" stroke="white" stroke-width="0.1" /><polygon points="30.912253260612488,51.96259617805481 30.912253260612488,51.96259617805481 31.482285261154175,51.94208025932312 31.482285261154175,51.94208025932312 32.0426344871521,51.891690492630005 32.0426344871521,51.891690492630005 32.59325325489044,51.81342959403992 32.59325325489044,51.81342959403992 33.13432037830353,51.70954465866089 33.13432037830353,51.70954465866089 33.665868639945984,51.58203840255737 33.665868639945984,51.58203840255737 33.564189076423645,51.76131725311279 33.564189076423645,51.76131725311279 33.453717827796936,51.93656086921692 33.453717827796936,51.93656086921692 33.33296477794647,52.10696458816528 33.33296477794647,52.10696458816528 33.20032358169556,52.27175951004028 33.20032358169556,52.27175951004028 33.054256439208984,52.43014097213745 33.054256439208984,52.43014097213745 33.054256439208984,52.43016481399536 33.054256439208984,52.43016481399536 33.054301142692566,52.430182695388794 33.054301142692566,52.430182695388794 33.054256439208984,52.43014097213745 33.054256439208984,52.43014097213745 33.054256439208984,52.43014097213745 33.054256439208984,52.43014097213745 33.054256439208984,52.43014097213745 33.054256439208984,52.43014097213745 33.054256439208984,52.43016481399536 33.054256439208984,52.43016481399536 33.054301142692566,52.430182695388794 33.054301142692566,52.430182695388794 33.054256439208984,52.43014097213745 33.054256439208984,52.43014097213745 33.054256439208984,52.43014097213745 33.054256439208984,52.43014097213745 33.054256439208984,52.43014097213745 33.054256439208984,52.43014097213745 32.606104016304016,52.81208157539368 32.606104016304016,52.81208157539368 32.11541175842285,53.10960412025452 32.11541175842285,53.10960412025452 31.593140959739685,53.32241654396057 31.593140959739685,53.32241654396057 31.050249934196472,53.45030426979065 31.050249934196472,53.45030426979065 30.49771785736084,53.49298715591431 30.49771785736084,53.49298715591431 30.489560961723328,53.49298715591431 30.489560961723328,53.49298715591431 29.933950304985046,53.451621532440186 29.933950304985046,53.451621532440186 29.38821315765381,53.324371576309204 29.38821315765381,53.324371576309204 28.863245248794556,53.11153531074524 28.863245248794556,53.11153531074524 28.370049595832825,52.8133749961853 28.370049595832825,52.8133749961853 27.919429540634155,52.43014097213745 27.919429540634155,52.43014097213745 27.659878134727478,52.16566324234009 27.659878134727478,52.16566324234009 27.405908703804016,51.89750790596008 27.405908703804016,51.89750790596008 27.156910300254822,51.62593722343445 27.156910300254822,51.62593722343445 26.912415027618408,51.351284980773926 26.912415027618408,51.351284980773926 26.671740412712097,51.07371807098389 26.671740412712097,51.07371807098389 27.468961477279663,51.37649178504944 27.468961477279663,51.37649178504944 28.29359769821167,51.62028670310974 28.29359769821167,51.62028670310974 29.14363145828247,51.80156230926514 29.14363145828247,51.80156230926514 30.017176270484924,51.916855573654175 30.017176270484924,51.916855573654175" stroke="white" stroke-width="0.1" /><polygon points="100.0,35.120147466659546 100.0,35.120147466659546 100.0,35.23431718349457 100.0,35.23431718349457 99.99864101409912,35.23431718349457 99.99864101409912,35.23431718349457 99.45273399353027,42.146217823028564 99.45273399353027,42.146217823028564 97.84780740737915,48.9295095205307 97.84780740737915,48.9295095205307 95.18656730651855,55.450230836868286 95.18656730651855,55.450230836868286 91.47183299064636,61.574554443359375 91.47183299064636,61.574554443359375 86.70626282691956,67.16864109039307 86.70626282691956,67.16864109039307 86.25673055648804,67.5529420375824 86.25673055648804,67.5529420375824 85.76387166976929,67.85144209861755 85.76387166976929,67.85144209861755 85.23916006088257,68.0642306804657 85.23916006088257,68.0642306804657 84.69414710998535,68.19173693656921 84.69414710998535,68.19173693656921 84.14021134376526,68.23420524597168 84.14021134376526,68.23420524597168 83.58457684516907,68.19148063659668 83.58457684516907,68.19148063659668 83.03884267807007,68.06346774101257 83.03884267807007,68.06346774101257 82.51391649246216,67.8502082824707 82.51391649246216,67.8502082824707 82.02071785926819,67.55192279815674 82.02071785926819,67.55192279815674 81.57007694244385,67.16864109039307 81.57007694244385,67.16864109039307 81.19003176689148,66.71808958053589 81.19003176689148,66.71808958053589 80.8933973312378,66.22527241706848 80.8933973312378,66.22527241706848 80.68077564239502,65.70136547088623 80.68077564239502,65.70136547088623 80.55276274681091,65.1576280593872 80.55276274681091,65.1576280593872 80.50994873046875,64.60530757904053 80.50994873046875,64.60530757904053 80.55250644683838,64.05035257339478 80.55250644683838,64.05035257339478 80.68018555641174,63.50533962249756 80.68018555641174,63.50533962249756 80.8927595615387,62.98147439956665 80.8927595615387,62.98147439956665 81.1903715133667,62.48993277549744 81.1903715133667,62.48993277549744 81.5727949142456,62.04197406768799 81.5727949142456,62.04197406768799 85.59346795082092,57.317054271698 85.59346795082092,57.317054271698 88.71978521347046,52.154892683029175 88.71978521347046,52.154892683029175 90.9525990486145,46.66299521923065 90.9525990486145,46.66299521923065 92.2926664352417,40.94890058040619 92.2926664352417,40.94890058040619 92.74083971977234,35.120147466659546 92.74083971977234,35.120147466659546 92.29398369789124,29.275023937225342 92.29398369789124,29.275023937225342 90.95633625984192,23.547612130641937 90.95633625984192,23.547612130641937 88.72501254081726,18.04509609937668 88.72501254081726,18.04509609937668 85.59724688529968,12.874825298786163 85.59724688529968,12.874825298786163 81.57007694244385,8.143959939479828 81.57007694244385,8.143959939479828 81.19003176689148,7.693362981081009 81.19003176689148,7.693362981081009 80.89357018470764,7.2002507746219635 80.89357018470764,7.2002507746219635 80.68132996559143,6.675495207309723 80.68132996559143,6.675495207309723 80.55416345596313,6.130162253975868 80.55416345596313,6.130162253975868 80.51266670227051,5.575187504291534 80.51266670227051,5.575187504291534 80.55412173271179,5.021593347191811 80.55412173271179,5.021593347191811 80.68137168884277,4.47736456990242 80.68137168884277,4.47736456990242 80.89352250099182,3.953862562775612 80.89352250099182,3.953862562775612 81.19003176689148,3.4624911844730377 81.19003176689148,3.4624911844730377 81.57007694244385,3.014570102095604 81.57007694244385,3.014570102095604 82.01978206634521,2.62870192527771 82.01978206634521,2.62870192527771 82.51315355300903,2.3289481177926064 82.51315355300903,2.3289481177926064 83.03862810134888,2.1152447909116745 83.03862810134888,2.1152447909116745 83.5848331451416,1.9877193495631218 83.5848331451416,1.9877193495631218 84.14021134376526,1.9462868571281433 84.14021134376526,1.9462868571281433 84.69439744949341,1.9889723509550095 84.69439744949341,1.9889723509550095 85.23873686790466,2.1166888996958733 85.23873686790466,2.1166888996958733 85.76221466064453,2.329096756875515 85.76221466064453,2.329096756875515 86.2537145614624,2.6258138939738274 86.2537145614624,2.6258138939738274 86.70218586921692,3.006415255367756 86.70218586921692,3.006415255367756 91.48954153060913,8.63184854388237 91.48954153060913,8.63184854388237 95.21285891532898,14.790447056293488 95.21285891532898,14.790447056293488 97.87188768386841,21.346592903137207 97.87188768386841,21.346592903137207 99.46675300598145,28.164711594581604 99.46675300598145,28.164711594581604 99.99728202819824,35.109275579452515 99.99728202819824,35.109275579452515" stroke="white" stroke-width="0.1" /><polygon points="89.70316648483276,35.788846015930176 89.70316648483276,35.788846015930176 89.20886516571045,40.991947054862976 89.20886516571045,40.991947054862976 87.9368782043457,46.092307567596436 87.9368782043457,46.092307567596436 85.88814735412598,50.99382996559143 85.88814735412598,50.99382996559143 83.06381702423096,55.60033321380615 83.06381702423096,55.60033321380615 79.4647753238678,59.81570482254028 79.4647753238678,59.81570482254028 79.01371121406555,60.19766330718994 79.01371121406555,60.19766330718994 78.52051258087158,60.49518585205078 78.52051258087158,60.49518585205078 77.99622416496277,60.707974433898926 77.99622416496277,60.707974433898926 77.45155096054077,60.835862159729004 77.45155096054077,60.835862159729004 76.89735889434814,60.87855100631714 76.89735889434814,60.87855100631714 76.34240388870239,60.83582043647766 76.34240388870239,60.83582043647766 75.7972240447998,60.7078492641449 75.7972240447998,60.7078492641449 75.27293562889099,60.494548082351685 75.27293562889099,60.494548082351685 74.78058338165283,60.19626259803772 74.78058338165283,60.19626259803772 74.33130741119385,59.81298089027405 74.33130741119385,59.81298089027405 73.94809126853943,59.36480760574341 73.94809126853943,59.36480760574341 73.64993095397949,58.8727593421936 73.64993095397949,58.8727593421936 73.4370768070221,58.34842920303345 73.4370768070221,58.34842920303345 73.30985069274902,57.80354142189026 73.30985069274902,57.80354142189026 73.26846122741699,57.24964737892151 73.26846122741699,57.24964737892151 73.30985069274902,56.69358968734741 73.30985069274902,56.69358968734741 73.43710064888,56.14815354347229 73.43710064888,56.14815354347229 73.64993095397949,55.623817443847656 73.64993095397949,55.623817443847656 73.948073387146,55.13121485710144 73.948073387146,55.13121485710144 74.33130741119385,54.680877923965454 74.33130741119385,54.680877923965454 75.41067600250244,53.53749990463257 75.41067600250244,53.53749990463257 76.41163468360901,52.35050320625305 76.41163468360901,52.35050320625305 77.33495831489563,51.123374700546265 77.33495831489563,51.123374700546265 78.18161845207214,49.85939264297485 78.18161845207214,49.85939264297485 78.95237803459167,48.562031984329224 78.95237803459167,48.562031984329224 79.98939752578735,48.46417307853699 79.98939752578735,48.46417307853699 80.42504787445068,48.42280447483063 80.42504787445068,48.42280447483063 80.93637824058533,48.37629795074463 80.93637824058533,48.37629795074463 81.52136206626892,48.309147357940674 81.52136206626892,48.309147357940674 82.17816352844238,48.205938935279846 82.17816352844238,48.205938935279846 82.90475606918335,48.05099666118622 82.90475606918335,48.05099666118622 83.69356393814087,47.8197306394577 83.69356393814087,47.8197306394577 84.53691005706787,47.471684217453 84.53691005706787,47.471684217453 85.39600968360901,46.99704647064209 85.39600968360901,46.99704647064209 86.23217940330505,46.38609290122986 86.23217940330505,46.38609290122986 87.00663447380066,45.62900960445404 87.00663447380066,45.62900960445404 87.61833310127258,44.841983914375305 87.61833310127258,44.841983914375305 88.08799982070923,44.055530428886414 88.08799982070923,44.055530428886414 88.43967914581299,43.28763782978058 88.43967914581299,43.28763782978058 88.69732022285461,42.55661368370056 88.69732022285461,42.55661368370056 88.88496160507202,41.88050627708435 88.88496160507202,41.88050627708435 89.01926279067993,41.2637323141098 89.01926279067993,41.2637323141098 89.12103176116943,40.699413418769836 89.12103176116943,40.699413418769836 89.19841647148132,40.193623304367065 89.19841647148132,40.193623304367065 89.25970196723938,39.7525817155838 89.25970196723938,39.7525817155838 89.31309580802917,39.38240706920624 89.31309580802917,39.38240706920624 89.31377530097961,39.3777996301651 89.31377530097961,39.3777996301651 89.31436538696289,39.373594522476196 89.31436538696289,39.373594522476196 89.31496143341064,39.36949670314789 89.31496143341064,39.36949670314789 89.31581377983093,39.365291595458984 89.31581377983093,39.365291595458984 89.31717276573181,39.360663294792175 89.31717276573181,39.360663294792175 89.31717276573181,39.360663294792175 89.31717276573181,39.360663294792175 89.31721448898315,39.36068415641785 89.31721448898315,39.36068415641785 89.31717276573181,39.360663294792175 89.31717276573181,39.360663294792175 89.31717276573181,39.360663294792175 89.31717276573181,39.360663294792175 89.31717276573181,39.360663294792175 89.31717276573181,39.360663294792175 89.31717276573181,39.360663294792175 89.31717276573181,39.360663294792175 89.31721448898315,39.36068415641785 89.31721448898315,39.36068415641785 89.31717276573181,39.360663294792175 89.31717276573181,39.360663294792175 89.31717276573181,39.360663294792175 89.31717276573181,39.360663294792175 89.31717276573181,39.360663294792175 89.31717276573181,39.360663294792175 89.31581377983093,39.360663294792175 89.31581377983093,39.360663294792175 89.36890363693237,39.10873234272003 89.36890363693237,39.10873234272003 89.44709300994873,38.745927810668945 89.44709300994873,38.745927810668945 89.53132033348083,38.26954960823059 89.53132033348083,38.26954960823059 89.60258960723877,37.67707049846649 89.60258960723877,37.67707049846649 89.64200615882874,36.965858936309814 89.64200615882874,36.965858936309814 89.62119221687317,36.61445677280426 89.62119221687317,36.61445677280426 89.59707021713257,36.19386851787567 89.59707021713257,36.19386851787567 89.49950933456421,35.666289925575256 89.49950933456421,35.666289925575256 89.25873041152954,34.99391973018646 89.25873041152954,34.99391973018646 88.80477547645569,34.13884937763214 88.80477547645569,34.13884937763214 88.65777850151062,33.955684304237366 88.65777850151062,33.955684304237366 88.51829171180725,33.7902307510376 88.51829171180725,33.7902307510376 88.38594555854797,33.64132046699524 88.38594555854797,33.64132046699524 88.26044201850891,33.50786864757538 88.26044201850891,33.50786864757538 88.14151287078857,33.3886057138443 88.14151287078857,33.3886057138443 88.14151287078857,33.388328552246094 88.14151287078857,33.388328552246094 88.14160227775574,33.387500047683716 88.14160227775574,33.387500047683716 88.14181089401245,33.38624835014343 88.14181089401245,33.38624835014343 88.14219236373901,33.38478207588196 88.14219236373901,33.38478207588196 88.14287185668945,33.383169770240784 88.14287185668945,33.383169770240784 88.29255104064941,33.020639419555664 88.29255104064941,33.020639419555664 88.41313123703003,32.6423317193985 88.41313123703003,32.6423317193985 88.50122094154358,32.255253195762634 88.50122094154358,32.255253195762634 88.55363130569458,31.866496801376343 88.55363130569458,31.866496801376343 88.56692314147949,31.48309290409088 88.56692314147949,31.48309290409088 88.52105736732483,30.84767460823059 88.52105736732483,30.84767460823059 88.40616345405579,30.290532112121582 88.40616345405579,30.290532112121582 88.24438452720642,29.80973720550537 88.24438452720642,29.80973720550537 88.0577564239502,29.403269290924072 88.0577564239502,29.403269290924072 87.86832690238953,29.069262742996216 87.86832690238953,29.069262742996216 87.54166960716248,28.61112654209137 87.54166960716248,28.61112654209137 87.24371790885925,28.262826800346375 87.24371790885925,28.262826800346375 86.9724452495575,27.99791991710663 86.9724452495575,27.99791991710663 86.72601580619812,27.78988778591156 86.72601580619812,27.78988778591156 86.50239109992981,27.612265944480896 86.50239109992981,27.612265944480896 86.19658946990967,27.396118640899658 86.19658946990967,27.396118640899658 85.91830134391785,27.21584141254425 85.91830134391785,27.21584141254425 85.66452860832214,27.064257860183716 85.66452860832214,27.064257860183716 85.43254137039185,26.934224367141724 85.43254137039185,26.934224367141724 85.21936535835266,26.81852877140045 85.21936535835266,26.81852877140045 85.02976894378662,26.72349512577057 85.02976894378662,26.72349512577057 84.85936522483826,26.640716195106506 84.85936522483826,26.640716195106506 84.72124338150024,26.57524347305298 84.72124338150024,26.57524347305298 84.62852239608765,26.532259583473206 84.62852239608765,26.532259583473206 84.59416031837463,26.51679813861847 84.59416031837463,26.51679813861847 83.78335237503052,26.14065706729889 83.78335237503052,26.14065706729889 82.96786546707153,25.79038143157959 82.96786546707153,25.79038143157959 82.14830756187439,25.463658571243286 82.14830756187439,25.463658571243286 81.3256025314331,25.158360600471497 81.3256025314331,25.158360600471497 80.5004358291626,24.87224191427231 80.5004358291626,24.87224191427231 79.60544228553772,22.85551279783249 79.60544228553772,22.85551279783249 78.54132056236267,20.899605751037598 78.54132056236267,20.899605751037598 77.30743885040283,19.015032052993774 77.30743885040283,19.015032052993774 75.90336203575134,17.212432622909546 75.90336203575134,17.212432622909546 74.32858943939209,15.502338111400604 74.32858943939209,15.502338111400604 73.94694685935974,15.051740407943726 73.94694685935974,15.051740407943726 73.65012168884277,14.558607339859009 73.65012168884277,14.558607339859009 73.43809604644775,14.0338733792305 73.43809604644775,14.0338733792305 73.31086993217468,13.488540053367615 73.31086993217468,13.488540053367615 73.26846122741699,12.93356567621231 73.26846122741699,12.93356567621231 73.31086993217468,12.379695475101471 73.31086993217468,12.379695475101471 73.43792915344238,11.834977567195892 73.43792915344238,11.834977567195892 73.64952564239502,11.311093717813492 73.64952564239502,11.311093717813492 73.94554615020752,10.819807648658752 73.94554615020752,10.819807648658752 74.32587146759033,10.37294790148735 74.32587146759033,10.37294790148735 74.77559447288513,9.990477561950684 74.77559447288513,9.990477561950684 75.26902556419373,9.691616147756577 75.26902556419373,9.691616147756577 75.79471468925476,9.477169066667557 75.79471468925476,9.477169066667557 76.34130120277405,9.34792384505272 76.34130120277405,9.34792384505272 76.89735889434814,9.30466502904892 76.89735889434814,9.30466502904892 77.45155096054077,9.34792384505272 77.45155096054077,9.34792384505272 77.99614071846008,9.477020800113678 77.99614071846008,9.477020800113678 78.52025628089905,9.690999984741211 78.52025628089905,9.690999984741211 79.01294231414795,9.989076107740402 79.01294231414795,9.989076107740402 79.46341633796692,10.370229929685593 79.46341633796692,10.370229929685593 83.14697742462158,14.695370197296143 83.14697742462158,14.695370197296143 86.01531386375427,19.432947039604187 86.01531386375427,19.432947039604187 88.06659579277039,24.47800636291504 88.06659579277039,24.47800636291504 89.29877877235413,29.72576916217804 89.29877877235413,29.72576916217804 89.70996141433716,35.07122099399567 89.70996141433716,35.07122099399567 89.70996141433716,35.0820928812027 89.70996141433716,35.0820928812027 89.70996141433716,35.788846015930176 89.70996141433716,35.788846015930176" stroke="white" stroke-width="0.1" /><polygon points="70.75541019439697,51.943570375442505 70.75541019439697,51.943570375442505 71.19186520576477,51.90555453300476 71.19186520576477,51.90555453300476 71.62203192710876,51.85070037841797 71.62203192710876,51.85070037841797 72.04586863517761,51.77975296974182 72.04586863517761,51.77975296974182 72.4632978439331,51.693570613861084 72.4632978439331,51.693570613861084 72.87430763244629,51.592910289764404 72.87430763244629,51.592910289764404 72.71919846534729,51.76244378089905 72.71919846534729,51.76244378089905 72.562175989151,51.931506395339966 72.562175989151,51.931506395339966 72.40310907363892,52.099448442459106 72.40310907363892,52.099448442459106 72.2421407699585,52.26583480834961 72.2421407699585,52.26583480834961 72.07921147346497,52.43014097213745 72.07921147346497,52.43014097213745 71.63090705871582,52.81208157539368 71.63090705871582,52.81208157539368 71.13981246948242,53.10960412025452 71.13981246948242,53.10960412025452 70.61692476272583,53.32241654396057 70.61692476272583,53.32241654396057 70.0732946395874,53.45030426979065 70.0732946395874,53.45030426979065 69.51995491981506,53.49298715591431 69.51995491981506,53.49298715591431 69.51180100440979,53.49298715591431 69.51180100440979,53.49298715591431 68.95620822906494,53.45032215118408 68.95620822906494,53.45032215118408 68.410724401474,53.32241654396057 68.410724401474,53.32241654396057 67.88637638092041,53.109586238861084 67.88637638092041,53.109586238861084 67.39436388015747,52.81208157539368 67.39436388015747,52.81208157539368 66.94574356079102,52.43014097213745 66.94574356079102,52.43014097213745 66.7382001876831,52.20467448234558 66.7382001876831,52.20467448234558 66.55397415161133,51.96646451950073 66.55397415161133,51.96646451950073 66.39246940612793,51.71695351600647 66.39246940612793,51.71695351600647 66.25322103500366,51.45782828330994 66.25322103500366,51.45782828330994 66.13569855690002,51.190608739852905 66.13569855690002,51.190608739852905 66.89114570617676,51.455384492874146 66.89114570617676,51.455384492874146 67.67018437385559,51.66730284690857 67.67018437385559,51.66730284690857 68.470698595047,51.823753118515015 68.470698595047,51.823753118515015 69.29051280021667,51.92214250564575 69.29051280021667,51.92214250564575 70.12748718261719,51.95987820625305 70.12748718261719,51.95987820625305 70.24915218353271,51.959264278411865 70.24915218353271,51.959264278411865 70.3661859035492,51.95745825767517 70.3661859035492,51.95745825767517 70.47848701477051,51.954591274261475 70.47848701477051,51.954591274261475 70.58607339859009,51.95083022117615 70.58607339859009,51.95083022117615 70.68881392478943,51.94628834724426 70.68881392478943,51.94628834724426 70.74317932128906,51.943570375442505 70.74317932128906,51.943570375442505" stroke="white" stroke-width="0.1" /></svg>