<?xml version="1.0" encoding="utf-8" ?>
<svg baseProfile="full" height="91.07911586761475" version="1.1" width="99.99337792396545" xmlns="http://www.w3.org/2000/svg" xmlns:ev="http://www.w3.org/2001/xml-events" xmlns:xlink="http://www.w3.org/1999/xlink"><defs><clipPath /></defs><polygon points="74.91018176078796,41.09505116939545 74.91018176078796,41.09505116939545 71.4829683303833,41.09505116939545 71.4829683303833,41.09505116939545 71.4829683303833,31.546878814697266 71.4829683303833,31.546878814697266 74.91018176078796,31.546878814697266 74.91018176078796,31.546878814697266" stroke="white" stroke-width="0.1" /><polygon points="87.6388669013977,41.09505116939545 87.6388669013977,41.09505116939545 77.8439998626709,41.09505116939545 77.8439998626709,41.09505116939545 77.8439998626709,31.55018985271454 77.8439998626709,31.55018985271454 87.6388669013977,31.55018985271454 87.6388669013977,31.55018985271454" stroke="white" stroke-width="0.1" /><polygon points="29.407772421836853,72.67670035362244 29.407772421836853,72.67670035362244 42.83017814159393,85.72327494621277 42.83017814159393,85.72327494621277 43.16865801811218,86.10893487930298 43.16865801811218,86.10893487930298 43.43273341655731,86.5359902381897 43.43273341655731,86.5359902381897 43.62194538116455,86.99398636817932 43.62194538116455,86.99398636817932 43.73582303524017,87.47268319129944 43.73582303524017,87.47268319129944 43.77390146255493,87.96172142028809 43.77390146255493,87.96172142028809 43.73820126056671,88.43575716018677 43.73820126056671,88.43575716018677 43.63146424293518,88.89943957328796 43.63146424293518,88.89943957328796 43.45420598983765,89.34584856033325 43.45420598983765,89.34584856033325 43.2068407535553,89.76742029190063 43.2068407535553,89.76742029190063 42.889782786369324,90.15712141990662 42.889782786369324,90.15712141990662 42.079752683639526,90.75688123703003 42.079752683639526,90.75688123703003 41.15661978721619,91.06473326683044 41.15661978721619,91.06473326683044 40.19308090209961,91.07911586761475 40.19308090209961,91.07911586761475 39.26192820072174,90.79806804656982 39.26192820072174,90.79806804656982 38.4360671043396,90.22003412246704 38.4360671043396,90.22003412246704 21.854665875434875,74.09393787384033 21.854665875434875,74.09393787384033 21.520741283893585,73.71551990509033 21.520741283893585,73.71551990509033 21.254490315914154,73.29332828521729 21.254490315914154,73.29332828521729 21.05974406003952,72.83636331558228 21.05974406003952,72.83636331558228 20.94012349843979,72.35301733016968 20.94012349843979,72.35301733016968 20.899352431297302,71.85218334197998 20.899352431297302,71.85218334197998 20.94007134437561,71.34492993354797 20.94007134437561,71.34492993354797 21.059691905975342,70.85734009742737 21.059691905975342,70.85734009742737 21.254490315914154,70.3978955745697 21.254490315914154,70.3978955745697 21.520741283893585,69.9740469455719 21.520741283893585,69.9740469455719 21.854665875434875,69.59386467933655 21.854665875434875,69.59386467933655 38.4360671043396,53.469425439834595 38.4360671043396,53.469425439834595 39.26322162151337,52.89677977561951 39.26322162151337,52.89677977561951 40.19452929496765,52.61759161949158 40.19452929496765,52.61759161949158 41.15760326385498,52.632492780685425 41.15760326385498,52.632492780685425 42.08011329174042,52.94220447540283 42.08011329174042,52.94220447540283 42.889782786369324,53.547245264053345 42.889782786369324,53.547245264053345 43.46356987953186,54.368656873703 43.46356987953186,54.368656873703 43.74291002750397,55.2964448928833 43.74291002750397,55.2964448928833 43.72811317443848,56.25755190849304 43.72811317443848,56.25755190849304 43.419280648231506,57.17892646789551 43.419280648231506,57.17892646789551 42.81693398952484,57.98771381378174 42.81693398952484,57.98771381378174 29.407772421836853,71.02766633033752 29.407772421836853,71.02766633033752 29.284322261810303,71.16239666938782 29.284322261810303,71.16239666938782 29.18684482574463,71.31450772285461 29.18684482574463,71.31450772285461 29.11611795425415,71.48193717002869 29.11611795425415,71.48193717002869 29.073017835617065,71.66188359260559 29.073017835617065,71.66188359260559 29.05842661857605,71.85218334197998 29.05842661857605,71.85218334197998 29.072967171669006,72.03513383865356 29.072967171669006,72.03513383865356 29.116064310073853,72.21249341964722 29.116064310073853,72.21249341964722 29.18684482574463,72.38075137138367 29.18684482574463,72.38075137138367 29.284322261810303,72.53658771514893 29.284322261810303,72.53658771514893" stroke="white" stroke-width="0.1" /><polygon points="50.002485513687134,31.17104470729828 50.002485513687134,31.17104470729828 48.592692613601685,30.71284294128418 48.592692613601685,30.71284294128418 47.88774251937866,29.62021231651306 47.88774251937866,29.62021231651306 47.88779616355896,28.316280245780945 47.88779616355896,28.316280245780945 48.592692613601685,27.223598957061768 48.592692613601685,27.223598957061768 50.002485513687134,26.76534354686737 50.002485513687134,26.76534354686737 51.4123260974884,27.22354531288147 51.4123260974884,27.22354531288147 52.11722254753113,28.316175937652588 52.11722254753113,28.316175937652588 52.117276191711426,29.62031662464142 52.117276191711426,29.62031662464142 51.4123260974884,30.712947249412537 51.4123260974884,30.712947249412537" stroke="white" stroke-width="0.1" /><polygon points="54.54891324043274,9.056441485881805 54.54891324043274,9.056441485881805 60.02246141433716,9.143415093421936 60.02246141433716,9.143415093421936 64.93624448776245,9.39207375049591 64.93624448776245,9.39207375049591 68.9990222454071,9.784308820962906 68.9990222454071,9.784308820962906 71.91959619522095,10.301494598388672 71.91959619522095,10.301494598388672 73.40684533119202,10.925677418708801 73.40684533119202,10.925677418708801 75.12800097465515,12.81074583530426 75.12800097465515,12.81074583530426 76.85893774032593,15.10113924741745 76.85893774032593,15.10113924741745 78.37448716163635,17.6825150847435 78.37448716163635,17.6825150847435 79.44900393486023,20.439855754375458 79.44900393486023,20.439855754375458 79.8572838306427,23.258662223815918 79.8572838306427,23.258662223815918 78.63266468048096,23.07700663805008 78.63266468048096,23.07700663805008 74.98928904533386,22.643794119358063 74.98928904533386,22.643794119358063 68.97273659706116,22.12681472301483 68.97273659706116,22.12681472301483 60.62858700752258,21.693652868270874 60.62858700752258,21.693652868270874 50.002485513687134,21.511945128440857 50.002485513687134,21.511945128440857 39.37523663043976,21.693602204322815 39.37523663043976,21.693602204322815 31.029796600341797,22.126762568950653 31.029796600341797,22.126762568950653 25.012004375457764,22.6438969373703 25.012004375457764,22.6438969373703 21.367695927619934,23.07705730199814 21.367695927619934,23.07705730199814 20.14271765947342,23.258662223815918 20.14271765947342,23.258662223815918 20.55114656686783,20.439907908439636 20.55114656686783,20.439907908439636 21.626392006874084,17.682412266731262 21.626392006874084,17.682412266731262 23.142819106578827,15.101243555545807 23.142819106578827,15.101243555545807 24.875204265117645,12.81074583530426 24.875204265117645,12.81074583530426 26.598122715950012,10.925677418708801 26.598122715950012,10.925677418708801 28.083401918411255,10.301494598388672 28.083401918411255,10.301494598388672 31.002220511436462,9.784206002950668 31.002220511436462,9.784206002950668 35.063546895980835,9.39207375049591 35.063546895980835,9.39207375049591 39.97623920440674,9.143415093421936 39.97623920440674,9.143415093421936 45.449426770210266,9.056441485881805 45.449426770210266,9.056441485881805 46.3508278131485,9.058821201324463 46.3508278131485,9.058821201324463 47.2580760717392,9.065961092710495 47.2580760717392,9.065961092710495 48.17003309726715,9.078016132116318 48.17003309726715,9.078016132116318 49.08524751663208,9.09462496638298 49.08524751663208,9.09462496638298 50.002485513687134,9.116044640541077 50.002485513687134,9.116044640541077 50.91816186904907,9.09462496638298 50.91816186904907,9.09462496638298 51.83218717575073,9.07791331410408 51.83218717575073,9.07791331410408 52.74311304092407,9.065961092710495 52.74311304092407,9.065961092710495 53.64916920661926,9.058872610330582 53.64916920661926,9.058872610330582" stroke="white" stroke-width="0.1" /><polygon points="99.99337792396545,63.40833306312561 99.99337792396545,63.40833306312561 99.98406171798706,64.68287706375122 99.98406171798706,64.68287706375122 99.78269338607788,66.4972722530365 99.78269338607788,66.4972722530365 99.18308854103088,68.63006949424744 99.18308854103088,68.63006949424744 97.9787528514862,70.8598256111145 97.9787528514862,70.8598256111145 95.9635078907013,72.96478152275085 95.9635078907013,72.96478152275085 94.37811374664307,73.99749755859375 94.37811374664307,73.99749755859375 92.77787208557129,74.6728003025055 92.77787208557129,74.6728003025055 91.20623469352722,75.06436109542847 91.20623469352722,75.06436109542847 89.70615863800049,75.24545192718506 89.70615863800049,75.24545192718506 88.32099437713623,75.28932690620422 88.32099437713623,75.28932690620422 88.10840249061584,75.28859972953796 88.10840249061584,75.28859972953796 87.89580464363098,75.28632283210754 87.89580464363098,75.28632283210754 87.68330812454224,75.28290748596191 87.68330812454224,75.28290748596191 87.47071623802185,75.27835369110107 87.47071623802185,75.27835369110107 87.25806474685669,75.27276873588562 87.25806474685669,75.27276873588562 87.10274696350098,75.2704918384552 87.10274696350098,75.2704918384552 86.94695830345154,75.26790499687195 86.94695830345154,75.26790499687195 86.79106831550598,75.26541948318481 86.79106831550598,75.26541948318481 86.63522601127625,75.26366114616394 86.63522601127625,75.26366114616394 86.47990822792053,75.26283264160156 86.47990822792053,75.26283264160156 85.9836220741272,75.26252269744873 85.9836220741272,75.26252269744873 85.48806309700012,75.26159286499023 85.48806309700012,75.26159286499023 84.99343991279602,75.26076436042786 84.99343991279602,75.26076436042786 84.4995379447937,75.25993585586548 84.4995379447937,75.25993585586548 84.00635719299316,75.25952458381653 84.00635719299316,75.25952458381653 84.38602089881897,74.43190217018127 84.38602089881897,74.43190217018127 84.68791842460632,73.56951236724854 84.68791842460632,73.56951236724854 84.90827679634094,72.67773151397705 84.90827679634094,72.67773151397705 85.04336476325989,71.76142930984497 85.04336476325989,71.76142930984497 85.08915305137634,70.8256721496582 85.08915305137634,70.8256721496582 85.08346676826477,70.5346941947937 85.08346676826477,70.5346941947937 85.06742715835571,70.24588584899902 85.06742715835571,70.24588584899902 85.04269123077393,69.95883584022522 85.04269123077393,69.95883584022522 85.0107192993164,69.67313289642334 85.0107192993164,69.67313289642334 84.97325778007507,69.38856244087219 84.97325778007507,69.38856244087219 86.47990822792053,69.38856244087219 86.47990822792053,69.38856244087219 86.84337735176086,69.39094662666321 86.84337735176086,69.39094662666321 87.20994591712952,69.39674019813538 87.20994591712952,69.39674019813538 87.5790536403656,69.40367221832275 87.5790536403656,69.40367221832275 87.9496157169342,69.40946578979492 87.9496157169342,69.40946578979492 88.32099437713623,69.41174268722534 88.32099437713623,69.41174268722534 89.17210698127747,69.39001083374023 89.17210698127747,69.39001083374023 90.00899195671082,69.30422782897949 90.00899195671082,69.30422782897949 90.81959128379822,69.12386417388916 90.81959128379822,69.12386417388916 91.59210920333862,68.81839632987976 91.59210920333862,68.81839632987976 92.31444001197815,68.3570921421051 92.31444001197815,68.3570921421051 93.11349987983704,67.55099296569824 93.11349987983704,67.55099296569824 93.6441421508789,66.64524674415588 93.6441421508789,66.64524674415588 93.95617842674255,65.65868258476257 93.95617842674255,65.65868258476257 94.09903287887573,64.6097183227539 94.09903287887573,64.6097183227539 94.12241578102112,63.517606258392334 94.12241578102112,63.517606258392334 94.03140544891357,58.642005920410156 94.03140544891357,58.642005920410156 93.94096732139587,53.766411542892456 93.94096732139587,53.766411542892456 93.85114908218384,48.890915513038635 93.85114908218384,48.890915513038635 93.76158714294434,44.015318155288696 93.76158714294434,44.015318155288696 93.67207884788513,39.13972079753876 93.67207884788513,39.13972079753876 93.58293414115906,38.38401734828949 93.58293414115906,38.38401734828949 93.40319037437439,37.68501877784729 93.40319037437439,37.68501877784729 93.19887161254883,37.00495958328247 93.19887161254883,37.00495958328247 93.03573966026306,36.30606532096863 93.03573966026306,36.30606532096863 92.98001527786255,35.550257563591 92.98001527786255,35.550257563591 92.99626350402832,34.81669723987579 92.99626350402832,34.81669723987579 93.01317930221558,34.083759784698486 93.01317930221558,34.083759784698486 93.03056597709656,33.35123360157013 93.03056597709656,33.35123360157013 93.0482566356659,32.61829614639282 93.0482566356659,32.61829614639282 93.06610822677612,31.884634494781494 93.06610822677612,31.884634494781494 92.70496964454651,31.257864832878113 92.70496964454651,31.257864832878113 91.80212020874023,30.623850226402283 91.80212020874023,30.623850226402283 90.6703233718872,29.986628890037537 90.6703233718872,29.986628890037537 89.6220326423645,29.34982180595398 89.6220326423645,29.34982180595398 88.9700174331665,28.717362880706787 88.9700174331665,28.717362880706787 89.05279636383057,28.717362880706787 89.05279636383057,28.717362880706787 91.48764610290527,28.081074357032776 91.48764610290527,28.081074357032776 93.20093989372253,26.450562477111816 93.20093989372253,26.450562477111816 94.03684139251709,24.24362301826477 94.03684139251709,24.24362301826477 93.83966326713562,21.877534687519073 93.83966326713562,21.877534687519073 92.45351552963257,19.770194590091705 92.45351552963257,19.770194590091705 91.63117408752441,19.174520671367645 91.63117408752441,19.174520671367645 90.7575011253357,18.792632222175598 90.7575011253357,18.792632222175598 89.83835577964783,18.57796609401703 89.83835577964783,18.57796609401703 88.87968063354492,18.48338693380356 88.87968063354492,18.48338693380356 87.88721561431885,18.462225794792175 87.88721561431885,18.462225794792175 86.0063910484314,18.462225794792175 86.0063910484314,18.462225794792175 85.75519323348999,18.467606604099274 85.75519323348999,18.467606604099274 85.50591468811035,18.484163284301758 85.50591468811035,18.484163284301758 85.25803089141846,18.513084948062897 85.25803089141846,18.513084948062897 85.01113057136536,18.55509728193283 85.01113057136536,18.55509728193283 84.76464748382568,18.611234426498413 84.76464748382568,18.611234426498413 84.49963927268982,18.68087649345398 84.49963927268982,18.68087649345398 84.28031802177429,18.74047964811325 84.28031802177429,18.74047964811325 84.09974575042725,18.787148594856262 84.09974575042725,18.787148594856262 83.9510977268219,18.817363679409027 83.9510977268219,18.817363679409027 83.82754325866699,18.828125298023224 83.82754325866699,18.828125298023224 83.67149829864502,18.797393143177032 83.67149829864502,18.797393143177032 83.54008197784424,18.696604669094086 83.54008197784424,18.696604669094086 83.4079921245575,18.513137102127075 83.4079921245575,18.513137102127075 83.24956893920898,18.233951926231384 83.24956893920898,18.233951926231384 83.03945064544678,17.846322059631348 83.03945064544678,17.846322059631348 82.34226703643799,16.573742032051086 82.34226703643799,16.573742032051086 81.64461255073547,15.301422774791718 81.64461255073547,15.301422774791718 80.94525337219238,14.03018832206726 80.94525337219238,14.03018832206726 80.24284243583679,12.76061087846756 80.24284243583679,12.76061087846756 79.53608632087708,11.493567377328873 79.53608632087708,11.493567377328873 79.25720810890198,10.993403941392899 79.25720810890198,10.993403941392899 78.9714515209198,10.49603447318077 78.9714515209198,10.49603447318077 78.6650002002716,10.013048350811005 78.6650002002716,10.013048350811005 78.32362651824951,9.55582857131958 78.32362651824951,9.55582857131958 77.93340682983398,9.135912358760834 77.93340682983398,9.135912358760834 76.82152986526489,8.32877978682518 76.82152986526489,8.32877978682518 75.53513646125793,7.776100933551788 75.53513646125793,7.776100933551788 74.15002584457397,7.4141331017017365 74.15002584457397,7.4141331017017365 72.7420449256897,7.178978621959686 72.7420449256897,7.178978621959686 71.38694524765015,7.00673833489418 71.38694524765015,7.00673833489418 67.55440831184387,6.587650626897812 67.55440831184387,6.587650626897812 63.69626522064209,6.269091367721558 63.69626522064209,6.269091367721558 59.821975231170654,6.046923249959946 59.821975231170654,6.046923249959946 55.94080686569214,5.916747450828552 55.94080686569214,5.916747450828552 52.06211805343628,5.87426945567131 52.06211805343628,5.87426945567131 50.870513916015625,5.8784086257219315 50.870513916015625,5.8784086257219315 49.679991602897644,5.890411883592606 49.679991602897644,5.890411883592606 48.490971326828,5.910072848200798 48.490971326828,5.910072848200798 47.30365872383118,5.936770513653755 47.30365872383118,5.936770513653755 46.11831307411194,5.970297381281853 46.11831307411194,5.970297381281853 42.738497257232666,6.079363822937012 42.738497257232666,6.079363822937012 39.35376703739166,6.208143010735512 39.35376703739166,6.208143010735512 35.96949875354767,6.380537897348404 35.96949875354767,6.380537897348404 32.59108066558838,6.620504707098007 32.59108066558838,6.620504707098007 29.22399342060089,6.9521017372608185 29.22399342060089,6.9521017372608185 27.818134427070618,7.1143560111522675 27.818134427070618,7.1143560111522675 26.349154114723206,7.335179299116135 26.349154114723206,7.335179299116135 24.89595264196396,7.68105611205101 24.89595264196396,7.68105611205101 23.53707253932953,8.217747509479523 23.53707253932953,8.217747509479523 22.35136330127716,9.011738747358322 22.35136330127716,9.011738747358322 21.594159305095673,9.823010116815567 21.594159305095673,9.823010116815567 20.94917744398117,10.764767974615097 20.94917744398117,10.764767974615097 20.38278728723526,11.777874827384949 20.38278728723526,11.777874827384949 19.861358404159546,12.80277818441391 19.861358404159546,12.80277818441391 19.35131400823593,13.780029118061066 19.35131400823593,13.780029118061066 18.77473145723343,14.827129244804382 18.77473145723343,14.827129244804382 18.19918304681778,15.874280035495758 18.19918304681778,15.874280035495758 17.624463140964508,16.92194789648056 17.624463140964508,16.92194789648056 17.050571739673615,17.969927191734314 17.050571739673615,17.969927191734314 16.47709310054779,19.01852637529373 16.47709310054779,19.01852637529373 15.868225693702698,18.763451278209686 15.868225693702698,18.763451278209686 15.249890089035034,18.60036998987198 15.249890089035034,18.60036998987198 14.622551202774048,18.50920468568802 14.622551202774048,18.50920468568802 13.986779749393463,18.469417095184326 13.986779749393463,18.469417095184326 13.342936336994171,18.46057027578354 13.342936336994171,18.46057027578354 13.206447660923004,18.460777401924133 13.206447660923004,18.460777401924133 13.069286942481995,18.461139500141144 13.069286942481995,18.461139500141144 12.931504845619202,18.46165657043457 12.931504845619202,18.46165657043457 12.793050706386566,18.46207082271576 12.793050706386566,18.46207082271576 12.654182314872742,18.462225794792175 12.654182314872742,18.462225794792175 10.942130535840988,18.562082946300507 10.942130535840988,18.562082946300507 9.328589588403702,18.921101093292236 9.328589588403702,18.921101093292236 7.9207643866539,19.628480076789856 7.9207643866539,19.628480076789856 6.825702637434006,20.773108303546906 6.825702637434006,20.773108303546906 6.150763854384422,22.4440798163414 6.150763854384422,22.4440798163414 6.088211387395859,24.308349192142487 6.088211387395859,24.308349192142487 6.658429652452469,26.015537977218628 6.658429652452469,26.015537977218628 7.7554576098918915,27.41803526878357 7.7554576098918915,27.41803526878357 9.273332357406616,28.367865085601807 9.273332357406616,28.367865085601807 11.10614389181137,28.717362880706787 11.10614389181137,28.717362880706787 11.187271028757095,28.717362880706787 11.187271028757095,28.717362880706787 10.398661345243454,29.559573531150818 10.398661345243454,29.559573531150818 9.33169424533844,30.196070671081543 9.33169424533844,30.196070671081543 8.250757306814194,30.798521637916565 8.250757306814194,30.798521637916565 7.420186698436737,31.53870403766632 7.420186698436737,31.53870403766632 7.104422152042389,32.58828818798065 7.104422152042389,32.58828818798065 7.198794931173325,36.57841980457306 7.198794931173325,36.57841980457306 7.134430855512619,37.134307622909546 7.134430855512619,37.134307622909546 6.960069388151169,37.71792650222778 6.960069388151169,37.71792650222778 6.7459724843502045,38.320791721343994 6.7459724843502045,38.320791721343994 6.562091410160065,38.93483281135559 6.562091410160065,38.93483281135559 6.478583812713623,39.551979303359985 6.478583812713623,39.551979303359985 6.416548788547516,42.843425273895264 6.416548788547516,42.843425273895264 6.35523721575737,46.13528251647949 6.35523721575737,46.13528251647949 6.2943920493125916,49.42755699157715 6.2943920493125916,49.42755699157715 6.233546882867813,52.71941423416138 6.233546882867813,52.71941423416138 6.172287464141846,56.010860204696655 6.172287464141846,56.010860204696655 6.003255397081375,58.86479616165161 6.003255397081375,58.86479616165161 5.88037446141243,62.23364472389221 5.88037446141243,62.23364472389221 6.248551234602928,65.51060080528259 6.248551234602928,65.51060080528259 7.553001493215561,68.08784008026123 7.553001493215561,68.08784008026123 10.238579660654068,69.35876607894897 10.238579660654068,69.35876607894897 10.762181133031845,69.41071152687073 10.762181133031845,69.41071152687073 11.289507895708084,69.44827437400818 11.289507895708084,69.44827437400818 11.820042133331299,69.47341561317444 11.820042133331299,69.47341561317444 12.352905422449112,69.48707699775696 12.352905422449112,69.48707699775696 12.887629866600037,69.49121356010437 12.887629866600037,69.49121356010437 13.313962519168854,69.48831677436829 13.313962519168854,69.48831677436829 13.740551471710205,69.48066353797913 13.740551471710205,69.48066353797913 14.167246222496033,69.46989893913269 14.167246222496033,69.46989893913269 14.593836665153503,69.45727467536926 14.593836665153503,69.45727467536926 15.020115673542023,69.44485902786255 15.020115673542023,69.44485902786255 14.984622597694397,69.719797372818 14.984622597694397,69.719797372818 14.954614639282227,69.99598145484924 14.954614639282227,69.99598145484924 14.931538701057434,70.27310132980347 14.931538701057434,70.27310132980347 14.917051792144775,70.550936460495 14.917051792144775,70.550936460495 14.912497997283936,70.82898616790771 14.912497997283936,70.82898616790771 14.95864987373352,71.76753878593445 14.95864987373352,71.76753878593445 15.094724297523499,72.6887047290802 15.094724297523499,72.6887047290802 15.317358076572418,73.58751893043518 15.317358076572418,73.58751893043518 15.62308520078659,74.45932626724243 15.62308520078659,74.45932626724243 16.008542478084564,75.2992570400238 16.008542478084564,75.2992570400238 15.901753306388855,75.30257105827332 15.901753306388855,75.30257105827332 15.795531868934631,75.30484795570374 15.795531868934631,75.30484795570374 15.68920761346817,75.30691623687744 15.68920761346817,75.30691623687744 15.582211315631866,75.30929446220398 15.582211315631866,75.30929446220398 15.473765134811401,75.3125011920929 15.473765134811401,75.3125011920929 14.95751142501831,75.32823085784912 14.95751142501831,75.32823085784912 14.440222084522247,75.34261345863342 14.440222084522247,75.34261345863342 13.922415673732758,75.35451650619507 13.922415673732758,75.35451650619507 13.404712080955505,75.36258697509766 13.404712080955505,75.36258697509766 12.887629866600037,75.36548376083374 12.887629866600037,75.36548376083374 12.155571579933167,75.35907030105591 12.155571579933167,75.35907030105591 11.464282870292664,75.33920407295227 11.464282870292664,75.33920407295227 10.805848985910416,75.3054678440094 10.805848985910416,75.3054678440094 10.172457247972488,75.2570390701294 10.172457247972488,75.2570390701294 9.556449204683304,75.19329786300659 9.556449204683304,75.19329786300659 6.900310516357422,74.54976439476013 6.900310516357422,74.54976439476013 4.619281738996506,73.31298589706421 4.619281738996506,73.31298589706421 2.753925882279873,71.52239680290222 2.753925882279873,71.52239680290222 1.344651822000742,69.2171037197113 1.344651822000742,69.2171037197113 0.4321263637393713,66.4365291595459 0.4321263637393713,66.4365291595459 0.1415068982169032,64.63176012039185 0.1415068982169032,64.63176012039185 0.015418301336467266,62.82978653907776 0.015418301336467266,62.82978653907776 0.01014089648379013,61.066824197769165 0.01014089648379013,61.066824197769165 0.08195499540306628,59.37888026237488 0.08195499540306628,59.37888026237488 0.18708918942138553,57.80227780342102 0.18708918942138553,57.80227780342102 0.2181844785809517,57.37108588218689 0.2181844785809517,57.37108588218689 0.24664108641445637,56.957173347473145 0.24664108641445637,56.957173347473145 0.27069984935224056,56.56871199607849 0.27069984935224056,56.56871199607849 0.2883946755900979,56.21346831321716 0.2883946755900979,56.21346831321716 0.29801817145198584,55.899930000305176 0.29801817145198584,55.899930000305176 0.4569611977785826,47.37164378166199 0.4569611977785826,47.37164378166199 0.6026589777320623,39.45263922214508 0.6026589777320623,39.45263922214508 0.661072600632906,38.61229121685028 0.661072600632906,38.61229121685028 0.7871094159781933,37.84416913986206 0.7871094159781933,37.84416913986206 0.954692903906107,37.15820908546448 0.954692903906107,37.15820908546448 1.1375912465155125,36.56403720378876 1.1375912465155125,36.56403720378876 1.3096243143081665,36.071789264678955 1.3096243143081665,36.071789264678955 1.2781668454408646,34.79858934879303 1.2781668454408646,34.79858934879303 1.230152789503336,32.7240526676178 1.230152789503336,32.7240526676178 1.245881523936987,31.986042857170105 1.245881523936987,31.986042857170105 1.3231799937784672,31.291288137435913 1.3231799937784672,31.291288137435913 1.4563568867743015,30.63916563987732 1.4563568867743015,30.63916563987732 1.6397207975387573,30.02864122390747 1.6397207975387573,30.02864122390747 1.8675806000828743,29.459097981452942 1.8675806000828743,29.459097981452942 1.0594649240374565,27.93051302433014 1.0594649240374565,27.93051302433014 0.5032161250710487,26.31179690361023 0.5032161250710487,26.31179690361023 0.20550836343318224,24.63068515062332 0.20550836343318224,24.63068515062332 0.17291263211518526,22.914907336235046 0.17291263211518526,22.914907336235046 0.4122584592550993,21.19240313768387 0.4122584592550993,21.19240313768387 1.0033795610070229,19.303713738918304 1.0033795610070229,19.303713738918304 2.270008623600006,17.04508811235428 2.270008623600006,17.04508811235428 4.465305805206299,14.870434999465942 4.465305805206299,14.870434999465942 7.842327654361725,13.232989609241486 7.842327654361725,13.232989609241486 12.654182314872742,12.586301565170288 12.654182314872742,12.586301565170288 12.977035343647003,12.586301565170288 12.977035343647003,12.586301565170288 13.301543891429901,12.586301565170288 13.301543891429901,12.586301565170288 13.4823739528656,12.256824970245361 13.4823739528656,12.256824970245361 13.66325318813324,11.92786693572998 13.66325318813324,11.92786693572998 13.844393193721771,11.599063873291016 13.844393193721771,11.599063873291016 14.025583863258362,11.270053684711456 14.025583863258362,11.270053684711456 14.207188785076141,10.940578579902649 14.207188785076141,10.940578579902649 14.308804273605347,10.753333568572998 14.308804273605347,10.753333568572998 14.409385621547699,10.561588406562805 14.409385621547699,10.561588406562805 14.509552717208862,10.365910083055496 14.509552717208862,10.365910083055496 14.609719812870026,10.166972875595093 14.609719812870026,10.166972875595093 14.710508286952972,9.965396672487259 14.710508286952972,9.965396672487259 15.22039920091629,8.971381932497025 15.22039920091629,8.971381932497025 15.825437009334564,7.888375222682953 15.825437009334564,7.888375222682953 16.55118465423584,6.766202300786972 16.55118465423584,6.766202300786972 17.423249781131744,5.6548431515693665 17.423249781131744,5.6548431515693665 18.467192351818085,4.604380950331688 18.467192351818085,4.604380950331688 20.39722204208374,3.2371189445257187 20.39722204208374,3.2371189445257187 22.43761271238327,2.3102616891264915 22.43761271238327,2.3102616891264915 24.4802787899971,1.72281414270401 24.4802787899971,1.72281414270401 26.416930556297302,1.3732118532061577 26.416930556297302,1.3732118532061577 28.139537572860718,1.1606152169406414 28.139537572860718,1.1606152169406414 28.5534530878067,1.1142568662762642 28.5534530878067,1.1142568662762642 31.932595372200012,0.7794003002345562 31.932595372200012,0.7794003002345562 35.30661761760712,0.5346735939383507 35.30661761760712,0.5346735939383507 38.66620361804962,0.35793224815279245 38.66620361804962,0.35793224815279245 42.00173020362854,0.22682494018226862 42.00173020362854,0.22682494018226862 45.3037291765213,0.11920726392418146 45.3037291765213,0.11920726392418146 45.93288004398346,0.09768373565748334 45.93288004398346,0.09768373565748334 47.166964411735535,0.06270799203775823 47.166964411735535,0.06270799203775823 48.39980602264404,0.035389658296480775 48.39980602264404,0.035389658296480775 49.6285617351532,0.015832216013222933 49.6285617351532,0.015832216013222933 50.85028409957886,0.003983923670602962 50.85028409957886,0.003983923670602962 52.06211805343628,0.0 52.06211805343628,0.0 56.220608949661255,0.04739316937047988 56.220608949661255,0.04739316937047988 60.31370162963867,0.18921049777418375 60.31370162963867,0.18921049777418375 64.33265805244446,0.4248828627169132 64.33265805244446,0.4248828627169132 68.26841235160828,0.7538411300629377 68.26841235160828,0.7538411300629377 72.11211919784546,1.1755160987377167 72.11211919784546,1.1755160987377167 72.40351438522339,1.2119405902922153 72.40351438522339,1.2119405902922153 74.12012219429016,1.4430081471800804 74.12012219429016,1.4430081471800804 76.0482907295227,1.819152571260929 76.0482907295227,1.819152571260929 78.07615399360657,2.4464912712574005 78.07615399360657,2.4464912712574005 80.09176254272461,3.430623933672905 80.09176254272461,3.430623933672905 81.98314309120178,4.877563938498497 81.98314309120178,4.877563938498497 82.68369436264038,5.612986162304878 82.68369436264038,5.612986162304878 83.27062129974365,6.351874768733978 83.27062129974365,6.351874768733978 83.76059532165527,7.072240114212036 83.76059532165527,7.072240114212036 84.17026400566101,7.751576602458954 84.17026400566101,7.751576602458954 84.51629877090454,8.367688208818436 84.51629877090454,8.367688208818436 84.658682346344,8.619347959756851 84.658682346344,8.619347959756851 85.1022481918335,9.41147580742836 85.1022481918335,9.41147580742836 85.54322123527527,10.20432859659195 85.54322123527527,10.20432859659195 85.98238229751587,10.997853428125381 85.98238229751587,10.997853428125381 86.42020225524902,11.791844666004181 86.42020225524902,11.791844666004181 86.85739636421204,12.586301565170288 86.85739636421204,12.586301565170288 87.88721561431885,12.586301565170288 87.88721561431885,12.586301565170288 89.14282321929932,12.608963251113892 89.14282321929932,12.608963251113892 90.73545932769775,12.767025828361511 90.73545932769775,12.767025828361511 92.55062937736511,13.196462392807007 92.55062937736511,13.196462392807007 94.47383284568787,14.03251737356186 94.47383284568787,14.03251737356186 96.39066457748413,15.410850942134857 96.39066457748413,15.410850942134857 98.13904166221619,17.42832064628601 98.13904166221619,17.42832064628601 99.31921362876892,19.752344489097595 99.31921362876892,19.752344489097595 99.9073326587677,22.279807925224304 99.9073326587677,22.279807925224304 99.87955093383789,24.90733414888382 99.87955093383789,24.90733414888382 99.21190738677979,27.531912922859192 99.21190738677979,27.531912922859192 99.06734824180603,27.888911962509155 99.06734824180603,27.888911962509155 98.91192317008972,28.23856770992279 98.91192317008972,28.23856770992279 98.74609708786011,28.58087420463562 98.74609708786011,28.58087420463562 98.56997728347778,28.915470838546753 98.56997728347778,28.915470838546753 98.38407635688782,29.24220561981201 98.38407635688782,29.24220561981201 98.58399629592896,29.734349250793457 98.58399629592896,29.734349250793457 98.7439215183258,30.257433652877808 98.7439215183258,30.257433652877808 98.85950684547424,30.812594294548035 98.85950684547424,30.812594294548035 98.92640709877014,31.40045702457428 98.92640709877014,31.40045702457428 98.9403784275055,32.02205300331116 98.9403784275055,32.02205300331116 98.87083768844604,34.990644454956055 98.87083768844604,34.990644454956055 98.85759353637695,35.434362292289734 98.85759353637695,35.434362292289734 98.87353181838989,35.48765182495117 98.87353181838989,35.48765182495117 98.88961911201477,35.540321469306946 98.88961911201477,35.540321469306946 98.90607595443726,35.59247553348541 98.90607595443726,35.59247553348541 98.9228904247284,35.64431965351105 98.9228904247284,35.64431965351105 98.9403784275055,35.69595515727997 98.9403784275055,35.69595515727997 99.08472895622253,36.18478775024414 99.08472895622253,36.18478775024414 99.23787713050842,36.76292300224304 99.23787713050842,36.76292300224304 99.37907457351685,37.42984235286713 99.37907457351685,37.42984235286713 99.48767423629761,38.18461298942566 99.48767423629761,38.18461298942566 99.54303503036499,39.02713656425476 99.54303503036499,39.02713656425476" stroke="white" stroke-width="0.1" /><polygon points="28.51702868938446,41.09505116939545 28.51702868938446,41.09505116939545 25.089818239212036,41.09505116939545 25.089818239212036,41.09505116939545 25.089818239212036,31.546878814697266 25.089818239212036,31.546878814697266 28.51702868938446,31.546878814697266 28.51702868938446,31.546878814697266" stroke="white" stroke-width="0.1" /><polygon points="60.3172242641449,53.469425439834595 60.3172242641449,53.469425439834595 76.90027952194214,69.59055662155151 76.90027952194214,69.59055662155151 77.23503112792969,69.9709415435791 77.23503112792969,69.9709415435791 77.50179767608643,70.39551734924316 77.50179767608643,70.39551734924316 77.69685387611389,70.85568308830261 77.69685387611389,70.85568308830261 77.81658172607422,71.34286165237427 77.81658172607422,71.34286165237427 77.85724997520447,71.84886932373047 77.85724997520447,71.84886932373047 77.81652808189392,72.3512589931488 77.81652808189392,72.3512589931488 77.69680619239807,72.8356420993805 77.69680619239807,72.8356420993805 77.50185132026672,73.29322099685669 77.50185132026672,73.29322099685669 77.23508477210999,73.71541857719421 77.23508477210999,73.71541857719421 76.90027952194214,74.09393787384033 76.90027952194214,74.09393787384033 60.3172242641449,90.22003412246704 60.3172242641449,90.22003412246704 59.49167013168335,90.79806804656982 59.49167013168335,90.79806804656982 58.56139659881592,91.07890725135803 58.56139659881592,91.07890725135803 57.59889483451843,91.0642147064209 57.59889483451843,91.0642147064209 56.67653679847717,90.75522422790527 56.67653679847717,90.75522422790527 55.866819620132446,90.1538074016571 55.866819620132446,90.1538074016571 55.29168248176575,89.33156728744507 55.29168248176575,89.33156728744507 55.01203536987305,88.40119242668152 55.01203536987305,88.40119242668152 55.026936531066895,87.4383270740509 55.026936531066895,87.4383270740509 55.335354804992676,86.51840090751648 55.335354804992676,86.51840090751648 55.93635439872742,85.71664690971375 55.93635439872742,85.71664690971375 69.35048699378967,72.67670035362244 69.35048699378967,72.67670035362244 69.4731056690216,72.5353479385376 69.4731056690216,72.5353479385376 69.57017183303833,72.37909436225891 69.57017183303833,72.37909436225891 69.6406900882721,72.21094369888306 69.6406900882721,72.21094369888306 69.68368291854858,72.0332682132721 69.68368291854858,72.0332682132721 69.69817280769348,71.84886932373047 69.69817280769348,71.84886932373047 69.68368291854858,71.659916639328 69.68368291854858,71.659916639328 69.6406364440918,71.48017883300781 69.6406364440918,71.48017883300781 69.57021951675415,71.31305932998657 69.57021951675415,71.31305932998657 69.4731056690216,71.16115093231201 69.4731056690216,71.16115093231201 69.35048699378967,71.02766633033752 69.35048699378967,71.02766633033752 55.92642426490784,57.984405755996704 55.92642426490784,57.984405755996704 55.58664798736572,57.589322328567505 55.58664798736572,57.589322328567505 55.32241463661194,57.15729594230652 55.32241463661194,57.15729594230652 55.133724212646484,56.69754147529602 55.133724212646484,56.69754147529602 55.020469427108765,56.219059228897095 55.020469427108765,56.219059228897095 54.9826979637146,55.73105216026306 54.9826979637146,55.73105216026306 55.01808524131775,55.26084899902344 55.01808524131775,55.26084899902344 55.12415170669556,54.797059297561646 55.12415170669556,54.797059297561646 55.30104637145996,54.35013175010681 55.30104637145996,54.35013175010681 55.5485725402832,53.93000841140747 55.5485725402832,53.93000841140747 55.866819620132446,53.547245264053345 55.866819620132446,53.547245264053345 56.676483154296875,52.94147729873657 56.676483154296875,52.94147729873657 57.598841190338135,52.63166427612305 57.598841190338135,52.63166427612305 58.56139659881592,52.61707305908203 58.56139659881592,52.61707305908203 59.49167013168335,52.89657115936279 59.49167013168335,52.89657115936279" stroke="white" stroke-width="0.1" /><polygon points="59.555619955062866,68.7892198562622 59.555619955062866,68.7892198562622 60.35985350608826,69.90906000137329 60.35985350608826,69.90906000137329 60.76197624206543,71.18215560913086 60.76197624206543,71.18215560913086 60.76202392578125,72.50668406486511 60.76202392578125,72.50668406486511 60.359907150268555,73.78050684928894 60.359907150268555,73.78050684928894 59.555619955062866,74.90190267562866 59.555619955062866,74.90190267562866 52.4296760559082,82.02122449874878 52.4296760559082,82.02122449874878 51.31210684776306,82.82866477966309 51.31210684776306,82.82866477966309 50.03906488418579,83.23233723640442 50.03906488418579,83.23233723640442 48.714277148246765,83.23233723640442 48.714277148246765,83.23233723640442 47.4411815404892,82.82866477966309 47.4411815404892,82.82866477966309 46.323615312576294,82.02122449874878 46.323615312576294,82.02122449874878 39.19766843318939,74.90190267562866 39.19766843318939,74.90190267562866 38.39343190193176,73.78039956092834 38.39343190193176,73.78039956092834 37.99131512641907,72.506582736969 37.99131512641907,72.506582736969 37.99131512641907,71.18226289749146 37.99131512641907,71.18226289749146 38.39343190193176,69.90906000137329 38.39343190193176,69.90906000137329 39.19766843318939,68.7892198562622 39.19766843318939,68.7892198562622 46.323615312576294,61.66989207267761 46.323615312576294,61.66989207267761 47.4411815404892,60.86162328720093 47.4411815404892,60.86162328720093 48.714226484298706,60.457539558410645 48.714226484298706,60.457539558410645 50.03911256790161,60.457539558410645 50.03911256790161,60.457539558410645 51.312053203582764,60.861724615097046 51.312053203582764,60.861724615097046 52.4296760559082,61.66989207267761 52.4296760559082,61.66989207267761" stroke="white" stroke-width="0.1" /><polygon points="12.359476089477539,41.09505116939545 12.359476089477539,41.09505116939545 12.359476089477539,31.55018985271454 12.359476089477539,31.55018985271454 22.154340147972107,31.55018985271454 22.154340147972107,31.55018985271454 22.154340147972107,41.09505116939545 22.154340147972107,41.09505116939545" stroke="white" stroke-width="0.1" /></svg>