<?xml version="1.0" encoding="utf-8" ?>
<svg baseProfile="full" height="99.93481636047363" version="1.1" width="68.77676248550415" xmlns="http://www.w3.org/2000/svg" xmlns:ev="http://www.w3.org/2001/xml-events" xmlns:xlink="http://www.w3.org/1999/xlink"><defs><clipPath /></defs><polygon points="38.371437788009644,71.98089361190796 38.371437788009644,71.98089361190796 47.607263922691345,81.2308132648468 47.607263922691345,81.2308132648468 48.65056276321411,82.67459869384766 48.65056276321411,82.67459869384766 49.172163009643555,84.3222439289093 49.172163009643555,84.3222439289093 49.172210693359375,86.03790998458862 49.172210693359375,86.03790998458862 48.65061044692993,87.68556118011475 48.65061044692993,87.68556118011475 47.607263922691345,89.12934064865112 47.607263922691345,89.12934064865112 38.371437788009644,98.37769865989685 38.371437788009644,98.37769865989685 36.92060708999634,99.41571354866028 36.92060708999634,99.41571354866028 35.2715402841568,99.93481636047363 35.2715402841568,99.93481636047363 33.55626463890076,99.93481636047363 33.55626463890076,99.93481636047363 31.90656304359436,99.41571354866028 31.90656304359436,99.41571354866028 30.45411705970764,98.37769865989685 30.45411705970764,98.37769865989685 21.22768461704254,89.12934064865112 21.22768461704254,89.12934064865112 20.179885625839233,87.68556118011475 20.179885625839233,87.68556118011475 19.65598464012146,86.03781461715698 19.65598464012146,86.03781461715698 19.6560338139534,84.32234525680542 19.6560338139534,84.32234525680542 20.179885625839233,82.6746940612793 20.179885625839233,82.6746940612793 21.22768461704254,81.2308132648468 21.22768461704254,81.2308132648468 30.45411705970764,71.98089361190796 30.45411705970764,71.98089361190796 31.9065123796463,70.93387842178345 31.9065123796463,70.93387842178345 33.55626463890076,70.41026949882507 33.55626463890076,70.41026949882507 35.27163863182068,70.41046619415283 35.27163863182068,70.41046619415283 36.92055642604828,70.93387842178345 36.92055642604828,70.93387842178345" stroke="white" stroke-width="0.1" /><polygon points="58.22737216949463,70.99749445915222 58.22737216949463,70.99749445915222 58.22737216949463,70.99749445915222 58.22737216949463,70.99749445915222 58.22737216949463,70.99749445915222 58.22737216949463,70.99749445915222 58.22741985321045,70.99758982658386 58.22741985321045,70.99758982658386 58.22741985321045,70.99749445915222 58.22741985321045,70.99749445915222 58.22737216949463,70.99749445915222 58.22737216949463,70.99749445915222 58.97558927536011,72.07132577896118 58.97558927536011,72.07132577896118 59.33864116668701,73.2796311378479 59.33864116668701,73.2796311378479 59.318578243255615,74.52845573425293 59.318578243255615,74.52845573425293 58.91721248626709,75.72364807128906 58.91721248626709,75.72364807128906 58.13654661178589,76.77105665206909 58.13654661178589,76.77105665206909 57.07132816314697,77.512526512146 57.07132816314697,77.512526512146 55.86761832237244,77.87445187568665 55.86761832237244,77.87445187568665 54.621583223342896,77.85565853118896 54.621583223342896,77.85565853118896 53.42918038368225,77.45517492294312 53.42918038368225,77.45517492294312 52.38646864891052,76.67240500450134 52.38646864891052,76.67240500450134 35.493266582489014,59.28906798362732 35.493266582489014,59.28906798362732 35.30878126621246,59.13061499595642 35.30878126621246,59.13061499595642 35.10633409023285,59.00563597679138 35.10633409023285,59.00563597679138 34.88852381706238,58.9150071144104 34.88852381706238,58.9150071144104 34.65754985809326,58.85980725288391 34.65754985809326,58.85980725288391 34.41590964794159,58.84121060371399 34.41590964794159,58.84121060371399 34.17377769947052,58.85980725288391 34.17377769947052,58.85980725288391 33.94192159175873,58.9150071144104 33.94192159175873,58.9150071144104 33.724161982536316,59.00563597679138 33.724161982536316,59.00563597679138 33.52386951446533,59.13071632385254 33.52386951446533,59.13071632385254 33.34481716156006,59.28906798362732 33.34481716156006,59.28906798362732 16.439084708690643,76.69902443885803 16.439084708690643,76.69902443885803 15.932312607765198,77.13229656219482 15.932312607765198,77.13229656219482 15.375038981437683,77.47386693954468 15.375038981437683,77.47386693954468 14.779938757419586,77.7211844921112 14.779938757419586,77.7211844921112 14.159537851810455,77.87141799926758 14.159537851810455,77.87141799926758 13.526463508605957,77.92201638221741 13.526463508605957,77.92201638221741 12.915360927581787,77.87601351737976 12.915360927581787,77.87601351737976 12.314976006746292,77.73792147636414 12.314976006746292,77.73792147636414 11.736758053302765,77.5078296661377 11.736758053302765,77.5078296661377 11.192011833190918,77.18544006347656 11.192011833190918,77.18544006347656 10.692138969898224,76.77105665206909 10.692138969898224,76.77105665206909 9.910986572504044,75.72326064109802 9.910986572504044,75.72326064109802 9.511235356330872,74.52747821807861 9.511235356330872,74.52747821807861 9.493912011384964,73.27845692634583 9.493912011384964,73.27845692634583 9.860045462846756,72.0701515674591 9.860045462846756,72.0701515674591 10.610710829496384,70.99749445915222 10.610710829496384,70.99749445915222 31.49702250957489,49.51142966747284 31.49702250957489,49.51142966747284 31.98823630809784,49.074339866638184 31.98823630809784,49.074339866638184 32.53709077835083,48.726511001586914 32.53709077835083,48.726511001586914 33.132389187812805,48.472338914871216 33.132389187812805,48.472338914871216 33.76242816448212,48.316434025764465 33.76242816448212,48.316434025764465 34.41590964794159,48.26338589191437 34.41590964794159,48.26338589191437 35.06802022457123,48.316335678100586 35.06802022457123,48.316335678100586 35.69791316986084,48.472243547439575 35.69791316986084,48.472243547439575 36.29452884197235,48.726511001586914 36.29452884197235,48.726511001586914 36.847007274627686,49.074339866638184 36.847007274627686,49.074339866638184 37.34419047832489,49.51142966747284 37.34419047832489,49.51142966747284" stroke="white" stroke-width="0.1" /><polygon points="34.41590964794159,40.33980369567871 34.41590964794159,40.33980369567871 32.825663685798645,40.46860337257385 32.825663685798645,40.46860337257385 31.28865659236908,40.84990620613098 31.28865659236908,40.84990620613098 29.835480451583862,41.47079288959503 29.835480451583862,41.47079288959503 28.49690616130829,42.31766760349274 28.49690616130829,42.31766760349274 27.30347514152527,43.377700448036194 27.30347514152527,43.377700448036194 15.530848503112793,55.49013018608093 15.530848503112793,55.49013018608093 14.47482705116272,53.5525918006897 14.47482705116272,53.5525918006897 14.01444524526596,51.439476013183594 14.01444524526596,51.439476013183594 14.152197539806366,49.29102659225464 14.152197539806366,49.29102659225464 14.890678226947784,47.24710285663605 14.890678226947784,47.24710285663605 16.232383251190186,45.447853207588196 16.232383251190186,45.447853207588196 28.957092761993408,32.69965350627899 28.957092761993408,32.69965350627899 30.95751404762268,31.25724196434021 30.95751404762268,31.25724196434021 33.23255777359009,30.5360347032547 33.23255777359009,30.5360347032547 35.59930920600891,30.53613305091858 35.59930920600891,30.53613305091858 37.87435293197632,31.25724196434021 37.87435293197632,31.25724196434021 39.87472355365753,32.69965350627899 39.87472355365753,32.69965350627899 52.5931715965271,45.447853207588196 52.5931715965271,45.447853207588196 53.93497347831726,47.24700450897217 53.93497347831726,47.24700450897217 54.67379689216614,49.29053783416748 54.67379689216614,49.29053783416748 54.81252670288086,51.43830180168152 54.81252670288086,51.43830180168152 54.35400605201721,53.54946255683899 54.35400605201721,53.54946255683899 53.300970792770386,55.48387169837952 53.300970792770386,55.48387169837952 41.503286361694336,43.346381187438965 41.503286361694336,43.346381187438965 40.31763672828674,42.3027902841568 40.31763672828674,42.3027902841568 38.9864057302475,41.465216875076294 38.9864057302475,41.465216875076294 37.539392709732056,40.848925709724426 37.539392709732056,40.848925709724426 36.006009578704834,40.46869874000549 36.006009578704834,40.46869874000549" stroke="white" stroke-width="0.1" /><polygon points="67.2439694404602,31.340432167053223 67.2439694404602,31.340432167053223 68.27512979507446,32.82287418842316 68.27512979507446,32.82287418842316 68.77676248550415,34.489506483078 68.77676248550415,34.489506483078 68.75048875808716,36.211830377578735 68.75048875808716,36.211830377578735 68.19825172424316,37.860748171806335 68.19825172424316,37.860748171806335 67.12182760238647,39.30785953998566 67.12182760238647,39.30785953998566 65.65186381340027,40.329429507255554 65.65186381340027,40.329429507255554 63.9909565448761,40.827786922454834 63.9909565448761,40.827786922454834 62.271517515182495,40.801164507865906 62.271517515182495,40.801164507865906 60.62568426132202,40.247708559036255 60.62568426132202,40.247708559036255 59.18571949005127,39.16535973548889 59.18571949005127,39.16535973548889 35.90353727340698,15.206702053546906 35.90353727340698,15.206702053546906 35.648682713508606,14.986884593963623 35.648682713508606,14.986884593963623 35.368186235427856,14.813360571861267 35.368186235427856,14.813360571861267 35.066354274749756,14.687597751617432 35.066354274749756,14.687597751617432 34.74739491939545,14.610965549945831 34.74739491939545,14.610965549945831 34.41590964794159,14.58502858877182 34.41590964794159,14.58502858877182 34.08119082450867,14.610867202281952 34.08119082450867,14.610867202281952 33.76096189022064,14.687499403953552 33.76096189022064,14.687499403953552 33.46049785614014,14.813409745693207 33.46049785614014,14.813409745693207 33.185335993766785,14.986933767795563 33.185335993766785,14.986933767795563 32.940807938575745,15.206702053546906 32.940807938575745,15.206702053546906 9.636704623699188,39.20450806617737 9.636704623699188,39.20450806617737 8.937127888202667,39.80308473110199 8.937127888202667,39.80308473110199 8.168649673461914,40.273839235305786 8.168649673461914,40.273839235305786 7.348252087831497,40.61384201049805 7.348252087831497,40.61384201049805 6.492522358894348,40.820151567459106 6.492522358894348,40.820151567459106 5.618540197610855,40.88944494724274 5.618540197610855,40.88944494724274 4.775485396385193,40.82602560520172 4.775485396385193,40.82602560520172 3.9475999772548676,40.635764598846436 3.9475999772548676,40.635764598846436 3.1501036137342453,40.319252014160156 3.1501036137342453,40.319252014160156 2.398116886615753,39.87648785114288 2.398116886615753,39.87648785114288 1.7068587243556976,39.30785953998566 1.7068587243556976,39.30785953998566 0.6308721844106913,37.8601610660553 0.6308721844106913,37.8601610660553 0.07986219716258347,36.20997071266174 0.07986219716258347,36.20997071266174 0.056079705245792866,34.48686599731445 0.056079705245792866,34.48686599731445 0.5612374749034643,32.82042741775513 0.5612374749034643,32.82042741775513 1.597243919968605,31.340432167053223 1.597243919968605,31.340432167053223 30.388349294662476,1.7240839079022408 30.388349294662476,1.7240839079022408 31.06517195701599,1.1214472353458405 31.06517195701599,1.1214472353458405 31.822296977043152,0.6409528665244579 31.822296977043152,0.6409528665244579 32.643818855285645,0.2894025994464755 32.643818855285645,0.2894025994464755 33.513641357421875,0.0735006236936897 33.513641357421875,0.0735006236936897 34.41590964794159,0.0 34.41590964794159,0.0 35.31621694564819,0.0735006236936897 35.31621694564819,0.0735006236936897 36.18442714214325,0.2894025994464755 36.18442714214325,0.2894025994464755 37.00594902038574,0.6410017609596252 37.00594902038574,0.6410017609596252 37.76596188545227,1.1215451173484325 37.76596188545227,1.1215451173484325 38.44973146915436,1.7240839079022408 38.44973146915436,1.7240839079022408 67.2439694404602,31.340432167053223 67.2439694404602,31.340432167053223 67.2439694404602,31.340432167053223 67.2439694404602,31.340432167053223 67.24401712417603,31.340432167053223 67.24401712417603,31.340432167053223 67.24401712417603,31.340432167053223 67.24401712417603,31.340432167053223 67.2439694404602,31.340432167053223 67.2439694404602,31.340432167053223" stroke="white" stroke-width="0.1" /></svg>