<?xml version="1.0" encoding="utf-8" ?>
<svg baseProfile="full" height="99.92358684539795" version="1.1" width="84.428471326828" xmlns="http://www.w3.org/2000/svg" xmlns:ev="http://www.w3.org/2001/xml-events" xmlns:xlink="http://www.w3.org/1999/xlink"><defs><clipPath /></defs><polygon points="83.99764895439148,31.823396682739258 83.99764895439148,31.823396682739258 84.428471326828,55.14970421791077 84.428471326828,55.14970421791077 84.40600037574768,56.19421601295471 84.40600037574768,56.19421601295471 84.26976799964905,57.197606563568115 84.26976799964905,57.197606563568115 83.97217392921448,58.14186334609985 83.97217392921448,58.14186334609985 83.46542119979858,59.0087890625 83.46542119979858,59.0087890625 82.70208835601807,59.78025197982788 82.70208835601807,59.78025197982788 81.70799612998962,60.36013960838318 81.70799612998962,60.36013960838318 80.6289553642273,60.66576838493347 80.6289553642273,60.66576838493347 79.49689030647278,60.7801616191864 79.49689030647278,60.7801616191864 78.34346890449524,60.786259174346924 78.34346890449524,60.786259174346924 77.20059752464294,60.7674241065979 77.20059752464294,60.7674241065979 76.85530185699463,59.89648103713989 76.85530185699463,59.89648103713989 76.43620371818542,59.050631523132324 76.43620371818542,59.050631523132324 75.94247460365295,58.23620557785034 75.94247460365295,58.23620557785034 75.37310123443604,57.45907425880432 75.37310123443604,57.45907425880432 74.72725510597229,56.72576427459717 74.72725510597229,56.72576427459717 72.86139726638794,54.78861927986145 72.86139726638794,54.78861927986145 72.84280061721802,54.78861927986145 72.84280061721802,54.78861927986145 50.1828670501709,31.482458114624023 50.1828670501709,31.482458114624023 48.85365068912506,30.310440063476562 48.85365068912506,30.310440063476562 47.35827147960663,29.368647933006287 47.35827147960663,29.368647933006287 45.7306832075119,28.674617409706116 45.7306832075119,28.674617409706116 44.004639983177185,28.24573516845703 44.004639983177185,28.24573516845703 42.214235663414,28.099432587623596 42.214235663414,28.099432587623596 40.42421877384186,28.245103359222412 40.42421877384186,28.245103359222412 38.69580030441284,28.674229979515076 38.69580030441284,28.674229979515076 37.063080072402954,29.372715950012207 37.063080072402954,29.372715950012207 35.5600506067276,30.325984954833984 35.5600506067276,30.325984954833984 34.2208057641983,31.519651412963867 34.2208057641983,31.519651412963867 9.738408774137497,56.697869300842285 9.738408774137497,56.697869300842285 9.070675075054169,57.4495792388916 9.070675075054169,57.4495792388916 8.483817428350449,58.24768543243408 8.483817428350449,58.24768543243408 7.977109402418137,59.08544659614563 7.977109402418137,59.08544659614563 7.549387961626053,59.9560022354126 7.549387961626053,59.9560022354126 7.199975848197937,60.85265874862671 7.199975848197937,60.85265874862671 6.5887100994586945,60.85653305053711 6.5887100994586945,60.85653305053711 5.979429930448532,60.85042953491211 5.979429930448532,60.85042953491211 5.37324920296669,60.83086133003235 5.37324920296669,60.83086133003235 4.7713786363601685,60.793572664260864 4.7713786363601685,60.793572664260864 4.174932092428207,60.73487997055054 4.174932092428207,60.73487997055054 1.6042456030845642,59.52125787734985 1.6042456030845642,59.52125787734985 0.355272158049047,57.05638527870178 0.355272158049047,57.05638527870178 0.002373001007072162,53.92155647277832 0.002373001007072162,53.92155647277832 0.11981233255937696,50.69790482521057 0.11981233255937696,50.69790482521057 0.28204810805618763,47.96677827835083 0.28204810805618763,47.96677827835083 0.5733945406973362,32.22012221813202 0.5733945406973362,32.22012221813202 0.6544639822095633,31.62948787212372 0.6544639822095633,31.62948787212372 0.8309861645102501,31.041952967643738 0.8309861645102501,31.041952967643738 1.036032848060131,30.46536147594452 1.036032848060131,30.46536147594452 1.2028208933770657,29.907560348510742 1.2028208933770657,29.907560348510742 1.264567393809557,29.376396536827087 1.264567393809557,29.376396536827087 1.2460192665457726,28.61238718032837 1.2460192665457726,28.61238718032837 1.2275679036974907,27.84881293773651 1.2275679036974907,27.84881293773651 1.2095040641725063,27.085530757904053 1.2095040641725063,27.085530757904053 1.191779226064682,26.321908831596375 1.191779226064682,26.321908831596375 1.1746839620172977,25.557899475097656 1.1746839620172977,25.557899475097656 1.4772657305002213,24.553683400154114 1.4772657305002213,24.553683400154114 2.2722210735082626,23.84546399116516 2.2722210735082626,23.84546399116516 3.3063169568777084,23.269115388393402 3.3063169568777084,23.269115388393402 4.326610267162323,22.66051322221756 4.326610267162323,22.66051322221756 5.07996566593647,21.855629980564117 5.07996566593647,21.855629980564117 3.302248939871788,21.541909873485565 3.302248939871788,21.541909873485565 1.8282277509570122,20.639635622501373 1.8282277509570122,20.639635622501373 0.7614427711814642,19.294096529483795 0.7614427711814642,19.294096529483795 0.20533723291009665,17.649751901626587 0.20533723291009665,17.649751901626587 0.2634515520185232,15.852034091949463 0.2634515520185232,15.852034091949463 0.9080360643565655,14.25321251153946 0.9080360643565655,14.25321251153946 1.954965479671955,13.158193230628967 1.954965479671955,13.158193230628967 3.301861509680748,12.481694668531418 3.301861509680748,12.481694668531418 4.845716431736946,12.138336151838303 4.845716431736946,12.138336151838303 6.484007090330124,12.042834609746933 6.484007090330124,12.042834609746933 7.238089293241501,12.040994316339493 7.238089293241501,12.040994316339493 7.982049137353897,12.058670818805695 7.982049137353897,12.058670818805695 8.714725077152252,12.130587548017502 8.714725077152252,12.130587548017502 9.434906393289566,12.291418761014938 9.434906393289566,12.291418761014938 10.141334682703018,12.575936317443848 10.141334682703018,12.575936317443848 10.690272599458694,11.572690308094025 10.690272599458694,11.572690308094025 11.23984009027481,10.569588840007782 11.23984009027481,10.569588840007782 11.789844185113907,9.5668263733387 11.789844185113907,9.5668263733387 12.340138107538223,8.564354479312897 12.340138107538223,8.564354479312897 12.89052963256836,7.562609016895294 12.89052963256836,7.562609016895294 13.37830126285553,6.628131121397018 13.37830126285553,6.628131121397018 13.87730985879898,5.647936090826988 13.87730985879898,5.647936090826988 14.419855177402496,4.678928479552269 14.419855177402496,4.678928479552269 15.03794938325882,3.7778660655021667 15.03794938325882,3.7778660655021667 15.763700008392334,3.0017977580428123 15.763700008392334,3.0017977580428123 16.89789742231369,2.2414205595850945 16.89789742231369,2.2414205595850945 18.197333812713623,1.7274478450417519 18.197333812713623,1.7274478450417519 19.587138295173645,1.396680623292923 19.587138295173645,1.396680623292923 20.99214792251587,1.1854834854602814 20.99214792251587,1.1854834854602814 22.337591648101807,1.0305603966116905 22.337591648101807,1.0305603966116905 25.558674335479736,0.7129657082259655 25.558674335479736,0.7129657082259655 28.791233897209167,0.48331734724342823 28.791233897209167,0.48331734724342823 32.02970325946808,0.3185148583725095 32.02970325946808,0.3185148583725095 35.26812195777893,0.19555464386940002 35.26812195777893,0.19555464386940002 38.50111663341522,0.09143318166024983 38.50111663341522,0.09143318166024983 43.332645297050476,0.0019371436792425811 43.332645297050476,0.0019371436792425811 48.18514287471771,0.04658830584958196 48.18514287471771,0.04658830584958196 53.03952693939209,0.23507238365709782 53.03952693939209,0.23507238365709782 57.876431941986084,0.5769297946244478 57.876431941986084,0.5769297946244478 62.676674127578735,1.0817009955644608 62.676674127578735,1.0817009955644608 63.97233009338379,1.2460192665457726 63.97233009338379,1.2460192665457726 65.31893610954285,1.470970083028078 65.31893610954285,1.470970083028078 66.64428114891052,1.817621849477291 66.64428114891052,1.817621849477291 67.87562370300293,2.3468011990189552 67.87562370300293,2.3468011990189552 68.94062161445618,3.1195761635899544 68.94062161445618,3.1195761635899544 69.3143904209137,3.5214364528656006 69.3143904209137,3.5214364528656006 69.64138150215149,3.9590373635292053 69.64138150215149,3.9590373635292053 69.93485689163208,4.421239718794823 69.93485689163208,4.421239718794823 70.20823955535889,4.896663501858711 70.20823955535889,4.896663501858711 70.47483921051025,5.37441149353981 70.47483921051025,5.37441149353981 71.15089893341064,6.587160378694534 71.15089893341064,6.587160378694534 71.8224585056305,7.801943272352219 71.8224585056305,7.801943272352219 72.4911630153656,9.018179029226303 72.4911630153656,9.018179029226303 73.15821647644043,10.235188901424408 73.15821647644043,10.235188901424408 73.82531762123108,11.452393233776093 73.82531762123108,11.452393233776093 74.12683963775635,12.00486645102501 74.12683963775635,12.00486645102501 74.33856725692749,12.30003908276558 74.33856725692749,12.30003908276558 74.56467747688293,12.392247468233109 74.56467747688293,12.392247468233109 74.90953803062439,12.335924804210663 74.90953803062439,12.335924804210663 75.47731399536133,12.185408920049667 75.47731399536133,12.185408920049667 75.71297287940979,12.131362408399582 75.71297287940979,12.131362408399582 75.94833374023438,12.091069668531418 75.94833374023438,12.091069668531418 76.18456482887268,12.063610553741455 76.18456482887268,12.063610553741455 76.4228343963623,12.047871202230453 76.4228343963623,12.047871202230453 76.66440010070801,12.042834609746933 76.66440010070801,12.042834609746933 78.46516966819763,12.042834609746933 78.46516966819763,12.042834609746933 79.41320538520813,12.062980979681015 79.41320538520813,12.062980979681015 80.33024668693542,12.153252214193344 80.33024668693542,12.153252214193344 81.2096655368805,12.358541041612625 81.2096655368805,12.358541041612625 82.04476833343506,12.723594903945923 82.04476833343506,12.723594903945923 82.8291654586792,13.293454051017761 82.8291654586792,13.293454051017761 84.16143655776978,15.322127938270569 84.16143655776978,15.322127938270569 84.34289693832397,17.599870264530182 84.34289693832397,17.599870264530182 83.52547287940979,19.7194442152977 83.52547287940979,19.7194442152977 81.8606436252594,21.273711323738098 81.8606436252594,21.273711323738098 79.50037717819214,21.855629980564117 79.50037717819214,21.855629980564117 80.12442588806152,22.45982438325882 80.12442588806152,22.45982438325882 81.12753033638,23.068426549434662 81.12753033638,23.068426549434662 82.21043944358826,23.678094148635864 82.21043944358826,23.678094148635864 83.0737292766571,24.284905195236206 83.0737292766571,24.284905195236206 83.41805338859558,24.885322153568268 83.41805338859558,24.885322153568268 83.40250849723816,25.58642327785492 83.40250849723816,25.58642327785492 83.38595032691956,26.28752291202545 83.38595032691956,26.28752291202545 83.36875438690186,26.988625526428223 83.36875438690186,26.988625526428223 83.35136771202087,27.689725160598755 83.35136771202087,27.689725160598755 83.33436846733093,28.390777111053467 83.33436846733093,28.390777111053467 83.38967561721802,29.11415696144104 83.38967561721802,29.11415696144104 83.54687690734863,29.78338897228241 83.54687690734863,29.78338897228241 83.74281525611877,30.434173345565796 83.74281525611877,30.434173345565796 83.91416072845459,31.102198362350464 83.91416072845459,31.102198362350464" stroke="white" stroke-width="0.1" /><polygon points="15.571536123752594,33.69700312614441 15.571536123752594,33.69700312614441 15.571536123752594,24.562981724739075 15.571536123752594,24.562981724739075 6.201959028840065,24.562981724739075 6.201959028840065,24.562981724739075 6.201959028840065,33.69700312614441 6.201959028840065,33.69700312614441" stroke="white" stroke-width="0.1" /><polygon points="21.661914885044098,33.69700312614441 21.661914885044098,33.69700312614441 21.661914885044098,24.561432003974915 21.661914885044098,24.561432003974915 18.37961971759796,24.561432003974915 18.37961971759796,24.561432003974915 18.37961971759796,33.69700312614441 18.37961971759796,33.69700312614441" stroke="white" stroke-width="0.1" /><polygon points="42.214235663414,24.201898276805878 42.214235663414,24.201898276805878 43.56360137462616,23.763522505760193 43.56360137462616,23.763522505760193 44.23826038837433,22.718191146850586 44.23826038837433,22.718191146850586 44.23835575580597,21.4704766869545 44.23835575580597,21.4704766869545 43.56360137462616,20.42509764432907 43.56360137462616,20.42509764432907 42.214235663414,19.986674189567566 42.214235663414,19.986674189567566 40.86486995220184,20.42504996061325 40.86486995220184,20.42504996061325 40.190210938453674,21.470429003238678 40.190210938453674,21.470429003238678 40.190210938453674,22.718191146850586 40.190210938453674,22.718191146850586 40.86486995220184,23.763571679592133 40.86486995220184,23.763571679592133" stroke="white" stroke-width="0.1" /><polygon points="42.214235663414,14.959397912025452 42.214235663414,14.959397912025452 52.3822546005249,15.13330489397049 52.3822546005249,15.13330489397049 60.36662459373474,15.547999739646912 60.36662459373474,15.547999739646912 66.12372398376465,16.043037176132202 66.12372398376465,16.043037176132202 69.60995197296143,16.457730531692505 69.60995197296143,16.457730531692505 70.78167796134949,16.631540656089783 70.78167796134949,16.631540656089783 70.39066553115845,13.934358954429626 70.39066553115845,13.934358954429626 69.36175227165222,11.295969039201736 69.36175227165222,11.295969039201736 67.91102886199951,8.826401829719543 67.91102886199951,8.826401829719543 66.25428199768066,6.635104864835739 66.25428199768066,6.635104864835739 64.60761427879333,4.832011088728905 64.60761427879333,4.832011088728905 62.82529830932617,4.148828983306885 62.82529830932617,4.148828983306885 59.26201939582825,3.606864809989929 59.26201939582825,3.606864809989929 54.350632429122925,3.233334794640541 54.350632429122925,3.233334794640541 48.52370619773865,3.055117651820183 48.52370619773865,3.055117651820183 42.214235663414,3.0994299799203873 42.214235663414,3.0994299799203873 35.906895995140076,3.055117651820183 35.906895995140076,3.055117651820183 30.08006513118744,3.233286365866661 30.08006513118744,3.233286365866661 25.168290734291077,3.606961667537689 25.168290734291077,3.606961667537689 21.605786681175232,4.148877412080765 21.605786681175232,4.148877412080765 19.82705295085907,4.832011088728905 19.82705295085907,4.832011088728905 18.17650943994522,6.635056436061859 18.17650943994522,6.635056436061859 16.51860475540161,8.826304972171783 16.51860475540161,8.826304972171783 15.068265795707703,11.296065896749496 15.068265795707703,11.296065896749496 14.040321111679077,13.934406638145447 14.040321111679077,13.934406638145447 13.649889826774597,16.631540656089783 13.649889826774597,16.631540656089783 14.821618795394897,16.457682847976685 14.821618795394897,16.457682847976685 18.307654559612274,16.042940318584442 18.307654559612274,16.042940318584442 24.064312875270844,15.548047423362732 24.064312875270844,15.548047423362732 32.04771876335144,15.13330489397049 32.04771876335144,15.13330489397049" stroke="white" stroke-width="0.1" /><polygon points="66.0488486289978,33.69700312614441 66.0488486289978,33.69700312614441 66.0488486289978,24.561432003974915 66.0488486289978,24.561432003974915 62.76965141296387,24.561432003974915 62.76965141296387,24.561432003974915 62.76965141296387,33.69700312614441 62.76965141296387,33.69700312614441" stroke="white" stroke-width="0.1" /><polygon points="78.22961211204529,33.69700312614441 78.22961211204529,33.69700312614441 78.22961211204529,24.562981724739075 78.22961211204529,24.562981724739075 68.85693669319153,24.562981724739075 68.85693669319153,24.562981724739075 68.85693669319153,33.69700312614441 68.85693669319153,33.69700312614441" stroke="white" stroke-width="0.1" /><polygon points="14.000125229358673,72.7343201637268 14.000125229358673,72.7343201637268 13.08201551437378,71.5021550655365 13.08201551437378,71.5021550655365 12.612210214138031,70.09743452072144 12.612210214138031,70.09743452072144 12.591773271560669,68.6305284500122 12.591773271560669,68.6305284500122 13.021963834762573,67.21171736717224 13.021963834762573,67.21171736717224 13.904042541980743,65.95121622085571 13.904042541980743,65.95121622085571 38.42053413391113,40.73270857334137 38.42053413391113,40.73270857334137 38.99814188480377,40.21965563297272 38.99814188480377,40.21965563297272 39.64325785636902,39.811015129089355 39.64325785636902,39.811015129089355 40.34232497215271,39.512211084365845 40.34232497215271,39.512211084365845 41.081973910331726,39.32900428771973 41.081973910331726,39.32900428771973 41.848501563072205,39.26667869091034 41.848501563072205,39.26667869091034 42.61599779129028,39.32900428771973 42.61599779129028,39.32900428771973 43.35550367832184,39.512306451797485 43.35550367832184,39.512306451797485 44.05461847782135,39.810916781425476 44.05461847782135,39.810916781425476 44.701141119003296,40.21965563297272 44.701141119003296,40.21965563297272 45.282670855522156,40.73270857334137 45.282670855522156,40.73270857334137 69.80226039886475,65.95276594161987 69.80226039886475,65.95276594161987 69.80226039886475,65.95281958580017 69.80226039886475,65.95281958580017 69.80230808258057,65.95276594161987 69.80230808258057,65.95276594161987 69.80226039886475,65.95276594161987 69.80226039886475,65.95276594161987 69.80226039886475,65.95276594161987 69.80226039886475,65.95276594161987 69.80226039886475,65.95276594161987 69.80226039886475,65.95276594161987 70.67920565605164,67.21433401107788 70.67920565605164,67.21433401107788 71.10547423362732,68.63290667533875 71.10547423362732,68.63290667533875 71.08275890350342,70.09888291358948 71.08275890350342,70.09888291358948 70.61266303062439,71.50254249572754 70.61266303062439,71.50254249572754 69.69687938690186,72.7343201637268 69.69687938690186,72.7343201637268 68.44553351402283,73.60511422157288 68.44553351402283,73.60511422157288 67.03175902366638,74.02969002723694 67.03175902366638,74.02969002723694 65.56819677352905,74.00702238082886 65.56819677352905,74.00702238082886 64.16778564453125,73.53630065917969 64.16778564453125,73.53630065917969 62.943220138549805,72.61654138565063 62.943220138549805,72.61654138565063 43.116170167922974,52.211445569992065 43.116170167922974,52.211445569992065 42.89920926094055,52.024465799331665 42.89920926094055,52.024465799331665 42.66016483306885,51.87685489654541 42.66016483306885,51.87685489654541 42.40272045135498,51.76992416381836 42.40272045135498,51.76992416381836 42.13089048862457,51.70493125915527 42.13089048862457,51.70493125915527 41.848501563072205,51.68299078941345 41.848501563072205,51.68299078941345 41.564759612083435,51.70493125915527 41.564759612083435,51.70493125915527 41.29268825054169,51.76997184753418 41.29268825054169,51.76997184753418 41.03664457798004,51.87680721282959 41.03664457798004,51.87680721282959 40.80103933811188,52.02441215515137 40.80103933811188,52.02441215515137 40.590134263038635,52.211445569992065 40.590134263038635,52.211445569992065 20.750683546066284,72.64753580093384 20.750683546066284,72.64753580093384 20.154720544815063,73.15627932548523 20.154720544815063,73.15627932548523 19.499820470809937,73.55707287788391 19.499820470809937,73.55707287788391 18.800754845142365,73.84701371192932 18.800754845142365,73.84701371192932 18.07219386100769,74.0231990814209 18.07219386100769,74.0231990814209 17.328912019729614,74.08257126808167 17.328912019729614,74.08257126808167 16.61231517791748,74.02852773666382 16.61231517791748,74.02852773666382 15.907290577888489,73.86648654937744 15.907290577888489,73.86648654937744 15.227596461772919,73.59649538993835 15.227596461772919,73.59649538993835 14.587321877479553,73.21909070014954 14.587321877479553,73.21909070014954" stroke="white" stroke-width="0.1" /><polygon points="57.33015537261963,87.24120259284973 57.33015537261963,87.24120259284973 46.49764597415924,98.09695482254028 46.49764597415924,98.09695482254028 44.793298840522766,99.31464195251465 44.793298840522766,99.31464195251465 42.85596311092377,99.92349147796631 42.85596311092377,99.92349147796631 40.8410906791687,99.92358684539795 40.8410906791687,99.92358684539795 38.90370428562164,99.31469559669495 38.90370428562164,99.31469559669495 37.19935715198517,98.09695482254028 37.19935715198517,98.09695482254028 26.36685073375702,87.24120259284973 26.36685073375702,87.24120259284973 25.139474868774414,85.54474711418152 25.139474868774414,85.54474711418152 24.52574074268341,83.60954523086548 24.52574074268341,83.60954523086548 24.52578842639923,81.59476518630981 24.52578842639923,81.59476518630981 25.139525532722473,79.65951561927795 25.139525532722473,79.65951561927795 26.36685073375702,77.96306014060974 26.36685073375702,77.96306014060974 37.19935715198517,67.11040735244751 37.19935715198517,67.11040735244751 38.90365660190582,65.88158011436462 38.90365660190582,65.88158011436462 40.84104299545288,65.2670681476593 40.84104299545288,65.2670681476593 42.85601079463959,65.26716351509094 42.85601079463959,65.26716351509094 44.793298840522766,65.88158011436462 44.793298840522766,65.88158011436462 46.49764597415924,67.11040735244751 46.49764597415924,67.11040735244751 57.33015537261963,77.96306014060974 57.33015537261963,77.96306014060974 58.558982610702515,79.65980172157288 58.558982610702515,79.65980172157288 59.17344093322754,81.59559369087219 59.17344093322754,81.59559369087219 59.17344093322754,83.61089825630188 59.17344093322754,83.61089825630188 58.559030294418335,85.54601073265076 58.559030294418335,85.54601073265076" stroke="white" stroke-width="0.1" /></svg>