<?xml version="1.0" encoding="utf-8" ?>
<svg baseProfile="full" height="34.03159976005554" version="1.1" width="32.53299295902252" xmlns="http://www.w3.org/2000/svg" xmlns:ev="http://www.w3.org/2001/xml-events" xmlns:xlink="http://www.w3.org/1999/xlink"><defs><clipPath /></defs><polygon points="14.687949419021606,32.278257608413696 14.687949419021606,32.278257608413696 2.308880537748337,17.988672852516174 2.308880537748337,17.988672852516174 1.8616534769535065,17.38714724779129 1.8616534769535065,17.38714724779129 1.5146947465837002,16.74194633960724 1.5146947465837002,16.74194633960724 1.2675384990870953,16.065241396427155 1.2675384990870953,16.065241396427155 1.119634322822094,15.369248390197754 1.119634322822094,15.369248390197754 1.070431713014841,14.666269719600677 1.070431713014841,14.666269719600677 1.141652651131153,13.81763070821762 1.141652651131153,13.81763070821762 1.3542146421968937,12.989316880702972 1.3542146421968937,12.989316880702972 1.706169918179512,12.201566249132156 1.706169918179512,12.201566249132156 2.195739932358265,11.474684625864029 2.195739932358265,11.474684625864029 2.821061760187149,10.828974843025208 2.821061760187149,10.828974843025208 11.755779385566711,3.089347295463085 11.755779385566711,3.089347295463085 12.354424595832825,2.642120234668255 12.354424595832825,2.642120234668255 12.997700273990631,2.2951826453208923 12.997700273990631,2.2951826453208923 13.673621416091919,2.0480263978242874 13.673621416091919,2.0480263978242874 14.370207488536835,1.9000798463821411 14.370207488536835,1.9000798463821411 15.075471997261047,1.850898377597332 15.075471997261047,1.850898377597332 15.921825170516968,1.9218863919377327 15.921825170516968,1.9218863919377327 16.749674081802368,2.1338555961847305 16.749674081802368,2.1338555961847305 17.538650333881378,2.4854298681020737 17.538650333881378,2.4854298681020737 18.2683065533638,2.975126914680004 18.2683065533638,2.975126914680004 18.91818642616272,3.6015283316373825 18.91818642616272,3.6015283316373825 31.29725456237793,17.896534502506256 31.29725456237793,17.896534502506256 31.743168830871582,18.496492505073547 31.743168830871582,18.496492505073547 32.08932280540466,19.14038211107254 32.08932280540466,19.14038211107254 32.336097955703735,19.8163241147995 32.336097955703735,19.8163241147995 32.48387575149536,20.512253046035767 32.48387575149536,20.512253046035767 32.53299295902252,21.216227114200592 32.53299295902252,21.216227114200592 32.46202766895294,22.062283754348755 32.46202766895294,22.062283754348755 32.250016927719116,22.889645397663116 32.250016927719116,22.889645397663116 31.8985253572464,23.678220808506012 31.8985253572464,23.678220808506012 31.40878677368164,24.40798133611679 31.40878677368164,24.40798133611679 30.782362818717957,25.058943033218384 30.782362818717957,25.058943033218384 21.847647428512573,32.79857039451599 21.847647428512573,32.79857039451599 21.247731149196625,33.24418663978577 21.247731149196625,33.24418663978577 20.6037774682045,33.589622378349304 20.6037774682045,33.589622378349304 19.927982985973358,33.83563458919525 19.927982985973358,33.83563458919525 19.231991469860077,33.98273587226868 19.231991469860077,33.98273587226868 18.527953326702118,34.03159976005554 18.527953326702118,34.03159976005554 17.679569125175476,33.96008014678955 17.679569125175476,33.96008014678955 16.851593554019928,33.746883273124695 16.851593554019928,33.746883273124695 16.063885390758514,33.39416682720184 16.063885390758514,33.39416682720184 15.336093306541443,32.903918623924255 15.336093306541443,32.903918623924255" stroke="white" stroke-width="0.1" /><polygon points="4.82642762362957,13.143275678157806 4.82642762362957,13.143275678157806 4.582362249493599,13.397417962551117 4.582362249493599,13.397417962551117 4.390760138630867,13.683657348155975 4.390760138630867,13.683657348155975 4.252637177705765,13.995175063610077 4.252637177705765,13.995175063610077 4.16896753013134,14.324983954429626 4.16896753013134,14.324983954429626 4.140809178352356,14.666269719600677 4.140809178352356,14.666269719600677 4.160033166408539,14.947892725467682 4.160033166408539,14.947892725467682 4.217704012989998,15.224307775497437 4.217704012989998,15.224307775497437 4.314076900482178,15.491640567779541 4.314076900482178,15.491640567779541 4.449193552136421,15.74593186378479 4.449193552136421,15.74593186378479 4.623181000351906,15.983307361602783 4.623181000351906,15.983307361602783 17.002248764038086,30.272892117500305 17.002248764038086,30.272892117500305 17.25694239139557,30.516958236694336 17.25694239139557,30.516958236694336 17.544536292552948,30.70858120918274 17.544536292552948,30.70858120918274 17.857663333415985,30.846768617630005 17.857663333415985,30.846768617630005 18.188869953155518,30.930393934249878 18.188869953155518,30.930393934249878 18.53066384792328,30.95851242542267 18.53066384792328,30.95851242542267 18.811990320682526,30.93954026699066 18.811990320682526,30.93954026699066 19.08755898475647,30.882379412651062 19.08755898475647,30.882379412651062 19.353684782981873,30.786427855491638 19.353684782981873,30.786427855491638 19.606514275074005,30.651164054870605 19.606514275074005,30.651164054870605 19.842280447483063,30.47613799571991 19.842280447483063,30.47613799571991 28.774288296699524,22.739221155643463 28.774288296699524,22.739221155643463 29.020723700523376,22.484824061393738 29.020723700523376,22.484824061393738 29.21338677406311,22.198055684566498 29.21338677406311,22.198055684566498 29.352059960365295,21.886178851127625 29.352059960365295,21.886178851127625 29.436153173446655,21.55645340681076 29.436153173446655,21.55645340681076 29.46532666683197,21.216227114200592 29.46532666683197,21.216227114200592 29.445847868919373,20.933333039283752 29.445847868919373,20.933333039283752 29.38741445541382,20.656409859657288 29.38741445541382,20.656409859657288 29.290366172790527,20.38954347372055 29.290366172790527,20.38954347372055 29.15453016757965,20.136691629886627 29.15453016757965,20.136691629886627 28.98024618625641,19.901899993419647 28.98024618625641,19.901899993419647 16.60117655992508,5.6068941950798035 16.60117655992508,5.6068941950798035 16.345466673374176,5.361516401171684 16.345466673374176,5.361516401171684 16.057872772216797,5.169088393449783 16.057872772216797,5.169088393449783 15.745635330677032,5.030521005392075 15.745635330677032,5.030521005392075 15.415741503238678,4.946723952889442 15.415741503238678,4.946723952889442 15.075471997261047,4.918565973639488 15.075471997261047,4.918565973639488 14.793340861797333,4.9378108233213425 14.793340861797333,4.9378108233213425 14.517983794212341,4.995841905474663 14.517983794212341,4.995841905474663 14.252324402332306,5.093040317296982 14.252324402332306,5.093040317296982 13.999028503894806,5.22974468767643 13.999028503894806,5.22974468767643 13.761144876480103,5.40635772049427 13.761144876480103,5.40635772049427" stroke="white" stroke-width="0.1" /></svg>