<?xml version="1.0" encoding="utf-8" ?>
<svg baseProfile="full" height="90.49699306488037" version="1.1" width="99.96795058250427" xmlns="http://www.w3.org/2000/svg" xmlns:ev="http://www.w3.org/2001/xml-events" xmlns:xlink="http://www.w3.org/1999/xlink"><defs><clipPath /></defs><polygon points="37.588512897491455,72.06670641899109 37.588512897491455,72.06670641899109 37.072694301605225,75.2148687839508 37.072694301605225,75.2148687839508 35.64746081829071,77.97982692718506 35.64746081829071,77.97982692718506 33.47230553627014,80.1820695400238 33.47230553627014,80.1820695400238 30.70652186870575,81.64153099060059 30.70652186870575,81.64153099060059 27.509760856628418,82.17854499816895 27.509760856628418,82.17854499816895 24.662084877490997,81.75315260887146 24.662084877490997,81.75315260887146 22.124198079109192,80.58130741119385 22.124198079109192,80.58130741119385 20.017962157726288,78.78366708755493 20.017962157726288,78.78366708755493 18.464870750904083,76.48102045059204 18.464870750904083,76.48102045059204 17.58652627468109,73.79392981529236 17.58652627468109,73.79392981529236 17.434319853782654,73.79392981529236 17.434319853782654,73.79392981529236 17.434319853782654,72.09979891777039 17.434319853782654,72.09979891777039 17.434319853782654,70.3924298286438 17.434319853782654,70.3924298286438 17.583218216896057,70.3924298286438 17.583218216896057,70.3924298286438 18.408362567424774,67.80858039855957 18.408362567424774,67.80858039855957 19.85960155725479,65.57061076164246 19.85960155725479,65.57061076164246 21.83012366294861,63.78946900367737 21.83012366294861,63.78946900367737 24.21290874481201,62.5759482383728 24.21290874481201,62.5759482383728 26.900935173034668,62.04090118408203 26.900935173034668,62.04090118408203 27.037528157234192,62.02797293663025 27.037528157234192,62.02797293663025 27.165332436561584,62.02016472816467 27.165332436561584,62.02016472816467 27.28455364704132,62.016189098358154 27.28455364704132,62.016189098358154 27.39488184452057,62.01463341712952 27.39488184452057,62.01463341712952 27.496525645256042,62.01443076133728 27.496525645256042,62.01443076133728 30.43566346168518,62.4630868434906 30.43566346168518,62.4630868434906 33.05844068527222,63.71067762374878 33.05844068527222,63.71067762374878 35.215240716934204,65.63327312469482 35.215240716934204,65.63327312469482 36.75639033317566,68.10694932937622 36.75639033317566,68.10694932937622 37.53226101398468,71.0078775882721 37.53226101398468,71.0078775882721 37.55335509777069,71.21840119361877 37.55335509777069,71.21840119361877 37.56922781467438,71.42918705940247 37.56922781467438,71.42918705940247 37.58018910884857,71.64069414138794 37.58018910884857,71.64069414138794 37.58649528026581,71.85308337211609 37.58649528026581,71.85308337211609" stroke="white" stroke-width="0.1" /><polygon points="20.835815370082855,72.09979891777039 20.835815370082855,72.09979891777039 21.188414096832275,74.17020797729492 21.188414096832275,74.17020797729492 22.155839204788208,75.99545121192932 22.155839204788208,75.99545121192932 23.614419996738434,77.45252847671509 23.614419996738434,77.45252847671509 25.440284609794617,78.41850519180298 25.440284609794617,78.41850519180298 27.509760856628418,78.7704348564148 27.509760856628418,78.7704348564148 29.59991991519928,78.41312885284424 29.59991991519928,78.41312885284424 31.429195404052734,77.43515968322754 31.429195404052734,77.43515968322754 32.88110792636871,75.96546411514282 32.88110792636871,75.96546411514282 33.83917510509491,74.13297891616821 33.83917510509491,74.13297891616821 34.187015891075134,72.06670641899109 34.187015891075134,72.06670641899109 34.185776114463806,71.9270646572113 34.185776114463806,71.9270646572113 34.181588888168335,71.78638577461243 34.181588888168335,71.78638577461243 34.17419493198395,71.64555191993713 34.17419493198395,71.64555191993713 34.16292369365692,71.50492668151855 34.16292369365692,71.50492668151855 34.14731025695801,71.36523127555847 34.14731025695801,71.36523127555847 33.6436927318573,69.46699023246765 33.6436927318573,69.46699023246765 32.6157808303833,67.82926321029663 32.6157808303833,67.82926321029663 31.17467164993286,66.54574275016785 31.17467164993286,66.54574275016785 29.43127155303955,65.7099962234497 29.43127155303955,65.7099962234497 27.496525645256042,65.41592478752136 27.496525645256042,65.41592478752136 27.41938829421997,65.41664600372314 27.41938829421997,65.41664600372314 27.34876573085785,65.41866660118103 27.34876573085785,65.41866660118103 27.281761169433594,65.42166471481323 27.281761169433594,65.42166471481323 27.214965224266052,65.4252290725708 27.214965224266052,65.4252290725708 27.145788073539734,65.4291570186615 27.145788073539734,65.4291570186615 25.16016960144043,65.85605144500732 25.16016960144043,65.85605144500732 23.426230251789093,66.85289740562439 23.426230251789093,66.85289740562439 22.05404043197632,68.30330491065979 22.05404043197632,68.30330491065979 21.153774857521057,70.09101510047913 21.153774857521057,70.09101510047913" stroke="white" stroke-width="0.1" /><polygon points="95.08305191993713,64.33724164962769 95.08305191993713,64.33724164962769 95.26452422142029,64.41267132759094 95.26452422142029,64.41267132759094 95.44475078582764,64.45475816726685 95.44475078582764,64.45475816726685 95.66706418991089,64.54455852508545 95.66706418991089,64.54455852508545 95.97427248954773,64.7628903388977 95.97427248954773,64.7628903388977 96.40990495681763,65.19092321395874 96.40990495681763,65.19092321395874 96.61257266998291,65.57878255844116 96.61257266998291,65.57878255844116 96.7264175415039,65.90341329574585 96.7264175415039,65.90341329574585 96.77883982658386,66.18109345436096 96.77883982658386,66.18109345436096 96.79651856422424,66.42780900001526 96.79651856422424,66.42780900001526 96.80696725845337,66.66005253791809 96.80696725845337,66.66005253791809 96.76436185836792,67.31230616569519 96.76436185836792,67.31230616569519 96.67388796806335,67.93752312660217 96.67388796806335,67.93752312660217 96.56810760498047,68.48022937774658 96.56810760498047,68.48022937774658 96.47918343544006,68.88468265533447 96.47918343544006,68.88468265533447 96.43968343734741,69.09536123275757 96.43968343734741,69.09536123275757 96.2887167930603,70.12503743171692 96.2887167930603,70.12503743171692 96.10455632209778,71.29254341125488 96.10455632209778,71.29254341125488 95.79600691795349,72.53888845443726 95.79600691795349,72.53888845443726 95.27186751365662,73.80488514900208 95.27186751365662,73.80488514900208 94.44113969802856,75.03143548965454 94.44113969802856,75.03143548965454 93.17384958267212,76.10024809837341 93.17384958267212,76.10024809837341 91.83231592178345,76.74950361251831 91.83231592178345,76.74950361251831 90.48624038696289,77.09791660308838 90.48624038696289,77.09791660308838 89.20509219169617,77.26429104804993 89.20509219169617,77.26429104804993 88.05837035179138,77.36748456954956 88.05837035179138,77.36748456954956 87.71476745605469,77.36810445785522 87.71476745605469,77.36810445785522 87.38471269607544,77.30109691619873 87.38471269607544,77.30109691619873 87.07688450813293,77.17024683952332 87.07688450813293,77.17024683952332 86.79997324943542,76.9793152809143 86.79997324943542,76.9793152809143 86.56277060508728,76.73218250274658 86.56277060508728,76.73218250274658 86.37726902961731,76.44240260124207 86.37726902961731,76.44240260124207 86.25525236129761,76.12749338150024 86.25525236129761,76.12749338150024 86.19880080223083,75.7973849773407 86.19880080223083,75.7973849773407 86.21006608009338,75.46179294586182 86.21006608009338,75.46179294586182 86.29144430160522,75.13070106506348 86.29144430160522,75.13070106506348 86.49928569793701,74.44142699241638 86.49928569793701,74.44142699241638 86.65903806686401,73.75525236129761 86.65903806686401,73.75525236129761 86.7717444896698,73.07233810424805 86.7717444896698,73.07233810424805 86.8386447429657,72.3926305770874 86.8386447429657,72.3926305770874 86.86056733131409,71.71596884727478 86.86056733131409,71.71596884727478 86.31450533866882,68.40955018997192 86.31450533866882,68.40955018997192 84.80039834976196,65.4512882232666 84.80039834976196,65.4512882232666 82.48658180236816,63.06229829788208 82.48658180236816,63.06229829788208 79.54139709472656,61.463505029678345 79.54139709472656,61.463505029678345 76.13328099250793,60.876184701919556 76.13328099250793,60.876184701919556 76.06421113014221,60.876286029815674 76.06421113014221,60.876286029815674 75.99151730537415,60.877060890197754 75.99151730537415,60.877060890197754 75.9151041507721,60.87908148765564 75.9151041507721,60.87908148765564 75.83445310592651,60.88300943374634 75.83445310592651,60.88300943374634 75.7494568824768,60.88942289352417 75.7494568824768,60.88942289352417 72.41827249526978,61.55625581741333 72.41827249526978,61.55625581741333 69.57380175590515,63.19547891616821 69.57380175590515,63.19547891616821 67.36235618591309,65.58653712272644 67.36235618591309,65.58653712272644 65.9298300743103,68.50902438163757 65.9298300743103,68.50902438163757 65.42254090309143,71.74243927001953 65.42254090309143,71.74243927001953 65.4531478881836,72.5346028804779 65.4531478881836,72.5346028804779 65.54600596427917,73.32929372787476 65.54600596427917,73.32929372787476 65.70348143577576,74.12439584732056 65.70348143577576,74.12439584732056 65.92735052108765,74.91748929023743 65.92735052108765,74.91748929023743 66.21997356414795,75.70644021034241 66.21997356414795,75.70644021034241 66.31903052330017,76.04115009307861 66.31903052330017,76.04115009307861 66.34756922721863,76.38599872589111 66.34756922721863,76.38599872589111 66.30703806877136,76.72897577285767 66.30703806877136,76.72897577285767 66.19887948036194,77.0579993724823 66.19887948036194,77.0579993724823 66.02475047111511,77.36086249351501 66.02475047111511,77.36086249351501 65.81050157546997,77.60153412818909 65.81050157546997,77.60153412818909 65.5580997467041,77.79649496078491 65.5580997467041,77.79649496078491 65.27560949325562,77.9412567615509 65.27560949325562,77.9412567615509 64.9706780910492,78.03137302398682 64.9706780910492,78.03137302398682 64.65157866477966,78.06234359741211 64.65157866477966,78.06234359741211 64.62376713752747,78.06167006492615 64.62376713752747,78.06167006492615 64.59594964981079,78.05996537208557 64.59594964981079,78.05996537208557 64.56823945045471,78.05805206298828 64.56823945045471,78.05805206298828 64.54052925109863,78.05644869804382 64.54052925109863,78.05644869804382 64.51261043548584,78.05572152137756 64.51261043548584,78.05572152137756 61.10263466835022,77.80719995498657 61.10263466835022,77.80719995498657 57.70062208175659,77.60509848594666 57.70062208175659,77.60509848594666 54.30424213409424,77.45444178581238 54.30424213409424,77.45444178581238 50.91091990470886,77.36029624938965 50.91091990470886,77.36029624938965 47.51836657524109,77.3277759552002 47.51836657524109,77.3277759552002 45.87965905666351,77.33579277992249 45.87965905666351,77.33579277992249 44.23960745334625,77.35993266105652 44.23960745334625,77.35993266105652 42.59836673736572,77.4007260799408 42.59836673736572,77.4007260799408 40.955886244773865,77.45821475982666 40.955886244773865,77.45821475982666 39.31242227554321,77.53292322158813 39.31242227554321,77.53292322158813 38.97486925125122,77.51607298851013 38.97486925125122,77.51607298851013 38.651272654533386,77.43593454360962 38.651272654533386,77.43593454360962 38.350942730903625,77.29613780975342 38.350942730903625,77.29613780975342 38.08292746543884,77.1000862121582 38.08292746543884,77.1000862121582 37.85652816295624,76.8513023853302 37.85652816295624,76.8513023853302 37.684160470962524,76.55898928642273 37.684160470962524,76.55898928642273 37.5730037689209,76.24418139457703 37.5730037689209,76.24418139457703 37.52497136592865,75.91603398323059 37.52497136592865,75.91603398323059 37.541672587394714,75.58370232582092 37.541672587394714,75.58370232582092 37.62491047382355,75.25643706321716 37.62491047382355,75.25643706321716 37.85063624382019,74.54968690872192 37.85063624382019,74.54968690872192 38.02424669265747,73.84288907051086 38.02424669265747,73.84288907051086 38.146933913230896,73.13619256019592 38.146933913230896,73.13619256019592 38.21972608566284,72.42933511734009 38.21972608566284,72.42933511734009 38.24366331100464,71.72259092330933 38.24366331100464,71.72259092330933 37.781769037246704,68.63388419151306 37.781769037246704,68.63388419151306 36.4705353975296,65.81768989562988 36.4705353975296,65.81768989562988 34.4334214925766,63.46721649169922 34.4334214925766,63.46721649169922 31.79353177547455,61.77551746368408 31.79353177547455,61.77551746368408 28.674477338790894,60.935741662979126 28.674477338790894,60.935741662979126 28.452110290527344,60.91108322143555 28.452110290527344,60.91108322143555 28.229540586471558,60.89242100715637 28.229540586471558,60.89242100715637 28.00670862197876,60.87954640388489 28.00670862197876,60.87954640388489 27.78346538543701,60.872048139572144 27.78346538543701,60.872048139572144 27.559393644332886,60.86956858634949 27.559393644332886,60.86956858634949 24.21032339334488,61.436671018600464 24.21032339334488,61.436671018600464 21.262450516223907,62.99229860305786 21.262450516223907,62.99229860305786 18.912185728549957,65.34178256988525 18.912185728549957,65.34178256988525 17.355631291866302,68.29028129577637 17.355631291866302,68.29028129577637 16.789095103740692,71.6431736946106 16.789095103740692,71.6431736946106 16.79116189479828,71.85039520263672 16.79116189479828,71.85039520263672 16.79721176624298,72.05890417098999 16.79721176624298,72.05890417098999 16.807706654071808,72.26834297180176 16.807706654071808,72.26834297180176 16.8225958943367,72.47840166091919 16.8225958943367,72.47840166091919 16.842035949230194,72.68877029418945 16.842035949230194,72.68877029418945 16.838985681533813,73.05843234062195 16.838985681533813,73.05843234062195 16.758178174495697,73.41320514678955 16.758178174495697,73.41320514678955 16.605040431022644,73.74134659767151 16.605040431022644,73.74134659767151 16.385260224342346,74.03092384338379 16.385260224342346,74.03092384338379 16.104163229465485,74.27040338516235 16.104163229465485,74.27040338516235 15.779896080493927,74.44344162940979 15.779896080493927,74.44344162940979 15.431225299835205,74.54115748405457 15.431225299835205,74.54115748405457 15.070974826812744,74.56297278404236 15.070974826812744,74.56297278404236 14.71196562051773,74.50822591781616 14.71196562051773,74.50822591781616 14.367017149925232,74.37628507614136 14.367017149925232,74.37628507614136 13.416241109371185,73.88543486595154 13.416241109371185,73.88543486595154 12.468928098678589,73.4006941318512 12.468928098678589,73.4006941318512 11.523941904306412,72.92639017105103 11.523941904306412,72.92639017105103 10.579834878444672,72.46707677841187 10.579834878444672,72.46707677841187 9.635365009307861,72.0270037651062 9.635365009307861,72.0270037651062 9.386684745550156,71.9150185585022 9.386684745550156,71.9150185585022 8.930528908967972,71.78080081939697 8.930528908967972,71.78080081939697 8.332765102386475,71.53388261795044 8.332765102386475,71.53388261795044 7.658948749303818,71.08356952667236 7.658948749303818,71.08356952667236 6.975051760673523,70.3394889831543 6.975051760673523,70.3394889831543 6.291567534208298,68.83515119552612 6.291567534208298,68.83515119552612 5.905414745211601,67.29586720466614 5.905414745211601,67.29586720466614 5.7229626923799515,65.78682661056519 5.7229626923799515,65.78682661056519 5.649806186556816,64.37301635742188 5.649806186556816,64.37301635742188 5.591953173279762,63.11958432197571 5.591953173279762,63.11958432197571 5.595261976122856,63.11958432197571 5.595261976122856,63.11958432197571 5.590401962399483,63.058680295944214 5.590401962399483,63.058680295944214 5.587455257773399,63.00418972969055 5.587455257773399,63.00418972969055 5.585955828428268,62.957602739334106 5.585955828428268,62.957602739334106 5.585438758134842,62.92053461074829 5.585438758134842,62.92053461074829 5.585335195064545,62.894582748413086 5.585335195064545,62.894582748413086 5.6457217782735825,62.165188789367676 5.6457217782735825,62.165188789367676 5.8366525918245316,61.5050733089447 5.8366525918245316,61.5050733089447 6.1133552342653275,60.931092500686646 6.1133552342653275,60.931092500686646 6.430539488792419,60.45994162559509 6.430539488792419,60.45994162559509 6.743431836366653,60.10853052139282 6.743431836366653,60.10853052139282 7.011552155017853,59.83472466468811 7.011552155017853,59.83472466468811 7.213857024908066,59.623783826828 7.213857024908066,59.623783826828 7.358206063508987,59.46248173713684 7.358206063508987,59.46248173713684 7.452300935983658,59.33731198310852 7.452300935983658,59.33731198310852 7.50446692109108,59.234994649887085 7.50446692109108,59.234994649887085 7.6177433133125305,58.8934063911438 7.6177433133125305,58.8934063911438 7.69725888967514,58.40669870376587 7.69725888967514,58.40669870376587 7.7580079436302185,57.80754089355469 7.7580079436302185,57.80754089355469 7.814516872167587,57.128602266311646 7.814516872167587,57.128602266311646 7.881675660610199,56.402623653411865 7.881675660610199,56.402623653411865 7.988283038139343,55.5777370929718 7.988283038139343,55.5777370929718 8.11820700764656,54.52699661254883 8.11820700764656,54.52699661254883 8.356081694364548,53.33749055862427 8.356081694364548,53.33749055862427 8.786128461360931,52.096158266067505 8.786128461360931,52.096158266067505 9.493084996938705,50.890082120895386 9.493084996938705,50.890082120895386 9.842582046985626,50.512564182281494 9.842582046985626,50.512564182281494 10.27149111032486,50.1728355884552 10.27149111032486,50.1728355884552 10.768438875675201,49.89285171031952 10.768438875675201,49.89285171031952 11.321274936199188,49.694475531578064 11.321274936199188,49.694475531578064 11.91847026348114,49.599629640579224 11.91847026348114,49.599629640579224 13.679501414299011,49.51339364051819 13.679501414299011,49.51339364051819 15.31810462474823,49.43540394306183 15.31810462474823,49.43540394306183 16.82983487844467,49.29139018058777 16.82983487844467,49.29139018058777 18.20952147245407,49.006906151771545 18.20952147245407,49.006906151771545 19.452716410160065,48.50771129131317 19.452716410160065,48.50771129131317 21.231119334697723,47.57435619831085 21.231119334697723,47.57435619831085 23.038318753242493,46.62192761898041 23.038318753242493,46.62192761898041 24.88367408514023,45.68226635456085 24.88367408514023,45.68226635456085 26.775869727134705,44.78696286678314 26.775869727134705,44.78696286678314 28.72411012649536,43.967971205711365 28.72411012649536,43.967971205711365 31.022879481315613,43.16469728946686 31.022879481315613,43.16469728946686 33.357736468315125,42.501816153526306 33.357736468315125,42.501816153526306 35.71787476539612,41.9672816991806 35.71787476539612,41.9672816991806 38.09233605861664,41.54899716377258 38.09233605861664,41.54899716377258 40.47051966190338,41.23486280441284 40.47051966190338,41.23486280441284 41.760557889938354,41.09656512737274 41.760557889938354,41.09656512737274 43.08476746082306,40.973541140556335 43.08476746082306,40.973541140556335 44.43596601486206,40.87468981742859 44.43596601486206,40.87468981742859 45.807018876075745,40.80882370471954 45.807018876075745,40.80882370471954 47.19078838825226,40.7848596572876 47.19078838825226,40.7848596572876 48.25799763202667,40.80078303813934 48.25799763202667,40.80078303813934 49.325358867645264,40.85199236869812 49.325358867645264,40.85199236869812 50.38987398147583,40.943554043769836 50.38987398147583,40.943554043769836 51.44845247268677,41.08048379421234 51.44845247268677,41.08048379421234 52.49817967414856,41.2679523229599 52.49817967414856,41.2679523229599 54.39735651016235,41.764745116233826 54.39735651016235,41.764745116233826 56.2130868434906,42.4343466758728 56.2130868434906,42.4343466758728 57.947903871536255,43.23674142360687 57.947903871536255,43.23674142360687 59.604036808013916,44.13188993930817 59.604036808013916,44.13188993930817 61.183905601501465,45.0797438621521 61.183905601501465,45.0797438621521 62.72706985473633,46.07942998409271 62.72706985473633,46.07942998409271 64.2323911190033,47.1293181180954 64.2323911190033,47.1293181180954 65.70110321044922,48.224055767059326 65.70110321044922,48.224055767059326 67.13424921035767,49.35808479785919 67.13424921035767,49.35808479785919 68.53286027908325,50.52610635757446 68.53286027908325,50.52610635757446 68.87035965919495,50.82147717475891 68.87035965919495,50.82147717475891 69.1468596458435,51.064103841781616 69.1468596458435,51.064103841781616 69.36699748039246,51.25371813774109 69.36699748039246,51.25371813774109 69.53471302986145,51.38992667198181 69.53471302986145,51.38992667198181 69.65456008911133,51.472437381744385 69.65456008911133,51.472437381744385 69.74338293075562,51.52377486228943 69.74338293075562,51.52377486228943 69.83954310417175,51.568782329559326 69.83954310417175,51.568782329559326 69.97345089912415,51.610660552978516 69.97345089912415,51.610660552978516 70.17508149147034,51.65243744850159 70.17508149147034,51.65243744850159 70.47515511512756,51.69743895530701 70.47515511512756,51.69743895530701 74.87871050834656,52.242833375930786 74.87871050834656,52.242833375930786 79.36561107635498,52.92704105377197 79.36561107635498,52.92704105377197 83.85820388793945,53.858762979507446 83.85820388793945,53.858762979507446 88.27840685844421,55.14650344848633 88.27840685844421,55.14650344848633 92.54847764968872,56.89895153045654 92.54847764968872,56.89895153045654 92.78175234794617,57.01279640197754 92.78175234794617,57.01279640197754 93.1547224521637,57.19172954559326 93.1547224521637,57.19172954559326 93.62344145774841,57.44217038154602 93.62344145774841,57.44217038154602 94.14406418800354,57.770365476608276 94.14406418800354,57.770365476608276 94.67275738716125,58.18278193473816 94.67275738716125,58.18278193473816 94.85195279121399,58.37087035179138 94.85195279121399,58.37087035179138 95.0518250465393,58.60440135002136 95.0518250465393,58.60440135002136 95.24229168891907,58.91134738922119 95.24229168891907,58.91134738922119 95.39284706115723,59.31957960128784 95.39284706115723,59.31957960128784 95.47349810600281,59.85705852508545 95.47349810600281,59.85705852508545 95.45612931251526,60.14156937599182 95.45612931251526,60.14156937599182 95.39356827735901,60.41305065155029 95.39356827735901,60.41305065155029 95.29368281364441,60.668039321899414 95.29368281364441,60.668039321899414 95.16432881355286,60.90296506881714 95.16432881355286,60.90296506881714 95.01357078552246,61.11442446708679 95.01357078552246,61.11442446708679 95.00963687896729,61.15557551383972 95.00963687896729,61.15557551383972 95.00560760498047,61.1993134021759 95.00560760498047,61.1993134021759 95.00178098678589,61.24501824378967 95.00178098678589,61.24501824378967 94.9977457523346,61.29186153411865 94.9977457523346,61.29186153411865 94.99371647834778,61.339426040649414 94.99371647834778,61.339426040649414 94.97396349906921,61.604493856430054 94.97396349906921,61.604493856430054 94.95980143547058,61.85436248779297 94.95980143547058,61.85436248779297 94.94739174842834,62.09275722503662 94.94739174842834,62.09275722503662 94.93229389190674,62.323492765426636 94.93229389190674,62.323492765426636 94.91099715232849,62.550461292266846 94.91099715232849,62.550461292266846 94.86570358276367,62.884652614593506 94.86570358276367,62.884652614593506 94.82082724571228,63.21988105773926 94.82082724571228,63.21988105773926 94.77626085281372,63.55537176132202 94.77626085281372,63.55537176132202 94.73138451576233,63.890546560287476 94.73138451576233,63.890546560287476 94.68599557876587,64.22473788261414 94.68599557876587,64.22473788261414 94.76540684700012,64.2453134059906 94.76540684700012,64.2453134059906 94.84481811523438,64.26718235015869 94.84481811523438,64.26718235015869 94.92422938346863,64.29008841514587 94.92422938346863,64.29008841514587 95.00364065170288,64.3134593963623 95.00364065170288,64.3134593963623" stroke="white" stroke-width="0.1" /><polygon points="92.11502075195312,66.93799495697021 92.11502075195312,66.93799495697021 92.03519225120544,66.8999433517456 92.03519225120544,66.8999433517456 91.95815920829773,66.85739159584045 91.95815920829773,66.85739159584045 91.88381433486938,66.81081056594849 91.88381433486938,66.81081056594849 91.81143045425415,66.76034927368164 91.81143045425415,66.76034927368164 91.7411208152771,66.70637726783752 91.7411208152771,66.70637726783752 91.79457426071167,66.75078272819519 91.79457426071167,66.75078272819519 91.8570339679718,66.79643988609314 91.8570339679718,66.79643988609314 91.93013906478882,66.84317588806152 91.93013906478882,66.84317588806152 92.01544523239136,66.89043045043945 92.01544523239136,66.89043045043945" stroke="white" stroke-width="0.1" /><polygon points="93.07458400726318,68.59241724014282 93.07458400726318,68.59241724014282 93.11325550079346,68.38458180427551 93.11325550079346,68.38458180427551 93.15989017486572,68.14939379692078 93.15989017486572,68.14939379692078 93.21087002754211,67.89776682853699 93.21087002754211,67.89776682853699 93.26298236846924,67.64029860496521 93.26298236846924,67.64029860496521 93.31282377243042,67.38799810409546 93.31282377243042,67.38799810409546 93.09629797935486,67.3394501209259 93.09629797935486,67.3394501209259 92.8728461265564,67.28231906890869 92.8728461265564,67.28231906890869 92.6322340965271,67.20647811889648 92.6322340965271,67.20647811889648 92.36421585083008,67.10168123245239 92.36421585083008,67.10168123245239 92.05876588821411,66.9578492641449 92.05876588821411,66.9578492641449 91.96187853813171,66.89043045043945 91.96187853813171,66.89043045043945 91.81618690490723,66.79984927177429 91.81618690490723,66.79984927177429 91.64288640022278,66.6629433631897 91.64288640022278,66.6629433631897 91.46296977996826,66.45634770393372 91.46296977996826,66.45634770393372 91.29773378372192,66.15710854530334 91.29773378372192,66.15710854530334 91.29742383956909,66.15390181541443 91.29742383956909,66.15390181541443 91.2964940071106,66.15193486213684 91.2964940071106,66.15193486213684 91.29566550254822,66.15095138549805 91.29566550254822,66.15095138549805 91.29483699798584,66.1505401134491 91.29483699798584,66.1505401134491 91.29442572593689,66.1504864692688 91.29442572593689,66.1504864692688 91.29442572593689,66.14387035369873 91.29442572593689,66.14387035369873 91.2485122680664,66.02227091789246 91.2485122680664,66.02227091789246 91.2065327167511,65.88733196258545 91.2065327167511,65.88733196258545 91.1695122718811,65.73843359947205 91.1695122718811,65.73843359947205 91.13777279853821,65.57485461235046 91.13777279853821,65.57485461235046 91.11243486404419,65.39607048034668 91.11243486404419,65.39607048034668 91.11243486404419,65.38945436477661 91.11243486404419,65.38945436477661 91.11243486404419,65.38945436477661 91.11243486404419,65.38945436477661 91.11243486404419,65.38945436477661 91.11243486404419,65.38945436477661 91.11243486404419,65.38945436477661 91.11243486404419,65.38945436477661 91.11243486404419,65.38945436477661 91.11243486404419,65.38945436477661 91.11243486404419,65.38945436477661 91.11243486404419,65.38945436477661 91.12794995307922,65.34307599067688 91.12794995307922,65.34307599067688 91.122567653656,65.2963936328888 91.122567653656,65.2963936328888 91.11347198486328,65.23321270942688 91.11347198486328,65.23321270942688 91.1175012588501,65.13725519180298 91.1175012588501,65.13725519180298 91.15214347839355,64.99239206314087 91.15214347839355,64.99239206314087 91.2295937538147,64.41592574119568 91.2295937538147,64.41592574119568 91.30703806877136,63.83817195892334 91.30703806877136,63.83817195892334 91.38438105583191,63.259488344192505 91.38438105583191,63.259488344192505 91.46183133125305,62.68012523651123 91.46183133125305,62.68012523651123 91.5392816066742,62.1004581451416 91.5392816066742,62.1004581451416 91.53710603713989,62.09467053413391 91.53710603713989,62.09467053413391 91.53783321380615,62.07646727561951 91.53783321380615,62.07646727561951 91.54031276702881,62.04472780227661 91.54031276702881,62.04472780227661 91.54331088066101,61.99798583984375 91.54331088066101,61.99798583984375 91.54589772224426,61.93501353263855 91.54589772224426,61.93501353263855 91.55023694038391,61.85420751571655 91.55023694038391,61.85420751571655 91.55541062355042,61.76357865333557 91.55541062355042,61.76357865333557 91.56150817871094,61.664414405822754 91.56150817871094,61.664414405822754 91.56813025474548,61.55785918235779 91.56813025474548,61.55785918235779 91.57567620277405,61.44530773162842 91.57567620277405,61.44530773162842 91.59035682678223,61.2263023853302 91.59035682678223,61.2263023853302 91.60804152488708,60.998713970184326 91.60804152488708,60.998713970184326 91.63099527359009,60.76347827911377 91.63099527359009,60.76347827911377 91.66129231452942,60.52162051200867 91.66129231452942,60.52162051200867 91.70141220092773,60.273975133895874 91.70141220092773,60.273975133895874 91.55561327934265,60.20035147666931 91.55561327934265,60.20035147666931 91.41488671302795,60.13117432594299 91.41488671302795,60.13117432594299 91.28367304801941,60.067689418792725 91.28367304801941,60.067689418792725 91.16589426994324,60.011231899261475 91.16589426994324,60.011231899261475 91.06611609458923,59.96294021606445 91.06611609458923,59.96294021606445 87.1734619140625,58.36358070373535 87.1734619140625,58.36358070373535 83.05146098136902,57.16603398323059 83.05146098136902,57.16603398323059 78.77746820449829,56.279778480529785 78.77746820449829,56.279778480529785 74.42829608917236,55.61434030532837 74.42829608917236,55.61434030532837 70.08140087127686,55.079084634780884 70.08140087127686,55.079084634780884 69.57504153251648,55.00582456588745 69.57504153251648,55.00582456588745 69.09112334251404,54.8963189125061 69.09112334251404,54.8963189125061 68.63377690315247,54.7494113445282 68.63377690315247,54.7494113445282 68.20693612098694,54.56365346908569 68.20693612098694,54.56365346908569 67.81483888626099,54.3379008769989 67.81483888626099,54.3379008769989 67.47340559959412,54.09744381904602 67.47340559959412,54.09744381904602 67.17395782470703,53.85793447494507 67.17395782470703,53.85793447494507 66.8958067893982,53.61558794975281 66.8958067893982,53.61558794975281 66.61786437034607,53.36657166481018 66.61786437034607,53.36657166481018 66.31923913955688,53.10701131820679 66.31923913955688,53.10701131820679 64.98556733131409,51.996010541915894 64.98556733131409,51.996010541915894 63.62500786781311,50.921595096588135 63.62500786781311,50.921595096588135 62.237876653671265,49.888432025909424 62.237876653671265,49.888432025909424 60.82407236099243,48.90133440494537 60.82407236099243,48.90133440494537 59.38389301300049,47.96505868434906 59.38389301300049,47.96505868434906 57.913678884506226,47.08304405212402 57.913678884506226,47.08304405212402 56.41668438911438,46.27571105957031 56.41668438911438,46.27571105957031 54.89818453788757,45.57317793369293 54.89818453788757,45.57317793369293 53.36308479309082,45.00565826892853 53.36308479309082,45.00565826892853 51.816558837890625,44.603270292282104 51.816558837890625,44.603270292282104 50.93495845794678,44.44553256034851 50.93495845794678,44.44553256034851 50.02771019935608,44.327861070632935 50.02771019935608,44.327861070632935 49.09880459308624,44.24736201763153 49.09880459308624,44.24736201763153 48.15185368061066,44.2011684179306 48.15185368061066,44.2011684179306 47.19078838825226,44.18635666370392 47.19078838825226,44.18635666370392 45.923447608947754,44.20884549617767 45.923447608947754,44.20884549617767 44.647836685180664,44.271066784858704 44.647836685180664,44.271066784858704 43.37170720100403,44.365060329437256 43.37170720100403,44.365060329437256 42.102402448654175,44.48283314704895 42.102402448654175,44.48283314704895 40.84772765636444,44.61650550365448 40.84772765636444,44.61650550365448 38.607171177864075,44.91181969642639 38.607171177864075,44.91181969642639 36.38678193092346,45.30337750911713 36.38678193092346,45.30337750911713 34.19642746448517,45.800116658210754 34.19642746448517,45.800116658210754 32.04593360424042,46.410804986953735 32.04593360424042,46.410804986953735 29.945072531700134,47.14446663856506 29.945072531700134,47.14446663856506 28.165069222450256,47.89174795150757 28.165069222450256,47.89174795150757 26.389718055725098,48.73271286487579 26.389718055725098,48.73271286487579 24.612192809581757,49.63884651660919 24.612192809581757,49.63884651660919 22.825001180171967,50.58145523071289 22.825001180171967,50.58145523071289 21.02111130952835,51.53200030326843 21.02111130952835,51.53200030326843 19.16138380765915,52.267879247665405 19.16138380765915,52.267879247665405 17.325283586978912,52.663880586624146 17.325283586978912,52.663880586624146 15.535041689872742,52.837544679641724 15.535041689872742,52.837544679641724 13.812527060508728,52.90638208389282 13.812527060508728,52.90638208389282 12.179869413375854,52.98789143562317 12.179869413375854,52.98789143562317 12.174699455499649,52.993398904800415 12.174699455499649,52.993398904800415 12.167151272296906,53.00174951553345 12.167151272296906,53.00174951553345 12.157224118709564,53.012704849243164 12.157224118709564,53.012704849243164 12.144971638917923,53.02581191062927 12.144971638917923,53.02581191062927 12.130236625671387,53.04083228111267 12.130236625671387,53.04083228111267 12.064886838197708,53.13221216201782 12.064886838197708,53.13221216201782 11.987542361021042,53.26836705207825 11.987542361021042,53.26836705207825 11.903993785381317,53.44492793083191 11.903993785381317,53.44492793083191 11.819515377283096,53.65731120109558 11.819515377283096,53.65731120109558 11.739792674779892,53.90113592147827 11.739792674779892,53.90113592147827 11.597098410129547,54.45893406867981 11.597098410129547,54.45893406867981 11.485424637794495,55.0631046295166 11.485424637794495,55.0631046295166 11.396809667348862,55.68222403526306 11.396809667348862,55.68222403526306 11.3231360912323,56.28479719161987 11.3231360912323,56.28479719161987 11.25670075416565,56.839388608932495 11.25670075416565,56.839388608932495 11.198330670595169,57.398587465286255 11.198330670595169,57.398587465286255 11.154229938983917,58.07586312294006 11.154229938983917,58.07586312294006 11.076885461807251,58.848220109939575 11.076885461807251,58.848220109939575 10.918474197387695,59.69234108924866 10.918474197387695,59.69234108924866 10.631328821182251,60.58500409126282 10.631328821182251,60.58500409126282 10.330947488546371,61.14683747291565 10.330947488546371,61.14683747291565 10.007455199956894,61.60123348236084 10.007455199956894,61.60123348236084 9.693166613578796,61.960142850875854 9.693166613578796,61.960142850875854 9.420548379421234,62.235087156295776 9.420548379421234,62.235087156295776 9.22175943851471,62.43796348571777 9.22175943851471,62.43796348571777 9.098245948553085,62.5889778137207 9.098245948553085,62.5889778137207 9.0347059071064,62.66637444496155 9.0347059071064,62.66637444496155 9.009579569101334,62.71388530731201 9.009579569101334,62.71388530731201 9.00089368224144,62.775254249572754 9.00089368224144,62.775254249572754 8.986830711364746,62.894582748413086 8.986830711364746,62.894582748413086 8.841241896152496,62.894582748413086 8.841241896152496,62.894582748413086 8.986830711364746,62.88134455680847 8.986830711364746,62.88134455680847 7.292700558900833,63.03355097770691 7.292700558900833,63.03355097770691 8.9901402592659,62.94752359390259 8.9901402592659,62.94752359390259 9.036670625209808,64.1884982585907 9.036670625209808,64.1884982585907 9.114842116832733,65.4373288154602 9.114842116832733,65.4373288154602 9.251590818166733,66.61641597747803 9.251590818166733,66.61641597747803 9.473438560962677,67.64768958091736 9.473438560962677,67.64768958091736 9.807424992322922,68.453449010849 9.807424992322922,68.453449010849 9.825313836336136,68.46534013748169 9.825313836336136,68.46534013748169 9.846924990415573,68.47723126411438 9.846924990415573,68.47723126411438 9.872309863567352,68.48922371864319 9.872309863567352,68.48922371864319 9.901055693626404,68.50111484527588 9.901055693626404,68.50111484527588 9.933161735534668,68.51300597190857 9.933161735534668,68.51300597190857 10.085678845643997,68.57033967971802 10.085678845643997,68.57033967971802 10.275420546531677,68.63496899604797 10.275420546531677,68.63496899604797 10.500267148017883,68.71267557144165 10.500267148017883,68.71267557144165 10.757529735565186,68.8090980052948 10.757529735565186,68.8090980052948 11.044934391975403,68.929922580719 11.044934391975403,68.929922580719 11.538935452699661,69.1577672958374 11.538935452699661,69.1577672958374 12.02869638800621,69.3885087966919 12.02869638800621,69.3885087966919 12.514631450176239,69.62177753448486 12.514631450176239,69.62177753448486 12.997257709503174,69.85727548599243 12.997257709503174,69.85727548599243 13.476938009262085,70.09463310241699 13.476938009262085,70.09463310241699 14.556190371513367,66.07955694198608 14.556190371513367,66.07955694198608 16.701513528823853,62.61399984359741 16.701513528823853,62.61399984359741 19.715459644794464,59.893351793289185 19.715459644794464,59.893351793289185 23.400534689426422,58.11288356781006 23.400534689426422,58.11288356781006 27.559393644332886,57.46806859970093 27.559393644332886,57.46806859970093 27.858224511146545,57.471948862075806 27.858224511146545,57.471948862075806 28.158709406852722,57.483118772506714 28.158709406852722,57.483118772506714 28.460022807121277,57.50100612640381 28.460022807121277,57.50100612640381 28.761228919029236,57.52483606338501 28.761228919029236,57.52483606338501 29.061612486839294,57.55410194396973 29.061612486839294,57.55410194396973 33.192965388298035,58.67440700531006 33.192965388298035,58.67440700531006 36.665549874305725,60.890865325927734 36.665549874305725,60.890865325927734 39.331138134002686,63.96411657333374 39.331138134002686,63.96411657333374 41.041553020477295,67.65446066856384 41.041553020477295,67.65446066856384 41.648468375205994,71.72259092330933 41.648468375205994,71.72259092330933 41.6405588388443,72.18323945999146 41.6405588388443,72.18323945999146 41.616880893707275,72.6442039012909 41.616880893707275,72.6442039012909 41.57779514789581,73.105788230896 41.57779514789581,73.105788230896 41.523146629333496,73.56835603713989 41.523146629333496,73.56835603713989 41.453248262405396,74.03216361999512 41.453248262405396,74.03216361999512 42.668163776397705,73.99318218231201 42.668163776397705,73.99318218231201 43.882665038108826,73.96345138549805 43.882665038108826,73.96345138549805 45.09623646736145,73.94261956214905 45.09623646736145,73.94261956214905 46.308207511901855,73.93036484718323 46.308207511901855,73.93036484718323 47.51836657524109,73.92628192901611 47.51836657524109,73.92628192901611 50.477975606918335,73.95037412643433 50.477975606918335,73.95037412643433 53.433966636657715,74.02048110961914 53.433966636657715,74.02048110961914 56.38819932937622,74.13355112075806 56.38819932937622,74.13355112075806 59.34258699417114,74.28632378578186 59.34258699417114,74.28632378578186 62.29898929595947,74.4755506515503 62.29898929595947,74.4755506515503 62.19765543937683,73.92767667770386 62.19765543937683,73.92767667770386 62.11969256401062,73.38011264801025 62.11969256401062,73.38011264801025 62.06468343734741,72.83317446708679 62.06468343734741,72.83317446708679 62.03190088272095,72.28716015815735 62.03190088272095,72.28716015815735 62.02104687690735,71.74243927001953 62.02104687690735,71.74243927001953 62.68664002418518,67.4862802028656 62.68664002418518,67.4862802028656 64.55428004264832,63.65923881530762 64.55428004264832,63.65923881530762 67.44859218597412,60.53485870361328 67.44859218597412,60.53485870361328 71.1936891078949,58.38658809661865 71.1936891078949,58.38658809661865 75.61379075050354,57.48792290687561 75.61379075050354,57.48792290687561 75.7123351097107,57.48399496078491 75.7123351097107,57.48399496078491 75.8133590221405,57.480430603027344 75.8133590221405,57.480430603027344 75.9171724319458,57.47748017311096 75.9171724319458,57.47748017311096 76.02367401123047,57.475411891937256 76.02367401123047,57.475411891937256 76.13328099250793,57.474690675735474 76.13328099250793,57.474690675735474 80.6636095046997,58.24233889579773 80.6636095046997,58.24233889579773 84.5478892326355,60.3282630443573 84.5478892326355,60.3282630443573 87.58044838905334,63.45444917678833 87.58044838905334,63.45444917678833 89.55479860305786,67.34302043914795 89.55479860305786,67.34302043914795 90.2653694152832,71.71596884727478 90.2653694152832,71.71596884727478 90.2594804763794,72.1098244190216 90.2594804763794,72.1098244190216 90.24179577827454,72.50492572784424 90.24179577827454,72.50492572784424 90.2125358581543,72.90095090866089 90.2125358581543,72.90095090866089 90.17179608345032,73.2976496219635 90.17179608345032,73.2976496219635 90.11978507041931,73.69466423988342 90.11978507041931,73.69466423988342 90.56378602981567,73.58241677284241 90.56378602981567,73.58241677284241 90.96364378929138,73.44003319740295 90.96364378929138,73.44003319740295 91.32006764411926,73.26110005378723 91.32006764411926,73.26110005378723 91.63410067558289,73.03925156593323 91.63410067558289,73.03925156593323 91.90655946731567,72.7681815624237 91.90655946731567,72.7681815624237 92.26278066635132,72.24879860877991 92.26278066635132,72.24879860877991 92.54072308540344,71.52416110038757 92.54072308540344,71.52416110038757 92.75735020637512,70.64173221588135 92.75735020637512,70.64173221588135 92.92961359024048,69.64866518974304 92.92961359024048,69.64866518974304" stroke="white" stroke-width="0.1" /><polygon points="86.08298897743225,70.47184109687805 86.08298897743225,70.47184109687805 86.12662553787231,70.7861840724945 86.12662553787231,70.7861840724945 86.16157174110413,71.10150456428528 86.16157174110413,71.10150456428528 86.18742227554321,71.41719460487366 86.18742227554321,71.41719460487366 86.2033486366272,71.73251509666443 86.2033486366272,71.73251509666443 86.20872497558594,72.04685807228088 86.20872497558594,72.04685807228088 85.73266267776489,75.07109045982361 85.73266267776489,75.07109045982361 84.41202044487,77.76464819908142 84.41202044487,77.76464819908142 82.37811326980591,79.9572765827179 82.37811326980591,79.9572765827179 79.76226210594177,81.47872686386108 79.76226210594177,81.47872686386108 76.69578790664673,82.15869665145874 76.69578790664673,82.15869665145874 76.59010887145996,82.16262459754944 76.59010887145996,82.16262459754944 76.48308873176575,82.1662425994873 76.48308873176575,82.1662425994873 76.37441754341125,82.1692407131195 76.37441754341125,82.1692407131195 76.26346349716187,82.1712076663971 76.26346349716187,82.1712076663971 76.14982724189758,82.17192888259888 76.14982724189758,82.17192888259888 73.30638766288757,81.75170421600342 73.30638766288757,81.75170421600342 70.76447010040283,80.58559894561768 70.76447010040283,80.58559894561768 68.64991188049316,78.79183888435364 68.64991188049316,78.79183888435364 67.08875298500061,76.48857235908508 67.08875298500061,76.48857235908508 66.20674133300781,73.79392981529236 66.20674133300781,73.79392981529236 66.0545289516449,73.79392981529236 66.0545289516449,73.79392981529236 66.0545289516449,72.09979891777039 66.0545289516449,72.09979891777039 66.0545289516449,70.3924298286438 66.0545289516449,70.3924298286438 66.2034273147583,70.3924298286438 66.2034273147583,70.3924298286438 67.02950596809387,67.80858039855957 67.02950596809387,67.80858039855957 68.48002076148987,65.57061076164246 68.48002076148987,65.57061076164246 70.44909596443176,63.78946900367737 70.44909596443176,63.78946900367737 72.83043265342712,62.5759482383728 72.83043265342712,62.5759482383728 75.51783919334412,62.04090118408203 75.51783919334412,62.04090118408203 75.6544291973114,62.02797293663025 75.6544291973114,62.02797293663025 75.7822334766388,62.02016472816467 75.7822334766388,62.02016472816467 75.90145468711853,62.016189098358154 75.90145468711853,62.016189098358154 76.01189017295837,62.01463341712952 76.01189017295837,62.01463341712952 76.11342668533325,62.01443076133728 76.11342668533325,62.01443076133728 78.94756197929382,62.43020296096802 78.94756197929382,62.43020296096802 81.49816393852234,63.590580224990845 81.49816393852234,63.590580224990845 83.62864851951599,65.38883447647095 83.62864851951599,65.38883447647095 85.20241975784302,67.7181601524353 85.20241975784302,67.7181601524353" stroke="white" stroke-width="0.1" /><polygon points="76.52372717857361,78.76381874084473 76.52372717857361,78.76381874084473 78.52144241333008,78.32508683204651 78.52144241333008,78.32508683204651 80.2500069141388,77.30761170387268 80.2500069141388,77.30761170387268 81.6077709197998,75.83781480789185 81.6077709197998,75.83781480789185 82.4928879737854,74.04208779335022 82.4928879737854,74.04208779335022 82.80392289161682,72.04685807228088 82.80392289161682,72.04685807228088 82.8007161617279,71.83974385261536 82.8007161617279,71.83974385261536 82.79089331626892,71.63200974464417 82.79089331626892,71.63200974464417 82.7746570110321,71.4245855808258 82.7746570110321,71.4245855808258 82.75149464607239,71.21845483779907 82.75149464607239,71.21845483779907 82.72119760513306,71.01449370384216 82.72119760513306,71.01449370384216 82.14742541313171,69.20931339263916 82.14742541313171,69.20931339263916 81.09759092330933,67.66676902770996 81.09759092330933,67.66676902770996 79.67395782470703,66.46705269813538 79.67395782470703,66.46705269813538 77.97858715057373,65.6900405883789 77.97858715057373,65.6900405883789 76.11342668533325,65.41592478752136 76.11342668533325,65.41592478752136 76.03753209114075,65.41664600372314 76.03753209114075,65.41664600372314 75.96732378005981,65.41866660118103 75.96732378005981,65.41866660118103 75.9002149105072,65.42166471481323 75.9002149105072,65.42166471481323 75.83393454551697,65.4252290725708 75.83393454551697,65.4252290725708 75.76600313186646,65.4291570186615 75.76600313186646,65.4291570186615 73.78007173538208,65.85605144500732 73.78007173538208,65.85605144500732 72.04540967941284,66.85289740562439 72.04540967941284,66.85289740562439 70.67275047302246,68.30330491065979 70.67275047302246,68.30330491065979 69.77274417877197,70.09101510047913 69.77274417877197,70.09101510047913 69.45602893829346,72.09979891777039 69.45602893829346,72.09979891777039 69.81131434440613,74.18038845062256 69.81131434440613,74.18038845062256 70.78494429588318,76.00687146186829 70.78494429588318,76.00687146186829 72.25034832954407,77.46018171310425 72.25034832954407,77.46018171310425 74.08076524734497,78.42103838920593 74.08076524734497,78.42103838920593 76.14982724189758,78.7704348564148 76.14982724189758,78.7704348564148 76.22272372245789,78.76976132392883 76.22272372245789,78.76976132392883 76.2976884841919,78.76811027526855 76.2976884841919,78.76811027526855 76.37358903884888,78.76619696617126 76.37358903884888,78.76619696617126 76.44927501678467,78.76448631286621 76.44927501678467,78.76448631286621" stroke="white" stroke-width="0.1" /><polygon points="99.19595122337341,42.201048135757446 99.19595122337341,42.201048135757446 99.71058368682861,43.37620437145233 99.71058368682861,43.37620437145233 99.96774196624756,44.617074728012085 99.96774196624756,44.617074728012085 99.96795058250427,45.879942178726196 99.96795058250427,45.879942178726196 99.71058368682861,47.1208393573761 99.71058368682861,47.1208393573761 99.19595122337341,48.295944929122925 99.19595122337341,48.295944929122925 97.17093706130981,51.89597010612488 97.17093706130981,51.89597010612488 96.61681056022644,51.51886343955994 96.61681056022644,51.51886343955994 96.07819318771362,51.1868953704834 96.07819318771362,51.1868953704834 95.56077122688293,50.895869731903076 95.56077122688293,50.895869731903076 95.07043957710266,50.64170956611633 95.07043957710266,50.64170956611633 94.61320042610168,50.42022466659546 94.61320042610168,50.42022466659546 94.42128539085388,50.32757520675659 94.42128539085388,50.32757520675659 92.66676902770996,49.52748119831085 92.66676902770996,49.52748119831085 90.89694619178772,48.81377816200256 90.89694619178772,48.81377816200256 89.11751508712769,48.179179430007935 89.11751508712769,48.179179430007935 87.33342289924622,47.61636555194855 87.33342289924622,47.61636555194855 85.55026650428772,47.11799621582031 85.55026650428772,47.11799621582031 86.59917116165161,45.24518549442291 86.59917116165161,45.24518549442291 68.22844743728638,12.487592548131943 68.22844743728638,12.487592548131943 31.7715585231781,12.487592548131943 31.7715585231781,12.487592548131943 14.883197844028473,42.60472655296326 14.883197844028473,42.60472655296326 14.749190211296082,42.60873198509216 14.749190211296082,42.60873198509216 14.616525173187256,42.61307716369629 14.616525173187256,42.61307716369629 14.484016597270966,42.6180899143219 14.484016597270966,42.6180899143219 14.350473880767822,42.624035477638245 14.350473880767822,42.624035477638245 14.214810729026794,42.63119697570801 14.214810729026794,42.63119697570801 12.35441118478775,42.908984422683716 12.35441118478775,42.908984422683716 10.561687499284744,43.50343942642212 10.561687499284744,43.50343942642212 8.885704725980759,44.3899005651474 8.885704725980759,44.3899005651474 7.37500861287117,45.54342329502106 7.37500861287117,45.54342329502106 6.078353524208069,46.939316391944885 6.078353524208069,46.939316391944885 6.0452651232481,46.98564112186432 6.0452651232481,46.98564112186432 6.012176722288132,47.03196585178375 6.012176722288132,47.03196585178375 5.184085667133331,48.25877249240875 5.184085667133331,48.25877249240875 4.531053826212883,49.48495924472809 4.531053826212883,49.48495924472809 4.030331969261169,50.686073303222656 4.030331969261169,50.686073303222656 3.6591723561286926,51.83759927749634 3.6591723561286926,51.83759927749634 3.3948779106140137,52.915096282958984 3.3948779106140137,52.915096282958984 0.7974323816597462,48.295944929122925 0.7974323816597462,48.295944929122925 0.28761127032339573,47.11825251579285 0.28761127032339573,47.11825251579285 0.032726573408581316,45.87707221508026 0.032726573408581316,45.87707221508026 0.032778276363387704,44.615188241004944 0.032778276363387704,44.615188241004944 0.28761127032339573,43.37555766105652 0.28761127032339573,43.37555766105652 0.7974323816597462,42.201048135757446 0.7974323816597462,42.201048135757446 22.682152688503265,3.2162003219127655 22.682152688503265,3.2162003219127655 23.454664647579193,2.12443545460701 23.454664647579193,2.12443545460701 24.424415826797485,1.232158113270998 24.424415826797485,1.232158113270998 25.552475452423096,0.5641585681587458 25.552475452423096,0.5641585681587458 26.800116896629333,0.14520155964419246 26.800116896629333,0.14520155964419246 28.128516674041748,0.0 28.128516674041748,0.0 71.87479734420776,0.0 71.87479734420776,0.0 73.19822907447815,0.14512400375679135 73.19822907447815,0.14512400375679135 74.44535493850708,0.563744967803359 74.44535493850708,0.563744967803359 75.57594776153564,1.2307621538639069 75.57594776153564,1.2307621538639069 76.54905915260315,2.121049165725708 76.54905915260315,2.121049165725708 77.32446789741516,3.209582343697548 77.32446789741516,3.209582343697548" stroke="white" stroke-width="0.1" /><polygon points="75.3987193107605,89.02786374092102 75.3987193107605,89.02786374092102 75.40533542633057,89.02786374092102 75.40533542633057,89.02786374092102 75.50501227378845,89.02719020843506 75.50501227378845,89.02719020843506 75.59890151023865,89.02553915977478 75.59890151023865,89.02553915977478 75.68938136100769,89.02362585067749 75.68938136100769,89.02362585067749 75.77851414680481,89.02196884155273 75.77851414680481,89.02196884155273 75.86857676506042,89.02124762535095 75.86857676506042,89.02124762535095 75.16927123069763,89.53049778938293 75.16927123069763,89.53049778938293 74.40896034240723,89.94089961051941 74.40896034240723,89.94089961051941 73.59890937805176,90.24438261985779 73.59890937805176,90.24438261985779 72.7504014968872,90.43247103691101 72.7504014968872,90.43247103691101 71.87479734420776,90.49699306488037 71.87479734420776,90.49699306488037 28.128516674041748,90.49699306488037 28.128516674041748,90.49699306488037 26.91313624382019,90.37414789199829 26.91313624382019,90.37414789199829 25.763827562332153,90.01948237419128 25.763827562332153,90.01948237419128 24.709442257881165,89.45356607437134 24.709442257881165,89.45356607437134 23.778466880321503,88.6969804763794 23.778466880321503,88.6969804763794 22.999802231788635,87.77050375938416 22.999802231788635,87.77050375938416 24.21988844871521,88.20628523826599 24.21988844871521,88.20628523826599 25.476062297821045,88.55655789375305 25.476062297821045,88.55655789375305 26.76537334918976,88.81547451019287 26.76537334918976,88.81547451019287 28.0850887298584,88.97672891616821 28.0850887298584,88.97672891616821 29.432201385498047,89.03447985649109 29.432201385498047,89.03447985649109 31.889021396636963,88.85321617126465 31.889021396636963,88.85321617126465 34.24130380153656,88.3482575416565 34.24130380153656,88.3482575416565 36.46645247936249,87.54218816757202 36.46645247936249,87.54218816757202 38.54151368141174,86.45750880241394 38.54151368141174,86.45750880241394 40.44404923915863,85.11680364608765 40.44404923915863,85.11680364608765 41.01648032665253,85.08371710777283 41.01648032665253,85.08371710777283 42.458516359329224,85.0193977355957 42.458516359329224,85.0193977355957 43.91580522060394,84.96935367584229 43.91580522060394,84.96935367584229 45.385295152664185,84.93368029594421 45.385295152664185,84.93368029594421 46.864041686058044,84.91222262382507 46.864041686058044,84.91222262382507 48.34888577461243,84.90504026412964 48.34888577461243,84.90504026412964 51.24097466468811,84.93130207061768 51.24097466468811,84.93130207061768 54.21666502952576,85.01030206680298 54.21666502952576,85.01030206680298 57.289499044418335,85.1423442363739 57.289499044418335,85.1423442363739 60.47312617301941,85.32774448394775 60.47312617301941,85.32774448394775 63.78135085105896,85.56680679321289 63.78135085105896,85.56680679321289 65.10488986968994,85.6726884841919 65.10488986968994,85.6726884841919 66.92537665367126,86.83099746704102 66.92537665367126,86.83099746704102 68.8841164112091,87.7618670463562 68.8841164112091,87.7618670463562 70.9620714187622,88.44912648200989 70.9620714187622,88.44912648200989 73.13981056213379,88.87653350830078 73.13981056213379,88.87653350830078" stroke="white" stroke-width="0.1" /><polygon points="27.704983949661255,37.83336877822876 27.704983949661255,37.83336877822876 26.010438799858093,38.53197395801544 26.010438799858093,38.53197395801544 24.38579648733139,39.27222490310669 24.38579648733139,39.27222490310669 22.831930220127106,40.03375172615051 22.831930220127106,40.03375172615051 21.349410712718964,40.79618155956268 21.349410712718964,40.79618155956268 19.9391171336174,41.539278626441956 19.9391171336174,41.539278626441956 19.61195468902588,41.71386957168579 19.61195468902588,41.71386957168579 19.285568594932556,41.8878436088562 19.285568594932556,41.8878436088562 18.96011233329773,42.060551047325134 18.96011233329773,42.060551047325134 18.635225296020508,42.23134219646454 18.635225296020508,42.23134219646454 18.311165273189545,42.39957630634308 18.311165273189545,42.39957630634308 18.274767696857452,42.39957630634308 18.274767696857452,42.39957630634308 32.12229609489441,17.735424637794495 32.12229609489441,17.735424637794495 32.627928256988525,17.023557424545288 32.627928256988525,17.023557424545288 33.26234817504883,16.44006222486496 33.26234817504883,16.44006222486496 34.000375866889954,16.002054512500763 34.000375866889954,16.002054512500763 34.8166286945343,15.726618468761444 34.8166286945343,15.726618468761444 35.68592369556427,15.630997717380524 35.68592369556427,15.630997717380524 64.317387342453,15.630997717380524 64.317387342453,15.630997717380524 65.18296003341675,15.726593136787415 65.18296003341675,15.726593136787415 65.99889993667603,16.002002358436584 65.99889993667603,16.002002358436584 66.73884391784668,16.44006222486496 66.73884391784668,16.44006222486496 67.37620830535889,17.023582756519318 67.37620830535889,17.023582756519318 67.88432598114014,17.735424637794495 67.88432598114014,17.735424637794495 82.19839930534363,43.25326085090637 82.19839930534363,43.25326085090637 82.47458338737488,43.85221302509308 82.47458338737488,43.85221302509308 82.64509439468384,44.48063671588898 82.64509439468384,44.48063671588898 82.71127343177795,45.12537121772766 82.71127343177795,45.12537121772766 82.67425298690796,45.77287137508392 82.67425298690796,45.77287137508392 82.5359046459198,46.40990197658539 82.5359046459198,46.40990197658539 80.73371648788452,46.052390336990356 80.73371648788452,46.052390336990356 78.95552515983582,45.73838710784912 78.95552515983582,45.73838710784912 77.20679640769958,45.46222686767578 77.20679640769958,45.46222686767578 75.49229860305786,45.2180951833725 75.49229860305786,45.2180951833725 73.8170862197876,45.00033259391785 73.8170862197876,45.00033259391785 61.931705474853516,23.81047010421753 61.931705474853516,23.81047010421753 38.07160556316376,23.81047010421753 38.07160556316376,23.81047010421753 30.798757076263428,36.77453696727753 30.798757076263428,36.77453696727753 30.169817805290222,36.97234392166138 30.169817805290222,36.97234392166138 29.545840620994568,37.176793813705444 29.545840620994568,37.176793813705444 28.92703413963318,37.38827705383301 28.92703413963318,37.38827705383301 28.31324338912964,37.606996297836304 28.31324338912964,37.606996297836304" stroke="white" stroke-width="0.1" /></svg>