<?xml version="1.0" encoding="utf-8" ?>
<svg baseProfile="full" height="100.0" version="1.1" width="88.98856043815613" xmlns="http://www.w3.org/2000/svg" xmlns:ev="http://www.w3.org/2001/xml-events" xmlns:xlink="http://www.w3.org/1999/xlink"><defs><clipPath /></defs><polygon points="5.3010765463113785,58.522093296051025 5.3010765463113785,58.522093296051025 4.905195161700249,58.922046422958374 4.905195161700249,58.922046422958374 4.519651457667351,59.311890602111816 4.519651457667351,59.311890602111816 4.144532233476639,59.69177484512329 4.144532233476639,59.69177484512329 3.7793997675180435,60.06183624267578 3.7793997675180435,60.06183624267578 3.4244295209646225,60.422247648239136 3.4244295209646225,60.422247648239136 3.079446032643318,60.77315807342529 3.079446032643318,60.77315807342529 2.1850120276212692,59.570443630218506 2.1850120276212692,59.570443630218506 1.4284662902355194,58.2696259021759 1.4284662902355194,58.2696259021759 0.8206716738641262,56.88144564628601 0.8206716738641262,56.88144564628601 0.37257864605635405,55.41662573814392 0.37257864605635405,55.41662573814392 0.09531285031698644,53.8859486579895 0.09531285031698644,53.8859486579895 0.0,52.30012536048889 0.0,52.30012536048889 0.0,13.263905048370361 0.0,13.263905048370361 0.47673946246504784,9.744194895029068 0.47673946246504784,9.744194895029068 1.8179524689912796,6.578240543603897 1.8179524689912796,6.578240543603897 3.895912691950798,3.8934599608182907 3.895912691950798,3.8934599608182907 6.582456082105637,1.817229762673378 6.582456082105637,1.817229762673378 9.750118851661682,0.4769365768879652 9.750118851661682,0.4769365768879652 13.270913064479828,0.0 13.270913064479828,0.0 75.71484446525574,0.002803319148370065 75.71484446525574,0.002803319148370065 79.2352020740509,0.4785572178661823 79.2352020740509,0.4785572178661823 82.40207433700562,1.818051002919674 82.40207433700562,1.818051002919674 85.08809208869934,3.893810138106346 85.08809208869934,3.893810138106346 87.16596961021423,6.578350067138672 87.16596961021423,6.578350067138672 88.50858211517334,9.744206070899963 88.50858211517334,9.744206070899963 88.98856043815613,13.263905048370361 88.98856043815613,13.263905048370361 88.98856043815613,52.30012536048889 88.98856043815613,52.30012536048889 88.89272212982178,53.87451648712158 88.89272212982178,53.87451648712158 88.61852288246155,55.39483428001404 88.61852288246155,55.39483428001404 88.17647695541382,56.850433349609375 88.17647695541382,56.850433349609375 87.57691383361816,58.230698108673096 87.57691383361816,58.230698108673096 86.83070540428162,59.52500104904175 86.83070540428162,59.52500104904175 85.94836592674255,60.72269678115845 85.94836592674255,60.72269678115845 83.70851278305054,58.49125385284424 83.70851278305054,58.49125385284424 84.33294892311096,57.59754180908203 84.33294892311096,57.59754180908203 84.86102819442749,56.63944482803345 84.86102819442749,56.63944482803345 85.28572916984558,55.62381148338318 85.28572916984558,55.62381148338318 85.59882640838623,54.557472467422485 85.59882640838623,54.557472467422485 85.79277992248535,53.44729423522949 85.79277992248535,53.44729423522949 85.86006164550781,52.30012536048889 85.86006164550781,52.30012536048889 85.86006164550781,13.263905048370361 85.86006164550781,13.263905048370361 85.49370169639587,10.575871914625168 85.49370169639587,10.575871914625168 84.46593284606934,8.155786246061325 84.46593284606934,8.155786246061325 82.87575244903564,6.101774424314499 82.87575244903564,6.101774424314499 80.82126975059509,4.511942341923714 80.82126975059509,4.511942341923714 78.40156555175781,3.48440520465374 78.40156555175781,3.48440520465374 75.71484446525574,3.117290884256363 75.71484446525574,3.117290884256363 13.270913064479828,3.1158892437815666 13.270913064479828,3.1158892437815666 10.586033761501312,3.4835949540138245 10.586033761501312,3.4835949540138245 8.166681975126266,4.5115262269973755 8.166681975126266,4.5115262269973755 6.111936643719673,6.101599335670471 6.111936643719673,6.101599335670471 4.520527273416519,8.155742287635803 4.520527273416519,8.155742287635803 3.4916214644908905,10.575871914625168 3.4916214644908905,10.575871914625168 3.1242992728948593,13.263905048370361 3.1242992728948593,13.263905048370361 3.1242992728948593,52.30012536048889 3.1242992728948593,52.30012536048889 3.1922798603773117,53.45414876937866 3.1922798603773117,53.45414876937866 3.388512134552002,54.570746421813965 3.388512134552002,54.570746421813965 3.7054624408483505,55.642908811569214 3.7054624408483505,55.642908811569214 4.1348956525325775,56.66354298591614 4.1348956525325775,56.66354298591614 4.669453576207161,57.62562155723572 4.669453576207161,57.62562155723572" stroke="white" stroke-width="0.1" /><polygon points="57.343292236328125,13.6325404047966 57.343292236328125,13.6325404047966 57.93830156326294,14.276078343391418 57.93830156326294,14.276078343391418 58.49177837371826,14.954306185245514 58.49177837371826,14.954306185245514 59.003037214279175,15.66617339849472 59.003037214279175,15.66617339849472 59.47083830833435,16.41063094139099 59.47083830833435,16.41063094139099 59.89440083503723,17.1866238117218 59.89440083503723,17.1866238117218 60.272765159606934,17.993104457855225 60.272765159606934,17.993104457855225 60.60329079627991,18.832457065582275 60.60329079627991,18.832457065582275 60.874247550964355,19.6927472949028 60.874247550964355,19.6927472949028 61.08537316322327,20.57250738143921 61.08537316322327,20.57250738143921 61.2362265586853,21.470248699188232 61.2362265586853,21.470248699188232 61.327338218688965,22.384513914585114 61.327338218688965,22.384513914585114 61.35764718055725,23.31380397081375 61.35764718055725,23.31380397081375 61.327338218688965,24.242709577083588 61.327338218688965,24.242709577083588 61.23649477958679,25.157028436660767 61.23649477958679,25.157028436660767 61.08537316322327,26.055100560188293 61.08537316322327,26.055100560188293 60.87416410446167,26.935166120529175 60.87416410446167,26.935166120529175 60.60320734977722,27.795544266700745 60.60320734977722,27.795544266700745 60.272765159606934,28.634503483772278 60.272765159606934,28.634503483772278 59.89238619804382,29.442954063415527 59.89238619804382,29.442954063415527 59.46505665779114,30.21915555000305 59.46505665779114,30.21915555000305 58.991819620132446,30.961960554122925 58.991819620132446,30.961960554122925 58.473122119903564,31.670179963111877 58.473122119903564,31.670179963111877 57.91044235229492,32.34266936779022 57.91044235229492,32.34266936779022 57.30404853820801,32.97824561595917 57.30404853820801,32.97824561595917 56.66226148605347,33.57301950454712 56.66226148605347,33.57301950454712 55.9847354888916,34.12620425224304 55.9847354888916,34.12620425224304 55.272871255874634,34.63711142539978 55.272871255874634,34.63711142539978 54.52762246131897,35.10502278804779 54.52762246131897,35.10502278804779 53.7503182888031,35.52926778793335 53.7503182888031,35.52926778793335 52.94208526611328,35.90911626815796 52.94208526611328,35.90911626815796 52.26745009422302,36.17948293685913 52.26745009422302,36.17948293685913 51.58107280731201,36.41153573989868 51.58107280731201,36.41153573989868 50.88374614715576,36.60503923892975 50.88374614715576,36.60503923892975 50.175994634628296,36.75976097583771 50.175994634628296,36.75976097583771 49.45887327194214,36.87548339366913 49.45887327194214,36.87548339366913 48.732900619506836,36.95195019245148 48.732900619506836,36.95195019245148 48.732900619506836,42.24882423877716 48.732900619506836,42.24882423877716 48.69540631771088,42.52947270870209 48.69540631771088,42.52947270870209 48.589491844177246,42.78160631656647 48.589491844177246,42.78160631656647 48.425060510635376,42.99520552158356 48.425060510635376,42.99520552158356 48.21174442768097,43.16020905971527 48.21174442768097,43.16020905971527 47.95979857444763,43.26658248901367 47.95979857444763,43.26658248901367 47.67885208129883,43.30427348613739 47.67885208129883,43.30427348613739 41.36577844619751,43.30427348613739 41.36577844619751,43.30427348613739 41.08544588088989,43.26658248901367 41.08544588088989,43.26658248901367 40.833672881126404,43.16020905971527 40.833672881126404,43.16020905971527 40.620794892311096,42.99520552158356 40.620794892311096,42.99520552158356 40.456363558769226,42.78160631656647 40.456363558769226,42.78160631656647 40.35053849220276,42.52946078777313 40.35053849220276,42.52946078777313 40.313130617141724,42.24882423877716 40.313130617141724,42.24882423877716 40.313130617141724,29.62547540664673 40.313130617141724,29.62547540664673 40.35062491893768,29.34434413909912 40.35062491893768,29.34434413909912 40.45644998550415,29.09206748008728 40.45644998550415,29.09206748008728 40.620794892311096,28.87856662273407 40.620794892311096,28.87856662273407 40.833672881126404,28.713762760162354 40.833672881126404,28.713762760162354 41.085270047187805,28.607618808746338 41.085270047187805,28.607618808746338 41.36577844619751,28.5700261592865 41.36577844619751,28.5700261592865 47.67885208129883,28.5700261592865 47.67885208129883,28.5700261592865 48.04214537143707,28.55859398841858 48.04214537143707,28.55859398841858 48.39702844619751,28.5243421792984 48.39702844619751,28.5243421792984 48.74288737773895,28.46735417842865 48.74288737773895,28.46735417842865 49.078935384750366,28.387701511383057 49.078935384750366,28.387701511383057 49.404820799827576,28.285467624664307 49.404820799827576,28.285467624664307 49.71966743469238,28.160741925239563 49.71966743469238,28.160741925239563 50.02707242965698,28.014180064201355 50.02707242965698,28.014180064201355 50.322383642196655,27.849310636520386 50.322383642196655,27.849310636520386 50.605517625808716,27.666306495666504 50.605517625808716,27.666306495666504 50.87577700614929,27.46531069278717 50.87577700614929,27.46531069278717 51.13341808319092,27.246487140655518 51.13341808319092,27.246487140655518 51.377832889556885,27.009978890419006 51.377832889556885,27.009978890419006 51.610857248306274,26.754242181777954 51.610857248306274,26.754242181777954 51.82750225067139,26.486217975616455 51.82750225067139,26.486217975616455 52.02749967575073,26.206302642822266 52.02749967575073,26.206302642822266 52.21059322357178,25.914812088012695 52.21059322357178,25.914812088012695 52.376776933670044,25.612109899520874 52.376776933670044,25.612109899520874 52.52578854560852,25.298553705215454 52.52578854560852,25.298553705215454 52.65114903450012,24.984800815582275 52.65114903450012,24.984800815582275 52.75373458862305,24.663448333740234 52.75373458862305,24.663448333740234 52.83362865447998,24.335087835788727 52.83362865447998,24.335087835788727 52.890658378601074,24.00031089782715 52.890658378601074,24.00031089782715 52.92491316795349,23.659685254096985 52.92491316795349,23.659685254096985 52.93647646903992,23.31380397081375 52.93647646903992,23.31380397081375 52.92508602142334,22.95113503932953 52.92508602142334,22.95113503932953 52.890920639038086,22.596679627895355 52.890920639038086,22.596679627895355 52.833980321884155,22.251170873641968 52.833980321884155,22.251170873641968 52.7544379234314,21.915364265441895 52.7544379234314,21.915364265441895 52.65263915061951,21.589981019496918 52.65263915061951,21.589981019496918 52.52859592437744,21.27579003572464 52.52859592437744,21.27579003572464 52.37923264503479,20.96363604068756 52.37923264503479,20.96363604068756 52.21155881881714,20.662377774715424 52.21155881881714,20.662377774715424 52.02592611312866,20.3724205493927 52.02592611312866,20.3724205493927 51.822155714035034,20.094136893749237 51.822155714035034,20.094136893749237 51.601046323776245,19.82792019844055 51.601046323776245,19.82792019844055 51.36241316795349,19.574175775051117 51.36241316795349,19.574175775051117 51.108187437057495,19.33547705411911 51.108187437057495,19.33547705411911 50.841957330703735,19.11432147026062 50.841957330703735,19.11432147026062 50.5639910697937,18.91101598739624 50.5639910697937,18.91101598739624 50.27464032173157,18.725799024105072 50.27464032173157,18.725799024105072 49.97433125972748,18.558980524539948 49.97433125972748,18.558980524539948 49.66360330581665,18.41079890727997 49.66360330581665,18.41079890727997 49.34998154640198,18.28548163175583 49.34998154640198,18.28548163175583 49.02873933315277,18.182842433452606 49.02873933315277,18.182842433452606 48.70066046714783,18.10295879840851 48.70066046714783,18.10295879840851 48.36584031581879,18.04584115743637 48.36584031581879,18.04584115743637 48.02514910697937,18.01154464483261 48.02514910697937,18.01154464483261 47.67885208129883,18.00011247396469 47.67885208129883,18.00011247396469 41.36577844619751,18.00011247396469 41.36577844619751,18.00011247396469 41.00055694580078,18.011675775051117 41.00055694580078,18.011675775051117 40.64234495162964,18.046312034130096 40.64234495162964,18.046312034130096 40.29175639152527,18.104010820388794 40.29175639152527,18.104010820388794 39.949312806129456,18.184715509414673 39.949312806129456,18.184715509414673 39.61554169654846,18.288394808769226 39.61554169654846,18.288394808769226 39.291322231292725,18.415004014968872 39.291322231292725,18.415004014968872 38.973671197891235,18.562352657318115 38.973671197891235,18.562352657318115 38.66986036300659,18.726687133312225 38.66986036300659,18.726687133312225 38.38024139404297,18.907687067985535 38.38024139404297,18.907687067985535 38.104990124702454,19.105036556720734 38.104990124702454,19.105036556720734 37.84472048282623,19.318416714668274 37.84472048282623,19.318416714668274 37.59951889514923,19.547544419765472 37.59951889514923,19.547544419765472 37.37034797668457,19.7928786277771 37.37034797668457,19.7928786277771 37.15711832046509,20.053434371948242 37.15711832046509,20.053434371948242 36.95983588695526,20.328794419765472 36.95983588695526,20.328794419765472 36.77884638309479,20.618510246276855 36.77884638309479,20.618510246276855 36.615025997161865,20.922178030014038 36.615025997161865,20.922178030014038 36.46837770938873,21.239347755908966 36.46837770938873,21.239347755908966 36.342403292655945,21.563152968883514 36.342403292655945,21.563152968883514 36.239030957221985,21.896463632583618 36.239030957221985,21.896463632583618 36.15861237049103,22.238731384277344 36.15861237049103,22.238731384277344 36.10088229179382,22.589407861232758 36.10088229179382,22.589407861232758 36.066365242004395,22.94793725013733 36.066365242004395,22.94793725013733 36.05488836765289,23.31380397081375 36.05488836765289,23.31380397081375 36.045777797698975,23.452655971050262 36.045777797698975,23.452655971050262 36.018797755241394,23.587751388549805 36.018797755241394,23.587751388549805 35.97481846809387,23.71748238801956 35.97481846809387,23.71748238801956 35.91411113739014,23.840203881263733 35.91411113739014,23.840203881263733 35.837894678115845,23.95428568124771 35.837894678115845,23.95428568124771 35.74652373790741,24.058084189891815 35.74652373790741,24.058084189891815 35.64157485961914,24.149860441684723 35.64157485961914,24.149860441684723 35.526639223098755,24.22696352005005 35.526639223098755,24.22696352005005 35.4036420583725,24.28848296403885 35.4036420583725,24.28848296403885 35.27381420135498,24.33353364467621 35.27381420135498,24.33353364467621 35.138991475105286,24.361225962638855 35.138991475105286,24.361225962638855 35.000839829444885,24.370655417442322 35.000839829444885,24.370655417442322 28.687766194343567,24.370655417442322 28.687766194343567,24.370655417442322 28.4072607755661,24.332864582538605 28.4072607755661,24.332864582538605 28.155311942100525,24.226228892803192 28.155311942100525,24.226228892803192 27.942082285881042,24.060888588428497 27.942082285881042,24.060888588428497 27.777302265167236,23.846949636936188 27.777302265167236,23.846949636936188 27.67121195793152,23.594552278518677 27.67121195793152,23.594552278518677 27.63371765613556,23.31380397081375 27.63371765613556,23.31380397081375 27.664029598236084,22.38520383834839 27.664029598236084,22.38520383834839 27.754873037338257,21.471497416496277 27.754873037338257,21.471497416496277 27.905815839767456,20.574085414409637 27.905815839767456,20.574085414409637 28.116503357887268,19.69430297613144 28.116503357887268,19.69430297613144 28.38711142539978,18.833519518375397 28.38711142539978,18.833519518375397 28.717201948165894,17.993104457855225 28.717201948165894,17.993104457855225 29.095998406410217,17.1866238117218 29.095998406410217,17.1866238117218 29.519563913345337,16.41063094139099 29.519563913345337,16.41063094139099 29.987281560897827,15.66617339849472 29.987281560897827,15.66617339849472 30.497834086418152,14.954306185245514 30.497834086418152,14.954306185245514 31.050965189933777,14.276078343391418 31.050965189933777,14.276078343391418 31.645268201828003,13.6325404047966 31.645268201828003,13.6325404047966 32.28302299976349,13.025709986686707 32.28302299976349,13.025709986686707 32.958972454071045,12.462878227233887 32.958972454071045,12.462878227233887 33.67224335670471,11.944592744112015 33.67224335670471,11.944592744112015 34.42142903804779,11.47138997912407 34.42142903804779,11.47138997912407 35.20583510398865,11.043818295001984 35.20583510398865,11.043818295001984 36.024051904678345,10.662424564361572 36.024051904678345,10.662424564361572 36.87091767787933,10.334064066410065 36.87091767787933,10.334064066410065 37.73696720600128,10.064178705215454 37.73696720600128,10.064178705215454 38.62080276012421,9.853316098451614 38.62080276012421,9.853316098451614 39.520931243896484,9.70202460885048 39.520931243896484,9.70202460885048 40.43647646903992,9.610851109027863 40.43647646903992,9.610851109027863 41.36577844619751,9.580343216657639 41.36577844619751,9.580343216657639 47.67885208129883,9.580343216657639 47.67885208129883,9.580343216657639 48.60701262950897,9.610862284898758 48.60701262950897,9.610862284898758 49.52045679092407,9.702079743146896 49.52045679092407,9.702079743146896 50.41804313659668,9.853491932153702 50.41804313659668,9.853491932153702 51.29784941673279,10.064584016799927 51.29784941673279,10.064584016799927 52.15890407562256,10.33487394452095 52.15890407562256,10.33487394452095 52.999550104141235,10.663826018571854 52.999550104141235,10.663826018571854 53.808486461639404,11.045997589826584 53.808486461639404,11.045997589826584 54.58483099937439,11.474291980266571 54.58483099937439,11.474291980266571 55.327534675598145,11.94792166352272 55.327534675598145,11.94792166352272 56.035369634628296,12.4660424888134 56.035369634628296,12.4660424888134 56.70764446258545,13.02785575389862 56.70764446258545,13.02785575389862" stroke="white" stroke-width="0.1" /><polygon points="47.67885208129883,47.56251573562622 47.67885208129883,47.56251573562622 47.959885001182556,47.60020673274994 47.959885001182556,47.60020673274994 48.21183383464813,47.7065771818161 48.21183383464813,47.7065771818161 48.425060510635376,47.871580719947815 48.425060510635376,47.871580719947815 48.58940541744232,48.08516800403595 48.58940541744232,48.08516800403595 48.69531691074371,48.337313532829285 48.69531691074371,48.337313532829285 48.732900619506836,48.61796498298645 48.732900619506836,48.61796498298645 48.732900619506836,54.9268364906311 48.732900619506836,54.9268364906311 48.69540631771088,55.207473039627075 48.69540631771088,55.207473039627075 48.589491844177246,55.45961856842041 48.589491844177246,55.45961856842041 48.425060510635376,55.6732177734375 48.425060510635376,55.6732177734375 48.21174442768097,55.838221311569214 48.21174442768097,55.838221311569214 47.95979857444763,55.944591760635376 47.95979857444763,55.944591760635376 47.67885208129883,55.98228573799133 47.67885208129883,55.98228573799133 41.36577844619751,55.98228573799133 41.36577844619751,55.98228573799133 41.08544588088989,55.944591760635376 41.08544588088989,55.944591760635376 40.833672881126404,55.838221311569214 40.833672881126404,55.838221311569214 40.620794892311096,55.6732177734375 40.620794892311096,55.6732177734375 40.456363558769226,55.45961856842041 40.456363558769226,55.45961856842041 40.35053849220276,55.207473039627075 40.35053849220276,55.207473039627075 40.313130617141724,54.9268364906311 40.313130617141724,54.9268364906311 40.313130617141724,48.61796498298645 40.313130617141724,48.61796498298645 40.35062491893768,48.33732545375824 40.35062491893768,48.33732545375824 40.45644998550415,48.085179924964905 40.45644998550415,48.085179924964905 40.620794892311096,47.871580719947815 40.620794892311096,47.871580719947815 40.833672881126404,47.706568241119385 40.833672881126404,47.706568241119385 41.085270047187805,47.60020673274994 41.085270047187805,47.60020673274994 41.36577844619751,47.56251573562622 41.36577844619751,47.56251573562622" stroke="white" stroke-width="0.1" /><polygon points="66.40502214431763,98.12037348747253 66.40502214431763,98.12037348747253 66.0665214061737,98.45396876335144 66.0665214061737,98.45396876335144 65.72346687316895,98.7739622592926 65.72346687316895,98.7739622592926 65.36709666252136,99.07262921333313 65.36709666252136,99.07262921333313 64.98803496360779,99.34218525886536 64.98803496360779,99.34218525886536 64.57787156105042,99.57494735717773 64.57787156105042,99.57494735717773 64.12732601165771,99.76311922073364 64.12732601165771,99.76311922073364 63.89281153678894,99.83664155006409 63.89281153678894,99.83664155006409 63.65777254104614,99.89616870880127 63.65777254104614,99.89616870880127 63.42264413833618,99.94200468063354 63.42264413833618,99.94200468063354 63.18751573562622,99.97439980506897 63.18751573562622,99.97439980506897 62.95326352119446,99.99365210533142 62.95326352119446,99.99365210533142 62.72006034851074,100.0 62.72006034851074,100.0 61.574727296829224,99.8461663722992 61.574727296829224,99.8461663722992 60.52015423774719,99.40986037254333 60.52015423774719,99.40986037254333 59.60872769355774,98.72887134552002 59.60872769355774,98.72887134552002 58.89265537261963,97.84100651741028 58.89265537261963,97.84100651741028 58.42476487159729,96.78413271903992 58.42476487159729,96.78413271903992 58.257174491882324,95.59598565101624 58.257174491882324,95.59598565101624 58.257174491882324,85.456383228302 58.257174491882324,85.456383228302 38.8750284910202,85.456383228302 38.8750284910202,85.456383228302 38.87275159358978,85.45629382133484 38.87275159358978,85.45629382133484 38.870471715927124,85.45603156089783 38.870471715927124,85.45603156089783 38.86801898479462,85.45567989349365 38.86801898479462,85.45567989349365 38.865479826927185,85.45532822608948 38.865479826927185,85.45532822608948 38.8631135225296,85.45506596565247 38.8631135225296,85.45506596565247 38.86101245880127,85.4549765586853 38.86101245880127,85.4549765586853 30.731385946273804,85.4549765586853 30.731385946273804,85.4549765586853 30.731385946273804,95.62541842460632 30.731385946273804,95.62541842460632 30.555739998817444,96.85848951339722 30.555739998817444,96.85848951339722 30.068838596343994,97.92289733886719 30.068838596343994,97.92289733886719 29.331126809120178,98.79387021064758 29.331126809120178,98.79387021064758 28.402617573738098,99.44665431976318 28.402617573738098,99.44665431976318 27.343925833702087,99.85648393630981 27.343925833702087,99.85648393630981 26.215240359306335,99.99859929084778 26.215240359306335,99.99859929084778 25.67560076713562,99.96570348739624 25.67560076713562,99.96570348739624 25.14016628265381,99.86522197723389 25.14016628265381,99.86522197723389 24.615244567394257,99.69461560249329 24.615244567394257,99.69461560249329 24.106967449188232,99.45120811462402 24.106967449188232,99.45120811462402 23.62208068370819,99.13246035575867 23.62208068370819,99.13246035575867 23.166629672050476,98.73570203781128 23.166629672050476,98.73570203781128 21.564532816410065,97.13754653930664 21.564532816410065,97.13754653930664 18.02595555782318,93.61014366149902 18.02595555782318,93.61014366149902 13.424395024776459,89.0237808227539 13.424395024776459,89.0237808227539 8.632996678352356,84.2487633228302 8.632996678352356,84.2487633228302 4.525433108210564,80.15543818473816 4.525433108210564,80.15543818473816 1.9749382510781288,77.61409282684326 1.9749382510781288,77.61409282684326 1.4456366188824177,77.05028057098389 1.4456366188824177,77.05028057098389 0.9726641699671745,76.45663022994995 0.9726641699671745,76.45663022994995 0.5738043691962957,75.83171129226685 0.5738043691962957,75.83171129226685 0.2667533466592431,75.17393827438354 0.2667533466592431,75.17393827438354 0.06955735734663904,74.48186874389648 0.06955735734663904,74.48186874389648 0.0,73.75392317771912 0.0,73.75392317771912 0.006482675235019997,73.53062033653259 0.006482675235019997,73.53062033653259 0.026281116879545152,73.30372929573059 0.026281116879545152,73.30372929573059 0.05974574014544487,73.07341694831848 0.05974574014544487,73.07341694831848 0.1072269631549716,72.83982634544373 0.1072269631549716,72.83982634544373 0.16942559741437435,72.60314226150513 0.16942559741437435,72.60314226150513 0.24669207632541656,72.36347794532776 0.24669207632541656,72.36347794532776 1.9197480753064156,70.37562727928162 1.9197480753064156,70.37562727928162 5.810930207371712,66.30592346191406 5.810930207371712,66.30592346191406 10.871621966362,61.16807460784912 10.871621966362,61.16807460784912 16.052857041358948,55.97577691078186 16.052857041358948,55.97577691078186 20.30636817216873,51.742786169052124 20.30636817216873,51.742786169052124 22.58353978395462,49.482786655426025 22.58353978395462,49.482786655426025 22.92204052209854,49.149203300476074 22.92204052209854,49.149203300476074 23.265008628368378,48.82919788360596 23.265008628368378,48.82919788360596 23.621468245983124,48.53053689002991 23.621468245983124,48.53053689002991 24.000266194343567,48.26095700263977 24.000266194343567,48.26095700263977 24.41060245037079,48.02820384502411 24.41060245037079,48.02820384502411 24.861235916614532,47.840043902397156 24.861235916614532,47.840043902397156 25.095751881599426,47.76653349399567 25.095751881599426,47.76653349399567 25.330790877342224,47.70699441432953 25.330790877342224,47.70699441432953 25.565919280052185,47.661155462265015 25.565919280052185,47.661155462265015 25.80069899559021,47.62874245643616 25.80069899559021,47.62874245643616 26.03512704372406,47.609513998031616 26.03512704372406,47.609513998031616 26.268503069877625,47.6031631231308 26.268503069877625,47.6031631231308 27.413833141326904,47.75700569152832 27.413833141326904,47.75700569152832 28.46831977367401,48.19331467151642 28.46831977367401,48.19331467151642 29.379835724830627,48.87429177761078 29.379835724830627,48.87429177761078 30.095645785331726,49.762123823165894 30.095645785331726,49.762123823165894 30.563625693321228,50.81902742385864 30.563625693321228,50.81902742385864 30.731385946273804,52.007174491882324 30.731385946273804,52.007174491882324 30.731385946273804,62.146782875061035 30.731385946273804,62.146782875061035 50.113534927368164,62.146782875061035 50.113534927368164,62.146782875061035 50.115811824798584,62.14689016342163 50.115811824798584,62.14689016342163 50.118088722229004,62.147146463394165 50.118088722229004,62.147146463394165 50.12054443359375,62.14748024940491 50.12054443359375,62.14748024940491 50.12282133102417,62.14781403541565 50.12282133102417,62.14781403541565 50.12527108192444,62.14807629585266 50.12527108192444,62.14807629585266 50.127553939819336,62.14818358421326 50.127553939819336,62.14818358421326 58.257174491882324,62.14818358421326 58.257174491882324,62.14818358421326 58.257174491882324,51.977741718292236 58.257174491882324,51.977741718292236 58.432912826538086,50.74456334114075 58.432912826538086,50.74456334114075 58.91963839530945,49.679896235466 58.91963839530945,49.679896235466 59.65743660926819,48.808589577674866 59.65743660926819,48.808589577674866 60.58568358421326,48.15545976161957 60.58568358421326,48.15545976161957 61.64437532424927,47.74537682533264 61.64437532424927,47.74537682533264 62.77332305908203,47.6031631231308 62.77332305908203,47.6031631231308 63.312965631484985,47.63617813587189 63.312965631484985,47.63617813587189 63.84839415550232,47.736889123916626 63.84839415550232,47.736889123916626 64.37332034111023,47.9078471660614 64.37332034111023,47.9078471660614 64.88133072853088,48.15156161785126 64.88133072853088,48.15156161785126 65.36630392074585,48.4705924987793 65.36630392074585,48.4705924987793 65.82193374633789,48.86745810508728 65.82193374633789,48.86745810508728 67.42402911186218,50.465601682662964 67.42402911186218,50.465601682662964 70.96251845359802,53.993022441864014 70.96251845359802,53.993022441864014 75.56416988372803,58.57938528060913 75.56416988372803,58.57938528060913 80.355304479599,63.35437893867493 80.355304479599,63.35437893867493 84.46295261383057,67.44771599769592 84.46295261383057,67.44771599769592 87.01362609863281,69.9890673160553 87.01362609863281,69.9890673160553 87.54292726516724,70.55290937423706 87.54292726516724,70.55290937423706 88.01581263542175,71.14651799201965 88.01581263542175,71.14651799201965 88.4147584438324,71.77145481109619 88.4147584438324,71.77145481109619 88.72154951095581,72.42919206619263 88.72154951095581,72.42919206619263 88.9188289642334,73.1212854385376 88.9188289642334,73.1212854385376 88.98856043815613,73.84923696517944 88.98856043815613,73.84923696517944 88.98208141326904,74.07253980636597 88.98208141326904,74.07253980636597 88.96228075027466,74.29943084716797 88.96228075027466,74.29943084716797 88.92881870269775,74.52974319458008 88.92881870269775,74.52974319458008 88.88107538223267,74.7633159160614 88.88107538223267,74.7633159160614 88.81896138191223,75.00002384185791 88.81896138191223,75.00002384185791 88.74186873435974,75.2396821975708 88.74186873435974,75.2396821975708 87.06881403923035,77.2275447845459 87.06881403923035,77.2275447845459 83.1775426864624,81.29724264144897 83.1775426864624,81.29724264144897 78.11694145202637,86.43509149551392 78.11694145202637,86.43509149551392 72.93535470962524,91.62736535072327 72.93535470962524,91.62736535072327 68.6819314956665,95.86037397384644 68.6819314956665,95.86037397384644" stroke="white" stroke-width="0.1" /></svg>