<?xml version="1.0" encoding="utf-8" ?>
<svg baseProfile="full" height="54.00242805480957" version="1.1" width="99.99824166297913" xmlns="http://www.w3.org/2000/svg" xmlns:ev="http://www.w3.org/2001/xml-events" xmlns:xlink="http://www.w3.org/1999/xlink"><defs><clipPath /></defs><polygon points="30.424413084983826,39.33692276477814 30.424413084983826,39.33692276477814 35.48831343650818,53.306299448013306 35.48831343650818,53.306299448013306 13.19824904203415,53.306299448013306 13.19824904203415,53.306299448013306 12.467296421527863,53.2852828502655 12.467296421527863,53.2852828502655 11.746963858604431,53.22338938713074 11.746963858604431,53.22338938713074 11.038094013929367,53.12231183052063 11.038094013929367,53.12231183052063 10.341529548168182,52.98373103141785 10.341529548168182,52.98373103141785 9.65811237692833,52.80933380126953 9.65811237692833,52.80933380126953 8.98868516087532,52.60080099105835 8.98868516087532,52.60080099105835 13.768978416919708,39.33692276477814 13.768978416919708,39.33692276477814" stroke="white" stroke-width="0.1" /><polygon points="13.19824904203415,0.0 13.19824904203415,0.0 17.262494564056396,0.0 17.262494564056396,0.0 0.9211351163685322,44.91295516490936 0.9211351163685322,44.91295516490936 0.6494493689388037,44.15611028671265 0.6494493689388037,44.15611028671265 0.42189396917819977,43.379634618759155 0.42189396917819977,43.379634618759155 0.24083114694803953,42.58492290973663 0.24083114694803953,42.58492290973663 0.10858642635867,41.77337884902954 0.10858642635867,41.77337884902954 0.027540299925021827,40.94649255275726 0.027540299925021827,40.94649255275726 0.0,40.1057094335556 0.0,40.1057094335556 0.0,13.19824904203415 0.0,13.19824904203415 0.47347708605229855,9.700155258178711 0.47347708605229855,9.700155258178711 1.8084125593304634,6.550288200378418 1.8084125593304634,6.550288200378418 3.876590356230736,3.8770295679569244 3.876590356230736,3.8770295679569244 6.549756973981857,1.8086506053805351 6.549756973981857,1.8086506053805351 9.699715673923492,0.47353203408420086 9.699715673923492,0.47353203408420086" stroke="white" stroke-width="0.1" /><polygon points="61.51682734489441,25.498801469802856 61.51682734489441,25.498801469802856 59.605926275253296,25.920164585113525 59.605926275253296,25.920164585113525 58.024609088897705,26.657801866531372 58.024609088897705,26.657801866531372 56.75777792930603,27.64284312725067 56.75777792930603,27.64284312725067 55.790239572525024,28.806403279304504 55.790239572525024,28.806403279304504 55.10694980621338,30.079612135887146 55.10694980621338,30.079612135887146 54.69269156455994,31.39359951019287 54.69269156455994,31.39359951019287 54.561710357666016,32.17479884624481 54.561710357666016,32.17479884624481 54.5123815536499,32.95625448226929 54.5123815536499,32.95625448226929 54.54341769218445,33.732765913009644 54.54341769218445,33.732765913009644 54.65342998504639,34.49909687042236 54.65342998504639,34.49909687042236 54.84116077423096,35.25008261203766 54.84116077423096,35.25008261203766 55.10520935058594,35.98052263259888 55.10520935058594,35.98052263259888 55.068039894104004,36.20857298374176 55.068039894104004,36.20857298374176 55.03948926925659,36.432960629463196 55.03948926925659,36.432960629463196 55.01922369003296,36.65320873260498 55.01922369003296,36.65320873260498 55.00684380531311,36.86871528625488 55.00684380531311,36.86871528625488 55.00204563140869,37.07907795906067 55.00204563140869,37.07907795906067 55.00442385673523,37.28370666503906 55.00442385673523,37.28370666503906 55.02903461456299,38.19077908992767 55.02903461456299,38.19077908992767 55.03137707710266,38.34547400474548 55.03137707710266,38.34547400474548 54.958558082580566,38.59395980834961 54.958558082580566,38.59395980834961 54.88826036453247,38.871559500694275 54.88826036453247,38.871559500694275 54.8248291015625,39.17607665061951 54.8248291015625,39.17607665061951 54.77249622344971,39.5053893327713 54.77249622344971,39.5053893327713 54.735612869262695,39.85738754272461 54.735612869262695,39.85738754272461 54.71847653388977,40.22993445396423 54.71847653388977,40.22993445396423 54.650503396987915,43.94963085651398 54.650503396987915,43.94963085651398 54.58136200904846,47.746676206588745 54.58136200904846,47.746676206588745 54.57725524902344,47.852444648742676 54.57725524902344,47.852444648742676 54.57112193107605,47.965168952941895 54.57112193107605,47.965168952941895 54.56348657608032,48.08419346809387 54.56348657608032,48.08419346809387 54.55486178398132,48.20863604545593 54.55486178398132,48.20863604545593 54.545795917510986,48.33784103393555 54.545795917510986,48.33784103393555 54.53682541847229,48.47092926502228 54.53682541847229,48.47092926502228 54.487621784210205,49.408215284347534 54.487621784210205,49.408215284347534 54.479146003723145,50.290197134017944 54.479146003723145,50.290197134017944 54.50913906097412,51.11889839172363 54.50913906097412,51.11889839172363 54.5753538608551,51.89639925956726 54.5753538608551,51.89639925956726 54.675573110580444,52.62482762336731 54.675573110580444,52.62482762336731 54.80754375457764,53.306299448013306 54.80754375457764,53.306299448013306 46.18918597698212,53.306299448013306 46.18918597698212,53.306299448013306 46.19936645030975,53.20149064064026 46.19936645030975,53.20149064064026 46.20068371295929,53.09605002403259 46.20068371295929,53.09605002403259 46.193286776542664,52.990466356277466 46.193286776542664,52.990466356277466 46.17728292942047,52.88521647453308 46.17728292942047,52.88521647453308 46.15281820297241,52.780985832214355 46.15281820297241,52.780985832214355 46.120041608810425,52.678149938583374 46.120041608810425,52.678149938583374 26.955509185791016,0.0 26.955509185791016,0.0 71.2848424911499,0.0 71.2848424911499,0.0 74.78305101394653,0.47356863506138325 74.78305101394653,0.47356863506138325 77.93309688568115,1.8086688593029976 77.93309688568115,1.8086688593029976 80.60665130615234,3.8770295679569244 80.60665130615234,3.8770295679569244 82.67526626586914,6.550288200378418 82.67526626586914,6.550288200378418 84.01060700416565,9.700118750333786 84.01060700416565,9.700118750333786 84.48426723480225,13.19824904203415 84.48426723480225,13.19824904203415 84.48426723480225,19.786827266216278 84.48426723480225,19.786827266216278 83.87739062309265,19.76012885570526 83.87739062309265,19.76012885570526 83.26914310455322,19.73491460084915 83.26914310455322,19.73491460084915 82.65883922576904,19.712702929973602 82.65883922576904,19.712702929973602 82.0456862449646,19.69495862722397 82.0456862449646,19.69495862722397 81.42895698547363,19.683238863945007 81.42895698547363,19.683238863945007 80.80793023109436,19.679009914398193 80.80793023109436,19.679009914398193 80.33133745193481,19.680382311344147 80.33133745193481,19.680382311344147 79.85154390335083,19.68446671962738 79.85154390335083,19.68446671962738 79.36968207359314,19.691315293312073 79.36968207359314,19.691315293312073 78.88680696487427,19.700855016708374 78.88680696487427,19.700855016708374 78.40410470962524,19.713178277015686 78.40410470962524,19.713178277015686 77.92264223098755,19.72822993993759 77.92264223098755,19.72822993993759 77.61090993881226,19.73760575056076 77.61090993881226,19.73760575056076 76.3336181640625,19.778697192668915 76.3336181640625,19.778697192668915 75.04334449768066,19.826416671276093 75.04334449768066,19.826416671276093 73.74135255813599,19.887027144432068 73.74135255813599,19.887027144432068 72.4288821220398,19.966736435890198 72.4288821220398,19.966736435890198 71.10726237297058,20.07189840078354 71.10726237297058,20.07189840078354 69.77774500846863,20.208720862865448 69.77774500846863,20.208720862865448 69.60078477859497,20.225127041339874 69.60078477859497,20.225127041339874 68.81081461906433,20.321299135684967 68.81081461906433,20.321299135684967 67.89680123329163,20.474089682102203 67.89680123329163,20.474089682102203 66.89626574516296,20.722611248493195 66.89626574516296,20.722611248493195 65.84669947624207,21.105849742889404 65.84669947624207,21.105849742889404 64.7856056690216,21.663010120391846 64.7856056690216,21.663010120391846 63.75052332878113,22.43303954601288 63.75052332878113,22.43303954601288 63.20982575416565,22.957037389278412 63.20982575416565,22.957037389278412 62.747955322265625,23.495061695575714 62.747955322265625,23.495061695575714 62.356364727020264,24.032720923423767 62.356364727020264,24.032720923423767 62.02637553215027,24.55551028251648 62.02637553215027,24.55551028251648 61.74941658973694,25.04901885986328 61.74941658973694,25.04901885986328" stroke="white" stroke-width="0.1" /><polygon points="22.10489958524704,16.52418076992035 22.10489958524704,16.52418076992035 26.695340871810913,29.171624779701233 26.695340871810913,29.171624779701233 17.466409504413605,29.171624779701233 17.466409504413605,29.171624779701233" stroke="white" stroke-width="0.1" /><polygon points="99.99824166297913,51.26948952674866 99.99824166297913,51.26948952674866 99.99353885650635,51.685672998428345 99.99353885650635,51.685672998428345 99.9532163143158,52.08936333656311 99.9532163143158,52.08936333656311 99.86435174942017,52.47569680213928 99.86435174942017,52.47569680213928 99.71393942832947,52.839505672454834 99.71393942832947,52.839505672454834 99.4890570640564,53.17589044570923 99.4890570640564,53.17589044570923 99.17672276496887,53.47974896430969 99.17672276496887,53.47974896430969 98.90285730361938,53.66000533103943 98.90285730361938,53.66000533103943 98.6129879951477,53.78909707069397 98.6129879951477,53.78909707069397 98.31008315086365,53.87527346611023 98.31008315086365,53.87527346611023 97.99697399139404,53.92661690711975 97.99697399139404,53.92661690711975 97.67665266990662,53.95144820213318 97.67665266990662,53.95144820213318 97.35203385353088,53.9578914642334 97.35203385353088,53.9578914642334 96.96624875068665,53.956979513168335 96.96624875068665,53.956979513168335 96.21124863624573,53.95481586456299 96.21124863624573,53.95481586456299 95.26512026786804,53.95203232765198 95.26512026786804,53.95203232765198 94.30587887763977,53.9492130279541 94.30587887763977,53.9492130279541 93.51164102554321,53.94705533981323 93.51164102554321,53.94705533981323 93.0604338645935,53.94617319107056 93.0604338645935,53.94617319107056 92.5244390964508,53.93221974372864 92.5244390964508,53.93221974372864 92.00397729873657,53.87454032897949 92.00397729873657,53.87454032897949 91.51304960250854,53.749293088912964 91.51304960250854,53.749293088912964 91.06555581092834,53.53263020515442 91.06555581092834,53.53263020515442 90.67548513412476,53.20071578025818 90.67548513412476,53.20071578025818 90.35679697990417,52.729713916778564 90.35679697990417,52.729713916778564 90.23057222366333,52.41526961326599 90.23057222366333,52.41526961326599 90.15412330627441,52.08885073661804 90.15412330627441,52.08885073661804 90.11493921279907,51.75437927246094 90.11493921279907,51.75437927246094 90.10043740272522,51.41576528549194 90.10043740272522,51.41576528549194 90.09813070297241,51.077038049697876 90.09813070297241,51.077038049697876 90.095454454422,50.742125511169434 90.095454454422,50.742125511169434 90.09191989898682,50.6536066532135 90.09191989898682,50.6536066532135 90.08375406265259,50.58947801589966 90.08375406265259,50.58947801589966 90.0692343711853,50.54612159729004 90.0692343711853,50.54612159729004 90.04656672477722,50.51971673965454 90.04656672477722,50.51971673965454 90.0141179561615,50.506603717803955 90.0141179561615,50.506603717803955 89.97005820274353,50.50305128097534 89.97005820274353,50.50305128097534 89.94215130805969,50.50371289253235 89.94215130805969,50.50371289253235 89.91091251373291,50.50542950630188 89.91091251373291,50.50542950630188 89.87601399421692,50.50773620605469 89.87601399421692,50.50773620605469 89.83697295188904,50.51000714302063 89.83697295188904,50.51000714302063 89.793461561203,50.51172971725464 89.793461561203,50.51172971725464 89.74505066871643,50.51242709159851 89.74505066871643,50.51242709159851 86.2456738948822,50.51242709159851 86.2456738948822,50.51242709159851 79.79772686958313,50.51242709159851 79.79772686958313,50.51242709159851 79.35473918914795,50.51242709159851 79.35473918914795,50.51242709159851 72.831791639328,50.51242709159851 72.831791639328,50.51242709159851 69.81173157691956,50.51242709159851 69.81173157691956,50.51242709159851 69.71241235733032,50.573623180389404 69.71241235733032,50.573623180389404 69.66366767883301,50.73106288909912 69.66366767883301,50.73106288909912 69.65088248252869,50.945454835891724 69.65088248252869,50.945454835891724 69.65938210487366,51.177388429641724 69.65938210487366,51.177388429641724 69.6745216846466,51.387566328048706 69.6745216846466,51.387566328048706 69.68164443969727,51.536691188812256 69.68164443969727,51.536691188812256 69.65883374214172,51.87156796455383 69.65883374214172,51.87156796455383 69.60111260414124,52.19443440437317 69.60111260414124,52.19443440437317 69.50703263282776,52.502357959747314 69.50703263282776,52.502357959747314 69.37504410743713,52.7923047542572 69.37504410743713,52.7923047542572 69.20366287231445,53.06129455566406 69.20366287231445,53.06129455566406 68.9913809299469,53.306299448013306 68.9913809299469,53.306299448013306 68.93666982650757,53.3591091632843 68.93666982650757,53.3591091632843 68.88098120689392,53.41166853904724 68.88098120689392,53.41166853904724 68.82364749908447,53.46333980560303 68.82364749908447,53.46333980560303 68.76386404037476,53.51343750953674 68.76386404037476,53.51343750953674 68.70087385177612,53.56130599975586 68.70087385177612,53.56130599975586 68.63394379615784,53.60631346702576 68.63394379615784,53.60631346702576 68.36912631988525,53.74533534049988 68.36912631988525,53.74533534049988 68.08151006698608,53.8490891456604 68.08151006698608,53.8490891456604 67.7755057811737,53.922152519226074 67.7755057811737,53.922152519226074 67.45542287826538,53.96902561187744 67.45542287826538,53.96902561187744 67.12563633918762,53.99426221847534 67.12563633918762,53.99426221847534 66.79050326347351,54.00242805480957 66.79050326347351,54.00242805480957 66.75300002098083,54.00242805480957 66.75300002098083,54.00242805480957 66.71081185340881,54.00242805480957 66.71081185340881,54.00242805480957 66.3144588470459,54.00106906890869 66.3144588470459,54.00106906890869 65.67801237106323,53.999531269073486 65.67801237106323,53.999531269073486 64.91146087646484,53.998035192489624 64.91146087646484,53.998035192489624 64.12466168403625,53.99671196937561 64.12466168403625,53.99671196937561 63.427603244781494,53.99576425552368 63.427603244781494,53.99576425552368 62.93017268180847,53.995394706726074 62.93017268180847,53.995394706726074 62.72662281990051,53.9939284324646 62.72662281990051,53.9939284324646 62.522947788238525,53.989386558532715 62.522947788238525,53.989386558532715 62.3196005821228,53.98133397102356 62.3196005821228,53.98133397102356 62.117016315460205,53.969359397888184 62.117016315460205,53.969359397888184 61.91570162773132,53.95309329032898 61.91570162773132,53.95309329032898 61.71605587005615,53.93211245536804 61.71605587005615,53.93211245536804 61.44757270812988,53.88669967651367 61.44757270812988,53.88669967651367 61.20482087135315,53.81513833999634 61.20482087135315,53.81513833999634 60.9860897064209,53.71940732002258 60.9860897064209,53.71940732002258 60.789698362350464,53.60137224197388 60.789698362350464,53.60137224197388 60.61403751373291,53.46301198005676 60.61403751373291,53.46301198005676 60.45740246772766,53.306299448013306 60.45740246772766,53.306299448013306 60.02221703529358,52.56623029708862 60.02221703529358,52.56623029708862 59.79844927787781,51.65282487869263 59.79844927787781,51.65282487869263 59.72817540168762,50.644856691360474 59.72817540168762,50.644856691360474 59.75337028503418,49.62124824523926 59.75337028503418,49.62124824523926 59.816139936447144,48.66092801094055 59.816139936447144,48.66092801094055 59.858548641204834,47.84277379512787 59.858548641204834,47.84277379512787 59.88155007362366,46.590131521224976 59.88155007362366,46.590131521224976 59.904879331588745,45.33785283565521 59.904879331588745,45.33785283565521 59.928423166275024,44.08586919307709 59.928423166275024,44.08586919307709 59.95204448699951,42.83406734466553 59.95204448699951,42.83406734466553 59.97567176818848,41.5823370218277 59.97567176818848,41.5823370218277 59.99917984008789,40.33071994781494 59.99917984008789,40.33071994781494 60.02705097198486,40.09591341018677 60.02705097198486,40.09591341018677 60.090190172195435,39.86167311668396 60.090190172195435,39.86167311668396 60.170137882232666,39.63019847869873 60.170137882232666,39.63019847869873 60.248398780822754,39.40357863903046 60.248398780822754,39.40357863903046 60.306572914123535,39.184024930000305 60.306572914123535,39.184024930000305 60.32614707946777,38.973626494407654 60.32614707946777,38.973626494407654 60.31992435455322,38.67007791996002 60.31992435455322,38.67007791996002 60.31307578086853,38.36653232574463 60.31307578086853,38.36653232574463 60.3057861328125,38.063037395477295 60.3057861328125,38.063037395477295 60.29820442199707,37.759509682655334 60.29820442199707,37.759509682655334 60.29047966003418,37.455978989601135 60.29047966003418,37.455978989601135 60.28278470039368,37.152451276779175 60.28278470039368,37.152451276779175 60.38295030593872,36.74158155918121 60.38295030593872,36.74158155918121 60.66047549247742,36.43746376037598 60.66047549247742,36.43746376037598 61.04556322097778,36.19498610496521 61.04556322097778,36.19498610496521 61.46842837333679,35.96889674663544 61.46842837333679,35.96889674663544 61.85932159423828,35.71401834487915 61.85932159423828,35.71401834487915 62.14849352836609,35.3851854801178 62.14849352836609,35.3851854801178 62.11099624633789,35.3851854801178 62.11099624633789,35.3851854801178 61.40507459640503,35.273098945617676 61.40507459640503,35.273098945617676 60.79321503639221,34.96290445327759 60.79321503639221,34.96290445327759 60.30344367027283,34.493640065193176 60.30344367027283,34.493640065193176 59.96376872062683,33.90419781208038 59.96376872062683,33.90419781208038 59.80222225189209,33.23367238044739 59.80222225189209,33.23367238044739 59.84683036804199,32.520991563797 59.84683036804199,32.520991563797 60.089898109436035,31.8671852350235 60.089898109436035,31.8671852350235 60.47113537788391,31.38539493083954 60.47113537788391,31.38539493083954 60.962504148483276,31.051981449127197 60.962504148483276,31.051981449127197 61.53587102890015,30.843141674995422 61.53587102890015,30.843141674995422 62.16323971748352,30.735230445861816 62.16323971748352,30.735230445861816 62.81649470329285,30.704504251480103 62.81649470329285,30.704504251480103 63.129401206970215,30.704504251480103 63.129401206970215,30.704504251480103 63.37398290634155,30.706939101219177 63.37398290634155,30.706939101219177 63.61655592918396,30.71800172328949 63.61655592918396,30.71800172328949 63.85687589645386,30.743178725242615 63.85687589645386,30.743178725242615 64.09462690353394,30.787840485572815 64.09462690353394,30.787840485572815 64.32960033416748,30.857515335083008 64.32960033416748,30.857515335083008 64.56149816513062,30.957642197608948 64.56149816513062,30.957642197608948 64.69066143035889,30.7220458984375 64.69066143035889,30.7220458984375 64.8202896118164,30.486324429512024 64.8202896118164,30.486324429512024 64.95028138160706,30.25038242340088 64.95028138160706,30.25038242340088 65.08044004440308,30.0140380859375 65.08044004440308,30.0140380859375 65.21067023277283,29.777145385742188 65.21067023277283,29.777145385742188 65.34082889556885,29.5396089553833 65.34082889556885,29.5396089553833 65.43003916740417,29.37769889831543 65.43003916740417,29.37769889831543 65.51859378814697,29.215514659881592 65.51859378814697,29.215514659881592 65.60685634613037,29.053258895874023 65.60685634613037,29.053258895874023 65.69509506225586,28.890982270240784 65.69509506225586,28.890982270240784 65.78366756439209,28.728818893432617 65.78366756439209,28.728818893432617 65.8728837966919,28.566908836364746 65.8728837966919,28.566908836364746 66.06729626655579,28.197568655014038 66.06729626655579,28.197568655014038 66.26377701759338,27.810245752334595 66.26377701759338,27.810245752334595 66.47100448608398,27.420470118522644 66.47100448608398,27.420470118522644 66.69766306877136,27.043750882148743 66.69766306877136,27.043750882148743 66.95244908332825,26.695668697357178 66.95244908332825,26.695668697357178 67.24403500556946,26.391810178756714 67.24403500556946,26.391810178756714 67.68839955329895,26.080462336540222 67.68839955329895,26.080462336540222 68.19189190864563,25.854337215423584 68.19189190864563,25.854337215423584 68.73355507850647,25.695979595184326 68.73355507850647,25.695979595184326 69.29238438606262,25.58777630329132 69.29238438606262,25.58777630329132 69.84745860099792,25.512278079986572 69.84745860099792,25.512278079986572 70.37777304649353,25.45192539691925 70.37777304649353,25.45192539691925 71.6580867767334,25.322720408439636 71.6580867767334,25.322720408439636 72.9421854019165,25.223857164382935 72.9421854019165,25.223857164382935 74.22887086868286,25.14898180961609 74.22887086868286,25.14898180961609 75.51680207252502,25.091665983200073 75.51680207252502,25.091665983200073 76.80473327636719,25.04555881023407 76.80473327636719,25.04555881023407 78.09140086174011,25.004249811172485 78.09140086174011,25.004249811172485 78.542959690094,24.991321563720703 78.542959690094,24.991321563720703 78.99513840675354,24.98077303171158 78.99513840675354,24.98077303171158 79.44790720939636,24.97260719537735 79.44790720939636,24.97260719537735 79.90102171897888,24.96674656867981 79.90102171897888,24.96674656867981 80.3544282913208,24.96323138475418 80.3544282913208,24.96323138475418 80.80793023109436,24.962058663368225 80.80793023109436,24.962058663368225 81.41903281211853,24.965593218803406 81.41903281211853,24.965593218803406 82.0310890674591,24.975647032260895 82.0310890674591,24.975647032260895 82.64390230178833,24.99135732650757 82.64390230178833,24.99135732650757 83.25716853141785,25.01170039176941 83.25716853141785,25.01170039176941 83.87070894241333,25.035855174064636 83.87070894241333,25.035855174064636 84.48426723480225,25.062844157218933 84.48426723480225,25.062844157218933 85.34484505653381,25.108367204666138 85.34484505653381,25.108367204666138 86.20467185974121,25.161489844322205 86.20467185974121,25.161489844322205 87.06324100494385,25.223693251609802 87.06324100494385,25.223693251609802 87.9199206829071,25.29618740081787 87.9199206829071,25.29618740081787 88.77421617507935,25.380420684814453 88.77421617507935,25.380420684814453 89.62551355361938,25.477707386016846 89.62551355361938,25.477707386016846 90.13714790344238,25.541412830352783 90.13714790344238,25.541412830352783 90.66977500915527,25.621965527534485 90.66977500915527,25.621965527534485 91.20351076126099,25.736117362976074 91.20351076126099,25.736117362976074 91.7184829711914,25.900626182556152 91.7184829711914,25.900626182556152 92.19485521316528,26.13237500190735 92.19485521316528,26.13237500190735 92.6127552986145,26.448065042495728 92.6127552986145,26.448065042495728 92.76228547096252,26.60651206970215 92.76228547096252,26.60651206970215 92.89568662643433,26.777485013008118 92.89568662643433,26.777485013008118 93.01663041114807,26.95785164833069 93.01663041114807,26.95785164833069 93.1286633014679,27.14444398880005 93.1286633014679,27.14444398880005 93.23543310165405,27.33418643474579 93.23543310165405,27.33418643474579 93.34052205085754,27.523893117904663 93.34052205085754,27.523893117904663 93.5162365436554,27.83716320991516 93.5162365436554,27.83716320991516 93.69085431098938,28.151148557662964 93.69085431098938,28.151148557662964 93.8646674156189,28.46583127975464 93.8646674156189,28.46583127975464 94.03785467147827,28.78107726573944 94.03785467147827,28.78107726573944 94.21074986457825,29.09683883190155 94.21074986457825,29.09683883190155 94.38353776931763,29.413041472434998 94.38353776931763,29.413041472434998 94.94137763977051,30.42324185371399 94.94137763977051,30.42324185371399 95.022714138031,30.57539165019989 95.022714138031,30.57539165019989 95.08706331253052,30.691981315612793 95.08706331253052,30.691981315612793 95.14089822769165,30.776578187942505 95.14089822769165,30.776578187942505 95.1906144618988,30.832648277282715 95.1906144618988,30.832648277282715 95.24267315864563,30.863705277442932 95.24267315864563,30.863705277442932 95.30349969863892,30.873262882232666 95.30349969863892,30.873262882232666 95.34761309623718,30.869507789611816 95.34761309623718,30.869507789611816 95.40027976036072,30.859088897705078 95.40027976036072,30.859088897705078 95.46317458152771,30.843085050582886 95.46317458152771,30.843085050582886 95.53796052932739,30.822578072547913 95.53796052932739,30.822578072547913 95.62638401985168,30.798661708831787 95.62638401985168,30.798661708831787 95.73008418083191,30.772477388381958 95.73008418083191,30.772477388381958 95.82310318946838,30.750319361686707 95.82310318946838,30.750319361686707 95.9161102771759,30.73294162750244 95.9161102771759,30.73294162750244 96.00943922996521,30.72003424167633 96.00943922996521,30.72003424167633 96.10345363616943,30.711188912391663 96.10345363616943,30.711188912391663 96.19852304458618,30.70613443851471 96.19852304458618,30.70613443851471 96.29495143890381,30.704504251480103 96.29495143890381,30.704504251480103 97.15514779090881,30.704504251480103 97.15514779090881,30.704504251480103 97.53219485282898,30.710840225219727 97.53219485282898,30.710840225219727 97.89935946464539,30.738160014152527 97.89935946464539,30.738160014152527 98.25485348701477,30.79884648323059 98.25485348701477,30.79884648323059 98.59696626663208,30.90519905090332 98.59696626663208,30.90519905090332 98.92398715019226,31.069651246070862 98.92398715019226,31.069651246070862 99.23414587974548,31.304532289505005 99.23414587974548,31.304532289505005 99.8027503490448,32.09182918071747 99.8027503490448,32.09182918071747 99.98566508293152,32.98331797122955 99.98566508293152,32.98331797122955 99.82421398162842,33.868709206581116 99.82421398162842,33.868709206581116 99.35957789421082,34.637659788131714 99.35957789421082,34.637659788131714 98.63311052322388,35.17993092536926 98.63311052322388,35.17993092536926 97.68602848052979,35.3851854801178 97.68602848052979,35.3851854801178 97.64853119850159,35.3851854801178 97.64853119850159,35.3851854801178 97.88007736206055,35.625410079956055 97.88007736206055,35.625410079956055 98.2537031173706,35.86737811565399 98.2537031173706,35.86737811565399 98.68685603141785,36.11002266407013 98.68685603141785,36.11002266407013 99.09694194793701,36.35224401950836 99.09694194793701,36.35224401950836 99.40143823623657,36.59301996231079 99.40143823623657,36.59301996231079 99.51775670051575,36.83134317398071 99.51775670051575,36.83134317398071 99.51031804084778,37.11007833480835 99.51031804084778,37.11007833480835 99.50323104858398,37.38855719566345 99.50323104858398,37.38855719566345 99.4965136051178,37.66692578792572 99.4965136051178,37.66692578792572 99.49004650115967,37.94525861740112 99.49004650115967,37.94525861740112 99.48387742042542,38.22377622127533 99.48387742042542,38.22377622127533 99.4779109954834,38.502511382102966 99.4779109954834,38.502511382102966 99.49523210525513,38.79263699054718 99.49523210525513,38.79263699054718 99.54976439476013,39.062657952308655 99.54976439476013,39.062657952308655 99.62425231933594,39.322566986083984 99.62425231933594,39.322566986083984 99.70134496688843,39.582258462905884 99.70134496688843,39.582258462905884 99.76382255554199,39.85169231891632 99.76382255554199,39.85169231891632 99.79432821273804,40.14086723327637 99.79432821273804,40.14086723327637 99.8282253742218,41.99665188789368 99.8282253742218,41.99665188789368 99.8620092868805,43.851593136787415 99.8620092868805,43.851593136787415 99.89584684371948,45.70605754852295 99.89584684371948,45.70605754852295 99.92976188659668,47.560304403305054 99.92976188659668,47.560304403305054 99.9638557434082,49.414658546447754 99.9638557434082,49.414658546447754" stroke="white" stroke-width="0.1" /><polygon points="65.77444076538086,36.77977919578552 65.77444076538086,36.77977919578552 65.69917798042297,36.78157329559326 65.69917798042297,36.78157329559326 65.62554836273193,36.78660690784454 65.62554836273193,36.78660690784454 65.55324196815491,36.794134974479675 65.55324196815491,36.794134974479675 65.48189520835876,36.80340051651001 65.48189520835876,36.80340051651001 65.4112160205841,36.81369125843048 65.4112160205841,36.81369125843048 65.34082889556885,36.82430982589722 65.34082889556885,36.82430982589722 63.99845480918884,37.37310171127319 63.99845480918884,37.37310171127319 63.193053007125854,38.428789377212524 63.193053007125854,38.428789377212524 62.92460560798645,39.738017320632935 62.92460560798645,39.738017320632935 63.19307088851929,41.04742705821991 63.19307088851929,41.04742705821991 63.998496532440186,42.10369884967804 63.998496532440186,42.10369884967804 65.34082889556885,42.65348017215729 65.34082889556885,42.65348017215729 65.41119813919067,42.662304639816284 65.41119813919067,42.662304639816284 65.48187732696533,42.67168045043945 65.48187732696533,42.67168045043945 65.55324196815491,42.68072545528412 65.55324196815491,42.68072545528412 65.62554836273193,42.688342928886414 65.62554836273193,42.688342928886414 65.69920182228088,42.693692445755005 65.69920182228088,42.693692445755005 65.77444076538086,42.69566833972931 65.77444076538086,42.69566833972931 67.3643410205841,42.25742220878601 67.3643410205841,42.25742220878601 68.3182954788208,41.16188883781433 68.3182954788208,41.16188883781433 68.63628625869751,39.737722277641296 68.63628625869751,39.737722277641296 68.31831336021423,38.31353783607483 68.31831336021423,38.31353783607483 67.36435890197754,37.21798658370972 67.36435890197754,37.21798658370972" stroke="white" stroke-width="0.1" /><polygon points="89.31729793548584,39.18457329273224 89.31729793548584,39.18457329273224 89.16029334068298,38.802194595336914 89.16029334068298,38.802194595336914 88.95645141601562,38.45151364803314 88.95645141601562,38.45151364803314 88.70203495025635,38.14946711063385 88.70203495025635,38.14946711063385 88.39330077171326,37.91281282901764 88.39330077171326,37.91281282901764 88.02656531333923,37.75844871997833 88.02656531333923,37.75844871997833 87.5980794429779,37.70325779914856 87.5980794429779,37.70325779914856 85.03859043121338,37.70325779914856 85.03859043121338,37.70325779914856 84.48426723480225,37.70325779914856 84.48426723480225,37.70325779914856 75.02915263175964,37.70325779914856 75.02915263175964,37.70325779914856 72.58802652359009,37.70325779914856 72.58802652359009,37.70325779914856 71.96685075759888,37.797725200653076 71.96685075759888,37.797725200653076 71.49551510810852,38.05670440196991 71.49551510810852,38.05670440196991 71.14216089248657,38.44362199306488 71.14216089248657,38.44362199306488 70.87492346763611,38.92171382904053 70.87492346763611,38.92171382904053 70.66200375556946,39.454373717308044 70.66200375556946,39.454373717308044 70.47152519226074,40.004923939704895 70.47152519226074,40.004923939704895 70.3968346118927,40.465983748435974 70.3968346118927,40.465983748435974 70.51170468330383,40.78390598297119 70.51170468330383,40.78390598297119 70.76714634895325,40.985241532325745 70.76714634895325,40.985241532325745 71.114182472229,41.09629988670349 71.114182472229,41.09629988670349 71.50386571884155,41.143542528152466 71.50386571884155,41.143542528152466 71.88721299171448,41.15341305732727 71.88721299171448,41.15341305732727 74.84867572784424,41.15341305732727 74.84867572784424,41.15341305732727 84.4303548336029,41.15341305732727 84.4303548336029,41.15341305732727 88.81102204322815,41.15341305732727 88.81102204322815,41.15341305732727 89.29837942123413,41.055721044540405 89.29837942123413,41.055721044540405 89.54983353614807,40.79712629318237 89.54983353614807,40.79712629318237 89.62141275405884,40.42915999889374 89.62141275405884,40.42915999889374 89.56911563873291,40.003347396850586 89.56911563873291,40.003347396850586 89.44908380508423,39.571309089660645 89.44908380508423,39.571309089660645" stroke="white" stroke-width="0.1" /><polygon points="94.32845711708069,34.23435091972351 94.32845711708069,34.23435091972351 93.89832615852356,33.45014750957489 93.89832615852356,33.45014750957489 93.46806406974792,32.6656699180603 93.46806406974792,32.6656699180603 93.03758144378662,31.881120800971985 93.03758144378662,31.881120800971985 92.60667562484741,31.096532940864563 92.60667562484741,31.096532940864563 92.17526316642761,30.31209111213684 92.17526316642761,30.31209111213684 91.74318313598633,29.52789068222046 91.74318313598633,29.52789068222046 91.63732528686523,29.30992841720581 91.63732528686523,29.30992841720581 91.51759147644043,29.041558504104614 91.51759147644043,29.041558504104614 91.38179421424866,28.755882382392883 91.38179421424866,28.755882382392883 91.22772216796875,28.486010432243347 91.22772216796875,28.486010432243347 91.05319380760193,28.265100717544556 91.05319380760193,28.265100717544556 90.85603356361389,28.12626361846924 90.85603356361389,28.12626361846924 90.54613709449768,28.01819145679474 90.54613709449768,28.01819145679474 90.220707654953,27.939945459365845 90.220707654953,27.939945459365845 89.88611698150635,27.884259819984436 89.88611698150635,27.884259819984436 89.54867720603943,27.843773365020752 89.54867720603943,27.843773365020752 89.21478986740112,27.8112530708313 89.21478986740112,27.8112530708313 88.89071345329285,27.77937352657318 88.89071345329285,27.77937352657318 88.15599083900452,27.707043290138245 88.15599083900452,27.707043290138245 87.42142915725708,27.642202377319336 87.42142915725708,27.642202377319336 86.68705224990845,27.584540843963623 86.68705224990845,27.584540843963623 85.95272898674011,27.53370702266693 85.95272898674011,27.53370702266693 85.21847724914551,27.489376068115234 85.21847724914551,27.489376068115234 84.48426723480225,27.451235055923462 84.48426723480225,27.451235055923462 83.79566669464111,27.422302961349487 83.79566669464111,27.422302961349487 83.10704827308655,27.398771047592163 83.10704827308655,27.398771047592163 82.41859674453735,27.380624413490295 82.41859674453735,27.380624413490295 81.7304015159607,27.367734909057617 81.7304015159607,27.367734909057617 81.04268312454224,27.360042929649353 81.04268312454224,27.360042929649353 80.35556674003601,27.35747992992401 80.35556674003601,27.35747992992401 79.56568598747253,27.36040949821472 79.56568598747253,27.36040949821472 78.775954246521,27.369344234466553 78.775954246521,27.369344234466553 77.98651456832886,27.384433150291443 77.98651456832886,27.384433150291443 77.19743847846985,27.405747771263123 77.19743847846985,27.405747771263123 76.40889883041382,27.43343412876129 76.40889883041382,27.43343412876129 75.62097907066345,27.467641234397888 75.62097907066345,27.467641234397888 74.86057877540588,27.50186324119568 74.86057877540588,27.50186324119568 74.09970760345459,27.540025115013123 74.09970760345459,27.540025115013123 73.33893775939941,27.583661675453186 73.33893775939941,27.583661675453186 72.57874608039856,27.634310722351074 72.57874608039856,27.634310722351074 71.8196451663971,27.69356667995453 71.8196451663971,27.69356667995453 71.06217741966248,27.762967348098755 71.06217741966248,27.762967348098755 70.7466721534729,27.78221070766449 70.7466721534729,27.78221070766449 70.316082239151,27.804678678512573 70.316082239151,27.804678678512573 69.83575820922852,27.847638726234436 69.83575820922852,27.847638726234436 69.37105059623718,27.928262948989868 69.37105059623718,27.928262948989868 68.98733377456665,28.06382179260254 68.98733377456665,28.06382179260254 68.74996423721313,28.27158272266388 68.74996423721313,28.27158272266388 68.18906664848328,29.25722897052765 68.18906664848328,29.25722897052765 67.6377534866333,30.248716473579407 67.6377534866333,30.248716473579407 67.0930027961731,31.244176626205444 67.0930027961731,31.244176626205444 66.55187010765076,32.241544127464294 66.55187010765076,32.241544127464294 66.01136922836304,33.23894441127777 66.01136922836304,33.23894441127777 65.46856760978699,34.23435091972351 65.46856760978699,34.23435091972351 67.76627898216248,33.752596378326416 67.76627898216248,33.752596378326416 70.07783055305481,33.377617597579956 70.07783055305481,33.377617597579956 72.40066528320312,33.100804686546326 72.40066528320312,33.100804686546326 74.73217844963074,32.91362524032593 74.73217844963074,32.91362524032593 77.06982493400574,32.8076034784317 77.06982493400574,32.8076034784317 79.41098809242249,32.77412950992584 79.41098809242249,32.77412950992584 80.25675415992737,32.779183983802795 80.25675415992737,32.779183983802795 81.10206127166748,32.793739438056946 81.10206127166748,32.793739438056946 81.94718956947327,32.8166127204895 81.94718956947327,32.8166127204895 82.79238939285278,32.84671604633331 82.79238939285278,32.84671604633331 83.6379885673523,32.88291692733765 83.6379885673523,32.88291692733765 84.48426723480225,32.92413651943207 84.48426723480225,32.92413651943207 84.81844663619995,32.940250635147095 84.81844663619995,32.940250635147095 85.15297770500183,32.956236600875854 85.15297770500183,32.956236600875854 85.48787236213684,32.97277092933655 85.48787236213684,32.97277092933655 85.82302927970886,32.99044072628021 85.82302927970886,32.99044072628021 86.1584722995758,33.009979128837585 86.1584722995758,33.009979128837585 86.49412393569946,33.03195238113403 86.49412393569946,33.03195238113403 87.81307339668274,33.139386773109436 87.81307339668274,33.139386773109436 89.12707567214966,33.28688442707062 89.12707567214966,33.28688442707062 90.4358983039856,33.47230553627014 90.4358983039856,33.47230553627014 91.73923134803772,33.69343280792236 91.73923134803772,33.69343280792236 93.03684830665588,33.948180079460144 93.03684830665588,33.948180079460144" stroke="white" stroke-width="0.1" /><polygon points="94.38353776931763,36.81493699550629 94.38353776931763,36.81493699550629 94.32373642921448,36.808234453201294 94.32373642921448,36.808234453201294 94.26454901695251,36.800578236579895 94.26454901695251,36.800578236579895 94.20526027679443,36.7929607629776 94.20526027679443,36.7929607629776 94.14505362510681,36.78629696369171 94.14505362510681,36.78629696369171 94.08326745033264,36.78157329559326 94.08326745033264,36.78157329559326 94.01906728744507,36.77977919578552 94.01906728744507,36.77977919578552 92.42964386940002,37.217968702316284 92.42964386940002,37.217968702316284 91.47596955299377,38.313502073287964 91.47596955299377,38.313502073287964 91.15809798240662,39.737722277641296 91.15809798240662,39.737722277641296 91.4759874343872,41.16190969944 91.4759874343872,41.16190969944 92.42964386940002,42.257460951805115 92.42964386940002,42.257460951805115 94.01906728744507,42.69566833972931 94.01906728744507,42.69566833972931 94.08324956893921,42.693838477134705 94.08324956893921,42.693838477134705 94.14505362510681,42.68915057182312 94.14505362510681,42.68915057182312 94.20526027679443,42.68248379230499 94.20526027679443,42.68248379230499 94.26456689834595,42.67483055591583 94.26456689834595,42.67483055591583 94.32373642921448,42.66717731952667 94.32373642921448,42.66717731952667 94.38353776931763,42.660510540008545 94.38353776931763,42.660510540008545 95.7638680934906,42.12638735771179 95.7638680934906,42.12638735771179 96.59196138381958,41.063687205314636 96.59196138381958,41.063687205314636 96.86787724494934,39.73684310913086 96.86787724494934,39.73684310913086 96.59170508384705,38.41014802455902 96.59170508384705,38.41014802455902 95.76355814933777,37.3480349779129 95.76355814933777,37.3480349779129" stroke="white" stroke-width="0.1" /></svg>