<?xml version="1.0" encoding="utf-8" ?>
<svg baseProfile="full" height="99.99867081642151" version="1.1" width="99.99867081642151" xmlns="http://www.w3.org/2000/svg" xmlns:ev="http://www.w3.org/2001/xml-events" xmlns:xlink="http://www.w3.org/1999/xlink"><defs><clipPath /></defs><polygon points="97.77098298072815,78.116774559021 97.77098298072815,78.116774559021 99.00585412979126,79.73824739456177 99.00585412979126,79.73824739456177 99.74631071090698,81.56954646110535 99.74631071090698,81.56954646110535 99.99335408210754,83.50578546524048 99.99335408210754,83.50578546524048 99.74597692489624,85.44200658798218 99.74597692489624,85.44200658798218 99.00552034378052,87.27332353591919 99.00552034378052,87.27332353591919 97.77098298072815,88.89480233192444 97.77098298072815,88.89480233192444 88.88682126998901,97.77896404266357 88.88682126998901,97.77896404266357 87.26792335510254,99.0113377571106 87.26792335510254,99.0113377571106 85.43888926506042,99.75046515464783 85.43888926506042,99.75046515464783 83.50445628166199,99.99601244926453 83.50445628166199,99.99601244926453 81.5690279006958,99.74768161773682 81.5690279006958,99.74768161773682 79.73700165748596,99.00522828102112 79.73700165748596,99.00522828102112 78.11411023139954,97.76831865310669 78.11411023139954,97.76831865310669 50.00132918357849,69.65553760528564 50.00132918357849,69.65553760528564 21.87791019678116,97.77896404266357 21.87791019678116,97.77896404266357 20.25734782218933,99.01320934295654 20.25734782218933,99.01320934295654 18.42765063047409,99.75302219390869 18.42765063047409,99.75302219390869 16.4938822388649,99.99867081642151 16.4938822388649,99.99867081642151 14.559449255466461,99.7504472732544 14.559449255466461,99.7504472732544 12.729418277740479,99.00867938995361 12.729418277740479,99.00867938995361 11.107860505580902,97.77364134788513 11.107860505580902,97.77364134788513 2.2263599559664726,88.889479637146 2.2263599559664726,88.889479637146 0.990823283791542,87.26733922958374 0.990823283791542,87.26733922958374 0.24936827830970287,85.438472032547 0.24936827830970287,85.438472032547 0.002992419285874348,83.50645303726196 0.002992419285874348,83.50645303726196 0.2500332426279783,81.57484531402588 0.2500332426279783,81.57484531402588 0.9914882481098175,79.74730730056763 0.9914882481098175,79.74730730056763 2.2263599559664726,78.1274139881134 2.2263599559664726,78.1274139881134 30.347120761871338,50.003987550735474 30.347120761871338,50.003987550735474 2.2157201543450356,21.869929134845734 2.2157201543450356,21.869929134845734 0.9845059365034103,20.252984762191772 0.9845059365034103,20.252984762191772 0.24537837598472834,18.424928188323975 0.24537837598472834,18.424928188323975 -0.0006649820534221362,16.491222381591797 -0.0006649820534221362,16.491222381591797 0.2450458938255906,14.557288587093353 0.2450458938255906,14.557288587093353 0.9841734543442726,12.728588283061981 0.9841734543442726,12.728588283061981 2.2157201543450356,11.110520362854004 2.2157201543450356,11.110520362854004 11.099880188703537,2.2290198132395744 11.099880188703537,2.2290198132395744 12.72110641002655,0.9932130575180054 12.72110641002655,0.9932130575180054 14.551801979541779,0.25141516234725714 14.551801979541779,0.25141516234725714 16.48656725883484,0.0033249103580601513 16.48656725883484,0.0033249103580601513 18.420667946338654,0.24864093866199255 18.420667946338654,0.24864093866199255 20.249035954475403,0.9871034882962704 20.249035954475403,0.9871034882962704 21.867269277572632,2.2183801978826523 21.867269277572632,2.2183801978826523 50.00132918357849,30.35244047641754 50.00132918357849,30.35244047641754 78.12474966049194,2.2290198132395744 78.12474966049194,2.2290198132395744 79.7456443309784,0.9926623664796352 79.7456443309784,0.9926623664796352 81.57467842102051,0.2496384084224701 81.57467842102051,0.2496384084224701 83.50844383239746,0.0003324910267110681 83.50844383239746,0.0003324910267110681 85.44188141822815,0.2450978383421898 85.44188141822815,0.2450978383421898 87.271249294281,0.9843189269304276 87.271249294281,0.9843189269304276 88.89213800430298,2.2183801978826523 88.89213800430298,2.2183801978826523 97.77629971504211,11.102540045976639 97.77629971504211,11.102540045976639 99.01117086410522,12.724016606807709 99.01117086410522,12.724016606807709 99.75162744522095,14.55533504486084 99.75162744522095,14.55533504486084 99.99867081642151,16.49155467748642 99.99867081642151,16.49155467748642 99.75129961967468,18.427774310112 99.75129961967468,18.427774310112 99.01084303855896,20.25909423828125 99.01084303855896,20.25909423828125 97.77629971504211,21.88057005405426 97.77629971504211,21.88057005405426 69.65287923812866,50.003987550735474 69.65287923812866,50.003987550735474" stroke="white" stroke-width="0.1" /></svg>