<?xml version="1.0" encoding="utf-8" ?>
<svg baseProfile="full" height="72.35497832298279" version="1.1" width="99.99804496765137" xmlns="http://www.w3.org/2000/svg" xmlns:ev="http://www.w3.org/2001/xml-events" xmlns:xlink="http://www.w3.org/1999/xlink"><defs><clipPath /></defs><polygon points="99.61109757423401,63.98434042930603 99.61109757423401,63.98434042930603 99.69967603683472,64.20987248420715 99.69967603683472,64.20987248420715 99.8238205909729,64.55024480819702 99.8238205909729,64.55024480819702 99.93849992752075,64.93605375289917 99.93849992752075,64.93605375289917 99.99804496765137,65.2976393699646 99.99804496765137,65.2976393699646 99.95759129524231,65.5656635761261 99.95759129524231,65.5656635761261 99.77161884307861,65.67047238349915 99.77161884307861,65.67047238349915 99.75563287734985,65.67006707191467 99.75563287734985,65.67006707191467 99.73899126052856,65.66884517669678 99.73899126052856,65.66884517669678 99.72186088562012,65.66688418388367 99.72186088562012,65.66688418388367 99.70391988754272,65.66423773765564 99.70391988754272,65.66423773765564 99.68597292900085,65.66109657287598 99.68597292900085,65.66109657287598 99.66721534729004,65.65742492675781 99.66721534729004,65.65742492675781 99.66411590576172,65.65636396408081 99.66411590576172,65.65636396408081 99.66084957122803,65.65554738044739 99.66084957122803,65.65554738044739 99.6577501296997,65.65514206886292 99.6577501296997,65.65514206886292 99.65416193008423,65.65481424331665 99.65416193008423,65.65481424331665 99.65057373046875,65.65481424331665 99.65057373046875,65.65481424331665 99.64632987976074,65.65481424331665 99.64632987976074,65.65481424331665 99.49560165405273,65.71533679962158 99.49560165405273,65.71533679962158 99.28515553474426,65.86933135986328 99.28515553474426,65.86933135986328 99.04780387878418,66.07536673545837 99.04780387878418,66.07536673545837 98.81582856178284,66.29200577735901 98.81582856178284,66.29200577735901 98.62219095230103,66.47793650627136 98.62219095230103,66.47793650627136 98.49918484687805,66.59184694290161 98.49918484687805,66.59184694290161 98.22871685028076,66.8139100074768 98.22871685028076,66.8139100074768 97.95726537704468,67.03630089759827 97.95726537704468,67.03630089759827 97.68564701080322,67.25905537605286 97.68564701080322,67.25905537605286 97.41337895393372,67.48193502426147 97.41337895393372,67.48193502426147 97.14127779006958,67.70501732826233 97.14127779006958,67.70501732826233 96.86917066574097,67.92822480201721 96.86917066574097,67.92822480201721 96.88156843185425,68.05359125137329 96.88156843185425,68.05359125137329 97.01011776924133,68.29103231430054 97.01011776924133,68.29103231430054 97.20114469528198,68.58890652656555 97.20114469528198,68.58890652656555 97.39934802055359,68.89563798904419 97.39934802055359,68.89563798904419 97.55155444145203,69.15978789329529 97.55155444145203,69.15978789329529 97.60261178016663,69.32985782623291 97.60261178016663,69.32985782623291 97.50016927719116,69.53585147857666 97.50016927719116,69.53585147857666 97.27895855903625,69.76933479309082 97.27895855903625,69.76933479309082 96.98988795280457,70.00946402549744 96.98988795280457,70.00946402549744 96.6836929321289,70.23540139198303 96.6836929321289,70.23540139198303 96.4115858078003,70.42647004127502 96.4115858078003,70.42647004127502 96.22447490692139,70.56183218955994 96.22447490692139,70.56183218955994 95.75987458229065,70.9354817867279 95.75987458229065,70.9354817867279 95.2732503414154,71.31863832473755 95.2732503414154,71.31863832473755 94.76346373558044,71.68124318122864 94.76346373558044,71.68124318122864 94.22871470451355,71.99307084083557 94.22871470451355,71.99307084083557 93.66770386695862,72.22422957420349 93.66770386695862,72.22422957420349 93.07928681373596,72.34453558921814 93.07928681373596,72.34453558921814 93.03393363952637,72.34804630279541 93.03393363952637,72.34804630279541 92.98825860023499,72.35073447227478 92.98825860023499,72.35073447227478 92.94307231903076,72.35269546508789 92.94307231903076,72.35269546508789 92.89771914482117,72.35395908355713 92.89771914482117,72.35395908355713 92.85269379615784,72.35473394393921 92.85269379615784,72.35473394393921 92.80783534049988,72.35497832298279 92.80783534049988,72.35497832298279 92.19461679458618,72.28964567184448 92.19461679458618,72.28964567184448 91.62708520889282,72.11060523986816 91.62708520889282,72.11060523986816 91.09527468681335,71.84339761734009 91.09527468681335,71.84339761734009 90.58923721313477,71.51350378990173 90.58923721313477,71.51350378990173 90.09935259819031,71.14653587341309 90.09935259819031,71.14653587341309 89.61566090583801,70.76802849769592 89.61566090583801,70.76802849769592 91.84567928314209,69.05012726783752 91.84567928314209,69.05012726783752 93.3225154876709,66.79176688194275 93.3225154876709,66.79176688194275 94.02186274528503,64.21729326248169 94.02186274528503,64.21729326248169 93.9190924167633,61.550939083099365 93.9190924167633,61.550939083099365 92.99005270004272,59.017252922058105 92.99005270004272,59.017252922058105 91.21044278144836,56.84046149253845 91.21044278144836,56.84046149253845 90.38499593734741,56.208813190460205 90.38499593734741,56.208813190460205 89.51027989387512,55.69796562194824 89.51027989387512,55.69796562194824 88.59673738479614,55.30538558959961 88.59673738479614,55.30538558959961 87.65448927879333,55.0281822681427 87.65448927879333,55.0281822681427 86.69445514678955,54.863905906677246 86.69445514678955,54.863905906677246 85.72659492492676,54.80979084968567 85.72659492492676,54.80979084968567 84.04437303543091,54.97259497642517 84.04437303543091,54.97259497642517 82.42480158805847,55.45195937156677 82.42480158805847,55.45195937156677 80.92414736747742,56.23425841331482 80.92414736747742,56.23425841331482 79.59722876548767,57.305753231048584 79.59722876548767,57.305753231048584 78.50033044815063,58.65302085876465 78.50033044815063,58.65302085876465 77.68874764442444,60.26231646537781 77.68874764442444,60.26231646537781 75.71240067481995,58.135563135147095 75.71240067481995,58.135563135147095 73.70538711547852,56.04812502861023 73.70538711547852,56.04812502861023 71.66117429733276,54.00294065475464 71.66117429733276,54.00294065475464 69.57275867462158,52.002692222595215 69.57275867462158,52.002692222595215 67.43376851081848,50.050365924835205 67.43376851081848,50.050365924835205 65.23719429969788,48.14877808094025 65.23719429969788,48.14877808094025 67.34747290611267,46.60554826259613 67.34747290611267,46.60554826259613 68.83099675178528,44.56354081630707 68.83099675178528,44.56354081630707 69.65334415435791,42.20424294471741 69.65334415435791,42.20424294471741 69.7794497013092,39.70913589000702 69.7794497013092,39.70913589000702 69.17471885681152,37.25995123386383 69.17471885681152,37.25995123386383 67.80424118041992,35.03817319869995 67.80424118041992,35.03817319869995 66.91321730613708,34.15040969848633 66.91321730613708,34.15040969848633 65.924471616745,33.42577517032623 65.924471616745,33.42577517032623 64.858078956604,32.86362290382385 64.858078956604,32.86362290382385 63.73327970504761,32.46296942234039 63.73327970504761,32.46296942234039 62.569659948349,32.22328722476959 62.569659948349,32.22328722476959 61.3872766494751,32.14355707168579 61.3872766494751,32.14355707168579 60.9311580657959,32.15530216693878 60.9311580657959,32.15530216693878 60.47585606575012,32.19054043292999 60.47585606575012,32.19054043292999 60.02267599105835,32.249265909194946 60.02267599105835,32.249265909194946 59.5725953578949,32.331445813179016 59.5725953578949,32.331445813179016 59.1275691986084,32.43715465068817 59.1275691986084,32.43715465068817 58.68842005729675,32.56639540195465 58.68842005729675,32.56639540195465 58.18695425987244,31.58164918422699 58.18695425987244,31.58164918422699 57.64470100402832,30.62206506729126 57.64470100402832,30.62206506729126 57.06346035003662,29.68841791152954 57.06346035003662,29.68841791152954 56.44404888153076,28.781527280807495 56.44404888153076,28.781527280807495 55.788254737854004,27.902162075042725 55.788254737854004,27.902162075042725 55.09690046310425,27.051225304603577 55.09690046310425,27.051225304603577 55.12479543685913,27.01953649520874 55.12479543685913,27.01953649520874 55.15301823616028,26.98727548122406 55.15301823616028,26.98727548122406 55.18140196800232,26.954975724220276 55.18140196800232,26.954975724220276 55.20946383476257,26.92275643348694 55.20946383476257,26.92275643348694 55.23719787597656,26.891231536865234 55.23719787597656,26.891231536865234 55.26394844055176,26.860687136650085 55.26394844055176,26.860687136650085 55.63311576843262,26.531973481178284 55.63311576843262,26.531973481178284 56.00897669792175,26.36835277080536 56.00897669792175,26.36835277080536 56.393152475357056,26.30799412727356 56.393152475357056,26.30799412727356 56.786298751831055,26.28890872001648 56.786298751831055,26.28890872001648 57.190537452697754,26.249265670776367 57.190537452697754,26.249265670776367 57.60652422904968,26.127243041992188 57.60652422904968,26.127243041992188 57.61011838912964,26.125776767730713 57.61011838912964,26.125776767730713 57.613539695739746,26.123899221420288 57.613539695739746,26.123899221420288 57.61745572090149,26.121696829795837 57.61745572090149,26.121696829795837 57.621532678604126,26.119250059127808 57.621532678604126,26.119250059127808 57.6261043548584,26.116761565208435 57.6261043548584,26.116761565208435 57.63132572174072,26.114192605018616 57.63132572174072,26.114192605018616 57.949596643447876,25.9388267993927 57.949596643447876,25.9388267993927 58.2561194896698,25.720271468162537 58.2561194896698,25.720271468162537 58.552366495132446,25.473737716674805 58.552366495132446,25.473737716674805 58.838993310928345,25.214314460754395 58.838993310928345,25.214314460754395 59.117621183395386,24.957342445850372 59.117621183395386,24.957342445850372 59.38923358917236,24.71778243780136 59.38923358917236,24.71778243780136 59.77422595024109,24.393923580646515 59.77422595024109,24.393923580646515 60.234588384628296,24.01476353406906 60.234588384628296,24.01476353406906 60.74877977371216,23.631322383880615 60.74877977371216,23.631322383880615 61.2931489944458,23.29433262348175 61.2931489944458,23.29433262348175 61.84600591659546,23.05489480495453 61.84600591659546,23.05489480495453 62.38434314727783,22.963786125183105 62.38434314727783,22.963786125183105 62.51354217529297,22.970229387283325 62.51354217529297,22.970229387283325 62.639641761779785,22.98988699913025 62.639641761779785,22.98988699913025 62.76248097419739,23.023492097854614 62.76248097419739,23.023492097854614 62.88140416145325,23.071615397930145 62.88140416145325,23.071615397930145 62.99673914909363,23.134993016719818 62.99673914909363,23.134993016719818 63.10734152793884,23.21435660123825 63.10734152793884,23.21435660123825 63.13115954399109,23.23303520679474 63.13115954399109,23.23303520679474 63.15400004386902,23.252244293689728 63.15400004386902,23.252244293689728 63.17634582519531,23.271778225898743 63.17634582519531,23.271778225898743 63.19788098335266,23.291273415088654 63.19788098335266,23.291273415088654 63.21924924850464,23.310482501983643 63.21924924850464,23.310482501983643 63.24045658111572,23.329201340675354 63.24045658111572,23.329201340675354 63.95726203918457,23.93539994955063 63.95726203918457,23.93539994955063 64.66362476348877,24.542006850242615 64.66362476348877,24.542006850242615 65.38107991218567,25.120392441749573 65.38107991218567,25.120392441749573 66.12871289253235,25.641679763793945 66.12871289253235,25.641679763793945 66.92773699760437,26.077324151992798 66.92773699760437,26.077324151992798 67.7977204322815,26.39869451522827 67.7977204322815,26.39869451522827 68.3735728263855,26.559218764305115 68.3735728263855,26.559218764305115 68.95204186439514,26.717987656593323 68.95204186439514,26.717987656593323 69.53246593475342,26.87634527683258 69.53246593475342,26.87634527683258 70.11370658874512,27.035480737686157 70.11370658874512,27.035480737686157 70.69559693336487,27.19690203666687 70.69559693336487,27.19690203666687 71.27699851989746,27.361828088760376 71.27699851989746,27.361828088760376 71.80880904197693,27.519333362579346 71.80880904197693,27.519333362579346 72.3381757736206,27.682095766067505 72.3381757736206,27.682095766067505 72.86476492881775,27.85155177116394 72.86476492881775,27.85155177116394 73.38727712631226,28.028997778892517 73.38727712631226,28.028997778892517 73.90555143356323,28.21594774723053 73.90555143356323,28.21594774723053 74.41827058792114,28.41370403766632 74.41827058792114,28.41370403766632 75.63589215278625,28.943434357643127 75.63589215278625,28.943434357643127 76.82545185089111,29.534095525741577 76.82545185089111,29.534095525741577 77.98711657524109,30.179771780967712 77.98711657524109,30.179771780967712 79.12039160728455,30.87426722049713 79.12039160728455,30.87426722049713 80.2256166934967,31.61182701587677 80.2256166934967,31.61182701587677 81.30245208740234,32.38629698753357 81.30245208740234,32.38629698753357 82.33132362365723,33.166274428367615 82.33132362365723,33.166274428367615 83.36509466171265,33.98870527744293 83.36509466171265,33.98870527744293 84.37862992286682,34.85611975193024 84.37862992286682,34.85611975193024 85.3463351726532,35.77084243297577 85.3463351726532,35.77084243297577 86.24355792999268,36.73560619354248 86.24355792999268,36.73560619354248 87.0447039604187,37.75269389152527 87.0447039604187,37.75269389152527 87.59201169013977,38.60289752483368 87.59201169013977,38.60289752483368 88.06721568107605,39.49926793575287 88.06721568107605,39.49926793575287 88.47944736480713,40.43099582195282 88.47944736480713,40.43099582195282 88.83703351020813,41.38727784156799 88.83703351020813,41.38727784156799 89.14877772331238,42.35742390155792 89.14877772331238,42.35742390155792 89.42381739616394,43.33050847053528 89.42381739616394,43.33050847053528 89.6709680557251,44.31321620941162 89.6709680557251,44.31321620941162 89.88988995552063,45.30285596847534 89.88988995552063,45.30285596847534 90.08271098136902,46.298205852508545 90.08271098136902,46.298205852508545 90.25089740753174,47.297799587249756 90.25089740753174,47.297799587249756 90.39657711982727,48.30053150653839 90.39657711982727,48.30053150653839 90.5213713645935,49.305057525634766 90.5213713645935,49.305057525634766 90.56705236434937,49.763134121894836 90.56705236434937,49.763134121894836 90.60734510421753,50.137484073638916 90.60734510421753,50.137484073638916 90.66705107688904,50.45937895774841 90.66705107688904,50.45937895774841 90.77112674713135,50.75995326042175 90.77112674713135,50.75995326042175 90.94486236572266,51.07035040855408 90.94486236572266,51.07035040855408 91.21305346488953,51.421862840652466 91.21305346488953,51.421862840652466 92.82479882240295,53.34135293960571 92.82479882240295,53.34135293960571 94.41664218902588,55.32031059265137 94.41664218902588,55.32031059265137 95.94013094902039,57.366394996643066 95.94013094902039,57.366394996643066 97.34600782394409,59.48723554611206 97.34600782394409,59.48723554611206 98.58613610267639,61.690664291381836 98.58613610267639,61.690664291381836" stroke="white" stroke-width="0.1" /><polygon points="76.95139050483704,31.582382321357727 76.95139050483704,31.582382321357727 76.93605422973633,31.381118297576904 76.93605422973633,31.381118297576904 76.80375576019287,31.188541650772095 76.80375576019287,31.188541650772095 76.59674286842346,31.010767817497253 76.59674286842346,31.010767817497253 76.35759115219116,30.853834748268127 76.35759115219116,30.853834748268127 76.12936496734619,30.723899602890015 76.12936496734619,30.723899602890015 75.9543240070343,30.62708079814911 75.9543240070343,30.62708079814911 75.54323077201843,30.389559268951416 75.54323077201843,30.389559268951416 75.07292032241821,30.134543776512146 75.07292032241821,30.134543776512146 74.55759048461914,29.878956079483032 74.55759048461914,29.878956079483032 74.01044368743896,29.639601707458496 74.01044368743896,29.639601707458496 73.44584465026855,29.433566331863403 73.44584465026855,29.433566331863403 72.87700176239014,29.277652502059937 72.87700176239014,29.277652502059937 72.7292001247406,29.24726903438568 72.7292001247406,29.24726903438568 72.58238196372986,29.22157645225525 72.58238196372986,29.22157645225525 72.4367082118988,29.200980067253113 72.4367082118988,29.200980067253113 72.29217290878296,29.18572723865509 72.29217290878296,29.18572723865509 72.14959263801575,29.17642891407013 72.14959263801575,29.17642891407013 72.00914025306702,29.173246026039124 72.00914025306702,29.173246026039124 71.83540463447571,29.178386926651 71.83540463447571,29.178386926651 71.66525721549988,29.19408679008484 71.66525721549988,29.19408679008484 71.49967551231384,29.22120690345764 71.49967551231384,29.22120690345764 71.33866548538208,29.26015555858612 71.33866548538208,29.26015555858612 71.1835265159607,29.311826825141907 71.1835265159607,29.311826825141907 71.03425860404968,29.376837611198425 71.03425860404968,29.376837611198425 70.8125650882721,29.53801155090332 70.8125650882721,29.53801155090332 70.69429159164429,29.742416739463806 70.69429159164429,29.742416739463806 70.66705226898193,29.98238205909729 70.66705226898193,29.98238205909729 70.71696519851685,30.250081419944763 70.71696519851685,30.250081419944763 70.83165049552917,30.538052320480347 70.83165049552917,30.538052320480347 70.99772095680237,30.838501453399658 70.99772095680237,30.838501453399658 71.27993702888489,31.245434284210205 71.27993702888489,31.245434284210205 71.60261273384094,31.642252206802368 71.60261273384094,31.642252206802368 71.93556427955627,32.01044201850891 71.93556427955627,32.01044201850891 72.2486138343811,32.33160674571991 72.2486138343811,32.33160674571991 72.51158356666565,32.587480545043945 72.51158356666565,32.587480545043945 72.69429564476013,32.759544253349304 72.69429564476013,32.759544253349304 73.02659153938293,33.08744132518768 73.02659153938293,33.08744132518768 73.39298725128174,33.4482878446579 73.39298725128174,33.4482878446579 73.78515601158142,33.80098044872284 73.78515601158142,33.80098044872284 74.19347763061523,34.103915095329285 74.19347763061523,34.103915095329285 74.60930347442627,34.316110610961914 74.60930347442627,34.316110610961914 75.02381801605225,34.396085143089294 75.02381801605225,34.396085143089294 75.1815676689148,34.382832050323486 75.1815676689148,34.382832050323486 75.33703446388245,34.341150522232056 75.33703446388245,34.341150522232056 75.49005150794983,34.268516302108765 75.49005150794983,34.268516302108765 75.63948035240173,34.16203260421753 75.63948035240173,34.16203260421753 75.78532099723816,34.01937186717987 75.78532099723816,34.01937186717987 75.92691779136658,33.83752107620239 75.92691779136658,33.83752107620239 76.14780068397522,33.492863178253174 76.14780068397522,33.492863178253174 76.34910345077515,33.12985301017761 76.34910345077515,33.12985301017761 76.53067111968994,32.7530175447464 76.53067111968994,32.7530175447464 76.6916811466217,32.3665589094162 76.6916811466217,32.3665589094162 76.8323004245758,31.974878907203674 76.8323004245758,31.974878907203674" stroke="white" stroke-width="0.1" /><polygon points="87.31876015663147,44.41109299659729 87.31876015663147,44.41109299659729 87.36998438835144,43.60799491405487 87.36998438835144,43.60799491405487 87.28205561637878,42.806077003479004 87.28205561637878,42.806077003479004 87.08613514900208,42.01272428035736 87.08613514900208,42.01272428035736 86.81175112724304,41.235196590423584 86.81175112724304,41.235196590423584 86.48988604545593,40.480995178222656 86.48988604545593,40.480995178222656 86.15073561668396,39.75726068019867 86.15073561668396,39.75726068019867 85.73817610740662,38.99714648723602 85.73817610740662,38.99714648723602 85.26199460029602,38.286298513412476 85.26199460029602,38.286298513412476 84.73148941993713,37.61859834194183 84.73148941993713,37.61859834194183 84.15563106536865,36.987560987472534 84.15563106536865,36.987560987472534 83.54372382164001,36.387112736701965 83.54372382164001,36.387112736701965 82.9050600528717,35.810768604278564 82.9050600528717,35.810768604278564 82.51289129257202,35.45917868614197 82.51289129257202,35.45917868614197 82.04681873321533,35.052937269210815 82.04681873321533,35.052937269210815 81.52610659599304,34.64502692222595 81.52610659599304,34.64502692222595 80.96949458122253,34.288132190704346 80.96949458122253,34.288132190704346 80.39625287055969,34.035277366638184 80.39625287055969,34.035277366638184 79.82512712478638,33.93931686878204 79.82512712478638,33.93931686878204 79.72871661186218,33.9426189661026 79.72871661186218,33.9426189661026 79.63230013847351,33.95256996154785 79.63230013847351,33.95256996154785 79.53670620918274,33.96933376789093 79.53670620918274,33.96933376789093 79.44176197052002,33.99302661418915 79.44176197052002,33.99302661418915 79.34828996658325,34.02386009693146 79.34828996658325,34.02386009693146 79.25611734390259,34.061992168426514 79.25611734390259,34.061992168426514 78.7322998046875,34.42088067531586 78.7322998046875,34.42088067531586 78.27895879745483,34.93988811969757 78.27895879745483,34.93988811969757 77.8907060623169,35.56150197982788 77.8907060623169,35.56150197982788 77.56117582321167,36.228346824645996 77.56117582321167,36.228346824645996 77.28483080863953,36.88303530216217 77.28483080863953,36.88303530216217 77.05579400062561,37.468189001083374 77.05579400062561,37.468189001083374 77.01957821846008,37.65673041343689 77.01957821846008,37.65673041343689 77.05758810043335,37.81835436820984 77.05758810043335,37.81835436820984 77.15106010437012,37.96182870864868 77.15106010437012,37.96182870864868 77.28075385093689,38.09592425823212 77.28075385093689,38.09592425823212 77.42854952812195,38.229528069496155 77.42854952812195,38.229528069496155 77.5752067565918,38.371288776397705 77.5752067565918,38.371288776397705 78.09886336326599,38.927775621414185 78.09886336326599,38.927775621414185 78.62545251846313,39.48046565055847 78.62545251846313,39.48046565055847 79.15481328964233,40.030017495155334 79.15481328964233,40.030017495155334 79.68646287918091,40.57687819004059 79.68646287918091,40.57687819004059 80.22072315216064,41.12178087234497 80.22072315216064,41.12178087234497 80.75693845748901,41.665253043174744 80.75693845748901,41.665253043174744 81.19494318962097,42.10314154624939 81.19494318962097,42.10314154624939 81.63425922393799,42.53992736339569 81.63425922393799,42.53992736339569 82.07520842552185,42.975857853889465 82.07520842552185,42.975857853889465 82.51729607582092,43.411093950271606 82.51729607582092,43.411093950271606 82.96101689338684,43.845921754837036 82.96101689338684,43.845921754837036 83.40620398521423,44.28058862686157 83.40620398521423,44.28058862686157 83.6624801158905,44.530344009399414 83.6624801158905,44.530344009399414 83.91941785812378,44.77883577346802 83.91941785812378,44.77883577346802 84.17699933052063,45.02642750740051 84.17699933052063,45.02642750740051 84.43491458892822,45.27353346347809 84.43491458892822,45.27353346347809 84.69364047050476,45.52067816257477 84.69364047050476,45.52067816257477 84.95269417762756,45.76835334300995 84.95269417762756,45.76835334300995 85.23067235946655,45.486462116241455 85.23067235946655,45.486462116241455 85.35628318786621,45.362481474876404 85.35628318786621,45.362481474876404 85.54502725601196,45.17924189567566 85.54502725601196,45.17924189567566 85.77536940574646,44.97324824333191 85.77536940574646,44.97324824333191 86.02381944656372,44.78091597557068 86.02381944656372,44.78091597557068 86.2688422203064,44.638827443122864 86.2688422203064,44.638827443122864 86.48744225502014,44.583362340927124 86.48744225502014,44.583362340927124 86.51648163795471,44.58474814891815 86.51648163795471,44.58474814891815 86.54486536979675,44.589072465896606 86.54486536979675,44.589072465896606 86.57259941101074,44.59673762321472 86.57259941101074,44.59673762321472 86.59886121749878,44.607993960380554 86.59886121749878,44.607993960380554 86.6241455078125,44.623491168022156 86.6241455078125,44.623491168022156 86.64796352386475,44.64339315891266 86.64796352386475,44.64339315891266 86.71908974647522,44.70505714416504 86.71908974647522,44.70505714416504 86.78532242774963,44.75448727607727 86.78532242774963,44.75448727607727 86.8478000164032,44.79217231273651 86.8478000164032,44.79217231273651 86.90571188926697,44.81847584247589 86.90571188926697,44.81847584247589 86.959707736969,44.834014773368835 86.959707736969,44.834014773368835 87.00946569442749,44.839152693748474 87.00946569442749,44.839152693748474 87.08776831626892,44.824472069740295 87.08776831626892,44.824472069740295 87.1544897556305,44.78271007537842 87.1544897556305,44.78271007537842 87.21060752868652,44.717130064964294 87.21060752868652,44.717130064964294 87.25612163543701,44.63107883930206 87.25612163543701,44.63107883930206 87.29200959205627,44.52793896198273 87.29200959205627,44.52793896198273" stroke="white" stroke-width="0.1" /><polygon points="23.198695480823517,13.131484389305115 23.198695480823517,13.131484389305115 22.075042128562927,12.009135633707047 22.075042128562927,12.009135633707047 33.905383944511414,15.38662314414978 33.905383944511414,15.38662314414978 33.671778440475464,9.72006544470787 33.671778440475464,9.72006544470787 33.741435408592224,8.76990258693695 33.741435408592224,8.76990258693695 34.018272161483765,8.07732492685318 34.018272161483765,8.07732492685318 34.47373807430267,7.657422870397568 34.47373807430267,7.657422870397568 35.07862985134125,7.524999976158142 35.07862985134125,7.524999976158142 35.804569721221924,7.695147395133972 35.804569721221924,7.695147395133972 36.622512340545654,8.18270817399025 36.622512340545654,8.18270817399025 41.143232583999634,11.628059297800064 41.143232583999634,11.628059297800064 45.81533670425415,4.105709865689278 45.81533670425415,4.105709865689278 46.421533823013306,3.3534258604049683 46.421533823013306,3.3534258604049683 47.08124101161957,2.919657528400421 47.08124101161957,2.919657528400421 47.75889217853546,2.802283875644207 47.75889217853546,2.802283875644207 48.4177827835083,2.999143674969673 48.4177827835083,2.999143674969673 49.02234971523285,3.508279100060463 49.02234971523285,3.508279100060463 49.53605532646179,4.327569529414177 49.53605532646179,4.327569529414177 53.289395570755005,12.345840781927109 53.289395570755005,12.345840781927109 58.18466544151306,9.456443786621094 58.18466544151306,9.456443786621094 59.05448794364929,9.06786322593689 59.05448794364929,9.06786322593689 59.795600175857544,8.983524143695831 59.795600175857544,8.983524143695831 60.38075089454651,9.1856449842453 60.38075089454651,9.1856449842453 60.78287363052368,9.656117856502533 60.78287363052368,9.656117856502533 60.97487807273865,10.377079993486404 60.97487807273865,10.377079993486404 60.93050837516785,11.330506205558777 60.93050837516785,11.330506205558777 60.035240650177,16.93442165851593 60.035240650177,16.93442165851593 75.22740960121155,14.470472931861877 75.22740960121155,14.470472931861877 76.15758776664734,14.412480592727661 76.15758776664734,14.412480592727661 76.81615352630615,14.560481905937195 76.81615352630615,14.560481905937195 77.1910309791565,14.892660081386566 77.1910309791565,14.892660081386566 77.26966142654419,15.387031435966492 77.26966142654419,15.387031435966492 77.03996896743774,16.021859645843506 77.03996896743774,16.021859645843506 76.48940086364746,16.775204241275787 76.48940086364746,16.775204241275787 71.67896032333374,22.180750966072083 71.67896032333374,22.180750966072083 71.4867889881134,22.12781459093094 71.4867889881134,22.12781459093094 71.29364013671875,22.073736786842346 71.29364013671875,22.073736786842346 71.1003303527832,22.019250690937042 71.1003303527832,22.019250690937042 70.90685367584229,21.964886784553528 70.90685367584229,21.964886784553528 70.71436047554016,21.911542117595673 70.71436047554016,21.911542117595673 70.52267789840698,21.859706938266754 70.52267789840698,21.859706938266754 69.16933059692383,21.48907035589218 69.16933059692383,21.48907035589218 68.96085143089294,21.39682024717331 68.96085143089294,21.39682024717331 68.70261430740356,21.233075857162476 68.70261430740356,21.233075857162476 68.40783357620239,21.014682948589325 68.40783357620239,21.014682948589325 68.08890700340271,20.758360624313354 68.08890700340271,20.758360624313354 67.7590548992157,20.481158792972565 67.7590548992157,20.481158792972565 67.43099689483643,20.199674367904663 67.43099689483643,20.199674367904663 67.29021668434143,20.07683664560318 67.29021668434143,20.07683664560318 67.14829206466675,19.953835010528564 67.14829206466675,19.953835010528564 67.00538396835327,19.830995798110962 67.00538396835327,19.830995798110962 66.86117649078369,19.708524644374847 66.86117649078369,19.708524644374847 66.71648025512695,19.586868584156036 66.71648025512695,19.586868584156036 66.57096743583679,19.466231763362885 66.57096743583679,19.466231763362885 66.54013395309448,19.438663125038147 66.54013395309448,19.438663125038147 66.50881171226501,19.41084861755371 66.50881171226501,19.41084861755371 66.47716164588928,19.383035600185394 66.47716164588928,19.383035600185394 66.44502878189087,19.35538351535797 66.44502878189087,19.35538351535797 66.41288995742798,19.328223168849945 66.41288995742798,19.328223168849945 66.3804292678833,19.301794469356537 66.3804292678833,19.301794469356537 65.76835513114929,18.859747052192688 65.76835513114929,18.859747052192688 65.13214111328125,18.499021232128143 65.13214111328125,18.499021232128143 64.4739031791687,18.219250440597534 64.4739031791687,18.219250440597534 63.79510760307312,18.019862473011017 63.79510760307312,18.019862473011017 63.09804320335388,17.900653183460236 63.09804320335388,17.900653183460236 62.38434314727783,17.861011624336243 62.38434314727783,17.861011624336243 61.04779839515686,17.997553944587708 61.04779839515686,17.997553944587708 59.83361005783081,18.35876852273941 59.83361005783081,18.35876852273941 58.749920129776,18.87243092060089 58.749920129776,18.87243092060089 57.8044056892395,19.46606934070587 57.8044056892395,19.46606934070587 57.005876302719116,20.067456364631653 57.005876302719116,20.067456364631653 56.36150240898132,20.604242384433746 56.36150240898132,20.604242384433746 56.14877939224243,20.781730115413666 56.14877939224243,20.781730115413666 56.052201986312866,20.862847566604614 56.052201986312866,20.862847566604614 55.957913398742676,20.944209396839142 55.957913398742676,20.944209396839142 55.865418910980225,21.025775372982025 55.865418910980225,21.025775372982025 55.77373504638672,21.10721915960312 55.77373504638672,21.10721915960312 55.68336248397827,21.188662946224213 55.68336248397827,21.188662946224213 55.59282302856445,21.269820630550385 55.59282302856445,21.269820630550385 54.99086380004883,21.376019716262817 54.99086380004883,21.376019716262817 54.32300567626953,21.558156609535217 54.32300567626953,21.558156609535217 53.61142158508301,21.838825941085815 53.61142158508301,21.838825941085815 52.87700295448303,22.240376472473145 52.87700295448303,22.240376472473145 52.142250537872314,22.78531938791275 52.142250537872314,22.78531938791275 51.42838954925537,23.496249318122864 51.42838954925537,23.496249318122864 49.114519357681274,21.851876378059387 49.114519357681274,21.851876378059387 46.62283957004547,20.463010668754578 46.62283957004547,20.463010668754578 43.972596526145935,19.349102675914764 43.972596526145935,19.349102675914764 41.18254482746124,18.52944642305374 41.18254482746124,18.52944642305374 38.272106647491455,18.023450672626495 38.272106647491455,18.023450672626495 35.26003360748291,17.850571870803833 35.26003360748291,17.850571870803833 34.14061963558197,17.874348163604736 34.14061963558197,17.874348163604736 33.03311765193939,17.944902181625366 33.03311765193939,17.944902181625366 31.938499212265015,18.061338365077972 31.938499212265015,18.061338365077972 30.857422947883606,18.22243183851242 30.857422947883606,18.22243183851242 29.791519045829773,18.4275284409523 29.791519045829773,18.4275284409523 28.741273283958435,18.675367534160614 28.741273283958435,18.675367534160614 27.573245763778687,17.508646845817566 27.573245763778687,17.508646845817566 23.45970720052719,13.392496109008789 23.45970720052719,13.392496109008789" stroke="white" stroke-width="0.1" /><polygon points="65.94583988189697,44.01174783706665 65.94583988189697,44.01174783706665 65.33752083778381,44.698166847229004 65.33752083778381,44.698166847229004 64.64225053787231,45.2633798122406 64.64225053787231,45.2633798122406 63.87748718261719,45.70571184158325 63.87748718261719,45.70571184158325 63.060033321380615,46.02361619472504 63.060033321380615,46.02361619472504 62.20718026161194,46.215540170669556 62.20718026161194,46.215540170669556 61.33638024330139,46.27993702888489 61.33638024330139,46.27993702888489 61.30440831184387,46.279528737068176 61.30440831184387,46.279528737068176 61.27178072929382,46.278467774391174 61.27178072929382,46.278467774391174 61.239153146743774,46.27699851989746 61.239153146743774,46.27699851989746 61.20636463165283,46.275246143341064 61.20636463165283,46.275246143341064 61.17389798164368,46.27353250980377 61.17389798164368,46.27353250980377 61.14192605018616,46.2721049785614 61.14192605018616,46.2721049785614 61.177003383636475,45.87300419807434 61.177003383636475,45.87300419807434 61.205875873565674,45.47186195850372 61.205875873565674,45.47186195850372 61.22903823852539,45.06884217262268 61.22903823852539,45.06884217262268 61.24551296234131,44.663989543914795 61.24551296234131,44.663989543914795 61.25579476356506,44.257667660713196 61.25579476356506,44.257667660713196 61.25938296318054,43.849921226501465 61.25938296318054,43.849921226501465 61.21533513069153,42.328426241874695 61.21533513069153,42.328426241874695 61.08418107032776,40.8298134803772 61.08418107032776,40.8298134803772 60.86965799331665,39.35660719871521 60.86965799331665,39.35660719871521 60.57389974594116,37.911176681518555 60.57389974594116,37.911176681518555 60.19999980926514,36.496126651763916 60.19999980926514,36.496126651763916 59.75073575973511,35.11386811733246 59.75073575973511,35.11386811733246 60.017454624176025,35.0431889295578 60.017454624176025,35.0431889295578 60.28662323951721,34.985196590423584 60.28662323951721,34.985196590423584 60.55840253829956,34.93996858596802 60.55840253829956,34.93996858596802 60.83148717880249,34.90746319293976 60.83148717880249,34.90746319293976 61.106038093566895,34.88805294036865 61.106038093566895,34.88805294036865 61.38074994087219,34.88156795501709 61.38074994087219,34.88156795501709 62.03034520149231,34.9175363779068 62.03034520149231,34.9175363779068 62.67292499542236,35.02577543258667 62.67292499542236,35.02577543258667 63.30196261405945,35.20685136318207 63.30196261405945,35.20685136318207 63.90979290008545,35.4611337184906 63.90979290008545,35.4611337184906 64.49037790298462,35.7893168926239 64.49037790298462,35.7893168926239 65.03621935844421,36.19184494018555 65.03621935844421,36.19184494018555 66.02643132209778,37.273165583610535 66.02643132209778,37.273165583610535 66.69299006462097,38.54172229766846 66.69299006462097,38.54172229766846 67.02773571014404,39.92365598678589 67.02773571014404,39.92365598678589 67.02072024345398,41.345107555389404 67.02072024345398,41.345107555389404 66.66329503059387,42.7324652671814 66.66329503059387,42.7324652671814" stroke="white" stroke-width="0.1" /><polygon points="89.31028246879578,58.868515491485596 89.31028246879578,58.868515491485596 90.27145504951477,59.907710552215576 90.27145504951477,59.907710552215576 90.93409776687622,61.12328767776489 90.93409776687622,61.12328767776489 91.28891229629517,62.44959235191345 91.28891229629517,62.44959235191345 91.32496118545532,63.82112503051758 91.32496118545532,63.82112503051758 91.03311896324158,65.17235040664673 91.03311896324158,65.17235040664673 90.40261507034302,66.43784642219543 90.40261507034302,66.43784642219543 89.79445695877075,67.19576120376587 89.79445695877075,67.19576120376587 89.08222317695618,67.82300472259521 89.08222317695618,67.82300472259521 88.28662633895874,68.31647753715515 88.28662633895874,68.31647753715515 87.42773532867432,68.67280006408691 87.42773532867432,68.67280006408691 86.52691841125488,68.88903379440308 86.52691841125488,68.88903379440308 85.60391664505005,68.96182894706726 85.60391664505005,68.96182894706726 84.963458776474,68.92667412757874 84.963458776474,68.92667412757874 84.32855010032654,68.82043480873108 84.32855010032654,68.82043480873108 83.70652794837952,68.64209175109863 83.70652794837952,68.64209175109863 83.10359120368958,68.3906614780426 83.10359120368958,68.3906614780426 82.52675533294678,68.06517243385315 82.52675533294678,68.06517243385315 81.98238611221313,67.66460537910461 81.98238611221313,67.66460537910461 80.92463612556458,66.49400591850281 80.92463612556458,66.49400591850281 80.24632930755615,65.11558294296265 80.24632930755615,65.11558294296265 79.95416522026062,63.62088322639465 79.95416522026062,63.62088322639465 80.0541639328003,62.10130453109741 80.0541639328003,62.10130453109741 80.55285811424255,60.64857244491577 80.55285811424255,60.64857244491577 81.45644664764404,59.35400128364563 81.45644664764404,59.35400128364563 82.0448637008667,58.807504177093506 82.0448637008667,58.807504177093506 82.6936423778534,58.35877060890198 82.6936423778534,58.35877060890198 83.39135646820068,58.00848603248596 83.39135646820068,58.00848603248596 84.12545323371887,57.75734186172485 84.12545323371887,57.75734186172485 84.88433957099915,57.60616064071655 84.88433957099915,57.60616064071655 85.65611839294434,57.55562782287598 85.65611839294434,57.55562782287598 86.30571365356445,57.591599225997925 86.30571365356445,57.591599225997925 86.94796562194824,57.70000219345093 86.94796562194824,57.70000219345093 87.57667541503906,57.88124203681946 87.57667541503906,57.88124203681946 88.18450570106506,58.135974407196045 88.18450570106506,58.135974407196045 88.76460194587708,58.46489071846008 88.76460194587708,58.46489071846008" stroke="white" stroke-width="0.1" /><polygon points="33.03621709346771,21.050572395324707 33.03621709346771,21.050572395324707 39.39347565174103,21.904650330543518 39.39347565174103,21.904650330543518 45.105546712875366,24.314846098423004 45.105546712875366,24.314846098423004 49.94519054889679,28.053507208824158 49.94519054889679,28.053507208824158 53.68385314941406,32.89274275302887 53.68385314941406,32.89274275302887 56.09445571899414,38.604772090911865 56.09445571899414,38.604772090911865 56.94878101348877,44.961827993392944 56.94878101348877,44.961827993392944 56.094616651535034,51.31908655166626 56.094616651535034,51.31908655166626 53.68417501449585,57.03156590461731 53.68417501449585,57.03156590461731 49.94519054889679,61.87145113945007 49.94519054889679,61.87145113945007 45.10538578033447,65.61064720153809 45.10538578033447,65.61064720153809 39.393150806427,68.02141070365906 39.393150806427,68.02141070365906 33.03621709346771,68.87569427490234 33.03621709346771,68.87569427490234 26.67960822582245,68.0214524269104 26.67960822582245,68.0214524269104 20.967374742031097,65.61073064804077 20.967374742031097,65.61073064804077 16.127732396125793,61.87145113945007 16.127732396125793,61.87145113945007 12.38841786980629,57.0314884185791 12.38841786980629,57.0314884185791 9.977814555168152,51.31900906562805 9.977814555168152,51.31900906562805 9.123654663562775,44.961827993392944 9.123654663562775,44.961827993392944 9.386949986219406,41.40424430370331 9.386949986219406,41.40424430370331 10.151387006044388,38.01019787788391 10.151387006044388,38.01019787788391 11.378956586122513,34.81761813163757 11.378956586122513,34.81761813163757 13.031485676765442,31.864234805107117 13.031485676765442,31.864234805107117 15.071451663970947,29.188010096549988 15.071451663970947,29.188010096549988 17.460359632968903,26.826754212379456 17.460359632968903,26.826754212379456 13.757912814617157,22.06590622663498 13.757912814617157,22.06590622663498 13.543882966041565,21.758075058460236 13.543882966041565,21.758075058460236 13.363458216190338,21.435196697711945 13.363458216190338,21.435196697711945 13.219086825847626,21.09820693731308 13.219086825847626,21.09820693731308 13.112398982048035,20.747676491737366 13.112398982048035,20.747676491737366 13.046003878116608,20.384380221366882 13.046003878116608,20.384380221366882 13.021859526634216,20.009136199951172 13.021859526634216,20.009136199951172 13.037684559822083,19.698940217494965 13.037684559822083,19.698940217494965 13.093474507331848,19.3769171833992 13.093474507331848,19.3769171833992 13.192659616470337,19.051876664161682 13.192659616470337,19.051876664161682 13.338010013103485,18.732422590255737 13.338010013103485,18.732422590255737 13.533279299736023,18.427447974681854 13.533279299736023,18.427447974681854 13.781403005123138,18.145515024662018 13.781403005123138,18.145515024662018 9.395106136798859,12.510277330875397 9.395106136798859,12.510277330875397 9.360522031784058,12.463295459747314 9.360522031784058,12.463295459747314 9.326590597629547,12.416109442710876 9.326590597629547,12.416109442710876 9.293638169765472,12.36867904663086 9.293638169765472,12.36867904663086 9.261174499988556,12.320759147405624 9.261174499988556,12.320759147405624 9.22936424612999,12.272308766841888 9.22936424612999,12.272308766841888 9.198042750358582,12.223165482282639 9.198042750358582,12.223165482282639 1.970636285841465,9.101468324661255 1.970636285841465,9.101468324661255 1.465742290019989,8.829282224178314 1.465742290019989,8.829282224178314 1.007014699280262,8.488009870052338 1.007014699280262,8.488009870052338 0.6128874607384205,8.074388653039932 0.6128874607384205,8.074388653039932 0.3013050649315119,7.585033029317856 0.3013050649315119,7.585033029317856 0.09086460340768099,7.0166803896427155 0.09086460340768099,7.0166803896427155 0.0,6.366068869829178 0.0,6.366068869829178 0.004078303390997462,6.209176406264305 0.004078303390997462,6.209176406264305 0.018923328025266528,6.047838553786278 0.018923328025266528,6.047838553786278 0.04535073530860245,5.88417649269104 0.04535073530860245,5.88417649269104 0.08352365694008768,5.7202693074941635 0.08352365694008768,5.7202693074941635 0.1344208838418126,5.5582791566848755 0.1344208838418126,5.5582791566848755 0.19836868159472942,5.4003264755010605 0.19836868159472942,5.4003264755010605 1.8675368279218674,1.5399673953652382 1.8675368279218674,1.5399673953652382 2.0022839307785034,1.2739396654069424 2.0022839307785034,1.2739396654069424 2.1647635847330093,1.032381784170866 2.1647635847330093,1.032381784170866 2.350407838821411,0.8166395127773285 2.350407838821411,0.8166395127773285 2.5538336485624313,0.6274878047406673 2.5538336485624313,0.6274878047406673 2.769983746111393,0.4663132131099701 2.769983746111393,0.4663132131099701 2.993801049888134,0.3340946277603507 2.993801049888134,0.3340946277603507 3.2225124537944794,0.22601957898586988 3.2225124537944794,0.22601957898586988 3.453344479203224,0.1407830393873155 3.453344479203224,0.1407830393873155 3.6859706044197083,0.07699836860410869 3.6859706044197083,0.07699836860410869 3.91908660531044,0.03319739189464599 3.91908660531044,0.03319739189464599 4.152528569102287,0.008034257916733623 4.152528569102287,0.008034257916733623 4.384991899132729,0.0 4.384991899132729,0.0 4.620065540075302,0.008278956374851987 4.620065540075302,0.008278956374851987 4.854812473058701,0.03295269270893186 4.854812473058701,0.03295269270893186 5.088743939995766,0.07406199001707137 5.088743939995766,0.07406199001707137 5.320880934596062,0.1314437249675393 5.320880934596062,0.1314437249675393 5.5512238293886185,0.20509788300842047 5.5512238293886185,0.20509788300842047 5.7787928730249405,0.29494292102754116 5.7787928730249405,0.29494292102754116 14.235563576221466,3.9517130702733994 14.235563576221466,3.9517130702733994 14.62479680776596,4.151631519198418 14.62479680776596,4.151631519198418 14.98841792345047,4.39184345304966 14.98841792345047,4.39184345304966 15.319086611270905,4.673735797405243 15.319086611270905,4.673735797405243 15.608972311019897,4.9983687698841095 15.608972311019897,4.9983687698841095 15.85073471069336,5.367251485586166 15.85073471069336,5.367251485586166 16.036541759967804,5.781403183937073 16.036541759967804,5.781403183937073 16.20946228504181,5.896248295903206 16.20946228504181,5.896248295903206 16.375531256198883,6.021125987172127 16.375531256198883,6.021125987172127 16.53442084789276,6.155954673886299 16.53442084789276,6.155954673886299 16.685807704925537,6.300285458564758 16.685807704925537,6.300285458564758 16.82952791452408,6.453955918550491 16.82952791452408,6.453955918550491 16.96574240922928,6.616639345884323 16.96574240922928,6.616639345884323 22.62447029352188,13.888418674468994 22.62447029352188,13.888418674468994 22.62447029352188,13.888418674468994 22.62447029352188,13.888418674468994 22.62447029352188,13.888418674468994 22.62447029352188,13.888418674468994 22.62447029352188,13.888418674468994 22.62447029352188,13.888418674468994 22.624307870864868,13.888294994831085 22.624307870864868,13.888294994831085 22.624307870864868,13.888376951217651 22.624307870864868,13.888376951217651 22.62447029352188,13.888418674468994 22.62447029352188,13.888418674468994 22.839152812957764,14.196330308914185 22.839152812957764,14.196330308914185 23.019413650035858,14.51900601387024 23.019413650035858,14.51900601387024 23.163458704948425,14.855791628360748 23.163458704948425,14.855791628360748 23.2691690325737,15.205791592597961 23.2691690325737,15.205791592597961 23.33458513021469,15.568353235721588 23.33458513021469,15.568353235721588 23.35791289806366,15.94257801771164 23.35791289806366,15.94257801771164 23.34257811307907,16.25554710626602 23.34257811307907,16.25554710626602 23.28646034002304,16.5782630443573 23.28646034002304,16.5782630443573 23.186950385570526,16.902773082256317 23.186950385570526,16.902773082256317 23.041273653507233,17.220881581306458 23.041273653507233,17.220881581306458 22.846819460392,17.524714767932892 22.846819460392,17.524714767932892 22.6009801030159,17.806199193000793 22.6009801030159,17.806199193000793 25.95367133617401,22.118107974529266 25.95367133617401,22.118107974529266 27.084502577781677,21.797960996627808 27.084502577781677,21.797960996627808 28.237032890319824,21.53279036283493 28.237032890319824,21.53279036283493 29.410278797149658,21.323980391025543 29.410278797149658,21.323980391025543 30.60195744037628,21.17300182580948 30.60195744037628,21.17300182580948 31.811419129371643,21.081402897834778 31.811419129371643,21.081402897834778" stroke="white" stroke-width="0.1" /><polygon points="9.618271142244339,8.412398397922516 9.618271142244339,8.412398397922516 11.998695135116577,6.5592169761657715 11.998695135116577,6.5592169761657715 4.647308588027954,3.380097821354866 4.647308588027954,3.380097821354866 3.4440457820892334,6.162479892373085 3.4440457820892334,6.162479892373085 9.312887489795685,8.696901053190231 9.312887489795685,8.696901053190231 9.359217435121536,8.647390455007553 9.359217435121536,8.647390455007553 9.406851977109909,8.59820619225502 9.406851977109909,8.59820619225502 9.456280618906021,8.549755811691284 9.456280618906021,8.549755811691284 9.507667273283005,8.50236564874649 9.507667273283005,8.50236564874649 9.561501443386078,8.45644399523735 9.561501443386078,8.45644399523735" stroke="white" stroke-width="0.1" /><polygon points="13.551713526248932,12.507668137550354 13.551713526248932,12.507668137550354 16.360196471214294,16.114845871925354 16.360196471214294,16.114845871925354 17.29983687400818,15.384013950824738 17.29983687400818,15.384013950824738 17.53849983215332,15.21957665681839 17.53849983215332,15.21957665681839 17.790375649929047,15.088213980197906 17.790375649929047,15.088213980197906 18.05073469877243,14.988581836223602 18.05073469877243,14.988581836223602 18.314029276371002,14.919413626194 18.314029276371002,14.919413626194 18.576183915138245,14.879363775253296 18.576183915138245,14.879363775253296 18.831974267959595,14.867210388183594 18.831974267959595,14.867210388183594 18.904732167720795,14.870473742485046 18.904732167720795,14.870473742485046 18.976835906505585,14.87504094839096 18.976835906505585,14.87504094839096 19.04812455177307,14.880913496017456 19.04812455177307,14.880913496017456 19.118434190750122,14.888010919094086 19.118434190750122,14.888010919094086 19.188418984413147,14.896534383296967 19.188418984413147,14.896534383296967 19.257423281669617,14.906363189220428 19.257423281669617,14.906363189220428 15.15301913022995,9.633931517601013 15.15301913022995,9.633931517601013 14.341272413730621,11.515824496746063 14.341272413730621,11.515824496746063 14.243067800998688,11.716558039188385 14.243067800998688,11.716558039188385 14.128711819648743,11.903467029333115 14.128711819648743,11.903467029333115 14.00032639503479,12.076346576213837 14.00032639503479,12.076346576213837 13.859869539737701,12.234829366207123 13.859869539737701,12.234829366207123 13.709625601768494,12.378671020269394 13.709625601768494,12.378671020269394" stroke="white" stroke-width="0.1" /><polygon points="20.090049505233765,24.86133873462677 20.090049505233765,24.86133873462677 20.521697402000427,24.58890825510025 20.521697402000427,24.58890825510025 20.95889151096344,24.325041472911835 20.95889151096344,24.325041472911835 21.401958167552948,24.070148169994354 21.401958167552948,24.070148169994354 21.85073494911194,23.824593424797058 21.85073494911194,23.824593424797058 22.30571061372757,23.58882576227188 22.30571061372757,23.58882576227188 22.76672124862671,23.363132774829865 22.76672124862671,23.363132774829865 20.022186636924744,19.836868345737457 20.022186636924744,19.836868345737457 19.077324867248535,20.57292014360428 19.077324867248535,20.57292014360428 18.83980482816696,20.734992623329163 18.83980482816696,20.734992623329163 18.590864539146423,20.864437520503998 18.590864539146423,20.864437520503998 18.335074186325073,20.962806046009064 18.335074186325073,20.962806046009064 18.07667315006256,21.031281352043152 18.07667315006256,21.031281352043152 17.82071888446808,21.071411669254303 17.82071888446808,21.071411669254303 17.571289837360382,21.084503829479218 17.571289837360382,21.084503829479218 17.551714181900024,21.084503829479218 17.551714181900024,21.084503829479218 17.478303611278534,21.08234167098999 17.478303611278534,21.08234167098999 17.405547201633453,21.078427135944366 17.405547201633453,21.078427135944366 17.333605885505676,21.072757244110107 17.333605885505676,21.072757244110107 17.262153327465057,21.06529474258423 17.262153327465057,21.06529474258423 17.191843688488007,21.056240797042847 17.191843688488007,21.056240797042847 17.12234914302826,21.045351028442383 17.12234914302826,21.045351028442383" stroke="white" stroke-width="0.1" /></svg>