<?xml version="1.0" encoding="utf-8" ?>
<svg baseProfile="full" height="61.18221879005432" version="1.1" width="99.99884963035583" xmlns="http://www.w3.org/2000/svg" xmlns:ev="http://www.w3.org/2001/xml-events" xmlns:xlink="http://www.w3.org/1999/xlink"><defs><clipPath /></defs><polygon points="70.89228630065918,58.12954902648926 70.89228630065918,58.12954902648926 71.38108611106873,58.61172676086426 71.38108611106873,58.61172676086426 71.84688448905945,59.06996726989746 71.84688448905945,59.06996726989746 72.29057550430298,59.50470566749573 72.29057550430298,59.50470566749573 72.71202802658081,59.91635322570801 72.71202802658081,59.91635322570801 73.11214208602905,60.30533313751221 73.11214208602905,60.30533313751221 73.49104285240173,60.67207455635071 73.49104285240173,60.67207455635071 73.00940155982971,60.7833206653595 73.00940155982971,60.7833206653595 72.52110838890076,60.87701916694641 72.52110838890076,60.87701916694641 72.02720046043396,60.952067375183105 72.02720046043396,60.952067375183105 71.52689695358276,61.007243394851685 71.52689695358276,61.007243394851685 71.02084159851074,61.04142665863037 71.02084159851074,61.04142665863037 70.50891518592834,61.053407192230225 70.50891518592834,61.053407192230225 12.356873601675034,61.05238199234009 12.356873601675034,61.05238199234009 9.078269451856613,60.608917474746704 9.078269451856613,60.608917474746704 6.128598377108574,59.36158895492554 6.128598377108574,59.36158895492554 3.6270905286073685,57.42887258529663 3.6270905286073685,57.42887258529663 1.692463457584381,54.92916703224182 1.692463457584381,54.92916703224182 0.4436901770532131,51.98094844818115 0.4436901770532131,51.98094844818115 0.0,48.70266616344452 0.0,48.70266616344452 0.0,12.351762503385544 0.0,12.351762503385544 0.4436901770532131,9.073397517204285 0.4436901770532131,9.073397517204285 1.692335493862629,6.1249565333127975 1.692335493862629,6.1249565333127975 3.6270905286073685,3.6249183118343353 3.6270905286073685,3.6249183118343353 6.128726154565811,1.6917604953050613 6.128726154565811,1.6917604953050613 9.07839685678482,0.443961750715971 9.07839685678482,0.443961750715971 12.356873601675034,0.0 12.356873601675034,0.0 70.50891518592834,0.0020446552298380993 70.50891518592834,0.0020446552298380993 73.78777265548706,0.44514378532767296 73.78777265548706,0.44514378532767296 76.73705816268921,1.6923675313591957 76.73705816268921,1.6923675313591957 79.23856973648071,3.62517386674881 79.23856973648071,3.62517386674881 81.17344975471497,6.125028431415558 81.17344975471497,6.125028431415558 82.4237585067749,9.073404967784882 82.4237585067749,9.073404967784882 82.87090063095093,12.351762503385544 82.87090063095093,12.351762503385544 82.87090063095093,18.00318956375122 82.87090063095093,18.00318956375122 79.95726466178894,18.00318956375122 79.95726466178894,18.00318956375122 79.95726466178894,12.351762503385544 79.95726466178894,12.351762503385544 79.61555123329163,9.848321229219437 79.61555123329163,9.848321229219437 78.6583960056305,7.594416290521622 78.6583960056305,7.594416290521622 77.17755436897278,5.681457743048668 77.17755436897278,5.681457743048668 75.26426911354065,4.200856015086174 75.26426911354065,4.200856015086174 73.01093339920044,3.2440293580293655 73.01093339920044,3.2440293580293655 70.50891518592834,2.9023880138993263 70.50891518592834,2.9023880138993263 12.356873601675034,2.9013657942414284 12.356873601675034,2.9013657942414284 9.857027232646942,3.2434381544589996 9.857027232646942,3.2434381544589996 7.604072988033295,4.200552403926849 7.604072988033295,4.200552403926849 5.690531060099602,5.681329965591431 5.690531060099602,5.681329965591431 4.208539426326752,7.594376802444458 4.208539426326752,7.594376802444458 3.250490501523018,9.848321229219437 3.250490501523018,9.848321229219437 2.9085220769047737,12.351762503385544 2.9085220769047737,12.351762503385544 2.9085220769047737,48.70266616344452 2.9085220769047737,48.70266616344452 3.2502349466085434,51.1989951133728 3.2502349466085434,51.1989951133728 4.2084116488695145,53.4488320350647 4.2084116488695145,53.4488320350647 5.690531060099602,55.360573530197144 5.690531060099602,55.360573530197144 7.604072988033295,56.842589378356934 7.604072988033295,56.842589378356934 9.857027232646942,57.80327916145325 9.857027232646942,57.80327916145325 12.356873601675034,58.15101861953735 12.356873601675034,58.15101861953735 70.50891518592834,58.15101861953735 70.50891518592834,58.15101861953735 70.57331800460815,58.14949870109558 70.57331800460815,58.14949870109558 70.63721418380737,58.14635157585144 70.63721418380737,58.14635157585144 70.70098519325256,58.142197132110596 70.70098519325256,58.142197132110596 70.76449394226074,58.13761353492737 70.76449394226074,58.13761353492737 70.82813382148743,58.13320875167847 70.82813382148743,58.13320875167847" stroke="white" stroke-width="0.1" /><polygon points="44.40070986747742,44.29029822349548 44.40070986747742,44.29029822349548 44.66191530227661,44.325459003448486 44.66191530227661,44.325459003448486 44.89641189575195,44.4246381521225 44.89641189575195,44.4246381521225 45.09499967098236,44.578468799591064 45.09499967098236,44.578468799591064 45.24821937084198,44.7775274515152 45.24821937084198,44.7775274515152 45.3471302986145,45.01242935657501 45.3471302986145,45.01242935657501 45.382145047187805,45.27377784252167 45.382145047187805,45.27377784252167 45.382145047187805,51.15011930465698 45.382145047187805,51.15011930465698 45.3471302986145,51.41138434410095 45.3471302986145,51.41138434410095 45.24834752082825,51.646095514297485 45.24834752082825,51.646095514297485 45.09499967098236,51.844918727874756 45.09499967098236,51.844918727874756 44.896283745765686,51.99849009513855 44.896283745765686,51.99849009513855 44.661787152290344,52.097493410110474 44.661787152290344,52.097493410110474 44.40070986747742,52.13257670402527 44.40070986747742,52.13257670402527 38.522326946258545,52.13257670402527 38.522326946258545,52.13257670402527 38.26074004173279,52.097493410110474 38.26074004173279,52.097493410110474 38.02611529827118,51.99849605560303 38.02611529827118,51.99849605560303 37.82765567302704,51.844918727874756 37.82765567302704,51.844918727874756 37.674304842948914,51.64608955383301 37.674304842948914,51.64608955383301 37.575650215148926,51.411372423172 37.575650215148926,51.411372423172 37.54089176654816,51.15011930465698 37.54089176654816,51.15011930465698 37.54089176654816,45.27377784252167 37.54089176654816,45.27377784252167 37.57590651512146,45.01243829727173 37.57590651512146,45.01243829727173 37.67456114292145,44.777533411979675 37.67456114292145,44.777533411979675 37.82765567302704,44.578468799591064 37.82765567302704,44.578468799591064 38.02611529827118,44.424623250961304 38.02611529827118,44.424623250961304 38.26074004173279,44.325441122055054 38.26074004173279,44.325441122055054 38.522326946258545,44.29029822349548 38.522326946258545,44.29029822349548" stroke="white" stroke-width="0.1" /><polygon points="53.40128540992737,12.694242596626282 53.40128540992737,12.694242596626282 53.955256938934326,13.293501734733582 53.955256938934326,13.293501734733582 54.47050929069519,13.925124704837799 54.47050929069519,13.925124704837799 54.946404695510864,14.58810418844223 54.946404695510864,14.58810418844223 55.381786823272705,15.28140902519226 55.381786823272705,15.28140902519226 55.776405334472656,16.00402742624283 55.776405334472656,16.00402742624283 56.12885355949402,16.7549267411232 56.12885355949402,16.7549267411232 56.436192989349365,17.53688007593155 56.436192989349365,17.53688007593155 56.68832063674927,18.338128924369812 56.68832063674927,18.338128924369812 56.88499212265015,19.157397747039795 56.88499212265015,19.157397747039795 57.025688886642456,19.993357360363007 57.025688886642456,19.993357360363007 57.1105420589447,20.844708383083344 57.1105420589447,20.844708383083344 57.13891386985779,21.710149943828583 57.13891386985779,21.710149943828583 57.11067318916321,22.575293481349945 57.11067318916321,22.575293481349945 57.02594518661499,23.42666983604431 57.02594518661499,23.42666983604431 56.88499212265015,24.262773990631104 56.88499212265015,24.262773990631104 56.68819546699524,25.082090497016907 56.68819546699524,25.082090497016907 56.43606185913086,25.883114337921143 56.43606185913086,25.883114337921143 56.12885355949402,26.66434943675995 56.12885355949402,26.66434943675995 55.774617195129395,27.41745412349701 55.774617195129395,27.41745412349701 55.37667274475098,28.14047932624817 55.37667274475098,28.14047932624817 54.93605136871338,28.832322359085083 54.93605136871338,28.832322359085083 54.45312857627869,29.49187457561493 54.45312857627869,29.49187457561493 53.92918586730957,30.1180362701416 53.92918586730957,30.1180362701416 53.364479541778564,30.709698796272278 53.364479541778564,30.709698796272278 52.76641845703125,31.263530254364014 52.76641845703125,31.263530254364014 52.13538408279419,31.778597831726074 52.13538408279419,31.778597831726074 51.47227644920349,32.254308462142944 51.47227644920349,32.254308462142944 50.77824592590332,32.69006013870239 50.77824592590332,32.69006013870239 50.05418062210083,33.085259795188904 50.05418062210083,33.085259795188904 49.30174946784973,33.43931436538696 49.30174946784973,33.43931436538696 48.67352843284607,33.69130194187164 48.67352843284607,33.69130194187164 48.034319281578064,33.907389640808105 48.034319281578064,33.907389640808105 47.38488495349884,34.087470173835754 47.38488495349884,34.087470173835754 46.725866198539734,34.23142731189728 46.725866198539734,34.23142731189728 46.05803191661835,34.339144825935364 46.05803191661835,34.339144825935364 45.382145047187805,34.41052436828613 45.382145047187805,34.41052436828613 45.382145047187805,39.34325575828552 45.382145047187805,39.34325575828552 45.3471302986145,39.60459530353546 45.3471302986145,39.60459530353546 45.24834752082825,39.839500188827515 45.24834752082825,39.839500188827515 45.09499967098236,40.038567781448364 45.09499967098236,40.038567781448364 44.896283745765686,40.192386507987976 44.896283745765686,40.192386507987976 44.661787152290344,40.29157757759094 44.661787152290344,40.29157757759094 44.40070986747742,40.32673537731171 44.40070986747742,40.32673537731171 38.522326946258545,40.32673537731171 38.522326946258545,40.32673537731171 38.26074004173279,40.29158353805542 38.26074004173279,40.29158353805542 38.02611529827118,40.19239544868469 38.02611529827118,40.19239544868469 37.82765567302704,40.038567781448364 37.82765567302704,40.038567781448364 37.674304842948914,39.839500188827515 37.674304842948914,39.839500188827515 37.575650215148926,39.604589343070984 37.575650215148926,39.604589343070984 37.54089176654816,39.34325575828552 37.54089176654816,39.34325575828552 37.54089176654816,27.587512135505676 37.54089176654816,27.587512135505676 37.57590651512146,27.32624113559723 37.57590651512146,27.32624113559723 37.67456114292145,27.091529965400696 37.67456114292145,27.091529965400696 37.82765567302704,26.892712712287903 37.82765567302704,26.892712712287903 38.02611529827118,26.739123463630676 38.02611529827118,26.739123463630676 38.26074004173279,26.64012312889099 38.26074004173279,26.64012312889099 38.522326946258545,26.60505473613739 38.522326946258545,26.60505473613739 44.40070986747742,26.60505473613739 44.40070986747742,26.60505473613739 44.73935663700104,26.5944242477417 44.73935663700104,26.5944242477417 45.06969749927521,26.56257152557373 45.06969749927521,26.56257152557373 45.391473174095154,26.509594917297363 45.391473174095154,26.509594917297363 45.70405185222626,26.435571908950806 45.70405185222626,26.435571908950806 46.007171273231506,26.34059190750122 46.007171273231506,26.34059190750122 46.30019664764404,26.22474730014801 46.30019664764404,26.22474730014801 46.58619165420532,26.08794867992401 46.58619165420532,26.08794867992401 46.861326694488525,25.93417465686798 46.861326694488525,25.93417465686798 47.12521433830261,25.763550400733948 47.12521433830261,25.763550400733948 47.37734496593475,25.57612955570221 47.37734496593475,25.57612955570221 47.61771857738495,25.372013449668884 47.61771857738495,25.372013449668884 47.845953702926636,25.15130341053009 47.845953702926636,25.15130341053009 48.06243181228638,24.913692474365234 48.06243181228638,24.913692474365234 48.26408624649048,24.664293229579926 48.26408624649048,24.664293229579926 48.45040738582611,24.40359890460968 48.45040738582611,24.40359890460968 48.6211359500885,24.132075905799866 48.6211359500885,24.132075905799866 48.77627193927765,23.850224912166595 48.77627193927765,23.850224912166595 48.915308713912964,23.558518290519714 48.915308713912964,23.558518290519714 49.03172552585602,23.266051709651947 49.03172552585602,23.266051709651947 49.12706017494202,22.966621816158295 49.12706017494202,22.966621816158295 49.20156002044678,22.660785913467407 49.20156002044678,22.660785913467407 49.25472140312195,22.349056601524353 49.25472140312195,22.349056601524353 49.28692579269409,22.032006084918976 49.28692579269409,22.032006084918976 49.29766058921814,21.710149943828583 49.29766058921814,21.710149943828583 49.28692579269409,21.372301876544952 49.28692579269409,21.372301876544952 49.254849553108215,21.04211449623108 49.254849553108215,21.04211449623108 49.20181632041931,20.720280706882477 49.20181632041931,20.720280706882477 49.127569794654846,20.407472550868988 49.127569794654846,20.407472550868988 49.03287589550018,20.104384422302246 49.03287589550018,20.104384422302246 48.91735315322876,19.811686873435974 48.91735315322876,19.811686873435974 48.77806305885315,19.5212259888649 48.77806305885315,19.5212259888649 48.6217737197876,19.240956008434296 48.6217737197876,19.240956008434296 48.448872566223145,18.97120624780655 48.448872566223145,18.97120624780655 48.25923144817352,18.71226131916046 48.25923144817352,18.71226131916046 48.05348813533783,18.464457988739014 48.05348813533783,18.464457988739014 47.831642627716064,18.22810173034668 47.831642627716064,18.22810173034668 47.59446084499359,18.00527423620224 47.59446084499359,18.00527423620224 47.346290946006775,17.799027264118195 47.346290946006775,17.799027264118195 47.08751440048218,17.609593272209167 47.08751440048218,17.609593272209167 46.81800305843353,17.437195777893066 46.81800305843353,17.437195777893066 46.53852581977844,17.282064259052277 46.53852581977844,17.282064259052277 46.24907970428467,17.14443415403366 46.24907970428467,17.14443415403366 45.95669209957123,17.027801275253296 45.95669209957123,17.027801275253296 45.65766155719757,16.932429373264313 45.65766155719757,16.932429373264313 45.352113246917725,16.858309507369995 45.352113246917725,16.858309507369995 45.04043161869049,16.80539697408676 45.04043161869049,16.80539697408676 44.723254442214966,16.77367240190506 44.723254442214966,16.77367240190506 44.40070986747742,16.763105988502502 44.40070986747742,16.763105988502502 38.522326946258545,16.763105988502502 38.522326946258545,16.763105988502502 38.18189203739166,16.773760318756104 38.18189203739166,16.773760318756104 37.848228216171265,16.80573970079422 37.848228216171265,16.80573970079422 37.521594762802124,16.85907691717148 37.521594762802124,16.85907691717148 37.2023731470108,16.93379431962967 37.2023731470108,16.93379431962967 36.89145743846893,17.02992469072342 36.89145743846893,17.02992469072342 36.58910393714905,17.147500813007355 36.58910393714905,17.147500813007355 36.29326820373535,17.28479713201523 36.29326820373535,17.28479713201523 36.0102117061615,17.43784248828888 36.0102117061615,17.43784248828888 35.74044704437256,17.606398463249207 35.74044704437256,17.606398463249207 35.48396825790405,17.79020130634308 35.48396825790405,17.79020130634308 35.24167835712433,17.989005148410797 35.24167835712433,17.989005148410797 35.013699531555176,18.202543258666992 35.013699531555176,18.202543258666992 34.80028808116913,18.43106597661972 34.80028808116913,18.43106597661972 34.601572155952454,18.673723936080933 34.601572155952454,18.673723936080933 34.41819250583649,18.930184841156006 34.41819250583649,18.930184841156006 34.25002098083496,19.200102984905243 34.25002098083496,19.200102984905243 34.0974360704422,19.4831445813179 34.0974360704422,19.4831445813179 33.960700035095215,19.778972864151 33.960700035095215,19.778972864151 33.843132853507996,20.0801283121109 33.843132853507996,20.0801283121109 33.74677896499634,20.390284061431885 33.74677896499634,20.390284061431885 33.67176651954651,20.708906650543213 33.67176651954651,20.708906650543213 33.61809253692627,21.035444736480713 33.61809253692627,21.035444736480713 33.58601927757263,21.36937826871872 33.58601927757263,21.36937826871872 33.575284481048584,21.710149943828583 33.575284481048584,21.710149943828583 33.566850423812866,21.839305758476257 33.566850423812866,21.839305758476257 33.54167342185974,21.965044736862183 33.54167342185974,21.965044736862183 33.50052535533905,22.085854411125183 33.50052535533905,22.085854411125183 33.44391584396362,22.20017910003662 33.44391584396362,22.20017910003662 33.372607827186584,22.306501865386963 33.372607827186584,22.306501865386963 33.286985754966736,22.403287887573242 33.286985754966736,22.403287887573242 33.189865946769714,22.48869091272354 33.189865946769714,22.48869091272354 33.083415031433105,22.560343146324158 33.083415031433105,22.560343146324158 32.96904265880585,22.617465257644653 32.96904265880585,22.617465257644653 32.8481525182724,22.659245133399963 32.8481525182724,22.659245133399963 32.72227942943573,22.684890031814575 32.72227942943573,22.684890031814575 32.5928270816803,22.693628072738647 32.5928270816803,22.693628072738647 26.714444160461426,22.693628072738647 26.714444160461426,22.693628072738647 26.453620195388794,22.65840619802475 26.453620195388794,22.65840619802475 26.21925175189972,22.559064626693726 26.21925175189972,22.559064626693726 26.020538806915283,22.405076026916504 26.020538806915283,22.405076026916504 25.866934657096863,22.205938398838043 25.866934657096863,22.205938398838043 25.767895579338074,21.97113037109375 25.767895579338074,21.97113037109375 25.733008980751038,21.710149943828583 25.733008980751038,21.710149943828583 25.761249661445618,20.845212042331696 25.761249661445618,20.845212042331696 25.8457213640213,19.99426782131195 25.8457213640213,19.99426782131195 25.98641812801361,19.15854662656784 25.98641812801361,19.15854662656784 26.182833313941956,18.339262902736664 26.182833313941956,18.339262902736664 26.434707641601562,17.53765493631363 26.434707641601562,17.53765493631363 26.74204707145691,16.7549267411232 26.74204707145691,16.7549267411232 27.0950049161911,16.003955900669098 27.0950049161911,16.003955900669098 27.489623427391052,15.281185507774353 27.489623427391052,15.281185507774353 27.92513370513916,14.587721228599548 27.92513370513916,14.587721228599548 28.400644659996033,13.924668729305267 28.400644659996033,13.924668729305267 28.915387392044067,13.29314261674881 28.915387392044067,13.29314261674881 29.46859300136566,12.694242596626282 29.46859300136566,12.694242596626282 30.06230890750885,12.129166722297668 30.06230890750885,12.129166722297668 30.691808462142944,11.604896187782288 30.691808462142944,11.604896187782288 31.356066465377808,11.122030019760132 31.356066465377808,11.122030019760132 32.053548097610474,10.681167244911194 32.053548097610474,10.681167244911194 32.784003019332886,10.282890498638153 32.784003019332886,10.282890498638153 33.545637130737305,9.927823394536972 33.545637130737305,9.927823394536972 34.334999322891235,9.621787816286087 34.334999322891235,9.621787816286087 35.14212965965271,9.370502829551697 35.14212965965271,9.370502829551697 35.96574068069458,9.174367785453796 35.96574068069458,9.174367785453796 36.804431676864624,9.033773839473724 36.804431676864624,9.033773839473724 37.657055258750916,8.949136734008789 37.657055258750916,8.949136734008789 38.522326946258545,8.920830488204956 38.522326946258545,8.920830488204956 44.40070986747742,8.920830488204956 44.40070986747742,8.920830488204956 45.26534378528595,8.949144184589386 45.26534378528595,8.949144184589386 46.116048097610474,9.033853560686111 46.116048097610474,9.033853560686111 46.95180058479309,9.17462334036827 46.95180058479309,9.17462334036827 47.771069407463074,9.37110185623169 47.771069407463074,9.37110185623169 48.57257306575775,9.622970223426819 48.57257306575775,9.622970223426819 49.3549108505249,9.929867833852768 49.3549108505249,9.929867833852768 50.1081109046936,10.28507873415947 50.1081109046936,10.28507873415947 50.83115100860596,10.683587193489075 50.83115100860596,10.683587193489075 51.523011922836304,11.124585568904877 51.523011922836304,11.124585568904877 52.18266844749451,11.607236415147781 52.18266844749451,11.607236415147781 52.80910134315491,12.130732089281082 52.80910134315491,12.130732089281082" stroke="white" stroke-width="0.1" /><polygon points="96.84918522834778,39.041668176651 96.84918522834778,39.041668176651 98.11508059501648,39.30820822715759 98.11508059501648,39.30820822715759 99.09996390342712,40.01568257808685 99.09996390342712,40.01568257808685 99.74697232246399,41.025879979133606 99.74697232246399,41.025879979133606 99.99884963035583,42.2005832195282 99.99884963035583,42.2005832195282 99.798983335495,43.40158402919769 99.798983335495,43.40158402919769 99.09012913703918,44.49067413806915 99.09012913703918,44.49067413806915 97.93872833251953,45.64467668533325 97.93872833251953,45.64467668533325 95.39722204208374,48.19429814815521 95.39722204208374,48.19429814815521 92.09293127059937,51.51010751724243 92.09293127059937,51.51010751724243 88.65254521369934,54.9626350402832 88.65254521369934,54.9626350402832 85.70351600646973,57.922470569610596 85.70351600646973,57.922470569610596 83.87277722358704,59.7601592540741 83.87277722358704,59.7601592540741 83.46589207649231,60.14131307601929 83.46589207649231,60.14131307601929 83.03791880607605,60.48189401626587 83.03791880607605,60.48189401626587 82.58771300315857,60.7690691947937 82.58771300315857,60.7690691947937 82.11386799812317,60.99005341529846 82.11386799812317,60.99005341529846 81.61535263061523,61.132025718688965 81.61535263061523,61.132025718688965 81.09102845191956,61.18221879005432 81.09102845191956,61.18221879005432 80.93013763427734,61.17756962776184 80.93013763427734,61.17756962776184 80.76643943786621,61.16337180137634 80.76643943786621,61.16337180137634 80.60043454170227,61.13927960395813 80.60043454170227,61.13927960395813 80.43187856674194,61.104971170425415 80.43187856674194,61.104971170425415 80.26140928268433,61.0601007938385 80.26140928268433,61.0601007938385 80.08914589881897,61.004334688186646 80.08914589881897,61.004334688186646 78.65724563598633,59.799015522003174 78.65724563598633,59.799015522003174 75.72520971298218,56.99548125267029 75.72520971298218,56.99548125267029 72.02374935150146,53.34927439689636 72.02374935150146,53.34927439689636 68.28279495239258,49.61589872837067 68.28279495239258,49.61589872837067 65.23280739784241,46.55090570449829 65.23280739784241,46.55090570449829 63.60411047935486,44.909828901290894 63.60411047935486,44.909828901290894 63.36424946784973,44.666674733161926 63.36424946784973,44.666674733161926 63.13384175300598,44.41972076892853 63.13384175300598,44.41972076892853 62.918639183044434,44.16276514530182 62.918639183044434,44.16276514530182 62.724143266677856,43.8896119594574 62.724143266677856,43.8896119594574 62.5560998916626,43.59410107135773 62.5560998916626,43.59410107135773 62.420254945755005,43.270015716552734 62.420254945755005,43.270015716552734 62.25029230117798,42.24792122840881 62.25029230117798,42.24792122840881 62.41080164909363,41.26640558242798 62.41080164909363,41.26640558242798 62.85499930381775,40.390247106552124 62.85499930381775,40.390247106552124 63.53600025177002,39.68421816825867 63.53600025177002,39.68421816825867 64.40766453742981,39.21310007572174 64.40766453742981,39.21310007572174 65.42283296585083,39.041668176651 65.42283296585083,39.041668176651 72.72838950157166,39.041668176651 72.72838950157166,39.041668176651 72.72838950157166,25.075653195381165 72.72838950157166,25.075653195381165 72.83164262771606,24.31102991104126 72.83164262771606,24.31102991104126 73.12275171279907,23.622508347034454 73.12275171279907,23.622508347034454 73.57372641563416,23.03815335035324 73.57372641563416,23.03815335035324 74.15632009506226,22.58601188659668 74.15632009506226,22.58601188659668 74.84281659126282,22.29415327310562 74.84281659126282,22.29415327310562 75.60521364212036,22.190643846988678 75.60521364212036,22.190643846988678 86.64533495903015,22.190643846988678 86.64533495903015,22.190643846988678 87.4078631401062,22.294169664382935 87.4078631401062,22.294169664382935 88.09422850608826,22.586020827293396 88.09422850608826,22.586020827293396 88.67669701576233,23.03815335035324 88.67669701576233,23.03815335035324 89.12715911865234,23.622508347034454 89.12715911865234,23.622508347034454 89.41801190376282,24.311022460460663 89.41801190376282,24.311022460460663 89.5211398601532,25.075653195381165 89.5211398601532,25.075653195381165 89.5211398601532,39.041668176651 89.5211398601532,39.041668176651" stroke="white" stroke-width="0.1" /></svg>