<?xml version="1.0" encoding="utf-8" ?>
<svg baseProfile="full" height="65.67468643188477" version="1.1" width="99.99966621398926" xmlns="http://www.w3.org/2000/svg" xmlns:ev="http://www.w3.org/2001/xml-events" xmlns:xlink="http://www.w3.org/1999/xlink"><defs><clipPath /></defs><polygon points="99.57176446914673,22.302985191345215 99.57176446914673,22.302985191345215 99.75314736366272,22.81021922826767 99.75314736366272,22.81021922826767 99.88600611686707,23.333154618740082 99.88600611686707,23.333154618740082 99.9687671661377,23.868532478809357 99.9687671661377,23.868532478809357 99.99966621398926,24.41234439611435 99.99966621398926,24.41234439611435 99.9772846698761,24.96141791343689 99.9772846698761,24.96141791343689 99.89978671073914,25.511744618415833 99.89978671073914,25.511744618415833 99.86153841018677,25.69546401500702 99.86153841018677,25.69546401500702 99.81703162193298,25.878849625587463 99.81703162193298,25.878849625587463 99.76608753204346,26.06182098388672 99.76608753204346,26.06182098388672 99.70855116844177,26.243868470191956 99.70855116844177,26.243868470191956 99.64441657066345,26.425251364707947 99.64441657066345,26.425251364707947 99.57376718521118,26.605382561683655 99.57376718521118,26.605382561683655 88.2499098777771,54.045188426971436 88.2499098777771,54.045188426971436 87.91637420654297,54.721277952194214 87.91637420654297,54.721277952194214 87.502920627594,55.340248346328735 87.502920627594,55.340248346328735 87.01497912406921,55.89666962623596 87.01497912406921,55.89666962623596 86.45813465118408,56.38503432273865 86.45813465118408,56.38503432273865 85.83824634552002,56.80007338523865 85.83824634552002,56.80007338523865 85.16073822975159,57.13636875152588 85.16073822975159,57.13636875152588 84.43855047225952,57.38322138786316 84.43855047225952,57.38322138786316 83.70199799537659,57.53169655799866 83.70199799537659,57.53169655799866 82.95909762382507,57.58230686187744 82.95909762382507,57.58230686187744 82.21737146377563,57.534706592559814 82.21737146377563,57.534706592559814 81.48499131202698,57.389479875564575 81.48499131202698,57.389479875564575 80.76948523521423,57.14638829231262 80.76948523521423,57.14638829231262 56.57985806465149,47.126612067222595 56.57985806465149,47.126612067222595 61.85697913169861,59.912216663360596 61.85697913169861,59.912216663360596 62.02282905578613,60.54137349128723 62.02282905578613,60.54137349128723 62.016648054122925,61.17236614227295 62.016648054122925,61.17236614227295 61.8513822555542,61.774468421936035 61.8513822555542,61.774468421936035 61.53931021690369,62.31678128242493 61.53931021690369,62.31678128242493 61.093199253082275,62.76881694793701 61.093199253082275,62.76881694793701 60.52550673484802,63.09959292411804 60.52550673484802,63.09959292411804 54.75668907165527,65.48595428466797 54.75668907165527,65.48595428466797 54.447370767593384,65.59151411056519 54.447370767593384,65.59151411056519 54.130369424819946,65.65430760383606 54.130369424819946,65.65430760383606 53.809523582458496,65.67468643188477 53.809523582458496,65.67468643188477 53.48851680755615,65.65255522727966 53.48851680755615,65.65255522727966 53.17118167877197,65.58858752250671 53.17118167877197,65.58858752250671 52.86136269569397,65.48261642456055 52.86136269569397,65.48261642456055 52.56715416908264,65.3363049030304 52.56715416908264,65.3363049030304 52.29708552360535,65.15526175498962 52.29708552360535,65.15526175498962 52.05382704734802,64.94206190109253 52.05382704734802,64.94206190109253 51.840293407440186,64.69888091087341 51.840293407440186,64.69888091087341 51.65932774543762,64.42822813987732 51.65932774543762,64.42822813987732 51.513856649398804,64.13244009017944 51.513856649398804,64.13244009017944 50.0,60.46671271324158 50.0,60.46671271324158 48.486143350601196,64.13244009017944 48.486143350601196,64.13244009017944 48.340585827827454,64.42839503288269 48.340585827827454,64.42839503288269 48.15962314605713,64.69888091087341 48.15962314605713,64.69888091087341 47.94617295265198,64.94206190109253 47.94617295265198,64.94206190109253 47.70282506942749,65.15517830848694 47.70282506942749,65.15517830848694 47.432756423950195,65.33613801002502 47.432756423950195,65.33613801002502 47.13863730430603,65.48261642456055 47.13863730430603,65.48261642456055 46.828484535217285,65.5886709690094 46.828484535217285,65.5886709690094 46.510982513427734,65.65272212028503 46.510982513427734,65.65272212028503 46.18997275829315,65.67468643188477 46.18997275829315,65.67468643188477 45.86912989616394,65.65422415733337 45.86912989616394,65.65422415733337 45.552295446395874,65.59134721755981 45.552295446395874,65.59134721755981 45.24331092834473,65.48595428466797 45.24331092834473,65.48595428466797 39.47449326515198,63.09959292411804 39.47449326515198,63.09959292411804 38.90671133995056,62.7689003944397 38.90671133995056,62.7689003944397 38.46043944358826,62.31686472892761 38.46043944358826,62.31686472892761 38.14828097820282,61.774468421936035 38.14828097820282,61.774468421936035 37.98268139362335,61.172282695770264 37.98268139362335,61.172282695770264 37.97658681869507,60.541290044784546 37.97658681869507,60.541290044784546 38.14235329627991,59.912216663360596 38.14235329627991,59.912216663360596 43.42013895511627,47.126612067222595 43.42013895511627,47.126612067222595 19.230511784553528,57.14638829231262 19.230511784553528,57.14638829231262 18.51492077112198,57.38956332206726 18.51492077112198,57.38956332206726 17.782336473464966,57.5347900390625 17.782336473464966,57.5347900390625 17.04064905643463,57.58230686187744 17.04064905643463,57.58230686187744 16.29762500524521,57.53169655799866 16.29762500524521,57.53169655799866 15.561240911483765,57.38305449485779 15.561240911483765,57.38305449485779 14.839261770248413,57.13636875152588 14.839261770248413,57.13636875152588 14.161500334739685,56.80024027824402 14.161500334739685,56.80024027824402 13.541443645954132,56.38511776924133 13.541443645954132,56.38511776924133 12.98477053642273,55.89666962623596 12.98477053642273,55.89666962623596 12.496868520975113,55.34016489982605 12.496868520975113,55.34016489982605 12.083539366722107,54.721277952194214 12.083539366722107,54.721277952194214 11.750086396932602,54.045188426971436 11.750086396932602,54.045188426971436 0.4262312315404415,26.605382561683655 0.4262312315404415,26.605382561683655 0.35524838604032993,26.425334811210632 0.35524838604032993,26.425334811210632 0.29107152950018644,26.244038343429565 0.29107152950018644,26.244038343429565 0.23357539903372526,26.06182098388672 0.23357539903372526,26.06182098388672 0.182509480509907,25.878682732582092 0.182509480509907,25.878682732582092 0.13791554374620318,25.695380568504333 0.13791554374620318,25.695380568504333 0.09954303968697786,25.511744618415833 0.09954303968697786,25.511744618415833 0.022547499975189567,24.96141791343689 0.022547499975189567,24.96141791343689 0.0002922824023698922,24.412427842617035 0.0002922824023698922,24.412427842617035 0.03123246133327484,23.868532478809357 0.03123246133327484,23.868532478809357 0.11365610407665372,23.333071172237396 0.11365610407665372,23.333071172237396 0.24606003426015377,22.8100523352623 0.24606003426015377,22.8100523352623 0.4268993157893419,22.302985191345215 0.4268993157893419,22.302985191345215 0.49704709090292454,22.137969732284546 0.49704709090292454,22.137969732284546 0.5724559538066387,21.97495996952057 0.5724559538066387,21.97495996952057 0.6531259045004845,21.81403785943985 0.6531259045004845,21.81403785943985 0.7388899102807045,21.65537029504776 0.7388899102807045,21.65537029504776 0.8299150504171848,21.49929106235504 0.8299150504171848,21.49929106235504 0.925950612872839,21.345634758472443 0.925950612872839,21.345634758472443 0.9493332356214523,21.30488157272339 0.9493332356214523,21.30488157272339 1.175142265856266,21.025626361370087 1.175142265856266,21.025626361370087 1.3645412400364876,20.785287022590637 1.3645412400364876,20.785287022590637 1.56529750674963,20.55346518754959 1.56529750674963,20.55346518754959 1.7780791968107224,20.331580936908722 1.7780791968107224,20.331580936908722 2.003762871026993,20.120804011821747 2.003762871026993,20.120804011821747 2.243225648999214,19.92255300283432 2.243225648999214,19.92255300283432 2.497260831296444,19.738247990608215 2.497260831296444,19.738247990608215 2.6550933718681335,19.634780287742615 2.6550933718681335,19.634780287742615 2.8171848505735397,19.536489248275757 2.8171848505735397,19.536489248275757 2.983451820909977,19.443459808826447 2.983451820909977,19.443459808826447 3.153768926858902,19.35535818338394 3.153768926858902,19.35535818338394 3.328261524438858,19.272099435329437 3.328261524438858,19.272099435329437 3.5067208111286163,19.19376850128174 3.5067208111286163,19.19376850128174 28.673070669174194,8.771812170743942 28.673070669174194,8.771812170743942 27.430453896522522,5.760134384036064 27.430453896522522,5.760134384036064 27.265354990959167,5.129806697368622 27.265354990959167,5.129806697368622 27.271535992622375,4.497808590531349 27.271535992622375,4.497808590531349 27.436882257461548,3.8948718458414078 27.436882257461548,3.8948718458414078 27.7489572763443,3.351810947060585 27.7489572763443,3.351810947060585 28.195565938949585,2.899441495537758 28.195565938949585,2.899441495537758 28.764596581459045,2.56874468177557 28.764596581459045,2.56874468177557 34.52339470386505,0.18572459230199456 34.52339470386505,0.18572459230199456 34.83162820339203,0.08200609008781612 34.83162820339203,0.08200609008781612 35.148295760154724,0.020209240028634667 35.148295760154724,0.020209240028634667 35.46955585479736,0.00033403703127987683 35.46955585479736,0.00033403703127987683 35.79123318195343,0.02204644406447187 35.79123318195343,0.02204644406447187 36.10973656177521,0.0852629542350769 36.10973656177521,0.0852629542350769 36.42072677612305,0.18973303958773613 36.42072677612305,0.18973303958773613 36.7143452167511,0.3358742455020547 36.7143452167511,0.3358742455020547 36.98391318321228,0.5166717804968357 36.98391318321228,0.5166717804968357 37.226590514183044,0.7299544289708138 37.226590514183044,0.7299544289708138 37.43954002857208,0.9733003564178944 37.43954002857208,0.9733003564178944 37.61991858482361,1.244538463652134 37.61991858482361,1.244538463652134 37.76489198207855,1.541246846318245 37.76489198207855,1.541246846318245 50.0,31.18569850921631 50.0,31.18569850921631 62.23510503768921,1.541246846318245 62.23510503768921,1.541246846318245 62.37974762916565,1.244622003287077 62.37974762916565,1.244622003287077 62.559956312179565,0.9733838960528374 62.559956312179565,0.9733838960528374 62.77282238006592,0.7299544289708138 62.77282238006592,0.7299544289708138 63.015419244766235,0.5165882874280214 63.015419244766235,0.5165882874280214 63.28498721122742,0.33579072915017605 63.28498721122742,0.33579072915017605 63.57860565185547,0.18973303958773613 63.57860565185547,0.18973303958773613 63.889843225479126,0.08534645894542336 63.889843225479126,0.08534645894542336 64.20826315879822,0.0221299531403929 64.20826315879822,0.0221299531403929 64.5301103591919,0.00033403703127987683 64.5301103591919,0.00033403703127987683 64.85128402709961,0.02012573095271364 64.85128402709961,0.02012573095271364 65.16811847686768,0.08183907484635711 65.16811847686768,0.08183907484635711 65.47660231590271,0.18572459230199456 65.47660231590271,0.18572459230199456 71.23473286628723,2.56874468177557 71.23473286628723,2.56874468177557 71.80368304252625,2.8996920213103294 71.80368304252625,2.8996920213103294 72.25028872489929,3.3518947660923004 72.25028872489929,3.3518947660923004 72.56244421005249,3.8948718458414078 72.56244421005249,3.8948718458414078 72.72771000862122,4.497641697525978 72.72771000862122,4.497641697525978 72.73397445678711,5.129639804363251 72.73397445678711,5.129639804363251 72.56887555122375,5.760134384036064 72.56887555122375,5.760134384036064 71.3269293308258,8.771812170743942 71.3269293308258,8.771812170743942 96.49394750595093,19.19376850128174 96.49394750595093,19.19376850128174 96.67181968688965,19.27226632833481 96.67181968688965,19.27226632833481 96.84585332870483,19.35535818338394 96.84585332870483,19.35535818338394 97.01595902442932,19.443459808826447 97.01595902442932,19.443459808826447 97.18189239501953,19.536322355270386 97.18189239501953,19.536322355270386 97.34373688697815,19.634613394737244 97.34373688697815,19.634613394737244 97.50140309333801,19.738247990608215 97.50140309333801,19.738247990608215 97.75577187538147,19.922636449337006 97.75577187538147,19.922636449337006 97.995525598526,20.120887458324432 97.995525598526,20.120887458324432 98.22158217430115,20.331580936908722 98.22158217430115,20.331580936908722 98.43469858169556,20.55346518754959 98.43469858169556,20.55346518754959 98.63570928573608,20.78520357608795 98.63570928573608,20.78520357608795 98.8255262374878,21.025626361370087 98.8255262374878,21.025626361370087 99.0506649017334,21.30488157272339 99.0506649017334,21.30488157272339 99.07404780387878,21.345634758472443 99.07404780387878,21.345634758472443 99.1700828075409,21.49929106235504 99.1700828075409,21.49929106235504 99.26111102104187,21.65537029504776 99.26111102104187,21.65537029504776 99.34695363044739,21.81403785943985 99.34695363044739,21.81403785943985 99.42737221717834,21.974876523017883 99.42737221717834,21.974876523017883 99.50236678123474,22.137802839279175 99.50236678123474,22.137802839279175" stroke="white" stroke-width="0.1" /><polygon points="31.537771224975586,35.1660817861557 31.537771224975586,35.1660817861557 35.30370593070984,44.308677315711975 35.30370593070984,44.308677315711975 44.4376140832901,40.52537381649017 44.4376140832901,40.52537381649017 40.67167937755585,31.380775570869446 40.67167937755585,31.380775570869446 31.537771224975586,35.1660817861557 31.537771224975586,35.1660817861557 27.757808566093445,26.033508777618408 27.757808566093445,26.033508777618408 36.9070827960968,22.24419414997101 36.9070827960968,22.24419414997101 33.131128549575806,13.101600110530853 33.131128549575806,13.101600110530853 23.98519515991211,16.890916228294373 23.98519515991211,16.890916228294373 27.757808566093445,26.033508777618408 27.757808566093445,26.033508777618408 18.61855536699295,29.818150401115417 18.61855536699295,29.818150401115417 14.851954579353333,20.674219727516174 14.851954579353333,20.674219727516174 5.718046054244041,24.457523226737976 5.718046054244041,24.457523226737976 9.48464721441269,33.60145390033722 9.48464721441269,33.60145390033722 18.61855536699295,29.818150401115417 18.61855536699295,29.818150401115417 22.395846247673035,38.95339369773865 22.395846247673035,38.95339369773865 13.249912858009338,42.74003803730011 13.249912858009338,42.74003803730011 17.022527754306793,51.88062787055969 17.022527754306793,51.88062787055969 26.169797778129578,48.09198081493378 26.169797778129578,48.09198081493378 22.395846247673035,38.95339369773865 22.395846247673035,38.95339369773865" stroke="white" stroke-width="0.1" /><polygon points="90.51535129547119,33.60145390033722 90.51535129547119,33.60145390033722 94.28262114524841,24.457523226737976 94.28262114524841,24.457523226737976 85.14804244041443,20.674219727516174 85.14804244041443,20.674219727516174 81.38144016265869,29.818150401115417 81.38144016265869,29.818150401115417 72.24218845367432,26.033508777618408 72.24218845367432,26.033508777618408 76.0141372680664,16.890916228294373 76.0141372680664,16.890916228294373 66.8688714504242,13.101600110530853 66.8688714504242,13.101600110530853 63.092243671417236,22.24419414997101 63.092243671417236,22.24419414997101 72.24218845367432,26.033508777618408 72.24218845367432,26.033508777618408 68.46155524253845,35.1660817861557 68.46155524253845,35.1660817861557 59.32765007019043,31.380775570869446 59.32765007019043,31.380775570869446 55.56238293647766,40.52537381649017 55.56238293647766,40.52537381649017 64.69629406929016,44.308677315711975 64.69629406929016,44.308677315711975 68.46155524253845,35.1660817861557 68.46155524253845,35.1660817861557 77.60415077209473,38.95339369773865 77.60415077209473,38.95339369773865 73.8295316696167,48.09198081493378 73.8295316696167,48.09198081493378 82.97747373580933,51.88062787055969 82.97747373580933,51.88062787055969 86.74941658973694,42.74003803730011 86.74941658973694,42.74003803730011 77.60415077209473,38.95339369773865 77.60415077209473,38.95339369773865 81.38144016265869,29.818150401115417 81.38144016265869,29.818150401115417" stroke="white" stroke-width="0.1" /></svg>