<?xml version="1.0" encoding="utf-8" ?>
<svg baseProfile="full" height="99.99060034751892" version="1.1" width="85.03801822662354" xmlns="http://www.w3.org/2000/svg" xmlns:ev="http://www.w3.org/2001/xml-events" xmlns:xlink="http://www.w3.org/1999/xlink"><defs><clipPath /></defs><polygon points="84.41376686096191,13.731537759304047 84.41376686096191,13.731537759304047 84.6857488155365,16.112373769283295 84.6857488155365,16.112373769283295 84.94150042533875,18.64597797393799 84.94150042533875,18.64597797393799 85.03801822662354,21.227779984474182 85.03801822662354,21.227779984474182 84.8320484161377,23.753146827220917 84.8320484161377,23.753146827220917 84.18095707893372,26.117631793022156 84.18095707893372,26.117631793022156 82.94172883033752,28.216665983200073 82.94172883033752,28.216665983200073 81.84014558792114,29.398968815803528 81.84014558792114,29.398968815803528 80.623859167099,30.4752379655838 80.623859167099,30.4752379655838 79.33436036109924,31.482139229774475 79.33436036109924,31.482139229774475 78.01240682601929,32.456156611442566 78.01240682601929,32.456156611442566 76.69960260391235,33.43444466590881 76.69960260391235,33.43444466590881 75.43706893920898,34.45330560207367 75.43706893920898,34.45330560207367 74.1566002368927,35.5877161026001 74.1566002368927,35.5877161026001 72.91054129600525,36.75971031188965 72.91054129600525,36.75971031188965 71.69645428657532,37.965503334999084 71.69645428657532,37.965503334999084 70.51213383674622,39.20118808746338 70.51213383674622,39.20118808746338 69.35588121414185,40.462926030159 69.35588121414185,40.462926030159 68.22525262832642,41.747117042541504 68.22525262832642,41.747117042541504 66.52296781539917,43.70015561580658 66.52296781539917,43.70015561580658 64.78285193443298,45.73036730289459 64.78285193443298,45.73036730289459 63.08776140213013,47.837698459625244 63.08776140213013,47.837698459625244 61.52079701423645,50.021594762802124 61.52079701423645,50.021594762802124 60.16516089439392,52.28205919265747 60.16516089439392,52.28205919265747 59.104084968566895,54.6186625957489 59.104084968566895,54.6186625957489 58.16417336463928,57.02415108680725 58.16417336463928,57.02415108680725 57.12810754776001,59.409624338150024 57.12810754776001,59.409624338150024 55.97698092460632,61.74713969230652 55.97698092460632,61.74713969230652 54.69200015068054,64.00882601737976 54.69200015068054,64.00882601737976 53.254616260528564,66.16715788841248 53.254616260528564,66.16715788841248 51.64628028869629,68.19401979446411 51.64628028869629,68.19401979446411 51.274365186691284,68.61010193824768 51.274365186691284,68.61010193824768 50.89220404624939,69.01697516441345 50.89220404624939,69.01697516441345 50.49979090690613,69.41372156143188 50.49979090690613,69.41372156143188 50.09639263153076,69.79893445968628 50.09639263153076,69.79893445968628 49.682262539863586,70.17170190811157 49.682262539863586,70.17170190811157 49.25665855407715,70.5309271812439 49.25665855407715,70.5309271812439 48.83190989494324,70.8891749382019 48.83190989494324,70.8891749382019 48.5518753528595,71.18018865585327 48.5518753528595,71.18018865585327 48.39032292366028,71.45925164222717 48.39032292366028,71.45925164222717 48.32138121128082,71.78186774253845 48.32138121128082,71.78186774253845 48.31942915916443,72.20356464385986 48.31942915916443,72.20356464385986 48.35859835147858,72.77998328208923 48.35859835147858,72.77998328208923 48.44779372215271,73.81861209869385 48.44779372215271,73.81861209869385 48.56078326702118,74.85553026199341 48.56078326702118,74.85553026199341 48.69976341724396,75.88927149772644 48.69976341724396,75.88927149772644 48.86680841445923,76.91850662231445 48.86680841445923,76.91850662231445 49.064844846725464,77.94236540794373 49.064844846725464,77.94236540794373 49.29570555686951,78.95902991294861 49.29570555686951,78.95902991294861 50.017815828323364,81.3299834728241 50.017815828323364,81.3299834728241 50.949060916900635,83.39027166366577 50.949060916900635,83.39027166366577 52.10604667663574,85.20714044570923 52.10604667663574,85.20714044570923 53.50426435470581,86.84768676757812 53.50426435470581,86.84768676757812 55.1599383354187,88.37938904762268 55.1599383354187,88.37938904762268 57.08930492401123,89.86948728561401 57.08930492401123,89.86948728561401 58.372825384140015,90.85869193077087 58.372825384140015,90.85869193077087 59.622180461883545,91.99066758155823 59.622180461883545,91.99066758155823 60.74841618537903,93.25941801071167 60.74841618537903,93.25941801071167 61.66258454322815,94.65824961662292 61.66258454322815,94.65824961662292 62.276703119277954,96.18141055107117 62.276703119277954,96.18141055107117 62.50109672546387,97.82220125198364 62.50109672546387,97.82220125198364 62.46473789215088,98.6879289150238 62.46473789215088,98.6879289150238 62.33795881271362,99.27057027816772 62.33795881271362,99.27057027816772 62.09403872489929,99.62637424468994 62.09403872489929,99.62637424468994 61.70601844787598,99.81086850166321 61.70601844787598,99.81086850166321 61.14802956581116,99.88066554069519 61.14802956581116,99.88066554069519 60.392606258392334,99.89164471626282 60.392606258392334,99.89164471626282 50.39290189743042,99.89164471626282 50.39290189743042,99.89164471626282 25.707954168319702,99.89164471626282 25.707954168319702,99.89164471626282 25.02635419368744,99.9277651309967 25.02635419368744,99.9277651309967 24.37465190887451,99.98571872711182 24.37465190887451,99.98571872711182 23.781028389930725,99.99060034751892 23.781028389930725,99.99060034751892 23.27306419610977,99.8669981956482 23.27306419610977,99.8669981956482 22.879308462142944,99.54022765159607 22.879308462142944,99.54022765159607 22.627216577529907,98.93501400947571 22.627216577529907,98.93501400947571 22.591586410999298,96.45644426345825 22.591586410999298,96.45644426345825 23.488792777061462,94.30878162384033 23.488792777061462,94.30878162384033 25.03880262374878,92.43506193161011 25.03880262374878,92.43506193161011 26.96121335029602,90.77852964401245 26.96121335029602,90.77852964401245 28.976234793663025,89.28232789039612 28.976234793663025,89.28232789039612 30.80347180366516,87.88985013961792 30.80347180366516,87.88985013961792 31.955575942993164,86.78215742111206 31.955575942993164,86.78215742111206 32.941487431526184,85.53390502929688 32.941487431526184,85.53390502929688 33.77634286880493,84.174245595932 33.77634286880493,84.174245595932 34.473803639411926,82.73186087608337 34.473803639411926,82.73186087608337 35.04912257194519,81.23602867126465 35.04912257194519,81.23602867126465 35.51633358001709,79.7155499458313 35.51633358001709,79.7155499458313 35.8352929353714,78.55441570281982 35.8352929353714,78.55441570281982 36.24332547187805,76.93144083023071 36.24332547187805,76.93144083023071 36.61450743675232,75.10139346122742 36.61450743675232,75.10139346122742 36.821940541267395,73.31882119178772 36.821940541267395,73.31882119178772 36.74018681049347,71.83873057365417 36.74018681049347,71.83873057365417 36.242592334747314,70.91553211212158 36.242592334747314,70.91553211212158 33.719971776008606,68.65488290786743 33.719971776008606,68.65488290786743 31.550714373588562,66.00902080535889 31.550714373588562,66.00902080535889 29.692119359970093,63.08215260505676 29.692119359970093,63.08215260505676 28.10123562812805,59.97835397720337 28.10123562812805,59.97835397720337 26.735353469848633,56.80195093154907 26.735353469848633,56.80195093154907 25.551769137382507,53.657156229019165 25.551769137382507,53.657156229019165 24.738146364688873,51.863354444503784 24.738146364688873,51.863354444503784 23.648759722709656,50.10048151016235 23.648759722709656,50.10048151016235 22.374393045902252,48.38044047355652 22.374393045902252,48.38044047355652 21.003997325897217,46.71487808227539 21.003997325897217,46.71487808227539 19.62798833847046,45.11575698852539 19.62798833847046,45.11575698852539 18.33605021238327,43.59497427940369 18.33605021238327,43.59497427940369 17.468371987342834,42.55518913269043 17.468371987342834,42.55518913269043 16.58678501844406,41.52674973011017 16.58678501844406,41.52674973011017 15.690188109874725,40.5110627412796 15.690188109874725,40.5110627412796 14.777486026287079,39.5094096660614 14.777486026287079,39.5094096660614 13.847944140434265,38.52343261241913 13.847944140434265,38.52343261241913 12.900832295417786,37.55454123020172 12.900832295417786,37.55454123020172 11.840730905532837,36.51762306690216 11.840730905532837,36.51762306690216 10.756713151931763,35.50925850868225 10.756713151931763,35.50925850868225 9.648291766643524,34.52993333339691 9.648291766643524,34.52993333339691 8.515100926160812,33.57940316200256 8.515100926160812,33.57940316200256 7.3568955063819885,32.65810012817383 7.3568955063819885,32.65810012817383 6.1731889843940735,31.765955686569214 6.1731889843940735,31.765955686569214 5.010591074824333,30.902427434921265 5.010591074824333,30.902427434921265 3.8854531943798065,30.001744627952576 3.8854531943798065,30.001744627952576 2.83913966268301,29.033461213111877 2.83913966268301,29.033461213111877 1.9126489758491516,27.966955304145813 1.9126489758491516,27.966955304145813 1.147711370140314,26.772022247314453 1.147711370140314,26.772022247314453 0.585691537708044,25.418037176132202 0.585691537708044,25.418037176132202 0.19230205798521638,23.697568476200104 0.19230205798521638,23.697568476200104 0.019767088815569878,21.921458840370178 0.019767088815569878,21.921458840370178 0.01561844110256061,20.114721357822418 0.01561844110256061,20.114721357822418 0.12689983705058694,18.302007019519806 0.12689983705058694,18.302007019519806 0.30211922712624073,16.50875359773636 0.30211922712624073,16.50875359773636 0.48807626590132713,14.759427309036255 0.48807626590132713,14.759427309036255 0.6659801118075848,13.141880929470062 0.6659801118075848,13.141880929470062 0.8965961635112762,11.522261053323746 0.8965961635112762,11.522261053323746 1.2109172530472279,9.918075799942017 1.2109172530472279,9.918075799942017 1.6399363055825233,8.346958458423615 1.6399363055825233,8.346958458423615 2.2151341661810875,6.8266622722148895 2.2151341661810875,6.8266622722148895 2.9675038531422615,5.374696105718613 2.9675038531422615,5.374696105718613 5.425455793738365,2.6461055502295494 5.425455793738365,2.6461055502295494 8.304008096456528,1.499004289507866 8.304008096456528,1.499004289507866 11.413663625717163,1.6196811571717262 11.413663625717163,1.6196811571717262 14.565050601959229,2.6941200718283653 14.565050601959229,2.6941200718283653 17.56964772939682,4.408670961856842 17.56964772939682,4.408670961856842 20.237594842910767,6.449440121650696 20.237594842910767,6.449440121650696 26.04008913040161,3.36894653737545 26.04008913040161,3.36894653737545 32.21498727798462,1.276075467467308 32.21498727798462,1.276075467467308 38.622939586639404,0.1781478407792747 38.622939586639404,0.1781478407792747 45.12472748756409,0.08266792283393443 45.12472748756409,0.08266792283393443 51.58185362815857,0.997322890907526 51.58185362815857,0.997322890907526 57.85461068153381,2.9294338077306747 57.85461068153381,2.9294338077306747 58.99255871772766,3.400610387325287 58.99255871772766,3.400610387325287 60.11696457862854,3.903695195913315 60.11696457862854,3.903695195913315 61.226242780685425,4.439053684473038 61.226242780685425,4.439053684473038 62.318313121795654,5.0072357058525085 62.318313121795654,5.0072357058525085 63.39232325553894,5.60891181230545 63.39232325553894,5.60891181230545 64.44559097290039,6.244447827339172 64.44559097290039,6.244447827339172 64.87510204315186,6.245912238955498 64.87510204315186,6.245912238955498 65.47262668609619,5.93281127512455 65.47262668609619,5.93281127512455 66.1562979221344,5.425821989774704 66.1562979221344,5.425821989774704 66.84399843215942,4.84580434858799 66.84399843215942,4.84580434858799 67.45421886444092,4.3138012290000916 67.45421886444092,4.3138012290000916 67.90507435798645,3.9504893124103546 67.90507435798645,3.9504893124103546 68.61254572868347,3.480472043156624 68.61254572868347,3.480472043156624 69.34075355529785,3.0423015356063843 69.34075355529785,3.0423015356063843 70.08970379829407,2.641346864402294 70.08970379829407,2.641346864402294 70.8594024181366,2.2828547284007072 70.8594024181366,2.2828547284007072 71.65008783340454,1.9723773002624512 71.65008783340454,1.9723773002624512 72.4617600440979,1.71509999781847 72.4617600440979,1.71509999781847 76.07278823852539,1.3803407549858093 76.07278823852539,1.3803407549858093 78.95646691322327,2.3945633322000504 78.95646691322327,2.3945633322000504 81.17294311523438,4.4474732130765915 81.17294311523438,4.4474732130765915 82.78115391731262,7.228165864944458 82.78115391731262,7.228165864944458 83.84162187576294,10.426407307386398 83.84162187576294,10.426407307386398" stroke="white" stroke-width="0.1" /><polygon points="11.139853298664093,26.88714563846588 11.139853298664093,26.88714563846588 12.926211953163147,28.295308351516724 12.926211953163147,28.295308351516724 14.655466377735138,29.769787192344666 14.655466377735138,29.769787192344666 16.331520676612854,31.304481625556946 16.331520676612854,31.304481625556946 17.95669198036194,32.8932911157608 17.95669198036194,32.8932911157608 19.535009562969208,34.53029990196228 19.535009562969208,34.53029990196228 21.069276332855225,36.20940446853638 21.069276332855225,36.20940446853638 20.57082951068878,33.19394588470459 20.57082951068878,33.19394588470459 20.135709643363953,30.168727040290833 20.135709643363953,30.168727040290833 19.762209057807922,27.13508903980255 19.762209057807922,27.13508903980255 19.44752186536789,24.094495177268982 19.44752186536789,24.094495177268982 19.190305471420288,21.048717200756073 19.190305471420288,21.048717200756073 18.988119065761566,17.999276518821716 18.988119065761566,17.999276518821716 18.972989916801453,17.312675714492798 18.972989916801453,17.312675714492798 18.978114426136017,16.624122858047485 18.978114426136017,16.624122858047485 18.956883251667023,15.948502719402313 18.956883251667023,15.948502719402313 18.862684071063995,15.300154685974121 18.862684071063995,15.300154685974121 18.649272620677948,14.694024622440338 18.649272620677948,14.694024622440338 18.269671499729156,14.144450426101685 18.269671499729156,14.144450426101685 17.889948189258575,13.738249242305756 17.889948189258575,13.738249242305756 17.504367232322693,13.336989283561707 17.504367232322693,13.336989283561707 17.112930119037628,12.9410982131958 17.112930119037628,12.9410982131958 16.715392470359802,12.550820410251617 16.715392470359802,12.550820410251617 16.312485933303833,12.16658279299736 16.312485933303833,12.16658279299736 15.903477370738983,11.788994818925858 15.903477370738983,11.788994818925858 15.120725333690643,11.05407401919365 15.120725333690643,11.05407401919365 14.236575365066528,10.29529795050621 14.236575365066528,10.29529795050621 13.275186717510223,9.570443630218506 13.275186717510223,9.570443630218506 12.259866297245026,8.937165141105652 12.259866297245026,8.937165141105652 11.21477261185646,8.45317617058754 11.21477261185646,8.45317617058754 10.163700580596924,8.176253736019135 10.163700580596924,8.176253736019135 8.898606896400452,8.698495477437973 8.898606896400452,8.698495477437973 8.045205473899841,10.379064083099365 8.045205473899841,10.379064083099365 7.517839223146439,12.724392116069794 7.517839223146439,12.724392116069794 7.23072811961174,15.2406707406044 7.23072811961174,15.2406707406044 7.09858164191246,17.43420660495758 7.09858164191246,17.43420660495758 7.036107778549194,18.811435997486115 7.036107778549194,18.811435997486115 6.965580582618713,19.58223134279251 6.965580582618713,19.58223134279251 6.8843163549900055,20.444172620773315 6.8843163549900055,20.444172620773315 6.835508346557617,21.345284581184387 6.835508346557617,21.345284581184387 6.862230598926544,22.23309427499771 6.862230598926544,22.23309427499771 7.00853168964386,23.055563867092133 7.00853168964386,23.055563867092133 7.3172397911548615,23.76053035259247 7.3172397911548615,23.76053035259247 7.808122038841248,24.382461607456207 7.808122038841248,24.382461607456207 8.413214981555939,24.950703978538513 8.413214981555939,24.950703978538513 9.090908616781235,25.475385785102844 9.090908616781235,25.475385785102844 9.798985719680786,25.96626877784729 9.798985719680786,25.96626877784729 10.495958477258682,26.433539390563965 10.495958477258682,26.433539390563965" stroke="white" stroke-width="0.1" /><polygon points="77.56117582321167,23.939165472984314 77.56117582321167,23.939165472984314 78.12759280204773,22.52960056066513 78.12759280204773,22.52960056066513 78.31464409828186,20.744401216506958 78.31464409828186,20.744401216506958 78.23130488395691,18.762506544589996 78.23130488395691,18.762506544589996 77.98678278923035,16.76291972398758 77.98678278923035,16.76291972398758 77.69051790237427,14.924702048301697 77.69051790237427,14.924702048301697 77.45184898376465,13.426978886127472 77.45184898376465,13.426978886127472 77.33849287033081,12.641297280788422 77.33849287033081,12.641297280788422 77.19780802726746,11.821939796209335 77.19780802726746,11.821939796209335 77.01306939125061,10.99587082862854 77.01306939125061,10.99587082862854 76.76732540130615,10.189873725175858 76.76732540130615,10.189873725175858 76.44421458244324,9.431098401546478 76.44421458244324,9.431098401546478 76.0266661643982,8.746326714754105 76.0266661643982,8.746326714754105 75.48282742500305,8.326764404773712 75.48282742500305,8.326764404773712 74.87444281578064,8.205660432577133 74.87444281578064,8.205660432577133 74.23005700111389,8.310475200414658 74.23005700111389,8.310475200414658 73.57872128486633,8.568423241376877 73.57872128486633,8.568423241376877 72.94971346855164,8.907148241996765 72.94971346855164,8.907148241996765 72.37195372581482,9.253926575183868 72.37195372581482,9.253926575183868 71.34003639221191,9.929180145263672 71.34003639221191,9.929180145263672 70.35082578659058,10.676546394824982 70.35082578659058,10.676546394824982 69.40152049064636,11.481872200965881 69.40152049064636,11.481872200965881 68.48918199539185,12.331002950668335 68.48918199539185,12.331002950668335 67.61125326156616,13.209906220436096 67.61125326156616,13.209906220436096 66.76493287086487,14.104428887367249 66.76493287086487,14.104428887367249 66.2301242351532,15.003465116024017 66.2301242351532,15.003465116024017 65.94337821006775,16.154654324054718 65.94337821006775,16.154654324054718 65.8312439918518,17.452998459339142 65.8312439918518,17.452998459339142 65.82001447677612,18.79349946975708 65.82001447677612,18.79349946975708 65.83709716796875,20.071344077587128 65.83709716796875,20.071344077587128 65.80830216407776,21.181534230709076 65.80830216407776,21.181534230709076 65.59647917747498,23.696286976337433 65.59647917747498,23.696286976337433 65.34695029258728,26.207804679870605 65.34695029258728,26.207804679870605 65.05813002586365,28.715234994888306 65.05813002586365,28.715234994888306 64.7285521030426,31.21754229068756 64.7285521030426,31.21754229068756 64.35688734054565,33.71393084526062 64.35688734054565,33.71393084526062 63.941895961761475,36.203545331954956 63.941895961761475,36.203545331954956 65.2553141117096,34.75981652736664 65.2553141117096,34.75981652736664 66.6004478931427,33.34830105304718 66.6004478931427,33.34830105304718 67.97975301742554,31.971925497055054 67.97975301742554,31.971925497055054 69.39566135406494,30.63349723815918 69.39566135406494,30.63349723815918 70.85123062133789,29.336252808570862 70.85123062133789,29.336252808570862 72.34852313995361,28.082934021949768 72.34852313995361,28.082934021949768 73.16446304321289,27.49004364013672 73.16446304321289,27.49004364013672 74.12780523300171,26.862192153930664 74.12780523300171,26.862192153930664 75.14373660087585,26.196274161338806 75.14373660087585,26.196274161338806 76.11744999885559,25.48905313014984 76.11744999885559,25.48905313014984 76.95486545562744,24.737779796123505 76.95486545562744,24.737779796123505" stroke="white" stroke-width="0.1" /></svg>