<?xml version="1.0" encoding="utf-8" ?>
<svg baseProfile="full" height="80.2838385105133" version="1.1" width="99.95917081832886" xmlns="http://www.w3.org/2000/svg" xmlns:ev="http://www.w3.org/2001/xml-events" xmlns:xlink="http://www.w3.org/1999/xlink"><defs><clipPath /></defs><polygon points="67.31877326965332,80.2838385105133 67.31877326965332,80.2838385105133 52.92588472366333,68.78011226654053 52.92588472366333,68.78011226654053 46.07954025268555,59.31355953216553 46.07954025268555,59.31355953216553 44.874244928359985,51.848459243774414 44.874244928359985,51.848459243774414 47.40450382232666,46.34849429130554 47.40450382232666,46.34849429130554 51.76541209220886,42.777737975120544 51.76541209220886,42.777737975120544 56.051480770111084,41.10047221183777 56.051480770111084,41.10047221183777 56.3872754573822,41.038236021995544 56.3872754573822,41.038236021995544 56.71866536140442,40.98800718784332 56.71866536140442,40.98800718784332 57.04605579376221,40.94948470592499 57.04605579376221,40.94948470592499 57.36933946609497,40.922367572784424 57.36933946609497,40.922367572784424 57.68882632255554,40.90636074542999 57.68882632255554,40.90636074542999 58.004605770111084,40.9011572599411 58.004605770111084,40.9011572599411 60.15564799308777,41.14689826965332 60.15564799308777,41.14689826965332 62.09356188774109,41.79707169532776 62.09356188774109,41.79707169532776 63.79874348640442,42.72100627422333 63.79874348640442,42.72100627422333 65.25098085403442,43.78771781921387 65.25098085403442,43.78771781921387 66.43106341362,44.86704170703888 66.43106341362,44.86704170703888 67.31877326965332,45.827993750572205 67.31877326965332,45.827993750572205 68.20528507232666,44.86724138259888 68.20528507232666,44.86724138259888 69.38486099243164,43.7879204750061 69.38486099243164,43.7879204750061 70.83759903907776,42.72100627422333 70.83759903907776,42.72100627422333 72.54307866096497,41.79707169532776 72.54307866096497,41.79707169532776 74.48159456253052,41.14689826965332 74.48159456253052,41.14689826965332 76.63293480873108,40.9011572599411 76.63293480873108,40.9011572599411 76.9487202167511,40.90645909309387 76.9487202167511,40.90645909309387 77.26790308952332,40.922367572784424 77.26790308952332,40.922367572784424 77.59108543395996,40.94948470592499 77.59108543395996,40.94948470592499 77.91787385940552,40.987807512283325 77.91787385940552,40.987807512283325 78.24846506118774,41.03803634643555 78.24846506118774,41.03803634643555 78.58285903930664,41.10047221183777 78.58285903930664,41.10047221183777 82.86992907524109,42.77793765068054 82.86992907524109,42.77793765068054 87.23114132881165,46.34849429130554 87.23114132881165,46.34849429130554 89.7616982460022,51.848459243774414 89.7616982460022,51.848459243774414 88.55630159378052,59.31355953216553 88.55630159378052,59.31355953216553 81.71045780181885,68.77991557121277 81.71045780181885,68.77991557121277" stroke="white" stroke-width="0.1" /><polygon points="98.2774019241333,12.927445769309998 98.2774019241333,12.927445769309998 80.51677346229553,35.94870567321777 80.51677346229553,35.94870567321777 80.42001724243164,35.921189188957214 80.42001724243164,35.921189188957214 80.32236099243164,35.89377403259277 80.32236099243164,35.89377403259277 80.22500276565552,35.867056250572205 80.22500276565552,35.867056250572205 80.12824654579163,35.84064245223999 80.12824654579163,35.84064245223999 80.03319501876831,35.815128684043884 80.03319501876831,35.815128684043884 79.94043827056885,35.79021394252777 79.94043827056885,35.79021394252777 79.94043827056885,35.798218846321106 79.94043827056885,35.798218846321106 79.46786880493164,35.7011616230011 79.46786880493164,35.7011616230011 78.99850010871887,35.62301695346832 78.99850010871887,35.62301695346832 78.53323221206665,35.56358218193054 78.53323221206665,35.56358218193054 78.07186245918274,35.52175760269165 78.07186245918274,35.52175760269165 77.61560082435608,35.49734354019165 77.61560082435608,35.49734354019165 77.16444134712219,35.489240288734436 77.16444134712219,35.489240288734436 75.04972219467163,35.682350397109985 75.04972219467163,35.682350397109985 73.12001585960388,36.15022003650665 73.12001585960388,36.15022003650665 71.3735044002533,36.83691620826721 71.3735044002533,36.83691620826721 69.8080062866211,37.685805559158325 69.8080062866211,37.685805559158325 68.42190623283386,38.64075541496277 68.42190623283386,38.64075541496277 67.21311211585999,39.64523375034332 67.21311211585999,39.64523375034332 66.00591540336609,38.64065408706665 66.00591540336609,38.64065408706665 64.62121605873108,37.68570423126221 64.62121605873108,37.68570423126221 63.057518005371094,36.83691620826721 63.057518005371094,36.83691620826721 61.31241321563721,36.15022003650665 61.31241321563721,36.15022003650665 59.38439965248108,35.682350397109985 59.38439965248108,35.682350397109985 57.271385192871094,35.489240288734436 57.271385192871094,35.489240288734436 56.8189263343811,35.49724519252777 56.8189263343811,35.49724519252777 56.361258029937744,35.52175760269165 56.361258029937744,35.52175760269165 55.8993935585022,35.56358218193054 55.8993935585022,35.56358218193054 55.43302893638611,35.62311828136444 55.43302893638611,35.62311828136444 54.96285557746887,35.7011616230011 54.96285557746887,35.7011616230011 54.488980770111084,35.798218846321106 54.488980770111084,35.798218846321106 53.07116508483887,36.188241839408875 53.07116508483887,36.188241839408875 51.57430171966553,36.745962500572205 51.57430171966553,36.745962500572205 50.02681016921997,37.479084730148315 50.02681016921997,37.479084730148315 48.45640957355499,38.3941113948822 48.45640957355499,38.3941113948822 46.891605854034424,39.498549699783325 46.891605854034424,39.498549699783325 45.36052644252777,40.799498558044434 45.36052644252777,40.799498558044434 43.91729533672333,42.303162813186646 43.91729533672333,42.303162813186646 42.60734021663666,44.03916299343109 42.60734021663666,44.03916299343109 41.489094495773315,45.99869251251221 41.489094495773315,45.99869251251221 40.620094537734985,48.1721431016922 40.620094537734985,48.1721431016922 40.05877077579498,50.55071711540222 40.05877077579498,50.55071711540222 39.86295759677887,53.125 39.86295759677887,53.125 40.251582860946655,56.76869750022888 40.251582860946655,56.76869750022888 41.382235288619995,60.590797662734985 41.382235288619995,60.590797662734985 43.32655370235443,64.60471153259277 43.32655370235443,64.60471153259277 46.1560845375061,68.82364153862 46.1560845375061,68.82364153862 49.94276463985443,73.26109409332275 49.94276463985443,73.26109409332275 54.75793480873108,77.93048620223999 54.75793480873108,77.93048620223999 34.09323692321777,77.93048620223999 34.09323692321777,77.93048620223999 31.04788064956665,77.51494646072388 31.04788064956665,77.51494646072388 28.36013436317444,76.34357213973999 28.36013436317444,76.34357213973999 26.135453581809998,74.52952265739441 26.135453581809998,74.52952265739441 24.478697776794434,72.1848726272583 24.478697776794434,72.1848726272583 23.495331406593323,69.42288279533386 23.495331406593323,69.42288279533386 23.29021394252777,66.35581851005554 23.29021394252777,66.35581851005554 24.843108654022217,43.81483495235443 24.843108654022217,43.81483495235443 24.84370917081833,43.791019916534424 24.84370917081833,43.791019916534424 24.845609068870544,43.76820921897888 24.845609068870544,43.76820921897888 24.84831064939499,43.745794892311096 24.84831064939499,43.745794892311096 24.85111355781555,43.72338354587555 24.85111355781555,43.72338354587555 24.853914976119995,43.700969219207764 24.853914976119995,43.700969219207764 24.85591620206833,43.677955865859985 24.85591620206833,43.677955865859985 24.576754868030548,43.44932436943054 24.576754868030548,43.44932436943054 24.303898215293884,43.20928752422333 24.303898215293884,43.20928752422333 24.039044976234436,42.95684099197388 24.039044976234436,42.95684099197388 23.783397674560547,42.69038736820221 23.783397674560547,42.69038736820221 23.538756370544434,42.409124970436096 23.538756370544434,42.409124970436096 23.30622375011444,42.11145341396332 23.30622375011444,42.11145341396332 1.5977201983332634,12.512005865573883 1.5977201983332634,12.512005865573883 0.5684273783117533,10.64983382821083 0.5684273783117533,10.64983382821083 0.06163549842312932,8.671093732118607 0.06163549842312932,8.671093732118607 0.06403687875717878,6.6790468990802765 0.06403687875717878,6.6790468990802765 0.5615233909338713,4.776551201939583 0.5615233909338713,4.776551201939583 1.5405872836709023,3.066866286098957 1.5405872836709023,3.066866286098957 2.9873205348849297,1.6529520973563194 2.9873205348849297,1.6529520973563194 4.77144792675972,0.6962009705603123 4.77144792675972,0.6962009705603123 6.696856766939163,0.2766593359410763 6.696856766939163,0.2766593359410763 8.661388605833054,0.3755162702873349 8.661388605833054,0.3755162702873349 10.561882704496384,0.9738609194755554 10.561882704496384,0.9738609194755554 12.296181917190552,2.052982337772846 12.296181917190552,2.052982337772846 13.761526346206665,3.594069927930832 13.761526346206665,3.594069927930832 34.938523173332214,32.48591125011444 34.938523173332214,32.48591125011444 35.296428203582764,32.418471574783325 35.296428203582764,32.418471574783325 35.656437277793884,32.361939549446106 35.656437277793884,32.361939549446106 36.0183447599411,32.317012548446655 36.0183447599411,32.317012548446655 36.38175427913666,32.28329420089722 36.38175427913666,32.28329420089722 36.746564507484436,32.26148188114166 36.746564507484436,32.26148188114166 37.11257576942444,32.251375913619995 37.11257576942444,32.251375913619995 35.375675559043884,30.43612837791443 35.375675559043884,30.43612837791443 33.89421999454498,28.400355577468872 33.89421999454498,28.400355577468872 32.69523084163666,26.170173287391663 32.69523084163666,26.170173287391663 31.805318593978882,23.770590126514435 31.805318593978882,23.770590126514435 31.25160038471222,21.22732549905777 31.25160038471222,21.22732549905777 31.061089038848877,18.565893173217773 31.061089038848877,18.565893173217773 31.72387182712555,13.630850613117218 31.72387182712555,13.630850613117218 33.59454870223999,9.195796400308609 33.59454870223999,9.195796400308609 36.49662137031555,5.438332259654999 36.49662137031555,5.438332259654999 40.252482891082764,2.5350600481033325 40.252482891082764,2.5350600481033325 44.68563497066498,0.6633820477873087 44.68563497066498,0.6633820477873087 49.618977308273315,0.0 49.618977308273315,0.0 54.553818702697754,0.663282023742795 54.553818702697754,0.663282023742795 58.98837447166443,2.534960024058819 58.98837447166443,2.534960024058819 62.74573802947998,5.438332259654999 62.74573802947998,5.438332259654999 65.64860939979553,9.195896238088608 65.64860939979553,9.195896238088608 67.5200879573822,13.630850613117218 67.5200879573822,13.630850613117218 68.18326711654663,18.565893173217773 68.18326711654663,18.565893173217773 67.99235939979553,21.22732549905777 67.99235939979553,21.22732549905777 67.43804216384888,23.770490288734436 67.43804216384888,23.770490288734436 66.54752492904663,26.170173287391663 66.54752492904663,26.170173287391663 65.3476357460022,28.40055823326111 65.3476357460022,28.40055823326111 63.86558413505554,30.43612837791443 63.86558413505554,30.43612837791443 62.12857961654663,32.251375913619995 62.12857961654663,32.251375913619995 62.472182512283325,32.26118087768555 62.472182512283325,32.26118087768555 62.81437873840332,32.28249251842499 62.81437873840332,32.28249251842499 63.155174255371094,32.31441080570221 63.155174255371094,32.31441080570221 63.493967056274414,32.355934381484985 63.493967056274414,32.355934381484985 63.83066177368164,32.40646421909332 63.83066177368164,32.40646421909332 64.16495442390442,32.465097308158875 64.16495442390442,32.465097308158875 86.34092807769775,3.717340901494026 86.34092807769775,3.717340901494026 87.84399032592773,2.211673744022846 87.84399032592773,2.211673744022846 89.6047055721283,1.1754769831895828 89.6047055721283,1.1754769831895828 91.51991009712219,0.6245597265660763 91.51991009712219,0.6245597265660763 93.48624348640442,0.5745308939367533 93.48624348640442,0.5745308939367533 95.40074467658997,1.0411996394395828 95.40074467658997,1.0411996394395828 97.15995788574219,2.0403752103447914 97.15995788574219,2.0403752103447914 98.57267141342163,3.4882090985774994 98.57267141342163,3.4882090985774994 99.50941205024719,5.220906808972359 99.50941205024719,5.220906808972359 99.95917081832886,7.134809345006943 99.95917081832886,7.134809345006943 99.91094470024109,9.126155823469162 99.91094470024109,9.126155823469162 99.35402274131775,11.09158843755722 99.35402274131775,11.09158843755722" stroke="white" stroke-width="0.1" /><polygon points="67.31877326965332,75.19290447235107 67.31877326965332,75.19290447235107 74.95536804199219,69.32442784309387 74.95536804199219,69.32442784309387 80.16477227210999,64.2726182937622 80.16477227210999,64.2726182937622 83.38842988014221,60.036975145339966 83.38842988014221,60.036975145339966 85.0672960281372,56.61620497703552 85.0672960281372,56.61620497703552 85.64302325248718,54.01010513305664 85.64302325248718,54.01010513305664 85.55647730827332,52.2172749042511 85.55647730827332,52.2172749042511 84.84016060829163,50.27555823326111 84.84016060829163,50.27555823326111 83.63446593284607,48.64181578159332 83.63446593284607,48.64181578159332 82.13050365447998,47.318652272224426 82.13050365447998,47.318652272224426 80.51857352256775,46.30846977233887 80.51857352256775,46.30846977233887 78.98959517478943,45.61406970024109 78.98959517478943,45.61406970024109 77.73436903953552,45.23805379867554 77.73436903953552,45.23805379867554 77.54906415939331,45.20263373851776 77.54906415939331,45.20263373851776 77.36405730247498,45.17321586608887 77.36405730247498,45.17321586608887 77.18005180358887,45.15000283718109 77.18005180358887,45.15000283718109 76.99654698371887,45.13309299945831 76.99654698371887,45.13309299945831 76.81424021720886,45.122987031936646 76.81424021720886,45.122987031936646 76.63293480873108,45.11958658695221 76.63293480873108,45.11958658695221 75.25174021720886,45.30319273471832 75.25174021720886,45.30319273471832 73.97900819778442,45.78346908092499 73.97900819778442,45.78346908092499 72.8427529335022,46.4555561542511 72.8427529335022,46.4555561542511 71.8701958656311,47.21399247646332 71.8701958656311,47.21399247646332 71.08914256095886,47.95371890068054 71.08914256095886,47.95371890068054 70.52701711654663,48.56957197189331 70.52701711654663,48.56957197189331 67.31877326965332,52.32853889465332 67.31877326965332,52.32853889465332 64.11052346229553,48.56957197189331 64.11052346229553,48.56957197189331 63.54820132255554,47.95381724834442 63.54820132255554,47.95381724834442 62.76655197143555,47.21399247646332 62.76655197143555,47.21399247646332 61.79358959197998,46.4555561542511 61.79358959197998,46.4555561542511 60.65673232078552,45.78346908092499 60.65673232078552,45.78346908092499 59.384703636169434,45.302993059158325 59.384703636169434,45.302993059158325 58.004605770111084,45.11958658695221 58.004605770111084,45.11958658695221 57.823002338409424,45.123088359832764 57.823002338409424,45.123088359832764 57.639896869659424,45.13319432735443 57.639896869659424,45.13319432735443 57.455891370773315,45.15000283718109 57.455891370773315,45.15000283718109 57.27088451385498,45.17311751842499 57.27088451385498,45.17311751842499 57.08557963371277,45.20253539085388 57.08557963371277,45.20253539085388 56.8999707698822,45.23805379867554 56.8999707698822,45.23805379867554 55.64604997634888,45.614272356033325 55.64604997634888,45.614272356033325 54.11787033081055,46.30846977233887 54.11787033081055,46.30846977233887 52.506643533706665,47.318652272224426 52.506643533706665,47.318652272224426 51.00277662277222,48.641714453697205 51.00277662277222,48.641714453697205 49.79737997055054,50.27555823326111 49.79737997055054,50.27555823326111 49.081069231033325,52.2172749042511 49.081069231033325,52.2172749042511 48.9946186542511,54.01010513305664 48.9946186542511,54.01010513305664 49.570050835609436,56.61630630493164 49.570050835609436,56.61630630493164 51.24911665916443,60.036975145339966 51.24911665916443,60.036975145339966 54.47257161140442,64.27251696586609 54.47257161140442,64.27251696586609 59.682172536849976,69.32432651519775 59.682172536849976,69.32432651519775" stroke="white" stroke-width="0.1" /></svg>