<?xml version="1.0" encoding="utf-8" ?>
<svg baseProfile="full" height="72.10213541984558" version="1.1" width="99.99674558639526" xmlns="http://www.w3.org/2000/svg" xmlns:ev="http://www.w3.org/2001/xml-events" xmlns:xlink="http://www.w3.org/1999/xlink"><defs><clipPath /></defs><polygon points="99.48633909225464,37.69373595714569 99.48633909225464,37.69373595714569 99.99674558639526,65.31912088394165 99.99674558639526,65.31912088394165 99.99354481697083,66.0973310470581 99.99354481697083,66.0973310470581 99.94559288024902,66.85959100723267 99.94559288024902,66.85959100723267 99.83917474746704,67.60056614875793 99.83917474746704,67.60056614875793 99.6606707572937,68.31512451171875 99.6606707572937,68.31512451171875 99.39637780189514,68.99808645248413 99.39637780189514,68.99808645248413 99.03261661529541,69.64417695999146 99.03261661529541,69.64417695999146 98.55563640594482,70.24829983711243 98.55563640594482,70.24829983711243 97.95186519622803,70.8051860332489 97.95186519622803,70.8051860332489 97.21840620040894,71.28374576568604 97.21840620040894,71.28374576568604 96.43882513046265,71.61702513694763 96.43882513046265,71.61702513694763 95.62272429466248,71.83011770248413 95.62272429466248,71.83011770248413 94.7799026966095,71.94811701774597 94.7799026966095,71.94811701774597 93.92011165618896,71.99602127075195 93.92011165618896,71.99602127075195 93.05301308631897,71.99912071228027 93.05301308631897,71.99912071228027 92.18850135803223,71.98225259780884 92.18850135803223,71.98225259780884 91.33607745170593,71.97067141532898 91.33607745170593,71.97067141532898 82.76805877685547,71.96904420852661 82.76805877685547,71.96904420852661 81.76634907722473,71.95075750350952 81.76634907722473,71.95075750350952 80.7822048664093,71.87929153442383 80.7822048664093,71.87929153442383 79.83016967773438,71.72989249229431 79.83016967773438,71.72989249229431 78.92476916313171,71.4777410030365 78.92476916313171,71.4777410030365 78.08036804199219,71.09808325767517 78.08036804199219,71.09808325767517 77.31150984764099,70.5660343170166 77.31150984764099,70.5660343170166 76.632559299469,69.85675692558289 76.632559299469,69.85675692558289 76.05799436569214,68.94561648368835 76.05799436569214,68.94561648368835 75.8096992969513,68.36444735527039 75.8096992969513,68.36444735527039 75.63526034355164,67.76489019393921 75.63526034355164,67.76489019393921 75.52163004875183,67.15090870857239 75.52163004875183,67.15090870857239 75.45574307441711,66.52666926383972 75.45574307441711,66.52666926383972 75.42460560798645,65.89627861976624 75.42460560798645,65.89627861976624 75.41521191596985,65.26385545730591 75.41521191596985,65.26385545730591 75.41449666023254,64.63331580162048 75.41449666023254,64.63331580162048 75.40941834449768,64.00896906852722 75.40941834449768,64.00896906852722 75.39803981781006,63.76478672027588 75.39803981781006,63.76478672027588 75.37000179290771,63.597309589385986 75.37000179290771,63.597309589385986 75.31971335411072,63.492971658706665 75.31971335411072,63.492971658706665 75.24158358573914,63.438212871551514 75.24158358573914,63.438212871551514 75.13008713722229,63.419270515441895 75.13008713722229,63.419270515441895 74.97967481613159,63.42262029647827 74.97967481613159,63.42262029647827 74.78471994400024,63.4346604347229 74.78471994400024,63.4346604347229 74.53977465629578,63.441669940948486 74.53977465629578,63.441669940948486 65.85310101509094,63.441669940948486 65.85310101509094,63.441669940948486 49.84191656112671,63.441669940948486 49.84191656112671,63.441669940948486 32.54496455192566,63.441669940948486 32.54496455192566,63.441669940948486 25.04652738571167,63.441669940948486 25.04652738571167,63.441669940948486 24.848724901676178,63.52924108505249 24.848724901676178,63.52924108505249 24.726711213588715,63.76463770866394 24.726711213588715,63.76463770866394 24.665145576000214,64.10680413246155 24.665145576000214,64.10680413246155 24.648484587669373,64.51470255851746 24.648484587669373,64.51470255851746 24.661539494991302,64.94739055633545 24.661539494991302,64.94739055633545 24.68876540660858,65.3638243675232 24.68876540660858,65.3638243675232 24.71497654914856,65.72306156158447 24.71497654914856,65.72306156158447 24.724680185317993,65.98395109176636 24.724680185317993,65.98395109176636 24.677032232284546,66.75494909286499 24.677032232284546,66.75494909286499 24.55989420413971,67.50298142433167 24.55989420413971,67.50298142433167 24.368491768836975,68.22115182876587 24.368491768836975,68.22115182876587 24.09784644842148,68.90254020690918 24.09784644842148,68.90254020690918 23.742978274822235,69.54039335250854 23.742978274822235,69.54039335250854 23.299013078212738,70.12776136398315 23.299013078212738,70.12776136398315 22.760972380638123,70.657879114151 22.760972380638123,70.657879114151 22.123877704143524,71.12378478050232 22.123877704143524,71.12378478050232 21.176770329475403,71.58451676368713 21.176770329475403,71.58451676368713 20.12369930744171,71.87974452972412 20.12369930744171,71.87974452972412 18.995703756809235,72.04158306121826 18.995703756809235,72.04158306121826 17.823615670204163,72.10213541984558 17.823615670204163,72.10213541984558 16.6384220123291,72.09339737892151 16.6384220123291,72.09339737892151 15.471109747886658,72.04747796058655 15.471109747886658,72.04747796058655 14.35256153345108,71.99642658233643 14.35256153345108,71.99642658233643 13.313664495944977,71.97229862213135 13.313664495944977,71.97229862213135 12.27862611413002,71.98377847671509 12.27862611413002,71.98377847671509 11.23282015323639,72.01120853424072 11.23282015323639,72.01120853424072 10.180003196001053,72.04443216323853 10.180003196001053,72.04443216323853 9.123935550451279,72.07287549972534 9.123935550451279,72.07287549972534 8.068478107452393,72.08638787269592 8.068478107452393,72.08638787269592 7.017490267753601,72.07440137863159 7.017490267753601,72.07440137863159 5.974782258272171,72.02690243721008 5.974782258272171,72.02690243721008 4.943960532546043,71.93328738212585 4.943960532546043,71.93328738212585 2.8304539620876312,71.24590277671814 2.8304539620876312,71.24590277671814 1.4024515636265278,69.87860202789307 1.4024515636265278,69.87860202789307 0.5368724465370178,67.99947023391724 0.5368724465370178,67.99947023391724 0.11053405469283462,65.77669978141785 0.11053405469283462,65.77669978141785 0.000253984489972936,63.37832808494568 0.000253984489972936,63.37832808494568 0.08279894827865064,60.972535610198975 0.08279894827865064,60.972535610198975 0.235138856805861,58.727461099624634 0.235138856805861,58.727461099624634 0.3340404015034437,56.81124925613403 0.3340404015034437,56.81124925613403 0.3773193573579192,54.479777812957764 0.3773193573579192,54.479777812957764 0.4205983132123947,52.148401737213135 0.4205983132123947,52.148401737213135 0.4638772923499346,49.81712996959686 0.4638772923499346,49.81712996959686 0.5071562249213457,47.48595654964447 0.5071562249213457,47.48595654964447 0.5504352040588856,45.154887437820435 0.5504352040588856,45.154887437820435 0.5937141366302967,42.82386898994446 0.5937141366302967,42.82386898994446 0.6370439194142818,40.49285054206848 0.6370439194142818,40.49285054206848 0.6802720949053764,38.161882758140564 0.6802720949053764,38.161882758140564 0.722484290599823,37.723809480667114 0.722484290599823,37.723809480667114 0.8203699253499508,37.28634715080261 0.8203699253499508,37.28634715080261 0.9546768851578236,36.85152530670166 0.9546768851578236,36.85152530670166 1.10615324229002,36.421579122543335 1.10615324229002,36.421579122543335 1.2554961256682873,35.998544096946716 1.2554961256682873,35.998544096946716 1.38340275734663,35.584548115730286 1.38340275734663,35.584548115730286 1.4706210233271122,35.1817786693573 1.4706210233271122,35.1817786693573 1.4978989958763123,34.79221761226654 1.4978989958763123,34.79221761226654 1.4844886027276516,34.22710299491882 1.4844886027276516,34.22710299491882 1.471078209578991,33.66188704967499 1.471078209578991,33.66188704967499 1.4576678164303303,33.096617460250854 1.4576678164303303,33.096617460250854 1.4442574232816696,32.53135085105896 1.4442574232816696,32.53135085105896 1.430897880345583,31.966182589530945 1.430897880345583,31.966182589530945 1.4174366369843483,31.401118636131287 1.4174366369843483,31.401118636131287 1.403975486755371,30.836308002471924 1.403975486755371,30.836308002471924 1.3906159438192844,30.271700024604797 1.3906159438192844,30.271700024604797 1.5294946730136871,29.476678371429443 1.5294946730136871,29.476678371429443 1.9401367753744125,28.84720265865326 1.9401367753744125,28.84720265865326 2.549394778907299,28.335779905319214 2.549394778907299,28.335779905319214 3.2841213047504425,27.89481282234192 3.2841213047504425,27.89481282234192 4.071168228983879,27.476906776428223 4.071168228983879,27.476906776428223 4.8374902456998825,27.034515142440796 4.8374902456998825,27.034515142440796 5.509838089346886,26.51999294757843 5.509838089346886,26.51999294757843 6.015165522694588,25.88610053062439 6.015165522694588,25.88610053062439 4.664171114563942,25.74417293071747 4.664171114563942,25.74417293071747 3.4353435039520264,25.30498206615448 3.4353435039520264,25.30498206615448 2.358601614832878,24.610386788845062 2.358601614832878,24.610386788845062 1.4641698449850082,23.702341318130493 1.4641698449850082,23.702341318130493 0.7819674909114838,22.62270450592041 0.7819674909114838,22.62270450592041 0.34211711026728153,21.41343355178833 0.34211711026728153,21.41343355178833 0.17463973490521312,20.11653780937195 0.17463973490521312,20.11653780937195 0.3096578875556588,18.773721158504486 0.3096578875556588,18.773721158504486 0.7254813332110643,17.514973878860474 0.7254813332110643,17.514973878860474 1.3448987156152725,16.504116356372833 1.3448987156152725,16.504116356372833 2.1382953971624374,15.716610848903656 2.1382953971624374,15.716610848903656 3.0760569497942924,15.127722918987274 3.0760569497942924,15.127722918987274 4.128619655966759,14.712661504745483 4.128619655966759,14.712661504745483 5.266520753502846,14.446841180324554 5.266520753502846,14.446841180324554 6.460095942020416,14.305372536182404 6.460095942020416,14.305372536182404 7.679678499698639,14.2637699842453 7.679678499698639,14.2637699842453 8.238901197910309,14.261889457702637 8.238901197910309,14.261889457702637 8.793603628873825,14.262956380844116 8.793603628873825,14.262956380844116 9.343480318784714,14.276976883411407 9.343480318784714,14.276976883411407 9.888327866792679,14.314058423042297 9.888327866792679,14.314058423042297 10.427841544151306,14.384107291698456 10.427841544151306,14.384107291698456 10.961716622114182,14.497333765029907 10.961716622114182,14.497333765029907 11.48969978094101,14.663490653038025 11.48969978094101,14.663490653038025 12.011638283729553,14.892837405204773 12.011638283729553,14.892837405204773 12.417708337306976,14.150440692901611 12.417708337306976,14.150440692901611 12.823982536792755,13.408146798610687 12.823982536792755,13.408146798610687 13.23051005601883,12.666003406047821 13.23051005601883,12.666003406047821 13.637341558933258,11.923962831497192 13.637341558933258,11.923962831497192 14.044581353664398,11.1821249127388 14.044581353664398,11.1821249127388 14.452226459980011,10.440540313720703 14.452226459980011,10.440540313720703 14.860481023788452,9.699210524559021 14.860481023788452,9.699210524559021 15.269140899181366,8.958134800195694 15.269140899181366,8.958134800195694 15.630510449409485,8.275526016950607 15.630510449409485,8.275526016950607 15.99157452583313,7.562033087015152 15.99157452583313,7.562033087015152 16.361629962921143,6.834112852811813 16.361629962921143,6.834112852811813 16.749972105026245,6.108123809099197 16.749972105026245,6.108123809099197 17.165644466876984,5.400523170828819 17.165644466876984,5.400523170828819 17.61809140443802,4.727768898010254 17.61809140443802,4.727768898010254 18.116408586502075,4.106319695711136 18.116408586502075,4.106319695711136 18.66968870162964,3.552531823515892 18.66968870162964,3.552531823515892 19.481322169303894,2.95190941542387 19.481322169303894,2.95190941542387 20.382560789585114,2.476348914206028 20.382560789585114,2.476348914206028 21.35176509618759,2.107563428580761 21.35176509618759,2.107563428580761 22.367094457149506,1.8270628526806831 22.367094457149506,1.8270628526806831 23.40695708990097,1.6164589673280716 23.40695708990097,1.6164589673280716 24.449461698532104,1.4575662091374397 24.449461698532104,1.4575662091374397 25.47307014465332,1.3317422941327095 25.47307014465332,1.3317422941327095 26.45583748817444,1.2207510881125927 26.45583748817444,1.2207510881125927 28.838416934013367,0.9718970395624638 28.838416934013367,0.9718970395624638 31.22703731060028,0.7676427252590656 31.22703731060028,0.7676427252590656 33.62013101577759,0.6014352664351463 33.62013101577759,0.6014352664351463 36.01621985435486,0.466518709436059 36.01621985435486,0.466518709436059 38.41383457183838,0.3562894416972995 38.41383457183838,0.3562894416972995 40.8114492893219,0.264143873937428 40.8114492893219,0.264143873937428 43.20769011974335,0.18332600593566895 43.20769011974335,0.18332600593566895 45.60098648071289,0.10728305205702782 45.60098648071289,0.10728305205702782 49.17246401309967,0.02372215240029618 49.17246401309967,0.02372215240029618 52.75740623474121,0.0004063751930516446 52.75740623474121,0.0004063751930516446 56.35021924972534,0.040129548870027065 56.35021924972534,0.040129548870027065 59.94521975517273,0.1456855097785592 59.94521975517273,0.1456855097785592 63.53686451911926,0.31991887371987104 63.53686451911926,0.31991887371987104 67.1196699142456,0.5656234920024872 67.1196699142456,0.5656234920024872 70.68779468536377,0.8855423890054226 70.68779468536377,0.8855423890054226 74.23580884933472,1.2825201265513897 74.23580884933472,1.2825201265513897 75.18266439437866,1.3991497457027435 75.18266439437866,1.3991497457027435 76.16598606109619,1.5333551913499832 76.16598606109619,1.5333551913499832 77.1647572517395,1.7027121037244797 77.1647572517395,1.7027121037244797 78.15793752670288,1.9247960299253464 78.15793752670288,1.9247960299253464 79.12455201148987,2.2171830758452415 79.12455201148987,2.2171830758452415 80.04351854324341,2.5975503027439117 80.04351854324341,2.5975503027439117 80.89380860328674,3.0834225937724113 80.89380860328674,3.0834225937724113 81.65459036827087,3.6923248320817947 81.65459036827087,3.6923248320817947 81.93727731704712,3.9843056350946426 81.93727731704712,3.9843056350946426 82.19654560089111,4.294776171445847 82.19654560089111,4.294776171445847 82.43610262870789,4.620587453246117 82.43610262870789,4.620587453246117 82.65956044197083,4.958387091755867 82.65956044197083,4.958387091755867 82.8707218170166,5.30492328107357 82.8707218170166,5.30492328107357 83.07324647903442,5.657047405838966 83.07324647903442,5.657047405838966 83.27074646949768,6.011305004358292 83.27074646949768,6.011305004358292 83.46702456474304,6.3646480441093445 83.46702456474304,6.3646480441093445 83.968186378479,7.261975854635239 83.968186378479,7.261975854635239 84.46716666221619,8.16047117114067 84.46716666221619,8.16047117114067 84.96441841125488,9.059880673885345 84.96441841125488,9.059880673885345 85.46029925346375,9.960154443979263 85.46029925346375,9.960154443979263 85.95505952835083,10.860935598611832 85.95505952835083,10.860935598611832 86.44915819168091,11.762174218893051 86.44915819168091,11.762174218893051 86.94285750389099,12.66346424818039 86.94285750389099,12.66346424818039 87.4364972114563,13.564804196357727 87.4364972114563,13.564804196357727 87.67971396446228,14.012527465820312 87.67971396446228,14.012527465820312 87.86278963088989,14.331735670566559 87.86278963088989,14.331735670566559 88.01589012145996,14.538225531578064 88.01589012145996,14.538225531578064 88.1693959236145,14.647692441940308 88.1693959236145,14.647692441940308 88.35363984107971,14.675883948802948 88.35363984107971,14.675883948802948 88.59883546829224,14.638549089431763 88.59883546829224,14.638549089431763 88.93541693687439,14.55153375864029 88.93541693687439,14.55153375864029 89.3936038017273,14.43038284778595 89.3936038017273,14.43038284778595 89.56829309463501,14.389389753341675 89.56829309463501,14.389389753341675 89.74267840385437,14.354594051837921 89.74267840385437,14.354594051837921 89.91716504096985,14.32589441537857 89.91716504096985,14.32589441537857 90.09195566177368,14.302882552146912 90.09195566177368,14.302882552146912 90.26746153831482,14.285409450531006 90.26746153831482,14.285409450531006 90.44398069381714,14.273267984390259 90.44398069381714,14.273267984390259 90.62182307243347,14.266055822372437 90.62182307243347,14.266055822372437 90.8012866973877,14.2637699842453 90.8012866973877,14.2637699842453 92.93231964111328,14.2637699842453 92.93231964111328,14.2637699842453 93.63900423049927,14.271846413612366 93.63900423049927,14.271846413612366 94.3318247795105,14.304710924625397 94.3318247795105,14.304710924625397 95.00894546508789,14.375217258930206 95.00894546508789,14.375217258930206 95.66884636878967,14.496317505836487 95.66884636878967,14.496317505836487 96.30980491638184,14.680811762809753 96.30980491638184,14.680811762809753 96.93023562431335,14.941704273223877 96.93023562431335,14.941704273223877 97.52857089042664,15.291695296764374 97.52857089042664,15.291695296764374 98.10303449630737,15.743787586688995 98.10303449630737,15.743787586688995 99.25861358642578,17.185504734516144 99.25861358642578,17.185504734516144 99.85547661781311,18.812835216522217 99.85547661781311,18.812835216522217 99.93751645088196,20.508232712745667 99.93751645088196,20.508232712745667 99.54851269721985,22.15384840965271 99.54851269721985,22.15384840965271 98.73235821723938,23.632191121578217 98.73235821723938,23.632191121578217 97.53293991088867,24.825409054756165 97.53293991088867,24.825409054756165 95.9940493106842,25.615963339805603 95.9940493106842,25.615963339805603 94.1595733165741,25.88610053062439 94.1595733165741,25.88610053062439 94.54959034919739,26.332706212997437 94.54959034919739,26.332706212997437 95.16697525978088,26.78200602531433 95.16697525978088,26.78200602531433 95.92517018318176,27.232825756072998 95.92517018318176,27.232825756072998 96.7376172542572,27.68431007862091 96.7376172542572,27.68431007862091 97.5178062915802,28.135284781455994 97.5178062915802,28.135284781455994 98.179030418396,28.584736585617065 98.179030418396,28.584736585617065 98.63482713699341,29.031747579574585 98.63482713699341,29.031747579574585 98.79875183105469,29.47520613670349 98.79875183105469,29.47520613670349 98.70122075080872,33.6267352104187 98.70122075080872,33.6267352104187 98.7230122089386,34.17204022407532 98.7230122089386,34.17204022407532 98.80312085151672,34.686002135276794 98.80312085151672,34.686002135276794 98.92320036888123,35.17903685569763 98.92320036888123,35.17903685569763 99.06513094902039,35.66145598888397 99.06513094902039,35.66145598888397 99.21060800552368,36.143770813941956 99.21060800552368,36.143770813941956 99.3415117263794,36.63634955883026 99.3415117263794,36.63634955883026 99.43944811820984,37.14950084686279 99.43944811820984,37.14950084686279" stroke="white" stroke-width="0.1" /><polygon points="15.026941895484924,44.03156638145447 15.026941895484924,44.03156638145447 18.134289979934692,43.400514125823975 18.134289979934692,43.400514125823975 20.353911817073822,41.73681437969208 20.353911817073822,41.73681437969208 21.685653924942017,39.384663105010986 21.685653924942017,39.384663105010986 22.129566967487335,36.688366532325745 22.129566967487335,36.688366532325745 21.685653924942017,33.992066979408264 21.685653924942017,33.992066979408264 20.353911817073822,31.639915704727173 20.353911817073822,31.639915704727173 18.13434064388275,29.976165294647217 18.13434064388275,29.976165294647217 15.026941895484924,29.34516668319702 15.026941895484924,29.34516668319702 11.918984353542328,29.976215958595276 11.918984353542328,29.976215958595276 9.699058532714844,31.639915704727173 9.699058532714844,31.639915704727173 8.367062360048294,33.992066979408264 8.367062360048294,33.992066979408264 7.923097163438797,36.688366532325745 7.923097163438797,36.688366532325745 8.367113023996353,39.384716749191284 8.367113023996353,39.384716749191284 9.699109196662903,41.73676371574402 9.699109196662903,41.73676371574402 11.918984353542328,43.400514125823975 11.918984353542328,43.400514125823975" stroke="white" stroke-width="0.1" /><polygon points="72.21205830574036,40.200260281562805 72.21205830574036,40.200260281562805 73.18100929260254,40.060871839523315 73.18100929260254,40.060871839523315 73.80078434944153,39.678677916526794 73.80078434944153,39.678677916526794 74.13020133972168,39.10782039165497 74.13020133972168,39.10782039165497 74.22788143157959,38.40245604515076 74.22788143157959,38.40245604515076 74.15249943733215,37.61657774448395 74.15249943733215,37.61657774448395 73.9628255367279,36.804383993148804 73.9628255367279,36.804383993148804 73.71742725372314,36.01987659931183 73.71742725372314,36.01987659931183 73.4750747680664,35.317254066467285 73.4750747680664,35.317254066467285 73.1932520866394,34.59939360618591 73.1932520866394,34.59939360618591 72.84742593765259,33.919528126716614 72.84742593765259,33.919528126716614 72.43368625640869,33.29533636569977 72.43368625640869,33.29533636569977 71.94811701774597,32.744696736335754 71.94811701774597,32.744696736335754 71.38665914535522,32.28544294834137 71.38665914535522,32.28544294834137 70.74555158615112,31.935298442840576 70.74555158615112,31.935298442840576 70.02068161964417,31.71214759349823 70.02068161964417,31.71214759349823 69.20813322067261,31.63387179374695 69.20813322067261,31.63387179374695 62.85567879676819,31.63387179374695 62.85567879676819,31.63387179374695 38.00014555454254,31.63387179374695 38.00014555454254,31.63387179374695 31.938651204109192,31.63387179374695 31.938651204109192,31.63387179374695 30.74401021003723,31.76802396774292 30.74401021003723,31.76802396774292 29.769116640090942,32.1449875831604 29.769116640090942,32.1449875831604 28.98074984550476,32.72620737552643 28.98074984550476,32.72620737552643 28.346091508865356,33.47332775592804 28.346091508865356,33.47332775592804 27.83202826976776,34.34794843196869 27.83202826976776,34.34794843196869 27.40558683872223,35.311564803123474 27.40558683872223,35.311564803123474 27.03370451927185,36.32587790489197 27.03370451927185,36.32587790489197 26.68340802192688,37.35238313674927 26.68340802192688,37.35238313674927 26.49540901184082,38.24620544910431 26.49540901184082,38.24620544910431 26.589536666870117,38.930946588516235 26.589536666870117,38.930946588516235 26.914533972740173,39.434242248535156 26.914533972740173,39.434242248535156 27.418744564056396,39.78392779827118 27.418744564056396,39.78392779827118 28.05091142654419,40.007638931274414 28.05091142654419,40.007638931274414 28.759577870368958,40.13310670852661 28.759577870368958,40.13310670852661 29.49349284172058,40.18811881542206 29.49349284172058,40.18811881542206 30.20099103450775,40.200260281562805 30.20099103450775,40.200260281562805 37.55475580692291,40.200260281562805 37.55475580692291,40.200260281562805" stroke="white" stroke-width="0.1" /><polygon points="66.4642870426178,20.034296810626984 66.4642870426178,20.034296810626984 68.92077326774597,20.227324962615967 68.92077326774597,20.227324962615967 71.37076258659363,20.476026833057404 71.37076258659363,20.476026833057404 73.81383776664734,20.778369903564453 73.81383776664734,20.778369903564453 76.24959945678711,21.13252580165863 76.24959945678711,21.13252580165863 78.67769002914429,21.536360681056976 78.67769002914429,21.536360681056976 81.0977041721344,21.988047659397125 81.0977041721344,21.988047659397125 83.50918889045715,22.48544991016388 83.50918889045715,22.48544991016388 85.91178059577942,23.02684336900711 85.91178059577942,23.02684336900711 85.11142134666443,21.565163135528564 85.11142134666443,21.565163135528564 84.3109130859375,20.103584229946136 84.3109130859375,20.103584229946136 83.51020216941833,18.642258644104004 83.51020216941833,18.642258644104004 82.709139585495,17.181137204170227 82.709139585495,17.181137204170227 81.90756440162659,15.720319747924805 81.90756440162659,15.720319747924805 81.10553026199341,14.259909093379974 81.10553026199341,14.259909093379974 80.3027331829071,12.799853086471558 80.3027331829071,12.799853086471558 79.49917912483215,11.34030595421791 79.49917912483215,11.34030595421791 79.30431962013245,10.949373245239258 79.30431962013245,10.949373245239258 79.09122705459595,10.476301610469818 79.09122705459595,10.476301610469818 78.85740995407104,9.955786168575287 78.85740995407104,9.955786168575287 78.60068082809448,9.42251980304718 78.60068082809448,9.42251980304718 78.31840515136719,8.911097049713135 78.31840515136719,8.911097049713135 78.00828814506531,8.456362783908844 78.00828814506531,8.456362783908844 77.66799926757812,8.092860132455826 77.66799926757812,8.092860132455826 77.29499936103821,7.855232805013657 77.29499936103821,7.855232805013657 76.72252058982849,7.646914571523666 76.72252058982849,7.646914571523666 76.12600922584534,7.482637465000153 76.12600922584534,7.482637465000153 75.51212906837463,7.354781776666641 75.51212906837463,7.354781776666641 74.88722801208496,7.2558291256427765 74.88722801208496,7.2558291256427765 74.25795793533325,7.178211212158203 74.25795793533325,7.178211212158203 73.6307144165039,7.114359736442566 73.6307144165039,7.114359736442566 73.01220893859863,7.056806981563568 73.01220893859863,7.056806981563568 72.40874171257019,6.997780501842499 72.40874171257019,6.997780501842499 68.30008625984192,6.616093218326569 68.30008625984192,6.616093218326569 64.18675780296326,6.324925273656845 64.18675780296326,6.324925273656845 60.069870948791504,6.1196040362119675 60.069870948791504,6.1196040362119675 55.9503436088562,5.995557829737663 55.9503436088562,5.995557829737663 51.82919502258301,5.948164314031601 51.82919502258301,5.948164314031601 47.707533836364746,5.972699448466301 47.707533836364746,5.972699448466301 43.5862272977829,6.064590811729431 43.5862272977829,6.064590811729431 39.46634531021118,6.219165772199631 39.46634531021118,6.219165772199631 38.05073797702789,6.283881515264511 38.05073797702789,6.283881515264511 36.635029315948486,6.35286346077919 36.635029315948486,6.35286346077919 35.21931767463684,6.428093463182449 35.21931767463684,6.428093463182449 33.804118633270264,6.511247903108597 33.804118633270264,6.511247903108597 32.38952457904816,6.604053825139999 32.38952457904816,6.604053825139999 30.97594976425171,6.70844167470932 30.97594976425171,6.70844167470932 29.56364154815674,6.826087087392807 29.56364154815674,6.826087087392807 28.152859210968018,6.958768516778946 28.152859210968018,6.958768516778946 27.598363161087036,6.995698064565659 27.598363161087036,6.995698064565659 26.860740780830383,7.030798494815826 26.860740780830383,7.030798494815826 26.008063554763794,7.08230659365654 26.008063554763794,7.08230659365654 25.10870397090912,7.168255001306534 25.10870397090912,7.168255001306534 24.230781197547913,7.306879758834839 24.230781197547913,7.306879758834839 23.442566394805908,7.5162142515182495 23.442566394805908,7.5162142515182495 22.812379896640778,7.814696431159973 22.812379896640778,7.814696431159973 22.408340871334076,8.220157772302628 22.408340871334076,8.220157772302628 21.36228084564209,10.054586082696915 21.36228084564209,10.054586082696915 20.3300878405571,11.89744621515274 20.3300878405571,11.89744621515274 19.308815896511078,13.746809959411621 19.308815896511078,13.746809959411621 18.295417726039886,15.600946545600891 18.295417726039886,15.600946545600891 17.287150025367737,17.457878589630127 17.287150025367737,17.457878589630127 16.28081202507019,19.315724074840546 16.28081202507019,19.315724074840546 15.273815393447876,21.17265611886978 15.273815393447876,21.17265611886978 14.262956380844116,23.02684336900711 14.262956380844116,23.02684336900711 20.702174305915833,21.698099374771118 20.702174305915833,21.698099374771118 27.183857560157776,20.70237845182419 27.183857560157776,20.70237845182419 33.6989164352417,20.009508728981018 33.6989164352417,20.009508728981018 40.23866057395935,19.589418172836304 40.23866057395935,19.589418172836304 46.793949604034424,19.41203474998474 46.793949604034424,19.41203474998474 53.35594415664673,19.44703459739685 53.35594415664673,19.44703459739685 59.915757179260254,19.664546847343445 59.915757179260254,19.664546847343445" stroke="white" stroke-width="0.1" /><polygon points="85.14941930770874,44.03156638145447 85.14941930770874,44.03156638145447 88.25677037239075,43.400514125823975 88.25677037239075,43.400514125823975 90.47618508338928,41.73681437969208 90.47618508338928,41.73681437969208 91.8076753616333,39.384663105010986 91.8076753616333,39.384663105010986 92.25143790245056,36.688366532325745 92.25143790245056,36.688366532325745 91.80741906166077,33.992066979408264 91.80741906166077,33.992066979408264 90.47567844390869,31.639915704727173 90.47567844390869,31.639915704727173 88.2564127445221,29.976165294647217 88.2564127445221,29.976165294647217 85.14941930770874,29.34516668319702 85.14941930770874,29.34516668319702 82.04151391983032,29.976215958595276 82.04151391983032,29.976215958595276 79.8215389251709,31.639915704727173 79.8215389251709,31.639915704727173 78.48954200744629,33.992066979408264 78.48954200744629,33.992066979408264 78.04557681083679,36.688366532325745 78.04557681083679,36.688366532325745 78.48958969116211,39.384716749191284 78.48958969116211,39.384716749191284 79.8215389251709,41.73676371574402 79.8215389251709,41.73676371574402 82.04151391983032,43.400514125823975 82.04151391983032,43.400514125823975" stroke="white" stroke-width="0.1" /></svg>