<?xml version="1.0" encoding="utf-8" ?>
<svg baseProfile="full" height="95.63062191009521" version="1.1" width="99.99999403953552" xmlns="http://www.w3.org/2000/svg" xmlns:ev="http://www.w3.org/2001/xml-events" xmlns:xlink="http://www.w3.org/1999/xlink"><defs><clipPath /></defs><polygon points="73.93587827682495,87.75021433830261 73.93587827682495,87.75021433830261 73.99052381515503,87.91645765304565 73.99052381515503,87.91645765304565 74.1271436214447,88.35693597793579 74.1271436214447,88.35693597793579 74.30539727210999,88.98468017578125 74.30539727210999,88.98468017578125 74.48415160179138,89.71250653266907 74.48415160179138,89.71250653266907 74.62337017059326,90.45384526252747 74.62337017059326,90.45384526252747 74.68212246894836,91.12112522125244 74.68212246894836,91.12112522125244 74.664306640625,91.57121181488037 74.664306640625,91.57121181488037 74.60465431213379,92.05393195152283 74.60465431213379,92.05393195152283 74.48875308036804,92.56036877632141 74.48875308036804,92.56036877632141 74.30249452590942,93.08142066001892 74.30249452590942,93.08142066001892 74.03236031532288,93.60807538032532 74.03236031532288,93.60807538032532 73.66364002227783,94.13172602653503 73.66364002227783,94.13172602653503 73.21845889091492,94.59532499313354 73.21845889091492,94.59532499313354 72.70681262016296,94.97144818305969 72.70681262016296,94.97144818305969 72.15433716773987,95.26190161705017 72.15433716773987,95.26190161705017 71.58624529838562,95.46757936477661 71.58624529838562,95.46757936477661 71.02826237678528,95.58998346328735 71.02826237678528,95.58998346328735 70.5057144165039,95.63062191009521 70.5057144165039,95.63062191009521 70.48649787902832,95.63062191009521 70.48649787902832,95.63062191009521 70.46728134155273,95.6301212310791 70.46728134155273,95.6301212310791 70.44806480407715,95.62962055206299 70.44806480407715,95.62962055206299 70.42874693870544,95.62881588935852 70.42874693870544,95.62881588935852 70.40953040122986,95.62811851501465 70.40953040122986,95.62811851501465 70.39041519165039,95.6274151802063 70.39041519165039,95.6274151802063 69.52166557312012,95.54374814033508 69.52166557312012,95.54374814033508 68.7437891960144,95.36508917808533 68.7437891960144,95.36508917808533 68.03277730941772,95.10496854782104 68.03277730941772,95.10496854782104 67.36389994621277,94.7760820388794 67.36389994621277,94.7760820388794 66.71363711357117,94.3918526172638 66.71363711357117,94.3918526172638 66.05706810951233,93.96517872810364 66.05706810951233,93.96517872810364 53.47660183906555,85.11593341827393 53.47660183906555,85.11593341827393 53.04502844810486,84.84970331192017 53.04502844810486,84.84970331192017 52.53498554229736,84.61600542068481 52.53498554229736,84.61600542068481 51.96089148521423,84.42253470420837 51.96089148521423,84.42253470420837 51.33705139160156,84.27650928497314 51.33705139160156,84.27650928497314 50.677984952926636,84.18543338775635 50.677984952926636,84.18543338775635 49.99839663505554,84.15670990943909 49.99839663505554,84.15670990943909 49.31860864162445,84.18553471565247 49.31860864162445,84.18553471565247 48.6598402261734,84.27650928497314 48.6598402261734,84.27650928497314 48.036301136016846,84.42253470420837 48.036301136016846,84.42253470420837 47.46250510215759,84.61580276489258 47.46250510215759,84.61580276489258 46.95356488227844,84.84950661659241 46.95356488227844,84.84950661659241 46.52339518070221,85.11593341827393 46.52339518070221,85.11593341827393 33.939722180366516,93.96517872810364 33.939722180366516,93.96517872810364 33.28155279159546,94.39305067062378 33.28155279159546,94.39305067062378 32.629790902137756,94.77758407592773 32.629790902137756,94.77758407592773 31.960412859916687,95.10616660118103 31.960412859916687,95.10616660118103 31.24919831752777,95.36579251289368 31.24919831752777,95.36579251289368 30.47262728214264,95.54374814033508 30.47262728214264,95.54374814033508 29.606378078460693,95.6274151802063 29.606378078460693,95.6274151802063 29.071316123008728,95.60379981994629 29.071316123008728,95.60379981994629 28.493517637252808,95.49130201339722 28.493517637252808,95.49130201339722 27.901706099510193,95.28892636299133 27.901706099510193,95.28892636299133 27.32420563697815,94.99467015266418 27.32420563697815,94.99467015266418 26.789745688438416,94.6074366569519 26.789745688438416,94.6074366569519 26.326745748519897,94.12531852722168 26.326745748519897,94.12531852722168 25.959327816963196,93.60206723213196 25.959327816963196,93.60206723213196 25.68989396095276,93.07581186294556 25.68989396095276,93.07581186294556 25.50443410873413,92.55556464195251 25.50443410873413,92.55556464195251 25.38873553276062,92.0498251914978 25.38873553276062,92.0498251914978 25.329282879829407,91.56761169433594 25.329282879829407,91.56761169433594 25.311467051506042,91.117924451828 25.311467051506042,91.117924451828 25.34109354019165,90.52821397781372 25.34109354019165,90.52821397781372 25.413957238197327,89.95972275733948 25.413957238197327,89.95972275733948 25.526854395866394,89.40524458885193 25.526854395866394,89.40524458885193 25.675281882286072,88.85696530342102 25.675281882286072,88.85696530342102 25.855737924575806,88.30779194831848 25.855737924575806,88.30779194831848 26.06411874294281,87.75021433830261 26.06411874294281,87.75021433830261 41.716042160987854,48.36898744106293 41.716042160987854,48.36898744106293 39.935702085494995,46.91493213176727 39.935702085494995,46.91493213176727 38.40537965297699,45.201653242111206 38.40537965297699,45.201653242111206 37.15770244598389,43.261876702308655 37.15770244598389,43.261876702308655 36.225396394729614,41.12743139266968 36.225396394729614,41.12743139266968 35.641491413116455,38.830846548080444 35.641491413116455,38.830846548080444 35.4386180639267,36.40425205230713 35.4386180639267,36.40425205230713 35.959866642951965,32.53430724143982 35.959866642951965,32.53430724143982 37.427735328674316,29.05670404434204 37.427735328674316,29.05670404434204 39.704301953315735,26.11025869846344 39.704301953315735,26.11025869846344 42.650848627090454,23.83379191160202 42.650848627090454,23.83379191160202 46.12945318222046,22.366023063659668 46.12945318222046,22.366023063659668 50.00159740447998,21.846073865890503 50.00159740447998,21.846073865890503 53.87214422225952,22.36732393503189 53.87214422225952,22.36732393503189 57.34904408454895,23.835192620754242 57.34904408454895,23.835192620754242 60.29449105262756,26.111459732055664 60.29449105262756,26.111459732055664 62.56975531578064,29.057204723358154 62.56975531578064,29.057204723358154 64.03722763061523,32.53440856933594 64.03722763061523,32.53440856933594 64.55817222595215,36.40425205230713 64.55817222595215,36.40425205230713 64.35549855232239,38.830846548080444 64.35549855232239,38.830846548080444 63.77209424972534,41.1273330450058 63.77209424972534,41.1273330450058 62.840694189071655,43.26157569885254 62.840694189071655,43.26157569885254 61.593711376190186,45.20125091075897 61.593711376190186,45.20125091075897 60.06399393081665,46.91443145275116 60.06399393081665,46.91443145275116 58.28395485877991,48.36898744106293 58.28395485877991,48.36898744106293" stroke="white" stroke-width="0.1" /><polygon points="70.16621828079224,36.40425205230713 70.16621828079224,36.40425205230713 70.00147700309753,33.82612466812134 70.00147700309753,33.82612466812134 69.50985193252563,31.28562867641449 69.50985193252563,31.28562867641449 68.69054436683655,28.815194964408875 68.69054436683655,28.815194964408875 67.54285097122192,26.44674777984619 67.54285097122192,26.44674777984619 66.06637835502625,24.21281933784485 66.06637835502625,24.21281933784485 64.26031589508057,22.145532071590424 64.26031589508057,22.145532071590424 63.72665762901306,21.446028351783752 63.72665762901306,21.446028351783752 63.40628266334534,20.65804749727249 63.40628266334534,20.65804749727249 63.29948902130127,19.825929403305054 63.29948902130127,19.825929403305054 63.4060800075531,18.9936101436615 63.4060800075531,18.9936101436615 63.72635364532471,18.205729126930237 63.72635364532471,18.205729126930237 64.26031589508057,17.506325244903564 64.26031589508057,17.506325244903564 64.95872139930725,16.972564160823822 64.95872139930725,16.972564160823822 65.7459020614624,16.65218621492386 65.7459020614624,16.65218621492386 66.5779173374176,16.54549390077591 66.5779173374176,16.54549390077591 67.4100399017334,16.65208637714386 67.4100399017334,16.65208637714386 68.19812059402466,16.972462832927704 68.19812059402466,16.972462832927704 68.89792680740356,17.506325244903564 68.89792680740356,17.506325244903564 71.28849029541016,20.2413871884346 71.28849029541016,20.2413871884346 73.24538230895996,23.204447329044342 73.24538230895996,23.204447329044342 74.7681975364685,26.349064707756042 74.7681975364685,26.349064707756042 75.8561372756958,29.628196358680725 75.8561372756958,29.628196358680725 76.50880217552185,32.99550712108612 76.50880217552185,32.99550712108612 76.7254889011383,36.40425205230713 76.7254889011383,36.40425205230713 76.50870084762573,39.81259763240814 76.50870084762573,39.81259763240814 75.85553526878357,43.17960441112518 75.85553526878357,43.17960441112518 74.76739287376404,46.458739042282104 74.76739287376404,46.458739042282104 73.24478030204773,49.60315525531769 73.24478030204773,49.60315525531769 71.28909230232239,52.56621241569519 71.28909230232239,52.56621241569519 68.901127576828,55.3013801574707 68.901127576828,55.3013801574707 68.56503486633301,55.5953323841095 68.56503486633301,55.5953323841095 68.20082068443298,55.83574175834656 68.20082068443298,55.83574175834656 67.81458854675293,56.022703647613525 67.81458854675293,56.022703647613525 67.41154193878174,56.15611672401428 67.41154193878174,56.15611672401428 66.99788570404053,56.23628497123718 66.99788570404053,56.23628497123718 66.57912135124207,56.26300573348999 66.57912135124207,56.26300573348999 66.16055965423584,56.23648762702942 66.16055965423584,56.23648762702942 65.74730277061462,56.15651607513428 65.74730277061462,56.15651607513428 65.34525752067566,56.0234010219574 65.34525752067566,56.0234010219574 64.95952010154724,55.83693981170654 64.95952010154724,55.83693981170654 64.59611058235168,55.59743642807007 64.59611058235168,55.59743642807007 64.26031589508057,55.30458092689514 64.26031589508057,55.30458092689514 63.72635364532471,54.60427403450012 63.72635364532471,54.60427403450012 63.40547800064087,53.815895318984985 63.40547800064087,53.815895318984985 63.29788565635681,52.98367738723755 63.29788565635681,52.98367738723755 63.40377926826477,52.151256799697876 63.40377926826477,52.151256799697876 63.723355531692505,51.36287212371826 63.723355531692505,51.36287212371826 64.25711512565613,50.662171840667725 64.25711512565613,50.662171840667725 66.06477499008179,48.59468340873718 66.06477499008179,48.59468340873718 67.54205226898193,46.36015295982361 67.54205226898193,46.36015295982361 68.69014501571655,43.99140775203705 68.69014501571655,43.99140775203705 69.50955390930176,41.5207713842392 69.50955390930176,41.5207713842392 70.00128030776978,38.98087739944458 70.00128030776978,38.98087739944458" stroke="white" stroke-width="0.1" /><polygon points="31.102070212364197,55.302977561950684 31.102070212364197,55.302977561950684 28.71050536632538,52.56481170654297 28.71050536632538,52.56481170654297 26.75321400165558,49.59844946861267 26.75321400165558,49.59844946861267 25.23059844970703,46.45103216171265 25.23059844970703,46.45103216171265 24.142958223819733,43.168994784355164 24.142958223819733,43.168994784355164 23.490795493125916,39.799484610557556 23.490795493125916,39.799484610557556 23.274508118629456,36.38903796672821 23.274508118629456,36.38903796672821 23.491695523262024,32.98129439353943 23.491695523262024,32.98129439353943 24.145260453224182,29.61568534374237 24.145260453224182,29.61568534374237 25.2346009016037,26.338955760002136 25.2346009016037,26.338955760002136 26.758217811584473,23.197542130947113 26.758217811584473,23.197542130947113 28.715509176254272,20.23838460445404 28.715509176254272,20.23838460445404 31.105273962020874,17.507925629615784 31.105273962020874,17.507925629615784 31.804677844047546,16.97416454553604 31.804677844047546,16.97416454553604 32.59225785732269,16.653788089752197 32.59225785732269,16.653788089752197 33.424076437950134,16.547095775604248 33.424076437950134,16.547095775604248 34.255796670913696,16.6536882519722 34.255796670913696,16.6536882519722 35.04337668418884,16.974064707756042 35.04337668418884,16.974064707756042 35.742878913879395,17.507925629615784 35.742878913879395,17.507925629615784 36.276742815971375,18.207530677318573 36.276742815971375,18.207530677318573 36.59701943397522,18.995411694049835 36.59701943397522,18.995411694049835 36.70371174812317,19.827529788017273 36.70371174812317,19.827529788017273 36.5969181060791,20.65954953432083 36.5969181060791,20.65954953432083 36.276641488075256,21.447530388832092 36.276641488075256,21.447530388832092 35.742878913879395,22.147133946418762 35.742878913879395,22.147133946418762 33.93541872501373,24.211516976356506 33.93541872501373,24.211516976356506 32.45804309844971,26.442846655845642 32.45804309844971,26.442846655845642 31.30984902381897,28.80868911743164 31.30984902381897,28.80868911743164 30.490243434906006,31.27642273902893 30.490243434906006,31.27642273902893 29.99851703643799,33.8141143321991 29.99851703643799,33.8141143321991 29.833775758743286,36.38903796672821 29.833775758743286,36.38903796672821 29.99841868877411,38.969266414642334 29.99841868877411,38.969266414642334 30.489540100097656,41.512465476989746 30.489540100097656,41.512465476989746 31.308647990226746,43.98620128631592 31.308647990226746,43.98620128631592 32.45624005794525,46.35775089263916 32.45624005794525,46.35775089263916 33.93411636352539,48.59468340873718 33.93411636352539,48.59468340873718 35.742878913879395,50.66457390785217 35.742878913879395,50.66457390785217 36.276742815971375,51.36387348175049 36.276742815971375,51.36387348175049 36.59701943397522,52.15165615081787 36.59701943397522,52.15165615081787 36.70371174812317,52.98377275466919 36.70371174812317,52.98377275466919 36.5969181060791,53.81579399108887 36.5969181060791,53.81579399108887 36.276641488075256,54.60357666015625 36.276641488075256,54.60357666015625 35.742878913879395,55.302977561950684 35.742878913879395,55.302977561950684 35.406988859176636,55.5966317653656 35.406988859176636,55.5966317653656 35.04347503185272,55.83643913269043 35.04347503185272,55.83643913269043 34.65794324874878,56.02320432662964 34.65794324874878,56.02320432662964 34.25569534301758,56.15631341934204 34.25569534301758,56.15631341934204 33.84253978729248,56.2363862991333 33.84253978729248,56.2363862991333 33.424076437950134,56.26300573348999 33.424076437950134,56.26300573348999 33.00531506538391,56.2363862991333 33.00531506538391,56.2363862991333 32.591456174850464,56.15631341934204 32.591456174850464,56.15631341934204 32.18860924243927,56.022900342941284 32.18860924243927,56.022900342941284 31.80217444896698,55.836039781570435 31.80217444896698,55.836039781570435 31.438159942626953,55.59613108634949 31.438159942626953,55.59613108634949" stroke="white" stroke-width="0.1" /><polygon points="77.10021138191223,9.21996533870697 77.10021138191223,9.21996533870697 80.53818345069885,13.152563571929932 80.53818345069885,13.152563571929932 83.3536148071289,17.411643266677856 83.3536148071289,17.411643266677856 85.54510474205017,21.931447088718414 85.54510474205017,21.931447088718414 87.11135983467102,26.645419001579285 87.11135983467102,26.645419001579285 88.05167078971863,31.487804651260376 88.05167078971863,31.487804651260376 88.36434483528137,36.39224171638489 88.36434483528137,36.39224171638489 88.05217146873474,41.299280524253845 88.05217146873474,41.299280524253845 87.11296319961548,46.14526629447937 87.11296319961548,46.14526629447937 85.54750680923462,50.86384415626526 85.54750680923462,50.86384415626526 83.35631489753723,55.388450622558594 83.35631489753723,55.388450622558594 80.54028153419495,59.65293645858765 80.54028153419495,59.65293645858765 77.10021138191223,63.5909378528595 77.10021138191223,63.5909378528595 76.76542401313782,63.88419270515442 76.76542401313782,63.88419270515442 76.40220522880554,64.12410140037537 76.40220522880554,64.12410140037537 76.0164737701416,64.3108606338501 76.0164737701416,64.3108606338501 75.61372518539429,64.4440770149231 75.61372518539429,64.4440770149231 75.2001702785492,64.524245262146 75.2001702785492,64.524245262146 74.78140592575073,64.5509660243988 74.78140592575073,64.5509660243988 74.3628442287445,64.52434659004211 74.3628442287445,64.52434659004211 73.94979000091553,64.44447636604309 73.94979000091553,64.44447636604309 73.54794144630432,64.31116461753845 73.54794144630432,64.31116461753845 73.16290736198425,64.12439942359924 73.16290736198425,64.12439942359924 72.80029654502869,63.884395360946655 72.80029654502869,63.884395360946655 72.46580719947815,63.5909378528595 72.46580719947815,63.5909378528595 71.93204760551453,62.89123296737671 71.93204760551453,62.89123296737671 71.61157131195068,62.10325360298157 71.61157131195068,62.10325360298157 71.50457501411438,61.27133369445801 71.50457501411438,61.27133369445801 71.61056995391846,60.43921709060669 71.61056995391846,60.43921709060669 71.93014621734619,59.65143442153931 71.93014621734619,59.65143442153931 72.46260643005371,58.95172953605652 72.46260643005371,58.95172953605652 75.31967163085938,55.68210482597351 75.31967163085938,55.68210482597351 77.65548825263977,52.146750688552856 77.65548825263977,52.146750688552856 79.47105765342712,48.39801490306854 79.47105765342712,48.39801490306854 80.76707720756531,44.487735629081726 80.76707720756531,44.487735629081726 81.54495358467102,40.46846330165863 81.54495358467102,40.46846330165863 81.8050742149353,36.39224171638489 81.8050742149353,36.39224171638489 81.5448522567749,32.32102394104004 81.5448522567749,32.32102394104004 80.7665765285492,28.30655574798584 80.7665765285492,28.30655574798584 79.46985960006714,24.40108209848404 79.46985960006714,24.40108209848404 77.65389084815979,20.656345784664154 77.65389084815979,20.656345784664154 75.31837224960327,17.124895751476288 75.31837224960327,17.124895751476288 72.46260643005371,13.858373463153839 72.46260643005371,13.858373463153839 72.46580719947815,13.858373463153839 72.46580719947815,13.858373463153839 71.93204760551453,13.158968091011047 71.93204760551453,13.158968091011047 71.61157131195068,12.371288239955902 71.61157131195068,12.371288239955902 71.50457501411438,11.53946965932846 71.50457501411438,11.53946965932846 71.61056995391846,10.707450658082962 71.61056995391846,10.707450658082962 71.93014621734619,9.91957038640976 71.93014621734619,9.91957038640976 72.46260643005371,9.21996533870697 72.46260643005371,9.21996533870697 73.16200733184814,8.685903996229172 73.16200733184814,8.685903996229172 73.94958734512329,8.36532711982727 73.94958734512329,8.36532711982727 74.78140592575073,8.258534967899323 74.78140592575073,8.258534967899323 75.61302781105042,8.365227282047272 75.61302781105042,8.365227282047272 76.40070915222168,8.685804158449173 76.40070915222168,8.685804158449173" stroke="white" stroke-width="0.1" /><polygon points="27.45411992073059,58.95172953605652 27.45411992073059,58.95172953605652 27.987980842590332,59.651535749435425 27.987980842590332,59.651535749435425 28.308257460594177,60.439419746398926 28.308257460594177,60.439419746398926 28.414949774742126,61.27133369445801 28.414949774742126,61.27133369445801 28.30805778503418,62.10315227508545 28.30805778503418,62.10315227508545 27.987781167030334,62.89113759994507 27.987781167030334,62.89113759994507 27.45411992073059,63.5909378528595 27.45411992073059,63.5909378528595 27.118229866027832,63.884490728378296 27.118229866027832,63.884490728378296 26.75471603870392,64.12450075149536 26.75471603870392,64.12450075149536 26.369181275367737,64.31116461753845 26.369181275367737,64.31116461753845 25.967034697532654,64.44427967071533 25.967034697532654,64.44427967071533 25.553876161575317,64.524245262146 25.553876161575317,64.524245262146 25.135314464569092,64.5509660243988 25.135314464569092,64.5509660243988 24.716754257678986,64.52434659004211 24.716754257678986,64.52434659004211 24.30349737405777,64.44427967071533 24.30349737405777,64.44427967071533 23.90104979276657,64.3108606338501 23.90104979276657,64.3108606338501 23.514816164970398,64.12410140037537 23.514816164970398,64.12410140037537 23.150400817394257,63.8840913772583 23.150400817394257,63.8840913772583 22.813309729099274,63.5909378528595 22.813309729099274,63.5909378528595 19.37313675880432,59.65313911437988 19.37313675880432,59.65313911437988 16.557104885578156,55.38855195045471 16.557104885578156,55.38855195045471 14.366011321544647,50.86384415626526 14.366011321544647,50.86384415626526 12.80025839805603,46.14516794681549 12.80025839805603,46.14516794681549 11.861247569322586,41.29917919635773 11.861247569322586,41.29917919635773 11.549177765846252,36.39224171638489 11.549177765846252,36.39224171638489 11.86164766550064,31.48760497570038 11.86164766550064,31.48760497570038 12.801259756088257,26.644718647003174 12.801259756088257,26.644718647003174 14.367613196372986,21.93024605512619 14.367613196372986,21.93024605512619 16.559407114982605,17.410241067409515 16.559407114982605,17.410241067409515 19.376039505004883,13.151362538337708 19.376039505004883,13.151362538337708 22.81651198863983,9.21996533870697 22.81651198863983,9.21996533870697 23.517318069934845,8.686104416847229 23.517318069934845,8.686104416847229 24.3056982755661,8.366227895021439 24.3056982755661,8.366227895021439 25.13771653175354,8.260136097669601 25.13771653175354,8.260136097669601 25.969237089157104,8.36762934923172 25.969237089157104,8.36762934923172 26.755917072296143,8.688806742429733 26.755917072296143,8.688806742429733 27.45411992073059,9.223168343305588 27.45411992073059,9.223168343305588 27.987781167030334,9.921571612358093 27.987781167030334,9.921571612358093 28.30745577812195,10.708551853895187 28.30745577812195,10.708551853895187 28.413748741149902,11.539869755506516 28.413748741149902,11.539869755506516 28.306657075881958,12.371288239955902 28.306657075881958,12.371288239955902 27.98658013343811,13.158868253231049 27.98658013343811,13.158868253231049 27.45411992073059,13.858373463153839 27.45411992073059,13.858373463153839 24.597150087356567,17.123593389987946 24.597150087356567,17.123593389987946 22.261232137680054,20.65434455871582 22.261232137680054,20.65434455871582 20.44566422700882,24.39868003129959 20.44566422700882,24.39868003129959 19.14934366941452,28.30425500869751 19.14934366941452,28.30425500869751 18.371672928333282,32.31962323188782 18.371672928333282,32.31962323188782 18.11164766550064,36.39224171638489 18.11164766550064,36.39224171638489 18.371672928333282,40.46866297721863 18.371672928333282,40.46866297721863 19.148743152618408,44.487935304641724 19.148743152618408,44.487935304641724 20.444463193416595,48.39801490306854 20.444463193416595,48.39801490306854 22.259631752967834,52.14664936065674 22.259631752967834,52.14664936065674 24.595949053764343,55.68200945854187 24.595949053764343,55.68200945854187" stroke="white" stroke-width="0.1" /><polygon points="85.31210422515869,0.961630791425705 85.31210422515869,0.961630791425705 89.79437947273254,6.087859719991684 89.79437947273254,6.087859719991684 93.46514940261841,11.638355255126953 93.46514940261841,11.638355255126953 96.3228166103363,17.527642846107483 96.3228166103363,17.527642846107483 98.36548566818237,23.66984933614731 98.36548566818237,23.66984933614731 99.59184527397156,29.979699850082397 99.59184527397156,29.979699850082397 99.99999403953552,36.371421813964844 99.99999403953552,36.371421813964844 99.59334135055542,42.77235269546509 99.59334135055542,42.77235269546509 98.36998581886292,49.09301400184631 98.36998581886292,49.09301400184631 96.33042216300964,55.24712800979614 96.33042216300964,55.24712800979614 93.47445964813232,61.14853024482727 93.47445964813232,61.14853024482727 89.80268239974976,66.71133637428284 89.80268239974976,66.71133637428284 85.31531095504761,71.84927463531494 85.31531095504761,71.84927463531494 84.97921824455261,72.14252948760986 84.97921824455261,72.14252948760986 84.6151053905487,72.38243222236633 84.6151053905487,72.38243222236633 84.22877192497253,72.56919741630554 84.22877192497253,72.56919741630554 83.82571935653687,72.70241379737854 83.82571935653687,72.70241379737854 83.41206312179565,72.78258204460144 83.41206312179565,72.78258204460144 82.99330472946167,72.80930280685425 82.99330472946167,72.80930280685425 82.57474303245544,72.78268337249756 82.57474303245544,72.78268337249756 82.16158151626587,72.7026104927063 82.16158151626587,72.7026104927063 81.75943493843079,72.56919741630554 81.75943493843079,72.56919741630554 81.37370347976685,72.38243222236633 81.37370347976685,72.38243222236633 81.01038932800293,72.14242815971375 81.01038932800293,72.14242815971375 80.67449927330017,71.84927463531494 80.67449927330017,71.84927463531494 80.14073967933655,71.15046977996826 80.14073967933655,71.15046977996826 79.82035875320435,70.36288976669312 79.82035875320435,70.36288976669312 79.7136664390564,69.53086853027344 79.7136664390564,69.53086853027344 79.82016205787659,68.69845390319824 79.82016205787659,68.69845390319824 80.14053702354431,67.91017055511475 80.14053702354431,67.91017055511475 80.67449927330017,67.21006631851196 80.67449927330017,67.21006631851196 84.57887172698975,62.74080276489258 84.57887172698975,62.74080276489258 87.77052760124207,57.90762901306152 87.77052760124207,57.90762901306152 90.25077223777771,52.78220176696777 90.25077223777771,52.78220176696777 92.02100038528442,47.43638336658478 92.02100038528442,47.43638336658478 93.08272004127502,41.942137479782104 93.08272004127502,41.942137479782104 93.43752264976501,36.371421813964844 93.43752264976501,36.371421813964844 93.08201670646667,30.81362247467041 93.08201670646667,30.81362247467041 92.01819896697998,25.331485271453857 92.01819896697998,25.331485271453857 90.24596810340881,19.997376203536987 90.24596810340881,19.997376203536987 87.76472210884094,14.882457256317139 87.76472210884094,14.882457256317139 84.57446694374084,10.058990120887756 84.57446694374084,10.058990120887756 80.67449927330017,5.598436668515205 80.67449927330017,5.598436668515205 80.67449927330017,5.601639673113823 80.67449927330017,5.601639673113823 80.14073967933655,4.901434481143951 80.14073967933655,4.901434481143951 79.82035875320435,4.112953320145607 79.82035875320435,4.112953320145607 79.7136664390564,3.280434012413025 79.7136664390564,3.280434012413025 79.82016205787659,2.4481151252985 79.82016205787659,2.4481151252985 80.14053702354431,1.660434529185295 80.14053702354431,1.660434529185295 80.67449927330017,0.961630791425705 80.67449927330017,0.961630791425705 81.37390613555908,0.4283701069653034 81.37390613555908,0.4283701069653034 82.16148614883423,0.10789321968331933 82.16148614883423,0.10789321968331933 82.99330472946167,0.0008006917596503627 82.99330472946167,0.0008006917596503627 83.825021982193,0.10709252674132586 83.825021982193,0.10709252674132586 84.61250066757202,0.42736921459436417 84.61250066757202,0.42736921459436417" stroke="white" stroke-width="0.1" /><polygon points="6.559266895055771,36.436280608177185 6.559266895055771,36.436280608177185 6.915174424648285,41.99448227882385 6.915174424648285,41.99448227882385 7.979293912649155,47.47621715068817 7.979293912649155,47.47621715068817 9.75242555141449,52.8103232383728 9.75242555141449,52.8103232383728 12.234269827604294,57.92474150657654 12.234269827604294,57.92474150657654 15.425226092338562,62.748414278030396 15.425226092338562,62.748414278030396 19.32549625635147,67.20926761627197 19.32549625635147,67.20926761627197 19.859157502651215,67.9081678390503 19.859157502651215,67.9081678390503 20.178833603858948,68.69555115699768 20.178833603858948,68.69555115699768 20.285125076770782,69.527667760849 20.285125076770782,69.527667760849 20.178033411502838,70.35988569259644 20.178033411502838,70.35988569259644 19.85795646905899,71.14816904067993 19.85795646905899,71.14816904067993 19.32549625635147,71.84847593307495 19.32549625635147,71.84847593307495 18.989606201648712,72.14142680168152 18.989606201648712,72.14142680168152 18.6260923743248,72.38113284111023 18.6260923743248,72.38113284111023 18.240559101104736,72.5676953792572 18.240559101104736,72.5676953792572 17.838411033153534,72.7009117603302 17.838411033153534,72.7009117603302 17.425253987312317,72.78097867965698 17.425253987312317,72.78097867965698 17.00669229030609,72.80769944190979 17.00669229030609,72.80769944190979 16.58783107995987,72.7810800075531 16.58783107995987,72.7810800075531 16.174273192882538,72.70101308822632 16.174273192882538,72.70101308822632 15.771625936031342,72.5676953792572 15.771625936031342,72.5676953792572 15.385793149471283,72.38103151321411 15.385793149471283,72.38103151321411 15.022578835487366,72.1413254737854 15.022578835487366,72.1413254737854 14.687889814376831,71.84847593307495 14.687889814376831,71.84847593307495 10.205717384815216,66.7216420173645 10.205717384815216,66.7216420173645 6.534846127033234,61.1705482006073 6.534846127033234,61.1705482006073 3.677177056670189,55.280959606170654 3.677177056670189,55.280959606170654 1.6342118382453918,49.13815259933472 1.6342118382453918,49.13815259933472 0.40805255994200706,42.82810091972351 0.40805255994200706,42.82810091972351 0.0,36.436280608177185 0.0,36.436280608177185 0.4065512213855982,30.03474771976471 0.4065512213855982,30.03474771976471 1.629507727921009,23.713287711143494 1.629507727921009,23.713287711143494 3.669169917702675,17.558470368385315 3.669169917702675,17.558470368385315 6.5256379544734955,11.656570434570312 6.5256379544734955,11.656570434570312 10.199611634016037,6.094465404748917 10.199611634016037,6.094465404748917 14.691092073917389,0.9584280662238598 14.691092073917389,0.9584280662238598 15.38909524679184,0.4256677348166704 15.38909524679184,0.4256677348166704 16.175875067710876,0.10609165765345097 16.175875067710876,0.10609165765345097 17.007093131542206,-0.00020017293991259066 17.007093131542206,-0.00020017293991259066 17.838411033153534,0.10679226834326982 17.838411033153534,0.10679226834326982 18.6259925365448,0.42746933177113533 18.6259925365448,0.42746933177113533 19.32549625635147,0.961630791425705 19.32549625635147,0.961630791425705 19.85795646905899,1.6605345532298088 19.85795646905899,1.6605345532298088 20.177432894706726,2.4480149149894714 20.177432894706726,2.4480149149894714 20.28392404317856,3.28003391623497 20.28392404317856,3.28003391623497 20.177331566810608,4.112252965569496 20.177331566810608,4.112252965569496 19.857756793498993,4.900633916258812 19.857756793498993,4.900633916258812 19.32549625635147,5.600838735699654 19.32549625635147,5.600838735699654 15.419721603393555,10.067898035049438 15.419721603393555,10.067898035049438 12.227163463830948,14.899271726608276 12.227163463830948,14.899271726608276 9.74642038345337,20.02349942922592 9.74642038345337,20.02349942922592 7.975790649652481,25.368717312812805 7.975790649652481,25.368717312812805 6.913973391056061,30.86366355419159 6.913973391056061,30.86366355419159" stroke="white" stroke-width="0.1" /></svg>