<?xml version="1.0" encoding="utf-8" ?>
<svg baseProfile="full" height="84.87704396247864" version="1.1" width="100.00025033950806" xmlns="http://www.w3.org/2000/svg" xmlns:ev="http://www.w3.org/2001/xml-events" xmlns:xlink="http://www.w3.org/1999/xlink"><defs><clipPath /></defs><polygon points="99.06305074691772,40.83406329154968 99.06305074691772,40.83406329154968 99.5837152004242,41.317278146743774 99.5837152004242,41.317278146743774 99.89611506462097,41.86278283596039 99.89611506462097,41.86278283596039 100.00025033950806,42.43946373462677 100.00025033950806,42.43946373462677 99.89611506462097,43.01608204841614 99.89611506462097,43.01608204841614 99.5837152004242,43.56158673763275 99.5837152004242,43.56158673763275 99.06305074691772,44.04486417770386 99.06305074691772,44.04486417770386 98.67167472839355,44.31554675102234 98.67167472839355,44.31554675102234 97.64678478240967,44.997426867485046 97.64678478240967,44.997426867485046 96.21245265007019,45.894911885261536 96.21245265007019,45.894911885261536 94.59268450737,46.812596917152405 94.59268450737,46.812596917152405 93.01150441169739,47.55520224571228 93.01150441169739,47.55520224571228 91.69296622276306,47.92712926864624 91.69296622276306,47.92712926864624 90.35563468933105,47.99211919307709 90.35563468933105,47.99211919307709 87.66571283340454,48.0555385351181 87.66571283340454,48.0555385351181 83.82693529129028,48.11582267284393 83.82693529129028,48.11582267284393 79.0429174900055,48.171404004096985 79.0429174900055,48.171404004096985 73.51732850074768,48.2207715511322 73.51732850074768,48.2207715511322 67.45389103889465,48.26236367225647 67.45389103889465,48.26236367225647 66.39049649238586,49.55862760543823 66.39049649238586,49.55862760543823 65.05385041236877,51.305919885635376 65.05385041236877,51.305919885635376 63.49170207977295,53.42947840690613 63.49170207977295,53.42947840690613 61.75181269645691,55.85451126098633 61.75181269645691,55.85451126098633 59.8819375038147,58.50638151168823 59.8819375038147,58.50638151168823 57.92989134788513,61.31031513214111 57.92989134788513,61.31031513214111 58.36266875267029,61.41325235366821 58.36266875267029,61.41325235366821 58.74676704406738,61.61154508590698 58.74676704406738,61.61154508590698 59.06882882118225,61.892956495285034 59.06882882118225,61.892956495285034 59.31540131568909,62.24524974822998 59.31540131568909,62.24524974822998 59.4731867313385,62.65638470649719 59.4731867313385,62.65638470649719 59.52876806259155,63.11393976211548 59.52876806259155,63.11393976211548 59.52876806259155,67.18389987945557 59.52876806259155,67.18389987945557 59.45889949798584,67.69652962684631 59.45889949798584,67.69652962684631 59.261876344680786,68.14863085746765 59.261876344680786,68.14863085746765 58.95666480064392,68.52256655693054 58.95666480064392,68.52256655693054 58.56208801269531,68.80059242248535 58.56208801269531,68.80059242248535 58.09711217880249,68.96519660949707 58.09711217880249,68.96519660949707 57.58060812950134,68.99856925010681 57.58060812950134,68.99856925010681 52.89037227630615,68.66333484649658 52.89037227630615,68.66333484649658 50.66741704940796,71.9457745552063 50.66741704940796,71.9457745552063 48.658883571624756,74.92798566818237 48.658883571624756,74.92798566818237 46.949413418769836,77.47772932052612 46.949413418769836,77.47772932052612 45.623570680618286,79.46264743804932 45.623570680618286,79.46264743804932 44.76604461669922,80.75063228607178 44.76604461669922,80.75063228607178 44.46139335632324,81.20943903923035 44.46139335632324,81.20943903923035 43.95776093006134,81.85117244720459 43.95776093006134,81.85117244720459 43.320232629776,82.48168230056763 43.320232629776,82.48168230056763 42.589765787124634,83.07103514671326 42.589765787124634,83.07103514671326 41.80724918842316,83.58924984931946 41.80724918842316,83.58924984931946 41.013675928115845,84.00647044181824 41.013675928115845,84.00647044181824 40.24991691112518,84.29277539253235 40.24991691112518,84.29277539253235 39.017388224601746,84.64607000350952 39.017388224601746,84.64607000350952 38.34806978702545,84.80860590934753 38.34806978702545,84.80860590934753 37.82080411911011,84.87704396247864 37.82080411911011,84.87704396247864 37.45100498199463,84.8548412322998 37.45100498199463,84.8548412322998 37.254080176353455,84.74562764167786 37.254080176353455,84.74562764167786 37.24547028541565,84.55310463905334 37.24547028541565,84.55310463905334 37.44059205055237,84.28072929382324 37.44059205055237,84.28072929382324 37.75891959667206,83.88496041297913 37.75891959667206,83.88496041297913 38.09857368469238,83.34447741508484 38.09857368469238,83.34447741508484 38.44139575958252,82.69640803337097 38.44139575958252,82.69640803337097 38.76924216747284,81.97764158248901 38.76924216747284,81.97764158248901 39.063966274261475,81.22550249099731 39.063966274261475,81.22550249099731 39.307454228401184,80.47674894332886 39.307454228401184,80.47674894332886 39.465078711509705,79.92879748344421 39.465078711509705,79.92879748344421 39.901965856552124,78.40670347213745 39.901965856552124,78.40670347213745 40.564197301864624,76.09339356422424 40.564197301864624,76.09339356422424 41.39779210090637,73.1716513633728 41.39779210090637,73.1716513633728 42.34883487224579,69.8243498802185 42.34883487224579,69.8243498802185 43.363359570503235,66.23440980911255 43.363359570503235,66.23440980911255 42.69019663333893,66.04583859443665 42.69019663333893,66.04583859443665 42.108213901519775,65.84861874580383 42.108213901519775,65.84861874580383 41.631367802619934,65.64737558364868 41.631367802619934,65.64737558364868 41.27352237701416,65.44688940048218 41.27352237701416,65.44688940048218 41.04861915111542,65.25192260742188 41.04861915111542,65.25192260742188 40.97056686878204,65.06711840629578 40.97056686878204,65.06711840629578 41.07446372509003,64.85233306884766 41.07446372509003,64.85233306884766 41.37178957462311,64.62505459785461 41.37178957462311,64.62505459785461 41.841015219688416,64.39263820648193 41.841015219688416,64.39263820648193 42.46060252189636,64.16217088699341 42.46060252189636,64.16217088699341 43.20910573005676,63.940978050231934 43.20910573005676,63.940978050231934 44.06493604183197,63.73623013496399 44.06493604183197,63.73623013496399 44.94314789772034,60.585397481918335 44.94314789772034,60.585397481918335 45.76399326324463,57.60732889175415 45.76399326324463,57.60732889175415 46.49122953414917,54.924970865249634 46.49122953414917,54.924970865249634 47.08854854106903,52.66115069389343 47.08854854106903,52.66115069389343 47.51972854137421,50.939011573791504 47.51972854137421,50.939011573791504 47.74847328662872,49.881312251091 47.74847328662872,49.881312251091 47.80069589614868,49.57017004489899 47.80069589614868,49.57017004489899 47.84913957118988,49.2812305688858 47.84913957118988,49.2812305688858 47.894009947776794,49.013498425483704 47.894009947776794,49.013498425483704 47.93550372123718,48.76571297645569 47.93550372123718,48.76571297645569 47.973912954330444,48.53680729866028 47.973912954330444,48.53680729866028 48.00943434238434,48.32559525966644 48.00943434238434,48.32559525966644 45.65923511981964,48.32565784454346 45.65923511981964,48.32565784454346 43.35823059082031,48.32371175289154 43.35823059082031,48.32371175289154 41.11710488796234,48.31969738006592 41.11710488796234,48.31969738006592 38.94656598567963,48.313361406326294 38.94656598567963,48.313361406326294 36.857324838638306,48.30464422702789 36.857324838638306,48.30464422702789 34.86011028289795,48.293477296829224 34.86011028289795,48.293477296829224 33.16442370414734,48.272714018821716 33.16442370414734,48.272714018821716 31.534230709075928,48.23237657546997 31.534230709075928,48.23237657546997 29.96825873851776,48.17366302013397 29.96825873851776,48.17366302013397 28.465265035629272,48.09800982475281 28.465265035629272,48.09800982475281 27.024030685424805,48.006671667099 27.024030685424805,48.006671667099 25.643238425254822,47.901034355163574 25.643238425254822,47.901034355163574 24.96044784784317,48.94223511219025 24.96044784784317,48.94223511219025 23.605750501155853,50.94804763793945 23.605750501155853,50.94804763793945 21.83687537908554,53.45394015312195 21.83687537908554,53.45394015312195 19.91148591041565,55.99527955055237 19.91148591041565,55.99527955055237 18.087345361709595,58.10748338699341 18.087345361709595,58.10748338699341 16.622085869312286,59.32602286338806 16.622085869312286,59.32602286338806 15.505042672157288,59.877294301986694 15.505042672157288,59.877294301986694 14.646607637405396,60.261207818984985 14.646607637405396,60.261207818984985 14.02202993631363,60.50773859024048 14.02202993631363,60.50773859024048 13.606534898281097,60.646748542785645 13.606534898281097,60.646748542785645 13.375435769557953,60.70822477340698 13.375435769557953,60.70822477340698 13.303890824317932,60.72215437889099 13.303890824317932,60.72215437889099 12.615078687667847,60.72748303413391 12.615078687667847,60.72748303413391 12.075454741716385,60.55867671966553 12.075454741716385,60.55867671966553 11.700373142957687,60.23661494255066 11.700373142957687,60.23661494255066 11.505187302827835,59.78219509124756 11.505187302827835,59.78219509124756 11.505313217639923,59.216493368148804 11.505313217639923,59.216493368148804 11.716055870056152,58.56020450592041 11.716055870056152,58.56020450592041 12.059850990772247,57.81509280204773 12.059850990772247,57.81509280204773 12.919290363788605,55.93769550323486 12.919290363788605,55.93769550323486 14.03658390045166,53.46498489379883 14.03658390045166,53.46498489379883 15.153877437114716,50.93355178833008 15.153877437114716,50.93355178833008 16.013316810131073,48.88063371181488 16.013316810131073,48.88063371181488 16.357111930847168,47.84282147884369 16.357111930847168,47.84282147884369 16.359496116638184,47.51737415790558 16.359496116638184,47.51737415790558 16.36543869972229,47.24594056606293 16.36543869972229,47.24594056606293 16.373170912265778,47.03096151351929 16.373170912265778,47.03096151351929 16.380886733531952,46.87451124191284 16.380886733531952,46.87451124191284 16.38684570789337,46.779099106788635 16.38684570789337,46.779099106788635 16.389229893684387,46.74679338932037 16.389229893684387,46.74679338932037 16.391989588737488,46.726155281066895 16.391989588737488,46.726155281066895 16.395878791809082,46.706268191337585 16.395878791809082,46.706268191337585 16.400395333766937,46.686822175979614 16.400395333766937,46.686822175979614 16.404975950717926,46.66750133037567 16.404975950717926,46.66750133037567 16.40913039445877,46.648117899894714 16.40913039445877,46.648117899894714 16.412314772605896,46.62835896015167 16.412314772605896,46.62835896015167 13.819411396980286,46.032604575157166 13.819411396980286,46.032604575157166 11.764892190694809,45.44839560985565 11.764892190694809,45.44839560985565 10.218929499387741,44.91882622241974 10.218929499387741,44.91882622241974 9.151631593704224,44.48711276054382 9.151631593704224,44.48711276054382 8.533140271902084,44.19642090797424 8.533140271902084,44.19642090797424 8.33362564444542,44.09002959728241 8.33362564444542,44.09002959728241 8.256325870752335,44.044485688209534 8.256325870752335,44.044485688209534 8.179904520511627,43.99925768375397 8.179904520511627,43.99925768375397 8.10428261756897,43.95428001880646 8.10428261756897,43.95428001880646 8.029304444789886,43.90936493873596 8.029304444789886,43.90936493873596 7.954921573400497,43.86470019817352 7.954921573400497,43.86470019817352 7.880962640047073,43.82003843784332 7.880962640047073,43.82003843784332 5.962160602211952,43.6558723449707 5.962160602211952,43.6558723449707 4.212480783462524,43.47432851791382 4.212480783462524,43.47432851791382 2.710209973156452,43.2961106300354 2.710209973156452,43.2961106300354 1.5336203388869762,43.14191937446594 1.5336203388869762,43.14191937446594 0.7610468193888664,43.03264319896698 0.7610468193888664,43.03264319896698 0.47072991728782654,42.988982796669006 0.47072991728782654,42.988982796669006 0.34177161287516356,42.952725291252136 0.34177161287516356,42.952725291252136 0.22824504412710667,42.88880228996277 0.22824504412710667,42.88880228996277 0.1337414956651628,42.80141890048981 0.1337414956651628,42.80141890048981 0.061805255245417356,42.69465208053589 0.061805255245417356,42.69465208053589 0.016043333744164556,42.57282912731171 0.016043333744164556,42.57282912731171 0.0,42.43996441364288 0.0,42.43996441364288 0.016059016343206167,42.30697751045227 0.016059016343206167,42.30697751045227 0.061820942210033536,42.184966802597046 0.061820942210033536,42.184966802597046 0.1337414956651628,42.078009247779846 0.1337414956651628,42.078009247779846 0.22824504412710667,41.990312933921814 0.22824504412710667,41.990312933921814 0.34175594337284565,41.926202178001404 0.34175594337284565,41.926202178001404 0.47072991728782654,41.889944672584534 0.47072991728782654,41.889944672584534 0.7610468193888664,41.846659779548645 0.7610468193888664,41.846659779548645 1.5336360782384872,41.73763394355774 1.5336360782384872,41.73763394355774 2.710209973156452,41.58356785774231 2.710209973156452,41.58356785774231 4.212465137243271,41.40528738498688 4.212465137243271,41.40528738498688 5.962160602211952,41.22343361377716 5.962160602211952,41.22343361377716 7.880962640047073,41.05888903141022 7.880962640047073,41.05888903141022 7.954921573400497,41.01422727108002 7.954921573400497,41.01422727108002 8.02932009100914,40.969499945640564 8.02932009100914,40.969499945640564 8.10428261756897,40.92464745044708 8.10428261756897,40.92464745044708 8.179904520511627,40.87960720062256 8.179904520511627,40.87960720062256 8.256310224533081,40.83431363105774 8.256310224533081,40.83431363105774 8.33362564444542,40.78889787197113 8.33362564444542,40.78889787197113 8.533155918121338,40.6825065612793 8.533155918121338,40.6825065612793 9.151631593704224,40.39206504821777 9.151631593704224,40.39206504821777 10.218929499387741,39.96060490608215 10.218929499387741,39.96060490608215 11.764892190694809,39.431220293045044 11.764892190694809,39.431220293045044 13.819395005702972,38.84726166725159 13.819395005702972,38.84726166725159 16.412314772605896,38.25157284736633 16.412314772605896,38.25157284736633 16.409146785736084,38.23131024837494 16.409146785736084,38.23131024837494 16.40499085187912,38.21142613887787 16.40499085187912,38.21142613887787 16.400395333766937,38.19185495376587 16.400395333766937,38.19185495376587 16.395878791809082,38.1721556186676 16.395878791809082,38.1721556186676 16.391989588737488,38.152334094047546 16.391989588737488,38.152334094047546 16.389229893684387,38.13213407993317 16.389229893684387,38.13213407993317 16.38684570789337,38.099828362464905 16.38684570789337,38.099828362464905 16.380903124809265,38.004353642463684 16.380903124809265,38.004353642463684 16.373170912265778,37.84809112548828 16.373170912265778,37.84809112548828 16.365423798561096,37.633174657821655 16.365423798561096,37.633174657821655 16.35947972536087,37.36211657524109 16.35947972536087,37.36211657524109 16.357111930847168,37.037110328674316 16.357111930847168,37.037110328674316 16.013333201408386,35.99879443645477 16.013333201408386,35.99879443645477 15.153877437114716,33.94531011581421 15.153877437114716,33.94531011581421 14.03658390045166,31.413570046424866 14.03658390045166,31.413570046424866 12.919290363788605,28.940418362617493 12.919290363788605,28.940418362617493 12.05981969833374,27.062860131263733 12.05981969833374,27.062860131263733 11.716055870056152,26.317715644836426 11.716055870056152,26.317715644836426 11.505313217639923,25.662150979042053 11.505313217639923,25.662150979042053 11.505218595266342,25.09663701057434 11.505218595266342,25.09663701057434 11.700373142957687,24.642309546470642 11.700373142957687,24.642309546470642 12.075439095497131,24.320250749588013 12.075439095497131,24.320250749588013 12.615063786506653,24.151694774627686 12.615063786506653,24.151694774627686 13.303890824317932,24.157778918743134 13.303890824317932,24.157778918743134 13.375435769557953,24.171549081802368 13.375435769557953,24.171549081802368 13.606549799442291,24.23286736011505 13.606549799442291,24.23286736011505 14.02202993631363,24.371689558029175 14.02202993631363,24.371689558029175 14.646607637405396,24.61796998977661 14.646607637405396,24.61796998977661 15.505027770996094,25.00169277191162 15.505027770996094,25.00169277191162 16.622085869312286,25.55290460586548 16.622085869312286,25.55290460586548 18.087486922740936,26.772043108940125 18.087486922740936,26.772043108940125 19.911956787109375,28.884994983673096 19.911956787109375,28.884994983673096 21.83762788772583,31.426993012428284 21.83762788772583,31.426993012428284 23.60662817955017,33.93310904502869 23.60662817955017,33.93310904502869 24.961121380329132,35.93873083591461 24.961121380329132,35.93873083591461 25.643238425254822,36.97889745235443 25.643238425254822,36.97889745235443 27.024030685424805,36.87325716018677 27.024030685424805,36.87325716018677 28.465265035629272,36.781859397888184 28.465265035629272,36.781859397888184 29.96825873851776,36.706143617630005 29.96825873851776,36.706143617630005 31.53420090675354,36.64730191230774 31.53420090675354,36.64730191230774 33.164408802986145,36.60665452480316 33.164408802986145,36.60665452480316 34.86011028289795,36.585450172424316 34.86011028289795,36.585450172424316 36.8573397397995,36.57459914684296 36.8573397397995,36.57459914684296 38.94656598567963,36.56594157218933 38.94656598567963,36.56594157218933 41.11710488796234,36.55960559844971 41.11710488796234,36.55960559844971 43.35821568965912,36.55534088611603 43.35821568965912,36.55534088611603 45.65923511981964,36.5533322095871 45.65923511981964,36.5533322095871 48.00943434238434,36.5533322095871 48.00943434238434,36.5533322095871 47.97392785549164,36.34211719036102 47.97392785549164,36.34211719036102 47.93553650379181,36.113184690475464 47.93553650379181,36.113184690475464 47.894009947776794,35.865429043769836 47.894009947776794,35.865429043769836 47.84912467002869,35.597631335258484 47.84912467002869,35.597631335258484 47.80069589614868,35.30875742435455 47.80069589614868,35.30875742435455 47.74847328662872,34.99761521816254 47.74847328662872,34.99761521816254 47.516730427742004,33.92724394798279 47.516730427742004,33.92724394798279 47.07920253276825,32.18139111995697 47.07920253276825,32.18139111995697 46.47316336631775,29.886457324028015 46.47316336631775,29.886457324028015 45.73588967323303,27.168655395507812 45.73588967323303,27.168655395507812 44.904664158821106,24.15442317724228 44.904664158821106,24.15442317724228 44.01676058769226,20.970064401626587 44.01676058769226,20.970064401626587 43.17287802696228,20.766064524650574 43.17287802696228,20.766064524650574 42.435652017593384,20.546162128448486 42.435652017593384,20.546162128448486 41.82595908641815,20.31741589307785 41.82595908641815,20.31741589307785 41.3646399974823,20.08678764104843 41.3646399974823,20.08678764104843 41.07255041599274,19.861364364624023 41.07255041599274,19.861364364624023 40.97056686878204,19.64820623397827 40.97056686878204,19.64820623397827 41.047173738479614,19.465190172195435 41.047173738479614,19.465190172195435 41.26790761947632,19.272451102733612 41.26790761947632,19.272451102733612 41.61919951438904,19.074347615242004 41.61919951438904,19.074347615242004 42.087388038635254,18.875397741794586 42.087388038635254,18.875397741794586 42.65892505645752,18.680118024349213 42.65892505645752,18.680118024349213 43.320199847221375,18.492960929870605 43.320199847221375,18.492960929870605 42.314112186431885,14.933724701404572 42.314112186431885,14.933724701404572 41.372525691986084,11.619953066110611 41.372525691986084,11.619953066110611 40.54826498031616,8.73083546757698 40.54826498031616,8.73083546757698 39.89410996437073,6.4454056322574615 39.89410996437073,6.4454056322574615 39.46291506290436,4.942852258682251 39.46291506290436,4.942852258682251 39.307454228401184,4.402177780866623 39.307454228401184,4.402177780866623 39.06399607658386,3.6530811339616776 39.06399607658386,3.6530811339616776 38.76925706863403,2.900785207748413 38.76925706863403,2.900785207748413 38.44139575958252,2.1822698414325714 38.44139575958252,2.1822698414325714 38.09855878353119,1.534482929855585 38.09855878353119,1.534482929855585 37.758904695510864,0.9944984689354897 37.758904695510864,0.9944984689354897 37.44059205055237,0.5992020480334759 37.44059205055237,0.5992020480334759 37.24548518657684,0.32682607416063547 37.24548518657684,0.32682607416063547 37.25409507751465,0.13424333883449435 37.25409507751465,0.13424333883449435 37.45100498199463,0.025092213763855398 37.45100498199463,0.025092213763855398 37.820786237716675,0.002854239210137166 37.820786237716675,0.002854239210137166 38.34805190563202,0.07126188720576465 38.34805190563202,0.07126188720576465 39.017388224601746,0.23385942913591862 39.017388224601746,0.23385942913591862 40.24991691112518,0.5861540790647268 40.24991691112518,0.5861540790647268 41.013675928115845,0.8724248968064785 41.013675928115845,0.8724248968064785 41.80726408958435,1.2896456755697727 41.80726408958435,1.2896456755697727 42.589765787124634,1.8080193549394608 42.589765787124634,1.8080193549394608 43.320232629776,2.3974983021616936 43.320232629776,2.3974983021616936 43.95773112773895,3.0283164232969284 43.95773112773895,3.0283164232969284 44.46139335632324,3.6704890429973602 44.46139335632324,3.6704890429973602 44.76604461669922,4.1290804743766785 44.76604461669922,4.1290804743766785 45.62358558177948,5.4167188704013824 45.62358558177948,5.4167188704013824 46.949413418769836,7.401324808597565 46.949413418769836,7.401324808597565 48.658883571624756,9.95069369673729 48.658883571624756,9.95069369673729 50.66741704940796,12.93283998966217 50.66741704940796,12.93283998966217 52.89037227630615,16.21559113264084 52.89037227630615,16.21559113264084 57.58060812950134,15.880359709262848 57.58060812950134,15.880359709262848 58.09711217880249,15.913732349872589 58.09711217880249,15.913732349872589 58.56208801269531,16.078273952007294 58.56208801269531,16.078273952007294 58.95666480064392,16.35635942220688 58.95666480064392,16.35635942220688 59.261876344680786,16.730263829231262 59.261876344680786,16.730263829231262 59.45888161659241,17.182394862174988 59.45888161659241,17.182394862174988 59.52876806259155,17.695029079914093 59.52876806259155,17.695029079914093 59.52876806259155,21.764986217021942 59.52876806259155,21.764986217021942 59.473204612731934,22.222542762756348 59.473204612731934,22.222542762756348 59.31541919708252,22.633615136146545 59.31541919708252,22.633615136146545 59.06882882118225,22.985972464084625 59.06882882118225,22.985972464084625 58.74676704406738,23.267319798469543 58.74676704406738,23.267319798469543 58.36266875267029,23.465673625469208 58.36266875267029,23.465673625469208 57.92989134788513,23.568613827228546 57.92989134788513,23.568613827228546 59.88197326660156,26.372605562210083 59.88197326660156,26.372605562210083 61.75181269645691,29.024571180343628 61.75181269645691,29.024571180343628 63.49170207977295,31.449827551841736 63.49170207977295,31.449827551841736 65.05383849143982,33.57338011264801 65.05383849143982,33.57338011264801 66.39048457145691,35.32061576843262 66.39048457145691,35.32061576843262 67.45389103889465,36.61656379699707 67.45389103889465,36.61656379699707 73.51736426353455,36.65853142738342 73.51736426353455,36.65853142738342 79.0429174900055,36.708152294158936 79.0429174900055,36.708152294158936 83.82693529129028,36.76385581493378 83.82693529129028,36.76385581493378 87.66568303108215,36.82407736778259 87.66568303108215,36.82407736778259 90.35561680793762,36.88718378543854 90.35561680793762,36.88718378543854 91.69296622276306,36.95179522037506 91.69296622276306,36.95179522037506 93.01153421401978,37.32403814792633 93.01153421401978,37.32403814792633 94.59268450737,38.06670606136322 94.59268450737,38.06670606136322 96.21245265007019,38.98439109325409 96.21245265007019,38.98439109325409 97.64675498008728,39.881688356399536 97.64675498008728,39.881688356399536 98.67161512374878,40.563443303108215 98.67161512374878,40.563443303108215" stroke="white" stroke-width="0.1" /><polygon points="92.99876689910889,45.70897817611694 92.99876689910889,45.70897817611694 93.08991432189941,45.650890469551086 93.08991432189941,45.650890469551086 93.31778287887573,45.45266330242157 93.31778287887573,45.45266330242157 93.61402988433838,45.0785368680954 93.61402988433838,45.0785368680954 93.91024112701416,44.49244439601898 93.91024112701416,44.49244439601898 94.13813948631287,43.65869462490082 94.13813948631287,43.65869462490082 94.2292869091034,42.54133701324463 94.2292869091034,42.54133701324463 94.13813948631287,41.423919796943665 94.13813948631287,41.423919796943665 93.91024112701416,40.59016704559326 93.91024112701416,40.59016704559326 93.61402988433838,40.0041401386261 93.61402988433838,40.0041401386261 93.31778287887573,39.6298885345459 93.31778287887573,39.6298885345459 93.08991432189941,39.431723952293396 93.08991432189941,39.431723952293396 92.99876689910889,39.373695850372314 92.99876689910889,39.373695850372314 91.41896367073059,40.39946794509888 91.41896367073059,40.39946794509888 91.46357774734497,40.48383831977844 91.46357774734497,40.48383831977844 91.5750801563263,40.71700870990753 91.5750801563263,40.71700870990753 91.72006845474243,41.06917679309845 91.72006845474243,41.06917679309845 91.86500906944275,41.51042401790619 91.86500906944275,41.51042401790619 91.97655916213989,42.011138796806335 91.97655916213989,42.011138796806335 92.02117323875427,42.54133701324463 92.02117323875427,42.54133701324463 91.97657108306885,43.07153522968292 91.97657108306885,43.07153522968292 91.86503887176514,43.572187423706055 91.86503887176514,43.572187423706055 91.72006845474243,44.01349723339081 91.72006845474243,44.01349723339081 91.57506823539734,44.365668296813965 91.57506823539734,44.365668296813965 91.46354794502258,44.5987731218338 91.46354794502258,44.5987731218338 91.41896367073059,44.68320906162262 91.41896367073059,44.68320906162262" stroke="white" stroke-width="0.1" /></svg>