<?xml version="1.0" encoding="utf-8" ?>
<svg baseProfile="full" height="43.717920780181885" version="1.1" width="100.00011920928955" xmlns="http://www.w3.org/2000/svg" xmlns:ev="http://www.w3.org/2001/xml-events" xmlns:xlink="http://www.w3.org/1999/xlink"><defs><clipPath /></defs><polygon points="47.04325199127197,42.80238747596741 47.04325199127197,42.80238747596741 47.22019135951996,42.962485551834106 47.22019135951996,42.962485551834106 47.40092754364014,43.11878979206085 47.40092754364014,43.11878979206085 47.5847452878952,43.27189326286316 47.5847452878952,43.27189326286316 47.77069687843323,43.42237412929535 47.77069687843323,43.42237412929535 47.9586660861969,43.57084929943085 47.9586660861969,43.57084929943085 48.14758598804474,43.717920780181885 48.14758598804474,43.717920780181885 21.25745862722397,43.717920780181885 21.25745862722397,43.717920780181885 20.007969439029694,43.717920780181885 20.007969439029694,43.717920780181885 20.16783207654953,42.03951060771942 20.16783207654953,42.03951060771942 20.425058901309967,40.43210744857788 20.425058901309967,40.43210744857788 20.779769122600555,38.8957142829895 20.779769122600555,38.8957142829895 21.231724321842194,37.43031024932861 21.231724321842194,37.43031024932861 21.781162917613983,36.03590130805969 21.781162917613983,36.03590130805969 22.428204119205475,34.7124844789505 22.428204119205475,34.7124844789505 23.19016009569168,33.43453109264374 23.19016009569168,33.43453109264374 24.081382155418396,32.175567746162415 24.081382155418396,32.175567746162415 25.102224946022034,30.9356689453125 25.102224946022034,30.9356689453125 26.2523353099823,29.714804887771606 26.2523353099823,29.714804887771606 27.531710267066956,28.513020277023315 27.531710267066956,28.513020277023315 28.94035279750824,27.330341935157776 28.94035279750824,27.330341935157776 29.439744353294373,26.94721221923828 29.439744353294373,26.94721221923828 30.019068717956543,26.518917083740234 30.019068717956543,26.518917083740234 30.6779682636261,26.045510172843933 30.6779682636261,26.045510172843933 31.41656219959259,25.527024269104004 31.41656219959259,25.527024269104004 32.23485052585602,24.963532388210297 32.23485052585602,24.963532388210297 33.13283324241638,24.355094134807587 33.13283324241638,24.355094134807587 34.02749300003052,23.74754399061203 34.02749300003052,23.74754399061203 34.83593761920929,23.188647627830505 34.83593761920929,23.188647627830505 35.5581670999527,22.67831563949585 35.5581670999527,22.67831563949585 36.19382083415985,22.216427326202393 36.19382083415985,22.216427326202393 36.74314320087433,21.80292457342148 36.74314320087433,21.80292457342148 37.205770611763,21.437719464302063 37.205770611763,21.437719464302063 37.88838982582092,20.845380425453186 37.88838982582092,20.845380425453186 38.51052522659302,20.25047540664673 38.51052522659302,20.25047540664673 39.072299003601074,19.653022289276123 39.072299003601074,19.653022289276123 39.57346975803375,19.05294358730316 39.57346975803375,19.05294358730316 40.01427888870239,18.45022737979889 40.01427888870239,18.45022737979889 40.394484996795654,17.8448423743248 40.394484996795654,17.8448423743248 40.71563482284546,17.235277593135834 40.71563482284546,17.235277593135834 40.97890853881836,16.620048880577087 40.97890853881836,16.620048880577087 41.18407368659973,15.999189019203186 41.18407368659973,15.999189019203186 41.330891847610474,15.372708439826965 41.330891847610474,15.372708439826965 41.419124603271484,14.740641415119171 41.419124603271484,14.740641415119171 41.44853353500366,14.103013277053833 41.44853353500366,14.103013277053833 41.409993171691895,13.205239176750183 41.409993171691895,13.205239176750183 41.29424691200256,12.378057092428207 41.29424691200256,12.378057092428207 41.10165238380432,11.621348559856415 41.10165238380432,11.621348559856415 40.831971168518066,10.934994369745255 40.831971168518066,10.934994369745255 40.48568308353424,10.318906605243683 40.48568308353424,10.318906605243683 40.06242752075195,9.772966057062149 40.06242752075195,9.772966057062149 39.570268988609314,9.304200112819672 39.570268988609314,9.304200112819672 39.01442587375641,8.920671790838242 39.01442587375641,8.920671790838242 38.39501738548279,8.622382581233978 38.39501738548279,8.622382581233978 37.7119243144989,8.409301191568375 37.7119243144989,8.409301191568375 36.9655042886734,8.281473815441132 36.9655042886734,8.281473815441132 36.155515909194946,8.238854259252548 36.155515909194946,8.238854259252548 35.25136709213257,8.294429630041122 35.25136709213257,8.294429630041122 34.4240665435791,8.461155742406845 34.4240665435791,8.461155742406845 33.67408812046051,8.739077299833298 33.67408812046051,8.739077299833298 33.00107717514038,9.128134697675705 33.00107717514038,9.128134697675705 32.40550458431244,9.628372639417648 32.40550458431244,9.628372639417648 31.88713788986206,10.239746421575546 31.88713788986206,10.239746421575546 31.44526183605194,10.96046194434166 31.44526183605194,10.96046194434166 31.083911657333374,11.790639162063599 31.083911657333374,11.790639162063599 30.803203582763672,12.730306386947632 30.803203582763672,12.730306386947632 30.60254454612732,13.779449462890625 30.60254454612732,13.779449462890625 30.48229217529297,14.938141405582428 30.48229217529297,14.938141405582428 30.44220805168152,16.206368803977966 30.44220805168152,16.206368803977966 20.460517704486847,16.17695838212967 20.460517704486847,16.17695838212967 20.597372949123383,13.794806599617004 20.597372949123383,13.794806599617004 20.96916139125824,11.579885333776474 20.96916139125824,11.579885333776474 21.57599776983261,9.532105177640915 21.57599776983261,9.532105177640915 22.417530417442322,7.651377469301224 22.417530417442322,7.651377469301224 23.493875563144684,5.937627330422401 23.493875563144684,5.937627330422401 24.804796278476715,4.390766844153404 24.804796278476715,4.390766844153404 26.312226057052612,3.0489228665828705 26.312226057052612,3.0489228665828705 27.97749936580658,1.9511571153998375 27.97749936580658,1.9511571153998375 29.800504446029663,1.0974545031785965 29.800504446029663,1.0974545031785965 31.780877709388733,0.48772627487778664 31.780877709388733,0.48772627487778664 33.91886353492737,0.12192785507068038 33.91886353492737,0.12192785507068038 36.21433973312378,0.0 36.21433973312378,0.0 38.105177879333496,0.07228209869936109 38.105177879333496,0.07228209869936109 39.89378809928894,0.28865402564406395 39.89378809928894,0.28865402564406395 41.580766439437866,0.6483449134975672 41.580766439437866,0.6483449134975672 43.165990710258484,1.1505691334605217 43.165990710258484,1.1505691334605217 44.65005695819855,1.7946003004908562 44.65005695819855,1.7946003004908562 46.03284299373627,2.5796229019761086 46.03284299373627,2.5796229019761086 44.98472511768341,4.046063125133514 44.98472511768341,4.046063125133514 44.114017486572266,5.635602027177811 44.114017486572266,5.635602027177811 43.42286288738251,7.347395271062851 43.42286288738251,7.347395271062851 42.91267693042755,9.180522710084915 42.91267693042755,9.180522710084915 42.5858348608017,11.134155839681625 42.5858348608017,11.134155839681625 42.443761229515076,13.20740431547165 42.443761229515076,13.20740431547165 42.355528473854065,17.083953320980072 42.355528473854065,17.083953320980072 46.23492658138275,17.094390094280243 46.23492658138275,17.094390094280243 51.72053575515747,17.11241602897644 51.72053575515747,17.11241602897644 51.59803032875061,17.61038601398468 51.59803032875061,17.61038601398468 51.45809054374695,18.100498616695404 51.45809054374695,18.100498616695404 51.30096077919006,18.582606315612793 51.30096077919006,18.582606315612793 51.1261522769928,19.056561589241028 51.1261522769928,19.056561589241028 50.933676958084106,19.52224373817444 50.933676958084106,19.52224373817444 50.72341561317444,19.979506731033325 50.72341561317444,19.979506731033325 50.22662878036499,20.901429653167725 50.22662878036499,20.901429653167725 49.628329277038574,21.83704972267151 49.628329277038574,21.83704972267151 48.929110169410706,22.786353528499603 48.929110169410706,22.786353528499603 48.12861084938049,23.74923527240753 48.12861084938049,23.74923527240753 47.22742736339569,24.725665152072906 47.22742736339569,24.725665152072906 46.22543752193451,25.71558654308319 46.22543752193451,25.71558654308319 45.56986093521118,25.71558654308319 45.56986093521118,25.71558654308319 41.735053062438965,25.71558654308319 41.735053062438965,25.71558654308319 41.767311096191406,29.254385828971863 41.767311096191406,29.254385828971863 41.52953326702118,29.423320293426514 41.52953326702118,29.423320293426514 41.28831624984741,29.594478011131287 41.28831624984741,29.594478011131287 41.04294776916504,29.76824641227722 41.04294776916504,29.76824641227722 40.79248011112213,29.944932460784912 40.79248011112213,29.944932460784912 40.53608477115631,30.124881863594055 40.53608477115631,30.124881863594055 40.27304649353027,30.30843436717987 40.27304649353027,30.30843436717987 38.967105746269226,31.235945224761963 38.967105746269226,31.235945224761963 37.79446482658386,32.11531043052673 37.79446482658386,32.11531043052673 36.75559461116791,32.946404814720154 36.75559461116791,32.946404814720154 35.8502596616745,33.72910022735596 35.8502596616745,33.72910022735596 35.07905304431915,34.46330726146698 35.07905304431915,34.46330726146698 34.44209396839142,35.14890372753143 34.44209396839142,35.14890372753143 42.499738931655884,35.14890372753143 42.499738931655884,35.14890372753143 42.969244718551636,36.630553007125854 42.969244718551636,36.630553007125854 43.55355203151703,38.03126513957977 43.55355203151703,38.03126513957977 44.25312876701355,39.34992253780365 44.25312876701355,39.34992253780365 45.067739486694336,40.585389733314514 45.067739486694336,40.585389733314514 45.99774181842804,41.73659682273865 45.99774181842804,41.73659682273865" stroke="white" stroke-width="0.1" /><polygon points="21.25745862722397,19.980455935001373 21.25745862722397,19.980455935001373 21.25745862722397,29.623445868492126 21.25745862722397,29.623445868492126 20.845231413841248,30.161365866661072 20.845231413841248,30.161365866661072 20.45280933380127,30.70296347141266 20.45280933380127,30.70296347141266 20.080429315567017,31.24816119670868 20.080429315567017,31.24816119670868 19.72809135913849,31.796813011169434 19.72809135913849,31.796813011169434 19.39626932144165,32.34887719154358 19.39626932144165,32.34887719154358 19.08484548330307,32.904186844825745 19.08484548330307,32.904186844825745 18.317195773124695,34.470704197883606 18.317195773124695,34.470704197883606 17.664463818073273,36.11907958984375 17.664463818073273,36.11907958984375 17.127476632595062,37.84640729427338 17.127476632595062,37.84640729427338 16.706591844558716,39.649784564971924 16.706591844558716,39.649784564971924 16.402995586395264,41.52633249759674 16.402995586395264,41.52633249759674 16.216805577278137,43.47314536571503 16.216805577278137,43.47314536571503 16.19877964258194,43.717920780181885 16.19877964258194,43.717920780181885 10.209386795759201,43.717920780181885 10.209386795759201,43.717920780181885 10.209386795759201,15.005265176296234 10.209386795759201,15.005265176296234 0.0,15.005265176296234 0.0,15.005265176296234 0.0,8.04436281323433 0.0,8.04436281323433 0.8984563872218132,8.04436281323433 0.8984563872218132,8.04436281323433 2.7243057265877724,7.9910703003406525 2.7243057265877724,7.9910703003406525 4.387208819389343,7.831177860498428 4.387208819389343,7.831177860498428 5.887166410684586,7.564656436443329 5.887166410684586,7.564656436443329 7.223702967166901,7.191475480794907 7.223702967166901,7.191475480794907 8.396700769662857,6.7116208374500275 8.396700769662857,6.7116208374500275 9.405804425477982,6.125062704086304 9.405804425477982,6.125062704086304 10.267733782529831,5.422713607549667 10.267733782529831,5.422713607549667 10.994705557823181,4.592744633555412 10.994705557823181,4.592744633555412 11.587430536746979,3.6353327333927155 11.587430536746979,3.6353327333927155 12.045909464359283,2.5506271049380302 12.045909464359283,2.5506271049380302 12.370733916759491,1.3387901708483696 12.370733916759491,1.3387901708483696 12.562261521816254,0.0 12.562261521816254,0.0 21.25745862722397,0.0 21.25745862722397,0.0 21.25745862722397,2.676394395530224 21.25745862722397,2.676394395530224 19.879652559757233,4.518624395132065 19.879652559757233,4.518624395132065 18.743298947811127,6.524897366762161 18.743298947811127,6.524897366762161 17.851009964942932,8.692944794893265 17.851009964942932,8.692944794893265 17.204561829566956,11.020440608263016 17.204561829566956,11.020440608263016 16.80656522512436,13.505129516124725 16.80656522512436,13.505129516124725 16.65891855955124,16.144701838493347 16.65891855955124,16.144701838493347 16.626660525798798,19.96622383594513 16.626660525798798,19.96622383594513 20.450080931186676,19.97760981321335 20.450080931186676,19.97760981321335" stroke="white" stroke-width="0.1" /><polygon points="74.29389953613281,26.953691244125366 74.29389953613281,26.953691244125366 74.29389953613281,34.20206308364868 74.29389953613281,34.20206308364868 74.3237853050232,34.80827808380127 74.3237853050232,34.80827808380127 74.41107034683228,35.3975772857666 74.41107034683228,35.3975772857666 74.55302476882935,35.96743047237396 74.55302476882935,35.96743047237396 74.74644780158997,36.51529550552368 74.74644780158997,36.51529550552368 74.98884797096252,37.03864514827728 74.98884797096252,37.03864514827728 75.27679204940796,37.534984946250916 75.27679204940796,37.534984946250916 74.9481737613678,37.995344400405884 74.9481737613678,37.995344400405884 74.59713816642761,38.44245374202728 74.59713816642761,38.44245374202728 74.2228627204895,38.87579143047333 74.2228627204895,38.87579143047333 73.82415533065796,39.29470181465149 73.82415533065796,39.29470181465149 73.4004259109497,39.698657393455505 73.4004259109497,39.698657393455505 72.95048236846924,40.08709490299225 72.95048236846924,40.08709490299225 71.38944864273071,41.196733713150024 71.38944864273071,41.196733713150024 69.65218782424927,42.10450053215027 69.65218782424927,42.10450053215027 67.73881912231445,42.81044900417328 67.73881912231445,42.81044900417328 65.64934253692627,43.31461787223816 65.64934253692627,43.31461787223816 63.384222984313965,43.617087602615356 63.384222984313965,43.617087602615356 60.94323396682739,43.717920780181885 60.94323396682739,43.717920780181885 58.59605669975281,43.615055084228516 58.59605669975281,43.615055084228516 56.433284282684326,43.306419253349304 56.433284282684326,43.306419253349304 54.45516109466553,42.791950702667236 54.45516109466553,42.791950702667236 52.661216259002686,42.07158982753754 52.661216259002686,42.07158982753754 51.0515570640564,41.14532470703125 51.0515570640564,41.14532470703125 49.62572157382965,40.01309275627136 49.62572157382965,40.01309275627136 48.403745889663696,38.69299590587616 48.403745889663696,38.69299590587616 47.39986062049866,37.20123469829559 47.39986062049866,37.20123469829559 46.61442041397095,35.53776741027832 46.61442041397095,35.53776741027832 46.04731202125549,33.702489733695984 46.04731202125549,33.702489733695984 45.69924473762512,31.695345044136047 45.69924473762512,31.695345044136047 45.56986093521118,29.51623797416687 45.56986093521118,29.51623797416687 55.52593469619751,29.51623797416687 55.52593469619751,29.51623797416687 55.58522939682007,30.48190474510193 55.58522939682007,30.48190474510193 55.72481155395508,31.36768639087677 55.72481155395508,31.36768639087677 55.94444274902344,32.17365741729736 55.94444274902344,32.17365741729736 56.24377131462097,32.89991617202759 56.24377131462097,32.89991617202759 56.62267804145813,33.54661762714386 56.62267804145813,33.54661762714386 57.08091855049133,34.11383032798767 57.08091855049133,34.11383032798767 57.615530490875244,34.59657430648804 57.615530490875244,34.59657430648804 58.22497606277466,34.99165177345276 58.22497606277466,34.99165177345276 58.909374475479126,35.299041867256165 58.909374475479126,35.299041867256165 59.668487310409546,35.518646240234375 59.668487310409546,35.518646240234375 60.50230860710144,35.650476813316345 60.50230860710144,35.650476813316345 61.41096353530884,35.69442927837372 61.41096353530884,35.69442927837372 62.22522258758545,35.65293550491333 62.22522258758545,35.65293550491333 62.984687089920044,35.528430342674255 62.984687089920044,35.528430342674255 63.69019150733948,35.320982336997986 63.69019150733948,35.320982336997986 64.34174180030823,35.030579566955566 64.34174180030823,35.030579566955566 64.93980288505554,34.65729355812073 64.93980288505554,34.65729355812073 65.48485159873962,34.201112389564514 65.48485159873962,34.201112389564514 65.95803499221802,33.67742300033569 65.95803499221802,33.67742300033569 66.34523868560791,33.10155272483826 66.34523868560791,33.10155272483826 66.64658188819885,32.473576068878174 66.64658188819885,32.473576068878174 66.86171293258667,31.79347813129425 66.86171293258667,31.79347813129425 66.99097752571106,31.061318516731262 66.99097752571106,31.061318516731262 67.0341432094574,30.277127027511597 67.0341432094574,30.277127027511597 66.98267459869385,29.37963306903839 66.98267459869385,29.37963306903839 66.8280303478241,28.559967875480652 66.8280303478241,28.559967875480652 66.57021045684814,27.81822979450226 66.57021045684814,27.81822979450226 66.20885729789734,27.154409885406494 66.20885729789734,27.154409885406494 65.74397683143616,26.568636298179626 65.74397683143616,26.568636298179626 65.17556309700012,26.060926914215088 65.17556309700012,26.060926914215088 64.5024299621582,25.63137114048004 64.5024299621582,25.63137114048004 63.72256875038147,25.28005540370941 63.72256875038147,25.28005540370941 62.83632516860962,25.00687837600708 62.83632516860962,25.00687837600708 61.8432343006134,24.811823666095734 61.8432343006134,24.811823666095734 60.74364185333252,24.694831669330597 60.74364185333252,24.694831669330597 59.53720211982727,24.655844271183014 59.53720211982727,24.655844271183014 58.66056680679321,24.655844271183014 58.66056680679321,24.655844271183014 58.66056680679321,17.62758195400238 58.66056680679321,17.62758195400238 59.36073660850525,17.62758195400238 59.36073660850525,17.62758195400238 60.45665144920349,17.591381072998047 60.45665144920349,17.591381072998047 61.45662069320679,17.482779920101166 61.45662069320679,17.482779920101166 62.36124634742737,17.301808297634125 62.36124634742737,17.301808297634125 63.170284032821655,17.048479616642 63.170284032821655,17.048479616642 63.88421058654785,16.72285497188568 63.88421058654785,16.72285497188568 64.5029067993164,16.32496267557144 64.5029067993164,16.32496267557144 65.0259017944336,15.854372084140778 65.0259017944336,15.854372084140778 65.45401811599731,15.31158983707428 65.45401811599731,15.31158983707428 65.78726172447205,14.696569740772247 65.78726172447205,14.696569740772247 66.02539420127869,14.009177684783936 66.02539420127869,14.009177684783936 66.16853475570679,13.249385356903076 66.16853475570679,13.249385356903076 66.21633172035217,12.417103350162506 66.21633172035217,12.417103350162506 66.18099212646484,11.701205372810364 66.18099212646484,11.701205372810364 66.07460975646973,11.037354916334152 66.07460975646973,11.037354916334152 65.89755415916443,10.42558029294014 65.89755415916443,10.42558029294014 65.6495749950409,9.865883737802505 65.6495749950409,9.865883737802505 65.33080339431763,9.358352422714233 65.33080339431763,9.358352422714233 64.9412214756012,8.90297219157219 64.9412214756012,8.90297219157219 64.49116468429565,8.508682250976562 64.49116468429565,8.508682250976562 63.989877700805664,8.18624421954155 63.989877700805664,8.18624421954155 63.43759298324585,7.935613393783569 63.43759298324585,7.935613393783569 62.83395290374756,7.756686955690384 62.83395290374756,7.756686955690384 62.17944622039795,7.64937624335289 62.17944622039795,7.64937624335289 61.473578214645386,7.613635063171387 61.473578214645386,7.613635063171387 60.62920093536377,7.652696222066879 60.62920093536377,7.652696222066879 59.8534882068634,7.769821584224701 59.8534882068634,7.769821584224701 59.14715528488159,7.965024560689926 59.14715528488159,7.965024560689926 58.509719371795654,8.238247036933899 58.509719371795654,8.238247036933899 57.941895723342896,8.589473366737366 57.941895723342896,8.589473366737366 57.44333267211914,9.01871845126152 57.44333267211914,9.01871845126152 57.01355338096619,9.528577327728271 57.01355338096619,9.528577327728271 56.64912462234497,10.121642798185349 56.64912462234497,10.121642798185349 56.35038614273071,10.797842592000961 56.35038614273071,10.797842592000961 56.117355823516846,11.557041853666306 56.117355823516846,11.557041853666306 55.95025420188904,12.399166822433472 55.95025420188904,12.399166822433472 55.8494508266449,13.324098289012909 55.8494508266449,13.324098289012909 46.244412660598755,13.293738663196564 46.244412660598755,13.293738663196564 46.4009553194046,11.255772411823273 46.4009553194046,11.255772411823273 46.773216128349304,9.377964586019516 46.773216128349304,9.377964586019516 47.3614364862442,7.660360634326935 47.3614364862442,7.660360634326935 48.1650173664093,6.102915480732918 48.1650173664093,6.102915480732918 49.184319376945496,4.7056593000888824 49.184319376945496,4.7056593000888824 50.41886568069458,3.468591719865799 50.41886568069458,3.468591719865799 51.85110569000244,2.4085236713290215 51.85110569000244,2.4085236713290215 53.46277952194214,1.5413164161145687 53.46277952194214,1.5413164161145687 55.254000425338745,0.8669108152389526 55.254000425338745,0.8669108152389526 57.22464919090271,0.3852475667372346 57.22464919090271,0.3852475667372346 59.37508940696716,0.09629706619307399 59.37508940696716,0.09629706619307399 61.70507073402405,0.0 61.70507073402405,0.0 63.81922364234924,0.08538656402379274 63.81922364234924,0.08538656402379274 65.78607559204102,0.3415758954361081 65.78607559204102,0.3415758954361081 67.60623455047607,0.7685976568609476 67.60623455047607,0.7685976568609476 69.27992701530457,1.3664518482983112 69.27992701530457,1.3664518482983112 70.80763578414917,2.1351976320147514 70.80763578414917,2.1351976320147514 72.18959331512451,3.0748650431632996 72.18959331512451,3.0748650431632996 73.01167845726013,3.7836771458387375 73.01167845726013,3.7836771458387375 73.73544573783875,4.5436471700668335 73.73544573783875,4.5436471700668335 74.36173558235168,5.354449152946472 74.36173558235168,5.354449152946472 74.8910129070282,6.215667352080345 74.8910129070282,6.215667352080345 75.32470226287842,7.126990705728531 75.32470226287842,7.126990705728531 75.66292881965637,8.08800458908081 75.66292881965637,8.08800458908081 75.52773356437683,8.22327435016632 75.52773356437683,8.22327435016632 75.39229989051819,8.358632773160934 75.39229989051819,8.358632773160934 75.25687217712402,8.494065701961517 75.25687217712402,8.494065701961517 75.12131929397583,8.629468083381653 75.12131929397583,8.629468083381653 74.98588562011719,8.764856308698654 74.98588562011719,8.764856308698654 74.8508095741272,8.900126069784164 74.8508095741272,8.900126069784164 72.70191311836243,11.048072576522827 72.70191311836243,11.048072576522827 72.07800149917603,11.67188361287117 72.07800149917603,11.67188361287117 71.45384550094604,12.295813113451004 71.45384550094604,12.295813113451004 70.82945704460144,12.919935584068298 70.82945704460144,12.919935584068298 70.20494937896729,13.54435384273529 70.20494937896729,13.54435384273529 69.58056092262268,14.169247448444366 69.58056092262268,14.169247448444366 68.95629167556763,14.794644713401794 68.95629167556763,14.794644713401794 68.42309832572937,15.327836573123932 68.42309832572937,15.327836573123932 67.7827000617981,15.969184041023254 67.7827000617981,15.969184041023254 66.97271466255188,16.959252953529358 66.97271466255188,16.959252953529358 66.38627052307129,18.066076934337616 66.38627052307129,18.066076934337616 66.03025794029236,19.25538182258606 66.03025794029236,19.25538182258606 65.91095328330994,20.492908358573914 65.91095328330994,20.492908358573914 66.03500247001648,21.74440026283264 66.03500247001648,21.74440026283264 66.40892624855042,22.975626587867737 66.40892624855042,22.975626587867737 67.01481342315674,24.109341204166412 67.01481342315674,24.109341204166412 67.81092286109924,25.080955028533936 67.81092286109924,25.080955028533936 68.7684416770935,25.870823860168457 68.7684416770935,25.870823860168457 69.85806822776794,26.4593243598938 69.85806822776794,26.4593243598938 71.05075120925903,26.82681381702423 71.05075120925903,26.82681381702423 72.31767177581787,26.953691244125366 72.31767177581787,26.953691244125366" stroke="white" stroke-width="0.1" /><polygon points="99.86338019371033,19.696782529354095 99.86338019371033,19.696782529354095 100.00011920928955,20.510771870613098 100.00011920928955,20.510771870613098 99.87215399742126,21.293021738529205 99.87215399742126,21.293021738529205 99.51708912849426,21.991664171218872 99.51708912849426,21.991664171218872 98.97180199623108,22.55486100912094 98.97180199623108,22.55486100912094 98.27388525009155,22.930827736854553 98.27388525009155,22.930827736854553 97.4602222442627,23.06765466928482 97.4602222442627,23.06765466928482 91.61503911018372,23.06765466928482 91.61503911018372,23.06765466928482 91.61503911018372,34.20206308364868 91.61503911018372,34.20206308364868 91.53285026550293,34.81121063232422 91.53285026550293,34.81121063232422 91.30052924156189,35.35993993282318 91.30052924156189,35.35993993282318 90.94071984291077,35.825830698013306 90.94071984291077,35.825830698013306 90.47489166259766,36.18639409542084 90.47489166259766,36.18639409542084 89.92545008659363,36.419206857681274 89.92545008659363,36.419206857681274 89.31434154510498,36.50180697441101 89.31434154510498,36.50180697441101 80.48157691955566,36.50180697441101 80.48157691955566,36.50180697441101 79.87130284309387,36.41922175884247 79.87130284309387,36.41922175884247 79.32186126708984,36.18639409542084 79.32186126708984,36.18639409542084 78.85579466819763,35.825830698013306 78.85579466819763,35.825830698013306 78.49515676498413,35.35992503166199 78.49515676498413,35.35992503166199 78.26235890388489,34.811195731163025 78.26235890388489,34.811195731163025 78.17993760108948,34.20206308364868 78.17993760108948,34.20206308364868 78.17993760108948,23.06765466928482 78.17993760108948,23.06765466928482 72.31767177581787,23.06765466928482 72.31767177581787,23.06765466928482 71.30465507507324,22.855165600776672 71.30465507507324,22.855165600776672 70.5162525177002,22.29112535715103 70.5162525177002,22.29112535715103 69.99824047088623,21.485748887062073 69.99824047088623,21.485748887062073 69.79604363441467,20.549196004867554 69.79604363441467,20.549196004867554 69.95602250099182,19.59168016910553 69.95602250099182,19.59168016910553 70.52360773086548,18.723376095294952 70.52360773086548,18.723376095294952 70.7213044166565,18.526245653629303 70.7213044166565,18.526245653629303 70.91863751411438,18.328729271888733 70.91863751411438,18.328729271888733 71.11573815345764,18.13112497329712 71.11573815345764,18.13112497329712 71.31248712539673,17.933668196201324 71.31248712539673,17.933668196201324 71.50923013687134,17.736627161502838 71.50923013687134,17.736627161502838 71.70573472976685,17.5402969121933 71.70573472976685,17.5402969121933 72.68851399421692,16.556647419929504 72.68851399421692,16.556647419929504 73.67081642150879,15.574122965335846 73.67081642150879,15.574122965335846 74.65299963951111,14.592444896697998 74.65299963951111,14.592444896697998 75.63470602035522,13.61130028963089 75.63470602035522,13.61130028963089 76.61617398262024,12.63045072555542 76.61617398262024,12.63045072555542 77.59740948677063,11.649573594331741 77.59740948677063,11.649573594331741 78.4479558467865,10.799828916788101 78.4479558467865,10.799828916788101 79.29814457893372,9.949847310781479 79.29814457893372,9.949847310781479 80.14833331108093,9.099717438220978 80.14833331108093,9.099717438220978 80.9981644153595,8.249498158693314 80.9981644153595,8.249498158693314 81.84812068939209,7.399279624223709 81.84812068939209,7.399279624223709 82.6978325843811,6.549149006605148 82.6978325843811,6.549149006605148 83.02419781684875,6.24464824795723 83.02419781684875,6.24464824795723 83.36693048477173,5.972641706466675 83.36693048477173,5.972641706466675 83.72721672058105,5.743313580751419 83.72721672058105,5.743313580751419 84.10611748695374,5.566877871751785 84.10611748695374,5.566877871751785 84.50482487678528,5.453532934188843 84.50482487678528,5.453532934188843 84.92452502250671,5.413508042693138 84.92452502250671,5.413508042693138 85.0542664527893,5.417332798242569 85.0542664527893,5.417332798242569 85.18542647361755,5.4288361221551895 85.18542647361755,5.4288361221551895 85.31825542449951,5.4481372237205505 85.31825542449951,5.4481372237205505 85.4528546333313,5.475339293479919 85.4528546333313,5.475339293479919 85.58983206748962,5.510576069355011 85.58983206748962,5.510576069355011 85.72905659675598,5.553921684622765 85.72905659675598,5.553921684622765 86.06324791908264,5.703851953148842 86.06324791908264,5.703851953148842 86.36838793754578,5.899158865213394 86.36838793754578,5.899158865213394 86.65099740028381,6.128146126866341 86.65099740028381,6.128146126866341 86.91794872283936,6.379117071628571 86.91794872283936,6.379117071628571 87.17600107192993,6.640347093343735 87.17600107192993,6.640347093343735 87.43204474449158,6.9001831114292145 87.43204474449158,6.9001831114292145 88.80676627159119,8.274862170219421 88.80676627159119,8.274862170219421 90.18101692199707,9.650193899869919 90.18101692199707,9.650193899869919 91.5556252002716,11.025895923376083 91.5556252002716,11.025895923376083 92.93022751808167,12.401656806468964 92.93022751808167,12.401656806468964 94.30554509162903,13.777241110801697 94.30554509162903,13.777241110801697 95.68133354187012,15.152320265769958 95.68133354187012,15.152320265769958 96.22069597244263,15.69141149520874 96.22069597244263,15.69141149520874 96.75981402397156,16.23011827468872 96.75981402397156,16.23011827468872 97.29881882667542,16.76873415708542 97.29881882667542,16.76873415708542 97.83770442008972,17.307500541210175 97.83770442008972,17.307500541210175 98.37658405303955,17.84668117761612 98.37658405303955,17.84668117761612 98.91558885574341,18.38657259941101 98.91558885574341,18.38657259941101 99.10818338394165,18.5811385512352 99.10818338394165,18.5811385512352 99.29271340370178,18.778328597545624 99.29271340370178,18.778328597545624 99.46491122245789,18.983329832553864 99.46491122245789,18.983329832553864 99.62026476860046,19.20127421617508 99.62026476860046,19.20127421617508 99.75463151931763,19.437390565872192 99.75463151931763,19.437390565872192" stroke="white" stroke-width="0.1" /></svg>