<?xml version="1.0" encoding="utf-8" ?>
<svg baseProfile="full" height="100.0" version="1.1" width="99.43127036094666" xmlns="http://www.w3.org/2000/svg" xmlns:ev="http://www.w3.org/2001/xml-events" xmlns:xlink="http://www.w3.org/1999/xlink"><defs><clipPath /></defs><polygon points="92.57410168647766,0.0 92.57410168647766,0.0 94.39697861671448,0.24495567195117474 94.39697861671448,0.24495567195117474 96.03497982025146,0.936239305883646 96.03497982025146,0.936239305883646 97.42278456687927,2.008484862744808 97.42278456687927,2.008484862744808 98.49501252174377,3.396299108862877 98.49501252174377,3.396299108862877 99.18627738952637,5.034315958619118 99.18627738952637,5.034315958619118 99.43127036094666,6.857169419527054 99.43127036094666,6.857169419527054 99.43127036094666,69.42942142486572 99.43127036094666,69.42942142486572 99.1863489151001,71.25306129455566 99.1863489151001,71.25306129455566 98.49501252174377,72.89131283760071 98.49501252174377,72.89131283760071 97.42278456687927,74.27896857261658 97.42278456687927,74.27896857261658 96.03490829467773,75.35083889961243 96.03490829467773,75.35083889961243 94.39690709114075,76.04177594184875 94.39690709114075,76.04177594184875 92.57410168647766,76.28659009933472 92.57410168647766,76.28659009933472 54.70014214515686,76.28659009933472 54.70014214515686,76.28659009933472 54.74645495414734,76.58851146697998 54.74645495414734,76.58851146697998 54.7853946685791,76.89325213432312 54.7853946685791,76.89325213432312 54.816609621047974,77.2009551525116 54.816609621047974,77.2009551525116 54.83950972557068,77.511727809906 54.83950972557068,77.511727809906 54.85360026359558,77.82571911811829 54.85360026359558,77.82571911811829 54.85851168632507,78.14306616783142 54.85851168632507,78.14306616783142 55.207109451293945,80.4535984992981 55.207109451293945,80.4535984992981 56.189894676208496,82.53384232521057 56.189894676208496,82.53384232521057 57.71244168281555,84.29914116859436 57.71244168281555,84.29914116859436 59.68024730682373,85.66485643386841 59.68024730682373,85.66485643386841 61.9990348815918,86.54636740684509 61.9990348815918,86.54636740684509 64.57437872886658,86.8590235710144 64.57437872886658,86.8590235710144 67.14920997619629,87.09462285041809 67.14920997619629,87.09462285041809 69.46756839752197,87.75895833969116 69.46756839752197,87.75895833969116 71.43530249595642,88.78832459449768 71.43530249595642,88.78832459449768 72.95763492584229,90.11898040771484 72.95763492584229,90.11898040771484 73.94042015075684,91.68729782104492 73.94042015075684,91.68729782104492 74.28908348083496,93.4295117855072 74.28908348083496,93.4295117855072 73.67404103279114,95.17172574996948 73.67404103279114,95.17172574996948 71.93973660469055,96.7400074005127 71.93973660469055,96.7400074005127 69.25313472747803,98.07069897651672 69.25313472747803,98.07069897651672 65.780770778656,99.10004734992981 65.780770778656,99.10004734992981 61.689597368240356,99.76440072059631 61.689597368240356,99.76440072059631 57.146161794662476,100.0 57.146161794662476,100.0 39.4298791885376,100.0 39.4298791885376,100.0 34.885936975479126,99.76440072059631 34.885936975479126,99.76440072059631 30.794405937194824,99.10007119178772 30.794405937194824,99.10007119178772 27.321895956993103,98.07069897651672 27.321895956993103,98.07069897651672 24.635149538517,96.7400074005127 24.635149538517,96.7400074005127 22.900845110416412,95.17170786857605 22.900845110416412,95.17170786857605 22.28580117225647,93.4295117855072 22.28580117225647,93.4295117855072 22.634467482566833,91.68731570243835 22.634467482566833,91.68731570243835 23.617181181907654,90.11899828910828 23.617181181907654,90.11899828910828 25.13972818851471,88.78832459449768 25.13972818851471,88.78832459449768 27.107536792755127,87.75895833969116 27.107536792755127,87.75895833969116 29.426398873329163,87.09462285041809 29.426398873329163,87.09462285041809 32.001665234565735,86.8590235710144 32.001665234565735,86.8590235710144 34.576067328453064,86.54638528823853 34.576067328453064,86.54638528823853 36.89434826374054,85.66487431526184 36.89434826374054,85.66487431526184 38.862159848213196,84.29914116859436 38.862159848213196,84.29914116859436 40.38470685482025,82.53382444381714 40.38470685482025,82.53382444381714 41.367706656455994,80.45358061790466 41.367706656455994,80.45358061790466 41.71637296676636,78.14306616783142 41.71637296676636,78.14306616783142 41.72128736972809,77.82573699951172 41.72128736972809,77.82573699951172 41.73530340194702,77.511727809906 41.73530340194702,77.511727809906 41.758278012275696,77.2009551525116 41.758278012275696,77.2009551525116 41.78941547870636,76.89325213432312 41.78941547870636,76.89325213432312 41.82835817337036,76.58849358558655 41.82835817337036,76.58849358558655 41.87474250793457,76.28659009933472 41.87474250793457,76.28659009933472 6.857169419527054,76.28659009933472 6.857169419527054,76.28659009933472 5.034361034631729,76.04179382324219 5.034361034631729,76.04179382324219 3.3962901681661606,75.35085678100586 3.3962901681661606,75.35085678100586 2.008484862744808,74.27896857261658 2.008484862744808,74.27896857261658 0.9361851029098034,72.89131283760071 0.9361851029098034,72.89131283760071 0.24491955991834402,71.25306129455566 0.24491955991834402,71.25306129455566 0.0,69.42942142486572 0.0,69.42942142486572 0.0,6.857169419527054 0.0,6.857169419527054 0.24499180726706982,5.034324899315834 0.24499180726706982,5.034324899315834 0.9362573735415936,3.396308049559593 0.9362573735415936,3.396308049559593 2.008484862744808,2.008484862744808 2.008484862744808,2.008484862744808 3.3962178975343704,0.936239305883646 3.3962178975343704,0.936239305883646 5.034216493368149,0.24495567195117474 5.034216493368149,0.24495567195117474 6.857169419527054,0.0 6.857169419527054,0.0" stroke="white" stroke-width="0.1" /><polygon points="88.63226771354675,66.55107140541077 88.63226771354675,66.55107140541077 88.63226771354675,9.733204543590546 88.63226771354675,9.733204543590546 10.799001902341843,9.733204543590546 10.799001902341843,9.733204543590546 10.799001902341843,66.55107140541077 10.799001902341843,66.55107140541077" stroke="white" stroke-width="0.1" /></svg>