<?xml version="1.0" encoding="utf-8" ?>
<svg baseProfile="full" height="99.81352686882019" version="1.1" width="99.99468922615051" xmlns="http://www.w3.org/2000/svg" xmlns:ev="http://www.w3.org/2001/xml-events" xmlns:xlink="http://www.w3.org/1999/xlink"><defs><clipPath /></defs><polygon points="76.70983672142029,0.0 76.70983672142029,0.0 76.70983672142029,0.0 76.70983672142029,0.0 79.20670509338379,0.13636143412441015 79.20670509338379,0.13636143412441015 81.66682720184326,0.5404346622526646 81.66682720184326,0.5404346622526646 84.06606316566467,1.20447538793087 84.06606316566467,1.20447538793087 86.38041019439697,2.1205872297286987 86.38041019439697,2.1205872297286987 88.58649134635925,3.2816335558891296 88.58649134635925,3.2816335558891296 90.66060781478882,4.679413884878159 90.66060781478882,4.679413884878159 94.36362981796265,8.201426267623901 94.36362981796265,8.201426267623901 96.90909385681152,12.130548804998398 96.90909385681152,12.130548804998398 98.51308465003967,16.398601233959198 98.51308465003967,16.398601233959198 99.39108490943909,20.93694657087326 99.39108490943909,20.93694657087326 99.75977540016174,25.677555799484253 99.75977540016174,25.677555799484253 99.83478784561157,30.552250146865845 99.83478784561157,30.552250146865845 99.83478784561157,62.788212299346924 99.83478784561157,62.788212299346924 99.90357756614685,66.8637216091156 99.90357756614685,66.8637216091156 99.99468922615051,71.06070518493652 99.99468922615051,71.06070518493652 99.93561506271362,75.28942823410034 99.93561506271362,75.28942823410034 99.55310821533203,79.45953607559204 99.55310821533203,79.45953607559204 98.67480397224426,83.48098397254944 98.67480397224426,83.48098397254944 97.12821245193481,87.26402521133423 97.12821245193481,87.26402521133423 95.02614736557007,90.50405025482178 95.02614736557007,90.50405025482178 92.43330955505371,93.32664608955383 92.43330955505371,93.32664608955383 89.42515850067139,95.68168520927429 89.42515850067139,95.68168520927429 86.07549667358398,97.5184679031372 86.07549667358398,97.5184679031372 82.4602484703064,98.78671765327454 82.4602484703064,98.78671765327454 78.65351438522339,99.43633675575256 78.65351438522339,99.43633675575256 77.41259932518005,99.5140790939331 77.41259932518005,99.5140790939331 76.1648416519165,99.54885244369507 76.1648416519165,99.54885244369507 74.91375207901001,99.55386519432068 74.91375207901001,99.55386519432068 73.66204857826233,99.5414137840271 73.66204857826233,99.5414137840271 72.4133849143982,99.52486157417297 72.4133849143982,99.52486157417297 71.17034196853638,99.51651096343994 71.17034196853638,99.51651096343994 39.57093358039856,99.51651096343994 39.57093358039856,99.51651096343994 35.74491739273071,99.59456324577332 35.74491739273071,99.59456324577332 31.743362545967102,99.73851442337036 31.743362545967102,99.73851442337036 27.66466736793518,99.81352686882019 27.66466736793518,99.81352686882019 23.607686161994934,99.68476295471191 23.607686161994934,99.68476295471191 19.671730697155,99.2178201675415 19.671730697155,99.2178201675415 15.955197811126709,98.27741384506226 15.955197811126709,98.27741384506226 12.441689521074295,96.73066735267639 12.441689521074295,96.73066735267639 9.255873411893845,94.63498592376709 9.255873411893845,94.63498592376709 6.4590975642204285,92.05641746520996 6.4590975642204285,92.05641746520996 4.11316491663456,89.06147480010986 4.11316491663456,89.06147480010986 2.280637249350548,85.71697473526001 2.280637249350548,85.71697473526001 1.0228625498712063,82.08897113800049 1.0228625498712063,82.08897113800049 0.6939551793038845,80.50517439842224 0.6939551793038845,80.50517439842224 0.4860722925513983,78.91637086868286 0.4860722925513983,78.91637086868286 0.3717291634529829,77.32300758361816 0.3717291634529829,77.32300758361816 0.3235926618799567,75.7243275642395 0.3235926618799567,75.7243275642395 0.3149372059851885,74.12063479423523 0.3149372059851885,74.12063479423523 0.31827790662646294,72.51148223876953 0.31827790662646294,72.51148223876953 0.31827790662646294,41.874197125434875 0.31827790662646294,41.874197125434875 0.2573859877884388,38.1635844707489 0.2573859877884388,38.1635844707489 0.13028742978349328,34.37781035900116 0.13028742978349328,34.37781035900116 0.021259021013975143,30.55710792541504 0.021259021013975143,30.55710792541504 0.013514663442038,26.74020230770111 0.013514663442038,26.74020230770111 0.19163488177582622,22.96687960624695 0.19163488177582622,22.96687960624695 0.638985401019454,19.276465475559235 0.638985401019454,19.276465475559235 2.4132024496793747,13.431449234485626 2.4132024496793747,13.431449234485626 5.4596200585365295,8.624936640262604 5.4596200585365295,8.624936640262604 9.556233137845993,4.867708310484886 9.556233137845993,4.867708310484886 14.480733871459961,2.170545980334282 14.480733871459961,2.170545980334282 20.01141905784607,0.5443827714771032 20.01141905784607,0.5443827714771032 25.926285982131958,0.0 25.926285982131958,0.0" stroke="white" stroke-width="0.1" /><polygon points="50.0765323638916,35.907092690467834 50.0765323638916,35.907092690467834 50.0765323638916,35.907092690467834 50.0765323638916,35.907092690467834 53.7792444229126,33.21995139122009 53.7792444229126,33.21995139122009 57.48196244239807,30.532053112983704 57.48196244239807,30.532053112983704 61.18467450141907,27.844154834747314 61.18467450141907,27.844154834747314 64.88708257675171,25.155797600746155 64.88708257675171,25.155797600746155 68.58994960784912,22.46759533882141 68.58994960784912,22.46759533882141 72.29281663894653,19.779393076896667 72.29281663894653,19.779393076896667 72.94136881828308,19.297875463962555 72.94136881828308,19.297875463962555 73.54785799980164,18.79722625017166 73.54785799980164,18.79722625017166 74.09436702728271,18.25481653213501 74.09436702728271,18.25481653213501 74.56191182136536,17.64756888151169 74.56191182136536,17.64756888151169 74.93303418159485,16.952550411224365 74.93303418159485,16.952550411224365 75.18890500068665,16.147136688232422 75.18890500068665,16.147136688232422 75.25177001953125,14.377778768539429 75.25177001953125,14.377778768539429 74.71239566802979,12.780618667602539 74.71239566802979,12.780618667602539 73.68983626365662,11.466508358716965 73.68983626365662,11.466508358716965 72.3025381565094,10.54568886756897 72.3025381565094,10.54568886756897 70.66999673843384,10.129467397928238 70.66999673843384,10.129467397928238 68.910813331604,10.32823920249939 68.910813331604,10.32823920249939 67.11229681968689,11.079593747854233 67.11229681968689,11.079593747854233 65.32912254333496,12.15742602944374 65.32912254333496,12.15742602944374 63.579654693603516,13.442990183830261 63.579654693603516,13.442990183830261 61.88136339187622,14.815562963485718 61.88136339187622,14.815562963485718 60.25261878967285,16.15624874830246 60.25261878967285,16.15624874830246 58.71133804321289,17.344930768013 58.71133804321289,17.344930768013 57.837748527526855,18.02613139152527 57.837748527526855,18.02613139152527 56.24028444290161,19.28679049015045 56.24028444290161,19.28679049015045 54.28764224052429,20.79557329416275 54.28764224052429,20.79557329416275 52.34805941581726,22.22038358449936 52.34805941581726,22.22038358449936 50.790685415267944,23.229731619358063 50.790685415267944,23.229731619358063 49.98420774936676,23.49182516336441 49.98420774936676,23.49182516336441 39.21135067939758,15.738964080810547 39.21135067939758,15.738964080810547 37.65397667884827,14.528870582580566 37.65397667884827,14.528870582580566 35.87535619735718,13.115297257900238 35.87535619735718,13.115297257900238 33.94397497177124,11.751379072666168 33.94397497177124,11.751379072666168 31.928011775016785,10.689643025398254 31.928011775016785,10.689643025398254 29.89671230316162,10.183829814195633 29.89671230316162,10.183829814195633 27.918559312820435,10.486163944005966 27.918559312820435,10.486163944005966 26.359665393829346,11.47470772266388 26.359665393829346,11.47470772266388 25.377196073532104,12.828148901462555 25.377196073532104,12.828148901462555 24.950192868709564,14.402379095554352 24.950192868709564,14.402379095554352 25.057855248451233,16.05314165353775 25.057855248451233,16.05314165353775 25.680136680603027,17.636938393115997 25.680136680603027,17.636938393115997 26.79608464241028,19.00920867919922 26.79608464241028,19.00920867919922 27.151110768318176,19.308504462242126 27.151110768318176,19.308504462242126 27.5261789560318,19.592009484767914 27.5261789560318,19.592009484767914 27.91370153427124,19.864732027053833 27.91370153427124,19.864732027053833 28.30577790737152,20.130924880504608 28.30577790737152,20.130924880504608 28.695577383041382,20.395904779434204 28.695577383041382,20.395904779434204 29.075050354003906,20.66376805305481 29.075050354003906,20.66376805305481 32.575803995132446,23.204220831394196 32.575803995132446,23.204220831394196 36.07594966888428,25.74467360973358 36.07594966888428,25.74467360973358 39.575791358947754,28.285428881645203 39.575791358947754,28.285428881645203 43.07548105716705,30.825883150100708 43.07548105716705,30.825883150100708 46.57562971115112,33.36663842201233 46.57562971115112,33.36663842201233" stroke="white" stroke-width="0.1" /><polygon points="33.16164314746857,34.47119891643524 33.16164314746857,34.47119891643524 33.16164314746857,34.47119891643524 33.16164314746857,34.47119891643524 29.84432280063629,34.9276602268219 29.84432280063629,34.9276602268219 26.843461394309998,36.211249232292175 26.843461394309998,36.211249232292175 24.286912381649017,38.19517195224762 24.286912381649017,38.19517195224762 22.302383184432983,40.750959515571594 22.302383184432983,40.750959515571594 21.018186211586,43.751367926597595 21.018186211586,43.751367926597595 20.56172490119934,47.06868529319763 20.56172490119934,47.06868529319763 21.018338203430176,50.386154651641846 21.018338203430176,50.386154651641846 22.30253517627716,53.3868670463562 22.30253517627716,53.3868670463562 24.286912381649017,55.9434175491333 24.286912381649017,55.9434175491333 26.843157410621643,57.9276442527771 26.843157410621643,57.9276442527771 29.844170808792114,59.211987257003784 29.844170808792114,59.211987257003784 33.16164314746857,59.66860055923462 33.16164314746857,59.66860055923462 36.47865653038025,59.211987257003784 36.47865653038025,59.211987257003784 39.47860896587372,57.92718529701233 39.47860896587372,57.92718529701233 42.0339435338974,55.94250559806824 42.0339435338974,55.94250559806824 44.01695430278778,53.38565111160278 44.01695430278778,53.38565111160278 45.30054330825806,50.38493871688843 45.30054330825806,50.38493871688843 45.75670063495636,47.06868529319763 45.75670063495636,47.06868529319763 45.30054330825806,43.752431869506836 45.30054330825806,43.752431869506836 44.01710629463196,40.75217545032501 44.01710629463196,40.75217545032501 42.0339435338974,38.196080923080444 42.0339435338974,38.196080923080444 39.47845697402954,36.211857199668884 39.47845697402954,36.211857199668884 36.47865653038025,34.9276602268219 36.47865653038025,34.9276602268219" stroke="white" stroke-width="0.1" /><polygon points="67.00114607810974,34.47119891643524 67.00114607810974,34.47119891643524 67.00114607810974,34.47119891643524 67.00114607810974,34.47119891643524 63.68352174758911,34.9276602268219 63.68352174758911,34.9276602268219 60.6814444065094,36.211249232292175 60.6814444065094,36.211249232292175 58.123981952667236,38.19517195224762 58.123981952667236,38.19517195224762 56.13824129104614,40.750959515571594 56.13824129104614,40.750959515571594 54.85298037528992,43.751367926597595 54.85298037528992,43.751367926597595 54.39636707305908,47.06868529319763 54.39636707305908,47.06868529319763 54.85328435897827,50.386154651641846 54.85328435897827,50.386154651641846 56.13839030265808,53.3868670463562 56.13839030265808,53.3868670463562 58.123981952667236,55.9434175491333 58.123981952667236,55.9434175491333 60.6814444065094,57.9276442527771 60.6814444065094,57.9276442527771 63.68321776390076,59.211987257003784 63.68321776390076,59.211987257003784 67.00114607810974,59.66860055923462 67.00114607810974,59.66860055923462 70.31648755073547,59.211987257003784 70.31648755073547,59.211987257003784 73.31598401069641,57.92718529701233 73.31598401069641,57.92718529701233 75.87162256240845,55.94250559806824 75.87162256240845,55.94250559806824 77.85524129867554,53.38565111160278 77.85524129867554,53.38565111160278 79.13943529129028,50.38493871688843 79.13943529129028,50.38493871688843 79.59620356559753,47.06868529319763 79.59620356559753,47.06868529319763 79.13973927497864,43.752431869506836 79.13973927497864,43.752431869506836 77.85539031028748,40.75217545032501 77.85539031028748,40.75217545032501 75.87162256240845,38.196080923080444 75.87162256240845,38.196080923080444 73.31582903862,36.211857199668884 73.31582903862,36.211857199668884 70.31618356704712,34.9276602268219 70.31618356704712,34.9276602268219" stroke="white" stroke-width="0.1" /><polygon points="50.0765323638916,65.17651081085205 50.0765323638916,65.17651081085205 50.0765323638916,65.17651081085205 50.0765323638916,65.17651081085205 44.33568716049194,65.56950211524963 44.33568716049194,65.56950211524963 38.71237337589264,66.65385961532593 38.71237337589264,66.65385961532593 33.264899253845215,68.39300394058228 33.264899253845215,68.39300394058228 28.05112600326538,70.75047492980957 28.05112600326538,70.75047492980957 23.129965364933014,73.69044423103333 23.129965364933014,73.69044423103333 18.559731543064117,77.17632055282593 18.559731543064117,77.17632055282593 17.21646636724472,78.32081317901611 17.21646636724472,78.32081317901611 15.826581418514252,79.60166931152344 15.826581418514252,79.60166931152344 14.573968946933746,81.01964592933655 14.573968946933746,81.01964592933655 13.642673194408417,82.57489204406738 13.642673194408417,82.57489204406738 13.217340409755707,84.26817655563354 13.217340409755707,84.26817655563354 13.481862843036652,86.10024452209473 13.481862843036652,86.10024452209473 14.41209763288498,87.71896958351135 14.41209763288498,87.71896958351135 15.755970776081085,88.77372145652771 15.755970776081085,88.77372145652771 17.35404133796692,89.27148580551147 17.35404133796692,89.27148580551147 19.047170877456665,89.21788334846497 19.047170877456665,89.21788334846497 20.676371455192566,88.61958980560303 20.676371455192566,88.61958980560303 22.082655131816864,87.48269081115723 22.082655131816864,87.48269081115723 22.60562777519226,86.91310286521912 22.60562777519226,86.91310286521912 23.151224851608276,86.36188507080078 23.151224851608276,86.36188507080078 23.715348541736603,85.82752346992493 23.715348541736603,85.82752346992493 24.293896555900574,85.30789017677307 24.293896555900574,85.30789017677307 24.88337904214859,84.80177521705627 24.88337904214859,84.80177521705627 25.479239225387573,84.307199716568 25.479239225387573,84.307199716568 32.01016187667847,79.91600036621094 32.01016187667847,79.91600036621094 39.089569449424744,76.93973779678345 39.089569449424744,76.93973779678345 46.51170074939728,75.43095350265503 46.51170074939728,75.43095350265503 54.07094955444336,75.44143199920654 54.07094955444336,75.44143199920654 61.56202554702759,77.02385783195496 61.56202554702759,77.02385783195496 68.77961158752441,80.23032546043396 68.77961158752441,80.23032546043396 70.51374316215515,81.30907416343689 70.51374316215515,81.30907416343689 72.14795351028442,82.46981501579285 72.14795351028442,82.46981501579285 73.70805740356445,83.69858264923096 73.70805740356445,83.69858264923096 75.22003054618835,84.9806547164917 75.22003054618835,84.9806547164917 76.71089768409729,86.3019049167633 76.71089768409729,86.3019049167633 78.206467628479,87.64790296554565 78.206467628479,87.64790296554565 80.02092838287354,88.99542093276978 80.02092838287354,88.99542093276978 82.06741213798523,89.34953808784485 82.06741213798523,89.34953808784485 84.06120538711548,88.84842991828918 84.06120538711548,88.84842991828918 85.71743369102478,87.62968182563782 85.71743369102478,87.62968182563782 86.75198554992676,85.83192825317383 86.75198554992676,85.83192825317383 86.8801474571228,83.59289765357971 86.8801474571228,83.59289765357971 86.69945001602173,82.89726972579956 86.69945001602173,82.89726972579956 86.42581105232239,82.26603269577026 86.42581105232239,82.26603269577026 86.07594966888428,81.68626427650452 86.07594966888428,81.68626427650452 85.66564917564392,81.14385604858398 85.66564917564392,81.14385604858398 85.21237969398499,80.6257426738739 85.21237969398499,80.6257426738739 84.73238348960876,80.1185667514801 84.73238348960876,80.1185667514801 79.94667291641235,75.79113841056824 79.94667291641235,75.79113841056824 74.63100552558899,72.13276624679565 74.63100552558899,72.13276624679565 68.88590455055237,69.19264197349548 68.88590455055237,69.19264197349548 62.81144618988037,67.02027916908264 62.81144618988037,67.02027916908264 56.508296728134155,65.66516757011414 56.508296728134155,65.66516757011414" stroke="white" stroke-width="0.1" /></svg>