<?xml version="1.0" encoding="utf-8" ?>
<svg baseProfile="full" height="65.87189435958862" version="1.1" width="65.8961296081543" xmlns="http://www.w3.org/2000/svg" xmlns:ev="http://www.w3.org/2001/xml-events" xmlns:xlink="http://www.w3.org/1999/xlink"><defs><clipPath /></defs><polygon points="50.00559687614441,34.10201072692871 50.00559687614441,34.10201072692871 54.226166009902954,34.67036187648773 54.226166009902954,34.67036187648773 58.02106261253357,36.27358376979828 58.02106261253357,36.27358376979828 61.23793125152588,38.75974118709564 61.23793125152588,38.75974118709564 63.72420787811279,41.97585582733154 63.72420787811279,41.97585582733154 65.32777547836304,45.76975703239441 65.32777547836304,45.76975703239441 65.8961296081543,49.9888151884079 65.8961296081543,49.9888151884079 65.7598078250885,52.088963985443115 65.7598078250885,52.088963985443115 65.35637974739075,54.125964641571045 65.35637974739075,54.125964641571045 64.69417810440063,56.07919096946716 64.69417810440063,56.07919096946716 63.78117799758911,57.92779326438904 63.78117799758911,57.92779326438904 62.62560486793518,59.65172052383423 62.62560486793518,59.65172052383423 61.23560070991516,61.23000979423523 61.23560070991516,61.23000979423523 59.65801477432251,62.61336803436279 59.65801477432251,62.61336803436279 57.936298847198486,63.76393437385559 57.936298847198486,63.76393437385559 56.090378761291504,64.6736741065979 56.090378761291504,64.6736741065979 54.13994789123535,65.3338372707367 54.13994789123535,65.3338372707367 52.105164527893066,65.73603749275208 52.105164527893066,65.73603749275208 50.00559687614441,65.87189435958862 50.00559687614441,65.87189435958862 45.78566253185272,65.30377268791199 45.78566253185272,65.30377268791199 41.98966324329376,63.700902462005615 41.98966324329376,63.700902462005615 38.770925998687744,61.21602654457092 38.770925998687744,61.21602654457092 36.28220558166504,58.000731468200684 36.28220558166504,58.000731468200684 34.676769375801086,54.20776009559631 34.676769375801086,54.20776009559631 34.10760462284088,49.9888151884079 34.10760462284088,49.9888151884079 34.67671275138855,45.7696408033371 34.67671275138855,45.7696408033371 36.28220558166504,41.97573959827423 36.28220558166504,41.97573959827423 38.770925998687744,38.75974118709564 38.770925998687744,38.75974118709564 41.9897198677063,36.27369999885559 41.9897198677063,36.27369999885559 45.78571915626526,34.67036187648773 45.78571915626526,34.67036187648773" stroke="white" stroke-width="0.1" /></svg>