<?xml version="1.0" encoding="utf-8" ?>
<svg baseProfile="full" height="52.98672318458557" version="1.1" width="57.47218132019043" xmlns="http://www.w3.org/2000/svg" xmlns:ev="http://www.w3.org/2001/xml-events" xmlns:xlink="http://www.w3.org/1999/xlink"><defs><clipPath /></defs><polygon points="49.99880492687225,52.98672318458557 49.99880492687225,52.98672318458557 48.012369871139526,52.71678566932678 48.012369871139526,52.71678566932678 46.228063106536865,51.9620418548584 46.228063106536865,51.9620418548584 44.71638202667236,50.79347491264343 44.71638202667236,50.79347491264343 43.547919392585754,49.281397461891174 43.547919392585754,49.281397461891174 42.793574929237366,47.49709069728851 42.793574929237366,47.49709069728851 42.523837089538574,45.5109566450119 42.523837089538574,45.5109566450119 42.793673276901245,43.52472126483917 42.793673276901245,43.52472126483917 43.54802072048187,41.74031615257263 43.54802072048187,41.74031615257263 44.71638202667236,40.22843539714813 44.71638202667236,40.22843539714813 46.227964758872986,39.05967473983765 46.227964758872986,39.05967473983765 48.012369871139526,38.30512762069702 48.012369871139526,38.30512762069702 49.99880492687225,38.03519308567047 49.99880492687225,38.03519308567047 51.9853413105011,38.30512762069702 51.9853413105011,38.30512762069702 53.76984477043152,39.059773087501526 53.76984477043152,39.059773087501526 55.28162717819214,40.22843539714813 55.28162717819214,40.22843539714813 56.449687480926514,41.740214824676514 56.449687480926514,41.740214824676514 57.20343589782715,43.52472126483917 57.20343589782715,43.52472126483917 57.47218132019043,45.5109566450119 57.47218132019043,45.5109566450119 57.203638553619385,47.49719202518463 57.203638553619385,47.49719202518463 56.44978880882263,49.28149878978729 56.44978880882263,49.28149878978729 55.28162717819214,50.79347491264343 55.28162717819214,50.79347491264343 53.76984477043152,51.96194052696228 53.76984477043152,51.96194052696228 51.98523998260498,52.716684341430664 51.98523998260498,52.716684341430664" stroke="white" stroke-width="0.1" /></svg>