<?xml version="1.0" encoding="utf-8" ?>
<svg baseProfile="full" height="67.62451529502869" version="1.1" width="100.0" xmlns="http://www.w3.org/2000/svg" xmlns:ev="http://www.w3.org/2001/xml-events" xmlns:xlink="http://www.w3.org/1999/xlink"><defs><clipPath /></defs><polygon points="22.696533799171448,67.1276867389679 22.696533799171448,67.1276867389679 21.784591674804688,67.45010614395142 21.784591674804688,67.45010614395142 20.840339362621307,67.60181784629822 20.840339362621307,67.60181784629822 19.88884061574936,67.58453249931335 19.88884061574936,67.58453249931335 18.95492523908615,67.39975214004517 18.95492523908615,67.39975214004517 18.063698709011078,67.04918146133423 18.063698709011078,67.04918146133423 17.239990830421448,66.534423828125 17.239990830421448,66.534423828125 16.876716911792755,66.22940301895142 16.876716911792755,66.22940301895142 16.53602570295334,65.89416861534119 16.53602570295334,65.89416861534119 16.212692856788635,65.5377209186554 16.212692856788635,65.5377209186554 15.901489555835724,65.16903042793274 15.901489555835724,65.16903042793274 15.597306191921234,64.79721069335938 15.597306191921234,64.79721069335938 15.294800698757172,64.43115472793579 15.294800698757172,64.43115472793579 14.37351256608963,63.3344292640686 14.37351256608963,63.3344292640686 13.451842963695526,62.23781704902649 13.451842963695526,62.23781704902649 12.52998411655426,61.14135980606079 12.52998411655426,61.14135980606079 11.60789504647255,60.04486083984375 11.60789504647255,60.04486083984375 10.685806721448898,58.94829034805298 10.685806721448898,58.94829034805298 9.763794392347336,57.85156488418579 9.763794392347336,57.85156488418579 9.388809651136398,57.39890933036804 9.388809651136398,57.39890933036804 9.03041884303093,56.94209933280945 9.03041884303093,56.94209933280945 8.697815239429474,56.47231936454773 8.697815239429474,56.47231936454773 8.399925380945206,55.98060488700867 8.399925380945206,55.98060488700867 8.145981281995773,55.458223819732666 8.145981281995773,55.458223819732666 7.944946736097336,54.896241426467896 7.944946736097336,54.896241426467896 7.72552490234375,53.793638944625854 7.72552490234375,53.793638944625854 7.7037811279296875,52.67338156700134 7.7037811279296875,52.67338156700134 7.874985039234161,51.56814455986023 7.874985039234161,51.56814455986023 8.234291523694992,50.51056146621704 8.234291523694992,50.51056146621704 8.777008205652237,49.53346252441406 8.777008205652237,49.53346252441406 9.498291462659836,48.66943359375 9.498291462659836,48.66943359375 7.540931552648544,48.50967526435852 7.540931552648544,48.50967526435852 5.6891631335020065,47.94914424419403 5.6891631335020065,47.94914424419403 4.001465067267418,47.026824951171875 4.001465067267418,47.026824951171875 2.5360871106386185,45.781707763671875 2.5360871106386185,45.781707763671875 1.3514709658920765,44.25285458564758 1.3514709658920765,44.25285458564758 0.5059814546257257,42.47924983501434 0.5059814546257257,42.47924983501434 0.09021759033203125,40.7614141702652 0.09021759033203125,40.7614141702652 0.010986328561557457,39.015960693359375 0.010986328561557457,39.015960693359375 0.2561950823292136,37.29385435581207 0.2561950823292136,37.29385435581207 0.8135223761200905,35.645827651023865 0.8135223761200905,35.645827651023865 1.6709519550204277,34.122925996780396 1.6709519550204277,34.122925996780396 2.816162072122097,32.77587890625 2.816162072122097,32.77587890625 4.2018890380859375,31.678506731987 4.2018890380859375,31.678506731987 5.75355552136898,30.875015258789062 5.75355552136898,30.875015258789062 7.419891655445099,30.375823378562927 7.419891655445099,30.375823378562927 9.149551391601562,30.19096553325653 9.149551391601562,30.19096553325653 10.891380161046982,30.330848693847656 10.891380161046982,30.330848693847656 12.593995034694672,30.805665254592896 12.593995034694672,30.805665254592896 14.336204528808594,31.712722778320312 14.336204528808594,31.712722778320312 15.822449326515198,32.95017182826996 15.822449326515198,32.95017182826996 17.0155331492424,34.4583123922348 17.0155331492424,34.4583123922348 17.8782656788826,36.17740571498871 17.8782656788826,36.17740571498871 18.37364286184311,38.04779052734375 18.37364286184311,38.04779052734375 18.464355170726776,40.009766817092896 18.464355170726776,40.009766817092896 18.757514655590057,39.75246548652649 18.757514655590057,39.75246548652649 19.066505134105682,39.518433809280396 19.066505134105682,39.518433809280396 19.389648735523224,39.30709958076477 19.389648735523224,39.30709958076477 19.725151360034943,39.11754786968231 19.725151360034943,39.11754786968231 20.0714111328125,38.94920349121094 20.0714111328125,38.94920349121094 20.426635444164276,38.801270723342896 20.426635444164276,38.801270723342896 21.01684659719467,39.605712890625 21.01684659719467,39.605712890625 21.012039482593536,39.68036770820618 21.012039482593536,39.68036770820618 21.007423102855682,39.7543340921402 21.007423102855682,39.7543340921402 21.003036201000214,39.827728271484375 21.003036201000214,39.827728271484375 20.998764038085938,39.90058898925781 20.998764038085938,39.90058898925781 20.99464386701584,39.97306823730469 20.99464386701584,39.97306823730469 20.990601181983948,40.045166015625 20.990601181983948,40.045166015625 20.980262756347656,40.21472930908203 20.980262756347656,40.21472930908203 20.970039069652557,40.38402736186981 20.970039069652557,40.38402736186981 20.959778130054474,40.55313169956207 20.959778130054474,40.55313169956207 20.9492489695549,40.721893310546875 20.9492489695549,40.721893310546875 20.938454568386078,40.89031219482422 20.938454568386078,40.89031219482422 20.927123725414276,41.058349609375 20.927123725414276,41.058349609375 19.882813096046448,56.24756217002869 19.882813096046448,56.24756217002869 19.834594428539276,56.94336295127869 19.834594428539276,56.94336295127869 19.813919067382812,58.80287289619446 19.813919067382812,58.80287289619446 20.004157721996307,60.61779260635376 20.004157721996307,60.61779260635376 20.39649933576584,62.37289309501648 20.39649933576584,62.37289309501648 20.9819033741951,64.05300498008728 20.9819033741951,64.05300498008728 21.751557290554047,65.64300656318665 21.751557290554047,65.64300656318665" stroke="white" stroke-width="0.1" /><polygon points="94.6246325969696,46.09253108501434 94.6246325969696,46.09253108501434 96.14944458007812,46.98677062988281 96.14944458007812,46.98677062988281 97.46028780937195,48.142242431640625 97.46028780937195,48.142242431640625 98.529052734375,49.51492249965668 98.529052734375,49.51492249965668 99.32735562324524,51.06052756309509 99.32735562324524,51.06052756309509 99.82711672782898,52.73521542549133 99.82711672782898,52.73521542549133 100.0,54.49463129043579 100.0,54.49463129043579 99.82715845108032,56.25404715538025 99.82715845108032,56.25404715538025 99.32743310928345,57.92865753173828 99.32743310928345,57.92865753173828 98.529052734375,59.474337100982666 98.529052734375,59.474337100982666 97.46025204658508,60.84694266319275 97.46025204658508,60.84694266319275 96.14936709403992,62.00248599052429 96.14936709403992,62.00248599052429 94.6246325969696,62.896728515625 94.6246325969696,62.896728515625 92.76214838027954,63.52035403251648 92.76214838027954,63.52035403251648 90.8398449420929,63.730013370513916 90.8398449420929,63.730013370513916 88.9264702796936,63.5406494140625 88.9264702796936,63.5406494140625 87.09056973457336,62.967151403427124 87.09056973457336,62.967151403427124 85.40100455284119,62.02446222305298 85.40100455284119,62.02446222305298 83.9263916015625,60.72754263877869 83.9263916015625,60.72754263877869 83.77181887626648,61.99809908866882 83.77181887626648,61.99809908866882 83.355712890625,63.19713592529297 83.355712890625,63.19713592529297 82.70851373672485,64.28756713867188 82.70851373672485,64.28756713867188 81.86046481132507,65.23216366767883 81.86046481132507,65.23216366767883 80.84217309951782,65.99392294883728 80.84217309951782,65.99392294883728 79.68384027481079,66.5356457233429 79.68384027481079,66.5356457233429 79.12269830703735,66.6949450969696 79.12269830703735,66.6949450969696 78.54545712471008,66.80221557617188 78.54545712471008,66.80221557617188 77.95814871788025,66.87103509902954 77.95814871788025,66.87103509902954 77.36648917198181,66.91474914550781 77.36648917198181,66.91474914550781 76.77665948867798,66.94698333740234 76.77665948867798,66.94698333740234 76.1944591999054,66.9812023639679 76.1944591999054,66.9812023639679 75.86036920547485,67.0048177242279 75.86036920547485,67.0048177242279 75.52627921104431,67.02808737754822 75.52627921104431,67.02808737754822 75.1922607421875,67.05108880996704 75.1922607421875,67.05108880996704 74.85817074775696,67.07382202148438 74.85817074775696,67.07382202148438 74.52415823936462,67.09656119346619 74.52415823936462,67.09656119346619 74.1900622844696,67.1191394329071 74.1900622844696,67.1191394329071 75.13321042060852,65.63575863838196 75.13321042060852,65.63575863838196 75.90099573135376,64.04731869697571 75.90099573135376,64.04731869697571 76.48483514785767,62.368929386138916 76.48483514785767,62.368929386138916 76.87584161758423,60.61573028564453 76.87584161758423,60.61573028564453 77.06535458564758,58.80298614501953 77.06535458564758,58.80298614501953 77.044677734375,56.94580078125 77.044677734375,56.94580078125 76.84265375137329,53.999024629592896 76.84265375137329,53.999024629592896 76.01684927940369,41.99707210063934 76.01684927940369,41.99707210063934 76.20331048965454,42.0095831155777 76.20331048965454,42.0095831155777 76.38980746269226,42.022401094436646 76.38980746269226,42.022401094436646 76.57638788223267,42.03552305698395 76.57638788223267,42.03552305698395 76.76300406455994,42.04857051372528 76.76300406455994,42.04857051372528 76.94980502128601,42.0615017414093 76.94980502128601,42.0615017414093 77.13684439659119,42.07397401332855 77.13684439659119,42.07397401332855 77.72285342216492,42.11864471435547 77.72285342216492,42.11864471435547 78.30039858818054,42.178040742874146 78.30039858818054,42.178040742874146 78.86955142021179,42.265015840530396 78.86955142021179,42.265015840530396 79.4302761554718,42.39223599433899 79.4302761554718,42.39223599433899 79.9826443195343,42.572519183158875 79.9826443195343,42.572519183158875 80.5267333984375,42.81860291957855 80.5267333984375,42.81860291957855 81.47209286689758,43.42697262763977 81.47209286689758,43.42697262763977 82.29271173477173,44.18960511684418 82.29271173477173,44.18960511684418 82.96859860420227,45.08056640625 82.96859860420227,45.08056640625 83.47949981689453,46.073609590530396 83.47949981689453,46.073609590530396 83.80550742149353,47.142717242240906 83.80550742149353,47.142717242240906 83.9263916015625,48.261719942092896 83.9263916015625,48.261719942092896 85.40107607841492,46.964797377586365 85.40107607841492,46.964797377586365 87.09060549736023,46.02211117744446 87.09060549736023,46.02211117744446 88.9264702796936,45.44861018657684 88.9264702796936,45.44861018657684 90.8398449420929,45.25921046733856 90.8398449420929,45.25921046733856 92.7621066570282,45.46886384487152 92.7621066570282,45.46886384487152" stroke="white" stroke-width="0.1" /><polygon points="71.42333984375,57.331544160842896 71.42333984375,57.331544160842896 71.39922976493835,59.09835696220398 71.39922976493835,59.09835696220398 71.0854709148407,60.806238651275635 71.0854709148407,60.806238651275635 70.48744559288025,62.41516470909119 70.48744559288025,62.41516470909119 69.61029171943665,63.88484835624695 69.61029171943665,63.88484835624695 68.45932006835938,65.17532467842102 68.45932006835938,65.17532467842102 67.0397937297821,66.2463366985321 67.0397937297821,66.2463366985321 66.5142834186554,66.54159426689148 66.5142834186554,66.54159426689148 65.9820556640625,66.79142117500305 65.9820556640625,66.79142117500305 65.44342041015625,66.99966788291931 65.44342041015625,66.99966788291931 64.89845514297485,67.1701431274414 64.89845514297485,67.1701431274414 64.34730887413025,67.30675101280212 64.34730887413025,67.30675101280212 63.79028558731079,67.413330078125 63.79028558731079,67.413330078125 63.46282958984375,67.476886510849 63.46282958984375,67.476886510849 63.13102841377258,67.52937436103821 63.13102841377258,67.52937436103821 62.79503107070923,67.57065057754517 62.79503107070923,67.57065057754517 62.45487332344055,67.6003634929657 62.45487332344055,67.6003634929657 62.11075186729431,67.61841177940369 62.11075186729431,67.61841177940369 61.762696504592896,67.62451529502869 61.762696504592896,67.62451529502869 60.51574945449829,67.62451529502869 60.51574945449829,67.62451529502869 48.59069883823395,67.62451529502869 48.59069883823395,67.62451529502869 48.289185762405396,67.62451529502869 48.289185762405396,67.62451529502869 36.36352717876434,67.62451529502869 36.36352717876434,67.62451529502869 35.11718809604645,67.62451529502869 35.11718809604645,67.62451529502869 34.76951718330383,67.61844754219055 34.76951718330383,67.61844754219055 34.42550599575043,67.60040521621704 34.42550599575043,67.60040521621704 34.085312485694885,67.57065057754517 34.085312485694885,67.57065057754517 33.749085664749146,67.52937436103821 33.749085664749146,67.52937436103821 33.41712951660156,67.47684478759766 33.41712951660156,67.47684478759766 33.08959901332855,67.413330078125 33.08959901332855,67.413330078125 32.532501220703125,67.30682253837585 32.532501220703125,67.30682253837585 31.98123872280121,67.17018485069275 31.98123872280121,67.17018485069275 31.4361572265625,66.99966788291931 31.4361572265625,66.99966788291931 30.897292494773865,66.79134368896484 30.897292494773865,66.79134368896484 30.365028977394104,66.54152274131775 30.365028977394104,66.54152274131775 29.839476943016052,66.2463366985321 29.839476943016052,66.2463366985321 28.420183062553406,65.17540216445923 28.420183062553406,65.17540216445923 27.269363403320312,63.884925842285156 27.269363403320312,63.884925842285156 26.392364501953125,62.41516470909119 26.392364501953125,62.41516470909119 25.794336199760437,60.80619692802429 25.794336199760437,60.80619692802429 25.48065185546875,59.09828543663025 25.48065185546875,59.09828543663025 25.456544756889343,57.331544160842896 25.456544756889343,57.331544160842896 25.638732314109802,54.6844482421875 25.638732314109802,54.6844482421875 25.82084834575653,52.03739404678345 25.82084834575653,52.03739404678345 26.00296139717102,49.390411376953125 26.00296139717102,49.390411376953125 26.184922456741333,46.743470430374146 26.184922456741333,46.743470430374146 26.366767287254333,44.09679472446442 26.366767287254333,44.09679472446442 26.548463106155396,41.450196504592896 26.548463106155396,41.450196504592896 26.588746905326843,40.827637910842896 26.588746905326843,40.827637910842896 26.62586271762848,40.199014544487 26.62586271762848,40.199014544487 26.664581894874573,39.56665098667145 26.664581894874573,39.56665098667145 26.709482073783875,38.932570815086365 26.709482073783875,38.932570815086365 26.76525115966797,38.29917907714844 26.76525115966797,38.29917907714844 26.836547255516052,37.66845762729645 26.836547255516052,37.66845762729645 26.64390504360199,37.49938905239105 26.64390504360199,37.49938905239105 26.454851031303406,37.32452392578125 26.454851031303406,37.32452392578125 26.27052366733551,37.142640352249146 26.27052366733551,37.142640352249146 26.091882586479187,36.95236146450043 26.091882586479187,36.95236146450043 25.92010498046875,36.75251007080078 25.92010498046875,36.75251007080078 25.756224989891052,36.541748046875 25.756224989891052,36.541748046875 6.918945163488388,10.858154296875 6.918945163488388,10.858154296875 6.026153638958931,9.242554008960724 6.026153638958931,9.242554008960724 5.586471781134605,7.525444030761719 5.586471781134605,7.525444030761719 5.588226392865181,5.796508863568306 5.588226392865181,5.796508863568306 6.0195159167051315,4.145240783691406 6.0195159167051315,4.145240783691406 6.868667900562286,2.6613617315888405 6.868667900562286,2.6613617315888405 8.123779296875,1.434326171875 8.123779296875,1.434326171875 8.699073642492294,1.0595321655273438 8.699073642492294,1.0595321655273438 9.300308674573898,0.754814175888896 9.300308674573898,0.754814175888896 9.922561794519424,0.5194091703742743 9.922561794519424,0.5194091703742743 10.560645908117294,0.35228729248046875 10.560645908117294,0.35228729248046875 11.209716647863388,0.25268555618822575 11.209716647863388,0.25268555618822575 11.864624172449112,0.2197265625 11.864624172449112,0.2197265625 12.914887070655823,0.30384063720703125 12.914887070655823,0.30384063720703125 13.946571946144104,0.5524826236069202 13.946571946144104,0.5524826236069202 14.939041435718536,0.961914099752903 14.939041435718536,0.961914099752903 15.871505439281464,1.5283966436982155 15.871505439281464,1.5283966436982155 16.723327338695526,2.248230017721653 16.723327338695526,2.248230017721653 17.47375577688217,3.117675893008709 17.47375577688217,3.117675893008709 35.81481873989105,28.139647841453552 35.81481873989105,28.139647841453552 35.95932126045227,28.11836302280426 35.95932126045227,28.11836302280426 36.105042695999146,28.102150559425354 36.105042695999146,28.102150559425354 36.251601576805115,28.089600801467896 36.251601576805115,28.089600801467896 36.398544907569885,28.07903289794922 36.398544907569885,28.07903289794922 36.5457147359848,28.06900143623352 36.5457147359848,28.06900143623352 36.692506074905396,28.057861328125 36.692506074905396,28.057861328125 36.73725128173828,28.05275022983551 36.73725128173828,28.05275022983551 36.78173124790192,28.04825007915497 36.78173124790192,28.04825007915497 36.82609498500824,28.04412841796875 36.82609498500824,28.04412841796875 36.870384216308594,28.04020047187805 36.870384216308594,28.04020047187805 36.91471219062805,28.03630828857422 36.91471219062805,28.03630828857422 36.95922791957855,28.032228350639343 36.95922791957855,28.032228350639343 37.03949153423309,28.025588393211365 37.03949153423309,28.025588393211365 37.119293212890625,28.016433119773865 37.119293212890625,28.016433119773865 37.19894587993622,28.00644040107727 37.19894587993622,28.00644040107727 37.27867305278778,27.997133135795593 37.27867305278778,27.997133135795593 37.358781695365906,27.990150451660156 37.358781695365906,27.990150451660156 37.43957579135895,27.987059950828552 37.43957579135895,27.987059950828552 35.180434584617615,25.420379638671875 35.180434584617615,25.420379638671875 33.53820741176605,22.478942573070526 33.53820741176605,22.478942573070526 32.53898620605469,19.28253173828125 32.53898620605469,19.28253173828125 32.208824157714844,15.950813889503479 32.208824157714844,15.950813889503479 32.573890686035156,12.603531777858734 32.573890686035156,12.603531777858734 33.66027772426605,9.360351413488388 33.66027772426605,9.360351413488388 35.21808683872223,6.705398857593536 35.21808683872223,6.705398857593536 37.23037838935852,4.422760009765625 37.23037838935852,4.422760009765625 39.62043821811676,2.561645582318306 39.62043821811676,2.561645582318306 42.31140315532684,1.1713027954101562 42.31140315532684,1.1713027954101562 45.22659480571747,0.3009796142578125 45.22659480571747,0.3009796142578125 48.289185762405396,0.0 48.289185762405396,0.0 48.3145147562027,0.000534057608092553 48.3145147562027,0.000534057608092553 48.33965301513672,0.001945495569088962 48.33965301513672,0.001945495569088962 48.36486876010895,0.003814697265625 48.36486876010895,0.003814697265625 48.39000701904297,0.005760193016612902 48.39000701904297,0.005760193016612902 48.4152227640152,0.007476806786144152 48.4152227640152,0.007476806786144152 48.4405517578125,0.008544921729480848 48.4405517578125,0.008544921729480848 48.46527278423309,0.007476806786144152 48.46527278423309,0.007476806786144152 48.490068316459656,0.005798339770990424 48.490068316459656,0.005798339770990424 48.51493835449219,0.003814697265625 48.51493835449219,0.003814697265625 48.53988587856293,0.0019073486328125 48.53988587856293,0.0019073486328125 48.565179109573364,0.000534057608092553 48.565179109573364,0.000534057608092553 48.59069883823395,0.0 48.59069883823395,0.0 51.653289794921875,0.3010559128597379 51.653289794921875,0.3010559128597379 54.568445682525635,1.1713409796357155 54.568445682525635,1.1713409796357155 57.25944638252258,2.561645582318306 57.25944638252258,2.561645582318306 59.64946746826172,4.4226836413145065 59.64946746826172,4.4226836413145065 61.66176199913025,6.705360859632492 61.66176199913025,6.705360859632492 63.21960687637329,9.360351413488388 63.21960687637329,9.360351413488388 64.3057644367218,12.603569030761719 64.3057644367218,12.603569030761719 64.6707534790039,15.950851142406464 64.6707534790039,15.950851142406464 64.34066891670227,19.28253173828125 64.34066891670227,19.28253173828125 63.34148645401001,22.47890532016754 63.34148645401001,22.47890532016754 61.699408292770386,25.42034089565277 61.699408292770386,25.42034089565277 59.440308809280396,27.987059950828552 59.440308809280396,27.987059950828552 59.52110290527344,27.99018919467926 59.52110290527344,27.99018919467926 59.6011757850647,27.997133135795593 59.6011757850647,27.997133135795593 59.68086123466492,28.00644040107727 59.68086123466492,28.00644040107727 59.76036190986633,28.016433119773865 59.76036190986633,28.016433119773865 59.83997583389282,28.0255526304245 59.83997583389282,28.0255526304245 59.920042753219604,28.032228350639343 59.920042753219604,28.032228350639343 59.9648654460907,28.036347031593323 59.9648654460907,28.036347031593323 60.00953912734985,28.04020047187805 60.00953912734985,28.04020047187805 60.054171085357666,28.04412841796875 60.054171085357666,28.04412841796875 60.0986123085022,28.048211336135864 60.0986123085022,28.048211336135864 60.143011808395386,28.05275022983551 60.143011808395386,28.05275022983551 60.18738150596619,28.057861328125 60.18738150596619,28.057861328125 60.33405661582947,28.069040179252625 60.33405661582947,28.069040179252625 60.48084497451782,28.079071640968323 60.48084497451782,28.079071640968323 60.62759757041931,28.089600801467896 60.62759757041931,28.089600801467896 60.7740044593811,28.102150559425354 60.7740044593811,28.102150559425354 60.91991662979126,28.118324279785156 60.91991662979126,28.118324279785156 61.06506586074829,28.139647841453552 61.06506586074829,28.139647841453552 79.4055163860321,3.117675893008709 79.4055163860321,3.117675893008709 80.15590906143188,2.2481536492705345 80.15590906143188,2.2481536492705345 81.0076892375946,1.5281296335160732 81.0076892375946,1.5281296335160732 81.94023370742798,0.9614563547074795 81.94023370742798,0.9614563547074795 82.93266296386719,0.5519104190170765 82.93266296386719,0.5519104190170765 83.96438956260681,0.3033828688785434 83.96438956260681,0.3033828688785434 85.0146472454071,0.2197265625 85.0146472454071,0.2197265625 85.66978573799133,0.2527618547901511 85.66978573799133,0.2527618547901511 86.31882071495056,0.3523254534229636 86.31882071495056,0.3523254534229636 86.95694208145142,0.5194091703742743 86.95694208145142,0.5194091703742743 87.57904171943665,0.7547759916633368 87.57904171943665,0.7547759916633368 88.18020224571228,1.059494074434042 88.18020224571228,1.059494074434042 88.7554943561554,1.434326171875 88.7554943561554,1.434326171875 90.01068472862244,2.6613617315888405 90.01068472862244,2.6613617315888405 90.85987210273743,4.14527915418148 90.85987210273743,4.14527915418148 91.29135012626648,5.796508863568306 91.29135012626648,5.796508863568306 91.29318594932556,7.525406032800674 91.29318594932556,7.525406032800674 90.85365533828735,9.242477267980576 90.85365533828735,9.242477267980576 89.9609386920929,10.858154296875 89.9609386920929,10.858154296875 71.12365961074829,36.541748046875 71.12365961074829,36.541748046875 70.95977663993835,36.752548813819885 70.95977663993835,36.752548813819885 70.78796625137329,36.95236146450043 70.78796625137329,36.95236146450043 70.60936093330383,37.14248836040497 70.60936093330383,37.14248836040497 70.42495608329773,37.32414245605469 70.42495608329773,37.32414245605469 70.23597955703735,37.49862611293793 70.23597955703735,37.49862611293793 70.04333734512329,37.66723573207855 70.04333734512329,37.66723573207855 70.1141357421875,38.29849362373352 70.1141357421875,38.29849362373352 70.16968131065369,38.932305574417114 70.16968131065369,38.932305574417114 70.21453976631165,39.56649899482727 70.21453976631165,39.56649899482727 70.25322318077087,40.19893705844879 70.25322318077087,40.19893705844879 70.29048800468445,40.82756042480469 70.29048800468445,40.82756042480469 70.330810546875,41.450196504592896 70.330810546875,41.450196504592896" stroke="white" stroke-width="0.1" /></svg>