<?xml version="1.0" encoding="utf-8" ?>
<svg baseProfile="full" height="71.93281650543213" version="1.1" width="100.0" xmlns="http://www.w3.org/2000/svg" xmlns:ev="http://www.w3.org/2001/xml-events" xmlns:xlink="http://www.w3.org/1999/xlink"><defs><clipPath /></defs><polygon points="5.84496296942234,71.93281650543213 5.84496296942234,71.93281650543213 4.2949192225933075,71.72303199768066 4.2949192225933075,71.72303199768066 2.8997328132390976,71.13134264945984 2.8997328132390976,71.13134264945984 1.7160257324576378,70.21479606628418 1.7160257324576378,70.21479606628418 0.8003644645214081,69.0298080444336 0.8003644645214081,69.0298080444336 0.20950960461050272,67.63353943824768 0.20950960461050272,67.63353943824768 0.0,66.0825252532959 0.0,66.0825252532959 0.0,5.850289762020111 0.0,5.850289762020111 0.20956508815288544,4.300772771239281 0.20956508815288544,4.300772771239281 0.8004199713468552,2.904837392270565 0.8004199713468552,2.904837392270565 1.7160257324576378,1.7196876928210258 1.7160257324576378,1.7196876928210258 2.899705059826374,0.8023063652217388 2.899705059826374,0.8023063652217388 4.294891655445099,0.21006446331739426 4.294891655445099,0.21006446331739426 5.84496296942234,0.0 5.84496296942234,0.0 94.15149092674255,0.0 94.15149092674255,0.0 95.70183753967285,0.2101754304021597 95.70183753967285,0.2101754304021597 97.09766507148743,0.802417378872633 97.09766507148743,0.802417378872633 98.28220009803772,1.7196876928210258 98.28220009803772,1.7196876928210258 99.19858574867249,2.904781885445118 99.19858574867249,2.904781885445118 99.79016184806824,4.300717264413834 99.79016184806824,4.300717264413834 100.0,5.850289762020111 100.0,5.850289762020111 100.0,66.0825252532959 100.0,66.0825252532959 99.79016184806824,67.63365268707275 99.79016184806824,67.63365268707275 99.19863939285278,69.02992129325867 99.19863939285278,69.02992129325867 98.28220009803772,70.21479606628418 98.28220009803772,70.21479606628418 97.09760546684265,71.13134264945984 97.09760546684265,71.13134264945984 95.70172429084778,71.72297239303589 95.70172429084778,71.72297239303589 94.15149092674255,71.93281650543213 94.15149092674255,71.93281650543213" stroke="white" stroke-width="0.1" /><polygon points="65.3066337108612,65.49838781356812 65.3066337108612,65.49838781356812 73.14742803573608,64.44196105003357 73.14742803573608,64.44196105003357 80.19923567771912,61.461442708969116 80.19923567771912,61.461442708969116 86.17814183235168,56.84013366699219 86.17814183235168,56.84013366699219 90.8002257347107,50.86101293563843 90.8002257347107,50.86101293563843 93.7816858291626,43.80759298801422 93.7816858291626,43.80759298801422 94.83860731124878,35.96285879611969 94.83860731124878,35.96285879611969 93.7816858291626,28.12250554561615 93.7816858291626,28.12250554561615 90.8002257347107,21.071085333824158 90.8002257347107,21.071085333824158 86.17814183235168,15.092571079730988 86.17814183235168,15.092571079730988 80.19918203353882,10.470709204673767 80.19918203353882,10.470709204673767 73.14742803573608,7.489469647407532 73.14742803573608,7.489469647407532 65.3066337108612,6.432655453681946 65.3066337108612,6.432655453681946 57.46655464172363,7.489524781703949 57.46655464172363,7.489524781703949 50.41513442993164,10.470709204673767 50.41513442993164,10.470709204673767 44.43623423576355,15.092571079730988 44.43623423576355,15.092571079730988 39.81359601020813,21.07103019952774 39.81359601020813,21.07103019952774 36.83124482631683,28.122448921203613 36.83124482631683,28.122448921203613 35.77287793159485,35.96285879611969 35.77287793159485,35.96285879611969 36.83002591133118,43.807706236839294 36.83002591133118,43.807706236839294 39.81209695339203,50.86112022399902 39.81209695339203,50.86112022399902 44.43490207195282,56.84013366699219 44.43490207195282,56.84013366699219 50.41430592536926,61.461442708969116 50.41430592536926,61.461442708969116 57.466280460357666,64.44196105003357 57.466280460357666,64.44196105003357" stroke="white" stroke-width="0.1" /><polygon points="65.3066337108612,60.81992983818054 65.3066337108612,60.81992983818054 58.70630145072937,59.93117690086365 58.70630145072937,59.93117690086365 52.771174907684326,57.42344260215759 52.771174907684326,57.42344260215759 47.73978292942047,53.5348117351532 47.73978292942047,53.5348117351532 43.85059475898743,48.50308299064636 43.85059475898743,48.50308299064636 41.34219586849213,42.56651699542999 41.34219586849213,42.56651699542999 40.45310914516449,35.96285879611969 40.45310914516449,35.96285879611969 41.342249512672424,29.365745186805725 41.342249512672424,29.365745186805725 43.85065138339996,23.43156337738037 43.85065138339996,23.43156337738037 47.73978292942047,18.399782478809357 47.73978292942047,18.399782478809357 52.77112126350403,14.509429037570953 52.77112126350403,14.509429037570953 58.70630145072937,11.999918520450592 58.70630145072937,11.999918520450592 65.3066337108612,11.110223829746246 65.3066337108612,11.110223829746246 71.90623879432678,11.99997365474701 71.90623879432678,11.99997365474701 77.84103155136108,14.50948417186737 77.84103155136108,14.50948417186737 82.87259340286255,18.399782478809357 82.87259340286255,18.399782478809357 86.76244616508484,23.43156337738037 86.76244616508484,23.43156337738037 89.27229046821594,29.36563491821289 89.27229046821594,29.36563491821289 90.16370177268982,35.96285879611969 90.16370177268982,35.96285879611969 89.27417397499084,42.56657063961029 89.27417397499084,42.56657063961029 86.76483035087585,48.5031396150589 86.76483035087585,48.5031396150589 82.87459015846252,53.5348117351532 82.87459015846252,53.5348117351532 77.8421401977539,57.423388957977295 77.8421401977539,57.423388957977295 71.90657258033752,59.93112325668335 71.90657258033752,59.93112325668335" stroke="white" stroke-width="0.1" /><polygon points="65.3066337108612,51.995670795440674 65.3066337108612,51.995670795440674 69.56251859664917,51.42185091972351 69.56251859664917,51.42185091972351 73.38917255401611,49.80308711528778 73.38917255401611,49.80308711528778 76.63302421569824,47.293686866760254 76.63302421569824,47.293686866760254 79.14025783538818,44.04767453670502 79.14025783538818,44.04767453670502 80.75740933418274,40.219298005104065 80.75740933418274,40.219298005104065 81.3305675983429,35.96285879611969 81.3305675983429,35.96285879611969 81.1930775642395,33.84667634963989 81.1930775642395,33.84667634963989 80.7862639427185,31.79413676261902 80.7862639427185,31.79413676261902 80.1187813282013,29.826045036315918 80.1187813282013,29.826045036315918 79.19912934303284,27.96265184879303 79.19912934303284,27.96265184879303 78.03600430488586,26.225045323371887 78.03600430488586,26.225045323371887 76.63790583610535,24.633358418941498 76.63790583610535,24.633358418941498 75.042724609375,23.234760761260986 75.042724609375,23.234760761260986 73.30322861671448,22.070972621440887 73.30322861671448,22.070972621440887 71.43967151641846,21.15081697702408 71.43967151641846,21.15081697702408 69.47218775749207,20.482783019542694 69.47218775749207,20.482783019542694 67.42109060287476,20.075637102127075 67.42109060287476,20.075637102127075 65.3066337108612,19.938035309314728 65.3066337108612,19.938035309314728 61.051857471466064,20.511801540851593 61.051857471466064,20.511801540851593 57.225197553634644,22.13006317615509 57.225197553634644,22.13006317615509 53.98068428039551,24.6386855840683 53.98068428039551,24.6386855840683 51.47239565849304,27.883145213127136 51.47239565849304,27.883145213127136 49.85446631908417,31.70935809612274 49.85446631908417,31.70935809612274 49.28092062473297,35.96285879611969 49.28092062473297,35.96285879611969 49.854519963264465,40.2194082736969 49.854519963264465,40.2194082736969 51.47244930267334,44.047731161117554 51.47244930267334,44.047731161117554 53.98068428039551,47.293686866760254 53.98068428039551,47.293686866760254 57.225197553634644,49.803030490875244 57.225197553634644,49.803030490875244 61.051857471466064,51.42185091972351 61.051857471466064,51.42185091972351" stroke="white" stroke-width="0.1" /></svg>