<?xml version="1.0" encoding="utf-8" ?>
<svg baseProfile="full" height="80.19647598266602" version="1.1" width="100.0" xmlns="http://www.w3.org/2000/svg" xmlns:ev="http://www.w3.org/2001/xml-events" xmlns:xlink="http://www.w3.org/1999/xlink"><defs><clipPath /></defs><polygon points="92.64352321624756,32.09882378578186 92.64352321624756,32.09882378578186 94.5932388305664,31.115838885307312 94.5932388305664,31.115838885307312 96.34885787963867,30.83951771259308 96.34885787963867,30.83951771259308 97.83891439437866,31.231722235679626 97.83891439437866,31.231722235679626 98.99182319641113,32.2538286447525 98.99182319641113,32.2538286447525 99.73602890968323,33.86799693107605 99.73602890968323,33.86799693107605 100.0,36.0355019569397 100.0,36.0355019569397 100.0,71.11469507217407 100.0,71.11469507217407 99.73602890968323,73.28220009803772 99.73602890968323,73.28220009803772 98.99182319641113,74.89597201347351 98.99182319641113,74.89597201347351 97.83891439437866,75.91817378997803 97.83891439437866,75.91817378997803 96.34882807731628,76.31018161773682 96.34882807731628,76.31018161773682 94.5932149887085,76.0339617729187 94.5932149887085,76.0339617729187 92.64352321624756,75.05137324333191 92.64352321624756,75.05137324333191 74.65620040893555,63.057976961135864 74.65620040893555,63.057976961135864 74.65620040893555,72.1034049987793 74.65620040893555,72.1034049987793 74.36582446098328,74.24858212471008 74.36582446098328,74.24858212471008 73.54713678359985,76.17987394332886 73.54713678359985,76.17987394332886 72.27886319160461,77.81913876533508 72.27886319160461,77.81913876533508 70.63962817192078,79.08733487129211 70.63962817192078,79.08733487129211 68.70816349983215,79.90602850914001 68.70816349983215,79.90602850914001 66.56312942504883,80.19647598266602 66.56312942504883,80.19647598266602 8.093070238828659,80.19647598266602 8.093070238828659,80.19647598266602 5.948041006922722,79.90622520446777 5.948041006922722,79.90622520446777 4.016551747918129,79.08733487129211 4.016551747918129,79.08733487129211 2.3773394525051117,77.81913876533508 2.3773394525051117,77.81913876533508 1.1090430431067944,76.17977857589722 1.1090430431067944,76.17977857589722 0.29035075567662716,74.24838542938232 0.29035075567662716,74.24838542938232 0.0,72.1034049987793 0.0,72.1034049987793 0.0,35.04599630832672 0.0,35.04599630832672 0.08602344896644354,33.88014733791351 0.08602344896644354,33.88014733791351 0.33535067923367023,32.767054438591 0.33535067923367023,32.767054438591 0.7350151892751455,31.717681884765625 0.7350151892751455,31.717681884765625 1.271902211010456,30.742603540420532 1.271902211010456,30.742603540420532 1.9330207258462906,29.8528790473938 1.9330207258462906,29.8528790473938 2.705330029129982,29.05918061733246 2.705330029129982,29.05918061733246 1.934230886399746,27.59517729282379 1.934230886399746,27.59517729282379 1.286424696445465,26.06162130832672 1.286424696445465,26.06162130832672 0.7694936823099852,24.464941024780273 0.7694936823099852,24.464941024780273 0.39089666679501534,22.810958325862885 0.39089666679501534,22.810958325862885 0.15826536109670997,21.106000244617462 0.15826536109670997,21.106000244617462 0.07903389050625265,19.35618966817856 0.07903389050625265,19.35618966817856 0.77045694924891,14.210589230060577 0.77045694924891,14.210589230060577 2.721729502081871,9.586711972951889 2.721729502081871,9.586711972951889 5.748332291841507,5.669298395514488 5.748332291841507,5.669298395514488 9.665795415639877,2.642596885561943 9.665795415639877,2.642596885561943 14.289574325084686,0.6913489662110806 14.289574325084686,0.6913489662110806 19.435223937034607,0.0 19.435223937034607,0.0 23.418135941028595,0.4111737944185734 23.418135941028595,0.4111737944185734 27.117910981178284,1.5885811299085617 27.117910981178284,1.5885811299085617 30.45234978199005,3.449038788676262 30.45234978199005,3.449038788676262 33.33930969238281,5.908672511577606 33.33930969238281,5.908672511577606 35.69669425487518,8.88419970870018 35.69669425487518,8.88419970870018 37.44230568408966,12.29214072227478 37.44230568408966,12.29214072227478 39.18791711330414,8.884397149085999 39.18791711330414,8.884397149085999 41.54527485370636,5.908771231770515 41.54527485370636,5.908771231770515 44.43225860595703,3.449038788676262 44.43225860595703,3.449038788676262 47.76670038700104,1.5885811299085617 47.76670038700104,1.5885811299085617 51.46644711494446,0.4109762143343687 51.46644711494446,0.4109762143343687 55.449384450912476,0.0 55.449384450912476,0.0 60.595035552978516,0.6914477329701185 60.595035552978516,0.6914477329701185 65.21881222724915,2.6426956057548523 65.21881222724915,2.6426956057548523 69.13627982139587,5.669298395514488 69.13627982139587,5.669298395514488 72.16285467147827,9.586711972951889 72.16285467147827,9.586711972951889 74.11412596702576,14.210392534732819 74.11412596702576,14.210392534732819 74.80557560920715,19.35618966817856 74.80557560920715,19.35618966817856 74.72385168075562,21.131587028503418 74.72385168075562,21.131587028503418 74.48400855064392,22.86045402288437 74.48400855064392,22.86045402288437 74.09407496452332,24.5367631316185 74.09407496452332,24.5367631316185 73.56197834014893,26.153796911239624 73.56197834014893,26.153796911239624 72.895747423172,27.70562469959259 72.895747423172,27.70562469959259 72.1034049987793,29.18563485145569 72.1034049987793,29.18563485145569 72.83504009246826,29.972416162490845 72.83504009246826,29.972416162490845 73.45967888832092,30.848705768585205 73.45967888832092,30.848705768585205 73.96574020385742,31.80462121963501 73.96574020385742,31.80462121963501 74.34157133102417,32.829493284225464 74.34157133102417,32.829493284225464 74.57558512687683,33.91334414482117 74.57558512687683,33.91334414482117 74.65620040893555,35.04599630832672 74.65620040893555,35.04599630832672 74.65620040893555,44.09142732620239 74.65620040893555,44.09142732620239" stroke="white" stroke-width="0.1" /></svg>