<?xml version="1.0" encoding="utf-8" ?>
<svg baseProfile="full" height="32.90596008300781" version="1.1" width="99.99732971191406" xmlns="http://www.w3.org/2000/svg" xmlns:ev="http://www.w3.org/2001/xml-events" xmlns:xlink="http://www.w3.org/1999/xlink"><defs><clipPath /></defs><polygon points="98.70948791503906,17.96112060546875 98.70948791503906,17.96112060546875 99.02763366699219,18.131303787231445 99.02763366699219,18.131303787231445 99.33497905731201,18.28594207763672 99.33497905731201,18.28594207763672 99.60861206054688,18.474388122558594 99.60861206054688,18.474388122558594 99.82550144195557,18.745803833007812 99.82550144195557,18.745803833007812 99.96273517608643,19.1495418548584 99.96273517608643,19.1495418548584 99.99732971191406,19.734954833984375 99.99732971191406,19.734954833984375 99.97167587280273,20.4373836517334 99.97167587280273,20.4373836517334 99.94451999664307,21.12560272216797 99.94451999664307,21.12560272216797 99.91865158081055,21.749019622802734 99.91865158081055,21.749019622802734 99.89676475524902,22.256994247436523 99.89676475524902,22.256994247436523 99.88164901733398,22.598934173583984 99.88164901733398,22.598934173583984 99.87602233886719,22.724151611328125 99.87602233886719,22.724151611328125 99.86467361450195,22.753524780273438 99.86467361450195,22.753524780273438 99.83375072479248,22.829389572143555 99.83375072479248,22.829389572143555 99.78799819946289,22.933626174926758 99.78799819946289,22.933626174926758 99.73211288452148,23.047924041748047 99.73211288452148,23.047924041748047 99.6708631515503,23.154258728027344 99.6708631515503,23.154258728027344 99.60899353027344,23.23436737060547 99.60899353027344,23.23436737060547 99.56119060516357,23.388147354125977 99.56119060516357,23.388147354125977 99.53575134277344,23.678970336914062 99.53575134277344,23.678970336914062 99.52659606933594,24.033260345458984 99.52659606933594,24.033260345458984 99.52757358551025,24.37734603881836 99.52757358551025,24.37734603881836 99.53269958496094,24.637794494628906 99.53269958496094,24.637794494628906 99.53575134277344,24.740982055664062 99.53575134277344,24.740982055664062 99.53241348266602,24.820756912231445 99.53241348266602,24.820756912231445 99.51701164245605,25.030803680419922 99.51701164245605,25.030803680419922 99.48139190673828,25.327205657958984 99.48139190673828,25.327205657958984 99.41737651824951,25.666141510009766 99.41737651824951,25.666141510009766 99.31690692901611,26.003742218017578 99.31690692901611,26.003742218017578 99.17182922363281,26.296234130859375 99.17182922363281,26.296234130859375 98.95977973937988,26.57780647277832 98.95977973937988,26.57780647277832 98.69251251220703,26.888418197631836 98.69251251220703,26.888418197631836 98.41184616088867,27.192306518554688 98.41184616088867,27.192306518554688 98.15957546234131,27.45366096496582 98.15957546234131,27.45366096496582 97.97756671905518,27.63676643371582 97.97756671905518,27.63676643371582 97.90763854980469,27.705764770507812 97.90763854980469,27.705764770507812 96.03691101074219,27.72998809814453 96.03691101074219,27.72998809814453 96.02060317993164,27.695941925048828 96.02060317993164,27.695941925048828 95.97113132476807,27.611207962036133 95.97113132476807,27.611207962036133 95.88794708251953,27.50225067138672 95.88794708251953,27.50225067138672 95.77023983001709,27.395248413085938 95.77023983001709,27.395248413085938 95.6174373626709,27.316570281982422 95.6174373626709,27.316570281982422 95.42884826660156,27.292633056640625 95.42884826660156,27.292633056640625 94.76892948150635,27.376651763916016 94.76892948150635,27.376651763916016 93.43726634979248,27.56795883178711 93.43726634979248,27.56795883178711 91.78695678710938,27.81200408935547 91.78695678710938,27.81200408935547 90.1710033416748,28.053951263427734 90.1710033416748,28.053951263427734 88.942551612854,28.23929786682129 88.942551612854,28.23929786682129 88.45462799072266,28.313255310058594 88.45462799072266,28.313255310058594 86.9710922241211,27.818679809570312 86.9710922241211,27.818679809570312 87.05863952636719,27.46438980102539 87.05863952636719,27.46438980102539 87.13130950927734,27.104520797729492 87.13130950927734,27.104520797729492 87.18867301940918,26.73940658569336 87.18867301940918,26.73940658569336 87.23022937774658,26.369333267211914 87.23022937774658,26.369333267211914 87.25550174713135,25.99468231201172 87.25550174713135,25.99468231201172 87.2640609741211,25.615692138671875 87.2640609741211,25.615692138671875 86.96146011352539,23.37021827697754 86.96146011352539,23.37021827697754 86.10777854919434,21.350765228271484 86.10777854919434,21.350765228271484 84.78431701660156,19.638729095458984 84.78431701660156,19.638729095458984 83.07220935821533,18.31512451171875 83.07220935821533,18.31512451171875 81.05278015136719,17.461490631103516 81.05278015136719,17.461490631103516 78.80725860595703,17.158889770507812 78.80725860595703,17.158889770507812 76.56171321868896,17.461490631103516 76.56171321868896,17.461490631103516 74.54228401184082,18.31521987915039 74.54228401184082,18.31521987915039 72.8302001953125,19.638729095458984 72.8302001953125,19.638729095458984 71.50671482086182,21.350765228271484 71.50671482086182,21.350765228271484 70.65303325653076,23.37017059326172 70.65303325653076,23.37017059326172 70.35045623779297,25.615692138671875 70.35045623779297,25.615692138671875 70.36862373352051,26.17039680480957 70.36862373352051,26.17039680480957 70.42217254638672,26.715469360351562 70.42217254638672,26.715469360351562 70.51000595092773,27.249908447265625 70.51000595092773,27.249908447265625 70.6308126449585,27.77256965637207 70.6308126449585,27.77256965637207 70.7834005355835,28.282642364501953 70.7834005355835,28.282642364501953 70.9665298461914,28.778839111328125 70.9665298461914,28.778839111328125 69.6218490600586,29.47978973388672 69.6218490600586,29.47978973388672 68.0521011352539,29.497575759887695 68.0521011352539,29.497575759887695 63.93272876739502,29.54092025756836 63.93272876739502,29.54092025756836 58.148789405822754,29.595088958740234 58.148789405822754,29.595088958740234 51.58519744873047,29.645156860351562 51.58519744873047,29.645156860351562 45.126914978027344,29.676437377929688 45.126914978027344,29.676437377929688 39.65892791748047,29.67395782470703 39.65892791748047,29.67395782470703 35.21871566772461,29.653549194335938 35.21871566772461,29.653549194335938 31.329989433288574,29.639863967895508 31.329989433288574,29.639863967895508 28.10688018798828,29.631567001342773 28.10688018798828,29.631567001342773 25.663423538208008,29.627227783203125 25.663423538208008,29.627227783203125 24.11370277404785,29.625701904296875 24.11370277404785,29.625701904296875 23.57177734375,29.625511169433594 23.57177734375,29.625511169433594 22.716140747070312,28.769683837890625 22.716140747070312,28.769683837890625 22.898197174072266,28.274822235107422 22.898197174072266,28.274822235107422 23.04987907409668,27.76622772216797 23.04987907409668,27.76622772216797 23.169994354248047,27.244949340820312 23.169994354248047,27.244949340820312 23.25725555419922,26.7120361328125 23.25725555419922,26.7120361328125 23.310542106628418,26.16863250732422 23.310542106628418,26.16863250732422 23.328590393066406,25.615692138671875 23.328590393066406,25.615692138671875 23.025989532470703,23.37021827697754 23.025989532470703,23.37021827697754 22.17237949371338,21.350765228271484 22.17237949371338,21.350765228271484 20.848941802978516,19.638729095458984 20.848941802978516,19.638729095458984 19.136905670166016,18.31512451171875 19.136905670166016,18.31512451171875 17.11750030517578,17.461490631103516 17.11750030517578,17.461490631103516 14.871978759765625,17.158889770507812 14.871978759765625,17.158889770507812 12.626433372497559,17.461490631103516 12.626433372497559,17.461490631103516 10.607051849365234,18.31521987915039 10.607051849365234,18.31521987915039 8.895015716552734,19.638729095458984 8.895015716552734,19.638729095458984 7.571554183959961,21.350765228271484 7.571554183959961,21.350765228271484 6.717967987060547,23.37017059326172 6.717967987060547,23.37017059326172 6.415367126464844,25.615692138671875 6.415367126464844,25.615692138671875 6.441044807434082,26.276683807373047 6.441044807434082,26.276683807373047 6.516742706298828,26.923847198486328 6.516742706298828,26.923847198486328 6.640505790710449,27.555370330810547 6.640505790710449,27.555370330810547 6.810331344604492,28.16920280456543 6.810331344604492,28.16920280456543 7.024288177490234,28.763723373413086 7.024288177490234,28.763723373413086 7.2803497314453125,29.336929321289062 7.2803497314453125,29.336929321289062 6.415557861328125,29.13951873779297 6.415557861328125,29.13951873779297 6.39653205871582,29.157257080078125 6.39653205871582,29.157257080078125 6.336307525634766,29.201602935791016 6.336307525634766,29.201602935791016 6.23016357421875,29.259443283081055 6.23016357421875,29.259443283081055 6.073403358459473,29.317617416381836 6.073403358459473,29.317617416381836 5.861377716064453,29.363059997558594 5.861377716064453,29.363059997558594 5.58929443359375,29.38251495361328 5.58929443359375,29.38251495361328 4.9811601638793945,29.371356964111328 4.9811601638793945,29.371356964111328 3.891754150390625,29.340553283691406 3.891754150390625,29.340553283691406 2.585005760192871,29.29983139038086 2.585005760192871,29.29983139038086 1.3248205184936523,29.25882339477539 1.3248205184936523,29.25882339477539 0.3751993179321289,29.227161407470703 0.3751993179321289,29.227161407470703 0.0,29.2144775390625 0.0,29.2144775390625 0.628662109375,28.704071044921875 0.628662109375,28.704071044921875 0.6524562835693359,28.399276733398438 0.6524562835693359,28.399276733398438 0.7097244262695312,27.63533592224121 0.7097244262695312,27.63533592224121 0.7793426513671875,26.637744903564453 0.7793426513671875,26.637744903564453 0.8400917053222656,25.63190460205078 0.8400917053222656,25.63190460205078 0.8708715438842773,24.843502044677734 0.8708715438842773,24.843502044677734 0.8504867553710938,24.49798583984375 0.8504867553710938,24.49798583984375 0.7726669311523438,24.426841735839844 0.7726669311523438,24.426841735839844 0.6985187530517578,24.358654022216797 0.6985187530517578,24.358654022216797 0.6286382675170898,24.291229248046875 0.6286382675170898,24.291229248046875 0.5636215209960938,24.222469329833984 0.5636215209960938,24.222469329833984 0.5041122436523438,24.15027618408203 0.5041122436523438,24.15027618408203 0.45070648193359375,24.07245635986328 0.45070648193359375,24.07245635986328 0.40454864501953125,23.98810386657715 0.40454864501953125,23.98810386657715 0.36547183990478516,23.894071578979492 0.36547183990478516,23.894071578979492 0.3340482711791992,23.78835678100586 0.3340482711791992,23.78835678100586 0.3108501434326172,23.668766021728516 0.3108501434326172,23.668766021728516 0.29654502868652344,23.53339195251465 0.29654502868652344,23.53339195251465 0.29163360595703125,23.380088806152344 0.29163360595703125,23.380088806152344 0.2894401550292969,22.998523712158203 0.2894401550292969,22.998523712158203 0.2861976623535156,22.54624366760254 0.2861976623535156,22.54624366760254 0.2870321273803711,22.07779884338379 0.2870321273803711,22.07779884338379 0.29697418212890625,21.64754867553711 0.29697418212890625,21.64754867553711 0.32117366790771484,21.31028175354004 0.32117366790771484,21.31028175354004 0.36468505859375,21.120262145996094 0.36468505859375,21.120262145996094 0.4264354705810547,21.04167938232422 0.4264354705810547,21.04167938232422 0.5059957504272461,20.990657806396484 0.5059957504272461,20.990657806396484 0.6091833114624023,20.949363708496094 0.6091833114624023,20.949363708496094 0.7416963577270508,20.90015411376953 0.7416963577270508,20.90015411376953 0.9093761444091797,20.82533836364746 0.9093761444091797,20.82533836364746 1.1178970336914062,20.707130432128906 1.1178970336914062,20.707130432128906 1.3430356979370117,20.550251007080078 1.3430356979370117,20.550251007080078 1.5499114990234375,20.35837173461914 1.5499114990234375,20.35837173461914 1.7284154891967773,20.11251449584961 1.7284154891967773,20.11251449584961 1.868438720703125,19.79360580444336 1.868438720703125,19.79360580444336 1.9598722457885742,19.382572174072266 1.9598722457885742,19.382572174072266 1.9926071166992188,18.860435485839844 1.9926071166992188,18.860435485839844 1.9736289978027344,18.263578414916992 1.9736289978027344,18.263578414916992 1.9539833068847656,17.65437126159668 1.9539833068847656,17.65437126159668 1.9896984100341797,17.052268981933594 1.9896984100341797,17.052268981933594 2.1367549896240234,16.47653579711914 2.1367549896240234,16.47653579711914 2.451181411743164,15.94686508178711 2.451181411743164,15.94686508178711 2.9890060424804688,15.482521057128906 2.9890060424804688,15.482521057128906 3.9045333862304688,14.982318878173828 3.9045333862304688,14.982318878173828 5.29935359954834,14.367866516113281 5.29935359954834,14.367866516113281 7.150483131408691,13.692665100097656 7.150483131408691,13.692665100097656 9.434962272644043,13.010120391845703 9.434962272644043,13.010120391845703 12.129878997802734,12.373876571655273 12.129878997802734,12.373876571655273 15.212249755859375,11.837387084960938 15.212249755859375,11.837387084960938 18.45231056213379,11.400222778320312 18.45231056213379,11.400222778320312 21.51346206665039,11.030006408691406 21.51346206665039,11.030006408691406 24.21281337738037,10.732364654541016 24.21281337738037,10.732364654541016 26.36737823486328,10.512828826904297 26.36737823486328,10.512828826904297 27.794289588928223,10.377025604248047 27.794289588928223,10.377025604248047 28.310585021972656,10.330581665039062 28.310585021972656,10.330581665039062 28.312277793884277,10.378646850585938 28.312277793884277,10.378646850585938 28.324079513549805,10.496187210083008 28.324079513549805,10.496187210083008 28.356146812438965,10.643482208251953 28.356146812438965,10.643482208251953 28.418564796447754,10.780572891235352 28.418564796447754,10.780572891235352 28.52151393890381,10.867786407470703 28.52151393890381,10.867786407470703 28.675079345703125,10.865211486816406 28.675079345703125,10.865211486816406 29.25581932067871,10.538387298583984 29.25581932067871,10.538387298583984 30.5020809173584,9.772729873657227 30.5020809173584,9.772729873657227 32.216858863830566,8.708667755126953 32.216858863830566,8.708667755126953 34.20295715332031,7.4866533279418945 34.20295715332031,7.4866533279418945 36.263370513916016,6.247091293334961 36.263370513916016,6.247091293334961 38.200950622558594,5.1303863525390625 38.200950622558594,5.1303863525390625 39.9106502532959,4.147768020629883 39.9106502532959,4.147768020629883 41.55886173248291,3.2312393188476562 41.55886173248291,3.2312393188476562 43.355631828308105,2.402520179748535 43.355631828308105,2.402520179748535 45.51079273223877,1.6831159591674805 45.51079273223877,1.6831159591674805 48.23439121246338,1.0947227478027344 48.23439121246338,1.0947227478027344 51.73625946044922,0.6589889526367188 51.73625946044922,0.6589889526367188 55.365872383117676,0.38623809814453125 55.365872383117676,0.38623809814453125 58.620405197143555,0.23789405822753906 58.620405197143555,0.23789405822753906 61.513328552246094,0.19872188568115234 61.513328552246094,0.19872188568115234 64.05792236328125,0.2535104751586914 64.05792236328125,0.2535104751586914 66.26765727996826,0.3872394561767578 66.26765727996826,0.3872394561767578 68.1558609008789,0.5846023559570312 68.1558609008789,0.5846023559570312 68.51377487182617,0.47020912170410156 68.51377487182617,0.47020912170410156 68.97945404052734,0.3331184387207031 68.97945404052734,0.3331184387207031 69.50726509094238,0.1959085464477539 69.50726509094238,0.1959085464477539 70.05147933959961,0.0810384750366211 70.05147933959961,0.0810384750366211 70.5664873123169,0.011181831359863281 70.5664873123169,0.011181831359863281 71.00658416748047,0.0087738037109375 71.00658416748047,0.0087738037109375 71.38094902038574,0.058913230895996094 71.38094902038574,0.058913230895996094 71.57166004180908,0.11849403381347656 71.57166004180908,0.11849403381347656 71.63820266723633,0.1970529556274414 71.63820266723633,0.1970529556274414 71.63989543914795,0.3039121627807617 71.63989543914795,0.3039121627807617 71.63629531860352,0.44863224029541016 71.63629531860352,0.44863224029541016 71.6867446899414,0.6406784057617188 71.6867446899414,0.6406784057617188 71.73182964324951,0.7491588592529297 71.73182964324951,0.7491588592529297 71.76709175109863,0.8486747741699219 71.76709175109863,0.8486747741699219 71.79374694824219,0.9391069412231445 71.79374694824219,0.9391069412231445 71.81284427642822,1.0203123092651367 71.81284427642822,1.0203123092651367 71.82564735412598,1.0922431945800781 71.82564735412598,1.0922431945800781 71.8332290649414,1.1547088623046875 71.8332290649414,1.1547088623046875 72.26698398590088,1.2390613555908203 72.26698398590088,1.2390613555908203 72.69582748413086,1.3285636901855469 72.69582748413086,1.3285636901855469 73.12049865722656,1.4240503311157227 73.12049865722656,1.4240503311157227 73.54156970977783,1.5262365341186523 73.54156970977783,1.5262365341186523 73.95975589752197,1.636052131652832 73.95975589752197,1.636052131652832 74.37572479248047,1.7541885375976562 74.37572479248047,1.7541885375976562 74.77073669433594,1.7724275588989258 74.77073669433594,1.7724275588989258 75.21018981933594,1.7966508865356445 75.21018981933594,1.7966508865356445 75.65326690673828,1.8268108367919922 75.65326690673828,1.8268108367919922 76.05907917022705,1.8628835678100586 76.05907917022705,1.8628835678100586 76.38676166534424,1.904916763305664 76.38676166534424,1.904916763305664 76.59549713134766,1.9529342651367188 76.59549713134766,1.9529342651367188 76.67169570922852,2.0097970962524414 76.67169570922852,2.0097970962524414 76.64315700531006,2.074575424194336 76.64315700531006,2.074575424194336 76.54204368591309,2.144765853881836 76.54204368591309,2.144765853881836 76.40044689178467,2.217864990234375 76.40044689178467,2.217864990234375 76.2505292892456,2.291536331176758 76.2505292892456,2.291536331176758 76.12438201904297,2.3632049560546875 76.12438201904297,2.3632049560546875 76.37090682983398,2.464604377746582 76.37090682983398,2.464604377746582 76.61807537078857,2.570199966430664 76.61807537078857,2.570199966430664 76.86610221862793,2.680325508117676 76.86610221862793,2.680325508117676 77.11505889892578,2.7951955795288086 77.11505889892578,2.7951955795288086 77.36520767211914,2.915167808532715 77.36520767211914,2.915167808532715 77.61669158935547,3.0405044555664062 77.61669158935547,3.0405044555664062 79.42914962768555,3.9902687072753906 79.42914962768555,3.9902687072753906 81.67498111724854,5.2032470703125 81.67498111724854,5.2032470703125 84.0139389038086,6.485104560852051 84.0139389038086,6.485104560852051 86.1057996749878,7.641363143920898 86.1057996749878,7.641363143920898 87.61043548583984,8.47773551940918 87.61043548583984,8.47773551940918 88.1875991821289,8.79974365234375 88.1875991821289,8.79974365234375 88.29121589660645,8.802652359008789 88.29121589660645,8.802652359008789 88.61148357391357,8.81500244140625 88.61148357391357,8.81500244140625 89.16261196136475,8.842277526855469 89.16261196136475,8.842277526855469 89.95873928070068,8.88967514038086 89.95873928070068,8.88967514038086 91.01405143737793,8.962821960449219 91.01405143737793,8.962821960449219 92.34275817871094,9.067153930664062 92.34275817871094,9.067153930664062 93.67873668670654,9.162330627441406 93.67873668670654,9.162330627441406 94.75212097167969,9.212923049926758 94.75212097167969,9.212923049926758 95.57170867919922,9.231138229370117 95.57170867919922,9.231138229370117 96.14622592926025,9.229087829589844 96.14622592926025,9.229087829589844 96.48454189300537,9.218883514404297 96.48454189300537,9.218883514404297 96.59538269042969,9.212875366210938 96.59538269042969,9.212875366210938 98.44245910644531,8.581161499023438 98.44245910644531,8.581161499023438 98.48566055297852,8.58464241027832 98.48566055297852,8.58464241027832 98.58551025390625,8.600950241088867 98.58551025390625,8.600950241088867 98.69747161865234,8.638858795166016 98.69747161865234,8.638858795166016 98.77698421478271,8.707046508789062 98.77698421478271,8.707046508789062 98.77958297729492,8.814477920532227 98.77958297729492,8.814477920532227 98.66065979003906,8.969879150390625 98.66065979003906,8.969879150390625 98.46811294555664,9.163713455200195 98.46811294555664,9.163713455200195 98.2856035232544,9.378480911254883 98.2856035232544,9.378480911254883 98.12326431274414,9.610748291015625 98.12326431274414,9.610748291015625 97.9912281036377,9.857177734375 97.9912281036377,9.857177734375 97.8996753692627,10.114479064941406 97.8996753692627,10.114479064941406 97.85881042480469,10.379219055175781 97.85881042480469,10.379219055175781 97.85292148590088,10.815906524658203 97.85292148590088,10.815906524658203 97.85840511322021,11.531352996826172 97.85840511322021,11.531352996826172 97.87464141845703,12.435770034790039 97.87464141845703,12.435770034790039 97.90089130401611,13.439369201660156 97.90089130401611,13.439369201660156 97.9365348815918,14.452457427978516 97.9365348815918,14.452457427978516 97.98088073730469,15.385246276855469 97.98088073730469,15.385246276855469 98.02465438842773,16.14818572998047 98.02465438842773,16.14818572998047 98.0724573135376,16.733503341674805 98.0724573135376,16.733503341674805 98.14462661743164,17.174434661865234 98.14462661743164,17.174434661865234 98.26133251190186,17.503929138183594 98.26133251190186,17.503929138183594 98.44286441802979,17.755126953125 98.44286441802979,17.755126953125" stroke="white" stroke-width="0.1" /><polygon points="14.871978759765625,18.32561492919922 14.871978759765625,18.32561492919922 16.809988021850586,18.586015701293945 16.809988021850586,18.586015701293945 18.55149269104004,19.3209171295166 18.55149269104004,19.3209171295166 20.02694606781006,20.460796356201172 20.02694606781006,20.460796356201172 21.16687297821045,21.93622589111328 21.16687297821045,21.93622589111328 21.901798248291016,23.677635192871094 21.901798248291016,23.677635192871094 22.162246704101562,25.615692138671875 22.162246704101562,25.615692138671875 22.151923179626465,26.005077362060547 22.151923179626465,26.005077362060547 22.121334075927734,26.389122009277344 22.121334075927734,26.389122009277344 22.071051597595215,26.767253875732422 22.071051597595215,26.767253875732422 22.00164794921875,27.138996124267578 22.00164794921875,27.138996124267578 21.913814544677734,27.50391960144043 21.913814544677734,27.50391960144043 21.80805206298828,27.861595153808594 21.80805206298828,27.861595153808594 21.190547943115234,29.251575469970703 21.190547943115234,29.251575469970703 20.30940055847168,30.47027587890625 20.30940055847168,30.47027587890625 19.200754165649414,31.481409072875977 19.200754165649414,31.481409072875977 17.900824546813965,32.248592376708984 17.900824546813965,32.248592376708984 16.44582748413086,32.735538482666016 16.44582748413086,32.735538482666016 14.871978759765625,32.90596008300781 14.871978759765625,32.90596008300781 13.640975952148438,32.802486419677734 13.640975952148438,32.802486419677734 12.476611137390137,32.50327110290527 12.476611137390137,32.50327110290527 11.395883560180664,32.02533721923828 11.395883560180664,32.02533721923828 10.41574478149414,31.38570785522461 10.41574478149414,31.38570785522461 9.553241729736328,30.60131072998047 9.553241729736328,30.60131072998047 8.825302124023438,29.68921661376953 8.825302124023438,29.68921661376953 8.460593223571777,29.088497161865234 8.460593223571777,29.088497161865234 8.153963088989258,28.45158576965332 8.153963088989258,28.45158576965332 7.909107208251953,27.782201766967773 7.909107208251953,27.782201766967773 7.729649543762207,27.083921432495117 7.729649543762207,27.083921432495117 7.619285583496094,26.360607147216797 7.619285583496094,26.360607147216797 7.5817108154296875,25.615692138671875 7.5817108154296875,25.615692138671875 7.842135429382324,23.677682876586914 7.842135429382324,23.677682876586914 8.57706069946289,21.93622589111328 8.57706069946289,21.93622589111328 9.717011451721191,20.460796356201172 9.717011451721191,20.460796356201172 11.192464828491211,19.32086944580078 11.192464828491211,19.32086944580078 12.933945655822754,18.586015701293945 12.933945655822754,18.586015701293945" stroke="white" stroke-width="0.1" /><polygon points="78.80725860595703,18.32561492919922 78.80725860595703,18.32561492919922 80.74536323547363,18.586015701293945 80.74536323547363,18.586015701293945 82.48684406280518,19.3209171295166 82.48684406280518,19.3209171295166 83.9622974395752,20.460796356201172 83.9622974395752,20.460796356201172 85.10220050811768,21.93622589111328 85.10220050811768,21.93622589111328 85.83710193634033,23.677635192871094 85.83710193634033,23.677635192871094 86.09752655029297,25.615692138671875 86.09752655029297,25.615692138671875 86.0908031463623,25.9307861328125 86.0908031463623,25.9307861328125 86.0708475112915,26.242446899414062 86.0708475112915,26.242446899414062 86.03792190551758,26.55048370361328 86.03792190551758,26.55048370361328 85.99233627319336,26.854515075683594 85.99233627319336,26.854515075683594 85.93440055847168,27.15439796447754 85.93440055847168,27.15439796447754 85.86444854736328,27.449798583984375 85.86444854736328,27.449798583984375 85.29491424560547,28.943681716918945 85.29491424560547,28.943681716918945 84.42728519439697,30.259180068969727 84.42728519439697,30.259180068969727 83.30316543579102,31.354761123657227 83.30316543579102,31.354761123657227 81.96403980255127,32.18874931335449 81.96403980255127,32.18874931335449 80.45158386230469,32.71970748901367 80.45158386230469,32.71970748901367 78.80725860595703,32.90596008300781 78.80725860595703,32.90596008300781 77.29954719543457,32.74979591369629 77.29954719543457,32.74979591369629 75.89919567108154,32.30242729187012 75.89919567108154,32.30242729187012 74.63788986206055,31.595706939697266 74.63788986206055,31.595706939697266 73.54729175567627,30.661487579345703 73.54729175567627,30.661487579345703 72.6590633392334,29.531526565551758 72.6590633392334,29.531526565551758 72.00489044189453,28.23772430419922 72.00489044189453,28.23772430419922 71.8597412109375,27.825117111206055 71.8597412109375,27.825117111206055 71.73886299133301,27.40163803100586 71.73886299133301,27.40163803100586 71.64320945739746,26.96819305419922 71.64320945739746,26.96819305419922 71.57368659973145,26.525449752807617 71.57368659973145,26.525449752807617 71.53129577636719,26.07436180114746 71.53129577636719,26.07436180114746 71.5169906616211,25.615692138671875 71.5169906616211,25.615692138671875 71.77741527557373,23.677682876586914 71.77741527557373,23.677682876586914 72.51229286193848,21.93622589111328 72.51229286193848,21.93622589111328 73.65221977233887,20.460796356201172 73.65221977233887,20.460796356201172 75.12764930725098,19.32086944580078 75.12764930725098,19.32086944580078 76.86917781829834,18.586015701293945 76.86917781829834,18.586015701293945" stroke="white" stroke-width="0.1" /><polygon points="39.63451385498047,10.840797424316406 39.63451385498047,10.840797424316406 59.51251983642578,10.06317138671875 59.51251983642578,10.06317138671875 62.039756774902344,2.068328857421875 62.039756774902344,2.068328857421875 61.74929141998291,2.047610282897949 61.74929141998291,2.047610282897949 60.9147310256958,2.0079851150512695 60.9147310256958,2.0079851150512695 59.59148406982422,1.9832134246826172 59.59148406982422,1.9832134246826172 57.834839820861816,2.007007598876953 57.834839820861816,2.007007598876953 55.70027828216553,2.113199234008789 55.70027828216553,2.113199234008789 53.243064880371094,2.3355484008789062 53.243064880371094,2.3355484008789062 50.751447677612305,2.6640892028808594 50.751447677612305,2.6640892028808594 48.42519760131836,3.108692169189453 48.42519760131836,3.108692169189453 46.18673324584961,3.732895851135254 46.18673324584961,3.732895851135254 43.958330154418945,4.600071907043457 43.958330154418945,4.600071907043457 41.66245460510254,5.773735046386719 41.66245460510254,5.773735046386719 39.22138214111328,7.317352294921875 39.22138214111328,7.317352294921875 39.185500144958496,7.409501075744629 39.185500144958496,7.409501075744629 39.0963077545166,7.641315460205078 39.0963077545166,7.641315460205078 38.98143768310547,7.946109771728516 38.98143768310547,7.946109771728516 38.8685941696167,8.256912231445312 38.8685941696167,8.256912231445312 38.785505294799805,8.507013320922852 38.785505294799805,8.507013320922852 38.759803771972656,8.629608154296875 38.759803771972656,8.629608154296875 38.77754211425781,8.736610412597656 38.77754211425781,8.736610412597656 38.80476951599121,8.95085334777832 38.80476951599121,8.95085334777832 38.838744163513184,9.221887588500977 38.838744163513184,9.221887588500977 38.87674808502197,9.498882293701172 38.87674808502197,9.498882293701172 38.91613483428955,9.731435775756836 38.91613483428955,9.731435775756836 38.95416259765625,9.868812561035156 38.95416259765625,9.868812561035156 39.02993202209473,9.991455078125 39.02993202209473,9.991455078125 39.16301727294922,10.185623168945312 39.16301727294922,10.185623168945312 39.32173252105713,10.4095458984375 39.32173252105713,10.4095458984375 39.47434425354004,10.621166229248047 39.47434425354004,10.621166229248047 39.58916664123535,10.77890396118164 39.58916664123535,10.77890396118164" stroke="white" stroke-width="0.1" /><polygon points="63.385963439941406,2.16522216796875 63.385963439941406,2.16522216796875 61.034202575683594,9.989738464355469 61.034202575683594,9.989738464355469 61.98005676269531,9.956502914428711 61.98005676269531,9.956502914428711 64.3653392791748,9.87238883972168 64.3653392791748,9.87238883972168 67.5119400024414,9.760856628417969 67.5119400024414,9.760856628417969 70.74153423309326,9.645271301269531 70.74153423309326,9.645271301269531 73.37596416473389,9.54904556274414 73.37596416473389,9.54904556274414 74.73697662353516,9.49554443359375 74.73697662353516,9.49554443359375 75.2115249633789,9.419727325439453 75.2115249633789,9.419727325439453 75.64151287078857,9.24997329711914 75.64151287078857,9.24997329711914 76.03096961975098,8.999824523925781 76.03096961975098,8.999824523925781 76.38394832611084,8.682823181152344 76.38394832611084,8.682823181152344 76.70454978942871,8.312606811523438 76.70454978942871,8.312606811523438 76.9968032836914,7.902717590332031 76.9968032836914,7.902717590332031 77.07743644714355,7.435321807861328 77.07743644714355,7.435321807861328 76.76718235015869,6.884908676147461 76.76718235015869,6.884908676147461 76.07622146606445,6.253528594970703 76.07622146606445,6.253528594970703 75.01461505889893,5.543160438537598 75.01461505889893,5.543160438537598 73.59261512756348,4.755854606628418 73.59261512756348,4.755854606628418 71.82025909423828,3.8936614990234375 71.82025909423828,3.8936614990234375 69.84553337097168,3.1412601470947266 69.84553337097168,3.1412601470947266 67.9056167602539,2.646350860595703 67.9056167602539,2.646350860595703 66.14513397216797,2.3550987243652344 66.14513397216797,2.3550987243652344 64.70861434936523,2.2136688232421875 64.70861434936523,2.2136688232421875 63.74070644378662,2.1683454513549805 63.74070644378662,2.1683454513549805" stroke="white" stroke-width="0.1" /></svg>