<?xml version="1.0" encoding="utf-8" ?>
<svg baseProfile="full" height="29.014644026756287" version="1.1" width="100.0" xmlns="http://www.w3.org/2000/svg" xmlns:ev="http://www.w3.org/2001/xml-events" xmlns:xlink="http://www.w3.org/1999/xlink"><defs><clipPath /></defs><polygon points="17.147478461265564,14.429500699043274 17.147478461265564,14.429500699043274 19.0871000289917,14.689640700817108 19.0871000289917,14.689640700817108 20.830099284648895,15.42394757270813 20.830099284648895,15.42394757270813 22.306914627552032,16.563256084918976 22.306914627552032,16.563256084918976 23.4479159116745,18.038366734981537 23.4479159116745,18.038366734981537 24.18355792760849,19.780148565769196 24.18355792760849,19.780148565769196 24.44424480199814,21.719402074813843 24.44424480199814,21.719402074813843 24.443911015987396,21.785718202590942 24.443911015987396,21.785718202590942 24.44290965795517,21.85186743736267 24.44290965795517,21.85186743736267 24.44128841161728,21.917861700057983 24.44128841161728,21.917861700057983 24.439094960689545,21.983641386032104 24.439094960689545,21.983641386032104 24.436376988887787,22.0492422580719 24.436376988887787,22.0492422580719 24.433182179927826,22.114604711532593 24.433182179927826,22.114604711532593 24.092720448970795,23.960863053798676 24.092720448970795,23.960863053798676 23.31884801387787,25.61248540878296 23.31884801387787,25.61248540878296 22.174495458602905,27.00658142566681 22.174495458602905,27.00658142566681 20.72254866361618,28.080230951309204 20.72254866361618,28.080230951309204 19.025909900665283,28.770548105239868 19.025909900665283,28.770548105239868 17.147478461265564,29.014644026756287 17.147478461265564,29.014644026756287 15.273529291152954,28.770917654037476 15.273529291152954,28.770917654037476 13.580085337162018,28.081589937210083 13.580085337162018,28.081589937210083 12.130045145750046,27.009442448616028 12.130045145750046,27.009442448616028 10.986360907554626,25.617218017578125 10.986360907554626,25.617218017578125 10.211963951587677,23.96775335073471 10.211963951587677,23.96775335073471 9.869784861803055,22.123759984970093 9.869784861803055,22.123759984970093 9.866399317979813,22.056621313095093 9.866399317979813,22.056621313095093 9.863490611314774,21.989434957504272 9.863490611314774,21.989434957504272 9.861154109239578,21.92215323448181 9.861154109239578,21.92215323448181 9.859413653612137,21.854740381240845 9.859413653612137,21.854740381240845 9.858328849077225,21.787184476852417 9.858328849077225,21.787184476852417 9.857959300279617,21.719402074813843 9.857959300279617,21.719402074813843 10.118599236011505,19.78016048669815 10.118599236011505,19.78016048669815 10.854002833366394,18.038378655910492 10.854002833366394,18.038378655910492 11.994384974241257,16.563256084918976 11.994384974241257,16.563256084918976 13.469935953617096,15.42394757270813 13.469935953617096,15.42394757270813 15.21090716123581,14.689640700817108 15.21090716123581,14.689640700817108" stroke="white" stroke-width="0.1" /><polygon points="77.9363214969635,14.429500699043274 77.9363214969635,14.429500699043274 79.86980676651001,14.688269793987274 79.86980676651001,14.688269793987274 81.60749673843384,15.418809652328491 81.60749673843384,15.418809652328491 83.08073878288269,16.552479565143585 83.08073878288269,16.552479565143585 84.22073721885681,18.020616471767426 84.22073721885681,18.020616471767426 84.95880961418152,19.75463777780533 84.95880961418152,19.75463777780533 85.22621989250183,21.685832738876343 85.22621989250183,21.685832738876343 85.22626757621765,21.69150710105896 85.22626757621765,21.69150710105896 85.22641062736511,21.697086095809937 85.22641062736511,21.697086095809937 85.2266013622284,21.702617406845093 85.2266013622284,21.702617406845093 85.22676825523376,21.70814871788025 85.22676825523376,21.70814871788025 85.22693514823914,21.713727712631226 85.22693514823914,21.713727712631226 85.22698283195496,21.719402074813843 85.22698283195496,21.719402074813843 84.96667742729187,23.65851104259491 84.96667742729187,23.65851104259491 84.23201441764832,25.401127338409424 84.23201441764832,25.401127338409424 83.0922782421112,26.877644658088684 83.0922782421112,26.877644658088684 81.61684274673462,28.01845669746399 81.61684274673462,28.01845669746399 79.87509965896606,28.753989934921265 79.87509965896606,28.753989934921265 77.9363214969635,29.014644026756287 77.9363214969635,29.014644026756287 76.06484889984131,28.77228856086731 76.06484889984131,28.77228856086731 74.37429428100586,28.08670401573181 74.37429428100586,28.08670401573181 72.92651534080505,27.020123600959778 72.92651534080505,27.020123600959778 71.78344130516052,25.63474178314209 71.78344130516052,25.63474178314209 71.00698351860046,23.99282306432724 71.00698351860046,23.99282306432724 70.65901160240173,22.156566381454468 70.65901160240173,22.156566381454468 70.65488696098328,22.084027528762817 70.65488696098328,22.084027528762817 70.65135836601257,22.01135754585266 70.65135836601257,22.01135754585266 70.64847350120544,21.938556432724 70.64847350120544,21.938556432724 70.64631581306458,21.86562418937683 70.64631581306458,21.86562418937683 70.64496874809265,21.792572736740112 70.64496874809265,21.792572736740112 70.64451575279236,21.719402074813843 70.64451575279236,21.719402074813843 70.90482115745544,19.78016048669815 70.90482115745544,19.78016048669815 71.63954377174377,18.038378655910492 71.63954377174377,18.038378655910492 72.77936339378357,16.563256084918976 72.77936339378357,16.563256084918976 74.25496578216553,15.42394757270813 74.25496578216553,15.42394757270813 75.99706649780273,14.689640700817108 75.99706649780273,14.689640700817108" stroke="white" stroke-width="0.1" /><polygon points="100.0,15.309935808181763 100.0,15.309935808181763 99.90947246551514,15.558773279190063 99.90947246551514,15.558773279190063 99.68922138214111,15.745764970779419 99.68922138214111,15.745764970779419 99.4009017944336,15.881949663162231 99.4009017944336,15.881949663162231 99.1060733795166,15.978318452835083 99.1060733795166,15.978318452835083 98.8663911819458,16.045911610126495 98.8663911819458,16.045911610126495 98.74343872070312,16.095764935016632 98.74343872070312,16.095764935016632 98.7086534500122,16.202445328235626 98.7086534500122,16.202445328235626 98.66561889648438,16.422279179096222 98.66561889648438,16.422279179096222 98.57423305511475,16.738827526569366 98.57423305511475,16.738827526569366 98.39429259300232,17.135676741600037 98.39429259300232,17.135676741600037 98.08573126792908,17.596398293972015 98.08573126792908,17.596398293972015 97.60836958885193,18.104587495326996 97.60836958885193,18.104587495326996 96.9714343547821,18.640124797821045 96.9714343547821,18.640124797821045 96.26619219779968,19.167961180210114 96.26619219779968,19.167961180210114 95.57480216026306,19.64811235666275 95.57480216026306,19.64811235666275 94.9792742729187,20.040586590766907 94.9792742729187,20.040586590766907 94.56180334091187,20.305398106575012 94.56180334091187,20.305398106575012 94.40439939498901,20.402565598487854 94.40439939498901,20.402565598487854 97.79948592185974,20.05237638950348 97.79948592185974,20.05237638950348 97.7693498134613,20.99994868040085 97.7693498134613,20.99994868040085 97.50809073448181,21.039550006389618 97.50809073448181,21.039550006389618 96.8294084072113,21.13725394010544 96.8294084072113,21.13725394010544 95.89113593101501,21.2613508105278 95.89113593101501,21.2613508105278 94.85095739364624,21.38017863035202 94.85095739364624,21.38017863035202 93.86664628982544,21.462027728557587 93.86664628982544,21.462027728557587 93.09595823287964,21.475259959697723 93.09595823287964,21.475259959697723 92.52804517745972,21.43680304288864 92.52804517745972,21.43680304288864 92.04133152961731,21.3837668299675 92.04133152961731,21.3837668299675 91.6253387928009,21.31923884153366 91.6253387928009,21.31923884153366 91.26942753791809,21.246306598186493 91.26942753791809,21.246306598186493 90.9631073474884,21.16810530424118 90.9631073474884,21.16810530424118 90.69574475288391,21.087686717510223 90.69574475288391,21.087686717510223 90.23197293281555,21.077315509319305 90.23197293281555,21.077315509319305 89.4524872303009,21.17099016904831 89.4524872303009,21.17099016904831 88.51807117462158,21.32362574338913 88.51807117462158,21.32362574338913 87.58947849273682,21.49011492729187 87.58947849273682,21.49011492729187 86.8274450302124,21.625369787216187 86.8274450302124,21.625369787216187 86.39276027679443,21.684306859970093 86.39276027679443,21.684306859970093 86.07211112976074,19.446934759616852 86.07211112976074,19.446934759616852 85.18795371055603,17.435631155967712 85.18795371055603,17.435631155967712 83.82903933525085,15.730983018875122 83.82903933525085,15.730983018875122 82.08402395248413,14.41357433795929 82.08402395248413,14.41357433795929 80.04165887832642,13.564039766788483 80.04165887832642,13.564039766788483 77.79060006141663,13.26296478509903 77.79060006141663,13.26296478509903 74.36716556549072,13.952663540840149 74.36716556549072,13.952663540840149 72.01477885246277,15.676909685134888 72.01477885246277,15.676909685134888 70.53341269493103,17.918430268764496 70.53341269493103,17.918430268764496 69.72297430038452,20.159950852394104 69.72297430038452,20.159950852394104 69.38341856002808,21.884196996688843 69.38341856002808,21.884196996688843 69.314706325531,22.573895752429962 69.314706325531,22.573895752429962 69.23795938491821,22.636516392230988 69.23795938491821,22.636516392230988 69.01137828826904,22.79305011034012 69.01137828826904,22.79305011034012 68.64045858383179,22.996564209461212 68.64045858383179,22.996564209461212 68.13067197799683,23.200055956840515 68.13067197799683,23.200055956840515 67.4875259399414,23.356613516807556 67.4875259399414,23.356613516807556 66.71651005744934,23.41923415660858 66.71651005744934,23.41923415660858 27.178242802619934,23.54588210582733 27.178242802619934,23.54588210582733 25.551652908325195,22.702069580554962 25.551652908325195,22.702069580554962 25.610780715942383,21.719402074813843 25.610780715942383,21.719402074813843 25.307941436767578,19.47387605905533 25.307941436767578,19.47387605905533 24.453602731227875,17.4545019865036 24.453602731227875,17.4545019865036 23.12907874584198,15.742522478103638 23.12907874584198,15.742522478103638 21.415679156780243,14.419129490852356 21.415679156780243,14.419129490852356 19.394709169864655,13.565529882907867 19.394709169864655,13.565529882907867 17.147478461265564,13.26296478509903 17.147478461265564,13.26296478509903 14.902107417583466,13.565541803836823 14.902107417583466,13.565541803836823 12.882852554321289,14.419129490852356 12.882852554321289,14.419129490852356 11.17093339562416,15.742522478103638 11.17093339562416,15.742522478103638 9.84756425023079,17.454490065574646 9.84756425023079,17.454490065574646 8.994000405073166,19.473864138126373 8.994000405073166,19.473864138126373 8.691422641277313,21.719402074813843 8.691422641277313,21.719402074813843 8.711640536785126,22.274823486804962 8.711640536785126,22.274823486804962 5.269632861018181,22.975201904773712 5.269632861018181,22.975201904773712 3.697211667895317,23.513075709342957 3.697211667895317,23.513075709342957 4.671868681907654,21.846812963485718 4.671868681907654,21.846812963485718 3.13301682472229,21.1204931139946 3.13301682472229,21.1204931139946 3.091949224472046,21.020762622356415 3.091949224472046,21.020762622356415 2.9827414080500603,20.76151818037033 2.9827414080500603,20.76151818037033 2.826409973204136,20.402756333351135 2.826409973204136,20.402756333351135 2.643935941159725,20.00444233417511 2.643935941159725,20.00444233417511 2.456347830593586,19.62655931711197 2.456347830593586,19.62655931711197 2.2846264764666557,19.32910829782486 2.2846264764666557,19.32910829782486 2.1196644753217697,19.11252737045288 2.1196644753217697,19.11252737045288 1.948944479227066,18.933308124542236 1.948944479227066,18.933308124542236 1.7884287983179092,18.792378902435303 1.7884287983179092,18.792378902435303 1.6540320590138435,18.690598011016846 1.6540320590138435,18.690598011016846 1.5617161989212036,18.62889528274536 1.5617161989212036,18.62889528274536 1.5274076722562313,18.608129024505615 1.5274076722562313,18.608129024505615 1.424506027251482,18.559598922729492 1.424506027251482,18.559598922729492 1.1653684079647064,18.43041181564331 1.1653684079647064,18.43041181564331 0.8243576623499393,18.245254456996918 0.8243576623499393,18.245254456996918 0.4758486058562994,18.028734624385834 0.4758486058562994,18.028734624385834 0.19420422613620758,17.805539071559906 0.19420422613620758,17.805539071559906 0.053787336219102144,17.60028451681137 0.053787336219102144,17.60028451681137 0.017166169709526002,17.386099696159363 0.017166169709526002,17.386099696159363 0.0017643007595324889,17.14056432247162 0.0017643007595324889,17.14056432247162 0.0010967275557050016,16.89504086971283 0.0010967275557050016,16.89504086971283 0.008654611156089231,16.680844128131866 0.008654611156089231,16.680844128131866 0.017964874859899282,16.529352962970734 0.017964874859899282,16.529352962970734 0.022506757522933185,16.471894085407257 0.022506757522933185,16.471894085407257 0.43220603838562965,16.505463421344757 0.43220603838562965,16.505463421344757 0.4239447880536318,16.225595772266388 0.4239447880536318,16.225595772266388 0.40575345046818256,15.522509813308716 0.40575345046818256,15.522509813308716 0.3875739872455597,14.601068198680878 0.3875739872455597,14.601068198680878 0.3793008392676711,13.666070997714996 0.3793008392676711,13.666070997714996 0.39087608456611633,12.922371923923492 0.39087608456611633,12.922371923923492 0.43220603838562965,12.57479190826416 0.43220603838562965,12.57479190826416 0.5500684957951307,12.444961071014404 0.5500684957951307,12.444961071014404 0.8161203004419804,12.23064586520195 0.8161203004419804,12.23064586520195 1.277020014822483,11.950897425413132 1.277020014822483,11.950897425413132 1.9794143736362457,11.624722182750702 1.9794143736362457,11.624722182750702 2.9699858278036118,11.27118244767189 2.9699858278036118,11.27118244767189 4.295357316732407,10.909292101860046 4.295357316732407,10.909292101860046 5.912589281797409,10.497184842824936 5.912589281797409,10.497184842824936 7.680311799049377,10.01950055360794 7.680311799049377,10.01950055360794 9.496992826461792,9.524744749069214 9.496992826461792,9.524744749069214 11.261091381311417,9.061389416456223 11.261091381311417,9.061389416456223 12.871074676513672,8.677934110164642 12.871074676513672,8.677934110164642 14.225414395332336,8.422867953777313 14.225414395332336,8.422867953777313 15.697544813156128,8.240608125925064 15.697544813156128,8.240608125925064 17.62460321187973,8.046344667673111 17.62460321187973,8.046344667673111 19.86030489206314,7.855048775672913 19.86030489206314,7.855048775672913 22.25838303565979,7.681682705879211 22.25838303565979,7.681682705879211 24.672579765319824,7.541205734014511 24.672579765319824,7.541205734014511 26.95660889148712,7.448592036962509 26.95660889148712,7.448592036962509 28.848034143447876,7.395055145025253 28.848034143447876,7.395055145025253 30.230578780174255,7.354726642370224 30.230578780174255,7.354726642370224 31.177818775177002,7.326044887304306 31.177818775177002,7.326044887304306 31.76332712173462,7.307472079992294 31.76332712173462,7.307472079992294 32.06068575382233,7.297470420598984 32.06068575382233,7.297470420598984 32.14346468448639,7.294478267431259 32.14346468448639,7.294478267431259 32.22959339618683,7.293178886175156 32.22959339618683,7.293178886175156 32.434430718421936,7.295235246419907 32.434430718421936,7.295235246419907 32.67776072025299,7.3096416890621185 32.67776072025299,7.3096416890621185 32.87927210330963,7.345332950353622 32.87927210330963,7.345332950353622 32.95872509479523,7.411297410726547 32.95872509479523,7.411297410726547 32.83583223819733,7.516493648290634 32.83583223819733,7.516493648290634 32.52840340137482,7.624754309654236 32.52840340137482,7.624754309654236 32.151201367378235,7.710137963294983 32.151201367378235,7.710137963294983 31.765472888946533,7.785525918006897 31.765472888946533,7.785525918006897 31.43240213394165,7.863768935203552 31.43240213394165,7.863768935203552 31.213247776031494,7.957741618156433 31.213247776031494,7.957741618156433 31.169188022613525,8.080307394266129 31.169188022613525,8.080307394266129 31.439459323883057,8.176807314157486 31.439459323883057,8.176807314157486 32.03802406787872,8.183447271585464 32.03802406787872,8.183447271585464 32.838788628578186,8.099380880594254 32.838788628578186,8.099380880594254 33.71564745903015,7.923755049705505 33.71564745903015,7.923755049705505 34.54253077507019,7.655736804008484 34.54253077507019,7.655736804008484 35.193321108818054,7.294478267431259 35.193321108818054,7.294478267431259 36.10893189907074,6.535888463258743 36.10893189907074,6.535888463258743 37.610697746276855,5.267004296183586 37.610697746276855,5.267004296183586 39.38343822956085,3.767974302172661 39.38343822956085,3.767974302172661 41.11195206642151,2.3189112544059753 41.11195206642151,2.3189112544059753 42.48107373714447,1.1999511159956455 42.48107373714447,1.1999511159956455 43.17559003829956,0.6912244483828545 43.17559003829956,0.6912244483828545 43.57839822769165,0.5650531034916639 43.57839822769165,0.5650531034916639 44.316089153289795,0.41605313308537006 44.316089153289795,0.41605313308537006 45.437899231910706,0.2646451350301504 45.437899231910706,0.2646451350301504 46.99304699897766,0.1312198699451983 46.99304699897766,0.1312198699451983 49.030801653862,0.03620393108576536 49.030801653862,0.03620393108576536 51.600366830825806,0.0 51.600366830825806,0.0 54.806315898895264,0.027525477344170213 54.806315898895264,0.027525477344170213 58.48754048347473,0.11817238992080092 58.48754048347473,0.11817238992080092 62.29526996612549,0.2841001143679023 62.29526996612549,0.2841001143679023 65.88072180747986,0.5374441854655743 65.88072180747986,0.5374441854655743 68.89513731002808,0.8903520181775093 68.89513731002808,0.8903520181775093 70.98974585533142,1.354983076453209 70.98974585533142,1.354983076453209 72.93843626976013,2.161840721964836 72.93843626976013,2.161840721964836 75.49946308135986,3.3766333013772964 75.49946308135986,3.3766333013772964 78.30014824867249,4.765424132347107 78.30014824867249,4.765424132347107 80.96774816513062,6.094246730208397 80.96774816513062,6.094246730208397 83.12961459159851,7.129187881946564 83.12961459159851,7.129187881946564 84.41292643547058,7.636275887489319 84.41292643547058,7.636275887489319 85.7644259929657,7.895377278327942 85.7644259929657,7.895377278327942 88.0549669265747,8.281097561120987 88.0549669265747,8.281097561120987 90.79859852790833,8.702771365642548 90.79859852790833,8.702771365642548 93.50947141647339,9.069692343473434 93.50947141647339,9.069692343473434 95.701664686203,9.2911958694458 95.701664686203,9.2911958694458 96.88929915428162,9.276598691940308 96.88929915428162,9.276598691940308 97.38203883171082,9.098326414823532 97.38203883171082,9.098326414823532 97.81004786491394,8.902984112501144 97.81004786491394,8.902984112501144 98.16827178001404,8.711163699626923 98.16827178001404,8.711163699626923 98.4515905380249,8.543436229228973 98.4515905380249,8.543436229228973 98.65493774414062,8.420388400554657 98.65493774414062,8.420388400554657 98.773193359375,8.362594991922379 98.773193359375,8.362594991922379 98.84836673736572,8.373836427927017 98.84836673736572,8.373836427927017 98.91963005065918,8.44462364912033 98.91963005065918,8.44462364912033 98.97832870483398,8.575646579265594 98.97832870483398,8.575646579265594 99.01571273803711,8.767567574977875 99.01571273803711,8.767567574977875 99.02310371398926,9.021090716123581 99.02310371398926,9.021090716123581 98.99177551269531,9.336870908737183 98.99177551269531,9.336870908737183 98.92439842224121,9.673566371202469 98.92439842224121,9.673566371202469 98.84135723114014,9.987516701221466 98.84135723114014,9.987516701221466 98.7605094909668,10.274811089038849 98.7605094909668,10.274811089038849 98.69966506958008,10.531517118215561 98.69966506958008,10.531517118215561 98.67672920227051,10.753729939460754 98.67672920227051,10.753729939460754 98.70948791503906,10.937520861625671 98.70948791503906,10.937520861625671 98.76000881195068,11.286554485559464 98.76000881195068,11.286554485559464 98.78575801849365,11.910127103328705 98.78575801849365,11.910127103328705 98.79822731018066,12.662816047668457 98.79822731018066,12.662816047668457 98.80893230438232,13.399149477481842 98.80893230438232,13.399149477481842 98.82946014404297,13.973715901374817 98.82946014404297,13.973715901374817 98.87123107910156,14.241054654121399 98.87123107910156,14.241054654121399 98.99449348449707,14.326170086860657 98.99449348449707,14.326170086860657 99.21600818634033,14.450183510780334 99.21600818634033,14.450183510780334 99.48153495788574,14.611844718456268 99.48153495788574,14.611844718456268 99.7368335723877,14.809851348400116 99.7368335723877,14.809851348400116 99.92773532867432,15.042977035045624 99.92773532867432,15.042977035045624" stroke="white" stroke-width="0.1" /><polygon points="60.39287447929382,8.726517856121063 60.39287447929382,8.726517856121063 60.41185259819031,8.367911726236343 60.41185259819031,8.367911726236343 60.437291860580444,7.914265990257263 60.437291860580444,7.914265990257263 60.467833280563354,7.394804805517197 60.467833280563354,7.394804805517197 60.50204634666443,6.838710606098175 60.50204634666443,6.838710606098175 60.53857207298279,6.27521276473999 60.53857207298279,6.27521276473999 60.57597994804382,5.7335007935762405 60.57597994804382,5.7335007935762405 60.64161658287048,5.0457097589969635 60.64161658287048,5.0457097589969635 60.74839234352112,4.200723022222519 60.74839234352112,4.200723022222519 60.87262034416199,3.3244196325540543 60.87262034416199,3.3244196325540543 60.99064350128174,2.5426555424928665 60.99064350128174,2.5426555424928665 61.078834533691406,1.981297880411148 61.078834533691406,1.981297880411148 61.11347675323486,1.7662081867456436 61.11347675323486,1.7662081867456436 60.88487505912781,1.7413172870874405 60.88487505912781,1.7413172870874405 60.24935841560364,1.6766579821705818 60.24935841560364,1.6766579821705818 59.282416105270386,1.5872985124588013 59.282416105270386,1.5872985124588013 58.05949568748474,1.4882652088999748 58.05949568748474,1.4882652088999748 56.656086444854736,1.3946262188255787 56.656086444854736,1.3946262188255787 55.14765977859497,1.3214136473834515 55.14765977859497,1.3214136473834515 52.96565890312195,1.2840831652283669 52.96565890312195,1.2840831652283669 50.7581353187561,1.3101364485919476 50.7581353187561,1.3101364485919476 48.71339499950409,1.3743426650762558 48.71339499950409,1.3743426650762558 47.01973795890808,1.451447419822216 47.01973795890808,1.451447419822216 45.86544334888458,1.516225840896368 45.86544334888458,1.516225840896368 45.43885290622711,1.5434294939041138 45.43885290622711,1.5434294939041138 38.526228070259094,8.046738058328629 38.526228070259094,8.046738058328629 40.445476770401,8.184412866830826 40.445476770401,8.184412866830826 44.00240182876587,8.332274109125137 44.00240182876587,8.332274109125137 48.43468368053436,8.475987613201141 48.43468368053436,8.475987613201141 52.97996401786804,8.60118716955185 52.97996401786804,8.60118716955185 56.87593221664429,8.693550527095795 56.87593221664429,8.693550527095795 59.360235929489136,8.738724887371063 59.360235929489136,8.738724887371063 59.54499840736389,8.739940822124481 59.54499840736389,8.739940822124481 59.724682569503784,8.73979777097702 59.724682569503784,8.73979777097702 59.89930033683777,8.7383434176445 59.89930033683777,8.7383434176445 60.0688636302948,8.735601603984833 60.0688636302948,8.735601603984833 60.23337244987488,8.731655776500702 60.23337244987488,8.731655776500702" stroke="white" stroke-width="0.1" /><polygon points="60.946011543273926,8.697526156902313 60.946011543273926,8.697526156902313 61.76586151123047,8.618108928203583 61.76586151123047,8.618108928203583 62.45307922363281,8.50667804479599 62.45307922363281,8.50667804479599 63.05234432220459,8.373848348855972 63.05234432220459,8.373848348855972 63.6082649230957,8.23020115494728 63.6082649230957,8.23020115494728 64.16551470756531,8.08635726571083 64.16551470756531,8.08635726571083 64.76872563362122,7.952895760536194 64.76872563362122,7.952895760536194 65.64716696739197,7.775256037712097 65.64716696739197,7.775256037712097 66.61121249198914,7.5752101838588715 66.61121249198914,7.5752101838588715 67.55145788192749,7.377161830663681 67.55145788192749,7.377161830663681 68.35849285125732,7.205487787723541 68.35849285125732,7.205487787723541 68.92293691635132,7.084597647190094 68.92293691635132,7.084597647190094 69.13541555404663,7.0388928055763245 69.13541555404663,7.0388928055763245 68.71069669723511,6.728649884462357 68.71069669723511,6.728649884462357 67.6233172416687,5.938618630170822 67.6233172416687,5.938618630170822 66.15350842475891,4.879865422844887 66.15350842475891,4.879865422844887 64.58149552345276,3.7634383887052536 64.58149552345276,3.7634383887052536 63.18751573562622,2.8004104271531105 63.18751573562622,2.8004104271531105 62.25178241729736,2.2018475458025932 62.25178241729736,2.2018475458025932 62.15578317642212,2.1498244255781174 62.15578317642212,2.1498244255781174 62.058353424072266,2.1005135029554367 62.058353424072266,2.1005135029554367 61.95933818817139,2.0538369193673134 61.95933818817139,2.0538369193673134 61.858487129211426,2.009693719446659 61.858487129211426,2.009693719446659 61.75563335418701,1.9680120050907135 61.75563335418701,1.9680120050907135 61.65058612823486,1.9287146627902985 61.65058612823486,1.9287146627902985 61.623191833496094,2.0863810554146767 61.623191833496094,2.0863810554146767 61.59311532974243,2.2656185552477837 61.59311532974243,2.2656185552477837 61.560750007629395,2.464108355343342 61.560750007629395,2.464108355343342 61.52646541595459,2.6794960722327232 61.52646541595459,2.6794960722327232 61.490678787231445,2.909475192427635 61.490678787231445,2.909475192427635 61.45374774932861,3.1517088413238525 61.45374774932861,3.1517088413238525 61.38502359390259,3.605479747056961 61.38502359390259,3.605479747056961 61.31807565689087,4.072912409901619 61.31807565689087,4.072912409901619 61.255764961242676,4.53844927251339 61.255764961242676,4.53844927251339 61.20095252990723,4.986486583948135 61.20095252990723,4.986486583948135 61.156511306762695,5.401478707790375 61.156511306762695,5.401478707790375 61.1253023147583,5.767833441495895 61.1253023147583,5.767833441495895 61.0920786857605,6.291669607162476 61.0920786857605,6.291669607162476 61.05847358703613,6.836797297000885 61.05847358703613,6.836797297000885 61.02578639984131,7.376589626073837 61.02578639984131,7.376589626073837 60.99529266357422,7.884392142295837 60.99529266357422,7.884392142295837 60.96826791763306,8.333585411310196 60.96826791763306,8.333585411310196" stroke="white" stroke-width="0.1" /><polygon points="69.43715810775757,15.384703874588013 69.43715810775757,15.384703874588013 69.5857048034668,15.16440361738205 69.5857048034668,15.16440361738205 69.73856687545776,14.948277175426483 69.73856687545776,14.948277175426483 69.88180875778198,14.752320945262909 69.88180875778198,14.752320945262909 70.00139951705933,14.592532813549042 70.00139951705933,14.592532813549042 70.08342742919922,14.484934508800507 70.08342742919922,14.484934508800507 70.11388540267944,14.445522427558899 70.11388540267944,14.445522427558899 66.87100529670715,14.445522427558899 66.87100529670715,14.445522427558899 66.87100529670715,14.694242179393768 66.87100529670715,14.694242179393768 67.56452322006226,14.694242179393768 67.56452322006226,14.694242179393768 67.39662885665894,14.93089646100998 67.39662885665894,14.93089646100998 67.19120740890503,15.234798192977905 67.19120740890503,15.234798192977905 66.96646809577942,15.588504076004028 66.96646809577942,15.588504076004028 66.74063801765442,15.974551439285278 66.74063801765442,15.974551439285278 66.53197407722473,16.375549137592316 66.53197407722473,16.375549137592316 66.35869145393372,16.774018108844757 66.35869145393372,16.774018108844757 66.20407700538635,17.238149046897888 66.20407700538635,17.238149046897888 66.06373190879822,17.73592084646225 66.06373190879822,17.73592084646225 65.94112515449524,18.229995667934418 65.94112515449524,18.229995667934418 65.83970189094543,18.683063983917236 65.83970189094543,18.683063983917236 65.76297879219055,19.057810306549072 65.76297879219055,19.057810306549072 65.71438908576965,19.31690126657486 65.71438908576965,19.31690126657486 65.03384709358215,19.31690126657486 65.03384709358215,19.31690126657486 65.03384709358215,19.56561952829361 65.03384709358215,19.56561952829361 67.9871916770935,19.56561952829361 67.9871916770935,19.56561952829361 67.99309253692627,19.52541023492813 67.99309253692627,19.52541023492813 68.00973415374756,19.41453367471695 68.00973415374756,19.41453367471695 68.03668737411499,19.24652010202408 68.03668737411499,19.24652010202408 68.07347536087036,19.034886360168457 68.07347536087036,19.034886360168457 68.1196928024292,18.793165683746338 68.1196928024292,18.793165683746338 68.17487478256226,18.534886837005615 68.17487478256226,18.534886837005615 68.23720932006836,18.26101392507553 68.23720932006836,18.26101392507553 68.30660104751587,17.974768579006195 68.30660104751587,17.974768579006195 68.3822512626648,17.6839217543602 68.3822512626648,17.6839217543602 68.46339702606201,17.396172881126404 68.46339702606201,17.396172881126404 68.54928731918335,17.11929738521576 68.54928731918335,17.11929738521576 68.63912343978882,16.860994696617126 68.63912343978882,16.860994696617126 68.74183416366577,16.61299020051956 68.74183416366577,16.61299020051956 68.86398792266846,16.358549892902374 68.86398792266846,16.358549892902374 69.00008916854858,16.10310822725296 69.00008916854858,16.10310822725296 69.1446304321289,15.85204005241394 69.1446304321289,15.85204005241394 69.292151927948,15.610772371292114 69.292151927948,15.610772371292114" stroke="white" stroke-width="0.1" /></svg>