<?xml version="1.0" encoding="utf-8" ?>
<svg baseProfile="full" height="29.603901505470276" version="1.1" width="99.9969482421875" xmlns="http://www.w3.org/2000/svg" xmlns:ev="http://www.w3.org/2001/xml-events" xmlns:xlink="http://www.w3.org/1999/xlink"><defs><clipPath /></defs><polygon points="99.9969482421875,17.08637773990631 99.9969482421875,17.08637773990631 99.92685317993164,18.063701689243317 99.92685317993164,18.063701689243317 99.6924877166748,19.145570695400238 99.6924877166748,19.145570695400238 99.37281608581543,20.2061265707016 99.37281608581543,20.2061265707016 99.04673099517822,21.119458973407745 99.04673099517822,21.119458973407745 98.79322052001953,21.759778261184692 98.79322052001953,21.759778261184692 98.69117736816406,22.001224756240845 98.69117736816406,22.001224756240845 99.45907592773438,22.077900171279907 99.45907592773438,22.077900171279907 98.99826049804688,23.76742660999298 98.99826049804688,23.76742660999298 93.31551790237427,23.92115741968155 93.31551790237427,23.92115741968155 93.04994344711304,23.989416658878326 93.04994344711304,23.989416658878326 92.36832857131958,24.160005152225494 92.36832857131958,24.160005152225494 91.44355654716492,24.381782114505768 91.44355654716492,24.381782114505768 90.44834971427917,24.60353523492813 90.44834971427917,24.60353523492813 89.5556390285492,24.77412223815918 89.5556390285492,24.77412223815918 88.93816471099854,24.842405319213867 88.93816471099854,24.842405319213867 88.52546215057373,24.85947608947754 88.52546215057373,24.85947608947754 88.1446361541748,24.90212917327881 88.1446361541748,24.90212917327881 87.8150224685669,24.957609176635742 87.8150224685669,24.957609176635742 87.55574226379395,25.013041496276855 87.55574226379395,25.013041496276855 87.38610744476318,25.055742263793945 87.38610744476318,25.055742263793945 87.32531070709229,25.072813034057617 87.32531070709229,25.072813034057617 86.94803714752197,24.953413009643555 86.94803714752197,24.953413009643555 87.10658550262451,24.474288523197174 87.10658550262451,24.474288523197174 87.23828792572021,23.98376613855362 87.23828792572021,23.98376613855362 87.34228610992432,23.482707142829895 87.34228610992432,23.482707142829895 87.41762638092041,22.971849143505096 87.41762638092041,22.971849143505096 87.46352195739746,22.45209664106369 87.46352195739746,22.45209664106369 87.47904300689697,21.92416787147522 87.47904300689697,21.92416787147522 87.16027736663818,19.558845460414886 87.16027736663818,19.558845460414886 86.26103401184082,17.431631684303284 86.26103401184082,17.431631684303284 84.86688733100891,15.628212690353394 84.86688733100891,15.628212690353394 83.06334614753723,14.234063029289246 83.06334614753723,14.234063029289246 80.93606233596802,13.334845006465912 80.93606233596802,13.334845006465912 78.57059836387634,13.016103208065033 78.57059836387634,13.016103208065033 76.20525360107422,13.334868848323822 76.20525360107422,13.334868848323822 74.07808303833008,14.234086871147156 74.07808303833008,14.234086871147156 72.27464318275452,15.628212690353394 72.27464318275452,15.628212690353394 70.88046669960022,17.431607842445374 70.88046669960022,17.431607842445374 69.98130083084106,19.558821618556976 69.98130083084106,19.558821618556976 69.66253519058228,21.92416787147522 69.66253519058228,21.92416787147522 69.69205141067505,22.650866210460663 69.69205141067505,22.650866210460663 69.77897882461548,23.36149513721466 69.77897882461548,23.36149513721466 69.92098093032837,24.0539088845253 69.92098093032837,24.0539088845253 70.11557817459106,24.725818634033203 70.11557817459106,24.725818634033203 70.36047577857971,25.375080108642578 70.36047577857971,25.375080108642578 70.65320611000061,25.99940001964569 70.65320611000061,25.99940001964569 70.41855454444885,26.082608103752136 70.41855454444885,26.082608103752136 70.16578912734985,26.155659556388855 70.16578912734985,26.155659556388855 69.89480257034302,26.216313242912292 69.89480257034302,26.216313242912292 69.60543394088745,26.262351870536804 69.60543394088745,26.262351870536804 69.29765939712524,26.291653513908386 69.29765939712524,26.291653513908386 68.97131204605103,26.301905512809753 68.97131204605103,26.301905512809753 65.19266963005066,26.324650645256042 65.19266963005066,26.324650645256042 57.403552532196045,26.381513476371765 57.403552532196045,26.381513476371765 47.69883453845978,26.45544707775116 47.69883453845978,26.45544707775116 38.17331790924072,26.529332995414734 38.17331790924072,26.529332995414734 30.921781063079834,26.586243510246277 30.921781063079834,26.586243510246277 28.03911566734314,26.608988642692566 28.03911566734314,26.608988642692566 26.971766352653503,25.99901854991913 26.971766352653503,25.99901854991913 27.26440131664276,25.374746322631836 27.26440131664276,25.374746322631836 27.509206533432007,24.72555637359619 27.509206533432007,24.72555637359619 27.703827619552612,24.053718149662018 27.703827619552612,24.053718149662018 27.845782041549683,23.36137592792511 27.845782041549683,23.36137592792511 27.932733297348022,22.650794684886932 27.932733297348022,22.650794684886932 27.962249517440796,21.92416787147522 27.962249517440796,21.92416787147522 27.643483877182007,19.558845460414886 27.643483877182007,19.558845460414886 26.744267344474792,17.431631684303284 26.744267344474792,17.431631684303284 25.350117683410645,15.628212690353394 25.350117683410645,15.628212690353394 23.546627163887024,14.234063029289246 23.546627163887024,14.234063029289246 21.41941338777542,13.334845006465912 21.41941338777542,13.334845006465912 19.053995609283447,13.016103208065033 19.053995609283447,13.016103208065033 16.688577830791473,13.334868848323822 16.688577830791473,13.334868848323822 14.561338722705841,14.234086871147156 14.561338722705841,14.234086871147156 12.75787353515625,15.628212690353394 12.75787353515625,15.628212690353394 11.363723129034042,17.431607842445374 11.363723129034042,17.431607842445374 10.464481264352798,19.558821618556976 10.464481264352798,19.558821618556976 10.14574021100998,21.92416787147522 10.14574021100998,21.92416787147522 10.170654952526093,22.592167556285858 10.170654952526093,22.592167556285858 10.244159400463104,23.24681580066681 10.244159400463104,23.24681580066681 10.364393144845963,23.88644367456436 10.364393144845963,23.88644367456436 10.529498010873795,24.509264528751373 10.529498010873795,24.509264528751373 10.737589746713638,25.113582611083984 10.737589746713638,25.113582611083984 10.986879467964172,25.697660446166992 10.986879467964172,25.697660446166992 9.915333241224289,26.22484862804413 9.915333241224289,26.22484862804413 9.440332651138306,26.234814524650574 9.440332651138306,26.234814524650574 8.240016549825668,26.253315806388855 8.240016549825668,26.253315806388855 6.651460379362106,26.26332938671112 6.651460379362106,26.26332938671112 5.011691898107529,26.24771296977997 5.011691898107529,26.24771296977997 3.6577869206666946,26.189467310905457 3.6577869206666946,26.189467310905457 2.9268208891153336,26.071497797966003 2.9268208891153336,26.071497797966003 2.637786604464054,25.87585151195526 2.637786604464054,25.87585151195526 2.380724251270294,25.607728958129883 2.380724251270294,25.607728958129883 2.1492917090654373,25.284194946289062 2.1492917090654373,25.284194946289062 1.937028020620346,24.92225170135498 1.937028020620346,24.92225170135498 1.7375912517309189,24.53904300928116 1.7375912517309189,24.53904300928116 1.5445679426193237,24.1515651345253 1.5445679426193237,24.1515651345253 1.2711739167571068,23.468592762947083 1.2711739167571068,23.468592762947083 0.8932335302233696,22.34821766614914 0.8932335302233696,22.34821766614914 0.49822237342596054,21.03162556886673 0.49822237342596054,21.03162556886673 0.17359224148094654,19.759808480739594 0.17359224148094654,19.759808480739594 0.006842600123491138,18.773949146270752 0.006842600123491138,18.773949146270752 0.08544905576854944,18.315090239048004 0.08544905576854944,18.315090239048004 0.46162516809999943,18.183912336826324 0.46162516809999943,18.183912336826324 1.046846341341734,18.03347021341324 1.046846341341734,18.03347021341324 1.7173733562231064,17.883075773715973 1.7173733562231064,17.883075773715973 2.3494914174079895,17.751826345920563 2.3494914174079895,17.751826345920563 2.819485031068325,17.659033834934235 2.819485031068325,17.659033834934235 3.0036868527531624,17.623867094516754 3.0036868527531624,17.623867094516754 3.5411767661571503,17.08637773990631 3.5411767661571503,17.08637773990631 3.5059861838817596,16.801944375038147 3.5059861838817596,16.801944375038147 3.4132178872823715,16.090862452983856 3.4132178872823715,16.090862452983856 3.282063826918602,15.166445076465607 3.282063826918602,15.166445076465607 3.131669759750366,14.242002367973328 3.131669759750366,14.242002367973328 2.981323190033436,13.530920445919037 2.981323190033436,13.530920445919037 2.850145660340786,13.246510922908783 2.850145660340786,13.246510922908783 2.701873332262039,13.235138356685638 2.701873332262039,13.235138356685638 2.5088023394346237,13.206647336483002 2.5088023394346237,13.206647336483002 2.3029282689094543,13.16964477300644 2.3029282689094543,13.16964477300644 2.1162468940019608,13.132594525814056 2.1162468940019608,13.132594525814056 1.9807778298854828,13.10415118932724 1.9807778298854828,13.10415118932724 1.9285164773464203,13.092778623104095 1.9285164773464203,13.092778623104095 2.0238121971488,12.98367828130722 2.0238121971488,12.98367828130722 2.3580029606819153,12.680411338806152 2.3580029606819153,12.680411338806152 3.003639169037342,12.21931055188179 3.003639169037342,12.21931055188179 4.033247753977776,11.63656860589981 4.033247753977776,11.63656860589981 5.519379675388336,10.968449711799622 5.519379675388336,10.968449711799622 7.534585148096085,10.25121659040451 7.534585148096085,10.25121659040451 10.051803290843964,9.574060887098312 10.051803290843964,9.574060887098312 12.901781499385834,9.005624800920486 12.901781499385834,9.005624800920486 15.943783521652222,8.552344143390656 15.943783521652222,8.552344143390656 19.036924839019775,8.220585435628891 19.036924839019775,8.220585435628891 22.040468454360962,8.016856759786606 22.040468454360962,8.016856759786606 24.8136043548584,7.947525382041931 24.8136043548584,7.947525382041931 32.262930274009705,7.947525382041931 32.262930274009705,7.947525382041931 32.20923840999603,7.96566903591156 32.20923840999603,7.96566903591156 32.08938539028168,8.015783876180649 32.08938539028168,8.015783876180649 31.965291500091553,8.091529458761215 31.965291500091553,8.091529458761215 31.898772716522217,8.186443895101547 31.898772716522217,8.186443895101547 31.951749324798584,8.294209092855453 31.951749324798584,8.294209092855453 32.18606412410736,8.408339321613312 32.18606412410736,8.408339321613312 32.81043469905853,8.262570947408676 32.81043469905853,8.262570947408676 33.92966389656067,7.677373290061951 33.92966389656067,7.677373290061951 35.449960827827454,6.7764632403850555 35.449960827827454,6.7764632403850555 37.27738857269287,5.683554336428642 37.27738857269287,5.683554336428642 39.31820094585419,4.522434249520302 39.31820094585419,4.522434249520302 41.47845804691315,3.416818007826805 41.47845804691315,3.416818007826805 43.578970432281494,2.4251652881503105 43.578970432281494,2.4251652881503105 45.63680589199066,1.5508145093917847 45.63680589199066,1.5508145093917847 47.852471470832825,0.8343680761754513 47.852471470832825,0.8343680761754513 50.426483154296875,0.31630932353436947 50.426483154296875,0.31630932353436947 53.55939269065857,0.03728859592229128 53.55939269065857,0.03728859592229128 57.45171308517456,0.03776543017011136 57.45171308517456,0.03776543017011136 61.310768127441406,0.2062555169686675 61.310768127441406,0.2062555169686675 64.41466212272644,0.4387608729302883 64.41466212272644,0.4387608729302883 67.0705497264862,0.786493718624115 67.0705497264862,0.786493718624115 69.5855975151062,1.300570834428072 69.5855975151062,1.300570834428072 72.26703763008118,2.032252214848995 72.26703763008118,2.032252214848995 75.42195320129395,3.0326785519719124 75.42195320129395,3.0326785519719124 78.63287329673767,4.116980358958244 78.63287329673767,4.116980358958244 81.29550218582153,5.051936954259872 81.29550218582153,5.051936954259872 83.43766331672668,5.816305428743362 83.43766331672668,5.816305428743362 85.08699536323547,6.388652324676514 85.08699536323547,6.388652324676514 86.27128601074219,6.747709959745407 86.27128601074219,6.747709959745407 87.01822757720947,6.872163712978363 87.01822757720947,6.872163712978363 88.1279706954956,6.83806985616684 88.1279706954956,6.83806985616684 90.08447527885437,6.75278827548027 90.08447527885437,6.75278827548027 92.44204759597778,6.641947478055954 92.44204759597778,6.641947478055954 94.75473165512085,6.531058996915817 94.75473165512085,6.531058996915817 96.57686352729797,6.445824354887009 96.57686352729797,6.445824354887009 97.46246933937073,6.411731243133545 97.46246933937073,6.411731243133545 97.61000275611877,6.596266478300095 97.61000275611877,6.596266478300095 97.56768345832825,7.068739831447601 97.56768345832825,7.068739831447601 97.4144995212555,7.707628607749939 97.4144995212555,7.707628607749939 97.2292959690094,8.3912692964077 97.2292959690094,8.3912692964077 97.09106087684631,8.998138457536697 97.09106087684631,8.998138457536697 97.07871079444885,9.406644105911255 97.07871079444885,9.406644105911255 97.17851281166077,9.69579741358757 97.17851281166077,9.69579741358757 97.31462597846985,10.029654204845428 97.31462597846985,10.029654204845428 97.47210144996643,10.414675623178482 97.47210144996643,10.414675623178482 97.63596653938293,10.857275128364563 97.63596653938293,10.857275128364563 97.79134392738342,11.363937705755234 97.79134392738342,11.363937705755234 97.92328476905823,11.941123753786087 97.92328476905823,11.941123753786087 98.02461266517639,12.489914894104004 98.02461266517639,12.489914894104004 98.11955094337463,12.927864491939545 98.11955094337463,12.927864491939545 98.24009537696838,13.284800946712494 98.24009537696838,13.284800946712494 98.41819405555725,13.590596616268158 98.41819405555725,13.590596616268158 98.68593215942383,13.875076174736023 98.68593215942383,13.875076174736023 99.0753173828125,14.168140292167664 99.0753173828125,14.168140292167664 99.45826530456543,14.474911987781525 99.45826530456543,14.474911987781525 99.70674514770508,14.80519324541092 99.70674514770508,14.80519324541092 99.85284805297852,15.195246040821075 99.85284805297852,15.195246040821075 99.92854595184326,15.681260824203491 99.92854595184326,15.681260824203491 99.96590614318848,16.299574077129364 99.96590614318848,16.299574077129364" stroke="white" stroke-width="0.1" /><polygon points="63.44192028045654,7.947525382041931 63.44192028045654,7.947525382041931 63.54100704193115,7.618317008018494 63.54100704193115,7.618317008018494 63.79086971282959,6.781374663114548 63.79086971282959,6.781374663114548 64.12035822868347,5.662859603762627 64.12035822868347,5.662859603762627 64.45836424827576,4.488864913582802 64.45836424827576,4.488864913582802 64.73378539085388,3.4855298697948456 64.73378539085388,3.4855298697948456 64.87547755241394,2.8789466246962547 64.87547755241394,2.8789466246962547 64.65691924095154,2.571387216448784 64.65691924095154,2.571387216448784 63.98043632507324,2.3121312260627747 63.98043632507324,2.3121312260627747 62.96837329864502,2.0983656868338585 62.96837329864502,2.0983656868338585 61.74294948577881,1.9272290170192719 61.74294948577881,1.9272290170192719 60.42647957801819,1.7959561198949814 60.42647957801819,1.7959561198949814 59.141236543655396,1.7017332836985588 59.141236543655396,1.7017332836985588 57.82387852668762,1.643630675971508 57.82387852668762,1.643630675971508 56.36712312698364,1.6296355053782463 56.36712312698364,1.6296355053782463 54.827916622161865,1.6697375103831291 54.827916622161865,1.6697375103831291 53.26308608055115,1.773783192038536 53.26308608055115,1.773783192038536 51.7295777797699,1.951809972524643 51.7295777797699,1.951809972524643 50.2842903137207,2.2136645391583443 50.2842903137207,2.2136645391583443 48.77443611621857,2.6848027482628822 48.77443611621857,2.6848027482628822 47.130900621414185,3.389161452651024 47.130900621414185,3.389161452651024 45.53574025630951,4.184619709849358 45.53574025630951,4.184619709849358 44.170939922332764,4.928841814398766 44.170939922332764,4.928841814398766 43.21862459182739,5.479706823825836 43.21862459182739,5.479706823825836 42.860713601112366,5.694950744509697 42.860713601112366,5.694950744509697 43.734896183013916,5.8037169277668 43.734896183013916,5.8037169277668 44.34164762496948,6.053197756409645 44.34164762496948,6.053197756409645 44.729408621788025,6.405150890350342 44.729408621788025,6.405150890350342 44.94648873806,6.821047514677048 44.94648873806,6.821047514677048 45.04130780696869,7.262668758630753 45.04130780696869,7.262668758630753 45.062169432640076,7.691559195518494 45.062169432640076,7.691559195518494 45.02047002315521,8.04799422621727 45.02047002315521,8.04799422621727 44.91618573665619,8.307751268148422 44.91618573665619,8.307751268148422 44.78064477443695,8.485062420368195 44.78064477443695,8.485062420368195 44.6450799703598,8.594091236591339 44.6450799703598,8.594091236591339 44.54081952571869,8.64911824464798 44.54081952571869,8.64911824464798 44.499123096466064,8.66430550813675 44.499123096466064,8.66430550813675" stroke="white" stroke-width="0.1" /><polygon points="78.85212302207947,7.230744510889053 78.85212302207947,7.230744510889053 79.039067029953,7.042919099330902 79.039067029953,7.042919099330902 79.305499792099,6.717049330472946 79.305499792099,6.717049330472946 79.51788306236267,6.302964687347412 79.51788306236267,6.302964687347412 79.54248785972595,5.850423127412796 79.54248785972595,5.850423127412796 79.24568057060242,5.409277975559235 79.24568057060242,5.409277975559235 78.49392294883728,5.029287189245224 78.49392294883728,5.029287189245224 77.14084982872009,4.622212052345276 77.14084982872009,4.622212052345276 75.33118724822998,4.1269224137067795 75.33118724822998,4.1269224137067795 73.36793541908264,3.6344457417726517 73.36793541908264,3.6344457417726517 71.5539276599884,3.2357867807149887 71.5539276599884,3.2357867807149887 70.1921820640564,3.0220450833439827 70.1921820640564,3.0220450833439827 69.58547830581665,3.084176778793335 69.58547830581665,3.084176778793335 69.50966119766235,3.339427337050438 69.50966119766235,3.339427337050438 69.32002305984497,3.9828702807426453 69.32002305984497,3.9828702807426453 69.07354593276978,4.831066355109215 69.07354593276978,4.831066355109215 68.82704496383667,5.700577422976494 68.82704496383667,5.700577422976494 68.63745450973511,6.4080119132995605 68.63745450973511,6.4080119132995605 68.5616135597229,6.769930571317673 68.5616135597229,6.769930571317673 68.59265565872192,6.907998025417328 68.59265565872192,6.907998025417328 68.70759725570679,7.054458558559418 68.70759725570679,7.054458558559418 68.93917322158813,7.1923598647117615 68.93917322158813,7.1923598647117615 69.32007074356079,7.304630428552628 69.32007074356079,7.304630428552628 69.88304853439331,7.374344021081924 69.88304853439331,7.374344021081924 70.66083550453186,7.384476810693741 70.66083550453186,7.384476810693741 71.8755304813385,7.369408756494522 71.8755304813385,7.369408756494522 73.53529930114746,7.367167621850967 73.53529930114746,7.367167621850967 75.35157203674316,7.364974170923233 75.35157203674316,7.364974170923233 77.03554034233093,7.350001484155655 77.03554034233093,7.350001484155655 78.29863429069519,7.30954185128212 78.29863429069519,7.30954185128212" stroke="white" stroke-width="0.1" /><polygon points="19.053995609283447,14.244815707206726 19.053995609283447,14.244815707206726 21.09554558992386,14.519138634204865 21.09554558992386,14.519138634204865 22.930030524730682,15.293282270431519 22.930030524730682,15.293282270431519 24.48427826166153,16.49405211210251 24.48427826166153,16.49405211210251 25.68504810333252,18.048228323459625 25.68504810333252,18.048228323459625 26.459214091300964,19.88271325826645 26.459214091300964,19.88271325826645 26.733538508415222,21.92416787147522 26.733538508415222,21.92416787147522 26.70893371105194,22.541718184947968 26.70893371105194,22.541718184947968 26.636406779289246,23.145726323127747 26.636406779289246,23.145726323127747 26.51791274547577,23.734429478645325 26.51791274547577,23.734429478645325 26.355406641960144,24.30591732263565 26.355406641960144,24.30591732263565 26.150891184806824,24.858474731445312 26.150891184806824,24.858474731445312 25.90632140636444,25.390195846557617 25.90632140636444,25.390195846557617 25.166845321655273,26.57017409801483 25.166845321655273,26.57017409801483 24.232102930545807,27.5934636592865 24.232102930545807,27.5934636592865 23.12782108783722,28.43431830406189 23.12782108783722,28.43431830406189 21.879583597183228,29.066839814186096 21.879583597183228,29.066839814186096 20.51311433315277,29.465332627296448 20.51311433315277,29.465332627296448 19.053995609283447,29.603901505470276 19.053995609283447,29.603901505470276 17.551103234291077,29.456797242164612 17.551103234291077,29.456797242164612 16.147391498088837,29.034295678138733 16.147391498088837,29.034295678138733 14.87104445695877,28.364700078964233 14.87104445695877,28.364700078964233 13.750144839286804,27.47625708580017 13.750144839286804,27.47625708580017 12.8129243850708,26.39724910259247 12.8129243850708,26.39724910259247 12.087417393922806,25.155973434448242 12.087417393922806,25.155973434448242 11.87613159418106,24.655580520629883 11.87613159418106,24.655580520629883 11.699701845645905,24.13804680109024 11.699701845645905,24.13804680109024 11.559773981571198,23.604729771614075 11.559773981571198,23.604729771614075 11.45785078406334,23.057010769844055 11.45785078406334,23.057010769844055 11.395552009344101,22.49637097120285 11.395552009344101,22.49637097120285 11.374451965093613,21.92416787147522 11.374451965093613,21.92416787147522 11.64877563714981,19.88271325826645 11.64877563714981,19.88271325826645 12.422966957092285,18.048252165317535 12.422966957092285,18.048252165317535 13.623784482479095,16.49405211210251 13.623784482479095,16.49405211210251 15.178032219409943,15.293258428573608 15.178032219409943,15.293258428573608 17.012515664100647,14.519114792346954 17.012515664100647,14.519114792346954" stroke="white" stroke-width="0.1" /><polygon points="78.57059836387634,14.244815707206726 78.57059836387634,14.244815707206726 80.61221837997437,14.519138634204865 80.61221837997437,14.519138634204865 82.44677782058716,15.293282270431519 82.44677782058716,15.293282270431519 84.00104641914368,16.49405211210251 84.00104641914368,16.49405211210251 85.20181775093079,18.048228323459625 85.20181775093079,18.048228323459625 85.9760046005249,19.88271325826645 85.9760046005249,19.88271325826645 86.25032901763916,21.92416787147522 86.25032901763916,21.92416787147522 86.23652458190918,22.38810509443283 86.23652458190918,22.38810509443283 86.19558811187744,22.844724357128143 86.19558811187744,22.844724357128143 86.12840175628662,23.293307423591614 86.12840175628662,23.293307423591614 86.03572845458984,23.732998967170715 86.03572845458984,23.732998967170715 85.91843247413635,24.163033068180084 85.91843247413635,24.163033068180084 85.77731251716614,24.582625925540924 85.77731251716614,24.582625925540924 85.0976288318634,25.972220301628113 85.0976288318634,25.972220301628113 84.16312336921692,27.187010645866394 84.16312336921692,27.187010645866394 83.00850987434387,28.192323446273804 83.00850987434387,28.192323446273804 81.66841268539429,28.953352570533752 81.66841268539429,28.953352570533752 80.1775574684143,29.435482621192932 80.1775574684143,29.435482621192932 78.57059836387634,29.603901505470276 78.57059836387634,29.603901505470276 77.11095213890076,29.465261101722717 77.11095213890076,29.465261101722717 75.74403285980225,29.066506028175354 75.74403285980225,29.066506028175354 74.4955062866211,28.433507680892944 74.4955062866211,28.433507680892944 73.39096665382385,27.5920569896698 73.39096665382385,27.5920569896698 72.45619893074036,26.567980647087097 72.45619893074036,26.567980647087097 71.71674370765686,25.387144088745117 71.71674370765686,25.387144088745117 71.4726984500885,24.855875968933105 71.4726984500885,24.855875968933105 71.26858830451965,24.303843080997467 71.26858830451965,24.303843080997467 71.10643982887268,23.732903599739075 71.10643982887268,23.732903599739075 70.9881603717804,23.14474880695343 70.9881603717804,23.14474880695343 70.91580033302307,22.541265189647675 70.91580033302307,22.541265189647675 70.89124321937561,21.92416787147522 70.89124321937561,21.92416787147522 71.16556763648987,19.88271325826645 71.16556763648987,19.88271325826645 71.93971276283264,18.048252165317535 71.93971276283264,18.048252165317535 73.14048409461975,16.49405211210251 73.14048409461975,16.49405211210251 74.69465732574463,15.293258428573608 74.69465732574463,15.293258428573608 76.52912139892578,14.519114792346954 76.52912139892578,14.519114792346954" stroke="white" stroke-width="0.1" /></svg>