<?xml version="1.0" encoding="utf-8" ?>
<svg baseProfile="full" height="41.5114551782608" version="1.1" width="100.0" xmlns="http://www.w3.org/2000/svg" xmlns:ev="http://www.w3.org/2001/xml-events" xmlns:xlink="http://www.w3.org/1999/xlink"><defs><clipPath /></defs><polygon points="99.85809326171875,16.433684527873993 99.85809326171875,16.433684527873993 100.0,26.563212275505066 100.0,26.563212275505066 99.83241558074951,26.616021990776062 99.83241558074951,26.616021990776062 99.39126968383789,26.761290431022644 99.39126968383789,26.761290431022644 98.76914024353027,26.979395747184753 98.76914024353027,26.979395747184753 98.05846810340881,27.25062072277069 98.05846810340881,27.25062072277069 97.35174775123596,27.55536437034607 97.35174775123596,27.55536437034607 96.7414915561676,27.873939275741577 96.7414915561676,27.873939275741577 95.86706757545471,28.10315489768982 95.86706757545471,28.10315489768982 94.50002908706665,28.184741735458374 94.50002908706665,28.184741735458374 92.93097257614136,28.16600203514099 92.93097257614136,28.16600203514099 91.45047068595886,28.09414267539978 91.45047068595886,28.09414267539978 90.34907221794128,28.01639437675476 90.34907221794128,28.01639437675476 89.91739153862,27.979987859725952 89.91739153862,27.979987859725952 88.94360065460205,26.92870795726776 88.94360065460205,26.92870795726776 87.82660961151123,26.028844714164734 87.82660961151123,26.028844714164734 86.58411502838135,25.298166275024414 86.58411502838135,25.298166275024414 85.23371815681458,24.75430965423584 85.23371815681458,24.75430965423584 83.7930977344513,24.415065348148346 83.7930977344513,24.415065348148346 82.27981328964233,24.2980495095253 82.27981328964233,24.2980495095253 80.76647520065308,24.415089190006256 80.76647520065308,24.415089190006256 79.32576537132263,24.75433349609375 79.32576537132263,24.75433349609375 77.97533869743347,25.298166275024414 77.97533869743347,25.298166275024414 76.73282027244568,26.028844714164734 76.73282027244568,26.028844714164734 75.61583518981934,26.92868411540985 75.61583518981934,26.92868411540985 74.64203834533691,27.979987859725952 74.64203834533691,27.979987859725952 73.50735664367676,27.979987859725952 73.50735664367676,27.979987859725952 70.10732889175415,32.58431851863861 70.10732889175415,32.58431851863861 63.30726146697998,32.58431851863861 63.30726146697998,32.58431851863861 63.378024101257324,34.3550980091095 63.378024101257324,34.3550980091095 35.114794969558716,34.3550980091095 35.114794969558716,34.3550980091095 34.4771683216095,33.788615465164185 34.4771683216095,33.788615465164185 27.322909235954285,33.788615465164185 27.322909235954285,33.788615465164185 26.67383849620819,34.03847813606262 26.67383849620819,34.03847813606262 26.316723227500916,31.451094150543213 26.316723227500916,31.451094150543213 25.326430797576904,29.124847054481506 25.326430797576904,29.124847054481506 23.79622757434845,27.153107523918152 23.79622757434845,27.153107523918152 21.819382905960083,25.629162788391113 21.819382905960083,25.629162788391113 19.48917955160141,24.646353721618652 19.48917955160141,24.646353721618652 16.898885369300842,24.2980495095253 16.898885369300842,24.2980495095253 15.150494873523712,24.454738199710846 15.150494873523712,24.454738199710846 13.503526151180267,24.906373023986816 13.503526151180267,24.906373023986816 11.985493451356888,25.62546730041504 11.985493451356888,25.62546730041504 10.623864084482193,26.584431529045105 10.623864084482193,26.584431529045105 9.446161985397339,27.755731344223022 9.446161985397339,27.755731344223022 8.47986489534378,29.11180555820465 8.47986489534378,29.11180555820465 4.693976044654846,25.66065788269043 4.693976044654846,25.66065788269043 4.693976044654846,25.660276412963867 4.693976044654846,25.660276412963867 4.3072618544101715,25.727081298828125 4.3072618544101715,25.727081298828125 3.7302661687135696,25.82533061504364 3.7302661687135696,25.82533061504364 3.070181794464588,25.93526542186737 3.070181794464588,25.93526542186737 2.4341298267245293,26.037022471427917 2.4341298267245293,26.037022471427917 1.9293032586574554,26.11076533794403 1.9293032586574554,26.11076533794403 1.6628233715891838,26.13672912120819 1.6628233715891838,26.13672912120819 1.4971227385103703,26.10606849193573 1.4971227385103703,26.10606849193573 1.2690281495451927,26.033255457878113 1.2690281495451927,26.033255457878113 1.0052661411464214,25.9304016828537 1.0052661411464214,25.9304016828537 0.7325277663767338,25.809618830680847 0.7325277663767338,25.809618830680847 0.47755148261785507,25.683140754699707 0.47755148261785507,25.683140754699707 0.26702829636633396,25.56300163269043 0.26702829636633396,25.56300163269043 0.12383437715470791,25.45604705810547 0.12383437715470791,25.45604705810547 0.04223576979711652,25.362730026245117 0.04223576979711652,25.362730026245117 0.006389605550793931,25.285673141479492 0.006389605550793931,25.285673141479492 0.0004172316948825028,25.22740364074707 0.0004172316948825028,25.22740364074707 0.008475764479953796,25.19054412841797 0.008475764479953796,25.19054412841797 0.014686556824017316,25.177717208862305 0.014686556824017316,25.177717208862305 0.1035926747135818,24.636030197143555 0.1035926747135818,24.636030197143555 0.3275388153269887,23.27456772327423 0.3275388153269887,23.27456772327423 0.6223190110176802,21.488815546035767 0.6223190110176802,21.488815546035767 0.9237390942871571,19.674240052700043 0.9237390942871571,19.674240052700043 1.167605072259903,18.226422369480133 1.167605072259903,18.226422369480133 1.2897467240691185,17.54070818424225 1.2897467240691185,17.54070818424225 1.3410423882305622,17.393317818641663 1.3410423882305622,17.393317818641663 1.4078113250434399,17.29094088077545 1.4078113250434399,17.29094088077545 1.479003019630909,17.225471138954163 1.479003019630909,17.225471138954163 1.543542742729187,17.188730835914612 1.543542742729187,17.188730835914612 1.590391993522644,17.172709107398987 1.590391993522644,17.172709107398987 1.6084641218185425,17.169156670570374 1.6084641218185425,17.169156670570374 5.639446899294853,17.16114580631256 5.639446899294853,17.16114580631256 6.314957141876221,17.027607560157776 6.314957141876221,17.027607560157776 8.065708726644516,16.68931692838669 8.065708726644516,16.68931692838669 10.478047281503677,16.239802539348602 10.478047281503677,16.239802539348602 13.138304650783539,15.77252745628357 13.138304650783539,15.77252745628357 15.632826089859009,15.381044149398804 15.632826089859009,15.381044149398804 17.547956109046936,15.158815681934357 17.547956109046936,15.158815681934357 19.184385240077972,15.053577721118927 19.184385240077972,15.053577721118927 20.982153713703156,14.954204857349396 20.982153713703156,14.954204857349396 22.736649215221405,14.866657555103302 22.736649215221405,14.866657555103302 24.24321323633194,14.796777069568634 24.24321323633194,14.796777069568634 25.297212600708008,14.750571548938751 25.297212600708008,14.750571548938751 25.69403648376465,14.733858406543732 25.69403648376465,14.733858406543732 26.55138671398163,15.24311900138855 26.55138671398163,15.24311900138855 27.136263251304626,14.825935661792755 27.136263251304626,14.825935661792755 28.65578532218933,13.748809695243835 28.65578532218933,13.748809695243835 30.757319927215576,12.273479253053665 30.757319927215576,12.273479253053665 33.08819234371185,10.66162958741188 33.08819234371185,10.66162958741188 35.29579937458038,9.174997359514236 35.29579937458038,9.174997359514236 37.02747821807861,8.075316995382309 37.02747821807861,8.075316995382309 37.570929527282715,7.753357291221619 37.570929527282715,7.753357291221619 38.09022903442383,7.450280338525772 38.09022903442383,7.450280338525772 38.59221637248993,7.1647509932518005 38.59221637248993,7.1647509932518005 39.08374011516571,6.895337998867035 39.08374011516571,6.895337998867035 39.57166373729706,6.640707701444626 39.57166373729706,6.640707701444626 40.06282687187195,6.399524211883545 40.06282687187195,6.399524211883545 39.34738337993622,5.684269592165947 39.34738337993622,5.684269592165947 39.31076228618622,5.6420933455228806 39.31076228618622,5.6420933455228806 39.28005397319794,5.595744773745537 39.28005397319794,5.595744773745537 39.25559222698212,5.545987188816071 39.25559222698212,5.545987188816071 39.2377108335495,5.493535101413727 39.2377108335495,5.493535101413727 39.22674357891083,5.439199507236481 39.22674357891083,5.439199507236481 39.22302424907684,5.383671820163727 39.22302424907684,5.383671820163727 39.22302424907684,0.4249564837664366 39.22302424907684,0.4249564837664366 39.23821151256561,0.31201778911054134 39.23821151256561,0.31201778911054134 39.281055331230164,0.21049936767667532 39.281055331230164,0.21049936767667532 39.34752643108368,0.12450194917619228 39.34752643108368,0.12450194917619228 39.43352401256561,0.05800712970085442 39.43352401256561,0.05800712970085442 39.53504264354706,0.015163392527028918 39.53504264354706,0.015163392527028918 39.64798152446747,0.0 39.64798152446747,0.0 39.752158522605896,0.012946104106958956 39.752158522605896,0.012946104106958956 39.84671235084534,0.04963865503668785 39.84671235084534,0.04963865503668785 39.92862105369568,0.10690668132156134 39.92862105369568,0.10690668132156134 39.99480605125427,0.1814838731661439 39.99480605125427,0.1814838731661439 40.04220366477966,0.2702707890421152 40.04220366477966,0.2702707890421152 40.06778597831726,0.37002493627369404 40.06778597831726,0.37002493627369404 40.27922749519348,0.5087365861982107 40.27922749519348,0.5087365861982107 40.46747088432312,0.7760033011436462 40.46747088432312,0.7760033011436462 40.62570929527283,1.1534668505191803 40.62570929527283,1.1534668505191803 40.74713587760925,1.6226259991526604 40.74713587760925,1.6226259991526604 40.82500338554382,2.1651703864336014 40.82500338554382,2.1651703864336014 40.85246920585632,2.762598544359207 40.85246920585632,2.762598544359207 40.82522988319397,3.357570990920067 40.82522988319397,3.357570990920067 40.74799418449402,3.8982316851615906 40.74799418449402,3.8982316851615906 40.62747359275818,4.366341978311539 40.62747359275818,4.366341978311539 40.470367670059204,4.743662476539612 40.470367670059204,4.743662476539612 40.283411741256714,5.012073367834091 40.283411741256714,5.012073367834091 40.07331728935242,5.1532648503780365 40.07331728935242,5.1532648503780365 40.07331728935242,5.207433179020882 40.07331728935242,5.207433179020882 40.89977145195007,6.0340765863657 40.89977145195007,6.0340765863657 41.89660847187042,5.681790038943291 41.89660847187042,5.681790038943291 43.020522594451904,5.382479727268219 43.020522594451904,5.382479727268219 44.317543506622314,5.137672275304794 44.317543506622314,5.137672275304794 45.83364427089691,4.948940500617027 45.83364427089691,4.948940500617027 47.614842653274536,4.817953333258629 47.614842653274536,4.817953333258629 49.70712661743164,4.746237397193909 49.70712661743164,4.746237397193909 50.38924217224121,4.736390709877014 50.38924217224121,4.736390709877014 52.14170813560486,4.714694619178772 52.14170813560486,4.714694619178772 54.52384352684021,4.69302237033844 54.52384352684021,4.69302237033844 57.09484815597534,4.683151841163635 57.09484815597534,4.683151841163635 59.41401124000549,4.696932435035706 59.41401124000549,4.696932435035706 61.040568351745605,4.746237397193909 61.040568351745605,4.746237397193909 61.614155769348145,4.786529764533043 61.614155769348145,4.786529764533043 62.20657825469971,4.836001619696617 62.20657825469971,4.836001619696617 62.80505657196045,4.892292246222496 62.80505657196045,4.892292246222496 63.39678764343262,4.952969774603844 63.39678764343262,4.952969774603844 63.96899223327637,5.015721172094345 63.96899223327637,5.015721172094345 64.50888514518738,5.078115314245224 64.50888514518738,5.078115314245224 64.58666920661926,5.014505237340927 64.58666920661926,5.014505237340927 64.67909216880798,4.942217096686363 64.67909216880798,4.942217096686363 64.78564143180847,4.862966760993004 64.78564143180847,4.862966760993004 64.90578055381775,4.778352379798889 64.90578055381775,4.778352379798889 65.03903269767761,4.690065979957581 65.03903269767761,4.690065979957581 65.18484950065613,4.599753022193909 65.18484950065613,4.599753022193909 65.45233130455017,4.450741782784462 65.45233130455017,4.450741782784462 65.75128436088562,4.308048635721207 65.75128436088562,4.308048635721207 66.07953906059265,4.180900380015373 66.07953906059265,4.180900380015373 66.43490195274353,4.078380391001701 66.43490195274353,4.078380391001701 66.81520342826843,4.009715840220451 66.81520342826843,4.009715840220451 67.21826791763306,3.984062373638153 67.21826791763306,3.984062373638153 67.45157241821289,3.99274080991745 67.45157241821289,3.99274080991745 67.68951416015625,4.020492359995842 67.68951416015625,4.020492359995842 67.93068647384644,4.068652912974358 67.93068647384644,4.068652912974358 68.17363500595093,4.138604924082756 68.17363500595093,4.138604924082756 68.41698884963989,4.231778532266617 68.41698884963989,4.231778532266617 68.6592698097229,4.349509626626968 68.6592698097229,4.349509626626968 68.99294853210449,4.533973708748817 68.99294853210449,4.533973708748817 69.503653049469,4.823103174567223 69.503653049469,4.823103174567223 70.17518281936646,5.207290127873421 70.17518281936646,5.207290127873421 70.99130749702454,5.676926299929619 70.99130749702454,5.676926299929619 71.9358503818512,6.222522258758545 71.9358503818512,6.222522258758545 72.99256920814514,6.834398955106735 72.99256920814514,6.834398955106735 74.1426944732666,7.5016118586063385 74.1426944732666,7.5016118586063385 75.36954879760742,8.21433886885643 75.36954879760742,8.21433886885643 76.65590643882751,8.962471038103104 76.65590643882751,8.962471038103104 77.98447012901306,9.735756367444992 77.98447012901306,9.735756367444992 79.33802008628845,10.52415743470192 79.33802008628845,10.52415743470192 80.69919347763062,11.317422240972519 80.69919347763062,11.317422240972519 82.36321210861206,12.28802278637886 82.36321210861206,12.28802278637886 83.98011326789856,13.231657445430756 83.98011326789856,13.231657445430756 85.51753163337708,14.12932574748993 85.51753163337708,14.12932574748993 86.94303035736084,14.961929619312286 86.94303035736084,14.961929619312286 88.22426795959473,15.710467100143433 88.22426795959473,15.710467100143433 89.32878375053406,16.355864703655243 89.32878375053406,16.355864703655243" stroke="white" stroke-width="0.1" /><polygon points="16.898885369300842,26.63569152355194 16.898885369300842,26.63569152355194 18.876159191131592,26.901409029960632 18.876159191131592,26.901409029960632 20.652887225151062,27.651208639144897 20.652887225151062,27.651208639144897 22.158175706863403,28.81426215171814 22.158175706863403,28.81426215171814 23.321130871772766,30.319586396217346 23.321130871772766,30.319586396217346 24.07090812921524,32.09632337093353 24.07090812921524,32.09632337093353 24.33657795190811,34.07357335090637 24.33657795190811,34.07357335090637 24.07090812921524,36.05082333087921 24.07090812921524,36.05082333087921 23.32114279270172,37.827515602111816 23.32114279270172,37.827515602111816 22.158175706863403,39.33288753032684 22.158175706863403,39.33288753032684 20.652875304222107,40.495866537094116 20.652875304222107,40.495866537094116 18.876159191131592,41.24574065208435 18.876159191131592,41.24574065208435 16.898885369300842,41.5114551782608 16.898885369300842,41.5114551782608 14.921684563159943,41.24576449394226 14.921684563159943,41.24576449394226 13.144968450069427,40.49591422080994 13.144968450069427,40.49591422080994 11.639668047428131,39.33288753032684 11.639668047428131,39.33288753032684 10.476664453744888,37.827515602111816 10.476664453744888,37.827515602111816 9.726875275373459,36.05075180530548 9.726875275373459,36.05075180530548 9.461194276809692,34.07357335090637 9.461194276809692,34.07357335090637 9.726887196302414,32.09637105464935 9.726887196302414,32.09637105464935 10.476664453744888,30.319610238075256 10.476664453744888,30.319610238075256 11.639668047428131,28.81426215171814 11.639668047428131,28.81426215171814 13.144968450069427,27.651184797286987 13.144968450069427,27.651184797286987 14.921672642230988,26.901361346244812 14.921672642230988,26.901361346244812" stroke="white" stroke-width="0.1" /><polygon points="82.27981328964233,26.63569152355194 82.27981328964233,26.63569152355194 84.25701260566711,26.901409029960632 84.25701260566711,26.901409029960632 86.03372573852539,27.651208639144897 86.03372573852539,27.651208639144897 87.53902912139893,28.81426215171814 87.53902912139893,28.81426215171814 88.70201110839844,30.319586396217346 88.70201110839844,30.319586396217346 89.45180773735046,32.09632337093353 89.45180773735046,32.09632337093353 89.71750140190125,34.07357335090637 89.71750140190125,34.07357335090637 89.45183157920837,36.05082333087921 89.45183157920837,36.05082333087921 88.70203495025635,37.827515602111816 88.70203495025635,37.827515602111816 87.53902912139893,39.33288753032684 87.53902912139893,39.33288753032684 86.03370189666748,40.495866537094116 86.03370189666748,40.495866537094116 84.25701260566711,41.24574065208435 84.25701260566711,41.24574065208435 82.27981328964233,41.5114551782608 82.27981328964233,41.5114551782608 80.30253648757935,41.24576449394226 80.30253648757935,41.24576449394226 78.52582335472107,40.49591422080994 78.52582335472107,40.49591422080994 77.02051997184753,39.33288753032684 77.02051997184753,39.33288753032684 75.8575439453125,37.827515602111816 75.8575439453125,37.827515602111816 75.10778903961182,36.05075180530548 75.10778903961182,36.05075180530548 74.84211921691895,34.07357335090637 74.84211921691895,34.07357335090637 75.10781288146973,32.09637105464935 75.10781288146973,32.09637105464935 75.8575439453125,30.319610238075256 75.8575439453125,30.319610238075256 77.02051997184753,28.81426215171814 77.02051997184753,28.81426215171814 78.52579951286316,27.651184797286987 78.52579951286316,27.651184797286987 80.30251264572144,26.901361346244812 80.30251264572144,26.901361346244812" stroke="white" stroke-width="0.1" /><polygon points="1.3650868088006973,25.217390060424805 1.3650868088006973,25.217390060424805 2.781672030687332,18.02784353494644 2.781672030687332,18.02784353494644 2.0734747871756554,17.99236685037613 2.0734747871756554,17.99236685037613 0.8338912390172482,24.987363815307617 0.8338912390172482,24.987363815307617" stroke="white" stroke-width="0.1" /><polygon points="2.2327380254864693,25.182294845581055 2.2327380254864693,25.182294845581055 3.915207087993622,24.96943473815918 3.915207087993622,24.96943473815918 3.7380147725343704,24.774885177612305 3.7380147725343704,24.774885177612305 2.4099303409457207,24.38502460718155 2.4099303409457207,24.38502460718155" stroke="white" stroke-width="0.1" /><polygon points="3.5962991416454315,22.649721801280975 3.5962991416454315,22.649721801280975 3.773777559399605,22.181707620620728 3.773777559399605,22.181707620620728 4.0535371750593185,21.28473073244095 4.0535371750593185,21.28473073244095 4.375568777322769,20.18814980983734 4.375568777322769,20.18814980983734 4.679885506629944,19.121062755584717 4.679885506629944,19.121062755584717 4.906466230750084,18.3127298951149 4.906466230750084,18.3127298951149 4.9953363835811615,17.99236685037613 4.9953363835811615,17.99236685037613 3.7380147725343704,18.009914457798004 3.7380147725343704,18.009914457798004 2.462954632937908,23.97799640893936 2.462954632937908,23.97799640893936 2.5321554392576218,23.904229700565338 2.5321554392576218,23.904229700565338 2.7095623314380646,23.71237576007843 2.7095623314380646,23.71237576007843 2.949947491288185,23.44675362110138 2.949947491288185,23.44675362110138 3.2080352306365967,23.151543736457825 3.2080352306365967,23.151543736457825 3.438573330640793,22.871141135692596 3.438573330640793,22.871141135692596" stroke="white" stroke-width="0.1" /><polygon points="39.68383967876434,15.619248151779175 39.68383967876434,15.619248151779175 39.68383967876434,8.323272317647934 39.68383967876434,8.323272317647934 39.32212293148041,8.55301171541214 39.32212293148041,8.55301171541214 38.39568793773651,9.145767241716385 38.39568793773651,9.145767241716385 37.14263439178467,9.956913441419601 37.14263439178467,9.956913441419601 35.80104410648346,10.841801762580872 35.80104410648346,10.841801762580872 34.60901379585266,11.655832827091217 34.60901379585266,11.655832827091217 33.80463719367981,12.2543103992939 33.80463719367981,12.2543103992939 33.359429240226746,12.701940536499023 33.359429240226746,12.701940536499023 33.06473195552826,13.15443366765976 33.06473195552826,13.15443366765976 32.88811147212982,13.604949414730072 32.88811147212982,13.604949414730072 32.797083258628845,14.046570658683777 32.797083258628845,14.046570658683777 32.75922238826752,14.472480118274689 32.75922238826752,14.472480118274689 32.742056250572205,14.875765144824982 32.742056250572205,14.875765144824982 32.77696073055267,15.201325714588165 32.77696073055267,15.201325714588165 32.891544699668884,15.414708852767944 32.891544699668884,15.414708852767944 33.047470450401306,15.539616346359253 33.047470450401306,15.539616346359253 33.20634067058563,15.599578619003296 33.20634067058563,15.599578619003296 33.32980573177338,15.618246793746948 33.32980573177338,15.618246793746948 33.37949216365814,15.619248151779175 33.37949216365814,15.619248151779175" stroke="white" stroke-width="0.1" /><polygon points="50.09660720825195,13.954517245292664 50.09660720825195,13.954517245292664 50.16043186187744,12.984417378902435 50.16043186187744,12.984417378902435 50.264549255371094,11.670924723148346 50.264549255371094,11.670924723148346 50.38440227508545,10.231475532054901 50.38440227508545,10.231475532054901 50.49538612365723,8.883506804704666 50.49538612365723,8.883506804704666 50.57295560836792,7.844480872154236 50.57295560836792,7.844480872154236 50.5925178527832,7.331833988428116 50.5925178527832,7.331833988428116 50.56692361831665,7.156287133693695 50.56692361831665,7.156287133693695 50.50591230392456,6.990562379360199 50.50591230392456,6.990562379360199 50.37999153137207,6.844554841518402 50.37999153137207,6.844554841518402 50.159621238708496,6.728064268827438 50.159621238708496,6.728064268827438 49.81527328491211,6.650935858488083 49.81527328491211,6.650935858488083 49.31745529174805,6.62306472659111 49.31745529174805,6.62306472659111 48.61549437046051,6.621777266263962 48.61549437046051,6.621777266263962 47.72757589817047,6.624447554349899 47.72757589817047,6.624447554349899 46.72752022743225,6.640898436307907 46.72752022743225,6.640898436307907 45.689091086387634,6.680905073881149 45.689091086387634,6.680905073881149 44.68606412410736,6.754361838102341 44.68606412410736,6.754361838102341 43.79225969314575,6.8710193037986755 43.79225969314575,6.8710193037986755 43.597471714019775,6.9077834486961365 43.597471714019775,6.9077834486961365 43.09573173522949,7.011447846889496 43.09573173522949,7.011447846889496 42.411008477211,7.172189652919769 42.411008477211,7.172189652919769 41.667237877845764,7.380089908838272 41.667237877845764,7.380089908838272 40.988415479660034,7.625278830528259 40.988415479660034,7.625278830528259 40.49846529960632,7.897934317588806 40.49846529960632,7.897934317588806 40.533941984176636,15.512818098068237 40.533941984176636,15.512818098068237 41.13571047782898,15.51005244255066 41.13571047782898,15.51005244255066 42.64456331729889,15.502375364303589 42.64456331729889,15.502375364303589 44.61580216884613,15.490788221359253 44.61580216884613,15.490788221359253 46.6047465801239,15.476173162460327 46.6047465801239,15.476173162460327 48.16671907901764,15.459555387496948 48.16671907901764,15.459555387496948 48.85702431201935,15.441864728927612 48.85702431201935,15.441864728927612 49.01769459247589,15.420359373092651 49.01769459247589,15.420359373092651 49.25706386566162,15.363377332687378 49.25706386566162,15.363377332687378 49.52988624572754,15.22962599992752 49.52988624572754,15.22962599992752 49.79090690612793,14.97776061296463 49.79090690612793,14.97776061296463 49.99489784240723,14.566488564014435 49.99489784240723,14.566488564014435" stroke="white" stroke-width="0.1" /><polygon points="72.12110161781311,8.837110549211502 72.12110161781311,8.837110549211502 71.81980013847351,8.877594023942947 71.81980013847351,8.877594023942947 71.54905200004578,8.991844207048416 71.54905200004578,8.991844207048416 71.31968140602112,9.169084578752518 71.31968140602112,9.169084578752518 71.14246487617493,9.398490190505981 71.14246487617493,9.398490190505981 71.02823853492737,9.669332951307297 71.02823853492737,9.669332951307297 70.98775506019592,9.970836341381073 70.98775506019592,9.970836341381073 71.02823853492737,10.272006690502167 71.02823853492737,10.272006690502167 71.14247679710388,10.54261103272438 71.14247679710388,10.54261103272438 71.31968140602112,10.771921277046204 71.31968140602112,10.771921277046204 71.54904007911682,10.949066281318665 71.54904007911682,10.949066281318665 71.81978821754456,11.063316464424133 71.81978821754456,11.063316464424133 72.12110161781311,11.103799939155579 72.12110161781311,11.103799939155579 72.42242693901062,11.063316464424133 72.42242693901062,11.063316464424133 72.69319891929626,10.949090123176575 72.69319891929626,10.949090123176575 72.92261719703674,10.771921277046204 72.92261719703674,10.771921277046204 73.09985756874084,10.54258719086647 73.09985756874084,10.54258719086647 73.21413159370422,10.271959006786346 73.21413159370422,10.271959006786346 73.25463891029358,9.970836341381073 73.25463891029358,9.970836341381073 73.21414351463318,9.669380635023117 73.21414351463318,9.669380635023117 73.09985756874084,9.398514032363892 73.09985756874084,9.398514032363892 72.92261719703674,9.169084578752518 72.92261719703674,9.169084578752518 72.69318699836731,8.991820365190506 72.69318699836731,8.991820365190506 72.42241501808167,8.877570182085037 72.42241501808167,8.877570182085037" stroke="white" stroke-width="0.1" /><polygon points="67.48663187026978,16.221587359905243 67.48663187026978,16.221587359905243 68.85038614273071,16.229979693889618 68.85038614273071,16.229979693889618 67.61690378189087,5.0876520574092865 67.61690378189087,5.0876520574092865 67.54997968673706,5.074968189001083 67.54997968673706,5.074968189001083 67.4832820892334,5.064668506383896 67.4832820892334,5.064668506383896 67.41679906845093,5.056753009557724 67.41679906845093,5.056753009557724 67.35047101974487,5.051078647375107 67.35047101974487,5.051078647375107 67.28430986404419,5.047693103551865 67.28430986404419,5.047693103551865 67.21826791763306,5.0464533269405365 67.21826791763306,5.0464533269405365 67.03584790229797,5.054130405187607 67.03584790229797,5.054130405187607 66.85476899147034,5.077137798070908 66.85476899147034,5.077137798070908 66.6761577129364,5.113735049962997 66.6761577129364,5.113735049962997 66.50113463401794,5.162086337804794 66.50113463401794,5.162086337804794 66.3308322429657,5.220498517155647 66.3308322429657,5.220498517155647 66.16637110710144,5.287160351872444 66.16637110710144,5.287160351872444 66.22167229652405,5.294742062687874 66.22167229652405,5.294742062687874 66.26790165901184,5.301060155034065 66.26790165901184,5.301060155034065 66.30460619926453,5.306090787053108 66.30460619926453,5.306090787053108 66.33135676383972,5.309714749455452 66.33135676383972,5.309714749455452 66.34772419929504,5.311955884099007 66.34772419929504,5.311955884099007 66.35329127311707,5.312718823552132 66.35329127311707,5.312718823552132" stroke="white" stroke-width="0.1" /><polygon points="68.7437653541565,5.613316223025322 68.7437653541565,5.613316223025322 69.45291757583618,12.0162732899189 69.45291757583618,12.0162732899189 70.37263512611389,6.54677078127861 70.37263512611389,6.54677078127861 70.04597187042236,6.358540058135986 70.04597187042236,6.358540058135986 69.73997354507446,6.182610988616943 69.73997354507446,6.182610988616943 69.45570707321167,6.0195330530405045 69.45570707321167,6.0195330530405045 69.19420957565308,5.8698780834674835 69.19420957565308,5.8698780834674835 68.95653009414673,5.734289810061455 68.95653009414673,5.734289810061455" stroke="white" stroke-width="0.1" /><polygon points="69.92021799087524,16.23646467924118 69.92021799087524,16.23646467924118 81.84264898300171,16.30970686674118 81.84264898300171,16.30970686674118 79.61143851280212,11.913277208805084 79.61143851280212,11.913277208805084 79.04343008995056,11.582233011722565 79.04343008995056,11.582233011722565 78.47625613212585,11.251761764287949 78.47625613212585,11.251761764287949 77.91118025779724,10.922601819038391 77.91118025779724,10.922601819038391 77.34941840171814,10.595468431711197 77.34941840171814,10.595468431711197 76.79228186607361,10.27110069990158 76.79228186607361,10.27110069990158 76.24096870422363,9.950237721204758 76.24096870422363,9.950237721204758 69.6388840675354,13.697406649589539 69.6388840675354,13.697406649589539" stroke="white" stroke-width="0.1" /><polygon points="83.03778767585754,16.316954791545868 83.03778767585754,16.316954791545868 87.20057010650635,16.342894732952118 87.20057010650635,16.342894732952118 84.12039875984192,14.543886482715607 84.12039875984192,14.543886482715607 83.6661159992218,14.278671145439148 83.6661159992218,14.278671145439148 83.20468068122864,14.009305834770203 83.20468068122864,14.009305834770203 82.73690938949585,13.736316561698914 82.73690938949585,13.736316561698914 82.26360082626343,13.460133969783783 82.26360082626343,13.460133969783783 81.78554773330688,13.181255757808685 81.78554773330688,13.181255757808685 81.3036322593689,12.900136411190033 81.3036322593689,12.900136411190033" stroke="white" stroke-width="0.1" /><polygon points="99.43313598632812,24.4384303689003 99.43313598632812,24.4384303689003 99.43313598632812,17.319455742836 99.43313598632812,17.319455742836 98.12279343605042,18.02784353494644 98.12279343605042,18.02784353494644 98.12279343605042,22.66726940870285 98.12279343605042,22.66726940870285" stroke="white" stroke-width="0.1" /><polygon points="5.114927142858505,22.454790771007538 5.114927142858505,22.454790771007538 5.386699736118317,22.26296067237854 5.386699736118317,22.26296067237854 6.071675196290016,21.76561951637268 6.071675196290016,21.76561951637268 6.974326074123383,21.080167591571808 6.974326074123383,21.080167591571808 7.899114489555359,20.32385766506195 7.899114489555359,20.32385766506195 8.650512993335724,19.61408704519272 8.650512993335724,19.61408704519272 9.032995253801346,19.06810998916626 9.032995253801346,19.06810998916626 9.029538184404373,18.82411241531372 9.029538184404373,18.82411241531372 8.882052451372147,18.61518621444702 8.882052451372147,18.61518621444702 8.629210293293,18.444406986236572 8.629210293293,18.444406986236572 8.30967053771019,18.314804136753082 8.30967053771019,18.314804136753082 7.962104678153992,18.229474127292633 7.962104678153992,18.229474127292633 7.625183463096619,18.191494047641754 7.625183463096619,18.191494047641754 7.2562076151371,18.19697767496109 7.2562076151371,18.19697767496109 6.8252913653850555,18.231262266635895 6.8252913653850555,18.231262266635895 6.389963626861572,18.2810440659523 6.389963626861572,18.2810440659523 6.007767096161842,18.333043158054352 6.007767096161842,18.333043158054352 5.736244842410088,18.37400197982788 5.736244842410088,18.37400197982788 5.632961913943291,18.39061975479126 5.632961913943291,18.39061975479126 4.504004493355751,22.388415038585663 4.504004493355751,22.388415038585663" stroke="white" stroke-width="0.1" /></svg>