<?xml version="1.0" encoding="utf-8" ?>
<svg baseProfile="full" height="38.43231201171875" version="1.1" width="99.99909400939941" xmlns="http://www.w3.org/2000/svg" xmlns:ev="http://www.w3.org/2001/xml-events" xmlns:xlink="http://www.w3.org/1999/xlink"><defs><clipPath /></defs><polygon points="99.8422622680664,25.284576416015625 99.8422622680664,25.284576416015625 99.89917278289795,25.58581829071045 99.89917278289795,25.58581829071045 99.96306896209717,25.963783264160156 99.96306896209717,25.963783264160156 99.99909400939941,26.383686065673828 99.99909400939941,26.383686065673828 99.9722957611084,26.810526847839355 99.9722957611084,26.810526847839355 99.8478651046753,27.20949649810791 99.8478651046753,27.20949649810791 99.59087371826172,27.545738220214844 99.59087371826172,27.545738220214844 99.32804107666016,27.693843841552734 99.32804107666016,27.693843841552734 98.90658855438232,27.83668041229248 98.90658855438232,27.83668041229248 98.36227893829346,27.972745895385742 98.36227893829346,27.972745895385742 97.73073196411133,28.10041904449463 97.73073196411133,28.10041904449463 97.04766273498535,28.21817398071289 97.04766273498535,28.21817398071289 96.34876251220703,28.324508666992188 96.34876251220703,28.324508666992188 96.57411575317383,28.738784790039062 96.57411575317383,28.738784790039062 96.7710018157959,29.0985107421875 96.7710018157959,29.0985107421875 96.93381786346436,29.39450740814209 96.93381786346436,29.39450740814209 97.05698490142822,29.61740493774414 97.05698490142822,29.61740493774414 97.13499546051025,29.75795269012451 97.13499546051025,29.75795269012451 97.16224670410156,29.806900024414062 97.16224670410156,29.806900024414062 89.52388763427734,29.496383666992188 89.52388763427734,29.496383666992188 89.06316757202148,27.048969268798828 89.06316757202148,27.048969268798828 88.0286455154419,24.858522415161133 88.0286455154419,24.858522415161133 86.50403022766113,23.00896644592285 86.50403022766113,23.00896644592285 84.57303047180176,21.584033966064453 84.57303047180176,21.584033966064453 82.31945037841797,20.667672157287598 82.31945037841797,20.667672157287598 79.8269271850586,20.343589782714844 79.8269271850586,20.343589782714844 77.24742889404297,20.691204071044922 77.24742889404297,20.691204071044922 74.9276876449585,21.67181968688965 74.9276876449585,21.67181968688965 72.96104431152344,23.192119598388672 72.96104431152344,23.192119598388672 71.44076824188232,25.15878677368164 71.44076824188232,25.15878677368164 70.46018838882446,27.478551864624023 70.46018838882446,27.478551864624023 70.11260986328125,30.05809783935547 70.11260986328125,30.05809783935547 70.11802196502686,30.382800102233887 70.11802196502686,30.382800102233887 70.13413906097412,30.704808235168457 70.13413906097412,30.704808235168457 70.16074657440186,31.02402687072754 70.16074657440186,31.02402687072754 70.19762992858887,31.34026527404785 70.19762992858887,31.34026527404785 70.24458646774292,31.653404235839844 70.24458646774292,31.653404235839844 70.30143737792969,31.963348388671875 70.30143737792969,31.963348388671875 69.66404914855957,32.08303451538086 69.66404914855957,32.08303451538086 68.99889707565308,32.18808174133301 68.99889707565308,32.18808174133301 68.34945678710938,32.26306438446045 68.34945678710938,32.26306438446045 67.75920391082764,32.29231834411621 67.75920391082764,32.29231834411621 67.27162599563599,32.26041793823242 67.27162599563599,32.26041793823242 66.9301986694336,32.15179443359375 66.9301986694336,32.15179443359375 65.46354293823242,31.940460205078125 65.46354293823242,31.940460205078125 62.34290599822998,31.801223754882812 62.34290599822998,31.801223754882812 58.231258392333984,31.722497940063477 58.231258392333984,31.722497940063477 53.791606426239014,31.69257640838623 53.791606426239014,31.69257640838623 49.68695640563965,31.69994354248047 49.68695640563965,31.69994354248047 46.58031463623047,31.732940673828125 46.58031463623047,31.732940673828125 43.682169914245605,31.79924488067627 43.682169914245605,31.79924488067627 40.1164174079895,31.900405883789062 40.1164174079895,31.900405883789062 36.415743827819824,32.01553821563721 36.415743827819824,32.01553821563721 33.11285972595215,32.123661041259766 33.11285972595215,32.123661041259766 30.74047565460205,32.20391273498535 30.74047565460205,32.20391273498535 29.831314086914062,32.23533630371094 29.831314086914062,32.23533630371094 24.72515106201172,32.23533630371094 24.72515106201172,32.23533630371094 24.799489974975586,31.882905960083008 24.799489974975586,31.882905960083008 24.861228466033936,31.52599334716797 24.861228466033936,31.52599334716797 24.90997314453125,31.164884567260742 24.90997314453125,31.164884567260742 24.945294857025146,30.79969882965088 24.945294857025146,30.79969882965088 24.966788291931152,30.4307222366333 24.966788291931152,30.4307222366333 24.97406005859375,30.05809783935547 24.97406005859375,30.05809783935547 24.626469612121582,27.478599548339844 24.626469612121582,27.478599548339844 23.645877838134766,25.15881061553955 23.645877838134766,25.15881061553955 22.125601768493652,23.192119598388672 22.125601768493652,23.192119598388672 20.15892267227173,21.671772003173828 20.15892267227173,21.671772003173828 17.839133739471436,20.69118022918701 17.839133739471436,20.69118022918701 15.259552001953125,20.343589782714844 15.259552001953125,20.343589782714844 12.736380100250244,20.675969123840332 12.736380100250244,20.675969123840332 10.459542274475098,21.615004539489746 10.459542274475098,21.615004539489746 8.51597785949707,23.073577880859375 8.51597785949707,23.073577880859375 6.992626190185547,24.964499473571777 6.992626190185547,24.964499473571777 5.976462364196777,27.200746536254883 5.976462364196777,27.200746536254883 5.554389953613281,29.69512939453125 5.554389953613281,29.69512939453125 5.127072334289551,29.705190658569336 5.127072334289551,29.705190658569336 4.742085933685303,29.70433235168457 4.742085933685303,29.70433235168457 4.411673545837402,29.69076633453369 4.411673545837402,29.69076633453369 4.14806604385376,29.662632942199707 4.14806604385376,29.662632942199707 3.963494300842285,29.618167877197266 3.963494300842285,29.618167877197266 3.8702011108398438,29.555511474609375 3.8702011108398438,29.555511474609375 3.751969337463379,29.267477989196777 3.751969337463379,29.267477989196777 3.650021553039551,28.870081901550293 3.650021553039551,28.870081901550293 3.5666704177856445,28.435492515563965 3.5666704177856445,28.435492515563965 3.5042524337768555,28.035736083984375 3.5042524337768555,28.035736083984375 3.465104103088379,27.743053436279297 3.465104103088379,27.743053436279297 3.4515380859375,27.629470825195312 3.4515380859375,27.629470825195312 3.5434722900390625,27.248573303222656 3.5434722900390625,27.248573303222656 3.1966209411621094,27.27184295654297 3.1966209411621094,27.27184295654297 2.828049659729004,27.291250228881836 2.828049659729004,27.291250228881836 2.444624900817871,27.305030822753906 2.444624900817871,27.305030822753906 2.053236961364746,27.311325073242188 2.053236961364746,27.311325073242188 1.660776138305664,27.30844020843506 1.660776138305664,27.30844020843506 1.27410888671875,27.294540405273438 1.27410888671875,27.294540405273438 0.6235480308532715,27.130556106567383 0.6235480308532715,27.130556106567383 0.2288818359375,26.76410675048828 0.2288818359375,26.76410675048828 0.038909912109375,26.258134841918945 0.038909912109375,26.258134841918945 0.00247955322265625,25.675344467163086 0.00247955322265625,25.675344467163086 0.06842613220214844,25.078654289245605 0.06842613220214844,25.078654289245605 0.18558502197265625,24.530792236328125 0.18558502197265625,24.530792236328125 0.46639442443847656,24.224328994750977 0.46639442443847656,24.224328994750977 1.050424575805664,24.04148578643799 1.050424575805664,24.04148578643799 1.8326759338378906,23.956775665283203 1.8326759338378906,23.956775665283203 2.7081966400146484,23.944640159606934 2.7081966400146484,23.944640159606934 3.5720348358154297,23.979640007019043 3.5720348358154297,23.979640007019043 4.319190979003906,24.036216735839844 4.319190979003906,24.036216735839844 4.623985290527344,22.772216796875 4.623985290527344,22.772216796875 4.564666748046875,22.672581672668457 4.564666748046875,22.672581672668457 4.428565502166748,22.393798828125 4.428565502166748,22.393798828125 4.27851676940918,21.966171264648438 4.27851676940918,21.966171264648438 4.177331924438477,21.419858932495117 4.177331924438477,21.419858932495117 4.18781042098999,20.785212516784668 4.18781042098999,20.785212516784668 4.3727874755859375,20.092391967773438 4.3727874755859375,20.092391967773438 4.77985143661499,19.434070587158203 4.77985143661499,19.434070587158203 5.368375778198242,18.87342929840088 5.368375778198242,18.87342929840088 6.068587303161621,18.396544456481934 6.068587303161621,18.396544456481934 6.810665130615234,17.989444732666016 6.810665130615234,17.989444732666016 7.524847984313965,17.638158798217773 7.524847984313965,17.638158798217773 8.141326904296875,17.328834533691406 8.141326904296875,17.328834533691406 8.936023712158203,16.782569885253906 8.936023712158203,16.782569885253906 10.254418849945068,15.831971168518066 10.254418849945068,15.831971168518066 12.131118774414062,14.630126953125 12.131118774414062,14.630126953125 14.600682258605957,13.330078125 14.600682258605957,13.330078125 17.697691917419434,12.08500862121582 17.697691917419434,12.08500862121582 21.45671844482422,11.047935485839844 21.45671844482422,11.047935485839844 24.197661876678467,10.596084594726562 24.197661876678467,10.596084594726562 26.961994171142578,10.345625877380371 26.961994171142578,10.345625877380371 29.517054557800293,10.243415832519531 29.517054557800293,10.243415832519531 31.63015842437744,10.236215591430664 31.63015842437744,10.236215591430664 33.06865692138672,10.270953178405762 33.06865692138672,10.270953178405762 33.599853515625,10.294342041015625 33.599853515625,10.294342041015625 33.944523334503174,9.703493118286133 33.944523334503174,9.703493118286133 34.821879863739014,8.219265937805176 34.821879863739014,8.219265937805176 35.99700927734375,6.274509429931641 35.99700927734375,6.274509429931641 37.23495006561279,4.301786422729492 37.23495006561279,4.301786422729492 38.30075263977051,2.733898162841797 38.30075263977051,2.733898162841797 38.959503173828125,2.00347900390625 38.959503173828125,2.00347900390625 39.661598205566406,1.709604263305664 39.661598205566406,1.709604263305664 41.11511707305908,1.24359130859375 41.11511707305908,1.24359130859375 43.47121715545654,0.7263898849487305 43.47121715545654,0.7263898849487305 46.881103515625,0.2789497375488281 46.881103515625,0.2789497375488281 51.496005058288574,0.02231597900390625 51.496005058288574,0.02231597900390625 57.467079162597656,0.0774383544921875 57.467079162597656,0.0774383544921875 61.33549213409424,0.3365039825439453 61.33549213409424,0.3365039825439453 64.82729911804199,0.8015155792236328 64.82729911804199,0.8015155792236328 67.98319816589355,1.462101936340332 67.98319816589355,1.462101936340332 70.8438515663147,2.307724952697754 70.8438515663147,2.307724952697754 73.44999313354492,3.328084945678711 73.44999313354492,3.328084945678711 75.84228515625,4.512596130371094 75.84228515625,4.512596130371094 76.02849006652832,4.905080795288086 76.02849006652832,4.905080795288086 76.25967264175415,5.306839942932129 76.25967264175415,5.306839942932129 76.54080390930176,5.710625648498535 76.54080390930176,5.710625648498535 76.8768310546875,6.109046936035156 76.8768310546875,6.109046936035156 77.27270126342773,6.494855880737305 77.27270126342773,6.494855880737305 77.7334213256836,6.8607330322265625 77.7334213256836,6.8607330322265625 78.93068790435791,7.794308662414551 78.93068790435791,7.794308662414551 80.13722896575928,8.83023738861084 80.13722896575928,8.83023738861084 81.29260540008545,9.833598136901855 81.29260540008545,9.833598136901855 82.33633041381836,10.669445991516113 82.33633041381836,10.669445991516113 83.20789337158203,11.20295524597168 83.20789337158203,11.20295524597168 83.84685516357422,11.29913330078125 83.84685516357422,11.29913330078125 83.93123149871826,11.264538764953613 83.93123149871826,11.264538764953613 84.01548862457275,11.217546463012695 84.01548862457275,11.217546463012695 84.09948348999023,11.159038543701172 84.09948348999023,11.159038543701172 84.18307304382324,11.089825630187988 84.18307304382324,11.089825630187988 84.26618576049805,11.01081371307373 84.26618576049805,11.01081371307373 84.34867858886719,10.922813415527344 84.34867858886719,10.922813415527344 86.84124946594238,13.18206787109375 86.84124946594238,13.18206787109375 88.54455947875977,14.675307273864746 88.54455947875977,14.675307273864746 89.6085262298584,15.5609130859375 89.6085262298584,15.5609130859375 90.1829719543457,15.997314453125 90.1829719543457,15.997314453125 90.4177188873291,16.143012046813965 90.4177188873291,16.143012046813965 90.46268463134766,16.156387329101562 90.46268463134766,16.156387329101562 90.59450626373291,16.16377830505371 90.59450626373291,16.16377830505371 90.93101024627686,16.187381744384766 90.93101024627686,16.187381744384766 91.38383865356445,16.229653358459473 91.38383865356445,16.229653358459473 91.86456203460693,16.292786598205566 91.86456203460693,16.292786598205566 92.28482246398926,16.379261016845703 92.28482246398926,16.379261016845703 92.55619049072266,16.491317749023438 92.55619049072266,16.491317749023438 92.70358085632324,16.634464263916016 92.70358085632324,16.634464263916016 92.81373023986816,16.79844856262207 92.81373023986816,16.79844856262207 92.8912878036499,16.962480545043945 92.8912878036499,16.962480545043945 92.94090270996094,17.105507850646973 92.94090270996094,17.105507850646973 92.96727180480957,17.206692695617676 92.96727180480957,17.206692695617676 92.97504425048828,17.245101928710938 92.97504425048828,17.245101928710938 91.21627807617188,17.412567138671875 91.21627807617188,17.412567138671875 91.6351318359375,18.50128173828125 91.6351318359375,18.50128173828125 91.64009094238281,18.5089111328125 91.64009094238281,18.5089111328125 91.65453910827637,18.531322479248047 91.65453910827637,18.531322479248047 91.67776107788086,18.567657470703125 91.67776107788086,18.567657470703125 91.70913696289062,18.61715316772461 91.70913696289062,18.61715316772461 91.74795150756836,18.679022789001465 91.74795150756836,18.679022789001465 91.79363250732422,18.752479553222656 91.79363250732422,18.752479553222656 92.80757904052734,18.752479553222656 92.80757904052734,18.752479553222656 92.85726547241211,18.90578269958496 92.85726547241211,18.90578269958496 92.9776668548584,19.315290451049805 92.9776668548584,19.315290451049805 93.12582015991211,19.905591011047363 93.12582015991211,19.905591011047363 93.25876235961914,20.60108184814453 93.25876235961914,20.60108184814453 93.33357810974121,21.326351165771484 93.33357810974121,21.326351165771484 93.30730438232422,22.005844116210938 93.30730438232422,22.005844116210938 93.3077335357666,22.00794219970703 93.3077335357666,22.00794219970703 93.3082103729248,22.010040283203125 93.3082103729248,22.010040283203125 93.30871105194092,22.01216220855713 93.30871105194092,22.01216220855713 93.30918788909912,22.014260292053223 93.30918788909912,22.014260292053223 93.3096170425415,22.016429901123047 93.3096170425415,22.016429901123047 93.30997467041016,22.01862335205078 93.30997467041016,22.01862335205078 93.39051246643066,22.314167022705078 93.39051246643066,22.314167022705078 93.53501796722412,22.705984115600586 93.53501796722412,22.705984115600586 93.73433589935303,23.178911209106445 93.73433589935303,23.178911209106445 93.97926330566406,23.717617988586426 93.97926330566406,23.717617988586426 94.26069259643555,24.306964874267578 94.26069259643555,24.306964874267578 94.56939697265625,24.931716918945312 94.56939697265625,24.931716918945312 95.5498456954956,24.923181533813477 95.5498456954956,24.923181533813477 96.68300151824951,24.92823600769043 96.68300151824951,24.92823600769043 97.82388210296631,24.956941604614258 97.82388210296631,24.956941604614258 98.82738590240479,25.019192695617676 98.82738590240479,25.019192695617676 99.54853057861328,25.12507438659668 99.54853057861328,25.12507438659668" stroke="white" stroke-width="0.1" /><polygon points="35.60962677001953,12.220382690429688 35.60962677001953,12.220382690429688 35.95397472381592,12.342643737792969 35.95397472381592,12.342643737792969 36.56893968582153,12.438130378723145 36.56893968582153,12.438130378723145 37.41936683654785,12.509441375732422 37.41936683654785,12.509441375732422 38.47008943557739,12.559032440185547 38.47008943557739,12.559032440185547 39.685964584350586,12.589502334594727 39.685964584350586,12.589502334594727 41.031837463378906,12.603378295898438 41.031837463378906,12.603378295898438 42.336463928222656,4.3842315673828125 42.336463928222656,4.3842315673828125 41.72971248626709,4.554891586303711 41.72971248626709,4.554891586303711 41.23859405517578,4.7206878662109375 41.23859405517578,4.7206878662109375 40.860772132873535,4.869985580444336 40.860772132873535,4.869985580444336 40.59382677078247,4.991054534912109 40.59382677078247,4.991054534912109 40.43542146682739,5.072283744812012 40.43542146682739,5.072283744812012 40.383148193359375,5.101966857910156 40.383148193359375,5.101966857910156 39.21070098876953,5.7720184326171875 39.21070098876953,5.7720184326171875 38.58649730682373,6.2713623046875 38.58649730682373,6.2713623046875 37.9297137260437,7.003331184387207 37.9297137260437,7.003331184387207 37.305521965026855,7.823753356933594 37.305521965026855,7.823753356933594 36.779022216796875,8.588314056396484 36.779022216796875,8.588314056396484 36.41536235809326,9.152841567993164 36.41536235809326,9.152841567993164 36.27967834472656,9.373092651367188 36.27967834472656,9.373092651367188 36.279296875,9.487485885620117 36.279296875,9.487485885620117 36.27657890319824,9.785604476928711 36.27657890319824,9.785604476928711 36.269211769104004,10.200047492980957 36.269211769104004,10.200047492980957 36.25485897064209,10.663318634033203 36.25485897064209,10.663318634033203 36.231207847595215,11.107993125915527 36.231207847595215,11.107993125915527 36.195945739746094,11.466598510742188 36.195945739746094,11.466598510742188 36.12338304519653,11.726021766662598 36.12338304519653,11.726021766662598 36.00664138793945,11.922597885131836 36.00664138793945,11.922597885131836 35.871315002441406,12.063360214233398 35.871315002441406,12.063360214233398 35.742974281311035,12.15524673461914 35.742974281311035,12.15524673461914 35.64722537994385,12.205243110656738 35.64722537994385,12.205243110656738" stroke="white" stroke-width="0.1" /><polygon points="54.20112609863281,12.387847900390625 54.20112609863281,12.387847900390625 55.17466068267822,12.055206298828125 55.17466068267822,12.055206298828125 55.736446380615234,11.178207397460938 55.736446380615234,11.178207397460938 55.991148948669434,9.938335418701172 55.991148948669434,9.938335418701172 56.043457984924316,8.516979217529297 56.043457984924316,8.516979217529297 55.99808692932129,7.095646858215332 55.99808692932129,7.095646858215332 55.95970153808594,5.855751037597656 55.95970153808594,5.855751037597656 55.871689319610596,4.938030242919922 55.871689319610596,4.938030242919922 55.61851263046265,4.320383071899414 55.61851263046265,4.320383071899414 55.21645545959473,3.9400339126586914 55.21645545959473,3.9400339126586914 54.68180179595947,3.734111785888672 54.68180179595947,3.734111785888672 54.03084754943848,3.6399126052856445 54.03084754943848,3.6399126052856445 53.279876708984375,3.5945892333984375 53.279876708984375,3.5945892333984375 52.364516258239746,3.5728931427001953 52.364516258239746,3.5728931427001953 51.232779026031494,3.588390350341797 51.232779026031494,3.588390350341797 49.91960525512695,3.636455535888672 49.91960525512695,3.636455535888672 48.45986366271973,3.7123918533325195 48.45986366271973,3.7123918533325195 46.8885064125061,3.81166934967041 46.8885064125061,3.81166934967041 45.24040222167969,3.9295196533203125 45.24040222167969,3.9295196533203125 44.89929676055908,3.958010673522949 44.89929676055908,3.958010673522949 44.571471214294434,3.990912437438965 44.571471214294434,3.990912437438965 44.25680637359619,4.027843475341797 44.25680637359619,4.027843475341797 43.955111503601074,4.0683746337890625 43.955111503601074,4.0683746337890625 43.666255474090576,4.1121721267700195 43.666255474090576,4.1121721267700195 43.39008331298828,4.158782958984375 43.39008331298828,4.158782958984375 42.049598693847656,12.604713439941406 42.049598693847656,12.604713439941406 44.51189041137695,12.58540153503418 44.51189041137695,12.58540153503418 47.00697660446167,12.54434585571289 47.00697660446167,12.54434585571289 49.37913417816162,12.492775917053223 49.37913417816162,12.492775917053223 51.47266387939453,12.44196891784668 51.47266387939453,12.44196891784668 53.13190221786499,12.403225898742676 53.13190221786499,12.403225898742676" stroke="white" stroke-width="0.1" /><polygon points="75.22106170654297,11.969184875488281 75.22106170654297,11.969184875488281 75.55797100067139,11.490702629089355 75.55797100067139,11.490702629089355 75.7203221321106,10.970282554626465 75.7203221321106,10.970282554626465 75.69191455841064,10.398721694946289 75.69191455841064,10.398721694946289 75.45650005340576,9.766697883605957 75.45650005340576,9.766697883605957 74.997878074646,9.065008163452148 74.997878074646,9.065008163452148 74.29981231689453,8.284378051757812 74.29981231689453,8.284378051757812 72.77381420135498,7.015442848205566 72.77381420135498,7.015442848205566 71.16405963897705,6.088399887084961 71.16405963897705,6.088399887084961 69.52638626098633,5.426573753356934 69.52638626098633,5.426573753356934 67.91661977767944,4.953122138977051 67.91661977767944,4.953122138977051 66.39059782028198,4.59141731262207 66.39059782028198,4.59141731262207 65.00415802001953,4.264640808105469 65.00415802001953,4.264640808105469 63.66618871688843,3.9777278900146484 63.66618871688843,3.9777278900146484 62.31193542480469,3.7838220596313477 62.31193542480469,3.7838220596313477 61.03677749633789,3.6783456802368164 61.03677749633789,3.6783456802368164 59.93607044219971,3.656601905822754 59.93607044219971,3.656601905822754 59.10520553588867,3.71396541595459 59.10520553588867,3.71396541595459 58.6395263671875,3.8457870483398438 58.6395263671875,3.8457870483398438 58.415067195892334,4.105997085571289 58.415067195892334,4.105997085571289 58.23943614959717,4.531335830688477 58.23943614959717,4.531335830688477 58.10565948486328,5.091595649719238 58.10565948486328,5.091595649719238 58.00678730010986,5.756473541259766 58.00678730010986,5.756473541259766 57.93585777282715,6.495833396911621 57.93585777282715,6.495833396911621 57.88593292236328,7.279396057128906 57.88593292236328,7.279396057128906 57.84592628479004,8.049774169921875 57.84592628479004,8.049774169921875 57.81757831573486,8.780574798583984 57.81757831573486,8.780574798583984 57.81252384185791,9.488129615783691 57.81252384185791,9.488129615783691 57.842373847961426,10.188674926757812 57.842373847961426,10.188674926757812 57.91878700256348,10.898566246032715 57.91878700256348,10.898566246032715 58.05339813232422,11.634063720703125 58.05339813232422,11.634063720703125 58.422863483428955,12.238192558288574 58.422863483428955,12.238192558288574 59.19477939605713,12.586355209350586 59.19477939605713,12.586355209350586 60.36679744720459,12.743759155273438 60.36679744720459,12.743759155273438 61.93661689758301,12.775492668151855 61.93661689758301,12.775492668151855 63.90190124511719,12.746810913085938 63.90190124511719,12.746810913085938 66.26033782958984,12.7227783203125 66.26033782958984,12.7227783203125 68.63970756530762,12.730932235717773 68.63970756530762,12.730932235717773 70.66779136657715,12.732076644897461 70.66779136657715,12.732076644897461 72.34230041503906,12.691378593444824 72.34230041503906,12.691378593444824 73.66087436676025,12.573885917663574 73.66087436676025,12.573885917663574 74.62124824523926,12.344789505004883 74.62124824523926,12.344789505004883" stroke="white" stroke-width="0.1" /><polygon points="15.259552001953125,38.43231201171875 15.259552001953125,38.43231201171875 13.033342361450195,38.13316822052002 13.033342361450195,38.13316822052002 11.03287935256958,37.28899955749512 11.03287935256958,37.28899955749512 9.337997436523438,35.979628562927246 9.337997436523438,35.979628562927246 8.028531074523926,34.28480625152588 8.028531074523926,34.28480625152588 7.184290885925293,32.28435516357422 7.184290885925293,32.28435516357422 6.8851470947265625,30.05809783935547 6.8851470947265625,30.05809783935547 7.184290885925293,27.8317928314209 7.184290885925293,27.8317928314209 8.02851915359497,25.831246376037598 8.02851915359497,25.831246376037598 9.337997436523438,24.13637638092041 9.337997436523438,24.13637638092041 11.03287935256958,22.82688617706299 11.03287935256958,22.82688617706299 13.033342361450195,21.982669830322266 13.033342361450195,21.982669830322266 15.259552001953125,21.683502197265625 15.259552001953125,21.683502197265625 17.485904693603516,21.982622146606445 17.485904693603516,21.982622146606445 19.48643922805786,22.826838493347168 19.48643922805786,22.826838493347168 21.181344985961914,24.13637638092041 21.181344985961914,24.13637638092041 22.490811347961426,25.831294059753418 22.490811347961426,25.831294059753418 23.33500385284424,27.83181667327881 23.33500385284424,27.83181667327881 23.63414764404297,30.05809783935547 23.63414764404297,30.05809783935547 23.33500385284424,32.28433132171631 23.33500385284424,32.28433132171631 22.49079942703247,34.28478240966797 22.49079942703247,34.28478240966797 21.181344985961914,35.979628562927246 21.181344985961914,35.979628562927246 19.48643922805786,37.28902339935303 19.48643922805786,37.28902339935303 17.485904693603516,38.13319206237793 17.485904693603516,38.13319206237793" stroke="white" stroke-width="0.1" /><polygon points="88.20152282714844,30.05809783935547 88.20152282714844,30.05809783935547 87.9023551940918,32.28433132171631 87.9023551940918,32.28433132171631 87.05811500549316,34.28478240966797 87.05811500549316,34.28478240966797 85.74864864349365,35.979628562927246 85.74864864349365,35.979628562927246 84.05373096466064,37.28902339935303 84.05373096466064,37.28902339935303 82.05323219299316,38.13319206237793 82.05323219299316,38.13319206237793 79.8269271850586,38.43231201171875 79.8269271850586,38.43231201171875 77.60064601898193,38.13316822052002 77.60064601898193,38.13316822052002 75.60014724731445,37.28899955749512 75.60014724731445,37.28899955749512 73.90530109405518,35.979628562927246 73.90530109405518,35.979628562927246 72.59585857391357,34.28480625152588 72.59585857391357,34.28480625152588 71.75166606903076,32.28435516357422 71.75166606903076,32.28435516357422 71.45252227783203,30.05809783935547 71.45252227783203,30.05809783935547 71.7516541481018,27.8317928314209 71.7516541481018,27.8317928314209 72.59584665298462,25.831246376037598 72.59584665298462,25.831246376037598 73.90530109405518,24.13637638092041 73.90530109405518,24.13637638092041 75.60017108917236,22.82688617706299 75.60017108917236,22.82688617706299 77.60066986083984,21.982669830322266 77.60066986083984,21.982669830322266 79.8269271850586,21.683502197265625 79.8269271850586,21.683502197265625 82.05320835113525,21.982622146606445 82.05320835113525,21.982622146606445 84.05370712280273,22.826838493347168 84.05370712280273,22.826838493347168 85.74864864349365,24.13637638092041 85.74864864349365,24.13637638092041 87.05813884735107,25.831294059753418 87.05813884735107,25.831294059753418 87.9023790359497,27.83181667327881 87.9023790359497,27.83181667327881" stroke="white" stroke-width="0.1" /></svg>