<?xml version="1.0" encoding="utf-8" ?>
<svg baseProfile="full" height="34.86157953739166" version="1.1" width="100.0" xmlns="http://www.w3.org/2000/svg" xmlns:ev="http://www.w3.org/2001/xml-events" xmlns:xlink="http://www.w3.org/1999/xlink"><defs><clipPath /></defs><polygon points="59.73708629608154,34.86032485961914 59.73708629608154,34.86032485961914 58.31822752952576,34.71646308898926 58.31822752952576,34.71646308898926 56.99533224105835,34.3047171831131 56.99533224105835,34.3047171831131 55.7971715927124,33.65381360054016 55.7971715927124,33.65381360054016 54.7523558139801,32.79217481613159 54.7523558139801,32.79217481613159 53.88966202735901,31.748339533805847 53.88966202735901,31.748339533805847 53.23777794837952,30.550959706306458 53.23777794837952,30.550959706306458 52.82540321350098,29.228496551513672 52.82540321350098,29.228496551513672 52.681225538253784,27.80948579311371 52.681225538253784,27.80948579311371 52.681225538253784,7.053348422050476 52.681225538253784,7.053348422050476 52.82540321350098,5.634298175573349 52.82540321350098,5.634298175573349 53.23777794837952,4.311677441000938 53.23777794837952,4.311677441000938 53.88966202735901,3.113985061645508 53.88966202735901,3.113985061645508 54.7523558139801,2.0698750391602516 54.7523558139801,2.0698750391602516 55.7971715927124,1.2078451924026012 55.7971715927124,1.2078451924026012 56.99533224105835,0.5564719438552856 56.99533224105835,0.5564719438552856 58.31822752952576,0.14433148317039013 58.31822752952576,0.14433148317039013 59.73708629608154,0.0 59.73708629608154,0.0 92.94037818908691,0.0012543746379378717 92.94037818908691,0.0012543746379378717 94.35986280441284,0.14515466755256057 94.35986280441284,0.14515466755256057 95.68287134170532,0.5570599343627691 95.68287134170532,0.5570599343627691 96.8809187412262,1.2081587687134743 96.8809187412262,1.2081587687134743 97.92557954788208,2.070031687617302 97.92557954788208,2.070031687617302 98.78827333450317,3.1140634790062904 98.78827333450317,3.1140634790062904 99.44058656692505,4.311677441000938 99.44058656692505,4.311677441000938 99.85398054122925,5.634298175573349 99.85398054122925,5.634298175573349 100.0,7.053348422050476 100.0,7.053348422050476 100.0,27.80948579311371 100.0,27.80948579311371 99.85398054122925,29.228496551513672 99.85398054122925,29.228496551513672 99.44058656692505,30.55099844932556 99.44058656692505,30.55099844932556 98.78827333450317,31.748417019844055 98.78827333450317,31.748417019844055 97.92557954788208,32.79233276844025 97.92557954788208,32.79233276844025 96.8809187412262,33.65412652492523 96.8809187412262,33.65412652492523 95.68287134170532,34.30526554584503 95.68287134170532,34.30526554584503 94.35986280441284,34.7172886133194 94.35986280441284,34.7172886133194 92.94037818908691,34.86157953739166 92.94037818908691,34.86157953739166" stroke="white" stroke-width="0.1" /><polygon points="54.34201955795288,27.80948579311371 54.34201955795288,27.80948579311371 54.453498125076294,28.889620304107666 54.453498125076294,28.889620304107666 54.77030873298645,29.897978901863098 54.77030873298645,29.897978901863098 55.270177125930786,30.81245720386505 55.270177125930786,30.81245720386505 55.93084096908569,31.61102533340454 55.93084096908569,31.61102533340454 56.730109453201294,32.2715699672699 56.730109453201294,32.2715699672699 57.64572620391846,32.77202844619751 57.64572620391846,32.77202844619751 58.655500411987305,33.09040367603302 58.655500411987305,33.09040367603302 59.73708629608154,33.20454955101013 59.73708629608154,33.20454955101013 92.94037818908691,33.20454955101013 92.94037818908691,33.20454955101013 94.02345418930054,33.09040367603302 94.02345418930054,33.09040367603302 95.03400921821594,32.77202844619751 95.03400921821594,32.77202844619751 95.94993591308594,32.2715699672699 95.94993591308594,32.2715699672699 96.74913287162781,31.61102533340454 96.74913287162781,31.61102533340454 97.4094808101654,30.812498927116394 97.4094808101654,30.812498927116394 97.90895581245422,29.89802062511444 97.90895581245422,29.89802062511444 98.22537302970886,28.88965904712677 98.22537302970886,28.88965904712677 98.33670258522034,27.80948579311371 98.33670258522034,27.80948579311371 98.33670258522034,7.053348422050476 98.33670258522034,7.053348422050476 98.22537302970886,5.969960987567902 98.22537302970886,5.969960987567902 97.90892004966736,4.959326982498169 97.90892004966736,4.959326982498169 97.4094808101654,4.04355488717556 97.4094808101654,4.04355488717556 96.74913287162781,3.2445967197418213 96.74913287162781,3.2445967197418213 95.94993591308594,2.5844821706414223 95.94993591308594,2.5844821706414223 95.03400921821594,2.0851626992225647 95.03400921821594,2.0851626992225647 94.02345418930054,1.768668182194233 94.02345418930054,1.768668182194233 92.94037818908691,1.6570288687944412 92.94037818908691,1.6570288687944412 59.73708629608154,1.6570288687944412 59.73708629608154,1.6570288687944412 58.655500411987305,1.768668182194233 58.655500411987305,1.768668182194233 57.64572620391846,2.085123397409916 57.64572620391846,2.085123397409916 56.730109453201294,2.5844428688287735 56.730109453201294,2.5844428688287735 55.93084096908569,3.2445967197418213 55.93084096908569,3.2445967197418213 55.270177125930786,4.043594375252724 55.270177125930786,4.043594375252724 54.77030873298645,4.959326982498169 54.77030873298645,4.959326982498169 54.453498125076294,5.969960987567902 54.453498125076294,5.969960987567902 54.34201955795288,7.053348422050476 54.34201955795288,7.053348422050476" stroke="white" stroke-width="0.1" /><polygon points="53.88966202735901,31.748339533805847 54.34201955795288,27.80948579311371 54.453498125076294,28.889620304107666" stroke="white" stroke-width="0.1" /><polygon points="54.453498125076294,28.889620304107666 54.77030873298645,29.897978901863098 53.88966202735901,31.748339533805847" stroke="white" stroke-width="0.1" /><polygon points="54.77030873298645,29.897978901863098 55.270177125930786,30.81245720386505 53.88966202735901,31.748339533805847" stroke="white" stroke-width="0.1" /><polygon points="55.270177125930786,30.81245720386505 55.93084096908569,31.61102533340454 53.88966202735901,31.748339533805847" stroke="white" stroke-width="0.1" /><polygon points="55.93084096908569,31.61102533340454 56.730109453201294,32.2715699672699 53.88966202735901,31.748339533805847" stroke="white" stroke-width="0.1" /><polygon points="56.730109453201294,32.2715699672699 57.64572620391846,32.77202844619751 53.88966202735901,31.748339533805847" stroke="white" stroke-width="0.1" /><polygon points="57.64572620391846,32.77202844619751 58.655500411987305,33.09040367603302 54.7523558139801,32.79217481613159 53.88966202735901,31.748339533805847" stroke="white" stroke-width="0.1" /><polygon points="58.655500411987305,33.09040367603302 59.73708629608154,33.20454955101013 55.7971715927124,33.65381360054016 54.7523558139801,32.79217481613159" stroke="white" stroke-width="0.1" /><polygon points="59.73708629608154,33.20454955101013 92.94037818908691,33.20454955101013 92.94037818908691,34.86157953739166 59.73708629608154,34.86032485961914 58.31822752952576,34.71646308898926 56.99533224105835,34.3047171831131 55.7971715927124,33.65381360054016" stroke="white" stroke-width="0.1" /><polygon points="92.94037818908691,33.20454955101013 94.02345418930054,33.09040367603302 92.94037818908691,34.86157953739166" stroke="white" stroke-width="0.1" /><polygon points="94.02345418930054,33.09040367603302 95.03400921821594,32.77202844619751 92.94037818908691,34.86157953739166" stroke="white" stroke-width="0.1" /><polygon points="95.03400921821594,32.77202844619751 95.94993591308594,32.2715699672699 92.94037818908691,34.86157953739166" stroke="white" stroke-width="0.1" /><polygon points="95.94993591308594,32.2715699672699 96.74913287162781,31.61102533340454 94.35986280441284,34.7172886133194 92.94037818908691,34.86157953739166" stroke="white" stroke-width="0.1" /><polygon points="96.74913287162781,31.61102533340454 97.4094808101654,30.812498927116394 95.68287134170532,34.30526554584503 94.35986280441284,34.7172886133194" stroke="white" stroke-width="0.1" /><polygon points="97.4094808101654,30.812498927116394 97.90895581245422,29.89802062511444 96.8809187412262,33.65412652492523 95.68287134170532,34.30526554584503" stroke="white" stroke-width="0.1" /><polygon points="97.90895581245422,29.89802062511444 98.22537302970886,28.88965904712677 97.92557954788208,32.79233276844025 96.8809187412262,33.65412652492523" stroke="white" stroke-width="0.1" /><polygon points="98.22537302970886,28.88965904712677 98.33670258522034,27.80948579311371 98.78827333450317,31.748417019844055 97.92557954788208,32.79233276844025" stroke="white" stroke-width="0.1" /><polygon points="98.33670258522034,27.80948579311371 98.33670258522034,7.053348422050476 100.0,7.053348422050476 100.0,27.80948579311371 99.85398054122925,29.228496551513672 99.44058656692505,30.55099844932556 98.78827333450317,31.748417019844055" stroke="white" stroke-width="0.1" /><polygon points="98.33670258522034,7.053348422050476 98.22537302970886,5.969960987567902 100.0,7.053348422050476" stroke="white" stroke-width="0.1" /><polygon points="98.22537302970886,5.969960987567902 97.90892004966736,4.959326982498169 100.0,7.053348422050476" stroke="white" stroke-width="0.1" /><polygon points="97.90892004966736,4.959326982498169 97.4094808101654,4.04355488717556 100.0,7.053348422050476" stroke="white" stroke-width="0.1" /><polygon points="97.4094808101654,4.04355488717556 96.74913287162781,3.2445967197418213 99.85398054122925,5.634298175573349 100.0,7.053348422050476" stroke="white" stroke-width="0.1" /><polygon points="96.74913287162781,3.2445967197418213 95.94993591308594,2.5844821706414223 99.44058656692505,4.311677441000938 99.85398054122925,5.634298175573349" stroke="white" stroke-width="0.1" /><polygon points="95.94993591308594,2.5844821706414223 95.03400921821594,2.0851626992225647 98.78827333450317,3.1140634790062904 99.44058656692505,4.311677441000938" stroke="white" stroke-width="0.1" /><polygon points="95.03400921821594,2.0851626992225647 94.02345418930054,1.768668182194233 97.92557954788208,2.070031687617302 98.78827333450317,3.1140634790062904" stroke="white" stroke-width="0.1" /><polygon points="94.02345418930054,1.768668182194233 92.94037818908691,1.6570288687944412 96.8809187412262,1.2081587687134743 97.92557954788208,2.070031687617302" stroke="white" stroke-width="0.1" /><polygon points="92.94037818908691,1.6570288687944412 59.73708629608154,1.6570288687944412 59.73708629608154,0.0 92.94037818908691,0.0012543746379378717 94.35986280441284,0.14515466755256057 95.68287134170532,0.5570599343627691 96.8809187412262,1.2081587687134743" stroke="white" stroke-width="0.1" /><polygon points="59.73708629608154,1.6570288687944412 58.655500411987305,1.768668182194233 59.73708629608154,0.0" stroke="white" stroke-width="0.1" /><polygon points="58.655500411987305,1.768668182194233 57.64572620391846,2.085123397409916 59.73708629608154,0.0" stroke="white" stroke-width="0.1" /><polygon points="57.64572620391846,2.085123397409916 56.730109453201294,2.5844428688287735 59.73708629608154,0.0" stroke="white" stroke-width="0.1" /><polygon points="56.730109453201294,2.5844428688287735 55.93084096908569,3.2445967197418213 58.31822752952576,0.14433148317039013 59.73708629608154,0.0" stroke="white" stroke-width="0.1" /><polygon points="55.93084096908569,3.2445967197418213 55.270177125930786,4.043594375252724 56.99533224105835,0.5564719438552856 58.31822752952576,0.14433148317039013" stroke="white" stroke-width="0.1" /><polygon points="55.270177125930786,4.043594375252724 54.77030873298645,4.959326982498169 55.7971715927124,1.2078451924026012 56.99533224105835,0.5564719438552856" stroke="white" stroke-width="0.1" /><polygon points="54.77030873298645,4.959326982498169 54.453498125076294,5.969960987567902 54.7523558139801,2.0698750391602516 55.7971715927124,1.2078451924026012" stroke="white" stroke-width="0.1" /><polygon points="54.453498125076294,5.969960987567902 54.34201955795288,7.053348422050476 53.88966202735901,3.113985061645508 54.7523558139801,2.0698750391602516" stroke="white" stroke-width="0.1" /><polygon points="54.34201955795288,7.053348422050476 54.34201955795288,27.80948579311371 53.88966202735901,31.748339533805847 53.23777794837952,30.550959706306458 52.82540321350098,29.228496551513672 52.681225538253784,27.80948579311371 52.681225538253784,7.053348422050476 52.82540321350098,5.634298175573349 53.23777794837952,4.311677441000938 53.88966202735901,3.113985061645508" stroke="white" stroke-width="0.1" /></svg>