<?xml version="1.0" encoding="utf-8" ?>
<svg baseProfile="full" height="34.86157953739166" version="1.1" width="47.318774461746216" xmlns="http://www.w3.org/2000/svg" xmlns:ev="http://www.w3.org/2001/xml-events" xmlns:xlink="http://www.w3.org/1999/xlink"><defs><clipPath /></defs><polygon points="40.26040732860565,34.86157953739166 40.26040732860565,34.86157953739166 7.05585703253746,34.86032485961914 7.05585703253746,34.86032485961914 5.637002736330032,34.716424345970154 5.637002736330032,34.716424345970154 4.314107820391655,34.3047559261322 4.314107820391655,34.3047559261322 3.1159449368715286,33.653852343559265 3.1159449368715286,33.653852343559265 2.0711293444037437,32.79217481613159 2.0711293444037437,32.79217481613159 1.208433136343956,31.74837827682495 1.208433136343956,31.74837827682495 0.5565503612160683,30.550959706306458 0.5565503612160683,30.550959706306458 0.14417468337342143,29.228496551513672 0.14417468337342143,29.228496551513672 0.0,27.80948579311371 0.0,27.80948579311371 0.0,7.053348422050476 0.0,7.053348422050476 0.14417468337342143,5.634298175573349 0.14417468337342143,5.634298175573349 0.5565503612160683,4.311677441000938 0.5565503612160683,4.311677441000938 1.208433136343956,3.113985061645508 1.208433136343956,3.113985061645508 2.0711293444037437,2.0698750391602516 2.0711293444037437,2.0698750391602516 3.1159449368715286,1.2078451924026012 3.1159449368715286,1.2078451924026012 4.314107820391655,0.556511152535677 4.314107820391655,0.556511152535677 5.637002736330032,0.14433148317039013 5.637002736330032,0.14433148317039013 7.05585703253746,0.0 7.05585703253746,0.0 40.26040732860565,0.0012543746379378717 40.26040732860565,0.0012543746379378717 41.67949855327606,0.1451938645914197 41.67949855327606,0.1451938645914197 43.002158403396606,0.5570207256823778 43.002158403396606,0.5570207256823778 44.20000612735748,1.2081587687134743 44.20000612735748,1.2081587687134743 45.24450898170471,2.070031687617302 45.24450898170471,2.070031687617302 46.107128262519836,3.1140634790062904 46.107128262519836,3.1140634790062904 46.75940275192261,4.311677441000938 46.75940275192261,4.311677441000938 47.17279672622681,5.634298175573349 47.17279672622681,5.634298175573349 47.318774461746216,7.053348422050476 47.318774461746216,7.053348422050476 47.318774461746216,27.80948579311371 47.318774461746216,27.80948579311371 47.1727579832077,29.228496551513672 47.1727579832077,29.228496551513672 46.75940275192261,30.55099844932556 46.75940275192261,30.55099844932556 46.107128262519836,31.748417019844055 46.107128262519836,31.748417019844055 45.24450898170471,32.79233276844025 45.24450898170471,32.79233276844025 44.20000612735748,33.65412652492523 44.20000612735748,33.65412652492523 43.002158403396606,34.30526554584503 43.002158403396606,34.30526554584503 41.67949855327606,34.7172886133194 41.67949855327606,34.7172886133194" stroke="white" stroke-width="0.1" /><polygon points="1.6607919707894325,7.053348422050476 1.6607919707894325,7.053348422050476 1.6607919707894325,27.80948579311371 1.6607919707894325,27.80948579311371 1.772274635732174,28.88965904712677 1.772274635732174,28.88965904712677 2.0890826359391212,29.89802062511444 2.0890826359391212,29.89802062511444 2.5889117270708084,30.812498927116394 2.5889117270708084,30.812498927116394 3.2496143132448196,31.61102533340454 3.2496143132448196,31.61102533340454 4.048886150121689,32.2715699672699 4.048886150121689,32.2715699672699 4.964501038193703,32.77202844619751 4.964501038193703,32.77202844619751 5.974272638559341,33.09040367603302 5.974272638559341,33.09040367603302 7.05585703253746,33.20454955101013 7.05585703253746,33.20454955101013 40.26040732860565,33.20454955101013 40.26040732860565,33.20454955101013 41.34308993816376,33.09040367603302 41.34308993816376,33.09040367603302 42.35333204269409,32.77202844619751 42.35333204269409,32.77202844619751 43.26902627944946,32.2715699672699 43.26902627944946,32.2715699672699 44.06806230545044,31.61102533340454 44.06806230545044,31.61102533340454 44.72833275794983,30.81245720386505 44.72833275794983,30.81245720386505 45.22773325443268,29.897978901863098 45.22773325443268,29.897978901863098 45.54414749145508,28.889620304107666 45.54414749145508,28.889620304107666 45.655474066734314,27.80948579311371 45.655474066734314,27.80948579311371 45.655474066734314,7.053348422050476 45.655474066734314,7.053348422050476 45.54414749145508,5.969960987567902 45.54414749145508,5.969960987567902 45.22773325443268,4.959326982498169 45.22773325443268,4.959326982498169 44.72833275794983,4.043594375252724 44.72833275794983,4.043594375252724 44.06806230545044,3.2445967197418213 44.06806230545044,3.2445967197418213 43.26902627944946,2.5844428688287735 43.26902627944946,2.5844428688287735 42.35333204269409,2.085123397409916 42.35333204269409,2.085123397409916 41.34308993816376,1.768668182194233 41.34308993816376,1.768668182194233 40.26040732860565,1.6570288687944412 40.26040732860565,1.6570288687944412 7.05585703253746,1.6570288687944412 7.05585703253746,1.6570288687944412 5.974272638559341,1.768668182194233 5.974272638559341,1.768668182194233 4.964501038193703,2.0851626992225647 4.964501038193703,2.0851626992225647 4.048886150121689,2.5844821706414223 4.048886150121689,2.5844821706414223 3.2496143132448196,3.2445967197418213 3.2496143132448196,3.2445967197418213 2.5889508426189423,4.04355488717556 2.5889508426189423,4.04355488717556 2.0890826359391212,4.959326982498169 2.0890826359391212,4.959326982498169 1.772274635732174,5.969960987567902 1.772274635732174,5.969960987567902" stroke="white" stroke-width="0.1" /><polygon points="0.14417468337342143,29.228496551513672 1.6607919707894325,7.053348422050476 1.6607919707894325,27.80948579311371" stroke="white" stroke-width="0.1" /><polygon points="1.6607919707894325,27.80948579311371 1.772274635732174,28.88965904712677 0.14417468337342143,29.228496551513672" stroke="white" stroke-width="0.1" /><polygon points="1.772274635732174,28.88965904712677 2.0890826359391212,29.89802062511444 0.14417468337342143,29.228496551513672" stroke="white" stroke-width="0.1" /><polygon points="2.0890826359391212,29.89802062511444 2.5889117270708084,30.812498927116394 0.14417468337342143,29.228496551513672" stroke="white" stroke-width="0.1" /><polygon points="2.5889117270708084,30.812498927116394 3.2496143132448196,31.61102533340454 0.14417468337342143,29.228496551513672" stroke="white" stroke-width="0.1" /><polygon points="3.2496143132448196,31.61102533340454 4.048886150121689,32.2715699672699 0.5565503612160683,30.550959706306458 0.14417468337342143,29.228496551513672" stroke="white" stroke-width="0.1" /><polygon points="4.048886150121689,32.2715699672699 4.964501038193703,32.77202844619751 1.208433136343956,31.74837827682495 0.5565503612160683,30.550959706306458" stroke="white" stroke-width="0.1" /><polygon points="4.964501038193703,32.77202844619751 5.974272638559341,33.09040367603302 2.0711293444037437,32.79217481613159 1.208433136343956,31.74837827682495" stroke="white" stroke-width="0.1" /><polygon points="5.974272638559341,33.09040367603302 7.05585703253746,33.20454955101013 3.1159449368715286,33.653852343559265 2.0711293444037437,32.79217481613159" stroke="white" stroke-width="0.1" /><polygon points="7.05585703253746,33.20454955101013 40.26040732860565,33.20454955101013 40.26040732860565,34.86157953739166 7.05585703253746,34.86032485961914 5.637002736330032,34.716424345970154 4.314107820391655,34.3047559261322 3.1159449368715286,33.653852343559265" stroke="white" stroke-width="0.1" /><polygon points="40.26040732860565,33.20454955101013 41.34308993816376,33.09040367603302 40.26040732860565,34.86157953739166" stroke="white" stroke-width="0.1" /><polygon points="41.34308993816376,33.09040367603302 42.35333204269409,32.77202844619751 40.26040732860565,34.86157953739166" stroke="white" stroke-width="0.1" /><polygon points="42.35333204269409,32.77202844619751 43.26902627944946,32.2715699672699 40.26040732860565,34.86157953739166" stroke="white" stroke-width="0.1" /><polygon points="43.26902627944946,32.2715699672699 44.06806230545044,31.61102533340454 41.67949855327606,34.7172886133194 40.26040732860565,34.86157953739166" stroke="white" stroke-width="0.1" /><polygon points="44.06806230545044,31.61102533340454 44.72833275794983,30.81245720386505 43.002158403396606,34.30526554584503 41.67949855327606,34.7172886133194" stroke="white" stroke-width="0.1" /><polygon points="44.72833275794983,30.81245720386505 45.22773325443268,29.897978901863098 44.20000612735748,33.65412652492523 43.002158403396606,34.30526554584503" stroke="white" stroke-width="0.1" /><polygon points="45.22773325443268,29.897978901863098 45.54414749145508,28.889620304107666 45.24450898170471,32.79233276844025 44.20000612735748,33.65412652492523" stroke="white" stroke-width="0.1" /><polygon points="45.54414749145508,28.889620304107666 45.655474066734314,27.80948579311371 46.107128262519836,31.748417019844055 45.24450898170471,32.79233276844025" stroke="white" stroke-width="0.1" /><polygon points="45.655474066734314,27.80948579311371 45.655474066734314,7.053348422050476 47.318774461746216,7.053348422050476 47.318774461746216,27.80948579311371 47.1727579832077,29.228496551513672 46.75940275192261,30.55099844932556 46.107128262519836,31.748417019844055" stroke="white" stroke-width="0.1" /><polygon points="45.655474066734314,7.053348422050476 45.54414749145508,5.969960987567902 47.318774461746216,7.053348422050476" stroke="white" stroke-width="0.1" /><polygon points="45.54414749145508,5.969960987567902 45.22773325443268,4.959326982498169 47.318774461746216,7.053348422050476" stroke="white" stroke-width="0.1" /><polygon points="45.22773325443268,4.959326982498169 44.72833275794983,4.043594375252724 47.318774461746216,7.053348422050476" stroke="white" stroke-width="0.1" /><polygon points="44.72833275794983,4.043594375252724 44.06806230545044,3.2445967197418213 47.17279672622681,5.634298175573349 47.318774461746216,7.053348422050476" stroke="white" stroke-width="0.1" /><polygon points="44.06806230545044,3.2445967197418213 43.26902627944946,2.5844428688287735 46.75940275192261,4.311677441000938 47.17279672622681,5.634298175573349" stroke="white" stroke-width="0.1" /><polygon points="43.26902627944946,2.5844428688287735 42.35333204269409,2.085123397409916 46.107128262519836,3.1140634790062904 46.75940275192261,4.311677441000938" stroke="white" stroke-width="0.1" /><polygon points="42.35333204269409,2.085123397409916 41.34308993816376,1.768668182194233 45.24450898170471,2.070031687617302 46.107128262519836,3.1140634790062904" stroke="white" stroke-width="0.1" /><polygon points="41.34308993816376,1.768668182194233 40.26040732860565,1.6570288687944412 44.20000612735748,1.2081587687134743 45.24450898170471,2.070031687617302" stroke="white" stroke-width="0.1" /><polygon points="40.26040732860565,1.6570288687944412 7.05585703253746,1.6570288687944412 7.05585703253746,0.0 40.26040732860565,0.0012543746379378717 41.67949855327606,0.1451938645914197 43.002158403396606,0.5570207256823778 44.20000612735748,1.2081587687134743" stroke="white" stroke-width="0.1" /><polygon points="7.05585703253746,1.6570288687944412 5.974272638559341,1.768668182194233 7.05585703253746,0.0" stroke="white" stroke-width="0.1" /><polygon points="5.974272638559341,1.768668182194233 4.964501038193703,2.0851626992225647 7.05585703253746,0.0" stroke="white" stroke-width="0.1" /><polygon points="4.964501038193703,2.0851626992225647 4.048886150121689,2.5844821706414223 7.05585703253746,0.0" stroke="white" stroke-width="0.1" /><polygon points="4.048886150121689,2.5844821706414223 3.2496143132448196,3.2445967197418213 5.637002736330032,0.14433148317039013 7.05585703253746,0.0" stroke="white" stroke-width="0.1" /><polygon points="3.2496143132448196,3.2445967197418213 2.5889508426189423,4.04355488717556 4.314107820391655,0.556511152535677 5.637002736330032,0.14433148317039013" stroke="white" stroke-width="0.1" /><polygon points="2.5889508426189423,4.04355488717556 2.0890826359391212,4.959326982498169 3.1159449368715286,1.2078451924026012 4.314107820391655,0.556511152535677" stroke="white" stroke-width="0.1" /><polygon points="2.0890826359391212,4.959326982498169 1.772274635732174,5.969960987567902 2.0711293444037437,2.0698750391602516 3.1159449368715286,1.2078451924026012" stroke="white" stroke-width="0.1" /><polygon points="1.772274635732174,5.969960987567902 1.6607919707894325,7.053348422050476 1.208433136343956,3.113985061645508 2.0711293444037437,2.0698750391602516" stroke="white" stroke-width="0.1" /><polygon points="1.6607919707894325,7.053348422050476 0.14417468337342143,29.228496551513672 0.0,27.80948579311371 0.0,7.053348422050476 0.14417468337342143,5.634298175573349 0.5565503612160683,4.311677441000938 1.208433136343956,3.113985061645508" stroke="white" stroke-width="0.1" /></svg>