<?xml version="1.0" encoding="utf-8" ?>
<svg baseProfile="full" height="89.13735151290894" version="1.1" width="99.99951124191284" xmlns="http://www.w3.org/2000/svg" xmlns:ev="http://www.w3.org/2001/xml-events" xmlns:xlink="http://www.w3.org/1999/xlink"><defs><clipPath /></defs><polygon points="97.52105474472046,32.02986717224121 97.52105474472046,32.02986717224121 98.58812093734741,33.29762518405914 98.58812093734741,33.29762518405914 99.35722947120667,34.7084105014801 99.35722947120667,34.7084105014801 99.82801675796509,36.21627986431122 99.82801675796509,36.21627986431122 99.99951124191284,37.77504563331604 99.99951124191284,37.77504563331604 99.8712956905365,39.339011907577515 99.8712956905365,39.339011907577515 99.44264888763428,40.86199402809143 99.44264888763428,40.86199402809143 98.71295094490051,42.29816794395447 98.71295094490051,42.29816794395447 97.68161177635193,43.601471185684204 97.68161177635193,43.601471185684204 55.84818720817566,86.6322934627533 55.84818720817566,86.6322934627533 54.59886193275452,87.70189881324768 54.59886193275452,87.70189881324768 53.178226947784424,88.48763108253479 53.178226947784424,88.48763108253479 51.630699634552,88.97196054458618 51.630699634552,88.97196054458618 50.00048279762268,89.13735151290894 50.00048279762268,89.13735151290894 48.37165176868439,88.97196054458618 48.37165176868439,88.97196054458618 46.8234658241272,88.48763108253479 46.8234658241272,88.48763108253479 45.39750516414642,87.70189881324768 45.39750516414642,87.70189881324768 44.13536787033081,86.6322934627533 44.13536787033081,86.6322934627533 2.3000067099928856,43.59953701496124 2.3000067099928856,43.59953701496124 2.3000067099928856,43.59953701496124 2.3000067099928856,43.59953701496124 1.274712011218071,42.295750975608826 1.274712011218071,42.295750975608826 0.5502171348780394,40.85957407951355 0.5502171348780394,40.85957407951355 0.12585717486217618,39.33665454387665 0.12585717486217618,39.33665454387665 0.0009672021406004205,37.77311146259308 0.0009672021406004205,37.77311146259308 0.17494268249720335,36.21464669704437 0.17494268249720335,36.21464669704437 0.6471791304647923,34.707021713256836 0.6471791304647923,34.707021713256836 1.4170115813612938,33.2961767911911 1.4170115813612938,33.2961767911911 2.483775094151497,32.02793300151825 2.483775094151497,32.02793300151825 3.7742041051387787,31.01007342338562 3.7742041051387787,31.01007342338562 5.201613157987595,30.289629101753235 5.201613157987595,30.289629101753235 6.718911230564117,29.86677885055542 6.718911230564117,29.86677885055542 8.27925056219101,29.74194884300232 8.27925056219101,29.74194884300232 9.835539013147354,29.915502667427063 9.835539013147354,29.915502667427063 11.340928822755814,30.38761615753174 11.340928822755814,30.38761615753174 12.74832934141159,31.158718466758728 12.74832934141159,31.158718466758728 14.010889828205109,32.22911059856415 14.010889828205109,32.22911059856415 47.837817668914795,67.04645156860352 47.837817668914795,67.04645156860352 48.82992506027222,67.71793365478516 48.82992506027222,67.71793365478516 50.00048279762268,67.94981956481934 50.00048279762268,67.94981956481934 51.170313358306885,67.71793365478516 51.170313358306885,67.71793365478516 52.145737409591675,67.04645156860352 52.145737409591675,67.04645156860352 86.00361347198486,32.17881619930267 86.00361347198486,32.17881619930267 87.28981018066406,31.119728088378906 87.28981018066406,31.119728088378906 88.72266411781311,30.35297989845276 88.72266411781311,30.35297989845276 90.25452733039856,29.88702952861786 90.25452733039856,29.88702952861786 91.83777570724487,29.72985804080963 91.83777570724487,29.72985804080963 93.36668252944946,29.87349033355713 93.36668252944946,29.87349033355713 94.8535144329071,30.304619669914246 94.8535144329071,30.304619669914246 96.25329971313477,31.02337121963501 96.25329971313477,31.02337121963501" stroke="white" stroke-width="0.1" /><polygon points="81.37845396995544,0.0 81.37845396995544,0.0 82.52531290054321,0.10717809200286865 82.52531290054321,0.10717809200286865 83.63977074623108,0.4294377285987139 83.63977074623108,0.4294377285987139 84.68894362449646,0.9678671136498451 84.68894362449646,0.9678671136498451 85.63994765281677,1.7235541716217995 85.63994765281677,1.7235541716217995 86.44024729728699,2.674253471195698 86.44024729728699,2.674253471195698 87.01724410057068,3.7320703268051147 87.01724410057068,3.7320703268051147 87.37027049064636,4.862487688660622 87.37027049064636,4.862487688660622 87.49915361404419,6.031230837106705 87.49915361404419,6.031230837106705 87.40321397781372,7.203903049230576 87.40321397781372,7.203903049230576 87.08198666572571,8.345986902713776 87.08198666572571,8.345986902713776 86.53497099876404,9.423329681158066 86.53497099876404,9.423329681158066 85.76181530952454,10.401292145252228 85.76181530952454,10.401292145252228 54.385775327682495,42.672958970069885 54.385775327682495,42.672958970069885 53.44952344894409,43.47597658634186 53.44952344894409,43.47597658634186 52.38391160964966,44.06572878360748 52.38391160964966,44.06572878360748 51.22290253639221,44.42915618419647 51.22290253639221,44.42915618419647 50.00048279762268,44.55319941043854 50.00048279762268,44.55319941043854 48.77854287624359,44.42915618419647 48.77854287624359,44.42915618419647 47.61729538440704,44.06572878360748 47.61729538440704,44.06572878360748 46.54744863510132,43.47597658634186 46.54744863510132,43.47597658634186 45.5997109413147,42.672958970069885 45.5997109413147,42.672958970069885 14.225609600543976,10.399357229471207 14.225609600543976,10.399357229471207 14.221739768981934,10.399357229471207 14.221739768981934,10.399357229471207 13.454507291316986,9.420911222696304 13.454507291316986,9.420911222696304 12.912511825561523,8.343569189310074 12.912511825561523,8.343569189310074 12.59520798921585,7.201545685529709 12.59520798921585,7.201545685529709 12.502054870128632,6.029296293854713 12.502054870128632,6.029296293854713 12.632748484611511,4.8608556389808655 12.632748484611511,4.8608556389808655 12.986743450164795,3.7306800484657288 12.986743450164795,3.7306800484657288 13.563619554042816,2.6727423071861267 13.563619554042816,2.6727423071861267 14.36295211315155,1.7216198146343231 14.36295211315155,1.7216198146343231 15.331241488456726,0.9576510637998581 15.331241488456726,0.9576510637998581 16.40193462371826,0.4168641287833452 16.40193462371826,0.4168641287833452 17.539969086647034,0.09962181793525815 17.539969086647034,0.09962181793525815 18.710042536258698,0.006045013287803158 18.710042536258698,0.006045013287803158 19.87709254026413,0.1363150542601943 19.87709254026413,0.1363150542601943 21.00575715303421,0.49073416739702225 21.00575715303421,0.49073416739702225 22.06115573644638,1.0694232769310474 22.06115573644638,1.0694232769310474 23.00780415534973,1.8725033849477768 23.00780415534973,1.8725033849477768 48.37945103645325,27.98502743244171 48.37945103645325,27.98502743244171 49.12250339984894,28.488212823867798 49.12250339984894,28.488212823867798 50.00048279762268,28.662067651748657 50.00048279762268,28.662067651748657 50.877732038497925,28.488212823867798 50.877732038497925,28.488212823867798 51.60990357398987,27.98502743244171 51.60990357398987,27.98502743244171 77.0028293132782,1.831880770623684 77.0028293132782,1.831880770623684 77.96676754951477,1.039681863039732 77.96676754951477,1.039681863039732 79.04120683670044,0.4661914426833391 79.04120683670044,0.4661914426833391 80.19042611122131,0.11751506244763732 80.19042611122131,0.11751506244763732" stroke="white" stroke-width="0.1" /><polygon points="0.17494268249720335,36.21464669704437 0.6471791304647923,34.707021713256836 1.4170115813612938,33.2961767911911 2.483775094151497,32.02793300151825 3.7742041051387787,31.01007342338562 5.201613157987595,30.289629101753235 6.718911230564117,29.86677885055542 8.27925056219101,29.74194884300232 9.835539013147354,29.915502667427063 11.340928822755814,30.38761615753174 12.74832934141159,31.158718466758728 14.010889828205109,32.22911059856415 47.837817668914795,67.04645156860352" stroke="white" stroke-width="0.1" /><polygon points="47.837817668914795,67.04645156860352 48.82992506027222,67.71793365478516 44.13536787033081,86.6322934627533 2.3000067099928856,43.59953701496124 2.3000067099928856,43.59953701496124 1.274712011218071,42.295750975608826 0.5502171348780394,40.85957407951355 0.12585717486217618,39.33665454387665 0.0009672021406004205,37.77311146259308 0.17494268249720335,36.21464669704437" stroke="white" stroke-width="0.1" /><polygon points="48.82992506027222,67.71793365478516 50.00048279762268,67.94981956481934 44.13536787033081,86.6322934627533" stroke="white" stroke-width="0.1" /><polygon points="50.00048279762268,67.94981956481934 51.170313358306885,67.71793365478516 44.13536787033081,86.6322934627533" stroke="white" stroke-width="0.1" /><polygon points="51.170313358306885,67.71793365478516 52.145737409591675,67.04645156860352 44.13536787033081,86.6322934627533" stroke="white" stroke-width="0.1" /><polygon points="52.145737409591675,67.04645156860352 86.00361347198486,32.17881619930267 87.28981018066406,31.119728088378906 88.72266411781311,30.35297989845276 90.25452733039856,29.88702952861786 91.83777570724487,29.72985804080963 93.36668252944946,29.87349033355713 94.8535144329071,30.304619669914246 96.25329971313477,31.02337121963501 97.52105474472046,32.02986717224121 98.58812093734741,33.29762518405914 99.35722947120667,34.7084105014801 99.82801675796509,36.21627986431122 99.99951124191284,37.77504563331604 99.8712956905365,39.339011907577515 99.44264888763428,40.86199402809143 98.71295094490051,42.29816794395447 97.68161177635193,43.601471185684204 55.84818720817566,86.6322934627533 54.59886193275452,87.70189881324768 53.178226947784424,88.48763108253479 51.630699634552,88.97196054458618 50.00048279762268,89.13735151290894 48.37165176868439,88.97196054458618 46.8234658241272,88.48763108253479 45.39750516414642,87.70189881324768 44.13536787033081,86.6322934627533" stroke="white" stroke-width="0.1" /><polygon points="14.225609600543976,10.399357229471207 23.00780415534973,1.8725033849477768 48.37945103645325,27.98502743244171" stroke="white" stroke-width="0.1" /><polygon points="48.37945103645325,27.98502743244171 49.12250339984894,28.488212823867798 45.5997109413147,42.672958970069885 14.225609600543976,10.399357229471207" stroke="white" stroke-width="0.1" /><polygon points="49.12250339984894,28.488212823867798 50.00048279762268,28.662067651748657 45.5997109413147,42.672958970069885" stroke="white" stroke-width="0.1" /><polygon points="50.00048279762268,28.662067651748657 50.877732038497925,28.488212823867798 45.5997109413147,42.672958970069885" stroke="white" stroke-width="0.1" /><polygon points="50.877732038497925,28.488212823867798 51.60990357398987,27.98502743244171 45.5997109413147,42.672958970069885" stroke="white" stroke-width="0.1" /><polygon points="51.60990357398987,27.98502743244171 77.0028293132782,1.831880770623684 77.96676754951477,1.039681863039732 79.04120683670044,0.4661914426833391 80.19042611122131,0.11751506244763732 81.37845396995544,0.0 82.52531290054321,0.10717809200286865 83.63977074623108,0.4294377285987139 84.68894362449646,0.9678671136498451 85.63994765281677,1.7235541716217995 86.44024729728699,2.674253471195698 87.01724410057068,3.7320703268051147 87.37027049064636,4.862487688660622 87.49915361404419,6.031230837106705 87.40321397781372,7.203903049230576 87.08198666572571,8.345986902713776 86.53497099876404,9.423329681158066 85.76181530952454,10.401292145252228 54.385775327682495,42.672958970069885 53.44952344894409,43.47597658634186 52.38391160964966,44.06572878360748 51.22290253639221,44.42915618419647 50.00048279762268,44.55319941043854 48.77854287624359,44.42915618419647 47.61729538440704,44.06572878360748 46.54744863510132,43.47597658634186 45.5997109413147,42.672958970069885" stroke="white" stroke-width="0.1" /><polygon points="14.225609600543976,10.399357229471207 14.221739768981934,10.399357229471207 13.454507291316986,9.420911222696304 12.912511825561523,8.343569189310074 12.59520798921585,7.201545685529709 12.502054870128632,6.029296293854713 12.632748484611511,4.8608556389808655 12.986743450164795,3.7306800484657288 13.563619554042816,2.6727423071861267 14.36295211315155,1.7216198146343231 15.331241488456726,0.9576510637998581 16.40193462371826,0.4168641287833452 17.539969086647034,0.09962181793525815 18.710042536258698,0.006045013287803158 19.87709254026413,0.1363150542601943 21.00575715303421,0.49073416739702225 22.06115573644638,1.0694232769310474 23.00780415534973,1.8725033849477768" stroke="white" stroke-width="0.1" /></svg>