<?xml version="1.0" encoding="utf-8" ?>
<svg baseProfile="full" height="76.84198021888733" version="1.1" width="100.0" xmlns="http://www.w3.org/2000/svg" xmlns:ev="http://www.w3.org/2001/xml-events" xmlns:xlink="http://www.w3.org/1999/xlink"><defs><clipPath /></defs><polygon points="70.63864469528198,62.77667284011841 70.63864469528198,62.77667284011841 70.63864469528198,65.30653238296509 70.63864469528198,65.30653238296509 70.69599032402039,65.8601462841034 70.69599032402039,65.8601462841034 13.330833613872528,65.8601462841034 13.330833613872528,65.8601462841034 10.650096088647842,65.5876100063324 10.650096088647842,65.5876100063324 8.150909841060638,64.80926275253296 8.150909841060638,64.80926275253296 5.887311697006226,63.57907056808472 5.887311697006226,63.57907056808472 3.9136167615652084,61.950939893722534 3.9136167615652084,61.950939893722534 2.283930964767933,59.97883081436157 2.283930964767933,59.97883081436157 1.0522238910198212,57.71667957305908 1.0522238910198212,57.71667957305908 0.2728779101744294,55.21852374076843 0.2728779101744294,55.21852374076843 0.0,52.538132667541504 0.0,52.538132667541504 0.0,13.32421749830246 0.0,13.32421749830246 0.2729468513280153,10.643858462572098 0.2729468513280153,10.643858462572098 1.0522238910198212,8.14560204744339 1.0522238910198212,8.14560204744339 2.28379312902689,5.883383005857468 2.28379312902689,5.883383005857468 3.9136167615652084,3.911135345697403 3.9136167615652084,3.911135345697403 5.887311697006226,2.2827591747045517 5.887311697006226,2.2827591747045517 8.150909841060638,1.0521549731492996 8.150909841060638,1.0521549731492996 10.65002754330635,0.27325700502842665 10.65002754330635,0.27325700502842665 13.330833613872528,0.0 13.330833613872528,0.0 76.06008648872375,0.0022056310626794584 76.06008648872375,0.0022056310626794584 78.74130606651306,0.2747389255091548 78.74130606651306,0.2747389255091548 81.2404215335846,1.053085457533598 81.2404215335846,1.053085457533598 83.5036039352417,2.283276244997978 83.5036039352417,2.283276244997978 85.47702431678772,3.911411017179489 85.47702431678772,3.911411017179489 87.10671067237854,5.883486568927765 87.10671067237854,5.883486568927765 88.33897113800049,8.145671337842941 88.33897113800049,8.145671337842941 89.11976218223572,10.643858462572098 89.11976218223572,10.643858462572098 89.39533233642578,13.32421749830246 89.39533233642578,13.32421749830246 89.39533233642578,46.8542218208313 89.39533233642578,46.8542218208313 88.92773389816284,46.80569767951965 88.92773389816284,46.80569767951965 87.69919872283936,46.80569767951965 87.69919872283936,46.80569767951965 86.2523078918457,46.80569767951965 86.2523078918457,46.80569767951965 86.2523078918457,13.32421749830246 86.2523078918457,13.32421749830246 85.97949743270874,10.99531203508377 85.97949743270874,10.99531203508377 85.2084219455719,8.853816986083984 85.2084219455719,8.853816986083984 84.00132060050964,6.961867958307266 84.00132060050964,6.961867958307266 82.42064118385315,5.381602048873901 82.42064118385315,5.381602048873901 80.52869439125061,4.175156354904175 80.52869439125061,4.175156354904175 78.38764786720276,3.4045640379190445 78.38764786720276,3.4045640379190445 76.06008648872375,3.1319960951805115 76.06008648872375,3.1319960951805115 13.330833613872528,3.129790350794792 13.330833613872528,3.129790350794792 11.005409806966782,3.403151035308838 11.005409806966782,3.403151035308838 8.86525809764862,4.174294695258141 8.86525809764862,4.174294695258141 6.973102688789368,5.381188541650772 6.973102688789368,5.381188541650772 5.391734093427658,6.961730122566223 5.391734093427658,6.961730122566223 4.18366864323616,8.853781968355179 4.18366864323616,8.853781968355179 3.4117665141820908,10.99531203508377 3.4117665141820908,10.99531203508377 3.1386129558086395,13.32421749830246 3.1386129558086395,13.32421749830246 3.1386129558086395,52.538132667541504 3.1386129558086395,52.538132667541504 3.411697596311569,54.85987067222595 3.411697596311569,54.85987067222595 4.18366864323616,56.996744871139526 4.18366864323616,56.996744871139526 5.3916651755571365,58.88659358024597 5.3916651755571365,58.88659358024597 6.973102688789368,60.46710014343262 6.973102688789368,60.46710014343262 8.865327388048172,61.676061153411865 8.865327388048172,61.676061153411865 11.005409806966782,62.45116591453552 11.005409806966782,62.45116591453552 13.330833613872528,62.73035407066345 13.330833613872528,62.73035407066345 70.64305543899536,62.73035407066345 70.64305543899536,62.73035407066345" stroke="white" stroke-width="0.1" /><polygon points="99.54785108566284,61.682677268981934 99.54785108566284,61.682677268981934 99.64958429336548,61.79516315460205 99.64958429336548,61.79516315460205 99.73946213722229,61.91688776016235 99.73946213722229,61.91688776016235 99.81693625450134,62.04667687416077 99.81693625450134,62.04667687416077 99.88145232200623,62.183356285095215 99.88145232200623,62.183356285095215 99.93252754211426,62.32582926750183 99.93252754211426,62.32582926750183 99.96967911720276,62.472981214523315 99.96967911720276,62.472981214523315 99.99235272407532,62.62362003326416 99.99235272407532,62.62362003326416 100.0,62.77667284011841 100.0,62.77667284011841 100.0,65.30653238296509 100.0,65.30653238296509 99.99235272407532,65.45820236206055 99.99235272407532,65.45820236206055 99.96967911720276,65.60801267623901 99.96967911720276,65.60801267623901 99.93259310722351,65.7546877861023 99.93259310722351,65.7546877861023 99.88145232200623,65.89708924293518 99.88145232200623,65.89708924293518 99.81693625450134,66.03383421897888 99.81693625450134,66.03383421897888 99.73946213722229,66.16383194923401 99.73946213722229,66.16383194923401 99.64958429336548,66.28572940826416 99.64958429336548,66.28572940826416 99.54785108566284,66.3983166217804 99.54785108566284,66.3983166217804 99.43453669548035,66.5001928806305 99.43453669548035,66.5001928806305 99.31212067604065,66.59027338027954 99.31212067604065,66.59027338027954 99.18171763420105,66.66809320449829 99.18171763420105,66.66809320449829 99.0446925163269,66.73302054405212 99.0446925163269,66.73302054405212 98.9020824432373,66.7845070362091 98.9020824432373,66.7845070362091 98.7553358078003,66.8220043182373 98.7553358078003,66.8220043182373 98.60556125640869,66.84492230415344 98.60556125640869,66.84492230415344 98.45385551452637,66.85267686843872 98.45385551452637,66.85267686843872 90.47388434410095,66.85267686843872 90.47388434410095,66.85267686843872 90.47388434410095,75.2958357334137 90.47388434410095,75.2958357334137 90.46616554260254,75.44812560081482 90.46616554260254,75.44812560081482 90.44355750083923,75.59828162193298 90.44355750083923,75.59828162193298 90.406334400177,75.74509382247925 90.406334400177,75.74509382247925 90.35505652427673,75.88749527931213 90.35505652427673,75.88749527931213 90.29026627540588,76.0242760181427 90.29026627540588,76.0242760181427 90.21251797676086,76.15437507629395 90.21251797676086,76.15437507629395 90.12194871902466,76.27658247947693 90.12194871902466,76.27658247947693 90.01952409744263,76.3898253440857 90.01952409744263,76.3898253440857 89.90703821182251,76.49155855178833 89.90703821182251,76.49155855178833 89.7853136062622,76.58144235610962 89.7853136062622,76.58144235610962 89.65566158294678,76.6589105129242 89.65566158294678,76.6589105129242 89.51911926269531,76.72342658042908 89.51911926269531,76.72342658042908 89.37685489654541,76.77450180053711 89.37685489654541,76.77450180053711 89.2301857471466,76.81165337562561 89.2301857471466,76.81165337562561 89.08005952835083,76.83429718017578 89.08005952835083,76.83429718017578 88.92773389816284,76.84198021888733 88.92773389816284,76.84198021888733 86.22804284095764,76.84198021888733 86.22804284095764,76.84198021888733 86.07633709907532,76.83432698249817 86.07633709907532,76.83432698249817 85.92656254768372,76.81165337562561 85.92656254768372,76.81165337562561 85.77988743782043,76.77450180053711 85.77988743782043,76.77450180053711 85.63748598098755,76.72342658042908 85.63748598098755,76.72342658042908 85.50066947937012,76.6588807106018 85.50066947937012,76.6588807106018 85.37074327468872,76.58144235610962 85.37074327468872,76.58144235610962 85.24888157844543,76.4915943145752 85.24888157844543,76.4915943145752 85.13625860214233,76.3898253440857 85.13625860214233,76.3898253440857 85.03451943397522,76.27658247947693 85.03451943397522,76.27658247947693 84.94464159011841,76.15437507629395 84.94464159011841,76.15437507629395 84.86723899841309,76.02431178092957 84.86723899841309,76.02431178092957 84.80265736579895,75.88749527931213 84.80265736579895,75.88749527931213 84.75158214569092,75.74512958526611 84.75158214569092,75.74512958526611 84.71443057060242,75.59828162193298 84.71443057060242,75.59828162193298 84.69182252883911,75.44812560081482 84.69182252883911,75.44812560081482 84.6841037273407,75.2958357334137 84.6841037273407,75.2958357334137 84.6841037273407,69.94717717170715 84.6841037273407,69.94717717170715 84.6841037273407,66.85267686843872 84.6841037273407,66.85267686843872 76.70192122459412,66.85267686843872 76.70192122459412,66.85267686843872 76.55028700828552,66.84488654136658 76.55028700828552,66.84488654136658 76.40044093132019,66.8220043182373 76.40044093132019,66.8220043182373 76.2535572052002,66.7845070362091 76.2535572052002,66.7845070362091 76.11109018325806,66.73302054405212 76.11109018325806,66.73302054405212 75.97399353981018,66.66809320449829 75.97399353981018,66.66809320449829 75.84379315376282,66.59027338027954 75.84379315376282,66.59027338027954 75.72131156921387,66.5001928806305 75.72131156921387,66.5001928806305 75.60793161392212,66.3983166217804 75.60793161392212,66.3983166217804 75.52163600921631,66.30319952964783 75.52163600921631,66.30319952964783 75.44485330581665,66.20094776153564 75.44485330581665,66.20094776153564 75.37751197814941,66.09249114990234 75.37751197814941,66.09249114990234 75.31864643096924,65.97862839698792 75.31864643096924,65.97862839698792 75.2682626247406,65.8601462841034 75.2682626247406,65.8601462841034 75.22180676460266,65.72587490081787 75.22180676460266,65.72587490081787 75.18637776374817,65.58830142021179 75.18637776374817,65.58830142021179 75.16376972198486,65.44824242591858 75.16376972198486,65.44824242591858 75.15577673912048,65.30653238296509 75.15577673912048,65.30653238296509 75.15577673912048,62.77667284011841 75.15577673912048,62.77667284011841 75.16680359840393,62.73035407066345 75.16680359840393,62.73035407066345 75.17762780189514,62.58391737937927 75.17762780189514,62.58391737937927 75.20161271095276,62.43979334831238 75.20161271095276,62.43979334831238 75.23855566978455,62.29901313781738 75.23855566978455,62.29901313781738 75.2881109714508,62.16267943382263 75.2881109714508,62.16267943382263 75.3500759601593,62.03182339668274 75.3500759601593,62.03182339668274 75.42431354522705,61.907511949539185 75.42431354522705,61.907511949539185 75.51032900810242,61.79075241088867 75.51032900810242,61.79075241088867 75.60793161392212,61.682677268981934 75.60793161392212,61.682677268981934 75.72124600410461,61.58028841018677 75.72124600410461,61.58028841018677 75.84365606307983,61.49013638496399 75.84365606307983,61.49013638496399 75.97399353981018,61.41262650489807 75.97399353981018,61.41262650489807 76.11109018325806,61.34824752807617 76.11109018325806,61.34824752807617 76.25362873077393,61.29741668701172 76.25362873077393,61.29741668701172 76.40044093132019,61.2605094909668 76.40044093132019,61.2605094909668 76.55028700828552,61.23810410499573 76.55028700828552,61.23810410499573 76.70192122459412,61.2305223941803 76.70192122459412,61.2305223941803 81.31389617919922,61.2305223941803 81.31389617919922,61.2305223941803 84.6841037273407,61.2305223941803 84.6841037273407,61.2305223941803 84.6841037273407,57.91105031967163 84.6841037273407,57.91105031967163 84.6841037273407,52.86897420883179 84.6841037273407,52.86897420883179 84.69182252883911,52.71730422973633 84.69182252883911,52.71730422973633 84.71443057060242,52.56749391555786 84.71443057060242,52.56749391555786 84.75151062011719,52.420783042907715 84.75151062011719,52.420783042907715 84.80265736579895,52.278417348861694 84.80265736579895,52.278417348861694 84.86716747283936,52.14160084724426 84.86716747283936,52.14160084724426 84.94464159011841,52.011674642562866 84.94464159011841,52.011674642562866 85.03459095954895,51.889777183532715 85.03459095954895,51.889777183532715 85.13625860214233,51.77718997001648 85.13625860214233,51.77718997001648 85.24888157844543,51.67469382286072 85.24888157844543,51.67469382286072 85.37074327468872,51.58429741859436 85.37074327468872,51.58429741859436 85.50066947937012,51.50644779205322 85.50066947937012,51.50644779205322 85.63748598098755,51.44165754318237 85.63748598098755,51.44165754318237 85.7798159122467,51.39040946960449 85.7798159122467,51.39040946960449 85.92656254768372,51.3532280921936 85.92656254768372,51.3532280921936 86.07633709907532,51.330482959747314 86.07633709907532,51.330482959747314 86.22804284095764,51.322829723358154 86.22804284095764,51.322829723358154 86.2523078918457,51.322829723358154 86.2523078918457,51.322829723358154 87.69919872283936,51.322829723358154 87.69919872283936,51.322829723358154 88.92773389816284,51.322829723358154 88.92773389816284,51.322829723358154 89.04732465744019,51.330822706222534 89.04732465744019,51.330822706222534 89.16484117507935,51.35205388069153 89.16484117507935,51.35205388069153 89.28070664405823,51.38238072395325 89.28070664405823,51.38238072395325 89.39533233642578,51.417672634124756 89.39533233642578,51.417672634124756 89.53269720077515,51.46716237068176 89.53269720077515,51.46716237068176 89.6654486656189,51.52643918991089 89.6654486656189,51.52643918991089 89.79227542877197,51.59701704978943 89.79227542877197,51.59701704978943 89.91082906723022,51.68010592460632 89.91082906723022,51.68010592460632 90.01952409744263,51.77718997001648 90.01952409744263,51.77718997001648 90.12194871902466,51.889777183532715 90.12194871902466,51.889777183532715 90.21238088607788,52.011674642562866 90.21238088607788,52.011674642562866 90.29026627540588,52.14163661003113 90.29026627540588,52.14163661003113 90.35505652427673,52.278417348861694 90.35505652427673,52.278417348861694 90.40626883506775,52.420783042907715 90.40626883506775,52.420783042907715 90.44355750083923,52.56749391555786 90.44355750083923,52.56749391555786 90.46623110771179,52.71726846694946 90.46623110771179,52.71726846694946 90.47388434410095,52.86897420883179 90.47388434410095,52.86897420883179 90.47388434410095,58.18895697593689 90.47388434410095,58.18895697593689 90.47388434410095,61.2305223941803 90.47388434410095,61.2305223941803 91.54140949249268,61.2305223941803 91.54140949249268,61.2305223941803 98.45385551452637,61.2305223941803 98.45385551452637,61.2305223941803 98.60549569129944,61.23817563056946 98.60549569129944,61.23817563056946 98.7553358078003,61.26084923744202 98.7553358078003,61.26084923744202 98.90221953392029,61.29800081253052 98.90221953392029,61.29800081253052 99.0446925163269,61.34907603263855 99.0446925163269,61.34907603263855 99.18171763420105,61.41359210014343 99.18171763420105,61.41359210014343 99.31198358535767,61.491066217422485 99.31198358535767,61.491066217422485 99.43453669548035,61.58090829849243 99.43453669548035,61.58090829849243" stroke="white" stroke-width="0.1" /><polygon points="89.39533233642578,13.32421749830246 89.39533233642578,46.8542218208313 88.92773389816284,46.80569767951965 86.2523078918457,13.32421749830246" stroke="white" stroke-width="0.1" /><polygon points="86.2523078918457,13.32421749830246 85.97949743270874,10.99531203508377 89.39533233642578,13.32421749830246" stroke="white" stroke-width="0.1" /><polygon points="85.97949743270874,10.99531203508377 85.2084219455719,8.853816986083984 89.39533233642578,13.32421749830246" stroke="white" stroke-width="0.1" /><polygon points="85.2084219455719,8.853816986083984 84.00132060050964,6.961867958307266 89.11976218223572,10.643858462572098 89.39533233642578,13.32421749830246" stroke="white" stroke-width="0.1" /><polygon points="84.00132060050964,6.961867958307266 82.42064118385315,5.381602048873901 88.33897113800049,8.145671337842941 89.11976218223572,10.643858462572098" stroke="white" stroke-width="0.1" /><polygon points="82.42064118385315,5.381602048873901 80.52869439125061,4.175156354904175 87.10671067237854,5.883486568927765 88.33897113800049,8.145671337842941" stroke="white" stroke-width="0.1" /><polygon points="80.52869439125061,4.175156354904175 78.38764786720276,3.4045640379190445 85.47702431678772,3.911411017179489 87.10671067237854,5.883486568927765" stroke="white" stroke-width="0.1" /><polygon points="78.38764786720276,3.4045640379190445 76.06008648872375,3.1319960951805115 83.5036039352417,2.283276244997978 85.47702431678772,3.911411017179489" stroke="white" stroke-width="0.1" /><polygon points="76.06008648872375,3.1319960951805115 13.330833613872528,3.129790350794792 13.330833613872528,0.0 76.06008648872375,0.0022056310626794584 78.74130606651306,0.2747389255091548 81.2404215335846,1.053085457533598 83.5036039352417,2.283276244997978" stroke="white" stroke-width="0.1" /><polygon points="13.330833613872528,3.129790350794792 11.005409806966782,3.403151035308838 13.330833613872528,0.0" stroke="white" stroke-width="0.1" /><polygon points="11.005409806966782,3.403151035308838 8.86525809764862,4.174294695258141 13.330833613872528,0.0" stroke="white" stroke-width="0.1" /><polygon points="8.86525809764862,4.174294695258141 6.973102688789368,5.381188541650772 10.65002754330635,0.27325700502842665 13.330833613872528,0.0" stroke="white" stroke-width="0.1" /><polygon points="6.973102688789368,5.381188541650772 5.391734093427658,6.961730122566223 8.150909841060638,1.0521549731492996 10.65002754330635,0.27325700502842665" stroke="white" stroke-width="0.1" /><polygon points="5.391734093427658,6.961730122566223 4.18366864323616,8.853781968355179 5.887311697006226,2.2827591747045517 8.150909841060638,1.0521549731492996" stroke="white" stroke-width="0.1" /><polygon points="4.18366864323616,8.853781968355179 3.4117665141820908,10.99531203508377 3.9136167615652084,3.911135345697403 5.887311697006226,2.2827591747045517" stroke="white" stroke-width="0.1" /><polygon points="3.4117665141820908,10.99531203508377 3.1386129558086395,13.32421749830246 2.28379312902689,5.883383005857468 3.9136167615652084,3.911135345697403" stroke="white" stroke-width="0.1" /><polygon points="3.1386129558086395,13.32421749830246 3.1386129558086395,52.538132667541504 0.0,52.538132667541504 0.0,13.32421749830246 0.2729468513280153,10.643858462572098 1.0522238910198212,8.14560204744339 2.28379312902689,5.883383005857468" stroke="white" stroke-width="0.1" /><polygon points="3.1386129558086395,52.538132667541504 3.411697596311569,54.85987067222595 0.0,52.538132667541504" stroke="white" stroke-width="0.1" /><polygon points="3.411697596311569,54.85987067222595 4.18366864323616,56.996744871139526 0.0,52.538132667541504" stroke="white" stroke-width="0.1" /><polygon points="4.18366864323616,56.996744871139526 5.3916651755571365,58.88659358024597 0.2728779101744294,55.21852374076843 0.0,52.538132667541504" stroke="white" stroke-width="0.1" /><polygon points="5.3916651755571365,58.88659358024597 6.973102688789368,60.46710014343262 1.0522238910198212,57.71667957305908 0.2728779101744294,55.21852374076843" stroke="white" stroke-width="0.1" /><polygon points="6.973102688789368,60.46710014343262 8.865327388048172,61.676061153411865 2.283930964767933,59.97883081436157 1.0522238910198212,57.71667957305908" stroke="white" stroke-width="0.1" /><polygon points="8.865327388048172,61.676061153411865 11.005409806966782,62.45116591453552 3.9136167615652084,61.950939893722534 2.283930964767933,59.97883081436157" stroke="white" stroke-width="0.1" /><polygon points="11.005409806966782,62.45116591453552 13.330833613872528,62.73035407066345 5.887311697006226,63.57907056808472 3.9136167615652084,61.950939893722534" stroke="white" stroke-width="0.1" /><polygon points="13.330833613872528,62.73035407066345 70.64305543899536,62.73035407066345 70.63864469528198,62.77667284011841 5.887311697006226,63.57907056808472" stroke="white" stroke-width="0.1" /><polygon points="88.92773389816284,46.80569767951965 87.69919872283936,46.80569767951965 86.2523078918457,46.80569767951965 86.2523078918457,13.32421749830246" stroke="white" stroke-width="0.1" /><polygon points="70.63864469528198,62.77667284011841 70.63864469528198,65.30653238296509 5.887311697006226,63.57907056808472" stroke="white" stroke-width="0.1" /><polygon points="70.63864469528198,65.30653238296509 70.69599032402039,65.8601462841034 13.330833613872528,65.8601462841034 10.650096088647842,65.5876100063324 8.150909841060638,64.80926275253296 5.887311697006226,63.57907056808472" stroke="white" stroke-width="0.1" /><polygon points="99.54785108566284,61.682677268981934 99.64958429336548,61.79516315460205 99.73946213722229,61.91688776016235 99.81693625450134,62.04667687416077 99.88145232200623,62.183356285095215 99.93252754211426,62.32582926750183 99.96967911720276,62.472981214523315 99.99235272407532,62.62362003326416 100.0,62.77667284011841 100.0,65.30653238296509 99.99235272407532,65.45820236206055 99.96967911720276,65.60801267623901 99.93259310722351,65.7546877861023 99.88145232200623,65.89708924293518 99.81693625450134,66.03383421897888 99.73946213722229,66.16383194923401 99.64958429336548,66.28572940826416 99.54785108566284,66.3983166217804 99.43453669548035,66.5001928806305 99.31212067604065,66.59027338027954 99.18171763420105,66.66809320449829 99.0446925163269,66.73302054405212 98.9020824432373,66.7845070362091 98.7553358078003,66.8220043182373 98.60556125640869,66.84492230415344 98.45385551452637,66.85267686843872 90.47388434410095,66.85267686843872 84.6841037273407,66.85267686843872 76.70192122459412,66.85267686843872 76.55028700828552,66.84488654136658 76.40044093132019,66.8220043182373 76.2535572052002,66.7845070362091 76.11109018325806,66.73302054405212 75.97399353981018,66.66809320449829 75.84379315376282,66.59027338027954 75.72131156921387,66.5001928806305 75.60793161392212,66.3983166217804 75.52163600921631,66.30319952964783 75.44485330581665,66.20094776153564 75.37751197814941,66.09249114990234 75.31864643096924,65.97862839698792 75.2682626247406,65.8601462841034 75.22180676460266,65.72587490081787 75.18637776374817,65.58830142021179 75.16376972198486,65.44824242591858 75.15577673912048,65.30653238296509 75.15577673912048,62.77667284011841 75.16680359840393,62.73035407066345 84.6841037273407,61.2305223941803 90.47388434410095,61.2305223941803 91.54140949249268,61.2305223941803 98.45385551452637,61.2305223941803 98.60549569129944,61.23817563056946 98.7553358078003,61.26084923744202 98.90221953392029,61.29800081253052 99.0446925163269,61.34907603263855 99.18171763420105,61.41359210014343 99.31198358535767,61.491066217422485 99.43453669548035,61.58090829849243" stroke="white" stroke-width="0.1" /><polygon points="84.6841037273407,61.2305223941803 84.6841037273407,57.91105031967163 84.6841037273407,52.86897420883179 84.69182252883911,52.71730422973633 84.71443057060242,52.56749391555786 84.75151062011719,52.420783042907715 84.80265736579895,52.278417348861694 84.86716747283936,52.14160084724426 84.94464159011841,52.011674642562866 85.03459095954895,51.889777183532715 85.13625860214233,51.77718997001648 85.24888157844543,51.67469382286072 85.37074327468872,51.58429741859436 85.50066947937012,51.50644779205322 85.63748598098755,51.44165754318237 85.7798159122467,51.39040946960449 85.92656254768372,51.3532280921936 86.07633709907532,51.330482959747314 86.22804284095764,51.322829723358154 86.2523078918457,51.322829723358154 87.69919872283936,51.322829723358154 88.92773389816284,51.322829723358154 89.04732465744019,51.330822706222534 89.16484117507935,51.35205388069153 89.28070664405823,51.38238072395325 89.39533233642578,51.417672634124756 89.53269720077515,51.46716237068176 89.6654486656189,51.52643918991089 89.79227542877197,51.59701704978943 89.91082906723022,51.68010592460632 90.01952409744263,51.77718997001648 90.12194871902466,51.889777183532715 90.21238088607788,52.011674642562866 90.29026627540588,52.14163661003113 90.35505652427673,52.278417348861694 90.40626883506775,52.420783042907715 90.44355750083923,52.56749391555786 90.46623110771179,52.71726846694946 90.47388434410095,52.86897420883179 90.47388434410095,58.18895697593689 90.47388434410095,61.2305223941803" stroke="white" stroke-width="0.1" /><polygon points="75.16680359840393,62.73035407066345 75.17762780189514,62.58391737937927 75.20161271095276,62.43979334831238 75.23855566978455,62.29901313781738 75.2881109714508,62.16267943382263 75.3500759601593,62.03182339668274 75.42431354522705,61.907511949539185 75.51032900810242,61.79075241088867 75.60793161392212,61.682677268981934 75.72124600410461,61.58028841018677 75.84365606307983,61.49013638496399 75.97399353981018,61.41262650489807 76.11109018325806,61.34824752807617 76.25362873077393,61.29741668701172 76.40044093132019,61.2605094909668 76.55028700828552,61.23810410499573 76.70192122459412,61.2305223941803 81.31389617919922,61.2305223941803 84.6841037273407,61.2305223941803" stroke="white" stroke-width="0.1" /><polygon points="90.47388434410095,66.85267686843872 90.47388434410095,75.2958357334137 90.46616554260254,75.44812560081482 90.44355750083923,75.59828162193298 90.406334400177,75.74509382247925 90.35505652427673,75.88749527931213 90.29026627540588,76.0242760181427 90.21251797676086,76.15437507629395 90.12194871902466,76.27658247947693 90.01952409744263,76.3898253440857 89.90703821182251,76.49155855178833 89.7853136062622,76.58144235610962 89.65566158294678,76.6589105129242 89.51911926269531,76.72342658042908 89.37685489654541,76.77450180053711 89.2301857471466,76.81165337562561 89.08005952835083,76.83429718017578 88.92773389816284,76.84198021888733 86.22804284095764,76.84198021888733 86.07633709907532,76.83432698249817 85.92656254768372,76.81165337562561 85.77988743782043,76.77450180053711 85.63748598098755,76.72342658042908 85.50066947937012,76.6588807106018 85.37074327468872,76.58144235610962 85.24888157844543,76.4915943145752 85.13625860214233,76.3898253440857 85.03451943397522,76.27658247947693 84.94464159011841,76.15437507629395 84.86723899841309,76.02431178092957 84.80265736579895,75.88749527931213 84.75158214569092,75.74512958526611 84.71443057060242,75.59828162193298 84.69182252883911,75.44812560081482 84.6841037273407,75.2958357334137 84.6841037273407,69.94717717170715 84.6841037273407,66.85267686843872" stroke="white" stroke-width="0.1" /></svg>