<?xml version="1.0" encoding="utf-8" ?>
<svg baseProfile="full" height="51.027679443359375" version="1.1" width="99.81533885002136" xmlns="http://www.w3.org/2000/svg" xmlns:ev="http://www.w3.org/2001/xml-events" xmlns:xlink="http://www.w3.org/1999/xlink"><defs><clipPath /></defs><polygon points="45.24339139461517,22.222942113876343 45.24339139461517,22.222942113876343 44.87132132053375,23.220448195934296 44.87132132053375,23.220448195934296 43.21315586566925,21.544232964515686 43.21315586566925,21.544232964515686 40.930673480033875,19.27824169397354 40.930673480033875,19.27824169397354 38.264524936676025,16.654551029205322 38.264524936676025,16.654551029205322 35.45511066913605,13.90523612499237 35.45511066913605,13.90523612499237 32.74301588535309,11.262375116348267 32.74301588535309,11.262375116348267 30.368921160697937,8.957917988300323 30.368921160697937,8.957917988300323 28.573191165924072,7.224033772945404 28.573191165924072,7.224033772945404 27.59650945663452,6.292767822742462 27.59650945663452,6.292767822742462 27.589526772499084,6.284788250923157 27.589526772499084,6.284788250923157 27.305611968040466,5.117456242442131 27.305611968040466,5.117456242442131 28.502243757247925,5.007980018854141 28.502243757247925,5.007980018854141 37.364089488983154,7.539650797843933 37.364089488983154,7.539650797843933 37.22543716430664,4.144139587879181 37.22543716430664,4.144139587879181 37.70473897457123,2.9092269018292427 37.70473897457123,2.9092269018292427 38.99202048778534,3.224438801407814 38.99202048778534,3.224438801407814 41.69925153255463,5.289276689291 41.69925153255463,5.289276689291 44.497257471084595,0.7825436070561409 44.497257471084595,0.7825436070561409 45.66034972667694,0.001496259392297361 45.66034972667694,0.001496259392297361 46.72468900680542,0.9142144583165646 46.72468900680542,0.9142144583165646 48.973068594932556,5.718204379081726 48.973068594932556,5.718204379081726 51.90473794937134,3.9865337312221527 51.90473794937134,3.9865337312221527 53.21982502937317,3.824438899755478 53.21982502937317,3.824438899755478 53.54962348937988,5.1077306270599365 53.54962348937988,5.1077306270599365 53.012967109680176,8.465336263179779 53.012967109680176,8.465336263179779 62.11122274398804,6.991022080183029 62.11122274398804,6.991022080183029 63.28628659248352,7.242643088102341 63.28628659248352,7.242643088102341 62.86633610725403,8.369576185941696 62.86633610725403,8.369576185941696 59.43590998649597,12.225934863090515 59.43590998649597,12.225934863090515 61.51670813560486,12.583042681217194 61.51670813560486,12.583042681217194 62.51434087753296,13.133665919303894 62.51434087753296,13.133665919303894 61.67231798171997,13.899751007556915 61.67231798171997,13.899751007556915 59.223443269729614,14.94513750076294 59.223443269729614,14.94513750076294 59.0628445148468,14.909227192401886 59.0628445148468,14.909227192401886 57.782042026519775,14.476309716701508 57.782042026519775,14.476309716701508 56.345635652542114,13.95162045955658 56.345635652542114,13.95162045955658 55.957603454589844,13.835909962654114 55.957603454589844,13.835909962654114 53.65249514579773,13.759101927280426 53.65249514579773,13.759101927280426 51.82693004608154,14.430424571037292 51.82693004608154,14.430424571037292 50.224316120147705,15.731920301914215 50.224316120147705,15.731920301914215 49.324190616607666,16.89426451921463 49.324190616607666,16.89426451921463 48.4324187040329,18.3905228972435 48.4324187040329,18.3905228972435 48.09326529502869,19.018952548503876 48.09326529502869,19.018952548503876 47.28229343891144,19.509725272655487 47.28229343891144,19.509725272655487 46.07992470264435,20.686034858226776 46.07992470264435,20.686034858226776" stroke="white" stroke-width="0.1" /><polygon points="88.7346625328064,40.4334157705307 88.7346625328064,40.4334157705307 89.73416686058044,40.92029333114624 89.73416686058044,40.92029333114624 90.59039950370789,41.59407615661621 90.59039950370789,41.59407615661621 91.28466248512268,42.42110252380371 91.28466248512268,42.42110252380371 91.79825186729431,43.36767494678497 91.79825186729431,43.36767494678497 92.11259484291077,44.40018832683563 92.11259484291077,44.40018832683563 92.20885038375854,45.48488259315491 92.20885038375854,45.48488259315491 92.06832647323608,46.58803045749664 92.06832647323608,46.58803045749664 91.68640971183777,47.64432609081268 91.68640971183777,47.64432609081268 91.10199213027954,48.56845438480377 91.10199213027954,48.56845438480377 90.34862518310547,49.342018365859985 90.34862518310547,49.342018365859985 89.45997357368469,49.946632981300354 89.45997357368469,49.946632981300354 88.46988677978516,50.36380887031555 88.46988677978516,50.36380887031555 87.41191029548645,50.57518482208252 87.41191029548645,50.57518482208252 86.31994724273682,50.562310218811035 86.31994724273682,50.562310218811035 85.22742986679077,50.30673146247864 85.22742986679077,50.30673146247864 84.24494862556458,49.835410714149475 84.24494862556458,49.835410714149475 83.40411186218262,49.18503761291504 83.40411186218262,49.18503761291504 82.71932601928711,48.388031125068665 82.71932601928711,48.388031125068665 82.20523595809937,47.47680723667145 82.20523595809937,47.47680723667145 81.87618255615234,46.483635902404785 81.87618255615234,46.483635902404785 81.74663186073303,45.44089734554291 81.74663186073303,45.44089734554291 81.83116912841797,44.380953907966614 81.83116912841797,44.380953907966614 82.14414119720459,43.336158990859985 82.14414119720459,43.336158990859985 82.62668251991272,42.447629570961 82.62668251991272,42.447629570961 83.25916528701782,41.685786843299866 83.25916528701782,41.685786843299866 84.01552438735962,41.06231331825256 84.01552438735962,41.06231331825256 84.86932516098022,40.58902859687805 84.86932516098022,40.58902859687805 85.79438924789429,40.277743339538574 85.79438924789429,40.277743339538574 86.7645263671875,40.140148997306824 86.7645263671875,40.140148997306824 87.75336742401123,40.18809199333191 87.75336742401123,40.18809199333191" stroke="white" stroke-width="0.1" /><polygon points="60.70972681045532,28.646883368492126 60.70972681045532,28.646883368492126 61.624377965927124,29.080766439437866 61.624377965927124,29.080766439437866 62.42038607597351,29.671135544776917 62.42038607597351,29.671135544776917 63.08466196060181,30.392518639564514 63.08466196060181,30.392518639564514 63.60399127006531,31.219452619552612 63.60399127006531,31.219452619552612 63.965338468551636,32.12643265724182 63.965338468551636,32.12643265724182 64.15542364120483,33.087968826293945 64.15542364120483,33.087968826293945 64.16122317314148,34.07858610153198 64.16122317314148,34.07858610153198 63.969576358795166,35.07281839847565 63.969576358795166,35.07281839847565 63.52992653846741,36.11050546169281 63.52992653846741,36.11050546169281 62.89414167404175,37.00408339500427 62.89414167404175,37.00408339500427 62.09707260131836,37.736937403678894 62.09707260131836,37.736937403678894 61.17368936538696,38.29251825809479 61.17368936538696,38.29251825809479 60.15891432762146,38.65423798561096 60.15891432762146,38.65423798561096 59.0876579284668,38.805484771728516 59.0876579284668,38.805484771728516 57.994699478149414,38.72976899147034 57.994699478149414,38.72976899147034 56.91521167755127,38.41047286987305 56.91521167755127,38.41047286987305 55.92356324195862,37.854862213134766 55.92356324195862,37.854862213134766 55.09657263755798,37.112781405448914 55.09657263755798,37.112781405448914 54.449814558029175,36.22235059738159 54.449814558029175,36.22235059738159 53.99906635284424,35.22166311740875 53.99906635284424,35.22166311740875 53.759849071502686,34.148815274238586 53.759849071502686,34.148815274238586 53.747814893722534,33.04176926612854 53.747814893722534,33.04176926612854 53.978556394577026,31.93865418434143 53.978556394577026,31.93865418434143 54.11720871925354,31.54962658882141 54.11720871925354,31.54962658882141 54.20498847961426,31.370073556900024 54.20498847961426,31.370073556900024 54.78728413581848,30.414214730262756 54.78728413581848,30.414214730262756 55.54544925689697,29.61995005607605 55.54544925689697,29.61995005607605 56.44351840019226,29.00361716747284 56.44351840019226,29.00361716747284 57.44519829750061,28.581702709197998 57.44519829750061,28.581702709197998 58.51421356201172,28.370729088783264 58.51421356201172,28.370729088783264 59.61446166038513,28.38693857192993 59.61446166038513,28.38693857192993" stroke="white" stroke-width="0.1" /><polygon points="99.1695761680603,46.79152071475983 99.1695761680603,46.79152071475983 98.37256669998169,48.28379154205322 98.37256669998169,48.28379154205322 97.47381806373596,49.708229303359985 97.47381806373596,49.708229303359985 96.23690843582153,50.809478759765625 96.23690843582153,50.809478759765625 94.48678493499756,51.027679443359375 94.48678493499756,51.027679443359375 92.7635908126831,50.556111335754395 92.7635908126831,50.556111335754395 93.871009349823,48.948317766189575 93.871009349823,48.948317766189575 94.51103210449219,47.185784578323364 94.51103210449219,47.185784578323364 94.70498561859131,45.35299241542816 94.70498561859131,45.35299241542816 94.47394013404846,43.53441298007965 94.47394013404846,43.53441298007965 93.83915066719055,41.81446433067322 93.83915066719055,41.81446433067322 92.82181859016418,40.27768075466156 92.82181859016418,40.27768075466156 91.44313931465149,39.00841772556305 91.44313931465149,39.00841772556305 89.72418904304504,38.0912721157074 89.72418904304504,38.0912721157074 87.8450095653534,37.642642855644226 87.8450095653534,37.642642855644226 85.98490953445435,37.67580986022949 85.98490953445435,37.67580986022949 84.2149019241333,38.14292252063751 84.2149019241333,38.14292252063751 82.60573744773865,38.99601101875305 82.60573744773865,38.99601101875305 81.22842907905579,40.187281370162964 81.22842907905579,40.187281370162964 80.15386462211609,41.66882634162903 80.15386462211609,41.66882634162903 79.45286631584167,43.39276850223541 79.45286631584167,43.39276850223541 79.19650673866272,45.31122148036957 79.19650673866272,45.31122148036957 77.41957306861877,44.406795501708984 77.41957306861877,44.406795501708984 75.63578486442566,43.526121973991394 75.63578486442566,43.526121973991394 73.84301424026489,42.67119765281677 73.84301424026489,42.67119765281677 72.03915119171143,41.84389114379883 72.03915119171143,41.84389114379883 70.22206783294678,41.04616641998291 70.22206783294678,41.04616641998291 68.38977336883545,40.27986228466034 68.38977336883545,40.27986228466034 66.54002666473389,39.54697549343109 66.54002666473389,39.54697549343109 64.67082500457764,38.84937763214111 64.67082500457764,38.84937763214111 65.72961211204529,37.383291125297546 65.72961211204529,37.383291125297546 66.39314293861389,35.764122009277344 66.39314293861389,35.764122009277344 66.67306423187256,34.06234383583069 66.67306423187256,34.06234383583069 66.58104658126831,32.348379492759705 66.58104658126831,32.348379492759705 66.12855195999146,30.692675709724426 66.12855195999146,30.692675709724426 65.32730460166931,29.165711998939514 65.32730460166931,29.165711998939514 64.18877840042114,27.837812900543213 64.18877840042114,27.837812900543213 62.72468566894531,26.779550313949585 62.72468566894531,26.779550313949585 60.96259355545044,26.074251532554626 60.96259355545044,26.074251532554626 59.14226770401001,25.830921530723572 59.14226770401001,25.830921530723572 57.34015107154846,26.017862558364868 57.34015107154846,26.017862558364868 55.63235878944397,26.60333514213562 55.63235878944397,26.60333514213562 54.09526228904724,27.555611729621887 54.09526228904724,27.555611729621887 53.0448853969574,28.556141257286072 53.0448853969574,28.556141257286072 52.19164490699768,29.753023386001587 52.19164490699768,29.753023386001587 51.57356858253479,31.132668256759644 51.57356858253479,31.132668256759644 51.511722803115845,31.300249695777893 51.511722803115845,31.300249695777893 51.01495981216431,30.70773184299469 51.01495981216431,30.70773184299469 50.17818212509155,29.72443997859955 50.17818212509155,29.72443997859955 49.31820333003998,28.760597109794617 49.31820333003998,28.760597109794617 48.46234321594238,27.701246738433838 48.46234321594238,27.701246738433838 48.68042469024658,25.678303837776184 48.68042469024658,25.678303837776184 49.36608374118805,23.727181553840637 49.36608374118805,23.727181553840637 50.161343812942505,22.895510494709015 50.161343812942505,22.895510494709015 51.14663243293762,22.35860377550125 51.14663243293762,22.35860377550125 51.16459131240845,22.336658835411072 51.16459131240845,22.336658835411072 52.23291516304016,20.58304250240326 52.23291516304016,20.58304250240326 52.88896560668945,19.46471333503723 52.88896560668945,19.46471333503723 53.811222314834595,18.37693303823471 53.811222314834595,18.37693303823471 54.94812726974487,18.111221492290497 54.94812726974487,18.111221492290497 55.09974956512451,18.16907674074173 55.09974956512451,18.16907674074173 56.70505166053772,18.76084804534912 56.70505166053772,18.76084804534912 58.310723304748535,19.2417711019516 58.310723304748535,19.2417711019516 59.98254418373108,19.364090263843536 59.98254418373108,19.364090263843536 61.6253137588501,19.22244429588318 61.6253137588501,19.22244429588318 63.27630877494812,19.08678263425827 63.27630877494812,19.08678263425827 64.79401588439941,19.006234407424927 64.79401588439941,19.006234407424927 66.30873084068298,18.999002873897552 66.30873084068298,18.999002873897552 68.12543869018555,19.125904142856598 68.12543869018555,19.125904142856598 69.93017196655273,19.384288787841797 69.93017196655273,19.384288787841797 71.71546220779419,19.756795465946198 71.71546220779419,19.756795465946198 73.47381711006165,20.22593468427658 73.47381711006165,20.22593468427658 75.17905235290527,20.755766332149506 75.17905235290527,20.755766332149506 76.8983781337738,21.374812722206116 76.8983781337738,21.374812722206116 78.56259346008301,22.11764305830002 78.56259346008301,22.11764305830002 80.1022469997406,23.01895320415497 80.1022469997406,23.01895320415497 81.5350353717804,24.195635318756104 81.5350353717804,24.195635318756104 82.79401659965515,25.57222545146942 82.79401659965515,25.57222545146942 83.91371369361877,27.054864168167114 83.91371369361877,27.054864168167114 84.93877649307251,28.60068678855896 84.93877649307251,28.60068678855896 85.88073253631592,30.200591683387756 85.88073253631592,30.200591683387756 86.74762845039368,31.840896606445312 86.74762845039368,31.840896606445312 88.00947666168213,33.43690633773804 88.00947666168213,33.43690633773804 89.71608281135559,34.40966308116913 89.71608281135559,34.40966308116913 91.42817854881287,35.422006249427795 91.42817854881287,35.422006249427795 93.12094449996948,36.48781180381775 93.12094449996948,36.48781180381775 94.76932883262634,37.62107193470001 94.76932883262634,37.62107193470001 96.34838104248047,38.83565962314606 96.34838104248047,38.83565962314606 97.83304333686829,40.14551043510437 97.83304333686829,40.14551043510437 99.1985023021698,41.564589738845825 99.1985023021698,41.564589738845825 99.81533885002136,42.33017563819885 99.81533885002136,42.33017563819885 99.77605938911438,42.985036969184875 99.77605938911438,42.985036969184875 99.07082319259644,44.15411353111267 99.07082319259644,44.15411353111267 98.09326529502869,45.81795632839203 98.09326529502869,45.81795632839203" stroke="white" stroke-width="0.1" /><polygon points="66.20000004768372,23.274314403533936 66.20000004768372,23.274314403533936 66.60629510879517,23.45804274082184 66.60629510879517,23.45804274082184 67.05529689788818,23.659974336624146 67.05529689788818,23.659974336624146 67.52331852912903,23.842985928058624 67.52331852912903,23.842985928058624 67.98653602600098,23.970074951648712 67.98653602600098,23.970074951648712 68.42138171195984,24.00420755147934 68.42138171195984,24.00420755147934 68.80404949188232,23.908354341983795 68.80404949188232,23.908354341983795 69.11091208457947,23.64547997713089 69.11091208457947,23.64547997713089 69.31820511817932,23.178553581237793 69.31820511817932,23.178553581237793 69.43079829216003,22.625623643398285 69.43079829216003,22.625623643398285 69.49376463890076,22.055859863758087 69.49376463890076,22.055859863758087 69.51034665107727,21.482355892658234 69.51034665107727,21.482355892658234 69.48379278182983,20.91820389032364 69.48379278182983,20.91820389032364 69.23192143440247,20.62537372112274 69.23192143440247,20.62537372112274 68.74338984489441,20.477493107318878 68.74338984489441,20.477493107318878 68.3266818523407,20.40947675704956 68.3266818523407,20.40947675704956 67.89725422859192,20.336034893989563 67.89725422859192,20.336034893989563 67.4123466014862,20.266209542751312 67.4123466014862,20.266209542751312 66.88877940177917,20.210224390029907 66.88877940177917,20.210224390029907 66.34364128112793,20.178335905075073 66.34364128112793,20.178335905075073 65.79376459121704,20.180797576904297 65.79376459121704,20.180797576904297 65.25635719299316,20.227929949760437 65.25635719299316,20.227929949760437 64.66134786605835,20.352430641651154 64.66134786605835,20.352430641651154 64.13491368293762,20.569545030593872 64.13491368293762,20.569545030593872 63.70623707771301,20.89625895023346 63.70623707771301,20.89625895023346 63.536036014556885,21.210037171840668 63.536036014556885,21.210037171840668 63.581669330596924,21.531671285629272 63.581669330596924,21.531671285629272 63.79725933074951,21.851807832717896 63.79725933074951,21.851807832717896 64.13715481758118,22.161097824573517 64.13715481758118,22.161097824573517 64.58802819252014,22.470511496067047 64.58802819252014,22.470511496067047 65.07456302642822,22.74741232395172 65.07456302642822,22.74741232395172 65.5420184135437,22.981078922748566 65.5420184135437,22.981078922748566 65.93540906906128,23.160286247730255 65.93540906906128,23.160286247730255" stroke="white" stroke-width="0.1" /><polygon points="81.94463849067688,29.06184494495392 81.94463849067688,29.06184494495392 82.39588737487793,29.062095284461975 82.39588737487793,29.062095284461975 82.44538903236389,28.65087389945984 82.44538903236389,28.65087389945984 82.30074644088745,28.116676211357117 82.30074644088745,28.116676211357117 82.08491206169128,27.608323097229004 82.08491206169128,27.608323097229004 81.80997371673584,27.1244078874588 81.80997371673584,27.1244078874588 81.4879059791565,26.663589477539062 81.4879059791565,26.663589477539062 81.13067150115967,26.224344968795776 81.13067150115967,26.224344968795776 80.75050115585327,25.80530047416687 80.75050115585327,25.80530047416687 80.35910129547119,25.404956936836243 80.35910129547119,25.404956936836243 79.96857762336731,25.0219464302063 79.96857762336731,25.0219464302063 79.52743172645569,24.625717103481293 79.52743172645569,24.625717103481293 79.06309366226196,24.26518052816391 79.06309366226196,24.26518052816391 78.57805490493774,23.936939239501953 78.57805490493774,23.936939239501953 78.07493805885315,23.637655377388 78.07493805885315,23.637655377388 77.55635976791382,23.36387187242508 77.55635976791382,23.36387187242508 77.02493667602539,23.11221957206726 77.02493667602539,23.11221957206726 76.48316621780396,22.87939488887787 76.48316621780396,22.87939488887787 75.93366503715515,22.66184538602829 75.93366503715515,22.66184538602829 75.54501295089722,22.509071230888367 75.54501295089722,22.509071230888367 75.09114742279053,22.33354151248932 75.09114742279053,22.33354151248932 74.59444999694824,22.162343561649323 74.59444999694824,22.162343561649323 74.07718300819397,22.022444009780884 74.07718300819397,22.022444009780884 73.56172204017639,21.94092869758606 73.56172204017639,21.94092869758606 73.0705738067627,21.944762766361237 73.0705738067627,21.944762766361237 72.62580990791321,22.061003744602203 72.62580990791321,22.061003744602203 72.24987745285034,22.31670767068863 72.24987745285034,22.31670767068863 71.95411324501038,22.714433073997498 71.95411324501038,22.714433073997498 71.74264192581177,23.201900720596313 71.74264192581177,23.201900720596313 71.60099744796753,23.74918907880783 71.60099744796753,23.74918907880783 71.51433825492859,24.326372146606445 71.51433825492859,24.326372146606445 71.46807909011841,24.90345984697342 71.46807909011841,24.90345984697342 71.44750356674194,25.450560450553894 71.44750356674194,25.450560450553894 71.4379072189331,25.937655568122864 71.4379072189331,25.937655568122864 71.67506217956543,26.330173015594482 71.67506217956543,26.330173015594482 72.16808199882507,26.546135544776917 72.16808199882507,26.546135544776917 72.63703346252441,26.780611276626587 72.63703346252441,26.780611276626587 73.1069803237915,27.012813091278076 73.1069803237915,27.012813091278076 73.57805371284485,27.24292278289795 73.57805371284485,27.24292278289795 74.04987215995789,27.471071481704712 74.04987215995789,27.471071481704712 74.52244162559509,27.697473764419556 74.52244162559509,27.697473764419556 74.99569654464722,27.922195196151733 74.99569654464722,27.922195196151733 75.46951174736023,28.145509958267212 75.46951174736023,28.145509958267212 75.94364285469055,28.367581963539124 75.94364285469055,28.367581963539124 76.45922899246216,28.606173396110535 76.45922899246216,28.606173396110535 76.97543501853943,28.843140602111816 76.97543501853943,28.843140602111816 77.4925172328949,29.07855212688446 77.4925172328949,29.07855212688446 78.01035046577454,29.312437772750854 78.01035046577454,29.312437772750854 78.52911353111267,29.54488694667816 78.52911353111267,29.54488694667816 79.04887795448303,29.776060581207275 79.04887795448303,29.776060581207275 79.49737906455994,29.975497722625732 79.49737906455994,29.975497722625732 79.94663119316101,30.17306625843048 79.94663119316101,30.17306625843048 80.39663434028625,30.369138717651367 80.39663434028625,30.369138717651367 80.84738254547119,30.564090609550476 80.84738254547119,30.564090609550476 80.9960126876831,30.234912037849426 80.9960126876831,30.234912037849426 81.13740682601929,29.934069514274597 81.13740682601929,29.934069514274597 81.36969804763794,29.503989219665527 81.36969804763794,29.503989219665527 81.65236711502075,29.146134853363037 81.65236711502075,29.146134853363037" stroke="white" stroke-width="0.1" /><polygon points="18.4713214635849,7.384040206670761 18.4713214635849,7.384040206670761 18.97450089454651,6.959881633520126 18.97450089454651,6.959881633520126 19.534538686275482,6.65411502122879 19.534538686275482,6.65411502122879 20.133104920387268,6.467019766569138 20.133104920387268,6.467019766569138 20.751994848251343,6.398753076791763 20.751994848251343,6.398753076791763 21.372880041599274,6.449532508850098 21.372880041599274,6.449532508850098 21.977493166923523,6.619545072317123 21.977493166923523,6.619545072317123 22.547568380832672,6.909039616584778 22.547568380832672,6.909039616584778 23.064838349819183,7.318204641342163 23.064838349819183,7.318204641342163 40.14813005924225,23.926682770252228 40.14813005924225,23.926682770252228 40.5724436044693,24.422818422317505 40.5724436044693,24.422818422317505 40.884414315223694,24.986782670021057 40.884414315223694,24.986782670021057 41.076868772506714,25.601276755332947 41.076868772506714,25.601276755332947 41.14264249801636,26.248878240585327 41.14264249801636,26.248878240585327 41.076868772506714,26.895448565483093 41.076868772506714,26.895448565483093 40.884414315223694,27.510225772857666 40.884414315223694,27.510225772857666 40.5724436044693,28.076371550559998 40.5724436044693,28.076371550559998 40.14813005924225,28.577056527137756 40.14813005924225,28.577056527137756 23.063839972019196,45.18553614616394 23.063839972019196,45.18553614616394 23.063839972019196,45.18553614616394 23.063839972019196,45.18553614616394 22.546321153640747,45.59258222579956 22.546321153640747,45.59258222579956 21.976184844970703,45.88017463684082 21.976184844970703,45.88017463684082 21.37172669172287,46.04862928390503 21.37172669172287,46.04862928390503 20.750997960567474,46.09825313091278 20.750997960567474,46.09825313091278 20.13232558965683,46.02930247783661 20.13232558965683,46.02930247783661 19.533853232860565,45.842018723487854 19.533853232860565,45.842018723487854 18.973752856254578,45.536720752716064 18.973752856254578,45.536720752716064 18.47032457590103,45.11371552944183 18.47032457590103,45.11371552944183 18.066178262233734,44.60090398788452 18.066178262233734,44.60090398788452 17.780205607414246,44.03391480445862 17.780205607414246,44.03391480445862 17.612312734127045,43.43142211437225 17.612312734127045,43.43142211437225 17.56284236907959,42.81196892261505 17.56284236907959,42.81196892261505 17.631827294826508,42.19423234462738 17.631827294826508,42.19423234462738 17.819450795650482,41.5967583656311 17.819450795650482,41.5967583656311 18.12584102153778,41.03821814060211 18.12584102153778,41.03821814060211 18.551121652126312,40.53715765476227 18.551121652126312,40.53715765476227 32.37256705760956,27.10673213005066 32.37256705760956,27.10673213005066 32.63927698135376,26.713716983795166 32.63927698135376,26.713716983795166 32.73167014122009,26.248878240585327 32.73167014122009,26.248878240585327 32.63927698135376,25.78403949737549 32.63927698135376,25.78403949737549 32.37256705760956,25.397008657455444 32.37256705760956,25.397008657455444 18.53017508983612,11.956608295440674 18.53017508983612,11.956608295440674 18.10988187789917,11.4454485476017 18.10988187789917,11.4454485476017 17.805735766887665,10.876059532165527 17.805735766887665,10.876059532165527 17.62094795703888,10.267425328493118 17.62094795703888,10.267425328493118 17.55860298871994,9.638404101133347 17.55860298871994,9.638404101133347 17.61552393436432,9.031982719898224 17.61552393436432,9.031982719898224 17.786408960819244,8.442393690347672 17.786408960819244,8.442393690347672 18.071570992469788,7.88721963763237 18.071570992469788,7.88721963763237" stroke="white" stroke-width="0.1" /><polygon points="8.64289253950119,36.736658215522766 8.64289253950119,36.736658215522766 1.2892767786979675,29.399001598358154 1.2892767786979675,29.399001598358154 0.7253117393702269,28.701746463775635 0.7253117393702269,28.701746463775635 0.32250622753053904,27.927306294441223 0.32250622753053904,27.927306294441223 0.08082917775027454,27.101433277130127 0.08082917775027454,27.101433277130127 0.000249376557803771,26.249876618385315 0.000249376557803771,26.249876618385315 0.08079800754785538,25.398284196853638 0.08079800754785538,25.398284196853638 0.32250622753053904,24.572443962097168 0.32250622753053904,24.572443962097168 0.7253428921103477,23.798036575317383 0.7253428921103477,23.798036575317383 1.2892767786979675,23.100748658180237 1.2892767786979675,23.100748658180237 8.64289253950119,15.761096775531769 8.64289253950119,15.761096775531769 9.336159378290176,15.192237496376038 9.336159378290176,15.192237496376038 10.10863482952118,14.785909652709961 10.10863482952118,14.785909652709961 10.933852940797806,14.542113244533539 10.933852940797806,14.542113244533539 11.785411089658737,14.460848271846771 11.785411089658737,14.460848271846771 12.636938691139221,14.542113244533539 12.636938691139221,14.542113244533539 13.462001085281372,14.785909652709961 13.462001085281372,14.785909652709961 14.234258234500885,15.19220620393753 14.234258234500885,15.19220620393753 14.927181601524353,15.761096775531769 14.927181601524353,15.761096775531769 22.280797362327576,23.100748658180237 22.280797362327576,23.100748658180237 22.849656641483307,23.798005282878876 22.849656641483307,23.798005282878876 23.255984485149384,24.572443962097168 23.255984485149384,24.572443962097168 23.499782383441925,25.398316979408264 23.499782383441925,25.398316979408264 23.581047356128693,26.249876618385315 23.581047356128693,26.249876618385315 23.499812185764313,27.101466059684753 23.499812185764313,27.101466059684753 23.255984485149384,27.927306294441223 23.255984485149384,27.927306294441223 22.849656641483307,28.70171368122101 22.849656641483307,28.70171368122101 22.280797362327576,29.399001598358154 22.280797362327576,29.399001598358154 14.927181601524353,36.736658215522766 14.927181601524353,36.736658215522766 14.23388421535492,37.30551600456238 14.23388421535492,37.30551600456238 13.461470603942871,37.711843848228455 13.461470603942871,37.711843848228455 12.636253237724304,37.955641746520996 12.636253237724304,37.955641746520996 11.784663051366806,38.036906719207764 11.784663051366806,38.036906719207764 10.933166742324829,37.955641746520996 10.933166742324829,37.955641746520996 10.108042508363724,37.711843848228455 10.108042508363724,37.711843848228455 9.335816651582718,37.305548787117004 9.335816651582718,37.305548787117004" stroke="white" stroke-width="0.1" /><polygon points="48.973068594932556,5.718204379081726 51.82693004608154,14.430424571037292 50.224316120147705,15.731920301914215" stroke="white" stroke-width="0.1" /><polygon points="50.224316120147705,15.731920301914215 46.07992470264435,20.686034858226776 48.973068594932556,5.718204379081726" stroke="white" stroke-width="0.1" /><polygon points="46.07992470264435,20.686034858226776 45.24339139461517,22.222942113876343 43.21315586566925,21.544232964515686 40.930673480033875,19.27824169397354 41.69925153255463,5.289276689291 44.497257471084595,0.7825436070561409 45.66034972667694,0.001496259392297361 46.72468900680542,0.9142144583165646 48.973068594932556,5.718204379081726" stroke="white" stroke-width="0.1" /><polygon points="50.224316120147705,15.731920301914215 49.324190616607666,16.89426451921463 47.28229343891144,19.509725272655487 46.07992470264435,20.686034858226776" stroke="white" stroke-width="0.1" /><polygon points="49.324190616607666,16.89426451921463 48.4324187040329,18.3905228972435 47.28229343891144,19.509725272655487" stroke="white" stroke-width="0.1" /><polygon points="48.4324187040329,18.3905228972435 48.09326529502869,19.018952548503876 47.28229343891144,19.509725272655487" stroke="white" stroke-width="0.1" /><polygon points="48.973068594932556,5.718204379081726 53.65249514579773,13.759101927280426 51.82693004608154,14.430424571037292" stroke="white" stroke-width="0.1" /><polygon points="48.973068594932556,5.718204379081726 53.012967109680176,8.465336263179779 55.957603454589844,13.835909962654114 53.65249514579773,13.759101927280426" stroke="white" stroke-width="0.1" /><polygon points="53.012967109680176,8.465336263179779 59.43590998649597,12.225934863090515 56.345635652542114,13.95162045955658 55.957603454589844,13.835909962654114" stroke="white" stroke-width="0.1" /><polygon points="59.43590998649597,12.225934863090515 61.51670813560486,12.583042681217194 62.51434087753296,13.133665919303894 61.67231798171997,13.899751007556915 59.223443269729614,14.94513750076294 59.0628445148468,14.909227192401886 57.782042026519775,14.476309716701508 56.345635652542114,13.95162045955658" stroke="white" stroke-width="0.1" /><polygon points="53.012967109680176,8.465336263179779 62.11122274398804,6.991022080183029 63.28628659248352,7.242643088102341 62.86633610725403,8.369576185941696 59.43590998649597,12.225934863090515" stroke="white" stroke-width="0.1" /><polygon points="48.973068594932556,5.718204379081726 51.90473794937134,3.9865337312221527 53.21982502937317,3.824438899755478 53.54962348937988,5.1077306270599365 53.012967109680176,8.465336263179779" stroke="white" stroke-width="0.1" /><polygon points="40.930673480033875,19.27824169397354 38.264524936676025,16.654551029205322 37.364089488983154,7.539650797843933 37.22543716430664,4.144139587879181 37.70473897457123,2.9092269018292427 38.99202048778534,3.224438801407814 41.69925153255463,5.289276689291" stroke="white" stroke-width="0.1" /><polygon points="38.264524936676025,16.654551029205322 35.45511066913605,13.90523612499237 37.364089488983154,7.539650797843933" stroke="white" stroke-width="0.1" /><polygon points="35.45511066913605,13.90523612499237 32.74301588535309,11.262375116348267 37.364089488983154,7.539650797843933" stroke="white" stroke-width="0.1" /><polygon points="32.74301588535309,11.262375116348267 30.368921160697937,8.957917988300323 37.364089488983154,7.539650797843933" stroke="white" stroke-width="0.1" /><polygon points="30.368921160697937,8.957917988300323 28.573191165924072,7.224033772945404 37.364089488983154,7.539650797843933" stroke="white" stroke-width="0.1" /><polygon points="28.573191165924072,7.224033772945404 27.59650945663452,6.292767822742462 27.589526772499084,6.284788250923157 27.305611968040466,5.117456242442131 28.502243757247925,5.007980018854141 37.364089488983154,7.539650797843933" stroke="white" stroke-width="0.1" /><polygon points="45.24339139461517,22.222942113876343 44.87132132053375,23.220448195934296 43.21315586566925,21.544232964515686" stroke="white" stroke-width="0.1" /><polygon points="88.7346625328064,40.4334157705307 89.73416686058044,40.92029333114624 90.59039950370789,41.59407615661621 91.28466248512268,42.42110252380371 91.79825186729431,43.36767494678497 92.11259484291077,44.40018832683563 92.20885038375854,45.48488259315491 92.06832647323608,46.58803045749664 91.68640971183777,47.64432609081268 91.10199213027954,48.56845438480377 90.34862518310547,49.342018365859985 89.45997357368469,49.946632981300354 88.46988677978516,50.36380887031555 87.41191029548645,50.57518482208252 86.31994724273682,50.562310218811035 85.22742986679077,50.30673146247864 84.24494862556458,49.835410714149475 83.40411186218262,49.18503761291504 82.71932601928711,48.388031125068665 82.20523595809937,47.47680723667145 81.87618255615234,46.483635902404785 81.74663186073303,45.44089734554291 81.83116912841797,44.380953907966614 82.14414119720459,43.336158990859985 82.62668251991272,42.447629570961 83.25916528701782,41.685786843299866 84.01552438735962,41.06231331825256 84.86932516098022,40.58902859687805 85.79438924789429,40.277743339538574 86.7645263671875,40.140148997306824 87.75336742401123,40.18809199333191" stroke="white" stroke-width="0.1" /><polygon points="60.70972681045532,28.646883368492126 61.624377965927124,29.080766439437866 62.42038607597351,29.671135544776917 63.08466196060181,30.392518639564514 63.60399127006531,31.219452619552612 63.965338468551636,32.12643265724182 64.15542364120483,33.087968826293945 64.16122317314148,34.07858610153198 63.969576358795166,35.07281839847565 63.52992653846741,36.11050546169281 62.89414167404175,37.00408339500427 62.09707260131836,37.736937403678894 61.17368936538696,38.29251825809479 60.15891432762146,38.65423798561096 59.0876579284668,38.805484771728516 57.994699478149414,38.72976899147034 56.91521167755127,38.41047286987305 55.92356324195862,37.854862213134766 55.09657263755798,37.112781405448914 54.449814558029175,36.22235059738159 53.99906635284424,35.22166311740875 53.759849071502686,34.148815274238586 53.747814893722534,33.04176926612854 53.978556394577026,31.93865418434143 54.11720871925354,31.54962658882141 54.20498847961426,31.370073556900024 54.78728413581848,30.414214730262756 55.54544925689697,29.61995005607605 56.44351840019226,29.00361716747284 57.44519829750061,28.581702709197998 58.51421356201172,28.370729088783264 59.61446166038513,28.38693857192993" stroke="white" stroke-width="0.1" /><polygon points="20.13232558965683,46.02930247783661 19.533853232860565,45.842018723487854 18.973752856254578,45.536720752716064 18.47032457590103,45.11371552944183 18.066178262233734,44.60090398788452 17.780205607414246,44.03391480445862 17.612312734127045,43.43142211437225 17.56284236907959,42.81196892261505 17.631827294826508,42.19423234462738 17.819450795650482,41.5967583656311 18.12584102153778,41.03821814060211 18.551121652126312,40.53715765476227 32.37256705760956,27.10673213005066" stroke="white" stroke-width="0.1" /><polygon points="32.37256705760956,27.10673213005066 32.63927698135376,26.713716983795166 40.14813005924225,28.577056527137756 23.063839972019196,45.18553614616394 23.063839972019196,45.18553614616394 22.546321153640747,45.59258222579956 21.976184844970703,45.88017463684082 21.37172669172287,46.04862928390503 20.750997960567474,46.09825313091278 20.13232558965683,46.02930247783661" stroke="white" stroke-width="0.1" /><polygon points="32.63927698135376,26.713716983795166 32.73167014122009,26.248878240585327 40.14813005924225,28.577056527137756" stroke="white" stroke-width="0.1" /><polygon points="32.73167014122009,26.248878240585327 32.63927698135376,25.78403949737549 40.14813005924225,28.577056527137756" stroke="white" stroke-width="0.1" /><polygon points="32.63927698135376,25.78403949737549 32.37256705760956,25.397008657455444 40.14813005924225,28.577056527137756" stroke="white" stroke-width="0.1" /><polygon points="32.37256705760956,25.397008657455444 18.53017508983612,11.956608295440674 18.10988187789917,11.4454485476017 17.805735766887665,10.876059532165527 17.62094795703888,10.267425328493118 17.55860298871994,9.638404101133347 17.61552393436432,9.031982719898224 17.786408960819244,8.442393690347672 18.071570992469788,7.88721963763237 18.4713214635849,7.384040206670761 18.97450089454651,6.959881633520126 19.534538686275482,6.65411502122879 20.133104920387268,6.467019766569138 20.751994848251343,6.398753076791763 21.372880041599274,6.449532508850098 21.977493166923523,6.619545072317123 22.547568380832672,6.909039616584778 23.064838349819183,7.318204641342163 40.14813005924225,23.926682770252228 40.5724436044693,24.422818422317505 40.884414315223694,24.986782670021057 41.076868772506714,25.601276755332947 41.14264249801636,26.248878240585327 41.076868772506714,26.895448565483093 40.884414315223694,27.510225772857666 40.5724436044693,28.076371550559998 40.14813005924225,28.577056527137756" stroke="white" stroke-width="0.1" /><polygon points="8.64289253950119,36.736658215522766 1.2892767786979675,29.399001598358154 0.7253117393702269,28.701746463775635 0.32250622753053904,27.927306294441223 0.08082917775027454,27.101433277130127 0.000249376557803771,26.249876618385315 0.08079800754785538,25.398284196853638 0.32250622753053904,24.572443962097168 0.7253428921103477,23.798036575317383 1.2892767786979675,23.100748658180237 8.64289253950119,15.761096775531769 9.336159378290176,15.192237496376038 10.10863482952118,14.785909652709961 10.933852940797806,14.542113244533539 11.785411089658737,14.460848271846771 12.636938691139221,14.542113244533539 13.462001085281372,14.785909652709961 14.234258234500885,15.19220620393753 14.927181601524353,15.761096775531769 22.280797362327576,23.100748658180237 22.849656641483307,23.798005282878876 23.255984485149384,24.572443962097168 23.499782383441925,25.398316979408264 23.581047356128693,26.249876618385315 23.499812185764313,27.101466059684753 23.255984485149384,27.927306294441223 22.849656641483307,28.70171368122101 22.280797362327576,29.399001598358154 14.927181601524353,36.736658215522766 14.23388421535492,37.30551600456238 13.461470603942871,37.711843848228455 12.636253237724304,37.955641746520996 11.784663051366806,38.036906719207764 10.933166742324829,37.955641746520996 10.108042508363724,37.711843848228455 9.335816651582718,37.305548787117004" stroke="white" stroke-width="0.1" /><polygon points="93.871009349823,48.948317766189575 94.51103210449219,47.185784578323364 94.70498561859131,45.35299241542816 94.47394013404846,43.53441298007965 93.83915066719055,41.81446433067322 92.82181859016418,40.27768075466156 81.94463849067688,29.06184494495392 82.39588737487793,29.062095284461975 82.44538903236389,28.65087389945984 82.30074644088745,28.116676211357117 82.08491206169128,27.608323097229004 81.80997371673584,27.1244078874588 81.4879059791565,26.663589477539062 81.13067150115967,26.224344968795776 80.75050115585327,25.80530047416687 79.96857762336731,25.0219464302063 79.52743172645569,24.625717103481293 79.06309366226196,24.26518052816391 78.57805490493774,23.936939239501953 78.07493805885315,23.637655377388 77.55635976791382,23.36387187242508 77.02493667602539,23.11221957206726 75.93366503715515,22.66184538602829 75.09114742279053,22.33354151248932 74.59444999694824,22.162343561649323 74.07718300819397,22.022444009780884 73.56172204017639,21.94092869758606 73.0705738067627,21.944762766361237 72.62580990791321,22.061003744602203 72.24987745285034,22.31670767068863 71.95411324501038,22.714433073997498 71.74264192581177,23.201900720596313 71.60099744796753,23.74918907880783 71.51433825492859,24.326372146606445 71.46807909011841,24.90345984697342 71.4379072189331,25.937655568122864 66.20000004768372,23.274314403533936 66.60629510879517,23.45804274082184 67.05529689788818,23.659974336624146 67.52331852912903,23.842985928058624 67.98653602600098,23.970074951648712 68.42138171195984,24.00420755147934 68.80404949188232,23.908354341983795 69.11091208457947,23.64547997713089 69.31820511817932,23.178553581237793 69.43079829216003,22.625623643398285 69.49376463890076,22.055859863758087 69.51034665107727,21.482355892658234 69.48379278182983,20.91820389032364 69.23192143440247,20.62537372112274 68.74338984489441,20.477493107318878 67.89725422859192,20.336034893989563 66.88877940177917,20.210224390029907 66.34364128112793,20.178335905075073 65.79376459121704,20.180797576904297 65.25635719299316,20.227929949760437 64.66134786605835,20.352430641651154 64.13491368293762,20.569545030593872 63.70623707771301,20.89625895023346 63.536036014556885,21.210037171840668 63.581669330596924,21.531671285629272 63.79725933074951,21.851807832717896 64.13715481758118,22.161097824573517 64.58802819252014,22.470511496067047 65.07456302642822,22.74741232395172 71.67506217956543,26.330173015594482 74.04987215995789,27.471071481704712 74.99569654464722,27.922195196151733 76.45922899246216,28.606173396110535 78.52911353111267,29.54488694667816 80.39663434028625,30.369138717651367 80.84738254547119,30.564090609550476 81.94463849067688,29.06184494495392 92.82181859016418,40.27768075466156 91.44313931465149,39.00841772556305 89.72418904304504,38.0912721157074 62.72468566894531,26.779550313949585 59.98254418373108,19.364090263843536 61.6253137588501,19.22244429588318 63.27630877494812,19.08678263425827 64.79401588439941,19.006234407424927 66.30873084068298,18.999002873897552 68.12543869018555,19.125904142856598 69.93017196655273,19.384288787841797 71.71546220779419,19.756795465946198 73.47381711006165,20.22593468427658 75.17905235290527,20.755766332149506 76.8983781337738,21.374812722206116 78.56259346008301,22.11764305830002 80.1022469997406,23.01895320415497 81.5350353717804,24.195635318756104 82.79401659965515,25.57222545146942 83.91371369361877,27.054864168167114 84.93877649307251,28.60068678855896 85.88073253631592,30.200591683387756 86.74762845039368,31.840896606445312 88.00947666168213,33.43690633773804 98.09326529502869,45.81795632839203" stroke="white" stroke-width="0.1" /><polygon points="98.09326529502869,45.81795632839203 99.1695761680603,46.79152071475983 98.37256669998169,48.28379154205322 97.47381806373596,49.708229303359985 96.23690843582153,50.809478759765625 94.48678493499756,51.027679443359375 92.7635908126831,50.556111335754395 93.871009349823,48.948317766189575" stroke="white" stroke-width="0.1" /><polygon points="88.00947666168213,33.43690633773804 99.07082319259644,44.15411353111267 98.09326529502869,45.81795632839203" stroke="white" stroke-width="0.1" /><polygon points="88.00947666168213,33.43690633773804 89.71608281135559,34.40966308116913 91.42817854881287,35.422006249427795 93.12094449996948,36.48781180381775 94.76932883262634,37.62107193470001 96.34838104248047,38.83565962314606 97.83304333686829,40.14551043510437 99.1985023021698,41.564589738845825 99.81533885002136,42.33017563819885 99.77605938911438,42.985036969184875 99.07082319259644,44.15411353111267" stroke="white" stroke-width="0.1" /><polygon points="62.72468566894531,26.779550313949585 60.96259355545044,26.074251532554626 58.310723304748535,19.2417711019516 59.98254418373108,19.364090263843536" stroke="white" stroke-width="0.1" /><polygon points="60.96259355545044,26.074251532554626 59.14226770401001,25.830921530723572 56.70505166053772,18.76084804534912 58.310723304748535,19.2417711019516" stroke="white" stroke-width="0.1" /><polygon points="59.14226770401001,25.830921530723572 57.34015107154846,26.017862558364868 55.09974956512451,18.16907674074173 56.70505166053772,18.76084804534912" stroke="white" stroke-width="0.1" /><polygon points="57.34015107154846,26.017862558364868 55.63235878944397,26.60333514213562 52.23291516304016,20.58304250240326 52.88896560668945,19.46471333503723 53.811222314834595,18.37693303823471 54.94812726974487,18.111221492290497 55.09974956512451,18.16907674074173" stroke="white" stroke-width="0.1" /><polygon points="55.63235878944397,26.60333514213562 54.09526228904724,27.555611729621887 51.16459131240845,22.336658835411072 52.23291516304016,20.58304250240326" stroke="white" stroke-width="0.1" /><polygon points="54.09526228904724,27.555611729621887 53.0448853969574,28.556141257286072 51.14663243293762,22.35860377550125 51.16459131240845,22.336658835411072" stroke="white" stroke-width="0.1" /><polygon points="53.0448853969574,28.556141257286072 52.19164490699768,29.753023386001587 50.17818212509155,29.72443997859955 49.31820333003998,28.760597109794617 48.46234321594238,27.701246738433838 48.68042469024658,25.678303837776184 49.36608374118805,23.727181553840637 50.161343812942505,22.895510494709015 51.14663243293762,22.35860377550125" stroke="white" stroke-width="0.1" /><polygon points="52.19164490699768,29.753023386001587 51.57356858253479,31.132668256759644 51.01495981216431,30.70773184299469 50.17818212509155,29.72443997859955" stroke="white" stroke-width="0.1" /><polygon points="51.57356858253479,31.132668256759644 51.511722803115845,31.300249695777893 51.01495981216431,30.70773184299469" stroke="white" stroke-width="0.1" /><polygon points="89.72418904304504,38.0912721157074 64.18877840042114,27.837812900543213 62.72468566894531,26.779550313949585" stroke="white" stroke-width="0.1" /><polygon points="89.72418904304504,38.0912721157074 65.32730460166931,29.165711998939514 64.18877840042114,27.837812900543213" stroke="white" stroke-width="0.1" /><polygon points="89.72418904304504,38.0912721157074 66.12855195999146,30.692675709724426 65.32730460166931,29.165711998939514" stroke="white" stroke-width="0.1" /><polygon points="89.72418904304504,38.0912721157074 87.8450095653534,37.642642855644226 66.58104658126831,32.348379492759705 66.12855195999146,30.692675709724426" stroke="white" stroke-width="0.1" /><polygon points="87.8450095653534,37.642642855644226 66.67306423187256,34.06234383583069 66.58104658126831,32.348379492759705" stroke="white" stroke-width="0.1" /><polygon points="87.8450095653534,37.642642855644226 66.39314293861389,35.764122009277344 66.67306423187256,34.06234383583069" stroke="white" stroke-width="0.1" /><polygon points="87.8450095653534,37.642642855644226 85.98490953445435,37.67580986022949 65.72961211204529,37.383291125297546 66.39314293861389,35.764122009277344" stroke="white" stroke-width="0.1" /><polygon points="85.98490953445435,37.67580986022949 66.54002666473389,39.54697549343109 64.67082500457764,38.84937763214111 65.72961211204529,37.383291125297546" stroke="white" stroke-width="0.1" /><polygon points="85.98490953445435,37.67580986022949 68.38977336883545,40.27986228466034 66.54002666473389,39.54697549343109" stroke="white" stroke-width="0.1" /><polygon points="85.98490953445435,37.67580986022949 84.2149019241333,38.14292252063751 70.22206783294678,41.04616641998291 68.38977336883545,40.27986228466034" stroke="white" stroke-width="0.1" /><polygon points="84.2149019241333,38.14292252063751 82.60573744773865,38.99601101875305 72.03915119171143,41.84389114379883 70.22206783294678,41.04616641998291" stroke="white" stroke-width="0.1" /><polygon points="82.60573744773865,38.99601101875305 81.22842907905579,40.187281370162964 73.84301424026489,42.67119765281677 72.03915119171143,41.84389114379883" stroke="white" stroke-width="0.1" /><polygon points="81.22842907905579,40.187281370162964 80.15386462211609,41.66882634162903 75.63578486442566,43.526121973991394 73.84301424026489,42.67119765281677" stroke="white" stroke-width="0.1" /><polygon points="80.15386462211609,41.66882634162903 79.45286631584167,43.39276850223541 77.41957306861877,44.406795501708984 75.63578486442566,43.526121973991394" stroke="white" stroke-width="0.1" /><polygon points="79.45286631584167,43.39276850223541 79.19650673866272,45.31122148036957 77.41957306861877,44.406795501708984" stroke="white" stroke-width="0.1" /><polygon points="80.84738254547119,30.564090609550476 80.9960126876831,30.234912037849426 81.13740682601929,29.934069514274597 81.36969804763794,29.503989219665527 81.65236711502075,29.146134853363037 81.94463849067688,29.06184494495392" stroke="white" stroke-width="0.1" /><polygon points="78.52911353111267,29.54488694667816 79.94663119316101,30.17306625843048 80.39663434028625,30.369138717651367" stroke="white" stroke-width="0.1" /><polygon points="78.52911353111267,29.54488694667816 79.49737906455994,29.975497722625732 79.94663119316101,30.17306625843048" stroke="white" stroke-width="0.1" /><polygon points="78.52911353111267,29.54488694667816 79.04887795448303,29.776060581207275 79.49737906455994,29.975497722625732" stroke="white" stroke-width="0.1" /><polygon points="76.45922899246216,28.606173396110535 78.01035046577454,29.312437772750854 78.52911353111267,29.54488694667816" stroke="white" stroke-width="0.1" /><polygon points="76.45922899246216,28.606173396110535 77.4925172328949,29.07855212688446 78.01035046577454,29.312437772750854" stroke="white" stroke-width="0.1" /><polygon points="76.45922899246216,28.606173396110535 76.97543501853943,28.843140602111816 77.4925172328949,29.07855212688446" stroke="white" stroke-width="0.1" /><polygon points="74.99569654464722,27.922195196151733 75.94364285469055,28.367581963539124 76.45922899246216,28.606173396110535" stroke="white" stroke-width="0.1" /><polygon points="74.99569654464722,27.922195196151733 75.46951174736023,28.145509958267212 75.94364285469055,28.367581963539124" stroke="white" stroke-width="0.1" /><polygon points="74.04987215995789,27.471071481704712 74.52244162559509,27.697473764419556 74.99569654464722,27.922195196151733" stroke="white" stroke-width="0.1" /><polygon points="71.67506217956543,26.330173015594482 73.57805371284485,27.24292278289795 74.04987215995789,27.471071481704712" stroke="white" stroke-width="0.1" /><polygon points="71.67506217956543,26.330173015594482 73.1069803237915,27.012813091278076 73.57805371284485,27.24292278289795" stroke="white" stroke-width="0.1" /><polygon points="71.67506217956543,26.330173015594482 72.63703346252441,26.780611276626587 73.1069803237915,27.012813091278076" stroke="white" stroke-width="0.1" /><polygon points="71.67506217956543,26.330173015594482 72.16808199882507,26.546135544776917 72.63703346252441,26.780611276626587" stroke="white" stroke-width="0.1" /><polygon points="65.07456302642822,22.74741232395172 65.5420184135437,22.981078922748566 71.67506217956543,26.330173015594482" stroke="white" stroke-width="0.1" /><polygon points="65.5420184135437,22.981078922748566 66.20000004768372,23.274314403533936 71.4379072189331,25.937655568122864 71.67506217956543,26.330173015594482" stroke="white" stroke-width="0.1" /><polygon points="65.5420184135437,22.981078922748566 65.93540906906128,23.160286247730255 66.20000004768372,23.274314403533936" stroke="white" stroke-width="0.1" /><polygon points="67.89725422859192,20.336034893989563 67.4123466014862,20.266209542751312 66.88877940177917,20.210224390029907" stroke="white" stroke-width="0.1" /><polygon points="68.74338984489441,20.477493107318878 68.3266818523407,20.40947675704956 67.89725422859192,20.336034893989563" stroke="white" stroke-width="0.1" /><polygon points="71.46807909011841,24.90345984697342 71.44750356674194,25.450560450553894 71.4379072189331,25.937655568122864" stroke="white" stroke-width="0.1" /><polygon points="75.93366503715515,22.66184538602829 75.54501295089722,22.509071230888367 75.09114742279053,22.33354151248932" stroke="white" stroke-width="0.1" /><polygon points="77.02493667602539,23.11221957206726 76.48316621780396,22.87939488887787 75.93366503715515,22.66184538602829" stroke="white" stroke-width="0.1" /><polygon points="80.75050115585327,25.80530047416687 80.35910129547119,25.404956936836243 79.96857762336731,25.0219464302063" stroke="white" stroke-width="0.1" /></svg>