<?xml version="1.0" encoding="utf-8" ?>
<svg baseProfile="full" height="99.05843138694763" version="1.1" width="100.0" xmlns="http://www.w3.org/2000/svg" xmlns:ev="http://www.w3.org/2001/xml-events" xmlns:xlink="http://www.w3.org/1999/xlink"><defs><clipPath /></defs><polygon points="30.1044762134552,69.89767551422119 30.1044762134552,69.89767551422119 32.552990317344666,75.06771683692932 32.552990317344666,75.06771683692932 4.142482578754425,98.47800731658936 4.142482578754425,98.47800731658936 3.643616661429405,98.80805611610413 3.643616661429405,98.80805611610413 3.102025017142296,98.99776577949524 3.102025017142296,98.99776577949524 2.5302033871412277,99.05843138694763 2.5302033871412277,99.05843138694763 1.916193775832653,98.9783525466919 1.916193775832653,98.9783525466919 1.3281149789690971,98.73993992805481 1.3281149789690971,98.73993992805481 0.793241336941719,98.3447253704071 0.793241336941719,98.3447253704071 0.33347306307405233,97.77223467826843 0.33347306307405233,97.77223467826843 0.06865622126497328,97.10381031036377 0.06865622126497328,97.10381031036377 0.0026871319278143346,96.38822674751282 0.0026871319278143346,96.38822674751282 0.1397308544255793,95.67492604255676 0.1397308544255793,95.67492604255676 0.48368372954428196,95.01268267631531 0.48368372954428196,95.01268267631531 31.40074908733368,52.86555886268616 31.40074908733368,52.86555886268616 4.886280745267868,52.86555886268616 4.886280745267868,52.86555886268616 4.199449717998505,52.76411771774292 4.199449717998505,52.76411771774292 3.571735695004463,52.479684352874756 3.571735695004463,52.479684352874756 3.042236343026161,52.04208493232727 3.042236343026161,52.04208493232727 2.650586888194084,51.48114562034607 2.650586888194084,51.48114562034607 2.4168064817786217,50.8042573928833 2.4168064817786217,50.8042573928833 2.3759620264172554,50.10560750961304 2.3759620264172554,50.10560750961304 2.522948198020458,49.42522346973419 2.522948198020458,49.42522346973419 2.8526591137051582,48.80261421203613 2.8526591137051582,48.80261421203613 37.871360778808594,1.0404574684798717 37.871360778808594,1.0404574684798717 38.288405537605286,0.6121286656707525 38.288405537605286,0.6121286656707525 38.783106207847595,0.28402984607964754 38.783106207847595,0.28402984607964754 39.333027601242065,0.0740304822102189 39.333027601242065,0.0740304822102189 39.915731549263,0.0 39.915731549263,0.0 71.43471240997314,0.0 71.43471240997314,0.0 72.12355732917786,0.09915516711771488 72.12355732917786,0.09915516711771488 72.7559745311737,0.38022915832698345 72.7559745311737,0.38022915832698345 73.293536901474,0.8189034648239613 73.293536901474,0.8189034648239613 73.69835376739502,1.3908594846725464 73.69835376739502,1.3908594846725464 73.91708493232727,2.062911167740822 73.91708493232727,2.062911167740822 73.95175099372864,2.7561912313103676 73.95175099372864,2.7561912313103676 73.80382418632507,3.430527076125145 73.80382418632507,3.430527076125145 73.474782705307,4.0457457304000854 73.474782705307,4.0457457304000854 50.5460262298584,35.29171645641327 50.5460262298584,35.29171645641327 73.7327516078949,35.29171645641327 73.7327516078949,35.29171645641327 74.35885071754456,35.37185788154602 74.35885071754456,35.37185788154602 74.93470311164856,35.59918999671936 74.93470311164856,35.59918999671936 75.43652653694153,35.95436215400696 75.43652653694153,35.95436215400696 75.84187984466553,36.41795814037323 75.84187984466553,36.41795814037323 76.12752318382263,36.97063624858856 76.12752318382263,36.97063624858856 76.25972628593445,37.588003277778625 76.25972628593445,37.588003277778625 76.24239325523376,38.20402920246124 76.24239325523376,38.20402920246124 76.08211040496826,38.794392347335815 76.08211040496826,38.794392347335815 75.78504681587219,39.335042238235474 75.78504681587219,39.335042238235474 75.35792589187622,39.80179727077484 75.35792589187622,39.80179727077484 47.3795086145401,62.85523772239685 47.3795086145401,62.85523772239685 46.8685507774353,62.402790784835815 46.8685507774353,62.402790784835815 46.313926577568054,62.0083212852478 46.313926577568054,62.0083212852478 45.72047293186188,61.675989627838135 45.72047293186188,61.675989627838135 45.09289562702179,61.410099267959595 45.09289562702179,61.410099267959595 44.436562061309814,61.21501326560974 44.436562061309814,61.21501326560974 43.75604689121246,61.09476685523987 43.75604689121246,61.09476685523987 43.05645227432251,61.05378866195679 43.05645227432251,61.05378866195679 35.70016026496887,61.05378866195679 35.70016026496887,61.05378866195679 34.91215705871582,61.104100942611694 34.91215705871582,61.104100942611694 34.14618968963623,61.25182509422302 34.14618968963623,61.25182509422302 33.41045379638672,61.492592096328735 33.41045379638672,61.492592096328735 32.7131450176239,61.822038888931274 32.7131450176239,61.822038888931274 32.06205070018768,62.23558783531189 32.06205070018768,62.23558783531189 31.46550953388214,62.72881031036377 31.46550953388214,62.72881031036377 30.93130588531494,63.297271728515625 30.93130588531494,63.297271728515625 30.467775464057922,63.936543464660645 30.467775464057922,63.936543464660645 30.08902370929718,64.62793946266174 30.08902370929718,64.62793946266174 29.804188013076782,65.35313129425049 29.804188013076782,65.35313129425049 29.614344239234924,66.1029040813446 29.614344239234924,66.1029040813446 29.51948642730713,66.86793565750122 29.51948642730713,66.86793565750122 29.520562291145325,67.63914227485657 29.520562291145325,67.63914227485657 29.617971181869507,68.40725541114807 29.617971181869507,68.40725541114807 29.8123836517334,69.16321516036987 29.8123836517334,69.16321516036987" stroke="white" stroke-width="0.1" /><polygon points="32.35521614551544,99.05843138694763 32.35521614551544,99.05843138694763 43.219828605651855,83.12051296234131 43.219828605651855,83.12051296234131 37.48226463794708,71.011221408844 37.48226463794708,71.011221408844 42.04823970794678,67.24493503570557 42.04823970794678,67.24493503570557 43.05645227432251,67.24493503570557 43.05645227432251,67.24493503570557 47.568684816360474,76.7724335193634 47.568684816360474,76.7724335193634 54.08874154090881,67.24493503570557 54.08874154090881,67.24493503570557 61.44288182258606,67.24493503570557 61.44288182258606,67.24493503570557 50.57612061500549,83.12051296234131 50.57612061500549,83.12051296234131 58.10009241104126,99.05843138694763 58.10009241104126,99.05843138694763 50.74380040168762,99.05843138694763 50.74380040168762,99.05843138694763 46.22941613197327,89.5309329032898 46.22941613197327,89.5309329032898 39.71151113510132,99.05843138694763 39.71151113510132,99.05843138694763" stroke="white" stroke-width="0.1" /><polygon points="73.16952347755432,83.84711146354675 73.16952347755432,83.84711146354675 72.88267612457275,84.438955783844 72.88267612457275,84.438955783844 72.66111969947815,85.04476547241211 72.66111969947815,85.04476547241211 72.50580191612244,85.6654942035675 72.50580191612244,85.6654942035675 72.41712808609009,86.30207777023315 72.41712808609009,86.30207777023315 71.75071835517883,92.71035194396973 71.75071835517883,92.71035194396973 97.2139835357666,92.71035194396973 97.2139835357666,92.71035194396973 96.54542207717896,99.05843138694763 96.54542207717896,99.05843138694763 64.72977995872498,99.05843138694763 64.72977995872498,99.05843138694763 66.06689691543579,86.30207777023315 66.06689691543579,86.30207777023315 66.15154147148132,85.6643557548523 66.15154147148132,85.6643557548523 66.2668228149414,85.03442406654358 66.2668228149414,85.03442406654358 66.41246676445007,84.41248536109924 66.41246676445007,84.41248536109924 66.58874154090881,83.79847407341003 66.58874154090881,83.79847407341003 66.79551601409912,83.19239616394043 66.79551601409912,83.19239616394043 67.03238487243652,82.59437084197998 67.03238487243652,82.59437084197998 67.29989051818848,82.00421333312988 67.29989051818848,82.00421333312988 67.59749054908752,81.42224550247192 67.59749054908752,81.42224550247192 67.9220974445343,80.8529794216156 67.9220974445343,80.8529794216156 68.26739311218262,80.30117154121399 68.26739311218262,80.30117154121399 68.63337755203247,79.76676821708679 68.63337755203247,79.76676821708679 69.02005672454834,79.24969792366028 69.02005672454834,79.24969792366028 69.42742466926575,78.74975800514221 69.42742466926575,78.74975800514221 69.85575556755066,78.26715111732483 69.85575556755066,78.26715111732483 70.30477523803711,77.80147194862366 70.30477523803711,77.80147194862366 70.77475190162659,77.3528516292572 70.77475190162659,77.3528516292572 71.2630033493042,76.92680954933167 71.2630033493042,76.92680954933167 71.76710963249207,76.52414441108704 71.76710963249207,76.52414441108704 72.2868025302887,76.14471912384033 72.2868025302887,76.14471912384033 72.82235026359558,75.78867077827454 72.82235026359558,75.78867077827454 73.37361574172974,75.45587420463562 73.37361574172974,75.45587420463562 73.94046187400818,75.14631748199463 73.94046187400818,75.14631748199463 74.52303171157837,74.86000061035156 74.52303171157837,74.86000061035156 75.12145638465881,74.5969295501709 75.12145638465881,74.5969295501709 75.72996020317078,74.36248064041138 75.72996020317078,74.36248064041138 76.34477615356445,74.15893077850342 76.34477615356445,74.15893077850342 76.96577310562134,73.98641705513 76.96577310562134,73.98641705513 77.59308218955994,73.84507060050964 77.59308218955994,73.84507060050964 78.22670936584473,73.73496890068054 78.22670936584473,73.73496890068054 78.86624336242676,73.656165599823 78.86624336242676,73.656165599823 79.51236963272095,73.6088752746582 79.51236963272095,73.6088752746582 80.16467094421387,73.59302043914795 80.16467094421387,73.59302043914795 86.51489615440369,73.59302043914795 86.51489615440369,73.59302043914795 87.20441460609436,73.55673909187317 87.20441460609436,73.55673909187317 87.88022994995117,73.44791293144226 87.88022994995117,73.44791293144226 88.54179978370667,73.26653003692627 88.54179978370667,73.26653003692627 89.18913006782532,73.01259636878967 89.18913006782532,73.01259636878967 89.81147408485413,72.69377112388611 89.81147408485413,72.69377112388611 90.39511680603027,72.32738137245178 90.39511680603027,72.32738137245178 90.94006419181824,71.9134271144867 90.94006419181824,71.9134271144867 91.4463222026825,71.45191431045532 91.4463222026825,71.45191431045532 91.90743565559387,70.94377279281616 91.90743565559387,70.94377279281616 92.31668710708618,70.39855718612671 92.31668710708618,70.39855718612671 92.67393946647644,69.8146402835846 92.67393946647644,69.8146402835846 92.97906160354614,69.19041872024536 92.97906160354614,69.19041872024536 93.2229220867157,68.54470372200012 93.2229220867157,68.54470372200012 93.39691400527954,67.88420677185059 93.39691400527954,67.88420677185059 93.50103735923767,67.20892786979675 93.50103735923767,67.20892786979675 93.53583455085754,66.51833653450012 93.53583455085754,66.51833653450012 93.50775480270386,65.9174919128418 93.50775480270386,65.9174919128418 93.42378377914429,65.34083485603333 93.42378377914429,65.34083485603333 93.28458905220032,64.78917002677917 93.28458905220032,64.78917002677917 93.09085011482239,64.26329612731934 93.09085011482239,64.26329612731934 92.84618496894836,63.76416087150574 92.84618496894836,63.76416087150574 92.56013631820679,63.30103278160095 92.56013631820679,63.30103278160095 92.23257899284363,62.87297606468201 92.23257899284363,62.87297606468201 91.86336398124695,62.47904300689697 91.86336398124695,62.47904300689697 91.45787954330444,62.122392654418945 91.45787954330444,62.122392654418945 91.02121591567993,61.80403232574463 91.02121591567993,61.80403232574463 90.55312275886536,61.52430176734924 90.55312275886536,61.52430176734924 90.0533139705658,61.28380298614502 90.0533139705658,61.28380298614502 89.52918648719788,61.08844876289368 89.52918648719788,61.08844876289368 88.98813724517822,60.94791293144226 88.98813724517822,60.94791293144226 88.42934370040894,60.86300015449524 88.42934370040894,60.86300015449524 87.8520131111145,60.83451509475708 87.8520131111145,60.83451509475708 81.5017819404602,60.83451509475708 81.5017819404602,60.83451509475708 80.86358904838562,60.86622476577759 80.86358904838562,60.86622476577759 80.2326500415802,60.961079597473145 80.2326500415802,60.961079597473145 79.60843443870544,61.118412017822266 79.60843443870544,61.118412017822266 78.9909303188324,61.33754849433899 78.9909303188324,61.33754849433899 78.39519381523132,61.610692739486694 78.39519381523132,61.610692739486694 77.83008813858032,61.929792165756226 77.83008813858032,61.929792165756226 77.29561924934387,62.29396462440491 77.29561924934387,62.29396462440491 76.7917811870575,62.70260810852051 76.7917811870575,62.70260810852051 76.3246238231659,63.153642416000366 76.3246238231659,63.153642416000366 75.8999228477478,63.64256739616394 75.8999228477478,63.64256739616394 75.51767826080322,64.16938304901123 75.51767826080322,64.16938304901123 75.17735362052917,64.73408341407776 75.17735362052917,64.73408341407776 74.88875389099121,65.32955169677734 74.88875389099121,65.32955169677734 74.66733455657959,65.94597697257996 74.66733455657959,65.94597697257996 74.51295852661133,66.58410429954529 74.51295852661133,66.58410429954529 74.42495226860046,67.24493503570557 74.42495226860046,67.24493503570557 68.07042360305786,67.24493503570557 68.07042360305786,67.24493503570557 68.15574169158936,66.59438610076904 68.15574169158936,66.59438610076904 68.27155947685242,65.95350503921509 68.27155947685242,65.95350503921509 68.41773390769958,65.32229781150818 68.41773390769958,65.32229781150818 68.5944139957428,64.70076441764832 68.5944139957428,64.70076441764832 68.8014566898346,64.08889889717102 68.8014566898346,64.08889889717102 69.03886795043945,63.486647605895996 69.03886795043945,63.486647605895996 69.30704116821289,62.89420127868652 69.30704116821289,62.89420127868652 69.6053147315979,62.311363220214844 69.6053147315979,62.311363220214844 69.92857456207275,61.74142360687256 69.92857456207275,61.74142360687256 70.27279734611511,61.189085245132446 70.27279734611511,61.189085245132446 70.6379771232605,60.65441370010376 70.6379771232605,60.65441370010376 71.02438807487488,60.13720631599426 71.02438807487488,60.13720631599426 71.43175601959229,59.637463092803955 71.43175601959229,59.637463092803955 71.86022400856018,59.15505886077881 71.86022400856018,59.15505886077881 72.30964303016663,58.689916133880615 72.30964303016663,58.689916133880615 72.78043031692505,58.24196934700012 72.78043031692505,58.24196934700012 73.26868176460266,57.8157901763916 73.26868176460266,57.8157901763916 73.77251982688904,57.41285681724548 73.77251982688904,57.41285681724548 74.2919385433197,57.03316330909729 74.2919385433197,57.03316330909729 74.82694983482361,56.6767156124115 74.82694983482361,56.6767156124115 75.37781000137329,56.34351372718811 75.37781000137329,56.34351372718811 75.94425678253174,56.0336172580719 75.94425678253174,56.0336172580719 76.52682662010193,55.74703812599182 76.52682662010193,55.74703812599182 77.12498307228088,55.483901500701904 77.12498307228088,55.483901500701904 77.73415446281433,55.25004863739014 77.73415446281433,55.25004863739014 78.34951281547546,55.0468385219574 78.34951281547546,55.0468385219574 78.97077798843384,54.874324798583984 78.97077798843384,54.874324798583984 79.59821820259094,54.73284721374512 79.59821820259094,54.73284721374512 80.23157715797424,54.62247133255005 80.23157715797424,54.62247133255005 80.87111711502075,54.54340577125549 80.87111711502075,54.54340577125549 81.5165638923645,54.49584126472473 81.5165638923645,54.49584126472473 82.16819167137146,54.47998642921448 82.16819167137146,54.47998642921448 88.52272033691406,54.47998642921448 88.52272033691406,54.47998642921448 89.21560049057007,54.4985294342041 89.21560049057007,54.4985294342041 89.89369869232178,54.55388426780701 89.89369869232178,54.55388426780701 90.55688381195068,54.64598536491394 90.55688381195068,54.64598536491394 91.20555520057678,54.77449893951416 91.20555520057678,54.77449893951416 91.83945059776306,54.939281940460205 91.83945059776306,54.939281940460205 92.45856404304504,55.139946937561035 92.45856404304504,55.139946937561035 93.0629014968872,55.37641644477844 93.0629014968872,55.37641644477844 93.64910125732422,55.64311146736145 93.64910125732422,55.64311146736145 94.21380162239075,55.93668222427368 94.21380162239075,55.93668222427368 94.75687146186829,56.25678300857544 94.75687146186829,56.25678300857544 95.27817368507385,56.60349130630493 95.27817368507385,56.60349130630493 95.7782506942749,56.97653293609619 95.7782506942749,56.97653293609619 96.256422996521,57.375842332839966 96.256422996521,57.375842332839966 96.71310186386108,57.80128240585327 96.71310186386108,57.80128240585327 97.14452028274536,58.25003385543823 97.14452028274536,58.25003385543823 97.54732251167297,58.721089363098145 97.54732251167297,58.721089363098145 97.92150259017944,59.214848279953 97.92150259017944,59.214848279953 98.2676088809967,59.73144769668579 98.2676088809967,59.73144769668579 98.58549237251282,60.271358489990234 98.58549237251282,60.271358489990234 98.87557029724121,60.83451509475708 98.87557029724121,60.83451509475708 99.13796782493591,61.421388387680054 99.13796782493591,61.421388387680054 99.36570525169373,62.024110555648804 99.36570525169373,62.024110555648804 99.55890774726868,62.63999938964844 99.55890774726868,62.63999938964844 99.71731305122375,63.268858194351196 99.71731305122375,63.268858194351196 99.84079003334045,63.91027569770813 99.84079003334045,63.91027569770813 99.92905855178833,64.56425786018372 99.92905855178833,64.56425786018372 99.98226761817932,65.23005962371826 99.98226761817932,65.23005962371826 100.0,65.90782403945923 100.0,65.90782403945923 99.98173117637634,66.59969091415405 99.98173117637634,66.59969091415405 99.92691278457642,67.28389859199524 99.92691278457642,67.28389859199524 99.8355507850647,67.96038746833801 99.8355507850647,67.96038746833801 99.70763921737671,68.62934827804565 99.70763921737671,68.62934827804565 99.54292178153992,69.2905843257904 99.54292178153992,69.2905843257904 99.34165477752686,69.94416117668152 99.34165477752686,69.94416117668152 99.10343885421753,70.590078830719 99.10343885421753,70.590078830719 98.82841110229492,71.22834324836731 98.82841110229492,71.22834324836731 98.52423071861267,71.8517541885376 98.52423071861267,71.8517541885376 98.19559454917908,72.45635986328125 98.19559454917908,72.45635986328125 97.84250259399414,73.04208874702454 97.84250259399414,73.04208874702454 97.46496081352234,73.6088752746582 97.46496081352234,73.6088752746582 97.0629632472992,74.15651082992554 97.0629632472992,74.15651082992554 96.63678407669067,74.68520402908325 96.63678407669067,74.68520402908325 96.18615508079529,75.19454956054688 96.18615508079529,75.19454956054688 95.71133852005005,75.68468451499939 95.71133852005005,75.68468451499939 95.21327614784241,76.15332007408142 95.21327614784241,76.15332007408142 94.69640851020813,76.59823894500732 94.69640851020813,76.59823894500732 94.16046142578125,77.01978087425232 94.16046142578125,77.01978087425232 93.60570311546326,77.41788029670715 93.60570311546326,77.41788029670715 93.03186535835266,77.79287099838257 93.03186535835266,77.79287099838257 92.43921637535095,78.14481854438782 92.43921637535095,78.14481854438782 91.82749390602112,78.47392559051514 91.82749390602112,78.47392559051514 91.1969542503357,78.78025770187378 91.1969542503357,78.78025770187378 90.55191278457642,79.05448079109192 90.55191278457642,79.05448079109192 89.90027904510498,79.2918860912323 89.90027904510498,79.2918860912323 89.24193382263184,79.4924795627594 89.24193382263184,79.4924795627594 88.57673406600952,79.6565294265747 88.57673406600952,79.6565294265747 87.90481686592102,79.78389859199524 87.90481686592102,79.78389859199524 87.22618222236633,79.87486124038696 87.22618222236633,79.87486124038696 86.54069304466248,79.9294114112854 86.54069304466248,79.9294114112854 85.84848642349243,79.94754910469055 85.84848642349243,79.94754910469055 79.49395775794983,79.94754910469055 79.49395775794983,79.94754910469055 78.83292436599731,79.97898459434509 78.83292436599731,79.97898459434509 78.18532586097717,80.07303476333618 78.18532586097717,80.07303476333618 77.55129933357239,80.22969365119934 77.55129933357239,80.22969365119934 76.93151235580444,80.44843077659607 76.93151235580444,80.44843077659607 76.33590698242188,80.721914768219 76.33590698242188,80.721914768219 75.77496767044067,81.04174733161926 75.77496767044067,81.04174733161926 75.24949908256531,81.40679597854614 75.24949908256531,81.40679597854614 74.76030588150024,81.81564211845398 74.76030588150024,81.81564211845398 74.30497407913208,82.2654664516449 74.30497407913208,82.2654664516449 73.88752698898315,82.753986120224 73.88752698898315,82.753986120224 73.5086441040039,83.28120112419128 73.5086441040039,83.28120112419128" stroke="white" stroke-width="0.1" /><polygon points="35.70016026496887,67.24493503570557 35.70016026496887,67.24493503570557 42.04823970794678,67.24493503570557 42.04823970794678,67.24493503570557 37.48226463794708,71.011221408844 37.48226463794708,71.011221408844" stroke="white" stroke-width="0.1" /><polygon points="75.35792589187622,39.80179727077484 47.3795086145401,62.85523772239685 46.8685507774353,62.402790784835815" stroke="white" stroke-width="0.1" /><polygon points="46.8685507774353,62.402790784835815 46.313926577568054,62.0083212852478 75.35792589187622,39.80179727077484" stroke="white" stroke-width="0.1" /><polygon points="46.313926577568054,62.0083212852478 45.72047293186188,61.675989627838135 75.35792589187622,39.80179727077484" stroke="white" stroke-width="0.1" /><polygon points="45.72047293186188,61.675989627838135 44.436562061309814,61.21501326560974 75.35792589187622,39.80179727077484" stroke="white" stroke-width="0.1" /><polygon points="44.436562061309814,61.21501326560974 43.75604689121246,61.09476685523987 75.35792589187622,39.80179727077484" stroke="white" stroke-width="0.1" /><polygon points="43.75604689121246,61.09476685523987 43.05645227432251,61.05378866195679 75.35792589187622,39.80179727077484" stroke="white" stroke-width="0.1" /><polygon points="43.05645227432251,61.05378866195679 35.70016026496887,61.05378866195679 75.35792589187622,39.80179727077484" stroke="white" stroke-width="0.1" /><polygon points="35.70016026496887,61.05378866195679 34.91215705871582,61.104100942611694 75.35792589187622,39.80179727077484" stroke="white" stroke-width="0.1" /><polygon points="34.91215705871582,61.104100942611694 34.14618968963623,61.25182509422302 75.35792589187622,39.80179727077484" stroke="white" stroke-width="0.1" /><polygon points="34.14618968963623,61.25182509422302 32.7131450176239,61.822038888931274 73.7327516078949,35.29171645641327 74.35885071754456,35.37185788154602 74.93470311164856,35.59918999671936 75.43652653694153,35.95436215400696 75.84187984466553,36.41795814037323 76.12752318382263,36.97063624858856 76.25972628593445,37.588003277778625 76.24239325523376,38.20402920246124 76.08211040496826,38.794392347335815 75.78504681587219,39.335042238235474 75.35792589187622,39.80179727077484" stroke="white" stroke-width="0.1" /><polygon points="32.7131450176239,61.822038888931274 32.06205070018768,62.23558783531189 50.5460262298584,35.29171645641327 73.7327516078949,35.29171645641327" stroke="white" stroke-width="0.1" /><polygon points="32.06205070018768,62.23558783531189 30.93130588531494,63.297271728515625 31.40074908733368,52.86555886268616 50.5460262298584,35.29171645641327" stroke="white" stroke-width="0.1" /><polygon points="30.93130588531494,63.297271728515625 30.08902370929718,64.62793946266174 31.40074908733368,52.86555886268616" stroke="white" stroke-width="0.1" /><polygon points="30.08902370929718,64.62793946266174 29.614344239234924,66.1029040813446 0.48368372954428196,95.01268267631531 31.40074908733368,52.86555886268616" stroke="white" stroke-width="0.1" /><polygon points="29.614344239234924,66.1029040813446 29.51948642730713,66.86793565750122 0.48368372954428196,95.01268267631531" stroke="white" stroke-width="0.1" /><polygon points="29.51948642730713,66.86793565750122 29.520562291145325,67.63914227485657 0.48368372954428196,95.01268267631531" stroke="white" stroke-width="0.1" /><polygon points="29.520562291145325,67.63914227485657 29.617971181869507,68.40725541114807 0.48368372954428196,95.01268267631531" stroke="white" stroke-width="0.1" /><polygon points="29.617971181869507,68.40725541114807 29.8123836517334,69.16321516036987 0.48368372954428196,95.01268267631531" stroke="white" stroke-width="0.1" /><polygon points="29.8123836517334,69.16321516036987 30.1044762134552,69.89767551422119 0.48368372954428196,95.01268267631531" stroke="white" stroke-width="0.1" /><polygon points="30.08902370929718,64.62793946266174 29.804188013076782,65.35313129425049 29.614344239234924,66.1029040813446" stroke="white" stroke-width="0.1" /><polygon points="30.93130588531494,63.297271728515625 30.467775464057922,63.936543464660645 30.08902370929718,64.62793946266174" stroke="white" stroke-width="0.1" /><polygon points="32.06205070018768,62.23558783531189 31.46550953388214,62.72881031036377 30.93130588531494,63.297271728515625" stroke="white" stroke-width="0.1" /><polygon points="34.14618968963623,61.25182509422302 33.41045379638672,61.492592096328735 32.7131450176239,61.822038888931274" stroke="white" stroke-width="0.1" /><polygon points="45.72047293186188,61.675989627838135 45.09289562702179,61.410099267959595 44.436562061309814,61.21501326560974" stroke="white" stroke-width="0.1" /><polygon points="31.40074908733368,52.86555886268616 4.886280745267868,52.86555886268616 4.199449717998505,52.76411771774292 3.571735695004463,52.479684352874756 3.042236343026161,52.04208493232727 2.650586888194084,51.48114562034607 2.4168064817786217,50.8042573928833 2.3759620264172554,50.10560750961304 2.522948198020458,49.42522346973419 2.8526591137051582,48.80261421203613 37.871360778808594,1.0404574684798717 38.288405537605286,0.6121286656707525 38.783106207847595,0.28402984607964754 39.333027601242065,0.0740304822102189 39.915731549263,0.0 71.43471240997314,0.0 72.12355732917786,0.09915516711771488 72.7559745311737,0.38022915832698345 73.293536901474,0.8189034648239613 73.69835376739502,1.3908594846725464 73.91708493232727,2.062911167740822 73.95175099372864,2.7561912313103676 73.80382418632507,3.430527076125145 73.474782705307,4.0457457304000854 50.5460262298584,35.29171645641327" stroke="white" stroke-width="0.1" /><polygon points="30.1044762134552,69.89767551422119 32.552990317344666,75.06771683692932 4.142482578754425,98.47800731658936 3.643616661429405,98.80805611610413 3.102025017142296,98.99776577949524 2.5302033871412277,99.05843138694763 1.916193775832653,98.9783525466919 1.3281149789690971,98.73993992805481 0.793241336941719,98.3447253704071 0.33347306307405233,97.77223467826843 0.06865622126497328,97.10381031036377 0.0026871319278143346,96.38822674751282 0.1397308544255793,95.67492604255676 0.48368372954428196,95.01268267631531" stroke="white" stroke-width="0.1" /><polygon points="50.57612061500549,83.12051296234131 58.10009241104126,99.05843138694763 50.74380040168762,99.05843138694763 46.22941613197327,89.5309329032898" stroke="white" stroke-width="0.1" /><polygon points="46.22941613197327,89.5309329032898 39.71151113510132,99.05843138694763 32.35521614551544,99.05843138694763 43.219828605651855,83.12051296234131 47.568684816360474,76.7724335193634 50.57612061500549,83.12051296234131" stroke="white" stroke-width="0.1" /><polygon points="47.568684816360474,76.7724335193634 54.08874154090881,67.24493503570557 61.44288182258606,67.24493503570557 50.57612061500549,83.12051296234131" stroke="white" stroke-width="0.1" /><polygon points="43.219828605651855,83.12051296234131 37.48226463794708,71.011221408844 42.04823970794678,67.24493503570557 43.05645227432251,67.24493503570557 47.568684816360474,76.7724335193634" stroke="white" stroke-width="0.1" /><polygon points="86.51489615440369,73.59302043914795 77.55129933357239,80.22969365119934 76.93151235580444,80.44843077659607" stroke="white" stroke-width="0.1" /><polygon points="76.93151235580444,80.44843077659607 75.77496767044067,81.04174733161926 80.16467094421387,73.59302043914795 86.51489615440369,73.59302043914795" stroke="white" stroke-width="0.1" /><polygon points="75.77496767044067,81.04174733161926 74.76030588150024,81.81564211845398 80.16467094421387,73.59302043914795" stroke="white" stroke-width="0.1" /><polygon points="74.76030588150024,81.81564211845398 74.30497407913208,82.2654664516449 80.16467094421387,73.59302043914795" stroke="white" stroke-width="0.1" /><polygon points="74.30497407913208,82.2654664516449 73.5086441040039,83.28120112419128 78.86624336242676,73.656165599823 79.51236963272095,73.6088752746582 80.16467094421387,73.59302043914795" stroke="white" stroke-width="0.1" /><polygon points="73.5086441040039,83.28120112419128 73.16952347755432,83.84711146354675 76.96577310562134,73.98641705513 77.59308218955994,73.84507060050964 78.22670936584473,73.73496890068054 78.86624336242676,73.656165599823" stroke="white" stroke-width="0.1" /><polygon points="74.30497407913208,82.2654664516449 73.88752698898315,82.753986120224 73.5086441040039,83.28120112419128" stroke="white" stroke-width="0.1" /><polygon points="75.77496767044067,81.04174733161926 75.24949908256531,81.40679597854614 74.76030588150024,81.81564211845398" stroke="white" stroke-width="0.1" /><polygon points="76.93151235580444,80.44843077659607 76.33590698242188,80.721914768219 75.77496767044067,81.04174733161926" stroke="white" stroke-width="0.1" /><polygon points="86.51489615440369,73.59302043914795 87.88022994995117,73.44791293144226 78.18532586097717,80.07303476333618 77.55129933357239,80.22969365119934" stroke="white" stroke-width="0.1" /><polygon points="87.88022994995117,73.44791293144226 89.18913006782532,73.01259636878967 78.83292436599731,79.97898459434509 78.18532586097717,80.07303476333618" stroke="white" stroke-width="0.1" /><polygon points="89.18913006782532,73.01259636878967 89.81147408485413,72.69377112388611 79.49395775794983,79.94754910469055 78.83292436599731,79.97898459434509" stroke="white" stroke-width="0.1" /><polygon points="89.81147408485413,72.69377112388611 90.39511680603027,72.32738137245178 85.84848642349243,79.94754910469055 79.49395775794983,79.94754910469055" stroke="white" stroke-width="0.1" /><polygon points="90.39511680603027,72.32738137245178 91.4463222026825,71.45191431045532 85.84848642349243,79.94754910469055" stroke="white" stroke-width="0.1" /><polygon points="91.4463222026825,71.45191431045532 91.90743565559387,70.94377279281616 85.84848642349243,79.94754910469055" stroke="white" stroke-width="0.1" /><polygon points="91.90743565559387,70.94377279281616 92.31668710708618,70.39855718612671 87.22618222236633,79.87486124038696 86.54069304466248,79.9294114112854 85.84848642349243,79.94754910469055" stroke="white" stroke-width="0.1" /><polygon points="92.31668710708618,70.39855718612671 92.97906160354614,69.19041872024536 89.90027904510498,79.2918860912323 89.24193382263184,79.4924795627594 88.57673406600952,79.6565294265747 87.90481686592102,79.78389859199524 87.22618222236633,79.87486124038696" stroke="white" stroke-width="0.1" /><polygon points="92.97906160354614,69.19041872024536 93.39691400527954,67.88420677185059 91.82749390602112,78.47392559051514 91.1969542503357,78.78025770187378 90.55191278457642,79.05448079109192 89.90027904510498,79.2918860912323" stroke="white" stroke-width="0.1" /><polygon points="93.39691400527954,67.88420677185059 93.50103735923767,67.20892786979675 93.60570311546326,77.41788029670715 93.03186535835266,77.79287099838257 92.43921637535095,78.14481854438782 91.82749390602112,78.47392559051514" stroke="white" stroke-width="0.1" /><polygon points="93.50103735923767,67.20892786979675 93.50775480270386,65.9174919128418 95.71133852005005,75.68468451499939 95.21327614784241,76.15332007408142 94.69640851020813,76.59823894500732 94.16046142578125,77.01978087425232 93.60570311546326,77.41788029670715" stroke="white" stroke-width="0.1" /><polygon points="93.50775480270386,65.9174919128418 93.28458905220032,64.78917002677917 97.0629632472992,74.15651082992554 96.63678407669067,74.68520402908325 96.18615508079529,75.19454956054688 95.71133852005005,75.68468451499939" stroke="white" stroke-width="0.1" /><polygon points="93.28458905220032,64.78917002677917 93.09085011482239,64.26329612731934 97.84250259399414,73.04208874702454 97.46496081352234,73.6088752746582 97.0629632472992,74.15651082992554" stroke="white" stroke-width="0.1" /><polygon points="93.09085011482239,64.26329612731934 92.84618496894836,63.76416087150574 98.52423071861267,71.8517541885376 98.19559454917908,72.45635986328125 97.84250259399414,73.04208874702454" stroke="white" stroke-width="0.1" /><polygon points="92.84618496894836,63.76416087150574 92.23257899284363,62.87297606468201 99.54292178153992,69.2905843257904 99.34165477752686,69.94416117668152 99.10343885421753,70.590078830719 98.82841110229492,71.22834324836731 98.52423071861267,71.8517541885376" stroke="white" stroke-width="0.1" /><polygon points="92.23257899284363,62.87297606468201 91.45787954330444,62.122392654418945 99.8355507850647,67.96038746833801 99.70763921737671,68.62934827804565 99.54292178153992,69.2905843257904" stroke="white" stroke-width="0.1" /><polygon points="91.45787954330444,62.122392654418945 91.02121591567993,61.80403232574463 99.98173117637634,66.59969091415405 99.92691278457642,67.28389859199524 99.8355507850647,67.96038746833801" stroke="white" stroke-width="0.1" /><polygon points="91.02121591567993,61.80403232574463 90.55312275886536,61.52430176734924 99.98226761817932,65.23005962371826 100.0,65.90782403945923 99.98173117637634,66.59969091415405" stroke="white" stroke-width="0.1" /><polygon points="90.55312275886536,61.52430176734924 89.52918648719788,61.08844876289368 99.71731305122375,63.268858194351196 99.84079003334045,63.91027569770813 99.92905855178833,64.56425786018372 99.98226761817932,65.23005962371826" stroke="white" stroke-width="0.1" /><polygon points="89.52918648719788,61.08844876289368 88.98813724517822,60.94791293144226 99.36570525169373,62.024110555648804 99.55890774726868,62.63999938964844 99.71731305122375,63.268858194351196" stroke="white" stroke-width="0.1" /><polygon points="88.98813724517822,60.94791293144226 88.42934370040894,60.86300015449524 98.87557029724121,60.83451509475708 99.13796782493591,61.421388387680054 99.36570525169373,62.024110555648804" stroke="white" stroke-width="0.1" /><polygon points="88.42934370040894,60.86300015449524 87.8520131111145,60.83451509475708 98.87557029724121,60.83451509475708" stroke="white" stroke-width="0.1" /><polygon points="87.8520131111145,60.83451509475708 81.5017819404602,60.83451509475708 98.2676088809967,59.73144769668579 98.58549237251282,60.271358489990234 98.87557029724121,60.83451509475708" stroke="white" stroke-width="0.1" /><polygon points="81.5017819404602,60.83451509475708 80.86358904838562,60.86622476577759 97.14452028274536,58.25003385543823 97.54732251167297,58.721089363098145 97.92150259017944,59.214848279953 98.2676088809967,59.73144769668579" stroke="white" stroke-width="0.1" /><polygon points="80.86358904838562,60.86622476577759 80.2326500415802,60.961079597473145 94.75687146186829,56.25678300857544 95.27817368507385,56.60349130630493 95.7782506942749,56.97653293609619 96.256422996521,57.375842332839966 96.71310186386108,57.80128240585327 97.14452028274536,58.25003385543823" stroke="white" stroke-width="0.1" /><polygon points="80.2326500415802,60.961079597473145 78.9909303188324,61.33754849433899 91.20555520057678,54.77449893951416 91.83945059776306,54.939281940460205 92.45856404304504,55.139946937561035 93.0629014968872,55.37641644477844 93.64910125732422,55.64311146736145 94.21380162239075,55.93668222427368 94.75687146186829,56.25678300857544" stroke="white" stroke-width="0.1" /><polygon points="78.9909303188324,61.33754849433899 77.83008813858032,61.929792165756226 88.52272033691406,54.47998642921448 89.21560049057007,54.4985294342041 89.89369869232178,54.55388426780701 90.55688381195068,54.64598536491394 91.20555520057678,54.77449893951416" stroke="white" stroke-width="0.1" /><polygon points="77.83008813858032,61.929792165756226 77.29561924934387,62.29396462440491 82.16819167137146,54.47998642921448 88.52272033691406,54.47998642921448" stroke="white" stroke-width="0.1" /><polygon points="77.29561924934387,62.29396462440491 76.7917811870575,62.70260810852051 82.16819167137146,54.47998642921448" stroke="white" stroke-width="0.1" /><polygon points="76.7917811870575,62.70260810852051 76.3246238231659,63.153642416000366 82.16819167137146,54.47998642921448" stroke="white" stroke-width="0.1" /><polygon points="76.3246238231659,63.153642416000366 75.51767826080322,64.16938304901123 80.87111711502075,54.54340577125549 81.5165638923645,54.49584126472473 82.16819167137146,54.47998642921448" stroke="white" stroke-width="0.1" /><polygon points="75.51767826080322,64.16938304901123 75.17735362052917,64.73408341407776 79.59821820259094,54.73284721374512 80.23157715797424,54.62247133255005 80.87111711502075,54.54340577125549" stroke="white" stroke-width="0.1" /><polygon points="75.17735362052917,64.73408341407776 74.88875389099121,65.32955169677734 78.34951281547546,55.0468385219574 78.97077798843384,54.874324798583984 79.59821820259094,54.73284721374512" stroke="white" stroke-width="0.1" /><polygon points="74.88875389099121,65.32955169677734 74.66733455657959,65.94597697257996 77.12498307228088,55.483901500701904 77.73415446281433,55.25004863739014 78.34951281547546,55.0468385219574" stroke="white" stroke-width="0.1" /><polygon points="74.66733455657959,65.94597697257996 74.51295852661133,66.58410429954529 75.37781000137329,56.34351372718811 75.94425678253174,56.0336172580719 76.52682662010193,55.74703812599182 77.12498307228088,55.483901500701904" stroke="white" stroke-width="0.1" /><polygon points="74.51295852661133,66.58410429954529 74.42495226860046,67.24493503570557 68.07042360305786,67.24493503570557 68.15574169158936,66.59438610076904 68.27155947685242,65.95350503921509 68.41773390769958,65.32229781150818 68.5944139957428,64.70076441764832 68.8014566898346,64.08889889717102 69.03886795043945,63.486647605895996 69.30704116821289,62.89420127868652 69.6053147315979,62.311363220214844 69.92857456207275,61.74142360687256 70.27279734611511,61.189085245132446 70.6379771232605,60.65441370010376 71.02438807487488,60.13720631599426 71.43175601959229,59.637463092803955 71.86022400856018,59.15505886077881 72.30964303016663,58.689916133880615 72.78043031692505,58.24196934700012 73.26868176460266,57.8157901763916 73.77251982688904,57.41285681724548 74.2919385433197,57.03316330909729 74.82694983482361,56.6767156124115 75.37781000137329,56.34351372718811" stroke="white" stroke-width="0.1" /><polygon points="76.3246238231659,63.153642416000366 75.8999228477478,63.64256739616394 75.51767826080322,64.16938304901123" stroke="white" stroke-width="0.1" /><polygon points="78.9909303188324,61.33754849433899 78.39519381523132,61.610692739486694 77.83008813858032,61.929792165756226" stroke="white" stroke-width="0.1" /><polygon points="80.2326500415802,60.961079597473145 79.60843443870544,61.118412017822266 78.9909303188324,61.33754849433899" stroke="white" stroke-width="0.1" /><polygon points="90.55312275886536,61.52430176734924 90.0533139705658,61.28380298614502 89.52918648719788,61.08844876289368" stroke="white" stroke-width="0.1" /><polygon points="92.23257899284363,62.87297606468201 91.86336398124695,62.47904300689697 91.45787954330444,62.122392654418945" stroke="white" stroke-width="0.1" /><polygon points="92.84618496894836,63.76416087150574 92.56013631820679,63.30103278160095 92.23257899284363,62.87297606468201" stroke="white" stroke-width="0.1" /><polygon points="93.50775480270386,65.9174919128418 93.42378377914429,65.34083485603333 93.28458905220032,64.78917002677917" stroke="white" stroke-width="0.1" /><polygon points="93.50103735923767,67.20892786979675 93.53583455085754,66.51833653450012 93.50775480270386,65.9174919128418" stroke="white" stroke-width="0.1" /><polygon points="92.97906160354614,69.19041872024536 93.2229220867157,68.54470372200012 93.39691400527954,67.88420677185059" stroke="white" stroke-width="0.1" /><polygon points="92.31668710708618,70.39855718612671 92.67393946647644,69.8146402835846 92.97906160354614,69.19041872024536" stroke="white" stroke-width="0.1" /><polygon points="90.39511680603027,72.32738137245178 90.94006419181824,71.9134271144867 91.4463222026825,71.45191431045532" stroke="white" stroke-width="0.1" /><polygon points="87.88022994995117,73.44791293144226 88.54179978370667,73.26653003692627 89.18913006782532,73.01259636878967" stroke="white" stroke-width="0.1" /><polygon points="86.51489615440369,73.59302043914795 87.20441460609436,73.55673909187317 87.88022994995117,73.44791293144226" stroke="white" stroke-width="0.1" /><polygon points="73.16952347755432,83.84711146354675 72.66111969947815,85.04476547241211 75.12145638465881,74.5969295501709 75.72996020317078,74.36248064041138 76.34477615356445,74.15893077850342 76.96577310562134,73.98641705513" stroke="white" stroke-width="0.1" /><polygon points="72.66111969947815,85.04476547241211 72.50580191612244,85.6654942035675 73.94046187400818,75.14631748199463 74.52303171157837,74.86000061035156 75.12145638465881,74.5969295501709" stroke="white" stroke-width="0.1" /><polygon points="72.50580191612244,85.6654942035675 72.41712808609009,86.30207777023315 73.37361574172974,75.45587420463562 73.94046187400818,75.14631748199463" stroke="white" stroke-width="0.1" /><polygon points="72.41712808609009,86.30207777023315 71.75071835517883,92.71035194396973 64.72977995872498,99.05843138694763 66.06689691543579,86.30207777023315 66.15154147148132,85.6643557548523 66.2668228149414,85.03442406654358 66.41246676445007,84.41248536109924 66.58874154090881,83.79847407341003 66.79551601409912,83.19239616394043 67.03238487243652,82.59437084197998 67.29989051818848,82.00421333312988 67.59749054908752,81.42224550247192 67.9220974445343,80.8529794216156 68.26739311218262,80.30117154121399 68.63337755203247,79.76676821708679 69.02005672454834,79.24969792366028 69.42742466926575,78.74975800514221 69.85575556755066,78.26715111732483 70.30477523803711,77.80147194862366 70.77475190162659,77.3528516292572 71.2630033493042,76.92680954933167 71.76710963249207,76.52414441108704 72.2868025302887,76.14471912384033 72.82235026359558,75.78867077827454 73.37361574172974,75.45587420463562" stroke="white" stroke-width="0.1" /><polygon points="71.75071835517883,92.71035194396973 97.2139835357666,92.71035194396973 96.54542207717896,99.05843138694763 64.72977995872498,99.05843138694763" stroke="white" stroke-width="0.1" /><polygon points="73.16952347755432,83.84711146354675 72.88267612457275,84.438955783844 72.66111969947815,85.04476547241211" stroke="white" stroke-width="0.1" /><polygon points="35.70016026496887,67.24493503570557 42.04823970794678,67.24493503570557 37.48226463794708,71.011221408844" stroke="white" stroke-width="0.1" /></svg>