<?xml version="1.0" encoding="utf-8" ?>
<svg baseProfile="full" height="72.68012166023254" version="1.1" width="72.68012166023254" xmlns="http://www.w3.org/2000/svg" xmlns:ev="http://www.w3.org/2001/xml-events" xmlns:xlink="http://www.w3.org/1999/xlink"><defs><clipPath /></defs><polygon points="70.3428864479065,18.129341304302216 70.3428864479065,18.129341304302216 70.88826894760132,19.482015073299408 70.88826894760132,19.482015073299408 71.36176228523254,20.860393345355988 71.36176228523254,20.860393345355988 71.7633068561554,22.262980043888092 71.7633068561554,22.262980043888092 72.09255695343018,23.688694834709167 72.09255695343018,23.688694834709167 72.34910726547241,25.136110186576843 72.34910726547241,25.136110186576843 72.53289222717285,26.604005694389343 72.53289222717285,26.604005694389343 72.64329791069031,28.091228008270264 72.64329791069031,28.091228008270264 72.68012166023254,29.59635555744171 72.68012166023254,29.59635555744171 72.64323234558105,31.100940704345703 72.64323234558105,31.100940704345703 72.5328266620636,32.58802592754364 72.5328266620636,32.58802592754364 72.34910726547241,34.05605852603912 72.34910726547241,34.05605852603912 72.09255695343018,35.50374507904053 72.09255695343018,35.50374507904053 71.76337242126465,36.929526925086975 71.76337242126465,36.929526925086975 71.36169672012329,38.331976532936096 71.36169672012329,38.331976532936096 70.88826894760132,39.70974385738373 70.88826894760132,39.70974385738373 70.3428864479065,41.061198711395264 70.3428864479065,41.061198711395264 69.73795890808105,42.37508177757263 69.73795890808105,42.37508177757263 69.07593011856079,43.650105595588684 69.07593011856079,43.650105595588684 68.35768222808838,44.885119795799255 68.35768222808838,44.885119795799255 67.58382320404053,46.07910215854645 67.58382320404053,46.07910215854645 66.7551040649414,47.23097085952759 66.7551040649414,47.23097085952759 65.87239503860474,48.339641094207764 65.87239503860474,48.339641094207764 64.9362564086914,49.404093623161316 64.9362564086914,49.404093623161316 63.947486877441406,50.42318105697632 63.947486877441406,50.42318105697632 62.91632652282715,51.39268636703491 62.91632652282715,51.39268636703491 61.84197664260864,52.312010526657104 61.84197664260864,52.312010526657104 60.72523593902588,53.18054556846619 60.72523593902588,53.18054556846619 59.56733226776123,53.99766564369202 59.56733226776123,53.99766564369202 58.36927890777588,54.76278066635132 58.36927890777588,54.76278066635132 57.1319580078125,55.4753303527832 57.1319580078125,55.4753303527832 55.85659742355347,56.13471269607544 55.85659742355347,56.13471269607544 54.544270038604736,56.740450859069824 54.544270038604736,56.740450859069824 53.2994270324707,57.24555253982544 53.2994270324707,57.24555253982544 52.0359992980957,57.689547538757324 52.0359992980957,57.689547538757324 50.75480341911316,58.07217359542847 50.75480341911316,58.07217359542847 49.45705831050873,58.393555879592896 49.45705831050873,58.393555879592896 48.14351499080658,58.653563261032104 48.14351499080658,58.653563261032104 46.815186738967896,58.851927518844604 46.815186738967896,58.851927518844604 45.473092794418335,58.98871421813965 45.473092794418335,58.98871421813965 45.473092794418335,70.40364742279053 45.473092794418335,70.40364742279053 45.163169503211975,71.55225872993469 45.163169503211975,71.55225872993469 44.348350167274475,72.36904501914978 44.348350167274475,72.36904501914978 43.20095479488373,72.68012166023254 43.20095479488373,72.68012166023254 29.598525166511536,72.68012166023254 29.598525166511536,72.68012166023254 28.45052182674408,72.36911654472351 28.45052182674408,72.36911654472351 27.635905146598816,71.55219316482544 27.635905146598816,71.55219316482544 27.326390147209167,70.40364742279053 27.326390147209167,70.40364742279053 27.326390147209167,43.198785185813904 27.326390147209167,43.198785185813904 27.6360422372818,42.0506477355957 27.6360422372818,42.0506477355957 28.450453281402588,41.234809160232544 28.450453281402588,41.234809160232544 29.598525166511536,40.92448055744171 29.598525166511536,40.92448055744171 43.20095479488373,40.92448055744171 43.20095479488373,40.92448055744171 44.37011778354645,40.86927771568298 44.37011778354645,40.86927771568298 45.49560546875,40.70394039154053 45.49560546875,40.70394039154053 46.573418378829956,40.429145097732544 46.573418378829956,40.429145097732544 47.599828243255615,40.04557430744171 47.599828243255615,40.04557430744171 48.897841572761536,39.37242329120636 48.897841572761536,39.37242329120636 50.091552734375,38.54342997074127 50.091552734375,38.54342997074127 51.174044609069824,37.56076395511627 51.174044609069824,37.56076395511627 51.914334297180176,36.72553300857544 51.914334297180176,36.72553300857544 52.574872970581055,35.83035171031952 52.574872970581055,35.83035171031952 53.154027462005615,34.87860858440399 53.154027462005615,34.87860858440399 53.65017652511597,33.873698115348816 53.65017652511597,33.873698115348816 54.13960814476013,32.50386714935303 54.13960814476013,32.50386714935303 54.43454384803772,31.074625253677368 54.43454384803772,31.074625253677368 54.533421993255615,29.59635555744171 54.533421993255615,29.59635555744171 54.477882385253906,28.430312871932983 54.477882385253906,28.430312871932983 54.31206822395325,27.30577290058136 54.31206822395325,27.30577290058136 54.03713583946228,26.228433847427368 54.03713583946228,26.228433847427368 53.654515743255615,25.203993916511536 53.654515743255615,25.203993916511536 53.15660238265991,24.204644560813904 53.15660238265991,24.204644560813904 52.57161855697632,23.259006440639496 52.57161855697632,23.259006440639496 51.900362968444824,22.369520366191864 51.900362968444824,22.369520366191864 51.14366412162781,21.53862863779068 51.14366412162781,21.53862863779068 50.309449434280396,20.779216289520264 50.309449434280396,20.779216289520264 49.4194895029068,20.106880366802216 49.4194895029068,20.106880366802216 48.47581684589386,19.523248076438904 48.47581684589386,19.523248076438904 47.480469942092896,19.029948115348816 47.480469942092896,19.029948115348816 46.110570430755615,18.54010671377182 46.110570430755615,18.54010671377182 44.68221068382263,18.24652850627899 44.68221068382263,18.24652850627899 43.20095479488373,18.14887225627899 43.20095479488373,18.14887225627899 29.598525166511536,18.14887225627899 29.598525166511536,18.14887225627899 28.423461318016052,18.204277753829956 28.423461318016052,18.204277753829956 27.283528447151184,18.370768427848816 27.283528447151184,18.370768427848816 26.182657480239868,18.648749589920044 26.182657480239868,18.648749589920044 25.12478232383728,19.03862953186035 25.12478232383728,19.03862953186035 23.785807192325592,19.71062570810318 23.785807192325592,19.71062570810318 22.568564116954803,20.5257847905159 22.568564116954803,20.5257847905159 21.48003578186035,21.48003578186035 21.48003578186035,21.48003578186035 20.52544504404068,22.5704625248909 20.52544504404068,22.5704625248909 19.711032509803772,23.788587749004364 19.711032509803772,23.788587749004364 19.040799140930176,25.128039717674255 19.040799140930176,25.128039717674255 18.65166574716568,26.18109881877899 18.65166574716568,26.18109881877899 18.373210728168488,27.28000283241272 18.373210728168488,27.28000283241272 18.205837905406952,28.42000424861908 18.205837905406952,28.42000424861908 18.149957060813904,29.59635555744171 18.149957060813904,29.59635555744171 17.977024614810944,30.46576678752899 17.977024614810944,30.46576678752899 17.482639849185944,31.200087070465088 17.482639849185944,31.200087070465088 16.74736887216568,31.696778535842896 16.74736887216568,31.696778535842896 15.877822041511536,31.872829794883728 15.877822041511536,31.872829794883728 2.27322056889534,31.872829794883728 2.27322056889534,31.872829794883728 1.126844622194767,31.561416387557983 1.126844622194767,31.561416387557983 0.3107367781922221,30.744019150733948 0.3107367781922221,30.744019150733948 0.0,29.59635555744171 0.0,29.59635555744171 0.0368245440768078,28.092041611671448 0.0368245440768078,28.092041611671448 0.14695909339934587,26.60563290119171 0.14695909339934587,26.60563290119171 0.33047148026525974,25.138211250305176 0.33047148026525974,25.138211250305176 0.5867513362318277,23.69113564491272 0.5867513362318277,23.69113564491272 0.9157986380159855,22.265489399433136 0.9157986380159855,22.265489399433136 1.317477785050869,20.86249440908432 1.317477785050869,20.86249440908432 1.7913818359375,19.48343962430954 1.7913818359375,19.48343962430954 2.337239682674408,18.129341304302216 2.337239682674408,18.129341304302216 2.940606139600277,16.819866001605988 2.940606139600277,16.819866001605988 3.598565235733986,15.546874701976776 3.598565235733986,15.546874701976776 4.310370609164238,14.31138813495636 4.310370609164238,14.31138813495636 5.075141042470932,13.11442106962204 5.075141042470932,13.11442106962204 5.892130732536316,11.956990510225296 5.892130732536316,11.956990510225296 6.760457158088684,10.840250551700592 6.760457158088684,10.840250551700592 7.679376006126404,9.765082597732544 7.679376006126404,9.765082597732544 8.64800363779068,8.732639253139496 8.64800363779068,8.732639253139496 9.67068150639534,7.743259519338608 9.67068150639534,7.743259519338608 10.740356892347336,6.8067766726017 10.740356892347336,6.8067766726017 11.85574010014534,5.923665687441826 11.85574010014534,5.923665687441826 13.015815615653992,5.094672366976738 13.015815615653992,5.094672366976738 14.219631254673004,4.320339858531952 14.219631254673004,4.320339858531952 15.466037392616272,3.601209819316864 15.466037392616272,3.601209819316864 16.75421893596649,2.937689982354641 16.75421893596649,2.937689982354641 18.08268278837204,2.330729179084301 18.08268278837204,2.330729179084301 19.448378682136536,1.787516288459301 19.448378682136536,1.787516288459301 20.837673544883728,1.3156467117369175 20.837673544883728,1.3156467117369175 22.24934995174408,0.9151882492005825 22.24934995174408,0.9151882492005825 23.68231862783432,0.5867513362318277 23.68231862783432,0.5867513362318277 25.13495683670044,0.3306071041151881 25.13495683670044,0.3306071041151881 26.606175303459167,0.1471625524573028 26.606175303459167,0.1471625524573028 28.094348311424255,0.0368245440768078 28.094348311424255,0.0368245440768078 29.598525166511536,0.0 29.598525166511536,0.0 43.20095479488373,0.0 43.20095479488373,0.0 44.704726338386536,0.03689236182253808 44.704726338386536,0.03689236182253808 46.19113504886627,0.1472981763072312 46.19113504886627,0.1472981763072312 47.65855669975281,0.3308105515316129 47.65855669975281,0.3308105515316129 49.10590350627899,0.5872938316315413 49.10590350627899,0.5872938316315413 50.53168535232544,0.916273333132267 50.53168535232544,0.916273333132267 51.93440914154053,1.317545585334301 51.93440914154053,1.317545585334301 53.313058614730835,1.790500245988369 53.313058614730835,1.790500245988369 54.66579794883728,2.335069514811039 54.66579794883728,2.335069514811039 55.97981810569763,2.942233718931675 55.97981810569763,2.942233718931675 57.25504755973816,3.605956956744194 57.25504755973816,3.605956956744194 58.4904670715332,4.325561597943306 58.4904670715332,4.325561597943306 59.684789180755615,5.100097879767418 59.684789180755615,5.100097879767418 60.836994647979736,5.92888742685318 60.836994647979736,5.92888742685318 61.946141719818115,6.811116635799408 61.946141719818115,6.811116635799408 63.01072835922241,7.745903730392456 63.01072835922241,7.745903730392456 64.02994990348816,8.732639253139496 64.02994990348816,8.732639253139496 65.00027179718018,9.765692800283432 65.00027179718018,9.765692800283432 65.92027544975281,10.841132700443268 65.92027544975281,10.841132700443268 66.78921580314636,11.957940459251404 66.78921580314636,11.957940459251404 67.60633587837219,13.115234673023224 67.60633587837219,13.115234673023224 68.37090253829956,14.311999082565308 68.37090253829956,14.311999082565308 69.08243894577026,15.547145903110504 69.08243894577026,15.547145903110504 69.74005699157715,16.82000160217285 69.74005699157715,16.82000160217285" stroke="white" stroke-width="0.1" /><polygon points="45.473092794418335,58.98871421813965 43.20095479488373,40.92448055744171 44.37011778354645,40.86927771568298" stroke="white" stroke-width="0.1" /><polygon points="44.37011778354645,40.86927771568298 45.49560546875,40.70394039154053 45.473092794418335,58.98871421813965" stroke="white" stroke-width="0.1" /><polygon points="45.49560546875,40.70394039154053 46.573418378829956,40.429145097732544 45.473092794418335,58.98871421813965" stroke="white" stroke-width="0.1" /><polygon points="46.573418378829956,40.429145097732544 47.599828243255615,40.04557430744171 45.473092794418335,58.98871421813965" stroke="white" stroke-width="0.1" /><polygon points="47.599828243255615,40.04557430744171 48.897841572761536,39.37242329120636 45.473092794418335,58.98871421813965" stroke="white" stroke-width="0.1" /><polygon points="48.897841572761536,39.37242329120636 50.091552734375,38.54342997074127 45.473092794418335,58.98871421813965" stroke="white" stroke-width="0.1" /><polygon points="50.091552734375,38.54342997074127 51.174044609069824,37.56076395511627 45.473092794418335,58.98871421813965" stroke="white" stroke-width="0.1" /><polygon points="51.174044609069824,37.56076395511627 51.914334297180176,36.72553300857544 45.473092794418335,58.98871421813965" stroke="white" stroke-width="0.1" /><polygon points="51.914334297180176,36.72553300857544 52.574872970581055,35.83035171031952 45.473092794418335,58.98871421813965" stroke="white" stroke-width="0.1" /><polygon points="52.574872970581055,35.83035171031952 53.154027462005615,34.87860858440399 45.473092794418335,58.98871421813965" stroke="white" stroke-width="0.1" /><polygon points="53.154027462005615,34.87860858440399 53.65017652511597,33.873698115348816 45.473092794418335,58.98871421813965" stroke="white" stroke-width="0.1" /><polygon points="53.65017652511597,33.873698115348816 54.13960814476013,32.50386714935303 49.45705831050873,58.393555879592896 48.14351499080658,58.653563261032104 46.815186738967896,58.851927518844604 45.473092794418335,58.98871421813965" stroke="white" stroke-width="0.1" /><polygon points="54.13960814476013,32.50386714935303 54.43454384803772,31.074625253677368 53.2994270324707,57.24555253982544 52.0359992980957,57.689547538757324 50.75480341911316,58.07217359542847 49.45705831050873,58.393555879592896" stroke="white" stroke-width="0.1" /><polygon points="54.43454384803772,31.074625253677368 54.533421993255615,29.59635555744171 55.85659742355347,56.13471269607544 54.544270038604736,56.740450859069824 53.2994270324707,57.24555253982544" stroke="white" stroke-width="0.1" /><polygon points="54.533421993255615,29.59635555744171 54.477882385253906,28.430312871932983 58.36927890777588,54.76278066635132 57.1319580078125,55.4753303527832 55.85659742355347,56.13471269607544" stroke="white" stroke-width="0.1" /><polygon points="54.477882385253906,28.430312871932983 54.31206822395325,27.30577290058136 61.84197664260864,52.312010526657104 60.72523593902588,53.18054556846619 59.56733226776123,53.99766564369202 58.36927890777588,54.76278066635132" stroke="white" stroke-width="0.1" /><polygon points="54.31206822395325,27.30577290058136 54.03713583946228,26.228433847427368 63.947486877441406,50.42318105697632 62.91632652282715,51.39268636703491 61.84197664260864,52.312010526657104" stroke="white" stroke-width="0.1" /><polygon points="54.03713583946228,26.228433847427368 53.654515743255615,25.203993916511536 65.87239503860474,48.339641094207764 64.9362564086914,49.404093623161316 63.947486877441406,50.42318105697632" stroke="white" stroke-width="0.1" /><polygon points="53.654515743255615,25.203993916511536 53.15660238265991,24.204644560813904 67.58382320404053,46.07910215854645 66.7551040649414,47.23097085952759 65.87239503860474,48.339641094207764" stroke="white" stroke-width="0.1" /><polygon points="53.15660238265991,24.204644560813904 52.57161855697632,23.259006440639496 69.07593011856079,43.650105595588684 68.35768222808838,44.885119795799255 67.58382320404053,46.07910215854645" stroke="white" stroke-width="0.1" /><polygon points="52.57161855697632,23.259006440639496 51.900362968444824,22.369520366191864 70.3428864479065,41.061198711395264 69.73795890808105,42.37508177757263 69.07593011856079,43.650105595588684" stroke="white" stroke-width="0.1" /><polygon points="51.900362968444824,22.369520366191864 51.14366412162781,21.53862863779068 71.36169672012329,38.331976532936096 70.88826894760132,39.70974385738373 70.3428864479065,41.061198711395264" stroke="white" stroke-width="0.1" /><polygon points="51.14366412162781,21.53862863779068 50.309449434280396,20.779216289520264 71.76337242126465,36.929526925086975 71.36169672012329,38.331976532936096" stroke="white" stroke-width="0.1" /><polygon points="50.309449434280396,20.779216289520264 49.4194895029068,20.106880366802216 72.34910726547241,34.05605852603912 72.09255695343018,35.50374507904053 71.76337242126465,36.929526925086975" stroke="white" stroke-width="0.1" /><polygon points="49.4194895029068,20.106880366802216 48.47581684589386,19.523248076438904 72.64323234558105,31.100940704345703 72.5328266620636,32.58802592754364 72.34910726547241,34.05605852603912" stroke="white" stroke-width="0.1" /><polygon points="48.47581684589386,19.523248076438904 47.480469942092896,19.029948115348816 72.53289222717285,26.604005694389343 72.64329791069031,28.091228008270264 72.68012166023254,29.59635555744171 72.64323234558105,31.100940704345703" stroke="white" stroke-width="0.1" /><polygon points="47.480469942092896,19.029948115348816 46.110570430755615,18.54010671377182 72.09255695343018,23.688694834709167 72.34910726547241,25.136110186576843 72.53289222717285,26.604005694389343" stroke="white" stroke-width="0.1" /><polygon points="46.110570430755615,18.54010671377182 44.68221068382263,18.24652850627899 70.88826894760132,19.482015073299408 71.36176228523254,20.860393345355988 71.7633068561554,22.262980043888092 72.09255695343018,23.688694834709167" stroke="white" stroke-width="0.1" /><polygon points="44.68221068382263,18.24652850627899 43.20095479488373,18.14887225627899 70.3428864479065,18.129341304302216 70.88826894760132,19.482015073299408" stroke="white" stroke-width="0.1" /><polygon points="43.20095479488373,18.14887225627899 29.598525166511536,18.14887225627899 69.08243894577026,15.547145903110504 69.74005699157715,16.82000160217285 70.3428864479065,18.129341304302216" stroke="white" stroke-width="0.1" /><polygon points="29.598525166511536,18.14887225627899 28.423461318016052,18.204277753829956 66.78921580314636,11.957940459251404 67.60633587837219,13.115234673023224 68.37090253829956,14.311999082565308 69.08243894577026,15.547145903110504" stroke="white" stroke-width="0.1" /><polygon points="28.423461318016052,18.204277753829956 27.283528447151184,18.370768427848816 64.02994990348816,8.732639253139496 65.00027179718018,9.765692800283432 65.92027544975281,10.841132700443268 66.78921580314636,11.957940459251404" stroke="white" stroke-width="0.1" /><polygon points="27.283528447151184,18.370768427848816 26.182657480239868,18.648749589920044 59.684789180755615,5.100097879767418 60.836994647979736,5.92888742685318 61.946141719818115,6.811116635799408 63.01072835922241,7.745903730392456 64.02994990348816,8.732639253139496" stroke="white" stroke-width="0.1" /><polygon points="26.182657480239868,18.648749589920044 25.12478232383728,19.03862953186035 55.97981810569763,2.942233718931675 57.25504755973816,3.605956956744194 58.4904670715332,4.325561597943306 59.684789180755615,5.100097879767418" stroke="white" stroke-width="0.1" /><polygon points="25.12478232383728,19.03862953186035 23.785807192325592,19.71062570810318 50.53168535232544,0.916273333132267 51.93440914154053,1.317545585334301 53.313058614730835,1.790500245988369 54.66579794883728,2.335069514811039 55.97981810569763,2.942233718931675" stroke="white" stroke-width="0.1" /><polygon points="23.785807192325592,19.71062570810318 22.568564116954803,20.5257847905159 44.704726338386536,0.03689236182253808 46.19113504886627,0.1472981763072312 47.65855669975281,0.3308105515316129 49.10590350627899,0.5872938316315413 50.53168535232544,0.916273333132267" stroke="white" stroke-width="0.1" /><polygon points="22.568564116954803,20.5257847905159 21.48003578186035,21.48003578186035 29.598525166511536,0.0 43.20095479488373,0.0 44.704726338386536,0.03689236182253808" stroke="white" stroke-width="0.1" /><polygon points="21.48003578186035,21.48003578186035 20.52544504404068,22.5704625248909 29.598525166511536,0.0" stroke="white" stroke-width="0.1" /><polygon points="20.52544504404068,22.5704625248909 19.711032509803772,23.788587749004364 29.598525166511536,0.0" stroke="white" stroke-width="0.1" /><polygon points="19.711032509803772,23.788587749004364 19.040799140930176,25.128039717674255 28.094348311424255,0.0368245440768078 29.598525166511536,0.0" stroke="white" stroke-width="0.1" /><polygon points="19.040799140930176,25.128039717674255 18.65166574716568,26.18109881877899 25.13495683670044,0.3306071041151881 26.606175303459167,0.1471625524573028 28.094348311424255,0.0368245440768078" stroke="white" stroke-width="0.1" /><polygon points="18.65166574716568,26.18109881877899 18.373210728168488,27.28000283241272 20.837673544883728,1.3156467117369175 22.24934995174408,0.9151882492005825 23.68231862783432,0.5867513362318277 25.13495683670044,0.3306071041151881" stroke="white" stroke-width="0.1" /><polygon points="18.373210728168488,27.28000283241272 18.205837905406952,28.42000424861908 19.448378682136536,1.787516288459301 20.837673544883728,1.3156467117369175" stroke="white" stroke-width="0.1" /><polygon points="18.205837905406952,28.42000424861908 18.149957060813904,29.59635555744171 17.977024614810944,30.46576678752899 17.482639849185944,31.200087070465088 16.74736887216568,31.696778535842896 15.877822041511536,31.872829794883728 2.27322056889534,31.872829794883728 1.126844622194767,31.561416387557983 0.3107367781922221,30.744019150733948 0.0,29.59635555744171 0.0368245440768078,28.092041611671448 0.14695909339934587,26.60563290119171 0.33047148026525974,25.138211250305176 0.5867513362318277,23.69113564491272 0.9157986380159855,22.265489399433136 1.317477785050869,20.86249440908432 1.7913818359375,19.48343962430954 2.337239682674408,18.129341304302216 2.940606139600277,16.819866001605988 3.598565235733986,15.546874701976776 4.310370609164238,14.31138813495636 5.075141042470932,13.11442106962204 5.892130732536316,11.956990510225296 6.760457158088684,10.840250551700592 7.679376006126404,9.765082597732544 8.64800363779068,8.732639253139496 9.67068150639534,7.743259519338608 10.740356892347336,6.8067766726017 11.85574010014534,5.923665687441826 13.015815615653992,5.094672366976738 14.219631254673004,4.320339858531952 15.466037392616272,3.601209819316864 16.75421893596649,2.937689982354641 18.08268278837204,2.330729179084301 19.448378682136536,1.787516288459301" stroke="white" stroke-width="0.1" /><polygon points="45.473092794418335,58.98871421813965 45.473092794418335,70.40364742279053 45.163169503211975,71.55225872993469 44.348350167274475,72.36904501914978 43.20095479488373,72.68012166023254 29.598525166511536,72.68012166023254 28.45052182674408,72.36911654472351 27.635905146598816,71.55219316482544 27.326390147209167,70.40364742279053 27.326390147209167,43.198785185813904 27.6360422372818,42.0506477355957 28.450453281402588,41.234809160232544 29.598525166511536,40.92448055744171 43.20095479488373,40.92448055744171" stroke="white" stroke-width="0.1" /></svg>