<?xml version="1.0" encoding="utf-8" ?>
<svg baseProfile="full" height="100.0" version="1.1" width="45.473092794418335" xmlns="http://www.w3.org/2000/svg" xmlns:ev="http://www.w3.org/2001/xml-events" xmlns:xlink="http://www.w3.org/1999/xlink"><defs><clipPath /></defs><polygon points="43.20095479488373,81.85113072395325 43.20095479488373,81.85113072395325 43.65939795970917,81.89738392829895 43.65939795970917,81.89738392829895 44.08610165119171,82.03016519546509 44.08610165119171,82.03016519546509 44.47204768657684,82.24012851715088 44.47204768657684,82.24012851715088 44.80821490287781,82.5181782245636 44.80821490287781,82.5181782245636 45.08545100688934,82.8550934791565 45.08545100688934,82.8550934791565 45.294731855392456,83.24178457260132 45.294731855392456,83.24178457260132 45.42704522609711,83.66903066635132 45.42704522609711,83.66903066635132 45.473092794418335,84.12760496139526 45.473092794418335,84.12760496139526 45.473092794418335,97.72569537162781 45.473092794418335,97.72569537162781 45.42704522609711,98.18413853645325 45.42704522609711,98.18413853645325 45.294731855392456,98.61111640930176 45.294731855392456,98.61111640930176 45.08545100688934,98.99753332138062 45.08545100688934,98.99753332138062 44.80821490287781,99.33404326438904 44.80821490287781,99.33404326438904 44.47197914123535,99.61175322532654 44.47197914123535,99.61175322532654 44.08610165119171,99.82137084007263 44.08610165119171,99.82137084007263 43.659329414367676,99.95381832122803 43.659329414367676,99.95381832122803 43.20095479488373,100.0 43.20095479488373,100.0 29.598525166511536,100.0 29.598525166511536,100.0 29.13987934589386,99.95381832122803 29.13987934589386,99.95381832122803 28.71297299861908,99.82137084007263 28.71297299861908,99.82137084007263 28.326958417892456,99.61168169975281 28.326958417892456,99.61168169975281 27.990859746932983,99.33404326438904 27.990859746932983,99.33404326438904 27.71376073360443,98.99746775627136 27.71376073360443,98.99746775627136 27.50454545021057,98.61124753952026 27.50454545021057,98.61124753952026 27.372506260871887,98.18413853645325 27.372506260871887,98.18413853645325 27.326390147209167,97.72569537162781 27.326390147209167,97.72569537162781 27.326390147209167,84.12760496139526 27.326390147209167,84.12760496139526 27.372506260871887,83.66903066635132 27.372506260871887,83.66903066635132 27.50454545021057,83.24178457260132 27.50454545021057,83.24178457260132 27.71376073360443,82.85515904426575 27.71376073360443,82.85515904426575 27.990859746932983,82.5181782245636 27.990859746932983,82.5181782245636 28.326958417892456,82.24012851715088 28.326958417892456,82.24012851715088 28.71297299861908,82.03016519546509 28.71297299861908,82.03016519546509 29.13987934589386,81.89738392829895 29.13987934589386,81.89738392829895 29.598525166511536,81.85113072395325 29.598525166511536,81.85113072395325" stroke="white" stroke-width="0.1" /><polygon points="43.20095479488373,81.85113072395325 43.65939795970917,81.89738392829895 44.08610165119171,82.03016519546509 44.47204768657684,82.24012851715088 44.80821490287781,82.5181782245636 45.08545100688934,82.8550934791565 45.294731855392456,83.24178457260132 45.42704522609711,83.66903066635132 45.473092794418335,84.12760496139526 45.473092794418335,97.72569537162781 45.42704522609711,98.18413853645325 45.294731855392456,98.61111640930176 45.08545100688934,98.99753332138062 44.80821490287781,99.33404326438904 44.47197914123535,99.61175322532654 44.08610165119171,99.82137084007263 43.659329414367676,99.95381832122803 43.20095479488373,100.0 29.598525166511536,100.0 29.13987934589386,99.95381832122803 28.71297299861908,99.82137084007263 28.326958417892456,99.61168169975281 27.990859746932983,99.33404326438904 27.71376073360443,98.99746775627136 27.50454545021057,98.61124753952026 27.372506260871887,98.18413853645325 27.326390147209167,97.72569537162781 27.326390147209167,84.12760496139526 27.372506260871887,83.66903066635132 27.50454545021057,83.24178457260132 27.71376073360443,82.85515904426575 27.990859746932983,82.5181782245636 28.326958417892456,82.24012851715088 28.71297299861908,82.03016519546509 29.13987934589386,81.89738392829895 29.598525166511536,81.85113072395325" stroke="white" stroke-width="0.1" /></svg>