<?xml version="1.0" encoding="utf-8" ?>
<svg baseProfile="full" height="73.67382049560547" version="1.1" width="100.0" xmlns="http://www.w3.org/2000/svg" xmlns:ev="http://www.w3.org/2001/xml-events" xmlns:xlink="http://www.w3.org/1999/xlink"><defs><clipPath /></defs><polygon points="14.911176264286041,73.67135286331177 14.911176264286041,73.67135286331177 11.912086606025696,73.3672559261322 11.912086606025696,73.3672559261322 9.116163849830627,72.49722480773926 9.116163849830627,72.49722480773926 6.584089249372482,71.12154364585876 6.584089249372482,71.12154364585876 4.376387968659401,69.30052042007446 4.376387968659401,69.30052042007446 2.55350973457098,67.09466576576233 2.55350973457098,67.09466576576233 1.1762120760977268,64.5642101764679 1.1762120760977268,64.5642101764679 0.3048667684197426,61.76964044570923 0.3048667684197426,61.76964044570923 0.0,58.7712824344635 0.0,58.7712824344635 0.0,14.907476305961609 0.0,14.907476305961609 0.3048667684197426,11.908192932605743 0.3048667684197426,11.908192932605743 1.1762120760977268,9.11269411444664 1.1762120760977268,9.11269411444664 2.5535868480801582,6.5813519060611725 2.5535868480801582,6.5813519060611725 4.376387968659401,4.374537244439125 4.376387968659401,4.374537244439125 6.584165990352631,2.552623115479946 6.584165990352631,2.552623115479946 9.116163849830627,1.1759807355701923 9.116163849830627,1.1759807355701923 11.912009865045547,0.30502097215503454 11.912009865045547,0.30502097215503454 14.911176264286041,0.0 14.911176264286041,0.0 85.08142232894897,0.00246730814978946 85.08142232894897,0.00246730814978946 88.08073997497559,0.30660158954560757 88.08073997497559,0.30660158954560757 90.87650775909424,1.1770602315664291 90.87650775909424,1.1770602315664291 93.40842962265015,2.5532012805342674 93.40842962265015,2.5532012805342674 95.61620950698853,4.374845698475838 95.61620950698853,4.374845698475838 97.43955135345459,6.581467390060425 97.43955135345459,6.581467390060425 98.81815910339355,9.112732857465744 98.81815910339355,9.112732857465744 99.69174265861511,11.908192932605743 99.69174265861511,11.908192932605743 100.0,14.907476305961609 100.0,14.907476305961609 100.0,58.7712824344635 100.0,58.7712824344635 99.69174265861511,61.769598722457886 99.69174265861511,61.769598722457886 98.81815910339355,64.5642876625061 98.81815910339355,64.5642876625061 97.43947386741638,67.09474325180054 97.43947386741638,67.09474325180054 95.61620950698853,69.30082440376282 95.61620950698853,69.30082440376282 93.40842962265015,71.12212181091309 93.40842962265015,71.12212181091309 90.87650775909424,72.49822616577148 90.87650775909424,72.49822616577148 88.08073997497559,73.3689546585083 88.08073997497559,73.3689546585083 85.08142232894897,73.67382049560547 85.08142232894897,73.67382049560547" stroke="white" stroke-width="0.1" /><polygon points="3.5085123032331467,58.7712824344635 3.5085123032331467,58.7712824344635 3.743986040353775,61.05369329452515 3.743986040353775,61.05369329452515 4.413166269659996,63.18444609642029 4.413166269659996,63.18444609642029 5.469482392072678,65.1170015335083 5.469482392072678,65.1170015335083 6.865747272968292,66.80452823638916 6.865747272968292,66.80452823638916 8.555082231760025,68.2005226612091 8.555082231760025,68.2005226612091 10.490300506353378,69.2583441734314 10.490300506353378,69.2583441734314 12.624752521514893,69.93122100830078 12.624752521514893,69.93122100830078 14.911176264286041,70.17270922660828 14.911176264286041,70.17270922660828 85.08142232894897,70.17270922660828 85.08142232894897,70.17270922660828 87.37000226974487,69.93122100830078 87.37000226974487,69.93122100830078 89.50538039207458,69.2583441734314 89.50538039207458,69.2583441734314 91.44075512886047,68.2005226612091 91.44075512886047,68.2005226612091 93.12947392463684,66.80452823638916 93.12947392463684,66.80452823638916 94.52473521232605,65.11696577072144 94.52473521232605,65.11696577072144 95.57989239692688,63.18444609642029 95.57989239692688,63.18444609642029 96.24814987182617,61.05369329452515 96.24814987182617,61.05369329452515 96.48284912109375,58.7712824344635 96.48284912109375,58.7712824344635 96.48284912109375,14.907476305961609 96.48284912109375,14.907476305961609 96.24814987182617,12.617851793766022 96.24814987182617,12.617851793766022 95.57989239692688,10.482127219438553 95.57989239692688,10.482127219438553 94.52473521232605,8.546716719865799 94.52473521232605,8.546716719865799 93.12947392463684,6.858191639184952 93.12947392463684,6.858191639184952 91.44075512886047,5.463121458888054 91.44075512886047,5.463121458888054 89.50538039207458,4.407961666584015 89.50538039207458,4.407961666584015 87.37000226974487,3.739282488822937 87.37000226974487,3.739282488822937 85.08142232894897,3.503577411174774 85.08142232894897,3.503577411174774 14.911176264286041,3.503577411174774 14.911176264286041,3.503577411174774 12.624752521514893,3.739282488822937 12.624752521514893,3.739282488822937 10.490377247333527,4.408000037074089 10.490377247333527,4.408000037074089 8.555005490779877,5.463121458888054 8.555005490779877,5.463121458888054 6.865747272968292,6.858191639184952 6.865747272968292,6.858191639184952 5.469482392072678,8.546677976846695 5.469482392072678,8.546677976846695 4.413243383169174,10.482088476419449 4.413243383169174,10.482088476419449 3.743908926844597,12.617851793766022 3.743908926844597,12.617851793766022 3.5085123032331467,14.907476305961609 3.5085123032331467,14.907476305961609" stroke="white" stroke-width="0.1" /><polygon points="4.376387968659401,69.30052042007446 3.5085123032331467,58.7712824344635 3.743986040353775,61.05369329452515" stroke="white" stroke-width="0.1" /><polygon points="3.743986040353775,61.05369329452515 4.413166269659996,63.18444609642029 4.376387968659401,69.30052042007446" stroke="white" stroke-width="0.1" /><polygon points="4.413166269659996,63.18444609642029 5.469482392072678,65.1170015335083 4.376387968659401,69.30052042007446" stroke="white" stroke-width="0.1" /><polygon points="5.469482392072678,65.1170015335083 6.865747272968292,66.80452823638916 4.376387968659401,69.30052042007446" stroke="white" stroke-width="0.1" /><polygon points="6.865747272968292,66.80452823638916 8.555082231760025,68.2005226612091 4.376387968659401,69.30052042007446" stroke="white" stroke-width="0.1" /><polygon points="8.555082231760025,68.2005226612091 10.490300506353378,69.2583441734314 4.376387968659401,69.30052042007446" stroke="white" stroke-width="0.1" /><polygon points="10.490300506353378,69.2583441734314 12.624752521514893,69.93122100830078 4.376387968659401,69.30052042007446" stroke="white" stroke-width="0.1" /><polygon points="12.624752521514893,69.93122100830078 14.911176264286041,70.17270922660828 6.584089249372482,71.12154364585876 4.376387968659401,69.30052042007446" stroke="white" stroke-width="0.1" /><polygon points="14.911176264286041,70.17270922660828 85.08142232894897,70.17270922660828 85.08142232894897,73.67382049560547 14.911176264286041,73.67135286331177 11.912086606025696,73.3672559261322 9.116163849830627,72.49722480773926 6.584089249372482,71.12154364585876" stroke="white" stroke-width="0.1" /><polygon points="85.08142232894897,70.17270922660828 87.37000226974487,69.93122100830078 85.08142232894897,73.67382049560547" stroke="white" stroke-width="0.1" /><polygon points="87.37000226974487,69.93122100830078 89.50538039207458,69.2583441734314 85.08142232894897,73.67382049560547" stroke="white" stroke-width="0.1" /><polygon points="89.50538039207458,69.2583441734314 91.44075512886047,68.2005226612091 85.08142232894897,73.67382049560547" stroke="white" stroke-width="0.1" /><polygon points="91.44075512886047,68.2005226612091 93.12947392463684,66.80452823638916 88.08073997497559,73.3689546585083 85.08142232894897,73.67382049560547" stroke="white" stroke-width="0.1" /><polygon points="93.12947392463684,66.80452823638916 94.52473521232605,65.11696577072144 90.87650775909424,72.49822616577148 88.08073997497559,73.3689546585083" stroke="white" stroke-width="0.1" /><polygon points="94.52473521232605,65.11696577072144 95.57989239692688,63.18444609642029 93.40842962265015,71.12212181091309 90.87650775909424,72.49822616577148" stroke="white" stroke-width="0.1" /><polygon points="95.57989239692688,63.18444609642029 96.24814987182617,61.05369329452515 95.61620950698853,69.30082440376282 93.40842962265015,71.12212181091309" stroke="white" stroke-width="0.1" /><polygon points="96.24814987182617,61.05369329452515 96.48284912109375,58.7712824344635 97.43947386741638,67.09474325180054 95.61620950698853,69.30082440376282" stroke="white" stroke-width="0.1" /><polygon points="96.48284912109375,58.7712824344635 96.48284912109375,14.907476305961609 100.0,14.907476305961609 100.0,58.7712824344635 99.69174265861511,61.769598722457886 98.81815910339355,64.5642876625061 97.43947386741638,67.09474325180054" stroke="white" stroke-width="0.1" /><polygon points="96.48284912109375,14.907476305961609 96.24814987182617,12.617851793766022 100.0,14.907476305961609" stroke="white" stroke-width="0.1" /><polygon points="96.24814987182617,12.617851793766022 95.57989239692688,10.482127219438553 100.0,14.907476305961609" stroke="white" stroke-width="0.1" /><polygon points="95.57989239692688,10.482127219438553 94.52473521232605,8.546716719865799 100.0,14.907476305961609" stroke="white" stroke-width="0.1" /><polygon points="94.52473521232605,8.546716719865799 93.12947392463684,6.858191639184952 99.69174265861511,11.908192932605743 100.0,14.907476305961609" stroke="white" stroke-width="0.1" /><polygon points="93.12947392463684,6.858191639184952 91.44075512886047,5.463121458888054 98.81815910339355,9.112732857465744 99.69174265861511,11.908192932605743" stroke="white" stroke-width="0.1" /><polygon points="91.44075512886047,5.463121458888054 89.50538039207458,4.407961666584015 97.43955135345459,6.581467390060425 98.81815910339355,9.112732857465744" stroke="white" stroke-width="0.1" /><polygon points="89.50538039207458,4.407961666584015 87.37000226974487,3.739282488822937 95.61620950698853,4.374845698475838 97.43955135345459,6.581467390060425" stroke="white" stroke-width="0.1" /><polygon points="87.37000226974487,3.739282488822937 85.08142232894897,3.503577411174774 93.40842962265015,2.5532012805342674 95.61620950698853,4.374845698475838" stroke="white" stroke-width="0.1" /><polygon points="85.08142232894897,3.503577411174774 14.911176264286041,3.503577411174774 14.911176264286041,0.0 85.08142232894897,0.00246730814978946 88.08073997497559,0.30660158954560757 90.87650775909424,1.1770602315664291 93.40842962265015,2.5532012805342674" stroke="white" stroke-width="0.1" /><polygon points="14.911176264286041,3.503577411174774 12.624752521514893,3.739282488822937 14.911176264286041,0.0" stroke="white" stroke-width="0.1" /><polygon points="12.624752521514893,3.739282488822937 10.490377247333527,4.408000037074089 14.911176264286041,0.0" stroke="white" stroke-width="0.1" /><polygon points="10.490377247333527,4.408000037074089 8.555005490779877,5.463121458888054 14.911176264286041,0.0" stroke="white" stroke-width="0.1" /><polygon points="8.555005490779877,5.463121458888054 6.865747272968292,6.858191639184952 11.912009865045547,0.30502097215503454 14.911176264286041,0.0" stroke="white" stroke-width="0.1" /><polygon points="6.865747272968292,6.858191639184952 5.469482392072678,8.546677976846695 9.116163849830627,1.1759807355701923 11.912009865045547,0.30502097215503454" stroke="white" stroke-width="0.1" /><polygon points="5.469482392072678,8.546677976846695 4.413243383169174,10.482088476419449 6.584165990352631,2.552623115479946 9.116163849830627,1.1759807355701923" stroke="white" stroke-width="0.1" /><polygon points="4.413243383169174,10.482088476419449 3.743908926844597,12.617851793766022 4.376387968659401,4.374537244439125 6.584165990352631,2.552623115479946" stroke="white" stroke-width="0.1" /><polygon points="3.743908926844597,12.617851793766022 3.5085123032331467,14.907476305961609 2.5535868480801582,6.5813519060611725 4.376387968659401,4.374537244439125" stroke="white" stroke-width="0.1" /><polygon points="3.5085123032331467,14.907476305961609 3.5085123032331467,58.7712824344635 0.0,58.7712824344635 0.0,14.907476305961609 0.3048667684197426,11.908192932605743 1.1762120760977268,9.11269411444664 2.5535868480801582,6.5813519060611725" stroke="white" stroke-width="0.1" /><polygon points="3.5085123032331467,58.7712824344635 4.376387968659401,69.30052042007446 2.55350973457098,67.09466576576233 1.1762120760977268,64.5642101764679 0.3048667684197426,61.76964044570923 0.0,58.7712824344635" stroke="white" stroke-width="0.1" /></svg>