<?xml version="1.0" encoding="utf-8" ?>
<svg baseProfile="full" height="73.67291450500488" version="1.1" width="100.0" xmlns="http://www.w3.org/2000/svg" xmlns:ev="http://www.w3.org/2001/xml-events" xmlns:xlink="http://www.w3.org/1999/xlink"><defs><clipPath /></defs><polygon points="14.910992980003357,73.67168068885803 14.910992980003357,73.67168068885803 11.912248283624649,73.3668565750122 11.912248283624649,73.3668565750122 9.116514027118683,72.49629497528076 9.116514027118683,72.49629497528076 6.584547460079193,71.12032175064087 6.584547460079193,71.12032175064087 4.376796633005142,69.29920315742493 4.376796633005142,69.29920315742493 2.553863823413849,67.09322333335876 2.553863823413849,67.09322333335876 1.1764288879930973,64.56272006034851 1.1764288879930973,64.56272006034851 0.30486301984637976,61.76798939704895 0.30486301984637976,61.76798939704895 0.0,58.76932144165039 0.0,58.76932144165039 0.0,14.904825389385223 0.0,14.904825389385223 0.30494011007249355,11.906079947948456 0.30494011007249355,11.906079947948456 1.1763517744839191,9.11119431257248 1.1763517744839191,9.11119431257248 2.553863823413849,6.58046081662178 2.553863823413849,6.58046081662178 4.376796633005142,4.374175146222115 4.376796633005142,4.374175146222115 6.584547460079193,2.5527073070406914 6.584547460079193,2.5527073070406914 9.11659151315689,1.176274660974741 9.11659151315689,1.176274660974741 11.912248283624649,0.30528707429766655 11.912248283624649,0.30528707429766655 14.910992980003357,0.0 14.910992980003357,0.0 85.08284091949463,0.002467277772666421 85.08284091949463,0.002467277772666421 88.08204531669617,0.30694478191435337 88.08204531669617,0.30694478191435337 90.87770581245422,1.1773541569709778 90.87770581245422,1.1773541569709778 93.40944290161133,2.5532469153404236 93.40944290161133,2.5532469153404236 95.61688303947449,4.374483600258827 95.61688303947449,4.374483600258827 97.43996858596802,6.580577045679092 97.43996858596802,6.580577045679092 98.8183319568634,9.111233055591583 98.8183319568634,9.111233055591583 99.69174861907959,11.906079947948456 99.69174861907959,11.906079947948456 100.0,14.904825389385223 100.0,14.904825389385223 100.0,58.76932144165039 100.0,58.76932144165039 99.6918261051178,61.76798939704895 99.6918261051178,61.76798939704895 98.8183319568634,64.56272006034851 98.8183319568634,64.56272006034851 97.43989109992981,67.09330081939697 97.43989109992981,67.09330081939697 95.61688303947449,69.29935812950134 95.61688303947449,69.29935812950134 93.40944290161133,71.1206316947937 93.40944290161133,71.1206316947937 90.87770581245422,72.49683141708374 90.87770581245422,72.49683141708374 88.08212280273438,73.36770296096802 88.08212280273438,73.36770296096802 85.08284091949463,73.67291450500488 85.08284091949463,73.67291450500488" stroke="white" stroke-width="0.1" /><polygon points="3.5097025334835052,58.76932144165039 3.5097025334835052,58.76932144165039 3.745173290371895,61.052095890045166 3.745173290371895,61.052095890045166 4.414422437548637,63.18320631980896 4.414422437548637,63.18320631980896 5.470648780465126,65.11585712432861 5.470648780465126,65.11585712432861 6.866742670536041,66.80339574813843 6.866742670536041,66.80339574813843 8.555825054645538,68.19933652877808 8.555825054645538,68.19933652877808 10.490865260362625,69.25691366195679 10.490865260362625,69.25691366195679 12.624983489513397,69.92955207824707 12.624983489513397,69.92955207824707 14.910992980003357,70.17061114311218 14.910992980003357,70.17061114311218 85.08284091949463,70.17061114311218 85.08284091949463,70.17061114311218 87.37100958824158,69.92955207824707 87.37100958824158,69.92955207824707 89.50605392456055,69.25691366195679 89.50605392456055,69.25691366195679 91.44124388694763,68.19933652877808 91.44124388694763,68.19933652877808 93.12986731529236,66.80339574813843 93.12986731529236,66.80339574813843 94.52518820762634,65.1157796382904 94.52518820762634,65.1157796382904 95.58048844337463,63.18316459655762 95.58048844337463,63.18316459655762 96.2490439414978,61.05213165283203 96.2490439414978,61.05213165283203 96.48413062095642,58.76932144165039 96.48413062095642,58.76932144165039 96.48413062095642,14.904825389385223 96.48413062095642,14.904825389385223 96.2489664554596,12.615267932415009 96.2489664554596,12.615267932415009 95.58048844337463,10.47949269413948 95.58048844337463,10.47949269413948 94.52518820762634,8.544182777404785 94.52518820762634,8.544182777404785 93.12986731529236,6.855794042348862 93.12986731529236,6.855794042348862 91.44132137298584,5.460856854915619 91.44132137298584,5.460856854915619 89.50605392456055,4.405941441655159 89.50605392456055,4.405941441655159 87.37100958824158,3.7375789135694504 87.37100958824158,3.7375789135694504 85.08284091949463,3.5023007541894913 85.08284091949463,3.5023007541894913 14.910992980003357,3.5010673105716705 14.910992980003357,3.5010673105716705 12.624983489513397,3.7368077784776688 12.624983489513397,3.7368077784776688 10.490865260362625,4.405401647090912 10.490865260362625,4.405401647090912 8.555825054645538,5.460548400878906 8.555825054645538,5.460548400878906 6.866742670536041,6.855639815330505 6.866742670536041,6.855639815330505 5.470571666955948,8.544106036424637 5.470571666955948,8.544106036424637 4.414422437548637,10.47949269413948 4.414422437548637,10.47949269413948 3.7450961768627167,12.615229189395905 3.7450961768627167,12.615229189395905 3.5097025334835052,14.904825389385223 3.5097025334835052,14.904825389385223" stroke="white" stroke-width="0.1" /><polygon points="4.376796633005142,69.29920315742493 3.5097025334835052,58.76932144165039 3.745173290371895,61.052095890045166" stroke="white" stroke-width="0.1" /><polygon points="3.745173290371895,61.052095890045166 4.414422437548637,63.18320631980896 4.376796633005142,69.29920315742493" stroke="white" stroke-width="0.1" /><polygon points="4.414422437548637,63.18320631980896 5.470648780465126,65.11585712432861 4.376796633005142,69.29920315742493" stroke="white" stroke-width="0.1" /><polygon points="5.470648780465126,65.11585712432861 6.866742670536041,66.80339574813843 4.376796633005142,69.29920315742493" stroke="white" stroke-width="0.1" /><polygon points="6.866742670536041,66.80339574813843 8.555825054645538,68.19933652877808 4.376796633005142,69.29920315742493" stroke="white" stroke-width="0.1" /><polygon points="8.555825054645538,68.19933652877808 10.490865260362625,69.25691366195679 4.376796633005142,69.29920315742493" stroke="white" stroke-width="0.1" /><polygon points="10.490865260362625,69.25691366195679 12.624983489513397,69.92955207824707 4.376796633005142,69.29920315742493" stroke="white" stroke-width="0.1" /><polygon points="12.624983489513397,69.92955207824707 14.910992980003357,70.17061114311218 6.584547460079193,71.12032175064087 4.376796633005142,69.29920315742493" stroke="white" stroke-width="0.1" /><polygon points="14.910992980003357,70.17061114311218 85.08284091949463,70.17061114311218 85.08284091949463,73.67291450500488 14.910992980003357,73.67168068885803 11.912248283624649,73.3668565750122 9.116514027118683,72.49629497528076 6.584547460079193,71.12032175064087" stroke="white" stroke-width="0.1" /><polygon points="85.08284091949463,70.17061114311218 87.37100958824158,69.92955207824707 85.08284091949463,73.67291450500488" stroke="white" stroke-width="0.1" /><polygon points="87.37100958824158,69.92955207824707 89.50605392456055,69.25691366195679 85.08284091949463,73.67291450500488" stroke="white" stroke-width="0.1" /><polygon points="89.50605392456055,69.25691366195679 91.44124388694763,68.19933652877808 85.08284091949463,73.67291450500488" stroke="white" stroke-width="0.1" /><polygon points="91.44124388694763,68.19933652877808 93.12986731529236,66.80339574813843 88.08212280273438,73.36770296096802 85.08284091949463,73.67291450500488" stroke="white" stroke-width="0.1" /><polygon points="93.12986731529236,66.80339574813843 94.52518820762634,65.1157796382904 90.87770581245422,72.49683141708374 88.08212280273438,73.36770296096802" stroke="white" stroke-width="0.1" /><polygon points="94.52518820762634,65.1157796382904 95.58048844337463,63.18316459655762 93.40944290161133,71.1206316947937 90.87770581245422,72.49683141708374" stroke="white" stroke-width="0.1" /><polygon points="95.58048844337463,63.18316459655762 96.2490439414978,61.05213165283203 95.61688303947449,69.29935812950134 93.40944290161133,71.1206316947937" stroke="white" stroke-width="0.1" /><polygon points="96.2490439414978,61.05213165283203 96.48413062095642,58.76932144165039 97.43989109992981,67.09330081939697 95.61688303947449,69.29935812950134" stroke="white" stroke-width="0.1" /><polygon points="96.48413062095642,58.76932144165039 96.48413062095642,14.904825389385223 100.0,14.904825389385223 100.0,58.76932144165039 99.6918261051178,61.76798939704895 98.8183319568634,64.56272006034851 97.43989109992981,67.09330081939697" stroke="white" stroke-width="0.1" /><polygon points="96.48413062095642,14.904825389385223 96.2489664554596,12.615267932415009 100.0,14.904825389385223" stroke="white" stroke-width="0.1" /><polygon points="96.2489664554596,12.615267932415009 95.58048844337463,10.47949269413948 100.0,14.904825389385223" stroke="white" stroke-width="0.1" /><polygon points="95.58048844337463,10.47949269413948 94.52518820762634,8.544182777404785 100.0,14.904825389385223" stroke="white" stroke-width="0.1" /><polygon points="94.52518820762634,8.544182777404785 93.12986731529236,6.855794042348862 99.69174861907959,11.906079947948456 100.0,14.904825389385223" stroke="white" stroke-width="0.1" /><polygon points="93.12986731529236,6.855794042348862 91.44132137298584,5.460856854915619 98.8183319568634,9.111233055591583 99.69174861907959,11.906079947948456" stroke="white" stroke-width="0.1" /><polygon points="91.44132137298584,5.460856854915619 89.50605392456055,4.405941441655159 97.43996858596802,6.580577045679092 98.8183319568634,9.111233055591583" stroke="white" stroke-width="0.1" /><polygon points="89.50605392456055,4.405941441655159 87.37100958824158,3.7375789135694504 95.61688303947449,4.374483600258827 97.43996858596802,6.580577045679092" stroke="white" stroke-width="0.1" /><polygon points="87.37100958824158,3.7375789135694504 85.08284091949463,3.5023007541894913 93.40944290161133,2.5532469153404236 95.61688303947449,4.374483600258827" stroke="white" stroke-width="0.1" /><polygon points="85.08284091949463,3.5023007541894913 14.910992980003357,3.5010673105716705 14.910992980003357,0.0 85.08284091949463,0.002467277772666421 88.08204531669617,0.30694478191435337 90.87770581245422,1.1773541569709778 93.40944290161133,2.5532469153404236" stroke="white" stroke-width="0.1" /><polygon points="14.910992980003357,3.5010673105716705 12.624983489513397,3.7368077784776688 14.910992980003357,0.0" stroke="white" stroke-width="0.1" /><polygon points="12.624983489513397,3.7368077784776688 10.490865260362625,4.405401647090912 14.910992980003357,0.0" stroke="white" stroke-width="0.1" /><polygon points="10.490865260362625,4.405401647090912 8.555825054645538,5.460548400878906 14.910992980003357,0.0" stroke="white" stroke-width="0.1" /><polygon points="8.555825054645538,5.460548400878906 6.866742670536041,6.855639815330505 11.912248283624649,0.30528707429766655 14.910992980003357,0.0" stroke="white" stroke-width="0.1" /><polygon points="6.866742670536041,6.855639815330505 5.470571666955948,8.544106036424637 9.11659151315689,1.176274660974741 11.912248283624649,0.30528707429766655" stroke="white" stroke-width="0.1" /><polygon points="5.470571666955948,8.544106036424637 4.414422437548637,10.47949269413948 6.584547460079193,2.5527073070406914 9.11659151315689,1.176274660974741" stroke="white" stroke-width="0.1" /><polygon points="4.414422437548637,10.47949269413948 3.7450961768627167,12.615229189395905 4.376796633005142,4.374175146222115 6.584547460079193,2.5527073070406914" stroke="white" stroke-width="0.1" /><polygon points="3.7450961768627167,12.615229189395905 3.5097025334835052,14.904825389385223 2.553863823413849,6.58046081662178 4.376796633005142,4.374175146222115" stroke="white" stroke-width="0.1" /><polygon points="3.5097025334835052,14.904825389385223 3.5097025334835052,58.76932144165039 0.0,58.76932144165039 0.0,14.904825389385223 0.30494011007249355,11.906079947948456 1.1763517744839191,9.11119431257248 2.553863823413849,6.58046081662178" stroke="white" stroke-width="0.1" /><polygon points="3.5097025334835052,58.76932144165039 4.376796633005142,69.29920315742493 2.553863823413849,67.09322333335876 1.1764288879930973,64.56272006034851 0.30486301984637976,61.76798939704895 0.0,58.76932144165039" stroke="white" stroke-width="0.1" /></svg>